<?xml version="1.0" standalone="no"?><!DOCTYPE svg PUBLIC "-//W3C//DTD SVG 1.1//EN" "http://www.w3.org/Graphics/SVG/1.1/DTD/svg11.dtd"><svg class="icon" width="128px" height="128.00px" viewBox="0 0 1024 1024" version="1.1" xmlns="http://www.w3.org/2000/svg"><path d="M362.722 767.942h298.586v255.942H362.722z" fill="#E6E9ED" /><path d="M831.926 789.248c0 11.81-9.53 21.34-21.308 21.34H213.412a21.326 21.326 0 0 1-21.338-21.34V21.442c0-11.78 9.558-21.324 21.338-21.324h597.206c11.78 0 21.308 9.544 21.308 21.324v767.806z" fill="#48CFAD" /><path d="M320.044 448.014l109.694-182.816 109.692 182.816z" fill="#E6E9ED" /><path d="M411.46 448.014l146.248-255.94 146.248 255.94z" fill="#F5F7FA" /><path d="M577.39 682.618H449.42a21.328 21.328 0 0 1-21.338-21.34c0-11.746 9.56-21.306 21.338-21.306h127.97c11.778 0 21.34 9.56 21.34 21.306 0 11.81-9.562 21.34-21.34 21.34zM662.714 597.292h-298.62a21.294 21.294 0 0 1-21.306-21.308c0-11.808 9.53-21.338 21.306-21.338h298.62c11.778 0 21.308 9.53 21.308 21.338a21.292 21.292 0 0 1-21.308 21.308z" fill="#434A54" /><path d="M725.292 42.764H298.736c-11.78 0-21.338-9.544-21.338-21.322 0-11.78 9.558-21.324 21.338-21.324h426.556c11.78 0 21.34 9.544 21.34 21.324 0 11.776-9.56 21.322-21.34 21.322z" fill="#E6E9ED" /><path d="M746.632 1023.882H277.398c-11.78 0-21.34-9.56-21.34-21.34 0-11.778 9.56-21.338 21.34-21.338h469.234c11.778 0 21.308 9.56 21.308 21.338 0.002 11.78-9.53 21.34-21.308 21.34z" fill="#434A54" /></svg>