<?xml version="1.0" standalone="no"?><!DOCTYPE svg PUBLIC "-//W3C//DTD SVG 1.1//EN" "http://www.w3.org/Graphics/SVG/1.1/DTD/svg11.dtd"><svg class="icon" width="128px" height="128.00px" viewBox="0 0 1024 1024" version="1.1" xmlns="http://www.w3.org/2000/svg"><path d="M106.786 981.236c-0.968 0-1.938-0.094-2.906-0.218-11.684-1.594-19.838-12.342-18.246-23.994l14.558-106.602c1.594-11.652 12.372-19.806 24.026-18.246 11.654 1.624 19.838 12.374 18.246 24.058l-14.59 106.538c-1.436 10.686-10.59 18.464-21.088 18.464zM917.224 1023.882c-11.778 0-21.308-9.56-21.308-21.308v-132.438c0-11.78 9.532-21.34 21.308-21.34s21.34 9.56 21.34 21.34v132.438c0 11.748-9.562 21.308-21.34 21.308zM234.726 1023.882c-11.78 0-21.338-9.56-21.338-21.308v-132.438c0-11.78 9.56-21.34 21.338-21.34s21.338 9.56 21.338 21.34v132.438c0 11.748-9.56 21.308-21.338 21.308z" fill="#434A54" /><path d="M938.564 874.604c0 11.748-9.562 21.308-21.34 21.308h-682.5c-11.78 0-21.338-9.56-21.338-21.308V21.442c0-11.78 9.56-21.324 21.338-21.324h682.5c11.778 0 21.34 9.544 21.34 21.324v853.162z" fill="#FFCE54" /><path d="M352.042 512l127.97-213.28L607.982 512z" fill="#DA4453" /><path d="M458.674 512l170.618-298.604L799.94 512z" fill="#ED5564" /><path d="M661.284 682.648h-170.618c-11.778 0-21.338 9.53-21.338 21.308s9.56 21.306 21.338 21.306h170.618c11.78 0 21.34-9.53 21.34-21.306 0-11.778-9.562-21.308-21.34-21.308zM746.608 597.292H405.342c-11.778 0-21.308 9.56-21.308 21.372 0 11.746 9.53 21.306 21.308 21.306h341.266c11.778 0 21.34-9.56 21.34-21.306 0-11.81-9.564-21.372-21.34-21.372z" fill="#434A54" /><path d="M99.974 853.328h113.412V17.442z" fill="#F6BB42" /></svg>