<?xml version="1.0" standalone="no"?><!DOCTYPE svg PUBLIC "-//W3C//DTD SVG 1.1//EN" "http://www.w3.org/Graphics/SVG/1.1/DTD/svg11.dtd"><svg class="icon" width="128px" height="128.00px" viewBox="0 0 1024 1024" version="1.1" xmlns="http://www.w3.org/2000/svg"><path d="M1002.67 938.8H21.36c-11.78 0-21.342-9.562-21.342-21.342 0-11.782 9.562-21.312 21.342-21.312h981.31a21.3 21.3 0 0 1 21.312 21.312c0 11.78-9.53 21.342-21.312 21.342z" fill="#434A54" /><path d="M937.236 523.892c-15.782-24.516-33.344-43.374-34.094-44.17a21.25 21.25 0 0 0-8.282-5.454L276.32 249.134 226.916 143.14a21.322 21.322 0 0 0-12.03-11.016L89.514 86.486a21.396 21.396 0 0 0-21.186 3.828 21.356 21.356 0 0 0-7.062 20.312l59.842 305.74a21.352 21.352 0 0 0 13.656 15.952l684.664 249.212c2.344 0.844 4.812 1.282 7.312 1.282 0.844 0 1.688-0.062 2.532-0.156 1.094-0.124 26.654-3.282 54.498-11.906 41.624-12.938 67.154-31.624 75.874-55.56 8.684-23.908 1.152-54.626-22.408-91.298z" fill="#5D9CEC" /><path d="M697.276 498.126l-292.522-106.48a21.252 21.252 0 0 0-17.906 1.562L123.356 544.72a21.314 21.314 0 0 0-10.624 20.31 21.326 21.326 0 0 0 13.968 18.218l125.338 45.624a21.84 21.84 0 0 0 7.312 1.282c1.468 0 2.938-0.156 4.406-0.438L694.4 539.048a21.366 21.366 0 0 0 16.874-19.376 21.332 21.332 0 0 0-13.998-21.546z" fill="#E6E9ED" /><path d="M937.236 523.892c-15.782-24.516-33.344-43.374-34.094-44.17a21.25 21.25 0 0 0-8.282-5.454l-6.594-2.406c2.094 3 4.218 6.14 6.282 9.36 23.594 36.656 31.124 67.374 22.406 91.31-8.688 23.938-34.218 42.624-75.842 55.532-27.842 8.656-53.404 11.812-54.498 11.938-0.844 0.094-1.688 0.156-2.562 0.156-2.468 0-4.938-0.438-7.282-1.282l-293.834-106.966-261.866 55.124c-1.438 0.312-2.906 0.468-4.376 0.468-2.5 0-4.968-0.438-7.312-1.282L115.76 552.128a21.266 21.266 0 0 0-3.032 12.904 21.326 21.326 0 0 0 13.968 18.218l125.338 45.624a21.84 21.84 0 0 0 7.312 1.282c1.468 0 2.938-0.156 4.406-0.438l261.836-55.124 293.832 106.936c2.344 0.844 4.812 1.282 7.312 1.282 0.844 0 1.688-0.062 2.532-0.156 1.094-0.124 26.654-3.282 54.498-11.906 41.624-12.938 67.154-31.624 75.874-55.56 8.692-23.908 1.16-54.626-22.4-91.298zM117.7 398.974l3.406 17.39a21.352 21.352 0 0 0 13.656 15.952l112.59 41 28.906-16.624-158.558-57.718z" fill="#FFFFFF" opacity=".2" /></svg>