<?xml version="1.0" standalone="no"?><!DOCTYPE svg PUBLIC "-//W3C//DTD SVG 1.1//EN" "http://www.w3.org/Graphics/SVG/1.1/DTD/svg11.dtd"><svg class="icon" width="128px" height="128.00px" viewBox="0 0 1024 1024" version="1.1" xmlns="http://www.w3.org/2000/svg"><path d="M794.312 573.274l-4.374 15.552c-20.83 73.858-55.838 123.294-107.026 151.09-34.696 18.864-72.422 25.046-106.994 27.232l0.062-528.162c39.256-22.672 63.928-64.708 63.928-110.742 0-70.518-57.37-127.918-127.918-127.918-70.516 0-127.918 57.4-127.918 127.918 0 46.032 24.704 88.13 63.958 110.772l0.062 527.912c-34.602-2.342-72.328-8.712-107.212-27.764-51.216-27.918-86.164-77.106-106.836-150.34l-4.374-15.552H149.38l0.188 21.518c1.842 196.404 92.41 261.02 284.162 352.554 43.19 20.612 58.712 41.878 60.148 43.91l17.77 32.416 18.456-32.416c1.312-1.876 16.8-23.236 60.148-43.91 191.786-91.536 282.32-156.15 284.164-352.554l0.218-21.518h-80.322zM511.992 170.876c-23.546 0-42.628-19.082-42.628-42.628 0-23.548 19.082-42.66 42.628-42.66s42.628 19.112 42.628 42.66c0.002 23.544-19.08 42.628-42.628 42.628z" fill="#CCD1D9" /><path d="M277.486 338.768H746.5v85.29H277.486z" fill="#E6E9ED" /><path d="M894.558 481.02l-14.988-43.254-23.454 39.318c-0.468 0.75-46.16 76.888-125.64 167.392l-31.074 35.416h119.144l57.62 115.05 17.926-42.91c11.21-26.826 18.768-56.37 22.424-87.818 6.902-59.648-0.47-121.296-21.958-183.194zM167.87 477.084l-23.422-39.318-15.022 43.254c-21.486 61.898-28.856 123.546-21.924 183.196 3.654 31.45 11.18 60.992 22.392 87.818l17.926 42.91 57.62-115.05h119.142l-31.074-35.416c-79.262-90.256-125.17-166.644-125.638-167.394z" fill="#E6E9ED" /></svg>