<?xml version="1.0" standalone="no"?><!DOCTYPE svg PUBLIC "-//W3C//DTD SVG 1.1//EN" "http://www.w3.org/Graphics/SVG/1.1/DTD/svg11.dtd"><svg class="icon" width="128px" height="128.00px" viewBox="0 0 1024 1024" version="1.1" xmlns="http://www.w3.org/2000/svg"><path d="M895.986 512h-42.688c-35.28 0-63.996 28.702-63.996 63.996v341.302c0 35.31 28.716 63.996 63.996 63.996h42.688c35.282 0 63.998-28.686 63.998-63.996V575.996c0-35.294-28.716-63.996-63.998-63.996z" fill="#E9573F" /><path d="M895.986 512h-42.688c-31.842 0-58.308 23.374-63.184 53.872l20.532 31.438 149.338 99.558v-120.872c0-35.294-28.716-63.996-63.998-63.996z" fill="#8CC153" /><path d="M170.668 512H128.014c-35.312 0-63.998 28.702-63.998 63.996v341.302c0 35.31 28.686 63.996 63.998 63.996h42.654c35.282 0 63.998-28.686 63.998-63.996V575.996c0-35.294-28.716-63.996-63.998-63.996z" fill="#E9573F" /><path d="M213.324 597.308l21.342-8.562v-12.75c0-35.294-28.716-63.996-63.998-63.996H128.014c-35.312 0-63.998 28.702-63.998 63.996v120.872l149.308-99.56z" fill="#8CC153" /><path d="M810.646 226.682H213.324c-11.782 0-21.312 9.544-21.312 21.326V448c0 11.782 9.532 21.328 21.312 21.328h597.322c11.78 0 21.342-9.546 21.342-21.328v-199.992c0-11.782-9.562-21.326-21.342-21.326z" fill="#FFD2A6" /><path d="M810.646 426.674H213.324c-11.782 0-21.312 9.546-21.312 21.326v433.798c0 11.75 9.532 21.312 21.312 21.312h597.322c11.78 0 21.342-9.562 21.342-21.312V448c0-11.78-9.562-21.326-21.342-21.326z" fill="#FFD2A6" /><path d="M789.302 639.996H234.666c-35.28 0-63.998 28.716-63.998 63.996v255.99c0 35.312 28.718 64 63.998 64h554.636c35.28 0 63.996-28.688 63.996-64V703.992c0-35.28-28.716-63.996-63.996-63.996z" fill="#A0D468" /><path d="M725.302 991.982c-11.78 0-21.308 9.562-21.308 21.312v10.688h42.652v-10.688c0-11.75-9.562-21.312-21.344-21.312zM639.996 991.982c-11.812 0-21.344 9.562-21.344 21.312v10.688h42.656v-10.688c0-11.75-9.53-21.312-21.312-21.312zM554.654 991.982c-11.78 0-21.342 9.562-21.342 21.312v10.688h42.686v-10.688c0-11.75-9.562-21.312-21.344-21.312zM469.314 991.982c-11.782 0-21.312 9.562-21.312 21.312v10.688h42.654v-10.688c0-11.75-9.56-21.312-21.342-21.312zM384.004 991.982c-11.81 0-21.342 9.562-21.342 21.312v10.688h42.654v-10.688c0-11.75-9.53-21.312-21.312-21.312zM298.664 991.982c-11.782 0-21.344 9.562-21.344 21.312v10.688h42.686v-10.688c0-11.75-9.56-21.312-21.342-21.312z" fill="#8CC153" /><path d="M383.942 298.678h-85.308c-11.782 0-21.344 9.546-21.344 21.328v213.32a21.4 21.4 0 0 0 6.25 15.11l42.654 42.624c4.188 4.188 9.624 6.25 15.094 6.25s10.938-2.062 15.094-6.25l42.654-42.624c4-4 6.25-9.454 6.25-15.11v-213.32c0-11.782-9.532-21.328-21.344-21.328zM725.302 298.678h-85.306c-11.812 0-21.344 9.546-21.344 21.328v213.32a21.4 21.4 0 0 0 6.25 15.11l42.656 42.624c4.156 4.188 9.624 6.25 15.094 6.25 5.466 0 10.904-2.062 15.092-6.25l42.652-42.624c4-4 6.25-9.454 6.25-15.11v-213.32c0-11.782-9.562-21.328-21.344-21.328z" fill="#656D78" /><path d="M277.29 384.004h127.996v42.67h-127.996zM618.652 384.004h127.994v42.67h-127.994z" fill="#434A54" /><path d="M597.308 831.986h-170.65c-11.78 0-21.342-9.562-21.342-21.31 0-11.812 9.562-21.376 21.342-21.376h170.65c11.782 0 21.344 9.562 21.344 21.376 0 11.748-9.562 21.31-21.344 21.31z" fill="#8CC153" /><path d="M405.348 128.074c-1.688 0-3.406-0.204-5.124-0.624-11.438-2.812-18.436-14.422-15.624-25.858 0.656-2.61 6.812-26.234 24.844-50.36C434.47 17.736 469.94 0.018 512 0.018c42.03 0 77.496 17.718 102.528 51.214 18.032 24.124 24.188 47.75 24.844 50.36 2.812 11.436-4.188 22.998-15.624 25.81-11.438 2.796-23-4.188-25.812-15.638-0.688-2.718-18.466-69.076-85.934-69.076-67.498 0-85.248 66.358-85.998 69.186-2.378 9.716-11.062 16.2-20.656 16.2z" fill="#434A54" /><path d="M767.99 85.342H256.008c-35.31 0-63.996 28.716-63.996 63.998v127.996c0 35.294 28.686 63.998 63.996 63.998h511.982c35.282 0 63.998-28.704 63.998-63.998V149.34c0-35.282-28.716-63.998-63.998-63.998z" fill="#FC6E51" /><path d="M591.058 198.26l-63.996-63.998c-8.312-8.328-21.844-8.328-30.156 0L432.908 198.26c-8.344 8.328-8.344 21.844 0 30.172l63.998 63.998a21.284 21.284 0 0 0 15.062 6.248c5.468 0 10.938-2.094 15.094-6.248l63.996-63.998c8.344-8.328 8.344-21.844 0-30.172z" fill="#FFD2A6" /><path d="M170.668 810.676h682.63v42.624H170.668z" fill="#8CC153" /></svg>