<?xml version="1.0" standalone="no"?><!DOCTYPE svg PUBLIC "-//W3C//DTD SVG 1.1//EN" "http://www.w3.org/Graphics/SVG/1.1/DTD/svg11.dtd"><svg class="icon" width="128px" height="128.00px" viewBox="0 0 1024 1024" version="1.1" xmlns="http://www.w3.org/2000/svg"><path d="M884.104 344.538c-11.742-23.704-27.514-39.006-29.292-40.662l-29.356 30.918c0.124 0.124 12.46 12.086 20.89 29.668 10.182 21.112 10.306 40.038 0.468 57.838l37.32 20.644c16.802-30.356 16.77-64.396-0.03-98.406zM772.114 50.256c-30.356-24.734-64.896-32.792-99.904-23.296l11.18 41.162c51.81-14.084 84.79 40.38 86.196 42.722l18.364-10.806 18.426-10.712c-1.252-2.186-12.932-21.642-34.262-39.07zM537.53 208.812l-14.758 40.006c17.38 6.402 19.738 57.088 14.742 89.694v0.032l21.048 3.248 21.08 3.28c0.156-1.094 4.09-26.858 2.31-55.09-3.466-54.812-26.076-74.394-44.422-81.17z" fill="#AAB2BC" /><path d="M981.042 235.42c0 11.774-9.554 21.298-21.328 21.298-11.776 0-21.332-9.524-21.332-21.298s9.556-21.33 21.332-21.33c11.772 0 21.328 9.556 21.328 21.33zM767.834 427.298c0 11.774-9.554 21.298-21.328 21.298a21.286 21.286 0 0 1-21.3-21.298c0-11.774 9.526-21.33 21.3-21.33 11.774 0 21.328 9.556 21.328 21.33zM682.544 192.76c0 11.774-9.524 21.33-21.298 21.33s-21.33-9.556-21.33-21.33 9.556-21.298 21.33-21.298a21.28 21.28 0 0 1 21.298 21.298zM661.246 533.884c0 11.758-9.556 21.314-21.33 21.314s-21.33-9.556-21.33-21.314c0-11.776 9.556-21.33 21.33-21.33s21.33 9.556 21.33 21.33z" fill="#434A54" /><path d="M986.194 38.202c-49.936-49.968-130.946-49.968-180.882 0C800.908 42.576 7.524 926.304 7.524 926.304l90.442 90.722 888.226-797.94c49.97-49.936 49.97-130.946 0.002-180.884z" fill="#FFCE54" /><path d="M369.512 773.058l-168.58 151.436-20.69-190.566L384.08 506.934z" fill="#E6E9ED" /><path d="M170.888 951.476l42.644-38.32V696.858c-14.708 16.366-28.966 32.262-42.644 47.47v207.148zM256.162 874.87l42.644-38.288V601.886c-14.444 16.084-28.684 31.95-42.644 47.47v225.514zM341.452 798.262l42.628-38.288v-253.04c-14.272 15.894-28.512 31.758-42.628 47.452v243.876z" fill="#CCD1D9" /><path d="M895.752 405.968h-42.628c-11.804 0-21.328 9.556-21.328 21.33s9.554 21.298 21.328 21.298h42.628c11.774 0 21.332-9.526 21.332-21.298 0-11.774-9.558-21.33-21.332-21.33zM527.082 192.416l-30.152 30.136c-8.322 8.338-8.322 21.83 0 30.168 8.324 8.306 21.83 8.306 30.152 0v-0.032l30.138-30.106v-0.032c8.336-8.308 8.336-21.83 0-30.136-8.34-8.336-21.816-8.336-30.138 0.002zM682.544 0.882c-11.774 0-21.298 9.556-21.298 21.33V64.84c0 11.774 9.526 21.33 21.298 21.33s21.33-9.556 21.33-21.33V22.212c0.002-11.774-9.556-21.33-21.33-21.33z" fill="#CCD1D9" /><path d="M37.63 956.504S831.046 72.744 835.448 68.338c44.816-44.814 114.614-49.406 164.582-13.802a125.916 125.916 0 0 0-13.836-16.334c-49.936-49.968-130.946-49.968-180.882 0C800.908 42.576 7.524 926.304 7.524 926.304l30.106 30.2z" fill="#FFFFFF" opacity=".2" /><path d="M113.05 1023.274c-5.466 0-10.916-2.06-15.084-6.246L6.572 925.618c-8.324-8.306-8.324-21.798 0-30.136 8.322-8.338 21.83-8.338 30.152 0l91.394 91.41c8.338 8.308 8.324 21.83 0 30.136a21.268 21.268 0 0 1-15.068 6.246z" fill="#F6BB42" /></svg>