<?xml version="1.0" standalone="no"?><!DOCTYPE svg PUBLIC "-//W3C//DTD SVG 1.1//EN" "http://www.w3.org/Graphics/SVG/1.1/DTD/svg11.dtd"><svg class="icon" width="128px" height="128.00px" viewBox="0 0 1024 1024" version="1.1" xmlns="http://www.w3.org/2000/svg"><path d="M915.136 341.334H104.508c-46.936 0-78.264 37.748-69.608 83.872l96.544 514.904c8.656 46.124 54.124 83.874 101.058 83.874h597.292c46.936 0 90.092-38.094 95.936-84.686l64.152-513.294c5.814-46.562-27.81-84.67-74.746-84.67z" fill="#FFCE54" /><path d="M253.832 384.004c-35.342 0-63.998 28.654-63.998 63.996 0 35.344 28.656 64 63.998 64s63.998-28.656 63.998-64c0-35.342-28.656-63.996-63.998-63.996z m0 85.324c-11.764 0-21.328-9.562-21.328-21.328 0-11.764 9.562-21.326 21.328-21.326s21.344 9.562 21.344 21.326c-0.002 11.766-9.58 21.328-21.344 21.328zM765.796 384.004c-35.344 0-63.996 28.654-63.996 63.996 0 35.344 28.652 64 63.996 64s63.998-28.656 63.998-64c0-35.342-28.654-63.996-63.998-63.996z m0 85.324c-11.75 0-21.312-9.562-21.312-21.328 0-11.764 9.562-21.326 21.312-21.326 11.782 0 21.344 9.562 21.344 21.326 0 11.766-9.562 21.328-21.344 21.328z" fill="#F6BB42" /><path d="M106.93 809.332H941.98l26.654-213.336H66.932zM765.796 469.344c-10 0-18.906-7.032-20.906-17.188-0.218-1.062-21.376-106.432-62.806-210.07-23.938-59.842-49.75-107.262-76.75-140.916-31.124-38.812-63.262-58.482-95.51-58.482s-64.388 19.67-95.512 58.482c-27 33.654-52.828 81.074-76.748 140.916-41.436 103.638-62.592 209.008-62.81 210.07-2.282 11.546-13.516 19.062-25.078 16.766-11.546-2.296-19.062-13.516-16.766-25.076 0.876-4.422 22.014-109.824 64.826-217.07C357.782 76.31 429.138 0.018 509.824 0.018c80.666 0 152.042 76.292 212.068 226.758 42.812 107.246 63.968 212.648 64.844 217.07 2.282 11.56-5.218 22.794-16.782 25.076-1.408 0.282-2.782 0.422-4.158 0.422z" fill="#434A54" /><path d="M915.136 341.334H872.48c46.938 0 80.56 38.108 74.75 84.668l-64.188 513.294c-5.812 46.592-48.966 84.686-95.902 84.686h42.654c46.936 0 90.092-38.094 95.936-84.686l64.152-513.294c5.814-46.56-27.81-84.668-74.746-84.668z" fill="#FFFFFF" opacity=".2" /></svg>