<?xml version="1.0" standalone="no"?><!DOCTYPE svg PUBLIC "-//W3C//DTD SVG 1.1//EN" "http://www.w3.org/Graphics/SVG/1.1/DTD/svg11.dtd"><svg class="icon" width="128px" height="128.00px" viewBox="0 0 1024 1024" version="1.1" xmlns="http://www.w3.org/2000/svg"><path d="M981.304 810.652c0 11.782-9.532 21.344-21.312 21.344H21.352c-11.796 0-21.344-9.562-21.344-21.344V277.318s123.514-127.966 490.648-127.966c367.15 0 490.648 127.966 490.648 127.966v533.334z" fill="#967ADC" /><path d="M1022.868 547.938l0.032-0.032-42.656-127.998-40.5 13.5 42.532 127.592s0.032 0.032 0.032 0.062l0.124 0.344c2.812 8.468 10.812 14.594 20.218 14.594 11.782 0 21.344-9.562 21.344-21.344a20.828 20.828 0 0 0-1.126-6.718z" fill="#434A54" /><path d="M981.304 853.304c0 11.782-9.532 21.344-21.312 21.344H21.352c-11.796 0-21.344-9.562-21.344-21.344V320.002s123.514-127.998 490.648-127.998c367.15 0 490.648 127.998 490.648 127.998v533.302z" fill="#AC92EB" /><path d="M810.652 853.304c0 11.782-52.218 21.344-21.344 21.344H234.676c-54.452 0-63.998-9.562-63.998-21.344V469.314c0-11.75 9.546-21.312 21.328-21.312h597.302c11.812 0 21.344 9.562 21.344 21.312v383.99z" fill="#4FC2E9" /><path d="M170.678 682.652v170.652c0 11.782 9.546 21.344 63.998 21.344h554.632c-30.876 0 21.344-9.562 21.344-21.344v-170.652H170.678z" fill="#3BAFDA" /><path d="M490.656 746.652c-47.046 0-85.326-38.282-85.326-85.344 0-47.058 38.28-85.308 85.326-85.308C537.718 576 576 614.25 576 661.308c0 47.064-38.282 85.344-85.344 85.344z" fill="#F5F7FA" /><path d="M490.656 554.656c-58.888 0-106.654 47.782-106.654 106.652 0 58.906 47.766 106.688 106.654 106.688 58.906 0 106.656-47.782 106.656-106.688 0-58.87-47.75-106.652-106.656-106.652z m0 170.652c-35.282 0-63.982-28.718-63.982-64 0-27.782 17.842-51.528 42.654-60.308v60.308c0 11.782 9.562 21.344 21.328 21.344 11.796 0 21.344-9.562 21.344-21.344V601c24.844 8.782 42.688 32.528 42.688 60.308 0 35.282-28.734 64-64.032 64z" fill="#434A54" /></svg>