<?xml version="1.0" standalone="no"?><!DOCTYPE svg PUBLIC "-//W3C//DTD SVG 1.1//EN" "http://www.w3.org/Graphics/SVG/1.1/DTD/svg11.dtd"><svg class="icon" width="128px" height="128.00px" viewBox="0 0 1024 1024" version="1.1" xmlns="http://www.w3.org/2000/svg"><path d="M426.706 619.414h170.618v319.144h-170.618z" fill="#E6E9ED" /><path d="M512 639.97h42.676v298.588H512z" fill="#F5F7FA" /><path d="M0.118 128.088h1023.766v554.53H0.118z" fill="#AC92EB" /><path d="M85.442 533.34l109.692-182.834 109.694 182.834z" fill="#E6E9ED" /><path d="M176.826 533.34l146.28-255.942 146.246 255.942z" fill="#F5F7FA" /><path d="M575.984 405.368h170.648c11.778 0 21.308-9.56 21.308-21.338s-9.532-21.338-21.308-21.338h-170.648c-11.778 0-21.308 9.56-21.308 21.338s9.532 21.338 21.308 21.338zM874.604 448.014h-298.62c-11.778 0-21.308 9.56-21.308 21.338 0 11.78 9.532 21.308 21.308 21.308h298.62c11.78 0 21.306-9.528 21.306-21.308 0-11.776-9.528-21.338-21.306-21.338z" fill="#434A54" /><path d="M170.766 128.088H85.442c-11.78 0-21.338-9.56-21.338-21.338 0-11.78 9.56-21.308 21.338-21.308h85.324c11.748 0 21.308 9.53 21.308 21.308s-9.562 21.338-21.308 21.338zM426.706 128.088h-85.324c-11.78 0-21.338-9.56-21.338-21.338 0-11.78 9.56-21.308 21.338-21.308h85.324c11.78 0 21.308 9.53 21.308 21.308s-9.528 21.338-21.308 21.338zM682.648 128.088h-85.324c-11.78 0-21.34-9.56-21.34-21.338 0-11.78 9.56-21.308 21.34-21.308h85.324a21.294 21.294 0 0 1 21.306 21.308c0.002 11.778-9.528 21.338-21.306 21.338zM938.59 128.088h-85.324c-11.78 0-21.34-9.56-21.34-21.338 0-11.78 9.56-21.308 21.34-21.308h85.324a21.294 21.294 0 0 1 21.306 21.308c0 11.778-9.528 21.338-21.306 21.338z" fill="#434A54" /></svg>