<?xml version="1.0" standalone="no"?><!DOCTYPE svg PUBLIC "-//W3C//DTD SVG 1.1//EN" "http://www.w3.org/Graphics/SVG/1.1/DTD/svg11.dtd"><svg class="icon" width="128px" height="128.00px" viewBox="0 0 1024 1024" version="1.1" xmlns="http://www.w3.org/2000/svg"><path d="M466.774 319.94c-0.858 0-1.722-0.05-2.594-0.156-11.696-1.418-20.03-12.048-18.612-23.746 0.498-4.104 6.588-40.1 66.432-40.1s65.932 35.998 66.43 40.102c1.416 11.698-6.918 22.326-18.616 23.744-10.724 1.304 22.562 342.93 19.912 332.76-1.66-1.702-120.538-9.264-136.566-9.264-16.034 0-87.864 138.25-16.672-161.174-2.434 9.346 49.968-162.166 40.286-162.166zM221.438 163.814l76.81-10.31 93.928 29.702 37.726 34.172 7.9-99.302a21.14 21.14 0 0 0-0.116-4.452h0.004c-0.252-1.934-2.852-19.376-16.324-36.562-12.28-15.66-36.13-34.33-80.036-34.33-81.046 0-101.616 48.998-104.348 56.708l-0.07 0.2c-0.128 0.372-0.21 0.628-0.246 0.746l0.026 0.008c-0.126 0.412-0.264 0.818-0.366 1.244l-14.888 62.176z" fill="#AAB2BC" /><path d="M453.664 176.854c-30.256-32.01-75.226-48.24-133.664-48.24-78.538 0-126.472 39.346-152.856 72.352-28.148 35.214-37.99 70.564-38.394 72.05L6.68 719.648c-3.106 11.364 3.59 23.096 14.956 26.2 1.882 0.516 3.776 0.76 5.636 0.76 9.378 0 17.974-6.23 20.566-15.712l336.342 34.274c-1.53 11.682 6.704 22.392 18.384 23.922 0.94 0.124 1.874 0.182 2.794 0.182 10.548 0 19.718-7.824 21.124-18.566l64.322-491.546c0.034-0.25 0.036-0.494 0.06-0.742l0.968 0.054c0.136-2.362 2.79-58.29-38.168-101.62z" fill="#434A54" /><path d="M803.758 163.814l-76.812-10.31-93.93 29.702-37.724 34.172-7.9-99.302a21.278 21.278 0 0 1 0.114-4.452h-0.002c0.252-1.934 2.852-19.376 16.326-36.562 12.276-15.66 36.126-34.33 80.034-34.33 81.046 0 101.616 48.998 104.348 56.708l0.068 0.2c0.13 0.372 0.21 0.628 0.248 0.746l-0.026 0.008c0.124 0.412 0.262 0.818 0.366 1.244l14.89 62.176z" fill="#AAB2BC" /><path d="M571.528 176.854c30.256-32.01 75.228-48.24 133.668-48.24 78.536 0 126.47 39.346 152.854 72.352 28.148 35.214 37.99 70.564 38.396 72.05h-0.002l122.068 446.632c3.108 11.364-3.588 23.096-14.954 26.2-1.882 0.516-3.776 0.76-5.636 0.76-9.378 0-17.974-6.23-20.566-15.712l-336.342 34.274c1.53 11.682-6.702 22.392-18.384 23.922-0.942 0.124-1.872 0.182-2.794 0.182-10.55 0-19.72-7.824-21.126-18.566l-64.32-491.546c-0.034-0.25-0.036-0.494-0.058-0.742l-0.97 0.054c-0.14-2.362-2.792-58.29 38.166-101.62z" fill="#434A54" /><path d="M213.332 554.604C95.7 554.604 0 650.304 0 767.936c0 117.632 95.7 213.334 213.332 213.334s213.334-95.702 213.334-213.334-95.702-213.332-213.334-213.332zM810.666 554.604c-117.632 0-213.334 95.702-213.334 213.332 0 117.632 95.702 213.334 213.334 213.334S1024 885.568 1024 767.936s-95.702-213.332-213.334-213.332z" fill="#656D78" /><path d="M213.332 618.604C130.99 618.604 64 685.596 64 767.936c0 82.344 66.99 149.334 149.332 149.334 82.344 0 149.334-66.99 149.334-149.334 0-82.34-66.99-149.332-149.334-149.332zM810.666 618.604c-82.344 0-149.334 66.992-149.334 149.332 0 82.344 66.99 149.334 149.334 149.334 82.342 0 149.334-66.99 149.334-149.334 0-82.34-66.992-149.332-149.334-149.332z" fill="#5D9CEC" /><path d="M810.666 618.604a151.84 151.84 0 0 0-10.666 0.384c77.382 5.49 138.666 70.194 138.666 148.948 0 78.758-61.284 143.46-138.666 148.952 3.524 0.248 7.078 0.382 10.666 0.382 82.342 0 149.334-66.99 149.334-149.334 0-82.34-66.992-149.332-149.334-149.332zM213.332 618.604c-3.586 0-7.142 0.136-10.666 0.384 77.382 5.49 138.666 70.194 138.666 148.948 0 78.758-61.284 143.46-138.666 148.952 3.524 0.248 7.08 0.382 10.666 0.382 82.344 0 149.334-66.99 149.334-149.334 0-82.34-66.99-149.332-149.334-149.332z" fill="#FFFFFF" opacity=".2" /><path d="M442.096 655.362a68.866 68.646 0 1 0 137.732 0 68.866 68.646 0 1 0-137.732 0Z" fill="#CCD1D9" /></svg>