<?xml version="1.0" standalone="no"?><!DOCTYPE svg PUBLIC "-//W3C//DTD SVG 1.1//EN" "http://www.w3.org/Graphics/SVG/1.1/DTD/svg11.dtd"><svg class="icon" width="128px" height="128.00px" viewBox="0 0 1024 1024" version="1.1" xmlns="http://www.w3.org/2000/svg"><path d="M206.556 105.538c-45.752-45.752-119.94-45.752-165.708 0-45.752 45.752-45.752 119.956 0 165.676l60.258 60.274c8.306 8.306 8.306 21.798 0 30.106l30.122 30.136c24.968-24.952 24.968-65.426 0-90.378l-60.244-60.242c-29.076-29.076-29.076-76.388 0-105.434 29.076-29.106 76.374-29.106 105.432 0l225.278 225.262 30.122-30.138-225.26-225.262z" fill="#CCD1D9" /><path d="M131.572 361.968c8.322 8.306 8.322 21.798 0 30.106-8.308 8.308-21.798 8.308-30.122 0-8.322-8.306-8.322-21.798 0-30.106 8.324-8.338 21.814-8.338 30.122 0z" fill="#FFCE54" /><path d="M661.53 228.492c-69.142 0-133.726 19.362-188.676 52.966l-37.29-37.288-120.5 120.484 37.29 37.29c-33.604 54.964-52.982 119.548-52.982 188.69 0 199.998 162.146 362.142 362.158 362.142 199.998 0 362.142-162.144 362.142-362.142 0-199.996-162.144-362.142-362.142-362.142z" fill="#434A54" /><path d="M444.606 253.194l-9.042-9.026-23.766 23.766a364.176 364.176 0 0 1 32.808-14.74zM661.53 228.492c-14.428 0-28.67 0.842-42.66 2.498 179.948 21.048 319.608 174.014 319.608 359.644 0 185.568-139.628 338.534-319.544 359.644a368.42 368.42 0 0 0 42.598 2.498c199.998 0 362.142-162.144 362.142-362.142-0.002-199.996-162.146-362.142-362.144-362.142z" fill="#FFFFFF" opacity=".2" /><path d="M130.994 444.54a21.264 21.264 0 0 0-30.122 0 21.128 21.128 0 0 0-6.2 15.866v40.974a21.184 21.184 0 0 0 6.2 15.864 21.26 21.26 0 0 0 30.122 0 21.146 21.146 0 0 0 6.246-15.052h0.032v-42.598h-0.032a21.2 21.2 0 0 0-6.246-15.054zM225.2 474.646h0.032l-30.122-30.136-0.032 0.032a21.17 21.17 0 0 0-15.068-6.246c-11.758 0-21.298 9.556-21.298 21.298 0 6.184 2.654 11.742 6.854 15.616l28.966 28.982a21.228 21.228 0 0 0 15.6 6.808c11.774 0.032 21.314-9.494 21.314-21.298 0-5.874-2.39-11.184-6.246-15.056zM51.764 438.262a21.41 21.41 0 0 0-15.068 6.214h-0.032L6.542 474.584l0.032 0.062a21.202 21.202 0 0 0-6.246 15.052c0 11.742 9.54 21.298 21.298 21.298 6.184 0 11.742-2.654 15.63-6.87l28.934-28.918c4.216-3.904 6.87-9.462 6.87-15.646 0.002-11.774-9.538-21.3-21.296-21.3z" fill="#FFCE54" /><path d="M465.702 274.274l-120.516 120.548-30.122-30.168 120.5-120.486z" fill="#656D78" /></svg>