<?xml version="1.0" standalone="no"?><!DOCTYPE svg PUBLIC "-//W3C//DTD SVG 1.1//EN" "http://www.w3.org/Graphics/SVG/1.1/DTD/svg11.dtd"><svg class="icon" width="128px" height="128.00px" viewBox="0 0 1024 1024" version="1.1" xmlns="http://www.w3.org/2000/svg"><path d="M616.184 613.718C589.95 571.246 655.44 62.542 655.44 62.542S546.448 0.334 369.186 0.334 123.842 62.542 123.842 62.542s40.88 732.624 78.574 960.104l248.56 0.374v-42.38s166.676 52.904 338.314 41.38c160.958-10.776 233.912 11.992 234.194-122.046 0.22-114.02-287.316-92.034-407.3-286.256z" fill="#A85D5D" /><path d="M369.186 42.962c155.212 0 258.084 47.688 281.258 59.554 3.06-25.016 4.996-39.974 4.996-39.974S546.448 0.334 369.186 0.334 123.842 62.542 123.842 62.542s0.812 14.742 2.342 40.662c13.274-10.526 84.478-60.242 243.002-60.242z" fill="#8C4C4C" /><path d="M616.184 613.718c-1.312-2.124-2.404-5.464-3.28-9.804-51.592 29.106-265.362 143.94-428.256 143.784l7.776 80.51c200.028 0 416.42-128.512 466.544-160.084-15.74-16.022-30.198-34.01-42.784-54.406z" fill="#FFCE54" /><path d="M1022.392 925.114c-352.712 54.81-539.5-16.614-614.576-24.92-53.622-5.934-165.458-9.026-221.734-3.216 5.434 49.874 10.9 93.002 16.334 125.67l248.56 0.374V980.64s166.676 52.904 338.314 41.38c150.03-10.024 223.608 9.058 233.102-96.906z" fill="#434A54" /><path d="M341.516 810.156c-23.516 0-42.628-19.114-42.628-42.628 0-23.484 19.112-42.598 42.628-42.598 23.486 0 42.628 19.114 42.628 42.598 0 23.514-19.144 42.628-42.628 42.628z" fill="#FFCE54" /><path d="M341.516 703.6c-35.322 0-63.928 28.638-63.928 63.928 0 35.322 28.606 63.958 63.928 63.958 35.29 0 63.928-28.636 63.928-63.958 0-35.29-28.638-63.928-63.928-63.928z m0 85.258c-11.742 0-21.33-9.556-21.33-21.33 0-11.742 9.588-21.298 21.33-21.298s21.298 9.556 21.298 21.298c0 11.772-9.556 21.33-21.298 21.33zM192.518 810.156c11.774 0 21.33-9.526 21.33-21.298s-9.556-21.33-21.33-21.33c-0.906 0-1.812 0.094-2.716 0.218a32.6 32.6 0 0 0-0.532-1.904c0.842-0.376 1.686-0.75 2.466-1.218 10.212-5.872 13.71-18.894 7.808-29.106-5.872-10.182-18.924-13.68-29.106-7.808-0.78 0.468-1.53 1-2.248 1.532l-1.406-1.406c0.562-0.718 1.062-1.436 1.53-2.248 5.872-10.182 2.374-23.204-7.808-29.106-10.182-5.874-23.236-2.406-29.106 7.806a18.86 18.86 0 0 0-1.186 2.404 33.114 33.114 0 0 0-1.906-0.532 18.78 18.78 0 0 0 0.188-2.654c0-11.774-9.556-21.298-21.298-21.298-11.774 0-21.33 9.526-21.33 21.298 0 0.906 0.062 1.78 0.188 2.654-0.656 0.156-1.282 0.344-1.906 0.532a19.13 19.13 0 0 0-1.186-2.404c-5.872-10.182-18.926-13.68-29.106-7.806-10.182 5.902-13.678 18.924-7.808 29.106 0.468 0.812 0.968 1.53 1.53 2.248l-1.406 1.406a23.476 23.476 0 0 0-2.25-1.532c-10.18-5.872-23.236-2.374-29.106 7.808-5.902 10.21-2.404 23.234 7.808 29.106 0.782 0.468 1.624 0.844 2.468 1.218-0.188 0.624-0.376 1.248-0.532 1.904a20.07 20.07 0 0 0-2.716-0.218c-11.774 0-21.33 9.556-21.33 21.33s9.556 21.298 21.33 21.298a19.82 19.82 0 0 0 2.748-0.188c0.156 0.624 0.344 1.25 0.53 1.876-0.842 0.342-1.686 0.748-2.498 1.216-10.212 5.902-13.71 18.926-7.808 29.108 5.872 10.21 18.926 13.708 29.106 7.806a18.22 18.22 0 0 0 2.342-1.592c0.468 0.466 0.936 0.904 1.406 1.374-0.594 0.75-1.124 1.5-1.624 2.342-5.872 10.212-2.374 23.236 7.808 29.108 10.18 5.902 23.234 2.404 29.106-7.778 0.5-0.842 0.874-1.716 1.25-2.592 0.624 0.188 1.25 0.376 1.874 0.532-0.124 0.938-0.218 1.874-0.218 2.842 0 11.742 9.556 21.298 21.33 21.298 11.742 0 21.298-9.556 21.298-21.298 0-0.968-0.094-1.904-0.218-2.842 0.624-0.156 1.25-0.344 1.874-0.532 0.374 0.876 0.75 1.75 1.25 2.592 5.872 10.182 18.924 13.68 29.106 7.778 10.212-5.872 13.678-18.894 7.808-29.108-0.5-0.842-1.032-1.592-1.624-2.342 0.468-0.468 0.936-0.906 1.406-1.374 0.718 0.56 1.5 1.124 2.342 1.592 10.182 5.902 23.236 2.404 29.106-7.806 5.902-10.182 2.406-23.206-7.808-29.108a20.09 20.09 0 0 0-2.498-1.216c0.188-0.624 0.376-1.25 0.532-1.876 0.902 0.126 1.808 0.188 2.746 0.188z" fill="#F6BB42" /><path d="M88.74 778.208c5.872-10.212 18.894-13.71 29.106-7.808 10.18 5.872 13.678 18.926 7.776 29.108-5.872 10.18-18.894 13.678-29.106 7.806-10.182-5.902-13.678-18.926-7.776-29.106z" fill="#FFCE54" /><path d="M616.184 613.718C589.95 571.246 655.44 62.542 655.44 62.542S546.448 0.334 369.186 0.334c-7.246 0-14.304 0.124-21.206 0.312 164.582 4.684 264.83 61.898 264.83 61.898S547.32 571.248 573.554 613.72c119.984 194.22 407.52 172.234 407.3 286.256-0.25 134.04-73.234 111.272-234.194 122.046a775.94 775.94 0 0 1-29.262 1.374c23.578 0.594 47.688 0.25 71.89-1.374 160.958-10.776 233.912 11.992 234.194-122.046 0.222-114.022-287.314-92.036-407.298-286.258z" fill="#FFFFFF" opacity=".2" /></svg>