<?xml version="1.0" standalone="no"?><!DOCTYPE svg PUBLIC "-//W3C//DTD SVG 1.1//EN" "http://www.w3.org/Graphics/SVG/1.1/DTD/svg11.dtd"><svg class="icon" width="128px" height="128.00px" viewBox="0 0 1024 1024" version="1.1" xmlns="http://www.w3.org/2000/svg"><path d="M732.86 337.948l95.124-95.158-87.1-87.1-95.126 95.158c-63.366-28.326-131.632-7.776-183.648 44.222l-110.71 110.74-46.096 46.094-26.14 26.108a12.326 12.326 0 0 0 0 17.426l209.084 209.118a12.33 12.33 0 0 0 17.426 0l26.14-26.172 46.078-46.096 110.742-110.678c52-52.028 72.55-120.298 44.226-183.662z" fill="#8CC153" /><path d="M300.48 499.344l26.14-26.14 46.096-46.094 110.726-110.71c51.998-51.998 120.25-72.546 183.65-44.252l95.124-95.126-21.33-21.33-95.126 95.158c-63.366-28.326-131.632-7.776-183.648 44.222L351.4 405.81l-46.096 46.094-26.14 26.108a12.326 12.326 0 0 0 0 17.426l21.314 21.33c-4.808-4.808-4.808-12.584 0.002-17.424z" opacity=".1" /><path d="M827.362 242.382l-86.57-86.6c-8.306-8.308-21.798-8.308-30.168 0-8.306 8.338-8.306 21.83 0 30.168l86.6 86.57c4.156 4.184 9.622 6.246 15.086 6.246 5.434 0 10.93-2.06 15.052-6.246 8.338-8.308 8.338-21.798 0-30.138z" fill="#A0D468" /><path d="M0.328 490.506H0.5c6.278 0 10.478 1.686 11.82 2.592l56.964 37.976c16.364 10.898 37.366 16.894 59.134 16.894 21.766 0 42.754-5.996 59.118-16.894l56.964-37.976c1.358-0.906 5.558-2.592 11.836-2.592s10.478 1.686 11.82 2.592l56.964 37.976c16.364 10.898 37.366 16.894 59.134 16.894s42.754-5.996 59.118-16.894l56.964-37.976c1.342-0.906 5.558-2.592 11.836-2.592s10.476 1.686 11.82 2.592l56.964 37.976c16.364 10.898 37.352 16.894 59.148 16.894 21.736 0 42.722-5.996 59.088-16.894l56.962-37.976c1.376-0.906 5.558-2.592 11.868-2.592 6.246 0 10.462 1.686 11.804 2.592l56.964 37.976c16.364 10.898 37.352 16.894 59.148 16.894 21.736 0 42.722-5.996 59.088-16.894l56.962-37.976c1.376-0.906 5.496-2.56 11.68-2.592v-42.66c-12.804 0.062-25.608 3.31-35.32 9.776l-56.934 37.974c-9.774 6.496-22.64 9.776-35.476 9.776-12.868 0-25.734-3.28-35.508-9.776l-56.934-37.974c-9.774-6.528-22.64-9.776-35.476-9.776-12.868 0-25.734 3.248-35.508 9.776l-56.934 37.974c-9.774 6.496-22.64 9.776-35.476 9.776-12.868 0-25.734-3.28-35.476-9.776l-56.964-37.974c-9.774-6.528-22.64-9.776-35.492-9.776-12.866 0-25.734 3.248-35.478 9.776l-56.962 37.974c-9.76 6.496-22.626 9.776-35.478 9.776-12.868 0-25.734-3.28-35.478-9.776l-56.962-37.974c-9.76-6.528-22.626-9.776-35.478-9.776-12.868 0-25.734 3.248-35.478 9.776l-56.962 37.974c-9.76 6.496-22.626 9.776-35.478 9.776-12.868 0-25.734-3.28-35.478-9.776l-56.964-37.974c-9.758-6.528-22.626-9.776-35.476-9.776H0.326v42.66z" fill="#5D9CEC" /><path d="M955.03 519.082c-16.366 10.898-37.352 16.894-59.088 16.894-21.796 0-42.786-5.996-59.148-16.894l-56.964-37.976c-1.342-0.906-5.558-2.592-11.804-2.592-6.308 0-10.492 1.686-11.868 2.592l-56.962 37.976c-16.366 10.898-37.352 16.894-59.088 16.894-21.796 0-42.786-5.996-59.148-16.894l-56.964-37.976c-1.344-0.906-5.542-2.592-11.82-2.592s-10.494 1.686-11.836 2.592l-56.964 37.976c-16.364 10.898-37.35 16.894-59.118 16.894s-42.77-5.996-59.134-16.894l-56.964-37.976c-1.342-0.906-5.542-2.592-11.82-2.592s-10.478 1.686-11.836 2.592L187.54 519.082c-16.364 10.898-37.352 16.894-59.118 16.894-21.768 0-42.77-5.996-59.134-16.894L12.32 481.106c-1.342-0.906-5.542-2.592-11.82-2.592H0.328v395.934h1023.344V478.514c-6.184 0.032-10.304 1.686-11.68 2.592l-56.962 37.976zM0.328 447.846H0.36 0.328z" fill="#4A89DC" /></svg>