<?xml version="1.0" standalone="no"?><!DOCTYPE svg PUBLIC "-//W3C//DTD SVG 1.1//EN" "http://www.w3.org/Graphics/SVG/1.1/DTD/svg11.dtd"><svg class="icon" width="128px" height="128.00px" viewBox="0 0 1024 1024" version="1.1" xmlns="http://www.w3.org/2000/svg"><path d="M998.914 40.3c-33.304-33.336-87.324-33.336-120.628 0L244.996 673.56l120.628 120.628L998.914 160.896c33.304-33.304 33.304-87.292 0-120.596z" fill="#ED5564" /><path d="M965.078 104.254c-8.308-8.31-21.806-8.31-30.148 0L289.314 749.856c-8.326 8.342-8.326 21.84 0 30.15a21.186 21.186 0 0 0 15.09 6.248c5.452 0 10.904-2.062 15.076-6.248l645.6-645.602c8.342-8.312 8.342-21.808-0.002-30.15z" fill="#DA4453" /><path d="M388.368 812.686c0 181.614-267.814 196.018-356.402 196.018-88.574 0 35.648-107.446 35.648-196.018 0-88.574 71.796-160.37 160.384-160.37 88.574 0 160.37 71.796 160.37 160.37z" fill="#656D78" /><path d="M31.966 1008.704c88.588 0 356.402-14.404 356.402-196.018 0-24.556-5.53-47.834-15.402-68.64 0 0.032-13.482 229.948-371.586 235.382-4.406 18.09 2.03 29.276 30.586 29.276z" fill="#434A54" /></svg>