<?xml version="1.0" standalone="no"?><!DOCTYPE svg PUBLIC "-//W3C//DTD SVG 1.1//EN" "http://www.w3.org/Graphics/SVG/1.1/DTD/svg11.dtd"><svg class="icon" width="128px" height="128.00px" viewBox="0 0 1024 1024" version="1.1" xmlns="http://www.w3.org/2000/svg"><path d="M0.118 21.458h532.364v341.234H0.118z" fill="#E6E9ED" /><path d="M491.52 21.458h532.364v341.234H491.52z" fill="#E6E9ED" /><path d="M0.118 320.044h532.364v383.912H0.118z" fill="#E6E9ED" /><path d="M491.52 320.044h532.364v383.912H491.52z" fill="#E6E9ED" /><path d="M0.118 661.308h532.364v341.234H0.118z" fill="#E6E9ED" /><path d="M491.52 661.308h532.364v341.234H491.52z" fill="#E6E9ED" /><path d="M597.292 874.572h85.356c11.746 0 21.306-9.528 21.306-21.306s-9.56-21.34-21.306-21.34h-85.356c-11.748 0-21.308 9.56-21.308 21.34s9.56 21.306 21.308 21.306zM810.618 917.25H597.292c-11.748 0-21.308 9.53-21.308 21.308s9.56 21.338 21.308 21.338h213.324c11.748 0 21.308-9.558 21.308-21.338s-9.558-21.308-21.306-21.308z" fill="#434A54" /><path d="M981.204 767.942c0 11.78-9.528 21.338-21.306 21.338s-21.306-9.558-21.306-21.338 9.528-21.34 21.306-21.34 21.306 9.56 21.306 21.34z" fill="#5D9CEC" /><path d="M597.292 533.34h85.356c11.746 0 21.306-9.56 21.306-21.34 0-11.778-9.56-21.338-21.306-21.338h-85.356c-11.748 0-21.308 9.56-21.308 21.338 0 11.78 9.56 21.34 21.308 21.34zM810.618 575.984H597.292c-11.748 0-21.308 9.562-21.308 21.34 0 11.78 9.56 21.308 21.308 21.308h213.324c11.748 0 21.308-9.53 21.308-21.308 0.002-11.778-9.558-21.34-21.306-21.34z" fill="#434A54" /><path d="M981.204 426.676c0 11.78-9.528 21.338-21.306 21.338s-21.306-9.56-21.306-21.338 9.528-21.308 21.306-21.308 21.306 9.53 21.306 21.308z" fill="#5D9CEC" /><path d="M597.292 192.074h85.356c11.746 0 21.306-9.56 21.306-21.34 0-11.778-9.56-21.306-21.306-21.306h-85.356c-11.748 0-21.308 9.528-21.308 21.306 0 11.78 9.56 21.34 21.308 21.34zM810.618 234.72H597.292c-11.748 0-21.308 9.56-21.308 21.338 0 11.78 9.56 21.34 21.308 21.34h213.324c11.748 0 21.308-9.56 21.308-21.34 0.002-11.778-9.558-21.338-21.306-21.338z" fill="#434A54" /><path d="M981.204 85.442c0 11.78-9.528 21.308-21.306 21.308s-21.306-9.53-21.306-21.308 9.528-21.338 21.306-21.338 21.306 9.56 21.306 21.338z" fill="#5D9CEC" /><path d="M64.102 874.572h85.308c11.778 0 21.338-9.528 21.338-21.306s-9.56-21.34-21.338-21.34H64.102c-11.78 0-21.324 9.56-21.324 21.34s9.546 21.306 21.324 21.306zM277.382 917.25H64.102c-11.78 0-21.324 9.53-21.324 21.308s9.544 21.338 21.324 21.338h213.28c11.778 0 21.338-9.558 21.338-21.338s-9.56-21.308-21.338-21.308z" fill="#434A54" /><path d="M448.014 767.942c0 11.78-9.544 21.338-21.324 21.338-11.778 0-21.338-9.558-21.338-21.338s9.56-21.34 21.338-21.34c11.78 0 21.324 9.56 21.324 21.34z" fill="#5D9CEC" /><path d="M64.102 533.34h85.308c11.778 0 21.338-9.56 21.338-21.34 0-11.778-9.56-21.338-21.338-21.338H64.102c-11.78 0-21.324 9.56-21.324 21.338 0.002 11.78 9.546 21.34 21.324 21.34zM277.382 575.984H64.102c-11.78 0-21.324 9.562-21.324 21.34 0 11.78 9.544 21.308 21.324 21.308h213.28c11.778 0 21.338-9.53 21.338-21.308s-9.56-21.34-21.338-21.34z" fill="#434A54" /><path d="M448.014 426.676c0 11.78-9.544 21.338-21.324 21.338-11.778 0-21.338-9.56-21.338-21.338s9.56-21.308 21.338-21.308c11.78 0 21.324 9.53 21.324 21.308z" fill="#5D9CEC" /><path d="M64.102 192.074h85.308c11.778 0 21.338-9.56 21.338-21.34 0-11.778-9.56-21.306-21.338-21.306H64.102c-11.78 0-21.324 9.528-21.324 21.306 0.002 11.78 9.546 21.34 21.324 21.34zM277.382 234.72H64.102c-11.78 0-21.324 9.56-21.324 21.338 0 11.78 9.544 21.34 21.324 21.34h213.28c11.778 0 21.338-9.56 21.338-21.34 0-11.778-9.56-21.338-21.338-21.338z" fill="#434A54" /><path d="M448.014 85.442c0 11.78-9.544 21.308-21.324 21.308-11.778 0-21.338-9.53-21.338-21.308s9.56-21.338 21.338-21.338c11.78 0 21.324 9.56 21.324 21.338z" fill="#5D9CEC" /><path d="M491.52 21.458h40.96v981.086h-40.96z" fill="#CCD1D9" /><path d="M0.118 320.044h1023.766v40.958H0.118zM0.118 662.996h1023.766v40.96H0.118z" fill="#CCD1D9" /></svg>