<?xml version="1.0" standalone="no"?><!DOCTYPE svg PUBLIC "-//W3C//DTD SVG 1.1//EN" "http://www.w3.org/Graphics/SVG/1.1/DTD/svg11.dtd"><svg class="icon" width="128px" height="128.00px" viewBox="0 0 1024 1024" version="1.1" xmlns="http://www.w3.org/2000/svg"><path d="M1023.882 810.588c0 11.78-9.562 21.338-21.308 21.338H21.456c-11.778 0-21.338-9.558-21.338-21.338V213.412c0-11.778 9.56-21.338 21.338-21.338h981.118c11.746 0 21.308 9.56 21.308 21.338v597.176z" fill="#5D9CEC" /><path d="M85.442 533.34l97.492-162.526 97.51 162.526z" fill="#E6E9ED" /><path d="M166.688 533.34l130.002-227.512 130 227.512z" fill="#F5F7FA" /><path d="M746.632 661.308h170.618c11.778 0 21.34-9.558 21.34-21.338s-9.562-21.338-21.34-21.338h-170.618c-11.808 0-21.34 9.558-21.34 21.338s9.532 21.338 21.34 21.338zM917.25 703.958H575.984c-11.778 0-21.308 9.558-21.308 21.338s9.532 21.306 21.308 21.306h341.266c11.778 0 21.34-9.528 21.34-21.306s-9.562-21.338-21.34-21.338z" fill="#434A54" /></svg>