<?xml version="1.0" standalone="no"?><!DOCTYPE svg PUBLIC "-//W3C//DTD SVG 1.1//EN" "http://www.w3.org/Graphics/SVG/1.1/DTD/svg11.dtd"><svg class="icon" width="128px" height="128.00px" viewBox="0 0 1024 1024" version="1.1" xmlns="http://www.w3.org/2000/svg"><path d="M703.876 981.004c-79.728 0-154.682-31.042-211.052-87.38-56.37-56.402-87.414-131.354-87.414-211.052 0-79.762 31.042-154.698 87.414-211.068 56.37-56.37 131.324-87.412 211.052-87.412 79.73 0 154.682 31.042 211.052 87.412 56.372 56.372 87.414 131.306 87.414 211.068 0 79.7-31.042 154.65-87.414 211.052-56.37 56.336-131.32 87.38-211.052 87.38z" fill="#AC92EB" /><path d="M703.876 362.76c-176.606 0-319.794 143.158-319.794 319.81 0 176.574 143.19 319.794 319.794 319.794 176.608 0 319.794-143.22 319.794-319.794 0.002-176.652-143.186-319.81-319.794-319.81z m228.698 163.176a272.874 272.874 0 0 1 21.332 36.836c-10.09 5.374-22.708 1.812-28.484-8.12-5.746-9.994-2.496-22.658 7.152-28.716zM725.144 406.2c-0.406 11.368-9.774 20.518-21.268 20.518-11.492 0-20.862-9.15-21.268-20.518 7.028-0.53 14.118-0.812 21.268-0.812 7.154 0 14.242 0.282 21.268 0.812zM475.18 839.158a273.13 273.13 0 0 1-21.33-36.852c10.088-5.374 22.706-1.812 28.482 8.182 5.714 9.932 2.498 22.612-7.152 28.67z m207.43 119.734c0.406-11.368 9.776-20.486 21.268-20.486 11.494 0 20.862 9.12 21.268 20.486-7.028 0.562-14.116 0.812-21.268 0.812-7.152 0.002-14.242-0.248-21.268-0.812z m129.136-20.924a280.588 280.588 0 0 1-44.348 14.43c-3.622-31.856-30.668-56.652-63.522-56.652s-59.898 24.796-63.522 56.652a280.654 280.654 0 0 1-44.348-14.43c-33.008-13.99-62.646-33.978-88.098-59.46-2-2-3.966-3.998-5.902-6.058 25.734-19.114 33.634-54.902 17.24-83.322-16.428-28.42-51.406-39.474-80.824-26.67-7.776-25.734-11.712-52.53-11.712-79.886 0-37.476 7.338-73.766 21.768-107.87 13.96-33.026 33.948-62.662 59.43-88.116 25.452-25.484 55.09-45.47 88.098-59.43a277.522 277.522 0 0 1 44.348-14.46c3.624 31.886 30.668 56.652 63.522 56.652s59.9-24.766 63.522-56.652a277.458 277.458 0 0 1 44.348 14.46c33.01 13.958 62.648 33.946 88.1 59.43 1.998 2 3.966 4.03 5.902 6.058-25.764 19.114-33.634 54.886-17.24 83.306 16.43 28.482 51.406 39.474 80.824 26.67 7.778 25.796 11.71 52.53 11.71 79.95 0 27.358-3.934 54.152-11.71 79.886-29.418-12.804-64.394-1.75-80.824 26.67-16.394 28.42-8.524 64.208 17.24 83.322a276.382 276.382 0 0 1-5.902 6.058c-25.452 25.484-55.09 45.472-88.1 59.462z m113.676-127.48c5.778-9.994 18.394-13.554 28.484-8.182a272.93 272.93 0 0 1-21.332 36.852c-9.648-6.058-12.898-18.738-7.152-28.67z" fill="#967ADC" /><path d="M853.124 682.57c0 82.384-66.832 149.216-149.248 149.216s-149.248-66.832-149.248-149.216c0-82.448 66.832-149.264 149.248-149.264s149.248 66.818 149.248 149.264z" fill="#F5F7FA" /><path d="M693.226 493.52c-10.21 5.902-13.708 18.926-7.804 29.136 5.872 10.182 18.924 13.68 29.106 7.808 10.21-5.902 13.71-18.926 7.806-29.138-5.872-10.18-18.924-13.678-29.108-7.806zM693.226 834.66c-10.21 5.872-13.708 18.926-7.804 29.108 5.872 10.18 18.924 13.678 29.106 7.806 10.21-5.872 13.71-18.926 7.806-29.106-5.872-10.244-18.924-13.678-29.108-7.808zM607.938 553.34c10.214 5.872 23.236 2.376 29.138-7.806 5.872-10.228 2.374-23.252-7.806-29.154-10.212-5.87-23.234-2.404-29.138 7.808a21.362 21.362 0 0 0 7.806 29.152zM799.816 811.8c-10.212-5.872-23.234-2.376-29.136 7.806-5.872 10.182-2.376 23.234 7.806 29.108 10.212 5.872 23.234 2.436 29.136-7.808 5.874-10.182 2.406-23.234-7.806-29.106zM556.16 575.952c-11.774 0-21.3 9.556-21.3 21.298 0 11.804 9.528 21.362 21.3 21.362s21.328-9.556 21.328-21.362c0-11.742-9.554-21.298-21.328-21.298zM851.596 746.53c-11.776 0-21.33 9.556-21.33 21.298 0 11.804 9.554 21.298 21.33 21.298a21.264 21.264 0 0 0 21.298-21.298c0-11.742-9.524-21.298-21.298-21.298zM551.788 671.89c-5.902-10.182-18.924-13.68-29.138-7.808-10.18 5.872-13.678 18.926-7.806 29.106 5.904 10.244 18.926 13.742 29.138 7.808 10.21-5.872 13.676-18.926 7.806-29.106zM892.914 671.89c-5.904-10.182-18.926-13.68-29.138-7.808-10.182 5.872-13.678 18.926-7.806 29.106 5.902 10.244 18.924 13.742 29.136 7.808 10.18-5.872 13.68-18.926 7.808-29.106zM566.84 749.34c-10.21-5.872-23.234-2.374-29.136 7.808a21.374 21.374 0 0 0 7.806 29.168c10.182 5.872 23.236 2.374 29.138-7.806 5.872-10.182 2.374-23.236-7.808-29.17zM840.914 615.738c10.212 5.872 23.234 2.374 29.138-7.808 5.872-10.18 2.404-23.234-7.806-29.106-10.214-5.872-23.236-2.374-29.138 7.808-5.872 10.18-2.374 23.236 7.806 29.106zM618.588 808.928c-11.774 0-21.298 9.554-21.298 21.362 0 11.742 9.526 21.298 21.298 21.298 11.776 0 21.33-9.556 21.33-21.298 0-11.808-9.554-21.362-21.33-21.362zM789.168 513.538c-11.776 0-21.332 9.524-21.332 21.298 0 11.758 9.556 21.316 21.332 21.316 11.774 0 21.296-9.558 21.296-21.316a21.28 21.28 0 0 0-21.296-21.298z" fill="#967ADC" /><path d="M320.124 639.91c-79.73 0-154.682-31.042-211.052-87.444-56.372-56.354-87.414-131.306-87.414-211.036S52.7 186.748 109.07 130.376s131.322-87.412 211.052-87.412 154.682 31.042 211.052 87.412c56.372 56.37 87.412 131.322 87.412 211.052s-31.042 154.682-87.412 211.038c-56.368 56.402-131.32 87.444-211.05 87.444z" fill="#ED5564" /><path d="M320.124 21.634C143.518 21.634 0.33 164.824 0.33 341.428c0 176.636 143.19 319.78 319.794 319.78s319.794-143.142 319.794-319.78c0-176.604-143.19-319.794-319.794-319.794zM548.82 184.81c8.028 11.71 15.178 23.984 21.33 36.852-10.088 5.372-22.706 1.812-28.482-8.15-5.746-9.932-2.498-22.642 7.152-28.702zM320.124 64.294c7.152 0 14.242 0.25 21.268 0.78-0.406 11.4-9.774 20.518-21.268 20.518-11.492 0-20.862-9.12-21.268-20.518 7.026-0.53 14.116-0.78 21.268-0.78zM91.426 184.81c9.65 6.058 12.868 18.77 7.152 28.702-5.778 9.962-18.394 13.522-28.482 8.15a271.584 271.584 0 0 1 21.33-36.852z m0 313.238a273.13 273.13 0 0 1-21.33-36.852c10.086-5.34 22.704-1.812 28.482 8.152 5.714 9.962 2.498 22.642-7.152 28.7z m228.698 120.564c-7.152 0-14.242-0.312-21.268-0.812 0.406-11.368 9.776-20.548 21.268-20.548 11.494 0 20.862 9.182 21.268 20.548-7.028 0.498-14.118 0.812-21.268 0.812z m107.868-21.8a274.378 274.378 0 0 1-44.346 14.49c-3.622-31.916-30.666-56.65-63.522-56.65-32.854 0-59.9 24.734-63.522 56.65a274.574 274.574 0 0 1-44.346-14.49c-33.01-13.928-62.648-33.916-88.1-59.382-2-2-3.966-4.06-5.904-6.09 25.734-19.114 33.634-54.872 17.24-83.292-16.426-28.482-51.404-39.506-80.824-26.702-7.776-25.764-11.71-52.528-11.71-79.916s3.934-54.154 11.71-79.886c29.418 12.774 64.396 1.75 80.824-26.702 16.396-28.42 8.496-64.208-17.24-83.292 1.936-2.06 3.904-4.09 5.904-6.09 25.452-25.484 55.088-45.47 88.1-59.43a277.5 277.5 0 0 1 44.346-14.46c3.622 31.886 30.668 56.684 63.522 56.684s59.9-24.796 63.522-56.684a277.434 277.434 0 0 1 44.346 14.46c33.01 13.96 62.648 33.948 88.1 59.43 1.998 2 3.966 4.03 5.902 6.09-25.764 19.082-33.634 54.872-17.24 83.292 16.426 28.45 51.406 39.474 80.824 26.702 7.778 25.734 11.71 52.498 11.71 79.886s-3.934 54.152-11.71 79.916c-29.418-12.804-64.396-1.78-80.824 26.702-16.396 28.418-8.526 64.178 17.24 83.292a555.844 555.844 0 0 1-5.902 6.09c-25.454 25.466-55.09 45.454-88.1 59.382z m113.676-127.464c5.778-9.962 18.394-13.492 28.482-8.152a273.04 273.04 0 0 1-21.33 36.852c-9.65-6.058-12.898-18.738-7.152-28.7z" fill="#DA4453" /><path d="M469.372 341.43c0 82.416-66.832 149.248-149.248 149.248s-149.248-66.832-149.248-149.248 66.832-149.216 149.248-149.216 149.248 66.8 149.248 149.216zM85.618 341.43c0 11.774-9.556 21.33-21.33 21.33s-21.33-9.556-21.33-21.33 9.556-21.298 21.33-21.298 21.33 9.524 21.33 21.298zM597.29 341.43c0 11.774-9.554 21.33-21.33 21.33-11.774 0-21.33-9.556-21.33-21.33s9.556-21.298 21.33-21.298c11.774-0.002 21.33 9.524 21.33 21.298zM202.854 544.534c10.212 5.872 13.71 18.926 7.808 29.108-5.872 10.242-18.926 13.678-29.106 7.806-10.212-5.872-13.71-18.926-7.808-29.106 5.872-10.198 18.926-13.696 29.106-7.808zM458.69 101.396c10.212 5.902 13.71 18.924 7.808 29.138-5.872 10.212-18.924 13.678-29.106 7.808-10.212-5.904-13.71-18.926-7.808-29.138 5.872-10.182 18.926-13.68 29.106-7.808zM437.392 544.534c10.182-5.886 23.236-2.388 29.106 7.808 5.902 10.18 2.406 23.234-7.808 29.106-10.18 5.872-23.236 2.436-29.106-7.806-5.902-10.184-2.404-23.238 7.808-29.108zM181.556 101.396c10.18-5.872 23.236-2.374 29.106 7.808 5.902 10.212 2.404 23.234-7.808 29.138-10.18 5.872-23.236 2.404-29.106-7.808-5.902-10.214-2.404-23.236 7.808-29.138z" fill="#FFCE54" /><path d="M703.876 618.612c-11.774 0-21.33 9.556-21.33 21.298v85.258c0 11.804 9.556 21.362 21.33 21.362 11.776 0 21.33-9.556 21.33-21.362v-85.258c0.002-11.742-9.554-21.298-21.33-21.298zM320.124 277.47c-11.774 0-21.33 9.556-21.33 21.33v85.258c0 11.774 9.556 21.33 21.33 21.33s21.33-9.556 21.33-21.33V298.8c0-11.772-9.558-21.33-21.33-21.33z" fill="#434A54" /></svg>