<?xml version="1.0" standalone="no"?><!DOCTYPE svg PUBLIC "-//W3C//DTD SVG 1.1//EN" "http://www.w3.org/Graphics/SVG/1.1/DTD/svg11.dtd"><svg class="icon" width="128px" height="128.00px" viewBox="0 0 1024 1024" version="1.1" xmlns="http://www.w3.org/2000/svg"><path d="M661.34 320.002c0 11.812-9.562 21.344-21.344 21.344H384a21.332 21.332 0 0 1-21.342-21.344V21.352C362.658 9.57 372.22 0.008 384 0.008h255.996c11.782 0 21.344 9.562 21.344 21.344v298.65z" fill="#434A54" /><path d="M426.658 42.696a21.298 21.298 0 0 0-21.312 21.312v177.466H448V64.006c0-11.78-9.562-21.31-21.342-21.31z" fill="#656D78" /><path d="M831.996 1023.992H192.004V341.346s64.686-127.998 319.994-127.998c255.31 0 319.998 127.998 319.998 127.998v682.646z" fill="#5D9CEC" /><path d="M490.376 213.692v810.3h42.656V213.66a767.56 767.56 0 0 0-21.032-0.312c-7.376 0-14.564 0.124-21.624 0.344z" fill="#4A89DC" /><path d="M341.72 448h339.994v383.994H341.72z" fill="#F5F7FA" /></svg>