<?xml version="1.0" standalone="no"?><!DOCTYPE svg PUBLIC "-//W3C//DTD SVG 1.1//EN" "http://www.w3.org/Graphics/SVG/1.1/DTD/svg11.dtd"><svg class="icon" width="128px" height="128.00px" viewBox="0 0 1024 1024" version="1.1" xmlns="http://www.w3.org/2000/svg"><path d="M512 503.344c-62.75-30.062-126.28-38.344-106.654 67.342 36.374 195.998 21.312 367.994 21.312 367.994 0 47.124 38.218 85.312 85.342 85.312 47.124 0 85.344-38.188 85.344-85.312 0 0-15.062-171.996 21.31-367.994 19.626-105.686-43.904-97.404-106.654-67.342z m0 456.648c-11.782 0-21.342-9.562-21.342-21.312 0-11.812 9.562-21.344 21.342-21.344s21.344 9.532 21.344 21.344c0 11.75-9.562 21.312-21.344 21.312z" fill="#FC6E51" /><path d="M277.348 341.346a341.338 234.652 90 1 0 469.304 0 341.338 234.652 90 1 0-469.304 0Z" fill="#656D78" /><path d="M362.66 213.348c0 11.782-9.532 21.328-21.312 21.328s-21.342-9.546-21.342-21.328 9.562-21.328 21.342-21.328 21.312 9.546 21.312 21.328zM362.66 298.674c0 11.78-9.532 21.342-21.312 21.342s-21.342-9.562-21.342-21.342c0-11.782 9.562-21.328 21.342-21.328s21.312 9.548 21.312 21.328zM362.66 384.018c0 11.782-9.532 21.328-21.312 21.328s-21.342-9.546-21.342-21.328c0-11.796 9.562-21.344 21.342-21.344s21.312 9.546 21.312 21.344zM362.66 469.344c0 11.782-9.532 21.328-21.312 21.328s-21.342-9.546-21.342-21.328 9.562-21.328 21.342-21.328 21.312 9.546 21.312 21.328zM448 128.006c0 11.782-9.562 21.344-21.342 21.344s-21.312-9.562-21.312-21.344 9.532-21.328 21.312-21.328S448 116.224 448 128.006zM405.346 170.676c0 11.782-9.562 21.342-21.344 21.342-11.78 0-21.342-9.562-21.342-21.342s9.562-21.328 21.342-21.328c11.782 0.002 21.344 9.548 21.344 21.328zM448 213.348c0 11.782-9.562 21.328-21.342 21.328s-21.312-9.546-21.312-21.328 9.532-21.328 21.312-21.328S448 201.566 448 213.348zM405.346 256.02c0 11.782-9.562 21.328-21.344 21.328-11.78 0-21.342-9.546-21.342-21.328 0-11.796 9.562-21.344 21.342-21.344 11.782 0 21.344 9.546 21.344 21.344zM448 298.674c0 11.78-9.562 21.342-21.342 21.342s-21.312-9.562-21.312-21.342c0-11.782 9.532-21.328 21.312-21.328S448 286.894 448 298.674zM405.346 341.346c0 11.782-9.562 21.328-21.344 21.328-11.78 0-21.342-9.546-21.342-21.328s9.562-21.328 21.342-21.328c11.782 0 21.344 9.546 21.344 21.328zM448 384.018c0 11.782-9.562 21.328-21.342 21.328s-21.312-9.546-21.312-21.328c0-11.796 9.532-21.344 21.312-21.344S448 372.22 448 384.018zM405.346 426.672c0 11.782-9.562 21.344-21.344 21.344-11.78 0-21.342-9.562-21.342-21.344 0-11.78 9.562-21.328 21.342-21.328 11.782 0 21.344 9.548 21.344 21.328zM448 469.344c0 11.782-9.562 21.328-21.342 21.328s-21.312-9.546-21.312-21.328 9.532-21.328 21.312-21.328S448 457.562 448 469.344zM405.346 512.016c0 11.782-9.562 21.328-21.344 21.328-11.78 0-21.342-9.546-21.342-21.328 0-11.796 9.562-21.344 21.342-21.344 11.782 0 21.344 9.546 21.344 21.344zM448 554.686c0 11.75-9.562 21.312-21.342 21.312s-21.312-9.562-21.312-21.312c0-11.794 9.532-21.342 21.312-21.342S448 542.89 448 554.686zM490.658 85.35c0 11.782-9.532 21.328-21.312 21.328S448 97.13 448 85.35s9.562-21.342 21.344-21.342 21.314 9.562 21.314 21.342zM533.344 128.006c0 11.782-9.562 21.344-21.344 21.344s-21.342-9.562-21.342-21.344 9.56-21.328 21.342-21.328 21.344 9.546 21.344 21.328zM490.658 170.676c0 11.782-9.532 21.342-21.312 21.342S448 182.458 448 170.676c0-11.78 9.562-21.328 21.344-21.328s21.314 9.548 21.314 21.328zM533.344 213.348c0 11.782-9.562 21.328-21.344 21.328s-21.342-9.546-21.342-21.328S500.218 192.02 512 192.02s21.344 9.546 21.344 21.328zM490.658 256.02c0 11.782-9.532 21.328-21.312 21.328S448 267.8 448 256.02c0-11.796 9.562-21.344 21.344-21.344s21.314 9.546 21.314 21.344zM533.344 298.674c0 11.78-9.562 21.342-21.344 21.342s-21.342-9.562-21.342-21.342c0-11.782 9.562-21.328 21.342-21.328s21.344 9.548 21.344 21.328zM490.658 341.346c0 11.782-9.532 21.328-21.312 21.328S448 353.126 448 341.346s9.562-21.328 21.344-21.328 21.314 9.546 21.314 21.328zM533.344 384.018c0 11.782-9.562 21.328-21.344 21.328s-21.342-9.546-21.342-21.328c0-11.796 9.562-21.344 21.342-21.344s21.344 9.546 21.344 21.344zM490.658 426.672c0 11.782-9.532 21.344-21.312 21.344S448 438.454 448 426.672c0-11.78 9.562-21.328 21.344-21.328s21.314 9.548 21.314 21.328zM533.344 469.344c0 11.782-9.562 21.328-21.344 21.328s-21.342-9.546-21.342-21.328 9.562-21.328 21.342-21.328 21.344 9.546 21.344 21.328zM490.658 512.016c0 11.782-9.532 21.328-21.312 21.328S448 523.796 448 512.016c0-11.796 9.562-21.344 21.344-21.344s21.314 9.546 21.314 21.344zM533.344 554.686c0 11.75-9.562 21.312-21.344 21.312s-21.342-9.562-21.342-21.312c0-11.794 9.562-21.342 21.342-21.342s21.344 9.546 21.344 21.342zM490.658 597.342c0 11.782-9.532 21.344-21.312 21.344S448 609.124 448 597.342s9.562-21.344 21.344-21.344 21.314 9.562 21.314 21.344zM576 85.35c0 11.782-9.562 21.328-21.344 21.328s-21.312-9.546-21.312-21.328c0-11.78 9.532-21.342 21.312-21.342S576 73.57 576 85.35zM618.654 128.006c0 11.782-9.53 21.344-21.31 21.344S576 139.788 576 128.006s9.562-21.328 21.344-21.328 21.31 9.546 21.31 21.328zM576 170.676c0 11.782-9.562 21.342-21.344 21.342s-21.312-9.562-21.312-21.342 9.532-21.328 21.312-21.328S576 158.896 576 170.676zM618.654 213.348c0 11.782-9.53 21.328-21.31 21.328S576 225.128 576 213.348s9.562-21.328 21.344-21.328 21.31 9.546 21.31 21.328zM576 256.02c0 11.782-9.562 21.328-21.344 21.328s-21.312-9.546-21.312-21.328c0-11.796 9.532-21.344 21.312-21.344S576 244.222 576 256.02zM618.654 298.674c0 11.78-9.53 21.342-21.31 21.342S576 310.456 576 298.674c0-11.782 9.562-21.328 21.344-21.328s21.31 9.548 21.31 21.328zM576 341.346c0 11.782-9.562 21.328-21.344 21.328s-21.312-9.546-21.312-21.328 9.532-21.328 21.312-21.328S576 329.564 576 341.346zM618.654 384.018c0 11.782-9.53 21.328-21.31 21.328S576 395.798 576 384.018c0-11.796 9.562-21.344 21.344-21.344s21.31 9.546 21.31 21.344zM576 426.672c0 11.782-9.562 21.344-21.344 21.344s-21.312-9.562-21.312-21.344c0-11.78 9.532-21.328 21.312-21.328S576 414.892 576 426.672zM618.654 469.344c0 11.782-9.53 21.328-21.31 21.328S576 481.124 576 469.344s9.562-21.328 21.344-21.328 21.31 9.546 21.31 21.328zM576 512.016c0 11.782-9.562 21.328-21.344 21.328s-21.312-9.546-21.312-21.328c0-11.796 9.532-21.344 21.312-21.344S576 500.218 576 512.016zM618.654 554.686c0 11.75-9.53 21.312-21.31 21.312S576 566.436 576 554.686c0-11.794 9.562-21.342 21.344-21.342s21.31 9.546 21.31 21.342zM576 597.342c0 11.782-9.562 21.344-21.344 21.344s-21.312-9.562-21.312-21.344 9.532-21.344 21.312-21.344S576 585.56 576 597.342zM661.342 170.676c0 11.782-9.562 21.342-21.344 21.342s-21.344-9.562-21.344-21.342 9.562-21.328 21.344-21.328 21.344 9.548 21.344 21.328zM703.996 213.348c0 11.782-9.562 21.328-21.344 21.328-11.78 0-21.31-9.546-21.31-21.328s9.532-21.328 21.31-21.328c11.782 0 21.344 9.546 21.344 21.328zM661.342 256.02c0 11.782-9.562 21.328-21.344 21.328s-21.344-9.546-21.344-21.328c0-11.796 9.562-21.344 21.344-21.344s21.344 9.546 21.344 21.344zM703.996 298.674c0 11.78-9.562 21.342-21.344 21.342-11.78 0-21.31-9.562-21.31-21.342 0-11.782 9.532-21.328 21.31-21.328 11.782 0.002 21.344 9.548 21.344 21.328zM661.342 341.346c0 11.782-9.562 21.328-21.344 21.328s-21.344-9.546-21.344-21.328 9.562-21.328 21.344-21.328 21.344 9.546 21.344 21.328zM703.996 384.018c0 11.782-9.562 21.328-21.344 21.328-11.78 0-21.31-9.546-21.31-21.328 0-11.796 9.532-21.344 21.31-21.344 11.782 0 21.344 9.546 21.344 21.344zM661.342 426.672c0 11.782-9.562 21.344-21.344 21.344s-21.344-9.562-21.344-21.344c0-11.78 9.562-21.328 21.344-21.328s21.344 9.548 21.344 21.328zM703.996 469.344c0 11.782-9.562 21.328-21.344 21.328-11.78 0-21.31-9.546-21.31-21.328s9.532-21.328 21.31-21.328c11.782 0 21.344 9.546 21.344 21.328zM661.342 512.016c0 11.782-9.562 21.328-21.344 21.328s-21.344-9.546-21.344-21.328c0-11.796 9.562-21.344 21.344-21.344s21.344 9.546 21.344 21.344z" fill="#434A54" /><path d="M533.344 639.996c0 11.782-9.562 21.344-21.344 21.344s-21.342-9.562-21.342-21.344c0-11.78 9.562-21.31 21.342-21.31s21.344 9.53 21.344 21.31zM533.344 42.68c0 11.78-9.562 21.328-21.344 21.328s-21.342-9.546-21.342-21.328S500.22 21.352 512 21.352s21.344 9.546 21.344 21.328z" fill="#434A54" /></svg>