<?xml version="1.0" standalone="no"?><!DOCTYPE svg PUBLIC "-//W3C//DTD SVG 1.1//EN" "http://www.w3.org/Graphics/SVG/1.1/DTD/svg11.dtd"><svg class="icon" width="128px" height="128.00px" viewBox="0 0 1024 1024" version="1.1" xmlns="http://www.w3.org/2000/svg"><path d="M930.104 512C890.604 317.256 718.42 170.668 512.008 170.668 305.578 170.668 133.426 317.256 93.896 512h-8.562v85.308c0 235.646 191.026 426.674 426.674 426.674 235.6 0 426.658-191.028 426.658-426.674V512h-8.562z" fill="#F6BB42" /><path d="M512.008 917.298c-108.278 0-210.056-42.156-286.616-118.716C148.834 722.052 106.678 620.246 106.678 512c0-108.278 42.156-210.056 118.714-286.616 76.56-76.56 178.338-118.714 286.616-118.714 108.23 0 210.038 42.154 286.6 118.714 76.558 76.558 118.684 178.338 118.684 286.616 0 108.246-42.124 210.052-118.684 286.582-76.564 76.56-178.37 118.716-286.6 118.716z" fill="#F5F7FA" /><path d="M406.418 406.41l-105.59 316.768 316.786-105.588z" fill="#ED5564" /><path d="M723.17 300.818l-316.752 105.592 211.196 211.18z" fill="#5D9CEC" /><path d="M554.678 512c0 23.56-19.108 42.654-42.67 42.654S469.322 535.56 469.322 512c0-23.562 19.124-42.688 42.686-42.688s42.67 19.126 42.67 42.688zM557.24 18.768C545.18 6.674 529.102 0.018 512.008 0.018c-17.094 0-33.186 6.656-45.25 18.75-12.094 12.06-18.75 28.152-18.75 45.246 0 35.282 28.686 63.998 63.998 63.998 17.094 0 33.172-6.656 45.232-18.748 12.124-12.094 18.75-28.156 18.75-45.25s-6.622-33.186-18.748-45.246z m-45.232 66.558c-11.782 0-21.344-9.532-21.344-21.312s9.562-21.342 21.344-21.342c11.782 0 21.312 9.56 21.312 21.342s-9.53 21.312-21.312 21.312z" fill="#434A54" /><path d="M512.008 170.668c-11.782 0-21.344-9.562-21.344-21.344V106.67c0-11.782 9.562-21.344 21.344-21.344s21.312 9.562 21.312 21.344v42.654c0 11.782-9.53 21.344-21.312 21.344zM512.008 938.64c-11.782 0-21.344-9.562-21.344-21.342v-42.656c0-11.782 9.562-21.344 21.344-21.344s21.312 9.562 21.312 21.344v42.656c0 11.78-9.53 21.342-21.312 21.342zM255.578 276.882c-5.468 0-10.936-2.062-15.092-6.25l-30.186-30.156c-8.312-8.344-8.312-21.842 0-30.186 8.342-8.312 21.842-8.312 30.186 0l30.156 30.186c8.344 8.312 8.344 21.844 0 30.156a21.152 21.152 0 0 1-15.064 6.25zM798.608 819.926a21.222 21.222 0 0 1-15.062-6.25l-30.188-30.154c-8.312-8.344-8.312-21.844 0-30.188 8.312-8.312 21.812-8.312 30.188 0l30.124 30.188c8.374 8.31 8.374 21.842 0 30.154a21.23 21.23 0 0 1-15.062 6.25zM149.334 533.31H106.678c-11.782 0-21.344-9.532-21.344-21.31 0-11.782 9.562-21.344 21.344-21.344h42.656c11.812 0 21.342 9.562 21.342 21.344 0 11.78-9.532 21.31-21.342 21.31zM917.292 533.31h-42.624c-11.812 0-21.376-9.532-21.376-21.31 0-11.782 9.562-21.344 21.376-21.344h42.624c11.812 0 21.376 9.562 21.376 21.344-0.002 11.78-9.564 21.31-21.376 21.31zM225.392 819.926a21.346 21.346 0 0 1-15.092-6.25c-8.312-8.312-8.312-21.844 0-30.154l30.186-30.188c8.312-8.312 21.842-8.312 30.156 0a21.332 21.332 0 0 1 0 30.188l-30.156 30.154a21.3 21.3 0 0 1-15.094 6.25zM768.42 276.882a21.194 21.194 0 0 1-15.062-6.25c-8.312-8.312-8.312-21.844 0-30.156l30.188-30.186c8.312-8.312 21.812-8.312 30.124 0a21.276 21.276 0 0 1 0 30.186l-30.124 30.156a21.238 21.238 0 0 1-15.126 6.25z" fill="#434A54" /><path d="M512.008 85.326C276.36 85.326 85.334 276.352 85.334 512c0 235.616 191.026 426.64 426.674 426.64 235.6 0 426.658-191.026 426.658-426.64 0-235.648-191.058-426.674-426.658-426.674z m271.536 698.196c-35.312 35.28-76.374 62.964-122.12 82.308-47.312 20-97.56 30.156-149.418 30.156-51.874 0-102.152-10.156-149.464-30.156-45.718-19.344-86.778-47.03-122.058-82.308-35.28-35.282-62.966-76.342-82.31-122.09C138.146 614.122 128.02 563.84 128.02 512c0-51.876 10.124-102.152 30.156-149.462 19.344-45.718 47.03-86.78 82.31-122.06s76.34-62.964 122.058-82.308c47.312-20.032 97.59-30.156 149.464-30.156 51.858 0 102.106 10.124 149.418 30.156 45.746 19.344 86.806 47.03 122.12 82.308 35.248 35.282 62.936 76.342 82.308 122.06 20 47.31 30.124 97.588 30.124 149.462 0 51.84-10.124 102.122-30.124 149.432-19.374 45.748-47.062 86.808-82.31 122.09z" fill="#FFCE54" /></svg>