<?xml version="1.0" standalone="no"?><!DOCTYPE svg PUBLIC "-//W3C//DTD SVG 1.1//EN" "http://www.w3.org/Graphics/SVG/1.1/DTD/svg11.dtd"><svg class="icon" width="128px" height="128.00px" viewBox="0 0 1024 1024" version="1.1" xmlns="http://www.w3.org/2000/svg"><path d="M767.996 0.008H256.004c-11.734 0-19.968 9.5-18.312 21.11l124.982 832.188h298.636l124.998-832.188c1.656-11.61-6.562-21.11-18.312-21.11z" fill="#ED5564" /><path d="M298.674 21.336c11.782 0 21.328-9.546 21.328-21.328h-42.672c0.002 11.782 9.564 21.328 21.344 21.328z" fill="#DA4453" /><path d="M238.472 12.132a21.276 21.276 0 0 0 17.532 9.204c11.78 0 21.328-9.546 21.328-21.328h-21.328c-8.484 0-15.126 4.984-17.532 12.124zM341.33 21.336c11.782 0 21.344-9.546 21.344-21.328h-42.67c-0.002 11.782 9.544 21.328 21.326 21.328z" fill="#DA4453" /><path d="M384 21.336c11.782 0 21.328-9.546 21.328-21.328h-42.656c0.002 11.782 9.548 21.328 21.328 21.328zM426.672 21.336C438.454 21.336 448 11.79 448 0.008h-42.67c0 11.782 9.562 21.328 21.342 21.328zM469.328 21.336c11.782 0 21.344-9.546 21.344-21.328H448c0 11.782 9.546 21.328 21.328 21.328zM512 21.336c11.782 0 21.33-9.546 21.33-21.328h-42.656c-0.002 11.782 9.544 21.328 21.326 21.328z" fill="#DA4453" /><path d="M554.688 21.336C566.438 21.336 576 11.79 576 0.008h-42.672c0 11.782 9.562 21.328 21.36 21.328zM597.312 21.336c11.812 0 21.374-9.546 21.374-21.328H576c0 11.782 9.562 21.328 21.312 21.328zM639.998 21.336c11.782 0 21.312-9.546 21.312-21.328h-42.624c0 11.782 9.53 21.328 21.312 21.328z" fill="#DA4453" /><path d="M682.684 21.336c11.75 0 21.312-9.546 21.312-21.328h-42.686c0 11.782 9.564 21.328 21.374 21.328zM725.308 21.336c11.812 0 21.376-9.546 21.376-21.328h-42.688c0 11.782 9.562 21.328 21.312 21.328zM767.996 0.008h-21.312c0 11.782 9.532 21.328 21.312 21.328 7.25 0 13.688-3.64 17.532-9.204-2.406-7.14-9.032-12.124-17.532-12.124z" fill="#DA4453" /><path d="M661.31 853.304H362.674v149.344c0 11.782 9.546 21.344 21.328 21.344H640c11.782 0 21.312-9.562 21.312-21.344v-149.344z" fill="#E6E9ED" /><path d="M249.91 106.662h524.18l6.094-42.656H243.816z" fill="#DA4453" /><path d="M554.688 853.304h-85.36c-11.782 0-21.328 9.562-21.328 21.344s9.546 21.344 21.328 21.344h85.36c11.75 0 21.312-9.562 21.312-21.344s-9.562-21.344-21.312-21.344z" fill="#CCD1D9" /></svg>