<?xml version="1.0" standalone="no"?><!DOCTYPE svg PUBLIC "-//W3C//DTD SVG 1.1//EN" "http://www.w3.org/Graphics/SVG/1.1/DTD/svg11.dtd"><svg class="icon" width="128px" height="128.00px" viewBox="0 0 1024 1024" version="1.1" xmlns="http://www.w3.org/2000/svg"><path d="M896.042 426.692h-170.274c-23.554 0-42.676 19.09-42.676 42.646v79.716c2.75-20.918 20.62-37.054 42.3-37.054h85.292c23.558 0 42.68 19.09 42.68 42.678v213.264c0 23.556-19.122 42.678-42.68 42.678h-85.292c-21.682 0-39.55-16.152-42.3-37.054v79.67c0 23.556 19.122 42.678 42.676 42.678h170.274c23.558 0 42.618-19.122 42.618-42.678V469.338c0-23.556-19.058-42.646-42.618-42.646z" fill="#8CC153" /><path d="M725.208 938.59c0 47.114-38.178 85.292-85.292 85.292H170.664c-47.114 0-85.324-38.18-85.324-85.292V298.72h639.868v639.87z" fill="#A0D468" /><path d="M592.488 221.348l0.124 0.14c-0.062-0.062-5.06-6.592-7.248-14.964-2.186-8.67-0.5-15.012 5.624-21.214 17.372-17.386 23.058-39.976 16.184-63.61-4.686-15.872-13.622-27.088-14.808-28.494v-0.016s0-0.032-0.062-0.046v0.016a21.2 21.2 0 0 0-16.372-7.732c-11.808 0-21.372 9.56-21.372 21.34 0 5.138 1.812 9.872 4.876 13.558l-0.062-0.094c0.062 0.046 5 6.312 7.062 14.356 2.186 8.28 0.498 14.45-5.624 20.62-17.292 17.356-23.042 40.068-16.184 63.986 4.624 16.184 13.684 27.666 14.684 28.93v-0.016c3.938 4.842 9.874 7.952 16.622 7.952 11.748 0 21.308-9.544 21.308-21.322a21.35 21.35 0 0 0-4.752-13.39zM559.434 120.34l0.062 0.032-0.062-0.032zM442.258 50.792c-6.374-23.884-18.622-40.444-19.996-42.256h-0.032c-3.906-5.108-10.03-8.42-16.964-8.42-11.78 0-21.308 9.544-21.308 21.324 0 4.826 1.592 9.248 4.31 12.808l-0.03 0.016c0.092 0.124 8.966 12.202 13.09 28.634 4.906 19.666 0.968 36.366-12.028 51.066-22.776 25.76-30.056 57.376-20.996 91.416 6.342 23.884 18.622 40.444 19.996 42.256l0.032-0.016a21.206 21.206 0 0 0 16.934 8.436c11.778 0 21.338-9.544 21.338-21.322a21.18 21.18 0 0 0-4.312-12.81l0.032-0.016c-0.092-0.124-8.998-12.2-13.09-28.634-4.906-19.666-0.968-36.366 12.028-51.066 22.776-25.758 30.026-57.376 20.996-91.416zM265.892 121.7c-4.656-15.872-13.622-27.088-14.778-28.494v-0.016c-0.032-0.016-0.032-0.032-0.032-0.032-3.936-4.716-9.842-7.732-16.434-7.732-11.78 0-21.338 9.56-21.338 21.34 0 5.138 1.842 9.872 4.874 13.558l-0.062-0.094c0.032 0.046 4.968 6.312 7.092 14.356 2.156 8.28 0.468 14.45-5.686 20.62-17.278 17.356-23.026 40.068-16.152 63.986 4.656 16.184 13.654 27.666 14.684 28.93v-0.016a21.254 21.254 0 0 0 16.59 7.952c11.778 0 21.338-9.544 21.338-21.322a21.16 21.16 0 0 0-4.75-13.388h0.032l0.094 0.14c-0.062-0.062-5.062-6.592-7.218-14.964-2.25-8.67-0.562-15.012 5.624-21.214 17.31-17.388 23.026-39.976 16.122-63.61z m-47.708-1.36c0.032 0 0.032 0.016 0.062 0.032h-0.032l-0.03-0.032z" fill="#E6E9ED" /><path d="M192.002 789.248l121.878-203.11 121.878 203.11z" fill="#E6E9ED" /><path d="M293.542 789.248l162.526-284.356 162.476 284.356z" fill="#F5F7FA" /></svg>