<?xml version="1.0" standalone="no"?><!DOCTYPE svg PUBLIC "-//W3C//DTD SVG 1.1//EN" "http://www.w3.org/Graphics/SVG/1.1/DTD/svg11.dtd"><svg class="icon" width="128px" height="128.00px" viewBox="0 0 1024 1024" version="1.1" xmlns="http://www.w3.org/2000/svg"><path d="M682.618 959.888H341.368l42.536-213.138L640 746.688z" fill="#CCD1D9" /><path d="M1023.882 767.934c0 11.81-9.562 21.306-21.34 21.306H21.44c-11.778 0-21.324-9.496-21.324-21.306V85.418c0-11.778 9.544-21.306 21.324-21.306h981.102c11.778 0 21.34 9.528 21.34 21.306v682.516zM682.618 959.888H341.368c-11.78 0-21.324-9.558-21.324-21.306 0-11.81 9.544-21.372 21.324-21.372h341.25c11.778 0 21.338 9.56 21.338 21.372 0 11.748-9.562 21.306-21.338 21.306z" fill="#E6E9ED" /><path d="M1002.542 64.112H21.44C9.662 64.112 0.116 73.64 0.116 85.418v575.852h1023.766V85.418c0-11.778-9.562-21.306-21.34-21.306z" fill="#ED5564" /><path d="M1002.542 64.112h-191.958v597.158H1023.88V85.418c0.002-11.778-9.56-21.306-21.338-21.306zM533.322 725.256c0 11.81-9.544 21.37-21.324 21.37s-21.338-9.558-21.338-21.37c0-11.748 9.56-21.306 21.338-21.306s21.324 9.558 21.324 21.306z" fill="#434A54" /><path d="M810.586 320.052h210.328v42.646H810.586z" fill="#656D78" /><path d="M507.876 661.27l25.446-113.724-106.648-99.554-106.63 99.554 25.432 113.724z" fill="#FFCE54" /><path d="M426.674 405.344c-53.096 0-99.602-9.716-138.202-28.868-31.586-15.684-57.876-37.584-78.124-65.14-34.46-46.866-39.318-93.916-39.522-95.916l42.474-4.062c0.032 0.28 4.342 38.804 32.57 76.264 37.522 49.8 98.352 75.076 180.802 75.076 82.466 0 143.312-25.276 180.802-75.076 28.244-37.46 32.554-75.984 32.586-76.358l42.46 4.156c-0.188 2-5.062 49.05-39.524 95.916-20.246 27.556-46.52 49.458-78.106 65.14-38.612 19.152-85.118 28.868-138.216 28.868z" fill="#E6E9ED" /><path d="M384.028 384.006c0-23.556 19.09-42.646 42.646-42.646 23.558 0 42.662 19.09 42.662 42.646 0 23.588-19.104 42.678-42.662 42.678-23.556 0-42.646-19.09-42.646-42.678zM149.412 213.388c0-23.556 19.088-42.646 42.662-42.646 23.556 0 42.646 19.09 42.646 42.646 0 23.558-19.09 42.678-42.646 42.678-23.574 0-42.662-19.12-42.662-42.678zM618.63 213.388c0-23.556 19.09-42.646 42.646-42.646 23.558 0 42.678 19.09 42.678 42.646 0 23.558-19.12 42.678-42.678 42.678-23.556 0-42.646-19.12-42.646-42.678z" fill="#F5F7FA" /><path d="M448.014 597.286c0-11.746-9.56-21.308-21.338-21.308s-21.324 9.562-21.324 21.308v63.984h42.662v-63.984z" fill="#F6BB42" /></svg>