<?xml version="1.0" standalone="no"?><!DOCTYPE svg PUBLIC "-//W3C//DTD SVG 1.1//EN" "http://www.w3.org/Graphics/SVG/1.1/DTD/svg11.dtd"><svg class="icon" width="128px" height="128.00px" viewBox="0 0 1024 1024" version="1.1" xmlns="http://www.w3.org/2000/svg"><path d="M1023.882 810.62c0 11.748-9.562 21.306-21.34 21.306H21.424c-11.778 0-21.308-9.558-21.308-21.306V213.396c0-11.778 9.53-21.322 21.308-21.322h981.118c11.778 0 21.34 9.544 21.34 21.322V810.62z" fill="#F6BB42" /><path d="M1023.882 213.396H0.118v42.662l493.542 289.06c10.09 5.968 26.586 5.968 36.68 0L1023.882 256.06v-42.664z" fill="#E2A63B" /><path d="M1002.542 192.074H21.424c-11.778 0-21.308 9.544-21.308 21.322L493.66 502.44c10.09 6 26.586 6 36.68 0l493.542-289.042c0-11.78-9.562-21.324-21.34-21.324z" fill="#FFCE54" /><path d="M192.074 661.278H106.75c-11.78 0-21.338-9.528-21.338-21.306s9.56-21.306 21.338-21.306h85.324c11.778 0 21.308 9.528 21.308 21.306s-9.53 21.306-21.308 21.306zM362.69 746.632H106.75c-11.78 0-21.338-9.558-21.338-21.37 0-11.748 9.56-21.306 21.338-21.306h255.942c11.778 0 21.338 9.558 21.338 21.306-0.002 11.812-9.562 21.37-21.34 21.37z" fill="#F5F7FA" /><path d="M597.292 746.632l97.508-162.522 97.51 162.522z" fill="#434A54" /><path d="M678.554 746.632l130.002-227.524 130.002 227.524z" fill="#656D78" /></svg>