<?xml version="1.0" standalone="no"?><!DOCTYPE svg PUBLIC "-//W3C//DTD SVG 1.1//EN" "http://www.w3.org/Graphics/SVG/1.1/DTD/svg11.dtd"><svg class="icon" width="128px" height="128.00px" viewBox="0 0 1024 1024" version="1.1" xmlns="http://www.w3.org/2000/svg"><path d="M725.45 938.59l-469.392 85.292V85.426L725.262 0.118z" fill="#8CC153" /><path d="M256.058 85.426H767.94v938.458H256.058z" fill="#A0D468" /><path d="M341.368 554.678l97.492-162.526 97.51 162.526z" fill="#E6E9ED" /><path d="M422.614 554.678l130.002-227.526 130.002 227.526z" fill="#F5F7FA" /><path d="M575.984 810.62h-127.97c-11.794 0-21.338-9.56-21.338-21.372 0-11.746 9.544-21.306 21.338-21.306h127.97c11.78 0 21.308 9.56 21.308 21.306 0 11.81-9.528 21.372-21.308 21.372zM661.278 725.264H362.69c-11.78 0-21.324-9.53-21.324-21.306 0-11.78 9.544-21.308 21.324-21.308h298.586c11.81 0 21.34 9.53 21.34 21.308 0.002 11.776-9.528 21.306-21.338 21.306z" fill="#434A54" /></svg>