<?xml version="1.0" standalone="no"?><!DOCTYPE svg PUBLIC "-//W3C//DTD SVG 1.1//EN" "http://www.w3.org/Graphics/SVG/1.1/DTD/svg11.dtd"><svg class="icon" width="128px" height="128.00px" viewBox="0 0 1024 1024" version="1.1" xmlns="http://www.w3.org/2000/svg"><path d="M879.776 917.68a21.314 21.314 0 0 0-21.344-21.344c-3.282 0-6.376 0.782-9.156 2.094v-0.032c-117.436 55.906-279.994 112.594-387.526 65.312-58.982-25.968-73.56-71.532-74.154-73.468l0.046 0.188-41 11.812c0.766 2.688 19.656 65.344 96.31 99.812 32.484 14.624 70.454 21.938 113.296 21.938 15 0 30.624-0.876 46.75-2.688 75.684-8.438 164.684-36.812 264.62-84.376 7.188-3.436 12.158-10.748 12.158-19.248z" fill="#434A54" /><path d="M431.626 896.336c0 11.782-9.562 21.344-21.344 21.344h-85.36c-11.794 0-21.342-9.562-21.342-21.344v-149.402c0-11.75 9.546-21.312 21.342-21.312h85.36c11.782 0 21.344 9.562 21.344 21.312v149.402z" fill="#656D78" /><path d="M431.626 896.336c0 11.782-9.562 21.344-21.344 21.344h-85.36c-11.794 0-21.342-9.562-21.342-21.344v-149.402c0-11.75 9.546-21.312 21.342-21.312h85.36c11.782 0 21.344 9.562 21.344 21.312v149.402z" fill="#656D78" /><path d="M324.924 853.648c0-11.78-9.56-21.342-21.342-21.342v42.686c11.782 0 21.342-9.562 21.342-21.344zM410.284 853.648c0 11.782 9.562 21.344 21.344 21.344v-42.686c-11.782 0-21.344 9.564-21.344 21.342z" fill="#434A54" /><path d="M270.036 40.43m-21.34 0a21.34 21.34 0 1 0 42.68 0 21.34 21.34 0 1 0-42.68 0Z" fill="#434A54" /><path d="M277.442 82.458m-21.34 0a21.34 21.34 0 1 0 42.68 0 21.34 21.34 0 1 0-42.68 0Z" fill="#434A54" /><path d="M305.878 120.788c-2.046-11.61-13.124-19.36-24.734-17.312s-19.36 13.11-17.312 24.718 13.124 19.36 24.734 17.312 19.344-13.11 17.312-24.718zM313.286 162.818c-2.046-11.608-13.11-19.358-24.718-17.312s-19.36 13.124-17.312 24.718c2.046 11.61 13.11 19.36 24.718 17.312s19.358-13.11 17.312-24.718zM320.692 204.848c-2.046-11.61-13.11-19.358-24.718-17.312s-19.36 13.124-17.312 24.734 13.11 19.36 24.718 17.312 19.356-13.124 17.312-24.734z" fill="#434A54" /><path d="M328.112 246.878c-2.046-11.594-13.124-19.344-24.732-17.296s-19.36 13.11-17.312 24.718 13.124 19.36 24.734 17.312c11.606-2.046 19.356-13.124 17.31-24.734z" fill="#434A54" /><path d="M314.502 292.628m-21.338 0a21.338 21.338 0 1 0 42.676 0 21.338 21.338 0 1 0-42.676 0Z" fill="#434A54" /><path d="M321.91 334.658m-21.338 0a21.338 21.338 0 1 0 42.676 0 21.338 21.338 0 1 0-42.676 0Z" fill="#434A54" /><path d="M350.346 372.986c-2.046-11.61-13.124-19.36-24.734-17.312-11.608 2.046-19.358 13.124-17.31 24.718 2.046 11.61 13.124 19.358 24.732 17.312 11.608-2.046 19.358-13.108 17.312-24.718z" fill="#434A54" /><path d="M333.034 397.704c-11.608 2.046-19.358 13.124-17.31 24.734 2.046 11.608 13.108 19.358 24.716 17.296 11.61-2.032 19.36-13.11 17.312-24.718-2.046-11.608-13.11-19.358-24.718-17.312zM468.876 19.414c-11.61-2.046-22.672 5.704-24.718 17.312-2.046 11.592 5.704 22.67 17.312 24.718 11.594 2.046 22.672-5.704 24.718-17.312 2.046-11.608-5.704-22.672-17.312-24.718zM436.736 78.756c-2.046 11.61 5.702 22.672 17.31 24.718s22.688-5.704 24.734-17.312c2.046-11.608-5.718-22.67-17.312-24.718-11.608-2.046-22.684 5.704-24.732 17.312z" fill="#434A54" /><path d="M450.344 124.49m-21.338 0a21.338 21.338 0 1 0 42.676 0 21.338 21.338 0 1 0-42.676 0Z" fill="#434A54" /><path d="M421.924 162.818c-2.046 11.61 5.704 22.672 17.31 24.718 11.594 2.046 22.672-5.704 24.718-17.312 2.046-11.592-5.704-22.67-17.312-24.718-11.606-2.048-22.67 5.702-24.716 17.312z" fill="#434A54" /><path d="M414.502 204.848c-2.046 11.61 5.704 22.688 17.312 24.734 11.608 2.046 22.686-5.704 24.732-17.312s-5.718-22.686-17.312-24.734c-11.608-2.046-22.686 5.702-24.732 17.312z" fill="#434A54" /><path d="M407.096 246.878c-2.046 11.61 5.704 22.688 17.312 24.734s22.67-5.704 24.716-17.312-5.704-22.672-17.31-24.718c-11.608-2.046-22.672 5.704-24.718 17.296zM399.69 288.924c-2.046 11.61 5.704 22.67 17.296 24.718 11.61 2.046 22.686-5.702 24.732-17.312s-5.702-22.67-17.31-24.718-22.672 5.704-24.718 17.312zM392.268 330.956c-2.046 11.61 5.704 22.672 17.312 24.718s22.688-5.704 24.718-17.312c2.046-11.61-5.704-22.672-17.312-24.718-11.594-2.048-22.672 5.702-24.718 17.312z" fill="#434A54" /><path d="M384.862 372.986c-2.046 11.61 5.704 22.672 17.312 24.718 11.61 2.046 22.672-5.702 24.718-17.312 2.046-11.594-5.704-22.672-17.312-24.718s-22.672 5.702-24.718 17.312zM377.456 415.016c-2.046 11.608 5.704 22.686 17.296 24.718 11.61 2.062 22.688-5.688 24.734-17.296 2.046-11.61-5.704-22.688-17.312-24.734-11.61-2.046-22.688 5.704-24.718 17.312z" fill="#434A54" /><path d="M388.908 714.59L262.8 736.808 144.224 64.288C176.318 0.524 262.91 0.008 262.91 0.008l125.998 714.582z" fill="#656D78" /><path d="M346.298 714.59l126.092 22.218L591 64.288C558.876 0.524 472.296 0.008 472.296 0.008l-125.998 714.582z" fill="#656D78" /><path d="M472.688 698.122c10.234 58.062-28.516 113.404-86.56 123.624-58.032 10.25-113.374-28.5-123.608-86.56-10.234-58.032 28.516-113.374 86.544-123.624 58.048-10.188 113.39 28.56 123.624 86.56z" fill="#E6E9ED" /><path d="M388.94 716.684c0 11.75-9.546 21.312-21.344 21.312-11.782 0-21.344-9.562-21.344-21.312 0-11.812 9.562-21.376 21.344-21.376 11.796 0 21.344 9.564 21.344 21.376z" fill="#CCD1D9" /></svg>