<?xml version="1.0" standalone="no"?><!DOCTYPE svg PUBLIC "-//W3C//DTD SVG 1.1//EN" "http://www.w3.org/Graphics/SVG/1.1/DTD/svg11.dtd"><svg class="icon" width="128px" height="128.00px" viewBox="0 0 1024 1024" version="1.1" xmlns="http://www.w3.org/2000/svg"><path d="M837.872 791.308H186.13S16.29 0.008 512 0.008c495.71 0 325.872 791.3 325.872 791.3z" fill="#965353" /><path d="M877.776 772.714l-3.624-1.062c-52.936-14.188-70.842-27.876-94.404-36.812-83.624-31.876-105.376-54.812-110.936-65.656-0.188-0.406-0.344-0.812-0.5-1.218l-0.718-97.09L512 568.624l-155.59 2.25-0.688 97.09c-0.156 0.406-0.344 0.812-0.532 1.218-5.562 10.844-27.312 33.782-110.904 65.656-23.562 8.938-41.468 22.624-94.406 36.812l-3.624 1.062c-48.188 15.938-80.624 60.624-80.624 111.056v140.218h892.736v-140.218c0-50.43-32.408-95.116-80.592-111.054z" fill="#EC87C0" /><path d="M787.122 382.096c0 178.746-170.436 343.244-275.122 343.244s-275.12-164.498-275.12-343.244c0-178.748 123.186-296.684 275.12-296.684 151.936 0 275.122 117.936 275.122 296.684z" fill="#EAC6BB" /><path d="M743.934 170.662l-149.058-92.438-200.874-3.56-123.56 111.122-50.688 155.56h581.868z" fill="#965353" /><path d="M787.122 320.002h-38.844V298.66c0-11.782-9.56-21.312-21.344-21.312a21.298 21.298 0 0 0-21.312 21.312v21.342h-42.686V298.66c0-11.782-9.56-21.312-21.31-21.312-11.812 0-21.346 9.53-21.346 21.312v21.342h-42.654V298.66c0-11.782-9.56-21.312-21.344-21.312-11.782 0-21.344 9.53-21.344 21.312v21.342h-42.656V298.66c0-11.782-9.562-21.312-21.344-21.312a21.298 21.298 0 0 0-21.312 21.312v21.342H406.94V298.66c0-11.782-9.562-21.312-21.312-21.312-11.812 0-21.342 9.53-21.342 21.312v21.342h-42.656V298.66c0-11.782-9.562-21.312-21.344-21.312s-21.344 9.53-21.344 21.312v21.342h-42.03c-11.782 0-21.344 9.562-21.344 21.344 0 11.782 9.562 21.312 21.344 21.312H787.12c11.75 0 21.312-9.532 21.312-21.312 0.002-11.78-9.56-21.344-21.31-21.344z" fill="#7F4242" /></svg>