<?xml version="1.0" standalone="no"?><!DOCTYPE svg PUBLIC "-//W3C//DTD SVG 1.1//EN" "http://www.w3.org/Graphics/SVG/1.1/DTD/svg11.dtd"><svg class="icon" width="128px" height="128.00px" viewBox="0 0 1024 1024" version="1.1" xmlns="http://www.w3.org/2000/svg"><path d="M1002.648 917.71c0-11.782-9.532-21.344-21.312-21.344-3.282 0-6.406 0.782-9.156 2.094l-0.032-0.032c-117.374 55.876-279.872 112.562-387.368 65.282-58.968-25.938-73.532-71.5-74.124-73.438l0.032 0.188-40.968 11.844c0.75 2.656 19.656 65.312 96.282 99.75 32.468 14.594 70.404 21.938 113.278 21.938 14.968 0 30.562-0.906 46.718-2.688 75.624-8.438 164.624-36.782 264.496-84.344 7.186-3.436 12.154-10.75 12.154-19.25zM448 575.998c0 11.782-9.56 21.344-21.342 21.344h-85.312c-11.782 0-21.342-9.562-21.342-21.344V420c0-11.782 9.56-21.344 21.342-21.344h85.312C438.44 398.658 448 408.22 448 420v155.998z" fill="#434A54" /><path d="M554.656 896.368c0 11.782-9.532 21.344-21.312 21.344H448c-11.78 0-21.342-9.562-21.342-21.344V747.06c0-11.782 9.562-21.344 21.342-21.344h85.344c11.782 0 21.312 9.562 21.312 21.344v149.308z" fill="#656D78" /><path d="M448 853.71c0-11.78-9.56-21.342-21.342-21.342v42.686c11.782 0 21.342-9.562 21.342-21.344zM533.344 853.71c0 11.782 9.532 21.344 21.312 21.344v-42.686c-11.78 0.002-21.312 9.564-21.312 21.342z" fill="#434A54" /><path d="M384.002 346.002v357.994c0 58.906 47.75 106.654 106.654 106.654 58.938 0 106.688-47.748 106.688-106.654V346.002H384.002z" fill="#DA4453" /><path d="M512 575.998c0-11.782-9.562-21.344-21.344-21.344s-21.312 9.562-21.312 21.344c0 0.282 0.032 0.532 0.032 0.782v122.686c-0.312 1.468-0.5 2.968-0.5 4.532 0 11.782 9.562 21.344 21.344 21.344s21.312-9.562 21.312-21.344h0.5V576H512z" fill="#656D78" /><path d="M533.344 0.008c-9.282 0-18.438 0.5-27.438 1.468V1.32L21.352 85.35v341.306l479.336 83.282c0.124 0.032 0.25 0.032 0.376 0.032l4.844 0.562c9 0.968 18.156 1.468 27.438 1.468 141.372 0 255.996-114.624 255.996-255.996C789.34 114.63 674.714 0.008 533.344 0.008z" fill="#ED5564" /><path d="M403.096 289.128l-42.688-85.312c-3.5-7-10.718-11.812-19.062-11.812-11.782 0-21.342 9.562-21.342 21.342 0 3.438 0.844 6.656 2.28 9.532h-0.032l42.656 85.342h0.032c3.5 6.968 10.718 11.78 19.062 11.78 11.782 0 21.344-9.532 21.344-21.342 0-3.406-0.844-6.656-2.282-9.532h0.032zM488.406 289.128l-42.656-85.312h-0.032c-3.5-7-10.686-11.812-19.06-11.812-11.782 0-21.312 9.562-21.312 21.342 0 3.438 0.812 6.656 2.25 9.532l42.654 85.342h0.032c3.5 6.968 10.688 11.78 19.062 11.78 11.782 0 21.312-9.532 21.312-21.342 0-3.406-0.812-6.656-2.25-9.53zM573.718 289.128h0.032l-42.656-85.312h-0.032c-3.5-7-10.718-11.812-19.062-11.812-11.782 0-21.344 9.562-21.344 21.342 0 3.438 0.844 6.656 2.282 9.532h-0.032l42.688 85.342c3.5 6.968 10.718 11.78 19.062 11.78 11.782 0 21.344-9.532 21.344-21.342 0-3.406-0.844-6.656-2.282-9.53z" fill="#DA4453" /><path d="M106.38 70.6l-85.028 14.75v341.306l85.028 14.782z" fill="#DA4453" /><path d="M512 618.654h-43.124c-11.782 0-21.344 9.562-21.344 21.342 0 11.782 9.562 21.344 21.344 21.344H512c11.782 0 21.344-9.562 21.344-21.344 0-11.78-9.562-21.342-21.344-21.342z" fill="#434A54" /></svg>