<?xml version="1.0" standalone="no"?><!DOCTYPE svg PUBLIC "-//W3C//DTD SVG 1.1//EN" "http://www.w3.org/Graphics/SVG/1.1/DTD/svg11.dtd"><svg class="icon" width="128px" height="128.00px" viewBox="0 0 1024 1024" version="1.1" xmlns="http://www.w3.org/2000/svg"><path d="M920.46 772.71l-3.656-1.062c-52.936-14.218-70.84-27.876-94.402-36.844-83.594-31.844-105.344-54.782-110.906-65.624a10.372 10.372 0 0 1-0.532-1.218l-0.688-97.092L512 568.62l-198.278 2.25-0.688 97.092c-0.156 0.406-0.312 0.812-0.532 1.218-5.562 10.844-27.312 33.782-110.904 65.624-23.562 8.968-41.468 22.624-94.406 36.844l-3.656 1.062c-48.186 15.938-80.592 60.624-80.592 111.058v140.218H1001.054v-140.218c0-50.434-32.406-95.12-80.594-111.058z" fill="#4FC2E9" /><path d="M787.122 382.06c0 178.746-170.404 343.244-275.122 343.244-104.686 0-275.122-164.498-275.122-343.244 0-178.748 123.186-296.684 275.122-296.684s275.122 117.936 275.122 296.684z" fill="#EAC6BB" /><path d="M207.192 293.342h0.032-0.032zM787.122 379.936C779.34 192.906 776.84 141.002 676.06 60.848c-164.058-130.498-417.18-10.438-417.18-10.438l45.718 32.03s-167.31 110.466-125.28 386.9c5.156 33.968 235.902-230.684 481.336-216.278l126.468 126.874z" fill="#656D78" /></svg>