<?xml version="1.0" standalone="no"?><!DOCTYPE svg PUBLIC "-//W3C//DTD SVG 1.1//EN" "http://www.w3.org/Graphics/SVG/1.1/DTD/svg11.dtd"><svg class="icon" width="128px" height="128.00px" viewBox="0 0 1024 1024" version="1.1" xmlns="http://www.w3.org/2000/svg"><path d="M877.814 772.714l-3.688-1.062c-52.936-14.218-70.81-27.876-94.374-36.844-83.624-31.844-105.376-54.782-110.936-65.624-0.188-0.406-0.312-0.812-0.5-1.218l-0.688-97.092-155.608-2.25-155.59 2.25-0.688 97.092c-0.188 0.406-0.344 0.812-0.532 1.218-5.562 10.844-27.312 33.782-110.936 65.624-23.562 8.968-41.468 22.624-94.406 36.844l-3.624 1.062c-48.188 15.938-80.624 60.624-80.624 111.058v140.218h892.75v-140.218c0.006-50.434-32.37-95.12-80.556-111.058z" fill="#A0D468" /><path d="M787.128 382.064c0 178.746-170.436 343.244-275.106 343.244-104.716 0-275.12-164.498-275.12-343.244 0-178.748 123.186-296.684 275.12-296.684 151.922 0 275.106 117.936 275.106 296.684z" fill="#EAC6BB" /><path d="M834.004 234.192c-15.938-57.468-42.624-108.374-77.188-147.248-38-42.686-84.56-69.53-134.748-77.624-38.186-6.188-74.06-9.312-106.544-9.312-132.686 0-173.684 51.092-177.934 56.906l-3.718 5.124-10.812 201.778 26.282-4.406c31.342-5.282 61.156-7.968 88.562-7.968 85.56 0 151.67 25.906 196.606 76.966 89.248 101.53 68.498 271.278 68.248 272.964l-7.124 54.624 42.062-35.56c51.812-43.812 87.624-105.81 103.5-179.248 14.18-65.748 11.618-139.278-7.192-206.996z" fill="#ED5564" /><path d="M348.714 44.602c-1.782 0.782-44.75 19.812-87.842 60.092-57.936 54.188-88.562 121.28-88.562 193.966 0 177.622 62.75 276.62 65.406 280.746l38.686 59.748 0.562-71.186c0.968-125.31 29.062-204.934 52.468-249.652 24.438-46.748 43.812-61.53 45.282-62.654l-26-211.06z" fill="#DA4453" /></svg>