<?xml version="1.0" standalone="no"?><!DOCTYPE svg PUBLIC "-//W3C//DTD SVG 1.1//EN" "http://www.w3.org/Graphics/SVG/1.1/DTD/svg11.dtd"><svg class="icon" width="128px" height="128.00px" viewBox="0 0 1024 1024" version="1.1" xmlns="http://www.w3.org/2000/svg"><path d="M920.43 772.742l-3.624-1.062c-52.936-14.218-70.84-27.876-94.402-36.844-83.624-31.844-105.344-54.812-110.906-65.656-0.218-0.376-0.376-0.812-0.562-1.188l-0.688-97.092L512 568.65l-198.246 2.25-0.688 97.092c-0.188 0.376-0.344 0.812-0.562 1.188-5.562 10.844-27.282 33.812-110.904 65.656-23.562 8.968-41.468 22.624-94.406 36.844l-3.624 1.062c-48.186 15.906-80.624 60.592-80.624 111.028v140.218h978.108v-140.218c0-50.436-32.436-95.122-80.624-111.028z" fill="#A0D468" /><path d="M787.09 382.998c0 178.746-170.404 343.244-275.09 343.244s-275.09-164.498-275.09-343.244c0-178.748 123.154-296.684 275.09-296.684s275.09 117.936 275.09 296.684z" fill="#EAC6BB" /><path d="M682.184 56.816c-46.78-42.376-209.308-103.216-360.056 0-118.872 81.436-106.874 286.776-106.874 286.776s155.998 39.406 334.652-62.686c115.498-65.968 155.746 1.124 176.464 59.56 20.124 56.906 60.718 42.532 60.718 42.532s44.814-190.654-104.904-326.182z" fill="#FFCE54" /><path d="M633.03 253.656c16.218-0.124 29.812 3.906 41.248 10.75 21.562-83.624 63.812-105.654 81.718-111.342a324.428 324.428 0 0 0-22-37.188c-30.032 12.532-77.404 46.438-100.966 137.78z" fill="#F6BB42" /><path d="M717.058 424.124c-33.156 1-49.06 35.374-49.06 35.374 29.998-9.188 56.78 12.344 22.248 30.968-68.53 37-120.402-99.216-178.246-33.344-57.844-65.874-109.716 70.344-178.248 33.344-34.53-18.624-7.75-40.156 22.25-30.968 0 0-15.906-34.374-49.06-35.374-43.406-1.312-140.31 155.964 88.716 177.028 43.748 4 90.124-14.156 116.342-42.906 26.218 28.75 72.594 46.906 116.342 42.906 229.028-21.064 132.122-178.342 88.716-177.028z" fill="#FFCE54" /></svg>