<?xml version="1.0" standalone="no"?><!DOCTYPE svg PUBLIC "-//W3C//DTD SVG 1.1//EN" "http://www.w3.org/Graphics/SVG/1.1/DTD/svg11.dtd"><svg class="icon" width="128px" height="128.00px" viewBox="0 0 1024 1024" version="1.1" xmlns="http://www.w3.org/2000/svg"><path d="M920.422 772.718l-3.624-1.062c-52.936-14.188-70.872-27.844-94.434-36.812-83.562-31.876-105.312-54.812-110.876-65.656-0.218-0.406-0.376-0.812-0.562-1.218l-0.688-97.092-198.246-2.25-198.262 2.25-0.688 97.092c-0.172 0.406-0.328 0.812-0.532 1.218-5.562 10.844-27.312 33.782-110.904 65.656-23.562 8.968-41.468 22.624-94.422 36.812l-3.624 1.062c-48.186 15.938-80.608 60.624-80.608 111.058v140.218h978.094v-140.218c0-50.434-32.436-95.12-80.624-111.058z" fill="#5D9CEC" /><path d="M787.114 382.974c0 178.748-170.436 343.246-275.122 343.246-104.702 0-275.106-164.498-275.106-343.246S360.056 86.322 511.992 86.322s275.122 117.904 275.122 296.652z" fill="#EAC6BB" /><path d="M682.176 56.822c-46.78-42.374-209.308-103.248-360.042 0-118.872 81.436-106.874 286.746-106.874 286.746s155.982 39.406 334.668-62.656c115.498-66 155.746 1.124 176.434 59.562 20.124 56.874 60.75 42.5 60.75 42.5s44.752-190.624-104.936-326.152z" fill="#965353" /><path d="M630.552 253.664c16.312-0.5 30.032 3.094 41.624 9.5 22.186-80.5 65.874-102.154 84.936-107.874a327.86 327.86 0 0 0-21.812-37.438c-31.186 12.282-80.498 45.656-104.748 135.812z" fill="#7F4242" /></svg>