<?xml version="1.0" standalone="no"?><!DOCTYPE svg PUBLIC "-//W3C//DTD SVG 1.1//EN" "http://www.w3.org/Graphics/SVG/1.1/DTD/svg11.dtd"><svg class="icon" width="128px" height="128.00px" viewBox="0 0 1024 1024" version="1.1" xmlns="http://www.w3.org/2000/svg"><path d="M920.742 772.548l-3.656-1.062c-52.966-14.218-70.872-27.906-94.464-36.876-83.656-31.876-105.438-54.844-111-65.688-0.188-0.376-0.344-0.812-0.532-1.218l-0.688-97.154L512 568.3l-198.402 2.25-0.688 97.154c-0.188 0.406-0.344 0.844-0.532 1.218-5.562 10.844-27.344 33.812-110.998 65.688-23.594 8.968-41.5 22.656-94.468 36.876l-3.656 1.062c-48.216 15.938-80.654 60.654-80.654 111.122v140.312h978.796v-140.312c0-50.466-32.438-95.184-80.656-111.122z" fill="#5D9CEC" /><path d="M787.308 383.274c0 178.872-170.53 343.494-275.308 343.494s-275.308-164.624-275.308-343.494c0-178.874 123.28-296.902 275.308-296.902 152.06 0 275.308 118.028 275.308 296.902z" fill="#EAC6BB" /><path d="M682.308 56.872c-46.81-42.406-209.464-103.31-360.306 0-118.964 81.468-106.966 286.964-106.966 286.964s156.124 39.438 334.902-62.718c115.592-66.03 155.872 1.124 176.59 59.592 20.156 56.936 60.782 42.562 60.782 42.562s44.812-190.778-105.002-326.4z" fill="#FC6E51" /><path d="M624.592 254.244c16.656-1.5 30.688 1.094 42.656 6.594 23.56-73.75 68.436-96.342 91.154-103.186a324.866 324.866 0 0 0-21.562-37.656 158.58 158.58 0 0 0-29.968 15.218c-27.126 17.532-62.53 52.25-82.28 119.03zM341.002 544.426c-10.688 20.718-18.094 41.438-18.094 59.124 0 62.998 150.28 164.842 189.092 165.466 38.812-0.624 189.09-102.468 189.09-165.466 0-18.062-7.75-39.312-18.812-60.468-27.592-52.842-313.838-51.936-341.276 1.344z" fill="#E9573F" /><path d="M717.214 423.96c-33.188 1-49.124 35.406-49.124 35.406 30.03-9.218 56.842 12.344 22.31 30.968-68.592 37.032-120.528-99.28-178.402-33.344-57.876-65.936-109.81 70.376-178.374 33.344-34.56-18.624-7.75-40.188 22.282-30.968 0 0-15.938-34.406-49.124-35.406-43.438-1.344-140.404 156.06 88.81 177.154 43.748 4 90.186-14.156 116.404-42.938 26.218 28.782 72.656 46.938 116.436 42.938 229.188-21.094 132.22-178.498 88.782-177.154z" fill="#FC6E51" /></svg>