<?xml version="1.0" standalone="no"?><!DOCTYPE svg PUBLIC "-//W3C//DTD SVG 1.1//EN" "http://www.w3.org/Graphics/SVG/1.1/DTD/svg11.dtd"><svg class="icon" width="128px" height="128.00px" viewBox="0 0 1024 1024" version="1.1" xmlns="http://www.w3.org/2000/svg"><path d="M877.814 772.714l-3.688-1.062c-52.936-14.218-70.81-27.876-94.374-36.812-83.624-31.876-105.376-54.812-110.936-65.656-0.188-0.406-0.312-0.812-0.5-1.218l-0.688-97.092-155.608-2.25-155.59 2.25-0.688 97.092c-0.188 0.406-0.344 0.812-0.532 1.218-5.562 10.844-27.312 33.782-110.936 65.656-23.562 8.938-41.468 22.594-94.406 36.812l-3.624 1.062c-48.188 15.938-80.624 60.624-80.624 111.058v140.218h892.75v-140.218c0.006-50.434-32.37-95.12-80.556-111.058z" fill="#A0D468" /><path d="M787.128 382.064c0 178.746-170.436 343.244-275.106 343.244-104.686 0-275.12-164.498-275.12-343.244 0-178.748 123.186-296.684 275.12-296.684 151.922 0 275.106 117.936 275.106 296.684z" fill="#EAC6BB" /><path d="M795.942 100.474C727.566 11.632 608.82 10.632 603.82 10.632l-15.25 0.062-89.61 258.404 34.344-4.624c18.204-2.438 35.89-3.688 52.516-3.688 67.748 0 121.372 19.874 159.434 59.06 28.25 29.062 37.312 58.812 37.624 59.782l21.062 75.592 20.062-75.936c31.688-119.686 22.252-213.498-28.06-278.81z" fill="#E9573F" /><path d="M743.942 52.976c-2.624-2.156-66-52.968-193.122-52.968-44.64 0-92.234 6.312-141.452 18.812-65.218 16.532-116.654 52.656-152.966 107.342-29.656 44.656-49.188 101.998-58.062 170.404-15.156 116.716 4.156 241.528 17.062 305.558l23.062 114.716 18.876-115.466c0.156-0.844 14.374-85.06 64.624-168.716 29.156-48.498 64.5-87.03 105.062-114.498 50.374-34.124 109.342-51.404 175.358-51.404 20.06 0 41.06 1.594 62.498 4.75l17.498 2.594 73.062-211.716-11.5-9.408z" fill="#FC6E51" /></svg>