<?xml version="1.0" standalone="no"?><!DOCTYPE svg PUBLIC "-//W3C//DTD SVG 1.1//EN" "http://www.w3.org/Graphics/SVG/1.1/DTD/svg11.dtd"><svg class="icon" width="128px" height="128.00px" viewBox="0 0 1024 1024" version="1.1" xmlns="http://www.w3.org/2000/svg"><path d="M575.952 927.552a21.34 21.34 0 0 1-15.552-6.746L220.836 558.352c-8.058-8.588-7.62-22.08 0.968-30.108 8.588-8.056 22.08-7.62 30.136 0.968l339.562 362.424c8.058 8.59 7.622 22.08-0.968 30.138a21.17 21.17 0 0 1-14.582 5.778z" fill="#F6BB42" /><path d="M448.034 927.552c-5.214 0-10.462-1.906-14.552-5.778-8.62-8.058-9.056-21.548-1-30.138l339.564-362.424c8.056-8.588 21.548-9.026 30.136-0.968 8.588 8.028 9.056 21.52 0.998 30.108L463.586 920.806a21.28 21.28 0 0 1-15.552 6.746z" fill="#FFCE54" /><path d="M1023.664 418.598v-22.642h-10.804v2.216c-49.376-25.484-330.164 17.894-500.866 17.894-166.986 0-439.344-41.536-497.306-19.456H0.322v23.11h0.032c0 58.65 117.394 209.178 511.64 209.178 396.806 0.002 513.17-152.462 511.67-210.3z" fill="#8C4C4C" /><path d="M1017.512 380.122c-32.26-32.166-328.258 14.616-505.518 14.616-177.23 0-473.258-46.782-505.488-14.616-33.074 32.978 57.37 227.446 505.488 227.446 448.148 0 538.592-194.468 505.518-227.446z" fill="#A85D5D" /><path d="M1017.512 380.122c-32.26-32.166-328.258 14.616-505.518 14.616-177.23 0-473.258-46.782-505.488-14.616-33.074 32.978 57.37 227.446 505.488 227.446 448.148 0 538.592-194.468 505.518-227.446z" fill="#A85D5D" /><path d="M611.648 96.71c-47.94 9.12-86.664 74.11-99.656 74.11-12.96 0-51.716-64.99-99.624-74.11-60.524-11.554-177.512 361.706-177.512 361.706s126.2 42.722 277.134 42.722c150.932 0 277.166-42.722 277.166-42.722s-116.984-373.26-177.508-361.706z" fill="#8C4C4C" /><path d="M511.994 458.51c-122.608 0-228.948-28.2-264.518-38.788-7.964 23.766-12.618 38.694-12.618 38.694s126.2 42.722 277.134 42.722c150.932 0 277.166-42.722 277.166-42.722s-4.686-14.928-12.648-38.694c-35.54 10.588-141.878 38.788-264.516 38.788z" fill="#FFCE54" /><path d="M412.37 139.338c47.906 9.12 86.664 74.11 99.624 74.11 12.992 0 51.716-64.99 99.656-74.11 48.438-9.212 133.008 227.854 164.864 323.012 8.21-2.436 12.648-3.934 12.648-3.934s-116.988-373.26-177.512-361.706c-47.94 9.12-86.664 74.11-99.656 74.11-12.96 0-51.716-64.99-99.624-74.11-60.524-11.554-177.512 361.706-177.512 361.706s4.434 1.5 12.618 3.934c31.886-95.158 116.456-332.224 164.894-323.012z" fill="#FFFFFF" opacity=".1" /></svg>