<?xml version="1.0" standalone="no"?><!DOCTYPE svg PUBLIC "-//W3C//DTD SVG 1.1//EN" "http://www.w3.org/Graphics/SVG/1.1/DTD/svg11.dtd"><svg class="icon" width="128px" height="128.00px" viewBox="0 0 1024 1024" version="1.1" xmlns="http://www.w3.org/2000/svg"><path d="M788.386 158.226C887.01 710.998 552.318 723.988 512 723.988c-40.942 0-385.19-13.366-271.608-591.184L70.846 119.5C28.998 299.2-42.114 821.988 512 927.922 1012.274 832.232 1002.904 396.886 965.554 180.9c-5.342-30.856-178.668-31.012-177.168-22.674z" fill="#F6BB42" /><path d="M682.546 883.7S639.918 926.298 512 926.298s-170.172-42.598-170.172-42.598v-77.014h340.718v77.014zM802.876 265.408l220.796-37.852-31.698-131.478-208.366 35.852zM221.124 265.408L0.328 227.556l31.698-131.478 208.366 35.852z" fill="#FFCE54" /><path d="M893.068 344.044c-11.774 0-21.298 9.556-21.298 21.298 0 11.804 9.526 21.362 21.298 21.362 11.776 0 21.33-9.556 21.33-21.362 0-11.74-9.554-21.298-21.33-21.298zM880.982 471.962c-11.774 0-21.33 9.556-21.33 21.298 0 11.804 9.556 21.362 21.33 21.362 11.776 0 21.33-9.556 21.33-21.362 0-11.74-9.554-21.298-21.33-21.298zM837.012 589.2c-11.774 0-21.332 9.558-21.332 21.364 0 11.742 9.558 21.296 21.332 21.296s21.328-9.554 21.328-21.296c0-11.806-9.554-21.364-21.328-21.364zM765.15 689.136c-11.774 0-21.298 9.556-21.298 21.298 0 11.804 9.526 21.362 21.298 21.362 11.776 0 21.33-9.556 21.33-21.362 0-11.74-9.554-21.298-21.33-21.298zM152.23 367.466c0-11.742-9.556-21.298-21.33-21.298s-21.33 9.556-21.33 21.298c0 11.806 9.556 21.298 21.33 21.298s21.33-9.492 21.33-21.298zM142.986 474.086c-11.742 0-21.298 9.556-21.298 21.298 0 11.806 9.556 21.298 21.298 21.298 11.804 0 21.33-9.494 21.33-21.298 0-11.742-9.524-21.298-21.33-21.298zM186.958 591.324c-11.742 0-21.298 9.556-21.298 21.298 0 11.804 9.556 21.362 21.298 21.362 11.806 0 21.33-9.556 21.33-21.362 0-11.742-9.524-21.298-21.33-21.298zM258.818 691.26c-11.774 0-21.33 9.556-21.33 21.298 0 11.804 9.556 21.362 21.33 21.362s21.33-9.556 21.33-21.362c0-11.742-9.556-21.298-21.33-21.298z" fill="#434A54" /></svg>