<?xml version="1.0" standalone="no"?><!DOCTYPE svg PUBLIC "-//W3C//DTD SVG 1.1//EN" "http://www.w3.org/Graphics/SVG/1.1/DTD/svg11.dtd"><svg class="icon" width="128px" height="128.00px" viewBox="0 0 1024 1024" version="1.1" xmlns="http://www.w3.org/2000/svg"><path d="M1023.992 874.688c0 58.876-229.214 106.624-511.992 106.624-282.746 0-511.992-47.75-511.992-106.624 0-58.936 229.246-106.684 511.992-106.684 282.778 0 511.992 47.748 511.992 106.684z" fill="#5D9CEC" /><path d="M726.872 820.502H297.128S185.13 298.682 512 298.682c326.872 0 214.872 521.82 214.872 521.82z" fill="#E2A437" /><path d="M726.872 820.502H297.128S185.13 298.682 512 298.682c326.872 0 214.872 521.82 214.872 521.82z" fill="#E2A437" /><path d="M512 981.312c121.092 0 232.34-8.75 319.996-23.376v-69c0-33.25-21.124-62.748-52.562-73.248l-2.062-0.562c-34.844-9.5-60.406-18.5-75.782-24.436-54.498-20.938-68.716-36.062-72.342-43.188-0.124-0.312-0.218-0.562-0.344-0.812l-0.5-66.688-232.808 2.688-0.468 64c-0.124 0.25-0.218 0.5-0.344 0.812-3.624 7.124-17.812 22.25-72.344 43.25-15.342 5.874-40.936 14.874-75.466 24.248l-2.376 0.688c-31.406 10.5-52.56 39.998-52.56 73.248v69c87.654 14.626 198.902 23.376 319.962 23.376z" fill="#DBADA2" /><path d="M693.34 558.256c0 117.81-112.308 231.06-181.34 231.06-69 0-181.31-113.25-181.31-231.06 0-117.858 81.188-195.574 181.31-195.574 100.156 0 181.34 77.716 181.34 195.574z" fill="#EAC6BB" /><path d="M552.688 412.336l187.09 127.75C723.528 416.43 667.28 298.682 512 298.682l40.688 113.654z" fill="#F6BB42" /><path d="M543.062 474.648c60.812-44.376 109.03-87.186 130.558-106.998-35.436-41.844-87.122-68.968-161.622-68.968-182.124 0-227.996 161.998-232.902 305.448 72.938-11.312 161.622-54.75 263.966-129.482z" fill="#FFCE54" /><path d="M120.1 374.682c7.312-23.25 23-39.562 23.156-39.75a21.288 21.288 0 0 0 6.094-14.906c0-11.78-9.562-21.342-21.344-21.342-5.938 0-11.282 2.438-15.156 6.344-0.906 0.906-22.156 22.656-32.874 55.062-10.312 31.282-13 78.216 32.936 124.31 24.562 24.688 32.094 50.718 23.032 79.608-7.344 23.25-23 39.562-23.094 39.688a21.244 21.244 0 0 0-6.156 15c0 11.75 9.532 21.31 21.312 21.31 5.938 0 11.312-2.438 15.188-6.312 0.906-0.938 22.156-22.686 32.844-55.124 10.344-31.25 13-78.17-32.906-124.264-24.594-24.688-32.126-50.72-23.032-79.624zM911.086 454.304c-24.56-24.688-32.092-50.718-23.03-79.624 7.312-23.25 22.998-39.562 23.154-39.75a21.15 21.15 0 0 0 6.094-14.906c0-11.78-9.532-21.342-21.31-21.342a21.348 21.348 0 0 0-15.188 6.344c-0.906 0.906-22.156 22.656-32.874 55.062-10.312 31.282-12.968 78.216 32.936 124.31 24.594 24.688 32.124 50.718 23.032 79.608-7.312 23.25-23 39.562-23.094 39.688a21.244 21.244 0 0 0-6.156 15c0 11.75 9.562 21.31 21.344 21.31 5.938 0 11.28-2.438 15.154-6.312 0.906-0.938 22.156-22.686 32.876-55.124 10.312-31.25 13-78.17-32.938-124.264zM521.468 91.842c2.094-8.032 7.032-14.282 7.094-14.344l-0.094 0.094a21.286 21.286 0 0 0 4.876-13.562c0-11.782-9.562-21.342-21.344-21.342-6.594 0-12.5 3-16.406 7.718-0.032 0-0.032 0.032-0.032 0.032l-0.032 0.032c-1.124 1.376-10.124 12.594-14.782 28.5-6.906 23.624-1.188 46.218 16.156 63.624 6.156 6.188 7.844 12.562 5.624 21.218-2.156 8.376-7.188 14.906-7.25 14.968l0.124-0.156a21.218 21.218 0 0 0-4.718 13.406 21.3 21.3 0 0 0 21.312 21.312c6.718 0 12.688-3.094 16.624-7.938 1-1.25 10-12.718 14.656-28.936 6.876-23.906 1.124-46.624-16.156-64-6.152-6.158-7.838-12.314-5.652-20.626z m7-14.25l-0.032 0.032 0.032-0.032z" fill="#E6E9ED" /></svg>