<?xml version="1.0" standalone="no"?><!DOCTYPE svg PUBLIC "-//W3C//DTD SVG 1.1//EN" "http://www.w3.org/Graphics/SVG/1.1/DTD/svg11.dtd"><svg class="icon" width="128px" height="128.00px" viewBox="0 0 1024 1024" version="1.1" xmlns="http://www.w3.org/2000/svg"><path d="M629.316 746.678c-11.75 0-21.312-9.562-21.312-21.344v-426.64c0-11.78 9.562-21.342 21.312-21.342 11.812 0 21.376 9.562 21.376 21.342v426.64c0 11.782-9.564 21.344-21.376 21.344zM32.04 746.678c-11.812 0-21.342-9.562-21.342-21.344v-426.64c0-11.78 9.53-21.342 21.342-21.342 11.782 0 21.312 9.562 21.312 21.342v426.64c-0.002 11.782-9.532 21.344-21.312 21.344z" fill="#CCD1D9" /><path d="M595.316 188.698L460.4 38.796C440.526 16.704 403.09 0.016 373.342 0.016h-85.31c-29.75 0-67.184 16.688-87.09 38.78L66.04 188.696c-19.062 21.188-34 60.124-34 88.654v469.326c0 28.5 14.938 67.436 34 88.652l134.902 149.902c19.906 22.094 57.34 38.75 87.09 38.75h85.31c29.75 0 67.184-16.656 87.058-38.75l134.916-149.902c19.062-21.216 34-60.152 34-88.652V277.352c0-28.532-14.938-67.468-34-88.654z" fill="#48CFAD" /><path d="M32.04 426.69v170.65h85.308v-170.65z" fill="#E6E9ED" /><path d="M89.788 496.938c8.312 8.312 8.312 21.81 0 30.154a21.33 21.33 0 0 1-30.186 0c-8.312-8.344-8.312-21.842 0-30.154a21.33 21.33 0 0 1 30.186 0z" fill="#CCD1D9" /><path d="M544.008 426.69v170.65h85.308v-170.65z" fill="#E6E9ED" /><path d="M601.754 496.938c8.312 8.312 8.312 21.81 0 30.154s-21.81 8.344-30.186 0c-8.312-8.344-8.312-21.842 0-30.154 8.376-8.344 21.874-8.344 30.186 0z" fill="#CCD1D9" /><path d="M509.992 221.448L422.4 124.136c-19.874-22.124-57.31-38.78-87.058-38.78h-9.312c-29.75 0-67.186 16.656-87.06 38.78L151.38 221.446c-19.092 21.186-34.03 60.124-34.03 88.652v403.828c0 28.5 14.938 67.468 34.03 88.654l87.59 97.31c19.874 22.092 57.31 38.78 87.06 38.78h9.312c29.75 0 67.186-16.688 87.058-38.78l87.592-97.31c19.062-21.186 34.016-60.154 34.016-88.654V310.1c0-28.53-14.954-67.468-34.016-88.652z" fill="#37BC9B" /><path d="M117.348 320.006h426.66v85.342H117.348zM117.348 618.684h426.66v85.308H117.348zM757.31 1023.982c-11.75 0-21.312-9.532-21.312-21.312V320.006c0-11.782 9.562-21.312 21.312-21.312 11.812 0 21.376 9.532 21.376 21.312v682.664c0 11.782-9.562 21.312-21.376 21.312zM927.994 725.334a21.286 21.286 0 0 1-21.312-21.342V21.362c0-11.782 9.5-21.344 21.312-21.344s21.31 9.562 21.31 21.344v682.63c0 11.81-9.498 21.342-21.31 21.342z" fill="#434A54" /><path d="M842.684 21.362c0-11.782-9.562-21.344-21.376-21.344h-127.994c-11.748 0-21.31 9.562-21.31 21.344v191.992c0 2.718 0.5 5.406 1.5 7.906l42.684 106.684a21.322 21.322 0 0 0 19.81 13.406h42.688c8.688 0 16.562-5.312 19.812-13.406l42.624-106.684c1-2.5 1.562-5.188 1.562-7.906V21.362zM1011.802 802.738l-42.686-106.652a21.328 21.328 0 0 0-19.812-13.404H906.68a21.328 21.328 0 0 0-19.812 13.404l-42.686 106.652c-1 2.532-1.5 5.218-1.5 7.938v191.994a21.276 21.276 0 0 0 21.31 21.312h127.996a21.28 21.28 0 0 0 21.312-21.312v-191.994a21.536 21.536 0 0 0-1.498-7.938z" fill="#656D78" /></svg>