<?xml version="1.0" standalone="no"?><!DOCTYPE svg PUBLIC "-//W3C//DTD SVG 1.1//EN" "http://www.w3.org/Graphics/SVG/1.1/DTD/svg11.dtd"><svg class="icon" width="128px" height="128.00px" viewBox="0 0 1024 1024" version="1.1" xmlns="http://www.w3.org/2000/svg"><path d="M512 298.686c-35.296 0-63.998-28.718-63.998-63.998 0-35.31 28.702-63.998 63.998-63.998 35.28 0 64 28.686 64 63.998 0 35.28-28.718 63.998-64 63.998z m0-85.34c-11.766 0-21.328 9.562-21.328 21.342 0 11.75 9.562 21.312 21.328 21.312 11.764 0 21.328-9.562 21.328-21.312 0-11.78-9.562-21.342-21.328-21.342z" fill="#424953" /><path d="M648.808 445.212c-34.124-39.466-82.714-61.216-136.808-61.216s-102.684 21.75-136.808 61.216c-36.108 41.75-55.186 101.746-55.186 173.462 0 72.436 18.796 135.432 54.342 182.18 35.312 46.466 84.2 72.03 137.652 72.03 53.436 0 102.338-25.562 137.652-72.03 35.532-46.748 54.344-109.744 54.344-182.18 0-71.716-19.062-131.712-55.188-173.462z" fill="#FFCE54" /><path d="M648.808 445.212c-34.124-39.466-82.714-61.216-136.808-61.216-7.218 0-14.328 0.406-21.328 1.188 45.468 4.938 85.89 25.844 115.48 60.03 36.094 41.75 55.156 101.746 55.156 173.462 0 72.436-18.75 135.432-54.312 182.18-30.558 40.186-71.292 64.748-116.324 70.654 7.016 0.906 14.124 1.376 21.328 1.376 53.436 0 102.338-25.562 137.652-72.03 35.532-46.748 54.344-109.744 54.344-182.18 0-71.718-19.062-131.714-55.188-173.464z" fill="#FFFFFF" opacity=".2" /><path d="M597.308 256h-170.634c-11.78 0-21.342 9.562-21.342 21.344v85.34c0 11.782 9.562 21.312 21.342 21.312h170.634c11.812 0 21.376-9.53 21.376-21.312v-85.34c0-11.782-9.562-21.344-21.376-21.344zM639.996 810.668c-3.75 0-7.562-1-11-3.062l-319.394-191.992c-10.094-6.062-13.36-19.188-7.282-29.282 6.062-10.094 19.17-13.344 29.264-7.282l319.412 191.994c10.094 6.062 13.376 19.186 7.282 29.28a21.314 21.314 0 0 1-18.282 10.344z" fill="#DA4453" /><path d="M384.02 810.668a21.316 21.316 0 0 1-18.296-10.344c-6.078-10.094-2.812-23.216 7.296-29.28l319.412-191.994c10.062-6.062 23.184-2.812 29.246 7.282s2.812 23.218-7.282 29.282l-319.41 191.992a21.246 21.246 0 0 1-10.966 3.062z" fill="#ED5564" /><path d="M703.996 461.244c-11.782 0-21.312-9.562-21.312-21.342V140.568L512 45.758l-170.666 94.81V439.9c0 11.78-9.546 21.342-21.328 21.342-11.78 0-21.328-9.562-21.328-21.342V128.004c0-7.75 4.204-14.876 10.968-18.624L501.64 2.696a21.42 21.42 0 0 1 20.718 0l192.008 106.684a21.29 21.29 0 0 1 10.938 18.624V439.9c0 11.78-9.53 21.344-21.308 21.344z" fill="#CCD1D9" /><path d="M334.538 938.664c-2.468 0-4.984-0.438-7.454-1.344l-57.202-21.342a21.36 21.36 0 0 1-13.876-20V469.336a21.4 21.4 0 0 1 9.218-17.562l123.73-85.34c9.704-6.686 22.984-4.25 29.67 5.468 6.688 9.686 4.25 22.968-5.452 29.656l-114.498 78.998v400.61l43.328 16.156c11.03 4.124 16.64 16.406 12.53 27.466-3.198 8.564-11.338 13.876-19.994 13.876zM689.464 938.664a21.384 21.384 0 0 1-20-13.876c-4.094-11.06 1.5-23.342 12.532-27.466l43.308-16.156V480.556l-114.496-78.998c-9.688-6.688-12.124-19.968-5.438-29.656 6.688-9.718 19.968-12.156 29.688-5.468l123.714 85.34c5.782 4 9.218 10.562 9.218 17.562v426.642a21.36 21.36 0 0 1-13.876 20l-57.184 21.342a21.784 21.784 0 0 1-7.466 1.344z" fill="#E6E9ED" /><path d="M660.934 422.496l-21.344-63.998c-2-9.968-10.75-17.156-20.906-17.156H405.334a21.348 21.348 0 0 0-20.922 17.156l-21.328 63.998a21.422 21.422 0 0 0 4.422 17.718 21.32 21.32 0 0 0 16.5 7.78h255.992c6.376 0 12.438-2.842 16.5-7.78a21.384 21.384 0 0 0 4.436-17.718z" fill="#ED5564" /><path d="M618.684 808.886H405.334c-11.782 0-21.328 9.562-21.328 21.342v85.344c0 11.78 9.546 21.31 21.328 21.31h213.35c11.75 0 21.312-9.532 21.312-21.31v-85.344c0-11.778-9.562-21.342-21.312-21.342z" fill="#CCD1D9" /><path d="M533.328 808.886v21.342c0 11.782 9.562 21.344 21.36 21.344 11.75 0 21.312-9.562 21.312-21.344v-21.342h-42.672zM448.002 808.886v21.342c0 11.782 9.546 21.344 21.328 21.344s21.342-9.562 21.342-21.344v-21.342h-42.67z" fill="#AAB2BC" /><path d="M725.96 999.006l-22.278-127.996c-1.782-10.218-10.656-17.688-21-17.688H341.334a21.324 21.324 0 0 0-21.062 17.968l-20.374 127.996a21.356 21.356 0 0 0 4.828 17.218 21.334 21.334 0 0 0 16.234 7.468h383.974c6.308 0 12.278-2.782 16.34-7.594 4.03-4.81 5.78-11.184 4.686-17.372z" fill="#656D78" /><path d="M639.996 1002.662a21.3 21.3 0 0 0-21.312 21.312h42.624a21.3 21.3 0 0 0-21.312-21.312zM554.688 1002.662c-11.796 0-21.36 9.532-21.36 21.312H576c0-11.78-9.562-21.312-21.312-21.312zM469.33 1002.662c-11.782 0-21.328 9.532-21.328 21.312h42.67c0-11.78-9.56-21.312-21.342-21.312zM384.004 1002.662c-11.78 0-21.328 9.532-21.328 21.312h42.67c0.002-11.78-9.56-21.312-21.342-21.312z" fill="#434A54" /></svg>