<?xml version="1.0" standalone="no"?><!DOCTYPE svg PUBLIC "-//W3C//DTD SVG 1.1//EN" "http://www.w3.org/Graphics/SVG/1.1/DTD/svg11.dtd"><svg class="icon" width="128px" height="128.00px" viewBox="0 0 1024 1024" version="1.1" xmlns="http://www.w3.org/2000/svg"><path d="M140.286 315.562l-10.852-18.364-10.758-18.426c-1.25 0.75-30.872 18.3-60.008 56.09C32.06 369.372 0.33 428.364 0.33 513.592c0 85.258 31.292 143.406 57.526 177.198 28.826 37.07 58.166 53.874 59.416 54.558l21.034-37.068c-0.25-0.156-24.344-14.242-47.968-45.222-31.434-41.222-47.36-91.504-47.36-149.464 0-58.026 16.254-108.9 48.296-151.186 24.136-31.824 48.762-46.72 49.012-46.846zM966.148 333.208c-28.828-37.1-58.152-53.904-59.402-54.59l-21.046 37.1c0.25 0.124 24.36 14.21 47.968 45.222 31.418 41.192 47.344 91.472 47.344 149.436 0 58.058-16.238 108.93-48.282 151.184-24.14 31.854-48.782 46.72-49.032 46.876l10.868 18.362 10.744 18.394c1.25-0.716 30.856-18.3 60.026-56.088 26.608-34.478 58.336-93.504 58.336-178.73 0-85.226-31.294-143.406-57.524-177.166zM360.94 90.332c41.208-31.448 91.488-47.376 149.452-47.376 58.042 0 108.916 16.27 151.2 48.312 31.822 24.14 46.72 48.75 46.846 49l18.364-10.838 18.426-10.774c-0.75-1.25-18.3-30.856-56.09-59.994C654.63 32.054 595.634 0.326 510.392 0.326s-143.408 31.292-177.182 57.526c-37.086 28.824-53.888 58.15-54.576 59.398L315.72 138.3c0.14-0.248 14.226-24.358 45.22-47.968zM663.058 933.668c-41.192 31.416-91.472 47.344-149.45 47.344-58.042 0-108.914-16.24-151.184-48.282-31.838-24.172-46.72-48.782-46.86-49.032l-18.364 10.836-18.41 10.776c0.734 1.25 18.3 30.886 56.088 60.024 34.494 26.61 93.502 58.338 178.73 58.338 85.244 0 143.422-31.292 177.184-57.526 37.07-28.826 53.872-58.182 54.558-59.43l-37.07-21.02c-0.156 0.252-14.21 24.33-45.222 47.972z" fill="#FFCE54" /><path d="M813.528 212.128c-166.52-166.518-436.502-166.518-603.022 0-166.518 166.518-166.518 436.502 0 603.022 166.518 166.518 436.502 166.518 603.022 0 166.514-166.52 166.514-436.502 0-603.022z m-150.75 452.274c-83.258 83.26-218.25 83.26-301.508 0-83.258-83.26-83.258-218.266 0-301.526 83.26-83.26 218.25-83.26 301.508 0 83.262 83.26 83.262 218.266 0 301.526z" fill="#E6E9ED" /><path d="M813.528 212.128c-166.52-166.518-436.502-166.518-603.022 0-166.518 166.518-166.518 436.502 0 603.022 166.518 166.518 436.502 166.518 603.022 0 166.514-166.52 166.514-436.502 0-603.022zM512.016 897.378c-49.858 0-98.452-9.432-144.422-28.076-47.58-19.3-90.286-47.658-126.934-84.322-36.648-36.632-65.004-79.356-84.306-126.918-18.644-45.97-28.09-94.564-28.09-144.44 0-49.842 9.448-98.436 28.09-144.406 19.3-47.596 47.658-90.288 84.306-126.92 36.648-36.664 79.356-65.02 126.934-84.32 45.97-18.644 94.564-28.108 144.422-28.108 49.86 0 98.454 9.462 144.424 28.108 47.562 19.3 90.286 47.656 126.95 84.29 36.632 36.664 64.99 79.356 84.292 126.952 18.644 45.97 28.074 94.564 28.074 144.406 0 49.876-9.43 98.468-28.074 144.44-19.3 47.594-47.658 90.286-84.292 126.918-36.664 36.664-79.386 65.022-126.95 84.322-45.972 18.644-94.564 28.074-144.424 28.074z" fill="#FFFFFF" opacity=".2" /><path d="M331.116 694.54zM749.098 609.876c12.43-30.636 18.738-63.024 18.738-96.252 0-33.198-6.308-65.582-18.738-96.25-12.868-31.762-31.76-60.242-56.182-84.632-24.39-24.422-52.874-43.316-84.666-56.214-30.636-12.43-63.022-18.738-96.234-18.738s-65.584 6.308-96.25 18.738c-31.76 12.898-60.242 31.792-84.648 56.214-24.406 24.39-43.316 52.872-56.198 84.632-12.43 30.668-18.738 63.052-18.738 96.25 0 33.228 6.308 65.616 18.738 96.252 12.882 31.792 31.792 60.242 56.198 84.664s52.888 43.316 84.648 56.184c30.668 12.46 63.038 18.738 96.25 18.738s65.598-6.278 96.234-18.738c31.792-12.868 60.276-31.762 84.666-56.184s43.314-52.904 56.182-84.664z m-387.83 54.526c-83.258-83.26-83.258-218.266 0-301.526 83.26-83.26 218.25-83.26 301.508 0 83.262 83.258 83.262 218.266 0 301.526-83.256 83.26-218.248 83.26-301.508 0z" opacity=".1" /><path d="M338.33 559.062l128.028 128.23-159.554 224.202s-35.462 19.332-123.514-68.708c-88.038-88.038-68.674-123.482-68.674-123.482l223.714-160.242z" fill="#ED5564" /><path d="M213.442 812.65c-61.866-61.866-70.706-97.782-70.486-113.678l-28.34 20.332s-19.362 35.446 68.674 123.482c88.052 88.04 123.514 68.708 123.514 68.708l20.174-28.358c-15.942 0.156-51.826-8.774-113.536-70.486z" fill="#FFFFFF" opacity=".2" /><path d="M439.656 724.8l26.702-37.508-128.028-128.23-37.522 26.892z" fill="#DA4453" /><path d="M685.888 468.402l-128.012-128.23 159.554-224.2s35.476-19.332 123.482 68.706c88.07 88.038 68.708 123.484 68.708 123.484l-223.732 160.24z" fill="#ED5564" /><path d="M810.778 214.814c61.868 61.868 70.706 97.782 70.486 113.678l28.358-20.33s19.364-35.448-68.708-123.484c-88.006-88.038-123.482-68.706-123.482-68.706l-20.174 28.356c15.926-0.156 51.808 8.776 113.52 70.486z" fill="#FFFFFF" opacity=".2" /><path d="M584.578 302.666l-26.702 37.506 128.012 128.23 37.54-26.888z" fill="#DA4453" /><path d="M466.654 339.828l-128.23 128.012L114.24 308.288s-19.346-35.448 68.69-123.484c88.038-88.068 123.5-68.706 123.5-68.706l160.224 223.73z" fill="#ED5564" /><path d="M213.082 214.94c61.868-61.866 97.782-70.704 113.662-70.486l-20.316-28.356s-35.462-19.364-123.5 68.706C94.892 272.84 114.24 308.288 114.24 308.288l28.34 20.174c-0.156-15.928 8.776-51.812 70.502-113.522z" fill="#FFFFFF" opacity=".2" /><path d="M300.916 441.17l37.508 26.67 128.23-128.012-26.872-37.536z" fill="#DA4453" /><path d="M557.316 687.386l128.26-128.012 224.17 159.554s19.364 35.446-68.708 123.484c-88.006 88.068-123.482 68.706-123.482 68.706l-160.24-223.732z" fill="#ED5564" /><path d="M810.902 812.276c-61.868 61.868-97.782 70.706-113.644 70.486l20.298 28.358s35.476 19.364 123.482-68.706c88.07-88.04 68.708-123.484 68.708-123.484l-28.358-20.174c0.188 15.926-8.774 51.81-70.486 113.52z" fill="#FFFFFF" opacity=".2" /><path d="M723.052 586.078l-37.476-26.702-128.26 128.01 26.888 37.54z" fill="#DA4453" /></svg>