<?xml version="1.0" standalone="no"?><!DOCTYPE svg PUBLIC "-//W3C//DTD SVG 1.1//EN" "http://www.w3.org/Graphics/SVG/1.1/DTD/svg11.dtd"><svg class="icon" width="128px" height="128.00px" viewBox="0 0 1024 1024" version="1.1" xmlns="http://www.w3.org/2000/svg"><path d="M512 128.006c-106.06 0-191.996 86.124-191.996 192.372v703.616h383.992V320.376c0-106.248-85.966-192.37-191.996-192.37z" fill="#EAC6BB" /><path d="M383.126 0.008v298.87c0 70.562 57.28 127.778 127.998 127.778 70.688 0 127.966-57.216 127.966-127.778V0.008H383.126z" fill="#E6E9ED" /><path d="M511.124 426.656c70.688 0 127.966-57.216 127.966-127.778v-165.34c-33.84-29.97-78.34-48.188-127.09-48.188-49.624 0-94.81 18.844-128.874 49.782v163.748c0 70.56 57.282 127.776 127.998 127.776z" fill="#EC87C0" /><path d="M448 874.68h128c11.782 0 21.312-9.562 21.312-21.312 0-11.81-9.532-21.374-21.312-21.374h-128c-11.78 0-21.342 9.562-21.342 21.374 0 11.75 9.562 21.312 21.342 21.312zM597.312 917.368h-170.654c-11.782 0-21.344 9.5-21.344 21.312 0 11.75 9.562 21.312 21.344 21.312h170.654c11.782 0 21.342-9.562 21.342-21.312 0-11.812-9.56-21.312-21.342-21.312z" fill="#DBADA2" /></svg>