<?xml version="1.0" standalone="no"?><!DOCTYPE svg PUBLIC "-//W3C//DTD SVG 1.1//EN" "http://www.w3.org/Graphics/SVG/1.1/DTD/svg11.dtd"><svg class="icon" width="128px" height="128.00px" viewBox="0 0 1024 1024" version="1.1" xmlns="http://www.w3.org/2000/svg"><path d="M853.322 0.01H256a21.356 21.356 0 0 0-15.092 6.25L155.598 91.6c-4 4-6.25 9.438-6.25 15.094v243.554c0 5.312 2 10.468 5.592 14.404l597.322 652.4c4.124 4.562 9.876 6.938 15.718 6.938 3.25 0 6.5-0.75 9.532-2.25l85.34-42.688a21.344 21.344 0 0 0 11.782-19.062V21.354c0-11.782-9.53-21.344-21.312-21.344z" fill="#CCD1D9" /><path d="M637.082 227.44v663.804l115.182 125.808c4.124 4.562 9.876 6.938 15.718 6.938 3.25 0 6.5-0.75 9.532-2.25l85.34-42.688a21.344 21.344 0 0 0 11.782-19.062V227.44H637.082z" fill="#ED5564" /><path d="M874.634 21.354c0-5.876-2.376-11.218-6.218-15.094l-100.434 100.434v255.99L874.634 256V21.354z" fill="#AAB2BC" /><path d="M767.982 85.35H170.692c-11.782 0-21.342 9.562-21.342 21.344v639.992c0 11.75 9.562 21.312 21.342 21.312h597.292c11.782 0 21.344-9.562 21.344-21.312V106.694c-0.002-11.782-9.564-21.344-21.346-21.344z" fill="#E6E9ED" /><path d="M825.73 496.93c8.344 8.312 8.344 21.842 0 30.154-8.312 8.344-21.842 8.344-30.154 0-8.344-8.312-8.344-21.842 0-30.154 8.312-8.344 21.842-8.344 30.154 0zM868.416 539.584c8.312 8.36 8.312 21.86 0 30.17-8.344 8.312-21.842 8.312-30.186 0-8.344-8.31-8.344-21.81 0-30.17a21.33 21.33 0 0 1 30.186 0zM868.416 454.242c8.312 8.344 8.312 21.844 0 30.188-8.344 8.312-21.842 8.312-30.186 0a21.332 21.332 0 0 1 0-30.188c8.344-8.312 21.842-8.312 30.186 0zM825.73 411.588a21.332 21.332 0 0 1 0 30.188c-8.312 8.31-21.842 8.31-30.154 0a21.332 21.332 0 0 1 0-30.188c8.312-8.342 21.842-8.342 30.154 0zM868.416 368.934c8.312 8.312 8.312 21.844 0 30.156a21.33 21.33 0 0 1-30.186 0c-8.344-8.312-8.344-21.844 0-30.156a21.334 21.334 0 0 1 30.186 0zM825.73 582.254c8.344 8.312 8.344 21.812 0 30.188-8.312 8.312-21.842 8.312-30.154 0-8.344-8.376-8.344-21.876 0-30.188 8.312-8.312 21.842-8.312 30.154 0zM868.416 624.942c8.312 8.312 8.312 21.81 0 30.124a21.272 21.272 0 0 1-30.186 0c-8.344-8.312-8.344-21.81 0-30.124a21.272 21.272 0 0 1 30.186 0zM825.73 667.564c8.344 8.376 8.344 21.876 0 30.186-8.312 8.312-21.842 8.312-30.154 0-8.344-8.31-8.344-21.81 0-30.186 8.312-8.312 21.842-8.312 30.154 0zM868.416 710.25c8.312 8.31 8.312 21.81 0 30.186-8.344 8.312-21.842 8.312-30.186 0-8.344-8.376-8.344-21.876 0-30.186 8.344-8.312 21.842-8.312 30.186 0zM825.73 752.936c8.344 8.312 8.344 21.812 0 30.124-8.312 8.374-21.842 8.374-30.154 0-8.344-8.312-8.344-21.812 0-30.124 8.312-8.376 21.842-8.376 30.154 0zM868.416 795.558c8.312 8.376 8.312 21.876 0 30.186-8.344 8.312-21.842 8.312-30.186 0-8.344-8.31-8.344-21.81 0-30.186 8.344-8.31 21.842-8.31 30.186 0zM825.73 838.244c8.344 8.312 8.344 21.812 0 30.188-8.312 8.312-21.842 8.312-30.154 0-8.344-8.376-8.344-21.876 0-30.188 8.312-8.312 21.842-8.312 30.154 0zM868.416 880.932c8.312 8.312 8.312 21.812 0 30.124a21.272 21.272 0 0 1-30.186 0c-8.344-8.312-8.344-21.812 0-30.124a21.272 21.272 0 0 1 30.186 0zM825.73 923.554c8.344 8.376 8.344 21.876 0 30.188-8.312 8.31-21.842 8.31-30.154 0-8.344-8.312-8.344-21.812 0-30.188 8.312-8.31 21.842-8.31 30.154 0z" fill="#DA4453" /><path d="M256 298.686h42.686v63.998H256z" fill="#F4BE8E" /><path d="M277.344 319.998c-20 0-36.78-15.782-49.842-46.874-8.468-20.188-14.156-44.186-14.156-59.78 0-35.28 28.716-63.998 63.998-63.998s63.998 28.718 63.998 63.998c0 15.594-5.688 39.592-14.156 59.78-13.094 31.092-29.844 46.874-49.842 46.874z" fill="#ED5564" /><path d="M383.996 298.686h42.654v63.998h-42.654z" fill="#F4BE8E" /><path d="M405.34 319.998c-20 0-36.78-15.782-49.842-46.874-8.468-20.188-14.156-44.186-14.156-59.78 0-35.28 28.718-63.998 63.998-63.998s63.998 28.718 63.998 63.998c0 15.594-5.688 39.592-14.156 59.78-13.094 31.092-29.844 46.874-49.842 46.874z" fill="#DA4453" /><path d="M511.992 298.686h42.654v63.998h-42.654z" fill="#F4BE8E" /><path d="M533.336 319.998c-20 0-36.782-15.782-49.844-46.874-8.468-20.188-14.156-44.186-14.156-59.78 0-35.28 28.718-63.998 64-63.998 35.28 0 63.996 28.718 63.996 63.998 0 15.594-5.688 39.592-14.156 59.78-13.092 31.092-29.842 46.874-49.84 46.874z" fill="#ED5564" /><path d="M639.988 298.686h42.656v63.998h-42.656z" fill="#F4BE8E" /><path d="M661.332 319.998c-20 0-36.782-15.782-49.844-46.874-8.468-20.188-14.156-44.186-14.156-59.78 0-35.28 28.718-63.998 64-63.998 35.28 0 63.994 28.718 63.994 63.998 0 15.594-5.688 39.592-14.154 59.78-13.092 31.092-29.84 46.874-49.84 46.874z" fill="#DA4453" /><path d="M767.982 341.342H170.692c-11.782 0-21.342 9.562-21.342 21.342v639.994c0 11.75 9.562 21.312 21.342 21.312h597.292c11.782 0 21.344-9.562 21.344-21.312V362.684c-0.002-11.78-9.564-21.342-21.346-21.342z" fill="#FFCE54" /><path d="M682.144 469.336H256.376c-11.78 0-21.312-9.532-21.312-21.344 0-11.78 9.532-21.31 21.312-21.31h425.77c11.78 0 21.342 9.532 21.342 21.31a21.334 21.334 0 0 1-21.344 21.344zM682.144 938.68H256.376c-11.78 0-21.312-9.562-21.312-21.374 0-11.75 9.532-21.312 21.312-21.312h425.77c11.78 0 21.342 9.562 21.342 21.312-0.002 11.812-9.564 21.374-21.344 21.374z" fill="#F6BB42" /><path d="M565.084 632.628c-45.466-48.438-33.716-93.076-32.78-96.326 2.718-7.876 0.562-16.376-5.438-22.124-6.032-5.81-14.968-7.31-22.718-4.216-39.936 15.81-71.624 36.858-94.152 62.542-17.438 19.938-29.53 42.688-36.124 67.938-1.282-0.624-2.344-1.188-3.032-1.624a21.374 21.374 0 0 0-20.282-6.876 21.454 21.454 0 0 0-16.28 15.124c-21.5 75.684-2.312 122.934 17.562 149.244 27.376 36.248 74.622 56.998 129.622 56.998 47.936 0 98.904-34.31 118.62-79.872 11.468-26.5 22.156-80.06-34.998-140.808z" fill="#ED5564" /></svg>