<?xml version="1.0" standalone="no"?><!DOCTYPE svg PUBLIC "-//W3C//DTD SVG 1.1//EN" "http://www.w3.org/Graphics/SVG/1.1/DTD/svg11.dtd"><svg class="icon" width="128px" height="128.00px" viewBox="0 0 1024 1024" version="1.1" xmlns="http://www.w3.org/2000/svg"><path d="M490.688 826.432h42.656v179.56h-42.656z" fill="#F6BB42" /><path d="M725.34 981.304H298.692c-11.782 0-21.344 9.562-21.344 21.376 0 11.75 9.562 21.312 21.344 21.312H725.34c11.782 0 21.344-9.562 21.344-21.312 0-11.812-9.562-21.376-21.344-21.376zM938.68 384.784c-0.124 57.342-11.376 112.952-33.498 165.278-21.5 50.812-52.282 96.436-91.466 135.624-39.218 39.188-84.844 70-135.656 91.468-52.56 22.216-108.434 33.53-166.058 33.53s-113.498-11.312-166.06-33.53c-50.81-21.468-96.436-52.282-135.624-91.468-39.186-39.188-69.966-84.81-91.436-135.624-22.156-52.326-33.404-107.936-33.498-165.278H42.696c0.436 258.838 210.37 468.52 469.304 468.52 258.964 0 468.93-209.684 469.336-468.522H938.68z" fill="#FFCE54" /><path d="M111.224 363.456H919.18v42.656H111.224z" fill="#E6E9ED" /><path d="M512 746.684c-96.874 0-187.936-37.75-256.434-106.25-68.498-68.498-106.216-159.558-106.216-256.432 0-96.874 37.718-187.952 106.216-256.434 68.498-68.5 159.56-106.232 256.434-106.232 96.876 0 187.934 37.734 256.434 106.232 68.5 68.482 106.248 159.56 106.248 256.434 0 96.874-37.748 187.934-106.248 256.432-68.5 68.5-159.558 106.25-256.434 106.25z" fill="#4FC2E9" /><path d="M512 0.008C299.942 0.008 128.006 171.926 128.006 384.002c0 212.058 171.936 383.994 383.994 383.994 212.09 0 383.994-171.936 383.994-383.994C895.994 171.926 724.09 0.008 512 0.008z m241.372 625.366c-31.376 31.342-67.876 55.966-108.498 73.154-42.06 17.782-86.748 26.782-132.874 26.782-46.062 0-90.78-9-132.81-26.782-40.656-17.188-77.186-41.812-108.53-73.154-31.344-31.376-55.968-67.876-73.154-108.53-17.812-42.046-26.812-86.75-26.812-132.842 0-46.094 9-90.796 26.812-132.842 17.186-40.64 41.81-77.156 73.154-108.514 31.344-31.36 67.874-55.984 108.53-73.17C421.22 51.694 465.938 42.68 512 42.68c46.124 0 90.812 9.014 132.874 26.796 40.624 17.186 77.124 41.812 108.498 73.17 31.376 31.358 55.968 67.874 73.188 108.514 17.75 42.046 26.78 86.748 26.78 132.842 0 46.092-9.03 90.794-26.78 132.842-17.22 40.654-41.814 77.154-73.188 108.53z" fill="#F6BB42" /><path d="M64.008 320.784c-35.312 0-64 28.656-64 64 0 35.342 28.688 63.998 64 63.998 35.374 0 63.998-28.656 63.998-63.998 0-35.344-28.626-64-63.998-64zM959.992 320.002c-35.312 0-63.998 28.656-63.998 64 0 35.342 28.686 63.998 63.998 63.998 35.376 0 64-28.656 64-63.998 0-35.344-28.624-64-64-64z" fill="#FFCE54" /><path d="M512 85.334c-164.936 0-298.652 133.716-298.652 298.668 0 11.782 9.562 21.328 21.344 21.328s21.312-9.546 21.312-21.328c0-68.376 26.624-132.67 74.998-181.014C379.346 154.63 443.624 128.006 512 128.006c11.812 0 21.344-9.546 21.344-21.328A21.322 21.322 0 0 0 512 85.334z" fill="#3BAFDA" /></svg>