<?xml version="1.0" standalone="no"?><!DOCTYPE svg PUBLIC "-//W3C//DTD SVG 1.1//EN" "http://www.w3.org/Graphics/SVG/1.1/DTD/svg11.dtd"><svg class="icon" width="128px" height="128.00px" viewBox="0 0 1024 1024" version="1.1" xmlns="http://www.w3.org/2000/svg"><path d="M426.672 669.34v269.34c0 47.124 38.202 85.312 85.326 85.312 47.126 0 85.344-38.188 85.344-85.312V669.34h-170.67zM512 959.992c-11.782 0-21.328-9.562-21.328-21.312 0-11.812 9.546-21.344 21.328-21.344s21.344 9.532 21.344 21.344c0 11.75-9.562 21.312-21.344 21.312z" fill="#D770AD" /><path d="M831.996 362.674c0 200.292-143.25 362.666-319.998 362.666-176.716 0-319.994-162.374-319.994-362.666S335.284 0.008 512 0.008c176.746 0 319.996 162.372 319.996 362.666z" fill="#EC87C0" /><path d="M767.996 362.674c0 164.952-114.624 298.666-255.998 298.666s-255.996-133.714-255.996-298.666S370.626 64.006 512 64.006s255.996 133.716 255.996 298.668z" fill="#3BAFDA" /><path d="M480.562 659.09l287.308-287.292c0.062-3.032 0.124-6.078 0.124-9.124 0-53.25-11.938-103.248-32.876-146.544L353.768 597.436c35.796 32.906 79.28 54.872 126.794 61.654z" fill="#4FC2E9" /></svg>