<?xml version="1.0" standalone="no"?><!DOCTYPE svg PUBLIC "-//W3C//DTD SVG 1.1//EN" "http://www.w3.org/Graphics/SVG/1.1/DTD/svg11.dtd"><svg class="icon" width="128px" height="128.00px" viewBox="0 0 1024 1024" version="1.1" xmlns="http://www.w3.org/2000/svg"><path d="M1023.672 245.412c0-11.774-9.554-21.298-21.328-21.298-4.154 0-8.058 1.218-11.338 3.28-16.052 8.526-200.934 103.34-479.052 103.34-150.888 0-273.356-28.232-349.526-51.936-72.5-22.546-117.97-45.376-128.37-50.81a21.282 21.282 0 0 0-12.398-3.998c-11.774 0-21.33 9.556-21.33 21.33 0 7.964 4.372 14.898 10.836 18.55l-0.094 0.188c2.03 1.124 50.888 28.044 137.288 55.028 79.262 24.766 206.664 54.308 363.594 54.308 156.946 0 284.366-29.542 363.626-54.308 86.38-26.982 135.224-53.902 137.288-55.028l-0.062-0.062a21.27 21.27 0 0 0 10.866-18.584z" fill="#656D78" /><path d="M170.718 394.722h255.93v426.526H170.718zM597.258 394.722h255.96v426.526h-255.96z" fill="#A0D468" /><path d="M767.898 608.008c0 23.548-19.114 42.66-42.66 42.66s-42.66-19.112-42.66-42.66c0-23.546 19.114-42.66 42.66-42.66s42.66 19.112 42.66 42.66z" fill="#8CC153" /><path d="M597.258 394.722v426.526h255.96V394.722h-255.96z m213.3 383.866h-170.64V437.382h170.64v341.206zM170.718 821.248h255.93V394.722H170.718v426.526z m42.646-383.866h170.624v341.206h-170.624V437.382z" fill="#8CC153" /><path d="M661.248 202.752v277.26c0 11.804 9.556 21.33 21.33 21.33a21.3 21.3 0 0 0 21.33-21.33c0 11.804 9.556 21.33 21.33 21.33s21.33-9.526 21.33-21.33a21.3 21.3 0 0 0 21.33 21.33c11.774 0 21.332-9.526 21.332-21.33v-277.26h-127.982z" fill="#FC6E51" /><path d="M661.28 309.402h127.952v42.66H661.28z" fill="#E9573F" /><path d="M341.344 608.008c0 23.548-19.096 42.66-42.66 42.66-23.562 0-42.66-19.112-42.66-42.66 0-23.546 19.098-42.66 42.66-42.66 23.564 0 42.66 19.112 42.66 42.66z" fill="#8CC153" /><path d="M234.694 202.752v277.26c0 11.804 9.556 21.33 21.33 21.33a21.308 21.308 0 0 0 21.33-21.33c0 11.804 9.556 21.33 21.33 21.33s21.33-9.526 21.33-21.33c0 11.804 9.556 21.33 21.33 21.33s21.33-9.526 21.33-21.33v-277.26h-127.98z" fill="#FC6E51" /><path d="M234.694 309.402h127.98v42.66h-127.98z" fill="#E9573F" /></svg>