<?xml version="1.0" standalone="no"?><!DOCTYPE svg PUBLIC "-//W3C//DTD SVG 1.1//EN" "http://www.w3.org/Graphics/SVG/1.1/DTD/svg11.dtd"><svg class="icon" width="128px" height="128.00px" viewBox="0 0 1024 1024" version="1.1" xmlns="http://www.w3.org/2000/svg"><path d="M419.499416 759.738472l-190.459617-260.333477a21.359957 21.359957 0 0 0-17.215965-8.733982 21.271957 21.271957 0 0 0-17.217965 8.733982L4.110252 759.738472c-4.717991 6.499987-5.437989 15.09397-1.781997 22.249955a21.253957 21.253957 0 0 0 18.999962 11.685976h380.955234a21.335957 21.335957 0 0 0 17.215965-33.935931z" fill="#7F4545" /><path d="M1020.228208 990.542007L593.555066 371.893252a21.267957 21.267957 0 0 0-17.559965-9.217982c-6.999986 0-13.561973 3.437993-17.561964 9.217982L131.793995 990.542007c-4.499991 6.499987-4.99999 14.99997-1.311997 21.999956a21.245957 21.245957 0 0 0 18.875962 11.437977h853.310283c7.905984 0 15.187969-4.375991 18.875962-11.437977a21.283957 21.283957 0 0 0-1.315997-21.999956z" fill="#965353" /><path d="M593.555066 371.893252a21.267957 21.267957 0 0 0-17.559965-9.217982c-6.999986 0-13.561973 3.437993-17.561964 9.217982l-126.027747 182.791632 58.279883 42.623914 85.309828-42.623914 85.341829 42.623914 58.275882-42.623914-126.057746-182.791632z" fill="#E6E9ED" /><path d="M229.039799 499.404995a21.359957 21.359957 0 0 0-17.215965-8.733982 21.271957 21.271957 0 0 0-17.217965 8.733982L112.858033 611.118771l56.279887 28.875942 42.687914-21.311958 42.651914 21.311958 56.311887-28.811943-81.749836-111.777775z" fill="#CCD1D9" /><path d="M192.007874 192.009614m-63.997872 0a63.997871 63.997871 0 1 0 127.995743 0 63.997871 63.997871 0 1 0-127.995743 0Z" fill="#FFCE54" /><path d="M192.009874 277.335442c-47.029905 0-85.309828-38.281923-85.309829-85.325828S144.981968 106.685785 192.009874 106.685785c47.059905 0 85.339828 38.279923 85.339828 85.323829s-38.279923 85.325828-85.339828 85.325828z m0-127.995742c-23.531953 0-42.653914 19.139961-42.653914 42.669914 0 23.531953 19.123962 42.669914 42.653914 42.669914s42.685914-19.137961 42.685914-42.669914c0-23.529953-19.153961-42.669914-42.685914-42.669914zM192.009874 85.341828c-11.781976 0-21.311957-9.545981-21.311957-21.327957V21.345957c0-11.781976 9.531981-21.327957 21.311957-21.327957s21.343957 9.545981 21.343957 21.327957v42.667914c0 11.779976-9.561981 21.327957-21.343957 21.327957zM192.009874 384.003227c-11.781976 0-21.311957-9.545981-21.311957-21.327957v-42.669914c0-11.781976 9.531981-21.327957 21.311957-21.327957s21.343957 9.545981 21.343957 21.327957v42.669914c0 11.781976-9.561981 21.327957-21.343957 21.327957z" fill="#F6BB42" /><path d="M128.044002 102.497794c-7.375985 0-14.561971-3.827992-18.499962-10.671979L88.200083 54.87389c-5.873988-10.201979-2.375995-23.247953 7.811984-29.137942 10.217979-5.887988 23.249953-2.387995 29.155941 7.811985L146.479965 70.499858c5.903988 10.203979 2.405995 23.249953-7.781984 29.139942a21.319957 21.319957 0 0 1-10.653979 2.857994zM277.379702 361.145273c-7.375985 0-14.561971-3.827992-18.499963-10.671978l-21.341957-36.953926c-5.875988-10.203979-2.405995-23.247953 7.811984-29.137941 10.18598-5.889988 23.247953-2.389995 29.123942 7.811984l21.343957 36.951926c5.905988 10.203979 2.405995 23.249953-7.811984 29.139941a21.199957 21.199957 0 0 1-10.625979 2.859994z" fill="#FFCE54" /><path d="M81.138097 149.3557c-3.593993 0-7.281985-0.921998-10.623979-2.875995L33.544193 125.151748c-10.18598-5.889988-13.685972-18.935962-7.809985-29.137941 5.903988-10.203979 18.935962-13.703972 29.153942-7.811984l36.935925 21.343957c10.217979 5.887988 13.717972 18.935962 7.811985 29.137941-3.935992 6.843986-11.123978 10.671979-18.497963 10.671979zM339.785576 298.677399c-3.623993 0-7.281985-0.921998-10.623978-2.857994l-36.965926-21.343957c-10.18798-5.889988-13.687972-18.937962-7.811984-29.139942 5.905988-10.203979 18.937962-13.687972 29.155941-7.795984l36.935926 21.327957c10.217979 5.889988 13.717972 18.937962 7.811984 29.139942-3.939992 6.843986-11.127978 10.669979-18.501963 10.669978z" fill="#F6BB42" /><path d="M64.014131 213.337571H21.360217c-11.781976 0-21.343957-9.545981-21.343957-21.327957s9.561981-21.325957 21.343957-21.325957h42.653914c11.781976 0 21.341957 9.543981 21.341957 21.325957s-9.561981 21.327957-21.341957 21.327957zM362.69153 213.353571h-0.032l-42.655914-0.016c-11.779976 0-21.309957-9.545981-21.309957-21.327957s9.531981-21.325957 21.309957-21.325957h42.687914c11.781976 0 21.309957 9.543981 21.309958 21.325957s-9.529981 21.343957-21.309958 21.343957z" fill="#FFCE54" /><path d="M44.232171 298.677399a21.341957 21.341957 0 0 1-18.497963-10.669978c-5.875988-10.203979-2.375995-23.249953 7.809985-29.139942l36.967925-21.327957c10.18798-5.889988 23.247953-2.389995 29.123942 7.811984 5.905988 10.203979 2.405995 23.249953-7.811985 29.139942L54.88815 295.819405a21.321957 21.321957 0 0 1-10.655979 2.857994zM302.879651 149.3557a21.349957 21.349957 0 0 1-18.499963-10.671979c-5.875988-10.203979-2.375995-23.249953 7.811984-29.137941l36.965926-21.343957c10.18798-5.889988 23.249953-2.389995 29.123941 7.811984 5.905988 10.203979 2.405995 23.247953-7.811984 29.137941L313.537629 146.479705a21.173957 21.173957 0 0 1-10.657978 2.875995z" fill="#F6BB42" /><path d="M106.668045 361.145273c-3.623993 0-7.281985-0.921998-10.655978-2.859994-10.18798-5.889988-13.685972-18.937962-7.811984-29.139941l21.343957-36.951926c5.905988-10.203979 18.937962-13.703972 29.155941-7.811984 10.18798 5.889988 13.685972 18.935962 7.781984 29.137941l-21.311957 36.953926a21.355957 21.355957 0 0 1-18.501963 10.671978zM256.005745 102.497794a21.219957 21.219957 0 0 1-10.653979-2.859994c-10.217979-5.889988-13.687972-18.937962-7.811984-29.139942l21.341957-36.951925c5.875988-10.201979 18.937962-13.701972 29.123942-7.811985 10.217979 5.905988 13.717972 18.953962 7.811984 29.153942l-21.343957 36.937925a21.299957 21.299957 0 0 1-18.467963 10.671979z" fill="#FFCE54" /><path d="M131.793995 990.542007l426.639142-618.648755c3.999992-5.781988 10.561979-9.217981 17.561964-9.217982 7.029986 0 13.591973 3.437993 17.559965 9.217982l3.781992 5.467989L174.447909 990.542007c-4.499991 6.499987-4.99999 14.99997-1.311997 21.999956a21.279957 21.279957 0 0 0 18.875962 11.437977H149.35596a21.211957 21.211957 0 0 1-18.875962-11.437977 21.279957 21.279957 0 0 1 1.313997-21.999956z" fill="#FFFFFF" opacity=".1" /><path d="M739.798772 261.631474l-26.965946-26.953946 27.591944-27.591945a21.377957 21.377957 0 0 0 4.623991-23.249953 21.353957 21.353957 0 0 0-19.71796-13.153973h-149.3357c-11.781976 0-21.311957 9.543981-21.311957 21.325957v85.325828c0 11.781976 9.531981 21.341957 21.311957 21.341957H725.362801c11.781976 0 21.343957-9.559981 21.343957-21.341957 0-6.215987-2.687995-11.809976-6.907986-15.701968z" fill="#ED5564" /><path d="M575.995101 384.003227c-11.781976 0-21.311957-9.545981-21.311957-21.327957V192.009614c0-11.781976 9.531981-21.325957 21.311957-21.325957 11.779976 0 21.341957 9.543981 21.341957 21.325957v170.665656c0 11.781976-9.561981 21.327957-21.341957 21.327957z" fill="#434A54" /><path d="M23.640212 781.988427a21.351957 21.351957 0 0 1 1.811997-22.249955l190.461617-260.333477a21.393957 21.393957 0 0 1 6.559986-5.875988 21.167957 21.167957 0 0 0-10.653978-2.859994 21.271957 21.271957 0 0 0-17.217965 8.733982L4.110252 759.738472c-4.717991 6.499987-5.437989 15.09397-1.781997 22.249955a21.253957 21.253957 0 0 0 18.999962 11.685976h21.341957c-8.031984 0-15.375969-4.499991-19.029962-11.685976z" fill="#FFFFFF" opacity=".1" /></svg>