<?xml version="1.0" standalone="no"?><!DOCTYPE svg PUBLIC "-//W3C//DTD SVG 1.1//EN" "http://www.w3.org/Graphics/SVG/1.1/DTD/svg11.dtd"><svg class="icon" width="128px" height="128.00px" viewBox="0 0 1024 1024" version="1.1" xmlns="http://www.w3.org/2000/svg"><path d="M224.336 213.332h255.996v170.67H224.336z" fill="#E6E9ED" /><path d="M352.616 326.69c-282.558 0-256.278 227.996-256.278 227.996l42.656 469.306H564.098l44.5-469.306s26.56-227.996-255.982-227.996z" fill="#ED5564" /><path d="M768.312 213.332h64v554.664h-64z" fill="#E6E9ED" /><path d="M928.308 1002.68c0 11.75-9.562 21.312-21.342 21.312H693.624c-11.782 0-21.31-9.562-21.31-21.312V725.308h255.994V1002.68z" fill="#ED5564" /><path d="M832.312 256.004h-64L714.968 42.68S736.312 0.008 800.312 0.008c63.998 0 85.31 42.672 85.31 42.672l-53.31 213.324z" fill="#434A54" /><path d="M224.494 234.676h-0.156v42.656h0.156c11.782 0 21.312-9.546 21.312-21.328s-9.532-21.328-21.312-21.328zM480.334 234.676c-11.718 0.094-21.188 9.594-21.188 21.328s9.468 21.234 21.188 21.328v-42.656zM480.334 277.348c-11.718 0.078-21.188 9.592-21.188 21.328 0 11.718 9.468 21.234 21.188 21.328v-42.656zM224.494 277.332c-0.062 0-0.124 0.016-0.156 0.016v42.654h0.156c11.782 0 21.312-9.546 21.312-21.328 0-11.78-9.532-21.342-21.312-21.342z" fill="#CCD1D9" /><path d="M224.494 554.686h255.996v298.744H224.494z" fill="#F5F7FA" /><path d="M736.312 767.996c-11.782 0-21.344 9.562-21.344 21.312v234.684h42.656V789.308c0-11.75-9.53-21.312-21.312-21.312z" fill="#DA4453" /></svg>