<?xml version="1.0" standalone="no"?><!DOCTYPE svg PUBLIC "-//W3C//DTD SVG 1.1//EN" "http://www.w3.org/Graphics/SVG/1.1/DTD/svg11.dtd"><svg class="icon" width="128px" height="128.00px" viewBox="0 0 1024 1024" version="1.1" xmlns="http://www.w3.org/2000/svg"><path d="M639.035777 277.323183V44.884712H426.191312v232.438471c-112.011107 42.84005-170.283958 151.312934-170.283958 278.399426V1002.702774c0 11.754807 9.526445 21.295229 21.279255 21.295229h510.82392c11.784758 0 21.32518-9.540422 21.32518-21.295229V555.720612c0-127.084495-58.302802-235.557379-170.299932-278.397429z" fill="#A0D468" /><path d="M255.907354 555.720612v297.979456h553.428355V555.720612c0-29.587689-3.17881-58.149053-9.444578-85.150964h-534.567153c-6.251792 27.001911-9.416624 55.563276-9.416624 85.150964z" fill="#ED5564" /><path d="M298.481838 1002.704771V555.720612c0-127.084495 58.258874-235.559376 170.267984-278.399425V44.884712h-42.55851v232.438471c-112.011107 42.84005-170.283958 151.312934-170.283958 278.399426V1002.702774c0 11.754807 9.526445 21.295229 21.279255 21.295229h42.574484c-11.75281 0.001997-21.279255-9.538426-21.279255-21.293232z" opacity=".1" /><path d="M660.299058 598.281119h-255.402975c-11.754807 0-21.279255 9.540422-21.279255 21.295229s9.526445 21.295229 21.279255 21.295229h255.402975c11.786754 0 21.327177-9.540422 21.327177-21.295229s-9.538426-21.295229-21.327177-21.295229zM596.445319 683.430087h-127.6935c-11.754807 0-21.279255 9.540422-21.279255 21.295229s9.526445 21.263281 21.279255 21.263281h127.6935c11.784758 0 21.327177-9.510471 21.327177-21.263281s-9.542419-21.295229-21.327177-21.295229z" fill="#E6E9ED" /><path d="M1022.1642 23.587486c0-11.754807-9.538426-21.263281-21.261284-21.263281a21.265278 21.265278 0 0 0-15.093355 6.235818L6.724223 987.64536a21.295229 21.295229 0 0 0-6.235818 15.059411c0 11.754807 9.524448 21.295229 21.279255 21.295229 5.876405 0 11.2077-2.400081 15.059411-6.235818l979.101311-979.115288a21.129499 21.129499 0 0 0 6.235818-15.061408z" fill="#434A54" /><path d="M639.035777 2.324205H426.191312c-11.706885 0-21.295229 9.570373-21.295229 21.263281v85.150964c0 11.722859 9.588344 21.295229 21.295229 21.295229h212.844465c11.722859 0 21.263281-9.57237 21.263281-21.295229V23.587486c0-11.690911-9.540422-21.263281-21.263281-21.263281z" fill="#8CC153" /></svg>