<?xml version="1.0" standalone="no"?><!DOCTYPE svg PUBLIC "-//W3C//DTD SVG 1.1//EN" "http://www.w3.org/Graphics/SVG/1.1/DTD/svg11.dtd"><svg class="icon" width="128px" height="128.00px" viewBox="0 0 1024 1024" version="1.1" xmlns="http://www.w3.org/2000/svg"><path d="M949.218 64.104c0-11.78-9.558-21.308-21.304-21.308 11.746 0 21.304-9.56 21.304-21.338 0-11.78-9.558-21.34-21.304-21.34H245.398v981.12h682.516c11.746 0 21.304-9.56 21.304-21.34 0-11.778-9.558-21.306-21.304-21.306 11.746 0 21.304-9.56 21.304-21.34 0-11.778-9.558-21.338-21.304-21.338 11.746 0 21.304-9.53 21.304-21.308s-9.558-21.338-21.304-21.338c11.746 0 21.304-9.56 21.304-21.34 0-11.778-9.558-21.306-21.304-21.306 11.746 0 21.304-9.56 21.304-21.34 0-11.778-9.558-21.338-21.304-21.338 11.746 0 21.304-9.53 21.304-21.308s-9.558-21.338-21.304-21.338c11.746 0 21.304-9.56 21.304-21.338 0-11.78-9.558-21.308-21.304-21.308 11.746 0 21.304-9.56 21.304-21.34 0-11.778-9.558-21.338-21.304-21.338 11.746 0 21.304-9.53 21.304-21.306 0-11.78-9.558-21.34-21.304-21.34 11.746 0 21.304-9.56 21.304-21.34 0-11.778-9.558-21.306-21.304-21.306 11.746 0 21.304-9.56 21.304-21.338 0-11.78-9.558-21.34-21.304-21.34 11.746 0 21.304-9.53 21.304-21.308s-9.558-21.338-21.304-21.338c11.746 0 21.304-9.56 21.304-21.338s-9.558-21.308-21.304-21.308c11.746 0 21.304-9.56 21.304-21.338s-9.558-21.338-21.304-21.338c11.746 0 21.304-9.53 21.304-21.308s-9.558-21.338-21.304-21.338c11.746 0 21.304-9.56 21.304-21.338 0-11.78-9.558-21.308-21.304-21.308 11.746 0 21.304-9.56 21.304-21.338 0-11.78-9.558-21.34-21.304-21.34 11.746 0 21.304-9.53 21.304-21.306 0-11.78-9.558-21.34-21.304-21.34 11.746 0 21.304-9.56 21.304-21.338 0-11.78-9.558-21.308-21.304-21.308 11.746 0 21.304-9.56 21.304-21.338 0-11.78-9.558-21.34-21.304-21.34 11.746 0 21.304-9.53 21.304-21.306 0-11.78-9.558-21.34-21.304-21.34 11.746-0.008 21.304-9.57 21.304-21.346z" fill="#CCD1D9" /><path d="M74.78 85.442v853.148c0 47.114 76.388 85.292 170.618 85.292s170.618-38.18 170.618-85.292V85.442H74.78z" fill="#E6E9ED" /><path d="M416.014 85.442c0-47.114-76.388-85.324-170.618-85.324S74.78 38.328 74.78 85.442c0 47.116 76.388 85.324 170.618 85.324s170.616-38.21 170.616-85.324z" fill="#F5F7FA" /><path d="M266.736 85.442c0 11.78-9.56 21.34-21.338 21.34s-21.338-9.56-21.338-21.34c0-11.778 9.56-21.338 21.338-21.338s21.338 9.56 21.338 21.338z" fill="#434A54" /></svg>