<?xml version="1.0" standalone="no"?><!DOCTYPE svg PUBLIC "-//W3C//DTD SVG 1.1//EN" "http://www.w3.org/Graphics/SVG/1.1/DTD/svg11.dtd"><svg class="icon" width="128px" height="128.00px" viewBox="0 0 1024 1024" version="1.1" xmlns="http://www.w3.org/2000/svg"><path d="M943.744 80.288c-49.988-49.988-131.002-49.988-180.99 0L42.794 800.246v180.99h180.958l719.992-719.992c49.958-49.988 49.958-131 0-180.956z" fill="#F6BB42" /><path d="M913.562 291.394l30.182-30.15c49.958-49.988 49.958-131 0-180.958-49.988-49.988-131.002-49.988-180.99 0l-30.148 30.148 180.956 180.96z" fill="#EC87C0" /><path d="M808.15 185.982L193.728 800.372v0.032c-8.342 8.31-8.342 21.808 0 30.15 8.342 8.31 21.838 8.31 30.15 0L838.3 216.13l-30.15-30.148z" fill="#FFCE54" /><path d="M42.794 800.246v180.99h180.958z" fill="#FFE5AB" /><path d="M793.058 412.18l-180.988-180.96 120.66-120.66 180.988 180.99z" fill="#E6E9ED" /><path d="M717.64 185.982L687.49 155.8a0.566 0.566 0 0 1-0.156-0.124l-30.15 30.15 0.156 0.156 30.15 30.15c8.31 8.342 21.838 8.342 30.15 0 8.34-8.312 8.34-21.84 0-30.15zM807.87 336.51l30.15 30.18a0.566 0.566 0 0 1 0.156 0.124l30.148-30.148c-0.032-0.062-0.094-0.094-0.124-0.156l-30.18-30.15c-8.312-8.342-21.808-8.342-30.15 0s-8.342 21.84 0 30.15z" fill="#CCD1D9" /><path d="M42.794 920.906v60.33h60.3z" fill="#656D78" /><path d="M0.118 211.256l180.958-180.958 812.656 812.626-180.99 180.958z" fill="#CCD1D9" /><path d="M30.266 181.108L211.256 0.118l812.626 812.626-180.958 180.988z" fill="#E6E9ED" /><path d="M286.208 135.336l30.15-30.118-30.18-30.18-30.148 30.18c-8.342 8.342-8.342 21.838 0 30.148 8.31 8.342 21.806 8.342 30.148 0-0.002 0.002 0.03 0.002 0.03-0.03zM376.656 225.878l30.18-30.182-30.18-30.148-30.15 30.148c-8.342 8.342-8.342 21.84 0 30.15 8.342 8.344 21.838 8.344 30.15 0.032zM467.166 316.326l30.15-30.15-30.15-30.15-30.18 30.15c-8.31 8.342-8.31 21.838 0 30.18 8.342 8.31 21.838 8.31 30.18 0v-0.03zM557.644 406.836l30.15-30.15-30.15-30.18-30.148 30.15v0.032c-8.342 8.31-8.342 21.808 0 30.15 8.31 8.34 21.808 8.34 30.148-0.002zM648.156 497.316l30.148-30.15-30.18-30.18-30.15 30.18c-8.342 8.342-8.342 21.84 0 30.15 8.31 8.342 21.806 8.342 30.15 0h0.032zM738.634 587.794l30.15-30.148-30.182-30.15-30.15 30.15c-8.34 8.342-8.34 21.838 0 30.148 8.344 8.342 21.84 8.342 30.15 0h0.032zM829.114 678.274l30.15-30.148-30.15-30.148-30.18 30.148c-8.31 8.342-8.31 21.84 0 30.18 8.342 8.312 21.84 8.312 30.18 0v-0.032zM919.594 768.786l30.148-30.182-30.148-30.148-30.148 30.148-0.032 0.032c-8.312 8.31-8.312 21.808 0 30.15a21.33 21.33 0 0 0 30.18 0z" fill="#656D78" /></svg>