<?xml version="1.0" standalone="no"?><!DOCTYPE svg PUBLIC "-//W3C//DTD SVG 1.1//EN" "http://www.w3.org/Graphics/SVG/1.1/DTD/svg11.dtd"><svg class="icon" width="128px" height="128.00px" viewBox="0 0 1024 1024" version="1.1" xmlns="http://www.w3.org/2000/svg"><path d="M1023.672 784.232s-195.062-257.148-360.926-422.98C496.884 195.39 239.738 0.328 239.738 0.328S511.75 0.984 767.398 256.6c255.618 255.618 256.274 527.632 256.274 527.632z" fill="#F6BB42" /><path d="M762.214 171.342L19.066 914.492c-24.984 24.984-24.984 65.458 0 90.442 24.984 24.984 65.458 24.984 90.442 0l743.148-743.148-90.442-90.444z" fill="#8C4C4C" /><path d="M762.22 171.334l90.44 90.44-195.966 195.966-90.44-90.44z" fill="#FFCE54" /><path d="M732.046 322.09c-8.308 8.338-21.83 8.308-30.136 0a21.316 21.316 0 0 1 0-30.168c8.306-8.306 21.828-8.306 30.136 0a21.316 21.316 0 0 1 0 30.168z" fill="#434A54" /><path d="M932.292 828.734l-230.538-146.188-226.294 146.188-91.378 194.938h639.59z" fill="#CCD1D9" /><path d="M1023.672 1023.672l-91.38-194.938-230.538-146.188 114.832 223.858-21.89 117.268z" fill="#AAB2BC" /></svg>