<?xml version="1.0" standalone="no"?><!DOCTYPE svg PUBLIC "-//W3C//DTD SVG 1.1//EN" "http://www.w3.org/Graphics/SVG/1.1/DTD/svg11.dtd"><svg class="icon" width="128px" height="128.00px" viewBox="0 0 1024 1024" version="1.1" xmlns="http://www.w3.org/2000/svg"><path d="M341.676 586.446c-7.902 44.47-24.796 73.826-50.218 87.256-39.006 20.612-88.288-1.062-88.788-1.312l-8.806 19.426-8.87 19.364c1.842 0.874 31.23 13.99 67.644 13.99 18.55 0 38.914-3.374 58.37-13.618 37.85-19.798 62.272-59.398 72.61-117.674l-41.942-7.432z" fill="#CCD1D9" /><path d="M205.232 399.112l14.492 40.038c0.062 0-34.946 44.502-27.138 45.346 11.18 1.25 61.428-39.038 68.488-27.514l36.29-22.33c-27.422-44.566-72.27-42.756-92.132-35.54z" fill="#AAB2BC" /><path d="M234.714 360.824c0-11.744-9.526-21.298-21.298-21.298-11.368 0-20.642 8.932-21.236 20.174h-0.032c-0.032 0.812-4.716 79.512-41.724 130.354l34.448 25.11c44.566-61.21 49.624-149.498 49.842-153.214h-0.032c0-0.378 0.032-0.752 0.032-1.126z" fill="#CCD1D9" /><path d="M989.576 150.116L667.562 275.72l188.1 55.622 168.016-76.296z" fill="#E6E9ED" /><path d="M808.348 224.598l-18.176 5.746c-1.498 0.5-117.392 37.476-359.52 137.038-77.482 31.886-164.894 76.016-268.61 121.548l-7.682-3.748-3.248 3.966c-1.906 2.342-46.97 57.882-87.476 125.528-24.14 40.288-41.598 76.576-51.904 107.744-14.208 43.16-15.146 76.702-2.81 102.684 15.396 32.356 49.124 48.782 100.28 48.782h0.032c18.176 0 39.07-2.124 62.148-6.246 6.996-1.31 13.21-5.372 17.458-11.554 6.058-8.806 10.868-23.734 5.248-72.704-1.812-15.99-4.248-30.98-5.748-39.6 17.27-31.042 38.164-65.458 45.66-73.64l525.758-243.61 95.908-95.19-47.318-106.744z" fill="#965353" /><path d="M298.642 637.85c0 11.742-9.526 21.298-21.298 21.298s-21.298-9.556-21.298-21.298c0-11.806 9.526-21.362 21.298-21.362s21.298 9.554 21.298 21.362z" fill="#434A54" /><path d="M430.652 367.38c-77.482 31.886-167.862 70.174-271.576 115.708l-4.716 2.092s-44.596 159.474 79.636 184.958l123.578-57.276c120.048-101.23 73.078-245.482 73.078-245.482z" fill="#E6E9ED" /></svg>