<?xml version="1.0" standalone="no"?><!DOCTYPE svg PUBLIC "-//W3C//DTD SVG 1.1//EN" "http://www.w3.org/Graphics/SVG/1.1/DTD/svg11.dtd"><svg class="icon" width="128px" height="128.00px" viewBox="0 0 1024 1024" version="1.1" xmlns="http://www.w3.org/2000/svg"><path d="M597.304 8.48c-5.594-26-170.638 9.328-170.638 85.326v374.666h170.638V8.48z" fill="#ED5564" /><path d="M383.994 298.662h256.372V642H383.994z" fill="#E6E9ED" /><path d="M682.676 554.658H341.324v447.994c0 11.812 9.562 21.344 21.344 21.344h298.634c11.81 0 21.374-9.532 21.374-21.344V554.658z" fill="#FFCE54" /><path d="M426.744 91.196c91.78-4.39 163.998-34.374 170.56-82.716-5.53-25.704-166.826 8.53-170.56 82.716z" fill="#DA4453" /><path d="M447.712 938.652h-21.344V618.658c0-11.782-9.546-21.312-21.328-21.312s-21.328 9.532-21.328 21.312v341.338c0 11.782 9.546 21.344 21.328 21.344h42.672c11.782 0 21.328-9.562 21.328-21.344s-9.546-21.344-21.328-21.344z" fill="#F6BB42" /></svg>