<?xml version="1.0" standalone="no"?><!DOCTYPE svg PUBLIC "-//W3C//DTD SVG 1.1//EN" "http://www.w3.org/Graphics/SVG/1.1/DTD/svg11.dtd"><svg class="icon" width="128px" height="128.00px" viewBox="0 0 1024 1024" version="1.1" xmlns="http://www.w3.org/2000/svg"><path d="M874.596 1002.542c0 11.78-9.56 21.34-21.37 21.34H170.742c-11.78 0-21.338-9.56-21.338-21.34V192.074c0-11.78 9.558-21.324 21.338-21.324h682.484c11.808 0 21.37 9.544 21.37 21.324v810.468z" fill="#E6E9ED" /><path d="M288.042 639.97l127.972-213.278 127.954 213.278z" fill="#DA4453" /><path d="M394.692 639.97l170.6-298.602 170.65 298.602z" fill="#ED5564" /><path d="M234.728 128.088h127.97v85.308h-127.97zM661.27 128.088h127.97v85.308h-127.97z" fill="#CCD1D9" /><path d="M597.286 895.912h-170.602c-11.78 0-21.34-9.56-21.34-21.34 0-11.778 9.56-21.306 21.34-21.306h170.602c11.808 0 21.37 9.53 21.37 21.306-0.002 11.78-9.562 21.34-21.37 21.34zM682.64 810.588H341.36c-11.78 0-21.322-9.53-21.322-21.308s9.542-21.338 21.322-21.338h341.28c11.746 0 21.306 9.56 21.306 21.338 0.002 11.778-9.56 21.308-21.306 21.308z" fill="#434A54" /><path d="M746.624 21.442c0-11.78-9.56-21.324-21.372-21.324-11.746 0-21.306 9.544-21.306 21.324v106.646h42.678V21.442zM320.038 21.442c0-11.78-9.544-21.324-21.324-21.324s-21.338 9.544-21.338 21.324v106.646h42.662V21.442z" fill="#FFCE54" /></svg>