<?xml version="1.0" standalone="no"?><!DOCTYPE svg PUBLIC "-//W3C//DTD SVG 1.1//EN" "http://www.w3.org/Graphics/SVG/1.1/DTD/svg11.dtd"><svg class="icon" width="128px" height="128.00px" viewBox="0 0 1024 1024" version="1.1" xmlns="http://www.w3.org/2000/svg"><path d="M512.218 853.296c-108.264 0-210.058-42.124-286.606-118.684-76.56-76.562-118.716-178.374-118.716-286.622 0-108.264 42.156-210.058 118.716-286.604 76.546-76.562 178.342-118.716 286.606-118.716 108.28 0 210.058 42.154 286.622 118.716 76.53 76.544 118.714 178.34 118.714 286.604 0 108.248-42.186 210.058-118.714 286.622-76.562 76.562-178.342 118.684-286.622 118.684z" fill="#4FC2E9" /><path d="M512.218 21.328c-235.636 0-426.648 191.028-426.648 426.664 0 235.622 191.012 426.68 426.648 426.68 235.652 0 426.648-191.058 426.648-426.68 0.002-235.636-190.994-426.664-426.648-426.664zM783.746 719.52c-35.282 35.282-76.344 62.968-122.06 82.31-47.31 20.032-97.624 30.156-149.466 30.156-51.86 0-102.138-10.124-149.452-30.156-45.716-19.342-86.794-47.03-122.076-82.31s-62.966-76.344-82.31-122.092c-20-47.312-30.156-97.576-30.156-149.436 0-51.858 10.156-102.138 30.156-149.45 19.344-45.718 47.03-86.796 82.31-122.076s76.36-62.968 122.076-82.312C410.08 74.14 460.36 64 512.218 64c51.844 0 102.156 10.14 149.466 30.156 45.716 19.344 86.78 47.032 122.06 82.312s62.968 76.358 82.31 122.076c20 47.312 30.156 97.592 30.156 149.45 0 51.86-10.156 102.124-30.156 149.436-19.34 45.746-47.026 86.808-82.308 122.09z" fill="#E9573F" /><path d="M512 789.3H0.008s0 170.684 127.998 213.372h767.988c127.998-42.688 127.998-213.372 127.998-213.372H512z" fill="#FC6E51" /><path d="M619.124 789.3H405.33c-11.782 0-21.328 9.56-21.328 21.374 0 11.75 9.546 21.312 21.328 21.312h213.792c11.75 0 21.312-9.562 21.312-21.312 0.002-11.812-9.56-21.374-21.31-21.374z" fill="#656D78" /><path d="M512.218 106.67c-187.452 0-339.572 151.108-341.276 338.134a21.604 21.604 0 0 0-0.266 3.188c0 11.782 9.546 21.328 21.328 21.328s21.326-9.546 21.326-21.328h0.234c0-40.342 7.876-79.452 23.438-116.232 15.046-35.562 36.594-67.514 64.032-94.952 27.436-27.438 59.388-48.984 94.952-64.03 36.796-15.562 75.888-23.452 116.232-23.452 11.782 0 21.344-9.546 21.344-21.328S524 106.67 512.218 106.67z" fill="#3BAFDA" /></svg>