<?xml version="1.0" standalone="no"?><!DOCTYPE svg PUBLIC "-//W3C//DTD SVG 1.1//EN" "http://www.w3.org/Graphics/SVG/1.1/DTD/svg11.dtd"><svg class="icon" width="128px" height="128.00px" viewBox="0 0 1024 1024" version="1.1" xmlns="http://www.w3.org/2000/svg"><path d="M959.896 383.998H64.102v213.294h895.794c35.336 0 63.986-47.738 63.986-106.632 0-58.922-28.65-106.662-63.986-106.662z" fill="#656D78" /><path d="M128.088 490.662c0 58.894-28.65 106.632-63.986 106.632S0.116 549.556 0.116 490.662c0-58.924 28.65-106.664 63.986-106.664s63.986 47.74 63.986 106.664z" fill="#434A54" /><path d="M725.292 895.912h-511.88V277.368h639.854v490.574z" fill="#FFCE54" /><path d="M959.896 128.088H64.102v213.264h895.794c35.336 0 63.986-47.738 63.986-106.63 0-58.926-28.65-106.634-63.986-106.634z" fill="#656D78" /><path d="M128.088 234.72c0 58.892-28.65 106.63-63.986 106.63S0.116 293.612 0.116 234.72c0-58.924 28.65-106.632 63.986-106.632s63.986 47.708 63.986 106.632z" fill="#434A54" /><path d="M85.442 234.72c0 11.778-9.56 21.306-21.338 21.306a21.294 21.294 0 0 1-21.308-21.306c0-11.78 9.528-21.34 21.308-21.34 11.776 0 21.338 9.562 21.338 21.34zM85.442 490.662c0 11.778-9.56 21.308-21.338 21.308-11.78 0-21.308-9.53-21.308-21.308s9.528-21.338 21.308-21.338c11.776-0.002 21.338 9.558 21.338 21.338z" fill="#E6E9ED" /><path d="M725.292 767.942v127.97l127.974-127.97z" fill="#F6BB42" /></svg>