<?xml version="1.0" standalone="no"?><!DOCTYPE svg PUBLIC "-//W3C//DTD SVG 1.1//EN" "http://www.w3.org/Graphics/SVG/1.1/DTD/svg11.dtd"><svg class="icon" width="128px" height="128.00px" viewBox="0 0 1024 1024" version="1.1" xmlns="http://www.w3.org/2000/svg"><path d="M586.875854 0.01c-11.781977 0-21.343958 9.561981-21.343959 21.343958v21.311959h-42.655916V21.353958c0-11.781977-9.547981-21.343958-21.329959-21.343958-11.779977 0-21.327958 9.561981-21.327958 21.343958v21.311959h-42.669917V21.353958c0-11.781977-9.545981-21.343958-21.327958-21.343958s-21.343958 9.561981-21.343958 21.343958v21.311959H352.220312V21.353958c0-11.781977-9.561981-21.343958-21.343958-21.343958-11.779977 0-21.327958 9.561981-21.327959 21.343958v21.311959H266.880479V21.353958c0-11.781977-9.545981-21.343958-21.327959-21.343958s-21.327958 9.561981-21.327958 21.343958v21.311959H181.554645V21.353958c0-11.781977-9.545981-21.343958-21.327958-21.343958S138.882729 9.571981 138.882729 21.353958v38.529925a20.943959 20.943959 0 0 0-0.405999 4.123992v213.339583c0 11.779977 9.545981 21.311958 21.327958 21.311959h427.073166c11.781977 0 21.343958-9.531981 21.343958-21.311959V21.353958C608.219812 9.571981 598.657831 0.01 586.875854 0.01z" fill="#656D78" /><path d="M885.52727 917.710208c0-11.781977-9.531981-21.343958-21.311958-21.343959-3.281994 0-6.375988 0.781998-9.155982 2.093996l-0.032-0.032c-117.373771 55.875891-279.869453 112.56178-387.369243 65.281873-58.951885-25.937949-73.529856-71.49986-74.123856-73.437857l0.046 0.188-40.98392 11.843977c0.765999 2.655995 19.655962 65.311872 96.279812 99.749805 32.467937 14.593971 70.421862 21.937957 113.281779 21.937957 14.967971 0 30.56194-0.905998 46.717909-2.687995 75.621852-8.437984 164.621678-36.781928 264.493483-84.343835 7.187986-3.435993 12.157976-10.749979 12.157976-19.249962z" fill="#434A54" /><path d="M416.222187 725.714583H330.880354c-11.779977 0-21.327958 9.561981-21.327959 21.311958v149.339708c0 11.781977 9.545981 21.343958 21.327959 21.343959h85.341833c11.781977 0 21.327958-9.561981 21.327958-21.343959v-149.339708c0-11.747977-9.547981-21.311958-21.327958-21.311958z" fill="#656D78" /><path d="M416.222187 725.714583H330.880354c-11.779977 0-21.327958 9.561981-21.327959 21.311958v149.339708c0 11.781977 9.545981 21.343958 21.327959 21.343959h85.341833c11.781977 0 21.327958-9.561981 21.327958-21.343959v-149.339708c0-11.747977-9.547981-21.311958-21.327958-21.311958z" fill="#656D78" /><path d="M330.878354 853.710333c0-11.779977-9.545981-21.341958-21.327959-21.341959v42.685917c11.783977 0 21.327958-9.561981 21.327959-21.343958zM416.222187 853.710333c0 11.781977 9.545981 21.343958 21.327958 21.343958v-42.685917c-11.781977 0.002-21.327958 9.563981-21.327958 21.341959z" fill="#434A54" /><path d="M373.55027 810.650417c-238.713534 0-235.073541-533.300958-235.07354-533.300959s58.685885-106.685792 235.07354-106.685791 234.669542 106.685792 234.669542 106.685791 4.031992 533.300958-234.669542 533.300959z" fill="#48CFAD" /><path d="M608.219812 106.663792V21.353958c0-11.781977-9.561981-21.343958-21.343958-21.343958s-21.343958 9.561981-21.343959 21.343958v21.311959h-42.655916V21.353958c0-11.781977-9.547981-21.343958-21.329959-21.343958-11.779977 0-21.327958 9.561981-21.327958 21.343958v21.311959h-42.669917V21.353958c0-11.781977-9.545981-21.343958-21.327958-21.343958s-21.343958 9.561981-21.343958 21.343958v21.311959H352.220312V21.353958c0-11.781977-9.561981-21.343958-21.343958-21.343958-11.779977 0-21.327958 9.561981-21.327959 21.343958v21.311959H266.880479V21.353958c0-11.781977-9.545981-21.343958-21.327959-21.343958s-21.327958 9.561981-21.327958 21.343958v21.311959H181.554645V21.353958c0-11.781977-9.545981-21.343958-21.327958-21.343958S138.882729 9.571981 138.882729 21.353958v38.529925a20.943959 20.943959 0 0 0-0.405999 4.123992v42.655917H608.219812z" fill="#434A54" /><path d="M437.582145 384.00325c0 35.341931-28.639944 63.997875-63.999875 63.997875-35.343931 0-63.999875-28.655944-63.999875-63.997875 0-35.343931 28.655944-63.999875 63.999875-63.999875 35.357931 0 63.999875 28.655944 63.999875 63.999875z" fill="#F5F7FA" /></svg>