<?xml version="1.0" standalone="no"?><!DOCTYPE svg PUBLIC "-//W3C//DTD SVG 1.1//EN" "http://www.w3.org/Graphics/SVG/1.1/DTD/svg11.dtd"><svg class="icon" width="128px" height="128.00px" viewBox="0 0 1024 1024" version="1.1" xmlns="http://www.w3.org/2000/svg"><path d="M903.06 917.71a21.3 21.3 0 0 0-21.312-21.312c-3.312 0-6.406 0.75-9.156 2.094l-0.032-0.032c-117.374 55.876-279.87 112.562-387.384 65.282-58.952-25.938-73.53-71.5-74.124-73.438l0.046 0.156-40.984 11.844c0.766 2.656 19.656 65.312 96.28 99.782 32.468 14.594 70.42 21.906 113.264 21.906 15 0 30.594-0.876 46.748-2.688 75.624-8.406 164.624-36.782 264.496-84.312v-0.032c7.19-3.436 12.158-10.75 12.158-19.25z" fill="#434A54" /><path d="M455.068 896.398c0 11.782-9.546 21.312-21.328 21.312h-85.342c-11.782 0-21.328-9.532-21.328-21.312v-149.34c0-11.782 9.546-21.344 21.328-21.344h85.342c11.78 0 21.328 9.562 21.328 21.344v149.34z" fill="#656D78" /><path d="M348.398 853.71c0-11.78-9.546-21.31-21.328-21.31v42.654c11.78 0 21.328-9.562 21.328-21.344zM433.74 853.71c0 11.782 9.546 21.344 21.328 21.344V832.4c-11.782 0-21.328 9.532-21.328 21.31z" fill="#434A54" /><path d="M561.754 768.028s-32.328 42.654-170.654 42.654-170.7-42.654-170.7-42.654L121.636 69.914h538.554l-98.436 698.114z" fill="#FC6E51" /><path d="M583.066 0.008H199.072c-70.406 0-98.468 49.468-62.39 109.904l187.214 313.526c18.078 30.28 41.968 45.436 65.874 45.436 23.844 0 47.704-15.062 65.842-45.156l189.356-314.088C681.312 49.35 653.47 0.008 583.066 0.008z" fill="#E6E9ED" /><path d="M496.192 21.352c-58.92 0-106.67 47.75-106.67 106.654 0 25.218 8.766 48.374 23.376 66.624a106.704 106.704 0 0 0-46.75 0 106.154 106.154 0 0 0 23.374-66.624c0-58.906-47.75-106.654-106.67-106.654-58.906 0-106.654 47.75-106.654 106.654 0 58.936 47.75 106.686 106.654 106.686 8.046 0 15.86-0.906 23.376-2.594-14.61 18.25-23.376 41.376-23.376 66.592 0 58.906 47.764 106.654 106.67 106.654s106.67-47.75 106.67-106.654c0-25.218-8.766-48.342-23.376-66.592a106.614 106.614 0 0 0 23.376 2.594c58.906 0 106.686-47.75 106.686-106.686 0-58.906-47.78-106.654-106.686-106.654z m30.172 136.842c-7.468 7.468-8.218 19.092-2.296 27.436-2.218 1.062-4.516 2-6.86 2.844-1.704-10.094-10.454-17.782-21.014-17.782-10.562 0-19.312 7.688-21.016 17.782a74.212 74.212 0 0 1-6.876-2.844c5.938-8.344 5.188-19.968-2.282-27.436-7.468-7.468-19.094-8.218-27.42-2.282a62.84 62.84 0 0 1-2.844-6.876c10.078-1.688 17.764-10.438 17.764-21 0-10.594-7.688-19.344-17.764-21.032a66.242 66.242 0 0 1 2.828-6.876c8.342 5.938 19.968 5.188 27.436-2.282s8.218-19.094 2.282-27.436c2.218-1.062 4.516-2 6.876-2.844 1.704 10.092 10.454 17.78 21.016 17.78 10.562 0 19.312-7.688 21.014-17.78 2.344 0.844 4.64 1.782 6.86 2.844-5.922 8.342-5.188 19.968 2.296 27.436 7.468 7.468 19.11 8.218 27.422 2.282a59.834 59.834 0 0 1 2.844 6.876c-10.062 1.688-17.766 10.438-17.766 21.032 0 10.562 7.704 19.312 17.766 21a59.982 59.982 0 0 1-2.844 6.876c-8.314-5.938-19.954-5.188-27.422 2.282z m-106.67 170.652c-7.468 7.468-8.218 19.094-2.296 27.438a58.44 58.44 0 0 1-6.86 2.844c-1.704-10.094-10.454-17.782-21.016-17.782-10.562 0-19.312 7.688-21.014 17.782a59.744 59.744 0 0 1-6.86-2.844 21.354 21.354 0 0 0-2.296-27.438c-7.468-7.468-19.094-8.218-27.422-2.282a60.332 60.332 0 0 1-2.844-6.876c10.078-1.688 17.766-10.438 17.766-21s-7.688-19.312-17.766-21a60.482 60.482 0 0 1 2.844-6.876c8.328 5.938 19.954 5.188 27.422-2.312 7.468-7.468 8.218-19.094 2.296-27.406a59.596 59.596 0 0 1 6.86-2.844c1.704 10.062 10.454 17.75 21.014 17.75 10.562 0 19.312-7.688 21.016-17.75 2.36 0.812 4.64 1.75 6.86 2.844a21.356 21.356 0 0 0 2.296 27.438c7.468 7.468 19.094 8.218 27.42 2.282a57.56 57.56 0 0 1 2.844 6.876c-10.078 1.688-17.764 10.436-17.764 21 0 10.562 7.686 19.312 17.764 21a60.482 60.482 0 0 1-2.844 6.876c-8.326-5.94-19.952-5.19-27.42 2.28z m-136.842-158.154c-10.562 0-19.312 7.688-21 17.782a72.434 72.434 0 0 1-6.876-2.844c5.938-8.344 5.172-19.968-2.296-27.436s-19.094-8.218-27.422-2.282a66.16 66.16 0 0 1-2.844-6.876c10.094-1.688 17.782-10.438 17.782-21 0-10.594-7.688-19.344-17.782-21.032a66.34 66.34 0 0 1 2.844-6.876c8.328 5.938 19.954 5.188 27.422-2.282 7.484-7.468 8.234-19.094 2.296-27.436 2.218-1.062 4.516-2 6.876-2.844 1.686 10.092 10.436 17.78 21 17.78 10.578 0 19.312-7.688 21.016-17.78 2.36 0.844 4.656 1.782 6.876 2.844-5.938 8.342-5.188 19.968 2.282 27.436s19.108 8.218 27.436 2.282a66.16 66.16 0 0 1 2.844 6.876 21.31 21.31 0 0 0-17.782 21.032c0 10.562 7.688 19.312 17.782 21a66.34 66.34 0 0 1-2.844 6.876c-8.344-5.938-19.968-5.188-27.436 2.282-7.468 7.468-8.218 19.092-2.282 27.436-2.218 1.062-4.516 2-6.876 2.844-1.704-10.094-10.438-17.782-21.016-17.782z" fill="#656D78" /><path d="M433.74 618.342c0 23.56-19.11 42.686-42.672 42.686-23.562 0-42.67-19.124-42.67-42.686s19.11-42.656 42.67-42.656c23.562 0 42.672 19.094 42.672 42.656z" fill="#F5F7FA" /></svg>