<?xml version="1.0" standalone="no"?><!DOCTYPE svg PUBLIC "-//W3C//DTD SVG 1.1//EN" "http://www.w3.org/Graphics/SVG/1.1/DTD/svg11.dtd"><svg class="icon" width="128px" height="128.00px" viewBox="0 0 1024 1024" version="1.1" xmlns="http://www.w3.org/2000/svg"><path d="M384.002 256.02l42.656 127.998V938.68c0 47.124 38.216 85.312 85.342 85.312s85.344-38.188 85.344-85.312V384.018l42.654-127.998H384.002z" fill="#AC92EB" /><path d="M426.376 383.126h171.248l42.374-127.106H384.002z" fill="#967ADC" /><path d="M789.34 277.348c0 11.78-9.562 21.328-21.344 21.328H256.004c-11.782 0-21.344-9.546-21.344-21.328V21.352c0-11.782 9.562-21.344 21.344-21.344h511.992c11.782 0 21.344 9.562 21.344 21.344v255.996z" fill="#E6E9ED" /><path d="M341.346 128.006h341.306c11.782 0 21.344-9.546 21.344-21.328s-9.562-21.328-21.344-21.328H341.346c-11.782 0-21.342 9.546-21.342 21.328s9.56 21.328 21.342 21.328zM682.652 170.676H341.346c-11.782 0-21.342 9.546-21.342 21.342 0 11.782 9.56 21.328 21.342 21.328h341.306c11.782 0 21.344-9.546 21.344-21.328 0-11.794-9.562-21.342-21.344-21.342z" fill="#CCD1D9" /></svg>