<?xml version="1.0" standalone="no"?><!DOCTYPE svg PUBLIC "-//W3C//DTD SVG 1.1//EN" "http://www.w3.org/Graphics/SVG/1.1/DTD/svg11.dtd"><svg class="icon" width="128px" height="128.00px" viewBox="0 0 1024 1024" version="1.1" xmlns="http://www.w3.org/2000/svg"><path d="M746.652 341.346H277.348v42.656l42.656 85.342-42.656 85.342V1002.68a21.3 21.3 0 0 0 21.312 21.312h426.68a21.3 21.3 0 0 0 21.312-21.312V554.686l-42.656-85.342 42.656-85.342v-42.656z" fill="#EC87C0" /><path d="M746.652 234.786v-0.094C746.652 105.068 641.592 0.008 512 0.008s-234.652 105.06-234.652 234.684v149.31h469.304v-149.216z" fill="#E6E9ED" /><path d="M384.002 597.342h255.996v255.994H384.002zM512 85.35c-79.78 0-144.966 62.562-149.122 141.342h-0.218v50.656c0 11.78 9.562 21.342 21.342 21.342 11.782 0 21.344-9.562 21.344-21.342v-42.656c0-58.842 47.842-106.686 106.654-106.686 11.782 0 21.344-9.532 21.344-21.312S523.782 85.35 512 85.35z" fill="#F5F7FA" /></svg>