<?xml version="1.0" standalone="no"?><!DOCTYPE svg PUBLIC "-//W3C//DTD SVG 1.1//EN" "http://www.w3.org/Graphics/SVG/1.1/DTD/svg11.dtd"><svg class="icon" width="128px" height="128.00px" viewBox="0 0 1024 1024" version="1.1" xmlns="http://www.w3.org/2000/svg"><path d="M234.666 629.34c191.994 0 361.706-213.336 361.706-213.336S426.66 202.7 234.666 202.7c-117.808 0-213.304 95.496-213.304 213.304-0.002 117.84 95.494 213.336 213.304 213.336z m0-298.646c47.842 0 108.56 27.344 170.902 76.998a793.094 793.094 0 0 1 10.218 8.312 477.896 477.896 0 0 1-10.218 8.312c-62.342 49.686-123.058 77.028-170.902 77.028-47.03 0-85.308-38.28-85.308-85.34-0.002-47.03 38.278-85.31 85.308-85.31z" fill="#F4BE8E" /><path d="M234.666 565.34c79.81 0 158.682-49.464 210.774-90.964 25.78-20.5 47.78-41.25 64.624-58.374-16.844-17.092-38.842-37.842-64.624-58.372-52.092-41.468-130.964-90.936-210.774-90.936-82.34 0-149.308 66.998-149.308 149.308 0 82.374 66.966 149.338 149.308 149.338z m0-234.646c47.842 0 108.56 27.344 170.902 76.998a793.094 793.094 0 0 1 10.218 8.312 477.896 477.896 0 0 1-10.218 8.312c-62.342 49.686-123.058 77.028-170.902 77.028-47.03 0-85.308-38.28-85.308-85.34-0.002-47.03 38.278-85.31 85.308-85.31z" fill="#F4BE8E" /><path d="M234.666 181.354c46.936 0 96.248 11.906 146.528 35.344 39.528 18.404 79.778 43.998 119.682 76.028 67.498 54.186 110.402 107.746 112.184 110.028l10.594 13.25-10.594 13.312c-1.782 2.25-44.686 55.812-112.184 109.998-39.906 32.028-80.154 57.622-119.682 76.028-50.28 23.468-99.59 35.344-146.528 35.344-129.37 0-234.648-105.278-234.648-234.68 0-129.374 105.276-234.652 234.648-234.652z m333.708 234.648c-16.562-18.812-50.342-54.904-94.904-90.56-57.778-46.28-146.088-101.434-238.804-101.434-105.872 0-191.994 86.154-191.994 191.994 0 105.872 86.122 191.994 191.994 191.994 92.716 0 181.026-55.122 238.804-101.372 44.562-35.686 78.34-71.778 94.904-90.622z" fill="#EAAD7A" /><path d="M234.666 245.352c85.966 0 169.308 51.998 224.054 95.59 22.718 18.094 45.092 38.312 66.562 60.124l14.718 14.936-14.718 14.968c-21.468 21.812-43.842 42.03-66.562 60.092-54.748 43.624-138.088 95.62-224.054 95.62-94.09 0-170.65-76.558-170.65-170.68-0.002-94.09 76.56-170.65 170.65-170.65z m245.054 170.65c-15.562-14.874-31.5-28.874-47.562-41.686-89.59-71.31-156.838-86.31-197.494-86.31-70.56 0-127.996 57.436-127.996 127.996 0 70.592 57.436 127.998 127.996 127.998 40.656 0 107.904-14.968 197.494-86.312 16.094-12.812 32-26.78 47.562-41.686z" fill="#EAAD7A" /><path d="M234.666 309.35c52.654 0 118.058 29 184.18 81.654a645.262 645.262 0 0 1 10.562 8.624l19.718 16.374-19.718 16.406a456.772 456.772 0 0 1-10.562 8.594c-66.122 52.686-131.526 81.686-184.18 81.686-58.81 0-106.652-47.842-106.652-106.684-0.002-58.81 47.842-106.654 106.652-106.654z m146.838 106.652c-54.656-41.342-106.434-63.998-146.84-63.998-35.28 0-63.998 28.716-63.998 63.998 0 35.31 28.718 63.998 63.998 63.998 40.406 0 92.186-22.624 146.84-63.998z" fill="#EAAD7A" /><path d="M789.334 202.698c-191.994 0-361.708 213.304-361.708 213.304S597.34 629.34 789.334 629.34c117.808 0 213.304-95.496 213.304-213.336 0-117.81-95.496-213.306-213.304-213.306z m0 298.646c-47.844 0-108.556-27.342-170.9-77.028a477.896 477.896 0 0 1-10.218-8.312 810.336 810.336 0 0 1 10.218-8.312c62.344-49.654 123.056-76.998 170.9-76.998 47.03 0 85.308 38.28 85.308 85.31 0 47.06-38.278 85.34-85.308 85.34z" fill="#F4BE8E" /><path d="M789.334 266.696c-79.81 0-158.682 49.466-210.774 90.936-25.782 20.53-47.78 41.28-64.624 58.372 16.844 17.124 38.842 37.874 64.624 58.374 52.092 41.5 130.962 90.964 210.774 90.964 82.34 0 149.308-66.964 149.308-149.336 0-82.312-66.968-149.31-149.308-149.31z m0 234.648c-47.844 0-108.556-27.342-170.9-77.028a477.896 477.896 0 0 1-10.218-8.312 810.336 810.336 0 0 1 10.218-8.312c62.344-49.654 123.056-76.998 170.9-76.998 47.03 0 85.308 38.28 85.308 85.31 0 47.06-38.278 85.34-85.308 85.34z" fill="#F4BE8E" /><path d="M789.334 650.684c-46.938 0-96.246-11.876-146.526-35.344-39.532-18.406-79.78-44-119.684-76.028-67.5-54.186-110.402-107.748-112.184-109.998l-10.594-13.312 10.594-13.25c1.782-2.282 44.684-55.842 112.184-110.028 39.904-32.032 80.152-57.624 119.684-76.028 50.28-23.438 99.588-35.344 146.526-35.344 129.372 0 234.648 105.278 234.648 234.648 0 129.406-105.276 234.684-234.648 234.684zM455.626 416.002c16.562 18.842 50.342 54.936 94.904 90.622 57.78 46.25 146.09 101.372 238.804 101.372 105.84 0 191.994-86.122 191.994-191.994 0-105.84-86.154-191.994-191.994-191.994-92.714 0-181.026 55.154-238.804 101.434-44.562 35.658-78.342 71.75-94.904 90.56z" fill="#EAAD7A" /><path d="M789.334 586.684c-85.964 0-169.306-51.996-224.054-95.62-22.716-18.062-45.092-38.282-66.56-60.092l-14.72-14.97 14.718-14.936c21.468-21.812 43.844-42.03 66.56-60.124 54.748-43.592 138.09-95.59 224.054-95.59 94.09 0 170.65 76.56 170.65 170.65 0.002 94.122-76.558 170.682-170.648 170.682z m-245.052-170.682c15.56 14.936 31.498 28.906 47.558 41.686C681.434 529.032 748.678 544 789.334 544c70.558 0 127.996-57.406 127.996-127.998 0-70.56-57.438-127.996-127.996-127.996-40.656 0-107.9 15-197.494 86.31-16.092 12.844-31.998 26.812-47.558 41.686z" fill="#EAAD7A" /><path d="M789.334 522.688c-52.656 0-118.056-29-184.182-81.686a510.768 510.768 0 0 1-10.562-8.594l-19.716-16.406 19.716-16.374a553.262 553.262 0 0 1 10.562-8.624c66.124-52.654 131.526-81.654 184.182-81.654 58.81 0 106.652 47.842 106.652 106.652 0 58.842-47.842 106.686-106.652 106.686z m-146.838-106.686C697.15 457.376 748.928 480 789.334 480c35.28 0 63.996-28.688 63.996-63.998 0-35.28-28.716-63.998-63.996-63.998-40.406 0.002-92.184 22.658-146.838 63.998z" fill="#EAAD7A" /><path d="M480 181.354c-17.688 0-32 14.344-32 32v405.33c0 17.656 14.312 32 32 32 17.686 0 32-14.344 32-32V213.354c0-17.656-14.312-32-32-32z" fill="#FFD2A6" /><path d="M480 671.996c-29.406 0-53.342-23.906-53.342-53.312V213.354c0-29.406 23.936-53.342 53.342-53.342s53.342 23.936 53.342 53.342v405.33c0.002 29.406-23.936 53.312-53.342 53.312z m0-469.298a10.67 10.67 0 0 0-10.656 10.656v405.33A10.67 10.67 0 0 0 480 629.34a10.67 10.67 0 0 0 10.656-10.656V213.354a10.67 10.67 0 0 0-10.656-10.656z" fill="#F4BE8E" /><path d="M416.004 181.354c-17.688 0-32 14.344-32 32v405.33c0 17.656 14.312 32 32 32 17.686 0 31.998-14.344 31.998-32V213.354c0-17.656-14.312-32-31.998-32z" fill="#FFD2A6" /><path d="M416.004 671.996c-29.406 0-53.342-23.906-53.342-53.312V213.354c0-29.406 23.936-53.342 53.342-53.342 29.404 0 53.34 23.936 53.34 53.342v405.33c0 29.406-23.936 53.312-53.34 53.312z m0-469.298a10.67 10.67 0 0 0-10.656 10.656v405.33a10.67 10.67 0 0 0 10.656 10.656 10.668 10.668 0 0 0 10.654-10.656V213.354a10.67 10.67 0 0 0-10.654-10.656z" fill="#F4BE8E" /><path d="M544 181.354c-17.688 0-32 14.344-32 32v405.33c0 17.656 14.312 32 32 32 17.686 0 31.998-14.344 31.998-32V213.354c0-17.656-14.312-32-31.998-32z" fill="#FFD2A6" /><path d="M544 671.996c-29.406 0-53.344-23.906-53.344-53.312V213.354c0-29.406 23.938-53.342 53.344-53.342 29.404 0 53.34 23.936 53.34 53.342v405.33c0 29.406-23.936 53.312-53.34 53.312z m0-469.298a10.67 10.67 0 0 0-10.656 10.656v405.33A10.67 10.67 0 0 0 544 629.34a10.668 10.668 0 0 0 10.654-10.656V213.354a10.668 10.668 0 0 0-10.654-10.656z" fill="#F4BE8E" /><path d="M607.996 181.354c-17.688 0-31.998 14.344-31.998 32v597.322c0 17.656 14.31 32 31.998 32s32-14.344 32-32V213.354c0-17.656-14.312-32-32-32z" fill="#FFD2A6" /><path d="M607.996 863.988c-29.404 0-53.342-23.906-53.342-53.312V213.354c0-29.406 23.938-53.342 53.342-53.342 29.406 0 53.344 23.936 53.344 53.342v597.322c0 29.406-23.938 53.312-53.344 53.312z m0-661.29a10.67 10.67 0 0 0-10.656 10.656v597.322c0 5.876 4.782 10.656 10.656 10.656s10.656-4.782 10.656-10.656V213.354a10.67 10.67 0 0 0-10.656-10.656z" fill="#F4BE8E" /></svg>