<?xml version="1.0" standalone="no"?><!DOCTYPE svg PUBLIC "-//W3C//DTD SVG 1.1//EN" "http://www.w3.org/Graphics/SVG/1.1/DTD/svg11.dtd"><svg class="icon" width="128px" height="128.00px" viewBox="0 0 1024 1024" version="1.1" xmlns="http://www.w3.org/2000/svg"><path d="M0.328 874.33h1023.344v85.382H0.328z" fill="#434A54" /><path d="M42.972 106.916h938.07v767.508H42.972z" fill="#A85D5D" /><path d="M1023.672 234.834H0.328l42.644-170.546h938.07z" fill="#ED5564" /><path d="M362.768 512h298.48v362.33h-298.48zM746.54 512h127.918v127.918H746.54z" fill="#FFCE54" /><path d="M725.208 490.67v170.546h170.546v-170.546h-170.546z m127.916 127.918h-85.29v-85.29h85.29v85.29z" fill="#8C4C4C" /><path d="M149.576 512h127.918v127.918H149.576z" fill="#FFCE54" /><path d="M128.246 490.67v170.546h170.562v-170.546H128.246z m127.918 127.918H170.89v-85.29h85.274v85.29z" fill="#8C4C4C" /><path d="M682.578 831.794H341.454V618.588s100 42.628 170.562 42.628c70.564 0 170.562-42.628 170.562-42.628v213.206z" fill="#ED5564" /><path d="M490.686 831.794h42.644v-171.704c-7.306 0.718-14.458 1.124-21.314 1.124-6.87 0-14.022-0.406-21.33-1.124v171.704z" fill="#DA4453" /><path d="M234.756 426.71v-92.786c27.124-10.554 108.384-35.132 277.15-35.132 111.774 0 184.102 10.836 225.136 19.924 25.422 5.654 42.222 11.306 52.032 15.146v92.848H234.756z" fill="#FFCE54" /><path d="M511.906 277.462c-225.058 0-298.464 42.66-298.464 42.66v127.918h596.93v-127.918c0 0.002-73.392-42.66-298.466-42.66z m255.836 127.918H256.07v-56.434c8.088-2.592 18.614-5.59 31.73-8.588 40.272-9.244 111.834-20.236 224.106-20.236 107.4 0 177.23 10.118 216.892 18.614 16.616 3.56 29.42 7.15 38.944 10.21v56.434zM341.454 490.67v383.754h42.644V533.298h255.82v341.126h42.66V490.67z" fill="#8C4C4C" /><path d="M991.694 106.916l-10.652-42.628H42.972l-10.648 42.628z" fill="#DA4453" /></svg>