<?xml version="1.0" standalone="no"?><!DOCTYPE svg PUBLIC "-//W3C//DTD SVG 1.1//EN" "http://www.w3.org/Graphics/SVG/1.1/DTD/svg11.dtd"><svg class="icon" width="128px" height="128.00px" viewBox="0 0 1024 1024" version="1.1" xmlns="http://www.w3.org/2000/svg"><path d="M664.436 294.846l-55.56-81.452-35.25 24.046 55.56 81.452c6.624 9.734 19.906 12.234 29.624 5.594 9.75-6.624 12.25-19.904 5.626-29.64z" fill="#434A54" /><path d="M799.996 204.848V113.802C764.84 71.914 641.092 0.008 522.656 0.008c-110.904 0-191.998 100.264-191.998 213.386h85.344v255.95h170.654v-218.98l213.34-45.516z" fill="#CCD1D9" /><path d="M327.064 1023.992h348.526c62.876-70.376 103.062-241.996 103.062-362.684 0-212.058-124.154-319.962-277.308-319.962-153.186 0-277.34 107.904-277.34 319.962 0 120.688 40.188 292.31 103.06 362.684z" fill="#E6E9ED" /><path d="M725.278 750.84c-25.782 6.25-50.782 9.344-74.748 9.344-62.092 0-117.436-20.812-162.686-61.688-52.56-47.438-119.716-61.75-199.652-42.532-24.468 5.906-46.406 14.124-63.938 21.906 3.406 119.31 42.782 278.902 102.81 346.122h348.526c50.782-56.844 86.782-179.748 98.718-288.496-14.718 5.626-31.25 11.062-49.03 15.344z" fill="#4FC2E9" /><path d="M714.652 52.116v170.934l85.344-18.204V113.802c-14.906-17.75-45.75-40.904-85.344-61.686z" fill="#434A54" /></svg>