<?xml version="1.0" standalone="no"?><!DOCTYPE svg PUBLIC "-//W3C//DTD SVG 1.1//EN" "http://www.w3.org/Graphics/SVG/1.1/DTD/svg11.dtd"><svg class="icon" width="128px" height="128.00px" viewBox="0 0 1024 1024" version="1.1" xmlns="http://www.w3.org/2000/svg"><path d="M512 341.164c0 141.358 114.568 255.942 255.942 255.942 141.342 0 255.942-114.584 255.942-255.942s-114.6-255.942-255.942-255.942C626.566 85.222 512 199.806 512 341.164z" fill="#AC92EB" /><path d="M618.63 426.894l85.326-142.186 85.292 142.186z" fill="#E6E9ED" /><path d="M689.74 426.894l113.756-199.062 113.722 199.062zM789.248 128.292c0 11.78-9.53 21.34-21.306 21.34-11.78 0-21.34-9.56-21.34-21.34 0-11.778 9.56-21.322 21.34-21.322 11.776-0.002 21.306 9.542 21.306 21.322zM789.248 554.866c0 11.78-9.53 21.306-21.306 21.306-11.78 0-21.34-9.528-21.34-21.306s9.56-21.322 21.34-21.322c11.776-0.002 21.306 9.542 21.306 21.322zM706.018 136.368c4.498 10.888-0.656 23.37-11.56 27.87-10.872 4.514-23.338-0.656-27.836-11.544-4.532-10.872 0.656-23.354 11.528-27.868 10.872-4.502 23.37 0.67 27.868 11.542zM869.262 530.464c4.498 10.886-0.656 23.37-11.56 27.868-10.874 4.532-23.338-0.654-27.838-11.528-4.53-10.888 0.656-23.37 11.53-27.884 10.872-4.498 23.368 0.672 27.868 11.544zM632.192 175.686c8.34 8.326 8.34 21.838 0 30.166-8.312 8.326-21.84 8.326-30.15 0-8.342-8.326-8.342-21.838 0-30.166 8.31-8.326 21.836-8.326 30.15 0zM933.84 477.32c8.31 8.326 8.31 21.824 0 30.166-8.342 8.328-21.84 8.328-30.18 0-8.312-8.326-8.312-21.838 0-30.166 8.34-8.326 21.838-8.326 30.18 0zM579.046 240.25c10.872 4.514 16.058 16.996 11.528 27.87-4.498 10.888-16.964 16.058-27.868 11.544-10.874-4.5-16.028-16.982-11.53-27.868 4.5-10.874 16.998-16.046 27.87-11.546zM973.144 403.494c10.872 4.514 16.058 16.996 11.528 27.868-4.5 10.888-16.964 16.06-27.836 11.544-10.906-4.498-16.058-16.98-11.56-27.868s16.996-16.044 27.868-11.544zM554.644 320.248c11.782 0.016 21.34 9.56 21.34 21.338 0 11.78-9.558 21.324-21.34 21.324-11.778 0-21.338-9.544-21.338-21.324 0-11.778 9.562-21.324 21.338-21.338zM981.204 320.248c11.78 0.016 21.34 9.56 21.34 21.338 0 11.78-9.56 21.324-21.34 21.324-11.778 0-21.306-9.544-21.306-21.324-0.002-11.778 9.528-21.338 21.306-21.338zM562.738 403.494c10.872-4.5 23.338 0.672 27.836 11.544 4.532 10.888-0.656 23.37-11.528 27.868-10.874 4.516-23.372-0.656-27.87-11.544-4.496-10.872 0.658-23.354 11.562-27.868zM956.804 240.25c10.902-4.5 23.368 0.672 27.898 11.56 4.5 10.872-0.688 23.354-11.558 27.852-10.874 4.514-23.372-0.656-27.87-11.544-4.496-10.872 0.656-23.354 11.53-27.868zM602.042 477.32c8.31-8.326 21.838-8.326 30.15 0 8.34 8.326 8.34 21.838 0 30.166-8.312 8.328-21.84 8.328-30.15 0-8.342-8.342-8.342-21.84 0-30.166zM903.66 175.686c8.34-8.326 21.838-8.326 30.18 0 8.31 8.326 8.31 21.838 0 30.166-8.342 8.326-21.84 8.326-30.18 0-8.312-8.326-8.312-21.84 0-30.166zM666.59 530.464c4.53-10.874 16.996-16.042 27.868-11.544 10.904 4.516 16.058 16.996 11.56 27.884-4.498 10.874-16.996 16.058-27.87 11.528-10.87-4.498-16.058-16.98-11.558-27.868zM829.832 136.368c4.532-10.872 16.996-16.042 27.9-11.544 10.874 4.514 16.028 16.996 11.53 27.868-4.5 10.888-16.996 16.06-27.87 11.544-10.872-4.498-16.058-16.98-11.56-27.868z" fill="#F5F7FA" /><path d="M447.764 725.514c-88.168-92.604-77.67-167.398-59.174-208.404 10.716-16.576 16.746-35.384 16.746-55.348 0-66.376-66.828-120.176-149.278-120.176-82.45 0-149.31 53.8-149.31 120.176 0 19.964 6.06 38.772 16.746 55.348 18.496 41.006 29.024 115.8-59.142 208.404v56.956c35.584 20.934 120.222 22.714 191.706 9.904 71.452 12.81 156.088 11.03 191.706-9.904v-56.956z" fill="#434A54" /><path d="M64.352 725.514h383.412v163.494H64.352z" fill="#E6E9ED" /><path d="M512 917.468c0 11.748-9.56 21.308-21.338 21.308H21.424c-11.778 0-21.308-9.56-21.308-21.308v-85.356c0-11.746 9.53-21.306 21.308-21.306H490.66c11.78 0 21.338 9.56 21.338 21.306v85.356z" fill="#AC92EB" /></svg>