<?xml version="1.0" standalone="no"?><!DOCTYPE svg PUBLIC "-//W3C//DTD SVG 1.1//EN" "http://www.w3.org/Graphics/SVG/1.1/DTD/svg11.dtd"><svg class="icon" width="128px" height="128.00px" viewBox="0 0 1024 1024" version="1.1" xmlns="http://www.w3.org/2000/svg"><path d="M320.044 895.912l-106.632 127.97-106.662-127.97V0.118h213.294z" fill="#F6BB42" /><path d="M234.72 831.864V128.088H192.074v703.838c0 11.748 9.558 21.308 21.338 21.308s21.308-9.56 21.308-21.308v-0.062z" fill="#FFCE54" /><path d="M533.338 874.542c0 11.81-9.56 21.372-21.338 21.372-11.78 0-21.34-9.56-21.34-21.372 0-11.746 9.56-21.306 21.34-21.306 11.778-0.002 21.338 9.558 21.338 21.306z"  /><path d="M547.398 725.264h-70.796l-71.234 199.08L512 1023.882l106.63-99.538z" fill="#E6E9ED" /><path d="M512 895.912c-11.78 0-21.34-9.56-21.34-21.372v-63.984c0-11.748 9.56-21.308 21.34-21.308 11.778 0 21.338 9.56 21.338 21.308v63.984c0 11.812-9.56 21.372-21.338 21.372z" fill="#CCD1D9" /><path d="M512 0.118c-58.892 0-106.632 47.74-106.632 106.632v703.806h213.264V106.75C618.63 47.856 570.892 0.118 512 0.118z" fill="#434A54" /><path d="M917.25 448.014c0 11.778-9.56 21.308-21.34 21.308h-170.618c-11.778 0-21.338-9.53-21.338-21.308v-170.648c0-11.78 9.56-21.308 21.338-21.308h170.618c11.78 0 21.34 9.53 21.34 21.308v170.648zM917.25 746.57c0 11.81-9.56 21.372-21.34 21.372h-170.618c-11.778 0-21.338-9.56-21.338-21.372v-170.586c0-11.808 9.56-21.338 21.338-21.338h170.618c11.78 0 21.34 9.53 21.34 21.338v170.586z" fill="#D770AD" /><path d="M703.956 341.352h213.294v341.234H703.956zM106.75 0.118h213.294v127.97H106.75z" fill="#EC87C0" /><path d="M106.75 895.912l106.662 127.97 106.632-127.97z" fill="#FFE5AB" /><path d="M177.858 981.206l35.554 42.676 35.524-42.676z" fill="#656D78" /></svg>