<?xml version="1.0" standalone="no"?><!DOCTYPE svg PUBLIC "-//W3C//DTD SVG 1.1//EN" "http://www.w3.org/Graphics/SVG/1.1/DTD/svg11.dtd"><svg class="icon" width="128px" height="128.00px" viewBox="0 0 1024 1024" version="1.1" xmlns="http://www.w3.org/2000/svg"><path d="M422.374 503.216L105.596 186.44C43.364 188.316 0.004 261.846 0.004 261.846L362.03 623.9l60.344-120.684z" fill="#E6E9ED" /><path d="M599.622 801.146v-0.032L26.442 227.97C9.676 245.47 0.004 261.846 0.004 261.846l54.5 54.53 514.96 514.928c8.312 8.344 21.844 8.344 30.156 0 8.344-8.346 8.344-21.846 0.002-30.158z" fill="#CCD1D9" /><path d="M418.608 801.146c-33.328-33.342-33.328-87.374 0-120.686l459.726-459.71c33.31-33.342 87.342-33.342 120.654 0 33.344 33.312 33.344 87.342 0 120.686L539.278 801.146c-33.328 33.312-87.344 33.312-120.67 0z" fill="#434A54" /><path d="M509.106 740.804a21.332 21.332 0 0 0 0-30.188c-8.328-8.312-21.828-8.312-30.156 0a21.332 21.332 0 0 0 0 30.188c8.328 8.314 21.828 8.314 30.156 0z" fill="#E6E9ED" /></svg>