<?xml version="1.0" standalone="no"?><!DOCTYPE svg PUBLIC "-//W3C//DTD SVG 1.1//EN" "http://www.w3.org/Graphics/SVG/1.1/DTD/svg11.dtd"><svg class="icon" width="128px" height="128.00px" viewBox="0 0 1024 1024" version="1.1" xmlns="http://www.w3.org/2000/svg"><path d="M448.002 85.358H576v260.648h-127.998z" fill="#F6BB42" /><path d="M405.348 170.7h213.334v260.646H405.348z" fill="#DA4453" /><path d="M767.992 384.004S732.68 256.008 512 256.008s-255.992 127.996-255.992 127.996v618.666c0 11.812 10.438 21.312 23.282 21.312h465.452c12.844 0 23.25-9.5 23.25-21.312V384.004z" fill="#ED5564" /><path d="M512 256.008c-7.312 0-14.406 0.156-21.312 0.438 201.62 7.938 234.648 127.558 234.648 127.558v618.666c0 11.812-10.406 21.312-23.278 21.312h42.684c12.844 0 23.25-9.5 23.25-21.312V384.004S732.68 256.008 512 256.008z" fill="#FFFFFF" opacity=".2" /><path d="M746.68 128.012H426.69V0.018c191.024 0 319.99 42.686 319.99 42.686v85.308z" fill="#FFCE54" /><path d="M576 661.37c0 35.31-28.624 63.996-64 63.996-35.342 0-63.998-28.686-63.998-63.996 0-35.374 28.656-63.998 63.998-63.998 35.376 0 64 28.624 64 63.998z" fill="#F6BB42" /><path d="M512 746.678c-47.062 0-85.31-38.248-85.31-85.308S464.94 575.996 512 575.996s85.338 38.312 85.338 85.374-38.276 85.308-85.338 85.308z m0-127.994c-23.5 0-42.656 19.124-42.656 42.686 0 23.5 19.156 42.624 42.656 42.624 23.53 0 42.686-19.124 42.686-42.624 0.002-23.562-19.154-42.686-42.686-42.686zM512 554.686c-11.75 0-21.312-9.562-21.312-21.344v-42.654c0-11.782 9.562-21.344 21.312-21.344 11.812 0 21.342 9.562 21.342 21.344v42.654A21.33 21.33 0 0 1 512 554.686zM512 853.362c-11.75 0-21.312-9.562-21.312-21.376v-42.624c0-11.81 9.562-21.374 21.312-21.374 11.812 0 21.342 9.562 21.342 21.374v42.624c0.002 11.812-9.53 21.376-21.342 21.376z" fill="#FFCE54" /><path d="M448.034 571.84a21.404 21.404 0 0 1-18.5-10.654l-21.342-36.968c-5.876-10.218-2.376-23.248 7.812-29.154 10.216-5.876 23.248-2.376 29.154 7.812l21.342 36.966c5.876 10.218 2.376 23.248-7.812 29.154a21.284 21.284 0 0 1-10.654 2.844zM597.372 830.486c-7.376 0-14.562-3.812-18.496-10.686l-21.344-36.936c-5.906-10.188-2.406-23.25 7.812-29.124 10.218-5.938 23.246-2.438 29.152 7.812l21.312 36.936c5.906 10.188 2.406 23.248-7.812 29.124a21.15 21.15 0 0 1-10.624 2.874z" fill="#F6BB42" /><path d="M401.13 618.684c-3.624 0-7.282-0.938-10.624-2.876l-36.936-21.312c-10.218-5.876-13.718-18.938-7.812-29.124 5.874-10.216 18.936-13.716 29.124-7.81l36.936 21.31c10.216 5.876 13.716 18.938 7.81 29.124-3.936 6.876-11.124 10.688-18.498 10.688zM659.808 767.99c-3.624 0-7.312-0.876-10.688-2.812l-36.938-21.376c-10.188-5.876-13.688-18.938-7.812-29.124 5.906-10.186 18.938-13.686 29.156-7.81l36.938 21.31a21.362 21.362 0 0 1 7.812 29.188 21.36 21.36 0 0 1-18.468 10.624z" fill="#FFCE54" /><path d="M384.004 682.682h-42.654c-11.782 0-21.344-9.562-21.344-21.312 0-11.812 9.562-21.374 21.344-21.374h42.654c11.812 0 21.344 9.56 21.344 21.374 0 11.75-9.53 21.312-21.344 21.312zM682.684 682.682h-42.688c-11.75 0-21.312-9.562-21.312-21.312 0-11.812 9.562-21.374 21.312-21.374l42.688 0.032c11.75 0 21.312 9.53 21.312 21.342 0 11.75-9.562 21.312-21.312 21.312z" fill="#F6BB42" /><path d="M364.224 767.99c-7.376 0-14.532-3.812-18.468-10.624a21.362 21.362 0 0 1 7.812-29.188l36.936-21.31c10.188-5.876 23.25-2.376 29.124 7.81 5.876 10.188 2.406 23.25-7.81 29.124l-36.936 21.376a21.26 21.26 0 0 1-10.658 2.812zM622.872 618.684a21.3 21.3 0 0 1-18.5-10.688c-5.876-10.188-2.376-23.25 7.812-29.124l36.938-21.31c10.218-5.906 23.25-2.406 29.156 7.81 5.906 10.188 2.406 23.25-7.812 29.124l-36.938 21.312a21.248 21.248 0 0 1-10.656 2.876z" fill="#FFCE54" /><path d="M426.66 830.486c-3.624 0-7.282-0.938-10.654-2.876-10.188-5.876-13.688-18.936-7.812-29.124l21.342-36.936c5.906-10.25 18.938-13.688 29.156-7.812 10.188 5.876 13.688 18.938 7.812 29.124L445.16 819.8a21.306 21.306 0 0 1-18.5 10.686zM576 571.84c-3.624 0-7.312-0.906-10.656-2.844-10.218-5.906-13.718-18.936-7.812-29.154l21.344-36.966c5.872-10.188 18.934-13.688 29.122-7.812 10.218 5.906 13.688 18.936 7.812 29.154l-21.312 36.968A21.408 21.408 0 0 1 576 571.84z" fill="#F6BB42" /></svg>