<?xml version="1.0" standalone="no"?><!DOCTYPE svg PUBLIC "-//W3C//DTD SVG 1.1//EN" "http://www.w3.org/Graphics/SVG/1.1/DTD/svg11.dtd"><svg class="icon" width="128px" height="128.00px" viewBox="0 0 1024 1024" version="1.1" xmlns="http://www.w3.org/2000/svg"><path d="M768.678 362.654H255.304c-11.78 0-21.328-9.546-21.328-21.328s9.546-21.328 21.328-21.328h513.374c11.75 0 21.312 9.546 21.312 21.328s-9.562 21.328-21.312 21.328zM535.296 435.682c-0.516-0.922-5.438-9.03-23.312-9.03-17.86 0-22.766 8.092-23.266 9.014 0.296-0.546 0.39-0.89 0.39-0.89l-39.436-16.248c5.282-12.828 24.36-34.532 62.312-34.532 23.828 0 39.044 8.468 47.608 15.578 9.75 8.078 13.718 16.532 14.718 18.938l-39.42 16.294s0.094 0.328 0.406 0.876z" fill="#F6BB42" /><path d="M42.688 490.65H21.344c-11.78 0-21.328-9.546-21.328-21.328s9.546-21.328 21.328-21.328h21.342c11.78 0 21.328 9.546 21.328 21.328s-9.546 21.328-21.326 21.328zM1002.67 490.65h-21.374c-11.75 0-21.312-9.546-21.312-21.328s9.562-21.328 21.312-21.328h21.374c11.75 0 21.312 9.546 21.312 21.328s-9.562 21.328-21.312 21.328z" fill="#434A54" /><path d="M48.11 452.056c-28.234 138.012 57.826 230.572 159.714 230.572 176.166 0 324.662-194.462 244.49-281.258-80.184-86.778-375.94-87.418-404.204 50.686zM975.86 452.056c28.248 138.012-57.81 230.572-159.684 230.572-176.18 0-324.66-194.462-244.49-281.258 80.186-86.778 375.926-87.418 404.174 50.686z" fill="#5D9CEC" /><path d="M659.434 630.944c31.06 21.56 66.932 38.124 105.306 46.248l118.622-316.458c-34.374-12.704-74.778-18.954-115.34-19.376l-108.588 289.586zM122.216 658.378c25.25 15.75 54.702 24.25 85.608 24.25 9.624 0 19.156-0.562 28.576-1.688l122.872-327.694a390.938 390.938 0 0 0-7.844-1.906h-114.058L122.216 658.378z" fill="#FFFFFF" opacity=".1" /><path d="M467.97 386.902c-19.592-21.216-50.514-38.654-89.386-50.404-35.686-10.796-76.53-16.5-118.09-16.5-54.638 0-106.528 10.14-146.088 28.532-48.358 22.5-78.498 56.826-87.186 99.246-14.936 72.982-1.11 140.23 38.936 189.23 34.718 42.56 86.34 66.996 141.652 66.996h0.016c127.088-0.062 235.538-91.184 273.068-176.932 23.812-54.42 19.108-105.512-12.922-140.168z m-26.172 123.074c-16.594 37.906-49.28 75.716-89.684 103.654-31.452 21.75-82.012 47.686-144.292 47.686h-0.016c-42.436 0-82.014-18.686-108.606-51.31-31.78-38.876-42.5-93.466-30.186-153.668 5.954-29.06 27.264-52.326 63.388-69.124 34.046-15.826 79.544-24.56 128.088-24.56 75.966 0 146.762 21.388 176.15 53.202 27.36 29.622 14.97 71.686 5.158 94.12zM996.794 447.776c-8.688-42.42-38.842-76.746-87.184-99.246-39.594-18.39-91.466-28.532-146.122-28.532-41.562 0-82.37 5.704-118.056 16.5-38.906 11.75-69.81 29.188-89.436 50.404-31.998 34.656-36.702 85.748-12.888 140.168 37.514 85.748 145.978 176.87 273.066 176.932 55.31 0 106.936-24.436 141.684-66.996 40.03-49 53.874-116.248 38.936-189.23z m-71.996 162.292c-26.594 32.562-66.188 51.248-108.624 51.248-62.248 0-112.838-25.936-144.304-47.686-40.376-27.938-73.062-65.748-89.686-103.654-9.812-22.436-22.188-64.498 5.186-94.122 29.376-31.812 100.186-53.202 176.12-53.202 48.562 0 94.058 8.734 128.122 24.56 36.094 16.796 57.438 40.062 63.374 69.124 12.31 60.204 1.592 114.794-30.188 153.732z" fill="#FFCE54" /></svg>