<?xml version="1.0" standalone="no"?><!DOCTYPE svg PUBLIC "-//W3C//DTD SVG 1.1//EN" "http://www.w3.org/Graphics/SVG/1.1/DTD/svg11.dtd"><svg class="icon" width="128px" height="128.00px" viewBox="0 0 1024 1024" version="1.1" xmlns="http://www.w3.org/2000/svg"><path d="M1.162 697.994h1022.824v263.022H1.162z" fill="#5D9CEC" /><path d="M726.838 584.654H297.166S185.17 62.984 512.002 62.984c326.834 0 214.836 521.67 214.836 521.67z" fill="#E2A437" /><path d="M831.992 715.648v-62.652c0-33.342-21.154-62.654-52.498-72.998l-2.156-0.656c-34.844-9.688-60.342-18.686-75.84-24.342-54.498-21-68.686-36.344-72.342-43.342 0-0.312-0.156-0.656-0.344-0.656l-0.5-66.654-232.804 2.656-0.344 64c-0.156 0-0.328 0.344-0.328 0.656-3.672 7-17.828 22.342-72.342 43.342-15.5 5.656-40.998 14.654-75.498 24.342l-2.328 0.656C213.17 590.342 192 619.654 192 652.996v62.652h639.992z" fill="#DBAFA5" /><path d="M693.342 322.35c0 117.996-112.34 231.306-181.338 231.306s-181.338-113.31-181.338-231.306c0-117.682 81.17-195.368 181.338-195.368 100.152 0 181.338 77.686 181.338 195.368z" fill="#EAC6BB" /><path d="M742.994 334.35c-8.156-98.028-38.152-198.024-119.494-244.678C600 114.326 540.66 193.98 540.66 193.98l202.334 140.37z" fill="#F6BB42" /><path d="M280.668 340.35c147.666-16.688 385.488-214.368 386.832-215.368-35.188-37.998-85.186-61.998-155.496-61.998-170.338 0-221.508 141.34-231.336 277.366z" fill="#FFCE54" /><path d="M682.656 747.648c-3.312 0-6.5-1-9.5-2.312L640 728.648l-33.188 16.688c-6 3-13 3-19 0l-33.154-16.688-33.154 16.688c-6 3-13 3-19 0l-33.17-16.688-33.17 16.688c-6 3-13 3-19 0l-33.154-16.688-33.17 16.688c-6 3-13 3-19 0l-33.17-16.688-33.17 16.688c-6 3-13 3-19 0l-33.17-16.688-33.156 16.688c-6 3-13 3-19 0L128 728.648l-33.17 16.688c-5 2.312-10.828 3-16.156 1L14.662 724.992c-11.328-3.656-17.328-15.654-13.5-26.998 3.672-10.998 15.67-16.998 26.826-13.342l55.686 18.342 34.828-17.342c6-3 13-3 19 0l33.17 16.686 33.156-16.686c6-3 13-3 19 0l33.17 16.686 33.17-16.686c6-3 13-3 19 0l33.17 16.686 33.17-16.686c6-3 13-3 19 0l33.154 16.686 33.17-16.686c6-3 13-3 19 0l33.17 16.686 33.156-16.686c5.998-3 12.998-3 18.998 0l33.154 16.686 33.188-16.686c6-3 13-3 19 0l33.156 16.686 33.184-16.686c5.998-3 12.998-3 18.998 0l33.156 16.686 33.156-16.686c6-3 13-3 18.998 0l33.186 16.686 33.156-16.686c6-3 13-3 19 0l34.844 17.342 55.496-18.342c11.344-3.656 23.344 2.344 27 13.342 3.844 11.344-2.156 23.342-13.5 26.998l-63.996 21.344c-5.344 2-11.188 1.312-16.188-1l-33.156-16.688-33.156 16.688c-6 3-13 3-18.998 0l-33.186-16.688-33.156 16.688c-6 3-13 3-19 0l-33.156-16.688-33.184 16.688c-2.998 1.312-6.154 2.312-9.496 2.312z" fill="#4A89DC" /></svg>