<?xml version="1.0" standalone="no"?><!DOCTYPE svg PUBLIC "-//W3C//DTD SVG 1.1//EN" "http://www.w3.org/Graphics/SVG/1.1/DTD/svg11.dtd"><svg class="icon" width="128px" height="128.00px" viewBox="0 0 1024 1024" version="1.1" xmlns="http://www.w3.org/2000/svg"><path d="M831.954 708.3v-59.716c0-32.998-21.216-62.248-52.748-72.654l-2.376-0.688c-34.624-9.312-46.344-18.248-61.78-24.092-54.684-20.844-68.902-35.876-72.558-42.966-0.124-0.25-0.218-0.532-0.344-0.782l-0.438-63.532-129.714-1.468-129.714 1.468-0.454 63.532c-0.11 0.25-0.218 0.532-0.344 0.782-3.64 7.092-17.876 22.124-72.56 42.966-15.422 5.844-27.14 14.78-61.78 24.092l-2.376 0.688c-31.53 10.406-52.748 39.656-52.748 72.654v59.716h639.934z" fill="#DBAFA5" /><path d="M1.108 690.896h1022.87v262.74H1.108z" fill="#5D9CEC" /><path d="M682.648 740.298c-3.282 0-6.532-0.75-9.532-2.25l-33.124-16.562-33.124 16.562a21.38 21.38 0 0 1-19.094 0l-33.124-16.562-33.108 16.562a21.376 21.376 0 0 1-19.092 0l-33.124-16.562-33.124 16.562c-6 3-13.078 3-19.078 0L384 721.486l-33.124 16.562c-6 3-13.078 3-19.078 0l-33.124-16.562-33.124 16.562a21.346 21.346 0 0 1-19.078 0l-33.124-16.562-33.14 16.562c-6 3-13.062 3-19.078 0l-33.124-16.562-33.124 16.562a21.344 21.344 0 0 1-16.28 1.156L14.608 717.862c-11.172-3.718-17.218-15.78-13.484-26.964 3.718-11.188 15.796-17.218 26.966-13.5l55.624 18.53 34.764-17.374c6-3 13.062-3 19.078 0l33.124 16.562 33.124-16.562c6-3 13.078-3 19.078 0l33.124 16.562 33.124-16.562c6.016-3 13.078-3 19.078 0l33.124 16.562 33.124-16.562c6.016-3 13.078-3 19.092 0l33.124 16.562 33.124-16.562c6-3 13.078-3 19.078 0l33.124 16.562 33.124-16.562c5.998-3 13.06-3 19.06 0l33.124 16.562 33.124-16.562a21.38 21.38 0 0 1 19.094 0l33.124 16.562 33.122-16.562c5.998-3 13.06-3 19.092 0l33.124 16.562 33.124-16.562c6-3 13.062-3 19.06 0l33.124 16.562 33.124-16.562a21.38 21.38 0 0 1 19.094 0l34.75 17.374 55.622-18.53c11.188-3.718 23.25 2.312 27 13.5 3.718 11.186-2.344 23.246-13.5 26.964l-63.996 21.344a21.344 21.344 0 0 1-16.282-1.156l-33.124-16.562-33.124 16.562a21.376 21.376 0 0 1-19.092 0l-33.124-16.562-33.124 16.562c-6 3-13.062 3-19.094 0l-33.124-16.562-33.122 16.562a21.28 21.28 0 0 1-9.53 2.248z" fill="#4A89DC" /><path d="M691.99 320.938c0 116.934-111.496 224.588-179.994 224.588s-179.994-107.654-179.994-224.588c0-116.962 80.592-194.118 179.994-194.118s179.994 77.154 179.994 194.118z" fill="#EAC6BB" /><path d="M604.898 136.946s-3.5-31.124 33.75-53.53c15.782-9.468-236.492-54.436-299.818 104.996-23.78 59.872-6.204 148.026-6.204 148.026l54.842-98.308s59.764 13.936 124.528 13.936c64.748 0 126.682-13.936 126.682-13.936l53.31 83.09s20.466-79.778-2.468-132.65c-22.934-52.844-84.622-51.624-84.622-51.624z" fill="#965353" /></svg>