<?xml version="1.0" standalone="no"?><!DOCTYPE svg PUBLIC "-//W3C//DTD SVG 1.1//EN" "http://www.w3.org/Graphics/SVG/1.1/DTD/svg11.dtd"><svg class="icon" width="128px" height="128.00px" viewBox="0 0 1024 1024" version="1.1" xmlns="http://www.w3.org/2000/svg"><path d="M492.984 412.038a21.338 21.338 0 0 0-18.25-5.624l-105.168 17.594a21.232 21.232 0 0 0-11.906 6.31L48.718 753.932a21.338 21.338 0 0 0 0.704 30.156l92.482 88.278a21.152 21.152 0 0 0 14.734 5.906c5.624 0 11.234-2.218 15.422-6.594L481 548.064a21.374 21.374 0 0 0 5.75-12.188l12.672-105.874a21.246 21.246 0 0 0-6.438-17.964z" fill="#CCD1D9" /><path d="M366.302 535.69c0.282 11.75-9.046 21.532-20.828 21.812-11.782 0.282-21.546-9.062-21.828-20.844-0.266-11.782 9.062-21.532 20.844-21.812 11.78-0.282 21.546 9.062 21.812 20.844zM367.708 596c0.282 11.782-9.046 21.532-20.828 21.812-11.782 0.282-21.546-9.062-21.828-20.812-0.266-11.782 9.062-21.562 20.828-21.844 11.782-0.25 21.546 9.062 21.828 20.844zM307.382 597.406c0.282 11.782-9.046 21.532-20.828 21.812-11.78 0.282-21.546-9.062-21.812-20.844-0.282-11.782 9.046-21.532 20.828-21.812 11.78-0.28 21.546 9.062 21.812 20.844zM308.788 657.716c0.282 11.782-9.046 21.562-20.828 21.812-11.78 0.282-21.546-9.032-21.828-20.812-0.266-11.782 9.062-21.56 20.828-21.842 11.782-0.25 21.562 9.062 21.828 20.842zM248.462 659.124c0.282 11.782-9.046 21.532-20.828 21.812s-21.546-9.062-21.812-20.812c-0.282-11.782 9.046-21.56 20.828-21.842s21.546 9.06 21.812 20.842zM249.868 719.432c0.282 11.782-9.046 21.562-20.826 21.812-11.782 0.282-21.546-9.032-21.828-20.812-0.266-11.78 9.062-21.56 20.842-21.81 11.766-0.282 21.546 9.03 21.812 20.81z" fill="#AAB2BC" /><path d="M981.734 752.12C876.768 441.036 819.176 289.228 769.24 191.982c-57.28-111.622-105.432-147.528-164.556-169.306-9.562-3.532-20.312 0.218-25.624 8.998-0.812 1.376-20.688 34.594-32.998 84.78-16.468 66.874-11.812 132.838 13.436 190.744 42.748 98.09 108.624 264.866 130.778 321.272l-30.216 12.812c-9.438 4-14.688 14.186-12.5 24.216l30.624 139.056c2.188 9.906 10.998 16.748 20.81 16.748 1.124 0 2.218-0.094 3.312-0.25l262.49-41.028a21.21 21.21 0 0 0 14.938-10.032 21.408 21.408 0 0 0 2-17.872z" fill="#E6E9ED" /><path d="M874.612 703.964H149.372c-82.358 0-149.354 66.998-149.354 149.338 0 82.342 66.998 149.34 149.354 149.34h725.24c82.374 0 149.372-66.998 149.372-149.34-0.002-82.34-67-149.338-149.372-149.338z" fill="#ED5564" /><path d="M874.612 981.298H149.372c-78.78 0-143.48-61.278-148.964-138.684a142.274 142.274 0 0 0-0.39 10.688c0 82.342 66.998 149.34 149.354 149.34h725.24c82.374 0 149.372-66.998 149.372-149.34 0-3.594-0.124-7.156-0.376-10.688-5.5 77.408-70.186 138.684-148.996 138.684z" fill="#080808" opacity=".1" /><path d="M874.798 874.802h-85.652c-11.782 0-21.344-9.532-21.344-21.312 0-11.812 9.562-21.344 21.344-21.344h85.652a21.314 21.314 0 0 1 21.344 21.344c0 11.782-9.53 21.312-21.344 21.312z" fill="#CCD1D9" /><path d="M831.988 917.646c-11.812 0-21.342-9.562-21.342-21.344v-85.654c0-11.782 9.53-21.344 21.342-21.344 11.75 0 21.31 9.562 21.31 21.344v85.654c0 11.782-9.56 21.344-21.31 21.344z" fill="#E6E9ED" /><path d="M185.776 838.208c8.328 8.344 8.328 21.844 0 30.188-8.328 8.312-21.842 8.312-30.17 0-8.328-8.344-8.328-21.844 0-30.188 8.328-8.312 21.844-8.312 30.17 0z" fill="#434A54" /><path d="M835.926 485.504c-8.562 0-16.656-5.218-19.906-13.688l-57.716-150.09c-4.25-10.966 1.25-23.31 12.25-27.56a21.336 21.336 0 0 1 27.562 12.25l57.714 150.088c4.218 11-1.25 23.344-12.248 27.562a21.27 21.27 0 0 1-7.656 1.438z" fill="#CCD1D9" /></svg>