<?xml version="1.0" standalone="no"?><!DOCTYPE svg PUBLIC "-//W3C//DTD SVG 1.1//EN" "http://www.w3.org/Graphics/SVG/1.1/DTD/svg11.dtd"><svg class="icon" width="128px" height="128.00px" viewBox="0 0 1024 1024" version="1.1" xmlns="http://www.w3.org/2000/svg"><path d="M337.381801 766.207933l-22.04392 2.370121c-2.166454 0.249591-53.939716 5.924304-117.1862 26.688319-86.396593 28.311662-149.830769 69.434355-188.555387 122.253904-7.497728 10.195313-8.3703 23.415675-2.338174 35.29623 8.589941 16.960241 29.68142 29.276083 50.151916 29.276084 11.862584 0 22.527129-4.085313 30.835531-11.784712 56.713176-52.506062 151.030805-90.358109 234.683888-94.191835l21.700483-0.998366-7.248137-108.909745z" fill="#ED5564" /><path d="M1019.71701 258.89626c-5.333271-102.51621-29.715364-176.129725-30.741684-179.186722L962.969889 2.324196l-15.0913 80.19075c-14.466323 76.762362-49.854402 137.375156-105.133925 180.121193-41.655821 32.207286-79.755463 41.811566-80.06895 41.873464l-15.963871 3.833726-0.343438 16.431107c-1.401706 63.791591-24.47594 126.554865-68.623682 186.542682-36.136854 49.075677-86.304743 96.40621-149.083992 140.709697-108.188925 76.327074-217.378213 117.357918-218.452455 117.733304l12.721179 106.351932c293.082307-13.438006 497.521697-101.707533 607.551609-262.370573 36.604089-53.44253 62.451784-114.925899 76.796306-182.708957 11.379375-53.87582 15.556538-111.775056 12.43964-172.136261z" fill="#CCD1D9" /><path d="M1019.71701 258.89626c-5.333271-102.51621-29.715364-176.129725-30.741684-179.186722L962.969889 2.324196l-15.0913 80.19075c-0.061899 0.375386-0.155745 0.748774-0.249591 1.122164 5.239425 16.774545 24.819378 84.743299 29.495724 175.257153 3.146849 60.361206-1.060265 118.262438-12.409689 172.138258-14.344522 67.783058-40.192217 129.266427-76.828254 182.708957-104.630749 152.841841-294.697663 240.142954-565.268814 259.848701l0.31149 2.525865c293.082307-13.438006 497.521697-101.707533 607.551609-262.370573 36.604089-53.44253 62.451784-114.925899 76.796306-182.708957 11.379375-53.879814 15.556538-111.779049 12.43964-172.140254z" fill="#FFFFFF" opacity=".3" /><path d="M135.186737 935.167394a382.008759 382.008759 0 0 1 37.476662-20.234881l-45.411674-91.042988c-13.188414 6.485385-25.598103 13.406058-37.213093 20.764015l45.148105 90.513854zM190.77775 797.698392l19.034846 101.831331a422.165035 422.165035 0 0 1 40.968945-12.503535l-19.018871-101.797387a618.737301 618.737301 0 0 0-33.610989 10.037572c-2.477944 0.810673-4.925938 1.623343-7.373931 2.432019z" fill="#DA4453" /><path d="M320.062148 717.102305l-0.093846 0.031948c-2.961153-8.106732-10.740421-13.935192-19.907417-13.935192-11.690865 0-21.185326 9.508437-21.185326 21.171348 0 2.555817 0.467235 4.987836 1.293882 7.264111l-0.093846 0.031948c25.707923 70.590463 31.989642 127.958568 18.643486 170.486961-10.383006 33.173704-32.674521 56.371735-66.269536 69.031015-33.501168 12.595385-77.698829 13.529855-118.216512 2.493918a185.716035 185.716035 0 0 1-21.636587-7.296058c-1.465601 1.309856-2.931202 2.619712-4.348882 3.929568-8.310398 7.699398-18.972947 11.784712-30.835531 11.784712-13.953163 0-28.185868-5.736611-38.568874-14.747862 17.756937 20.422574 47.408406 37.382815 84.184214 47.422383 22.650927 6.173895 45.926831 9.228895 68.561784 9.228895 26.921936 0 52.94135-4.364856 75.857842-12.97077 45.81701-17.271731 77.604982-50.50933 91.899586-96.154622 16.197489-51.667435 9.712104-118.204532-19.284437-197.772303z" fill="#FFCE54" /></svg>