<?xml version="1.0" standalone="no"?><!DOCTYPE svg PUBLIC "-//W3C//DTD SVG 1.1//EN" "http://www.w3.org/Graphics/SVG/1.1/DTD/svg11.dtd"><svg class="icon" width="128px" height="128.00px" viewBox="0 0 1024 1024" version="1.1" xmlns="http://www.w3.org/2000/svg"><path d="M524.05 231.392c-7.484 22.344 4.562 46.532 26.89 54l80.936 27.124c22.312 7.5 46.498-4.53 53.998-26.874l67.782-202.278c7.5-22.342-4.532-46.53-26.906-54.03L645.876 2.24c-22.376-7.5-46.56 4.532-54.03 26.876l-67.796 202.276z" fill="#E6E9ED" /><path d="M563.128 181.862c3.75-11.156-2.25-23.25-13.438-27l-13.546 40.466c11.172 3.72 23.234-2.31 26.984-13.466z" fill="#CCD1D9" /><path d="M753.75 15.896c-11.156-3.75-23.25 2.282-27 13.438L415.944 956.802l40.452 13.562L767.218 42.896c3.72-11.156-2.28-23.25-13.468-27z" fill="#5D9CEC" /><path d="M590.254 100.958c3.75-11.156-2.282-23.25-13.438-27l-13.562 40.436c11.188 3.75 23.25-2.28 27-13.436z" fill="#CCD1D9" /><path d="M620.284 1023.99H317.742L255.68 469.326h426.664z" fill="#AC92EB" /><path d="M362.866 572.808c-1.204-10.656-10.218-18.938-21.188-18.938-11.782 0-21.342 9.562-21.342 21.344 0 1.438 0.156 2.812 0.422 4.188l49.75 444.588h42.92l-50.562-451.182z" fill="#967ADC" /></svg>