<?xml version="1.0" standalone="no"?><!DOCTYPE svg PUBLIC "-//W3C//DTD SVG 1.1//EN" "http://www.w3.org/Graphics/SVG/1.1/DTD/svg11.dtd"><svg class="icon" width="128px" height="128.00px" viewBox="0 0 1024 1024" version="1.1" xmlns="http://www.w3.org/2000/svg"><path d="M1023.812 106.662c0-58.906-47.688-106.654-106.624-106.654H106.842C47.968 0.008 0.218 47.758 0.218 106.632l-0.032 0.032V831.4l1023.624 43.31V106.662h0.002z" fill="#FFCE54" /><path d="M874.564 725.434v-0.156H106.81c-58.874 0-106.624 47.75-106.624 106.624v170.624c0 11.782 9.562 21.312 21.344 21.312h846.096c2.312 0.124 4.624 0.156 6.938 0.156 82.436 0 149.248-66.812 149.248-149.282 0-82.436-66.812-149.278-149.248-149.278z" fill="#F6BB42" /><path d="M874.564 810.588H106.654c-11.782 0-21.342 9.532-21.342 21.312s9.56 21.342 21.342 21.342c0.062 0 0.094-0.032 0.156-0.032v0.032H874.564c11.75 0 21.312 9.562 21.312 21.312s-9.562 21.344-21.312 21.344H0.188v42.624h874.376c35.31 0 63.998-28.624 63.998-63.968 0-35.342-28.686-63.966-63.998-63.966z" fill="#EAA936" /></svg>