<?xml version="1.0" standalone="no"?><!DOCTYPE svg PUBLIC "-//W3C//DTD SVG 1.1//EN" "http://www.w3.org/Graphics/SVG/1.1/DTD/svg11.dtd"><svg class="icon" width="128px" height="128.00px" viewBox="0 0 1024 1024" version="1.1" xmlns="http://www.w3.org/2000/svg"><path d="M948.034 444.856l75.514-114.146s9.558-283.756-170.546-298.434H170.968C-9.134 46.954 0.422 330.708 0.422 330.708L76.28 443.76 0.328 650.442 85.586 991.6l852.796 0.124 85.29-341.19-75.638-205.678z" fill="#A85D5D" /><path d="M1.514 332.302C6.7 253.134 33.87 86.084 170.968 74.874H853c137.102 11.212 164.3 178.324 169.456 257.46l1.092-1.624s9.558-283.756-170.546-298.434H170.968C-9.134 46.954 0.422 330.708 0.422 330.708l1.092 1.594z" fill="#FFFFFF" opacity=".2" /><path d="M1023.672 650.536L0.328 650.442l75.952-206.68 871.754 1.094z" fill="#723F3F" /><path d="M948.034 444.856l-871.754-1.094L0.422 330.708h1023.124z" fill="#8C4C4C" /><path d="M533.298 820.958c0 11.774-9.556 21.33-21.298 21.33-11.774 0-21.33-9.556-21.33-21.33 0-11.776 9.556-21.298 21.33-21.298 11.742 0 21.298 9.524 21.298 21.298z"  /><path d="M340.83 590.418c-24.516 0-48.158-5.402-64.896-14.802-12.774-7.182-20.362-16.084-20.362-23.828 0-15.74 33.23-38.63 85.258-38.63 24.514 0 48.188 5.402 64.926 14.834 12.742 7.15 20.362 16.052 20.362 23.796 0 15.77-33.23 38.63-85.288 38.63zM511.376 590.418c-24.516 0-48.158-5.402-64.928-14.802-12.742-7.182-20.33-16.084-20.33-23.828 0-15.74 33.198-38.63 85.258-38.63 24.514 0 48.156 5.402 64.926 14.834 12.742 7.15 20.33 16.052 20.33 23.796 0 15.77-33.194 38.63-85.256 38.63z" fill="#FFCE54" /><path d="M681.922 590.418c-24.516 0-48.188-5.402-64.926-14.802-12.742-7.182-20.364-16.084-20.364-23.828 0-15.74 33.23-38.63 85.29-38.63 24.516 0 48.156 5.402 64.896 14.834 12.742 7.15 20.362 16.052 20.362 23.796 0 15.77-33.226 38.63-85.258 38.63zM426.118 530.458c-24.516 0-48.188-5.372-64.928-14.802-12.742-7.184-20.362-16.052-20.362-23.798 0-15.77 33.228-38.664 85.29-38.664 24.484 0 48.156 5.434 64.896 14.834 12.742 7.152 20.362 16.084 20.362 23.83 0 15.738-33.23 38.6-85.258 38.6z" fill="#FFCE54" /><path d="M596.632 530.458c-24.484 0-48.156-5.372-64.894-14.802-12.742-7.184-20.362-16.052-20.362-23.798 0-15.77 33.23-38.664 85.256-38.664 24.516 0 48.188 5.434 64.928 14.834 12.742 7.152 20.362 16.084 20.362 23.83 0 15.738-33.226 38.6-85.29 38.6z" fill="#FFCE54" /><path d="M511.376 470.526c-24.516 0-48.158-5.404-64.928-14.834-12.742-7.15-20.33-16.052-20.33-23.796 0-15.74 33.198-38.63 85.258-38.63 24.514 0 48.156 5.402 64.926 14.834 12.742 7.152 20.33 16.052 20.33 23.796 0 15.738-33.194 38.63-85.256 38.63zM183.586 650.536h145.032c8.306-6.246 12.834-13.022 12.834-18.83 0-7.746-7.62-16.616-20.362-23.798-16.74-9.43-40.412-14.802-64.926-14.802-52.03 0-85.258 22.862-85.258 38.602 0 6.056 4.622 12.768 12.68 18.828z" fill="#FFCE54" /><path d="M354.132 650.536h145.032c8.306-6.246 12.804-13.022 12.804-18.83 0-7.746-7.588-16.616-20.33-23.798-16.74-9.43-40.412-14.802-64.928-14.802-52.06 0-85.258 22.862-85.258 38.602 0.002 6.056 4.624 12.768 12.68 18.828z" fill="#FFCE54" /><path d="M413.5 650.536h192.534v197.5H413.5z" fill="#CCD1D9" /><path d="M524.648 650.536h145.032c8.308-6.246 12.836-13.022 12.836-18.83 0-7.746-7.59-16.616-20.33-23.798-16.772-9.43-40.412-14.802-64.928-14.802-52.058 0-85.29 22.862-85.29 38.602 0 6.056 4.654 12.768 12.68 18.828zM695.196 650.536h145.032c8.308-6.246 12.836-13.022 12.836-18.83 0-7.746-7.62-16.616-20.362-23.798-16.74-9.43-40.412-14.802-64.896-14.802-52.058 0-85.29 22.862-85.29 38.602 0 6.056 4.62 12.768 12.68 18.828z" fill="#FFCE54" /><path d="M868.99 650.536c3.466-5.902 5.404-12.242 5.404-18.83 0-30.358-40.196-55.464-92.316-59.4 4.152-6.372 6.434-13.304 6.434-20.518 0-29.014-36.664-53.186-85.32-58.744 0-0.406 0.032-0.812 0.032-1.186 0-29.044-36.632-53.216-85.32-58.774 0.032-0.376 0.062-0.782 0.062-1.188 0-33.104-47.72-59.96-106.588-59.96-58.87 0-106.588 26.858-106.588 59.96 0 0.406 0.032 0.812 0.062 1.188-48.688 5.558-85.322 29.73-85.322 58.774 0 0.376 0.032 0.78 0.032 1.186-48.656 5.558-85.32 29.73-85.32 58.744 0 7.244 2.28 14.208 6.496 20.642-51.56 4.186-91.16 29.136-91.16 59.276 0 6.588 1.936 12.928 5.402 18.83h714.01z m-394.684-10.212c-13.21 5.622-30.106 8.712-47.594 8.712s-34.384-3.092-47.564-8.712c-7.308-3.124-11.868-6.308-14.396-8.62 2.53-2.248 7.088-5.466 14.396-8.556 13.18-5.624 30.076-8.746 47.564-8.746 17.49 0 34.384 3.124 47.594 8.746 7.276 3.09 11.836 6.308 14.398 8.556-2.562 2.312-7.122 5.498-14.398 8.62z m-10.524-79.948c-7.276-3.092-11.836-6.308-14.398-8.588 0.594-0.532 1.312-1.094 2.124-1.716 18.644-2.562 35.352-7.872 48.688-15.18a165.54 165.54 0 0 1 11.18-0.406c3.748 0 7.496 0.156 11.148 0.406 13.368 7.308 30.076 12.618 48.718 15.18 0.812 0.624 1.532 1.186 2.124 1.716-2.56 2.28-7.122 5.496-14.398 8.588-13.208 5.622-30.106 8.744-47.592 8.744-17.49 0-34.384-3.124-47.594-8.744z m181.038 79.948c-13.178 5.622-30.074 8.712-47.562 8.712s-34.382-3.092-47.594-8.712c-7.278-3.124-11.836-6.308-14.398-8.62 2.562-2.248 7.122-5.466 14.398-8.556 13.21-5.624 30.106-8.746 47.594-8.746s34.384 3.124 47.562 8.746c7.308 3.09 11.868 6.308 14.398 8.556-2.53 2.312-7.09 5.498-14.398 8.62z m170.548-17.176c7.308 3.09 11.87 6.308 14.398 8.556-2.53 2.31-7.09 5.496-14.398 8.62-13.178 5.622-30.106 8.712-47.562 8.712-17.488 0-34.382-3.092-47.594-8.712-7.308-3.124-11.868-6.308-14.398-8.62 2.532-2.248 7.09-5.466 14.398-8.556 13.21-5.624 30.106-8.746 47.594-8.746 17.456 0 34.384 3.124 47.562 8.746z m-133.446-88.664c17.488 0 34.384 3.094 47.564 8.714 7.306 3.124 11.868 6.308 14.396 8.588-2.53 2.28-7.09 5.496-14.396 8.588-13.18 5.622-30.076 8.744-47.564 8.744s-34.382-3.124-47.594-8.744c-7.308-3.092-11.868-6.308-14.396-8.588 0.592-0.532 1.31-1.094 2.124-1.716 18.644-2.562 35.352-7.872 48.688-15.18a164.72 164.72 0 0 1 11.178-0.406z m-85.29-59.96c17.488 0 34.384 3.092 47.596 8.712 7.306 3.124 11.868 6.308 14.396 8.62-0.594 0.5-1.312 1.092-2.124 1.718-18.644 2.56-35.354 7.9-48.69 15.146-3.684 0.282-7.4 0.438-11.18 0.438-3.746 0-7.462-0.156-11.148-0.438-13.368-7.246-30.074-12.586-48.718-15.146-0.812-0.624-1.5-1.218-2.094-1.718a27.3 27.3 0 0 1 2.094-1.75c18.644-2.56 35.352-7.87 48.718-15.146a146.55 146.55 0 0 1 11.15-0.436z m-132.85-51.218c13.21-5.622 30.106-8.712 47.594-8.712s34.384 3.092 47.592 8.712c7.278 3.092 11.838 6.308 14.398 8.588-0.594 0.532-1.312 1.124-2.124 1.75-18.642 2.562-35.352 7.87-48.718 15.116-3.652 0.312-7.4 0.436-11.148 0.436a132.84 132.84 0 0 1-11.18-0.436c-13.334-7.246-30.042-12.554-48.688-15.116a37.206 37.206 0 0 1-2.124-1.75c2.562-2.278 7.12-5.496 14.398-8.588z m-85.258 59.93c13.21-5.622 30.106-8.712 47.594-8.712 3.748 0 7.464 0.156 11.148 0.438 13.368 7.278 30.076 12.586 48.718 15.146 0.812 0.624 1.5 1.188 2.092 1.75-0.594 0.5-1.28 1.092-2.092 1.718-18.644 2.56-35.382 7.9-48.718 15.146a146.032 146.032 0 0 1-11.148 0.438c-3.78 0-7.496-0.156-11.18-0.438-13.334-7.246-30.042-12.586-48.688-15.146a60.868 60.868 0 0 1-2.124-1.718c2.53-2.314 7.09-5.498 14.398-8.622zM293.266 543.2c13.178-5.622 30.074-8.714 47.564-8.714 3.778 0 7.496 0.156 11.18 0.406 13.334 7.308 30.042 12.618 48.688 15.18 0.812 0.624 1.53 1.186 2.124 1.716-2.56 2.28-7.088 5.496-14.398 8.588-13.21 5.622-30.106 8.744-47.594 8.744-17.49 0-34.384-3.124-47.564-8.744-7.308-3.092-11.868-6.308-14.398-8.588 2.53-2.28 7.09-5.466 14.398-8.588zM208.6 623.148c13.18-5.624 30.106-8.746 47.564-8.746 17.49 0 34.384 3.124 47.594 8.746 7.308 3.09 11.868 6.308 14.396 8.556-2.53 2.31-7.088 5.496-14.396 8.62-13.21 5.622-30.106 8.712-47.594 8.712s-34.384-3.092-47.564-8.712c-7.308-3.124-11.868-6.308-14.396-8.62 2.53-2.246 7.088-5.466 14.396-8.556z" fill="#F6BB42" /><path d="M490.046 767.554h42.662v53.404h-42.662z" fill="#AAB2BC" /><path d="M542.2 740.292c0 16.896-13.71 30.574-30.574 30.574-16.896 0-30.606-13.678-30.606-30.574 0-16.894 13.71-30.574 30.606-30.574 16.862-0.002 30.574 13.678 30.574 30.574z" fill="#434A54" /><path d="M639.262 330.708s0.032-0.032 0.032-0.062v-85.258c0-11.742-9.554-21.298-21.328-21.298H404.788c-11.774 0-21.33 9.556-21.33 21.298v85.32h255.804z" fill="#CCD1D9" /><path d="M426.118 330.708v-63.99h170.514v63.99h42.628c0-43.596 0.032-85.32 0.032-85.32 0-11.742-9.554-21.298-21.328-21.298H404.788c-11.774 0-21.33 9.556-21.33 21.298v85.32h42.66zM110.632 650.442l75.484 341.188h43.658L154.324 650.442zM868.646 650.504l-75.544 341.22h43.66l75.544-341.22zM596.632 650.504v191.786h-170.514v-191.816h-42.66V863.62c0 11.742 9.556 21.298 21.33 21.298h213.176c11.774 0 21.328-9.556 21.328-21.298V650.504h-42.66z" fill="#AAB2BC" /><path d="M512 671.742c-35.322 0-63.958 28.636-63.958 63.958 0 35.32 28.638 63.958 63.958 63.958 35.29 0 63.928-28.638 63.928-63.958 0-35.322-28.638-63.958-63.928-63.958z m0 85.258c-11.774 0-21.33-9.556-21.33-21.298 0-11.744 9.556-21.33 21.33-21.33 11.742 0 21.298 9.586 21.298 21.33 0 11.742-9.556 21.298-21.298 21.298z" fill="#AAB2BC" /><path d="M0.328 650.442l15.646-42.66h991.96l15.738 42.66z" opacity=".1" /></svg>