<?xml version="1.0" standalone="no"?><!DOCTYPE svg PUBLIC "-//W3C//DTD SVG 1.1//EN" "http://www.w3.org/Graphics/SVG/1.1/DTD/svg11.dtd"><svg class="icon" width="128px" height="128.00px" viewBox="0 0 1024 1024" version="1.1" xmlns="http://www.w3.org/2000/svg"><path d="M904.57 140.738L776.652 12.82 764.16 0.328H106.938V1023.672H917.062V153.23z" fill="#E6E9ED" /><path d="M106.938 725.208h810.124v298.464H106.938z" fill="#5D9CEC" /><path d="M764.16 0.328v152.902h152.902z" fill="#CCD1D9" /><path d="M680.71 426.554c0 116.77-140.332 213.208-170.75 213.208-30.45 0-170.766-96.438-170.766-213.208 0-116.738 76.45-170.546 170.766-170.546 94.302 0 170.75 53.808 170.75 170.546z" fill="#EAC6BB" /><path d="M480.45 440.732c0 11.774-9.556 21.298-21.33 21.298s-21.298-9.524-21.298-21.298 9.526-21.33 21.298-21.33 21.33 9.556 21.33 21.33zM587.024 440.732a21.266 21.266 0 0 1-21.3 21.298c-11.742 0-21.296-9.524-21.296-21.298s9.554-21.33 21.296-21.33c11.804 0 21.3 9.556 21.3 21.33z" fill="#434A54" /><path d="M828.368 305.726c-20.176-20.112-205.18 9.15-315.938 9.15-110.772 0-295.78-29.262-315.954-9.15-20.674 20.612 35.852 142.16 315.954 142.16 280.086-0.002 336.612-121.548 315.938-142.16z" fill="#4A89DC" /><path d="M574.718 128.588c-29.98 5.716-54.168 46.314-62.29 46.314-8.12 0-32.324-40.598-62.272-46.314-37.85-7.214-110.96 226.074-110.96 226.074s78.886 26.702 173.232 26.702c94.33 0 173.216-26.702 173.216-26.702S612.566 121.376 574.718 128.588z" fill="#5D9CEC" /><path d="M509.962 639.762c19.112 0 81.558-38.04 125.406-95.252L510.336 512l-125.794 32.448c43.816 57.244 106.276 95.314 125.42 95.314z" fill="#4A89DC" /><path d="M299.222 789.166c-35.352 0-63.958 28.638-63.958 63.958v42.628c0 35.354 28.606 63.958 63.958 63.958 35.322 0 63.958-28.606 63.958-63.958v-42.628c0-35.32-28.638-63.958-63.958-63.958z m21.298 106.588c0 11.774-9.556 21.33-21.298 21.33-11.774 0-21.33-9.556-21.33-21.33v-42.628c0-11.742 9.556-21.33 21.33-21.33 11.742 0 21.298 9.588 21.298 21.33v42.628zM491.254 789.166c-35.322 0-63.958 28.638-63.958 63.958v42.628c0 35.354 28.638 63.958 63.958 63.958 35.324 0 63.976-28.606 63.976-63.958v-42.628c0-35.32-28.652-63.958-63.976-63.958z m21.33 106.588c0 11.774-9.588 21.33-21.33 21.33-11.774 0-21.33-9.556-21.33-21.33v-42.628c0-11.742 9.556-21.33 21.33-21.33 11.742 0 21.33 9.588 21.33 21.33v42.628zM640.488 789.166c-35.352 0-63.96 28.638-63.96 63.958v42.628c0 35.354 28.61 63.958 63.96 63.958s63.958-28.606 63.958-63.958v-42.628c0-35.32-28.606-63.958-63.958-63.958z m21.298 106.588c0 11.774-9.554 21.33-21.296 21.33s-21.3-9.556-21.3-21.33v-42.628c0-11.742 9.558-21.33 21.3-21.33s21.296 9.588 21.296 21.33v42.628zM789.704 789.166c-35.29 0-63.958 28.638-63.958 63.958v42.628c0 35.354 28.668 63.958 63.958 63.958 35.356 0 63.96-28.606 63.96-63.958v-42.628c0-35.32-28.606-63.958-63.96-63.958z m21.362 106.588c0 11.774-9.558 21.33-21.364 21.33-11.742 0-21.296-9.556-21.296-21.33v-42.628c0-11.742 9.554-21.33 21.296-21.33 11.804 0 21.364 9.588 21.364 21.33v42.628zM192.384 789.166c-11.774 0-21.298 9.556-21.298 21.33v127.918c0 11.774 9.526 21.298 21.298 21.298s21.33-9.526 21.33-21.298v-127.918c0-11.774-9.556-21.33-21.33-21.33zM395.222 917.084c-11.774 0-21.298 9.556-21.298 21.33s9.526 21.298 21.298 21.298 21.33-9.526 21.33-21.298-9.556-21.33-21.33-21.33z" fill="#434A54" /></svg>