<?xml version="1.0" standalone="no"?><!DOCTYPE svg PUBLIC "-//W3C//DTD SVG 1.1//EN" "http://www.w3.org/Graphics/SVG/1.1/DTD/svg11.dtd"><svg class="icon" width="128px" height="128.00px" viewBox="0 0 1024 1024" version="1.1" xmlns="http://www.w3.org/2000/svg"><path d="M490.67 24.874h42.66v974.22h-42.66z" fill="#723F3F" /><path d="M737.106 944.504L249.98 100.794l36.914-21.33L774.02 923.174z" fill="#723F3F" /><path d="M923.208 774.02L79.464 286.894l21.362-36.944 843.678 487.124z" fill="#723F3F" /><path d="M24.876 490.67h974.25v42.628H24.876z" fill="#723F3F" /><path d="M100.794 774.02l-21.33-36.946 843.744-487.124 21.296 36.944z" fill="#723F3F" /><path d="M286.894 944.504l-36.914-21.33L737.106 79.464l36.914 21.33z" fill="#723F3F" /><path d="M512 0.328C229.432 0.328 0.328 229.4 0.328 512 0.328 794.568 229.432 1023.672 512 1023.672c282.602 0 511.672-229.104 511.672-511.672C1023.672 229.4 794.602 0.328 512 0.328z m331.664 843.302c-43.098 43.098-93.254 76.92-149.124 100.53-57.776 24.454-119.204 36.852-182.54 36.852-63.334 0-124.764-12.398-182.57-36.852-55.838-23.61-105.996-57.432-149.092-100.53-43.098-43.066-76.888-93.252-100.53-149.092-24.454-57.806-36.82-119.206-36.82-182.54 0-63.366 12.368-124.764 36.82-182.57 23.64-55.84 57.432-106.026 100.53-149.092 43.096-43.096 93.252-76.918 149.092-100.56 57.806-24.422 119.236-36.82 182.57-36.82 63.336 0 124.764 12.398 182.54 36.82 55.872 23.642 106.028 57.464 149.124 100.56 43.098 43.066 76.918 93.252 100.528 149.092 24.454 57.806 36.852 119.206 36.852 182.57 0 63.334-12.398 124.732-36.852 182.54-23.61 55.84-57.43 106.026-100.528 149.092z" fill="#A85D5D" /><path d="M618.588 512c0 58.868-47.718 106.588-106.588 106.588-58.868 0-106.62-47.72-106.62-106.588 0-58.9 47.75-106.62 106.62-106.62 58.87 0 106.588 47.72 106.588 106.62z" fill="#A85D5D" /><path d="M533.33 512c0 11.742-9.556 21.298-21.33 21.298s-21.33-9.556-21.33-21.298c0-11.804 9.556-21.33 21.33-21.33s21.33 9.526 21.33 21.33z" fill="#434A54" /></svg>