<?xml version="1.0" standalone="no"?><!DOCTYPE svg PUBLIC "-//W3C//DTD SVG 1.1//EN" "http://www.w3.org/Graphics/SVG/1.1/DTD/svg11.dtd"><svg class="icon" width="128px" height="128.00px" viewBox="0 0 1024 1024" version="1.1" xmlns="http://www.w3.org/2000/svg"><path d="M895.922 0.118H128.112a21.324 21.324 0 0 0-21.338 21.338v981.088c0 11.81 9.53 21.34 21.338 21.34h767.81c11.808 0 21.304-9.53 21.304-21.34V21.456c0-11.78-9.496-21.338-21.304-21.338zM874.614 42.78v170.632H149.418V42.78h725.196zM149.418 490.66V256.058h725.194V490.66H149.418z m725.196 42.678v234.604H149.418V533.338h725.196zM149.418 981.236v-170.648h725.194v170.648H149.418z" fill="#656D78" /><path d="M277.39 170.75c0-23.528-19.122-42.662-42.646-42.662-23.526 0-42.646 19.134-42.646 42.662v127.956c0 23.526 19.12 42.678 42.646 42.678s42.646-19.152 42.646-42.678V170.75zM810.628 170.75c0-23.528-19.184-42.662-42.68-42.662s-42.676 19.134-42.676 42.662v127.956c0 23.526 19.18 42.678 42.676 42.678s42.68-19.152 42.68-42.678V170.75zM384.052 170.75c0-23.528-19.152-42.662-42.678-42.662-23.526 0-42.646 19.134-42.646 42.662v127.956c0 23.526 19.12 42.678 42.646 42.678s42.678-19.152 42.678-42.678V170.75zM490.684 170.75c0-23.528-19.152-42.662-42.646-42.662-23.526 0-42.678 19.134-42.678 42.662v127.956c0 23.526 19.152 42.678 42.678 42.678 23.494 0 42.646-19.152 42.646-42.678V170.75z" fill="#ED5564" /><path d="M277.39 448.014c0-23.526-19.122-42.646-42.646-42.646-23.526 0-42.646 19.122-42.646 42.646v127.97c0 23.526 19.12 42.646 42.646 42.646s42.646-19.122 42.646-42.646v-127.97z" fill="#FC6E51" /><path d="M277.39 725.292c0-23.526-19.122-42.678-42.646-42.678-23.526 0-42.646 19.152-42.646 42.678v127.972c0 23.526 19.12 42.646 42.646 42.646s42.646-19.122 42.646-42.646v-127.972zM831.934 725.292c0-23.526-19.122-42.678-42.676-42.678-23.496 0-42.618 19.152-42.618 42.678v127.972c0 23.526 19.122 42.646 42.618 42.646 23.554 0 42.676-19.122 42.676-42.646v-127.972zM725.274 725.292c0-23.526-19.122-42.678-42.618-42.678-23.558 0-42.676 19.152-42.676 42.678v127.972c0 23.526 19.118 42.646 42.676 42.646 23.496 0 42.618-19.122 42.618-42.646v-127.972zM618.672 725.292c0-23.526-19.184-42.678-42.68-42.678-23.492 0-42.66 19.152-42.66 42.678v127.972c0 23.526 19.168 42.646 42.66 42.646 23.496 0 42.68-19.122 42.68-42.646v-127.972zM512.022 725.292c0-23.526-19.152-42.678-42.676-42.678-23.526 0-42.646 19.152-42.646 42.678v127.972c0 23.526 19.12 42.646 42.646 42.646s42.676-19.122 42.676-42.646v-127.972z" fill="#ED5564" /><path d="M831.934 448.014c0-23.526-19.122-42.646-42.676-42.646-23.496 0-42.618 19.122-42.618 42.646v127.97c0 23.526 19.122 42.646 42.618 42.646 23.554 0 42.676-19.122 42.676-42.646v-127.97zM725.274 448.014c0-23.526-19.122-42.646-42.618-42.646-23.558 0-42.676 19.122-42.676 42.646v127.97c0 23.526 19.118 42.646 42.676 42.646 23.496 0 42.618-19.122 42.618-42.646v-127.97zM618.672 448.014c0-23.526-19.184-42.646-42.68-42.646-23.492 0-42.66 19.122-42.66 42.646v127.97c0 23.526 19.168 42.646 42.66 42.646 23.496 0 42.68-19.122 42.68-42.646v-127.97z" fill="#FC6E51" /></svg>