<?xml version="1.0" standalone="no"?><!DOCTYPE svg PUBLIC "-//W3C//DTD SVG 1.1//EN" "http://www.w3.org/Graphics/SVG/1.1/DTD/svg11.dtd"><svg class="icon" width="128px" height="128.00px" viewBox="0 0 1024 1024" version="1.1" xmlns="http://www.w3.org/2000/svg"><path d="M192.006625 595.558837c-11.781977 0-21.341958-9.561981-21.341958-21.343959v-168.90167c0-11.781977 9.561981-21.311958 21.341958-21.311958s21.343958 9.531981 21.343958 21.311958v168.90167c0 11.781977-9.561981 21.343958-21.343958 21.343959zM831.993375 595.558837c-11.781977 0-21.343958-9.561981-21.343958-21.343959v-168.90167c0-11.781977 9.561981-21.311958 21.343958-21.311958 11.779977 0 21.341958 9.531981 21.341958 21.311958v168.90167c0 11.781977-9.561981 21.343958-21.341958 21.343959z" fill="#434A54" /><path d="M234.662542 597.308833H149.350708c-11.781977 0-21.343958-9.561981-21.343958-21.343958s9.561981-21.311958 21.343958-21.311958h85.309834c11.781977 0 21.343958 9.531981 21.343958 21.311958s-9.561981 21.343958-21.341958 21.343958zM874.647292 597.308833h-85.309834c-11.779977 0-21.341958-9.561981-21.341958-21.343958s9.561981-21.311958 21.341958-21.311958h85.309834c11.781977 0 21.343958 9.531981 21.343958 21.311958s-9.561981 21.343958-21.343958 21.343958z" fill="#656D78" /><path d="M938.647167 426.657167H85.352833V0.01h853.294334v426.647167z" fill="#E6E9ED" /><path d="M938.647167 118.725768V0.01h-62.279879L449.720122 426.657167h180.995646zM393.658231 0.01L85.352833 308.315398v118.341769h62.653878L574.687878 0.01z" fill="#ED5564" /><path d="M897.241248 999.144049l-42.655917-255.9955a21.339958 21.339958 0 0 0-21.059959-17.841966h-85.309833a21.339958 21.339958 0 0 0-21.061959 17.841966l-42.655917 255.9955a21.389958 21.389958 0 0 0 4.749991 17.281966 21.413958 21.413958 0 0 0 16.281968 7.561985h170.683667c6.249988 0 12.217976-2.781995 16.281968-7.561985a21.401958 21.401958 0 0 0 4.745991-17.281966z" fill="#E6E9ED" /><path d="M897.523247 1023.988H684.213664c-11.781977 0-21.343958-9.561981-21.343959-21.343958s9.561981-21.343958 21.343959-21.343959h213.307583c11.781977 0 21.343958 9.561981 21.343958 21.343959s-9.561981 21.343958-21.341958 21.343958z" fill="#CCD1D9" /><path d="M715.901602 810.648417l-14.217972 85.341833h178.369651l-14.217972-85.341833z" fill="#ED5564" /><path d="M555.905914 871.146299l-42.655916-255.9935a21.333958 21.333958 0 0 0-21.031959-17.843966h-85.341834a21.311958 21.311958 0 0 0-21.031959 17.843966L343.16033 871.146299c-1.031998 6.155988 0.717999 12.499976 4.78199 17.281966s9.99998 7.561985 16.281969 7.561985h170.653666c6.281988 0 12.217976-2.781995 16.281969-7.561985s5.777989-11.125978 4.74599-17.281966z" fill="#E6E9ED" /><path d="M556.217914 895.99025h-213.339584c-11.781977 0-21.341958-9.561981-21.341958-21.343958s9.561981-21.343958 21.341958-21.343959h213.339584c11.781977 0 21.311958 9.561981 21.311958 21.343959s-9.529981 21.343958-21.311958 21.343958z" fill="#CCD1D9" /><path d="M374.596268 682.650667l-14.217972 85.341833h178.339652l-14.217972-85.341833z" fill="#ED5564" /></svg>