<?xml version="1.0" standalone="no"?><!DOCTYPE svg PUBLIC "-//W3C//DTD SVG 1.1//EN" "http://www.w3.org/Graphics/SVG/1.1/DTD/svg11.dtd"><svg class="icon" width="128px" height="128.00px" viewBox="0 0 1024 1024" version="1.1" xmlns="http://www.w3.org/2000/svg"><path d="M860.556 291.782c-6.532-2.312-162.65-57.092-348.552-57.092-185.93 0-342.02 54.78-348.582 57.092l202.118 400.22 27.406 8.686c0.406-0.186 40.56-18 119.682-18 77.404 0 116.34 17.062 118.152 17.876l17.626 8.812 212.15-417.594z" fill="#424953" /><path d="M651.562 244.252a1220.092 1220.092 0 0 0-42.466-4.844l-75.778 436.594V234.94a963.96 963.96 0 0 0-21.314-0.25c-7.156 0-14.28 0.094-21.342 0.25v441.062l-75.778-436.594a1220.216 1220.216 0 0 0-42.468 4.844l76.842 442.688c17.218-2.5 38.342-4.252 63.372-4.252 24.592 0 45.25 1.69 62.122 4.064l76.81-442.5zM405.102 696.376c9-2.75 23-6.312 41.936-9.126l-146.996-431.062a1183.368 1183.368 0 0 0-42 8.998l147.06 431.19zM765.934 265.188a1167.16 1167.16 0 0 0-41.998-8.998l-146.962 430.938c19.06 2.812 33.03 6.376 41.966 9.188l146.994-431.128z" fill="#646C77" /><path d="M641.532 681.876l213.306-369.472 147.806 85.342-213.336 369.502z" fill="#5E9CEA" /><path d="M1013.302 379.278l-147.78-85.34a21.322 21.322 0 0 0-10.654-2.876 21.326 21.326 0 0 0-18.498 10.686L623.034 671.252c-5.876 10.188-2.376 23.25 7.81 29.126l147.808 85.308a21.22 21.22 0 0 0 10.626 2.876c7.376 0 14.562-3.812 18.5-10.686l213.336-369.472c5.908-10.19 2.408-23.252-7.812-29.126zM781.496 738.062l-110.84-63.936 191.994-332.566 110.842 63.998-191.996 332.504z" fill="#4B89DA" /><path d="M886.086 428.964c-5.904 10.216-18.936 13.716-29.152 7.81-10.19-5.876-13.69-18.936-7.814-29.124 5.906-10.218 18.938-13.718 29.156-7.812 10.184 5.876 13.684 18.94 7.81 29.126zM891.024 505.742c-5.876 10.188-18.938 13.688-29.124 7.782-10.218-5.876-13.718-18.938-7.812-29.126 5.874-10.216 18.936-13.686 29.124-7.81 10.218 5.906 13.718 18.936 7.812 29.154zM822.09 539.836c-5.908 10.17-18.938 13.67-29.158 7.794-10.186-5.89-13.686-18.954-7.81-29.138 5.906-10.218 18.938-13.718 29.154-7.812 10.186 5.906 13.686 18.938 7.814 29.156zM827.028 616.566c-5.876 10.188-18.938 13.688-29.126 7.81-10.218-5.874-13.718-18.936-7.812-29.124 5.876-10.188 18.938-13.688 29.124-7.81 10.22 5.874 13.72 18.936 7.814 29.124zM758.092 650.692c-5.908 10.186-18.938 13.686-29.156 7.81a21.416 21.416 0 0 1-7.812-29.186c5.908-10.188 18.938-13.688 29.156-7.812a21.42 21.42 0 0 1 7.812 29.188zM234.638 767.998L21.334 398.496l147.808-85.31 213.336 369.502-147.808 85.31h-0.032z" fill="#E5E8EC" /><path d="M290.856 513.87l-96.748 55.886c-10.218 5.874-13.718 18.936-7.812 29.124 5.874 10.188 18.936 13.688 29.124 7.812l96.748-55.874-21.312-36.948zM269.514 476.932l-21.344-36.968-96.746 55.874c-10.188 5.876-13.688 18.938-7.812 29.124 5.906 10.218 18.938 13.718 29.156 7.814h0.032l96.714-55.844zM226.86 403.028l-21.344-36.968-96.746 55.876c-10.22 5.876-13.688 18.936-7.814 29.124 5.906 10.218 18.938 13.718 29.156 7.812l96.748-55.844zM333.51 587.756l-96.748 55.872c-10.218 5.876-13.686 18.938-7.812 29.126 5.906 10.188 18.936 13.688 29.156 7.812l96.748-55.874-21.344-36.936z" fill="#424953" /><path d="M400.946 672.002L187.61 302.498c-3.936-6.842-11.124-10.654-18.5-10.654-3.594 0-7.282 0.906-10.626 2.844l-147.806 85.34c-10.188 5.906-13.688 18.938-7.812 29.156l213.336 369.502c3.936 6.812 11.124 10.626 18.5 10.626 3.594 0 7.282-0.876 10.626-2.812l147.808-85.372c10.216-5.878 13.686-18.94 7.81-29.126z m-158.462 66.874L50.49 406.308l110.84-63.998 191.994 332.566-110.84 64z" fill="#4B89DA" /></svg>