<?xml version="1.0" standalone="no"?><!DOCTYPE svg PUBLIC "-//W3C//DTD SVG 1.1//EN" "http://www.w3.org/Graphics/SVG/1.1/DTD/svg11.dtd"><svg class="icon" width="128px" height="128.00px" viewBox="0 0 1024 1024" version="1.1" xmlns="http://www.w3.org/2000/svg"><path d="M14.638 85.322H222.6v853.322H14.638z" fill="#E6E9ED" /><path d="M234.664 64.012H21.356c-11.78 0-21.342 9.532-21.342 21.31v853.322c0 11.782 9.562 21.344 21.342 21.344h213.308c11.782 0 21.344-9.562 21.344-21.344V85.322c-0.002-11.78-9.564-21.31-21.344-21.31z m-21.312 853.29H42.668V106.666h170.684v810.636z" fill="#4A89DC" /><path d="M234.664 192.008H106.666c-11.78 0-21.312-9.562-21.312-21.344 0-11.78 9.532-21.342 21.312-21.342h127.998c11.782 0 21.344 9.562 21.344 21.342-0.002 11.782-9.564 21.344-21.344 21.344zM234.664 277.318H106.666a21.3 21.3 0 0 1-21.312-21.312c0-11.812 9.532-21.342 21.312-21.342h127.998c11.782 0 21.344 9.53 21.344 21.342-0.002 11.782-9.564 21.312-21.344 21.312zM234.664 362.66H106.666c-11.78 0-21.312-9.562-21.312-21.344s9.532-21.31 21.312-21.31h127.998c11.782 0 21.344 9.53 21.344 21.31s-9.564 21.344-21.344 21.344zM234.664 448.002H106.666c-11.78 0-21.312-9.562-21.312-21.344s9.532-21.344 21.312-21.344h127.998c11.782 0 21.344 9.562 21.344 21.344s-9.564 21.344-21.344 21.344zM234.664 533.312H106.666A21.3 21.3 0 0 1 85.354 512c0-11.812 9.532-21.344 21.312-21.344h127.998c11.782 0 21.344 9.532 21.344 21.344-0.002 11.782-9.564 21.312-21.344 21.312zM234.664 618.652H106.666c-11.78 0-21.312-9.56-21.312-21.342s9.532-21.312 21.312-21.312h127.998c11.782 0 21.344 9.532 21.344 21.312s-9.564 21.342-21.344 21.342zM234.664 703.996H106.666c-11.78 0-21.312-9.562-21.312-21.344s9.532-21.344 21.312-21.344h127.998c11.782 0 21.344 9.562 21.344 21.344s-9.564 21.344-21.344 21.344zM234.664 789.304H106.666a21.3 21.3 0 0 1-21.312-21.312c0-11.81 9.532-21.342 21.312-21.342h127.998c11.782 0 21.344 9.532 21.344 21.342-0.002 11.782-9.564 21.312-21.344 21.312zM234.664 874.648H106.666c-11.78 0-21.312-9.562-21.312-21.344s9.532-21.312 21.312-21.312h127.998c11.782 0 21.344 9.532 21.344 21.312s-9.564 21.344-21.344 21.344z" fill="#434A54" /><path d="M789.336 938.644H448.002c-11.782 0-21.344-191.026-21.344-426.644 0-235.65 9.562-426.678 21.344-426.678h341.334c11.782 0 21.312 191.028 21.312 426.678 0 235.62-9.53 426.644-21.312 426.644z" fill="#656D78" /><path d="M533.312 938.644c-11.5 0-21-9.188-21.312-20.78L490.658 107.228c-0.282-11.782 9-21.594 20.78-21.906 11.782-0.282 21.562 9 21.876 20.782l21.344 810.636c0.312 11.78-9 21.592-20.75 21.904h-0.596zM618.652 938.644c-11.782 0-21.312-9.562-21.312-21.342V106.666c0-11.782 9.532-21.344 21.312-21.344s21.344 9.562 21.344 21.344v810.636c0 11.78-9.562 21.342-21.344 21.342zM703.996 938.644h-0.562c-11.782-0.312-21.062-10.124-20.782-21.904l21.344-810.636c0.312-11.782 10.094-21.062 21.906-20.782 11.746 0.312 21.058 10.124 20.746 21.906l-21.34 810.636c-0.28 11.594-9.78 20.78-21.312 20.78z" fill="#434A54" /><path d="M448.002 64.012H234.664a21.298 21.298 0 0 0-21.312 21.31v853.322c0 11.782 9.53 21.344 21.312 21.344h213.338c11.78 0 21.342-9.562 21.342-21.344V85.322c0-11.78-9.562-21.31-21.342-21.31zM1002.644 64.012H789.336c-11.782 0-21.344 9.532-21.344 21.31v853.322c0 11.782 9.562 21.344 21.344 21.344h213.308c11.782 0 21.344-9.562 21.344-21.344V85.322c0-11.78-9.562-21.31-21.344-21.31z" fill="#5D9CEC" /><path d="M874.648 320.006c0 11.748-9.532 21.31-21.312 21.31s-21.344-9.562-21.344-21.31c0-11.812 9.562-21.344 21.344-21.344s21.312 9.532 21.312 21.344zM917.332 277.318c0 11.782-9.562 21.344-21.344 21.344-11.778 0-21.34-9.562-21.34-21.344s9.562-21.312 21.34-21.312c11.782 0 21.344 9.532 21.344 21.312zM959.988 234.664c0 11.78-9.562 21.342-21.344 21.342s-21.312-9.562-21.312-21.342c0-11.782 9.532-21.344 21.312-21.344s21.344 9.562 21.344 21.344zM874.648 405.314c0 11.782-9.532 21.344-21.312 21.344s-21.344-9.562-21.344-21.344c0-11.78 9.562-21.31 21.344-21.31s21.312 9.532 21.312 21.31zM917.332 362.66c0 11.782-9.562 21.344-21.344 21.344-11.778 0-21.34-9.562-21.34-21.344s9.562-21.344 21.34-21.344c11.782 0 21.344 9.562 21.344 21.344zM959.988 320.006c0 11.748-9.562 21.31-21.344 21.31s-21.312-9.562-21.312-21.31c0-11.812 9.532-21.344 21.312-21.344s21.344 9.532 21.344 21.344zM874.648 490.656c0 11.782-9.532 21.344-21.312 21.344s-21.344-9.562-21.344-21.344 9.562-21.342 21.344-21.342 21.312 9.562 21.312 21.342zM917.332 448.002c0 11.782-9.562 21.312-21.344 21.312-11.778 0-21.34-9.532-21.34-21.312s9.562-21.344 21.34-21.344c11.782 0 21.344 9.562 21.344 21.344zM959.988 405.314c0 11.782-9.562 21.344-21.344 21.344s-21.312-9.562-21.312-21.344c0-11.78 9.532-21.31 21.312-21.31s21.344 9.532 21.344 21.31zM874.648 575.998c0 11.782-9.532 21.312-21.312 21.312s-21.344-9.532-21.344-21.312 9.562-21.342 21.344-21.342 21.312 9.56 21.312 21.342zM917.332 533.312c0 11.782-9.562 21.344-21.344 21.344-11.778 0-21.34-9.562-21.34-21.344S884.21 512 895.988 512c11.782 0 21.344 9.532 21.344 21.312zM959.988 490.656c0 11.782-9.562 21.344-21.344 21.344s-21.312-9.562-21.312-21.344 9.532-21.342 21.312-21.342 21.344 9.562 21.344 21.342zM874.648 661.308c0 11.782-9.532 21.344-21.312 21.344s-21.344-9.562-21.344-21.344 9.562-21.312 21.344-21.312 21.312 9.532 21.312 21.312zM917.332 618.652c0 11.782-9.562 21.344-21.344 21.344-11.778 0-21.34-9.562-21.34-21.344 0-11.78 9.562-21.342 21.34-21.342 11.782 0 21.344 9.564 21.344 21.342zM959.988 575.998c0 11.782-9.562 21.312-21.344 21.312s-21.312-9.532-21.312-21.312 9.532-21.342 21.312-21.342 21.344 9.56 21.344 21.342zM874.648 746.65c0 11.782-9.532 21.342-21.312 21.342s-21.344-9.56-21.344-21.342 9.562-21.344 21.344-21.344 21.312 9.564 21.312 21.344zM917.332 703.996c0 11.782-9.562 21.31-21.344 21.31-11.778 0-21.34-9.53-21.34-21.31s9.562-21.344 21.34-21.344c11.782 0 21.344 9.562 21.344 21.344zM959.988 661.308c0 11.782-9.562 21.344-21.344 21.344s-21.312-9.562-21.312-21.344 9.532-21.312 21.312-21.312 21.344 9.532 21.344 21.312z" fill="#E6E9ED" /><path d="M341.348 789.304c-11.78 0-21.342-9.532-21.342-21.312V256.006c0-11.812 9.562-21.342 21.342-21.342 11.782 0 21.312 9.53 21.312 21.342v511.986a21.3 21.3 0 0 1-21.312 21.312z" fill="#4A89DC" /></svg>