<?xml version="1.0" standalone="no"?><!DOCTYPE svg PUBLIC "-//W3C//DTD SVG 1.1//EN" "http://www.w3.org/Graphics/SVG/1.1/DTD/svg11.dtd"><svg class="icon" width="128px" height="128.00px" viewBox="0 0 1024 1024" version="1.1" xmlns="http://www.w3.org/2000/svg"><path d="M512.008 0.156c-11.778 0-21.338 9.544-21.338 21.322v89.754h42.642V21.478c0-11.776-9.526-21.322-21.304-21.322z" fill="#7F4545" /><path d="M512.008 1023.844c220.292-64.2 382.93-288.41 382.93-555.174H129.062c0 266.764 162.638 490.974 382.946 555.174z" fill="#F4BE8E" /><path d="M852.262 468.67c0 258.076-148.828 472.762-340.254 555.174 220.292-64.2 382.93-288.41 382.93-555.174h-42.676z" fill="#FFFFFF" opacity=".2" /><path d="M938.548 426.682c0 92.942-191.254 169.95-426.542 169.95-235.302 0-426.556-77.008-426.556-169.95 0-145.158 191.254-341.222 426.556-341.222 235.288-0.002 426.542 196.064 426.542 341.222z" fill="#965353" /><path d="M880.254 273.776l-126.96 126.992-90.472-90.47 127.524-127.556a473.424 473.424 0 0 0-35.55-24.774l-122.15 122.166-90.488-90.488 87.74-87.722a445.36 445.36 0 0 0-49.424-10.902l-68.462 68.462-68.482-68.464a442.158 442.158 0 0 0-49.424 10.918l87.724 87.708-90.472 90.488-122.15-122.166a485.834 485.834 0 0 0-35.55 24.774l127.524 127.556-90.472 90.47-126.992-126.976c-8.81 12.042-16.746 24.274-23.712 36.6l120.556 120.542-87.286 87.288c11.84 7.324 25.086 14.26 39.55 20.774l77.882-77.898 90.472 90.488-29.054 29.054a875.45 875.45 0 0 0 52.172 8.152l7.06-7.058 8.934 8.934a1000.56 1000.56 0 0 0 65.262 4.936l-44.048-44.018 90.504-90.488 90.458 90.488-44.054 44.014a994.832 994.832 0 0 0 65.292-4.936l8.936-8.934 7.06 7.058a871.386 871.386 0 0 0 52.172-8.152l-29.054-29.054 90.472-90.488 77.914 77.898c14.434-6.514 27.68-13.45 39.488-20.774l-87.222-87.288 120.524-120.542a369.54 369.54 0 0 0-23.742-36.612zM391.358 521.42l-90.472-90.488 90.472-90.472 90.472 90.472-90.472 90.488z m30.146-211.124l90.504-90.488 90.458 90.472-90.458 90.486-90.504-90.47zM632.642 521.42l-90.488-90.488 90.488-90.488 90.472 90.488-90.472 90.488z" fill="#7F4545" /></svg>