<?xml version="1.0" standalone="no"?><!DOCTYPE svg PUBLIC "-//W3C//DTD SVG 1.1//EN" "http://www.w3.org/Graphics/SVG/1.1/DTD/svg11.dtd"><svg class="icon" width="128px" height="128.00px" viewBox="0 0 1024 1024" version="1.1" xmlns="http://www.w3.org/2000/svg"><path d="M395.43 398.488c-8.312 8.342-21.842 8.342-30.156 0l-15.092-15.078c-8.344-8.342-8.344-21.842 0-30.17 8.344-8.342 21.842-8.342 30.156 0l15.092 15.078c8.344 8.328 8.344 21.842 0 30.17zM335.088 458.83c-8.312 8.326-21.842 8.342-30.156 0l-15.092-15.078c-8.344-8.328-8.344-21.844 0-30.172 8.312-8.328 21.842-8.328 30.156 0l15.092 15.078c8.344 8.33 8.344 21.844 0 30.172zM274.748 519.186c-8.312 8.328-21.842 8.328-30.156 0l-15.092-15.092c-8.344-8.328-8.344-21.844 0-30.172 8.31-8.328 21.842-8.328 30.154 0l15.092 15.078a21.332 21.332 0 0 1 0.002 30.186z" fill="#AAB2BC" /><path d="M666.982 96.782a21.332 21.332 0 0 0-30.188 0L244.592 489a21.33 21.33 0 0 0 0 30.186l90.498 90.53a21.354 21.354 0 0 0 30.184 0l392.236-392.25c4-4 6.218-9.438 6.218-15.094 0-5.656-2.218-11.078-6.218-15.078l-90.528-90.512z" fill="#CCD1D9" /><path d="M365.274 519.17a21.33 21.33 0 0 1-30.186 0c-8.312-8.326-8.312-21.826 0-30.17l79.216-79.2c8.312-8.328 21.842-8.328 30.156 0 8.342 8.344 8.342 21.844 0 30.172l-79.186 79.198z" fill="#AAB2BC" /><path d="M606.64 157.122a21.36 21.36 0 0 0-30.186 0l-98.34 98.34-52.498 52.514c-11.124 11.124-25.062 35.56-17.468 118.854 2.594 28.812 6.938 55.576 9.532 70.122L72.692 841.926c-41.592 41.59-41.592 109.276 0 150.868 41.592 41.594 109.278 41.594 150.87 0l493.386-493.402c36.53 15.094 133.808 47.202 191.398-10.39 8.344-8.328 8.344-21.844 0-30.17L606.64 157.122zM169.47 917.36c0 11.78-9.562 21.342-21.342 21.342s-21.342-9.562-21.342-21.342c0-11.782 9.562-21.344 21.342-21.344s21.342 9.562 21.342 21.344z" fill="#ED5564" /><path d="M606.64 157.122a21.36 21.36 0 0 0-30.186 0L546.3 187.292c8.312-8.328 21.842-8.328 30.154 0L878.192 489a21.36 21.36 0 0 1 6 18.094 105.19 105.19 0 0 0 24.156-18.094c8.344-8.328 8.344-21.844 0-30.17L606.64 157.122z" fill="#DA4453" /><path d="M757.478 6.268c-8.312-8.342-21.812-8.342-30.156 0L636.794 96.78a21.324 21.324 0 0 0 0 30.17l301.74 301.708a21.306 21.306 0 0 0 21.248 5.344 21.204 21.204 0 0 0 8.906-5.344 21.236 21.236 0 0 0 5.844-10.89c0.312-1.624 7.968-40.326 7.968-87.168 0-65.92-14.812-114.136-43.966-143.308L757.478 6.268z" fill="#ED5564" /><path d="M425.618 307.976c-8.624 8.624-18.906 25.218-19.594 70.918l110.09 110.104c1.062 1.046 2.188 1.954 3.344 2.734 8.282 5.468 19.562 4.562 26.844-2.734l60.34-60.34c8.344-8.328 8.344-21.844 0-30.17l-135.776-135.776-45.248 45.264z" fill="#E6E9ED" /><path d="M470.864 443.752l90.528-90.512-30.184-30.17-90.498 90.512z" fill="#CCD1D9" /><path d="M516.114 579.53l-292.55 292.58c-8.344 8.312-21.844 8.312-30.186 0-8.312-8.344-8.312-21.842 0-30.184L485.96 549.342c8.312-8.328 21.842-8.328 30.156 0a21.334 21.334 0 0 1-0.002 30.188zM635.388 98.36c-0.312 0.36-0.562 0.75-0.844 1.124-0.124 0.188-0.282 0.36-0.406 0.562-0.344 0.484-0.624 1-0.906 1.516-0.062 0.094-0.124 0.172-0.156 0.266-0.282 0.532-0.532 1.078-0.782 1.64-0.032 0.078-0.094 0.156-0.124 0.25a16.568 16.568 0 0 0-0.562 1.61 1.568 1.568 0 0 0-0.124 0.36c-0.156 0.5-0.282 1.016-0.406 1.532l-0.094 0.5a11.846 11.846 0 0 0-0.25 1.484c0 0.188-0.062 0.376-0.062 0.578-0.062 0.656-0.094 1.312-0.094 1.968 0 0.046-0.032 0.094 0 0.124 0 0.704 0.032 1.39 0.094 2.078 0 0.156 0.032 0.328 0.062 0.5 0.062 0.532 0.124 1.046 0.25 1.562 0 0.14 0.062 0.282 0.094 0.422 0.124 0.532 0.25 1.078 0.406 1.61l0.094 0.266c0.188 0.578 0.376 1.14 0.594 1.704 0.032 0.046 0.062 0.092 0.062 0.14 0.25 0.592 0.532 1.17 0.844 1.75 0 0.032 0.032 0.078 0.062 0.11 0.312 0.578 0.656 1.124 1 1.672 0.062 0.11 0.156 0.204 0.218 0.312 0.344 0.468 0.656 0.922 1.032 1.376 0.312 0.376 0.656 0.734 1 1.094 0.124 0.156 0.282 0.328 0.406 0.484l100.59 100.576L938.536 428.66c0.468 0.468 0.938 0.89 1.438 1.312 0.124 0.11 0.25 0.204 0.376 0.312 0.438 0.344 0.906 0.688 1.376 1l0.188 0.14c0.5 0.328 1.032 0.624 1.532 0.906l0.562 0.282c0.406 0.218 0.844 0.406 1.25 0.578 0.156 0.062 0.282 0.14 0.438 0.188 0.532 0.218 1.062 0.406 1.624 0.578 0.188 0.062 0.376 0.11 0.562 0.156 0.438 0.124 0.906 0.234 1.376 0.344 0.124 0.016 0.282 0.062 0.406 0.078 0.594 0.11 1.188 0.204 1.782 0.266 0.124 0.016 0.25 0.016 0.376 0.032 0.532 0.032 1.032 0.062 1.562 0.062 0.124 0.016 0.25 0.016 0.376 0.016 0.624-0.016 1.248-0.032 1.874-0.094 0.062 0 0.124-0.016 0.188-0.032 0.532-0.046 1.062-0.124 1.594-0.218 0.188-0.032 0.376-0.078 0.532-0.11 0.5-0.094 0.968-0.218 1.438-0.344 0.124-0.046 0.25-0.062 0.376-0.11 0.562-0.156 1.094-0.36 1.624-0.562 0.188-0.062 0.344-0.14 0.532-0.218 0.5-0.218 1.032-0.438 1.5-0.704 0.124-0.062 0.25-0.124 0.344-0.188 0.468-0.234 0.906-0.5 1.344-0.782 0.124-0.094 0.282-0.172 0.406-0.266 0.5-0.328 0.968-0.688 1.468-1.062 0.094-0.078 0.188-0.172 0.282-0.25 0.5-0.406 0.968-0.844 1.438-1.312h0.032a21.554 21.554 0 0 0 5.812-10.89c0.124-0.578 1.124-5.734 2.406-14.188a21.214 21.214 0 0 1-8.25-5.092L666.982 96.782c-4.938-4.938-6.906-11.672-6-18.094a105.352 105.352 0 0 0-24.188 18.094c-0.5 0.5-0.968 1.03-1.406 1.578z" fill="#DA4453" /></svg>