<?xml version="1.0" standalone="no"?><!DOCTYPE svg PUBLIC "-//W3C//DTD SVG 1.1//EN" "http://www.w3.org/Graphics/SVG/1.1/DTD/svg11.dtd"><svg class="icon" width="128px" height="128.00px" viewBox="0 0 1024 1024" version="1.1" xmlns="http://www.w3.org/2000/svg"><path d="M512 1023.972c-11.812 0-21.342-9.562-21.342-21.344V21.338c0-11.782 9.53-21.31 21.342-21.31 11.75 0 21.312 9.53 21.312 21.31v981.292c0 11.78-9.562 21.342-21.312 21.342z" fill="#ED5564" /><path d="M1002.63 533.31H21.338C9.556 533.31 0.026 523.748 0.026 512c0-11.812 9.53-21.344 21.312-21.344h981.292A21.33 21.33 0 0 1 1023.972 512c0 11.748-9.56 21.31-21.342 21.31z" fill="#ED5564" /><path d="M639.994 512c0 70.684-57.31 127.992-127.994 127.992-70.714 0-127.994-57.308-127.994-127.992 0-70.714 57.278-127.994 127.994-127.994 70.684 0 127.994 57.28 127.994 127.994z" fill="#DA4453" /><path d="M512 661.304c-82.37 0-149.334-66.996-149.334-149.304 0-82.372 66.964-149.336 149.334-149.336 82.308 0 149.304 66.964 149.304 149.336 0 82.308-66.996 149.304-149.304 149.304z m0-255.986c-58.84 0-106.682 47.84-106.682 106.682 0 58.808 47.842 106.65 106.682 106.65 58.808 0 106.652-47.842 106.652-106.65 0-58.842-47.844-106.682-106.652-106.682z" fill="#ED5564" /><path d="M512 789.296c-152.928 0-277.33-124.398-277.33-277.296 0-152.93 124.4-277.33 277.33-277.33 152.898 0 277.298 124.4 277.298 277.33 0 152.898-124.4 277.296-277.298 277.296z m0-511.972c-129.4 0-234.674 105.276-234.674 234.676 0 129.368 105.276 234.644 234.674 234.644 129.37 0 234.644-105.278 234.644-234.644 0-129.4-105.274-234.676-234.644-234.676z" fill="#434A54" /><path d="M512 917.292c-108.276 0-210.05-42.154-286.61-118.712S106.678 620.244 106.678 512c0-108.276 42.154-210.052 118.712-286.612C301.95 148.832 403.724 106.678 512 106.678c108.246 0 210.02 42.154 286.578 118.71 76.558 76.558 118.714 178.336 118.714 286.612 0 108.244-42.156 210.02-118.714 286.578S620.246 917.292 512 917.292z m0-767.96c-96.87 0-187.958 37.716-256.456 106.212C187.048 324.042 149.332 415.128 149.332 512c0 96.838 37.716 187.926 106.212 256.424 68.498 68.496 159.586 106.212 256.456 106.212 96.84 0 187.928-37.716 256.426-106.212 68.496-68.498 106.21-159.586 106.21-256.424 0-96.872-37.714-187.958-106.21-256.456C699.928 187.048 608.84 149.332 512 149.332z" fill="#434A54" /><path d="M527.062 527.06c-8.312 8.344-21.842 8.344-30.156 0-8.342-8.31-8.342-21.842 0-30.154 8.312-8.344 21.842-8.344 30.156 0 8.344 8.312 8.344 21.844 0 30.154z" fill="#434A54" /></svg>