<?xml version="1.0" standalone="no"?><!DOCTYPE svg PUBLIC "-//W3C//DTD SVG 1.1//EN" "http://www.w3.org/Graphics/SVG/1.1/DTD/svg11.dtd"><svg class="icon" width="128px" height="128.00px" viewBox="0 0 1024 1024" version="1.1" xmlns="http://www.w3.org/2000/svg"><path d="M148.114 1023.93c-3.438 0-6.906-0.812-10.124-2.562-10.438-5.562-14.344-18.5-8.75-28.872l299.42-554.706c5.594-10.376 18.594-14.25 28.998-8.688 10.438 5.594 14.344 18.53 8.718 28.904L166.986 1012.68c-3.874 7.188-11.248 11.25-18.872 11.25z" fill="#656D78" /><path d="M747.458 1023.93c-7.624 0-15-4.062-18.876-11.25L428.66 458.006c-5.594-10.374-1.718-23.31 8.718-28.904 10.406-5.562 23.404-1.688 28.998 8.688L766.3 992.496c5.624 10.372 1.718 23.308-8.688 28.872a21.296 21.296 0 0 1-10.154 2.562z" fill="#656D78" /><path d="M447.536 938.558c-11.844 0-21.438-9.5-21.438-21.308V447.882c0-11.78 9.594-21.312 21.438-21.312 11.81 0 21.404 9.532 21.404 21.312v469.368c0 11.808-9.594 21.308-21.404 21.308z" fill="#434A54" /><path d="M674.742 221.614c-60.684-60.434-141.368-93.746-227.208-93.746s-166.554 33.31-227.238 93.746c-60.686 60.434-94.09 140.806-94.09 226.27 0 85.496 33.404 165.882 94.09 226.316 60.684 60.434 141.398 93.746 227.238 93.746s166.524-33.312 227.208-93.746 94.122-140.82 94.122-226.316c0-85.466-33.438-165.836-94.122-226.27z" fill="#ED5564" /><path d="M447.536 234.55c-118.15 0-214.24 95.714-214.24 213.334 0 117.632 96.09 213.378 214.24 213.378 118.12 0 214.238-95.746 214.238-213.378 0-117.62-96.12-213.334-214.238-213.334z" fill="#E6E9ED" /><path d="M447.536 341.732c-58.78 0-106.62 47.624-106.62 106.152 0 58.56 47.84 106.196 106.62 106.196 58.778 0 106.588-47.636 106.588-106.196 0-58.53-47.812-106.152-106.588-106.152z" fill="#ED5564" /><path d="M776.612 0l-151.462 150.834 17.31 77.59 25.094 25 78.778 18.092 151.46-150.836z" fill="#FFCE54" /><path d="M448.036 469.226a21.41 21.41 0 0 1-15.156-6.25c-8.344-8.312-8.344-21.842 0-30.154l399.636-397.98c8.376-8.342 21.936-8.342 30.31 0 8.342 8.312 8.342 21.842 0 30.156L463.19 462.976c-4.188 4.188-9.654 6.25-15.154 6.25z" fill="#434A54" /></svg>