<?xml version="1.0" standalone="no"?><!DOCTYPE svg PUBLIC "-//W3C//DTD SVG 1.1//EN" "http://www.w3.org/Graphics/SVG/1.1/DTD/svg11.dtd"><svg class="icon" width="128px" height="128.00px" viewBox="0 0 1024 1024" version="1.1" xmlns="http://www.w3.org/2000/svg"><path d="M874.652 149.322H106.658c-11.782 0-21.312 9.562-21.312 21.344s9.532 21.312 21.312 21.312h767.994c11.782 0 21.344-9.532 21.344-21.312s-9.562-21.344-21.344-21.344z" fill="#3BAFDA" /><path d="M1002.652 234.666H21.346c-11.782 0-21.342 9.562-21.342 21.312v320.014c0 47.124 38.218 85.312 85.342 85.312h853.306c47.124 0 85.344-38.188 85.344-85.312V255.978c0-11.75-9.562-21.312-21.344-21.312z" fill="#E6E9ED" /><path d="M192 565.992h42.656v95.188H192zM106.658 565.992h42.688v95.188H106.658zM277.344 565.992H320v95.188h-42.656zM362.656 565.992h42.688v95.188h-42.688zM448 565.992h42.656v95.188H448zM533.344 565.992H576v95.188h-42.656zM618.656 565.992h42.688v95.188h-42.688zM703.996 565.992h42.656v95.188h-42.656zM789.34 565.992h42.656v95.188H789.34zM874.652 565.992h42.688v95.188h-42.688z" fill="#CCD1D9" /><path d="M692.156 753.554c2.156-8.376 7.184-14.938 7.214-15l-0.094 0.188a21.414 21.414 0 0 0 4.718-13.438c0-11.75-9.558-21.312-21.34-21.312a21.38 21.38 0 0 0-16.594 7.938c-1.032 1.25-10.032 12.75-14.688 28.938-6.844 23.938-1.124 46.624 16.188 63.998 6.124 6.188 7.812 12.312 5.656 20.624-2.124 8.062-7.062 14.312-7.094 14.376l0.062-0.124a21.328 21.328 0 0 0-4.844 13.562c0 11.812 9.532 21.376 21.312 21.376 6.624 0 12.532-3 16.434-7.75h0.032v-0.062c1.188-1.376 10.156-12.624 14.782-28.5 6.938-23.624 1.188-46.188-16.124-63.624-6.182-6.19-7.87-12.564-5.62-21.19z m-25.938 86.186h0.032-0.032zM521.5 753.554c2.156-8.376 7.156-14.938 7.218-15l-0.124 0.188a21.268 21.268 0 0 0 4.75-13.438c0-11.75-9.562-21.312-21.344-21.312-6.718 0-12.688 3.124-16.594 7.938-1.032 1.25-10.032 12.75-14.688 28.938-6.876 23.938-1.124 46.624 16.156 63.998 6.156 6.188 7.844 12.312 5.688 20.624-2.124 8.062-7.062 14.312-7.094 14.376l0.062-0.124a21.356 21.356 0 0 0-4.876 13.562c0 11.812 9.562 21.376 21.344 21.376 6.594 0 12.5-3 16.438-7.75h0.032v-0.062c1.156-1.376 10.124-12.624 14.782-28.5 6.906-23.624 1.188-46.188-16.124-63.624-6.188-6.19-7.876-12.564-5.626-21.19z m-25.968 86.186h0.032-0.032zM884.59 838.366c6.906-23.624 1.188-46.188-16.156-63.624-6.156-6.188-7.844-12.562-5.624-21.188 2.156-8.376 7.188-14.938 7.25-15l-0.124 0.188a21.414 21.414 0 0 0 4.718-13.438c0-11.75-9.532-21.312-21.312-21.312-6.718 0-12.688 3.124-16.624 7.938-1 1.25-10.032 12.75-14.656 28.938-6.876 23.938-1.124 46.624 16.156 63.998 6.156 6.188 7.844 12.312 5.656 20.624-2.094 8.062-7.032 14.312-7.094 14.376l0.094-0.124a21.188 21.188 0 0 0-4.876 13.562c0 11.812 9.562 21.376 21.344 21.376 6.594 0 12.5-3 16.406-7.75h0.032l0.032-0.062c1.152-1.378 10.122-12.628 14.778-28.502z m-47.718 1.374h0.032-0.032zM350.812 753.554c2.156-8.376 7.188-14.938 7.25-15l-0.124 0.188a21.414 21.414 0 0 0 4.718-13.438c0-11.75-9.532-21.312-21.312-21.312-6.718 0-12.688 3.124-16.624 7.938-1 1.25-10.032 12.75-14.656 28.938-6.876 23.938-1.124 46.624 16.156 63.998 6.156 6.188 7.844 12.312 5.656 20.624-2.094 8.062-7.032 14.312-7.094 14.376l0.094-0.124a21.188 21.188 0 0 0-4.876 13.562c0 11.812 9.562 21.376 21.344 21.376 6.594 0 12.5-3 16.406-7.75h0.032l0.032-0.062c1.156-1.376 10.124-12.624 14.782-28.5 6.906-23.624 1.188-46.188-16.156-63.624-6.158-6.19-7.846-12.564-5.628-21.19z m-25.936 86.186h0.032-0.032zM180.158 753.554c2.156-8.376 7.188-14.938 7.218-15l-0.094 0.188A21.414 21.414 0 0 0 192 725.304c0-11.75-9.562-21.312-21.342-21.312a21.38 21.38 0 0 0-16.594 7.938c-1.032 1.25-10.032 12.75-14.688 28.938-6.844 23.938-1.094 46.624 16.188 63.998 6.124 6.188 7.812 12.312 5.656 20.624-2.124 8.062-7.062 14.312-7.094 14.376l0.062-0.124a21.328 21.328 0 0 0-4.844 13.562c0 11.812 9.532 21.376 21.312 21.376 6.624 0 12.53-3 16.436-7.75h0.032v-0.062c1.188-1.376 10.156-12.624 14.782-28.5 6.938-23.624 1.188-46.188-16.124-63.624-6.188-6.19-7.874-12.564-5.624-21.19zM154.22 839.74h0.032-0.032z" fill="#E6E9ED" /><path d="M1002.652 170.666H21.346C9.564 170.666 0.004 180.198 0.004 191.978v319.998c0 47.14 38.218 85.328 85.342 85.328h853.306c47.124 0 85.344-38.188 85.344-85.328V191.978c0-11.78-9.562-21.312-21.344-21.312z" fill="#4FC2E9" /><path d="M938.652 511.976c0 11.812-9.532 21.344-21.312 21.344s-21.344-9.532-21.344-21.344c0-11.75 9.562-21.312 21.344-21.312s21.312 9.562 21.312 21.312zM874.652 511.976c0 11.812-9.532 21.344-21.312 21.344s-21.344-9.532-21.344-21.344c0-11.75 9.562-21.312 21.344-21.312s21.312 9.562 21.312 21.312z" fill="#E6E9ED" /><path d="M640 490.664H384c-11.782 0-21.344 9.562-21.344 21.312 0 11.812 9.562 21.344 21.344 21.344h256c11.782 0 21.344-9.532 21.344-21.344 0-11.75-9.562-21.312-21.344-21.312z" fill="#3BAFDA" /></svg>