<?xml version="1.0" standalone="no"?><!DOCTYPE svg PUBLIC "-//W3C//DTD SVG 1.1//EN" "http://www.w3.org/Graphics/SVG/1.1/DTD/svg11.dtd"><svg class="icon" width="128px" height="128.00px" viewBox="0 0 1024 1024" version="1.1" xmlns="http://www.w3.org/2000/svg"><path d="M597.31 746.676h-127.982a21.38 21.38 0 0 1-19.39-12.438l-42.656-93a21.346 21.346 0 0 1 10.484-28.308c10.718-4.906 23.374-0.188 28.296 10.496l174.748 5.062a21.344 21.344 0 0 1 28.56-9.812c10.562 5.156 14.968 17.938 9.812 28.5l-42.686 87.5c-3.56 7.312-10.998 12-19.186 12z" fill="#4FC2E9" /><path d="M512 746.676h42.688v-121.218l-42.688-1z" fill="#F5F7FA" /><path d="M85.336 428.494c-11.78 0-21.328-9.546-21.328-21.328v-108.498c0-11.782 9.546-21.344 21.328-21.344 1.594 0 39.156 0.062 77.42 5.032 23.374 3.032 42.328 7.344 56.328 12.782 30.514 11.89 36.92 29.562 36.92 42.294 0 11.782-9.546 21.328-21.328 21.328-10.89 0-127.998 48.406-127.998 48.406 0.002 11.782-9.56 21.328-21.342 21.328zM85.336 665.676c-11.78 0-21.328-9.562-21.328-21.312v-117.2c0-11.782 9.546-21.342 21.328-21.342s21.344 9.562 21.344 21.342c0 0 117.108 57.078 127.998 57.078 11.782 0 21.328 9.562 21.328 21.312 0 12.746-6.406 30.434-36.92 42.308-14 5.438-32.954 9.75-56.328 12.782-38.266 4.97-75.828 5.032-77.422 5.032z" fill="#434A54" /><path d="M904.96 344.464c-60.844-30.608-167.278-67.076-328.96-67.076-139.358 0-281.324 18.624-389.494 51.092C32.368 374.76 0.01 431.056 0.01 470.118c0 39.078 32.358 95.374 186.496 141.656 108.17 32.464 250.136 51.09 389.494 51.09 161.684 0 268.118-36.468 328.96-67.058 73.406-36.968 119.03-85.108 119.03-125.686 0-40.564-45.622-88.704-119.03-125.656z" fill="#FFCE54" /><path d="M904.96 344.464a493.4 493.4 0 0 0-30.282-13.936v279.214a503.672 503.672 0 0 0 30.282-13.938c73.406-36.968 119.03-85.108 119.03-125.686 0-40.562-45.622-88.702-119.03-125.654z" fill="#F6BB42" /><path d="M213.334 490.666H85.336c-11.78 0-21.328-9.562-21.328-21.344s9.546-21.328 21.328-21.328h127.998c11.782 0 21.342 9.546 21.342 21.328s-9.56 21.344-21.342 21.344z" fill="#656D78" /><path d="M895.992 447.994c11.782 0 21.312-9.546 21.312-21.328s-9.532-21.342-21.312-21.342H874.68v42.67h21.312zM895.992 533.32c11.782 0 21.312-9.546 21.312-21.328s-9.532-21.328-21.312-21.328H874.68v42.656h21.312z" fill="#FFCE54" /></svg>