<?xml version="1.0" standalone="no"?><!DOCTYPE svg PUBLIC "-//W3C//DTD SVG 1.1//EN" "http://www.w3.org/Graphics/SVG/1.1/DTD/svg11.dtd"><svg class="icon" width="128px" height="128.00px" viewBox="0 0 1024 1024" version="1.1" xmlns="http://www.w3.org/2000/svg"><path d="M889.742 134.236c8.344 8.344 8.312 21.842 0 30.186a21.328 21.328 0 0 1-30.184 0c-8.312-8.344-8.312-21.842 0-30.154 8.344-8.344 21.844-8.344 30.184-0.032zM889.742 390.228c8.344 8.342 8.312 21.842 0 30.186a21.328 21.328 0 0 1-30.184 0c-8.312-8.344-8.312-21.844 0-30.186 8.344-8.312 21.844-8.312 30.184 0z" fill="#F5BA45" /><path d="M784.156 165.484c11.782 0 21.344 9.562 21.344 21.344s-9.562 21.344-21.344 21.344-21.344-9.562-21.344-21.344 9.564-21.344 21.344-21.344zM965.148 346.51c11.782 0 21.344 9.562 21.344 21.312 0 11.812-9.562 21.344-21.344 21.344s-21.312-9.532-21.312-21.344a21.3 21.3 0 0 1 21.312-21.312z" fill="#FECD57" /><path d="M731.562 262.232c8.344-8.312 21.844-8.312 30.188 0.032 8.344 8.312 8.312 21.812 0 30.156-8.344 8.31-21.844 8.342-30.188 0-8.312-8.344-8.312-21.844 0-30.188zM987.554 262.232c8.344-8.312 21.844-8.312 30.188 0 8.312 8.344 8.312 21.844 0 30.188a21.336 21.336 0 0 1-30.188 0c-8.312-8.344-8.312-21.844 0-30.188z" fill="#F5BA45" /><path d="M762.812 367.822c0-11.782 9.562-21.312 21.344-21.312s21.344 9.532 21.344 21.312-9.562 21.344-21.344 21.344-21.344-9.562-21.344-21.344zM943.836 186.828c0-11.782 9.532-21.344 21.312-21.344s21.344 9.562 21.344 21.344-9.562 21.312-21.344 21.312c-11.78 0.032-21.312-9.53-21.312-21.312zM874.652 341.322c-35.282 0-63.996-28.716-63.996-63.996 0-35.282 28.714-63.998 63.996-63.998 35.278 0 63.996 28.716 63.996 63.998 0 35.28-28.718 63.996-63.996 63.996z" fill="#FECD57" /><path d="M874.652 192.016c-47.122 0-85.34 38.186-85.34 85.31 0 47.122 38.218 85.34 85.34 85.34s85.34-38.218 85.34-85.34c0-47.124-38.218-85.31-85.34-85.31z m0 127.996c-23.532 0-42.652-19.156-42.652-42.686 0-23.532 19.122-42.656 42.652-42.656 23.528 0 42.652 19.126 42.652 42.656 0 23.53-19.124 42.686-42.652 42.686z" fill="#F5BA45" /><path d="M315.984 717.032c-0.032-0.032-0.032-0.032-0.032-0.062l-104.436-234.962c-0.032-0.062-0.094-0.126-0.126-0.188a21.086 21.086 0 0 0-10.718-10.656c-10.748-4.782-23.374 0.062-28.154 10.844L1.868 865.996c-4.78 10.75 0.062 23.342 10.812 28.154 2.844 1.25 5.782 1.844 8.656 1.844 8.188 0 15.968-4.75 19.5-12.686l60.748-136.654h180.87l60.716 136.654a21.392 21.392 0 0 0 19.53 12.686 21.22 21.22 0 0 0 8.626-1.844c10.782-4.812 15.626-17.404 10.844-28.154l-66.186-148.964z m-195.434-13.064l71.468-160.776 71.466 160.776H120.55zM832 469.318c-6.906 0-13.032 3.312-16.938 8.376l-175.058 194.4-176.152-195.712c-0.032-0.062-0.094-0.094-0.156-0.126-3.906-4.25-9.468-6.938-15.688-6.938-11.78 0-21.342 9.562-21.342 21.344v383.99c0 11.78 9.562 21.31 21.342 21.31 11.782 0 21.344-9.532 21.344-21.31V546.256l154.776 171.994c0.5 0.562 1.032 1.094 1.594 1.594l0.032 0.032c0.156 0.126 0.312 0.25 0.5 0.376 0.376 0.344 0.782 0.656 1.188 0.968 0.218 0.156 0.468 0.312 0.718 0.5 0.344 0.218 0.718 0.468 1.062 0.656 0.25 0.156 0.532 0.282 0.782 0.438l1.126 0.562c0.25 0.126 0.5 0.218 0.75 0.312 0.406 0.188 0.812 0.342 1.25 0.466 0.25 0.094 0.468 0.156 0.718 0.25 0.438 0.126 0.906 0.25 1.344 0.344 0.218 0.062 0.438 0.094 0.688 0.156 0.5 0.094 1 0.156 1.5 0.218l0.562 0.094c0.688 0.062 1.376 0.094 2.062 0.094 5.844 0 11.626-2.374 15.844-7.06l154.808-171.9v328.302c0 11.78 9.562 21.31 21.344 21.31a21.298 21.298 0 0 0 21.308-21.31V490.662c0-11.782-9.53-21.344-21.308-21.344z" fill="#D94452" /></svg>