<?xml version="1.0" standalone="no"?><!DOCTYPE svg PUBLIC "-//W3C//DTD SVG 1.1//EN" "http://www.w3.org/Graphics/SVG/1.1/DTD/svg11.dtd"><svg class="icon" width="128px" height="128.00px" viewBox="0 0 1024 1024" version="1.1" xmlns="http://www.w3.org/2000/svg"><path d="M721.966 870.858c0-170.666-90.786-465.592-202.814-465.592-111.996 0-202.812 294.926-202.812 465.592 0 170.668 90.816 152.422 202.812 152.422 112.03 0 202.814 18.246 202.814-152.422z" fill="#CBD0D8" /><path d="M764.454 725.152h-480.54l97.25-170.51 297.972 0.126z" fill="#E5E8EC" /><path d="M1011.378 453.22c0 168.152-223.59 155.874-499.378 155.874-275.792 0-499.378 12.278-499.378-155.874S236.208 0.156 512 0.156c275.79 0 499.378 284.912 499.378 453.064z" fill="#EC5564" /><path d="M469.356 609.094c-27.054 0-53.578 0.094-79.476 0.156 32.458 0.094 66.166-0.094 100.812-0.156h-21.336zM512 0.156c-7.154 0-14.246 0.202-21.306 0.578 265.888 14.104 478.04 288.692 478.04 452.486 0 142.472-160.48 155.406-377.258 156.03 238.02 0.5 419.902-4.374 419.902-156.03C1011.378 285.068 787.79 0.156 512 0.156z" fill="#FFFFFF" opacity=".2" /><path d="M877.386 305.436c33.554 33.552 40.458 81.07 15.402 106.108-25.054 25.054-72.54 18.15-106.124-15.402-33.552-33.568-40.426-81.07-15.4-106.108 25.056-25.054 72.572-18.15 106.122 15.402zM463.42 85.316c47.454-0.422 86.192 27.944 86.504 63.356 0.344 35.426-37.894 64.48-85.318 64.918-47.454 0.422-86.192-27.944-86.504-63.356-0.342-35.426 37.864-64.48 85.318-64.918zM189.598 292.894c44.612-38.426 99.5-47.814 122.62-20.994 23.118 26.834 5.716 79.742-38.864 118.166-44.612 38.426-99.5 47.814-122.62 20.978-23.116-26.836-5.716-79.724 38.864-118.15zM630.744 405.266c0-58.874-47.706-106.578-106.56-106.578-58.858 0-106.592 47.704-106.592 106.578 0 58.858 47.736 106.562 106.592 106.562s106.56-47.704 106.56-106.562zM694.694 192.268c0 11.778-9.53 21.322-21.306 21.322s-21.304-9.544-21.304-21.322c0-11.762 9.528-21.306 21.304-21.306s21.306 9.544 21.306 21.306zM311.03 490.676c0 11.778-9.528 21.322-21.306 21.322s-21.336-9.544-21.336-21.322c0-11.762 9.56-21.306 21.336-21.306s21.306 9.546 21.306 21.306zM758.642 490.676c0 11.778-9.53 21.322-21.306 21.322s-21.304-9.544-21.304-21.322c0-11.762 9.528-21.306 21.304-21.306s21.306 9.546 21.306 21.306z" fill="#E5E8EC" /></svg>