<?xml version="1.0" standalone="no"?><!DOCTYPE svg PUBLIC "-//W3C//DTD SVG 1.1//EN" "http://www.w3.org/Graphics/SVG/1.1/DTD/svg11.dtd"><svg class="icon" width="128px" height="128.00px" viewBox="0 0 1024 1024" version="1.1" xmlns="http://www.w3.org/2000/svg"><path d="M917.086 512.024h-95.94v42.644h95.94c11.774 0 21.328-9.556 21.328-21.346 0-11.774-9.554-21.298-21.328-21.298z" fill="#F6BB42" /><path d="M817.492 618.626H85.618S0.328 563.224 0.328 533.322c0-29.886 85.29-85.258 85.29-85.258h731.876v170.562z" fill="#A85D5D" /><path d="M1002.376 426.734h-191.878c-11.774 0-21.328 9.556-21.328 21.33v170.562c0 11.742 9.554 21.298 21.328 21.298h191.878c11.774 0 21.296-9.556 21.296-21.298v-170.562c0-11.772-9.524-21.33-21.296-21.33z m-21.334 170.532h-149.246v-127.902h149.246v127.902z" fill="#FFCE54" /><path d="M277.494 426.734m-63.958 0a63.958 63.958 0 1 0 127.916 0 63.958 63.958 0 1 0-127.916 0Z" fill="#F6BB42" /><path d="M341.454 639.926c0 11.804-9.526 21.298-21.33 21.298h-85.258c-11.774 0-21.33-9.494-21.33-21.298V426.734h127.918v213.192z" fill="#FFCE54" /><path d="M512 426.734c0 35.32-28.606 63.958-63.958 63.958-35.322 0-63.958-28.638-63.958-63.958 0-35.322 28.638-63.958 63.958-63.958 35.352 0 63.958 28.638 63.958 63.958z" fill="#F6BB42" /><path d="M512 639.926a21.264 21.264 0 0 1-21.298 21.298h-85.29c-11.774 0-21.33-9.494-21.33-21.298V426.734H512v213.192z" fill="#FFCE54" /><path d="M681.016 426.734c0 35.32-28.606 63.958-63.958 63.958-35.32 0-63.96-28.638-63.96-63.958 0-35.322 28.64-63.958 63.96-63.958 35.352 0 63.958 28.638 63.958 63.958z" fill="#F6BB42" /><path d="M681.016 639.926a21.264 21.264 0 0 1-21.296 21.298h-85.29c-11.774 0-21.332-9.494-21.332-21.298V426.734h127.918v213.192z" fill="#FFCE54" /></svg>