<?xml version="1.0" standalone="no"?><!DOCTYPE svg PUBLIC "-//W3C//DTD SVG 1.1//EN" "http://www.w3.org/Graphics/SVG/1.1/DTD/svg11.dtd"><svg class="icon" width="128px" height="128.00px" viewBox="0 0 1024 1024" version="1.1" xmlns="http://www.w3.org/2000/svg"><path d="M597.34 229.446c-14.844-93.968-21.344-155.686-21.344-165.436C575.996 28.668 547.344 0.012 512 0.012s-64 28.656-64 63.998c0 9.75-6.5 71.466-21.342 165.436-27.718 175.9 42.718 197.212 42.718 197.212l42.624 0.156 42.622-0.156s70.436-21.312 42.718-197.212z" fill="#CCD1D9" /><path d="M639.996 469.312l-60.468-63.998h-135.058l-60.466 63.998V981.3c0 23.562 19.092 42.688 42.656 42.688h170.682c23.562 0 42.656-19.124 42.656-42.688V469.312z" fill="#E6E9ED" /><path d="M395.066 479.75a628.79 628.79 0 0 0-11.062-9.406V981.3c0 23.562 19.092 42.688 42.656 42.688h170.682c23.562 0 42.656-19.124 42.656-42.688V559.998c-20.156 6.844-39.656 10-58.656 10-65.842 0-125.716-37.686-186.276-90.248z" fill="#48CFAD" /><path d="M579.528 405.314h-42.652l60.464 63.998V981.3c0 23.562-19.124 42.688-42.688 42.688h42.688c23.562 0 42.656-19.124 42.656-42.688V469.312l-60.468-63.998z" fill="#FFFFFF" opacity=".2" /></svg>