<?xml version="1.0" standalone="no"?><!DOCTYPE svg PUBLIC "-//W3C//DTD SVG 1.1//EN" "http://www.w3.org/Graphics/SVG/1.1/DTD/svg11.dtd"><svg class="icon" width="128px" height="128.00px" viewBox="0 0 1024 1024" version="1.1" xmlns="http://www.w3.org/2000/svg"><path d="M212.008 1002.676L150.792 64.01h722.416l-61.214 938.666z" fill="#F5F7FA" /><path d="M212.008 1002.676h599.986l33.874-519.114c-22.186 28.438-52.404 53.25-89.436 71.374-35.688 17.5-69.404 25.25-101.808 25.25-71.688 0-136.874-37.686-202.84-90.248-60.53-48.312-130.124-88.748-206.058-88.748-23.466 0-47.53 3.876-72.154 12.562l38.436 588.924z" fill="#FFCE54" /><path d="M245.724 443.812c75.936 0 145.53 40.5 206.058 88.75 65.966 52.56 131.152 90.246 202.84 90.246 32.404 0 66.122-7.688 101.808-25.188 35.406-17.31 64.532-40.81 86.404-67.622l3.032-46.438c-22.186 28.438-52.404 53.25-89.436 71.374-35.688 17.5-69.404 25.25-101.808 25.25-71.688 0-136.874-37.686-202.84-90.248-60.53-48.312-130.124-88.748-206.058-88.748-23.466 0-47.53 3.876-72.154 12.562l2.75 41.748c23.626-8.06 46.812-11.686 69.404-11.686z" fill="#FFFFFF" opacity=".2" /><path d="M128.01 42.698l63.998 981.292h639.984l63.998-981.292H128.01zM792.026 981.3H231.976L173.54 85.322h676.92L792.026 981.3z" fill="#E6E9ED" /><path d="M917.334 0.012H106.666c-11.718 0-21.312 9.624-21.312 21.312V149.32c0 11.75 9.594 21.376 21.312 21.376h810.668c11.718 0 21.312-9.624 21.312-21.376V21.324c0-11.688-9.594-21.312-21.312-21.312z" fill="#656D78" /><path d="M192.008 21.324c11.782 0 21.344-9.5 21.344-21.312H170.664c0 11.812 9.562 21.312 21.344 21.312zM320.004 21.324c11.782 0 21.344-9.5 21.344-21.312h-42.686c0 11.812 9.562 21.312 21.342 21.312zM448.002 21.324c11.782 0 21.344-9.5 21.344-21.312h-42.688c0 11.812 9.562 21.312 21.344 21.312zM575.998 21.324c11.782 0 21.344-9.5 21.344-21.312h-42.688c0 11.812 9.562 21.312 21.344 21.312zM703.996 21.324c11.78 0 21.342-9.5 21.342-21.312h-42.686c0 11.812 9.562 21.312 21.344 21.312zM831.992 21.324c11.782 0 21.344-9.5 21.344-21.312h-42.686c0 11.812 9.562 21.312 21.342 21.312z" fill="#434A54" /></svg>