<?xml version="1.0" standalone="no"?><!DOCTYPE svg PUBLIC "-//W3C//DTD SVG 1.1//EN" "http://www.w3.org/Graphics/SVG/1.1/DTD/svg11.dtd"><svg class="icon" width="128px" height="128.00px" viewBox="0 0 1024 1024" version="1.1" xmlns="http://www.w3.org/2000/svg"><path d="M967.718 492.156C882.844 402.594 710.624 341.312 512 341.312S141.156 402.594 56.282 492.156H0v126.5C0 771.844 229.218 896 512 896s512-124.156 512-277.344v-126.5h-56.282z" fill="#656D78" /><path d="M128.376 802.344c13.376 8.188 27.624 15.938 42.656 23.218v-122H128.376v98.782zM256 858.906a750.652 750.652 0 0 0 42.656 11.938v-118.406H256v106.468zM725.344 870.844A747.35 747.35 0 0 0 768 858.906v-106.468h-42.656v118.406zM853.344 825.376c15.032-7.282 29.282-15.062 42.656-23.282v-103.656h-42.656v126.938zM405.344 889.968c14 1.594 28.25 2.906 42.656 3.876v-111.188h-42.656v107.312zM576 893.844a926.392 926.392 0 0 0 42.656-3.876v-104.624H576v108.5z" fill="#434A54" /><path d="M966.312 405.344C880.938 316.594 709.532 256 512 256S143.062 316.594 57.688 405.344H0v128c0 153.156 229.218 277.312 512 277.312s512-124.156 512-277.312v-128h-57.688z" fill="#F6BB42" /><path d="M1024 405.344c0 153.156-229.218 277.312-512 277.312S0 558.5 0 405.344C0 252.156 229.218 128 512 128s512 124.156 512 277.344z" fill="#FFCE54" /><path d="M725.344 426.876c0-35.468-38.218-64.188-85.344-64.188-38.906 0-71.688 19.562-81.968 46.344a335.93 335.93 0 0 0-46.062-3.156c-94.282 0-170.688 38.156-170.688 85.25 0 47.062 76.406 85.218 170.688 85.218s170.688-38.156 170.688-85.218c0-2.812-0.282-5.562-0.782-8.282 25.936-11.032 43.468-31.938 43.468-55.968z" fill="#DA4453" /><path d="M682.656 491.124c0 47.062-76.406 85.218-170.688 85.218s-170.688-38.156-170.688-85.218c0-47.094 76.406-85.25 170.688-85.25s170.688 38.158 170.688 85.25z" fill="#ED5564" /></svg>