<?xml version="1.0" standalone="no"?><!DOCTYPE svg PUBLIC "-//W3C//DTD SVG 1.1//EN" "http://www.w3.org/Graphics/SVG/1.1/DTD/svg11.dtd"><svg class="icon" width="128px" height="128.00px" viewBox="0 0 1024 1024" version="1.1" xmlns="http://www.w3.org/2000/svg"><path d="M682.648 959.89H341.382l42.522-213.14 256.132-0.062z" fill="#CCD1D9" /><path d="M1023.882 767.934c0 11.746-9.528 21.308-21.306 21.308H21.458c-11.78 0-21.34-9.562-21.34-21.308V85.418c0-11.778 9.56-21.308 21.34-21.308h981.12c11.78 0 21.306 9.53 21.306 21.308v682.516z" fill="#4FC2E9" /><path d="M0.118 704.074v63.984c0 11.746 9.56 21.308 21.34 21.308h981.12c11.78 0 21.306-9.562 21.306-21.308v-63.984H0.118z" fill="#E6E9ED" /><path d="M533.34 746.624c0 11.75-9.56 21.308-21.34 21.308-11.778 0-21.306-9.558-21.306-21.308 0-11.808 9.53-21.368 21.306-21.368 11.78 0.002 21.34 9.56 21.34 21.368z" fill="#434A54" /><path d="M682.648 917.21H341.382c-11.778 0-21.338 9.562-21.338 21.372 0 11.746 9.56 21.308 21.338 21.308h341.266c11.78 0 21.308-9.562 21.308-21.308 0.002-11.808-9.528-21.372-21.308-21.372z" fill="#E6E9ED" /><path d="M618.664 362.824c-11.778 0-21.34 9.56-21.34 21.338v127.814h42.648v-127.814c0-11.778-9.53-21.338-21.308-21.338z" fill="#FFCE54" /><path d="M703.958 256.066a21.294 21.294 0 0 0-21.308 21.308v230.604h42.648V277.374c-0.002-11.78-9.564-21.308-21.34-21.308z" fill="#FC6E51" /><path d="M789.282 320.052c-11.778 0-21.34 9.53-21.34 21.308v157.308h42.68V341.36c0-11.778-9.564-21.308-21.34-21.308z" fill="#A0D468" /><path d="M874.606 192.082c-11.778 0-21.34 9.53-21.34 21.308v298.588h42.648V213.388a21.294 21.294 0 0 0-21.308-21.306z" fill="#ED5564" /><path d="M181.42 175.148c91.822-52.988 209.202-21.526 262.19 70.266s21.558 209.17-70.266 262.158c-91.792 52.972-209.17 21.558-262.158-70.234C58.198 345.546 89.628 228.166 181.42 175.148z" fill="#FFCE54" /><path d="M917.252 490.668H575.986a21.292 21.292 0 0 0-21.306 21.308c0 11.808 9.528 21.34 21.306 21.34h341.266c11.78 0 21.338-9.532 21.338-21.34 0-11.778-9.558-21.308-21.338-21.308z" fill="#656D78" /><path d="M448.016 575.976H106.75c-11.78 0-21.34 9.562-21.34 21.308 0 11.808 9.56 21.372 21.34 21.372h341.266c11.778 0 21.338-9.562 21.338-21.372 0-11.744-9.562-21.308-21.338-21.308zM917.252 575.976H575.986c-11.78 0-21.306 9.562-21.306 21.308 0 11.808 9.528 21.372 21.306 21.372h341.266c11.78 0 21.338-9.562 21.338-21.372 0-11.744-9.558-21.308-21.338-21.308z" fill="#434A54" /><path d="M443.64 437.336c33.054-57.424 35.492-130.408-0.032-191.924-35.492-61.518-99.914-95.916-166.148-96.01v192.018l166.18 95.916z" fill="#ED5564" /></svg>