<?xml version="1.0" standalone="no"?><!DOCTYPE svg PUBLIC "-//W3C//DTD SVG 1.1//EN" "http://www.w3.org/Graphics/SVG/1.1/DTD/svg11.dtd"><svg class="icon" width="128px" height="128.00px" viewBox="0 0 1024 1024" version="1.1" xmlns="http://www.w3.org/2000/svg"><path d="M53.34 981.342h810.656v42.656H53.34z" fill="#CCD1D9" /><path d="M863.996 981.342H53.34l64-298.688h682.656z" fill="#E6E9ED" /><path d="M610.652 831.998c0 35.344-68.062 64-152 64s-152-28.656-152-64 68.062-64 152-64 152 28.656 152 64z" fill="#4A89DC" /><path d="M873.902 6.248l90.5 90.5-400.156 400.156-105.594 15.094 15.126-105.594z" fill="#E6E9ED" /><path d="M458.652 554.654c-4.624 3.718-63.938 53.968-62.438 106.718 0.438 38.532 27.876 63.218 62.438 63.968 34.624-0.75 62-25.438 62.438-63.968 1.5-52.748-57.75-102.998-62.438-106.718z" fill="#4A89DC" /><path d="M624.152 255.998l-150.374 150.406-15.126 105.594 105.594-15.094 240.906-240.906z" fill="#5D9CEC" /><path d="M949.308 133.186a21.276 21.276 0 0 1-15.062-6.25l-90.532-90.5c-8.312-8.376-8.312-21.876 0-30.188 8.344-8.312 21.844-8.344 30.188 0l90.5 90.5a21.332 21.332 0 0 1 0 30.188 21.296 21.296 0 0 1-15.094 6.25z" fill="#CCD1D9" /><path d="M488.84 421.498L888.964 21.31l-15.062-15.062-400.124 400.156-15.126 105.594 17.626-2.532z" fill="#FFFFFF" opacity=".2" /></svg>