<?xml version="1.0" standalone="no"?><!DOCTYPE svg PUBLIC "-//W3C//DTD SVG 1.1//EN" "http://www.w3.org/Graphics/SVG/1.1/DTD/svg11.dtd"><svg class="icon" width="128px" height="128.00px" viewBox="0 0 1024 1024" version="1.1" xmlns="http://www.w3.org/2000/svg"><path d="M989.29956 595.188c-0.656-2-5.124-64-5.124-64l-152.84 27.594-74.656 11.75-504.956-6-220.34-27.344-4.656 40 8.656 31.996 32.686 49.344-4.688 49.312 51.344 52.5 28 33.496 42 61.344 665.392-7.344s9.216-10.656 9.216-12.652c0-2 13.312-42.66 13.312-42.66s55.344-43.34 57.344-45.34 30-41.344 30-45.344c0-4.032-4-51.312-4-51.312s33.996-53.34 33.31-55.34z" fill="#E6E9ED" /><path d="M326.43756 701.84c-11.78 0-21.312-9.562-21.312-21.344 0-44.376-14.906-71.718-48.28-88.684-31.906-16.218-76.092-20.594-118.778-24.782-34.218-3.376-66.968-6.624-94.124-15.782-2.344 15.094-2.438 35.688 8.5 53.434 15.656 25.376 50.374 40.218 103.154 44.156 1.688 0.156 6.344 0.282 9.75 0.406 2.532 0.062 4.844 0.156 6.28 0.218 11.782 0.532 20.876 10.532 20.312 22.312-0.532 11.75-10.532 20.876-22.312 20.312-1.282-0.062-3.376-0.124-5.656-0.218-5.218-0.156-9.124-0.282-11.562-0.468-67.436-5.062-113.342-26.812-136.498-64.688-31.344-51.308-6.844-110.872-5.782-113.402a21.296 21.296 0 0 1 13.03-11.968 21.22 21.22 0 0 1 17.594 1.968c22.406 13.436 60.812 17.25 101.466 21.25 46.656 4.594 94.874 9.344 133.966 29.218 47.498 24.124 71.592 66.778 71.592 126.714 0.004 11.786-9.558 21.348-21.34 21.348z" fill="#CCD1D9" /><path d="M213.31556 798.742h-0.688l-2.5-0.062c-7.312-0.25-17.312-0.532-23.03-1-63.686-4.968-107.624-25.406-130.528-60.778-29.094-44.876-11.562-95.468-10.812-97.594l40.188 14.344 0.062-0.124c-0.124 0.312-11.158 33.5 6.562 60.468 15.186 23.124 49.03 37.344 97.84 41.156 4.718 0.376 14.906 0.688 21.03 0.876l2.532 0.094c11.782 0.344 21.032 10.184 20.656 21.964a21.328 21.328 0 0 1-21.312 20.656z" fill="#CCD1D9" /><path d="M289.43956 888.054c-75.28 0-126.028-17.75-151.402-53.058-21.53-30.004-16.75-63.222-11.062-74.624l38.156 19.09c0.376-0.718 0.5-1.156 0.532-1.188-0.062 0.188-4.906 17.75 9.156 34.594 15.062 17.972 61.156 45.282 200.59 25.876l5.876 42.25c-33.848 4.716-64.472 7.06-91.846 7.06zM697.55356 701.84c-11.782 0-21.312-9.562-21.312-21.344 0-59.938 24.094-102.59 71.592-126.714 39.062-19.876 87.312-24.624 133.936-29.218 40.688-4 79.094-7.812 101.466-21.25a21.226 21.226 0 0 1 17.594-1.968 21.352 21.352 0 0 1 13.06 11.968c1.032 2.53 25.562 62.092-5.782 113.402-23.154 37.876-69.09 59.624-136.528 64.688-2.406 0.188-6.312 0.312-11.562 0.468-2.282 0.094-4.376 0.156-5.656 0.218-11.748 0.562-21.748-8.562-22.31-20.312-0.532-11.782 8.562-21.782 20.344-22.312 1.436-0.062 3.748-0.156 6.28-0.218 3.376-0.124 8.032-0.25 9.718-0.406 52.812-3.938 87.5-18.782 103.154-44.156 10.968-17.714 10.876-38.34 8.532-53.434-27.186 9.156-59.936 12.406-94.124 15.782-42.716 4.188-86.874 8.562-118.81 24.782-33.376 16.964-48.25 44.308-48.25 88.684 0 11.778-9.562 21.34-21.342 21.34z" fill="#CCD1D9" /><path d="M810.70956 798.742c-11.468 0-20.968-9.094-21.312-20.656-0.376-11.782 8.876-21.622 20.656-21.964l2.532-0.094c6.094-0.188 16.312-0.5 21-0.876 49.03-3.812 82.904-18.156 98.03-41.468 17.532-27 6.562-59.906 6.438-60.218-3.938-11.094 1.844-23.312 12.938-27.25 11.094-3.968 23.31 1.844 27.248 12.938 0.782 2.124 18.312 52.812-10.812 97.75-22.966 35.372-66.874 55.808-130.528 60.778-5.688 0.468-15.688 0.75-23 1l-2.5 0.062-0.69-0.002z" fill="#CCD1D9" /><path d="M734.55156 888.054c-27.376 0-57.998-2.344-91.808-7.062l5.876-42.25c139.402 19.406 185.496-7.902 200.558-25.906 14.092-16.844 9.248-34.406 9.186-34.594 0 0 0.156 0.438 0.5 1.188l38.156-19.09c5.718 11.372 10.5 44.622-11.062 74.656-25.376 35.308-76.124 53.058-151.406 53.058z" fill="#CCD1D9" /><path d="M512.05956 158.978c-58.342 0-113.372-4.594-154.996-12.906-37.092-7.406-79.654-19.936-79.654-51.092s42.562-43.656 79.654-51.092c41.624-8.312 96.654-12.906 154.996-12.906 58.34 0 113.404 4.594 155.026 12.906 37.06 7.438 79.624 19.938 79.624 51.092 0 31.156-42.562 43.688-79.624 51.092-41.622 8.312-96.686 12.906-155.026 12.906z m-181.058-64c9.062 3.438 23.938 7.718 47.906 11.718 37.092 6.188 84.404 9.624 133.152 9.624 48.778 0 96.06-3.438 133.184-9.624 23.966-4 38.842-8.282 47.904-11.718-9.062-3.438-23.938-7.718-47.904-11.718-37.094-6.188-84.406-9.626-133.184-9.626-48.748 0-96.06 3.438-133.152 9.626-23.97 4-38.844 8.282-47.906 11.718z" fill="#FFCE54" /><path d="M761.52156 814.898H262.59556S132.56756 209.102 512.05756 209.102c379.492 0 249.464 605.796 249.464 605.796z" fill="#E2A437" /><path d="M792.08356 800.648l-2.782-0.812c-40.532-10.876-54.218-21.344-72.282-28.188-63.996-24.402-80.652-41.964-84.902-50.246a11.55 11.55 0 0 1-0.406-0.938l-0.532-74.344-119.122-1.718-119.122 1.718-0.532 74.344a12.192 12.192 0 0 1-0.406 0.938c-4.25 8.282-20.906 25.844-84.906 50.246-18.032 6.844-31.75 17.312-72.248 28.188l-2.782 0.812c-36.906 12.188-61.716 46.406-61.716 85.032v107.34h683.452v-107.34c0.002-38.626-24.838-72.844-61.714-85.032z" fill="#DBADA2" /><path d="M722.67756 501.594c0 136.838-130.464 262.772-210.618 262.772s-210.588-125.934-210.588-262.772c0-136.84 94.28-227.12 210.588-227.12 116.31 0 210.618 90.28 210.618 227.12z" fill="#EAC6BB" /><path d="M559.77556 339.222l216.402 147.716c-19.282-142.654-84.842-277.836-264.118-277.836l47.716 130.12z" fill="#F6BB42" /><path d="M527.40156 402.69c69.936-50.28 130.124-99.716 161.058-125.872-40.592-41.5-97.466-67.716-176.402-67.716-209.37 0-263.65 184.37-270.244 349.68 72.626-19.532 168.404-71.874 285.588-156.092z" fill="#FFCE54" /></svg>