<?xml version="1.0" standalone="no"?><!DOCTYPE svg PUBLIC "-//W3C//DTD SVG 1.1//EN" "http://www.w3.org/Graphics/SVG/1.1/DTD/svg11.dtd"><svg class="icon" width="128px" height="128.00px" viewBox="0 0 1024 1024" version="1.1" xmlns="http://www.w3.org/2000/svg"><path d="M789.338583 938.687666H21.321584V0.002h597.364332l170.652667 170.714666z" fill="#E6E9ED" /><path d="M618.685916 170.716666h170.652667L618.685916 0.002z" fill="#CCD1D9" /><path d="M639.9975 512.024H170.662667c-11.78177 0-21.343583 9.531814-21.343583 21.311583 0 11.79577 9.561813 21.359583 21.343583 21.359583H639.9975c11.78177 0 21.343583-9.561813 21.343583-21.359583 0-11.78177-9.561813-21.311584-21.343583-21.311583zM280.348524 245.623203l64.404743 107.559899 36.593285-21.905572-64.374743-107.559899-0.031999 0.031999c-3.717927-6.217879-10.499795-10.405797-18.281643-10.405797-11.78177 0-21.343583 9.561813-21.343583 21.343583 0 3.999922 1.123978 7.749849 3.06194 10.937787h-0.028zM530.499639 245.623203h-0.032a21.00959 21.00959 0 0 0 3.061941-10.937787c0-11.78177-9.561813-21.343583-21.343584-21.343583-7.781848 0-14.561716 4.187918-18.281643 10.375798h-0.031999l-64.374743 107.559899 36.623285 21.905572 64.378743-107.559899zM170.850663 387.120439c0.375993 2.623949 10.2498 64.716736 74.622543 88.874264l14.967707-39.967219c-40.343212-15.123705-47.155079-53.654952-47.405074-55.31092l0.032 0.187996h-0.032c-1.499971-10.311799-10.375797-18.217644-21.093588-18.217644a21.299584 21.299584 0 0 0-21.311584 21.311584c0 1.061979 0.093998 2.093959 0.249995 3.123939h-0.029999zM639.779504 387.120439h-0.031999c0.155997-0.99998 0.249995-2.06196 0.249995-3.09394 0-11.811769-9.561813-21.343583-21.343583-21.343583-10.717791 0-19.561618 7.905846-21.061589 18.217645h-0.031999c-0.061999 0.375993-6.311877 39.717224-47.405074 55.122923l14.999707 39.967219c64.342743-24.153528 74.21855-86.246316 74.624542-88.870264zM618.435921 700.878311c-0.375993-2.623949-10.2498-64.686737-74.622542-88.874264l-14.999707 39.999219c40.375211 15.123705 47.187078 53.622953 47.437073 55.310919l-0.031999-0.187996h0.031999a21.265585 21.265585 0 0 0 21.093588 18.187645c11.78177 0 21.311584-9.499814 21.311584-21.311584 0-1.061979-0.093998-2.06196-0.249995-3.123939h0.029999zM192.224246 700.878311h0.031999a21.081588 21.081588 0 0 0-0.249995 3.123939 21.279584 21.279584 0 0 0 21.311584 21.311584c10.74979 0 19.593617-7.875846 21.093588-18.187645h0.031999c0.061999-0.375993 6.311877-39.749224 47.375075-55.122923l-14.967708-39.999219c-64.376743 24.189528-74.22055 86.250315-74.626542 88.874264z" fill="#434A54" /><path d="M575.874752 490.680416c0 129.575469-48.717048 234.635417-170.558668 234.635418-121.809621 0-170.528669-105.059948-170.52867-234.635418 0-129.591469 63.404762-191.99625 170.52867-191.99625 107.151907 0 170.558669 62.404781 170.558668 191.99625z" fill="#ED5564" /><path d="M564.060983 405.338083h-317.493799c-4.155919 12.999746-7.249858 27.217468-9.21782 42.655167H384.0025v276.198606c6.843866 0.749985 13.937728 1.123978 21.311584 1.123978 7.405855 0 14.499717-0.375993 21.343583-1.123978V447.99325h146.653136c-1.967962-15.437698-5.061901-29.655421-9.24982-42.655167z" fill="#DA4453" /><path d="M1002.552419 534.491561c0-5.999883-4.811906-10.875788-10.687791-10.905787-48.781047-1.875963-171.184657-14.687713-259.212938-93.904166l-1.781965-0.999981 0.093998-0.343993a11.475776 11.475776 0 0 0-5.717888-1.655968c-2.531951 0.031999-5.1239 1.061979-7.123861 2.875944-88.154278 79.34245-210.557888 92.1542-259.088939 94.030164a10.969786 10.969786 0 0 0-10.967786 10.905787l-0.093998 2.811945c8.061843 223.511635 145.215164 396.882248 271.276701 484.818531 1.811965 1.249976 3.937923 1.875963 6.061882 1.875963s4.249917-0.623988 6.031882-1.875963l1.749966-1.123978c125.747544-88.498272 261.932884-261.682889 269.588734-484.630535l-0.127997-1.877963z" fill="#FFCE54" /><path d="M746.651417 618.693916c0-11.811769-9.561813-21.375583-21.343583-21.375582S703.99625 606.880147 703.99625 618.693916v213.307834c0 11.811769 9.531814 21.311584 21.311584 21.311584s21.343583-9.499814 21.343583-21.311584V618.693916z" fill="#F6BB42" /></svg>