<?xml version="1.0" standalone="no"?><!DOCTYPE svg PUBLIC "-//W3C//DTD SVG 1.1//EN" "http://www.w3.org/Graphics/SVG/1.1/DTD/svg11.dtd"><svg class="icon" width="128px" height="128.00px" viewBox="0 0 1024 1024" version="1.1" xmlns="http://www.w3.org/2000/svg"><path d="M501.43 130.902L352.09 18.92a21.326 21.326 0 0 0-21.498 0L138.596 130.902a21.38 21.38 0 0 0-10.576 18.436v853.334c0 11.782 9.544 21.312 21.326 21.312H490.68c11.782 0 21.328-9.532 21.328-21.312V149.338a21.38 21.38 0 0 0-10.578-18.436z" fill="#EC87C0" /><path d="M405.338 725.336h-170.65c-11.782 0-21.344 9.562-21.344 21.344v277.304h213.338V746.68c0-11.782-9.562-21.344-21.344-21.344z" fill="#E6E9ED" /><path d="M298.686 874.676c0 11.782-9.562 21.312-21.344 21.312-11.78 0-21.326-9.532-21.326-21.312s9.546-21.342 21.326-21.342c11.782 0 21.344 9.56 21.344 21.342zM520.68 87.184L328.686 1.844a21.44 21.44 0 0 0-17.328 0l-192.01 85.34c-7.704 3.406-12.656 11.062-12.656 19.5v85.31c0 7.218 3.64 13.968 9.704 17.906a21.32 21.32 0 0 0 20.294 1.594l183.324-81.466 183.322 81.466c2.782 1.25 5.734 1.844 8.672 1.844 4.062 0 8.11-1.156 11.624-3.438a21.348 21.348 0 0 0 9.704-17.906V106.684c0-8.436-4.954-16.094-12.656-19.5z" fill="#434A54" /><path d="M234.688 277.334h170.65v213.338h-170.65z" fill="#5D9CEC" /><path d="M405.338 511.986h-170.65c-11.782 0-21.344-9.532-21.344-21.312v-213.34c0-11.78 9.562-21.342 21.344-21.342h170.65c11.782 0 21.344 9.562 21.344 21.342v213.338c0 11.782-9.562 21.314-21.344 21.314z m-149.322-42.656h127.996v-170.652h-127.996v170.652z" fill="#E6E9ED" /><path d="M426.682 511.986H213.344c-11.78 0-21.326-9.532-21.326-21.312s9.546-21.342 21.326-21.342h213.338c11.782 0 21.328 9.562 21.328 21.342s-9.548 21.312-21.328 21.312z" fill="#F5F7FA" /><path d="M128.02 597.34h383.988v42.656H128.02z" fill="#D770AD" /><path d="M885.434 130.902L736.062 18.92c-6.624-3.876-14.812-3.876-21.5 0l-191.976 111.982a21.376 21.376 0 0 0-10.578 18.436v853.334c0 11.782 9.546 21.312 21.328 21.312h341.348c11.75 0 21.312-9.532 21.312-21.312V149.338c0-7.592-4.032-14.592-10.562-18.436z" fill="#AC92EB" /><path d="M789.312 725.336h-170.622c-11.812 0-21.376 9.562-21.376 21.344v277.304h213.37V746.68c0.002-11.782-9.56-21.344-21.372-21.344z" fill="#E6E9ED" /><path d="M682.69 874.676c0 11.782-9.56 21.312-21.374 21.312-11.75 0-21.312-9.532-21.312-21.312s9.562-21.342 21.312-21.342c11.812 0 21.374 9.56 21.374 21.342zM904.684 87.184L712.688 1.844a21.474 21.474 0 0 0-17.342 0l-192.01 85.34c-7.704 3.406-12.656 11.062-12.656 19.5v85.31c0 7.218 3.64 13.968 9.704 17.906a21.322 21.322 0 0 0 20.296 1.594l183.322-81.466 183.306 81.466c2.812 1.25 5.75 1.844 8.688 1.844 4.062 0 8.124-1.156 11.624-3.438a21.332 21.332 0 0 0 9.688-17.906V106.684c0-8.436-4.936-16.094-12.624-19.5z" fill="#434A54" /><path d="M618.692 277.334h170.622v213.338h-170.622z" fill="#5D9CEC" /><path d="M789.312 511.986h-170.622c-11.812 0-21.376-9.532-21.376-21.312v-213.34c0-11.78 9.562-21.342 21.376-21.342h170.622c11.812 0 21.374 9.562 21.374 21.342v213.338c0 11.782-9.562 21.314-21.374 21.314z m-149.308-42.656H768v-170.652h-127.996v170.652z" fill="#E6E9ED" /><path d="M810.686 511.986H597.316c-11.75 0-21.312-9.532-21.312-21.312s9.562-21.342 21.312-21.342h213.37c11.75 0 21.312 9.562 21.312 21.342s-9.562 21.312-21.312 21.312z" fill="#F5F7FA" /><path d="M512.008 597.34h383.988v42.656H512.008z" fill="#967ADC" /></svg>