<?xml version="1.0" standalone="no"?><!DOCTYPE svg PUBLIC "-//W3C//DTD SVG 1.1//EN" "http://www.w3.org/Graphics/SVG/1.1/DTD/svg11.dtd"><svg class="icon" width="128px" height="128.00px" viewBox="0 0 1024 1024" version="1.1" xmlns="http://www.w3.org/2000/svg"><path d="M282.378 154.052c-61.498-11.546-198.806 35.406-201.462 49.452-2.624 14.062 108.278 107.638 169.778 119.186 61.53 11.546 118.464-16.828 127.214-63.406 8.75-46.56-34.03-93.684-95.53-105.232z" fill="#A0D468" /><path d="M463.124 143.038c8.312-8.328 8.282-21.812-0.032-30.124-8.342-8.328-21.842-8.328-30.154 0-0.032 0.016-0.032 0.032-0.062 0.032-1.062 1.078-26.562 26.812-51.156 63.076-34.466 50.782-49.842 96.03-45.624 134.498l42.404-4.624c-6.25-57.328 58.876-136.904 84.592-162.808 0.032-0.018 0.032-0.034 0.032-0.05zM341.66 838.24c-8.312 8.344-8.312 21.844 0 30.154a21.33 21.33 0 0 0 30.186 0c8.312-8.31 8.312-21.81 0-30.154a21.33 21.33 0 0 0-30.186 0z" fill="#434A54" /><path d="M357.286 277.972C144.414 184.396 0.012 331.456 0.012 539.622c0 208.09 196.494 392.18 357.274 319.712C518.094 931.8 714.56 747.71 714.56 539.622c-0.002-208.166-144.374-355.226-357.274-261.65z" fill="#DA4453" /><path d="M399.97 859.334a184.62 184.62 0 0 1-21.344 8.06c24.688 7.594 49.938 9.594 74.968 6.782a180.548 180.548 0 0 1-53.624-14.842zM42.698 539.622c0-155.98 81.06-277.666 211.278-289.476C99.04 236.754 0.012 367.236 0.012 539.622c0 185.372 155.934 351.71 303.648 334.554-133.59-14.998-260.962-166.996-260.962-334.554z" opacity=".1" /><path d="M725.34 917.332c164.934 0 298.648-133.714 298.648-298.68H426.69c0 164.966 133.714 298.68 298.65 298.68z" fill="#ED5564" /><path d="M725.34 874.644c141.372 0 255.992-114.59 255.992-255.992H469.344c0 141.402 114.622 255.992 255.996 255.992z" fill="#FFE7B0" /><path d="M728.372 767.992c82.496 0 149.34-66.844 149.34-149.34H579.06c0 82.496 66.842 149.34 149.312 149.34z" fill="#EDCA8C" /><path d="M710.246 633.744a21.33 21.33 0 0 0 30.186 0 21.294 21.294 0 0 0 6.25-15.092h-42.686c0 5.468 2.094 10.936 6.25 15.092z" fill="#434A54" /></svg>