<?xml version="1.0" standalone="no"?><!DOCTYPE svg PUBLIC "-//W3C//DTD SVG 1.1//EN" "http://www.w3.org/Graphics/SVG/1.1/DTD/svg11.dtd"><svg class="icon" width="128px" height="128.00px" viewBox="0 0 1024 1024" version="1.1" xmlns="http://www.w3.org/2000/svg"><path d="M1006.832034 341.737333c-2.281996-0.453999-55.781891-10.685979-94.591816 21.249958-24.809952 20.42196-37.341927 52.171898-37.185927 94.357816 0.124 28.295945-7.217986 48.951904-21.781958 61.41988-24.187953 20.71796-62.405878 14.905971-62.781877 14.843971l-3.467993 21.045959-3.561993 21.029959c0.843998 0.124 8.375984 1.375997 19.531962 1.375997 20.187961 0 52.249898-3.999992 77.717848-25.62395 24.715952-20.953959 37.185927-52.671897 37.029928-94.249816-0.124-28.639944 7.093986-49.201904 21.437958-61.107881 22.279956-18.515964 56.747889-12.937975 59.153884-12.515975h0.062c0.03 0 0.062 0.016 0.062 0.016 1.343997 0.265999 2.749995 0.421999 4.187992 0.421999 11.781977 0 21.343958-9.561981 21.343958-21.343958 0-10.34198-7.373986-18.967963-17.155966-20.919959zM170.693667 518.764987c-14.561972-12.467976-21.905957-33.123935-21.781958-61.41988 0.156-42.185918-12.375976-73.935856-37.185927-94.357816-38.809924-31.937938-92.30982-21.687958-94.591815-21.249958a21.325958 21.325958 0 0 0-17.123967 20.919959c0 11.781977 9.531981 21.343958 21.311958 21.343958 1.437997 0 2.843994-0.156 4.187992-0.421999 0 0 0.032-0.016 0.062-0.016s0.062 0 0.062-0.016c2.467995-0.421999 36.717928-5.937988 58.967885 12.375976 14.467972 11.905977 21.749958 32.515936 21.623958 61.26388-0.156 41.577919 12.311976 73.295857 37.029927 94.249816 25.46795 21.623958 57.529888 25.62395 77.717848 25.62395 11.155978 0 18.685964-1.249998 19.529962-1.375997l-7.031986-42.075918c-0.373999 0.062-38.591925 5.873989-62.777877-14.843971z" fill="#424953" /><path d="M511.999 0.01c-82.497839 0-149.339708 66.841869-149.339708 149.325708v265.025483h298.651416V149.333708C661.308708 66.851869 594.464839 0.01 511.999 0.01z m106.653792 371.679274h-213.339584V149.333708c0-58.811885 47.841907-106.669792 106.685792-106.669791 58.809885 0 106.653792 47.857907 106.653792 106.669791v222.355566z" fill="#424953" /><path d="M661.246709 213.333583H361.877293c0 127.99775-169.871668 127.99775-169.871668 170.667667v554.644917c0 47.123908 38.187925 85.341833 85.311833 85.341833h469.333084c47.123908 0 85.343833-38.217925 85.343833-85.341833V384.00125c-0.002-42.669917-170.747667-41.341919-170.747666-170.667667z" fill="#46CEAD" /><path d="M511.999 874.646292c-70.591862 0-127.99775-57.403888-127.99775-127.99575v-127.99775h255.9955v127.99775c0 70.591862-57.437888 127.99575-127.99775 127.99575z" fill="#CBD0D8" /><path d="M320.003375 1023.988c0-11.811977-9.561981-21.343958-21.343958-21.343958s-21.341958 9.531981-21.341959 21.343958h42.685917zM405.313208 1023.988c0-11.811977-9.531981-21.343958-21.311958-21.343958a21.311958 21.311958 0 0 0-21.341958 21.343958h42.653916zM490.655042 1023.988c0-11.811977-9.561981-21.343958-21.341959-21.343958S447.999125 1012.176023 447.999125 1023.988h42.655917zM575.996875 1023.988c0-11.811977-9.561981-21.343958-21.343958-21.343958s-21.341958 9.531981-21.341959 21.343958h42.685917zM661.308708 1023.988c0-11.811977-9.531981-21.343958-21.311958-21.343958s-21.343958 9.531981-21.343958 21.343958h42.655916zM746.648542 1023.988c0-11.811977-9.559981-21.343958-21.341959-21.343958s-21.311958 9.531981-21.311958 21.343958h42.653917z" fill="#35BB9B" /><path d="M511.999 853.302333c-70.591862 0-127.99775-57.403888-127.99775-127.99575v-127.99775h255.9955v127.99775c0 70.591862-57.437888 127.99575-127.99775 127.99575z" fill="#E5E8EC" /></svg>