<?xml version="1.0" standalone="no"?><!DOCTYPE svg PUBLIC "-//W3C//DTD SVG 1.1//EN" "http://www.w3.org/Graphics/SVG/1.1/DTD/svg11.dtd"><svg class="icon" width="128px" height="128.00px" viewBox="0 0 1024 1024" version="1.1" xmlns="http://www.w3.org/2000/svg"><path d="M1017.8175 724.48l-163.564-163.548a21.31 21.31 0 0 0-15.124-6.25 21.32 21.32 0 0 0-15.062 6.234l-148.5 148.486-148.438-148.47a21.28 21.28 0 0 0-15.064-6.25 21.304 21.304 0 0 0-15.124 6.25l-148.44 148.47-148.5-148.47a21.274 21.274 0 0 0-15.062-6.25 21.304 21.304 0 0 0-15.124 6.25L6.2455 724.48c-8.312 8.344-8.312 21.844 0 30.172 8.376 8.328 21.876 8.328 30.188 0l148.502-148.47 148.438 148.47c8.376 8.328 21.876 8.328 30.188 0l148.502-148.47 148.44 148.47c8.312 8.328 21.876 8.312 30.188-0.016l148.438-148.456 148.502 148.47c8.312 8.328 21.812 8.328 30.188 0 8.31-8.326 8.31-21.842-0.002-30.17z" fill="#3BAFDA" /><path d="M36.4335 463.086l148.502-148.47 148.438 148.47c8.376 8.328 21.876 8.328 30.188 0l148.44-148.47 148.502 148.47c8.312 8.328 21.876 8.312 30.188-0.016l148.438-148.47 148.502 148.47c8.312 8.344 21.812 8.344 30.124 0a21.24 21.24 0 0 0 0-30.158l-163.502-163.562a21.31 21.31 0 0 0-15.124-6.25 21.266 21.266 0 0 0-15.062 6.25l-148.5 148.468-148.438-148.468a21.28 21.28 0 0 0-15.064-6.25 21.304 21.304 0 0 0-15.124 6.25l-148.44 148.468-148.5-148.468a21.274 21.274 0 0 0-15.062-6.25 21.304 21.304 0 0 0-15.124 6.25L6.2455 432.914c-8.312 8.328-8.312 21.844 0 30.172 8.376 8.33 21.876 8.33 30.188 0z" fill="#4FC1E9" /></svg>