<?xml version="1.0" standalone="no"?><!DOCTYPE svg PUBLIC "-//W3C//DTD SVG 1.1//EN" "http://www.w3.org/Graphics/SVG/1.1/DTD/svg11.dtd"><svg class="icon" width="128px" height="128.00px" viewBox="0 0 1024 1024" version="1.1" xmlns="http://www.w3.org/2000/svg"><path d="M789.304 0.008c-101 0-187.124 63.844-220.188 153.39-2.938 8-5.5 16.39-7.624 24.766-13.062 45.578-33.812 147.39-49.484 313.032-15.688-165.64-36.468-267.454-49.562-313.032a236.044 236.044 0 0 0-7.562-24.766C421.82 63.852 335.696 0.008 234.664 0.008 105.07 0.008 0.008 105.07 0.008 234.68c0 52.672 17.344 101.282 46.656 140.454l0.032-0.032c3.876 5.39 10.156 8.906 17.312 8.906 11.75 0 21.312-9.546 21.312-21.328 0-4.672-1.5-8.984-4.062-12.5a191.204 191.204 0 0 1-27.406-50.734c-7.438-20.718-11.188-42.516-11.188-64.766 0-51.296 19.968-99.5 56.218-135.766 36.282-36.266 84.5-56.234 135.782-56.234 40.032 0 78.406 12.188 110.906 35.25 31.876 22.594 55.812 53.796 69.25 90.234 2.438 6.546 4.5 13.376 6.218 20.234l0.188 0.782 0.218 0.75c11.438 39.844 28.688 130.406 42.876 265.11 16.438 155.89 25.25 332.734 26.25 526.296l0.094 21.344c0 11.782 9.532 21.312 21.344 21.312 11.734 0 21.296-9.532 21.296-21.312l0.124-21.344c1-193.562 9.812-370.406 26.188-526.296 14.188-134.704 31.5-225.266 42.938-265.11l0.188-0.75 0.188-0.782a199.184 199.184 0 0 1 6.188-20.234c13.5-36.438 37.438-67.64 69.312-90.234 32.5-23.062 70.876-35.25 110.876-35.25 51.312 0 99.5 19.968 135.75 56.234 36.312 36.266 56.25 84.468 56.25 135.766 0 22.25-3.75 44.046-11.188 64.766-6.5 18.204-15.75 35.25-27.438 50.734h0.062a21.128 21.128 0 0 0-4.062 12.5c0 11.782 9.5 21.328 21.312 21.328 7.124 0 13.438-3.516 17.312-8.906v0.032c29.312-39.172 46.688-87.782 46.688-140.454C1023.992 105.07 918.93 0.008 789.304 0.008z" fill="#ED5565" /></svg>