<?xml version="1.0" standalone="no"?><!DOCTYPE svg PUBLIC "-//W3C//DTD SVG 1.1//EN" "http://www.w3.org/Graphics/SVG/1.1/DTD/svg11.dtd"><svg class="icon" width="128px" height="128.00px" viewBox="0 0 1024 1024" version="1.1" xmlns="http://www.w3.org/2000/svg"><path d="M715.3 117.568C655.55 46.162 575.74 0.008 512.008 0.008c-63.78 0-143.592 46.154-203.308 117.56-53.438 63.874-117.124 177.872-117.124 358.12 0 60.656 34.844 123.282 95.624 171.84 62.466 49.906 142.31 77.406 224.808 77.406 82.482 0 162.292-27.5 224.792-77.406 60.75-48.558 95.624-111.184 95.624-171.84 0-180.248-63.686-294.246-117.124-358.12z" fill="#CCD1D9" /><path d="M715.3 117.568C655.55 46.162 575.74 0.008 512.008 0.008c-6.968 0-14.094 0.562-21.376 1.624 59.546 8.75 128.732 52.28 181.918 115.934 53.438 63.874 117.124 177.872 117.124 358.12 0 60.656-34.876 123.282-95.624 171.84-57.062 45.594-128.622 72.468-203.418 76.782 7.094 0.406 14.218 0.624 21.376 0.624 82.482 0 162.292-27.5 224.792-77.406 60.75-48.558 95.624-111.184 95.624-171.84 0-180.246-63.686-294.244-117.124-358.118z" fill="#FFFFFF" opacity=".2" /><path d="M576.052 938.524h-128.136V682.214h128.136v256.31z" fill="#CCD1D9" /><path d="M755.614 983.086l-179.56-65.906h-128.136l-179.56 65.906c-9.218 4.094-14.312 14.094-12.218 23.968s10.812 16.938 20.876 16.938h469.976c10.062 0 18.75-7.062 20.876-16.938 2.058-9.874-3.004-19.874-12.254-23.968z" fill="#ED5564" /><path d="M746.988 1002.618H277.012a21.306 21.306 0 0 1-18.468-10.688 21.362 21.362 0 0 0 18.47 32.062h469.976c10.062 0 18.75-7.062 20.876-16.938 1.124-5.312 0.124-10.656-2.438-15.124-3.752 6.468-10.69 10.688-18.44 10.688z" fill="#DA4453" /><path d="M746.988 559.468s-103.812-26.782-234.98-26.782c-131.248 0-234.996 26.782-234.996 26.782l32.812 58.652 155.528 20.094h138.826l115.498-27.344 46.062-25.434-18.75-25.968z" fill="#ED5564" /><path d="M828.486 511.342c-0.688 0.688-81.436 85.408-316.51 85.408-235.996 0-315.806-85.438-315.806-85.438s-0.218 0.062-0.594 0.188c10.688 48.876 42.78 96.998 91.624 136.028 62.466 49.906 142.31 77.406 224.808 77.406 82.482 0 162.292-27.5 224.792-77.406 48.876-39.064 80.998-87.246 91.686-136.186z" fill="#E6E9ED" /></svg>