<?xml version="1.0" standalone="no"?><!DOCTYPE svg PUBLIC "-//W3C//DTD SVG 1.1//EN" "http://www.w3.org/Graphics/SVG/1.1/DTD/svg11.dtd"><svg class="icon" width="128px" height="128.00px" viewBox="0 0 1024 1024" version="1.1" xmlns="http://www.w3.org/2000/svg"><path d="M170.686 682.652h682.628v170.652H170.686z" fill="#F4BE8E" /><path d="M810.69 0.008H213.34c-23.516 0-42.656 19.124-42.656 42.654v682.646h682.628V42.664C853.314 19.132 834.19 0.008 810.69 0.008z" fill="#8CC153" /><path d="M85.342 469.312h127.998v554.68H85.342zM810.69 469.312h127.998v554.68h-127.998z" fill="#FFD2A6" /><path d="M234.684 426.658H64.014c-11.78 0-21.328 9.532-21.328 21.344v42.654c0 11.782 9.546 21.344 21.328 21.344h170.668c11.782 0 21.328-9.562 21.328-21.344V448a21.316 21.316 0 0 0-21.326-21.342zM960 426.658h-170.684c-11.75 0-21.312 9.532-21.312 21.344v42.654c0 11.782 9.562 21.344 21.312 21.344H960c11.782 0 21.312-9.562 21.312-21.344V448c0-11.812-9.53-21.342-21.312-21.342z" fill="#965353" /><path d="M213.34 597.312h597.348v127.996H213.34zM362.682 149.318c0 11.782-9.546 21.344-21.342 21.344-11.782 0-21.328-9.562-21.328-21.344 0-11.78 9.546-21.312 21.328-21.312 11.794 0 21.342 9.532 21.342 21.312zM533.336 149.318c0 11.782-9.546 21.344-21.328 21.344S490.68 161.1 490.68 149.318c0-11.78 9.546-21.312 21.328-21.312s21.328 9.532 21.328 21.312zM704.004 149.318c0 11.782-9.562 21.344-21.312 21.344-11.812 0-21.344-9.562-21.344-21.344 0-11.78 9.532-21.312 21.344-21.312 11.75 0 21.312 9.532 21.312 21.312zM362.682 490.656c0 11.782-9.546 21.344-21.342 21.344-11.782 0-21.328-9.562-21.328-21.344 0-11.78 9.546-21.342 21.328-21.342 11.794-0.002 21.342 9.562 21.342 21.342zM533.336 490.656c0 11.782-9.546 21.344-21.328 21.344s-21.328-9.562-21.328-21.344c0-11.78 9.546-21.342 21.328-21.342s21.328 9.562 21.328 21.342zM704.004 490.656c0 11.782-9.562 21.344-21.312 21.344-11.812 0-21.344-9.562-21.344-21.344 0-11.78 9.532-21.342 21.344-21.342 11.75-0.002 21.312 9.562 21.312 21.342zM789.348 320.002c0 11.782-9.562 21.312-21.344 21.312s-21.312-9.532-21.312-21.312c0-11.812 9.532-21.344 21.312-21.344s21.344 9.532 21.344 21.344zM618.694 320.002c0 11.782-9.562 21.312-21.344 21.312s-21.344-9.532-21.344-21.312c0-11.812 9.562-21.344 21.344-21.344s21.344 9.532 21.344 21.344zM448.008 320.002c0 11.782-9.546 21.312-21.328 21.312s-21.328-9.532-21.328-21.312c0-11.812 9.546-21.344 21.328-21.344s21.328 9.532 21.328 21.344zM277.356 320.002c0 11.782-9.562 21.312-21.344 21.312s-21.328-9.532-21.328-21.312c0-11.812 9.546-21.344 21.328-21.344s21.344 9.532 21.344 21.344z" fill="#A0D468" /></svg>