<?xml version="1.0" standalone="no"?><!DOCTYPE svg PUBLIC "-//W3C//DTD SVG 1.1//EN" "http://www.w3.org/Graphics/SVG/1.1/DTD/svg11.dtd"><svg class="icon" width="128px" height="128.00px" viewBox="0 0 1024 1024" version="1.1" xmlns="http://www.w3.org/2000/svg"><path d="M744.684 168.732C682.372 115.046 599.748 85.454 512 85.454c-87.718 0-170.342 29.594-232.652 83.28-63.188 54.5-98 127.186-98 204.716v522.414h661.334V373.448c0-77.53-34.812-150.216-97.998-204.716z" fill="#DA4453" /><path d="M277.348 639.866h469.336v255.996H277.348z" fill="#656D78" /><path d="M149.35 426.542c-82.344 0-149.342 66.966-149.342 149.326 0 57.998 33.75 110.436 85.342 134.934v227.746h213.34v-362.68c0-82.36-66.998-149.326-149.34-149.326zM874.68 426.542c-82.34 0-149.34 66.966-149.34 149.326v362.68h213.34V710.8c51.594-24.498 85.312-76.936 85.312-134.934 0-82.358-66.968-149.324-149.312-149.324z" fill="#ED5564" /><path d="M298.69 767.864H725.34v128.124H298.69z" fill="#434A54" /><path d="M192.004 853.174c-11.75 0-21.31-9.56-21.31-21.31v-128c0-11.812 9.56-21.31 21.31-21.31 11.812 0 21.344 9.498 21.344 21.31v128c0 11.75-9.532 21.31-21.344 21.31zM831.994 853.174c-11.75 0-21.312-9.56-21.312-21.31v-128c0-11.812 9.562-21.31 21.312-21.31 11.812 0 21.344 9.498 21.344 21.31v128c0 11.75-9.532 21.31-21.344 21.31z" fill="#DA4453" /><path d="M426.718 213.202c-11.782 0-21.312 9.562-21.312 21.342 0 11.782 9.532 21.344 21.312 21.344s21.344-9.562 21.344-21.344c0-11.78-9.562-21.342-21.344-21.342zM597.404 213.202c-11.782 0-21.344 9.562-21.344 21.342 0 11.782 9.562 21.344 21.344 21.344s21.312-9.562 21.312-21.344c0-11.78-9.53-21.342-21.312-21.342zM682.714 383.884c-11.782 0-21.312 9.532-21.312 21.312s9.532 21.344 21.312 21.344 21.344-9.562 21.344-21.344-9.562-21.312-21.344-21.312zM512.062 383.884c-11.782 0-21.344 9.532-21.344 21.312s9.562 21.344 21.344 21.344 21.344-9.562 21.344-21.344-9.562-21.312-21.344-21.312zM341.408 383.884c-11.782 0-21.344 9.532-21.344 21.312s9.562 21.344 21.344 21.344 21.312-9.562 21.312-21.344-9.53-21.312-21.312-21.312zM426.718 554.43c-11.782 0-21.312 9.562-21.312 21.376 0 11.75 9.532 21.312 21.312 21.312s21.344-9.562 21.344-21.312c0-11.814-9.562-21.376-21.344-21.376zM597.404 554.618c-11.782 0-21.344 9.5-21.344 21.312 0 11.75 9.562 21.312 21.344 21.312s21.312-9.562 21.312-21.312a21.278 21.278 0 0 0-21.312-21.312z" fill="#ED5564" /><path d="M170.694 575.804c0 11.75-9.562 21.312-21.344 21.312s-21.344-9.562-21.344-21.312c0-11.812 9.562-21.376 21.344-21.376s21.344 9.564 21.344 21.376zM895.992 575.804c0 11.75-9.532 21.312-21.312 21.312s-21.342-9.562-21.342-21.312c0-11.812 9.56-21.376 21.342-21.376s21.312 9.564 21.312 21.376z" fill="#DA4453" /></svg>