<?xml version="1.0" standalone="no"?><!DOCTYPE svg PUBLIC "-//W3C//DTD SVG 1.1//EN" "http://www.w3.org/Graphics/SVG/1.1/DTD/svg11.dtd"><svg class="icon" width="128px" height="128.00px" viewBox="0 0 1024 1024" version="1.1" xmlns="http://www.w3.org/2000/svg"><path d="M691.372 507.844l-41.998 7.546c0.188 1.172 20.216 119.23-59.842 232.476-71.014 100.434-197.246 166.12-375.16 195.242l6.89 42.094c101.732-16.656 188.962-45.406 259.256-85.53 59.952-34.186 108.358-76.966 143.858-127.182 90.276-127.65 67.964-259.114 66.996-264.646z" fill="#602B2B" /><path d="M819.398 422.376l-78.436-18.106-24.998-25.016-17.25-77.558 150.872-150.84 120.652 120.668z" fill="#CCD1D9" /><path d="M789.242 271.524l-78.434-18.094-25.03-25.014-17.22-77.56L819.398 0.018l120.684 120.668z" fill="#E6E9ED" /><path d="M946.332 196.104c0-11.78-9.562-21.326-21.344-21.326a21.254 21.254 0 0 0-15.124 6.282l-312.02 312.02 30.186 30.172L940.052 211.2a21.24 21.24 0 0 0 6.28-15.096zM612.938 357.318L909.894 60.36a21.254 21.254 0 0 0 6.25-15.094c0-11.782-9.532-21.344-21.312-21.344a21.324 21.324 0 0 0-15.124 6.282L582.782 327.146l30.156 30.172z" fill="#FFCE54" /><path d="M608 211.416L66.72 752.68c-67.56 67.558 151.074 271.302 151.074 271.302l511.11-511.108L608 211.416z" fill="#7F4545" /><path d="M489.066 591.808c-9.844-9.876-22.796-14.716-35.704-14.56 0.124-12.938-4.718-25.876-14.578-35.734-19.436-19.436-50.952-19.436-70.388 0-40.232 40.232-15.092 135.762-15.092 135.762s95.544 25.154 135.762-15.094c19.434-19.436 19.434-50.936 0-70.374z" fill="#ED5564" /><path d="M60.298 819.426L625.28 254.46 608 211.416 66.72 752.68c-16.062 16.062-15.938 39.842-6.422 66.746z" fill="#FFFFFF" opacity=".1" /></svg>