<?xml version="1.0" standalone="no"?><!DOCTYPE svg PUBLIC "-//W3C//DTD SVG 1.1//EN" "http://www.w3.org/Graphics/SVG/1.1/DTD/svg11.dtd"><svg class="icon" width="128px" height="128.00px" viewBox="0 0 1024 1024" version="1.1" xmlns="http://www.w3.org/2000/svg"><path d="M386.46 21.204l-173.042 299.69 184.694 106.654 93.456-161.856 141.144-244.488z" fill="#8CC153" /><path d="M632.776 21.204H386.506l180.164 312.092-73.4 42.394 125.634 25.93 125.65 25.96 40.362-121.776 40.364-121.806-73.916 42.674z" fill="#A0D468" /><path d="M123.306 916.882h346.066V703.636H0.186z" fill="#8CC153" /><path d="M0.156 703.574l123.134 213.308 180.18-312.09 73.414 42.36-40.346-121.788-40.348-121.778-125.648 25.962-125.65 25.96 73.884 42.644z" fill="#A0D468" /><path d="M331.696 703.636L123.29 910.2v6.682l123.104-213.246z" opacity=".1" /><path d="M1023.844 704.2l-173.01-299.706-184.694 106.654 93.408 161.872 141.146 244.426z" fill="#8CC153" /><path d="M900.694 917.508l123.118-213.246H663.454v-84.786l-85.286 95.844-85.318 95.848 85.318 95.844 85.286 95.784v-85.288z" fill="#A0D468" /><path d="M734.932 630.348l283.1 77.226 5.78-3.374H777.606zM466.952 308.334L392.254 24.546l-5.762-3.31 123.102 213.216z" opacity=".1" /></svg>