<?xml version="1.0" standalone="no"?><!DOCTYPE svg PUBLIC "-//W3C//DTD SVG 1.1//EN" "http://www.w3.org/Graphics/SVG/1.1/DTD/svg11.dtd"><svg class="icon" width="128px" height="128.00px" viewBox="0 0 1024 1024" version="1.1" xmlns="http://www.w3.org/2000/svg"><path d="M206.202 993.34c-21.968 0-49.016-11.844-72.344-31.656-19.094-16.188-33.718-36.344-40.14-55.282-5.156-15.188-4.562-28.062 1.624-35.376 5.844-6.876 15.922-8.312 23.344-8.312 21.984 0 49.032 11.812 72.36 31.624 19.078 16.218 33.704 36.376 40.124 55.282 5.156 15.188 4.578 28.094-1.624 35.376-5.828 6.876-15.906 8.344-23.344 8.344zM986.662 516.688c-18.532 0-59.188-36.812-87.376-105.906-14.188-34.748-22.032-70.874-21.562-99.092 0.438-23.968 6.688-37.156 12.688-39.624 1-0.406 2.062-0.594 3.312-0.594 18.5 0 59.188 36.812 87.376 105.938 14.188 34.748 22 70.842 21.562 99.06-0.438 23.968-6.688 37.188-12.688 39.624-1 0.406-2.062 0.594-3.312 0.594zM208.968 138.66c-20.594 0-35.782-6.218-40.672-16.656-4.046-8.656-1.234-21.25 7.734-34.562 11.172-16.562 30.578-32.156 53.25-42.782 19.25-9 39.766-13.968 57.796-13.968 20.594 0 35.796 6.218 40.672 16.624 4.046 8.656 1.234 21.25-7.734 34.562-11.172 16.562-30.578 32.156-53.25 42.782-19.234 9.032-39.764 14-57.796 14z" fill="#E9573F" /><path d="M1000.85 369.346c-28.532-69.938-73.876-119.188-107.124-119.188-3.968 0-7.782 0.688-11.376 2.156l-49.312 21.656c-51.81-72.282-124.014-128.904-208.23-161.436 0.312-1.468 0.484-2.968 0.484-4.532 0-11.782-9.546-21.312-21.328-21.312-8.594 0-15.984 5.094-19.36 12.406-39.812-11.282-81.842-17.312-125.264-17.312a460.74 460.74 0 0 0-87.936 8.468l-24.344-51.968c-8.89-19-31.704-28.938-59.984-28.938-20.484 0-43.858 5.218-66.842 16-54.688 25.626-86.594 72.94-71.25 105.72l23.906 51a461.98 461.98 0 0 0-92.828 99.936 21.192 21.192 0 0 0-16.062-7.344c-11.782 0-21.328 9.562-21.328 21.344 0 9.876 6.75 18.188 15.89 20.594-37.296 66.374-58.56 142.966-58.56 224.528 0 34.562 3.828 68.25 11.078 100.624a21.356 21.356 0 0 0-11.078 18.716c0 11.75 9.546 21.312 21.328 21.312 0.218 0 0.422-0.032 0.64-0.032a458.716 458.716 0 0 0 80.186 148.186l-23.062 27.282c-23.422 27.594-5.094 81.656 40.952 120.75 28.172 23.906 60.188 36.688 86.156 36.688 16.468 0 30.514-5.124 39.608-15.844l30.656-36.218c56.03 24.344 117.874 37.876 182.874 37.876 67.248 0 131.092-14.468 188.654-40.438 3.016 8.094 10.812 13.876 19.968 13.876 11.78 0 21.326-9.532 21.326-21.312 0-4.344-1.312-8.376-3.532-11.75a461.834 461.834 0 0 0 169.342-166.532 21.25 21.25 0 0 0 10.812 2.968 21.332 21.332 0 0 0 21.344-21.342c0-8.532-5-15.844-12.218-19.282 24.062-51.062 39-107.248 42.688-166.53l80.312-34.25c33.502-13.684 34.752-88.216 2.814-166.526zM206.202 971.996c-12.578 0-35.454-6.968-58.546-26.562-14.578-12.376-25.938-27.032-31.968-41.282-4.454-10.468-4.344-16.968-3.922-19.156 0.938-0.376 3.094-0.938 6.938-0.938 12.578 0 35.454 6.938 58.532 26.562 14.594 12.376 25.954 27.032 31.984 41.25 4.454 10.5 4.344 17 3.922 19.188-0.956 0.344-3.112 0.938-6.94 0.938z m93.218-898.054c-9.562 12.124-24.374 23.282-41.702 31.406-16.468 7.718-33.78 11.968-48.75 11.968-12.75 0-19.234-3.062-21.156-4.438 0.156-2.218 1.75-8.532 8.812-17.5 9.562-12.124 24.376-23.282 41.702-31.406 16.468-7.718 33.782-11.968 48.764-11.968 12.734 0 19.218 3.062 21.156 4.438-0.17 2.218-1.764 8.53-8.826 17.5z m680.43 417.402c-5-3.438-11.938-9.376-20.124-19-15.25-17.938-29.688-42.656-40.688-69.624-11-26.966-17.968-54.748-19.624-78.216-0.876-12.624-0.062-21.718 1.124-27.656 5 3.438 11.938 9.376 20.124 19 15.25 17.906 29.688 42.656 40.688 69.624 11 26.966 17.968 54.748 19.624 78.216 0.876 12.594 0.064 21.688-1.124 27.656z" fill="#FC6E51" /><path d="M638.65 311.94c-5.282 41.124-56.922 68.376-115.344 60.876-58.42-7.5-101.498-46.938-96.216-88.062 5.282-41.094 56.92-68.344 115.342-60.844 58.438 7.498 101.516 46.936 96.218 88.03z" fill="#E9573F" /><path d="M712.804 656.124c21.844 34.186 6.954 82.748-33.266 108.464-40.232 25.718-90.56 18.876-112.42-15.31-21.86-34.156-6.968-82.718 33.266-108.436 40.236-25.748 90.562-18.874 112.42 15.282z" fill="#E9573F" /><path d="M457.058 563.968c0 70.688-66.858 127.966-149.328 127.966-82.452 0-149.31-57.28-149.31-127.966s66.86-128 149.31-128c82.47 0 149.328 57.314 149.328 128z" fill="#E9573F" /></svg>