<?xml version="1.0" standalone="no"?><!DOCTYPE svg PUBLIC "-//W3C//DTD SVG 1.1//EN" "http://www.w3.org/Graphics/SVG/1.1/DTD/svg11.dtd"><svg class="icon" width="128px" height="128.00px" viewBox="0 0 1024 1024" version="1.1" xmlns="http://www.w3.org/2000/svg"><path d="M567.888 831.246l-8.592-19.524c-0.782 0.344-19.368 8.59-39.864 21.21-30.208 18.62-48.516 36.614-55.918 55.016l39.58 15.9c6.904-17.15 47.862-41.83 73.384-53.076l-8.59-19.526zM503.314 728.714c-7.372-18.398-25.68-36.394-55.888-55.014-20.494-12.622-39.082-20.87-39.864-21.212l-17.182 39.05c25.492 11.214 66.45 35.864 73.384 53.078l39.55-15.902z" fill="#8CC153" /><path d="M462.204 417.31h42.674v606.534h-42.674z" fill="#A0D468" /><path d="M483.54 0.156c-141.298 0-256.232 95.69-256.232 213.28 0 117.588 114.934 213.278 256.232 213.278 141.3 0 256.234-95.69 256.234-213.278C739.774 95.846 624.84 0.156 483.54 0.156z" fill="#AC92EB" /><path d="M739.774 213.436h-0.312c-23.524 0-42.642-19.12-42.642-42.644 0-0.968 0.032-1.936 0.094-2.874 11.84-3.124 22.65-8.748 31.896-16.246-5.094-13.994-11.872-27.396-20.15-40.018-7.81 10.028-19.962 16.462-33.646 16.462-22.086 0-40.3-16.87-42.424-38.426 0.062-1.376 0.094-2.812 0.094-4.216 0-0.938-0.032-1.844-0.062-2.782a84.9 84.9 0 0 0 34.272-18.088c-11.308-9.654-23.71-18.4-37.05-26.148a42.672 42.672 0 0 1-18.808 4.374c-19.118 0-35.332-12.684-40.738-30.052a292.926 292.926 0 0 0-44.484-9.684c0.032 0.436 0 0.874 0.032 1.31-2.124 21.526-20.338 38.426-42.426 38.426-22.524 0-41.018-17.556-42.548-39.674a292.42 292.42 0 0 0-45.08 9.902c-5.466 17.244-21.618 29.772-40.674 29.772-6.53 0-12.746-1.498-18.278-4.124a250.918 250.918 0 0 0-37.114 26.304 85.094 85.094 0 0 0 33.958 17.712c0.062 0.906 0.124 1.844 0.124 2.75 0 23.524-19.15 42.642-42.674 42.642-13.372 0-25.306-6.186-33.116-15.84-8.216 12.624-14.902 25.992-19.932 39.958a84.392 84.392 0 0 0 32.084 15.934c0.062 0.876 0.094 1.748 0.094 2.624 0 23.526-19.12 42.644-42.644 42.644h-0.31c0 92.876 71.696 172.072 171.448 201.25a85.734 85.734 0 0 0 20.526-17.088c15.62 17.806 38.488 29.084 64.042 29.116h0.124c25.37-0.032 48.172-11.122 63.792-28.74a84.652 84.652 0 0 0 20.462 16.9c100.062-29.052 172.07-108.372 172.07-201.436z m-128.556-71.386a85.316 85.316 0 0 0 42.832 26.118c0.062 0.844 0.094 1.716 0.094 2.624 0 23.526-19.122 42.644-42.644 42.644-22.086 0-40.3-16.872-42.456-38.426 0.094-1.406 0.124-2.812 0.124-4.218 0-0.938-0.032-1.874-0.062-2.81 16.526-4.346 31.086-13.528 42.112-25.932z m-106.372-59.326a85.534 85.534 0 0 0 42.392-25.96 85.48 85.48 0 0 0 42.55 26.024c-0.032 0.876-0.062 1.782-0.062 2.688 0 1.404 0.032 2.842 0.094 4.216-2.124 21.556-20.338 38.426-42.426 38.426-23.524 0-42.674-19.12-42.674-42.642 0-0.908 0.064-1.846 0.126-2.752zM483.26 141.676a85.152 85.152 0 0 0 42.986 26.43c-0.032 0.906-0.062 1.78-0.062 2.686 0 1.406 0.062 2.812 0.124 4.218-2.124 21.554-20.37 38.426-42.458 38.426-23.524 0-42.642-19.12-42.642-42.644 0-1 0.032-1.966 0.124-2.936a85.478 85.478 0 0 0 41.928-26.18z m-106.718-58.952c16.808-4.342 31.616-13.684 42.738-26.336a85.346 85.346 0 0 0 42.362 26.274c0.062 0.938 0.124 1.876 0.124 2.812 0 23.524-19.15 42.642-42.674 42.642-23.494 0-42.644-19.12-42.644-42.642 0-0.906 0.062-1.844 0.094-2.75z m-63.512 85.194a85.12 85.12 0 0 0 42.082-26.054 85.72 85.72 0 0 0 43.018 26.304c0.062 0.844 0.094 1.716 0.094 2.624 0 23.526-19.12 42.644-42.644 42.644-23.524 0-42.642-19.12-42.642-42.644-0.002-0.97 0.028-1.936 0.092-2.874z m-64.544 88.16c0-0.876 0.032-1.75 0.094-2.624a85.186 85.186 0 0 0 43.018-26.272 85.454 85.454 0 0 0 42.082 26.052c0.062 0.938 0.124 1.906 0.124 2.844 0 23.524-19.15 42.674-42.674 42.674-23.494 0-42.644-19.15-42.644-42.674z m106.626 127.962c-23.494 0-42.644-19.12-42.644-42.642 0-0.906 0.062-1.844 0.094-2.75a85.336 85.336 0 0 0 42.55-26.148 85.468 85.468 0 0 0 42.548 26.148c0.062 0.906 0.124 1.844 0.124 2.75 0.002 23.522-19.15 42.642-42.672 42.642z m63.98-85.288c-23.494 0-42.644-19.15-42.644-42.674 0-0.876 0.032-1.75 0.094-2.624a85.392 85.392 0 0 0 43.174-26.458c10.936 12.464 25.43 21.71 41.926 26.146 0.062 0.968 0.124 1.968 0.124 2.938 0 23.522-19.15 42.672-42.674 42.672z m64.322 85.288c-23.524 0-42.674-19.12-42.674-42.642 0-0.938 0.062-1.876 0.124-2.812a85.578 85.578 0 0 0 42.394-26.274 85.21 85.21 0 0 0 42.548 26.304c-0.032 0.938-0.062 1.844-0.062 2.782 0 1.404 0.032 2.842 0.094 4.216-2.124 21.556-20.336 38.426-42.424 38.426z m63.98-85.288c-23.524 0-42.674-19.15-42.674-42.674 0-0.876 0.062-1.75 0.094-2.624 16.838-4.248 31.678-13.494 42.862-26.084a85.272 85.272 0 0 0 42.114 25.896c-0.032 0.938-0.062 1.876-0.062 2.812 0 1.438 0.032 2.844 0.094 4.248-2.126 21.526-20.34 38.426-42.428 38.426z m63.638 85.288c-22.086 0-40.3-16.87-42.424-38.426 0.062-1.376 0.094-2.812 0.094-4.216 0-0.906-0.032-1.812-0.062-2.688a85.7 85.7 0 0 0 42.58-26.024 85.304 85.304 0 0 0 42.364 25.96c0.062 0.906 0.124 1.844 0.124 2.75 0 23.524-19.154 42.644-42.676 42.644z m21.556-123.714c0.062-1.404 0.094-2.81 0.094-4.248 0-0.876-0.032-1.782-0.062-2.656a85.388 85.388 0 0 0 42.862-26.24 85.446 85.446 0 0 0 42.082 26.052c0.062 0.938 0.124 1.906 0.124 2.844 0 23.524-19.152 42.674-42.676 42.674-22.086 0-40.302-16.9-42.424-38.426z" fill="#967ADC" /><path d="M824.092 627.59S446.458 575.98 549.55 847.648c242.708 159.764 274.542-220.058 274.542-220.058zM199.908 507.47s311.716-42.614 226.618 181.662C226.182 821 199.908 507.47 199.908 507.47z" fill="#A0D468" /></svg>