<?xml version="1.0" standalone="no"?><!DOCTYPE svg PUBLIC "-//W3C//DTD SVG 1.1//EN" "http://www.w3.org/Graphics/SVG/1.1/DTD/svg11.dtd"><svg class="icon" width="128px" height="128.00px" viewBox="0 0 1024 1024" version="1.1" xmlns="http://www.w3.org/2000/svg"><path d="M920.42 772.714l-3.624-1.062c-52.938-14.186-70.874-27.874-94.436-36.81-83.56-31.874-105.31-54.81-110.874-65.654-0.218-0.406-0.376-0.812-0.562-1.218l-0.688-97.092-198.244-2.25-198.262 2.25-0.688 97.092c-0.172 0.406-0.328 0.812-0.532 1.218-5.562 10.844-27.31 33.782-110.902 65.654-23.562 8.938-41.484 22.624-94.42 36.81l-3.624 1.062c-48.188 15.938-80.608 60.624-80.608 111.062v140.214h978.086v-140.214c0-50.436-32.434-95.124-80.622-111.062z" fill="#DBAFA5" /><path d="M787.112 382.974c0 178.746-170.434 343.242-275.12 343.242-104.702 0-275.104-164.496-275.104-343.242s123.17-296.68 275.104-296.68 275.12 117.934 275.12 296.68z" fill="#EAC6BB" /><path d="M653.988 101.762s-5.344-47.562 51.624-81.78c24.124-14.5-361.506-83.248-458.286 160.434-14.64 36.842-19.032 80.718-19.046 119.966-0.032 58.218 93.374-43.966 93.374-43.966s91.342 21.342 190.34 21.342 193.65-21.342 193.65-21.342 91.218 88.966 93.718 41.342c2-37.686-0.562-81.374-16.032-117.06-35.062-80.81-129.342-78.936-129.342-78.936z" fill="#965353" /><path d="M764.048 225.104c-10.624-3.562-23.25-5.5-35.594-5.5-9.468 0-23.032 1.156-34.032 6.656-2.062 1.032-6.25 2.124-11.748 2.124-5.562 0-9.75-1.094-11.812-2.124-8.562-4.312-19.562-6.656-30.874-6.656-11.312 0-22.312 2.344-30.876 6.656-2.062 1.032-6.25 2.124-11.812 2.124-5.5 0-9.688-1.094-11.75-2.124-8.594-4.312-19.562-6.656-30.876-6.656-11.344 0-22.312 2.344-30.89 6.656-2.078 1.032-6.266 2.124-11.794 2.124-5.532 0-9.718-1.094-11.796-2.124-8.578-4.312-19.532-6.656-30.874-6.656-11.328 0-22.282 2.344-30.86 6.656-2.078 1.032-6.266 2.124-11.796 2.124s-9.718-1.094-11.796-2.124c-8.578-4.312-19.546-6.656-30.874-6.656s-22.296 2.344-30.876 6.656c-2.078 1.032-6.266 2.124-11.796 2.124-5.516 0-9.704-1.094-11.782-2.124-11-5.5-24.562-6.656-34.014-6.656-12.328 0-24.984 1.938-35.61 5.5-26.562 8.844-46.592 40.468-46.592 73.56 0 31.656 19.186 54.656 45.624 54.656 4.812 0 9.672-0.812 14.454-2.406 6.312-2.124 14.376-3.312 22.124-3.312 8.404 0 13.436 1.406 14.92 2.156 8.594 4.28 19.546 6.624 30.876 6.624s22.296-2.344 30.876-6.624c2.078-1.062 6.266-2.156 11.796-2.156 5.53 0 9.716 1.094 11.794 2.156 8.578 4.28 19.546 6.624 30.876 6.624s22.296-2.344 30.876-6.624c2.078-1.062 6.266-2.156 11.782-2.156 5.53 0 9.716 1.094 11.794 2.156 8.578 4.28 19.546 6.624 30.876 6.624 11.326 0 22.294-2.344 30.874-6.624 2.062-1.062 6.25-2.156 11.812-2.156 5.5 0 9.688 1.094 11.75 2.156 8.624 4.28 19.562 6.624 30.876 6.624 11.344 0 22.312-2.344 30.876-6.624 2.094-1.062 6.282-2.156 11.812-2.156 5.53 0 9.716 1.094 11.81 2.156 8.562 4.28 19.532 6.624 30.876 6.624 11.31 0 22.28-2.344 30.874-6.624 1.468-0.75 6.5-2.156 14.906-2.156 7.75 0 15.812 1.188 22.124 3.312 4.782 1.594 9.656 2.406 14.468 2.406 26.438-0.032 45.624-23 45.624-54.656 0-33.092-20.062-64.716-46.626-73.56z" fill="#E6E9ED" /><path d="M852.11 748.31l-126.186-62.874c-16.188 50.342-68.686 189.214-214.072 189.214-142.886 0-196.028-137.654-213.182-189.714L171.938 748.28s55.108 94.374 41.39 275.712h597.408c-13.718-181.34 41.374-275.682 41.374-275.682z" fill="#FFCE54" /></svg>