<?xml version="1.0" standalone="no"?><!DOCTYPE svg PUBLIC "-//W3C//DTD SVG 1.1//EN" "http://www.w3.org/Graphics/SVG/1.1/DTD/svg11.dtd"><svg class="icon" width="128px" height="128.00px" viewBox="0 0 1024 1024" version="1.1" xmlns="http://www.w3.org/2000/svg"><path d="M1023.882 373.36c0 11.778-9.558 21.338-21.306 21.338H21.458c-11.78 0-21.34-9.56-21.34-21.338V117.418c0-11.78 9.56-21.324 21.34-21.324h981.12c11.748 0 21.306 9.544 21.306 21.324V373.36z" fill="#FFCE54" /><path d="M874.606 224.066H149.428c-11.78 0-21.34 9.544-21.34 21.324 0 11.778 9.56 21.338 21.34 21.338h725.178c11.746 0 21.308-9.56 21.308-21.338 0-11.78-9.562-21.324-21.308-21.324z" fill="#434A54" /><path d="M874.606 245.39H149.428v597.224c0 47.114 38.194 85.292 85.308 85.292H789.28c47.114 0 85.324-38.18 85.324-85.292V245.39z" fill="#F5F7FA" /><path d="M448.016 735.95c0-58.894-47.74-106.664-106.632-106.664s-106.646 47.77-106.646 106.664c0 58.89 47.754 106.664 106.646 106.664s106.632-47.774 106.632-106.664z" fill="#FFCE54" /><path d="M448.016 629.286c0-58.86-47.74-106.618-106.632-106.618s-106.646 47.758-106.646 106.618c0 58.926 47.754 106.664 106.646 106.664s106.632-47.74 106.632-106.664z" fill="#ED5564" /><path d="M341.382 437.344c-11.778 0-21.338 9.56-21.338 21.34 0 11.778 9.56 21.322 21.338 21.322 11.78 0 21.324-9.544 21.324-21.322 0.002-11.778-9.544-21.34-21.324-21.34zM341.382 352.036c-11.778 0-21.338 9.544-21.338 21.324 0 11.778 9.56 21.338 21.338 21.338 11.78 0 21.324-9.56 21.324-21.338 0.002-11.778-9.544-21.324-21.324-21.324zM341.382 309.374c11.78 0 21.324-9.544 21.324-21.322 0-11.78-9.544-21.324-21.324-21.324-11.778 0-21.338 9.544-21.338 21.324 0 11.778 9.562 21.322 21.338 21.322z" fill="#656D78" /><path d="M682.648 245.39v385.708c0 11.746 9.562 21.308 21.308 21.308 11.808 0 21.34-9.562 21.34-21.308V245.39h-42.648zM597.324 458.684c0 11.778 9.532 21.322 21.34 21.322 11.746 0 21.308-9.544 21.308-21.322V245.39h-42.648v213.294z" fill="#434A54" /></svg>