<?xml version="1.0" standalone="no"?><!DOCTYPE svg PUBLIC "-//W3C//DTD SVG 1.1//EN" "http://www.w3.org/Graphics/SVG/1.1/DTD/svg11.dtd"><svg class="icon" width="128px" height="128.00px" viewBox="0 0 1024 1024" version="1.1" xmlns="http://www.w3.org/2000/svg"><path d="M1023.882 373.376c0 11.778-9.558 21.322-21.306 21.322H21.458c-11.78 0-21.34-9.544-21.34-21.322V117.434c0-11.78 9.56-21.34 21.34-21.34h981.12c11.748 0 21.306 9.56 21.306 21.34v255.942z" fill="#E6E9ED" /><path d="M874.606 224.066H149.428c-11.78 0-21.34 9.56-21.34 21.34 0 11.778 9.56 21.322 21.34 21.322h725.178c11.746 0 21.308-9.544 21.308-21.322 0-11.78-9.562-21.34-21.308-21.34z" fill="#434A54" /><path d="M149.428 245.406h725.178v682.5H149.428z" fill="#8CC153" /><path d="M234.736 245.406v511.884h0.188c47.114 0 85.324 38.208 85.324 85.324h383.708c0-47.118 38.21-85.324 85.324-85.324V245.406H234.736z" fill="#A0D468" /><path d="M342.71 245.406a171.314 171.314 0 0 0-1.328 21.322c0 94.244 76.388 170.632 170.618 170.632 94.23 0 170.648-76.388 170.648-170.632 0-7.216-0.468-14.34-1.344-21.322H342.71z" fill="#8CC153" /></svg>