<?xml version="1.0" standalone="no"?><!DOCTYPE svg PUBLIC "-//W3C//DTD SVG 1.1//EN" "http://www.w3.org/Graphics/SVG/1.1/DTD/svg11.dtd"><svg class="icon" width="128px" height="128.00px" viewBox="0 0 1024 1024" version="1.1" xmlns="http://www.w3.org/2000/svg"><path d="M1023.882 405.368c0 11.78-9.528 21.324-21.306 21.324H21.458c-11.78 0-21.34-9.544-21.34-21.324V149.426c0-11.78 9.56-21.338 21.34-21.338h981.12c11.78 0 21.306 9.558 21.306 21.338v255.942z" fill="#ED5564" /><path d="M874.606 256.058H149.428c-11.78 0-21.34 9.558-21.34 21.338s9.56 21.324 21.34 21.324h725.178c11.778 0 21.308-9.544 21.308-21.324s-9.532-21.338-21.308-21.338z" fill="#434A54" /><path d="M170.766 277.396c-11.746 0-21.338 9.592-21.338 21.324v575.882c0 11.716 4.78 21.308 10.652 21.308 5.876 0 19.246-4.282 29.744-9.53l47.176-23.59c10.466-5.248 27.65-5.248 38.148 0l47.144 23.59c10.498 5.248 27.682 5.248 38.18 0l47.144-23.59c10.498-5.248 27.65-5.248 38.148 0l47.176 23.59c10.466 5.248 27.652 5.248 38.148 0l47.144-23.59c10.5-5.248 27.684-5.248 38.148 0l47.176 23.59c10.5 5.248 27.652 5.248 38.148 0l47.176-23.59c10.5-5.248 27.652-5.248 38.148 0l47.144 23.59c10.5 5.248 23.872 9.53 29.744 9.53s10.686-9.592 10.686-21.308V298.72c0-11.732-9.624-21.324-21.34-21.324H170.766z" fill="#FFCE54" /><path d="M767.942 703.956h-85.292c-11.778 0-21.338 9.56-21.338 21.338 0 11.78 9.56 21.34 21.338 21.34h85.292c11.78 0 21.34-9.56 21.34-21.34 0-11.778-9.562-21.338-21.34-21.338zM341.382 703.956h-85.324c-11.778 0-21.306 9.56-21.306 21.338 0 11.78 9.53 21.34 21.306 21.34h85.324c11.78 0 21.34-9.56 21.34-21.34 0-11.778-9.56-21.338-21.34-21.338z" fill="#434A54" /><path d="M682.648 448.014h85.292c11.78 0 21.34-9.544 21.34-21.322 0-11.78-9.56-21.324-21.34-21.324h-85.292c-11.778 0-21.338 9.544-21.338 21.324 0 11.776 9.562 21.322 21.338 21.322zM767.942 490.676h-85.292c-11.778 0-21.338 9.544-21.338 21.324 0 11.778 9.56 21.338 21.338 21.338h85.292c11.78 0 21.34-9.56 21.34-21.338 0-11.78-9.562-21.324-21.34-21.324zM512 405.368H256.058c-11.778 0-21.306 9.544-21.306 21.324 0 11.778 9.53 21.322 21.306 21.322H512c11.78 0 21.34-9.544 21.34-21.322 0-11.78-9.56-21.324-21.34-21.324zM385.124 490.738v-0.062H256.06c-11.778 0-21.306 9.544-21.306 21.324 0 11.778 9.53 21.338 21.306 21.338h129.064v-0.062c11.28-0.562 20.246-9.858 20.246-21.276 0-11.404-8.968-20.7-20.246-21.262z" fill="#656D78" /><path d="M256.058 597.322c-11.778 0-21.306 9.532-21.306 21.34 0 11.746 9.53 21.308 21.306 21.308 11.78 0 21.34-9.562 21.34-21.308 0-11.808-9.56-21.34-21.34-21.34zM341.382 597.322c-11.778 0-21.338 9.532-21.338 21.34 0 11.746 9.56 21.308 21.338 21.308 11.78 0 21.34-9.562 21.34-21.308 0-11.808-9.56-21.34-21.34-21.34zM426.708 597.322c-11.778 0-21.338 9.532-21.338 21.34 0 11.746 9.56 21.308 21.338 21.308 11.78 0 21.308-9.562 21.308-21.308 0-11.808-9.53-21.34-21.308-21.34zM512 597.322c-11.778 0-21.306 9.532-21.306 21.34 0 11.746 9.53 21.308 21.306 21.308 11.78 0 21.34-9.562 21.34-21.308 0-11.808-9.56-21.34-21.34-21.34zM597.324 597.322c-11.778 0-21.338 9.532-21.338 21.34 0 11.746 9.56 21.308 21.338 21.308 11.78 0 21.34-9.562 21.34-21.308 0-11.808-9.56-21.34-21.34-21.34zM682.648 597.322c-11.778 0-21.338 9.532-21.338 21.34 0 11.746 9.56 21.308 21.338 21.308 11.78 0 21.308-9.562 21.308-21.308 0.002-11.808-9.528-21.34-21.308-21.34zM767.942 597.322c-11.778 0-21.306 9.532-21.306 21.34 0 11.746 9.53 21.308 21.306 21.308 11.78 0 21.34-9.562 21.34-21.308 0-11.808-9.562-21.34-21.34-21.34z" fill="#F6BB42" /></svg>