<?xml version="1.0" standalone="no"?><!DOCTYPE svg PUBLIC "-//W3C//DTD SVG 1.1//EN" "http://www.w3.org/Graphics/SVG/1.1/DTD/svg11.dtd"><svg class="icon" width="128px" height="128.00px" viewBox="0 0 1024 1024" version="1.1" xmlns="http://www.w3.org/2000/svg"><path d="M511.97 0c-94.234 0-170.656 229.218-170.656 512s76.422 512 170.656 512c94.282 0 170.688-229.218 170.688-512S606.252 0 511.97 0z m80.22 860.562c-13.906 41.718-30.25 75.188-47.282 96.812-12 15.218-24 23.968-32.938 23.968-8.906 0-20.876-8.75-32.89-23.968-17.032-21.624-33.39-55.094-47.296-96.812-14.86-44.594-26.562-96.812-34.796-155.218-8.624-61.156-13-126.218-13-193.344 0-67.14 4.376-132.188 13-193.344 8.234-58.406 19.938-110.624 34.796-155.204 13.906-41.734 30.266-75.204 47.296-96.812 12.016-15.234 23.984-23.968 32.89-23.968 8.938 0 20.938 8.734 32.938 23.968 17.032 21.61 33.376 55.078 47.282 96.812 14.844 44.578 26.594 96.796 34.812 155.204 8.594 61.156 12.968 126.204 12.968 193.344 0 67.124-4.376 132.188-12.968 193.344-8.218 58.406-19.968 110.624-34.812 155.218z" fill="#CCD1D9" /><path d="M955.408 256c-15.532-26.89-51.594-39.64-101.75-39.64-102.156 0-262.75 53.016-427 147.844C181.768 505.594 21.456 686.376 68.596 768c15.516 26.876 51.562 39.656 101.718 39.656 102.172 0 262.75-53.032 427.032-147.844C842.22 518.438 1002.534 337.64 955.408 256z m-41.282 61.828c-10.156 25.546-31 56.438-60.188 89.36-31.156 35.156-70.532 71.406-117.032 107.75-48.624 38.032-102.782 74.344-160.938 107.938-76.906 44.376-156.188 81.062-229.234 106.062-69.028 23.562-130.028 36.062-176.42 36.062-39.968 0-59.656-9.468-64.782-18.344-4.454-7.718-2.89-22.468 4.312-40.468 10.188-25.562 31-56.438 60.204-89.376 31.156-35.156 70.532-71.406 117-107.75 48.656-38.032 102.796-74.344 160.954-107.906 76.906-44.422 156.188-81.11 229.218-106.062 69.062-23.594 130.062-36.062 176.438-36.078 39.968 0 59.688 9.468 64.812 18.328 4.438 7.718 2.876 22.468-4.344 40.484z" fill="#E6E9ED" /><path d="M597.346 512c0 47.124-38.218 85.312-85.376 85.312-47.11 0-85.312-38.188-85.312-85.312s38.204-85.328 85.312-85.328c47.156 0 85.376 38.204 85.376 85.328z" fill="#5D9CEC" /><path d="M597.346 364.204c-164.296-94.844-324.86-147.86-427.032-147.844-50.14 0-86.218 12.766-101.718 39.64-47.14 81.64 113.172 262.438 358.062 403.812 164.25 94.812 324.844 147.844 427 147.844 50.124 0 86.218-12.782 101.75-39.656 47.126-81.624-113.188-262.406-358.062-403.796z m321.124 382.452c-5.124 8.876-24.844 18.344-64.812 18.344-46.376 0-107.376-12.5-176.438-36.062-73-25-152.312-61.656-229.218-106.062-58.156-33.594-112.296-69.906-160.954-107.938-46.468-36.344-85.844-72.594-117-107.75-29.204-32.922-50.016-63.812-60.204-89.36-7.204-18.016-8.766-32.766-4.312-40.484 5.124-8.86 24.812-18.312 64.796-18.328 46.39 0 107.39 12.468 176.422 36.062 73.032 24.968 152.312 61.656 229.218 106.078 58.156 33.562 112.312 69.876 160.938 107.906 46.5 36.344 85.876 72.594 117.032 107.75 29.188 32.938 50.032 63.812 60.188 89.376 7.22 18 8.782 32.75 4.344 40.468z" fill="#CCD1D9" /></svg>