<?xml version="1.0" standalone="no"?><!DOCTYPE svg PUBLIC "-//W3C//DTD SVG 1.1//EN" "http://www.w3.org/Graphics/SVG/1.1/DTD/svg11.dtd"><svg class="icon" width="128px" height="128.00px" viewBox="0 0 1024 1024" version="1.1" xmlns="http://www.w3.org/2000/svg"><path d="M252.21 521.446c-12.876 17.594-25.046 37.75-35.828 60.906-4.968 10.656-0.36 23.344 10.312 28.312 2.906 1.344 5.968 2 8.984 2 8.032 0 15.718-4.562 19.328-12.312 10.25-22.032 22.266-41.968 35.952-59.782l-38.748-19.124z" fill="#CCD1D9" /><path d="M935.026 624.848c-8.532 0-16.624-5.188-19.876-13.652l-55.094-143.124c-4.218-11 1.25-23.312 12.25-27.532 10.968-4.25 23.282 1.25 27.532 12.218l55.094 143.156c4.218 10.968-1.25 23.278-12.25 27.528-2.5 0.968-5.094 1.406-7.656 1.406z" fill="#E6E9ED" /><path d="M171.774 723.348c-11.766 0-21.296-9.532-21.296-21.282V458.008c0-11.782 9.532-21.312 21.296-21.312s21.312 9.53 21.312 21.312v244.058c0 11.75-9.546 21.282-21.312 21.282z" fill="#CCD1D9" /><path d="M748.092 680.754H345.254a21.31 21.31 0 0 1-20.92-17.312l-22.36-117.434-246.15-121.498a21.27 21.27 0 0 1-9.516-9.312L2.372 329.95a21.29 21.29 0 0 1 1.032-21.28 21.366 21.366 0 0 1 18.968-9.75l424.866 21.186 338.384-65.092a21.386 21.386 0 0 1 19.094 5.876l127.81 127.842a21.254 21.254 0 0 1 2.718 26.812l-169.402 255.682a21.348 21.348 0 0 1-17.75 9.528z" fill="#ED5564" /><path d="M252.664 521.446l-0.062 0.218 49.374 24.344 22.36 117.434a21.308 21.308 0 0 0 20.92 17.312H584.72c81.936-45.656 132.904-132.84 132.904-132.84l-276.98-193.528-187.98 167.06z" fill="#CCD1D9" /><path d="M320.912 723.348c11.764 0 21.312-9.532 21.312-21.312 0-11.75-9.546-21.282-21.312-21.282h-1.532a147.594 147.594 0 0 0-9.124-34.062l1.328-0.75c10.188-5.906 13.688-18.938 7.796-29.124-5.876-10.184-18.906-13.652-29.11-7.778l-1.376 0.782a151.2 151.2 0 0 0-24.89-24.876l0.796-1.406c5.876-10.188 2.39-23.218-7.812-29.094-10.188-5.876-23.218-2.406-29.094 7.812l-0.764 1.312a149.674 149.674 0 0 0-34.046-9.124v-1.532c0-11.75-9.546-21.312-21.312-21.312-11.766 0-21.296 9.562-21.296 21.312v1.532a149.204 149.204 0 0 0-34.046 9.124l-0.766-1.312c-5.89-10.218-18.922-13.688-29.11-7.812s-13.686 18.906-7.796 29.094l0.796 1.406a150.678 150.678 0 0 0-24.906 24.876l-1.376-0.782c-10.188-5.876-23.218-2.406-29.108 7.778-5.876 10.218-2.39 23.25 7.796 29.124l1.328 0.75a148.36 148.36 0 0 0-9.124 34.062h-1.532c-11.766 0-21.296 9.532-21.296 21.312 0 11.75 9.532 21.282 21.296 21.282h1.532a147.494 147.494 0 0 0 9.124 34.062l-1.328 0.75c-10.186 5.906-13.67 18.938-7.796 29.124a21.352 21.352 0 0 0 18.468 10.656c3.624 0 7.282-0.938 10.64-2.876l1.376-0.782a150.78 150.78 0 0 0 24.906 24.906l-0.796 1.376c-5.89 10.184-2.39 23.214 7.796 29.09a21.22 21.22 0 0 0 10.624 2.876c7.376 0 14.532-3.844 18.484-10.656l0.766-1.344a145.988 145.988 0 0 0 34.046 9.124v1.532c0 11.782 9.532 21.312 21.296 21.312s21.312-9.532 21.312-21.312v-1.532a146.61 146.61 0 0 0 34.046-9.124l0.764 1.344a21.338 21.338 0 0 0 18.468 10.656c3.61 0 7.282-0.938 10.624-2.876 10.204-5.876 13.688-18.906 7.812-29.09l-0.796-1.376a150.76 150.76 0 0 0 24.89-24.906l1.39 0.782a21.176 21.176 0 0 0 10.624 2.876c7.36 0 14.532-3.844 18.468-10.656 5.89-10.218 2.39-23.25-7.796-29.124l-1.328-0.75a146.748 146.748 0 0 0 9.124-34.062h1.54z" fill="#434A54" /><path d="M186.836 687.004c8.328 8.312 8.328 21.782 0 30.124-8.312 8.312-21.812 8.312-30.124 0-8.328-8.344-8.328-21.812 0-30.124 8.312-8.344 21.812-8.344 30.124 0z" fill="#F5F7FA" /><path d="M1002.68 723.348a21.3 21.3 0 0 0 21.312-21.312c0-11.75-9.532-21.282-21.312-21.282h-1.532a146.102 146.102 0 0 0-9.124-34.062l1.344-0.75c10.188-5.906 13.688-18.938 7.782-29.124-5.876-10.184-18.904-13.652-29.092-7.778l-1.376 0.782a150.14 150.14 0 0 0-24.906-24.876l0.812-1.406c5.876-10.188 2.376-23.218-7.812-29.094s-23.218-2.406-29.094 7.812l-0.782 1.312a149.336 149.336 0 0 0-34.032-9.124v-1.532c0-11.75-9.562-21.312-21.312-21.312-11.782 0-21.31 9.562-21.31 21.312v1.532a149.336 149.336 0 0 0-34.032 9.124l-0.782-1.312c-5.876-10.218-18.904-13.688-29.092-7.812s-13.688 18.906-7.812 29.094l0.812 1.406a150.066 150.066 0 0 0-24.906 24.876l-1.376-0.782c-10.188-5.876-23.218-2.406-29.124 7.778-5.876 10.218-2.376 23.25 7.812 29.124l1.312 0.75a150.002 150.002 0 0 0-9.124 34.062h-1.532c-11.75 0-21.282 9.532-21.282 21.312 0 11.75 9.532 21.282 21.282 21.282h1.532a149.116 149.116 0 0 0 9.124 34.062l-1.312 0.75c-10.188 5.906-13.688 18.938-7.812 29.124a21.39 21.39 0 0 0 18.468 10.656c3.624 0 7.282-0.938 10.656-2.876l1.376-0.782a150.244 150.244 0 0 0 24.906 24.906l-0.812 1.376c-5.876 10.184-2.376 23.214 7.812 29.09 3.344 1.938 7 2.876 10.624 2.876 7.374 0 14.53-3.844 18.466-10.656l0.782-1.344a146.112 146.112 0 0 0 34.032 9.124v1.532a21.296 21.296 0 0 0 21.31 21.312c11.75 0 21.312-9.532 21.312-21.312v-1.532a146.31 146.31 0 0 0 34.032-9.124l0.782 1.344a21.318 21.318 0 0 0 18.468 10.656c3.594 0 7.282-0.938 10.624-2.876 10.188-5.876 13.688-18.906 7.812-29.09l-0.812-1.376a150.244 150.244 0 0 0 24.906-24.906l1.376 0.782a21.306 21.306 0 0 0 10.624 2.876c7.374 0 14.53-3.844 18.466-10.656 5.906-10.218 2.406-23.25-7.782-29.124l-1.344-0.75a147.6 147.6 0 0 0 9.156-34.062h1.506z" fill="#434A54" /><path d="M576.596 213.764c-7.968 0-15.624-4.5-19.25-12.186-5.062-10.624-0.5-23.344 10.124-28.376 1.062-0.5 26.154-12.312 56.716-18.282 31.28-6.124 74.248-7.032 101.216 23.406 7.812 8.812 7 22.282-1.812 30.062-8.812 7.812-22.282 7-30.094-1.812-23.406-26.406-87.248-4.594-107.78 5.124a21.156 21.156 0 0 1-9.12 2.064z" fill="#CCD1D9" /><path d="M868.62 687.004c8.312 8.312 8.312 21.782 0 30.124-8.312 8.312-21.812 8.312-30.124 0-8.31-8.344-8.31-21.812 0-30.124 8.31-8.344 21.81-8.344 30.124 0z" fill="#F5F7FA" /><path d="M704.404 313.636c-10.032 0-18.968-7.092-20.906-17.28-0.188-1-4.656-24.562-6.312-49.562-1.938-29.842-0.844-65.248 25.188-74.436 19.468-6.876 37.282 8.594 43.124 13.688 8.624 7.468 18.468 18.218 29.282 31.968 17.716 22.5 32.28 45.624 32.904 46.592 6.25 9.968 3.25 23.124-6.688 29.376-9.968 6.282-23.124 3.282-29.404-6.688-0.094-0.188-51.062-24.032-46.25 1.032 2.218 11.562-5.344 22.718-16.906 24.936-1.376 0.25-2.72 0.374-4.032 0.374z" fill="#434A54" /><path d="M935.244 415.542a21.256 21.256 0 0 0-2.718-26.812l-127.81-127.842a21.386 21.386 0 0 0-19.094-5.876l-171.496 33-16.032 112.78a21.398 21.398 0 0 0 6.032 18.062l42.624 42.592c4 4 9.406 6.25 15.062 6.25h38.968l162.214 56.842 72.25-108.996z" fill="#DA4453" /><path d="M449.066 384.104c49.328 0.75 105.186-15.656 153.34-45 29.81-18.156 54.28-39.81 71.28-62.56l-226.448 43.562-189.606-9.468c50.062 31.372 127.638 72.528 191.434 73.466z" fill="#434A54" /><path d="M907.526 457.352l27.718-41.812a21.256 21.256 0 0 0-2.718-26.812l-127.81-127.842a21.386 21.386 0 0 0-19.094-5.876l-74.404 14.312 196.308 188.03z" fill="#CCD1D9" /><path d="M427.442 616.816c-35.25 0-63.92-28.652-63.92-63.902s28.67-63.906 63.92-63.906 63.92 28.656 63.92 63.906-28.672 63.902-63.92 63.902z" fill="#F5F7FA" /><path d="M612.938 474.758l-62.466 188.308-3.25-234.244-43.046-30.062 3.906 281.994h76.638c2-1.124 3.968-2.25 5.906-3.406l58.748-177.12-36.436-25.47z" fill="#E6E9ED" /></svg>