<?xml version="1.0" standalone="no"?><!DOCTYPE svg PUBLIC "-//W3C//DTD SVG 1.1//EN" "http://www.w3.org/Graphics/SVG/1.1/DTD/svg11.dtd"><svg class="icon" width="128px" height="128.00px" viewBox="0 0 1024 1024" version="1.1" xmlns="http://www.w3.org/2000/svg"><path d="M554.528 117.284c-23.39-40.688-61.67-40.688-85.06 0L9.966 865.184c-23.39 40.684-4.14 73.932 42.796 73.932h918.47c46.936 0 66.186-33.248 42.81-73.932L554.528 117.284z" fill="#9B5C5C" /><path d="M554.528 115.376c-23.39-40.656-61.67-40.656-85.06 0l-47.076 119.464-65.076 63.56L9.966 865.184c-23.39 40.684-4.14 73.932 42.796 73.932h918.47c46.936 0 66.186-33.248 42.81-73.932L901.794 682l-168.12-208.104-179.146-358.52z" fill="#9B5C5C" /><path d="M853.268 452.554c-47.124 0-85.342 38.216-85.342 85.342 0 47.108 38.218 85.292 85.342 85.292 47.09 0 85.308-38.186 85.308-85.292 0-47.124-38.218-85.342-85.308-85.342zM789.27 452.554c0 11.78-9.532 21.342-21.344 21.342-11.75 0-21.312-9.562-21.312-21.342 0-11.75 9.562-21.312 21.312-21.312 11.812 0 21.344 9.562 21.344 21.312zM853.268 409.898c0 11.782-9.562 21.344-21.342 21.344-11.782 0-21.312-9.562-21.312-21.344s9.532-21.31 21.312-21.31c11.78 0 21.342 9.53 21.342 21.31zM767.926 367.244c0 11.782-9.532 21.344-21.312 21.344s-21.312-9.562-21.312-21.344 9.532-21.312 21.312-21.312 21.312 9.53 21.312 21.312zM703.958 303.278c0 11.782-9.532 21.31-21.344 21.31-11.748 0-21.31-9.53-21.31-21.31s9.562-21.342 21.31-21.342a21.33 21.33 0 0 1 21.344 21.342z" fill="#CBD0D8" /><path d="M546.746 304.778a21.12 21.12 0 0 1 7.906-1.5c7.342 0 14.466 3.812 18.404 10.5 0 0 138.684 200.62 190.526 286.914 51.844 86.308 138.212 81.372 138.212 81.372L554.528 115.376c-23.39-40.656-61.67-40.656-85.06 0l-112.152 183.026s64.452 44.686 93.7 44.686c29.246 0 95.73-38.31 95.73-38.31z" fill="#E6E9ED" /></svg>