<?xml version="1.0" standalone="no"?><!DOCTYPE svg PUBLIC "-//W3C//DTD SVG 1.1//EN" "http://www.w3.org/Graphics/SVG/1.1/DTD/svg11.dtd"><svg class="icon" width="128px" height="128.00px" viewBox="0 0 1024 1024" version="1.1" xmlns="http://www.w3.org/2000/svg"><path d="M452.836116 251.351509c-96.809811 44.793913-342.89933 63.731876-342.899331 63.731876S283.620446 139.711727 380.430257 94.915815c96.779811-44.793913 191.449626-46.09191 211.449587-2.889995 19.997961 43.201916-42.249917 114.527776-139.043728 159.325689z" fill="#8CC153" /><path d="M595.627837 0.012c-11.809977 0-21.373958 9.545981-21.373959 21.327958v133.997739h42.685917V21.339958c0.002-11.781977-9.561981-21.327958-21.311958-21.327958z" fill="#434A54" /><path d="M594.06784 1002.678042c-98.137808 0-169.449669-25.875949-218.041574-79.031846-25.935949-28.405945-45.84191-65.557872-59.185885-110.433784-14.217972-47.905906-21.437958-106.217793-21.437958-173.213662 0-81.99984 38.685924-206.401597 96.309812-309.587395 30.341941-54.311894 64.155875-99.529806 97.873809-130.763745 35.99993-33.375935 70.669862-50.309902 103.043799-50.309902 32.435937 0 67.247869 16.951967 103.559797 50.373902 33.999934 31.265939 68.185867 76.497851 98.871807 130.793744 58.437886 103.419798 97.687809 227.805555 97.687809 309.493396 0 66.995869-7.249986 125.307755-21.437958 173.213662-13.375974 44.875912-33.249935 82.02784-59.249884 110.433784-48.559905 53.155896-119.869766 79.031846-217.993574 79.031846z" fill="#FFE7B0" /><path d="M592.629843 128.00975c-160.667686 0-318.571378 341.319333-318.571378 511.989 0 282.741448 123.277759 383.99125 320.007375 383.99125 196.743616 0 319.993375-101.249802 319.993375-383.99125 0.002-170.669667-160.745686-511.989-321.429372-511.989zM796.311445 909.240224c-44.247914 48.499905-110.433784 72.061859-202.243605 72.061859-91.825821 0-157.981691-23.561954-202.291605-72.061859-23.749954-25.999949-42.091918-60.339882-54.467894-102.1218-13.655973-45.93791-20.59196-102.1878-20.59196-167.121674 0-37.187927 8.999982-86.687831 25.279951-139.387728 16.967967-54.843893 40.591921-110.091785 68.341867-159.807688 29.249943-52.375898 61.65388-95.779813 93.747816-125.497755 39.781922-36.889928 70.107863-44.623913 88.545828-44.623912 33.497935 0 66.935869 24.311953 89.123825 44.717912 32.375937 29.781942 65.123873 73.215857 94.685816 125.591755 28.123945 49.779903 52.123898 105.027795 69.309864 159.791688 16.561968 52.715897 25.62395 102.1538 25.62395 139.215728 0 64.933873-6.875987 121.183763-20.56196 167.121674-12.375976 41.781918-30.68994 76.121851-54.501893 102.1218z" fill="#B6C967" /><path d="M592.629843 128.00975c-14.249972 0-28.499944 2.703995-42.623917 7.733985 145.247716 51.559899 278.743456 348.741319 278.743455 504.255015 0 261.741489-105.621794 367.929281-277.369458 382.241253 13.811973 1.187998 28.061945 1.749997 42.687917 1.749997 196.743616 0 319.993375-101.249802 319.993375-383.99125 0-170.669667-160.747686-511.989-321.431372-511.989z" fill="#FFFFFF" opacity=".2" /><path d="M766.251503 661.310708c0 117.83977-76.373851 213.367583-170.685666 213.367584-94.229816 0-170.635667-95.527813-170.635667-213.367584 0-117.79577 76.405851-213.309583 170.635667-213.309583 94.311816 0 170.685667 95.513813 170.685666 213.309583z" fill="#965353" /><path d="M595.565837 448.001125c-7.185986 0-14.309972 0.561999-21.309959 1.655997 84.185836 13.123974 149.309708 102.903799 149.309709 211.653586 0 108.807787-65.123873 198.557612-149.309709 211.679587 6.999986 1.093998 14.123972 1.687997 21.309959 1.687997 94.311816 0 170.685667-95.527813 170.685666-213.367584 0-117.79577-76.373851-213.309583-170.685666-213.309583z" fill="#FFFFFF" opacity=".2" /></svg>