<?xml version="1.0" standalone="no"?><!DOCTYPE svg PUBLIC "-//W3C//DTD SVG 1.1//EN" "http://www.w3.org/Graphics/SVG/1.1/DTD/svg11.dtd"><svg class="icon" width="128px" height="128.00px" viewBox="0 0 1024 1024" version="1.1" xmlns="http://www.w3.org/2000/svg"><path d="M741.742 200.01l-107.496 106.996 34.25 10.5c29.5 9 61.246 47.5 70.996 85.998 5.25 20.998 6.5 50.498-17 73.998-23.746 23.998-68.496 37.498-129.496 38.998h-8.25l-93.996 87.998 39 9c91.746 20.998 182.742 12.498 269.992-26 74.496-32.5 131.246-80.998 165.992-115.496 29.25-29.5 45.25-51.5 45.75-51.998l12.5-17.5-282.242-202.494z" fill="#F5BA45" /><path d="M981.484 389.504c-0.75 1-16.496 23-45.996 52.498-34.5 34.5-91.5 82.496-165.996 115.496-83.746 37-170.746 46.5-258.744 28l-20 19 39 9c91.746 20.998 182.742 12.498 269.992-26 74.496-32.5 131.246-80.998 165.992-115.496 29.25-29.5 45.25-51.5 45.75-51.998l12.5-17.5-34.25-24.5-8.248 11.5zM686.996 326.506c-11-15-24-27.5-37.5-34.498l-15.25 14.998 34.25 10.5c6.25 2 12.25 5 18.5 9z" fill="#FECD57" /><path d="M94.264 883.988c-16.75 17-43.75 17-60.248 0-16.75-16.5-16.75-43.5 0-60L717.992 139.512c8.254-8 18.75-12.5 30.25-12.5s22.25 4.5 30.25 12.5 12.5 19 12.5 30.5c0 11-4.5 22-12.5 29.998L94.264 883.988z" fill="#A85D5D" /><path d="M793.492 124.512c-25-24.998-65.5-24.998-90.496 0L18.766 808.99c-25 24.998-25 65.498 0 90.498 25 24.998 65.498 24.998 90.498 0l684.228-684.478c24.996-24.998 24.996-65.498 0-90.498z m-30.25 60.5L79.264 868.988c-8.5 8.5-22 8.5-30.25 0-8.25-8-8.25-21.5 0-30L733.242 154.512c5.25-5 11.75-6 15-6s9.75 1 15 6c5.5 5.5 6.25 12 6.25 15.5 0 3-0.75 9.5-6.25 15z" fill="#965353" /><path d="M582.246 245.51l90.5 90.496 120.746-120.996-90.496-90.498z" fill="#FECD57" /><path d="M365.754 521.998l30.25 30.5L124.512 823.988l-30.248-30.498z" fill="#FB6D51" /><path d="M138.262 689.494h42.75v125.994H138.262zM223.758 607.498h42.5v125.994h-42.5zM309.006 530.498h42.75v125.496h-42.75z" fill="#E8563F" /><path d="M702.996 215.01c8.25 8.5 8.25 22 0 30.5-8.25 7.998-21.75 7.998-30.25 0a21.886 21.886 0 0 1 0-30.5c8.5-8.5 22-8.5 30.25 0z" fill="#F5BA45" /><path d="M335.504 492.002l30.25 29.996L94.264 793.49l-30.25-30zM396.004 552.498l30.248 30-271.74 271.49-30-30z" fill="#E8563F" /></svg>