<?xml version="1.0" standalone="no"?><!DOCTYPE svg PUBLIC "-//W3C//DTD SVG 1.1//EN" "http://www.w3.org/Graphics/SVG/1.1/DTD/svg11.dtd"><svg class="icon" width="128px" height="128.00px" viewBox="0 0 1024 1024" version="1.1" xmlns="http://www.w3.org/2000/svg"><path d="M797.75 384.984c-6.5-0.796-13 1.454-17.688 6.094l-60.312 60.342a21.18 21.18 0 0 0-6.124 17.688 21.34 21.34 0 0 0 10.188 15.688l150.874 90.544c8.438 5.032 19.188 3.688 26.062-3.218A21.372 21.372 0 0 0 904 546.06l-90.56-150.87a21.266 21.266 0 0 0-15.69-10.206z" fill="#CCD1D9" /><path d="M726.624 5.754A21.3 21.3 0 0 0 707 0.614c-4.312 1.046-106.308 26.796-205.104 125.576-47.092 47.094-85.686 103.202-114.716 166.794-35.092 76.92-56.436 165.45-63.406 263.134-0.624 8.75 4.156 16.968 12.062 20.75s17.344 2.344 23.75-3.624c0.374-0.344 38.936-36.032 75.31-54.498a21.2 21.2 0 0 0 10.594-12.312c0.124-0.376 12.562-37.266 40.03-64.75 19.532-19.514 41.592-28.826 65.608-27.656 33.938 1.64 72.938 23.406 115.936 64.656 7.624 7.344 19.562 7.954 27.936 1.406l115.188-90.108c0.688-0.532 1.312-1.11 1.938-1.718a21.46 21.46 0 0 0 6.188-13.782 21.34 21.34 0 0 0-6.188-16.39c-34.312-34.25-59.624-69.638-75.376-105.154-12.376-27.876-18.876-55.936-19.376-83.42-0.75-45.876 15.812-75.296 16.624-76.764 3.75-5.968 4.124-13.17 1.312-19.608-5.5-12.532-4.312-36.204-2.25-48.156a21.3 21.3 0 0 0-6.436-19.236z" fill="#CCD1D9" /><path d="M354.68 576.65c7.656-93.872 28.718-179.12 62.686-253.494 29.032-63.592 67.624-119.702 114.686-166.794 87.64-87.638 177.824-117.794 200.074-124.216 0.25-2.64 0.562-5.078 0.938-7.156 1.25-7.078-1.188-14.312-6.438-19.234S714-1.088 707 0.614c-4.312 1.046-106.308 26.796-205.104 125.576-47.092 47.094-85.686 103.202-114.716 166.794-35.092 76.92-56.436 165.45-63.406 263.134a21.304 21.304 0 0 0 12.062 20.75 21.336 21.336 0 0 0 18.844-0.218z" fill="#FFFFFF" opacity=".2" /><path d="M749.876 300.564L135.714 914.77c-24.968 24.938-24.968 65.56 0 90.498 24.936 24.968 65.56 24.968 90.498 0l614.224-614.19c12.062-12.094 18.748-28.156 18.748-45.25 0-17.108-6.686-33.17-18.748-45.264-24.998-24.954-65.56-24.954-90.56 0z" fill="#965353" /><path d="M749.876 300.564l-135.746 135.762 90.496 90.512 135.812-135.76c12.062-12.094 18.748-28.156 18.748-45.25 0-17.108-6.686-33.17-18.748-45.264-25-24.954-65.562-24.954-90.562 0z" fill="#E6E9ED" /><path d="M229.9 1001.612l42.656-42.656v-181.028l-42.686 42.656zM330.304 901.208l42.688-42.686-0.032-181.03-42.656 42.688zM430.74 800.772l42.656-42.656v-181.028l-42.656 42.656z" fill="#7F4545" /></svg>