<?xml version="1.0" standalone="no"?><!DOCTYPE svg PUBLIC "-//W3C//DTD SVG 1.1//EN" "http://www.w3.org/Graphics/SVG/1.1/DTD/svg11.dtd"><svg class="icon" width="128px" height="128.00px" viewBox="0 0 1024 1024" version="1.1" xmlns="http://www.w3.org/2000/svg"><path d="M1016.49 367c-5.312-4.468-12.344-6.094-19.062-4.312-1.218 0.282-19.282 4.204-34.75-2.578-7.594-3.328-16.124-2.218-22.344 3.25-0.25 0.218-27.154 22.296-70.716 26.438-25.436 2.406-51.748-1.672-78.216-12.11-34.124-13.438-68.688-37.532-102.716-71.578a21.33 21.33 0 0 0-16.406-6.202 21.308 21.308 0 0 0-15.5 8.14l-90.092 115.186a21.336 21.336 0 0 0 1.406 27.906c44.844 46.718 69.092 88.31 72.124 123.638 2.032 23.532-5.904 44.406-23.53 62.032-19.218 19.218-43.062 27.842-43.218 27.904a21.296 21.296 0 0 0-12 10.468c-4.438 8.718-10.624 17.094-18.454 24.906-15.938 15.968-33.186 24.156-33.312 24.188-9.344 4.312-14.312 14.716-11.75 24.686a21.3 21.3 0 0 0 22.186 15.968c166.858-11.906 297.324-63.81 387.792-154.308 103.966-103.966 115.53-220.432 115.966-225.338 0.624-6.954-2.064-13.798-7.408-18.284z" fill="#F6BB42" /><path d="M997.428 362.688c-0.344 0.078-2.094 0.468-4.782 0.812-4.468 29.11-25.562 127.638-114.904 216.964-88.716 88.716-215.902 140.374-378.134 153.558a21.34 21.34 0 0 0-1.656 14.938 21.3 21.3 0 0 0 22.186 15.968c166.858-11.906 297.324-63.81 387.792-154.308 103.966-103.966 115.53-220.432 115.966-225.338 0.624-6.954-2.062-13.796-7.406-18.282-5.312-4.468-12.344-6.092-19.062-4.312z" fill="#FFFFFF" opacity=".2" /><path d="M638.684 0.1c-4.904 0.438-121.358 11.984-225.324 115.952-90.5 90.484-142.404 220.95-154.31 387.792-0.75 10.28 6 19.624 15.968 22.184a21.324 21.324 0 0 0 24.688-11.748c0.062-0.172 8.218-17.328 24.186-33.312 7.844-7.828 16.218-14.032 24.906-18.438a21.2 21.2 0 0 0 10.468-11.954c0.094-0.234 8.718-24.078 27.906-43.264 17.624-17.64 38.53-25.562 62.062-23.546 35.312 3.016 76.904 27.282 123.608 72.124 7.656 7.344 19.562 7.954 27.906 1.406l115.184-90.108a21.484 21.484 0 0 0 8.156-15.5 21.336 21.336 0 0 0-6.218-16.376c-34.06-34.06-58.124-68.624-71.592-102.732-10.436-26.468-14.498-52.794-12.092-78.216 4.124-43.578 26.216-70.452 26.342-70.624 5.468-6.218 6.656-14.858 3.344-22.436-6.782-15.484-2.876-33.516-2.594-34.75 1.812-6.718 0.188-13.734-4.312-19.062-4.47-5.344-11.314-8.016-18.282-7.392z" fill="#F6BB42" /><path d="M289.956 524.386c13.188-162.23 64.842-289.43 153.56-378.164 89.342-89.326 187.858-110.436 216.98-114.888 0.344-2.672 0.718-4.422 0.782-4.782 1.812-6.718 0.188-13.734-4.312-19.062-4.468-5.344-11.312-8.016-18.282-7.39-4.904 0.438-121.358 11.984-225.324 115.952-90.5 90.484-142.404 220.95-154.31 387.792-0.75 10.28 6 19.624 15.968 22.184 5.188 1.328 10.438 0.624 14.938-1.642z" fill="#FFFFFF" opacity=".2" /><path d="M655.684 277.768L18.742 914.74c-24.968 24.938-24.968 65.53 0 90.498 12.092 12.094 28.156 18.75 45.25 18.75s33.156-6.656 45.25-18.75l636.942-636.956c12.094-12.094 18.75-28.156 18.75-45.25s-6.656-33.17-18.75-45.264c-24.94-24.952-65.562-24.952-90.5 0z" fill="#965353" /><path d="M655.684 277.768l-135.732 135.762 90.484 90.514 135.746-135.764c12.094-12.094 18.75-28.156 18.75-45.25s-6.656-33.17-18.75-45.264c-24.938-24.95-65.56-24.95-90.498 0.002z" fill="#FFCE54" /><path d="M170.646 762.804L127.99 805.46v181.028l42.656-42.654zM271.082 843.398v-180.996l-42.688 42.654 0.032 181.03zM328.83 785.648l42.656-42.656v-181.028l-42.656 42.688z" fill="#7F4545" /></svg>