<?xml version="1.0" standalone="no"?><!DOCTYPE svg PUBLIC "-//W3C//DTD SVG 1.1//EN" "http://www.w3.org/Graphics/SVG/1.1/DTD/svg11.dtd"><svg class="icon" width="128px" height="128.00px" viewBox="0 0 1024 1024" version="1.1" xmlns="http://www.w3.org/2000/svg"><path d="M959.994 639.838c-11.782 0-21.344-9.532-21.344-21.312v-194.776c0-11.782 9.562-21.328 21.344-21.328 11.78 0 21.31 9.546 21.31 21.328v194.776c0 11.78-9.53 21.312-21.31 21.312zM874.65 575.84c-11.782 0-21.342-9.532-21.342-21.312v-57.702c0-11.782 9.56-21.328 21.342-21.328s21.344 9.546 21.344 21.328v57.702c0 11.78-9.562 21.312-21.344 21.312zM789.308 661.182c-11.782 0-21.312-9.562-21.312-21.344v-85.06c0-11.766 9.532-21.31 21.312-21.31s21.344 9.544 21.344 21.31v85.06c0 11.782-9.562 21.344-21.344 21.344zM789.308 767.834a21.296 21.296 0 0 1-21.312-21.31v-42.688c0-11.78 9.532-21.31 21.312-21.31s21.344 9.532 21.344 21.31v42.688c0 11.78-9.562 21.31-21.344 21.31z" fill="#DA4453" /><path d="M755.622 209.084a21.61 21.61 0 0 0-1.406-1.546L663.718 117.04a21.354 21.354 0 0 0-15.092-6.25 21.31 21.31 0 0 0-15.094 6.266l-130.31 130.574c-32.436 31.906-47.218 62.5-61.5 92.092-16.374 33.906-31.842 65.92-74.216 103.734-85.154 75.982-171.372 162.572-236.588 237.542C50.45 773.49 6.482 842.396 0.232 885.802a21.36 21.36 0 0 0 9.032 20.624l100.56 69.124a21.322 21.322 0 0 0 12.062 3.75c1.968 0 3.968-0.282 5.906-0.844a21.294 21.294 0 0 0 13.686-12c35.624-82.216 73.654-148.374 119.716-208.246 47.28-61.438 99.872-111.248 145.09-151.874 115.624-103.886 204.496-199.056 258.682-260.602 30.75-34.906 53.842-62.966 67.842-80.358a1450.83 1450.83 0 0 0 17.438-22.11c1.968-2.562 3.468-4.514 4.468-5.842l1.124-1.516c7.19-9.592 5.064-20.388-0.216-26.824z" fill="#965353" /><path d="M724.058 177.364c0.5 0.5 0.968 1.016 1.406 1.546 5.282 6.438 7.406 17.234 0.218 26.828l-1.156 1.516c-1 1.328-2.468 3.282-4.468 5.844a1279.082 1279.082 0 0 1-17.438 22.108c-13.966 17.39-37.092 45.452-67.808 80.356-54.188 61.546-143.06 156.716-258.682 260.588-45.218 40.624-97.81 90.466-145.09 151.902-46.062 59.874-84.124 126.03-119.748 208.214a21.19 21.19 0 0 1-13.688 12.032 21.14 21.14 0 0 1-17.968-2.938L0.106 890.678a21.312 21.312 0 0 0 9.156 15.75l100.56 69.124a21.322 21.322 0 0 0 12.062 3.75c1.968 0 3.968-0.282 5.906-0.844a21.294 21.294 0 0 0 13.686-12c35.624-82.216 73.654-148.374 119.716-208.246 47.28-61.438 99.872-111.248 145.09-151.874 115.624-103.886 204.496-199.056 258.682-260.602 30.75-34.906 53.842-62.966 67.842-80.358a1450.83 1450.83 0 0 0 17.438-22.11c1.968-2.562 3.468-4.514 4.468-5.842l1.124-1.516c7.188-9.594 5.062-20.39-0.218-26.828a21.61 21.61 0 0 0-1.406-1.546l-90.498-90.498v-0.016l60.344 60.342z" fill="#FFFFFF" opacity=".1" /><path d="M1018.116 398.844c7.968-8.374 7.812-21.592-0.376-29.78L699.624 50.946c-8.312-8.328-21.844-8.328-30.156 0l-90.5 90.514c-4.032 4-6.25 9.42-6.25 15.078s2.218 11.092 6.25 15.092l135.746 135.762c2.812 2.812 5.968 4.688 9.844 5.594 3.718 0.968 14.938 5.03 22.062 12.156 4.532 4.532 6.438 9.14 6.25 14.954-0.312 10.016-7.468 32.608-51.654 71.358a21.42 21.42 0 0 0-6.876 20.124l29.592 151.418a21.5 21.5 0 0 0 5.876 11 21.402 21.402 0 0 0 23.186 4.656c121.782-50.03 259.34-193.714 265.122-199.808z" fill="#CCD1D9" /><path d="M835.402 186.708l-135.78-135.762c-8.312-8.328-21.844-8.328-30.156 0L578.968 141.46c-4.032 4-6.25 9.42-6.25 15.078s2.218 11.078 6.218 15.078l135.778 135.778 120.688-120.686z" fill="#E6E9ED" /><path d="M1017.74 369.064l-38.498-38.516c-36.53 40.22-125.874 130.498-262.246 216.886l6.938 35.562a21.5 21.5 0 0 0 5.876 11 21.402 21.402 0 0 0 23.186 4.656c121.78-50.032 259.338-193.714 265.12-199.808 7.968-8.374 7.812-21.594-0.376-29.78z" fill="#ED5564" /></svg>