<?xml version="1.0" standalone="no"?><!DOCTYPE svg PUBLIC "-//W3C//DTD SVG 1.1//EN" "http://www.w3.org/Graphics/SVG/1.1/DTD/svg11.dtd"><svg class="icon" width="128px" height="128.00px" viewBox="0 0 1024 1024" version="1.1" xmlns="http://www.w3.org/2000/svg"><path d="M106.804 468.308c-58.89 0-106.794 47.908-106.794 106.78 0 58.906 47.904 106.812 106.794 106.812s106.794-47.906 106.794-106.812c0.002-58.874-47.902-106.78-106.794-106.78zM917.182 468.308c-58.876 0-106.782 47.908-106.782 106.78 0 58.906 47.906 106.812 106.782 106.812 58.904 0 106.808-47.906 106.808-106.812 0-58.874-47.904-106.78-106.808-106.78z" fill="#DBAFA5" /><path d="M813.432 294.374c-80.686-80.686-187.962-125.122-302.056-125.122-114.108 0-221.386 44.436-302.072 125.122S84.18 482.338 84.18 596.462c0 114.092 44.438 221.372 125.124 302.056s187.964 125.124 302.072 125.124c114.094 0 221.372-44.438 302.056-125.124 80.688-80.686 125.124-187.964 125.124-302.056 0-114.124-44.436-221.402-125.124-302.088z" fill="#EAC6BB" /><path d="M630 770.178c-10.218-5.906-23.282-2.376-29.156 7.844-0.032 0.062-4.656 6.938-15.718 14.094-12.656 8.188-35.624 17.938-73.218 17.938-68.138 0-89.576-31.376-90.452-32.718 0.156 0.218 0.218 0.344 0.218 0.344-3.75-6.188-10.532-10.344-18.296-10.344-11.794 0-21.358 9.562-21.358 21.344 0 4.032 1.14 7.782 3.062 11h-0.016c1.5 2.5 10.016 15.656 30.014 28.376 25.75 16.406 58.328 24.718 96.826 24.718 38.532 0 70.968-8.344 96.406-24.782 19.812-12.844 28.094-26.124 29.562-28.656 5.876-10.22 2.376-23.284-7.874-29.158zM361.848 511.026c0 11.782-9.562 21.344-21.36 21.344s-21.36-9.562-21.36-21.344c0-11.812 9.562-21.376 21.36-21.376s21.36 9.564 21.36 21.376zM703.624 511.026c0 11.782-9.562 21.344-21.376 21.344s-21.376-9.562-21.376-21.344c0-11.812 9.562-21.376 21.376-21.376s21.376 9.564 21.376 21.376z" fill="#434A54" /><path d="M491.048 297.186c-79.844 0-150.232-58.186-163.014-139.498-5.656-35.968 3.046-72 24.5-101.436 21.438-29.438 53.06-48.782 89.044-54.438 38.078-5.968 79.966 6.75 104.232 31.688 17.906 18.376 25.312 42 20.782 66.468-4.406 23.812-18.344 44.062-38.25 55.562-18.546 10.718-40.248 12.938-59.544 6.094-25.546-9.062-43.406-45.376-35.406-71.968 3.406-11.282 15.312-17.686 26.61-14.28 11.296 3.406 17.688 15.312 14.296 26.624-1.266 4.876 4.454 17.406 8.86 19.406 7.406 2.624 16.124 1.594 23.826-2.876 9.188-5.312 15.438-14.656 17.594-26.312 2.016-10.906-1.046-20.374-9.36-28.906-14.828-15.218-42.374-23.156-67.014-19.282-24.704 3.876-46.422 17.156-61.138 37.374-14.734 20.218-20.704 44.936-16.828 69.656 10.468 66.656 73.232 112.404 139.902 101.904 11.64-1.844 22.578 6.124 24.406 17.78 1.828 11.656-6.124 22.594-17.782 24.438a167.008 167.008 0 0 1-25.716 2.002z" fill="#FC6E51" /></svg>