<?xml version="1.0" standalone="no"?><!DOCTYPE svg PUBLIC "-//W3C//DTD SVG 1.1//EN" "http://www.w3.org/Graphics/SVG/1.1/DTD/svg11.dtd"><svg class="icon" width="128px" height="128.00px" viewBox="0 0 1024 1024" version="1.1" xmlns="http://www.w3.org/2000/svg"><path d="M959.984 448h-127.998v64h106.688v255.996h-106.688v64h127.998c23.562 0 42.688-19.094 42.688-42.656V490.688c0-23.562-19.126-42.688-42.688-42.688zM191.996 512v-64H64c-23.562 0-42.672 19.124-42.672 42.688V789.34c0 23.562 19.11 42.656 42.672 42.656h127.996v-64H85.328V512h106.668z" fill="#967ADC" /><path d="M639.368 186.85L596.68 16.196A21.328 21.328 0 0 0 575.992 0.008h-128a21.36 21.36 0 0 0-20.704 16.188l-42.654 170.654a21.336 21.336 0 0 0 3.876 18.312 21.392 21.392 0 0 0 16.812 8.188H618.68c6.562 0 12.75-3.032 16.812-8.188a21.6 21.6 0 0 0 3.876-18.312z" fill="#CCD1D9" /><path d="M511.992 42.696c11.782 0 21.328-9.562 21.328-21.344V0.008h-42.656v21.344c0 11.782 9.546 21.344 21.328 21.344z" fill="#AAB2BC" /><path d="M831.986 256.004H191.996c-11.78 0-21.326 9.562-21.326 21.342v639.988c0 58.812 47.842 106.656 106.654 106.656h469.352c58.81 0 106.624-47.844 106.624-106.656V277.348c-0.002-11.78-9.532-21.344-21.314-21.344z" fill="#AC92EB" /><path d="M701.928 594.718c-11.438-35.156-43.938-58.75-80.874-58.75-8.876 0-17.75 1.406-26.25 4.156-20.532 6.688-48.406 24.5-69.39 44.344-4.984 4.718-9.454 9.406-13.422 14.062-3.968-4.656-8.438-9.344-13.422-14.062-20.984-19.844-48.86-37.656-69.376-44.344a85.564 85.564 0 0 0-26.28-4.156 84.804 84.804 0 0 0-80.842 58.75c-7.032 21.594-5.218 44.656 5.094 64.876 10.312 20.25 27.888 35.246 49.482 42.278 13.282 4.312 32.344 6.782 52.31 6.782 21.578 0 42.438-2.876 58.704-8.094 7.734-2.468 16.484-6.188 24.328-11.624 7.828 5.438 16.594 9.156 24.328 11.624 16.266 5.218 37.11 8.094 58.704 8.094 19.968 0 39.032-2.468 52.31-6.782 21.594-7.032 39.156-22.028 49.468-42.278 10.316-20.218 12.128-43.25 5.128-64.876z" fill="#F6BB42" /><path d="M874.018 272.192l-21.344-85.342a21.3 21.3 0 0 0-20.688-16.156H191.996a21.33 21.33 0 0 0-20.702 16.156l-21.328 85.342a21.264 21.264 0 0 0 3.89 18.282 21.28 21.28 0 0 0 16.812 8.218h682.628a21.22 21.22 0 0 0 16.812-8.218 21.21 21.21 0 0 0 3.91-18.282z" fill="#E6E9ED" /><path d="M648.178 699.246c-14.748-20.308-48.06-47.214-81.124-60.684a185.658 185.658 0 0 0 9.25-17.124c12.376-26.094 20.688-58.124 20.688-79.688 0-46.874-38.124-85-85-85-46.89 0-85.032 38.124-85.032 85 0 21.562 8.328 53.594 20.718 79.688 2.954 6.188 6.046 11.906 9.25 17.124-33.062 13.468-66.388 40.376-81.124 60.684-13.36 18.376-18.75 40.844-15.204 63.282 3.562 22.406 15.64 42.124 34 55.468 14.624 10.624 31.888 16.25 49.936 16.25 26.376 0 51.422-12.376 67.454-33.218 16.032 20.844 41.062 33.218 67.438 33.218 18.062 0 35.312-5.624 49.938-16.25 18.374-13.344 30.436-33.062 33.998-55.468 3.564-22.438-1.812-44.906-15.186-63.282z" fill="#FFCE54" /><path d="M511.992 592.406c-35.296 0-64 28.718-64 64 0 35.278 28.704 63.996 64 63.996 35.312 0 64-28.718 64-63.996 0-35.282-28.688-64-64-64z" fill="#E6E9ED" /></svg>