<?xml version="1.0" standalone="no"?><!DOCTYPE svg PUBLIC "-//W3C//DTD SVG 1.1//EN" "http://www.w3.org/Graphics/SVG/1.1/DTD/svg11.dtd"><svg class="icon" width="128px" height="128.00px" viewBox="0 0 1024 1024" version="1.1" xmlns="http://www.w3.org/2000/svg"><path d="M234.662 405.322c-2.64 0-5.312-0.468-7.906-1.532L13.416 318.48c-10.938-4.376-16.25-16.812-11.876-27.75s16.782-16.25 27.734-11.876L242.6 364.2c10.938 4.376 16.25 16.782 11.876 27.718-3.33 8.342-11.346 13.404-19.814 13.404z" fill="#434A54" /><path d="M917.776 127.578c-68.5-68.498-159.594-106.216-256.464-106.248a21.286 21.286 0 0 0-15.062 6.25 21.368 21.368 0 0 0-6.248 15.094V383.98c0 11.812 9.53 21.342 21.31 21.342h341.338a21.33 21.33 0 0 0 21.342-21.342c-0.002-96.844-37.718-187.904-106.216-256.402z" fill="#E6E9ED" /><path d="M964.274 184.452L719.592 325.7l141.278-244.652a363.646 363.646 0 0 0-36.938-21.406l-181.088 313.682c-0.094 0.156-0.156 0.344-0.25 0.5-0.218 0.376-0.406 0.782-0.594 1.188l-0.376 0.844c-0.124 0.344-0.282 0.688-0.406 1.032s-0.218 0.688-0.312 1.032c-0.094 0.312-0.188 0.624-0.282 0.906-0.094 0.406-0.156 0.782-0.218 1.156a8.94 8.94 0 0 0-0.156 0.876c-0.062 0.376-0.124 0.75-0.156 1.124a9.866 9.866 0 0 0-0.062 1c-0.032 0.31-0.032 0.654-0.032 0.966 0 0.218 0.032 0.438 0.032 0.656 0 0.344 0.032 0.688 0.032 1.032 0.032 0.124 0.032 0.218 0.032 0.312 0.032 0.312 0.062 0.594 0.124 0.906 0.032 0.282 0.062 0.562 0.124 0.844 0 0.094 0.032 0.156 0.032 0.25 0.062 0.344 0.156 0.718 0.218 1.062 0.062 0.188 0.124 0.376 0.156 0.594 0.032 0.124 0.094 0.25 0.124 0.376 0.094 0.344 0.188 0.688 0.312 1.032 0.062 0.156 0.124 0.282 0.156 0.438 0.094 0.188 0.156 0.376 0.25 0.594 0.094 0.282 0.218 0.562 0.376 0.844 0.062 0.156 0.124 0.282 0.188 0.406 0.124 0.25 0.25 0.532 0.406 0.782a1.944 1.944 0 0 1 0.156 0.376c0.218 0.376 0.468 0.75 0.688 1.094 0.188 0.282 0.376 0.532 0.532 0.812 0.25 0.312 0.468 0.624 0.688 0.906l0.56 0.656c0.282 0.312 0.532 0.624 0.812 0.906 0.218 0.218 0.438 0.406 0.656 0.624 0.25 0.25 0.532 0.532 0.844 0.782 0.25 0.218 0.532 0.438 0.812 0.624 0.25 0.218 0.532 0.438 0.812 0.624 0.25 0.188 0.532 0.344 0.782 0.532 0.282 0.156 0.562 0.344 0.844 0.5s0.532 0.282 0.812 0.436c0.344 0.188 0.718 0.376 1.094 0.532 0.124 0.062 0.218 0.094 0.344 0.156 0.062 0.032 0.124 0.032 0.156 0.062 0.312 0.124 0.656 0.25 0.968 0.376 0.438 0.156 0.906 0.282 1.344 0.406 0.218 0.094 0.468 0.124 0.688 0.188 0.376 0.094 0.782 0.188 1.156 0.282 0.376 0.062 0.782 0.124 1.188 0.156 0.25 0.062 0.5 0.094 0.75 0.124 0.688 0.062 1.376 0.094 2.062 0.094h0.156c2.594 0 5.25-0.5 7.782-1.532 0.032 0 0.094-0.032 0.124-0.032 0.188-0.094 0.376-0.188 0.562-0.25 0.25-0.124 0.5-0.218 0.75-0.344 0.094-0.032 0.156-0.094 0.25-0.124l1.032-0.562 313.712-181.122a362.79 362.79 0 0 0-21.404-36.906zM728.652 777.8l-313.774-156.872c-10.532-5.312-23.358-1-28.624 9.5-5.266 10.562-1 23.376 9.546 28.624l313.728 156.872a127.89 127.89 0 0 1 19.124-38.124z" fill="#CCD1D9" /><path d="M521.546 816.55a21.328 21.328 0 0 1-19.108-11.812c-5.266-10.5-0.984-23.312 9.546-28.624l310.446-155.184c10.562-5.312 23.376-1 28.624 9.5 5.282 10.562 1 23.376-9.532 28.624l-310.46 155.246a20.786 20.786 0 0 1-9.516 2.25z" fill="#E6E9ED" /><path d="M511.486 831.988h320.508v42.688H511.486z" fill="#AAB2BC" /><path d="M1002.648 405.322H234.678c-11.782 0-21.344 9.562-21.344 21.342 0 105.874 86.14 234.64 191.998 234.64h426.664c105.844 0 191.996-128.766 191.996-234.64-0.002-11.78-9.562-21.342-21.344-21.342z" fill="#AC92EB" /><path d="M213.334 426.666V383.98c0-11.75 9.562-21.312 21.344-21.312h767.97c11.782 0 21.342 9.562 21.342 21.312v42.686H213.334z" fill="#967ADC" /><path d="M405.332 1002.672c-11.78 0-21.328-9.562-21.328-21.376V725.3c0-11.75 9.546-21.312 21.328-21.312s21.342 9.562 21.342 21.312v255.996c0 11.814-9.562 21.376-21.342 21.376z" fill="#434A54" /><path d="M495.844 965.172c-5.468 0-10.92-2.062-15.092-6.25l-181.012-180.996c-8.328-8.376-8.328-21.876 0-30.188a21.256 21.256 0 0 1 30.172 0l181.012 180.996c8.328 8.312 8.328 21.876 0 30.188a21.43 21.43 0 0 1-15.08 6.25z" fill="#434A54" /><path d="M533.328 874.676H277.334c-11.782 0-21.328-9.562-21.328-21.376 0-11.75 9.546-21.312 21.328-21.312h255.996c11.766 0 21.328 9.562 21.328 21.312-0.002 11.814-9.564 21.376-21.33 21.376z" fill="#434A54" /><path d="M314.834 965.172a21.454 21.454 0 0 1-15.094-6.25c-8.328-8.312-8.328-21.876 0-30.188l181.028-180.996a21.252 21.252 0 0 1 30.17 0c8.328 8.312 8.328 21.812 0 30.124l-181.028 181.058a21.414 21.414 0 0 1-15.076 6.252z" fill="#434A54" /><path d="M448.002 853.3c0 23.562-19.11 42.684-42.67 42.684s-42.656-19.122-42.656-42.684 19.094-42.624 42.656-42.624 42.67 19.062 42.67 42.624z" fill="#CCD1D9" /><path d="M831.994 1002.672c-11.782 0-21.344-9.562-21.344-21.376V725.3c0-11.75 9.562-21.312 21.344-21.312s21.312 9.562 21.312 21.312v255.996c0 11.814-9.53 21.376-21.312 21.376z" fill="#434A54" /><path d="M922.494 965.172a21.22 21.22 0 0 1-15.094-6.25l-180.998-180.996c-8.342-8.376-8.342-21.876 0-30.188 8.312-8.376 21.812-8.376 30.154 0l181.032 180.996c8.312 8.312 8.312 21.876 0 30.188-4.188 4.124-9.626 6.25-15.094 6.25z" fill="#434A54" /><path d="M959.992 874.676H703.998c-11.782 0-21.344-9.562-21.344-21.376 0-11.75 9.562-21.312 21.344-21.312h255.994c11.782 0 21.312 9.562 21.312 21.312 0 11.814-9.53 21.376-21.312 21.376z" fill="#434A54" /><path d="M741.464 965.172a21.404 21.404 0 0 1-15.062-6.25c-8.342-8.312-8.342-21.876 0-30.188l180.998-180.996a21.274 21.274 0 0 1 30.188 0c8.312 8.312 8.312 21.812 0 30.124l-181.032 181.058a21.42 21.42 0 0 1-15.092 6.252z" fill="#434A54" /><path d="M874.65 853.3c0 23.562-19.094 42.684-42.656 42.684s-42.688-19.122-42.688-42.684 19.124-42.624 42.688-42.624 42.656 19.062 42.656 42.624z" fill="#CCD1D9" /><path d="M831.994 1002.672c-82.342 0-149.34-67-149.34-149.372 0-82.312 66.998-149.312 149.34-149.312 82.344 0 149.31 67 149.31 149.312 0 82.372-66.966 149.372-149.31 149.372z m0-255.996c-58.812 0-106.686 47.812-106.686 106.624 0 58.808 47.874 106.684 106.686 106.684s106.656-47.876 106.656-106.684c0-58.812-47.844-106.624-106.656-106.624zM405.332 1002.672c-82.326 0-149.326-67-149.326-149.372 0-82.312 67-149.312 149.326-149.312 82.342 0 149.326 67 149.326 149.312-0.002 82.372-66.984 149.372-149.326 149.372z m0-255.996c-58.812 0-106.654 47.812-106.654 106.624 0 58.808 47.842 106.684 106.654 106.684 58.828 0 106.67-47.876 106.67-106.684-0.002-58.812-47.844-106.624-106.67-106.624z" fill="#656D78" /></svg>