<?xml version="1.0" standalone="no"?><!DOCTYPE svg PUBLIC "-//W3C//DTD SVG 1.1//EN" "http://www.w3.org/Graphics/SVG/1.1/DTD/svg11.dtd"><svg class="icon" width="128px" height="128.00px" viewBox="0 0 1024 1024" version="1.1" xmlns="http://www.w3.org/2000/svg"><path d="M106.804 460.758c-58.89 0-106.794 47.906-106.794 106.796 0 58.876 47.904 106.812 106.794 106.812s106.794-47.938 106.794-106.812c0.002-58.888-47.902-106.796-106.794-106.796zM917.182 460.758c-58.876 0-106.782 47.906-106.782 106.796 0 58.876 47.906 106.812 106.782 106.812 58.904 0 106.808-47.938 106.808-106.812 0-58.888-47.904-106.796-106.808-106.796z" fill="#DBAFA5" /><path d="M813.432 286.856c-80.686-80.686-187.962-125.122-302.056-125.122-114.108 0-221.386 44.436-302.072 125.122S84.18 474.79 84.18 588.93c0 114.058 44.438 221.372 125.124 302.058 80.686 80.684 187.964 125.122 302.072 125.122 114.094 0 221.372-44.438 302.056-125.122 80.688-80.688 125.124-188 125.124-302.058 0-114.14-44.436-221.388-125.124-302.074z" fill="#EAC6BB" /><path d="M361.848 503.478c0 11.78-9.562 21.342-21.36 21.342s-21.36-9.562-21.36-21.342c0-11.812 9.562-21.376 21.36-21.376s21.36 9.564 21.36 21.376zM629.062 762.614c-10.218-5.876-23.282-2.376-29.188 7.876 0 0.062-4.624 6.938-15.718 14.062-12.656 8.188-35.594 17.938-73.204 17.938-68.124 0-89.56-31.376-90.452-32.688 0.156 0.188 0.234 0.312 0.234 0.312l-0.016 0.062a21.23 21.23 0 0 0-18.296-10.376c-11.794 0-21.358 9.562-21.358 21.312 0 4.062 1.14 7.812 3.078 11h-0.032c1.5 2.562 10.016 15.688 30.03 28.438 25.75 16.376 58.312 24.688 96.81 24.688 38.546 0 70.984-8.376 96.422-24.812 19.812-12.812 28.094-26.124 29.562-28.624 5.878-10.252 2.348-23.314-7.872-29.188zM703.624 503.478c0 11.78-9.562 21.342-21.376 21.342s-21.376-9.562-21.376-21.342c0-11.812 9.562-21.376 21.376-21.376s21.376 9.564 21.376 21.376z" fill="#434A54" /><path d="M551.032 211.514l30.75-15.594-70.406 9.968-70.42-9.968 30.75 15.594-330.76 46.812 8.906 18.906c0.782 1.688 20.266 41.188 96.78 41.188h0.032c61.998 0 144.732-26 245.84-77.25l18.874-9.562 18.86 9.562c101.14 51.25 183.826 77.25 245.884 77.25 76.562 0 96-39.532 96.812-41.188l8.876-18.906-330.778-46.812z" fill="#D770AD" /><path d="M857.432 39.766c-18-20.844-46.062-31.876-81.124-31.876-44.374 0-125.996 18.094-264.932 102.812C372.394 25.986 290.786 7.892 246.458 7.892c-35.094 0-63.14 11.032-81.17 31.876-49.704 57.436-56.36 149.84-16.938 235.464 4.124 8.968 14.062 14.344 26.546 14.344 11.31 0 23.982-4.188 44.952-11.062 41.624-13.718 111.294-36.624 211.2-36.624 23.078 0 46.89 1.25 70.686 3.688 2.594 0.438 5.204 0.75 7.828 0.876l1.438 0.124 0.376-0.032 0.36 0.032 1.438-0.124a65.634 65.634 0 0 0 7.828-0.876c23.812-2.438 47.624-3.688 70.688-3.688 99.936 0 169.556 22.906 211.182 36.624 21 6.876 33.656 11.062 44.968 11.062 12.468 0 22.406-5.376 26.532-14.344 39.434-85.624 32.778-178.028-16.94-235.466z" fill="#EC87C0" /><path d="M511.376 231.95c-36.794 0-66.732-29.936-66.732-66.716 0-36.782 29.938-66.718 66.732-66.718 36.782 0 66.718 29.936 66.718 66.718 0 36.78-29.938 66.716-66.718 66.716z" fill="#F6BB42" /><path d="M511.376 131.89c-18.404 0-33.374 14.938-33.374 33.344s14.968 33.374 33.374 33.374c18.39 0 33.376-14.968 33.376-33.374-0.002-18.406-14.986-33.344-33.376-33.344z" fill="#FFCE54" /></svg>