<?xml version="1.0" standalone="no"?><!DOCTYPE svg PUBLIC "-//W3C//DTD SVG 1.1//EN" "http://www.w3.org/Graphics/SVG/1.1/DTD/svg11.dtd"><svg class="icon" width="128px" height="128.00px" viewBox="0 0 1024 1024" version="1.1" xmlns="http://www.w3.org/2000/svg"><path d="M74.68 384.002V906.68c0 17.656 14.328 32 32 32s32-14.344 32-32V384.002h-64z" fill="#CCD1D9" /><path d="M976.648 248.036c-15.032-18.78-29.874-34.842-37.966-43.342v-34c0-11.782-9.562-21.344-21.376-21.344H448.002c-11.782 0-21.328 9.562-21.328 21.344v34c-8.11 8.5-22.984 24.562-37.998 43.342-31.86 39.812-47.344 70.342-47.344 93.312v554.646c0 35.312 28.718 64 63.998 64h554.662c35.312 0 63.998-28.688 63.998-64V341.346c0-22.968-15.498-53.5-47.342-93.31z" fill="#A0D468" /><path d="M959.992 64.008H405.33c-11.78 0-21.326 9.562-21.326 21.342v85.342c0 11.78 9.546 21.312 21.326 21.312h554.662a21.3 21.3 0 0 0 21.312-21.312V85.35c0-11.78-9.53-21.342-21.312-21.342zM341.332 384.002h682.658v426.68H341.332zM213.334 320.066c0 82.5-47.748 149.404-106.654 149.404-58.922 0-106.67-66.904-106.67-149.404S47.758 170.694 106.68 170.694c58.906 0 106.654 66.872 106.654 149.372z" fill="#E6E9ED" /><path d="M512 149.35c-11.782 0-21.326 9.562-21.326 21.344v21.312h42.654V170.694c0-11.782-9.546-21.344-21.328-21.344z" fill="#CCD1D9" /><path d="M976.648 248.036c-15.032-18.78-29.874-34.842-37.966-43.342v-34c0-11.782-9.562-21.344-21.376-21.344h-42.624c11.75 0 21.312 9.562 21.312 21.344v34c8.124 8.5 23 24.562 38 43.342 31.842 39.812 47.31 70.342 47.31 93.312v554.646c0 35.312-28.688 64-63.998 64h42.686c35.312 0 63.998-28.688 63.998-64V341.346c0-22.968-15.498-53.5-47.342-93.31z" fill="#FFFFFF" opacity=".2" /><path d="M597.312 149.35c-11.75 0-21.312 9.562-21.312 21.344v21.312h42.688V170.694c0-11.782-9.564-21.344-21.376-21.344zM682.686 149.35c-11.812 0-21.376 9.562-21.376 21.344v21.312h42.688V170.694c0-11.782-9.562-21.344-21.312-21.344zM767.994 149.35c-11.782 0-21.31 9.562-21.31 21.344v21.312h42.624V170.694c-0.002-11.782-9.532-21.344-21.314-21.344zM853.306 149.35c-11.75 0-21.312 9.562-21.312 21.344v21.312h42.688V170.694c0-11.782-9.562-21.344-21.376-21.344z" fill="#CCD1D9" /><path d="M682.624 559.25c-10.75 0-19.968-8.094-21.188-19-1.782-16.594 3.938-39 17.594-68.532 9.282-20.062 18.844-36.094 19.25-36.75a21.33 21.33 0 0 1 29.28-7.344c10.094 6.062 13.376 19.188 7.312 29.282-16.124 26.906-32.53 64.624-30.998 78.688 1.282 11.718-7.188 22.25-18.876 23.532a20.52 20.52 0 0 1-2.374 0.124z" fill="#434A54" /><path d="M809.65 509.438c-19.718-25.5-48.218-39.532-80.28-39.532-15.06 0-30.716 3.032-46.686 9.062-16-6.032-31.688-9.062-46.716-9.062-32.032 0-60.562 14.032-80.282 39.532-18.016 23.282-27.922 55.376-27.922 90.374 0 36.124 13.906 73.062 38.172 101.374 24.75 28.906 57.094 45.498 88.748 45.498 9.624 0 19-1.5 28-4.5 9 3 18.376 4.5 27.938 4.5 31.686 0 64.058-16.592 88.808-45.466 24.25-28.342 38.124-65.28 38.124-101.404 0.002-35.002-9.904-67.096-27.904-90.376z" fill="#A0D468" /></svg>