<?xml version="1.0" standalone="no"?><!DOCTYPE svg PUBLIC "-//W3C//DTD SVG 1.1//EN" "http://www.w3.org/Graphics/SVG/1.1/DTD/svg11.dtd"><svg class="icon" width="128px" height="128.00px" viewBox="0 0 1024 1024" version="1.1" xmlns="http://www.w3.org/2000/svg"><path d="M98.562 409.992c-8.218 0-16.032-4.75-19.532-12.718L1.812 221.934a21.346 21.346 0 0 1 6.218-25.25L221.34 26.03a21.33 21.33 0 0 1 23.218-2.282 21.37 21.37 0 0 1 11.406 20.344l-19.906 298.652c-0.562 8.156-5.688 15.282-13.25 18.344l-116.216 47.342a21.344 21.344 0 0 1-8.03 1.562zM1015.968 196.684L802.658 26.03a21.264 21.264 0 0 0-23.218-2.25 21.294 21.294 0 0 0-11.406 20.312l19.968 298.652a21.288 21.288 0 0 0 13.25 18.344l116.156 47.342c2.624 1.062 5.344 1.562 8.032 1.562 8.218 0 16.032-4.75 19.532-12.718l77.216-175.34c3.872-8.844 1.344-19.22-6.22-25.25z" fill="#E6E9ED" /><path d="M618.664 1002.668H405.338c-74.81 0-133.498-23.938-174.404-71.092-79.28-91.404-61.998-237.214-60.154-251.088l42.624-639.24a21.326 21.326 0 0 1 21.282-19.906h112.03c9.75 0 18.25 6.594 20.656 16 16.968 65.936 76.436 111.998 144.622 111.998 68.172 0 127.672-46.062 144.638-111.998 2.406-9.406 10.906-16 20.656-16h112.028c11.218 0 20.532 8.718 21.282 19.906l42.624 639.24c1.844 13.874 19.124 159.684-60.156 251.088-40.908 47.154-99.592 71.092-174.402 71.092z" fill="#5D9CEC" /><path d="M170.686 703.986l-1.938-1.532c-2.876 46.966-1.562 155.624 62.186 229.122 36.936 42.592 88.374 66.216 153.06 70.404-0.374-255.402-213.308-297.994-213.308-297.994zM640.008 1001.98c64.686-4.188 116.12-27.812 153.056-70.404 60.094-69.28 64.718-169.842 62.624-220.496l-2.376-7.094c0.002 0-212.93 42.592-213.304 297.994z" fill="#4A89DC" /><path d="M675.444 437.178c-10.032-30.874-38.56-51.624-71.03-51.624-7.812 0-15.594 1.218-23.094 3.656-17.968 5.844-47.828 24.03-68.328 46.936a168.84 168.84 0 0 0-8.844-9.032c-17.906-16.936-41.78-32.186-59.436-37.904a74.336 74.336 0 0 0-23.094-3.656 74.528 74.528 0 0 0-71.03 51.624c-6.156 18.968-4.562 39.218 4.5 57s24.5 30.968 43.468 37.124c11.624 3.782 27.562 5.876 44.906 5.876 13.032 0 32.344-1.218 50.25-6.968 7.812-2.5 14.156-5.532 19.312-8.844 5.156 3.312 11.532 6.344 19.344 8.844 17.86 5.75 37.172 6.968 50.234 6.968 17.312 0 33.25-2.094 44.876-5.876 18.998-6.156 34.436-19.342 43.498-37.124s10.654-38.03 4.468-57z" fill="#F6BB42" /><path d="M629.946 523.772c-12.062-16.562-38.656-38.312-65.75-50.342 15.468-26.594 23.532-60.656 23.532-79.56 0-41.186-33.532-74.718-74.704-74.718-41.186 0-74.686 33.532-74.686 74.718 0 18.53 7.094 45.966 17.688 68.216a157.394 157.394 0 0 0 5.906 11.312c-27.124 12.032-53.75 33.782-65.81 50.374-11.718 16.156-16.468 35.906-13.344 55.624 3.124 19.688 13.718 37 29.874 48.75 12.842 9.312 28 14.25 43.842 14.25 21.75 0 42.436-9.562 56.53-25.876 14.124 16.312 34.766 25.876 56.516 25.876 15.844 0 31.032-4.938 43.876-14.25 16.124-11.75 26.75-29.062 29.876-48.75 3.12-19.718-1.628-39.468-13.346-55.624z" fill="#FFCE54" /><path d="M513.024 416.774c-35.28 0-64 28.718-64 64 0 35.312 28.718 64 64 64 35.266 0 63.984-28.688 63.984-64 0-35.282-28.718-64-63.984-64z" fill="#E6E9ED" /></svg>