<?xml version="1.0" standalone="no"?><!DOCTYPE svg PUBLIC "-//W3C//DTD SVG 1.1//EN" "http://www.w3.org/Graphics/SVG/1.1/DTD/svg11.dtd"><svg class="icon" width="128px" height="128.00px" viewBox="0 0 1024 1024" version="1.1" xmlns="http://www.w3.org/2000/svg"><path d="M149.342 682.688H64.032c-11.812 0-21.344 9.528-21.344 21.308v255.996c0 11.782 9.532 21.312 21.344 21.312h85.312c11.782 0 21.344-9.532 21.344-21.312V703.996c-0.002-11.782-9.564-21.308-21.346-21.308zM960 682.688h-85.31c-11.812 0-21.376 9.528-21.376 21.308v255.996c0 11.782 9.562 21.312 21.376 21.312H960c11.75 0 21.312-9.532 21.312-21.312V703.996c0-11.782-9.562-21.308-21.312-21.308z" fill="#8CC153" /><path d="M149.342 682.688H64.032c-11.812 0-21.344 9.528-21.344 21.308v85.312l106.656-42.624 21.344-17.376v-25.312c-0.002-11.782-9.564-21.308-21.346-21.308zM960 682.688h-85.31c-2.876 0-5.624 0.562-8.062 1.562l8.062 62.434 106.624 42.624v-85.312c-0.002-11.782-9.564-21.308-21.314-21.308z" fill="#A0D468" /><path d="M320.028 85.336h-128c-11.812 0-21.342 9.562-21.342 21.344v170.652c0 11.782 9.53 21.344 21.342 21.344h128c11.75 0 21.312-9.562 21.312-21.344V106.68c0-11.782-9.562-21.344-21.312-21.344zM832.002 85.336h-127.996c-11.812 0-21.312 9.562-21.312 21.344v170.652c0 11.782 9.5 21.344 21.312 21.344h127.996c11.75 0 21.312-9.562 21.312-21.344V106.68c0-11.782-9.562-21.344-21.312-21.344z" fill="#434A54" /><path d="M843.94 176.476c-28.688-27-67.688-48.36-115.874-63.484-58.498-18.344-131.184-27.656-216.042-27.656-84.906 0-157.59 9.312-216.058 27.656-48.218 15.124-87.218 36.484-115.904 63.484-51.468 48.42-52.03 98.748-52.03 100.856v682.66c0 35.312 31.25 64 69.686 64h628.598c38.438 0 69.688-28.688 69.688-64v-682.66c-0.002-2.11-0.564-52.436-52.064-100.856z" fill="#FFD2A6" /><path d="M444.9 130.476h-0.062c-11.75-0.032-21.25-9.532-21.25-21.296 0-1.046 0.094-26.016 9.282-51.218C446.464 20.586 473.494 0.008 508.9 0.008c35.36 0 62.296 20.062 75.984 56.516 9.25 24.67 9.376 49.124 9.376 50.156 0 11.78-9.562 21.328-21.376 21.328-11.75 0-21.312-9.546-21.312-21.328 0-0.124-0.188-18.546-6.938-36.014-9.734-25.094-25.046-27.984-35.734-27.984-10.624 0-25.842 3.016-35.656 29.062-6.812 18.17-7 37.312-7 37.5-0.064 11.732-9.594 21.232-21.344 21.232z" fill="#656D78" /><path d="M843.94 219.13c-28.688-26.984-67.688-48.358-115.874-63.484-58.498-18.344-131.184-27.64-216.042-27.64-84.906 0-157.59 9.296-216.058 27.64-48.218 15.124-87.218 36.5-115.904 63.484-51.468 48.436-52.03 98.748-52.03 100.874V448s68.06 85.328 380.868 85.328c312.792 0 387.104-85.328 387.104-85.328v-127.998c-0.002-2.124-0.564-52.434-52.064-100.872z" fill="#8CC153" /><path d="M843.94 176.476c-28.688-27-67.688-48.36-115.874-63.484-58.498-18.344-131.184-27.656-216.042-27.656-84.906 0-157.59 9.312-216.058 27.656-48.218 15.124-87.218 36.484-115.904 63.484-51.468 48.42-52.03 98.748-52.03 100.856v127.998s68.06 85.342 380.868 85.342c312.792 0 387.104-85.342 387.104-85.342v-127.998c-0.002-2.11-0.564-52.436-52.064-100.856z" fill="#A0D468" /><path d="M469.336 448h85.358v170.686h-85.358z" fill="#656D78" /><path d="M554.696 640h-85.358c-11.782 0-21.312-9.562-21.312-21.312V448c0-11.782 9.532-21.328 21.312-21.328h85.358c11.75 0 21.312 9.546 21.312 21.328v170.686c0 11.752-9.562 21.314-21.312 21.314z m-64.016-42.688h42.656v-127.984H490.68v127.984z" fill="#434A54" /><path d="M511.46 853.308c-242.152 0-234.122 170.684-234.122 170.684h469.352c0.002 0 6.936-170.684-235.23-170.684z" fill="#ED5564" /><path d="M469.336 511.532h85.358v42.656h-85.358z" fill="#434A54" /><path d="M826.314 981.304H197.716c-38.436 0-69.686-28.688-69.686-64v42.688c0 35.312 31.25 64 69.686 64h628.598c38.438 0 69.688-28.688 69.688-64v-42.688c0 35.314-31.25 64-69.688 64z" fill="#080808" opacity=".1" /></svg>