<?xml version="1.0" standalone="no"?><!DOCTYPE svg PUBLIC "-//W3C//DTD SVG 1.1//EN" "http://www.w3.org/Graphics/SVG/1.1/DTD/svg11.dtd"><svg class="icon" width="128px" height="128.00px" viewBox="0 0 1024 1024" version="1.1" xmlns="http://www.w3.org/2000/svg"><path d="M21.36 64.022H512v895.97H21.36zM512 64.022h490.672v895.97H512z" fill="#7F4545" /><path d="M1002.672 42.696H21.36C9.58 42.696 0.018 52.24 0.018 64.022v895.97c0 11.812 9.562 21.312 21.342 21.312h981.312c11.782 0 21.312-9.5 21.312-21.312V64.022c0-11.782-9.53-21.326-21.312-21.326zM42.704 85.35h447.986V938.68H42.704V85.35zM981.328 938.68H533.344V85.35h447.984V938.68z" fill="#A85D5D" /><path d="M170.698 170.69c0 23.562-19.092 42.656-42.686 42.656-23.562 0-42.656-19.094-42.656-42.656 0-23.56 19.094-42.67 42.656-42.67 23.594 0 42.686 19.108 42.686 42.67z" fill="#ED5564" /><path d="M298.694 170.69c0 23.562-19.092 42.656-42.686 42.656-23.562 0-42.656-19.094-42.656-42.656 0-23.56 19.092-42.67 42.656-42.67 23.594 0 42.686 19.108 42.686 42.67zM298.694 298.686c0 23.562-19.092 42.656-42.686 42.656-23.562 0-42.656-19.094-42.656-42.656 0-23.56 19.092-42.67 42.656-42.67 23.594 0 42.686 19.108 42.686 42.67z" fill="#FFCE54" /><path d="M426.69 170.69c0 23.562-19.092 42.656-42.686 42.656-23.562 0-42.654-19.094-42.654-42.656 0-23.56 19.092-42.67 42.654-42.67 23.594 0 42.686 19.108 42.686 42.67z" fill="#ED5564" /><path d="M682.68 170.69c0 23.562-19.09 42.656-42.684 42.656-23.562 0-42.656-19.094-42.656-42.656 0-23.56 19.094-42.67 42.656-42.67 23.594 0 42.684 19.108 42.684 42.67z" fill="#FFCE54" /><path d="M810.676 170.69c0 23.562-19.09 42.656-42.684 42.656-23.562 0-42.656-19.094-42.656-42.656 0-23.56 19.094-42.67 42.656-42.67 23.594 0 42.684 19.108 42.684 42.67zM938.672 170.69c0 23.562-19.09 42.656-42.684 42.656-23.562 0-42.656-19.094-42.656-42.656 0-23.56 19.094-42.67 42.656-42.67 23.594 0 42.684 19.108 42.684 42.67zM810.676 298.686c0 23.562-19.09 42.656-42.684 42.656-23.562 0-42.656-19.094-42.656-42.656 0-23.56 19.094-42.67 42.656-42.67 23.594 0 42.684 19.108 42.684 42.67zM810.676 426.682c0 23.562-19.09 42.654-42.684 42.654-23.562 0-42.656-19.092-42.656-42.654 0-23.56 19.094-42.67 42.656-42.67 23.594 0 42.684 19.11 42.684 42.67z" fill="#ED5564" /><path d="M170.698 853.308c0 23.562-19.092 42.688-42.686 42.688-23.562 0-42.656-19.124-42.656-42.688s19.094-42.624 42.656-42.624c23.594 0 42.686 19.062 42.686 42.624z" fill="#FFCE54" /><path d="M298.694 853.308c0 23.562-19.092 42.688-42.686 42.688-23.562 0-42.656-19.124-42.656-42.688s19.092-42.624 42.656-42.624c23.594 0 42.686 19.062 42.686 42.624z" fill="#ED5564" /><path d="M426.69 853.308c0 23.562-19.092 42.688-42.686 42.688-23.562 0-42.654-19.124-42.654-42.688s19.092-42.624 42.654-42.624c23.594 0 42.686 19.062 42.686 42.624z" fill="#FFCE54" /><path d="M810.676 853.308c0 23.562-19.09 42.688-42.684 42.688-23.562 0-42.656-19.124-42.656-42.688s19.094-42.624 42.656-42.624c23.594 0 42.684 19.062 42.684 42.624z" fill="#ED5564" /><path d="M938.672 853.308c0 23.562-19.09 42.688-42.684 42.688-23.562 0-42.656-19.124-42.656-42.688s19.094-42.624 42.656-42.624c23.594 0 42.684 19.062 42.684 42.624zM170.698 725.312c0 23.562-19.092 42.688-42.686 42.688-23.562 0-42.656-19.124-42.656-42.688s19.094-42.624 42.656-42.624c23.594 0.002 42.686 19.062 42.686 42.624zM938.672 725.312c0 23.562-19.09 42.688-42.684 42.688-23.562 0-42.656-19.124-42.656-42.688s19.094-42.624 42.656-42.624c23.594 0.002 42.684 19.062 42.684 42.624z" fill="#FFCE54" /><path d="M290.82 461.478l-36.748 83.902 78.59 73.312 78.59-36.814 36.75-83.886-73.278-73.28z" fill="#EDAB35" /><path d="M337.944 508.602l-83.872 36.778 78.59 73.312 78.59-36.814z" fill="#F6BB42" /><path d="M290.82 461.478l-36.748 83.902 83.872-36.778 36.78-83.89z" fill="#FFCE54" /><path d="M746.492 618.692l-33.312-85.358h-103.652l-33.344 85.358L609.528 704h103.652z" fill="#F6BB42" /><path d="M713.18 533.334l-33.34 85.358L713.18 704l33.312-85.308z" fill="#EDAB35" /><path d="M609.528 533.334l-33.344 85.358h103.656l33.34-85.358z" fill="#FFCE54" /></svg>