<?xml version="1.0" standalone="no"?><!DOCTYPE svg PUBLIC "-//W3C//DTD SVG 1.1//EN" "http://www.w3.org/Graphics/SVG/1.1/DTD/svg11.dtd"><svg class="icon" width="128px" height="128.00px" viewBox="0 0 1024 1024" version="1.1" xmlns="http://www.w3.org/2000/svg"><path d="M73.00854 464.712c-5.906 0-10.188-4-11.75-10.968l-39.312-174.028c-2.938-12.906 5.406-29.592 17.438-35.03l81.03-36.562c18.936-8.562 52.468-16.124 73.216-16.562l88.874-1.812c26.376-0.532 65.874-9.438 89.904-20.312l81.03-36.53c18.936-8.562 52.466-16.124 73.218-16.562l88.872-1.812h0.468c13.25 0 27.438 11.282 30.344 24.124l39.312 174.058c1.062 4.688 0.406 8.906-1.876 11.812-2.282 2.936-6.218 4.592-11.032 4.718l-90.248 1.968c-26.376 0.594-65.842 9.562-89.874 20.468l-79.718 36.124c-18.906 8.562-52.404 16.156-73.154 16.594l-88.874 1.812c-26.374 0.532-65.842 9.438-89.904 20.312l-80.998 36.53c-2.434 1.096-4.778 1.658-6.966 1.658z" fill="#ED5564" /><path d="M706.46454 307.998l-39.312-174.028c-5.094-22.624-28-40.782-51.156-40.782h-0.906l-88.872 1.844c-23.468 0.468-60.156 8.75-81.562 18.406L363.62854 150c-21.376 9.656-58.092 17.936-81.562 18.436l-88.874 1.812c-23.468 0.468-60.154 8.75-81.56 18.406l-80.998 36.562c-21.406 9.656-34.686 36.28-29.5 59.186l39.312 174.058c3.876 17.188 17.124 27.594 32.562 27.594 5.094 0 10.406-1.124 15.718-3.532l81.03-36.562c21.406-9.656 58.092-17.936 81.56-18.436l88.874-1.812c23.468-0.468 60.156-8.78 81.53-18.468l79.718-36.124c21.376-9.688 58.06-18.062 81.53-18.562l90.248-2c23.468-0.5 38.436-19.656 33.248-42.56zM48.16654 264.122l81.03-36.56c16.186-7.312 47.124-14.282 64.874-14.656l88.874-1.812c29.312-0.594 71.53-10.124 98.248-22.188l81.03-36.562c16.188-7.312 47.124-14.28 64.876-14.656L616.00054 135.876c3.218 0 8.844 4.406 9.532 7.5l13.312 58.936-83.936-1.906c-26.904-0.594-66.81 8.406-90.842 20.532l-80.904 40.81c-17.78 8.938-50.78 16.438-70.686 15.968l-90.56-2.094c-26.938-0.594-66.842 8.406-90.874 20.532l-74.968 37.812-13.312-58.968c-0.72-3.126 2.466-9.532 5.404-10.876z m533.864 45.75c-29.282 0.656-71.5 10.282-98.216 22.374l-79.686 36.124c-16.188 7.312-47.062 14.312-64.812 14.688l-88.874 1.812c-29.28 0.594-71.53 10.124-98.248 22.188l-72.248 32.624-14.188-62.812 84.498-42.592c17.75-8.968 50.78-16.406 70.656-15.968l90.592 2.062c26.936 0.594 66.842-8.406 90.874-20.532l80.904-40.812c17.75-8.936 50.782-16.436 70.654-15.936l94.624 2.156 14.188 62.874-80.718 1.75z" fill="#DA4453" /><path d="M942.52254 909.5c-2.376 0-4.906-0.688-7.468-2l-80.498-40.876c-23.5-11.938-62.562-22.624-88.874-24.376l-87.31-5.812c-20.718-1.376-53.844-10.5-72.344-19.934l-79.184-40.312c-23.5-12-62.532-22.812-88.842-24.562l-88.686-6.062c-4.812-0.312-8.624-2.124-10.782-5.188-2.124-3-2.594-7.188-1.312-11.876l47.53-171.934c3.406-12.312 17.312-22.704 30.342-22.704 0.532 0 1.062 0 1.594 0.032l88.686 6.032c20.72 1.406 53.842 10.578 72.342 20.016l79.186 40.376c23.5 11.938 62.532 22.75 88.842 24.558l88.686 6c20.718 1.376 53.876 10.562 72.376 20l79.184 40.376c11.782 6 19.282 23.062 15.782 35.812l-47.53 171.996c-1.846 6.626-6.126 10.438-11.72 10.438z" fill="#ED5564" /><path d="M995.67654 672.254l-79.186-40.376c-20.936-10.684-57.186-20.684-80.624-22.308l-88.654-6c-23.436-1.624-59.686-11.624-80.624-22.25l-79.186-40.39c-20.906-10.656-57.186-20.688-80.592-22.282l-88.686-6.032c-1-0.062-2-0.094-3.032-0.094-22.436 0-44.936 16.688-50.904 38.36l-47.53 171.934c-6.25 22.624 7.78 42.438 31.218 44.062l88.686 6c23.406 1.624 59.686 11.624 80.592 22.312l79.184 40.372c20.906 10.624 57.188 20.624 80.594 22.188l87.342 5.812c23.404 1.5 59.686 11.5 80.624 22.124l80.498 40.876c5.718 2.876 11.562 4.25 17.124 4.25 14.782 0 27.748-9.688 32.28-26.062l47.532-171.996c6.25-22.626-5.75-49.876-26.656-60.5z m-580.582-117.058h0.124l88.686 6.062c17.72 1.188 48.28 9.624 64.124 17.688l79.186 40.376c26.124 13.308 67.844 24.808 97.092 26.808l88.686 6.062c17.718 1.188 48.282 9.624 64.124 17.688l79.184 40.376c2.876 1.438 5.75 8 4.906 11.124l-16.124 58.25-73.058-41.312c-23.438-13.25-62.906-24.124-89.812-24.812l-90.558-2.25c-19.906-0.5-52.532-9.5-69.844-19.25l-78.874-44.624c-23.436-13.25-62.874-24.122-89.78-24.808l-83.936-2.062 16.094-58.25c0.782-2.816 6.156-7.066 9.78-7.066z m521.114 328.992l-71.998-36.562c-26.124-13.25-67.876-24.75-97.124-26.688l-87.31-5.746c-17.718-1.188-48.25-9.624-64.062-17.688l-79.184-40.376c-26.126-13.312-67.844-24.812-97.092-26.812l-79.092-5.376 17.156-62.062 94.592 2.376c19.876 0.438 52.532 9.5 69.844 19.25l78.872 44.624c23.438 13.25 62.876 24.124 89.782 24.812l90.59 2.25c19.876 0.438 52.5 9.5 69.812 19.25l82.374 46.622-17.16 62.126z" fill="#DA4453" /></svg>