<?xml version="1.0" standalone="no"?><!DOCTYPE svg PUBLIC "-//W3C//DTD SVG 1.1//EN" "http://www.w3.org/Graphics/SVG/1.1/DTD/svg11.dtd"><svg class="icon" width="128px" height="128.00px" viewBox="0 0 1024 1024" version="1.1" xmlns="http://www.w3.org/2000/svg"><path d="M350.52 703.614l-30.17-30.186 223.678-223.66 30.182 30.172z" fill="#434A54" /><path d="M1015.594 219.89l-30.152-30.172-18.876 18.876-30.154-30.17 60.308-60.326-30.154-30.17-60.34 60.326-30.156-30.156 60.342-60.34-30.186-30.17-60.34 60.34-30.156-30.17 18.876-18.876-30.188-30.17-18.874 18.876-13.466-13.484-30.188 30.17 13.5 13.484-30.188 30.17-38.122-38.138-30.156 30.17 38.124 38.138-30.156 30.156-43.652-43.638-30.188 30.17 43.654 43.638-30.154 30.17L566.742 170.8l-30.17 30.17 37.792 37.794-30.152 30.17-13.5-13.482-30.156 30.17 13.468 13.482-21.292 21.296 30.17 30.17 21.312-21.294 30.152 30.17-60.34 60.324 30.188 30.17 60.34-60.34 30.154 30.17-60.342 60.342 30.188 30.17 60.34-60.342 30.156 30.172-20.968 20.966 30.186 30.154 20.936-20.952 13.156 13.138 30.156-30.17-13.124-13.138 30.154-30.172 37.81 37.794 30.154-30.17-37.78-37.794 30.156-30.17 43.652 43.654 30.156-30.17-43.624-43.638 30.156-30.17 37.808 37.794 30.156-30.172-37.81-37.794 30.186-30.17 13.124 13.14 30.186-30.17-13.156-13.14 18.874-18.872z m-139.524-41.466l-30.184 30.17-30.156-30.17 30.156-30.17 30.184 30.17z m-120.68 60.34l30.154-30.17 30.186 30.17-30.186 30.17-30.154-30.17z m0 60.34l-30.188 30.172-30.152-30.172 30.152-30.17 30.188 30.17z m30.154-211.176l30.186 30.17-30.186 30.156-30.154-30.156 30.154-30.17z m-60.34 60.326l30.188 30.17-30.156 30.17-30.184-30.17 30.152-30.17z m-60.31 60.34l30.156 30.17-30.156 30.17-30.186-30.17 30.186-30.17z m-90.526 90.51l30.188-30.17 30.154 30.17-30.154 30.172-30.188-30.172z m60.34 60.342l30.186-30.17 30.156 30.17-30.156 30.154-30.186-30.154z m90.496 90.494l-30.152-30.17 30.152-30.17 30.188 30.17-30.188 30.17z m60.34-60.34l-30.154-30.154 30.154-30.17 30.186 30.17-30.186 30.154z m60.342-60.324l-30.156-30.172 30.156-30.17 30.184 30.17-30.184 30.172z m60.34-60.342l-30.156-30.17 30.156-30.17 30.154 30.17-30.154 30.17z" fill="#E6E9ED" /><path d="M691.582 537.498c-58.874 0-109.902-19.904-147.554-57.558-45.078-45.076-64.716-109.698-55.294-181.944 9.156-70.154 44.858-139.478 100.542-195.162C654.648 37.494 738.3 0.028 818.858 0.028c58.872-0.016 109.87 19.904 147.524 57.558 45.092 45.076 64.746 109.698 55.308 181.944-9.154 70.168-44.872 139.476-100.554 195.162-65.344 65.34-148.996 102.822-229.554 102.806zM818.856 42.68c-32.936 0-68.122 7.86-101.778 22.718-35.684 15.764-68.528 38.514-97.618 67.606-99.824 99.806-120.12 241.908-45.25 316.764 29.468 29.484 70.058 45.076 117.372 45.076 32.902 0 68.09-7.86 101.742-22.716 35.688-15.766 68.56-38.514 97.652-67.606 99.808-99.808 120.12-241.91 45.248-316.766-29.498-29.482-70.06-45.076-117.368-45.076z" fill="#ED5564" /><path d="M350.52 673.428c-4-3.998-9.42-6.248-15.078-6.248h-60.34a21.33 21.33 0 0 0-15.078 6.248L6.258 927.226c-8.344 8.312-8.344 21.812 0 30.156l60.324 60.34a21.324 21.324 0 0 0 30.172 0L350.52 763.956c4-4 6.25-9.438 6.25-15.092v-60.31a21.38 21.38 0 0 0-6.25-15.126z" fill="#FFD2A6" /><path d="M356.77 688.552a21.328 21.328 0 0 0-21.328-21.372h-60.34a21.33 21.33 0 0 0-15.078 6.248l90.496 90.528c4-4 6.25-9.438 6.25-15.092v-60.312z" fill="#ED5564" /><path d="M913.632 792.984l-15.094-15.094c-8.312-8.344-21.812-8.344-30.156 0l-90.494 90.496c-8.342 8.344-8.342 21.844 0 30.156l15.06 15.124c33.282 33.248 87.402 33.248 120.684 0 33.278-33.31 33.278-87.434 0-120.682z" fill="#FFCE54" /><path d="M901.758 781.984l-90.496-150.836a21.26 21.26 0 0 0-15.688-10.186 21.236 21.236 0 0 0-17.686 6.092l-150.868 150.836a21.336 21.336 0 0 0-6.06 17.688 21 21 0 0 0 6.092 12.468 20.408 20.408 0 0 0 4.094 3.218l150.836 90.526 119.776-119.806z" fill="#E6E9ED" /><path d="M856.948 826.794l-79.058-79.056a21.33 21.33 0 0 0-30.186 0c-8.312 8.31-8.312 21.808 0 30.152l79.09 79.09 30.154-30.186z" fill="#CCD1D9" /></svg>