<?xml version="1.0" standalone="no"?><!DOCTYPE svg PUBLIC "-//W3C//DTD SVG 1.1//EN" "http://www.w3.org/Graphics/SVG/1.1/DTD/svg11.dtd"><svg class="icon" width="128px" height="128.00px" viewBox="0 0 1024 1024" version="1.1" xmlns="http://www.w3.org/2000/svg"><path d="M880.976 1002.54c-57.92 0-164.356-41.05-165.45-41.458l-3.718-1.438H312.166l-3.718 1.438c-1.062 0.406-107.53 41.458-165.418 41.458-16.276 0-20.776-3.5-20.948-3.624-2.468-2.25-7.028-22.492 15.496-80.226 15.604-39.924 35.878-76.726 36.082-77.1l5.794-10.498-5.936-10.402c-11.542-20.182-23.79-135.24-23.79-308.656s12.246-288.458 23.79-308.64l5.952-10.418-5.81-10.496c-0.204-0.36-20.478-37.146-36.066-77.102-22.54-57.732-17.98-77.946-15.512-80.21 0.468-0.376 5.03-3.67 21.292-3.67 57.998 0 164.074 40.47 165.136 40.892l3.702 1.406h399.564l3.688-1.406c1.062-0.422 107.156-40.892 165.136-40.892 16.278 0 20.838 3.294 21.306 3.67 2.466 2.266 7.06 22.572-15.65 80.554-15.622 39.94-35.708 76.398-35.928 76.758l-5.81 10.496 5.966 10.418c11.528 20.182 23.774 135.224 23.774 308.64s-12.246 288.474-23.774 308.656l-5.966 10.402 5.81 10.498c0.188 0.374 20.462 37.176 36.084 77.1 22.524 57.734 17.96 77.976 15.494 80.226-0.466 0.374-4.934 3.624-20.93 3.624z" fill="#FFD2A6" /><path d="M868.98 192.816s84.818-153.218 46.33-184.256c-7.436-5.982-19.712-8.404-34.708-8.404-62.7 0-172.76 42.314-172.76 42.314H316.166S206.074 0.172 143.374 0.156c-14.98 0-27.258 2.422-34.676 8.404-38.504 31.038 46.298 184.256 46.298 184.256-35.474 62.058-35.474 576.356 0 638.46 0 0-84.802 153.204-46.298 184.258 7.356 5.934 19.508 8.308 34.334 8.308 62.636 0 173.134-42.862 173.134-42.862h391.676s110.466 42.862 173.134 42.862c14.808 0 26.96-2.376 34.334-8.308 38.488-31.054-46.33-184.258-46.33-184.258 35.488-62.104 35.488-576.4 0-638.46z m13.278 788.354c-0.438 0.032-0.844 0.032-1.282 0.032-44.706 0-129.024-28.866-157.732-39.988l-7.436-2.904H308.184l-7.434 2.874c-28.726 11.154-113.028 40.02-157.718 40.02-0.454 0-0.876 0-1.282-0.032 1.204-10.624 5.686-31.24 20.65-66.916 14.074-33.554 29.772-62.044 29.912-62.326l11.622-20.994-11.732-20.524c-0.828-1.812-8.84-21.37-14.916-103.344-4.014-54.36-6.232-123.62-6.232-195.036 0-71.4 2.218-140.66 6.248-195.02 6.06-81.958 14.09-101.532 14.902-103.342l11.716-20.526-11.59-20.978c-0.156-0.282-15.854-28.788-29.928-62.324-14.996-35.788-19.462-56.388-20.666-67.012 0.532-0.016 1.078-0.016 1.64-0.016 44.814 0 128.882 28.492 157.484 39.472l7.388 2.844h407.5l7.374-2.844c28.616-10.98 112.684-39.472 157.482-39.472 0.594 0 1.124 0 1.656 0.016-1.218 10.624-5.686 31.224-20.682 67.012-14.056 33.538-29.74 62.042-29.896 62.308l-11.622 20.994 11.746 20.526c0.812 1.81 8.808 21.382 14.902 103.342 4.03 54.36 6.246 123.62 6.246 195.02 0 71.416-2.216 140.676-6.246 195.036-6.094 81.974-14.09 101.532-14.934 103.344l-11.714 20.524 11.59 20.962c0.188 0.312 15.872 28.802 29.928 62.358 14.994 35.674 19.462 56.29 20.68 66.914z" fill="#F4BE8E" /><path d="M298.794 341.038h426.542v341.1H298.794z" fill="#EC5564" /></svg>