<?xml version="1.0" standalone="no"?><!DOCTYPE svg PUBLIC "-//W3C//DTD SVG 1.1//EN" "http://www.w3.org/Graphics/SVG/1.1/DTD/svg11.dtd"><svg class="icon" width="128px" height="128.00px" viewBox="0 0 1024 1024" version="1.1" xmlns="http://www.w3.org/2000/svg"><path d="M786.742 443.846c-0.906-4.438-22.032-109.838-64.842-217.084C661.84 76.296 590.5 0.02 509.814 0.02c-80.684 0-152.026 76.278-212.084 226.742-42.812 107.246-63.936 212.648-64.81 217.084-2.312 11.532 5.186 22.782 16.75 25.062s22.812-5.218 25.062-16.782c0.25-1.032 21.376-106.434 62.81-210.054 36.374-90.964 95.78-199.398 172.276-199.398 76.498 0 135.9 108.434 172.276 199.398 41.436 103.622 62.59 209.024 62.808 210.054 2 10.156 10.906 17.188 20.876 17.188 1.376 0 2.782-0.124 4.188-0.406 11.558-2.282 19.058-13.5 16.776-25.062z" fill="#424953" /><path d="M915.142 341.318H104.486c-46.936 0-78.246 37.75-69.59 83.874l96.528 514.918c8.686 46.124 54.122 83.872 101.058 83.872h597.324c46.934 0 90.088-38.124 95.9-84.684l64.186-513.292c5.812-46.564-27.812-84.688-74.75-84.688z m-661.318 149.34c-23.53 0-42.656-19.156-42.656-42.656 0-23.53 19.124-42.686 42.656-42.686s42.656 19.156 42.656 42.686c0 23.5-19.126 42.656-42.656 42.656z m511.98 0c-23.532 0-42.654-19.156-42.654-42.656 0-23.53 19.124-42.686 42.654-42.686s42.656 19.156 42.656 42.686c0 23.5-19.124 42.656-42.656 42.656z" fill="#FECD57" /><path d="M595.156 426.66h-170.682c-11.75 0-21.312 9.532-21.312 21.342 0 11.75 9.562 21.312 21.312 21.312h170.682c11.78 0 21.31-9.562 21.31-21.312 0-11.81-9.53-21.342-21.31-21.342z" fill="#EC5564" /><path d="M253.824 384.004c-35.342 0-63.998 28.624-63.998 63.998 0 35.342 28.656 63.998 63.998 63.998s63.998-28.656 63.998-63.998c0-35.374-28.656-63.998-63.998-63.998z m0 85.31c-11.782 0-21.342-9.562-21.342-21.312 0-11.78 9.562-21.342 21.342-21.342s21.342 9.562 21.342 21.342c0 11.75-9.56 21.312-21.342 21.312zM765.804 384.004c-35.342 0-63.996 28.624-63.996 63.998 0 35.342 28.654 63.998 63.996 63.998 35.344 0 64-28.656 64-63.998 0-35.374-28.656-63.998-64-63.998z m0 85.31c-11.782 0-21.344-9.562-21.344-21.312 0-11.78 9.562-21.342 21.344-21.342s21.344 9.562 21.344 21.342c0 11.75-9.562 21.312-21.344 21.312z" fill="#F5BA45" /></svg>