<?xml version="1.0" standalone="no"?><!DOCTYPE svg PUBLIC "-//W3C//DTD SVG 1.1//EN" "http://www.w3.org/Graphics/SVG/1.1/DTD/svg11.dtd"><svg class="icon" width="128px" height="128.00px" viewBox="0 0 1024 1024" version="1.1" xmlns="http://www.w3.org/2000/svg"><path d="M788.99 512c6.5 0 13 1.5 18.5 4.25-5-49.498-17-141.246-43.5-234.242-22.998-79.748-52.498-143.746-86.996-190.244C630.996 31.018 574.998 0.02 511.5 0.02c-63.998 0-119.494 31-165.494 91.746-34.498 46.498-63.996 110.496-86.996 190.244-26.498 92.996-38.498 184.744-43.498 234.242 5.5-2.75 12-4.25 18.5-4.25 8.998 0 17.498 2.75 23.998 7.75 5-48.248 16.5-137.496 42-225.742 21.498-74.998 48.496-134.246 80.496-176.494 37.498-50.248 80.496-74.748 130.994-74.748 50.5 0 92.998 24.25 130.996 74.498 31.998 42 58.998 101.246 80.496 175.994 25.498 88.496 36.998 178.244 41.998 226.492 6.5-5.002 15-7.752 24-7.752z" fill="#424953" /><path d="M234.012 490.75a63.802 63.802 0 0 0-63.998 64c0 35.248 28.498 63.996 63.998 63.996 34.998 0 63.998-28.748 63.998-63.996 0-35.5-29-64-63.998-64z m0 85.248c-12 0-21.5-9.498-21.5-21.248s9.5-21.5 21.5-21.5c11.498 0 20.998 9.75 20.998 21.5s-9.5 21.248-20.998 21.248zM788.99 490.75c-35 0-63.998 28.5-63.998 64 0 35.248 28.998 63.996 63.998 63.996 35.5 0 63.998-28.748 63.998-63.996 0-35.5-28.498-64-63.998-64z m0 85.248c-11.5 0-21-9.498-21-21.248s9.5-21.5 21-21.5c12 0 21.5 9.75 21.5 21.5s-9.5 21.248-21.5 21.248z" fill="#FECD57" /><path d="M895.984 1002.732c0 11.748-9.998 21.248-21.496 21.248H149.014c-11.5 0-20.998-9.5-20.998-21.248V575.998c0-11.748 9.498-21.248 20.998-21.248h725.474c11.498 0 21.496 9.5 21.496 21.248v426.734z" fill="#D94452" /><path d="M148.514 554.75c-12 0-15.998 8-9.5 17.75l147.496 220.49c6.5 9.75 21.498 17.75 32.998 17.75h383.986c11.498 0 26.498-8 32.998-17.75l147.494-220.49c6.498-9.75 2-17.75-9.498-17.75H148.514z" fill="#EC5564" /><path d="M426.004 767.99h170.994v85.248h-170.994z" fill="#FECD57" /><path d="M596.998 746.74h-170.994c-11.5 0-21 9.5-21 21.25v85.248c0 12 9.5 21.5 21 21.5h170.994c11.498 0 20.998-9.5 20.998-21.5v-85.248c0-11.75-9.5-21.25-20.998-21.25z m-21.5 85.25h-127.996V789.24h127.996v42.75z" fill="#F5BA45" /></svg>