<?xml version="1.0" standalone="no"?><!DOCTYPE svg PUBLIC "-//W3C//DTD SVG 1.1//EN" "http://www.w3.org/Graphics/SVG/1.1/DTD/svg11.dtd"><svg class="icon" width="128px" height="128.00px" viewBox="0 0 1024 1024" version="1.1" xmlns="http://www.w3.org/2000/svg"><path d="M973.588 469.346C933.434 250.882 742.062 85.358 512.008 85.358s-421.44 165.526-461.58 383.988h-7.732v85.34c0 259.182 210.118 469.298 469.312 469.298 259.18 0 469.296-210.118 469.296-469.298v-85.34h-7.716zM693.002 778.368c-48.31 48.342-112.622 74.966-180.994 74.966s-132.668-26.624-181.01-74.966c-48.358-48.374-74.982-112.652-74.982-181.026s26.624-132.652 74.982-181.026c48.342-48.342 112.636-74.966 181.01-74.966s132.684 26.624 180.994 74.966C741.376 464.69 768 528.968 768 597.342s-26.624 132.652-74.998 181.026z" fill="#FFD2A6" /><path d="M330.998 416.316c48.342-48.342 112.636-74.966 181.01-74.966s132.684 26.624 180.994 74.966c32.874 32.874 55.716 73.122 66.966 117.028A258.16 258.16 0 0 0 768 469.346c0-68.374-26.624-132.668-74.998-181.026-48.31-48.342-112.622-74.966-180.994-74.966s-132.668 26.624-181.01 74.982c-48.358 48.342-74.982 112.636-74.982 181.01 0 21.874 2.734 43.342 8.032 63.998 11.248-43.906 34.076-84.154 66.95-117.028z" fill="#DA4453" /><path d="M330.998 416.316c48.342-48.342 112.636-74.966 181.01-74.966s132.684 26.624 180.994 74.966c38.154 38.154 62.748 86.216 71.466 138.37A257.948 257.948 0 0 0 768 512c0-68.374-26.624-132.652-74.998-181.01-48.31-48.342-112.622-74.982-180.994-74.982s-132.668 26.64-181.01 74.982c-48.358 48.358-74.982 112.636-74.982 181.01 0 14.438 1.204 28.718 3.532 42.686 8.702-52.154 33.312-100.216 71.45-138.37z" fill="#F4BE8E" /><path d="M512.008 0.016C252.812 0.016 42.696 210.15 42.696 469.346c0 259.21 210.118 469.33 469.312 469.33 259.18 0 469.296-210.12 469.296-469.33C981.304 210.15 771.188 0.016 512.008 0.016z m180.994 650.356c-48.31 48.342-112.622 74.966-180.994 74.966s-132.668-26.624-181.01-74.966c-48.358-48.374-74.982-112.652-74.982-181.026s26.624-132.668 74.982-181.01c48.342-48.358 112.636-74.982 181.01-74.982s132.684 26.624 180.994 74.966C741.376 336.678 768 400.972 768 469.346s-26.624 132.652-74.998 181.026z" fill="#ED5564" /><path d="M469.346 43.96m-21.334 0a21.334 21.334 0 1 0 42.668 0 21.334 21.334 0 1 0-42.668 0Z" fill="#DA4453" /><path d="M539.586 59.044c8.328 8.328 21.858 8.328 30.17 0 8.312-8.328 8.312-21.842 0-30.17s-21.842-8.328-30.17 0-8.328 21.844 0 30.17zM240.938 144.372c8.328 8.328 21.828 8.328 30.172 0 8.328-8.328 8.328-21.828 0-30.17-8.344-8.328-21.844-8.328-30.172 0-8.326 8.34-8.326 21.84 0 30.17zM326.264 144.372c8.328 8.328 21.844 8.328 30.172 0s8.328-21.828 0-30.17c-8.328-8.328-21.844-8.328-30.172 0-8.328 8.34-8.328 21.84 0 30.17zM411.59 144.372c8.328 8.328 21.842 8.328 30.17 0s8.328-21.828 0-30.17c-8.328-8.328-21.842-8.328-30.17 0-8.328 8.34-8.328 21.84 0 30.17zM496.93 144.372c8.328 8.328 21.828 8.328 30.172 0 8.328-8.328 8.328-21.828 0-30.17-8.344-8.328-21.844-8.328-30.172 0-8.326 8.34-8.326 21.84 0 30.17zM582.256 144.372c8.312 8.328 21.842 8.328 30.186 0 8.312-8.328 8.312-21.828 0-30.17-8.344-8.328-21.874-8.328-30.186 0-8.312 8.34-8.312 21.84 0 30.17zM667.566 144.372c8.344 8.328 21.874 8.328 30.186 0s8.312-21.828 0-30.17c-8.312-8.328-21.842-8.328-30.186 0-8.312 8.34-8.312 21.84 0 30.17zM752.938 144.372c8.312 8.328 21.812 8.328 30.156 0s8.344-21.828 0-30.17c-8.344-8.328-21.844-8.328-30.156 0-8.344 8.34-8.344 21.84 0 30.17zM198.268 229.698c8.328 8.342 21.844 8.342 30.172 0 8.328-8.328 8.328-21.828 0-30.156-8.328-8.344-21.844-8.344-30.172 0-8.328 8.328-8.328 21.828 0 30.156zM283.594 229.698c8.328 8.342 21.842 8.342 30.17 0 8.328-8.328 8.328-21.828 0-30.156-8.328-8.344-21.842-8.344-30.17 0-8.328 8.328-8.328 21.828 0 30.156zM368.918 229.698a21.336 21.336 0 0 0 30.188 0c8.312-8.328 8.312-21.828 0-30.156a21.332 21.332 0 0 0-30.188 0c-8.326 8.328-8.326 21.828 0 30.156zM624.91 229.698a21.336 21.336 0 0 0 30.188 0c8.312-8.328 8.312-21.828 0-30.156a21.332 21.332 0 0 0-30.188 0 21.294 21.294 0 0 0 0 30.156zM710.252 229.698c8.312 8.342 21.842 8.342 30.186 0 8.312-8.328 8.312-21.828 0-30.156-8.344-8.344-21.874-8.344-30.186 0-8.312 8.328-8.312 21.828 0 30.156zM795.562 229.698c8.344 8.342 21.874 8.342 30.186 0 8.312-8.328 8.312-21.828 0-30.156-8.312-8.344-21.842-8.344-30.186 0-8.312 8.328-8.312 21.828 0 30.156zM155.598 315.038c8.344 8.328 21.842 8.328 30.17 0 8.328-8.328 8.328-21.842 0-30.17s-21.826-8.328-30.17 0c-8.328 8.328-8.328 21.842 0 30.17zM240.938 315.038c8.328 8.328 21.828 8.328 30.172 0 8.328-8.328 8.328-21.842 0-30.17-8.344-8.328-21.844-8.328-30.172 0-8.326 8.328-8.326 21.842 0 30.17zM752.938 315.038c8.312 8.328 21.812 8.328 30.156 0 8.344-8.328 8.344-21.842 0-30.17s-21.844-8.328-30.156 0c-8.344 8.328-8.344 21.842 0 30.17zM838.248 315.038c8.312 8.328 21.842 8.328 30.186 0 8.312-8.328 8.312-21.842 0-30.17-8.344-8.328-21.874-8.328-30.186 0s-8.312 21.842 0 30.17zM112.942 400.378c8.328 8.312 21.828 8.312 30.172 0 8.328-8.344 8.328-21.844 0-30.186-8.344-8.328-21.844-8.328-30.172 0a21.334 21.334 0 0 0 0 30.186zM198.268 400.378c8.328 8.312 21.844 8.312 30.172 0 8.328-8.344 8.328-21.844 0-30.186-8.328-8.328-21.844-8.328-30.172 0-8.328 8.344-8.328 21.844 0 30.186zM795.562 400.378c8.344 8.312 21.874 8.312 30.186 0 8.312-8.344 8.312-21.844 0-30.186-8.312-8.328-21.842-8.328-30.186 0-8.312 8.344-8.312 21.844 0 30.186zM880.902 400.378c8.344 8.312 21.844 8.312 30.188 0 8.312-8.344 8.312-21.844 0-30.186-8.344-8.328-21.844-8.328-30.188 0a21.33 21.33 0 0 0 0 30.186zM70.272 485.69c8.328 8.342 21.844 8.342 30.172 0 8.328-8.312 8.328-21.844 0-30.156-8.328-8.344-21.844-8.344-30.172 0-8.328 8.312-8.328 21.842 0 30.156zM155.598 485.69c8.344 8.342 21.842 8.342 30.17 0 8.328-8.312 8.328-21.844 0-30.156-8.328-8.344-21.826-8.344-30.17 0-8.328 8.312-8.328 21.842 0 30.156zM838.248 485.69c8.312 8.342 21.842 8.342 30.186 0 8.312-8.312 8.312-21.844 0-30.156-8.344-8.344-21.874-8.344-30.186 0-8.312 8.312-8.312 21.842 0 30.156zM923.558 485.69c8.344 8.342 21.874 8.342 30.186 0 8.312-8.312 8.312-21.844 0-30.156-8.312-8.344-21.842-8.344-30.186 0-8.312 8.312-8.312 21.842 0 30.156zM112.942 571.03c8.328 8.344 21.828 8.344 30.172 0 8.328-8.344 8.328-21.842 0-30.154-8.344-8.344-21.844-8.344-30.172 0-8.342 8.312-8.342 21.81 0 30.154zM198.268 571.03c8.328 8.344 21.844 8.344 30.172 0s8.328-21.842 0-30.154c-8.328-8.344-21.844-8.344-30.172 0-8.328 8.312-8.328 21.81 0 30.154zM795.562 571.03c8.344 8.344 21.874 8.344 30.186 0s8.312-21.842 0-30.154c-8.312-8.344-21.842-8.344-30.186 0-8.312 8.312-8.312 21.81 0 30.154zM880.902 571.03a21.332 21.332 0 0 0 30.188 0c8.312-8.344 8.312-21.842 0-30.154a21.332 21.332 0 0 0-30.188 0c-8.344 8.312-8.344 21.81 0 30.154zM155.598 656.372c8.344 8.312 21.842 8.312 30.17 0 8.328-8.344 8.328-21.844 0-30.186-8.328-8.312-21.826-8.312-30.17 0-8.328 8.342-8.328 21.842 0 30.186zM240.938 656.372c8.328 8.312 21.828 8.312 30.172 0 8.328-8.344 8.328-21.844 0-30.186-8.344-8.312-21.844-8.312-30.172 0-8.326 8.342-8.326 21.842 0 30.186zM752.938 656.372c8.312 8.312 21.812 8.312 30.156 0a21.33 21.33 0 0 0 0-30.186c-8.344-8.312-21.844-8.312-30.156 0a21.33 21.33 0 0 0 0 30.186zM838.248 656.372c8.312 8.312 21.842 8.312 30.186 0 8.312-8.344 8.312-21.844 0-30.186-8.344-8.312-21.874-8.312-30.186 0-8.312 8.342-8.312 21.842 0 30.186zM198.268 741.682c8.328 8.344 21.844 8.344 30.172 0 8.328-8.312 8.328-21.844 0-30.156-8.328-8.344-21.844-8.344-30.172 0-8.328 8.312-8.328 21.844 0 30.156zM283.594 741.682c8.328 8.344 21.842 8.344 30.17 0 8.328-8.312 8.328-21.844 0-30.156-8.328-8.344-21.842-8.344-30.17 0-8.328 8.312-8.328 21.844 0 30.156zM368.918 741.682a21.332 21.332 0 0 0 30.188 0c8.312-8.312 8.312-21.844 0-30.156a21.332 21.332 0 0 0-30.188 0c-8.326 8.312-8.326 21.844 0 30.156zM624.91 741.682a21.332 21.332 0 0 0 30.188 0c8.312-8.312 8.312-21.844 0-30.156a21.332 21.332 0 0 0-30.188 0c-8.344 8.312-8.344 21.844 0 30.156zM710.252 741.682c8.312 8.344 21.842 8.344 30.186 0 8.312-8.312 8.312-21.844 0-30.156-8.344-8.344-21.874-8.344-30.186 0-8.312 8.312-8.312 21.844 0 30.156zM795.562 741.682c8.344 8.344 21.874 8.344 30.186 0 8.312-8.312 8.312-21.844 0-30.156-8.312-8.344-21.842-8.344-30.186 0-8.312 8.312-8.312 21.844 0 30.156zM240.938 827.022c8.328 8.344 21.828 8.344 30.172 0 8.328-8.344 8.328-21.842 0-30.154-8.344-8.344-21.844-8.344-30.172 0-8.326 8.312-8.326 21.81 0 30.154zM326.264 827.022c8.328 8.344 21.844 8.344 30.172 0s8.328-21.842 0-30.154c-8.328-8.344-21.844-8.344-30.172 0-8.328 8.312-8.328 21.81 0 30.154zM411.59 827.022c8.328 8.344 21.842 8.344 30.17 0s8.328-21.842 0-30.154c-8.328-8.344-21.842-8.344-30.17 0-8.328 8.312-8.328 21.81 0 30.154zM496.93 827.022c8.328 8.344 21.828 8.344 30.172 0 8.328-8.344 8.328-21.842 0-30.154-8.344-8.344-21.844-8.344-30.172 0-8.326 8.312-8.326 21.81 0 30.154zM582.256 827.022c8.312 8.344 21.842 8.344 30.186 0 8.312-8.344 8.312-21.842 0-30.154-8.344-8.344-21.874-8.344-30.186 0-8.312 8.312-8.312 21.81 0 30.154zM667.566 827.022c8.344 8.344 21.874 8.344 30.186 0s8.312-21.842 0-30.154c-8.312-8.344-21.842-8.344-30.186 0-8.312 8.312-8.312 21.81 0 30.154zM752.938 827.022c8.312 8.344 21.812 8.344 30.156 0s8.344-21.842 0-30.154c-8.344-8.344-21.844-8.344-30.156 0-8.344 8.312-8.344 21.81 0 30.154zM454.26 912.364c8.328 8.312 21.844 8.312 30.172 0 8.328-8.344 8.328-21.844 0-30.188-8.328-8.31-21.844-8.31-30.172 0-8.328 8.344-8.328 21.844 0 30.188zM539.586 912.364c8.328 8.312 21.858 8.312 30.17 0 8.312-8.344 8.312-21.844 0-30.188-8.312-8.31-21.842-8.31-30.17 0-8.328 8.344-8.328 21.844 0 30.188z" fill="#DA4453" /></svg>