<?xml version="1.0" standalone="no"?><!DOCTYPE svg PUBLIC "-//W3C//DTD SVG 1.1//EN" "http://www.w3.org/Graphics/SVG/1.1/DTD/svg11.dtd"><svg class="icon" width="128px" height="128.00px" viewBox="0 0 1024 1024" version="1.1" xmlns="http://www.w3.org/2000/svg"><path d="M611.808 502.656L993.826 120.638l-90.464-90.466-382.018 382.02C398.91 403.66 191.916 434.878 0.018 541.498l241.24 241.242 241.21 241.242c106.622-191.9 137.84-398.894 129.34-521.326z" fill="#965353" /><path d="M576.09 794.366c-22.53-23.466-75.808-87.342-67.464-158.37 13.436-114.686-55.216-185.338-105.558-221.054C286.072 426.596 139.076 464.252 0.02 541.498L241.26 782.74l241.21 241.242c42.372-76.246 72.81-154.87 93.62-229.616z" fill="#FECD57" /><path d="M855.428 69.14c-8.314 8.342-21.814 8.342-30.158 0-8.31-8.312-8.31-21.812 0-30.156 8.344-8.312 21.844-8.312 30.158 0 8.342 8.344 8.342 21.844 0 30.156z" fill="#424953" /><path d="M833.27 107.294c-8.312 8.344-21.81 8.344-30.124 0-8.344-8.312-8.344-21.812 0-30.156 8.312-8.312 21.81-8.312 30.124 0 8.344 8.344 8.344 21.844 0 30.156zM392.504 631.496c-16.376-16.376-16.376-42.998 0-59.376 16.344-16.344 42.998-16.374 59.342 0 16.376 16.376 16.376 43 0 59.376-16.344 16.374-42.998 16.374-59.342 0z" fill="#424953" /><path d="M466.94 557.058c-24.718-24.714-64.81-24.714-89.53 0-24.716 24.718-24.716 64.782 0 89.53 24.718 24.72 64.81 24.72 89.53 0 24.716-24.718 24.716-64.81 0-89.53z m-30.156 59.376c-8.062 8.032-21.154 8.032-29.216 0-8.032-8.062-8.032-21.156 0-29.216 8.062-8.062 21.154-8.062 29.216 0 8.062 8.06 8.062 21.154 0 29.216zM873.206 241.26L782.74 150.792 873.206 0.018l150.776 150.774z" fill="#646C77" /><path d="M376.942 797.802l-150.776-150.744c-8.312-8.346-8.312-21.844 0-30.156 8.342-8.344 21.842-8.344 30.154 0l150.778 150.776c8.31 8.312 8.31 21.812 0 30.126-8.312 8.342-21.812 8.342-30.156-0.002z" fill="#424953" /></svg>