<?xml version="1.0" standalone="no"?><!DOCTYPE svg PUBLIC "-//W3C//DTD SVG 1.1//EN" "http://www.w3.org/Graphics/SVG/1.1/DTD/svg11.dtd"><svg class="icon" width="128px" height="128.00px" viewBox="0 0 1024 1024" version="1.1" xmlns="http://www.w3.org/2000/svg"><path d="M472.562 14.9A21.306 21.306 0 0 0 452.22 0.026H225.732c-7.188 0-13.906 3.592-17.842 9.592s-4.594 13.594-1.75 20.188l66.214 153.21c0.312 0.75 0.688 1.5 1.094 2.188 11.062 19.248 23.092 53.278 16.874 67.152-12.968 28.904-20.342 55.122-20.624 55.528-1.438 2.062-23.53 18.468-24.186 20.906l-11.282 42.154a21.36 21.36 0 0 0 1 13.874l54.934 129.088c0.032 0.124 0.094 0.218 0.124 0.344l83.778 188.144a21.354 21.354 0 0 0 8.656 9.688l60.434 35.718a21.346 21.346 0 0 0 10.844 2.966h33.124c10.156 0 18.874-7.154 20.906-17.092 3.968-19.656 38.874-192.74 41.402-223.644 6.812-83.872-4.06-192.772-32.374-323.67-20.966-96.964-43.558-168.46-44.496-171.46z" fill="#EAC6BB" /><path d="M285.292 264.074c26.216 25.718 108.65 105.308 160.46 141.9l101.996-25.812c-0.094-1-0.156-2-0.25-3.032-56.09-30.936-217.52-154.834-278.672-202.238l3.53 8.124c0.312 0.75 0.688 1.5 1.094 2.188 11.062 19.248 23.092 53.278 16.874 67.152a389.912 389.912 0 0 0-5.032 11.718z" fill="#EC87C0" /><path d="M547.152 373.6l-202.022 64.342 24.812 69.278 181.302-63.214c-0.406-22.19-1.782-45.656-4.092-70.406z" fill="#D770AD" /><path d="M450.314 674.116c-23.78-26.53-37.998-84.526-50.528-135.68-10.532-42.936-20.468-83.496-36.124-111.026-34.374-60.464-80.62-106.37-82.558-108.306l-11.406-11.218-13.968 7.782c-4.218 2.344-103.12 58.434-106.37 144.054-2.032 53.06 31.216 93.056 60.528 128.338 17.406 20.936 33.842 40.746 40.374 59.996 10.28 30.374 14.592 113.87 18.062 180.958 2.906 56.436 5.406 105.182 10.842 129.056 10.374 45.528 56.966 65.902 98.526 65.902 11.186 0 26.78-1.532 37.686-8.688 6.968-4.624 13.092-11.438 28.592-57.59 7.718-22.968 17.218-54.124 28.218-92.528 18.624-65.122 35.404-129.71 35.592-130.368l4.094-15.782-14.156-8.094c-8.25-4.714-32.842-20.526-47.404-36.806z" fill="#EC87C0" /><path d="M273.072 909.292c1.624 20.624 3.532 37.498 6.094 48.78 10.374 45.528 56.966 65.902 98.526 65.902 11.186 0 26.78-1.532 37.686-8.688 6.968-4.624 13.092-11.438 28.592-57.59 3.406-10.094 7.156-21.812 11.218-35-33.124 14.406-95.588 27.812-182.116-13.404zM503.216 126.364c-37.06 4.5-155.492 17.312-250.768 10.624l19.906 46.03c0.312 0.75 0.688 1.5 1.094 2.188a133.692 133.692 0 0 1 5.594 10.874c103.088 7.718 201.708-7.812 237.018-14.31a2348.288 2348.288 0 0 0-12.844-55.406z" fill="#D770AD" /><path d="M795.886 14.9A21.304 21.304 0 0 0 775.544 0.026H549.058c-7.188 0-13.906 3.592-17.844 9.592s-4.594 13.594-1.75 20.188l66.214 153.21c0.312 0.75 0.688 1.5 1.094 2.188 11.062 19.248 23.094 53.278 16.876 67.152-12.968 28.904-20.344 55.122-20.624 55.528-1.438 2.062-23.532 18.468-24.188 20.906l-11.28 42.154a21.564 21.564 0 0 0 0.968 13.874l54.966 129.088c0.032 0.124 0.094 0.218 0.124 0.344l83.778 188.144a21.16 21.16 0 0 0 8.654 9.688l60.436 35.718a21.34 21.34 0 0 0 10.842 2.966h33.124a21.34 21.34 0 0 0 20.906-17.092c3.968-19.656 38.872-192.74 41.402-223.644 6.812-83.872-4.062-192.772-32.372-323.67-20.966-96.964-43.56-168.46-44.498-171.46z" fill="#EAC6BB" /><path d="M608.618 264.074c26.216 25.718 108.648 105.308 160.46 141.9l101.992-25.812c-0.094-1-0.188-2-0.25-3.032-56.09-30.936-217.52-154.834-278.672-202.238l3.532 8.124c0.312 0.75 0.688 1.5 1.094 2.188 11.062 19.248 23.094 53.278 16.876 67.152a389.912 389.912 0 0 0-5.032 11.718z" fill="#EC87C0" /><path d="M870.476 373.6l-202.02 64.342 24.812 69.278 181.3-63.214c-0.404-22.19-1.778-45.656-4.092-70.406z" fill="#D770AD" /><path d="M773.638 674.116c-23.78-26.53-37.998-84.526-50.53-135.68-10.53-42.936-20.466-83.496-36.122-111.026-34.376-60.464-80.622-106.37-82.59-108.306l-11.376-11.218-13.968 7.782c-4.218 2.344-103.118 58.434-106.368 144.054-2.032 53.06 31.216 93.056 60.528 128.338 17.404 20.936 33.842 40.746 40.372 59.996 10.282 30.374 14.594 113.87 18.062 180.958 2.906 56.436 5.406 105.182 10.844 129.056 10.376 45.528 56.964 65.902 98.526 65.902 11.188 0 26.78-1.532 37.686-8.688 6.968-4.624 13.094-11.438 28.594-57.59 7.716-22.968 17.216-54.124 28.214-92.528 18.624-65.122 35.406-129.71 35.562-130.368l4.124-15.782-14.156-8.094c-8.248-4.714-32.838-20.526-47.402-36.806z" fill="#EC87C0" /><path d="M596.398 909.292c1.624 20.624 3.532 37.498 6.094 48.78 10.376 45.528 56.964 65.902 98.526 65.902 11.188 0 26.78-1.532 37.686-8.688 6.968-4.624 13.094-11.438 28.594-57.59 3.406-10.094 7.154-21.812 11.216-35-33.124 14.406-95.588 27.812-182.116-13.404zM826.542 126.364c-37.06 4.5-155.492 17.312-250.77 10.624l19.906 46.03c0.312 0.75 0.688 1.5 1.094 2.188a133.692 133.692 0 0 1 5.594 10.874c103.088 7.718 201.708-7.812 237.02-14.31a2348.288 2348.288 0 0 0-12.844-55.406z" fill="#D770AD" /></svg>