<?xml version="1.0" standalone="no"?><!DOCTYPE svg PUBLIC "-//W3C//DTD SVG 1.1//EN" "http://www.w3.org/Graphics/SVG/1.1/DTD/svg11.dtd"><svg class="icon" width="128px" height="128.00px" viewBox="0 0 1024 1024" version="1.1" xmlns="http://www.w3.org/2000/svg"><path d="M526.89 774.242c-29.046-29.062-37.86-68.438-26.188-117.03 9.376-38.998 28.796-69.31 29-69.592l-17.89-11.624-17.876-11.656c-0.938 1.438-23.154 35.842-34.42 81.654-15.64 63.622-2.782 118.434 37.202 158.4 29.062 29.06 37.906 68.466 26.282 117.028-9.312 38.998-28.704 69.31-28.876 69.592a21.172 21.172 0 0 0-3.454 11.624c0 11.78 9.546 21.342 21.328 21.342 7.484 0 14.062-3.876 17.876-9.718h0.016c0.938-1.438 23.108-35.842 34.294-81.654 15.564-63.62 2.69-118.4-37.294-158.366z" fill="#E6E9ED" /><path d="M645.308 0.018c-52.216 0-99.436 21.452-133.308 56.03C478.126 21.47 430.908 0.018 378.676 0.018c-103.09 0-186.666 83.558-186.666 186.65 0 213.32 319.99 410.64 319.99 410.64s319.99-197.32 319.99-410.64c0-103.092-83.56-186.65-186.682-186.65z" fill="#EC87C0" /><path d="M645.308 0.018c-7.188 0-14.312 0.422-21.31 1.218 93.058 10.578 165.304 89.558 165.304 185.432 0 179.71-227.054 348.066-298.63 396.64 13.376 9.124 21.328 14 21.328 14s319.99-197.32 319.99-410.64c0-103.092-83.56-186.65-186.682-186.65z" fill="#FFFFFF" opacity=".2" /><path d="M569.56 582.246a21.222 21.222 0 0 0-15.094-6.248h-85.324a21.16 21.16 0 0 0-15.078 6.248c-8.328 8.312-8.344 21.812 0 30.156a21.296 21.296 0 0 0 15.094 6.25h85.308c5.468 0 10.906-2.094 15.094-6.25 8.314-8.344 8.314-21.844 0-30.156z" fill="#D770AD" /></svg>