<?xml version="1.0" standalone="no"?><!DOCTYPE svg PUBLIC "-//W3C//DTD SVG 1.1//EN" "http://www.w3.org/Graphics/SVG/1.1/DTD/svg11.dtd"><svg class="icon" width="128px" height="128.00px" viewBox="0 0 1024 1024" version="1.1" xmlns="http://www.w3.org/2000/svg"><path d="M740.708213 855.861314c-17.655862-18.311857-22.405825-38.3737-14.531886-61.247522 6.593948-19.18785 19.655846-33.031742 19.781845-33.187741l-15.37588-14.749884-15.31188-14.875884c-1.905985 1.999984-19.123851 20.187842-28.873774 47.31163-13.809892 38.4057-5.467957 76.185405 23.561815 106.30717 18.153858 18.875853 23.653815 40.749682 16.809869 66.749478-4.343966 16.59387-12.593902 29.873767-16.091874 34.997727a21.179835 21.179835 0 0 0-6.687948 15.499879c0 11.749908 9.559925 21.309834 21.341833 21.309833 6.905946 0 13.061898-3.311974 16.937868-8.437934l0.343997 0.249998c0.687995-0.875993 16.905868-21.80983 24.999805-51.1516 11.315912-41.091679 2.003984-78.715385-26.90379-108.77515z" fill="#E6E9ED" /><path d="M767.99 725.300334h-21.343833v-30.497762h-42.653667v30.497762h-21.343833c-11.779908 0-21.309834 9.561925-21.309834 21.375833 0 11.749908 9.531926 21.311834 21.309834 21.311833h85.341333c11.781908 0 21.343833-9.561925 21.343833-21.311833 0-11.811908-9.561925-21.375833-21.343833-21.375833z" fill="#37BC9B" /><path d="M356.723213 817.205616c-18.061859-18.781853-21.937829-47.843626-11.53191-86.405325 8.623933-32.123749 24.187811-58.183545 24.34381-58.463544l-18.249857-11.031913-18.281858-10.999915c-3.061976 5.09396-74.873415 125.933016-7.031945 196.460466 45.905641 47.779627-3.123976 145.150866-3.593972 146.088858v0.032a21.235834 21.235834 0 0 0-2.375981 9.781924c0 11.749908 9.561925 21.309834 21.343833 21.309833 8.249936 0 15.40588-4.687963 18.937852-11.55991 2.627979-5.09396 63.501504-125.46702-3.559972-195.212474z" fill="#E6E9ED" /><path d="M384.005 639.993H362.661167v-25.375802h-42.655667v25.375802h-21.341833c-11.781908 0-21.311834 9.561925-21.311834 21.311834 0 11.811908 9.531926 21.373833 21.311834 21.373833h85.341333c11.779908 0 21.341833-9.559925 21.341833-21.373833 0-11.749908-9.561925-21.311834-21.341833-21.311834z" fill="#967ADC" /><path d="M959.9845 490.670167c0 129.572988-105.059179 234.630167-234.650167 234.630167-129.620987 0-234.678167-105.057179-234.678166-234.630167 0-129.604987 105.057179-234.664167 234.678166-234.664167 129.590988 0 234.650167 105.059179 234.650167 234.664167z" fill="#48CFAD" /><path d="M490.656167 490.670167c0 52.153593 17.031867 100.323216 45.809642 139.290911 75.215412-57.215553 124.873024-155.572785 124.873024-267.287911 0-32.717744-4.281967-64.295498-12.187904-94.013266-92.21528 31.625753-158.494762 119.07507-158.494762 222.010266z" opacity=".1" /><path d="M725.334333 341.331333c-82.495356 0-149.338833 66.857478-149.338833 149.338834 0 11.781908 9.561925 21.325833 21.343833 21.325833s21.311834-9.543925 21.311834-21.325833c0-58.82554 47.843626-106.669167 106.683166-106.669167 11.781908 0 21.311834-9.545925 21.311834-21.325833 0-11.781908-9.529926-21.343833-21.311834-21.343834z" fill="#FFFFFF" opacity=".2" /><path d="M618.651167 320.0035c0 176.728619-124.15103 319.9895-277.301834 319.9895-153.182803 0-277.333833-143.260881-277.333833-319.9895C64.0155 143.276881 188.16653 0.014 341.349333 0.014c153.150804 0 277.301834 143.262881 277.301834 319.9895z" fill="#AC92EB" /><path d="M341.349333 85.339333c-106.057171 0-191.9925 105.059179-191.9925 234.664167 0 11.781908 9.531926 21.327833 21.309834 21.327833 11.781908 0 21.343833-9.545925 21.343833-21.327833 0-26.92179 4.281967-52.951586 12.7499-77.387395 7.999938-23.171819 19.405848-43.873657 33.841736-61.52952 27.999781-34.217733 64.499496-53.075585 102.747197-53.075585 11.781908 0 21.311834-9.545925 21.311834-21.327833s-9.531926-21.343833-21.311834-21.343834z" fill="#FFFFFF" opacity=".2" /></svg>