<?xml version="1.0" standalone="no"?><!DOCTYPE svg PUBLIC "-//W3C//DTD SVG 1.1//EN" "http://www.w3.org/Graphics/SVG/1.1/DTD/svg11.dtd"><svg class="icon" width="128px" height="128.00px" viewBox="0 0 1024 1024" version="1.1" xmlns="http://www.w3.org/2000/svg"><path d="M797.62 235.884c-1-1.032-2.876-1.5-5.468-1.5-31.81 0-173.056 71.402-196.024 89.996-24.876 20.126-28.718 56.592-8.626 81.466 11.438 14.156 28.19 21.498 45.06 21.498a57.606 57.606 0 0 0 36.406-12.904c24.874-20.092 142.152-165.088 128.652-178.556zM42.642 221.042c-1.876 0-3.31 0.468-4.31 1.438-15.282 15.282 62.622 161.744 81.058 184.494 10.468 12.968 25.782 19.686 41.248 19.686 11.688 0 23.5-3.842 33.312-11.812 22.75-18.404 26.282-51.78 7.876-74.558-17.218-21.284-131.964-119.248-159.184-119.248zM884.458 766.958c-17.124-21.186-129.09-119.59-158.338-119.556-2.218 0-3.968 0.562-5.154 1.748-16.97 17 62.622 161.714 81.058 184.494 10.466 12.938 25.782 19.656 41.248 19.656 11.718 0 23.5-3.842 33.31-11.782 22.784-18.436 26.316-51.81 7.876-74.56zM361.852 822.082c-2.562 0-4.532 0.562-5.718 1.752-16.06 16.062 85.31 162.37 107.402 184.086a55.986 55.986 0 0 0 39.312 16.062c14.5 0 29.032-5.626 39.998-16.812 21.718-22.092 21.376-57.592-0.718-79.278-20.438-20.094-148.526-105.84-180.276-105.81z" fill="#79AA41" /><path d="M475.66 0.018h170.65v1023.964H475.66zM838.306 170.668h127.994v853.314h-127.994zM155.672 384.004h127.996v639.978H155.672z" fill="#8AC054" /><path d="M646.31 810.646H475.66c-11.782 0-21.344 9.562-21.344 21.342 0 11.782 9.562 21.312 21.344 21.312h170.65c11.782 0 21.344-9.532 21.344-21.312 0-11.78-9.562-21.342-21.344-21.342zM646.31 597.308H475.66c-11.782 0-21.344 9.562-21.344 21.344 0 11.78 9.562 21.344 21.344 21.344h170.65c11.782 0 21.344-9.564 21.344-21.344 0-11.78-9.562-21.344-21.344-21.344zM646.31 384.004H475.66c-11.782 0-21.344 9.532-21.344 21.312 0 11.78 9.562 21.342 21.344 21.342h170.65c11.782 0 21.344-9.562 21.344-21.342s-9.562-21.312-21.344-21.312zM646.31 170.668H475.66c-11.782 0-21.344 9.562-21.344 21.344 0 11.78 9.562 21.31 21.344 21.31h170.65c11.782 0 21.344-9.532 21.344-21.31 0-11.782-9.562-21.344-21.344-21.344zM966.3 810.646h-127.994c-11.782 0-21.314 9.562-21.314 21.342a21.3 21.3 0 0 0 21.314 21.312h127.994c11.78 0 21.342-9.532 21.342-21.312 0-11.78-9.562-21.342-21.342-21.342zM966.3 597.308h-127.994c-11.782 0-21.314 9.562-21.314 21.344 0 11.78 9.534 21.344 21.314 21.344h127.994c11.78 0 21.342-9.564 21.342-21.344 0-11.78-9.562-21.344-21.342-21.344zM966.3 384.004h-127.994a21.3 21.3 0 0 0-21.314 21.312c0 11.78 9.534 21.342 21.314 21.342h127.994c11.78 0 21.342-9.562 21.342-21.342s-9.562-21.312-21.342-21.312zM838.306 213.322h127.994c11.78 0 21.342-9.532 21.342-21.31 0-11.782-9.562-21.344-21.342-21.344h-127.994c-11.782 0-21.314 9.562-21.314 21.344a21.3 21.3 0 0 0 21.314 21.31zM283.668 810.646H155.672c-11.782 0-21.344 9.562-21.344 21.342 0 11.782 9.562 21.312 21.344 21.312h127.996c11.78 0 21.342-9.532 21.342-21.312 0-11.78-9.562-21.342-21.342-21.342zM283.668 597.308H155.672c-11.782 0-21.344 9.562-21.344 21.344 0 11.78 9.562 21.344 21.344 21.344h127.996c11.78 0 21.342-9.564 21.342-21.344 0-11.78-9.562-21.344-21.342-21.344zM283.668 384.004H155.672c-11.782 0-21.344 9.532-21.344 21.312 0 11.78 9.562 21.342 21.344 21.342h127.996c11.78 0 21.342-9.562 21.342-21.342s-9.562-21.312-21.342-21.312z" fill="#9ED36A" /></svg>