<?xml version="1.0" standalone="no"?><!DOCTYPE svg PUBLIC "-//W3C//DTD SVG 1.1//EN" "http://www.w3.org/Graphics/SVG/1.1/DTD/svg11.dtd"><svg class="icon" width="128px" height="128.00px" viewBox="0 0 1024 1024" version="1.1" xmlns="http://www.w3.org/2000/svg"><path d="M908.336 346.894C522.844 729.996 51.15 313.318 51.15 313.318s-8.342-1.312-32.952 29.656C-6.41 373.942 1.088 381.208 1.088 381.208c244.87 567.724 950.964 355.822 998.65 53.514l-2.812-60.03-17.094-57.186-12.468-6.876c-32.216 30.14-16.03 32.968-16.03 32.968l-42.998 3.296z" fill="#F6BB42" /><path d="M42.634 341.208c0.468-6.922-2.438-13.282-7.296-17.514-4.532 4.358-10.188 10.53-17.14 19.28-4.14 5.218-7.36 9.734-9.876 13.686a21.19 21.19 0 0 0 11.578 4.39c11.766 0.796 21.938-8.094 22.734-19.842z" fill="#434A54" /><path d="M875.93 337.988C591.06 800.84 67.712 525.828 67.712 525.828s-8.422 0.688-25.078 36.546c-16.656 35.876-7.656 41.188-7.656 41.188 371.21 494.458 1007.916 122.808 983.354-182.248 0 0-8.844-47.14-16.812-57.702-8-10.562 22.468-139.622 22.468-139.622l-107.186-44.438c0 67.546-5.78 131.108-15.78 137.654-9.998 6.564-25.092 20.782-25.092 20.782z" fill="#FFCE54" /><path d="M35.9 579.062a21.18 21.18 0 0 0 8.562 1.812c11.78 0 21.328-9.562 21.328-21.344 0-8.282-4.718-15.438-11.594-18.954-3.266 5.204-7.124 12.234-11.562 21.796-3.03 6.534-5.202 12.034-6.734 16.69z" fill="#434A54" /><path d="M916.802 179.554c0 67.546-5.78 131.108-15.78 137.654 47.124 2.672 100.496 46.404 100.496 46.404-8-10.562 22.468-139.622 22.468-139.622l-107.184-44.436z" fill="#F6BB42" /><path d="M1001.52 363.612c-8-10.562 22.468-139.622 22.468-139.622l-47.844-19.844c-8.344 37.562-23.154 109.044-17.31 116.794 7.998 10.578 16.81 57.702 16.81 57.702 22.718 282.166-520.268 621.286-895.652 279.324 375.304 410.896 961.932 56.404 938.338-236.652 0.002 0-8.842-47.14-16.81-57.702z" fill="#FFFFFF" opacity=".2" /></svg>