<?xml version="1.0" standalone="no"?><!DOCTYPE svg PUBLIC "-//W3C//DTD SVG 1.1//EN" "http://www.w3.org/Graphics/SVG/1.1/DTD/svg11.dtd"><svg class="icon" width="128px" height="128.00px" viewBox="0 0 1024 1024" version="1.1" xmlns="http://www.w3.org/2000/svg"><path d="M21.362 394.66h341.3v170.65H21.362z" fill="#ED5564" /><path d="M1012.2 460.908c-5.438-2.718-133.528-66.248-222.868-66.248H362.662c-11.782 0-21.312 9.532-21.312 21.344v127.994c0 11.75 9.53 21.312 21.312 21.312h426.67c89.34 0 217.43-63.53 222.868-66.248a21.344 21.344 0 0 0 11.782-19.062 21.326 21.326 0 0 0-11.782-19.092z" fill="#E6E9ED" /><path d="M21.362 607.996c-11.78 0-21.342-9.562-21.342-21.344V394.66c0-11.782 9.562-21.342 21.342-21.342 11.782 0 21.312 9.56 21.312 21.342v191.992c0 11.782-9.53 21.344-21.312 21.344z" fill="#434A54" /><path d="M256.01 394.66h42.654v170.65h-42.654zM170.67 394.66h42.684v170.65H170.67zM85.36 394.66h42.654v170.65H85.36z" fill="#DA4453" /><path d="M746.646 501.312H362.662c-11.782 0-21.312-9.562-21.312-21.312 0-11.81 9.53-21.342 21.312-21.342h383.984c11.78 0 21.342 9.532 21.342 21.342 0 11.75-9.562 21.312-21.342 21.312z" fill="#CCD1D9" /><path d="M405.346 373.318c0-11.782-9.562-21.312-21.342-21.312-20.686 0-42.654 14.938-42.654 42.654v170.65c0 11.782 9.53 21.342 21.312 21.342s21.342-9.56 21.342-21.342v-170.588c0.218-0.032 0.438-0.062 0.594-0.094-0.376 0.032-0.594 0.032-0.594 0.032 11.782 0 21.342-9.562 21.342-21.342z" fill="#434A54" /><path d="M64.018 650.652c-35.28 0-63.998-28.718-63.998-64 0-35.28 28.718-63.996 63.998-63.996s63.998 28.716 63.998 63.996c-0.002 35.282-28.72 64-63.998 64z m0-85.342c-11.75 0-21.344 9.562-21.344 21.342 0 11.75 9.594 21.344 21.344 21.344 11.75 0 21.342-9.594 21.342-21.344 0-11.778-9.594-21.342-21.342-21.342z" fill="#FFCE54" /><path d="M149.358 671.994c-35.312 0-63.998-28.716-63.998-63.998 0-35.31 28.686-63.998 63.998-63.998 35.278 0 63.996 28.688 63.996 63.998 0 35.282-28.718 63.998-63.996 63.998z m0-85.342c-11.782 0-21.344 9.562-21.344 21.344 0 11.75 9.562 21.312 21.344 21.312 11.75 0 21.312-9.562 21.312-21.312 0-11.782-9.562-21.344-21.312-21.344z" fill="#FFCE54" /><path d="M234.666 671.994c-35.28 0-63.998-28.716-63.998-63.998 0-35.31 28.716-63.998 63.998-63.998 35.31 0 63.998 28.688 63.998 63.998 0 35.282-28.686 63.998-63.998 63.998z m0-85.342c-11.75 0-21.312 9.562-21.312 21.344 0 11.75 9.562 21.312 21.312 21.312 11.78 0 21.342-9.562 21.342-21.312 0.002-11.782-9.56-21.344-21.342-21.344z" fill="#FFCE54" /><path d="M320.008 650.652c-35.28 0-63.998-28.718-63.998-64 0-35.28 28.718-63.996 63.998-63.996s63.998 28.716 63.998 63.996c-0.002 35.282-28.718 64-63.998 64z m0-85.342c-11.75 0-21.344 9.562-21.344 21.342 0 11.75 9.594 21.344 21.344 21.344 11.75 0 21.342-9.594 21.342-21.344 0-11.778-9.594-21.342-21.342-21.342z" fill="#FFCE54" /></svg>