<?xml version="1.0" standalone="no"?><!DOCTYPE svg PUBLIC "-//W3C//DTD SVG 1.1//EN" "http://www.w3.org/Graphics/SVG/1.1/DTD/svg11.dtd"><svg class="icon" width="128px" height="128.00px" viewBox="0 0 1024 1024" version="1.1" xmlns="http://www.w3.org/2000/svg"><path d="M866.208 37.466c-8.312-8.328-8.312-21.828 0-30.172 8.344-8.328 21.842-8.328 30.154 0l15.094 15.094a21.294 21.294 0 0 1 0 30.156c-8.312 8.328-21.844 8.328-30.154 0l-15.094-15.078zM971.77 143.026c-8.312-8.328-8.312-21.842 0-30.17 8.344-8.328 21.844-8.328 30.156 0l15.092 15.078c8.344 8.344 8.344 21.842 0 30.17-8.312 8.328-21.842 8.328-30.154 0l-15.094-15.078z" fill="#434A54" /><path d="M851.146 82.714l-15.092-15.094c-8.312-8.328-8.312-21.828 0-30.156 8.344-8.328 21.842-8.328 30.154 0l15.094 15.078c8.31 8.328 8.31 21.842 0 30.17-8.344 8.33-21.844 8.33-30.156 0.002zM941.614 173.18a21.294 21.294 0 0 1 0-30.156c8.312-8.328 21.844-8.328 30.156 0l15.094 15.078c8.312 8.328 8.312 21.828 0 30.156-8.344 8.328-21.844 8.328-30.156 0l-15.094-15.078z" fill="#434A54" /><path d="M805.898 97.792c-8.344-8.328-8.344-21.842 0-30.17 8.312-8.328 21.844-8.328 30.156 0l120.652 120.638c8.312 8.328 8.312 21.844 0 30.172-8.344 8.328-21.844 8.328-30.188 0l-120.62-120.64z" fill="#434A54" /><path d="M1016.674 128.276a21.306 21.306 0 0 0 6.25-14.876l0.75-90.436c0.094-11.704-9.25-21.312-20.966-21.5L912.832 0.01a21.294 21.294 0 0 0-15.438 6.264L139.258 766.086a21.352 21.352 0 0 0 0 30.156l90.498 90.466a21.354 21.354 0 0 0 30.186 0L1016.674 128.276z" fill="#965353" /><path d="M298.912 725.4m-277.266 0a277.266 277.266 0 1 0 554.532 0 277.266 277.266 0 1 0-554.532 0Z" fill="#E6E9ED" /><path d="M298.912 1023.988c-79.748 0-154.746-31.062-211.15-87.438C31.386 880.148 0.326 805.18 0.326 725.4c0-79.748 31.062-154.746 87.436-211.134 56.404-56.388 131.402-87.45 211.15-87.45s154.746 31.062 211.12 87.45c56.404 56.42 87.464 131.386 87.464 211.134 0 79.78-31.06 154.748-87.464 211.15-56.374 56.376-131.372 87.438-211.12 87.438z m0-554.518c-68.374 0-132.652 26.624-180.964 74.966C69.604 592.78 42.98 657.058 42.98 725.4c0 68.374 26.624 132.654 74.966 180.964 48.342 48.342 112.59 74.966 180.964 74.966s132.622-26.624 180.964-74.966c48.342-48.31 74.966-112.592 74.966-180.964 0-68.342-26.624-132.622-74.966-180.962-48.34-48.344-112.588-74.968-180.962-74.968z" fill="#434A54" /><path d="M170.29 898.428c-8.312-8.344-8.312-21.842 0-30.154L951.926 86.636c8.312-8.328 21.812-8.328 30.156 0 8.312 8.328 8.312 21.828 0 30.156L200.476 898.428c-8.344 8.312-21.844 8.312-30.186 0zM125.884 854.024c-8.312-8.344-8.312-21.844 0-30.156L843.992 105.73c8.342-8.328 21.842-8.328 30.186 0 8.312 8.344 8.312 21.844 0 30.172L156.072 854.024c-8.344 8.312-21.844 8.312-30.188 0z" fill="#CCD1D9" /><path d="M1016.674 128.276a21.306 21.306 0 0 0 6.25-14.876l0.75-90.436c0.094-11.704-9.25-21.312-20.966-21.5L912.832 0.01a21.294 21.294 0 0 0-15.438 6.264l-91.402 91.608 120.652 120.638 90.03-90.244z" fill="#656D78" /><path d="M298.942 846.086L178.258 725.4a21.334 21.334 0 0 1 0-30.186c8.312-8.312 21.812-8.312 30.156 0l120.684 120.684c8.312 8.344 8.312 21.844 0 30.188-8.344 8.312-21.844 8.312-30.156 0zM229.506 913.958a21.396 21.396 0 0 0-5.156-21.812l-90.498-90.498a21.286 21.286 0 0 0-21.812-5.156 21.272 21.272 0 0 0-14.374 17.218l-15.094 105.56c-0.938 6.654 1.282 13.374 6.032 18.092a21.388 21.388 0 0 0 18.092 6.062l105.592-15.094c8-1.154 14.656-6.716 17.218-14.372z" fill="#434A54" /></svg>