<?xml version="1.0" standalone="no"?><!DOCTYPE svg PUBLIC "-//W3C//DTD SVG 1.1//EN" "http://www.w3.org/Graphics/SVG/1.1/DTD/svg11.dtd"><svg class="icon" width="128px" height="128.00px" viewBox="0 0 1024 1024" version="1.1" xmlns="http://www.w3.org/2000/svg"><path d="M1023.882 512c0 282.714-229.196 511.882-511.882 511.882C229.284 1023.882 0.118 794.714 0.118 512 0.118 229.314 229.284 0.118 512 0.118 794.688 0.118 1023.882 229.314 1023.882 512z" fill="#434A54" /><path d="M938.558 512c0 235.602-190.986 426.59-426.558 426.59-235.602 0-426.59-190.988-426.59-426.59 0-235.572 190.988-426.558 426.59-426.558 235.572 0 426.558 190.986 426.558 426.558z" fill="#656D78" /><path d="M781.252 642.844L554.648 512l226.572-130.814h0.032c10.186-5.904 13.684-18.934 7.81-29.15-5.906-10.184-18.934-13.684-29.148-7.81l-226.606 130.846v-261.66c0-11.78-9.56-21.34-21.308-21.34-11.778 0-21.338 9.56-21.338 21.34v261.658l-226.606-130.846c-10.186-5.874-23.244-2.374-29.118 7.81-5.906 10.216-2.406 23.246 7.81 29.15L469.322 512l-226.572 130.844c-10.216 5.874-13.716 18.934-7.81 29.12 5.874 10.214 18.932 13.714 29.118 7.81l226.606-130.814v261.66c0 11.778 9.53 21.306 21.338 21.306 11.748 0 21.308-9.53 21.308-21.306V548.96l226.606 130.814c10.214 5.904 23.242 2.404 29.148-7.81 5.872-10.186 2.374-23.248-7.812-29.12z" fill="#F6BB42" /><path d="M512 21.456c-11.778 0-21.338 9.56-21.338 21.34 0 11.778 9.56 21.306 21.338 21.306 11.78 0 21.308-9.53 21.308-21.306 0-11.78-9.528-21.34-21.308-21.34zM512 959.896c-11.778 0-21.338 9.56-21.338 21.34 0 11.778 9.56 21.338 21.338 21.338 11.78 0 21.308-9.56 21.308-21.338s-9.528-21.34-21.308-21.34zM288.05 124.12c10.186-5.904 13.686-18.934 7.81-29.15-5.904-10.184-18.932-13.684-29.148-7.78-10.216 5.876-13.716 18.934-7.81 29.12 5.904 10.216 18.934 13.682 29.148 7.81zM735.95 899.91c-10.214 5.874-13.714 18.934-7.81 29.12 5.874 10.214 18.934 13.684 29.12 7.81 10.214-5.876 13.714-18.934 7.808-29.12-5.872-10.216-18.934-13.714-29.118-7.81zM94.97 295.862c10.186 5.904 23.244 2.406 29.12-7.81 5.904-10.186 2.404-23.244-7.81-29.12-10.186-5.904-23.246-2.404-29.12 7.81-5.872 10.186-2.374 23.246 7.81 29.12zM929.032 728.136c-10.218-5.874-23.246-2.376-29.15 7.81-5.874 10.216-2.406 23.246 7.81 29.15 10.186 5.874 23.246 2.376 29.148-7.81 5.874-10.216 2.374-23.244-7.808-29.15zM42.764 490.692c-11.778 0-21.338 9.53-21.338 21.308s9.56 21.338 21.338 21.338c11.78 0 21.34-9.56 21.34-21.338 0-11.78-9.562-21.308-21.34-21.308zM981.208 490.692A21.294 21.294 0 0 0 959.9 512c0 11.778 9.53 21.338 21.308 21.338s21.338-9.56 21.338-21.338c-0.002-11.78-9.562-21.308-21.338-21.308zM94.97 728.136c-10.186 5.904-13.684 18.934-7.81 29.15s18.934 13.684 29.12 7.81c10.214-5.904 13.714-18.934 7.81-29.15-5.876-10.184-18.934-13.682-29.12-7.81zM907.692 258.932c-10.186 5.876-13.684 18.934-7.81 29.12 5.904 10.216 18.932 13.714 29.15 7.81 10.184-5.874 13.684-18.934 7.808-29.12-5.902-10.214-18.932-13.714-29.148-7.81zM288.05 899.91c-10.214-5.904-23.244-2.406-29.148 7.81-5.876 10.186-2.406 23.244 7.81 29.12 10.216 5.904 23.244 2.404 29.148-7.81 5.876-10.186 2.376-23.246-7.81-29.12zM757.258 87.158c-10.186-5.874-23.246-2.374-29.12 7.81-5.904 10.216-2.404 23.246 7.81 29.15 10.186 5.904 23.246 2.406 29.118-7.81 5.906-10.184 2.406-23.244-7.808-29.15z" fill="#AAB2BC" /><path d="M682.618 512c0 94.26-76.386 170.646-170.618 170.646-94.228 0-170.648-76.386-170.648-170.646 0-94.228 76.42-170.618 170.648-170.618 94.23 0 170.618 76.39 170.618 170.618z" fill="#FFCE54" /><path d="M533.308 512c0 11.778-9.53 21.338-21.308 21.338s-21.338-9.56-21.338-21.338c0-11.78 9.56-21.308 21.338-21.308 11.78 0 21.308 9.528 21.308 21.308z" fill="#434A54" /></svg>