<?xml version="1.0" standalone="no"?><!DOCTYPE svg PUBLIC "-//W3C//DTD SVG 1.1//EN" "http://www.w3.org/Graphics/SVG/1.1/DTD/svg11.dtd"><svg class="icon" width="128px" height="128.00px" viewBox="0 0 1024 1024" version="1.1" xmlns="http://www.w3.org/2000/svg"><path d="M0.118 234.72h1023.766v554.562H0.118z" fill="#8CC153" /><path d="M959.898 661.308V362.69c-35.336 0-63.984-28.65-63.984-63.986H127.962a56.8 56.8 0 0 1 0.124 4c0 35.336-28.65 63.986-63.984 63.986v298.62c33.992 0 61.796 26.496 63.86 59.984h767.952c0-35.334 28.648-63.986 63.984-63.986z" fill="#A0D468" /><path d="M639.972 512c0 70.672-57.3 127.972-127.972 127.972s-127.97-57.3-127.97-127.972c0-70.67 57.298-127.97 127.97-127.97s127.972 57.3 127.972 127.97z" fill="#8CC153" /></svg>