<?xml version="1.0" standalone="no"?><!DOCTYPE svg PUBLIC "-//W3C//DTD SVG 1.1//EN" "http://www.w3.org/Graphics/SVG/1.1/DTD/svg11.dtd"><svg class="icon" width="128px" height="128.00px" viewBox="0 0 1024 1024" version="1.1" xmlns="http://www.w3.org/2000/svg"><path d="M0.118 693.278h1023.766v170.648H0.118z" fill="#A0D468" /><path d="M0.118 138.764h1023.766v554.512H0.118z" fill="#8CC153" /><path d="M959.898 565.308V266.736c-35.336 0-63.984-28.65-63.984-63.984H127.962c0.094 1.312 0.124 2.656 0.124 3.998 0 35.336-28.62 63.986-63.984 63.986v298.574c34.024 0 61.796 26.554 63.86 59.984h767.952c0-35.306 28.648-63.986 63.984-63.986z" fill="#A0D468" /><path d="M21.458 757.266h981.12c11.78 0 21.306-9.532 21.306-21.308s-9.528-21.308-21.306-21.308H21.458c-11.78 0-21.308 9.532-21.308 21.308s9.528 21.308 21.308 21.308zM1002.576 778.632H21.458c-11.78 0-21.308 9.532-21.308 21.308s9.53 21.308 21.308 21.308h981.12c11.78 0 21.306-9.532 21.306-21.308s-9.528-21.308-21.308-21.308zM1002.576 842.622H21.458A21.292 21.292 0 0 0 0.15 863.926a21.292 21.292 0 0 0 21.308 21.308h981.12c11.78 0 21.306-9.528 21.306-21.308a21.292 21.292 0 0 0-21.308-21.304z" fill="#8CC153" /><path d="M341.382 138.764h341.266v554.512H341.382z" fill="#F5F7FA" /><path d="M341.382 693.278h341.266v191.958H341.382z" fill="#E6E9ED" /></svg>