<?xml version="1.0" standalone="no"?><!DOCTYPE svg PUBLIC "-//W3C//DTD SVG 1.1//EN" "http://www.w3.org/Graphics/SVG/1.1/DTD/svg11.dtd"><svg class="icon" width="128px" height="128.00px" viewBox="0 0 1024 1024" version="1.1" xmlns="http://www.w3.org/2000/svg"><path d="M42.02 17.92h946.084v600.766H42.02z" fill="#965353" /><path d="M21.334 682.684h981.334v341.302H21.334z" fill="#434A54" /><path d="M277.326 896.116h42.686v127.872h-42.686zM703.988 896.116h42.684v127.872h-42.684z" fill="#CCD1D9" /><path d="M213.328 85.34H170.672c-11.78 0-21.342 9.562-21.342 21.344s9.562 21.328 21.342 21.328v30.216h42.656V128.012c11.782 0 21.344-9.546 21.344-21.328s-9.562-21.344-21.344-21.344z" fill="#37BC9B" /><path d="M277.326 326.366H106.674v-113.028L163.58 128.012h56.874l56.872 85.326z" fill="#48CFAD" /><path d="M853.296 85.34h-42.624c-11.812 0-21.376 9.562-21.376 21.344s9.562 21.328 21.376 21.328v30.216h42.624V128.012c11.808 0 21.372-9.546 21.372-21.328s-9.562-21.344-21.372-21.344z" fill="#967ADC" /><path d="M916.106 256.008c0-21.14-7.562-40.466-20.124-55.358V170.682l-42.684-42.67h-42.624l-42.688 42.67v29.968c-12.562 14.89-20.124 34.216-20.124 55.358s7.562 40.466 20.124 55.374h127.996c12.56-14.908 20.124-34.234 20.124-55.374z" fill="#AC92EB" /><path d="M533.32 85.34h-42.656c-11.782 0-21.344 9.562-21.344 21.344s9.562 21.328 21.344 21.328v30.216h42.656V128.012c11.796 0 21.36-9.546 21.36-21.328s-9.562-21.344-21.36-21.344z" fill="#F6BB42" /><path d="M426.666 384.004h-42.656c-11.78 0-21.342 9.546-21.342 21.328s9.562 21.344 21.342 21.344v30.216h42.656v-30.216c11.782 0 21.344-9.562 21.344-21.344s-9.562-21.328-21.344-21.328z" fill="#E9573F" /><path d="M320.012 426.676h170.652v213.322h-170.652zM533.32 512h127.98v127.998h-127.98z" fill="#FC6E51" /><path d="M587.614 309.912c19.188-19.28 31.062-45.874 31.062-75.232 0-58.92-47.75-106.668-106.668-106.668-58.904 0-106.684 47.748-106.684 106.668 0 29.36 11.876 55.954 31.062 75.232h151.228z" fill="#FFCE54" /><path d="M21.334 0.014v682.67h981.334V0.014H21.334zM959.98 42.686v255.992H64.02V42.686h895.96zM64.02 682.684V341.334h895.96v341.35H64.02z" fill="#A85D5D" /><path d="M21.334 597.31h981.334v85.374H21.334z" fill="#656D78" /><path d="M895.98 618.686c11.812 0 21.312-9.562 21.312-21.376h-42.624c0 11.814 9.562 21.376 21.312 21.376zM981.292 618.686a21.366 21.366 0 0 0 21.376-21.376H959.98c0 11.814 9.562 21.376 21.312 21.376zM810.672 618.686c11.75 0 21.312-9.562 21.312-21.376h-42.688a21.366 21.366 0 0 0 21.376 21.376zM725.296 618.686a21.366 21.366 0 0 0 21.376-21.376h-42.684c0 11.814 9.558 21.376 21.308 21.376zM639.988 618.686c11.812 0 21.312-9.562 21.312-21.376h-42.624c0 11.814 9.562 21.376 21.312 21.376zM554.68 618.686c11.75 0 21.308-9.562 21.308-21.376H533.32c0 11.814 9.562 21.376 21.36 21.376zM469.322 618.686c11.782 0 21.344-9.562 21.344-21.376h-42.656c0 11.814 9.53 21.376 21.312 21.376zM384.01 618.686c11.782 0 21.312-9.562 21.312-21.376h-42.656c0.002 11.814 9.564 21.376 21.344 21.376zM298.67 618.686c11.782 0 21.342-9.562 21.342-21.376h-42.686c0 11.814 9.562 21.376 21.344 21.376zM213.328 618.686c11.782 0 21.344-9.562 21.344-21.376H192.016c0 11.814 9.53 21.376 21.312 21.376zM128.018 618.686c11.782 0 21.312-9.562 21.312-21.376H106.674c0 11.814 9.564 21.376 21.344 21.376zM42.676 618.686c11.782 0 21.342-9.562 21.342-21.376H21.334c0 11.814 9.562 21.376 21.342 21.376z" fill="#434A54" /><path d="M149.33 767.994h298.68v128.122H149.33z" fill="#ED5564" /><path d="M575.988 767.994h298.68v128.122h-298.68z" fill="#ED5564" /><path d="M149.33 767.994h298.68v42.688H149.33zM575.988 767.994h298.68v42.688h-298.68z" fill="#FFFFFF" opacity=".1" /></svg>