<?xml version="1.0" standalone="no"?><!DOCTYPE svg PUBLIC "-//W3C//DTD SVG 1.1//EN" "http://www.w3.org/Graphics/SVG/1.1/DTD/svg11.dtd"><svg class="icon" width="128px" height="128.00px" viewBox="0 0 1024 1024" version="1.1" xmlns="http://www.w3.org/2000/svg"><path d="M981.296 1002.664H42.67c-11.782 0-21.344-9.562-21.344-21.372V469.322c0-11.78 9.562-21.312 21.344-21.312h938.626c11.782 0 21.344 9.532 21.344 21.312v511.97c0 11.81-9.562 21.372-21.344 21.372z" fill="#A0D468" /><path d="M895.988 1002.664h-170.684c-11.782 0-21.31-9.562-21.31-21.372V597.3c0-11.746 9.53-21.308 21.31-21.308h170.684c11.75 0 21.312 9.562 21.312 21.308v383.992c0 11.81-9.562 21.372-21.312 21.372zM597.308 405.324h-170.65c-11.782 0-21.344 11.78-21.344 0V170.674a21.36 21.36 0 0 1 6.25-15.094l36.438-36.404V42.678c0-11.782 9.532-21.344 21.312-21.344h85.34c11.782 0 21.342 9.562 21.342 21.344v76.498l36.406 36.404c4 4 6.25 9.438 6.25 15.094v234.65c0 11.78-9.562 0-21.344 0z" fill="#FC6E51" /><path d="M575.996 64.022h-127.994c-11.782 0-21.344-9.562-21.344-21.342s9.562-21.344 21.344-21.344h127.994c11.782 0 21.312 9.562 21.312 21.344s-9.53 21.342-21.312 21.342z" fill="#E9573F" /><path d="M405.314 192.018h213.338v127.998H405.314z" fill="#FFCE54" /><path d="M789.304 789.296c0 11.812-9.562 21.376-21.312 21.376-11.812 0-21.344-9.562-21.344-21.376 0-11.75 9.532-21.312 21.344-21.312 11.75 0 21.312 9.562 21.312 21.312z" fill="#434A54" /><path d="M149.322 618.676h469.33v255.992H149.322z" fill="#5D9CEC" /><path d="M1002.64 384.012H21.326A21.296 21.296 0 0 0 0.016 405.324v63.998c0 11.78 9.53 21.342 21.31 21.342H1002.64c11.782 0 21.344-9.562 21.344-21.342v-63.998c0-11.782-9.562-21.312-21.344-21.312z" fill="#656D78" /><path d="M659.058 587.804a21.314 21.314 0 0 0-19.062-11.812H512a21.328 21.328 0 0 0-19.094 11.812c-3.594 7.184-2.844 15.872 2.032 22.308l63.998 85.312a21.34 21.34 0 0 0 17.06 8.562c6.718 0 13.032-3.188 17.062-8.562l64-85.312a21.26 21.26 0 0 0 2-22.308z" fill="#ED5564" /><path d="M531.062 587.804a21.28 21.28 0 0 0-19.062-11.812h-127.996a21.328 21.328 0 0 0-19.094 11.812c-3.594 7.184-2.844 15.872 2.032 22.308l63.998 85.312c4.032 5.376 10.344 8.562 17.062 8.562s13.032-3.188 17.062-8.562l63.998-85.312a21.26 21.26 0 0 0 2-22.308z" fill="#FFCE54" /><path d="M403.066 587.804a21.28 21.28 0 0 0-19.062-11.812h-127.996a21.328 21.328 0 0 0-19.094 11.812c-3.594 7.184-2.844 15.872 2.032 22.308l63.998 85.312c4.032 5.376 10.344 8.562 17.062 8.562s13.032-3.188 17.062-8.562l63.998-85.312a21.268 21.268 0 0 0 2-22.308z" fill="#ED5564" /><path d="M275.068 587.804a21.278 21.278 0 0 0-19.06-11.812H128.012a21.328 21.328 0 0 0-19.094 11.812c-3.594 7.184-2.844 15.872 2.032 22.308l63.998 85.312c4.032 5.376 10.344 8.562 17.062 8.562s13.03-3.188 17.06-8.562l63.998-85.312a21.26 21.26 0 0 0 2-22.308z" fill="#FFCE54" /><path d="M1002.64 1002.664H21.326c-11.782 0-21.31-9.562-21.31-21.372 0-11.75 9.53-21.312 21.31-21.312H1002.64c11.782 0 21.344 9.562 21.344 21.312 0 11.81-9.562 21.372-21.344 21.372zM938.644 448.01c-11.782 0-21.344 9.532-21.344 21.312v21.342h42.686v-21.342c0-11.78-9.562-21.312-21.342-21.312zM853.3 448.01a21.298 21.298 0 0 0-21.31 21.312v21.342h42.654v-21.342c0-11.78-9.562-21.312-21.344-21.312zM767.992 448.01c-11.812 0-21.344 9.532-21.344 21.312v21.342h42.656v-21.342c0-11.78-9.562-21.312-21.312-21.312zM682.65 448.01c-11.78 0-21.342 9.532-21.342 21.312v21.342h42.686v-21.342c0-11.78-9.562-21.312-21.344-21.312zM597.308 448.01a21.3 21.3 0 0 0-21.312 21.312v21.342h42.656v-21.342c0-11.78-9.562-21.312-21.344-21.312zM512 448.01c-11.782 0-21.344 9.532-21.344 21.312v21.342h42.656v-21.342A21.3 21.3 0 0 0 512 448.01zM426.658 448.01c-11.782 0-21.344 9.532-21.344 21.312v21.342h42.688v-21.342c0-11.78-9.562-21.312-21.344-21.312zM341.316 448.01a21.298 21.298 0 0 0-21.31 21.312v21.342h42.654v-21.342c0-11.78-9.562-21.312-21.344-21.312zM256.008 448.01c-11.782 0-21.344 9.532-21.344 21.312v21.342h42.654v-21.342c0-11.78-9.528-21.312-21.31-21.312zM170.666 448.01c-11.782 0-21.344 9.532-21.344 21.312v21.342h42.688v-21.342c0-11.78-9.562-21.312-21.344-21.312zM85.324 448.01a21.296 21.296 0 0 0-21.31 21.312v21.342h42.654v-21.342c0-11.78-9.562-21.312-21.344-21.312z" fill="#434A54" /><path d="M639.996 575.992H128.012c-11.782 0-21.344 9.562-21.344 21.308v298.68c0 11.812 9.562 21.312 21.344 21.312h511.984c11.75 0 21.312-9.5 21.312-21.312V597.3c0-11.746-9.562-21.308-21.312-21.308z m-21.344 298.676H149.322V618.676h469.33v255.992z" fill="#F5F7FA" /></svg>