<?xml version="1.0" standalone="no"?><!DOCTYPE svg PUBLIC "-//W3C//DTD SVG 1.1//EN" "http://www.w3.org/Graphics/SVG/1.1/DTD/svg11.dtd"><svg class="icon" width="128px" height="128.00px" viewBox="0 0 1024 1024" version="1.1" xmlns="http://www.w3.org/2000/svg"><path d="M981.298 469.314H42.686c-11.78 0-21.342 9.56-21.342 21.342V1002.64c0 11.782 9.562 21.344 21.342 21.344H981.3c11.782 0 21.344-9.562 21.344-21.344V490.656c-0.002-11.78-9.564-21.342-21.346-21.342z" fill="#ED5564" /><path d="M597.31 725.304h-170.636c-11.782 0-21.344 9.562-21.344 21.344V1002.64c0 11.782 9.562 21.344 21.344 21.344h170.636c11.782 0 21.344-9.562 21.344-21.344V746.648c0-11.78-9.562-21.344-21.344-21.344z" fill="#FFCE54" /><path d="M320.006 895.988H149.338c-11.782 0-21.328-9.562-21.328-21.344v-170.65c0-58.842 47.842-106.686 106.668-106.686 58.81 0 106.652 47.844 106.652 106.686v170.65c0.004 11.782-9.542 21.344-21.324 21.344zM874.646 895.988h-170.65c-11.782 0-21.344-9.562-21.344-21.344v-170.65c0-58.842 47.842-106.686 106.654-106.686 58.84 0 106.684 47.844 106.684 106.686v170.65c0 11.782-9.562 21.344-21.344 21.344z" fill="#4FC2E9" /><path d="M597.31 682.65h-170.636c-11.782 0-21.344-9.56-21.344-21.342s9.562-21.312 21.344-21.312h170.636c11.782 0 21.344 9.532 21.344 21.312s-9.562 21.342-21.344 21.342z" fill="#DA4453" /><path d="M1014.486 387.566l-127.996-85.31a21.286 21.286 0 0 0-11.844-3.594H149.338c-4.204 0-8.328 1.25-11.828 3.594L9.514 387.566a21.314 21.314 0 0 0-8.578 23.936 21.324 21.324 0 0 0 20.406 15.156h981.3c9.406 0 17.688-6.156 20.406-15.156a21.306 21.306 0 0 0-8.562-23.936z" fill="#F6BB42" /><path d="M234.68 597.308c-58.828 0-106.668 47.844-106.668 106.686h213.322c0-58.842-47.842-106.686-106.654-106.686zM789.306 597.308c-58.812 0-106.654 47.844-106.654 106.686h213.338c0-58.842-47.844-106.686-106.684-106.686z" fill="#F5F7FA" /><path d="M490.672 874.644c0 11.782-9.562 21.344-21.342 21.344-11.782 0-21.328-9.562-21.328-21.344s9.546-21.342 21.328-21.342c11.78 0 21.342 9.562 21.342 21.342z" fill="#434A54" /><path d="M661.31 341.318H362.676c-11.782 0-21.344-9.532-21.344-21.312V21.326c0-11.782 9.562-21.31 21.344-21.31h298.634c11.782 0 21.342 9.53 21.342 21.31v298.68c0 11.782-9.56 21.312-21.342 21.312z" fill="#ED5564" /><path d="M565.344 171.572c-19 0-36.702-10.218-46.202-26.656-14.704-25.466-5.956-58.154 19.516-72.842a53.222 53.222 0 0 1 26.624-7.154c19.03 0 36.716 10.216 46.216 26.654 14.718 25.468 5.968 58.154-19.5 72.874a53.624 53.624 0 0 1-26.654 7.124z m-0.062-63.998c-1.876 0-3.656 0.5-5.282 1.438a10.67 10.67 0 0 0-3.906 14.562c1.906 3.344 5.376 5.344 9.25 5.344 1.876 0 3.656-0.468 5.312-1.438a10.672 10.672 0 0 0 3.904-14.562 10.612 10.612 0 0 0-9.278-5.344z" fill="#CCD1D9" /><path d="M426.674 235.57c-8.188 0-16-4.75-19.532-12.718-4.75-10.782 0.14-23.374 10.922-28.124l153.966-67.904c10.78-4.75 23.374 0.124 28.154 10.906 4.75 10.78-0.156 23.374-10.938 28.124l-153.98 67.904a20.954 20.954 0 0 1-8.592 1.812z" fill="#CCD1D9" /><path d="M565.282 278.224a53.508 53.508 0 0 1-26.624-7.124c-25.47-14.718-34.22-47.406-19.516-72.874 9.5-16.438 27.202-26.656 46.202-26.656 9.342 0 18.53 2.468 26.654 7.156 25.468 14.688 34.218 47.374 19.5 72.842-9.5 16.44-27.188 26.656-46.216 26.656z m0.062-63.998c-3.876 0-7.344 2-9.25 5.344a10.67 10.67 0 0 0 3.906 14.562 10.174 10.174 0 0 0 5.282 1.438c3.876 0 7.344-2 9.28-5.344a10.672 10.672 0 0 0-3.904-14.562 10.682 10.682 0 0 0-5.314-1.438z" fill="#E6E9ED" /><path d="M580.654 218.132a21.16 21.16 0 0 1-8.624-1.812l-153.966-67.904c-10.782-4.75-15.67-17.342-10.922-28.124 4.766-10.782 17.36-15.656 28.14-10.906l153.964 67.904c10.782 4.75 15.688 17.344 10.938 28.124a21.364 21.364 0 0 1-19.53 12.718z" fill="#E6E9ED" /><path d="M1002.642 1023.984H21.342c-11.782 0-21.328-9.562-21.328-21.344s9.546-21.342 21.328-21.342h981.3c11.782 0 21.344 9.56 21.344 21.342s-9.562 21.344-21.344 21.344z" fill="#434A54" /><path d="M1002.642 384.004H21.342c-11.782 0-21.328 9.532-21.328 21.312v122.278a21.32 21.32 0 0 0 10.656 18.466 63.938 63.938 0 0 0 32.014 8.594c16.376 0 31.328-6.188 42.656-16.342 11.344 10.154 26.296 16.342 42.67 16.342 16.374 0 31.328-6.188 42.67-16.342 11.328 10.154 26.282 16.342 42.656 16.342 16.376 0 31.342-6.188 42.67-16.342 11.328 10.154 26.296 16.342 42.67 16.342 16.374 0 31.328-6.188 42.654-16.342 11.344 10.154 26.296 16.342 42.67 16.342 16.376 0 31.328-6.188 42.67-16.342 11.328 10.154 26.28 16.342 42.656 16.342 16.374 0 31.342-6.188 42.67-16.342 11.33 10.154 26.298 16.342 42.656 16.342a63.68 63.68 0 0 0 42.654-16.342c11.344 10.154 26.312 16.342 42.688 16.342s31.344-6.188 42.654-16.342c11.344 10.154 26.28 16.342 42.654 16.342s31.344-6.188 42.688-16.342a63.688 63.688 0 0 0 42.654 16.342 63.676 63.676 0 0 0 42.654-16.342c11.344 10.154 26.312 16.342 42.688 16.342s31.344-6.188 42.656-16.342c11.342 10.154 26.28 16.342 42.652 16.342a63.978 63.978 0 0 0 32.032-8.594 21.32 21.32 0 0 0 10.656-18.466v-122.278c0.004-11.78-9.558-21.312-21.34-21.312z" fill="#FFCE54" /></svg>