<?xml version="1.0" standalone="no"?><!DOCTYPE svg PUBLIC "-//W3C//DTD SVG 1.1//EN" "http://www.w3.org/Graphics/SVG/1.1/DTD/svg11.dtd"><svg class="icon" width="128px" height="128.00px" viewBox="0 0 1024 1024" version="1.1" xmlns="http://www.w3.org/2000/svg"><path d="M234.646 426.672c-10.452 0-19.578-7.672-21.092-18.312-1.672-11.672 6.438-22.468 18.092-24.14l136.358-19.468 17.124-50.578c3.782-11.172 15.89-17.156 27.046-13.376s17.14 15.89 13.376 27.046l-21.344 62.998a21.324 21.324 0 0 1-17.186 14.282l-149.326 21.328c-1.032 0.158-2.048 0.22-3.048 0.22z" fill="#434A54" /><path d="M447.97 202.676h128.06v693.316h-128.06z" fill="#CCD1D9" /><path d="M128.006 64.006v213.34c0 35.344 171.918 64 383.994 64 212.058 0 383.992-28.656 383.992-64V64.006H128.006z" fill="#ED5564" /><path d="M447.97 853.336L170.678 959.992c0 35.376 152.81 64 341.322 64 188.496 0 341.308-28.624 341.308-64l-277.278-106.656h-128.06z" fill="#E6E9ED" /><path d="M533.328 128.006c0 11.782-9.546 21.342-21.328 21.342s-21.328-9.562-21.328-21.342S500.218 106.678 512 106.678s21.328 9.548 21.328 21.328zM653.308 124.006c0 11.782-9.532 21.344-21.312 21.344-11.778 0-21.308-9.562-21.308-21.344 0-11.78 9.532-21.328 21.308-21.328 11.782 0 21.312 9.548 21.312 21.328zM773.308 112.678c0 11.78-9.532 21.328-21.312 21.328s-21.312-9.546-21.312-21.328 9.532-21.328 21.312-21.328 21.312 9.548 21.312 21.328zM370.674 124.006c0 11.782 9.546 21.344 21.328 21.344 11.78 0 21.328-9.562 21.328-21.344 0-11.78-9.546-21.328-21.328-21.328-11.78 0-21.328 9.548-21.328 21.328z" fill="#DA4453" /><path d="M272.004 112.678m-21.328 0a21.328 21.328 0 1 0 42.656 0 21.328 21.328 0 1 0-42.656 0Z" fill="#DA4453" /><path d="M895.992 64.006c0 35.36-171.934 64-383.992 64-212.076 0-383.994-28.64-383.994-64C128.006 28.664 299.924 0.008 512 0.008c212.058 0 383.992 28.656 383.992 63.998z" fill="#DA4453" /><path d="M576.032 662.808v42.75c41.876 2.032 81.34 6.062 114.902 11.782 15.438 2.656 28.156 5.344 38.562 8-10.406 2.624-23.124 5.344-38.562 8-50.312 8.594-113.84 13.344-178.932 13.344s-128.638-4.75-178.918-13.344c-15.454-2.656-28.172-5.376-38.61-8 10.438-2.656 23.156-5.344 38.61-8 33.546-5.718 73.014-9.75 114.888-11.782v-42.75c-134.17 6.282-234.636 31.876-234.636 62.532 0 35.344 133.716 64 298.666 64 164.932 0 298.682-28.656 298.682-64 0-30.656-100.5-56.25-234.652-62.532z" fill="#E6E9ED" /></svg>