<?xml version="1.0" standalone="no"?><!DOCTYPE svg PUBLIC "-//W3C//DTD SVG 1.1//EN" "http://www.w3.org/Graphics/SVG/1.1/DTD/svg11.dtd"><svg class="icon" width="128px" height="128.00px" viewBox="0 0 1024 1024" version="1.1" xmlns="http://www.w3.org/2000/svg"><path d="M885.55 917.708c0-11.782-9.558-21.312-21.372-21.312a20.8 20.8 0 0 0-9.124 2.094v-0.032c-117.434 55.876-279.93 112.558-387.428 65.28-58.936-25.936-73.53-71.498-74.124-73.436l0.062 0.156-41 11.844c0.782 2.656 19.656 65.31 96.278 99.778 32.468 14.594 70.436 21.906 113.28 21.906 15 0 30.624-0.876 46.746-2.688 75.624-8.406 164.622-36.78 264.496-84.308v-0.032c7.186-3.438 12.186-10.75 12.186-19.25z" fill="#434A54" /><path d="M437.534 896.394c0 11.782-9.562 21.312-21.344 21.312h-85.34a21.3 21.3 0 0 1-21.312-21.312v-149.34c0-11.782 9.532-21.344 21.312-21.344h85.34c11.782 0 21.344 9.562 21.344 21.344v149.34z" fill="#656D78" /><path d="M330.85 853.708a21.3 21.3 0 0 0-21.312-21.312v42.654c11.78 0 21.312-9.562 21.312-21.342zM416.19 853.708c0 11.78 9.562 21.342 21.344 21.342v-42.654c-11.782 0-21.344 9.532-21.344 21.312z" fill="#434A54" /><path d="M592.5 256.04H153.792l69.998 170.65 42.656 383.99h213.336l42.656-383.99z" fill="#F5F7FA" /><path d="M223.79 426.69l42.656 383.99h213.336l42.656-383.99z" fill="#E6E9ED" /><path d="M415.784 0.016h-85.34c-11.782 0-21.312 9.56-21.312 21.342s9.532 21.344 21.312 21.344h85.34c11.782 0 21.344-9.562 21.344-21.344S427.566 0.016 415.784 0.016zM437.128 423.126c0 13.75-9.562 24.906-21.344 24.906h-85.34c-11.782 0-21.312-11.156-21.312-24.906v-128.59c0-13.75 9.532-24.874 21.312-24.874h85.34c11.782 0 21.344 11.124 21.344 24.874v128.59z" fill="#434A54" /><path d="M373.128 21.358c-129.622 0-234.68 0-234.68 159.996s105.06 159.996 234.68 159.996c129.59 0 234.68 0 234.68-159.996s-105.088-159.996-234.68-159.996z" fill="#ED5564" /><path d="M501.126 170.698H245.132c-11.78 0-21.342 9.562-21.342 21.344s9.562 21.31 21.342 21.31h255.994c11.78 0 21.312-9.53 21.312-21.31s-9.532-21.344-21.312-21.344z" fill="#DA4453" /><path d="M481.064 768.398H266.446c-11.782 0-21.312 9.532-21.312 21.312s9.532 21.344 21.312 21.344h214.618c11.782 0 21.312-9.562 21.312-21.344s-9.532-21.312-21.312-21.312z" fill="#F5F7FA" /></svg>