<?xml version="1.0" standalone="no"?><!DOCTYPE svg PUBLIC "-//W3C//DTD SVG 1.1//EN" "http://www.w3.org/Graphics/SVG/1.1/DTD/svg11.dtd"><svg class="icon" width="128px" height="128.00px" viewBox="0 0 1024 1024" version="1.1" xmlns="http://www.w3.org/2000/svg"><path d="M170.682 863.98c-11.782 0-21.344 9.562-21.344 21.312 0 11.812 9.562 21.376 21.344 21.376s21.328-9.562 21.328-21.376c0-11.75-9.548-21.312-21.328-21.312zM234.68 863.98c-11.782 0-21.344 9.562-21.344 21.312 0 11.812 9.562 21.376 21.344 21.376s21.328-9.562 21.328-21.376c0-11.75-9.548-21.312-21.328-21.312zM298.678 863.98c-11.782 0-21.344 9.562-21.344 21.312 0 11.812 9.562 21.376 21.344 21.376s21.328-9.562 21.328-21.376c0-11.75-9.548-21.312-21.328-21.312zM362.676 863.98c-11.782 0-21.344 9.562-21.344 21.312 0 11.812 9.562 21.376 21.344 21.376s21.328-9.562 21.328-21.376c0-11.75-9.546-21.312-21.328-21.312zM426.674 863.98c-11.782 0-21.344 9.562-21.344 21.312 0 11.812 9.562 21.376 21.344 21.376s21.328-9.562 21.328-21.376c0-11.75-9.546-21.312-21.328-21.312zM597.31 863.98c-11.75 0-21.312 9.562-21.312 21.312 0 11.812 9.562 21.376 21.312 21.376a21.366 21.366 0 0 0 21.374-21.376c0-11.75-9.562-21.312-21.374-21.312zM661.306 863.98c-11.75 0-21.31 9.562-21.31 21.312 0 11.812 9.56 21.376 21.31 21.376a21.366 21.366 0 0 0 21.376-21.376c0-11.75-9.562-21.312-21.376-21.312zM725.306 863.98c-11.75 0-21.312 9.562-21.312 21.312 0 11.812 9.562 21.376 21.312 21.376a21.364 21.364 0 0 0 21.374-21.376c0-11.75-9.56-21.312-21.374-21.312zM789.302 863.98c-11.75 0-21.31 9.562-21.31 21.312 0 11.812 9.56 21.376 21.31 21.376a21.366 21.366 0 0 0 21.376-21.376c0-11.75-9.562-21.312-21.376-21.312zM853.302 863.98c-11.75 0-21.312 9.562-21.312 21.312 0 11.812 9.562 21.376 21.312 21.376a21.366 21.366 0 0 0 21.376-21.376c0-11.75-9.562-21.312-21.376-21.312zM1002.674 117.332c-11.812 0-21.376 9.562-21.376 21.342v746.618a21.366 21.366 0 0 0 21.376 21.376c11.748 0 21.31-9.562 21.31-21.376V138.674c0-11.78-9.562-21.342-21.31-21.342zM938.674 117.332c-11.812 0-21.376 9.562-21.376 21.342v746.618a21.366 21.366 0 0 0 21.376 21.376c11.75 0 21.312-9.562 21.312-21.376V138.674c0-11.78-9.562-21.342-21.312-21.342zM874.678 117.332c-11.812 0-21.376 9.562-21.376 21.342v682.622a21.366 21.366 0 0 0 21.376 21.374c11.748 0 21.31-9.562 21.31-21.374V138.674c0-11.78-9.562-21.342-21.31-21.342zM661.306 117.332c-11.75 0-21.31 9.562-21.31 21.342v682.622c0 11.81 9.56 21.374 21.31 21.374a21.366 21.366 0 0 0 21.376-21.374V138.674c0-11.78-9.562-21.342-21.376-21.342zM597.31 117.332c-11.75 0-21.312 9.562-21.312 21.342v682.622c0 11.81 9.562 21.374 21.312 21.374a21.366 21.366 0 0 0 21.374-21.374V138.674c0-11.78-9.562-21.342-21.374-21.342zM512 117.332c-11.782 0-21.328 9.562-21.328 21.342v746.618c0 11.812 9.546 21.376 21.328 21.376 11.78 0 21.326-9.562 21.326-21.376V138.674c0-11.78-9.546-21.342-21.326-21.342zM298.678 821.296V138.674c0-11.782-9.562-21.342-21.344-21.342-11.78 0-21.326 9.562-21.326 21.342v682.622c0 11.81 9.546 21.374 21.326 21.374 11.782 0 21.344-9.562 21.344-21.374zM170.682 117.332c-11.782 0-21.344 9.562-21.344 21.342v682.622c0 11.81 9.562 21.374 21.344 21.374s21.328-9.562 21.328-21.374V138.674c0-11.78-9.548-21.342-21.328-21.342zM85.34 117.332c-11.782 0-21.326 9.562-21.326 21.342v746.618c0 11.812 9.544 21.376 21.326 21.376s21.344-9.562 21.344-21.376V138.674c0-11.78-9.562-21.342-21.344-21.342zM21.342 117.332C9.56 117.332 0.016 126.894 0.016 138.674v746.618c0 11.812 9.544 21.376 21.326 21.376s21.344-9.562 21.344-21.376V138.674c0-11.78-9.562-21.342-21.344-21.342zM430.22 117.332h-92.436c-9.826 0-17.78 9.562-17.78 21.342v682.622c0 11.81 7.954 21.374 17.78 21.374h92.436c9.828 0 17.782-9.562 17.782-21.374V138.674c0-11.78-7.954-21.342-17.782-21.342zM792.866 117.332h-71.09c-9.812 0-17.782 9.562-17.782 21.342v682.622c0 11.81 7.968 21.374 17.782 21.374h71.09c9.812 0 17.812-9.562 17.812-21.374V138.674c0-11.78-8-21.342-17.812-21.342z" fill="#434A54" /></svg>