<?xml version="1.0" standalone="no"?><!DOCTYPE svg PUBLIC "-//W3C//DTD SVG 1.1//EN" "http://www.w3.org/Graphics/SVG/1.1/DTD/svg11.dtd"><svg class="icon" width="128px" height="128.00px" viewBox="0 0 1024 1024" version="1.1" xmlns="http://www.w3.org/2000/svg"><path d="M511.992 994.114c-30.342-30.248-103.152-105.498-175.12-199.806-54.75-71.624-98.28-140.122-129.404-203.434-38.216-77.686-57.592-147.464-57.592-207.37 0-96.746 37.688-187.682 106.06-256.086 68.404-68.404 159.34-106.06 256.054-106.06 96.764 0 187.7 37.688 256.072 106.06 68.374 68.404 106.058 159.34 106.058 256.086 0 59.904-19.374 129.684-57.558 207.37-31.124 63.312-74.688 131.808-129.436 203.434-71.996 94.308-144.79 169.558-175.134 199.806z" fill="#AC92EB" /><path d="M511.992 0.014C300.216 0.014 128.564 171.698 128.564 383.504c0 277.37 383.428 640.482 383.428 640.482s383.444-363.114 383.444-640.482C895.436 171.698 723.752 0.014 511.992 0.014z m0 963.788c-35.03-35.876-96.59-101.81-157.808-181.934C234.5 625.186 171.22 487.47 171.22 383.504c0-46.03 9-90.686 26.75-132.652 17.186-40.592 41.748-77.03 73.06-108.34 31.31-31.312 67.748-55.906 108.34-73.06 41.966-17.75 86.592-26.75 132.622-26.75 46.016 0 90.638 9 132.638 26.75 40.56 17.154 77.058 41.748 108.372 73.06 31.312 31.31 55.876 67.748 73.06 108.34 17.75 41.966 26.75 86.624 26.75 132.652 0 103.748-63.06 241.182-182.244 397.428-61.374 80.372-123.372 146.808-158.576 182.87z" fill="#967ADC" /><path d="M490.682 456.908h42.654v140.402h-42.654z" fill="#CCD1D9" /><path d="M725.314 256.008H298.686L511.992 512l213.322-255.992z" fill="#F5F7FA" /><path d="M351.996 320.006L511.992 512l160.014-191.994z" fill="#A0D468" /><path d="M597.318 597.31h-170.636c-11.78 0-21.342 9.562-21.342 21.376 0 11.75 9.562 21.312 21.342 21.312h170.636c11.812 0 21.376-9.562 21.376-21.312a21.368 21.368 0 0 0-21.376-21.376z" fill="#F5F7FA" /><path d="M563.82 320.006l72.936-116.684a21.18 21.18 0 0 0 3.25-11.312c0-11.75-9.562-21.312-21.312-21.312-7.624 0-14.312 4-18.062 10.032h-0.062l-87.044 139.278h50.294z" fill="#FFD2A6" /></svg>