<?xml version="1.0" standalone="no"?><!DOCTYPE svg PUBLIC "-//W3C//DTD SVG 1.1//EN" "http://www.w3.org/Graphics/SVG/1.1/DTD/svg11.dtd"><svg class="icon" width="128px" height="128.00px" viewBox="0 0 1024 1024" version="1.1" xmlns="http://www.w3.org/2000/svg"><path d="M504.376 95.424L170.948 390.88v632.964h682.134V390.88z" fill="#FFD2A6" /><path d="M58.482 454.986L513.344 0.156l452.174 452.19-60.296 60.278L513.344 120.728 118.776 515.282z" fill="#EC5564" /><path d="M320.152 490.928h383.696v532.916H320.152z" fill="#D94452" /><path d="M554.642 491.302h42.642v532.542h-42.642zM426.744 488.132h42.644v535.71h-42.644z" fill="#EC5564" /><path d="M405.44 746.742c0 11.746-9.56 21.304-21.338 21.304s-21.306-9.558-21.306-21.304c0-11.808 9.53-21.338 21.306-21.338s21.338 9.53 21.338 21.338z" fill="#424953" /><path d="M341.49 1023.844V512.234h341.052v511.61h42.642V469.608H298.846v554.236z" fill="#EC5564" /></svg>