<?xml version="1.0" standalone="no"?><!DOCTYPE svg PUBLIC "-//W3C//DTD SVG 1.1//EN" "http://www.w3.org/Graphics/SVG/1.1/DTD/svg11.dtd"><svg class="icon" width="128px" height="128.00px" viewBox="0 0 1024 1024" version="1.1" xmlns="http://www.w3.org/2000/svg"><path d="M902.224 184.764L512 45.242 126.992 185.264 23.914 471.41h978.28z" fill="#646C77" /><path d="M1023.844 482.75c0-2.546-0.438-4.982-1.25-7.248l-101.344-304L512 19.034 102.75 171.502l-101.328 304a21.432 21.432 0 0 0-1.264 7.248c0 11.778 9.544 21.338 21.322 21.338h107.966c11.778 0 21.336-9.56 21.336-21.338s-9.56-21.322-21.336-21.322h-78.4l79.256-237.722 6.452-19.37 19.12-7.124L512 64.548l356.14 132.664 19.12 7.124 6.436 19.37 79.258 237.722h-78.382c-11.808 0-21.368 9.544-21.368 21.322s9.558 21.338 21.368 21.338h107.966v-0.016c11.748 0 21.306-9.544 21.306-21.322z" fill="#424953" /><path d="M938.556 493.106l-85.348-255.922-343.458-127.962-338.974 127.962-85.318 255.922v511.86h853.098z" fill="#EC5564" /><path d="M298.736 983.626c-11.762 0-21.336-9.59-21.336-21.336v-255.92c0-11.746 9.576-21.306 21.336-21.306h426.51c11.778 0 21.37 9.56 21.37 21.306v255.922c0 11.746-9.592 21.336-21.37 21.336H298.736z" fill="#FECD57" /><path d="M725.246 663.724H298.736c-23.46 0-42.658 19.214-42.658 42.644v255.922c0 23.492 19.198 42.676 42.658 42.676h426.51c23.494 0 42.676-19.184 42.676-42.676v-255.92c0-23.43-19.182-42.646-42.676-42.646z m0 298.504s-0.032 0.062-0.062 0.062H298.814c-0.032 0-0.062-0.062-0.062-0.062l-0.016-255.796c0.016 0 0.046-0.032 0.078-0.062h426.37l0.062 0.062v255.796z" fill="#F5BA45" /><path d="M725.246 685.062h-27.74L512 808.712l-185.49-123.65h-27.774c-10.856 0-19.822 8.124-21.15 18.62l195.972 130.648-195.972 130.648c1.328 10.496 10.294 18.648 21.15 18.648h27.774L512 859.978l185.506 123.648h27.74c10.874 0 19.84-8.152 21.182-18.648l-196.002-130.648 196.002-130.648c-1.342-10.496-10.308-18.62-21.182-18.62z" fill="#F5BA45" /><path d="M304.75 329h414.5v200.252h-414.5z" fill="#5E9CEA" /><path d="M298.736 322.502v213.262h426.51V322.502H298.736z m383.898 170.604H341.38v-127.96h341.254v127.96z" fill="#D94452" /><path d="M490.678 346.994h42.642v160.624h-42.642z" fill="#D94452" /></svg>