<?xml version="1.0" standalone="no"?><!DOCTYPE svg PUBLIC "-//W3C//DTD SVG 1.1//EN" "http://www.w3.org/Graphics/SVG/1.1/DTD/svg11.dtd"><svg class="icon" width="128px" height="128.00px" viewBox="0 0 1024 1024" version="1.1" xmlns="http://www.w3.org/2000/svg"><path d="M725.304 767.988c0 23.562-19.092 42.688-42.652 42.688H341.318c-23.562 0-42.654-19.124-42.654-42.688V42.698c0-23.562 19.092-42.686 42.654-42.686h341.334c23.56 0 42.652 19.124 42.652 42.686v725.29z" fill="#7F4545" /><path d="M746.648 959.982H277.32V298.69l469.328 127.996z" fill="#5D9CEC" /><path d="M767.992 1002.67l-21.344-85.342H277.32l-21.312 85.342h21.312c0 5.436 2.094 10.904 6.25 15.06a21.33 21.33 0 0 0 30.186 0c4.156-4.156 6.218-9.624 6.25-15.06h42.656c0 5.436 2.062 10.904 6.25 15.06 8.312 8.344 21.844 8.344 30.156 0a21.276 21.276 0 0 0 6.25-15.06h42.686c0 5.436 2.062 10.904 6.218 15.06a21.33 21.33 0 0 0 30.186 0 21.276 21.276 0 0 0 6.25-15.06h42.656c0 5.436 2.094 10.904 6.25 15.06a21.33 21.33 0 0 0 30.186 0c4.156-4.156 6.218-9.624 6.25-15.06h42.654c0 5.436 2.062 10.904 6.25 15.06 8.312 8.344 21.844 8.344 30.156 0a21.276 21.276 0 0 0 6.25-15.06h42.686c0 5.436 2.062 10.904 6.218 15.06a21.33 21.33 0 0 0 30.186 0 21.276 21.276 0 0 0 6.25-15.06h21.342z" fill="#4A89DC" /><path d="M405.316 170.694h213.336c5.468 0 10.906-2.094 15.094-6.25 8.312-8.344 8.312-21.844 0-30.188a21.42 21.42 0 0 0-15.124-6.25H405.316a21.4 21.4 0 0 0-15.092 6.25c-8.312 8.344-8.312 21.844 0 30.188a21.346 21.346 0 0 0 15.092 6.25zM618.652 256.004H405.316a21.346 21.346 0 0 0-15.092 6.25c-8.312 8.344-8.312 21.844 0 30.188a21.404 21.404 0 0 0 15.092 6.25h213.306a21.42 21.42 0 0 0 15.124-6.25c8.312-8.344 8.312-21.844 0-30.188a21.35 21.35 0 0 0-15.094-6.25z" fill="#602B2B" /><path d="M405.316 333.596l-0.032 455.768 213.368-0.032V391.782z" fill="#F5F7FA" /><path d="M490.626 356.846v304.49h0.032a21.22 21.22 0 0 0 6.25 15.094c8.312 8.31 21.844 8.31 30.156 0a21.374 21.374 0 0 0 6.25-15.468V368.5l-42.688-11.654z" fill="#434A54" /></svg>