<?xml version="1.0" standalone="no"?><!DOCTYPE svg PUBLIC "-//W3C//DTD SVG 1.1//EN" "http://www.w3.org/Graphics/SVG/1.1/DTD/svg11.dtd"><svg class="icon" width="128px" height="128.00px" viewBox="0 0 1024 1024" version="1.1" xmlns="http://www.w3.org/2000/svg"><path d="M938.406 512c0-224.418-65.208-413.422-65.208-413.422H150.77S85.594 287.582 85.594 512c0 205.056 55.246 382.878 64.74 411.986 12.148 55.652 169.392 99.686 361.674 99.686 192.236 0 349.512-44.034 361.628-99.686 9.556-29.138 64.77-206.93 64.77-411.986z" fill="#8C4C4C" /><path d="M490.678 1023.484a1212.492 1212.492 0 0 0 42.628 0V201.636h-42.628v821.848zM278.064 161.038c-1.78 7.932-43.222 195.812-43.222 350.962 0 131.728 30.042 401.18 39.85 485.626 13.834 3.53 28.544 6.744 44.066 9.62-7.058-60.244-41.288-358.708-41.288-495.246 0-150.374 41.786-339.784 42.222-341.688l-41.628-9.274zM704.37 170.312c0.438 1.904 42.222 191.19 42.222 341.688 0 136.538-34.228 434.97-41.286 495.246a699.652 699.652 0 0 0 44.034-9.62c9.806-84.51 39.852-353.898 39.852-485.626 0-155.15-41.412-343.032-43.16-350.962l-41.662 9.274z" fill="#723F3F" /><path d="M92.214 235.802zM512.008 309.442c-167.486 0-339.688-41.222-400.18-57.212a1472.652 1472.652 0 0 0-16.334 102.996c49.032 13.618 232.54 60.804 416.514 60.804 183.992 0 367.438-47.188 416.532-60.804a1470.538 1470.538 0 0 0-16.366-102.996c-60.462 16.02-232.414 57.212-400.166 57.212zM102.646 718.836a1516.216 1516.216 0 0 0 22.704 114.708c74.546 19.426 235.442 51.532 386.658 51.532 151.2 0 312.036-32.106 386.614-51.532 7.682-32.072 15.8-71.016 22.734-114.708-50.094 13.648-232.164 59.682-409.348 59.682-177.2 0-359.238-46.034-409.362-59.682z" fill="#E6E9ED" /><path d="M874.45 106.916c0 58.868-162.274 106.588-362.442 106.588-200.184 0-362.456-47.72-362.456-106.588 0-58.87 162.272-106.588 362.456-106.588 200.168 0 362.442 47.718 362.442 106.588z" fill="#A85D5D" /><path d="M362.76 106.916c0 11.774-9.556 21.33-21.33 21.33s-21.298-9.556-21.298-21.33 9.526-21.33 21.298-21.33 21.33 9.556 21.33 21.33z" fill="#434A54" /></svg>