<?xml version="1.0" standalone="no"?><!DOCTYPE svg PUBLIC "-//W3C//DTD SVG 1.1//EN" "http://www.w3.org/Graphics/SVG/1.1/DTD/svg11.dtd"><svg class="icon" width="128px" height="128.00px" viewBox="0 0 1024 1024" version="1.1" xmlns="http://www.w3.org/2000/svg"><path d="M149.338 618.652H128.01v-149.308c0-11.782-9.546-21.344-21.328-21.344-11.78 0-21.342 9.562-21.342 21.344v149.308H64.012c-11.78 0-21.328 9.562-21.328 21.344s9.546 21.344 21.328 21.344h85.326c11.78 0 21.342-9.562 21.342-21.344s-9.562-21.344-21.342-21.344zM789.302 618.652h-21.31v-149.308c0-11.782-9.562-21.344-21.31-21.344-11.812 0-21.376 9.562-21.376 21.344v149.308h-21.31c-11.782 0-21.312 9.562-21.312 21.344s9.532 21.344 21.312 21.344h85.306c11.812 0 21.376-9.562 21.376-21.344s-9.562-21.344-21.376-21.344z" fill="#434A54" /><path d="M959.986 703.996h-106.684l-42.624 234.648h191.996z" fill="#ED5564" /><path d="M703.996 831.118c0 35.808-124.186 64.872-277.322 64.872-153.168 0-277.336-29.062-277.336-64.872 0-35.844 124.168-64.906 277.336-64.906 153.136-0.002 277.322 29.062 277.322 64.906z" fill="#656D78" /><path d="M426.674 917.332c-75.668 0-147.042-6.968-200.962-19.562-65.75-15.406-97.7-37.188-97.7-66.652 0-29.468 31.952-51.282 97.7-66.652 53.92-12.624 125.294-19.562 200.962-19.562 75.654 0 147.012 6.938 200.948 19.562 65.75 15.372 97.686 37.184 97.686 66.652 0 29.464-31.936 51.246-97.686 66.652-53.936 12.594-125.294 19.562-200.948 19.562zM171.852 831.118c5.578 5.562 25.452 17.282 74.686 27.558 49.436 10.312 113.404 15.968 180.136 15.968 66.716 0 130.702-5.656 180.134-15.968 49.25-10.278 69.094-21.996 74.688-27.558-5.594-5.562-25.438-17.312-74.688-27.562-49.434-10.312-113.418-16-180.134-16-66.732 0-130.7 5.688-180.136 16-49.234 10.248-69.108 21.998-74.686 27.562z" fill="#434A54" /><path d="M810.678 938.644h191.996l-15.532-85.312h-160.964z" fill="#CCD1D9" /><path d="M853.302 490.658H0.014V64.012h853.29v426.646z" fill="#ED5564" /><path d="M760.868 64.012H519.516L92.856 490.658h241.352zM575.56 490.658h277.742V212.914zM277.772 64.012H0.014v277.776z" fill="#E6E9ED" /><path d="M971.612 767.992l-11.626-63.996h-106.684l-11.624 63.996z" fill="#CCD1D9" /><path d="M1002.674 959.988h-191.996c-11.812 0-21.376-9.562-21.376-21.344s9.562-21.312 21.376-21.312h191.996c11.75 0 21.312 9.532 21.312 21.312s-9.562 21.344-21.312 21.344z" fill="#E6E9ED" /></svg>