<?xml version="1.0" standalone="no"?><!DOCTYPE svg PUBLIC "-//W3C//DTD SVG 1.1//EN" "http://www.w3.org/Graphics/SVG/1.1/DTD/svg11.dtd"><svg class="icon" width="128px" height="128.00px" viewBox="0 0 1024 1024" version="1.1" xmlns="http://www.w3.org/2000/svg"><path d="M897.49 772.714l-3.624-1.062c-52.966-14.188-70.874-27.844-94.434-36.812-83.594-31.874-126.684-54.81-132.246-65.652-0.188-0.406-0.344-0.812-0.5-1.218l-0.688-97.092-176.934-2.25-176.934 2.25-0.688 97.092c-0.172 0.406-0.328 0.812-0.532 1.218-5.562 10.842-48.654 33.78-132.246 65.652-23.562 8.968-41.468 22.624-94.404 36.812l-3.624 1.062C32.45 788.652 0.012 833.338 0.012 883.772v140.214H978.08v-140.214c0.002-50.434-32.402-95.12-80.59-111.058z" fill="#E6E9ED" /><path d="M764.15 382.976c0 178.744-170.402 343.238-275.086 343.238-104.716 0-275.12-164.494-275.12-343.238 0-178.746 123.186-296.648 275.12-296.648s275.086 117.904 275.086 296.648z" fill="#EAC6BB" /><path d="M659.248 56.83c-46.812-42.374-209.308-103.248-360.054 0-118.872 81.434-106.872 286.742-106.872 286.742s155.994 39.406 334.648-62.654c115.496-65.998 155.744 1.124 176.432 59.56 20.154 56.874 60.748 42.5 60.748 42.5s44.782-190.622-104.902-326.148z" fill="#965353" /><path d="M607.592 253.666c16.344-0.5 30.032 3.094 41.624 9.5 22.188-80.498 65.902-102.154 84.964-107.872a332.93 332.93 0 0 0-21.81-37.436c-31.186 12.282-80.496 45.656-104.778 135.808z" fill="#7F4242" /><path d="M512 875.118c0 11.782-9.546 21.344-21.326 21.344-11.782 0-21.344-9.562-21.344-21.344 0-11.78 9.562-21.342 21.344-21.342 11.78 0 21.326 9.562 21.326 21.342zM512 959.992c0 11.782-9.546 21.342-21.326 21.342-11.782 0-21.344-9.56-21.344-21.342s9.562-21.344 21.344-21.344c11.78 0 21.326 9.562 21.326 21.344zM293.568 683.436c-20.404 12.406-58.374 29.844-114.902 51.404-0.376 0.156-0.766 0.282-1.14 0.438-4.812 49.25-13.532 169.214 0.406 288.71h199.416c-47.216-194.93-43.624-350.676-43.624-350.676l-40.156 10.124zM684.434 683.436c20.376 12.406 58.374 29.844 114.874 51.404 0.406 0.156 0.782 0.282 1.188 0.438 4.782 49.25 13.5 169.214-0.438 288.71h-199.402c47.218-194.93 43.624-350.676 43.624-350.676l40.154 10.124z" fill="#434A54" /><path d="M671.248 635.876c-37.312-6.062-182.2 59.966-182.2 59.966s-136.638-74.936-182.184-59.936c-45.544 14.968-37.28 203.776 0 209.838 37.296 6.062 182.184-59.966 182.184-59.966s136.636 74.936 182.2 59.936c45.558-15 37.28-203.808 0-209.838z" fill="#DA4453" /><path d="M556 726.622c0 38.5-29.982 83.906-66.952 83.906s-66.938-45.406-66.938-83.906c0-38.53 29.968-55.558 66.938-55.558S556 688.092 556 726.622z" fill="#ED5564" /><path d="M1023.986 1023.988H767.994V726.214L831.992 640v-127.996h127.998V640l63.996 86.214z" fill="#FC6E51" /><path d="M767.994 767.996h255.992v170.652H767.994z" fill="#656D78" /><path d="M959.99 554.658h-127.998a21.298 21.298 0 0 1-21.31-21.312c0-11.81 9.532-21.34 21.31-21.34h127.998c11.78 0 21.31 9.53 21.31 21.34 0 11.78-9.53 21.312-21.31 21.312z" fill="#E9573F" /><path d="M938.678 874.648h-85.374c-11.75 0-21.312-9.53-21.312-21.31 0-11.812 9.562-21.344 21.312-21.344h85.374c11.75 0 21.312 9.532 21.312 21.344 0 11.782-9.562 21.31-21.312 21.31z" fill="#E6E9ED" /><path d="M764.15 382.976c0 178.744-170.402 343.238-275.086 343.238-104.716 0-275.12-164.494-275.12-343.238 0-178.746 123.186-296.648 275.12-296.648s275.086 117.904 275.086 296.648z" fill="#EAC6BB" /><path d="M659.248 56.83c-46.812-42.374-209.308-103.248-360.054 0-118.872 81.434-106.872 286.742-106.872 286.742s155.994 39.406 334.648-62.654c115.496-65.998 155.744 1.124 176.432 59.56 20.154 56.874 60.748 42.5 60.748 42.5s44.782-190.622-104.902-326.148z" fill="#965353" /><path d="M607.592 253.666c16.344-0.5 30.032 3.094 41.624 9.5 22.188-80.498 65.902-102.154 84.964-107.872a332.93 332.93 0 0 0-21.81-37.436c-31.186 12.282-80.496 45.656-104.778 135.808z" fill="#7F4242" /></svg>