<?xml version="1.0" standalone="no"?><!DOCTYPE svg PUBLIC "-//W3C//DTD SVG 1.1//EN" "http://www.w3.org/Graphics/SVG/1.1/DTD/svg11.dtd"><svg class="icon" width="128px" height="128.00px" viewBox="0 0 1024 1024" version="1.1" xmlns="http://www.w3.org/2000/svg"><path d="M857.854 466.97s-47.998-123.994-50.654-127.994c-2.656-3.998-37.34-95.994-39.996-99.994s-34.656-33.342-40-34.654c-5.344-1.344-41.34-46.498-41.34-46.498l-24.532-36.186-75.464-70.652h-52.012l-34.686 106.838-18.624 203.802-10.906 70.778L376.894 512l-33.436-8.438-96.244-401.916-39.998 33.466-26.842 47.874S153.876 421.628 149.876 438.972c-4 17.342 55.998 357.324 55.998 357.324l62.372 106.056 158.428 85.934h149.506l195.024-174.678 94.648-181.992-7.998-164.646z" fill="#FC6E51" /><path d="M501.232 252.952l-4.438-42.436-54.934 5.75 1.876-57.06 79.714-10.03-5.344-42.342-72.996 9.186 2.968-90.494-42.654-1.406-3.156 97.276-29.874 3.782-2.968-81.558-42.624 1.562 3.094 85.34-72.402 9.094 5.312 42.342 68.622-8.624 2 54.278-67.434 7.062 4.436 42.436 64.56-6.782 1.562 43.03-39.874 4.282 4.562 42.436 36.874-3.968 6.062 166.958 42.622-1.56-6.186-169.992 14.186-1.532-4.968 152.96 42.654 1.376 5.186-158.93 41.78-4.532-4.562-42.402-35.842 3.842 1.406-42.964 60.78-6.38z m-127.306-84.966l26.936-3.406-1.812 56.154-23.092 2.438-2.032-55.186z m22.312 138.93l-17.186 1.844-1.562-42.874 20.124-2.094-1.376 43.124z" fill="#434A54" /><path d="M862.728 386.194c-6.75-20.966-14.25-39.716-21.498-55.434 0-0.032 0-0.062-0.032-0.062-9.468-20.532-18.562-35.874-25-44.28-2.938-9.062-10.562-30.966-22.282-53.966-20.154-39.498-42.996-63.746-67.996-72.246-0.156-0.062-0.312-0.124-0.468-0.156a64.286 64.286 0 0 0-6.562-1.812c-2.716-0.594-5.31-7.688-8.654-17.624-7.25-21.406-19.342-57.154-69.714-63.936-1.718-1.654-4.688-5.998-6.938-9.248-11.404-16.656-30.53-44.56-79.778-44.56h-2.374a21.006 21.006 0 0 0-4.56-2.906c-0.032-0.032-0.032-0.032-0.062-0.032-6.11-5.312-15.36-13.344-34.11-17.656-8.218-1.874-19.78-2.248-28.03-2.248-18.874 0-69.464 2.186-132.274 22.716-64.872 21.186-121.274 54.652-167.584 99.462-16.312 15.75-28.124 44.186-36.092 86.964-5.844 31.216-9.656 70.372-11.406 116.37-2.938 77.558 1 147.18 1.188 150.086 0 0.406 0.062 0.812 0.094 1.218 3.406 29.31 34.092 288.046 66.278 351.98 29.56 58.686 112.244 111.4 146.368 131.37 52.84 30.81 126.774 63.746 175.866 63.778 13.312 0 24.544-2.5 33.388-7.376 103.932-57.496 184.428-125.586 239.268-202.394 46.218-64.714 74.59-135.932 84.278-211.678 11.34-88.712-5.316-166.614-21.314-216.33zM365.644 63.304c56.966-18.624 102.214-20.624 119.026-20.624 10.436 0 16.562 0.75 18.5 1.188 5.812 1.344 9 2.968 11.874 5.124-4.312 34.31-17.936 135.588-39.78 234.738-38.904 176.896-77.152 223.614-94.4 223.614h-0.032c-2.594-1.812-14.844-12.906-32.968-67.872-11.936-36.31-24.248-84.934-36.56-144.524-16.874-81.684-29.124-161.836-33.404-191.24 26.842-16.562 56.152-30.09 87.744-40.404zM839.356 613.12c-11.062 65.964-38.156 128.12-80.496 184.772-50.904 68.122-124.62 129.148-219.036 181.366-0.876 0.468-4.344 2.032-12.718 2.032-32.936 0-94.932-23.28-154.336-57.936-64.34-37.558-112.838-80.056-129.774-113.71-24.312-48.28-52.872-259.05-61.934-337.076-0.376-6.938-3.844-73.59-1.124-145.43 5-132.026 25.812-165.868 34.498-174.274 7.844-7.56 16-14.78 24.436-21.624 6.188 40.31 17.78 111.37 32.716 182.24 13.344 63.34 26.78 114.306 39.874 151.43 20.03 56.748 39.092 82.122 63.778 84.778a54 54 0 0 0 5.876 0.344c17.28 0 33.624-8.406 48.654-25.062 12.53-13.842 24.218-33.374 35.716-59.652 18.092-41.404 35.436-99.494 51.528-172.678 20.094-91.434 33.358-184.522 38.92-227.082 25.06 0.594 32.78 11.842 42.466 25.998 2.876 4.218 6.032 8.812 9.844 13.032l-66.168 363.2c-2.124 11.594 5.578 22.716 17.17 24.81 1.282 0.25 2.562 0.376 3.844 0.376 10.124 0 19.092-7.218 20.966-17.53l64.278-352.858c12.688 5.718 16.438 16.75 21.5 31.716 4.376 12.968 10 29.594 24.5 39.216L619.18 538.686c-2.5 11.5 4.78 22.874 16.31 25.374 1.5 0.344 3.032 0.5 4.532 0.5 9.842 0 18.654-6.812 20.842-16.78l72.122-331.264c7.594 8.686 15.312 20.466 22.656 34.81 13.344 26.03 20.966 51.372 21.03 51.622a21.6 21.6 0 0 0 5.5 9.124c1.718 1.938 4.906 6.75 9 14.062-16.688 12.154-30.154 35.592-41.154 71.496-14.624 47.78-24.5 117.806-29.406 208.082-0.624 11.75 8.406 21.81 20.156 22.436 0.406 0.032 0.782 0.032 1.188 0.032 11.25 0 20.656-8.81 21.282-20.186 5.188-95.744 15.874-166.522 31.746-210.394 5.782-15.938 11.188-25.31 15.344-30.748 22.184 54.934 45.994 145.116 29.028 246.268z" fill="#E9573F" /><path d="M632.708 454.94c-66.558-66.528-174.85-66.528-241.378 0-66.528 66.53-66.528 174.802 0 241.364 66.528 66.528 174.82 66.528 241.378 0 66.528-66.562 66.528-174.836 0-241.364z" fill="#E6E9ED" /><path d="M466.984 530.56c-40.28 40.28-79.746 64.436-105.806 77.622a348.196 348.196 0 0 1-15.062 7.218 167.94 167.94 0 0 0 15.032 39.998c33.092-14.468 84.088-42.748 135.992-94.652 51.92-51.902 80.198-102.9 94.666-135.992a168.708 168.708 0 0 0-39.998-15.03c-13.016 29.154-38.452 74.466-84.824 120.836zM677.988 536.124a169.58 169.58 0 0 0-14.968-40.06c-33.092 14.5-84.058 42.78-135.914 94.622-51.874 51.872-80.184 102.838-94.652 135.93a169.298 169.298 0 0 0 40.03 14.968c13.03-29.156 38.466-74.402 84.792-120.712 40.248-40.28 79.746-64.436 105.776-77.622a320.13 320.13 0 0 1 14.936-7.126z" fill="#CCD1D9" /></svg>