<?xml version="1.0" standalone="no"?><!DOCTYPE svg PUBLIC "-//W3C//DTD SVG 1.1//EN" "http://www.w3.org/Graphics/SVG/1.1/DTD/svg11.dtd"><svg class="icon" width="128px" height="128.00px" viewBox="0 0 1024 1024" version="1.1" xmlns="http://www.w3.org/2000/svg"><path d="M922.442 656.308c-20.124-20.124-46.904-31.218-75.37-31.218-28.468 0-55.25 11.094-75.402 31.218-20.124 20.186-31.218 46.934-31.218 75.434 0 28.436 11.094 55.246 31.218 75.372 20.152 20.124 46.934 31.186 75.402 31.186 28.464 0 55.246-11.062 75.37-31.186 41.56-41.562 41.56-109.244 0-150.806z" fill="#E6E9ED" /><path d="M861.914 746.554c-8.344 8.31-21.842 8.31-30.154 0-8.344-8.312-8.344-21.812 0-30.124 8.312-8.376 21.81-8.376 30.154 0 8.31 8.312 8.31 21.812 0 30.124zM907.13 701.304c-8.312 8.376-21.812 8.376-30.156 0-8.312-8.31-8.312-21.81 0-30.122 8.344-8.312 21.844-8.312 30.156 0 8.344 8.312 8.344 21.812 0 30.122zM816.666 791.8c-8.312 8.312-21.812 8.312-30.154 0-8.312-8.312-8.312-21.876 0-30.186 8.342-8.312 21.842-8.312 30.154 0 8.344 8.312 8.344 21.874 0 30.186z" fill="#CCD1D9" /><path d="M986.502 37.512c-49.966-49.966-130.962-49.966-180.93 0-4.376 4.39-784.224 874.658-784.224 874.658l90.464 90.494 874.69-784.24c49.964-49.95 49.964-130.946 0-180.912z" fill="#FFD2A6" /><path d="M200.932 922.606l183.912-165.24V507.378a516250.78 516250.78 0 0 0-183.912 204.8v210.428z" fill="#CCD1D9" /><path d="M185.762 936.23l42.638-38.308V681.556a198030.36 198030.36 0 0 0-42.638 47.498v207.176zM271.052 859.61l42.638-38.308V586.594c-14.436 16.06-28.686 31.936-42.638 47.464v225.552zM356.33 782.988l42.654-38.308V491.628c-14.282 15.906-28.514 31.748-42.654 47.498v243.862z" fill="#E6E9ED" /><path d="M96.734 1017.726L6.272 927.292c-8.328-8.376-8.328-21.874 0-30.184 8.326-8.312 21.826-8.312 30.154 0l90.462 90.494c8.328 8.31 8.328 21.81 0 30.124-8.326 8.314-21.826 8.314-30.154 0z" fill="#F4BE8E" /></svg>