<?xml version="1.0" standalone="no"?><!DOCTYPE svg PUBLIC "-//W3C//DTD SVG 1.1//EN" "http://www.w3.org/Graphics/SVG/1.1/DTD/svg11.dtd"><svg class="icon" width="128px" height="128.00px" viewBox="0 0 1024 1024" version="1.1" xmlns="http://www.w3.org/2000/svg"><path d="M895.454 203.736a180.268 180.268 0 0 0-4.812-5c-28.808-28.81-77.778-44.686-137.836-44.686-89.402 0-187.208 34.904-268.314 95.714-100.214 75.122-172.584 186.928-209.24 323.294-32.592 121.214-102.9 216.364-156.148 274.828-58.154 63.906-109.276 99.246-109.776 99.59-6.594 4.532-10.124 12.344-9.124 20.282s6.344 14.656 13.874 17.376c51.56 18.778 104.276 28.308 156.618 28.308 76.028 0 153.554-20.062 230.424-59.622 53.936-27.782 108.558-65.714 163.072-113.18-3.188 8.028-6.188 15.746-8.688 23.152a21.34 21.34 0 0 0 6.656 23.376 21.428 21.428 0 0 0 24.246 1.968c108.09-62.652 195.118-138.554 258.582-225.644 54.996-75.464 90.308-157.428 102.054-236.988 13.594-91.932-5.218-173.116-51.588-222.768z" fill="#FC6E51" /><path d="M873.328 206.204a136.926 136.926 0 0 0-0.5-6.032c-1.624-14.968-12.028-19.062-16.402-20.156-8.718-2.124-18.594-3.218-29.344-3.218-46.872 0-102.934 19.966-149.992 53.372-60.402 42.904-105.246 106.12-129.648 182.834-38.482 120.902-96.792 248.894-97.386 250.174a21.332 21.332 0 0 0 2.876 22.376 21.328 21.328 0 0 0 16.53 7.844c1.594 0 3.188-0.188 4.812-0.562 83.918-19.376 156.446-51.468 215.472-95.34 49.808-37 90.496-82.684 120.898-135.774 56.278-98.212 62.902-197.272 63.152-235.332 0.064-9.25-0.218-16.092-0.468-20.186z" fill="#FFCE54" /><path d="M893.11 52.43C849.082 25.026 798.52 10.558 746.868 10.558c-46.278 0-92.246 11.688-132.898 33.78-41.97 22.78-77.512 56.372-102.886 97.15-80.746 129.9-40.81 301.266 89.072 382.042 44.058 27.402 94.622 41.872 146.242 41.872 46.308 0 92.278-11.688 132.93-33.778 41.938-22.812 77.528-56.404 102.872-97.182 80.776-129.868 40.808-301.266-89.09-382.012z" fill="#E6E9ED" /><path d="M753.492 10.652c-7.876 51.28-29.188 135.244-86.652 227.676-48.59 78.122-103.18 129.836-140.382 159.43a503.874 503.874 0 0 1-25.404 18.998 279.228 279.228 0 0 0 22.686 36.31c46.262-32.03 117.23-92.338 179.32-192.176 62.122-99.87 84.808-190.24 93.054-245.894a272.7 272.7 0 0 0-42.622-4.344zM967.262 178.456a530.464 530.464 0 0 1 25.188-18.842 276.532 276.532 0 0 0-22.624-36.374c-46.278 32.06-117.148 92.37-179.176 192.084-62.032 99.776-84.746 190.052-93.028 245.704a273.714 273.714 0 0 0 42.622 4.282 487.386 487.386 0 0 1 5.75-31.028c10.094-46.468 32.312-118.276 80.902-196.398 48.558-78.12 103.15-129.836 140.366-159.428z" fill="#CCD1D9" /></svg>