<?xml version="1.0" standalone="no"?><!DOCTYPE svg PUBLIC "-//W3C//DTD SVG 1.1//EN" "http://www.w3.org/Graphics/SVG/1.1/DTD/svg11.dtd"><svg class="icon" width="128px" height="128.00px" viewBox="0 0 1024 1024" version="1.1" xmlns="http://www.w3.org/2000/svg"><path d="M822.897994 328.566014c-115.215998-81.029998-76.997998-301.179994-76.591999-303.399994a21.292 21.292 0 0 0-4.623999-17.468 21.232 21.232 0 0 0-16.376-7.686h-63.997999c-10.468 0-19.404 7.656-21.06 18-0.282 1.718-29.061999 173.993997-128.247997 173.993996-99.215998 0-127.995998-172.277997-128.277997-173.995996-1.656-10.344-10.594-18-21.062-18h-63.997999a21.232 21.232 0 0 0-16.376 7.686 21.286 21.286 0 0 0-4.623999 17.468c0.406 2.218 38.903999 222.181996-76.591999 303.399994-5.688 4-9.062 10.5-9.062 17.437999v656.671987a21.3 21.3 0 0 0 21.312 21.312h597.329988c11.78 0 21.342-9.532 21.342-21.312V346.004013a21.34 21.34 0 0 0-9.094-17.437999z" fill="#FC6E51" /><path d="M192.008006 959.988001v42.687999h85.309999c0 11.782 9.562 21.312 21.343999 21.312 11.78 0 21.342-9.532 21.342-21.312h42.655999c0 11.782 9.532 21.312 21.343999 21.312 11.78 0 21.31-9.532 21.31-21.312h42.687999a21.3 21.3 0 0 0 21.312 21.312c11.78 0 21.342-9.532 21.341999-21.312h42.654c0 11.782 9.562 21.312 21.343999 21.312s21.344-9.532 21.344-21.312h42.655999a21.3 21.3 0 0 0 21.312 21.312c11.78 0 21.342-9.532 21.341999-21.312h42.685999c0 11.782 9.532 21.312 21.312 21.312s21.344-9.532 21.343999-21.312h85.341999v-42.687999H192.008006z" fill="#E9573F" /><path d="M405.314002 789.336005c-11.782 0-21.31-9.532-21.31-21.342V469.344011c0-11.782 9.53-21.342 21.31-21.342s21.344 9.562 21.344 21.342v298.649994c0 11.81-9.562 21.342-21.344 21.342zM575.997999 789.336005h-42.687999c-35.279999 0-63.995999-28.715999-63.995999-63.995999V512.00001c0-35.281999 28.715999-63.999999 63.995999-63.999999h42.687999c35.281999 0 63.999999 28.717999 63.999999 63.999999v213.339996c0 35.279999-28.717999 63.995999-63.999999 63.995999z m-42.687999-298.647995C521.56 490.68801 512 500.25001 512 512.00001v213.339996c0 11.78 9.56 21.342 21.31 21.341999h42.687999c11.75 0 21.312-9.562 21.311999-21.341999V512.00001c0-11.75-9.562-21.312-21.311999-21.312h-42.687999z" fill="#434A54" /><path d="M822.897994 328.566014c-115.215998-81.029998-76.997998-301.179994-76.591999-303.399994a21.292 21.292 0 0 0-4.623999-17.468 21.232 21.232 0 0 0-16.376-7.686h-42.653999c6.31 0 12.31 2.812 16.373999 7.686a21.166 21.166 0 0 1 4.594 17.468c-0.376 2.218-38.591999 222.369996 76.623999 303.399994 5.688 4 9.062 10.5 9.062 17.437999v656.671987c0 11.782-9.562 21.312-21.312 21.312h42.655999c11.78 0 21.342-9.532 21.342-21.312V346.004013a21.34 21.34 0 0 0-9.094-17.437999z" fill="#FFFFFF" opacity=".2" /></svg>