<?xml version="1.0" standalone="no"?><!DOCTYPE svg PUBLIC "-//W3C//DTD SVG 1.1//EN" "http://www.w3.org/Graphics/SVG/1.1/DTD/svg11.dtd"><svg class="icon" width="128px" height="128.00px" viewBox="0 0 1024 1024" version="1.1" xmlns="http://www.w3.org/2000/svg"><path d="M703.994 896H320.004c-11.782 0-21.342-9.562-21.342-21.312 0-11.812 9.562-21.376 21.342-21.376h383.99c11.782 0 21.344 9.562 21.344 21.376 0 11.75-9.562 21.312-21.344 21.312z" fill="#CCD1D9" /><path d="M320.004 981.308c-11.782 0-21.342-9.5-21.342-21.312V746.692c0-11.812 9.562-21.376 21.342-21.376s21.344 9.562 21.344 21.376v213.304c0 11.812-9.562 21.312-21.344 21.312zM448 981.308c-11.782 0-21.342-9.5-21.342-21.312V746.692c0-11.812 9.562-21.376 21.342-21.376s21.344 9.562 21.344 21.376v213.304c0 11.812-9.562 21.312-21.344 21.312zM575.998 981.308c-11.782 0-21.344-9.5-21.344-21.312V746.692c0-11.812 9.562-21.376 21.344-21.376s21.344 9.562 21.344 21.376v213.304c0 11.812-9.562 21.312-21.344 21.312zM703.994 981.308c-11.782 0-21.342-9.5-21.342-21.312V746.692c0-11.812 9.56-21.376 21.342-21.376s21.344 9.562 21.344 21.376v213.304c0 11.812-9.562 21.312-21.344 21.312z" fill="#E6E9ED" /><path d="M1014.488 216.936L758.494 46.284a21.286 21.286 0 0 0-11.844-3.594H277.348c-4.218 0-8.344 1.25-11.844 3.594L9.51 216.936a21.31 21.31 0 0 0-9.5 17.75v341.322c0 8.062 4.562 15.438 11.78 19.062l255.994 127.996a21.19 21.19 0 0 0 9.562 2.25h469.302c3.312 0 6.594-0.75 9.562-2.25l255.994-127.996a21.344 21.344 0 0 0 11.782-19.062V234.686a21.306 21.306 0 0 0-9.498-17.75z" fill="#A0D468" /><path d="M703.994 725.316H320.004c-11.782 0-21.342-9.5-21.342-21.312v-341.32c0-11.782 9.562-21.342 21.342-21.342h383.99c11.782 0 21.344 9.562 21.344 21.342v341.32c0 11.812-9.562 21.312-21.344 21.312z m-362.646-42.624h341.304V384.026H341.348v298.666z" fill="#8CC153" /><path d="M746.65 661.316H277.348c-23.562 0-42.686 19.124-42.686 42.688s19.124 42.688 42.686 42.688h469.302c23.562 0 42.688-19.124 42.688-42.688s-19.126-42.688-42.688-42.688z" fill="#656D78" /><path d="M597.342 128.032c-117.624 0-213.338 95.81-213.338 213.59 0 117.778 95.716 213.574 213.338 213.574S810.65 459.4 810.65 341.622c0-117.78-95.688-213.59-213.308-213.59z" fill="#FC6E51" /><path d="M797.838 414.588c-41.5-21.25-87.312-32.282-136.216-32.782h-0.718c0.188-25.156-1.75-50.904-5.75-77.06 48.03-10.562 91.998-31.906 130.374-63.624a212.04 212.04 0 0 0-23.844-35.532c-0.344 0.25-0.688 0.468-1 0.75-33.468 28.25-71.688 47.282-113.654 56.624-0.124-0.562-0.25-1.156-0.376-1.75-15.342-64.624-38.686-113.466-49.03-133.186h-0.282c-15.218 0-30.062 1.594-44.376 4.656a21.132 21.132 0 0 0 2.624 7.376c0.312 0.532 30.812 53.374 49.062 129.028-22.938 1.624-46.782 0.688-71.312-2.812-65.622-9.374-114.464-34.186-117.996-36a213.728 213.728 0 0 0-18.532 38.436c9.938 5.062 60.624 29.562 129.028 39.562 19.25 2.812 38.094 4.218 56.532 4.218 10.344 0 20.532-0.438 30.594-1.312 3.812 24.812 5.562 49.156 5.25 72.842-25.688 2.812-52 8.282-78.688 16.438-70.84 21.624-119.558 54.28-121.622 55.656-0.124 0.094-0.25 0.218-0.376 0.312a214.18 214.18 0 0 0 26.53 33.592c9.968-6.344 52.186-31.906 109.06-49.092 21.094-6.374 41.876-10.936 62.156-13.592-5.312 42.03-17.624 81.592-36.812 117.918a21.234 21.234 0 0 0-2.438 8.876c7.032 0.688 14.124 1.062 21.312 1.062 8.312 0 16.532-0.5 24.594-1.438 19.5-40.108 31.78-83.452 36.624-129.294h3.282c42.342 0.562 81.842 10.156 117.436 28.53a212.05 212.05 0 0 0 18.564-38.402z" fill="#E9573F" /></svg>