<?xml version="1.0" standalone="no"?><!DOCTYPE svg PUBLIC "-//W3C//DTD SVG 1.1//EN" "http://www.w3.org/Graphics/SVG/1.1/DTD/svg11.dtd"><svg class="icon" width="128px" height="128.00px" viewBox="0 0 1024 1024" version="1.1" xmlns="http://www.w3.org/2000/svg"><path d="M983.716787 312.733892c-25.781496-60.962809-62.682776-115.70974-109.681858-162.722822-47.027082-47.011082-101.802012-83.914361-162.736822-109.711857C648.17734 13.599734 581.12065 0.053999 512 0.053999c-69.10465 0-136.161341 13.545735-199.282108 40.247214-60.964809 25.795496-115.72574 62.700775-162.738821 109.711857-46.997082 47.011082-83.916361 101.758013-109.695858 162.722822C13.583735 375.868659 0.037999 442.911349 0.037999 512.018c0 69.12065 13.545735 136.17734 40.247214 199.296107 25.779496 60.962809 62.698775 115.70974 109.695858 162.738822 47.011082 46.995082 101.774012 83.900361 162.738821 109.679857C375.838659 1010.448265 442.89535 1023.98 512 1023.98c69.12065 0 136.17734-13.531736 199.298107-40.247214 60.93481-25.779496 115.70974-62.684776 162.736822-109.679857 46.999082-47.029081 83.900361-101.776012 109.681858-162.738822 26.685479-63.120767 40.245214-130.177457 40.245214-199.296107 0-69.10665-13.559735-136.149341-40.245214-199.284108z" fill="#FC6E51" /><path d="M737.859589 680.192715c57.650874-12.685752 112.835796-30.373407 164.050796-52.622972 59.306842-25.747497 99.30406-51.494994 119.677662-65.994711a521.005824 521.005824 0 0 0 2.375954-49.511033c-4.999902-0.093998-10.059804 1.51397-14.185723 4.983902-0.437991 0.359993-43.935142 36.527287-126.709525 72.21259-42.777165 18.43564-101.274022 38.839241-174.0806 53.24496 12.591754-74.494545 47.529072-128.583489 86.742305-189.252304 43.811144-67.776676 93.120181-144.193184 115.74374-261.434893a516.895904 516.895904 0 0 0-32.437367-36.653285 21.119588 21.119588 0 0 0-6.467873 12.093764c-19.46562 118.569684-66.838695 191.908252-112.6778 262.824867-42.749165 66.150708-83.46237 129.177477-95.21214 220.045702-40.153216 6.031882-83.994359 10.061803-131.349435 10.999785V0.50599A510.550028 510.550028 0 0 0 512 0.053999c-7.139861 0-14.249722 0.155997-21.325583 0.453991v660.625097c-47.779067-0.967981-91.994203-5.031902-132.459413-11.123782-11.687772-90.838226-52.166981-153.864995-94.664151-219.983704-45.55911-70.900615-92.68019-144.223183-112.117811-262.762868a21.139587 21.139587 0 0 0-6.483873-12.093764 516.865905 516.865905 0 0 0-32.435367 36.653284c22.577559 117.147712 71.620601 193.53422 115.147751 261.278897 38.981239 60.652815 73.698561 114.757759 86.258316 189.158306-72.322587-14.375719-130.475452-34.685323-173.06662-52.994965-82.790383-35.687303-126.333533-71.854597-126.771524-72.21259a21.133587 21.133587 0 0 0-14.045726-4.999902c0 16.669674 0.795984 33.215351 2.359954 49.589031 20.419601 14.561716 60.43282 40.247214 119.647663 65.932713 51.215 22.249565 106.413922 39.93722 164.098795 52.622972a980.172856 980.172856 0 0 0 32.387368 6.499873c0.249995 5.687889 0.389992 11.437777 0.389992 17.309662-0.016 48.185059-24.935513 91.400215-74.072553 128.49149-38.623246 29.18543-78.150474 43.247155-78.510467 43.373153a21.099588 21.099588 0 0 0-8.66983 5.687889 523.069784 523.069784 0 0 0 34.26333 30.059413c16.107685-6.749868 46.777086-21.185586 77.650484-44.309135 60.166825-45.121119 91.994203-101.554017 91.994203-163.30081 0.016-3.499932-0.045999-6.935865-0.123998-10.341798 42.137177 5.903885 85.336333 9.279819 129.225476 10.123802v319.759755c7.073862 0.305994 14.183723 0.429992 21.323584 0.429991 7.139861 0 14.249722-0.123998 21.327583-0.437991V703.782254c43.51115-0.811984 86.354313-4.155919 128.099499-9.965805-0.061999 3.375934-0.123998 6.747868-0.123998 10.185801 0.031999 61.746794 32.061374 118.243691 92.620191 163.33281 31.059393 23.093549 61.93279 37.529267 78.120474 44.279135a526.281721 526.281721 0 0 0 34.30733-30.059413 21.259585 21.259585 0 0 0-8.68583-5.687889c-0.405992-0.155997-40.215215-14.217722-79.120455-43.403152-49.465034-37.091276-74.556544-80.338431-74.556544-128.459491 0-5.809887 0.123998-11.497775 0.375993-17.123666 11.24778-2.06396 22.431562-4.251917 33.495346-6.687869z" fill="#E9573F" /><path d="M983.716787 312.733892c-25.781496-60.962809-62.682776-115.70974-109.681858-162.722822-47.027082-47.011082-101.802012-83.914361-162.736822-109.711857C648.17734 13.599734 581.12065 0.053999 512 0.053999c-7.139861 0-14.249722 0.155997-21.325583 0.453991 61.572797 2.499951 121.31963 15.85769 177.940524 39.793223 60.994809 25.795496 115.741739 62.700775 162.738822 109.711857 46.995082 47.011082 83.932361 101.758013 109.707857 162.722822 26.717478 63.134767 40.217215 130.177457 40.217214 199.284108 0 69.12065-13.499736 136.17734-40.217214 199.296107-25.777497 60.962809-62.712775 115.70974-109.707857 162.738822-46.997082 46.995082-101.744013 83.900361-162.738822 109.679857-56.620894 23.965532-116.367727 37.309271-177.940524 39.809223 7.075862 0.311994 14.185723 0.435991 21.325583 0.435991 69.12065 0 136.17734-13.531736 199.298107-40.247214 60.93481-25.779496 115.70974-62.684776 162.736822-109.679857 46.999082-47.029081 83.900361-101.776012 109.681858-162.738822 26.685479-63.120767 40.245214-130.177457 40.245214-199.296107 0-69.10665-13.559735-136.149341-40.245214-199.284108z" fill="#FFFFFF" opacity=".2" /></svg>