<?xml version="1.0" standalone="no"?><!DOCTYPE svg PUBLIC "-//W3C//DTD SVG 1.1//EN" "http://www.w3.org/Graphics/SVG/1.1/DTD/svg11.dtd"><svg class="icon" width="128px" height="128.00px" viewBox="0 0 1024 1024" version="1.1" xmlns="http://www.w3.org/2000/svg"><path d="M1002.676 170.664H21.338C9.556 170.664 0.01 180.226 0.01 192.006v639.986c0 11.782 9.546 21.344 21.328 21.344h981.336c11.75 0 21.312-9.562 21.312-21.344V192.006c0.002-11.78-9.56-21.342-21.31-21.342z" fill="#FFCE54" /><path d="M490.672 170.664h42.654v682.672h-42.654zM85.338 746.65h-64c-11.782 0-21.328-9.532-21.328-21.31V298.66c0-11.782 9.546-21.312 21.328-21.312h64c129.402 0 234.666 105.248 234.666 234.652 0 129.402-105.264 234.65-234.666 234.65z" fill="#F6BB42" /><path d="M64.01 575.998C28.714 575.998 0.012 547.28 0.012 512c0-35.282 28.702-64 63.998-64s64 28.718 64 64c-0.002 35.28-28.704 63.998-64 63.998z m0-85.342c-11.766 0-21.328 9.594-21.328 21.344s9.562 21.344 21.328 21.344S85.338 523.75 85.338 512s-9.562-21.344-21.328-21.344z" fill="#E6E9ED" /><path d="M21.338 597.342c-11.782 0-21.328-9.562-21.328-21.344V448c0-11.782 9.546-21.342 21.328-21.342S42.682 436.22 42.682 448v127.998c0 11.782-9.562 21.344-21.344 21.344z" fill="#434A54" /><path d="M938.678 277.348h63.998c11.75 0 21.312 9.53 21.312 21.312v426.68c0 11.78-9.562 21.31-21.312 21.31h-63.998c-129.434 0-234.684-105.248-234.684-234.65 0-129.404 105.25-234.652 234.684-234.652z" fill="#F6BB42" /><path d="M959.99 448c35.31 0 63.998 28.718 63.998 64 0 35.28-28.688 63.998-63.998 63.998-35.312 0-64-28.718-64-63.998 0-35.282 28.688-64 64-64z m0 85.344c11.75 0 21.312-9.594 21.312-21.344s-9.562-21.344-21.312-21.344-21.312 9.594-21.312 21.344 9.562 21.344 21.312 21.344z" fill="#E6E9ED" /><path d="M1002.676 426.658c11.75 0 21.312 9.562 21.312 21.342v127.998c0 11.782-9.562 21.344-21.312 21.344-11.812 0-21.374-9.562-21.374-21.344V448c0-11.78 9.562-21.342 21.374-21.342z" fill="#434A54" /><path d="M512 362.66c-82.342 0-149.326 67-149.326 149.34s66.982 149.34 149.326 149.34c82.342 0 149.308-66.998 149.308-149.34S594.342 362.66 512 362.66z" fill="#FC6E51" /><path d="M653.308 560.28c-27.624-14.032-58.624-21.498-91.966-22.342-0.156-16.968-1.594-34.376-4.282-52.188 32.312-8.156 61.562-22.782 86.904-43.562-6.716-12.686-15.248-24.28-25.216-34.5-20.562 17.344-44.062 29.468-70.218 36.374-9.64-37.718-22.25-66.968-28.968-81.216a149.734 149.734 0 0 0-44.466 4.436 21.646 21.646 0 0 0 2.188 6.312c0.188 0.344 16.734 31.624 28.828 76.936-12.39 0.624-25.282 0.282-38.624-1-40.75-4.032-72.624-16.25-80.312-19.406a149.072 149.072 0 0 0-18.124 38.686c6.796 2.906 43.78 18 92.842 23.032 10.578 1.062 20.984 1.624 31.202 1.624 7.406 0 14.704-0.282 21.888-0.844 2.532 16.438 3.812 32.344 3.89 47.688-15.342 2.032-31.03 5.342-46.998 9.904-50.374 14.468-85.872 36.468-87.356 37.406-0.312 0.188-0.594 0.406-0.876 0.594a150.712 150.712 0 0 0 27.124 33.466c12.296-6.968 54.092-28.998 104.762-37.624-3.966 24.092-11.42 46.592-22.388 67.28a21.2 21.2 0 0 0-2.406 8.468c6.938 1 14.046 1.532 21.266 1.532 8.452 0 16.732-0.718 24.794-2.094 11.172-24.25 18.578-50.656 22.11-78.686 24.968 0.406 50.656 5.376 74.968 17.656a148.51 148.51 0 0 0 19.434-37.932z" fill="#E9573F" /></svg>