<?xml version="1.0" standalone="no"?><!DOCTYPE svg PUBLIC "-//W3C//DTD SVG 1.1//EN" "http://www.w3.org/Graphics/SVG/1.1/DTD/svg11.dtd"><svg class="icon" width="128px" height="128.00px" viewBox="0 0 1024 1024" version="1.1" xmlns="http://www.w3.org/2000/svg"><path d="M661.308 416.006h255.996v85.342H661.308z" fill="#FFCE54" /><path d="M85.334 501.348c0 11.782-9.546 21.312-21.328 21.312-11.78 0-21.326-9.532-21.326-21.312s9.546-21.342 21.326-21.342c11.782-0.002 21.328 9.56 21.328 21.342z" fill="#ED5564" /><path d="M213.332 501.348c0 11.782-9.546 21.312-21.328 21.312s-21.326-9.532-21.326-21.312 9.544-21.342 21.326-21.342 21.328 9.56 21.328 21.342z" fill="#5D9CEC" /><path d="M176.16 936.558c-12.982 26.376-2.14 58.282 24.25 71.282 26.376 13 58.296 2.124 71.282-24.25l100.436-203.996-95.53-47.032L176.16 936.558zM851.994 936.558l-100.466-203.996-95.532 47.032 100.438 203.996c13 26.376 44.906 37.25 71.31 24.25 26.376-13 37.216-44.906 24.25-71.282z" fill="#3BAFDA" /><path d="M21.336 757.344c0 94.248 76.42 170.652 170.668 170.652h639.99c94.248 0 170.686-76.404 170.686-170.652V501.348H21.336v255.996z" fill="#4FC2E9" /><path d="M959.992 501.348v255.996c0 94.248-76.406 170.652-170.684 170.652h42.686c94.248 0 170.686-76.404 170.686-170.652V501.348h-42.688z" fill="#FFFFFF" opacity=".2" /><path d="M256.004 10.668c-82.344 0-149.326 67-149.326 149.34v349.338h42.656V160.01h0.016c0-58.81 47.842-106.654 106.654-106.654 58.81 0 106.654 47.844 106.654 106.654h42.67c0-82.342-66.982-149.342-149.324-149.342z" fill="#CCD1D9" /><path d="M384.002 160.01c-47.14 0-85.344 38.188-85.344 85.342v21.312h170.67v-21.312c0-47.154-38.204-85.342-85.326-85.342z" fill="#E6E9ED" /><path d="M320.002 352.006c0 11.782-9.546 21.344-21.328 21.344s-21.342-9.562-21.342-21.344c0-11.78 9.56-21.342 21.342-21.342s21.328 9.562 21.328 21.342zM405.328 352.006c0 11.782-9.544 21.344-21.326 21.344s-21.328-9.562-21.328-21.344c0-11.78 9.546-21.342 21.328-21.342s21.326 9.562 21.326 21.342zM490.656 352.006c0 11.782-9.546 21.344-21.328 21.344S448 363.788 448 352.006c0-11.78 9.546-21.342 21.328-21.342s21.328 9.562 21.328 21.342zM277.332 437.35c0 11.75-9.546 21.312-21.328 21.312s-21.328-9.562-21.328-21.312c0-11.782 9.546-21.344 21.328-21.344s21.328 9.562 21.328 21.344zM362.674 437.35c0 11.75-9.562 21.312-21.344 21.312s-21.328-9.562-21.328-21.312c0-11.782 9.546-21.344 21.328-21.344s21.344 9.562 21.344 21.344zM448 437.35c0 11.75-9.562 21.312-21.344 21.312s-21.328-9.562-21.328-21.312c0-11.782 9.546-21.344 21.328-21.344S448 425.568 448 437.35zM533.328 437.35c0 11.75-9.546 21.312-21.328 21.312s-21.328-9.562-21.328-21.312c0-11.782 9.546-21.344 21.328-21.344s21.328 9.562 21.328 21.344z" fill="#5D9CEC" /><path d="M810.682 437.35c0 11.782-9.56 21.312-21.374 21.312-11.75 0-21.312-9.532-21.312-21.312s9.562-21.344 21.312-21.344c11.814 0 21.374 9.562 21.374 21.344zM853.306 480.004c0 11.78-9.532 21.342-21.312 21.342s-21.312-9.562-21.312-21.342c0-11.782 9.532-21.342 21.312-21.342s21.312 9.562 21.312 21.342zM895.992 437.35c0 11.782-9.562 21.312-21.312 21.312-11.812 0-21.374-9.532-21.374-21.312s9.56-21.344 21.374-21.344c11.75 0 21.312 9.562 21.312 21.344zM767.996 480.004c0 11.78-9.562 21.342-21.312 21.342-11.812 0-21.376-9.562-21.376-21.342 0-11.782 9.562-21.312 21.376-21.312 11.75 0.002 21.312 9.532 21.312 21.312zM725.308 437.35c0 11.782-9.532 21.312-21.312 21.312s-21.312-9.532-21.312-21.312 9.532-21.344 21.312-21.344 21.312 9.562 21.312 21.344z" fill="#F6BB42" /><path d="M1002.68 544.004H21.336c-11.782 0-21.328-9.562-21.328-21.344s9.546-21.312 21.328-21.312H1002.68c11.75 0 21.312 9.532 21.312 21.312s-9.562 21.344-21.312 21.344z" fill="#3BAFDA" /></svg>