<?xml version="1.0" standalone="no"?><!DOCTYPE svg PUBLIC "-//W3C//DTD SVG 1.1//EN" "http://www.w3.org/Graphics/SVG/1.1/DTD/svg11.dtd"><svg class="icon" width="128px" height="128.00px" viewBox="0 0 1024 1024" version="1.1" xmlns="http://www.w3.org/2000/svg"><path d="M997.966 797.336l-170.652-213.338a21.352 21.352 0 0 0-27.25-5.188l-288.086 164.622-288.056-164.622a21.352 21.352 0 0 0-27.25 5.188L26.02 797.336a21.28 21.28 0 0 0-1.876 23.844 21.286 21.286 0 0 0 21.438 10.626c0.218-0.062 20-2.718 47.812-2.718 37.75 0 107.278 5.25 148.808 40.498 6.968 5.938 16.968 6.718 24.812 2 0.376-0.218 37.874-22.562 84.56-22.562 43.812 0 80.78 20.062 109.904 59.594 4 5.498 10.376 8.686 17.156 8.686h66.716c6.78 0 13.154-3.188 17.154-8.686 29.124-39.532 66.094-59.594 109.874-59.594 46.216 0 84.248 22.344 84.56 22.562 7.876 4.718 17.876 3.938 24.844-2 41.5-35.248 111.06-40.498 148.842-40.498 27.782 0 47.56 2.656 47.748 2.718 8.656 1.188 17.156-3 21.468-10.596a21.26 21.26 0 0 0-1.874-23.874z" fill="#967ADC" /><path d="M747.94 97.744C684.942 34.728 601.132 0.012 511.98 0.012c-89.124 0-172.934 34.716-235.964 97.732-63.03 63.03-97.716 146.84-97.716 235.978s34.686 172.934 97.716 235.962c63.03 63.03 146.84 97.748 235.964 97.748 89.152 0 172.962-34.718 235.96-97.748 63.032-63.03 97.75-146.824 97.75-235.962s-34.72-172.948-97.75-235.978z" fill="#CCD1D9" /><path d="M747.94 97.744C684.942 34.728 601.132 0.012 511.98 0.012c-7.124 0-14.25 0.25-21.312 0.688 81.09 5.094 156.652 39.076 214.618 97.044 63.032 63.03 97.75 146.84 97.75 235.978s-34.718 172.934-97.75 235.962c-57.964 57.966-133.528 91.966-214.618 97.06 7.062 0.438 14.188 0.688 21.312 0.688 89.152 0 172.962-34.718 235.96-97.748 63.032-63.03 97.75-146.824 97.75-235.962s-34.72-172.948-97.75-235.978z" fill="#FFFFFF" opacity=".2" /><path d="M383.982 426.674c0 11.782-9.532 21.328-21.312 21.328s-21.344-9.546-21.344-21.328 9.562-21.344 21.344-21.344 21.312 9.562 21.312 21.344z" fill="#AAB2BC" /><path d="M533.32 703.994c0 11.782-9.562 21.312-21.342 21.312a21.3 21.3 0 0 1-21.312-21.312c0-11.78 9.532-21.31 21.312-21.31 11.78 0 21.342 9.53 21.342 21.31z"  /><path d="M469.324 626.372c-11.782 0-21.344-9.532-21.344-21.312v-50.374c0-11.796 9.562-21.358 21.344-21.358 11.78 0 21.342 9.56 21.342 21.358v50.374c0 11.78-9.562 21.312-21.342 21.312zM554.662 626.372c-11.78 0-21.342-9.532-21.342-21.312v-50.374c0-11.796 9.562-21.358 21.342-21.358 11.782 0 21.312 9.56 21.312 21.358v50.374a21.3 21.3 0 0 1-21.312 21.312zM426.668 959.99a21.26 21.26 0 0 1-16.5-7.812c-7.468-9.094-6.156-22.532 2.968-30l51.968-42.686c9.124-7.468 22.562-6.124 30.03 2.968s6.156 22.532-2.968 30.032l-51.968 42.654a21.088 21.088 0 0 1-13.53 4.844zM597.318 959.99c-4.782 0-9.562-1.562-13.532-4.844l-51.998-42.654c-9.094-7.5-10.406-20.938-2.938-30.032s20.906-10.438 30.03-2.968l51.968 42.686c9.124 7.468 10.438 20.906 2.968 30a21.254 21.254 0 0 1-16.498 7.812z" fill="#967ADC" /><path d="M255.984 874.68c-10.25 0-19.28-7.406-21.03-17.844L192.298 600.84c-1.938-11.624 5.906-22.592 17.53-24.53 11.624-1.938 22.624 5.876 24.532 17.5l42.686 255.994c1.938 11.624-5.906 22.624-17.532 24.562-1.186 0.188-2.374 0.314-3.53 0.314zM768.002 874.68c-1.156 0-2.344-0.124-3.532-0.312-11.624-1.938-19.468-12.938-17.532-24.562l42.656-255.994c1.938-11.624 12.938-19.438 24.562-17.5s19.468 12.906 17.532 24.53l-42.656 255.996a21.36 21.36 0 0 1-21.03 17.842zM582.474 595.56c-18.938-12.624-43.966-19.562-70.496-19.562-26.5 0-51.53 6.938-70.5 19.562-23.312 15.56-36.156 38.936-36.156 65.748 0 87.81 82.904 337.492 86.436 348.086a21.332 21.332 0 0 0 20.218 14.594 21.34 21.34 0 0 0 20.248-14.594c3.532-10.594 86.436-260.276 86.436-348.086 0.002-26.812-12.842-50.186-36.186-65.748z" fill="#AC92EB" /><path d="M501.322 661.308c0 11.812-9.562 21.376-21.344 21.376-11.78 0-21.312-9.562-21.312-21.376 0-11.75 9.532-21.312 21.312-21.312 11.782 0 21.344 9.562 21.344 21.312zM565.318 661.308c0 11.812-9.562 21.376-21.342 21.376-11.782 0-21.312-9.562-21.312-21.376 0-11.75 9.532-21.312 21.312-21.312 11.78 0 21.342 9.562 21.342 21.312z" fill="#434A54" /><path d="M661.318 341.332c-35.282 0-64 28.718-64 63.998 0 35.296 28.718 63.998 64 63.998 35.28 0 63.996-28.702 63.996-63.998 0-35.28-28.716-63.998-63.996-63.998zM447.98 128.01c-47.03 0-85.31 38.28-85.31 85.326 0 47.06 38.28 85.34 85.31 85.34 47.062 0 85.34-38.28 85.34-85.34 0-47.046-38.278-85.326-85.34-85.326z" fill="#AAB2BC" /></svg>