<?xml version="1.0" standalone="no"?><!DOCTYPE svg PUBLIC "-//W3C//DTD SVG 1.1//EN" "http://www.w3.org/Graphics/SVG/1.1/DTD/svg11.dtd"><svg class="icon" width="128px" height="128.00px" viewBox="0 0 1024 1024" version="1.1" xmlns="http://www.w3.org/2000/svg"><path d="M745.52046 367.458l-89.716-89.732a21.308 21.308 0 0 0-16.156-6.218 21.296 21.296 0 0 0-15.436 7.796l-135.734 165.886a21.302 21.302 0 0 0 1.406 28.594l60.358 60.326c7.75 7.75 20.094 8.36 28.594 1.422l165.872-135.73c0.562-0.454 1.094-0.922 1.594-1.422 0-0.016 0.032-0.032 0.032-0.046 8.312-8.344 8.282-21.812-0.032-30.14-0.252-0.252-0.502-0.502-0.782-0.736z" fill="#F6BB42" /><path d="M580.39846 534.094v0.016L187.23446 927.244c-4 4-9.438 6.25-15.094 6.25s-11.062-2.25-15.062-6.25l-60.342-60.31c-8.312-8.344-8.312-21.844 0-30.188l393.15-393.134c8.344-8.328 21.844-8.328 30.156 0l59.61 59.578c0.25 0.234 0.5 0.484 0.75 0.734 8.34 8.328 8.34 21.826-0.004 30.17z" fill="#F6BB42" /><path d="M580.39846 534.11L277.73246 836.778l-90.498-90.5 302.65-302.666z" fill="#965353" /><path d="M640.70846 413.456c-8.31 8.328-21.81 8.328-30.154 0-8.312-8.328-8.344-21.828 0-30.156s21.844-8.328 30.154 0a21.294 21.294 0 0 1 0 30.156z" fill="#434A54" /><path d="M217.38846 957.398l-60.312 60.344c-5.75 5.718-14.218 7.718-21.874 5.124l-90.874-30.532a21.244 21.244 0 0 1-13.438-13.5L1.08046 888.714a21.344 21.344 0 0 1 5.156-21.782l60.342-60.344a21.304 21.304 0 0 1 30.154 0l120.654 120.654c8.346 8.346 8.346 21.846 0.002 30.156z" fill="#ED5564" /><path d="M141.98446 851.84l-115.06 115.058 3.968 11.938a21.244 21.244 0 0 0 13.438 13.5l13.062 4.406 114.748-114.746-30.156-30.156z" fill="#DA4453" /><path d="M415.38446 518.142l-42.654 42.64h180.98l26.688-26.672-15.968-15.968zM453.29246 661.188l42.654-42.656H314.98046l-42.654 42.656zM352.91846 761.558l42.656-42.654h-180.998l-27.342 27.374 15.28 15.28z" fill="#7F4545" /><path d="M753.02046 106.68l-45.22-15.094a21.388 21.388 0 0 0-21.842 5.156l-120.654 120.654a21.368 21.368 0 0 0-5.156 21.828l15.094 45.25a21.128 21.128 0 0 0 5.156 8.328l150.808 150.808a21.232 21.232 0 0 0 8.344 5.156l45.25 15.078a21.312 21.312 0 0 0 21.812-5.14l120.652-120.654a21.312 21.312 0 0 0 5.156-21.828l-15.094-45.25a21.146 21.146 0 0 0-5.154-8.328l-150.81-150.81a21.252 21.252 0 0 0-8.342-5.154z" fill="#FFCE54" /><path d="M806.61446 338.05c-8.312 8.328-21.844 8.328-30.156 0l-90.498-90.498c-8.312-8.328-8.312-21.828 0-30.156 8.342-8.328 21.842-8.328 30.154 0l90.5 90.482c8.344 8.33 8.344 21.846 0 30.172z" fill="#F6BB42" /><path d="M565.30446 277.724l180.996-180.982c4-4 6.218-9.422 6.218-15.078 0-5.656-2.218-11.078-6.218-15.078L685.95846 6.26c-8.312-8.328-21.844-8.328-30.156 0L474.82046 187.242a21.298 21.298 0 0 0 0 30.156l60.312 60.328c4 4 9.454 6.25 15.11 6.25s11.062-2.252 15.062-6.252zM927.26646 277.724l-180.964 180.98c-4 4-6.25 9.422-6.25 15.078s2.25 11.078 6.25 15.078l60.312 60.326c8.344 8.312 21.844 8.312 30.156 0l180.996-180.98c8.312-8.328 8.312-21.828 0-30.156l-60.344-60.326c-8.312-8.328-21.812-8.328-30.156 0z" fill="#ED5564" /><path d="M640.70846 202.32l30.188-30.172-90.498-90.482-30.156 30.154zM942.35446 443.584l-30.156 30.154-90.488-90.488 30.154-30.156z" fill="#DA4453" /><path d="M292.79446 851.84c-8.344 8.344-21.844 8.344-30.156 0L172.14046 761.34c-8.312-8.312-8.312-21.812 0-30.154 8.344-8.312 21.842-8.312 30.186 0l90.468 90.498c8.344 8.312 8.344 21.844 0 30.156zM595.46046 549.188c-8.312 8.312-21.812 8.312-30.156 0l-90.484-90.498c-8.342-8.312-8.342-21.828 0-30.156 8.312-8.328 21.812-8.328 30.156 0l90.484 90.5c8.344 8.326 8.344 21.826 0 30.154z" fill="#A85D5D" /></svg>