<?xml version="1.0" standalone="no"?><!DOCTYPE svg PUBLIC "-//W3C//DTD SVG 1.1//EN" "http://www.w3.org/Graphics/SVG/1.1/DTD/svg11.dtd"><svg class="icon" width="128px" height="128.00px" viewBox="0 0 1024 1024" version="1.1" xmlns="http://www.w3.org/2000/svg"><path d="M986.514 704.618c24.876-61.34 37.468-126.152 37.468-192.618 0-66.498-12.594-131.308-37.468-192.682-25.78-63.498-63.59-120.496-112.464-169.37-48.874-48.874-105.872-86.686-169.368-112.464C643.308 12.612 578.498 0.018 512 0.018c-66.466 0-131.276 12.594-192.62 37.466-63.53 25.78-120.526 63.592-169.4 112.464-48.874 48.874-86.684 105.872-112.464 169.37C12.642 380.692 0.018 445.502 0.018 512c0 66.464 12.624 131.278 37.498 192.618 25.78 63.53 63.592 120.526 112.464 169.4 48.874 48.842 105.872 86.684 169.4 112.464 61.342 24.876 126.152 37.5 192.65 37.5 66.466 0 131.278-12.624 192.65-37.5 63.496-25.782 120.494-63.624 169.368-112.464 48.876-48.876 86.686-105.872 112.466-169.4z" fill="#ED5564" /><path d="M840.3 517.31c24.624-55.81 40.592-115.15 47.404-176.43 11.624-104.56-7.312-178.182-8.124-181.276a21.23 21.23 0 0 0-15.188-15.188c-3.094-0.812-76.714-19.75-181.274-8.124-61.28 6.812-120.622 22.782-176.432 47.404-69.654 30.812-133.838 75.28-190.774 132.184-56.906 56.936-101.372 121.122-132.184 190.776-24.624 55.81-40.592 115.152-47.404 176.432-11.624 104.588 7.312 178.18 8.124 181.274a21.228 21.228 0 0 0 15.186 15.188c3.094 0.812 76.684 19.75 181.276 8.124 61.28-6.812 120.62-22.75 176.432-47.406 69.652-30.78 133.84-75.278 190.774-132.182 56.906-56.936 101.374-121.122 132.184-190.776z" fill="#E6E9ED" /><path d="M926.83 217.822a11.852 11.852 0 0 0 2.218-3.032c-16.406-22.938-34.75-44.592-55-64.842s-41.904-38.592-64.84-54.998a11.888 11.888 0 0 0-3.032 2.218c-12.5 12.5 4.376 49.624 37.686 82.964 33.344 33.316 70.468 50.188 82.968 37.69z" fill="#656D78" /><path d="M986.514 704.618c24.876-61.34 37.468-126.152 37.468-192.618 0-66.498-12.594-131.308-37.468-192.682-25.78-63.498-63.59-120.496-112.464-169.37a527.338 527.338 0 0 0-31.404-28.938c35.092 41.376 63.092 87.624 83.53 137.996 24.874 61.342 37.498 126.152 37.498 192.648 0 66.466-12.624 131.278-37.498 192.652-25.75 63.496-63.594 120.494-112.464 169.368-48.876 48.874-105.874 86.686-169.37 112.464-61.344 24.876-126.184 37.498-192.652 37.498-66.498 0-131.308-12.624-192.65-37.498-50.372-20.436-96.622-48.466-137.996-83.53a526.718 526.718 0 0 0 28.936 31.406c48.874 48.842 105.872 86.684 169.4 112.464 61.342 24.876 126.152 37.5 192.65 37.5 66.466 0 131.278-12.624 192.65-37.5 63.496-25.782 120.494-63.624 169.368-112.464 48.876-48.872 86.686-105.868 112.466-169.396z" fill="#FFFFFF" opacity=".2" /></svg>