<?xml version="1.0" standalone="no"?><!DOCTYPE svg PUBLIC "-//W3C//DTD SVG 1.1//EN" "http://www.w3.org/Graphics/SVG/1.1/DTD/svg11.dtd"><svg class="icon" width="128px" height="128.00px" viewBox="0 0 1024 1024" version="1.1" xmlns="http://www.w3.org/2000/svg"><path d="M1.112 931.89h1022.84v92.092H1.112z" fill="#FFCE54" /><path d="M192.01 959.982c-11.78 0-21.328-9.56-21.328-21.342v-85.31c0-11.782 9.546-21.344 21.328-21.344s21.328 9.562 21.328 21.344v85.31c0 11.782-9.546 21.342-21.328 21.342zM746.678 959.982c-11.812 0-21.376-9.56-21.376-21.342v-85.31c0-11.782 9.562-21.344 21.376-21.344 11.75 0 21.312 9.562 21.312 21.344v85.31c0 11.782-9.562 21.342-21.312 21.342zM490.672 766.208c-11.78 0-21.342-9.532-21.342-21.312V21.362c0-11.782 9.562-21.344 21.342-21.344C502.454 0.018 512 9.58 512 21.362v723.536c0 11.78-9.546 21.31-21.328 21.31z" fill="#434A54" /><path d="M1003.17 504.156c-11.812-10.844-27.154-16.782-43.186-16.782a64.134 64.134 0 0 0-47.216 20.782l-198.682 217.178H149.34c-35.28 0-64 28.688-64 63.998 0 35.28 28.718 63.998 64 63.998h611.712c6 0 11.688-2.532 15.75-6.938L1007.2 594.558c23.844-26.03 22.032-66.592-4.03-90.402z" fill="#AC92EB" /><path d="M682.682 746.646c11.75 0 21.312-9.532 21.312-21.312h-42.686c0 11.782 9.564 21.312 21.374 21.312zM597.308 746.646c11.812 0 21.376-9.532 21.376-21.312h-42.686c0 11.782 9.56 21.312 21.31 21.312zM512 746.646c11.782 0 21.328-9.532 21.328-21.312h-42.656c0 11.782 9.546 21.312 21.328 21.312zM426.674 746.646c11.782 0 21.328-9.532 21.328-21.312h-42.67c0 11.782 9.562 21.312 21.342 21.312zM341.334 746.646c11.78 0 21.342-9.532 21.342-21.312h-42.67c0 11.782 9.546 21.312 21.328 21.312zM256.008 746.646c11.782 0 21.328-9.532 21.328-21.312H234.68c0 11.782 9.548 21.312 21.328 21.312z" fill="#967ADC" /><path d="M682.682 981.326c-3.31 0-6.56-0.75-9.56-2.25l-33.124-16.562-33.124 16.562c-6 3-13.062 3-19.062 0l-33.124-16.562-33.138 16.562a21.38 21.38 0 0 1-19.094 0l-33.124-16.562-33.124 16.562c-6 3-13.078 3-19.078 0l-33.124-16.562-33.124 16.562a21.346 21.346 0 0 1-19.078 0l-33.124-16.562-33.124 16.562a21.376 21.376 0 0 1-19.092 0l-33.124-16.562-33.124 16.562c-6 3-13.078 3-19.078 0l-33.124-16.562-33.124 16.562a21.492 21.492 0 0 1-16.28 1.156L14.612 958.888c-11.188-3.718-17.218-15.81-13.5-26.998 3.734-11.156 15.812-17.186 26.982-13.466l55.624 18.53 34.75-17.374a21.38 21.38 0 0 1 19.094 0l33.124 16.56 33.124-16.56c6-3 13.062-3 19.078 0l33.124 16.56 33.124-16.56c6-3 13.078-3 19.078 0l33.124 16.56 33.124-16.56c6.016-3 13.078-3 19.092 0l33.124 16.56 33.124-16.56c6-3 13.062-3 19.078 0l33.12 16.56 33.124-16.56c5.998-3 13.06-3 19.06 0l33.124 16.56 33.124-16.56c6.032-3 13.094-3 19.124 0l33.124 16.56 33.124-16.56c5.998-3 13.06-3 19.06 0l33.124 16.56 33.124-16.56c6-3 13.062-3 19.06 0l33.124 16.56 33.124-16.56c6.032-3 13.094-3 19.124 0l34.75 17.374 55.622-18.53c11.156-3.75 23.25 2.31 26.968 13.466 3.718 11.188-2.312 23.28-13.5 26.998l-63.996 21.344a21.5 21.5 0 0 1-16.282-1.156l-33.124-16.562-33.124 16.562c-6 3-13.062 3-19.06 0l-33.124-16.562-33.124 16.562a21.444 21.444 0 0 1-19.124 0l-33.124-16.562-33.122 16.562a21.208 21.208 0 0 1-9.498 2.25z" fill="#F6BB42" /><path d="M777.272 161.386c-76.558-76.53-178.338-118.714-286.6-118.714-108.276 0-210.054 42.186-286.614 118.714C127.512 237.946 85.342 339.724 85.342 448c0 8.782 4.922 17.124 13.11 20.344 8.078 3.156 16.796 1.562 22.75-4.688 2.404-1.812 22.28-15.656 70.808-15.656 48.498 0 68.388 13.812 70.794 15.656 4.124 4.376 8.782 7.156 14.812 6.968 5.968-0.156 10.42-2.468 14.264-6.938 3.5-2.312 26.592-15.688 92.122-15.688 65.498 0 88.654-1.468 92.168 0.844 3.968 4.656 14.436 7 14.5 7 6.218-0.062 11.578-1.25 15.5-6 3.594-2.376 25.734-1.844 91.2-1.844 65.438 0 88.31 13.156 91.936 15.562 3.562 4.282 7.718 6.406 13.376 6.876 5.81 0.5 10.436-2.032 14.78-5.876 2.092-1.5 24.53-16.562 73.592-16.562 47.124 0 66.746 13.876 69.058 15.656 5.968 6.218 14.718 7.812 22.782 4.656 8.156-3.218 13.094-11.532 13.094-20.312-0.002-108.274-42.158-210.052-118.716-286.612z" fill="#E6E9ED" /><path d="M690.494 246.664c-18.686-47.53-44.81-89.246-77.654-123.996-56.466-59.78-113.356-78.246-115.746-78.996a21.57 21.57 0 0 0-6.422-0.968v427.704c5.578 0 10.796-2.25 14.672-6.812 3.578-2.376 26.5-15.594 92.028-15.594 65.438 0 88.31 13.188 91.936 15.562 3.876 4.624 9.124 6.876 14.75 6.876 2.53 0 5.154-0.468 7.748-1.376 8.56-3 13.498-12 13.498-21.062-0.002-74.874-11.686-142.622-34.81-201.338z" fill="#ED5564" /><path d="M490.672 42.704c-2.156 0-4.328 0.312-6.438 0.968-2.39 0.75-59.248 19.216-115.73 78.996-32.842 34.75-58.982 76.466-77.686 123.996-23.092 58.716-34.81 126.464-34.81 201.336 0 9.062 4.938 18.062 13.516 21.062 2.61 0.906 5.218 1.376 7.766 1.376 5.624 0 10.874-2.25 14.764-6.876 3.578-2.376 26.468-15.562 91.904-15.562 65.53 0 88.466 13.218 92.044 15.594 3.876 4.562 9.078 6.812 14.67 6.812V42.704z" fill="#DA4453" /></svg>