<?xml version="1.0" standalone="no"?><!DOCTYPE svg PUBLIC "-//W3C//DTD SVG 1.1//EN" "http://www.w3.org/Graphics/SVG/1.1/DTD/svg11.dtd"><svg class="icon" width="128px" height="128.00px" viewBox="0 0 1024 1024" version="1.1" xmlns="http://www.w3.org/2000/svg"><path d="M853.3 639.996H170.686c-11.782 0-21.342 9.56-21.342 21.31v341.364c0 11.75 9.562 21.312 21.342 21.312H853.3c11.782 0 21.344-9.562 21.344-21.312V661.306c0-11.75-9.562-21.31-21.344-21.31z" fill="#965353" /><path d="M170.686 597.308c-11.782 0-21.342-9.532-21.342-21.312V85.342c0-11.782 9.562-21.328 21.342-21.328s21.312 9.546 21.312 21.328v490.654a21.3 21.3 0 0 1-21.312 21.312zM853.3 597.308c-11.78 0-21.342-9.532-21.342-21.312V85.342c0-11.782 9.562-21.328 21.342-21.328 11.782 0 21.344 9.546 21.344 21.328v490.654c0 11.782-9.562 21.312-21.344 21.312z" fill="#7F4545" /><path d="M957.236 181.51L872.394 11.814A21.34 21.34 0 0 0 853.3 0.018H170.686a21.342 21.342 0 0 0-19.094 11.796l-85.34 170.648a21.444 21.444 0 0 0 0.938 20.766 21.366 21.366 0 0 0 18.156 10.11h853.332c11.748 0 21.31-9.546 21.31-21.328a21.314 21.314 0 0 0-2.752-10.5z" fill="#FFCE54" /><path d="M853.3 895.986h-63.996v-234.68c0-11.75-9.562-21.31-21.344-21.31s-21.312 9.56-21.312 21.31v234.68h-42.684v-234.68c0-11.75-9.532-21.31-21.31-21.31-11.782 0-21.344 9.56-21.344 21.31v234.68h-42.656v-234.68c0-11.75-9.562-21.31-21.344-21.31s-21.342 9.56-21.342 21.31v234.68h-42.638v-234.68c0-11.75-9.562-21.31-21.344-21.31s-21.312 9.56-21.312 21.31v234.68h-42.686v-234.68c0-11.75-9.532-21.31-21.312-21.31-11.78 0-21.342 9.56-21.342 21.31v234.68h-42.656v-234.68c0-11.75-9.562-21.31-21.342-21.31-11.782 0-21.344 9.56-21.344 21.31v234.68h-42.654v-234.68c0-11.75-9.562-21.31-21.344-21.31-11.78 0-21.312 9.56-21.312 21.31v234.68H170.686c-11.782 0-21.342 9.562-21.342 21.312 0 11.81 9.562 21.374 21.342 21.374h63.998c0 11.75 9.532 21.31 21.312 21.31 11.782 0 21.344-9.56 21.344-21.31h42.654c0 11.75 9.562 21.31 21.344 21.31 11.78 0 21.342-9.56 21.342-21.31h42.656c0 11.75 9.562 21.31 21.342 21.31 11.782 0 21.312-9.56 21.312-21.31h42.686c0 11.75 9.532 21.31 21.312 21.31s21.344-9.56 21.344-21.31h42.638c0 11.75 9.56 21.31 21.342 21.31s21.344-9.56 21.344-21.31h42.656c0 11.75 9.562 21.31 21.344 21.31 11.78 0 21.31-9.56 21.31-21.31h42.684c0 11.75 9.532 21.31 21.312 21.31s21.344-9.56 21.344-21.31h63.996c11.782 0 21.344-9.562 21.344-21.374-0.002-11.75-9.564-21.312-21.346-21.312z" fill="#7F4545" /><path d="M155.592 134.262c-8.312 8.328-8.312 21.844 0 30.172 8.344 8.328 21.844 8.328 30.186 0 8.312-8.328 8.312-21.844 0-30.172-8.342-8.328-21.842-8.328-30.186 0zM228.434 91.592a21.36 21.36 0 0 0-30.186 0c-8.312 8.328-8.312 21.842 0 30.17a21.36 21.36 0 0 0 30.186 0c8.312-8.328 8.312-21.842 0-30.17zM271.088 79.108c8.344-8.344 8.344-21.844 0-30.172-8.312-8.326-21.842-8.326-30.156 0-8.344 8.328-8.344 21.828 0 30.172 8.314 8.328 21.844 8.328 30.156 0zM185.778 79.108c8.312-8.344 8.312-21.844 0-30.172-8.342-8.326-21.842-8.326-30.186 0-8.342 8.328-8.342 21.828 0 30.172 8.344 8.328 21.844 8.328 30.186 0zM240.932 134.262c-8.344 8.328-8.344 21.844 0 30.172 8.312 8.328 21.842 8.328 30.156 0 8.344-8.328 8.344-21.844 0-30.172-8.312-8.328-21.842-8.328-30.156 0zM313.774 91.592c-8.344-8.328-21.844-8.328-30.188 0-8.342 8.328-8.342 21.842 0 30.17 8.344 8.328 21.844 8.328 30.188 0 8.312-8.328 8.312-21.842 0-30.17zM356.428 79.108c8.312-8.344 8.312-21.844 0-30.172-8.342-8.326-21.842-8.326-30.186 0-8.312 8.328-8.312 21.828 0 30.172 8.344 8.328 21.844 8.328 30.186 0zM326.242 134.262c-8.312 8.328-8.312 21.844 0 30.172 8.344 8.328 21.844 8.328 30.186 0 8.312-8.328 8.312-21.844 0-30.172-8.342-8.328-21.842-8.328-30.186 0zM399.084 91.592c-8.312-8.328-21.842-8.328-30.156 0-8.344 8.328-8.344 21.842 0 30.17 8.312 8.328 21.842 8.328 30.156 0 8.344-8.328 8.344-21.842 0-30.17zM441.738 79.108c8.342-8.344 8.342-21.844 0-30.172-8.312-8.326-21.812-8.326-30.154 0-8.344 8.328-8.344 21.828 0 30.172 8.342 8.328 21.842 8.328 30.154 0zM411.584 134.262c-8.344 8.328-8.344 21.844 0 30.172 8.342 8.328 21.842 8.328 30.154 0 8.342-8.328 8.342-21.844 0-30.172-8.312-8.328-21.812-8.328-30.154 0zM484.424 91.592c-8.342-8.328-21.842-8.328-30.186 0-8.312 8.328-8.312 21.842 0 30.17 8.344 8.328 21.844 8.328 30.186 0 8.312-8.328 8.312-21.842 0-30.17zM527.08 79.108c8.344-8.344 8.344-21.844 0-30.172-8.344-8.326-21.844-8.326-30.156 0-8.344 8.328-8.344 21.828 0 30.172 8.312 8.328 21.812 8.328 30.156 0zM496.924 134.262c-8.344 8.328-8.344 21.844 0 30.172 8.312 8.328 21.812 8.328 30.156 0s8.344-21.844 0-30.172-21.844-8.328-30.156 0zM569.718 91.592c-8.312-8.328-21.842-8.328-30.138 0-8.344 8.328-8.344 21.842 0 30.17 8.296 8.328 21.826 8.328 30.138 0 8.344-8.328 8.344-21.842 0-30.17zM612.404 79.108c8.312-8.344 8.312-21.844 0-30.172-8.344-8.326-21.844-8.326-30.186 0-8.312 8.328-8.312 21.828 0 30.172 8.342 8.328 21.842 8.328 30.186 0zM582.218 134.262c-8.312 8.328-8.312 21.844 0 30.172 8.342 8.328 21.842 8.328 30.186 0 8.312-8.328 8.312-21.844 0-30.172-8.344-8.328-21.844-8.328-30.186 0zM655.06 91.592c-8.344-8.328-21.844-8.328-30.156 0-8.344 8.328-8.344 21.842 0 30.17 8.312 8.328 21.812 8.328 30.156 0s8.344-21.842 0-30.17zM697.714 79.108c8.342-8.344 8.342-21.844 0-30.172-8.312-8.326-21.842-8.326-30.154 0-8.344 8.328-8.344 21.828 0 30.172 8.314 8.328 21.842 8.328 30.154 0zM667.56 134.262c-8.344 8.328-8.344 21.844 0 30.172 8.312 8.328 21.842 8.328 30.154 0 8.342-8.328 8.342-21.844 0-30.172-8.312-8.328-21.84-8.328-30.154 0zM740.398 91.592c-8.344-8.328-21.844-8.328-30.186 0-8.31 8.328-8.31 21.842 0 30.17 8.342 8.328 21.842 8.328 30.186 0 8.312-8.328 8.312-21.842 0-30.17zM783.054 79.108c8.312-8.344 8.312-21.844 0-30.172-8.344-8.326-21.844-8.326-30.188 0-8.312 8.328-8.312 21.828 0 30.172 8.344 8.328 21.844 8.328 30.188 0zM752.868 134.262c-8.312 8.328-8.312 21.844 0 30.172 8.344 8.328 21.844 8.328 30.188 0 8.312-8.328 8.312-21.844 0-30.172-8.346-8.328-21.846-8.328-30.188 0zM825.708 91.592c-8.312-8.328-21.842-8.328-30.154 0-8.344 8.328-8.344 21.842 0 30.17 8.312 8.328 21.842 8.328 30.154 0 8.344-8.328 8.344-21.842 0-30.17zM868.394 79.108c8.312-8.344 8.312-21.844 0-30.172-8.344-8.326-21.842-8.326-30.186 0-8.344 8.328-8.344 21.828 0 30.172a21.36 21.36 0 0 0 30.186 0zM838.208 134.262c-8.344 8.328-8.344 21.844 0 30.172s21.842 8.328 30.186 0c8.312-8.328 8.312-21.844 0-30.172a21.36 21.36 0 0 0-30.186 0z" fill="#F6BB42" /><path d="M682.654 554.686c-11.782 0-21.344-9.562-21.344-21.36v-63.998c0-11.782 9.562-21.328 21.344-21.328 11.78 0 21.31 9.546 21.31 21.328v63.998c0 11.798-9.53 21.36-21.31 21.36z" fill="#CCD1D9" /><path d="M725.304 554.686h-85.338c-11.782 0-21.312-9.562-21.312-21.36 0-11.782 9.532-21.326 21.312-21.326h85.338c11.782 0 21.344 9.544 21.344 21.326 0 11.798-9.562 21.36-21.344 21.36z" fill="#E6E9ED" /><path d="M787.68 375.848a21.344 21.344 0 0 0-19.718-13.172h-170.65a21.34 21.34 0 0 0-19.716 13.172 21.36 21.36 0 0 0 4.624 23.234l85.342 85.34c4 4 9.438 6.25 15.094 6.25 5.654 0 11.06-2.25 15.06-6.25l85.34-85.324a21.34 21.34 0 0 0 4.624-23.25z" fill="#A0D468" /><path d="M426.676 362.676H298.68c-11.782 0-21.342 9.546-21.342 21.328v170.682c0 11.748 9.562 21.31 21.342 21.31h127.996c11.782 0 21.312-9.562 21.312-21.31v-170.682c0-11.782-9.53-21.328-21.312-21.328z" fill="#FC6E51" /><path d="M384.022 554.686c-8.468 0-16.5-5.094-19.812-13.438l-85.34-213.32c-4.376-10.938 0.938-23.36 11.874-27.734 10.938-4.374 23.344 0.954 27.718 11.89l85.342 213.32c4.376 10.938-0.938 23.344-11.876 27.718a20.82 20.82 0 0 1-7.906 1.564z" fill="#434A54" /><path d="M895.958 554.686H128a21.298 21.298 0 0 0-21.312 21.31v85.31c0 11.812 9.532 21.376 21.312 21.376h767.958c11.782 0 21.344-9.562 21.344-21.376v-85.31c-0.002-11.782-9.564-21.31-21.344-21.31z" fill="#A85D5D" /><path d="M895.958 554.686H128a21.298 21.298 0 0 0-21.312 21.31v21.312c0-11.75 9.532-21.312 21.312-21.312h767.958c11.782 0 21.344 9.562 21.344 21.312v-21.312c-0.002-11.782-9.564-21.31-21.344-21.31z" fill="#FFFFFF" opacity=".1" /></svg>