<?xml version="1.0" standalone="no"?><!DOCTYPE svg PUBLIC "-//W3C//DTD SVG 1.1//EN" "http://www.w3.org/Graphics/SVG/1.1/DTD/svg11.dtd"><svg class="icon" width="128px" height="128.00px" viewBox="0 0 1024 1024" version="1.1" xmlns="http://www.w3.org/2000/svg"><path d="M118.188 426.5v576.188c0 11.75 9.562 21.312 21.312 21.312h597.376c11.75 0 21.312-9.562 21.312-21.312V426.5h-640z" fill="#4FC1E9" /><path d="M310.186 853.312h-192v-42.624h192c11.812 0 21.312 9.532 21.312 21.312s-9.498 21.312-21.312 21.312zM310.186 725.312h-192v-42.624h192c11.812 0 21.312 9.532 21.312 21.312s-9.498 21.312-21.312 21.312zM310.186 597.312h-192v-42.624h192c11.812 0 21.312 9.532 21.312 21.312s-9.498 21.312-21.312 21.312z" fill="#434A54" /><path d="M884.438 0H139.5c-11.75 0-21.312 9.562-21.312 21.312V426.5h640V213.376l143.25-179.156v-0.032c2.75-3.562 4.376-8 4.376-12.876C905.812 9.562 896.25 0 884.438 0z" fill="#E6E9ED" /></svg>