<?xml version="1.0" standalone="no"?><!DOCTYPE svg PUBLIC "-//W3C//DTD SVG 1.1//EN" "http://www.w3.org/Graphics/SVG/1.1/DTD/svg11.dtd"><svg class="icon" width="128px" height="128.00px" viewBox="0 0 1024 1024" version="1.1" xmlns="http://www.w3.org/2000/svg"><path d="M106.662 447.994l-2.782 135.514 258.778-28.812s-21.312-106.702-255.996-106.702z" fill="#CCD1D9" /><path d="M85.35 533.336h853.298v170.668H85.35z" fill="#E6E9ED" /><path d="M192.004 661.318c-11.782 0-21.342-9.5-21.342-21.312v-21.312c0-11.812 9.56-21.374 21.342-21.374s21.344 9.56 21.344 21.374v21.312c0 11.812-9.562 21.312-21.344 21.312z" fill="#CCD1D9" /><path d="M874.648 768.004c-11.782 0-21.31-9.562-21.31-21.312v-21.376c0-11.75 9.53-21.312 21.31-21.312s21.344 9.562 21.344 21.312v21.376c0 11.75-9.562 21.312-21.344 21.312zM789.34 768.004c-11.782 0-21.344-9.562-21.344-21.312v-21.376c0-11.75 9.562-21.312 21.344-21.312s21.31 9.562 21.31 21.312v21.376c0 11.75-9.528 21.312-21.31 21.312zM703.996 768.004c-11.782 0-21.344-9.562-21.344-21.312v-21.376c0-11.75 9.562-21.312 21.344-21.312s21.344 9.562 21.344 21.312v21.376c0 11.75-9.562 21.312-21.344 21.312zM618.654 768.004c-11.782 0-21.312-9.562-21.312-21.312v-21.376c0-11.75 9.532-21.312 21.312-21.312 11.78 0 21.342 9.562 21.342 21.312v21.376c0 11.75-9.562 21.312-21.342 21.312zM533.344 768.004c-11.782 0-21.344-9.562-21.344-21.312v-21.376c0-11.75 9.562-21.312 21.344-21.312s21.312 9.562 21.312 21.312v21.376c0 11.75-9.532 21.312-21.312 21.312zM448 768.004c-11.782 0-21.344-9.562-21.344-21.312v-21.376c0-11.75 9.562-21.312 21.344-21.312s21.344 9.562 21.344 21.312v21.376c0 11.75-9.562 21.312-21.344 21.312zM362.658 768.004c-11.782 0-21.312-9.562-21.312-21.312v-21.376c0-11.75 9.532-21.312 21.312-21.312s21.344 9.562 21.344 21.312v21.376c0 11.75-9.562 21.312-21.344 21.312z" fill="#DA4453" /><path d="M277.348 661.318c-11.782 0-21.344-9.5-21.344-21.312v-21.312c0-11.812 9.562-21.374 21.344-21.374 11.78 0 21.31 9.56 21.31 21.374v21.312a21.28 21.28 0 0 1-21.31 21.312z" fill="#CCD1D9" /><path d="M106.662 618.694h810.674v95.248H106.662z" fill="#F4BE8E" /><path d="M341.346 533.336h597.302v213.356H341.346z" fill="#ED5564" /><path d="M490.656 533.336h298.622v64.422H490.656z" fill="#FFCE54" /><path d="M64.006 234.684c-35.28 0-63.998 28.718-63.998 64v490.632h127.998V298.684c0-35.282-28.718-64-64-64zM959.992 405.338c-35.282 0-64 28.718-64 63.998v319.98h128v-319.98c0-35.28-28.718-63.998-64-63.998z" fill="#FFD2A6" /></svg>