<?xml version="1.0" standalone="no"?><!DOCTYPE svg PUBLIC "-//W3C//DTD SVG 1.1//EN" "http://www.w3.org/Graphics/SVG/1.1/DTD/svg11.dtd"><svg class="icon" width="128px" height="128.00px" viewBox="0 0 1024 1024" version="1.1" xmlns="http://www.w3.org/2000/svg"><path d="M1023.988 512c0 282.746-229.246 511.988-511.988 511.988C229.224 1023.988 0.012 794.746 0.012 512 0.012 229.226 229.224 0.012 512 0.012 794.742 0.012 1023.988 229.226 1023.988 512z" fill="#E6E9ED" /><path d="M512 21.326c11.624 0 21.062-9.312 21.296-20.876A534.052 534.052 0 0 0 512 0.012c-7.14 0-14.25 0.156-21.312 0.438 0.234 11.562 9.672 20.876 21.312 20.876zM512 1002.644c-11.64 0-21.078 9.312-21.312 20.906 7.062 0.282 14.172 0.438 21.312 0.438 7.124 0 14.234-0.156 21.296-0.438-0.234-11.592-9.672-20.906-21.296-20.906z" fill="#CCD1D9" /><path d="M416.268 30.762c11.406-2.25 18.86-13.25 16.828-24.656a497.766 497.766 0 0 0-20.984 3.75c-7 1.376-13.938 2.906-20.812 4.594 2.484 11.282 13.562 18.594 24.968 16.312zM607.714 993.208c-11.404 2.282-18.842 13.25-16.842 24.656 7-1.094 14-2.312 20.998-3.718 7-1.406 13.938-2.938 20.812-4.594-2.498-11.314-13.56-18.594-24.968-16.344z" fill="#CCD1D9" /><path d="M324.222 58.7c10.75-4.468 15.906-16.686 11.704-27.468-6.64 2.438-13.266 5.032-19.86 7.75s-13.11 5.594-19.532 8.562c4.658 10.592 16.938 15.592 27.688 11.156zM699.746 965.304c-10.75 4.434-15.876 16.652-11.688 27.434 6.624-2.438 13.25-5 19.876-7.718a517.484 517.484 0 0 0 19.498-8.594c-4.624-10.59-16.936-15.59-27.686-11.122z" fill="#CCD1D9" /><path d="M239.396 104.042c9.672-6.468 12.344-19.468 6.11-29.218a512.572 512.572 0 0 0-35.438 23.686c6.64 9.47 19.656 11.97 29.328 5.532zM784.586 919.96c-9.656 6.468-12.344 19.438-6.094 29.218 6-3.688 12-7.532 17.938-11.5 5.938-3.938 11.75-8.032 17.5-12.188-6.656-9.498-19.688-11.998-29.344-5.53z" fill="#CCD1D9" /><path d="M165.054 165.04c8.218-8.218 8.312-21.468 0.296-29.842a564.91 564.91 0 0 0-15.39 14.75 525.72 525.72 0 0 0-14.75 15.406c8.344 7.998 21.61 7.904 29.844-0.314zM858.93 858.93c-8.218 8.218-8.312 21.5-0.282 29.844a489.52 489.52 0 0 0 15.376-14.75 616.586 616.586 0 0 0 14.78-15.376c-8.374-8.03-21.624-7.938-29.874 0.282z" fill="#CCD1D9" /><path d="M104.026 239.414c6.468-9.686 3.968-22.718-5.532-29.342a545.818 545.818 0 0 0-12.204 17.468 523.468 523.468 0 0 0-11.468 17.968c9.75 6.248 22.75 3.562 29.204-6.094zM919.958 784.59c-6.468 9.656-3.968 22.684 5.532 29.308a500.784 500.784 0 0 0 12.186-17.464c4-5.938 7.812-11.938 11.5-17.968-9.75-6.22-22.748-3.564-29.218 6.124z" fill="#CCD1D9" /><path d="M58.682 324.224c4.454-10.75-0.532-23.03-11.14-27.686a545.306 545.306 0 0 0-8.56 19.53 526.506 526.506 0 0 0-7.75 19.844c10.778 4.218 22.996-0.938 27.45-11.688zM965.3 699.746c-4.438 10.75 0.532 23.062 11.124 27.688a453 453 0 0 0 8.562-19.5 500.674 500.674 0 0 0 7.75-19.876c-10.748-4.186-22.998 0.938-27.436 11.688z" fill="#CCD1D9" /><path d="M30.762 416.252c2.282-11.376-5.016-22.468-16.328-24.968-1.656 6.876-3.204 13.812-4.594 20.812s-2.624 14-3.718 21a21.302 21.302 0 0 0 24.64-16.844zM993.238 607.718c-2.282 11.406 5 22.468 16.312 24.968 1.656-6.876 3.188-13.812 4.594-20.812s2.624-14 3.718-21c-11.374-1.998-22.374 5.438-24.624 16.844z" fill="#CCD1D9" /><path d="M21.34 512c0-11.624-9.312-21.094-20.89-21.312A508.544 508.544 0 0 0 0.012 512c0 7.124 0.14 14.25 0.438 21.312 11.578-0.25 20.89-9.688 20.89-21.312zM1002.644 512c0 11.624 9.312 21.062 20.906 21.312 0.282-7.062 0.438-14.188 0.438-21.312 0-7.156-0.156-14.25-0.438-21.312-11.592 0.22-20.906 9.688-20.906 21.312z" fill="#CCD1D9" /><path d="M30.762 607.718c-2.266-11.406-13.25-18.844-24.64-16.844 1.094 7 2.328 14 3.718 21s2.938 13.938 4.594 20.812c11.312-2.498 18.608-13.562 16.328-24.968zM993.238 416.252c2.25 11.438 13.25 18.876 24.624 16.844-1.094-7-2.312-14-3.718-21s-2.938-13.938-4.594-20.812c-11.312 2.5-18.592 13.594-16.312 24.968z" fill="#CCD1D9" /><path d="M58.682 699.746c-4.454-10.75-16.672-15.906-27.452-11.688a508.62 508.62 0 0 0 16.31 39.376c10.61-4.656 15.594-16.938 11.142-27.688zM965.3 324.224c4.438 10.75 16.688 15.906 27.438 11.688a501.758 501.758 0 0 0-7.75-19.844 473.582 473.582 0 0 0-8.562-19.53c-10.562 4.656-15.562 16.936-11.126 27.686z" fill="#CCD1D9" /><path d="M104.026 784.59c-6.454-9.688-19.454-12.344-29.204-6.124 3.688 6.032 7.5 12.032 11.468 17.968s8.046 11.746 12.204 17.464c9.5-6.624 12-19.652 5.532-29.308zM919.958 239.382c6.468 9.688 19.466 12.376 29.216 6.124a482.35 482.35 0 0 0-11.5-17.968 499.056 499.056 0 0 0-12.186-17.468c-9.498 6.626-11.998 19.656-5.53 29.312z" fill="#CCD1D9" /><path d="M165.054 858.93c-8.234-8.218-21.5-8.312-29.844-0.282a568.41 568.41 0 0 0 14.75 15.376 525.208 525.208 0 0 0 15.39 14.75c8.018-8.344 7.924-21.626-0.296-29.844zM858.93 165.04c8.25 8.218 21.5 8.312 29.842 0.312a523.026 523.026 0 0 0-14.748-15.406 532.76 532.76 0 0 0-15.406-14.75c-8 8.376-7.908 21.626 0.312 29.844z" fill="#CCD1D9" /><path d="M239.396 919.96c-9.672-6.468-22.704-3.968-29.328 5.532a497.066 497.066 0 0 0 17.484 12.188 528.994 528.994 0 0 0 17.954 11.5c6.234-9.782 3.562-22.75-6.11-29.22zM784.586 104.01c9.656 6.468 22.718 3.968 29.344-5.5-5.75-4.188-11.562-8.25-17.5-12.218s-11.938-7.782-17.938-11.468c-6.25 9.75-3.562 22.75 6.094 29.186z" fill="#CCD1D9" /><path d="M324.222 965.304c-10.75-4.468-23.032 0.532-27.672 11.122 6.406 3 12.922 5.844 19.516 8.562a491.754 491.754 0 0 0 19.86 7.75c4.202-10.78-0.954-23-11.704-27.434zM699.746 58.7c10.75 4.438 23.062-0.562 27.686-11.156a516.966 516.966 0 0 0-19.498-8.562 520.638 520.638 0 0 0-19.876-7.75c-4.186 10.78 0.938 22.998 11.688 27.468z" fill="#CCD1D9" /><path d="M416.268 993.208c-11.406-2.25-22.484 5.032-24.968 16.344 6.876 1.656 13.812 3.188 20.812 4.594s14 2.624 20.984 3.718a21.334 21.334 0 0 0-16.828-24.656zM607.714 30.762c11.406 2.282 22.468-5.032 24.968-16.344a501.088 501.088 0 0 0-20.812-4.562 493.27 493.27 0 0 0-20.998-3.75c-1.998 11.406 5.438 22.406 16.842 24.656z" fill="#CCD1D9" /><path d="M895.99 512c0 212.058-171.932 383.992-383.99 383.992-212.074 0-383.992-171.934-383.992-383.992 0-212.088 171.918-383.99 383.992-383.99 212.058 0 383.99 171.902 383.99 383.99z" fill="#CCD1D9" /><path d="M512 128.01c-7.172 0-14.282 0.218-21.344 0.594C692.808 139.666 853.304 307.068 853.304 512c0 204.902-160.496 372.304-362.648 383.398 7.062 0.376 14.172 0.594 21.344 0.594 212.058 0 383.99-171.934 383.99-383.992 0-212.088-171.932-383.99-383.99-383.99z" opacity=".1" /><path d="M605.902 221.352l132.154 27.03-149.308 258.65L456.578 480z" fill="#A0D468" /><path d="M575.998 469.314L448 512V213.32l127.998-42.654z" fill="#8CC153" /><path d="M546.094 443.034L456.562 544l-149.324-258.65 89.514-100.966z" fill="#A0D468" /><path d="M507.046 435.252L480 567.406l-258.65-149.31 27.046-132.182z" fill="#8CC153" /><path d="M469.328 448.002L512 576H213.334l-42.67-127.998z" fill="#A0D468" /><path d="M443.048 477.908L544 567.406l-258.652 149.34-100.95-89.528z" fill="#8CC153" /><path d="M672.714 323.786c-40.062-14.656-80.56-8.782-146.606 14.406-66.046 23.218-155.748 58.092-187.762 117.81-32 59.686-35.54 133.91-35.54 133.91-0.838 17.58-0.146 46.296 1.538 63.816 0 0 6.486 67.486 51.986 112.986 45.498 45.496 110.762 69.058 175.902 66.684 65.138-2.376 135.074-44.528 190.7-100.152 55.622-55.624 83.184-101.622 97.622-137.778s12.124-58.312 3.624-113.406c-8.498-55.06-111.432-143.62-151.464-158.276z" fill="#965353" /><path d="M552.562 691.402l-120.17-120.152h-0.016c-8.328-8.344-21.844-8.344-30.172 0-8.328 8.312-8.328 21.812 0 30.156h0.016l120.154 120.152c8.328 8.344 21.844 8.344 30.188 0 8.314-8.312 8.314-21.844 0-30.156zM627.964 615.968l-120.152-120.156h-0.016c-8.328-8.344-21.828-8.344-30.172 0-8.328 8.312-8.328 21.842 0 30.156l0.016 0.032 120.17 120.152c8.31 8.312 21.81 8.312 30.154 0a21.328 21.328 0 0 0 0-30.184zM703.434 540.624L583.28 420.44c-8.344-8.312-21.842-8.312-30.154 0a21.332 21.332 0 0 0 0 30.188l120.122 120.154h0.032c8.344 8.344 21.844 8.344 30.156 0 8.342-8.344 8.342-21.844-0.002-30.158z" fill="#7F4242" /></svg>