<?xml version="1.0" standalone="no"?><!DOCTYPE svg PUBLIC "-//W3C//DTD SVG 1.1//EN" "http://www.w3.org/Graphics/SVG/1.1/DTD/svg11.dtd"><svg class="icon" width="128px" height="128.00px" viewBox="0 0 1024 1024" version="1.1" xmlns="http://www.w3.org/2000/svg"><path d="M480 981.3c0 23.562-19.094 42.686-42.656 42.686H96.01c-23.562 0-42.654-19.124-42.654-42.686V469.314c0-23.562 85.31-85.31 85.31-85.31L181.352 0.014h170.652l42.656 383.99s85.342 61.748 85.342 85.31V981.3z" fill="#A0D468" /><path d="M394.66 384.004L352.004 0.014h-42.654l42.654 383.99s85.342 61.748 85.342 85.31V981.3c0 23.562-19.124 42.686-42.686 42.686h42.686c23.562 0 42.656-19.124 42.656-42.686V469.314c-0.002-23.562-85.342-85.31-85.342-85.31z" fill="#FFFFFF" opacity=".2" /><path d="M778.648 320.006c-48.344 0-93.496-8.218-127.09-23.156-26.876-11.936-43.562-27.592-43.562-40.842s16.688-28.906 43.562-40.842c33.594-14.938 78.746-23.156 127.09-23.156 48.376 0 93.496 8.218 127.122 23.156 26.844 11.936 43.562 27.592 43.562 40.842s-16.718 28.906-43.562 40.842c-33.626 14.938-78.746 23.156-127.122 23.156z" fill="#F5F7FA" /><path d="M778.648 170.666c-106.028 0-191.996 38.218-191.996 85.342s85.968 85.31 191.996 85.31c106.058 0 191.996-38.188 191.996-85.31s-85.936-85.342-191.996-85.342z m110.81 109.842c-30.152 11.718-69.496 18.154-110.808 18.154s-80.652-6.436-110.808-18.154c-26.312-10.188-36.062-20.812-38.188-24.5 2.124-3.718 11.876-14.312 38.188-24.532 30.156-11.688 69.496-18.154 110.808-18.154s80.656 6.466 110.808 18.154c26.312 10.218 36.062 20.812 38.218 24.532-2.156 3.688-11.906 14.312-38.218 24.5z" fill="#E6E9ED" /><path d="M970.644 256.008H586.652v170.652c0 153.996 87.624 355.708 85.344 426.644-2.282 70.966-64 85.342-64 170.682h341.336c0-85.34-61.718-99.714-64-170.682-2.312-70.936 85.312-272.648 85.312-426.644v-170.652z" fill="#FFCE54" /><path d="M138.666 554.656H394.66v298.648H138.666z" fill="#ED5564" /><path d="M607.996 1023.986h341.336c0-27.154-6.25-47.122-14.844-63.996H622.84c-8.594 16.876-14.844 36.842-14.844 63.996z" fill="#E6E9ED" /><path d="M906.644 512c0-11.78-9.532-21.342-21.312-21.342H671.996c-11.782 0-21.344 9.562-21.344 21.342 0 11.784 9.562 21.312 21.344 21.312h213.336A21.296 21.296 0 0 0 906.644 512z" fill="#DA4453" /><path d="M863.988 512c0 47.124-38.214 85.31-85.34 85.31S693.34 559.124 693.34 512s38.184-85.34 85.308-85.34 85.34 38.216 85.34 85.34z" fill="#ED5564" /><path d="M245.35 42.67c0 11.782-9.562 21.344-21.342 21.344s-21.344-9.562-21.344-21.344 9.562-21.344 21.344-21.344 21.342 9.562 21.342 21.344zM202.664 42.67c0 11.782-9.53 21.344-21.312 21.344s-21.342-9.562-21.342-21.344h42.654zM288.006 42.67c0 11.782-9.562 21.344-21.342 21.344-11.782 0-21.312-9.562-21.312-21.344s9.532-21.344 21.312-21.344c11.78 0 21.342 9.562 21.342 21.344zM330.662 42.67c0 11.782-9.532 21.344-21.312 21.344-11.782 0-21.344-9.562-21.344-21.344s9.562-21.344 21.344-21.344c11.78 0 21.312 9.562 21.312 21.344zM373.348 42.67c0 11.782-9.562 21.344-21.344 21.344-11.78 0-21.342-9.562-21.342-21.344h42.686z" fill="#DA4453" /><path d="M373.348 42.67L352.004 0.014H181.352L160.01 42.67z" fill="#ED5564" /><path d="M586.652 256.008h383.992v85.31H586.652z" fill="#E6E9ED" /><path d="M970.644 256.008h-42.656v170.652c0 153.996-87.622 355.708-85.34 426.644 2.312 70.966 63.996 85.342 63.996 170.682h42.688c0-85.34-61.718-99.714-64-170.682-2.312-70.936 85.312-272.648 85.312-426.644v-170.652z" fill="#FFFFFF" opacity=".2" /></svg>