<?xml version="1.0" standalone="no"?><!DOCTYPE svg PUBLIC "-//W3C//DTD SVG 1.1//EN" "http://www.w3.org/Graphics/SVG/1.1/DTD/svg11.dtd"><svg class="icon" width="128px" height="128.00px" viewBox="0 0 1024 1024" version="1.1" xmlns="http://www.w3.org/2000/svg"><path d="M42.668917 511.999v170.651667l42.717916 213.369583-0.03 127.96375h213.305584l0.062-127.83975 42.623916-213.493583V511.999z" fill="#E6E9ED" /><path d="M51.2329 725.304583l34.153933 170.715667-0.03 127.96375h213.305584l0.062-127.83975 34.093933-170.839667z" fill="#FFCE54" /><path d="M490.658042 135.511735h42.685916v103.121799h-42.685916zM320.004375 149.321708c0-11.779977-9.561981-21.309958-21.341958-21.309958H192.008625c-11.781977 0-21.343958 9.531981-21.343958 21.309958 0 11.781977 9.561981 21.343958 21.343958 21.343959h85.339833v81.77984h42.655917V149.321708z" fill="#434A54" /><path d="M256.0065 618.652792c0 11.781977-9.561981 21.343958-21.341958 21.343958-11.781977 0-21.311958-9.561981-21.311959-21.343958s9.531981-21.343958 21.311959-21.343959c11.779977 0 21.341958 9.563981 21.341958 21.343959zM256.0065 682.650667c0 11.781977-9.561981 21.343958-21.341958 21.343958-11.781977 0-21.311958-9.561981-21.311959-21.343958 0-11.779977 9.531981-21.341958 21.311959-21.341959 11.779977 0 21.341958 9.563981 21.341958 21.341959z" fill="#FFCE54" /><path d="M298.662417 511.999v170.651667l-42.591917 213.493583-0.064 127.83975h42.655917l0.062-127.83975 42.623916-213.493583V511.999z" fill="#FFFFFF" opacity=".2" /><path d="M298.880416 445.719129l-41.217919-11.029978-30.96794 115.589774a21.263958 21.263958 0 0 0-0.717998 5.499989c0 11.781977 9.531981 21.343958 21.311958 21.343959 9.875981 0 18.155965-6.717987 20.59396-15.811969h0.032l30.965939-115.591775z" fill="#CCD1D9" /><path d="M336.974342 468.345085l-123.621759-33.123935 52.685897-196.589616 123.621759 33.125935z" fill="#434A54" /><path d="M192.008625 213.321583c-35.341931 0-63.999875 28.779944-63.999875 63.997875 0 35.247931 28.655944 63.809875 63.999875 63.809876l277.335458 0.187999v-127.99575H192.008625z" fill="#656D78" /><path d="M554.655917 213.321583h-127.99775v127.99575c400.427218 85.341833 127.99775 682.666667 127.99775 682.666667h341.331333s108.375788-746.664542-341.331333-810.662417z" fill="#ED5564" /><path d="M512 895.98825h469.331083v127.99575H512z" fill="#434A54" /><path d="M512 149.321708c-35.279931 0-63.997875-28.685944-63.997875-63.997875 0-35.279931 28.717944-63.997875 63.997875-63.997875 35.281931 0 63.995875 28.717944 63.995875 63.997875 0 35.311931-28.713944 63.997875-63.995875 63.997875z" fill="#FFCE54" /><path d="M512 0.014c-47.123908 0-85.341833 38.187925-85.341833 85.309833 0 47.123908 38.217925 85.341833 85.341833 85.341834 47.123908 0 85.339833-38.215925 85.339833-85.341834C597.339833 38.201925 559.123908 0.014 512 0.014z m0 127.99775c-23.529954 0-42.655917-19.155963-42.655917-42.687917 0-23.497954 19.123963-42.653917 42.655917-42.653916s42.655917 19.155963 42.655917 42.653916c0 23.531954-19.123963 42.687917-42.655917 42.687917z" fill="#656D78" /><path d="M320.004375 1002.642042c0-11.781977-9.561981-21.343958-21.341958-21.343959H85.356833c-11.781977 0-21.343958 9.561981-21.343958 21.343959s9.561981 21.341958 21.343958 21.341958h213.305584c11.781977 0 21.341958-9.559981 21.341958-21.341958z" fill="#F6BB42" /></svg>