<?xml version="1.0" standalone="no"?><!DOCTYPE svg PUBLIC "-//W3C//DTD SVG 1.1//EN" "http://www.w3.org/Graphics/SVG/1.1/DTD/svg11.dtd"><svg class="icon" width="128px" height="128.00px" viewBox="0 0 1024 1024" version="1.1" xmlns="http://www.w3.org/2000/svg"><path d="M576.008 42.666c-11.75 0-21.312 9.562-21.312 21.342v445.288h42.622V64.01c-0.002-11.782-9.498-21.344-21.31-21.344zM405.37 170.664c-11.782 0-21.344 9.546-21.344 21.328v445.286h42.656V191.992c0-11.782-9.532-21.328-21.312-21.328z" fill="#A0D468" /><path d="M501.336 677.434h106.668V199.1l-106.668-71.106zM480.024 762.778h-106.654V284.426l106.654-71.106z" fill="#8CC153" /><path d="M548.758 963.68c-0.75-11.218-5.484-27.562-23.546-41.782-5.062-3.968-6-7.468-6.25-10.062-1-10.624 8.844-25.656 13.75-31.282l-16-14.094-15.936-14.188c-2.782 3.124-27.124 31.5-24.312 63.282 1.406 15.688 9.124 29.468 22.376 39.876 6.218 4.906 7.186 8.688 7.374 11.124 0.594 7.688-6.25 17.75-9.686 21.438l0.124-0.124v0.032a21.182 21.182 0 0 0-5.968 14.746c0 11.782 9.562 21.344 21.342 21.344 6.032 0 11.468-2.532 15.344-6.562l0.032 0.032c2.402-2.502 23.356-25.218 21.356-53.78z" fill="#C6325C" /><path d="M544.008 549.438h-106.638V71.12L544.008 0.01z" fill="#A0D468" /><path d="M810.624 554.688c0 170.684-188.808 341.304-298.602 341.304-109.84 0-298.65-170.622-298.65-341.304 0-153.138 133.716-213.292 298.65-213.292 164.92-0.002 298.602 60.154 298.602 213.292z" fill="#D63A5F" /><path d="M512.024 341.394c-7.188 0-14.28 0.124-21.342 0.344 154.948 5.078 277.324 66.484 277.324 212.95 0 160.058-166.062 320.086-277.324 339.368 7.376 1.282 14.5 1.938 21.342 1.938 109.792 0 298.602-170.622 298.602-341.304-0.002-153.14-133.684-213.296-298.602-213.296z" fill="#FFFFFF" opacity=".2" /></svg>