<?xml version="1.0" standalone="no"?><!DOCTYPE svg PUBLIC "-//W3C//DTD SVG 1.1//EN" "http://www.w3.org/Graphics/SVG/1.1/DTD/svg11.dtd"><svg class="icon" width="128px" height="128.00px" viewBox="0 0 1024 1024" version="1.1" xmlns="http://www.w3.org/2000/svg"><path d="M680.308 0.01S416.83 27.478 426.83 297.458c6 161.872 227.604 128.45 168.166-5-68.168-152.996 128-207.122 128-207.122L680.308 0.01z" fill="#A0D468" /><path d="M722.996 85.336L680.308 0.01s-15.438 1.61-38.718 7.876l38.718 77.452s-196.152 54.124-127.966 207.122c27.282 61.28-4.686 101.452-47.81 111.326 59.716 13.39 126.372-30.718 90.464-111.326-68.168-152.998 128-207.124 128-207.124z" opacity=".1" /><path d="M320.254 997.554h383.99c234.306 0 319.648-756.596 127.996-756.596H192.256c-192.354 0-107.028 756.596 127.998 756.596z" fill="#E9573F" /><path d="M234.928 240.958H192.256c-192.354 0-107.028 756.596 127.998 756.596h42.67c-235.024 0-320.35-756.596-127.996-756.596zM789.086 240.958h42.656c192.34 0 107.03 756.596-127.996 756.596h-42.656c234.996 0 320.336-756.596 127.996-756.596z" opacity=".1" /><path d="M669.746 213.32H354.02c-140.794 0.016-119.404 171.73-119.404 341.43 0 169.684 63.952 469.238 173.45 469.238h207.65c109.5 0 173.902-342.242 173.902-469.332 0-127.108 20.936-341.322-119.872-341.336z" fill="#FC6E51" /></svg>