<?xml version="1.0" standalone="no"?><!DOCTYPE svg PUBLIC "-//W3C//DTD SVG 1.1//EN" "http://www.w3.org/Graphics/SVG/1.1/DTD/svg11.dtd"><svg class="icon" width="128px" height="128.00px" viewBox="0 0 1024 1024" version="1.1" xmlns="http://www.w3.org/2000/svg"><path d="M618.624 917.366c0 58.906-47.718 106.624-106.624 106.624s-106.622-47.716-106.622-106.624c0-58.904 47.716-106.652 106.622-106.652s106.624 47.746 106.624 106.652z" fill="#F6BB42" /><path d="M766.308 341.254c-2.25-51.5-32.532-170.84-255.966-170.84-223.432 0-253.806 119.34-256.056 170.84-16.468 378.024-105.59 518.488-105.59 518.488-12.562 19.812-6.718 46.436 12.968 59.186 0 0 29.312 18.968 348.992 19.718 319.682 0.718 348.836-19 348.836-19 19.406-13.124 25.032-40.092 12.468-59.904 0 0-89.182-140.464-105.652-518.488z" fill="#FFCE54" /><path d="M445.344 800.65c-111.904-2.688-206.902-11.688-262.682-18.876-5.718 16.344-11.062 29.938-15.75 40.936 65.124 8.876 194.434 21.376 343.586 21.376 163.998 0 294.088-11.032 345.524-16.124-4.782-10.812-10.312-24.498-16.31-41.28-54.186 5.094-166.874 13.844-307.59 14.688l-86.778-0.72z" fill="#F6BB42" /><path d="M553.186 260.35l31.938-19.938L512 253.162l-73.124-12.75 31.936 19.938-343.46 59.842 9.25 24.188c0.812 2.156 21.03 52.654 100.498 52.654h0.032c64.374 0 150.278-33.216 255.276-98.748l19.592-12.25 19.592 12.25c105 65.53 190.904 98.748 255.31 98.748 79.496 0 99.684-50.53 100.528-52.654l9.218-24.188-343.462-59.842z" fill="#DA4453" /><path d="M871.368 40.76C852.65 14.104 823.526 0.01 787.122 0.01 741.06 0.01 656.28 23.134 512 131.444 367.69 23.136 282.942 0.012 236.912 0.012c-36.438 0-65.562 14.094-84.28 40.75-51.624 73.436-58.53 191.588-17.592 301.056 4.282 11.468 14.594 18.344 27.562 18.344 11.75 0 24.906-5.344 46.686-14.156 43.218-17.532 115.56-46.812 219.308-46.812 23.968 0 48.686 1.594 73.404 4.718 2.688 0.562 5.406 0.938 8.124 1.124l1.5 0.156 0.376-0.03 0.376 0.03 1.5-0.156a59.926 59.926 0 0 0 8.124-1.124c24.718-3.124 49.438-4.718 73.406-4.718 103.748 0 176.06 29.28 219.278 46.812 21.812 8.812 34.966 14.156 46.716 14.156 12.968 0 23.282-6.876 27.562-18.344 40.936-109.468 34.03-227.622-17.594-301.058z" fill="#ED5564" /><path d="M512 286.504c-47.03 0-85.31-38.28-85.31-85.31S464.968 115.884 512 115.884s85.312 38.28 85.312 85.31-38.282 85.31-85.312 85.31z" fill="#F6BB42" /><path d="M512 158.54c-23.53 0-42.656 19.124-42.656 42.656s19.124 42.656 42.656 42.656 42.656-19.124 42.656-42.656S535.53 158.54 512 158.54z" fill="#FFCE54" /></svg>