<?xml version="1.0" standalone="no"?><!DOCTYPE svg PUBLIC "-//W3C//DTD SVG 1.1//EN" "http://www.w3.org/Graphics/SVG/1.1/DTD/svg11.dtd"><svg class="icon" width="128px" height="128.00px" viewBox="0 0 1024 1024" version="1.1" xmlns="http://www.w3.org/2000/svg"><path d="M726.872 425.962s-230.896 285.602-181.102 565.206c0 0 238.864-154.14 181.102-565.206zM428.212 401.534c-4.78-17.62-25.086-70.384-54.388-81.288-11.716-4.374-24.776-1.53-39.926 8.686l-23.836-35.426c33.676-22.68 61.418-19.712 78.756-13.246 55.11 20.588 78.196 101.032 80.632 110.154l-41.238 11.09 20.62-5.56-20.62 5.59z" fill="#8CC153" /><path d="M546.988 1023.844h44.458c-16.528-56.482-63.014-222.776-93.254-402.47-21.68-128.868-30.866-239.022-27.242-327.462 4.344-106.686 26.992-180.29 67.386-218.808 18.868-17.994 41.33-28.21 68.666-31.272 30.552-3.436 67.166 2.468 108.748 17.526l14.528-40.174c-94.91-34.334-169.386-26.586-221.4 23.024-86.412 82.412-104.156 278.978-52.796 584.26 28.676 170.29 71.79 328.832 90.906 395.376z" fill="#A0D468" /><path d="M336.99 291.786s-18.932-12.152-55.452-12.152c-39.488 0-99.532 14.214-178.476 73.322-33.428 25.054-66.824 29.398-85.912 29.398-10.152 0-16.276-1.218-16.276-1.218 16.494 57.17 55.326 62.668 72.448 62.668 4.092 0 6.934-0.312 7.934-0.312 0.25 0 0.376 0 0.406 0.062 0.656 0.75-6.124 64.824 16.308 87.256 14.432 14.432 46.142 16.774 67.104 16.774 9.998 0 17.556-0.53 19.62-0.53 0.312 0 0.5 0 0.532 0.062 0.968 0.78-11.496 59.452 62.418 80.788 0 0-10.184-50.984 28.18-102.188 113.776-151.956 61.166-233.93 61.166-233.93z" fill="#4A89DC" /><path d="M1010.16 126.742c-17.872 0-51.704-4.092-85.1-30.334-77.318-60.794-136.302-74.882-174.384-74.882-32.894 0-50.14 10.528-50.14 10.528s-52.672 78.006 53.796 227.274c35.894 50.328 24.898 99.344 24.898 99.344 71.884-18.932 61.136-75.882 62.106-76.632 0.032-0.032 0.156-0.032 0.344-0.032 1.968 0 12.184 1.032 25.148 1.032 19.9 0 46.236-2.436 59.138-14.746 22.182-21.182 17.088-83.194 17.712-83.944 0.032-0.032 0.124-0.032 0.312-0.032 1.032 0 4.5 0.5 9.53 0.5 17.306 0 52.982-5.966 69.604-58.92 0 0-4.812 0.844-12.964 0.844z" fill="#5D9CEC" /></svg>