<?xml version="1.0" standalone="no"?><!DOCTYPE svg PUBLIC "-//W3C//DTD SVG 1.1//EN" "http://www.w3.org/Graphics/SVG/1.1/DTD/svg11.dtd"><svg class="icon" width="128px" height="128.00px" viewBox="0 0 1024 1024" version="1.1" xmlns="http://www.w3.org/2000/svg"><path d="M1005.02 18.75c-25-24.968-65.466-24.968-90.436 0l-488.32 488.304 90.436 90.418L1005.02 109.186c24.966-24.97 24.966-65.468 0-90.436z" fill="#434A54" /><path d="M254.064 889.188c-32.5 32.498-85.186 32.498-117.686 0-32.514-32.532-32.514-85.188 0-117.718 32.5-32.5 85.202-32.532 117.702 0 32.514 32.498 32.5 85.186-0.016 117.718z" fill="#F6BB42" /><path d="M653.556 652.722c27.156-29.656 76.342-112.232-46.998-235.542-123.31-123.326-205.934-74.216-235.606-47.03C153.222 569.662 26.506 598.004 26.506 598.004c-17.86 4-29.344 21.938-25.516 39.844 0 0 5.718 26.624 181.748 203.496 176.044 176.84 203.012 182.028 203.012 182.028 17.952 3.468 35.952-8.312 39.952-26.188 0 0 28.296-126.746 227.854-344.462z" fill="#FFCE54" /><path d="M222.846 729.126c-60.28-63.248-107.732-120.654-134.56-155.404a521.002 521.002 0 0 1-31.282 13.906c31.046 40.844 95.514 119.092 177.84 201.434 90.514 90.5 168.404 156.216 199.59 181.808 3.344-8.624 7.844-19.216 13.782-31.81-32.718-27.094-99.732-84.436-177.872-161.654l-47.498-48.28z" fill="#F6BB42" /><path d="M580.558 490.46l28.656 6.624-47.406-33.344-33.312-47.374 6.624 28.624-222.604-156.544-8.234 18.454c-0.75 1.656-17.454 40.688 26.406 84.53l0.016 0.032c35.53 35.53 101.278 64.592 195.386 86.374l17.578 4.062 4.046 17.562c21.782 94.106 50.876 159.856 86.406 195.416 43.874 43.874 82.904 27.124 84.56 26.406l18.436-8.25-156.558-222.572z" fill="#DA4453" /><path d="M877.396 544.85c4.376-25.016-3.938-48.89-24.032-68.984-25.406-25.406-84.968-59.436-224.37-79.28-19.876-139.436-53.876-198.982-79.282-224.386-20.124-20.11-43.968-28.406-69.014-24.032-69.03 12.046-138.044 73.452-175.872 156.45-3.968 8.688-2.062 18.188 5.094 25.344 6.484 6.5 16.688 10.812 33.578 17.968 33.532 14.156 89.608 37.936 146.874 95.184 13.234 13.25 25.998 27.75 37.92 43.124 1.172 1.812 2.454 3.5 3.86 5.094l0.734 0.938 0.234 0.188 0.188 0.218 0.906 0.75a47.244 47.244 0 0 0 5.11 3.844c15.36 11.938 29.89 24.686 43.11 37.906 57.25 57.264 80.998 113.326 95.186 146.858 7.188 16.904 11.5 27.124 17.968 33.592 7.156 7.156 16.656 9.062 25.342 5.094 82.998-37.81 144.404-106.842 156.466-175.87z" fill="#ED5564" /><path d="M543.418 482.148c-25.968-25.938-25.968-68.218 0-94.154 25.954-25.968 68.204-25.968 94.172 0 25.936 25.936 25.936 68.216 0 94.154-25.968 25.968-68.218 25.968-94.172 0z" fill="#F6BB42" /><path d="M614.028 411.524c-12.968-12.968-34.094-12.968-47.094 0-12.968 13-12.968 34.092 0 47.092 13 12.968 34.124 13 47.094 0 13-13 13-34.094 0-47.092z" fill="#FFCE54" /></svg>