<?xml version="1.0" standalone="no"?><!DOCTYPE svg PUBLIC "-//W3C//DTD SVG 1.1//EN" "http://www.w3.org/Graphics/SVG/1.1/DTD/svg11.dtd"><svg class="icon" width="128px" height="128.00px" viewBox="0 0 1024 1024" version="1.1" xmlns="http://www.w3.org/2000/svg"><path d="M684.776 457.152c-11.844-20.53-33.342-32.014-55.466-32a63.5 63.5 0 0 0-31.936 8.578c-30.624 17.672-41.094 56.81-23.438 87.42 11.876 20.532 33.376 32 55.498 32 10.844 0 21.844-2.782 31.938-8.594 30.59-17.656 41.09-56.796 23.404-87.404z m-44.748 50.468a20.926 20.926 0 0 1-10.594 2.876c-7.748 0-14.686-4-18.53-10.672-5.906-10.188-2.406-23.264 7.782-29.14 3.312-1.906 6.874-2.876 10.624-2.876 7.75 0 14.656 3.984 18.532 10.67 5.872 10.188 2.372 23.266-7.814 29.142zM426.72 48.52a63.686 63.686 0 0 0-31.936-8.592c-22.124 0-43.624 11.484-55.468 32.014-17.686 30.61-7.188 69.748 23.406 87.42a63.826 63.826 0 0 0 31.936 8.578c22.124 0 43.624-11.468 55.468-32 17.688-30.608 7.188-69.748-23.406-87.42z m-13.53 66.076c-3.842 6.688-10.78 10.688-18.53 10.688a20.82 20.82 0 0 1-10.594-2.876c-10.188-5.876-13.688-18.952-7.812-29.14 3.844-6.688 10.782-10.672 18.532-10.672 3.75 0 7.312 0.968 10.594 2.86 10.184 5.892 13.684 18.954 7.81 29.14z" fill="#F6BB42" /><path d="M989.644 600.054c70.688 122.436 28.748 278.994-93.686 349.68s-278.992 28.75-349.68-93.686c-70.684-122.436-28.718-278.994 93.716-349.664 122.438-70.684 278.964-28.734 349.65 93.67zM34.354 214.86C-36.332 337.294 5.606 493.838 128.04 564.524s278.994 28.75 349.68-93.684c70.684-122.434 28.716-278.978-93.716-349.664C261.568 50.488 105.042 92.426 34.354 214.86z" fill="#FFCE54" /><path d="M1003.676 628.21a256.46 256.46 0 0 0-21.844-40.812c-21.092 27.282-79.06 91.404-201.088 161.872-122.154 70.53-207.184 88.874-241.528 93.624a267.58 267.58 0 0 0 7.062 13.156 264.912 264.912 0 0 0 17.312 26.156c45.688-8.624 127.808-32.094 238.462-95.998 110.376-63.718 171.436-122.812 201.624-157.998z" fill="#F6BB42" /><path d="M913.99 938.296l-52.876-91.592c-5.906-10.218-18.938-13.688-29.154-7.812-10.188 5.906-13.688 18.938-7.812 29.156 0.032 0 0.032 0 0.032 0.032l52.874 91.56c6.376-3.032 12.688-6.312 18.906-9.906s12.218-7.406 18.03-11.438z" fill="#434A54" /><path d="M242.412 365.608c-131.716-76.03-186.12-144.452-199.87-163.95a245.07 245.07 0 0 0-8.188 13.204 253.83 253.83 0 0 0-14 28.062c26.906 32.906 86.56 93.732 200.714 159.622 114.404 66.046 197.308 87.452 239.37 94.388a260.818 260.818 0 0 0 17.282-26.092 283.742 283.742 0 0 0 7.344-13.718c-24.126-2.3-111.062-15.55-242.652-91.516z" fill="#F6BB42" /><path d="M192.04 453.684c-10.218-5.89-23.25-2.39-29.156 7.812l-52.874 91.592a257.66 257.66 0 0 0 18.032 11.436 265.592 265.592 0 0 0 18.906 9.906l52.874-91.576s0.032-0.016 0.032-0.032c5.872-10.202 2.372-23.248-7.814-29.138z" fill="#434A54" /></svg>