<?xml version="1.0" standalone="no"?><!DOCTYPE svg PUBLIC "-//W3C//DTD SVG 1.1//EN" "http://www.w3.org/Graphics/SVG/1.1/DTD/svg11.dtd"><svg class="icon" width="128px" height="128.00px" viewBox="0 0 1024 1024" version="1.1" xmlns="http://www.w3.org/2000/svg"><path d="M897.054 126.936c-8.31-8.328-21.808-8.328-30.184 0l-89.874 89.886 30.188 30.17 89.87-89.886c8.314-8.326 8.314-21.826 0-30.17z" fill="#F5BA45" /><path d="M739.968 163.358L0.028 903.296l15.078 105.624 105.59 15.06 739.926-739.94-120.654-120.682zM233.346 820.834c-8.328 8.344-21.844 8.344-30.172 0s-8.328-21.844 0-30.156a21.256 21.256 0 0 1 30.172 0c8.328 8.312 8.328 21.812 0 30.156z m90.512-90.53c-8.342 8.344-21.842 8.344-30.17 0-8.328-8.312-8.328-21.812 0-30.154 8.328-8.344 21.828-8.344 30.17 0 8.328 8.342 8.328 21.842 0 30.154z m90.498-90.496c-8.328 8.31-21.828 8.31-30.17 0-8.328-8.312-8.328-21.812 0-30.188 8.344-8.31 21.842-8.31 30.17 0 8.328 8.376 8.328 21.876 0 30.188z m90.512-90.496c-8.328 8.312-21.844 8.312-30.172 0-8.328-8.344-8.328-21.844 0-30.172s21.844-8.328 30.172 0 8.328 21.828 0 30.172z" fill="#7F4545" /><path d="M248.424 775.552a42.33 42.33 0 0 0-30.156-12.5h-0.016a42.338 42.338 0 0 0-30.156 12.5c-16.64 16.656-16.64 43.718 0 60.376 8.046 8.06 18.764 12.498 30.17 12.498a42.344 42.344 0 0 0 30.156-12.498 42.408 42.408 0 0 0 12.5-30.188 42.456 42.456 0 0 0-12.498-30.188z m-15.078 45.282a21.28 21.28 0 0 1-15.078 6.218 21.292 21.292 0 0 1-15.094-6.218c-8.328-8.344-8.328-21.844 0-30.156a21.188 21.188 0 0 1 15.094-6.25 21.18 21.18 0 0 1 15.078 6.25c8.328 8.312 8.328 21.812 0 30.156zM338.936 685.056a42.366 42.366 0 0 0-30.17-12.5 42.394 42.394 0 0 0-30.17 12.5c-16.624 16.624-16.624 43.716 0 60.34a42.398 42.398 0 0 0 30.17 12.5 42.366 42.366 0 0 0 30.17-12.5c16.64-16.622 16.64-43.714 0-60.34z m-15.078 45.248a21.188 21.188 0 0 1-15.092 6.25 21.16 21.16 0 0 1-15.078-6.25c-8.328-8.312-8.328-21.812 0-30.154a21.286 21.286 0 0 1 15.078-6.25 21.32 21.32 0 0 1 15.092 6.25c8.328 8.342 8.328 21.842 0 30.154zM429.45 594.56a42.398 42.398 0 0 0-30.17-12.5 42.364 42.364 0 0 0-30.17 12.5c-8.062 8.062-12.5 18.748-12.5 30.186a42.38 42.38 0 0 0 12.5 30.154c8.062 8.032 18.764 12.5 30.17 12.5 11.39 0 22.108-4.468 30.17-12.5a42.434 42.434 0 0 0 12.482-30.154c0-11.438-4.436-22.122-12.482-30.186z m-15.094 45.248a21.16 21.16 0 0 1-15.078 6.248 21.2 21.2 0 0 1-15.094-6.248c-8.328-8.312-8.328-21.812 0-30.188a21.422 21.422 0 0 1 30.172 0c8.328 8.376 8.328 21.876 0 30.188zM519.946 504.048a42.418 42.418 0 0 0-30.17-12.484 42.388 42.388 0 0 0-30.156 12.484 42.394 42.394 0 0 0-12.5 30.17c0 11.406 4.438 22.094 12.5 30.156 8.046 8.062 18.764 12.498 30.156 12.498a42.364 42.364 0 0 0 30.17-12.498c16.64-16.624 16.64-43.686 0-60.326z m-15.078 45.264a21.322 21.322 0 0 1-15.094 6.25 21.314 21.314 0 0 1-15.078-6.25c-8.328-8.344-8.328-21.844 0-30.172a21.246 21.246 0 0 1 15.078-6.25 21.26 21.26 0 0 1 15.094 6.25c8.328 8.328 8.328 21.828 0 30.172z" fill="#602B2B" /><path d="M1017.738 126.936L897.054 6.268a21.208 21.208 0 0 0-15.06-6.25 21.304 21.304 0 0 0-15.124 6.25l-150.808 150.838c-8.342 8.328-8.342 21.842 0 30.17l120.686 120.684c4.124 4.156 9.624 6.25 15.06 6.25s10.938-2.094 15.062-6.25l150.868-150.854c8.312-8.326 8.312-21.826 0-30.17z m-165.93 135.762L761.31 172.2l120.684-120.682 90.498 90.512-120.684 120.668z" fill="#FECD57" /></svg>