<?xml version="1.0" standalone="no"?><!DOCTYPE svg PUBLIC "-//W3C//DTD SVG 1.1//EN" "http://www.w3.org/Graphics/SVG/1.1/DTD/svg11.dtd"><svg class="icon" width="128px" height="128.00px" viewBox="0 0 1024 1024" version="1.1" xmlns="http://www.w3.org/2000/svg"><path d="M362.674 106.666c-94.108 0-170.652 76.56-170.652 170.652 0 94.124 76.544 170.684 170.652 170.684s170.666-76.56 170.666-170.684c0.002-94.092-76.558-170.652-170.666-170.652z" fill="#DA4453" /><path d="M362.676 277.318m-63.998 0a63.998 63.998 0 1 0 127.996 0 63.998 63.998 0 1 0-127.996 0Z" fill="#434A54" /><path d="M362.674 362.66c-47.046 0-85.326-38.28-85.326-85.342s38.28-85.31 85.326-85.31c47.062 0 85.326 38.25 85.326 85.31s-38.264 85.342-85.326 85.342z m0-127.996c-23.53 0-42.656 19.124-42.656 42.656s19.124 42.686 42.656 42.686 42.67-19.156 42.67-42.686-19.138-42.656-42.67-42.656z" fill="#C1364B" /><path d="M405.346 298.662H320.02a21.32 21.32 0 0 0-21.342 21.344v618.644c0 11.778 9.546 21.34 21.342 21.34h85.326c11.782 0 21.328-9.562 21.328-21.34V320.004a21.32 21.32 0 0 0-21.328-21.342z" fill="#AAB2BC" /><path d="M957.74 929.118l-85.312-170.684a21.356 21.356 0 0 0-19.092-11.782h-85.342a21.256 21.256 0 0 0-18.124 10.124 21.25 21.25 0 0 0-0.938 20.746l85.31 170.652a21.384 21.384 0 0 0 19.094 11.812h85.342c7.376 0 14.25-3.844 18.124-10.124 3.876-6.312 4.25-14.152 0.938-20.744z" fill="#CCD1D9" /><path d="M938.678 618.652H21.354c-5.656 0-11.094 2.25-15.094 6.25s-6.25 9.406-6.25 15.094l0.014 64c0 47.032 38.282 85.308 85.328 85.308h853.324c47.062 0 85.31-38.278 85.31-85.308 0.002-47.062-38.246-85.344-85.308-85.344z" fill="#5D9CEC" /><path d="M6.26 646.214c4-4 9.438-6.218 15.094-6.218h917.324c43.438 0 79.374 32.624 84.624 74.656 0.438-3.5 0.688-7.062 0.688-10.656 0-47.062-38.248-85.344-85.31-85.344H21.354c-5.656 0-11.094 2.25-15.094 6.25s-6.25 9.406-6.25 15.094l0.014 21.312a21.356 21.356 0 0 1 6.236-15.094z" fill="#FFFFFF" opacity=".2" /><path d="M234.678 149.322H149.352c-11.782 0-21.328 9.562-21.328 21.344v767.984c0 11.778 9.546 21.34 21.328 21.34h85.326c11.782 0 21.344-9.562 21.344-21.34V170.666c0-11.782-9.564-21.344-21.344-21.344z" fill="#CCD1D9" /><path d="M192.022 64.01C86.148 64.01 0.012 150.134 0.012 256.006c0 105.84 86.138 191.996 192.01 191.996 105.858 0 191.98-86.154 191.98-191.996 0-105.872-86.122-191.996-191.98-191.996z" fill="#ED5564" /><path d="M256.022 256.006c0 35.342-28.656 63.998-64 63.998-35.358 0-63.998-28.656-63.998-63.998 0-35.376 28.64-64 63.998-64 35.344 0.002 64 28.626 64 64z" fill="#656D78" /><path d="M192.022 341.318c-47.062 0-85.342-38.282-85.342-85.31 0-47.062 38.28-85.342 85.342-85.342 47.046 0 85.326 38.28 85.326 85.342 0 47.028-38.28 85.31-85.326 85.31z m0-127.998c-23.53 0-42.67 19.156-42.67 42.688 0 23.5 19.14 42.654 42.67 42.654 23.514 0 42.656-19.156 42.656-42.654 0-23.532-19.14-42.688-42.656-42.688z" fill="#DA4453" /><path d="M207.1 240.914c8.328 8.312 8.328 21.844 0 30.156-8.328 8.344-21.844 8.344-30.172 0-8.328-8.312-8.328-21.842 0-30.156 8.328-8.344 21.844-8.344 30.172 0z" fill="#434A54" /><path d="M256.022 959.988H128.024c-11.796 0-21.344-9.562-21.344-21.34 0-11.782 9.546-21.344 21.344-21.344h127.998c11.78 0 21.328 9.562 21.328 21.344-0.002 11.778-9.548 21.34-21.328 21.34z" fill="#656D78" /><path d="M426.674 917.304h-127.998c-11.782 0-21.328 9.562-21.328 21.344 0 11.778 9.546 21.34 21.328 21.34h127.998c11.78 0 21.328-9.562 21.328-21.34-0.002-11.78-9.548-21.344-21.328-21.344zM959.99 959.988h-127.998c-11.782 0-21.31-9.562-21.31-21.34 0-11.782 9.53-21.344 21.31-21.344h127.998c11.812 0 21.344 9.562 21.344 21.344 0 11.778-9.532 21.34-21.344 21.34z" fill="#434A54" /></svg>