<?xml version="1.0" standalone="no"?><!DOCTYPE svg PUBLIC "-//W3C//DTD SVG 1.1//EN" "http://www.w3.org/Graphics/SVG/1.1/DTD/svg11.dtd"><svg class="icon" width="128px" height="128.00px" viewBox="0 0 1024 1024" version="1.1" xmlns="http://www.w3.org/2000/svg"><path d="M234.638792 256.0065h-0.217997c-11.781839-0.123998-21.21771-9.781866-21.093712-21.561705 0.781989-76.746951-30.529583-132.152193-93.058727-164.61975-48.717334-25.281654-99.058646-27.123629-99.558639-27.155628C8.927878 42.293422-0.321996 32.481556 0.022 20.731717 0.365995 8.949878 10.145861-0.267996 21.897701 0.014c2.405967 0.061999 59.373188 1.937974 116.590406 31.217573 54.279258 27.749621 118.714377 85.59083 117.496393 203.649216-0.125998 11.71984-9.657868 21.125711-21.345708 21.125711zM789.293209 256.0065c-11.68784 0-21.18771-9.405871-21.311709-21.123711-1.249983-118.058386 63.187136-175.899595 117.498394-203.649216C942.729111 1.951973 999.664333 0.077999 1002.0383 0.016c11.811839-0.343995 21.623704 8.967877 21.9357 20.749716a21.329708 21.329708 0 0 1-20.747716 21.905701c-1.061985 0.032-51.123301 2.031972-99.558639 27.155628-62.499146 32.467556-93.810717 87.872799-92.998728 164.61975 0.123998 11.781839-9.375872 21.437707-21.123712 21.561705l-0.251996-0.002z" fill="#434A54" /><path d="M859.980243 349.62922c-9.811866-33.781538-20.937714-65.781101-31.437571-90.122768-13.437816-31.279572-22.749689-46.155369-39.249463-46.155369a21.493706 21.493706 0 0 0-14.687799 5.84392L684.674639 304.535836a21.293709 21.293709 0 0 0-6.623909 15.467789c0 82.340874-74.496981 149.337958-166.07573 149.337958-91.590748 0-166.087729-66.997084-166.087729-149.337958 0-5.84392-2.405967-11.437844-6.623909-15.467789l-89.934771-85.340833a21.377708 21.377708 0 0 0-14.687799-5.84392c-16.467775 0-25.781648 14.875797-39.249463 46.155369-10.467857 24.341667-21.623704 56.34123-31.435571 90.122768-15.437789 53.155273-41.311435 159.087825-41.311435 271.428289 0 115.278424 26.623636 207.993156 79.122919 275.584232 65.655102 84.496845 170.027675 127.340259 310.209758 127.340259 140.200083 0 244.570656-42.843414 310.193759-127.340259 52.499282-67.591076 79.122918-160.305808 79.122919-275.584232-0.002-112.340464-25.875646-218.273016-41.313435-271.428289z" fill="#AC92EB" /><path d="M859.980243 349.62922c-9.811866-33.781538-20.937714-65.781101-31.437571-90.122768-13.437816-31.279572-22.749689-46.155369-39.249463-46.155369-3.62395 0-7.187902 0.937987-10.375858 2.687963 10.311859 5.593924 18.123752 19.841729 28.311613 43.467406 10.437857 24.341667 21.623704 56.34123 31.43757 90.122768 15.437789 53.155273 41.311435 159.087825 41.311435 271.428289 0 115.278424-26.623636 207.993156-79.122918 275.584232-63.997125 82.340874-164.741748 125.09029-299.537905 127.246261 3.531952 0.061999 7.061903 0.093999 10.655854 0.093998 140.200083 0 244.570656-42.843414 310.193759-127.340259 52.499282-67.591076 79.122918-160.305808 79.122919-275.584232 0.002-112.340464-25.871646-218.273016-41.309435-271.428289z" fill="#FFFFFF" opacity=".2" /><path d="M674.424779 692.836528c-10.061862-30.873578-38.623472-51.623294-71.059028-51.623295-7.811893 0-15.561787 1.217983-23.061685 3.65595-17.999754 5.84392-47.859346 24.031671-68.391065 46.935359a146.024004 146.024004 0 0 0-8.811879-8.997877c-17.905755-16.967768-41.811428-32.18756-59.435188-37.937482a74.484982 74.484982 0 0 0-23.093684-3.65595 74.526981 74.526981 0 0 0-71.029029 51.623295c-6.155916 18.967741-4.561938 39.217464 4.467939 56.99722 9.061876 17.781757 24.499665 30.967577 43.499405 37.123493 11.623841 3.781948 27.561623 5.87592 44.873387 5.875919 13.061821 0 32.375557-1.217983 50.249313-6.937905 7.841893-2.531965 14.185806-5.561924 19.341735-8.875878 5.157929 3.311955 11.499843 6.343913 19.343736 8.875878 17.859756 5.717922 37.171492 6.937905 50.233313 6.937905 17.311763 0 33.249545-2.093971 44.875387-5.875919 18.99774-6.155916 34.435529-19.343736 43.497405-37.123493 9.061876-17.779757 10.623855-38.02948 4.499938-56.99722z" fill="#F6BB42" /><path d="M628.865402 779.457343c-11.999836-16.593773-38.623472-38.343476-65.749101-50.373311 15.499788-26.593636 23.561678-60.653171 23.561678-79.558912 0-41.187437-33.499542-74.686979-74.702979-74.686979-41.185437 0-74.716978 33.499542-74.716978 74.686979 0 18.531747 7.123903 45.965372 17.717758 68.247067a163.977758 163.977758 0 0 0 5.905919 11.281845c-27.155629 12.029836-53.749265 33.779538-65.8091 50.403311-11.749839 16.12378-16.499774 35.87551-13.375817 55.59324s13.749812 37.031494 29.873591 48.749334c12.873824 9.343872 28.029617 14.279805 43.8734 14.279805 21.749703 0 42.43542-9.591869 56.529227-25.873647 14.093807 16.281777 34.765525 25.873646 56.515228 25.873647 15.875783 0 30.999576-4.935933 43.8754-14.279805 16.12378-11.71784 26.749634-29.031603 29.875591-48.749334 3.123957-19.71773-1.623978-39.46746-13.373817-55.59324z" fill="#FFCE54" /><path d="M511.975 672.462806c-35.279518 0-63.999125 28.685608-63.999125 63.997125 0 35.279518 28.717607 63.997125 63.999125 63.997125 35.265518 0 64.015125-28.717607 64.015125-63.997125 0-35.311517-28.749607-63.997125-64.015125-63.997125z" fill="#E6E9ED" /></svg>