<?xml version="1.0" standalone="no"?><!DOCTYPE svg PUBLIC "-//W3C//DTD SVG 1.1//EN" "http://www.w3.org/Graphics/SVG/1.1/DTD/svg11.dtd"><svg class="icon" width="128px" height="128.00px" viewBox="0 0 1024 1024" version="1.1" xmlns="http://www.w3.org/2000/svg"><path d="M686.276 0.02H152.952c-47.062 0-85.34 38.28-85.34 85.326v639.96c0 11.812 9.562 21.374 21.342 21.374h554.634c11.782 0 21.344-9.56 21.344-21.374v-42.624h21.344c11.75 0 21.312-9.562 21.312-21.376V21.348c0-11.782-9.562-21.328-21.312-21.328z" fill="#434A54" /><path d="M152.952 0.02c-47.062 0-85.34 38.28-85.34 85.326v639.96c0 11.812 9.562 21.374 21.342 21.374h50.716l55.934-58.496V0.02H152.952z" fill="#AAB2BC" /><path d="M152.952 661.306c-35.342 0-63.998 28.688-63.998 63.998 0 35.374 28.656 63.996 63.998 63.996h511.98v-127.994H152.952z" fill="#E6E9ED" /><path d="M664.932 810.674H152.952c-47.062 0-85.34-38.308-85.34-85.37 0-47.03 38.28-85.308 85.34-85.308h511.98c11.782 0 21.344 9.562 21.344 21.31v127.994c0 11.814-9.564 21.374-21.344 21.374z m-511.98-127.992c-23.532 0-42.656 19.124-42.656 42.624 0 23.56 19.124 42.686 42.656 42.686h490.636v-85.308H152.952z" fill="#656D78" /><path d="M344.944 746.678H174.294c-11.812 0-21.342-9.56-21.342-21.374 0-11.75 9.53-21.312 21.342-21.312h170.65c11.78 0 21.342 9.562 21.342 21.312 0.002 11.814-9.562 21.374-21.342 21.374z" fill="#CCD1D9" /><path d="M152.952 810.674h42.654v-42.684H152.952c-23.532 0-42.656-19.124-42.656-42.686 0-23.5 19.124-42.624 42.656-42.624h42.654v-42.686H152.952c-47.062 0-85.34 38.28-85.34 85.308 0 47.064 38.278 85.372 85.34 85.372z" fill="#CCD1D9" /><path d="M323.6 725.304H174.294v149.37c0 6.812 3.282 13.28 8.842 17.28a21.304 21.304 0 0 0 19.218 2.938l57.248-19.092 57.248 19.092c2.218 0.718 4.5 1.094 6.75 1.094a21.32 21.32 0 0 0 21.344-21.312v-149.37H323.6z" fill="#ED5564" /><path d="M558.28 674.682h213.302v309.3H558.28z" fill="#DBADA2" /><path d="M936.264 466.596c-20.498-13.406-48.03-7.64-61.436 12.89l-239.772 226.32 184.244 19.812 129.838-197.602c13.436-20.516 7.656-48.03-12.874-61.42z" fill="#DBADA2" /><path d="M814.27 170.684c-23.562 0-42.688 19.094-42.688 42.654v393.344h85.34V213.338c0-23.56-19.092-42.654-42.652-42.654zM707.588 128.016c-23.562 0-42.656 19.108-42.656 42.668V512h85.338V170.684c0-23.56-19.124-42.668-42.682-42.668zM600.934 128.016c-23.56 0-42.654 19.108-42.654 42.668V512h85.308V170.684c0-23.56-19.092-42.668-42.654-42.668zM494.282 256.01c-23.562 0-42.686 19.108-42.686 42.67v308.002h85.34V298.68c0-23.562-19.094-42.67-42.654-42.67z" fill="#EAC6BB" /><path d="M771.582 442.736v15.938c0 5.89-4.75 10.656-10.656 10.656s-10.656-4.766-10.656-10.656v-29.186a201.512 201.512 0 0 0-85.338-23.874v53.06a10.66 10.66 0 0 1-10.656 10.656c-5.906 0-10.688-4.766-10.688-10.656v-53.06a201.396 201.396 0 0 0-85.308 23.874v29.186c0 5.89-4.812 10.656-10.688 10.656s-10.656-4.766-10.656-10.656v-15.938c-51.654 36.734-85.34 97.06-85.34 165.26 0 111.934 90.746 202.678 202.68 202.678 111.9 0 202.646-90.744 202.646-202.678 0-68.2-33.686-128.526-85.34-165.26z" fill="#EAC6BB" /><path d="M793.144 1023.98v-149.306c0-11.812-9.562-21.376-21.312-21.376H558.03c-11.782 0-21.312 9.562-21.312 21.376v149.306h256.426z" fill="#ED5564" /></svg>