<?xml version="1.0" standalone="no"?><!DOCTYPE svg PUBLIC "-//W3C//DTD SVG 1.1//EN" "http://www.w3.org/Graphics/SVG/1.1/DTD/svg11.dtd"><svg class="icon" width="128px" height="128.00px" viewBox="0 0 1024 1024" version="1.1" xmlns="http://www.w3.org/2000/svg"><path d="M213.334 842.672C95.71 842.672 0.01 746.958 0.01 629.3c0-117.604 95.702-213.306 213.324-213.306 117.638 0 213.34 95.702 213.34 213.306 0 117.658-95.702 213.372-213.34 213.372z m0-384.006c-94.092 0-170.654 76.562-170.654 170.636 0 94.124 76.562 170.688 170.654 170.688 94.108 0 170.668-76.562 170.668-170.688 0-94.076-76.56-170.636-170.668-170.636zM810.682 842.672c-117.654 0-213.372-95.714-213.372-213.372 0-117.604 95.716-213.306 213.372-213.306 117.624 0 213.308 95.702 213.308 213.306 0 117.658-95.686 213.372-213.308 213.372z m0-384.006c-94.124 0-170.686 76.562-170.686 170.636 0 94.124 76.562 170.688 170.686 170.688 94.06 0 170.624-76.562 170.624-170.688-0.002-94.076-76.564-170.636-170.624-170.636z" fill="#434A54" /><path d="M362.674 415.994c-11.782 0-21.344-9.546-21.344-21.328v-85.342c0-11.782 9.562-21.328 21.344-21.328s21.328 9.546 21.328 21.328v85.342c0 11.782-9.546 21.328-21.328 21.328z" fill="#CCD1D9" /><path d="M830.556 621.676l-136.06-353.788c-4.218-10.984-16.562-16.484-27.562-12.25s-16.5 16.578-12.25 27.578l19.624 51-314.244 39.28c-0.188 0.016-0.36 0.046-0.546 0.078l-0.796 0.14c-0.406 0.078-0.828 0.156-1.234 0.266-0.266 0.062-0.546 0.156-0.812 0.234-0.282 0.078-0.562 0.14-0.844 0.234-0.11 0.032-0.218 0.094-0.328 0.124-0.282 0.11-0.546 0.218-0.812 0.328a13.556 13.556 0 0 0-1.892 0.874c-0.344 0.172-0.688 0.344-1.016 0.546-0.296 0.172-0.578 0.36-0.86 0.546-0.25 0.172-0.516 0.344-0.782 0.516-0.032 0.032-0.078 0.062-0.124 0.094-0.282 0.218-0.546 0.454-0.828 0.672-0.218 0.172-0.438 0.344-0.64 0.532a1.802 1.802 0 0 0-0.188 0.156c-0.25 0.218-0.484 0.468-0.718 0.718-0.188 0.172-0.376 0.36-0.562 0.546a3.574 3.574 0 0 0-0.234 0.25c-0.172 0.188-0.312 0.39-0.484 0.578-0.046 0.062-0.094 0.11-0.14 0.172l-0.468 0.562-0.25 0.344c-0.124 0.156-0.234 0.344-0.344 0.516l-0.14 0.188c-0.14 0.218-0.312 0.438-0.454 0.672-0.078 0.124-0.156 0.266-0.25 0.406-0.016 0.046-0.046 0.078-0.078 0.124L194.912 639.926a1.32 1.32 0 0 0-0.124 0.218c-0.218 0.406-0.422 0.782-0.624 1.218-0.11 0.218-0.234 0.438-0.328 0.688a13.336 13.336 0 0 0-0.468 1.188c-0.11 0.25-0.218 0.562-0.312 0.812a15.956 15.956 0 0 0-0.296 1.062 11.414 11.414 0 0 0-0.25 1c-0.078 0.312-0.11 0.624-0.172 0.938-0.062 0.376-0.14 0.782-0.188 1.188-0.032 0.282-0.046 0.562-0.062 0.812a18.05 18.05 0 0 0-0.062 1.312c0 0.124-0.016 0.188-0.016 0.312 0 0.188 0.032 0.376 0.032 0.562 0.016 0.406 0.032 0.812 0.062 1.218 0.032 0.344 0.062 0.656 0.11 1.032 0.046 0.312 0.094 0.656 0.156 1 0.062 0.376 0.156 0.75 0.25 1.124 0.062 0.282 0.124 0.562 0.204 0.812 0.11 0.438 0.234 0.812 0.376 1.188 0.094 0.25 0.188 0.532 0.282 0.812 0.156 0.376 0.312 0.718 0.468 1.062 0.124 0.312 0.266 0.562 0.406 0.844 0.156 0.312 0.328 0.656 0.516 0.968 0.172 0.282 0.344 0.562 0.532 0.876l0.532 0.782c0.234 0.312 0.454 0.624 0.704 0.938 0.172 0.218 0.36 0.468 0.562 0.656 0.25 0.312 0.516 0.624 0.796 0.876 0.204 0.25 0.422 0.438 0.64 0.656 0.266 0.25 0.546 0.532 0.828 0.75 0.266 0.218 0.546 0.468 0.828 0.656 0.25 0.188 0.516 0.406 0.782 0.594 0.344 0.25 0.704 0.468 1.062 0.718 0.156 0.062 0.296 0.188 0.454 0.282 0.11 0.062 0.204 0.094 0.312 0.156 0.204 0.124 0.39 0.25 0.594 0.312 0.406 0.218 0.796 0.438 1.204 0.594 0.156 0.062 0.296 0.156 0.438 0.218 0.546 0.218 1.11 0.406 1.672 0.594 0.156 0.032 0.312 0.094 0.468 0.156 0.532 0.124 1.078 0.282 1.624 0.406 0.062 0.032 0.124 0.032 0.188 0.032 0.64 0.124 1.296 0.25 1.938 0.312h0.296c0.672 0.062 1.344 0.124 2 0.124h298.698c0.672 0 1.328-0.062 2-0.124h0.296c0.5-0.062 0.984-0.124 1.484-0.218 0.032 0 0.078-0.032 0.11-0.032 0.124 0 0.234-0.032 0.344-0.062 0.062 0 0.14 0 0.204-0.032 0.172-0.032 0.344-0.094 0.516-0.124 0.094-0.032 0.172-0.032 0.266-0.062 0.282-0.062 0.562-0.156 0.828-0.218 0.14-0.062 0.282-0.094 0.422-0.124 0.032 0 0.046-0.032 0.078-0.032 0.25-0.094 0.5-0.156 0.75-0.282 0.188-0.062 0.39-0.124 0.594-0.188 0.094-0.062 0.204-0.094 0.296-0.124 0.124-0.062 0.234-0.124 0.344-0.188 0.234-0.062 0.468-0.188 0.704-0.312 0.14-0.062 0.282-0.124 0.406-0.188 0.156-0.062 0.312-0.156 0.468-0.25 0.062 0 0.11-0.062 0.172-0.094a1.322 1.322 0 0 0 0.282-0.156l0.172-0.094c0.032-0.032 0.046-0.032 0.078-0.032 0.328-0.188 0.64-0.406 0.954-0.624a0.83 0.83 0 0 1 0.234-0.124l0.516-0.376c0.046-0.062 0.078-0.062 0.124-0.124 0.312-0.188 0.61-0.438 0.906-0.688 0.016 0 0.032 0 0.046-0.032 0.172-0.156 0.344-0.282 0.532-0.468 0.046-0.032 0.094-0.062 0.14-0.124 0.25-0.188 0.468-0.438 0.704-0.656a0.764 0.764 0 0 0 0.156-0.156c0.156-0.156 0.296-0.312 0.454-0.468 0.124-0.124 0.234-0.25 0.344-0.376 0.156-0.188 0.312-0.344 0.468-0.532 0.062-0.094 0.124-0.188 0.188-0.25 0.094-0.124 0.188-0.25 0.282-0.344 0.078-0.124 0.172-0.218 0.266-0.344 0.124-0.188 0.234-0.376 0.36-0.532 0.11-0.156 0.204-0.282 0.296-0.406 0.046-0.094 0.094-0.156 0.156-0.25l169.23-263.258 91.56 238.072c3.25 8.468 11.344 13.688 19.938 13.688 2.532 0 5.124-0.468 7.624-1.438 10.99-4.25 16.488-16.562 12.24-27.562z m-467.882-184.682l112.186 192.306H250.474l112.2-192.306z m150.216 172.842l-115.514-198.012 263.994-33-148.48 231.012z" fill="#E6E9ED" /><path d="M448 330.668h-127.998c-11.782 0-21.328-9.562-21.328-21.342 0-11.782 9.546-21.328 21.328-21.328H448c11.782 0 21.328 9.546 21.328 21.328 0.002 11.78-9.546 21.342-21.328 21.342z" fill="#ED5564" /><path d="M674.59 296.888a21.34 21.34 0 0 1-14.876-6.046c-8.438-8.218-8.624-21.718-0.406-30.172l14.718-15.14L652.494 224h-97.808c-11.796 0-21.36-9.546-21.36-21.328s9.562-21.344 21.36-21.344h106.622c5.688 0 11.124 2.25 15.124 6.25l42.656 42.67c8.25 8.25 8.344 21.592 0.218 29.952l-29.438 30.234a21.232 21.232 0 0 1-15.278 6.454z" fill="#434A54" /><path d="M554.688 650.676c0 23.562-19.124 42.624-42.688 42.624s-42.67-19.062-42.67-42.624 19.108-42.684 42.67-42.684 42.688 19.122 42.688 42.684z" fill="#F5F7FA" /></svg>