<?xml version="1.0" standalone="no"?><!DOCTYPE svg PUBLIC "-//W3C//DTD SVG 1.1//EN" "http://www.w3.org/Graphics/SVG/1.1/DTD/svg11.dtd"><svg class="icon" width="128px" height="128.00px" viewBox="0 0 1024 1024" version="1.1" xmlns="http://www.w3.org/2000/svg"><path d="M512 490.686c-11.782 0-21.344-9.562-21.344-21.342v-191.998c0-1.282 0.188-32.062 15.594-62.874 14.844-29.718 46.406-65.124 112.404-65.124s97.56 35.406 112.404 65.124c15.406 30.812 15.594 61.592 15.594 62.874 0 11.782-9.562 21.344-21.344 21.344s-21.312-9.562-21.312-21.344c0-0.124-0.344-23.062-11.656-44.936-14.094-27.186-38.188-40.406-73.686-40.406-36 0-60.28 13.594-74.248 41.562-10.782 21.562-11.094 43.562-11.094 43.78v191.998c0 11.78-9.53 21.342-21.312 21.342z" fill="#4A89DC" /><path d="M512 490.686c-11.782 0-21.344-9.562-21.344-21.342v-127.998c0-0.062-0.312-17.624-8.968-34.218-10.468-20.032-28.466-29.782-55.03-29.782-27 0-45.188 10.094-55.594 30.876-8.032 16.094-8.406 32.968-8.406 33.124 0 11.78-9.562 21.342-21.342 21.342-11.782 0-21.312-9.562-21.312-21.342 0-2.688 0.344-27.094 12.906-52.188 17.56-35.124 50.842-54.468 93.748-54.468 42.904 0 76.186 19.344 93.748 54.468 12.562 25.094 12.906 49.5 12.906 52.188v127.998c0 11.78-9.53 21.342-21.312 21.342z" fill="#4A89DC" /><path d="M512 565.406c-11.782 0-21.344-9.532-21.344-21.312V149.348c0-0.188-0.376-28.468-14.344-55.624-17.438-33.876-48.498-51.032-92.31-51.032-43.842 0-74.904 17.156-92.342 51.032-13.968 27.156-14.344 55.436-14.344 55.716 0 11.782-9.532 21.282-21.312 21.282s-21.344-9.594-21.344-21.376c0-1.5 0.218-37.436 18.25-73.53C270.192 41.222 306.972 0.006 384.002 0.006c76.998 0 113.78 41.216 131.06 75.81 18.062 36.094 18.25 72.03 18.25 73.53v394.746A21.298 21.298 0 0 1 512 565.406z" fill="#5D9CEC" /><path d="M320.004 593.344h383.992v430.648H320.004z" fill="#CCD1D9" /><path d="M703.746 981.336H319.754c-11.782 0-21.344 9.562-21.344 21.344s9.562 21.312 21.344 21.312h383.992c11.782 0 21.344-9.532 21.344-21.312s-9.562-21.344-21.344-21.344z" fill="#434A54" /><path d="M512 959.992c-11.782 0-21.344-9.532-21.344-21.312v-103.558c0-11.782 9.562-21.344 21.344-21.344s21.312 9.562 21.312 21.344v103.558A21.3 21.3 0 0 1 512 959.992z" fill="#E6E9ED" /><path d="M192.006 533.344v21.344c0 74.464 34.282 149.964 94.06 207.09 61.78 59.062 141.998 91.558 225.934 91.558 83.904 0 164.152-32.496 225.934-91.558 59.782-57.124 94.06-132.624 94.06-207.09v-21.344H192.006z" fill="#E6E9ED" /><path d="M831.994 533.344c0-35.282-30.31-64-67.56-64H259.566c-37.248 0-67.56 28.718-67.56 64h639.988z" fill="#ED5564" /><path d="M764.434 469.344h-42.656c37.25 0 67.532 28.718 67.532 64v21.344c0 74.464-34.282 149.964-94.062 207.09-56.5 54.032-128.464 85.808-204.59 90.84 7.094 0.468 14.188 0.718 21.344 0.718 83.904 0 164.152-32.496 225.934-91.558 59.782-57.124 94.06-132.624 94.06-207.09v-21.344c-0.002-35.282-30.312-64-67.562-64z" fill="#FFFFFF" opacity=".2" /></svg>