<?xml version="1.0" standalone="no"?><!DOCTYPE svg PUBLIC "-//W3C//DTD SVG 1.1//EN" "http://www.w3.org/Graphics/SVG/1.1/DTD/svg11.dtd"><svg class="icon" width="128px" height="128.00px" viewBox="0 0 1024 1024" version="1.1" xmlns="http://www.w3.org/2000/svg"><path d="M512 106.668c-11.78 0-21.312-9.562-21.312-21.344V21.326A21.296 21.296 0 0 1 512 0.016a21.296 21.296 0 0 1 21.312 21.31v63.998c0 11.782-9.53 21.344-21.312 21.344z" fill="#434A54" /><path d="M593.058 157.854l-63.996-85.31A21.316 21.316 0 0 0 512 64.014a21.316 21.316 0 0 0-17.062 8.53L430.94 157.854a21.326 21.326 0 0 0-2 22.344 21.34 21.34 0 0 0 19.062 11.812h127.994a21.34 21.34 0 0 0 19.062-11.812 21.254 21.254 0 0 0-2-22.344z" fill="#656D78" /><path d="M575.996 149.322h-127.994c-11.78 0-21.312 9.562-21.312 21.344v85.342a21.296 21.296 0 0 0 21.312 21.31h127.994a21.296 21.296 0 0 0 21.312-21.31V170.666c0-11.782-9.53-21.344-21.312-21.344z" fill="#E9573F" /><path d="M657.058 328.538l-64-85.342a21.312 21.312 0 0 0-17.062-8.532h-127.994a21.312 21.312 0 0 0-17.062 8.532l-63.998 85.342a21.26 21.26 0 0 0-2 22.31 21.28 21.28 0 0 0 19.062 11.812h255.992a21.28 21.28 0 0 0 19.062-11.812c3.626-7.22 2.876-15.874-2-22.31z" fill="#FC6E51" /><path d="M639.996 639.996H384.004a21.3 21.3 0 0 0-21.312 21.312V1002.64c0 11.782 9.53 21.344 21.312 21.344h255.992c11.782 0 21.312-9.562 21.312-21.344V661.308a21.3 21.3 0 0 0-21.312-21.312zM639.996 320.006H384.004a21.3 21.3 0 0 0-21.312 21.312v63.998c0 11.78 9.53 21.342 21.312 21.342h255.992c11.782 0 21.312-9.562 21.312-21.342v-63.998a21.3 21.3 0 0 0-21.312-21.312z" fill="#E9573F" /><path d="M469.314 746.648c-11.75 0-21.312 9.532-21.312 21.344v255.992h42.686V767.992c0-11.812-9.562-21.344-21.374-21.344zM554.688 746.648c-11.812 0-21.376 9.532-21.376 21.344v255.992h42.684V767.992c0-11.812-9.558-21.344-21.308-21.344zM662.684 362.66H361.318c-11.75 0-21.312 9.532-21.312 21.344v298.646c0 11.782 9.562 21.344 21.312 21.344h301.366c11.75 0 21.312-9.562 21.312-21.344V384.004c0-11.812-9.562-21.344-21.312-21.344z" fill="#FC6E51" /><path d="M512 405.316c-70.56 0-127.996 57.436-127.996 127.996 0 70.59 57.436 127.996 127.996 127.996 70.558 0 127.996-57.406 127.996-127.996 0-70.56-57.438-127.996-127.996-127.996z" fill="#E6E9ED" /><path d="M512 554.654c-11.78 0-21.312-9.562-21.312-21.342v-85.31c0-11.812 9.532-21.344 21.312-21.344 11.782 0 21.312 9.532 21.312 21.344v85.31c0 11.78-9.53 21.342-21.312 21.342z" fill="#424953" /><path d="M572.344 614.996a21.354 21.354 0 0 1-15.094-6.25l-60.312-60.342a21.272 21.272 0 0 1 0-30.186c8.312-8.312 21.812-8.312 30.124 0l60.372 60.342c8.312 8.344 8.312 21.842 0 30.186a21.352 21.352 0 0 1-15.09 6.25z" fill="#424953" /></svg>