<?xml version="1.0" standalone="no"?><!DOCTYPE svg PUBLIC "-//W3C//DTD SVG 1.1//EN" "http://www.w3.org/Graphics/SVG/1.1/DTD/svg11.dtd"><svg class="icon" width="128px" height="128.00px" viewBox="0 0 1024 1024" version="1.1" xmlns="http://www.w3.org/2000/svg"><path d="M234.692 533.344c-11.78 0-21.342-9.562-21.342-21.342V426.66c0-11.782 9.562-21.312 21.342-21.312a21.298 21.298 0 0 1 21.312 21.312V512c0 11.782-9.53 21.344-21.312 21.344zM831.994 533.344c-11.782 0-21.312-9.562-21.312-21.342V426.66a21.3 21.3 0 0 1 21.312-21.312c11.78 0 21.342 9.53 21.342 21.312V512c0 11.782-9.562 21.344-21.342 21.344z" fill="#E6E9ED" /><path d="M522.75 615.84l-193.06-110.308 21.188-37.032 193.06 110.312z" fill="#CCD1D9" /><path d="M240.568 703.184l-11.75-41.032 298.682-85.34 11.718 41.028z" fill="#E6E9ED" /><path d="M826.15 703.184L527.5 617.84l11.718-41.028 298.65 85.34z" fill="#E6E9ED" /><path d="M533.376 618.652c-7.406 0-14.624-3.84-18.562-10.746-5.844-10.218-2.282-23.25 7.938-29.094l201.214-114.968c10.25-5.844 23.282-2.312 29.124 7.938 5.844 10.218 2.282 23.25-7.938 29.094L543.938 615.84a21.248 21.248 0 0 1-10.562 2.812z" fill="#CCD1D9" /><path d="M1007.834 320.628l-164.936-41.218L719.09 155.6c-4-4-9.438-6.25-15.094-6.25H426.69a21.358 21.358 0 0 0-20.532 15.468c-0.594 2.062-13.25 47.062-20.218 112.53H21.354c-11.782 0-21.344 9.532-21.344 21.312V512c0 11.78 9.562 21.342 21.344 21.342h127.998c11.782 0 21.344-9.562 21.344-21.342 0-35.282 28.686-64 63.998-64 35.282 0 64 28.718 64 64 0 11.78 9.562 21.342 21.312 21.342h426.68c11.782 0 21.312-9.562 21.312-21.342 0-35.282 28.716-64 63.998-64 35.31 0 63.998 28.718 63.998 64 0 11.78 9.562 21.342 21.344 21.342h85.342c11.782 0 21.312-9.562 21.312-21.342v-170.654a21.34 21.34 0 0 0-16.158-20.718z" fill="#5D9CEC" /><path d="M719.09 155.6c-4-4-9.438-6.25-15.094-6.25H426.69a21.358 21.358 0 0 0-20.532 15.468c-0.594 2.062-13.25 47.062-20.218 112.53l456.958 2.062L719.09 155.6z" fill="#4FC2E9" /><path d="M512 277.912l42.688 0.186V149.35H512z" fill="#3BAFDA" /><path d="M1002.678 533.344h-85.342c-11.782 0-21.344-9.562-21.344-21.342 0-35.282-28.688-64-63.998-64-35.282 0-63.998 28.718-63.998 64 0 11.78-9.532 21.342-21.312 21.342h-426.68c-11.75 0-21.312-9.562-21.312-21.342 0-35.282-28.718-64-64-64-35.312 0-63.998 28.718-63.998 64 0 11.78-9.562 21.342-21.344 21.342H21.354c-11.782 0-21.344-9.562-21.344-21.342v-213.34c0-11.782 9.562-21.312 21.344-21.312H385.94c6.968-65.468 19.624-110.466 20.218-112.53a21.356 21.356 0 0 1 20.532-15.468h277.306a21.36 21.36 0 0 1 15.094 6.25l123.808 123.81 164.936 41.218a21.334 21.334 0 0 1 16.156 20.718V512c0 11.782-9.532 21.344-21.312 21.344z m-66.154-42.686h44.812v-132.654l-154.498-38.624a21.15 21.15 0 0 1-9.906-5.624l-121.748-121.748h-251.84c-4.782 20.562-12.75 59.998-16.718 108.404-0.938 11.062-10.188 19.592-21.282 19.592H42.696v170.654h87.466c9.906-48.624 53.03-85.31 104.53-85.31s94.592 36.686 104.53 85.31h388.274c9.906-48.624 53-85.31 104.498-85.31 51.53-0.002 94.624 36.684 104.53 85.31z" fill="#5D9CEC" /><path d="M1007.834 320.628l-69.154-17.28v37.998a21.3 21.3 0 0 0 21.312 21.312h63.998v-21.312c0-9.81-6.656-18.342-16.156-20.718z" fill="#F5F7FA" /><path d="M639.996 384.002h-42.654c-11.782 0-21.342-9.562-21.342-21.344s9.56-21.312 21.342-21.312h42.654c11.782 0 21.344 9.532 21.344 21.312s-9.562 21.344-21.344 21.344z" fill="#434A54" /><path d="M21.354 277.348c-11.782 0-21.344 9.532-21.344 21.312v63.998h21.344c8.092 0 15.468-4.562 19.092-11.782l36.75-73.53H21.354z" fill="#ED5564" /><path d="M831.994 490.658c-105.842 0-191.998 86.156-191.998 191.996 0 105.876 86.156 191.996 191.998 191.996 105.874 0 191.996-86.122 191.996-191.996 0-105.842-86.122-191.996-191.996-191.996z" fill="#434A54" /><path d="M831.994 597.344c-47.032 0-85.31 38.278-85.31 85.308 0 47.062 38.28 85.344 85.31 85.344 47.06 0 85.342-38.282 85.342-85.344 0-47.03-38.282-85.308-85.342-85.308z" fill="#E6E9ED" /><path d="M847.086 667.59c8.344 8.312 8.344 21.812 0 30.156-8.312 8.344-21.842 8.344-30.154 0-8.344-8.344-8.344-21.844 0-30.156 8.312-8.344 21.842-8.344 30.154 0z" fill="#434A54" /><path d="M831.994 490.658c-7.188 0-14.312 0.438-21.312 1.188V512c0 11.78 9.532 21.342 21.312 21.342 11.78 0 21.342-9.562 21.342-21.342v-20.156c-7-0.75-14.126-1.186-21.342-1.186zM831.994 831.992c-11.782 0-21.312 9.562-21.312 21.344v20.124a192.08 192.08 0 0 0 42.654 0v-20.124c0-11.782-9.562-21.344-21.342-21.344zM696.246 546.906a189.454 189.454 0 0 0-14.25 15.938l14.25 14.218c8.344 8.344 21.844 8.344 30.156 0 8.344-8.312 8.344-21.812 0-30.156l-14.218-14.25a189.454 189.454 0 0 0-15.938 14.25zM937.586 788.246c-8.312 8.344-8.312 21.844 0 30.188l14.25 14.246c5.5-4.402 10.844-9.152 15.938-14.246s9.844-10.438 14.25-15.938l-14.25-14.25c-8.344-8.312-21.844-8.312-30.188 0zM639.996 682.652c0 7.218 0.438 14.344 1.218 21.344h20.124c11.782 0 21.344-9.562 21.344-21.344s-9.562-21.312-21.344-21.312h-20.124c-0.78 7-1.218 14.124-1.218 21.312zM981.336 682.652c0 11.782 9.56 21.344 21.342 21.344h20.124a192.226 192.226 0 0 0 0-42.656h-20.124c-11.782 0-21.342 9.532-21.342 21.312zM696.246 818.434a188.706 188.706 0 0 0 15.938 14.246l14.218-14.246a21.332 21.332 0 0 0 0-30.188c-8.312-8.312-21.812-8.312-30.156 0l-14.25 14.25a194.602 194.602 0 0 0 14.25 15.938zM937.586 577.062a21.332 21.332 0 0 0 30.188 0l14.25-14.218c-4.406-5.532-9.156-10.844-14.25-15.938s-10.438-9.844-15.938-14.25l-14.25 14.25c-8.312 8.344-8.312 21.844 0 30.156z" fill="#656D78" /><path d="M234.692 490.658c-105.874 0-191.996 86.156-191.996 191.996 0 105.876 86.124 191.996 191.996 191.996s191.998-86.122 191.998-191.996c0-105.842-86.124-191.996-191.998-191.996z" fill="#434A54" /><path d="M234.692 597.344c-47.062 0-85.342 38.278-85.342 85.308 0 47.062 38.28 85.344 85.342 85.344s85.312-38.282 85.312-85.344c0-47.03-38.25-85.308-85.312-85.308z" fill="#E6E9ED" /><path d="M249.754 667.59c8.344 8.312 8.344 21.812 0 30.156-8.312 8.344-21.812 8.344-30.156 0-8.344-8.344-8.344-21.844 0-30.156 8.344-8.344 21.844-8.344 30.156 0z" fill="#434A54" /><path d="M234.692 490.658c-7.218 0-14.312 0.438-21.342 1.188V512c0 11.78 9.562 21.342 21.342 21.342 11.782 0 21.312-9.562 21.312-21.342v-20.156c-7-0.75-14.124-1.186-21.312-1.186zM234.692 831.992c-11.78 0-21.342 9.562-21.342 21.344v20.124a192.08 192.08 0 0 0 42.654 0v-20.124c0-11.782-9.53-21.344-21.312-21.344zM98.946 546.906a179.18 179.18 0 0 0-14.25 15.938l14.25 14.218c8.312 8.344 21.812 8.344 30.156 0 8.344-8.312 8.344-21.812 0-30.156l-14.25-14.25a189.064 189.064 0 0 0-15.906 14.25zM340.284 788.246a21.332 21.332 0 0 0 0 30.188l14.25 14.246c5.5-4.402 10.812-9.152 15.906-14.246s9.842-10.438 14.25-15.938l-14.25-14.25c-8.312-8.312-21.844-8.312-30.156 0zM42.696 682.652c0 7.218 0.406 14.344 1.188 21.344h20.124c11.812 0 21.342-9.562 21.342-21.344S75.82 661.34 64.008 661.34H43.884a192.08 192.08 0 0 0-1.188 21.312zM384.002 682.652c0 11.782 9.562 21.344 21.344 21.344h20.156a192.226 192.226 0 0 0 0-42.656h-20.156c-11.782 0-21.344 9.532-21.344 21.312zM98.946 818.434a188.316 188.316 0 0 0 15.906 14.246l14.25-14.246a21.332 21.332 0 0 0 0-30.188c-8.342-8.312-21.842-8.312-30.156 0l-14.25 14.25a183.446 183.446 0 0 0 14.25 15.938zM340.284 577.062c8.312 8.344 21.844 8.344 30.156 0l14.25-14.218c-4.406-5.532-9.156-10.844-14.25-15.938s-10.406-9.844-15.906-14.25l-14.25 14.25c-8.344 8.344-8.344 21.844 0 30.156z" fill="#656D78" /></svg>