<?xml version="1.0" standalone="no"?><!DOCTYPE svg PUBLIC "-//W3C//DTD SVG 1.1//EN" "http://www.w3.org/Graphics/SVG/1.1/DTD/svg11.dtd"><svg class="icon" width="128px" height="128.00px" viewBox="0 0 1024 1024" version="1.1" xmlns="http://www.w3.org/2000/svg"><path d="M555.468 809.046c-7.438 0-14.64-3.876-18.562-10.812l-170.648-301.358c-5.812-10.25-2.204-23.248 8.046-29.06 10.25-5.812 23.264-2.218 29.076 8.062l170.646 301.326c5.812 10.25 2.188 23.282-8.058 29.094a21.27 21.27 0 0 1-10.5 2.748z" fill="#434A54" /><path d="M555.468 981.476c-11.782 0-21.328-9.562-21.328-21.344v-172.398c0-11.782 9.546-21.34 21.328-21.34s21.308 9.558 21.308 21.34v172.398c0.002 11.782-9.526 21.344-21.308 21.344z" fill="#434A54" /><path d="M1018.878 202.11c-15.59-50.966-67.558-92.808-150.274-121.088-72.684-24.81-168.238-38.498-269.016-38.498-12.156 0-24.532 0.188-36.746 0.594-77.326 2.468-149.744 17.718-215.272 45.31-52.59 22.156-100.822 52.216-143.352 89.402-59.2 51.778-90.62 102.556-100.932 121.056-9.968 4.468-28.748 13.374-47.262 24.874C13.73 350.072-4.3 375.632 0.904 401.912c5.86 29.562 19.796 47.716 48.106 62.684 26.014 13.75 62.668 20.716 108.932 20.716 23.592 0 42.84-1.842 52.216-2.936 9.156-1.094 21.124 2.5 36.842 7.28 26.076 7.938 61.808 18.812 117.884 18.812 14.468 0 29.78-0.75 45.498-2.218 47.732-4.438 92.292-6.594 136.212-6.594 37.214 0 67.964 1.532 95.122 2.876 21.558 1.094 40.214 2 58.152 2 40.402 0 40.934 0.376 54.528 9.312 5.968 3.938 14.124 9.312 26.594 16.124 16.59 9.094 40.778 10.438 53.714 10.438 25.468 0 51.308-4.844 70.872-13.25 16.312-7.032 43.84-23.624 45.152-55.748 2.5-60.248 23.812-103.026 42.594-140.806 20.686-41.496 40.182-80.682 25.556-128.492z" fill="#5D9CEC" /><path d="M761.8 206.11c-88.528-15.438-179.086-14.906-269.126 1.624-112.182 20.624-223.77 66.214-331.64 135.554-9.906 6.376-12.78 19.594-6.406 29.5 4.078 6.342 10.936 9.78 17.952 9.78 3.954 0 7.952-1.094 11.514-3.376 102.746-66.028 208.708-109.526 314.92-129.242 84.792-15.718 170.068-16.468 253.44-2.156 142.242 24.404 231.02 85.026 232.114 85.776a20.864 20.864 0 0 0 5.876 2.874c0.968-1.968 1.938-3.906 2.876-5.842 5.406-10.812 10.718-21.5 15.376-32.216-6.626-4.562-98.216-66.308-246.896-92.276z" fill="#4A89DC" /><path d="M1022.692 218.734c-33.464-31.624-93.118-54.872-120.836-64.528-74.934-26.03-162.93-41.466-247.738-43.434-100.868-2.376-192.816 13.53-273.342 47.154-96.416 40.31-172.57 104.932-226.364 192.116-6.188 10.032-3.062 23.186 6.952 29.374a21.214 21.214 0 0 0 11.188 3.156c7.156 0 14.14-3.594 18.17-10.124 49.012-79.434 118.494-138.368 206.504-175.148 74.964-31.31 161.054-46.092 255.89-43.874 80.496 1.876 163.868 16.468 234.738 41.092 71.34 24.78 106.496 51.342 114.934 66.528 3.376 6.092 9.282 9.842 15.684 10.75 4.906-16.97 7.064-34.406 4.22-53.062z" fill="#4A89DC" /><path d="M961.352 406.85c-137.71 19.312-457.006-7.656-457.006-7.656h-44.216s-161.772 12.748-164.428 11.874c-2.672-0.906-187.538-6.218-187.538-6.218s-31.342 31.624-57.7 60.466c25.92 13.28 62.06 19.998 107.48 19.998 23.592 0 42.84-1.842 52.216-2.936 9.156-1.094 21.124 2.5 36.842 7.28 26.076 7.938 61.808 18.812 117.884 18.812 14.468 0 29.78-0.75 45.498-2.218 47.732-4.438 92.292-6.594 136.212-6.594 37.214 0 67.964 1.532 95.122 2.876 21.558 1.094 40.214 2 58.152 2 40.402 0 40.934 0.376 54.528 9.312 5.968 3.938 14.124 9.312 26.594 16.124 16.59 9.094 40.778 10.438 53.714 10.438 25.468 0 51.308-4.844 70.872-13.25 16.312-7.032 43.84-23.624 45.152-55.748 0.996-24.032 4.996-45.28 10.622-64.56z" fill="#E6E9ED" /><path d="M525.688 400.882c-1.938-9.406-104.462-5.282-181.116-12.032-112.322-9.938-188.412-33.78-241.284-89.964-9.968 4.468-28.748 13.374-47.262 24.874C13.73 350.072-4.3 375.632 0.904 401.912c5.86 29.562 19.796 47.716 48.106 62.684 26.014 13.75 62.668 20.716 108.932 20.716h0.016c23.576 0 42.826-1.842 52.2-2.936 1.984-0.25 4.078-0.282 6.406-0.094 0.718 0.032 1.422 0.062 2.14 0.032 41.952-1.156 187.224-9.156 295.312-64.122 8.562-4.344 13.608-7.904 11.672-17.31z" fill="#434A54" /><path d="M555.438 809.046c-4.124 0-8.312-1.188-11.984-3.688-9.734-6.656-12.25-19.938-5.61-29.656l202.488-296.858a21.348 21.348 0 0 1 29.656-5.624c9.718 6.656 12.25 19.904 5.594 29.654l-202.492 296.86c-4.126 6.062-10.84 9.312-17.652 9.312z" fill="#656D78" /></svg>