<?xml version="1.0" standalone="no"?><!DOCTYPE svg PUBLIC "-//W3C//DTD SVG 1.1//EN" "http://www.w3.org/Graphics/SVG/1.1/DTD/svg11.dtd"><svg class="icon" width="128px" height="128.00px" viewBox="0 0 1024 1024" version="1.1" xmlns="http://www.w3.org/2000/svg"><path d="M170.69 21.37h682.606v981.292H170.69z" fill="#A0D468" /><path d="M469.33 789.328c0-23.56 19.11-42.652 42.67-42.652 23.562 0 42.686 19.092 42.686 42.652 0 23.562-19.124 42.654-42.686 42.654-23.56 0-42.67-19.092-42.67-42.654z" fill="#E6E9ED" /><path d="M469.33 453.346c0-23.56 19.11-42.652 42.67-42.652 23.562 0 42.686 19.092 42.686 42.652 0 23.562-19.124 42.654-42.686 42.654-23.56 0-42.67-19.092-42.67-42.654z" fill="#ED5564" /><path d="M469.33 304.042c0-23.592 19.11-42.684 42.67-42.684 23.562 0 42.686 19.092 42.686 42.684 0 23.562-19.124 42.654-42.686 42.654-23.56 0-42.67-19.092-42.67-42.654z" fill="#FC6E51" /><path d="M384.006 304.042c0-23.592 19.11-42.684 42.67-42.684 23.562 0 42.654 19.092 42.654 42.684 0 23.562-19.092 42.654-42.654 42.654-23.56 0-42.67-19.092-42.67-42.654z" fill="#FFCE54" /><path d="M554.686 304.042c0-23.592 19.06-42.684 42.624-42.684s42.686 19.092 42.686 42.684c0 23.562-19.124 42.654-42.686 42.654s-42.624-19.092-42.624-42.654zM426.676 378.694c0-23.56 19.094-42.652 42.654-42.652 23.562 0 42.67 19.092 42.67 42.652 0 23.562-19.108 42.654-42.67 42.654-23.56 0-42.654-19.092-42.654-42.654z" fill="#5D9CEC" /><path d="M512 378.694c0-23.56 19.11-42.652 42.686-42.652 23.56 0 42.624 19.092 42.624 42.652 0 23.562-19.062 42.654-42.624 42.654-23.576 0-42.686-19.092-42.686-42.654zM426.676 229.358c0-23.56 19.094-42.652 42.654-42.652 23.562 0 42.67 19.092 42.67 42.652 0 23.562-19.108 42.686-42.67 42.686-23.56-0.002-42.654-19.124-42.654-42.686z" fill="#4FC2E9" /><path d="M341.338 229.358c0-23.56 19.108-42.652 42.668-42.652 23.562 0 42.67 19.092 42.67 42.652 0 23.562-19.108 42.686-42.67 42.686-23.56-0.002-42.668-19.124-42.668-42.686zM597.308 229.358c0-23.56 19.124-42.652 42.686-42.652s42.686 19.092 42.686 42.652c0 23.562-19.124 42.686-42.686 42.686s-42.686-19.124-42.686-42.686z" fill="#AC92EB" /><path d="M639.994 186.706a43.22 43.22 0 0 0-10.688 1.342c18.436 4.718 31.998 21.438 31.998 41.31 0 19.876-13.562 36.592-31.998 41.342 3.438 0.876 7 1.344 10.688 1.344 23.56 0 42.686-19.124 42.686-42.686s-19.126-42.652-42.686-42.652z" fill="#FFFFFF" opacity=".2" /><path d="M597.308 261.358a42.52 42.52 0 0 0-10.624 1.342c18.376 4.75 32 21.438 32 41.342 0 19.876-13.624 36.56-32 41.31a42.44 42.44 0 0 0 10.624 1.344c23.562 0 42.686-19.092 42.686-42.654 0-23.592-19.122-42.684-42.686-42.684zM512 261.358c-3.688 0-7.25 0.468-10.672 1.342 18.406 4.75 32 21.438 32 41.342 0 19.876-13.594 36.56-32 41.31 3.422 0.876 6.984 1.344 10.672 1.344 23.562 0 42.686-19.092 42.686-42.654 0-23.592-19.124-42.684-42.686-42.684zM426.676 261.358c-3.688 0-7.266 0.468-10.67 1.342 18.404 4.75 31.998 21.438 31.998 41.342 0 19.876-13.594 36.56-31.998 41.31a42.78 42.78 0 0 0 10.67 1.344c23.562 0 42.654-19.092 42.654-42.654 0-23.592-19.092-42.684-42.654-42.684z" fill="#FFFFFF" opacity=".2" /><path d="M554.686 336.042c-3.688 0-7.28 0.466-10.686 1.342 18.404 4.718 31.996 21.438 31.996 41.31 0 19.876-13.592 36.592-31.996 41.31a42.92 42.92 0 0 0 10.686 1.344c23.56 0 42.624-19.092 42.624-42.654-0.002-23.562-19.064-42.652-42.624-42.652zM469.33 336.042c-3.672 0-7.25 0.466-10.656 1.342 18.39 4.718 32 21.438 32 41.31 0 19.876-13.61 36.592-32 41.31 3.406 0.876 6.984 1.344 10.656 1.344 23.562 0 42.67-19.092 42.67-42.654 0-23.562-19.108-42.652-42.67-42.652z" fill="#FFFFFF" opacity=".2" /><path d="M512 410.694c-3.688 0-7.25 0.466-10.672 1.342 18.406 4.718 32 21.438 32 41.31 0 19.876-13.594 36.592-32 41.31 3.422 0.906 6.984 1.344 10.672 1.344 23.562 0 42.686-19.092 42.686-42.654 0-23.56-19.124-42.652-42.686-42.652z" fill="#FFFFFF" opacity=".2" /><path d="M512 746.676c-3.688 0-7.25 0.468-10.672 1.344 18.406 4.716 32 21.434 32 41.308s-13.594 36.592-32 41.31c3.422 0.906 6.984 1.344 10.672 1.344 23.562 0 42.686-19.092 42.686-42.654 0-23.56-19.124-42.652-42.686-42.652z" fill="#FFFFFF" opacity=".3" /><path d="M512 229.358c0-23.56 19.11-42.652 42.686-42.652 23.56 0 42.624 19.092 42.624 42.652 0 23.562-19.062 42.686-42.624 42.686-23.576-0.002-42.686-19.124-42.686-42.686z" fill="#FFCE54" /><path d="M213.344 21.37c-23.514 0-42.654 19.154-42.654 42.654 0 23.53 19.14 42.686 42.654 42.686 23.53 0 42.67-19.156 42.67-42.686 0-23.5-19.14-42.654-42.67-42.654zM810.672 21.37c-23.56 0-42.684 19.154-42.684 42.654 0 23.53 19.124 42.686 42.684 42.686 23.5 0 42.624-19.156 42.624-42.686-0.002-23.5-19.124-42.654-42.624-42.654zM810.672 917.322c-23.56 0-42.684 19.154-42.684 42.654 0 23.53 19.124 42.684 42.684 42.684 23.5 0 42.624-19.154 42.624-42.684-0.002-23.5-19.124-42.654-42.624-42.654zM213.344 917.322c-23.514 0-42.654 19.154-42.654 42.654 0 23.53 19.14 42.684 42.654 42.684 23.53 0 42.67-19.154 42.67-42.684 0-23.5-19.14-42.654-42.67-42.654zM213.344 469.346c-23.514 0-42.654 19.154-42.654 42.654 0 23.53 19.14 42.684 42.654 42.684 23.53 0 42.67-19.154 42.67-42.684 0-23.5-19.14-42.654-42.67-42.654zM810.672 469.346c-23.56 0-42.684 19.154-42.684 42.654 0 23.53 19.124 42.684 42.684 42.684 23.5 0 42.624-19.154 42.624-42.684-0.002-23.5-19.124-42.654-42.624-42.654z" fill="#434A54" /><path d="M85.35 938.664c-11.78 0-21.326-9.562-21.326-21.342V106.708c0-11.782 9.546-21.344 21.326-21.344 11.782 0 21.344 9.562 21.344 21.344v810.614c0 11.78-9.564 21.342-21.344 21.342zM938.666 938.664c-11.812 0-21.374-9.562-21.374-21.342V106.708c0-11.782 9.56-21.344 21.374-21.344 11.748 0 21.31 9.562 21.31 21.344v810.614c0 11.78-9.562 21.342-21.31 21.342z" fill="#FFD2A6" /><path d="M853.294 1023.972H170.69c-11.782 0-21.342-9.532-21.342-21.312V21.37c0-11.782 9.56-21.342 21.342-21.342h682.606c11.812 0 21.374 9.56 21.374 21.342V1002.66c-0.002 11.782-9.562 21.312-21.376 21.312zM192.018 981.318h639.966V42.71H192.018v938.608z" fill="#965353" /><path d="M554.686 186.706c-3.688 0-7.28 0.468-10.686 1.342 18.404 4.718 31.996 21.438 31.996 41.31 0 19.876-13.592 36.592-31.996 41.342a42.92 42.92 0 0 0 10.686 1.344c23.56 0 42.624-19.124 42.624-42.686-0.002-23.562-19.064-42.652-42.624-42.652zM469.33 186.706c-3.672 0-7.25 0.468-10.656 1.342 18.39 4.718 32 21.438 32 41.31 0 19.876-13.61 36.592-32 41.342 3.406 0.876 6.984 1.344 10.656 1.344 23.562 0 42.67-19.124 42.67-42.686s-19.108-42.652-42.67-42.652zM384.006 186.706c-3.686 0-7.248 0.468-10.67 1.342 18.404 4.718 31.998 21.438 31.998 41.31 0 19.876-13.594 36.592-31.998 41.342a42.9 42.9 0 0 0 10.67 1.344c23.562 0 42.67-19.124 42.67-42.686s-19.108-42.652-42.67-42.652z" fill="#FFFFFF" opacity=".2" /></svg>