<?xml version="1.0" standalone="no"?><!DOCTYPE svg PUBLIC "-//W3C//DTD SVG 1.1//EN" "http://www.w3.org/Graphics/SVG/1.1/DTD/svg11.dtd"><svg class="icon" width="128px" height="128.00px" viewBox="0 0 1024 1024" version="1.1" xmlns="http://www.w3.org/2000/svg"><path d="M874.36 273.82L831.708 17.83A21.34 21.34 0 0 0 810.648 0.02H213.356c-10.438 0-19.344 7.53-21.032 17.81L149.638 273.82a21.266 21.266 0 0 0 4.782 17.282 21.22 21.22 0 0 0 16.28 7.562h682.632a21.2 21.2 0 0 0 16.246-7.562 21.28 21.28 0 0 0 4.782-17.282z" fill="#37BC9B" /><path d="M869.39 348.598a21.422 21.422 0 0 0-16.058-7.28H170.7a21.37 21.37 0 0 0-16.06 7.28 21.3 21.3 0 0 0-5.094 16.876l85.34 639.976c1.406 10.594 10.438 18.532 21.124 18.532h511.98c10.688 0 19.718-7.938 21.156-18.532l85.306-639.976a21.384 21.384 0 0 0-5.062-16.876z" fill="#E6E9ED" /><path d="M917.328 256.008H106.704c-11.782 0-21.344 9.532-21.344 21.312v85.34c0 11.782 9.562 21.342 21.344 21.342h810.624c11.75 0 21.312-9.562 21.312-21.342v-85.34c0-11.78-9.562-21.312-21.312-21.312z" fill="#48CFAD" /><path d="M655.026 624.182a21.494 21.494 0 0 0-4.376-6.342c-8.312-8.312-21.812-8.312-30.154 0-6.406 6.404-7.844 15.81-4.468 23.624 19.842 39.904 13.124 89.746-20.062 122.934-26.154 26.154-62.622 35.842-96.434 29.06 5.438-6.062 7.124-15.03 3.562-22.936-4.812-10.75-17.438-15.562-28.188-10.718l-38.936 17.468a21.34 21.34 0 0 0-12.06 24.124c0.312 1.376 0.75 2.75 1.344 4.094l17.466 38.904c4.876 10.75 17.5 15.56 28.248 10.718 8.562-3.844 13.312-12.654 12.438-21.498 49.438 12.624 104.06-0.376 142.746-39.032 46.092-46.124 55.654-114.808 28.874-170.4zM428.034 600.902c26.156-26.186 62.624-35.842 96.436-29.092-5.438 6.094-7.124 15.032-3.562 22.968 4.812 10.748 17.468 15.56 28.188 10.716l38.936-17.498c10.748-4.812 15.56-17.438 10.716-28.188l-17.466-38.938c-4.876-10.716-17.5-15.53-28.248-10.686-8.562 3.844-13.312 12.624-12.438 21.498-49.438-12.656-104.06 0.344-142.746 39.032-46.092 46.092-55.654 114.806-28.876 170.398a21.98 21.98 0 0 0 4.376 6.312c8.312 8.344 21.812 8.344 30.156 0 6.406-6.376 7.844-15.812 4.468-23.594-19.846-39.932-13.126-89.742 20.06-122.928z" fill="#434A54" /><path d="M320.008 0.02h383.984v127.994H320.008z" fill="#E6E9ED" /><path d="M298.696 170.668h426.638c11.75 0 21.312-9.562 21.312-21.344V0.02h-42.654v127.994H320.008V0.02h-42.656v149.306c0 11.78 9.562 21.342 21.344 21.342z" fill="#080808" opacity=".1" /></svg>