<?xml version="1.0" standalone="no"?><!DOCTYPE svg PUBLIC "-//W3C//DTD SVG 1.1//EN" "http://www.w3.org/Graphics/SVG/1.1/DTD/svg11.dtd"><svg class="icon" width="128px" height="128.00px" viewBox="0 0 1024 1024" version="1.1" xmlns="http://www.w3.org/2000/svg"><path d="M608.532 299.534c-5.934-0.688-83.348-7.03-119.572 31.302-26.914 27.524-25.04 64.356-1.078 89.348 24.976 23.932 61.794 25.836 89.348-1.092 38.302-36.21 31.958-113.624 31.302-119.558zM372.824 470.138c5.92-0.656 83.334-7.03 119.558 31.302 26.912 27.554 25.024 64.356 1.078 89.348-24.976 23.96-61.808 25.836-89.348-1.094-38.334-36.206-31.976-113.62-31.288-119.556z" fill="#8CC153" /><path d="M490.662 256.078c-11.778 0-21.322 9.56-21.322 21.338v469.17c0 11.778 9.544 21.336 21.322 21.336 11.778 0 21.338-9.558 21.338-21.336V277.416c0-11.778-9.56-21.338-21.338-21.338z" fill="#A0D468" /><path d="M252.736 482.198c28.038-23.494 45.876-58.732 45.876-98.158 0-70.666-57.294-127.96-127.96-127.96H0.156v511.842h191.942c82.444 0 149.282-66.824 149.282-149.296 0-60.858-36.412-113.186-88.644-136.428zM42.814 298.72h127.836c47.034 0 85.302 38.27 85.302 85.318s-38.27 85.318-85.302 85.318H42.814V298.72z m149.284 426.56H42.814V512h149.284c58.794 0 106.624 47.83 106.624 106.624-0.002 58.794-47.83 106.656-106.624 106.656zM831.902 256.078c-106 0-191.942 85.944-191.942 191.942v127.96c0 106 85.942 191.942 191.942 191.942 106.03 0 191.942-85.942 191.942-191.942v-127.96c0-105.998-85.912-191.942-191.942-191.942z m149.266 319.902c0 39.864-15.494 77.352-43.704 105.562-28.21 28.18-65.7 43.736-105.562 43.736s-77.352-15.556-105.562-43.736c-28.21-28.21-43.706-65.7-43.706-105.562v-127.96c0-39.864 15.494-77.352 43.706-105.56 28.21-28.18 65.7-43.738 105.562-43.738s77.352 15.558 105.562 43.738c28.208 28.208 43.704 65.698 43.704 105.56v127.96z" fill="#A0D468" /></svg>