<?xml version="1.0" standalone="no"?><!DOCTYPE svg PUBLIC "-//W3C//DTD SVG 1.1//EN" "http://www.w3.org/Graphics/SVG/1.1/DTD/svg11.dtd"><svg class="icon" width="128px" height="128.00px" viewBox="0 0 1024 1024" version="1.1" xmlns="http://www.w3.org/2000/svg"><path d="M220.848 292.722s44.72 163.982 146.314 215.278c62.292 31.428 138.254 6.466 169.776-55.764h0.016c31.334-62.324 6.28-138.24-56.014-169.666-101.61-51.298-260.092 10.152-260.092 10.152z" fill="#A0D468" /><path d="M543.56 479.634c4.794-17.496-10.294-30.772-26.148-42.862-11.074-8.466-26.648-18.994-46.284-31.302-32.91-20.62-65.712-39.05-67.088-39.832h-0.016a21.3 21.3 0 0 0-16.2-1.936c-11.34 3.186-17.962 14.964-14.776 26.304a21.344 21.344 0 0 0 10.09 12.84c66.278 37.208 129.632 82.974 136.098 91.816-0.952-1.312-5.48-5.654 0 0l24.324-15.028z" fill="#8CC153" /><path d="M531.844 606.096c-63.4-270.762 49.284-363.296 54.124-367.108l26.43 33.52 0.156-0.156c-8.246 6.78-27.336 29.992-40.708 69.198-28.49 83.474-14.87 184.63 1.562 254.828l-41.564 9.718z" fill="#8CC153" /><path d="M756.136 597.128H329.424c-23.478 0-38.91 18.806-34.302 41.83l68.604 343.052c4.592 22.994 27.57 41.83 51.032 41.83h256.032c23.462 0 46.456-18.836 51.046-41.83l68.604-343.052c4.592-23.022-10.842-41.83-34.304-41.83z" fill="#EC5564" /><path d="M312.35 725.152h460.874l8.498-42.674h-477.9z" fill="#DA4453" /><path d="M604.402 14.276l-53.796 66.23c-44.58 54.89-36.222 135.522 18.65 180.07 54.888 44.58 135.49 36.24 180.1-18.65l53.796-66.26-198.75-161.39z" fill="#FECD57" /><path d="M694.438 4.934c-9.124-7.436-22.588-6.03-29.992 3.092l-26.93 33.146 33.116 26.898 26.93-33.114c7.434-9.154 6.028-22.586-3.124-30.022zM793.812 85.628c-9.154-7.436-22.586-6.03-30.024 3.124l-26.898 33.114 33.148 26.898 26.868-33.116c7.434-9.15 6.058-22.584-3.094-30.02z" fill="#434A54" /></svg>