<?xml version="1.0" standalone="no"?><!DOCTYPE svg PUBLIC "-//W3C//DTD SVG 1.1//EN" "http://www.w3.org/Graphics/SVG/1.1/DTD/svg11.dtd"><svg class="icon" width="128px" height="128.00px" viewBox="0 0 1024 1024" version="1.1" xmlns="http://www.w3.org/2000/svg"><path d="M917.218 213.404c0-47.112-38.208-85.288-85.316-85.288h-21.398c-11.778 0-21.34 9.53-21.34 21.306s9.562 21.336 21.34 21.336h21.398c23.524 0 42.644 19.15 42.644 42.644 0 7.872-2.124 15.212-5.844 21.524h27.024v35.052c13.372-15.056 21.492-34.862 21.492-56.574zM895.882 298.72c0 11.78-9.558 21.338-21.336 21.338s-21.308-9.558-21.308-21.338c0-11.778 9.532-21.336 21.308-21.336s21.336 9.56 21.336 21.336z" fill="#434A54" /><path d="M192.098 1002.508c-11.748 0-21.338-9.56-21.338-21.338V42.798c0-11.746 9.59-21.336 21.338-21.336H703.94c11.746 0 21.336 9.59 21.336 21.336v938.372c0 11.778-9.59 21.338-21.336 21.338H192.098z" fill="#E6E9ED" /><path d="M874.546 245.394v501.192c0 35.27-28.68 63.98-63.98 63.98-35.274 0-63.98-28.71-63.98-63.98 0 0-42.644-34.896-42.644 0 0 58.886 47.734 106.624 106.624 106.624 58.886 0 106.652-47.736 106.652-106.624V245.394h-42.672z" fill="#CCD1D9" /><path d="M789.102 213.592l0.156 170.354 85.29 42.736h42.516V213.592h-127.962z m85.32 165.324l-42.55-21.338-0.062-101.312h42.614v122.65z" fill="#656D78" /><path d="M594.29 543.242s-153.08-8.344-225.838 64.042c-44.612 44.39-44.862 116.494-0.562 161.168 44.424 44.52 116.558 44.674 161.17 0.282 72.756-72.382 65.23-225.492 65.23-225.492z" fill="#A0D468" /><path d="M473.668 663.11a21.328 21.328 0 0 0-30.178 0l-135.708 135.71c-8.34 8.34-8.34 21.836 0 30.146 8.342 8.342 21.838 8.342 30.148 0l135.74-135.708c8.34-8.34 8.34-21.836-0.002-30.148z" fill="#8CC153" /><path d="M170.76 21.462h554.516v447.864H170.76z" fill="#5D9CEC" /><path d="M703.942 0.156H192.098c-23.556 0-42.644 19.088-42.644 42.642v938.372c0 23.556 19.088 42.674 42.644 42.674H703.94c23.554 0 42.644-19.118 42.644-42.674V42.798C746.586 19.244 727.496 0.156 703.942 0.156z m0 981.014H192.098V42.798H703.94v938.372z" fill="#E6E9ED" /><path d="M789.258 1023.844H106.78v-85.316c0-23.554 19.12-42.644 42.674-42.644h597.13c23.554 0 42.672 19.09 42.672 42.644v85.316z" fill="#656D78" /></svg>