<?xml version="1.0" standalone="no"?><!DOCTYPE svg PUBLIC "-//W3C//DTD SVG 1.1//EN" "http://www.w3.org/Graphics/SVG/1.1/DTD/svg11.dtd"><svg class="icon" width="128px" height="128.00px" viewBox="0 0 1024 1024" version="1.1" xmlns="http://www.w3.org/2000/svg"><path d="M854.668 0.156H426.298l-177.102 177.102h0.032l-121.494 121.494v682.45c0 23.556 19.088 42.642 42.642 42.642h684.292c23.554 0 42.644-19.086 42.644-42.642V42.83c0-23.554-19.09-42.674-42.644-42.674zM443.982 42.83h410.686v85.068H358.882l85.1-85.068z" fill="#5D9CEC" /><path d="M170.376 981.202V256.078l-42.642 42.674v682.45c0 23.556 19.088 42.642 42.642 42.642h42.644c-23.556 0-42.644-19.086-42.644-42.642z" fill="#FFFFFF" opacity=".2" /><path d="M223.424 113.058a21.328 21.328 0 0 0-30.178 0L132.92 173.384c-8.31 8.31-8.31 21.838 0 30.146a21.324 21.324 0 0 0 30.178 0l60.326-60.324c8.31-8.31 8.31-21.836 0-30.148z" fill="#434A54" /><path d="M712.21 414.06s-207.03-11.278-305.468 86.63c-60.326 60.012-60.638 157.546-0.718 217.964 60.076 60.23 157.64 60.418 217.964 0.406 98.408-97.906 88.222-305 88.222-305z" fill="#A0D468" /><path d="M550.168 596.38a21.292 21.292 0 0 0-21.306-21.306 21.164 21.164 0 0 0-15.088 6.25l-196.036 196.034a21.166 21.166 0 0 0-6.248 15.088 21.292 21.292 0 0 0 21.306 21.306c5.904 0 11.246-2.374 15.088-6.248l196.034-196.036a21.158 21.158 0 0 0 6.25-15.088z" fill="#8CC153" /></svg>