<?xml version="1.0" standalone="no"?><!DOCTYPE svg PUBLIC "-//W3C//DTD SVG 1.1//EN" "http://www.w3.org/Graphics/SVG/1.1/DTD/svg11.dtd"><svg class="icon" width="128px" height="128.00px" viewBox="0 0 1024 1024" version="1.1" xmlns="http://www.w3.org/2000/svg"><path d="M1020.128 659.69a21.364 21.364 0 0 0 3.562-15.876c-3.5-19.938-9.062-39.19-16.75-57.564-0.124-0.312-2.938-6.75-3.25-7.5-0.5-1-2.314-4.938-2.814-5.876-0.376-0.812-2.124-4.438-2.688-5.438-0.376-0.75-2.188-4.188-2.688-5.188-0.438-0.75-2.25-4.124-2.75-5s-2.438-4.188-2.938-5c-0.562-0.876-2.438-4.062-2.876-4.688a50.192 50.192 0 0 0-1.938-3.062c-0.312-0.5-2.5-3.876-3.25-5-0.25-0.312-3.624-5.188-3.688-5.25-13.376-18.812-29.062-35.75-46.938-50.688-48.252-40.188-109.19-62.312-171.626-62.312-10.876 0-21.812 0.688-32.624 2l-0.376 0.062 0.25-0.312c38.5-51.19 57.438-114.752 53.188-179.066a268.616 268.616 0 0 0-22.624-91.5c-13.376-30-32-57.062-55.438-80.502h-0.062a21.2 21.2 0 0 0-15-6.25c-5.75 0-11.062 2.25-15.124 6.25-4.002 4.062-6.252 9.438-6.252 15.126 0 5.688 2.25 11.062 6.252 15.062 42.688 42.688 66.124 99.376 66.124 159.69 0 47.624-14.562 93.062-42.124 131.376l-0.124 0.188-0.124-0.188c-21.624-26.624-49.376-48.688-80.19-63.688-32.314-15.688-67.002-23.688-103.19-23.688-36.234 0-70.922 8-103.234 23.688-30.814 15-58.564 37.062-80.19 63.688l-0.124 0.188-0.124-0.188c-27.562-38.312-42.124-83.75-42.124-131.376 0-60.314 23.438-117.002 66.124-159.69 8.314-8.312 8.314-21.876 0-30.19-4.062-4-9.376-6.25-15.124-6.25-5.688 0-11 2.25-15.062 6.25-23.438 23.44-42.062 50.502-55.422 80.502-12.876 28.938-20.5 59.75-22.624 91.5-4.25 64.314 14.688 127.876 53.172 179.066l0.25 0.312-0.376-0.062c-10.812-1.312-21.812-2-32.672-2-62.438 0-123.376 22.124-171.626 62.312a269.71 269.71 0 0 0-46.688 50.312c-0.188 0.25-2.188 3.124-3 4.25-0.312 0.5-2.312 3.5-2.938 4.5-0.5 0.624-0.938 1.312-1.376 2-0.5 0.876-2.624 4.25-3.124 5.062-0.5 0.75-0.938 1.5-1.376 2.25-0.562 0.938-2.5 4.312-2.938 5.062-0.562 1-1.188 2-1.75 3-0.312 0.688-2.188 4.188-2.812 5.25-0.312 0.624-2.124 4.124-2.688 5.312-0.312 0.624-2 4.124-2.5 5.25-0.438 0.876-2 4.376-2.438 5.25l-2.25 5.25a269.54 269.54 0 0 0-16.688 57.44c-1 5.624 0.312 11.312 3.562 15.938 3.312 4.688 8.188 7.812 13.812 8.75 1.188 0.25 2.438 0.312 3.688 0.312a21.32 21.32 0 0 0 21-17.624c10.312-59.44 43.188-111.314 92.5-146.002 38.312-26.938 83.064-41.188 129.44-41.188 8 0 16.046 0.438 24.046 1.312h0.188l-0.062 0.188c-8.438 24.624-12.688 50.376-12.688 76.624 0 28.688 5.062 56.75 15.124 83.376 9.688 25.75 23.75 49.376 41.75 70.376 36.25 42.25 86.376 70.438 141.002 79.376l0.25 0.062-0.124 0.188c-16.188 39.812-43.562 74.062-79.064 99-38.312 26.938-83.064 41.188-129.422 41.188a229.18 229.18 0 0 1-39.188-3.376 23.748 23.748 0 0 0-3.688-0.312c-10.376 0-19.188 7.438-21 17.688a21.526 21.526 0 0 0 3.562 15.94c3.312 4.624 8.188 7.75 13.812 8.75 15.314 2.624 30.876 4 46.314 4 52.734 0 103.922-15.5 148.048-44.814 44-29.188 78.11-70.124 98.672-118.438l0.124-0.312 0.124 0.312c20.562 48.312 54.688 89.25 98.69 118.438 44.124 29.314 95.314 44.814 148.064 44.814 15.376 0 31-1.376 46.312-4 5.624-1 10.5-4.124 13.812-8.75a21.524 21.524 0 0 0 3.562-15.94c-1.812-10.25-10.624-17.688-21-17.688-1.25 0-2.5 0.124-3.688 0.312a230.466 230.466 0 0 1-39.188 3.376c-46.376 0-91.19-14.25-129.44-41.188-35.562-24.938-62.876-59.188-79.064-99l-0.124-0.188 0.188-0.062c54.752-8.876 104.814-37.062 141.128-79.376 18-20.94 32.062-44.626 41.75-70.314 10.062-26.626 15.124-54.69 15.124-83.44 0-26.25-4.25-52-12.688-76.624l-0.062-0.188 0.188-0.062c7.938-0.812 16-1.25 24-1.25 46.376 0 91.124 14.25 129.438 41.188 49.314 34.688 82.19 86.562 92.502 145.94 1.812 10.25 10.624 17.688 21.002 17.688 1.25 0 2.438-0.062 3.688-0.312 5.63-0.932 10.504-4.058 13.816-8.744zM357.136 425.938a190.214 190.214 0 0 1 18.062-20.752c36.564-36.562 85.126-56.688 136.86-56.688 51.688 0 100.252 20.124 136.814 56.688a190.214 190.214 0 0 1 18.062 20.752l0.062 0.124-0.124 0.062a222.78 222.78 0 0 1-35.938 27.688 291.128 291.128 0 0 0-12.438 7.25c-14.938 8-30.876 14.312-47.376 18.75h-0.062l-0.062-0.062c-16-15.124-36.938-23.5-58.938-23.5-22.046 0-42.984 8.376-58.984 23.5l-0.062 0.062h-0.062a222.6 222.6 0 0 1-47.938-19.124c-3.688-2.188-7.5-4.438-11.314-6.5a229.512 229.512 0 0 1-36.5-28.062l-0.124-0.062 0.062-0.126z m130.188 302.566c-0.312 1.688-0.624 3.438-1 5.312l-0.062 0.124h-0.124a193.984 193.984 0 0 1-59.812-18.188c-1.124-0.562-2.25-1.188-3.376-1.812l-0.376-0.188a193.368 193.368 0 0 1-47.376-34.814c-36.564-36.562-56.75-85.19-56.75-136.876a194.138 194.138 0 0 1 12.312-68.124l0.062-0.124 0.124 0.062c14.312 4.312 28.188 10.124 41.25 17.124 3.688 2.312 7.5 4.5 11.312 6.562 15.75 9.688 30.25 21.438 43.25 34.812v0.124a100.246 100.246 0 0 0-0.5 9.562c0 17.5 5.188 34.312 15.062 48.624 9.688 14 23.124 24.752 38.812 31.064h0.124v0.062a225.058 225.058 0 0 1 10.438 65.938v2.628a228.774 228.774 0 0 1-3.37 38.128z m161.55-49.564a192.054 192.054 0 0 1-51.188 36.814c-18.752 9.312-38.94 15.376-59.814 18.188h-0.124l-0.062-0.124c-0.376-1.876-0.688-3.624-1-5.312a229.41 229.41 0 0 1-3.376-38.124v-0.876-1.752a224.322 224.322 0 0 1 10.438-65.876v-0.062l0.062-0.062c15.75-6.25 29.188-17.002 38.876-31.002 9.94-14.376 15.126-31.188 15.126-48.688 0-3.124-0.188-6.376-0.5-9.624l-0.062-0.124h0.062A223.264 223.264 0 0 1 640 497.878a273.104 273.104 0 0 0 12.562-7.25c12.812-6.876 26.502-12.5 40.564-16.812h0.124l0.062 0.124a193.892 193.892 0 0 1 12.312 68.124c0 51.686-20.186 100.312-56.75 136.876z" fill="#AC92EC" /><path d="M597.342 541.968c0 47.124-38.22 85.346-85.346 85.346s-85.328-38.22-85.328-85.346 38.204-85.312 85.328-85.312 85.346 38.188 85.346 85.312z" fill="#967ADC" /></svg>