<?xml version="1.0" standalone="no"?><!DOCTYPE svg PUBLIC "-//W3C//DTD SVG 1.1//EN" "http://www.w3.org/Graphics/SVG/1.1/DTD/svg11.dtd"><svg class="icon" width="128px" height="128.00px" viewBox="0 0 1024 1024" version="1.1" xmlns="http://www.w3.org/2000/svg"><path d="M938.644 938.644c0 47.124-38.188 85.34-85.312 85.34H170.666c-47.124 0-85.31-38.216-85.31-85.34V170.666c0-47.124 38.188-85.34 85.31-85.34h682.666c47.124 0 85.312 38.216 85.312 85.34v767.978z" fill="#F4BE8E" /><path d="M938.644 853.334c0 47.124-38.188 85.31-85.312 85.31H170.666c-47.124 0-85.31-38.188-85.31-85.31V85.358C85.356 38.234 123.544 0.016 170.666 0.016h682.666c47.124 0 85.312 38.218 85.312 85.342v767.976z" fill="#FFD2A6" /><path d="M923.582 198.26c-8.344 8.344-8.344 21.844 0 30.156a21.152 21.152 0 0 0 15.062 6.25V192.01a21.28 21.28 0 0 0-15.062 6.25zM923.582 313.756a21.276 21.276 0 0 0 15.062 6.25v-42.654a21.144 21.144 0 0 0-15.062 6.25c-8.344 8.312-8.344 21.812 0 30.154zM923.582 399.098a21.276 21.276 0 0 0 15.062 6.25v-42.686a21.276 21.276 0 0 0-15.062 6.25 21.33 21.33 0 0 0 0 30.186zM923.582 484.408a21.152 21.152 0 0 0 15.062 6.25v-42.656a21.276 21.276 0 0 0-15.062 6.25c-8.344 8.344-8.344 21.844 0 30.156zM923.582 569.748a21.276 21.276 0 0 0 15.062 6.25v-42.654a21.144 21.144 0 0 0-15.062 6.25c-8.344 8.312-8.344 21.81 0 30.154zM923.582 655.09a21.276 21.276 0 0 0 15.062 6.25v-42.686a21.276 21.276 0 0 0-15.062 6.25 21.33 21.33 0 0 0 0 30.186zM923.582 740.4a21.144 21.144 0 0 0 15.062 6.25v-42.656a21.276 21.276 0 0 0-15.062 6.25c-8.344 8.344-8.344 21.844 0 30.156zM100.418 198.26c8.344 8.344 8.344 21.844 0 30.156a21.152 21.152 0 0 1-15.062 6.25V192.01a21.28 21.28 0 0 1 15.062 6.25zM100.418 313.756a21.276 21.276 0 0 1-15.062 6.25v-42.654c5.438 0 10.906 2.062 15.062 6.25 8.344 8.312 8.344 21.812 0 30.154zM100.418 399.098a21.276 21.276 0 0 1-15.062 6.25v-42.686c5.438 0 10.906 2.094 15.062 6.25a21.33 21.33 0 0 1 0 30.186zM100.418 484.408a21.152 21.152 0 0 1-15.062 6.25v-42.656c5.438 0 10.906 2.094 15.062 6.25 8.344 8.344 8.344 21.844 0 30.156zM100.418 569.748a21.276 21.276 0 0 1-15.062 6.25v-42.654c5.438 0 10.906 2.062 15.062 6.25 8.344 8.312 8.344 21.81 0 30.154zM100.418 655.09a21.276 21.276 0 0 1-15.062 6.25v-42.686c5.438 0 10.906 2.094 15.062 6.25a21.33 21.33 0 0 1 0 30.186zM100.418 740.4a21.144 21.144 0 0 1-15.062 6.25v-42.656c5.438 0 10.906 2.094 15.062 6.25 8.344 8.344 8.344 21.844 0 30.156z" fill="#F4BE8E" /><path d="M667.59 15.11A21.216 21.216 0 0 1 661.34 0.016h42.654c0 5.468-2.094 10.906-6.25 15.094-8.344 8.312-21.842 8.312-30.154 0zM582.248 15.11a21.35 21.35 0 0 1-6.25-15.094h42.654a21.22 21.22 0 0 1-6.25 15.094c-8.312 8.312-21.81 8.312-30.154 0zM496.906 15.11a21.35 21.35 0 0 1-6.25-15.094h42.688c0 5.468-2.094 10.906-6.25 15.094-8.344 8.312-21.844 8.312-30.188 0zM411.596 15.11a21.216 21.216 0 0 1-6.25-15.094h42.656c0 5.468-2.094 10.906-6.25 15.094-8.344 8.312-21.844 8.312-30.156 0zM326.256 15.11a21.35 21.35 0 0 1-6.25-15.094h42.654a21.22 21.22 0 0 1-6.25 15.094c-8.312 8.312-21.81 8.312-30.154 0z" fill="#F4BE8E" /><path d="M810.648 767.992c0 23.562-19.094 42.656-42.656 42.656H256.008c-23.562 0-42.656-19.094-42.656-42.656V170.666c0-23.562 19.094-42.656 42.656-42.656h511.984c23.562 0 42.656 19.094 42.656 42.656v597.326z" fill="#F4BE8E" /><path d="M719.056 676.402c8.342-8.312 8.342-21.812 0-30.156-8.312-8.344-21.844-8.344-30.156 0-8.342 8.344-8.342 21.844 0 30.156 8.312 8.342 21.844 8.342 30.156 0zM591.06 676.402c8.342-8.312 8.342-21.812 0-30.156-8.312-8.344-21.844-8.344-30.156 0-8.342 8.344-8.342 21.844 0 30.156 8.312 8.342 21.844 8.342 30.156 0zM463.064 676.402c8.342-8.312 8.342-21.812 0-30.156-8.312-8.344-21.844-8.344-30.156 0-8.344 8.344-8.344 21.844 0 30.156 8.312 8.342 21.844 8.342 30.156 0zM304.912 646.246c-8.344 8.344-8.344 21.844 0 30.156 8.312 8.342 21.844 8.342 30.156 0 8.342-8.312 8.342-21.812 0-30.156-8.312-8.344-21.844-8.344-30.156 0zM655.058 548.406c8.344-8.312 8.344-21.812 0-30.156-8.312-8.344-21.844-8.344-30.156 0-8.344 8.344-8.344 21.844 0 30.156 8.312 8.342 21.844 8.342 30.156 0zM527.062 548.406c8.344-8.312 8.344-21.812 0-30.156-8.312-8.344-21.844-8.344-30.156 0-8.344 8.344-8.344 21.844 0 30.156 8.312 8.342 21.844 8.342 30.156 0zM399.066 548.406c8.342-8.312 8.342-21.812 0-30.156-8.312-8.344-21.844-8.344-30.156 0-8.344 8.344-8.344 21.844 0 30.156 8.312 8.342 21.844 8.342 30.156 0zM719.056 420.442a21.336 21.336 0 0 0 0-30.188c-8.312-8.312-21.844-8.312-30.156 0a21.336 21.336 0 0 0 0 30.188c8.312 8.31 21.844 8.31 30.156 0zM591.06 420.442a21.336 21.336 0 0 0 0-30.188c-8.312-8.312-21.844-8.312-30.156 0a21.336 21.336 0 0 0 0 30.188c8.312 8.31 21.844 8.31 30.156 0zM463.064 420.442a21.336 21.336 0 0 0 0-30.188c-8.312-8.312-21.844-8.312-30.156 0a21.332 21.332 0 0 0 0 30.188c8.312 8.31 21.844 8.31 30.156 0zM335.068 420.442a21.336 21.336 0 0 0 0-30.188c-8.312-8.312-21.844-8.312-30.156 0a21.332 21.332 0 0 0 0 30.188c8.312 8.31 21.844 8.31 30.156 0zM655.058 292.414c8.344-8.312 8.344-21.812 0-30.156-8.312-8.344-21.844-8.344-30.156 0-8.344 8.344-8.344 21.844 0 30.156 8.312 8.342 21.844 8.342 30.156 0zM527.062 292.414c8.344-8.312 8.344-21.812 0-30.156-8.312-8.344-21.844-8.344-30.156 0-8.344 8.344-8.344 21.844 0 30.156 8.312 8.342 21.844 8.342 30.156 0zM399.066 292.414c8.342-8.312 8.342-21.812 0-30.156-8.312-8.344-21.844-8.344-30.156 0-8.344 8.344-8.344 21.844 0 30.156 8.312 8.342 21.844 8.342 30.156 0z" fill="#EAAD7A" /><path d="M356.41 923.582c-8.312-8.344-21.81-8.344-30.154 0a21.276 21.276 0 0 0-6.25 15.062l42.654 0.188c0.032-5.5-2.032-11.062-6.25-15.25zM441.752 923.582c-8.344-8.344-21.844-8.344-30.156 0a21.144 21.144 0 0 0-6.25 15.062h-0.032l42.688 0.188c0.032-5.5-2.032-11.062-6.25-15.25zM527.094 923.582a21.332 21.332 0 0 0-30.188 0 21.276 21.276 0 0 0-6.25 15.062l42.656 0.188c0.064-5.5-2-11.032-6.218-15.25zM612.402 923.582c-8.312-8.344-21.81-8.344-30.154 0a21.276 21.276 0 0 0-6.25 15.062l42.654 0.218a21.2 21.2 0 0 0-6.25-15.28zM697.744 923.582c-8.344-8.344-21.842-8.344-30.154 0a21.144 21.144 0 0 0-6.25 15.062h-0.032l42.686 0.25a21.28 21.28 0 0 0-6.25-15.312z" fill="#F4BE8E" /><path d="M320.006 938.644h42.654v85.34h-42.654z" fill="#EAAD7A" /><path d="M405.314 938.644h42.688v85.34h-42.688z" fill="#EAAD7A" /><path d="M490.656 938.644h42.656v85.34h-42.656z" fill="#EAAD7A" /><path d="M575.998 938.644h42.654v85.34h-42.654z" fill="#EAAD7A" /><path d="M661.308 938.644h42.686v85.34h-42.686z" fill="#EAAD7A" /></svg>