<?xml version="1.0" standalone="no"?><!DOCTYPE svg PUBLIC "-//W3C//DTD SVG 1.1//EN" "http://www.w3.org/Graphics/SVG/1.1/DTD/svg11.dtd"><svg class="icon" width="128px" height="128.00px" viewBox="0 0 1024 1024" version="1.1" xmlns="http://www.w3.org/2000/svg"><path d="M341.376 750.218v-48.562h-42.624v48.562c0 0.156-0.062 0.312-0.062 0.438 0 11.812 9.562 21.344 21.376 21.344 11.75 0 21.312-9.532 21.312-21.344l-0.002-0.438zM643.062 452H960v42.656H643.062z" fill="#434A54" /><path d="M1024 473.344c0 35.344-28.624 64-64 64-35.312 0-64-28.656-64-64s28.688-64 64-64c35.376 0 64 28.656 64 64z" fill="#FFCE54" /><path d="M242.624 868l-163.75-88.906 110-268.032 176.188 103.594S288.188 624.75 242.624 868z" fill="#DA4453" /><path d="M576.25 433.562c147.312 42.25-277.562 228.188-277.562 228.188S21.124 586.844 21.124 433.562C21.124 280.25 145.376 156 298.688 156 384 156 361.75 372 576.25 433.562z" fill="#DA4453" /><path d="M341.376 238.656c-154 0-285.876 96.938-341.376 234.688C55.5 611.094 187.376 708 341.376 708c153.938 0 285.876-96.906 341.312-234.656-55.438-137.75-187.376-234.688-341.312-234.688z" fill="#ED5565" /><path d="M454.5 511.062l-75.438-75.438c-8.312-8.344-21.812-8.344-30.188 0l-30.124 30.156-60.376-60.312c-8.312-8.344-21.812-8.344-30.188 0-8.312 8.312-8.312 21.812 0 30.156l75.438 75.438c8.376 8.312 21.876 8.312 30.188 0L364 480.876l60.312 60.344c8.312 8.344 21.876 8.344 30.188 0s8.312-21.844 0-30.158zM809.938 494.656c-1.438 20.406-4.938 39.718-10.188 55.812-3.562 10.968-7.312 18.562-10.376 23.5-3.124-4.938-6.812-12.532-10.438-23.5-7.062-21.624-10.938-49.032-10.938-77.124 0-28.124 3.876-55.5 10.938-77.124 3.624-11 7.312-18.562 10.438-23.5 3.062 4.938 6.812 12.5 10.376 23.5 5.25 16.094 8.75 35.376 10.188 55.782h42.75c-4.438-72.376-31.124-128-63.312-128-35.376 0-64 66.876-64 149.344s28.624 149.312 64 149.312c32.188 0 58.876-55.624 63.312-128h-42.75z" fill="#FFCE54" /></svg>