<?xml version="1.0" standalone="no"?><!DOCTYPE svg PUBLIC "-//W3C//DTD SVG 1.1//EN" "http://www.w3.org/Graphics/SVG/1.1/DTD/svg11.dtd"><svg class="icon" width="128px" height="128.00px" viewBox="0 0 1024 1024" version="1.1" xmlns="http://www.w3.org/2000/svg"><path d="M816.618 332.848c0-115.09-93.312-208.4-208.434-208.4-34.688 0-67.402 8.5-96.184 23.5-28.782-15-61.5-23.5-96.186-23.5-115.106 0-208.416 93.31-208.416 208.4 0 31.624 7.046 61.594 19.656 88.436l62.78 136.028c-15.014 48.092 9.454 336.648 109.934 336.648 31.61 0 81.232-268.244 112.216-268.462 30.968-0.218 80.574 268.462 112.2 268.462 100.496 0 124.964-288.556 109.934-336.648l62.844-136.028c12.592-26.842 19.656-56.812 19.656-88.436z" fill="#E6E9ED" /><path d="M512 579.56c-237.228 0-144.372-207.994-511.988-191.994v511.986h1023.976V387.566c-367.616-16-274.746 191.994-511.988 191.994z" fill="#EC87C0" /><path d="M512 771.554c197.434 0 360.05-165.558 381.55-378.55C676.028 426.19 715.71 579.56 512 579.56c-203.714 0-164.028-153.372-381.554-186.556C151.946 605.996 314.568 771.554 512 771.554z" fill="#ED5564" /><path d="M853.304 600.902c-4.656 3.718-63.906 53.968-62.406 106.718 0.438 38.498 27.812 63.214 62.406 63.934 34.622-0.718 61.996-25.436 62.434-63.934 1.5-52.748-57.746-102.998-62.434-106.718z" fill="#DA4453" /><path d="M512 579.56c-237.228 0-144.372-207.994-511.988-191.994v42.686c367.616-16 274.758 191.994 511.988 191.994 237.242 0 144.372-207.994 511.988-191.994v-42.686c-367.616-16-274.746 191.994-511.988 191.994z" fill="#FFFFFF" opacity=".2" /></svg>