<?xml version="1.0" standalone="no"?><!DOCTYPE svg PUBLIC "-//W3C//DTD SVG 1.1//EN" "http://www.w3.org/Graphics/SVG/1.1/DTD/svg11.dtd"><svg class="icon" width="128px" height="128.00px" viewBox="0 0 1024 1024" version="1.1" xmlns="http://www.w3.org/2000/svg"><path d="M509.25 0.004h-85.328c-11.782 0-21.344 9.562-21.344 21.344s9.562 21.312 21.344 21.312h85.328c11.782 0 21.326-9.532 21.326-21.312S521.032 0.004 509.25 0.004z" fill="#434A54" /><path d="M461.876 574.75l-14.376-40.156c0.766-0.282 76.466-27.562 159.154-72.062 106.81-57.5 176.842-117.248 202.466-172.81 28.532-61.812 33.312-110.312 13.438-136.594-15.624-20.688-47.718-29.438-85.812-23.468-34.906 5.5-65.904 23.062-72.092 40.812l-40.282-14.032c6.156-17.656 20.532-33.688 41.624-46.344 18.156-10.906 40.936-18.906 64.124-22.562 53.906-8.5 101.188 6.406 126.468 39.876 14.844 19.624 21.812 44.594 20.718 74.188-1.156 30.5-11.062 66.156-29.438 106-30 65.032-104.532 129.904-221.53 192.78-85.418 45.934-161.276 73.246-164.462 74.372z" fill="#E6E9ED" /><path d="M146.58 85.346l50.154 128 56.516 495.436h426.654l63.998-623.436z" fill="#F5F7FA" /><path d="M206.468 298.658l46.782 410.124h426.654l42.092-410.124z" fill="#FFCE54" /><path d="M722.558 1002.652c0 11.782-9.532 21.344-21.312 21.344-11.78 0-21.342-9.562-21.342-21.344s9.562-21.312 21.342-21.312a21.3 21.3 0 0 1 21.312 21.312zM251.922 1002.652c0 11.782-9.562 21.344-21.344 21.344s-21.328-9.562-21.328-21.344 9.546-21.312 21.328-21.312 21.344 9.532 21.344 21.312z" fill="#E9573F" /><path d="M750.652 813.248l-56.154-154.498c-8.032-22.032-33.782-40.094-57.25-40.094H295.922c-23.468 0-49.234 18.062-57.25 40.094L182.5 813.248c-8.032 22.032-14.576 59.282-14.576 82.75v64c0 23.466 19.186 42.654 42.654 42.654h511.98c23.468 0 42.688-19.188 42.688-42.654v-64c0-23.468-6.562-60.718-14.594-82.75z" fill="#FC6E51" /><path d="M743.902 85.346V42.66c0-11.782-9.562-21.312-21.344-21.312h-511.98c-11.782 0-21.328 9.532-21.328 21.312v42.686h554.652z" fill="#E6E9ED" /><path d="M466.578 708.782c-58.906 0-106.656 47.75-106.656 106.654 0 58.906 47.75 106.688 106.656 106.688 58.904 0 106.67-47.782 106.67-106.688 0-58.904-47.766-106.654-106.67-106.654z m0 170.654c-35.282 0-64-28.718-64-64 0-35.28 28.718-63.998 64-63.998 35.296 0 63.998 28.718 63.998 63.998s-28.7 64-63.998 64z" fill="#E9573F" /><path d="M445.25 256.002h42.672c11.782 0 21.328-9.562 21.328-21.344s-9.546-21.312-21.328-21.312h-42.672c-11.782 0-21.328 9.532-21.328 21.312s9.546 21.344 21.328 21.344zM487.922 298.658h-42.672c-11.782 0-21.328 9.562-21.328 21.344s9.546 21.344 21.328 21.344h42.672c11.782 0 21.328-9.562 21.328-21.344s-9.546-21.344-21.328-21.344zM487.922 384.002h-42.672c-11.782 0-21.328 9.562-21.328 21.342 0 11.782 9.546 21.312 21.328 21.312h42.672c11.782 0 21.328-9.532 21.328-21.312 0-11.78-9.546-21.342-21.328-21.342zM487.922 469.344h-42.672c-11.782 0-21.328 9.532-21.328 21.312S433.468 512 445.25 512h42.672c11.782 0 21.328-9.562 21.328-21.344s-9.546-21.312-21.328-21.312z" fill="#434A54" /><path d="M466.578 900.78c-47.046 0-85.328-38.282-85.328-85.344 0-47.06 38.282-85.31 85.328-85.31 47.062 0 85.326 38.25 85.326 85.31 0 47.062-38.264 85.344-85.326 85.344z" fill="#E6E9ED" /><path d="M487.922 772.782c0 11.782-9.562 21.342-21.344 21.342s-21.328-9.56-21.328-21.342 9.546-21.344 21.328-21.344 21.344 9.562 21.344 21.344z" fill="#CCD1D9" /></svg>