<?xml version="1.0" standalone="no"?><!DOCTYPE svg PUBLIC "-//W3C//DTD SVG 1.1//EN" "http://www.w3.org/Graphics/SVG/1.1/DTD/svg11.dtd"><svg class="icon" width="128px" height="128.00px" viewBox="0 0 1024 1024" version="1.1" xmlns="http://www.w3.org/2000/svg"><path d="M512 767.992c-98.092 0-195.526-25.216-281.836-72.996-79.53-44-149.84-107.092-204.152-182.964 54.31-75.906 124.622-138.964 204.152-182.996 86.31-47.782 183.746-73.03 281.836-73.03s195.528 25.248 281.836 73.03c79.528 44.032 149.84 107.09 204.122 182.996-54.282 75.874-124.594 138.964-204.122 182.964-86.308 47.78-183.746 72.996-281.836 72.996z" fill="#F5F7FA" /><path d="M511.998 469.344m-234.65 0a234.65 234.65 0 1 0 469.3 0 234.65 234.65 0 1 0-469.3 0Z" fill="#ED5564" /><path d="M512 234.696c-210.87 0-397.584 109.372-511.988 277.336C114.416 679.964 301.13 789.336 512 789.336c210.868 0 397.55-109.372 511.988-277.304C909.55 344.066 722.868 234.696 512 234.696z m384.52 360.082c-34.59 31.75-72.59 59.188-113.028 81.562-41.032 22.718-84.622 40.216-129.464 52.03-46.188 12.156-93.968 18.312-142.028 18.312-48.062 0-95.842-6.156-142.028-18.312-44.874-11.812-88.436-29.31-129.466-52.03-40.436-22.376-78.466-49.812-113.028-81.562a614.908 614.908 0 0 1-74.998-82.746 613.254 613.254 0 0 1 74.998-82.78c34.562-31.75 72.592-59.186 113.028-81.56 41.03-22.718 84.592-40.218 129.466-52.032 46.186-12.156 93.966-18.312 142.028-18.312 48.058 0 95.84 6.156 142.028 18.312 44.844 11.812 88.434 29.312 129.464 52.032 40.438 22.376 78.438 49.81 113.028 81.56a613.27 613.27 0 0 1 75 82.78 614.924 614.924 0 0 1-75 82.746z" fill="#E6E9ED" /><path d="M597.34 469.344c0 47.124-38.218 85.342-85.34 85.342-47.124 0-85.342-38.216-85.342-85.342 0-47.124 38.218-85.34 85.342-85.34 47.122 0 85.34 38.216 85.34 85.34z" fill="#DA4453" /><path d="M1023.988 21.356c0-11.782-9.562-21.344-21.344-21.344a21.28 21.28 0 0 0-15.062 6.25L6.262 987.582a21.226 21.226 0 0 0-6.25 15.094c0 11.782 9.562 21.312 21.342 21.312a21.26 21.26 0 0 0 15.062-6.218l981.32-981.32a21.22 21.22 0 0 0 6.252-15.094z" fill="#434A54" /></svg>