<?xml version="1.0" standalone="no"?><!DOCTYPE svg PUBLIC "-//W3C//DTD SVG 1.1//EN" "http://www.w3.org/Graphics/SVG/1.1/DTD/svg11.dtd"><svg class="icon" width="128px" height="128.00px" viewBox="0 0 1024 1024" version="1.1" xmlns="http://www.w3.org/2000/svg"><path d="M810.544 0.032c-88.338 0-98.806 62.872-213.392 60.966l0.062 463.252c0 16.842 13.654 30.496 30.496 30.496H993.5c16.842 0 30.498-13.654 30.498-30.496l-0.062-463.252C909.352 62.902 898.852 0.032 810.544 0.032z" fill="#E6E9ED" /><path d="M789.266 468.004v171.988c0 45.59-17.75 88.432-49.966 120.68-32.248 32.216-75.088 49.964-120.68 49.964h-163.6v42.686h163.6c117.804 0 213.33-95.526 213.33-213.33v-171.988h-42.684z" fill="#DA4453" /><path d="M917.258 128.024h-213.3c-23.466 0-42.684 19.186-42.684 42.654V393.32c0 23.466 9.624 54.964 21.342 69.996 11.748 15.06 40.53 27.34 63.996 27.34h127.99c23.468 0 52.28-12.28 63.996-27.34 11.75-15.032 21.344-46.53 21.344-69.996V170.678c0-23.468-19.22-42.654-42.684-42.654z" fill="#F5F7FA" /><path d="M405.226 611.96c-56.748-27.496-117.884-15.874-159.974 33.344-42.108-49.216-103.244-60.84-159.99-33.344-72.212 39.156-106.62 128.46-71.228 222.02 44.856 124.242 207.532 182.426 231.218 189.988 23.67-7.562 186.348-65.746 231.204-189.988 35.388-93.558 0.998-182.862-71.23-222.02z" fill="#E6E9ED" /><path d="M476.454 833.98c9.172-24.282 13.656-48.248 14-71.122-65.418-21.032-166.378-6.656-233.312 19.56-74.668 29.28-143.696 44.716-205.708 22.686-5.75-2.032-36.262-13.904-49.73-19.592 2.094 15.842 6.14 32.092 12.328 48.466 44.856 124.242 207.532 182.426 231.218 189.988 23.67-7.56 186.348-65.744 231.204-189.986zM944.316 265.266c-36.214 3.75-72.962 14.218-108.398 27.374-55.778 20.716-108.336 33.874-156.928 29.842h-17.716v70.84c0 23.466 9.624 54.964 21.342 69.996 11.748 15.06 40.53 27.34 63.996 27.34h127.99c23.468 0 52.28-12.28 63.996-27.34 11.75-15.032 21.344-46.53 21.344-69.996v-128.054h-15.626z" fill="#ED5564" /><path d="M405.226 611.96c-27.186-13.154-55.388-17.342-82.026-12.716 13.17 2.218 26.372 6.438 39.372 12.716 72.214 39.156 106.618 128.46 71.214 222.02-37.592 104.148-157.958 161.864-209.878 182.27 10.016 3.938 17.516 6.5 21.344 7.718 23.67-7.562 186.348-65.746 231.204-189.988 35.388-93.558 0.998-182.862-71.23-222.02zM917.258 128.024h-42.656c23.468 0 42.656 19.186 42.656 42.654V393.32c0 23.466-9.594 54.964-21.312 69.996-11.75 15.06-40.528 27.34-63.996 27.34h42.652c23.468 0 52.28-12.28 63.996-27.34 11.75-15.032 21.344-46.53 21.344-69.996V170.678c0-23.468-19.22-42.654-42.684-42.654z" fill="#FFFFFF" opacity=".2" /></svg>