<?xml version="1.0" standalone="no"?><!DOCTYPE svg PUBLIC "-//W3C//DTD SVG 1.1//EN" "http://www.w3.org/Graphics/SVG/1.1/DTD/svg11.dtd"><svg class="icon" width="128px" height="128.00px" viewBox="0 0 1024 1024" version="1.1" xmlns="http://www.w3.org/2000/svg"><path d="M1017.73 338.132L685.87 6.27a21.306 21.306 0 0 0-30.156 0L6.27 655.712c-4 4-6.25 9.438-6.25 15.094s2.25 11.062 6.25 15.062l331.862 331.862a21.152 21.152 0 0 0 15.078 6.25c5.454 0 10.922-2.062 15.078-6.25l649.444-649.444c8.31-8.31 8.31-21.81-0.002-30.154z" fill="#8CC153" /><path d="M881.984 323.038c8.312-8.312 8.312-21.842 0-30.154l-150.87-150.838c-8.31-8.342-21.808-8.342-30.152 0a42.39 42.39 0 0 1-30.156 12.5 42.404 42.404 0 0 1-30.188-12.5c-4-4-9.438-6.25-15.06-6.25a21.376 21.376 0 0 0-15.124 6.25L142.03 610.464c-8.328 8.344-8.328 21.844 0 30.156 16.64 16.654 16.64 43.716 0 60.34-8.328 8.344-8.328 21.844 0 30.188l150.836 150.838a21.34 21.34 0 0 0 30.172 0 42.398 42.398 0 0 1 30.17-12.5 42.39 42.39 0 0 1 30.17 12.5 21.292 21.292 0 0 0 15.078 6.248c5.468 0 10.92-2.094 15.092-6.248l468.434-468.42c8.312-8.344 8.312-21.842 0-30.186-16.622-16.624-16.622-43.686 0.002-60.342z" fill="#A0D468" /><path d="M602.496 421.502c-24.154-24.186-56.31-37.498-90.496-37.498-34.186 0-66.326 13.312-90.512 37.498-24.17 24.186-37.482 56.31-37.482 90.498 0 34.186 13.312 66.342 37.482 90.496 24.186 24.188 56.326 37.5 90.512 37.5s66.342-13.312 90.496-37.468c49.936-49.904 49.936-131.12 0-181.026z" fill="#8CC153" /><path d="M1017.73 505.75a21.206 21.206 0 0 1-15.062 6.25c-11.812 0-21.376-9.532-21.344-21.312v-137.462c-0.032-11.782 9.532-21.344 21.344-21.344 11.75 0 21.312 9.562 21.312 21.344v137.462c0 5.874-2.374 11.218-6.25 15.062z" fill="#ED5564" /><path d="M932.422 633.746a21.296 21.296 0 0 1-15.124 6.25c-11.75 0-21.312-9.532-21.312-21.312v-180.15c0-11.78 9.562-21.31 21.344-21.31s21.342 9.53 21.342 21.31v180.15a21.3 21.3 0 0 1-6.25 15.062zM932.422 761.74a21.296 21.296 0 0 1-15.124 6.25c-11.75 0-21.312-9.532-21.312-21.312v-42.686c0-11.78 9.562-21.31 21.312-21.31 11.812 0 21.374 9.532 21.374 21.31v42.686a21.3 21.3 0 0 1-6.25 15.062z" fill="#DA4453" /><path d="M847.08 591.09a21.412 21.412 0 0 1-15.094 6.25c-11.78 0-21.31-9.562-21.31-21.342v-52.124c0-11.782 9.532-21.344 21.31-21.344 11.782 0.032 21.342 9.562 21.342 21.344v52.124a21.496 21.496 0 0 1-6.248 15.092z" fill="#ED5564" /><path d="M761.738 761.74a21.206 21.206 0 0 1-15.06 6.25c-11.812 0-21.374-9.532-21.374-21.312v-137.462c0-11.782 9.56-21.344 21.374-21.344 11.748 0 21.31 9.562 21.31 21.344v137.462c0 5.874-2.374 11.218-6.25 15.062z" fill="#DA4453" /><path d="M676.432 761.74a21.296 21.296 0 0 1-15.124 6.25c-11.75 0-21.312-9.532-21.312-21.312v-52.152c0-11.782 9.562-21.312 21.312-21.312 11.812 0 21.376 9.532 21.376 21.312v52.152a21.294 21.294 0 0 1-6.252 15.062z" fill="#ED5564" /><path d="M676.432 889.734a21.296 21.296 0 0 1-15.124 6.25c-11.75 0-21.312-9.532-21.312-21.31v-42.688c0-11.782 9.562-21.312 21.312-21.312 11.812 0 21.376 9.532 21.376 21.312v42.688a21.29 21.29 0 0 1-6.252 15.06z" fill="#DA4453" /><path d="M571.498 724.024s-48.484 48.498 0.062 90.462l446.17-446.2c8.312-8.312 8.312-21.812 0-30.156l-30.188-30.156-416.044 416.05z" fill="#ED5564" /></svg>