<?xml version="1.0" standalone="no"?><!DOCTYPE svg PUBLIC "-//W3C//DTD SVG 1.1//EN" "http://www.w3.org/Graphics/SVG/1.1/DTD/svg11.dtd"><svg class="icon" width="128px" height="128.00px" viewBox="0 0 1024 1024" version="1.1" xmlns="http://www.w3.org/2000/svg"><path d="M981.376 810.688c0 11.75-9.562 21.312-21.376 21.312H64c-11.75 0-21.312-9.562-21.312-21.312V213.312C42.688 201.562 52.25 192 64 192h896c11.812 0 21.376 9.562 21.376 21.312v597.376z" fill="#37BC9B" /><path d="M767.188 350l-125.062-72.188L517.062 350v119.688l-82.438 47.562-103.75-59.876-125.062 72.188V674l125.062 72.188 103.75-59.876 103.75 59.876L663.438 674v-119.688l103.75-59.876V350zM413.25 649.376l-82.376 47.562-82.438-47.562v-95.188l82.438-47.562 82.376 47.562v95.188z m125.126 47.562L456 649.376v-95.188l82.312-47.5 82.5 47.624v95.062l-82.436 47.564z m186.124-227.126l-82.312 47.5-82.438-47.624v-95.062l82.376-47.562 82.376 47.562v95.186z" fill="#F5F7FA" /><path d="M1002.688 789.312H21.376A21.366 21.366 0 0 0 0 810.688C0 822.438 9.562 832 21.376 832h981.312c11.75 0 21.312-9.562 21.312-21.312 0-11.812-9.562-21.376-21.312-21.376z" fill="#434A54" /><path d="M874.688 746.688H704c-11.75 0-21.312 9.532-21.312 21.312s9.562 21.312 21.312 21.312h170.688c11.75 0 21.312-9.532 21.312-21.312s-9.562-21.312-21.312-21.312z" fill="#F5F7FA" /></svg>