<?xml version="1.0" standalone="no"?><!DOCTYPE svg PUBLIC "-//W3C//DTD SVG 1.1//EN" "http://www.w3.org/Graphics/SVG/1.1/DTD/svg11.dtd"><svg class="icon" width="128px" height="128.00px" viewBox="0 0 1024 1024" version="1.1" xmlns="http://www.w3.org/2000/svg"><path d="M0.014 234.672h1023.972v255.994H0.014z" fill="#F6BB42" /><path d="M0.014 149.33h1023.972v255.994H0.014z" fill="#FFCE54" /><path d="M149.354 277.328c11.78 0 21.342-9.532 21.342-21.342 0-11.782-9.562-21.312-21.342-21.312H0.014v42.656h149.34zM831.99 319.982c-63.092 0-100.09 27.186-120.026 49.966a143.136 143.136 0 0 0-22.782 35.374h49.03c14.216-19.562 41.998-42.656 93.778-42.656h191.996V319.98h-191.996zM0.014 618.676h1023.972v255.994H0.014z" fill="#F6BB42" /><path d="M0.014 533.32h1023.972v255.974H0.014z" fill="#FFCE54" /><path d="M320.004 639.988c63.124 0 100.122-27.188 120.058-49.934 21.438-24.5 27.968-48.86 28.656-51.546 0.438-1.75 0.594-3.468 0.594-5.188H425.5c-2.5 6.312-7.812 17.484-17.532 28.61-20.56 23.5-50.124 35.376-87.966 35.376H0.014v42.684h319.99zM917.332 597.304c-11.782 0-21.344 9.562-21.344 21.372 0 11.75 9.562 21.312 21.344 21.312h106.654v-42.684h-106.654zM789.396 682.674c-11.78 0-21.342 9.5-21.342 21.312s9.562 21.312 21.342 21.312h234.59v-42.624H789.396z" fill="#F6BB42" /></svg>