<?xml version="1.0" standalone="no"?><!DOCTYPE svg PUBLIC "-//W3C//DTD SVG 1.1//EN" "http://www.w3.org/Graphics/SVG/1.1/DTD/svg11.dtd"><svg class="icon" width="128px" height="128.00px" viewBox="0 0 1024 1024" version="1.1" xmlns="http://www.w3.org/2000/svg"><path d="M954.864 280.25c17.624-125.624 112.716-188.84 45.218-256.338-67.468-67.498-130.714 27.592-256.306 45.248-125.624 17.624-175.372-96.06-226.182-45.248C466.812 74.722 12.51 529.026 12.51 529.026c-16.656 16.608-16.656 43.638 0 60.294L223.6 800.41l211.088 211.086c16.656 16.656 43.656 16.656 60.31 0 0 0 454.302-454.3 505.084-505.096 50.81-50.812-62.844-100.562-45.218-226.15z m-15.094-165.872c-8.312 8.344-21.81 8.344-30.154 0-8.312-8.312-8.312-21.844 0-30.156 8.344-8.312 21.842-8.312 30.154 0 8.344 8.312 8.344 21.844 0 30.156z" fill="#EAAD7A" /><path d="M902.522 483.368l-60.312-180.932-118.746-118.748-182.808-62.186L102.978 559.132l361.866 361.9z" fill="#F4BE8E" /><path d="M751.088 423.714L603.374 276a20.28 20.28 0 0 0-2.75-3.406c-8.344-8.312-21.844-8.312-30.156 0a21.334 21.334 0 0 0 0 30.186l-0.312 0.312 150.78 150.778c8.31 8.312 21.81 8.312 30.154-0.032 8.31-8.312 8.31-21.812-0.002-30.124zM705.996 468.776l-147.684-147.716a23.386 23.386 0 0 0-2.782-3.376c-8.312-8.342-21.812-8.342-30.156 0-8.312 8.312-8.312 21.844 0 30.156l-0.312 0.312 150.778 150.778c8.344 8.344 21.844 8.344 30.156 0 8.344-8.312 8.344-21.844 0-30.154zM660.778 514.026l-147.716-147.716a20.28 20.28 0 0 0-2.75-3.406c-8.344-8.312-21.844-8.312-30.156 0-8.344 8.342-8.344 21.842 0 30.154v0.032l-0.312 0.312 150.778 150.762c8.312 8.312 21.812 8.312 30.156 0 8.312-8.328 8.312-21.826 0-30.138z" fill="#ED5564" /><path d="M449.906 680.474c-28.406 0-55.124-11.094-75.216-31.156-41.468-41.498-41.468-108.982 0-150.482 20.094-20.094 46.812-31.156 75.216-31.156 28.438 0 55.156 11.062 75.25 31.156 20.094 20.126 31.156 46.796 31.156 75.234 0 28.406-11.062 55.124-31.156 75.216-20.094 20.094-46.812 31.188-75.25 31.188z" fill="#ED5564" /><path d="M540.218 483.774c-24.938-24.936-57.624-37.404-90.312-37.404-32.656 0-65.342 12.468-90.31 37.404-49.874 49.874-49.874 130.734 0 180.606 24.968 24.938 57.624 37.404 90.31 37.404 32.688 0 65.376-12.466 90.312-37.404 49.874-49.872 49.874-130.732 0-180.606z m-5.218 90.296c0 15.438-4.094 30.218-11.75 43.188l-43.188-43.188 43.188-43.17c7.656 12.968 11.75 27.732 11.75 43.17z m-85.094-85.046c15.438 0 30.25 4.094 43.186 11.718l-43.186 43.186-43.156-43.186c12.938-7.624 27.75-11.718 43.156-11.718z m-73.31 128.202c-15.592-26.532-15.592-59.782 0-86.294l43.156 43.138-43.156 43.156z m30.154 30.154l43.156-43.154 43.186 43.154c-12.936 7.656-27.75 11.75-43.186 11.75-15.406 0-30.218-4.092-43.156-11.75z" fill="#DA4453" /></svg>