<?xml version="1.0" standalone="no"?><!DOCTYPE svg PUBLIC "-//W3C//DTD SVG 1.1//EN" "http://www.w3.org/Graphics/SVG/1.1/DTD/svg11.dtd"><svg class="icon" width="128px" height="128.00px" viewBox="0 0 1024 1024" version="1.1" xmlns="http://www.w3.org/2000/svg"><path d="M981.376 810.656c0 11.812-9.562 21.344-21.376 21.344H64c-11.75 0-21.312-9.532-21.312-21.344V213.344C42.688 201.532 52.25 192 64 192h896c11.812 0 21.376 9.532 21.376 21.344v597.312z" fill="#37BC9B" /><path d="M896 768c0 11.782-9.562 21.344-21.312 21.344-11.812 0-21.312-9.562-21.312-21.344s9.5-21.344 21.312-21.344c11.75 0 21.312 9.562 21.312 21.344zM725.376 768c0 11.782-9.562 21.344-21.376 21.344-11.75 0-21.312-9.562-21.312-21.344s9.562-21.344 21.312-21.344c11.812 0 21.376 9.562 21.376 21.344z" fill="#F5F7FA" /><path d="M1002.688 789.344H21.376C9.562 789.344 0 798.906 0 810.656 0 822.468 9.562 832 21.376 832h981.312c11.75 0 21.312-9.532 21.312-21.344 0-11.75-9.562-21.312-21.312-21.312z" fill="#434A54" /><path d="M704 746.656h170.688v42.688H704z" fill="#F5F7FA" /><path d="M277.376 448c11.75 0 21.312-9.532 21.312-21.344 0-11.75-9.562-21.312-21.312-21.312H170.688c-11.812 0-21.312 9.562-21.312 21.312v170.688c0 11.75 9.5 21.312 21.312 21.312h106.688c11.75 0 21.312-9.562 21.312-21.312 0-11.812-9.562-21.344-21.312-21.344H192v-42.656h64c11.812 0 21.376-9.562 21.376-21.344s-9.562-21.344-21.376-21.344H192V448h85.376zM426.688 490.656h-64c-11.812 0-21.312 9.562-21.312 21.344s9.5 21.344 21.312 21.344h64c11.75 0 21.312-9.562 21.312-21.344s-9.562-21.344-21.312-21.344zM426.688 554.656h-64c-11.812 0-21.312 9.562-21.312 21.344s9.5 21.344 21.312 21.344h64c11.75 0 21.312-9.562 21.312-21.344s-9.562-21.344-21.312-21.344zM746.688 533.344c3.938 0 7.562 1.062 10.75 2.906 3.124 1.844 6.812 2.844 10.688 2.844 11.75 0 21.312-9.532 21.312-21.312 0-7.906-4.312-14.782-10.688-18.468-0.25-0.156-0.624-0.344-0.876-0.5-9.25-5.156-19.876-8.156-31.188-8.156-35.376 0-64 28.656-64 64 0 35.376 28.624 64 64 64a63.862 63.862 0 0 0 31.188-8.124c0.25-0.156 0.624-0.376 0.876-0.5 6.376-3.688 10.688-10.562 10.688-18.468 0-11.782-9.562-21.344-21.312-21.344-3.876 0-7.562 1.032-10.688 2.876a21.286 21.286 0 0 1-10.75 2.906c-11.75 0-21.312-9.562-21.312-21.344 0-11.754 9.562-21.316 21.312-21.316zM618.624 490.656c-4.75 0-9.124 1.594-12.688 4.218l-40.624 31.656-40.624-31.656c-3.562-2.624-7.938-4.218-12.688-4.218-11.75 0-21.312 9.562-21.312 21.344v85.344c0 11.75 9.562 21.312 21.312 21.312 11.812 0 21.376-9.562 21.376-21.312V555.72l18.312 14.282c3.688 3.062 8.438 4.906 13.624 4.906s9.938-1.844 13.624-4.906l18.376-14.282v41.624c0 11.75 9.562 21.312 21.312 21.312 11.812 0 21.312-9.562 21.312-21.312V512c0.002-11.782-9.498-21.344-21.312-21.344zM853.376 447.906H850.064l12.376-24.624c4.124-8.282 2.5-18.624-4.624-25.188a21.27 21.27 0 0 0-14.5-5.688h-32.624c-11.812 0-21.312 9.562-21.312 21.344 0 11.156 8.562 20.282 19.5 21.218l-12.062 24c-0.688 1.376-1.312 2.812-1.75 4.344-3.312 11.312 3.188 23.156 14.5 26.438 2 0.562 4 0.844 5.938 0.844h37.876c11.75 0 21.312-9.562 21.312-21.344s-9.57-21.344-21.318-21.344z" fill="#F5F7FA" /></svg>