<?xml version="1.0" standalone="no"?><!DOCTYPE svg PUBLIC "-//W3C//DTD SVG 1.1//EN" "http://www.w3.org/Graphics/SVG/1.1/DTD/svg11.dtd"><svg class="icon" width="128px" height="128.00px" viewBox="0 0 1024 1024" version="1.1" xmlns="http://www.w3.org/2000/svg"><path d="M846.988 942.544l-208.834-153.21c-8.5-6.218-20.28-5.312-27.716 2.124l-45.248 45.248a21.356 21.356 0 0 0 0 30.186l150.836 150.836a21.42 21.42 0 0 0 15.092 6.25c2.75 0 5.532-0.532 8.188-1.624l103.246-42.936c7.124-2.938 12.06-9.498 12.998-17.154 0.906-7.626-2.344-15.188-8.562-19.72zM1017.726 716.026l-150.836-150.836a21.354 21.354 0 0 0-30.184 0l-45.25 45.248a21.344 21.344 0 0 0-2.092 27.748l153.552 208.458a21.346 21.346 0 0 0 17.188 8.688 21.294 21.294 0 0 0 19.686-13.186l42.558-102.87a21.32 21.32 0 0 0-4.622-23.25z" fill="#434A54" /><path d="M338.14 148.306a21.346 21.346 0 0 1-15.092-6.25l-75.402-75.434c-8.344-8.342-8.344-21.842 0-30.154 8.312-8.342 21.842-8.342 30.154 0l75.434 75.402c8.312 8.342 8.312 21.842 0 30.186a21.302 21.302 0 0 1-15.094 6.25zM126.962 359.484a21.294 21.294 0 0 1-15.092-6.25L36.436 277.8c-8.312-8.312-8.312-21.842 0-30.154a21.33 21.33 0 0 1 30.186 0l75.434 75.402c8.312 8.342 8.312 21.842 0 30.186a21.4 21.4 0 0 1-15.094 6.25z" fill="#434A54" /><path d="M66.654 268.988a21.44 21.44 0 0 1-18.342-10.374L3.064 183.18C-3 173.086 0.282 159.994 10.376 153.93c10.124-6.062 23.218-2.782 29.28 7.312l45.248 75.402c6.062 10.124 2.782 23.218-7.312 29.28a21.228 21.228 0 0 1-10.938 3.064zM247.614 87.966c-3.718 0-7.532-1-10.968-3.062L161.242 39.656c-10.092-6.062-13.374-19.154-7.312-29.28 6.062-10.092 19.156-13.374 29.248-7.312l75.434 45.28c10.094 6.062 13.374 19.156 7.312 29.248a21.352 21.352 0 0 1-18.31 10.374z" fill="#967ADC" /><path d="M849.392 982.012c-76.372 0-141.304-62.716-148.46-69.872L51.53 262.706c-8.312-8.312-8.312-21.81 0-30.154l181.022-181.022c4-4 9.436-6.25 15.092-6.25 5.656 0 11.062 2.25 15.062 6.25L912.14 700.932c7.032 7.062 43.028 44.782 60.59 95.996 19.188 56.028 8.656 106.276-30.438 145.368-26.338 26.342-57.588 39.716-92.9 39.716z" fill="#AC92EB" /><path d="M90.556 301.734L301.732 90.558l542.996 542.996-211.176 211.176z" fill="#967ADC" /><path d="M371.95 286.644c0-47.06-38.28-85.34-85.308-85.34-47.06 0-85.34 38.28-85.34 85.34 0 22.78 8.876 44.216 25 60.34 16.092 16.094 37.53 24.968 60.34 24.968 47.028 0 85.308-38.28 85.308-85.308z" fill="#E6E9ED" /><path d="M492.632 407.292c0-47.028-38.28-85.308-85.34-85.308-47.028 0-85.308 38.28-85.308 85.308 0 22.812 8.874 44.248 24.998 60.34 16.092 16.124 37.53 24.998 60.31 24.998 47.06 0.002 85.34-38.278 85.34-85.338z" fill="#F5F7FA" /><path d="M613.312 527.972c0-47.028-38.282-85.306-85.34-85.306-47.028 0-85.308 38.28-85.308 85.306 0 22.81 8.876 44.248 24.968 60.342 16.124 16.124 37.56 24.998 60.34 24.998 47.06 0 85.34-38.278 85.34-85.34z" fill="#E6E9ED" /><path d="M648.652 563.346c-47.058 0-85.338 38.28-85.338 85.308 0 47.06 38.28 85.34 85.338 85.34 47.062 0 85.34-38.28 85.34-85.34 0-47.03-38.278-85.308-85.34-85.308z" fill="#F5F7FA" /><path d="M648.652 563.346c-3.594 0-7.154 0.25-10.654 0.688 42.03 5.25 74.652 41.186 74.652 84.622s-32.624 79.372-74.652 84.652c3.5 0.438 7.06 0.688 10.654 0.688 47.062 0 85.34-38.28 85.34-85.34 0-47.032-38.278-85.31-85.34-85.31zM527.972 442.666c-3.594 0-7.156 0.25-10.656 0.688 42.03 5.25 74.652 41.186 74.652 84.62 0 43.436-32.624 79.372-74.652 84.652 3.5 0.438 7.062 0.688 10.656 0.688 47.058 0 85.34-38.28 85.34-85.34 0-47.028-38.28-85.308-85.34-85.308zM407.292 321.986c-3.594 0-7.156 0.25-10.656 0.688 42.028 5.25 74.684 41.186 74.684 84.652 0 43.434-32.656 79.37-74.684 84.62 3.5 0.438 7.062 0.688 10.656 0.688 47.06 0 85.34-38.28 85.34-85.308 0-47.062-38.28-85.34-85.34-85.34zM286.642 201.304c-3.624 0-7.188 0.25-10.688 0.688 42.03 5.282 74.684 41.216 74.684 84.652 0 43.434-32.654 79.37-74.684 84.62 3.5 0.438 7.062 0.688 10.688 0.688 47.028 0 85.308-38.28 85.308-85.308 0-47.06-38.28-85.34-85.308-85.34z" opacity=".1" /><path d="M791.458 791.458c-8.342 8.344-8.342 21.844 0 30.156l134.712 134.71c5.562-4.156 10.938-8.844 16.124-14.032 5.188-5.188 9.876-10.562 14.032-16.124l-134.71-134.71c-8.316-8.342-21.816-8.342-30.158 0z" fill="#967ADC" /></svg>