<?xml version="1.0" standalone="no"?><!DOCTYPE svg PUBLIC "-//W3C//DTD SVG 1.1//EN" "http://www.w3.org/Graphics/SVG/1.1/DTD/svg11.dtd"><svg class="icon" width="128px" height="128.00px" viewBox="0 0 1024 1024" version="1.1" xmlns="http://www.w3.org/2000/svg"><path d="M551.7595 250.468l-74.688-127.998a21.268 21.268 0 0 0-18.406-10.592h-149.338a21.306 21.306 0 0 0-18.406 10.592l-74.686 127.998a21.326 21.326 0 0 0 0 21.498l74.686 127.996a21.308 21.308 0 0 0 18.406 10.594h149.338c7.594 0 14.594-4.032 18.406-10.594l74.688-127.996a21.336 21.336 0 0 0 0-21.498z m-167.748 73.406c-35.342 0-64-28.624-64-64 0-35.342 28.656-63.998 64-63.998 35.342 0 63.998 28.656 63.998 63.998 0 35.374-28.656 64-63.998 64z" fill="#FECD57" /><path d="M384.0115 345.214c-47.062 0-85.342-38.28-85.342-85.342 0-47.03 38.28-85.308 85.342-85.308 47.06 0 85.31 38.28 85.31 85.308 0 47.064-38.248 85.342-85.31 85.342z m0-127.996c-23.532 0-42.686 19.156-42.686 42.654 0 23.532 19.156 42.688 42.686 42.688s42.654-19.156 42.654-42.688c0.002-23.496-19.124-42.654-42.654-42.654z" fill="#F6BB42" /><path d="M1021.0895 762.44l-74.688-127.998a21.308 21.308 0 0 0-18.404-10.594h-149.34a21.36 21.36 0 0 0-18.438 10.594l-74.652 127.998a21.322 21.322 0 0 0 0 21.496l74.652 127.998a21.36 21.36 0 0 0 18.438 10.594h149.34c7.56 0 14.592-4.032 18.404-10.594l74.688-127.998a21.332 21.332 0 0 0 0-21.496z m-167.778 73.402c-35.344 0-64-28.656-64-64 0-35.34 28.656-63.996 64-63.996 35.376 0 63.998 28.656 63.998 63.996 0 35.344-28.622 64-63.998 64z" fill="#FECD57" /><path d="M853.3115 857.184c-47.032 0-85.31-38.28-85.31-85.342 0-47.028 38.28-85.308 85.31-85.308 47.06 0 85.34 38.282 85.34 85.308 0 47.062-38.278 85.342-85.34 85.342z m0-127.994c-23.5 0-42.656 19.156-42.656 42.652 0 23.532 19.156 42.688 42.656 42.688 23.532 0 42.686-19.156 42.686-42.688 0-23.496-19.154-42.652-42.686-42.652z" fill="#F6BB42" /><path d="M904.0915 227.218a21.316 21.316 0 0 0-10.032-12.906l-111.186-63.404c-10.248-5.844-23.248-2.25-29.092 7.968L500.1955 603.63c-5.844 10.248-2.282 23.28 7.968 29.092l111.184 63.404a21.216 21.216 0 0 0 10.532 2.812c7.438 0 14.624-3.876 18.562-10.782l253.586-444.752a21.376 21.376 0 0 0 2.064-16.186z" fill="#CBD0D8" /><path d="M1023.0895 147.72a21.316 21.316 0 0 0-10.032-12.906L790.6875 8.038c-10.248-5.844-23.28-2.282-29.124 7.938l-63.372 111.214c-5.844 10.218-2.282 23.25 7.968 29.094l222.368 126.778a21.23 21.23 0 0 0 10.56 2.812c7.406 0 14.594-3.876 18.532-10.782l63.406-111.184a21.382 21.382 0 0 0 2.064-16.188z" fill="#E6E9ED" /><path d="M883.3435 60.848L851.6255 116.44c-5.812 10.25-2.25 23.282 7.968 29.094a21.242 21.242 0 0 0 10.562 2.812c7.406 0 14.624-3.876 18.562-10.75l31.686-55.624-37.06-21.124z" fill="#CCD1D9" /><path d="M662.0055 877.714L251.4535 571.788c-9.438-7.032-22.812-5.094-29.842 4.376l-76.498 102.622c-3.374 4.532-4.812 10.25-4 15.844s3.842 10.624 8.374 14l410.52 305.928a21.442 21.442 0 0 0 12.75 4.218 21.33 21.33 0 0 0 17.126-8.56l76.466-102.654c7.032-9.44 5.094-22.816-4.344-29.848z" fill="#CBD0D8" /><path d="M289.7015 520.49l-102.654-76.464a21.19 21.19 0 0 0-15.812-4 21.26 21.26 0 0 0-14.032 8.342L4.2415 653.628c-7.032 9.438-5.094 22.81 4.376 29.842l102.622 76.5a21.442 21.442 0 0 0 12.75 4.218c1.032 0 2.062-0.062 3.094-0.218a21.296 21.296 0 0 0 14-8.376l152.964-205.278c7.03-9.42 5.092-22.794-4.346-29.826z" fill="#E6E9ED" /><path d="M119.2995 606.35a21.204 21.204 0 0 0 12.718 4.218c6.5 0 12.936-2.968 17.124-8.594 7.03-9.438 5.092-22.812-4.376-29.844l-51.31-38.234-25.5 34.204 51.344 38.25z" fill="#CCD1D9" /><path d="M748.5655 254.156a21.51 21.51 0 0 0 10.56 2.782c7.406 0 14.624-3.876 18.562-10.75 5.81-10.25 2.25-23.282-7.968-29.124l-37.06-21.124-21.154 37.06 37.06 21.156zM727.4415 312.53c7.406 0 14.594-3.844 18.532-10.75 5.842-10.25 2.282-23.282-7.968-29.094l-37.06-21.154-21.124 37.06 37.062 21.156a21.186 21.186 0 0 0 10.558 2.782zM685.1935 365.34a21.046 21.046 0 0 0 10.532 2.812c7.406 0 14.624-3.876 18.562-10.782 5.844-10.25 2.25-23.248-7.968-29.092l-37.062-21.124-21.124 37.06 37.06 21.126zM664.0375 423.744c7.406 0 14.594-3.876 18.532-10.782a21.322 21.322 0 0 0-7.938-29.094l-37.094-21.124-21.124 37.06 37.062 21.124a21.2 21.2 0 0 0 10.562 2.816zM621.7875 476.524a21.216 21.216 0 0 0 10.532 2.812c7.438 0 14.624-3.876 18.562-10.782 5.844-10.218 2.282-23.248-7.968-29.092l-37.062-21.124-21.124 37.06 37.06 21.126zM611.2235 495.054l-37.06-21.124-21.154 37.062 37.06 21.124a21.24 21.24 0 0 0 10.56 2.812c7.406 0 14.624-3.876 18.562-10.782 5.814-10.218 2.252-23.248-7.968-29.092zM579.5075 550.63l-37.06-21.11-21.124 37.046 37.062 21.124a21.23 21.23 0 0 0 10.56 2.812c7.406 0 14.594-3.876 18.532-10.782 5.842-10.214 2.28-23.246-7.97-29.09zM880.9055 280.466l-37.062-21.124c-10.25-5.842-23.282-2.28-29.094 7.968-5.844 10.218-2.282 23.25 7.968 29.094l37.062 21.124 21.126-37.062zM812.1255 314.936c-10.218-5.812-23.25-2.25-29.094 7.968-5.81 10.25-2.248 23.28 7.968 29.092l37.062 21.124 21.156-37.06-37.092-21.124zM780.4395 370.528c-10.218-5.812-23.25-2.25-29.092 7.968-5.844 10.248-2.282 23.28 7.966 29.092l37.06 21.124v0.032l21.124-37.094-37.058-21.122zM748.7535 426.12c-10.25-5.812-23.282-2.25-29.092 7.968-5.844 10.25-2.282 23.28 7.966 29.092l37.06 21.156 21.124-37.062-37.058-21.154zM717.0675 481.71c-10.25-5.812-23.282-2.25-29.124 7.968-5.812 10.25-2.25 23.28 7.968 29.124l37.06 21.124 21.124-37.06-37.028-21.156zM656.2555 545.288c-5.844 10.218-2.282 23.25 7.968 29.094l37.062 21.124 21.124-37.062-37.062-21.11a21.312 21.312 0 0 0-29.092 7.954zM624.5375 600.88c-5.812 10.216-2.25 23.248 7.968 29.092l37.062 21.124 21.156-37.062-37.062-21.124c-10.25-5.842-23.28-2.28-29.124 7.97zM239.0155 695.564c-9.438-7.032-22.812-5.094-29.842 4.376l-25.5 34.188 34.218 25.5 25.5-34.188a21.354 21.354 0 0 0-4.376-29.876z" fill="#AAB2BC" /><path d="M290.3575 733.814c-9.468-7.032-22.842-5.094-29.874 4.376l-25.468 34.184 34.218 25.5 25.468-34.214c7.032-9.44 5.094-22.814-4.344-29.846z" fill="#AAB2BC" /><path d="M341.6695 772.03c-9.438-7.03-22.812-5.062-29.844 4.376l-25.5 34.218 34.218 25.5 25.468-34.218c7.064-9.47 5.096-22.814-4.342-29.876z" fill="#AAB2BC" /><path d="M392.9815 810.28c-9.438-7.032-22.812-5.094-29.844 4.376l-25.5 34.186 34.218 25.5 25.498-34.216c7.032-9.44 5.094-22.816-4.372-29.846z" fill="#AAB2BC" /><path d="M444.2915 848.53c-9.438-7.032-22.812-5.094-29.842 4.342l-25.498 34.218 34.216 25.5 25.5-34.218c7.03-9.438 5.092-22.814-4.376-29.842z" fill="#AAB2BC" /><path d="M495.6335 886.778c-9.468-7.062-22.812-5.094-29.874 4.344l-25.5 34.218 34.218 25.498 25.5-34.216c7.03-9.438 5.094-22.814-4.344-29.844z" fill="#AAB2BC" /><path d="M546.9475 924.996c-9.468-7.032-22.812-5.062-29.876 4.376l-25.47 34.186 34.22 25.5 25.468-34.188c7.032-9.47 5.094-22.814-4.342-29.874z" fill="#AAB2BC" /><path d="M264.5475 661.348a21.2 21.2 0 0 0 12.718 4.218 21.36 21.36 0 0 0 17.124-8.562l25.5-34.218-34.218-25.498-25.5 34.216c-7.032 9.438-5.094 22.812 4.376 29.844z" fill="#AAB2BC" /><path d="M315.8575 699.596a21.204 21.204 0 0 0 12.718 4.218c6.5 0 12.938-2.968 17.124-8.594l25.5-34.186-34.218-25.5-25.5 34.188a21.352 21.352 0 0 0 4.376 29.874z" fill="#AAB2BC" /><path d="M367.1695 737.814a21.03 21.03 0 0 0 12.718 4.25c6.5 0 12.938-2.968 17.124-8.594l25.5-34.218-34.216-25.5-25.5 34.218c-7.034 9.47-5.096 22.814 4.374 29.844z" fill="#AAB2BC" /><path d="M418.4795 776.06a21.03 21.03 0 0 0 12.718 4.25c6.53 0 12.936-2.968 17.124-8.594l25.5-34.214-34.218-25.5-25.5 34.218c-7.03 9.438-5.062 22.81 4.376 29.84z" fill="#AAB2BC" /><path d="M469.7915 814.31a21.36 21.36 0 0 0 12.75 4.218c6.5 0 12.938-2.968 17.124-8.594l25.47-34.188-34.188-25.496-25.5 34.184c-7.064 9.47-5.094 22.846 4.344 29.876z" fill="#AAB2BC" /><path d="M521.1335 852.528a21.03 21.03 0 0 0 12.718 4.25c6.5 0 12.938-2.968 17.124-8.592l25.498-34.218-34.216-25.468-25.5 34.188c-7.03 9.436-5.092 22.81 4.376 29.84z" fill="#AAB2BC" /><path d="M593.5695 826.716l-25.5 34.216c-7.032 9.438-5.062 22.812 4.376 29.844a21.204 21.204 0 0 0 12.718 4.218c6.532 0 12.938-2.938 17.124-8.562l25.5-34.218-34.218-25.498z" fill="#AAB2BC" /></svg>