<?xml version="1.0" standalone="no"?><!DOCTYPE svg PUBLIC "-//W3C//DTD SVG 1.1//EN" "http://www.w3.org/Graphics/SVG/1.1/DTD/svg11.dtd"><svg class="icon" width="128px" height="128.00px" viewBox="0 0 1024 1024" version="1.1" xmlns="http://www.w3.org/2000/svg"><path d="M831.989375 21.335958h-170.653667c-11.781977 0-21.343958 9.561981-21.343958 21.343959v917.310208c0 11.531977 4.781991 33.249935 36.781928 49.249904 19.029963 9.499981 43.841914 14.749971 69.873864 14.749971 26.061949 0 50.875901-5.24999 69.905863-14.749971 31.999938-15.999969 36.781928-37.717926 36.781928-49.249904V42.679917c-0.002-11.779977-9.563981-21.343958-21.345958-21.343959zM597.337833 21.335958h-170.683666c-11.779977 0-21.311958 9.561981-21.311959 21.343959v917.310208c0 11.531977 4.781991 33.249935 36.779928 49.249904 19.031963 9.499981 43.841914 14.749971 69.873864 14.749971 26.029949 0 50.873901-5.24999 69.873864-14.749971 31.999938-15.999969 36.781928-37.717926 36.781928-49.249904V42.679917c-0.002-11.779977-9.531981-21.343958-21.313959-21.343959zM362.654292 21.335958H192.002625c-11.781977 0-21.343958 9.561981-21.343958 21.343959v917.310208c0 11.531977 4.781991 33.249935 36.811928 49.249904 18.999963 9.499981 43.811914 14.749971 69.873863 14.749971 26.031949 0 50.841901-5.24999 69.873864-14.749971 31.999938-15.999969 36.779928-37.717926 36.779928-49.249904V42.679917c0-11.779977-9.561981-21.343958-21.343958-21.343959z" fill="#ED5564" /><path d="M831.989375 21.335958h-21.343958c11.781977 0 21.343958 9.561981 21.343958 21.343959v917.310208c0 11.531977-4.781991 33.249935-36.781928 49.249904-16.405968 8.187984-37.123927 13.217974-59.217884 14.437972 3.531993 0.188 7.093986 0.311999 10.655979 0.311999 26.061949 0 50.875901-5.24999 69.905863-14.749971 31.999938-15.999969 36.781928-37.717926 36.781928-49.249904V42.679917c0-11.779977-9.561981-21.343958-21.343958-21.343959zM597.337833 21.335958h-21.343958c11.781977 0 21.343958 9.561981 21.343958 21.343959v917.310208c0 11.531977-4.781991 33.249935-36.781928 49.249904-16.405968 8.187984-37.123927 13.217974-59.215884 14.437972 3.531993 0.188 7.061986 0.311999 10.655979 0.311999 26.029949 0 50.873901-5.24999 69.873864-14.749971 31.999938-15.999969 36.781928-37.717926 36.781928-49.249904V42.679917c-0.002-11.779977-9.531981-21.343958-21.313959-21.343959zM362.654292 21.335958h-21.311959c11.781977 0 21.311958 9.561981 21.311959 21.343959v917.310208c0 11.531977-4.779991 33.249935-36.779928 49.249904-16.405968 8.187984-37.123927 13.217974-59.217885 14.437972 3.531993 0.188 7.093986 0.311999 10.687979 0.311999 26.031949 0 50.841901-5.24999 69.873864-14.749971 31.999938-15.999969 36.779928-37.717926 36.779928-49.249904V42.679917c0-11.779977-9.561981-21.343958-21.343958-21.343959z" fill="#FFFFFF" opacity=".2" /><path d="M816.551405 9.835981C797.519442 3.491993 772.707491 0.008 746.645542 0.008c-26.031949 0-50.843901 3.483993-69.873864 9.827981-23.717954 7.905985-36.781928 19.577962-36.781928 32.843936s13.061974 24.921951 36.781928 32.827936c19.029963 6.341988 43.841914 9.827981 69.873864 9.82798 26.061949 0 50.875901-3.483993 69.905863-9.82798 23.717954-7.905985 36.781928-19.561962 36.781928-32.827936s-13.061974-24.935951-36.781928-32.843936zM581.869864 9.835981c-18.999963-6.343988-43.843914-9.827981-69.873864-9.827981-26.031949 0-50.841901 3.483993-69.873864 9.827981-23.717954 7.905985-36.779928 19.577962-36.779928 32.843936s13.061974 24.921951 36.779928 32.827936c19.031963 6.341988 43.841914 9.827981 69.873864 9.82798 26.029949 0 50.873901-3.483993 69.873864-9.82798 23.717954-7.905985 36.781928-19.561962 36.781928-32.827936s-13.063974-24.935951-36.781928-32.843936zM347.218322 9.835981C328.186359 3.491993 303.376407 0.008 277.344458 0.008c-26.061949 0-50.873901 3.483993-69.873863 9.827981-23.717954 7.907985-36.811928 19.579962-36.811928 32.843936s13.093974 24.921951 36.811928 32.827936c18.999963 6.341988 43.811914 9.827981 69.873863 9.82798 26.031949 0 50.841901-3.483993 69.873864-9.82798 23.717954-7.905985 36.779928-19.561962 36.779928-32.827936s-13.061974-24.935951-36.779928-32.843936z" fill="#DA4453" /><path d="M863.893313 386.815245a21.049959 21.049959 0 0 0-10.55998-2.795995v47.405907c4.155992 3.561993 7.497985 7.187986 8.715983 9.685981-2.499995 2.483995-12.373976 9.905981-45.403911 16.437968-39.531923 7.827985-98.967807 11.781977-176.653655 11.781977-11.779977 0-21.341958 9.561981-21.341958 21.343959S628.211773 511.999 639.99175 511.999c86.279831 0 151.559704-4.87599 193.935621-14.499972 26.373948-5.983988 62.309878-17.233966 69.873864-45.71791 9.279982-34.841932-31.593938-60.231882-39.907922-64.965873zM863.893313 600.122828a21.139959 21.139959 0 0 0-10.55998-2.749995v47.375908c4.155992 3.561993 7.497985 7.187986 8.715983 9.687981-2.499995 2.499995-12.373976 9.933981-45.403911 16.433968-39.531923 7.811985-98.967807 11.811977-176.653655 11.811977-11.779977 0-21.341958 9.531981-21.341958 21.311958s9.561981 21.311958 21.341958 21.311958c86.279831 0 151.559704-4.87599 193.935621-14.499971 26.373948-5.967988 62.309878-17.217966 69.873864-45.687911 9.279982-34.869932-31.593938-60.243882-39.907922-64.995873zM383.99825 469.329083c-77.685848 0-137.121732-3.953992-176.653655-11.781977-33.029935-6.531987-42.905916-13.953973-45.405911-16.437968 1.217998-2.499995 4.561991-6.123988 8.717983-9.685981v-47.405907c-3.593993 0-7.217986 0.889998-10.56198 2.795995-8.281984 4.733991-49.155904 30.123941-39.905922 64.965873 7.561985 28.483944 43.499915 39.733922 69.873864 45.71791 42.405917 9.623981 107.65379 14.499972 193.933621 14.499972 11.781977 0 21.343958-9.545981 21.343958-21.327958s-9.559981-21.339958-21.341958-21.339959zM383.99825 682.682667c-77.685848 0-137.121732-3.999992-176.653655-11.811977-33.029935-6.499987-42.905916-13.933973-45.405911-16.433968 1.217998-2.499995 4.561991-6.123988 8.717983-9.687981v-47.405908c-3.593993 0-7.217986 0.905998-10.56198 2.781995-8.281984 4.749991-49.155904 30.123941-39.905922 64.995873 7.561985 28.467944 43.499915 39.717922 69.873864 45.687911 42.405917 9.623981 107.65379 14.499972 193.933621 14.499971 11.781977 0 21.343958-9.531981 21.343958-21.311958s-9.559981-21.313958-21.341958-21.313958z" fill="#434A54" /><path d="M597.337833 341.331333h-170.683666c-35.279931 0-63.999875 28.717944-63.999875 63.999875v341.351334c0 35.249931 28.717944 63.999875 63.999875 63.999875h170.683666c35.281931 0 63.997875-28.749944 63.997875-63.999875V405.331208c0-35.281931-28.715944-63.999875-63.997875-63.999875z" fill="#434A54" /><path d="M597.337833 320.003375h-170.683666c-35.279931 0-63.999875 28.701944-63.999875 63.999875v341.305333c0 35.311931 28.717944 63.999875 63.999875 63.999875h170.683666c35.281931 0 63.997875-28.687944 63.997875-63.999875V384.00125c0-35.295931-28.715944-63.997875-63.997875-63.997875z" fill="#656D78" /><path d="M469.340083 575.998875c0 11.781977-9.561981 21.311958-21.343958 21.311958S426.652167 587.778852 426.652167 575.998875s9.561981-21.311958 21.343958-21.311958S469.340083 564.216898 469.340083 575.998875zM533.337958 575.998875c0 11.781977-9.561981 21.311958-21.341958 21.311958-11.781977 0-21.343958-9.531981-21.343958-21.311958s9.561981-21.311958 21.343958-21.311958c11.779977 0 21.341958 9.529981 21.341958 21.311958zM597.337833 575.998875c0 11.781977-9.561981 21.311958-21.343958 21.311958S554.649917 587.778852 554.649917 575.998875s9.561981-21.311958 21.343958-21.311958 21.343958 9.529981 21.343958 21.311958zM469.340083 639.99875c0 11.781977-9.561981 21.311958-21.343958 21.311958S426.652167 651.778727 426.652167 639.99875s9.561981-21.311958 21.343958-21.311958S469.340083 628.216773 469.340083 639.99875zM533.337958 639.99875c0 11.781977-9.561981 21.311958-21.341958 21.311958-11.781977 0-21.343958-9.531981-21.343958-21.311958s9.561981-21.311958 21.343958-21.311958c11.779977 0 21.341958 9.529981 21.341958 21.311958zM597.337833 639.99875c0 11.781977-9.561981 21.311958-21.343958 21.311958S554.649917 651.778727 554.649917 639.99875s9.561981-21.311958 21.343958-21.311958 21.343958 9.529981 21.343958 21.311958z" fill="#E6E9ED" /><path d="M405.342208 384.00125h213.307584V511.999H405.342208z" fill="#A0D468" /><path d="M469.340083 703.994625c0 11.781977-9.561981 21.311958-21.343958 21.311958s-21.343958-9.531981-21.343958-21.311958 9.561981-21.311958 21.343958-21.311958 21.343958 9.529981 21.343958 21.311958zM533.337958 703.994625c0 11.781977-9.561981 21.311958-21.341958 21.311958-11.781977 0-21.343958-9.531981-21.343958-21.311958s9.561981-21.311958 21.343958-21.311958c11.779977 0 21.341958 9.529981 21.341958 21.311958zM597.337833 703.994625c0 11.781977-9.561981 21.311958-21.343958 21.311958s-21.343958-9.531981-21.343958-21.311958 9.561981-21.311958 21.343958-21.311958 21.343958 9.529981 21.343958 21.311958z" fill="#E6E9ED" /></svg>