<?xml version="1.0" standalone="no"?><!DOCTYPE svg PUBLIC "-//W3C//DTD SVG 1.1//EN" "http://www.w3.org/Graphics/SVG/1.1/DTD/svg11.dtd"><svg class="icon" width="128px" height="128.00px" viewBox="0 0 1024 1024" version="1.1" xmlns="http://www.w3.org/2000/svg"><path d="M595.254 522.154c-99.246 0-173.634-34.782-219.352-64.782-52.248-34.31-79.232-69.686-80.358-71.186l34.06-25.686c0.206 0.282 24.562 31.876 71.17 62.154 53.516 34.748 113.044 53.686 177.356 56.498-65.844-28.248-90.232-69.998-91.452-72.186l37.108-21.032-0.094-0.186c1.206 2.032 30.344 49.78 117.434 68.778l39.812 8.656-62.686 58.438-7.938 0.282c-5.092 0.158-10.12 0.252-15.06 0.252z" fill="#7F4545" /><path d="M736.814 351.096c-42.626-27.624-102.936-58.248-179.184-90.996-122.34-52.53-247.976-94.154-261.586-98.622l-29.076-13.376-19.078 38.124c0.968 0.532 97.652 53.03 194.088 113.34 56.28 35.216 101.404 66.124 134.09 91.872 49.214 38.782 56.624 55.31 57.686 58.906-3.376 8.092-26 43.092-175.872 151.994-85.122 61.874-169.198 116.964-170.042 117.498l-57.732 37.78 327.708 6.654 6-4.81c2.406-1.908 59.498-47.592 119.496-106.748 82.808-81.684 128.558-147.056 135.9-194.306 5.224-33.438-20.964-67.53-82.398-107.31z" fill="#A85D5D" /><path d="M854.184 894.672c0 11.782-9.562 21.312-21.344 21.312H150.206c-11.78 0-21.342-9.532-21.342-21.312v-190.68c0-11.782 9.562-21.314 21.342-21.314H832.84c11.782 0 21.344 9.534 21.344 21.314v190.68zM811.496 1002.668c0 11.782-9.562 21.312-21.31 21.312-11.812 0-21.342-9.532-21.342-21.312s9.53-21.342 21.342-21.342c11.748 0 21.31 9.56 21.31 21.342zM214.206 1002.668c0 11.782-9.562 21.312-21.344 21.312s-21.328-9.532-21.328-21.312 9.546-21.342 21.328-21.342 21.344 9.56 21.344 21.342z" fill="#424953" /><path d="M896.838 767.988H86.208c-23.468 0-36.108 18.062-28.094 40.094l56.17 154.462c8.016 22.062 33.782 40.124 57.248 40.124h639.962c23.5 0 49.248-18.06 57.248-40.124l56.188-154.462c8.002-22.032-4.624-40.094-28.092-40.094z" fill="#46CEAD" /><path d="M936.932 131.792c-1-26.062-3-28.062-31.626-48.092-28.624-20.032-180.744-25.532-216.898-33.032-36.154-7.53-15.062-63.09-114.464-48.092-99.42 15.032-266.602 18.032-349.442 9.032C141.66 2.576 113.52 48.574 73.146 54.886 32.774 61.168 21.164 104.728 9.118 142.292c-12.062 37.56-16.578 87.122 15.062 123.184 31.624 36.06 75.952 33.06 104.996 66.092 29.044 33.06 127.372 21.06 160.088 45.842 32.704 24.78 103.418 42.81 194.292 42.81 90.888 0 89.326-12.532 133.262-42.81 43.966-30.312 216.68-93.404 244.804-83.374 28.124 10 104.434 5 123.496-18.032 19.062-23.03 50.216-43.06 34.654-73.622-15.592-30.532-20.592-13.532-57.248-15.032-36.654-1.498-24.592-29.528-25.592-55.558z" fill="#9ED36A" /><path d="M936.744 128.166c-0.19-4.188-0.438-7.688-0.938-10.718-0.03 3.844 0.188 7.436 0.938 10.718z" fill="#9ED36A" /><path d="M1016.928 197.132c-8.124 12.562-21.686 23.966-31.81 36.186-19.062 23.062-95.374 28.062-123.496 18.032-28.126-10-200.838 53.092-244.804 83.374-43.936 30.31-42.374 42.81-133.262 42.81-90.874 0-161.588-18.032-194.292-42.81-32.716-24.782-131.042-12.75-160.088-45.812-29.044-33.06-73.374-30.03-104.996-66.092C11.398 208.26 4.524 191.51 1.664 174.228c-4.454 30.968-0.734 64.748 22.516 91.248 31.624 36.06 75.952 33.06 104.996 66.092 29.044 33.06 127.372 21.06 160.088 45.842 32.704 24.78 103.418 42.81 194.292 42.81 90.888 0 89.326-12.532 133.262-42.81 43.966-30.312 216.68-93.404 244.804-83.374 28.124 10 104.434 5 123.496-18.032 19.062-23.03 50.216-43.06 34.654-73.622-1-1.936-1.938-3.686-2.844-5.25z" fill="#8AC054" /></svg>