<?xml version="1.0" standalone="no"?><!DOCTYPE svg PUBLIC "-//W3C//DTD SVG 1.1//EN" "http://www.w3.org/Graphics/SVG/1.1/DTD/svg11.dtd"><svg class="icon" width="128px" height="128.00px" viewBox="0 0 1024 1024" version="1.1" xmlns="http://www.w3.org/2000/svg"><path d="M362.658 0.024h127.998v341.322h-127.998z" fill="#AC92EB" /><path d="M512 0.024h127.996v341.322H512z" fill="#A0D468" /><path d="M661.34 213.348h341.308v127.998H661.34z" fill="#5D9CEC" /><path d="M121.724 856.93l126.78 17.75 47.28-338.056-126.746-17.734z" fill="#ED5564" /><path d="M426.656 469.344c0 11.782-9.532 21.328-21.312 21.328-11.78 0-21.342-9.546-21.342-21.328 0-11.78 9.562-21.328 21.342-21.328s21.312 9.548 21.312 21.328zM938.648 469.344c0 11.782-9.532 21.328-21.312 21.328s-21.344-9.546-21.344-21.328c0-11.78 9.562-21.328 21.344-21.328s21.312 9.548 21.312 21.328z" fill="#434A54" /><path d="M298.658 341.346h725.334v127.998H298.658z" fill="#FFD2A6" /><path d="M128.006 1002.68c0 11.75-9.562 21.312-21.344 21.312s-21.312-9.562-21.312-21.312c0-11.812 9.532-21.344 21.312-21.344s21.344 9.532 21.344 21.344zM639.996 1002.68c0 11.75-9.562 21.312-21.342 21.312-11.782 0-21.312-9.562-21.312-21.312 0-11.812 9.532-21.344 21.312-21.344 11.78 0 21.342 9.532 21.342 21.344z" fill="#434A54" /><path d="M0.008 874.68H725.34v128H0.008z" fill="#FFD2A6" /><path d="M284.378 746.684h341.306v127.996H284.378z" fill="#FFCE54" /><path d="M284.378 618.684h341.306v128H284.378z" fill="#48CFAD" /><path d="M284.378 767.996h341.306v85.34H284.378zM284.378 639.996h341.306v85.344H284.378zM533.344 341.346V0.008l85.31 0.016v341.322zM661.34 234.676h341.308v85.342l-341.308-0.016z" fill="#E6E9ED" /></svg>