<?xml version="1.0" standalone="no"?><!DOCTYPE svg PUBLIC "-//W3C//DTD SVG 1.1//EN" "http://www.w3.org/Graphics/SVG/1.1/DTD/svg11.dtd"><svg class="icon" width="128px" height="128.00px" viewBox="0 0 1024 1024" version="1.1" xmlns="http://www.w3.org/2000/svg"><path d="M106.682 288.006c-11.78 0-21.342-9.562-21.342-21.344V117.354c0-11.782 9.562 0 21.342 0 11.782 0 21.328-11.782 21.328 0v149.308c0 11.782-9.548 21.344-21.328 21.344zM917.3 288.006c-11.75 0-21.312-9.562-21.312-21.344V117.354c0-11.782 9.562 0 21.312 0 11.812 0 21.376-11.782 21.376 0v149.308c0 11.782-9.562 21.344-21.376 21.344z" fill="#434A54" /><path d="M917.3 53.324H106.682c-11.78 0-21.342 9.562-21.342 21.342v42.686c0 11.782 9.562 21.312 21.342 21.312h810.62c11.812 0 21.376-9.532 21.376-21.312V74.666c-0.002-11.78-9.564-21.342-21.378-21.342z" fill="#FFCE54" /><path d="M234.678 266.662H192.008c-11.782 0-21.328-9.532-21.328-21.312 0-11.78 9.546-21.342 21.328-21.342h42.67c11.782 0 21.328 9.562 21.328 21.342s-9.546 21.312-21.328 21.312zM831.992 266.662h-42.688c-11.75 0-21.312-9.532-21.312-21.312 0-11.78 9.562-21.342 21.312-21.342h42.688c11.782 0 21.312 9.562 21.312 21.342a21.3 21.3 0 0 1-21.312 21.312zM341.332 288.006c-11.78 0-21.328-9.562-21.328-21.344v-21.312c0-11.78 9.546-21.342 21.328-21.342s21.344 9.562 21.344 21.342v21.312c0 11.782-9.562 21.344-21.344 21.344zM426.674 288.006c-11.782 0-21.342-9.562-21.342-21.344v-21.312c0-11.78 9.562-21.342 21.342-21.342s21.328 9.562 21.328 21.342v21.312c0 11.782-9.546 21.344-21.328 21.344zM512 288.006c-11.782 0-21.328-9.562-21.328-21.344v-21.312c0-11.78 9.546-21.342 21.328-21.342s21.328 9.562 21.328 21.342v21.312c0 11.782-9.546 21.344-21.328 21.344zM597.308 288.006c-11.75 0-21.312-9.562-21.312-21.344v-21.312c0-11.78 9.562-21.342 21.312-21.342 11.812 0 21.376 9.562 21.376 21.342v21.312c0 11.782-9.562 21.344-21.376 21.344zM682.684 288.006c-11.812 0-21.376-9.562-21.376-21.344v-21.312c0-11.78 9.562-21.342 21.376-21.342 11.75 0 21.312 9.562 21.312 21.342v21.312c0 11.782-9.562 21.344-21.312 21.344z" fill="#434A54" /><path d="M1002.676 970.644H21.34c-11.78 0-21.328-9.532-21.328-21.312V266.662c0-11.782 9.546-21.312 21.328-21.312h981.336c11.75 0 21.312 9.532 21.312 21.312v682.67c0 11.782-9.562 21.312-21.312 21.312z" fill="#FFCE54" /><path d="M362.676 629.34h298.632v341.336H362.676z" fill="#656D78" /><path d="M0.012 629.34v319.992c0 11.782 9.546 21.312 21.328 21.312h341.336V629.34H0.012z" fill="#434A54" /><path d="M170.65 650.714c-82.326 0-149.31 66.968-149.31 149.308 0 82.31 66.984 149.308 149.31 149.308s149.308-66.998 149.308-149.308c0-82.338-66.982-149.308-149.308-149.308z" fill="#656D78" /><path d="M895.988 522.656c0 11.782-9.562 21.344-21.308 21.344-11.812 0-21.376-9.562-21.376-21.344s9.562-21.312 21.376-21.312c11.746 0 21.308 9.532 21.308 21.312zM128.01 522.656c0 11.782-9.546 21.344-21.328 21.344-11.78 0-21.342-9.562-21.342-21.344s9.562-21.312 21.342-21.312 21.328 9.532 21.328 21.312zM448.002 672.058c0 11.75-9.546 21.312-21.328 21.312s-21.342-9.562-21.342-21.312c0-11.812 9.562-21.344 21.342-21.344s21.328 9.532 21.328 21.344zM533.328 672.058c0 11.75-9.546 21.312-21.328 21.312s-21.328-9.562-21.328-21.312c0-11.812 9.546-21.344 21.328-21.344s21.328 9.532 21.328 21.344zM618.684 672.058c0 11.75-9.562 21.312-21.376 21.312-11.75 0-21.312-9.562-21.312-21.312 0-11.812 9.562-21.344 21.312-21.344 11.814 0 21.376 9.532 21.376 21.344zM190.274 799.992c0 11.782-9.546 21.344-21.328 21.344s-21.344-9.562-21.344-21.344 9.562-21.344 21.344-21.344c11.78 0 21.328 9.562 21.328 21.344zM1023.988 629.372v319.96c0 11.782-9.562 21.344-21.312 21.344H661.308V629.372h362.68z" fill="#434A54" /><path d="M853.368 650.714c82.308 0 149.308 67 149.308 149.308 0 82.342-67 149.308-149.308 149.308-82.344 0-149.308-66.966-149.308-149.308-0.002-82.308 66.964-149.308 149.308-149.308z" fill="#656D78" /><path d="M833.742 799.992c0 11.782 9.532 21.344 21.312 21.344s21.344-9.562 21.344-21.344-9.562-21.312-21.344-21.312-21.312 9.53-21.312 21.312z" fill="#434A54" /><path d="M85.338 352.004h661.34v85.342H85.338z" fill="#E6E9ED" /><path d="M917.3 394.66c0 23.562-19.062 42.686-42.622 42.686-23.562 0-42.688-19.124-42.688-42.686s19.124-42.656 42.688-42.656c23.56 0 42.622 19.094 42.622 42.656z" fill="#ED5564" /><path d="M874.68 458.658c-35.312 0-64-28.686-64-63.998 0-35.28 28.688-64 64-64 35.246 0 63.996 28.718 63.996 64 0 35.31-28.75 63.998-63.996 63.998z m0-85.31c-11.782 0-21.376 9.562-21.376 21.312 0 11.78 9.594 21.342 21.376 21.342 11.746 0 21.308-9.562 21.308-21.342 0-11.75-9.562-21.312-21.308-21.312z" fill="#DA4453" /><path d="M490.672 394.66c-11.782 0-21.344 9.562-21.344 21.342v21.344H512v-21.344c0-11.782-9.546-21.342-21.328-21.342z" fill="#ED5564" /><path d="M362.676 885.302h298.632v85.342H362.676z" fill="#CCD1D9" /><path d="M554.688 885.302h42.622v85.342h-42.622zM426.674 885.302h42.656v85.342h-42.656z" fill="#AAB2BC" /><path d="M490.672 778.648c0 23.562-19.11 42.688-42.67 42.688-23.562 0-42.67-19.124-42.67-42.688 0-23.56 19.108-42.654 42.67-42.654s42.67 19.094 42.67 42.654z" fill="#CCD1D9" /><path d="M448.002 842.648c-35.296 0-64-28.688-64-64 0-35.28 28.704-63.996 64-63.996S512 743.37 512 778.648c0 35.312-28.702 64-63.998 64z m0-85.31c-11.766 0-21.328 9.56-21.328 21.31 0 11.782 9.562 21.344 21.328 21.344 11.764 0 21.328-9.562 21.328-21.344 0-11.75-9.564-21.31-21.328-21.31z" fill="#AAB2BC" /><path d="M617.122 778.648c0 23.562-19.124 42.688-42.688 42.688-23.558 0-42.636-19.124-42.636-42.688 0-23.56 19.078-42.654 42.636-42.654 23.562 0 42.688 19.094 42.688 42.654z" fill="#CCD1D9" /><path d="M574.434 842.648c-35.262 0-63.98-28.688-63.98-64 0-35.28 28.718-63.996 63.98-63.996 35.312 0 64 28.716 64 63.996 0 35.312-28.688 64-64 64z m0-85.31c-11.746 0-21.308 9.56-21.308 21.31 0 11.782 9.562 21.344 21.308 21.344 11.782 0 21.376-9.562 21.376-21.344-0.002-11.75-9.596-21.31-21.376-21.31z" fill="#AAB2BC" /><path d="M256.006 544H170.68c-11.782 0-21.344-9.562-21.344-21.344s9.562-21.312 21.344-21.312h85.326c11.78 0 21.328 9.532 21.328 21.312S267.788 544 256.006 544zM661.308 544H320.004c-11.782 0-21.328-9.562-21.328-21.344s9.546-21.312 21.328-21.312h341.304c11.812 0 21.376 9.532 21.376 21.312S673.122 544 661.308 544zM810.68 544h-85.372c-11.75 0-21.312-9.562-21.312-21.344s9.562-21.312 21.312-21.312h85.372c11.75 0 21.312 9.532 21.312 21.312S822.43 544 810.68 544z" fill="#434A54" /></svg>