<?xml version="1.0" standalone="no"?><!DOCTYPE svg PUBLIC "-//W3C//DTD SVG 1.1//EN" "http://www.w3.org/Graphics/SVG/1.1/DTD/svg11.dtd"><svg class="icon" width="128px" height="128.00px" viewBox="0 0 1024 1024" version="1.1" xmlns="http://www.w3.org/2000/svg"><path d="M789.176 425.6L338.942 22.91c-32.936-31.094-84.888-30.516-117.122 1.734-32.25 32.232-32.828 84.184-1.734 117.122l331.316 370.128-331.224 370.348c-31.092 32.936-30.514 84.872 1.734 117.122 32.234 32.25 84.184 32.81 117.122 1.718l446.018-399.27a111.928 111.928 0 0 0 7.282-6.654c45.966-45.966 45.966-120.452 0-166.402-1.064-1.062-2.158-2.078-3.22-3.094l0.062-0.062z" fill="#EC5564" /><path d="M432.61 727.372a21.252 21.252 0 0 1 30.17 0c8.328 8.312 8.328 21.812 0 30.124a21.252 21.252 0 0 1-30.17 0c-8.328-8.312-8.328-21.812 0-30.124zM492.952 727.342a21.262 21.262 0 0 1 30.156 0.03c8.344 8.312 8.344 21.812 0 30.124a21.252 21.252 0 0 1-30.17 0c-8.33-8.312-8.33-21.812 0.014-30.154zM492.936 666.998c8.342-8.312 21.84-8.312 30.17 0a21.33 21.33 0 0 1 0 30.186c-8.33 8.314-21.828 8.314-30.17 0-8.328-8.342-8.328-21.842 0-30.186zM432.61 787.682c8.328-8.31 21.828-8.31 30.17 0a21.36 21.36 0 0 1 0 30.186c-8.344 8.314-21.842 8.314-30.17 0-8.328-8.344-8.328-21.874 0-30.186z" fill="#9ED36A" /><path d="M327.02 923.428c8.328-8.312 21.828-8.312 30.17 0 8.328 8.344 8.328 21.876 0 30.186-8.344 8.312-21.844 8.312-30.17 0-8.328-8.312-8.328-21.842 0-30.186z" fill="#FECD57" /><path d="M296.848 893.274c8.328-8.344 21.842-8.344 30.17 0 8.328 8.342 8.328 21.842 0 30.154-8.328 8.344-21.844 8.344-30.17 0-8.328-8.312-8.328-21.812 0-30.154z" fill="#FECD57" /><path d="M266.678 863.118c8.328-8.344 21.842-8.344 30.17 0 8.328 8.312 8.328 21.812 0 30.156-8.328 8.342-21.842 8.342-30.17 0-8.328-8.344-8.328-21.844 0-30.156z" fill="#FECD57" /><path d="M421.422 927.364l31.828-28.498-130.872-130.904-28.482 31.844zM689.054 682.092c-3.876 3.844-9.19 6.25-15.094 6.25h-60.34c-11.782 0-21.312-9.53-21.312-21.344 0-11.748 9.532-21.31 21.312-21.31h60.342c11.782 0 21.344 9.562 21.344 21.31a21.312 21.312 0 0 1-6.252 15.094z" fill="#424953" /><path d="M628.682 682.092a21.288 21.288 0 0 1-15.062 6.25c-11.782 0-21.312-9.53-21.312-21.344v-60.31c0-11.812 9.532-21.344 21.312-21.344s21.312 9.532 21.312 21.344v60.31c0 5.906-2.378 11.25-6.25 15.094z" fill="#424953" /><path d="M628.682 621.75A21.154 21.154 0 0 1 613.62 628h-60.342c-11.782 0-21.326-9.562-21.326-21.312 0-11.812 9.544-21.344 21.326-21.344h60.342c11.782 0 21.312 9.532 21.312 21.344 0 5.874-2.378 11.186-6.25 15.062z" fill="#424953" /><path d="M568.372 621.75a21.226 21.226 0 0 1-15.094 6.25c-11.782 0-21.326-9.562-21.326-21.312v-60.374c0-11.764 9.544-21.312 21.326-21.312s21.344 9.548 21.344 21.312v60.374c0 5.874-2.378 11.186-6.25 15.062z" fill="#424953" /><path d="M792.334 428.756c-1.064-1.062-2.158-2.078-3.22-3.094l0.062-0.062-56.998-50.982c-13.75 49.608-39.936 172.198 2.344 272.446l50.532-45.25a111.928 111.928 0 0 0 7.282-6.654c45.964-45.968 45.964-120.452-0.002-166.404z" fill="#FECD57" /><path d="M789.176 425.6L338.942 22.91c-32.936-31.094-84.888-30.516-117.122 1.734-32.25 32.232-32.828 84.184-1.734 117.122l331.316 370.128-331.224 370.348c-31.092 32.936-30.514 84.872 1.734 117.122 32.234 32.25 84.184 32.81 117.122 1.718l446.018-399.27a111.928 111.928 0 0 0 7.282-6.654c45.966-45.966 45.966-120.452 0-166.402-1.064-1.062-2.158-2.078-3.22-3.094l0.062-0.062z" fill="#EC5564" /><path d="M432.61 727.372a21.252 21.252 0 0 1 30.17 0c8.328 8.312 8.328 21.812 0 30.124a21.252 21.252 0 0 1-30.17 0c-8.328-8.312-8.328-21.812 0-30.124zM492.952 727.342a21.262 21.262 0 0 1 30.156 0.03c8.344 8.312 8.344 21.812 0 30.124a21.252 21.252 0 0 1-30.17 0c-8.33-8.312-8.33-21.812 0.014-30.154zM492.936 666.998c8.342-8.312 21.84-8.312 30.17 0a21.33 21.33 0 0 1 0 30.186c-8.33 8.314-21.828 8.314-30.17 0-8.328-8.342-8.328-21.842 0-30.186zM432.61 787.682c8.328-8.31 21.828-8.31 30.17 0a21.36 21.36 0 0 1 0 30.186c-8.344 8.314-21.842 8.314-30.17 0-8.328-8.344-8.328-21.874 0-30.186z" fill="#9ED36A" /><path d="M327.02 923.428c8.328-8.312 21.828-8.312 30.17 0 8.328 8.344 8.328 21.876 0 30.186-8.344 8.312-21.844 8.312-30.17 0-8.328-8.312-8.328-21.842 0-30.186z" fill="#FECD57" /><path d="M296.848 893.274c8.328-8.344 21.842-8.344 30.17 0 8.328 8.342 8.328 21.842 0 30.154-8.328 8.344-21.844 8.344-30.17 0-8.328-8.312-8.328-21.812 0-30.154z" fill="#FECD57" /><path d="M266.678 863.118c8.328-8.344 21.842-8.344 30.17 0 8.328 8.312 8.328 21.812 0 30.156-8.328 8.342-21.842 8.342-30.17 0-8.328-8.344-8.328-21.844 0-30.156z" fill="#FECD57" /><path d="M421.422 927.364l31.828-28.498-130.872-130.904-28.482 31.844zM689.054 682.092c-3.876 3.844-9.19 6.25-15.094 6.25h-60.34c-11.782 0-21.312-9.53-21.312-21.344 0-11.748 9.532-21.31 21.312-21.31h60.342c11.782 0 21.344 9.562 21.344 21.31a21.312 21.312 0 0 1-6.252 15.094z" fill="#424953" /><path d="M628.682 682.092a21.288 21.288 0 0 1-15.062 6.25c-11.782 0-21.312-9.53-21.312-21.344v-60.31c0-11.812 9.532-21.344 21.312-21.344s21.312 9.532 21.312 21.344v60.31c0 5.906-2.378 11.25-6.25 15.094z" fill="#424953" /><path d="M628.682 621.75A21.154 21.154 0 0 1 613.62 628h-60.342c-11.782 0-21.326-9.562-21.326-21.312 0-11.812 9.544-21.344 21.326-21.344h60.342c11.782 0 21.312 9.532 21.312 21.344 0 5.874-2.378 11.186-6.25 15.062z" fill="#424953" /><path d="M568.372 621.75a21.226 21.226 0 0 1-15.094 6.25c-11.782 0-21.326-9.562-21.326-21.312v-60.374c0-11.764 9.544-21.312 21.326-21.312s21.344 9.548 21.344 21.312v60.374c0 5.874-2.378 11.186-6.25 15.062z" fill="#424953" /><path d="M792.334 428.756c-1.064-1.062-2.158-2.078-3.22-3.094l0.062-0.062-56.998-50.982c-13.75 49.608-39.936 172.198 2.344 272.446l50.532-45.25a111.928 111.928 0 0 0 7.282-6.654c45.964-45.968 45.964-120.452-0.002-166.404z" fill="#FECD57" /><path d="M432.61 296.556c8.328 8.328 21.828 8.328 30.17 0 8.328-8.328 8.328-21.842 0-30.17-8.344-8.328-21.842-8.328-30.17 0s-8.328 21.842 0 30.17zM492.952 296.556c8.328 8.328 21.826 8.328 30.156 0 8.344-8.328 8.344-21.842 0-30.17-8.33-8.328-21.828-8.328-30.17 0-8.33 8.328-8.33 21.842 0.014 30.17zM492.952 356.898c8.328 8.328 21.826 8.328 30.156 0 8.344-8.344 8.344-21.844 0-30.17-8.33-8.328-21.828-8.328-30.17 0-8.33 8.326-8.33 21.826 0.014 30.17zM432.61 236.214c8.328 8.328 21.828 8.328 30.17 0 8.328-8.328 8.328-21.826 0-30.17-8.344-8.328-21.842-8.328-30.17 0s-8.328 21.842 0 30.17z" fill="#9ED36A" /><path d="M327.02 100.454c8.328 8.328 21.828 8.328 30.17 0 8.328-8.326 8.328-21.826 0-30.17-8.344-8.328-21.844-8.328-30.17 0-8.328 8.342-8.328 21.842 0 30.17zM296.848 130.626c8.328 8.328 21.842 8.328 30.17 0 8.328-8.328 8.328-21.844 0-30.172-8.328-8.326-21.844-8.326-30.17 0-8.328 8.328-8.328 21.842 0 30.172z" fill="#FECD57" /><path d="M281.764 145.71m-21.334 0a21.334 21.334 0 1 0 42.668 0 21.334 21.334 0 1 0-42.668 0Z" fill="#FECD57" /><path d="M421.422 96.564l31.828 28.498-130.872 130.872-28.482-31.844zM689.054 341.804a21.296 21.296 0 0 0-15.094-6.25h-60.34c-11.782 0-21.312 9.562-21.312 21.344s9.532 21.328 21.312 21.328h60.342c11.782 0 21.344-9.546 21.344-21.328a21.37 21.37 0 0 0-6.252-15.094z" fill="#424953" /><path d="M628.682 341.804a21.22 21.22 0 0 0-15.062-6.25c-11.782 0-21.312 9.562-21.312 21.344v60.326c0 11.796 9.532 21.344 21.312 21.344s21.312-9.546 21.312-21.344v-60.326c0-5.89-2.378-11.234-6.25-15.094z" fill="#424953" /><path d="M628.682 402.146a21.228 21.228 0 0 0-15.062-6.248h-60.342c-11.782 0-21.326 9.544-21.326 21.326 0 11.796 9.544 21.344 21.326 21.344h60.342c11.782 0 21.312-9.546 21.312-21.344 0-5.89-2.378-11.218-6.25-15.078z" fill="#424953" /><path d="M568.372 402.146a21.3 21.3 0 0 0-15.094-6.248c-11.782 0-21.326 9.544-21.326 21.326v60.342c0 11.782 9.544 21.328 21.326 21.344 11.782-0.016 21.344-9.562 21.344-21.344v-60.342c0-5.89-2.378-11.218-6.25-15.078z" fill="#424953" /><path d="M792.334 428.756c-1.064-1.062-2.158-2.078-3.22-3.094l0.062-0.062L338.942 22.91C317.176 2.364 287.13-4.34 259.928 2.77a83.602 83.602 0 0 1 36.342 20.14L746.49 425.6l-0.062 0.062a121.13 121.13 0 0 1 3.248 3.094c45.938 45.952 45.938 120.436 0 166.402a130.236 130.236 0 0 1-7.248 6.654L296.364 1001.082a83.328 83.328 0 0 1-36.342 20.154c27.186 7.096 57.248 0.376 79.014-20.154l446.018-399.27a111.928 111.928 0 0 0 7.282-6.654c45.964-45.966 45.964-120.45-0.002-166.402z" fill="#FFFFFF" opacity=".2" /></svg>