<?xml version="1.0" standalone="no"?><!DOCTYPE svg PUBLIC "-//W3C//DTD SVG 1.1//EN" "http://www.w3.org/Graphics/SVG/1.1/DTD/svg11.dtd"><svg class="icon" width="128px" height="128.00px" viewBox="0 0 1024 1024" version="1.1" xmlns="http://www.w3.org/2000/svg"><path d="M702.574 679.072L96.182 775.856l-55.544 72.666 0.188 59.574c8.95 90.878 754.66 54.14 759.19 13.59l-0.032-66.042-97.41-176.572z" fill="#424953" /><path d="M295.918 75.632s121.134 442.896-38.958 610.094c-68.962 72.01-216.324 51.672-216.324 170.198 0 59.484 769.28 47.206 759.158-1.592-47.612-229.244-35.616-329.292-18.056-771.31 3.436-86.208-485.82-7.39-485.82-7.39z" fill="#967ADA" /><path d="M765.648 0.156H320.316c-23.46 0-42.642 19.198-42.642 42.642v35.24c0 23.446 19.182 42.644 42.642 42.644h445.332c23.46 0 42.644-19.198 42.644-42.644v-35.24c0-23.444-19.182-42.642-42.644-42.642z" fill="#424953" /><path d="M311.834 879.824h40.114v66.104h-40.114zM472.52 875.638h40.114v66.104H472.52zM633.22 865.704h40.112v66.134H633.22z"  /><path d="M871.148 720.842l-643.54 102.718-58.948 77.134 0.188 63.23c9.512 96.468 800.958 57.45 805.77 14.434l-0.032-70.106-103.438-187.41z" fill="#646C77" /><path d="M285.952 1011.346c13.372 1.844 27.602 3.438 42.566 4.844V933.9h-42.566v77.446zM456.494 1023.092c14.012 0.312 28.208 0.532 42.564 0.656V933.9h-42.564v89.192zM669.584 1020.656v-91.192h-42.548v92.752c14.308-0.436 28.492-0.968 42.548-1.56zM840.124 1008.658v-89.722h-42.58v93.722c14.872-1.25 29.084-2.594 42.58-4z" fill="#424953" /><path d="M439.592 80.412s128.554 470.042-41.346 647.488C325.048 804.346 168.66 782.76 168.66 908.564c0 63.106 816.454 50.11 805.708-1.718-50.546-243.27-37.8-349.486-19.184-818.592 3.656-91.488-515.592-7.842-515.592-7.842z" fill="#AC92EA" /><path d="M983.364 85.584c0 23.446-19.182 42.642-42.612 42.642H462.868c-23.462 0-42.644-19.198-42.644-42.642V42.956c0-23.446 19.182-42.644 42.644-42.644h477.884c23.43 0 42.612 19.198 42.612 42.644v42.628z" fill="#646C77" /></svg>