<?xml version="1.0" standalone="no"?><!DOCTYPE svg PUBLIC "-//W3C//DTD SVG 1.1//EN" "http://www.w3.org/Graphics/SVG/1.1/DTD/svg11.dtd"><svg class="icon" width="128px" height="128.00px" viewBox="0 0 1024 1024" version="1.1" xmlns="http://www.w3.org/2000/svg"><path d="M555.06 0.012h-85.34c-11.782 0-21.344 9.546-21.344 21.328v85.34c0 11.78 9.562 21.328 21.344 21.328h85.34c11.782 0 21.312-9.546 21.312-21.328V21.338c0.002-11.78-9.53-21.326-21.312-21.326z" fill="#CCD1D9" /><path d="M639.998 85.338H384.004c-11.782 0-21.312 9.562-21.312 21.342v85.326c0 11.78 9.532 21.328 21.312 21.328h255.994c11.78 0 21.31-9.546 21.31-21.328V106.68c0-11.78-9.53-21.342-21.31-21.342z" fill="#E6E9ED" /><path d="M576.624 42.682h-127.996c-11.782 0-21.344-9.562-21.344-21.342 0-11.782 9.562-21.328 21.344-21.328h127.996c11.782 0 21.312 9.546 21.312 21.328 0 11.78-9.532 21.342-21.312 21.342z" fill="#434A54" /><path d="M448.002 213.334c-11.782 0-21.312-9.546-21.312-21.328V170.68c0-11.782 9.532-21.344 21.312-21.344s21.344 9.562 21.344 21.344v21.328c0 11.78-9.562 21.326-21.344 21.326zM512 213.334c-11.782 0-21.312-9.546-21.312-21.328V170.68c0-11.782 9.532-21.344 21.312-21.344 11.78 0 21.342 9.562 21.342 21.344v21.328c0 11.78-9.562 21.326-21.342 21.326zM575.998 213.334c-11.782 0-21.312-9.546-21.312-21.328V170.68c0-11.782 9.532-21.344 21.312-21.344s21.344 9.562 21.344 21.344v21.328c0 11.78-9.562 21.326-21.344 21.326z" fill="#CCD1D9" /><path d="M725.306 405.33v-170.652c0-35.296-28.688-63.998-63.998-63.998H362.692c-35.312 0-63.998 28.702-63.998 63.998v170.652a21.36 21.36 0 0 0 6.248 15.094L332.504 448l-27.562 27.578c-4 4-6.248 9.438-6.248 15.094v469.316c0 35.312 28.686 64 63.998 64h298.618c35.31 0 63.998-28.688 63.998-64V490.672c0-5.656-2.218-11.094-6.25-15.094L691.494 448l27.562-27.578a21.22 21.22 0 0 0 6.25-15.092z" fill="#5D9CEC" /><path d="M725.306 597.31h-85.308c-11.782 0-21.312 9.562-21.312 21.374 0 11.75 9.532 21.312 21.312 21.312h85.308v-42.686zM725.306 725.308h-85.308c-11.782 0-21.312 9.56-21.312 21.374 0 11.75 9.532 21.312 21.312 21.312h85.308v-42.686zM725.306 853.304h-85.308c-11.782 0-21.312 9.562-21.312 21.376 0 11.75 9.532 21.312 21.312 21.312h85.308v-42.688zM298.694 895.992h85.31c11.78 0 21.342-9.562 21.342-21.312 0-11.812-9.562-21.376-21.342-21.376h-85.31v42.688zM298.694 767.994h85.31c11.78 0 21.342-9.562 21.342-21.312 0-11.812-9.562-21.374-21.342-21.374h-85.31v42.686zM298.694 639.996h85.31c11.78 0 21.342-9.562 21.342-21.312 0-11.81-9.562-21.374-21.342-21.374h-85.31v42.686z" fill="#4A89DC" /><path d="M725.306 405.33v-170.652c0-35.296-28.688-63.998-63.998-63.998h-42.624c35.248 0 63.998 28.702 63.998 63.998v170.652a21.36 21.36 0 0 1-6.25 15.094L648.84 448l27.594 27.578c4 4 6.25 9.438 6.25 15.094v469.316c0 35.312-28.75 64-63.998 64h42.624c35.31 0 63.998-28.688 63.998-64V490.672c0-5.656-2.218-11.094-6.25-15.094L691.494 448l27.562-27.578a21.22 21.22 0 0 0 6.25-15.092z" fill="#FFFFFF" opacity=".2" /></svg>