<?xml version="1.0" standalone="no"?><!DOCTYPE svg PUBLIC "-//W3C//DTD SVG 1.1//EN" "http://www.w3.org/Graphics/SVG/1.1/DTD/svg11.dtd"><svg class="icon" width="128px" height="128.00px" viewBox="0 0 1024 1024" version="1.1" xmlns="http://www.w3.org/2000/svg"><path d="M985.074 659.622c-13.282-32.094-4.062-78.436 20.5-102.998 24.56-24.516 24.56-64.732 0-89.262-24.562-24.546-33.782-70.888-20.5-102.996 13.312-32.094-2.062-69.218-34.154-82.482-32.062-13.266-58.312-52.562-58.312-87.28 0-34.734-28.406-63.138-63.154-63.138-34.716 0-73.998-26.25-87.248-58.342-13.312-32.11-50.436-47.484-82.528-34.204-32.124 13.266-78.468 4.046-102.998-20.5-24.546-24.53-64.764-24.53-89.358 0-24.53 24.546-70.874 33.766-102.934 20.5-32.092-13.282-69.216 2.094-82.53 34.204-13.312 32.092-52.592 58.342-87.31 58.342S131.392 159.87 131.392 194.602c0 34.718-26.25 74.014-58.342 87.28-32.062 13.264-47.436 50.388-34.124 82.482 13.312 32.108 4.062 78.45-20.5 102.996-24.562 24.532-24.562 64.748 0 89.262 24.562 24.562 33.812 70.904 20.5 102.998-13.312 32.092 2.062 69.214 34.124 82.528 32.092 13.312 58.342 52.594 58.342 87.312 0 34.716 28.438 63.122 63.156 63.122s73.998 26.282 87.31 58.376c13.312 32.092 50.436 47.466 82.53 34.154 32.062-13.31 78.404-4.062 102.934 20.468 24.562 24.53 64.78 24.53 89.328 0 24.56-24.532 70.904-33.78 103.03-20.468 32.06 13.312 69.184-2.062 82.464-34.154 13.312-32.094 52.594-58.376 87.31-58.376 34.748 0 63.154-28.404 63.154-63.122s26.25-74 58.312-87.312c32.092-13.312 47.466-50.436 34.154-82.526z" fill="#F6BB42" /><path d="M623.24 511.626l364.084-72.42c-5.406-13.092-8.312-27.686-8.312-41.842l-364.084 72.42 310.742-204.62c-10.282-9.656-18.906-21.796-24.75-34.78L590.522 434.752l210.526-308.6c-13.25-4.796-25.968-12.562-36.5-22.204L554.398 412.018l75.624-367.084c-14.094 0.454-28.782-2.032-42.094-7.062l-75.576 366.63-73.154-367.848c-13.094 5.422-27.686 8.328-41.842 8.328l73.154 367.85L260.452 103.058c-10.406 9.734-23.03 17.656-36.218 22.624l210.338 310.164L122.518 231.648c-6.062 12.952-14.844 24.984-25.25 34.468l312.618 204.572L44.958 400.66c-0.438 14.234-3.782 28.75-9.594 41.608l365.396 70.108L36.676 584.78c5.438 13.092 8.344 27.686 8.344 41.842l364.052-72.404L98.3 758.836c10.282 9.656 18.906 21.812 24.782 34.782L433.48 589.216l-210.556 308.68c13.25 4.782 25.968 12.532 36.5 22.188l210.182-308.118L393.98 979.08c14.094-0.468 28.78 2 42.092 7.032l75.56-366.616 73.17 367.834c13.094-5.406 27.688-8.312 41.844-8.312l-73.154-367.866L763.58 920.988c10.406-9.75 23-17.656 36.218-22.624L589.428 588.152l312.086 204.214c6.062-12.938 14.844-24.968 25.25-34.468l-312.68-204.588 364.958 70.03c0.468-14.218 3.782-28.75 9.594-41.592L623.24 511.626z" fill="#FFCE54" /><path d="M895.982 512c0 212.054-171.902 383.988-384.006 383.988-212.056 0-383.988-171.934-383.988-383.988 0-212.072 171.932-383.99 383.99-383.99 212.102 0 384.004 171.918 384.004 383.99z" fill="#FFCE54" /><path d="M544.398 289.132c-113.952-40.688-237.134-36.954-325.508-25.172C162.206 330.88 127.988 417.44 127.988 512c0 72.466 20.092 140.246 54.998 198.088 72.154-12.062 178.432-16.344 293.618 24.78 115.388 41.188 240.29 36.844 328.884 24.718 56.464-66.874 90.496-153.246 90.496-247.586 0-72.67-20.188-140.622-55.248-198.558-72.188 12.422-179.714 17.328-296.338-24.31z" fill="#ED5564" /><path d="M573.802 455.126l-31.42-119.48-77.56 97.092-126.31-7.704 70.654 103.106-46.436 115.294 121.466-33.97 97.076 78.624 4.594-123.464 107.092-66.764z" fill="#FFCE54" /><path d="M511.976 128.01c-7.156 0-14.25 0.218-21.342 0.594C692.8 139.682 853.328 307.1 853.328 512S692.8 884.3 490.634 895.394c7.092 0.376 14.186 0.594 21.342 0.594 212.104 0 384.006-171.934 384.006-383.988 0-212.072-171.902-383.99-384.006-383.99z" fill="#FFFFFF" opacity=".2" /></svg>