<?xml version="1.0" standalone="no"?><!DOCTYPE svg PUBLIC "-//W3C//DTD SVG 1.1//EN" "http://www.w3.org/Graphics/SVG/1.1/DTD/svg11.dtd"><svg class="icon" width="128px" height="128.00px" viewBox="0 0 1024 1024" version="1.1" xmlns="http://www.w3.org/2000/svg"><path d="M491.026 303.164h42.686v304.05h-42.686z" fill="#A0D468" /><path d="M830.546 202.948c-12.406 79.436-98.464 190.962-177.934 178.588-79.464-12.376-122.214-143.962-109.84-223.43s75.218-76.686 154.684-64.31 145.466 29.686 133.09 109.152z" fill="#DA4453" /><path d="M578.242 147.918c2.156 1.25 29.594 16.844 77.122 31.906 25.594 29.53 37.438 60.748 35.188 92.746-3.624 51.56-42.25 92.746-54.406 104.528 5.312 2.032 10.782 3.562 16.468 4.438 12.968 2.032 26.124 0.718 39.124-3.188 18.282-24.342 38.282-60.03 41.344-102.402 2-27.656-3.344-54.498-15.938-80.216 32.684 6.624 70.434 11.532 112.464 12.5 0.344-1.782 0.656-3.532 0.938-5.282 2.218-14.406 1.876-26.748-0.624-37.374-139.528-3.468-229.46-54.092-230.368-54.624l-21.312 36.968z" opacity=".1" /><path d="M480.776 153.856c13.938 79.186-31.498 212.524-110.684 226.492-79.216 13.938-162.182-96.778-176.12-175.994-13.968-79.184 46.374-96.872 125.59-110.808 79.186-13.97 147.246-18.908 161.214 60.31z" fill="#DA4453" /><path d="M453.276 120.92c-102.684 34.186-205.18 29.436-251.804 24.592-6.75 11.188-10.156 24.906-9.406 42 17.812 2.06 44.406 4.28 76.686 4.28 13.156 0 27.25-0.376 42.092-1.282 31.842 19.438 52 44.468 59.936 74.466 13.218 49.966-10 101.434-17.718 116.464 5.688 0.218 11.342-0.094 17.03-1.094 12.938-2.282 24.936-7.782 35.968-15.656 9.438-28.936 16.842-69.184 6.062-110.278-6.968-26.624-20.562-50.154-40.562-70.308 30.562-4.688 62.748-11.906 95.184-22.688l-13.468-40.496z" opacity=".1" /><path d="M682.676 102.42c0 94.278-79.558 238.96-173.838 238.96-94.278 0-167.526-144.684-167.526-238.96S414.56 0.018 508.836 0.018c94.282 0 173.84 8.124 173.84 102.402z" fill="#ED5564" /><path d="M682.644 105.202c0-0.938 0.032-1.876 0.032-2.782 0-15.344-2.124-28.376-6.062-39.498-111.214 12.436-194.776 6.062-245.524-1.594-37.28-5.624-62.686-12.718-75.528-16.812-6.906 10.75-11.5 24.094-13.344 40.592 21.186 6.844 68.78 19.656 141.746 25.094 33.998 33.28 51.998 69.374 53.436 107.402 2.594 67.28-47.092 120.528-47.592 121.058l0.968 0.938c5.938 1.156 11.938 1.782 18.062 1.782 12.812 0 25.374-2.688 37.5-7.562 16.844-27.282 35.468-68.78 33.75-117.372-1.312-36.716-13.906-71.466-37.532-103.808 3.75 0.062 7.532 0.094 11.406 0.094 38.156-0.002 81.088-2.158 128.682-7.532z" opacity=".1" /><path d="M511.994 1023.982c-63.998 0-277.366-682.414-277.366-682.414s131.058 21.31 272.398 21.31c141.37 0 282.334-21.31 282.334-21.31S575.992 1023.982 511.994 1023.982z" fill="#EC87C0" /><path d="M673.8 354.818c-43.156 45.154-191.526 192.054-351.114 252.616 23.936 68.904 50.404 142.122 76.154 207.618 142.558-68.278 270.46-205.648 322.616-266.366 39.34-115.808 67.902-207.118 67.902-207.118s-47.78 7.22-115.558 13.25z" fill="#D770AD" /></svg>