<?xml version="1.0" standalone="no"?><!DOCTYPE svg PUBLIC "-//W3C//DTD SVG 1.1//EN" "http://www.w3.org/Graphics/SVG/1.1/DTD/svg11.dtd"><svg class="icon" width="128px" height="128.00px" viewBox="0 0 1024 1024" version="1.1" xmlns="http://www.w3.org/2000/svg"><path d="M202.764 64.016h42.656v895.968h-42.656z" fill="#F4BE8E" /><path d="M842.744 298.664l-68.25 42.686h-35.37l-67.032-42.686V85.358h170.652z" fill="#E6E9ED" /><path d="M772.494 48.922c-8.31-8.312-21.842-8.312-30.154 0a21.222 21.222 0 0 0-6.248 15.094v788.566h42.652V64.078a21.226 21.226 0 0 0-6.25-15.156z" fill="#FFCE54" /><path d="M544.096 432.002s41-59.716 38.812-104.964c-8-166.338-215.336-176.994-319.114-305.678h-61.03c-8.312 128.934 277.646 186.838 283.928 292.896 2.876 48.842-27.968 107.714-27.968 107.714v180.056s30.842 58.874 27.968 107.714c-6.282 106.058-292.24 163.964-283.928 292.898h61.03c103.778-128.684 311.114-139.34 319.114-305.68 2.188-45.246-38.812-104.964-38.812-104.964v-159.992z" fill="#A85D5D" /><path d="M273.982 1023.982H182.766l-1.282-19.966c-2.438-37.656 14.624-72.782 52.154-107.374 30.312-27.998 70.31-52.436 108.934-76.092 59.28-36.248 120.558-73.746 122.84-112.09 2.062-35.186-17.75-81.59-25.592-96.528l-2.438-4.656v-190.554l2.438-4.656c0.282-0.532 28.062-54.342 25.592-96.53-2.282-38.342-63.56-75.84-122.84-112.09-38.624-23.654-78.622-48.092-108.934-76.09C196.108 92.764 179.046 57.64 181.484 19.984l1.282-19.966h91.216l6.406 7.938c38.624 47.904 93.966 79.152 147.464 109.372 43.342 24.466 84.248 47.592 116.588 78.84 37.782 36.532 57.344 78.998 59.782 129.84 2.124 43.936-27.594 94.872-38.812 112.402v147.182c11.218 17.532 40.938 68.466 38.812 112.402-2.438 50.844-22 93.31-59.782 129.84-32.342 31.25-73.246 54.376-116.588 78.842-53.498 30.216-108.84 61.466-147.464 109.372l-6.406 7.934z m-47.968-42.654h27.812c42.968-49.624 98.872-81.216 153.026-111.808 40.906-23.094 79.528-44.906 107.934-72.374 30.03-29.03 44.904-61.186 46.81-101.184 1.5-31.094-24.842-76.874-35.092-91.904l-3.75-5.438v-173.244l3.75-5.436c10.25-15.032 36.592-60.81 35.092-91.904-1.906-39.998-16.782-72.154-46.81-101.184-28.406-27.468-67.028-49.28-107.934-72.374-54.154-30.592-110.058-62.186-153.026-111.808h-27.812c12.282 46.936 76.498 86.216 138.838 124.372 71.78 43.936 139.558 85.402 143.152 145.962 2.718 46.062-20.218 97.936-27.938 113.964v170.056c7.718 16.032 30.656 67.904 27.938 113.964-3.594 60.562-71.374 102.028-143.152 145.964-62.34 38.16-126.558 77.438-138.838 124.376z" fill="#965353" /><path d="M458.224 405.348h80.872v42.654h-80.872zM458.224 490.656h80.872v42.688h-80.872zM460.068 575.998h80.872v42.654h-80.872z" fill="#965353" /><path d="M782.838 824.02a56.71 56.71 0 0 0-25.436 5.968c-7.782-3.906-16.438-5.968-25.404-5.968-31.406 0-56.938 25.532-56.938 56.938 0 51.434 64.282 90.434 71.624 94.714l10.75 6.25 10.75-6.25c7.31-4.282 71.592-43.282 71.592-94.714 0-31.376-25.532-56.938-56.938-56.938z" fill="#ED5564" /></svg>