<?xml version="1.0" standalone="no"?><!DOCTYPE svg PUBLIC "-//W3C//DTD SVG 1.1//EN" "http://www.w3.org/Graphics/SVG/1.1/DTD/svg11.dtd"><svg class="icon" width="128px" height="128.00px" viewBox="0 0 1024 1024" version="1.1" xmlns="http://www.w3.org/2000/svg"><path d="M637.406 461.532l-125.404 55.186-125.386-55.186-137.53 312.462 96.874-4 59.358 72.748 106.684-242.368 106.688 242.368 59.34-72.748 96.874 4z" fill="#DA4453" /><path d="M796.124 492.782l-282.2 36-247.322-28.438-237.886 108.904 6.876 18.562c1 2.686 25.406 65.53 123.498 65.53h0.016c81.624 0 190.902-43.718 324.79-129.934l28.108-18.094 28.11 18.094C674 649.62 783.282 693.34 864.934 693.34c98.094 0 122.498-62.844 123.498-65.53l6.156-16.624-198.464-118.404z" fill="#DA4453" /><path d="M968.62 232.506c-23.156-34-57.968-51.248-103.406-51.248-69.808 0-164.964 41.592-282.804 123.654-25.656 17.874-49.516 35.656-70.406 51.874-20.904-16.218-44.748-34-70.404-51.874-117.858-82.062-212.996-123.654-282.792-123.654-45.468 0-80.264 17.25-103.434 51.248-64.936 95.374-73.484 249.244-21.766 391.96 4.546 12.53 15.672 19.998 29.782 19.998 14.078 0 31.514-7.282 57.936-18.342 55.858-23.344 149.356-62.436 283.604-62.436 31.046 0 62.982 2.154 95.074 6.374 3.438 0.718 20.546 0.718 24 0 32.094-4.218 64.032-6.374 95.062-6.374 134.246 0 227.742 39.092 283.618 62.436 26.406 11.06 43.876 18.342 57.938 18.342 14.092 0 25.248-7.468 29.78-19.998 51.714-142.716 43.15-296.588-21.782-391.96z" fill="#ED5564" /><path d="M640.032 458.688c0 70.718-57.31 128.028-128.03 128.028-70.7 0-128.028-57.31-128.028-128.028 0-70.716 57.328-128.028 128.028-128.028 70.718 0 128.03 57.312 128.03 128.028z" fill="#FFCE54" /><path d="M576.002 458.688c0 35.342-28.656 64-64 64-35.358 0-64.012-28.656-64.012-64s28.656-64 64.012-64c35.344 0.002 64 28.658 64 64z" fill="#F6BB42" /></svg>