<?xml version="1.0" standalone="no"?><!DOCTYPE svg PUBLIC "-//W3C//DTD SVG 1.1//EN" "http://www.w3.org/Graphics/SVG/1.1/DTD/svg11.dtd"><svg class="icon" width="128px" height="128.00px" viewBox="0 0 1024 1024" version="1.1" xmlns="http://www.w3.org/2000/svg"><path d="M505.008055 959.796503c-11.781908 0-21.343833-9.531925-21.343833-21.311833V85.50735c0-11.779908 9.561925-21.341833 21.343833-21.341833 11.779908 0 21.311833 9.561925 21.311833 21.341833v852.97732a21.297833 21.297833 0 0 1-21.311833 21.311833z" fill="#E6E9ED" /><path d="M846.313382 426.654678c11.217912-17.529863 40.935679-56.749556 38.809696-100.685211-2.437981-50.811602-21.999828-93.279269-59.779532-129.808983-32.343747-31.249755-73.249426-54.373574-116.593087-78.841383-53.497581-30.217763-108.807148-61.465519-147.462845-109.373143a21.267833 21.267833 0 0 0-16.59387-7.937938h-61.029522a21.307833 21.307833 0 0 0-21.279833 19.967844c-2.437981 37.623705 14.623885 72.74943 52.153591 107.373159 30.343762 27.967781 70.311449 52.437589 108.937147 76.091404 59.279536 36.249716 120.557056 73.749422 122.839038 112.059122 2.49998 42.18567-25.311802 96.029248-25.5618 96.529244a21.125835 21.125835 0 0 0-2.437981 9.905922v180.09059c0 3.437973 0.811994 6.843946 2.405981 9.905922 0.281998 0.531996 28.09378 54.339574 25.5938 96.527244-2.281982 38.3117-63.559502 75.811406-122.839038 112.093122-38.623697 23.655815-78.593384 48.093623-108.937147 76.093404-37.529706 34.589729-54.591572 69.713454-52.153591 107.37116 0.717994 11.217912 10.029921 19.967844 21.279833 19.967843h61.029522c6.43795 0 12.561902-2.937977 16.59387-7.937938 38.623697-47.905625 93.965264-79.15538 147.462845-109.375143 43.311661-24.495808 84.24934-47.589627 116.593087-78.839383 37.779704-36.531714 57.341551-78.999381 59.779532-129.842983 2.123983-43.933656-27.591784-83.151349-38.809696-100.683211v-170.650664z" fill="#965353" /><path d="M718.314384 426.654678h127.998998v170.652664h-127.998998z" fill="#ED5564" /><path d="M718.314384 490.654177h127.998998v42.655666h-127.998998z" fill="#DA4453" /><path d="M351.857254 149.318851h-127.964998c-5.687955 0-11.093913 2.249982-15.093881 6.249951s-6.249951 9.437926-6.249951 15.093881v149.338831c0 5.905954 2.437981 11.561909 6.781947 15.591878l45.685642 42.655666a21.327833 21.327833 0 0 0 14.561886 5.749955h35.373723c5.281959 0 10.405919-1.967985 14.343887-5.561957l46.935633-42.655666a21.389832 21.389832 0 0 0 6.967945-15.779876v-149.338831c0-11.781908-9.561925-21.343833-21.341833-21.343832z" fill="#CCD1D9" /><path d="M287.857755 670.30277c-11.781908 0-21.311833-9.557925-21.311833-21.339833V149.318851c0-11.781908 9.531925-21.311833 21.311833-21.311834S309.201588 137.536943 309.201588 149.318851v499.646086c0 11.779908-9.561925 21.337833-21.343833 21.337833z" fill="#F6BB42" /><path d="M288.077754 85.319352H160.080756c-5.655956 0-11.061913 2.249982-15.061882 6.249951s-6.249951 9.437926-6.249951 15.093882v149.33883c0 5.905954 2.437981 11.561909 6.749947 15.593878l45.717642 42.655666a21.323833 21.323833 0 0 0 14.561886 5.749955h35.343723a21.299833 21.299833 0 0 0 14.373888-5.561957l46.905632-42.655666a21.313833 21.313833 0 0 0 6.999946-15.781876v-149.33883c-0.002-11.781908-9.563925-21.343833-21.343833-21.343833z" fill="#E6E9ED" /><path d="M223.922256 606.307271c-11.781908 0-21.343833-9.561925-21.343833-21.343832V85.319352c0-11.779908 9.561925-21.311833 21.343833-21.311833s21.343833 9.531925 21.343833 21.311833v499.644087c0 11.781908-9.561925 21.343833-21.343833 21.343832z" fill="#FFCE54" /><path d="M358.919199 497.404124l-170.682663-59.311535a21.343833 21.343833 0 0 0-28.311779 20.155842V941.672645c0 41.749673 60.529526 51.375598 80.43537 54.531573 35.373723 5.593956 75.841406 6.43795 96.841242 6.437949 9.343927 0 15.061882-0.155999 15.31188-0.155999 11.52991-0.343997 20.717838-9.781923 20.717838-21.343832V517.527967c0-9.061929-5.749955-17.155866-14.311888-20.123843z" fill="#ED5564" /><path d="M358.919199 497.404124l-170.682663-59.311535a21.359833 21.359833 0 0 0-17.217865 1.437989l166.558695 57.873546a21.339833 21.339833 0 0 1 14.343888 20.123843v463.614369c0 11.561909-9.187928 20.999836-20.749838 21.343832-0.123999 0-1.843986 0.032-4.843962 0.094 4.031968 0.032 7.68794 0.062 10.875915 0.061999 9.343927 0 15.061882-0.155999 15.31188-0.155999 11.52991-0.343997 20.717838-9.781923 20.717838-21.343832V517.527967a21.315833 21.315833 0 0 0-14.313888-20.123843zM846.313382 426.654678c11.217912-17.529863 40.935679-56.749556 38.809696-100.685211-2.437981-50.811602-21.999828-93.279269-59.779532-129.808983-32.343747-31.249755-73.249426-54.373574-116.593087-78.841383-53.497581-30.217763-108.807148-61.465519-147.462845-109.373143a21.267833 21.267833 0 0 0-16.59387-7.937938h-21.343833c6.467949 0 12.561902 2.905977 16.62387 7.937938 38.623697 47.905625 93.937264 79.15538 147.434845 109.373143 43.341661 24.467808 84.27934 47.593627 116.591087 78.841383 37.781704 36.529714 57.341551 78.999381 59.809532 129.808983 2.093984 43.935656-27.623784 83.155349-38.809696 100.685211v170.652664c11.187912 17.531863 40.90368 56.749556 38.809696 100.683211-2.467981 50.843602-22.029827 93.311269-59.809532 129.842983-32.311747 31.249755-73.249426 54.343574-116.591087 78.839383-53.497581 30.217763-108.809148 61.467519-147.434845 109.375143a21.427832 21.427832 0 0 1-16.62387 7.937938h21.343833c6.43795 0 12.561902-2.937977 16.59387-7.937938 38.623697-47.905625 93.965264-79.15538 147.462845-109.375143 43.311661-24.495808 84.24934-47.589627 116.593087-78.839383 37.779704-36.531714 57.341551-78.999381 59.779532-129.842983 2.123983-43.933656-27.591784-83.151349-38.809696-100.683211v-170.652664z" fill="#FFFFFF" opacity=".2" /></svg>