<?xml version="1.0" standalone="no"?><!DOCTYPE svg PUBLIC "-//W3C//DTD SVG 1.1//EN" "http://www.w3.org/Graphics/SVG/1.1/DTD/svg11.dtd"><svg class="icon" width="128px" height="128.00px" viewBox="0 0 1024 1024" version="1.1" xmlns="http://www.w3.org/2000/svg"><path d="M951.446 308.792l1.062-41.186c7-13.906 24.156-53.84 24.156-110.932 0-35.78-10.718-65.434-31-85.776-18.124-18.186-43.34-28.218-70.996-28.218-27.684 0-52.872 10.032-70.996 28.218-20.28 20.342-30.998 49.998-30.998 85.776 0 57.092 17.156 97.026 24.124 110.932l1.094 41.186c-11.404 28.592-72.558 187.834-72.558 317.856 0 140.684 49.092 252.05 51.186 256.708a21.32 21.32 0 0 0 19.466 12.624h157.336c8.406 0 16.032-4.938 19.468-12.624 2.094-4.656 51.184-116.024 51.184-256.708-0.002-130.022-61.122-289.264-72.528-317.856z" fill="#E6E9ED" /><path d="M796.828 268.668l1.062 40.124c-2.938 7.344-9.154 23.342-16.78 45.216h187.084c-7.624-21.874-13.844-37.874-16.75-45.216l1.032-40.124h-155.648zM546.282 435.068c-60.436-60.436-140.776-93.714-226.27-93.714-85.464 0-165.804 33.28-226.238 93.714C33.338 495.5 0.028 575.84 0.028 661.336c0 85.464 33.31 165.804 93.746 226.238s140.774 93.746 226.238 93.746c85.496 0 165.834-33.312 226.27-93.746 60.434-60.434 93.712-140.774 93.712-226.238 0-85.496-33.28-165.836-93.712-226.268z" fill="#ED5564" /><path d="M546.282 435.068c-60.436-60.436-140.776-93.714-226.27-93.714-7.124 0-14.25 0.25-21.312 0.718 77.434 5.062 149.554 37.624 204.926 92.996 60.434 60.434 93.714 140.772 93.714 226.268 0 85.464-33.28 165.804-93.714 226.238-55.372 55.402-127.494 87.964-204.926 93.028 7.062 0.468 14.186 0.718 21.312 0.718 85.496 0 165.834-33.312 226.27-93.746 60.434-60.434 93.712-140.774 93.712-226.238 0-85.496-33.28-165.836-93.712-226.268z" fill="#FFFFFF" opacity=".2" /><path d="M470.878 570.808c-16.686 16.688-43.686 16.688-60.34 0-16.656-16.656-16.656-43.652 0-60.308 16.656-16.688 43.654-16.688 60.34 0 16.656 16.656 16.656 43.652 0 60.308zM440.692 721.676c-16.656 16.656-43.654 16.656-60.34 0-16.656-16.688-16.656-43.684 0-60.34 16.686-16.688 43.684-16.688 60.34 0 16.686 16.656 16.654 43.652 0 60.34zM320.01 600.996c-16.656 16.656-43.654 16.656-60.31 0-16.686-16.656-16.686-43.688 0-60.34 16.656-16.656 43.654-16.656 60.31 0 16.688 16.652 16.688 43.684 0 60.34z" fill="#434A54" /><path d="M951.446 308.792l1.062-41.186c7-13.906 24.156-53.84 24.156-110.932 0-35.78-10.718-65.434-31-85.776-18.124-18.186-43.34-28.218-70.996-28.218-3.594 0-7.156 0.188-10.686 0.532 23.466 2.25 44.592 11.876 60.372 27.686 20.248 20.342 30.966 49.998 30.966 85.776 0 57.092-17.154 97.026-24.124 110.932l-1.094 41.186c11.404 28.592 72.558 187.834 72.558 317.856 0 140.684-49.124 252.05-51.186 256.708a21.332 21.332 0 0 1-19.498 12.624h21.342c8.406 0 16.032-4.938 19.468-12.624 2.094-4.656 51.184-116.024 51.184-256.708 0.002-130.022-61.118-289.264-72.524-317.856z" fill="#FFFFFF" opacity=".3" /></svg>