<?xml version="1.0" standalone="no"?><!DOCTYPE svg PUBLIC "-//W3C//DTD SVG 1.1//EN" "http://www.w3.org/Graphics/SVG/1.1/DTD/svg11.dtd"><svg class="icon" width="128px" height="128.00px" viewBox="0 0 1024 1024" version="1.1" xmlns="http://www.w3.org/2000/svg"><path d="M949.238 239.71c-89.496-15.718-437.234 155.636-437.234 155.636S184.08 200.884 74.754 239.79c-109.308 38.89-89.48 528.792 0 544.48 89.498 15.718 437.25-155.556 437.25-155.556s327.926 194.4 437.234 155.494c109.308-38.908 89.496-528.794 0-544.498z" fill="#967ADA" /><path d="M949.238 239.71c-9.876-1.734-22.938-1.188-38.312 1.156 85.748 30.546 103.152 505.09-4.344 543.34-4.656 1.656-9.75 2.876-15.156 3.718 22.594 2.624 42.376 1.782 57.812-3.718 109.308-38.906 89.496-528.792 0-544.496z" fill="#FFFFFF" opacity=".2" /><path d="M703.998 490.656h-68.966v42.67h68.966c11.78 0 21.31-9.546 21.31-21.328 0-11.78-9.53-21.342-21.31-21.342zM341.338 490.656h46.17v-42.67h-46.17c-11.78 0-21.328 9.546-21.328 21.328 0.002 11.778 9.548 21.342 21.328 21.342zM277.342 554.654c0 11.782 9.562 21.342 21.344 21.342h99.042v-42.686h-99.042c-11.782 0-21.344 9.564-21.344 21.344z" opacity=".2" /><path d="M661.31 480.312c0 85.936-66.84 187.244-149.306 187.244-82.464 0-149.322-101.306-149.322-187.244 0-85.902 66.858-123.886 149.322-123.886 82.466 0 149.306 37.984 149.306 123.886z" fill="#AC92EA" /><path d="M512.004 356.426c-7.25 0-14.358 0.296-21.328 0.89 72.358 6.156 127.978 44.64 127.978 122.996 0 78.374-55.622 169.556-127.978 184.962a101.082 101.082 0 0 0 21.328 2.282c82.466 0 149.306-101.306 149.306-187.244 0-85.902-66.84-123.886-149.306-123.886z" fill="#FFFFFF" opacity=".2" /></svg>