<?xml version="1.0" standalone="no"?><!DOCTYPE svg PUBLIC "-//W3C//DTD SVG 1.1//EN" "http://www.w3.org/Graphics/SVG/1.1/DTD/svg11.dtd"><svg class="icon" width="128px" height="128.00px" viewBox="0 0 1024 1024" version="1.1" xmlns="http://www.w3.org/2000/svg"><path d="M1023.696 938.496H0.118L0.304 85.504h1023.578z" fill="#FFCE54" /><path d="M383.952 128.15v213.232c0 11.78 9.544 21.338 21.322 21.338 11.78 0 21.324-9.56 21.324-21.338 0 11.78 9.544 21.338 21.324 21.338 11.78 0 21.324-9.56 21.324-21.338 0 11.78 9.544 21.338 21.324 21.338 11.78 0 21.324-9.56 21.324-21.338 0 11.78 9.56 21.338 21.324 21.338 11.78 0 21.338-9.56 21.338-21.338 0 11.78 9.562 21.338 21.308 21.338 11.78 0 21.34-9.56 21.34-21.338 0 11.78 9.528 21.338 21.338 21.338 11.748 0 21.306-9.56 21.306-21.338V128.15H383.952z" fill="#E6E9ED" /><path d="M192.12 767.878H106.828c-11.78 0-21.324-9.53-21.324-21.308s9.544-21.338 21.324-21.338H192.12c11.778 0 21.338 9.56 21.338 21.338 0 11.78-9.56 21.308-21.338 21.308zM362.722 853.172H106.828c-11.78 0-21.324-9.53-21.324-21.308s9.544-21.338 21.324-21.338h255.894c11.778 0 21.322 9.56 21.322 21.338s-9.544 21.308-21.322 21.308z" fill="#656D78" /><path d="M597.292 853.172l97.478-162.464 97.478 162.464z" fill="#434A54" /><path d="M678.524 853.172l129.97-227.448 129.97 227.448z" fill="#656D78" /><path d="M383.952 85.504v213.232c0 11.78 9.544 21.34 21.322 21.34 11.78 0 21.324-9.56 21.324-21.34 0 11.78 9.544 21.34 21.324 21.34 11.78 0 21.324-9.56 21.324-21.34 0 11.78 9.544 21.34 21.324 21.34 11.78 0 21.324-9.56 21.324-21.34 0 11.78 9.56 21.34 21.324 21.34 11.78 0 21.338-9.56 21.338-21.34 0 11.78 9.562 21.34 21.308 21.34 11.78 0 21.34-9.56 21.34-21.34 0 11.78 9.528 21.34 21.338 21.34 11.748 0 21.306-9.56 21.306-21.34V85.504H383.952z" fill="#F5F7FA" /></svg>