<?xml version="1.0" standalone="no"?><!DOCTYPE svg PUBLIC "-//W3C//DTD SVG 1.1//EN" "http://www.w3.org/Graphics/SVG/1.1/DTD/svg11.dtd"><svg class="icon" width="128px" height="128.00px" viewBox="0 0 1024 1024" version="1.1" xmlns="http://www.w3.org/2000/svg"><path d="M320.004 512.024c-11.782 0-21.328-9.562-21.328-21.344V234.686c0-11.782 9.546-21.344 21.328-21.344s21.328 9.562 21.328 21.344V490.68c0 11.78-9.546 21.344-21.328 21.344zM703.994 512.024c-11.782 0-21.31-9.562-21.31-21.344V234.686c0-11.782 9.53-21.344 21.31-21.344s21.312 9.562 21.312 21.344V490.68c0 11.78-9.53 21.344-21.312 21.344z" fill="#CCD1D9" /><path d="M938.678 256.03H85.338c-11.782 0-21.328-9.562-21.328-21.344s9.546-21.344 21.328-21.344h853.34c11.75 0 21.312 9.562 21.312 21.344s-9.562 21.344-21.312 21.344zM938.678 341.34H85.338c-11.782 0-21.328-9.532-21.328-21.312 0-11.812 9.546-21.344 21.328-21.344h853.34c11.75 0 21.312 9.532 21.312 21.344 0 11.78-9.562 21.312-21.312 21.312zM938.678 426.682H85.338c-11.782 0-21.328-9.562-21.328-21.344s9.546-21.312 21.328-21.312h853.34c11.75 0 21.312 9.532 21.312 21.312s-9.562 21.344-21.312 21.344zM938.678 512.024H85.338c-11.782 0-21.328-9.562-21.328-21.344s9.546-21.344 21.328-21.344h853.34c11.75 0 21.312 9.562 21.312 21.344s-9.562 21.344-21.312 21.344z" fill="#E6E9ED" /><path d="M85.338 170.688h-64A21.318 21.318 0 0 0 0.01 192.03v383.976c0 11.75 9.546 21.312 21.328 21.312h64c11.78 0 21.342-9.562 21.342-21.312V192.03c0-11.812-9.562-21.342-21.342-21.342z" fill="#5D9CEC" /><path d="M1002.676 170.688h-63.998c-11.812 0-21.376 9.53-21.376 21.342v383.976c0 11.75 9.562 21.312 21.376 21.312h63.998c11.75 0 21.312-9.562 21.312-21.312V192.03c0-11.812-9.562-21.342-21.312-21.342z" fill="#ED5564" /><path d="M1002.676 554.694H21.338c-11.782 0-21.328 9.5-21.328 21.312V832c0 11.75 9.546 21.312 21.328 21.312h981.336c11.75 0 21.312-9.562 21.312-21.312V576.006c0.002-11.812-9.56-21.312-21.31-21.312z" fill="#656D78" /><path d="M624.936 838.25a21.198 21.198 0 0 0-6.25 15.062h42.624c0-5.438-2.062-10.876-6.218-15.062-8.346-8.312-21.844-8.312-30.156 0zM752.932 838.25a21.198 21.198 0 0 0-6.25 15.062h42.624c0-5.438-2.062-10.876-6.218-15.062-8.344-8.312-21.844-8.312-30.156 0zM911.084 838.25c-8.344-8.312-21.844-8.312-30.156 0a21.198 21.198 0 0 0-6.25 15.062h42.624c0.032-5.436-2.062-10.874-6.218-15.062zM108.618 838.25a21.332 21.332 0 0 0-6.25 15.062H145.04a21.26 21.26 0 0 0-6.25-15.062c-8.33-8.312-21.844-8.312-30.172 0zM236.616 838.25a21.332 21.332 0 0 0-6.25 15.062h42.67a21.26 21.26 0 0 0-6.25-15.062c-8.328-8.312-21.842-8.312-30.17 0zM364.612 838.25a21.332 21.332 0 0 0-6.25 15.062h42.67a21.26 21.26 0 0 0-6.25-15.062c-8.326-8.312-21.842-8.312-30.17 0z" fill="#434A54" /><path d="M394.784 569.756a21.264 21.264 0 0 0 6.25-15.062h-42.67c0 5.438 2.094 10.876 6.25 15.062 8.326 8.312 21.842 8.312 30.17 0zM266.786 569.756a21.264 21.264 0 0 0 6.25-15.062h-42.67c0 5.438 2.094 10.876 6.25 15.062 8.328 8.312 21.842 8.312 30.17 0zM108.618 569.756c8.328 8.312 21.842 8.312 30.17 0a21.264 21.264 0 0 0 6.25-15.062H102.368c0 5.436 2.094 10.874 6.25 15.062zM911.084 569.756c4.156-4.188 6.25-9.624 6.218-15.062h-42.624c0 5.438 2.062 10.876 6.25 15.062 8.312 8.312 21.812 8.312 30.156 0zM783.088 569.756a21.298 21.298 0 0 0 6.218-15.062h-42.624c0 5.438 2.062 10.876 6.25 15.062 8.312 8.312 21.812 8.312 30.156 0zM655.09 569.756a21.298 21.298 0 0 0 6.218-15.062h-42.624c0 5.438 2.062 10.876 6.25 15.062 8.314 8.312 21.812 8.312 30.156 0z" fill="#434A54" /><path d="M621.936 677.316a21.358 21.358 0 0 0-17.25-14.562l-50.812-7.376-22.75-46.062a21.254 21.254 0 0 0-19.124-11.874 21.248 21.248 0 0 0-19.124 11.874l-22.734 46.062-50.842 7.376a21.36 21.36 0 0 0-17.218 14.562 21.22 21.22 0 0 0 5.39 21.812l36.796 35.874-8.688 50.624c-1.376 8 1.922 16.124 8.484 20.876 6.578 4.75 15.282 5.438 22.468 1.624L512 784.25l45.466 23.876a21.5 21.5 0 0 0 9.906 2.438 21.44 21.44 0 0 0 12.562-4.062 21.352 21.352 0 0 0 8.5-20.876l-8.688-50.624 36.782-35.874a21.258 21.258 0 0 0 5.408-21.812zM320.004 725.316H106.68c-11.782 0-21.342-9.562-21.342-21.312 0-11.812 9.562-21.312 21.342-21.312h213.324c11.782 0 21.328 9.5 21.328 21.312 0 11.75-9.546 21.312-21.328 21.312zM917.302 725.316H703.994c-11.782 0-21.31-9.562-21.31-21.312a21.278 21.278 0 0 1 21.31-21.312h213.308c11.812 0 21.376 9.5 21.376 21.312 0 11.75-9.562 21.312-21.376 21.312z" fill="#FFCE54" /></svg>