<?xml version="1.0" standalone="no"?><!DOCTYPE svg PUBLIC "-//W3C//DTD SVG 1.1//EN" "http://www.w3.org/Graphics/SVG/1.1/DTD/svg11.dtd"><svg class="icon" width="128px" height="128.00px" viewBox="0 0 1024 1024" version="1.1" xmlns="http://www.w3.org/2000/svg"><path d="M863.076 263.512c-0.75-70.058-26.78-135.868-73.402-185.458C742.364 27.746 679.43 0.028 612.496 0.028h-137.588c-66.934 0-129.868 27.716-177.178 78.026-46.622 49.592-72.668 115.4-73.418 185.458-0.046 0.5-0.062 1.032-0.062 1.532v76.214c-27.858 20.624-48.076 51.624-57.466 88.59-11.328 44.53-6.296 93.056 14.156 136.648l40.076 85.34c18.452 39.28 68.48 87.058 87.48 104.338V978.1c0.016 25.31 19.858 45.874 44.264 45.874h380.792c24.406 0 44.248-20.562 44.248-45.874V753.83c18.466-24.78 85.34-119.87 85.34-196.084V265.042c-0.002-0.5-0.002-1.03-0.064-1.53z" fill="#ED5564" /><path d="M396.6 421.192c32.686 49.092 43.654 102.462 43.826 103.338 2.016 10.156 10.922 17.188 20.906 17.188 1.36 0 2.75-0.124 4.14-0.406 11.562-2.25 19.092-13.468 16.812-25.03-0.484-2.468-12.342-61.374-49.418-117.588-50.31-76.278-122.416-110.87-208.614-100.244v42.808c0.938 0 1.89-0.062 2.844-0.188 70.712-9.498 127.756 17.438 169.504 80.122z" fill="#DA4453" /><path d="M585.808 767.986a21.276 21.276 0 0 1-15.062-6.25l-85.338-85.34c-8.328-8.342-8.328-21.842 0-30.154 8.328-8.344 21.828-8.344 30.17 0l85.324 85.308c8.344 8.312 8.344 21.842 0 30.186a21.296 21.296 0 0 1-15.094 6.25z" fill="#E6E9ED" /><path d="M500.486 767.986c-5.454 0-10.92-2.094-15.078-6.25-8.328-8.344-8.328-21.874 0-30.186l85.338-85.308c8.312-8.344 21.844-8.344 30.156 0 8.344 8.312 8.344 21.812 0 30.154l-85.324 85.34a21.318 21.318 0 0 1-15.092 6.25z" fill="#F5F7FA" /><path d="M585.808 917.292a21.144 21.144 0 0 1-15.062-6.25l-85.338-85.308c-8.328-8.342-8.328-21.874 0-30.186 8.328-8.312 21.828-8.312 30.17 0l85.324 85.34c8.344 8.344 8.344 21.842 0 30.154-4.156 4.186-9.624 6.25-15.094 6.25z" fill="#E6E9ED" /><path d="M500.486 917.292c-5.454 0-10.92-2.062-15.078-6.25-8.328-8.312-8.328-21.81 0-30.154l85.338-85.34c8.312-8.312 21.844-8.312 30.156 0 8.344 8.312 8.344 21.844 0 30.186l-85.324 85.308a21.192 21.192 0 0 1-15.092 6.25z" fill="#F5F7FA" /><path d="M372.492 789.296c11.78 0 21.342-9.562 21.342-21.31 0-11.812-9.562-21.342-21.342-21.342h-74.262a905.018 905.018 0 0 0 10.264 9.53v33.124h63.998zM713.834 746.644a21.31 21.31 0 0 0-21.342 21.342c0 11.748 9.53 21.31 21.342 21.31h63.964v-35.466c1.468-1.968 3.25-4.404 5.282-7.186h-69.246z" fill="#DA4453" /><path d="M813.046 106.678a268.41 268.41 0 0 0-23.374-28.624C742.362 27.746 679.428 0.028 612.494 0.028h-137.588c-66.934 0-129.868 27.716-177.178 78.026a266.864 266.864 0 0 0-23.374 28.624c0.328-0.062 127.274-21.344 268.8-21.344 141.494 0 269.486 21.282 269.892 21.344z" fill="#FFFFFF" opacity=".2" /></svg>