<?xml version="1.0" standalone="no"?><!DOCTYPE svg PUBLIC "-//W3C//DTD SVG 1.1//EN" "http://www.w3.org/Graphics/SVG/1.1/DTD/svg11.dtd"><svg class="icon" width="128px" height="128.00px" viewBox="0 0 1024 1024" version="1.1" xmlns="http://www.w3.org/2000/svg"><path d="M953.866 341.316c-92.624-2.376-181.808-33.376-257.996-89.654l-0.124-0.094c-53.622-38.968-117.122-59.562-183.728-59.562-66.342 0-129.888 20.686-183.762 59.842l-0.14 0.094c-75.888 56.092-165.09 86.998-257.994 89.374-38.686 0.156-70.108 31.966-70.108 71.06v241.9c0 39.094 31.42 70.938 70.108 71.094 92.638 2.374 181.84 33.374 257.994 89.652l0.14 0.094c53.592 38.968 117.138 59.532 183.762 59.532 66.358 0 129.858-20.688 183.728-59.812l0.124-0.094c75.876-56.092 165.122-86.998 257.996-89.372 38.686-0.156 70.124-32 70.124-71.094v-241.9c-0.002-39.092-31.44-70.904-70.124-71.06z" fill="#7F4545" /><path d="M953.866 298.628c-92.624-2.344-181.808-33.342-257.996-89.624l-0.124-0.094c-53.622-38.966-117.122-59.56-183.728-59.56-66.342 0-129.888 20.688-183.762 59.842l-0.14 0.094c-75.888 56.092-165.09 86.966-257.994 89.342-38.686 0.156-70.108 32-70.108 71.092v241.9c0 39.094 31.42 70.938 70.108 71.094 92.638 2.376 181.84 33.344 257.994 89.652l0.14 0.094c53.592 38.938 117.138 59.532 183.762 59.532 66.358 0 129.858-20.688 183.728-59.812l0.124-0.124c75.876-56.09 165.122-86.964 257.996-89.34 38.686-0.156 70.124-32 70.124-71.094v-241.9c-0.002-39.094-31.44-70.936-70.124-71.094z" fill="#965353" /><path d="M512 234.662c-141.154 0-255.994 114.842-255.994 255.994S370.846 746.65 512 746.65c141.152 0 255.994-114.842 255.994-255.994S653.152 234.662 512 234.662z" fill="#FFCE54" /><path d="M512 767.994c-152.918 0-277.322-124.404-277.322-277.338 0-152.902 124.404-277.306 277.322-277.306 152.934 0 277.306 124.404 277.306 277.306 0 152.934-124.372 277.338-277.306 277.338z m0-511.988c-129.388 0-234.666 105.278-234.666 234.65 0 129.402 105.28 234.684 234.666 234.684 129.374 0 234.682-105.282 234.682-234.684 0-129.372-105.308-234.65-234.682-234.65z" fill="#F6BB42" /><path d="M192.006 490.656c0 23.562-19.11 42.688-42.67 42.688S106.68 514.22 106.68 490.656 125.774 448 149.336 448s42.67 19.094 42.67 42.656zM917.302 490.656c0 23.562-19.062 42.688-42.624 42.688-23.56 0-42.686-19.124-42.686-42.688S851.118 448 874.678 448c23.562 0 42.624 19.094 42.624 42.656z" fill="#FFCE54" /><path d="M663.372 449.314a21.416 21.416 0 0 0-17.25-14.53l-79.436-11.532-35.562-72a21.336 21.336 0 0 0-19.124-11.906 21.33 21.33 0 0 0-19.124 11.906l-35.546 72-79.452 11.532a21.396 21.396 0 0 0-17.234 14.53 21.384 21.384 0 0 0 5.406 21.874l57.5 56.032-13.578 79.154a21.366 21.366 0 0 0 8.484 20.874 21.38 21.38 0 0 0 22.468 1.624L512 591.498l71.06 37.374a21.622 21.622 0 0 0 9.938 2.438c4.438 0 8.812-1.376 12.562-4.062a21.354 21.354 0 0 0 8.468-20.874l-13.594-79.154 57.498-56.032c5.814-5.688 7.94-14.156 5.44-21.874z" fill="#ED5564" /></svg>