<?xml version="1.0" standalone="no"?><!DOCTYPE svg PUBLIC "-//W3C//DTD SVG 1.1//EN" "http://www.w3.org/Graphics/SVG/1.1/DTD/svg11.dtd"><svg class="icon" width="128px" height="128.00px" viewBox="0 0 1024 1024" version="1.1" xmlns="http://www.w3.org/2000/svg"><path d="M682.66 278.442H341.326a21.298 21.298 0 0 0-21.312 21.312v660.234c0 34.312 49.78 46.782 66.124 50.876 33.876 8.438 78.592 13.124 125.874 13.124 47.278 0 91.966-4.688 125.84-13.124 16.374-4.094 66.152-16.562 66.152-50.876V299.754c-0.002-11.782-9.564-21.312-21.344-21.312z" fill="#5D9CEC" /><path d="M682.66 278.442h-21.344c11.782 0 21.344 9.53 21.344 21.312v660.234c0 34.312-49.78 46.782-66.154 50.876-31.312 7.812-71.876 12.376-115.184 13.032 3.562 0.062 7.094 0.094 10.688 0.094 47.278 0 91.966-4.688 125.84-13.124 16.374-4.094 66.152-16.562 66.152-50.876V299.754c0-11.782-9.562-21.312-21.342-21.312z" fill="#FFFFFF" opacity=".2" /><path d="M637.85 248.912c-33.876-8.468-78.562-13.156-125.84-13.156-47.28 0-91.998 4.688-125.874 13.156-16.342 4.094-66.124 16.53-66.124 50.842 0 34.344 49.78 46.782 66.124 50.874 33.906 8.468 78.592 13.124 125.874 13.124 47.278 0 91.966-4.656 125.84-13.124 16.374-4.092 66.152-16.53 66.152-50.874 0-34.312-49.78-46.748-66.152-50.842z" fill="#4A89DC" /><path d="M511.728 363.752h-0.032c-11.782 0-21.344-9.562-21.312-21.342l0.282-278.432c0-11.782 9.532-21.344 21.344-21.312 11.778 0 21.34 9.562 21.31 21.344l-0.282 278.432c0 11.78-9.564 21.31-21.31 21.31z" fill="#E6E9ED" /><path d="M341.326 299.754c-4.344 0-8.718-1.312-12.5-4.032-9.532-6.906-11.688-20.25-4.782-29.812l170.684-235.746c6.906-9.562 20.248-11.686 29.778-4.78 9.532 6.906 11.688 20.25 4.782 29.78L358.606 290.94a21.294 21.294 0 0 1-17.28 8.814z" fill="#CCD1D9" /><path d="M682.692 299.754a21.356 21.356 0 0 1-17.312-8.812L494.728 55.166c-6.906-9.532-4.782-22.876 4.75-29.78 9.562-6.906 22.904-4.782 29.81 4.78l170.652 235.746c6.906 9.562 4.782 22.906-4.782 29.812a21.324 21.324 0 0 1-12.466 4.03z" fill="#CCD1D9" /><path d="M426.666 0.012v21.312c0 47.062 38.28 85.342 85.342 85.342 47.028 0 85.31-38.28 85.31-85.342V0.012h-170.652z" fill="#434A54" /><path d="M618.662 661.308c0 53.094-47.75 96.154-106.654 96.154-58.906 0-106.686-43.06-106.686-96.154s47.78-96.124 106.686-96.124c58.904 0.002 106.654 43.03 106.654 96.124z" fill="#E6E9ED" /><path d="M512.008 778.804c-70.592 0-127.998-52.716-127.998-117.496 0-64.748 57.404-117.466 127.998-117.466 70.56 0 127.998 52.718 127.998 117.466 0 64.78-57.438 117.496-127.998 117.496z m0-192.274c-47.062 0-85.342 33.53-85.342 74.78s38.28 74.81 85.342 74.81c47.028 0 85.31-33.56 85.31-74.81s-38.28-74.78-85.31-74.78z" fill="#CCD1D9" /><path d="M554.662 683.214h-85.34c-11.782 0-21.312-9.562-21.312-21.344s9.532-21.344 21.312-21.344h85.34c11.782 0 21.344 9.562 21.344 21.344s-9.562 21.344-21.344 21.344z" fill="#434A54" /></svg>