<?xml version="1.0" standalone="no"?><!DOCTYPE svg PUBLIC "-//W3C//DTD SVG 1.1//EN" "http://www.w3.org/Graphics/SVG/1.1/DTD/svg11.dtd"><svg class="icon" width="128px" height="128.00px" viewBox="0 0 1024 1024" version="1.1" xmlns="http://www.w3.org/2000/svg"><path d="M256.032 1002.64c-35.312 0-63.998-28.718-63.998-64V85.326c0-35.28 28.686-63.998 63.998-63.998H768c35.308 0 63.996 28.718 63.996 63.998V938.64c0 35.282-28.688 64-63.996 64H256.032z" fill="#48CFAD" /><path d="M742.25 709.774l-1.812-0.562c-30.188-8.188-52.312-15.966-65.688-21.124-47.184-18.156-59.558-31.282-62.684-37.466a3.426 3.426 0 0 0-0.312-0.688l-0.376-57.782-201.822 2.312-0.406 55.468c-0.094 0.218-0.188 0.468-0.282 0.688-3.156 6.186-15.438 19.31-62.686 37.498-13.312 5.124-35.5 12.904-65.436 21.03l-2.032 0.624c-27.25 9.094-45.56 34.624-45.56 63.438v80.09h554.652v-80.09c0.002-28.812-18.306-54.342-45.556-63.436z" fill="#5D9CEC" /><path d="M667.624 486.594c0 102.122-97.372 200.306-157.166 200.306-59.81 0-157.15-98.186-157.15-200.306s70.372-169.494 157.15-169.494c86.796 0 157.166 67.372 157.166 169.494z" fill="#EAC6BB" /><path d="M611.754 298.632c-26.75-24.218-116.354-53.936-205.728 0-45.248 27.28-78.184 147.9-78.184 147.9s88.278 50.03 203.182-4.032c68.792-32.374 67.23-15.406 86.856 14.062 11.688 17.468 49.746 30.03 49.746 30.03s29.624-110.556-55.872-187.96z" fill="#A85D5D" /><path d="M768 0.018H256.032c-47.154 0-85.34 38.186-85.34 85.308V938.64c0 47.124 38.186 85.342 85.34 85.342H768c47.122 0 85.308-38.216 85.308-85.342V85.326C853.308 38.204 815.122 0.018 768 0.018z m42.684 938.622c0 23.532-19.188 42.656-42.684 42.656H256.032c-23.53 0-42.686-19.124-42.686-42.656V85.326c0-23.53 19.156-42.654 42.686-42.654H768c23.496 0 42.684 19.124 42.684 42.654V938.64z" fill="#434A54" /><path d="M718.5 85.326a49.9 49.9 0 0 0-35.812 15.062c-9.124-9.282-21.812-15.062-35.872-15.062-27.688 0-50.124 22.468-50.124 50.154 0 57.342 85.996 107.498 85.996 107.498s85.938-50.156 85.938-107.498c-0.002-27.686-22.438-50.154-50.126-50.154z" fill="#ED5564" /><path d="M192.034 810.644v127.996c0 35.282 28.686 64 63.998 64H768c35.308 0 63.996-28.718 63.996-64v-127.996H192.034z" fill="#434A54" /><path d="M512.022 853.3c-35.374 0-63.998 28.656-63.998 63.998s28.624 63.998 63.998 63.998c35.356 0 63.982-28.656 63.982-63.998s-28.626-63.998-63.982-63.998z m0 85.34c-11.78 0-21.342-9.562-21.342-21.342 0-11.75 9.562-21.312 21.342-21.312 11.75 0 21.314 9.562 21.314 21.312 0 11.78-9.562 21.342-21.314 21.342z" fill="#656D78" /></svg>