<?xml version="1.0" standalone="no"?><!DOCTYPE svg PUBLIC "-//W3C//DTD SVG 1.1//EN" "http://www.w3.org/Graphics/SVG/1.1/DTD/svg11.dtd"><svg class="icon" width="128px" height="128.00px" viewBox="0 0 1024 1024" version="1.1" xmlns="http://www.w3.org/2000/svg"><path d="M327.138 599.744c0 102.62-73.214 159.302-163.554 159.302-90.336 0-163.55-56.684-163.55-159.302 0-102.682 46.746-292.108 163.55-292.108 116.838 0 163.554 189.426 163.554 292.108zM675.552 599.744c0 102.62-73.212 159.302-163.55 159.302-90.308 0-163.524-56.684-163.524-159.302 0-102.682 46.716-292.108 163.524-292.108 116.834 0 163.55 189.426 163.55 292.108zM1023.968 599.744c0 102.62-73.214 159.302-163.522 159.302-90.338 0-163.552-56.684-163.552-159.302 0-102.682 46.716-292.108 163.552-292.108 116.808 0 163.522 189.426 163.522 292.108z" fill="#CCD1D9" /><path d="M327.138 557.058c0 102.62-73.214 159.304-163.554 159.304-90.336 0-163.55-56.686-163.55-159.304 0-102.68 46.746-292.106 163.55-292.106 116.838 0.002 163.554 189.426 163.554 292.106zM675.552 557.058c0 102.62-73.212 159.304-163.55 159.304-90.308 0-163.524-56.686-163.524-159.304 0-102.68 46.716-292.106 163.524-292.106 116.834 0.002 163.55 189.426 163.55 292.106zM1023.968 557.058c0 102.62-73.214 159.304-163.522 159.304-90.338 0-163.552-56.686-163.552-159.304 0-102.68 46.716-292.106 163.552-292.106 116.808 0.002 163.522 189.426 163.522 292.106z" fill="#E6E9ED" /><path d="M120.932 587.372c-11.782 0-21.344-9.562-21.344-21.312v-85.306c0-11.812 9.562-21.374 21.344-21.374h85.306c11.782 0 21.342 9.56 21.342 21.374v85.306c0 11.75-9.56 21.312-21.342 21.312H120.932z" fill="#FFCE54" /><path d="M206.238 438.066H120.932c-23.562 0-42.686 19.124-42.686 42.686v85.306c0 23.562 19.124 42.684 42.686 42.684h85.306c23.56 0 42.686-19.122 42.686-42.684v-85.306c0-23.56-19.126-42.686-42.686-42.686z m0 127.992H120.932v-85.306h85.306v85.306z" fill="#F6BB42" /><path d="M223.142 502.062H894.6v42.686H223.142z" fill="#F6BB42" /><path d="M469.346 587.372c-11.748 0-21.34-9.562-21.34-21.312v-85.306c0-11.812 9.592-21.374 21.34-21.374h85.34c11.748 0 21.31 9.56 21.31 21.374v85.306c0 11.75-9.562 21.312-21.31 21.312h-85.34z" fill="#FFCE54" /><path d="M554.686 438.066h-85.34c-23.558 0-42.652 19.124-42.652 42.686v85.306c0 23.562 19.094 42.684 42.652 42.684h85.34c23.56 0 42.654-19.122 42.654-42.684v-85.306c0-23.56-19.094-42.686-42.654-42.686z m0 127.992h-85.34v-85.306h85.34v85.306z" fill="#F6BB42" /><path d="M817.762 587.372c-11.748 0-21.31-9.562-21.31-21.312v-85.306c0-11.812 9.562-21.374 21.31-21.374h85.34c11.75 0 21.342 9.56 21.342 21.374v85.306c0 11.75-9.592 21.312-21.342 21.312h-85.34z" fill="#FFCE54" /><path d="M903.102 438.066h-85.34c-23.558 0-42.652 19.124-42.652 42.686v85.306c0 23.562 19.094 42.684 42.652 42.684h85.34c23.56 0 42.652-19.122 42.652-42.684v-85.306c0-23.56-19.092-42.686-42.652-42.686z m0 127.992h-85.34v-85.306h85.34v85.306z" fill="#F6BB42" /></svg>