<?xml version="1.0" standalone="no"?><!DOCTYPE svg PUBLIC "-//W3C//DTD SVG 1.1//EN" "http://www.w3.org/Graphics/SVG/1.1/DTD/svg11.dtd"><svg class="icon" width="128px" height="128.00px" viewBox="0 0 1024 1024" version="1.1" xmlns="http://www.w3.org/2000/svg"><path d="M434.452 456.014l-135.614 384.356h85.262l-42.624 170.52L639.9 712.468h-85.246l170.524-256.454z" fill="#FFCE54" /><path d="M437.996 623.068c-50.68 0-97.424-23.136-128.244-63.45l-7.962-10.398-12.866 2.374a120.04 120.04 0 0 1-21.654 1.998c-64.872 0-117.642-52.77-117.642-117.64 0-38.048 18.548-73.928 49.618-96.004l9.12-6.462-0.156-12.196c-0.016-0.482-0.016-0.982-0.016-1.466 0-109.21 88.836-198.048 198.032-198.048 5.278 0 10.696 0.218 16.114 0.656l11.724 0.938 7.042-9.416c18.08-24.152 41.782-44.168 68.556-57.876 28.04-14.364 58.36-21.638 90.118-21.638 34.566 0 68.57 9.026 98.36 26.106 28.916 16.58 53.366 40.39 70.79 68.852l4.902 8.056 9.274 1.764c93.052 17.784 160.624 99.578 160.624 194.504 0 11.57-1 23.186-2.996 34.522l-2.406 13.692 11.586 7.728c32.786 21.904 52.396 58.518 52.396 97.908 0 64.872-52.772 117.642-117.658 117.642a117.668 117.668 0 0 1-76.628-28.384l-13.614-11.678-13.832 11.366c-28.76 23.608-65.106 36.626-102.39 36.626-37.156 0-72.128-12.3-101.044-35.564l-14.522-11.708-13.52 12.832c-30.124 28.596-69.576 44.364-111.106 44.364z" fill="#EC87C0" /><path d="M961.71 371.922a220.044 220.044 0 0 0 3.342-38.206c0-106.994-76.598-196.08-177.956-215.44-38.534-63.06-108.01-105.168-187.322-105.168-71.914 0-135.738 34.614-175.738 88.07a225.182 225.182 0 0 0-17.814-0.716c-121.138 0-219.36 98.204-219.36 219.36 0 0.922 0.032 1.826 0.046 2.748-35.472 25.184-58.61 66.572-58.61 113.38 0 76.736 62.216 138.938 138.968 138.938 8.728 0 17.268-0.812 25.542-2.31 33.364 43.652 85.978 71.818 145.184 71.818 48.742 0 93.022-19.11 125.776-50.21 31.29 25.168 71.102 40.282 114.41 40.282 44.03 0 84.372-15.55 115.91-41.5 24.324 20.922 55.958 33.568 90.554 33.568 76.752 0 138.954-62.232 138.954-138.968 0.004-48.23-24.57-90.728-61.886-115.646zM884.646 583.88a96.336 96.336 0 0 1-62.764-23.23l-27.166-23.374-27.666 22.748c-25.324 20.796-56.018 31.788-88.87 31.788-32.286 0-62.574-10.68-87.68-30.85l-29.042-23.388-27.056 25.698c-26.12 24.792-60.36 38.47-96.408 38.47-22.202 0-43.42-4.996-63.044-14.926-18.768-9.492-35.458-23.388-48.276-40.156l-15.892-20.794-25.762 4.778c-5.84 1.076-11.802 1.638-17.752 1.638-53.116 0-96.33-43.216-96.33-96.33 0-31.148 15.19-60.546 40.654-78.612l18.22-12.958-0.282-22.358-0.016-1.092c0-0.36-0.016-0.734-0.016-1.11 0-47.212 18.392-91.584 51.756-124.964 33.38-33.38 77.768-51.772 124.964-51.772 4.716 0 9.572 0.204 14.412 0.592l23.45 1.876 14.084-18.83c16.142-21.576 37.314-39.438 61.202-51.678 25.012-12.802 52.084-19.296 80.406-19.296 30.852 0 61.172 8.054 87.742 23.278a177.938 177.938 0 0 1 63.204 61.484l9.836 16.096 18.546 3.544c83.06 15.862 143.324 88.868 143.324 173.566 0 10.336-0.936 20.718-2.684 30.836l-4.808 27.384 23.106 15.442c26.886 17.956 42.938 47.932 42.938 80.188 0.002 53.114-43.216 96.312-96.33 96.312z" fill="#D770AD" /><path d="M818.76 221.368c-1.81-36.518-12.522-70.694-30.04-100.374h-51.772c23.264 28.586 36.876 63.386 39.126 100.374h42.686z" fill="#D770AD" /><path d="M310.096 687.832c-50.68 0-97.424-23.138-128.244-63.482l-7.962-10.368-12.864 2.374a119.898 119.898 0 0 1-21.656 1.998c-64.872 0-117.642-52.77-117.642-117.656 0-38.034 18.548-73.928 49.618-95.988l9.12-6.478-0.156-12.196c-0.016-0.482-0.016-0.966-0.016-1.466 0-109.196 88.836-198.034 198.034-198.034 5.292 0 10.708 0.218 16.112 0.656l11.724 0.938 7.042-9.416c18.078-24.168 41.78-44.184 68.554-57.89 28.042-14.366 58.362-21.64 90.118-21.64 34.566 0 68.572 9.026 98.362 26.106 28.914 16.58 53.364 40.39 70.79 68.852l4.902 8.056 9.274 1.78c93.05 17.784 160.624 99.578 160.624 194.49 0 11.584-1 23.2-3 34.536l-2.402 13.692 11.584 7.712c32.788 21.92 52.396 58.516 52.396 97.908 0 64.856-52.772 117.626-117.658 117.626-28.104 0-55.332-10.054-76.626-28.384l-13.616-11.678-13.834 11.396c-28.758 23.608-65.106 36.628-102.386 36.628-37.174 0-72.13-12.302-101.046-35.566l-14.536-11.708-13.522 12.832c-30.106 28.6-69.56 44.37-111.088 44.37z" fill="#EC87C0" /><path d="M833.81 436.684a220.02 220.02 0 0 0 3.342-38.218c0-106.98-76.596-196.066-177.956-215.442-38.532-63.06-108.01-105.152-187.322-105.152-71.912 0-135.738 34.598-175.738 88.072a216.86 216.86 0 0 0-17.812-0.734c-121.14 0-219.362 98.22-219.362 219.36 0 0.922 0.032 1.842 0.046 2.764C23.538 412.5 0.4 453.904 0.4 500.698c0 76.752 62.216 138.954 138.968 138.954a140.4 140.4 0 0 0 25.542-2.342c33.366 43.686 85.98 71.85 145.184 71.85 48.742 0 93.022-19.11 125.778-50.242 31.302 25.2 71.1 40.312 114.41 40.312 44.028 0 84.372-15.582 115.908-41.498 24.326 20.888 55.958 33.566 90.554 33.566 76.752 0 138.956-62.232 138.956-138.984 0.002-48.23-24.576-90.712-61.89-115.63z m-77.064 211.958a96.336 96.336 0 0 1-62.764-23.23l-27.166-23.388-27.666 22.764c-25.324 20.796-56.02 31.788-88.868 31.788-32.258 0-62.592-10.678-87.682-30.85l-29.054-23.42-27.042 25.728c-26.12 24.794-60.36 38.47-96.408 38.47-22.202 0-43.42-5.028-63.044-14.958-18.766-9.46-35.458-23.358-48.276-40.124l-15.892-20.794-25.762 4.778a96.72 96.72 0 0 1-17.752 1.624c-53.116 0-96.33-43.216-96.33-96.33 0-31.148 15.192-60.532 40.654-78.612l18.22-12.944-0.282-22.358-0.016-1.092c0-0.376-0.016-0.75-0.016-1.124 0-47.198 18.392-91.584 51.758-124.964 33.378-33.38 77.766-51.756 124.964-51.756 4.73 0 9.57 0.204 14.394 0.578l23.45 1.888 14.1-18.83c16.142-21.576 37.314-39.454 61.202-51.678 25.012-12.818 52.07-19.312 80.406-19.312 30.852 0 61.186 8.054 87.744 23.292a177.866 177.866 0 0 1 63.2 61.468l9.836 16.112 18.548 3.544c83.06 15.864 143.326 88.852 143.326 173.552a181.6 181.6 0 0 1-2.686 30.834l-4.808 27.384 23.108 15.458c26.884 17.94 42.934 47.916 42.934 80.172 0 53.116-43.214 96.33-96.33 96.33z" fill="#D770AD" /><path d="M660.572 552.532c0-11.118 1.934-21.81 5.402-31.756H621.6a139.898 139.898 0 0 0-3.654 31.756c0 41.466 18.142 78.688 46.964 104.106l35.098-26.448c-23.886-17.55-39.436-45.81-39.436-77.658zM306.55 166.52v43.03c36.52 5.808 70.18 22.888 96.832 49.54a179.92 179.92 0 0 1 22.124 26.902h49.164c-32.006-63.938-94.332-110.026-168.12-119.472zM690.862 286.114c-1.812-36.518-12.524-70.678-30.04-100.358h-51.774c23.264 28.586 36.878 63.386 39.124 100.358h42.69zM188.192 456.652H140.854c-8.838 21.422-13.708 44.886-13.708 69.492 0 47.744 18.33 91.21 48.338 123.748l27.948-32.662c-21.766-25.356-33.646-57.33-33.646-91.086-0.002-24.776 6.398-48.57 18.406-69.492z" fill="#D770AD" /></svg>