<?xml version="1.0" standalone="no"?><!DOCTYPE svg PUBLIC "-//W3C//DTD SVG 1.1//EN" "http://www.w3.org/Graphics/SVG/1.1/DTD/svg11.dtd"><svg class="icon" width="128px" height="128.00px" viewBox="0 0 1024 1024" version="1.1" xmlns="http://www.w3.org/2000/svg"><path d="M822.176 647.602c-9.554-2.718-28.012 18.426-32.542 9.18-2.374-4.808-0.25-26.702 6.558-52.684-36.976-22.83-63.272-61.336-69.518-106.246-0.812 0.562-1.624 1.124-2.406 1.686-44.314 63.928-77.23 175.45-84.352 179.416-8.244 4.624-76.7 3.466-127.808 3.466H512c-51.108 0-119.58 1.156-127.808-3.466-7.12-3.966-39.958-115.332-84.244-179.292-0.874-0.594-1.75-1.188-2.608-1.812-6.278 44.878-32.496 83.352-69.424 106.182 6.808 26.014 8.932 47.938 6.558 52.746-4.528 9.246-23-11.898-32.556-9.18-9.572 2.714-54.84 96.344-52.248 108.868 2.608 12.492 216.252 40.38 362.33 40.38h0.108c146.078 0 359.722-27.888 362.348-40.38 2.56-12.52-42.69-106.15-52.28-108.864z" fill="#DCE1E5" /><path d="M512.11 754.218h-0.108c-126.434-0.03-303.462-20.892-350.494-34.632-7.526 17.458-12.758 32.384-11.836 36.882 2.608 12.492 216.252 40.38 362.33 40.38h0.108c146.078 0 359.722-27.888 362.348-40.38 0.936-4.498-4.312-19.426-11.87-36.882-47.034 13.74-224.046 34.604-350.478 34.632z" opacity=".1" /><path d="M149.56 327.774c-82.416 0-149.232 66.802-149.232 149.218 0 82.446 66.816 149.248 149.232 149.248 82.432 0 149.248-66.8 149.248-149.248 0-82.416-66.816-149.218-149.248-149.218z m0 255.836c-58.776 0-106.588-47.812-106.588-106.618 0-58.774 47.812-106.588 106.588-106.588 58.79 0 106.604 47.814 106.604 106.588 0 58.804-47.814 106.618-106.604 106.618zM874.458 327.774c-82.45 0-149.282 66.802-149.282 149.218 0 82.446 66.832 149.248 149.282 149.248 82.382 0 149.214-66.8 149.214-149.248 0-82.416-66.832-149.218-149.214-149.218z m0 255.836c-58.808 0-106.622-47.812-106.622-106.618 0-58.774 47.812-106.588 106.622-106.588 58.774 0 106.554 47.814 106.554 106.588 0 58.804-47.782 106.618-106.554 106.618z" fill="#E6E9ED" /><path d="M384.082 227.15c-82.416 0-149.232 66.832-149.232 149.248s66.816 149.25 149.232 149.25 149.232-66.834 149.232-149.25-66.816-149.248-149.232-149.248z m0 255.838c-58.774 0-106.604-47.814-106.604-106.588 0-58.774 47.83-106.588 106.604-106.588 58.776 0 106.604 47.814 106.604 106.588 0 58.774-47.828 106.588-106.604 106.588z" fill="#E6E9ED" /><path d="M639.918 227.15c-82.416 0-149.232 66.832-149.232 149.248s66.816 149.25 149.232 149.25 149.218-66.834 149.218-149.25-66.802-149.248-149.218-149.248z m0 255.838c-58.774 0-106.604-47.814-106.604-106.588 0-58.774 47.83-106.588 106.604-106.588 58.776 0 106.622 47.814 106.622 106.588 0 58.774-47.846 106.588-106.622 106.588z" fill="#E6E9ED" /></svg>