<?xml version="1.0" standalone="no"?><!DOCTYPE svg PUBLIC "-//W3C//DTD SVG 1.1//EN" "http://www.w3.org/Graphics/SVG/1.1/DTD/svg11.dtd"><svg class="icon" width="128px" height="128.00px" viewBox="0 0 1024 1024" version="1.1" xmlns="http://www.w3.org/2000/svg"><path d="M677.996 263.95l0.124 0.14c-0.062-0.062-5.094-6.578-7.25-14.952-2.25-8.672-0.562-15.014 5.624-21.218 17.312-17.39 23.062-39.984 16.124-63.624-4.624-15.86-13.562-27.062-14.75-28.5 0-0.016-0.032-0.016-0.032-0.032-0.032 0-0.032-0.016-0.032-0.032a21.268 21.268 0 0 0-16.438-7.718c-11.75 0-21.312 9.546-21.312 21.328 0 5.14 1.812 9.86 4.844 13.546l-0.062-0.078c0.032 0.062 4.968 6.312 7.094 14.358 2.188 8.296 0.5 14.468-5.688 20.64-17.25 17.344-23 40.078-16.124 63.998 4.624 16.188 13.624 27.672 14.656 28.922a21.302 21.302 0 0 0 16.594 7.954c11.812 0 21.344-9.562 21.344-21.344 0-5.062-1.782-9.718-4.718-13.376v-0.012z m-33.062-101.014c0 0.016 0 0.016 0.032 0.016l-0.032-0.016zM548.938 93.36c-6.36-23.874-18.624-40.452-20-42.264l-0.016 0.016a21.266 21.266 0 0 0-16.954-8.422c-11.782 0-21.344 9.546-21.344 21.328 0 4.812 1.624 9.234 4.312 12.812l-0.016 0.016c0.078 0.124 8.968 12.204 13.078 28.624 4.906 19.672 0.968 36.39-12.016 51.078-22.796 25.78-30.046 57.406-21 91.452 6.36 23.89 18.624 40.452 20 42.264l0.016-0.016c3.906 5.11 10.032 8.438 16.968 8.438 11.782 0 21.328-9.562 21.328-21.344 0-4.812-1.61-9.234-4.312-12.812l0.016-0.016c-0.078-0.11-8.968-12.186-13.078-28.624-4.906-19.67-0.968-36.374 12.016-51.078 22.812-25.782 30.062-57.39 21.002-91.452zM393.876 164.296c-4.64-15.86-13.594-27.062-14.766-28.5l-0.032-0.032-0.032-0.032a21.258 21.258 0 0 0-16.42-7.718c-11.782 0-21.328 9.546-21.328 21.328 0 5.156 1.812 9.876 4.86 13.546l-0.078-0.078c0.046 0.062 4.984 6.312 7.094 14.358 2.172 8.296 0.484 14.468-5.656 20.64-17.296 17.344-23.032 40.078-16.172 63.998 4.656 16.188 13.656 27.672 14.672 28.922h0.016a21.278 21.278 0 0 0 16.594 7.954c11.78 0 21.342-9.562 21.342-21.344 0-5.062-1.782-9.718-4.734-13.376v-0.016l0.11 0.14c-0.046-0.062-5.062-6.578-7.234-14.952-2.234-8.672-0.546-15.014 5.64-21.218 17.312-17.386 23.046-39.98 16.124-63.62z m-47.684-1.36l0.016 0.016-0.016-0.016z" fill="#E6E9ED" /><path d="M1023.988 725.314c0 234.684-229.214 255.996-511.972 255.996C229.24 981.31 0.012 959.998 0.012 725.314c0-176.684 229.228-341.304 512.004-341.304 282.758 0 511.972 164.62 511.972 341.304z" fill="#A85D5D" /><path d="M730.652 590.256h0.032a21.26 21.26 0 0 0 15.998 7.25c11.75 0 21.312-9.562 21.312-21.312 0-5.438-2-10.344-5.312-14.124-45.904-52.124-100.374-95.044-161.936-127.544a599.046 599.046 0 0 0-24.624-12.266 583.64 583.64 0 0 1 14.188-3.296c35.31-7.734 68.498-11.64 96.03-13.342-43.124-11.016-88.968-18.14-136.592-20.624a650.174 650.174 0 0 0-37.732 11.484 654.098 654.098 0 0 0-37.75-11.484c-47.624 2.484-93.436 9.61-136.542 20.61 25.954 1.562 58.388 5.218 94.498 13.03 5.266 1.14 10.484 2.36 15.688 3.624-8.328 3.922-16.562 8-24.64 12.266-61.544 32.5-116.03 75.42-161.934 127.544h0.016a21.31 21.31 0 0 0-5.328 14.124c0 11.75 9.546 21.312 21.326 21.312 6.376 0 12.078-2.812 16-7.25h0.016c42.25-47.984 92.388-87.544 148.998-117.56 22.232-11.796 45.498-22.124 69.638-30.984 23.844 8.75 46.842 18.938 68.81 30.546 56.966 30.076 107.372 69.778 149.84 117.996zM192.022 931.998c-10.154 0-18.638 7.094-20.794 16.594 13.154 4.094 26.904 7.688 41.232 10.844 0.562-1.938 0.89-4 0.89-6.124 0-11.752-9.548-21.314-21.328-21.314zM320.02 953.31c-11.204 0-20.376 8.656-21.25 19.624 13.844 1.468 28 2.688 42.468 3.688 0.062-0.624 0.11-1.312 0.11-1.938 0-11.81-9.548-21.374-21.328-21.374zM426.72 980.436c14.016 0.344 28.234 0.562 42.608 0.688-0.094-11.688-9.61-21.124-21.31-21.124-11.484-0.002-20.828 9.06-21.298 20.436zM595.746 980.498c-0.438-11.406-9.78-20.5-21.28-20.5-11.718 0-21.218 9.438-21.344 21.156 14.376-0.124 28.626-0.344 42.624-0.656zM703.996 953.31c-11.75 0-21.312 9.562-21.312 21.376 0 0.624 0.032 1.312 0.094 1.938 14.468-1 28.656-2.218 42.468-3.688-0.874-10.97-10.062-19.626-21.25-19.626zM831.992 931.998c-11.75 0-21.312 9.562-21.312 21.312 0 2.124 0.312 4.188 0.876 6.124 14.312-3.156 28.062-6.75 41.25-10.844-2.188-9.498-10.658-16.592-20.814-16.592z" fill="#965353" /><path d="M512.016 426.68c272.79 0 495.722 153.2 511.128 322.696 0.562-7.75 0.844-15.75 0.844-24.062 0-176.684-229.214-341.304-511.972-341.304C229.24 384.01 0.012 548.632 0.012 725.314c0 8.312 0.294 16.312 0.858 24.062C16.26 579.88 239.208 426.68 512.016 426.68z" fill="#FFFFFF" opacity=".1" /></svg>