<?xml version="1.0" standalone="no"?><!DOCTYPE svg PUBLIC "-//W3C//DTD SVG 1.1//EN" "http://www.w3.org/Graphics/SVG/1.1/DTD/svg11.dtd"><svg class="icon" width="128px" height="128.00px" viewBox="0 0 1024 1024" version="1.1" xmlns="http://www.w3.org/2000/svg"><path d="M512 490.666C229.256 490.666 0.012 581.71 0.012 746.676c0 0 0 127.996 127.996 127.996h767.984c127.996 0 127.996-127.996 127.996-127.996 0-164.966-229.214-256.01-511.988-256.01z" fill="#F4BE8E" /><path d="M853.336 853.298c-11.782 0-21.344 9.562-21.344 21.374h42.688c0-11.81-9.562-21.374-21.344-21.374zM767.994 853.298c-11.782 0-21.312 9.562-21.312 21.374h42.654c0-11.81-9.562-21.374-21.342-21.374zM682.684 853.298c-11.782 0-21.344 9.562-21.344 21.374h42.656c0-11.81-9.532-21.374-21.312-21.374zM597.34 853.298c-11.78 0-21.342 9.562-21.342 21.374h42.686c0-11.81-9.562-21.374-21.344-21.374zM512 853.298c-11.782 0-21.312 9.562-21.312 21.374h42.656c0-11.81-9.562-21.374-21.344-21.374zM426.69 853.298c-11.782 0-21.344 9.562-21.344 21.374h42.656c0-11.81-9.532-21.374-21.312-21.374zM341.348 853.298c-11.782 0-21.344 9.562-21.344 21.374h42.688c0-11.81-9.564-21.374-21.344-21.374zM256.006 853.298c-11.782 0-21.312 9.562-21.312 21.374h42.654c0-11.81-9.56-21.374-21.342-21.374zM170.696 853.298c-11.782 0-21.344 9.562-21.344 21.374h42.654c0-11.81-9.53-21.374-21.31-21.374zM300.942 606.868c3.532 7 10.718 11.812 19.062 11.812 11.782 0 21.344-9.562 21.344-21.376a21.22 21.22 0 0 0-2.282-9.532h0.032c-0.25-0.468-19.624-40.218-1.624-84.452a915.03 915.03 0 0 0-47.124 8.498c-10.846 51.174 9.466 92.8 10.592 95.05zM512 490.666c-15.188 0-30.218 0.266-45.062 0.782-22.374 60.044 3.376 112.888 4.656 115.42h0.032c3.5 7 10.718 11.812 19.062 11.812 11.782 0 21.312-9.562 21.312-21.376 0-3.438-0.812-6.656-2.282-9.532h0.032c-0.25-0.5-23.468-48.124 4.562-97.108l-2.312 0.002zM635.714 496.822c-18.968 57.794 5.312 107.608 6.562 110.044 3.5 7 10.718 11.812 19.062 11.812 11.782 0 21.344-9.562 21.344-21.376a21.22 21.22 0 0 0-2.282-9.532c-0.218-0.468-19.938-40.906-1.156-85.544a1031.962 1031.962 0 0 0-43.53-5.404z" fill="#EAAD7A" /><path d="M656.652 370.606l0.124 0.14c-0.062-0.062-5.094-6.594-7.25-14.968-2.218-8.656-0.532-15.016 5.624-21.218 17.344-17.388 23.062-39.982 16.156-63.608-4.656-15.876-13.594-27.062-14.782-28.5 0-0.016-0.032-0.032-0.032-0.032 0-0.016 0-0.032-0.032-0.032a21.248 21.248 0 0 0-16.406-7.716c-11.782 0-21.344 9.544-21.344 21.326 0 5.172 1.844 9.922 4.906 13.61 0.062 0.062 4.562 5.876 6.718 13.328 2.562 8.704 0.938 15.14-5.406 21.516-17.282 17.36-23.032 40.092-16.156 63.998 4.656 16.204 13.656 27.688 14.656 28.938 3.938 4.844 9.906 7.938 16.624 7.938 11.782 0 21.312-9.546 21.312-21.328 0-5.078-1.75-9.718-4.718-13.376v-0.016zM527.594 200.016c-6.344-23.89-18.594-40.454-20-42.266v0.016c-3.906-5.124-10.032-8.438-16.968-8.438-11.782 0-21.344 9.562-21.344 21.344 0 4.812 1.624 9.234 4.312 12.812v0.016c0.094 0.11 8.968 12.188 13.062 28.624 4.906 19.672 0.968 36.374-12 51.076-22.81 25.782-30.06 57.39-20.998 91.452 6.342 23.876 18.624 40.454 19.998 42.266v-0.016c3.906 5.11 10.032 8.422 16.968 8.422 11.782 0 21.344-9.546 21.344-21.328a21.22 21.22 0 0 0-4.312-12.812l0.032-0.016c-0.094-0.124-9-12.204-13.094-28.624-4.906-19.686-0.968-36.388 12.032-51.076 22.78-25.782 30.03-57.406 20.968-91.452zM372.534 270.952c-4.624-15.876-13.592-27.062-14.748-28.5-0.032-0.016-0.032-0.032-0.032-0.032 0-0.016-0.032-0.032-0.032-0.032a21.266 21.266 0 0 0-16.438-7.716c-11.782 0-21.312 9.544-21.312 21.326 0 5.172 1.844 9.922 4.906 13.61 0.032 0.062 4.532 5.876 6.718 13.328 2.562 8.704 0.938 15.14-5.406 21.516-17.282 17.36-23.032 40.092-16.188 63.998 4.656 16.204 13.688 27.688 14.688 28.938a21.288 21.288 0 0 0 16.594 7.938c11.782 0 21.344-9.546 21.344-21.328 0-5.078-1.782-9.718-4.718-13.376v-0.016l0.094 0.14c-0.032-0.062-5.062-6.594-7.218-14.968-2.25-8.656-0.562-15.016 5.624-21.218 17.31-17.39 23.06-39.984 16.124-63.608z" fill="#E6E9ED" /><path d="M512 533.32c268.524 0 488.77 82.11 510.27 231.668 1.718-11.062 1.718-18.312 1.718-18.312 0-164.964-229.214-256.01-511.988-256.01C229.256 490.666 0.012 581.71 0.012 746.676c0 0 0 7.25 1.748 18.312C23.26 615.43 243.474 533.32 512 533.32z" fill="#FFFFFF" opacity=".2" /></svg>