<?xml version="1.0" standalone="no"?><!DOCTYPE svg PUBLIC "-//W3C//DTD SVG 1.1//EN" "http://www.w3.org/Graphics/SVG/1.1/DTD/svg11.dtd"><svg class="icon" width="128px" height="128.00px" viewBox="0 0 1024 1024" version="1.1" xmlns="http://www.w3.org/2000/svg"><path d="M1023.99 240.004c0 47.124-229.214 85.342-511.99 85.342-282.744 0-511.99-38.218-511.99-85.342S229.256 154.662 512 154.662c282.776 0 511.99 38.218 511.99 85.342z" fill="#CBD0D8" /><path d="M412.034 120.726c-71.5 71.498-119.998 225.214-55.124 290.12 64.906 64.904 218.62 16.406 290.12-55.092 71.498-71.53 76.874-182.09 11.968-246.996-64.906-64.874-175.466-59.53-246.964 11.968z" fill="#7F4545" /><path d="M65.852 194.63a44.916 44.916 0 0 1-29.032 3.656 44.52 44.52 0 0 1-17.062-7.5C-0.458 176.318-5.084 148.1 9.384 127.914a45.054 45.054 0 0 1 19.342-15.344 44.676 44.676 0 0 1 8.344-23.25c10.376-14.468 28.344-21.468 45.812-17.844a44.936 44.936 0 0 1 17.062 7.5c13.906 10 20.468 26.5 18.406 42.406l118.56 85.03L184.38 279.66 65.852 194.63z" fill="#E5E8EC" /><path d="M449.97 210.194c-82.186-58.936-241.746-81.842-295.244-7.25-53.468 74.592 19.376 218.372 101.53 277.306 82.186 58.938 192.152 46.25 245.652-28.312 53.466-74.592 30.216-182.84-51.938-241.744z" fill="#965353" /><path d="M756.776 200.788l94.812-119.624a45.644 45.644 0 0 1-3.718-13.594c-1.438-12.282 2-24.374 9.688-34.03 8.812-11.156 22.032-17.53 36.25-17.53a46.54 46.54 0 0 1 28.716 10 46.188 46.188 0 0 1 15 21.188 46.572 46.572 0 0 1 24.03 9.75c19.968 15.844 23.344 44.968 7.5 64.968-8.812 11.124-22.03 17.5-36.248 17.5-2.938 0-5.876-0.282-8.75-0.812l-94.842 119.622-72.438-57.438z" fill="#E5E8EC" /><path d="M814.712 482.812c65.906-83.154 97.936-249.246 22.468-309.056-75.468-59.81-229.872 9.282-295.778 92.436-65.904 83.156-58.154 199.058 17.312 258.872 75.502 59.81 190.092 40.902 255.998-42.252z" fill="#A85D5D" /><path d="M512 325.348c-272.246 0-494.866-35.438-511.022-80.124l127.03 698.768c0 35.344 171.934 63.998 383.992 63.998 212.09 0 383.992-28.654 383.992-63.998l127.06-698.768c-16.186 44.686-238.776 80.124-511.052 80.124z" fill="#ED5564" /><path d="M974.678 276.598l-121.34 667.394c0 34.156-160.53 62.06-362.65 63.904 7.062 0.062 14.156 0.094 21.312 0.094 212.09 0 383.992-28.654 383.992-63.998l127.06-698.768c-4.03 11.154-20.968 21.748-48.374 31.374zM469.344 325.348c7.156 0 14.25-0.032 21.342-0.094-262.494-1.782-473.99-36.5-489.708-80.03l5.688 31.374c82.186 28.812 258.464 48.75 462.678 48.75z" fill="#FFFFFF" opacity=".2" /><path d="M231.412 987.678c47.594 8.468 108.842 14.812 177.934 18l-21.562-682.862c-86.216-3.594-163.808-10.812-226.526-20.656l70.154 685.518zM606.686 1006.022c68.468-2.876 129.592-8.844 177.84-16.938l71.406-685.862c-63.124 9.532-140.624 16.5-226.464 19.844l-22.782 682.956z" fill="#E5E8EC" /><path d="M508.094 751.996c-104.124 0-192.09-48.844-192.09-106.656 0-57.842 87.966-106.684 192.09-106.684s192.058 48.842 192.058 106.684c0 57.812-87.936 106.656-192.058 106.656z" fill="#E5E8EC" /><path d="M508.094 517.344c-117.874 0-213.402 57.28-213.402 127.996 0 70.688 95.53 128 213.402 128 117.842 0 213.402-57.312 213.402-128 0-70.716-95.56-127.996-213.402-127.996z m128.936 181.902c-33.282 19.968-80.282 31.406-128.936 31.406-48.686 0-95.686-11.438-128.966-31.406-26.562-15.938-41.782-35.562-41.782-53.906 0-18.342 15.218-37.998 41.782-53.936 33.28-19.968 80.28-31.404 128.966-31.404 48.654 0 95.654 11.436 128.936 31.404 26.562 15.938 41.812 35.594 41.812 53.936 0 18.344-15.25 37.968-41.812 53.906z" fill="#ED5564" /><path d="M614.686 645.34c0-11.78-9.562-21.342-21.344-21.342H422.688h-0.032c-11.75 0-21.312 9.562-21.312 21.342 0 11.782 9.562 21.312 21.312 21.312h170.684c11.784 0 21.346-9.53 21.346-21.312z" fill="#424953" /></svg>