<?xml version="1.0" standalone="no"?><!DOCTYPE svg PUBLIC "-//W3C//DTD SVG 1.1//EN" "http://www.w3.org/Graphics/SVG/1.1/DTD/svg11.dtd"><svg class="icon" width="128px" height="128.00px" viewBox="0 0 1024 1024" version="1.1" xmlns="http://www.w3.org/2000/svg"><path d="M533.344 512c0 147.276-119.404 266.648-266.682 266.648C119.416 778.648 0.012 659.278 0.012 512c0-147.278 119.402-266.65 266.65-266.65 147.278 0 266.682 119.374 266.682 266.65z" fill="#EAC6BB" /><path d="M266.662 245.35c-7.156 0-14.282 0.282-21.312 0.844 137.278 10.876 245.306 125.716 245.306 265.806 0 140.088-108.028 254.928-245.306 265.804 7.032 0.562 14.156 0.844 21.312 0.844 147.278 0 266.682-119.372 266.682-266.648S413.94 245.35 266.662 245.35z" fill="#DBADA2" /><path d="M234.664 607.996c-35.282 0-64-28.714-64-63.996 0-35.28 28.718-64 64-64 35.312 0 63.998 28.718 63.998 64s-28.688 63.996-63.998 63.996z" fill="#D770AD" /><path d="M256.006 544c0 11.782-9.562 21.344-21.342 21.344-11.782 0-21.312-9.562-21.312-21.344s9.532-21.344 21.312-21.344c11.78 0 21.342 9.562 21.342 21.344z" fill="#EC87C0" /><path d="M490.656 512c0 147.276 119.402 266.648 266.68 266.648 147.246 0 266.652-119.372 266.652-266.648 0-147.278-119.406-266.65-266.652-266.65-147.278 0-266.68 119.374-266.68 266.65z" fill="#EAC6BB" /><path d="M533.344 512c0-140.09 108.028-254.932 245.304-265.806a267.794 267.794 0 0 0-21.312-0.844c-147.278 0-266.68 119.374-266.68 266.65 0 147.276 119.402 266.648 266.68 266.648 7.156 0 14.282-0.282 21.312-0.844-137.276-10.874-245.304-125.714-245.304-265.804z" fill="#DBADA2" /><path d="M789.336 607.996c-35.312 0-64-28.714-64-63.996 0-35.28 28.688-64 64-64 35.282 0 64 28.718 64 64s-28.718 63.996-64 63.996z" fill="#D770AD" /><path d="M234.664 458.658c-47.124 0-85.31 38.218-85.31 85.342 0 47.124 38.186 85.34 85.31 85.34s85.34-38.214 85.34-85.34c0-47.124-38.218-85.342-85.34-85.342z m0 127.998c-23.532 0-42.656-19.124-42.656-42.656s19.124-42.656 42.656-42.656c23.53 0 42.686 19.124 42.686 42.656s-19.156 42.656-42.686 42.656zM789.336 458.658c-47.124 0-85.34 38.218-85.34 85.342 0 47.124 38.214 85.34 85.34 85.34s85.308-38.214 85.308-85.34c0-47.124-38.184-85.342-85.308-85.342z m0 127.998c-23.532 0-42.688-19.124-42.688-42.656s19.156-42.656 42.688-42.656 42.656 19.124 42.656 42.656-19.124 42.656-42.656 42.656z" fill="#EC87C0" /><path d="M767.992 544c0 11.782 9.562 21.344 21.344 21.344s21.312-9.562 21.312-21.344-9.532-21.344-21.312-21.344-21.344 9.562-21.344 21.344z" fill="#EC87C0" /></svg>