<?xml version="1.0" standalone="no"?><!DOCTYPE svg PUBLIC "-//W3C//DTD SVG 1.1//EN" "http://www.w3.org/Graphics/SVG/1.1/DTD/svg11.dtd"><svg class="icon" width="128px" height="128.00px" viewBox="0 0 1024 1024" version="1.1" xmlns="http://www.w3.org/2000/svg"><path d="M639.992 732.002v-170.684H533.34v-170.668H21.322v512.034h768.008v-170.682z" fill="#EC5564" /><path d="M661.336 710.69v-170.7h-106.652V369.34H0.01V923.996h810.664V710.69h-149.338z m-42.656-127.996v127.996H405.342v-127.996H618.68z m-469.362 0h213.368v127.996H149.318v-127.996z m149.372-170.7h213.306v127.996H298.69v-127.996z m-256.024 0h213.338v127.996H42.666v-127.996z m0 170.7h63.998v127.996H42.666v-127.996z m213.336 298.614H42.666v-127.994h213.338v127.994z m255.994 0H298.69v-127.994H511.996v127.994z m255.992 0H554.684v-127.994h213.304v127.994z" fill="#D94452" /><path d="M706.868 388.026c-37.188 0-74.25-15.748-101.75-43.216-32.748-32.78-49.496-97.278-55.184-123.496-4.812-22.218-7.812-44.282-8.438-62.124-0.876-24.438 2.562-39.188 11.218-47.81 7.842-7.876 20.466-11.376 40.936-11.376 26.748 0 64.592 6.188 98.748 16.092 29.624 8.624 69.934 23.876 93.744 47.688 26 25.998 41.282 59.78 43.062 95.06 1.812 36.092-10.656 69.436-35.156 93.902-22.748 22.75-53.714 35.28-87.18 35.28z" fill="#E5E8EC" /><path d="M824.236 413.056L733.74 322.56c-8.344-8.344-8.344-21.844 0-30.156 8.312-8.344 21.81-8.344 30.154 0l90.53 90.496c8.312 8.344-26 34.344-30.188 30.156z" fill="#CCD1D9" /><path d="M1005.264 473.398l-135.778-135.744-90.498 90.496 135.746 135.792c12.124 12.062 28.186 18.75 45.248 18.75 17.124 0 33.188-6.688 45.282-18.75 24.968-24.984 24.968-65.574 0-90.544z" fill="#FECD57" /></svg>