<?xml version="1.0" standalone="no"?><!DOCTYPE svg PUBLIC "-//W3C//DTD SVG 1.1//EN" "http://www.w3.org/Graphics/SVG/1.1/DTD/svg11.dtd"><svg class="icon" width="128px" height="128.00px" viewBox="0 0 1024 1024" version="1.1" xmlns="http://www.w3.org/2000/svg"><path d="M512 607.988c-11.782 0-21.328-9.562-21.328-21.31v-106.686c0-11.78 9.546-21.326 21.328-21.326s21.328 9.546 21.328 21.326v106.686c0 11.748-9.546 21.31-21.328 21.31zM597.308 607.988c-11.75 0-21.312-9.562-21.312-21.31V470.76c0-11.796 9.562-21.342 21.312-21.342 11.812 0 21.376 9.546 21.376 21.342v115.918c0 11.748-9.562 21.31-21.376 21.31zM426.674 607.988c-11.782 0-21.344-9.562-21.344-21.31V470.76c0-11.796 9.562-21.342 21.344-21.342s21.328 9.546 21.328 21.342v115.918c0 11.748-9.546 21.31-21.328 21.31zM682.682 607.988c-11.81 0-21.374-9.562-21.374-21.31v-146.824c0-11.782 9.562-21.328 21.374-21.328 11.75 0 21.312 9.546 21.312 21.328v146.824c0 11.748-9.562 21.31-21.312 21.31zM341.332 607.988c-11.78 0-21.326-9.562-21.326-21.31v-146.824c0-11.782 9.546-21.328 21.326-21.328 11.782 0 21.344 9.546 21.344 21.328v146.824c0 11.748-9.562 21.31-21.344 21.31zM767.992 607.988c-11.782 0-21.312-9.562-21.312-21.31v-207.12c0-11.782 9.532-21.344 21.312-21.344s21.312 9.562 21.312 21.344v207.12c0 11.748-9.53 21.31-21.312 21.31zM256.008 607.988c-11.782 0-21.328-9.562-21.328-21.31v-207.12c0-11.782 9.546-21.344 21.328-21.344s21.326 9.562 21.326 21.344v207.12c0 11.748-9.544 21.31-21.326 21.31z" fill="#CCD1D9" /><path d="M895.988 245.328c-11.782 0-21.312-9.546-21.312-21.328v-21.328c0-11.782 9.532-21.342 21.312-21.342s21.312 9.562 21.312 21.342V224c0 11.782-9.53 21.328-21.312 21.328zM128.012 245.328c-11.782 0-21.328-9.546-21.328-21.328v-21.328c0-11.782 9.546-21.342 21.328-21.342 11.78 0 21.326 9.562 21.326 21.342V224c0 11.782-9.546 21.328-21.326 21.328z" fill="#434A54" /><path d="M512 501.32c-58.982 0-114.684-11.86-165.59-35.28-40.686-18.718-78.308-44.764-111.824-77.434-56.952-55.514-82.294-110.826-83.358-113.154a21.34 21.34 0 0 1 10.672-28.232c10.718-4.844 23.344-0.078 28.204 10.64 0.234 0.5 23.764 51.374 75.42 101.31 29.966 28.984 63.482 52.03 99.622 68.53 45.014 20.546 94.436 30.968 146.856 30.968 52.436 0 101.84-10.422 146.872-30.968 36.124-16.5 69.622-39.544 99.622-68.53 51.624-49.936 75.186-100.81 75.404-101.31 4.876-10.718 17.53-15.468 28.216-10.608 10.75 4.876 15.5 17.468 10.656 28.202-1.062 2.328-26.406 57.64-83.34 113.154-33.532 32.67-71.156 58.716-111.842 77.434C626.684 489.46 570.998 501.32 512 501.32z" fill="#E6E9ED" /><path d="M1002.672 565.302H21.342c-11.782 0-21.326 9.562-21.326 21.376v63.998c0 11.75 9.544 21.312 21.326 21.312h981.33c11.75 0 21.312-9.562 21.312-21.312v-63.998c0-11.812-9.562-21.376-21.312-21.376z" fill="#434A54" /><path d="M0.016 607.988v42.688c0 11.75 9.544 21.312 21.326 21.312h981.33c11.75 0 21.312-9.562 21.312-21.312v-42.688H0.016z" fill="#DA4453" /><path d="M128.012 202.672c-35.296 0-63.998 28.702-63.998 63.998v554.626c0 11.81 9.544 21.374 21.326 21.374h85.342c11.782 0 21.328-9.562 21.328-21.374V266.67c0-35.294-28.704-63.998-63.998-63.998zM895.988 202.672c-35.312 0-63.998 28.702-63.998 63.998v554.626c0 11.81 9.562 21.374 21.31 21.374h85.376c11.748 0 21.31-9.562 21.31-21.374V266.67c0-35.294-28.686-63.998-63.998-63.998z" fill="#ED5564" /><path d="M64.014 266.67h127.996v42.656H64.014zM831.99 266.67h127.996v42.656h-127.996zM192.01 842.67H64.014c-11.782 0-21.328-9.562-21.328-21.374 0-11.75 9.546-21.312 21.328-21.312h127.996c11.78 0 21.326 9.562 21.326 21.312 0 11.812-9.546 21.374-21.326 21.374zM959.986 842.67h-127.996c-11.782 0-21.312-9.562-21.312-21.374 0-11.75 9.532-21.312 21.312-21.312h127.996c11.782 0 21.31 9.562 21.31 21.312 0 11.812-9.528 21.374-21.31 21.374z" fill="#DA4453" /></svg>