<?xml version="1.0" standalone="no"?><!DOCTYPE svg PUBLIC "-//W3C//DTD SVG 1.1//EN" "http://www.w3.org/Graphics/SVG/1.1/DTD/svg11.dtd"><svg class="icon" width="128px" height="128.00px" viewBox="0 0 1024 1024" version="1.1" xmlns="http://www.w3.org/2000/svg"><path d="M712.622 427.346l-7.25 19.014c-0.282 0.782-29.75 78.296-62.438 158.608-28.25 69.558-46.876 111.714-58.998 137.246-1.812-21.782-3.562-54.406-4.624-103.218-1.438-65.122-0.938-126.872-0.938-127.48L578.56 490h-122.84l-1.296 19.952c-0.032 0.61-4.078 62.546-10 127.668-4.594 50.594-8.546 83.75-11.704 105.438-10.562-21.688-26.296-56.156-49.532-110.906-28.388-66.934-54.06-131.402-54.31-132.042l-17.672-44.376-59.138 118.984 159.542 449.27h201.166l186.528-568.284-86.682-28.358z" fill="#A0D468" /><path d="M536.64 638.996c1.078 48.812 7.032 168.75 8.828 190.528 8.904-18.714 21.31-46.402 38.466-87.308-0.156-5.094-3.124-51.594-3.25-57.094-1.438-65.122-2.312-172.996-2.312-173.606L578.56 490h-42.67l-0.172 21.514c-0.014 0.61-0.5 62.362 0.922 127.482zM712.622 427.346l-4.72 12.406 48.718 15.952-186.496 568.284h42.654l186.526-568.284zM340.536 632.152c23.218 54.75 71.232 162.876 81.78 184.532 2.468-16.876 5.422-40.782 8.782-74.468-4.796-11.032-42.266-96.782-47.906-110.062-28.388-66.934-54.06-131.402-54.31-132.042l-17.672-44.376-23.688 47.656c5.576 13.968 28.264 70.42 53.014 128.76z" opacity=".1" /><path d="M1002.676 246.224c0-79.03-64.092-143.106-143.122-143.106-40.968 0-77.906 17.218-103.998 44.812-22.124-50.452-72.498-85.702-131.124-85.702-33.686 0-64.654 11.656-89.106 31.14-33.624-43.794-86.514-72.03-145.998-72.03-96.78 0-176.122 74.748-183.434 169.652a143.436 143.436 0 0 0-41.452-6.094c-79.03 0-143.108 64.078-143.108 143.106 0 65.046 43.39 119.934 102.81 137.34 7.484 94.78 86.732 169.338 183.418 169.338 25.75 0 50.266-5.312 72.514-14.872 33.438 34.372 80.186 55.746 131.92 55.746 77.124 0 143.122-47.438 170.496-114.746 27.812 16.876 60.404 26.562 95.28 26.562 101.624 0 183.994-82.358 183.994-183.982 0-17.468-2.436-34.36-6.966-50.36 29.376-26.212 47.876-64.336 47.876-106.804z" fill="#76A336" /><path d="M1023.988 246.224c0-90.67-73.748-164.434-164.434-164.434-36 0-70 11.36-98.186 32.454-30.124-45.296-81.31-73.342-136.936-73.342-30.124 0-59.78 8.39-85.372 23.906C500.326 23.402 446.796 0.012 389.328 0.012c-52.044 0-101.702 19.516-139.792 54.952-31.89 29.656-53.282 68.156-61.61 110.28a163.512 163.512 0 0 0-23.482-1.672c-90.67 0-164.434 73.764-164.434 164.434 0 36.264 11.576 70.656 33.466 99.452 18.25 23.984 43.11 42.702 70.998 53.686 6.844 45.92 29.032 88.108 63.406 120.046 38.092 35.34 87.686 54.808 139.684 54.808 23.234 0 45.906-3.812 67.56-11.376 37.672 33.812 85.748 52.25 136.874 52.25 41.624 0 81.748-12.376 115.964-35.876 26.906-18.438 48.782-42.684 64.218-70.934a205.354 205.354 0 0 0 85.592 18.656c113.216 0 205.338-92.11 205.338-205.326 0-14.718-1.562-29.328-4.656-43.594 29.096-30.482 45.534-71.168 45.534-113.574z m-83.404 90.89l-9.968 8.89 3.656 12.858a162.864 162.864 0 0 1 6.156 44.532c0 89.686-72.966 162.668-162.652 162.668-29.406 0-58.186-7.938-83.28-22.938-3.124-2.532-17.062-14.546-30-36.984-1.938-3.312-3.688-6.718-5.406-10.156l-13.844-38.376c-5.376-22.17-7.156-46.248-5.312-72.076 0-0.516 0.062-1.016 0.062-1.532 0-11.782-9.562-21.328-21.312-21.328-11.282 0-20.5 8.734-21.282 19.812l-0.032-0.016c-7.28 101.842 36.25 160.262 59.188 183.654-27.75 53.938-82.998 88.09-144.558 88.09-44.296 0-85.716-17.5-116.624-49.278l-10.218-10.5-13.484 5.75c-20.294 8.75-41.858 13.124-64.108 13.124-41.186 0-80.482-15.406-110.654-43.406-29.78-27.656-48.03-65.062-51.42-105.374 0.172-7.422 2.89-68.076 44.936-102.982 28.922-24.014 71.172-30.936 125.592-20.592a22.38 22.38 0 0 0 3.984 0.376c11.782 0 21.328-9.546 21.328-21.328 0-10.422-7.468-19.078-17.344-20.954-67.53-12.844-121.624-2.86-160.808 29.67-37.89 31.452-52 76.358-57.25 106.03-14.904-8.204-28.124-19.514-38.482-33.124-16.204-21.312-24.766-46.766-24.766-73.624 0-67.14 54.624-121.778 121.764-121.778a122.1 122.1 0 0 1 35.28 5.188l25.39 7.672 2.046-26.454c3.14-40.702 21.406-78.514 51.42-106.436 30.188-28.062 69.516-43.514 110.748-43.514 50.344 0 96.858 22.67 127.952 62.248 6.406 32.312 16.016 114.216-39.328 155.278l0.016 0.016c-5.234 3.89-8.64 10.094-8.64 17.11 0 11.782 9.562 21.344 21.344 21.344 4.75 0 9.14-1.594 12.688-4.218l0.016 0.016c39.328-29.188 60.624-76.138 61.592-135.794 0.344-22.296-2.188-42.374-4.782-56.78 19.188-12.016 41.186-18.328 64.248-18.328 44 0 84.188 23.688 105.75 61.328-8 10.234-19.25 26.562-28.188 47.062-20.812 47.89-19.25 95.638 4.5 138.106 0.062 0.078 0.094 0.14 0.124 0.218 0.062 0.062 0.062 0.124 0.124 0.188 3.688 6.484 10.624 10.86 18.562 10.86 11.81 0 21.374-9.546 21.374-21.328 0-3.812-1.032-7.376-2.782-10.468h0.032c-17.248-30.578-18.342-64.014-3.312-99.42 11.25-26.406 27.812-44.702 30-47.092l0.438-0.438c23.248-24.592 54.686-38.14 88.498-38.14 67.124 0 121.746 54.638 121.746 121.778a121.906 121.906 0 0 1-40.718 90.89z" fill="#688E2D" /></svg>