<?xml version="1.0" standalone="no"?><!DOCTYPE svg PUBLIC "-//W3C//DTD SVG 1.1//EN" "http://www.w3.org/Graphics/SVG/1.1/DTD/svg11.dtd"><svg class="icon" width="128px" height="128.00px" viewBox="0 0 1024 1024" version="1.1" xmlns="http://www.w3.org/2000/svg"><path d="M725.306 42.696c-83.56 0-159.122 34.342-213.306 89.668-54.202-55.326-129.746-89.668-213.32-89.668C133.732 42.696 0.018 176.41 0.018 341.342 0.018 682.69 512 981.304 512 981.304s511.982-298.616 511.982-639.962c0-164.932-133.714-298.646-298.676-298.646z" fill="#ED5564" /><path d="M725.306 42.696a299.8 299.8 0 0 0-42.624 3.046c144.714 20.702 255.992 145.15 255.992 295.6 0 280.756-346.394 532.624-469.344 613.182 26.53 17.406 42.67 26.78 42.67 26.78s511.982-298.616 511.982-639.962c0-164.932-133.714-298.646-298.676-298.646z" fill="#FFFFFF" opacity=".2" /><path d="M738.432 452.072L619.06 359.06 547.404 101.506A301.152 301.152 0 0 0 512 132.364c-0.14-0.14-0.282-0.266-0.406-0.406l63.342 227.712-200.244 90.684a21.342 21.342 0 0 0-12 24.14l43.17 191.102c2.234 9.906 11.046 16.656 20.796 16.656 1.546 0 3.124-0.188 4.718-0.562 11.484-2.562 18.704-14 16.11-25.5l-39.342-174.134 189.292-85.73 114.778 89.402a21.312 21.312 0 0 0 13.094 4.5c6.376 0 12.624-2.812 16.874-8.218 7.216-9.298 5.56-22.704-3.75-29.938z" fill="#434A54" /></svg>