<?xml version="1.0" standalone="no"?><!DOCTYPE svg PUBLIC "-//W3C//DTD SVG 1.1//EN" "http://www.w3.org/Graphics/SVG/1.1/DTD/svg11.dtd"><svg class="icon" width="128px" height="128.00px" viewBox="0 0 1024 1024" version="1.1" xmlns="http://www.w3.org/2000/svg"><path d="M932.943028 15.623921L428.579382 520.001567l75.416751 75.420751L1008.343779 91.056672c10.061833-10.093833 15.623741-23.467611 15.623742-37.715375 0-14.249764-5.561908-27.623542-15.623742-37.717376A53.019122 53.019122 0 0 0 970.626404 0.00018c-14.217765 0-27.621543 5.561908-37.683376 15.623741z" fill="#F4BE8E" /><path d="M307.92938 1017.709324L6.274376 716.07032a21.335647 21.335647 0 0 1-5.967901-18.499694 21.353646 21.353646 0 0 1 11.513809-15.65574c117.322057-58.653029 251.501835-162.631306 252.845812-163.695289 8.499859-6.591891 20.577659-5.841903 28.171534 1.78197l211.160503 211.160503c7.609874 7.593874 8.359862 19.687674 1.749971 28.187533-1.031983 1.343978-104.994261 135.523755-163.66329 252.829813a21.347646 21.347646 0 0 1-15.653741 11.531809 21.287647 21.287647 0 0 1-18.501693-6.001901z" fill="#FFCE54" /><path d="M40.943802 750.755746l30.857489 30.843489c19.92167-10.687823 85.480584-46.655227 128.243876-78.590699 9.421844-7.061883 11.359812-20.437662 4.311928-29.875505-7.061883-9.437844-20.419662-11.343812-29.857505-4.311928-47.12322 35.217417-127.585887 77.714713-128.399874 78.122706a20.969653 20.969653 0 0 0-5.155914 3.811937zM267.274053 965.618187c24.74959-59.18502 102.04031-160.117348 102.806298-161.147331a21.299647 21.299647 0 0 0-3.921935-29.903505c-9.341845-7.155881-22.733623-5.40591-29.903505 3.937935-3.171947 4.123932-75.260753 98.274372-104.838264 162.707305l31.265482 31.249483a21.12965 21.12965 0 0 0 4.591924-6.843887zM172.185628 881.997572l60.325001-60.339001c8.327862-8.343862 8.327862-21.843638 0-30.1555-8.325862-8.341862-21.825639-8.341862-30.153501 0l-60.341 60.309001 30.1695 30.1855z" fill="#F6BB42" /><path d="M465.716767 813.532706c23.265615-32.559461 39.623344-53.653111 40.029337-54.185103 6.609891-8.499859 5.859903-20.593659-1.749971-28.187533L292.83763 520.001567c-7.593874-7.623874-19.671674-8.373861-28.171534-1.78197-0.531991 0.437993-21.639642 16.781722-54.199102 40.077336l255.249773 255.235773z" fill="#E6E9ED" /><path d="M292.83763 610.514068a21.359646 21.359646 0 0 1 0-30.1855l15.09175-15.06175a21.293647 21.293647 0 0 1 30.1555 0c8.341862 8.311862 8.341862 21.811639 0 30.1555l-15.07775 15.09175c-8.327862 8.309862-21.827638 8.309862-30.1695 0zM353.176631 670.82107c-8.327862-8.311862-8.327862-21.843638 0-30.153501l15.07775-15.09375c8.327862-8.309862 21.843638-8.309862 30.1695 0a21.359646 21.359646 0 0 1 0 30.1855l-15.09175 15.061751a21.293647 21.293647 0 0 1-30.1555 0zM413.501631 731.16207c-8.327862-8.343862-8.327862-21.841638 0-30.1535l15.077751-15.09375c8.343862-8.343862 21.843638-8.343862 30.1695 0 8.327862 8.311862 8.327862 21.843638 0 30.1555l-15.07775 15.09175c-8.327862 8.343862-21.841638 8.343862-30.169501 0z" fill="#CCD1D9" /><path d="M534.167633 731.16207a21.339647 21.339647 0 0 0 6.109899-17.435711l-15.077751-135.741752a21.189649 21.189649 0 0 0-6.123898-12.717789l-60.325001-60.357001a21.209649 21.209649 0 0 0-12.733789-6.123898l-135.727752-15.061751a21.341647 21.341647 0 0 0-17.435711 6.093899l-47.499214 43.029288 245.799929 245.815928 43.013288-47.501213z" fill="#ED5564" /></svg>