<?xml version="1.0" standalone="no"?><!DOCTYPE svg PUBLIC "-//W3C//DTD SVG 1.1//EN" "http://www.w3.org/Graphics/SVG/1.1/DTD/svg11.dtd"><svg class="icon" width="128px" height="128.00px" viewBox="0 0 1024 1024" version="1.1" xmlns="http://www.w3.org/2000/svg"><path d="M682.676 725.308H341.324L85.328 213.332S255.982 0.008 511.976 0.008c256.012 0 426.696 213.324 426.696 213.324L682.676 725.308z" fill="#434A54" /><path d="M511.976 64.006c202.324 0 351.384 133.262 404.946 189.122l21.75-39.796S767.988 0.008 511.976 0.008C255.98 0.008 85.328 213.332 85.328 213.332l21.718 39.796c53.562-55.858 202.59-189.122 404.93-189.122zM639.99 554.654c-9.124 0-16.938 5.782-19.938 13.844h-0.062l-58.81 156.81h45.562l53.186-141.81v-0.032a21.24 21.24 0 0 0 1.376-7.468c-0.002-11.812-9.564-21.344-21.314-21.344zM511.976 512c-11.782 0-21.312 9.546-21.312 21.328v191.98h42.656v-191.98c0-11.782-9.562-21.328-21.344-21.328zM404.884 568.592h-0.032c-3-8.124-10.812-13.938-19.968-13.938a21.332 21.332 0 0 0-21.342 21.344c0 2.594 0.5 5.062 1.344 7.376h-0.032l52.5 141.936h45.5l-57.97-156.718z" fill="#656D78" /><path d="M341.324 725.308v277.34c0 11.782 9.562 21.344 21.344 21.344h298.636c11.81 0 21.374-9.562 21.374-21.344v-277.34H341.324z" fill="#ED5564" /><path d="M639.99 725.308c0 11.812 9.562 21.344 21.312 21.344 11.81 0 21.374-9.532 21.374-21.344h-42.686zM618.678 746.652c11.75 0 21.312-9.532 21.312-21.344h-42.686c0 11.814 9.564 21.344 21.374 21.344zM575.992 746.652c11.75 0 21.312-9.532 21.312-21.344H554.68c0 11.814 9.5 21.344 21.312 21.344z" fill="#DA4453" /><path d="M533.32 746.652c11.796 0 21.36-9.532 21.36-21.344h-42.704c0 11.814 9.564 21.344 21.344 21.344z" fill="#DA4453" /><path d="M490.666 746.652c11.78 0 21.312-9.532 21.312-21.344h-42.656c0 11.814 9.562 21.344 21.344 21.344zM447.978 746.652c11.782 0 21.344-9.532 21.344-21.344h-42.656c0 11.814 9.532 21.344 21.312 21.344zM405.322 746.652c11.782 0 21.344-9.532 21.344-21.344h-42.688c0 11.814 9.564 21.344 21.344 21.344zM362.666 746.652c11.782 0 21.312-9.532 21.312-21.344h-42.656a21.334 21.334 0 0 0 21.344 21.344z" fill="#DA4453" /><path d="M341.324 981.304v21.344c0 11.782 9.562 21.344 21.344 21.344h298.636c11.81 0 21.374-9.562 21.374-21.344v-21.344H341.324z" fill="#DA4453" /></svg>