<?xml version="1.0" standalone="no"?><!DOCTYPE svg PUBLIC "-//W3C//DTD SVG 1.1//EN" "http://www.w3.org/Graphics/SVG/1.1/DTD/svg11.dtd"><svg class="icon" width="128px" height="128.00px" viewBox="0 0 1024 1024" version="1.1" xmlns="http://www.w3.org/2000/svg"><path d="M204.102 498.188c-135.668 45.186-120.762 139.466-120.762 139.466l11.514 71.186 20 24 133.34-18.188 132.466-96.622v-92.376c0.002 0.002-42.044-72.278-176.558-27.466z" fill="#81AF46" /><path d="M218.946 493.626a317.106 317.106 0 0 0-14.844 4.562c-19.656 6.532-36.14 14.124-49.984 22.312-3.5 10.218-5.938 21.282-6.578 33.062-1.922 35.124 11.922 68.406 41.17 98.874l30.782-29.53c-20.656-21.532-30.532-44-29.376-66.75 1.392-27.032 17.706-49.936 28.83-62.53z" opacity=".1" /><path d="M833.588 116.822c-130.402-58.686-191.996-8.282-191.996-8.282l-31.656 150.528s99.562 86.218 103.124 86.218 226.65 6.686 226.65 6.686l33.154-84.81c0.002 0-9.998-92.156-139.276-150.34z" fill="#81AF46" /><path d="M750.058 218.664c3.75-38.782 29.936-63.5 80.06-75.56 14.5-3.468 28.938-5.282 41.656-6.188-11.406-7-24.094-13.75-38.188-20.094a373.27 373.27 0 0 0-27.782-11.25c-22.594 6.968-41.654 16.844-56.78 29.468-24.342 20.25-38.28 47.03-41.436 79.53l42.47 4.094z" opacity=".1" /><path d="M408.396 462.75c-52.78 5.062-294.65 295.682-280.042 388.994 14.592 93.342 180.074 123.716 317.43 39.748 193.464-118.278 15.406-433.772-37.388-428.742z" fill="#8CC153" /><path d="M398.302 700.402C356.256 636.404 38.918 566.094 6.012 619c-32.92 52.904 72.92 343.868 239.324 338.586 266.556-8.438 195.012-193.152 152.966-257.184z" fill="#A0D468" /><path d="M1013.772 226.132c-42.25-32.062-422.99 20.906-475.458 99.404-52.484 78.53 48.654 212.996 206.556 244.308 222.432 44.094 311.152-311.652 268.902-343.712z" fill="#8CC153" /><path d="M833.338 424.252c12.468-75.592-164.464-373.834-224.496-357.242-60.058 16.592-182.15 306.774-56.216 415.648 201.776 174.402 268.274 17.156 280.712-58.406z" fill="#A0D468" /></svg>