<?xml version="1.0" standalone="no"?><!DOCTYPE svg PUBLIC "-//W3C//DTD SVG 1.1//EN" "http://www.w3.org/Graphics/SVG/1.1/DTD/svg11.dtd"><svg class="icon" width="128px" height="128.00px" viewBox="0 0 1024 1024" version="1.1" xmlns="http://www.w3.org/2000/svg"><path d="M618.654 938.648S599.28 1023.992 512 1023.992c-87.31 0-106.686-85.344-106.686-85.344V213.332h213.34v725.316z" fill="#5D9CEC" /><path d="M618.654 384.002h-213.34L256.004 85.334S382.284 0.008 512 0.008s255.996 85.326 255.996 85.326l-149.342 298.668z" fill="#434A54" /><path d="M597.312 320.002c0-11.78-9.532-21.342-21.312-21.342-9.438 0-17.406 6.124-20.25 14.592l-0.124 0.376v0.032l-22.312 66.876V298.66c0-11.782-9.532-21.342-21.312-21.342s-21.344 9.562-21.344 21.342v81.874l-22.282-66.844c0-0.032-0.032-0.062-0.032-0.062l-0.124-0.376c-2.812-8.468-10.812-14.592-20.218-14.592-11.78 0-21.342 9.562-21.342 21.342 0 2.344 0.406 4.624 1.094 6.75l25.06 75.218 40.5-13.5-0.75-2.25h38.876l-0.75 2.25 40.468 13.5 25.062-75.218c0.718-2.126 1.092-4.406 1.092-6.75zM511.968 64.006c101.438 0 192.246 45.64 232.152 69.078l23.876-47.75S641.716 0.008 512 0.008 256.004 85.334 256.004 85.334l23.718 47.454c39.532-23.142 130.404-68.782 232.246-68.782z" fill="#656D78" /><path d="M405.314 383.72h213.34v85.31h-213.34z" fill="#F5F7FA" /><path d="M405.314 938.648s19.376 85.344 106.686 85.344c87.282 0 106.654-85.344 106.654-85.344h-213.34z" fill="#4A89DC" /></svg>