<?xml version="1.0" standalone="no"?><!DOCTYPE svg PUBLIC "-//W3C//DTD SVG 1.1//EN" "http://www.w3.org/Graphics/SVG/1.1/DTD/svg11.dtd"><svg class="icon" width="128px" height="128.00px" viewBox="0 0 1024 1024" version="1.1" xmlns="http://www.w3.org/2000/svg"><path d="M1003.863792 20.129828c-45.249613-45.263613-120.682968 0-120.682967 0L544.129725 359.198927s-108.015076-42.843633-135.762838-15.093871l-160.744625 160.744625 271.523677 271.535677s128.166904-128.180903 160.728625-160.774624c32.623721-32.591721-15.061871-135.744839-15.061871-135.744839L1003.863792 140.796796s45.249613-75.417355 0-120.666968z m-45.249613 75.419355c-8.311929 8.327929-21.843813 8.327929-30.185741 0-8.311929-8.325929-8.311929-21.841813 0-30.169742 8.341929-8.327929 21.873813-8.327929 30.185741 0s8.311929 21.827813 0 30.169742z" fill="#FFCE54" /><path d="M277.778004 1017.719294a21.293818 21.293818 0 0 1-30.155742 0L6.272326 776.383358a21.355817 21.355817 0 0 1 0-30.183742l256.397807-256.381806c8.327929-8.327929 21.827813-8.343929 30.155742 0l241.351935 241.351935c8.343929 8.311929 2.717977 27.437765-5.609952 35.777694L277.778004 1017.719294z" fill="#DA4453" /><path d="M376.979155 856.350674c-27.373766-11.7159-55.123528-41.873642-64.545448-70.1534l-8.545927-25.62178c-5.295955-15.905864-24.57779-35.187699-40.467653-40.467654l-25.639781-8.561927c-28.249758-9.40592-58.4035-37.155682-70.1374-64.529448l-18.655841-43.529628-142.714779 142.714779a21.355817 21.355817 0 0 0 0 30.183742L247.622262 1017.721294a21.293818 21.293818 0 0 0 30.155742 0l142.712779-142.712779-43.511628-18.657841z" fill="#ED5564" /><path d="M322.293623 430.17832l-74.669361 74.671361 271.523677 271.535677c0-0.032 39.233664-39.245664 74.669361-74.683361L322.293623 430.17832z" fill="#E6E9ED" /><path d="M353.151359 461.052056l-15.029872 15.031871c-8.327929 8.327929-8.327929 21.827813 0 30.171742a21.327818 21.327818 0 0 0 30.169742 0l15.031872-15.031871-30.171742-30.171742zM413.492843 521.39354l-15.031872 15.015871c-8.325929 8.327929-8.325929 21.827813 0 30.171742a21.285818 21.285818 0 0 0 15.077871 6.249947c5.467953 0 10.921907-2.093982 15.093871-6.249947l15.029872-15.031871-30.169742-30.155742zM473.130333 581.01903l-14.327878 14.343877c-8.327929 8.311929-8.343929 21.841813 0 30.153742a21.151819 21.151819 0 0 0 15.077871 6.249946 21.159819 21.159819 0 0 0 15.077871-6.249946l14.343877-14.343877-30.171741-30.153742zM533.473816 641.360513l-14.343877 14.343878c-8.329929 8.311929-8.329929 21.841813 0 30.153742a21.321818 21.321818 0 0 0 15.093871 6.249946c5.453953 0 10.905907-2.093982 15.093871-6.249946l14.309877-14.341878-30.153742-30.155742z" fill="#CCD1D9" /><path d="M66.59781 836.696842l60.341484-60.343483c8.327929-8.311929 8.327929-21.807813 0-30.151743s-21.843813-8.343929-30.169742 0l-60.341484 60.339484 30.169742 30.155742zM187.280778 957.37781l30.171742 30.155742 60.325484-60.309484a21.345817 21.345817 0 0 0 0.016-30.187742c-8.343929-8.311929-21.841813-8.311929-30.169742 0l-60.343484 60.341484zM202.358649 791.447229L111.863423 881.944455l30.171742 30.187742 90.495226-90.497226c8.327929-8.343929 8.327929-21.843813 0-30.187742-8.327929-8.313929-21.843813-8.313929-30.171742 0z" fill="#DA4453" /></svg>