<?xml version="1.0" standalone="no"?><!DOCTYPE svg PUBLIC "-//W3C//DTD SVG 1.1//EN" "http://www.w3.org/Graphics/SVG/1.1/DTD/svg11.dtd"><svg class="icon" width="128px" height="128.00px" viewBox="0 0 1024 1024" version="1.1" xmlns="http://www.w3.org/2000/svg"><path d="M405.238 504.064l-42.468-3.844c-50.936-14.124-35-78.218-56.25-137.592-16.438-45.842-5.438-86.874-5.594-87.216l38.156-19.094c3.062 6.124 74.906 150.966 66.156 247.746z" fill="#ED5564" /><path d="M533.516 568.062c-1.032-8.032-225.808-40-226.182-39.938l-5.75-42.28c1.75-0.25 43.342-5.782 93.28-5.782h1.468c70.75 0.156 121.31 11.468 150.262 33.688 16.876 12.936 26.718 29.374 29.218 48.842l-42.296 5.47z" fill="#DA4453" /><path d="M335.082 512l-170.34-146.248L149.336 544l91.56 76.84 114.062 13.344 76.434-18.656 21.344-44.872z" fill="#656D78" /><path d="M241.74 597.312c-7.624 0-15-4.062-18.842-11.25-5.562-10.376-1.624-23.312 8.75-28.876l99.624-53.342c10.376-5.562 23.312-1.656 28.876 8.75 5.562 10.374 1.656 23.312-8.75 28.874l-99.624 53.344a21.4 21.4 0 0 1-10.034 2.5zM702.934 532.032l-94.968-54.906 21.344-36.938 94.968 54.906z" fill="#CCD1D9" /><path d="M597.31 522.656c-3.218 0-6.468-0.718-9.532-2.25-10.53-5.282-14.81-18.092-9.53-28.624l42.654-85.342c5.282-10.532 18.092-14.782 28.624-9.532 10.532 5.282 14.812 18.092 9.532 28.624l-42.654 85.342a21.35 21.35 0 0 1-19.094 11.782z" fill="#434A54" /><path d="M651.964 588.312L627.998 553c86.216-58.5 122.248-108.406 122.592-108.906l134.996 140.312c-1.626 2.282-88.874 66.246-233.622 3.906z" fill="#656D78" /><path d="M128.024 352.002H170.68v170.654H128.024z" fill="#CCD1D9" /><path d="M462.986 586.782c-9.656 0-27.844-0.594-48.218-4.124-42.25-7.312-72.75-23.218-90.56-47.312-6.25-8.406-25.25-34.062-38.5-156.028-6.312-58.186-8.28-109.686-8.342-111.842l42.624-1.594c0.032 0.5 2 52.342 8.188 109.06 10.812 99.53 24.78 127.592 30.312 135.03 22.906 30.936 87.092 35.062 109.874 34.03l1.968 42.624c-0.314 0.03-2.97 0.156-7.346 0.156z" fill="#E6E9ED" /><path d="M795.306 669.402l-442.13-1-23.656-35.5 127.998-85.34a21.412 21.412 0 0 1 11.812-3.562h255.978c5.844 0 11.406 2.376 15.438 6.594l85.404 89.34-30.844 29.468z" fill="#CCD1D9" /><path d="M256.022 629.308H810.62v42.688H256.022zM742.714 383.972a21.86 21.86 0 0 0-6.312-5.906l-213.324-129.624a21.256 21.256 0 0 0-11.062-3.094H21.338a21.31 21.31 0 0 0-20.406 15.156 21.226 21.226 0 0 0-0.156 11.844l74.686 270.276 41.124-11.344-59.436-215.088 79.342 52.874 182.184 154.216 27.562-32.592-152.248-128.842 110.342-30.312a21.34 21.34 0 0 0 15.688-20.562v-22.968h185.996l204.448 124.248 125.434 176.84 34.812-24.688-127.996-180.434z m-465.38-89.248l-124.248 34.124-61.28-40.842h185.528v6.718z" fill="#E6E9ED" /><path d="M277.334 650.652c11.78 0 21.342-9.562 21.342-21.344S289.114 608 277.334 608h-1.782a126.142 126.142 0 0 0-6.25-23.312l1.562-0.876c10.186-5.906 13.686-18.938 7.812-29.156-5.906-10.218-18.968-13.688-29.156-7.812l-1.594 0.938a127.14 127.14 0 0 0-17.032-17.032l0.906-1.624c5.906-10.188 2.406-23.25-7.78-29.124-10.218-5.906-23.25-2.406-29.156 7.812l-0.906 1.532c-7.438-2.782-15.25-4.844-23.28-6.218v-1.812c0-11.782-9.562-21.312-21.344-21.312s-21.312 9.532-21.312 21.312v1.812a128.852 128.852 0 0 0-23.312 6.218l-0.906-1.532c-5.876-10.218-18.938-13.718-29.124-7.812-10.218 5.876-13.718 18.936-7.812 29.124l0.938 1.624a125.29 125.29 0 0 0-17.032 17.032l-1.624-0.938c-10.188-5.876-23.25-2.406-29.124 7.812-5.906 10.218-2.406 23.25 7.812 29.156l1.532 0.876A128.71 128.71 0 0 0 23.12 608h-1.782A21.294 21.294 0 0 0 0.026 629.308c-0.032 11.782 9.532 21.344 21.312 21.344h1.782a128.396 128.396 0 0 0 6.25 23.282l-1.532 0.906c-10.218 5.906-13.718 18.938-7.812 29.156 3.938 6.844 11.124 10.656 18.5 10.656 3.594 0 7.282-0.906 10.624-2.844l1.624-0.938a127.024 127.024 0 0 0 17.032 17.032l-0.938 1.594c-5.906 10.218-2.406 23.25 7.812 29.156a21.2 21.2 0 0 0 10.656 2.844c7.376 0 14.532-3.812 18.468-10.656l0.906-1.562a126.142 126.142 0 0 0 23.312 6.25v1.782c0 11.782 9.532 21.344 21.312 21.344 11.782 0 21.344-9.562 21.344-21.344v-1.782a125.858 125.858 0 0 0 23.28-6.25l0.906 1.562c3.938 6.844 11.124 10.656 18.5 10.656 3.624 0 7.282-0.906 10.656-2.844 10.186-5.906 13.686-18.938 7.78-29.156l-0.906-1.594a128.926 128.926 0 0 0 17.032-17.032l1.594 0.938a21.296 21.296 0 0 0 10.656 2.844c7.376 0 14.532-3.812 18.5-10.656 5.876-10.218 2.376-23.25-7.812-29.156l-1.562-0.906a125.836 125.836 0 0 0 6.25-23.282h1.782z" fill="#434A54" /><path d="M164.43 614.25c8.344 8.308 8.344 21.808 0 30.152s-21.844 8.344-30.156 0c-8.342-8.344-8.342-21.844 0-30.152 8.312-8.344 21.812-8.344 30.156 0z" fill="#F5F7FA" /><path d="M1002.646 671.996c11.782 0 21.344-9.562 21.344-21.344-0.032-11.782-9.562-21.344-21.344-21.344h-2.156c-0.876-4.25-2-8.376-3.376-12.438l1.906-1.062c10.188-5.902 13.688-18.934 7.812-29.152-5.906-10.218-18.938-13.688-29.154-7.812l-1.938 1.124a108.62 108.62 0 0 0-9.062-9.094l1.094-1.938c5.906-10.188 2.406-23.25-7.812-29.124-10.188-5.906-23.25-2.406-29.124 7.812l-1.094 1.876a110.626 110.626 0 0 0-12.438-3.376V544c0-11.782-9.532-21.344-21.312-21.344-11.812 0-21.344 9.562-21.344 21.344v2.124a108.92 108.92 0 0 0-12.438 3.376l-1.094-1.876c-5.876-10.218-18.938-13.718-29.124-7.812-10.218 5.876-13.718 18.938-7.812 29.124l1.094 1.938a108.316 108.316 0 0 0-9.062 9.094l-1.938-1.124c-10.218-5.876-23.25-2.406-29.156 7.812-5.874 10.218-2.374 23.25 7.812 29.152l1.876 1.062a110.516 110.516 0 0 0-3.344 12.438h-2.156c-11.78 0-21.31 9.562-21.31 21.344s9.532 21.344 21.31 21.344h2.156c0.876 4.25 2 8.376 3.344 12.438l-1.876 1.062c-10.186 5.906-13.686 18.938-7.812 29.156a21.334 21.334 0 0 0 18.5 10.656c3.624 0 7.282-0.906 10.656-2.844l1.938-1.124a108.62 108.62 0 0 0 9.062 9.094l-1.094 1.938c-5.906 10.188-2.406 23.25 7.812 29.124a21.122 21.122 0 0 0 10.624 2.876c7.376 0 14.562-3.844 18.5-10.688l1.094-1.876a108.92 108.92 0 0 0 12.438 3.376v2.124c0 11.782 9.532 21.344 21.344 21.344 11.782 0 21.312-9.562 21.312-21.344v-2.124a108.92 108.92 0 0 0 12.438-3.376l1.094 1.876a21.33 21.33 0 0 0 18.5 10.688c3.624 0 7.282-0.938 10.656-2.876 10.188-5.876 13.688-18.938 7.782-29.124l-1.094-1.938a108.316 108.316 0 0 0 9.062-9.094l1.938 1.124a21.294 21.294 0 0 0 10.654 2.844c7.376 0 14.532-3.812 18.5-10.656 5.876-10.218 2.376-23.25-7.812-29.156l-1.906-1.062a104.214 104.214 0 0 0 3.376-12.438h2.154z" fill="#434A54" /><path d="M911.054 635.558a21.332 21.332 0 0 1 0 30.188c-8.312 8.312-21.844 8.312-30.156 0a21.332 21.332 0 0 1 0-30.188c8.312-8.312 21.844-8.312 30.156 0z" fill="#F5F7FA" /></svg>