<?xml version="1.0" standalone="no"?><!DOCTYPE svg PUBLIC "-//W3C//DTD SVG 1.1//EN" "http://www.w3.org/Graphics/SVG/1.1/DTD/svg11.dtd"><svg class="icon" width="128px" height="128.00px" viewBox="0 0 1024 1024" version="1.1" xmlns="http://www.w3.org/2000/svg"><path d="M920.418 815.368l-3.624-1.032c-52.936-14.218-70.874-27.876-94.436-36.844-83.558-31.84-105.306-54.808-110.87-65.652-0.218-0.376-0.376-0.812-0.562-1.188l-0.688-97.094-198.246-2.25-198.26 2.25-0.688 97.094c-0.172 0.376-0.328 0.812-0.532 1.188-5.562 10.844-27.312 33.812-110.904 65.652-23.56 8.968-41.482 22.624-94.418 36.844l-3.624 1.032c-48.202 15.938-80.608 60.622-80.608 111.058v97.558H1001.04v-97.558c0.002-50.438-32.436-95.122-80.622-111.058z" fill="#EC5564" /><path d="M911.512 1023.984l-7.344-7.312 96.686-96.652a116.302 116.302 0 0 0-13-47.376l-113.84 113.844-90.5-90.5 94.156-94.152c-18.032-6.812-30.188-13.188-41.782-18.562l-82.53 82.558-90.528-90.528 54.906-54.872c-3.124-3.406-5.062-6.282-6.25-8.594-0.218-0.376-0.376-0.812-0.562-1.188l-0.312-43.468-198.622 198.648-164.712-164.742-30.172 30.188 44.044 44.028-90.514 90.528-82.544-82.558c-11.576 5.376-23.748 11.75-41.764 18.562l94.138 94.152-90.498 90.5-113.856-113.844a116.27 116.27 0 0 0-12.968 47.376L119.8 1016.672l-7.328 7.312h74.98l-7.326-7.312 90.512-90.528 90.514 90.528-7.328 7.312h74.982l-7.328-7.312 90.514-90.528 90.496 90.528-7.31 7.312h74.998l-7.344-7.312 90.528-90.528 90.498 90.528-7.312 7.312h74.966z m-520.188-37.496l-90.514-90.5 90.514-90.496 90.496 90.496-90.496 90.5z m241.352 0l-90.512-90.5 90.512-90.496 90.5 90.496-90.5 90.5z" fill="#424953" /><path d="M447.994 754.996h127.996v268.988h-127.996z" fill="#E5E8EC" /><path d="M312.514 711.84l71.482 161.492 127.996-92.184-198.556-147.902zM710.926 633.246l-198.934 147.902 127.996 92.184 70.938-162.68z" fill="#F4F6F9" /><path d="M511.992 129.73c-151.934 0-275.102 117.934-275.102 296.678 0 178.748 170.4 343.24 275.102 343.24 104.684 0 275.116-164.492 275.116-343.24 0-178.744-123.182-296.678-275.116-296.678z" fill="#EAC6BB" /><path d="M341.124 587.438c-10.672 20.688-18.078 41.434-18.078 59.09 0 62.938 150.168 164.684 188.948 165.34 38.782-0.656 188.934-102.402 188.934-165.34 0-18.062-7.718-39.308-18.75-60.434-27.628-52.782-313.62-51.906-341.054 1.344z" fill="#E8563F" /><path d="M717.614 467.032c-0.188 0-0.376 0.032-0.562 0.032-33.124 1-49.062 35.376-49.062 35.376a48.272 48.272 0 0 1 14.282-2.188c22.876 0 36.844 17.592 7.968 33.156-8.438 4.562-16.624 6.468-24.624 6.468-43.812 0-81.28-58.092-119.434-58.092-11.266 0-22.61 5.094-34.188 18.282-11.578-13.188-22.922-18.282-34.204-18.282-38.138 0-75.624 58.092-119.434 58.092-7.982 0-16.17-1.906-24.624-6.468-28.844-15.562-14.89-33.156 7.984-33.156 4.5 0 9.36 0.656 14.294 2.188 0 0-15.936-34.376-49.092-35.376-0.188 0-0.36-0.032-0.546-0.032-43.654 0.032-138.778 156.058 89.292 177.026a132.66 132.66 0 0 0 12.234 0.562c39.954 0 80.326-17.376 104.092-43.434 23.782 26.058 64.154 43.434 104.09 43.434 4.094 0 8.156-0.188 12.25-0.562 228.058-20.968 132.936-177.026 89.284-177.026z" fill="#FB6D51" /><path d="M511.992 42.668c-164.948 0-298.664 133.716-298.664 298.68v42.654h597.342v-42.654c0-164.964-133.744-298.68-298.678-298.68z" fill="#FECD57" /><path d="M831.982 384.002H192c-11.78 0-21.326-9.562-21.326-21.342 0-11.782 9.546-21.312 21.326-21.312h639.982a21.298 21.298 0 0 1 21.312 21.312c0 11.782-9.53 21.342-21.312 21.342zM426.712 213.414c-11.782 0-21.328-9.532-21.344-21.312l-0.046-149.402c0-8.124 4.594-15.53 11.844-19.124 1.938-0.968 47.984-23.562 94.826-23.562s92.872 22.592 94.808 23.562a21.35 21.35 0 0 1 11.876 19.092v146.684c0 11.78-9.562 21.312-21.374 21.312-11.75 0-21.312-9.532-21.312-21.312V56.7c-14.376-5.688-39.654-14.032-63.998-14.032-23.094 0-48.358 7.844-63.998 13.968l0.046 135.434a21.318 21.318 0 0 1-21.328 21.344z" fill="#F5BA45" /><path d="M527.07 923.582c8.344 8.312 8.344 21.812 0 30.156a21.294 21.294 0 0 1-30.156 0c-8.344-8.344-8.344-21.844 0-30.156a21.294 21.294 0 0 1 30.156 0z" fill="#424953" /><path d="M527.07 838.242c8.344 8.312 8.344 21.84 0 30.152a21.294 21.294 0 0 1-30.156 0c-8.344-8.312-8.344-21.84 0-30.152a21.294 21.294 0 0 1 30.156 0z" fill="#424953" /></svg>