<?xml version="1.0" standalone="no"?><!DOCTYPE svg PUBLIC "-//W3C//DTD SVG 1.1//EN" "http://www.w3.org/Graphics/SVG/1.1/DTD/svg11.dtd"><svg class="icon" width="128px" height="128.00px" viewBox="0 0 1024 1024" version="1.1" xmlns="http://www.w3.org/2000/svg"><path d="M661.308 170.67H1002.68v682.628H661.308z" fill="#D89766" /><path d="M1002.68 874.674H661.308c-11.75 0-21.312-9.562-21.312-21.376V170.67c0-11.782 9.562-21.344 21.312-21.344H1002.68c11.75 0 21.312 9.562 21.312 21.344v682.628c0 11.814-9.562 21.376-21.312 21.376z m-319.996-42.688h298.622V191.998H682.684v639.988z" fill="#F4BE8E" /><path d="M894.242 352.916c-3.938-9.282-25.656-55.592-62.246-55.592-36.594 0-58.312 46.31-62.282 55.592a21.026 21.026 0 0 0-1.718 8.406v342.666c0 11.782 9.562 21.312 21.312 21.312h85.372c11.75 0 21.312-9.532 21.312-21.312V361.322c0-2.89-0.594-5.75-1.75-8.406z" fill="#FFCE54" /><path d="M767.996 597.302h127.996v42.688h-127.996z" fill="#F6BB42" /><path d="M661.308 149.326H21.336C9.554 149.326 0.008 158.888 0.008 170.67v682.628c0 11.812 9.546 21.376 21.328 21.376h639.972a21.366 21.366 0 0 0 21.376-21.376V170.67c0-11.782-9.562-21.344-21.376-21.344z" fill="#ED5564" /><path d="M149.334 618.678c0 11.75-9.546 21.312-21.328 21.312s-21.328-9.562-21.328-21.312c0-11.812 9.546-21.376 21.328-21.376s21.328 9.564 21.328 21.376zM234.676 618.678c0 11.75-9.562 21.312-21.344 21.312s-21.328-9.562-21.328-21.312c0-11.812 9.546-21.376 21.328-21.376s21.344 9.564 21.344 21.376zM320.002 618.678c0 11.75-9.546 21.312-21.328 21.312s-21.344-9.562-21.344-21.312c0-11.812 9.562-21.376 21.344-21.376 11.782 0 21.328 9.564 21.328 21.376zM405.33 618.678c0 11.75-9.546 21.312-21.328 21.312s-21.328-9.562-21.328-21.312c0-11.812 9.546-21.376 21.328-21.376s21.328 9.564 21.328 21.376zM490.672 618.678c0 11.75-9.562 21.312-21.342 21.312-11.782 0-21.328-9.562-21.328-21.312 0-11.812 9.546-21.376 21.328-21.376 11.78 0 21.342 9.564 21.342 21.376zM576 618.678c0 11.75-9.562 21.312-21.312 21.312-11.796 0-21.36-9.562-21.36-21.312 0-11.812 9.562-21.376 21.36-21.376 11.75 0 21.312 9.564 21.312 21.376zM149.334 789.298c0 11.812-9.546 21.376-21.328 21.376s-21.328-9.562-21.328-21.376c0-11.75 9.546-21.312 21.328-21.312s21.328 9.562 21.328 21.312zM234.676 789.298c0 11.812-9.562 21.376-21.344 21.376s-21.328-9.562-21.328-21.376c0-11.75 9.546-21.312 21.328-21.312s21.344 9.562 21.344 21.312zM320.002 789.298c0 11.812-9.546 21.376-21.328 21.376s-21.344-9.562-21.344-21.376c0-11.75 9.562-21.312 21.344-21.312 11.782 0 21.328 9.562 21.328 21.312zM405.33 789.298c0 11.812-9.546 21.376-21.328 21.376s-21.328-9.562-21.328-21.376c0-11.75 9.546-21.312 21.328-21.312s21.328 9.562 21.328 21.312zM490.672 789.298c0 11.812-9.562 21.376-21.342 21.376-11.782 0-21.328-9.562-21.328-21.376 0-11.75 9.546-21.312 21.328-21.312 11.78 0 21.342 9.562 21.342 21.312zM576 789.298c0 11.812-9.562 21.376-21.312 21.376-11.796 0-21.36-9.562-21.36-21.376 0-11.75 9.562-21.312 21.36-21.312 11.75 0 21.312 9.562 21.312 21.312zM192.006 703.988c0 11.782-9.546 21.312-21.328 21.312s-21.344-9.532-21.344-21.312 9.562-21.312 21.344-21.312 21.328 9.532 21.328 21.312zM277.332 703.988c0 11.782-9.546 21.312-21.328 21.312-11.78 0-21.328-9.532-21.328-21.312s9.546-21.312 21.328-21.312 21.328 9.532 21.328 21.312zM362.674 703.988c0 11.782-9.562 21.312-21.342 21.312s-21.328-9.532-21.328-21.312 9.546-21.312 21.328-21.312 21.342 9.532 21.342 21.312zM448 703.988c0 11.782-9.546 21.312-21.328 21.312-11.78 0-21.342-9.532-21.342-21.312s9.562-21.312 21.342-21.312c11.782 0 21.328 9.532 21.328 21.312zM533.328 703.988c0 11.782-9.546 21.312-21.328 21.312s-21.328-9.532-21.328-21.312 9.546-21.312 21.328-21.312 21.328 9.532 21.328 21.312z" fill="#DA4453" /><path d="M576 234.668H106.678c-11.782 0-21.344 9.546-21.344 21.328v255.996c0 11.782 9.562 21.326 21.344 21.326H576c11.782 0 21.312-9.544 21.312-21.326V255.996c0-11.782-9.53-21.328-21.312-21.328z" fill="#FFCE54" /><path d="M490.672 362.666H192.006c-11.782 0-21.328-9.562-21.328-21.344 0-11.78 9.546-21.328 21.328-21.328h298.666c11.782 0 21.328 9.546 21.328 21.328s-9.546 21.344-21.328 21.344zM405.33 447.992h-127.998c-11.782 0-21.328-9.546-21.328-21.328s9.546-21.342 21.328-21.342h127.998c11.78 0 21.342 9.562 21.342 21.342s-9.562 21.328-21.342 21.328z" fill="#434A54" /><path d="M831.996 297.324c-36.594 0-58.312 46.31-62.282 55.592a21.026 21.026 0 0 0-1.718 8.406h127.996c0-2.89-0.594-5.75-1.75-8.406-3.938-9.282-25.656-55.592-62.246-55.592z" fill="#ED5564" /><path d="M894.242 352.916c-3.938-9.282-25.656-55.592-62.246-55.592-3.718 0-7.25 0.5-10.688 1.376 30.156 7.67 48.058 45.888 51.622 54.216a21.62 21.62 0 0 1 1.75 8.406v342.666c0 11.782-9.562 21.312-21.372 21.312h21.372c11.75 0 21.312-9.532 21.312-21.312V361.322c0-2.89-0.594-5.75-1.75-8.406z" fill="#FFFFFF" opacity=".2" /><path d="M895.992 725.3h-127.996c-11.782 0-21.312-9.532-21.312-21.312s9.532-21.312 21.312-21.312h127.996c11.782 0 21.312 9.532 21.312 21.312s-9.53 21.312-21.312 21.312z" fill="#F6BB42" /></svg>