<?xml version="1.0" standalone="no"?><!DOCTYPE svg PUBLIC "-//W3C//DTD SVG 1.1//EN" "http://www.w3.org/Graphics/SVG/1.1/DTD/svg11.dtd"><svg class="icon" width="128px" height="128.00px" viewBox="0 0 1024 1024" version="1.1" xmlns="http://www.w3.org/2000/svg"><path d="M1023.968671 21.49987a21.453452 21.453452 0 0 0-6.24984-15.24961 21.403453 21.403453 0 0 0-15.24961-6.24984c-5.311864 0.061998-132.088623 2.781929-287.332654 157.993961-8.311787 8.343787-8.311787 21.843442 0 30.155229l120.684914 120.680914c8.311787 8.311787 21.843442 8.311787 30.153229 0 155.244031-155.242031 157.931962-282.01879 157.993961-287.330654z" fill="#FC6E51" /><path d="M248.408499 958.221922l53.96662-26.99731a21.609448 21.609448 0 0 0 5.545859-3.999898l438.714783-438.744783a20.857467 20.857467 0 0 0 5.217867-8.499782l27.249303-84.277846 86.871779-86.871779-150.838143-150.836143-86.83778 86.871779-84.309845 27.249303a21.53145 21.53145 0 0 0-8.499782 5.217867L96.758376 716.078112a21.745444 21.745444 0 0 0-3.999897 5.531859l-26.983311 53.96462-53.96662 26.99931a21.317455 21.317455 0 0 0-11.515705 15.6556 21.289456 21.289456 0 0 0 5.967847 18.499527l180.993373 180.991373a21.273456 21.273456 0 0 0 18.499527 5.999846 21.471451 21.471451 0 0 0 15.671599-11.531705l26.98331-53.96662z" fill="#FFCE54" /><path d="M11.808548 802.573901a21.317455 21.317455 0 0 0-11.515705 15.6556 21.289456 21.289456 0 0 0 5.967847 18.499527l180.993373 180.991373a21.273456 21.273456 0 0 0 18.499527 5.999846 21.471451 21.471451 0 0 0 15.671599-11.531705l26.98331-53.96662-182.633331-182.647331-53.96662 26.99931z" fill="#F6BB42" /><path d="M795.916501 87.934172l140.118418 140.118418a600.684643 600.684643 0 0 0 24.561372-35.779086l-128.898704-128.900704a601.006634 601.006634 0 0 0-35.781086 24.561372z" fill="#E9573F" /><path d="M126.929605 897.071485c-8.327787-8.311787-21.843442-8.343787-30.171229 0l-15.077614 15.091614 30.155229 30.155229 15.093614-15.093614c8.327787-8.311787 8.327787-21.811442 0-30.153229z" fill="#434A54" /><path d="M628.298787 244.86416l-84.309845 27.249303 99.621453-12.405683zM778.822938 395.390311l-27.249303 84.307845 12.405683-99.619453z" opacity=".1" /><path d="M248.408499 958.221922l53.96662-26.99731a21.609448 21.609448 0 0 0 5.545859-3.999898l438.714783-438.744783a20.857467 20.857467 0 0 0 5.217867-8.499782l27.249303-84.277846 86.871779-86.871779C1021.218741 153.586493 1023.906673 26.811735 1023.968671 21.49987a21.453452 21.453452 0 0 0-6.24984-15.24961 21.403453 21.403453 0 0 0-15.24961-6.24984c-0.749981 0.031999-3.937899 0.061998-9.281763 0.623984-3.249917 32.437171-24.093384 144.744299-157.367977 278.020892l-86.873779 86.871779-27.249303 84.277845a21.683446 21.683446 0 0 1-5.217867 8.531782l-438.728783 438.744783a21.297456 21.297456 0 0 1-5.545858 3.997898l-53.96662 26.96731-26.983311 53.99662a21.305455 21.305455 0 0 1-15.671599 11.499706 21.365454 21.365454 0 0 1-18.499527-5.967847l30.171229 30.155229a21.273456 21.273456 0 0 0 18.499527 5.999846 21.471451 21.471451 0 0 0 15.671599-11.531705l26.98331-53.96662z" fill="#FFFFFF" opacity=".1" /></svg>