<?xml version="1.0" standalone="no"?><!DOCTYPE svg PUBLIC "-//W3C//DTD SVG 1.1//EN" "http://www.w3.org/Graphics/SVG/1.1/DTD/svg11.dtd"><svg class="icon" width="128px" height="128.00px" viewBox="0 0 1024 1024" version="1.1" xmlns="http://www.w3.org/2000/svg"><path d="M888.712 431.94c-0.344-0.282-33.404-29.624-60.154-88.734-15.876-35.092-26.094-73.264-30.406-113.482-5.406-50.654-1.406-104.748 11.938-160.778 2.282-9.64-2.344-19.594-11.218-24.016L713.558 2.26a21.516 21.516 0 0 0-13.124-1.954c-1.25 0.204-125.59 21.032-188.434 21.032-62.842 0-187.2-20.828-188.45-21.032a21.308 21.308 0 0 0-13.094 1.954l-85.326 42.672a21.342 21.342 0 0 0-11.218 24.016c13.218 55.452 17.282 109.03 12.094 159.246-4.124 39.984-14.11 78-29.672 112.982-26.578 59.782-60.748 90.514-61.044 90.764a21.376 21.376 0 0 0-7.282 16.062v469.336c0 33.156 39.53 59.874 117.498 79.342 70.42 17.624 165.058 27.312 266.494 27.312 101.438 0 196.058-9.688 266.496-27.312 77.968-19.468 117.498-46.186 117.498-79.342V448.002c0-6.156-2.656-12-7.282-16.062z" fill="#656D78" /><path d="M713.558 2.26a21.516 21.516 0 0 0-13.124-1.954c-1.25 0.204-125.59 21.032-188.434 21.032-62.842 0-187.2-20.828-188.45-21.032a21.308 21.308 0 0 0-13.094 1.954l-10.438 5.218c0.328 0.844 0.688 1.688 1.124 2.5 0.954 1.812 23.984 45.11 60.232 88.952C412.424 160.696 463.096 192.006 512 192.006c48.906 0 99.562-31.312 150.624-93.076 36.248-43.842 59.28-87.14 60.248-88.952 0.438-0.812 0.782-1.656 1.124-2.5l-10.438-5.218z" fill="#434A54" /><path d="M512 1023.992c101.438 0 196.058-9.688 266.496-27.312 3.718-0.906 7.312-1.876 10.812-2.812V554.656c0-1.532-0.156-3.094-0.5-4.624-0.468-2.124-12.156-53.264-51.968-104.466-36.968-47.544-106.028-104.232-224.84-104.232-118.826 0-187.856 56.688-224.84 104.232-39.81 51.204-51.498 102.342-51.982 104.466-0.328 1.532-0.5 3.094-0.5 4.624v439.21c3.532 0.938 7.11 1.906 10.828 2.812 70.42 17.626 165.058 27.314 266.494 27.314z" fill="#FFCE54" /><path d="M661.31 1016.46V618.656c0-1.5-0.188-37.438-18.25-73.532-17.248-34.576-54.06-75.794-131.06-75.794-77.014 0-113.794 41.218-131.076 75.794-18.046 36.094-18.25 72.032-18.25 73.532V1016.46c13.86 1.5 28.11 2.75 42.656 3.812V618.75c0-0.282 0.376-28.562 14.344-55.718 17.438-33.86 48.5-51.03 92.326-51.03 43.812 0 74.876 17.17 92.312 51.03 14 27.156 14.376 55.438 14.376 55.624v401.618c14.53-1.064 28.778-2.314 42.622-3.814z" fill="#F6BB42" /><path d="M298.676 533.328H85.336c-11.782 0-21.328 9.546-21.328 21.328v64c0 11.812 9.546 21.344 21.328 21.344h213.34c11.782 0 21.328-9.532 21.328-21.344v-64c0-11.78-9.546-21.328-21.328-21.328zM298.676 682.654H85.336c-11.782 0-21.328 9.562-21.328 21.344v63.998c0 11.782 9.546 21.344 21.328 21.344h213.34c11.782 0 21.328-9.562 21.328-21.344v-63.998c0-11.782-9.546-21.344-21.328-21.344zM938.68 533.328H725.308c-11.75 0-21.312 9.546-21.312 21.328v64c0 11.812 9.562 21.344 21.312 21.344H938.68c11.75 0 21.312-9.532 21.312-21.344v-64c0-11.78-9.562-21.328-21.312-21.328zM938.68 682.654H725.308c-11.75 0-21.312 9.562-21.312 21.344v63.998c0 11.782 9.562 21.344 21.312 21.344H938.68c11.75 0 21.312-9.562 21.312-21.344v-63.998c0-11.782-9.562-21.344-21.312-21.344z" fill="#ED5564" /><path d="M512 1023.992c7.156 0 14.266-0.062 21.328-0.156v-405.18c0-11.782-9.546-21.312-21.328-21.312s-21.328 9.532-21.328 21.312v405.18c7.062 0.094 14.172 0.156 21.328 0.156z" fill="#F6BB42" /></svg>