<?xml version="1.0" standalone="no"?><!DOCTYPE svg PUBLIC "-//W3C//DTD SVG 1.1//EN" "http://www.w3.org/Graphics/SVG/1.1/DTD/svg11.dtd"><svg class="icon" width="128px" height="128.00px" viewBox="0 0 1024 1024" version="1.1" xmlns="http://www.w3.org/2000/svg"><path d="M574.95 21.478A21.312 21.312 0 0 0 553.614 0.156c-5.188 0-9.936 1.844-13.622 4.936v-0.016c-2.812 2.344-68.73 58.888-50.236 191.3l42.236-5.904c-6.246-44.72-2.03-85.348 12.124-117.478 10.622-24.026 23.18-35.162 23.304-35.272l-0.156 0.14a21.28 21.28 0 0 0 7.686-16.384z" fill="#7F4545" /><path d="M512 170.76s-670.514 129.992 0 853.084c670.514-723.092 0-853.084 0-853.084z" fill="#965353" /><path d="M809.97 483.43l-57.732 57.734-90.472-90.488 110.592-110.576a282.856 282.856 0 0 0-25.024-35.302l-115.714 115.714-90.504-90.472 106.654-106.654a483.78 483.78 0 0 0-39.986-20.338l-96.814 96.83-96.19-96.19a479.206 479.206 0 0 0-39.864 20.448l105.906 105.904-90.502 90.472-114.59-114.59c-9.028 10.982-17.4 22.792-24.836 35.474l109.28 109.28-90.472 90.488-55.67-55.656c0.25 21.198 2.624 43.754 7.434 67.73l18.058 18.088-11.184 11.216c3.936 14.712 8.81 29.926 14.59 45.672l26.772-26.742 90.472 90.472-58.42 58.42c7.124 12.246 14.778 24.68 22.93 37.394l65.636-65.634 90.502 90.472-80.724 80.722a1903.878 1903.878 0 0 0 26.866 33.46l84.006-84.008 85.128 85.132a1794.616 1794.616 0 0 0 26.898-33.46l-81.88-81.848 90.504-90.472 66.884 66.884a1169.228 1169.228 0 0 0 22.994-37.332l-59.732-59.732 90.472-90.472 28.274 28.274c5.842-15.714 10.714-30.898 14.714-45.612l-12.808-12.808 20.618-20.65c4.624-23.802 6.81-46.204 6.934-67.244z m-299.002-123.226l90.504 90.472-90.504 90.488-90.504-90.488 90.504-90.472z m-120.65 301.594l-90.472-90.472 90.472-90.488 90.502 90.488-90.502 90.472z m120.65 120.652l-90.504-90.504 90.504-90.472 90.504 90.472-90.504 90.504z m120.652-120.652l-90.504-90.472 90.504-90.488 90.472 90.488-90.472 90.472z" fill="#7F4545" /></svg>