<?xml version="1.0" standalone="no"?><!DOCTYPE svg PUBLIC "-//W3C//DTD SVG 1.1//EN" "http://www.w3.org/Graphics/SVG/1.1/DTD/svg11.dtd"><svg class="icon" width="128px" height="128.00px" viewBox="0 0 1024 1024" version="1.1" xmlns="http://www.w3.org/2000/svg"><path d="M42.664 885.314c-11.782 0-21.344-9.532-21.344-21.312v-21.31c0-11.812 9.562-21.376 21.344-21.376s21.342 9.562 21.342 21.376v21.31c0 11.782-9.56 21.312-21.342 21.312z" fill="#434A54" /><path d="M298.658 138.686H42.664C19.132 138.686 0.008 157.826 0.008 181.342v42.672c0 23.53 19.124 42.67 42.656 42.67h255.994c23.532 0 42.656-19.14 42.656-42.67V181.342c0-23.516-19.124-42.656-42.656-42.656zM298.658 565.32H42.664c-23.532 0-42.656 19.156-42.656 42.686v42.688c0 23.5 19.124 42.624 42.656 42.624h255.994c23.532 0 42.656-19.124 42.656-42.624v-42.688c0-23.53-19.124-42.686-42.656-42.686z" fill="#E6E9ED" /><path d="M1002.648 224.014H21.32c-11.782 0-21.312 9.544-21.312 21.326v170.67c0 11.782 9.532 21.328 21.312 21.328h981.328c11.782 0 21.344-9.546 21.344-21.328V245.34c0-11.782-9.562-21.326-21.344-21.326z" fill="#ED5564" /><path d="M1002.648 224.014H21.32c-11.782 0-21.312 9.544-21.312 21.326v21.344c0-11.782 9.532-21.344 21.312-21.344h981.328c11.782 0 21.344 9.562 21.344 21.344V245.34c0-11.782-9.562-21.326-21.344-21.326z" fill="#FFFFFF" opacity=".2" /><path d="M0.008 352.01v64c0 11.782 9.532 21.328 21.312 21.328h981.328c11.782 0 21.344-9.546 21.344-21.328v-64H0.008z" fill="#A85D5D" /><path d="M1002.648 864.002H21.32c-11.782 0-21.312-9.562-21.312-21.31v-170.686a21.3 21.3 0 0 1 21.312-21.312h981.328c11.782 0 21.344 9.532 21.344 21.312v170.686c0 11.748-9.562 21.31-21.344 21.31z" fill="#5D9CEC" /><path d="M0.008 778.692v64c0 11.748 9.532 21.31 21.312 21.31h981.328c11.782 0 21.344-9.562 21.344-21.31v-64H0.008z" fill="#A85D5D" /><path d="M1002.648 650.694H21.32A21.3 21.3 0 0 0 0.008 672.006v21.31c0-11.748 9.532-21.31 21.312-21.31h981.328c11.782 0 21.344 9.562 21.344 21.31v-21.31c0-11.782-9.562-21.312-21.344-21.312z" fill="#FFFFFF" opacity=".2" /><path d="M938.648 608.006H682.652c-11.782 0-21.344-9.56-21.344-21.31 0-11.812 9.562-21.376 21.344-21.376h255.996c11.782 0 21.344 9.562 21.344 21.376 0 11.75-9.562 21.31-21.344 21.31zM938.648 522.68H682.652c-11.782 0-21.344-9.562-21.344-21.344s9.562-21.328 21.344-21.328h255.996c11.782 0 21.344 9.546 21.344 21.328s-9.562 21.344-21.344 21.344zM938.648 693.316H682.652c-11.782 0-21.344-9.53-21.344-21.31s9.562-21.312 21.344-21.312h255.996c11.782 0 21.344 9.532 21.344 21.312s-9.562 21.31-21.344 21.31zM938.648 778.692H682.652c-11.782 0-21.344-9.562-21.344-21.376 0-11.75 9.562-21.312 21.344-21.312h255.996c11.782 0 21.344 9.562 21.344 21.312 0 11.812-9.562 21.376-21.344 21.376zM938.648 437.354H682.652c-11.782 0-21.344-9.562-21.344-21.344s9.562-21.328 21.344-21.328h255.996c11.782 0 21.344 9.546 21.344 21.328s-9.562 21.344-21.344 21.344zM938.648 352.026H682.652c-11.782 0-21.344-9.56-21.344-21.342s9.562-21.328 21.344-21.328h255.996c11.782 0 21.344 9.546 21.344 21.328s-9.562 21.342-21.344 21.342z" fill="#F4BE8E" /><path d="M682.652 885.314c-11.782 0-21.344-9.532-21.344-21.312V224.014c0-11.782 9.562-21.328 21.344-21.328s21.344 9.546 21.344 21.328v639.988c0 11.782-9.562 21.312-21.344 21.312zM938.648 885.314c-11.782 0-21.344-9.532-21.344-21.312V224.014c0-11.782 9.562-21.328 21.344-21.328s21.344 9.546 21.344 21.328v639.988c0 11.782-9.562 21.312-21.344 21.312z" fill="#FFD2A6" /></svg>