<?xml version="1.0" standalone="no"?><!DOCTYPE svg PUBLIC "-//W3C//DTD SVG 1.1//EN" "http://www.w3.org/Graphics/SVG/1.1/DTD/svg11.dtd"><svg class="icon" width="128px" height="128.00px" viewBox="0 0 1024 1024" version="1.1" xmlns="http://www.w3.org/2000/svg"><path d="M1017.732 836.742L187.264 6.26A21.228 21.228 0 0 0 172.17 0.01a21.21 21.21 0 0 0-15.062 6.25L6.236 157.1c-8.312 8.328-8.312 21.844 0 30.172l830.5 830.468c4.124 4.188 9.624 6.25 15.062 6.25s10.938-2.062 15.062-6.25l150.872-150.842c8.312-8.344 8.312-21.844 0-30.156z m-165.934 135.75L51.516 172.194l120.654-120.686 800.312 800.296-120.684 120.688z" fill="#424953" /><path d="M511.976 1002.678c-63.718 0-125.842-12.124-184.622-35.936-60.876-24.688-115.466-60.938-162.31-107.812-46.842-46.81-83.124-101.434-107.78-162.278C33.422 637.874 21.33 575.748 21.33 512c0-63.734 12.092-125.858 35.936-184.636 24.656-60.86 60.938-115.466 107.78-162.31 46.844-46.842 101.436-83.108 162.31-107.78 58.78-23.842 120.902-35.936 184.622-35.936 63.764 0 125.888 12.092 184.636 35.936 60.874 24.672 115.498 60.938 162.31 107.78 46.874 46.844 83.124 101.452 107.808 162.31 23.812 58.78 35.938 120.904 35.938 184.636 0 63.748-12.124 125.874-35.938 184.652-24.686 60.844-60.936 115.466-107.808 162.278-46.812 46.876-101.438 83.124-162.31 107.812-58.748 23.81-120.874 35.936-184.638 35.936z" fill="#646C77" /><path d="M874.048 149.976C774.048 49.994 643.052 0.01 511.976 0.01c-131.03 0-262.058 49.984-362.026 149.966-199.934 199.934-199.934 524.114 0 724.08 99.966 99.938 230.996 149.936 362.026 149.936 131.014 0 262.072-49.998 362.072-149.966 199.934-199.936 199.934-524.116 0-724.05z m91.996 242.838l-152.934-152.918 44.938-44.92c37.998 41.374 67.874 88.498 88.936 140.404 7.624 18.794 13.936 37.966 19.06 57.434zM688.616 77.04c51.374 20.844 98.122 50.328 139.184 87.794l-44.876 44.89-151.746-151.748a470.106 470.106 0 0 1 57.438 19.064z m-176.64-34.36c15.376 0 30.624 0.734 45.764 2.188l194.996 195.028-60.31 60.342L440.32 48.134a473.312 473.312 0 0 1 71.656-5.454z m-176.622 34.36a470.452 470.452 0 0 1 55.094-18.454L662.24 330.394l-60.312 60.342L302.856 91.68a474.448 474.448 0 0 1 32.498-14.64z m-71.218 36.264L571.74 420.908l-60.326 60.342L195.576 165.396a469.236 469.236 0 0 1 68.56-52.092zM165.388 195.568l315.838 315.854-60.31 60.326L113.296 264.16c15.124-24.312 32.53-47.216 52.092-68.592z m-88.372 139.81a475.972 475.972 0 0 1 14.656-32.514l299.056 299.072-60.342 60.31L58.578 390.456a471.606 471.606 0 0 1 18.438-55.078zM42.672 512c0-24.172 1.844-48.078 5.438-71.67l252.122 252.104-60.344 60.344-195.028-195.028A472.922 472.922 0 0 1 42.672 512z m34.344 176.622a468.594 468.594 0 0 1-19.062-57.436l151.748 151.746-44.876 44.876c-37.466-41.064-66.966-87.812-87.81-139.186zM335.354 946.96c-51.874-21.032-99.03-50.906-140.402-88.906l44.936-44.936 152.904 152.904a469.64 469.64 0 0 1-57.438-19.062z m176.622 34.344c-15.344 0-30.594-0.718-45.75-2.188l-196.184-196.186 60.344-60.31 253.292 253.246a471.848 471.848 0 0 1-71.702 5.438z m176.64-34.344a474.688 474.688 0 0 1-55.062 18.468l-272.98-272.996 60.344-60.342 300.198 300.212a459.99 459.99 0 0 1-32.5 14.658z m71.246-36.28L451.07 601.936l60.344-60.342 317.01 317.024a469.664 469.664 0 0 1-68.562 52.062z m98.75-82.248L541.568 511.422l60.36-60.342 308.744 308.76a466.568 466.568 0 0 1-52.06 68.592z m88.372-139.81a460.874 460.874 0 0 1-14.688 32.5l-300.18-300.214 60.31-60.344L965.42 633.56a472.982 472.982 0 0 1-18.436 55.062zM722.614 330.394l60.31-60.328 196.184 196.184c1.5 15.14 2.188 30.39 2.188 45.75 0 24.172-1.812 48.094-5.438 71.686L722.614 330.394z" fill="#A9B1BC" /><path d="M511.602 640.372c0 117.624-95.31 212.934-212.934 212.934S85.704 757.996 85.704 640.372c0-117.606 95.342-212.962 212.964-212.962s212.934 95.356 212.934 212.962z" fill="#7F4545" /><path d="M511.602 575.998c0 117.624-95.31 212.964-212.934 212.964S85.704 693.622 85.704 575.998c0-117.606 95.342-212.95 212.964-212.95s212.934 95.344 212.934 212.95z" fill="#965353" /><path d="M938.296 448c0 117.622-95.374 212.964-212.996 212.964S512.352 565.624 512.352 448c0-117.606 95.326-212.95 212.95-212.95S938.296 330.394 938.296 448z" fill="#7F4545" /><path d="M938.296 383.626c0 117.624-95.374 212.964-212.996 212.964s-212.95-95.342-212.95-212.964c0-117.608 95.326-212.95 212.95-212.95s212.996 95.344 212.996 212.95z" fill="#965353" /><path d="M277.324 490.594c0 11.782-9.532 21.344-21.344 21.344-11.782 0-21.312-9.562-21.312-21.344s9.532-21.328 21.312-21.328c11.812 0 21.344 9.546 21.344 21.328zM362.666 490.594c0 11.782-9.562 21.344-21.344 21.344-11.78 0-21.342-9.562-21.342-21.344s9.562-21.328 21.342-21.328c11.782 0 21.344 9.546 21.344 21.328zM277.324 661.402c0 11.782-9.532 21.344-21.344 21.344-11.782 0-21.312-9.562-21.312-21.344s9.532-21.344 21.312-21.344c11.812 0 21.344 9.564 21.344 21.344zM362.666 661.402c0 11.782-9.562 21.344-21.344 21.344-11.78 0-21.342-9.562-21.342-21.344s9.562-21.344 21.342-21.344c11.782 0 21.344 9.564 21.344 21.344zM234.668 575.936c0 11.782-9.56 21.312-21.342 21.312s-21.344-9.532-21.344-21.312 9.562-21.342 21.344-21.342 21.342 9.56 21.342 21.342zM319.98 575.936c0 11.782-9.532 21.312-21.312 21.312s-21.344-9.532-21.344-21.312 9.562-21.342 21.344-21.342 21.312 9.56 21.312 21.342zM405.322 575.936c0 11.782-9.532 21.312-21.344 21.312-11.782 0-21.312-9.532-21.312-21.312s9.532-21.342 21.312-21.342c11.814 0 21.344 9.56 21.344 21.342zM703.988 298.598c0 11.782-9.562 21.344-21.31 21.344-11.812 0-21.376-9.562-21.376-21.344s9.562-21.328 21.376-21.328c11.748 0 21.31 9.546 21.31 21.328zM789.298 298.598c0 11.782-9.5 21.344-21.312 21.344s-21.312-9.562-21.312-21.344 9.5-21.328 21.312-21.328 21.312 9.546 21.312 21.328zM703.988 469.406c0 11.782-9.562 21.328-21.31 21.328-11.812 0-21.376-9.546-21.376-21.328 0-11.78 9.562-21.328 21.376-21.328 11.748 0.002 21.31 9.548 21.31 21.328zM789.298 469.406c0 11.782-9.5 21.328-21.312 21.328s-21.312-9.546-21.312-21.328c0-11.78 9.5-21.328 21.312-21.328s21.312 9.548 21.312 21.328zM661.302 383.94c0 11.782-9.5 21.328-21.312 21.328s-21.312-9.546-21.312-21.328 9.5-21.344 21.312-21.344 21.312 9.562 21.312 21.344zM746.674 383.94c0 11.782-9.56 21.328-21.374 21.328-11.75 0-21.312-9.546-21.312-21.328s9.562-21.344 21.312-21.344c11.814 0 21.374 9.562 21.374 21.344zM831.986 383.94c0 11.782-9.562 21.328-21.312 21.328-11.812 0-21.376-9.546-21.376-21.328s9.562-21.344 21.376-21.344c11.75 0 21.312 9.562 21.312 21.344z" fill="#7F4545" /></svg>