<?xml version="1.0" standalone="no"?><!DOCTYPE svg PUBLIC "-//W3C//DTD SVG 1.1//EN" "http://www.w3.org/Graphics/SVG/1.1/DTD/svg11.dtd"><svg class="icon" width="128px" height="128.00px" viewBox="0 0 1024 1024" version="1.1" xmlns="http://www.w3.org/2000/svg"><path d="M853.304 213.328c-11.782 0-21.312 9.562-21.312 21.342v127.998h42.656v-127.998c0-11.78-9.562-21.342-21.344-21.342z" fill="#434A54" /><path d="M703.996 341.324v63.998l42.654 405.35h213.338l42.656-405.35v-63.998z" fill="#E6E9ED" /><path d="M682.652 341.324h341.336v63.998H682.652z" fill="#ED5564" /><path d="M639.996 426.666c0 117.824-145.496 213.322-298.68 213.322-153.152 0-298.65-95.498-298.65-213.322 0-117.808 145.498-213.338 298.65-213.338 153.184 0 298.68 95.53 298.68 213.338z" fill="#F4BE8E" /><path d="M191.226 362.668c0 11.782-9.562 21.344-21.344 21.344s-21.312-9.562-21.312-21.344 9.532-21.344 21.312-21.344 21.344 9.562 21.344 21.344zM361.878 362.668c0 11.782-9.562 21.344-21.312 21.344-11.812 0-21.344-9.562-21.344-21.344s9.532-21.344 21.344-21.344c11.75 0 21.312 9.562 21.312 21.344zM532.562 362.668c0 11.782-9.562 21.344-21.344 21.344s-21.344-9.562-21.344-21.344 9.562-21.344 21.344-21.344 21.344 9.562 21.344 21.344zM277.318 277.326c0 11.782-9.562 21.344-21.312 21.344-11.812 0-21.344-9.562-21.344-21.344s9.532-21.312 21.344-21.312c11.75 0 21.312 9.53 21.312 21.312zM448 277.326c0 11.782-9.56 21.344-21.342 21.344s-21.344-9.562-21.344-21.344 9.562-21.312 21.344-21.312S448 265.544 448 277.326z" fill="#EAAD7A" /><path d="M42.666 682.676h597.33v127.996H42.666zM42.666 512.008h597.33v127.98H42.666z" fill="#F4BE8E" /><path d="M618.652 618.678H64.01c-23.532 0-42.686 19.124-42.686 42.624 0 23.562 19.154 42.686 42.686 42.686h554.642c23.532 0 42.656-19.124 42.656-42.686 0-23.502-19.124-42.624-42.656-42.624z" fill="#965353" /><path d="M340.566 767.986l-233.9-149.308h467.77z" fill="#FFCE54" /><path d="M618.652 448.01H64.01c-23.532 0-42.686 19.124-42.686 42.654 0 23.532 19.154 42.654 42.686 42.654h554.642c23.532 0 42.656-19.124 42.656-42.654 0-23.53-19.124-42.654-42.656-42.654z" fill="#965353" /><path d="M340.566 597.302l-233.9-149.292h467.77z" fill="#FFCE54" /><path d="M1002.644 767.986H21.324c-11.782 0-21.312 9.562-21.312 21.312 0 11.812 9.532 21.374 21.312 21.374h981.32c11.782 0 21.344-9.56 21.344-21.374 0-11.75-9.562-21.312-21.344-21.312z" fill="#434A54" /></svg>