<?xml version="1.0" standalone="no"?><!DOCTYPE svg PUBLIC "-//W3C//DTD SVG 1.1//EN" "http://www.w3.org/Graphics/SVG/1.1/DTD/svg11.dtd"><svg class="icon" width="128px" height="128.00px" viewBox="0 0 1024 1024" version="1.1" xmlns="http://www.w3.org/2000/svg"><path d="M959.992 703.988H64.008c-35.282 0-64-28.688-64-64V277.324c0-35.282 28.718-63.998 64-63.998h895.984c35.31 0 63.998 28.716 63.998 63.998v362.664c0 35.312-28.688 64-63.998 64z" fill="#FFCE54" /><path d="M0.01 639.988c0 35.312 28.718 64 64 64h95.826v-85.312H0.01v21.312z" fill="#E6E9ED" /><path d="M1023.99 298.668H106.68c-11.782 0-21.344 9.546-21.344 21.328v170.668c0 11.782 9.562 21.312 21.344 21.312h917.31V298.668z" fill="#4FC2E9" /><path d="M192.006 597.302c-58.812 0-106.67 47.874-106.67 106.686 0 58.81 47.858 106.686 106.67 106.686s106.67-47.876 106.67-106.686c0-58.812-47.858-106.686-106.67-106.686zM789.306 597.302c-58.81 0-106.624 47.874-106.624 106.686 0 58.81 47.812 106.686 106.624 106.686 58.842 0 106.686-47.876 106.686-106.686 0-58.812-47.844-106.686-106.686-106.686z" fill="#434A54" /><path d="M207.1 688.926c8.328 8.312 8.328 21.812 0 30.124-8.344 8.376-21.844 8.376-30.17 0-8.344-8.312-8.344-21.812 0-30.124 8.326-8.376 21.826-8.376 30.17 0z" fill="#F5F7FA" /><path d="M362.674 512.07h256.01v191.918H362.674z" fill="#E6E9ED" /><path d="M804.432 688.926c8.312 8.312 8.312 21.812 0 30.124-8.344 8.376-21.874 8.376-30.186 0-8.312-8.312-8.312-21.812 0-30.124 8.312-8.376 21.842-8.376 30.186 0z" fill="#F5F7FA" /><path d="M480 298.668h21.328v405.32H480z" fill="#E6E9ED" /><path d="M190.616 512.07l-0.658-213.402 42.672-0.126 0.656 213.372zM768.308 512.07l-0.624-213.402 42.622-0.126 0.688 213.372z" fill="#3BAFDA" /><path d="M362.674 298.668h256.012v405.32h21.31V277.324H341.332v426.664h21.342zM1023.99 554.678h-63.998c-11.782 0-21.312 9.5-21.312 21.312s9.532 21.312 21.312 21.312h63.998v-42.624z" fill="#E6E9ED" /></svg>