<?xml version="1.0" standalone="no"?><!DOCTYPE svg PUBLIC "-//W3C//DTD SVG 1.1//EN" "http://www.w3.org/Graphics/SVG/1.1/DTD/svg11.dtd"><svg class="icon" width="128px" height="128.00px" viewBox="0 0 1024 1024" version="1.1" xmlns="http://www.w3.org/2000/svg"><path d="M917.25 469.338c0 11.78-9.56 21.338-21.34 21.338H128.088c-11.78 0-21.338-9.56-21.338-21.338V21.442c0-11.78 9.558-21.324 21.338-21.324h767.822c11.78 0 21.34 9.544 21.34 21.324v447.896z" fill="#A0D468" /><path d="M917.25 1002.574c0 11.748-9.56 21.308-21.34 21.308H128.088c-11.78 0-21.338-9.56-21.338-21.308V554.678c0-11.794 9.558-21.354 21.338-21.354h767.822c11.78 0 21.34 9.558 21.34 21.354v447.896zM318.952 362.706l110.318-183.848 110.316 183.848z" fill="#E6E9ED" /><path d="M410.898 362.706l147.06-257.394 147.09 257.394z" fill="#F5F7FA" /><path d="M618.63 853.234H405.368c-11.778 0-21.338-9.53-21.338-21.308s9.56-21.306 21.338-21.306h213.264c11.78 0 21.338 9.53 21.338 21.306-0.002 11.78-9.56 21.308-21.34 21.308zM725.292 767.942H298.706c-11.78 0-21.306-9.56-21.306-21.308 0-11.808 9.528-21.37 21.306-21.37h426.588c11.78 0 21.308 9.56 21.308 21.37 0 11.746-9.53 21.308-21.31 21.308z" fill="#434A54" /></svg>