<?xml version="1.0" standalone="no"?><!DOCTYPE svg PUBLIC "-//W3C//DTD SVG 1.1//EN" "http://www.w3.org/Graphics/SVG/1.1/DTD/svg11.dtd"><svg class="icon" width="128px" height="128.00px" viewBox="0 0 1024 1024" version="1.1" xmlns="http://www.w3.org/2000/svg"><path d="M0.4 405.408h639.5v383.714H0.4z" fill="#A0D468" /><path d="M682.552 234.886c-263.808-1.282-429.818 136.314-425.526 170.29l383.248 0.484v65.042c-139.968 0-269.882 49.508-255.128 107.242 13.224 51.804 595.8 153.88 638.454-44.636v-123.23s-280.47-174.912-341.048-175.192z" fill="#EAC6BB" /><path d="M106.988 618.6h85.262c11.772 0 21.31-9.554 21.31-21.326s-9.54-21.326-21.31-21.326H106.988c-11.772 0-21.326 9.554-21.326 21.326S95.216 618.6 106.988 618.6zM320.15 661.222H106.988c-11.772 0-21.326 9.556-21.326 21.328s9.554 21.294 21.326 21.294h213.162c11.772 0 21.31-9.524 21.31-21.294s-9.538-21.328-21.31-21.328z" fill="#434A54" /></svg>