<?xml version="1.0" standalone="no"?><!DOCTYPE svg PUBLIC "-//W3C//DTD SVG 1.1//EN" "http://www.w3.org/Graphics/SVG/1.1/DTD/svg11.dtd"><svg class="icon" width="128px" height="128.00px" viewBox="0 0 1024 1024" version="1.1" xmlns="http://www.w3.org/2000/svg"><path d="M650.448 0.4H0.284v1023.2h778.062V128.3z" fill="#E6E9ED" /><path d="M179.642 831.75l27.556-27.572c8.322-8.338 8.338-21.826 0-30.132-8.322-8.336-21.81-8.336-30.148 0l-27.556 27.542-27.556-27.542c-8.322-8.336-21.826-8.336-30.148 0-8.32 8.306-8.32 21.794 0 30.132l27.556 27.572-27.556 27.542c-8.32 8.338-8.32 21.826 0 30.164a21.314 21.314 0 0 0 30.148 0l27.556-27.572 27.556 27.572a21.312 21.312 0 0 0 30.148 0c8.338-8.338 8.322-21.826 0-30.164l-27.556-27.542zM659.252 533.31l27.572-27.554c8.338-8.322 8.338-21.828 0-30.148-8.338-8.322-21.826-8.322-30.132 0l-27.572 27.556-27.572-27.556c-8.306-8.322-21.794-8.322-30.132 0-8.338 8.32-8.338 21.826 0 30.148l27.572 27.554-27.572 27.558c-8.338 8.336-8.338 21.826 0 30.132 4.154 4.184 9.62 6.244 15.082 6.244 5.434 0 10.896-2.06 15.05-6.244l27.572-27.542 27.572 27.542a21.134 21.134 0 0 0 15.05 6.244c5.464 0 10.928-2.06 15.082-6.244 8.338-8.306 8.338-21.796 0-30.132l-27.572-27.558zM222.282 234.874l27.556-27.556c8.322-8.322 8.322-21.81 0-30.148-8.322-8.322-21.826-8.322-30.148 0l-27.556 27.556-27.558-27.558c-8.338-8.322-21.826-8.322-30.148 0-8.322 8.338-8.322 21.826 0 30.148l27.556 27.556-27.556 27.556c-8.322 8.338-8.322 21.826 0 30.148a21.206 21.206 0 0 0 15.066 6.244c5.464 0 10.914-2.076 15.082-6.244l27.556-27.556 27.556 27.556a21.242 21.242 0 0 0 15.082 6.244c5.45 0 10.898-2.076 15.066-6.244 8.322-8.322 8.322-21.81 0-30.148l-27.554-27.554z" fill="#ED5564" /><path d="M469.244 341.46h-63.95c-11.772 0-21.312 9.542-21.312 21.312s9.542 21.326 21.312 21.326h12.49l-155.458 155.458c-8.322 8.322-8.322 21.842 0 30.148l85.262 85.246a21.176 21.176 0 0 0 15.082 6.244c5.45 0 10.896-2.06 15.066-6.244 8.32-8.306 8.32-21.796 0-30.132l-70.196-70.196 140.39-140.39v12.49c0 11.774 9.54 21.328 21.31 21.328 11.774 0 21.328-9.554 21.328-21.328v-63.95c0.004-11.77-9.55-21.312-21.324-21.312z" fill="#8CC153" /><path d="M469.244 661.196c0 47.088-38.174 85.278-85.262 85.278s-85.262-38.19-85.262-85.278 38.174-85.244 85.262-85.244 85.262 38.156 85.262 85.244z" fill="#A0D468" /><path d="M966.762 671.876H910.12l-56.958 198.968 85.278 56.832 85.276-56.832z" fill="#E6E9ED" /><path d="M938.44 96.308c-47.12 0-85.278 38.174-85.278 85.278v575.536h170.554V181.586c0-47.104-38.186-85.278-85.276-85.278z" fill="#656D78" /><path d="M650.448 0.4v127.9h127.898zM917.114 799.776c0 11.772 9.554 21.294 21.326 21.294 11.774 0 21.328-9.524 21.328-21.294v-42.654h-42.654v42.654z" fill="#CCD1D9" /></svg>