<?xml version="1.0" standalone="no"?><!DOCTYPE svg PUBLIC "-//W3C//DTD SVG 1.1//EN" "http://www.w3.org/Graphics/SVG/1.1/DTD/svg11.dtd"><svg class="icon" width="128px" height="128.00px" viewBox="0 0 1024 1024" version="1.1" xmlns="http://www.w3.org/2000/svg"><path d="M277.35 874.676c-11.78 0-21.342-9.562-21.342-21.374V746.68c0-11.812 9.562-21.376 21.342-21.376 11.782 0 21.312 9.562 21.312 21.376v106.624c0.002 11.81-9.53 21.372-21.312 21.372zM746.648 874.676c-11.782 0-21.312-9.562-21.312-21.374V746.68c0-11.812 9.532-21.376 21.312-21.376s21.344 9.562 21.344 21.376v106.624c0 11.81-9.562 21.372-21.344 21.372z" fill="#434A54" /><path d="M917.332 298.678H106.668c-11.78 0-21.312 9.546-21.312 21.328V746.68c0 11.75 9.532 21.312 21.312 21.312h810.664c11.782 0 21.312-9.562 21.312-21.312V320.006c0-11.782-9.53-21.328-21.312-21.328z" fill="#E6E9ED" /><path d="M106.668 895.988c-11.78 0-21.312-9.562-21.312-21.312V234.68c0-11.782 9.532-21.344 21.312-21.344 11.782 0 21.344 9.562 21.344 21.344v639.996c0 11.75-9.562 21.312-21.344 21.312zM917.332 895.988c-11.782 0-21.344-9.562-21.344-21.312V234.68c0-11.782 9.562-21.344 21.344-21.344s21.312 9.562 21.312 21.344v639.996c0 11.75-9.53 21.312-21.312 21.312z" fill="#656D78" /><path d="M1017.734 219.586l-85.34-85.324c-4-4-9.406-6.25-15.062-6.25H106.668a21.286 21.286 0 0 0-15.062 6.25L6.264 219.586A21.334 21.334 0 0 0 1.64 242.836a21.368 21.368 0 0 0 19.718 13.172H1002.64c8.624 0 16.406-5.204 19.718-13.172s1.47-17.14-4.624-23.25z" fill="#ED5564" /><path d="M128.012 895.988H85.356c-11.782 0-21.342-9.562-21.342-21.312 0-11.812 9.562-21.374 21.342-21.374h42.656c11.78 0 21.342 9.56 21.342 21.374 0 11.75-9.562 21.312-21.342 21.312zM938.644 895.988h-42.656c-11.782 0-21.344-9.562-21.344-21.312 0-11.812 9.562-21.374 21.344-21.374h42.656c11.78 0 21.342 9.56 21.342 21.374 0 11.75-9.562 21.312-21.342 21.312z" fill="#434A54" /><path d="M789.336 661.308H234.666c-11.782 0-21.312 9.562-21.312 21.374v63.998c0 11.75 9.532 21.312 21.312 21.312h554.67c11.782 0 21.31-9.562 21.31-21.312v-63.998c0-11.81-9.528-21.374-21.31-21.374z" fill="#965353" /><path d="M746.648 384.004H277.35c-11.78 0-21.342 9.546-21.342 21.328v170.666c0 11.782 9.562 21.31 21.342 21.31h469.298c11.782 0 21.344-9.53 21.344-21.31v-170.666c0-11.782-9.562-21.328-21.344-21.328z" fill="#FFCE54" /><path d="M490.658 384.004h42.686v213.304h-42.686z" fill="#F6BB42" /></svg>