<?xml version="1.0" standalone="no"?><!DOCTYPE svg PUBLIC "-//W3C//DTD SVG 1.1//EN" "http://www.w3.org/Graphics/SVG/1.1/DTD/svg11.dtd"><svg class="icon" width="128px" height="128.00px" viewBox="0 0 1024 1024" version="1.1" xmlns="http://www.w3.org/2000/svg"><path d="M588.094 641.748c4.156-4.156 4.156-10.938 0-15.124l-60.516-60.53a10.748 10.748 0 0 0-15.138 0L145.862 932.704c-20.858 20.844-20.858 54.782 0 75.654 20.828 20.81 54.748 20.842 75.606 0.032l366.626-366.642z" fill="#DA4453" /><path d="M512.44 566.094c4.168-4.156 4.168-10.938 0-15.124l-60.514-60.5a10.696 10.696 0 0 0-15.14 0L70.208 857.05c-20.858 20.844-20.858 54.78 0 75.652 20.828 20.812 54.75 20.844 75.608 0.032l366.624-366.64z" fill="#ED5564" /><path d="M860.424 369.414L588.094 641.748a21.388 21.388 0 0 1-30.282 0l-121.026-121.028a21.506 21.506 0 0 1-6.264-15.126c0-5.688 2.264-11.124 6.264-15.124L920.956 6.302A21.406 21.406 0 0 1 940.986 0.584a21.468 21.468 0 0 1 15.406 14.062c0.656 2.032 16.374 50.092 12.404 117.714-3.688 62.372-25.468 154.15-108.372 237.054zM327.416 720.87a21.366 21.366 0 0 1-30.264 0c-8.342-8.344-8.342-21.906 0-30.248a21.366 21.366 0 0 1 30.264 0c8.36 8.34 8.36 21.904 0 30.248zM387.944 781.396c-8.358 8.344-21.904 8.344-30.264 0-8.36-8.342-8.36-21.904 0-30.248a21.37 21.37 0 0 1 30.264 0c8.344 8.344 8.344 21.906 0 30.248zM297.152 872.176c-8.342 8.344-21.89 8.344-30.25 0-8.358-8.344-8.358-21.906 0-30.25 8.344-8.376 21.906-8.376 30.25 0 8.358 8.344 8.358 21.906 0 30.25zM236.638 811.644a21.366 21.366 0 0 1-30.264 0c-8.36-8.344-8.36-21.904 0-30.248 8.358-8.342 21.906-8.342 30.264 0 8.36 8.344 8.36 21.904 0 30.248z" fill="#CCD1D9" /><path d="M603.216 656.902c-8.342 8.344-21.904 8.344-30.248 0l-151.306-151.308a21.414 21.414 0 0 1 0-30.28c8.36-8.342 21.906-8.342 30.264 0l151.29 151.308c8.344 8.376 8.344 21.908 0 30.28z" fill="#434A54" /><path d="M572.968 445.066c-8.376 8.344-21.906 8.344-30.266 0s-8.36-21.906 0-30.248l181.542-181.586a21.44 21.44 0 0 1 30.278 0c8.344 8.376 8.344 21.906 0 30.28l-181.554 181.554z" fill="#AAB2BC" /><path d="M372.806 705.744l30.264-30.248-75.654-75.654-30.264 30.25z" opacity=".1" /><path d="M448.458 781.396l30.264-30.248-75.652-75.652-30.264 30.248zM191.25 887.298l30.264-30.248-75.652-75.654-30.266 30.248z" opacity=".1" /><path d="M266.902 962.954l30.25-30.25-75.638-75.654-30.264 30.248z" opacity=".1" /></svg>