<?xml version="1.0" standalone="no"?><!DOCTYPE svg PUBLIC "-//W3C//DTD SVG 1.1//EN" "http://www.w3.org/Graphics/SVG/1.1/DTD/svg11.dtd"><svg class="icon" width="128px" height="128.00px" viewBox="0 0 1024 1024" version="1.1" xmlns="http://www.w3.org/2000/svg"><path d="M810.682 908.124c0 11.782-9.562 21.344-21.376 21.344H149.334c-11.782 0-21.328-9.562-21.328-21.344V481.492c0-11.782 9.546-21.342 21.328-21.342h639.972c11.812 0 21.376 9.562 21.376 21.342v426.632z" fill="#FFE3AB" /><path d="M584.654 414.368l-51.576 82.03S201.286 344.526 86.446 272.34c-38.28-24.062-59.078-75.966-25.124-129.966 33.936-54 89.716-57.75 127.998-33.686 114.84 72.184 395.334 305.68 395.334 305.68z" fill="#CBD0D8" /><path d="M500.188 548.724l-9.094-70.484 58.966-93.78 456.054 286.602c0.002 0.002 26.188 212.154-505.926-122.338z" fill="#E5E8EC" /><path d="M639.998 908.124c0 11.782 9.562 21.344 21.312 21.344h213.372c11.75 0 21.31-9.562 21.31-21.344V481.492c0-11.782-9.56-21.342-21.31-21.342H661.31c-11.75 0-21.312 9.562-21.312 21.342v426.632z" fill="#FFEBBD" /><path d="M725.308 545.474c0 11.782 9.562 21.342 21.374 21.342 11.75 0 21.312-9.56 21.312-21.342v-85.326h-42.686v85.326zM831.994 822.812c0-11.782-9.562-21.344-21.312-21.344-11.812 0-21.376 9.562-21.376 21.344v75.31h42.688v-75.31z" fill="#FFFFFF" opacity=".3" /><path d="M341.332 460.148v149.324c0 11.782 9.562 21.344 21.344 21.344s21.328-9.562 21.328-21.344v-149.324h-42.672zM213.334 545.474c0 11.782 9.562 21.342 21.342 21.342 11.782 0 21.328-9.56 21.328-21.342v-85.326h-42.67v85.326z" fill="#FFFFFF" opacity=".3" /><path d="M1002.678 886.81H21.338c-11.782 0-21.328 9.532-21.328 21.312s9.546 21.344 21.328 21.344h981.34c11.75 0 21.312-9.562 21.312-21.344s-9.562-21.312-21.312-21.312z" fill="#424953" /></svg>