<?xml version="1.0" standalone="no"?><!DOCTYPE svg PUBLIC "-//W3C//DTD SVG 1.1//EN" "http://www.w3.org/Graphics/SVG/1.1/DTD/svg11.dtd"><svg class="icon" width="128px" height="128.00px" viewBox="0 0 1024 1024" version="1.1" xmlns="http://www.w3.org/2000/svg"><path d="M533.316 412.556a21.22 21.22 0 0 1-12.25-3.876c-9.64-6.78-11.968-20.092-5.188-29.716l63.998-91.058c6.782-9.654 20.094-11.966 29.75-5.188 9.624 6.75 11.936 20.06 5.188 29.716l-64.032 91.06a21.316 21.316 0 0 1-17.466 9.062z" fill="#434A54" /><path d="M490.678 412.556a21.32 21.32 0 0 1-17.468-9.06l-64.012-91.06c-6.766-9.656-4.454-22.966 5.188-29.716 9.64-6.78 22.952-4.466 29.734 5.188l63.996 91.058c6.78 9.624 4.454 22.938-5.186 29.716a21.244 21.244 0 0 1-12.252 3.874z" fill="#434A54" /><path d="M301.17 899.118c-14.968 0-29.828-3.624-44.156-10.876-104.792-52.748-160.4-114.684-165.274-184.182-7.218-102.932 100.76-179.07 105.37-182.256a21.274 21.274 0 0 1 13.328-3.75l260.068 14.404a21.322 21.322 0 0 1 20.156 21.296v128.804a21.84 21.84 0 0 1-1.312 7.438c-0.766 2.062-19.092 51.312-49.888 101.374-43.984 71.498-90.512 107.748-138.292 107.748zM722.84 899.118c-47.782 0-94.308-36.25-138.306-107.746-30.782-50.06-49.124-99.31-49.876-101.374a21.426 21.426 0 0 1-1.326-7.438v-128.804a21.324 21.324 0 0 1 20.17-21.296l260.052-14.404a21.32 21.32 0 0 1 13.344 3.75c4.594 3.186 112.588 79.324 105.37 182.256-4.876 69.498-60.496 131.434-165.276 184.182-14.342 7.248-29.186 10.874-44.152 10.874z" fill="#DA4453" /><path d="M746.682 748.184c0 11.812-9.532 21.376-21.342 21.376-11.782 0-21.312-9.562-21.312-21.376 0-11.748 9.532-21.31 21.312-21.31 11.81 0 21.342 9.562 21.342 21.31zM789.368 662.876c0 11.75-9.562 21.31-21.344 21.31-11.78 0-21.342-9.56-21.342-21.31 0-11.812 9.562-21.374 21.342-21.374s21.344 9.56 21.344 21.374zM704.028 662.876c0 11.75-9.562 21.31-21.344 21.31s-21.344-9.56-21.344-21.31c0-11.812 9.562-21.374 21.344-21.374s21.344 9.56 21.344 21.374zM277.312 662.876c0 11.75-9.546 21.31-21.328 21.31-11.78 0-21.342-9.56-21.342-21.31 0-11.812 9.562-21.374 21.342-21.374 11.782 0 21.328 9.56 21.328 21.374zM362.652 662.876c0 11.75-9.546 21.31-21.328 21.31-11.796 0-21.342-9.56-21.342-21.31 0-11.812 9.546-21.374 21.342-21.374 11.782 0 21.328 9.56 21.328 21.374zM319.982 748.184c0 11.812-9.546 21.376-21.326 21.376-11.796 0-21.344-9.562-21.344-21.376 0-11.748 9.546-21.31 21.344-21.31 11.778 0 21.326 9.562 21.326 21.31z" opacity=".1" /><path d="M469.334 575.066h-1.188l-341.97-18.936a23.026 23.026 0 0 1-4.61-0.812c-24.452-6.876-41.406-37.076-54.952-97.952-7.188-32.342-11.062-63.308-12.218-73.34-5.312-12.438-25.156-60.216-39.388-111.932-24.546-89.248-19-142.028 16.968-161.4 6.876-3.688 14.984-5.562 24.124-5.562 54.716 0 154.448 71.122 229.522 137.712 98.996 87.778 175.07 182.618 203.506 253.708a21.28 21.28 0 0 1 1.532 7.938v49.264c0 5.876-2.406 11.438-6.672 15.498a21.312 21.312 0 0 1-14.654 5.814zM554.69 575.066a21.354 21.354 0 0 1-14.688-5.812 21.4 21.4 0 0 1-6.67-15.498v-49.264c0-2.718 0.514-5.406 1.53-7.938 28.454-71.092 104.514-165.932 203.508-253.708 75.092-66.592 174.806-137.712 229.522-137.712 9.156 0 17.25 1.876 24.124 5.562 35.966 19.374 41.53 72.152 16.966 161.4-14.216 51.714-34.06 99.494-39.374 111.932-1.156 10.032-5.03 40.998-12.216 73.34-13.562 60.876-30.5 91.076-54.966 97.952-1.5 0.438-3.032 0.688-4.594 0.812l-341.986 18.936-1.156-0.002z" fill="#ED5564" /><path d="M512.004 364.152c-35.296 0-64.014 28.718-64.014 64.03v426.688c0 35.31 28.718 63.998 63.998 63.998 35.294 0 64.012-28.688 64.012-63.998V428.182c0.002-35.31-28.716-64.03-63.996-64.03z" fill="#656D78" /><path d="M447.992 428.182h128.01v42.654h-128.01zM447.992 812.182h128.01v42.688h-128.01zM447.992 726.874h128.01v42.686h-128.01zM447.992 641.502h128.01v42.684h-128.01zM447.992 556.194h128.01v42.686h-128.01z" fill="#434A54" /><path d="M789.368 342.842c-35.31 0-64.028 28.686-64.028 63.998 0 35.28 28.716 63.996 64.028 63.996 35.282 0 63.998-28.716 63.998-63.996 0-35.312-28.718-63.998-63.998-63.998zM234.642 342.842c-35.296 0-63.998 28.686-63.998 63.998 0 35.28 28.702 63.996 63.998 63.996s64.014-28.716 64.014-63.996c0-35.312-28.718-63.998-64.014-63.998z" fill="#FFCE54" /></svg>