<?xml version="1.0" standalone="no"?><!DOCTYPE svg PUBLIC "-//W3C//DTD SVG 1.1//EN" "http://www.w3.org/Graphics/SVG/1.1/DTD/svg11.dtd"><svg class="icon" width="128px" height="128.00px" viewBox="0 0 1024 1024" version="1.1" xmlns="http://www.w3.org/2000/svg"><path d="M703.967306 68.883751c-115.279583-76.467724-306.070894-16.68794-306.070894-16.68794l-69.999747 139.027498 38.435861 55.623799 354.102721-12.529955c0.002 0 98.841643-88.967679-16.467941-165.433402z" fill="#81AF46" /><path d="M612.031639 199.661279l-25.435909-65.497764-66.435759-62.655773S387.178451 0.008 329.006661 18.383934C170.011236 68.633752 166.605248 335.908786 166.605248 335.908786s-39.091859 398.958558 119.683568 602.985822c91.23167 117.213576 227.07318 79.215714 227.073179 79.215713l62.983773-116.403579-1.375996-362.896689 37.061867-339.148774z" fill="#8CC153" /><path d="M426.31831 220.005205c5.061982-10.623962 0.561998-23.375916-10.077964-28.437897-10.639962-5.061982-23.373916-0.561998-28.435897 10.093963-2.281992 4.749983-55.873798 118.653571-73.279735 282.27498-4.811983 45.341836-6.359977 90.091674-4.609984 133.935516-22.07792-38.437861-31.515886-94.875657-33.515879-120.279565-0.905997-11.749958-11.16996-20.531926-22.905917-19.623929-11.749958 0.905997-20.545926 11.15596-19.623929 22.905917 0.11 1.531994 3.031989 38.029863 14.889946 78.997715 15.045946 51.965812 37.405865 87.465684 66.52976 105.747618a806.701085 806.701085 0 0 0 12.827953 76.091725c20.483926 93.685661 57.701792 181.339345 110.8256 261.243056 20.451926 1.905993 38.327862 0.875997 51.419814-0.717998-58.529789-81.279706-99.013642-171.58938-120.373565-268.775028-18.341934-83.373699-22.779918-172.057378-13.185952-263.555048 16.359941-156.279435 68.687752-268.151031 69.515749-269.901025z" opacity=".1" /><path d="M576.345768 901.704742l-1.375996-362.896689 37.059867-339.146774-23.591915-60.779781c-0.749997 2.561991-2.061993 4.749983-4.311985 6.373977-12.811954 9.281966-14.687947-2.81199-51.247814 7.437973-36.577868 10.217963-51.921812 30.155891-62.187776 63.029773-10.265963 32.873881 55.781798 76.935722 47.531829 103.809624-8.23597 26.873903-58.937787 45.465836-65.873762 77.873719-6.937975 32.405883 46.669831 54.029805 53.075808 87.715683 6.389977 33.715878 9.141967 58.591788-1.843994 86.465688-10.96796 27.875899-59.465785 53.841805-73.201735 111.309597-13.71795 57.465792 71.373742 175.213367 66.811759 222.461197-4.577983 47.281829-17.515937 116.059581 11.763957 112.841592 16.407941-1.811993 22.329919-1.843993 36.515868-3.967986l30.875889-112.527593z" opacity=".05" /><path d="M801.932952 658.055622c61.875776-278.118995 115.215584-435.550426-53.529806-639.483689-54.185804-65.497763-95.809654 62.247775-110.903599 76.653723-15.093945 14.375948 2.093992 40.781853-10.717962 50.029819-12.811954 9.281966-14.687947-2.81199-51.247815 7.437973-36.559868 10.217963-51.903812 30.155891-62.169775 63.029773-10.263963 32.873881 55.763799 76.935722 47.545828 103.809624-8.24997 26.873903-58.965787 45.465836-65.903762 77.873719-6.921975 32.405883 46.671831 54.029805 53.093809 87.715683 6.403977 33.715878 9.153967 58.591788-1.843994 86.465688-10.98396 27.875899-59.483785 53.841805-73.203735 111.309597-13.73395 57.465792 71.389742 175.213367 66.795758 222.461197-4.577983 47.281829-55.765799 115.965581-26.485904 112.747592 182.355341-20.025928 218.947209-47.213829 288.570957-360.050699z" fill="#A0D468" /><path d="M758.465109 396.968566c-11.781957 0.781997-20.655925 10.93796-19.875928 22.685918 0.032 0.437998 2.87599 45.749835-6.435976 96.247652-8.093971 43.811842-21.781921 72.687737-36.655868 91.717668 0.499998-4.123985 0.967997-8.24997 1.405995-12.405955 17.655936-163.027411 13.405952-302.024909 13.375952-303.398903-0.405999-11.781957-10.249963-20.999924-22.031921-20.623926s-20.999924 10.249963-20.623925 21.999921c0.032 1.375995 4.187985 137.839502-13.187953 297.960923-20.843925 192.089306-63.65377 338.052779-124.35555 425.050464 20.451926-2.467991 38.919859-5.123981 55.763798-8.467969 24.84191-43.341843 46.247833-96.123653 63.903769-157.80743 15.249945-53.215808 27.8119-113.247591 37.531865-179.121353 105.495619-59.747784 94.401659-245.837112 93.87166-253.961082-0.779997-11.781957-10.93596-20.687925-22.685918-19.875928z" opacity=".1" /></svg>