<?xml version="1.0" standalone="no"?><!DOCTYPE svg PUBLIC "-//W3C//DTD SVG 1.1//EN" "http://www.w3.org/Graphics/SVG/1.1/DTD/svg11.dtd"><svg class="icon" width="128px" height="128.00px" viewBox="0 0 1024 1024" version="1.1" xmlns="http://www.w3.org/2000/svg"><path d="M448.002 394.66h-85.326c-11.78 0-21.342-9.562-21.342-21.342 0-11.782 9.562-21.312 21.342-21.312h85.326c11.78 0 21.326 9.532 21.326 21.312 0.002 11.78-9.544 21.342-21.326 21.342zM661.306 394.66h-85.308c-11.782 0-21.31-9.562-21.31-21.342a21.296 21.296 0 0 1 21.31-21.312h85.308c11.812 0 21.376 9.532 21.376 21.312 0 11.78-9.562 21.342-21.376 21.342z" fill="#FFCE54" /><path d="M384.004 309.32H192.012c-77.09 0-137.198 35.31-169.244 99.402C0.66 452.94 0.02 496.5 0.02 501.312v405.36h127.996V501.968c0.094-2.094 1.124-20.25 9.608-36.75 6.688-13 18.906-27.904 54.39-27.904H384.006V309.32h-0.002zM1001.23 408.722c-32.06-64.09-92.152-99.402-169.242-99.402H639.994V437.316H831.988c35.496 0 47.684 14.906 54.372 27.904 8.5 16.5 9.532 34.656 9.624 36.78V906.672H1023.982v-405.36c-0.002-4.812-0.626-48.372-22.752-92.59z" fill="#4A89DC" /><path d="M341.334 352.004H192.012c-77.012 0-113.792 41.218-131.074 75.78-18.046 36.092-18.25 72.028-18.25 73.528v405.36h42.656V501.406c0-0.282 0.376-28.562 14.342-55.716 17.438-33.844 48.498-51.03 92.326-51.03h191.992v-42.656h-42.67z" fill="#5D9CEC" /><path d="M512 245.322c-11.782 0-21.328-9.532-21.328-21.312V138.668c0-11.78 9.546-21.34 21.328-21.34s21.328 9.56 21.328 21.34v85.342c0 11.782-9.546 21.312-21.328 21.312zM512 629.306c-11.782 0-21.328-9.5-21.328-21.31v-85.342c0-11.78 9.546-21.342 21.328-21.342s21.328 9.562 21.328 21.342v85.342c0 11.81-9.546 21.31-21.328 21.31zM437.362 265.352a21.35 21.35 0 0 1-18.5-10.688l-42.67-73.902c-5.89-10.188-2.39-23.25 7.812-29.124 10.204-5.906 23.25-2.406 29.14 7.812l42.67 73.904c5.89 10.188 2.39 23.25-7.812 29.124a21.264 21.264 0 0 1-10.64 2.874zM629.37 597.934c-7.374 0-14.56-3.874-18.498-10.686l-42.686-73.936c-5.876-10.188-2.376-23.25 7.812-29.124 10.188-5.906 23.248-2.406 29.124 7.812l42.686 73.874a21.416 21.416 0 0 1-7.812 29.188 21.33 21.33 0 0 1-10.626 2.872zM394.646 597.872c-3.61 0-7.282-0.874-10.64-2.81a21.388 21.388 0 0 1-7.812-29.188L418.864 492c5.89-10.218 18.936-13.718 29.14-7.812 10.202 5.876 13.702 18.938 7.812 29.124l-42.67 73.936c-3.954 6.812-11.126 10.624-18.5 10.624zM586.624 265.352c-3.594 0-7.25-0.938-10.624-2.876-10.188-5.876-13.688-18.936-7.812-29.124l42.686-73.904c5.876-10.218 18.936-13.718 29.124-7.812 10.188 5.876 13.688 18.938 7.812 29.124l-42.686 73.902a21.336 21.336 0 0 1-18.5 10.69z" fill="#AC92EB" /><path d="M963.044 427.784c-17.248-34.562-54.06-75.78-131.056-75.78h-191.994v42.656h191.994c43.808 0 74.872 17.186 92.308 51.03 14 27.154 14.344 55.434 14.376 55.716v405.266h42.624v-405.36c-0.002-1.5-0.188-37.436-18.252-73.528z" fill="#5D9CEC" /></svg>