<?xml version="1.0" standalone="no"?><!DOCTYPE svg PUBLIC "-//W3C//DTD SVG 1.1//EN" "http://www.w3.org/Graphics/SVG/1.1/DTD/svg11.dtd"><svg class="icon" width="128px" height="128.00px" viewBox="0 0 1024 1024" version="1.1" xmlns="http://www.w3.org/2000/svg"><path d="M607.938 168.792c-4.094 0-8.312-0.156-12.624-0.468-11.75-0.876-20.562-11.124-19.718-22.876 0.876-11.75 11.124-20.562 22.876-19.686 25.25 1.876 45.156-3.812 54.624-15.656 4.876-6.062 4.968-11.218 4.718-12.5-3.594-6.312-6.782-8.812-8.594-9.032-4.032-0.468-11.782 4.938-14.624 8.032-8 8.656-21.5 9.218-30.156 1.25a21.37 21.37 0 0 1-1.25-30.156c2.344-2.532 23.656-24.686 51-21.5 11.594 1.344 28.092 7.812 41.03 30.842 8.438 15.062 6.688 36.124-4.438 53.656-8.062 12.656-20.436 22.812-35.78 29.342-13.658 5.814-29.44 8.752-47.064 8.752z" fill="#CCD1D9" /><path d="M938.648 210.164H85.344c-11.782 0-21.342 9.532-21.342 21.312v85.342c0 11.78 9.562 21.312 21.342 21.312h853.304c11.78 0 21.31-9.532 21.31-21.312v-85.342c0-11.78-9.53-21.312-21.31-21.312z" fill="#FFCE54" /><path d="M981.3 466.126H42.672c-11.78 0-21.328 9.562-21.328 21.342v469.3c0 11.78 9.546 21.342 21.328 21.342H981.3c11.782 0 21.344-9.562 21.344-21.342v-469.3c0-11.78-9.562-21.342-21.344-21.342z" fill="#E6E9ED" /><path d="M85.344 615.464H341.32v213.306H85.344zM682.654 615.464h255.994v213.306H682.654z" fill="#4FC2E9" /><path d="M597.312 594.124h-170.666c-11.782 0-21.328 9.56-21.328 21.342v341.304c0 11.78 9.546 21.342 21.328 21.342h170.666c11.782 0 21.344-9.562 21.344-21.342V615.464c0-11.78-9.562-21.34-21.344-21.34z" fill="#FFCE54" /><path d="M1021.238 434.314l-63.53-127.028a21.314 21.314 0 0 0-19.06-11.812H85.344a21.304 21.304 0 0 0-19.078 11.812l-64 127.964a21.404 21.404 0 0 0 0.922 20.782 21.354 21.354 0 0 0 18.156 10.092h981.298c11.782 0 21.344-9.53 21.344-21.312a21.268 21.268 0 0 0-2.748-10.498z" fill="#DA4453" /><path d="M490.644 786.118c0 11.782-9.546 21.344-21.328 21.344s-21.328-9.562-21.328-21.344 9.546-21.344 21.328-21.344 21.328 9.562 21.328 21.344z" fill="#434A54" /><path d="M618.906 60.826H405.568c-11.78 0-21.342 9.562-21.342 21.342 0 70.56 57.42 127.996 127.996 127.996 70.59 0 127.998-57.436 127.998-127.996-0.002-11.78-9.532-21.342-21.314-21.342z" fill="#E6E9ED" /><path d="M341.32 807.46H85.344c-11.782 0-21.342-9.562-21.342-21.344s9.562-21.344 21.342-21.344H341.32c11.782 0 21.344 9.562 21.344 21.344s-9.562 21.344-21.344 21.344zM938.648 807.46H682.654c-11.78 0-21.342-9.562-21.342-21.344s9.562-21.344 21.342-21.344h255.994c11.78 0 21.31 9.562 21.31 21.344s-9.53 21.344-21.31 21.344z" fill="#DA4453" /><path d="M1002.644 978.112H21.346c-11.782 0-21.328-9.562-21.328-21.342 0-11.782 9.546-21.312 21.328-21.312h981.298c11.75 0 21.312 9.532 21.312 21.312 0.002 11.778-9.562 21.342-21.312 21.342z" fill="#434A54" /><path d="M1002.644 423.47H21.346c-11.782 0-21.328 9.562-21.328 21.344v79.592c0 7.624 4.046 14.656 10.64 18.468a63.974 63.974 0 0 0 32.014 8.592c16.376 0 31.342-6.188 42.67-16.342 11.328 10.154 26.28 16.342 42.656 16.342 16.374 0 31.342-6.188 42.67-16.342 11.328 10.154 26.282 16.342 42.656 16.342 16.39 0 31.342-6.188 42.67-16.342 11.328 10.154 26.296 16.342 42.67 16.342 16.374 0 31.328-6.188 42.654-16.342 11.328 10.154 26.296 16.342 42.67 16.342 16.376 0 31.328-6.188 42.656-16.342 11.344 10.154 26.296 16.342 42.67 16.342 16.374 0 31.342-6.188 42.67-16.342 11.33 10.154 26.282 16.342 42.67 16.342a63.68 63.68 0 0 0 42.654-16.342c11.344 10.154 26.282 16.342 42.656 16.342s31.344-6.188 42.686-16.342c11.312 10.154 26.28 16.342 42.654 16.342s31.344-6.188 42.656-16.342c11.344 10.154 26.312 16.342 42.686 16.342 16.376 0 31.312-6.188 42.654-16.342 11.344 10.154 26.282 16.342 42.656 16.342s31.344-6.188 42.688-16.342a63.68 63.68 0 0 0 42.652 16.342 63.88 63.88 0 0 0 32-8.592 21.324 21.324 0 0 0 10.656-18.468v-79.592c0.006-11.78-9.558-21.344-21.308-21.344zM341.32 850.116H85.344c-11.782 0-21.342-9.562-21.342-21.344V615.464c0-11.782 9.562-21.342 21.342-21.342H341.32c11.782 0 21.344 9.56 21.344 21.342v213.306c0 11.782-9.562 21.346-21.344 21.346zM106.67 807.46h213.322v-170.652H106.67v170.652zM938.648 850.116H682.654c-11.78 0-21.342-9.562-21.342-21.344V615.464c0-11.782 9.562-21.342 21.342-21.342h255.994c11.78 0 21.31 9.56 21.31 21.342v213.306c0 11.782-9.53 21.346-21.31 21.346zM703.966 807.46h213.338v-170.652H703.966v170.652z" fill="#ED5564" /></svg>