<?xml version="1.0" standalone="no"?><!DOCTYPE svg PUBLIC "-//W3C//DTD SVG 1.1//EN" "http://www.w3.org/Graphics/SVG/1.1/DTD/svg11.dtd"><svg class="icon" width="128px" height="128.00px" viewBox="0 0 1024 1024" version="1.1" xmlns="http://www.w3.org/2000/svg"><path d="M448.002 170.666h127.996v290.664h-127.996z" fill="#E6E9ED" /><path d="M575.998 106.684c0 35.344-28.654 63.982-63.998 63.982-35.342 0-63.998-28.638-63.998-63.982C448.002 71.326 512 0.014 512 0.014s63.998 71.312 63.998 106.67z" fill="#FFCE54" /><path d="M767.994 384.02c0-23.466-19.188-42.686-42.656-42.686H298.694c-23.468 0-42.686 19.218-42.686 42.686v214.884c0 23.468 19.216 21.344 42.686 21.344h426.644c23.468 0 42.656 2.124 42.656-21.344V384.02z" fill="#E6E9ED" /><path d="M895.99 597.342c0-23.466-19.188-42.686-42.654-42.686H170.698c-23.468 0-42.688 19.218-42.688 42.686v170.652c0 23.468 19.218 42.688 42.688 42.688h682.638c23.466 0 42.654-19.218 42.654-42.688v-170.652z" fill="#E6E9ED" /><path d="M1023.986 810.62c0-23.406-19.186-42.624-42.686-42.624H42.7c-23.468 0-42.688 19.218-42.688 42.624v170.682c0 23.5 19.218 42.686 42.688 42.686h938.6c23.5 0 42.686-19.186 42.686-42.686V810.62z" fill="#E6E9ED" /><path d="M981.3 810.62H42.7c-23.468 0-42.688-2.124-42.688 21.374v53.186c22.594 20 52.312 32.124 84.842 32.124 44.342 0 83.436-22.562 106.404-56.874 22.966 34.31 62.06 56.874 106.402 56.874 44.688 0 84.03-22.938 106.936-57.624 22.874 34.686 62.216 57.624 106.902 57.624 44.688 0 84.03-22.938 106.904-57.624 22.906 34.686 62.248 57.624 106.934 57.624 44.688 0 84.032-22.938 106.904-57.624 22.906 34.686 62.248 57.624 106.936 57.624 32.53 0 62.248-12.124 84.808-32.124v-53.186c0.002-23.5-19.184-21.374-42.684-21.374z" fill="#D770AD" /><path d="M981.3 767.994H42.7c-23.468 0-42.688 19.218-42.688 42.624v31.874c22.594 20 52.312 32.124 84.842 32.124 44.342 0 83.436-22.56 106.404-56.808 22.966 34.248 62.06 56.808 106.402 56.808 44.688 0 84.03-22.874 106.936-57.622 22.874 34.748 62.216 57.622 106.902 57.622 44.688 0 84.03-22.874 106.904-57.622 22.906 34.748 62.248 57.622 106.934 57.622 44.688 0 84.032-22.874 106.904-57.622 22.906 34.748 62.248 57.622 106.936 57.622 32.53 0 62.248-12.124 84.808-32.124V810.62c0.002-23.408-19.184-42.626-42.684-42.626z" fill="#EC87C0" /><path d="M297.662 490.674c44.688 0 84.03-22.938 106.936-57.624 22.874 34.686 62.216 57.624 106.902 57.624 44.688 0 84.03-22.938 106.904-57.624 22.906 34.686 62.248 57.624 106.934 57.624a127.278 127.278 0 0 0 42.656-7.312V384.02H256.008v99.702a127.64 127.64 0 0 0 41.654 6.952z" fill="#D770AD" /><path d="M256.008 384.02v57.03a127.58 127.58 0 0 0 41.654 6.938c44.688 0 84.03-22.888 106.936-57.624 22.874 34.734 62.216 57.624 106.902 57.624 44.688 0 84.03-22.888 106.904-57.624 22.906 34.734 62.248 57.624 106.934 57.624a128.008 128.008 0 0 0 42.656-7.266V384.02c0-23.466-19.188-42.686-42.656-42.686H298.694c-23.47 0-42.686 19.218-42.686 42.686z" fill="#EC87C0" /><path d="M191.26 647.124c22.966 34.31 62.06 56.874 106.402 56.874 44.688 0 84.03-22.938 106.936-57.624 22.874 34.686 62.216 57.624 106.902 57.624 44.688 0 84.03-22.938 106.904-57.624 22.906 34.686 62.248 57.624 106.934 57.624 44.688 0 84.032-22.938 106.904-57.624 15.156 22.938 37.436 40.748 63.748 50.124v-99.154H128.01v99.216a128.582 128.582 0 0 0 63.25-49.436z" fill="#D770AD" /><path d="M128.01 597.342v56.532c26-9.312 48.124-26.812 63.25-49.376 22.966 34.25 62.06 56.812 106.402 56.812 44.688 0 84.03-22.876 106.936-57.624 22.874 34.75 62.216 57.624 106.902 57.624 44.688 0 84.03-22.876 106.904-57.624 22.906 34.75 62.248 57.624 106.934 57.624 44.688 0 84.032-22.876 106.904-57.624 15.156 23 37.436 40.75 63.748 50.188v-56.532c0-23.466-19.188-42.686-42.654-42.686H170.698c-23.47 0-42.688 19.22-42.688 42.686z" fill="#EC87C0" /></svg>