<?xml version="1.0" standalone="no"?><!DOCTYPE svg PUBLIC "-//W3C//DTD SVG 1.1//EN" "http://www.w3.org/Graphics/SVG/1.1/DTD/svg11.dtd"><svg class="icon" width="128px" height="128.00px" viewBox="0 0 1024 1024" version="1.1" xmlns="http://www.w3.org/2000/svg"><path d="M874.598 1002.542c0 11.78-9.562 21.34-21.372 21.34H170.742c-11.778 0-21.338-9.56-21.338-21.34V64.102c0-11.78 9.56-21.338 21.338-21.338h682.484c11.808 0 21.372 9.558 21.372 21.338v938.44z" fill="#CCD1D9" /><path d="M874.598 959.896c0 11.78-9.562 21.308-21.372 21.308H170.742c-11.778 0-21.338-9.53-21.338-21.308V21.424c0-11.78 9.56-21.306 21.338-21.306h682.484c11.808 0 21.372 9.528 21.372 21.306v938.472z" fill="#E6E9ED" /><path d="M384.038 831.926c0 35.336-28.65 63.986-63.986 63.986s-63.986-28.65-63.986-63.986c0-35.368 28.65-63.984 63.986-63.984 35.334 0 63.986 28.616 63.986 63.984zM575.976 831.926c0 35.336-28.618 63.986-63.968 63.986-35.336 0-63.986-28.65-63.986-63.986 0-35.368 28.65-63.984 63.986-63.984 35.352 0 63.968 28.616 63.968 63.984zM767.934 831.926c0 35.336-28.618 63.986-63.984 63.986-35.304 0-63.984-28.65-63.984-63.986 0-35.368 28.68-63.984 63.984-63.984 35.366 0 63.984 28.616 63.984 63.984zM384.038 639.97c0 35.334-28.65 63.984-63.986 63.984s-63.986-28.65-63.986-63.984c0-35.368 28.65-63.986 63.986-63.986 35.334 0 63.986 28.62 63.986 63.986zM575.976 639.97c0 35.334-28.618 63.984-63.968 63.984-35.336 0-63.986-28.65-63.986-63.984 0-35.368 28.65-63.986 63.986-63.986 35.352 0 63.968 28.62 63.968 63.986zM767.934 639.97c0 35.334-28.618 63.984-63.984 63.984-35.304 0-63.984-28.65-63.984-63.984 0-35.368 28.68-63.986 63.984-63.986 35.366 0 63.984 28.62 63.984 63.986zM384.038 448.014c0 35.336-28.65 63.986-63.986 63.986s-63.986-28.65-63.986-63.986c0-35.368 28.65-63.984 63.986-63.984 35.334 0 63.986 28.616 63.986 63.984zM575.976 448.014c0 35.336-28.618 63.986-63.968 63.986-35.336 0-63.986-28.65-63.986-63.986 0-35.368 28.65-63.984 63.986-63.984 35.352 0 63.968 28.616 63.968 63.984zM767.934 448.014c0 35.336-28.618 63.986-63.984 63.986-35.304 0-63.984-28.65-63.984-63.986 0-35.368 28.68-63.984 63.984-63.984 35.366 0 63.984 28.616 63.984 63.984z" fill="#CCD1D9" /><path d="M320.052 810.588m-63.986 0a63.986 63.986 0 1 0 127.972 0 63.986 63.986 0 1 0-127.972 0Z" fill="#F5F7FA" /><path d="M575.976 810.588c0 35.334-28.618 63.984-63.968 63.984-35.336 0-63.986-28.65-63.986-63.984 0-35.336 28.65-63.986 63.986-63.986 35.352 0 63.968 28.65 63.968 63.986zM767.934 810.588c0 35.334-28.618 63.984-63.984 63.984-35.304 0-63.984-28.65-63.984-63.984 0-35.336 28.68-63.986 63.984-63.986 35.366 0 63.984 28.65 63.984 63.986z" fill="#F5F7FA" /><path d="M320.052 618.63m-63.986 0a63.986 63.986 0 1 0 127.972 0 63.986 63.986 0 1 0-127.972 0Z" fill="#F5F7FA" /><path d="M575.976 618.63c0 35.336-28.618 63.984-63.968 63.984-35.336 0-63.986-28.648-63.986-63.984s28.65-63.984 63.986-63.984c35.352 0 63.968 28.648 63.968 63.984zM767.934 618.63c0 35.336-28.618 63.984-63.984 63.984-35.304 0-63.984-28.648-63.984-63.984s28.68-63.984 63.984-63.984c35.366 0 63.984 28.648 63.984 63.984z" fill="#F5F7FA" /><path d="M320.052 426.676m-63.986 0a63.986 63.986 0 1 0 127.972 0 63.986 63.986 0 1 0-127.972 0Z" fill="#F5F7FA" /><path d="M575.976 426.676c0 35.334-28.618 63.984-63.968 63.984-35.336 0-63.986-28.65-63.986-63.984 0-35.336 28.65-63.986 63.986-63.986 35.352 0 63.968 28.65 63.968 63.986zM767.934 426.676c0 35.334-28.618 63.984-63.984 63.984-35.304 0-63.984-28.65-63.984-63.984 0-35.336 28.68-63.986 63.984-63.986 35.366 0 63.984 28.65 63.984 63.986z" fill="#F5F7FA" /><path d="M682.64 106.748H341.36c-47.114 0-85.292 38.18-85.292 85.324 0 47.116 38.178 85.292 85.292 85.292h341.28c47.114 0 85.292-38.178 85.292-85.292 0.002-47.144-38.178-85.324-85.292-85.324z" fill="#8CC153" /><path d="M682.64 128.088H341.36c-43.49 0-79.358 32.554-84.606 74.638 5.248 42.084 41.116 74.638 84.606 74.638h341.28c43.492 0 79.356-32.554 84.606-74.638-5.25-42.084-41.114-74.638-84.606-74.638z" fill="#A0D468" /></svg>