<?xml version="1.0" standalone="no"?><!DOCTYPE svg PUBLIC "-//W3C//DTD SVG 1.1//EN" "http://www.w3.org/Graphics/SVG/1.1/DTD/svg11.dtd"><svg class="icon" width="128px" height="128.00px" viewBox="0 0 1024 1024" version="1.1" xmlns="http://www.w3.org/2000/svg"><path d="M1023.988 970.678c0 23.436-19.186 42.624-42.654 42.624H42.668C19.2 1013.302 0.012 994.114 0.012 970.678V160.008c0-23.468 19.188-42.656 42.656-42.656h938.666c23.468 0 42.654 19.186 42.654 42.656v810.67z" fill="#4A89DC" /><path d="M1023.988 927.99c0 23.438-19.186 42.688-42.654 42.688H42.668C19.2 970.678 0.012 951.428 0.012 927.99V117.352c0-23.468 19.188-42.656 42.656-42.656h938.666c23.468 0 42.654 19.188 42.654 42.656v810.638z" fill="#5D9CEC" /><path d="M981.334 74.698H42.668C19.2 74.698 0.012 93.886 0.012 117.354v127.998h1023.976v-128c0-23.468-19.186-42.654-42.654-42.654z" fill="#ED5564" /><path d="M192.008 10.7c-11.782 0-21.344 9.532-21.344 21.312v127.998c0 11.782 9.562 21.344 21.344 21.344s21.344-9.562 21.344-21.344v-128c0-11.78-9.562-21.31-21.344-21.31zM405.348 10.7c-11.782 0-21.344 9.532-21.344 21.312v127.998c0 11.782 9.562 21.344 21.344 21.344 11.78 0 21.31-9.562 21.31-21.344v-128c0-11.78-9.532-21.31-21.31-21.31zM618.656 10.7a21.3 21.3 0 0 0-21.312 21.312v127.998c0 11.782 9.532 21.344 21.312 21.344 11.78 0 21.342-9.562 21.342-21.344v-128c0-11.78-9.562-21.31-21.342-21.31zM831.994 10.7c-11.782 0-21.344 9.532-21.344 21.312v127.998c0 11.782 9.562 21.344 21.344 21.344 11.78 0 21.342-9.562 21.342-21.344v-128c0-11.78-9.562-21.31-21.342-21.31z" fill="#E6E9ED" /><path d="M576.032 757.556h-127.968l-0.03 127.998h128.028z" fill="#7F4545" /><path d="M320.006 800.244L512 458.908l191.996 341.336z" fill="#8CC153" /><path d="M362.722 629.558l149.31-298.648 149.342 298.648z" fill="#A0D468" /><path d="M256.006 330.91c-11.782 0-21.342 9.562-21.342 21.344s9.56 21.312 21.342 21.312 21.344-9.53 21.344-21.312-9.562-21.344-21.344-21.344zM767.996 330.91c-11.782 0-21.344 9.562-21.344 21.344s9.562 21.312 21.344 21.312 21.344-9.53 21.344-21.312-9.562-21.344-21.344-21.344zM128.01 458.908c-11.782 0-21.344 9.562-21.344 21.342 0 11.782 9.562 21.344 21.344 21.344s21.344-9.562 21.344-21.344c0-11.78-9.562-21.342-21.344-21.342zM256.006 586.874c-11.782 0-21.342 9.562-21.342 21.376 0 11.75 9.56 21.31 21.342 21.31s21.344-9.56 21.344-21.31c0-11.814-9.562-21.376-21.344-21.376zM384.004 458.908c-11.782 0-21.344 9.562-21.344 21.342 0 11.782 9.562 21.344 21.344 21.344s21.344-9.562 21.344-21.344c0-11.78-9.562-21.342-21.344-21.342zM639.998 458.908c-11.782 0-21.342 9.562-21.342 21.342 0 11.782 9.56 21.344 21.342 21.344s21.344-9.562 21.344-21.344c0-11.78-9.562-21.342-21.344-21.342zM767.996 586.874c-11.782 0-21.344 9.562-21.344 21.376 0 11.75 9.562 21.31 21.344 21.31s21.344-9.56 21.344-21.31c0-11.814-9.562-21.376-21.344-21.376zM895.992 458.908c-11.782 0-21.344 9.562-21.344 21.342 0 11.782 9.562 21.344 21.344 21.344s21.344-9.562 21.344-21.344c0-11.78-9.562-21.342-21.344-21.342zM128.01 714.872c-11.782 0-21.344 9.562-21.344 21.374 0 11.75 9.562 21.312 21.344 21.312s21.344-9.562 21.344-21.312c0-11.812-9.562-21.374-21.344-21.374zM256.006 842.868c-11.782 0-21.342 9.562-21.342 21.376 0 11.75 9.56 21.312 21.342 21.312s21.344-9.562 21.344-21.312c0-11.814-9.562-21.376-21.344-21.376zM767.996 842.868c-11.782 0-21.344 9.562-21.344 21.376 0 11.75 9.562 21.312 21.344 21.312s21.344-9.562 21.344-21.312c0-11.814-9.562-21.376-21.344-21.376zM895.992 714.872c-11.782 0-21.344 9.562-21.344 21.374 0 11.75 9.562 21.312 21.344 21.312s21.344-9.562 21.344-21.312c0-11.812-9.562-21.374-21.344-21.374z" fill="#F5F7FA" /></svg>