<?xml version="1.0" standalone="no"?><!DOCTYPE svg PUBLIC "-//W3C//DTD SVG 1.1//EN" "http://www.w3.org/Graphics/SVG/1.1/DTD/svg11.dtd"><svg class="icon" width="128px" height="128.00px" viewBox="0 0 1024 1024" version="1.1" xmlns="http://www.w3.org/2000/svg"><path d="M1023.982 970.672c0 23.438-19.188 42.624-42.654 42.624H42.672c-23.468 0-42.656-19.186-42.656-42.624V202.698c0-23.498 19.186-42.686 42.656-42.686h938.656c23.466 0 42.654 19.188 42.654 42.686v767.974z" fill="#AAB2BC" /><path d="M1023.982 927.984c0 23.438-19.188 42.688-42.654 42.688H42.672c-23.468 0-42.656-19.25-42.656-42.688V160.012c0-23.5 19.186-42.686 42.656-42.686h938.656c23.466 0 42.654 19.186 42.654 42.686v767.972z" fill="#CCD1D9" /><path d="M1023.982 885.3c0 23.498-19.188 42.684-42.654 42.684H42.672c-23.468 0-42.656-19.186-42.656-42.684V117.326c0-23.438 19.186-42.624 42.656-42.624h938.656c23.466 0 42.654 19.188 42.654 42.624V885.3z" fill="#E6E9ED" /><path d="M981.328 74.702H42.672C19.204 74.702 0.016 93.89 0.016 117.326v127.996H1023.98V117.326c0.002-23.438-19.186-42.624-42.652-42.624z" fill="#ED5564" /><path d="M192.01 10.706c-11.78 0-21.342 9.498-21.342 21.31v127.996c0 11.75 9.562 21.312 21.342 21.312 11.782 0 21.344-9.562 21.344-21.312V32.016c0-11.812-9.562-21.31-21.344-21.31zM405.348 10.706c-11.782 0-21.342 9.498-21.342 21.31v127.996c0 11.75 9.562 21.312 21.342 21.312s21.312-9.562 21.312-21.312V32.016a21.278 21.278 0 0 0-21.312-21.31zM618.654 10.706a21.276 21.276 0 0 0-21.312 21.31v127.996c0 11.75 9.532 21.312 21.312 21.312 11.78 0 21.342-9.562 21.342-21.312V32.016c0-11.812-9.562-21.31-21.342-21.31zM831.99 10.706c-11.782 0-21.344 9.498-21.344 21.31v127.996c0 11.75 9.562 21.312 21.344 21.312s21.344-9.562 21.344-21.312V32.016c0-11.812-9.562-21.31-21.344-21.31z" fill="#E6E9ED" /><path d="M618.686 352.006c-41.812 0-79.578 17.186-106.686 44.842-27.092-27.656-64.872-44.842-106.652-44.842-82.482 0-149.338 66.874-149.338 149.338C256.008 671.994 512 821.332 512 821.332s255.992-149.338 255.992-319.988c0-82.466-66.872-149.338-149.306-149.338z" fill="#ED5564" /><path d="M618.686 352.006c-7.25 0-14.376 0.532-21.344 1.532 72.34 10.342 127.996 72.59 127.996 147.806 0 140.372-173.214 266.304-234.666 306.582 13.266 8.688 21.328 13.406 21.328 13.406s255.992-149.338 255.992-319.988c0-82.466-66.872-149.338-149.306-149.338z" fill="#FFFFFF" opacity=".2" /></svg>