<?xml version="1.0" standalone="no"?><!DOCTYPE svg PUBLIC "-//W3C//DTD SVG 1.1//EN" "http://www.w3.org/Graphics/SVG/1.1/DTD/svg11.dtd"><svg class="icon" width="128px" height="128.00px" viewBox="0 0 1024 1024" version="1.1" xmlns="http://www.w3.org/2000/svg"><path d="M491.18 980.922c151.25 33.616 405.08-634.962 405.08-634.962-194.848 61.98-493.176 615.374-405.08 634.962z" fill="#8CC153" /><path d="M497.866 1022.346c-151.266 33.618-325.4-509.062-325.4-509.062 194.878 62.01 413.482 489.476 325.4 509.062z" fill="#8CC153" /><path d="M483.34 3.376C227.48-25.958 103.206 154.174 131.758 173.95 443.726 389.822 483.34 685.636 483.34 685.636c213.168-398.408 255.81-652.956 0-682.26z" fill="#FFCE54" /><path d="M475.31 575.764h42.642v447.8h-42.642z" fill="#A0D468" /><path d="M483.34 3.376C227.48-25.958 103.206 154.174 131.758 173.95a945.19 945.19 0 0 1 45.674 33.646c101.594 24.992 282.32 52.796 396.832 38.832 36.144-4.436 85.816-50.736 85.192-64.23-4.528-99.564-59.326-165.45-176.116-178.822z" fill="#F6BB42" /><path d="M409.862 481.918c53.328 99.846 69.386 179.414 72.728 199.034l3.03 0.376c38.456-72.072 71.244-139.394 97.67-201.5-38.206 7.87-109.666 18.116-173.428 2.09z" fill="#A0D468" /><path d="M658.332 163.296c-4.81-17.932-17.962-33.552-38.364-44.83-49.048-27.118-136.722-26.274-180.678 15.464-8.528 8.122-8.872 21.618-0.75 30.146 8.09 8.53 21.586 8.904 30.146 0.782 12.964-12.34 35.552-20.338 61.95-21.9 25.696-1.532 51.406 3.25 68.712 12.84 21.182 11.714 18.682 24.054 17.872 28.116-0.876 4.312-3.5 17.464-30.524 28.492-47.594 19.494-143.908 20.588-264.278 2.968-86.474-12.652-161.858-31.74-192.722-43.486 0.562 0.812 1.25 1.5 2.062 2.062 30.616 21.182 58.608 43.144 84.224 65.542 31.208 6.716 65.606 12.996 100.282 18.088 57.044 8.34 111.154 12.84 156.452 12.964h2.124c54.702 0 97.766-6.28 128.04-18.65 31.926-13.09 50.828-33.116 56.138-59.576 0.218-1 0.376-2 0.53-3a290.524 290.524 0 0 0-1.216-26.022z" fill="#FFCE54" /></svg>