<?xml version="1.0" standalone="no"?><!DOCTYPE svg PUBLIC "-//W3C//DTD SVG 1.1//EN" "http://www.w3.org/Graphics/SVG/1.1/DTD/svg11.dtd"><svg class="icon" width="128px" height="128.00px" viewBox="0 0 1024 1024" version="1.1" xmlns="http://www.w3.org/2000/svg"><path d="M886.486 137.514C794.832 45.86 674.68 0.018 554.558 0.018c-120.184 0-240.306 45.828-331.958 137.496-45.906 45.89-80.216 98.918-103.154 155.51a21.654 21.654 0 0 0-2.188 9.454c0 11.782 9.532 21.328 21.312 21.328 9.438 0 17.438-6.14 20.25-14.64l0.062 0.032a1.568 1.568 0 0 0 0.124-0.36c21.468-52.904 52.998-100.404 93.748-141.152 40.78-40.75 88.248-72.294 141.184-93.748 51.124-20.732 105.154-31.248 160.62-31.248 55.436 0 109.464 10.516 160.59 31.248 52.904 21.468 100.402 53 141.152 93.748 40.748 40.748 72.308 88.248 93.746 141.152 20.75 51.138 31.25 105.168 31.25 160.62s-10.5 109.482-31.25 160.604c-21.438 52.906-52.998 100.402-93.746 141.152-40.75 40.75-88.248 72.312-141.152 93.746-51.124 20.75-105.154 31.25-160.59 31.25-5.312 0-10.562-0.124-15.844-0.312l42.218 42.218c111.184-6.218 220.618-51.782 305.552-136.714 183.308-183.342 183.308-480.566 0.002-663.888z" fill="#DA4453" /><path d="M550.434 895.208l-72.28-43.528a54.97 54.97 0 0 0 2.218-2.312l-31.936-28.344 0.156-0.124c-0.344 0.376-3.594 3.812-9.532 8.032l-11.75 6.968c-10.062 5.032-23.592 9.438-40.312 9.782-41.812 0.876-87.684-23.438-136.464-72.218-48.78-48.75-73.06-94.684-72.216-136.464 0.782-39.032 23.812-60.684 24.78-61.59l-0.156 0.124L174.6 543.642c-0.594 0.516-6.436 5.828-13.406 15.516l-32.406-85.592-30.156-30.17-57 56.982c-68.874 68.842-63.624 211.808 103.278 378.706 166.902 166.934 309.866 172.152 378.708 103.312l57-57-30.184-30.188z" fill="#ED5564" /><path d="M263.068 549.72c9.75-9.75 9.75-25.562 0-35.296l-115.59-115.59c-9.75-9.75-25.53-9.75-35.28 0l-55.248 55.234c-9.75 9.75-9.75 25.544 0 35.294l115.59 115.574c9.75 9.75 25.532 9.75 35.28 0l55.248-55.216zM625.182 911.834c9.75-9.75 9.75-25.562 0-35.312l-115.56-115.59c-9.75-9.718-25.562-9.718-35.312 0.032l-55.248 55.218c-9.75 9.75-9.75 25.562 0 35.312l115.59 115.558c9.75 9.75 25.562 9.75 35.282 0l55.248-55.218zM570.464 608.748h-209.4c2.188-70.074 39.406-97.682 91.56-132.728 30.656-20.578 67.434-39.858 67.434-82.358 0-31.984-18.81-51.686-49.498-51.686-45.124 0-52.124 36.796-53 72.716h-48.62v-7.89c0-65.702 39.874-107.762 102.934-107.762 59.59 0 99.028 36.358 99.028 91.998 0 57.826-41.188 83.232-84.124 111.714-22.342 14.452-55.216 36.358-65.716 61.75h149.402v44.246zM823.238 536.048h-39v72.7h-48.184l-0.438-72.7h-130.122v-49.514l131.434-187.056h47.308v194.51h39v42.06z m-86.746-174.806l-89.812 132.746h89.812v-132.746z" fill="#434A54" /></svg>