<?xml version="1.0" standalone="no"?><!DOCTYPE svg PUBLIC "-//W3C//DTD SVG 1.1//EN" "http://www.w3.org/Graphics/SVG/1.1/DTD/svg11.dtd"><svg class="icon" width="128px" height="128.00px" viewBox="0 0 1024 1024" version="1.1" xmlns="http://www.w3.org/2000/svg"><path d="M192 298.658C192 310.44 182.454 320 170.674 320h-128c-11.782 0-21.344-9.562-21.344-21.342v-128c0-11.782 9.562-21.312 21.344-21.312h128c11.78 0 21.328 9.532 21.328 21.312v128zM384 298.658c0 11.782-9.546 21.342-21.328 21.342h-128c-11.782 0-21.344-9.562-21.344-21.342v-128c0-11.782 9.562-21.312 21.344-21.312h128c11.782 0 21.328 9.532 21.328 21.312v128z" fill="#CCD1D9" /><path d="M981.308 128.002H448c-23.562 0-42.672 19.094-42.672 42.656v64H42.674c-23.578 0-42.67 19.124-42.67 42.688v383.998C0.002 684.906 19.096 704 42.674 704h938.634c23.562 0 42.688-19.094 42.688-42.656V170.658c0-23.562-19.124-42.656-42.688-42.656z" fill="#E6E9ED" /><path d="M1023.996 853.342c0 23.562-19.124 42.656-42.688 42.656H42.674c-23.578 0-42.67-19.094-42.67-42.656V426.656C0.002 403.094 19.096 384 42.674 384h938.634c23.562 0 42.688 19.092 42.688 42.656v426.686z" fill="#E6E9ED" /><path d="M0.002 320h1023.994v511.998H0.002z" fill="#434A54" /><path d="M640 768c-105.876 0-192-86.124-192-192s86.124-192 192-192c105.872 0 191.996 86.124 191.996 192S745.872 768 640 768z" fill="#5D9CEC" /><path d="M640 384c-10.906 0-21.594 0.938-32 2.688 90.684 15.28 159.996 94.342 159.996 189.312S698.684 750.032 608 765.312A192.818 192.818 0 0 0 640 768c105.872 0 191.996-86.124 191.996-192S745.872 384 640 384z" fill="#FFFFFF" opacity=".1" /><path d="M640 362.658c-117.828 0-213.328 95.53-213.328 213.342S522.172 789.344 640 789.344c117.808 0 213.308-95.532 213.308-213.344S757.808 362.658 640 362.658z m120.684 334.03c-32.25 32.218-75.09 49.968-120.684 49.968s-88.438-17.75-120.688-49.968c-32.234-32.25-49.984-75.094-49.984-120.688s17.75-88.438 49.984-120.688c32.25-32.218 75.094-49.968 120.688-49.968s88.434 17.75 120.684 49.968c32.218 32.25 50 75.094 50 120.688s-17.782 88.438-50 120.688z" fill="#4A89DC" /><path d="M767.996 170.658h192v106.688h-192z" fill="#656D78" /><path d="M618.688 202.658h-128.016c-11.782 0-21.344 9.562-21.344 21.344s9.562 21.344 21.344 21.344h128.016c11.75 0 21.312-9.562 21.312-21.344s-9.562-21.344-21.312-21.344zM703.996 170.658c-11.778 0-21.308 9.562-21.308 21.344v64c0 11.782 9.532 21.344 21.308 21.344 11.782 0 21.312-9.562 21.312-21.344v-64c0-11.782-9.53-21.344-21.312-21.344z" fill="#CCD1D9" /><path d="M341.33 320v42.656c0 11.782 9.562 21.344 21.342 21.344S384 374.438 384 362.658V320h-42.67z" fill="#656D78" /></svg>