<?xml version="1.0" standalone="no"?><!DOCTYPE svg PUBLIC "-//W3C//DTD SVG 1.1//EN" "http://www.w3.org/Graphics/SVG/1.1/DTD/svg11.dtd"><svg class="icon" width="128px" height="128.00px" viewBox="0 0 1024 1024" version="1.1" xmlns="http://www.w3.org/2000/svg"><path d="M490.67 1023.842s207.08-63.98 315.544-426.556c0 0-208.936 49.328-315.544 426.556z" fill="#8CC153" /><path d="M541.876 981.2s-11.214-98.658-263.544-341.24c-0.002-0.002 10.4 321.246 263.544 341.24z" fill="#8CC153" /><path d="M490.67 450.3h42.642v573.542h-42.642z" fill="#A0D468" /><path d="M506.728 321.214c142.534 76.132 222.822-295.816 183.772-318.34-39.05-22.556-326.322 242.208-183.772 318.34z" fill="#E6E9ED" /><path d="M519.504 319.902c137.196-85.38-144.736-340.896-183.786-318.34-39.05 22.524 46.58 403.752 183.786 318.34z" fill="#CCD1D9" /><path d="M524.786 308.186c-5.344-161.512-367.606-45.08-367.606 0s372.948 161.514 367.606 0z" fill="#E6E9ED" /><path d="M517.258 297.752c-142.552-76.134-222.838 295.816-183.79 318.37 39.052 22.524 326.352-242.236 183.79-318.37z" fill="#CCD1D9" /><path d="M504.48 299.064c-137.208 85.38 144.72 340.894 183.77 318.34 39.05-22.524-46.61-403.75-183.77-318.34z" fill="#E6E9ED" /><path d="M499.2 310.78c5.342 161.514 367.62 45.08 367.62 0s-372.962-161.514-367.62 0z" fill="#CCD1D9" /><path d="M512.008 373.48c-35.302 0-64.012-28.71-64.012-64.012 0-35.27 28.71-63.98 64.012-63.98 35.284 0 63.964 28.71 63.964 63.98 0 35.302-28.68 64.012-63.964 64.012z" fill="#FFCE54" /><path d="M512.008 224.18c-47.142 0-85.318 38.176-85.318 85.288 0 47.142 38.176 85.318 85.318 85.318 47.092 0 85.268-38.176 85.268-85.318 0.002-47.11-38.174-85.288-85.268-85.288z m0 127.962c-23.524 0-42.674-19.152-42.674-42.674 0-23.494 19.15-42.644 42.674-42.644 23.492 0 42.66 19.15 42.66 42.644 0 23.524-19.168 42.674-42.66 42.674z" fill="#F6BB42" /></svg>