<?xml version="1.0" standalone="no"?><!DOCTYPE svg PUBLIC "-//W3C//DTD SVG 1.1//EN" "http://www.w3.org/Graphics/SVG/1.1/DTD/svg11.dtd"><svg class="icon" width="128px" height="128.00px" viewBox="0 0 1024 1024" version="1.1" xmlns="http://www.w3.org/2000/svg"><path d="M1002.646 736.002H661.308v-442.6l188.434 25.436 82.188 165.95 80.248 40.14a21.36 21.36 0 0 1 11.812 19.076v170.686c0 11.752-9.562 21.312-21.344 21.312z" fill="#E6E9ED" /><path d="M320.004 245.34H149.32c-11.782 0-21.312-9.546-21.312-21.328s9.532-21.328 21.312-21.328h170.684c11.75 0 21.312 9.546 21.312 21.328s-9.564 21.328-21.312 21.328z" fill="#F6BB42" /><path d="M931.93 484.79l-82.188-165.952-188.434-25.436v191.388z" fill="#4FC2E9" /><path d="M917.304 224.012H21.322c-11.782 0-21.312 9.546-21.312 21.328v469.352c0 11.75 9.532 21.31 21.312 21.31h639.986c11.782 0 21.344-9.56 21.344-21.31V352.01h234.652c11.782 0 21.344-9.546 21.344-21.328V245.34c0-11.78-9.562-21.328-21.344-21.328z" fill="#FFCE54" /><path d="M320.004 608.006c-58.842 0-106.686 47.842-106.686 106.686 0 58.81 47.842 106.624 106.686 106.624 58.812 0 106.654-47.812 106.654-106.624 0-58.844-47.842-106.686-106.654-106.686zM831.994 608.006c-58.842 0-106.686 47.842-106.686 106.686 0 58.81 47.844 106.624 106.686 106.624 58.81 0 106.654-47.812 106.654-106.624 0-58.844-47.844-106.686-106.654-106.686z" fill="#434A54" /><path d="M725.308 352.01h42.688v132.78h-42.688z" fill="#3BAFDA" /><path d="M335.066 729.752c-8.312 8.312-21.842 8.312-30.156 0-8.344-8.31-8.344-21.842 0-30.186 8.312-8.312 21.844-8.312 30.156 0 8.344 8.344 8.344 21.876 0 30.186zM847.054 729.752c-8.312 8.312-21.842 8.312-30.154 0-8.344-8.31-8.344-21.842 0-30.186 8.312-8.312 21.842-8.312 30.154 0 8.344 8.344 8.344 21.876 0 30.186z" fill="#F5F7FA" /><path d="M192.006 352.01H21.322c-11.782 0-21.312 9.546-21.312 21.328v341.354c0 11.75 9.532 21.31 21.312 21.31h170.684c11.75 0 21.312-9.56 21.312-21.31V373.338c0-11.782-9.562-21.328-21.312-21.328z" fill="#E6E9ED" /><path d="M57.758 537.758c-8.344 8.31-21.844 8.31-30.188 0-8.312-8.328-8.312-21.844 0-30.172 8.344-8.328 21.844-8.328 30.188 0 8.314 8.328 8.314 21.844 0 30.172z" fill="#434A54" /><path d="M576 352.01H277.692c-11.782 0-21.312 9.546-21.312 21.328v127.998c0 11.782 9.532 21.344 21.312 21.344H576c11.748 0 21.31-9.562 21.31-21.344v-127.998c0-11.782-9.562-21.328-21.31-21.328z" fill="#4FC2E9" /><path d="M405.502 352.01h42.686v170.67h-42.686z" fill="#3BAFDA" /></svg>