<?xml version="1.0" standalone="no"?><!DOCTYPE svg PUBLIC "-//W3C//DTD SVG 1.1//EN" "http://www.w3.org/Graphics/SVG/1.1/DTD/svg11.dtd"><svg class="icon" width="128px" height="128.00px" viewBox="0 0 1024 1024" version="1.1" xmlns="http://www.w3.org/2000/svg"><path d="M330.656 554.686h-148.62c-11.782 0-21.344-9.562-21.344-21.344 0-11.78 9.562-21.342 21.344-21.342h148.62c11.78 0 21.326 9.562 21.326 21.342 0 11.782-9.546 21.344-21.326 21.344zM331.36 810.674H182.038c-11.782 0-21.344-9.56-21.344-21.342s9.562-21.344 21.344-21.344h149.322c11.78 0 21.326 9.562 21.326 21.344s-9.548 21.342-21.326 21.342z" fill="#CCD1D9" /><path d="M330.672 917.328c-11.782 0-21.344-9.532-21.344-21.344V426.676c0-41.92 9.594-84.764 28.514-127.324 14.89-33.514 35.578-66.934 61.498-99.324 43.86-54.808 87.356-87.7 89.184-89.074 9.422-7.06 22.796-5.156 29.876 4.266 7.062 9.438 5.156 22.796-4.266 29.876-0.406 0.296-41.638 31.56-82.136 82.418C365.874 310.51 352 381.634 352 426.678v469.308c-0.002 11.81-9.548 21.342-21.328 21.342z" fill="#CCD1D9" /><path d="M671.984 917.328c-11.78 0-21.31-9.532-21.31-21.344V426.676c0-158.166-160.526-280.364-162.15-281.582-9.422-7.078-11.328-20.438-4.266-29.876 7.062-9.422 20.438-11.326 29.876-4.266 1.828 1.376 45.326 34.266 89.17 89.074 25.936 32.39 46.622 65.81 61.494 99.324 18.938 42.56 28.5 85.404 28.5 127.324v469.308c-0.002 11.814-9.532 21.346-21.314 21.346z" fill="#CCD1D9" /><path d="M501.32 149.36c-35.28 0-63.996-28.718-63.996-63.998 0-35.296 28.716-63.998 63.996-63.998 35.294 0 63.982 28.702 63.982 63.998 0 35.278-28.686 63.998-63.982 63.998z m0-85.342c-11.75 0-21.328 9.578-21.328 21.344s9.578 21.326 21.328 21.326c11.766 0 21.344-9.56 21.344-21.326s-9.578-21.344-21.344-21.344z" fill="#434A54" /><path d="M821.292 991.978H181.334c-11.782 0-21.328-9.562-21.328-21.31V448.002c0-91.168 35.498-176.868 99.964-241.334 64.466-64.48 150.182-99.98 241.35-99.98 91.17 0 176.882 35.5 241.35 99.98 64.466 64.466 99.998 150.166 99.998 241.334v522.666c0 11.748-9.562 21.31-21.376 21.31z m-618.616-42.654H799.98V448.002c0-79.762-31.062-154.76-87.496-211.18C656.112 180.418 581.116 149.36 501.32 149.36c-79.762 0-154.76 31.058-211.178 87.462-56.404 56.42-87.466 131.418-87.466 211.18v501.322z" fill="#E6E9ED" /><path d="M501.32 917.328c-11.782 0-21.328-9.532-21.328-21.344V128.016c0-11.782 9.546-21.328 21.328-21.328s21.344 9.546 21.344 21.328v767.968c0 11.812-9.562 21.344-21.344 21.344z" fill="#E6E9ED" /><path d="M861.01 53.376l-71.716-15.53c-5.876-1.282-12.062 0-16.938 3.516L636.114 139.14a21.39 21.39 0 0 0-8.782 15.14 21.448 21.448 0 0 0 5.468 16.608c2.5 2.704 61.622 66.372 126.994 66.372 11.124 0 21.936-1.844 32.124-5.466 32.968-11.734 58.312-43.234 73.28-91.074 10.532-33.578 12.532-63.874 12.594-65.154a21.35 21.35 0 0 0-16.782-22.19z" fill="#F6BB42" /><path d="M598.552 213.356a21.372 21.372 0 0 1-17.438-8.984c-6.812-9.594-4.562-22.922 5.062-29.732l180.116-127.994c9.594-6.828 22.938-4.578 29.75 5.03 6.812 9.594 4.562 22.922-5.062 29.734l-180.116 127.994a21.174 21.174 0 0 1-12.312 3.952z" fill="#ED5564" /><path d="M885.29 85.362H863.98c-11.782 0-21.31-9.546-21.31-21.344 0-11.782 9.53-21.326 21.31-21.326h21.31c11.812 0 21.376 9.544 21.376 21.326-0.002 11.796-9.564 21.344-21.376 21.344z" fill="#434A54" /><path d="M863.978 895.984H138.68c-11.782 0-21.344 9.562-21.344 21.344v85.338c0 11.75 9.562 21.312 21.344 21.312h725.298c11.782 0 21.31-9.562 21.31-21.312v-85.338c0.002-11.782-9.528-21.344-21.31-21.344z" fill="#ED5564" /><path d="M671.984 981.322c-11.78 0-21.31 9.532-21.31 21.344v21.312h42.624v-21.312c-0.002-11.812-9.532-21.344-21.314-21.344zM586.678 981.322c-11.812 0-21.376 9.532-21.376 21.344v21.312h42.688v-21.312c0-11.812-9.562-21.344-21.312-21.344zM501.32 981.322c-11.782 0-21.328 9.532-21.328 21.344v21.312h42.672v-21.312c0-11.812-9.562-21.344-21.344-21.344zM415.996 981.322c-11.782 0-21.328 9.532-21.328 21.344v21.312h42.656v-21.312c0-11.812-9.546-21.344-21.328-21.344zM330.672 981.322c-11.782 0-21.344 9.532-21.344 21.344v21.312h42.67v-21.312c0-11.812-9.546-21.344-21.326-21.344zM245.33 981.322c-11.78 0-21.326 9.532-21.326 21.344v21.312h42.67v-21.312c0-11.812-9.562-21.344-21.344-21.344zM757.294 981.322c-11.75 0-21.312 9.532-21.312 21.344v21.312h42.686v-21.312c0-11.812-9.562-21.344-21.374-21.344z" fill="#DA4453" /><path d="M820.606 448.112H182.038c-11.782 0-21.344-9.546-21.344-21.342 0-11.782 9.562-21.328 21.344-21.328h638.568c11.782 0 21.344 9.546 21.344 21.328 0 11.794-9.564 21.342-21.344 21.342z" fill="#E6E9ED" /><path d="M821.292 0.022c-35.25 0-63.998 28.716-63.998 63.996 0 35.296 28.748 63.998 63.998 63.998 35.31 0 63.996-28.702 63.996-63.998 0.002-35.28-28.684-63.996-63.996-63.996z" fill="#FFCE54" /></svg>