<?xml version="1.0" standalone="no"?><!DOCTYPE svg PUBLIC "-//W3C//DTD SVG 1.1//EN" "http://www.w3.org/Graphics/SVG/1.1/DTD/svg11.dtd"><svg class="icon" width="128px" height="128.00px" viewBox="0 0 1024 1024" version="1.1" xmlns="http://www.w3.org/2000/svg"><path d="M1013.11 307.336c-149.438-78.89-320.376-123.906-501.11-123.906-138.906 0-271.656 26.376-393.5 74.406l21.438 37.454c118.484-45.922 243.484-69.204 372.062-69.204 139.172 0 274.172 27.25 401.204 81a1028.95 1028.95 0 0 1 79.438 37.688c3 1.594 6.406 2.484 10.032 2.484 11.782 0 21.344-9.546 21.344-21.328-0.002-7.984-4.408-14.938-10.908-18.594z" fill="#37BC9B" /><path d="M11 716.758c-0.032-0.032-0.078-0.062-0.11-0.062 0.032 0 0.078 0.03 0.11 0.062zM11 716.758c0.048 0 0.062 0 0 0zM10.89 716.696c-0.062-0.064-0.03-0.032 0 0z" fill="#37BC9B" /><path d="M905.516 766.196l-21.438-37.468c-118.5 45.906-243.5 69.218-372.078 69.218-139.172 0-274.172-27.25-401.218-81a1037.74 1037.74 0 0 1-79.422-37.688 21.248 21.248 0 0 0-10.032-2.5c-11.782 0-21.328 9.562-21.328 21.312 0 8 4.39 14.938 10.89 18.624 149.438 78.876 320.376 123.876 501.11 123.876 138.89 0 271.64-26.374 393.516-74.374z" fill="#37BC9B" /><path d="M832.016 396.758c-106.062 0-192 85.968-192 192 0 106.062 85.938 192 192 192 106 0 192-85.938 192-192 0-106.032-86-192-192-192z m105.562 297.624c-28.188 28.188-65.688 43.688-105.562 43.688-39.906 0-77.406-15.5-105.624-43.718-28.188-28.218-43.718-65.718-43.718-105.594s15.532-77.39 43.718-105.594c28.218-28.204 65.718-43.734 105.624-43.734 39.876 0 77.376 15.532 105.562 43.734 28.218 28.204 43.75 65.718 43.75 105.594s-15.53 77.374-43.75 105.624zM192 243.258c-106.032 0-192 85.954-192 192 0 106.032 85.968 192 192 192s192-85.968 192-192c0-106.048-85.968-192-192-192z m105.594 297.594c-28.204 28.218-65.704 43.718-105.594 43.718s-77.39-15.5-105.594-43.718c-28.204-28.204-43.734-65.704-43.734-105.594s15.532-77.39 43.734-105.594 65.704-43.734 105.594-43.734 77.39 15.532 105.594 43.734 43.734 65.704 43.734 105.594-15.53 77.39-43.734 105.594z" fill="#48CFAD" /></svg>