<?xml version="1.0" standalone="no"?><!DOCTYPE svg PUBLIC "-//W3C//DTD SVG 1.1//EN" "http://www.w3.org/Graphics/SVG/1.1/DTD/svg11.dtd"><svg class="icon" width="128px" height="128.00px" viewBox="0 0 1024 1024" version="1.1" xmlns="http://www.w3.org/2000/svg"><path d="M426.664 341.348c-11.782 0-21.344-9.562-21.344-21.344v-42.654c0-11.782 9.562-21.344 21.344-21.344 11.78 0 21.312 9.562 21.312 21.344v42.654c0 11.782-9.532 21.344-21.312 21.344z" fill="#E6E9ED" /><path d="M831.984 981.334c-11.782 0-21.312-9.532-21.312-21.344a21.3 21.3 0 0 1 21.312-21.312c22.592 0 39.404-6.406 50.03-19.062 11.562-13.748 13.968-32.03 13.968-44.936 0-20.594-12.532-37-32.718-42.81-40.31-11.596-78.28 21.904-98.53 54.154-6.282 9.968-19.438 12.968-29.438 6.718-9.968-6.282-12.968-19.438-6.688-29.438 19.124-30.404 43.5-53.032 70.532-65.406 24.968-11.438 51.938-13.938 75.936-7.032 38.624 11.156 63.594 44.034 63.594 83.812 0 28.688-8.282 53.716-23.968 72.374-13.158 15.656-38.158 34.282-82.718 34.282z" fill="#F6BB42" /><path d="M533.318 298.692h-213.34a21.3 21.3 0 0 0-21.312 21.312V874.68a21.3 21.3 0 0 0 21.312 21.312h213.34c11.796 0 21.358-9.532 21.358-21.312V320.004c0-11.782-9.56-21.312-21.358-21.312z" fill="#AC92EB" /><path d="M298.666 682.684v127.996c153.154 0 256.01-85.342 256.01-85.342v-127.996s-102.856 85.342-256.01 85.342zM298.666 426.69v127.996c153.154 0 256.01-85.342 256.01-85.342v-127.996s-102.856 85.342-256.01 85.342z" fill="#A0D468" /><path d="M469.32 154.696c0 44.156-19.094 58.656-42.656 58.656-23.562 0-42.686-14.5-42.686-58.656 0-44.186 19.124-133.342 42.686-133.342s42.656 89.156 42.656 133.342z" fill="#FFCE54" /><path d="M426.664 234.694c-19.188 0-35.25-7.032-46.468-20.342-11.624-13.782-17.532-33.844-17.532-59.656 0-24.624 5.344-60.342 13.282-88.966C383.758 37.542 397.54 0.014 426.664 0.014c29.092 0 42.874 37.53 50.716 65.716 7.938 28.624 13.282 64.344 13.282 88.966 0 25.812-5.906 45.876-17.53 59.656-11.25 13.31-27.312 20.342-46.468 20.342z m0-184.466c-3.406 7.062-7.75 18.562-12 36.124-5.688 23.344-9.344 50.156-9.344 68.342 0 37.312 14.406 37.312 21.344 37.312 6.906 0 21.312 0 21.312-37.312 0-18.186-3.656-44.998-9.312-68.342-4.282-17.56-8.594-29.06-12-36.124z" fill="#F6BB42" /><path d="M533.318 298.692h-21.344c11.812 0 21.344 9.532 21.344 21.312V874.68c0 11.782-9.532 21.312-21.344 21.312h21.344c11.796 0 21.358-9.532 21.358-21.312V320.004c0-11.782-9.56-21.312-21.358-21.312z" fill="#FFFFFF" opacity=".2" /><path d="M661.332 1023.988H191.982a21.352 21.352 0 0 1-17.75-9.5l-85.31-127.996a21.246 21.246 0 0 1-1.062-21.876 21.312 21.312 0 0 1 18.812-11.282h640c7.876 0 15.094 4.344 18.812 11.282a21.39 21.39 0 0 1-1.062 21.876l-85.342 127.996a21.308 21.308 0 0 1-17.748 9.5z" fill="#FFCE54" /></svg>