<?xml version="1.0" standalone="no"?><!DOCTYPE svg PUBLIC "-//W3C//DTD SVG 1.1//EN" "http://www.w3.org/Graphics/SVG/1.1/DTD/svg11.dtd"><svg class="icon" width="128px" height="128.00px" viewBox="0 0 1024 1024" version="1.1" xmlns="http://www.w3.org/2000/svg"><path d="M362.66 298.676h298.682v597.316H362.66z" fill="#AC92EB" /><path d="M426.658 533.36c11.782 0 21.344-9.546 21.344-21.328V298.676h-42.656v213.354c0 11.782 9.53 21.33 21.312 21.33zM554.656 405.33c11.782 0 21.344-9.546 21.344-21.328v-85.326h-42.656v85.326c0 11.782 9.532 21.328 21.312 21.328z" fill="#967ADC" /><path d="M490.658 230.708h42.686v67.968h-42.686z" fill="#E6E9ED" /><path d="M512 234.678c-46.936 0-85.154-36.374-85.154-81.076 0-21.014 13.876-54.388 35.342-84.998 23.032-32.874 43.842-46.998 49.842-47.264 5.97 0.266 26.75 14.39 49.814 47.264 21.438 30.61 35.312 63.984 35.312 84.998 0 44.702-38.218 81.076-85.156 81.076z" fill="#FFCE54" /><path d="M512 0.012c-36.06 0-106.464 97.044-106.464 153.59 0 56.562 47.654 102.404 106.464 102.404 58.814 0 106.47-45.842 106.47-102.404C618.468 97.056 548.062 0.012 512 0.012z m0 213.322c-35.186 0-63.81-26.796-63.81-59.734 0-12.36 8.342-37.578 26.936-66.06 14.844-22.75 28.904-36.468 36.874-42.39 7.97 5.92 22.032 19.64 36.876 42.39 18.594 28.484 26.938 53.702 26.938 66.06-0.002 32.94-28.626 59.734-63.814 59.734z" fill="#F6BB42" /><path d="M853.336 853.304H170.664c-23.468 0-33.686 17-22.686 37.75l50.436 95.246c10.968 20.718 39.156 37.688 62.624 37.688h501.928c23.468 0 51.654-16.968 62.654-37.688l50.404-95.246c11-20.75 0.78-37.75-22.688-37.75z" fill="#A0D468" /></svg>