<?xml version="1.0" standalone="no"?><!DOCTYPE svg PUBLIC "-//W3C//DTD SVG 1.1//EN" "http://www.w3.org/Graphics/SVG/1.1/DTD/svg11.dtd"><svg class="icon" width="128px" height="128.00px" viewBox="0 0 1024 1024" version="1.1" xmlns="http://www.w3.org/2000/svg"><path d="M397.628 656.506l-30.188-30.154L6.262 987.53l-0.032 0.032-0.282 0.312c-8 8.344-7.938 21.624 0.312 29.844 8.218 8.218 21.468 8.312 29.842 0.282v0.032l361.526-361.526z" fill="#E6E9ED" /><path d="M1010.802 526.134c-54.874 204.838-265.4 326.368-470.24 271.494-204.808-54.876-326.368-265.416-271.494-470.242C323.972 122.564 534.5 1.004 739.308 55.894c204.84 54.874 326.4 265.416 271.494 470.24z" fill="#DA4453" /><path d="M1010.802 483.462c-54.874 204.826-265.4 326.386-470.24 271.51C335.754 700.1 214.194 489.54 269.068 284.716 323.972 79.894 534.5-41.65 739.308 13.224c204.84 54.888 326.4 265.416 271.494 470.238z" fill="#ED5564" /><path d="M1010.928 482.946c-18.25 5.954-47.06 12.438-83.966 11.454-38.812-1.046-79-10.016-119.404-26.686-37.998-15.67-76.28-38.234-114.28-67.28 52.624-6.906 100.5-19.374 142.842-37.248 45.374-19.14 84.56-44.484 116.466-75.328 18.154-17.562 31.904-34.936 42.186-50.436-6.532-15.734-14.032-31-22.562-45.702-22.498 44.154-92.654 140.746-282.994 166.23 32.312-42.11 57.344-84.78 74.656-127.358 18.562-45.638 28.344-91.264 29.094-135.622 0.438-25.282-2.156-47.282-5.844-65.53a387.584 387.584 0 0 0-47.812-16.218c-0.124-0.032-0.282-0.078-0.438-0.11 15.312 47.154 34 165.058-82.592 317.664-6.906-52.624-19.376-100.514-37.248-142.856-19.124-45.39-44.468-84.576-75.312-116.466-17.562-18.172-34.938-31.89-50.436-42.186a387.814 387.814 0 0 0-45.718 22.546c44.156 22.516 140.748 92.67 166.248 283.01-42.124-32.312-84.782-57.358-127.374-74.67-45.624-18.546-91.248-28.344-135.622-29.078-25.282-0.438-47.28 2.156-65.53 5.844a392.756 392.756 0 0 0-16.218 47.796c-0.032 0.172-0.062 0.344-0.124 0.516 18.28-5.936 47.062-12.42 83.966-11.436 38.842 1.032 78.998 10.014 119.404 26.67 37.998 15.686 76.312 38.25 114.312 67.28-52.624 6.92-100.5 19.39-142.842 37.248-45.406 19.156-84.592 44.5-116.466 75.326-18.186 17.578-31.906 34.954-42.186 50.454a387.952 387.952 0 0 0 22.532 45.67c9.5-18.498 26-43.374 51.342-67.39 28.186-26.718 62.936-48.78 103.278-65.56 37.968-15.782 81-26.906 128.406-33.25-32.344 42.094-57.376 84.764-74.688 127.342-18.532 45.638-28.342 91.262-29.062 135.636-0.438 25.282 2.156 47.282 5.844 65.53a391.712 391.712 0 0 0 47.78 16.218c0.188 0.032 0.344 0.094 0.532 0.124-5.938-18.282-12.438-47.06-11.438-83.966 1.032-38.844 10-78.998 26.656-119.402 15.688-38.016 38.25-76.312 67.282-114.312 6.936 52.624 19.404 100.514 37.248 142.872 19.154 45.376 44.498 84.56 75.342 116.466 17.562 18.156 34.938 31.874 50.438 42.154a387.8 387.8 0 0 0 45.716-22.53c-44.186-22.5-140.78-92.686-166.246-283.026 42.092 32.328 84.78 57.358 127.342 74.67 45.654 18.564 91.278 28.344 135.622 29.094 1.844 0.032 3.656 0.046 5.468 0.046 23 0 43.154-2.468 60.06-5.89a381.144 381.144 0 0 0 16.218-47.814c0.06-0.166 0.09-0.338 0.122-0.51z" fill="#DA4453" /></svg>