<?xml version="1.0" standalone="no"?><!DOCTYPE svg PUBLIC "-//W3C//DTD SVG 1.1//EN" "http://www.w3.org/Graphics/SVG/1.1/DTD/svg11.dtd"><svg class="icon" width="128px" height="128.00px" viewBox="0 0 1024 1024" version="1.1" xmlns="http://www.w3.org/2000/svg"><path d="M271.102 475.58c8.312 8.326 8.312 21.826 0 30.154a21.33 21.33 0 0 1-30.186 0c-8.312-8.328-8.312-21.828 0-30.154 8.342-8.344 21.842-8.328 30.186 0zM441.752 411.582c8.344 8.328 8.344 21.826 0 30.17-8.344 8.328-21.842 8.328-30.154-0.016a21.292 21.292 0 0 1 0-30.154c8.312-8.328 21.81-8.328 30.154 0zM612.404 219.588c8.344 8.328 8.344 21.828 0 30.17-8.312 8.328-21.812 8.328-30.156 0-8.344-8.342-8.344-21.842 0-30.17s21.844-8.328 30.156 0zM783.084 390.238c8.312 8.344 8.312 21.844 0 30.172-8.344 8.326-21.842 8.326-30.186 0-8.312-8.328-8.312-21.828 0-30.172a21.36 21.36 0 0 1 30.186 0z" fill="#D770AD" /><path d="M256.008 341.334h170.65V960.64h-170.65z" fill="#EC87C0" /><path d="M256.008 627.434l170.65-170.308v-60.278l-170.65 170.306zM426.658 638.278v-60.342l-170.65 170.65v60.34z" fill="#D770AD" /><path d="M405.348 279.79c0-33.998-42.342-109.122-63.998-109.122-21.688 0-63.998 75.124-63.998 109.122 0 33.982 28.654 61.544 63.998 61.544 35.342 0 63.998-27.562 63.998-61.544z" fill="#FFCE54" /><path d="M426.658 874.644h-170.65l-21.342 149.338h213.336z" fill="#E6E9ED" /><path d="M597.342 170.668h170.65V960.64h-170.65z" fill="#EC87C0" /><path d="M746.648 109.124c0-33.984-42.31-109.106-63.998-109.106-21.656 0-63.996 75.122-63.996 109.106 0 33.998 28.654 61.544 63.996 61.544 35.344 0 63.998-27.546 63.998-61.544z" fill="#FFCE54" /><path d="M597.342 448.814l170.65-170.65v-60.342l-170.65 170.666zM767.992 459.174v-60.342l-170.65 170.666v60.342zM767.992 640.184v-60.31l-170.65 170.618v60.372z" fill="#D770AD" /><path d="M767.992 874.644h-170.65l-21.344 149.338h213.336z" fill="#E6E9ED" /><path d="M448.002 981.296H234.666c-11.782 0-21.312 9.562-21.312 21.344 0 11.78 9.532 21.342 21.312 21.342h213.336c11.782 0 21.344-9.562 21.344-21.342s-9.562-21.344-21.344-21.344zM789.334 981.296H575.998c-11.782 0-21.344 9.562-21.344 21.344 0 11.78 9.562 21.342 21.344 21.342h213.336c11.782 0 21.312-9.562 21.312-21.342s-9.53-21.344-21.312-21.344z" fill="#CCD1D9" /></svg>