<?xml version="1.0" standalone="no"?><!DOCTYPE svg PUBLIC "-//W3C//DTD SVG 1.1//EN" "http://www.w3.org/Graphics/SVG/1.1/DTD/svg11.dtd"><svg class="icon" width="128px" height="128.00px" viewBox="0 0 1024 1024" version="1.1" xmlns="http://www.w3.org/2000/svg"><path d="M634.434 908.106c-27.748-17.25-104.84-67.468-180.962-137.34-54.998-50.5-98.714-101.214-129.932-150.714-38.062-60.372-57.374-118.87-57.374-173.916 0-113.542 92.404-205.916 205.93-205.916 55.78 0 108.028 21.952 147.09 61.826l15.216 15.546 15.25-15.546c39.06-39.874 91.308-61.826 147.088-61.826 113.528 0 205.898 92.372 205.898 205.916 0 55.138-19.374 113.794-57.558 174.258-31.312 49.562-75.154 100.34-130.308 150.902-76.028 69.684-152.716 119.622-180.338 136.81z" fill="#DA4453" /><path d="M796.74 218.894c-63.59 0-121.09 26.124-162.338 68.216-41.248-42.092-98.714-68.216-162.306-68.216-125.496 0-227.242 101.73-227.242 227.242 0 259.724 389.548 486.966 389.548 486.966s389.58-227.242 389.58-486.966c0-125.512-101.746-227.242-227.242-227.242z m4.75 535.652c-66.402 61.028-133.714 106.934-167.088 128.308-33.342-21.406-100.652-67.282-167.056-128.308-53.466-49.188-95.84-98.372-125.964-146.184-35.75-56.808-53.874-111.37-53.874-162.228 0-49.31 19.218-95.654 54.06-130.528 34.874-34.858 81.216-54.06 130.528-54.06 49.998 0 96.84 19.688 131.84 55.42l30.466 31.11 30.498-31.11c35-35.732 81.842-55.42 131.84-55.42 49.312 0 95.652 19.204 130.528 54.06 34.844 34.874 54.06 81.216 54.06 130.528 0 50.858-18.124 105.418-53.904 162.228-30.094 47.814-72.466 96.998-125.934 146.184z" fill="#ED5564" /><path d="M874.644 442.448c-23.53 0-42.654-19.14-42.654-42.67 0-23.532 19.124-42.67 42.654-42.67s42.686 19.14 42.686 42.67-19.156 42.67-42.686 42.67zM853.334 591.77c-23.532 0-42.688-19.152-42.688-42.652 0-23.532 19.156-42.67 42.688-42.67 23.53 0 42.652 19.14 42.652 42.67 0 23.5-19.122 42.652-42.652 42.652zM767.992 719.766c-23.532 0-42.654-19.156-42.654-42.652 0-23.532 19.124-42.688 42.654-42.688 23.53 0 42.654 19.156 42.654 42.688 0 23.496-19.124 42.652-42.654 42.652zM639.996 826.418c-23.53 0-42.654-19.124-42.654-42.652 0-23.532 19.124-42.656 42.654-42.656s42.654 19.124 42.654 42.656c0 23.526-19.124 42.652-42.654 42.652zM703.994 570.43c-23.532 0-42.656-19.124-42.656-42.656 0-23.53 19.124-42.67 42.656-42.67s42.654 19.14 42.654 42.67-19.122 42.656-42.654 42.656zM597.342 677.114c-23.532 0-42.688-19.156-42.688-42.688 0-23.5 19.156-42.656 42.688-42.656s42.654 19.156 42.654 42.656c0 23.532-19.122 42.688-42.654 42.688zM725.338 399.778c-23.532 0-42.688-19.14-42.688-42.67 0-23.514 19.156-42.656 42.688-42.656 23.53 0 42.654 19.14 42.654 42.656 0 23.53-19.124 42.67-42.654 42.67z" fill="#7F4545" /><path d="M874.644 335.78c-35.342 0-63.998 28.654-63.998 63.998 0 35.342 28.656 63.998 63.998 63.998s63.998-28.656 63.998-63.998c0-35.344-28.656-63.998-63.998-63.998z m0 85.324c-11.75 0-21.31-9.562-21.31-21.326 0-11.766 9.56-21.328 21.31-21.328 11.78 0 21.342 9.562 21.342 21.328 0 11.764-9.562 21.326-21.342 21.326zM853.334 485.102c-35.344 0-64 28.656-64 64.014 0 35.308 28.656 63.996 64 63.996 35.34 0 63.996-28.688 63.996-63.996 0-35.358-28.656-64.014-63.996-64.014z m0 85.328c-11.782 0-21.344-9.562-21.344-21.312 0-11.766 9.562-21.344 21.344-21.344 11.748 0 21.31 9.578 21.31 21.344 0 11.75-9.562 21.312-21.31 21.312zM767.992 613.114c-35.342 0-63.998 28.624-63.998 64 0 35.34 28.656 63.996 63.998 63.996s63.998-28.656 63.998-63.996c0-35.376-28.656-64-63.998-64z m0 85.308c-11.75 0-21.344-9.558-21.344-21.308s9.594-21.344 21.344-21.344c11.748 0 21.342 9.594 21.342 21.344s-9.594 21.308-21.342 21.308zM639.996 719.766c-35.342 0-63.998 28.656-63.998 64 0 35.34 28.656 63.996 63.998 63.996s63.998-28.656 63.998-63.996c0-35.344-28.656-64-63.998-64z m0 85.344c-11.75 0-21.342-9.562-21.342-21.344s9.592-21.344 21.342-21.344 21.342 9.562 21.342 21.344-9.592 21.344-21.342 21.344zM703.994 591.77c35.344 0 63.998-28.652 63.998-63.996 0-35.342-28.654-63.998-63.998-63.998s-63.998 28.654-63.998 63.998c0 35.344 28.654 63.996 63.998 63.996z m0-85.324c11.75 0 21.344 9.562 21.344 21.328s-9.594 21.344-21.344 21.344-21.344-9.578-21.344-21.344 9.594-21.328 21.344-21.328zM661.338 634.426c0-35.312-28.654-63.996-63.996-63.996-35.344 0-63.998 28.684-63.998 63.996 0 35.376 28.654 63.996 63.998 63.996 35.342 0 63.996-28.622 63.996-63.996z m-85.34 0c0-11.75 9.562-21.312 21.344-21.312 11.75 0 21.312 9.562 21.312 21.312 0 11.782-9.562 21.344-21.312 21.344-11.782 0-21.344-9.562-21.344-21.344zM725.338 421.104c35.342 0 63.996-28.654 63.996-63.998s-28.654-63.998-63.996-63.998c-35.344 0-64 28.656-64 63.998s28.656 63.998 64 63.998z m0-85.324c11.75 0 21.31 9.578 21.31 21.328 0 11.764-9.56 21.342-21.31 21.342-11.782 0-21.344-9.578-21.344-21.342 0-11.75 9.562-21.328 21.344-21.328z" fill="#602B2B" /><path d="M551.904 90.898c-63.59 0-121.058 26.124-162.306 68.216-41.25-42.092-98.748-68.216-162.338-68.216C101.764 90.898 0.018 192.628 0.018 318.14 0.018 577.868 389.6 805.11 389.6 805.11S779.146 577.868 779.146 318.14c0-125.512-101.746-227.242-227.242-227.242z" fill="#ED5564" /><path d="M779.146 318.14c0-43.592-12.28-84.31-33.56-118.902L107.42 567.68c28.436 34.558 59.998 66.496 91.434 94.996l580.104-334.912c0.126-3.202 0.188-6.406 0.188-9.624z" fill="#FFCE54" /><path d="M597.342 421.104c-35.312 0-63.998-28.702-63.998-63.998 0-35.28 28.686-63.998 63.998-63.998 35.28 0 63.996 28.718 63.996 63.998 0 35.298-28.716 63.998-63.996 63.998z" fill="#FFCE54" /><path d="M597.342 271.782c-47.124 0-85.342 38.202-85.342 85.326 0 47.14 38.216 85.34 85.342 85.34 47.124 0 85.308-38.202 85.308-85.34 0-47.124-38.186-85.326-85.308-85.326z m0 127.996c-23.532 0-42.688-19.14-42.688-42.67 0-23.514 19.156-42.656 42.688-42.656s42.654 19.14 42.654 42.656c0 23.53-19.122 42.67-42.654 42.67z" fill="#F6BB42" /><path d="M618.654 357.108c0 11.78-9.532 21.342-21.312 21.342s-21.344-9.562-21.344-21.342 9.562-21.328 21.344-21.328 21.312 9.548 21.312 21.328z" fill="#F6BB42" /></svg>