<?xml version="1.0" standalone="no"?><!DOCTYPE svg PUBLIC "-//W3C//DTD SVG 1.1//EN" "http://www.w3.org/Graphics/SVG/1.1/DTD/svg11.dtd"><svg class="icon" width="128px" height="128.00px" viewBox="0 0 1024 1024" version="1.1" xmlns="http://www.w3.org/2000/svg"><path d="M554.68 594.658h-85.36v386.676c0 23.532 19.14 42.654 42.672 42.654s42.688-19.124 42.688-42.654V594.658z" fill="#FFCE54" /><path d="M469.32 895.992v42.656a21.222 21.222 0 0 0 14.922-6.25c8.328-8.312 8.328-21.812 0-30.156a21.356 21.356 0 0 0-14.922-6.25z" fill="#F6BB42" /><path d="M591.052 6.27c-8.312-8.344-21.812-8.344-30.124 0-0.562 0.562-1.092 1.156-1.56 1.75v-0.032c-3.156 3.938-76.782 96.654-68.578 171.682l42.406-4.624c-5.188-47.592 40.982-117.216 59.356-140.214V34.8c0.032-0.032 0.062-0.062 0.062-0.094 6.75-8.406 6.25-20.656-1.562-28.436z" fill="#434A54" /><path d="M554.68 895.992v-42.654c-5.532-0.032-11.062 2.032-15.266 6.25-8.344 8.312-8.344 21.81 0 30.154 4.204 4.218 9.734 6.282 15.266 6.25zM469.32 810.684v42.654c5.406-0.062 10.796-2.124 14.922-6.25 8.328-8.344 8.328-21.844 0-30.188a21.192 21.192 0 0 0-14.922-6.216zM554.68 981.302V938.68a21.254 21.254 0 0 0-15.266 6.216 21.332 21.332 0 0 0 0 30.188 21.232 21.232 0 0 0 15.266 6.218zM554.68 810.652v-42.656c-5.532-0.032-11.062 2.032-15.266 6.25-8.344 8.344-8.344 21.844 0 30.156a21.14 21.14 0 0 0 15.266 6.25zM469.32 725.342v42.654a21.222 21.222 0 0 0 14.922-6.25c8.328-8.312 8.328-21.842 0-30.154a21.22 21.22 0 0 0-14.922-6.25zM554.68 725.31v-42.624a21.248 21.248 0 0 0-15.266 6.218 21.332 21.332 0 0 0 0 30.188 21.232 21.232 0 0 0 15.266 6.218z" fill="#F6BB42" /><path d="M511.992 152.078c-177.948-78.216-298.664 44.716-298.664 218.712 0 173.932 164.246 327.834 298.664 267.242 134.434 60.592 298.68-93.308 298.68-267.242 0-173.996-120.748-296.928-298.68-218.712z" fill="#ED5564" /><path d="M776.422 467.224l-54.344 15.688c-22.216 6.406-46.184 7.75-62.372 7.75s-40.156-1.344-62.344-7.75l-54.372-15.688c-5.672-1.624-16.828-3.376-31.188-3.376s-25.532 1.75-31.188 3.376l-54.358 15.688c-22.218 6.406-46.17 7.75-62.358 7.75s-40.154-1.344-62.358-7.75l-54.374-15.688c-3.796-1.062-10.062-2.218-18.094-2.844 44.216 130.09 173.448 222.992 282.914 173.65 109.464 49.342 238.71-43.56 282.93-173.712-8.212 0.656-14.62 1.812-18.494 2.906z" fill="#A0D468" /><path d="M420.244 198.264a21.402 21.402 0 0 0-14.25-6.218c-1.734-0.062-42.78-1.25-78.34 34.312-36.688 36.686-53.672 97.184-50.468 179.806h0.016a21.208 21.208 0 0 0 6.218 14.25c8.328 8.342 21.828 8.342 30.172 0 4.376-4.376 6.422-10.156 6.204-15.906h0.016c-2.656-68.592 10.218-119.464 37.232-147.214 22.124-22.686 46.56-22.624 47.56-22.624h-0.266v-0.032c5.734 0.218 11.532-1.812 15.906-6.218 8.328-8.312 8.328-21.812 0-30.156z" fill="#DA4453" /><path d="M703.798 661.312v-174.65h-42.624v174.682c0 5.438 2.062 10.906 6.25 15.062 8.312 8.342 21.81 8.342 30.154 0a21.122 21.122 0 0 0 6.22-15.094zM469.164 533.316c0 5.468 2.078 10.938 6.25 15.094 8.328 8.342 21.844 8.342 30.172 0a21.26 21.26 0 0 0 6.234-15.062h0.016v-96.716h-42.672v96.684zM341.168 512.004v1.782h0.078a21.278 21.278 0 0 0 6.172 13.312c8.328 8.312 21.844 8.312 30.172 0a21.33 21.33 0 0 0 6.156-13.312h0.094v-64.716h-42.672v62.934zM575.834 512.004c-0.032 5.468 2.094 10.906 6.218 15.094 8.376 8.312 21.874 8.312 30.186 0 4.188-4.156 6.25-9.624 6.25-15.094v-59.374h-42.654v59.374z" fill="#ED5564" /></svg>