<?xml version="1.0" standalone="no"?><!DOCTYPE svg PUBLIC "-//W3C//DTD SVG 1.1//EN" "http://www.w3.org/Graphics/SVG/1.1/DTD/svg11.dtd"><svg class="icon" width="128px" height="128.00px" viewBox="0 0 1024 1024" version="1.1" xmlns="http://www.w3.org/2000/svg"><path d="M362.668292 341.331333v639.96875c0 23.559954 19.091963 42.685917 42.655916 42.685917V298.675417c-23.563954 0-42.655917 19.093963-42.655916 42.655916z" fill="#967ADC" /><path d="M661.299708 981.300083c0 23.559954-19.061963 42.685917-42.621916 42.685917H405.324208c-23.561954 0-42.655917-19.123963-42.655916-42.685917V341.331333c0-23.561954 19.091963-42.655917 42.655916-42.655916H618.679792c23.557954 0 42.621917 19.091963 42.621916 42.655916v639.96875z" fill="#AC92EB" /><path d="M511.992 234.677542c-46.951908 0-85.137834-36.373929-85.137834-81.075842 0-21.013959 13.859973-54.387894 35.311931-84.997834 23.045955-32.873936 43.841914-46.997908 49.857903-47.263908 5.953988 0.265999 26.749948 14.389972 49.781903 47.263908 21.467958 30.60994 35.311931 63.983875 35.311931 84.997834 0 44.701913-38.187925 81.075842-85.125834 81.075842z" fill="#FFCE54" /><path d="M362.668292 557.186912c181.541645-3.187994 263.163486-56.56189 298.631416-95.435814v-127.99775c-35.467931 38.873924-117.089771 92.24782-298.631416 95.451814v127.98175zM362.668292 813.178412c181.541645-3.185994 263.163486-56.55989 298.631416-95.433814v-127.99775c-35.467931 38.873924-117.089771 92.24782-298.631416 95.435814v127.99575zM362.668292 941.176162v82.809838H661.299708v-178.245652c-35.467931 38.875924-117.089771 92.24782-298.631416 95.435814z" fill="#A0D468" /><path d="M490.666042 225.14556h42.655916v73.529857h-42.655916z" fill="#E6E9ED" /><path d="M511.992 0.012c-36.05993 0-106.463792 97.04381-106.463792 153.5897 0 56.56189 47.653907 102.4038 106.463792 102.4038 58.813885 0 106.469792-45.84191 106.469792-102.4038C618.459792 97.05581 548.05393 0.012 511.992 0.012z m0 213.321583c-35.185931 0-63.809875-26.795948-63.809875-59.733883 0-12.359976 8.327984-37.577927 26.935947-66.059871 14.843971-22.749956 28.919944-36.467929 36.873928-42.389917 7.953984 5.919988 22.031957 19.639962 36.875928 42.389917 18.623964 28.483944 26.937947 53.701895 26.937947 66.059871-0.002 32.939936-28.625944 59.733883-63.813875 59.733883z" fill="#F6BB42" /><path d="M405.324208 939.426165c-13.561974 0.875998-27.765946 1.499997-42.655916 1.749997v82.809838h42.655916v-84.559835zM405.324208 683.432665c-13.561974 0.875998-27.765946 1.499997-42.655916 1.749997v127.99575a898.674245 898.674245 0 0 0 42.655916-1.747997v-127.99775zM405.324208 427.423165c-13.561974 0.905998-27.765946 1.515997-42.655916 1.781997v127.98175a895.94825 895.94825 0 0 0 42.655916-1.749997v-128.01375z" fill="#8CC153" /><path d="M789.299458 1023.986H234.670542c-11.781977 0-21.343958-9.561981-21.343959-21.311958 0-11.811977 9.561981-21.373958 21.343959-21.373959H789.299458c11.807977 0 21.371958 9.559981 21.371959 21.373959 0 11.749977-9.561981 21.311958-21.371959 21.311958z" fill="#434A54" /></svg>