<?xml version="1.0" standalone="no"?><!DOCTYPE svg PUBLIC "-//W3C//DTD SVG 1.1//EN" "http://www.w3.org/Graphics/SVG/1.1/DTD/svg11.dtd"><svg class="icon" width="128px" height="128.00px" viewBox="0 0 1024 1024" version="1.1" xmlns="http://www.w3.org/2000/svg"><path d="M1014.022 160.724L863.276 9.962c-16.594-16.578-36.216-11.954-43.654 10.312l-78.466 235.572c-3.718 11.14-2.532 19.734 2.376 24.624 4.876 4.89 13.468 6.078 24.624 2.376l235.556-78.484c22.278-7.418 26.904-27.044 10.31-43.638zM280.462 743.524c-4.874-4.876-13.468-6.062-24.592-2.376L20.282 819.646c-22.25 7.406-26.906 27.032-10.312 43.624l150.746 150.778c16.594 16.562 36.25 11.938 43.656-10.312l78.466-235.588c3.718-11.124 2.53-19.718-2.376-24.624z" fill="#A0D468" /><path d="M336.868 898.3c-16.686 16.656-43.686 16.656-60.342 0l-150.81-150.84c-16.656-16.656-16.656-43.654 0-60.31L677.56 135.302c16.656-16.656 43.656-16.656 60.312 0l150.808 150.81c16.688 16.656 16.688 43.67 0 60.328L336.868 898.3z" fill="#ED5564" /><path d="M718.342 245.332c-8.344-8.328-21.844-8.328-30.188 0L235.746 697.776c-8.312 8.312-8.312 21.812 0 30.154a21.294 21.294 0 0 0 15.092 6.25c5.438 0 10.906-2.094 15.062-6.25l452.442-452.426c8.312-8.328 8.312-21.844 0-30.172z" fill="#DA4453" /></svg>