<?xml version="1.0" standalone="no"?><!DOCTYPE svg PUBLIC "-//W3C//DTD SVG 1.1//EN" "http://www.w3.org/Graphics/SVG/1.1/DTD/svg11.dtd"><svg class="icon" width="128px" height="128.00px" viewBox="0 0 1024 1024" version="1.1" xmlns="http://www.w3.org/2000/svg"><path d="M874.65 47.646c-8.312-8.344-21.844-8.344-30.156 0l-94.06 94.028 30.188 30.186 94.03-94.06c8.34-8.312 8.34-21.81-0.002-30.154z" fill="#F5BA45" /><path d="M693.624 198.484L6.274 885.866l90.514 90.498 687.364-687.382-90.528-90.498z" fill="#424953" /><path d="M693.624 258.826L66.616 885.866l30.172 30.154 627.022-627.038z" fill="#646C77" /><path d="M874.65 79.332c-38.216 0-76.436 14.562-105.592 43.75l-105.59 105.59 90.496 90.496 105.466-105.434a21.62 21.62 0 0 1 15.312-6.312c5.436 0 10.874 2.032 14.998 6.156 8.31 8.312 8.31 21.844 0 30.156-24.842 25.032-24.936 65.592 0 90.528 12.498 12.5 28.874 18.718 45.248 18.718 16.312 0 32.624-6.188 45.092-18.562 0.062-0.062 0.094-0.124 0.156-0.156 58.31-58.342 58.31-152.87 0-211.18-29.152-29.188-67.37-43.75-105.586-43.75z" fill="#F5BA45" /><path d="M950.084 153.236c-20.156-20.156-46.938-31.25-75.434-31.25-28.5 0-55.28 11.094-75.404 31.25l-105.622 105.59 30.186 30.186 105.342-105.34v-0.032l0.094-0.062c12.124-12.156 28.28-18.81 45.498-18.81 17.09 0 33.122 6.624 45.152 18.624 12.094 12.094 18.75 28.156 18.75 45.28 0 17.062-6.624 33.092-18.688 45.186-8.282 8.406-8.344 21.938-0.062 30.218 5.438 5.438 11.782 6.25 15.094 6.25 5.656 0 11-2.188 15.032-6.188l0.562-0.562c19.812-20.092 30.748-46.686 30.748-74.904 0-28.5-11.124-55.28-31.248-75.436z" fill="#FECD57" /><path d="M111.864 982.612c-5.454 0-10.92-2.094-15.078-6.248L6.274 885.866a21.36 21.36 0 0 1 0-30.186c8.328-8.312 21.844-8.312 30.17 0l90.512 90.528c8.328 8.312 8.328 21.812 0 30.156a21.32 21.32 0 0 1-15.092 6.248z" fill="#CBD0D8" /></svg>