<?xml version="1.0" standalone="no"?><!DOCTYPE svg PUBLIC "-//W3C//DTD SVG 1.1//EN" "http://www.w3.org/Graphics/SVG/1.1/DTD/svg11.dtd"><svg class="icon" width="128px" height="128.00px" viewBox="0 0 1024 1024" version="1.1" xmlns="http://www.w3.org/2000/svg"><path d="M96.016 703.996h125.716v42.656H96.016z" fill="#424953" /><path d="M906.688 917.304c0 11.812-9.562 21.344-21.374 21.344H245.342c-11.782 0-21.328-9.532-21.328-21.344V21.338c0-11.782 9.546-21.328 21.328-21.328h639.972c11.81 0 21.374 9.546 21.374 21.328v895.966z" fill="#E5E8EC" /><path d="M906.688 1002.646c0 11.782-9.562 21.344-21.374 21.344H245.342c-11.782 0-21.328-9.562-21.328-21.344V106.664c0-11.782 9.546-21.328 21.328-21.328h639.972c11.81 0 21.374 9.546 21.374 21.328v895.982z" fill="#CBD0D8" /><path d="M224.014 883.804v118.842c0 11.782 9.546 21.344 21.328 21.344h639.972c11.81 0 21.374-9.562 21.374-21.344v-118.842H224.014z" fill="#E5E8EC" /><path d="M373.34 0.01h42.67v85.326H373.34zM544.006 0.01h42.688v85.326h-42.688zM714.692 0.01h42.624v85.326h-42.624z" fill="#CBD0D8" /><path d="M563.006 567.186l-42.294-107.122-39.686 15.67 42.294 107.108h0.016c3.124 7.906 10.812 13.5 19.826 13.5 11.782 0 21.344-9.562 21.344-21.344 0-2.75-0.562-5.406-1.5-7.812zM840.814 568.374l-0.156-0.438c-0.032 0-0.032-0.032-0.032-0.062l-42.438-107.654-39.376 16.718 42.312 107.124c3.124 7.876 10.844 13.5 19.876 13.5 11.75 0 21.312-9.562 21.312-21.344a21.692 21.692 0 0 0-1.498-7.844z" fill="#D94452" /><path d="M373.34 916.43h42.67v107.56H373.34zM544.006 916.43h42.688v107.56h-42.688zM714.692 916.43h42.624v107.56h-42.624z" fill="#CBD0D8" /><path d="M497.148 768.872h-159.996s-26.656-302.824-26.656-384.87c0-82.06 71.578-213.34 106.654-213.34 35.094 0 106.67 127.388 106.67 213.34 0 85.936-26.672 384.87-26.672 384.87z" fill="#EC5564" /><path d="M459.87 319.988c0 11.782-9.562 21.342-21.344 21.342s-21.328-9.562-21.328-21.342 9.546-21.328 21.328-21.328 21.344 9.548 21.344 21.328z" fill="#424953" /><path d="M774.502 768.872h-159.996s-26.688-302.824-26.688-384.87c0-82.06 71.562-213.34 106.686-213.34 35.062 0 106.624 127.388 106.624 213.34-0.002 85.936-26.626 384.87-26.626 384.87z" fill="#EC5564" /><path d="M737.192 319.988c0 11.782-9.562 21.342-21.344 21.342s-21.344-9.562-21.344-21.342 9.562-21.328 21.344-21.328 21.344 9.548 21.344 21.328z" fill="#424953" /><path d="M438.526 447.548c0-11.782-9.546-21.328-21.328-21.328s-21.328 9.546-21.328 21.328V533.33c0 11.796 9.546 21.328 21.328 21.328s21.328-9.532 21.328-21.328V447.548zM715.848 447.548c0-11.782-9.532-21.328-21.344-21.328-11.748 0-21.31 9.546-21.31 21.328v85.78c0 11.796 9.562 21.328 21.31 21.328a21.31 21.31 0 0 0 21.344-21.328v-85.78z" fill="#D94452" /><path d="M224.014 788.65v128.654c0 11.812 9.546 21.344 21.328 21.344h639.972c11.81 0 21.374-9.532 21.374-21.344v-128.654H224.014z" fill="#F5BA45" /><path d="M949.31 789.306c0 11.812-9.53 21.344-21.31 21.344H202.686c-11.782 0-21.344-9.532-21.344-21.344v-127.998c0-11.75 9.562-21.312 21.344-21.312H928c11.782 0 21.31 9.562 21.31 21.312v127.998z" fill="#FECD57" /><path d="M842.69 703.996H288.012c-11.78 0-21.326 9.562-21.326 21.312 0 11.812 9.546 21.344 21.326 21.344h554.678c11.75 0 21.312-9.532 21.312-21.344 0-11.75-9.562-21.312-21.312-21.312z" fill="#FFFFFF" opacity=".2" /><path d="M117.344 661.34v-0.032c0-11.75-9.546-21.312-21.328-21.312s-21.326 9.562-21.326 21.312V789.306c0 11.812 9.544 21.344 21.326 21.344s21.328-9.532 21.328-21.344V661.34z" fill="#646C77" /></svg>