<?xml version="1.0" standalone="no"?><!DOCTYPE svg PUBLIC "-//W3C//DTD SVG 1.1//EN" "http://www.w3.org/Graphics/SVG/1.1/DTD/svg11.dtd"><svg class="icon" width="128px" height="128.00px" viewBox="0 0 1024 1024" version="1.1" xmlns="http://www.w3.org/2000/svg"><path d="M106.664 85.352v853.296c0 47.154 181.464 85.342 405.336 85.342 223.84 0 405.336-38.188 405.336-85.342V85.352H106.664z" fill="#E5E8EC" /><path d="M512 810.65c-223.872 0-405.336-38.216-405.336-85.342v42.688c0 47.124 181.464 85.308 405.336 85.308 223.84 0 405.336-38.186 405.336-85.308v-42.688c0 47.126-181.496 85.342-405.336 85.342zM512 597.31c-223.872 0-405.336-38.186-405.336-85.31v42.656c0 47.154 181.464 85.34 405.336 85.34 223.84 0 405.336-38.186 405.336-85.34V512c0 47.124-181.496 85.31-405.336 85.31zM512 384.002c-223.872 0-405.336-38.218-405.336-85.342v42.686c0 47.124 181.464 85.312 405.336 85.312 223.84 0 405.336-38.188 405.336-85.312V298.66c0 47.124-181.496 85.342-405.336 85.342zM917.336 85.352c0 47.124-181.496 85.31-405.336 85.31-223.872 0-405.336-38.186-405.336-85.31S288.128 0.01 512 0.01c223.84 0 405.336 38.218 405.336 85.342z" fill="#CBD0D8" /><path d="M511.312 265.036c-114.404 0-208.372-13.156-276.932-27.53v652.3c68.562 14.376 162.528 27.5 276.932 27.5 114.842 0 209.122-13.25 277.744-27.688v-652.3c-68.622 14.436-162.902 27.718-277.744 27.718z" fill="#8AC054" /><path d="M412.284 515.75c-94.28 94.248-89.216 270.244-89.216 270.244s193.402-12.436 270.244-89.248c76.812-76.81 107.06-288.056 107.06-288.056s-193.81 12.78-288.088 107.06z m150.87 150.808c-13.468 13.438-33.716 25.876-60.248 36.876-23.124 9.624-50.562 17.968-81.53 24.812-19.406 4.282-37.78 7.438-53.406 9.718a504.206 504.206 0 0 1 6.282-43.844c8.468-45 27.218-107.216 68.216-148.246 32.812-32.812 87.5-59.532 158.09-77.25 16.938-4.282 32.968-7.532 47.124-10.03a1013.84 1013.84 0 0 1-13.438 54.936c-20.152 72.968-45.402 127.342-71.09 153.028z" fill="#424953" /><path d="M594.592 514.468c-12.5-12.5-28.876-18.75-45.25-18.75-16.404 0-32.78 6.25-45.28 18.75-24.968 25-24.968 65.498 0 90.498 12.5 12.468 28.876 18.718 45.28 18.718a63.892 63.892 0 0 0 45.25-18.718c25-25 25-65.498 0-90.498z m-30.188 60.342c-5.438 5.438-11.782 6.25-15.062 6.25-3.312 0-9.656-0.812-15.092-6.25-8.312-8.312-8.312-21.874 0-30.186 5.436-5.438 11.78-6.25 15.092-6.25 3.282 0 9.624 0.812 15.062 6.25 8.312 8.314 8.312 21.874 0 30.186z" fill="#424953" /><path d="M413.564 604.966c-25 24.968-25 65.53 0 90.498 12.5 12.5 28.874 18.75 45.25 18.75s32.78-6.25 45.25-18.75c25-24.968 25-65.53 0-90.498-12.468-12.5-28.874-18.75-45.25-18.75s-32.75 6.25-45.25 18.75z m60.344 60.342c-5.438 5.438-11.782 6.25-15.094 6.25-3.282 0-9.624-0.812-15.062-6.25-8.344-8.312-8.344-21.876 0-30.186 5.438-5.438 11.782-6.25 15.062-6.25 3.312 0 9.656 0.812 15.094 6.25 8.312 8.312 8.312 21.874 0 30.186z" fill="#424953" /></svg>