<?xml version="1.0" standalone="no"?><!DOCTYPE svg PUBLIC "-//W3C//DTD SVG 1.1//EN" "http://www.w3.org/Graphics/SVG/1.1/DTD/svg11.dtd"><svg class="icon" width="128px" height="128.00px" viewBox="0 0 1024 1024" version="1.1" xmlns="http://www.w3.org/2000/svg"><path d="M213.35 575.998v383.994c0 35.342 133.716 63.998 298.65 63.998 164.936 0 298.65-28.656 298.65-63.998V575.998h-597.3z" fill="#E5E8EC" /><path d="M512 512c-129.404 0-234.652-105.264-234.652-234.668C277.348 147.944 382.596 42.68 512 42.68s234.65 105.264 234.65 234.652C746.65 406.736 641.404 512 512 512z" fill="#A9B1BC" /><path d="M512 192.006c-47.124 0-85.342 38.204-85.342 85.326 0 47.14 38.218 85.342 85.342 85.342 47.124 0 85.342-38.202 85.342-85.342 0-47.124-38.218-85.326-85.342-85.326z m0 127.998c-23.532 0-42.656-19.14-42.656-42.672 0-23.514 19.124-42.656 42.656-42.656s42.654 19.14 42.654 42.656c0 23.532-19.122 42.672-42.654 42.672z" fill="#CBD0D8" /><path d="M512 106.68c-94.248 0-170.654 76.404-170.654 170.652C341.346 371.596 417.752 448 512 448s170.654-76.406 170.654-170.668c0-94.248-76.406-170.652-170.654-170.652z m0 298.65c-70.592 0-127.998-57.42-127.998-127.998 0-70.576 57.406-127.998 127.998-127.998 70.56 0 127.998 57.42 127.998 127.998S582.56 405.33 512 405.33z" fill="#CBD0D8" /><path d="M767.994 298.66c11.782 0 21.344-9.546 21.344-21.328s-9.562-21.328-21.344-21.328c-0.312 0-0.594 0.03-0.876 0.046a255.676 255.676 0 0 0-3.156-24.186c0.282-0.062 0.562-0.11 0.812-0.188 11.406-3.046 18.156-14.734 15.094-26.124-3.032-11.376-14.75-18.124-26.124-15.078l-0.782 0.25a266.764 266.764 0 0 0-9.344-22.532c0.25-0.124 0.5-0.234 0.75-0.376 10.188-5.906 13.688-18.936 7.812-29.14a21.336 21.336 0 0 0-29.154-7.812c-0.25 0.14-0.5 0.312-0.75 0.468a253.854 253.854 0 0 0-14.844-19.328c0.218-0.204 0.438-0.39 0.656-0.61a21.294 21.294 0 0 0 0-30.156c-8.312-8.344-21.842-8.344-30.154-0.016-0.218 0.218-0.406 0.454-0.624 0.672a255.308 255.308 0 0 0-19.312-14.86c0.156-0.25 0.312-0.484 0.468-0.734 5.906-10.204 2.406-23.25-7.812-29.14-10.188-5.89-23.25-2.406-29.124 7.796-0.156 0.25-0.25 0.516-0.406 0.766a245.836 245.836 0 0 0-22.532-9.344c0.094-0.266 0.188-0.532 0.25-0.796 3.062-11.39-3.688-23.078-15.062-26.124-11.376-3.062-23.094 3.704-26.124 15.078-0.094 0.282-0.124 0.546-0.188 0.828-7.938-1.422-16-2.468-24.186-3.14 0.032-0.296 0.062-0.578 0.062-0.89 0-11.782-9.562-21.328-21.344-21.328s-21.344 9.546-21.344 21.328c0 0.312 0.032 0.594 0.062 0.89-8.186 0.672-16.25 1.718-24.186 3.14-0.062-0.282-0.094-0.546-0.188-0.828-3.032-11.376-14.75-18.124-26.124-15.078-11.374 3.046-18.124 14.75-15.092 26.124 0.094 0.266 0.188 0.532 0.25 0.796a249.796 249.796 0 0 0-22.5 9.344c-0.156-0.25-0.25-0.516-0.406-0.75-5.876-10.204-18.936-13.704-29.124-7.812-10.218 5.89-13.718 18.936-7.812 29.14l0.468 0.75a257.904 257.904 0 0 0-19.344 14.844c-0.188-0.218-0.376-0.438-0.594-0.656-8.312-8.344-21.842-8.344-30.156 0a21.294 21.294 0 0 0 0 30.156c0.218 0.218 0.438 0.406 0.656 0.61a251.46 251.46 0 0 0-14.844 19.342c-0.25-0.156-0.5-0.328-0.75-0.484-10.218-5.89-23.25-2.39-29.156 7.812-5.876 10.204-2.376 23.25 7.812 29.14 0.25 0.14 0.5 0.25 0.75 0.376a266.764 266.764 0 0 0-9.344 22.532l-0.782-0.25c-11.376-3.046-23.094 3.704-26.124 15.078-3.062 11.39 3.688 23.078 15.062 26.124 0.282 0.078 0.562 0.124 0.844 0.188a256.446 256.446 0 0 0-3.156 24.186c-0.282-0.016-0.562-0.046-0.876-0.046-11.782 0-21.344 9.546-21.344 21.328s9.562 21.328 21.344 21.344c0.312 0 0.594-0.032 0.876-0.046 0.688 8.172 1.718 16.234 3.156 24.188-0.282 0.062-0.562 0.094-0.844 0.172-11.376 3.046-18.124 14.75-15.062 26.124 3.032 11.374 14.75 18.124 26.124 15.092 0.25-0.078 0.532-0.188 0.782-0.266a266.764 266.764 0 0 0 9.344 22.532c-0.25 0.14-0.5 0.25-0.75 0.39-10.188 5.89-13.688 18.938-7.812 29.14 5.906 10.204 18.936 13.704 29.156 7.812 0.25-0.156 0.468-0.328 0.718-0.484a255.256 255.256 0 0 0 14.876 19.328c-0.218 0.204-0.438 0.39-0.656 0.61-8.344 8.328-8.344 21.842 0 30.17 8.312 8.328 21.812 8.328 30.156 0 0.218-0.218 0.406-0.454 0.594-0.672a258.234 258.234 0 0 0 19.344 14.86c-0.156 0.25-0.312 0.484-0.468 0.734-5.906 10.218-2.406 23.25 7.812 29.156 10.188 5.89 23.218 2.39 29.124-7.812 0.156-0.25 0.25-0.5 0.376-0.75a258.628 258.628 0 0 0 22.532 9.344c-0.062 0.266-0.156 0.516-0.25 0.782-3.032 11.39 3.718 23.078 15.092 26.14 11.376 3.032 23.062-3.704 26.124-15.078l0.188-0.844c7.938 1.438 16 2.468 24.186 3.156a7.784 7.784 0 0 0-0.062 0.876c0 11.796 9.562 21.36 21.344 21.36s21.344-9.562 21.344-21.36c0-0.296-0.032-0.594-0.062-0.876 8.186-0.688 16.248-1.718 24.186-3.156 0.062 0.282 0.094 0.562 0.188 0.828 3.032 11.39 14.75 18.124 26.124 15.094 11.376-3.046 18.124-14.75 15.094-26.124-0.094-0.282-0.188-0.532-0.25-0.796a253.934 253.934 0 0 0 22.5-9.344c0.156 0.25 0.25 0.5 0.406 0.75 5.876 10.204 18.938 13.688 29.124 7.812 10.218-5.89 13.718-18.938 7.812-29.156-0.156-0.25-0.312-0.484-0.468-0.734a258.11 258.11 0 0 0 19.344-14.86c0.188 0.218 0.376 0.454 0.594 0.672 8.312 8.328 21.842 8.328 30.154 0 8.344-8.328 8.344-21.842 0-30.17-0.218-0.218-0.438-0.406-0.656-0.61a256.3 256.3 0 0 0 14.876-19.328c0.218 0.156 0.468 0.328 0.718 0.468 10.218 5.906 23.248 2.406 29.154-7.796 5.876-10.204 2.376-23.25-7.812-29.14-0.25-0.14-0.5-0.25-0.75-0.39a266.764 266.764 0 0 0 9.344-22.532c0.25 0.078 0.532 0.188 0.782 0.25 11.376 3.046 23.094-3.704 26.124-15.078 3.062-11.376-3.688-23.078-15.062-26.124-0.282-0.078-0.562-0.11-0.844-0.172a257.092 257.092 0 0 0 3.156-24.188c0.278 0 0.56 0.032 0.872 0.032zM512 490.672c-57 0-110.56-22.188-150.84-62.482-40.312-40.296-62.5-93.874-62.5-150.858 0-56.982 22.188-110.544 62.5-150.84C401.44 86.196 455 64.008 512 64.008c56.998 0 110.56 22.188 150.842 62.484 40.31 40.294 62.498 93.858 62.498 150.84 0 56.984-22.188 110.56-62.498 150.858-40.282 40.294-93.844 62.482-150.842 62.482z" fill="#CBD0D8" /><path d="M213.35 575.998a298.65 63.998 0 1 0 597.3 0 298.65 63.998 0 1 0-597.3 0Z" fill="#CBD0D8" /><path d="M512 682.684c-164.934 0-298.65-28.688-298.65-63.998v298.62c0 35.376 133.716 64 298.65 64 164.936 0 298.65-28.624 298.65-64v-298.62c0 35.31-133.714 63.998-298.65 63.998z" fill="#EC5564" /><path d="M584.248 896.054c-27.156 0-171.434-23.376-171.434-23.376l-72.436 22.906 24.094-74.654-24.844-95.624 73.186 50.812s126.184-23.124 171.434-23.124 97.344 46.686 97.344 71.53-70.188 71.53-97.344 71.53z" fill="#FECD57" /><path d="M618.654 810.682c0 11.75-9.532 21.312-21.312 21.312s-21.344-9.562-21.344-21.312c0-11.812 9.562-21.376 21.344-21.376s21.312 9.564 21.312 21.376z" fill="#424953" /><path d="M236.88 600.936c45.374 22.968 151.466 39.06 275.12 39.06s229.746-16.092 275.12-39.06v-24.938H236.88v24.938z" fill="#E8563F" /><path d="M512 618.686c71.716 0 140.592-5.594 193.934-15.718 25.25-4.782 45.904-10.344 61.404-16.532 11-4.376 16.812-8.062 19.782-10.438-2.968-2.344-8.782-6.062-19.782-10.438-15.5-6.186-36.154-11.748-61.404-16.53-53.342-10.124-122.216-15.704-193.934-15.704s-140.59 5.578-193.934 15.704c-25.25 4.782-45.906 10.344-61.406 16.53-11 4.376-16.812 8.094-19.782 10.438 2.968 2.376 8.782 6.062 19.782 10.438 15.5 6.188 36.156 11.75 61.406 16.532 53.344 10.124 122.216 15.718 193.934 15.718z" fill="#FB6D51" /></svg>