<?xml version="1.0" standalone="no"?><!DOCTYPE svg PUBLIC "-//W3C//DTD SVG 1.1//EN" "http://www.w3.org/Graphics/SVG/1.1/DTD/svg11.dtd"><svg class="icon" width="128px" height="128.00px" viewBox="0 0 1024 1024" version="1.1" xmlns="http://www.w3.org/2000/svg"><path d="M106.664 85.352V938.68c0 47.124 181.464 85.31 405.336 85.31 223.84 0 405.336-38.188 405.336-85.31V85.352H106.664z" fill="#E5E8EC" /><path d="M512 810.682c-223.872 0-405.336-38.216-405.336-85.342v42.656c0 47.124 181.464 85.34 405.336 85.34 223.84 0 405.336-38.216 405.336-85.34V725.34c0 47.124-181.496 85.342-405.336 85.342zM512 597.342c-223.872 0-405.336-38.216-405.336-85.326v42.672c0 47.124 181.464 85.308 405.336 85.308 223.84 0 405.336-38.186 405.336-85.308v-42.672c0 47.108-181.496 85.326-405.336 85.326zM512 384.018c-223.872 0-405.336-38.218-405.336-85.342v42.67c0 47.124 181.464 85.328 405.336 85.328 223.84 0 405.336-38.204 405.336-85.328v-42.67c0 47.124-181.496 85.342-405.336 85.342zM917.336 85.352c0 47.124-181.496 85.326-405.336 85.326-223.872 0-405.336-38.202-405.336-85.326S288.128 0.01 512 0.01c223.84 0 405.336 38.218 405.336 85.342z" fill="#CBD0D8" /><path d="M511.312 265.036c-114.404 0-208.372-13.156-276.932-27.53v652.3c68.562 14.376 162.528 27.532 276.932 27.532 114.842 0 209.09-13.25 277.712-27.718V237.334c-68.622 14.436-162.87 27.702-277.712 27.702z" fill="#FB6D51" /><path d="M552.716 463.36c-2.468 0-4.968 0.032-7.438 0.094-1.468-0.046-2.968-0.094-4.5-0.094-1.844 0-3.748-0.016-5.624-0.032 7.78-26.89 36.216-37.374 37.56-37.842l-0.124 0.046-0.032-0.016c8.406-2.876 14.438-10.812 14.438-20.172 0-11.782-9.532-21.328-21.312-21.328-2.438 0-4.75 0.422-6.906 1.156v-0.016c-2.468 0.844-58.436 20.64-67.124 77.732-74.748 0.718-159.746 16.438-159.746 163.108 0 149.874 87.78 162.652 163.34 162.652 15.532 0 30.562-0.532 44.186-0.532 1.124 0 2.25-0.062 3.344-0.094 3.282 0.124 6.594 0.218 9.938 0.218 77.656 0 140.592-38.936 140.592-162.434 0-123.54-62.934-162.446-140.592-162.446z m-166.59 234.698c-7.656-18.124-11.53-42.376-11.53-72.06 0-29.75 3.938-54.062 11.718-72.186 5.782-13.484 13.656-23.532 24.094-30.704 8.688-5.984 19.124-9.954 30.406-12.594-17.968 25.032-28.656 61.982-28.656 115.294 0 53.53 10.782 90.56 28.906 115.56-11.686-2.594-22.468-6.624-31.374-12.812-10.188-7.122-17.906-17.122-23.564-30.498z m235.998 24.938c-15.124 14.968-38.468 22.562-69.406 22.562-32.404 0-55.28-6.812-69.84-20.782-18.594-17.876-28.032-51.188-28.032-98.966 0-47.812 9.438-81.124 28.032-98.998 14.562-14 37.436-20.796 69.84-20.796 30.938 0 54.282 7.594 69.406 22.562 18.906 18.734 28.5 51.42 28.5 97.232 0 45.748-9.594 78.468-28.5 97.186z" fill="#424953" /></svg>