<?xml version="1.0" standalone="no"?><!DOCTYPE svg PUBLIC "-//W3C//DTD SVG 1.1//EN" "http://www.w3.org/Graphics/SVG/1.1/DTD/svg11.dtd"><svg class="icon" width="128px" height="128.00px" viewBox="0 0 1024 1024" version="1.1" xmlns="http://www.w3.org/2000/svg"><path d="M106.664 85.352V938.68c0 47.124 181.464 85.31 405.336 85.31 223.84 0 405.336-38.188 405.336-85.31V85.352H106.664z" fill="#E5E8EC" /><path d="M512 810.682c-223.872 0-405.336-38.216-405.336-85.342v42.656c0 47.124 181.464 85.34 405.336 85.34 223.84 0 405.336-38.216 405.336-85.34V725.34c0 47.124-181.496 85.342-405.336 85.342zM512 597.342c-223.872 0-405.336-38.216-405.336-85.326v42.672c0 47.124 181.464 85.308 405.336 85.308 223.84 0 405.336-38.186 405.336-85.308v-42.672c0 47.108-181.496 85.326-405.336 85.326zM512 384.018c-223.872 0-405.336-38.218-405.336-85.342v42.67c0 47.124 181.464 85.328 405.336 85.328 223.84 0 405.336-38.204 405.336-85.328v-42.67c0 47.124-181.496 85.342-405.336 85.342zM917.336 85.352c0 47.124-181.496 85.326-405.336 85.326-223.872 0-405.336-38.202-405.336-85.326S288.128 0.01 512 0.01c223.84 0 405.336 38.218 405.336 85.342z" fill="#CBD0D8" /><path d="M511.312 265.036c-114.404 0-208.372-13.156-276.932-27.53v652.3c68.562 14.376 162.528 27.532 276.932 27.532 114.842 0 209.09-13.25 277.712-27.718V237.334c-68.622 14.436-162.87 27.702-277.712 27.702z" fill="#F5BA45" /><path d="M675.28 598.874c50.998-75.264 85.028-164.152 41.374-207.824-15.532-15.516-35.654-22.344-58.592-22.344-52.624 0-120.032 35.968-180.528 85.218-2.312-22.406-5.438-35.842-5.438-35.842s-169.904 205.73-181.434 252.854c-5.906 24.25 6.594 47.25 27.25 74 0.032 0.032 0.062 0.094 0.094 0.124 6.968 9 14.5 16.75 21.342 23.032v0.282s0.094 0 0.25-0.032c12.188 11.156 22.032 17.53 22.032 17.53 22.062 17.656 48.812 34.344 71.062 34.344 3.156 0 6.25-0.344 9.218-1.062C489.034 807.622 726.78 598.44 726.78 598.44s-6.968-0.406-19.218-0.406c-8.44-0.004-19.376 0.182-32.282 0.84z m-195.56-82.718l40.842 40.844-54 53.966c8.72-33.906 12.282-66.434 13.158-94.81z m70.996 70.998l24.062 24.062c-20.624 4.094-42.31 9.376-64.374 16.25l40.312-40.312z m30.158-30.154l30.188-30.188 36.532 36.56c-7.656 12-16 23.938-24.782 35.532L580.874 557z m113.06-108c-0.844 16.92-7.03 38.578-17.936 62.624a310.354 310.354 0 0 1-6.406 13.39l-28.376-28.376 52.78-52.78c0.032 1.612 0 3.314-0.062 5.142z m-35.874-37.624c2.812 0 5.344 0.156 7.656 0.454l-54.656 54.654-30.656-30.67c30-15.828 57.188-24.438 77.656-24.438z m-115.28 47.156l38.094 38.108-30.156 30.172-42.654-42.672a524.78 524.78 0 0 1 34.716-25.608zM332.066 681.278c1.062-3.282 11.186-29.094 89.186-130.652 5.032-6.594 10.062-13.094 15-19.438-0.312 4.876-0.75 9.86-1.28 14.938-4.062 37.998-13.282 73.56-27.406 105.59a302.628 302.628 0 0 1-15.25 29.968c-15.156 9.812-29.842 20.75-43.812 33-12.126-16.312-17.656-27.532-16.438-33.406z m99.936 96.218c-3.218-0.438-17.688-3.562-46.5-27.188-2.25-1.876-4.468-3.718-6.592-5.562 66.904-57.406 152.872-83.376 222.214-94.968a6619.48 6619.48 0 0 1-22.312 18.532c-36.468 30.062-67.654 54.75-92.654 73.312-36 26.75-50.126 34.062-54.156 35.874z" fill="#424953" /></svg>