<?xml version="1.0" standalone="no"?><!DOCTYPE svg PUBLIC "-//W3C//DTD SVG 1.1//EN" "http://www.w3.org/Graphics/SVG/1.1/DTD/svg11.dtd"><svg class="icon" width="128px" height="128.00px" viewBox="0 0 1024 1024" version="1.1" xmlns="http://www.w3.org/2000/svg"><path d="M678.49 228.782c-208.682-10.062-49.406-142.404-49.406-142.404s-166.964-1.062-176.87 124.778c-7.156 91.186 103.656 138.966 103.656 138.966s341.77-110.778 122.62-121.34z" fill="#AAB2BC" /><path d="M1021.482 116.692c-7.376-7.344-165.184 178.026-181.028 181.026-15.844 3.032-78.998-78.998-78.998-78.998l-179.872 156.652s183.372 178.698 334.21 27.874C1027.044 292 1028.826 124.066 1021.482 116.692z" fill="#AAB2BC" /><path d="M458.588 619.07l-120.748-120.732L764.894 71.316s39.374-20.968 90.56 30.218 30.156 90.498 30.156 90.498L458.588 619.07z" fill="#CCD1D9" /><path d="M508.462 599.29c-8.312 8.312-21.812 8.312-30.156 0l-120.684-120.67c-8.312-8.312-8.312-21.842 0-30.154l105.59-105.592a21.33 21.33 0 0 1 30.186 0l120.652 120.654a21.33 21.33 0 0 1 0 30.186l-105.588 105.576z" fill="#E6E9ED" /><path d="M704.584 282.532c-8.344 8.312-21.844 8.312-30.188 0-8.312-8.344-8.312-21.844 0-30.188 8.344-8.312 21.844-8.312 30.188 0 8.312 8.344 8.312 21.844 0 30.188zM644.24 342.874c-8.344 8.312-21.844 8.312-30.156 0a21.332 21.332 0 0 1 0-30.188c8.312-8.312 21.812-8.312 30.156 0a21.332 21.332 0 0 1 0 30.188z" fill="#434A54" /><path d="M599.024 538.992l-181.028-181.026L37.506 738.442c-50 49.968-50 131.028 0 180.996 49.966 49.998 131.028 49.998 180.996 0l0.032 0.032 380.49-380.478z" fill="#965353" /><path d="M599.024 538.992l-181.028-181.026 150.84 150.84L188.346 889.282c-44.842 44.844-114.684 49.438-164.684 13.812a126.224 126.224 0 0 0 13.844 16.344c49.966 49.998 131.028 49.998 180.996 0l0.032 0.032 380.49-380.478z" fill="#FFFFFF" opacity=".2" /></svg>