<?xml version="1.0" standalone="no"?><!DOCTYPE svg PUBLIC "-//W3C//DTD SVG 1.1//EN" "http://www.w3.org/Graphics/SVG/1.1/DTD/svg11.dtd"><svg class="icon" width="128px" height="128.00px" viewBox="0 0 1024 1024" version="1.1" xmlns="http://www.w3.org/2000/svg"><path d="M350.872 2.264v0.032A21.22 21.22 0 0 0 341.34 0.014c-11.782 0-21.344 9.562-21.344 21.344 0 8.344 4.812 15.562 11.812 19.062v0.032l170.652 85.31 19.094-38.156-170.682-85.342z" fill="#CCD1D9" /><path d="M746.688 981.332c0 23.562-19.124 42.654-42.686 42.654H319.996c-23.56 0-42.654-19.092-42.654-42.654V128.012c0-23.562 19.094-42.656 42.654-42.656h384.006c23.56 0 42.686 19.094 42.686 42.656v853.32z" fill="#E6E9ED" /><path d="M554.694 106.7h106.624c11.812 0 21.374-9.562 21.374-21.344h-149.356c-0.002 11.78 9.56 21.344 21.358 21.344z" fill="#434A54" /><path d="M789.312 917.334c0 11.782-9.562 21.344-21.312 21.344H255.998c-11.782 0-21.31-9.562-21.31-21.344V192.01a21.296 21.296 0 0 1 21.31-21.312H768c11.75 0 21.312 9.532 21.312 21.312v725.324z" fill="#A0D468" /><path d="M768 170.698h-21.312V128.012c0-23.562-19.124-42.656-42.686-42.656h-42.686c23.56 0 42.686 19.094 42.686 42.656v42.686h21.31c11.812 0 21.376 9.532 21.376 21.312v725.324c0 11.782-9.562 21.344-21.376 21.344h-21.31v42.654c0 23.562-19.124 42.654-42.686 42.654h42.686c23.56 0 42.686-19.092 42.686-42.654v-42.654H768c11.75 0 21.312-9.562 21.312-21.344V192.01c0-11.782-9.562-21.312-21.312-21.312z" fill="#FFFFFF" opacity=".2" /><path d="M704.002 512c0 106.06-85.936 192.028-192.01 192.028-106.03 0-191.996-85.966-191.996-192.028 0-106.028 85.966-191.994 191.996-191.994 106.074 0 192.01 85.966 192.01 191.994z" fill="#FC6E51" /><path d="M618.692 789.338c0-11.782-9.562-21.344-21.376-21.344h-170.634c-11.782 0-21.344 9.562-21.344 21.344s9.562 21.344 21.344 21.344h170.634c11.812 0 21.376-9.562 21.376-21.344z" fill="#8CC153" /><path d="M618.692 490.69c0-11.782-9.562-21.344-21.376-21.344h-170.634c-11.812 0-21.344 9.562-21.344 21.344S414.87 512 426.682 512h170.634c11.812 0 21.376-9.53 21.376-21.31zM554.694 533.344h-85.358c-11.782 0-21.342 9.562-21.342 21.344S457.554 576 469.336 576h85.358c11.75 0 21.31-9.532 21.31-21.312s-9.56-21.344-21.31-21.344z" fill="#434A54" /></svg>