<?xml version="1.0" standalone="no"?><!DOCTYPE svg PUBLIC "-//W3C//DTD SVG 1.1//EN" "http://www.w3.org/Graphics/SVG/1.1/DTD/svg11.dtd"><svg class="icon" width="128px" height="128.00px" viewBox="0 0 1024 1024" version="1.1" xmlns="http://www.w3.org/2000/svg"><path d="M512.008 42.67L127.988 1023.986h768.054z" fill="#5D9CEC" /><path d="M512.008 405.332c35.296 0 63.98-28.718 63.98-63.998 0-35.296-28.684-63.998-63.98-63.998-35.28 0-63.998 28.702-63.998 63.998 0 35.28 28.718 63.998 63.998 63.998z m0-85.342c11.782 0 21.344 9.562 21.344 21.344s-9.562 21.328-21.344 21.328-21.312-9.546-21.312-21.328 9.53-21.344 21.312-21.344zM426.698 576c35.28 0 64-28.718 64-64.014 0-35.282-28.718-64-64-64-35.312 0-63.998 28.718-63.998 64 0 35.296 28.686 64.014 63.998 64.014z m0-85.342c11.782 0 21.312 9.546 21.312 21.328 0 11.796-9.532 21.342-21.312 21.342-11.78 0-21.342-9.544-21.342-21.342-0.002-11.78 9.56-21.328 21.342-21.328zM533.352 511.986c0 35.294 28.704 64.014 64.012 64.014 35.25 0 64-28.718 64-64.014 0-35.282-28.75-64-64-64-35.31 0-64.012 28.72-64.012 64z m64.012-21.328c11.75 0 21.312 9.546 21.312 21.328 0 11.796-9.562 21.342-21.312 21.342-11.812 0-21.376-9.544-21.376-21.342 0-11.78 9.562-21.328 21.376-21.328zM405.354 682.652c0-35.28-28.718-63.998-63.998-63.998s-64 28.718-64 63.998c0 35.282 28.718 63.998 64 63.998s63.998-28.716 63.998-63.998z m-63.998 21.344c-11.782 0-21.344-9.562-21.344-21.344 0-11.78 9.562-21.342 21.344-21.342 11.78 0 21.342 9.562 21.342 21.342 0.002 11.782-9.562 21.344-21.342 21.344zM575.988 682.652c0-35.28-28.684-63.998-63.98-63.998-35.28 0-63.998 28.718-63.998 63.998 0 35.282 28.718 63.998 63.998 63.998 35.296 0 63.98-28.716 63.98-63.998z m-63.98 21.344c-11.782 0-21.312-9.562-21.312-21.344 0-11.78 9.53-21.342 21.312-21.342s21.344 9.562 21.344 21.342c0 11.782-9.562 21.344-21.344 21.344zM746.672 682.652c0-35.28-28.688-63.998-63.996-63.998-35.312 0-64 28.718-64 63.998 0 35.282 28.688 63.998 64 63.998 35.308 0 63.996-28.716 63.996-63.998z m-63.996 21.344c-11.75 0-21.312-9.562-21.312-21.344 0-11.78 9.562-21.342 21.312-21.342 11.812 0 21.312 9.562 21.312 21.342 0 11.782-9.5 21.344-21.312 21.344zM426.698 789.306c-35.312 0-63.998 28.718-63.998 63.998 0 35.31 28.686 63.998 63.998 63.998 35.28 0 64-28.688 64-63.998-0.002-35.278-28.72-63.998-64-63.998z m0 85.34c-11.78 0-21.342-9.53-21.342-21.342 0-11.75 9.562-21.312 21.342-21.312 11.782 0 21.312 9.562 21.312 21.312 0 11.814-9.532 21.342-21.312 21.342zM597.364 789.306c-35.308 0-64.012 28.718-64.012 63.998 0 35.31 28.704 63.998 64.012 63.998 35.25 0 64-28.688 64-63.998 0-35.278-28.75-63.998-64-63.998z m0 85.34c-11.812 0-21.376-9.53-21.376-21.342 0-11.75 9.562-21.312 21.376-21.312 11.75 0 21.312 9.562 21.312 21.312 0 11.814-9.562 21.342-21.312 21.342zM810.61 805.588c-11.376-10.094-26.25-16.282-42.624-16.282-35.25 0-63.996 28.718-63.996 63.998 0 35.31 28.746 63.998 63.996 63.998 33.188 0 60.562-25.376 63.688-57.748l-21.064-53.966z m-42.626 69.058c-11.75 0-21.312-9.53-21.312-21.342 0-11.75 9.562-21.312 21.312-21.312 11.812 0 21.376 9.562 21.376 21.312 0 11.814-9.564 21.342-21.376 21.342zM256.014 789.306c-16.344 0-31.25 6.188-42.562 16.282l-21.124 53.966c3.156 32.374 30.5 57.748 63.686 57.748 35.312 0 63.998-28.688 63.998-63.998 0-35.278-28.686-63.998-63.998-63.998z m0 85.34c-11.782 0-21.312-9.53-21.312-21.342 0-11.75 9.53-21.312 21.312-21.312s21.342 9.562 21.342 21.312c0.002 11.814-9.56 21.342-21.342 21.342z" fill="#4FC2E9" /><path d="M533.352 21.342c0 11.782-9.562 21.328-21.344 21.328s-21.312-9.546-21.312-21.328S500.226 0.014 512.008 0.014s21.344 9.546 21.344 21.328zM533.352 234.664c0 11.782-9.562 21.328-21.344 21.328s-21.312-9.546-21.312-21.328 9.53-21.326 21.312-21.326 21.344 9.544 21.344 21.326z"  /><path d="M477.166 24.966c5.876 10.204 2.376 23.25-7.812 29.14-10.218 5.89-23.25 2.39-29.156-7.812-5.876-10.204-2.376-23.25 7.812-29.14 10.218-5.89 23.248-2.39 29.156 7.812zM583.8 209.712c5.938 10.202 2.438 23.248-7.812 29.138-10.184 5.89-23.246 2.39-29.122-7.812-5.89-10.204-2.376-23.248 7.812-29.138s23.248-2.39 29.122 7.812zM430.292 56.202c10.218 5.89 13.718 18.936 7.812 29.138-5.876 10.204-18.936 13.704-29.124 7.812-10.218-5.89-13.718-18.938-7.812-29.138 5.874-10.22 18.936-13.704 29.124-7.812zM615.05 162.854c10.188 5.906 13.688 18.954 7.812 29.14-5.876 10.218-18.938 13.704-29.124 7.812-10.25-5.89-13.688-18.938-7.812-29.14s18.938-13.704 29.124-7.812zM405.354 106.668c11.782 0 21.312 9.562 21.312 21.344s-9.53 21.326-21.312 21.326-21.344-9.544-21.344-21.326 9.564-21.344 21.344-21.344zM618.676 106.668c11.812 0 21.312 9.562 21.312 21.344s-9.5 21.326-21.312 21.326c-11.75 0-21.312-9.544-21.312-21.326s9.562-21.344 21.312-21.344zM408.98 162.854c10.188-5.876 23.25-2.39 29.124 7.812 5.906 10.204 2.406 23.25-7.812 29.14-10.186 5.89-23.25 2.406-29.124-7.812-5.908-10.188-2.408-23.234 7.812-29.14zM593.738 56.202c10.188-5.89 23.25-2.39 29.124 7.812 5.876 10.202 2.376 23.248-7.812 29.138s-23.25 2.39-29.124-7.812-2.438-23.248 7.812-29.138zM440.198 209.712c5.906-10.204 18.936-13.704 29.156-7.812 10.188 5.89 13.688 18.936 7.812 29.138-5.906 10.204-18.938 13.704-29.156 7.812-10.188-5.89-13.688-18.936-7.812-29.138zM546.868 24.966c5.876-10.204 18.938-13.704 29.122-7.812 10.25 5.89 13.75 18.938 7.812 29.14-5.876 10.204-18.934 13.704-29.122 7.812s-13.704-18.936-7.812-29.14zM490.666 234.664c0-11.782 9.562-21.326 21.342-21.326s21.344 9.544 21.344 21.326-9.562 21.344-21.344 21.344-21.312-9.562-21.342-21.344zM490.666 21.342C490.698 9.56 500.228 0.014 512.008 0.014s21.344 9.546 21.344 21.328-9.562 21.328-21.344 21.328-21.342-9.546-21.342-21.328z" fill="#8CC153" /><path d="M895.98 981.3h-106.62c0-11.748-9.562-21.31-21.376-21.31-11.75 0-21.312 9.562-21.312 21.31h-42.684c0-11.748-9.5-21.31-21.312-21.31-11.75 0-21.312 9.562-21.312 21.31h-42.688c0-11.748-9.562-21.31-21.312-21.31-11.812 0-21.376 9.562-21.376 21.31h-42.636c0-11.748-9.562-21.31-21.344-21.31s-21.312 9.562-21.312 21.31h-42.686c0-11.748-9.532-21.31-21.312-21.31-11.78 0-21.342 9.562-21.342 21.31H362.7c0-11.748-9.562-21.31-21.342-21.31-11.782 0-21.344 9.562-21.344 21.31h-42.656c0-11.748-9.562-21.31-21.342-21.31s-21.312 9.562-21.312 21.31H127.988c-11.782 0-21.344 9.562-21.344 21.344s9.562 21.342 21.344 21.342H895.98c11.812 0 21.376-9.56 21.376-21.342s-9.564-21.344-21.376-21.344z" fill="#4A89DC" /><path d="M512.008 21.342c-58.904 0-106.654 47.75-106.654 106.67 0 58.904 47.75 106.652 106.654 106.652 58.918 0 106.668-47.748 106.668-106.652 0-58.92-47.75-106.67-106.668-106.67z" fill="#A0D468" /><path d="M533.352 128.012c0 11.782-9.562 21.326-21.344 21.326s-21.312-9.544-21.312-21.326 9.53-21.344 21.312-21.344 21.344 9.562 21.344 21.344z" fill="#8CC153" /></svg>