<?xml version="1.0" standalone="no"?><!DOCTYPE svg PUBLIC "-//W3C//DTD SVG 1.1//EN" "http://www.w3.org/Graphics/SVG/1.1/DTD/svg11.dtd"><svg class="icon" width="128px" height="128.00px" viewBox="0 0 1024 1024" version="1.1" xmlns="http://www.w3.org/2000/svg"><path d="M575.984 180.67c0 35.352-28.648 63.984-63.984 63.984s-63.986-28.632-63.986-63.984c0-35.336 28.65-63.986 63.986-63.986s63.984 28.65 63.984 63.986z" fill="#434A54" /><path d="M512.016 180.67c-259.128 0-469.19 210.06-469.19 469.206l-0.032 255.942h938.376l0.032-255.942c0.002-259.146-210.076-469.206-469.186-469.206z" fill="#FFCE54" /><path d="M512 733.73c409.406 0 508.946 155.34 508.946 155.34 6.436 10.06 1.938 18.246-9.998 18.246H13.052c-11.936 0-16.434-8.186-9.998-18.246 0 0 99.556-155.34 508.946-155.34z" fill="#F5F7FA" /><path d="M298.72 628.566l121.88-203.124 121.86 203.124z" fill="#DA4453" /><path d="M400.276 628.566L562.8 344.196l162.462 284.37z" fill="#ED5564" /><path d="M512 830.522c-303.46 0-477.454 74.608-477.454 74.608l954.906 2.188c0.002-0.002-173.992-76.796-477.452-76.796z" fill="#E6E9ED" /></svg>