<?xml version="1.0" standalone="no"?><!DOCTYPE svg PUBLIC "-//W3C//DTD SVG 1.1//EN" "http://www.w3.org/Graphics/SVG/1.1/DTD/svg11.dtd"><svg class="icon" width="128px" height="128.00px" viewBox="0 0 1024 1024" version="1.1" xmlns="http://www.w3.org/2000/svg"><path d="M575.998 180.608c0 35.374-28.654 63.996-63.998 63.996-35.342 0-63.998-28.624-63.998-63.996 0-35.312 28.656-63.998 63.998-63.998 35.344 0 63.998 28.684 63.998 63.998z" fill="#434A54" /><path d="M512.032 180.608c-259.178 0-469.264 210.118-469.264 469.292l-0.062 255.99h938.558l0.032-255.99c-0.002-259.176-210.088-469.292-469.264-469.292z" fill="#FFCE54" /><path d="M512 733.774c409.484 0 509.042 155.37 509.042 155.37 6.438 10.06 1.938 18.248-9.998 18.248H12.956c-11.938 0-16.436-8.188-10-18.248 0-0.002 99.59-155.37 509.044-155.37z" fill="#EC5564" /><path d="M512 830.584c-303.49 0-477.544 74.62-477.544 74.62l955.09 2.188c-0.002-0.002-174.024-76.808-477.546-76.808z" fill="#D94452" /><path d="M685.838 450.72l-120.088-17.434L512 324.414l-53.716 108.872-120.122 17.434 86.936 84.748-20.532 119.62L512 598.592l107.464 56.496-20.528-119.62z" fill="#EC5564" /></svg>