<?xml version="1.0" standalone="no"?><!DOCTYPE svg PUBLIC "-//W3C//DTD SVG 1.1//EN" "http://www.w3.org/Graphics/SVG/1.1/DTD/svg11.dtd"><svg class="icon" width="128px" height="128.00px" viewBox="0 0 1024 1024" version="1.1" xmlns="http://www.w3.org/2000/svg"><path d="M961.266 660.078c-12.188-59.528-29.312-114.46-50.906-163.336-27.248-61.748-61.746-113.98-102.556-155.246C730.712 263.532 631.154 224 511.938 224c-119.214 0-218.742 39.53-295.864 117.496-40.78 41.264-75.31 93.498-102.558 155.246-21.592 48.876-38.718 103.808-50.904 163.336-20.718 101.028-20.092 179.528-20.03 182.808l0.218 21.094h938.278l0.25-21.094c0.03-3.28 0.654-81.78-20.062-182.808z" fill="#4FC0E8" /><path d="M961.266 660.078c-12.188-59.528-29.312-114.46-50.906-163.336-27.248-61.748-61.746-113.98-102.556-155.246C730.712 263.532 631.154 224 511.938 224c-7.186 0-14.28 0.156-21.342 0.438 109.81 4.468 202.086 43.796 274.552 117.058 40.782 41.264 75.312 93.498 102.56 155.246 21.592 48.876 38.714 103.808 50.902 163.336 20.718 101.028 20.062 179.528 20.032 182.808l-0.218 21.094h42.654l0.25-21.094c0.03-3.28 0.654-81.78-20.062-182.808z" fill="#FFFFFF" opacity=".2" /><path d="M1023.98 778.668c0-11.812-9.562-21.376-21.342-21.376H21.362C9.58 757.292 0.02 766.854 0.02 778.668v170.622c0 11.812 9.562 21.376 21.342 21.376h981.276c11.78 0 21.342-9.562 21.342-21.376v-170.622zM618.59 160.004c0 58.904-47.746 106.668-106.652 106.668-58.904 0-106.652-47.764-106.652-106.668s47.748-106.668 106.652-106.668c58.906 0 106.652 47.764 106.652 106.668z" fill="#E5E8EC" /><path d="M170.668 863.98c-11.78 0-21.312 9.562-21.312 21.308v84h42.654v-84c0.002-11.746-9.56-21.308-21.342-21.308zM341.35 863.98c-11.78 0-21.342 9.562-21.342 21.308v84h42.656v-84c-0.002-11.746-9.534-21.308-21.314-21.308zM512 863.98c-11.78 0-21.342 9.562-21.342 21.308v84h42.686v-84c0-11.746-9.562-21.308-21.344-21.308zM682.65 863.98c-11.782 0-21.312 9.562-21.312 21.308v84h42.656v-84c0-11.746-9.562-21.308-21.344-21.308zM853.332 863.98c-11.78 0-21.342 9.562-21.342 21.308v84h42.654v-84c0-11.746-9.53-21.308-21.312-21.308z" fill="#CBD0D8" /></svg>