<?xml version="1.0" standalone="no"?><!DOCTYPE svg PUBLIC "-//W3C//DTD SVG 1.1//EN" "http://www.w3.org/Graphics/SVG/1.1/DTD/svg11.dtd"><svg class="icon" width="128px" height="128.00px" viewBox="0 0 1024 1024" version="1.1" xmlns="http://www.w3.org/2000/svg"><path d="M842.624 504.898c-69.562 0-115.374 36.782-143.5 72.766L674.876 213.04c0-0.734-0.25-4.53-0.25-4.53-4.876-53.642-49.938-95.688-104.812-95.688-4.25 0-8.438 0.25-12.56 0.734-16.064 1.562-31.562 5.046-46.188 10.312-28 10.048-52.936 26.408-73.188 47.36 0 0-95.562 92.094-139.25 310.468C254.938 263.32 159.438 171.226 159.438 171.226h-0.062C124.5 135.102 75.5 112.618 21.312 112.618 9.564 112.618 0 122.166 0 133.946s9.564 21.344 21.312 21.344c40.876 0 79 16.186 107.376 45.592l3.562 3.656c8.562 9.376 38.376 44.468 68.75 109.97 22 47.53 39.564 100.828 52.188 158.42 13.312 60.39 21.124 125.594 23.438 194.346l0.624 42.204c0 11.782 9.562 21.328 21.314 21.328 11.624 0 21.062-9.298 21.312-20.862l0.814-42.67c2.25-68.752 10.124-133.956 23.376-194.346 12.686-57.594 30.25-110.89 52.25-158.42 30.314-65.5 60.124-100.594 68.688-109.97l3.564-3.656C493.562 175.04 526 159.4 561.252 155.992c2.81-0.374 5.624-0.516 8.56-0.516 32.25 0 58.812 24.5 62.188 55.876l0.438 6.158 28.25 425.314c-54.624 101.358-131.938 181.216-221.376 227.858a21.366 21.366 0 0 0-12.376 17.766c-0.874 11.75 7.938 21.984 19.69 22.876a21.06 21.06 0 0 0 11.438-2.376c86.686-45 162.75-118.188 219.936-210.782 20.5 40.14 65.75 88.75 164.624 88.75 100.19 0 181.376-63.124 181.376-140.998 0-77.878-81.186-141.02-181.376-141.02z m102.064 207.048c-26.812 20.844-63.062 32.312-102.062 32.312-53.562 0-92.876-16.656-116.876-49.532-12.312-16.922-17.938-34.468-20.312-44.562a143.27 143.27 0 0 1 3.876-8.516c0.25-0.484 0.438-0.968 0.688-1.454 5.5-11.078 13.94-25.688 25.69-40 28.81-34.92 64.81-52.624 106.936-52.624 39 0 75.25 11.47 102.062 32.312 23.624 18.376 36.624 41.83 36.624 66.034-0.002 24.202-13.002 47.654-36.626 66.03z" fill="#FC6E51" /></svg>