<?xml version="1.0" standalone="no"?><!DOCTYPE svg PUBLIC "-//W3C//DTD SVG 1.1//EN" "http://www.w3.org/Graphics/SVG/1.1/DTD/svg11.dtd"><svg class="icon" width="128px" height="128.00px" viewBox="0 0 1024 1024" version="1.1" xmlns="http://www.w3.org/2000/svg"><path d="M767.982 255.52c-11.812 0-21.312 9.562-21.312 21.31v58.278h42.622v-58.278c0-11.748-9.564-21.31-21.31-21.31z" fill="#ED5564" /><path d="M620.866 724.794l38.686-383.78 183.422-0.188 159.614 199.422-0.376 184.546z" fill="#CCD1D9" /><path d="M968.342 490.126H640.24v-156.862l200.11 4.438z" fill="#5D9CEC" /><path d="M853.224 319.516l-212.984 0.188-42.934 426.404h426.218l0.438-213.296-170.738-213.296z m127.738 383.94H644.428L678.8 362.326l153.988-0.124 148.488 185.548-0.314 155.706z" fill="#CCD1D9" /><path d="M682.612 703.456c0 23.558-19.122 42.652-42.684 42.652H42.694c-23.562 0-42.656-19.094-42.656-42.652V234.178c0-23.56 19.094-42.652 42.656-42.652h597.234c23.562 0 42.684 19.092 42.684 42.652v469.278z" fill="#E6E9ED" /><path d="M725.232 725.826c0 58.902 47.808 106.648 106.68 106.648 58.934 0 106.68-47.746 106.68-106.648 0-58.9-47.746-106.646-106.68-106.646-58.87 0-106.68 47.746-106.68 106.646z" fill="#434A54" /><path d="M810.604 725.826c0 11.782 9.562 21.344 21.308 21.344 11.812 0 21.312-9.562 21.312-21.344 0-11.78-9.5-21.34-21.312-21.34-11.746 0-21.308 9.56-21.308 21.34z" fill="#F5F7FA" /><path d="M108.654 725.826c0 57.778 46.872 104.648 104.68 104.648s104.648-46.872 104.648-104.648c0-57.776-46.84-104.646-104.648-104.646s-104.68 46.87-104.68 104.646z" fill="#434A54" /><path d="M191.994 725.826c0 11.782 9.562 21.344 21.34 21.344 11.75 0 21.312-9.562 21.312-21.344 0-11.78-9.562-21.34-21.312-21.34-11.778 0-21.34 9.56-21.34 21.34z" fill="#F5F7FA" /><path d="M277.33 511.468c-23.496 0-42.684-19.186-42.684-42.654v-42.684c0-23.436 19.188-42.622 42.684-42.622h170.614c23.496 0 42.684 19.186 42.684 42.622v42.684c0 23.468-19.188 42.654-42.684 42.654h-170.614z" fill="#DA4453" /><path d="M426.63 532.81c0 23.438-19.184 42.652-42.652 42.652h-42.652c-23.5 0-42.684-19.214-42.684-42.652v-170.642c0-23.466 19.184-42.652 42.684-42.652h42.652c23.468 0 42.652 19.186 42.652 42.652v170.642z" fill="#ED5564" /></svg>