<?xml version="1.0" standalone="no"?><!DOCTYPE svg PUBLIC "-//W3C//DTD SVG 1.1//EN" "http://www.w3.org/Graphics/SVG/1.1/DTD/svg11.dtd"><svg class="icon" width="128px" height="128.00px" viewBox="0 0 1024 1024" version="1.1" xmlns="http://www.w3.org/2000/svg"><path d="M789.254 35.102c0-23.436-18.876-38.874-41.876-34.28L191.312 120.038C168.312 124.632 149.5 147.6 149.5 171.068v810.764c0 23.436 18.562 37.686 41.186 31.624l557.316-148.934c22.688-6.062 41.25-30.218 41.25-53.654V35.102z" fill="#4A89DC" /><path d="M874.5 981.364c0 23.436-19.188 42.624-42.624 42.624H192.156c-23.468 0-42.656-19.188-42.656-42.624V171.068c0-23.468 19.186-42.656 42.656-42.656h639.718c23.438 0 42.624 19.186 42.624 42.656v810.296z" fill="#5D9CEC" /><path d="M256.186 256.348c-11.782 0-21.342 9.562-21.342 21.312 0 11.78 9.562 21.342 21.342 21.342 11.75 0 21.312-9.562 21.312-21.342 0-11.75-9.562-21.312-21.312-21.312zM512.054 256.348c-11.782 0-21.31 9.562-21.31 21.312 0 11.78 9.53 21.342 21.31 21.342 11.782 0 21.314-9.562 21.314-21.342 0-11.75-9.532-21.312-21.314-21.312zM767.942 256.348c-11.75 0-21.312 9.562-21.312 21.312 0 11.78 9.562 21.342 21.312 21.342 11.812 0 21.312-9.562 21.312-21.342 0-11.75-9.5-21.312-21.312-21.312z" fill="#E6E9ED" /><path d="M384.12 384.282c-11.782 0-21.312 9.562-21.312 21.342s9.53 21.312 21.312 21.312c11.75 0 21.312-9.532 21.312-21.312s-9.562-21.342-21.312-21.342zM640.004 384.282c-11.75 0-21.308 9.562-21.308 21.342s9.558 21.312 21.308 21.312 21.312-9.532 21.312-21.312-9.562-21.342-21.312-21.342z" fill="#E6E9ED" /><path d="M256.186 512.248c-11.782 0-21.342 9.532-21.342 21.312s9.562 21.312 21.342 21.312c11.75 0 21.312-9.532 21.312-21.312s-9.562-21.312-21.312-21.312zM512.054 512.248c-11.782 0-21.31 9.532-21.31 21.312s9.53 21.312 21.31 21.312c11.782 0 21.314-9.532 21.314-21.312s-9.532-21.312-21.314-21.312zM767.942 512.248c-11.75 0-21.312 9.532-21.312 21.312s9.562 21.312 21.312 21.312c11.812 0 21.312-9.532 21.312-21.312s-9.5-21.312-21.312-21.312z" fill="#E6E9ED" /><path d="M384.12 640.182c-11.782 0-21.312 9.532-21.312 21.312s9.53 21.344 21.312 21.344c11.75 0 21.312-9.562 21.312-21.344s-9.562-21.312-21.312-21.312zM640.004 640.182c-11.75 0-21.308 9.532-21.308 21.312s9.558 21.344 21.308 21.344 21.312-9.562 21.312-21.344-9.562-21.312-21.312-21.312z" fill="#E6E9ED" /><path d="M256.186 768.118c-11.782 0-21.342 9.562-21.342 21.312 0 11.782 9.562 21.344 21.342 21.344 11.75 0 21.312-9.562 21.312-21.344 0-11.75-9.562-21.312-21.312-21.312zM512.054 768.118c-11.782 0-21.31 9.562-21.31 21.312 0 11.782 9.53 21.344 21.31 21.344 11.782 0 21.314-9.562 21.314-21.344 0-11.75-9.532-21.312-21.314-21.312zM767.942 768.118c-11.75 0-21.312 9.562-21.312 21.312 0 11.782 9.562 21.344 21.312 21.344 11.812 0 21.312-9.562 21.312-21.344 0-11.75-9.5-21.312-21.312-21.312z" fill="#E6E9ED" /><path d="M384.12 896.052c-11.782 0-21.312 9.56-21.312 21.342 0 11.75 9.53 21.312 21.312 21.312 11.75 0 21.312-9.562 21.312-21.312 0-11.78-9.562-21.342-21.312-21.342zM640.004 896.052c-11.75 0-21.308 9.56-21.308 21.342 0 11.75 9.558 21.312 21.308 21.312s21.312-9.562 21.312-21.312c0-11.78-9.562-21.342-21.312-21.342z" fill="#E6E9ED" /><path d="M448.088 725.462h127.92v127.934h-127.92z" fill="#7F4545" /><path d="M320.09 768.118l191.902-341.18 191.95 341.18z" fill="#8CC153" /><path d="M362.808 597.528l149.246-298.526 149.262 298.526z" fill="#A0D468" /></svg>