<?xml version="1.0" standalone="no"?><!DOCTYPE svg PUBLIC "-//W3C//DTD SVG 1.1//EN" "http://www.w3.org/Graphics/SVG/1.1/DTD/svg11.dtd"><svg class="icon" width="128px" height="128.00px" viewBox="0 0 1024 1024" version="1.1" xmlns="http://www.w3.org/2000/svg"><path d="M874.574 895.912S851.984 1023.882 512 1023.882c-339.986 0-362.574-127.97-362.574-127.97V21.456c0-11.78 9.53-21.338 21.308-21.338h682.532c11.778 0 21.308 9.558 21.308 21.338v874.456z" fill="#656D78" /><path d="M234.72 85.442h554.562v213.28H234.72z" fill="#A0D468" /><path d="M410.304 194.932l-4.936-2.86 4.936-2.86c10.216-5.888 13.714-18.932 7.81-29.132-5.874-10.202-18.934-13.686-29.118-7.794h-0.032l-4.936 2.858v-5.716c0-11.78-9.53-21.338-21.308-21.338s-21.338 9.558-21.338 21.338v5.716l-4.936-2.858h-0.032c-10.186-5.906-23.246-2.406-29.118 7.794-5.906 10.202-2.406 23.244 7.81 29.132l4.936 2.86-4.936 2.86c-10.216 5.888-13.716 18.934-7.81 29.132 5.874 10.202 18.932 13.702 29.118 7.81l4.968-2.858v5.716c0 11.78 9.56 21.324 21.338 21.324s21.308-9.544 21.308-21.324v-5.716l4.968 2.858c10.184 5.89 23.244 2.39 29.118-7.81 5.906-10.198 2.406-23.244-7.81-29.132zM567.426 160.096c-5.906-10.202-18.934-13.702-29.148-7.81l-4.938 2.858v-5.716c0-11.78-9.562-21.322-21.34-21.322s-21.338 9.542-21.338 21.322v5.716l-4.936-2.858c-10.216-5.89-23.246-2.39-29.15 7.81-5.874 10.202-2.376 23.244 7.81 29.132l4.968 2.86-4.936 2.844-0.032 0.016c-10.186 5.888-13.684 18.934-7.81 29.132 5.904 10.202 18.932 13.702 29.15 7.81l4.936-2.858v5.716c0 11.78 9.56 21.324 21.338 21.324s21.34-9.544 21.34-21.324v-5.716l4.938 2.858c10.214 5.89 23.242 2.39 29.148-7.81 5.872-10.2 2.376-23.244-7.812-29.132l-0.032-0.016-4.934-2.844 4.964-2.86c10.188-5.888 13.684-18.932 7.814-29.132zM708.894 194.948v-0.016l-4.938-2.844 4.938-2.86c10.214-5.888 13.714-18.932 7.808-29.132-5.876-10.202-18.934-13.702-29.118-7.81l-4.968 2.858v-5.716c0-11.78-9.528-21.322-21.308-21.322-11.778 0-21.336 9.542-21.336 21.322v5.716l-4.938-2.858c-10.218-5.89-23.246-2.39-29.148 7.81-5.906 10.202-2.406 23.244 7.808 29.132l4.938 2.86-4.938 2.844v0.016c-10.214 5.888-13.714 18.934-7.808 29.132 5.902 10.202 18.93 13.702 29.148 7.81l4.938-2.858v5.716c0 11.78 9.558 21.324 21.336 21.324 11.782 0 21.308-9.544 21.308-21.324v-5.716l4.968 2.858c10.184 5.89 23.242 2.39 29.118-7.81 5.908-10.2 2.408-23.244-7.808-29.132z" fill="#434A54" /><path d="M384.03 469.354c0 11.778-9.56 21.322-21.338 21.322H277.4c-11.778 0-21.338-9.544-21.338-21.322v-85.308c0-11.794 9.56-21.34 21.338-21.34h85.292c11.778 0 21.338 9.544 21.338 21.34v85.308zM575.984 469.354c0 11.778-9.558 21.322-21.336 21.322h-85.294c-11.778 0-21.338-9.544-21.338-21.322v-85.308c0-11.794 9.56-21.34 21.338-21.34h85.294c11.778 0 21.336 9.544 21.336 21.34v85.308zM767.942 469.354c0 11.778-9.558 21.322-21.34 21.322h-85.292c-11.778 0-21.336-9.544-21.336-21.322v-85.308c0-11.794 9.558-21.34 21.336-21.34h85.292c11.782 0 21.34 9.544 21.34 21.34v85.308zM384.03 661.308c0 11.78-9.56 21.338-21.338 21.338H277.4c-11.778 0-21.338-9.558-21.338-21.338v-85.324c0-11.78 9.56-21.306 21.338-21.306h85.292c11.778 0 21.338 9.528 21.338 21.306v85.324zM575.984 661.308c0 11.78-9.558 21.338-21.336 21.338h-85.294c-11.778 0-21.338-9.558-21.338-21.338v-85.324c0-11.78 9.56-21.306 21.338-21.306h85.294c11.778 0 21.336 9.528 21.336 21.306v85.324zM767.942 661.308c0 11.78-9.558 21.338-21.34 21.338h-85.292c-11.778 0-21.336-9.558-21.336-21.338v-85.324c0-11.78 9.558-21.306 21.336-21.306h85.292c11.782 0 21.34 9.528 21.34 21.306v85.324z" fill="#F5F7FA" /><path d="M384.03 853.266c0 11.778-9.56 21.338-21.338 21.338H277.4c-11.778 0-21.338-9.56-21.338-21.338v-85.324c0-11.78 9.56-21.308 21.338-21.308h85.292c11.778 0 21.338 9.53 21.338 21.308v85.324z" fill="#ED5564" /><path d="M575.984 853.266c0 11.778-9.558 21.338-21.336 21.338h-85.294c-11.778 0-21.338-9.56-21.338-21.338v-85.324c0-11.78 9.56-21.308 21.338-21.308h85.294c11.778 0 21.336 9.53 21.336 21.308v85.324z" fill="#FFCE54" /><path d="M767.942 853.266c0 11.778-9.558 21.338-21.34 21.338h-85.292c-11.778 0-21.336-9.56-21.336-21.338v-85.324c0-11.78 9.558-21.308 21.336-21.308h85.292c11.782 0 21.34 9.53 21.34 21.308v85.324z" fill="#A0D468" /></svg>