<?xml version="1.0" standalone="no"?><!DOCTYPE svg PUBLIC "-//W3C//DTD SVG 1.1//EN" "http://www.w3.org/Graphics/SVG/1.1/DTD/svg11.dtd"><svg class="icon" width="128px" height="128.00px" viewBox="0 0 1024 1024" version="1.1" xmlns="http://www.w3.org/2000/svg"><path d="M277.334 362.652a21.3 21.3 0 0 1-21.312-21.312v-42.686c0-11.782 9.532-21.328 21.312-21.328 11.78 0 21.342 9.546 21.342 21.328v42.686c0 11.78-9.562 21.312-21.342 21.312zM149.334 362.652a21.3 21.3 0 0 1-21.312-21.312v-42.686c0-11.782 9.532-21.328 21.312-21.328s21.344 9.546 21.344 21.328v42.686c0 11.78-9.562 21.312-21.344 21.312z" fill="#434A54" /><path d="M277.334 618.676h-128c-11.782 0-21.312-9.558-21.312-21.308V341.338c0-11.78 9.532-21.342 21.312-21.342h127.998c11.78 0 21.342 9.562 21.342 21.342v256.028c0.002 11.752-9.56 21.31-21.34 21.31z" fill="#E6E9ED" /><path d="M128.022 362.652h170.654v64H128.022z" fill="#5D9CEC" /><path d="M192.022 426.65h42.656v170.716H192.022z" fill="#CCD1D9" /><path d="M277.334 511.978h127.998v85.39h-127.998z" fill="#48CFAD" /><path d="M341.332 426.65h127.998v85.328h-127.998z" fill="#FFCE54" /><path d="M405.33 341.338h127.998v85.312h-127.998z" fill="#A0D468" /><path d="M533.328 341.338h127.98v85.312h-127.98z" fill="#FC6E51" /><path d="M469.33 426.65h127.982v85.328h-127.982z" fill="#ED5564" /><path d="M597.31 426.65h127.998v85.328h-127.998z" fill="#A0D468" /><path d="M405.33 511.978h127.998v85.39h-127.998z" fill="#FC6E51" /><path d="M533.328 511.978h127.98v85.39h-127.98z" fill="#FFCE54" /><path d="M661.308 511.978h127.998v85.39h-127.998z" fill="#FC6E51" /><path d="M1022.302 546.368c-3.312-7.89-11.062-13.016-19.656-13.016h-213.34c-3.312 0-6.56 0.75-9.53 2.25l-80.812 40.39H21.338c-7.844 0-15.094 4.376-18.812 11.312-3.688 6.876-3.282 15.312 1.062 21.876l85.342 127.996a21.35 21.35 0 0 0 17.75 9.5h729.124a21.22 21.22 0 0 0 15.25-6.438l166.842-170.684c6-6.124 7.75-15.25 4.406-23.186z" fill="#656D78" /><path d="M207.084 646.238c8.344 8.312 8.344 21.876 0 30.188-8.312 8.312-21.812 8.312-30.156 0-8.344-8.312-8.344-21.876 0-30.188 8.344-8.312 21.844-8.312 30.156 0zM335.082 646.238c8.344 8.312 8.344 21.876 0 30.188-8.312 8.312-21.812 8.312-30.156 0s-8.344-21.876 0-30.188 21.844-8.312 30.156 0zM463.08 646.238c8.344 8.312 8.344 21.876 0 30.188-8.312 8.312-21.812 8.312-30.156 0-8.342-8.312-8.342-21.876 0-30.188 8.342-8.312 21.842-8.312 30.156 0zM591.06 646.238c8.344 8.312 8.344 21.876 0 30.188-8.312 8.312-21.81 8.312-30.154 0s-8.344-21.876 0-30.188 21.842-8.312 30.154 0zM719.058 646.238c8.344 8.312 8.344 21.876 0 30.188-8.312 8.312-21.812 8.312-30.156 0s-8.344-21.876 0-30.188 21.844-8.312 30.156 0z" fill="#434A54" /></svg>