<?xml version="1.0" standalone="no"?><!DOCTYPE svg PUBLIC "-//W3C//DTD SVG 1.1//EN" "http://www.w3.org/Graphics/SVG/1.1/DTD/svg11.dtd"><svg class="icon" width="128px" height="128.00px" viewBox="0 0 1024 1024" version="1.1" xmlns="http://www.w3.org/2000/svg"><path d="M469.33 520.492c-11.782 0-21.328-9.532-21.328-21.312V72.506c0-11.78 9.546-21.31 21.328-21.31 11.78 0 21.326 9.53 21.326 21.31V499.18c0 11.78-9.546 21.312-21.326 21.312z" fill="#434A54" /><path d="M148.872 652.314s79.014-149.292 299.13-149.292c220.12 0 298.708 149.354 298.708 149.354 255.96 0 255.96 0 255.96 234.62H106.686c-39.406 0.25-85.342-42.186-85.342-42.186v-149.808l42.672-42.688h84.856z" fill="#656D78" /><path d="M732.524 631.066c-31.216-41.248-116.712-128.042-284.522-128.042-167.884 0-253.68 86.794-284.944 128.042h569.466z" fill="#4FC2E9" /><path d="M384.004 512.024h42.672v119.042h-42.672z" fill="#3BAFDA" /><path d="M106.28 908.306c-46.326 0-94.124-42.934-99.42-47.872-4.36-4-6.844-9.688-6.844-15.626V695a21.38 21.38 0 0 1 6.25-15.126l42.672-42.624c4-4 9.422-6.25 15.078-6.25h72.934c9.954-15 30.968-42.624 65.716-70.124 45.78-36.108 125.512-79.232 245.336-79.232 119.84 0 199.462 43.188 245.148 79.294 34.654 27.5 55.592 55.124 65.498 70.124 125.402 0.062 189.462 1.062 226.432 34.936 38.904 35.688 38.904 97.56 38.904 220.994 0 11.75-9.562 21.31-21.312 21.31H106.28z m-63.592-73.37c14.594 11.75 42.576 30.688 63.576 30.688H981.3c-0.094-93.938-1.688-146.746-25.062-168.184-25.876-23.688-91.122-23.688-209.526-23.688-7.906 0-15.218-4.438-18.906-11.438-0.126-0.25-19.03-35.06-62.808-69.184-58.498-45.686-131.496-68.794-216.994-68.794-85.514 0-158.604 23.11-217.226 68.732-43.888 34.186-62.904 68.934-63.092 69.308-3.688 7-10.906 11.25-18.812 11.25H72.858l-30.17 30.188v131.122z" fill="#656D78" /><path d="M234.682 759.438c-58.826 0-106.67 47.874-106.67 106.686 0 58.806 47.844 106.682 106.67 106.682 58.81 0 106.652-47.876 106.652-106.682 0-58.814-47.842-106.686-106.652-106.686zM789.304 759.438c-58.812 0-106.624 47.874-106.624 106.686 0 58.806 47.81 106.682 106.624 106.682 58.842 0 106.682-47.876 106.682-106.682 0-58.814-47.84-106.686-106.682-106.686z" fill="#434A54" /><path d="M213.338 866.124c0 11.812 9.562 21.31 21.344 21.31 11.78 0 21.326-9.498 21.326-21.31s-9.546-21.312-21.326-21.312c-11.782-0.002-21.344 9.498-21.344 21.312zM767.992 866.124c0 11.812 9.562 21.31 21.312 21.31 11.812 0 21.376-9.498 21.376-21.31s-9.562-21.312-21.376-21.312c-11.75-0.002-21.312 9.498-21.312 21.312z" fill="#F5F7FA" /><path d="M490.672 759h-42.67c-11.78 0-21.326-9.562-21.326-21.376 0-11.75 9.546-21.31 21.326-21.31h42.67c11.782 0 21.328 9.56 21.328 21.31 0 11.814-9.546 21.376-21.328 21.376z" fill="#434A54" /><path d="M1018.11 736.938c-2.626-16.248-6.438-30.06-12-41.936h-67.748c-11.782 0-21.312 9.562-21.312 21.312a21.28 21.28 0 0 0 21.312 21.31h74.498a20.74 20.74 0 0 0 5.25-0.686z" fill="#F5F7FA" /><path d="M64.016 631.004a21.324 21.324 0 0 0-15.078 6.25L6.266 679.876c-4 4-6.25 9.438-6.25 15.126h64c11.78 0 21.326-9.562 21.326-21.376v-42.624H64.016z" fill="#ED5564" /><path d="M676.402 329.372c-45.092 0-84.154 25.594-103.53 63.062-19.374-37.468-58.464-63.062-103.542-63.062-45.076 0-84.17 25.594-103.53 63.062-19.374-37.468-58.464-63.062-103.542-63.062-37.154 0-70.262 17.406-91.59 44.5v-2.688c0-164.964 133.714-298.678 298.662-298.678 164.95 0 298.662 133.714 298.662 298.678v2.688c-21.312-27.094-54.436-44.5-91.59-44.5z" fill="#ED5564" /></svg>