<?xml version="1.0" standalone="no"?><!DOCTYPE svg PUBLIC "-//W3C//DTD SVG 1.1//EN" "http://www.w3.org/Graphics/SVG/1.1/DTD/svg11.dtd"><svg class="icon" width="128px" height="128.00px" viewBox="0 0 1024 1024" version="1.1" xmlns="http://www.w3.org/2000/svg"><path d="M170.652 767.442c-3.188 0-6.468-0.688-9.532-2.25-10.532-5.25-14.782-18.062-9.5-28.624 8.438-17 26.874-66.624 36.374-132.934 6.968-48.624 8.406-99.046 4.218-149.858-5.188-63.56-19.218-127.966-41.656-191.464-3.906-11.124 1.906-23.312 13.032-27.218 11.094-3.938 23.28 1.874 27.218 13 23.812 67.436 38.624 135.936 44.062 203.59 4.344 54.282 2.688 108.14-4.938 160.078-13.062 89.122-39.062 141.746-40.186 143.934-3.718 7.432-11.25 11.746-19.092 11.746z" fill="#434A54" /><path d="M768 43.5H213.338a21.306 21.306 0 0 0-17.688 9.438l-127.998 190.34a21.326 21.326 0 0 0 0 23.812l127.998 190.372a21.348 21.348 0 0 0 17.688 9.406H768a21.296 21.296 0 0 0 21.31-21.312V64.844c0-11.78-9.528-21.344-21.31-21.344z" fill="#ED5564" /><path d="M832.436 917.624c-4.188 0-8.344-1.25-11.938-3.624l-52.686-35.624-52.156 34.124a21.376 21.376 0 0 1-23.344 0l-52.188-34.124-52.31 34.812c-7.81 5.25-18.124 4.688-25.374-1.25l-43.516-35.812-240.214-2.438c-5.656-0.062-11.062-2.376-15-6.438s-6.124-9.5-6.032-15.188l2.938-213.372a21.332 21.332 0 0 1 21.342-21.062l592.692 0.25c5.688 0 11.094 2.25 15.094 6.25l127.998 128.25a21.35 21.35 0 0 1 4 24.624l-42.686 85.308a21.166 21.166 0 0 1-9.344 9.438l-127.562 43.562a21.22 21.22 0 0 1-9.714 2.314z" fill="#F6BB42" /><path d="M402.896 582.196c-43.718-44.922-102.31-70.14-164.998-70.984-1.094-0.032-2.188-0.032-3.282-0.032-61.998 0-120.466 24-164.652 67.514C25.714 622.316 0.902 680.502 0.028 742.628c-0.844 62.688 22.75 121.934 66.468 166.872 43.686 44.876 102.28 70.124 164.964 71h3.282c62 0 120.466-24 164.654-67.5 44.25-43.624 69.062-101.808 69.936-163.934 0.844-62.688-22.748-121.938-66.436-166.87z" fill="#FFCE54" /><path d="M185.776 731.066c8.312 8.312 8.312 21.812 0 30.124a21.272 21.272 0 0 1-30.186 0c-8.312-8.312-8.312-21.812 0-30.124a21.276 21.276 0 0 1 30.186 0z" fill="#080808" /><path d="M968.934 703.442H661.312c-11.75 0-21.312 9.562-21.312 21.376 0 11.75 9.562 21.312 21.312 21.312h350.182l-42.56-42.688z" fill="#FFCE54" /><path d="M170.714 767.442c-7.938 0-15.532-4.376-19.218-12-26.874-55.312-43.592-116.562-49.718-182.058-4.812-52.046-3-106.89 5.468-163.012 14.344-95.374 42.686-160.966 43.874-163.716 4.718-10.812 17.312-15.718 28.092-11 10.812 4.686 15.75 17.28 11.032 28.062-0.282 0.624-27.592 64.092-41 154.216-7.844 52.562-9.468 103.78-4.906 152.264 5.688 60.058 21 116.122 45.53 166.622 5.156 10.562 0.75 23.376-9.844 28.5a21.574 21.574 0 0 1-9.31 2.122z" fill="#656D78" /><path d="M686.844 212.966l-98.342-19.624-37.374-56.562a21.248 21.248 0 0 0-17.796-9.592h-149.374a21.28 21.28 0 0 0-17.812 9.592L330.24 191.186h-52.904c-11.782 0-21.312 9.562-21.312 21.342v106.654c0 11.782 9.532 21.342 21.312 21.342h405.32c11.782 0 21.344-9.562 21.344-21.342v-85.28c0-10.186-7.188-18.936-17.156-20.936z" fill="#F5F7FA" /><path d="M384.022 287.184c-29.406 0-53.342 23.938-53.342 53.342 0 29.406 23.938 53.344 53.342 53.344 29.406 0 53.312-23.938 53.312-53.344 0-29.404-23.906-53.342-53.312-53.342zM576.004 287.184c-29.406 0-53.328 23.938-53.328 53.342 0 29.406 23.922 53.344 53.328 53.344 29.404 0 53.31-23.938 53.31-53.344 0-29.404-23.906-53.342-53.31-53.342z" fill="#434A54" /></svg>