<?xml version="1.0" standalone="no"?><!DOCTYPE svg PUBLIC "-//W3C//DTD SVG 1.1//EN" "http://www.w3.org/Graphics/SVG/1.1/DTD/svg11.dtd"><svg class="icon" width="128px" height="128.00px" viewBox="0 0 1024 1024" version="1.1" xmlns="http://www.w3.org/2000/svg"><path d="M128 0.008h768v1023.984H128z" fill="#ED5564" /><path d="M789.316 0.008c0 11.78 9.562 21.312 21.376 21.312 11.75 0 21.312-9.532 21.312-21.312h-42.688zM725.316 21.32c11.812 0 21.376-9.532 21.376-21.312h-42.688c0 11.782 9.562 21.312 21.312 21.312zM640.004 21.32A21.28 21.28 0 0 0 661.316 0.008h-42.622c0.002 11.782 9.564 21.312 21.31 21.312zM554.696 21.32c11.75 0 21.312-9.532 21.312-21.312h-42.672c0 11.782 9.532 21.312 21.36 21.312zM469.336 21.32c11.782 0 21.344-9.532 21.344-21.312h-42.686c0 11.782 9.562 21.312 21.342 21.312zM383.996 21.32c11.812 0 21.342-9.532 21.342-21.312h-42.656c0 11.782 9.564 21.312 21.314 21.312zM298.684 21.32c11.75 0 21.312-9.532 21.312-21.312H277.34c0 11.782 9.532 21.312 21.344 21.312zM213.342 21.32c11.782 0 21.342-9.532 21.342-21.312H191.998c0 11.782 9.562 21.312 21.344 21.312z" fill="#DA4453" /><path d="M234.684 1023.992c0-11.782-9.562-21.344-21.342-21.344s-21.344 9.562-21.344 21.344h42.686zM298.684 1002.648c-11.812 0-21.342 9.562-21.342 21.344h42.656c-0.002-11.782-9.564-21.344-21.314-21.344zM383.996 1002.648c-11.75 0-21.312 9.562-21.312 21.344h42.656c-0.002-11.782-9.532-21.344-21.344-21.344zM469.336 1002.648c-11.78 0-21.342 9.562-21.342 21.344h42.686c0-11.782-9.562-21.344-21.344-21.344zM554.696 1002.648a21.336 21.336 0 0 0-21.36 21.344h42.672c0-11.782-9.562-21.344-21.312-21.344zM640.004 1002.648c-11.746 0-21.308 9.562-21.308 21.344h42.622c-0.002-11.782-9.502-21.344-21.314-21.344zM725.316 1002.648c-11.75 0-21.312 9.562-21.312 21.344h42.688c0-11.782-9.564-21.344-21.376-21.344zM810.692 1002.648c-11.812 0-21.376 9.562-21.376 21.344h42.688c0-11.782-9.562-21.344-21.312-21.344z" fill="#DA4453" /><path d="M874.688 895.992c0 11.782 9.5 21.312 21.312 21.312v-42.656c-11.812 0-21.312 9.562-21.312 21.344zM874.688 810.652c0 11.782 9.5 21.344 21.312 21.344v-42.688c-11.812 0-21.312 9.564-21.312 21.344zM874.688 725.308c0 11.782 9.5 21.344 21.312 21.344v-42.656a21.28 21.28 0 0 0-21.312 21.312zM874.688 639.996c0 11.782 9.5 21.312 21.312 21.312v-42.656c-11.812 0-21.312 9.562-21.312 21.344zM874.688 554.656c0 11.782 9.5 21.344 21.312 21.344v-42.688c-11.812 0-21.312 9.564-21.312 21.344zM874.688 469.312c0 11.782 9.5 21.342 21.312 21.342V448a21.28 21.28 0 0 0-21.312 21.312zM874.688 384c0 11.782 9.5 21.312 21.312 21.312v-42.656c-11.812 0.002-21.312 9.564-21.312 21.344zM874.688 298.66c0 11.782 9.5 21.344 21.312 21.344v-42.688c-11.812 0-21.312 9.562-21.312 21.344zM874.688 213.318c0 11.782 9.5 21.342 21.312 21.342V192.004a21.28 21.28 0 0 0-21.312 21.314zM874.688 128.006c0 11.782 9.5 21.312 21.312 21.312V106.664a21.284 21.284 0 0 0-21.312 21.342z" fill="#DA4453" /><path d="M149.342 128.006a21.312 21.312 0 0 0-21.344-21.342v42.654c11.814 0 21.344-9.53 21.344-21.312zM149.342 213.318c0-11.782-9.532-21.312-21.344-21.312v42.656a21.334 21.334 0 0 0 21.344-21.344zM149.342 298.66c0-11.782-9.532-21.344-21.344-21.344v42.688a21.334 21.334 0 0 0 21.344-21.344zM149.342 384c0-11.78-9.532-21.342-21.344-21.342v42.656c11.814 0 21.344-9.532 21.344-21.314zM149.342 469.312C149.342 457.532 139.812 448 128 448v42.654c11.812 0.002 21.342-9.56 21.342-21.342zM149.342 554.656c0-11.782-9.532-21.344-21.344-21.344V576c11.814 0 21.344-9.562 21.344-21.344zM149.342 639.996c0-11.782-9.532-21.344-21.344-21.344v42.656c11.814 0 21.344-9.53 21.344-21.312zM149.342 725.308c0-11.782-9.532-21.312-21.344-21.312v42.656c11.814 0 21.344-9.562 21.344-21.344zM149.342 810.652c0-11.782-9.532-21.344-21.344-21.344v42.688c11.814 0 21.344-9.562 21.344-21.344zM149.342 895.992c0-11.782-9.532-21.344-21.344-21.344v42.656c11.814 0 21.344-9.53 21.344-21.312z" fill="#DA4453" /><path d="M191.998 64.006h640.006v895.986H191.998z" fill="#FFCE54" /><path d="M640.004 149.318H383.996c-58.812 0-106.654 47.844-106.654 106.686v511.992c0 58.812 47.842 106.652 106.654 106.652h256.008c58.812 0 106.688-47.84 106.688-106.652V256.004c0-58.842-47.876-106.686-106.688-106.686z" fill="#FC6E51" /><path d="M341.34 158.254v707.456a106.284 106.284 0 0 0 42.656 8.938V149.318a106.276 106.276 0 0 0-42.656 8.936zM490.68 149.318v270.214c0 15.718 9.562 28.438 21.312 28.438 11.812 0 21.342-12.718 21.342-28.438V149.318H490.68zM511.994 554.656c-11.75 0-21.312 9.562-21.312 21.344v298.648h42.656V576c-0.002-11.782-9.534-21.344-21.344-21.344zM682.692 865.71V158.254a106.214 106.214 0 0 0-42.688-8.938v725.332a106.188 106.188 0 0 0 42.688-8.938z" fill="#E9573F" /><path d="M640.004 512c0 70.688-57.308 127.998-128.01 127.998-70.686 0-127.998-57.308-127.998-127.998 0-70.716 57.312-127.998 127.998-127.998 70.702-0.002 128.01 57.28 128.01 127.998z" fill="#FFCE54" /><path d="M554.696 512c0 23.564-19.14 42.658-42.702 42.658-23.562 0-42.656-19.094-42.656-42.658 0-23.592 19.094-42.686 42.656-42.686 23.56-0.002 42.702 19.092 42.702 42.686z" fill="#ED5564" /></svg>