<?xml version="1.0" standalone="no"?><!DOCTYPE svg PUBLIC "-//W3C//DTD SVG 1.1//EN" "http://www.w3.org/Graphics/SVG/1.1/DTD/svg11.dtd"><svg class="icon" width="128px" height="128.00px" viewBox="0 0 1024 1024" version="1.1" xmlns="http://www.w3.org/2000/svg"><path d="M1023.986 160.01c0-11.782-9.562-21.344-21.312-21.344V96.012c11.75 0 21.312-9.562 21.312-21.342s-9.562-21.312-21.312-21.312H213.352v810.632h789.322c11.75 0 21.312-9.562 21.312-21.34 0-11.782-9.562-21.312-21.312-21.312v-42.688c11.75 0 21.312-9.532 21.312-21.308 0-11.782-9.562-21.344-21.312-21.344V693.34c11.75 0 21.312-9.562 21.312-21.344s-9.562-21.344-21.312-21.344V608c11.75 0 21.312-9.562 21.312-21.344s-9.562-21.312-21.312-21.312v-42.688c11.75 0 21.312-9.532 21.312-21.312 0-11.782-9.562-21.344-21.312-21.344v-42.656c11.75 0 21.312-9.562 21.312-21.342 0-11.782-9.562-21.344-21.312-21.344v-42.654c11.75 0 21.312-9.562 21.312-21.342 0-11.782-9.562-21.312-21.312-21.312v-42.686c11.75 0 21.312-9.53 21.312-21.312s-9.562-21.344-21.312-21.344V181.352c11.75 0 21.312-9.56 21.312-21.342z" fill="#C63449" /><path d="M393.44 79.856c-42.748-17.094-99.122-26.5-158.746-26.5-59.624 0-116.028 9.406-158.776 26.5C26.95 99.45 0.014 127.916 0.014 160.01v703.978c0 32.094 26.936 60.562 75.904 80.156 42.75 17.094 99.154 26.5 158.776 26.5 59.624 0 115.998-9.406 158.746-26.5 48.936-19.594 75.906-48.062 75.906-80.156V160.01c-0.002-32.094-26.97-60.56-75.906-80.154z" fill="#ED5564" /><path d="M469.344 160.01c0 58.904-105.06 106.654-234.65 106.654-129.622 0-234.68-47.75-234.68-106.654s105.06-106.654 234.68-106.654c129.592 0 234.65 47.75 234.65 106.654z" fill="#DA4453" /><path d="M249.756 144.916a21.332 21.332 0 0 1 0 30.188c-8.312 8.312-21.812 8.312-30.156 0a21.332 21.332 0 0 1 0-30.188c8.344-8.312 21.844-8.312 30.156 0z" fill="#434A54" /><path d="M121.76 272.914a21.33 21.33 0 0 1 0 30.186c-8.312 8.312-21.812 8.312-30.156 0a21.33 21.33 0 0 1 0-30.186c8.346-8.314 21.844-8.314 30.156 0zM207.102 358.254c8.344 8.312 8.344 21.842 0 30.154-8.344 8.344-21.842 8.344-30.156 0-8.344-8.312-8.344-21.842 0-30.154 8.312-8.342 21.812-8.342 30.156 0zM292.444 443.596c8.312 8.312 8.312 21.812 0 30.156-8.344 8.344-21.876 8.344-30.186 0-8.312-8.344-8.312-21.844 0-30.156 8.31-8.344 21.842-8.344 30.186 0zM121.76 443.596c8.344 8.312 8.344 21.812 0 30.156-8.312 8.344-21.812 8.344-30.156 0s-8.344-21.844 0-30.156c8.346-8.344 21.844-8.344 30.156 0zM377.754 528.906a21.332 21.332 0 0 1 0 30.188c-8.312 8.312-21.812 8.312-30.156 0a21.332 21.332 0 0 1 0-30.188c8.344-8.312 21.844-8.312 30.156 0zM207.102 528.906a21.332 21.332 0 0 1 0 30.188c-8.344 8.312-21.842 8.312-30.156 0a21.332 21.332 0 0 1 0-30.188c8.312-8.312 21.812-8.312 30.156 0zM377.754 358.254c8.344 8.312 8.344 21.842 0 30.154-8.312 8.344-21.812 8.344-30.156 0-8.344-8.312-8.344-21.842 0-30.154 8.344-8.342 21.844-8.342 30.156 0zM292.444 272.914c8.312 8.342 8.312 21.842 0 30.186-8.344 8.312-21.876 8.312-30.186 0-8.312-8.344-8.312-21.844 0-30.186 8.31-8.314 21.842-8.314 30.186 0zM121.76 614.246c8.344 8.312 8.344 21.844 0 30.156-8.312 8.344-21.812 8.344-30.156 0-8.344-8.312-8.344-21.844 0-30.156 8.346-8.34 21.844-8.34 30.156 0zM207.102 699.59c8.344 8.312 8.344 21.812 0 30.156s-21.842 8.344-30.156 0c-8.344-8.344-8.344-21.844 0-30.156 8.312-8.344 21.812-8.344 30.156 0zM292.444 784.898c8.312 8.344 8.312 21.844 0 30.188-8.344 8.312-21.876 8.312-30.186 0-8.312-8.344-8.312-21.844 0-30.188 8.31-8.312 21.842-8.312 30.186 0zM121.76 784.898a21.332 21.332 0 0 1 0 30.188c-8.312 8.312-21.812 8.312-30.156 0a21.332 21.332 0 0 1 0-30.188c8.346-8.312 21.844-8.312 30.156 0zM377.754 870.238c8.344 8.312 8.344 21.844 0 30.156-8.312 8.344-21.812 8.344-30.156 0-8.344-8.312-8.344-21.844 0-30.156 8.344-8.344 21.844-8.344 30.156 0zM207.102 870.238c8.344 8.312 8.344 21.844 0 30.156-8.344 8.344-21.842 8.344-30.156 0-8.344-8.312-8.344-21.844 0-30.156 8.312-8.344 21.812-8.344 30.156 0zM377.754 699.59c8.344 8.312 8.344 21.812 0 30.156-8.312 8.344-21.812 8.344-30.156 0-8.344-8.344-8.344-21.844 0-30.156 8.344-8.344 21.844-8.344 30.156 0zM292.444 614.246c8.312 8.312 8.312 21.844 0 30.156-8.344 8.344-21.876 8.344-30.186 0-8.312-8.312-8.312-21.844 0-30.156 8.31-8.34 21.842-8.34 30.186 0z" fill="#C63449" /><path d="M527.094 144.916a21.332 21.332 0 0 1 0 30.188c-8.344 8.312-21.844 8.312-30.156 0a21.332 21.332 0 0 1 0-30.188c8.312-8.312 21.812-8.312 30.156 0zM612.434 230.258c8.312 8.344 8.312 21.844 0 30.156a21.33 21.33 0 0 1-30.186 0c-8.312-8.312-8.312-21.812 0-30.156a21.33 21.33 0 0 1 30.186 0zM697.746 315.6c8.344 8.312 8.344 21.812 0 30.156-8.312 8.344-21.812 8.344-30.156 0-8.344-8.342-8.344-21.842 0-30.156 8.344-8.344 21.844-8.344 30.156 0zM527.094 315.6c8.344 8.312 8.344 21.812 0 30.156-8.344 8.344-21.844 8.344-30.156 0-8.344-8.342-8.344-21.842 0-30.156 8.312-8.344 21.812-8.344 30.156 0zM783.084 400.91a21.33 21.33 0 0 1 0 30.186c-8.342 8.312-21.842 8.312-30.154 0a21.334 21.334 0 0 1 0-30.186c8.312-8.314 21.812-8.314 30.154 0zM612.434 400.91c8.312 8.344 8.312 21.844 0 30.186-8.344 8.312-21.842 8.312-30.186 0-8.312-8.342-8.312-21.842 0-30.186 8.344-8.314 21.842-8.314 30.186 0zM783.084 230.258c8.344 8.344 8.344 21.844 0 30.156-8.342 8.344-21.842 8.344-30.154 0-8.342-8.312-8.342-21.812 0-30.156 8.312-8.344 21.812-8.344 30.154 0zM697.746 144.916a21.332 21.332 0 0 1 0 30.188c-8.312 8.312-21.812 8.312-30.156 0a21.332 21.332 0 0 1 0-30.188c8.344-8.312 21.844-8.312 30.156 0zM527.094 486.25c8.344 8.312 8.344 21.842 0 30.156-8.344 8.344-21.844 8.344-30.156 0-8.344-8.312-8.344-21.842 0-30.156 8.312-8.342 21.812-8.342 30.156 0zM612.434 571.594c8.312 8.312 8.312 21.812 0 30.156a21.33 21.33 0 0 1-30.186 0c-8.312-8.344-8.312-21.844 0-30.156a21.33 21.33 0 0 1 30.186 0zM697.746 656.902a21.332 21.332 0 0 1 0 30.188c-8.312 8.312-21.812 8.312-30.156 0a21.332 21.332 0 0 1 0-30.188c8.344-8.312 21.844-8.312 30.156 0zM527.094 656.902a21.332 21.332 0 0 1 0 30.188c-8.344 8.312-21.844 8.312-30.156 0a21.332 21.332 0 0 1 0-30.188c8.312-8.312 21.812-8.312 30.156 0zM783.084 742.246c8.344 8.312 8.344 21.844 0 30.152-8.342 8.344-21.842 8.344-30.154 0-8.342-8.308-8.342-21.84 0-30.152 8.312-8.344 21.812-8.344 30.154 0zM612.434 742.246c8.312 8.312 8.312 21.844 0 30.152a21.33 21.33 0 0 1-30.186 0c-8.312-8.308-8.312-21.84 0-30.152a21.33 21.33 0 0 1 30.186 0zM783.084 571.594c8.344 8.312 8.344 21.812 0 30.156-8.342 8.344-21.842 8.344-30.154 0-8.342-8.344-8.342-21.844 0-30.156 8.312-8.344 21.812-8.344 30.154 0zM697.746 486.25c8.344 8.312 8.344 21.842 0 30.156-8.312 8.344-21.812 8.344-30.156 0-8.344-8.312-8.344-21.842 0-30.156 8.344-8.342 21.844-8.342 30.156 0z" fill="#A81D3E" /><path d="M868.428 144.916c8.312 8.344 8.312 21.844 0 30.188-8.344 8.312-21.844 8.312-30.188 0-8.312-8.344-8.312-21.844 0-30.188 8.344-8.312 21.844-8.312 30.188 0zM953.736 230.258c8.344 8.344 8.344 21.844 0 30.156-8.312 8.344-21.812 8.344-30.154 0-8.344-8.312-8.344-21.812 0-30.156 8.342-8.344 21.842-8.344 30.154 0zM868.428 315.6c8.312 8.312 8.312 21.812 0 30.156a21.332 21.332 0 0 1-30.188 0c-8.312-8.342-8.312-21.842 0-30.156a21.332 21.332 0 0 1 30.188 0zM953.736 400.91a21.33 21.33 0 0 1 0 30.186c-8.312 8.312-21.812 8.312-30.154 0a21.33 21.33 0 0 1 0-30.186c8.342-8.314 21.842-8.314 30.154 0zM868.428 486.25c8.312 8.312 8.312 21.842 0 30.156a21.332 21.332 0 0 1-30.188 0c-8.312-8.312-8.312-21.842 0-30.156a21.336 21.336 0 0 1 30.188 0zM953.736 571.594c8.344 8.312 8.344 21.812 0 30.156-8.312 8.344-21.812 8.344-30.154 0-8.344-8.344-8.344-21.844 0-30.156 8.342-8.344 21.842-8.344 30.154 0zM868.428 656.902c8.312 8.344 8.312 21.844 0 30.188-8.344 8.312-21.844 8.312-30.188 0-8.312-8.344-8.312-21.844 0-30.188 8.344-8.312 21.844-8.312 30.188 0zM953.736 742.246c8.344 8.312 8.344 21.844 0 30.152-8.312 8.344-21.812 8.344-30.154 0-8.344-8.308-8.344-21.84 0-30.152 8.342-8.344 21.842-8.344 30.154 0z" fill="#A81D3E" /></svg>