<?xml version="1.0" standalone="no"?><!DOCTYPE svg PUBLIC "-//W3C//DTD SVG 1.1//EN" "http://www.w3.org/Graphics/SVG/1.1/DTD/svg11.dtd"><svg class="icon" width="128px" height="128.00px" viewBox="0 0 1024 1024" version="1.1" xmlns="http://www.w3.org/2000/svg"><path d="M661.932551 367.767845a21.259875 21.259875 0 0 1-13.717919-4.999971c-8.999947-7.577956-10.15594-21.029877-2.593985-30.029824 71.467581-84.997502 112.62334-166.105027 134.589211-219.180715 23.87586-57.607662 30.875819-95.59144 30.937819-95.965438 2.061988-11.577932 13.155923-19.295887 24.717855-17.217899 11.593932 2.061988 19.311887 13.109923 17.249899 24.687855-0.311998 1.67199-7.593956 41.841755-32.875807 103.325395-23.155864 56.215671-66.55961 142.057168-141.995168 231.774642-4.187975 5.027971-10.24994 7.605955-16.311905 7.605955z" fill="#8CC153" /><path d="M723.68219 340.676004c-5.18797 0-10.375939-1.875989-14.499915-5.671967-8.623949-7.999953-9.155946-21.499874-1.155994-30.123823 108.245366-116.873315 280.802355-173.556983 288.084312-175.91697 11.217934-3.623979 23.217864 2.531985 26.843843 13.73392 3.623979 11.185934-2.531985 23.217864-13.749919 26.825843-2.187987 0.717996-169.495007 55.921672-269.898419 164.325037a21.223876 21.223876 0 0 1-15.623908 6.82796z" fill="#8CC153" /><path d="M581.153025 464.17128a21.335875 21.335875 0 0 1-15.093912-6.233963c-8.311951-8.327951-8.311951-21.827872 0-30.155824L987.578643 6.261963c8.343951-8.327951 21.843872-8.327951 30.155824 0s8.311951 21.827872 0 30.139824L596.212937 457.937317a21.251875 21.251875 0 0 1-15.059912 6.233963z" fill="#A0D468" /><path d="M723.68219 340.676004a21.295875 21.295875 0 0 1-18.499892-10.717937c-5.843966-10.20194-2.311986-23.233864 7.875954-29.09183 104.08939-59.68565 237.27461-86.169495 242.868577-87.279488 11.559932-2.249987 22.779867 5.281969 25.029853 16.843901 2.249987 11.545932-5.281969 22.749867-16.843901 24.999853-1.281992 0.265998-131.995227 26.311846-229.836653 82.419517a21.147876 21.147876 0 0 1-10.593938 2.825984z" fill="#A0D468" /><path d="M10.730367 1013.266063c-81.87352-81.87352 325.89809-544.218811 506.799031-725.103751 120.589293-120.591293 338.896014 97.731427 218.30472 218.32272C554.965178 687.337973 92.603887 1095.107583 10.730367 1013.266063z" fill="#FC6E51" /><path d="M705.682295 476.329209C536.405287 645.620217 120.571724 1013.640061 0.856425 992.986182c1.405992 8.187952 4.623973 15.029912 9.875942 20.279881 81.87352 81.84152 544.234811-325.92809 725.105751-506.781031 65.873614-65.873614 30.623821-160.887057-34.559797-213.916746 44.057742 54.169683 59.151653 129.027244 4.403974 183.760923z" fill="#FFFFFF" opacity=".2" /><path d="M304.192648 519.012959c18.373892 19.311887 45.717732 46.07773 61.935637 58.07766v-0.032a21.211876 21.211876 0 0 0 12.655926 4.187975 21.299875 21.299875 0 0 0 21.311875-21.311875c0-7.031959-3.40598-13.249922-8.65595-17.1239l0.032-0.015999c-14.593914-10.781937-42.62375-38.511774-59.123653-56.027672a5687.812673 5687.812673 0 0 0-28.155835 32.245811zM427.187927 382.081761c12.437927 15.953907 37.155782 45.169735 66.841608 67.107607v-0.032a21.283875 21.283875 0 0 0 12.655926 4.187976c11.781931 0 21.343875-9.531944 21.343875-21.311875 0-7.031959-3.43798-13.249922-8.687949-17.1239l0.032-0.016c-29.249829-21.609873-53.967684-52.811691-62.591633-64.295623a4166.669586 4166.669586 0 0 0-29.593827 31.483815zM188.195327 658.870139c13.59392 14.437915 33.905801 34.1858 50.029707 46.12373v-0.032a21.211876 21.211876 0 0 0 12.655926 4.187976 21.297875 21.297875 0 0 0 21.311875-21.309875c0-7.031959-3.40598-13.249922-8.655949-17.1239l0.032-0.032c-15.28191-11.249934-36.811784-32.593809-48.467716-45.467733a3890.877202 3890.877202 0 0 0-26.905843 33.653802zM110.321784 832.89512v-0.032a21.211876 21.211876 0 0 0 12.655925 4.187975 21.297875 21.297875 0 0 0 21.311876-21.309875c0-7.031959-3.40598-13.249922-8.65595-17.123899v-0.032c-5.999965-4.437974-20.093882-17.343898-31.155817-27.875837a1630.528446 1630.528446 0 0 0-24.311858 35.687791c9.719943 9.125947 22.625867 20.935877 30.155824 26.497845z" fill="#E9573F" /></svg>