<?xml version="1.0" standalone="no"?><!DOCTYPE svg PUBLIC "-//W3C//DTD SVG 1.1//EN" "http://www.w3.org/Graphics/SVG/1.1/DTD/svg11.dtd"><svg class="icon" width="128px" height="128.00px" viewBox="0 0 1024 1024" version="1.1" xmlns="http://www.w3.org/2000/svg"><path d="M618.624 568.368v161.512l-146.22-98.156-46.518 20.18 201.392 135.148a21.288 21.288 0 0 0 12.684 4.184c11.778 0 21.304-9.558 21.304-21.336V549.872l-42.642 18.496z" fill="#A9B1BC" /><path d="M756.176 530.16c-0.312 0.156 0.374-0.14 0 0zM1002.506 137.792c-2.936 0-5.748 0.594-8.31 1.672l-256.328 114.824c-7.434 3.344-12.622 10.794-12.622 19.462v223.526L299.736 687.86l17.432 38.924 439.04-196.64c6.934-3.532 11.714-10.716 11.714-19.028V287.56l242.864-108.78a21.322 21.322 0 0 0 13.058-19.666c0-11.776-9.558-21.322-21.338-21.322z" fill="#CBD0D8" /><path d="M0.156 322.458l682.448-101.766v248.596L341.38 622.1z" fill="#46CEAD" /><path d="M37.192 316.928L0.156 322.458 341.38 622.1l28.256-12.622z" opacity=".1" /><path d="M213.418 864.9c-58.794 0-106.624-47.862-106.624-106.654 0-58.794 47.83-106.624 106.624-106.624 58.81 0 106.64 47.83 106.64 106.624s-47.83 106.654-106.64 106.654z" fill="#646C77" /><path d="M213.418 630.286c-70.666 0-127.96 57.294-127.96 127.96s57.294 127.96 127.96 127.96c70.682 0 127.96-57.294 127.96-127.96s-57.278-127.96-127.96-127.96z m0 213.276c-47.032 0-85.302-38.27-85.302-85.316 0-47.018 38.27-85.288 85.302-85.288 47.048 0 85.318 38.27 85.318 85.288 0 47.046-38.27 85.316-85.318 85.316z" fill="#424953" /><path d="M234.756 758.246c0 11.808-9.56 21.336-21.336 21.336s-21.322-9.528-21.322-21.336c0-11.746 9.544-21.306 21.322-21.306s21.336 9.56 21.336 21.306z" fill="#E5E8EC" /></svg>