<?xml version="1.0" standalone="no"?><!DOCTYPE svg PUBLIC "-//W3C//DTD SVG 1.1//EN" "http://www.w3.org/Graphics/SVG/1.1/DTD/svg11.dtd"><svg class="icon" width="128px" height="128.00px" viewBox="0 0 1024 1024" version="1.1" xmlns="http://www.w3.org/2000/svg"><path d="M682.666 511.992H384.018v213.304h298.648V511.992z" fill="#5D9CEC" /><path d="M640.012 383.996h-170.666v127.996h170.666v-127.996z" fill="#4FC2E9" /><path d="M853.318 426.666H640.012v298.63h213.306V426.666z" fill="#AC92EB" /><path d="M896.004 767.984H362.676c-11.766 0-21.328-9.562-21.328-21.312 0-11.782 9.562-21.376 21.328-21.376h533.328L1024 256H257.71l-36.358-133.59h-0.016a21.34 21.34 0 0 0-18.046-15.578v-0.016L23.874 85.488v0.016a19.148 19.148 0 0 0-2.516-0.172C9.576 85.332 0.03 94.894 0.03 106.676c0 10.922 8.218 19.92 18.812 21.17l165.12 19.64L213.492 256h-0.14l118.512 434.548c-19.782 10.876-33.186 31.936-33.186 56.124 0 35.312 28.656 64 63.998 64h533.328c11.782 0 21.31-9.562 21.31-21.376 0-11.75-9.528-21.312-21.31-21.312z m72.122-469.314l-104.714 384.004H373.94l-104.73-384.004h698.916z" fill="#E6E9ED" /><path d="M768.008 767.984c-47.124 0-85.342 38.188-85.342 85.31 0 47.154 38.218 85.374 85.342 85.374s85.31-38.218 85.31-85.374c0-47.122-38.188-85.31-85.31-85.31zM426.674 767.984c-47.124 0-85.326 38.188-85.326 85.31 0 47.154 38.202 85.374 85.326 85.374 47.124 0 85.34-38.218 85.34-85.374 0-47.122-38.218-85.31-85.34-85.31z" fill="#434A54" /><path d="M789.318 853.294c0 11.81-9.532 21.374-21.31 21.374-11.782 0-21.344-9.562-21.344-21.374 0-11.75 9.562-21.312 21.344-21.312 11.78 0 21.31 9.562 21.31 21.312z" fill="#F5F7FA" /><path d="M448.016 853.294c0 11.81-9.562 21.374-21.342 21.374-11.782 0-21.328-9.562-21.328-21.374 0-11.75 9.546-21.312 21.328-21.312 11.78 0 21.342 9.562 21.342 21.312z" fill="#F5F7FA" /></svg>