<?xml version="1.0" standalone="no"?><!DOCTYPE svg PUBLIC "-//W3C//DTD SVG 1.1//EN" "http://www.w3.org/Graphics/SVG/1.1/DTD/svg11.dtd"><svg class="icon" width="128px" height="128.00px" viewBox="0 0 1024 1024" version="1.1" xmlns="http://www.w3.org/2000/svg"><path d="M661.28 117.412H362.692c-23.558 0-42.646 19.104-42.646 42.662v191.284c0 23.574 19.088 42.662 42.646 42.662H661.28c23.556 0 42.678-19.088 42.678-42.662V160.074c0-23.558-19.122-42.662-42.678-42.662zM362.692 351.356v-169.96H661.28v169.96H362.692z" fill="#434A54" /><path d="M1023.882 266.72c0-23.556-19.122-42.662-42.676-42.662H42.764c-23.556 0-42.646 19.106-42.646 42.662v597.19c0 23.558 19.09 42.68 42.646 42.68h938.444c23.554 0 42.676-19.122 42.676-42.68V266.72z" fill="#E6E9ED" /><path d="M917.22 202.736h-85.292c-11.78 0-21.338 9.544-21.338 21.322 0 11.78 9.558 21.324 21.338 21.324h85.292a21.312 21.312 0 0 0 21.338-21.324 21.312 21.312 0 0 0-21.338-21.322zM192.074 202.736H106.75c-11.78 0-21.324 9.544-21.324 21.322 0 11.78 9.544 21.324 21.324 21.324h85.324c11.778 0 21.322-9.544 21.322-21.324 0-11.778-9.544-21.322-21.322-21.322z" fill="#F5F7FA" /><path d="M85.426 309.366h405.236v237.306H85.426zM85.426 583.976h405.236v237.258H85.426zM533.324 309.366h405.234v237.306H533.324zM533.324 583.976h405.234v237.258H533.324z" fill="#A0D468" /><path d="M352.038 702.636c0 35.304-28.65 63.984-63.986 63.984-35.35 0-63.984-28.68-63.984-63.984 0-35.368 28.634-63.984 63.984-63.984 35.334 0 63.986 28.618 63.986 63.984zM352.038 428.01c0 35.336-28.65 63.986-63.986 63.986-35.35 0-63.984-28.65-63.984-63.986 0-35.334 28.634-63.984 63.984-63.984 35.334 0 63.986 28.65 63.986 63.984zM799.934 428.01c0 35.336-28.648 63.986-63.984 63.986-35.368 0-63.984-28.65-63.984-63.986 0-35.334 28.618-63.984 63.984-63.984 35.336 0 63.984 28.65 63.984 63.984zM799.934 702.636c0 35.304-28.648 63.984-63.984 63.984-35.368 0-63.984-28.68-63.984-63.984 0-35.368 28.618-63.984 63.984-63.984 35.336 0 63.984 28.618 63.984 63.984z" fill="#8CC153" /></svg>