<?xml version="1.0" standalone="no"?><!DOCTYPE svg PUBLIC "-//W3C//DTD SVG 1.1//EN" "http://www.w3.org/Graphics/SVG/1.1/DTD/svg11.dtd"><svg class="icon" width="128px" height="128.00px" viewBox="0 0 1024 1024" version="1.1" xmlns="http://www.w3.org/2000/svg"><path d="M618.632 767.942H405.37c-11.778 0-21.338 9.558-21.338 21.306v213.294c0 11.78 9.56 21.34 21.338 21.34h213.264c11.778 0 21.34-9.56 21.34-21.34V789.248c-0.002-11.748-9.564-21.306-21.342-21.306z m-21.308 213.264h-170.648v-170.618h170.648v170.618z" fill="#434A54" /><path d="M885.258 490.66c0-11.78-9.558-21.322-21.338-21.322H160.082c-11.778 0-21.338 9.542-21.338 21.322v447.898c0 11.778 9.56 21.338 21.338 21.338H863.92c11.78 0 21.338-9.56 21.338-21.338V490.66zM885.258 21.44c0-11.78-9.558-21.322-21.338-21.322H160.082c-11.778 0-21.338 9.542-21.338 21.322v426.574c0 11.78 9.56 21.324 21.338 21.324H863.92c11.78 0 21.338-9.544 21.338-21.324V21.44z" fill="#656D78" /><path d="M575.986 128.088h-125.972v0.094a21.076 21.076 0 0 0-2-0.094c-11.778 0-21.338 9.542-21.338 21.322s9.56 21.324 21.338 21.324c0.688 0 1.342-0.032 2-0.094v0.094h125.972c11.78 0 21.338-9.544 21.338-21.324s-9.558-21.322-21.338-21.322z" fill="#E6E9ED" /><path d="M309.39 938.558h-63.986c-11.778 0-21.338 9.528-21.338 21.338 0 11.78 9.56 21.308 21.338 21.308h63.986c11.78 0 21.308-9.53 21.308-21.308 0-11.81-9.528-21.338-21.308-21.338zM778.596 938.558h-63.986c-11.778 0-21.306 9.528-21.306 21.338 0 11.78 9.53 21.308 21.306 21.308h63.986c11.78 0 21.338-9.53 21.338-21.308a21.324 21.324 0 0 0-21.338-21.338z" fill="#434A54" /><path d="M138.742 149.41v298.604c0 11.78 9.56 21.324 21.338 21.324h703.84c11.78 0 21.338-9.544 21.338-21.324V149.41H138.742z" fill="#CCD1D9" /><path d="M693.302 0.118c0 11.778 9.53 21.322 21.306 21.322h63.986c11.78 0 21.338-9.544 21.338-21.322h-106.63zM224.066 0.118c0 11.778 9.56 21.322 21.338 21.322h63.986c11.78 0 21.308-9.544 21.308-21.322h-106.632z" fill="#434A54" /><path d="M235.44 149.41h42.646v319.928H235.44zM363.566 149.41h42.646v319.928h-42.646zM491.662 149.41h42.678v319.928h-42.678zM619.79 149.41h42.646v319.928h-42.646zM747.882 149.41h42.68v319.928h-42.68z" fill="#E6E9ED" /><path d="M202.602 725.264h298.588v170.648H202.602z" fill="#A0D468" /><path d="M393.808 810.588c0 23.556-19.088 42.646-42.678 42.646-23.556 0-42.646-19.09-42.646-42.646 0-23.558 19.09-42.646 42.646-42.646 23.59 0 42.678 19.088 42.678 42.646z" fill="#8CC153" /><path d="M202.728 533.322h298.62v170.632h-298.62z" fill="#A0D468" /><path d="M351.288 618.63m-42.646 0a42.646 42.646 0 1 0 85.292 0 42.646 42.646 0 1 0-85.292 0Z" fill="#8CC153" /><path d="M522.592 725.264H821.18v170.648H522.592z" fill="#A0D468" /><path d="M713.796 810.588c0 23.556-19.088 42.646-42.644 42.646-23.558 0-42.68-19.09-42.68-42.646 0-23.558 19.122-42.646 42.68-42.646 23.556 0 42.644 19.088 42.644 42.646z" fill="#8CC153" /><path d="M522.748 533.322h298.588v170.632H522.748z" fill="#A0D468" /><path d="M713.954 618.63c0 23.556-19.12 42.646-42.676 42.646-23.558 0-42.648-19.09-42.648-42.646s19.09-42.646 42.648-42.646c23.556 0 42.676 19.09 42.676 42.646z" fill="#8CC153" /></svg>