<?xml version="1.0" standalone="no"?><!DOCTYPE svg PUBLIC "-//W3C//DTD SVG 1.1//EN" "http://www.w3.org/Graphics/SVG/1.1/DTD/svg11.dtd"><svg class="icon" width="128px" height="128.00px" viewBox="0 0 1024 1024" version="1.1" xmlns="http://www.w3.org/2000/svg"><path d="M469.346 895.996c0 23.562-19.094 42.688-42.656 42.688H128.01c-23.56 0-42.654-19.124-42.654-42.688v-426.66c0-23.562 85.342-85.31 85.342-85.31l42.654-341.334h127.998l42.654 341.334s85.342 61.75 85.342 85.31v426.66zM938.678 895.996c0 23.562-19.124 42.688-42.688 42.688H597.342c-23.562 0-42.654-19.124-42.654-42.688v-426.66c0-23.562 85.31-85.31 85.31-85.31l42.686-341.334h127.998l42.654 341.334s85.342 61.75 85.342 85.31v426.66z" fill="#A0D468" /><path d="M853.336 384.026L810.682 42.692h-42.688l42.688 341.334s85.308 61.75 85.308 85.31v426.66c0 23.562-19.094 42.688-42.654 42.688h42.654c23.562 0 42.688-19.124 42.688-42.688v-426.66c0-23.56-85.342-85.31-85.342-85.31zM384.004 384.026L341.35 42.692h-42.656l42.656 341.334s85.34 61.75 85.34 85.31v426.66c0 23.562-19.124 42.688-42.686 42.688h42.686c23.562 0 42.656-19.124 42.656-42.688v-426.66c0-23.56-85.342-85.31-85.342-85.31z" fill="#FFFFFF" opacity=".2" /><path d="M170.698 597.316h213.306v213.372H170.698z" fill="#ED5564" /><path d="M746.682 85.348c0 11.78-9.562 21.342-21.344 21.342s-21.342-9.562-21.342-21.342c0-11.782 9.56-21.312 21.342-21.312s21.344 9.53 21.344 21.312zM703.996 85.348c0 11.78-9.532 21.342-21.312 21.342-11.78 0-21.342-9.562-21.342-21.342h42.654z" fill="#DA4453" /><path d="M789.338 85.348c0 11.78-9.562 21.342-21.344 21.342s-21.312-9.562-21.312-21.342c0-11.782 9.532-21.312 21.312-21.312s21.344 9.53 21.344 21.312zM831.992 85.348c0 11.78-9.53 21.342-21.31 21.342s-21.344-9.562-21.344-21.342h42.654z" fill="#DA4453" /><path d="M661.342 85.348h170.65l-13.31-42.656h-143.996z" fill="#ED5564" /><path d="M277.35 85.348c0 11.78-9.56 21.342-21.342 21.342s-21.312-9.562-21.312-21.342c0-11.782 9.532-21.312 21.312-21.312s21.342 9.53 21.342 21.312zM234.696 85.348c0 11.78-9.562 21.342-21.344 21.342s-21.342-9.562-21.342-21.342h42.686z" fill="#DA4453" /><path d="M320.006 85.348c0 11.78-9.532 21.342-21.312 21.342s-21.344-9.562-21.344-21.342c0-11.782 9.562-21.312 21.344-21.312s21.312 9.53 21.312 21.312zM362.692 85.348c0 11.78-9.562 21.342-21.342 21.342-11.782 0-21.344-9.562-21.344-21.342h42.686z" fill="#DA4453" /><path d="M192.01 85.348h170.682l-13.344-42.656h-143.996z" fill="#ED5564" /><path d="M639.998 597.316h213.338v213.372H639.998z" fill="#ED5564" /><path d="M0.014 426.682v554.626h1023.972V426.682H0.014z m895.944 256.01H128.042v-127.996H895.96v127.996z" fill="#A85D5D" /><path d="M234.696 853.312H106.7c-11.782 0-21.344 9.562-21.344 21.372 0 11.75 9.562 21.312 21.344 21.312h127.996c11.782 0 21.312-9.562 21.312-21.312 0-11.808-9.532-21.372-21.312-21.372zM384.004 789.312c0-11.75-9.532-21.312-21.312-21.312H106.7c-11.782 0-21.344 9.562-21.344 21.312 0 11.812 9.562 21.376 21.344 21.376h255.992c11.78 0 21.312-9.564 21.312-21.376z" fill="#434A54" /><path d="M895.958 512.024H85.386V725.314h853.26V512.024h-42.688z m0 170.668H128.042v-127.996H895.96v127.996z" fill="#965353" /></svg>