<?xml version="1.0" standalone="no"?><!DOCTYPE svg PUBLIC "-//W3C//DTD SVG 1.1//EN" "http://www.w3.org/Graphics/SVG/1.1/DTD/svg11.dtd"><svg class="icon" width="128px" height="128.00px" viewBox="0 0 1024 1024" version="1.1" xmlns="http://www.w3.org/2000/svg"><path d="M298.678 261.796h42.654v91.106h-42.654z" fill="#434A54" /><path d="M170.682 106.692h298.648v170.65H170.682z" fill="#5D9CEC" /><path d="M936.736 768.094c1.062 11.656-7.688 21.218-19.438 21.218H106.684c-11.734 0-20.468-9.562-19.406-21.218l38.796-426.832c1.062-11.688 11.53-21.25 23.264-21.25h725.34c11.716 0 22.186 9.562 23.248 21.25l38.81 426.832z" fill="#CCD1D9" /><path d="M256.006 192.016m-21.328 0a21.328 21.328 0 1 0 42.656 0 21.328 21.328 0 1 0-42.656 0Z" fill="#434A54" /><path d="M320.004 192.016m-21.328 0a21.328 21.328 0 1 0 42.656 0 21.328 21.328 0 1 0-42.656 0Z" fill="#434A54" /><path d="M384.002 192.016m-21.328 0a21.328 21.328 0 1 0 42.656 0 21.328 21.328 0 1 0-42.656 0Z" fill="#434A54" /><path d="M1023.984 895.996c0 11.782-9.562 21.312-21.31 21.312H21.342c-11.782 0-21.326-9.532-21.326-21.312v-170.684c0-11.748 9.544-21.31 21.326-21.31h981.332c11.748 0 21.31 9.562 21.31 21.31v170.684z" fill="#E6E9ED" /><path d="M618.684 490.68c-11.812 0-21.374 9.546-21.374 21.328s9.56 21.328 21.374 21.328c11.75 0 21.312-9.546 21.312-21.328s-9.562-21.328-21.312-21.328zM703.994 490.68c-11.782 0-21.312 9.546-21.312 21.328s9.532 21.328 21.312 21.328 21.312-9.546 21.312-21.328-9.53-21.328-21.312-21.328zM789.302 533.336c11.812 0 21.376-9.546 21.376-21.328s-9.562-21.328-21.376-21.328c-11.75 0-21.31 9.546-21.31 21.328s9.56 21.328 21.31 21.328zM618.684 554.694c-11.812 0-21.374 9.532-21.374 21.312s9.56 21.31 21.374 21.31c11.75 0 21.312-9.53 21.312-21.31s-9.562-21.312-21.312-21.312zM703.994 554.694c-11.782 0-21.312 9.532-21.312 21.312s9.532 21.31 21.312 21.31 21.312-9.53 21.312-21.31-9.53-21.312-21.312-21.312zM789.302 554.694c-11.75 0-21.31 9.532-21.31 21.312s9.56 21.31 21.31 21.31c11.812 0 21.376-9.53 21.376-21.31s-9.562-21.312-21.376-21.312zM618.684 618.692c-11.812 0-21.374 9.532-21.374 21.312s9.56 21.312 21.374 21.312c11.75 0 21.312-9.532 21.312-21.312s-9.562-21.312-21.312-21.312zM533.326 490.68c-11.782 0-21.326 9.546-21.326 21.328s9.544 21.328 21.326 21.328c11.796 0 21.36-9.546 21.36-21.328s-9.562-21.328-21.36-21.328zM533.326 554.694c-11.782 0-21.326 9.532-21.326 21.312s9.544 21.31 21.326 21.31c11.796 0 21.36-9.53 21.36-21.31s-9.562-21.312-21.36-21.312zM533.326 618.692c-11.782 0-21.326 9.532-21.326 21.312s9.544 21.312 21.326 21.312c11.796 0 21.36-9.532 21.36-21.312s-9.562-21.312-21.36-21.312zM703.994 618.692c-11.782 0-21.312 9.532-21.312 21.312s9.532 21.312 21.312 21.312 21.312-9.532 21.312-21.312-9.53-21.312-21.312-21.312zM789.302 618.692c-11.75 0-21.31 9.532-21.31 21.312s9.56 21.312 21.31 21.312c11.812 0 21.376-9.532 21.376-21.312s-9.562-21.312-21.376-21.312z" fill="#434A54" /><path d="M789.302 405.338H533.326c-11.782 0-21.326 9.562-21.326 21.342s9.544 21.328 21.326 21.328h255.976c11.812 0 21.376-9.546 21.376-21.328s-9.562-21.342-21.376-21.342z" fill="#5D9CEC" /><path d="M405.33 405.338H234.68c-11.782 0-21.344 9.562-21.344 21.342s9.562 21.328 21.344 21.328h170.65c11.782 0 21.344-9.546 21.344-21.328s-9.562-21.342-21.344-21.342z" fill="#434A54" /><path d="M234.68 426.682v170.634c0 11.812 9.546 21.376 21.328 21.376s21.326-9.562 21.326-21.376c0 11.812 9.562 21.376 21.344 21.376s21.328-9.562 21.328-21.376c0 11.812 9.546 21.376 21.326 21.376 11.782 0 21.344-9.562 21.344-21.376 0 11.812 9.546 21.376 21.328 21.376s21.326-9.562 21.326-21.376v-170.634H234.68z" fill="#F6BB42" /><path d="M597.31 789.312h-170.636c-11.796 0-21.344 9.562-21.344 21.376 0 11.748 9.546 21.31 21.344 21.31h170.636c11.81 0 21.374-9.562 21.374-21.31a21.366 21.366 0 0 0-21.374-21.376z" fill="#434A54" /></svg>