<?xml version="1.0" standalone="no"?><!DOCTYPE svg PUBLIC "-//W3C//DTD SVG 1.1//EN" "http://www.w3.org/Graphics/SVG/1.1/DTD/svg11.dtd"><svg class="icon" width="128px" height="128.00px" viewBox="0 0 1024 1024" version="1.1" xmlns="http://www.w3.org/2000/svg"><path d="M1009.36 469.322c-35.25-99.308-130.122-170.65-241.368-170.65H256.008c-111.248 0-206.12 71.342-241.368 170.65H0.016v106.668h0.876c10.876 131.184 121.152 234.68 255.118 234.68h511.984c133.964 0 244.242-103.496 255.118-234.68h0.876v-106.668h-14.628z" fill="#7F4545" /><path d="M767.992 234.674H256.008c-129.622 0-234.68 105.058-234.68 234.648 0 129.606 105.06 234.664 234.68 234.664h511.984c129.622 0 234.68-105.058 234.68-234.664 0-129.59-105.058-234.648-234.68-234.648z" fill="#A0D468" /><path d="M767.992 725.298H256.008C114.856 725.298 0.016 610.49 0.016 469.322c0-141.15 114.84-255.992 255.992-255.992h511.984c141.152 0 255.992 114.842 255.992 255.992 0 141.168-114.84 255.976-255.992 255.976zM256.008 255.986c-117.622 0-213.306 95.714-213.306 213.336 0 117.606 95.684 213.354 213.306 213.354h511.984c117.622 0 213.304-95.748 213.304-213.354 0-117.622-95.684-213.336-213.304-213.336H256.008z" fill="#A85D5D" /><path d="M426.69 469.322c0 94.232-76.436 170.668-170.682 170.668-94.248 0-170.682-76.436-170.682-170.668 0-94.246 76.436-170.65 170.682-170.65 94.246 0 170.682 76.404 170.682 170.65z" fill="#ED5564" /><path d="M373.098 333.826l-17.344-13.842-57.06-21.312h-42.686v170.65l120.684-120.684zM135.326 589.99l120.682 50v-170.668zM120.512 352.232l-13.812 17.344-21.374 57.092v42.654h170.682l-120.682-120.684zM376.692 589.99l49.998-120.668h-170.682z" fill="#434A54" /><path d="M298.694 469.322c0 23.562-19.124 42.656-42.686 42.656s-42.686-19.094-42.686-42.656c0-23.56 19.124-42.654 42.686-42.654s42.686 19.094 42.686 42.654z" fill="#434A54" /><path d="M256.008 533.32c-35.312 0-63.998-28.716-63.998-63.998 0-35.28 28.686-63.998 63.998-63.998 35.31 0 63.998 28.718 63.998 63.998 0 35.282-28.686 63.998-63.998 63.998z m0-85.34c-11.75 0-21.312 9.592-21.312 21.342 0 11.782 9.562 21.344 21.312 21.344 11.75 0 21.312-9.562 21.312-21.344 0-11.75-9.562-21.342-21.312-21.342z" fill="#FFCE54" /><path d="M895.988 341.326c0-11.78-9.562-21.342-21.312-21.342H490.688c-11.812 0-21.374 9.562-21.374 21.342 0 0.156 0.062 0.312 0.062 0.438h-0.062v255.102h0.062c0 0.188-0.062 0.312-0.062 0.438a21.366 21.366 0 0 0 21.374 21.376h383.988c11.75 0 21.312-9.562 21.312-21.376v-255.54-0.438z m-127.996 21.344h85.308v85.31h-85.308v-85.31z m-170.684 213.32H512v-85.324h85.308v85.324z m0-128.01H512v-85.31h85.308v85.31z m127.996 128.01h-85.308v-85.324h85.308v85.324z m0-128.01h-85.308v-85.31h85.308v85.31z m42.688 42.686h85.308v85.324h-85.308v-85.324z" fill="#F5F7FA" /><path d="M548.438 420.418c-8.344 8.312-21.876 8.312-30.188 0-8.312-8.344-8.312-21.844 0-30.186 8.312-8.312 21.844-8.312 30.188 0 8.312 8.342 8.312 21.842 0 30.186zM591.058 441.762c-8.312 8.312-21.812 8.312-30.122 0a21.274 21.274 0 0 1 0-30.188c8.308-8.344 21.808-8.344 30.122 0a21.274 21.274 0 0 1 0 30.188z" fill="#ED5564" /><path d="M825.738 569.742c-8.312 8.31-21.808 8.31-30.184 0-8.312-8.312-8.312-21.812 0-30.172 8.376-8.344 21.872-8.344 30.184 0 8.312 8.36 8.312 21.86 0 30.172zM825.738 441.762c-8.312 8.312-21.808 8.312-30.184 0-8.312-8.344-8.312-21.844 0-30.188 8.376-8.344 21.872-8.344 30.184 0s8.312 21.844 0 30.188z" fill="#5D9CEC" /><path d="M697.742 548.43c-8.312 8.312-21.808 8.312-30.184 0-8.312-8.36-8.312-21.858 0-30.202 8.376-8.312 21.872-8.312 30.184 0 8.312 8.344 8.312 21.842 0 30.202z" fill="#AC92EB" /><path d="M256.008 661.3c-105.872 0-191.994-86.124-191.994-191.978 0-105.872 86.122-191.994 191.994-191.994s191.994 86.124 191.994 191.994c0 105.856-86.122 191.978-191.994 191.978z m0-341.316c-82.342 0-149.308 66.998-149.308 149.338 0 82.358 66.966 149.356 149.308 149.356 82.34 0 149.308-66.998 149.308-149.356 0-82.34-66.966-149.338-149.308-149.338z" fill="#FFCE54" /></svg>