<?xml version="1.0" standalone="no"?><!DOCTYPE svg PUBLIC "-//W3C//DTD SVG 1.1//EN" "http://www.w3.org/Graphics/SVG/1.1/DTD/svg11.dtd"><svg class="icon" width="128px" height="128.00px" viewBox="0 0 1024 1024" version="1.1" xmlns="http://www.w3.org/2000/svg"><path d="M897.458 772.71l-3.624-1.062c-52.938-14.188-70.844-27.876-94.402-36.812-83.594-31.876-105.344-54.81-110.906-65.654a10.372 10.372 0 0 1-0.532-1.218l-0.688-97.09-198.272-2.25-198.244 2.25-0.688 97.09c-0.188 0.406-0.312 0.812-0.532 1.218-5.562 10.844-27.312 33.78-110.902 65.654-23.562 8.938-41.5 22.624-94.434 36.812l-3.624 1.062C32.424 788.646 0.02 833.332 0.02 883.768v140.212h978.062v-140.212c-0.004-50.436-32.442-95.122-80.624-111.058z" fill="#434A54" /><path d="M566.152 1023.982h-151.274l27.312-191.994h93.092z" fill="#DA4453" /><path d="M853.332 895.988h170.652v63.996h-170.652z" fill="#5D9CEC" /><path d="M853.332 831.988h170.652v64h-170.652z" fill="#FFCE54" /><path d="M853.332 768.46h170.652v63.996h-170.652z" fill="#5D9CEC" /><path d="M853.332 704.46h170.652v64h-170.652z" fill="#A0D468" /><path d="M853.332 640.464h170.652v63.996h-170.652z" fill="#AC92EB" /><path d="M661.34 895.988h170.648v63.996H661.34z" fill="#A0D468" /><path d="M661.34 831.988h170.648v64H661.34z" fill="#ED5564" /><path d="M661.34 768.46h170.648v63.996H661.34z" fill="#AC92EB" /><path d="M853.332 959.984h170.652v63.998h-170.652z" fill="#ED5564" /><path d="M661.34 959.984h170.648v63.998H661.34z" fill="#48CFAD" /><path d="M535.594 831.988h-93.092l-38.78-213.336h170.65z" fill="#ED5564" /><path d="M290.444 561.154l-0.344 106.808 93.904 100.03 105.028-41.782zM687.648 561.154l0.344 106.808-93.902 100.03-105.058-41.782z" fill="#656D78" /><path d="M764.148 382.972c0 178.744-170.402 343.238-275.116 343.238-104.684 0-275.084-164.494-275.084-343.238S337.1 86.294 489.032 86.294s275.116 117.934 275.116 296.678z" fill="#EAC6BB" /><path d="M631.028 101.762S625.684 54.2 682.652 19.984c24.122-14.5-361.49-83.216-458.268 160.432-36.342 91.56-9.468 226.274-9.468 226.274l83.81-150.276s91.31 21.342 190.306 21.342c98.996 0 193.648-21.342 193.648-21.342l81.468 126.996s31.282-121.902-3.782-202.712c-35.062-80.81-129.338-78.936-129.338-78.936z" fill="#965353" /></svg>