<?xml version="1.0" standalone="no"?><!DOCTYPE svg PUBLIC "-//W3C//DTD SVG 1.1//EN" "http://www.w3.org/Graphics/SVG/1.1/DTD/svg11.dtd"><svg class="icon" width="128px" height="128.00px" viewBox="0 0 1024 1024" version="1.1" xmlns="http://www.w3.org/2000/svg"><path d="M983.734 312.726c-25.782-60.966-62.684-115.714-109.714-162.744-47-47-101.778-83.904-162.714-109.716C648.184 13.58 581.122 0.016 512 0.016c-69.108 0-136.166 13.562-199.29 40.25-60.966 25.812-115.73 62.716-162.746 109.716-46.998 47.03-83.918 101.778-109.7 162.744C13.564 375.848 0.016 442.91 0.016 512c0 69.12 13.546 136.182 40.25 199.304 25.78 60.968 62.702 115.714 109.7 162.746 47.014 47 101.778 83.934 162.746 109.714 63.124 26.688 130.182 40.218 199.29 40.218 69.122 0 136.184-13.532 199.304-40.218 60.938-25.782 115.714-62.714 162.714-109.714 47.032-47.032 83.934-101.778 109.714-162.746 26.688-63.122 40.25-130.184 40.25-199.304 0-69.09-13.562-136.152-40.25-199.274z" fill="#FFCE54" /><path d="M813.676 210.324C733.118 129.732 625.964 85.358 512 85.358s-221.102 44.374-301.694 124.964C129.732 290.914 85.342 398.066 85.342 512c0 113.964 44.39 221.116 124.964 301.706 80.59 80.594 187.728 124.964 301.694 124.964s221.118-44.372 301.676-124.964c80.594-80.59 124.996-187.742 124.996-301.706 0-113.934-44.402-221.086-124.996-301.676z" fill="#ED5564" /><path d="M348.646 906.394c51.092 21.188 106.372 32.278 163.354 32.278v-426.64l-163.354 394.362zM675.372 117.638c-51.124-21.186-106.376-32.28-163.372-32.28v426.674l163.372-394.394zM675.372 906.394c51.09-21.156 98.028-52.406 138.304-92.688L512 512.032l163.372 394.362z" fill="#434A54" /><path d="M348.646 117.638c-51.108 21.156-98.044 52.404-138.34 92.686L512 512.032 348.646 117.638z" fill="#434A54" /><path d="M906.394 675.372c21.152-51.094 32.278-106.372 32.278-163.37H512l394.394 163.37z" fill="#A0D468" /><path d="M117.606 348.662C96.436 399.754 85.342 455.034 85.342 512H512L117.606 348.662zM906.394 348.662c-21.156-51.124-52.406-98.028-92.718-138.338L512 512l394.394-163.338zM117.606 675.372c21.17 51.122 52.42 98.058 92.7 138.336L512 512 117.606 675.372z" fill="#434A54" /><path d="M701.868 512.032c0 104.838-84.996 189.866-189.868 189.866s-189.884-85.028-189.884-189.866c0-104.872 85.014-189.9 189.884-189.9s189.868 85.028 189.868 189.9z" fill="#FFCE54" /><path d="M697.742 271.102c-8.312 8.342-21.84 8.342-30.184 0-8.312-8.312-8.312-21.844 0-30.156 8.344-8.344 21.872-8.344 30.184 0 8.312 8.312 8.312 21.844 0 30.156z" fill="#E6E9ED" /><path d="M512 639.996c-11.78 0-21.328-9.532-21.328-21.312V405.348c0-11.782 9.546-21.342 21.328-21.342s21.328 9.562 21.328 21.342v213.336c0 11.78-9.546 21.312-21.328 21.312z" fill="#434A54" /><path d="M618.684 533.344H405.332a21.32 21.32 0 0 1-21.328-21.342c0-11.75 9.546-21.312 21.328-21.312h213.352c11.75 0 21.312 9.562 21.312 21.312 0 11.81-9.562 21.342-21.312 21.342z" fill="#434A54" /><path d="M512 448.002c-35.296 0-63.998 28.716-63.998 63.998 0 35.312 28.702 63.996 63.998 63.996 35.312 0 63.996-28.684 63.996-63.996 0-35.28-28.684-63.998-63.996-63.998z" fill="#656D78" /></svg>