<?xml version="1.0" standalone="no"?><!DOCTYPE svg PUBLIC "-//W3C//DTD SVG 1.1//EN" "http://www.w3.org/Graphics/SVG/1.1/DTD/svg11.dtd"><svg class="icon" width="128px" height="128.00px" viewBox="0 0 1024 1024" version="1.1" xmlns="http://www.w3.org/2000/svg"><path d="M1024 810.656c0 23.562-19.062 42.688-42.624 42.688H42.688C19.124 853.344 0 834.218 0 810.656V213.344c0-23.562 19.124-42.688 42.688-42.688h938.688c23.562 0 42.624 19.124 42.624 42.688v597.312z" fill="#48CFAD" /><path d="M298.688 704c-70.562 0-128-57.406-128-128 0-70.562 57.438-128 128-128h426.688c70.562 0 128 57.438 128 128 0 70.594-57.438 128-128 128H298.688z" fill="#656D78" /><path d="M830.938 470.406c-28.188-28.218-65.688-43.75-105.562-43.75H298.688c-39.876 0-77.376 15.532-105.594 43.75S149.376 536.124 149.376 576c0 39.906 15.5 77.406 43.718 105.594 28.218 28.218 65.718 43.75 105.594 43.75h426.688c39.876 0 77.376-15.532 105.562-43.75 28.218-28.188 43.75-65.688 43.75-105.594 0-39.876-15.532-77.376-43.75-105.594z m-105.562 212.25H298.686C239.782 682.656 192 634.906 192 576s47.782-106.656 106.688-106.656h426.688C784.25 469.344 832 517.094 832 576s-47.75 106.656-106.624 106.656z" fill="#37BC9B" /><path d="M725.376 469.344h-104.438C593.25 496.468 576 534.25 576 576s17.25 79.532 44.938 106.656h104.438C784.25 682.656 832 634.906 832 576s-47.75-106.656-106.624-106.656z" fill="#656D78" /><path d="M597.376 576c0-44.468 22.782-83.718 57.312-106.656h-62.562c-23.406 29.218-37.438 66.282-37.438 106.656s14.032 77.438 37.438 106.656h62.562c-34.532-22.938-57.312-62.188-57.312-106.656z" fill="#434A54" /><path d="M725.376 661.344C678.312 661.344 640 623.062 640 576s38.312-85.344 85.376-85.344c47.032 0 85.312 38.282 85.312 85.344s-38.282 85.344-85.312 85.344z" fill="#CCD1D9" /><path d="M725.376 469.344c-58.938 0-106.688 47.75-106.688 106.656s47.75 106.656 106.688 106.656C784.25 682.656 832 634.906 832 576s-47.75-106.656-106.624-106.656z m0 170.656c-35.312 0-64-28.718-64-64s28.688-64 64-64c35.25 0 64 28.718 64 64s-28.752 64-64 64z" fill="#E6E9ED" /><path d="M746.688 512c0 11.782-9.562 21.344-21.312 21.344-11.812 0-21.376-9.562-21.376-21.344s9.562-21.344 21.376-21.344c11.748 0 21.312 9.562 21.312 21.344zM746.688 640c0 11.782-9.562 21.344-21.312 21.344-11.812 0-21.376-9.562-21.376-21.344s9.562-21.344 21.376-21.344c11.748 0 21.312 9.562 21.312 21.344zM695.188 515.656c8.312 8.344 8.312 21.844 0 30.188-8.312 8.312-21.844 8.312-30.188 0-8.312-8.344-8.312-21.844 0-30.188 8.344-8.312 21.876-8.312 30.188 0zM785.688 606.156a21.332 21.332 0 0 1 0 30.188c-8.312 8.344-21.812 8.344-30.156 0s-8.344-21.844 0-30.188c8.344-8.312 21.844-8.312 30.156 0zM661.376 554.656c11.75 0 21.312 9.562 21.312 21.344s-9.562 21.344-21.312 21.344c-11.812 0-21.376-9.562-21.376-21.344s9.562-21.344 21.376-21.344zM789.376 554.656c11.75 0 21.312 9.562 21.312 21.344s-9.562 21.344-21.312 21.344c-11.812 0-21.376-9.562-21.376-21.344s9.562-21.344 21.376-21.344zM665 606.188c8.344-8.344 21.876-8.344 30.188 0 8.312 8.312 8.312 21.812 0 30.156s-21.844 8.344-30.188 0c-8.312-8.344-8.312-21.844 0-30.156zM755.532 515.656c8.344-8.312 21.844-8.312 30.156 0a21.332 21.332 0 0 1 0 30.188c-8.312 8.312-21.812 8.312-30.156 0a21.332 21.332 0 0 1 0-30.188z" fill="#E6E9ED" /><path d="M298.688 469.344C239.782 469.344 192 517.094 192 576s47.782 106.656 106.688 106.656h104.408C430.812 655.532 448 617.75 448 576s-17.188-79.532-44.906-106.656h-104.406z" fill="#656D78" /><path d="M426.688 576c0 44.468-22.812 83.718-57.312 106.656h62.532c23.406-29.218 37.468-66.282 37.468-106.656s-14.062-77.438-37.468-106.656h-62.532c34.5 22.938 57.312 62.188 57.312 106.656z" fill="#434A54" /><path d="M298.688 661.344c-47.062 0-85.312-38.282-85.312-85.344s38.25-85.344 85.312-85.344S384 528.938 384 576s-38.25 85.344-85.312 85.344z" fill="#CCD1D9" /><path d="M298.688 469.344C239.782 469.344 192 517.094 192 576s47.782 106.656 106.688 106.656 106.688-47.75 106.688-106.656-47.782-106.656-106.688-106.656z m0 170.656c-35.282 0-64-28.718-64-64s28.718-64 64-64c35.312 0 64 28.718 64 64s-28.688 64-64 64z" fill="#E6E9ED" /><path d="M320 512c0 11.782-9.532 21.344-21.312 21.344s-21.312-9.562-21.312-21.344 9.532-21.344 21.312-21.344S320 500.218 320 512zM320 640c0 11.782-9.532 21.344-21.312 21.344s-21.312-9.562-21.312-21.344 9.532-21.344 21.312-21.344S320 628.218 320 640zM268.5 515.656a21.332 21.332 0 0 1 0 30.188c-8.312 8.312-21.812 8.312-30.156 0a21.332 21.332 0 0 1 0-30.188c8.344-8.312 21.844-8.312 30.156 0zM359.032 606.156c8.344 8.344 8.344 21.844 0 30.188s-21.844 8.344-30.156 0a21.332 21.332 0 0 1 0-30.188c8.312-8.312 21.812-8.312 30.156 0zM234.688 554.656c11.782 0 21.312 9.562 21.312 21.344s-9.532 21.344-21.312 21.344-21.312-9.562-21.312-21.344 9.53-21.344 21.312-21.344zM362.688 554.656c11.782 0 21.312 9.562 21.312 21.344s-9.532 21.344-21.312 21.344-21.312-9.562-21.312-21.344 9.53-21.344 21.312-21.344zM238.344 606.188c8.344-8.344 21.844-8.344 30.156 0 8.376 8.312 8.376 21.812 0 30.156-8.312 8.344-21.812 8.344-30.156 0s-8.344-21.844 0-30.156zM328.876 515.656c8.312-8.312 21.812-8.312 30.156 0a21.332 21.332 0 0 1 0 30.188c-8.344 8.312-21.844 8.312-30.156 0a21.332 21.332 0 0 1 0-30.188z" fill="#E6E9ED" /><path d="M810.688 384H213.376L128 170.656h768z" fill="#E6E9ED" /><path d="M960 256c0 11.782-9.5 21.344-21.312 21.344-11.75 0-21.312-9.562-21.312-21.344s9.562-21.344 21.312-21.344c11.812 0 21.312 9.562 21.312 21.344zM960 768c0 11.782-9.5 21.344-21.312 21.344-11.75 0-21.312-9.562-21.312-21.344s9.562-21.344 21.312-21.344c11.812 0 21.312 9.562 21.312 21.344zM106.688 256c0 11.782-9.562 21.344-21.312 21.344C73.562 277.344 64 267.782 64 256s9.562-21.344 21.376-21.344c11.748 0 21.312 9.562 21.312 21.344z" fill="#37BC9B" /><path d="M704 256H320c-11.75 0-21.312 9.562-21.312 21.344s9.562 21.312 21.312 21.312h384c11.812 0 21.376-9.532 21.376-21.312S715.812 256 704 256z" fill="#CCD1D9" /><path d="M106.688 768c0 11.782-9.562 21.344-21.312 21.344C73.562 789.344 64 779.782 64 768s9.562-21.344 21.376-21.344c11.748 0 21.312 9.562 21.312 21.344z" fill="#37BC9B" /></svg>