<?xml version="1.0" standalone="no"?><!DOCTYPE svg PUBLIC "-//W3C//DTD SVG 1.1//EN" "http://www.w3.org/Graphics/SVG/1.1/DTD/svg11.dtd"><svg class="icon" width="128px" height="128.00px" viewBox="0 0 1024 1024" version="1.1" xmlns="http://www.w3.org/2000/svg"><path d="M703.994 170.69h-127.998a21.332 21.332 0 0 1-21.342-21.344c0-11.78 9.562-21.312 21.342-21.312h127.998c11.78 0 21.31 9.532 21.31 21.312 0 11.812-9.53 21.344-21.31 21.344z" fill="#ED5564" /><path d="M575.996 170.69a21.298 21.298 0 0 1-15.092-6.25c-8.344-8.312-8.344-21.844 0-30.156l42.654-42.686c8.344-8.312 21.844-8.312 30.188 0 8.312 8.344 8.312 21.844 0 30.188L591.058 164.44a21.276 21.276 0 0 1-15.062 6.25z" fill="#DA4453" /><path d="M618.652 128.034H512c-11.782 0-21.344-9.562-21.344-21.342S500.218 85.378 512 85.378h106.652c11.782 0 21.344 9.532 21.344 21.312s-9.562 21.344-21.344 21.344z" fill="#ED5564" /><path d="M512 256.032c-11.782 0-21.344-9.562-21.344-21.344V64.036c0-11.78 9.562-21.342 21.344-21.342s21.312 9.562 21.312 21.342v170.652c0 11.78-9.53 21.344-21.312 21.344z" fill="#434A54" /><path d="M661.308 341.34H362.66c-11.782 0-21.312 9.562-21.312 21.342v247.82c0 11.75 9.532 21.312 21.312 21.312h298.648c11.782 0 21.342-9.562 21.342-21.312v-247.82c0-11.78-9.56-21.342-21.342-21.342z" fill="#F6BB42" /><path d="M682.65 213.344h-63.998c-11.782 0-21.344 9.562-21.344 21.344v21.344h-21.312v-21.344c0-11.782-9.56-21.344-21.342-21.344h-85.34c-11.782 0-21.312 9.562-21.312 21.344v21.344h-21.344v-21.344c0-11.782-9.562-21.344-21.312-21.344h-63.998c-11.81 0-21.342 9.562-21.342 21.344v127.996c0 11.782 9.532 21.344 21.342 21.344h341.302c11.782 0 21.344-9.562 21.344-21.344v-127.996c0-11.782-9.562-21.344-21.344-21.344z" fill="#FFCE54" /><path d="M789.304 981.306h-554.64c-11.782 0-21.312-8.624-21.312-19.25V615.254c0-10.624 9.532-19.25 21.312-19.25h554.64c11.782 0 21.342 8.624 21.342 19.25v346.802c0 10.626-9.56 19.25-21.342 19.25z" fill="#ED5564" /><path d="M512 746.688c-47.124 0-85.342 38.188-85.342 85.31v149.308h170.65v-149.308c0-47.122-38.184-85.31-85.308-85.31z" fill="#434A54" /><path d="M533.312 895.996v-42.686h63.996v-21.312c0-7.376-0.938-14.498-2.688-21.31h-61.308v-61.312c-6.812-1.812-13.968-2.688-21.312-2.688-7.376 0-14.532 0.876-21.344 2.688v61.312h-61.31a85.45 85.45 0 0 0-2.688 21.31v21.312h63.998v42.686h-63.998v42.624h63.998v42.686h42.656V938.62h63.996v-42.624h-63.996z" fill="#656D78" /><path d="M512 597.316c-11.782 0-21.344-9.56-21.344-21.31v-127.98c0-11.812 9.562-21.344 21.344-21.344s21.312 9.532 21.312 21.344v127.98c0 11.75-9.53 21.31-21.312 21.31z" fill="#FFCE54" /><path d="M789.304 554.694h-42.656c0 11.75-9.562 21.312-21.344 21.312s-21.31-9.562-21.31-21.312h-42.686c0 11.75-9.532 21.312-21.312 21.312s-21.344-9.562-21.344-21.312h-42.656c0 11.75-9.56 21.312-21.342 21.312s-21.342-9.562-21.342-21.312h-42.656c0 11.75-9.562 21.312-21.342 21.312-11.782 0-21.312-9.562-21.312-21.312h-42.656c0 11.75-9.56 21.312-21.342 21.312s-21.344-9.562-21.344-21.312h-42.654c0 11.75-9.562 21.312-21.344 21.312s-21.312-9.562-21.312-21.312h-42.686c-11.782 0-21.312 19.062-21.312 42.624s9.532 42.688 21.312 42.688h554.64c11.782 0 21.342-19.124 21.342-42.688 0-23.562-9.56-42.624-21.342-42.624z" fill="#DA4453" /><path d="M234.664 981.306H21.358c-11.782 0-21.342-9.562-21.342-21.312V576.006c0-11.812 9.56-21.312 21.342-21.312h213.306c11.782 0 21.344 9.5 21.344 21.312v383.988c0 11.75-9.562 21.312-21.344 21.312zM1002.64 981.306H789.304c-11.782 0-21.344-9.562-21.344-21.312V576.006c0-11.812 9.562-21.312 21.344-21.312H1002.64c11.782 0 21.312 9.5 21.312 21.312v383.988c0.002 11.75-9.53 21.312-21.312 21.312z" fill="#FFCE54" /><path d="M959.956 512.024H831.96c-11.782 0-21.312-9.562-21.312-21.344v-85.34a21.3 21.3 0 0 1 21.312-21.312h127.996c11.782 0 21.342 9.53 21.342 21.312v85.34c-0.002 11.78-9.562 21.344-21.342 21.344z m-106.656-42.688h85.344V426.68H853.3v42.656z" fill="#434A54" /><path d="M1002.64 426.682H789.304a21.298 21.298 0 0 1-19.312-12.282 21.348 21.348 0 0 1 2.938-22.716l106.652-127.998a21.394 21.394 0 0 1 16.376-7.656c6.344 0 12.344 2.812 16.406 7.656l106.058 127.31a21.12 21.12 0 0 1 5.562 14.342c0 11.782-9.53 21.344-21.344 21.344z" fill="#ED5564" /><path d="M192.01 512.024H64.014c-11.782 0-21.344-9.562-21.344-21.344v-85.34c0-11.782 9.562-21.312 21.344-21.312h127.996c11.78 0 21.342 9.53 21.342 21.312v85.34c0 11.78-9.562 21.344-21.342 21.344z m-106.654-42.688h85.31V426.68H85.356v42.656z" fill="#434A54" /><path d="M234.696 426.682H21.358a21.298 21.298 0 0 1-19.312-12.282 21.348 21.348 0 0 1 2.906-22.716l106.686-127.998c4.032-4.844 10.032-7.656 16.376-7.656s12.342 2.812 16.404 7.656l106.06 127.31a21.264 21.264 0 0 1 5.562 14.342c0 11.782-9.564 21.344-21.344 21.344z" fill="#ED5564" /><path d="M0.016 895.996h255.992v-42.686H149.354V554.694H106.668v298.616H0.016zM767.992 895.996h255.992v-42.686H917.3V554.694h-42.656v298.616h-106.652z" fill="#F6BB42" /><path d="M234.04 485.492a21.326 21.326 0 0 0-20.688-16.156H42.67a21.326 21.326 0 0 0-20.688 16.156L0.67 570.818a21.29 21.29 0 0 0 3.876 18.312 21.274 21.274 0 0 0 16.812 8.186H234.696c11.782 0 21.344-9.56 21.344-21.31 0-2.188-0.344-4.312-0.938-6.312l-21.062-84.202zM1023.046 569.694l-21.062-84.202a21.326 21.326 0 0 0-20.688-16.156h-170.65c-9.78 0-18.31 6.656-20.686 16.156l-21.344 85.326c-1.594 6.376-0.156 13.124 3.876 18.312s10.25 8.186 16.812 8.186H1002.64c11.812 0 21.344-9.56 21.344-21.31 0-2.188-0.312-4.312-0.938-6.312z" fill="#F6BB42" /></svg>