<?xml version="1.0" standalone="no"?><!DOCTYPE svg PUBLIC "-//W3C//DTD SVG 1.1//EN" "http://www.w3.org/Graphics/SVG/1.1/DTD/svg11.dtd"><svg class="icon" width="128px" height="128.00px" viewBox="0 0 1024 1024" version="1.1" xmlns="http://www.w3.org/2000/svg"><path d="M565.302 64.018H351.998c-11.782 0-21.326 9.562-21.326 21.344v853.306c0 11.75 9.544 21.312 21.326 21.312h213.304c11.812 0 21.376-9.562 21.376-21.312V85.362c0-11.782-9.562-21.344-21.376-21.344z" fill="#FFD2A6" /><path d="M330.672 149.36h256.006v42.652H330.672zM330.672 234.684h256.006v42.67H330.672zM330.672 320.008h256.006v42.67H330.672zM330.672 405.348h256.006v42.654H330.672zM330.672 490.672h256.006v42.67H330.672zM330.672 575.996h256.006v42.688H330.672zM330.672 661.336h256.006v42.654H330.672zM330.672 746.678h256.006v42.654H330.672zM330.672 831.986h256.006v42.686H330.672z" fill="#EAAD7A" /><path d="M565.302 64.018h-21.312c11.782 0 21.312 9.562 21.312 21.344v853.306c0 11.75-9.532 21.312-21.312 21.312h21.312c11.812 0 21.376-9.562 21.376-21.312V85.362c0-11.782-9.562-21.344-21.376-21.344zM351.998 64.018h21.328c-11.782 0-21.328 9.562-21.328 21.344v853.306c0 11.75 9.546 21.312 21.328 21.312h-21.328c-11.782 0-21.326-9.562-21.326-21.312V85.362c0-11.782 9.544-21.344 21.326-21.344z" fill="#FFFFFF" opacity=".2" /><path d="M778.668 554.686c-11.812 0-21.374-9.562-21.374-21.344V85.362c0-11.782 9.56-21.344 21.374-21.344 11.75 0 21.312 9.562 21.312 21.344v447.98c0 11.782-9.562 21.344-21.312 21.344z" fill="#E6E9ED" /><path d="M898.852 474.172a21.37 21.37 0 0 0-17.718-4.422l-102.464 20.5-102.496-20.5a21.416 21.416 0 0 0-17.716 4.422 21.344 21.344 0 0 0-7.782 16.5v85.324a21.32 21.32 0 0 0 7.782 16.5 21.37 21.37 0 0 0 17.716 4.438l102.496-20.5 102.464 20.5a23.7 23.7 0 0 0 4.156 0.406c4.906 0 9.688-1.688 13.562-4.844a21.348 21.348 0 0 0 7.812-16.5v-85.324c0-6.39-2.874-12.438-7.812-16.5z" fill="#EC5564" /><path d="M778.668 917.328H138.68c-11.782 0-21.344 9.528-21.344 21.34v63.998c0 11.75 9.562 21.312 21.344 21.312h639.988c11.75 0 21.312-9.562 21.312-21.312v-63.998c0-11.812-9.562-21.34-21.312-21.34z" fill="#965353" /><path d="M714.672 981.322c-11.812 0-21.376 9.532-21.376 21.344v21.312h42.686v-21.312c0-11.812-9.56-21.344-21.31-21.344zM629.3 981.322c-11.748 0-21.31 9.532-21.31 21.344v21.312h42.684v-21.312c0-11.812-9.56-21.344-21.374-21.344zM543.99 981.322c-11.78 0-21.326 9.532-21.326 21.344v21.312h42.638v-21.312c0-11.812-9.53-21.344-21.312-21.344zM458.666 981.322a21.332 21.332 0 0 0-21.342 21.344v21.312h42.668v-21.312c0-11.812-9.544-21.344-21.326-21.344zM373.326 981.322c-11.782 0-21.328 9.532-21.328 21.344v21.312h42.67v-21.312c0-11.812-9.56-21.344-21.342-21.344zM288.002 981.322c-11.782 0-21.328 9.532-21.328 21.344v21.312h42.654v-21.312c0-11.812-9.544-21.344-21.326-21.344zM202.676 981.322a21.33 21.33 0 0 0-21.342 21.344v21.312h42.67v-21.312c0-11.812-9.546-21.344-21.328-21.344z" fill="#7F4545" /><path d="M778.668 0.022H138.68c-11.782 0-21.344 9.56-21.344 21.342v63.998c0 11.782 9.562 21.326 21.344 21.326h639.988c11.75 0 21.312-9.544 21.312-21.326V21.364c0-11.782-9.562-21.342-21.312-21.342z" fill="#965353" /></svg>