<?xml version="1.0" standalone="no"?><!DOCTYPE svg PUBLIC "-//W3C//DTD SVG 1.1//EN" "http://www.w3.org/Graphics/SVG/1.1/DTD/svg11.dtd"><svg class="icon" width="128px" height="128.00px" viewBox="0 0 1024 1024" version="1.1" xmlns="http://www.w3.org/2000/svg"><path d="M864.432 194.224L176.71 191.694C68.696 207.318 0.384 230.382 0.384 256.098c0 47.11 229.152 85.312 511.802 85.312 282.682 0 511.802-38.202 511.802-85.312 0.002-24.358-61.28-46.342-159.556-61.874z" fill="#CBD0D8" /><path d="M234.958 320.066c0 35.342-28.64 63.982-63.966 63.982-35.328 0-63.968-28.64-63.968-63.982 0-35.328 28.64-63.968 63.968-63.968 35.326 0 63.966 28.64 63.966 63.968z" fill="#FB6D51" /><path d="M170.992 298.754c0 11.766-9.546 21.312-21.328 21.312-11.766 0-21.328-9.546-21.328-21.312 0-11.782 9.562-21.328 21.328-21.328 11.78 0 21.328 9.546 21.328 21.328z" fill="#FFFFFF" opacity=".2" /><path d="M320.27 320.066c0 35.342-28.64 63.982-63.984 63.982-35.328 0-63.968-28.64-63.968-63.982 0-35.328 28.64-63.968 63.968-63.968 35.342 0 63.984 28.64 63.984 63.968z" fill="#E8563F" /><path d="M256.286 298.754c0 11.766-9.546 21.312-21.328 21.312-11.764 0-21.312-9.546-21.312-21.312 0-11.782 9.546-21.328 21.312-21.328 11.782 0 21.328 9.546 21.328 21.328z" fill="#FFFFFF" opacity=".2" /><path d="M405.564 320.066c0 35.342-28.64 63.982-63.968 63.982-35.342 0-63.982-28.64-63.982-63.982 0-35.328 28.64-63.968 63.982-63.968 35.328 0 63.968 28.64 63.968 63.968z" fill="#FB6D51" /><path d="M341.596 298.754c0 11.766-9.546 21.312-21.328 21.312s-21.328-9.546-21.328-21.312c0-11.782 9.546-21.328 21.328-21.328s21.328 9.546 21.328 21.328z" fill="#FFFFFF" opacity=".2" /><path d="M490.86 320.066c0 35.342-28.64 63.982-63.966 63.982-35.328 0-63.984-28.64-63.984-63.982 0-35.328 28.656-63.968 63.984-63.968 35.326 0 63.966 28.64 63.966 63.968z" fill="#E8563F" /><path d="M426.892 298.754c0 11.766-9.546 21.312-21.328 21.312s-21.328-9.546-21.328-21.312c0-11.782 9.546-21.328 21.328-21.328s21.328 9.546 21.328 21.328z" fill="#FFFFFF" opacity=".2" /><path d="M576.186 320.066c0 35.342-28.656 63.982-63.998 63.982-35.328 0-63.968-28.64-63.968-63.982 0-35.328 28.64-63.968 63.968-63.968 35.342 0 63.998 28.64 63.998 63.968z" fill="#FB6D51" /><path d="M512.188 298.754c0 11.766-9.546 21.312-21.328 21.312-11.764 0-21.312-9.546-21.312-21.312 0-11.782 9.546-21.328 21.312-21.328 11.78 0 21.328 9.546 21.328 21.328z" fill="#FFFFFF" opacity=".2" /><path d="M661.466 320.066c0 35.342-28.656 63.982-63.968 63.982-35.344 0-63.982-28.64-63.982-63.982 0-35.328 28.638-63.968 63.982-63.968 35.312 0 63.968 28.64 63.968 63.968z" fill="#E8563F" /><path d="M597.498 298.754c0 11.766-9.562 21.312-21.312 21.312-11.812 0-21.344-9.546-21.344-21.312 0-11.782 9.532-21.328 21.344-21.328 11.75 0 21.312 9.546 21.312 21.328z" fill="#FFFFFF" opacity=".2" /><path d="M746.744 320.066c0 35.342-28.624 63.982-63.934 63.982-35.344 0-64-28.64-64-63.982 0-35.328 28.656-63.968 64-63.968 35.312 0 63.934 28.64 63.934 63.968z" fill="#FB6D51" /><path d="M682.81 298.754c0 11.766-9.562 21.312-21.344 21.312s-21.344-9.546-21.344-21.312c0-11.782 9.562-21.328 21.344-21.328s21.344 9.546 21.344 21.328z" fill="#FFFFFF" opacity=".2" /><path d="M832.056 320.066c0 35.342-28.624 63.982-63.968 63.982-35.342 0-63.966-28.64-63.966-63.982 0-35.328 28.624-63.968 63.966-63.968 35.344 0 63.968 28.64 63.968 63.968z" fill="#E8563F" /><path d="M768.088 298.754c0 11.766-9.532 21.312-21.344 21.312-11.748 0-21.31-9.546-21.31-21.312 0-11.782 9.562-21.328 21.31-21.328 11.812 0 21.344 9.546 21.344 21.328z" fill="#FFFFFF" opacity=".2" /><path d="M277.614 234.77c0 35.342-28.64 63.984-63.968 63.984-35.342 0-63.984-28.64-63.984-63.984 0-35.328 28.64-63.968 63.984-63.968 35.328 0 63.968 28.642 63.968 63.968z" fill="#FB6D51" /><path d="M213.646 213.444c0 11.782-9.546 21.328-21.328 21.328s-21.328-9.546-21.328-21.328c0-11.766 9.546-21.312 21.328-21.312s21.328 9.546 21.328 21.312z" fill="#FFFFFF" opacity=".2" /><path d="M362.91 234.77c0 35.342-28.64 63.984-63.968 63.984s-63.984-28.64-63.984-63.984c0-35.328 28.656-63.968 63.984-63.968s63.968 28.642 63.968 63.968z" fill="#E8563F" /><path d="M298.942 213.444c0 11.782-9.546 21.328-21.328 21.328-11.766 0-21.328-9.546-21.328-21.328 0-11.766 9.562-21.312 21.328-21.312 11.78-0.002 21.328 9.546 21.328 21.312z" fill="#FFFFFF" opacity=".2" /><path d="M448.22 234.77c0 35.342-28.64 63.984-63.984 63.984-35.328 0-63.966-28.64-63.966-63.984 0-35.328 28.64-63.968 63.966-63.968 35.344 0 63.984 28.642 63.984 63.968z" fill="#FB6D51" /><path d="M384.236 213.444c0 11.782-9.546 21.328-21.328 21.328-11.766 0-21.312-9.546-21.312-21.328 0-11.766 9.546-21.312 21.312-21.312 11.782-0.002 21.328 9.546 21.328 21.312z" fill="#FFFFFF" opacity=".2" /><path d="M533.516 234.77c0 35.342-28.64 63.984-63.968 63.984-35.342 0-63.984-28.64-63.984-63.984 0-35.328 28.64-63.968 63.984-63.968 35.328 0 63.968 28.642 63.968 63.968z" fill="#E8563F" /><path d="M469.548 213.444c0 11.782-9.546 21.328-21.328 21.328s-21.328-9.546-21.328-21.328c0-11.766 9.546-21.312 21.328-21.312s21.328 9.546 21.328 21.312z" fill="#FFFFFF" opacity=".2" /><path d="M618.81 234.77c0 35.342-28.624 63.984-63.968 63.984-35.326 0-63.982-28.64-63.982-63.984 0-35.328 28.656-63.968 63.982-63.968 35.344 0 63.968 28.642 63.968 63.968z" fill="#FB6D51" /><path d="M554.842 213.444a21.314 21.314 0 0 1-21.326 21.328c-11.782 0-21.328-9.546-21.328-21.328 0-11.766 9.546-21.312 21.328-21.312 11.794-0.002 21.326 9.546 21.326 21.312z" fill="#FFFFFF" opacity=".2" /><path d="M704.122 234.77c0 35.342-28.654 63.984-63.998 63.984-35.312 0-63.938-28.64-63.938-63.984 0-35.328 28.624-63.968 63.938-63.968 35.342 0 63.998 28.642 63.998 63.968z" fill="#E8563F" /><path d="M640.124 213.444c0 11.782-9.532 21.328-21.312 21.328-11.75 0-21.312-9.546-21.312-21.328 0-11.766 9.562-21.312 21.312-21.312 11.78-0.002 21.312 9.546 21.312 21.312z" fill="#FFFFFF" opacity=".2" /><path d="M789.432 234.77c0 35.342-28.656 63.984-63.998 63.984-35.31 0-63.966-28.64-63.966-63.984 0-35.328 28.656-63.968 63.966-63.968 35.342 0 63.998 28.642 63.998 63.968z" fill="#FB6D51" /><path d="M725.434 213.444c0 11.782-9.562 21.328-21.312 21.328-11.782 0-21.31-9.546-21.31-21.328 0-11.766 9.53-21.312 21.31-21.312 11.75-0.002 21.312 9.546 21.312 21.312z" fill="#FFFFFF" opacity=".2" /><path d="M405.564 149.476c0 35.328-28.64 63.968-63.968 63.968-35.342 0-63.982-28.64-63.982-63.968s28.64-63.968 63.982-63.968c35.328 0 63.968 28.64 63.968 63.968z" fill="#FB6D51" /><path d="M341.596 128.148c0 11.782-9.546 21.328-21.328 21.328s-21.328-9.546-21.328-21.328c0-11.764 9.546-21.328 21.328-21.328s21.328 9.562 21.328 21.328z" fill="#FFFFFF" opacity=".2" /><path d="M490.86 149.476c0 35.328-28.64 63.968-63.966 63.968-35.328 0-63.984-28.64-63.984-63.968s28.656-63.968 63.984-63.968c35.326 0 63.966 28.64 63.966 63.968z" fill="#E8563F" /><path d="M426.892 128.148c0 11.782-9.546 21.328-21.328 21.328s-21.328-9.546-21.328-21.328c0-11.764 9.546-21.328 21.328-21.328s21.328 9.562 21.328 21.328z" fill="#FFFFFF" opacity=".2" /><path d="M576.186 149.476c0 35.328-28.656 63.968-63.998 63.968-35.328 0-63.968-28.64-63.968-63.968s28.64-63.968 63.968-63.968c35.342 0 63.998 28.64 63.998 63.968z" fill="#FB6D51" /><path d="M512.188 128.148c0 11.782-9.546 21.328-21.328 21.328-11.764 0-21.312-9.546-21.312-21.328 0-11.764 9.546-21.328 21.312-21.328 11.78 0 21.328 9.562 21.328 21.328z" fill="#FFFFFF" opacity=".2" /><path d="M661.466 149.476c0 35.328-28.656 63.968-63.968 63.968-35.344 0-63.982-28.64-63.982-63.968s28.638-63.968 63.982-63.968c35.312 0 63.968 28.64 63.968 63.968z" fill="#E8563F" /><path d="M597.498 128.148c0 11.782-9.562 21.328-21.312 21.328-11.812 0-21.344-9.546-21.344-21.328 0-11.764 9.532-21.328 21.344-21.328 11.75 0 21.312 9.562 21.312 21.328z" fill="#FFFFFF" opacity=".2" /><path d="M746.744 149.476c0 35.328-28.624 63.968-63.934 63.968-35.344 0-64-28.64-64-63.968s28.656-63.968 64-63.968c35.312 0 63.934 28.64 63.934 63.968z" fill="#FB6D51" /><path d="M682.81 128.148c0 11.782-9.562 21.328-21.344 21.328s-21.344-9.546-21.344-21.328c0-11.764 9.562-21.328 21.344-21.328s21.344 9.562 21.344 21.328z" fill="#FFFFFF" opacity=".2" /><path d="M874.712 234.77c0 35.342-28.656 63.984-63.968 63.984-35.344 0-64-28.64-64-63.984 0-35.328 28.656-63.968 64-63.968 35.312 0 63.968 28.642 63.968 63.968z" fill="#E8563F" /><path d="M810.744 213.444c0 11.782-9.562 21.328-21.312 21.328-11.812 0-21.344-9.546-21.344-21.328 0-11.766 9.532-21.312 21.344-21.312 11.75-0.002 21.312 9.546 21.312 21.312z" fill="#FFFFFF" opacity=".2" /><path d="M917.368 320.066c0 35.342-28.624 63.982-63.998 63.982-35.312 0-63.938-28.64-63.938-63.982 0-35.328 28.624-63.968 63.938-63.968 35.374 0 63.998 28.64 63.998 63.968z" fill="#FB6D51" /><path d="M853.37 298.754c0 11.766-9.532 21.312-21.312 21.312-11.75 0-21.312-9.546-21.312-21.312 0-11.782 9.562-21.328 21.312-21.328 11.78 0 21.312 9.546 21.312 21.328z" fill="#FFFFFF" opacity=".2" /><path d="M511.812 341.41C229.146 341.41 0.01 303.208 0.01 256.098V853.18c0 47.124 229.136 85.312 511.802 85.312 282.65 0 511.802-38.188 511.802-85.312V256.098c0.002 47.11-229.152 85.312-511.802 85.312z" fill="#E5E8EC" /><path d="M490.876 938.43c6.938 0.062 13.922 0.062 20.938 0.062 7.266 0 14.5 0 21.704-0.062-0.046-11.75-9.578-21.25-21.328-21.25s-21.284 9.5-21.314 21.25zM661.466 912.492c-11.782 0-21.344 9.562-21.344 21.344 0 0.656 0.062 1.312 0.124 1.968 14.438-0.624 28.624-1.376 42.532-2.188-0.092-11.686-9.592-21.124-21.312-21.124zM789.432 902.492c-11.812 0-21.344 9.562-21.344 21.344 0 1.094 0.094 2.156 0.282 3.188a1725.828 1725.828 0 0 0 42.312-4.594c-0.75-11.126-9.938-19.938-21.25-19.938zM917.368 883.68c-11.782 0-21.312 9.562-21.312 21.312 0 1.562 0.156 3.032 0.438 4.468a748.732 748.732 0 0 0 41.688-9.062c-2.128-9.562-10.628-16.718-20.814-16.718zM362.91 912.492c-11.718 0-21.218 9.5-21.312 21.188 13.922 0.812 28.11 1.532 42.546 2.124a20.4 20.4 0 0 0 0.094-1.968c-0.002-11.782-9.548-21.344-21.328-21.344zM234.958 902.492c-11.328 0-20.578 8.876-21.25 20.062 13.61 1.624 27.734 3.124 42.312 4.562 0.156-1.062 0.266-2.188 0.266-3.282 0-11.78-9.546-21.342-21.328-21.342zM107.024 883.68c-10.266 0-18.828 7.25-20.86 16.906 12.688 3.156 26.624 6.156 41.672 9.032 0.328-1.5 0.5-3.032 0.5-4.624-0.002-11.752-9.546-21.314-21.312-21.314z" fill="#CBD0D8" /><path d="M1023.616 298.848c-10.5 45.562-235.434 81.982-511.428 81.982C229.538 380.814 0.4 342.628 0.4 295.52H0.384v515.038c0 47.124 229.152 85.31 511.802 85.31 282.682 0 511.802-38.188 511.802-85.31a14.64 14.64 0 0 0-0.376-3.312V298.848z" fill="#FECD57" /><path d="M640.124 745.902c-47.312 0-298.714-34.782-298.714-34.782l-126.248 34.124 41.984-111.31-43.312-142.592 127.576 75.748s219.87-34.436 298.714-34.436c78.874 0 169.684 69.592 169.684 106.624-0.002 37.03-122.372 106.624-169.684 106.624z" fill="#FB6D51" /><path d="M682.81 617.936c0 11.812-9.562 21.344-21.344 21.344s-21.344-9.532-21.344-21.344c0-11.75 9.562-21.312 21.344-21.312s21.344 9.562 21.344 21.312z" fill="#424953" /><path d="M469.158 341.41c7.14 0 14.25-0.032 21.328-0.078C217.724 339.456 0.01 302.02 0.01 256.098v34.14c79.014 30.126 259.338 51.172 469.148 51.172zM980.958 290.238V853.18c0 45.938-217.714 83.376-490.474 85.25 7.078 0.062 14.188 0.062 21.328 0.062 282.65 0 511.802-38.188 511.802-85.312V256.098c0.002 12.14-15.218 23.688-42.656 34.14z" fill="#FFFFFF" opacity=".2" /></svg>