<?xml version="1.0" standalone="no"?><!DOCTYPE svg PUBLIC "-//W3C//DTD SVG 1.1//EN" "http://www.w3.org/Graphics/SVG/1.1/DTD/svg11.dtd"><svg class="icon" width="128px" height="128.00px" viewBox="0 0 1024 1024" version="1.1" xmlns="http://www.w3.org/2000/svg"><path d="M640.006 725.336a21.28 21.28 0 0 0-21.312 21.312c0 62.686-24.438 121.624-68.748 165.932-44.328 44.342-103.264 68.748-165.916 68.748-62.686 0-121.622-24.406-165.932-68.748-44.342-44.308-68.748-103.246-68.748-165.932V277.352c0-62.686 24.406-121.622 68.748-165.932 44.312-44.342 103.246-68.748 165.932-68.748 62.654 0 121.59 24.404 165.916 68.748 44.31 44.31 68.748 103.246 68.748 165.932 0 11.782 9.5 21.312 21.312 21.312 11.748 0 21.31-9.53 21.31-21.312C661.316 124.17 537.18 0.016 384.028 0.016c-153.182 0-277.334 124.154-277.334 277.336v469.296c0 153.184 124.152 277.336 277.334 277.336 153.152 0 277.288-124.152 277.288-277.336 0-11.78-9.562-21.312-21.31-21.312z" fill="#FC6E51" /><path d="M832 0.016c-47.126 0-85.312 38.218-85.312 85.34 0 47.126 38.188 85.31 85.312 85.31 47.124 0 85.306-38.186 85.306-85.31 0-47.122-38.182-85.34-85.306-85.34z m0 127.996c-23.5 0-42.688-19.126-42.688-42.656 0-23.53 19.188-42.684 42.688-42.684 23.498 0 42.686 19.156 42.686 42.684 0 23.532-19.188 42.656-42.686 42.656z" fill="#E9573F" /></svg>