<?xml version="1.0" standalone="no"?><!DOCTYPE svg PUBLIC "-//W3C//DTD SVG 1.1//EN" "http://www.w3.org/Graphics/SVG/1.1/DTD/svg11.dtd"><svg class="icon" width="128px" height="128.00px" viewBox="0 0 1024 1024" version="1.1" xmlns="http://www.w3.org/2000/svg"><path d="M746.68 319.944c-11.782 0-21.344-9.532-21.344-21.312V191.946c0-11.78 9.562-21.312 21.344-21.312s21.312 9.532 21.312 21.312v106.684a21.3 21.3 0 0 1-21.312 21.314z" fill="#FFCE54" /><path d="M789.336 255.946h-85.342c-11.75 0-21.312-9.532-21.312-21.312 0-11.812 9.562-21.344 21.312-21.344h85.342a21.33 21.33 0 0 1 21.342 21.344c0 11.78-9.56 21.312-21.342 21.312z" fill="#FFCE54" /><path d="M405.346 298.63h-63.998v-63.998c0-11.782-9.53-21.344-21.342-21.344h-85.31c-11.782 0-21.344 9.562-21.344 21.344v63.998H149.354c-11.782 0-21.342 9.532-21.342 21.312v85.34c0 11.78 9.56 21.342 21.342 21.342h63.998v149.308c0 11.782 9.562 21.342 21.344 21.342h85.31c11.812 0 21.342-9.56 21.342-21.342v-149.308h63.998c11.782 0 21.344-9.562 21.344-21.342v-85.34c0-11.78-9.564-21.312-21.344-21.312z" fill="#DA4453" /><path d="M405.346 298.63H149.354c-11.782 0-21.342 9.532-21.342 21.312v85.34c0 11.78 9.56 21.342 21.342 21.342h255.992c11.782 0 21.344-9.562 21.344-21.342v-85.34c0-11.78-9.564-21.312-21.344-21.312z" fill="#ED5564" /><path d="M405.376 682.62H149.354a21.416 21.416 0 0 1-18.154-10.124 21.34 21.34 0 0 1-0.906-20.75l42.654-85.342a21.344 21.344 0 0 1 19.062-11.782h170.682c8.062 0 15.468 4.562 19.062 11.782l42.186 84.374a20.982 20.982 0 0 1 2.782 10.5c-0.002 11.78-9.564 21.342-21.346 21.342z" fill="#434A54" /><path d="M469.346 639.934H85.356c-11.782 0-21.342 9.562-21.342 21.344v85.34c0 11.782 9.56 21.312 21.342 21.312h383.99c11.78 0 21.342-9.532 21.342-21.312v-85.34c0-11.782-9.564-21.344-21.342-21.344z" fill="#656D78" /><path d="M746.68 277.288c-94.122 0-170.684 76.56-170.684 170.652v298.678c0 11.782 9.562 21.312 21.344 21.312h298.648c11.812 0 21.344-9.532 21.344-21.312V447.94c0-94.092-76.56-170.652-170.652-170.652z" fill="#ED5564" /><path d="M938.676 639.934H554.686c-11.782 0-21.342 9.562-21.342 21.344v85.34c0 11.782 9.56 21.312 21.342 21.312h383.99c11.78 0 21.31-9.532 21.31-21.312v-85.34c0-11.782-9.53-21.344-21.31-21.344z" fill="#656D78" /><path d="M64.014 853.146a21.3 21.3 0 0 1-21.312-21.312V575.936a21.3 21.3 0 0 1 21.312-21.312c11.81 0 21.342 9.532 21.342 21.312v255.898c0 11.782-9.532 21.312-21.342 21.312zM959.986 853.146c-11.75 0-21.31-9.532-21.31-21.312V575.936c0-11.782 9.56-21.312 21.31-21.312 11.812 0 21.342 9.532 21.342 21.312v255.898c0 11.782-9.53 21.312-21.342 21.312zM170.698 853.366c-11.782 0-21.344-9.532-21.344-21.312v-128.122c0-11.782 9.562-21.312 21.344-21.312s21.312 9.532 21.312 21.312v128.122a21.3 21.3 0 0 1-21.312 21.312zM256.008 853.366c-11.75 0-21.312-9.532-21.312-21.312v-128.122c0-11.782 9.562-21.312 21.312-21.312 11.812 0 21.342 9.532 21.342 21.312v128.122c0 11.78-9.53 21.312-21.342 21.312zM341.348 853.366c-11.78 0-21.342-9.532-21.342-21.312v-128.122c0-11.782 9.562-21.312 21.342-21.312 11.782 0 21.344 9.532 21.344 21.312v128.122c0 11.78-9.564 21.312-21.344 21.312zM426.69 853.366c-11.782 0-21.344-9.532-21.344-21.312v-128.122c0-11.782 9.562-21.312 21.344-21.312s21.312 9.532 21.312 21.312v128.122a21.3 21.3 0 0 1-21.312 21.312zM512 853.366c-11.75 0-21.312-9.532-21.312-21.312v-128.122c0-11.782 9.562-21.312 21.312-21.312 11.812 0 21.344 9.532 21.344 21.312v128.122c0 11.78-9.532 21.312-21.344 21.312zM597.34 853.366c-11.782 0-21.344-9.532-21.344-21.312v-128.122c0-11.782 9.562-21.312 21.344-21.312s21.344 9.532 21.344 21.312v128.122c0 11.78-9.562 21.312-21.344 21.312zM682.682 853.366c-11.78 0-21.342-9.532-21.342-21.312v-128.122c0-11.782 9.562-21.312 21.342-21.312a21.3 21.3 0 0 1 21.312 21.312v128.122a21.3 21.3 0 0 1-21.312 21.312zM767.992 853.366c-11.75 0-21.312-9.532-21.312-21.312v-128.122c0-11.782 9.562-21.312 21.312-21.312 11.812 0 21.344 9.532 21.344 21.312v128.122c0 11.78-9.532 21.312-21.344 21.312zM853.332 853.366c-11.78 0-21.342-9.532-21.342-21.312v-128.122c0-11.782 9.562-21.312 21.342-21.312 11.782 0 21.344 9.532 21.344 21.312v128.122c0 11.78-9.562 21.312-21.344 21.312z" fill="#F6BB42" /><path d="M64.014 597.278c-35.282 0-63.998-28.716-63.998-63.996 0-35.282 28.716-64 63.998-64 35.31 0 63.998 28.718 63.998 64 0 35.278-28.688 63.996-63.998 63.996zM959.986 597.278c-35.28 0-63.998-28.716-63.998-63.996 0-35.282 28.718-64 63.998-64 35.31 0 63.998 28.718 63.998 64 0 35.278-28.688 63.996-63.998 63.996z" fill="#FFCE54" /></svg>