<?xml version="1.0" standalone="no"?><!DOCTYPE svg PUBLIC "-//W3C//DTD SVG 1.1//EN" "http://www.w3.org/Graphics/SVG/1.1/DTD/svg11.dtd"><svg class="icon" width="128px" height="128.00px" viewBox="0 0 1024 1024" version="1.1" xmlns="http://www.w3.org/2000/svg"><path d="M917.308 0.014H106.692L171.19 158.68l340.834-3.86 340.788 3.86L917.308 0.014z" fill="#35BB9B" /><path d="M298.686 21.358c11.782 0 21.344-9.562 21.344-21.342h-42.688c0 11.778 9.562 21.342 21.344 21.342zM384.028 21.358c11.748 0 21.31-9.562 21.31-21.342h-42.654c0 11.778 9.53 21.342 21.344 21.342zM213.344 21.358c11.782 0 21.344-9.562 21.344-21.342H192.032c0 11.778 9.53 21.342 21.312 21.342zM469.338 21.358c11.78 0 21.342-9.562 21.342-21.342h-42.654c0 11.778 9.53 21.342 21.312 21.342zM554.696 21.358c11.748 0 21.31-9.562 21.31-21.342h-42.67c0 11.778 9.562 21.342 21.36 21.342zM640.004 21.358c11.75 0 21.312-9.562 21.312-21.342h-42.624c0 11.778 9.5 21.342 21.312 21.342zM725.314 21.358c11.812 0 21.376-9.562 21.376-21.342h-42.686c0 11.778 9.562 21.342 21.31 21.342zM810.686 21.358c11.75 0 21.312-9.562 21.312-21.342h-42.688c0 11.778 9.564 21.342 21.376 21.342z" fill="#46CEAD" /><path d="M106.692 1023.984H917.31l-64.498-158.652-340.788 3.844-340.834-3.844-64.498 158.652z" fill="#35BB9B" /><path d="M725.314 1002.676c-11.748 0-21.31 9.532-21.31 21.308h42.686c0-11.776-9.564-21.308-21.376-21.308zM640.004 1002.676a21.28 21.28 0 0 0-21.312 21.308h42.624c0-11.776-9.562-21.308-21.312-21.308zM810.686 1002.676c-11.812 0-21.376 9.532-21.376 21.308h42.688c0-11.776-9.562-21.308-21.312-21.308zM554.696 1002.676c-11.796 0-21.36 9.532-21.36 21.308h42.67c0-11.776-9.562-21.308-21.31-21.308zM469.338 1002.676a21.298 21.298 0 0 0-21.312 21.308h42.654c0-11.776-9.562-21.308-21.342-21.308zM384.028 1002.676c-11.812 0-21.344 9.532-21.344 21.308h42.654c0-11.776-9.562-21.308-21.31-21.308zM298.686 1002.676c-11.782 0-21.344 9.532-21.344 21.308h42.688c0-11.776-9.564-21.308-21.344-21.308zM213.344 1002.676a21.298 21.298 0 0 0-21.312 21.308h42.656c0-11.776-9.564-21.308-21.344-21.308z" fill="#46CEAD" /><path d="M874.686 106.684H149.346S106.692 256.008 106.692 512s42.654 405.332 42.654 405.332H874.686s42.624-149.34 42.624-405.332-42.624-405.316-42.624-405.316z" fill="#46CEAD" /><path d="M106.692 512c0 54.812 1.968 104.714 5.032 149.34h800.586c3.062-44.624 5-94.528 5-149.34s-1.938-104.716-5-149.324H111.722c-3.062 44.608-5.03 94.512-5.03 149.324z" fill="#E5E8EC" /><path d="M512.024 254.68c-141.902 0-257.336 115.434-257.336 257.32 0 141.872 115.434 257.336 257.336 257.336 141.856 0 257.29-115.464 257.29-257.336-0.002-141.886-115.436-257.32-257.29-257.32z" fill="#F4F6F9" /><path d="M639.316 448H384.684c-11.782 0-21.344 9.546-21.344 21.344 0 11.782 9.562 21.328 21.344 21.328h254.632c11.812 0 21.376-9.546 21.376-21.328 0-11.796-9.564-21.344-21.376-21.344zM575.694 533.344h-127.356c-11.782 0-21.312 9.546-21.312 21.344 0 11.75 9.532 21.312 21.312 21.312h127.356c11.75 0 21.312-9.562 21.312-21.312 0-11.798-9.562-21.344-21.312-21.344z" fill="#424953" /></svg>