<?xml version="1.0" standalone="no"?><!DOCTYPE svg PUBLIC "-//W3C//DTD SVG 1.1//EN" "http://www.w3.org/Graphics/SVG/1.1/DTD/svg11.dtd"><svg class="icon" width="128px" height="128.00px" viewBox="0 0 1024 1024" version="1.1" xmlns="http://www.w3.org/2000/svg"><path d="M874.664 362.656C874.664 162.376 712.29 0 511.96 0 311.71 0 149.336 162.376 149.336 362.656c0 11.782 9.5 21.344 21.312 21.344 11.75 0 21.312-9.562 21.312-21.344 0-43.218 8.5-85.124 25.124-124.532 16.124-38.124 39.188-72.344 68.624-101.75 29.376-29.406 63.624-52.468 101.75-68.594 39.376-16.656 81.312-25.124 124.5-25.124 43.266 0 85.14 8.468 124.578 25.124 38.124 16.124 72.312 39.188 101.75 68.594 29.376 29.406 52.438 63.624 68.562 101.75 16.688 39.406 25.124 81.312 25.124 124.532s-8.438 85.124-25.124 124.562c-16.124 38.094-39.188 72.312-68.562 101.718-29.438 29.406-63.624 52.468-101.75 68.594-39.438 16.688-81.312 25.124-124.578 25.124h-21.312v320c0 11.782 9.562 21.344 21.312 21.344 11.828 0 21.39-9.562 21.39-21.344V724.25c190.254-11.126 341.316-168.5 341.316-361.594z" fill="#D770AD" /><path d="M661.352 853.312H362.648c-11.812 0-21.312 9.562-21.312 21.344S350.836 896 362.648 896h298.704c11.75 0 21.312-9.562 21.312-21.344s-9.562-21.344-21.312-21.344z" fill="#EC87C0" /></svg>