<?xml version="1.0" standalone="no"?><!DOCTYPE svg PUBLIC "-//W3C//DTD SVG 1.1//EN" "http://www.w3.org/Graphics/SVG/1.1/DTD/svg11.dtd"><svg class="icon" width="128px" height="128.00px" viewBox="0 0 1024 1024" version="1.1" xmlns="http://www.w3.org/2000/svg"><path d="M276.896 152.006V21.384H106.242v130.622S0.01 343.596 0.01 381.908v516.24c0 10.562 8.562 19.156 19.156 19.156H364.8c10.594 0 19.172-8.594 19.172-19.156v-516.24c0-38.312-107.076-229.902-107.076-229.902z" fill="#E5E8EC" /><path d="M0.01 448h383.118v298.652H0.01z" fill="#4FC0E8" /><path d="M42.666 898.148v-516.24c0-38.312 106.232-229.902 106.232-229.902V21.384H106.242v130.622S0.01 343.596 0.01 381.908v516.24c0 10.562 8.562 19.156 19.156 19.156h42.656c-10.578 0-19.156-8.594-19.156-19.156z" opacity=".05" /><path d="M106.242 128.038h0.422c11.782 0 21.328-9.53 21.328-21.312s-9.546-21.344-21.328-21.344c-0.14 0-0.282 0.032-0.422 0.032v42.624zM276.896 128.038V85.382c-11.782 0-21.328 9.562-21.328 21.344s9.546 21.312 21.328 21.312z" fill="#CBD0D8" /><path d="M255.568 619.28c0 35.342-28.656 63.998-64 63.998-35.342 0-63.998-28.656-63.998-63.998 0-35.344 55.952-107.874 63.998-107.874s64 72.53 64 107.874zM1023.896 341.346c0-11.78-9.532-21.312-21.344-21.312a21.26 21.26 0 0 0-18.782 11.25L834.462 608.56l37.562 20.218 149.278-277.182a21.668 21.668 0 0 0 2.594-10.25z" fill="#E5E8EC" /><path d="M469.282 618.654c0 35.342-28.64 63.998-63.984 63.998s-64-28.656-64-63.998c0-35.344 28.656-63.998 64-63.998s63.984 28.654 63.984 63.998z" fill="#FB6D51" /><path d="M490.624 575.998m-63.998 0a63.998 63.998 0 1 0 127.996 0 63.998 63.998 0 1 0-127.996 0Z" fill="#AC92EA" /><path d="M639.936 618.654c0 35.342-28.656 63.998-64 63.998s-63.982-28.656-63.982-63.998c0-35.344 28.638-63.998 63.982-63.998s64 28.654 64 63.998z" fill="#9ED36A" /><path d="M725.246 575.998c0 35.344-28.624 63.998-63.998 63.998-35.312 0-63.968-28.654-63.968-63.998 0-35.342 28.656-63.998 63.968-63.998 35.374 0 63.998 28.656 63.998 63.998z" fill="#FECD57" /><path d="M810.588 618.654c0 35.342-28.656 63.998-64 63.998-35.342 0-63.964-28.656-63.964-63.998 0-35.344 28.624-63.998 63.964-63.998 35.344 0 64 28.654 64 63.998z" fill="#ED5564" /><path d="M895.932 575.998c0 35.344-28.688 63.998-64 63.998-35.376 0-64-28.654-64-63.998 0-35.342 28.624-63.998 64-63.998 35.312 0 64 28.656 64 63.998z" fill="#4FC0E8" /><path d="M917.242 618.654m-63.998 0a63.998 63.998 0 1 0 127.996 0 63.998 63.998 0 1 0-127.996 0Z" fill="#AC92EA" /><path d="M301.082 618.654v59.092c0 145.28 89.17 270.152 216.762 324.87h289.37c127.592-54.716 216.778-179.59 216.778-324.87v-59.092H301.082z" fill="#46CEAD" /><path d="M1020.74 725.308c1.938-13.968 3-28.218 3.188-42.656h-722.8c0.204 14.438 1.282 28.688 3.188 42.656H1020.74z" fill="#35BB9B" /><path d="M277.302 21.384H106.664c-11.782 0-21.344 9.562-21.344 21.342s9.562 21.312 21.344 21.312h170.638c11.78 0 21.342-9.532 21.342-21.312 0-11.78-9.562-21.342-21.342-21.342z" fill="#CBD0D8" /><path d="M981.302 618.654v59.092c0 145.28-89.152 270.152-216.746 324.87h42.656c127.592-54.716 216.778-179.59 216.778-324.87v-59.092h-42.688z" fill="#FFFFFF" opacity=".2" /></svg>