<?xml version="1.0" standalone="no"?><!DOCTYPE svg PUBLIC "-//W3C//DTD SVG 1.1//EN" "http://www.w3.org/Graphics/SVG/1.1/DTD/svg11.dtd"><svg class="icon" width="128px" height="128.00px" viewBox="0 0 1024 1024" version="1.1" xmlns="http://www.w3.org/2000/svg"><path d="M963.398 330.684c-1.624 0-3.282 0.124-4.968 0.376L512 373.246 65.54 331.058a33.14 33.14 0 0 0-4.938-0.376c-44.732 0-60.592 80.436-60.592 149.324 0 68.876 15.86 149.31 60.592 149.31 1.624 0 3.296-0.124 4.954-0.376l445.086-42.188 447.82 42.218c1.656 0.218 3.312 0.344 4.938 0.344 44.718 0 60.592-80.436 60.592-149.31-0.002-68.884-15.874-149.32-60.594-149.32z" fill="#CCD1D9" /><path d="M1009.368 376.278c-11.75-19.062-25.438-24.266-36.876-24.266-1.624 0-3.344 0.124-5.032 0.376L512 394.588 56.54 352.386a34.606 34.606 0 0 0-5.046-0.376c-11.422 0-25.108 5.204-36.842 24.266-7.688 21.592-12.016 48.542-13.75 75.606a21.846 21.846 0 0 0 14 6.704l495.194 42.672c0.64 0.062 1.266 0.078 1.906 0.078s1.266-0.016 1.906-0.078l495.21-42.672a21.92 21.92 0 0 0 14-6.704c-1.75-27.062-6.064-54.012-13.75-75.604z" fill="#AAB2BC" /><path d="M1018.43 412.292c-12-67.452-36.532-81.608-55.032-81.608-1.624 0-3.282 0.124-4.968 0.376L512 373.246 65.54 331.058a33.14 33.14 0 0 0-4.938-0.376c-18.5 0-43.044 14.156-55.014 81.608-1.046 5.89 0.438 11.936 4.078 16.686s9.094 7.766 15.062 8.282l485.396 42.672c0.624 0.046 1.25 0.078 1.876 0.078s1.25-0.032 1.86-0.078l485.414-42.672c5.968-0.516 11.406-3.532 15.062-8.282s5.124-10.794 4.094-16.684z" fill="#E6E9ED" /><path d="M448.048 536.492l-0.046 156.824L512 650.694l64 42.622v-156.87z" fill="#ED5564" /><path d="M597.312 480.008c0 47.124-38.188 85.312-85.312 85.312-47.124 0-85.326-38.188-85.326-85.312s38.204-85.326 85.326-85.326c47.124 0 85.312 38.2 85.312 85.326z" fill="#F6BB42" /><path d="M512 586.694c-58.81 0-106.67-47.874-106.67-106.686S453.19 373.34 512 373.34c58.812 0 106.688 47.856 106.688 106.668S570.812 586.694 512 586.694z m0-170.684c-35.294 0-63.998 28.702-63.998 63.998s28.704 64 63.998 64c35.312 0 64-28.704 64-64s-28.688-63.998-64-63.998z" fill="#FFCE54" /><path d="M512 480.008m-21.328 0a21.328 21.328 0 1 0 42.656 0 21.328 21.328 0 1 0-42.656 0Z" fill="#FFCE54" /></svg>