<?xml version="1.0" standalone="no"?><!DOCTYPE svg PUBLIC "-//W3C//DTD SVG 1.1//EN" "http://www.w3.org/Graphics/SVG/1.1/DTD/svg11.dtd"><svg class="icon" width="128px" height="128.00px" viewBox="0 0 1024 1024" version="1.1" xmlns="http://www.w3.org/2000/svg"><path d="M302.224 1002.644H0.012v-21.308c0-53.282 12.688-127.156 73.186-176.532 36.688-29.938 73.842-36.282 75.406-36.532l6.876 42.094c-4.282 0.75-102.31 19.504-112.03 149.624h258.776v42.654z" fill="#ED5564" /><path d="M874.648 789.336c-11.782 0-21.342-9.562-21.342-21.344v-21.34c0-11.782 9.56-21.312 21.342-21.312s21.344 9.532 21.344 21.312v21.34c0 11.782-9.562 21.344-21.344 21.344zM789.306 789.336c-11.782 0-21.312-9.562-21.312-21.344v-21.34c0-11.782 9.532-21.312 21.312-21.312s21.344 9.532 21.344 21.312v21.34c0 11.782-9.562 21.344-21.344 21.344zM703.994 789.336c-11.78 0-21.342-9.562-21.342-21.344v-21.34c0-11.782 9.562-21.312 21.342-21.312a21.3 21.3 0 0 1 21.312 21.312v21.34c0 11.782-9.53 21.344-21.312 21.344zM618.654 789.336c-11.782 0-21.344-9.562-21.344-21.344v-21.34c0-11.782 9.562-21.312 21.344-21.312s21.344 9.532 21.344 21.312v21.34c0 11.782-9.562 21.344-21.344 21.344zM533.312 789.336c-11.782 0-21.312-9.562-21.312-21.344v-21.34c0-11.782 9.532-21.312 21.312-21.312s21.342 9.532 21.342 21.312v21.34c0 11.782-9.56 21.344-21.342 21.344zM874.648 981.304c-11.782 0-21.342-9.562-21.342-21.344v-21.312c0-11.782 9.56-21.344 21.342-21.344s21.344 9.562 21.344 21.344v21.312c0 11.782-9.562 21.344-21.344 21.344zM950.086 799.242a21.3 21.3 0 0 1-15.094-6.25 21.332 21.332 0 0 1 0-30.188l15.062-15.058a21.33 21.33 0 0 1 30.186 0c8.344 8.312 8.344 21.808 0 30.152l-15.092 15.094a21.276 21.276 0 0 1-15.062 6.25zM1002.646 874.648h-21.344c-11.782 0-21.31-9.562-21.31-21.344s9.53-21.308 21.31-21.308h21.344c11.78 0 21.342 9.528 21.342 21.308s-9.562 21.344-21.342 21.344zM965.148 965.148a21.144 21.144 0 0 1-15.062-6.25l-15.094-15.062a21.332 21.332 0 0 1 0-30.188c8.312-8.312 21.844-8.344 30.156 0l15.092 15.094c8.344 8.312 8.344 21.844 0 30.156-4.156 4.188-9.624 6.25-15.092 6.25zM789.306 981.304c-11.782 0-21.312-9.562-21.312-21.344v-21.312c0-11.782 9.532-21.344 21.312-21.344s21.344 9.562 21.344 21.344v21.312c0 11.782-9.562 21.344-21.344 21.344zM703.994 981.304c-11.78 0-21.342-9.562-21.342-21.344v-21.312c0-11.782 9.562-21.344 21.342-21.344 11.782 0 21.312 9.562 21.312 21.344v21.312c0 11.782-9.53 21.344-21.312 21.344zM618.654 981.304c-11.782 0-21.344-9.562-21.344-21.344v-21.312c0-11.782 9.562-21.344 21.344-21.344 11.782 0 21.344 9.562 21.344 21.344v21.312c0 11.782-9.562 21.344-21.344 21.344zM533.312 981.304c-11.782 0-21.312-9.562-21.312-21.344v-21.312c0-11.782 9.532-21.344 21.312-21.344 11.812 0 21.342 9.562 21.342 21.344v21.312c0 11.782-9.56 21.344-21.342 21.344z" fill="#CCD1D9" /><path d="M895.992 746.652H469.314v213.34h426.678c28.468 0 55.25-11.094 75.404-31.25 20.156-20.156 31.25-46.938 31.25-75.438 0-58.812-47.842-106.652-106.654-106.652z" fill="#E6E9ED" /><path d="M490.658 874.648c-11.782 0-21.342-9.562-21.342-21.344s9.562-21.308 21.342-21.308h383.992c11.782 0 21.344 9.528 21.344 21.308s-9.562 21.344-21.344 21.344H490.658z" fill="#CCD1D9" /><path d="M748.712 93.26c-49.53-46.374-118.996-71.906-195.622-71.906-76.59 0-146.058 25.532-195.588 71.906-53.468 50.062-81.716 121.092-81.716 205.402 0 83.718 30.686 173.09 84.186 245.246 55.374 74.622 125.748 117.434 193.12 117.434 67.406 0 137.78-42.812 193.152-117.434 53.5-72.156 84.188-161.528 84.188-245.246 0-84.31-28.25-155.34-81.72-205.402z m-323.616-7.906c11.78 0 21.342 9.53 21.342 21.312s-9.562 21.344-21.342 21.344c-11.782 0-21.312-9.562-21.312-21.344s9.532-21.312 21.312-21.312z m21.344 106.654c0 11.782-9.532 21.344-21.312 21.344-11.812 0-21.344-9.562-21.344-21.344s9.532-21.344 21.344-21.344c11.78 0 21.312 9.562 21.312 21.344zM425.128 512c-11.812 0-21.344-9.562-21.344-21.344s9.532-21.312 21.344-21.312c11.78 0 21.312 9.532 21.312 21.312S436.908 512 425.128 512z m0-213.338c0-23.562 19.092-42.656 42.656-42.656 23.562 0 42.656 19.094 42.656 42.656s-19.094 42.686-42.656 42.686c-23.564 0-42.656-19.126-42.656-42.686z m83.78 298.682c-11.782 0-21.344-9.562-21.344-21.344s9.562-21.344 21.344-21.344c11.78 0 21.342 9.562 21.342 21.344s-9.562 21.344-21.342 21.344z m0-85.344c-11.782 0-21.344-9.562-21.344-21.344s9.562-21.312 21.344-21.312c11.78 0 21.342 9.532 21.342 21.312S520.688 512 508.908 512z m1.53-298.648c-11.782 0-21.312-9.562-21.312-21.344s9.532-21.344 21.312-21.344c11.78 0 21.342 9.562 21.342 21.344s-9.562 21.344-21.342 21.344z m85.342-42.688c11.782 0 21.312 9.562 21.312 21.344s-9.532 21.344-21.312 21.344-21.344-9.562-21.344-21.344 9.562-21.344 21.344-21.344z m0 426.68c-11.782 0-21.344-9.562-21.344-21.344s9.562-21.344 21.344-21.344 21.312 9.562 21.312 21.344-9.532 21.344-21.312 21.344z m0-85.344c-11.782 0-21.344-9.562-21.344-21.344s9.562-21.312 21.344-21.312 21.312 9.532 21.312 21.312S607.56 512 595.78 512z m0-213.338c0-23.562 19.094-42.656 42.656-42.656s42.686 19.094 42.686 42.656-19.124 42.686-42.686 42.686-42.656-19.126-42.656-42.686zM681.122 512c-11.782 0-21.342-9.562-21.342-21.344s9.56-21.312 21.342-21.312 21.31 9.532 21.31 21.312S692.902 512 681.122 512z m0-298.648c-11.782 0-21.342-9.562-21.342-21.344s9.56-21.344 21.342-21.344 21.31 9.562 21.31 21.344-9.53 21.344-21.31 21.344z m0-85.342c-11.782 0-21.342-9.562-21.342-21.344s9.56-21.312 21.342-21.312 21.31 9.53 21.31 21.312-9.53 21.344-21.31 21.344z" fill="#FFCE54" /><path d="M748.712 93.26c-49.53-46.374-118.996-71.906-195.622-71.906-76.59 0-146.058 25.532-195.588 71.906-53.468 50.062-81.716 121.092-81.716 205.402 0 83.718 30.686 173.09 84.186 245.246 55.374 74.622 125.748 117.434 193.12 117.434 67.406 0 137.78-42.812 193.152-117.434 53.5-72.156 84.188-161.528 84.188-245.246 0-84.31-28.25-155.34-81.72-205.402z m-323.616-7.906c11.78 0 21.342 9.53 21.342 21.312s-9.562 21.344-21.342 21.344c-11.782 0-21.312-9.562-21.312-21.344s9.532-21.312 21.312-21.312z m21.344 106.654c0 11.782-9.532 21.344-21.312 21.344-11.812 0-21.344-9.562-21.344-21.344s9.532-21.344 21.344-21.344c11.78 0 21.312 9.562 21.312 21.344zM425.128 512c-11.812 0-21.344-9.562-21.344-21.344s9.532-21.312 21.344-21.312c11.78 0 21.312 9.532 21.312 21.312S436.908 512 425.128 512z m0-213.338c0-23.562 19.092-42.656 42.656-42.656 23.562 0 42.656 19.094 42.656 42.656s-19.094 42.686-42.656 42.686c-23.564 0-42.656-19.126-42.656-42.686z m83.78 298.682c-11.782 0-21.344-9.562-21.344-21.344s9.562-21.344 21.344-21.344c11.78 0 21.342 9.562 21.342 21.344s-9.562 21.344-21.342 21.344z m0-85.344c-11.782 0-21.344-9.562-21.344-21.344s9.562-21.312 21.344-21.312c11.78 0 21.342 9.532 21.342 21.312S520.688 512 508.908 512z m1.53-298.648c-11.782 0-21.312-9.562-21.312-21.344s9.532-21.344 21.312-21.344c11.78 0 21.342 9.562 21.342 21.344s-9.562 21.344-21.342 21.344z m85.342-42.688c11.782 0 21.312 9.562 21.312 21.344s-9.532 21.344-21.312 21.344-21.344-9.562-21.344-21.344 9.562-21.344 21.344-21.344z m0 426.68c-11.782 0-21.344-9.562-21.344-21.344s9.562-21.344 21.344-21.344 21.312 9.562 21.312 21.344-9.532 21.344-21.312 21.344z m0-85.344c-11.782 0-21.344-9.562-21.344-21.344s9.562-21.312 21.344-21.312 21.312 9.532 21.312 21.312S607.56 512 595.78 512z m0-213.338c0-23.562 19.094-42.656 42.656-42.656s42.686 19.094 42.686 42.656-19.124 42.686-42.686 42.686-42.656-19.126-42.656-42.686zM681.122 512c-11.782 0-21.342-9.562-21.342-21.344s9.56-21.312 21.342-21.312 21.31 9.532 21.31 21.312S692.902 512 681.122 512z m0-298.648c-11.782 0-21.342-9.562-21.342-21.344s9.56-21.344 21.342-21.344 21.31 9.562 21.31 21.344-9.53 21.344-21.31 21.344z m0-85.342c-11.782 0-21.342-9.562-21.342-21.344s9.56-21.312 21.342-21.312 21.31 9.53 21.31 21.312-9.53 21.344-21.31 21.344z" fill="#FFCE54" /><path d="M748.712 93.26c-49.53-46.374-118.996-71.906-195.622-71.906-76.59 0-146.058 25.532-195.588 71.906-53.468 50.062-81.716 121.092-81.716 205.402 0 83.718 30.686 173.09 84.186 245.246 55.374 74.622 125.748 117.434 193.12 117.434 67.406 0 137.78-42.812 193.152-117.434 53.5-72.156 84.188-161.528 84.188-245.246 0-84.31-28.25-155.34-81.72-205.402z m-323.616-7.906c11.78 0 21.342 9.53 21.342 21.312s-9.562 21.344-21.342 21.344c-11.782 0-21.312-9.562-21.312-21.344s9.532-21.312 21.312-21.312z m21.344 106.654c0 11.782-9.532 21.344-21.312 21.344-11.812 0-21.344-9.562-21.344-21.344s9.532-21.344 21.344-21.344c11.78 0 21.312 9.562 21.312 21.344zM425.128 512c-11.812 0-21.344-9.562-21.344-21.344s9.532-21.312 21.344-21.312c11.78 0 21.312 9.532 21.312 21.312S436.908 512 425.128 512z m0-213.338c0-23.562 19.092-42.656 42.656-42.656 23.562 0 42.656 19.094 42.656 42.656s-19.094 42.686-42.656 42.686c-23.564 0-42.656-19.126-42.656-42.686z m83.78 298.682c-11.782 0-21.344-9.562-21.344-21.344s9.562-21.344 21.344-21.344c11.78 0 21.342 9.562 21.342 21.344s-9.562 21.344-21.342 21.344z m0-85.344c-11.782 0-21.344-9.562-21.344-21.344s9.562-21.312 21.344-21.312c11.78 0 21.342 9.532 21.342 21.312S520.688 512 508.908 512z m1.53-298.648c-11.782 0-21.312-9.562-21.312-21.344s9.532-21.344 21.312-21.344c11.78 0 21.342 9.562 21.342 21.344s-9.562 21.344-21.342 21.344z m85.342-42.688c11.782 0 21.312 9.562 21.312 21.344s-9.532 21.344-21.312 21.344-21.344-9.562-21.344-21.344 9.562-21.344 21.344-21.344z m0 426.68c-11.782 0-21.344-9.562-21.344-21.344s9.562-21.344 21.344-21.344 21.312 9.562 21.312 21.344-9.532 21.344-21.312 21.344z m0-85.344c-11.782 0-21.344-9.562-21.344-21.344s9.562-21.312 21.344-21.312 21.312 9.532 21.312 21.312S607.56 512 595.78 512z m0-213.338c0-23.562 19.094-42.656 42.656-42.656s42.686 19.094 42.686 42.656-19.124 42.686-42.686 42.686-42.656-19.126-42.656-42.686zM681.122 512c-11.782 0-21.342-9.562-21.342-21.344s9.56-21.312 21.342-21.312 21.31 9.532 21.31 21.312S692.902 512 681.122 512z m0-298.648c-11.782 0-21.342-9.562-21.342-21.344s9.56-21.344 21.342-21.344 21.31 9.562 21.31 21.344-9.53 21.344-21.31 21.344z m0-85.342c-11.782 0-21.342-9.562-21.342-21.344s9.56-21.312 21.342-21.312 21.31 9.53 21.31 21.312-9.53 21.344-21.31 21.344z" fill="#FFCE54" /><path d="M748.712 93.26c-49.53-46.374-118.996-71.906-195.622-71.906-76.59 0-146.058 25.532-195.588 71.906-53.468 50.062-81.716 121.092-81.716 205.402 0 83.718 30.686 173.09 84.186 245.246 55.374 74.622 125.748 117.434 193.12 117.434 67.406 0 137.78-42.812 193.152-117.434 53.5-72.156 84.188-161.528 84.188-245.246 0-84.31-28.25-155.34-81.72-205.402z m-323.616-7.906c11.78 0 21.342 9.53 21.342 21.312s-9.562 21.344-21.342 21.344c-11.782 0-21.312-9.562-21.312-21.344s9.532-21.312 21.312-21.312z m21.344 106.654c0 11.782-9.532 21.344-21.312 21.344-11.812 0-21.344-9.562-21.344-21.344s9.532-21.344 21.344-21.344c11.78 0 21.312 9.562 21.312 21.344zM425.128 512c-11.812 0-21.344-9.562-21.344-21.344s9.532-21.312 21.344-21.312c11.78 0 21.312 9.532 21.312 21.312S436.908 512 425.128 512z m0-213.338c0-23.562 19.092-42.656 42.656-42.656 23.562 0 42.656 19.094 42.656 42.656s-19.094 42.686-42.656 42.686c-23.564 0-42.656-19.126-42.656-42.686z m83.78 298.682c-11.782 0-21.344-9.562-21.344-21.344s9.562-21.344 21.344-21.344c11.78 0 21.342 9.562 21.342 21.344s-9.562 21.344-21.342 21.344z m0-85.344c-11.782 0-21.344-9.562-21.344-21.344s9.562-21.312 21.344-21.312c11.78 0 21.342 9.532 21.342 21.312S520.688 512 508.908 512z m1.53-298.648c-11.782 0-21.312-9.562-21.312-21.344s9.532-21.344 21.312-21.344c11.78 0 21.342 9.562 21.342 21.344s-9.562 21.344-21.342 21.344z m85.342-42.688c11.782 0 21.312 9.562 21.312 21.344s-9.532 21.344-21.312 21.344-21.344-9.562-21.344-21.344 9.562-21.344 21.344-21.344z m0 426.68c-11.782 0-21.344-9.562-21.344-21.344s9.562-21.344 21.344-21.344 21.312 9.562 21.312 21.344-9.532 21.344-21.312 21.344z m0-85.344c-11.782 0-21.344-9.562-21.344-21.344s9.562-21.312 21.344-21.312 21.312 9.532 21.312 21.312S607.56 512 595.78 512z m0-213.338c0-23.562 19.094-42.656 42.656-42.656s42.686 19.094 42.686 42.656-19.124 42.686-42.686 42.686-42.656-19.126-42.656-42.686zM681.122 512c-11.782 0-21.342-9.562-21.342-21.344s9.56-21.312 21.342-21.312 21.31 9.532 21.31 21.312S692.902 512 681.122 512z m0-298.648c-11.782 0-21.342-9.562-21.342-21.344s9.56-21.344 21.342-21.344 21.31 9.562 21.31 21.344-9.53 21.344-21.31 21.344z m0-85.342c-11.782 0-21.342-9.562-21.342-21.344s9.56-21.312 21.342-21.312 21.31 9.53 21.31 21.312-9.53 21.344-21.31 21.344z" fill="#FFCE54" /><path d="M553.124 448.002c-11.81 0-21.342-9.562-21.342-21.344v-64c0-11.782 9.532-21.312 21.342-21.312a21.3 21.3 0 0 1 21.312 21.312v64c0 11.782-9.532 21.344-21.312 21.344zM702.432 448.002c-3.216 0-6.466-0.718-9.53-2.25l-42.654-21.344c-10.562-5.25-14.812-18.062-9.562-28.624 5.282-10.53 18.094-14.812 28.624-9.53l42.654 21.342c10.562 5.25 14.812 18.062 9.562 28.624a21.352 21.352 0 0 1-19.094 11.782zM403.784 448.002a21.348 21.348 0 0 1-19.092-11.782c-5.25-10.562-1-23.376 9.562-28.624l42.654-21.342c10.532-5.282 23.344-1 28.624 9.53 5.25 10.562 1 23.376-9.562 28.624l-42.656 21.344a21.214 21.214 0 0 1-9.53 2.25z" fill="#F6BB42" /><path d="M745.12 256.006h85.312v85.342H745.12zM275.788 256.006h85.34v85.342h-85.34zM510.438 21.354h85.34v106.656h-85.34z" fill="#434A54" /><path d="M405.316 703.996h-170.652c-58.812 0-106.654 47.844-106.654 106.652v126.624c-0.906 5.062-6.624 22.718-42.686 22.718v42.652h319.992c58.812 0 106.684-47.84 106.684-106.652v-85.344c0-58.806-47.874-106.65-106.684-106.65z" fill="#ED5564" /><path d="M234.664 853.336c0 23.562 19.092 42.656 42.656 42.656 23.562 0 42.686-19.094 42.686-42.656 0-23.558-19.124-42.688-42.686-42.688-23.564 0-42.656 19.13-42.656 42.688z" fill="#434A54" /><path d="M376.722 644.746c-15.594-17.062-35.218-26.094-56.718-26.094h-0.032c-40.28 0-71.656 18.624-90.748 53.844-6.124 11.312-9.906 22.5-12.25 31.5h44.718a85.744 85.744 0 0 1 5.624-12.188c11.468-20.5 28.718-30.468 52.686-30.468 9.592 0 17.624 3.876 25.25 12.188 24.094 26.376 39.124 92.34 42.218 185.714 2.5 74.312-3.312 140.684-3.406 141.496-0.062 0.656-0.062 1.282-0.062 1.906h21.312c7.438 0 14.688-1.188 21.688-3.438 1.376-17.59 5.312-75.496 3.124-140.934-3.498-106.776-21.466-178.62-53.404-213.526z" fill="#434A54" /></svg>