<?xml version="1.0" standalone="no"?><!DOCTYPE svg PUBLIC "-//W3C//DTD SVG 1.1//EN" "http://www.w3.org/Graphics/SVG/1.1/DTD/svg11.dtd"><svg class="icon" width="128px" height="128.00px" viewBox="0 0 1024 1024" version="1.1" xmlns="http://www.w3.org/2000/svg"><path d="M320.176 937.86c-11.782 0-21.328-9.562-21.328-21.312v-277.06c0-11.812 9.546-21.312 21.328-21.312 11.766 0 21.312 9.5 21.312 21.312v277.058c0 11.75-9.546 21.314-21.312 21.314zM703.808 937.86c-11.75 0-21.312-9.562-21.312-21.312v-277.06c0-11.812 9.562-21.312 21.312-21.312a21.26 21.26 0 0 1 21.312 21.312v277.058c0.002 11.75-9.498 21.314-21.312 21.314z" fill="#EAAD7A" /><path d="M234.91 1020.484c-11.764 0-21.31-9.562-21.31-21.376v-359.62a21.288 21.288 0 0 1 21.31-21.312c11.766 0 21.312 9.5 21.312 21.312v359.622c0 11.812-9.546 21.374-21.312 21.374zM789.09 1023.984a21.278 21.278 0 0 1-21.312-21.312V639.488c0-11.812 9.532-21.312 21.312-21.312s21.31 9.5 21.31 21.312v363.184a21.276 21.276 0 0 1-21.31 21.312zM725.122 170.544H298.848c-11.766 0-21.312 9.532-21.312 21.312v341.026c0 11.796 9.546 21.296 21.312 21.296h426.274c11.812 0 21.344-9.5 21.344-21.296V191.856c-0.002-11.78-9.532-21.312-21.344-21.312z m-191.81 42.624h63.936v298.4h-63.936v-298.4z m-42.624 298.402h-63.952v-298.4h63.952v298.4z m-170.512-298.402h63.936v298.4h-63.936v-298.4z m383.632 298.402h-63.938v-298.4h63.938v298.4z" fill="#F4BE8E" /><path d="M725.122 0.016H298.848c-11.766 0-21.312 9.546-21.312 21.328v170.512c0 11.766 9.546 21.312 21.312 21.312h426.274c11.812 0 21.344-9.546 21.344-21.312V21.344A21.32 21.32 0 0 0 725.122 0.016z" fill="#FFD2A6" /><path d="M789.09 511.57h-554.18c-11.764 0-21.31 9.548-21.31 21.314v106.606c0 11.75 9.546 21.312 21.31 21.312h554.18c11.782 0 21.31-9.562 21.31-21.312v-106.606c0-11.766-9.528-21.314-21.31-21.314z" fill="#F4BE8E" /><path d="M298.848 511.57c-11.766 0-21.312 9.548-21.312 21.314v21.296a21.288 21.288 0 0 0 21.312 21.312c11.782 0 21.328-9.5 21.328-21.312v-21.296c0-11.766-9.548-21.314-21.328-21.314zM384.112 511.57c-11.766 0-21.312 9.548-21.312 21.314v21.296c0 11.812 9.546 21.312 21.312 21.312s21.312-9.5 21.312-21.312v-21.296c0-11.766-9.548-21.314-21.312-21.314zM469.376 511.57c-11.78 0-21.31 9.548-21.31 21.314v21.296a21.28 21.28 0 0 0 21.31 21.312c11.766 0 21.312-9.5 21.312-21.312v-21.296c0-11.766-9.548-21.314-21.312-21.314zM554.624 511.57c-11.766 0-21.312 9.548-21.312 21.314v21.296a21.288 21.288 0 0 0 21.312 21.312c11.782 0 21.31-9.5 21.31-21.312v-21.296c0.002-11.766-9.528-21.314-21.31-21.314zM639.872 511.57c-11.748 0-21.31 9.548-21.31 21.314v21.296c0 11.812 9.562 21.312 21.31 21.312 11.782 0 21.312-9.5 21.312-21.312v-21.296c0-11.766-9.532-21.314-21.312-21.314zM725.122 511.57c-11.75 0-21.312 9.548-21.312 21.314v21.296c0 11.812 9.562 21.312 21.312 21.312 11.812 0 21.344-9.5 21.344-21.312v-21.296c-0.002-11.766-9.532-21.314-21.344-21.314z" fill="#EAAD7A" /><path d="M810.4 554.18H213.6a21.274 21.274 0 0 1-21.312-21.296c0-11.766 9.532-21.314 21.312-21.314h596.8c11.782 0 21.312 9.548 21.312 21.314A21.274 21.274 0 0 1 810.4 554.18z" fill="#FFD2A6" /></svg>