<?xml version="1.0" standalone="no"?><!DOCTYPE svg PUBLIC "-//W3C//DTD SVG 1.1//EN" "http://www.w3.org/Graphics/SVG/1.1/DTD/svg11.dtd"><svg class="icon" width="128px" height="128.00px" viewBox="0 0 1024 1024" version="1.1" xmlns="http://www.w3.org/2000/svg"><path d="M912.866 127.996h-1.75a126.498 126.498 0 0 0-21.904-52.81l1.28-1.266c8.312-8.328 8.312-21.844 0-30.172-8.342-8.328-21.842-8.328-30.186 0l-1.25 1.266a126.586 126.586 0 0 0-52.844-21.89v-1.782c0-11.78-9.532-21.328-21.312-21.328a21.32 21.32 0 0 0-21.342 21.328v1.782a126.334 126.334 0 0 0-52.84 21.874l-1.25-1.25c-8.344-8.328-21.844-8.328-30.156 0-8.344 8.328-8.344 21.844 0 30.172l-30.188 30.17c-8.344-8.344-21.844-8.344-30.156 0-8.344 8.328-8.344 21.828 0 30.17l-30.186 30.17c-8.312-8.344-21.844-8.344-30.156 0-8.342 8.328-8.342 21.828 0 30.17l-30.186 30.17c-8.312-8.344-21.844-8.344-30.188 0-8.312 8.328-8.312 21.828 0 30.172l-30.156 30.17c-8.344-8.342-21.844-8.342-30.156 0-8.342 8.328-8.342 21.828 0 30.172l-62.934 62.92 180.996 181.012 62.934-62.936c4.188 4.172 9.624 6.25 15.094 6.25s10.906-2.078 15.094-6.25c8.312-8.328 8.312-21.828 0-30.156v-0.016l30.156-30.17c4.156 4.172 9.624 6.25 15.094 6.25s10.906-2.078 15.094-6.25c8.312-8.328 8.312-21.828 0-30.156l30.154-30.17a21.278 21.278 0 0 0 15.092 6.234c5.468 0 10.906-2.078 15.094-6.234 8.312-8.344 8.312-21.842 0-30.17l30.154-30.17a21.35 21.35 0 0 0 30.188 0c8.312-8.344 8.312-21.844 0-30.172l30.156-30.17a21.296 21.296 0 0 0 15.094 6.25 21.26 21.26 0 0 0 15.06-6.25c8.344-8.328 8.344-21.844 0-30.172l-1.248-1.25a126.638 126.638 0 0 0 21.904-52.842h1.75c11.812 0 21.342-9.546 21.342-21.328s-9.53-21.342-21.342-21.342z" fill="#E5E8EC" /><path d="M480.596 474.97a21.346 21.346 0 0 1-15.092-6.25c-8.312-8.344-8.312-21.844 0-30.17L769.806 134.246c8.312-8.328 21.842-8.328 30.154 0 8.344 8.328 8.344 21.842 0 30.17L495.69 468.72a21.354 21.354 0 0 1-15.094 6.25z" fill="#CCD1D9" /><path d="M263.134 589.406c0 11.782 9.562 21.344 21.374 21.344 11.75 0 21.312-9.562 21.312-21.344s-9.562-21.344-21.312-21.344c-11.812 0-21.374 9.562-21.374 21.344z" fill="#080808" /><path d="M290.758 915.02l-30.186-30.156c7.156-7.156 15.374-19.624 4.124-45.372-6.968-16.032-18.032-28.688-19.562-30.406l-120.34-120.34c-41.592-41.594-41.592-109.246 0-150.856l159.714-159.684c20.124-20.14 46.936-31.25 75.404-31.25 28.5 0 55.28 11.11 75.434 31.25l120.686 120.684c41.592 41.592 41.592 109.264 0 150.854L290.758 915.02z" fill="#EC5564" /><path d="M154.948 830.742a21.14 21.14 0 0 1-15.06-6.25l-21.782-21.75c-8.344-8.312-8.344-21.844 0-30.188 8.344-8.308 21.844-8.308 30.156 0l21.812 21.812c8.312 8.312 8.312 21.812 0 30.124a21.232 21.232 0 0 1-15.126 6.252z" fill="#424953" /><path d="M181.792 1023.984l-14.938-12.09c-49.654-40.188-75.528-86.718-76.998-138.218-2.656-93.59 77.528-167.46 80.966-170.554l28.656 31.594c-0.656 0.594-69.184 64.09-66.966 137.93 1 33.468 16.75 64.844 46.81 93.468l213.62-213.648 30.186 30.152L181.792 1023.984z" fill="#EC5564" /><path d="M330.632 745.622a21.276 21.276 0 0 1-15.062-6.25c-8.342-8.344-8.342-21.876 0-30.188l90.498-90.5c8.312-8.34 21.844-8.34 30.186 0 8.312 8.312 8.312 21.812 0 30.156l-90.528 90.532a21.3 21.3 0 0 1-15.094 6.25zM284.508 674.746c-22.812 0-44.25-8.876-60.374-25-33.25-33.282-33.25-87.434 0-120.684 16.124-16.124 37.562-25 60.374-25 22.782 0 44.186 8.874 60.312 25 33.28 33.25 33.28 87.402 0 120.684-16.126 16.126-37.53 25-60.312 25z m0-127.996c-11.438 0-22.124 4.438-30.186 12.5-16.624 16.624-16.624 43.688 0 60.308 8.062 8.062 18.75 12.5 30.186 12.5a42.386 42.386 0 0 0 30.156-12.5c16.656-16.622 16.656-43.684 0-60.308a42.39 42.39 0 0 0-30.156-12.5z" fill="#D94452" /><path d="M572.344 635.996c-2.312-2.75-57.53-68.184-129.778-135.73-99.496-92.982-179.932-141.996-239.056-145.7-27.562-1.718-50.874 6.046-69.278 23.062-21.406 19.828-32.718 42.874-33.656 68.512-1.624 45.266 31.156 80.906 32.562 82.406 0.156 0.172 0.312 0.312 0.5 0.484l30.186-30.186c-3.25-3.75-21.498-26.14-20.624-51.172 0.5-14.062 7.062-26.732 20-38.716 9.624-8.922 21.938-12.782 37.656-11.796 48.218 3 121.622 49.342 212.276 133.998 70.436 65.844 125.998 131.652 126.56 132.34a21.34 21.34 0 0 0 16.344 7.562c4.842 0 9.716-1.624 13.716-5 9.03-7.564 10.186-21.032 2.592-30.064z" fill="#424953" /></svg>