<?xml version="1.0" standalone="no"?><!DOCTYPE svg PUBLIC "-//W3C//DTD SVG 1.1//EN" "http://www.w3.org/Graphics/SVG/1.1/DTD/svg11.dtd"><svg class="icon" width="128px" height="128.00px" viewBox="0 0 1024 1024" version="1.1" xmlns="http://www.w3.org/2000/svg"><path d="M426.666 256.008V0.014h-170.682l0.032 255.994-106.686 213.306V981.3c0 23.562 19.092 42.686 42.656 42.686h298.68c23.562 0 42.656-19.124 42.656-42.686V469.314l-106.656-213.306z" fill="#A0D468" /><path d="M149.33 554.656H533.32v341.334H149.33z" fill="#E6E9ED" /><path d="M450.51 303.724l-19.782-39.592c-2.124 2.218-9.718 9.718-22.436 17.124-19.906 11.56-42.436 17.404-66.966 17.404-24.532 0-47.062-5.844-66.936-17.404-12.718-7.376-20.312-14.876-22.436-17.124l-19.812 39.592c18.186 14.906 54.842 37.594 109.184 37.594 54.34 0 90.996-22.688 109.184-37.594z" fill="#434A54" /><path d="M383.98 746.65h-85.31c-11.782 0-21.344 9.562-21.344 21.344s9.562 21.312 21.344 21.312h85.31c11.812 0 21.342-9.532 21.342-21.312s-9.53-21.344-21.342-21.344zM426.666 661.31H256.014h-0.032c-11.75 0-21.312 9.562-21.312 21.342 0 11.782 9.562 21.344 21.312 21.344h170.682c11.782 0 21.312-9.562 21.312-21.344 0.002-11.778-9.528-21.342-21.31-21.342z" fill="#434A54" /><path d="M255.984 0.014h170.682v170.652h-170.682zM874.67 639.998s-5.75 127.996-106.684 127.996-106.686-127.996-106.686-127.996v-298.68h213.37v298.68z" fill="#E6E9ED" /><path d="M746.674 739.432h42.624v269.87h-42.624z" fill="#CCD1D9" /><path d="M831.982 981.3h-127.996c-11.812 0-21.312 9.562-21.312 21.344s9.5 21.342 21.312 21.342h127.996c11.75 0 21.312-9.56 21.312-21.342s-9.562-21.344-21.312-21.344z" fill="#E6E9ED" /><path d="M661.3 512v127.998s5.752 127.996 106.686 127.996 106.684-127.996 106.684-127.996V512H661.3z" fill="#FFCE54" /><path d="M853.294 618.654c0 11.782-9.562 21.344-21.312 21.344-11.808 0-21.308-9.562-21.308-21.344s9.5-21.344 21.308-21.344c11.75 0 21.312 9.564 21.312 21.344zM810.674 661.31c0 11.782-9.562 21.342-21.376 21.342-11.75 0-21.312-9.56-21.312-21.342s9.562-21.312 21.312-21.312c11.814 0 21.376 9.532 21.376 21.312z" fill="#F6BB42" /><path d="M831.982 341.318v298.68s-4.876 109.308-85.308 125.872c6.562 1.376 13.688 2.124 21.312 2.124 100.934 0 106.684-127.996 106.684-127.996v-298.68h-42.688zM533.32 469.314l-106.654-213.306V0.014h-42.656v255.994l106.654 213.306V981.3c0 23.562-19.094 42.686-42.656 42.686h42.656c23.562 0 42.656-19.124 42.656-42.686V469.314z" fill="#FFFFFF" opacity=".2" /></svg>