<?xml version="1.0" standalone="no"?><!DOCTYPE svg PUBLIC "-//W3C//DTD SVG 1.1//EN" "http://www.w3.org/Graphics/SVG/1.1/DTD/svg11.dtd"><svg class="icon" width="128px" height="128.00px" viewBox="0 0 1024 1024" version="1.1" xmlns="http://www.w3.org/2000/svg"><path d="M7.10076 938.624l167.808-96.936 96.936 167.808zM849.07876 799.002l-96.902 167.872 264.71-70.936-167.808-96.936z" fill="#CCD1D9" /><path d="M241.40676 57.158l-6.406 19c-1.282 3.75-31.282 93.248-53.842 198.872-31 145.34-31.812 246.212-2.376 299.852 13.062 23.812 31.936 38.938 56.062 44.876 6.78 1.688 13.686 2.5 20.53 2.5 39.124 0 76.78-27.25 111.904-80.952 25.688-39.312 50.812-93.654 74.656-161.528 40.156-114.216 62.78-226.402 63.748-231.12l3.906-19.624-268.182-71.876z" fill="#E6E9ED" /><path d="M190.03476 867.812l-41.25-11 70.56-263.306 41.188 11.062zM268.62476 1007.934a21.24 21.24 0 0 1-5.532-0.75L15.81876 940.936c-11.376-3.062-18.124-14.75-15.094-26.124 3.062-11.376 14.75-18.124 26.124-15.062L274.15676 966c11.374 3 18.124 14.75 15.062 26.124-2.562 9.498-11.186 15.81-20.594 15.81z" fill="#E6E9ED" /><path d="M175.72076 301.622c-25.56 131.122-24.53 222.964 3.064 273.258 13.062 23.812 31.936 38.938 56.062 44.876 6.78 1.688 13.686 2.5 20.53 2.5 39.124 0 76.78-27.25 111.904-80.952 25.688-39.312 50.812-93.654 74.656-161.528 9.344-26.592 17.75-53.092 25.156-78.154H175.72076z" fill="#FFCE54" /><path d="M842.20476 230.03c-22.31-104.684-51.964-192.87-53.214-196.558l-6.406-18.968-268.216 71.872L518.30676 106c0.968 4.718 23.718 117.028 63.656 231.37 23.75 67.936 48.654 122.34 74.06 161.652 34.78 53.86 71.998 81.17 110.624 81.17 7.782 0 15.624-1.124 23.312-3.312 23.904-6.938 42.498-22.874 55.308-47.326 28.688-54.874 27.624-155.622-3.062-299.524z" fill="#E6E9ED" /><path d="M833.98676 825.188l-70.528-263.306 41.184-11.062 70.562 263.304zM755.36476 965.248c-9.406 0-18.032-6.312-20.594-15.812-3.062-11.376 3.688-23.062 15.062-26.124l247.306-66.248c11.376-3.062 23.06 3.688 26.124 15.062s-3.688 23.062-15.124 26.124L760.89476 964.5c-1.844 0.498-3.686 0.748-5.53 0.748z" fill="#E6E9ED" /><path d="M581.96076 337.372c23.75 67.936 48.654 122.34 74.06 161.652 34.78 53.86 71.998 81.17 110.624 81.17 7.782 0 15.624-1.124 23.312-3.312 23.904-6.938 42.498-22.874 55.308-47.326 26.688-51.094 27.624-142.06 2.812-270.588H556.86876c7.406 25.122 15.78 51.716 25.092 78.404z" fill="#FFCE54" /></svg>