<?xml version="1.0" standalone="no"?><!DOCTYPE svg PUBLIC "-//W3C//DTD SVG 1.1//EN" "http://www.w3.org/Graphics/SVG/1.1/DTD/svg11.dtd"><svg class="icon" width="128px" height="128.00px" viewBox="0 0 1024 1024" version="1.1" xmlns="http://www.w3.org/2000/svg"><path d="M762.75 226.914l72.186-169.15L699.626 0.014 627.44 169.166l-156.76 133.074-144.372 338.29c-7.968 18.688 0.718 40.31 19.406 48.28l236.79 101.06c18.688 7.968 40.312-0.718 48.312-19.406l144.308-338.302-12.374-205.248z" fill="#A0D468" /><path d="M744.124 228.774c-19.624 2.704-39.436-0.124-58.936-8.438-38.248-16.31-52.81-44.514-56.686-53.67l-1.062 2.5-31.75 26.938c10.75 18.64 32.438 46.264 72.75 63.466 22.624 9.656 43.56 12.812 61.246 12.812 14.188 0 26.312-2.016 35.562-4.36l-2.5-41.11 1.312-3.156c-3.122 1.236-10.184 3.674-19.936 5.018z" fill="#434A54" /><path d="M834.936 57.764L699.626 0.014l-26.31 61.484 135.496 57.374z" fill="#8CC153" /><path d="M388.37 688.808c-18.686-7.968-27.342-29.592-19.374-48.28l144.34-338.29 156.73-133.074L735.688 15.42 699.628 0.014l-72.186 169.152-156.762 133.074-144.372 338.29c-7.968 18.688 0.718 40.31 19.406 48.28l236.79 101.06c11.876 5.062 24.938 3.376 34.938-3.312l-229.072-97.75z" fill="#FFFFFF" opacity=".2" /><path d="M853.31 468.876c-58.874 0-106.624 28.64-106.624 63.982 0 35.36 47.75 64.014 106.624 64.014 58.936 0 106.686-28.654 106.686-64.014 0-35.34-47.75-63.982-106.686-63.982z m48.748 75.248c-13.25 6.5-30.562 10.062-48.748 10.062-18.188 0-35.436-3.562-48.686-10.062-9.376-4.61-13.562-9.218-14.938-11.266 1.376-2.046 5.562-6.638 14.938-11.232 13.25-6.516 30.498-10.094 48.686-10.094 18.186 0 35.498 3.578 48.748 10.094 9.376 4.594 13.562 9.186 14.938 11.232-1.374 2.048-5.562 6.658-14.938 11.266zM170.688 468.876c-58.904 0-106.684 28.64-106.684 63.982 0 35.36 47.78 64.014 106.684 64.014 58.906 0 106.654-28.654 106.654-64.014 0-35.34-47.748-63.982-106.654-63.982z m48.718 75.248c-13.25 6.5-30.532 10.062-48.718 10.062-18.186 0-35.498-3.562-48.716-10.062-9.376-4.61-13.562-9.218-14.938-11.266 1.376-2.046 5.562-6.638 14.938-11.232 13.218-6.516 30.532-10.094 48.716-10.094 18.188 0 35.468 3.578 48.718 10.094 9.376 4.594 13.562 9.186 14.906 11.232-1.344 2.048-5.53 6.658-14.906 11.266z" fill="#AAB2BC" /><path d="M868.308 347.974l-96.87 83.64-83.624-96.89 96.874-83.638zM292.654 428.77L173.25 382.66l46.126-119.402 119.402 46.122z" fill="#E6E9ED" /><path d="M486.336 339.708l-96.904 83.64-83.622-96.89 96.872-83.638z" fill="#E6E9ED" /><path d="M789.312 1023.986H234.688L149.346 341.35h725.338z" fill="#CCD1D9" /><path d="M704.002 597.342H320.028a21.312 21.312 0 0 0-21.342 21.344c0 11.75 9.532 21.312 21.342 21.312h383.974c11.81 0 21.31-9.562 21.31-21.312 0-11.812-9.5-21.344-21.31-21.344zM682.69 767.994H341.34c-11.782 0-21.312 9.562-21.312 21.344s9.532 21.344 21.312 21.344h341.35c11.75 0 21.312-9.562 21.312-21.344s-9.562-21.344-21.312-21.344z" fill="#AAB2BC" /><path d="M157.346 405.348h709.338l8-63.998H149.346z" fill="#AAB2BC" /></svg>