<?xml version="1.0" standalone="no"?><!DOCTYPE svg PUBLIC "-//W3C//DTD SVG 1.1//EN" "http://www.w3.org/Graphics/SVG/1.1/DTD/svg11.dtd"><svg class="icon" width="128px" height="128.00px" viewBox="0 0 1024 1024" version="1.1" xmlns="http://www.w3.org/2000/svg"><path d="M476 85.328H170.656c-35.344 0-64 28.656-64 64s28.656 64 64 64H476v-128z" fill="#FFCE54" /><path d="M192 85.328h42.656v128H192z" fill="#F6BB42" /><path d="M476 298.656H170.656c-35.344 0-64 28.656-64 64s28.656 64 64 64H476v-128z" fill="#FFCE54" /><path d="M192 298.656h42.656v128H192z" fill="#F6BB42" /><path d="M320 42.656h186v426.672h-186z" fill="#DA4453" /><path d="M725.344 809.312h128V1024h-128z" fill="#434A54" /><path d="M874.656 832a21.3 21.3 0 0 1-21.312 21.312h-128C713.562 853.312 704 843.78 704 832V552c0-11.782 9.562-21.344 21.344-21.344h128c11.782 0 21.312 9.562 21.312 21.344v280z" fill="#DA4453" /><path d="M853.344 809.312c0 11.782 9.532 21.344 21.312 21.344V788a21.3 21.3 0 0 0-21.312 21.312z" opacity=".1" /><path d="M853.344 768a21.3 21.3 0 0 0 21.312 21.312v-42.656c-11.78 0-21.312 9.562-21.312 21.344zM725.344 768c0-11.782-9.562-21.344-21.344-21.344v42.656c11.782 0 21.344-9.53 21.344-21.312z" opacity=".1" /><path d="M725.344 809.312c0-11.782-9.562-21.312-21.344-21.312v42.656c11.782 0 21.344-9.562 21.344-21.344z" opacity=".1" /><path d="M448 704c0 11.782 9.562 21.312 21.344 21.312H896c11.782 0 21.344-9.532 21.344-21.312V21.328C917.344 9.546 907.782 0 896 0H469.344C457.562 0 448 9.546 448 21.328V704z" fill="#ED5564" /></svg>