<?xml version="1.0" standalone="no"?><!DOCTYPE svg PUBLIC "-//W3C//DTD SVG 1.1//EN" "http://www.w3.org/Graphics/SVG/1.1/DTD/svg11.dtd"><svg class="icon" width="128px" height="128.00px" viewBox="0 0 1024 1024" version="1.1" xmlns="http://www.w3.org/2000/svg"><path d="M0.118 256.058h1023.766V767.94H0.118z" fill="#E6E9ED" /><path d="M149.412 256.058h874.47v85.324H149.412z" fill="#ED5564" /><path d="M192.074 320.042c0-10.78-8.03-19.684-18.45-21.088 10.42-1.406 18.45-10.31 18.45-21.122 0-11.78-9.544-21.338-21.324-21.338v-0.438H0.118v511.882h170.632c11.78 0 21.324-9.53 21.324-21.308s-9.544-21.34-21.324-21.34c11.78 0 21.324-9.558 21.324-21.338 0-11.778-9.544-21.308-21.324-21.308 11.78 0 21.324-9.558 21.324-21.338s-9.544-21.338-21.324-21.338c11.78 0 21.324-9.532 21.324-21.308s-9.544-21.34-21.324-21.34c11.78 0 21.324-9.558 21.324-21.338s-9.544-21.306-21.324-21.306c11.78 0 21.324-9.562 21.324-21.34 0-11.78-9.544-21.338-21.324-21.338 11.78 0 21.324-9.53 21.324-21.308s-9.544-21.338-21.324-21.338c11.78 0 21.324-9.56 21.324-21.34 0-11.748-9.544-21.306-21.324-21.306 11.78 0 21.324-9.56 21.324-21.34s-9.544-21.338-21.324-21.338c11.78 0 21.324-9.53 21.324-21.308s-9.544-21.338-21.324-21.338c11.78 0 21.324-9.528 21.324-21.34z" fill="#F6BB42" /><path d="M170.75 320.042c0-10.78-8.044-19.684-18.45-21.088 10.404-1.406 18.45-10.31 18.45-21.122 0-11.78-9.56-21.338-21.338-21.338v-0.438H0.118v511.882h149.294c11.778 0 21.338-9.53 21.338-21.308s-9.56-21.34-21.338-21.34c11.778 0 21.338-9.558 21.338-21.338 0-11.778-9.56-21.308-21.338-21.308 11.778 0 21.338-9.558 21.338-21.338s-9.56-21.338-21.338-21.338c11.778 0 21.338-9.532 21.338-21.308s-9.56-21.34-21.338-21.34c11.778 0 21.338-9.558 21.338-21.338s-9.56-21.306-21.338-21.306c11.778 0 21.338-9.562 21.338-21.34 0-11.78-9.56-21.338-21.338-21.338 11.778 0 21.338-9.53 21.338-21.308s-9.56-21.338-21.338-21.338c11.778 0 21.338-9.56 21.338-21.34 0-11.748-9.56-21.306-21.338-21.306 11.778 0 21.338-9.56 21.338-21.34s-9.56-21.338-21.338-21.338c11.778 0 21.338-9.53 21.338-21.308s-9.56-21.338-21.338-21.338a21.326 21.326 0 0 0 21.338-21.34z" fill="#FFCE54" /><path d="M703.958 448.014h-447.9c-11.778 0-21.322 9.56-21.322 21.34 0 11.778 9.544 21.338 21.322 21.338h447.898c11.778 0 21.308-9.56 21.308-21.338 0.002-11.78-9.53-21.34-21.306-21.34zM490.678 533.338h-234.62c-11.778 0-21.322 9.56-21.322 21.34 0 11.778 9.544 21.306 21.322 21.306h234.62c11.778 0 21.322-9.53 21.322-21.306 0-11.78-9.544-21.34-21.322-21.34z" fill="#434A54" /><path d="M917.22 618.662h-127.97c-11.746 0-21.308 9.53-21.308 21.308s9.562 21.338 21.308 21.338h127.97c11.81 0 21.37-9.56 21.37-21.338s-9.558-21.308-21.37-21.308z" fill="#AC92EB" /></svg>