<?xml version="1.0" standalone="no"?><!DOCTYPE svg PUBLIC "-//W3C//DTD SVG 1.1//EN" "http://www.w3.org/Graphics/SVG/1.1/DTD/svg11.dtd"><svg class="icon" width="128px" height="128.00px" viewBox="0 0 1024 1024" version="1.1" xmlns="http://www.w3.org/2000/svg"><path d="M0.014 85.356h1023.972v853.29H0.014z" fill="#965353" /><path d="M85.324 213.352h362.678v639.952H85.324z" fill="#FFCE54" /><path d="M298.662 170.664h-63.998c-11.782 0-21.344 9.562-21.344 21.344v53.342h106.686V192.008c0-11.782-9.562-21.344-21.344-21.344z" fill="#434A54" /><path d="M277.318 703.994H192.01c-11.782 0-21.344 9.562-21.344 21.31 0 11.782 9.562 21.344 21.344 21.344h85.308c11.782 0 21.344-9.562 21.344-21.344 0-11.748-9.562-21.31-21.344-21.31zM192.01 405.346h149.308c11.78 0 21.342-9.562 21.342-21.342 0-11.782-9.562-21.344-21.342-21.344H192.01c-11.782 0-21.344 9.562-21.344 21.344 0 11.78 9.562 21.342 21.344 21.342zM341.318 448.002H192.01c-11.782 0-21.344 9.56-21.344 21.342s9.562 21.312 21.344 21.312h149.308c11.78 0 21.342-9.532 21.342-21.312s-9.562-21.342-21.342-21.342zM341.318 533.342H192.01c-11.782 0-21.344 9.532-21.344 21.312s9.562 21.344 21.344 21.344h149.308c11.78 0 21.342-9.562 21.342-21.344s-9.562-21.312-21.342-21.312zM341.318 618.652H192.01c-11.782 0-21.344 9.562-21.344 21.344s9.562 21.312 21.344 21.312h149.308c11.78 0 21.342-9.532 21.342-21.312s-9.562-21.344-21.342-21.344z" fill="#434A54" /><path d="M575.998 213.352h362.648v639.952H575.998z" fill="#A0D468" /><path d="M895.99 746.648V298.662c-23.562 0-42.686-19.094-42.686-42.656h-191.994c0 23.562-19.094 42.656-42.656 42.656v447.986c23.562 0 42.656 19.094 42.656 42.656h191.994c0-23.562 19.124-42.656 42.686-42.656z" fill="#8CC153" /><path d="M853.304 533.342c0 52.998-42.966 95.966-95.998 95.966-52.998 0-95.996-42.968-95.996-95.966 0-53.03 42.998-95.996 95.996-95.996 53.032 0 95.998 42.966 95.998 95.996z" fill="#A0D468" /><path d="M1023.986 426.658L490.658 767.992v170.652h533.328z" fill="#A85D5D" /><path d="M490.658 85.356h42.654v853.29h-42.654z" fill="#7F4545" /><path d="M341.318 234.664H192.01c-11.782 0-21.344 9.56-21.344 21.342s9.562 21.344 21.344 21.344h149.308c11.78 0 21.342-9.562 21.342-21.344s-9.562-21.342-21.342-21.342z" fill="#656D78" /></svg>