<?xml version="1.0" standalone="no"?><!DOCTYPE svg PUBLIC "-//W3C//DTD SVG 1.1//EN" "http://www.w3.org/Graphics/SVG/1.1/DTD/svg11.dtd"><svg class="icon" width="128px" height="128.00px" viewBox="0 0 1024 1024" version="1.1" xmlns="http://www.w3.org/2000/svg"><path d="M85.334 170.682h853.332v853.302H85.334z" fill="#965353" /><path d="M85.334 639.996h213.338v213.336H85.334z" fill="#A85D5D" /><path d="M298.672 639.996h213.304v213.336H298.672z" fill="#FFD2A6" /><path d="M511.976 639.996h213.322v213.336H511.976z" fill="#A85D5D" /><path d="M725.298 639.996h213.368v213.336H725.298zM85.334 426.674h213.338v213.322H85.334z" fill="#FFD2A6" /><path d="M298.672 426.674h213.304v213.322H298.672z" fill="#A85D5D" /><path d="M511.976 426.674h213.322v213.322H511.976z" fill="#FFD2A6" /><path d="M725.298 426.674h213.368v213.322H725.298zM85.334 213.338h213.338v213.336H85.334z" fill="#A85D5D" /><path d="M298.672 213.338h213.304v213.336H298.672z" fill="#FFD2A6" /><path d="M511.976 213.338h213.322v213.336H511.976z" fill="#A85D5D" /><path d="M725.298 213.338h213.368v213.336H725.298zM85.334 0.016h213.338v213.322H85.334z" fill="#FFD2A6" /><path d="M298.672 0.016h213.304v213.322H298.672z" fill="#A85D5D" /><path d="M511.976 0.016h213.322v213.322H511.976z" fill="#FFD2A6" /><path d="M725.298 0.016h213.368v213.322H725.298z" fill="#A85D5D" /><path d="M527.072 944.89a21.336 21.336 0 0 1 0 30.188c-8.312 8.312-21.846 8.312-30.156 0a21.332 21.332 0 0 1 0-30.188c8.31-8.312 21.844-8.312 30.156 0z" fill="#FFCE54" /><path d="M255.986 106.684c0 35.344-28.624 63.998-63.998 63.998-35.344 0-63.998-28.654-63.998-63.998 0-35.358 28.654-63.998 63.998-63.998 35.374 0.002 63.998 28.642 63.998 63.998z" fill="#ED5564" /><path d="M405.324 320.006m-63.998 0a63.998 63.998 0 1 0 127.996 0 63.998 63.998 0 1 0-127.996 0Z" fill="#ED5564" /><path d="M681.864 107.45c0 35.344-28.624 63.998-63.998 63.998-35.312 0-63.998-28.654-63.998-63.998 0-35.342 28.686-63.998 63.998-63.998 35.372 0.002 63.998 28.656 63.998 63.998zM895.98 320.006c0 35.342-28.624 63.998-63.998 63.998-35.374 0-63.996-28.656-63.996-63.998s28.624-63.998 63.996-63.998c35.376 0 63.998 28.656 63.998 63.998z" fill="#ED5564" /><path d="M682.674 533.328c0 35.36-28.686 64.012-63.996 64.012-35.376 0-63.998-28.652-63.998-64.012 0-35.342 28.624-64 63.998-64 35.31 0.002 63.996 28.658 63.996 64zM255.986 533.328c0 35.36-28.624 64.012-63.998 64.012-35.344 0-63.998-28.652-63.998-64.012 0-35.342 28.654-64 63.998-64 35.374 0.002 63.998 28.658 63.998 64zM469.322 746.648c0 35.376-28.656 63.996-63.998 63.996s-63.998-28.622-63.998-63.996c0-35.344 28.656-63.996 63.998-63.996s63.998 28.652 63.998 63.996zM895.98 746.648c0 35.376-28.624 63.996-63.998 63.996-35.374 0-63.996-28.622-63.996-63.996 0-35.344 28.624-63.996 63.996-63.996 35.376 0 63.998 28.652 63.998 63.996z" fill="#434A54" /><path d="M85.334 853.332h853.332v42.656H85.334z" fill="#7F4545" /></svg>