<?xml version="1.0" standalone="no"?><!DOCTYPE svg PUBLIC "-//W3C//DTD SVG 1.1//EN" "http://www.w3.org/Graphics/SVG/1.1/DTD/svg11.dtd"><svg class="icon" width="128px" height="128.00px" viewBox="0 0 1024 1024" version="1.1" xmlns="http://www.w3.org/2000/svg"><path d="M490.688 200.204h42.672v304.5h-42.672zM200.188 879.438l312.594-245.5 312.578 245.5h64.312l-376.89-296-376.938 296z" fill="#CCD1D9" /><path d="M639.984 618.688c0 70.688-57.25 128-127.984 128-70.688 0-128-57.312-128-128 0-70.718 57.312-128.016 128-128.016 70.734 0 127.984 57.296 127.984 128.016z" fill="#434A54" /><path d="M618.672 106.672c0 58.906-47.75 106.656-106.672 106.656-58.906 0-106.656-47.75-106.656-106.656C405.344 47.75 453.094 0 512 0c58.922 0 106.672 47.75 106.672 106.672zM1024.048 917.312c0 58.938-47.812 106.688-106.688 106.688-58.938 0-106.688-47.75-106.688-106.688 0-58.876 47.75-106.624 106.688-106.624 58.874 0 106.688 47.75 106.688 106.624zM213.344 917.312c0 58.938-47.75 106.688-106.656 106.688S0 976.25 0 917.312c0-58.876 47.782-106.624 106.688-106.624s106.656 47.75 106.656 106.624z" fill="#ED5565" /></svg>