<?xml version="1.0" standalone="no"?><!DOCTYPE svg PUBLIC "-//W3C//DTD SVG 1.1//EN" "http://www.w3.org/Graphics/SVG/1.1/DTD/svg11.dtd"><svg class="icon" width="128px" height="128.00px" viewBox="0 0 1024 1024" version="1.1" xmlns="http://www.w3.org/2000/svg"><path d="M604.682 876.186l274.41-228.91 27.344 32.78-274.41 228.88zM604.682 364.006L879.092 135.112l27.344 32.764-274.41 228.896zM394.406 167.88L120.012 396.782 92.68 364.022 367.074 135.116zM469.336 107.908h357.35v42.656H469.336zM895.998 218.098h42.688v357.332h-42.688zM181.488 361.412h357.318v42.656H181.488zM181.488 873.436h357.318v42.624H181.488zM85.33 462.742h42.672V820.06H85.33zM597.338 454.742h42.656V812.06h-42.656z" fill="#434A54" /><path d="M213.332 894.748c0-58.906-47.766-106.69-106.674-106.69S0 835.842 0 894.748s47.75 106.69 106.658 106.69 106.674-47.784 106.674-106.69zM725.34 894.748c0-58.906-47.784-106.69-106.658-106.69-58.938 0-106.69 47.784-106.69 106.69s47.752 106.69 106.69 106.69c58.874 0 106.658-47.784 106.658-106.69z" fill="#ED5565" /><path d="M1024 641.432c0-58.938-47.75-106.69-106.658-106.69-58.906 0-106.658 47.752-106.658 106.69 0 58.876 47.752 106.626 106.658 106.626 58.908 0 106.658-47.752 106.658-106.626zM1024 129.236c0-58.908-47.75-106.674-106.658-106.674-58.906 0-106.658 47.766-106.658 106.674s47.752 106.674 106.658 106.674c58.908 0 106.658-47.766 106.658-106.674zM511.992 129.236c0-58.908-47.75-106.674-106.658-106.674-58.906 0-106.672 47.766-106.672 106.674s47.766 106.674 106.672 106.674c58.908 0 106.658-47.766 106.658-106.674z" fill="#DA4453" /><path d="M725.34 382.74c0-58.908-47.784-106.674-106.658-106.674-58.938 0-106.69 47.766-106.69 106.674s47.752 106.674 106.69 106.674c58.874 0 106.658-47.766 106.658-106.674zM213.332 382.568c0-58.908-47.766-106.658-106.674-106.658S0 323.662 0 382.568c0 58.922 47.75 106.674 106.658 106.674s106.674-47.75 106.674-106.674z" fill="#ED5565" /></svg>