<?xml version="1.0" standalone="no"?><!DOCTYPE svg PUBLIC "-//W3C//DTD SVG 1.1//EN" "http://www.w3.org/Graphics/SVG/1.1/DTD/svg11.dtd"><svg class="icon" width="128px" height="128.00px" viewBox="0 0 1024 1024" version="1.1" xmlns="http://www.w3.org/2000/svg"><path d="M894.792 712.184c-2-15.186-7.438-36.78-22.032-53.308-3.938-4.438-7.81-9.438-11.56-14.812l-28.592-185.38h-172.836l-28.53 184.974c-3.844 5.532-7.81 10.656-11.874 15.218-14.594 16.53-20 38.124-22 53.308-2.562 19.624-0.938 40.186 4.624 57.964 8.5 27.25 25.186 45.218 46.934 50.562l2.5 0.624h189.274l2.532-0.624c21.748-5.344 38.402-23.312 46.934-50.562 5.534-17.778 7.19-38.34 4.626-57.964z" fill="#656D78" /><path d="M656.492 480.008h179.43l32.778-29.186a21.26 21.26 0 0 0 5.376-14.138v-105.994c0-11.782-9.56-21.344-21.342-21.344h-213.3c-11.812 0-21.342 9.562-21.342 21.344v105.994c0 5.234 1.906 10.282 5.406 14.202l32.994 29.122zM308.76 96.03c0 11.782-9.53 21.326-21.31 21.326-11.782 0-21.342-9.544-21.342-21.326s9.562-21.326 21.342-21.326 21.31 9.544 21.31 21.326z" fill="#434A54" /><path d="M371.726 180.306c0 46.558-37.716 84.306-84.276 84.306-46.56 0-84.308-37.748-84.308-84.306 0-46.544 37.748-84.278 84.308-84.278 46.56 0.002 84.276 37.734 84.276 84.278z" fill="#ED5564" /><path d="M429.036 680.092c-33.53-40.248-48.654-94.588-48.654-94.588-37.624-173.554-10.844-268.612-10.844-268.612 6.062-73.98 35.904-135.976 35.904-135.976L354.884 147.2l-33.716 33.716L287.45 147.2l-33.718 33.716L220.016 147.2 169.424 180.916s29.842 61.996 35.904 135.976c0 0 27.716 95.056-9.906 268.612 0 0-15.124 54.34-48.654 94.588-30.78 36.904-23.28 130.212 19.592 141.4h243.082c42.874-11.188 50.374-104.496 19.594-141.4z" fill="#E6E9ED" /><path d="M388.57 607.94H186.298c-11.78 0-21.342-9.532-21.342-21.31 0-11.782 9.562-21.312 21.342-21.312h202.27c11.78 0 21.342 9.532 21.342 21.312 0.002 11.778-9.56 21.31-21.34 21.31zM371.726 351.968h-168.584c-11.78 0-21.312-9.546-21.312-21.326 0-11.782 9.532-21.328 21.312-21.328h168.584c11.78 0 21.342 9.546 21.342 21.328 0.002 11.78-9.562 21.326-21.342 21.326z" fill="#CCD1D9" /><path d="M862.17 650.688H630.244c-11.78 0-21.31-9.562-21.31-21.376 0-11.748 9.532-21.31 21.31-21.31h231.926c11.78 0 21.342 9.562 21.342 21.31 0 11.812-9.562 21.376-21.342 21.376z" fill="#434A54" /><path d="M682.086 309.346v38.904c0 11.782 9.532 21.328 21.31 21.328 11.782 0 21.342-9.546 21.342-21.328v-38.904h-42.652zM767.426 311.69v36.904c0 11.782 9.53 21.344 21.31 21.344s21.342-9.562 21.342-21.344v-36.904c0-0.782-0.062-1.562-0.156-2.344h-42.372c-0.092 0.78-0.124 1.562-0.124 2.344z" fill="#656D78" /><path d="M1002.63 778.68H21.338A21.3 21.3 0 0 0 0.026 799.992v127.992a21.298 21.298 0 0 0 21.312 21.312h981.292c11.782 0 21.342-9.532 21.342-21.312v-127.992c0-11.782-9.56-21.312-21.342-21.312z" fill="#965353" /><path d="M527.062 848.926c8.344 8.312 8.344 21.812 0 30.156-8.312 8.344-21.842 8.344-30.156 0-8.342-8.344-8.342-21.844 0-30.156 8.314-8.374 21.844-8.374 30.156 0z" fill="#FFCE54" /></svg>