<?xml version="1.0" standalone="no"?><!DOCTYPE svg PUBLIC "-//W3C//DTD SVG 1.1//EN" "http://www.w3.org/Graphics/SVG/1.1/DTD/svg11.dtd"><svg class="icon" width="128px" height="128.00px" viewBox="0 0 1024 1024" version="1.1" xmlns="http://www.w3.org/2000/svg"><path d="M596.936 576.152h302.712c8.782 24.876 32.468 42.688 60.342 42.688 35.344 0 64-28.656 64-63.998 0-16.39-6.188-31.344-16.312-42.67 10.124-11.312 16.312-26.266 16.312-42.656 0-35.358-28.656-63.998-64-63.998-27.874 0-51.56 17.812-60.342 42.656H596.936v127.978z" fill="#E5E8EC" /><path d="M768.276 511.718c0-204.636-768.266-455.524-768.266 0.454 0 455.974 768.266 204.166 768.266-0.454z" fill="#965353" /><path d="M765.556 533.06c1.782-7.156 2.718-14.282 2.718-21.342 0-204.636-768.266-455.524-768.266 0.454 0 7.296 0.204 14.406 0.594 21.328 22.954-411.65 716.332-196.92 764.954-0.44z" fill="#FFFFFF" opacity=".1" /><path d="M554.686 640.15c0 11.782-9.562 21.344-21.358 21.344-11.782 0-21.328-9.562-21.328-21.344 0-11.78 9.546-21.31 21.328-21.31 11.796 0 21.358 9.532 21.358 21.31zM597.31 597.496c0 11.782-9.532 21.344-21.312 21.344s-21.312-9.562-21.312-21.344 9.532-21.344 21.312-21.344 21.312 9.562 21.312 21.344zM512 597.496c0 11.782-9.546 21.344-21.328 21.344-11.78 0-21.342-9.562-21.342-21.344s9.562-21.344 21.342-21.344c11.782 0 21.328 9.562 21.328 21.344z" fill="#7F4545" /></svg>