<?xml version="1.0" standalone="no"?><!DOCTYPE svg PUBLIC "-//W3C//DTD SVG 1.1//EN" "http://www.w3.org/Graphics/SVG/1.1/DTD/svg11.dtd"><svg class="icon" width="128px" height="128.00px" viewBox="0 0 1024 1024" version="1.1" xmlns="http://www.w3.org/2000/svg"><path d="M362.684 959.992c-11.782 0-21.344-9.562-21.344-21.344V576c0-11.812 9.562-21.344 21.344-21.344s21.328 9.532 21.328 21.344v362.648c0 11.782-9.548 21.344-21.328 21.344zM661.318 959.992c-11.75 0-21.31-9.562-21.31-21.344V576c0-11.812 9.56-21.344 21.31-21.344 11.812 0 21.376 9.532 21.376 21.344v362.648c0 11.782-9.564 21.344-21.376 21.344z" fill="#7F4545" /><path d="M298.684 554.656h426.632v42.656H298.684z" fill="#A85D5D" /><path d="M298.684 1023.992c-11.782 0-21.344-9.562-21.344-21.344V448c0-11.812 9.562-21.344 21.344-21.344s21.328 9.532 21.328 21.344v554.648c0 11.782-9.548 21.344-21.328 21.344zM725.316 1023.992c-11.748 0-21.31-9.562-21.31-21.344V448c0-11.812 9.562-21.344 21.31-21.344 11.812 0 21.376 9.532 21.376 21.344v554.648c0 11.782-9.564 21.344-21.376 21.344z" fill="#A85D5D" /><path d="M277.34 434.782h469.352v98.532H277.34z" fill="#F4BE8E" /><path d="M277.34 512h469.352v42.656H277.34z" fill="#FFD2A6" /><path d="M512.008 0.008C382.622 0.008 277.34 105.258 277.34 234.66v191.996h469.352V234.66C746.692 105.258 641.382 0.008 512.008 0.008z" fill="#4FC2E9" /><path d="M512.008 149.318c-47.044 0-85.326 38.282-85.326 85.342v128c0 11.782 9.546 21.342 21.328 21.342h127.998c11.782 0 21.312-9.56 21.312-21.342v-128c0-47.06-38.25-85.342-85.312-85.342z" fill="#E6E9ED" /><path d="M512.008 192.006c-11.782 0-21.326-9.562-21.326-21.344V149.318c0-11.782 9.544-21.312 21.326-21.312s21.328 9.532 21.328 21.312v21.344c0 11.782-9.546 21.344-21.328 21.344z" fill="#D770AD" /><path d="M361.136 810.652h300.182v42.656H361.136z" fill="#7F4545" /><path d="M298.684 874.652h426.632v42.652H298.684z" fill="#A85D5D" /><path d="M746.692 362.66H277.34c-23.56 0-42.654 19.092-42.654 42.654 0 23.56 19.094 42.686 42.654 42.686h469.352c23.56 0 42.624-19.124 42.624-42.686-0.002-23.562-19.064-42.654-42.624-42.654z" fill="#FFD2A6" /><path d="M512.008 149.318c-47.044 0-85.326 38.282-85.326 85.342h170.638c0-47.06-38.25-85.342-85.312-85.342z" fill="#EC87C0" /></svg>