<?xml version="1.0" standalone="no"?><!DOCTYPE svg PUBLIC "-//W3C//DTD SVG 1.1//EN" "http://www.w3.org/Graphics/SVG/1.1/DTD/svg11.dtd"><svg class="icon" width="128px" height="128.00px" viewBox="0 0 1024 1024" version="1.1" xmlns="http://www.w3.org/2000/svg"><path d="M874.804 71.308c3.968-11.092-1.844-23.28-12.938-27.248-11.094-3.938-23.312 1.844-27.25 12.936v0.032L619.902 659.904l40.188 14.312L874.804 71.308zM809.43 28.498c3.938-11.094-1.844-23.282-12.938-27.25-11.124-3.938-23.312 1.844-27.282 12.938L554.5 617.094l40.218 14.312L809.43 28.498z" fill="#EAAD7A" /><path d="M661.34 661.342c-94.122 0-170.682-76.56-170.682-170.668 0-94.124 76.562-170.684 170.682-170.684 94.094 0 170.652 76.56 170.652 170.684 0 94.108-76.558 170.668-170.652 170.668z" fill="#FFCE54" /><path d="M661.34 379.708c-61.278 0-110.964 49.686-110.964 110.966 0 61.294 49.688 110.952 110.964 110.952 61.282 0 110.934-49.656 110.934-110.952 0-61.28-49.652-110.966-110.934-110.966z m0 179.26c-37.656 0-68.278-30.638-68.278-68.294 0-37.656 30.622-68.31 68.278-68.31s68.282 30.656 68.282 68.31c0 37.656-30.626 68.294-68.282 68.294z" fill="#F6BB42" /><path d="M853.336 490.674c0-106.06-85.968-191.996-191.996-191.996s-191.994 85.936-191.994 191.996c0 106.044 85.966 192.012 191.994 192.012 55.906 0 106.214-23.906 141.308-62.06l-21.032-21.032 67.156-67.17a193.272 193.272 0 0 0 4.564-41.75z m-86.406 105.608c-28.214 28.188-65.714 43.716-105.59 43.716-39.906 0-77.402-15.53-105.59-43.716C527.532 568.062 512 530.548 512 490.674c0-39.904 15.53-77.404 43.75-105.59 28.188-28.218 65.684-43.75 105.59-43.75 39.876 0 77.376 15.532 105.59 43.75 28.188 28.186 43.718 65.686 43.718 105.59 0 39.874-15.53 77.388-43.718 105.608z" fill="#F6BB42" /><path d="M405.346 682.686c-117.654 0-213.338-95.716-213.338-213.354 0-117.622 95.684-213.338 213.338-213.338 117.622 0 213.306 95.716 213.306 213.338 0 117.636-95.684 213.354-213.306 213.354z" fill="#FFCE54" /><path d="M405.346 319.99c-82.498 0-149.34 66.874-149.34 149.34 0 82.482 66.842 149.356 149.34 149.356 82.466 0 149.31-66.876 149.31-149.356 0-82.466-66.842-149.34-149.31-149.34z m0 256.01c-58.81 0-106.684-47.858-106.684-106.668s47.874-106.654 106.684-106.654c58.812 0 106.654 47.842 106.654 106.654S464.158 576 405.346 576z" fill="#F6BB42" /><path d="M405.346 234.68c-129.622 0-234.682 105.06-234.682 234.652 0 22.186 3.094 43.656 8.844 63.998h39.25v78.328c42.874 56.124 110.498 92.34 186.588 92.34 129.59 0 234.65-105.058 234.65-234.666 0-129.592-105.058-234.652-234.65-234.652z m135.748 370.444c-36.25 36.248-84.466 56.216-135.748 56.216-51.28 0-99.498-19.968-135.778-56.216-36.25-36.282-56.218-84.514-56.218-135.794s19.968-99.498 56.218-135.748c36.28-36.28 84.498-56.248 135.778-56.248 51.28 0 99.498 19.968 135.748 56.248 36.282 36.25 56.25 84.466 56.25 135.748s-19.968 99.514-56.25 135.794z" fill="#F6BB42" /><path d="M938.458 377.334c0-11.78-9.532-21.342-21.308-21.342-7.782 0-14.562 4.188-18.282 10.406h-0.032L771.212 579.72l36.624 21.906 127.622-213.324-0.032-0.032a21.278 21.278 0 0 0 3.032-10.936zM125.134 366.396c-3.718-6.218-10.5-10.406-18.28-10.406-11.782 0-21.312 9.562-21.312 21.342 0 4 1.124 7.75 3.032 10.938l-0.032 0.032 127.622 213.324 36.624-21.906-127.622-213.324h-0.032z" fill="#ED5564" /><path d="M639.808 383.99H383.816l-170.652 213.354 42.656 426.644h511.984l42.656-426.644z" fill="#DA4453" /><path d="M810.46 597.344H213.164l170.652-213.354h254.274z" fill="#ED5564" /></svg>