<?xml version="1.0" standalone="no"?><!DOCTYPE svg PUBLIC "-//W3C//DTD SVG 1.1//EN" "http://www.w3.org/Graphics/SVG/1.1/DTD/svg11.dtd"><svg class="icon" width="128px" height="128.00px" viewBox="0 0 1024 1024" version="1.1" xmlns="http://www.w3.org/2000/svg"><path d="M597.591833 767.9945H0.260999l21.343959-85.343833S0.260999 554.654917 0.260999 384.00125C0.260999 213.317583 21.604958 85.319833 21.604958 85.319833L0.260999 0.01h597.330834L576.247875 85.319833s21.343958 127.99775 21.343958 298.681417c0 170.653667-21.343958 298.649417-21.343958 298.649417l21.343958 85.343833z" fill="#E5E8EC" /><path d="M21.604958 682.650667S0.260999 554.654917 0.260999 384.00125C0.260999 213.317583 21.604958 85.319833 21.604958 85.319833h554.642917s21.343958 127.99775 21.343958 298.681417c0 170.653667-21.343958 298.649417-21.343958 298.649417H21.604958z" fill="#ED5564" /><path d="M452.938115 293.535427c-54.905893-16.187968-75.247853 66.091871-153.997699 75.279853-78.747846-9.187982-99.123806-91.465821-154.027699-75.279853-55.123892 16.217968-45.811911 174.02766 70.779862 182.713643 29.217943 2.187996 57.405888-7.655985 83.247837-23.591954 25.81195 15.935969 53.999895 25.77995 83.249838 23.591954 116.591772-8.687983 125.871754-166.495675 70.747861-182.713643z" fill="#F5BA45" /><path d="M445.18813 291.84743c-49.249904-6.687987-71.341861 68.215867-146.247714 76.96585-78.747846-9.187982-99.123806-91.465821-154.027699-75.279853-55.123892 16.217968-45.811911 174.02766 70.779862 182.713643 29.217943 2.187996 57.405888-7.655985 83.247837-23.591954 91.843821-55.935891 146.247714-160.807686 146.247714-160.807686zM797.961441 738.276558c35.59393-15.24997 10.717979-66.905869 47.749907-105.685794 45.031912-29.155943 91.123822 4.90599 112.74578-27.187946 21.717958-32.249937-51.1859-110.465784-115.683774-64.685874-16.187968 11.467978-26.623948 28.747944-33.217935 48.185906-20.31196 2.843994-39.249923 9.875981-53.531896 23.623954-56.995889 54.843893 6.219988 141.061724 41.937918 125.749754z" fill="#FECD57" /><path d="M797.961441 738.276558a38.279925 38.279925 0 0 0 4.781991-2.467995s-16.905967-78.123847 6.811987-146.903713c-20.31196 2.843994-39.249923 9.875981-53.531896 23.623954-56.995889 54.841893 6.219988 141.059724 41.937918 125.747754zM349.628317 571.808883c3.311994 38.593925 60.185882 31.155939 85.373833 78.497847 13.591973 51.875899-33.249935 84.967834-9.531981 115.561774 23.811953 30.74794 120.933764-13.967973 97.685809-89.561825-5.811989-18.967963-18.937963-34.311933-35.343931-46.653909 3.687993-20.187961 2.937994-40.343921-5.623989-58.249886-34.217933-71.309861-135.903735-38.309925-132.559741 0.405999z" fill="#F5BA45" /><path d="M435.00215 650.30673c13.591973 51.875899-33.249935 84.967834-9.531981 115.561774 23.811953 30.74794 120.933764-13.967973 97.685809-89.561825-5.811989-18.967963-18.937963-34.311933-35.343931-46.653909-57.841887-44.093914-137.309732-52.531897-137.339732-52.531897 7.937984 32.687936 60.561882 28.157945 84.529835 73.185857z" fill="#FECD57" /><path d="M731.463571 468.249085c-38.343925 5.561989-27.623946 61.875879-73.435856 89.781825-50.9999 16.559968-86.749831-28.249945-115.905774-2.811994-29.309943 25.55995 20.937959 119.933766 95.093814 92.339819 18.593964-6.905987 33.123935-20.903959 44.499914-37.997926 20.37396 2.499995 40.465921 0.593999 57.841887-8.999982 69.185865-38.279925 30.341941-137.873731-8.093985-132.311742z" fill="#F5BA45" /><path d="M726.213582 469.405083c-32.187937 9.811981-24.593952 62.093879-68.185867 88.623827-50.9999 16.559968-86.749831-28.249945-115.905774-2.811994-29.309943 25.55995 20.937959 119.933766 95.093814 92.339819 18.593964-6.905987 33.123935-20.903959 44.499914-37.997926 40.685921-60.309882 44.497913-140.153726 44.497913-140.153726z" fill="#FECD57" /><path d="M298.942416 746.650542c-11.781977 0-21.341958 9.561981-21.341958 21.343958h42.655916c-0.002-11.781977-9.533981-21.343958-21.313958-21.343958zM213.600583 746.650542c-11.781977 0-21.343958 9.561981-21.343959 21.343958h42.685917c0-11.781977-9.561981-21.343958-21.341958-21.343958zM128.256749 746.650542c-11.779977 0-21.311958 9.561981-21.311958 21.343958H149.600708c0-11.781977-9.561981-21.343958-21.343959-21.343958zM42.946916 746.650542c-11.781977 0-21.341958 9.561981-21.341958 21.343958H64.260874c-0.002-11.781977-9.531981-21.343958-21.313958-21.343958zM128.256749 21.321958C140.038726 21.321958 149.600708 11.759977 149.600708 0.01H106.946791c0 11.749977 9.529981 21.311958 21.309958 21.311958zM213.600583 21.321958c11.781977 0 21.341958-9.561981 21.341958-21.311958H192.256624c0 11.749977 9.561981 21.311958 21.343959 21.311958zM298.942416 21.321958c11.781977 0 21.311958-9.561981 21.311959-21.311958h-42.655917c0 11.749977 9.561981 21.311958 21.343958 21.311958zM384.25225 21.321958c11.781977 0 21.343958-9.561981 21.343958-21.311958H362.940291c0 11.749977 9.531981 21.311958 21.311959 21.311958zM469.594083 21.321958c11.781977 0 21.341958-9.561981 21.341958-21.311958h-42.685916c0 11.749977 9.563981 21.311958 21.343958 21.311958zM554.935916 21.321958c11.781977 0 21.311958-9.561981 21.311959-21.311958h-42.653917c0 11.749977 9.559981 21.311958 21.341958 21.311958zM42.946916 21.321958c11.781977 0 21.311958-9.561981 21.311958-21.311958H21.604958c0 11.749977 9.561981 21.311958 21.341958 21.311958z" fill="#CBD0D8" /><path d="M298.942416 597.308833v64.279875c0 147.903711 88.591827 275.089463 215.621579 331.431353a21.143959 21.143959 0 0 0-2.311995 9.623981c0 11.781977 9.561981 21.343958 21.343958 21.343958h255.9935c11.781977 0 21.343958-9.561981 21.343958-21.343958 0-3.561993-0.875998-6.875987-2.405995-9.843981 126.779752-56.40389 215.21358-183.495642 215.21358-331.211353v-64.279875h-724.798585z" fill="#AC92EA" /><path d="M981.051084 597.308833v64.279875c0 147.715711-88.401827 274.807463-215.21358 331.211353a21.311958 21.311958 0 0 1 2.405996 9.843981c0 11.781977-9.531981 21.343958-21.311959 21.343958h42.655917c11.781977 0 21.343958-9.561981 21.343958-21.343958 0-3.561993-0.875998-6.875987-2.405995-9.843981 126.779752-56.40389 215.21358-183.495642 215.21358-331.211353v-64.279875h-42.687917z" fill="#FFFFFF" opacity=".2" /><path d="M42.946916 384.00125c0-170.683667 21.311958-298.681417 21.311958-298.681417L42.946916 0.01H0.260999L21.604958 85.319833S0.260999 213.317583 0.260999 384.00125c0 170.653667 21.343958 298.649417 21.343959 298.649417L0.260999 767.9945h42.685917l21.311958-85.343833s-21.311958-127.99575-21.311958-298.649417z" opacity=".1" /></svg>