<?xml version="1.0" standalone="no"?><!DOCTYPE svg PUBLIC "-//W3C//DTD SVG 1.1//EN" "http://www.w3.org/Graphics/SVG/1.1/DTD/svg11.dtd"><svg class="icon" width="128px" height="128.00px" viewBox="0 0 1024 1024" version="1.1" xmlns="http://www.w3.org/2000/svg"><path d="M478.18 256l180.984-181.016a21.256 21.256 0 0 0 0-30.172c-8.312-8.328-21.812-8.328-30.124 0l-159.704 159.688V21.328C469.336 9.546 459.774 0 447.992 0S426.68 9.546 426.68 21.328v527.546h42.656V307.5l159.704 159.688c8.312 8.328 21.812 8.328 30.124 0a21.256 21.256 0 0 0 0-30.172L478.18 256z" fill="#DA4453" /><path d="M511.992 512.032c-141.376 0-255.968 114.594-255.968 255.968s114.594 256 255.968 256c141.36 0 255.984-114.624 255.984-256s-114.624-255.968-255.984-255.968z m150.86 406.844c-40.312 40.25-93.876 62.438-150.86 62.438-56.968 0-110.532-22.188-150.844-62.438C320.868 878.562 298.68 825 298.68 768c0-56.968 22.188-110.532 62.468-150.812 40.312-40.312 93.876-62.5 150.844-62.5 56.984 0 110.546 22.188 150.86 62.5 40.25 40.282 62.438 93.844 62.438 150.812 0 57-22.188 110.562-62.438 150.876z" fill="#ED5565" /></svg>