<?xml version="1.0" standalone="no"?><!DOCTYPE svg PUBLIC "-//W3C//DTD SVG 1.1//EN" "http://www.w3.org/Graphics/SVG/1.1/DTD/svg11.dtd"><svg class="icon" width="128px" height="128.00px" viewBox="0 0 1024 1024" version="1.1" xmlns="http://www.w3.org/2000/svg"><path d="M0.01 631.934L392.06 1023.982l601.744-601.792-542.778-241.24z" fill="#E9573F" /><path d="M541.49 120.638l90.452-90.466 90.498 90.466-90.498 90.466zM631.942 211.104l90.498-90.466 90.434 90.466-90.434 90.466z" fill="#7F4545" /><path d="M722.44 301.57l90.434-90.466 90.496 90.466-90.496 90.466zM812.874 392.036l90.496-90.466 90.434 90.466-90.434 90.464zM451.026 211.104l90.464-90.466 90.452 90.466-90.452 90.466z" fill="#7F4545" /><path d="M541.49 301.57l90.452-90.466 90.498 90.466-90.498 90.466z" fill="#7F4545" /><path d="M631.942 392.036l90.498-90.466 90.434 90.466-90.434 90.464z" fill="#7F4545" /><path d="M722.44 482.5l90.434-90.464 90.496 90.464-90.496 90.466z" fill="#7F4545" /><path d="M933.494 482.5l90.496-90.464-120.622-120.622-60.308-60.31-120.62-120.622L631.942 0.018 511.336 120.64l-90.464 90.464 90.464 90.466 90.482 90.464 90.434 90.464 120.622 120.622 90.496-90.464 15.062-15.078 15.062-15.078z m-30.124-30.154l-10.062-10.046-50.246-50.264 60.308-60.31 60.312 60.31-60.312 60.31z m-180.93-180.932l-60.312-60.31 60.312-60.31 60.308 60.31-60.308 60.31z m150.744 30.156l-60.31 60.31-60.31-60.31 60.31-60.31 60.31 60.31z m-180.932-180.932l-60.31 60.31-60.31-60.31 60.31-60.31 60.31 60.31z m-150.762 30.154l60.328 60.31-60.328 60.31-60.31-60.31 60.31-60.31z m90.452 211.088l-60.31-60.31 30.188-30.156 30.124-30.154 60.31 60.31-10 10.044-50.312 50.266z m90.498-30.156l60.308 60.31-60.308 60.31-60.312-60.31 60.312-60.31z m90.434 211.086l-60.31-60.31 60.31-60.31 40.25 40.204 20.06 20.108-60.31 60.308z" fill="#602B2B" /><path d="M30.166 601.808l392.048 391.988 601.776-601.76L481.18 150.792z" fill="#FC6E51" /><path d="M613.13 498.844c-17.25-17.234-39.876-25.732-62.5-25.498 0.25-22.578-8.234-45.234-25.482-62.466-34-34-89.122-34-123.122 0-70.372 70.372-26.374 237.492-26.374 237.492s167.086 43.966 237.478-26.376c33.998-34.032 33.998-89.152 0-123.152z" fill="#E6E9ED" /><path d="M613.13 498.844a87.854 87.854 0 0 0-16.938-13.204c19.938 33.438 15.562 77.358-13.25 106.168-53.608 53.624-163.416 40.844-212.634 31.75 2.844 15.312 5.344 24.812 5.344 24.812s167.086 43.966 237.478-26.376c33.998-34.03 33.998-89.15 0-123.15z" opacity=".1" /></svg>