<?xml version="1.0" standalone="no"?><!DOCTYPE svg PUBLIC "-//W3C//DTD SVG 1.1//EN" "http://www.w3.org/Graphics/SVG/1.1/DTD/svg11.dtd"><svg class="icon" width="128px" height="128.00px" viewBox="0 0 1024 1024" version="1.1" xmlns="http://www.w3.org/2000/svg"><path d="M17.25 168.236h987.922v677.932H17.25z" fill="#656D78" /><path d="M949.298 683.11c0 58.876-47.748 106.656-106.622 106.656-58.936 0-106.686-47.782-106.686-106.656 0-58.934 47.75-106.684 106.686-106.684 58.874 0 106.622 47.75 106.622 106.684z" fill="#48CFAD" /><path d="M827.552 667.55c-8.312 8.344-8.312 21.872 0 30.184 8.344 8.312 21.874 8.312 30.186 0s8.312-21.84 0-30.184c-8.312-8.312-21.842-8.312-30.186 0zM827.552 603.55c-8.312 8.344-8.312 21.876 0 30.188 8.344 8.312 21.874 8.312 30.186 0s8.312-21.844 0-30.188c-8.312-8.312-21.842-8.312-30.186 0zM827.552 731.546c-8.312 8.344-8.312 21.876 0 30.188 8.344 8.312 21.874 8.312 30.186 0s8.312-21.844 0-30.188c-8.312-8.312-21.842-8.312-30.186 0zM781.71 630.05c-11.376 3.062-18.124 14.75-15.094 26.124 3.062 11.376 14.75 18.124 26.124 15.062 11.376-3.032 18.156-14.718 15.094-26.124-3.03-11.374-14.748-18.124-26.124-15.062zM918.676 709.11c-3.032-11.376-14.75-18.124-26.124-15.062s-18.124 14.75-15.062 26.124c3.032 11.376 14.75 18.124 26.124 15.062 11.374-3.03 18.124-14.718 15.062-26.124zM792.742 694.046c-11.376-3.062-23.062 3.688-26.124 15.062-3.062 11.406 3.718 23.094 15.094 26.124 11.376 3.062 23.094-3.688 26.124-15.062s-3.718-23.06-15.094-26.124zM892.55 671.238c11.376 3.062 23.094-3.688 26.124-15.062 3.062-11.376-3.688-23.062-15.062-26.124s-23.094 3.688-26.124 15.062c-3.062 11.406 3.688 23.094 15.062 26.124z" fill="#37BC9B" /><path d="M288.006 341.184c0 58.904-47.75 106.652-106.668 106.652-58.904 0-106.652-47.748-106.652-106.652 0-58.92 47.748-106.668 106.652-106.668 58.92 0 106.668 47.748 106.668 106.668z" fill="#ED5564" /><path d="M123.59 283.28c-8.328 8.328-8.328 21.842 0 30.17 8.344 8.328 21.842 8.328 30.17 0 8.328-8.328 8.328-21.842 0-30.17s-21.826-8.328-30.17 0zM144.932 368.762c-8.342 8.328-8.342 21.828 0 30.17 8.328 8.328 21.828 8.328 30.156 0 8.342-8.344 8.342-21.844 0-30.17-8.328-8.328-21.828-8.328-30.156 0zM208.93 326.09c-8.342 8.344-8.342 21.844 0 30.172 8.328 8.328 21.828 8.328 30.156 0 8.342-8.328 8.342-21.828 0-30.172-8.328-8.328-21.828-8.328-30.156 0z" fill="#723939" /><path d="M512.016 773.672c-16.656 16.688-43.67 16.688-60.326 0l-30.264-30.312c-16.656-16.688-16.656-43.688 0-60.344l90.872-90.528c16.656-16.624 43.672-16.624 60.326 0l29.904 30.344c16.656 16.656 16.656 43.688 0 60.34l-90.512 90.5z" fill="#FFCE54" /><path d="M512.016 631.676c-11.782 0-21.328 9.562-21.328 21.312 0 11.812 9.546 21.376 21.328 21.376 11.782-0.032 21.344-9.562 21.344-21.376 0-11.75-9.564-21.312-21.344-21.312zM511.954 691.954c-11.782 0-21.328 9.532-21.328 21.344 0 11.75 9.546 21.312 21.328 21.312s21.344-9.562 21.344-21.312a21.334 21.334 0 0 0-21.344-21.344z" fill="#ED5564" /><path d="M405.332 234.672h213.352v213.336H405.332z" fill="#AC92EB" /><path d="M85.34 575.988h213.338v213.34H85.34z" fill="#A0D468" /><path d="M767.242 265.92c-25 25-25 65.514 0 90.514l60.31 60.342c24.998 24.998 65.53 24.998 90.53 0 25-25 25-65.514 0-90.514l-60.344-60.342c-24.998-24.982-65.496-24.982-90.496 0z" fill="#FC6E51" /><path d="M836.428 356.434c0 11.78 9.532 21.326 21.31 21.326 11.782 0 21.344-9.546 21.344-21.326-0.032-11.782-9.562-21.328-21.344-21.328-11.78 0-21.31 9.548-21.31 21.328z" fill="#FFCE54" /><path d="M806.242 326.262c0 11.782 9.562 21.328 21.31 21.328 11.812 0 21.374-9.546 21.374-21.328s-9.56-21.328-21.374-21.328c-11.748 0.002-21.31 9.548-21.31 21.328z" fill="#FFCE54" /><path d="M0.016 149.332v725.336h1023.968V149.332H0.016z m981.28 341.332H703.994V192h277.302v298.664z m-618.62 0V192h298.632v298.664H362.676z m298.632 42.656v298.66H362.676V533.32h298.632zM320.006 192v298.664H42.686V192h277.32zM42.686 533.32h277.32v298.66H42.686V533.32z m661.308 298.66V533.32h277.302v298.66H703.994z" fill="#434A54" /><path d="M85.34 777.422l213.338-80-39.076-30.902-174.262 65.34z" fill="#FFCE54" /><path d="M85.34 633.426l213.338 79.996v-45.558l-213.338-80z" fill="#FFCE54" /><path d="M607.402 342.576l-38.03-38.046c-8.344-8.328-21.874-8.328-30.186 0l-27.578 27.592-27.186-27.186c-7.89-7.89-20.42-8.296-28.796-1.25-0.468 0.406-0.938 0.812-1.376 1.25l-37.656 37.64c-8.328 8.328-8.328 21.842 0 30.17a21.264 21.264 0 0 0 15.094 6.25c5.452 0 10.92-2.078 15.078-6.25l22.562-22.562 27.186 27.186a21.344 21.344 0 0 0 9.016 5.376c1.984 0.578 4.032 0.876 6.078 0.876 5.454 0 10.906-2.078 15.078-6.25l27.562-27.576 22.998 22.952a21.162 21.162 0 0 0 15.06 6.25c5.468 0 10.938-2.078 15.094-6.25 8.346-8.33 8.346-21.844 0.002-30.172z" fill="#967ADC" /></svg>