<?xml version="1.0" standalone="no"?><!DOCTYPE svg PUBLIC "-//W3C//DTD SVG 1.1//EN" "http://www.w3.org/Graphics/SVG/1.1/DTD/svg11.dtd"><svg class="icon" width="128px" height="128.00px" viewBox="0 0 1024 1024" version="1.1" xmlns="http://www.w3.org/2000/svg"><path d="M351.164 418.16l-19.656-37.876L11.534 546.406a20.75 20.75 0 0 0-5.282 3.844c-8.328 8.34-8.328 21.84 0 30.152a21.32 21.32 0 0 0 25.124 3.75l319.788-165.992z" fill="#E6E9ED" /><path d="M761.744 102.262a21.296 21.296 0 0 0-15.094-6.25h-127.996a21.276 21.276 0 0 0-15.062 6.25c-8.344 8.312-8.344 21.842 0 30.154a21.144 21.144 0 0 0 15.062 6.25h127.996c5.468 0 10.938-2.062 15.094-6.25 8.344-8.312 8.344-21.842 0-30.154z" fill="#965353" /><path d="M831.992 437.346H533.33L490.66 138.666s69.622-21.312 191.996-21.312c122.402 0 191.992 21.312 191.992 21.312l-42.656 298.68z" fill="#7F4545" /><path d="M874.646 650.652H490.66l-42.656-298.648s85.326-21.344 234.65-21.344c149.338 0 234.68 21.344 234.68 21.344l-42.688 298.648z" fill="#965353" /><path d="M938.646 927.988H426.662l-42.656-319.992s149.324-21.344 298.648-21.344c149.338 0 298.676 21.344 298.676 21.344l-42.684 319.992zM810.65 336.286v58.374c0 5.468 2.094 10.938 6.248 15.094a21.332 21.332 0 0 0 30.188 0 21.3 21.3 0 0 0 6.248-15.094v-53.654a1026.996 1026.996 0 0 0-42.684-4.72zM682.654 330.662V480c0 5.468 2.094 10.906 6.248 15.092 8.344 8.312 21.844 8.312 30.188 0a21.428 21.428 0 0 0 6.248-15.124v-148.714a1549.864 1549.864 0 0 0-42.684-0.592zM591.094 452.408a21.284 21.284 0 0 0 6.248-15.062v-104.248c-15.342 0.906-29.56 1.968-42.684 3.188v101.028a21.3 21.3 0 0 0 6.248 15.092 21.334 21.334 0 0 0 30.188 0.002z" fill="#A85D5D" /><path d="M767.994 266.664V117.356h-42.656v149.308c0 5.468 2.062 10.938 6.25 15.094 8.312 8.344 21.844 8.344 30.156 0 4.188-4.158 6.25-9.626 6.25-15.094zM597.342 224.008c0 5.438 2.062 10.906 6.25 15.092 8.312 8.312 21.844 8.312 30.156 0a21.348 21.348 0 0 0 6.25-15.092V117.356h-42.656v106.652z" fill="#965353" /><path d="M810.65 591.122v123.528c0 5.468 2.094 10.938 6.248 15.094a21.332 21.332 0 0 0 30.188 0 21.3 21.3 0 0 0 6.248-15.094v-120.402a2817.368 2817.368 0 0 0-42.684-3.126zM661.342 586.808v85.188c0 5.468 2.062 10.902 6.25 15.09 8.312 8.312 21.842 8.312 30.154 0a21.28 21.28 0 0 0 6.25-15.122v-85.156a1611.566 1611.566 0 0 0-21.342-0.156c-7.094 0-14.218 0.062-21.312 0.156zM512.002 735.868a21.166 21.166 0 0 0 6.25 15.094 21.294 21.294 0 0 0 30.156 0 21.144 21.144 0 0 0 6.25-15.062v-144.778a2866.44 2866.44 0 0 0-42.656 3.124v141.622z" fill="#B26B6B" /><path d="M425.036 353.474c9.89 55.436-14.562 138.246-61.482 146.62-46.92 8.342-98.512-60.874-108.404-116.31-9.89-55.436 25.67-76.06 72.592-84.434 46.904-8.374 87.404-1.312 97.294 54.124z" fill="#ED5564" /><path d="M369.74 291.85c2.062 11.592-5.656 22.686-17.264 24.748-11.594 2.062-22.67-5.656-24.75-17.25-2.062-11.592 5.656-22.686 17.264-24.75 11.594-2.06 22.674 5.658 24.75 17.252z" fill="#A0D468" /><path d="M327.726 299.35c2.078 11.594-5.656 22.686-17.25 24.75-11.592 2.062-22.67-5.656-24.75-17.25-2.062-11.592 5.656-22.686 17.266-24.75 11.594-2.062 22.672 5.656 24.734 17.25z" fill="#A0D468" /><path d="M1017.736 891.582c-4.156-4.188-9.624-6.25-15.094-6.25h-639.98a21.152 21.152 0 0 0-15.078 6.25c-8.328 8.312-8.328 21.812 0 30.156a21.286 21.286 0 0 0 15.078 6.25h639.98a21.3 21.3 0 0 0 15.094-6.25c8.344-8.344 8.344-21.844 0-30.156z" fill="#434A54" /></svg>