<?xml version="1.0" standalone="no"?><!DOCTYPE svg PUBLIC "-//W3C//DTD SVG 1.1//EN" "http://www.w3.org/Graphics/SVG/1.1/DTD/svg11.dtd"><svg class="icon" width="128px" height="128.00px" viewBox="0 0 1024 1024" version="1.1" xmlns="http://www.w3.org/2000/svg"><path d="M192.018 1002.642V21.328h524.484c-0.938 16.032 4.248 32.25 15.186 45.092-1.062 18.062 5.562 36.032 18.624 49.092 12.094 12.062 28.156 18.718 45.25 18.718 1.282 0 2.562-0.032 3.844-0.094a63.534 63.534 0 0 0 32.592 14.594v853.912H192.018z" fill="#7F4545" /><path d="M170.692 512h663.462v42.654H170.692zM170.692 682.65h663.462v42.656H170.692z"  /><path d="M853.308 469.314L170.692 213.322v810.662h682.616z" fill="#FFCE54" /><path d="M840.81 128.012a42.502 42.502 0 0 1-30.124-12.5 37.744 37.744 0 0 1-3.656-4.156 43.16 43.16 0 0 1-11.468 1.562 42.496 42.496 0 0 1-30.156-12.5c-11.282-11.282-14.906-27.282-10.906-41.624a41.388 41.388 0 0 1-4.188-3.624c-15-15.032-16.5-38.468-4.376-55.156H170.692v213.308l42.654 16v-16h85.342v47.998l42.654 16v-63.998h85.342v95.998l42.654 16v-111.996h85.358v127.996h-42.688l113.778 42.686h56.906v21.312l42.622 16v-37.312h85.376v69.31l42.622 16V126.136a42.4 42.4 0 0 1-12.502 1.876zM298.688 170.666h-85.342V42.67h85.342v127.996z m127.996 0h-85.342V42.67h85.342v127.996z m128.012 0h-85.358V42.67h85.358v127.996z m127.996 170.652h-85.376v-127.996h85.376v127.996z m0-170.652h-85.376V42.67h85.376v127.996z m127.996 170.652h-85.376v-127.996h85.376v127.996z m0-170.652h-85.376V118.668a87.752 87.752 0 0 0 9.938 11.906c15.312 15.344 35.438 24.124 57 24.938 5.75 4 11.938 7.25 18.438 9.688v5.466z" fill="#602B2B" /><path d="M704.002 661.308c0 106.058-85.966 191.994-191.994 191.994-106.042 0-191.994-85.936-191.994-191.994 0-106.03 85.952-191.994 191.994-191.994 106.028 0 191.994 85.966 191.994 191.994z" fill="#ED5564" /><path d="M591.068 603.56a21.222 21.222 0 0 0-15.062-6.25h-127.98a21.3 21.3 0 0 0-15.094 6.25 21.334 21.334 0 0 0 0 30.186 21.286 21.286 0 0 0 15.078 6.25h127.996c5.438 0 10.938-2.094 15.062-6.25a21.276 21.276 0 0 0 0-30.186zM554.696 682.65h-85.358a21.286 21.286 0 0 0-15.078 6.25c-8.328 8.344-8.328 21.844 0 30.156a21.056 21.056 0 0 0 15.094 6.25h85.31c5.466 0.032 10.904-2.062 15.092-6.25 8.312-8.312 8.312-21.812 0-30.156a21.28 21.28 0 0 0-15.06-6.25z" fill="#FFCE54" /></svg>