<?xml version="1.0" standalone="no"?><!DOCTYPE svg PUBLIC "-//W3C//DTD SVG 1.1//EN" "http://www.w3.org/Graphics/SVG/1.1/DTD/svg11.dtd"><svg class="icon" width="128px" height="128.00px" viewBox="0 0 1024 1024" version="1.1" xmlns="http://www.w3.org/2000/svg"><path d="M405.346 224.006V128.008c0-58.828 47.842-106.668 106.652-106.668 58.812 0 106.656 47.842 106.656 106.668v95.998H405.346z" fill="#FFCE54" /><path d="M511.998 0.012c-70.684 0-127.996 57.294-127.996 127.998v117.326h255.994V128.008c0-70.702-57.31-127.996-127.998-127.996z m85.344 202.652h-170.684V128.008c0-47.062 38.28-85.342 85.34-85.342 47.062 0 85.344 38.28 85.344 85.342v74.656z" fill="#F6BB42" /><path d="M938.646 597.31c0-235.62-190.996-426.646-426.648-426.646-235.648 0-426.644 191.028-426.644 426.646 0 235.65 190.996 426.678 426.644 426.678 235.652 0 426.648-191.028 426.648-426.678z" fill="#A0D468" /><path d="M791.62 275.052c64.996 74.888 104.372 172.652 104.372 279.604 0 235.65-191.028 426.646-426.646 426.646-106.964 0-204.744-39.344-279.618-104.374 78.216 90.092 193.588 147.058 322.272 147.058 235.652 0 426.648-191.028 426.648-426.678-0.002-128.666-56.97-244.022-147.028-322.256z" fill="#8CC153" /><path d="M519.78 440.956c-195.526-39.546-328.678-28.094-398.616-14.968-23.03 52.452-35.81 110.388-35.81 171.324 0 50.374 8.75 98.748 24.78 143.622 66.406-13.906 203.278-28.998 409.646 12.75 190.746 38.594 315.962 28.624 382.618 15.938 23.312-52.686 36.25-110.998 36.25-172.308 0-50.06-8.656-98.154-24.5-142.808-63.126 13.652-191.778 27.416-394.368-13.55z" fill="#FC6E51" /><path d="M938.522 587.124a699.616 699.616 0 0 0-0.25-8.312c-0.032-0.25-0.032-0.468-0.032-0.718-0.124-2.656-0.282-5.282-0.438-7.938-0.032-0.406-0.062-0.844-0.094-1.282a750.144 750.144 0 0 0-0.624-8.498 4.568 4.568 0 0 1-0.062-0.624 393.104 393.104 0 0 0-0.844-8.688c0-0.032 0-0.062-0.032-0.094-0.312-3.032-0.688-6.032-1.062-9.062v-0.032a425.18 425.18 0 0 0-20.938-87.374c-8.406 1.828-18 3.64-28.75 5.342a428.732 428.732 0 0 1 10.594 94.812c0 82.152-23.25 158.872-63.466 223.962 27.966-2.124 51.216-5.438 69.874-9 1.438-3.25 2.844-6.5 4.188-9.812 0.062-0.156 0.156-0.312 0.218-0.5 1.25-3.062 2.5-6.188 3.688-9.312 0.156-0.376 0.282-0.75 0.438-1.124a490.486 490.486 0 0 0 3.188-8.688c0.218-0.624 0.438-1.188 0.624-1.812a344.26 344.26 0 0 0 2.75-8.062c0.282-0.812 0.532-1.624 0.782-2.438a287.14 287.14 0 0 0 2.312-7.374l0.938-3.188c0.624-2.156 1.25-4.312 1.844-6.5 0.376-1.376 0.75-2.75 1.124-4.094 0.468-1.782 0.906-3.532 1.344-5.312 0.468-1.782 0.906-3.594 1.312-5.344 0.312-1.312 0.624-2.562 0.906-3.844a241.6 241.6 0 0 0 1.5-6.906c0.25-1.156 0.468-2.312 0.718-3.468 0.5-2.438 0.968-4.906 1.406-7.344 0.188-1.032 0.376-2.062 0.562-3.062 0.438-2.624 0.876-5.188 1.282-7.812 0.124-0.876 0.282-1.812 0.406-2.688 0.406-2.75 0.812-5.468 1.156-8.218 0.094-0.782 0.188-1.532 0.282-2.344 0.376-2.876 0.688-5.75 1-8.624 0.062-0.656 0.124-1.312 0.188-1.938 0.312-3.032 0.562-6.062 0.812-9.124l0.094-1.5c0.25-3.186 0.468-6.374 0.624-9.56 0-0.376 0.032-0.718 0.062-1.062 0.156-3.344 0.282-6.688 0.376-10.062v-0.562c0.094-3.562 0.124-7.062 0.124-10.624 0-2.782-0.032-5.562-0.062-8.376-0.032-0.598-0.032-1.224-0.062-1.816z" fill="#E9573F" /><path d="M306.036 573.154c0 15.844-12.812 28.656-28.654 28.656-15.844 0-28.656-12.812-28.656-28.656 0-15.842 12.812-28.654 28.656-28.654 15.84 0 28.654 12.812 28.654 28.654zM552.03 594.81c0 18.624-15.062 33.688-33.656 33.688s-33.654-15.062-33.654-33.688c0-18.562 15.06-33.654 33.654-33.654s33.656 15.092 33.656 33.654zM792.712 595.154c0 22.094-17.938 39.998-40 39.998-22.094 0-40-17.904-40-39.998s17.906-39.998 40-39.998c22.064 0 40 17.904 40 39.998z" fill="#DA4453" /><path d="M277.35 512c-35.312 0-64 28.704-64 63.998 0 35.282 28.688 63.998 64 63.998 35.28 0 63.998-28.716 63.998-63.998 0-35.294-28.72-63.998-63.998-63.998z m0 85.31c-11.782 0-21.344-9.532-21.344-21.312 0-11.812 9.562-21.342 21.344-21.342 11.78 0 21.31 9.53 21.31 21.342a21.298 21.298 0 0 1-21.31 21.312zM511.998 533.328c-35.28 0-63.996 28.704-63.996 63.982 0 35.31 28.716 63.998 63.996 63.998 35.282 0 64-28.688 64-63.998 0-35.278-28.718-63.982-64-63.982z m0 85.326a21.33 21.33 0 0 1-21.342-21.344c0-11.75 9.56-21.312 21.342-21.312s21.344 9.562 21.344 21.312c0 11.814-9.562 21.344-21.344 21.344zM746.65 533.328c-35.282 0-64 28.704-64 63.982 0 35.31 28.718 63.998 64 63.998 35.312 0 63.998-28.688 63.998-63.998 0-35.278-28.686-63.982-63.998-63.982z m0 85.326c-11.782 0-21.312-9.532-21.312-21.344 0-11.75 9.532-21.312 21.312-21.312s21.344 9.562 21.344 21.312c0 11.814-9.562 21.344-21.344 21.344z" fill="#FFCE54" /></svg>