<?xml version="1.0" standalone="no"?><!DOCTYPE svg PUBLIC "-//W3C//DTD SVG 1.1//EN" "http://www.w3.org/Graphics/SVG/1.1/DTD/svg11.dtd"><svg class="icon" width="128px" height="128.00px" viewBox="0 0 1024 1024" version="1.1" xmlns="http://www.w3.org/2000/svg"><path d="M405.346 223.99V127.994c0-58.812 47.842-106.654 106.652-106.654 58.812 0 106.656 47.842 106.656 106.654v95.998H405.346z" fill="#FFCE54" /><path d="M511.998 0.012c-70.684 0-127.996 57.294-127.996 127.982v117.34h255.994v-117.34c0-70.688-57.31-127.982-127.998-127.982z m85.344 202.652h-170.684V127.994c0-47.046 38.28-85.326 85.34-85.326 47.062 0 85.344 38.28 85.344 85.326v74.67z" fill="#F6BB42" /><path d="M938.646 597.31c0-235.62-190.996-426.646-426.648-426.646-235.648 0-426.644 191.028-426.644 426.646 0 235.65 190.996 426.678 426.644 426.678 235.652 0 426.648-191.028 426.648-426.678z" fill="#ED5564" /><path d="M791.62 275.052c64.996 74.888 104.372 172.636 104.372 279.604 0 235.65-191.028 426.646-426.646 426.646-106.964 0-204.744-39.344-279.618-104.374 78.216 90.092 193.588 147.058 322.272 147.058 235.652 0 426.648-191.028 426.648-426.678-0.002-128.666-56.97-244.022-147.028-322.256z" fill="#DA4453" /><path d="M712.87 547.624l-138.81-20.17-62.062-125.78-62.058 125.78-138.812 20.17 100.436 97.904-23.718 138.216 124.152-65.248 124.154 65.248-23.716-138.216z" fill="#FFCE54" /><path d="M533.342 298.662c0 11.78-9.562 21.328-21.344 21.328s-21.342-9.546-21.342-21.328 9.56-21.328 21.342-21.328 21.344 9.546 21.344 21.328zM533.342 895.992c0 11.78-9.562 21.31-21.344 21.31s-21.342-9.532-21.342-21.31c0-11.812 9.56-21.344 21.342-21.344s21.344 9.532 21.344 21.344z" fill="#DA4453" /><path d="M315.91 371.05c8.312 8.328 8.312 21.842 0 30.17-8.344 8.328-21.844 8.328-30.188 0-8.31-8.328-8.31-21.842 0-30.17 8.344-8.328 21.844-8.328 30.188 0zM738.276 793.432c8.312 8.312 8.312 21.81 0 30.154a21.332 21.332 0 0 1-30.188 0c-8.312-8.344-8.312-21.842 0-30.154a21.332 21.332 0 0 1 30.188 0z" fill="#DA4453" /><path d="M213.35 575.998c11.782 0 21.312 9.562 21.312 21.312 0 11.812-9.532 21.344-21.312 21.344s-21.342-9.532-21.342-21.344c0-11.75 9.56-21.312 21.342-21.312zM810.648 575.998c11.782 0 21.344 9.562 21.344 21.312 0 11.812-9.562 21.344-21.344 21.344s-21.31-9.532-21.31-21.344c0-11.75 9.53-21.312 21.31-21.312z" fill="#DA4453" /><path d="M285.722 793.432a21.332 21.332 0 0 1 30.188 0c8.312 8.312 8.312 21.81 0 30.154a21.332 21.332 0 0 1-30.188 0c-8.31-8.344-8.31-21.842 0-30.154zM708.088 371.05c8.344-8.328 21.844-8.328 30.188 0 8.312 8.328 8.312 21.842 0 30.17-8.344 8.328-21.844 8.328-30.188 0-8.312-8.328-8.312-21.826 0-30.17z" fill="#DA4453" /></svg>