<?xml version="1.0" standalone="no"?><!DOCTYPE svg PUBLIC "-//W3C//DTD SVG 1.1//EN" "http://www.w3.org/Graphics/SVG/1.1/DTD/svg11.dtd"><svg class="icon" width="128px" height="128.00px" viewBox="0 0 1024 1024" version="1.1" xmlns="http://www.w3.org/2000/svg"><path d="M405.322 224.006V128.008c0-58.812 47.842-106.654 106.684-106.654 58.796 0 106.672 47.842 106.672 106.654v95.998H405.322z" fill="#FFCE54" /><path d="M512.006 0.012c-70.714 0-127.996 57.31-127.996 127.998v117.34h255.978v-117.34c0-70.688-57.31-127.998-127.982-127.998z m85.296 202.666h-170.636V128.008c0-47.046 38.28-85.326 85.34-85.326 47.046 0 85.296 38.28 85.296 85.326v74.67z" fill="#F6BB42" /><path d="M938.67 597.342c0-235.634-191.058-426.662-426.664-426.662-235.648 0-426.676 191.028-426.676 426.662 0 235.65 191.028 426.646 426.676 426.646 235.606 0 426.664-190.996 426.664-426.646z" fill="#AC92EB" /><path d="M791.612 275.068c64.996 74.888 104.372 172.652 104.372 279.62 0 235.62-190.996 426.646-426.662 426.646-106.964 0-204.712-39.344-279.586-104.404 78.216 90.092 193.588 147.058 322.272 147.058 235.606 0 426.664-190.996 426.664-426.646-0.002-128.684-57.002-244.042-147.06-322.274z" fill="#967ADC" /><path d="M749.486 242.866c-150.558 72.466-351.758 134.826-616.002 157.464-30.748 58.936-48.154 125.936-48.154 197.012 0 32.716 3.688 64.624 10.688 95.248 383.834-30.032 644.532-138.558 814.528-247.712-31.688-82.842-88.436-153.28-161.06-202.012z" fill="#A0D468" /><path d="M885.544 460.532a1238.532 1238.532 0 0 0 25-15.656c-25.25-66-66.438-124.124-118.808-169.668 45.248 52.202 78.058 115.53 93.808 185.324z" fill="#8CC153" /><path d="M280.95 956.084c66.594 42.966 145.904 67.904 231.056 67.904 189.356 0 349.852-123.374 405.602-294.12-141.81 91.842-347.618 182.966-636.658 226.216z" fill="#A0D468" /><path d="M525.224 1023.77a255.84 255.84 0 0 0 7-0.282c1.156-0.032 2.344-0.094 3.532-0.156 2.282-0.124 4.562-0.282 6.844-0.438 1.094-0.094 2.14-0.156 3.204-0.218 3.062-0.25 6.062-0.5 9.062-0.812 0.25-0.032 0.562-0.062 0.876-0.062 3.25-0.344 6.5-0.75 9.75-1.124 1-0.124 2.062-0.282 3.062-0.438a252.1 252.1 0 0 0 6.75-0.938 101.26 101.26 0 0 0 3.5-0.532c2.188-0.344 4.312-0.718 6.5-1.062a127.814 127.814 0 0 1 3.312-0.594c2.624-0.468 5.312-1 7.938-1.5 0.562-0.124 1.124-0.218 1.624-0.312 3.124-0.656 6.25-1.344 9.376-2.062 1.062-0.25 2.062-0.5 3.124-0.75 2.062-0.5 4.188-1 6.312-1.532 1.188-0.282 2.376-0.594 3.624-0.906 1.938-0.562 3.938-1.062 5.874-1.624a73.414 73.414 0 0 0 3.562-1c2.25-0.624 4.5-1.312 6.75-2l2.438-0.75c2.938-0.906 5.876-1.876 8.812-2.844 1.124-0.376 2.188-0.782 3.312-1.156 1.876-0.624 3.812-1.312 5.688-2 1.25-0.438 2.5-0.906 3.75-1.376 1.75-0.656 3.5-1.312 5.25-2 1.25-0.5 2.498-0.968 3.748-1.468 1.876-0.718 3.75-1.5 5.624-2.282l3.188-1.312c2.75-1.188 5.438-2.376 8.124-3.562 1.25-0.562 2.5-1.124 3.688-1.688 1.624-0.748 3.25-1.498 4.876-2.28 1.312-0.656 2.688-1.282 4-1.968 1.5-0.688 2.938-1.438 4.438-2.188 1.376-0.688 2.688-1.376 4.062-2.062 1.438-0.75 2.938-1.532 4.376-2.312a259.54 259.54 0 0 0 3.938-2.094 212.72 212.72 0 0 0 7.376-4.156c1.438-0.782 2.812-1.624 4.188-2.438 1.312-0.75 2.562-1.5 3.812-2.25l4.312-2.624c1.188-0.75 2.376-1.468 3.5-2.188 1.5-0.938 3-1.876 4.438-2.812 1.062-0.688 2.124-1.406 3.188-2.124a360.666 360.666 0 0 0 15.938-11.062 129.54 129.54 0 0 0 2.624-1.906c1.562-1.156 3.124-2.312 4.624-3.468 0.876-0.688 1.75-1.312 2.624-2 1.562-1.188 3.062-2.406 4.624-3.624 0.75-0.594 1.438-1.188 2.188-1.75a456.392 456.392 0 0 0 16.188-13.75c0.438-0.406 0.938-0.812 1.376-1.188a217.78 217.78 0 0 0 4.81-4.438c0.562-0.532 1.188-1.062 1.75-1.624 1.624-1.5 3.188-3 4.75-4.532 0.5-0.438 0.938-0.876 1.376-1.282a507.688 507.688 0 0 0 16.188-16.686l0.124-0.124 4.876-5.438c0.376-0.376 0.688-0.75 1-1.124 1.624-1.812 3.188-3.656 4.75-5.5 0.25-0.25 0.5-0.5 0.688-0.75a432.966 432.966 0 0 0 19.686-25.032c0.124-0.218 0.25-0.406 0.438-0.594l4.5-6.376c0.062-0.094 0.188-0.188 0.25-0.312a449.728 449.728 0 0 0 17.688-27.562v-0.062a423.592 423.592 0 0 0 37.624-83.436c-26.562 17.25-55.438 34.438-86.686 51.312-75.438 120.18-209.184 200.148-361.604 200.148-55.686 0-108.84-10.688-157.622-30.094a1673.592 1673.592 0 0 1-30.75 4.844 438.416 438.416 0 0 0 38.718 22.218h0.062a393.3 393.3 0 0 0 20.124 9.53c0.094 0.032 0.188 0.094 0.282 0.124a419.476 419.476 0 0 0 20.438 8.376c0.188 0.094 0.376 0.156 0.562 0.218 6.81 2.562 13.716 5 20.686 7.188 0.312 0.124 0.594 0.218 0.906 0.312l6.656 2.062c0.062 0 0.124 0.032 0.188 0.062 2.376 0.688 4.782 1.406 7.218 2.062 0 0 0.094 0.062 0.156 0.062 2.218 0.624 4.406 1.188 6.624 1.812 0.438 0.094 0.844 0.188 1.25 0.312 2.062 0.5 4.124 1.062 6.218 1.562l0.75 0.188c2.376 0.562 4.782 1.124 7.156 1.624 0.124 0.062 0.25 0.062 0.376 0.094l6.5 1.406c0.532 0.094 1.062 0.188 1.562 0.312 1.938 0.376 3.876 0.75 5.844 1.124 0.406 0.062 0.812 0.156 1.25 0.218 2.344 0.438 4.718 0.844 7.124 1.25 0.156 0.032 0.344 0.062 0.532 0.094 2.124 0.344 4.25 0.688 6.406 1 0.624 0.094 1.218 0.188 1.844 0.25a169.38 169.38 0 0 0 5.53 0.782c0.532 0.094 1.094 0.156 1.656 0.218 2.344 0.312 4.718 0.594 7.094 0.844 0.188 0.032 0.376 0.032 0.594 0.062 2.124 0.218 4.282 0.468 6.438 0.656 0.688 0.062 1.376 0.124 2.032 0.188 1.782 0.156 3.562 0.312 5.344 0.438 0.656 0.062 1.312 0.094 1.938 0.124 2.376 0.188 4.75 0.344 7.124 0.468 0.156 0.032 0.312 0.032 0.438 0.032 2.25 0.124 4.468 0.218 6.688 0.312 0.716 0 1.436 0.062 2.154 0.062 1.75 0.062 3.5 0.124 5.282 0.124a45.8 45.8 0 0 0 2.124 0.062c2.376 0.062 4.782 0.062 7.188 0.062 3.344 0 6.718-0.062 10.062-0.124 1.064 0.01 2.128-0.054 3.158-0.084z" fill="#8CC153" /></svg>