<?xml version="1.0" standalone="no"?><!DOCTYPE svg PUBLIC "-//W3C//DTD SVG 1.1//EN" "http://www.w3.org/Graphics/SVG/1.1/DTD/svg11.dtd"><svg class="icon" width="128px" height="128.00px" viewBox="0 0 1024 1024" version="1.1" xmlns="http://www.w3.org/2000/svg"><path d="M426.666 183.102V106.666c0-47.062 38.28-85.342 85.326-85.342 47.06 0 85.31 38.28 85.31 85.342v76.436h-170.636z" fill="#FFCE54" /><path d="M511.992 0.012c-58.906 0-106.67 47.748-106.67 106.654v97.778h213.356V106.666c0-58.906-47.782-106.654-106.686-106.654z m63.998 161.778h-127.996V106.666c0-35.282 28.716-64 63.998-64 35.28 0 63.998 28.718 63.998 64v55.124z" fill="#F6BB42" /><path d="M277.326 554.656c0 235.65 170.668 469.332 234.666 469.332s234.682-233.682 234.682-469.332c0-235.622-105.06-426.648-234.682-426.648-129.592 0-234.666 191.028-234.666 426.648z" fill="#48CFAD" /><path d="M511.992 128.008c-6.734 0-13.406 0.532-20 1.562 120.248 18.436 214.682 201.714 214.682 425.084 0 214.12-140.934 426.616-214.682 463.644 7.406 3.718 14.156 5.688 20 5.688 63.998 0 234.682-233.682 234.682-469.332 0-235.618-105.06-426.646-234.682-426.646z" fill="#37BC9B" /><path d="M278.014 521.876c242.04 0.876 397.316-96.342 449.722-135.248-16.656-70.624-43.5-131.434-77.186-176.278-23.376 27.656-104.06 96.278-329.946 97.372-23.982 61.344-39.264 134.718-42.59 214.154z" fill="#5D9CEC" /><path d="M692.862 410.314c14.438-9.032 26.124-17.188 34.876-23.686 0-0.032 0-0.062-0.032-0.124a443.46 443.46 0 0 0-2.844-11.562c-0.188-0.75-0.376-1.5-0.562-2.282-0.5-1.782-0.938-3.53-1.438-5.312-0.124-0.562-0.312-1.124-0.438-1.718-0.938-3.344-1.876-6.656-2.812-9.968l-0.562-1.876c-0.5-1.718-1.032-3.468-1.562-5.218-0.188-0.624-0.376-1.282-0.594-1.938-1.094-3.5-2.188-7-3.312-10.468-0.094-0.218-0.156-0.438-0.218-0.656-0.562-1.75-1.188-3.5-1.75-5.218-0.218-0.624-0.438-1.218-0.624-1.812a534.458 534.458 0 0 0-5.812-16c-0.188-0.5-0.376-1.032-0.562-1.532a517.552 517.552 0 0 0-6.376-15.842c-0.156-0.344-0.312-0.688-0.438-1.032-0.75-1.75-1.5-3.468-2.25-5.188-0.032-0.094-0.062-0.188-0.124-0.312a475.986 475.986 0 0 0-4.812-10.624c-0.032-0.032-0.062-0.062-0.062-0.094a195.786 195.786 0 0 0-2.468-5.156l-0.282-0.562a454.928 454.928 0 0 0-7.656-15.032c-0.094-0.156-0.156-0.312-0.282-0.5a353.872 353.872 0 0 0-8.124-14.438 1.322 1.322 0 0 1-0.156-0.282c-6.654-11.218-13.654-21.75-21.03-31.53-5.062 6-12.876 13.968-24.344 22.78 29.838 47.312 52.994 108.122 66.65 177.182z" fill="#4A89DC" /><path d="M306.84 733.244c26.046 81.81 65.874 154.966 105.06 207.434 143.09-18.782 223.462-68.966 262.398-102.124 18.656-37.404 35.312-78.654 47.938-122.058l22.094-113.374c0.468-4.844 0.844-9.656 1.156-14.5-18.188 17.564-159.87 144.904-438.646 144.622z" fill="#5D9CEC" /><path d="M702.048 623.154c-12.5 95.186-48.936 186.278-90.464 257.494 27.53-14.718 48.092-29.624 62.714-42.094 1.094-2.188 2.188-4.344 3.25-6.562 0.124-0.282 0.25-0.562 0.406-0.844 1.062-2.218 2.124-4.406 3.156-6.624 0.124-0.188 0.188-0.376 0.282-0.532 1-2.156 2.032-4.312 3-6.468 0.094-0.218 0.188-0.406 0.282-0.594 1.032-2.25 2.062-4.5 3.062-6.78l0.376-0.844a694.452 694.452 0 0 0 6.032-13.876c0.156-0.344 0.282-0.688 0.406-1a630.28 630.28 0 0 0 5.75-14.094 13.1 13.1 0 0 0 0.406-1c0.938-2.376 1.876-4.75 2.782-7.124 0.062-0.124 0.094-0.282 0.156-0.406 0.876-2.282 1.75-4.624 2.594-6.938 0.124-0.282 0.218-0.562 0.312-0.844 0.876-2.376 1.75-4.782 2.624-7.218 0.124-0.25 0.188-0.562 0.312-0.812 0.812-2.376 1.656-4.718 2.468-7.062a1.602 1.602 0 0 1 0.156-0.406c0.812-2.438 1.624-4.906 2.468-7.344 0.094-0.376 0.218-0.75 0.344-1.094a750.284 750.284 0 0 0 4.718-14.842c0.124-0.406 0.218-0.782 0.344-1.188l2.25-7.5v-0.062l22.094-113.374c0.218-2.312 0.406-4.594 0.594-6.876 0-0.25 0.032-0.5 0.062-0.718 0.188-2.312 0.376-4.594 0.5-6.906-4.998 4.844-19.404 18.002-43.436 34.532z" fill="#4A89DC" /></svg>