<?xml version="1.0" standalone="no"?><!DOCTYPE svg PUBLIC "-//W3C//DTD SVG 1.1//EN" "http://www.w3.org/Graphics/SVG/1.1/DTD/svg11.dtd"><svg class="icon" width="128px" height="128.00px" viewBox="0 0 1024 1024" version="1.1" xmlns="http://www.w3.org/2000/svg"><path d="M639.996 646.628H384.004c-11.782 0-21.328 9.562-21.328 21.312v238.742c0 11.75 9.546 21.312 21.328 21.312h255.992c11.782 0 21.312-9.562 21.312-21.312v-238.74c0-11.75-9.53-21.314-21.312-21.314z" fill="#AAB2BC" /><path d="M426.674 927.996c-11.782 0-21.344-9.562-21.344-21.312v-176.308c0-11.808 9.562-21.308 21.344-21.308s21.328 9.5 21.328 21.308v176.308c0 11.75-9.546 21.312-21.328 21.312zM512 927.996c-11.782 0-21.328-9.562-21.328-21.312v-149.372c0-11.75 9.546-21.312 21.328-21.312s21.328 9.562 21.328 21.312v149.372c0 11.75-9.546 21.312-21.328 21.312zM597.308 927.996c-11.75 0-21.312-9.562-21.312-21.312v-121.934c0-11.75 9.562-21.312 21.312-21.312 11.812 0 21.376 9.562 21.376 21.312v121.934c0 11.75-9.562 21.312-21.376 21.312z" fill="#959CA3" /><path d="M1002.672 309.342h-53.374c-11.748 0-21.31-9.532-21.31-21.312 0-11.812 9.562-21.342 21.31-21.342h53.374c11.75 0 21.312 9.53 21.312 21.342 0 11.782-9.562 21.312-21.312 21.312zM74.684 309.342H21.342c-11.782 0-21.326-9.532-21.326-21.312a21.316 21.316 0 0 1 21.326-21.342h53.342a21.318 21.318 0 0 1 21.328 21.342c0 11.782-9.548 21.312-21.328 21.312z" fill="#AAB2BC" /><path d="M978.64 256.344a21.36 21.36 0 0 0-16.624-10.906l-447.986-42.656a22.05 22.05 0 0 0-4.046 0L61.998 245.438a21.366 21.366 0 0 0-16.64 10.906 21.346 21.346 0 0 0-0.422 19.874l42.67 85.342a21.328 21.328 0 0 0 15.562 11.5l238.164 39.686v280.572c0 8.562 5.094 16.25 12.938 19.624l298.664 127.996c2.688 1.188 5.562 1.75 8.376 1.75a21.02 21.02 0 0 0 11.75-3.562 21.308 21.308 0 0 0 9.624-17.812V412.746l238.15-39.686a21.328 21.328 0 0 0 15.562-11.5l42.652-85.342a21.3 21.3 0 0 0-0.408-19.874z" fill="#CACFD6" /><path d="M661.278 216.814l-147.246-14.03a22.05 22.05 0 0 0-4.046 0L234.68 229c305.694 246.87 469.252 44.282 426.598-12.186z" fill="#AAB2BC" /><path d="M639.996 147.878c0 82.686-79.28 158.746-127.996 158.746s-127.996-76.06-127.996-158.746c0-82.654 57.31-137.184 127.996-137.184 70.684 0 127.996 54.53 127.996 137.184z" fill="#E6E9ED" /><path d="M746.68 1013.304H277.334c-11.78 0-21.326-9.5-21.326-21.312v-85.308c0-11.812 9.546-21.376 21.326-21.376H746.68c11.75 0 21.312 9.562 21.312 21.376v85.308c0 11.812-9.562 21.312-21.312 21.312z" fill="#ED5564" /></svg>