<?xml version="1.0" standalone="no"?><!DOCTYPE svg PUBLIC "-//W3C//DTD SVG 1.1//EN" "http://www.w3.org/Graphics/SVG/1.1/DTD/svg11.dtd"><svg class="icon" width="128px" height="128.00px" viewBox="0 0 1024 1024" version="1.1" xmlns="http://www.w3.org/2000/svg"><path d="M512.024 170.682c-11.81 0-21.342-9.562-21.342-21.344V21.342c0-11.782 9.532-21.326 21.342-21.326 11.784 0 21.314 9.544 21.314 21.326v127.996c0 11.782-9.532 21.344-21.314 21.344z" fill="#F6BB42" /><path d="M554.696 85.34h-85.358c-11.782 0-21.312-9.546-21.312-21.326 0-11.782 9.532-21.328 21.312-21.328h85.358c11.75 0 21.31 9.546 21.31 21.328 0 11.778-9.56 21.326-21.31 21.326z" fill="#FFCE54" /><path d="M512.024 426.674c-5.906 0-10.686-9.562-10.686-21.342v-63.998c0-11.782 4.78-21.328 10.686-21.328 5.876 0 10.658 9.546 10.658 21.328v63.998c0 11.78-4.782 21.342-10.658 21.342z" fill="#434A54" /><path d="M469.338 283.568h85.358v57.766h-85.358z" fill="#FFCE54" /><path d="M615.068 265.508l-85.292-127.996a21.35 21.35 0 0 0-17.752-9.5 21.27 21.27 0 0 0-17.748 9.5l-85.342 127.996a21.27 21.27 0 0 0-3.594 11.826v127.998c0 11.78 9.562 21.342 21.344 21.342h170.634c11.812 0 21.376-9.562 21.376-21.342v-127.998c0-4.202-1.25-8.326-3.626-11.826z m-39.062 118.496h-127.98v-100.202l63.998-95.996 63.982 95.996v100.202z" fill="#EAAD7A" /><path d="M597.318 298.678h-170.634a21.362 21.362 0 0 1-18.812-11.266 21.306 21.306 0 0 1 1.062-21.904l85.342-127.996a21.27 21.27 0 0 1 17.748-9.5c7.126 0 13.784 3.562 17.752 9.5l85.292 127.996a21.23 21.23 0 0 1 1.062 21.904 21.326 21.326 0 0 1-18.812 11.266z" fill="#ED5564" /><path d="M384.028 682.682h-63.998c-11.812 0-21.342-9.56-21.342-21.374v-170.636a21.33 21.33 0 0 1 21.342-21.342h63.998c11.782 0 21.312 9.56 21.312 21.342v170.636c0 11.814-9.532 21.374-21.312 21.374zM704.004 682.682h-63.998c-11.812 0-21.312-9.56-21.312-21.374v-170.636c0-11.782 9.5-21.342 21.312-21.342h63.998c11.81 0 21.31 9.56 21.31 21.342v170.636c0 11.814-9.5 21.374-21.31 21.374z" fill="#965353" /><path d="M384.028 533.328h-85.34v42.67h85.34c11.782 0 21.312-9.562 21.312-21.312 0-11.796-9.532-21.358-21.312-21.358zM640.006 575.998h85.308v-42.67h-85.308c-11.812 0-21.312 9.562-21.312 21.358 0 11.75 9.5 21.312 21.312 21.312zM725.314 512H298.688c-11.782 0-21.344-9.546-21.344-21.328s9.562-21.342 21.344-21.342h426.626c11.812 0 21.376 9.56 21.376 21.342S737.126 512 725.314 512z" fill="#7F4545" /><path d="M640.006 384.004H384.028a21.318 21.318 0 0 0-21.342 21.328v255.976c0 11.812 9.53 21.374 21.342 21.374h255.978c11.812 0 21.312-9.56 21.312-21.374V405.332c0-11.782-9.5-21.328-21.312-21.328z" fill="#F4BE8E" /><path d="M320.03 725.304H106.692c-11.78 0-21.342 9.562-21.342 21.376v255.992c0 11.75 9.562 21.312 21.342 21.312h213.338c11.782 0 21.312-9.562 21.312-21.312V746.68c0-11.812-9.532-21.376-21.312-21.376zM917.31 725.304H704.004c-11.812 0-21.312 9.562-21.312 21.376v255.992c0 11.75 9.5 21.312 21.312 21.312h213.306c11.812 0 21.376-9.562 21.376-21.312V746.68a21.366 21.366 0 0 0-21.376-21.376z" fill="#965353" /><path d="M715.376 643.246l-13.56-8.468-167.26-112.48a21.306 21.306 0 0 0-20.532-1.812l-53.312 23.576c-1.062 0.438-2.094 1-3.062 1.624l-149.308 97.81a21.26 21.26 0 0 0-9.654 17.812v341.364c0 11.75 9.53 21.312 21.342 21.312h383.974c11.81 0 21.31-9.562 21.31-21.312V661.308a21.42 21.42 0 0 0-9.938-18.062z" fill="#FFD2A6" /><path d="M512.024 810.68c-35.374 0-63.998 28.624-63.998 63.996v127.996h127.98v-127.996c0-35.374-28.624-63.996-63.982-63.996z" fill="#ED5564" /><path d="M554.696 704.682c0 23.56-19.108 42.624-42.672 42.624-23.592 0-42.686-19.062-42.686-42.624s19.094-42.686 42.686-42.686c23.564 0 42.672 19.124 42.672 42.686z" fill="#5D9CEC" /><path d="M512.024 640.684c-35.31 0-63.998 28.688-63.998 63.998 0 35.248 28.688 63.998 63.998 63.998 35.296 0 63.982-28.75 63.982-63.998 0-35.31-28.686-63.998-63.982-63.998z m0 85.308c-11.78 0-21.342-9.56-21.342-21.31 0-11.782 9.562-21.376 21.342-21.376 11.752 0 21.314 9.594 21.314 21.376 0 11.75-9.562 21.31-21.314 21.31z" fill="#F4BE8E" /><path d="M149.348 810.68h85.342v127.996H149.348z" fill="#5D9CEC" /><path d="M234.69 959.986H149.348c-11.782 0-21.312-9.56-21.312-21.31V810.68c0-11.812 9.532-21.376 21.312-21.376h85.342c11.78 0 21.342 9.562 21.342 21.376v127.996c0 11.75-9.564 21.31-21.342 21.31z m-64-42.686h42.656v-85.31H170.69v85.31z" fill="#7F4545" /><path d="M789.314 810.68h85.372v127.996h-85.372z" fill="#5D9CEC" /><path d="M874.686 959.986h-85.372c-11.75 0-21.312-9.56-21.312-21.31V810.68c0-11.812 9.562-21.376 21.312-21.376h85.372c11.75 0 21.312 9.562 21.312 21.376v127.996c0 11.75-9.562 21.31-21.312 21.31z m-63.998-42.686h42.624v-85.31h-42.624v85.31z" fill="#7F4545" /><path d="M959.996 1023.984H64.038c-11.812 0-21.344-9.562-21.344-21.312 0-11.812 9.532-21.374 21.344-21.374h895.958c11.812 0 21.31 9.56 21.31 21.374 0 11.75-9.498 21.312-21.31 21.312z" fill="#656D78" /><path d="M277.376 701.62c-7.094 0-14.062-3.532-18.094-10-6.25-10-3.25-23.154 6.75-29.404l234.65-146.964c9.998-6.25 23.156-3.218 29.406 6.766s3.218 23.138-6.75 29.42l-234.682 146.934a21.346 21.346 0 0 1-11.28 3.248z" fill="#ED5564" /><path d="M746.626 701.62c-3.876 0-7.75-1.062-11.25-3.25L500.68 551.436c-9.968-6.282-13-19.436-6.75-29.42s19.404-13.016 29.406-6.766L758 662.214c10 6.25 13 19.404 6.75 29.404-4.06 6.47-10.998 10.002-18.124 10.002z" fill="#ED5564" /></svg>