<?xml version="1.0" standalone="no"?><!DOCTYPE svg PUBLIC "-//W3C//DTD SVG 1.1//EN" "http://www.w3.org/Graphics/SVG/1.1/DTD/svg11.dtd"><svg class="icon" width="128px" height="128.00px" viewBox="0 0 1024 1024" version="1.1" xmlns="http://www.w3.org/2000/svg"><path d="M213.536 725.208H85.618v255.836h127.918c70.642 0 127.918-57.276 127.918-127.918s-57.276-127.918-127.918-127.918z m60.304 188.222c-16.114 16.116-37.506 24.984-60.304 24.984H128.246v-170.578h85.29c22.766 0 44.19 8.87 60.304 24.984 16.116 16.116 24.984 37.54 24.984 60.304 0 22.768-8.868 44.192-24.984 60.306zM810.496 725.208c-70.64 0-127.918 57.276-127.918 127.918s57.278 127.918 127.918 127.918h127.918V725.208h-127.918z m85.258 213.206h-85.258c-47.032 0-85.29-38.256-85.29-85.29s38.258-85.29 85.29-85.29h85.258v170.58z" fill="#DA4453" /><path d="M972.208 260.224h0.032l0.092 0.094c-0.216-0.188-22.268-16.896-24.078-41.318-1.248-17.114 7.682-35.416 26.576-54.372 28.202-28.326 41.288-57.994 38.852-88.224-3.56-44.128-39.912-70.892-41.442-72.018h-0.032a21.258 21.258 0 0 0-12.492-4.058c-11.744 0-21.3 9.556-21.3 21.33 0 7.088 3.498 13.366 8.84 17.238l-0.032 0.032-0.124-0.094c0.25 0.156 22.296 16.896 24.11 41.318 1.248 17.114-7.684 35.416-26.578 54.372-28.2 28.324-41.286 57.994-38.85 88.194 3.56 44.126 39.912 70.922 41.444 72.046l0.032-0.032a21.04 21.04 0 0 0 12.46 4.092c11.804 0 21.328-9.556 21.328-21.33-0.004-7.12-3.468-13.368-8.838-17.27z" fill="#CCD1D9" /><path d="M1006.872 476.148s-28.886 48.656-119.392 60.43c-77.232 10.054-187.038 19.364-328.946 19.364-308.272 0-558.206-57.558-558.206-128.574 0-70.986 249.934-128.542 558.206-128.542 110.584 0 234.038 11.868 325.948 23.078 82.228 10.056 115.05 39.788 115.05 39.788l7.34 114.456z" fill="#A85D5D" /><path d="M679.238 302.758c-40.54-2.436-81.418-3.934-120.706-3.934-75.078 0-146.656 3.404-212.052 9.588 18.458 55.714 85.57 97 165.518 97 82.7 0 151.592-44.128 167.24-102.654z" fill="#FFCE54" /><path d="M558.534 341.454c110.584 0 234.038 11.868 325.948 23.11 82.228 10.026 115.05 39.756 115.05 39.756l4.84 75.42c1.718-2.25 2.5-3.59 2.5-3.59l-7.34-114.458s-32.822-29.73-115.05-39.788c-91.91-11.21-215.364-23.078-325.948-23.078-308.272 0-558.206 57.556-558.206 128.542 0 7.276 2.624 14.396 7.652 21.33 44.096-60.868 273.792-107.244 550.554-107.244z" fill="#FFFFFF" opacity=".2" /><path d="M1023.672 341.454s-56.962-9.494-139.192-19.55c-6.152 21.268-16.8 69.238-7.714 125.264 9.122 56.184 10.588 80.262 10.712 89.412 90.506-11.776 136.194-24.58 136.194-24.58v-170.546z" fill="#E6E9ED" /><path d="M831.796 426.742c-11.744 0-21.3 9.526-21.3 21.298s9.556 21.33 21.3 21.33h54.684v-42.628h-54.684z" fill="#E6E9ED" /><path d="M810.496 746.538h42.628v-42.66c0-11.774-9.524-21.298-21.328-21.298H192.206a21.284 21.284 0 0 0-21.298 21.298v42.66h42.628c28.482 0 55.246 11.086 75.39 31.2 20.112 20.142 31.198 46.906 31.198 75.388s-11.086 55.246-31.198 75.358c-20.144 20.144-46.908 31.23-75.39 31.23H170.906v42.66a21.284 21.284 0 0 0 21.298 21.298h639.592c11.804 0 21.328-9.526 21.328-21.298v-42.66h-42.628c-58.774 0-106.62-47.812-106.62-106.588s47.846-106.588 106.62-106.588zM512 917.084c-35.258 0-63.958-28.7-63.958-63.958 0-35.258 28.7-63.958 63.958-63.958 35.29 0 63.958 28.702 63.958 63.958 0 35.258-28.668 63.958-63.958 63.958z" fill="#ED5564" /><path d="M512 767.836c-47.094 0-85.258 38.196-85.258 85.29 0 47.096 38.164 85.29 85.258 85.29 47.124 0 85.29-38.194 85.29-85.29 0-47.094-38.166-85.29-85.29-85.29z m0 127.918c-23.484 0-42.628-19.114-42.628-42.628s19.144-42.628 42.628-42.628c23.516 0 42.66 19.114 42.66 42.628s-19.144 42.628-42.66 42.628z" fill="#DA4453" /></svg>