<?xml version="1.0" standalone="no"?><!DOCTYPE svg PUBLIC "-//W3C//DTD SVG 1.1//EN" "http://www.w3.org/Graphics/SVG/1.1/DTD/svg11.dtd"><svg class="icon" width="128px" height="128.00px" viewBox="0 0 1024 1024" version="1.1" xmlns="http://www.w3.org/2000/svg"><path d="M874.646 757.344H149.322c-11.78 0-21.312-9.562-21.312-21.344s9.532-21.344 21.312-21.344h725.324c11.782 0 21.342 9.562 21.342 21.344s-9.56 21.344-21.342 21.344z" fill="#434A54" /><path d="M170.666 970.648H42.668V416.006h127.996v554.642zM981.298 970.648h-127.996V416.006h127.996v554.642z" fill="#656D78" /><path d="M42.668 885.338h127.996v85.31H42.668zM853.302 885.338h127.996v85.31h-127.996z" fill="#434A54" /><path d="M642.934 316.166c0 50.904-41.282 92.154-92.152 92.154-50.906 0-92.156-41.25-92.156-92.154 0-50.906 41.25-92.154 92.156-92.154 50.87 0 92.152 41.248 92.152 92.154z" fill="#CCD1D9" /><path d="M795.552 377.82a21.35 21.35 0 0 0 30.188 0c8.312-8.344 8.312-21.842 0-30.186l-32-32a21.244 21.244 0 0 0-16.06-6.188 209.3 209.3 0 0 0-1.032-8.812l22.904 13.218a21.248 21.248 0 0 0 10.656 2.876c7.344 0 14.532-3.844 18.468-10.688 5.906-10.188 2.406-23.25-7.782-29.124l-39.216-22.656c-5.376-3.094-11.562-3.562-17.062-1.844a223.09 223.09 0 0 0-3.282-8.218l25.53 6.844c1.844 0.5 3.688 0.718 5.532 0.718 9.406 0 18.032-6.282 20.594-15.812 3.032-11.376-3.718-23.062-15.094-26.124l-43.716-11.718a21.296 21.296 0 0 0-16.998 2.688 190.672 190.672 0 0 0-5.312-7.124h26.466c11.782 0 21.312-9.562 21.312-21.342 0-11.782-9.532-21.344-21.312-21.344h-45.246c-6.282 0-11.876 2.718-15.782 7a301.25 301.25 0 0 0-6.938-5.532l25.562-6.844c11.374-3.032 18.124-14.75 15.06-26.124-3.032-11.374-14.716-18.124-26.124-15.092l-43.688 11.718a21.314 21.314 0 0 0-13.406 10.812 271.088 271.088 0 0 0-8.156-3.532l22.906-13.218c10.218-5.876 13.718-18.936 7.812-29.124-5.906-10.218-18.938-13.718-29.156-7.812L601.996 95.86c-5.404 3.124-8.904 8.282-10.154 13.938a277.192 277.192 0 0 0-8.812-1.282l18.748-18.75c8.344-8.344 8.344-21.844 0-30.156-8.31-8.344-21.842-8.344-30.154 0l-31.998 32a21.054 21.054 0 0 0-6.188 16.124c-2.968 0.282-5.938 0.624-8.876 1.032l13.25-23c5.906-10.188 2.406-23.25-7.782-29.124-10.218-5.906-23.25-2.406-29.156 7.812L478.25 103.64a21.2 21.2 0 0 0-1.812 17.156c-2.78 1.032-5.53 2.124-8.28 3.25l6.876-25.562c3.03-11.374-3.718-23.092-15.094-26.124-11.376-3.062-23.094 3.688-26.124 15.062l-11.718 43.716c-1.624 6.062-0.438 12.186 2.688 17.062-2.406 1.718-4.782 3.5-7.156 5.312V126.984c0-11.782-9.562-21.312-21.312-21.312-11.81 0-21.342 9.53-21.342 21.312v45.28c0 6.25 2.718 11.874 7.032 15.78a283.614 283.614 0 0 0-5.562 6.968l-6.844-25.624c-3.062-11.376-14.75-18.124-26.156-15.062-11.376 3.032-18.124 14.75-15.062 26.124l11.718 43.686c1.594 6.062 5.656 10.782 10.812 13.438a241.46 241.46 0 0 0-3.532 8.156l-13.218-22.938c-5.906-10.218-18.938-13.688-29.156-7.812-10.188 5.906-13.688 18.938-7.812 29.156l22.624 39.186a21.37 21.37 0 0 0 13.968 10.156 291.262 291.262 0 0 0-1.282 8.812l-18.75-18.75a21.334 21.334 0 0 0-30.186 0c-8.312 8.344-8.312 21.844 0 30.156l32 32a21.216 21.216 0 0 0 15.094 6.25c0.344 0 0.688-0.032 1.032-0.032 0.282 2.938 0.624 5.906 1.032 8.844l-22.968-13.25c-10.218-5.906-23.25-2.406-29.156 7.782-5.876 10.218-2.376 23.25 7.812 29.154l39.186 22.624a21.334 21.334 0 0 0 10.656 2.876 21.76 21.76 0 0 0 6.5-1.032c1 2.782 2.094 5.5 3.25 8.25l-25.562-6.844c-11.376-3.062-23.062 3.688-26.124 15.062-3.062 11.376 3.718 23.092 15.092 26.124l43.718 11.718c1.844 0.5 3.688 0.75 5.532 0.75 4.124 0 8.124-1.218 11.5-3.406a227.534 227.534 0 0 0 5.282 7.124h-26.468c-11.782 0-21.344 9.562-21.344 21.344s9.562 21.312 21.344 21.312h45.248a21.24 21.24 0 0 0 15.75-6.968 280.62 280.62 0 0 0 6.968 5.5l-25.562 6.876c-11.374 3.032-18.124 14.718-15.092 26.124 2.562 9.532 11.188 15.812 20.592 15.812 1.844 0 3.688-0.25 5.532-0.75l43.718-11.688a21.214 21.214 0 0 0 13.376-10.782 207.44 207.44 0 0 0 8.124 3.5l-22.876 13.218c-10.188 5.876-13.686 18.938-7.782 29.124a21.28 21.28 0 0 0 18.468 10.688c3.624 0 7.312-0.938 10.656-2.876l39.186-22.624a21.284 21.284 0 0 0 10.156-13.906c2.906 0.5 5.844 0.906 8.782 1.282l-18.718 18.718c-8.312 8.312-8.312 21.844 0 30.156a21.35 21.35 0 0 0 30.188 0l31.998-32a21.2 21.2 0 0 0 6.188-16.062c2.938-0.25 5.876-0.624 8.812-1l-13.218 22.876c-5.876 10.218-2.376 23.25 7.812 29.156a21.296 21.296 0 0 0 10.656 2.844c7.376 0 14.53-3.812 18.498-10.656l22.624-39.188a21.37 21.37 0 0 0 1.844-17.062 297.828 297.828 0 0 0 8.218-3.25l-6.844 25.468c-3.032 11.376 3.718 23.062 15.094 26.124 1.844 0.5 3.688 0.718 5.532 0.718 9.406 0 18.032-6.282 20.594-15.812l11.718-43.718c1.594-6 0.468-12.094-2.656-16.97a185.152 185.152 0 0 0 7.124-5.25v26.376c0 11.782 9.532 21.344 21.312 21.344 11.78 0 21.342-9.562 21.342-21.344v-45.25c0-6.218-2.688-11.812-6.968-15.718a192.59 192.59 0 0 0 5.5-6.938l6.844 25.5c2.562 9.532 11.188 15.812 20.592 15.812 1.812 0 3.688-0.218 5.532-0.718 11.376-3.062 18.154-14.75 15.094-26.124l-11.718-43.718c-1.594-6-5.624-10.688-10.75-13.374a206.2 206.2 0 0 0 3.5-8.094l13.188 22.842a21.334 21.334 0 0 0 18.498 10.656c3.624 0 7.282-0.906 10.656-2.876 10.188-5.874 13.688-18.936 7.812-29.124l-22.656-39.186c-3.094-5.406-8.216-8.906-13.874-10.156 0.5-2.906 0.906-5.842 1.282-8.75l18.68 18.692z m-240.99 16.78c-35.344 0-64-28.656-64-63.998 0-35.344 28.656-64 64-64 35.374 0 63.996 28.656 63.996 64S589.936 394.6 554.562 394.6z" fill="#E5E8EC" /><path d="M533.25 160.014H64.012c-11.812 0-21.342 9.562-21.342 21.342v170.652c0 11.78 9.532 21.342 21.342 21.342h469.238c11.782 0 21.312-9.562 21.312-21.342V181.356c0-11.78-9.53-21.342-21.312-21.342z" fill="#FECD57" /><path d="M169.884 245.356H42.668v42.654h127.214c44 0 77.78-23.686 95.124-66.686 12.186-30.156 12.312-60.06 12.312-61.31h-42.656c0 0.218-0.25 23.156-9.218 45.342-10.842 26.906-29.03 40-55.56 40zM554.562 266.666h-170.558a21.332 21.332 0 0 0-21.344 21.342c0 11.782 9.532 21.344 21.344 21.344h170.558v-42.686z" fill="#F6BB42" /><path d="M1002.642 330.666H21.326c-11.78 0-21.312 9.562-21.312 21.342v85.34a21.3 21.3 0 0 0 21.312 21.312h981.318c11.782 0 21.344-9.532 21.344-21.312v-85.34c-0.002-11.78-9.564-21.342-21.346-21.342z" fill="#FC6E51" /></svg>