<?xml version="1.0" standalone="no"?><!DOCTYPE svg PUBLIC "-//W3C//DTD SVG 1.1//EN" "http://www.w3.org/Graphics/SVG/1.1/DTD/svg11.dtd"><svg class="icon" width="128px" height="128.00px" viewBox="0 0 1024 1024" version="1.1" xmlns="http://www.w3.org/2000/svg"><path d="M597.34 127.996h42.656v42.67H597.34z" fill="#C63449" /><path d="M767.992 170.666H597.34l42.656-42.67-42.656-21.328h170.652l-21.312 32z" fill="#DA4453" /><path d="M533.328 64.014h106.668v63.982h-106.668z" fill="#ED5564" /><path d="M533.328 255.992c-11.782 0-21.344-9.546-21.344-21.328V21.342c0-11.782 9.564-21.326 21.344-21.326 11.794 0 21.358 9.544 21.358 21.326v213.322c0 11.782-9.562 21.328-21.358 21.328z" fill="#434A54" /><path d="M938.488 999.61l-42.562-468.218a21.346 21.346 0 0 0-21.25-19.406H191.994c-11.032 0-20.218 8.422-21.218 19.406L128.088 1000.704a21.38 21.38 0 0 0 5.5 16.312 21.272 21.272 0 0 0 15.75 6.968H917.364c11.782 0 21.312-9.562 21.312-21.344 0-1.03-0.062-2.03-0.188-3.03z" fill="#E6E9ED" /><path d="M938.676 558.498v-25.17c0-6.594-3.062-12.796-8.25-16.844L546.436 217.82a21.366 21.366 0 0 0-26.202 0L136.244 516.484a21.378 21.378 0 0 0-8.25 16.844v25.17h810.682z" fill="#DA4453" /><path d="M746.68 533.328L533.328 213.336 319.99 533.328z" fill="#E6E9ED" /><path d="M742.618 1008.984c-0.188-0.376-20.656-44.498-40.81-114.684-18.468-64.248-40.466-164.184-40.466-275.648v-42.654H405.332v42.654c0 214.9-80.466 388.614-81.278 390.332l-7.032 15h47.092c11.156-25.032 83.872-195.838 83.872-405.332h170.698c0 209.494 72.716 380.3 83.874 405.332h47.092l-7.032-15z" fill="#DA4453" /><path d="M21.342 1023.984c-2.032 0-4.094-0.312-6.124-0.906-11.282-3.406-17.686-15.282-14.312-26.562l127.998-426.768c3.406-11.25 15.28-17.688 26.562-14.312 11.282 3.406 17.686 15.312 14.312 26.562l-128 426.768a21.35 21.35 0 0 1-20.436 15.218zM1002.64 1023.984c-9.968 0-18.876-7.032-20.906-17.156L896.426 580.06c-2.312-11.532 5.156-22.782 16.718-25.094s22.782 5.188 25.094 16.75l85.34 426.736c2.312 11.562-5.188 22.782-16.718 25.094a19.666 19.666 0 0 1-4.22 0.438z" fill="#FFD2A6" /><path d="M702.556 1023.984c-11.156-25.032-83.874-195.838-83.874-405.332h-170.698c0 209.494-72.716 380.3-83.872 405.332h338.444z" fill="#434A54" /><path d="M191.994 639.996c16.374 0 31.342-6.188 42.686-16.376a63.546 63.546 0 0 0 42.654 16.376 63.552 63.552 0 0 0 42.656-16.376c11.344 10.188 26.312 16.376 42.686 16.376s31.312-6.188 42.654-16.376c11.344 10.188 26.282 16.376 42.656 16.376 16.376 0 31.342-6.188 42.686-16.376a63.552 63.552 0 0 0 42.656 16.376 63.552 63.552 0 0 0 42.668-16.376c11.344 10.188 26.312 16.376 42.688 16.376s31.312-6.188 42.656-16.376c11.344 10.188 26.28 16.376 42.654 16.376 16.374 0 31.342-6.188 42.686-16.376 11.312 10.188 26.282 16.376 42.656 16.376s31.342-6.188 42.654-16.376c11.342 10.188 26.31 16.376 42.686 16.376 35.282 0 64-28.75 64-64.124v-42.544H127.996v42.544c0 35.374 28.716 64.124 63.998 64.124z" fill="#ED5564" /></svg>