<?xml version="1.0" standalone="no"?><!DOCTYPE svg PUBLIC "-//W3C//DTD SVG 1.1//EN" "http://www.w3.org/Graphics/SVG/1.1/DTD/svg11.dtd"><svg class="icon" width="128px" height="128.00px" viewBox="0 0 1024 1024" version="1.1" xmlns="http://www.w3.org/2000/svg"><path d="M120.386 188.936C-53.658 340.606 84.84 630.708 84.84 630.708l256.478 62.214 351.492-436.814c-0.002 0-447.976-175.606-572.424-67.172z" fill="#424953" /><path d="M598.874 405.884c-8.344 8.328-21.876 8.328-30.188 0l-90.498-90.512c-8.328-8.328-8.328-21.828 0-30.156l161.214-161.23c8.344-8.328 21.844-8.328 30.156 0l90.496 90.512a21.256 21.256 0 0 1 0 30.172l-161.18 161.214z" fill="#E5E8EC" /><path d="M725.12 351.902c-56.936-56.906-132.59-88.248-213.072-88.248s-156.152 31.342-213.072 88.248c-56.906 56.92-88.248 132.59-88.248 213.086 0 80.5 31.342 156.152 88.248 213.054 56.92 56.938 132.59 88.282 213.072 88.282s156.136-31.344 213.072-88.282c56.904-56.902 88.246-132.554 88.246-213.054 0-80.496-31.342-156.166-88.246-213.086z" fill="#E5E8EC" /><path d="M313.974 784.2h-56.576c-11.782 0-21.328-9.532-21.328-21.308 0-11.812 9.546-21.344 21.328-21.344h56.576c11.782 0 21.328 9.532 21.328 21.344 0 11.776-9.548 21.308-21.328 21.308zM317.302 843.356c-9.42 0-18.046-6.282-20.592-15.812-3.062-11.376 3.704-23.062 15.078-26.124l54.64-14.656c11.376-3.032 23.078 3.718 26.124 15.094 3.044 11.376-3.704 23.094-15.078 26.124l-54.64 14.656c-1.86 0.498-3.72 0.718-5.532 0.718zM390.504 884.98c-7.376 0-14.546-3.812-18.5-10.656-5.89-10.218-2.39-23.25 7.812-29.156l48.982-28.282c10.202-5.876 23.25-2.376 29.14 7.812 5.89 10.218 2.406 23.25-7.796 29.156l-49 28.282a21.226 21.226 0 0 1-10.638 2.844zM471.938 906.262a21.326 21.326 0 0 1-15.094-6.25c-8.328-8.344-8.328-21.844 0-30.156l40-40c8.344-8.344 21.844-8.344 30.172 0 8.328 8.312 8.328 21.812 0 30.156l-40 40a21.29 21.29 0 0 1-15.078 6.25zM556.124 905.73c-3.624 0-7.312-0.906-10.688-2.876-10.188-5.876-13.672-18.938-7.796-29.124l28.294-49c5.876-10.188 18.938-13.688 29.124-7.812 10.216 5.906 13.686 18.938 7.81 29.156l-28.28 49a21.276 21.276 0 0 1-18.464 10.656zM637.308 883.418c-1.812 0-3.688-0.218-5.532-0.718-11.376-3.062-18.156-14.75-15.094-26.124l14.624-54.656c3.062-11.376 14.75-18.124 26.156-15.062 11.376 3.032 18.124 14.718 15.094 26.124l-14.656 54.624c-2.528 9.53-11.154 15.812-20.592 15.812zM709.934 840.856a21.3 21.3 0 0 1-21.312-21.312v-56.558c0-11.812 9.532-21.344 21.312-21.344a21.312 21.312 0 0 1 21.342 21.344v56.558c0 11.78-9.53 21.312-21.342 21.312zM769.054 780.95a21.32 21.32 0 0 1-20.56-15.808l-14.656-54.624c-3.032-11.376 3.718-23.094 15.094-26.124 11.374-3.062 23.06 3.688 26.124 15.062l14.624 54.656c3.062 11.376-3.688 23.058-15.06 26.122-1.878 0.496-3.722 0.716-5.566 0.716z" fill="#E5E8EC" /><path d="M269.506 726.204c-1.828 0-3.686-0.218-5.546-0.718l-54.64-14.656c-11.376-3.032-18.124-14.75-15.078-26.124s14.75-18.122 26.124-15.09l54.638 14.652c11.376 3.032 18.14 14.75 15.094 26.124-2.56 9.53-11.186 15.812-20.592 15.812z" fill="#F4F6F9" /><path d="M511.922 479.522c-47.046 0-85.326 38.278-85.326 85.34s38.28 85.344 85.326 85.344c47.076 0 85.326-38.282 85.326-85.344s-38.25-85.34-85.326-85.34z" fill="#CCD1D9" /><path d="M527.016 549.77c8.328 8.344 8.328 21.844 0 30.188-8.328 8.312-21.844 8.312-30.172 0-8.328-8.344-8.328-21.844 0-30.188 8.328-8.328 21.844-8.328 30.172 0z" fill="#424953" /><path d="M57.762 273.356c-9.454 21.092-15.828 43.046-19.796 65.264 5.546-5.61 21.266-19.734 48.92-31.782 32.842-14.312 89.716-28.546 174.23-15.094l6.704-42.124c-99.92-15.918-167.918 2.518-210.058 23.736zM189.992 349.198c-71.95 12.032-123.824 43.81-156.964 71.436 0.812 18.25 2.734 36.154 5.39 53.31a265.796 265.796 0 0 1 28.062-25.406c38.014-29.874 81.936-49.138 130.542-57.264l-7.03-42.076zM55.982 551.958a660.736 660.736 0 0 0 15.734 47.094c10.828-13.468 47.17-55.938 105.576-97.512L152.54 466.772c-44.42 31.626-76.918 63.638-96.558 85.186z" fill="#646C77" /><path d="M298.678 223.608c-213.338 98.81-149.34 469.314-149.34 469.314h191.98c-26.812-35.652-42.718-79.996-42.718-128.058 0-117.826 95.512-213.336 213.322-213.336 117.824 0 213.322 95.512 213.322 213.336 0 48.062-15.874 92.406-42.686 128.058h192.12s21.31-469.314-319.99-469.314H298.678z" fill="#5E9CEA" /><path d="M1002.674 671.614h-21.376c0-11.782-9.532-21.344-21.312-21.344s-21.312 9.562-21.312 21.344H21.34c-11.78 0-21.328 9.528-21.328 21.308s9.546 21.344 21.328 21.344h981.334c11.75 0 21.312-9.562 21.312-21.344s-9.562-21.308-21.312-21.308z" fill="#424953" /></svg>