<?xml version="1.0" standalone="no"?><!DOCTYPE svg PUBLIC "-//W3C//DTD SVG 1.1//EN" "http://www.w3.org/Graphics/SVG/1.1/DTD/svg11.dtd"><svg class="icon" width="128px" height="128.00px" viewBox="0 0 1024 1024" version="1.1" xmlns="http://www.w3.org/2000/svg"><path d="M699.622 69.624c-40.844-14.014-131.998 161.808-456.852 473.474l304.356 304.336c87.872-71.028 328.18-271.274 476.864-453.474-0.002 0-282.246-309.882-324.368-324.336z m16.75 103.794c0 11.796-9.532 21.344-21.312 21.344s-21.344-9.562-21.344-21.344 9.562-21.328 21.344-21.328 21.312 9.548 21.312 21.328z" fill="#CCD1D9" /><path d="M132.194 953.872c41.358 12.936 45.952-76.124 45.952-76.124l140.122-140.122 90.716-28.312-166.278-166.152s-188.964 187.434-211.12 209.59c-22.17 22.154-94.622 140.15 100.608 201.12z" fill="#965353" /><path d="M120.492 829.654c11.78 0 21.328-9.532 21.328-21.312 0-11.78-9.546-21.342-21.328-21.342s-21.344 9.532-21.344 21.31c0 11.814 9.562 21.344 21.344 21.344zM180.834 769.312c11.782 0 21.328-9.532 21.328-21.344 0-11.782-9.546-21.312-21.328-21.312s-21.342 9.532-21.342 21.312c0 11.814 9.56 21.344 21.342 21.344zM241.176 708.968c11.78 0 21.328-9.562 21.342-21.342-0.016-11.782-9.562-21.312-21.342-21.312-11.782 0-21.328 9.532-21.328 21.312-0.014 11.78 9.548 21.342 21.328 21.342zM489.342 789.656l57.784 57.778c87.872-71.028 328.18-271.274 476.864-453.474 0 0-22.406-24.592-55.532-60.248-137.31 159.918-375.898 368.038-479.116 455.944z" fill="#E6E9ED" /></svg>