<?xml version="1.0" standalone="no"?><!DOCTYPE svg PUBLIC "-//W3C//DTD SVG 1.1//EN" "http://www.w3.org/Graphics/SVG/1.1/DTD/svg11.dtd"><svg class="icon" width="128px" height="128.00px" viewBox="0 0 1024 1024" version="1.1" xmlns="http://www.w3.org/2000/svg"><path d="M938.672 503.626H85.36c-23.53 0-42.67 19.156-42.67 42.686v319.984c0 20.938 14.968 41.688 34.828 48.312l23.53 7.844c6.328 2.124 13.89 3.218 21.858 3.218 12.328 0 24.608-2.624 33.734-7.188l4.5-2.25c1.562-0.75 4.984-1.656 9.546-1.656s7.984 0.906 9.546 1.656l4.5 2.25c10.234 5.124 21.202 6.218 28.624 6.218 7.406 0 18.388-1.094 28.624-6.218l4.5-2.25c1.546-0.75 4.984-1.656 9.532-1.656 4.562 0 8 0.906 9.546 1.656l4.5 2.25c10.234 5.124 21.218 6.218 28.624 6.218 7.406 0 18.39-1.094 28.624-6.218l4.5-2.25c1.562-0.75 4.984-1.656 9.546-1.656 4.546 0 7.984 0.906 9.532 1.656l4.516 2.25c10.218 5.124 21.202 6.218 28.608 6.218 7.422 0 18.406-1.094 28.624-6.218l4.5-2.25c1.562-0.75 4.984-1.656 9.546-1.656 4.562 0 7.984 0.906 9.546 1.656l4.5 2.25c10.234 5.124 21.202 6.218 28.624 6.218 7.406 0 18.39-1.094 28.608-6.218l4.516-2.25c1.546-0.75 4.984-1.656 9.532-1.656 4.562 0 8 0.906 9.546 1.656l4.5 2.25c10.234 5.124 21.204 6.218 28.64 6.218 7.374 0 18.374-1.094 28.624-6.218l4.5-2.25c1.562-0.75 4.966-1.656 9.53-1.656 4.532 0 7.968 0.906 9.532 1.656l4.5 2.25c10.25 5.124 21.216 6.218 28.624 6.218 7.438 0 18.406-1.094 28.624-6.218l4.5-2.25c1.562-0.75 5-1.656 9.562-1.656s7.968 0.906 9.53 1.656l4.5 2.25c10.218 5.124 21.218 6.218 28.624 6.218 7.406 0 18.406-1.094 28.624-6.218l4.5-2.25c1.532-0.75 4.968-1.656 9.532-1.656s8 0.906 9.562 1.656l4.5 2.25c10.218 5.124 21.188 6.218 28.624 6.218 7.406 0 18.374-1.094 28.624-6.218l4.5-2.25c1.562-0.75 4.968-1.656 9.532-1.656 4.558 0 7.964 0.906 9.528 1.656l4.5 2.25c9.124 4.562 21.438 7.188 33.75 7.188 7.968 0 15.532-1.094 21.876-3.218l23.5-7.844c19.874-6.624 34.842-27.376 34.842-48.312V546.312c-0.008-23.53-19.164-42.686-42.662-42.686z" fill="#E6E9ED" /><path d="M170.684 742.742c-11.78 0-21.328 9.562-21.328 21.344v157.43a53.134 53.134 0 0 0 7.282-3.032l4.5-2.25c1.562-0.75 4.984-1.656 9.546-1.656s7.984 0.906 9.546 1.656l4.5 2.25a54.26 54.26 0 0 0 7.282 3v-157.398c0-11.782-9.546-21.344-21.328-21.344zM575.998 921.484v-76.528c0-11.782-9.562-21.344-21.31-21.344-11.796 0-21.344 9.562-21.344 21.344v76.528c7.906 2.562 15.656 3.218 21.344 3.218 5.654 0.002 13.404-0.656 21.31-3.218zM767.99 695.618c-11.782 0-21.312 9.562-21.312 21.344v204.524a53.412 53.412 0 0 0 7.282-3l4.5-2.25c1.532-0.75 4.968-1.656 9.532-1.656s8 0.906 9.562 1.656l4.5 2.25c2.376 1.218 4.844 2.188 7.282 3V716.96c-0.002-11.78-9.534-21.342-21.346-21.342zM298.68 780.96c-11.78 0-21.328 9.558-21.328 21.34v119.184c7.906 2.562 15.656 3.218 21.328 3.218 5.672 0 13.422-0.656 21.328-3.218V802.3c0-11.78-9.548-21.34-21.328-21.34z" fill="#CCD1D9" /><path d="M874.672 98.33h-597.32c-105.872 0-191.992 86.122-191.992 191.992v85.31h170.65v-85.31c0-11.782 9.578-21.344 21.342-21.344h597.32c47.062 0 85.31-38.278 85.31-85.338 0-47.032-38.248-85.31-85.31-85.31z" fill="#4A89DC" /><path d="M341.35 98.33h426.64v170.648h-426.64z" fill="#656D78" /><path d="M682.682 119.642c11.748 0 21.31-9.532 21.31-21.312h-42.654c0 11.78 9.532 21.312 21.344 21.312zM597.34 119.642c11.782 0 21.344-9.532 21.344-21.312h-42.686c0 11.78 9.562 21.312 21.342 21.312zM512.016 119.642c11.782 0 21.328-9.532 21.328-21.312h-42.67c-0.002 11.78 9.56 21.312 21.342 21.312zM426.692 119.642c11.78 0 21.328-9.532 21.328-21.312h-42.67c-0.002 11.78 9.56 21.312 21.342 21.312z" fill="#434A54" /><path d="M1023.98 546.312H0.02v-170.682c0-23.5 19.14-42.654 42.67-42.654h938.636c23.53 0 42.654 19.154 42.654 42.654v170.682z" fill="#5D9CEC" /><path d="M0.02 396.974h1023.96v42.656H0.02z" fill="#4A89DC" /></svg>