<?xml version="1.0" standalone="no"?><!DOCTYPE svg PUBLIC "-//W3C//DTD SVG 1.1//EN" "http://www.w3.org/Graphics/SVG/1.1/DTD/svg11.dtd"><svg class="icon" width="128px" height="128.00px" viewBox="0 0 1024 1024" version="1.1" xmlns="http://www.w3.org/2000/svg"><path d="M307.916 716.082l283.834-283.834c-16.656-16.656-16.656-43.686 0-60.342 14.654-14.624 37.278-16.406 53.872-5.312l145.872-345.238L21.348 821.672s105.574 75.402 165.916 15.062l30.17-30.156s11.296-71.654 30.154-90.496c18.86-18.844 60.328 0 60.328 0z" fill="#FFD2A6" /><path d="M657.402 378.376c11.094 16.592 9.312 39.216-5.312 53.874-16.656 16.656-43.686 16.656-60.34 0L307.916 716.082s18.86 41.466 0.016 60.342c-18.858 18.842-90.496 30.154-90.496 30.154l-30.17 30.156c-60.342 60.34 15.078 165.93 15.078 165.93l800.296-770.16-345.238 145.872z" fill="#FFD2A6" /><path d="M262.668 731.174c4.578-4.594 23.702-1.376 36.436 4.312a21.32 21.32 0 0 0 23.906-4.312L610.874 443.28a42.5 42.5 0 0 1-19.124-11.032 42.5 42.5 0 0 1-11.032-19.124L302.448 691.394c-18.342-5.562-49.638-10.688-69.936 9.594-6.842 6.844-17.138 20.716-27.732 62.124-3.438 13.438-5.876 25.81-7.218 33.154l-25.39 25.406c-32.718 32.716-86.964 11.468-116.916-4.468L727.024 119.074l-101.588 240.49c9.716 0.812 19.216 4.906 26.654 12.344a42.708 42.708 0 0 1 8.906 13.092l150.152-355.362c4-9.468 0.656-20.438-7.938-26.092a21.28 21.28 0 0 0-27.094 3.03L5.974 806.86a21.324 21.324 0 0 0-5.86 16.75 21.27 21.27 0 0 0 6.156 13.124 19.8 19.8 0 0 0 2.686 2.282c1.172 0.844 29.42 20.872 65.982 33.028 66.434 22.156 105.95 1.25 127.402-20.216l30.17-30.154a21.334 21.334 0 0 0 5.984-11.782c4.846-30.624 15.956-70.5 24.174-78.718z" fill="#F4BE8E" /><path d="M1020.452 220.756a21.366 21.366 0 0 0-26.124-7.906L638.996 363a42.728 42.728 0 0 1 13.094 8.906c7.438 7.438 11.532 16.936 12.344 26.656l240.458-101.59L206.794 968.76c-4.844-9.124-10.186-20.594-14.374-33.188-12.25-36.748-8.906-64.904 9.92-83.746l25.39-25.374c7.358-1.344 19.716-3.782 33.154-7.218 41.42-10.594 55.294-20.906 62.124-27.75 20.294-20.28 15.156-51.592 9.608-69.936L610.874 443.28a42.5 42.5 0 0 1-19.124-11.032 42.5 42.5 0 0 1-11.032-19.124l-287.88 287.866a21.312 21.312 0 0 0-4.328 23.904c5.734 12.624 8.858 31.906 4.328 36.438-8.312 8.312-47.436 19.218-78.732 24.188a21.24 21.24 0 0 0-11.766 5.966l-30.17 30.188c-21.452 21.438-42.374 60.964-20.234 127.4 12.188 36.56 32.202 64.78 33.046 65.966 0.688 0.968 1.454 1.876 2.282 2.688a21.144 21.144 0 0 0 13.108 6.156 21.316 21.316 0 0 0 16.766-5.844L1017.42 247.88c7.438-7.126 8.688-18.53 3.032-27.124z" fill="#F4BE8E" /><path d="M618.404 435.966c-0.938-11.75-11.188-20.532-22.938-19.594l-244.974 19.188c-7.406-2.438-15.858-0.75-21.748 5.156-8.328 8.312-8.328 21.842 0 30.154l1.358 1.376c0.062 0.062 0.11 0.124 0.172 0.188 0.046 0.032 0.094 0.062 0.14 0.124l50.202 50.186c8.328 8.312 21.828 8.312 30.156 0 8.328-8.342 8.328-21.842 0-30.156l-17.578-17.594 205.616-16.092c11.72-0.936 20.5-11.186 19.594-22.936zM553.126 695.27l-51.844-51.874c-8.328-8.312-8.328-21.844 0-30.154 8.328-8.344 21.828-8.344 30.172 0l51.826 51.84a21.332 21.332 0 0 1 0 30.188c-8.312 8.312-21.812 8.312-30.154 0z" fill="#656D78" /><path d="M576.656 447.342c-24.936-24.968-24.936-65.56 0-90.498 12.094-12.092 28.154-18.75 45.248-18.75 17.092 0 33.186 6.656 45.248 18.75 24.966 24.938 24.966 65.53 0 90.498-24.938 24.934-65.528 24.934-90.496 0z m60.34-60.342a21.184 21.184 0 0 0-15.092-6.25 21.15 21.15 0 0 0-15.062 6.25c-8.312 8.312-8.312 21.842 0 30.156s21.842 8.312 30.154 0 8.312-21.844 0-30.156z" fill="#656D78" /></svg>