<?xml version="1.0" standalone="no"?><!DOCTYPE svg PUBLIC "-//W3C//DTD SVG 1.1//EN" "http://www.w3.org/Graphics/SVG/1.1/DTD/svg11.dtd"><svg class="icon" width="128px" height="128.00px" viewBox="0 0 1024 1024" version="1.1" xmlns="http://www.w3.org/2000/svg"><path d="M981.302 469.314H42.674c-11.78 0-21.328 9.56-21.328 21.342V1002.64c0 11.782 9.546 21.344 21.328 21.344h938.628c11.782 0 21.344-9.562 21.344-21.344V490.656c0-11.78-9.562-21.342-21.344-21.342z" fill="#AC92EB" /><path d="M298.668 639.996H128.016c-11.782 0-21.344 9.532-21.344 21.312V1002.64c0 11.782 9.562 21.344 21.344 21.344h170.652c11.78 0 21.342-9.562 21.342-21.344V661.308c0-11.78-9.562-21.312-21.342-21.312z" fill="#A0D468" /><path d="M192.014 831.99c0 11.75-9.562 21.312-21.344 21.312-11.78 0-21.328-9.562-21.328-21.312a21.32 21.32 0 0 1 21.328-21.342c11.782 0 21.344 9.532 21.344 21.342z"  /><path d="M1019.146 434.44l-63.436-84.592a21.308 21.308 0 0 0-17.06-8.53H85.346a21.286 21.286 0 0 0-17.062 8.53L4.286 435.19a21.3 21.3 0 0 0-2.016 22.344 21.334 21.334 0 0 0 19.078 11.782h981.298c11.812 0 21.344-9.562 21.344-21.312a21.26 21.26 0 0 0-4.844-13.564z" fill="#CCD1D9" /><path d="M1002.646 426.658H21.348c-11.782 0-21.328 9.532-21.328 21.344v79.592c0 7.624 4.046 14.656 10.64 18.466a63.976 63.976 0 0 0 32.014 8.594c16.376 0 31.342-6.188 42.67-16.342 11.328 10.154 26.296 16.342 42.67 16.342 16.374 0 31.328-6.188 42.654-16.342 11.328 10.154 26.296 16.342 42.67 16.342 16.376 0 31.328-6.188 42.67-16.342 11.328 10.154 26.28 16.342 42.656 16.342 16.374 0 31.342-6.188 42.67-16.342 11.328 10.154 26.296 16.342 42.67 16.342 16.376 0 31.328-6.188 42.656-16.342 11.328 10.154 26.296 16.342 42.67 16.342 16.374 0 31.328-6.188 42.67-16.342 11.33 10.154 26.282 16.342 42.656 16.342a63.68 63.68 0 0 0 42.654-16.342c11.344 10.154 26.312 16.342 42.688 16.342s31.312-6.188 42.654-16.342c11.312 10.154 26.28 16.342 42.654 16.342s31.344-6.188 42.688-16.342a63.688 63.688 0 0 0 42.654 16.342 63.676 63.676 0 0 0 42.654-16.342c11.344 10.154 26.312 16.342 42.688 16.342s31.312-6.188 42.656-16.342a63.68 63.68 0 0 0 42.652 16.342 63.978 63.978 0 0 0 32.032-8.594 21.32 21.32 0 0 0 10.656-18.466v-79.592c0.004-11.812-9.558-21.344-21.34-21.344z" fill="#F5F7FA" /><path d="M512.004 384.004c-105.872 0-191.994-86.154-191.994-191.994 0-105.874 86.122-191.994 191.994-191.994C617.844 0.016 704 86.138 704 192.01c0 105.84-86.154 191.994-191.996 191.994z" fill="#AC92EB" /><path d="M554.66 106.668h-10.954c0 17.656-14.326 32-32 32-17.67 0-32-14.344-32-32h-10.952l-63.046 16.344 16.454 49.998 25.264-7.468v111.778H576V165.542l25.25 7.468 16.438-49.998-63.028-16.344z" fill="#F5F7FA" /><path d="M1002.646 1023.984H21.348C9.566 1023.984 0.02 1014.422 0.02 1002.64s9.546-21.342 21.328-21.342h981.298c11.782 0 21.344 9.56 21.344 21.342s-9.562 21.344-21.344 21.344z" fill="#434A54" /><path d="M895.994 938.644H384.008c-11.782 0-21.342-9.562-21.342-21.344V661.308c0-11.782 9.562-21.312 21.342-21.312h511.986a21.3 21.3 0 0 1 21.312 21.312V917.3c0 11.782-9.53 21.344-21.312 21.344z" fill="#F5F7FA" /><path d="M405.336 682.65h469.314v213.338H405.336z" fill="#5D9CEC" /><path d="M648.002 895.958h-79.998l63.998-213.308h79.964z" fill="#FFFFFF" opacity=".1" /></svg>