<?xml version="1.0" standalone="no"?><!DOCTYPE svg PUBLIC "-//W3C//DTD SVG 1.1//EN" "http://www.w3.org/Graphics/SVG/1.1/DTD/svg11.dtd"><svg class="icon" width="128px" height="128.00px" viewBox="0 0 1024 1024" version="1.1" xmlns="http://www.w3.org/2000/svg"><path d="M75.498 283.952l1.188 0.876 22.624-36.216c-9.436-5.906-21.936-3.594-28.562 5.562-6.922 9.53-4.798 22.872 4.75 29.778zM865.792 804.056l-594.256-430.7h-72.7l641.93 465.232a21.162 21.162 0 0 0 12.5 4.062c6.622 0 13.122-3.062 17.308-8.812 6.906-9.532 4.782-22.876-4.782-29.782z" fill="#DA4453" /><path d="M752.424 373.356L158.15 804.056c-9.532 6.906-11.656 20.25-4.75 29.782a21.326 21.326 0 0 0 17.296 8.812c4.328 0 8.718-1.312 12.5-4.062L825.14 373.356h-72.716zM947.292 284.828l1.188-0.876c9.53-6.906 11.654-20.25 4.75-29.78-6.624-9.156-19.156-11.468-28.562-5.562l22.624 36.218z" fill="#ED5564" /><path d="M756.612 394.666a21.366 21.366 0 0 1-20.376-15.03l-52.652-170.65c-3.468-11.28 2.844-23.216 14.092-26.686 11.25-3.468 23.188 2.844 26.686 14.092l52.656 170.65c3.468 11.282-2.844 23.218-14.094 26.686a20.974 20.974 0 0 1-6.312 0.938zM511.98 394.666c-11.782 0-21.328-9.532-21.328-21.312v-170.682c0-11.78 9.546-21.31 21.328-21.31s21.344 9.53 21.344 21.31v170.682c0 11.782-9.562 21.312-21.344 21.312zM267.334 394.666c-2.078 0-4.186-0.282-6.28-0.938-11.266-3.468-17.578-15.406-14.094-26.686l52.654-170.65c3.468-11.25 15.422-17.562 26.672-14.092 11.264 3.468 17.576 15.406 14.092 26.686l-52.654 170.65c-2.828 9.156-11.266 15.03-20.39 15.03z" fill="#CCD1D9" /><path d="M1002.632 394.666H21.342a21.326 21.326 0 0 1-18.656-10.968 21.372 21.372 0 0 1 0.578-21.656l106.652-170.65a21.316 21.316 0 0 1 18.092-10.03h767.938c7.344 0 14.188 3.782 18.094 10.03l106.122 169.774a21.28 21.28 0 0 1 3.812 12.188c0.002 11.782-9.56 21.312-21.342 21.312zM59.842 352.012h904.292l-79.998-127.994H139.838l-79.996 127.994z" fill="#E6E9ED" /></svg>