<?xml version="1.0" standalone="no"?><!DOCTYPE svg PUBLIC "-//W3C//DTD SVG 1.1//EN" "http://www.w3.org/Graphics/SVG/1.1/DTD/svg11.dtd"><svg class="icon" width="128px" height="128.00px" viewBox="0 0 1024 1024" version="1.1" xmlns="http://www.w3.org/2000/svg"><path d="M1023.98 810.644c0 11.782-9.562 21.344-21.342 21.344H21.332c-11.782 0-21.312-9.562-21.312-21.344V256.008c0-11.782 9.53-21.342 21.312-21.342H1002.64c11.78 0 21.342 9.562 21.342 21.342v554.636z" fill="#967ADA" /><path d="M1023.98 810.644c0 11.782-9.562 21.344-21.342 21.344H21.332c-11.782 0-21.312-9.562-21.312-21.344V256.008c0-11.782 9.53-21.342 21.312-21.342H1002.64c11.78 0 21.342 9.562 21.342 21.342v554.636z" opacity=".1" /><path d="M1023.98 767.988c0 11.782-9.562 21.344-21.342 21.344H21.332c-11.782 0-21.312-9.562-21.312-21.344V213.354c0-11.78 9.53-21.342 21.312-21.342H1002.64c11.78 0 21.342 9.562 21.342 21.342v554.634z" fill="#967ADA" /><path d="M1023.98 767.988c0 11.782-9.562 21.344-21.342 21.344H21.332c-11.782 0-21.312-9.562-21.312-21.344V213.354c0-11.78 9.53-21.342 21.312-21.342H1002.64c11.78 0 21.342 9.562 21.342 21.342v554.634z" fill="#967ADA" /><path d="M1002.638 192.01H21.332C9.55 192.01 0.02 201.572 0.02 213.352v32.562c15.406 58.966 108.214 330.082 511.012 330.082 403.14 0 497.294-271.584 512.918-330.238v-32.874c-0.25-11.56-9.688-20.874-21.312-20.874z" opacity=".1" /><path d="M1002.638 192.01H21.332c-8.094 0-15.124 4.5-18.75 11.156 15.282 58.812 107.528 330.178 508.45 330.178 401.11 0 494.764-271.584 510.324-330.24a21.312 21.312 0 0 0-18.718-11.094z" fill="#AC92EA" /><path d="M21.332 234.666H1002.64c2.812 0 5.532 0.562 7.968 1.562 5.28-14 8.686-25.406 10.748-33.124a21.306 21.306 0 0 0-18.716-11.092H21.332c-8.094 0-15.124 4.5-18.75 11.156 2.032 7.75 5.376 19.156 10.562 33.156a21.016 21.016 0 0 1 8.188-1.658z" fill="#FFFFFF" opacity=".2" /><path d="M383.036 490.656h255.992v85.34H383.036z" fill="#FECD57" /><path d="M639.028 469.344H383.036a21.298 21.298 0 0 0-21.312 21.312v85.34c0 11.782 9.53 21.344 21.312 21.344h255.992c11.78 0 21.342-9.562 21.342-21.344v-85.34c0-11.78-9.564-21.312-21.342-21.312z m-21.314 85.312H404.38V512h213.334v42.656z" fill="#F5BA45" /><path d="M448.002 494.156h42.656v78.344h-42.656zM533.312 494.156h42.686v78.344h-42.686z" fill="#F5BA45" /></svg>