<?xml version="1.0" standalone="no"?><!DOCTYPE svg PUBLIC "-//W3C//DTD SVG 1.1//EN" "http://www.w3.org/Graphics/SVG/1.1/DTD/svg11.dtd"><svg class="icon" width="128px" height="128.00px" viewBox="0 0 1024 1024" version="1.1" xmlns="http://www.w3.org/2000/svg"><path d="M938.664 853.3H85.336V256.01c0-117.808 95.512-213.32 213.336-213.32h426.624c117.84 0 213.368 95.512 213.368 213.32V853.3z" fill="#424953" /><path d="M383.998 0.02h255.992v115.37H383.998zM234.674 217.338h554.62V1023.98h-554.62z" fill="#424953" /><path d="M490.666 115.39h42.656V1023.98h-42.656z" opacity=".2" /><path d="M128.006 821.302c0 11.812-9.546 21.376-21.328 21.376-11.78 0-21.342-9.562-21.342-21.376 0-11.75 9.562-21.312 21.342-21.312 11.782 0 21.328 9.562 21.328 21.312zM938.664 821.302a21.366 21.366 0 0 1-21.376 21.376c-11.75 0-21.312-9.562-21.312-21.376 0-11.75 9.562-21.312 21.312-21.312 11.814 0 21.376 9.562 21.376 21.312z" fill="#FECD57" /><path d="M639.988 0.02l61.874 42.67-94.936 131.994-94.934-59.294zM383.998 0.02l-61.89 42.67 94.95 131.994 94.934-59.294z" fill="#646C77" /><path d="M554.68 533.328c0 11.796-9.562 21.36-21.36 21.36-11.782 0-21.328-9.562-21.328-21.36 0-11.782 9.546-21.328 21.328-21.328 11.798 0 21.36 9.546 21.36 21.328zM554.68 661.306c0 11.812-9.562 21.376-21.36 21.376-11.782 0-21.328-9.562-21.328-21.376 0-11.75 9.546-21.31 21.328-21.31 11.798 0 21.36 9.56 21.36 21.31zM554.68 405.332c0 11.782-9.562 21.344-21.36 21.344-11.782 0-21.328-9.562-21.328-21.344 0-11.78 9.546-21.328 21.328-21.328 11.798 0 21.36 9.548 21.36 21.328zM554.68 789.302c0 11.812-9.562 21.376-21.36 21.376-11.782 0-21.328-9.562-21.328-21.376 0-11.75 9.546-21.312 21.328-21.312 11.798 0 21.36 9.562 21.36 21.312z" fill="#FECD57" /><path d="M831.982 362.678c0-11.782-9.562-21.344-21.312-21.344-11.812 0-21.376 9.562-21.376 21.344V853.3h42.688V362.678zM234.674 362.678c0-11.782-9.562-21.344-21.344-21.344-11.78 0-21.328 9.562-21.328 21.344V853.3h42.67V362.678z" opacity=".2" /></svg>