<?xml version="1.0" standalone="no"?><!DOCTYPE svg PUBLIC "-//W3C//DTD SVG 1.1//EN" "http://www.w3.org/Graphics/SVG/1.1/DTD/svg11.dtd"><svg class="icon" width="128px" height="128.00px" viewBox="0 0 1024 1024" version="1.1" xmlns="http://www.w3.org/2000/svg"><path d="M237.008 319.85c10.374-72.124 72.716-127.714 147.806-127.714 75.092 0 137.404 55.592 147.808 127.714H237.008z" fill="#A0D468" /><path d="M384.814 170.792c-94.246 0-170.682 76.28-170.682 170.402h341.334c0-94.124-76.404-170.402-170.652-170.402z m-120.652 127.746c17.624-49.53 65.06-85.09 120.652-85.09 55.594 0 102.998 35.56 120.654 85.09H264.162z" fill="#8CC153" /><path d="M354.628 341.194h60.342l104.592-104.56a170.28 170.28 0 0 0-30.218-30.124l-83.216 83.186V172.104a170.972 170.972 0 0 0-21.312-1.312c-7.248 0-14.342 0.438-21.342 1.312v117.592l-83.186-83.186a170.08 170.08 0 0 0-30.218 30.124l104.558 104.56z" fill="#8CC153" /><path d="M764.398 456.596c-30.5-74.592 0-200.588 0-200.588H390.376s30.5 125.996 0 200.588c-18.466 45.094-45.466 142.246-45.466 197.622 0 137.434 104.092 199.088 232.46 199.088 128.404 0 232.496-61.654 232.496-199.088 0.002-55.376-27.03-152.528-45.468-197.622z" fill="#E6E9ED" /><path d="M556.06 832.868h42.654v174.214H556.06z" fill="#CCD1D9" /><path d="M790.71 21.326c0-11.782-9.562-21.312-21.344-21.312-9.5 0-17.532 6.188-20.312 14.782v0.094a0.426 0.426 0 0 0-0.062 0.188l-150.808 469.05 40.624 13.062L789.68 27.858a21.5 21.5 0 0 0 1.03-6.532z" fill="#A0D468" /><path d="M344.91 654.216c0 137.434 104.092 199.088 232.46 199.088 128.404 0 232.496-61.654 232.496-199.088 0-50.624-22.562-136.122-40.532-184.902H385.44c-17.968 48.782-40.53 134.278-40.53 184.902z" fill="#AC92EB" /><path d="M748.054 703.996c0 11.782-9.562 21.31-21.344 21.31s-21.342-9.53-21.342-21.31 9.56-21.344 21.342-21.344 21.344 9.562 21.344 21.344zM704.932 618.654c0 11.782-9.562 21.344-21.344 21.344-11.78 0-21.31-9.562-21.31-21.344s9.532-21.344 21.31-21.344c11.782 0 21.344 9.564 21.344 21.344z" fill="#967ADC" /><path d="M705.37 981.3H449.376c-11.782 0-21.312 9.562-21.312 21.344s9.532 21.342 21.312 21.342h255.992c11.78 0 21.342-9.56 21.342-21.342s-9.562-21.344-21.34-21.344z" fill="#E6E9ED" /><path d="M764.398 456.596c-30.5-74.592 0-200.588 0-200.588h-42.656s-30.53 125.996 0 200.588c18.438 45.094 45.438 142.246 45.438 197.622 0 129.746-92.746 191.932-211.12 198.494 7.032 0.406 14.124 0.594 21.31 0.594 128.404 0 232.496-61.654 232.496-199.088 0.002-55.376-27.03-152.528-45.468-197.622z" fill="#FFFFFF" opacity=".2" /></svg>