<?xml version="1.0" standalone="no"?><!DOCTYPE svg PUBLIC "-//W3C//DTD SVG 1.1//EN" "http://www.w3.org/Graphics/SVG/1.1/DTD/svg11.dtd"><svg class="icon" width="128px" height="128.00px" viewBox="0 0 1024 1024" version="1.1" xmlns="http://www.w3.org/2000/svg"><path d="M674.318 682.652c0 40.998-68.438 127.998-192.012 127.998-123.624 0-191.996-86.188-191.996-127.998V256.008h384.008v426.644z" fill="#E6E9ED" /><path d="M337.06 147.948h-45.344l95.874 266.306 40.154-14.438z" fill="#FFD2A6" /><path d="M867.81 21.326c0-11.782-9.56-21.312-21.31-21.312-1.812 0-3.562 0.218-5.188 0.656V0.638L671.38 43.294l0.062 0.032a21.37 21.37 0 0 0-14.938 13.594L536.46 398.286l40.232 14.124L692.94 81.886l158.746-39.874c9.25-2.342 16.124-10.686 16.124-20.686z" fill="#434A54" /><path d="M299.06 105.386L156.19 338.194l401.318-144.496z" fill="#ED5564" /><path d="M462.494 790.212h42.686v191.088h-42.686z" fill="#CCD1D9" /><path d="M290.31 384.004v298.648c0 41.81 68.374 127.998 191.996 127.998 123.574 0 192.012-87 192.012-127.998V384.004H290.31z" fill="#A0D468" /><path d="M569.194 576c0 11.748-9.56 21.31-21.374 21.31-11.766 0-21.326-9.562-21.326-21.31 0-11.812 9.56-21.344 21.326-21.344 11.812 0 21.374 9.532 21.374 21.344zM611.818 661.31c0 11.782-9.562 21.342-21.312 21.342-11.812 0-21.312-9.56-21.312-21.342s9.5-21.312 21.312-21.312c11.75 0 21.312 9.532 21.312 21.312z" fill="#8CC153" /><path d="M654.506 1002.644c0-11.782-9.562-21.344-21.312-21.344H334.498c-11.782 0-21.312 9.562-21.312 21.344s9.532 21.342 21.312 21.342h298.696c11.75 0 21.312-9.56 21.312-21.342z" fill="#E6E9ED" /><path d="M631.63 256.008v426.644c0 38.594-60.562 117.874-170.73 127.092 6.938 0.594 14.062 0.906 21.406 0.906 123.574 0 192.012-87 192.012-127.998V256.008h-42.688z" fill="#FFFFFF" opacity=".2" /></svg>