<?xml version="1.0" standalone="no"?><!DOCTYPE svg PUBLIC "-//W3C//DTD SVG 1.1//EN" "http://www.w3.org/Graphics/SVG/1.1/DTD/svg11.dtd"><svg class="icon" width="128px" height="128.00px" viewBox="0 0 1024 1024" version="1.1" xmlns="http://www.w3.org/2000/svg"><path d="M618.564 1023.978h-0.032c-11.782-0.032-21.344-9.594-21.312-21.376l0.218-169.398c0-11.782 9.532-21.344 21.344-21.282 11.78 0 21.342 9.562 21.31 21.344l-0.218 169.398c0.002 11.784-9.562 21.314-21.31 21.314zM682.528 1023.978c-11.782-0.032-21.344-9.594-21.312-21.376l0.218-169.398c0-11.75 9.562-21.282 21.344-21.282 11.782 0 21.344 9.562 21.312 21.344l-0.218 169.398c0 11.784-9.564 21.314-21.344 21.314zM981.296 170.7h-42.654c-11.782 0-21.342-9.546-21.342-21.342 0-11.782 9.56-21.328 21.342-21.328h42.654c11.782 0 21.342 9.546 21.342 21.328 0 11.796-9.56 21.342-21.342 21.342z" fill="#656D78" /><path d="M916.676 506.89c-47.342-191.196-39.248-235.802-38.092-240.49 4.216-9.624 0.75-21.124-8.468-26.734a21.324 21.324 0 0 0-24.686 1.828l-62.532-75.388c0.906-1.094 1.782-2.188 2.656-3.25 7.438-9.14 6.094-22.578-3.062-30.014-9.124-7.454-22.56-6.094-29.998 3.032-108.712 133.214-129.12 240.318-132.96 277.192l-51.594 25.78c-35.78-113.948-91.794-179.742-166.68-195.68-40.592-8.64-86.06-2.204-135.15 19.14-37.718 16.406-77.826 41.684-119.214 75.136-69.624 56.28-118.652 115.886-120.714 118.402a21.322 21.322 0 0 0-0.75 26.03 21.344 21.344 0 0 0 25 7.36c93.404-36.342 160.87-43.794 200.54-22.156 43.406 23.688 55.216 81.67 67.716 143.074 8.516 41.84 17.328 85.088 37.484 118.526 22.342 37.06 54.92 56.842 99.308 60.154l8.234 17.78a21.3 21.3 0 0 0 11.532 10.876c9.592 3.782 94.7 36.782 142.762 37.094 2.062 0.124 7.53 0.376 15.592 0.376 45.528 0 174.024-8.156 246.676-95.124 50.71-60.656 62.96-145.776 36.4-252.944z" fill="#F6BB42" /><path d="M913.676 337.35c-2.156 0-4.344-0.328-6.438-1a21.234 21.234 0 0 1-12.876-11.312l-29.874-64.044c-4.032-8.688-1.812-19.016 5.5-25.234l42.904-36.638c8.874-7.562 22.186-6.61 29.874 2.14l54.558 62.014a21.456 21.456 0 0 1 5.032 17.592 21.41 21.41 0 0 1-10.466 15.014l-67.624 38.656a21.32 21.32 0 0 1-10.59 2.812zM956.206 51.956C954.8 49.862 920.302 0.772 856.178 0.038c-59.53-0.688-98.122 23.702-99.714 24.716a21.334 21.334 0 0 0 0.344 36.124l71.06 43.686a21.286 21.286 0 0 0 7.188 2.796l56.964 10.782a21.196 21.196 0 0 0 17.03-4.108l42.686-33.156c8.906-6.924 10.876-19.61 4.47-28.922z" fill="#ED5564" /><path d="M413.384 380.614c-50.734-12.218-122.448 3.218-213.148 45.92-27.42 12.92-52.262 26.31-72.09 37.638 42.34-10.282 76.778-11.922 102.996-4.89 74.558-33.56 133.948-46.42 172.258-37.186 11.454 2.75 22.968-4.296 25.734-15.75 2.748-11.452-4.298-22.966-15.75-25.732zM412.024 491c-46.296-8.016-91.434 9.25-119.666 23.984 5.704 12.358 10.234 26.124 14.138 40.764 23.906-13.25 62.748-28.86 98.262-22.718 11.61 2.016 22.64-5.766 24.656-17.388 2-11.61-5.782-22.642-17.39-24.642zM411.994 602.964c-37.64-6.438-70.232 3-92.138 12.968 2.922 14.312 5.954 28.714 9.5 42.778 15.092-8.188 42.81-19.28 75.434-13.688 11.61 2 22.64-5.81 24.624-17.434 1.984-11.592-5.812-22.624-17.42-24.624zM852.366 64.032c-59.31 0-107.59 48.28-107.59 107.606 0 59.326 48.28 107.59 107.59 107.59 59.342 0 107.622-48.264 107.622-107.59-0.002-59.326-48.28-107.606-107.622-107.606z" fill="#FFCE54" /><path d="M746.526 1023.978h-191.96c-11.796 0-21.342-9.562-21.342-21.344s9.544-21.312 21.342-21.312h191.96c11.782 0 21.342 9.532 21.342 21.312s-9.562 21.344-21.342 21.344z" fill="#434A54" /></svg>