<?xml version="1.0" standalone="no"?><!DOCTYPE svg PUBLIC "-//W3C//DTD SVG 1.1//EN" "http://www.w3.org/Graphics/SVG/1.1/DTD/svg11.dtd"><svg class="icon" width="128px" height="128.00px" viewBox="0 0 1024 1024" version="1.1" xmlns="http://www.w3.org/2000/svg"><path d="M682.692 1023.984H341.34l-85.308-575.982H768z" fill="#48CFAD" /><path d="M316.06 853.302l25.28 170.682h341.352l25.248-170.682z" fill="#965353" /><path d="M316.06 853.302h391.88l37.936-255.992H278.124z" fill="#EC87C0" /><path d="M766.624 453.518c0.876-8.812 1.376-17.78 1.376-26.842 0-141.386-114.622-255.992-256.008-255.992-141.372 0-255.96 114.606-255.96 255.992 0 9.062 0.468 18.03 1.376 26.842h509.216z" fill="#E6E9ED" /><path d="M256.032 426.674c0 9.062 0.468 18.03 1.376 26.842h509.218c0.876-8.812 1.376-17.78 1.376-26.842 0-29.92-5.124-58.638-14.562-85.34H270.594c-9.438 26.702-14.562 55.42-14.562 85.34z" fill="#37BC9B" /><path d="M362.684 384.004c0 11.782-9.562 21.328-21.344 21.328-11.78 0-21.31-9.546-21.31-21.328 0-11.78 9.532-21.328 21.31-21.328 11.782 0 21.344 9.548 21.344 21.328zM618.566 341.334c0 11.782-9.562 21.342-21.376 21.342-11.748 0-21.31-9.562-21.31-21.342s9.562-21.328 21.31-21.328c11.814 0 21.376 9.546 21.376 21.328zM704.002 384.004c0 11.782-9.562 21.328-21.31 21.328-11.812 0-21.376-9.546-21.376-21.328 0-11.78 9.562-21.328 21.376-21.328 11.748 0 21.31 9.548 21.31 21.328zM533.336 384.004c0 11.782-9.562 21.328-21.312 21.328-11.812 0-21.344-9.546-21.344-21.328 0-11.78 9.532-21.328 21.344-21.328 11.75 0 21.312 9.548 21.312 21.328zM447.9 341.334c0 11.782-9.562 21.342-21.344 21.342s-21.344-9.562-21.344-21.342 9.562-21.328 21.344-21.328 21.344 9.546 21.344 21.328z" fill="#48CFAD" /><path d="M368.934 667.558c-8.344 8.344-8.344 21.874 0 30.186 8.312 8.312 21.844 8.312 30.156 0 8.342-8.312 8.342-21.842 0-30.186-8.312-8.312-21.844-8.312-30.156 0zM432.932 752.898c-8.344 8.344-8.344 21.844 0 30.156 8.312 8.344 21.844 8.344 30.156 0 8.342-8.312 8.342-21.812 0-30.156-8.312-8.342-21.844-8.342-30.156 0zM496.93 667.558c-8.344 8.344-8.344 21.874 0 30.186 8.312 8.312 21.844 8.312 30.156 0 8.344-8.312 8.344-21.842 0-30.186-8.312-8.312-21.844-8.312-30.156 0zM560.944 752.898c-8.374 8.344-8.374 21.844 0 30.156 8.312 8.344 21.812 8.344 30.124 0 8.374-8.312 8.374-21.812 0-30.156-8.312-8.342-21.812-8.342-30.124 0zM655.066 667.558c-8.312-8.312-21.812-8.312-30.124 0-8.376 8.344-8.376 21.874 0 30.186 8.312 8.312 21.812 8.312 30.124 0 8.376-8.312 8.376-21.842 0-30.186z" fill="#D770AD" /><path d="M234.688 384.004h554.624v85.326H234.688z" fill="#E6E9ED" /><path d="M511.742 0.016c-11.782 0-21.344 9.546-21.344 21.328v319.99h42.656V21.344c0-11.782-9.53-21.328-21.312-21.328z" fill="#656D78" /><path d="M533.054 171.542c-6.938-0.562-13.968-0.86-21.062-0.86-7.282 0-14.468 0.312-21.594 0.906v169.746h42.656V171.542z" fill="#434A54" /><path d="M441.776 1008.922a21.278 21.278 0 0 0-30.188 0 21.222 21.222 0 0 0-6.25 15.062h42.656c0-5.438-2.062-10.938-6.218-15.062z" fill="#723939" /><path d="M527.086 1008.922c-8.312-8.374-21.844-8.374-30.156 0a21.222 21.222 0 0 0-6.25 15.062h42.656c0-5.438-2.062-10.938-6.25-15.062z" fill="#723939" /><path d="M612.442 1008.922c-8.376-8.374-21.874-8.374-30.186 0-4.188 4.124-6.25 9.624-6.25 15.062h42.686c0-5.438-2.126-10.938-6.25-15.062z" fill="#723939" /></svg>