<?xml version="1.0" standalone="no"?><!DOCTYPE svg PUBLIC "-//W3C//DTD SVG 1.1//EN" "http://www.w3.org/Graphics/SVG/1.1/DTD/svg11.dtd"><svg class="icon" width="128px" height="128.00px" viewBox="0 0 1024 1024" version="1.1" xmlns="http://www.w3.org/2000/svg"><path d="M787.087463 381.191255a21.319958 21.319958 0 0 0-13.937973-5.187989H247.496517c-5.12399 0-10.06198 1.843996-13.937973 5.187989-64.589874 55.747891-104.683796 152.133703-104.683796 251.553509 0 98.711807 40.591921 197.895613 111.371783 272.115469 35.249931 36.935928 75.965852 66.057871 121.089763 86.557831 47.499907 21.623958 97.621809 32.561936 148.995709 32.561936 51.3579 0 101.481802-10.937979 148.981709-32.561936 45.123912-20.49996 85.837832-49.623903 121.087764-86.557831 70.777862-74.217855 111.371782-173.401661 111.371782-272.115469-0.002-99.419806-40.127922-195.805618-104.685795-251.553509z" fill="#965353" /><path d="M271.964469 548.434929c8.311984-8.343984 8.311984-21.859957 0-30.187941-8.343984-8.325984-21.843957-8.325984-30.185941 0-8.311984 8.327984-8.311984 21.843957 0 30.187941 8.341984 8.311984 21.841957 8.311984 30.185941 0zM357.274302 548.434929c8.343984-8.343984 8.343984-21.859957 0-30.187941-8.311984-8.325984-21.811957-8.325984-30.155941 0-8.343984 8.327984-8.343984 21.843957 0 30.187941 8.343984 8.311984 21.843957 8.311984 30.155941 0zM442.614136 548.434929c8.341984-8.343984 8.341984-21.859957 0-30.187941-8.311984-8.325984-21.843957-8.325984-30.153942 0-8.343984 8.327984-8.343984 21.843957 0 30.187941 8.309984 8.311984 21.841957 8.311984 30.153942 0zM527.957969 548.434929c8.311984-8.343984 8.311984-21.859957 0-30.187941-8.343984-8.325984-21.843957-8.325984-30.187941 0-8.311984 8.327984-8.311984 21.843957 0 30.187941 8.341984 8.311984 21.843957 8.311984 30.187941 0zM613.281802 548.434929c8.311984-8.343984 8.311984-21.859957 0-30.187941-8.343984-8.325984-21.843957-8.325984-30.187941 0-8.341984 8.327984-8.341984 21.843957 0 30.187941 8.343984 8.311984 21.843957 8.311984 30.187941 0zM698.591636 548.434929c8.341984-8.343984 8.341984-21.859957 0-30.187941-8.311984-8.325984-21.841957-8.325984-30.153942 0-8.343984 8.327984-8.343984 21.843957 0 30.187941 8.311984 8.311984 21.841957 8.311984 30.153942 0zM783.931469 548.434929c8.343984-8.343984 8.343984-21.859957 0-30.187941-8.343984-8.325984-21.843957-8.325984-30.187941 0-8.311984 8.327984-8.311984 21.843957 0 30.187941 8.343984 8.311984 21.843957 8.311984 30.187941 0zM284.462444 603.556821c-8.341984 8.375984-8.341984 21.875957 0 30.187941 8.311984 8.311984 21.811957 8.311984 30.155942 0 8.341984-8.311984 8.341984-21.811957 0-30.187941-8.341984-8.311984-21.841957-8.311984-30.155942 0zM199.124611 603.556821c-8.343984 8.375984-8.343984 21.875957 0 30.187941 8.311984 8.311984 21.841957 8.311984 30.155941 0 8.341984-8.311984 8.341984-21.811957 0-30.187941-8.313984-8.311984-21.843957-8.311984-30.155941 0zM369.774278 603.556821c-8.311984 8.375984-8.311984 21.875957 0 30.187941 8.343984 8.311984 21.841957 8.311984 30.185941 0 8.311984-8.311984 8.311984-21.811957 0-30.187941-8.343984-8.311984-21.841957-8.311984-30.185941 0zM455.114111 603.556821c-8.341984 8.375984-8.341984 21.875957 0 30.187941 8.343984 8.311984 21.843957 8.311984 30.155941 0 8.343984-8.311984 8.343984-21.811957 0-30.187941-8.311984-8.311984-21.811957-8.311984-30.155941 0zM540.457944 603.556821c-8.343984 8.375984-8.343984 21.875957 0 30.187941 8.295984 8.311984 21.825957 8.311984 30.137942 0 8.343984-8.311984 8.343984-21.811957 0-30.187941-8.311984-8.311984-21.841957-8.311984-30.137942 0zM625.749778 603.556821c-8.311984 8.375984-8.311984 21.875957 0 30.187941 8.343984 8.311984 21.843957 8.311984 30.187941 0 8.311984-8.311984 8.311984-21.811957 0-30.187941-8.343984-8.311984-21.843957-8.311984-30.187941 0zM711.089611 603.556821c-8.341984 8.375984-8.341984 21.875957 0 30.187941s21.841957 8.311984 30.185941 0c8.311984-8.311984 8.311984-21.811957 0-30.187941-8.343984-8.311984-21.843957-8.311984-30.185941 0zM796.431444 633.744762c8.311984 8.311984 21.841957 8.311984 30.153942 0 8.343984-8.311984 8.343984-21.811957 0-30.187941-8.311984-8.311984-21.841957-8.311984-30.153942 0-8.343984 8.375984-8.343984 21.875957 0 30.187941zM271.964469 719.082596c8.311984-8.341984 8.311984-21.841957 0-30.151942a21.329958 21.329958 0 0 0-30.185941 0c-8.311984 8.309984-8.311984 21.809957 0 30.151942a21.329958 21.329958 0 0 0 30.185941 0zM186.624635 719.082596c8.343984-8.341984 8.343984-21.841957 0-30.151942-8.341984-8.343984-21.841957-8.343984-30.155941 0-8.341984 8.309984-8.341984 21.809957 0 30.151942 8.311984 8.343984 21.811957 8.343984 30.155941 0zM357.274302 719.082596c8.343984-8.341984 8.343984-21.841957 0-30.151942-8.311984-8.343984-21.811957-8.343984-30.155941 0-8.343984 8.309984-8.343984 21.809957 0 30.151942 8.343984 8.343984 21.843957 8.343984 30.155941 0zM442.614136 719.082596c8.341984-8.341984 8.341984-21.841957 0-30.151942-8.311984-8.343984-21.843957-8.343984-30.153942 0-8.343984 8.309984-8.343984 21.809957 0 30.151942 8.309984 8.343984 21.841957 8.343984 30.153942 0zM527.957969 719.082596c8.311984-8.341984 8.311984-21.841957 0-30.151942a21.331958 21.331958 0 0 0-30.187941 0c-8.311984 8.309984-8.311984 21.809957 0 30.151942a21.331958 21.331958 0 0 0 30.187941 0zM613.281802 719.082596c8.311984-8.341984 8.311984-21.841957 0-30.151942a21.331958 21.331958 0 0 0-30.187941 0c-8.341984 8.309984-8.341984 21.809957 0 30.151942a21.331958 21.331958 0 0 0 30.187941 0zM698.591636 719.082596c8.341984-8.341984 8.341984-21.841957 0-30.151942-8.311984-8.343984-21.841957-8.343984-30.153942 0-8.343984 8.309984-8.343984 21.809957 0 30.151942 8.311984 8.343984 21.841957 8.343984 30.153942 0zM783.931469 719.082596c8.343984-8.341984 8.343984-21.841957 0-30.151942a21.331958 21.331958 0 0 0-30.187941 0c-8.311984 8.309984-8.311984 21.809957 0 30.151942a21.331958 21.331958 0 0 0 30.187941 0zM869.271302 719.082596c8.311984-8.341984 8.311984-21.841957 0-30.151942a21.329958 21.329958 0 0 0-30.185941 0c-8.343984 8.309984-8.343984 21.809957 0 30.151942a21.329958 21.329958 0 0 0 30.185941 0zM284.462444 774.238488c-8.341984 8.311984-8.341984 21.841957 0 30.185941 8.311984 8.311984 21.811957 8.311984 30.155942 0 8.341984-8.343984 8.341984-21.873957 0-30.185941-8.341984-8.311984-21.841957-8.311984-30.155942 0zM199.124611 774.238488c-8.343984 8.311984-8.343984 21.841957 0 30.185941 8.311984 8.311984 21.841957 8.311984 30.155941 0 8.341984-8.343984 8.341984-21.873957 0-30.185941-8.313984-8.311984-21.843957-8.311984-30.155941 0zM369.774278 774.238488c-8.311984 8.311984-8.311984 21.841957 0 30.185941 8.343984 8.311984 21.841957 8.311984 30.185941 0 8.311984-8.343984 8.311984-21.873957 0-30.185941-8.343984-8.311984-21.841957-8.311984-30.185941 0zM455.114111 774.238488c-8.341984 8.311984-8.341984 21.841957 0 30.185941 8.343984 8.311984 21.843957 8.311984 30.155941 0 8.343984-8.343984 8.343984-21.873957 0-30.185941-8.311984-8.311984-21.811957-8.311984-30.155941 0zM540.457944 774.238488c-8.343984 8.311984-8.343984 21.841957 0 30.185941 8.295984 8.311984 21.825957 8.311984 30.137942 0 8.343984-8.343984 8.343984-21.873957 0-30.185941-8.311984-8.311984-21.841957-8.311984-30.137942 0zM455.114111 944.920154c-8.341984 8.311984-8.341984 21.809957 0 30.153942 8.343984 8.343984 21.843957 8.343984 30.155941 0 8.343984-8.343984 8.343984-21.841957 0-30.153942-8.311984-8.343984-21.811957-8.343984-30.155941 0zM540.457944 944.920154c-8.343984 8.311984-8.343984 21.809957 0 30.153942 8.295984 8.343984 21.825957 8.343984 30.137942 0 8.343984-8.343984 8.343984-21.841957 0-30.153942-8.311984-8.343984-21.841957-8.343984-30.137942 0zM625.749778 774.238488c-8.311984 8.311984-8.311984 21.841957 0 30.185941 8.343984 8.311984 21.843957 8.311984 30.187941 0 8.311984-8.343984 8.311984-21.873957 0-30.185941-8.343984-8.311984-21.843957-8.311984-30.187941 0zM625.749778 944.920154c-8.311984 8.311984-8.311984 21.809957 0 30.153942a21.331958 21.331958 0 0 0 30.187941 0c8.311984-8.343984 8.311984-21.841957 0-30.153942a21.331958 21.331958 0 0 0-30.187941 0zM369.774278 944.920154c-8.311984 8.311984-8.311984 21.809957 0 30.153942a21.329958 21.329958 0 0 0 30.185941 0c8.311984-8.343984 8.311984-21.841957 0-30.153942a21.329958 21.329958 0 0 0-30.185941 0zM711.089611 774.238488c-8.341984 8.311984-8.341984 21.841957 0 30.185941 8.341984 8.311984 21.841957 8.311984 30.185941 0 8.311984-8.343984 8.311984-21.873957 0-30.185941-8.343984-8.311984-21.843957-8.311984-30.185941 0z" fill="#7F4545" /><path d="M282.902447 774.238488c-8.311984 8.311984-8.311984 21.841957 0 30.185941 8.341984 8.311984 21.841957 8.311984 30.185941 0 8.311984-8.343984 8.311984-21.873957 0-30.185941-8.343984-8.311984-21.843957-8.311984-30.185941 0zM794.869448 774.238488c-8.311984 8.311984-8.311984 21.841957 0 30.185941 8.343984 8.311984 21.841957 8.311984 30.185941 0 8.311984-8.343984 8.311984-21.873957 0-30.185941-8.345984-8.311984-21.843957-8.311984-30.185941 0zM327.118361 859.578321c-8.343984 8.343984-8.343984 21.843957 0 30.155941 8.343984 8.343984 21.843957 8.343984 30.155941 0 8.343984-8.311984 8.343984-21.811957 0-30.155941-8.311984-8.343984-21.811957-8.343984-30.155941 0zM241.778528 859.578321c-8.311984 8.343984-8.311984 21.843957 0 30.155941a21.329958 21.329958 0 0 0 30.185941 0c8.311984-8.311984 8.311984-21.811957 0-30.155941a21.329958 21.329958 0 0 0-30.185941 0zM412.460194 859.578321c-8.343984 8.343984-8.343984 21.843957 0 30.155941 8.309984 8.343984 21.841957 8.343984 30.153942 0 8.341984-8.311984 8.341984-21.811957 0-30.155941-8.311984-8.343984-21.843957-8.343984-30.153942 0zM497.768028 859.578321c-8.311984 8.343984-8.311984 21.843957 0 30.155941a21.331958 21.331958 0 0 0 30.187941 0c8.311984-8.311984 8.311984-21.811957 0-30.155941a21.331958 21.331958 0 0 0-30.187941 0zM583.093861 859.578321c-8.341984 8.343984-8.341984 21.843957 0 30.155941a21.331958 21.331958 0 0 0 30.187941 0c8.311984-8.311984 8.311984-21.811957 0-30.155941a21.331958 21.331958 0 0 0-30.187941 0zM668.437694 859.578321c-8.343984 8.343984-8.343984 21.843957 0 30.155941 8.311984 8.343984 21.841957 8.343984 30.153942 0 8.341984-8.311984 8.341984-21.811957 0-30.155941-8.311984-8.343984-21.841957-8.343984-30.153942 0zM753.743528 859.578321c-8.311984 8.343984-8.311984 21.843957 0 30.155941a21.331958 21.331958 0 0 0 30.187941 0c8.311984-8.311984 8.311984-21.811957 0-30.155941a21.331958 21.331958 0 0 0-30.187941 0z" fill="#7F4545" /><path d="M773.21149 405.331208c0 35.357931-117.61977 63.995875-262.725487 63.995875-145.119717 0-262.741487-28.637944-262.741487-63.995875 0-35.343931 117.62177-63.997875 262.741487-63.997875 145.107717 0 262.725487 28.653944 262.725487 63.997875z" fill="#E6E9ED" /><path d="M787.087463 381.191255a21.319958 21.319958 0 0 0-13.937973-5.187989h-42.655917c5.12399 0 10.06198 1.843996 13.937973 5.187989 64.561874 55.747891 104.685796 152.133703 104.685796 251.553509 0 98.711807-40.591921 197.895613-111.373783 272.115469-35.245931 36.935928-75.993852 66.057871-121.087763 86.557831-40.90392 18.623964-83.729836 29.311943-127.667751 31.905937 7.093986 0.405999 14.217972 0.655999 21.343958 0.655999 51.3579 0 101.481802-10.937979 148.981709-32.561936 45.123912-20.49996 85.837832-49.623903 121.087764-86.557831 70.777862-74.217855 111.371782-173.401661 111.371782-272.115469-0.002-99.419806-40.127922-195.805618-104.685795-251.553509z" fill="#FFFFFF" opacity=".1" /><path d="M661.905707 426.673167H363.930289c-11.811977 0-21.341958-9.561981-21.341958-21.341959a21.317958 21.317958 0 0 1 21.341958-21.327958h297.975418c11.781977 0 21.309958 9.545981 21.309959 21.327958 0 11.779977-9.527981 21.341958-21.309959 21.341959z" fill="#CCD1D9" /><path d="M510.488003 490.671042c-71.84186 0-139.619727-6.875987-190.837627-19.359963-62.715878-15.28197-93.213818-36.857928-93.213818-65.979871 0-29.109943 30.49794-50.685901 93.213818-65.965871 51.2499-12.483976 118.995768-19.359962 190.837627-19.359962 71.82786 0 139.575727 6.875987 190.823627 19.359962 62.713878 15.28197 93.213818 36.857928 93.213818 65.965871 0 29.123943-30.49994 50.699901-93.213818 65.979871-51.2499 12.483976-118.997768 19.359962-190.823627 19.359963z m-240.42953-85.339834c5.03199 5.32799 23.529954 16.809967 70.153863 26.935948 46.715909 10.15598 107.183791 15.731969 170.275667 15.731969 63.077877 0 123.543759-5.575989 170.261667-15.731969 46.619909-10.12398 65.119873-21.607958 70.149863-26.935948-5.03199-5.31199-23.531954-16.795967-70.149863-26.921947-46.717909-10.15598-107.185791-15.733969-170.261667-15.733969-63.091877 0-123.557759 5.577989-170.275667 15.733969-46.623909 10.12598-65.123873 21.609958-70.153863 26.921947z" fill="#7F4545" /><path d="M447.770125 398.597221L319.774375 14.611971a11.731977 11.731977 0 0 0-0.187999-0.483999c-0.156-0.437999-0.311999-0.875998-0.499999-1.311997a12.283976 12.283976 0 0 0-0.405999-0.811998 7.905985 7.905985 0 0 0-0.531999-1.031998 12.975975 12.975975 0 0 0-0.593999-0.983999 32.195937 32.195937 0 0 0-0.467999-0.765998c-0.281999-0.375999-0.561999-0.749999-0.841999-1.109998-0.124-0.14-0.218-0.281999-0.311999-0.421999-0.062-0.046-0.094-0.094-0.156-0.14-0.281999-0.359999-0.623999-0.703999-0.937998-1.031998-0.188-0.188-0.343999-0.375999-0.531999-0.561999-0.281999-0.265999-0.593999-0.515999-0.875998-0.781998-0.25-0.204-0.499999-0.421999-0.749999-0.623999-0.25-0.188-0.499999-0.343999-0.717998-0.515999a20.993959 20.993959 0 0 0-1.031998-0.703999c-0.188-0.124-0.375999-0.218-0.561999-0.327999a25.40195 25.40195 0 0 0-1.217998-0.703998l-0.561999-0.234c-0.437999-0.204-0.875998-0.421999-1.311997-0.593999-0.25-0.094-0.499999-0.172-0.749999-0.249999a16.719967 16.719967 0 0 0-1.155997-0.39c-0.375999-0.094-0.749999-0.172-1.123998-0.265999-0.281999-0.062-0.561999-0.14-0.843999-0.188-0.437999-0.094-0.905998-0.14-1.343997-0.187999l-0.655999-0.094a19.719961 19.719961 0 0 0-1.375997-0.046 9.883981 9.883981 0 0 0-0.717999-0.032c-0.375999 0.016-0.781998 0.046-1.155997 0.062-0.311999 0.032-0.623999 0.032-0.937998 0.062l-0.937999 0.139999c-0.405999 0.062-0.811998 0.124-1.187997 0.218-0.25 0.046-0.467999 0.11-0.717999 0.172a16.017969 16.017969 0 0 0-1.405997 0.389999 5.16399 5.16399 0 0 1-0.188 0.046c-0.156 0.046-0.281999 0.124-0.467999 0.187999a21.719958 21.719958 0 0 0-1.311997 0.515999 17.405966 17.405966 0 0 0-0.781999 0.376 14.159972 14.159972 0 0 0-2.029996 1.125998 16.653967 16.653967 0 0 0-0.781998 0.499999 19.569962 19.569962 0 0 0-1.093998 0.827998c-0.156 0.11-0.281999 0.204-0.437999 0.311999L157.874692 111.623782c-9.029982 7.543985-10.24998 20.997959-2.717995 30.043941a21.279958 21.279958 0 0 0 16.405968 7.671985c4.811991 0 9.655981-1.609997 13.623973-4.93799l103.995797-86.653831 118.121769 354.331308c2.967994 8.937983 11.279978 14.593971 20.215961 14.593972 2.249996 0 4.531991-0.359999 6.749987-1.093998 11.187978-3.733993 17.217966-15.809969 13.499973-26.981948z" fill="#434A54" /><path d="M593.343841 426.673167c-3.249994 0-6.561987-0.733999-9.655981-2.311996-10.497979-5.32799-14.685971-18.153965-9.373982-28.669944l167.335673-330.083355c5.31199-10.515979 18.155965-14.717971 28.687944-9.389982 10.499979 5.32799 14.687971 18.171965 9.375982 28.671944l-167.337673 330.097355a21.325958 21.325958 0 0 1-19.031963 11.685978z" fill="#F4BE8E" /><path d="M891.833258 312.56739L759.461517 101.951801a21.387958 21.387958 0 0 0-19.593962-9.921981l-248.131515 17.703966a21.355958 21.355958 0 0 0-19.405963 17.059966 21.363958 21.363958 0 0 0 11.279978 23.249955l380.533257 192.915623a21.379958 21.379958 0 0 0 9.623981 2.295996c5.875989 0 11.623977-2.405995 15.78197-6.953987a21.293958 21.293958 0 0 0 2.283995-25.733949z" fill="#ED5564" /></svg>