<?xml version="1.0" standalone="no"?><!DOCTYPE svg PUBLIC "-//W3C//DTD SVG 1.1//EN" "http://www.w3.org/Graphics/SVG/1.1/DTD/svg11.dtd"><svg class="icon" width="128px" height="128.00px" viewBox="0 0 1024 1024" version="1.1" xmlns="http://www.w3.org/2000/svg"><path d="M191.584 21.354h640.848v959.888H191.584z" fill="#646C77" /><path d="M170.224 0.01v1002.606h683.55V0.01H170.224z m640.832 959.888H212.944V42.728h598.114v917.17z" fill="#424953" /><path d="M255.676 1002.616c0 11.782-9.562 21.376-21.36 21.376-11.794 0-21.374-9.594-21.374-21.376 0-11.812 9.578-21.374 21.374-21.374 11.798 0 21.36 9.56 21.36 21.374zM811.056 1002.616c0 11.782-9.562 21.376-21.376 21.376s-21.376-9.594-21.376-21.376c0-11.812 9.562-21.374 21.376-21.374s21.376 9.56 21.376 21.374z" fill="#424953" /><path d="M426.564 704.902c0 11.782-9.578 21.344-21.376 21.344s-21.36-9.562-21.36-21.344c0-11.812 9.562-21.376 21.36-21.376s21.376 9.564 21.376 21.376zM789.682 363.126a21.364 21.364 0 0 0-21.376-21.374h-85.434c-11.782 0-21.344 9.562-21.344 21.374s9.562 21.376 21.344 21.376h85.434a21.366 21.366 0 0 0 21.376-21.376z" fill="#A9B1BC" /><path d="M725.622 662.184m-85.436 0a85.436 85.436 0 1 0 170.872 0 85.436 85.436 0 1 0-170.872 0Z" fill="#424953" /><path d="M597.436 28.166h42.75v959.2h-42.75z" fill="#424953" /><path d="M276.894 128.164V170.88c0 70.78 57.374 128.154 128.154 128.154s128.17-57.374 128.17-128.154V128.164H276.894z" fill="#FECD57" /><path d="M512.14 299.036H298.536c-11.796 0-21.36 9.562-21.36 21.376 0 11.782 9.562 21.342 21.36 21.342H512.14c11.796 0 21.36-9.562 21.36-21.342 0-11.814-9.562-21.376-21.36-21.376z" fill="#ED5564" /><path d="M394.518 427.22c0 11.78-9.562 21.342-21.36 21.342s-21.36-9.562-21.36-21.342c0-11.812 9.562-21.376 21.36-21.376s21.36 9.564 21.36 21.376zM458.594 427.22c0 11.78-9.562 21.342-21.36 21.342-11.794 0-21.358-9.562-21.358-21.342 0-11.812 9.562-21.376 21.358-21.376 11.798 0.002 21.36 9.564 21.36 21.376z" fill="#A9B1BC" /><path d="M319.894 405.846c-0.14 0-0.282 0.032-0.422 0.032v-0.032H255.52c-11.782 0-21.36 9.562-21.36 21.376 0 11.78 9.578 21.342 21.36 21.342h63.954v-0.032c0.14 0.032 0.282 0.032 0.422 0.032 11.796 0 21.358-9.562 21.358-21.342-0.002-11.814-9.562-21.376-21.36-21.376zM554.716 405.846H490.78c-11.796 0-21.36 9.562-21.36 21.376 0 11.78 9.562 21.342 21.36 21.342h63.936c11.782 0 21.344-9.562 21.344-21.342 0-11.814-9.562-21.376-21.344-21.376z" fill="#FECD57" /><path d="M394.518 512.656c0 11.782-9.562 21.344-21.36 21.344s-21.36-9.562-21.36-21.344c0-11.812 9.562-21.376 21.36-21.376s21.36 9.564 21.36 21.376zM458.594 512.656c0 11.782-9.562 21.344-21.36 21.344-11.794 0-21.358-9.562-21.358-21.344 0-11.812 9.562-21.376 21.358-21.376 11.798 0.002 21.36 9.564 21.36 21.376z" fill="#A9B1BC" /><path d="M319.894 491.282c-0.14 0-0.282 0.032-0.422 0.032v-0.032H255.52c-11.782 0-21.36 9.562-21.36 21.376 0 11.782 9.578 21.344 21.36 21.344h64.376c11.796 0 21.358-9.562 21.358-21.344-0.002-11.814-9.562-21.376-21.36-21.376zM554.716 491.282H490.78c-11.796 0-21.36 9.562-21.36 21.376 0 11.782 9.562 21.344 21.36 21.344h63.936c11.782 0 21.344-9.562 21.344-21.344 0-11.814-9.562-21.376-21.344-21.376z" fill="#FECD57" /><path d="M394.518 598.092c0 11.812-9.562 21.376-21.36 21.376s-21.36-9.562-21.36-21.376c0-11.782 9.562-21.344 21.36-21.344s21.36 9.562 21.36 21.344zM458.594 598.092c0 11.812-9.562 21.376-21.36 21.376-11.794 0-21.358-9.562-21.358-21.376 0-11.782 9.562-21.344 21.358-21.344 11.798 0 21.36 9.562 21.36 21.344z" fill="#A9B1BC" /><path d="M319.894 576.748H255.52c-11.782 0-21.36 9.562-21.36 21.344 0 11.812 9.578 21.376 21.36 21.376h63.954v-0.032c0.14 0 0.282 0.032 0.422 0.032 11.796 0 21.358-9.562 21.358-21.376-0.002-11.782-9.562-21.344-21.36-21.344zM554.716 576.748H490.78c-11.796 0-21.36 9.562-21.36 21.344 0 11.812 9.562 21.376 21.36 21.376h63.936c11.782 0 21.344-9.562 21.344-21.376 0-11.782-9.562-21.344-21.344-21.344z" fill="#FECD57" /><path d="M469.282 918.492h-128.17l-21.358-170.87h170.886z" fill="#E5E8EC" /><path d="M234.316 662.184v256.308H576.06V662.184H234.316zM533.36 875.774H277.036v-170.872H533.36v170.872z" fill="#424953" /></svg>