<?xml version="1.0" standalone="no"?><!DOCTYPE svg PUBLIC "-//W3C//DTD SVG 1.1//EN" "http://www.w3.org/Graphics/SVG/1.1/DTD/svg11.dtd"><svg class="icon" width="128px" height="128.00px" viewBox="0 0 1024 1024" version="1.1" xmlns="http://www.w3.org/2000/svg"><path d="M714.652 64.008v170.654h-213.34c-11.782 0-21.342 9.562-21.342 21.344 0 0.218 0.032 0.406 0.032 0.624v147.374h42.656v-126.686h213.34c11.78 0 21.31-9.532 21.342-21.282V64.008h-42.688z" fill="#CCD1D9" /><path d="M799.994 78.226c0 43.188-28.656 156.434-63.998 156.434-35.344 0-63.998-113.248-63.998-156.434 0-43.218 28.654-78.216 63.998-78.216 35.342 0 63.998 34.998 63.998 78.216z" fill="#965353" /><path d="M735.996 0.01a52.52 52.52 0 0 0-10.656 1.094c30.248 6.218 53.31 38.374 53.31 77.124 0 38.75-23.062 133.874-53.31 153.028 3.468 2.188 7.032 3.406 10.656 3.406 35.342 0 63.998-113.248 63.998-156.434 0-43.22-28.656-78.218-63.998-78.218z" fill="#FFFFFF" opacity=".2" /><path d="M565.342 362.658h-127.998c-11.78 0-21.342 9.562-21.342 21.344s9.562 21.312 21.342 21.312h127.998c11.782 0 21.312-9.532 21.312-21.312s-9.53-21.344-21.312-21.344z" fill="#F5BA45" /><path d="M288.004 384.002v86.654c0 131.624 95.5 190.652 213.34 190.652 117.81 0 213.308-59.03 213.308-190.652v-86.654H288.004z" fill="#FFCE54" /><path d="M671.998 384.002v86.654c0 123.592-84.188 183.184-191.998 189.996 7.03 0.438 14.124 0.656 21.342 0.656 117.81 0 213.308-59.03 213.308-190.652v-86.654h-42.652z" fill="#FFFFFF" opacity=".2" /><path d="M245.348 597.31h511.99v426.68H245.348z" fill="#A85D5D" /><path d="M245.348 810.65h511.99v42.654H245.348z" fill="#965353" /><path d="M714.652 597.31h42.686v426.68h-42.686z" fill="#FFFFFF" opacity=".1" /><path d="M522.656 895.992c0 11.782-9.532 21.312-21.312 21.312S480 907.774 480 895.992s9.562-21.344 21.342-21.344 21.314 9.562 21.314 21.344z" fill="#434A54" /><path d="M501.312 767.996c-30.5 0-60-6.032-80.966-16.5-15.844-7.938-25.688-17.968-25.688-26.188s9.844-18.25 25.688-26.156c20.968-10.5 50.468-16.5 80.966-16.5 30.468 0 59.966 6 80.936 16.5 15.844 7.906 25.688 17.938 25.688 26.156s-9.844 18.25-25.688 26.188c-20.968 10.468-50.466 16.5-80.936 16.5z" fill="#FFCE54" /><path d="M501.312 661.308c-70.686 0-127.966 28.656-127.966 64 0 35.376 57.28 63.998 127.966 63.998 70.654 0 127.966-28.624 127.966-63.998 0.002-35.344-57.312-64-127.966-64z m62.654 74.938c-17.438 6.718-39.686 10.406-62.654 10.406-23 0-45.25-3.688-62.656-10.406-10.186-3.906-16.5-8-19.968-10.938 3.468-2.906 9.782-7 19.968-10.906 17.406-6.718 39.656-10.406 62.656-10.406 22.968 0 45.216 3.688 62.654 10.406 10.156 3.906 16.468 8 19.968 10.906-3.498 2.938-9.81 7.032-19.968 10.938z" fill="#F5BA45" /><path d="M757.338 639.996H245.348c-11.782 0-21.342-9.56-21.342-21.342s9.562-21.344 21.342-21.344h511.99c11.782 0 21.312 9.562 21.312 21.344s-9.53 21.342-21.312 21.342zM757.338 1023.99H245.348c-11.782 0-21.342-9.562-21.342-21.344s9.562-21.342 21.342-21.342h511.99c11.782 0 21.312 9.56 21.312 21.342s-9.53 21.344-21.312 21.344z" fill="#965353" /><path d="M522.624 341.316h-42.656c-11.782 0-21.344-9.53-21.344-21.312s9.562-21.344 21.344-21.344h42.656c11.782 0 21.342 9.562 21.342 21.344s-9.56 21.312-21.342 21.312z" fill="#E6E9ED" /></svg>