<?xml version="1.0" standalone="no"?><!DOCTYPE svg PUBLIC "-//W3C//DTD SVG 1.1//EN" "http://www.w3.org/Graphics/SVG/1.1/DTD/svg11.dtd"><svg class="icon" width="128px" height="128.00px" viewBox="0 0 1024 1024" version="1.1" xmlns="http://www.w3.org/2000/svg"><path d="M414.44 473.79l-7.814-41.968 256.246-47.78 7.842 41.936z" fill="#434A54" /><path d="M469.328 1002.664H85.34L0.014 874.668l127.996-426.69-42.67-127.996h383.988l-42.654 127.996 127.982 426.69z" fill="#E9573F" /><path d="M469.328 1002.664l85.328-127.996H0.014l85.326 127.996zM85.34 319.982l42.67 127.996h298.664l42.654-127.996z" fill="#FC6E51" /><path d="M624.84 478.666l347.334-67.81c34.686-6.75 57.374-40.342 50.624-75.03s-40.344-57.342-75.03-50.624l-347.366 67.842 24.438 125.622z" fill="#656D78" /><path d="M443.33 242.61c-0.046-0.062-4.656-6.188-6.876-13.906-2.61-9.124-1-15.718 5.376-22.124 17.328-17.406 23.046-39.998 16.14-63.624-4.64-15.844-13.562-27.03-14.766-28.5-0.016 0-0.032-0.032-0.046-0.032 0-0.032-0.016-0.032-0.016-0.032a21.282 21.282 0 0 0-16.42-7.718c-11.782 0-21.344 9.532-21.344 21.312 0 5.156 1.828 9.876 4.876 13.562l-0.078-0.094c0.046 0.062 4.984 6.312 7.094 14.376 2.172 8.282 0.484 14.468-5.672 20.624-17.28 17.342-23.014 40.092-16.156 63.998 4.64 16.186 13.656 27.686 14.67 28.936a21.296 21.296 0 0 0 16.61 7.938c11.78 0 21.328-9.532 21.328-21.344 0-5.062-1.782-9.718-4.734-13.374h0.014z m-33.062-101.028s0.016 0.032 0.032 0.032l-0.032-0.032zM314.27 72.02c-6.36-23.874-18.624-40.466-20-42.28l-0.016 0.032c-3.906-5.124-10.032-8.438-16.968-8.438-11.78 0-21.328 9.562-21.328 21.342 0 4.812 1.61 9.25 4.312 12.812h-0.032c0.094 0.124 8.984 12.218 13.092 28.656 4.906 19.656 0.968 36.374-12.014 51.06-22.796 25.782-30.062 57.404-21 91.436 6.36 23.904 18.624 40.466 20 42.28l0.016-0.032c3.89 5.124 10.032 8.438 16.952 8.438 11.782 0 21.344-9.532 21.344-21.344 0-4.812-1.624-9.218-4.312-12.812h0.016c-0.078-0.124-8.984-12.186-13.078-28.624-4.906-19.688-0.968-36.374 12.016-51.092 22.798-25.748 30.048-57.372 21-91.434zM159.212 142.956c-4.64-15.844-13.562-27.03-14.766-28.5-0.016 0-0.032-0.032-0.032-0.032-0.016-0.032-0.016-0.032-0.032-0.032a21.258 21.258 0 0 0-16.42-7.718c-11.782 0-21.328 9.532-21.328 21.312 0 5.188 1.844 9.938 4.906 13.624 0.046 0.062 4.546 5.876 6.718 13.312 2.562 8.718 0.938 15.156-5.406 21.53-17.296 17.342-23.03 40.092-16.17 63.998 4.656 16.186 13.656 27.686 14.672 28.936h0.016a21.262 21.262 0 0 0 16.592 7.938c11.782 0 21.328-9.532 21.328-21.344a21.22 21.22 0 0 0-4.718-13.374c-0.046-0.062-4.656-6.188-6.874-13.906-2.61-9.124-1-15.718 5.376-22.124 17.326-17.404 23.06-39.994 16.138-63.62z" fill="#E6E9ED" /><path d="M313.754 326.232a21.252 21.252 0 0 0-15.078-6.218v-0.032h-42.67v0.032a21.252 21.252 0 0 0-15.078 6.218 21.336 21.336 0 0 0 0 30.188 21.296 21.296 0 0 0 15.094 6.25h42.64a21.32 21.32 0 0 0 15.092-6.25 21.358 21.358 0 0 0 0-30.188z" fill="#E9573F" /><path d="M231.102 518.132a21.298 21.298 0 0 0-5.344-21.218c-8.328-8.344-21.828-8.344-30.17 0a21.156 21.156 0 0 0-5.376 9.062L107.574 783.172c-2.172 7.312-0.39 15.5 5.358 21.25 8.328 8.312 21.828 8.312 30.172 0a21.372 21.372 0 0 0 5.374-9.124l82.624-277.166z" fill="#FC6E51" /></svg>