<?xml version="1.0" standalone="no"?><!DOCTYPE svg PUBLIC "-//W3C//DTD SVG 1.1//EN" "http://www.w3.org/Graphics/SVG/1.1/DTD/svg11.dtd"><svg class="icon" width="128px" height="128.00px" viewBox="0 0 1024 1024" version="1.1" xmlns="http://www.w3.org/2000/svg"><path d="M320.002 503.696h383.994v298.668H320.002z" fill="#FFD2A6" /><path d="M491.046 574.804h42.672v206.184h-42.672z" fill="#F4BE8E" /><path d="M277.332 930.36c0 23.562-19.094 42.624-42.656 42.624s-42.672-19.062-42.672-42.624 19.11-42.686 42.672-42.686 42.656 19.122 42.656 42.686z" fill="#656D78" /><path d="M234.676 994.36c-35.296 0-63.998-28.75-63.998-64 0-35.31 28.702-63.998 63.998-63.998 35.282 0 63.998 28.688 63.998 63.998 0 35.25-28.716 64-63.998 64z m0-85.376c-11.766 0-21.344 9.624-21.344 21.376s9.578 21.312 21.344 21.312 21.328-9.562 21.328-21.312-9.562-21.376-21.328-21.376z" fill="#434A54" /><path d="M831.994 930.36c0 23.562-19.124 42.624-42.686 42.624s-42.624-19.062-42.624-42.624 19.062-42.686 42.624-42.686 42.686 19.122 42.686 42.686z" fill="#656D78" /><path d="M789.308 994.36c-35.25 0-64-28.75-64-64 0-35.31 28.75-63.998 64-63.998 35.31 0 63.998 28.688 63.998 63.998 0 35.25-28.686 64-63.998 64z m0-85.376c-11.75 0-21.312 9.624-21.312 21.376s9.562 21.312 21.312 21.312c11.782 0 21.374-9.562 21.374-21.312s-9.592-21.376-21.374-21.376z" fill="#434A54" /><path d="M853.306 759.676H170.678c-11.782 0-21.328 9.562-21.328 21.312v64c0 11.81 9.546 21.374 21.328 21.374h682.628a21.366 21.366 0 0 0 21.374-21.374v-64c0-11.75-9.562-21.312-21.374-21.312z" fill="#A85D5D" /><path d="M510.016 473.446l-41.672-9.22 63.234-285.852 41.67 9.202z" fill="#A0D468" /><path d="M653.402 68.796c-12.718-19.782-36.216-24.734-58.904-29.516-2.812-0.594-5.688-1.188-8.562-1.828-2.938-0.656-5.75-1.312-8.562-1.954-12.998-3.016-25.31-5.86-37.294-5.86-29.312 0-47.954 17.14-55.438 50.954-5.968 26.938-3.094 54.358 8.062 77.186 11.954 24.468 31.876 40.89 56.046 46.234 5.438 1.204 10.938 1.796 16.5 1.796 43.186 0 82.622-36.438 93.714-86.672 4.626-20.902 2.814-37.37-5.562-50.34z" fill="#DA4453" /><path d="M492.704 157.78c11.954 24.468 31.876 40.89 56.046 46.234 5.438 1.204 10.938 1.796 16.5 1.796 43.186 0 82.622-36.438 93.714-86.672 3.468-15.794 3.282-29.06-0.594-40.202-38.998 14.704-116.09 41.67-175.074 49.248 1.766 10.392 4.892 20.36 9.408 29.596z" fill="#ED5564" /><path d="M403.782 247.684l40.156 256.012h136.872l40.188-256.012z" fill="#FFCE54" /><path d="M959.992 461.008H64.006c-35.294 0-63.998 28.718-63.998 64 0 35.296 28.704 63.984 63.998 63.984h895.986c35.312 0 64-28.688 64-63.984 0-35.282-28.688-64-64-64z" fill="#A85D5D" /><path d="M64.006 482.352h895.986c31.656 0 58 23.094 63.094 53.344 0.594-3.468 0.906-7.032 0.906-10.688 0-35.282-28.688-64-64-64H64.006c-35.294 0-63.998 28.718-63.998 64 0 3.656 0.328 7.218 0.906 10.688 5.094-30.25 31.438-53.344 63.092-53.344z" fill="#FFFFFF" opacity=".2" /></svg>