<?xml version="1.0" standalone="no"?><!DOCTYPE svg PUBLIC "-//W3C//DTD SVG 1.1//EN" "http://www.w3.org/Graphics/SVG/1.1/DTD/svg11.dtd"><svg class="icon" width="128px" height="128.00px" viewBox="0 0 1024 1024" version="1.1" xmlns="http://www.w3.org/2000/svg"><path d="M874.69 0.01H149.342l-42.654 1023.98h810.624z" fill="#F4BE8E" /><path d="M682.318 640.308c0 117.844-76.376 213.372-170.638 213.372s-170.668-95.528-170.668-213.372c0-117.792 76.406-213.306 170.668-213.306s170.638 95.514 170.638 213.306z" fill="#965353" /><path d="M511.68 427.002c-14.25 0-28.092 2.204-41.328 6.312-17.046 31.53-35.64 78.624-29.64 126.81 4.812 38.654 24.328 71.31 57.984 97.122 24.546 18.844 38.156 41.218 41.576 68.438 6.734 53.312-28.154 109.152-40.858 127.434 4.046 0.344 8.14 0.562 12.266 0.562 14.25 0 28.076-2.218 41.326-6.312 17.032-31.56 35.624-78.652 29.624-126.808-4.812-38.688-24.312-71.376-57.982-97.154-24.546-18.844-38.14-41.218-41.578-68.404-6.734-53.328 28.14-109.14 40.858-127.452a138.286 138.286 0 0 0-12.248-0.548z" fill="#7F4545" /><path d="M880.002 128.006H144.014L149.342 0.01h725.348z" fill="#FFD2A6" /><path d="M142.234 170.662h739.55l-1.782-42.67H144.014z" opacity=".1" /><path d="M448.008 42.68v255.996c0 11.782 9.546 21.328 21.328 21.328s21.342-9.546 21.342-21.328c0 11.782 9.546 21.328 21.328 21.328s21.328-9.546 21.328-21.328c0 11.782 9.56 21.328 21.358 21.328 11.75 0 21.312-9.546 21.312-21.328V42.68h-127.996z" fill="#D94452" /><path d="M448.008 0.01v255.996c0 11.78 9.546 21.328 21.328 21.328s21.342-9.546 21.342-21.328c0 11.78 9.546 21.328 21.328 21.328s21.328-9.546 21.328-21.328c0 11.78 9.56 21.328 21.358 21.328 11.75 0 21.312-9.546 21.312-21.328V0.01h-127.996z" fill="#EC5564" /><path d="M106.688 1023.99h810.624l-1.75-42.686H108.454z" opacity=".1" /></svg>