<?xml version="1.0" standalone="no"?><!DOCTYPE svg PUBLIC "-//W3C//DTD SVG 1.1//EN" "http://www.w3.org/Graphics/SVG/1.1/DTD/svg11.dtd"><svg class="icon" width="128px" height="128.00px" viewBox="0 0 1024 1024" version="1.1" xmlns="http://www.w3.org/2000/svg"><path d="M757.338083 21.337833H373.349083l-127.995 298.663667 127.995 682.666667H757.338083l127.997-682.666667z" fill="#434A54" /><path d="M757.338083 1023.98H373.349083a21.331833 21.331833 0 0 1-20.967836-17.405864l-127.997-682.634667a21.289834 21.289834 0 0 1 1.359989-12.343903L353.741236 12.931899a21.313833 21.313833 0 0 1 19.609847-12.919899H757.338083c8.531933 0 16.217873 5.07796 19.593847 12.919899l127.997 298.663667a21.71383 21.71383 0 0 1 1.375989 12.343903l-127.997 682.634667c-1.907985 10.093921-10.719916 17.405864-20.969836 17.405864z m-366.285138-42.685666h348.567277l123.529035-658.856853-119.903064-279.757814H387.412973l-119.903063 279.757814 123.543035 658.856853z" fill="#7F4545" /><path d="M798.275763 311.595566L670.278763 12.931899a21.365833 21.365833 0 0 0-19.623846-12.919899H266.679917a21.329833 21.329833 0 0 0-19.609847 12.919899L119.07707 311.595566a21.305834 21.305834 0 0 0-1.35999 12.343903l127.997 682.634667a21.331833 21.331833 0 0 0 20.967837 17.405864h383.975c10.28192 0 19.091851-7.311943 20.965836-17.405864l127.997-682.634667c0.779994-4.155968 0.311998-8.453934-1.34399-12.343903z" fill="#965353" /><path d="M731.776283 318.923508L628.061093 76.931399a21.289834 21.289834 0 0 0-19.593847-12.921899H308.881587a21.327833 21.327833 0 0 0-19.609847 12.921899L185.55855 318.923508a21.439833 21.439833 0 0 0-1.359989 12.343904l114.621104 611.309224a21.333833 21.333833 0 0 0 20.967837 17.405864h277.77383c10.24992 0 19.061851-7.311943 20.967836-17.405864l114.621104-611.309224a21.695831 21.695831 0 0 0-1.373989-12.343904z" fill="#A85D5D" /><path d="M458.674417 874.673167c-11.781908 0-21.327833-9.561925-21.327834-21.375833V170.678667c0-11.781908 9.545925-21.343833 21.327834-21.343834s21.327833 9.561925 21.327833 21.343834v682.618667c0 11.813908-9.545925 21.375833-21.327833 21.375833z" fill="#B26B6B" /><path d="M458.674417 426.670667c-11.781908 0-21.327833-9.561925-21.327834-21.343834v-127.995c0-11.781908 9.545925-21.327833 21.327834-21.327833s21.327833 9.545925 21.327833 21.327833v127.995c0 11.781908-9.545925 21.343833-21.327833 21.343834z" fill="#FFCE54" /><path d="M501.346083 341.329333h-85.341333c-11.781908 0-21.327833-9.545925-21.327833-21.327833s9.545925-21.327833 21.327833-21.327833h85.341333c11.779908 0 21.327833 9.545925 21.327834 21.327833s-9.547925 21.327833-21.327834 21.327833z" fill="#FFCE54" /><path d="M763.462035 484.918212c-33.623737-10.921915-49.061617-56.107562-34.49973-100.933212 14.561886-44.81165 53.623581-72.295435 87.217319-61.37552 60.873524 19.781845 49.059617 56.109562 34.49973 100.935211-14.559886 44.82765-26.373794 81.155366-87.217319 61.373521z" fill="#A0D468" /><path d="M755.838095 370.297107l-18.375856-5.967953a109.475145 109.475145 0 0 0-8.499934 19.655846 111.603128 111.603128 0 0 0-4.687963 20.919837l18.375856 5.967953c2.187983 0.717994 4.405966 1.045992 6.593949 1.045992 8.99993 0 17.343865-5.733955 20.281841-14.749885 3.655971-11.199913-2.49998-23.229819-13.687893-26.87179z" fill="#8CC153" /><path d="M738.306232 362.845165a21.405833 21.405833 0 0 0 7.375942 4.155968l19.031852 6.171952c2.187983 0.717994 4.405966 1.061992 6.593948 1.061991 8.99993 0 17.343865-5.733955 20.281842-14.749884 3.655971-11.203912-2.49998-23.233818-13.687893-26.875791l-8.531934-2.781978c-12.031906 7.391942-22.875821 18.767853-31.063757 33.017742zM751.526129 413.764767l-19.031852-6.187951a20.993836 20.993836 0 0 0-8.405934-0.967993c-1.749986 16.327872 0.343997 31.905751 5.717955 44.953649l8.531934 2.765979c2.187983 0.717994 4.405966 1.061992 6.593948 1.061991 8.99993 0 17.343865-5.733955 20.281842-14.749885 3.655971-11.203912-2.469981-23.235818-13.687893-26.87579z" fill="#8CC153" /></svg>