<?xml version="1.0" standalone="no"?><!DOCTYPE svg PUBLIC "-//W3C//DTD SVG 1.1//EN" "http://www.w3.org/Graphics/SVG/1.1/DTD/svg11.dtd"><svg class="icon" width="128px" height="128.00px" viewBox="0 0 1024 1024" version="1.1" xmlns="http://www.w3.org/2000/svg"><path d="M64.126 895.154v107.498c0 11.782 9.562 21.344 21.344 21.344h853.058c11.782 0 21.312-9.562 21.312-21.344v-107.498H64.126z" fill="#434A54" /><path d="M746.592 298.908h213.25v526.464H746.592z" fill="#AAB2BC" /><path d="M64.126 298.908h213.282v526.464H64.126z" fill="#5D9CEC" /><path d="M234.752 298.908h554.496v511.808H234.752z" fill="#434A54" /><path d="M938.53 0.316H85.47c-11.782 0-21.344 9.562-21.344 21.344v277.248H959.84V21.66c0.002-11.782-9.53-21.344-21.31-21.344z" fill="#CCD1D9" /><path d="M1002.498 917.374c0 11.75-9.562 21.312-21.312 21.312H42.814c-11.782 0-21.312-9.562-21.312-21.312V832.06c0-11.782 9.532-21.344 21.312-21.344h938.372c11.75 0 21.312 9.562 21.312 21.344v85.314z" fill="#656D78" /><path d="M533.312 554.812c0 11.782-9.532 21.312-21.312 21.312s-21.344-9.532-21.344-21.312S500.218 533.5 512 533.5s21.312 9.532 21.312 21.312z" fill="#7F4545" /><path d="M128.126 832.06c11.782 0 21.312-9.562 21.312-21.344H106.784c0 11.782 9.562 21.344 21.342 21.344zM213.44 832.06c11.75 0 21.312-9.562 21.312-21.344H192.096c0 11.782 9.562 21.344 21.344 21.344zM298.72 832.06c11.782 0 21.344-9.562 21.344-21.344h-42.656c0 11.782 9.532 21.344 21.312 21.344zM384.032 832.06c11.782 0 21.344-9.562 21.344-21.344H362.72c-0.002 11.782 9.53 21.344 21.312 21.344zM469.344 832.06c11.782 0 21.312-9.562 21.312-21.344H448c0 11.782 9.562 21.344 21.344 21.344zM554.656 832.06c11.782 0 21.312-9.562 21.312-21.344h-42.656c0 11.782 9.564 21.344 21.344 21.344zM639.938 832.06c11.782 0 21.344-9.562 21.344-21.344h-42.656c-0.002 11.782 9.562 21.344 21.312 21.344zM725.248 832.06c11.782 0 21.344-9.562 21.344-21.344h-42.656c0 11.782 9.53 21.344 21.312 21.344zM810.56 832.06c11.782 0 21.312-9.562 21.312-21.344h-42.624c0 11.782 9.532 21.344 21.312 21.344zM895.874 832.06c11.782 0 21.312-9.562 21.312-21.344h-42.656c0 11.782 9.562 21.344 21.344 21.344z" fill="#434A54" /><path d="M490.656 454.844v36c0 11.782 9.562 21.312 21.344 21.312s21.312-9.532 21.312-21.312v-36h-42.656z" fill="#7F4545" /><path d="M384.032 256.252h255.906V469.5H384.032z" fill="#ED5564" /><path d="M831.874 85.626c-35.312 0-63.968 28.656-63.968 64 0 35.312 28.656 63.968 63.968 63.968 35.344 0 64-28.656 64-63.968 0-35.342-28.658-64-64-64z" fill="#F5F7FA" /><path d="M853.216 128.284c0 11.782-9.562 21.344-21.344 21.344-11.75 0-21.312-9.562-21.312-21.344s9.562-21.312 21.312-21.312c11.782-0.002 21.344 9.53 21.344 21.312zM277.408 0.004l106.624 299.216h255.906L746.592 0.004z" fill="#E6E9ED" /><path d="M426.688 170.94c-11.782 0-21.312 9.562-21.312 21.312 0 11.782 9.532 21.344 21.312 21.344S448 204.034 448 192.252c0-11.75-9.532-21.312-21.312-21.312zM512 170.94c-11.782 0-21.344 9.562-21.344 21.312 0 11.782 9.562 21.344 21.344 21.344s21.312-9.562 21.312-21.344c0-11.75-9.53-21.312-21.312-21.312zM597.312 170.94c-11.782 0-21.344 9.562-21.344 21.312 0 11.782 9.562 21.344 21.344 21.344 11.75 0 21.312-9.562 21.312-21.344 0-11.75-9.562-21.312-21.312-21.312z" fill="#434A54" /><path d="M426.688 128.284h170.624c11.75 0 21.312-9.532 21.312-21.312s-9.562-21.344-21.312-21.344h-170.624c-11.782 0-21.312 9.562-21.312 21.344s9.53 21.312 21.312 21.312z" fill="#CCD1D9" /><path d="M703.936 597.468h-96.654a21.3 21.3 0 0 0-21.312 21.312v127.968a21.3 21.3 0 0 0 21.312 21.312h96.654a21.3 21.3 0 0 0 21.312-21.312V618.78a21.3 21.3 0 0 0-21.312-21.312z m-21.342 127.97h-53.968v-85.312h53.968v85.312z" fill="#F6BB42" /><path d="M384.032 554.812v234.594c0 11.78 9.562 21.31 21.344 21.31h213.25a21.298 21.298 0 0 0 21.312-21.31V554.812H384.032z" fill="#FFCE54" /><path d="M959.842 295.346l-117.594 70.562v0.032c-6.188 3.718-10.376 10.5-10.376 18.25v298.592c0 11.782 9.562 21.312 21.344 21.312s21.312-9.532 21.312-21.312V396.284l85.312-51.188v-49.75z" fill="#434A54" /><path d="M149.44 106.97h85.312v85.282H149.44z" fill="#5D9CEC" /><path d="M234.752 85.626H149.44c-11.782 0-21.312 9.562-21.312 21.344v85.282c0 11.782 9.532 21.344 21.312 21.344h85.312c11.782 0 21.312-9.562 21.312-21.344V106.97c0-11.78-9.53-21.344-21.312-21.344zM213.44 170.94H170.784V128.284h42.656V170.94z" fill="#4A89DC" /><path d="M85.47 725.438c0-11.782-9.562-21.344-21.344-21.344v42.656c11.782 0 21.344-9.562 21.344-21.312zM85.47 640.124c0-11.782-9.562-21.344-21.344-21.344v42.656c11.782 0.002 21.344-9.53 21.344-21.312zM85.47 554.812c0-11.782-9.562-21.312-21.344-21.312v42.624c11.782 0 21.344-9.53 21.344-21.312zM85.47 469.5c0-11.782-9.562-21.312-21.344-21.312v42.656c11.782 0 21.344-9.562 21.344-21.344zM85.47 384.19c0-11.75-9.562-21.312-21.344-21.312v42.654c11.782 0 21.344-9.562 21.344-21.342z" fill="#434A54" /><path d="M192.096 299.22h42.656v511.496H192.096z" fill="#FFFFFF" opacity=".1" /></svg>