<?xml version="1.0" standalone="no"?><!DOCTYPE svg PUBLIC "-//W3C//DTD SVG 1.1//EN" "http://www.w3.org/Graphics/SVG/1.1/DTD/svg11.dtd"><svg class="icon" width="128px" height="128.00px" viewBox="0 0 1024 1024" version="1.1" xmlns="http://www.w3.org/2000/svg"><path d="M378.05 959.986h521.062c76.748-74.092 124.872-180.462 124.872-298.678 0-223.836-172.558-405.3-385.394-405.3-212.868 0-385.41 181.464-385.41 405.3 0 118.216 48.124 224.586 124.87 298.678z" fill="#F5F7FA" /><path d="M959.986 661.308c0-91.154-35.498-176.87-99.966-241.336a350.976 350.976 0 0 0-36.186-31.532v0.032c-8.374-6.5-20.466-5.906-28.154 1.782-8.312 8.312-8.312 21.812 0 30.156 0.75 0.75 1.562 1.406 2.376 2l-0.032 0.032a305.51 305.51 0 0 1 31.842 27.686c56.404 56.404 87.466 131.402 87.466 211.182 0 75.748-28 147.184-79.092 202.494-0.032 0-0.032 0.032-0.062 0.062-8.25 8.344-8.25 21.81 0.062 30.124 8.344 8.312 21.842 8.312 30.186 0 59.156-63.406 91.56-145.528 91.56-232.682z" fill="#E6E9ED" /><path d="M984.36 634.434c-12.904 3.688-29.966 5.532-46.996 5.532-17.094 0-34.188-1.844-47.156-5.562l-54.748-15.686c-12.938-3.718-29.998-5.562-47.06-5.562s-34.156 1.844-47.094 5.562l-54.714 15.686c-12.938 3.688-30 5.562-47.094 5.562-17.062 0-34.124-1.876-47.062-5.562l-54.73-15.686c-12.954-3.718-30.016-5.562-47.092-5.562-17.062 0-34.124 1.844-47.078 5.562l-54.716 15.686c-13.016 3.718-30.17 5.594-47.328 5.594-17 0-33.968-1.844-46.874-5.532l-39.734-11.28c-1.11 12.56-1.704 25.28-1.704 38.124 0 118.214 48.124 224.586 124.872 298.678h521.062c76.748-74.092 124.872-180.462 124.872-298.678 0-12.718-0.562-25.312-1.656-37.716l-37.97 10.84z" fill="#7F4545" /><path d="M831.99 320.006H448.002V149.324l469.33-85.31z" fill="#F6BB42" /><path d="M831.99 234.666H171.01L6.594 569.06c-15.594 31.718-2.516 70.092 29.202 85.686s70.076 2.5 85.668-29.216l129.246-262.868h581.28c35.342 0 63.998-28.656 63.998-63.998s-28.656-63.998-63.998-63.998z" fill="#FFCE54" /><path d="M881.77 170.666h-113.778a21.226 21.226 0 0 0-15.062 6.25c-8.344 8.312-8.344 21.842 0 30.156 4.156 4.188 9.624 6.25 15.094 6.25h99.528l14.218-42.656zM953.736 923.55a21.294 21.294 0 0 0-15.092-6.25H341.348c-5.452 0-10.92 2.094-15.092 6.25a21.36 21.36 0 0 0 0 30.186 21.252 21.252 0 0 0 15.078 6.218v0.032h597.342v-0.032c5.436 0 10.904-2.062 15.06-6.218a21.33 21.33 0 0 0 0-30.186z" fill="#434A54" /><path d="M959.268 638.902c-7.094 0.718-14.5 1.062-21.904 1.062-7.032 0-14.094-0.312-20.844-0.938 0.532 7.376 0.812 14.812 0.812 22.282 0 75.748-28 147.184-79.092 202.494-0.032 0-0.032 0.032-0.062 0.062-8.25 8.344-8.25 21.81 0.062 30.124 8.344 8.312 21.842 8.312 30.186 0 59.156-63.404 91.56-145.526 91.56-232.68 0-7.5-0.25-14.968-0.718-22.406z" fill="#602B2B" /></svg>