<?xml version="1.0" standalone="no"?><!DOCTYPE svg PUBLIC "-//W3C//DTD SVG 1.1//EN" "http://www.w3.org/Graphics/SVG/1.1/DTD/svg11.dtd"><svg class="icon" width="128px" height="128.00px" viewBox="0 0 1024 1024" version="1.1" xmlns="http://www.w3.org/2000/svg"><path d="M108.064 490.656v-42.654H21.348c-11.782 0-21.344 9.562-21.344 21.342 0 2.312 0.406 4.53 1.062 6.624 1.406 4.25 35.376 104.31 147.84 138.216l12.312-40.844c-37.812-11.404-53.154-82.684-53.154-82.684zM1023.996 469.344c0-11.782-9.562-21.342-21.312-21.342h-86.748v42.654s4.062 65.436-53.124 82.686l12.312 40.844c112.434-33.906 146.434-133.966 147.808-138.216 0.69-2.094 1.064-4.312 1.064-6.626z" fill="#FC6E51" /><path d="M1.066 475.968c0.156 0.468 0.688 2 1.624 4.406a21.25 21.25 0 0 1 18.656-11.03h86.716v-21.342H21.348c-11.782 0-21.344 9.562-21.344 21.342 0 2.314 0.406 4.532 1.062 6.624z" fill="#FFFFFF" opacity=".2" /><path d="M1021.308 480.376c0.938-2.406 1.5-3.938 1.624-4.406 0.688-2.094 1.062-4.312 1.062-6.624 0-11.782-9.562-21.342-21.312-21.342h-86.748v21.342h86.748a21.236 21.236 0 0 1 18.626 11.03z" fill="#FFFFFF" opacity=".3" /><path d="M362.684 639.996c-117.624 0-213.34-95.686-213.34-213.338 0-117.622 95.716-213.308 213.34-213.308 117.622 0 213.322 95.686 213.322 213.308 0 117.652-95.702 213.338-213.322 213.338z" fill="#FFCE54" /><path d="M362.684 192.008C233.06 192.008 128 297.068 128 426.658c0 129.622 105.06 234.682 234.684 234.682 129.59 0 234.634-105.06 234.634-234.682 0-129.59-105.044-234.65-234.634-234.65z m135.746 370.428c-36.25 36.25-84.466 56.218-135.746 56.218-51.312 0-99.498-19.968-135.748-56.218-36.28-36.28-56.248-84.498-56.248-135.778 0-51.28 19.968-99.498 56.248-135.748 36.25-36.28 84.436-56.25 135.748-56.25 51.28 0 99.496 19.968 135.746 56.25 36.282 36.25 56.266 84.466 56.266 135.748 0 51.28-19.986 99.498-56.266 135.778z" fill="#F6BB42" /><path d="M362.684 277.35c-82.498 0-149.342 66.842-149.342 149.308 0 82.498 66.844 149.34 149.342 149.34 82.464 0 149.34-66.842 149.34-149.34 0-82.466-66.876-149.308-149.34-149.308z m0 255.992c-58.812 0-106.686-47.842-106.686-106.684 0-58.81 47.874-106.654 106.686-106.654 58.81 0 106.652 47.844 106.652 106.654 0 58.842-47.842 106.684-106.652 106.684z" fill="#F6BB42" /><path d="M661.316 554.654c-117.606 0-213.324-95.684-213.324-213.306 0-117.654 95.718-213.338 213.324-213.338 117.684 0 213.372 95.684 213.372 213.338 0 117.622-95.688 213.306-213.372 213.306z" fill="#FFCE54" /><path d="M661.316 106.666c-129.574 0-234.634 105.06-234.634 234.682 0 129.59 105.06 234.65 234.634 234.65 129.622 0 234.682-105.06 234.682-234.65 0-129.622-105.06-234.682-234.682-234.682z m135.808 370.428c-36.31 36.282-84.496 56.248-135.808 56.248-51.25 0-99.496-19.966-135.73-56.248-36.282-36.248-56.25-84.466-56.25-135.746s19.968-99.498 56.25-135.778c36.234-36.25 84.48-56.218 135.73-56.218 51.312 0 99.498 19.968 135.808 56.218 36.25 36.28 56.188 84.498 56.188 135.778s-19.936 99.498-56.188 135.746z" fill="#F6BB42" /><path d="M661.316 192.008c-82.436 0-149.292 66.842-149.292 149.34 0 82.466 66.858 149.308 149.292 149.308 82.498 0 149.372-66.842 149.372-149.308 0-82.498-66.874-149.34-149.372-149.34z m0 255.994c-58.81 0-106.622-47.844-106.622-106.654 0-58.842 47.81-106.686 106.622-106.686S768 282.506 768 341.348c0 58.81-47.872 106.654-106.684 106.654z" fill="#F6BB42" /><path d="M661.316 277.35c-35.312 0-63.998 28.656-63.998 63.998s28.686 63.998 63.998 63.998c35.376 0 64-28.656 64-63.998s-28.624-63.998-64-63.998z m0 85.31c-11.75 0-21.312-9.562-21.312-21.312 0-11.782 9.562-21.344 21.312-21.344 11.812 0 21.376 9.562 21.376 21.344 0 11.75-9.564 21.312-21.376 21.312z" fill="#F6BB42" /><path d="M512.024 917.334c235.604 0 426.66-271.9 426.66-554.674H85.346c0 282.774 191.028 554.674 426.678 554.674z" fill="#E6E9ED" /><path d="M192 512c0 11.782 9.562 21.342 21.342 21.342 11.782 0 21.344-9.56 21.344-21.342s-9.562-21.344-21.344-21.344C201.562 490.656 192 500.218 192 512zM277.342 512c0 11.782 9.56 21.342 21.342 21.342s21.312-9.56 21.312-21.342-9.532-21.344-21.312-21.344-21.342 9.562-21.342 21.344zM277.342 682.652c0 11.78 9.56 21.342 21.342 21.342s21.312-9.562 21.312-21.342c0-11.782-9.532-21.312-21.312-21.312s-21.342 9.532-21.342 21.312zM192 682.652c0 11.78 9.562 21.342 21.342 21.342 11.782 0 21.344-9.562 21.344-21.342 0-11.782-9.562-21.312-21.344-21.312-11.78 0-21.342 9.532-21.342 21.312zM234.686 597.342c0 11.782 9.562 21.312 21.312 21.312 11.812 0 21.344-9.532 21.344-21.312s-9.532-21.344-21.344-21.344c-11.75 0-21.312 9.562-21.312 21.344zM149.344 597.342c0 11.782 9.562 21.312 21.344 21.312S192 609.124 192 597.342s-9.532-21.344-21.312-21.344-21.344 9.562-21.344 21.344zM319.996 597.342c0 11.782 9.562 21.312 21.344 21.312s21.344-9.532 21.344-21.312-9.562-21.344-21.344-21.344-21.344 9.562-21.344 21.344z" fill="#CCD1D9" /><path d="M704.004 512c0 11.782 9.562 21.342 21.312 21.342 11.81 0 21.374-9.56 21.374-21.342s-9.562-21.344-21.374-21.344c-11.75 0-21.312 9.562-21.312 21.344zM789.312 512c0 11.782 9.562 21.342 21.376 21.342 11.75 0 21.312-9.56 21.312-21.342s-9.562-21.344-21.312-21.344c-11.812 0-21.376 9.562-21.376 21.344zM789.312 682.652c0 11.78 9.562 21.342 21.376 21.342 11.75 0 21.312-9.562 21.312-21.342 0-11.782-9.562-21.312-21.312-21.312-11.812 0-21.376 9.532-21.376 21.312zM704.004 682.652c0 11.78 9.562 21.342 21.312 21.342 11.81 0 21.374-9.562 21.374-21.342 0-11.782-9.562-21.312-21.374-21.312-11.75 0-21.312 9.532-21.312 21.312zM746.69 597.342c0 11.782 9.562 21.312 21.31 21.312 11.812 0 21.312-9.532 21.312-21.312s-9.5-21.344-21.312-21.344c-11.748 0-21.31 9.562-21.31 21.344zM661.316 597.342c0 11.782 9.562 21.312 21.376 21.312 11.75 0 21.312-9.532 21.312-21.312s-9.562-21.344-21.312-21.344c-11.814 0-21.376 9.562-21.376 21.344zM832 597.342c0 11.782 9.562 21.312 21.312 21.312 11.812 0 21.376-9.532 21.376-21.312s-9.562-21.344-21.376-21.344c-11.75 0-21.312 9.562-21.312 21.344z" fill="#CCD1D9" /><path d="M447.992 682.652c0 11.78 9.562 21.342 21.344 21.342s21.344-9.562 21.344-21.342c0-11.782-9.562-21.312-21.344-21.312s-21.344 9.532-21.344 21.312zM533.336 682.652c0 11.78 9.562 21.342 21.36 21.342 11.748 0 21.31-9.562 21.31-21.342 0-11.782-9.562-21.312-21.31-21.312-11.798 0-21.36 9.532-21.36 21.312zM490.68 767.994c0 11.782 9.562 21.344 21.344 21.344s21.312-9.562 21.312-21.344-9.532-21.344-21.312-21.344-21.344 9.562-21.344 21.344zM405.338 767.994c0 11.782 9.562 21.344 21.344 21.344s21.31-9.562 21.31-21.344-9.53-21.344-21.31-21.344-21.344 9.562-21.344 21.344zM576.006 767.994c0 11.782 9.562 21.344 21.312 21.344 11.81 0 21.374-9.562 21.374-21.344s-9.562-21.344-21.374-21.344c-11.75 0-21.312 9.562-21.312 21.344z" fill="#CCD1D9" /><path d="M533.336 512c0 11.782 9.562 21.342 21.36 21.342 11.748 0 21.31-9.56 21.31-21.342s-9.562-21.344-21.31-21.344c-11.798 0-21.36 9.562-21.36 21.344zM447.992 512c0 11.782 9.562 21.342 21.344 21.342s21.344-9.56 21.344-21.342-9.562-21.344-21.344-21.344-21.344 9.562-21.344 21.344zM490.68 426.658c0 11.782 9.562 21.344 21.344 21.344s21.312-9.562 21.312-21.344-9.532-21.312-21.312-21.312-21.344 9.53-21.344 21.312zM405.338 426.658c0 11.782 9.562 21.344 21.344 21.344s21.31-9.562 21.31-21.344-9.53-21.312-21.31-21.312-21.344 9.53-21.344 21.312zM576.006 426.658c0 11.782 9.562 21.344 21.312 21.344 11.81 0 21.374-9.562 21.374-21.344s-9.562-21.312-21.374-21.312c-11.75 0-21.312 9.53-21.312 21.312z" fill="#CCD1D9" /><path d="M732.69 831.992H291.308l-35.31 85.342H768z" fill="#FC6E51" /><path d="M953.746 368.91a21.332 21.332 0 0 0-15.062-6.25H85.346a21.354 21.354 0 0 0-15.094 6.25c-8.312 8.342-8.312 21.842 0 30.186a21.35 21.35 0 0 0 15.094 6.25h853.338c5.438 0 10.876-2.094 15.062-6.25 8.312-8.344 8.312-21.844 0-30.186z" fill="#CCD1D9" /><path d="M639.942 874.646c0-11.782-9.562-21.312-21.312-21.312H405.338c-11.782 0-21.344 9.532-21.344 21.312s9.562 21.344 21.344 21.344h213.292c11.748 0 21.312-9.562 21.312-21.344z" fill="#E9573F" /><path d="M768 874.646H255.998c-11.75 0-21.312 9.562-21.312 21.344s9.562 21.344 21.312 21.344H768c11.812 0 21.312-9.562 21.312-21.344s-9.5-21.344-21.312-21.344z" fill="#434A54" /></svg>