<?xml version="1.0" standalone="no"?><!DOCTYPE svg PUBLIC "-//W3C//DTD SVG 1.1//EN" "http://www.w3.org/Graphics/SVG/1.1/DTD/svg11.dtd"><svg class="icon" width="128px" height="128.00px" viewBox="0 0 1024 1024" version="1.1" xmlns="http://www.w3.org/2000/svg"><path d="M873.11 368.378c5.906-10.186 2.406-23.248-7.812-29.124-7.218-4.188-15.874-3.624-22.404 0.688v-0.032l-28.812 19.032-67.436-38.938 67.436-38.936 28.812 19.032v-0.032c6.532 4.312 15.186 4.874 22.404 0.688 10.218-5.876 13.718-18.938 7.812-29.124a20.732 20.732 0 0 0-6.718-7.124v-0.032l-10.998-7.25 7.06-4.094c10.188-5.876 13.688-18.936 7.812-29.124-5.906-10.218-18.936-13.718-29.154-7.812l-7.062 4.062-0.782-13.156c-0.218-3.188-1.094-6.406-2.812-9.376-5.906-10.216-18.938-13.716-29.156-7.812-7.218 4.156-11.062 11.938-10.594 19.75h-0.032l2.062 34.468-88.746 51.248-88.778-51.248 2.094-34.468h-0.032c0.468-7.812-3.376-15.594-10.624-19.75-10.188-5.904-23.25-2.404-29.124 7.812a21.174 21.174 0 0 0-2.812 9.376l-0.812 13.156-7.032-4.062a21.302 21.302 0 0 0-29.14 7.812c-5.904 10.188-2.404 23.248 7.796 29.124l7.062 4.094-11 7.25v0.032a20.726 20.726 0 0 0-6.716 7.124c-5.89 10.188-2.406 23.25 7.794 29.124 7.234 4.186 15.89 3.624 22.422-0.688v0.032l28.812-19.032 67.434 38.936-67.434 38.938-28.812-19.032v0.032c-6.532-4.312-15.188-4.876-22.422-0.688-10.202 5.876-13.686 18.938-7.794 29.124a21.312 21.312 0 0 0 6.716 7.124l11 7.282-7.062 4.062c-10.202 5.906-13.686 18.938-7.796 29.156 5.89 10.186 18.922 13.686 29.14 7.81l7.032-4.092 0.812 13.154a21.18 21.18 0 0 0 2.812 9.406c5.876 10.188 18.938 13.688 29.124 7.812a21.31 21.31 0 0 0 10.624-19.75h0.032l-2.094-34.466 88.778-51.248 88.746 51.248-2.062 34.466h0.032a21.348 21.348 0 0 0 10.594 19.75c10.218 5.876 23.25 2.376 29.156-7.812 1.718-2.968 2.594-6.188 2.812-9.406l0.782-13.154 7.062 4.092c10.218 5.876 23.248 2.376 29.154-7.81 5.876-10.218 2.376-23.25-7.812-29.156l-7.06-4.062 10.998-7.282a21.318 21.318 0 0 0 6.718-7.124z" fill="#3BAFDA" /><path d="M756.176 450.252l-30.874-15.438V205.198l30.874-15.438v-0.032c7-3.498 11.812-10.716 11.812-19.06 0-11.782-9.562-21.344-21.344-21.344-3.438 0-6.654 0.844-9.53 2.282v-0.032l-11.812 5.906v-8.156c0-11.782-9.532-21.31-21.312-21.31s-21.344 9.53-21.344 21.31v8.156l-11.782-5.876a21.316 21.316 0 0 0-9.532-2.282c-11.81 0-21.342 9.562-21.342 21.344 0 8.344 4.812 15.562 11.782 19.06v0.032l30.874 15.438v229.618l-30.874 15.438c-6.968 3.5-11.782 10.718-11.782 19.062a21.312 21.312 0 0 0 21.342 21.342 21.3 21.3 0 0 0 9.532-2.25l11.782-5.906v8.156c0 11.782 9.562 21.344 21.344 21.344s21.312-9.562 21.312-21.344v-8.156l11.812 5.906a21.188 21.188 0 0 0 9.53 2.25c11.782 0 21.344-9.532 21.344-21.342 0-8.344-4.812-15.562-11.812-19.062z" fill="#4FC2E9" /><path d="M654.208 398.222c-55.714 0-106.09 22.904-142.212 59.78-36.138-36.876-86.498-59.78-142.214-59.78-109.964 0-199.102 89.152-199.102 199.086 0 227.554 341.316 426.674 341.316 426.674s341.334-199.12 341.334-426.674c0-109.932-89.154-199.086-199.122-199.086z" fill="#5D9CEC" /><path d="M654.208 398.222c-7.216 0-14.342 0.406-21.342 1.124 99.936 10.656 177.776 95.214 177.776 197.96 0 192.932-245.304 365.364-319.974 413.424 13.406 8.624 21.328 13.25 21.328 13.25s341.334-199.12 341.334-426.674c0-109.93-89.154-199.084-199.122-199.084z" fill="#FFFFFF" opacity=".2" /><path d="M489.138 240.384c5.89-10.188 2.39-23.25-7.812-29.156-7.234-4.156-15.874-3.594-22.406 0.688h-0.016l-28.796 19.032-67.434-38.938 67.434-38.936 28.796 19.032 0.016-0.032c6.532 4.312 15.172 4.876 22.406 0.688 10.204-5.876 13.704-18.938 7.812-29.124a20.756 20.756 0 0 0-6.734-7.124l0.016-0.032-11-7.248 7.046-4.094c10.202-5.876 13.702-18.938 7.812-29.124-5.89-10.218-18.936-13.718-29.14-7.812l-7.062 4.062-0.782-13.156h-0.016a21.374 21.374 0 0 0-2.812-9.374c-5.89-10.218-18.938-13.718-29.14-7.812-7.234 4.156-11.062 11.936-10.61 19.748h-0.016l2.062 34.468L320 167.388l-88.76-51.25 2.078-34.468h-0.032c0.468-7.812-3.376-15.592-10.61-19.748-10.202-5.906-23.25-2.406-29.14 7.812a21.29 21.29 0 0 0-2.796 9.374h-0.016l-0.796 13.156-7.046-4.062c-10.204-5.906-23.25-2.406-29.14 7.812-5.906 10.188-2.406 23.25 7.796 29.124l7.062 4.094-11 7.248v0.032a20.73 20.73 0 0 0-6.718 7.124c-5.89 10.188-2.406 23.25 7.796 29.124 7.234 4.188 15.89 3.624 22.42-0.688v0.032l28.812-19.032 67.434 38.936-67.434 38.938-28.812-19.032c-6.532-4.282-15.188-4.844-22.42-0.688-10.204 5.906-13.688 18.968-7.796 29.156a21.316 21.316 0 0 0 6.718 7.124l11 7.282-7.062 4.062c-10.202 5.906-13.686 18.938-7.796 29.156 5.89 10.188 18.936 13.688 29.14 7.812l7.046-4.094 0.796 13.154h0.016a21.364 21.364 0 0 0 2.796 9.406c5.89 10.188 18.938 13.688 29.14 7.812a21.33 21.33 0 0 0 10.61-19.748h0.032l-2.078-34.468 88.762-51.248 88.762 51.248-2.062 34.468h0.016c-0.454 7.78 3.376 15.56 10.61 19.748 10.202 5.876 23.25 2.376 29.14-7.812a21.36 21.36 0 0 0 2.812-9.406h0.016l0.782-13.154 7.062 4.094c10.204 5.876 23.25 2.376 29.14-7.812 5.89-10.218 2.39-23.25-7.812-29.156l-7.046-4.062 11-7.282h-0.016a21.35 21.35 0 0 0 6.732-7.122z" fill="#3BAFDA" /><path d="M372.204 322.256l-30.874-15.438V77.202l30.874-15.436v-0.032c6.984-3.5 11.796-10.718 11.796-19.062 0-11.782-9.546-21.344-21.328-21.344a21.22 21.22 0 0 0-9.532 2.282l-0.016-0.032-11.796 5.906v-8.156c0-11.78-9.546-21.31-21.328-21.31s-21.328 9.532-21.328 21.31v8.156l-11.796-5.876a21.272 21.272 0 0 0-9.532-2.282c-11.78 0-21.342 9.562-21.342 21.344 0 8.344 4.812 15.562 11.796 19.062v0.032l30.874 15.436v229.618l-30.874 15.438c-6.984 3.5-11.796 10.718-11.796 19.062a21.332 21.332 0 0 0 21.342 21.344c3.422 0 6.656-0.812 9.532-2.282v0.032l11.796-5.906v8.156c0 11.78 9.546 21.342 21.328 21.342s21.328-9.562 21.328-21.342v-8.156l11.796 5.906 0.016-0.032a20.834 20.834 0 0 0 9.532 2.282c11.78 0 21.328-9.532 21.328-21.344 0-8.344-4.812-15.562-11.796-19.062z" fill="#4FC2E9" /></svg>