<?xml version="1.0" standalone="no"?><!DOCTYPE svg PUBLIC "-//W3C//DTD SVG 1.1//EN" "http://www.w3.org/Graphics/SVG/1.1/DTD/svg11.dtd"><svg class="icon" width="128px" height="128.00px" viewBox="0 0 1024 1024" version="1.1" xmlns="http://www.w3.org/2000/svg"><path d="M138.11 448.488c13.25-4.156 28.716-8.344 46.748-12.436 87.154-19.812 203.304-30.718 327.142-30.718 123.808 0 239.99 10.906 327.114 30.718 18.03 4.092 33.498 8.28 46.746 12.436 23.624-7.062 43.436-14.812 58.81-23.092 51.684-56.482-19.032-98.684-58.466-107.652-90.122-20.484-235.74-28.404-362.64-28.404-126.902 0-288.52 2.172-378.64 22.654-39.436 8.968-77.84 60.42-102.246 72.014 15.34 8.28 71.808 57.416 95.432 64.48z" fill="#DA4453" /><path d="M512 512c-126.932 0-246.458-11.28-336.612-31.764-44.966-10.234-80.622-22.312-105.932-35.92-31.936-17.156-48.124-37.452-48.124-60.31 0-22.86 16.188-43.156 48.124-60.31 25.312-13.61 60.966-25.686 105.932-35.92 90.154-20.484 209.68-31.764 336.612-31.764 126.902 0 246.428 11.282 336.582 31.764 44.964 10.234 80.62 22.31 105.932 35.92 31.936 17.156 48.122 37.452 48.122 60.31 0 22.858-16.186 43.154-48.122 60.31-25.312 13.608-60.966 25.686-105.932 35.92C758.428 500.72 638.902 512 512 512z m0-213.32c-123.838 0-239.99 10.906-327.142 30.702-98.652 22.42-120.838 47.576-120.838 54.624s22.186 32.202 120.838 54.622c87.154 19.796 203.304 30.702 327.142 30.702 123.808 0 239.99-10.906 327.114-30.702 98.65-22.42 120.87-47.576 120.87-54.622s-22.218-32.204-120.87-54.624C751.99 309.586 635.808 298.68 512 298.68z" fill="#ED5564" /><path d="M981.292 362.678c-11.782 0-21.31 9.546-21.31 21.328 0 7.046-22.218 32.202-120.87 54.622-87.124 19.796-203.304 30.702-327.114 30.702-123.838 0-239.99-10.906-327.142-30.702-98.652-22.42-120.838-47.576-120.838-54.622 0-11.782-9.562-21.328-21.342-21.328-11.782 0-21.344 9.546-21.344 21.328V512c0 22.86 16.188 43.156 48.124 60.308 25.312 13.624 60.966 25.688 105.932 35.938 90.154 20.468 209.68 31.75 336.612 31.75 126.902 0 246.428-11.282 336.582-31.75 44.964-10.25 80.62-22.312 105.932-35.938 31.936-17.152 48.122-37.45 48.122-60.308v-127.994c-0.002-11.782-9.562-21.328-21.344-21.328z" fill="#ED5564" /><path d="M810.644 533.328c0 11.796-9.562 21.36-21.344 21.36s-21.312-9.562-21.312-21.36c0-11.782 9.532-21.328 21.312-21.328s21.344 9.546 21.344 21.328zM256.01 533.328c0 11.796-9.562 21.36-21.342 21.36-11.782 0-21.342-9.562-21.342-21.36 0-11.782 9.562-21.328 21.342-21.328s21.342 9.546 21.342 21.328zM1002.634 491.158h-21.342c-11.782 0-21.31-9.562-21.31-21.344 0-11.78 9.53-21.326 21.31-21.326h21.342c11.782 0 21.344 9.546 21.344 21.326 0 11.78-9.562 21.344-21.344 21.344zM42.676 491.158H21.332c-11.78 0-21.31-9.562-21.31-21.344 0-11.78 9.532-21.326 21.31-21.326h21.344c11.78 0 21.342 9.546 21.342 21.326 0 11.78-9.562 21.344-21.342 21.344z" fill="#FFCE54" /><path d="M512 597.308c-11.78 0-21.342-9.532-21.342-21.312v-21.308c0-11.796 9.562-21.36 21.342-21.36 11.782 0 21.344 9.562 21.344 21.36v21.308c0 11.782-9.562 21.312-21.344 21.312z" fill="#F6BB42" /><path d="M512 554.688c-58.81 0-106.652 47.808-106.652 106.618 0 58.844 47.84 106.684 106.652 106.684s106.654-47.84 106.654-106.684c0-58.81-47.844-106.618-106.654-106.618z" fill="#FFCE54" /><path d="M533.344 661.304c0 11.812-9.562 21.376-21.344 21.376-11.78 0-21.342-9.562-21.342-21.376 0-11.75 9.562-21.308 21.342-21.308 11.782 0 21.344 9.558 21.344 21.308z" fill="#F6BB42" /></svg>