<?xml version="1.0" standalone="no"?><!DOCTYPE svg PUBLIC "-//W3C//DTD SVG 1.1//EN" "http://www.w3.org/Graphics/SVG/1.1/DTD/svg11.dtd"><svg class="icon" width="128px" height="128.00px" viewBox="0 0 1024 1024" version="1.1" xmlns="http://www.w3.org/2000/svg"><path d="M318.77 789.128v-0.032c-51.124-2-66.81-74.186-66.966-74.904l-41.796 8.562c0.218 1.032 5.406 26.032 20.14 51.404 21.062 36.25 51.124 56.156 86.95 57.562v-0.032c0.282 0.032 0.562 0.062 0.844 0.062 11.782 0 21.328-9.562 21.328-21.344 0-11.496-9.094-20.84-20.5-21.278z" fill="#F6BB42" /><path d="M930.02 446.48c-20.75-112.934 128.464-328.772 11.624-420.77C824.772-66.32 582.84 119.394 489.344 107.52 395.83 95.678 210.334 4.492 102.416 54.772c-203.51 94.81-15.188 590.548 2.594 623.61 17.796 33.062 59.06 86.058 127.668 69.28 82.326-20.156 120.248-129.436-15.594-490.8-8.046-21.404 134.982 36.686 318.21 39.092s217.354-64.308 226.26-50.686c0 0-34.468 42.624-15.156 233.4 15.156 149.84 137.84 169.278 29.532 216.34-124.372 54.06-460.502-399.054-337.038 292.46 0 0 73.704 82.152 178.698 0 19.718-15.438-26.532-169.028-19.876-172.152 6.688-3.124 216.872 124.902 357.086-28.468 140.246-153.372-4.062-227.432-24.78-340.368z" fill="#FFCE54" /><path d="M102.416 97.458c107.918-50.28 293.414 40.874 386.928 52.75 93.496 11.842 335.43-173.872 452.3-81.842 27.938 22 40.656 51.092 44.124 84.186 4.436-50.592-4.688-95.78-44.124-126.84-116.872-92.03-358.804 93.684-452.3 81.81-93.514-11.844-279.01-103.03-386.928-52.75C26.714 90.052 5.246 180.8 9.028 282.546c3.422-83.808 28.468-154.838 93.388-185.088z" fill="#FFFFFF" opacity=".2" /><path d="M497.546 866.41c50.452-5.562 89.012-2.75 110.292 7.842-4.25-19.686-8.188-37.248-9.876-47.998-27.5-6.188-62.764-6.968-105.606-2.218-30.734 3.406-58.388 8.876-75.232 12.594 1.36 13.5 2.984 27.718 4.906 42.654 15.112-3.438 43.862-9.406 75.516-12.874zM655.372 838.254c23.904-59.312 8.656-128.872-7.156-174.652-19-9.844-38.406-20.5-57.5-30.25l-1.094 0.562c0.594 1.156 57.5 110.998 26.156 188.434 9.874 4.312 23.374 10.062 39.594 15.906z" fill="#F6BB42" /><path d="M886.926 838.722c6.124-35.75-4.968-74.032-32.966-112.716-15.25-21.06-32.654-38.154-45.374-49.404-7.062 5.876-17.624 11.876-32.656 18.406a53.284 53.284 0 0 1-8.5 2.844c7.062 5.438 31.876 25.466 51.968 53.186 28.31 39.092 33.81 74.624 16.31 105.686 17.188-3.782 34.376-9.596 51.218-18.002zM1007.362 613.852c-3.188-9.532-7.156-18.844-11.624-28.06-35.06-11.688-81.624-13.75-138.902-6-28.498 3.844-53.686 9.344-70.498 13.5 9.376 15.092 18.468 27.404 24.844 38.03 14.468-3.218 32.466-6.718 51.966-9.344 59.78-8 106.154-4.312 134.122 10.688l10.092-18.814zM812.992 387.61c-28.156 4.718-54.376 11.186-71.906 15.936 0.468 13.406 1.282 27.938 2.468 43.56 15.718-4.438 45.376-12.216 76.906-17.498 62.246-10.406 93.464-4.5 101.934 4.5l5.718-5.376c-0.468-12.156 0.5-25.188 2.532-38.936-25.78-10.406-64.622-11.092-117.652-2.186z" fill="#F6BB42" /><path d="M812.68 220.394c-19.844 7.844-37.812 16.124-52.624 23.466 0.562 0.282 1.062 0.75 1.5 1.406 0 0-10.188 12.624-16.406 54.81 11.844-6.782 44.156-24.624 83.844-40.248 56.402-22.25 104.934-31.31 141.59-26.592 3.624-14.032 6.906-28 9.562-41.75-45.126-6.936-101.346 2.752-167.466 28.908zM669.902 181.988c6.124 40.25 16.53 75.154 22.404 92.966 16.75-5.844 29.498-12.062 39.216-17.406-5.532-17.438-14.344-48.218-19.53-82.686-6.938-46-8.812-108.184 21.592-143.09l-4.218-3.656c-17.904 6.438-35.842 13.5-53.466 20.718-12.122 35-14.154 79.562-5.998 133.154z" fill="#F6BB42" /><path d="M480.296 226.082c-5.344-35.812-5.452-85.342 24.392-118.216-5.468 0.344-10.61 0.282-15.344-0.344-9.89-1.25-20.828-3.376-32.578-6.156-37.562 63.592-18.344 147.902-4.75 189.838a1055.878 1055.878 0 0 0 46.532 3.532c-4.172-10.72-13.532-37.156-18.252-68.654zM261.958 184.644c-10.718-56-3.312-100.03 21.984-130.966-15.296-3.532-30.608-6.594-45.702-8.968-42.498 71-18.202 162.778-1.17 208.808 11.936 1.906 28.796 5.656 49.702 10.188l0.656-0.312c-0.174-0.346-17.016-34.594-25.47-78.75zM240.772 322.39a2518.92 2518.92 0 0 0-14.328-40.25c-7.578 3.094-50.328 20.032-98.248 29.438-66.092 13-100.326 4.468-118.06-8.062 1.124 16.376 2.844 32.938 5.032 49.532 15.718 5.062 33.874 7.624 54.452 7.624 20.17 0 42.686-2.438 67.466-7.344 48.906-9.688 91.484-26.032 103.686-30.938zM296.912 523.73a934.91 934.91 0 0 0-9-42.688c-48.218 22.406-171.792 67.406-237.104 40.624a1557.502 1557.502 0 0 0 14.312 48.06c11.062 1.938 22.952 2.906 35.686 2.906 30.328 0 65.358-5.468 104.826-16.438 39.656-11.026 73.622-24.776 91.28-32.464z" fill="#F6BB42" /></svg>