<?xml version="1.0" standalone="no"?><!DOCTYPE svg PUBLIC "-//W3C//DTD SVG 1.1//EN" "http://www.w3.org/Graphics/SVG/1.1/DTD/svg11.dtd"><svg class="icon" width="128px" height="128.00px" viewBox="0 0 1024 1024" version="1.1" xmlns="http://www.w3.org/2000/svg"><path d="M1014.084 249.128l-156.466-156.56c-12.498-12.5-28.874-18.716-45.248-18.716s-32.718 6.216-45.218 18.716L18.742 840.962c-24.984 24.998-24.984 65.498 0 90.466 12.484 12.5 28.858 18.718 45.234 18.718 16.36 0 32.734-6.218 45.218-18.718l371.494-371.494 111.25 111.342c17.094 7.032 31.466 9.906 43.56 9.906 52.998 0 61.966-55.154 61.966-55.154l-141.402-141.466 271.372-271.372 141.402 141.466c-0.002 0.002 83.186-13.53 45.248-105.528z" fill="#656D78" /><path d="M932.99 379.002l-143.746-143.748-30.156 30.156 143.748 143.748c8.31 8.344 21.81 8.344 30.154 0 8.312-8.312 8.312-21.812 0-30.156zM872.68 439.312l-143.748-143.746-30.156 30.154 143.718 143.716 0.032 0.032a21.348 21.348 0 0 0 30.154 0c8.312-8.312 8.312-21.812 0-30.156zM668.622 355.876l-30.156 30.156 143.748 143.748c8.344 8.312 21.844 8.312 30.156 0 8.344-8.344 8.344-21.844 0-30.156l-143.748-143.748zM752.056 559.936l-143.746-143.746-30.124 30.154 143.714 143.716 0.032 0.032c8.312 8.312 21.812 8.312 30.124 0 8.344-8.344 8.344-21.844 0-30.156z" fill="#434A54" /></svg>