<?xml version="1.0" standalone="no"?><!DOCTYPE svg PUBLIC "-//W3C//DTD SVG 1.1//EN" "http://www.w3.org/Graphics/SVG/1.1/DTD/svg11.dtd"><svg class="icon" width="128px" height="128.00px" viewBox="0 0 1024 1024" version="1.1" xmlns="http://www.w3.org/2000/svg"><path d="M576 954.554V512h-127.624v442.554a89.736 89.736 0 0 0-0.188 5.438c0 47.124 16.876 64 64 64 47.124 0 64-16.876 64-64 0-1.812-0.064-3.624-0.188-5.438z" fill="#D770AD" /><path d="M320.004 128.006c0 11.782 9.546 21.328 21.328 21.328h42.67V106.678h-42.67c-11.782 0-21.328 9.546-21.328 21.328zM320.004 213.332c0 11.782 9.546 21.344 21.328 21.344h42.67V192.004h-42.67c-11.782 0-21.328 9.546-21.328 21.328zM320.004 298.674c0 11.78 9.546 21.328 21.328 21.328h42.67v-42.67h-42.67c-11.782 0-21.328 9.562-21.328 21.342zM320.004 384.002c0 11.782 9.546 21.328 21.328 21.328h42.67v-42.656h-42.67c-11.782 0-21.328 9.546-21.328 21.328zM320.004 469.328c0 11.782 9.546 21.344 21.328 21.344h42.67V448h-42.67c-11.782 0-21.328 9.546-21.328 21.328zM703.996 128.006c0-11.782-9.562-21.328-21.312-21.328h-42.686v42.656h42.686c11.75 0 21.312-9.546 21.312-21.328zM576 0.008h-128c-11.78 0-21.328 9.546-21.328 21.328 0 11.796 9.546 21.344 21.328 21.344h128c11.782 0 21.312-9.546 21.312-21.344 0-11.782-9.53-21.328-21.312-21.328zM682.684 192.004h-42.686v42.67h42.686c11.75 0 21.312-9.562 21.312-21.344s-9.562-21.326-21.312-21.326zM682.684 277.332h-42.686v42.67h42.686c11.75 0 21.312-9.546 21.312-21.328 0-11.78-9.562-21.342-21.312-21.342zM682.684 362.674h-42.686v42.656h42.686c11.75 0 21.312-9.546 21.312-21.328s-9.562-21.328-21.312-21.328zM682.684 448h-42.686v42.672h42.686c11.75 0 21.312-9.562 21.312-21.344S694.434 448 682.684 448z" fill="#434A54" /><path d="M533.328 938.68V490.672h-42.656V938.68c0 11.75 9.546 21.312 21.328 21.312s21.328-9.562 21.328-21.312z" fill="#EC87C0" /><path d="M639.998 554.686c0 11.75-9.562 21.312-21.312 21.312H405.33c-11.782 0-21.328-9.562-21.328-21.312V42.68c0-11.782 9.546-21.344 21.328-21.344h213.356c11.75 0 21.312 9.562 21.312 21.344v512.006z" fill="#656D78" /><path d="M490.672 128.006c0 11.782-9.562 21.328-21.344 21.328S448 139.788 448 128.006s9.546-21.328 21.328-21.328 21.344 9.546 21.344 21.328zM576 128.006c0 11.782-9.562 21.328-21.312 21.328-11.796 0-21.36-9.546-21.36-21.328s9.562-21.328 21.36-21.328c11.75 0 21.312 9.546 21.312 21.328zM490.672 213.332c0 11.782-9.562 21.344-21.344 21.344S448 225.114 448 213.332s9.546-21.328 21.328-21.328 21.344 9.546 21.344 21.328zM576 213.332c0 11.782-9.562 21.344-21.312 21.344-11.796 0-21.36-9.562-21.36-21.344s9.562-21.328 21.36-21.328c11.75 0 21.312 9.546 21.312 21.328zM490.672 298.674c0 11.78-9.562 21.328-21.344 21.328S448 310.456 448 298.674s9.546-21.342 21.328-21.342 21.344 9.562 21.344 21.342zM576 298.674c0 11.78-9.562 21.328-21.312 21.328-11.796 0-21.36-9.546-21.36-21.328s9.562-21.342 21.36-21.342c11.75 0 21.312 9.562 21.312 21.342zM490.672 384.002c0 11.782-9.562 21.328-21.344 21.328S448 395.784 448 384.002s9.546-21.328 21.328-21.328 21.344 9.546 21.344 21.328zM576 384.002c0 11.782-9.562 21.328-21.312 21.328-11.796 0-21.36-9.546-21.36-21.328s9.562-21.328 21.36-21.328c11.75 0 21.312 9.546 21.312 21.328zM490.672 469.328c0 11.782-9.562 21.344-21.344 21.344S448 481.11 448 469.328 457.548 448 469.33 448s21.342 9.546 21.342 21.328zM576 469.328c0 11.782-9.562 21.344-21.312 21.344-11.796 0-21.36-9.562-21.36-21.344S542.89 448 554.688 448c11.75 0 21.312 9.546 21.312 21.328z" fill="#434A54" /></svg>