<?xml version="1.0" standalone="no"?><!DOCTYPE svg PUBLIC "-//W3C//DTD SVG 1.1//EN" "http://www.w3.org/Graphics/SVG/1.1/DTD/svg11.dtd"><svg class="icon" width="128px" height="128.00px" viewBox="0 0 1024 1024" version="1.1" xmlns="http://www.w3.org/2000/svg"><path d="M715.996 170.676c0-11.78-9.562-21.328-21.312-21.328H491.5v42.656h203.182c11.752 0 21.314-9.546 21.314-21.328zM694.684 234.676H491.5v42.672h203.182c11.75 0 21.312-9.546 21.312-21.344 0.002-11.782-9.56-21.328-21.31-21.328zM694.684 320.002H491.5l-2.672 42.672h203.166c11.782 0 21.312-9.546 21.312-21.328s-9.528-21.344-18.622-21.344zM694.684 405.344H491.5v42.67h203.182c11.75 0 21.312-9.562 21.312-21.344 0.002-11.778-9.56-21.326-21.31-21.326zM691.996 490.672H488.83v42.672h203.166c11.782 0 21.312-9.546 21.312-21.328 0-11.798-9.53-21.344-21.312-21.344zM691.996 575.998H488.83v42.688h203.166c11.782 0 21.312-9.562 21.312-21.344s-9.53-21.344-21.312-21.344zM691.996 661.34H488.83v42.656h203.166c11.782 0 21.312-9.562 21.312-21.312 0-11.812-9.53-21.344-21.312-21.344zM691.996 746.684H488.83v42.656h203.166c11.782 0 21.312-9.532 21.312-21.344a21.298 21.298 0 0 0-21.312-21.312zM691.996 831.994H488.83v42.686h203.166c11.782 0 21.312-9.562 21.312-21.344 0-11.78-9.53-21.342-21.312-21.342z" fill="#D770AD" /><path d="M521.328 917.336V106.678h184.606S739.622 18.68 663.248 0.008H393.33s-85.326 51.468-85.326 512.008c0 460.508 85.326 511.976 85.326 511.976h269.918c76.374-18.656 42.686-106.656 42.686-106.656h-184.606z" fill="#EC87C0" /></svg>