<?xml version="1.0" standalone="no"?><!DOCTYPE svg PUBLIC "-//W3C//DTD SVG 1.1//EN" "http://www.w3.org/Graphics/SVG/1.1/DTD/svg11.dtd"><svg class="icon" width="128px" height="128.00px" viewBox="0 0 1024 1024" version="1.1" xmlns="http://www.w3.org/2000/svg"><path d="M297.34 128.056c-4.748 0-9.56-1.578-13.498-4.812-9.124-7.454-10.468-20.938-3-30.062C283.904 89.386 358.684 0.012 515.024 0.012c157.168 0 223.602 90.42 226.352 94.264 6.812 9.594 4.624 22.906-5 29.766-9.56 6.844-22.874 4.624-29.748-4.968-0.062-0.094-14.312-19.312-44.874-38.204-41-25.342-90.376-38.186-146.73-38.186-56.688 0-107.748 13-151.714 38.638-32.906 19.204-49.344 38.718-49.5 38.922a21.204 21.204 0 0 1-16.47 7.812z" fill="#434A54" /><path d="M917.308 85.338H106.69c-35.282 0-63.998 28.718-63.998 63.998v810.652c0 35.312 28.716 64 63.998 64h810.62c35.312 0 64-28.688 64-64V149.336c-0.002-35.28-28.688-63.998-64.002-63.998z" fill="#656D78" /><path d="M873.31 938.676H148.032c-11.81 0-21.342-9.562-21.342-21.374V362.676c0-11.782 9.532-21.344 21.342-21.344h725.28c11.812 0 21.374 9.562 21.374 21.344v554.626a21.366 21.366 0 0 1-21.376 21.374z" fill="#434A54" /><path d="M148.032 85.338H106.69c-35.282 0-63.998 28.718-63.998 63.998V190.68l105.34-105.342zM981.308 190.68V149.336c0-35.28-28.688-63.998-64-63.998h-41.31l105.31 105.342zM875.998 1022.676h41.31c35.312 0 64-28.75 64-64v-41.374l-105.31 105.374zM42.692 918.678v41.31c0 35.312 28.716 64 63.998 64h41.342l-105.34-105.31z" fill="#AAB2BC" /><path d="M425.338 234.458c0 23.562-19.094 42.656-42.656 42.656-23.56 0-42.654-19.094-42.654-42.656 0-23.576 19.094-42.67 42.654-42.67 23.562 0.002 42.656 19.094 42.656 42.67z" fill="#ED5564" /><path d="M382.682 298.458c-35.28 0-63.998-28.718-63.998-64 0-35.294 28.718-63.998 63.998-63.998 35.282 0 64 28.704 64 63.998 0 35.282-28.72 64-64 64z m0-85.34c-11.78 0-21.342 9.576-21.342 21.342 0 11.75 9.562 21.328 21.342 21.328 11.75 0 21.344-9.578 21.344-21.328 0-11.766-9.594-21.342-21.344-21.342z" fill="#DA4453" /><path d="M553.318 234.458c0 23.562-19.078 42.656-42.638 42.656-23.562 0-42.656-19.094-42.656-42.656 0-23.576 19.094-42.67 42.656-42.67 23.56 0.002 42.638 19.094 42.638 42.67z" fill="#ED5564" /><path d="M510.68 298.458c-35.282 0-63.998-28.718-63.998-64 0-35.294 28.716-63.998 63.998-63.998 35.264 0 64.012 28.704 64.012 63.998 0 35.282-28.748 64-64.012 64z m0-85.34c-11.782 0-21.344 9.576-21.344 21.342 0 11.75 9.562 21.328 21.344 21.328 11.75 0 21.342-9.578 21.342-21.328 0-11.766-9.592-21.342-21.342-21.342z" fill="#DA4453" /><path d="M681.316 234.458c0 23.562-19.062 42.656-42.624 42.656s-42.688-19.094-42.688-42.656c0-23.576 19.124-42.67 42.688-42.67s42.624 19.094 42.624 42.67z" fill="#ED5564" /><path d="M638.692 298.458c-35.312 0-64-28.718-64-64 0-35.294 28.688-63.998 64-63.998 35.25 0 63.998 28.704 63.998 63.998 0 35.282-28.748 64-63.998 64z m0-85.34c-11.812 0-21.376 9.576-21.376 21.342 0 11.75 9.562 21.328 21.376 21.328 11.75 0 21.312-9.578 21.312-21.328 0-11.766-9.562-21.342-21.312-21.342z" fill="#DA4453" /><path d="M169.344 277.116c0 11.782-9.562 21.344-21.312 21.344-11.81 0-21.342-9.562-21.342-21.344s9.532-21.328 21.342-21.328c11.75 0 21.312 9.546 21.312 21.328zM233.342 277.116c0 11.782-9.562 21.344-21.31 21.344-11.812 0-21.344-9.562-21.344-21.344s9.532-21.328 21.344-21.328c11.748 0 21.31 9.546 21.31 21.328zM297.34 277.116c0 11.782-9.56 21.344-21.31 21.344-11.812 0-21.344-9.562-21.344-21.344s9.532-21.328 21.344-21.328c11.75 0 21.31 9.546 21.31 21.328zM169.344 213.336c0 11.78-9.562 21.342-21.312 21.342-11.81 0-21.342-9.562-21.342-21.342a21.32 21.32 0 0 1 21.342-21.328c11.75 0 21.312 9.546 21.312 21.328zM233.342 213.336c0 11.78-9.562 21.342-21.31 21.342a21.332 21.332 0 0 1-21.344-21.342c0-11.782 9.532-21.328 21.344-21.328 11.748 0 21.31 9.546 21.31 21.328zM297.34 213.336c0 11.78-9.56 21.342-21.31 21.342a21.332 21.332 0 0 1-21.344-21.342c0-11.782 9.532-21.328 21.344-21.328 11.75 0 21.31 9.546 21.31 21.328zM766.688 277.116c0 11.782-9.562 21.344-21.376 21.344-11.75 0-21.31-9.562-21.31-21.344s9.56-21.328 21.31-21.328c11.812 0 21.376 9.546 21.376 21.328zM830.688 277.116c0 11.782-9.562 21.344-21.376 21.344-11.75 0-21.312-9.562-21.312-21.344s9.562-21.328 21.312-21.328c11.812 0 21.376 9.546 21.376 21.328zM894.684 277.116c0 11.782-9.56 21.344-21.374 21.344-11.75 0-21.312-9.562-21.312-21.344s9.562-21.328 21.312-21.328c11.814 0 21.374 9.546 21.374 21.328z" fill="#FFCE54" /><path d="M212.032 448.002c11.748 0 21.31-9.546 21.31-21.328s-9.562-21.344-21.31-21.344c-11.812 0-21.344 9.562-21.344 21.344s9.53 21.328 21.344 21.328zM297.34 448.002c11.782 0 21.344-9.546 21.344-21.328s-9.562-21.344-21.344-21.344c-11.78 0-21.31 9.562-21.31 21.344s9.53 21.328 21.31 21.328zM382.682 448.002c11.782 0 21.344-9.546 21.344-21.328s-9.562-21.344-21.344-21.344c-11.78 0-21.342 9.562-21.342 21.344s9.562 21.328 21.342 21.328zM468.024 448.002c11.75 0 21.312-9.546 21.312-21.328s-9.562-21.344-21.312-21.344c-11.812 0-21.342 9.562-21.342 21.344s9.528 21.328 21.342 21.328zM553.318 448.002c11.812 0 21.374-9.546 21.374-21.328s-9.56-21.344-21.374-21.344c-11.766 0-21.296 9.562-21.296 21.344s9.53 21.328 21.296 21.328zM638.692 448.002c11.75 0 21.312-9.546 21.312-21.328s-9.562-21.344-21.312-21.344c-11.812 0-21.376 9.562-21.376 21.344s9.562 21.328 21.376 21.328zM724.002 448.002c11.748 0 21.31-9.546 21.31-21.328s-9.562-21.344-21.31-21.344c-11.812 0-21.312 9.562-21.312 21.344s9.5 21.328 21.312 21.328zM254.686 490.672c11.782 0 21.344-9.562 21.344-21.344 0-11.78-9.562-21.326-21.344-21.326s-21.344 9.546-21.344 21.326c0 11.782 9.562 21.344 21.344 21.344zM340.028 490.672c11.75 0 21.312-9.562 21.312-21.344 0-11.78-9.562-21.326-21.312-21.326-11.812 0-21.344 9.546-21.344 21.326 0 11.782 9.53 21.344 21.344 21.344zM681.316 490.672c11.81 0 21.374-9.562 21.374-21.344 0-11.78-9.562-21.326-21.374-21.326-11.75 0-21.312 9.546-21.312 21.326 0 11.782 9.562 21.344 21.312 21.344zM766.688 490.672c11.75 0 21.312-9.562 21.312-21.344 0-11.78-9.562-21.326-21.312-21.326-11.812 0-21.376 9.546-21.376 21.326 0 11.782 9.564 21.344 21.376 21.344zM809.312 448.002c11.812 0 21.376-9.546 21.376-21.328s-9.562-21.344-21.376-21.344c-11.75 0-21.312 9.562-21.312 21.344s9.562 21.328 21.312 21.328zM212.032 533.328c11.748 0 21.31-9.546 21.31-21.328s-9.562-21.328-21.31-21.328c-11.812 0-21.344 9.546-21.344 21.328s9.53 21.328 21.344 21.328zM297.34 490.672c-11.78 0-21.31 9.546-21.31 21.328s9.532 21.328 21.31 21.328c11.782 0 21.344-9.546 21.344-21.328s-9.562-21.328-21.344-21.328zM724.002 533.328c11.748 0 21.31-9.546 21.31-21.328s-9.562-21.328-21.31-21.328c-11.812 0-21.312 9.546-21.312 21.328s9.5 21.328 21.312 21.328zM254.686 533.328c-11.782 0-21.344 9.562-21.344 21.36 0 11.748 9.562 21.31 21.344 21.31s21.344-9.562 21.344-21.31c0-11.798-9.564-21.36-21.344-21.36zM340.028 533.328c-11.812 0-21.344 9.562-21.344 21.36 0 11.748 9.532 21.31 21.344 21.31 11.75 0 21.312-9.562 21.312-21.31 0-11.798-9.562-21.36-21.312-21.36zM425.338 533.328c-11.782 0-21.312 9.562-21.312 21.36 0 11.748 9.532 21.31 21.312 21.31s21.344-9.562 21.344-21.31c0-11.798-9.562-21.36-21.344-21.36zM510.68 533.328c-11.782 0-21.344 9.562-21.344 21.36 0 11.748 9.562 21.31 21.344 21.31s21.342-9.562 21.342-21.31c0-11.798-9.562-21.36-21.342-21.36zM596.004 533.328c-11.812 0-21.312 9.562-21.312 21.36 0 11.748 9.5 21.31 21.312 21.31 11.75 0 21.312-9.562 21.312-21.31 0-11.798-9.562-21.36-21.312-21.36zM681.316 533.328c-11.75 0-21.312 9.562-21.312 21.36 0 11.748 9.562 21.31 21.312 21.31 11.81 0 21.374-9.562 21.374-21.31 0-11.798-9.564-21.36-21.374-21.36zM766.688 533.328c-11.812 0-21.376 9.562-21.376 21.36 0 11.748 9.562 21.31 21.376 21.31 11.75 0 21.312-9.562 21.312-21.31 0-11.798-9.562-21.36-21.312-21.36zM809.312 490.672c-11.75 0-21.312 9.546-21.312 21.328s9.562 21.328 21.312 21.328c11.812 0 21.376-9.546 21.376-21.328s-9.564-21.328-21.376-21.328zM212.032 618.684c11.748 0 21.31-9.56 21.31-21.374 0-11.75-9.562-21.312-21.31-21.312-11.812 0-21.344 9.562-21.344 21.312 0 11.814 9.53 21.374 21.344 21.374zM297.34 618.684c11.782 0 21.344-9.56 21.344-21.374 0-11.75-9.562-21.312-21.344-21.312-11.78 0-21.31 9.562-21.31 21.312 0 11.814 9.53 21.374 21.31 21.374zM382.682 618.684c11.782 0 21.344-9.56 21.344-21.374 0-11.75-9.562-21.312-21.344-21.312-11.78 0-21.342 9.562-21.342 21.312 0 11.814 9.562 21.374 21.342 21.374zM468.024 618.684c11.75 0 21.312-9.56 21.312-21.374 0-11.75-9.562-21.312-21.312-21.312-11.812 0-21.342 9.562-21.342 21.312 0 11.814 9.528 21.374 21.342 21.374zM553.318 618.684c11.812 0 21.374-9.56 21.374-21.374 0-11.75-9.56-21.312-21.374-21.312-11.766 0-21.296 9.562-21.296 21.312 0 11.814 9.53 21.374 21.296 21.374zM638.692 618.684c11.75 0 21.312-9.56 21.312-21.374 0-11.75-9.562-21.312-21.312-21.312-11.812 0-21.376 9.562-21.376 21.312a21.364 21.364 0 0 0 21.376 21.374zM724.002 618.684c11.748 0 21.31-9.56 21.31-21.374 0-11.75-9.562-21.312-21.31-21.312-11.812 0-21.312 9.562-21.312 21.312 0 11.814 9.5 21.374 21.312 21.374zM254.686 661.308c11.782 0 21.344-9.532 21.344-21.312s-9.562-21.312-21.344-21.312-21.344 9.532-21.344 21.312 9.562 21.312 21.344 21.312zM340.028 618.684c-11.812 0-21.344 9.532-21.344 21.312s9.532 21.312 21.344 21.312c11.75 0 21.312-9.532 21.312-21.312s-9.562-21.312-21.312-21.312zM425.338 618.684c-11.782 0-21.312 9.532-21.312 21.312s9.532 21.312 21.312 21.312 21.344-9.532 21.344-21.312-9.562-21.312-21.344-21.312zM510.68 618.684c-11.782 0-21.344 9.532-21.344 21.312s9.562 21.312 21.344 21.312 21.342-9.532 21.342-21.312-9.562-21.312-21.342-21.312zM596.004 618.684c-11.812 0-21.312 9.532-21.312 21.312s9.5 21.312 21.312 21.312c11.75 0 21.312-9.532 21.312-21.312s-9.562-21.312-21.312-21.312zM681.316 618.684c-11.75 0-21.312 9.532-21.312 21.312s9.562 21.312 21.312 21.312c11.81 0 21.374-9.532 21.374-21.312s-9.564-21.312-21.374-21.312zM766.688 618.684c-11.812 0-21.376 9.532-21.376 21.312s9.562 21.312 21.376 21.312c11.75 0 21.312-9.532 21.312-21.312s-9.562-21.312-21.312-21.312zM809.312 575.998c-11.75 0-21.312 9.562-21.312 21.312 0 11.812 9.562 21.374 21.312 21.374 11.812 0 21.376-9.56 21.376-21.374 0-11.75-9.564-21.312-21.376-21.312zM212.032 703.996c11.748 0 21.31-9.562 21.31-21.312 0-11.812-9.562-21.376-21.31-21.376-11.812 0-21.344 9.562-21.344 21.376 0 11.75 9.53 21.312 21.344 21.312zM297.34 661.308c-11.78 0-21.31 9.562-21.31 21.376 0 11.75 9.532 21.312 21.31 21.312 11.782 0 21.344-9.562 21.344-21.312 0-11.812-9.562-21.376-21.344-21.376zM382.682 661.308c-11.78 0-21.342 9.562-21.342 21.376 0 11.75 9.562 21.312 21.342 21.312 11.782 0 21.344-9.562 21.344-21.312 0-11.812-9.564-21.376-21.344-21.376zM468.024 661.308c-11.812 0-21.342 9.562-21.342 21.376 0 11.75 9.53 21.312 21.342 21.312 11.75 0 21.312-9.562 21.312-21.312 0-11.812-9.562-21.376-21.312-21.376zM553.318 661.308c-11.766 0-21.296 9.562-21.296 21.376 0 11.75 9.532 21.312 21.296 21.312 11.812 0 21.374-9.562 21.374-21.312a21.366 21.366 0 0 0-21.374-21.376zM638.692 661.308a21.366 21.366 0 0 0-21.376 21.376c0 11.75 9.562 21.312 21.376 21.312 11.75 0 21.312-9.562 21.312-21.312 0-11.812-9.562-21.376-21.312-21.376zM724.002 661.308c-11.812 0-21.312 9.562-21.312 21.376 0 11.75 9.5 21.312 21.312 21.312 11.748 0 21.31-9.562 21.31-21.312 0-11.812-9.562-21.376-21.31-21.376zM254.686 746.682c11.782 0 21.344-9.562 21.344-21.376 0-11.748-9.562-21.31-21.344-21.31s-21.344 9.562-21.344 21.31c0 11.814 9.562 21.376 21.344 21.376zM340.028 746.682c11.75 0 21.312-9.562 21.312-21.376 0-11.748-9.562-21.31-21.312-21.31-11.812 0-21.344 9.562-21.344 21.31 0 11.814 9.53 21.376 21.344 21.376zM425.338 746.682c11.782 0 21.344-9.562 21.344-21.376 0-11.748-9.562-21.31-21.344-21.31s-21.312 9.562-21.312 21.31c0 11.814 9.53 21.376 21.312 21.376zM510.68 746.682c11.782 0 21.342-9.562 21.342-21.376 0-11.748-9.56-21.31-21.342-21.31s-21.344 9.562-21.344 21.31c0 11.814 9.562 21.376 21.344 21.376zM596.004 746.682c11.75 0 21.312-9.562 21.312-21.376 0-11.748-9.562-21.31-21.312-21.31-11.812 0-21.312 9.562-21.312 21.31 0 11.814 9.5 21.376 21.312 21.376zM681.316 746.682a21.366 21.366 0 0 0 21.374-21.376c0-11.748-9.562-21.31-21.374-21.31-11.75 0-21.312 9.562-21.312 21.31 0 11.814 9.562 21.376 21.312 21.376zM766.688 746.682c11.75 0 21.312-9.562 21.312-21.376 0-11.748-9.562-21.31-21.312-21.31-11.812 0-21.376 9.562-21.376 21.31a21.366 21.366 0 0 0 21.376 21.376zM809.312 661.308c-11.75 0-21.312 9.562-21.312 21.376 0 11.75 9.562 21.312 21.312 21.312 11.812 0 21.376-9.562 21.376-21.312a21.368 21.368 0 0 0-21.376-21.376zM212.032 789.304c11.748 0 21.31-9.532 21.31-21.312 0-11.78-9.562-21.31-21.31-21.31-11.812 0-21.344 9.532-21.344 21.31 0 11.782 9.53 21.312 21.344 21.312zM297.34 789.304c11.782 0 21.344-9.532 21.344-21.312 0-11.78-9.562-21.31-21.344-21.31a21.298 21.298 0 0 0-21.31 21.31 21.296 21.296 0 0 0 21.31 21.312zM382.682 789.304c11.782 0 21.344-9.532 21.344-21.312 0-11.78-9.562-21.31-21.344-21.31-11.78 0-21.342 9.532-21.342 21.31 0 11.782 9.562 21.312 21.342 21.312zM468.024 789.304c11.75 0 21.312-9.532 21.312-21.312 0-11.78-9.562-21.31-21.312-21.31-11.812 0-21.342 9.532-21.342 21.31 0 11.782 9.528 21.312 21.342 21.312zM553.318 789.304c11.812 0 21.374-9.532 21.374-21.312 0-11.78-9.56-21.31-21.374-21.31-11.766 0-21.296 9.532-21.296 21.31 0 11.782 9.53 21.312 21.296 21.312zM638.692 789.304c11.75 0 21.312-9.532 21.312-21.312 0-11.78-9.562-21.31-21.312-21.31-11.812 0-21.376 9.532-21.376 21.31 0 11.782 9.562 21.312 21.376 21.312zM724.002 789.304c11.748 0 21.31-9.532 21.31-21.312 0-11.78-9.562-21.31-21.31-21.31a21.28 21.28 0 0 0-21.312 21.31c0 11.782 9.5 21.312 21.312 21.312zM254.686 789.304c-11.782 0-21.344 9.562-21.344 21.376 0 11.75 9.562 21.312 21.344 21.312s21.344-9.562 21.344-21.312c0-11.812-9.564-21.376-21.344-21.376zM340.028 789.304c-11.812 0-21.344 9.562-21.344 21.376 0 11.75 9.532 21.312 21.344 21.312 11.75 0 21.312-9.562 21.312-21.312 0-11.812-9.562-21.376-21.312-21.376zM425.338 789.304c-11.782 0-21.312 9.562-21.312 21.376 0 11.75 9.532 21.312 21.312 21.312s21.344-9.562 21.344-21.312c0-11.812-9.562-21.376-21.344-21.376zM510.68 789.304c-11.782 0-21.344 9.562-21.344 21.376 0 11.75 9.562 21.312 21.344 21.312s21.342-9.562 21.342-21.312c0-11.812-9.562-21.376-21.342-21.376zM596.004 789.304c-11.812 0-21.312 9.562-21.312 21.376 0 11.75 9.5 21.312 21.312 21.312 11.75 0 21.312-9.562 21.312-21.312 0-11.812-9.562-21.376-21.312-21.376zM681.316 789.304c-11.75 0-21.312 9.562-21.312 21.376 0 11.75 9.562 21.312 21.312 21.312 11.81 0 21.374-9.562 21.374-21.312 0-11.812-9.564-21.376-21.374-21.376zM766.688 789.304a21.366 21.366 0 0 0-21.376 21.376c0 11.75 9.562 21.312 21.376 21.312 11.75 0 21.312-9.562 21.312-21.312 0-11.812-9.562-21.376-21.312-21.376zM809.312 746.682c-11.75 0-21.312 9.532-21.312 21.31 0 11.782 9.562 21.312 21.312 21.312 11.812 0 21.376-9.532 21.376-21.312 0-11.78-9.564-21.31-21.376-21.31zM212.032 831.992c-11.812 0-21.344 9.562-21.344 21.312 0 11.812 9.532 21.376 21.344 21.376 11.748 0 21.31-9.562 21.31-21.376 0-11.75-9.562-21.312-21.31-21.312zM297.34 831.992c-11.78 0-21.31 9.562-21.31 21.312 0 11.812 9.532 21.376 21.31 21.376 11.782 0 21.344-9.562 21.344-21.376 0-11.75-9.562-21.312-21.344-21.312zM382.682 831.992c-11.78 0-21.342 9.562-21.342 21.312 0 11.812 9.562 21.376 21.342 21.376 11.782 0 21.344-9.562 21.344-21.376 0-11.75-9.564-21.312-21.344-21.312zM468.024 831.992c-11.812 0-21.342 9.562-21.342 21.312 0 11.812 9.53 21.376 21.342 21.376 11.75 0 21.312-9.562 21.312-21.376 0-11.75-9.562-21.312-21.312-21.312zM553.318 831.992c-11.766 0-21.296 9.562-21.296 21.312 0 11.812 9.532 21.376 21.296 21.376a21.364 21.364 0 0 0 21.374-21.376c0-11.75-9.562-21.312-21.374-21.312zM638.692 831.992c-11.812 0-21.376 9.562-21.376 21.312a21.366 21.366 0 0 0 21.376 21.376c11.75 0 21.312-9.562 21.312-21.376 0-11.75-9.562-21.312-21.312-21.312zM724.002 831.992c-11.812 0-21.312 9.562-21.312 21.312 0 11.812 9.5 21.376 21.312 21.376 11.748 0 21.31-9.562 21.31-21.376 0-11.75-9.562-21.312-21.31-21.312zM809.312 831.992c-11.75 0-21.312 9.562-21.312 21.312 0 11.812 9.562 21.376 21.312 21.376a21.366 21.366 0 0 0 21.376-21.376c0-11.75-9.564-21.312-21.376-21.312z" opacity=".2" /><path d="M615.816 512H404.026c-11.812 0-21.344-9.546-21.344-21.328s9.532-21.344 21.344-21.344h211.792c11.75 0 21.312 9.562 21.312 21.344S627.566 512 615.816 512z" fill="#ED5564" /><path d="M873.31 234.678h-127.998c-11.75 0-21.31-9.562-21.31-21.342 0-11.782 9.56-21.328 21.31-21.328h127.998c11.812 0 21.374 9.546 21.374 21.328 0 11.78-9.56 21.342-21.374 21.342z" fill="#434A54" /></svg>