<?xml version="1.0" standalone="no"?><!DOCTYPE svg PUBLIC "-//W3C//DTD SVG 1.1//EN" "http://www.w3.org/Graphics/SVG/1.1/DTD/svg11.dtd"><svg class="icon" width="128px" height="128.00px" viewBox="0 0 1024 1024" version="1.1" xmlns="http://www.w3.org/2000/svg"><path d="M811.906 403.718C800.562 365.718 1024 0 1024 0S495.376 312.718 469.282 300c-42.5-20.718 10.376-117.75 10.376-117.75l-376 316.968a290.828 290.828 0 0 0-16.188 15c-116.624 116.624-116.624 305.688 0 422.312s305.688 116.624 422.312 0c12.656-12.656 33.876-40.376 33.876-40.376L896 426.656s-73.656 12.062-84.094-22.938z" fill="#E9573F" /><path d="M298.438 725.124m-213.326 0a213.326 213.326 0 1 0 426.652 0 213.326 213.326 0 1 0-426.652 0Z" fill="#FFCE54" /></svg>