<?xml version="1.0" standalone="no"?><!DOCTYPE svg PUBLIC "-//W3C//DTD SVG 1.1//EN" "http://www.w3.org/Graphics/SVG/1.1/DTD/svg11.dtd"><svg class="icon" width="128px" height="128.00px" viewBox="0 0 1024 1024" version="1.1" xmlns="http://www.w3.org/2000/svg"><path d="M239.096 636.686h239.996v78.248H239.096z" fill="#E6E9ED" /><path d="M469.312 607.998H256.002c-23.532 0-42.686 19.124-42.686 42.688v42.624c0 23.562 19.156 42.688 42.686 42.688h213.308c23.532 0 42.688-19.124 42.688-42.688v-42.624c0.002-23.562-19.156-42.688-42.686-42.688z m0 85.31H256.002v-42.624h213.308l0.032 42.624h-0.03z" fill="#CCD1D9" /><path d="M173.316 164.708H544v250.668H173.316zM663.996 507.812h293.308v452.18H663.996z" fill="#5D9CEC" /><path d="M682.652 991.992c-11.782 0-21.344-9.562-21.344-21.312v-21.376c0-11.75 9.562-21.312 21.344-21.312s21.344 9.562 21.344 21.312v21.376c0 11.75-9.562 21.312-21.344 21.312zM938.648 991.992c-11.782 0-21.344-9.562-21.344-21.312v-21.376c0-11.75 9.562-21.312 21.344-21.312s21.344 9.562 21.344 21.312v21.376c0 11.75-9.562 21.312-21.344 21.312zM661.308 863.994H64.006c-11.812 0-21.342-9.562-21.342-21.31 0-11.812 9.532-21.376 21.342-21.376h597.302c11.782 0 21.344 9.562 21.344 21.376 0 11.748-9.562 21.31-21.344 21.31z" fill="#656D78" /><path d="M661.308 757.308c-100.934 0-173.434-11.624-215.528-34.562-15.5-8.468-26.812-18.438-33.656-29.624-6.156-10.03-6.812-18.124-6.812-21.124 0-11.782 9.562-21.312 21.344-21.312 10.968 0 20 8.25 21.188 18.938 0.782 1.75 5.876 11.25 30.5 21.374 47.658 19.562 125.81 23.688 182.966 23.688 11.782 0 21.344 9.532 21.344 21.312s-9.564 21.31-21.346 21.31z" fill="#AAB2BC" /><path d="M959.992 309.332H661.308c-11.782 0-21.312-9.546-21.312-21.328s9.532-21.328 21.312-21.328h298.684c11.75 0 21.312 9.546 21.312 21.328s-9.562 21.328-21.312 21.328z" fill="#656D78" /><path d="M959.992 970.68H661.308c-11.782 0-21.312-9.562-21.312-21.376V53.336c0-11.782 9.532-21.328 21.312-21.328h298.684c11.75 0 21.312 9.546 21.312 21.328v895.968c0 11.814-9.562 21.376-21.312 21.376z m-277.34-42.688h255.996V74.68H682.652v853.312zM64.006 991.992c-11.812 0-21.342-9.562-21.342-21.312V53.336a21.32 21.32 0 0 1 21.342-21.328c11.75 0 21.312 9.546 21.312 21.328V970.68c0 11.75-9.562 21.312-21.312 21.312z" fill="#434A54" /><path d="M448 522.672h-170.684a21.386 21.386 0 0 1-18.156-10.124 21.334 21.334 0 0 1-0.906-20.75l42.656-85.342a21.322 21.322 0 0 1 19.094-11.782h85.31c8.094 0 15.468 4.562 19.094 11.782l42.656 85.342a21.26 21.26 0 0 1-0.938 20.75 21.298 21.298 0 0 1-18.126 10.124z" fill="#CCD1D9" /><path d="M810.648 885.306c-11.778 0-21.34-9.532-21.34-21.312v-42.686c0-11.75 9.562-21.312 21.34-21.312 11.782 0 21.344 9.562 21.344 21.312v42.686c0 11.782-9.562 21.312-21.344 21.312z" fill="#4A89DC" /><path d="M554.656 437.33H170.662c-11.782 0-21.344-9.546-21.344-21.328V160.006c0-11.782 9.562-21.328 21.344-21.328h383.996c11.782 0 21.34 9.546 21.34 21.328v255.996c-0.002 11.782-9.56 21.328-21.342 21.328zM192.004 394.674h341.308V181.334H192.004v213.34z" fill="#E6E9ED" /><path d="M362.658 693.308c-11.782 0-21.342-9.53-21.342-21.31v-170.67c0-11.782 9.562-21.328 21.342-21.328S384 489.546 384 501.328v170.67c0 11.782-9.562 21.31-21.342 21.31z" fill="#AAB2BC" /><path d="M1002.648 522.672H21.32c-11.782 0-21.312-9.562-21.312-21.344S9.538 480 21.32 480h981.33c11.782 0 21.344 9.546 21.344 21.328s-9.564 21.344-21.346 21.344zM1002.648 74.68H21.32C9.538 74.68 0.008 65.118 0.008 53.336S9.538 32.008 21.32 32.008h981.33c11.782 0 21.344 9.546 21.344 21.328s-9.564 21.344-21.346 21.344z" fill="#656D78" /><path d="M360 394.674h-79.998l85.312-213.34h79.998z" fill="#FFFFFF" opacity=".1" /></svg>