<?xml version="1.0" standalone="no"?><!DOCTYPE svg PUBLIC "-//W3C//DTD SVG 1.1//EN" "http://www.w3.org/Graphics/SVG/1.1/DTD/svg11.dtd"><svg class="icon" width="128px" height="128.00px" viewBox="0 0 1024 1024" version="1.1" xmlns="http://www.w3.org/2000/svg"><path d="M512.016 683.566c-0.11-2.688-2.25-67.25 48.046-121.558 41.372-44.578 104.684-68.578 188.274-71.328l1.406 42.656c-46.844 1.532-86.214 10.5-117.028 26.61-23.75 12.376-42.532 29.122-55.876 49.746-23.058 35.75-22.214 71.812-22.184 72.188l-42.638 1.686z" fill="#AAB2BC" /><path d="M469.33 597.316H213.338l42.546-149.164 170.838-0.064z" fill="#434A54" /><path d="M42.688 469.336c-11.766 0-21.344-9.562-21.344-21.374V42.664c0-11.75 9.578-21.312 21.344-21.312h597.308c11.75 0 21.312 9.562 21.312 21.312v405.3c0 11.812-9.562 21.374-21.312 21.374H42.688z" fill="#5D9CEC" /><path d="M639.996 0.008H42.688C19.126 0.008 0.018 19.102 0.018 42.664v405.3c0 23.56 19.108 42.686 42.67 42.686h597.308c23.562 0 42.684-19.124 42.684-42.686V42.664c0-23.562-19.122-42.656-42.684-42.656z m0 447.956H42.688V42.664h597.308v405.3z" fill="#656D78" /><path d="M31.906 362.654h618.872v106.684H31.906z" fill="#656D78" /><path d="M362.676 426.652c0 11.812-9.562 21.312-21.342 21.312-11.782 0-21.328-9.5-21.328-21.312 0-11.75 9.546-21.312 21.328-21.312 11.78 0 21.342 9.562 21.342 21.312z" fill="#AAB2BC" /><path d="M469.33 554.632H213.338c-11.782 0-21.328 9.562-21.328 21.308 0 11.812 9.546 21.376 21.328 21.376h255.992c11.78 0 21.342-9.562 21.342-21.376 0-11.744-9.562-21.308-21.342-21.308z" fill="#656D78" /><path d="M1023.984 575.942c0 11.812-9.562 21.376-21.312 21.376H746.68a21.366 21.366 0 0 1-21.376-21.376V21.352c0-11.812 9.562-21.344 21.376-21.344h255.992c11.75 0 21.312 9.532 21.312 21.344v554.59z" fill="#CCD1D9" /><path d="M810.676 128.004h127.996c11.75 0 21.312-9.532 21.312-21.344 0-11.75-9.562-21.31-21.312-21.31h-127.996c-11.808 0-21.372 9.562-21.372 21.31 0 11.814 9.564 21.344 21.372 21.344zM938.672 170.66h-127.996c-11.808 0-21.372 9.562-21.372 21.344s9.562 21.342 21.372 21.342h127.996c11.75 0 21.312-9.562 21.312-21.342s-9.562-21.344-21.312-21.344zM938.672 255.97h-127.996c-11.808 0-21.372 9.562-21.372 21.374 0 11.75 9.562 21.312 21.372 21.312h127.996c11.75 0 21.312-9.562 21.312-21.312 0-11.812-9.562-21.374-21.312-21.374z" fill="#AAB2BC" /><path d="M895.988 426.652c0 11.812-9.562 21.312-21.312 21.312-11.812 0-21.376-9.5-21.376-21.312 0-11.75 9.562-21.312 21.376-21.312 11.75 0 21.312 9.562 21.312 21.312z" fill="#ED5564" /><path d="M378.676 362.654h-122.668l127.996-319.99h122.668z" fill="#FFFFFF" opacity=".1" /><path d="M789.118 703.25a21.174 21.174 0 0 0-4.5-7.684l-42.062-45.938a21.248 21.248 0 0 0-15.75-6.938h-48.372c-4.688 0-9.282 1.562-13 4.438l-18.438 14.188H419.628l-18.42-14.188a21.35 21.35 0 0 0-13.032-4.438h-48.388a21.26 21.26 0 0 0-15.734 6.938l-42.06 45.938c-2.016 2.246-3.562 4.808-4.5 7.684-49.296 148.122-56.81 242.93-22.984 289.868 14.578 20.188 36.264 30.876 62.702 30.876 22.968 0 55.466-11.438 79.888-65.938 6.688-14.938 11.25-29.746 14.14-40.746h244.134c2.876 11 7.468 25.808 14.124 40.746 24.434 54.5 56.934 65.938 79.934 65.938 26.438 0 48.124-10.688 62.684-30.876 33.81-46.938 26.31-141.746-22.998-289.868z" fill="#ED5564" /><path d="M489.782 874.684c0 23.562-19.094 42.624-42.656 42.624s-42.67-19.062-42.67-42.624 19.108-42.688 42.67-42.688 42.656 19.126 42.656 42.688z" fill="#656D78" /><path d="M447.126 938.68c-35.296 0-63.998-28.746-63.998-63.996 0-35.312 28.702-64 63.998-64 35.28 0 63.998 28.688 63.998 64 0 35.25-28.716 63.996-63.998 63.996z m0-85.372c-11.764 0-21.342 9.562-21.342 21.376 0 11.75 9.578 21.312 21.342 21.312 11.766 0 21.328-9.562 21.328-21.312 0.002-11.812-9.562-21.376-21.328-21.376z" fill="#434A54" /><path d="M660.434 874.684c0 23.562-19.094 42.624-42.656 42.624s-42.656-19.062-42.656-42.624 19.094-42.688 42.656-42.688 42.656 19.126 42.656 42.688z" fill="#656D78" /><path d="M617.778 938.68c-35.282 0-63.996-28.746-63.996-63.996 0-35.312 28.714-64 63.996-64s64 28.688 64 64c0 35.25-28.72 63.996-64 63.996z m0-85.372c-11.782 0-21.344 9.562-21.344 21.376 0 11.75 9.562 21.312 21.344 21.312s21.344-9.562 21.344-21.312c0-11.812-9.564-21.376-21.344-21.376z" fill="#434A54" /><path d="M646.996 661.316H419.628v62.246h227.43z" fill="#FFCE54" /></svg>