<?xml version="1.0" standalone="no"?><!DOCTYPE svg PUBLIC "-//W3C//DTD SVG 1.1//EN" "http://www.w3.org/Graphics/SVG/1.1/DTD/svg11.dtd"><svg class="icon" width="128px" height="128.00px" viewBox="0 0 1024 1024" version="1.1" xmlns="http://www.w3.org/2000/svg"><path d="M512.024 0.328c-35.352 0-63.99 28.668-63.958 63.958 0 35.352 28.608 63.958 63.928 63.958 35.368 0 63.974-28.608 63.974-63.958C575.966 28.996 547.36 0.328 512.024 0.328z m0 85.29c-11.774 0-21.33-9.556-21.33-21.33 0-11.744 9.556-21.298 21.33-21.298 11.742 0 21.298 9.556 21.298 21.298 0 11.772-9.556 21.33-21.298 21.33z" fill="#F6BB42" /><path d="M512.024 1002.374c-119.61 0-232.04-46.596-316.61-131.134-84.54-84.572-131.134-197-131.104-316.58 0-119.612 46.564-232.04 131.104-316.578 84.57-84.572 197-131.134 316.578-131.134 119.626 0 232.054 46.564 316.624 131.134 84.508 84.54 131.106 196.966 131.106 316.578 0 119.58-46.598 232.008-131.106 316.578-84.57 84.54-196.996 131.136-316.592 131.136z" fill="#FFCE54" /><path d="M490.694 170.906c0 11.774 9.556 21.298 21.33 21.298s21.298-9.526 21.298-21.298V106.51h-42.628v64.396zM512.024 917.084c-11.774 0-21.33 9.556-21.33 21.33v64.396h42.628v-64.396c0-11.774-9.526-21.33-21.298-21.33zM960.158 533.33h-64.396c-11.742 0-21.296 9.556-21.296 21.33s9.554 21.298 21.296 21.298h64.396v-42.628zM128.238 533.33H63.842v42.628h64.428c11.774 0 21.298-9.526 21.298-21.298s-9.526-21.33-21.33-21.33z" fill="#F6BB42" /><path d="M767.156 299.51l-375.742 134.54 241.204 241.22z" fill="#ED5564" /><path d="M391.414 434.05l-134.538 375.758 375.742-134.538z" fill="#5D9CEC" /><path d="M542.16 584.828c-16.644 16.614-43.66 16.614-60.304 0-16.646-16.676-16.646-43.66 0-60.336 16.644-16.646 43.66-16.646 60.304 0 16.632 16.676 16.632 43.66 0 60.336z" fill="#434A54" /><path d="M512.024 85.618C252.97 85.618 42.98 295.608 42.98 554.66c0 259.022 209.99 469.012 469.042 469.012 259.006 0 468.996-209.99 468.996-469.012 0.002-259.052-209.988-469.042-468.994-469.042z m301.48 770.536c-39.164 39.162-84.76 69.924-135.54 91.41-52.53 22.206-108.368 33.478-165.972 33.478-57.556 0-113.396-11.274-165.956-33.478-50.75-21.486-96.376-52.248-135.538-91.41s-69.924-84.758-91.378-135.538c-22.236-52.53-33.51-108.37-33.51-165.958s11.274-113.428 33.51-165.958c21.456-50.78 52.216-96.376 91.378-135.538 39.162-39.194 84.79-69.956 135.538-91.41 52.56-22.206 108.4-33.51 165.956-33.51 57.606 0 113.444 11.304 165.972 33.51 50.78 21.456 96.376 52.216 135.54 91.41 39.16 39.162 69.954 84.758 91.442 135.538 22.172 52.53 33.476 108.37 33.476 165.958s-11.304 113.428-33.476 165.958c-21.488 50.78-52.282 96.376-91.442 135.538z" fill="#F6BB42" /></svg>