<?xml version="1.0" standalone="no"?><!DOCTYPE svg PUBLIC "-//W3C//DTD SVG 1.1//EN" "http://www.w3.org/Graphics/SVG/1.1/DTD/svg11.dtd"><svg class="icon" width="128px" height="128.00px" viewBox="0 0 1024 1024" version="1.1" xmlns="http://www.w3.org/2000/svg"><path d="M938.688 949.468c0 11.782-9.562 21.344-21.376 21.344-11.75 0-21.312-9.562-21.312-21.344s9.562-21.312 21.312-21.312c11.812 0 21.376 9.532 21.376 21.312z" fill="#434A54" /><path d="M960 53.468H21.328v896H960c23.562 0 42.688-19.094 42.688-42.656V96.156c0-23.562-19.126-42.688-42.688-42.688z m-490.672 128c11.782 0 21.344 9.562 21.344 21.344s-9.562 21.344-21.344 21.344S448 214.594 448 202.812s9.546-21.344 21.328-21.344zM170.672 352.156c-11.782 0-21.344-9.562-21.344-21.344s9.562-21.344 21.344-21.344S192 319.032 192 330.812s-9.546 21.344-21.328 21.344z m21.328 64c0 11.782-9.546 21.312-21.328 21.312s-21.344-9.532-21.344-21.312 9.562-21.344 21.344-21.344S192 404.376 192 416.156z m21.328-64c11.782 0 21.344 9.532 21.344 21.312s-9.562 21.344-21.344 21.344S192 385.25 192 373.468s9.546-21.312 21.328-21.312z m-21.328-64c0-11.782 9.546-21.344 21.328-21.344s21.344 9.562 21.344 21.344-9.562 21.312-21.344 21.312S192 299.938 192 288.156z m64 106.656c11.782 0 21.328 9.562 21.328 21.344s-9.546 21.312-21.328 21.312-21.328-9.532-21.328-21.312 9.546-21.344 21.328-21.344z m0-42.656c-11.782 0-21.328-9.562-21.328-21.344s9.546-21.344 21.328-21.344 21.328 9.562 21.328 21.344-9.546 21.344-21.328 21.344z m42.672 0c11.782 0 21.328 9.532 21.328 21.312s-9.546 21.344-21.328 21.344-21.344-9.562-21.344-21.344 9.562-21.312 21.344-21.312z m-21.344-64c0-11.782 9.562-21.344 21.344-21.344S320 276.376 320 288.156s-9.546 21.312-21.328 21.312-21.344-9.53-21.344-21.312z m64 106.656c11.782 0 21.344 9.562 21.344 21.344s-9.562 21.312-21.344 21.312S320 427.938 320 416.156s9.546-21.344 21.328-21.344z m0-42.656c-11.782 0-21.328-9.562-21.328-21.344s9.546-21.344 21.328-21.344 21.344 9.562 21.344 21.344-9.562 21.344-21.344 21.344z m42.672 0c11.782 0 21.328 9.532 21.328 21.312s-9.546 21.344-21.328 21.344-21.328-9.562-21.328-21.344 9.546-21.312 21.328-21.312z m-21.328-64c0-11.782 9.546-21.344 21.328-21.344s21.328 9.562 21.328 21.344-9.546 21.312-21.328 21.312-21.328-9.53-21.328-21.312z m64 106.656c11.782 0 21.328 9.562 21.328 21.344s-9.546 21.312-21.328 21.312-21.344-9.532-21.344-21.312 9.562-21.344 21.344-21.344z m0-42.656c-11.782 0-21.344-9.562-21.344-21.344s9.562-21.344 21.344-21.344S448 319.032 448 330.812s-9.546 21.344-21.328 21.344z m42.656 0c11.782 0 21.344 9.532 21.344 21.312s-9.562 21.344-21.344 21.344S448 385.25 448 373.468s9.546-21.312 21.328-21.312z m0-42.688c-11.782 0-21.328-9.532-21.328-21.312s9.546-21.344 21.328-21.344 21.344 9.562 21.344 21.344-9.562 21.312-21.344 21.312z m-42.656-85.312c11.782 0 21.328 9.532 21.328 21.312s-9.546 21.344-21.328 21.344-21.344-9.562-21.344-21.344 9.562-21.312 21.344-21.312zM384 181.468c11.782 0 21.328 9.562 21.328 21.344s-9.546 21.344-21.328 21.344-21.328-9.562-21.328-21.344S372.218 181.468 384 181.468z m-42.672 42.688c11.782 0 21.344 9.532 21.344 21.312s-9.562 21.344-21.344 21.344S320 257.25 320 245.468s9.546-21.312 21.328-21.312z m-42.656-42.688c11.782 0 21.328 9.562 21.328 21.344s-9.546 21.344-21.328 21.344-21.344-9.562-21.344-21.344 9.562-21.344 21.344-21.344zM256 224.156c11.782 0 21.328 9.532 21.328 21.312s-9.546 21.344-21.328 21.344-21.328-9.562-21.328-21.344 9.546-21.312 21.328-21.312z m-42.672-42.688c11.782 0 21.344 9.562 21.344 21.344s-9.562 21.344-21.344 21.344S192 214.594 192 202.812s9.546-21.344 21.328-21.344z m-42.656 42.688c11.782 0 21.328 9.532 21.328 21.312s-9.546 21.344-21.328 21.344-21.344-9.562-21.344-21.344 9.562-21.312 21.344-21.312zM128 181.468c11.782 0 21.328 9.562 21.328 21.344S139.782 224.156 128 224.156s-21.328-9.562-21.328-21.344S116.218 181.468 128 181.468z m0 85.344c11.782 0 21.328 9.562 21.328 21.344S139.782 309.468 128 309.468s-21.328-9.532-21.328-21.312S116.218 266.812 128 266.812z m0 85.344c11.782 0 21.328 9.532 21.328 21.312S139.782 394.812 128 394.812s-21.328-9.562-21.328-21.344S116.218 352.156 128 352.156z m0 128c-11.782 0-21.328-9.562-21.328-21.344S116.218 437.468 128 437.468s21.328 9.562 21.328 21.344S139.782 480.156 128 480.156z m42.672 42.656c-11.782 0-21.344-9.562-21.344-21.344s9.562-21.312 21.344-21.312S192 489.688 192 501.468s-9.546 21.344-21.328 21.344z m42.656-42.656c-11.782 0-21.328-9.562-21.328-21.344s9.546-21.344 21.328-21.344 21.344 9.562 21.344 21.344-9.562 21.344-21.344 21.344zM256 522.812c-11.782 0-21.328-9.562-21.328-21.344s9.546-21.312 21.328-21.312 21.328 9.532 21.328 21.312-9.546 21.344-21.328 21.344z m42.672-42.656c-11.782 0-21.344-9.562-21.344-21.344s9.562-21.344 21.344-21.344S320 447.032 320 458.812s-9.546 21.344-21.328 21.344z m42.656 42.656c-11.782 0-21.328-9.562-21.328-21.344s9.546-21.312 21.328-21.312 21.344 9.532 21.344 21.312-9.562 21.344-21.344 21.344zM384 480.156c-11.782 0-21.328-9.562-21.328-21.344s9.546-21.344 21.328-21.344 21.328 9.562 21.328 21.344-9.546 21.344-21.328 21.344z m42.672 42.656c-11.782 0-21.344-9.562-21.344-21.344s9.562-21.312 21.344-21.312S448 489.688 448 501.468s-9.546 21.344-21.328 21.344z m42.656-42.656c-11.782 0-21.328-9.562-21.328-21.344s9.546-21.344 21.328-21.344 21.344 9.562 21.344 21.344-9.562 21.344-21.344 21.344zM512 522.812c-11.782 0-21.328-9.562-21.328-21.344s9.546-21.312 21.328-21.312 21.328 9.532 21.328 21.312-9.546 21.344-21.328 21.344z m0-85.344c-11.782 0-21.328-9.532-21.328-21.312s9.546-21.344 21.328-21.344 21.328 9.562 21.328 21.344-9.546 21.312-21.328 21.312z m0-85.312c-11.782 0-21.328-9.562-21.328-21.344s9.546-21.344 21.328-21.344 21.328 9.562 21.328 21.344-9.546 21.344-21.328 21.344z m0-85.344c-11.782 0-21.328-9.562-21.328-21.344s9.546-21.312 21.328-21.312 21.328 9.532 21.328 21.312-9.546 21.344-21.328 21.344z m234.688 85.344c-11.812 0-21.376-9.562-21.376-21.344s9.562-21.344 21.376-21.344c11.75 0 21.312 9.562 21.312 21.344s-9.562 21.344-21.312 21.344z m0-85.344c-11.812 0-21.376-9.562-21.376-21.344s9.562-21.312 21.376-21.312c11.75 0 21.312 9.532 21.312 21.312s-9.562 21.344-21.312 21.344z m0-85.344c-11.812 0-21.376-9.532-21.376-21.312s9.562-21.344 21.376-21.344c11.75 0 21.312 9.562 21.312 21.344s-9.562 21.312-21.312 21.312z" fill="#AC92EB" /><path d="M21.328 778.812C9.546 778.812 0 788.376 0 800.156v64c0 11.782 9.546 21.312 21.328 21.312s21.344-9.532 21.344-21.312v-64c0-11.78-9.562-21.344-21.344-21.344zM106.672 949.468c0 11.782-9.562 21.344-21.344 21.344S64 961.25 64 949.468s9.546-21.312 21.328-21.312 21.344 9.532 21.344 21.312z" fill="#434A54" /><path d="M576 53.188v896.624h341.312V53.188H576z m170.688 298.968c-11.812 0-21.376-9.562-21.376-21.344s9.562-21.344 21.376-21.344c11.75 0 21.312 9.562 21.312 21.344s-9.562 21.344-21.312 21.344z m0-85.344c-11.812 0-21.376-9.562-21.376-21.344s9.562-21.312 21.376-21.312c11.75 0 21.312 9.532 21.312 21.312s-9.562 21.344-21.312 21.344z m0-85.344c-11.812 0-21.376-9.532-21.376-21.312s9.562-21.344 21.376-21.344c11.75 0 21.312 9.562 21.312 21.344s-9.562 21.312-21.312 21.312z" fill="#967ADC" /><path d="M725.312 608.156c0 11.782-9.532 21.312-21.312 21.312s-21.312-9.532-21.312-21.312 9.532-21.344 21.312-21.344 21.312 9.564 21.312 21.344zM810.688 608.156c0 11.782-9.562 21.312-21.376 21.312-11.75 0-21.312-9.532-21.312-21.312s9.562-21.344 21.312-21.344c11.812 0 21.376 9.564 21.376 21.344zM725.312 949.468c0-11.782-9.532-21.312-21.312-21.312s-21.312 9.532-21.312 21.312v0.344h42.624v-0.344zM789.312 928.156c-11.75 0-21.312 9.532-21.312 21.312v0.344h42.656c0-0.124 0.032-0.218 0.032-0.344 0-11.78-9.564-21.312-21.376-21.312z" fill="#CCD1D9" /><path d="M1002.688 650.812v213.344c11.75 0 21.312-9.562 21.312-21.344v-170.656c0-11.78-9.562-21.344-21.312-21.344z" fill="#434A54" /><path d="M1002.688 736.156H1024v42.656h-21.312z" fill="#656D78" /><path d="M612.532 777.906l-213.328-64 12.264-40.874 213.344 64z" fill="#CCD1D9" /><path d="M411.468 841.906l-12.264-40.874 213.328-64 12.28 40.874z" fill="#CCD1D9" /><path d="M409.718 736.156h507.594v42.656H409.718z" fill="#E6E9ED" /><path d="M917.312 309.468h85.376v42.688h-85.376zM917.312 224.156h85.376v42.656h-85.376zM917.312 138.812h85.376v42.656h-85.376z" fill="#967ADC" /><path d="M21.328 650.812h405.344v298.656H21.328z" fill="#E6E9ED" /><path d="M682.688 416.156h42.624v192h-42.624zM768 416.156h42.688v192H768z" fill="#CCD1D9" /><path d="M576 565.468h341.312v42.688H576zM576 394.812h341.312v42.656H576z" fill="#E6E9ED" /><path d="M661.312 309.468H576v42.688h85.312c11.812 0 21.376-9.562 21.376-21.344s-9.564-21.344-21.376-21.344zM810.688 330.812c0 11.782 9.532 21.344 21.312 21.344h85.312v-42.688H832c-11.782 0-21.312 9.564-21.312 21.344zM661.312 224.156H576v42.656h85.312c11.812 0 21.376-9.562 21.376-21.344s-9.564-21.312-21.376-21.312zM810.688 245.468c0 11.782 9.532 21.344 21.312 21.344h85.312v-42.656H832a21.3 21.3 0 0 0-21.312 21.312zM661.312 138.812H576v42.656h85.312c11.812 0 21.376-9.532 21.376-21.312s-9.564-21.344-21.376-21.344zM832 138.812c-11.782 0-21.312 9.562-21.312 21.344S820.218 181.468 832 181.468h85.312V138.812H832z" fill="#E6E9ED" /><path d="M224 928.156c-70.578 0-128-57.438-128-128 0-70.594 57.422-128 128-128s128 57.406 128 128c0 70.562-57.422 128-128 128z" fill="#434A54" /><path d="M224 650.812c-82.468 0-149.328 66.844-149.328 149.344 0 82.468 66.86 149.312 149.328 149.312s149.328-66.844 149.328-149.312c0-82.5-66.86-149.344-149.328-149.344z m-106.672 149.344c0-11 1.672-21.624 4.782-31.594l38.578 22.25a63.528 63.528 0 0 0 0.874 23.344l-37.984 21.938a106.308 106.308 0 0 1-6.25-35.938zM224 778.812c11.766 0 21.328 9.562 21.328 21.344 0 11.75-9.562 21.312-21.328 21.312s-21.328-9.562-21.328-21.312c0-11.78 9.562-21.344 21.328-21.344z m63.312 12l38.578-22.25a105.98 105.98 0 0 1 4.782 31.594 106.308 106.308 0 0 1-6.25 35.938l-37.984-21.938a63.528 63.528 0 0 0 0.874-23.344z m17.97-59.624l-37.922 21.876a64.262 64.262 0 0 0-22.032-13.25v-44.188c23.828 4.842 44.766 17.686 59.954 35.562z m-102.61-35.564v44.188a63.864 63.864 0 0 0-22.032 13.282l-37.922-21.906c15.188-17.876 36.126-30.72 59.954-35.564z m-56.906 176.938l38.516-22.25a63.74 63.74 0 0 0 18.39 10.188v44.156c-22.266-4.532-42.016-16.032-56.906-32.094z m99.562 32.094V860.5a63.74 63.74 0 0 0 18.39-10.188l38.516 22.25c-14.89 16.062-34.64 27.562-56.906 32.094z" fill="#656D78" /></svg>