<?xml version="1.0" standalone="no"?><!DOCTYPE svg PUBLIC "-//W3C//DTD SVG 1.1//EN" "http://www.w3.org/Graphics/SVG/1.1/DTD/svg11.dtd"><svg class="icon" width="128px" height="128.00px" viewBox="0 0 1024 1024" version="1.1" xmlns="http://www.w3.org/2000/svg"><path d="M632.532 704.18l-163.188-0.062-163.188 0.062-45.312 213.124h417z" fill="#CCD1D9" /><path d="M677.844 874.68h-417c-11.782 0-21.344 9.5-21.344 21.312s9.562 21.312 21.344 21.312h417c11.782 0 21.344-9.5 21.344-21.312s-9.564-21.312-21.344-21.312z" fill="#E6E9ED" /><path d="M21.344 767.992V128.008h896v485.734l-192.876 154.25z" fill="#4A89DC" /><path d="M917.344 106.664h-896C9.562 106.664 0 116.226 0 128.008v639.984c0 11.812 9.562 21.312 21.344 21.312h710.594l206.75-165.312V128.008c0-11.782-9.564-21.344-21.344-21.344zM896 603.492l-179 143.188H42.688V149.32H896v454.172z" fill="#E6E9ED" /><path d="M336 661.304h-122.656l128-511.984H464z" fill="#FFFFFF" opacity=".1" /><path d="M31.906 661.304h761.25v103.438H31.906z" fill="#E6E9ED" /><path d="M490.688 725.304c0 11.812-9.562 21.376-21.344 21.376S448 737.118 448 725.304c0-11.75 9.562-21.312 21.344-21.312s21.344 9.562 21.344 21.312z" fill="#434A54" /><path d="M1024 360.04l-0.124-2.156c0-6.844-5.562-12.438-12.344-12.468-56.282-2.124-197.468-16.782-299.062-107.344l-2.032-1.124 0.062-0.376a12.646 12.646 0 0 0-6.562-1.906c-2.938 0.032-5.938 1.218-8.218 3.282-101.72 90.684-242.97 105.342-298.97 107.466-7.062 0.032-12.562 5.624-12.624 12.468l-0.126 3.188c9.312 255.484 167.562 453.61 313 554.11 4.188 2.876 9.812 2.876 13.968 0l2-1.312C858.062 812.804 1015.188 614.804 1024 360.04z" fill="#FFCE54" /><path d="M725.562 426.664c0-11.782-9.562-21.344-21.344-21.344s-21.312 9.562-21.312 21.344v298.642c0 11.812 9.532 21.376 21.312 21.376s21.344-9.562 21.344-21.376V426.664z" fill="#F6BB42" /></svg>