<?xml version="1.0" standalone="no"?><!DOCTYPE svg PUBLIC "-//W3C//DTD SVG 1.1//EN" "http://www.w3.org/Graphics/SVG/1.1/DTD/svg11.dtd"><svg class="icon" width="128px" height="128.00px" viewBox="0 0 1024 1024" version="1.1" xmlns="http://www.w3.org/2000/svg"><path d="M1002.674 213.328h-170.684c-11.782 0-21.312 9.562-21.312 21.344v127.996H192.008c-11.78 0-21.328 9.546-21.328 21.328s9.546 21.328 21.328 21.328h639.982c11.782 0 21.312-9.546 21.312-21.328V256h149.372c11.75 0 21.312-9.546 21.312-21.328s-9.562-21.344-21.312-21.344z" fill="#424953" /><path d="M192.008 810.672c-11.78 0-21.328-9.562-21.328-21.376V490.666c0-11.782 9.546-21.344 21.328-21.344s21.328 9.562 21.328 21.344v298.632c0 11.812-9.546 21.374-21.328 21.374z" fill="#E5E8EC" /><path d="M192.008 938.668c-47.044 0-85.326-38.312-85.326-85.376 0-47.028 38.28-85.308 85.326-85.308 47.046 0 85.326 38.282 85.326 85.308 0 47.064-38.28 85.376-85.326 85.376z" fill="#424953" /><path d="M207.086 838.234c8.344 8.312 8.344 21.84 0 30.184-8.328 8.312-21.828 8.312-30.156 0-8.344-8.344-8.344-21.872 0-30.184 8.328-8.312 21.828-8.312 30.156 0z" fill="#F4F6F9" /><path d="M277.396 277.328c-0.016 0.86-0.062 1.718-0.062 2.592v296.072c0 47.122 38.218 85.308 85.342 85.308h213.322c47.124 0 85.31-38.188 85.31-85.308V279.92c0-0.874 0-1.734-0.062-2.592l-85.248-170.652H362.676l-85.28 170.652z" fill="#E8563F" /><path d="M661.308 298.67H277.334c-11.78 0-21.328-9.562-21.328-21.342 0-11.782 9.546-21.328 21.328-21.328h383.974c11.812 0 21.376 9.546 21.376 21.328 0 11.78-9.562 21.342-21.376 21.342zM575.998 128.002H362.676c-11.78 0-21.342-9.546-21.342-21.328s9.562-21.342 21.342-21.342h213.322c11.782 0 21.312 9.562 21.312 21.342 0 11.782-9.53 21.328-21.312 21.328zM341.334 618.676c-11.782 0-21.328-9.558-21.328-21.372v-235.98c0-11.782 9.546-21.328 21.328-21.328 11.78 0 21.342 9.546 21.342 21.328v235.98c0 11.814-9.562 21.372-21.342 21.372z" fill="#FB6D51" /><path d="M106.682 682.676c-11.78 0-21.342-9.562-21.342-21.376v-85.308c0-11.782 9.562-21.312 21.342-21.312 11.782 0 21.328 9.532 21.328 21.312v85.308c0 11.814-9.546 21.376-21.328 21.376z" fill="#424953" /><path d="M213.336 597.304H0.014v-191.982c0-4.344 2.188-106.654 191.994-106.654h21.328v298.636z" fill="#EC5564" /><path d="M0.014 469.322h213.322v42.67H0.014zM106.682 383.996c11.782 0 21.328-9.546 21.328-21.328V308.06c0-1.61-0.204-3.188-0.532-4.704-15.968 2.562-29.92 6.046-42.14 10.188v49.124c0.002 11.782 9.564 21.328 21.344 21.328z" fill="#D94452" /><path d="M810.678 895.98h-42.686V405.324h-42.686V895.98h-42.624c-11.812 0-21.376 9.562-21.376 21.312a21.366 21.366 0 0 0 21.376 21.376h127.994c11.75 0 21.312-9.562 21.312-21.376 0.002-11.75-9.56-21.312-21.31-21.312z" fill="#E5E8EC" /></svg>