<?xml version="1.0" standalone="no"?><!DOCTYPE svg PUBLIC "-//W3C//DTD SVG 1.1//EN" "http://www.w3.org/Graphics/SVG/1.1/DTD/svg11.dtd"><svg class="icon" width="128px" height="128.00px" viewBox="0 0 1024 1024" version="1.1" xmlns="http://www.w3.org/2000/svg"><path d="M1023.706 602.562l-54.216-337.056c-0.906-5.578-3.968-10.578-8.562-13.89s-10.312-4.672-15.906-3.782l-632.092 101.702c-11.64 1.876-19.562 12.812-17.686 24.468l54.216 337.024a21.322 21.322 0 0 0 8.578 13.904 21.256 21.256 0 0 0 12.5 4.062c1.124 0 2.25-0.094 3.39-0.282l632.092-101.686a21.324 21.324 0 0 0 17.686-24.464z" fill="#CCD1D9" /><path d="M391.596 704.248l-54.218-337.024c-1.876-11.656-12.828-19.562-24.452-17.688L17.966 396.972c-5.594 0.906-10.594 4-13.906 8.562a21.358 21.358 0 0 0-3.766 15.906l54.218 337.056c1.688 10.466 10.75 17.936 21.046 17.936 1.124 0 2.266-0.094 3.406-0.282l294.962-47.436c11.624-1.874 19.546-12.81 17.67-24.466z" fill="#967ADC" /><path d="M341.254 341.318h640.234v341.368H341.254z" fill="#FFFFFF" /><path d="M981.488 704.03H341.254c-11.78 0-21.342-9.562-21.342-21.344V341.318c0-11.782 9.562-21.342 21.342-21.342h640.234c11.782 0 21.344 9.562 21.344 21.342v341.368c0 11.78-9.562 21.344-21.344 21.344z" fill="#E6E9ED" /><path d="M42.512 341.318h298.742v341.368H42.512z" fill="#FFFFFF" /><path d="M341.254 704.03H42.512c-11.796 0-21.344-9.562-21.344-21.344V341.318c0-11.782 9.546-21.342 21.344-21.342h298.742c11.782 0 21.344 9.562 21.344 21.342v341.368c0 11.78-9.562 21.344-21.344 21.344z" fill="#AC92EB" /><path d="M274.116 415.628c-6.14-10.062-19.264-13.25-29.328-7.094-0.078 0.032-6.688 3.124-17.796 1.812a21.2 21.2 0 0 0-13.78-5.062c-11.782 0-21.328 9.562-21.328 21.344v128.03c0 11.78 9.546 21.342 21.328 21.342 11.796 0 21.342-9.562 21.342-21.342v-101.342c18.86-0.532 30.702-7.282 32.452-8.344 10.062-6.156 13.25-19.282 7.11-29.344z" fill="#CCD1D9" /><path d="M853.366 405.252c11.782 0 21.344-9.562 21.344-21.342s-9.562-21.342-21.344-21.342c-11.78 0-21.342 9.562-21.342 21.342 0 11.782 9.562 21.342 21.342 21.342zM853.458 448.002c-11.78 0-21.342 9.562-21.342 21.342s9.562 21.342 21.342 21.342c11.782 0 21.344-9.562 21.344-21.342s-9.562-21.342-21.344-21.342zM853.458 533.376c-11.78 0-21.342 9.532-21.342 21.312 0 11.81 9.562 21.342 21.342 21.342 11.782 0 21.344-9.532 21.344-21.342 0-11.78-9.562-21.312-21.344-21.312zM853.458 618.716c-11.78 0-21.342 9.562-21.342 21.344s9.562 21.344 21.342 21.344c11.782 0 21.344-9.562 21.344-21.344s-9.562-21.344-21.344-21.344z" fill="#CCD1D9" /><path d="M170.54 490.626c-35.296 0-64.014 28.75-64.014 64.032 0 35.31 28.718 64.028 64.014 64.028s64.014-28.716 64.014-64.028c0-35.282-28.718-64.032-64.014-64.032z" fill="#E6E9ED" /><path d="M768.054 447.972H426.642c-11.782 0-21.328-9.532-21.328-21.312 0-11.812 9.546-21.344 21.328-21.344h341.412c11.782 0 21.344 9.532 21.344 21.344 0 11.78-9.562 21.312-21.344 21.312zM768.054 533.346H426.642c-11.782 0-21.328-9.562-21.328-21.344 0-11.782 9.546-21.344 21.328-21.344h341.412c11.782 0 21.344 9.562 21.344 21.344 0 11.782-9.562 21.344-21.344 21.344zM597.34 618.686h-170.698c-11.782 0-21.328-9.53-21.328-21.31 0-11.812 9.546-21.344 21.328-21.344h170.698c11.782 0 21.344 9.532 21.344 21.344 0 11.78-9.562 21.31-21.344 21.31z" fill="#434A54" /><path d="M938.77 597.344c-11.782 0-21.344-9.562-21.344-21.344v-128.028c0-11.782 9.562-21.344 21.344-21.344s21.344 9.562 21.344 21.344V576c0 11.782-9.564 21.344-21.344 21.344z" fill="#AC92EB" /></svg>