<?xml version="1.0" standalone="no"?><!DOCTYPE svg PUBLIC "-//W3C//DTD SVG 1.1//EN" "http://www.w3.org/Graphics/SVG/1.1/DTD/svg11.dtd"><svg class="icon" width="128px" height="128.00px" viewBox="0 0 1024 1024" version="1.1" xmlns="http://www.w3.org/2000/svg"><path d="M642.648 628.558H442.92l180.918-122.9 56.216 102.374z" fill="#434A54" /><path d="M85.394 682.278c-23.56 0-42.654-9.532-42.654-21.344V459.5c0-11.782 19.094-21.342 42.654-21.342 23.562 0 42.656 9.562 42.656 21.342v201.432c0 11.814-19.092 21.346-42.656 21.346z" fill="#E9573F" /><path d="M621.15 346.41c-18.782-41.748-44.56-65.56-45.654-66.53a21.42 21.42 0 0 0-9.094-4.938c-13.218-3.344-324.916-82.53-439.79-82.53-14.906 0-49.812 0-58.716 24.28l-66 179.84c-9.5 25.812 17.688 50.966 64.594 83.186 33.654 23.124 81.592 51.874 142.496 85.468 103.154 56.84 209.652 108.872 210.714 109.372a21.24 21.24 0 0 0 9.376 2.156h0.75c1.468-0.062 36.532-1.532 77.874-21.188 38.11-18.156 89.388-55.808 117.452-132.278 28.058-76.434 13.308-138.37-4.002-176.838z" fill="#FC6E51" /><path d="M575.496 279.88a21.42 21.42 0 0 0-9.094-4.938c-1.688-0.406-8.282-2.094-18.688-4.688L402.42 666.028c10.782 5.344 17.032 8.406 17.282 8.532a21.24 21.24 0 0 0 9.376 2.156h0.75c0.562-0.032 5.968-0.25 14.718-1.594L585.682 290.6c-5.81-6.688-9.78-10.346-10.186-10.72zM316.954 218.474L192.986 556.282c5.218 2.938 10.562 5.906 16 8.906 7.282 4 14.532 7.968 21.812 11.906l128.466-350.056a2968.394 2968.394 0 0 0-42.31-8.564z" fill="#E9573F" /><path d="M661.336 618.278H64.052c-11.782 0-21.312 9.562-21.312 21.344v85.312c0 11.782 9.532 21.344 21.312 21.344h597.284c11.782 0 21.344-9.562 21.344-21.344v-85.312c0-11.782-9.562-21.344-21.344-21.344z" fill="#CCD1D9" /><path d="M661.368 724.934l0.218-384.182 221.214-0.186 79.47 158.404 40.372 80.78-0.374 145.184z" fill="#E6E9ED" /><path d="M962.27 498.97L882.8 340.566l-221.214 0.186-0.094 158.218z" fill="#4FC2E9" /><path d="M981.332 489.408l-85.376-170.184-255.684 0.218-0.25 426.836h383.526l0.438-171.528-42.654-85.342z m-0.312 214.214H682.71l0.188-341.556 186.746-0.156 73.532 146.592 38.124 76.25-0.28 118.87z" fill="#E6E9ED" /><path d="M789.334 724.932m-106.654 0a106.654 106.654 0 1 0 213.308 0 106.654 106.654 0 1 0-213.308 0Z" fill="#434A54" /><path d="M362.704 618.278c-34.906 0-65.876 16.75-85.342 42.656-19.438-25.906-50.406-42.656-85.312-42.656-58.904 0-106.654 47.75-106.654 106.656s47.75 106.652 106.654 106.652c34.906 0 65.876-16.746 85.312-42.652 19.466 25.906 50.436 42.652 85.342 42.652 58.904 0 106.654-47.746 106.654-106.652s-47.75-106.656-106.654-106.656z" fill="#434A54" /><path d="M767.992 724.934c0 11.782 9.562 21.344 21.342 21.344 11.782 0 21.312-9.562 21.312-21.344s-9.532-21.312-21.312-21.312c-11.78 0-21.342 9.53-21.342 21.312zM170.708 724.934c0 11.782 9.56 21.344 21.342 21.344s21.344-9.562 21.344-21.344-9.562-21.312-21.344-21.312-21.342 9.53-21.342 21.312zM341.36 724.934c0 11.782 9.562 21.344 21.344 21.344s21.31-9.562 21.31-21.344-9.53-21.312-21.31-21.312-21.344 9.53-21.344 21.312z" fill="#F5F7FA" /><path d="M725.054 362.002h42.656v136.966h-42.656z" fill="#3BAFDA" /></svg>