<?xml version="1.0" standalone="no"?><!DOCTYPE svg PUBLIC "-//W3C//DTD SVG 1.1//EN" "http://www.w3.org/Graphics/SVG/1.1/DTD/svg11.dtd"><svg class="icon" width="128px" height="128.00px" viewBox="0 0 1024 1024" version="1.1" xmlns="http://www.w3.org/2000/svg"><path d="M239.276 722.308h106.95v87.996h-106.95zM559.564 511.312h149.308v128.684h-149.308z" fill="#DBADA2" /><path d="M730.434 639.996h-192.448c-11.78 0-21.326 9.532-21.326 21.312v362.68h235.086v-362.68a21.3 21.3 0 0 0-21.312-21.312z" fill="#ED5564" /><path d="M870.306 265.38c-12.5-12.5-32.748-12.5-45.248 0l-148.184 158.372 106.496 45.56 88.998-151.996c9.376-17.278 10.438-39.466-2.062-51.936z" fill="#DBADA2" /><path d="M516.66 661.308v63.998h235.086v-63.998a21.3 21.3 0 0 0-21.312-21.312h-192.448c-11.778 0-21.326 9.532-21.326 21.312z" fill="#DA4453" /><path d="M346.584 810.648h-107.106c-11.782 0-21.344 9.562-21.344 21.344v191.996h149.794v-191.996c0-11.782-9.546-21.344-21.344-21.344z" fill="#5D9CEC" /><path d="M218.134 831.992v21.312h149.794v-21.312c0-11.782-9.546-21.344-21.344-21.344h-107.106c-11.78 0-21.344 9.562-21.344 21.344z" fill="#4A89DC" /><path d="M762.214 0.012c-17.688 0-32 14.312-32 32v202.65a10.668 10.668 0 0 1-10.654 10.656c-5.906 0-10.688-4.782-10.688-10.656v-10.688c0-17.686-14.312-31.998-31.998-31.998-17.688 0-32 14.312-32 31.998v10.688c0 5.876-4.75 10.656-10.656 10.656s-10.656-4.782-10.656-10.656v-10.656c0-17.686-14.344-31.998-32-31.998-17.688 0-31.998 14.312-31.998 31.998v10.656c0 5.876-4.812 10.656-10.688 10.656a10.66 10.66 0 0 1-10.656-10.656V74.666c0-17.686-14.326-31.998-32-31.998-17.686 0-32 14.312-32 31.998v341.336c0 88.342 71.624 159.996 159.996 159.996 88.342 0 159.996-71.654 159.996-159.996V32.012c0.002-17.688-14.34-32-31.998-32zM207.698 383.658c-11.782 0-21.328 9.562-21.328 21.344v149.31h42.67v-149.31c0.002-11.782-9.562-21.344-21.342-21.344zM261.04 341.004c-11.796 0-21.342 9.532-21.342 21.312v191.996h42.67v-191.996c0-11.78-9.546-21.312-21.328-21.312zM314.368 383.658c-11.782 0-21.328 9.562-21.328 21.344v149.31h42.654v-149.31c0-11.782-9.546-21.344-21.326-21.344z" fill="#EAC6BB" /><path d="M149.95 581.904c-8.328 8.312-6.25 17.75 0 30.156l43.42 91.342 71.014-37.25-84.264-84.248c-8.328-8.344-21.842-8.344-30.17 0z" fill="#DBADA2" /><path d="M367.694 426.314c-11.782 0-21.328 9.562-21.328 21.344v149.34h42.67v-149.34c0.002-11.782-9.562-21.344-21.342-21.344z" fill="#EAC6BB" /><path d="M389.038 666.308c0 55.968-45.374 101.34-101.34 101.34-55.968 0-101.326-45.372-101.326-101.34 0-55.966 45.358-101.31 101.326-101.31 55.966 0 101.34 45.344 101.34 101.31z" fill="#EAC6BB" /><path d="M186.37 554.312h202.666v111.996H186.37z" fill="#EAC6BB" /></svg>