<?xml version="1.0" standalone="no"?><!DOCTYPE svg PUBLIC "-//W3C//DTD SVG 1.1//EN" "http://www.w3.org/Graphics/SVG/1.1/DTD/svg11.dtd"><svg class="icon" width="128px" height="128.00px" viewBox="0 0 1024 1024" version="1.1" xmlns="http://www.w3.org/2000/svg"><path d="M1023.988 42.698c0 11.75-9.562 21.312-21.312 21.312-11.812 0-21.376-9.562-21.376-21.312a21.364 21.364 0 0 1 21.376-21.374c11.75 0 21.312 9.562 21.312 21.374zM1023.988 128.008c0 11.812-9.562 21.312-21.312 21.312-11.812 0-21.376-9.5-21.376-21.312 0-11.812 9.562-21.312 21.376-21.312 11.75 0.002 21.312 9.502 21.312 21.312zM1023.988 213.32c0 11.814-9.562 21.376-21.312 21.376a21.366 21.366 0 0 1-21.376-21.376c0-11.75 9.562-21.312 21.376-21.312 11.75 0 21.312 9.562 21.312 21.312zM1023.988 298.692c0 11.75-9.562 21.312-21.312 21.312-11.812 0-21.376-9.562-21.376-21.312a21.366 21.366 0 0 1 21.376-21.376c11.75 0 21.312 9.562 21.312 21.376zM1023.988 384.004c0 11.81-9.562 21.31-21.312 21.31-11.812 0-21.376-9.5-21.376-21.31 0-11.812 9.562-21.312 21.376-21.312 11.75 0 21.312 9.5 21.312 21.312zM1023.988 469.312c0 11.812-9.562 21.376-21.312 21.376a21.366 21.366 0 0 1-21.376-21.376c0-11.75 9.562-21.312 21.376-21.312 11.75 0 21.312 9.562 21.312 21.312zM1023.988 554.686c0 11.75-9.562 21.312-21.312 21.312-11.812 0-21.376-9.562-21.376-21.312a21.366 21.366 0 0 1 21.376-21.374c11.75 0 21.312 9.564 21.312 21.374zM1023.988 639.996c0 11.812-9.562 21.312-21.312 21.312-11.812 0-21.376-9.5-21.376-21.312s9.562-21.312 21.376-21.312c11.75 0 21.312 9.5 21.312 21.312zM1023.988 725.306c0 11.812-9.562 21.376-21.312 21.376a21.366 21.366 0 0 1-21.376-21.376c0-11.75 9.562-21.31 21.376-21.31 11.75 0 21.312 9.56 21.312 21.31zM1023.988 810.68c0 11.75-9.562 21.312-21.312 21.312-11.812 0-21.376-9.562-21.376-21.312a21.366 21.366 0 0 1 21.376-21.376c11.75 0 21.312 9.564 21.312 21.376zM1023.988 895.99c0 11.812-9.562 21.31-21.312 21.31-11.812 0-21.376-9.498-21.376-21.31s9.562-21.312 21.376-21.312c11.75 0 21.312 9.5 21.312 21.312zM1023.988 981.3c0 11.812-9.562 21.376-21.312 21.376a21.366 21.366 0 0 1-21.376-21.376c0-11.75 9.562-21.312 21.376-21.312 11.75 0 21.312 9.562 21.312 21.312zM42.682 42.698c0 11.75-9.546 21.312-21.342 21.312-11.782 0-21.328-9.562-21.328-21.312 0-11.812 9.546-21.374 21.328-21.374 11.796 0 21.342 9.562 21.342 21.374zM42.682 128.008c0 11.812-9.546 21.312-21.342 21.312C9.558 149.32 0.012 139.82 0.012 128.008c0-11.812 9.546-21.312 21.328-21.312 11.796 0.002 21.342 9.502 21.342 21.312zM42.682 213.32c0 11.814-9.546 21.376-21.342 21.376-11.782 0-21.328-9.562-21.328-21.376 0-11.75 9.546-21.312 21.328-21.312 11.796 0 21.342 9.562 21.342 21.312zM42.682 298.692c0 11.75-9.546 21.312-21.342 21.312-11.782 0-21.328-9.562-21.328-21.312 0-11.812 9.546-21.376 21.328-21.376 11.796 0 21.342 9.562 21.342 21.376zM42.682 384.004c0 11.81-9.546 21.31-21.342 21.31-11.782 0-21.328-9.5-21.328-21.31 0-11.812 9.546-21.312 21.328-21.312 11.796 0 21.342 9.5 21.342 21.312zM42.682 469.312c0 11.812-9.546 21.376-21.342 21.376-11.782 0-21.328-9.562-21.328-21.376C0.012 457.562 9.558 448 21.34 448c11.796 0 21.342 9.562 21.342 21.312zM42.682 554.686c0 11.75-9.546 21.312-21.342 21.312-11.782 0-21.328-9.562-21.328-21.312 0-11.81 9.546-21.374 21.328-21.374 11.796 0 21.342 9.564 21.342 21.374zM42.682 639.996c0 11.812-9.546 21.312-21.342 21.312-11.782 0-21.328-9.5-21.328-21.312s9.546-21.312 21.328-21.312c11.796 0 21.342 9.5 21.342 21.312zM42.682 725.306c0 11.812-9.546 21.376-21.342 21.376-11.782 0-21.328-9.562-21.328-21.376 0-11.75 9.546-21.31 21.328-21.31 11.796 0 21.342 9.56 21.342 21.31zM42.682 810.68c0 11.75-9.546 21.312-21.342 21.312-11.782 0-21.328-9.562-21.328-21.312 0-11.812 9.546-21.376 21.328-21.376 11.796 0 21.342 9.564 21.342 21.376zM42.682 895.99c0 11.812-9.546 21.31-21.342 21.31-11.782 0-21.328-9.498-21.328-21.31s9.546-21.312 21.328-21.312c11.796 0 21.342 9.5 21.342 21.312zM42.682 981.3c0 11.812-9.546 21.376-21.342 21.376-11.782 0-21.328-9.562-21.328-21.376 0-11.75 9.546-21.312 21.328-21.312 11.796 0 21.342 9.562 21.342 21.312z" fill="#F6BB42" /><path d="M21.34 21.324h981.336v981.352H21.34z" fill="#FFCE54" /><path d="M895.988 512c0 212.056-171.934 383.99-383.988 383.99-212.074 0-383.992-171.934-383.992-383.99 0-212.058 171.918-383.992 383.992-383.992 212.054 0 383.988 171.934 383.988 383.992z" fill="#ED5564" /><path d="M512 128.008c-7.172 0-14.282 0.188-21.344 0.624C692.808 139.696 853.304 307.066 853.304 512c0 204.932-160.496 372.302-362.648 383.366 7.062 0.438 14.172 0.624 21.344 0.624 212.054 0 383.988-171.934 383.988-383.99 0-212.058-171.934-383.992-383.988-383.992z" fill="#FFFFFF" opacity=".2" /></svg>