<?xml version="1.0" standalone="no"?><!DOCTYPE svg PUBLIC "-//W3C//DTD SVG 1.1//EN" "http://www.w3.org/Graphics/SVG/1.1/DTD/svg11.dtd"><svg class="icon" width="128px" height="128.00px" viewBox="0 0 1024 1024" version="1.1" xmlns="http://www.w3.org/2000/svg"><path d="M181.1 817.492c-0.032 0.188-5 19.686-16.874 38.748-14.468 23.186-32.188 34.966-52.718 34.936-35.718 0-66.466 19.094-88.874 55.156C7.01 971.488 0.854 996.58 0.604 997.642c-1.656 7 0.188 14.656 5.656 20.092 8.312 8.344 21.812 8.344 30.156 0a21.012 21.012 0 0 0 5.624-10.092l0.032 0.032c0.032-0.188 4.968-19.75 16.812-38.842 14.438-23.218 32.124-34.968 52.624-34.968 35.718 0 66.466-19.032 88.936-55.032 15.656-25.124 21.874-50.184 22.124-51.246l-41.468-10.094z" fill="#434A54" /><path d="M767.99 447.986c0 11.78-9.562 21.342-21.344 21.342s-21.344-9.562-21.344-21.342 9.562-21.328 21.344-21.328 21.344 9.548 21.344 21.328z" fill="#A0D468" /><path d="M1023.982 106.666c0 11.782-9.562 21.328-21.342 21.328-11.782 0-21.344-9.546-21.344-21.328S990.86 85.34 1002.64 85.34c11.78 0 21.342 9.546 21.342 21.326z" fill="#FC6E51" /><path d="M810.646 63.998c0 11.78-9.562 21.342-21.344 21.342s-21.312-9.562-21.312-21.342c0-11.782 9.532-21.328 21.312-21.328s21.344 9.546 21.344 21.328z" fill="#A0D468" /><path d="M682.648 106.666c0 11.782-9.56 21.328-21.342 21.328s-21.312-9.546-21.312-21.328 9.532-21.328 21.312-21.328 21.342 9.548 21.342 21.328z" fill="#5D9CEC" /><path d="M575.994 298.662c0 11.782-9.56 21.328-21.342 21.328s-21.344-9.546-21.344-21.328c0-11.78 9.562-21.328 21.344-21.328s21.342 9.548 21.342 21.328z" fill="#FC6E51" /><path d="M746.646 277.334c0 11.782-9.562 21.328-21.344 21.328s-21.31-9.546-21.31-21.328 9.53-21.344 21.31-21.344 21.344 9.564 21.344 21.344z" fill="#5D9CEC" /><path d="M938.642 170.666c0 11.782-9.562 21.328-21.344 21.328s-21.312-9.546-21.312-21.328c0-11.78 9.532-21.328 21.312-21.328s21.344 9.546 21.344 21.328z" fill="#A0D468" /><path d="M81.666 700.962c-8.344 8.344-8.312 21.842 0 30.154l211.18 211.184a21.33 21.33 0 0 0 30.186 0l407.27-407.272-241.366-241.35L81.666 700.962z" fill="#AC92EB" /><path d="M1002.984 0.03V0.014c-3.438-0.062-84.654-0.686-140.936 54.734-34.124 33.562-51.402 79.748-51.402 137.246 0 45.514-12.938 81.388-38.438 106.622-43.312 42.89-109.964 42.718-110.558 42.718v0.016c-0.124 0-0.218-0.016-0.344-0.016-11.782 0-21.312 9.546-21.312 21.328 0 11.67 9.376 21.14 21 21.312v0.016c0.124 0 0.406 0.016 0.844 0.016 9.406 0 86.184-1.688 140.09-54.75 34.092-33.578 51.374-79.748 51.374-137.262 0-45.5 12.936-81.374 38.436-106.606 43.312-42.89 109.966-42.718 110.624-42.718v-0.016c0.094 0 0.188 0.016 0.282 0.016 11.78 0 21.342-9.546 21.342-21.328-0.004-11.672-9.378-21.14-21.002-21.312z" fill="#ED5564" /><path d="M981.296 277.334c0-11.782-9.532-21.344-21.31-21.344-0.75 0-1.5 0.046-2.218 0.124-2.282 0.234-20.968 2.438-40.094 12.984-27.75 15.296-43.032 40.952-43.032 72.232 0 15.546-6.376 26.468-20.03 34.328-11.938 6.876-24.656 8.42-24.782 8.436a21.336 21.336 0 0 0-19.186 21.234c0 11.782 9.562 21.328 21.342 21.328 0.75 0 1.468-0.046 2.218-0.11 2.25-0.25 20.938-2.454 40.06-13 27.75-15.282 43.032-40.936 43.032-72.216 0-15.562 6.376-26.468 20.032-34.342 12-6.906 24.812-8.438 24.938-8.454 10.688-1.154 19.03-10.2 19.03-21.2zM746.646 127.996c-11 0-20.062 8.344-21.218 19.046 0 0.124-1.532 12.922-8.438 24.92-7.874 13.672-18.78 20.032-34.342 20.032-31.28 0-56.936 15.296-72.216 43.046-10.562 19.124-12.782 37.812-13 40.078-0.062 0.718-0.124 1.468-0.124 2.218 0 11.782 9.562 21.328 21.344 21.328 11.062 0 20.124-8.406 21.218-19.17 0.032-0.25 1.532-12.25 7.906-23.86 7.906-14.312 18.968-20.968 34.874-20.968 31.28 0 56.936-15.28 72.216-43.03 10.562-19.14 12.75-37.812 13-40.078 0.062-0.734 0.124-1.468 0.124-2.218 0-11.782-9.562-21.344-21.344-21.344z" fill="#FFCE54" /><path d="M597.306 668.028l42.688-42.688v-180.634l-42.688-42.672zM511.998 753.336l42.654-42.654V359.364l-42.654-42.656zM426.656 838.678l42.654-42.654V313.302l-42.654 42.672zM341.314 924.02L384 881.332V398.628l-42.686 42.67zM256.004 905.458l36.842 36.844a21.674 21.674 0 0 0 5.812 4.124V483.97l-42.656 42.656v378.832zM170.662 820.118l42.656 42.654V569.31l-42.656 42.654z" fill="#A0D468" /><path d="M700.148 504.86L292.846 912.144c-8.312 8.344-21.842 8.344-30.156 0l30.156 30.156a21.33 21.33 0 0 0 30.186 0l407.27-407.272-30.154-30.168z" fill="#FFFFFF" opacity=".2" /></svg>