<?xml version="1.0" standalone="no"?><!DOCTYPE svg PUBLIC "-//W3C//DTD SVG 1.1//EN" "http://www.w3.org/Graphics/SVG/1.1/DTD/svg11.dtd"><svg class="icon" width="128px" height="128.00px" viewBox="0 0 1024 1024" version="1.1" xmlns="http://www.w3.org/2000/svg"><path d="M658.586 447.248l-40.562 13.126-118.566-365.606 40.592-13.156zM662.836 515.656l30.188-30.156 160.912 160.878-30.19 30.188zM421.486 757.008l30.158-30.126 160.91 160.88-30.158 30.188zM823.964 717.85l30.16 30.158-160.914 160.942-30.156-30.188zM577.99 481.094l30.19 30.156-160.912 160.942-30.188-30.188zM221.262 63.986h228.912v42.688H221.262z" fill="#E6E9ED" /><path d="M814.34 757.664c-33.344-33.344-33.344-87.348 0-120.692 33.314-33.344 87.348-33.344 120.66 0 33.346 33.344 33.346 87.348 0 120.692-33.312 33.344-87.346 33.344-120.66 0zM331.608 757.664c-33.346-33.344-33.346-87.348 0-120.692 33.314-33.344 87.346-33.344 120.692 0 33.314 33.344 33.314 87.348 0 120.692-33.346 33.344-87.378 33.344-120.692 0zM572.958 999.016c-33.314-33.314-33.314-87.348 0-120.692 33.346-33.314 87.376-33.314 120.69 0 33.314 33.344 33.314 87.376 0 120.692-33.312 33.312-87.344 33.312-120.69 0zM580.272 145.676c-33.314 33.314-87.344 33.314-120.66 0-33.346-33.314-33.346-87.378 0-120.692 33.314-33.314 87.344-33.314 120.66 0 33.346 33.314 33.346 87.38 0 120.692zM572.958 516.312c-33.314-33.344-33.314-87.378 0-120.692 33.346-33.314 87.346-33.314 120.69 0 33.314 33.314 33.314 87.348 0 120.692-33.312 33.312-87.344 33.312-120.69 0zM88.976 24.986c33.314-33.314 87.346-33.314 120.692 0 33.314 33.314 33.314 87.378 0 120.692-33.346 33.314-87.376 33.314-120.692 0-33.314-33.314-33.314-87.38 0-120.692z" fill="#FFCE54" /></svg>