<?xml version="1.0" standalone="no"?><!DOCTYPE svg PUBLIC "-//W3C//DTD SVG 1.1//EN" "http://www.w3.org/Graphics/SVG/1.1/DTD/svg11.dtd"><svg class="icon" width="128px" height="128.00px" viewBox="0 0 1024 1024" version="1.1" xmlns="http://www.w3.org/2000/svg"><path d="M1002.642 405.316H447.986c-11.782 0-21.328 9.56-21.328 21.342v426.644c0 11.748 9.546 21.31 21.328 21.31h341.316l149.34 85.374v-85.374h64c11.78 0 21.342-9.562 21.342-21.31V426.658c0-11.782-9.562-21.342-21.342-21.342z" fill="#48CFAD" /><path d="M447.986 405.316c-11.782 0-21.328 9.56-21.328 21.342v277.336h319.99c11.782 0 21.344-9.562 21.344-21.376V405.316H447.986z" fill="#37BC9B" /><path d="M703.994 64.014H21.342C9.56 64.014 0.016 73.544 0.016 85.324v554.672c0 11.75 9.544 21.312 21.326 21.312H85.34v127.996l230.384-127.996h388.27c11.782 0 21.312-9.562 21.312-21.312V85.324a21.296 21.296 0 0 0-21.312-21.31z" fill="#A0D468" /><path d="M469.33 298.63c-0.124-68.748-38-106.622-106.624-106.622-33.436 0-59.982 10.124-78.92 30.092-29.888 31.562-27.858 75.842-27.764 77.716h0.032c0.61 11.25 9.89 20.188 21.28 20.188 11.782 0 21.328-9.562 21.328-21.344 0-0.344-0.032-0.688-0.046-1.032h0.016c0-0.282-0.954-28.374 16.344-46.374 10.546-11 26.608-16.594 47.732-16.594 25.344 0 42.436 6.188 52.232 18.876 7.734 10.032 11.688 25.216 11.718 45.154 0.032 14.312-12.25 32.656-34.592 51.716-19.438 16.624-39.438 27.656-39.624 27.75l-11.11 6.062-0.016 63.748h0.062c0 11.782 9.546 21.344 21.328 21.344s21.328-9.562 21.328-21.344c0-0.406-0.032-0.812-0.062-1.25l0.016-37.624c26.06-16.182 85.436-58.744 85.342-110.462zM362.66 490.656c-11.782 0-21.328 9.562-21.328 21.344s9.546 21.312 21.328 21.312 21.328-9.532 21.328-21.312-9.546-21.344-21.328-21.344z" fill="#434A54" /></svg>