<?xml version="1.0" standalone="no"?><!DOCTYPE svg PUBLIC "-//W3C//DTD SVG 1.1//EN" "http://www.w3.org/Graphics/SVG/1.1/DTD/svg11.dtd"><svg class="icon" width="128px" height="128.00px" viewBox="0 0 1024 1024" version="1.1" xmlns="http://www.w3.org/2000/svg"><path d="M192.036 0.02c-47.06 0-85.34 38.28-85.34 85.34v767.938c0 11.812 9.532 21.376 21.342 21.376h106.652V0.02H192.036z" fill="#656D78" /><path d="M192.036 789.3c-35.374 0-63.998 28.686-63.998 63.998 0 35.374 28.624 63.996 63.998 63.996h703.958V789.3H192.036z" fill="#E6E9ED" /><path d="M917.304 21.364c0-11.782-9.562-21.344-21.312-21.344H234.69V810.674H895.992c11.75 0 21.312-9.56 21.312-21.374V21.364z" fill="#ED5564" /><path d="M384.028 874.674h-170.682c-11.75 0-21.312-9.562-21.312-21.376 0-11.75 9.562-21.312 21.312-21.312h170.682c11.78 0 21.31 9.562 21.31 21.312 0 11.814-9.53 21.376-21.31 21.376zM725.312 831.986c-11.75 0-21.31 9.562-21.31 21.312 0 11.812 9.56 21.376 21.31 21.376h170.68v-42.688h-170.68z" fill="#CCD1D9" /><path d="M128.038 170.684c11.782 0 21.312-9.546 21.312-21.326S139.82 128.016 128.038 128.016H106.696v42.668h21.342zM128.038 298.68c11.782 0 21.312-9.546 21.312-21.328s-9.532-21.342-21.312-21.342H106.696v42.67h21.342zM128.038 426.674c11.782 0 21.312-9.546 21.312-21.328s-9.532-21.342-21.312-21.342H106.696v42.67h21.342zM128.038 554.686c11.782 0 21.312-9.562 21.312-21.358 0-11.782-9.532-21.344-21.312-21.344H106.696v42.702h21.342zM128.038 682.682c11.782 0 21.312-9.562 21.312-21.376 0-11.748-9.532-21.31-21.312-21.31H106.696v42.686h21.342z" fill="#434A54" /><path d="M917.304 917.294c0-11.748-9.562-21.31-21.312-21.31H234.69v42.686h661.302c11.75 0 21.312-9.562 21.312-21.376z" fill="#ED5564" /><path d="M234.69 895.984H192.036c-23.53 0-42.684-19.124-42.684-42.686 0-23.5 19.156-42.624 42.684-42.624h42.656v-42.684H192.036c-47.06 0-85.34 38.246-85.34 85.308 0 47.06 38.28 85.372 85.34 85.372h42.656v-42.686z" fill="#656D78" /><path d="M362.686 853.298h-149.338v149.37c0 6.812 3.312 13.25 8.876 17.312 5.562 4 12.718 5.06 19.218 2.876l57.248-19.062 57.248 19.062c2.218 0.75 4.468 1.124 6.75 1.124 4.406 0 8.782-1.376 12.468-4 5.562-4.062 8.874-10.5 8.874-17.312v-149.37h-21.344z" fill="#FFCE54" /><path d="M554.694 597.372c-11.796 0-21.36-9.562-21.36-21.374V192.028c0-11.782 9.562-21.328 21.36-21.328 11.75 0 21.312 9.546 21.312 21.328v383.97c0 11.81-9.562 21.374-21.312 21.374z" fill="#F6BB42" /><path d="M682.69 597.372H426.682c-11.782 0-21.312-9.562-21.312-21.374 0-11.75 9.532-21.312 21.312-21.312h256.006c11.75 0 21.312 9.562 21.312 21.312 0.002 11.81-9.56 21.374-21.31 21.374z" fill="#434A54" /><path d="M425.588 227.948c-0.032-0.14-0.094-0.266-0.156-0.406-0.124-0.376-0.282-0.734-0.438-1.094a11.556 11.556 0 0 0-0.406-0.922c-0.124-0.296-0.282-0.594-0.438-0.89a30.276 30.276 0 0 0-0.562-0.984c-0.156-0.25-0.312-0.516-0.5-0.766-0.218-0.328-0.438-0.64-0.656-0.954-0.188-0.25-0.376-0.484-0.562-0.718-0.25-0.296-0.5-0.578-0.75-0.86a9.652 9.652 0 0 0-0.688-0.718c-0.25-0.25-0.468-0.484-0.75-0.718a7.82 7.82 0 0 0-0.844-0.718 14.112 14.112 0 0 0-0.718-0.578c-0.312-0.234-0.624-0.438-0.938-0.656-0.25-0.172-0.532-0.344-0.782-0.5a13.116 13.116 0 0 0-0.968-0.546c-0.312-0.156-0.594-0.312-0.906-0.468-0.312-0.14-0.594-0.266-0.906-0.39-0.376-0.156-0.75-0.312-1.124-0.438-0.124-0.046-0.25-0.11-0.406-0.156-0.124-0.046-0.282-0.078-0.438-0.124a13.726 13.726 0 0 0-1.188-0.328c-0.282-0.078-0.594-0.14-0.876-0.204-0.406-0.078-0.782-0.14-1.156-0.204a20.006 20.006 0 0 0-0.968-0.124c-0.344-0.032-0.718-0.046-1.062-0.078a23.532 23.532 0 0 0-1.062-0.032c-0.312 0-0.656 0.016-0.968 0.032-0.406 0.016-0.78 0.046-1.156 0.078-0.312 0.032-0.594 0.078-0.906 0.124-0.406 0.062-0.812 0.124-1.188 0.204l-0.844 0.188c-0.406 0.11-0.844 0.218-1.25 0.344-0.124 0.046-0.282 0.078-0.406 0.124-0.156 0.046-0.25 0.094-0.406 0.14-0.376 0.14-0.75 0.296-1.156 0.454a19.84 19.84 0 0 0-0.844 0.39c-0.344 0.156-0.656 0.312-0.968 0.484s-0.624 0.344-0.906 0.516-0.562 0.344-0.812 0.532c-0.312 0.204-0.624 0.406-0.938 0.64-0.25 0.188-0.5 0.39-0.75 0.594-0.282 0.234-0.562 0.454-0.812 0.704-0.282 0.234-0.5 0.484-0.75 0.734a7.38 7.38 0 0 0-0.688 0.704 42.6 42.6 0 0 0-1.312 1.564l-0.656 0.984c-0.186 0.25-0.342 0.5-0.5 0.75-0.188 0.312-0.376 0.656-0.562 0.984a12.188 12.188 0 0 0-0.438 0.89 11.556 11.556 0 0 0-0.406 0.922c-0.156 0.36-0.312 0.718-0.438 1.094-0.062 0.14-0.124 0.266-0.156 0.406l-63.998 191.992c-3.718 11.188 2.312 23.264 13.5 26.984 2.218 0.75 4.5 1.11 6.75 1.11 8.906 0 17.25-5.656 20.218-14.594l43.778-131.274 43.75 131.274c2.968 8.938 11.312 14.594 20.218 14.594 2.25 0 4.532-0.36 6.75-1.11 11.188-3.718 17.218-15.796 13.5-26.984l-64.002-191.998zM788.246 419.94l-63.996-191.992c-0.062-0.14-0.124-0.266-0.188-0.406-0.124-0.376-0.25-0.734-0.376-1.094-0.124-0.312-0.312-0.61-0.438-0.922-0.124-0.296-0.312-0.594-0.438-0.906-0.188-0.328-0.376-0.656-0.562-0.968-0.188-0.25-0.312-0.516-0.5-0.766-0.188-0.328-0.438-0.64-0.688-0.954-0.188-0.25-0.376-0.484-0.562-0.718-0.25-0.296-0.438-0.578-0.688-0.86-0.25-0.25-0.5-0.484-0.75-0.718-0.188-0.25-0.438-0.484-0.688-0.718-0.312-0.25-0.562-0.484-0.876-0.718-0.25-0.188-0.5-0.39-0.75-0.578-0.25-0.234-0.624-0.438-0.938-0.656-0.25-0.172-0.5-0.344-0.75-0.5a9.312 9.312 0 0 0-1-0.546 10.888 10.888 0 0 0-0.876-0.468c-0.312-0.14-0.624-0.266-0.938-0.39-0.376-0.156-0.688-0.312-1.062-0.438-0.188-0.046-0.312-0.11-0.438-0.156s-0.31-0.078-0.436-0.124a17.514 17.514 0 0 0-1.188-0.328c-0.312-0.078-0.624-0.14-0.876-0.204a19.916 19.916 0 0 0-1.188-0.204c-0.312-0.046-0.624-0.094-0.938-0.124-0.376-0.032-0.75-0.046-1.062-0.078-0.376-0.016-0.688-0.032-1.062-0.032a26.286 26.286 0 0 0-2.124 0.11c-0.312 0.032-0.624 0.078-0.938 0.124a66.72 66.72 0 0 0-1.188 0.204c-0.25 0.062-0.562 0.124-0.812 0.188-0.438 0.11-0.812 0.218-1.25 0.344a3.924 3.924 0 0 1-0.438 0.124c-0.124 0.046-0.25 0.11-0.376 0.156-0.376 0.124-0.75 0.282-1.124 0.438a7.85 7.85 0 0 0-0.876 0.39 27.92 27.92 0 0 0-1.876 1.016c-0.312 0.156-0.562 0.328-0.812 0.5-0.312 0.218-0.624 0.422-0.938 0.656-0.25 0.188-0.5 0.39-0.75 0.594-0.25 0.218-0.562 0.454-0.812 0.704-0.25 0.234-0.5 0.468-0.75 0.718-0.25 0.234-0.5 0.468-0.688 0.718-0.25 0.282-0.5 0.562-0.75 0.86-0.188 0.234-0.376 0.468-0.562 0.718-0.25 0.312-0.438 0.624-0.688 0.954a5.21 5.21 0 0 1-0.5 0.766c-0.188 0.312-0.376 0.64-0.5 0.968-0.188 0.312-0.312 0.61-0.5 0.906-0.124 0.312-0.25 0.61-0.376 0.922a7.3 7.3 0 0 0-0.438 1.094c-0.062 0.14-0.124 0.266-0.188 0.406l-63.998 191.992c-3.688 11.188 2.312 23.264 13.498 26.984 2.25 0.75 4.5 1.11 6.75 1.11 8.938 0 17.25-5.656 20.25-14.594l43.75-131.274 43.746 131.274a21.372 21.372 0 0 0 20.248 14.594c2.25 0 4.5-0.36 6.75-1.11 11.2-3.722 17.262-15.8 13.512-26.988z" fill="#E6E9ED" /><path d="M704.002 256.026H405.37c-11.812 0-21.342-9.546-21.342-21.328s9.53-21.328 21.342-21.328h298.632c11.81 0 21.31 9.546 21.31 21.328s-9.5 21.328-21.31 21.328z" fill="#FFCE54" /><path d="M405.37 512.016c-47.06 0-85.338-38.28-85.338-85.326h170.648c0 47.046-38.28 85.326-85.31 85.326z" fill="#FFCE54" /><path d="M704.002 512.016c-47.062 0-85.31-38.28-85.31-85.326h170.618c-0.002 47.046-38.252 85.326-85.308 85.326z" fill="#FFCE54" /></svg>