<?xml version="1.0" standalone="no"?><!DOCTYPE svg PUBLIC "-//W3C//DTD SVG 1.1//EN" "http://www.w3.org/Graphics/SVG/1.1/DTD/svg11.dtd"><svg class="icon" width="128px" height="128.00px" viewBox="0 0 1024 1024" version="1.1" xmlns="http://www.w3.org/2000/svg"><path d="M425.112 85.354h-32a21.33 21.33 0 0 1-21.342-21.344c0-11.78 9.562-21.31 21.342-21.31h32c11.782 0 21.328 9.532 21.328 21.31 0 11.812-9.548 21.344-21.328 21.344zM521.11 85.354h-32c-11.782 0-21.344-9.532-21.344-21.344 0-11.78 9.562-21.31 21.344-21.31h32c11.782 0 21.328 9.532 21.328 21.31 0 11.812-9.548 21.344-21.328 21.344z" fill="#434A54" /><path d="M425.112 128.01h-32c-11.782 0-21.342-9.532-21.342-21.312s9.562-21.344 21.342-21.344h32c11.782 0 21.328 9.562 21.328 21.344s-9.548 21.312-21.328 21.312zM521.11 128.01h-32c-11.782 0-21.344-9.532-21.344-21.312s9.562-21.344 21.344-21.344h32c11.782 0 21.328 9.562 21.328 21.344s-9.548 21.312-21.328 21.312zM521.11 170.696h-127.998c-11.782 0-21.342-9.562-21.342-21.344 0-11.78 9.562-21.342 21.342-21.342h127.998c11.782 0 21.328 9.562 21.328 21.342s-9.548 21.344-21.328 21.344z" fill="#434A54" /><path d="M673.808 721.184c-5.75-10.688-12-20.062-18.062-29.156-16.562-24.812-30.968-46.344-31.938-89.966 5.312-5.438 19.782-15.718 33.124-23.376 9.312-5.312 13.218-16.75 9.124-26.686-0.188-0.438-18.562-45.188-18.562-76.968 0-41.624-31.062-83.904-92.278-125.684-42.672-29.094-84.718-47.468-86.5-48.25a21.406 21.406 0 0 0-16.984 0c-1.782 0.782-43.828 19.156-86.498 48.25-61.218 41.78-92.264 84.06-92.264 125.652 0 31.812-18.374 76.562-18.546 77a21.318 21.318 0 0 0 9.092 26.686c13.282 7.624 27.688 17.844 33.046 23.312-1.468 30.498-16.858 64.56-20.562 72.342-8.782 11.656-50.436 70.342-50.436 135.996 0 57 25.078 102.748 72.544 132.308 39.984 24.876 96.044 38.032 162.122 38.032 66.062 0 122.136-13.156 162.104-38.032 47.468-29.56 72.532-75.308 72.532-132.308 0.006-34.468-6.494-61.966-21.058-89.152z" fill="#965353" /><path d="M673.808 721.184c-5.75-10.688-12-20.062-18.062-29.156-16.562-24.812-30.968-46.344-31.938-89.966 5.312-5.438 19.782-15.718 33.124-23.376 9.312-5.312 13.218-16.75 9.124-26.686-0.188-0.438-18.562-45.188-18.562-76.968 0-41.624-31.062-83.904-92.278-125.684-42.672-29.094-84.718-47.468-86.5-48.25a21.406 21.406 0 0 0-16.984 0c-0.578 0.25-5.296 2.312-12.844 5.968 15.984 7.688 44.67 22.532 73.654 42.282 61.2 41.78 92.262 84.06 92.262 125.684 0 31.782 18.376 76.532 18.562 76.968 4.124 9.936 0.218 21.374-9.124 26.686-13.312 7.656-27.782 17.938-33.062 23.376 0.938 43.624 15.312 65.154 31.876 89.966 6.062 9.094 12.344 18.468 18.062 29.156 14.594 27.186 21.124 54.684 21.124 89.152 0 57-25.124 102.748-72.562 132.308-35.622 22.156-83.98 35-140.792 37.562 6.984 0.312 14.092 0.468 21.342 0.468 66.062 0 122.136-13.156 162.104-38.032 47.468-29.56 72.532-75.308 72.532-132.308 0.006-34.466-6.494-61.964-21.058-89.15z" fill="#FFFFFF" opacity=".1" /><path d="M489.11 0.012h-64c-11.78 0-21.342 9.562-21.342 21.344v554.642a21.332 21.332 0 0 0 21.342 21.344h64c11.78 0 21.328-9.532 21.328-21.344V21.356c0-11.782-9.548-21.344-21.328-21.344z" fill="#656D78" /><path d="M499.766 682.684H414.44c-11.78 0-21.328-9.562-21.328-21.344s9.546-21.344 21.328-21.344h85.326c11.782 0 21.344 9.562 21.344 21.344s-9.564 21.344-21.344 21.344zM540.14 779.804a21.362 21.362 0 0 0-19.078-11.812h-127.918c-8.078 0-15.454 4.594-19.078 11.812a21.364 21.364 0 0 0 2.014 22.344l59.686 79.624v120.904c0 11.782 9.562 21.312 21.342 21.312 11.782 0 21.328-9.532 21.328-21.312v-120.904l59.702-79.624a21.32 21.32 0 0 0 2.002-22.344z" fill="#434A54" /><path d="M777.118 981.332c-11.812 0-21.376-9.532-21.376-21.344V362.692c0-11.782 9.562-21.344 21.376-21.344 11.75 0 21.312 9.562 21.312 21.344v597.296c0 11.812-9.562 21.344-21.312 21.344z" fill="#FFD2A6" /></svg>