<?xml version="1.0" standalone="no"?><!DOCTYPE svg PUBLIC "-//W3C//DTD SVG 1.1//EN" "http://www.w3.org/Graphics/SVG/1.1/DTD/svg11.dtd"><svg class="icon" width="128px" height="128.00px" viewBox="0 0 1024 1024" version="1.1" xmlns="http://www.w3.org/2000/svg"><path d="M776.746 140.584L648.774 12.614 636.278 0.118H21.432V1023.882H789.242v-870.8z" fill="#E6E9ED" /><path d="M170.742 597.322h469.222c11.746 0 21.304-9.558 21.304-21.338s-9.558-21.338-21.304-21.338H170.742c-11.81 0-21.338 9.558-21.338 21.338s9.528 21.338 21.338 21.338zM639.964 682.616H170.742c-11.81 0-21.338 9.562-21.338 21.34 0 11.78 9.53 21.338 21.338 21.338h469.222c11.746 0 21.304-9.558 21.304-21.338 0.002-11.778-9.558-21.34-21.304-21.34zM405.344 810.588H170.742c-11.81 0-21.338 9.558-21.338 21.338s9.53 21.34 21.338 21.34h234.602c11.778 0 21.338-9.56 21.338-21.34s-9.558-21.338-21.338-21.338z" fill="#434A54" /><path d="M945.582 682.178h-56.676l-56.988 199.08 85.292 56.864 85.356-56.864z" fill="#E6E9ED" /><path d="M917.21 127.65c-47.114 0-85.292 38.178-85.292 85.292v575.868h170.648V212.944c0-47.116-38.238-85.294-85.356-85.294z" fill="#656D78" /><path d="M256.036 296.862v-41.24h42.678c11.778 0 21.308-9.56 21.308-21.34 0-11.778-9.53-21.338-21.308-21.338h-42.678V191.634c0-11.778-9.53-21.338-21.308-21.338s-21.338 9.56-21.338 21.338v21.308h-10.654c-36.834 0-48.614 15.09-52.05 27.71-6.436 23.902 14.09 50.24 62.706 80.358v41.24H170.742c-11.778 0-21.338 9.56-21.338 21.34 0 11.778 9.56 21.306 21.338 21.306h42.646c0 11.81 9.56 21.34 21.338 21.34s21.308-9.53 21.308-21.34h10.684c36.804 0 48.614-15.058 52.02-27.712 6.47-23.868-14.09-50.206-62.702-80.322z m-58.082-41.116c1.406-0.094 3-0.124 4.78-0.124h10.654v13.714c-7.092-5.436-12.058-10.03-15.434-13.59z m68.766 106.506h-10.684v-13.714c7.092 5.436 12.06 10.03 15.434 13.59-1.408 0.092-3 0.124-4.75 0.124z" fill="#8CC153" /><path d="M789.242 153.082h-152.964V0.118z" fill="#CCD1D9" /></svg>