<?xml version="1.0" standalone="no"?><!DOCTYPE svg PUBLIC "-//W3C//DTD SVG 1.1//EN" "http://www.w3.org/Graphics/SVG/1.1/DTD/svg11.dtd"><svg class="icon" width="128px" height="128.00px" viewBox="0 0 1024 1024" version="1.1" xmlns="http://www.w3.org/2000/svg"><path d="M767.942 256.058c0 35.334-28.618 63.984-63.984 63.984-35.336 0-63.984-28.65-63.984-63.984 0-35.336 28.648-63.986 63.984-63.986 35.366 0 63.984 28.65 63.984 63.986z" fill="#FFCE54" /><path d="M645.406 810.62c-23.992-50.458-75.386-85.326-134.938-85.326-59.564 0-110.958 34.868-134.922 85.326h-14.388v63.984c0 82.45 66.86 149.28 149.31 149.28s149.308-66.83 149.308-149.28V810.62h-14.37z" fill="#F6BB42" /><path d="M659.778 810.62c0 82.45-66.86 149.278-149.308 149.278-82.45 0-149.31-66.828-149.31-149.278 0-82.482 66.86-149.31 149.31-149.31 82.448-0.002 149.308 66.826 149.308 149.31z" fill="#FFCE54" /><path d="M531.792 767.942h-0.016c0-11.53-9.204-21.058-20.808-21.308-11.778-0.282-21.558 9.03-21.824 20.808 0 0.188 0.016 0.344 0.016 0.5h-0.016v85.324h0.016c0 11.558 9.202 21.056 20.808 21.306 11.778 0.282 21.542-9.03 21.824-20.808 0-0.156-0.016-0.344-0.016-0.498h0.016v-85.324z" fill="#E8AA3D" /><path d="M659.778 149.426c0 11.78-9.558 21.34-21.336 21.34-11.782 0-21.34-9.56-21.34-21.34s9.558-21.338 21.34-21.338c11.776 0 21.336 9.558 21.336 21.338zM512.014 192.072c0 11.78-9.56 21.34-21.338 21.34s-21.324-9.56-21.324-21.34 9.544-21.306 21.324-21.306 21.338 9.526 21.338 21.306z" fill="#FFCE54" /><path d="M192.074 256.058l234.618 300.868v125.72c0 23.558 38.194 42.646 85.324 42.646 47.098 0 85.31-19.088 85.31-42.646v-125.72l234.602-300.868H192.074z" fill="#ED5564" /><path d="M341.382 192.072m-63.986 0a63.986 63.986 0 1 0 127.972 0 63.986 63.986 0 1 0-127.972 0Z" fill="#FFCE54" /><path d="M533.338 64.102m-63.986 0a63.986 63.986 0 1 0 127.972 0 63.986 63.986 0 1 0-127.972 0Z" fill="#FFCE54" /></svg>