<?xml version="1.0" standalone="no"?><!DOCTYPE svg PUBLIC "-//W3C//DTD SVG 1.1//EN" "http://www.w3.org/Graphics/SVG/1.1/DTD/svg11.dtd"><svg class="icon" width="128px" height="128.00px" viewBox="0 0 1024 1024" version="1.1" xmlns="http://www.w3.org/2000/svg"><path d="M213.33 149.356h597.342v211.994H213.33z" fill="#CCD1D9" /><path d="M874.668 938.676c0 47.124-38.248 85.308-85.372 85.308H234.674c-47.124 0-85.342-38.186-85.342-85.308V320.006c0-47.124 38.216-85.31 85.342-85.31h554.624c47.124 0 85.372 38.186 85.372 85.31v618.67z" fill="#E6E9ED" /><path d="M512.008 64.014c-234.804 0-298.678 85.342-298.678 85.342v42.654h597.342V149.356s-63.876-85.342-298.664-85.342z" fill="#ED5564" /><path d="M554.68 42.702c0 23.562-19.11 42.656-42.672 42.656-23.592 0-42.686-19.094-42.686-42.656S488.416 0.016 512.008 0.016c23.562 0 42.672 19.124 42.672 42.686z" fill="#FFCE54" /><path d="M442.354 945.58c8.75-12.716 9.562-23.686 11.062-45.592 1.532-21.936-4.406-42.81-13.782-61.654-5.782-11.594-17.998-40.06-36.186-49.842-18.218-9.782-40.374-23.25-73.998-22.75-33.592 0.5-88.28 26.032-108.34 39.688-20.062 13.654-27.906 27.936-29.532 50.904-1.594 22.938-2.188 22.156 9.594 59.092 11.812 36.904 30.032 58.342 43.936 66.03 13.938 7.688 16.032 8.156 38.376 10.25 22.342 2.094 48.498 5.094 64.81 3.876s37.592-0.844 51.78-11.5c14.188-10.69 33.718-26.064 42.28-38.502z" fill="#EAAD7A" /><path d="M308.638 837.99c-8.31 8.344-8.31 21.844 0 30.188 8.344 8.312 21.844 8.312 30.188 0 8.312-8.344 8.312-21.844 0-30.188-8.344-8.312-21.844-8.312-30.188 0zM324.326 908.114c-8.344 8.312-8.344 21.844 0 30.156 8.312 8.342 21.844 8.342 30.156 0 8.344-8.312 8.344-21.844 0-30.156-8.312-8.344-21.844-8.344-30.156 0zM243.11 854.958c-8.342 8.344-8.342 21.844 0 30.154a21.332 21.332 0 0 0 30.188 0c8.312-8.31 8.312-21.81 0-30.154a21.336 21.336 0 0 0-30.188 0z" fill="#7F4545" /><path d="M437.478 980.986c13 9.782 24.876 12.094 48.562 16.688 23.716 4.562 47.03 2.218 68.452-3.532 13.186-3.532 45.434-10.438 57.808-25.5 12.438-15.062 29.25-33.154 32.062-63.686 2.75-30.498-19.688-83.716-32.624-103.872-12.876-20.156-27.686-29.344-52.496-34.156-24.796-4.782-23.922-5.218-65.264 0.094-41.344 5.282-66.466 18.656-76.186 30.156-9.75 11.5-10.468 13.312-14.938 33.248-4.438 19.906-10.312 43.188-10.594 58.124-0.25 14.938-2.75 34.156 7.468 48.562 10.222 14.406 25.034 34.312 37.75 43.874z" fill="#EAAD7A" /><path d="M543.446 909.8c-7.282-9.25-20.688-10.906-29.968-3.624-9.282 7.25-10.906 20.656-3.624 29.938 7.25 9.28 20.656 10.904 29.938 3.656 9.262-7.282 10.888-20.688 3.654-29.97zM497.258 867.646c-7.248-9.282-20.654-10.906-29.936-3.656-9.282 7.282-10.906 20.686-3.656 29.966 7.282 9.282 20.688 10.906 29.968 3.624 9.248-7.248 10.906-20.652 3.624-29.934zM552.304 835.052c-7.25-9.282-20.64-10.906-29.922-3.656-9.282 7.282-10.906 20.688-3.656 29.968 7.282 9.282 20.688 10.906 29.954 3.624 9.312-7.248 10.938-20.654 3.624-29.936z" fill="#7F4545" /><path d="M578.178 924.676c5.688 14.124 14.686 21.436 32.748 35.998 18.124 14.562 39.876 23.124 62 27.968 13.624 3 45.81 11.75 65.496 4.688 19.624-7.032 44.938-14.656 65.188-39.062 20.248-24.404 31.686-79.308 32.124-102.09 0.5-22.782-7.062-37.186-25.998-52.436-18.938-15.282-17.876-15.218-57.188-29.438-39.248-14.25-69.058-14.376-84.308-9.094-15.188 5.282-16.938 6.468-32.438 21.218-15.562 14.75-34.25 31.656-43.188 44.092-8.998 12.438-22.374 27.468-21.874 44.218 0.562 16.72 1.876 40.156 7.438 53.938z" fill="#EAAD7A" /><path d="M758.922 887.864c-1.438-11.686-12.124-19.998-23.812-18.53-11.688 1.438-19.998 12.092-18.56 23.78 1.5 11.688 12.124 20 23.81 18.562 11.686-1.468 20-12.126 18.562-23.812zM691.236 892.488c-1.438-11.688-12.06-19.966-23.81-18.53-11.688 1.468-19.938 12.092-18.5 23.81 1.438 11.688 12.124 19.968 23.812 18.532s19.998-12.124 18.498-23.812zM750.234 830.208c-1.5-11.688-12.124-19.998-23.812-18.53-11.686 1.438-19.998 12.092-18.56 23.81 1.438 11.688 12.124 19.968 23.81 18.532 11.688-1.468 20-12.124 18.562-23.812z" fill="#7F4545" /><path d="M332.202 876.022c13.594 7.186 25.532 7.53 49.374 8.154 23.876 0.624 46.876-5.216 67.81-13.936 12.844-5.344 44.376-16.812 55.686-32.876 11.312-16.062 26.844-35.686 27.5-64.78 0.688-29.06-25.188-75.592-39.374-92.53-14.188-16.904-29.468-23.248-54.468-23.936-24.966-0.656-24.124-1.188-64.842 10.188-40.686 11.376-64.748 27.81-73.652 40.124-8.906 12.312-9.5 14.124-12.594 33.532-3.062 19.404-7.312 42.154-6.562 56.248 0.718 14.062-0.468 32.498 10.688 44.436 11.122 11.97 27.184 28.344 40.434 35.376z" fill="#F4BE8E" /><path d="M472.948 777.93c-8.312-8.376-21.812-8.406-30.188-0.124-8.344 8.312-8.406 21.812-0.124 30.188 8.312 8.342 21.812 8.404 30.188 0.124 8.342-8.314 8.404-21.814 0.124-30.188zM395.012 773.586c-8.282-8.376-21.812-8.406-30.154-0.124-8.376 8.312-8.438 21.812-0.124 30.188 8.28 8.344 21.81 8.406 30.154 0.094 8.374-8.284 8.436-21.784 0.124-30.158zM401.324 703.088c-8.282-8.376-21.782-8.438-30.156-0.124-8.374 8.282-8.404 21.812-0.124 30.156 8.312 8.376 21.812 8.438 30.156 0.124 8.374-8.282 8.436-21.812 0.124-30.156z" fill="#7F4545" /><path d="M743.36 764.368c-0.438-15.03-1.124-16.904-11.312-35.374-10.25-18.438-21.624-40.406-31.624-52.374-9.938-11.938-21.124-28.656-38.686-33.782s-42.376-11.78-58.5-11.56c-16.498 0.218-27.06 5.624-48.184 16.498-21.046 10.876-37.14 27-49.454 44.624-7.594 10.844-27.28 35.968-26.466 55.468 0.844 19.466 0.438 44.06 19.124 69.84 18.656 25.782 71.92 54.094 95.418 62.124 23.5 8.03 41 6.248 63.062-5.124 22.062-11.376 21.688-10.5 49.436-39.938 27.686-29.466 37.622-55.372 37.186-70.402z" fill="#F4BE8E" /><path d="M587.866 805.118c11.498 2.5 22.874-4.844 25.31-16.344 2.5-11.532-4.812-22.876-16.312-25.344-11.56-2.5-22.874 4.844-25.374 16.344-2.5 11.53 4.876 22.874 16.376 25.344zM609.176 736.588a21.358 21.358 0 0 0 25.376-16.376c2.5-11.5-4.876-22.844-16.376-25.344-11.5-2.468-22.876 4.844-25.376 16.376-2.434 11.5 4.876 22.844 16.376 25.344zM659.238 805.118c11.5 2.5 22.876-4.844 25.376-16.344 2.438-11.532-4.876-22.876-16.376-25.344-11.5-2.5-22.876 4.844-25.376 16.344-2.436 11.53 4.876 22.874 16.376 25.344z" fill="#7F4545" /><path d="M640.426 655.278c-0.5-12.844-1.124-14.438-11.376-30.186-10.188-15.75-21.562-34.468-31.562-44.688-9.936-10.218-21.124-24.468-38.684-28.842-17.578-4.376-42.36-10.062-58.516-9.876-16.53 0.188-27.092 4.812-48.154 14.092-21.06 9.282-37.154 23.032-49.498 38.094-7.562 9.25-27.282 30.688-26.438 47.31 0.844 16.624 0.438 37.624 19.094 59.624 18.688 21.968 71.966 46.156 95.466 52.998 23.498 6.844 40.966 5.344 63.044-4.374 22.06-9.718 21.686-8.968 49.372-34.094 27.752-25.124 37.69-47.246 37.252-60.058z" fill="#FFD2A6" /><path d="M461.134 679.372c11.532 2.498 22.876-4.844 25.344-16.344 2.5-11.532-4.844-22.876-16.344-25.376-11.532-2.468-22.876 4.844-25.344 16.376-2.498 11.53 4.844 22.874 16.344 25.344zM523.696 631.092c11.532 2.466 22.86-4.844 25.36-16.376s-4.876-22.876-16.36-25.344c-11.532-2.468-22.876 4.844-25.344 16.376-2.5 11.5 4.844 22.844 16.344 25.344zM546.492 700.712c11.5 2.468 22.874-4.844 25.31-16.376 2.5-11.498-4.812-22.842-16.31-25.342-11.546-2.468-22.89 4.844-25.39 16.376-2.47 11.5 4.844 22.874 16.39 25.342z" fill="#7F4545" /><path d="M825.732 155.606a21.33 21.33 0 0 0-15.06-6.25h-601.28v0.376a21.35 21.35 0 0 0-11.156 5.876c-8.312 8.344-8.312 21.842 0 30.154a21.416 21.416 0 0 0 11.156 5.906v0.344h601.28c5.436 0 10.874-2.062 15.06-6.25 8.312-8.314 8.312-21.812 0-30.156z" fill="#DA4453" /><path d="M228.424 228.448a21.332 21.332 0 0 0 0-30.188 21.296 21.296 0 0 0-15.094-6.25v42.686c5.468 0 10.938-2.094 15.094-6.248zM795.546 198.26c-8.312 8.344-8.312 21.844 0 30.188a21.368 21.368 0 0 0 15.124 6.25V192.01a21.37 21.37 0 0 0-15.124 6.25z" fill="#CCD1D9" /></svg>