<?xml version="1.0" standalone="no"?><!DOCTYPE svg PUBLIC "-//W3C//DTD SVG 1.1//EN" "http://www.w3.org/Graphics/SVG/1.1/DTD/svg11.dtd"><svg class="icon" width="128px" height="128.00px" viewBox="0 0 1024 1024" version="1.1" xmlns="http://www.w3.org/2000/svg"><path d="M868.304 804.778l-3.124-0.906c-46.188-12.406-61.812-24.344-82.376-32.156-72.934-27.782-91.934-47.812-96.778-57.282-0.156-0.312-0.312-0.688-0.468-1.032l-0.594-84.714-172.964-1.97-172.964 1.968-0.594 84.714c-0.156 0.344-0.296 0.718-0.468 1.032-4.86 9.468-23.828 29.5-96.762 57.282-20.562 7.812-36.188 19.75-82.374 32.156l-3.156 0.906c-42.046 13.902-70.328 52.872-70.328 96.872v122.34h853.29v-122.34c0-44-28.276-82.968-70.34-96.87z" fill="#E6E9ED" /><path d="M339.036 628.688h346.522v256.304H339.036z" fill="#DBAFA5" /><path d="M751.996 464.752c0 155.936-148.652 299.462-239.996 299.462-91.342 0-240.01-143.528-240.01-299.462S379.456 205.946 512 205.946c132.558 0 239.996 102.872 239.996 258.806z" fill="#EAC6BB" /><path d="M648.09 531.5c26.156-8.032 49.532 10.782 19.406 27.032-60.75 32.782-106.528-90.53-158.01-26.094-51.468 64.438 30.562 129.402 104.01 122.652 199.808-18.376 115.282-155.588 77.406-154.432-28.906 0.874-42.812 30.842-42.812 30.842z" fill="#FC6E51" /><path d="M375.91 531.5c-26.17-8.032-49.546 10.782-19.42 27.032 60.764 32.782 106.544-90.53 158.026-26.094 51.484 64.438-30.56 129.402-104.012 122.652-199.808-18.376-115.278-155.588-77.404-154.432 28.92 0.874 42.81 30.842 42.81 30.842z" fill="#FC6E51" /><path d="M293.334 405.346v-129.84l-14.468-4.906c-51.952-17.624-86.858-66.374-86.858-121.248 0-70.592 57.42-127.996 127.998-127.996 31 0 60.888 11.218 84.2 31.592 23.078 20.156-0.952-2.968 3.36 27.218l48-41.342 113.998-5.656 42.34 34c4.312-30.186 6.156 5.936 29.218-14.218a127.93 127.93 0 0 1 84.218-31.592c70.59 0 127.964 57.404 127.964 127.996 0 62-44.188 114.966-105.09 125.936l-17.532 3.188v126.872H293.334z" fill="#F5F7FA" /><path d="M725.34 0.012c-41.782 0-79.594 17.156-106.656 44.844C591.562 17.2 553.812 0.012 512 0.012c-36.562 0-70.044 13.156-96.014 34.968C390.034 13.168 356.566 0.012 320.004 0.012c-82.466 0-149.326 66.842-149.326 149.34 0 65.656 42.406 121.436 101.326 141.434v135.872h479.99v-130.372c69.746-12.562 122.684-73.56 122.684-146.934 0.002-82.496-66.874-149.34-149.338-149.34z m81.528 218.09c-16 18.968-38.188 31.842-62.434 36.218l-35.094 6.312V384.004H314.662V260.196l-28.954-9.812c-43.28-14.688-72.358-55.28-72.358-101.03 0-58.81 47.842-106.684 106.654-106.684a106.48 106.48 0 0 1 67.544 24.156c-15.718 23.624-24.874 52-24.874 82.528 0 11.782 9.546 21.312 21.328 21.312s21.328-9.532 21.328-21.312c0-58.81 47.858-106.684 106.67-106.684s106.682 47.874 106.682 106.684c0 11.782 9.532 21.312 21.312 21.312s21.344-9.532 21.344-21.312c0-0.062-0.032-0.094-0.032-0.124 0-24.998-6.156-48.53-17-69.216a103.452 103.452 0 0 1 10.876-11.032 106.52 106.52 0 0 1 70.156-26.31c58.808 0 106.652 47.874 106.652 106.684a106.74 106.74 0 0 1-25.122 68.746z" fill="#E6E9ED" /><path d="M512 1023.988h174.026V714.434S595.092 816.524 512 816.524c-83.092 0-173.558-103.122-173.558-103.122v310.586H512z" fill="#ED5564" /><path d="M469.346 874.648c0 11.782-9.562 21.344-21.344 21.344-11.78 0-21.328-9.562-21.328-21.344s9.546-21.312 21.328-21.312 21.344 9.532 21.344 21.312zM469.346 959.992c0 11.778-9.562 21.34-21.344 21.34-11.78 0-21.328-9.562-21.328-21.34 0-11.782 9.546-21.344 21.328-21.344s21.344 9.562 21.344 21.344zM597.344 874.648c0 11.782-9.562 21.344-21.344 21.344s-21.312-9.562-21.312-21.344 9.532-21.312 21.312-21.312 21.344 9.532 21.344 21.312zM597.344 959.992c0 11.778-9.562 21.34-21.344 21.34s-21.312-9.562-21.312-21.34c0-11.782 9.532-21.344 21.312-21.344s21.344 9.562 21.344 21.344z" fill="#434A54" /></svg>