<?xml version="1.0" standalone="no"?><!DOCTYPE svg PUBLIC "-//W3C//DTD SVG 1.1//EN" "http://www.w3.org/Graphics/SVG/1.1/DTD/svg11.dtd"><svg class="icon" width="128px" height="128.00px" viewBox="0 0 1024 1024" version="1.1" xmlns="http://www.w3.org/2000/svg"><path d="M0.006 578.874v170.842c0 47.154 143.404 85.402 320.292 85.402 176.886 0 320.292-38.248 320.292-85.402v-170.842H0.006z" fill="#46CEAD" /><path d="M640.59 578.874c0 47.188-143.406 85.404-320.292 85.404-176.888 0-320.292-38.216-320.292-85.404 0-47.154 143.404-85.404 320.292-85.404 176.886-0.002 320.292 38.248 320.292 85.404z" fill="#35BB9B" /><path d="M320.298 728.34C143.41 728.34 0.006 690.122 0.006 642.934v42.718c0 47.156 143.404 85.406 320.292 85.406 176.886 0 320.292-38.25 320.292-85.406v-42.718c0 47.188-143.406 85.406-320.292 85.406z" fill="#35BB9B" /><path d="M686.714 192.038l-147.844 85.624c-40.812 23.624-2.03 166.872 86.624 319.962 88.654 153.06 193.622 257.994 234.434 234.34l147.808-85.592L686.714 192.038z" fill="#AC92EA" /><path d="M1007.738 746.372C966.926 769.996 861.96 665.09 773.336 512c-88.684-153.06-127.434-296.338-86.622-319.962 40.81-23.656 145.778 81.28 234.432 234.34 88.654 153.088 127.436 296.336 86.592 319.994z" fill="#967ADA" /><path d="M717.9 544.094c-88.654-153.06-127.436-296.308-86.624-319.962l-36.968 21.406c-40.812 23.656-2.032 166.904 86.624 319.962 88.652 153.092 193.622 257.996 234.432 234.372l36.966-21.404c-40.84 23.652-145.776-81.284-234.43-234.374z" fill="#967ADA" /></svg>