<?xml version="1.0" standalone="no"?><!DOCTYPE svg PUBLIC "-//W3C//DTD SVG 1.1//EN" "http://www.w3.org/Graphics/SVG/1.1/DTD/svg11.dtd"><svg class="icon" width="128px" height="128.00px" viewBox="0 0 1024 1024" version="1.1" xmlns="http://www.w3.org/2000/svg"><path d="M42.656 42.672h938.656v938.672H42.656z" fill="#434A54" /><path d="M917.312 128c0 11.796-9.562 21.344-21.312 21.344A21.322 21.322 0 0 1 874.656 128c0-11.766 9.532-21.328 21.344-21.328 11.75 0 21.312 9.562 21.312 21.328zM149.312 128c0 11.796-9.562 21.344-21.312 21.344A21.322 21.322 0 0 1 106.656 128c0-11.766 9.532-21.328 21.344-21.328 11.75 0 21.312 9.562 21.312 21.328zM149.312 896c0 11.782-9.562 21.344-21.312 21.344-11.812 0-21.344-9.562-21.344-21.344 0-11.75 9.532-21.312 21.344-21.312 11.75 0 21.312 9.562 21.312 21.312zM917.312 896c0 11.782-9.562 21.344-21.312 21.344-11.812 0-21.344-9.562-21.344-21.344 0-11.75 9.532-21.312 21.344-21.312 11.75 0 21.312 9.562 21.312 21.312z" fill="#AAB2BC" /><path d="M512 1002.688c-66.25 0-130.532-13-191-38.562-58.438-24.718-110.906-60.094-155.968-105.156-45.062-45.094-80.438-97.532-105.156-155.968-25.594-60.5-38.562-124.75-38.562-191 0-66.234 12.968-130.5 38.562-190.968 24.718-58.438 60.094-110.906 105.156-155.984 45.062-45.062 97.532-80.438 155.968-105.156 60.468-25.578 124.75-38.546 191-38.546 66.218 0 130.5 12.968 190.968 38.546 58.438 24.718 110.906 60.094 155.968 105.156 45.062 45.078 80.438 97.546 105.156 155.984 25.594 60.468 38.562 124.734 38.562 190.968 0 66.25-12.968 130.5-38.562 191-24.718 58.438-60.094 110.876-105.156 155.968-45.062 45.062-97.532 80.438-155.968 105.156-60.468 25.562-124.75 38.562-190.968 38.562z" fill="#E6E9ED" /><path d="M512 0C229.218 0 0 229.234 0 512c0 282.782 229.218 512 512 512 282.75 0 512-229.218 512-512C1024 229.234 794.75 0 512 0z m331.844 843.876c-43.094 43.124-93.312 76.968-149.188 100.624-57.844 24.438-119.282 36.844-182.656 36.844-63.406 0-124.844-12.406-182.688-36.844-55.876-23.656-106.094-57.5-149.188-100.624-43.124-43.126-76.968-93.314-100.624-149.188C55.062 636.844 42.656 575.376 42.656 512s12.406-124.828 36.844-182.656c23.656-55.89 57.5-106.094 100.624-149.204 43.094-43.124 93.312-76.968 149.188-100.594C387.156 55.078 448.594 42.672 512 42.672c63.376 0 124.812 12.406 182.656 36.876 55.876 23.624 106.094 57.468 149.188 100.594 43.124 43.11 76.968 93.312 100.594 149.204 24.468 57.828 36.876 119.282 36.876 182.656s-12.406 124.844-36.876 182.688c-23.626 55.872-57.47 106.06-100.594 149.186z" fill="#656D78" /><path d="M511.75 917.376c-1.188 0-2.376-0.032-3.562-0.032-22.156-56.718-40.624-131.532-53.688-217.532l-13.5-89.188-27.876 85.782c-24.25 74.624-37.75 147.156-44.782 194.718-42.032-15.938-80.906-38.624-115.844-67.75-37.968-31.624-69.376-69.25-93.5-111.906 38.062-47.594 93.624-101.032 161.624-155.344l70.468-56.282-88.218 18.766c-76.718 16.296-146.25 40.86-190.938 58.516a397.448 397.448 0 0 1-3.156-23.562c-4.75-46.218-1.688-92.36 9.188-137.094 9.406-38.844 24.5-75.922 44.876-110.406 60.218 9.172 134.25 30.562 215.25 62.282l83.968 32.876-60.344-67.016c-52.5-58.296-108.562-106.25-146.218-136.124 61.344-50.312 135.124-81.032 214.906-89.266a410.94 410.94 0 0 1 41.844-2.156c1.188 0 2.344 0.016 3.532 0.016 22.156 56.734 40.656 131.546 53.688 217.546l13.5 89.172 27.876-85.782c24.218-74.624 37.718-147.156 44.782-194.734 42.032 15.938 80.906 38.656 115.844 67.75 37.968 31.64 69.376 69.25 93.5 111.922-38.062 47.594-93.624 101.032-161.594 155.328l-70.5 56.296 88.25-18.766c76.688-16.296 146.218-40.86 190.906-58.532 1.282 7.86 2.344 15.718 3.156 23.546 4.75 46.25 1.688 92.39-9.188 137.14a402.52 402.52 0 0 1-44.876 110.376c-60.218-9.156-134.25-30.562-215.25-62.25l-83.968-32.876 60.344 67c52.5 58.312 108.562 106.25 146.218 136.124-61.344 50.312-135.124 81.032-214.906 89.25a405.24 405.24 0 0 1-41.812 2.192z" fill="#48CFAD" /><path d="M936.406 468.25a429.868 429.868 0 0 0-8.376-50.938c-42.532 17.906-121.812 48.204-211.344 67.234 57.562-46 126.094-107.094 173.688-169.906C837.75 213.812 746.438 137.844 638 104.282c-5.75 45.766-19.156 129.624-47.438 216.734-11.062-72.86-29.688-162.704-60.282-235.312a430.416 430.416 0 0 0-62.064 1.89c-95.718 9.876-180.782 50.672-246.25 111.454 36.75 27.89 102.624 81.406 163.906 149.422-68.624-26.86-155.75-55.64-233.906-65.454-49.844 78.266-74.656 173.282-64.406 272.766a435 435 0 0 0 8.376 50.906c42.532-17.876 121.812-48.188 211.376-67.218-57.594 46-126.124 107.094-173.718 169.906 52.624 100.812 143.938 176.812 252.376 210.376 5.75-45.782 19.156-129.624 47.468-216.75 11.032 72.876 29.656 162.688 60.25 235.312 6 0.25 12 0.376 18.062 0.376 14.532 0 29.218-0.75 44-2.25 95.718-9.876 180.782-50.688 246.25-111.468-36.782-27.906-102.624-81.406-163.876-149.406 68.594 26.84 155.72 55.622 233.876 65.434 49.844-78.25 74.656-173.282 64.406-272.75z m-282.75 167.562l-167.938-65.75 120.688 134.032c44.282 49.218 91.032 91.124 127.562 121.344a381.56 381.56 0 0 1-61.562 35.562c-38.124 17.562-78.844 28.624-121.032 33-9.406 0.938-18.938 1.562-28.468 1.876-19.312-53.438-35.532-121.624-47.312-199.25l-27.032-178.376-55.718 171.562c-20.468 62.968-33.406 124.438-41.312 171.188-30.562-14.094-59.124-32.124-85.376-54-32.218-26.876-59.438-58.25-81.188-93.532 36.594-43.468 87.532-91.594 148.968-140.656l140.938-112.594-176.438 37.516c-64.75 13.766-124.406 33.266-168.812 49.766-3.968-42.5-0.906-84.876 9.062-126a381.644 381.644 0 0 1 35.376-91.954c55.938 9.968 123.094 30.016 196.25 58.656l167.968 65.766-120.718-134.046C373.28 270.734 326.53 228.798 290 198.578A382.84 382.84 0 0 1 351.562 163c38.124-17.532 78.844-28.624 121.032-32.968 9.406-0.968 18.938-1.594 28.468-1.876 19.312 53.422 35.532 121.594 47.312 199.25l27 178.36 55.75-171.562c20.438-62.954 33.406-124.422 41.312-171.172 30.562 14.078 59.124 32.14 85.376 53.984 32.218 26.86 59.438 58.234 81.188 93.532-36.594 43.454-87.562 91.61-148.968 140.656l-140.938 112.61 176.468-37.532c64.718-13.766 124.376-33.266 168.782-49.782 3.968 42.516 0.906 84.876-9.062 126a382.232 382.232 0 0 1-35.376 92c-55.938-10-123.094-30.062-196.25-58.688z" fill="#37BC9B" /><path d="M512 661.344c-82.344 0-149.344-67-149.344-149.344 0-82.328 67-149.328 149.344-149.328 82.312 0 149.312 67 149.312 149.328 0 82.344-67 149.344-149.312 149.344z" fill="#E6E9ED" /><path d="M512 341.344c-94.282 0-170.688 76.406-170.688 170.656s76.406 170.688 170.688 170.688c94.25 0 170.656-76.438 170.656-170.688S606.25 341.344 512 341.344zM512 640c-70.594 0-128-57.438-128-128 0-70.578 57.406-127.984 128-127.984 70.562 0 127.968 57.406 127.968 127.984 0 70.562-57.406 128-127.968 128z" fill="#37BC9B" /><path d="M533.312 512c0 11.796-9.562 21.344-21.312 21.344A21.322 21.322 0 0 1 490.656 512c0-11.766 9.532-21.328 21.344-21.328 11.75 0 21.312 9.562 21.312 21.328z"  /></svg>