<?xml version="1.0" standalone="no"?><!DOCTYPE svg PUBLIC "-//W3C//DTD SVG 1.1//EN" "http://www.w3.org/Graphics/SVG/1.1/DTD/svg11.dtd"><svg class="icon" width="128px" height="128.00px" viewBox="0 0 1024 1024" version="1.1" xmlns="http://www.w3.org/2000/svg"><path d="M64.35 426.738c0 11.774-9.556 21.328-21.328 21.328s-21.296-9.554-21.296-21.328c0-11.772 9.524-21.31 21.296-21.31s21.328 9.538 21.328 21.31zM1002.274 426.738c0 11.774-9.526 21.328-21.294 21.328-11.774 0-21.328-9.554-21.328-21.328 0-11.772 9.554-21.31 21.328-21.31 11.768 0 21.294 9.538 21.294 21.31z" fill="#CCD1D9" /><path d="M980.978 490.69c0 11.772-9.556 21.326-21.328 21.326H64.35c-11.772 0-21.328-9.554-21.328-21.326v-127.9c0-11.774 9.554-21.312 21.328-21.312h895.3c11.772 0 21.328 9.54 21.328 21.312v127.9z" fill="#656D78" /><path d="M746.472 0.4H149.596v937.954h724.778V128.3z" fill="#E6E9ED" /><path d="M1002.99 981.196c2.5 23.358-14.644 42.404-38.094 42.404H59.104c-23.45 0-40.592-19.046-38.094-42.404l54.864-512.068c2.498-23.308 23.732-42.388 47.182-42.388h777.894c23.45 0 44.684 19.08 47.18 42.388l54.86 512.068z" fill="#656D78" /><path d="M241.43 501.93c8.15 2.154 18.112 5.074 29.664 8.448 56.394 16.486 150.57 44.028 240.906 44.246 90.334-0.218 184.512-27.76 240.904-44.246 11.554-3.374 21.516-6.292 29.664-8.448 39.844-10.54 108.262-21.092 169.744 6.184l-4.186-38.986c-2.496-23.308-23.73-42.388-47.18-42.388H123.054c-23.45 0-44.684 19.08-47.182 42.388l-4.184 38.986c61.482-27.276 129.898-16.724 169.742-6.184z" fill="#434A54" /><path d="M213.576 703.85c11.772 0 21.328-9.524 21.328-21.294s-9.554-21.296-21.328-21.296c-11.772 0-21.294 9.526-21.294 21.296s9.522 21.294 21.294 21.294zM298.854 703.85c11.772 0 21.328-9.524 21.328-21.294s-9.554-21.296-21.328-21.296c-11.772 0-21.328 9.526-21.328 21.296s9.556 21.294 21.328 21.294zM384.13 703.85c11.772 0 21.296-9.524 21.296-21.294s-9.524-21.296-21.296-21.296-21.328 9.526-21.328 21.296 9.556 21.294 21.328 21.294zM469.376 703.85c11.772 0 21.328-9.524 21.328-21.294s-9.556-21.296-21.328-21.296-21.296 9.526-21.296 21.296 9.524 21.294 21.296 21.294zM554.654 703.85c11.772 0 21.328-9.524 21.328-21.294s-9.556-21.296-21.328-21.296c-11.774 0-21.328 9.526-21.328 21.296s9.554 21.294 21.328 21.294zM639.932 703.85c11.772 0 21.294-9.524 21.294-21.294s-9.524-21.296-21.294-21.296c-11.774 0-21.328 9.526-21.328 21.296s9.554 21.294 21.328 21.294zM725.178 703.85c11.772 0 21.326-9.524 21.326-21.294s-9.554-21.296-21.326-21.296c-11.774 0-21.296 9.526-21.296 21.296s9.522 21.294 21.296 21.294zM810.456 703.85c11.772 0 21.326-9.524 21.326-21.294s-9.554-21.296-21.326-21.296c-11.774 0-21.328 9.526-21.328 21.296s9.554 21.294 21.328 21.294zM213.576 789.096c-11.772 0-21.326 9.554-21.326 21.36 0 11.74 9.554 21.294 21.326 21.294s21.296-9.554 21.296-21.294c0-11.806-9.524-21.36-21.296-21.36zM298.822 831.75c11.772 0 21.328-9.554 21.328-21.294 0-11.804-9.554-21.36-21.328-21.36-11.772 0-21.296 9.554-21.296 21.36 0 11.74 9.524 21.294 21.296 21.294zM384.1 789.096c-11.772 0-21.328 9.554-21.328 21.36 0 11.74 9.554 21.294 21.328 21.294s21.328-9.554 21.328-21.294c-0.002-11.806-9.556-21.36-21.328-21.36zM725.178 874.374H298.822c-11.74 0.032-21.296 9.554-21.296 21.328 0 11.74 9.556 21.294 21.296 21.294h426.356c11.772 0 21.294-9.554 21.294-21.294 0-11.806-9.522-21.328-21.294-21.328zM469.376 789.096c-11.772 0-21.328 9.554-21.328 21.36 0 11.74 9.554 21.294 21.328 21.294 11.772 0 21.296-9.554 21.296-21.294 0-11.806-9.524-21.36-21.296-21.36zM554.624 789.096c-11.774 0-21.296 9.554-21.296 21.36 0 11.74 9.524 21.294 21.296 21.294s21.328-9.554 21.328-21.294c0-11.806-9.558-21.36-21.328-21.36zM639.9 789.096c-11.774 0-21.328 9.554-21.328 21.36 0 11.74 9.554 21.294 21.328 21.294 11.772 0 21.326-9.554 21.326-21.294 0-11.806-9.554-21.36-21.326-21.36zM725.178 789.096c-11.774 0-21.328 9.554-21.328 21.36 0 11.74 9.554 21.294 21.328 21.294 11.772 0 21.294-9.554 21.294-21.294 0-11.806-9.522-21.36-21.294-21.36zM810.424 789.096c-11.774 0-21.296 9.554-21.296 21.36 0 11.74 9.524 21.294 21.296 21.294s21.326-9.554 21.326-21.294c0-11.806-9.554-21.36-21.326-21.36zM170.922 725.146c-11.772 0-21.296 9.554-21.296 21.358 0 11.74 9.524 21.296 21.296 21.296s21.328-9.556 21.328-21.296c0-11.802-9.556-21.358-21.328-21.358zM256.2 725.146c-11.772 0-21.328 9.554-21.328 21.358 0 11.74 9.556 21.296 21.328 21.296s21.328-9.556 21.328-21.296c-0.002-11.802-9.556-21.358-21.328-21.358zM341.476 767.8c11.772 0 21.296-9.556 21.296-21.296 0-11.802-9.524-21.358-21.296-21.358s-21.328 9.554-21.328 21.358c0.002 11.74 9.558 21.296 21.328 21.296zM426.722 767.8c11.772 0 21.328-9.556 21.328-21.296 0-11.802-9.554-21.358-21.328-21.358s-21.296 9.554-21.296 21.358c0 11.74 9.524 21.296 21.296 21.296zM512 767.8c11.772 0 21.326-9.556 21.326-21.296 0-11.802-9.554-21.358-21.326-21.358s-21.328 9.554-21.328 21.358c0 11.74 9.556 21.296 21.328 21.296zM597.278 767.8c11.772 0 21.294-9.556 21.294-21.296 0-11.802-9.524-21.358-21.294-21.358s-21.326 9.554-21.326 21.358c0 11.74 9.554 21.296 21.326 21.296zM682.522 767.8c11.774 0 21.328-9.556 21.328-21.296 0-11.802-9.554-21.358-21.328-21.358-11.77 0-21.294 9.554-21.294 21.358-0.002 11.74 9.524 21.296 21.294 21.296zM767.798 725.146c-11.77 0-21.326 9.554-21.326 21.358 0 11.74 9.556 21.296 21.326 21.296 11.774 0 21.328-9.556 21.328-21.296 0-11.802-9.554-21.358-21.328-21.358zM853.076 725.146c-11.772 0-21.326 9.554-21.326 21.358 0 11.74 9.554 21.296 21.326 21.296 11.774 0 21.296-9.556 21.296-21.296 0.002-11.802-9.522-21.358-21.296-21.358z" fill="#CCD1D9" /><path d="M575.982 426.738h-149.23v21.328c0 11.772 9.554 21.31 21.328 21.31h127.902c11.77 0 21.294-9.54 21.294-21.31v-21.328h-21.294z" fill="#AAB2BC" /><path d="M192.25 789.096h42.622v21.36H192.25zM192.25 661.258h42.622v21.296H192.25zM277.526 661.258h42.624v21.296h-42.624zM362.772 661.258h42.654v21.296h-42.654zM448.05 661.258h42.624v21.296h-42.624zM533.326 661.258h42.624v21.296h-42.624zM618.572 661.258h42.654v21.296h-42.654zM703.85 661.258h42.624v21.296h-42.624zM789.126 661.258h42.624v21.296h-42.624zM277.526 789.096h42.624v21.36h-42.624zM362.772 789.096h42.654v21.36h-42.654zM448.05 789.096h42.624v21.36h-42.624zM533.326 789.096h42.624v21.36h-42.624zM618.572 789.096h42.654v21.36h-42.654zM703.85 789.096h42.624v21.36h-42.624zM789.126 789.096h42.624v21.36h-42.624zM831.75 725.146h42.624v21.358h-42.624zM746.472 725.146h42.654v21.358h-42.654zM661.226 725.146h42.624v21.358h-42.624zM575.952 725.146h42.622v21.358h-42.622zM490.672 725.146h42.654v21.358h-42.654zM405.426 725.146h42.624v21.358h-42.624zM320.15 725.146h42.624v21.358h-42.624zM234.872 725.146h42.654v21.358h-42.654zM149.626 725.146h42.624v21.358H149.626zM277.526 874.374h468.946v21.328H277.526z" fill="#CCD1D9" /><path d="M213.576 682.554c11.772 0 21.328-9.556 21.328-21.296 0-11.802-9.554-21.358-21.328-21.358-11.772 0-21.294 9.554-21.294 21.358 0 11.74 9.522 21.296 21.294 21.296zM298.854 682.554c11.772 0 21.328-9.556 21.328-21.296 0-11.802-9.554-21.358-21.328-21.358-11.772 0-21.328 9.554-21.328 21.358 0 11.74 9.556 21.296 21.328 21.296zM384.13 682.554c11.772 0 21.296-9.556 21.296-21.296 0-11.802-9.524-21.358-21.296-21.358s-21.328 9.554-21.328 21.358c0.002 11.74 9.556 21.296 21.328 21.296zM469.376 682.554c11.772 0 21.328-9.556 21.328-21.296 0-11.802-9.556-21.358-21.328-21.358s-21.296 9.554-21.296 21.358c0.002 11.74 9.524 21.296 21.296 21.296zM554.654 682.554c11.772 0 21.328-9.556 21.328-21.296 0-11.802-9.556-21.358-21.328-21.358-11.774 0-21.328 9.554-21.328 21.358 0 11.74 9.554 21.296 21.328 21.296zM639.932 682.554c11.772 0 21.294-9.556 21.294-21.296 0-11.802-9.524-21.358-21.294-21.358-11.774 0-21.328 9.554-21.328 21.358 0 11.74 9.554 21.296 21.328 21.296zM725.178 682.554c11.772 0 21.326-9.556 21.326-21.296 0-11.802-9.554-21.358-21.326-21.358-11.774 0-21.296 9.554-21.296 21.358-0.002 11.74 9.522 21.296 21.296 21.296zM810.456 682.554c11.772 0 21.326-9.556 21.326-21.296 0-11.802-9.554-21.358-21.326-21.358-11.774 0-21.328 9.554-21.328 21.358-0.002 11.74 9.554 21.296 21.328 21.296zM213.576 767.8c-11.772 0-21.326 9.554-21.326 21.294 0 11.802 9.554 21.36 21.326 21.36s21.296-9.556 21.296-21.36c0-11.738-9.524-21.294-21.296-21.294zM298.822 810.456c11.772 0 21.328-9.556 21.328-21.36 0-11.74-9.554-21.294-21.328-21.294-11.772 0-21.296 9.554-21.296 21.294 0 11.802 9.524 21.36 21.296 21.36zM384.1 767.8c-11.772 0-21.328 9.554-21.328 21.294 0 11.802 9.554 21.36 21.328 21.36s21.328-9.556 21.328-21.36c-0.002-11.738-9.556-21.294-21.328-21.294zM725.178 853.046H298.822c-11.74 0.032-21.296 9.554-21.296 21.326s9.556 21.296 21.296 21.328h426.356c11.772 0 21.294-9.556 21.294-21.328s-9.522-21.326-21.294-21.326zM469.376 767.8c-11.772 0-21.328 9.554-21.328 21.294 0 11.802 9.554 21.36 21.328 21.36 11.772 0 21.296-9.556 21.296-21.36 0-11.738-9.524-21.294-21.296-21.294zM554.624 767.8c-11.774 0-21.296 9.554-21.296 21.294 0 11.802 9.524 21.36 21.296 21.36s21.328-9.556 21.328-21.36c0-11.738-9.558-21.294-21.328-21.294zM639.9 767.8c-11.774 0-21.328 9.554-21.328 21.294 0 11.802 9.554 21.36 21.328 21.36 11.772 0 21.326-9.556 21.326-21.36 0-11.738-9.554-21.294-21.326-21.294zM725.178 767.8c-11.774 0-21.328 9.554-21.328 21.294 0 11.802 9.554 21.36 21.328 21.36 11.772 0 21.294-9.556 21.294-21.36 0-11.738-9.522-21.294-21.294-21.294zM810.424 767.8c-11.774 0-21.296 9.554-21.296 21.294 0 11.802 9.524 21.36 21.296 21.36s21.326-9.556 21.326-21.36c0-11.738-9.554-21.294-21.326-21.294zM170.922 703.85c-11.772 0-21.296 9.554-21.296 21.296 0 11.802 9.524 21.358 21.296 21.358s21.328-9.554 21.328-21.358c0-11.742-9.556-21.296-21.328-21.296zM256.2 703.85c-11.772 0-21.328 9.554-21.328 21.296 0 11.802 9.556 21.358 21.328 21.358s21.328-9.554 21.328-21.358c-0.002-11.742-9.556-21.296-21.328-21.296zM341.476 746.504c11.772 0 21.296-9.554 21.296-21.358 0-11.742-9.524-21.296-21.296-21.296s-21.328 9.554-21.328 21.296c0.002 11.804 9.558 21.358 21.328 21.358zM426.722 746.504c11.772 0 21.328-9.554 21.328-21.358 0-11.742-9.554-21.296-21.328-21.296s-21.296 9.554-21.296 21.296c0 11.804 9.524 21.358 21.296 21.358zM512 746.504c11.772 0 21.326-9.554 21.326-21.358 0-11.742-9.554-21.296-21.326-21.296s-21.328 9.554-21.328 21.296c0 11.804 9.556 21.358 21.328 21.358zM597.278 746.504c11.772 0 21.294-9.554 21.294-21.358 0-11.742-9.524-21.296-21.294-21.296s-21.326 9.554-21.326 21.296c0 11.804 9.554 21.358 21.326 21.358zM682.522 746.504c11.774 0 21.328-9.554 21.328-21.358 0-11.742-9.554-21.296-21.328-21.296-11.77 0-21.294 9.554-21.294 21.296-0.002 11.804 9.524 21.358 21.294 21.358zM767.798 703.85c-11.77 0-21.326 9.554-21.326 21.296 0 11.802 9.556 21.358 21.326 21.358 11.774 0 21.328-9.554 21.328-21.358 0-11.742-9.554-21.296-21.328-21.296zM853.076 703.85c-11.772 0-21.326 9.554-21.326 21.296 0 11.802 9.554 21.358 21.326 21.358 11.774 0 21.296-9.554 21.296-21.358 0.002-11.742-9.522-21.296-21.296-21.296z" fill="#F5F7FA" /><path d="M746.472 0.4v127.9h127.902z" fill="#CCD1D9" /></svg>