<?xml version="1.0" standalone="no"?><!DOCTYPE svg PUBLIC "-//W3C//DTD SVG 1.1//EN" "http://www.w3.org/Graphics/SVG/1.1/DTD/svg11.dtd"><svg class="icon" width="128px" height="128.00px" viewBox="0 0 1024 1024" version="1.1" xmlns="http://www.w3.org/2000/svg"><path d="M512.024 839.304h-42.688v-37.496l38.062-38.03-16.718-33.406v-47.72h42.656v37.626l25.984 51.906-47.296 47.308zM544.008 173.54c-3.36-1.968-7.046-2.844-10.672-2.844v-0.032c7.376-0.032 14.546-3.812 18.484-10.656 5.876-10.218 2.376-23.25-7.812-29.156a21.324 21.324 0 0 0-10.672-2.842v-24H490.68v24c-7.374 0.032-14.53 3.812-18.468 10.656-5.906 10.218-2.406 23.25 7.812 29.156a21.204 21.204 0 0 0 10.656 2.844v0.032c-7.374 0-14.53 3.812-18.468 10.624-5.906 10.218-2.406 23.282 7.812 29.156a21.204 21.204 0 0 0 10.656 2.844v27.562h42.656V213.32c7.376 0 14.546-3.812 18.484-10.656 5.876-10.186 2.376-23.248-7.812-29.124z" fill="#AAB2BC" /><path d="M916.248 931.898l-149.374-447.992-40.436 13.5 149.186 447.554v0.094l0.124 0.344c2.812 8.468 10.812 14.594 20.248 14.594 11.75 0 21.312-9.562 21.312-21.344a21.882 21.882 0 0 0-1.06-6.75zM297.59 497.408l-40.5-13.5-149.306 447.99a21.95 21.95 0 0 0-1.094 6.75c0 11.782 9.532 21.344 21.342 21.344 9.406 0 17.376-6.124 20.218-14.594l0.124-0.344c0-0.032 0.032-0.062 0.032-0.094l149.184-447.552z" fill="#434A54" /><path d="M682.692 298.662c0 11.782-9.562 21.342-21.376 21.342-11.75 0-21.312-9.562-21.312-21.342s9.562-21.342 21.312-21.342c11.812 0 21.376 9.562 21.376 21.342zM761.502 344.192c10.186-5.906 23.248-2.406 29.124 7.812 5.938 10.188 2.438 23.25-7.75 29.124-10.25 5.906-23.31 2.406-29.186-7.812-5.876-10.186-2.376-23.248 7.812-29.124zM706.878 305.13c5.876-10.188 18.938-13.688 29.124-7.782 10.188 5.876 13.688 18.936 7.812 29.124-5.876 10.218-18.936 13.718-29.124 7.812-10.248-5.872-13.748-18.936-7.812-29.154zM341.34 298.662c0 11.782 9.562 21.342 21.344 21.342 11.78 0 21.342-9.562 21.342-21.342s-9.562-21.342-21.342-21.342c-11.782 0-21.344 9.562-21.344 21.342zM234.686 405.316c-11.782 0-21.344 9.562-21.344 21.344s9.562 21.344 21.344 21.344c11.78 0 21.342-9.562 21.342-21.344s-9.562-21.344-21.342-21.344zM789.312 405.316c-11.75 0-21.312 9.562-21.312 21.344s9.562 21.344 21.312 21.344c11.812 0 21.376-9.562 21.376-21.344s-9.564-21.344-21.376-21.344zM262.498 344.192c-10.218-5.906-23.25-2.406-29.156 7.812-5.876 10.188-2.376 23.25 7.812 29.124 10.186 5.906 23.25 2.406 29.156-7.812 5.906-10.186 2.406-23.248-7.812-29.124zM317.154 305.13c-5.876-10.188-18.938-13.688-29.124-7.782-10.218 5.876-13.718 18.936-7.812 29.124 5.874 10.218 18.936 13.718 29.124 7.812 10.218-5.872 13.686-18.936 7.812-29.154z" fill="#F6BB42" /><path d="M789.312 426.66c0 11.782-9.562 21.344-21.312 21.344-11.81 0-21.31-9.562-21.31-21.344s9.5-21.344 21.31-21.344c11.75 0 21.312 9.562 21.312 21.344z"  /><path d="M682.692 1023.988H341.34s-42.656-35.562-42.656-106.684c0-71.094 42.656-106.656 42.656-106.656h341.352s42.624 35.562 42.624 106.656c0 71.122-42.624 106.684-42.624 106.684z" fill="#FFCE54" /><path d="M362.684 533.312h42.654v277.336h-42.654zM618.692 533.312h42.624v277.336h-42.624z" fill="#F6BB42" /><path d="M661.316 298.662H362.684c-70.718 0-127.998 57.312-127.998 127.998s57.28 127.998 127.998 127.998h298.632c70.686 0 127.996-57.312 127.996-127.998s-57.31-127.998-127.996-127.998z" fill="#FFCE54" /><path d="M362.684 426.66m-63.998 0a63.998 63.998 0 1 0 127.996 0 63.998 63.998 0 1 0-127.996 0Z" fill="#F6BB42" /><path d="M725.316 426.66c0 35.342-28.624 63.998-64 63.998-35.312 0-63.998-28.656-63.998-63.998 0-35.344 28.686-63.998 63.998-63.998 35.376 0 64 28.654 64 63.998z" fill="#F6BB42" /><path d="M448.024 213.32h127.982v511.988h-127.982zM618.692 0.012H405.338c-11.78 0-21.312 9.546-21.312 21.328v85.326c0 11.782 9.532 21.344 21.312 21.344h213.354c11.75 0 21.312-9.562 21.312-21.344V21.34c0-11.78-9.562-21.328-21.312-21.328z m-21.374 85.312h-170.668V42.668h170.668v42.656z" fill="#CCD1D9" /><path d="M298.684 917.304c0 7.532 0.5 14.624 1.344 21.344h423.976c0.812-6.718 1.312-13.812 1.312-21.344 0-7.5-0.5-14.594-1.312-21.312H300.028a170.55 170.55 0 0 0-1.344 21.312z" fill="#F6BB42" /><path d="M490.68 213.32h42.656v511.988H490.68z" fill="#FFFFFF" opacity=".2" /></svg>