<?xml version="1.0" standalone="no"?><!DOCTYPE svg PUBLIC "-//W3C//DTD SVG 1.1//EN" "http://www.w3.org/Graphics/SVG/1.1/DTD/svg11.dtd"><svg class="icon" width="128px" height="128.00px" viewBox="0 0 1024 1024" version="1.1" xmlns="http://www.w3.org/2000/svg"><path d="M725.278 533.31c0-11.778-9.558-21.306-21.336-21.306-2.156 0-4.25 0.312-6.216 0.906a0.56 0.56 0 0 1-0.218 0.062c-3.842 1.218-47.236 15.028-93.502 46.142-64.45 43.298-103.61 99.658-113.248 162.92l42.158 6.434c7.86-51.578 39.472-96.438 93.958-133.332 42.174-28.586 82.788-41.27 83.288-41.426 8.744-2.656 15.116-10.776 15.116-20.4zM482.198 810.882c-40.16-42.3-77.54-70.512-111.106-83.914l-0.218-0.094c-0.11-0.032-0.218-0.094-0.328-0.124a21.774 21.774 0 0 0-7.842-1.498c-11.778 0-21.322 9.56-21.322 21.338 0 8.996 5.608 16.682 13.496 19.804v0.032c27.398 10.81 60.59 36.208 96.018 73.448 27.616 29.022 46.75 55.014 46.954 55.264l34.394-25.18c-0.83-1.158-20.65-28.118-50.046-59.076z" fill="#8CC153" /><path d="M490.506 447.68h42.658v576.166h-42.658z" fill="#A0D468" /><path d="M417.748 376.14c0-2.686-0.218 2.624 0 0zM418.108 281.886l-0.36 94.252c0 51.86 42.05 93.91 93.91 93.91 51.858 0 93.908-42.05 93.908-93.91l0.376-94.252h-187.834z" fill="#8CC153" /><path d="M868.86 131.62c-0.812-21.9-48.516 10.372-63.042 1.562-14.528-8.778 8.372-58.764-12.09-76.664-20.15-17.652-57.266 28.148-72.76 21.118-15.526-7.06-26.772-60.2-39.924-68.978-13.152-8.81-79.04 48.61-96.316 48.236-17.276-0.376-46.782-55.952-72.882-56.732-26.118-0.782-55.626 56.356-72.886 56.732-17.276 0.376-82.834-57.014-96.002-48.236-13.168 8.81-24.726 61.918-40.238 68.978-15.51 7.03-52.172-38.582-72.322-20.93-20.448 17.9 1.828 66.136-12.714 74.914-14.528 8.81-61.716-21.9-62.544 0-2.906 76.508 83.068 143.238 127.68 150.266 40.27 6.374 90.536-4.31 104.094 0 21.056 6.716 30.834 37.552 30.834 37.552h188.19s9.78-30.834 30.834-37.552c13.558-4.31 63.824 6.374 104.094 0 44.582-7.028 130.9-73.758 127.994-150.266z" fill="#5D9CEC" /><path d="M217.684 174.294c9.278-5.624 3.576-27.304 3.544-46.922-0.812 1.842-1.952 3.28-3.544 4.248-14.528 8.81-61.716-21.9-62.544 0-0.468 12.09 1.296 23.93 4.764 35.302 12.482-4.498 45.956 14.528 57.78 7.372zM805.816 175.858c11.808 7.154 45.612-12.872 58.232-8.78 3.498-11.434 5.28-23.336 4.81-35.458-0.812-21.9-48.516 10.372-63.042 1.562-1.344-0.812-2.376-1.968-3.124-3.406-0.564 19.558-5.84 40.644 3.124 46.082z" fill="#5D9CEC" /><path d="M230.4 99.35c20.15-17.652 56.81 27.96 72.322 20.93s27.07-60.168 40.238-68.948c13.168-8.81 78.726 48.61 96.002 48.204 17.26-0.374 46.768-57.514 72.884-56.732 26.1 0.782 55.606 56.358 72.882 56.732 17.278 0.406 83.164-57.044 96.316-48.234 13.152 8.81 24.398 61.95 39.924 68.978 15.494 7.03 52.61-38.77 72.76-21.118 3.592 3.124 5.81 7.278 7.184 11.964 1.25-18.526 5.938-43.144-7.184-54.608-20.15-17.652-57.266 28.148-72.76 21.118-15.526-7.06-26.772-60.2-39.924-68.978-13.152-8.81-79.04 48.61-96.316 48.236-17.276-0.376-46.782-55.952-72.882-56.732-26.118-0.782-55.626 56.356-72.886 56.732-17.276 0.376-82.834-57.014-96.002-48.236-13.168 8.81-24.726 61.918-40.238 68.978-15.51 7.03-52.172-38.582-72.322-20.93-13.606 11.902-8.31 37.208-7.514 55.452 1.36-5.03 3.688-9.466 7.516-12.808z" fill="#4A89DC" /></svg>