<?xml version="1.0" standalone="no"?><!DOCTYPE svg PUBLIC "-//W3C//DTD SVG 1.1//EN" "http://www.w3.org/Graphics/SVG/1.1/DTD/svg11.dtd"><svg class="icon" width="128px" height="128.00px" viewBox="0 0 1024 1024" version="1.1" xmlns="http://www.w3.org/2000/svg"><path d="M564.14 1003.332c-8.124 0-16.404-0.156-25.154-0.312a1346.586 1346.586 0 0 0-28.034-0.344c-9.592 0-18.966 0.156-28.06 0.344-8.75 0.156-17.032 0.312-25.124 0.312-44.218 0-73.904-5.092-94.966-31.216-26.624-33.062-39.562-99.812-39.562-204.122 0-135.404 6.156-329.65 35.5-486.1 15.5-82.794 36-147.106 60.874-191.168 26.376-46.686 56.25-69.388 91.342-69.388 35.096 0 64.968 22.704 91.342 69.388 24.876 44.062 45.344 108.374 60.876 191.168 29.312 156.45 35.5 350.696 35.5 486.1 0 104.278-12.938 171.058-39.594 204.122-21.036 26.124-50.754 31.216-94.94 31.216z" fill="#FFCE54" /><path d="M344.614 771.682c-0.032-1.25-0.032-2.438-0.032-3.688 0-62.782 1.282-119.53 3.406-170.652h32.376c-0.406 13.718-0.75 27.686-1 41.966l42.686 0.718c0.25-14.532 0.562-28.748 1-42.686h62.282v42.654h-61.844v42.688h61.844v84.81h42.656v-84.81h56.374v-42.688h-56.374V597.34h62.248c0.094 2.376 0.188 4.782 0.25 7.188l42.624-1.218c-0.062-2-0.124-4-0.188-5.968h6.562v-42.656h-8.156c-0.656-14.578-1.406-28.812-2.25-42.686h40.094c6.344 92.25 8.156 182.776 8.156 255.996 0 1.25-0.032 2.438-0.032 3.688h42.688v-3.688c0-159.464-8.25-383.32-48.282-548.222v-6.438h-1.594c-7.282-29.14-15.594-56.374-25.062-80.966v-4.36h-1.718C612.578 50.34 569.924 0.012 510.954 0.012c-78.498 0-128.09 89.17-159.152 213.324h-1.468v5.906c-40.154 164.95-48.404 389.132-48.404 548.754v3.688h42.684zM665.92 469.328h-39.782a2381.678 2381.678 0 0 0-3.656-42.656h39.5c1.438 14.158 2.75 28.406 3.938 42.656z m-14.5-127.996c2.062 14.046 4 28.28 5.75 42.67h-39.124a1961.968 1961.968 0 0 0-5.312-42.67h38.686z m-9.218-55.5c0.782 4.25 1.594 8.532 2.344 12.844h-38a1703.796 1703.796 0 0 0-7.188-42.67h36.876a1145.78 1145.78 0 0 1 5.968 29.826z m-16.158-72.498h-35.06a1246.97 1246.97 0 0 0-9.624-42.656h32.06c4.438 13.266 8.656 27.5 12.624 42.656z m-79.308-157.918c12.874 9.766 25.31 25.17 36.966 45.812a311.632 311.632 0 0 1 13.374 26.782h-26.966c-8.624-30.438-16.938-54.624-24.06-73.078 0.248 0.154 0.468 0.312 0.686 0.484z m-18.75 115.262h9.376a1292.562 1292.562 0 0 1 10 42.656h-19.376V170.678z m0 85.326h27.998a1499.732 1499.732 0 0 1 7.438 42.67h-35.436v-42.67z m0 85.328h41.78a1962.034 1962.034 0 0 1 5.406 42.67h-47.186v-42.67z m0 85.34h51.686c1.312 13.812 2.562 28.03 3.718 42.656h-55.404v-42.656z m0 85.328h58.374c0.844 13.874 1.624 28.108 2.25 42.686h-60.624V512z m-42.656 42.686h-60.624c0.656-14.594 1.438-28.828 2.282-42.686h58.344v42.686z m0-85.358h-55.344c1.156-14.656 2.376-28.874 3.75-42.656h51.594v42.656z m0-85.326h-47.094c1.688-14.782 3.5-29 5.376-42.67h41.718v42.67z m0-85.326h-35.376a1592.34 1592.34 0 0 1 7.406-42.67h27.968v42.67z m-9.406-127.998h9.406v42.656h-19.406a1286.262 1286.262 0 0 1 10-42.656z m-37.75-69.452c7.938-14.016 16.188-25.61 24.75-34.67-6.062 16.64-12.782 37.03-19.718 61.452H424.8c4.312-9.672 8.78-18.626 13.374-26.782z m-29.716 69.452h23.53a1368.536 1368.536 0 0 0-9.688 42.656h-26.466a686.616 686.616 0 0 1 12.624-42.656z m-28.75 115.154a1131.124 1131.124 0 0 1 5.968-29.828h28.31a1712.288 1712.288 0 0 0-7.216 42.67h-29.406c0.78-4.436 1.562-8.732 2.344-12.842z m-9.22 55.5h30.062c-1.812 13.702-3.562 27.92-5.25 42.67h-30.562a1842.614 1842.614 0 0 1 5.75-42.67z m-10.5 85.34h30.876a2676.064 2676.064 0 0 0-3.688 42.656h-31.188a2156.26 2156.26 0 0 1 4-42.656zM352.708 512h31.532c-0.812 13.89-1.562 28.092-2.25 42.686h-31.938c0.812-14.766 1.718-28.984 2.656-42.686z" fill="#F6BB42" /><path d="M562.734 1018.52s-50.688 9.75-107.624 3.218c-60.56-6.968-105.998-19.032-129.404-53.748-45.404-67.312-91.03-498.662-91.03-498.662S584.86 665.964 562.734 1018.52z" fill="#8CC153" /><path d="M411.738 1015.082c13.374 2.75 27.874 4.876 43.374 6.656 1.062 0.124 2.094 0.218 3.124 0.344 29.124-0.594 68.062-2.812 104.81-9.532 6.062-118.654-29.998-219.462-80.248-300.838-45.312 89.938-76.498 193.278-71.06 303.37z" opacity=".1" /><path d="M454.768 1021.708s207.34 10.156 252.746-57.154c45.404-67.344 81.808-580.55 81.808-580.55S432.674 669.152 454.768 1021.708z" fill="#A0D468" /><path d="M743.542 424.798c-9.688 122.826-41.124 484.004-78.686 539.754-31.032 45.998-137.746 55.81-202.152 57.404 38.406 1.062 204.714 2.032 244.808-57.404 45.404-67.344 81.808-580.55 81.808-580.55s-18.028 14.438-45.778 40.796z" fill="#FFFFFF" opacity=".2" /></svg>