<?xml version="1.0" standalone="no"?><!DOCTYPE svg PUBLIC "-//W3C//DTD SVG 1.1//EN" "http://www.w3.org/Graphics/SVG/1.1/DTD/svg11.dtd"><svg class="icon" width="128px" height="128.00px" viewBox="0 0 1024 1024" version="1.1" xmlns="http://www.w3.org/2000/svg"><path d="M943.888 80.112C896.14 32.348 842.424 0.004 781.892 0.02c-55.684 0-117.09 27.344-184.932 95.17-141.638 141.622-361.914 510.472-270.292 602.124 15.032 15 37.436 21.624 65.092 21.624 141.216 0 418.598-173.434 537.064-291.882 141.626-141.636 106.72-255.306 15.064-346.944zM898.64 396.886c-57.686 57.686-153.84 127.998-250.962 183.496-106.7 60.936-199.98 95.904-255.916 95.904-16.624 0-29-3.25-34.906-9.156-10.218-10.218-11.968-37.966-4.688-74.248 8.594-42.75 29.406-97.622 60.248-158.652 28.688-56.78 64.874-116.826 104.624-173.636 37.828-54.03 76.92-102.06 110.074-135.23 54.876-54.86 106.936-82.686 154.778-82.686 43.218 0 86.344 22.108 131.842 67.592 43.624 43.624 65.686 84.966 67.466 126.402 1 23.124-4.218 46.344-15.938 70.984-13.56 28.576-35.968 58.592-66.622 89.23z" fill="#E6E9ED" /><path d="M354.982 699.19l-30.188-30.186 588.94-588.908 30.154 30.172z" fill="#E6E9ED" /><path d="M341.294 661.692l-35.5-23.688c0.532-0.782 52.656-78.716 123.216-174.76 95.03-129.278 176.478-228.12 242.134-293.758 60.78-60.78 119.402-97.998 174.246-110.59 43.716-10.046 69.374-0.234 72.154 0.922l-16.312 39.42s0.124 0.062 0.406 0.172c-0.188-0.078-18.216-6.39-51.124 2.14-57.062 14.844-112.654 61.544-149.214 98.108-153.118 153.136-357.974 458.97-360.006 462.034zM385.982 718.19l-23.686-35.498c3.062-2.032 308.914-206.854 462.066-359.992 126.028-126.028 100.716-199.212 100.404-199.916l39.436-16.328c1.156 2.782 10.968 28.452 0.906 72.154-12.594 54.842-49.81 113.466-110.59 174.262-65.624 65.638-164.464 147.09-293.742 242.102-96.078 70.592-174.014 122.716-174.794 123.216z" fill="#E6E9ED" /><path d="M311.608 621.88c-8.344 8.312-8.344 21.842 0 30.186 8.312 8.312 21.842 8.312 30.156 0 8.344-8.344 8.344-21.874 0-30.186-8.312-8.312-21.844-8.312-30.156 0z" fill="#E6E9ED" /><path d="M341.764 652.066c-8.312 8.312-8.312 21.812 0 30.156a21.33 21.33 0 0 0 30.186 0c8.312-8.344 8.312-21.844 0-30.156a21.33 21.33 0 0 0-30.186 0z" fill="#E6E9ED" /><path d="M371.95 682.222c-8.344 8.344-8.344 21.842 0 30.154 8.312 8.344 21.844 8.344 30.156 0 8.342-8.312 8.342-21.81 0-30.154-8.312-8.344-21.844-8.344-30.156 0z" fill="#E6E9ED" /><path d="M387.012 757.626l-120.652-120.654 30.154-30.154 120.686 120.652z" fill="#CCD1D9" /><path d="M266.36 636.942L24.99 878.31c-33.312 33.312-33.312 87.376 0 120.686 33.342 33.31 87.342 33.31 120.684 0l241.338-241.37-120.652-120.684zM70.24 953.748c-8.312-8.312-8.312-21.844 0-30.188 8.344-8.312 21.842-8.312 30.186 0 8.312 8.344 8.312 21.876 0 30.188-8.344 8.312-21.842 8.312-30.186 0z" fill="#A0D468" /><path d="M326.67 818c-8.312-8.344-21.812-8.344-30.156 0-8.312 8.312-8.344 21.812 0 30.154L326.67 818z" fill="#8CC153" /><path d="M296.514 848.154c-8.344-8.342-21.842-8.342-30.156 0-8.344 8.344-8.344 21.844 0 30.156l30.156-30.156z" fill="#8CC153" /><path d="M266.36 878.31c-8.344-8.312-21.844-8.312-30.186 0-8.312 8.344-8.312 21.844 0 30.188l30.186-30.188zM236.172 908.498c-8.312-8.344-21.844-8.344-30.156 0-8.342 8.312-8.342 21.812 0 30.156l30.156-30.156zM85.332 818c8.344 8.312 21.844 8.312 30.156 0 8.342-8.344 8.342-21.874 0-30.186L85.332 818z" fill="#8CC153" /><path d="M115.488 787.814c8.342 8.312 21.842 8.312 30.186 0 8.312-8.312 8.312-21.844 0-30.188l-30.186 30.188zM145.674 757.626c8.344 8.344 21.842 8.344 30.156 0 8.344-8.312 8.344-21.812 0-30.156l-30.156 30.156z" fill="#8CC153" /><path d="M175.83 727.47a21.33 21.33 0 0 0 30.186 0c8.312-8.344 8.312-21.844 0-30.156l-30.186 30.156z" fill="#8CC153" /></svg>