<?xml version="1.0" standalone="no"?><!DOCTYPE svg PUBLIC "-//W3C//DTD SVG 1.1//EN" "http://www.w3.org/Graphics/SVG/1.1/DTD/svg11.dtd"><svg class="icon" width="128px" height="128.00px" viewBox="0 0 1024 1024" version="1.1" xmlns="http://www.w3.org/2000/svg"><path d="M288.01 512c-11.782 0-21.344-9.562-21.344-21.344 0-68.06 12.312-129.836 36.562-183.68 19.592-43.404 46.904-81.684 81.184-113.714 58.528-54.654 117.088-72.184 119.558-72.904 11.312-3.312 23.156 3.188 26.468 14.468 3.282 11.312-3.156 23.124-14.438 26.466-0.532 0.156-52.716 16.092-103.902 64.528-29.78 28.156-53.498 61.78-70.496 99.902-21.406 48-32.25 103.496-32.25 164.93 0 11.786-9.562 21.348-21.342 21.348z" fill="#434A54" /><path d="M407.972 474.002l-106.652-85.34a21.332 21.332 0 0 0-26.624 0l-106.652 85.34a21.292 21.292 0 0 0-8.032 16.654V789.3c0 11.782 9.562 21.342 21.342 21.342h213.304c11.78 0 21.342-9.56 21.342-21.342V490.656a21.27 21.27 0 0 0-8.028-16.654z" fill="#ED5564" /><path d="M288.01 725.304c-11.782 0-21.344-9.562-21.344-21.312v-127.994c0-11.812 9.562-21.344 21.344-21.344 11.78 0 21.342 9.532 21.342 21.344v127.994c0 11.75-9.562 21.312-21.342 21.312z" fill="#434A54" /><path d="M499.658 33.518C483.69 12.238 460.972 0.018 437.348 0.018s-46.342 12.218-62.308 33.5c-14.844 19.812-23.032 45.78-23.032 73.154 0 27.094 7.906 61.716 20.594 90.308 21.624 48.78 47.154 59.03 64.746 59.03 17.594 0 43.124-10.25 64.748-59.03 12.718-28.592 20.592-63.214 20.592-90.308 0-27.374-8.188-53.342-23.03-73.154zM714.68 64.018c-18.152 0-34.308 9.594-45.872 25.28-3.188-13.75-8.75-26.468-16.406-37.156-13.968-19.592-34.032-30.81-55.058-30.81-21 0-41.094 11.218-55.062 30.81-12.656 17.688-19.594 40.842-19.594 65.186s6.938 47.498 19.594 65.184c13.968 19.592 34.062 30.81 55.062 30.81 21.028 0 41.09-11.218 55.058-30.81 0.75-1.032 1.5-2.124 2.188-3.188 8.938 32.624 32.156 55.342 60.09 55.342 35.872 0 63.996-37.5 63.996-85.34 0-47.842-28.126-85.308-63.996-85.308z" fill="#DBAFA5" /><path d="M851.578 196.636c-9.902-16.5-24.808-25.968-40.902-25.968s-31.032 9.468-40.938 25.968c-8 13.342-12.406 30.624-12.406 48.686s4.406 35.342 12.406 48.686c9.906 16.5 24.844 26 40.938 26s31-9.5 40.902-26c8-13.344 12.406-30.624 12.406-48.686s-4.406-35.342-12.406-48.686z" fill="#DBAFA5" /><path d="M818.05 269.228c-15.156-33.124-36.844-62.434-64.438-87.09-50.96-45.59-118.586-71.716-185.55-71.716-63.562 0-118.434 23.376-154.59 65.872-36.936 43.466-48.248 97.622-34.624 165.62 11.156 55.498 37.124 111.026 60.06 160.056 19.688 42.06 38.25 81.78 38.936 105.246 1.312 45.376-5.218 78.498-12.75 116.84-6.374 32.342-13.592 68.996-17.686 119.65-5.688 69.684 5 118.152 32.656 148.122 19.656 21.31 47.03 32.124 81.342 32.154 18.594 0 39.684-3.25 62.652-9.688 62.968-17.532 118.028-113.122 163.648-284.02 34.532-129.434 55.156-276.178 55.156-343.3 0.002-42.186-8.342-81.808-24.812-117.746z" fill="#EAC6BB" /><path d="M818.05 269.228c-15.156-33.124-36.844-62.434-64.438-87.09-50.96-45.59-118.586-71.716-185.55-71.716-7.188 0-14.25 0.312-21.218 0.906 59.778 4.906 118.59 30.092 164.118 70.81 27.594 24.656 49.246 53.966 64.434 87.09 16.468 35.938 24.812 75.56 24.812 117.746 0 67.122-20.656 213.866-55.184 343.3-45.59 170.898-100.652 266.488-163.618 284.02-14.218 3.968-27.75 6.75-40.376 8.25 6.5 0.938 13.282 1.438 20.376 1.438 18.594 0 39.684-3.25 62.652-9.688 62.968-17.532 118.028-113.122 163.648-284.02 34.532-129.434 55.156-276.178 55.156-343.3 0.002-42.186-8.342-81.808-24.812-117.746z" fill="#FFFFFF" opacity=".2" /></svg>