<?xml version="1.0" standalone="no"?><!DOCTYPE svg PUBLIC "-//W3C//DTD SVG 1.1//EN" "http://www.w3.org/Graphics/SVG/1.1/DTD/svg11.dtd"><svg class="icon" width="128px" height="128.00px" viewBox="0 0 1024 1024" version="1.1" xmlns="http://www.w3.org/2000/svg"><path d="M559.524 981.522c-2.782 23.376-24.328 42.466-47.828 42.466-23.514 0-45-19.124-47.732-42.466l-32.108-273.086C429.106 685.092 446.104 666 469.62 666h84.842c23.498 0 40.464 19.092 37.652 42.436l-32.59 273.086z" fill="#E6E9ED" /><path d="M774.954 233.952c-80.124-118.808-363.378-333.834-360.52-181.056S179.316 171.704 170.05 460.288C160.8 748.874 454.496 808.84 454.496 808.84s178.118 20.686 284.584-76.936c127.526-116.934 162.526-310.098 35.874-497.952z" fill="#EC87C0" /><path d="M753.266 595.626c-53.498 36.56-114.402 68.874-180.994 96.09-71.81 29.344-150.462 52.75-234.304 69.842 22.282 13.032 43.686 22.812 61.936 30 67.326-16.25 131.074-36.688 190.4-61.03 69.624-28.594 133.338-62.624 189.4-101.184 20.968-14.438 39.31-28.406 55.186-41.468 8.156-23.312 13.81-47.686 16.81-72.81-22.498 22.438-55.434 51.218-98.434 80.56zM218.846 650.156c44.156-4.5 119.168-15.5 207.448-42.31 81.684-24.812 157.698-58.124 225.946-99.028 69.84-41.826 131.622-91.7 184.276-148.666a438.906 438.906 0 0 0-16.844-45.25c-52.748 60.578-116.122 113.262-188.712 156.84-65.06 39.076-137.698 70.966-215.852 94.824-98.278 30-180.948 39.594-218.228 42.594a298.572 298.572 0 0 0 21.966 40.996zM720.36 168.828c-36.684 52.734-86.714 98.81-148.962 137.122-55.138 33.936-119.902 61.904-192.524 83.122-88.966 26-168.23 35.406-206.696 38.67a492.636 492.636 0 0 0-2.124 32.546 401.694 401.694 0 0 0-0.188 10.578c37.78-2.86 122.386-12.046 219.978-40.468 76.466-22.25 144.916-51.764 203.46-87.716 64.438-39.578 116.966-87.108 156.528-141.528-8.878-10.498-18.786-21.358-29.472-32.326zM591.458 172.172c29.998-21.358 52.374-42.186 68.56-59.624a936.972 936.972 0 0 0-33.282-26.984c-48.31 51.138-160.056 137.34-379.816 164.854-12.546 13.61-24.358 28.938-34.796 46.686 84.014-7.436 161.26-23.624 229.634-48.186 56.142-20.168 106.516-45.982 149.7-76.746z" fill="#D770AD" /><path d="M461.416 959.866h100.7l5.092-42.748h-110.822zM577.428 831.62h-131.09l5.016 42.75h120.948z" fill="#ED5564" /></svg>