<?xml version="1.0" standalone="no"?><!DOCTYPE svg PUBLIC "-//W3C//DTD SVG 1.1//EN" "http://www.w3.org/Graphics/SVG/1.1/DTD/svg11.dtd"><svg class="icon" width="128px" height="128.00px" viewBox="0 0 1024 1024" version="1.1" xmlns="http://www.w3.org/2000/svg"><path d="M22.508 192.006v639.99c0 35.34 158.966 63.996 382.806 63.996 223.872 0 382.806-28.656 382.806-63.996V192.006H22.508z" fill="#E6E9ED" /><path d="M405.314 128.006c-223.84 0-405.306 28.656-405.306 64v127.998c0 35.344 181.466 64 405.306 64 223.872 0 405.338-28.656 405.338-64V192.006c0-35.342-181.466-64-405.338-64z" fill="#48CFAD" /><path d="M810.652 192.006c0 35.342-181.466 64-405.338 64-223.84 0-405.306-28.656-405.306-64s181.466-64 405.306-64c223.872 0 405.338 28.658 405.338 64z" fill="#37BC9B" /><path d="M938.648 324.784h42.656v430.65h-42.656z" fill="#48CFAD" /><path d="M85.32 424.892c-11.782 0-21.312 9.546-21.312 21.328v415.522c11.906 4 26.186 7.688 42.654 11.124V446.22c0-11.782-9.562-21.328-21.342-21.328z" fill="#F5F7FA" /><path d="M85.32 234.676c0 11.782 9.56 21.328 21.342 21.328 10.438 0 19.094-7.484 20.968-17.39-15.156-2.25-29.218-4.672-41.998-7.266a19.536 19.536 0 0 0-0.312 3.328zM170.662 246.676c0 11.782 9.562 21.328 21.344 21.328 11.188 0 20.374-8.64 21.248-19.624a1604.374 1604.374 0 0 1-42.436-4.172c-0.094 0.812-0.156 1.626-0.156 2.468zM256.004 253.334c0 11.796 9.532 21.344 21.312 21.344 11.656 0 21.094-9.328 21.312-20.922-14.5-0.624-28.718-1.36-42.532-2.234-0.06 0.608-0.092 1.202-0.092 1.812zM341.376 255.208a6.7 6.7 0 0 0-0.062 0.796c0 11.782 9.562 21.328 21.344 21.328s21.344-9.546 21.344-21.328v-0.094a2486.08 2486.08 0 0 1-42.626-0.702zM426.658 255.912v0.094c0 11.782 9.562 21.328 21.342 21.328 11.782 0 21.312-9.546 21.312-21.328 0-0.266-0.032-0.532-0.032-0.796-13.968 0.342-28.186 0.592-42.622 0.702zM512 253.754c0.25 11.594 9.688 20.922 21.312 20.922 11.782 0 21.344-9.546 21.344-21.344 0-0.61-0.032-1.204-0.094-1.812-13.812 0.876-28.03 1.61-42.562 2.234zM597.406 248.38c0.876 10.984 10.032 19.624 21.248 19.624 11.782 0 21.344-9.546 21.344-21.328 0-0.844-0.062-1.656-0.156-2.468a1603.54 1603.54 0 0 1-42.436 4.172zM725.028 231.348c-12.812 2.594-26.844 5.016-42 7.266a21.326 21.326 0 0 0 20.968 17.39c11.782 0 21.312-9.546 21.312-21.328 0-1.14-0.094-2.25-0.28-3.328z" fill="#37BC9B" /><path d="M895.994 234.676c0 35.344 28.654 106.654 63.998 106.654s64-71.31 64-106.654-28.656-64-64-64-63.998 28.658-63.998 64zM1023.992 789.308c0-35.312-28.656-106.624-64-106.624s-63.998 71.312-63.998 106.624c0 35.376 28.654 63.996 63.998 63.996s64-28.62 64-63.996z" fill="#E6E9ED" /></svg>