<?xml version="1.0" standalone="no"?><!DOCTYPE svg PUBLIC "-//W3C//DTD SVG 1.1//EN" "http://www.w3.org/Graphics/SVG/1.1/DTD/svg11.dtd"><svg class="icon" width="128px" height="128.00px" viewBox="0 0 1024 1024" version="1.1" xmlns="http://www.w3.org/2000/svg"><path d="M980.64 844.622l-1.718-0.5c-28.748-7.812-49.81-15.25-62.498-20.124-44.936-17.312-56.686-29.81-59.652-35.686-0.094-0.188-0.188-0.438-0.282-0.624l-0.438-54.998-191.996 2.188-0.376 52.81c-0.124 0.188-0.188 0.438-0.312 0.624-3 5.876-14.686 18.374-59.652 35.686-12.656 4.876-33.782 12.312-62.25 20.062l-1.954 0.562c-25.92 8.624-43.356 32.938-43.356 60.374v76.186h527.826v-76.186c0-27.438-17.406-51.75-43.342-60.374z" fill="#AC92EB" /><path d="M909.612 632.254c0 97.122-92.622 190.618-149.556 190.618-56.904 0-149.556-93.496-149.556-190.618 0-97.2 66.964-161.324 149.556-161.324 82.622 0 149.556 64.124 149.556 161.324z" fill="#EAC6BB" /><path d="M582.624 604.754c-0.032 0-0.064 0 0 0zM909.424 639.878s25.75-128.95-37.686-176.666c-111.684-83.998-243.368-23.344-243.368-23.344l22.124 31.062s-97.374 49.842-71.436 220.258c3.188 20.936 89.372-131.996 240.68-123.122l89.686 71.812z" fill="#434A54" /><path d="M612.716 42.82c-22.718 0-43.282 9.344-58.032 24.406-14.766-15.062-35.326-24.406-58.06-24.406-44.89 0-81.278 36.374-81.278 81.278 0 92.872 139.338 174.15 139.338 174.15s139.308-81.278 139.308-174.15c0.002-44.904-36.372-81.278-81.276-81.278z" fill="#ED5564" /><path d="M612.716 42.82c-7.376 0-14.532 1-21.344 2.844 34.56 9.376 59.936 40.936 59.936 78.434 0 69.904-78.936 133.246-117.964 160.308 12.81 8.874 21.342 13.842 21.342 13.842s139.308-81.278 139.308-174.15c0-44.904-36.374-81.278-81.278-81.278z" fill="#FFFFFF" opacity=".2" /><path d="M587.436 815.558l-2.062-0.624c-34.876-9.436-60.404-18.436-75.794-24.374-54.498-20.936-68.716-36.06-72.326-43.248-0.14-0.25-0.234-0.5-0.36-0.75l-0.484-66.686-232.836 2.688-0.454 63.998c-0.124 0.25-0.218 0.5-0.36 0.75-3.624 7.188-17.796 22.312-72.326 43.31-15.36 5.876-40.952 14.876-75.482 24.248l-2.36 0.688c-31.436 10.5-52.576 40-52.576 73.25v92.372h639.978v-92.372c0.002-33.25-21.12-62.75-52.558-73.25z" fill="#5D9CEC" /><path d="M501.33 558.068c0 117.872-112.324 231.118-181.338 231.118-68.998 0-181.322-113.246-181.322-231.118 0-117.792 81.184-195.54 181.322-195.54 100.152 0 181.338 77.748 181.338 195.54z" fill="#EAC6BB" /><path d="M436.846 341.216c-30.858-27.938-134.23-62.248-237.336 0-52.216 31.498-90.216 170.65-90.216 170.65s101.856 57.702 234.446-4.656c79.326-37.342 77.544-17.782 100.216 16.218 13.452 20.154 57.374 34.638 57.374 34.638s34.186-127.54-64.484-216.85z" fill="#A85D5D" /></svg>