<?xml version="1.0" standalone="no"?><!DOCTYPE svg PUBLIC "-//W3C//DTD SVG 1.1//EN" "http://www.w3.org/Graphics/SVG/1.1/DTD/svg11.dtd"><svg class="icon" width="128px" height="128.00px" viewBox="0 0 1024 1024" version="1.1" xmlns="http://www.w3.org/2000/svg"><path d="M612.716 42.734c-22.75 0-43.312 9.344-58.062 24.406-14.75-15.062-35.294-24.406-58.044-24.406-44.89 0-81.278 36.404-81.278 81.278 0 92.872 139.322 174.15 139.322 174.15s139.34-81.278 139.34-174.15c0-44.874-36.406-81.278-81.278-81.278z" fill="#ED5564" /><path d="M612.716 42.734c-7.406 0-14.532 1-21.344 2.844 34.53 9.376 59.936 40.936 59.936 78.434 0 69.934-78.936 133.276-117.98 160.308 12.794 8.874 21.326 13.842 21.326 13.842s139.34-81.278 139.34-174.15c0-44.874-36.406-81.278-81.278-81.278z" fill="#FFFFFF" opacity=".2" /><path d="M760.054 405.128c-246.508 0.656-137.182 285.99-221.292 356.708 0 0 45.328 41.966 221.292 41.966 175.994 0 221.304-41.966 221.304-41.966-84.122-70.716 25.218-356.05-221.304-356.708z" fill="#343A42" /><path d="M980.61 844.52l-1.688-0.5c-28.748-7.812-49.81-15.218-62.498-20.124-44.936-17.282-56.686-29.78-59.652-35.654-0.094-0.218-0.218-0.438-0.282-0.656l-0.438-54.998-192.028 2.188-0.376 52.81c-0.094 0.218-0.156 0.438-0.282 0.656-3 5.876-14.686 18.374-59.652 35.686-12.656 4.876-33.782 12.282-62.266 20.032l-1.954 0.562c-25.92 8.656-43.356 32.968-43.356 60.374v76.248h527.84v-76.248c0.004-27.408-17.434-51.72-43.368-60.376z" fill="#EC87C0" /><path d="M909.612 632.152c0 97.184-92.622 190.618-149.556 190.618s-149.556-93.434-149.556-190.618 66.964-161.308 149.556-161.308c82.622 0 149.556 64.124 149.556 161.308z" fill="#EAC6BB" /><path d="M792.022 407.002l-10.094 104.778s69.688 62.53 152.372 65.404l0.376-0.062c-11.002-80.434-36.378-157.306-142.654-170.12z" fill="#434A54" /><path d="M864.614 432.096c-24.81-16.78-58.466-26.842-104.558-26.966-154.12 0.406-169.12 112.09-179.306 213.024 147.556-8.126 283.832-186.058 283.864-186.058z" fill="#656D78" /><path d="M612.716 42.89c-22.75 0-43.312 9.344-58.062 24.406-14.75-15.062-35.31-24.406-58.044-24.406-44.89 0-81.278 36.374-81.278 81.278 0 92.872 139.322 174.15 139.322 174.15s139.34-81.278 139.34-174.15c0-44.904-36.406-81.278-81.278-81.278z" fill="#ED5564" /><path d="M612.716 42.89c-7.406 0-14.532 1-21.344 2.844 34.53 9.376 59.936 40.936 59.936 78.434 0 69.904-78.936 133.246-117.98 160.308 12.794 8.874 21.326 13.842 21.326 13.842s139.34-81.278 139.34-174.15c0-44.904-36.406-81.278-81.278-81.278z" fill="#FFFFFF" opacity=".2" /><path d="M534.876 820.394H105.108S-6.888 298.6 319.992 298.6s214.884 521.794 214.884 521.794z" fill="#E2A437" /><path d="M587.436 815.644l-2.062-0.624c-34.876-9.436-60.42-18.436-75.81-24.374-54.498-20.966-68.716-36.092-72.326-43.248-0.124-0.25-0.234-0.532-0.344-0.782l-0.5-66.686-232.836 2.656-0.454 64.03c-0.11 0.25-0.218 0.532-0.344 0.782-3.624 7.156-17.812 22.282-72.326 43.28-15.376 5.906-40.968 14.906-75.482 24.28l-2.376 0.688c-31.42 10.5-52.56 39.968-52.56 73.218v92.402h639.948v-92.402c0-33.25-21.09-62.72-52.528-73.22z" fill="#AC92EB" /><path d="M501.33 558.154c0 117.808-112.324 231.118-181.338 231.118s-181.338-113.308-181.338-231.118 81.184-195.556 181.338-195.556 181.338 77.748 181.338 195.556z" fill="#EAC6BB" /><path d="M319.992 298.6c-8.562 0-16.812 0.376-24.78 1.062l-15.376 67.278 68.794 62.936 201.43 130.122C537.282 429.376 483.642 298.6 319.992 298.6z" fill="#F6BB42" /><path d="M87.78 588.122c127.964-21.154 341.41-195.492 384.096-231.242-34.968-35.718-83.934-58.28-151.886-58.28-175.414 0-224.444 150.276-232.21 289.522z" fill="#FFCE54" /></svg>