<?xml version="1.0" standalone="no"?><!DOCTYPE svg PUBLIC "-//W3C//DTD SVG 1.1//EN" "http://www.w3.org/Graphics/SVG/1.1/DTD/svg11.dtd"><svg class="icon" width="128px" height="128.00px" viewBox="0 0 1024 1024" version="1.1" xmlns="http://www.w3.org/2000/svg"><path d="M534.936 21.358c0 11.782-9.562 21.312-21.342 21.312s-21.312-9.532-21.312-21.312S501.814 0.016 513.594 0.016s21.342 9.56 21.342 21.342z" fill="#434A54" /><path d="M920.424 772.71l-3.624-1.062c-52.934-14.188-70.872-27.844-94.434-36.812-83.558-31.874-105.308-54.81-110.872-65.652-0.218-0.406-0.376-0.812-0.562-1.218l-0.688-97.092L512 568.624l-198.276 2.25-0.688 97.092c-0.156 0.406-0.312 0.812-0.532 1.218-5.562 10.842-27.312 33.78-110.902 65.652-23.562 8.968-41.468 22.624-94.404 36.812l-3.624 1.062c-48.186 15.938-80.622 60.624-80.622 111.058v140.214h978.098v-140.214c-0.002-50.434-32.438-95.12-80.626-111.058z" fill="#ED5564" /><path d="M314.38 575.466l-1.876 93.718 145.684 124.902 81.186-97.466z" fill="#FFCE54" /><path d="M710.494 578.374l0.438 89.59-145.122 126.122-81.216-97.466z" fill="#FFCE54" /><path d="M787.116 382.972c0 178.744-170.432 343.238-275.116 343.238-104.716 0-275.118-164.494-275.118-343.238S360.066 86.292 512 86.292s275.116 117.936 275.116 296.68z" fill="#EAC6BB" /><path d="M512 21.358c-154.12 0-283.866 127.09-283.866 283.868l-0.032 78.78h567.764v-78.78c0-156.778-129.746-283.868-283.866-283.868z" fill="#FFCE54" /><path d="M512 256.008c250.368 0 308.428 109.152 308.428 109.152 5.5 10.344 0.406 18.844-11.312 18.844H214.882c-11.718 0-16.812-8.5-11.312-18.844 0 0 58.03-109.152 308.43-109.152z" fill="#ED5564" /><path d="M513.592 106.668c-35.342 0-63.998 28.656-63.998 63.998 0 35.344 28.656 63.998 63.998 63.998s64.03-28.654 64.03-63.998c0.002-35.342-28.686-63.998-64.03-63.998z m0 85.342c-11.75 0-21.312-9.562-21.312-21.344 0-11.75 9.562-21.312 21.312-21.312 11.78 0 21.342 9.562 21.342 21.312 0.002 11.782-9.56 21.344-21.342 21.344z" fill="#434A54" /><path d="M705.682 767.992H321.692l-106.652 85.216v75.342l597.326 14.564v-89.906z" fill="#E6E9ED" /><path d="M214.852 853.334h597.326v170.65H214.852z" fill="#F5F7FA" /></svg>