<?xml version="1.0" standalone="no"?><!DOCTYPE svg PUBLIC "-//W3C//DTD SVG 1.1//EN" "http://www.w3.org/Graphics/SVG/1.1/DTD/svg11.dtd"><svg class="icon" width="128px" height="128.00px" viewBox="0 0 1024 1024" version="1.1" xmlns="http://www.w3.org/2000/svg"><path d="M810.648 576.006c0-27.998-11.156-54.794-30.438-74.576 10.282-25.654 10.282-54.654-0.406-80.528a107.004 107.004 0 0 0-56.688-57.25c-0.312-27.624-11.374-54.436-31.186-74.246-19.874-19.876-46.186-30.938-74.248-31.218-10.876-25.406-31.374-45.936-57.248-56.654-13.03-5.376-26.748-8.124-40.748-8.124a106.336 106.336 0 0 0-39.812 7.718c-19.764-19.312-46.546-30.438-74.544-30.438-28.014 0-54.78 11.124-74.56 30.438a106.2 106.2 0 0 0-39.796-7.718 105.784 105.784 0 0 0-40.75 8.124c-25.89 10.718-46.358 31.248-57.248 56.654-28.062 0.282-54.388 11.344-74.248 31.218-19.812 19.81-30.874 46.624-31.202 74.246-25.42 10.876-45.952 31.376-56.67 57.25-10.718 25.874-10.688 54.874-0.406 80.528C11.138 521.212 0.014 548.008 0.014 576.006c0 28 11.124 54.812 30.436 74.56-10.266 25.688-10.312 54.686 0.406 80.56 10.718 25.874 31.264 46.374 56.67 57.248 0.328 27.624 11.39 54.436 31.202 74.248 19.86 19.874 46.186 30.936 74.248 31.186 10.89 25.438 31.374 45.938 57.248 56.686 13.032 5.376 26.734 8.124 40.75 8.124a105.604 105.604 0 0 0 39.796-7.75c19.78 19.312 46.544 30.438 74.56 30.438 28 0 54.78-11.124 74.544-30.438a105.77 105.77 0 0 0 39.812 7.75c14 0 27.718-2.75 40.748-8.124 25.876-10.748 46.374-31.248 57.248-56.686 28.062-0.25 54.376-11.312 74.248-31.186 19.812-19.812 30.874-46.624 31.186-74.248 25.438-10.876 45.938-31.376 56.688-57.248 10.688-25.876 10.688-54.874 0.406-80.56 19.282-19.748 30.438-46.56 30.438-74.56z" fill="#F4BE8E" /><path d="M725.304 576.006c0 176.744-143.244 319.99-319.974 319.99-176.728 0-319.99-143.246-319.99-319.99 0-176.728 143.262-319.974 319.99-319.974 176.73 0 319.974 143.246 319.974 319.974z" fill="#EAAD7A" /><path d="M262.242 304.936c-8.328 8.312-8.328 21.844 0 30.156 8.344 8.344 21.842 8.344 30.17 0 8.328-8.312 8.328-21.844 0-30.156-8.328-8.344-21.826-8.344-30.17 0zM390.238 304.936c-8.328 8.312-8.328 21.844 0 30.156 8.328 8.344 21.842 8.344 30.17 0 8.328-8.312 8.328-21.844 0-30.156-8.326-8.344-21.842-8.344-30.17 0zM518.234 304.936c-8.328 8.312-8.328 21.844 0 30.156 8.328 8.344 21.844 8.344 30.172 0 8.344-8.312 8.344-21.844 0-30.156-8.328-8.344-21.844-8.344-30.172 0zM198.244 432.932c-8.328 8.312-8.328 21.844 0 30.156 8.344 8.344 21.842 8.344 30.17 0 8.328-8.312 8.328-21.844 0-30.156-8.328-8.344-21.826-8.344-30.17 0zM326.24 432.932c-8.328 8.312-8.328 21.844 0 30.156 8.328 8.344 21.842 8.344 30.17 0 8.328-8.312 8.328-21.844 0-30.156-8.326-8.344-21.842-8.344-30.17 0zM454.236 432.932c-8.328 8.312-8.328 21.844 0 30.156 8.328 8.344 21.842 8.344 30.17 0 8.328-8.312 8.328-21.844 0-30.156-8.326-8.344-21.842-8.344-30.17 0zM582.248 432.932c-8.344 8.312-8.344 21.844 0 30.156 8.312 8.344 21.81 8.344 30.154 0 8.344-8.312 8.344-21.844 0-30.156-8.344-8.344-21.842-8.344-30.154 0zM134.262 560.944c-8.344 8.312-8.344 21.812 0 30.124a21.236 21.236 0 0 0 30.156 0c8.328-8.312 8.328-21.812 0-30.124a21.236 21.236 0 0 0-30.156 0zM262.242 560.944c-8.328 8.312-8.328 21.812 0 30.124a21.252 21.252 0 0 0 30.17 0c8.328-8.312 8.328-21.812 0-30.124a21.252 21.252 0 0 0-30.17 0zM390.238 560.944c-8.328 8.312-8.328 21.812 0 30.124a21.252 21.252 0 0 0 30.17 0c8.328-8.312 8.328-21.812 0-30.124a21.252 21.252 0 0 0-30.17 0zM518.234 560.944c-8.328 8.312-8.328 21.812 0 30.124a21.256 21.256 0 0 0 30.172 0c8.344-8.312 8.344-21.812 0-30.124a21.256 21.256 0 0 0-30.172 0zM646.246 560.944c-8.344 8.312-8.344 21.812 0 30.124 8.312 8.376 21.812 8.376 30.156 0 8.344-8.312 8.344-21.812 0-30.124-8.344-8.376-21.844-8.376-30.156 0zM198.244 688.94c-8.328 8.312-8.328 21.812 0 30.124a21.252 21.252 0 0 0 30.17 0c8.328-8.312 8.328-21.812 0-30.124a21.252 21.252 0 0 0-30.17 0zM326.24 688.94c-8.328 8.312-8.328 21.812 0 30.124a21.252 21.252 0 0 0 30.17 0c8.328-8.312 8.328-21.812 0-30.124a21.252 21.252 0 0 0-30.17 0zM454.236 688.94c-8.328 8.312-8.328 21.812 0 30.124a21.252 21.252 0 0 0 30.17 0c8.328-8.312 8.328-21.812 0-30.124a21.252 21.252 0 0 0-30.17 0zM582.248 688.94c-8.344 8.312-8.344 21.812 0 30.124 8.312 8.376 21.81 8.376 30.154 0 8.344-8.312 8.344-21.812 0-30.124-8.344-8.376-21.842-8.376-30.154 0zM262.242 816.936c-8.328 8.312-8.328 21.812 0 30.124a21.252 21.252 0 0 0 30.17 0c8.328-8.312 8.328-21.812 0-30.124a21.256 21.256 0 0 0-30.17 0zM390.238 816.936c-8.328 8.312-8.328 21.812 0 30.124a21.252 21.252 0 0 0 30.17 0c8.328-8.312 8.328-21.812 0-30.124a21.256 21.256 0 0 0-30.17 0zM518.234 816.936c-8.328 8.312-8.328 21.812 0 30.124a21.256 21.256 0 0 0 30.172 0c8.344-8.312 8.344-21.812 0-30.124a21.26 21.26 0 0 0-30.172 0z" fill="#D89766" /><path d="M1023.984 448.026c0-28.03-11.124-54.81-30.438-74.592 10.25-25.654 10.312-54.654-0.438-80.528-10.688-25.876-31.248-46.376-56.652-57.25-0.344-27.624-11.406-54.436-31.188-74.246-19.876-19.876-46.218-30.938-74.28-31.218-10.876-25.406-31.342-45.936-57.216-56.654-13.032-5.376-26.75-8.124-40.782-8.124a106.18 106.18 0 0 0-39.78 7.718c-19.78-19.312-46.53-30.438-74.56-30.438-27.998 0-54.78 11.124-74.528 30.438a106.47 106.47 0 0 0-39.828-7.718c-14.014 0-27.718 2.75-40.748 8.124-25.876 10.718-46.358 31.248-57.234 56.654-28.062 0.282-54.404 11.344-74.262 31.218-19.812 19.81-30.874 46.624-31.202 74.246-25.406 10.876-45.936 31.376-56.656 57.25-10.718 25.874-10.686 54.874-0.422 80.528-19.296 19.782-30.436 46.562-30.436 74.592 0 28 11.14 54.78 30.436 74.56-10.264 25.672-10.296 54.67 0.422 80.544 10.718 25.876 31.25 46.374 56.656 57.248 0.344 27.624 11.406 54.436 31.202 74.248 19.858 19.874 46.202 30.936 74.262 31.186 10.876 25.438 31.358 45.938 57.234 56.686 13.03 5.376 26.734 8.124 40.748 8.124a105.874 105.874 0 0 0 39.828-7.75c19.748 19.312 46.53 30.438 74.528 30.438 28.032 0 54.782-11.124 74.56-30.438a105.54 105.54 0 0 0 39.81 7.75c14 0 27.718-2.75 40.718-8.124 25.876-10.748 46.374-31.248 57.248-56.686 28.06-0.25 54.404-11.312 74.248-31.186 19.812-19.812 30.876-46.624 31.218-74.248 25.404-10.876 45.964-31.374 56.652-57.248 10.75-25.876 10.688-54.874 0.438-80.544 19.318-19.782 30.442-46.56 30.442-74.56z" fill="#FFD2A6" /><path d="M938.644 448.026c0 176.73-143.278 319.974-319.992 319.974-176.712 0-319.99-143.244-319.99-319.974 0-176.744 143.276-319.99 319.99-319.99 176.716 0 319.992 143.246 319.992 319.99z" fill="#F4BE8E" /><path d="M475.58 176.94c-8.328 8.312-8.328 21.844 0 30.156 8.328 8.344 21.842 8.344 30.17 0 8.328-8.312 8.328-21.844 0-30.156-8.328-8.344-21.842-8.344-30.17 0zM603.558 176.94c-8.312 8.312-8.312 21.844 0 30.156 8.344 8.344 21.876 8.344 30.188 0 8.312-8.312 8.312-21.844 0-30.156-8.312-8.344-21.844-8.344-30.188 0zM731.554 176.94c-8.312 8.312-8.312 21.844 0 30.156 8.344 8.344 21.876 8.344 30.188 0 8.312-8.312 8.312-21.844 0-30.156-8.312-8.344-21.844-8.344-30.188 0zM411.582 304.936c-8.328 8.312-8.328 21.844 0 30.156 8.328 8.344 21.842 8.344 30.17 0 8.328-8.312 8.328-21.844 0-30.156-8.328-8.344-21.842-8.344-30.17 0zM539.578 304.936c-8.328 8.312-8.328 21.844 0 30.156 8.328 8.344 21.858 8.344 30.17 0 8.312-8.312 8.312-21.844 0-30.156-8.312-8.344-21.842-8.344-30.17 0zM667.558 304.936c-8.312 8.312-8.312 21.844 0 30.156 8.344 8.344 21.874 8.344 30.186 0 8.312-8.312 8.312-21.844 0-30.156-8.312-8.344-21.842-8.344-30.186 0zM795.554 304.936c-8.312 8.312-8.312 21.844 0 30.156 8.344 8.344 21.874 8.344 30.186 0 8.312-8.312 8.312-21.844 0-30.156-8.312-8.344-21.842-8.344-30.186 0zM347.584 432.932c-8.328 8.312-8.328 21.844 0 30.156 8.328 8.344 21.842 8.344 30.17 0 8.328-8.312 8.328-21.844 0-30.156-8.328-8.344-21.842-8.344-30.17 0zM475.58 432.932c-8.328 8.312-8.328 21.844 0 30.156 8.328 8.344 21.842 8.344 30.17 0 8.328-8.312 8.328-21.844 0-30.156-8.328-8.344-21.842-8.344-30.17 0zM603.558 432.932c-8.312 8.312-8.312 21.844 0 30.156 8.344 8.344 21.876 8.344 30.188 0 8.312-8.312 8.312-21.844 0-30.156-8.312-8.344-21.844-8.344-30.188 0zM731.554 432.932c-8.312 8.312-8.312 21.844 0 30.156 8.344 8.344 21.876 8.344 30.188 0 8.312-8.312 8.312-21.844 0-30.156-8.312-8.344-21.844-8.344-30.188 0zM859.55 432.932c-8.312 8.312-8.312 21.844 0 30.156 8.344 8.344 21.876 8.344 30.188 0 8.312-8.312 8.312-21.844 0-30.156-8.312-8.344-21.844-8.344-30.188 0zM411.582 560.944c-8.328 8.312-8.328 21.812 0 30.124a21.252 21.252 0 0 0 30.17 0c8.328-8.312 8.328-21.812 0-30.124a21.252 21.252 0 0 0-30.17 0zM539.578 560.944c-8.328 8.312-8.328 21.812 0 30.124 8.328 8.376 21.858 8.376 30.17 0 8.312-8.312 8.312-21.812 0-30.124-8.312-8.376-21.842-8.376-30.17 0zM667.558 560.944c-8.312 8.312-8.312 21.812 0 30.124 8.344 8.376 21.874 8.376 30.186 0 8.312-8.312 8.312-21.812 0-30.124-8.312-8.376-21.842-8.376-30.186 0zM795.554 560.944c-8.312 8.312-8.312 21.812 0 30.124 8.344 8.376 21.874 8.376 30.186 0 8.312-8.312 8.312-21.812 0-30.124-8.312-8.376-21.842-8.376-30.186 0zM475.58 688.94c-8.328 8.312-8.328 21.812 0 30.124a21.252 21.252 0 0 0 30.17 0c8.328-8.312 8.328-21.812 0-30.124a21.252 21.252 0 0 0-30.17 0zM603.558 688.94c-8.312 8.312-8.312 21.812 0 30.124 8.344 8.376 21.876 8.376 30.188 0 8.312-8.312 8.312-21.812 0-30.124-8.312-8.376-21.844-8.376-30.188 0zM731.554 688.94c-8.312 8.312-8.312 21.812 0 30.124 8.344 8.376 21.876 8.376 30.188 0 8.312-8.312 8.312-21.812 0-30.124-8.312-8.376-21.844-8.376-30.188 0z" fill="#EAAD7A" /></svg>