<?xml version="1.0" standalone="no"?><!DOCTYPE svg PUBLIC "-//W3C//DTD SVG 1.1//EN" "http://www.w3.org/Graphics/SVG/1.1/DTD/svg11.dtd"><svg class="icon" width="128px" height="128.00px" viewBox="0 0 1024 1024" version="1.1" xmlns="http://www.w3.org/2000/svg"><path d="M186.828 490.986c-11.78-0.016-21.342-9.562-21.342-21.328l0.062-149.246a21.298 21.298 0 0 1 21.31-21.312c11.782 0 21.312 9.546 21.312 21.312l-0.032 149.246c0.002 11.78-9.56 21.328-21.31 21.328z" fill="#E6E9ED" /><path d="M187.046 746.808c-39.56 0-64.152-24.5-64.152-63.938 0-16.062 8.406-34.876 25.654-57.562 6.282-8.25 12.532-15.372 16.938-20.214v-29.5c0-11.782 9.562-21.312 21.342-21.312a21.3 21.3 0 0 1 21.312 21.312v46.808l-6.25 6.218c-19.342 19.468-36.342 44.812-36.342 54.25 0 15.75 5.624 21.312 21.498 21.312 8.624 0 19-18.156 22.156-27.906 3.656-11.188 15.656-17.344 26.876-13.688 11.188 3.624 17.344 15.656 13.688 26.844-1.906 5.876-19.844 57.376-62.72 57.376z" fill="#434A54" /><path d="M250.828 576.25H122.894v-106.592l42.842-42.64h42.436l42.656 42.64z" fill="#ED5564" /><path d="M698.55 59.232L613.238 0.014l-85.262 59.218v943.444h170.574z" fill="#F6BB42" /><path d="M698.55 972.52l-55.124-55.124 55.124-55.156v-60.496l-55.124-55.122 55.124-55.124v-60.562l-55.124-55.122 55.124-55.124V460.16l-55.124-55.124 55.124-55.138v-51.89a21.186 21.186 0 0 0-14.624 6.234l-70.688 70.638-70.386-70.42a21.278 21.278 0 0 0-14.876-6.234v51.67l55.138 55.138-55.138 55.124v60.53l55.138 55.124-55.138 55.122v60.562l55.138 55.124-55.138 55.122v60.496l55.138 55.156-55.138 55.124v30.156h30.14l55.122-55.124 55.188 55.124h30.124V972.52z m-140.496-482.098l55.184-55.234 55.25 55.234-55.25 55.264-55.184-55.264z m0 170.792l55.184-55.246 55.25 55.246-55.25 55.218-55.184-55.218z m0 170.778l55.184-55.25 55.25 55.25-55.25 55.246-55.184-55.246z" fill="#E5A535" /><path d="M933.042 320.412H26.96l53.28-127.918h916.802s0 127.918-64 127.918z" fill="#FFCE54" /><path d="M416.104 226.46l-33.966-33.968h-57.342l-33.968 33.968-33.968-33.966H199.546L165.58 226.46 131.614 192.494H81.8a21.128 21.128 0 0 0 6.156 16.64l47.468 47.484-47.312 47.31c-4.532 4.516-6.562 10.562-6.188 16.484h50l33.654-33.64 33.654 33.64H257.2l33.624-33.64 33.656 33.64h57.966l33.654-33.64 33.656 33.64h49.966a21.234 21.234 0 0 0-6.156-16.484l-47.31-47.31 47.624-47.64c4.532-4.516 6.562-10.562 6.188-16.484h-49.998l-33.966 33.966z m-187.9 62.624l-32.468-32.466 32.468-32.484 32.5 32.484-32.5 32.466z m125.276 0l-32.498-32.466 32.498-32.484 32.468 32.484-32.468 32.466z" fill="#F6BB42" /><path d="M698.55 320.412H449.76l78.216-127.918h170.574z" fill="#4FC2E9" /><path d="M591.928 192.494h42.686v127.918h-42.686z" fill="#3BAFDA" /><path d="M783.858 149.854h127.874v213.198h-127.874z" fill="#E6E9ED" /><path d="M933.042 1023.984H293.452c-11.782 0-21.312-9.562-21.312-21.308a21.3 21.3 0 0 1 21.312-21.312h639.59c11.812 0 21.376 9.532 21.376 21.312-0.002 11.746-9.564 21.308-21.376 21.308z" fill="#434A54" /></svg>