<?xml version="1.0" standalone="no"?><!DOCTYPE svg PUBLIC "-//W3C//DTD SVG 1.1//EN" "http://www.w3.org/Graphics/SVG/1.1/DTD/svg11.dtd"><svg class="icon" width="128px" height="128.00px" viewBox="0 0 1024 1024" version="1.1" xmlns="http://www.w3.org/2000/svg"><path d="M804.108 748.964L496.664 442.298l30.126-30.202 307.442 306.65z" fill="#434A54" /><path d="M569.24 340.802c-6.188-6.032-12.31-11.86-16.81-16l-2.562-2.406 17.186-45.062 0.376-42.67h-109.762l0.062 42.67 18.654 67.342a8.372 8.372 0 0 0 2.532 3.844l41.968 38.014c9.594 9.906 9.5 25.516 0 35.032-9.344 9.358-25.718 9.296-35.062 0.016l-48.592-35.5c-1.406-1.282-3.438-2.078-5.532-2.078a8.336 8.336 0 0 0-8.094 6.266 91.34 91.34 0 0 0-4.094 27.016c0 50.264 43.062 80.216 93.342 80.216 50.264 0 91.136-40.876 91.136-91.154 0-11.828-0.876-24.344-7.31-35.686-1.376-2.954-5.626-8.688-27.438-29.86z" fill="#FFCE54" /><path d="M567.428 234.664h-109.762l-52.344-170.652L448.01 0.014h127.98l42.686 63.998z" fill="#ED5564" /><path d="M225.296 734.684c-5.468 0-10.938-2.062-15.094-6.25-8.344-8.312-8.312-21.844 0-30.156l286.46-286.18c8.344-8.312 21.844-8.312 30.156 0.016 8.344 8.344 8.312 21.842 0 30.17L240.36 728.434a21.148 21.148 0 0 1-15.064 6.25z" fill="#656D78" /><path d="M21.334 682.652h981.332v85.34H21.334zM21.334 938.644h981.332v85.34H21.334z" fill="#F5F7FA" /><path d="M64.02 767.992h895.958v170.652H64.02z" fill="#E6E9ED" /><path d="M428.666 140.072L568.74 0.014h-60.358l-93.872 93.888zM449.884 209.336l159.416-159.386-24.122-36.202-149.45 149.418zM615.738 73.654l-158.76 158.776 0.688 2.234h57.404l74.796-74.794z" fill="#DA4453" /><path d="M831.982 687.996v21.312c0 11.812 9.562 21.344 21.312 21.344 11.812 0 21.376-9.532 21.376-21.344v-21.312c0-1.876-0.25-3.624-0.75-5.344h-41.25c-0.438 1.72-0.688 3.47-0.688 5.344zM917.292 687.996v21.312c0 11.812 9.562 21.344 21.374 21.344 11.75 0 21.312-9.532 21.312-21.344v-21.312c0-1.876-0.25-3.624-0.688-5.344H917.98c-0.438 1.72-0.688 3.47-0.688 5.344zM746.674 687.996v21.312c0 11.812 9.498 21.344 21.31 21.344s21.31-9.532 21.31-21.344v-21.312c0-1.876-0.25-3.624-0.688-5.344H747.36c-0.436 1.72-0.686 3.47-0.686 5.344zM661.3 687.996v21.312c0 11.812 9.562 21.344 21.376 21.344 11.75 0 21.312-9.532 21.312-21.344v-21.312c0-1.876-0.25-3.624-0.688-5.344h-41.25a18.886 18.886 0 0 0-0.75 5.344zM575.99 687.996v21.312c0 11.812 9.562 21.344 21.312 21.344 11.81 0 21.374-9.532 21.374-21.344v-21.312c0-1.876-0.25-3.624-0.75-5.344h-41.248c-0.438 1.72-0.688 3.47-0.688 5.344zM490.664 687.996v21.312a21.314 21.314 0 0 0 21.344 21.344c11.782 0 21.312-9.532 21.312-21.344v-21.312c0-1.876-0.25-3.624-0.688-5.344h-41.282c-0.436 1.72-0.686 3.47-0.686 5.344zM405.322 687.996v21.312c0 11.812 9.562 21.344 21.344 21.344s21.344-9.532 21.344-21.344v-21.312c0-1.876-0.282-3.624-0.718-5.344h-41.25c-0.438 1.72-0.72 3.47-0.72 5.344zM320.014 687.996v21.312c0 11.812 9.532 21.344 21.312 21.344 11.78 0 21.342-9.532 21.342-21.344v-21.312c0-1.876-0.25-3.624-0.688-5.344h-41.28c-0.436 1.72-0.686 3.47-0.686 5.344zM234.672 687.996v21.312c0 11.812 9.562 21.344 21.344 21.344s21.31-9.532 21.31-21.344v-21.312c0-1.876-0.25-3.624-0.688-5.344h-41.28c-0.436 1.72-0.686 3.47-0.686 5.344zM149.33 687.996v21.312c0 11.812 9.562 21.344 21.344 21.344s21.342-9.532 21.342-21.344v-21.312c0-1.876-0.282-3.624-0.718-5.344H150.048c-0.436 1.72-0.718 3.47-0.718 5.344zM64.02 687.996v21.312c0 11.812 9.532 21.344 21.312 21.344s21.344-9.532 21.344-21.344v-21.312c0-1.876-0.25-3.624-0.718-5.344H64.708c-0.438 1.72-0.688 3.47-0.688 5.344zM853.294 981.3c-11.75 0-21.312 9.562-21.312 21.344v21.34h42.688v-21.34c0-11.78-9.562-21.344-21.376-21.344zM938.666 981.3c-11.81 0-21.374 9.562-21.374 21.344v21.34h42.686v-21.34c0-11.78-9.562-21.344-21.312-21.344zM767.984 981.3c-11.812 0-21.31 9.562-21.31 21.344v21.34h42.622v-21.34c-0.002-11.78-9.5-21.344-21.312-21.344zM682.676 981.3c-11.812 0-21.376 9.562-21.376 21.344v21.34h42.688v-21.34c0-11.78-9.562-21.344-21.312-21.344zM597.302 981.3c-11.75 0-21.312 9.562-21.312 21.344v21.34h42.686v-21.34c0-11.78-9.562-21.344-21.374-21.344zM512.008 981.3c-11.812 0-21.344 9.562-21.344 21.344v21.34h42.656v-21.34c0-11.78-9.53-21.344-21.312-21.344zM426.666 981.3c-11.782 0-21.344 9.562-21.344 21.344v21.34h42.688v-21.34c0-11.78-9.562-21.344-21.344-21.344zM341.326 981.3c-11.782 0-21.312 9.562-21.312 21.344v21.34h42.654v-21.34c0-11.78-9.562-21.344-21.342-21.344zM256.016 981.3c-11.782 0-21.344 9.562-21.344 21.344v21.34h42.654v-21.34c0-11.78-9.53-21.344-21.31-21.344zM170.674 981.3c-11.782 0-21.344 9.562-21.344 21.344v21.34h42.686v-21.34c0-11.78-9.56-21.344-21.342-21.344zM85.332 981.3c-11.782 0-21.312 9.562-21.312 21.344v21.34h42.656v-21.34c0-11.78-9.562-21.344-21.344-21.344z" fill="#E6E9ED" /></svg>