<?xml version="1.0" standalone="no"?><!DOCTYPE svg PUBLIC "-//W3C//DTD SVG 1.1//EN" "http://www.w3.org/Graphics/SVG/1.1/DTD/svg11.dtd"><svg class="icon" width="128px" height="128.00px" viewBox="0 0 1024 1024" version="1.1" xmlns="http://www.w3.org/2000/svg"><path d="M668.56 144.476s-314.996-0.124-314.058 204.246c0.624 142.092 314.996 1.218 314.996 1.218l-0.938-205.464z" fill="#967ADC" /><path d="M703.996 239.536H320.004c-70.688 0-127.998 57.312-127.998 127.998 0 70.716 57.31 127.998 127.998 127.998h383.992c70.688 0 128-57.282 128-127.998 0-70.686-57.312-127.998-128-127.998z" fill="#AC92EB" /><path d="M85.32 367.534h853.328v259.998H85.32z" fill="#E6E9ED" /><path d="M917.304 388.878c0 11.78 9.562 21.342 21.344 21.342v-42.686c-11.78 0-21.344 9.562-21.344 21.344zM106.662 388.878c0-11.782-9.562-21.344-21.342-21.344v42.686c11.78 0 21.342-9.562 21.342-21.342zM106.662 431.532c0-11.78-9.562-21.312-21.342-21.312v42.656c11.78 0 21.342-9.562 21.342-21.344zM917.304 431.532c0 11.782 9.562 21.344 21.344 21.344V410.22c-11.78 0-21.344 9.532-21.344 21.312z" fill="#CCD1D9" /><path d="M1023.992 751.528c0 70.688-57.312 127.996-127.998 127.996H128.006c-70.686 0-127.998-57.308-127.998-127.996V452.876h1023.984v298.652z" fill="#4FC2E9" /><path d="M170.662 751.528c-0.094 0-0.188 0.032-0.282 0.032v-0.032c-23.406-0.156-42.376-19.218-42.376-42.656v-149.34c0-11.782-9.562-21.312-21.344-21.312s-21.342 9.532-21.342 21.312v149.34c0 47.032 38.06 85.156 85.06 85.312 0.094 0 0.188 0.032 0.282 0.032 11.782 0 21.344-9.562 21.344-21.344s-9.56-21.344-21.342-21.344z" fill="#3BAFDA" /></svg>