<?xml version="1.0" standalone="no"?><!DOCTYPE svg PUBLIC "-//W3C//DTD SVG 1.1//EN" "http://www.w3.org/Graphics/SVG/1.1/DTD/svg11.dtd"><svg class="icon" width="128px" height="128.00px" viewBox="0 0 1024 1024" version="1.1" xmlns="http://www.w3.org/2000/svg"><path d="M1023.882 746.632c0 47.114-38.178 85.292-85.292 85.292H85.426c-47.114 0-85.308-38.18-85.308-85.292V277.398c0-47.114 38.196-85.324 85.308-85.324h853.164c47.116 0 85.292 38.21 85.292 85.324v469.234z" fill="#E6E9ED" /><path d="M0.118 320.044h1023.766v127.97H0.118z" fill="#5D9CEC" /><path d="M298.72 703.958H106.766c-11.78 0-21.34 9.558-21.34 21.336 0 11.782 9.56 21.34 21.34 21.34h191.956c11.78 0 21.324-9.558 21.324-21.34-0.002-11.778-9.546-21.336-21.326-21.336zM917.22 618.664h-127.97c-11.746 0-21.308 9.528-21.308 21.308 0 11.808 9.562 21.336 21.308 21.336h127.97c11.81 0 21.37-9.528 21.37-21.336 0-11.78-9.558-21.308-21.37-21.308zM490.678 618.664H106.766c-11.78 0-21.34 9.528-21.34 21.308 0 11.808 9.56 21.336 21.34 21.336h383.912A21.312 21.312 0 0 0 512 639.972c0-11.78-9.544-21.308-21.322-21.308z" fill="#434A54" /></svg>