<?xml version="1.0" standalone="no"?><!DOCTYPE svg PUBLIC "-//W3C//DTD SVG 1.1//EN" "http://www.w3.org/Graphics/SVG/1.1/DTD/svg11.dtd"><svg class="icon" width="128px" height="128.00px" viewBox="0 0 1024 1024" version="1.1" xmlns="http://www.w3.org/2000/svg"><path d="M959.992 746.652H64.008c-11.782 0-21.328 9.532-21.328 21.344v64c0 11.75 9.546 21.312 21.328 21.312h895.984c11.782 0 21.312-9.562 21.312-21.312v-64c0-11.812-9.53-21.344-21.312-21.344z" fill="#E6E9ED" /><path d="M192.006 874.652c-11.782 0-21.326-9.562-21.326-21.344V469.314c0-11.782 9.544-21.312 21.326-21.312s21.328 9.532 21.328 21.312v383.996c0 11.78-9.546 21.342-21.328 21.342zM320.004 874.652c-11.782 0-21.328-9.562-21.328-21.344V469.314c0-11.782 9.546-21.312 21.328-21.312s21.328 9.532 21.328 21.312v383.996c0 11.78-9.546 21.342-21.328 21.342zM448.002 874.652c-11.782 0-21.328-9.562-21.328-21.344V469.314c0-11.782 9.546-21.312 21.328-21.312s21.328 9.532 21.328 21.312v383.996c0 11.78-9.546 21.342-21.328 21.342zM576 874.652c-11.782 0-21.312-9.562-21.312-21.344V469.314c0-11.782 9.532-21.312 21.312-21.312s21.312 9.532 21.312 21.312v383.996c0 11.78-9.53 21.342-21.312 21.342zM703.998 874.652c-11.782 0-21.312-9.562-21.312-21.344V469.314c0-11.782 9.532-21.312 21.312-21.312s21.31 9.532 21.31 21.312v383.996c0 11.78-9.528 21.342-21.31 21.342zM831.994 874.652c-11.782 0-21.312-9.562-21.312-21.344V469.314c0-11.782 9.532-21.312 21.312-21.312s21.312 9.532 21.312 21.312v383.996c0 11.78-9.53 21.342-21.312 21.342z" fill="#EAAD7A" /><path d="M959.992 938.648H64.008c-11.782 0-21.328-9.562-21.328-21.344v-42.652c0-11.782 9.546-21.344 21.328-21.344h895.984c11.782 0 21.312 9.562 21.312 21.344v42.652c0 11.782-9.53 21.344-21.312 21.344zM959.992 426.658H64.008c-11.782 0-21.328 9.532-21.328 21.344 0 11.75 9.546 21.312 21.328 21.312h895.984c11.782 0 21.312-9.562 21.312-21.312 0-11.814-9.53-21.344-21.312-21.344z" fill="#F4BE8E" /><path d="M64.008 1023.992c-11.782 0-21.328-9.562-21.328-21.344V362.66c0-11.782 9.546-21.344 21.328-21.344s21.328 9.562 21.328 21.344v639.988c0 11.782-9.546 21.344-21.328 21.344zM959.992 1023.992c-11.782 0-21.31-9.562-21.31-21.344V362.66c0-11.782 9.53-21.344 21.31-21.344s21.312 9.562 21.312 21.344v639.988c0 11.782-9.53 21.344-21.312 21.344zM512 170.664c-11.782 0-21.326-9.562-21.326-21.344V21.322C490.674 9.54 500.218 0.01 512 0.01s21.328 9.532 21.328 21.312V149.32c0 11.78-9.546 21.344-21.328 21.344zM362.676 256.004c-11.782 0-21.344-9.562-21.344-21.344V149.32c0-11.782 9.562-21.312 21.344-21.312s21.328 9.532 21.328 21.312v85.342c0 11.78-9.546 21.342-21.328 21.342zM661.31 256.004c-11.75 0-21.31-9.562-21.31-21.344V149.32c0-11.782 9.56-21.312 21.31-21.312 11.812 0 21.376 9.532 21.376 21.312v85.342c0 11.78-9.562 21.342-21.376 21.342z" fill="#FFD2A6" /><path d="M512 298.66c-11.782 0-21.326-9.562-21.326-21.344V149.32c0-11.782 9.544-21.312 21.326-21.312s21.328 9.532 21.328 21.312v127.998c0 11.78-9.546 21.342-21.328 21.342z" fill="#FFD2A6" /><path d="M512 256.004c-35.294 0-63.998 28.686-63.998 64 0 35.282 28.704 64 63.998 64 35.312 0 64-28.718 64-64 0-35.312-28.688-64-64-64z" fill="#A0D468" /><path d="M661.31 213.318c-35.248 0-63.998 28.718-63.998 63.998 0 35.282 28.75 64 63.998 64 35.312 0 63.998-28.718 63.998-64 0-35.28-28.684-63.998-63.998-63.998z" fill="#ED5564" /><path d="M362.676 213.318c-35.296 0-64 28.718-64 63.998 0 35.282 28.704 64 64 64 35.28 0 63.998-28.718 63.998-64 0-35.28-28.718-63.998-63.998-63.998z" fill="#AC92EB" /><path d="M64.008 256.004c-35.294 0-63.998 28.686-63.998 64 0 35.282 28.704 64 63.998 64 35.296 0 64-28.718 64-64 0-35.312-28.704-64-64-64zM959.992 256.004c-35.31 0-63.998 28.686-63.998 64 0 35.282 28.688 64 63.998 64 35.312 0 63.998-28.718 63.998-64 0-35.312-28.686-64-63.998-64z" fill="#FFCE54" /><path d="M703.998 170.664H320.004c-11.782 0-21.328-9.562-21.328-21.344s9.546-21.312 21.328-21.312h383.994c11.782 0 21.31 9.532 21.31 21.312s-9.528 21.344-21.31 21.344z" fill="#A85D5D" /></svg>