<?xml version="1.0" standalone="no"?><!DOCTYPE svg PUBLIC "-//W3C//DTD SVG 1.1//EN" "http://www.w3.org/Graphics/SVG/1.1/DTD/svg11.dtd"><svg class="icon" width="128px" height="128.00px" viewBox="0 0 1024 1024" version="1.1" xmlns="http://www.w3.org/2000/svg"><path d="M2.894 291.928L66.862 181.12a21.386 21.386 0 0 1 12.968-9.938 21.312 21.312 0 0 1 16.156 2.124l917.338 529.62c10.188 5.906 13.688 18.938 7.782 29.156l-63.966 110.806a21.416 21.416 0 0 1-12.938 9.938c-1.844 0.5-3.688 0.718-5.532 0.718-3.718 0-7.404-0.968-10.654-2.844L10.676 321.082c-10.188-5.906-13.688-18.936-7.782-29.154z" fill="#F6BB42" /><path d="M702.432 523.418l147.74 85.324 62.468 233.084-147.776-85.308zM617.122 671.208l-147.778-85.31L406.91 352.8l147.744 85.308zM321.6 500.576l-147.774-85.31L111.39 182.182l147.744 85.308z" fill="#434A54" /><path d="M1021.106 291.928L957.138 181.12a21.416 21.416 0 0 0-12.938-9.938 21.37 21.37 0 0 0-16.186 2.124L10.676 702.926c-10.188 5.906-13.688 18.938-7.782 29.156l63.966 110.806a21.386 21.386 0 0 0 12.968 9.938c1.812 0.5 3.656 0.718 5.5 0.718 3.718 0 7.406-0.968 10.656-2.844l917.338-529.62c10.19-5.904 13.69-18.934 7.784-29.152z" fill="#FFCE54" /><path d="M321.6 523.418l-147.774 85.324-62.436 233.084 147.744-85.308zM406.91 671.208l147.744-85.31L617.122 352.8l-147.778 85.308zM702.432 500.576l147.74-85.31 62.438-233.084-147.746 85.308z" fill="#656D78" /><path d="M512 298.74c-117.59 0-213.274 95.652-213.274 213.272 0 117.604 95.684 213.288 213.274 213.288 117.588 0 213.274-95.684 213.274-213.288 0-117.62-95.686-213.272-213.274-213.272z" fill="#ED5564" /><path d="M512 554.682c-11.782 0-21.312-9.562-21.312-21.358v-106.622c0-11.78 9.532-21.342 21.312-21.342 11.78 0 21.342 9.562 21.342 21.342v106.622c0 11.796-9.562 21.358-21.342 21.358z" fill="#FFCE54" /><path d="M533.342 597.336c0 11.75-9.562 21.312-21.342 21.312-11.782 0-21.312-9.562-21.312-21.312 0-11.78 9.532-21.342 21.312-21.342 11.78 0 21.342 9.562 21.342 21.342z" fill="#FFCE54" /></svg>