<?xml version="1.0" standalone="no"?><!DOCTYPE svg PUBLIC "-//W3C//DTD SVG 1.1//EN" "http://www.w3.org/Graphics/SVG/1.1/DTD/svg11.dtd"><svg class="icon" width="128px" height="128.00px" viewBox="0 0 1024 1024" version="1.1" xmlns="http://www.w3.org/2000/svg"><path d="M491.564 267.598C-83.106 280.942-12.358 823.236 23.266 858.862c35.124 35.092 163.402-164.964 468.298-164.964 304.898 0 482.018 200.056 517.11 164.964 35.624-35.626 57.532-577.92-517.11-591.264z" fill="#EAAD7A" /><path d="M491.564 225.35c-341.052 0-447.642 212.556-447.642 255.398 0 42.842 127.902 298.396 170.526 298.396 42.624 0 186.12-42.624 277.086-42.624s234.46 42.624 277.086 42.624 213.148-255.774 213.148-298.396c0-42.624-149.182-255.398-490.204-255.398z" fill="#F4BE8E" /><path d="M598.092 779.144H384.942c-42.624 0-255.742-468.922-213.118-511.546 42.624-42.624 136.37-106.59 319.708-106.59 183.34 0 277.148 63.966 319.774 106.59 42.59 42.592-170.558 511.546-213.214 511.546z" fill="#FFD2A6" /><path d="M719.746 296.004c-0.406-0.438-0.844-0.812-1.282-1.188-0.094-0.094-0.188-0.156-0.312-0.25 0-0.032-0.032-0.032-0.062-0.062-7.406-6.124-63.624-47.374-226.526-47.374-162.964 0-219.212 41.28-226.618 47.374 0 0.032-0.032 0.032-0.062 0.062-0.094 0.094-0.188 0.156-0.282 0.25-0.438 0.376-0.876 0.75-1.282 1.188-8.344 8.312-8.344 21.81 0 30.124 7.906 7.906 20.468 8.282 28.842 1.188l-0.282 0.25c0.124-0.094 12.218-9.5 42.656-18.812 51.216-15.718 113.652-19 157.026-19 43.344 0 105.778 3.282 156.996 19 30.376 9.312 42.498 18.718 42.624 18.812l-0.312-0.25h0.032c8.376 7.094 20.938 6.718 28.844-1.188 8.31-8.314 8.31-21.812 0-30.124z" fill="#F4BE8E" /></svg>