<?xml version="1.0" standalone="no"?><!DOCTYPE svg PUBLIC "-//W3C//DTD SVG 1.1//EN" "http://www.w3.org/Graphics/SVG/1.1/DTD/svg11.dtd"><svg class="icon" width="128px" height="128.00px" viewBox="0 0 1024 1024" version="1.1" xmlns="http://www.w3.org/2000/svg"><path d="M1017.218 215.88c1.344-3.124 32.094-77.464-49.778-159.334S811.23 5.438 808.106 6.782a21.272 21.272 0 0 0-6.624 4.5L243.184 569.596a21.306 21.306 0 0 0-4.516 23.5c0.344 0.812 34.482 80.806 33.576 134.992a21.372 21.372 0 0 0 6 15.188c0.078 0.062 0.156 0.156 0.25 0.25 3.906 3.906 9.204 6.124 14.734 6.25 56.34 0.874 136.868 35.184 137.666 35.558a21.336 21.336 0 0 0 23.514-4.532L1012.72 222.506a21.068 21.068 0 0 0 4.498-6.626z" fill="#FFD2A6" /><path d="M363.88 720.462l-60.34-60.372a21.388 21.388 0 0 0-15.092-6.25 21.36 21.36 0 0 0-15.094 6.25L6.274 927.202a21.306 21.306 0 0 0 0 30.156l60.356 60.34a21.252 21.252 0 0 0 30.17 0l267.08-267.048c8.344-8.344 8.344-21.874 0-30.188z" fill="#A85D5D" /><path d="M514.808 509.194a21.334 21.334 0 0 1 0-30.186l422.48-422.462c8.31-8.328 21.842-8.328 30.154 0 8.344 8.328 8.344 21.842 0 30.17L544.996 509.194c-8.344 8.328-21.86 8.328-30.188 0z" fill="#ED5564" /><path d="M367.614 745.588l69.356-129.682a21.326 21.326 0 0 0-3.734-25.154 21.3 21.3 0 0 0-25.14-3.718l-129.712 69.34 89.23 89.214z" fill="#A85D5D" /><path d="M37.288 896.206h181.052l42.67-42.688H79.958zM122.72 810.74c0.578 0.032 1.14 0.094 1.734 0.094h179.226l42.684-42.686H165.312L122.72 810.74z" fill="#7F4545" /><path d="M939.13 810.834c0-34.188-13.312-66.372-37.498-90.528-49.904-49.902-131.148-49.902-181.054 0-24.184 24.156-37.496 56.34-37.496 90.528 0 34.184 13.312 66.34 37.496 90.526 49.906 49.904 131.15 49.904 181.054 0 24.186-24.186 37.498-56.342 37.498-90.526z" fill="#ED5564" /><path d="M856.384 765.586c-8.344-8.376-8.344-21.874 0-30.186l15.06-15.094c8.344-8.344 21.844-8.344 30.188 0s8.344 21.844 0 30.156l-15.094 15.124c-8.312 8.31-21.84 8.31-30.154 0zM783.952 837.988c-8.344-8.344-8.344-21.842 0-30.154l24.124-24.156c8.344-8.344 21.844-8.344 30.188 0s8.344 21.844 0 30.156l-24.124 24.154c-8.348 8.342-21.848 8.342-30.188 0zM720.578 901.36a21.334 21.334 0 0 1 0-30.186l15.094-15.094c8.312-8.312 21.844-8.312 30.188 0 8.31 8.344 8.31 21.876 0 30.188l-15.094 15.092a21.332 21.332 0 0 1-30.188 0z" fill="#E6E9ED" /></svg>