<?xml version="1.0" standalone="no"?><!DOCTYPE svg PUBLIC "-//W3C//DTD SVG 1.1//EN" "http://www.w3.org/Graphics/SVG/1.1/DTD/svg11.dtd"><svg class="icon" width="128px" height="128.00px" viewBox="0 0 1024 1024" version="1.1" xmlns="http://www.w3.org/2000/svg"><path d="M554.68 277.348h-85.326c-11.782 0-21.344 9.532-21.344 21.312v554.68c0 0.594 0.032 1.218 0.062 1.844 0.124 1.344 2.968 33.656 9.876 66.53 7.906 37.686 21.186 80.966 54.062 80.966 32.858 0 46.17-43.282 54.044-80.966 6.938-32.874 9.75-65.186 9.876-66.53 0.062-0.624 0.062-1.25 0.062-1.844V298.662c0-11.782-9.562-21.314-21.312-21.314z" fill="#F4BE8E" /><path d="M512.01 991.992c-19.406 0-33.25-23.032-43.624-72.466-6.75-32.154-9.562-63.936-9.688-65.28 0-0.282-0.032-0.594-0.032-0.906V298.662c0-5.876 4.782-10.656 10.688-10.656h85.326c5.876 0 10.688 4.782 10.688 10.656V853.34c0 0.312-0.062 0.624-0.062 0.938-0.124 1.312-2.938 33.094-9.688 65.248-10.376 49.434-24.236 72.466-43.608 72.466z" fill="#F4BE8E" /><path d="M614.992 180.664a21.238 21.238 0 0 0-17.624-9.406h-170.7a21.256 21.256 0 0 0-17.656 9.406 21.294 21.294 0 0 0-2.124 19.906l41.124 106.06h127.982l41.124-106.06a21.126 21.126 0 0 0-2.126-19.906z" fill="#FFD2A6" /><path d="M554.68 149.32h-85.326c-11.782 0-21.344-9.532-21.344-21.312v-64c0-8.094 4.562-15.468 11.782-19.094l42.686-21.344c6-3 13.06-3 19.06 0l42.704 21.344a21.38 21.38 0 0 1 11.75 19.094v63.998c0 11.782-9.562 21.314-21.312 21.314z" fill="#7F4545" /><path d="M682.678 874.684c-11.812 0-21.312-9.562-21.312-21.344V640c0-11.782 9.5-21.344 21.312-21.344 11.748 0 21.31 9.562 21.31 21.344v213.34c0 11.782-9.562 21.344-21.31 21.344zM767.988 874.684c-11.75 0-21.312-9.562-21.312-21.344V640c0-11.782 9.562-21.344 21.312-21.344 11.812 0 21.376 9.562 21.376 21.344v213.34c0 11.782-9.564 21.344-21.376 21.344zM853.364 874.684c-11.812 0-21.376-9.562-21.376-21.344V640c0-11.782 9.562-21.344 21.376-21.344 11.748 0 21.31 9.562 21.31 21.344v213.34c0 11.782-9.562 21.344-21.31 21.344zM170.672 874.684c-11.782 0-21.344-9.562-21.344-21.344V640c0-11.782 9.562-21.344 21.344-21.344S192.016 628.218 192.016 640v213.34c0 11.782-9.562 21.344-21.344 21.344zM256.014 874.684c-11.78 0-21.342-9.562-21.342-21.344V640c0-11.782 9.562-21.344 21.342-21.344 11.782 0 21.312 9.562 21.312 21.344v213.34c0 11.782-9.532 21.344-21.312 21.344zM341.326 874.684c-11.75 0-21.312-9.562-21.312-21.344V640c0-11.782 9.562-21.344 21.312-21.344 11.812 0 21.342 9.562 21.342 21.344v213.34c0 11.782-9.53 21.344-21.342 21.344z" fill="#ED5564" /><path d="M512.01 618.656c-3.312 0-6.624-0.75-9.656-2.282l-420.96-213.34c-10.5-5.344-14.718-18.156-9.376-28.688 5.312-10.5 18.156-14.688 28.656-9.376l411.336 208.434L923.36 364.972c10.5-5.312 23.312-1.124 28.624 9.376 5.376 10.532 1.124 23.344-9.376 28.688l-420.946 213.34a21.396 21.396 0 0 1-9.652 2.28z" fill="#E6E9ED" /><path d="M533.352 554.656c0 11.782-9.562 21.344-21.342 21.344-11.782 0-21.344-9.562-21.344-21.344s9.562-21.312 21.344-21.312c11.78 0 21.342 9.532 21.342 21.312z" fill="#434A54" /><path d="M1004.796 332.378c-2.688-2.25-67-55.748-148.558-110.092-115.062-76.716-205.748-115.622-269.558-115.622h-149.326c-63.812 0-154.528 38.906-269.588 115.622-81.53 54.344-145.872 107.842-148.56 110.06-10.938 9.124-17.688 21.968-18.968 36.156-1.312 14.188 3 28.032 12.124 38.968 10.156 12.218 25.124 19.186 41 19.186a53.404 53.404 0 0 0 34.124-12.344c0.624-0.532 63.062-52.342 139.436-103.28 132.28-88.186 191.214-97.716 210.434-97.716h149.326c19.188 0 77.998 9.5 209.934 97.404 76.624 51.062 139.308 103.06 139.934 103.592a53.408 53.408 0 0 0 34.124 12.344c15.876 0 30.812-7 41-19.186 18.81-22.592 15.748-56.28-6.878-75.092z" fill="#965353" /><path d="M19.206 353.69c2.688-2.25 67.03-55.716 148.56-110.06 115.06-76.716 205.778-115.624 269.588-115.624h149.326c63.81 0 154.496 38.906 269.558 115.624 81.558 54.344 145.872 107.81 148.558 110.06a53.02 53.02 0 0 1 18.124 30.376c3.75-18.624-2.5-38.718-18.124-51.688-2.688-2.25-67-55.748-148.558-110.092-115.062-76.716-205.748-115.622-269.558-115.622h-149.326c-63.812 0-154.528 38.906-269.588 115.622-81.53 54.344-145.872 107.842-148.56 110.06-10.938 9.124-17.688 21.968-18.968 36.156-0.5 5.282-0.188 10.5 0.844 15.562 2.374-11.874 8.686-22.498 18.124-30.374z" fill="#FFFFFF" opacity=".1" /></svg>