<?xml version="1.0" standalone="no"?><!DOCTYPE svg PUBLIC "-//W3C//DTD SVG 1.1//EN" "http://www.w3.org/Graphics/SVG/1.1/DTD/svg11.dtd"><svg class="icon" width="128px" height="128.00px" viewBox="0 0 1024 1024" version="1.1" xmlns="http://www.w3.org/2000/svg"><path d="M407.996 1002.67l42.67-362.674h-37.108l-221.542 19.374v-166.698l256.632 23.016-23.594-36.686c-52.964-82.358-106.59-200.056-106.59-265.664 0-105.856 86.138-191.994 191.994-191.994s191.976 86.138 191.976 191.994c0 65.904-52.684 183.604-104.712 265.802l-23.094 36.5 257.366-22.984v166.712l-221.554-19.374h-37.092l42.654 362.674H407.996zM510.46 149.34c-47.044 0-85.324 38.282-85.324 85.342 0 20.326 12.67 56.858 33.06 95.308 14.782 27.844 27.86 46.154 36.232 56.624l16.796 20.954 16.624-21.094c8.234-10.454 21.094-28.732 35.532-56.498 19.998-38.374 32.436-74.888 32.436-95.292 0-47.062-38.31-85.344-85.356-85.344z" fill="#FECD57" /><path d="M582.316 339.834c21.814-41.858 34.812-81.17 34.812-105.152 0-58.826-47.842-106.67-106.668-106.67-58.81 0-106.652 47.844-106.652 106.67 0 23.966 13.282 63.324 35.544 105.292 15.546 29.326 29.484 48.794 38.438 59.966l33.576 41.936 33.234-42.202c8.782-11.17 22.468-30.624 37.716-59.84z m-71.23 33.438c-8.906-11.126-21.062-28.812-34.044-53.282-21.126-39.826-30.578-71.544-30.578-85.308 0-35.296 28.718-63.998 63.998-63.998 35.294 0 63.982 28.702 63.982 63.998 0 13.86-9.25 45.654-29.968 85.45-12.702 24.374-24.624 42.014-33.39 53.14z" fill="#F5BA45" /><path d="M853.308 682.68V469.33l-237.554 21.216c55.436-87.558 108.06-207.976 108.06-277.208 0-117.808-95.532-213.32-213.354-213.32-117.808 0-213.32 95.512-213.32 213.32 0 69.216 53.654 189.634 109.964 277.208L170.692 469.33V682.68l243.79-21.372h12.202l-42.67 362.674h255.992l-42.688-362.674h12.218l243.772 21.372z m-303.926-63.996l5.56 47.626 37.06 314.988h-160.01l37.062-314.988 5.594-47.626h-62.03l-1.86 0.126-197.416 17.312V516l189.948 17.046 86.888 7.782-47.188-73.358c-58.826-91.482-103.184-200.728-103.184-254.132 0-45.576 17.75-88.434 49.982-120.668 32.234-32.234 75.092-49.982 120.668-49.982 45.608 0 88.452 17.748 120.666 49.982 32.25 32.234 50 75.092 50 120.668 0 53.702-43.624 163.074-101.434 254.398l-46.204 72.996 86.074-7.686 191.122-17.062v120.136l-197.432-17.312-1.876-0.126H549.382z" fill="#F5BA45" /></svg>