<?xml version="1.0" standalone="no"?><!DOCTYPE svg PUBLIC "-//W3C//DTD SVG 1.1//EN" "http://www.w3.org/Graphics/SVG/1.1/DTD/svg11.dtd"><svg class="icon" width="128px" height="128.00px" viewBox="0 0 1024 1024" version="1.1" xmlns="http://www.w3.org/2000/svg"><path d="M897.48 772.746l-3.624-1.062c-53-14.188-70.876-27.876-94.434-36.812-83.624-31.876-126.684-54.81-132.246-65.686a9.398 9.398 0 0 1-0.5-1.188l-0.688-97.122-176.916-2.25-176.932 2.25-0.688 97.122c-0.188 0.376-0.344 0.812-0.562 1.188-5.562 10.876-48.624 33.81-132.246 65.686-23.562 8.938-41.436 22.624-94.372 36.812l-3.624 1.062C32.462 788.682 0.026 833.368 0.026 883.804v140.182H978.04v-140.182c0-50.436-32.376-95.122-80.56-111.058z" fill="#E6E9ED" /><path d="M764.11 383.008c0 178.744-170.372 343.238-275.038 343.238-104.748 0-275.116-164.494-275.116-343.238S337.138 86.33 489.072 86.33c151.916 0 275.038 117.934 275.038 296.678z" fill="#EAC6BB" /><path d="M659.238 56.83c-46.812-42.374-209.292-103.246-360.036 0-118.87 81.436-106.87 286.742-106.87 286.742s155.996 39.436 334.614-62.624c115.48-65.998 155.726 1.124 176.414 59.56 20.188 56.874 60.75 42.5 60.75 42.5s44.808-190.62-104.872-326.178z" fill="#965353" /><path d="M607.55 253.7c16.376-0.5 30.062 3.062 41.624 9.5 22.188-80.498 65.934-102.184 84.996-107.872-6.25-12.5-13.438-25.062-21.812-37.436-31.182 12.248-80.494 45.622-104.808 135.808z" fill="#7F4242" /><path d="M512.008 875.118c0 11.812-9.562 21.376-21.342 21.376-11.782 0-21.342-9.562-21.342-21.376 0-11.75 9.562-21.312 21.342-21.312 11.78-0.002 21.342 9.562 21.342 21.312zM512.008 959.988c0 11.812-9.562 21.376-21.342 21.376-11.782 0-21.342-9.562-21.342-21.376 0-11.75 9.562-21.312 21.342-21.312s21.342 9.562 21.342 21.312zM293.578 683.436c-20.436 12.438-58.374 29.874-114.934 51.436a8.046 8.046 0 0 0-1.124 0.438c-4.812 49.248-13.53 169.182 0.406 288.678h199.4c-47.186-194.932-43.624-350.676-43.624-350.676l-40.124 10.124zM684.422 683.436c20.376 12.438 58.376 29.874 114.876 51.436 0.376 0.124 0.75 0.25 1.188 0.438 4.746 49.248 13.496 169.182-0.438 288.678h-199.434c47.25-194.932 43.624-350.676 43.624-350.676l40.184 10.124z" fill="#434A54" /><path d="M671.238 635.876c-37.312-6.062-182.198 59.998-182.198 59.998s-136.652-74.936-182.182-59.936c-45.53 14.938-37.28 203.742 0 209.804s182.182-59.936 182.182-59.936 136.636 74.936 182.198 59.936c45.558-15 37.246-203.804 0-209.866z" fill="#DA4453" /><path d="M555.992 726.622c0 38.5-29.984 83.934-66.952 83.934s-66.936-45.434-66.936-83.934c0-38.498 29.968-55.56 66.936-55.56s66.952 17.062 66.952 55.56z" fill="#ED5564" /><path d="M764.11 383.008c0 178.744-170.372 343.238-275.038 343.238-104.748 0-275.116-164.494-275.116-343.238S337.138 86.33 489.072 86.33c151.916 0 275.038 117.934 275.038 296.678z" fill="#EAC6BB" /><path d="M659.238 56.83c-46.812-42.374-209.292-103.246-360.036 0-118.87 81.436-106.87 286.742-106.87 286.742s155.996 39.436 334.614-62.624c115.48-65.998 155.726 1.124 176.414 59.56 20.188 56.874 60.75 42.5 60.75 42.5s44.808-190.62-104.872-326.178z" fill="#965353" /><path d="M607.55 253.7c16.376-0.5 30.062 3.062 41.624 9.5 22.188-80.498 65.934-102.184 84.996-107.872-6.25-12.5-13.438-25.062-21.812-37.436-31.182 12.248-80.494 45.622-104.808 135.808z" fill="#7F4242" /><path d="M853.292 895.992h170.684v63.996h-170.684z" fill="#5D9CEC" /><path d="M853.292 831.992h170.684v64h-170.684z" fill="#FFCE54" /><path d="M853.292 768.464h170.684v63.996h-170.684z" fill="#5D9CEC" /><path d="M853.292 704.464h170.684v64h-170.684z" fill="#A0D468" /><path d="M853.292 640.468h170.684v63.996h-170.684z" fill="#AC92EB" /><path d="M661.3 895.992h170.68v63.996h-170.68z" fill="#A0D468" /><path d="M661.3 831.992h170.68v64h-170.68z" fill="#ED5564" /><path d="M661.3 768.464h170.68v63.996h-170.68z" fill="#AC92EB" /><path d="M853.292 959.988h170.684v63.998h-170.684z" fill="#ED5564" /><path d="M661.3 959.988h170.68v63.998h-170.68z" fill="#48CFAD" /></svg>