<?xml version="1.0" standalone="no"?><!DOCTYPE svg PUBLIC "-//W3C//DTD SVG 1.1//EN" "http://www.w3.org/Graphics/SVG/1.1/DTD/svg11.dtd"><svg class="icon" width="128px" height="128.00px" viewBox="0 0 1024 1024" version="1.1" xmlns="http://www.w3.org/2000/svg"><path d="M722.558 466.06l-30.186 30.186-164.636-164.636 30.186-30.186zM51.518 1002.628l-30.154-30.124L366.76 627.074l30.156 30.188z" fill="#CCD1D9" /><path d="M770.158 57.776L347.792 480.14l5.844 190.246 190.246 5.812 422.366-422.366-196.09-196.056z m-243.4 575.236l-131.716-4.062-4.062-131.684L770.158 118.088l135.746 135.746-379.146 379.178z" fill="#E6E9ED" /><path d="M981.342 299.082c-16.656 16.688-43.688 16.688-60.344 0l-196.09-196.056c-16.686-16.688-16.686-43.688 0-60.376l30.156-30.124c16.656-16.688 43.688-16.688 60.344 0l196.088 196.056c16.656 16.69 16.656 43.688 0 60.376l-30.154 30.124z" fill="#FC6E51" /><path d="M1011.496 208.584L815.408 12.528c-16.656-16.688-43.688-16.688-60.344 0l-30.156 30.124c-0.032 0-0.032 0.062-0.032 0.062l8.844-8.874c16.688-16.688 43.688-16.688 60.344 0l196.12 196.122c16.656 16.624 16.656 43.624 0 60.308l-8.874 8.876s0.032 0 0.032-0.062l30.154-30.124c16.656-16.688 16.656-43.686 0-60.376z" opacity=".1" /><path d="M96.768 987.566l-60.31-60.312a21.274 21.274 0 0 0-30.188 0c-8.342 8.312-8.342 21.812 0 30.124l60.342 60.376c8.344 8.312 21.842 8.312 30.156 0 8.344-8.376 8.344-21.876 0-30.188z" fill="#434A54" /></svg>