<?xml version="1.0" standalone="no"?><!DOCTYPE svg PUBLIC "-//W3C//DTD SVG 1.1//EN" "http://www.w3.org/Graphics/SVG/1.1/DTD/svg11.dtd"><svg class="icon" width="128px" height="128.00px" viewBox="0 0 1024 1024" version="1.1" xmlns="http://www.w3.org/2000/svg"><path d="M861.992 686.692c-1.188-6.624-5.438-12.376-11.498-15.376l-172.686-85.81c-10-4.938-22.124-1.376-27.81 8.188l-194.292 326.118a21.314 21.314 0 0 0 5.422 27.876l80.67 61.31a21.482 21.482 0 0 0 12.888 4.312c5.688 0 11.312-2.25 15.5-6.624l286.244-301.556a21.32 21.32 0 0 0 5.562-18.438z" fill="#D770AD" /><path d="M754.65 647.504l-4.282-25.938-72.56-36.06c-10-4.938-22.124-1.376-27.81 8.188l-194.292 326.118a21.314 21.314 0 0 0 5.422 27.876l50.952 38.75L564.688 920l189.962-272.496z" opacity=".1" /><path d="M840.994 711.752c-3.25 0-6.5-0.75-9.5-2.25l-172.684-85.81a21.176 21.176 0 0 1-11.812-19.812 21.41 21.41 0 0 1 13.188-18.998l93.122-38.25c2.968-1.188 6.124-1.75 9.312-1.562l63.938 3.624c10.25 0.562 18.624 8.376 19.968 18.5l15.592 120.498a21.3 21.3 0 0 1-8.75 20.124 21.32 21.32 0 0 1-12.374 3.936z" fill="#EC87C0" /><path d="M831.494 709.502a21.308 21.308 0 0 0 21.874-1.688 21.296 21.296 0 0 0 8.75-20.124l-15.592-120.498c-0.282-2.188-0.968-4.312-1.876-6.312l-102.344 104.31 89.188 44.312z" fill="#FFFFFF" opacity=".1" /><path d="M119.4 686.692a21.352 21.352 0 0 1 11.516-15.376l172.652-85.81c10-4.938 22.124-1.376 27.828 8.188l194.278 326.118a21.314 21.314 0 0 1-5.422 27.876l-80.67 61.31a21.484 21.484 0 0 1-12.89 4.312 21.362 21.362 0 0 1-15.484-6.624L124.932 705.126a21.384 21.384 0 0 1-5.532-18.434z" fill="#D770AD" /><path d="M226.742 647.504l4.266-25.938 72.56-36.06c10-4.938 22.124-1.376 27.828 8.188l194.278 326.118a21.314 21.314 0 0 1-5.422 27.876l-50.952 38.75L416.676 920l-189.934-272.496z" opacity=".1" /><path d="M128.026 707.814a21.324 21.324 0 0 1-8.782-20.124l15.624-120.498c1.312-10.124 9.704-17.938 19.954-18.5l63.92-3.624c3.188-0.188 6.36 0.376 9.312 1.562l93.124 38.25a21.392 21.392 0 0 1 13.218 18.998 21.214 21.214 0 0 1-11.828 19.812L149.9 709.502c-3 1.5-6.25 2.25-9.5 2.25a21.24 21.24 0 0 1-12.374-3.938z" fill="#EC87C0" /><path d="M149.9 709.502c-3 1.5-6.25 2.25-9.5 2.25a21.24 21.24 0 0 1-12.374-3.938 21.324 21.324 0 0 1-8.782-20.124l15.624-120.498c0.282-2.188 0.938-4.312 1.86-6.312l102.342 104.31-89.17 44.312z" fill="#FFFFFF" opacity=".1" /><path d="M1023.988 74.69c0 11.782-9.562 21.344-21.31 21.344-11.812 0-21.376-9.562-21.376-21.344s9.562-21.344 21.376-21.344c11.748 0 21.31 9.562 21.31 21.344z" fill="#FFCE54" /><path d="M938.68 842.688c0 11.75-9.562 21.312-21.376 21.312-11.75 0-21.312-9.562-21.312-21.312 0-11.81 9.562-21.376 21.312-21.376a21.366 21.366 0 0 1 21.376 21.376z" fill="#5D9CEC" /><path d="M597.31 32.034c0 11.75-9.532 21.312-21.312 21.312s-21.312-9.562-21.312-21.312c0-11.812 9.532-21.342 21.312-21.342s21.312 9.528 21.312 21.342z" fill="#A0D468" /><path d="M170.68 330.684c0 11.782-9.562 21.344-21.342 21.344s-21.328-9.562-21.328-21.344 9.546-21.344 21.328-21.344 21.342 9.562 21.342 21.344z" fill="#AC92EB" /><path d="M42.682 714.69c0 11.75-9.562 21.312-21.344 21.312-11.78 0-21.328-9.562-21.328-21.312 0-11.812 9.546-21.374 21.328-21.374s21.344 9.56 21.344 21.374z" fill="#ED5564" /><path d="M64.01 74.69V53.346c0-11.782-9.546-21.312-21.328-21.312s-21.344 9.532-21.344 21.312v21.344c-11.78 0-21.328 9.532-21.328 21.344 0 11.782 9.546 21.312 21.328 21.312v21.344c0 11.78 9.562 21.342 21.344 21.342s21.328-9.562 21.328-21.342V117.346c11.782 0 21.33-9.532 21.33-21.312-0.002-11.814-9.548-21.344-21.33-21.344z" fill="#FC6E51" /><path d="M874.68 330.684V309.34c0-11.782-9.562-21.31-21.374-21.31-11.75 0-21.312 9.53-21.312 21.31v21.344c-11.782 0-21.312 9.532-21.312 21.344a21.3 21.3 0 0 0 21.312 21.312v21.342c0 11.782 9.562 21.344 21.312 21.344 11.81 0 21.374-9.562 21.374-21.344V373.34c11.75 0 21.312-9.532 21.312-21.312 0-11.814-9.562-21.344-21.312-21.344z" fill="#48CFAD" /><path d="M656.06 337.964a21.376 21.376 0 0 0-16.062-7.282H341.332a21.334 21.334 0 0 0-21.138 24.158l85.326 639.968a21.308 21.308 0 0 0 21.156 18.5h128.01c10.688 0 19.718-7.876 21.124-18.5l85.312-639.968a21.384 21.384 0 0 0-5.062-16.876z" fill="#967ADC" /><path d="M656.06 337.964a21.376 21.376 0 0 0-16.062-7.282H341.332a21.334 21.334 0 0 0-21.138 24.158l85.326 639.968a21.308 21.308 0 0 0 21.156 18.5h128.01c10.688 0 19.718-7.876 21.124-18.5l85.312-639.968a21.384 21.384 0 0 0-5.062-16.876z" fill="#967ADC" /><path d="M490.672 330.684h-149.34a21.334 21.334 0 0 0-21.138 24.158l85.326 639.968a21.308 21.308 0 0 0 21.156 18.5h63.998V330.684z" opacity=".1" /><path d="M639.998 373.34H341.332a21.372 21.372 0 0 1-18.89-11.406 21.394 21.394 0 0 1 1.344-22.062l85.328-123.496a21.35 21.35 0 0 1 7.234-6.532l85.342-47.156a21.288 21.288 0 0 1 27.374 5.876l127.998 170.652a21.26 21.26 0 0 1 2 22.344 21.314 21.314 0 0 1-19.064 11.78z" fill="#AC92EB" /><path d="M659.06 361.558a21.26 21.26 0 0 0-2-22.344l-127.998-170.652c-3-4.032-7.172-6.656-11.718-7.844L490.672 373.34h149.326c8.062 0 15.468-4.562 19.062-11.782z" fill="#FFFFFF" opacity=".1" /></svg>