<?xml version="1.0" standalone="no"?><!DOCTYPE svg PUBLIC "-//W3C//DTD SVG 1.1//EN" "http://www.w3.org/Graphics/SVG/1.1/DTD/svg11.dtd"><svg class="icon" width="128px" height="128.00px" viewBox="0 0 1024 1024" version="1.1" xmlns="http://www.w3.org/2000/svg"><path d="M320.004 915.796c0 11.812 9.562 21.376 21.312 21.376 11.812 0 21.344-9.562 21.344-21.376v-42.624h-42.656v42.624zM746.65 926.172v40c0 11.75 9.562 21.312 21.344 21.312 11.78 0 21.31-9.562 21.31-21.312v-40h-42.654z" fill="#FFCE54" /><path d="M746.65 220.422h42.654v90.186h-42.654zM320.004 404.45h42.656v90.216h-42.656z" fill="#8CC153" /><path d="M767.994 297.358c-209.058 0-125.436 647.438 0 647.438s209.056-647.438 0-647.438zM341.316 467.886c-171.434 0-102.842 426.536 0 426.536 102.874 0 171.434-426.536 0-426.536z" fill="#A0D468" /><path d="M659.622 101.924c-33.844-58.466-102.342-81.498-159.372-53.624-49.53 24.218-70.124 84.216-45.904 133.746 9.78 19.968 26.904 34.688 48.216 41.468 19.438 6.156 41.532 5.5 62.248-1.844 14.688-5.218 28.532-19.812 34.436-36.344 5.688-15.906 4.062-32.686-4.436-47.374l-0.188-0.282a109.828 109.828 0 0 0-0.376-0.656c-3.75-6.188-10.5-10.312-18.25-10.312a21.332 21.332 0 0 0-21.344 21.342c0 4.032 1.156 7.812 3.094 11.032 2.344 3.906 2.782 7.436 1.438 11.53-2 6.032-6.968 10.156-8.624 10.844-20.124 7.124-46.81 4.5-57.874-18.156-13.906-28.406-2.094-62.78 26.312-76.686 18.25-8.906 38.03-9.968 57.248-3.062 19.06 6.812 35.56 20.938 46.436 39.75 16.156 27.936 29 72.216-45.966 133.998L603.84 290.2c35.968-29.624 59.062-60.374 68.594-91.342 10-32.372 5.656-64.996-12.812-96.934zM916.646 531.82c0 11.782-9.53 21.36-21.342 21.36-11.75 0-21.312-9.578-21.312-21.36s9.562-21.312 21.312-21.312c11.814 0 21.342 9.532 21.342 21.312zM469.312 659.802c0 11.812-9.532 21.376-21.31 21.376-11.782 0-21.344-9.562-21.344-21.376 0-11.75 9.562-21.312 21.344-21.312 11.78 0 21.31 9.562 21.31 21.312zM277.316 574.618c0 11.75-9.53 21.312-21.31 21.312s-21.344-9.562-21.344-21.312c0-11.812 9.562-21.376 21.344-21.376s21.31 9.562 21.31 21.376zM277.316 745.176c0 11.75-9.53 21.312-21.31 21.312s-21.344-9.562-21.344-21.312c0-11.812 9.562-21.376 21.344-21.376s21.31 9.564 21.31 21.376zM341.316 617.18c0 11.748-9.532 21.31-21.312 21.31s-21.344-9.562-21.344-21.31c0-11.812 9.562-21.376 21.344-21.376s21.312 9.564 21.312 21.376zM384.002 766.488c0 11.812-9.562 21.312-21.342 21.312-11.782 0-21.344-9.5-21.344-21.312 0-11.75 9.562-21.312 21.344-21.312 11.78 0 21.342 9.562 21.342 21.312zM810.648 710.176c0 11.75-9.532 21.312-21.344 21.312-11.748 0-21.31-9.562-21.31-21.312 0-11.812 9.562-21.374 21.31-21.374 11.814 0 21.344 9.562 21.344 21.374zM703.996 795.488c0 11.75-9.562 21.312-21.344 21.312s-21.344-9.562-21.344-21.312c0-11.812 9.562-21.312 21.344-21.312s21.344 9.5 21.344 21.312zM874.648 838.174c0 11.75-9.532 21.312-21.344 21.312-11.75 0-21.312-9.562-21.312-21.312 0-11.812 9.562-21.374 21.312-21.374 11.814 0 21.344 9.562 21.344 21.374zM703.996 361.356c0 11.782-9.562 21.344-21.344 21.344s-21.344-9.562-21.344-21.344 9.562-21.312 21.344-21.312 21.344 9.532 21.344 21.312zM831.992 446.51c0 11.782-9.562 21.312-21.344 21.312s-21.344-9.532-21.344-21.312c0-11.78 9.562-21.342 21.344-21.342s21.344 9.562 21.344 21.342zM746.65 531.82c0 11.782-9.532 21.36-21.342 21.36-11.75 0-21.312-9.578-21.312-21.36s9.562-21.312 21.312-21.312c11.812 0 21.342 9.532 21.342 21.312z" fill="#8CC153" /><path d="M1018.176 304.14l0.032-0.032c-2.282-2.406-56.656-59.656-146.214-88.654-52.968-17.156-107.248-20.876-161.308-11.062-66.812 12.124-133.124 45.062-197.09 97.874-57.904 47.78-118.874 77.592-181.152 88.56-49.624 8.75-100.436 5.656-151.058-9.156-87.5-25.624-144.966-78.092-145.56-78.624v0.032c-3.812-3.532-8.876-5.718-14.5-5.718-11.75 0-21.31 9.562-21.31 21.344 0 6.188 2.624 11.718 6.81 15.592v0.032c2.562 2.406 64.218 59.03 160.874 87.78 36.374 10.812 72.904 16.25 109.184 16.25 20.75 0 41.376-1.782 61.812-5.312 70.06-12.094 138.028-45.03 202.058-97.874 57.934-47.812 117.308-77.624 176.496-88.592 46.842-8.688 93.934-5.688 139.934 8.938 79.654 25.312 129.434 77.28 129.902 77.78h0.032a21.302 21.302 0 0 0 15.532 6.75c11.782 0 21.344-9.562 21.344-21.342a21.16 21.16 0 0 0-5.818-14.566z" fill="#A0D468" /></svg>