<?xml version="1.0" standalone="no"?><!DOCTYPE svg PUBLIC "-//W3C//DTD SVG 1.1//EN" "http://www.w3.org/Graphics/SVG/1.1/DTD/svg11.dtd"><svg class="icon" width="128px" height="128.00px" viewBox="0 0 1024 1024" version="1.1" xmlns="http://www.w3.org/2000/svg"><path d="M896.09125 426.657167h-170.277668c-23.561954 0-42.687917 19.093963-42.687916 42.655916v79.717845C685.87566 528.122969 703.751625 511.999 725.439583 511.999h85.309834c23.561954 0 42.685917 19.093963 42.685916 42.655917v213.337583c0 23.561954-19.123963 42.655917-42.685916 42.655917H725.439583c-21.687958 0-39.561923-16.155968-42.311917-37.061928v79.715844c0 23.561954 19.123963 42.687917 42.687916 42.687917h170.277668c23.561954 0 42.655917-19.123963 42.655917-42.687917V469.313083c-0.002-23.561954-19.095963-42.655917-42.657917-42.655916z" fill="#DA4453" /><path d="M725.251583 981.300083c0 23.559954-19.123963 42.685917-42.687916 42.685917H127.92275c-23.559954 0-42.669917-19.123963-42.669917-42.685917V341.315333c0-23.561954 19.109963-42.655917 42.669917-42.655916h554.640917c23.561954 0 42.687917 19.091963 42.687916 42.655916v639.98475z" fill="#ED5564" /><path d="M682.563667 981.300083H127.92275c-23.559954 0-42.669917-19.093963-42.669917-42.655916v42.655916c0 23.559954 19.109963 42.685917 42.669917 42.685917h554.640917c23.561954 0 42.687917-19.123963 42.687916-42.685917v-42.655916c0 23.561954-19.125963 42.655917-42.687916 42.655916z" fill="#DA4453" /><path d="M592.505843 221.255568c-0.032-0.032-4.623991-6.155988-6.875987-13.905973-2.593995-9.093982-0.999998-15.717969 5.37599-22.123957 17.343966-17.375966 23.061955-39.967922 16.155968-63.623876-4.655991-15.873969-13.623973-27.091947-14.781971-28.499944v-0.032l-0.062-0.032a21.203959 21.203959 0 0 0-16.405968-7.717985c-11.781977 0-21.343958 9.561981-21.343958 21.343959 0 5.15599 1.875996 9.905981 4.93799 13.591973 0.032 0.062 4.531991 5.875989 6.687987 13.341974 2.561995 8.717983 0.937998 15.15597-5.375989 21.499958-17.311966 17.375966-23.045955 40.093922-16.187969 63.997875 4.623991 16.217968 13.655973 27.687946 14.687972 28.937944 3.905992 4.843991 9.875981 7.967984 16.593967 7.967984 11.781977 0 21.343958-9.561981 21.343958-21.343958 0-5.06199-1.781997-9.717981-4.74999-13.375974v-0.026zM442.228136 50.665901c-6.359988-23.873953-18.623964-40.435921-19.999961-42.247917h-0.016c-3.905992-5.09399-10.04598-8.405984-16.967966-8.405984-11.781977 0-21.327958 9.531981-21.327959 21.311958 0 4.811991 1.609997 9.249982 4.311992 12.811975l-0.032 0.032c0.094 0.094 8.983982 12.187976 13.093974 28.623944 4.90599 19.655962 0.967998 36.375929-12.031976 51.061901-22.779956 25.77995-30.043941 57.405888-20.983959 91.465821 6.359988 23.873953 18.609964 40.435921 19.999961 42.249917h0.016c3.889992 5.09399 10.03198 8.437984 16.953967 8.437984 11.781977 0 21.343958-9.561981 21.343958-21.343958a21.219959 21.219959 0 0 0-4.311992-12.811975l0.016-0.032c-0.094-0.124-8.983982-12.185976-13.077974-28.623944-4.90599-19.655962-0.983998-36.375929 12.015976-51.061901 22.795955-25.78195 30.045941-57.405888 20.997959-91.467821zM265.826481 121.601762c-4.639991-15.873969-13.609973-27.091947-14.765971-28.499944 0 0-0.016 0-0.016-0.032-0.016 0-0.032-0.032-0.032-0.032a21.307958 21.307958 0 0 0-16.421968-7.717985c-11.781977 0-21.343958 9.561981-21.343958 21.343959 0 5.15599 1.843996 9.905981 4.90599 13.591973 0.046 0.062 4.545991 5.875989 6.733987 13.341974 2.545995 8.717983 0.921998 15.15597-5.42199 21.499958-17.281966 17.375966-23.031955 40.093922-16.155968 63.997875 4.639991 16.217968 13.655973 27.687946 14.671971 28.937944a21.299958 21.299958 0 0 0 16.609968 7.967984c11.781977 0 21.327958-9.561981 21.327958-21.343958 0-5.06199-1.781997-9.717981-4.733991-13.375974l0.016-0.032c-0.046-0.032-4.655991-6.155988-6.889986-13.905973-2.609995-9.093982-0.999998-15.717969 5.389989-22.123957 17.313966-17.367966 23.047955-39.961922 16.125969-63.617876z" fill="#E6E9ED" /><path d="M606.129816 611.622805l-138.809729-20.18796-62.059879-125.777754-62.091878 125.777754-138.793729 20.18796 100.433804 97.903809-23.701954 138.21373 124.137758-65.247872 124.151757 65.247872-23.715954-138.21373z" fill="#FFCE54" /></svg>