<?xml version="1.0" standalone="no"?><!DOCTYPE svg PUBLIC "-//W3C//DTD SVG 1.1//EN" "http://www.w3.org/Graphics/SVG/1.1/DTD/svg11.dtd"><svg class="icon" width="128px" height="128.00px" viewBox="0 0 1024 1024" version="1.1" xmlns="http://www.w3.org/2000/svg"><path d="M554.62 810.68h-85.31c-11.782 0-21.344-9.562-21.344-21.376V478.296c0-11.782 9.562-21.328 21.344-21.328h85.31c11.782 0 21.344 9.546 21.344 21.328v311.008c-0.002 11.814-9.564 21.376-21.344 21.376z" fill="#F6BB42" /><path d="M639.962 703.996H383.968c-35.282 0-64 28.686-64 63.998v42.686c0 35.25 28.718 64 64 64h255.996c35.28 0 63.996-28.75 63.996-64v-42.686c-0.002-35.312-28.718-63.998-63.998-63.998z" fill="#FFCE54" /><path d="M746.616 767.994H277.314c-11.782 0-21.342 9.56-21.342 21.31v213.372c0 11.75 9.562 21.312 21.342 21.312h469.302c11.782 0 21.344-9.562 21.344-21.312V789.304c-0.002-11.75-9.564-21.31-21.344-21.31z" fill="#434A54" /><path d="M758.022 448a21.344 21.344 0 0 1-19.75-13.28c-4.438-10.906 0.782-23.36 11.718-27.812 82.436-33.594 135.684-96.732 158.278-187.652 11.594-46.67 11.812-89.326 10.688-112.576h-129.684c-11.782 0-21.312-9.562-21.312-21.342 0-11.782 9.532-21.328 21.312-21.328h149.34c10.656 0 19.656 7.844 21.124 18.376 0.406 2.766 9.188 68.28-9.688 145.684-25.468 104.186-89.062 179.684-183.964 218.354a21.38 21.38 0 0 1-8.062 1.576zM265.97 448c-2.688 0-5.406-0.5-8.046-1.578-94.904-38.67-158.512-114.168-183.964-218.354-18.89-77.404-10.094-142.918-9.704-145.684a21.328 21.328 0 0 1 21.124-18.376h149.34c11.782 0 21.328 9.546 21.328 21.328 0 11.78-9.546 21.342-21.328 21.342H105.036c-1.124 23.234-0.89 65.89 10.704 112.576 22.578 90.92 75.826 154.058 158.278 187.652 10.922 4.454 16.156 16.906 11.718 27.812-3.376 8.268-11.36 13.282-19.766 13.282z" fill="#F6BB42" /><path d="M661.304 917.302H362.64c-11.782 0-21.328-9.532-21.328-21.31 0-11.782 9.546-21.312 21.328-21.312h298.666a21.3 21.3 0 0 1 21.312 21.312 21.3 21.3 0 0 1-21.314 21.31zM789.302 0.012h-554.66c-11.782 0-21.328 9.546-21.328 21.328v277.336c0 79.78 31.062 154.778 87.466 211.184 56.406 56.388 131.418 87.452 211.184 87.452 79.78 0 154.778-31.062 211.182-87.452 56.406-56.406 87.468-131.404 87.468-211.184V21.338c0.002-11.78-9.53-21.326-21.312-21.326z" fill="#FFCE54" /><path d="M789.302 0.012h-42.688c11.782 0 21.344 9.546 21.344 21.328v277.336c0 79.78-31.062 154.778-87.466 211.184-51.374 51.326-118.124 81.702-189.856 86.702 7.062 0.5 14.172 0.75 21.328 0.75 79.78 0 154.778-31.062 211.182-87.452 56.406-56.406 87.468-131.404 87.468-211.184V21.338c0.002-11.78-9.53-21.326-21.312-21.326z" fill="#FFFFFF" opacity=".2" /><path d="M668.18 238.896a21.336 21.336 0 0 0-17.218-14.516l-82.842-12.032-37.016-75.06a21.334 21.334 0 1 0-38.262 0l-37.046 75.06-82.826 12.032a21.348 21.348 0 0 0-17.218 14.516 21.38 21.38 0 0 0 5.406 21.876l59.936 58.42-14.156 82.482c-1.376 8 1.922 16.094 8.484 20.876a21.38 21.38 0 0 0 22.468 1.624l74.078-38.954 74.092 38.954a21.12 21.12 0 0 0 9.906 2.438c4.438 0 8.844-1.376 12.532-4.062a21.314 21.314 0 0 0 8.5-20.876l-14.156-82.482 59.936-58.42a21.384 21.384 0 0 0 5.402-21.876z" fill="#ED5564" /></svg>