<?xml version="1.0" standalone="no"?><!DOCTYPE svg PUBLIC "-//W3C//DTD SVG 1.1//EN" "http://www.w3.org/Graphics/SVG/1.1/DTD/svg11.dtd"><svg class="icon" width="128px" height="128.00px" viewBox="0 0 1024 1024" version="1.1" xmlns="http://www.w3.org/2000/svg"><path d="M256.012 1023.992c-11.782 0-21.328-9.562-21.328-21.312v-21.344c0-11.782 9.546-21.344 21.328-21.344s21.328 9.562 21.328 21.344v21.344c0 11.75-9.548 21.312-21.328 21.312zM768.004 1023.992c-11.782 0-21.312-9.562-21.312-21.312v-21.344c0-11.782 9.532-21.344 21.312-21.344s21.312 9.562 21.312 21.344v21.344c0 11.75-9.53 21.312-21.312 21.312z" fill="#434A54" /><path d="M789.316 618.684c0 11.75-9.532 21.312-21.312 21.312H256.012c-11.782 0-21.328-9.562-21.328-21.312V42.678c0-11.782 9.546-21.328 21.328-21.328h511.992c11.782 0 21.312 9.546 21.312 21.328v576.006z" fill="#5D9CEC" /><path d="M768.004 661.34H256.012c-23.532 0-42.67-19.156-42.67-42.656V42.678c0-23.53 19.14-42.67 42.67-42.67h511.992c23.532 0 42.686 19.14 42.686 42.67v576.004c0 23.502-19.154 42.658-42.686 42.658zM256.012 42.678v576.004h512.024l-0.032-576.004H256.012z" fill="#F4BE8E" /><path d="M810.69 618.684H213.34c-11.782 0-21.328 9.532-21.328 21.312v341.34c0 11.782 9.546 21.344 21.328 21.344h597.348c11.75 0 21.312-9.562 21.312-21.344v-341.34c0.002-11.782-9.56-21.312-21.31-21.312z" fill="#F4BE8E" /><path d="M490.68 639.996V1002.68h42.656V639.996c0-11.782-9.546-21.312-21.328-21.312s-21.328 9.53-21.328 21.312z" fill="#EAAD7A" /><path d="M448.008 853.336a21.316 21.316 0 0 1-21.328-21.34v-64c0-11.782 9.546-21.312 21.328-21.312 11.78 0 21.328 9.532 21.328 21.312v64c0 11.812-9.546 21.34-21.328 21.34zM576.006 853.336c-11.78 0-21.31-9.528-21.31-21.34v-64a21.298 21.298 0 0 1 21.31-21.312 21.3 21.3 0 0 1 21.312 21.312v64c0 11.812-9.53 21.34-21.312 21.34z" fill="#434A54" /><path d="M832.002 661.34H192.012c-11.782 0-21.328-9.532-21.328-21.344 0-11.782 9.546-21.312 21.328-21.312h639.99a21.3 21.3 0 0 1 21.312 21.312c0 11.812-9.53 21.344-21.312 21.344z" fill="#FFD2A6" /><path d="M509.336 320.018h-122.654l127.998-277.34h122.636zM509.336 618.684h-122.654l127.998-277.338h122.636z" fill="#FFFFFF" opacity=".1" /><path d="M789.316 341.346H234.684c-11.78 0-21.342-9.546-21.342-21.344 0-11.782 9.562-21.328 21.342-21.328h554.632c11.812 0 21.374 9.546 21.374 21.328 0 11.798-9.562 21.344-21.374 21.344z" fill="#F4BE8E" /></svg>