<?xml version="1.0" standalone="no"?><!DOCTYPE svg PUBLIC "-//W3C//DTD SVG 1.1//EN" "http://www.w3.org/Graphics/SVG/1.1/DTD/svg11.dtd"><svg class="icon" width="128px" height="128.00px" viewBox="0 0 1024 1024" version="1.1" xmlns="http://www.w3.org/2000/svg"><path d="M172.194 1023.992c-11.75 0-21.312-9.562-21.312-21.312v-21.376c0-11.75 9.562-21.312 21.312-21.312 11.812 0 21.376 9.562 21.376 21.312v21.376c-0.002 11.75-9.564 21.312-21.376 21.312zM854.87 1023.992c-11.782 0-21.312-9.562-21.312-21.312v-21.376c0-11.75 9.532-21.312 21.312-21.312 11.78 0 21.31 9.562 21.31 21.312v21.376c0 11.75-9.532 21.312-21.31 21.312z" fill="#434A54" /><path d="M897.554 0.008H129.568c-11.812 0-21.374 9.546-21.374 21.328v959.968c0 11.812 9.56 21.376 21.374 21.376h767.986c11.75 0 21.312-9.562 21.312-21.376V21.336c0.002-11.782-9.562-21.328-21.312-21.328z" fill="#656D78" /><path d="M812.182 341.332H598.874c-23.532 0-42.686 19.14-42.686 42.67v21.328c0 23.532 19.154 42.672 42.686 42.672h213.308c23.562 0 42.688-19.14 42.688-42.672V384c0-23.53-19.126-42.668-42.688-42.668z" fill="#4FC2E9" /><path d="M812.182 405.33H598.874c-23.532 0-42.686 19.14-42.686 42.672v21.328c0 23.53 19.154 42.67 42.686 42.67h213.308c23.562 0 42.688-19.14 42.688-42.67V448c0-23.53-19.126-42.67-42.688-42.67z" fill="#EC87C0" /><path d="M812.182 533.328H598.874c-23.532 0-42.686 19.14-42.686 42.672v21.312c0 23.558 19.154 42.684 42.686 42.684h213.308c23.562 0 42.688-19.124 42.688-42.684V576c0-23.532-19.126-42.672-42.688-42.672z" fill="#A0D468" /><path d="M812.182 597.312H598.874c-23.532 0-42.686 19.152-42.686 42.684v21.312c0 23.562 19.154 42.688 42.686 42.688h213.308c23.562 0 42.688-19.124 42.688-42.688v-21.312c0-23.532-19.126-42.684-42.688-42.684z" fill="#FFCE54" /><path d="M812.182 661.308H598.874c-23.532 0-42.686 19.156-42.686 42.688v21.312c0 23.562 19.154 42.688 42.686 42.688h213.308c23.562 0 42.688-19.124 42.688-42.688v-21.312c0-23.532-19.126-42.688-42.688-42.688z" fill="#AC92EB" /><path d="M812.182 981.304H598.874c-23.532 0-42.686-19.124-42.686-42.624v-21.376c0-23.5 19.154-42.624 42.686-42.624h213.308c23.562 0 42.688 19.124 42.688 42.624v21.376c0 23.5-19.126 42.624-42.688 42.624z" fill="#EC87C0" /><path d="M812.182 149.334H598.874c-23.532 0-42.686 19.14-42.686 42.672v21.328c0 23.53 19.154 42.67 42.686 42.67h213.308c23.562 0 42.688-19.14 42.688-42.67V192.004c0-23.53-19.126-42.67-42.688-42.67z" fill="#48CFAD" /><path d="M918.868 725.308H438.876c-11.812 0-21.344 9.562-21.344 21.376 0 11.75 9.532 21.312 21.344 21.312h479.99v-42.688zM918.868 469.328H438.876a21.332 21.332 0 0 0-21.344 21.342c0 11.782 9.532 21.328 21.344 21.328h479.99v-42.67zM918.868 213.334H438.876a21.332 21.332 0 0 0-21.344 21.342c0 11.782 9.532 21.328 21.344 21.328h479.99v-42.67z" fill="#434A54" /><path d="M490.688 0.008H128.006c-11.782 0-21.31 9.546-21.31 21.328v959.968c0 11.812 9.53 21.376 21.31 21.376h362.682c11.75 0 21.312-9.562 21.312-21.376V21.336C512 9.554 502.438 0.008 490.688 0.008z" fill="#5D9CEC" /><path d="M917.304 42.678H106.696c-11.812 0-21.376-9.562-21.376-21.342C85.32 9.554 94.882 0.008 106.696 0.008h810.61c11.812 0 21.376 9.546 21.376 21.328-0.002 11.78-9.564 21.342-21.378 21.342z" fill="#434A54" /><path d="M854.87 981.304c0-23.5-19.124-42.624-42.688-42.624H598.874c-23.532 0-42.686 19.124-42.686 42.624v21.376h298.682v-21.376z" fill="#48CFAD" /><path d="M336.004 1002.68h-122.686l85.374-959.83h122.622z" fill="#FFFFFF" opacity=".1" /></svg>