<?xml version="1.0" standalone="no"?><!DOCTYPE svg PUBLIC "-//W3C//DTD SVG 1.1//EN" "http://www.w3.org/Graphics/SVG/1.1/DTD/svg11.dtd"><svg class="icon" width="128px" height="128.00px" viewBox="0 0 1024 1024" version="1.1" xmlns="http://www.w3.org/2000/svg"><path d="M23.258 156.068h246.464v505.242H23.258zM751.402 156.068h246.496v505.242H751.402z" fill="#F5F7FA" /><path d="M269.722 149.318h476.93v715.676H269.722z" fill="#FFD2A6" /><path d="M85.318 682.654c-11.782 0-21.312-9.562-21.312-21.344v-106.654c0-11.782 9.532-21.344 21.312-21.344s21.344 9.562 21.344 21.344v106.654c0 11.782-9.562 21.344-21.344 21.344z" fill="#EC87C0" /><path d="M149.318 682.654c-11.782 0-21.312-9.562-21.312-21.344v-106.654c0-11.782 9.532-21.344 21.312-21.344s21.344 9.562 21.344 21.344v106.654c0 11.782-9.562 21.344-21.344 21.344z" fill="#5D9CEC" /><path d="M277.316 874.65H21.32c-11.782 0-21.312-52.53-21.312-117.342s9.532-117.31 21.312-117.31h255.996c11.78 0 21.342 52.498 21.342 117.31s-9.562 117.342-21.342 117.342z" fill="#FFD2A6" /><path d="M767.996 895.994H256.004V128.006h511.992v767.988z m-469.338-42.688h426.65V170.662H298.658v682.644z" fill="#F4BE8E" /><path d="M490.656 149.318h42.656v725.332h-42.656z" fill="#F4BE8E" /><path d="M426.656 576c-11.782 0-21.344-9.562-21.344-21.344v-64c0-11.782 9.562-21.344 21.344-21.344S448 478.876 448 490.656v64c0 11.782-9.562 21.344-21.344 21.344zM597.31 576c-11.782 0-21.312-9.562-21.312-21.344v-64c0-11.782 9.532-21.344 21.312-21.344s21.344 9.562 21.344 21.344v64c0 11.782-9.562 21.344-21.344 21.344zM170.662 767.996H128.006c-11.782 0-21.344-9.562-21.344-21.344s9.562-21.344 21.344-21.344h42.656c11.78 0 21.342 9.562 21.342 21.344s-9.562 21.344-21.342 21.344z" fill="#434A54" /><path d="M1002.648 874.65H746.652c-11.782 0-21.344-52.53-21.344-117.342s9.562-117.31 21.344-117.31h255.996c11.782 0 21.312 52.498 21.312 117.31s-9.53 117.342-21.312 117.342z" fill="#FFD2A6" /><path d="M895.96 767.996h-42.654c-11.782 0-21.344-9.562-21.344-21.344s9.562-21.344 21.344-21.344h42.654c11.782 0 21.344 9.562 21.344 21.344s-9.562 21.344-21.344 21.344z" fill="#434A54" /><path d="M85.318 405.314h127.998v85.342H85.318z" fill="#A0D468" /><path d="M810.65 576h127.998v85.31h-127.998z" fill="#48CFAD" /><path d="M213.316 266.66c0 29.438-28.656 53.344-63.998 53.344-35.344 0-64-23.906-64-53.344 0-29.468 28.656-53.342 64-53.342 35.342 0 63.998 23.874 63.998 53.342z" fill="#ED5564" /><path d="M938.648 437.314c0 29.466-28.656 53.342-64 53.342-35.342 0-63.998-23.876-63.998-53.342 0-29.438 28.656-53.312 63.998-53.312 35.344 0 64 23.874 64 53.312z" fill="#AC92EB" /><path d="M874.648 341.316c-11.782 0-21.342-9.532-21.342-21.312v-106.686c0-11.782 9.56-21.312 21.342-21.312s21.344 9.532 21.344 21.312v106.686c0 11.782-9.562 21.312-21.344 21.312z" fill="#4FC2E9" /><path d="M938.648 341.316c-11.782 0-21.344-9.532-21.344-21.312v-106.686c0-11.782 9.562-21.312 21.344-21.312s21.344 9.532 21.344 21.312v106.686c0 11.782-9.562 21.312-21.344 21.312z" fill="#ED5564" /><path d="M298.658 895.994H0.008V128.006h298.65v767.988zM42.664 853.306h213.34V170.662H42.664v682.644zM1023.96 895.994H725.308V128.006H1023.96v767.988z m-255.964-42.688h213.308V170.662H767.996v682.644z" fill="#F4BE8E" /><path d="M277.316 512H21.32C9.538 512 0.008 502.438 0.008 490.656s9.532-21.344 21.312-21.344h255.996c11.78 0 21.342 9.562 21.342 21.344S289.096 512 277.316 512zM277.316 682.654H21.32c-11.782 0-21.312-9.562-21.312-21.344s9.532-21.312 21.312-21.312h255.996c11.78 0 21.342 9.532 21.342 21.312s-9.562 21.344-21.342 21.344zM1002.648 682.654H746.652c-11.782 0-21.344-9.562-21.344-21.344s9.562-21.312 21.344-21.312h255.996c11.782 0 21.344 9.532 21.344 21.312s-9.562 21.344-21.344 21.344zM277.316 341.316H21.32A21.3 21.3 0 0 1 0.008 320.004c0-11.812 9.532-21.344 21.312-21.344h255.996c11.78 0 21.342 9.532 21.342 21.344 0 11.782-9.562 21.312-21.342 21.312zM1002.648 512H746.652c-11.782 0-21.344-9.562-21.344-21.344s9.562-21.344 21.344-21.344h255.996c11.782 0 21.312 9.562 21.312 21.344S1014.43 512 1002.648 512zM1002.648 341.316H746.652c-11.782 0-21.344-9.532-21.344-21.312 0-11.812 9.562-21.344 21.344-21.344h255.996c11.782 0 21.312 9.532 21.312 21.344a21.298 21.298 0 0 1-21.312 21.312z" fill="#F4BE8E" /></svg>