<?xml version="1.0" standalone="no"?><!DOCTYPE svg PUBLIC "-//W3C//DTD SVG 1.1//EN" "http://www.w3.org/Graphics/SVG/1.1/DTD/svg11.dtd"><svg class="icon" width="128px" height="128.00px" viewBox="0 0 1024 1024" version="1.1" xmlns="http://www.w3.org/2000/svg"><path d="M896.082 426.674h-170.278c-23.56 0-42.652 19.092-42.652 42.656v79.732C685.902 528.14 703.776 512 725.43 512h85.312c23.56 0 42.684 19.094 42.684 42.686v213.306c0 23.562-19.124 42.688-42.684 42.688h-85.312c-21.654 0-39.528-16.156-42.278-37.062v79.686c0 23.562 19.092 42.686 42.652 42.686h170.278c23.562 0 42.656-19.124 42.656-42.686V469.33c0-23.562-19.094-42.656-42.656-42.656z" fill="#DA4453" /><path d="M725.242 938.676c0 47.124-38.214 85.308-85.34 85.308H170.572c-47.124 0-85.31-38.186-85.31-85.308V298.678h639.98v639.998z" fill="#ED5564" /><path d="M571.28 221.292l0.094 0.14c-0.032-0.062-5.062-6.594-7.218-14.968-2.25-8.672-0.562-15.016 5.624-21.218 17.312-17.388 23.06-39.982 16.124-63.624-4.624-15.874-13.594-27.092-14.782-28.498v-0.016c0-0.016-0.032-0.032-0.032-0.046v0.016a21.28 21.28 0 0 0-16.436-7.734c-11.782 0-21.312 9.562-21.312 21.342 0 5.172 1.844 9.906 4.906 13.608 0.032 0.046 4.532 5.876 6.718 13.312 2.562 8.718 0.938 15.156-5.406 21.532-17.282 17.358-23.032 40.076-16.188 63.998 4.656 16.186 13.656 27.67 14.688 28.936v-0.016a21.302 21.302 0 0 0 16.594 7.954c11.78 0 21.342-9.546 21.342-21.328a21.312 21.312 0 0 0-4.716-13.39zM442.22 50.702c-6.344-23.89-18.624-40.452-20-42.264l-0.032 0.016a21.212 21.212 0 0 0-16.938-8.438c-11.78 0-21.342 9.546-21.342 21.328 0 4.828 1.624 9.25 4.312 12.812l-0.032 0.016c0.094 0.124 9 12.202 13.092 28.638 4.906 19.672 0.968 36.376-12.03 51.078-22.782 25.764-30.032 57.388-21 91.434 6.376 23.89 18.624 40.452 20 42.264l0.032-0.016c3.906 5.124 10.032 8.436 16.966 8.436 11.782 0 21.312-9.546 21.312-21.328a21.16 21.16 0 0 0-4.282-12.812v-0.016c-0.094-0.124-8.968-12.204-13.062-28.64-4.938-19.67-1-36.374 12-51.076 22.786-25.762 30.068-57.386 21.004-91.432zM287.162 121.622c-4.656-15.874-13.624-27.092-14.782-28.498v-0.016c-0.032-0.016-0.032-0.032-0.032-0.046v0.016c-3.936-4.718-9.842-7.734-16.436-7.734-11.782 0-21.344 9.562-21.344 21.342 0 5.172 1.844 9.906 4.906 13.608 0.062 0.046 4.562 5.876 6.75 13.312 2.532 8.718 0.906 15.156-5.438 21.532-17.282 17.358-23.032 40.076-16.156 63.998 4.656 16.186 13.656 27.67 14.656 28.936l0.032-0.016a21.256 21.256 0 0 0 16.594 7.954c11.782 0 21.342-9.546 21.342-21.328 0-5.078-1.782-9.734-4.75-13.39l0.124 0.14c-0.062-0.062-5.06-6.594-7.216-14.968-2.25-8.672-0.562-15.016 5.624-21.218 17.314-17.39 23.032-39.984 16.126-63.624z" fill="#E6E9ED" /><path d="M341.286 682.682H170.542V512l42.684-42.67h85.404l42.656 43.342z" fill="#FFCE54" /><path d="M234.57 298.678V512c0 5.454 2.094 10.922 6.25 15.078 8.344 8.328 21.844 8.328 30.188 0a21.292 21.292 0 0 0 6.248-15.078v21.328-234.65h-42.686z" fill="#434A54" /><path d="M206.978 1008.922a21.336 21.336 0 0 0-30.188 0 21.222 21.222 0 0 0-6.25 15.062h42.654c0.002-5.438-2.062-10.938-6.216-15.062zM292.318 1008.922c-8.312-8.342-21.81-8.342-30.154 0a21.222 21.222 0 0 0-6.25 15.062h42.654c0-5.438-2.062-10.938-6.25-15.062zM377.692 1008.922c-8.312-8.342-21.844-8.342-30.156 0-4.188 4.124-6.25 9.624-6.25 15.062h42.656c0-5.438-2.094-10.938-6.25-15.062zM463.064 1008.922c-8.344-8.342-21.844-8.342-30.156 0-4.188 4.124-6.25 9.624-6.25 15.062h42.654c0-5.438-2.094-10.938-6.248-15.062z" fill="#DA4453" /><path d="M548.438 1008.922a21.336 21.336 0 0 0-30.188 0 21.222 21.222 0 0 0-6.25 15.062h42.688c0-5.438-2.094-10.938-6.25-15.062z" fill="#DA4453" /><path d="M633.808 1008.922a21.336 21.336 0 0 0-30.188 0 21.222 21.222 0 0 0-6.25 15.062h42.688c0-5.438-2.094-10.938-6.25-15.062z" fill="#DA4453" /></svg>