<?xml version="1.0" standalone="no"?><!DOCTYPE svg PUBLIC "-//W3C//DTD SVG 1.1//EN" "http://www.w3.org/Graphics/SVG/1.1/DTD/svg11.dtd"><svg class="icon" width="128px" height="128.00px" viewBox="0 0 1024 1024" version="1.1" xmlns="http://www.w3.org/2000/svg"><path d="M447.45 824.602H106.904c-11.78 0-21.312-9.562-21.312-21.376a21.3 21.3 0 0 1 21.312-21.312h340.544c11.78 0 21.342 9.532 21.342 21.312 0.002 11.814-9.56 21.376-21.34 21.376zM234.492 696.544H149.402c-11.78 0-21.342-9.562-21.342-21.376 0-11.78 9.562-21.31 21.342-21.31h85.088c11.782 0 21.342 9.532 21.342 21.31 0.002 11.814-9.56 21.376-21.34 21.376zM149.122 568.488H21.346c-11.782 0-21.312-9.562-21.312-21.374 0-11.766 9.53-21.328 21.312-21.328H149.12c11.78 0 21.342 9.562 21.342 21.328 0.002 11.812-9.56 21.374-21.34 21.374zM234.304 440.416H149.402c-11.78 0-21.342-9.546-21.342-21.342 0-11.78 9.562-21.342 21.342-21.342h84.902c11.782 0 21.342 9.562 21.342 21.342 0 11.798-9.562 21.342-21.342 21.342z" fill="#E6E9ED" /><path d="M682.484 199.398H469.074c-23.562 0-42.686 19.124-42.686 42.686 0 23.576 19.124 42.686 42.686 42.686h213.412c23.56 0 42.684 19.108 42.684 42.684v42.686h85.372v-42.686c-0.002-70.714-57.312-128.056-128.058-128.056z" fill="#4A89DC" /><path d="M874.598 397.732H362.36c-82.372 0-149.398 67.028-149.398 149.382v128.054c0 82.372 67.028 149.432 149.398 149.432h512.238c82.372 0 149.368-67.06 149.368-149.432v-128.054c-0.002-82.354-66.998-149.382-149.368-149.382z" fill="#656D78" /><path d="M874.598 397.732h-42.684c82.372 0 149.368 67.028 149.368 149.382v128.054c0 82.372-66.996 149.432-149.368 149.432h42.684c82.372 0 149.368-67.06 149.368-149.432v-128.054c-0.002-82.354-66.998-149.382-149.368-149.382z" fill="#FFFFFF" opacity=".2" /><path d="M951.468 419.074l-83.122-64.028c-4.06-4-9.436-6.25-15.124-6.25h-469.52a21.356 21.356 0 0 0-15.092 6.25l-83.12 64.028h665.978z" fill="#5D9CEC" /></svg>