<?xml version="1.0" standalone="no"?><!DOCTYPE svg PUBLIC "-//W3C//DTD SVG 1.1//EN" "http://www.w3.org/Graphics/SVG/1.1/DTD/svg11.dtd"><svg class="icon" width="128px" height="128.00px" viewBox="0 0 1024 1024" version="1.1" xmlns="http://www.w3.org/2000/svg"><path d="M558.532 682.964c-7.656-109.716-3.812-211.184-3.75-212.778l-42.624-1.688c0 0.218-0.032 0.562-0.032 1.032l-42.656-0.376c0 0.906-0.782 89.498-4.938 182.308a3833.28 3833.28 0 0 1-1.562 31.594c-91.402 2.532-228.434 22.094-228.434 170.278 0 46.218 14 170.656 128.282 170.656 82.464 0 114.058-77.438 127.996-170.656 9.624-64.278 12.688-119.934 13.688-149.058 0.876-14.5 1.688-29.844 2.438-46 2-43.842 3.282-87.092 4.062-121.09-0.062 56.342 1.876 139.246 11.312 218.152 2.062 27.688 5.406 61.436 10.876 97.996 13.968 93.218 45.532 170.656 127.998 170.656 114.28 0 128.28-124.438 128.28-170.656-0.004-149.556-139.564-168.088-230.936-170.37z m-109.908 164.062c-7.062 47.154-17.53 81.03-31.998 103.53-13.876 21.562-29.968 30.782-53.81 30.782-17.688 0-31.938-4-43.5-12.25-9.938-7.094-18.376-17.718-25.062-31.624-15.812-32.812-17.062-72.688-17.062-84.124 0-30.124 6.656-53.654 20.376-71.964 11.656-15.594 28.468-27.594 51.468-36.688 34.904-13.812 77.654-17.75 111.808-18.906-1.656 30.09-5.062 73.338-12.22 121.244z m281.154 90.434c-6.718 13.906-15.156 24.532-25.094 31.624-11.562 8.25-25.782 12.25-43.498 12.25-23.812 0-39.938-9.218-53.81-30.782-14.468-22.5-24.938-56.376-31.968-103.53-7.188-47.906-10.594-91.154-12.218-121.248 34.156 1.156 76.874 5.094 111.808 18.906 22.968 9.094 39.812 21.094 51.468 36.688 13.688 18.31 20.344 41.842 20.344 71.964-0.002 11.442-1.22 51.316-17.032 84.128z" fill="#FFCE54" /><path d="M512.562 0.008c-170.652 0-213.152 42.688-213.152 42.688v213.308L468.688 512h85l172.058-255.996V42.696S683.246 0.008 512.562 0.008z m170.496 242.996l-149.152 221.964V398.72c15.782-10.468 29.75-33.562 43.594-71.374 12-32.874 22.812-74.874 23.124-76.248l-44.844 0.094c-0.062 0.282-6.218 26.718-16 54.842-12.968 37.406-22.906 50.686-27.218 55.092-4.282-4.406-14.188-17.624-27.124-54.78-9.75-28-15.968-54.656-16.094-55.156l-45.936 0.75c0.312 1.376 12.218 42.53 24.216 75.404 13.844 37.812 27.812 60.906 43.594 71.374v70.03l-149.152-225.558V66.914c5.782-2.5 13.532-5.376 23.594-8.218 25.716-7.312 72.092-16 146.902-16 74.812 0 121.186 8.686 146.904 16 10.062 2.844 17.81 5.718 23.592 8.218v176.09z" fill="#F6BB42" /><path d="M512.156 0.008c-170.652 0-213.152 42.688-213.152 42.688v213.308h426.304V42.696S682.808 0.008 512.156 0.008z m170.496 170.684H341.66V128.006h340.992v42.686z" fill="#FFCE54" /></svg>