<?xml version="1.0" standalone="no"?><!DOCTYPE svg PUBLIC "-//W3C//DTD SVG 1.1//EN" "http://www.w3.org/Graphics/SVG/1.1/DTD/svg11.dtd"><svg class="icon" width="128px" height="128.00px" viewBox="0 0 1024 1024" version="1.1" xmlns="http://www.w3.org/2000/svg"><path d="M938.59 789.248h-43.8a432.348 432.348 0 0 0 38.646-39.616c59.174-69.11 90.448-151.28 90.448-237.648 0-86.34-31.274-168.51-90.448-237.62-44.458-51.956-88.854-78.278-90.728-79.372v0.016a21.192 21.192 0 0 0-10.78-2.954c-11.78 0-21.306 9.56-21.306 21.34 0 7.826 4.216 14.652 10.496 18.354v0.016c0.376 0.25 40.992 24.528 80.886 71.468 52.582 61.892 79.204 132.126 79.204 208.75s-26.622 146.856-79.204 208.78a387.74 387.74 0 0 1-48.77 47.988v-64.796c0-11.778-9.528-21.34-21.306-21.34s-21.306 9.562-21.306 21.34v106.632c0 11.778 9.528 21.338 21.306 21.338h106.662c11.748 0 21.308-9.56 21.308-21.338s-9.56-21.338-21.308-21.338zM192.074 192.056H85.426c-11.778 0-21.322 9.56-21.322 21.34 0 11.778 9.544 21.322 21.322 21.322h43.772a432.382 432.382 0 0 0-38.63 39.646C31.392 343.474 0.118 425.644 0.118 511.984c0 86.37 31.274 168.54 90.45 237.648 44.458 51.926 88.854 78.262 90.712 79.356h0.016a21.376 21.376 0 0 0 10.78 2.938c11.778 0 21.322-9.56 21.322-21.338a21.22 21.22 0 0 0-10.514-18.34l0.016-0.032c-0.406-0.25-41.022-24.526-80.902-71.454C69.43 658.84 42.78 588.608 42.78 511.984s26.65-146.858 79.216-208.75a389.078 389.078 0 0 1 48.754-48.004v64.796c0 11.794 9.544 21.34 21.324 21.34 11.778 0 21.322-9.544 21.322-21.34v-106.63c0-11.778-9.544-21.34-21.322-21.34z" fill="#434A54" /><path d="M707.52 192.056C674.59 116.746 599.45 64.102 512 64.102s-162.604 52.644-195.518 127.956l-17.762 21.34v63.984c0 117.786 95.494 213.28 213.28 213.28s213.266-95.494 213.266-213.28v-63.984l-17.746-21.342z" fill="#F6BB42" /><path d="M725.266 213.396c0 117.786-95.48 213.28-213.266 213.28s-213.28-95.494-213.28-213.28C298.72 95.594 394.214 0.116 512 0.116s213.266 95.478 213.266 213.28z" fill="#FFCE54" /><path d="M512 128.088c-11.778 0-21.322 9.542-21.322 21.322v127.97c0 11.78 9.544 21.324 21.322 21.324 11.78 0 21.324-9.544 21.324-21.324V149.41c0-11.78-9.544-21.322-21.324-21.322z" fill="#E8AA3D" /><path d="M707.52 725.264c-32.93-75.296-108.07-127.972-195.52-127.972s-162.604 52.676-195.518 127.972l-17.762 21.338v63.986c0 117.816 95.494 213.294 213.28 213.294s213.266-95.478 213.266-213.294v-63.986l-17.746-21.338z" fill="#F6BB42" /><path d="M725.266 746.602c0 117.816-95.48 213.294-213.266 213.294s-213.28-95.478-213.28-213.294c0-117.786 95.494-213.28 213.28-213.28s213.266 95.494 213.266 213.28z" fill="#FFCE54" /><path d="M512 661.278c-11.778 0-21.322 9.56-21.322 21.338v127.972c0 11.778 9.544 21.338 21.322 21.338 11.78 0 21.324-9.56 21.324-21.338v-127.972c0-11.778-9.544-21.338-21.324-21.338z" fill="#E8AA3D" /></svg>