<?xml version="1.0" standalone="no"?><!DOCTYPE svg PUBLIC "-//W3C//DTD SVG 1.1//EN" "http://www.w3.org/Graphics/SVG/1.1/DTD/svg11.dtd"><svg class="icon" width="128px" height="128.00px" viewBox="0 0 1024 1024" version="1.1" xmlns="http://www.w3.org/2000/svg"><path d="M853.336 512.006c0 188.508-152.84 341.318-341.336 341.318S170.68 700.516 170.68 512.006c0-188.512 152.824-341.32 341.32-341.32s341.336 152.81 341.336 341.32z" fill="#FFCE54" /><path d="M512 170.686c-7.156 0-14.266 0.234-21.328 0.672 178.574 11.016 320.008 159.308 320.008 340.648 0 181.324-141.434 329.632-320.008 340.63 7.062 0.438 14.172 0.688 21.328 0.688 188.496 0 341.336-152.808 341.336-341.318S700.496 170.686 512 170.686z" fill="#FFFFFF" opacity=".2" /><path d="M64.026 192.014v639.968c0 11.782 9.546 21.342 21.328 21.342s21.328-9.56 21.328-21.342V192.014H64.026zM895.99 304.902v527.08c0 11.782 9.562 21.342 21.344 21.342 11.78 0 21.342-9.56 21.342-21.342v-527.08h-42.686z" fill="#CCD1D9" /><path d="M170.68 192.014c0-5.454-2.078-10.922-6.25-15.094-8.328-8.328-21.828-8.328-30.172 0a21.276 21.276 0 0 0-6.234 15.11v106.654H106.682V192.014a21.22 21.22 0 0 0-6.25-15.078c-8.328-8.344-21.828-8.344-30.172 0a21.212 21.212 0 0 0-6.234 15.094v106.654H42.682V192.014c0-5.454-2.078-10.922-6.248-15.078-8.328-8.344-21.828-8.344-30.172 0a21.27 21.27 0 0 0-6.234 15.078H0.012v106.668h0.016v95.998s42.654 32 85.326 32c42.67 0 85.326-32 85.326-32V192.014z" fill="#E6E9ED" /><path d="M725.34 512.006c0 117.794-95.532 213.322-213.34 213.322-117.81 0-213.324-95.528-213.324-213.322 0-117.81 95.514-213.324 213.324-213.324 117.808 0.002 213.34 95.514 213.34 213.324z" fill="#F6BB42" /><path d="M512 298.684c-7.188 0-14.312 0.36-21.328 1.046 107.826 10.718 192.012 101.654 192.012 212.276 0 110.606-84.186 201.54-192.012 212.258 7.016 0.688 14.14 1.062 21.328 1.062 117.808 0 213.34-95.528 213.34-213.322 0-117.808-95.532-213.32-213.34-213.32z" opacity=".1" /><path d="M1023.988 597.332h-127.998V170.686s127.998 52 127.998 213.324v213.322z" fill="#E6E9ED" /></svg>