<?xml version="1.0" standalone="no"?><!DOCTYPE svg PUBLIC "-//W3C//DTD SVG 1.1//EN" "http://www.w3.org/Graphics/SVG/1.1/DTD/svg11.dtd"><svg class="icon" width="128px" height="128.00px" viewBox="0 0 1024 1024" version="1.1" xmlns="http://www.w3.org/2000/svg"><path d="M303.068 433.984l-0.062-109.216h-72.28l0.25 109.216S194.946 810.896 194.946 938.77c0 42.624 18 85.214 72.06 85.214s72.092-42.592 72.092-85.214c0-127.874-36.03-504.786-36.03-504.786zM573.374 433.984l-0.062-109.216h-72.28l0.25 109.216s-36.03 376.912-36.03 504.786c0 42.624 18 85.214 72.062 85.214 54.06 0 72.09-42.592 72.09-85.214-0.002-127.874-36.03-504.786-36.03-504.786zM815.46 476.608h-63.216s-31.342 334.29-31.342 462.162c0 42.624 21.466 85.214 63.058 85.214 41.624 0 63.094-42.592 63.094-85.214 0-127.874-31.594-462.162-31.594-462.162z" fill="#F6BB42" /><path d="M207.694 14.026c-7.062-8.312-18.436-8.312-25.5 0-3.532 4.156-5.25 9.624-5.25 15.062v191.776h36V29.088c0-5.438-1.75-10.906-5.25-15.062zM279.756 14.026c-7.032-8.312-18.438-8.312-25.468 0-3.532 4.156-5.282 9.624-5.282 15.062v191.776h36.03V29.088c0-5.438-1.75-10.906-5.28-15.062zM357.128 29.088c0-5.438-1.782-10.906-5.282-15.062-7.032-8.312-18.468-8.312-25.468 0-3.532 4.156-5.312 9.624-5.312 15.062v191.776h36.062V29.088z" fill="#FFCE54" /><path d="M357.128 348.736s-45.062 42.624-90.124 42.624c-45.03 0-90.06-42.624-90.06-42.624v-127.872h180.184v127.872zM645.464 237.926c0 105.936-48.436 153.434-108.152 153.434-59.686 0-108.092-47.498-108.092-153.434 0-105.934 48.406-230.15 108.092-230.15 59.718 0 108.152 124.216 108.152 230.15zM711.902 476.608l35.78 42.594h72.28l0.062-507.676s-108.122-127.34-108.122 465.082z" fill="#FFCE54" /><path d="M814.93 6.87c-21.406-16.376-103.028-44.936-103.028 469.738l35.78 42.594h36.06l-35.81-42.594c0-343.836 36.404-445.208 66.998-469.738z" fill="#FFFFFF" opacity=".2" /><path d="M820.024 519.202h-72.062-0.032c-9.968 0-18.032 9.562-18.032 21.31 0 11.796 8.062 21.328 18.032 21.328h72.094c9.938 0 18.032-9.532 18.032-21.328-0.002-11.748-8.096-21.31-18.032-21.31z" fill="#FFCE54" /></svg>