<?xml version="1.0" standalone="no"?><!DOCTYPE svg PUBLIC "-//W3C//DTD SVG 1.1//EN" "http://www.w3.org/Graphics/SVG/1.1/DTD/svg11.dtd"><svg class="icon" width="128px" height="128.00px" viewBox="0 0 1024 1024" version="1.1" xmlns="http://www.w3.org/2000/svg"><path d="M809.816 512c0 164.45-133.336 297.816-297.816 297.816-164.482 0-297.816-133.368-297.816-297.816 0-164.48 133.334-297.846 297.816-297.846 164.48 0 297.816 133.366 297.816 297.846z" fill="#5E9CEA" /><path d="M752.864 480.01c-58.636 4.466-77.414-29.896-69.698-40.394 13.372-18.212 76.946 25.992 81.162-6.748 0.75-5.686 14.808-20.398 27.368-23.43-28.868-78.696-90.036-141.832-167.418-173.354-2.562 8.748-4.842 15.872-6.124 16.496-44.706 21.742-97.534 31.834-129.242 73.602-4.436 5.874-10.34 16.962-3.968 23.96 7.874 8.686 28.898-0.25 39.27 0.5 28.68 2.062 109.684 20.932 112.308 34.052s-30.74 37.926-63.324 19.932c-9.622-5.28-47.954-11.872-60.982-14.214-9.122-1.656-87.722 8.216-84.224 101.688 1.406 37.896 25.118 62.294 63.356 62.732 31.708 0.344 63.792-3.376 74.166 34.176 8.808 31.804 5.464 64.73 13.308 96.376 3.154 12.746 9.872 30.646 26.024 32.022 24.46 2.094 40.892-14.34 55.606-31.396 11.716-13.652 26.524-25.46 35.24-41.392 13.872-25.336 10.06-55.454 24.71-80.82 11.812-20.43 51.02-85.194 32.462-83.788zM309.75 570.014c-9.31-13.556-19.994-26.678-29.584-40.048-8.934-12.434-43.798-69.074-59.982-77.76A299.064 299.064 0 0 0 214.186 512c0 72.478 25.898 138.894 68.948 190.536 1.094 1.344 26.96-17.898 29.272-19.836 9.528-8.092 17.526-17.996 21.118-30.18 8.34-28.396-8.062-59.7-23.774-82.506z" fill="#9ED36A" /><path d="M1002.568 490.662c-11.778 0-21.338 9.56-21.338 21.338 0 63.356-12.372 124.776-36.832 182.602-23.648 55.858-57.482 106.06-100.562 149.14-43.114 43.114-93.316 76.946-149.174 100.594-57.794 24.432-119.244 36.834-182.6 36.834-63.356 0-124.806-12.402-182.632-36.834-55.858-23.648-106.03-57.48-149.142-100.594a467.518 467.518 0 0 1-30.708-33.832h106.562c11.778 0 21.306-9.56 21.306-21.338s-9.528-21.306-21.306-21.306H107.374c-1.032 0-2.03 0.094-3 0.218-1.782 0.25-3.5 0.718-5.124 1.376-0.062 0.032-0.124 0.032-0.188 0.062-1.156 0.5-2.282 1.094-3.312 1.782-0.094 0.062-0.218 0.124-0.312 0.188-0.468 0.312-0.906 0.688-1.376 1.032-0.094 0.062-0.156 0.124-0.25 0.188a12.526 12.526 0 0 0-0.936 0.876c-0.188 0.188-0.406 0.344-0.594 0.5-0.188 0.188-0.344 0.406-0.5 0.594-0.312 0.312-0.594 0.592-0.876 0.936-0.062 0.094-0.124 0.188-0.188 0.25a14.368 14.368 0 0 0-1.03 1.406l-0.188 0.282a20.98 20.98 0 0 0-3.218 8.624c-0.156 1-0.25 1.966-0.25 2.998v149.956c0 11.778 9.56 21.336 21.336 21.336s21.336-9.558 21.336-21.336v-87.41c93.752 105.934 230.742 172.726 383.352 172.726 282.664 0 511.844-229.18 511.844-511.844 0.006-11.784-9.552-21.344-21.332-21.344z" fill="#D94452" /><path d="M329.43 79.632c57.826-24.432 119.276-36.834 182.632-36.834 63.356 0 124.804 12.402 182.6 36.834 55.888 23.648 106.06 57.482 149.174 100.594a480.326 480.326 0 0 1 30.208 33.24h-106.06c-11.778 0-21.338 9.528-21.338 21.304 0 11.78 9.56 21.338 21.338 21.338h148.766c1.468 0 2.906-0.156 4.282-0.438a5.58 5.58 0 0 0 0.782-0.218c0.438-0.094 0.844-0.188 1.282-0.312 0.062-0.032 0.156-0.062 0.218-0.094 7.808-2.53 13.622-9.402 14.588-17.776 0.094-0.812 0.156-1.656 0.156-2.5V85.444c0-11.778-9.53-21.306-21.306-21.306s-21.336 9.53-21.336 21.306v87.41C801.628 66.918 664.64 0.156 512.062 0.156 230.118 0.156 1.468 228.086 0.218 509.718c-0.062 0.75-0.124 1.5-0.124 2.282 0 11.778 9.56 21.306 21.336 21.306S42.768 523.778 42.768 512h0.094c0-63.386 12.402-124.804 36.864-182.63 23.618-55.86 57.452-106.062 100.562-149.142 43.112-43.112 93.284-76.946 149.142-100.596z" fill="#EC5564" /><path d="M512 214.154c-7.186 0-14.278 0.282-21.338 0.78 154.546 10.936 276.51 139.74 276.51 297.066 0 157.296-121.962 286.102-276.51 297.036 7.06 0.5 14.152 0.782 21.338 0.782 164.48 0 297.816-133.368 297.816-297.816 0-164.482-133.336-297.848-297.816-297.848z" fill="#FFFFFF" opacity=".2" /></svg>