<?xml version="1.0" standalone="no"?><!DOCTYPE svg PUBLIC "-//W3C//DTD SVG 1.1//EN" "http://www.w3.org/Graphics/SVG/1.1/DTD/svg11.dtd"><svg class="icon" width="128px" height="128.00px" viewBox="0 0 1024 1024" version="1.1" xmlns="http://www.w3.org/2000/svg"><path d="M836.486 388.626S778.504 55.728 595.372 30.236c-112.28-15.62-217.904 38.426-233.71 150.642-15.464 112.248 60.45 163.418 180.382 151.954 184.07-17.558 294.442 55.794 294.442 55.794zM540.078 951.362s317.278 116.184 430.93-29.648c69.666-89.41 75.664-207.904-13.59-277.696-89.504-69.512-171.76-29.398-221.838 80.224-76.788 168.168-195.502 227.12-195.502 227.12zM201.772 408.37S-57.492 625.052 11.986 796.376c42.58 105.062 142.206 169.512 247.3 127.086 104.936-42.738 111.31-134.052 41.424-232.21-107.248-150.61-98.938-282.882-98.938-282.882z" fill="#9ED36A" /><path d="M608.93 179.876l0.032-0.032c-5.372-3.186-133.116-77.476-254.796-29.772-77.04 30.24-132.804 101.718-165.73 212.498 0 0.032-0.032 0.062-0.032 0.094s0 0.062-0.032 0.062c-1.906 6.53-0.718 13.872 3.904 19.556 7.436 9.122 20.87 10.498 30.022 3.062a21.426 21.426 0 0 0 6.966-10.466c28.96-97.5 76.132-159.764 140.238-185.006 102.124-40.174 216.59 25.992 217.748 26.68 7.466 4.406 17.184 3.968 24.304-1.812 9.124-7.434 10.496-20.868 3.062-29.99a20.542 20.542 0 0 0-5.686-4.874zM886.658 403.122l-0.06-0.062-0.062-0.062a21.298 21.298 0 0 0-18.872-6.374c-11.622 1.874-19.524 12.808-17.65 24.43a21.31 21.31 0 0 0 5.56 11.278v0.032c69.978 73.822 100.282 145.768 90.098 213.906-16.246 108.558-130.804 174.602-131.96 175.258-7.528 4.282-12.028 12.902-10.59 21.96 1.876 11.622 12.84 19.528 24.46 17.652a21.594 21.594 0 0 0 7.062-2.468c5.464-3.062 133.644-76.508 153.172-205.782 12.372-81.82-21.682-165.856-101.158-249.768zM506.054 941.926a21.214 21.214 0 0 0-12.558-0.812c-98.908 23.682-176.416 13.934-230.304-28.928C177.28 843.83 177.374 711.59 177.406 710.28h-0.032a21.29 21.29 0 0 0-13.714-20.152c-10.996-4.186-23.336 1.344-27.522 12.34a21.818 21.818 0 0 0-1.376 7.344c-0.094 6.246-0.562 154.016 101.626 235.55 42.58 33.992 96.064 51.046 159.764 51.046 32.99 0 68.76-4.59 107.154-13.776h0.032c0.032-0.032 0.062-0.032 0.062-0.032h0.032c6.624-1.594 12.372-6.31 14.966-13.152 4.184-10.996-1.346-23.336-12.344-27.522z" fill="#8AC054" /></svg>