<?xml version="1.0" standalone="no"?><!DOCTYPE svg PUBLIC "-//W3C//DTD SVG 1.1//EN" "http://www.w3.org/Graphics/SVG/1.1/DTD/svg11.dtd"><svg class="icon" width="128px" height="128.00px" viewBox="0 0 1024 1024" version="1.1" xmlns="http://www.w3.org/2000/svg"><path d="M1023.98 735.984c0 47.124-105.714 170.68-511.98 170.68S0.02 783.108 0.02 735.984 229.246 693.298 512 693.298c282.74 0 511.98-4.436 511.98 42.686z" fill="#424953" /><path d="M512 117.336c-200.29 0-362.658 28.654-362.658 63.996l21.342 575.962S256.01 799.982 512 799.982s341.3-42.688 341.3-42.688l21.376-575.962c0-35.342-162.372-63.996-362.676-63.996z" fill="#646C77" /><path d="M856.488 671.986S767.99 714.672 512 714.672 167.514 671.986 167.514 671.986l3.17 85.308S256.01 799.982 512 799.982s341.3-42.688 341.3-42.688l3.188-85.308z" fill="#EC5564" /><path d="M512 117.336c-7.156 0-14.264 0.046-21.328 0.11 190.352 1.954 341.318 29.81 341.318 63.886l-21.312 589.712 42.624-13.75 21.376-575.962C874.676 145.99 712.304 117.336 512 117.336z" fill="#FFFFFF" opacity=".2" /><path d="M874.676 181.332c0 35.344-162.372 63.998-362.676 63.998-200.29 0-362.658-28.654-362.658-63.998 0-35.342 162.37-63.996 362.658-63.996 200.304 0 362.676 28.654 362.676 63.996z" fill="#59616B" /></svg>