<?xml version="1.0" standalone="no"?><!DOCTYPE svg PUBLIC "-//W3C//DTD SVG 1.1//EN" "http://www.w3.org/Graphics/SVG/1.1/DTD/svg11.dtd"><svg class="icon" width="128px" height="128.00px" viewBox="0 0 1024 1024" version="1.1" xmlns="http://www.w3.org/2000/svg"><path d="M1014.608 984.912L718.462 688.736l-30.164 30.164 298.674 298.674 0.218-0.218a21.212 21.212 0 0 0 15.082 6.244c11.772 0 21.326-9.554 21.326-21.326 0.002-7.15-3.556-13.49-8.99-17.362z" fill="#434A54" /><path d="M0.4 426.692c0 235.442 190.85 426.292 426.292 426.292s426.292-190.852 426.292-426.292S662.132 0.4 426.692 0.4 0.4 191.25 0.4 426.692z" fill="#5D9CEC" /><path d="M426.692 0.4v426.292l367.776 215.676c37.158-63.294 58.516-136.986 58.516-215.676C852.982 191.25 662.132 0.4 426.692 0.4z" fill="#A0D468" /><path d="M426.692 0.4v426.292l367.776 215.676c37.158-63.294 58.516-136.986 58.516-215.676C852.982 191.25 662.132 0.4 426.692 0.4z" fill="#A0D468" /><path d="M784.788 195.342L426.692 402.086v24.606l21.14 12.396 358.312-206.87a435.88 435.88 0 0 0-21.356-36.876zM532.436 488.706l305.058-176.112a421.106 421.106 0 0 0-13.738-41.312l-333.614 192.63 42.294 24.794zM617.042 538.322l235.254-135.798a426.15 426.15 0 0 0-5.152-46.278l-272.38 157.284 42.278 24.792zM701.664 587.94l144.17-83.246c3.214-17.298 5.338-34.972 6.4-52.928l-192.88 111.38 42.31 24.794zM426.692 352.844l332.99-192.256a420.074 420.074 0 0 0-28.852-32.568L426.692 303.6v49.244zM426.692 254.388l271.224-156.596a431.276 431.276 0 0 0-37.468-27.604l-233.756 134.958v49.242zM426.692 155.904l191.1-110.32a418.922 418.922 0 0 0-49.086-20.922l-142.014 82.03v49.212z" fill="#8CC153" /><path d="M426.692 0.4C191.25 0.4 0.4 191.25 0.4 426.692s190.85 426.292 426.292 426.292 426.292-190.852 426.292-426.292S662.132 0.4 426.692 0.4z m271.286 697.578c-35.254 35.254-76.284 62.92-121.964 82.25-47.278 19.984-97.518 30.132-149.322 30.132-51.818 0-102.06-10.148-149.336-30.132-45.668-19.33-86.712-46.996-121.952-82.25-35.254-35.252-62.92-76.284-82.248-121.964-19.984-47.278-30.132-97.518-30.132-149.322 0-51.802 10.148-102.044 30.132-149.32 19.328-45.684 46.994-86.712 82.248-121.966 35.238-35.254 76.284-62.92 121.952-82.248 47.276-19.984 97.518-30.132 149.336-30.132 51.804 0 102.044 10.148 149.322 30.132 45.682 19.328 86.71 46.994 121.964 82.248 35.222 35.254 62.89 76.284 82.25 121.966 19.984 47.276 30.102 97.518 30.102 149.32 0 51.804-10.118 102.044-30.102 149.322-19.358 45.682-47.026 86.712-82.25 121.964z" fill="#434A54" /></svg>