<?xml version="1.0" standalone="no"?><!DOCTYPE svg PUBLIC "-//W3C//DTD SVG 1.1//EN" "http://www.w3.org/Graphics/SVG/1.1/DTD/svg11.dtd"><svg class="icon" width="128px" height="128.00px" viewBox="0 0 1024 1024" version="1.1" xmlns="http://www.w3.org/2000/svg"><path d="M576 853.32v-186.624h-128v186.624H0v128h1024v-128z" fill="#434A54" /><path d="M341.376 853.32h341.312v128H341.376zM448 511.992h128V853.32h-128z" fill="#CCD1D9" /><path d="M341.376 896.008h341.312v42.688H341.376z" fill="#E6E9ED" /><path d="M490.688 513.774h42.688v383.922h-42.688z" fill="#E6E9ED" /><path d="M170.688 149.336v469.36c0 58.876 152.812 106.624 341.312 106.624 188.532 0 341.376-47.75 341.376-106.624V149.336H170.688z" fill="#4A89DC" /><path d="M853.376 149.336c0 58.906-152.844 106.656-341.376 106.656-188.5 0-341.312-47.75-341.312-106.656S323.5 42.68 512 42.68c188.532 0 341.376 47.75 341.376 106.656z" fill="#5D9CEC" /><path d="M853.376 522.742v-74.75c0 58.938-152.844 106.704-341.376 106.704-188.5 0-341.312-47.766-341.312-106.704v74.75c0.5 0.376 0.968 0.718 1.468 1.094 21.032 15.532 49.906 29.11 85.782 40.296 68.5 21.438 158.718 33.188 254.062 33.188 95.376 0 185.624-11.75 254.124-33.188 35.876-11.188 64.75-24.766 85.75-40.296 0.502-0.344 1.002-0.718 1.502-1.094zM853.376 352.086v-74.75c0 58.906-152.844 106.656-341.376 106.656-188.5 0-341.312-47.75-341.312-106.656v74.718c0.5 0.376 0.968 0.75 1.468 1.124 21.032 15.532 49.906 29.094 85.782 40.312 68.5 21.406 158.718 33.188 254.062 33.188 95.376 0 185.624-11.782 254.124-33.188 35.876-11.218 64.75-24.782 85.75-40.312 0.502-0.374 1.002-0.718 1.502-1.092z" opacity=".1" /></svg>