<?xml version="1.0" standalone="no"?><!DOCTYPE svg PUBLIC "-//W3C//DTD SVG 1.1//EN" "http://www.w3.org/Graphics/SVG/1.1/DTD/svg11.dtd"><svg class="icon" width="128px" height="128.00px" viewBox="0 0 1024 1024" version="1.1" xmlns="http://www.w3.org/2000/svg"><path d="M698.948 296.542C568.83 158.09 617.106 0.4 617.106 0.4c-198.252 56.642-278.844 158.282-278.844 330.274-19.796-13.584-70.196-34.444-70.196-34.444C155.654 554.966 375.138 716.34 535.514 719.62c2.09 0.032 4.214 0.062 6.338 0.062 136.048 0 370.086-196.504 157.096-423.14z" fill="#FC6E51" /><path d="M684.272 416.886c-117.626-40.468-158.19-195.97-158.19-195.97-98.766 81.748-123.278 166.182-84.34 279.844-15.614-1.844-27.51-1.938-27.51-1.938l270.04-81.936z" fill="#FFCE54" /><path d="M831.532 704.068c0 176.458-143.076 319.532-319.532 319.532-176.486 0-319.532-143.074-319.532-319.532 0-176.486 143.044-319.532 319.532-319.532 176.456 0.002 319.532 143.046 319.532 319.532z" fill="#8CC153" /><path d="M831.532 661.446c0 176.488-143.076 319.532-319.532 319.532-176.486 0-319.532-143.042-319.532-319.532 0-176.456 143.044-319.532 319.532-319.532 176.456 0 319.532 143.076 319.532 319.532z" fill="#A0D468" /><path d="M512 363.242c-11.772 0-21.294 9.524-21.294 21.294s9.524 21.296 21.294 21.296c11.74 0 21.294-9.526 21.294-21.296S523.74 363.242 512 363.242zM512 917.09a21.28 21.28 0 0 0-21.294 21.294A21.28 21.28 0 0 0 512 959.68c11.74 0 21.294-9.524 21.294-21.296 0-11.77-9.554-21.294-21.294-21.294zM362.868 403.18c-10.18 5.9-13.678 18.922-7.776 29.102 5.872 10.18 18.89 13.678 29.102 7.806 10.18-5.902 13.678-18.924 7.776-29.102-5.872-10.21-18.892-13.678-29.102-7.806zM639.806 882.836c-10.18 5.87-13.678 18.922-7.806 29.102 5.9 10.18 18.924 13.678 29.102 7.806 10.18-5.902 13.678-18.924 7.806-29.102-5.902-10.21-18.922-13.678-29.102-7.806zM282.804 504.538c-10.18-5.872-23.202-2.374-29.104 7.806-5.87 10.18-2.374 23.202 7.806 29.102 10.18 5.872 23.232 2.374 29.104-7.806a21.304 21.304 0 0 0-7.806-29.102zM762.458 781.476c-10.178-5.9-23.2-2.404-29.102 7.806-5.872 10.18-2.372 23.202 7.806 29.07 10.18 5.902 23.232 2.404 29.104-7.774 5.87-10.178 2.404-23.23-7.808-29.102zM235.06 640.15c-11.772 0-21.296 9.554-21.296 21.294 0 11.772 9.526 21.328 21.296 21.328s21.294-9.556 21.294-21.328c0.002-11.738-9.522-21.294-21.294-21.294zM788.908 640.15c-11.74 0-21.296 9.554-21.296 21.294 0 11.772 9.556 21.328 21.296 21.328 11.774 0 21.296-9.556 21.296-21.328 0.032-11.738-9.522-21.294-21.296-21.294zM261.508 781.476c-10.18 5.872-13.676 18.892-7.806 29.104 5.902 10.178 18.924 13.676 29.104 7.804a21.306 21.306 0 0 0 7.806-29.102c-5.872-10.21-18.924-13.706-29.104-7.806zM762.458 541.446c10.21-5.9 13.678-18.922 7.808-29.102-5.872-10.18-18.924-13.678-29.104-7.806-10.178 5.902-13.678 18.922-7.806 29.102 5.904 10.178 18.926 13.676 29.102 7.806zM384.162 882.836c-10.18-5.872-23.2-2.404-29.07 7.806-5.902 10.178-2.404 23.2 7.776 29.102 10.21 5.872 23.23 2.374 29.102-7.806 5.902-10.18 2.404-23.232-7.808-29.102zM639.806 440.088c10.18 5.872 23.2 2.374 29.102-7.806 5.872-10.18 2.374-23.202-7.806-29.102-10.178-5.872-23.202-2.404-29.102 7.806-5.872 10.178-2.374 23.2 7.806 29.102z" fill="#8CC153" /><path d="M647.548 766.894l-114.254-114.254v-161.594c0-11.772-9.554-21.294-21.294-21.294a21.28 21.28 0 0 0-21.294 21.294v170.398a21.16 21.16 0 0 0 6.244 15.082l120.466 120.5a21.344 21.344 0 0 0 15.082 6.244 21.26 21.26 0 0 0 15.05-6.244 21.272 21.272 0 0 0 0-30.132z" fill="#434A54" /></svg>