<?xml version="1.0" standalone="no"?><!DOCTYPE svg PUBLIC "-//W3C//DTD SVG 1.1//EN" "http://www.w3.org/Graphics/SVG/1.1/DTD/svg11.dtd"><svg class="icon" width="128px" height="128.00px" viewBox="0 0 1024 1024" version="1.1" xmlns="http://www.w3.org/2000/svg"><path d="M782.493466 119.139785l-94.247814-40.37392-119.715764-42.655916-71.997857-17.655965-112.401779 17.655965-139.153725 147.151709s-36.373928 112.557778-36.373929 118.839766v109.497784l-25.687949 27.623946s35.24993 259.463488 34.467932 364.021281l27.591946 38.811924 25.593949 80.213842 94.465814 69.999862h85.497831l96.30981-51.999898 61.685879-76.871848 47.967905-116.091771 53.091895-91.55982 30.903939-42.687915 45.99991-142.463719 33.999932-132.21374v-134.059735l-37.997925-85.181832z" fill="#EAC6BB" /><path d="M420.75218 1023.992c-14.217972 0-28.559944-1.717997-42.903915-5.18799-97.373808-23.499954-172.37166-124.247755-160.463684-215.557575 1.531997-11.687977 12.249976-19.905961 23.903953-18.405963 11.687977 1.531997 19.905961 12.249976 18.405964 23.905953-4.249992 32.561936 7.155986 69.809862 31.311938 102.277798 24.717951 33.249934 60.029882 57.405887 96.841809 66.311869 42.279917 10.18798 85.059832 0.343999 123.745756-28.531944 49.029903-36.623928 90.529821-101.5578 123.309757-193.027619l0.967998-2.687995 1.623996-2.309995c0.531999-0.781998 54.653892-78.747845 100.745802-182.151641 75.687851-169.681665 72.405857-276.461455 56.375888-336.175337-8.593983-31.969937-23.281954-60.405881-43.623913-84.467833-22.437956-26.561948-52.497896-48.717904-89.371824-65.90587-65.343871-30.46794-126.55975-43.341915-181.935641-38.279924-47.935905 4.375991-91.621819 22.187956-129.839744 52.935895-47.591906 38.279924-86.37383 97.185808-109.247785 165.839673-20.02996 60.215881-26.029949 122.747758-16.029968 167.30767 2.561995 11.497977-4.655991 22.903955-16.155968 25.49795-11.499977 2.561995-22.905955-4.687991-25.49995-16.155968-11.593977-51.807898-5.15599-122.871758 17.217966-190.119625 25.40595-76.341849 69.091864-142.277719 122.963758-185.619634C390.000241 9.672001 506.122012-37.451906 679.647669 43.421934c82.185838 38.311924 134.747734 98.185806 156.183692 178.027649 14.437972 53.715894 14.561971 116.62177 0.375999 186.931631-11.153978 55.185891-31.091939 115.183773-59.309883 178.369649-43.781914 97.935807-93.059816 171.805661-102.779797 186.055633-35.52993 98.123806-81.623839 168.807667-137.027729 210.183585-36.339928 27.157946-75.93185 41.001919-116.337771 41.001919z" fill="#DBADA2" /><path d="M728.711573 256.605514c-33.153935-67.059868-79.995842-109.777783-139.245726-126.93375-106.091791-30.779939-211.993582 32.655936-216.431573 35.37393-10.06198 6.123988-13.249974 19.249962-7.123986 29.311943 6.123988 10.06198 19.249962 13.249974 29.311942 7.123986 0.935998-0.561999 94.121814-56.435889 182.369641-30.84194 47.281907 13.687973 85.249832 48.967903 112.873777 104.873794a21.363958 21.363958 0 0 0 19.123962 11.873976 21.219958 21.219958 0 0 0 9.435982-2.217996c10.561979-5.22199 14.905971-18.001964 9.685981-28.563943zM514.251996 339.041351c-62.623876-12.593975-123.873756 32.187937-126.435751 34.093933-9.467981 6.999986-11.437977 20.37596-4.437991 29.841941 7.031986 9.437981 20.40396 11.437977 29.841941 4.405991 0.499999-0.343999 49.061903-35.27993 92.623817-26.529947 20.12396 4.061992 36.311928 16.809967 49.465903 38.997923 28.123945 47.403906 7.093986 78.091846-39.215923 137.557728-15.905969 20.40596-33.937933 43.559914-50.5919 70.153862-31.561938 50.4999-37.093927 95.091812-40.74992 124.589754-1.311997 10.593979-3.093994 25.031951-5.623989 28.467944-0.499999 0.188-1.905996 0.531999-4.90599 0.499999-7.623985-0.062-13.905973-3.061994-19.747961-9.343981-14.687971-15.905969-24.875951-50.965899-28.655944-98.713806-3.061994-38.999923-0.843998-72.905856-0.811998-73.249855 0.781998-11.747977-8.093984-21.935957-19.843961-22.747955-11.749977-0.781998-21.905957 8.093984-22.717955 19.841961-0.124 1.467997-2.467995 36.937927 0.811998 78.937844 4.623991 59.215883 18.031964 101.2138 39.875922 124.871753 13.781973 14.875971 31.281938 22.875955 50.6539 23.061955h0.749998c24.967951 0 36.999927-12.967974 42.687916-23.905953 6.031988-11.623977 7.811985-25.905949 9.875981-42.467916 3.375993-27.309946 8.029984-64.713872 34.591931-107.213789 15.467969-24.717951 32.031937-45.999909 48.061906-66.559868 23.403954-30.029941 43.623914-55.99789 53.997893-84.683833 12.281976-33.875933 8.437983-66.841868-11.717977-100.873801-19.409962-32.687936-45.59591-52.563896-77.781846-59.031884z" fill="#DBADA2" /><path d="M1023.92499 21.393978c0-11.781977-9.531981-21.343958-21.311958-21.343958-5.905988 0-11.217978 2.405995-15.09197 6.249988L6.324998 987.524072a21.149958 21.149958 0 0 0-6.249988 15.06197c0 11.781977 9.531981 21.343958 21.311958 21.343958 5.905988 0 11.217978-2.405995 15.09397-6.249988L1017.675002 36.487948v-0.032a21.159958 21.159958 0 0 0 6.249988-15.06197z" fill="#434A54" /></svg>