<?xml version="1.0" standalone="no"?><!DOCTYPE svg PUBLIC "-//W3C//DTD SVG 1.1//EN" "http://www.w3.org/Graphics/SVG/1.1/DTD/svg11.dtd"><svg class="icon" width="128px" height="128.00px" viewBox="0 0 1024 1024" version="1.1" xmlns="http://www.w3.org/2000/svg"><path d="M708.682 456.814l-4.218-15.906H106.01l-4.218 15.906c-1.532 5.844-36.406 144.932 73.06 327.708l1.312 2.188 98.28 99.876 260.526-12.344 99.092-86.844 1.718-2.876c109.464-182.62 74.432-321.864 72.902-327.708z" fill="#434A54" /><path d="M743.838 812.086l-3.032-0.876c-43.874-11.782-58.716-23.094-78.246-30.532-69.282-26.402-87.312-45.434-91.906-54.402-0.188-0.344-0.312-0.688-0.468-1l-0.562-80.468-164.308-1.876-164.308 1.876-0.562 80.468c-0.156 0.312-0.282 0.656-0.468 1-4.594 8.968-22.624 28-91.904 54.402-19.53 7.438-34.374 18.75-78.25 30.532l-3.032 0.876C26.856 825.274 0.012 862.336 0.012 904.118v98.528H810.62v-98.528c0-41.782-26.844-78.844-66.782-92.032z" fill="#656D78" /><path d="M602.498 753.214c-21.25-12.282-29.062-21.468-31.844-26.938-0.188-0.344-0.312-0.688-0.468-1l-0.562-80.468-164.308-1.876-164.308 1.876-0.562 80.468c-0.156 0.312-0.282 0.656-0.468 1-2.782 5.468-10.594 14.656-31.842 26.938l197.308 121.434 197.054-121.434z" fill="#CCD1D9" /><path d="M633.31 489.064c0 148.152-141.216 284.492-227.996 284.492S177.32 637.214 177.32 489.064c0-148.154 102.06-245.87 227.996-245.87s227.994 97.716 227.994 245.87z" fill="#E6E9ED" /><path d="M709.588 460.22c-0.282-3.156-7.876-78.03-48.308-153.81-54.844-102.748-143.342-157.058-255.964-157.058-112.624 0-201.088 54.312-255.87 157.09-40.406 75.78-47.968 150.622-48.25 153.778-0.782 8 3 15.718 9.782 20.03 0.532 0.344 54.406 34.562 116.216 68.28 86.498 47.188 144.778 70.122 178.122 70.122s91.624-22.934 178.214-70.122c61.844-33.718 115.748-67.936 116.28-68.28a21.294 21.294 0 0 0 9.778-20.03z" fill="#656D78" /><path d="M694.746 1002.644L1023.988 182.226l-114.402-45.904-347.65 866.322z" fill="#A85D5D" /><path d="M757.026 75.104c-104.434-39.562-186.434-53.75-250.306-53.75-162.09 0-207.528 91.406-207.528 91.406s97.936 9.156 511.052 160.778l213.744-91.31-266.962-107.124z" fill="#FFCE54" /></svg>