<?xml version="1.0" standalone="no"?><!DOCTYPE svg PUBLIC "-//W3C//DTD SVG 1.1//EN" "http://www.w3.org/Graphics/SVG/1.1/DTD/svg11.dtd"><svg class="icon" width="128px" height="128.00px" viewBox="0 0 1024 1024" version="1.1" xmlns="http://www.w3.org/2000/svg"><path d="M1024 512c0 282.782-229.188 512-512 512C229.25 1024 0 794.782 0 512S229.25 0 512 0c282.812 0 512 229.218 512 512z" fill="#E6E9ED" /><path d="M1019.312 581.812A524.668 524.668 0 0 0 1024 512c0-3.906-0.062-7.782-0.124-11.624-3.876 9.282-12.062 19.906-23.688 30.532-23.688 21.562-60.376 42.282-106.124 59.938-48.876 18.812-106.124 33.688-170.124 44.124-67.062 10.906-138.312 16.438-211.938 16.438-73.562 0-144.876-5.532-211.876-16.438-64.062-10.438-121.312-25.312-170.124-44.124-45.75-17.656-82.438-38.376-106.124-59.938-11.688-10.624-19.812-21.25-23.75-30.532A675.326 675.326 0 0 0 0 512c0 23.688 1.624 46.968 4.75 69.812 90 73.124 283.312 123.718 507.25 123.718s417.25-50.592 507.312-123.718z" fill="#CCD1D9" /><path d="M788.938 255.032c49.5 49.468 57.5 121.688 17.938 161.25s-111.75 31.562-161.25-17.938c-49.5-49.438-57.5-121.656-17.938-161.25 39.624-39.562 111.812-31.562 161.25 17.938z" fill="#656D78" /></svg>