<?xml version="1.0" standalone="no"?><!DOCTYPE svg PUBLIC "-//W3C//DTD SVG 1.1//EN" "http://www.w3.org/Graphics/SVG/1.1/DTD/svg11.dtd"><svg class="icon" width="128px" height="128.00px" viewBox="0 0 1024 1024" version="1.1" xmlns="http://www.w3.org/2000/svg"><path d="M885.272 21.356c-29.466 0-53.342 23.874-53.342 53.342 0 25.812 18.312 47.31 42.686 52.248V74.698c0-5.876 4.75-10.688 10.656-10.688 5.876 0 10.656 4.812 10.656 10.688v74.654c0 11.782 9.562 21.344 21.344 21.344s21.344-9.562 21.344-21.344V74.698c0-29.47-23.876-53.342-53.344-53.342zM138.728 21.356c-29.468 0-53.344 23.874-53.344 53.342v74.654c0 11.782 9.562 21.344 21.344 21.344s21.344-9.562 21.344-21.344V74.698c0-5.876 4.782-10.688 10.656-10.688 5.906 0 10.656 4.812 10.656 10.688v52.248c24.374-4.938 42.686-26.436 42.686-52.248 0-29.47-23.874-53.342-53.342-53.342z" fill="#5D9CEC" /><path d="M746.62 469.344H277.288c-23.562 0-42.654 19.094-42.654 42.656v469.332c0 23.562 19.092 42.656 42.654 42.656H746.62c23.562 0 42.656-19.094 42.656-42.656V512c0-23.562-19.094-42.656-42.656-42.656z m0 511.988H277.288V512H746.62v469.332z" fill="#CCD1D9" /><path d="M832.118 213.35h-0.188v42.656h0.188l-0.094 597.33h-170.276c0 23.56 19.124 42.654 42.686 42.654h127.59c23.594 0 42.654-19.094 42.654-42.654l0.124-597.33c0-23.56-19.122-42.656-42.684-42.656z" fill="#656D78" /><path d="M831.93 0.012h-63.998c-23.562 0-42.656 19.124-42.656 42.686v170.652c0 23.564 19.094 42.656 42.656 42.656h106.684V0.012h-42.686z" fill="#E6E9ED" /><path d="M725.65 64.042h-0.376v42.624c0.124 0 0.25 0.032 0.376 0.032 11.782 0 21.344-9.562 21.344-21.344s-9.562-21.312-21.344-21.312zM725.65 149.352c-0.124 0-0.25 0.032-0.376 0.032v42.624h0.376c11.782 0 21.344-9.532 21.344-21.312s-9.562-21.344-21.344-21.344z" fill="#CCD1D9" /><path d="M192.07 853.336h-0.094l-0.094-597.33h0.188v-42.656h-0.188c-23.562 0-42.686 19.096-42.686 42.656l0.124 597.33c0 23.56 19.06 42.654 42.654 42.654h127.59c23.562 0 42.688-19.094 42.688-42.654H192.07z" fill="#656D78" /><path d="M256.068 0.012H149.384v255.994h106.684c23.562 0 42.656-19.092 42.656-42.656V42.698c0-23.562-19.094-42.686-42.656-42.686z" fill="#E6E9ED" /><path d="M277.38 85.354c0 11.782 9.562 21.344 21.344 21.344V64.042c-11.78 0-21.344 9.53-21.344 21.312zM277.38 170.696c0 11.782 9.562 21.312 21.344 21.312V149.352c-11.78 0-21.344 9.562-21.344 21.344z" fill="#CCD1D9" /><path d="M277.288 959.988c-11.782 0-21.344-9.562-21.344-21.312V469.344c0-11.75 9.562-21.344 21.344-21.344H746.62c11.75 0 21.312 9.594 21.312 21.344v469.332c0 11.75-9.562 21.312-21.312 21.312H277.288z" fill="#5D9CEC" /><path d="M529.312 724.026l-40.75-122.186-30.436 38.188h-183.87V597.34h163.34l66.622-83.496 40.594 121.746 30.186-38.25h200.872v42.688h-180.184z" fill="#4A89DC" /><path d="M746.62 426.69H277.288c-23.562 0-42.654 19.092-42.654 42.654v469.332c0 23.562 19.092 42.656 42.654 42.656H746.62c23.562 0 42.656-19.094 42.656-42.656V469.344c0-23.562-19.094-42.654-42.656-42.654z m0 511.986H277.288V469.344H746.62v469.332z" fill="#E6E9ED" /><path d="M255.006 767.992h513.3v182.246h-513.3z" fill="#E6E9ED" /><path d="M703.934 874.678c0 11.782-9.562 21.312-21.312 21.312-11.81 0-21.342-9.532-21.342-21.312 0-11.78 9.532-21.342 21.342-21.342 11.75 0 21.312 9.562 21.312 21.342z" fill="#ED5564" /><path d="M426.626 853.336h-85.342c-11.782 0-21.344 9.562-21.344 21.342 0 11.782 9.562 21.312 21.344 21.312h85.342c11.75 0 21.312-9.532 21.312-21.312 0.002-11.78-9.562-21.342-21.312-21.342z" fill="#434A54" /></svg>