<?xml version="1.0" standalone="no"?><!DOCTYPE svg PUBLIC "-//W3C//DTD SVG 1.1//EN" "http://www.w3.org/Graphics/SVG/1.1/DTD/svg11.dtd"><svg class="icon" width="128px" height="128.00px" viewBox="0 0 1024 1024" version="1.1" xmlns="http://www.w3.org/2000/svg"><path d="M844.988 449.47c-31.874-39.936-49.56-89.654-52.592-147.808-2.282-44.342 5.312-77.154 5.376-77.436l7.782-32.374-32.656 6.468c-74.81 14.782-134.372 48.03-177.122 98.84-35.404 42.062-59.576 96.778-72.074 162.902-6.796-3.186-12.782-6.436-15.876-10.5l-23.608-30.874-13.376 36.5c-19.124 52.124-26.28 102.31-21.296 149.12 4.562 42.782 19.046 81.906 43.046 116.282 24.108 34.528 57.466 63.184 96.464 82.902 36.844 18.624 76.876 28.5 115.78 28.594h0.468c0.124 0 0.218 0.032 0.344 0.032h21.216l0.032-1.218c31.124-3.406 62.468-14 90.124-30.656 35.936-21.656 64.028-52.032 81.246-87.872 22.002-45.75 44.346-140.716-53.278-262.902z" fill="#FFCE54" /><path d="M844.988 449.47c-31.874-39.936-49.56-89.654-52.592-147.808-2.282-44.342 5.312-77.154 5.376-77.436l7.782-32.374-32.656 6.468c-4.124 0.812-8.188 1.688-12.188 2.624l-5.594 23.28c-0.062 0.282-7.656 33.092-5.376 77.436 3 58.156 20.688 107.872 52.594 147.808 97.622 122.186 75.278 217.15 53.28 262.9-17.218 35.84-45.31 66.214-81.248 87.872-27.656 16.656-59 27.25-90.154 30.656v0.218c6.906 0.624 13.782 0.938 20.624 0.968h0.468c0.124 0 0.218 0.032 0.344 0.032h21.216l0.032-1.218c31.124-3.406 62.468-14 90.124-30.656 35.936-21.656 64.028-52.032 81.246-87.872 22.002-45.746 44.346-140.712-53.278-262.898z" fill="#FFFFFF" opacity=".2" /><path d="M384.016 618.808h-42.67V213.478c0-0.062-0.016-0.094-0.016-0.156-0.062-6.656-3.204-13.218-9.078-17.312-9.656-6.75-22.968-4.406-29.718 5.25L3.872 627.902c-6.75 9.656-4.406 22.968 5.25 29.718a21.286 21.286 0 0 0 12.218 3.844H298.678v149.34c0 11.782 9.562 21.344 21.342 21.344 11.782 0 21.328-9.562 21.328-21.344v-149.34h42.67c11.782 0 21.328-9.532 21.328-21.312s-9.548-21.344-21.33-21.344z m-321.694 0l236.354-337.646v337.646H62.322z" fill="#FFCE54" /><path d="M938.642 192.134c-47.124 0-85.31 38.218-85.31 85.342 0 47.124 38.186 85.342 85.31 85.342s85.34-38.218 85.34-85.342c0-47.124-38.216-85.342-85.34-85.342z m0 127.996c-23.5 0-42.656-19.124-42.656-42.654 0-23.532 19.156-42.656 42.656-42.656 23.532 0 42.686 19.124 42.686 42.656 0 23.53-19.154 42.654-42.686 42.654z" fill="#ED5564" /></svg>