<?xml version="1.0" standalone="no"?><!DOCTYPE svg PUBLIC "-//W3C//DTD SVG 1.1//EN" "http://www.w3.org/Graphics/SVG/1.1/DTD/svg11.dtd"><svg class="icon" width="128px" height="128.00px" viewBox="0 0 1024 1024" version="1.1" xmlns="http://www.w3.org/2000/svg"><path d="M181.486 139.112l618.156 165.628-165.622 618.14L15.864 757.254z" fill="#FFCE54" /><path d="M522.596 432.05l-46.718 9.564-35.686-31.626-46.748 9.562-35.686-31.654 52.372-188.15 164.84 44.186zM1023.988 21.344c0-11.782-9.562-21.312-21.342-21.312-4.656 0-8.968 1.5-12.468 4.032h-0.032l-191.122 138.12-170.432 636.154 41.216 11.032 166.528-621.498 178.806-129.214v-0.032c5.346-3.876 8.846-10.158 8.846-17.282zM26.862 716.058C15.486 713.026 3.8 719.776 0.738 731.15c-3.03 11.376 3.718 23.094 15.094 26.124 0.032 0.032 0.062 0.032 0.062 0.032l597.544 159.246 10.968-41.218-597.544-159.276z" fill="#E6E9ED" /><path d="M494.786 862.802c-18.282 68.282 22.248 138.464 90.53 156.778 68.278 18.282 138.464-22.218 156.744-90.496 18.312-68.282-22.216-138.464-90.498-156.778-68.278-18.28-138.466 22.22-156.776 90.496z" fill="#434A54" /><path d="M660.124 907.834c-6.094 22.75-29.498 36.282-52.248 30.156-22.748-6.094-36.248-29.468-30.154-52.218 6.094-22.782 29.498-36.28 52.248-30.186 22.746 6.092 36.246 29.498 30.154 52.248z" fill="#E6E9ED" /></svg>