<?xml version="1.0" standalone="no"?><!DOCTYPE svg PUBLIC "-//W3C//DTD SVG 1.1//EN" "http://www.w3.org/Graphics/SVG/1.1/DTD/svg11.dtd"><svg class="icon" width="128px" height="128.00px" viewBox="0 0 1024 1024" version="1.1" xmlns="http://www.w3.org/2000/svg"><path d="M810.646 21.334H213.336L0.016 234.672v150.654l1023.968 29.138v-179.792z" fill="#F6BB42" /><path d="M0.016 234.672h1023.968v767.992H0.016z" fill="#FFCE54" /><path d="M597.31 21.334h-170.652l-42.67 213.338h256.008z" fill="#E6E9ED" /><path d="M639.996 426.666l-42.686 21.33-42.656-21.33-42.67 21.33-42.654-21.33-42.672 21.33-42.67-21.33v-191.994h256.008z" fill="#F5F7FA" /><path d="M319.99 789.296H106.668c-11.782 0-21.328 9.562-21.328 21.376 0 11.75 9.546 21.312 21.328 21.312h213.322c11.782 0 21.342-9.562 21.342-21.312 0-11.812-9.56-21.376-21.342-21.376zM213.336 874.668H106.668c-11.782 0-21.328 9.5-21.328 21.312 0 11.75 9.546 21.312 21.328 21.312h106.668c11.782 0 21.328-9.562 21.328-21.312 0-11.812-9.546-21.312-21.328-21.312z" fill="#434A54" /></svg>