<?xml version="1.0" standalone="no"?><!DOCTYPE svg PUBLIC "-//W3C//DTD SVG 1.1//EN" "http://www.w3.org/Graphics/SVG/1.1/DTD/svg11.dtd"><svg class="icon" width="128px" height="128.00px" viewBox="0 0 1024 1024" version="1.1" xmlns="http://www.w3.org/2000/svg"><path d="M223.04 256.008H21.358c-11.782 0-21.342 9.562-21.342 21.342 0 11.782 9.56 21.328 21.342 21.328H223.04v-42.67zM265.726 384.004H64.014c-11.782 0-21.344 9.546-21.344 21.328 0 11.796 9.562 21.342 21.344 21.342h201.712v-42.67zM308.38 512H106.668c-11.782 0-21.344 9.546-21.344 21.328 0 11.794 9.562 21.358 21.344 21.358H308.38V512zM149.322 639.996c-11.782 0-21.31 9.562-21.31 21.312 0 11.812 9.53 21.342 21.31 21.342h201.712v-42.654H149.322zM852.708 341.458l-126.182-0.11h-83.5l-3.092 383.956h383.612L1023.984 512z" fill="#E6E9ED" /><path d="M725.244 682.65c0 23.562-19.094 42.654-42.656 42.654H213.32c-23.56 0-42.654-19.092-42.654-42.654l0.032-426.642c0-23.562 19.124-42.656 42.654-42.656H682.62c23.562 0 42.656 19.094 42.656 42.656l-0.032 426.642z" fill="#A0D468" /><path d="M256.008 703.994c0 58.904 47.748 106.654 106.652 106.654s106.654-47.75 106.654-106.654c0-58.936-47.75-106.686-106.654-106.686s-106.652 47.75-106.652 106.686z" fill="#434A54" /><path d="M341.316 703.994c0 11.782 9.562 21.31 21.344 21.31s21.344-9.53 21.344-21.31-9.562-21.344-21.344-21.344-21.344 9.562-21.344 21.344z" fill="#F5F7FA" /><path d="M746.648 703.994c0 58.904 47.748 106.654 106.654 106.654 58.902 0 106.652-47.75 106.652-106.654 0-58.936-47.75-106.686-106.652-106.686-58.906 0-106.654 47.75-106.654 106.686z" fill="#434A54" /><path d="M831.958 703.994c0 11.782 9.562 21.31 21.344 21.31s21.312-9.53 21.312-21.31-9.532-21.344-21.312-21.344-21.344 9.562-21.344 21.344z" fill="#F5F7FA" /></svg>