<?xml version="1.0" standalone="no"?><!DOCTYPE svg PUBLIC "-//W3C//DTD SVG 1.1//EN" "http://www.w3.org/Graphics/SVG/1.1/DTD/svg11.dtd"><svg class="icon" width="128px" height="128.00px" viewBox="0 0 1024 1024" version="1.1" xmlns="http://www.w3.org/2000/svg"><path d="M810.678 21.334H213.336L0.016 234.672v150.654l1023.968 29.122v-179.776z" fill="#F6BB42" /><path d="M789.302 1002.664H0.016V234.672h1023.968v533.312z" fill="#FFCE54" /><path d="M597.31 21.334h-170.636l-42.67 255.994h255.992z" fill="#E6E9ED" /><path d="M639.996 426.666l-42.686 21.314-42.624-21.314L512 447.98l-42.67-21.314-42.656 21.314-42.67-21.314v-191.994h255.992z" fill="#F5F7FA" /><path d="M320.006 789.296H106.684c-11.782 0-21.344 9.562-21.344 21.376 0 11.75 9.562 21.312 21.344 21.312h213.322c11.782 0 21.326-9.562 21.326-21.312 0-11.812-9.544-21.376-21.326-21.376zM213.336 874.668H106.684c-11.782 0-21.344 9.5-21.344 21.312 0 11.75 9.562 21.312 21.344 21.312h106.652c11.782 0 21.344-9.562 21.344-21.312 0-11.812-9.562-21.312-21.344-21.312z" fill="#434A54" /><path d="M554.686 767.984c0-129.622 105.058-234.664 234.618-234.664 129.622 0 234.682 105.042 234.682 234.664s-105.06 234.68-234.682 234.68c-129.56 0-234.618-105.058-234.618-234.68z" fill="#ED5564" /><path d="M894.926 843.422l-84.248-84.25v-119.184c0-11.812-9.562-21.312-21.376-21.312-11.75 0-21.31 9.5-21.31 21.312v127.996a21.1 21.1 0 0 0 6.25 15.062l90.498 90.496a21.272 21.272 0 0 0 30.186 0c8.312-8.312 8.312-21.808 0-30.12z" fill="#434A54" /></svg>