<?xml version="1.0" standalone="no"?><!DOCTYPE svg PUBLIC "-//W3C//DTD SVG 1.1//EN" "http://www.w3.org/Graphics/SVG/1.1/DTD/svg11.dtd"><svg class="icon" width="128px" height="128.00px" viewBox="0 0 1024 1024" version="1.1" xmlns="http://www.w3.org/2000/svg"><path d="M25.9 949.36c-3.344 0-5.438-0.124-5.876-0.124-11.75-0.75-20.686-10.876-19.968-22.622 0.75-11.782 10.844-20.718 22.624-19.968 0.062 0 11.594 0.594 26.124-1.968 12.282-2.188 29.5-7.188 41.562-18.624 10.968-10.376 16.312-24.594 16.312-43.438v-106.684c0-11.782 9.562-21.312 21.344-21.312 11.78 0 21.342 9.532 21.342 21.312v106.684c0 30.906-10.062 56.032-29.906 74.656C88.242 946.61 42.18 949.36 25.9 949.36z" fill="#434A54" /><path d="M959.992 181.292c-11.782 0-21.344-9.562-21.344-21.342V138.638c0-11.782 9.562-21.344 21.344-21.344s21.312 9.562 21.312 21.344v21.312c0 11.78-9.53 21.342-21.312 21.342zM426.668 245.29h426.64v63.998h-426.64z" fill="#656D78" /><path d="M357.108 304.882l-87.122 24.062 26.06 86.996h130.622l44.06-85.308z" fill="#ED5564" /><path d="M149.364 138.638c-11.812 0-21.342-9.562-21.342-21.344V95.952c0-11.78 9.53-21.312 21.342-21.312 11.75 0 21.312 9.532 21.312 21.312v21.342c0 11.782-9.562 21.344-21.312 21.344z" fill="#CCD1D9" /><path d="M160.02 565.282H96.022c-11.782 0-21.342 9.532-21.342 21.34v149.308c0 11.782 9.562 21.344 21.342 21.344H160.02c11.78 0 21.342-9.562 21.342-21.344v-149.308c0.002-11.81-9.562-21.34-21.342-21.34z" fill="#656D78" /><path d="M1002.648 138.638H128.022c-11.782 0-21.344 9.532-21.344 21.312v85.34c0 11.782 9.562 21.344 21.344 21.344h874.626c11.782 0 21.342-9.562 21.342-21.344v-85.34c0-11.782-9.56-21.312-21.342-21.312z" fill="#AAB2BC" /><path d="M639.972 198.448a21.47 21.47 0 0 0-9.124-13.594l-128.37-85.34a21.408 21.408 0 0 0-11.812-3.562H106.678a21.28 21.28 0 0 0-19.062 11.812L72.18 138.638H42.68a21.326 21.326 0 0 0-20.688 16.156L0.65 240.102c-2.844 11.376 4.032 22.938 15.406 25.844 0.282 0.094 29.936 7.78 61.154 20.686 47.592 19.656 60.81 35.218 64.498 42.312L1.87 641.902c-2.938 6.594-2.344 14.25 1.594 20.312s10.656 9.718 17.906 9.718H106.68c1.406 0 2.782-0.124 4.156-0.406l107.372-21.344a21.214 21.214 0 0 0 15.936-13.782l100.934-284.46h198.272c7.094 0 13.75-3.532 17.718-9.468l85.716-127.996a21.46 21.46 0 0 0 3.188-16.028z" fill="#E6E9ED" /><path d="M360.358 105.606a21 21 0 0 0 2.312-9.656h-45.248l-17.124 33.718c-5.344 10.5-1.156 23.342 9.344 28.686a21.322 21.322 0 0 0 28.688-9.374l22.028-43.374zM374.358 158.356a21.284 21.284 0 0 0 9.624 2.312c7.782 0 15.282-4.282 19.032-11.686l22.03-43.376a21 21 0 0 0 2.312-9.656h-45.25l-17.124 33.718c-5.344 10.5-1.156 23.344 9.376 28.688zM439.042 158.356a21.408 21.408 0 0 0 9.656 2.312c7.75 0 15.25-4.282 19.032-11.686l22.03-43.376a21.02 21.02 0 0 0 2.282-9.592 18.93 18.93 0 0 0-1.376-0.062h-43.874l-17.092 33.718c-5.344 10.498-1.158 23.342 9.342 28.686zM312.796 287.944l-12.844 42.688-124.184 101.372 37.592 55.092s31.092 0.624 73.28 1.344l48.436-136.496h198.272c7.094 0 13.75-3.532 17.718-9.468l36.53-54.53h-274.8z" fill="#CCD1D9" /><path d="M80.366 287.944c45 19.032 57.748 34.062 61.342 41L1.87 641.902c-2.938 6.594-2.344 14.25 1.594 20.312s10.656 9.718 17.906 9.718H106.68c1.406 0 2.782-0.124 4.156-0.406l107.372-21.344a21.214 21.214 0 0 0 15.936-13.782l100.934-284.46-22.28-63.998H80.366z" fill="#AAB2BC" /></svg>