<?xml version="1.0" standalone="no"?><!DOCTYPE svg PUBLIC "-//W3C//DTD SVG 1.1//EN" "http://www.w3.org/Graphics/SVG/1.1/DTD/svg11.dtd"><svg class="icon" width="128px" height="128.00px" viewBox="0 0 1024 1024" version="1.1" xmlns="http://www.w3.org/2000/svg"><path d="M618.684 639.996H21.36c-11.78 0-21.342 9.562-21.342 21.344v85.308c0 11.782 9.562 21.344 21.342 21.344h597.324c11.782 0 21.312-9.562 21.312-21.344V661.34c0-11.782-9.532-21.344-21.312-21.344z" fill="#AAB2BC" /><path d="M639.934 659.684l-42.656-554.64c-0.844-11.124-10.124-19.686-21.282-19.686H64.014c-11.124 0-20.406 8.562-21.25 19.686L0.08 659.684a21.378 21.378 0 0 0 5.624 16.124 21.284 21.284 0 0 0 15.656 6.844h597.324c5.938 0 11.594-2.468 15.656-6.844a21.234 21.234 0 0 0 5.594-16.124z" fill="#CCD1D9" /><path d="M533.344 597.34H106.7c-11.78 0-21.342-9.562-21.342-21.344 0-11.778 9.562-21.34 21.342-21.34h426.644c11.782 0 21.344 9.562 21.344 21.34 0 11.782-9.564 21.344-21.344 21.344z" fill="#AAB2BC" /><path d="M405.348 448.002c-11.782 0-21.344-9.562-21.344-21.344v-21.312c0-11.782 9.562-21.342 21.344-21.342 11.78 0 21.342 9.562 21.342 21.342v21.312c0 11.782-9.562 21.344-21.342 21.344zM320.006 448.002c-11.78 0-21.312-9.562-21.312-21.344v-21.312c0-11.782 9.532-21.342 21.312-21.342 11.782 0 21.344 9.562 21.344 21.342v21.312c0 11.782-9.562 21.344-21.344 21.344zM234.634 448.002c-11.78 0-21.342-9.562-21.342-21.344v-21.312c0-11.782 9.562-21.342 21.342-21.342 11.782 0 21.312 9.562 21.312 21.342v21.312c0 11.782-9.53 21.344-21.312 21.344zM143.106 484.408c-8.342 8.344-21.842 8.344-30.156 0-8.342-8.312-8.342-21.842 0-30.156 8.312-8.342 21.812-8.342 30.156 0 8.344 8.312 8.344 21.842 0 30.156zM527.094 484.408c-8.344 8.344-21.844 8.344-30.156 0-8.344-8.312-8.344-21.842 0-30.156 8.312-8.342 21.812-8.342 30.156 0 8.344 8.312 8.344 21.842 0 30.156z" fill="#434A54" /><path d="M128.012 234.666H512v85.342H128.012z" fill="#656D78" /><path d="M512 213.354H128.012a21.3 21.3 0 0 0-21.312 21.312v85.342c0 11.782 9.532 21.342 21.312 21.342H512c11.782 0 21.344-9.562 21.344-21.342v-85.342c0-11.782-9.562-21.312-21.344-21.312z m-21.312 85.31H149.356v-42.654h341.334v42.654z" fill="#AAB2BC" /><path d="M447.94 106.232H192.01c-11.782 0-21.312 9.562-21.312 21.344v149.776h298.584V127.576c0.002-11.782-9.562-21.344-21.342-21.344z" fill="#FFCE54" /><path d="M447.94 106.232h-21.312c11.782 0 21.312 9.562 21.312 21.344v149.776h21.344V127.576c0-11.782-9.564-21.344-21.344-21.344z" fill="#F6BB42" /><path d="M490.688 661.34h511.984v255.992H490.688z" fill="#F5F7FA" /><path d="M1002.672 639.996H490.688c-11.782 0-21.342 9.562-21.342 21.344v255.992c0 11.782 9.562 21.308 21.342 21.308h511.984a21.294 21.294 0 0 0 21.312-21.308V661.34c0-11.782-9.53-21.344-21.312-21.344z m-21.344 255.992H512V682.652h469.328v213.336z" fill="#E6E9ED" /><path d="M853.332 746.648c0 11.782-9.562 21.344-21.344 21.344s-21.312-9.562-21.312-21.344 9.532-21.312 21.312-21.312 21.344 9.532 21.344 21.312zM938.672 746.648c0 11.782-9.562 21.344-21.34 21.344-11.782 0-21.344-9.562-21.344-21.344s9.562-21.312 21.344-21.312c11.778 0 21.34 9.532 21.34 21.312z" fill="#ED5564" /><path d="M853.332 831.988c0 11.782-9.562 21.344-21.344 21.344s-21.312-9.562-21.312-21.344 9.532-21.344 21.312-21.344 21.344 9.564 21.344 21.344z" fill="#434A54" /><path d="M767.992 874.644c0 11.782-9.532 21.344-21.312 21.344s-21.344-9.562-21.344-21.344 9.562-21.312 21.344-21.312 21.312 9.532 21.312 21.312z" fill="#AAB2BC" /><path d="M938.672 831.988c0 11.782-9.562 21.344-21.34 21.344-11.782 0-21.344-9.562-21.344-21.344s9.562-21.344 21.344-21.344c11.778 0 21.34 9.564 21.34 21.344zM661.34 810.644h-85.344c-11.782 0-21.308-9.528-21.308-21.308s9.528-21.344 21.308-21.344h85.344c11.782 0 21.34 9.562 21.34 21.344s-9.558 21.308-21.34 21.308z" fill="#434A54" /><path d="M618.684 853.332c-11.782 0-21.344-9.562-21.344-21.344v-85.34c0-11.782 9.562-21.312 21.344-21.312s21.312 9.532 21.312 21.312v85.34c0 11.782-9.532 21.344-21.312 21.344zM405.348 405.348h-170.714c-11.78 0-21.342 9.53-21.342 21.312v63.998c0 11.782 9.562 21.344 21.342 21.344h170.714c11.78 0 21.342-9.562 21.342-21.344V426.66c0-11.782-9.562-21.312-21.342-21.312z" fill="#656D78" /></svg>