<?xml version="1.0" standalone="no"?><!DOCTYPE svg PUBLIC "-//W3C//DTD SVG 1.1//EN" "http://www.w3.org/Graphics/SVG/1.1/DTD/svg11.dtd"><svg class="icon" width="128px" height="128.00px" viewBox="0 0 1024 1024" version="1.1" xmlns="http://www.w3.org/2000/svg"><path d="M212.438 567.438H811.5l79.688-172.438c16.75-35.718 26.124-75.594 26.124-117.688C917.312 124.156 793.188 0 640 0c-46.188 0-89.688 11.282-128 31.25C473.688 11.282 430.188 0 384 0 230.812 0 106.688 124.156 106.688 277.312c0 42.094 9.376 81.968 26.124 117.688l79.626 172.438z" fill="#E6E9ED" /><path d="M175.876 94.032S246.252 72.626 384 85.314c46 4.25 89.688 11.312 128 31.282V31.25C473.688 11.282 430.188 0 384 0c-82.876 0-157.312 36.376-208.124 94.032zM848.124 94.032S777.748 72.626 640 85.314c-46 4.25-89.688 11.312-128 31.282V31.25C550.312 11.282 593.812 0 640 0c82.876 0 157.312 36.376 208.124 94.032z" fill="#CCD1D9" /><path d="M576 960c0 35.344-28.624 64-64 64s-64-28.656-64-64 28.624-64 64-64 64 28.656 64 64z" fill="#F6BB42" /><path d="M405.312 994.094c-23.5 0-42.624-19.124-42.624-42.656s19.124-42.656 42.624-42.656h213.376c23.5 0 42.624 19.124 42.624 42.656s-19.124 42.656-42.624 42.656H405.312zM320 823.438c-23.5 0-42.688-19.156-42.688-42.656 0-23.532 19.188-42.688 42.688-42.688h384c23.5 0 42.688 19.156 42.688 42.688 0 23.5-19.188 42.656-42.688 42.656H320z" fill="#FFCE54" /><path d="M277.312 738.094c-23.5 0-42.624-19.124-42.624-42.656s19.124-42.656 42.624-42.656h469.376c23.5 0 42.624 19.124 42.624 42.656s-19.124 42.656-42.624 42.656H277.312z" fill="#F6BB42" /><path d="M234.688 652.782c-23.562 0-42.688-19.156-42.688-42.688s19.124-42.656 42.688-42.656h554.624c23.562 0 42.688 19.124 42.688 42.656s-19.124 42.688-42.688 42.688H234.688z" fill="#FFCE54" /><path d="M362.688 908.782c-23.562 0-42.688-19.156-42.688-42.688s19.124-42.656 42.688-42.656h298.624c23.562 0 42.688 19.124 42.688 42.656s-19.124 42.688-42.688 42.688H362.688z" fill="#F6BB42" /></svg>