<?xml version="1.0" standalone="no"?><!DOCTYPE svg PUBLIC "-//W3C//DTD SVG 1.1//EN" "http://www.w3.org/Graphics/SVG/1.1/DTD/svg11.dtd"><svg class="icon" width="128px" height="128.00px" viewBox="0 0 1024 1024" version="1.1" xmlns="http://www.w3.org/2000/svg"><path d="M1017.734 201.01l-45.436-45.436-30.188 30.156L987.58 231.2c8.342 8.342 21.842 8.342 30.154 0a21.334 21.334 0 0 0 0-30.19z" fill="#434A54" /><path d="M866.894 50.17L211.222 705.844c-46.842 46.84-46.842 73.872-30.17 90.528l30.17 30.156c16.656 16.656 43.67 16.656 90.498-30.156L957.424 140.7l-90.53-90.53z" fill="#CCD1D9" /><path d="M211.19 886.838c-16.624-16.624-16.624-43.686 0-60.31L181.036 796.34c-33.328 33.344-33.328 87.374 0 120.684 8.312 8.312 8.312 21.844 0 30.156-16.64 16.656-43.702 16.656-60.342 0-33.328-33.312-87.356-33.312-120.684 0l30.17 30.188c16.64-16.656 43.702-16.656 60.342 0 33.328 33.312 87.358 33.312 120.668 0 25-25 25-65.532 0-90.53z" fill="#434A54" /><path d="M301.72 856.714c-16.656 16.654-43.67 16.654-60.328 0L150.88 766.184c-16.656-16.654-16.656-43.654 0-60.34l370.006-369.992c16.672-16.656 43.67-16.656 60.358 0l90.5 90.498c16.654 16.654 16.654 43.686 0 60.342L301.72 856.714z" fill="#5D9CEC" /><path d="M641.556 456.536L271.564 826.528c-16.672 16.656-43.67 16.656-60.342 0l30.17 30.188c16.656 16.654 43.67 16.654 60.328 0l370.024-370.024c16.654-16.656 16.654-43.688 0-60.342l-30.156-30.156c16.656 16.656 16.656 43.654-0.032 60.342z" fill="#FFFFFF" opacity=".2" /><path d="M943.268 215.168c-16.656 16.656-43.688 16.656-60.344 0l-60.34-60.342c-16.656-16.656-16.656-43.686 0-60.342l60.34-60.342c16.656-16.656 43.688-16.656 60.344 0l60.342 60.342c16.656 16.656 16.656 43.686 0 60.342l-60.342 60.342z" fill="#E6E9ED" /><path d="M377.936 478.816c8.328 8.312 21.828 8.312 30.17 0 8.328-8.344 8.328-21.844 0-30.188l-30.17 30.188zM316.812 539.942c8.328 8.312 21.828 8.312 30.156 0a21.346 21.346 0 0 0 0.016-30.188l-30.172 30.188zM286.642 600.25c8.328-8.31 8.328-21.81 0-30.154l-30.17 30.154c8.326 8.344 21.842 8.344 30.17 0z" fill="#4A89DC" /></svg>