<?xml version="1.0" standalone="no"?><!DOCTYPE svg PUBLIC "-//W3C//DTD SVG 1.1//EN" "http://www.w3.org/Graphics/SVG/1.1/DTD/svg11.dtd"><svg class="icon" width="128px" height="128.00px" viewBox="0 0 1024 1024" version="1.1" xmlns="http://www.w3.org/2000/svg"><path d="M365.001066 24.768557C136.505651 82.298409-25.429935 221.514053 3.319992 335.793761L830.835874 127.546294C802.087948 13.298586 593.528481-32.731296 365.001066 24.768557z" fill="#3BAED9" /><path d="M0.008 981.312109C0.008 1004.876049 19.101951 1024 42.663891 1024h767.986035c23.55994 0 42.685891-19.123951 42.685891-42.687891V298.669856H0.008v682.642253z" fill="#4FC0E8" /><path d="M1004.739429 213.452074c-5.655986-0.561999-140.091642-13.281966-307.839212 8.061979-98.903747 12.561968-188.621517 34.467912-266.713318 65.123834-98.623748 38.685901-178.963542 91.497766-238.745389 156.997598l31.49992 28.749926c125.841678-137.809647 329.651157-189.403515 478.458775-208.433466 161.247587-20.623947 294.683246-8.467978 299.057235-8.06198h0.126c0.687998 0.062 1.375996 0.124 2.061995 0.124 11.78197 0 21.343945-9.561976 21.343945-21.341945a21.295946 21.295946 0 0 0-19.249951-21.219946z" fill="#E5E8EC" /><path d="M426.654908 960.000164c-79.779796 0-154.777604-31.059921-211.183459-87.497776-56.403856-56.405856-87.465776-131.403664-87.465777-211.18346 0-79.781796 31.061921-154.779604 87.465777-211.18346 56.405856-56.405856 131.403664-87.465776 211.183459-87.465776 79.781796 0 154.779604 31.061921 211.18546 87.465776 56.435856 56.405856 87.497776 131.403664 87.497776 211.18346s-31.061921 154.777604-87.497776 211.18346C581.434512 928.940243 506.436704 960.000164 426.654908 960.000164z" fill="#CCD1D9" /><path d="M426.654908 874.658382c-117.623699 0-213.307454-95.685755-213.307454-213.339454 0-117.623699 95.685755-213.309454 213.307454-213.309454 117.655699 0 213.341454 95.685755 213.341455 213.309454 0 117.653699-95.685755 213.339454-213.341455 213.339454z" fill="#CCD1D9" /><path d="M426.654908 789.3166c-70.559819 0-127.995673-57.405853-127.995672-127.997672 0-70.561819 57.435853-127.997673 127.995672-127.997673 70.593819 0 127.999673 57.435853 127.999673 127.997673 0 70.591819-57.405853 127.997673-127.999673 127.997672z" fill="#CCD1D9" /><path d="M426.654908 704.004819c-23.52994 0-42.653891-19.153951-42.653891-42.685891 0-23.49994 19.123951-42.655891 42.653891-42.655891 23.53194 0 42.687891 19.155951 42.687891 42.655891 0 23.53194-19.155951 42.685891-42.687891 42.685891z" fill="#CCD1D9" /><path d="M426.654908 341.325747c-176.713548 0-319.993181 143.277633-319.993181 319.995181 0 176.745548 143.279633 319.993181 319.993181 319.993181 176.747548 0 319.995181-143.247633 319.995182-319.993181 0-176.717548-143.247633-319.995181-319.995182-319.995181zM622.778407 857.440426c-25.499935 25.467935-55.153859 45.467884-88.185775 59.437848-34.155913 14.465963-70.46782 21.779944-107.937724 21.779944-37.435904 0-73.747811-7.311981-107.935723-21.779944-32.997916-13.967964-62.68584-33.967913-88.153775-59.437848-25.499935-25.499935-45.499884-55.153859-59.435848-88.185774-14.467963-34.155913-21.781944-70.46782-21.781944-107.935724 0-37.437904 7.311981-73.749811 21.781944-107.935724 13.935964-32.999916 33.935913-62.68784 59.435848-88.155774 25.467935-25.467935 55.155859-45.499884 88.153775-59.435848 34.187913-14.467963 70.49982-21.781944 107.935723-21.781945 37.467904 0 73.781811 7.311981 107.937724 21.781945 33.031915 13.937964 62.68584 33.967913 88.185775 59.435848 25.467935 25.467935 45.467884 55.155859 59.437847 88.155774 14.465963 34.185913 21.779944 70.49782 21.779945 107.935724 0 37.465904-7.311981 73.779811-21.779945 107.935724-13.969964 33.031915-33.969913 62.68584-59.437847 88.185774z" fill="#E5E8EC" /><path d="M426.654908 426.667528c-129.589668 0-234.6514 105.061731-234.651399 234.6534 0 129.623668 105.061731 234.6834 234.651399 234.683399 129.623668 0 234.6854-105.059731 234.6854-234.683399 0-129.593668-105.059731-234.6534-234.6854-234.6534z m135.781653 370.431053c-36.281907 36.247907-84.499784 56.215856-135.781653 56.215856-51.279869 0-99.497745-19.967949-135.745652-56.215856-36.281907-36.281907-56.249856-84.499784-56.249856-135.779653 0-51.281869 19.967949-99.497745 56.249856-135.747653 36.247907-36.281907 84.465784-56.249856 135.745652-56.249856 51.281869 0 99.499745 19.967949 135.781653 56.249856 36.247907 36.249907 56.215856 84.465784 56.215856 135.747653 0 51.279869-19.967949 99.497745-56.215856 135.779653z" fill="#E5E8EC" /><path d="M426.654908 512.00931c-82.465789 0-149.307618 66.841829-149.307618 149.309618 0 82.497789 66.841829 149.341618 149.307618 149.341618 82.467789 0 149.341618-66.843829 149.341618-149.341618 0-82.467789-66.873829-149.309618-149.341618-149.309618z m0 255.995345c-58.80985 0-106.653727-47.875878-106.653727-106.685727 0-58.81185 47.843878-106.653727 106.653727-106.653727 58.81185 0 106.687727 47.841878 106.687727 106.653727 0 58.80985-47.875878 106.685727-106.687727 106.685727z" fill="#E5E8EC" /><path d="M426.654908 597.319092c-35.34191 0-63.997836 28.655927-63.997836 63.999836 0 35.34191 28.655927 63.997836 63.997836 63.997836 35.34391 0 63.999836-28.655927 63.999837-63.997836 0-35.34391-28.655927-63.999836-63.999837-63.999836z m0 85.343781c-11.74797 0-21.309945-9.561976-21.309945-21.343945 0-11.74997 9.561976-21.311945 21.309945-21.311946 11.78197 0 21.343945 9.561976 21.343946 21.311946 0 11.78197-9.561976 21.343945-21.343946 21.343945z" fill="#E5E8EC" /><path d="M0.008 981.312109C0.008 1004.876049 19.101951 1024 42.663891 1024h767.986035c23.55994 0 42.685891-19.123951 42.685891-42.687891V298.669856H0.008v682.642253z" fill="#4FC0E8" opacity=".6" /></svg>