<?xml version="1.0" standalone="no"?><!DOCTYPE svg PUBLIC "-//W3C//DTD SVG 1.1//EN" "http://www.w3.org/Graphics/SVG/1.1/DTD/svg11.dtd"><svg class="icon" width="128px" height="128.00px" viewBox="0 0 1024 1024" version="1.1" xmlns="http://www.w3.org/2000/svg"><path d="M682.618 959.896H341.368l42.536-213.106L640 746.726z" fill="#CCD1D9" /><path d="M1023.882 767.942c0 11.81-9.562 21.338-21.34 21.338H21.44A21.314 21.314 0 0 1 0.116 767.942V85.442c0-11.778 9.544-21.338 21.324-21.338h981.102c11.778 0 21.34 9.56 21.34 21.338v682.5zM682.618 959.896H341.368c-11.78 0-21.338-9.528-21.338-21.306s9.56-21.34 21.338-21.34h341.25c11.778 0 21.338 9.56 21.338 21.34s-9.562 21.306-21.338 21.306z" fill="#E6E9ED" /><path d="M1002.542 64.104H21.44c-11.778 0-21.324 9.56-21.324 21.338v575.868h1023.766V85.442c0-11.778-9.562-21.338-21.34-21.338z" fill="#A0D468" /><path d="M1002.542 64.104h-191.958v597.206H1023.88V85.442c0.002-11.778-9.56-21.338-21.338-21.338zM533.322 725.294c0 11.78-9.56 21.338-21.338 21.338s-21.324-9.558-21.324-21.338 9.544-21.338 21.324-21.338 21.338 9.56 21.338 21.338z" fill="#434A54" /><path d="M810.586 320.044h210.328v42.676H810.586z" fill="#656D78" /><path d="M256.042 490.286l97.51-162.524 97.492 162.524z" fill="#E6E9ED" /><path d="M337.304 490.286l130.002-227.51 129.986 227.51z" fill="#F5F7FA" /><path d="M170.734 192.074h42.662v42.678H170.734zM405.352 192.074h42.646v42.678h-42.646zM639.968 192.074h42.648v42.678h-42.648zM639.968 362.722h42.648v42.646h-42.648zM639.968 533.34h42.648v42.644h-42.648zM170.734 533.34h42.662v42.644H170.734zM170.734 362.722h42.662v42.646H170.734zM405.352 533.34h42.646v42.644h-42.646z" fill="#434A54" /></svg>