<?xml version="1.0" standalone="no"?><!DOCTYPE svg PUBLIC "-//W3C//DTD SVG 1.1//EN" "http://www.w3.org/Graphics/SVG/1.1/DTD/svg11.dtd"><svg class="icon" width="128px" height="128.00px" viewBox="0 0 1024 1024" version="1.1" xmlns="http://www.w3.org/2000/svg"><path d="M64.104 0.118h895.792v534.128H64.104z" fill="#A0D468" /><path d="M64.104 489.724h895.792v534.158H64.104z" fill="#ED5564" /><path d="M213.396 341.352l109.678-182.802 109.694 182.802z" fill="#E6E9ED" /><path d="M304.796 341.352L451.06 85.41l146.232 255.942z" fill="#F5F7FA" /><path d="M575.984 426.676H234.72c-11.78 0-21.324-9.56-21.324-21.338s9.544-21.308 21.324-21.308h341.264c11.78 0 21.308 9.53 21.308 21.308s-9.528 21.338-21.308 21.338z" fill="#434A54" /><path d="M256.058 895.912c0 11.78-9.56 21.306-21.338 21.306-11.78 0-21.324-9.528-21.324-21.306s9.544-21.34 21.324-21.34c11.778 0 21.338 9.56 21.338 21.34zM341.368 895.912c0 11.78-9.544 21.306-21.322 21.306-11.78 0-21.34-9.528-21.34-21.306s9.56-21.34 21.34-21.34c11.776 0 21.322 9.56 21.322 21.34zM426.676 895.912c0 11.78-9.544 21.306-21.324 21.306-11.778 0-21.322-9.528-21.322-21.306s9.544-21.34 21.322-21.34c11.778 0 21.324 9.56 21.324 21.34zM512 895.912c0 11.78-9.56 21.306-21.34 21.306-11.778 0-21.322-9.528-21.322-21.306s9.544-21.34 21.322-21.34c11.78 0 21.34 9.56 21.34 21.34zM597.292 895.912c0 11.78-9.53 21.306-21.308 21.306s-21.34-9.528-21.34-21.306 9.562-21.34 21.34-21.34c11.78 0 21.308 9.56 21.308 21.34z" fill="#434A54" /><path d="M213.396 831.926l109.678-182.832 109.694 182.832z" fill="#E6E9ED" /><path d="M304.796 831.926l146.264-255.942 146.232 255.942zM868.324 214.474c-8.342-8.342-21.84-8.342-30.148 0 0 0-0.032 0-0.032 0.032l-75.39 75.358-30.118-30.118s-0.032-0.032-0.062-0.032c-8.31-8.342-21.808-8.342-30.148 0-8.344 8.342-8.344 21.838 0 30.148l45.27 45.272v-0.032c8.31 8.342 21.808 8.342 30.148 0.032l90.48-90.51c8.342-8.31 8.342-21.838 0-30.15zM868.324 791.998l-30.148-30.148 30.148-30.182c8.342-8.31 8.342-21.838 0-30.148-8.342-8.342-21.84-8.342-30.148 0 0 0-0.032 0-0.032 0.032l-30.15 30.118-30.12-30.118c0-0.032-0.032-0.032-0.032-0.032-8.34-8.342-21.838-8.342-30.148 0-8.342 8.31-8.342 21.838 0 30.148l30.148 30.182-30.148 30.148a21.328 21.328 0 0 0 0 30.182c8.31 8.31 21.808 8.31 30.148 0 0-0.032 0.032-0.032 0.032-0.032l30.12-30.15 30.15 30.15s0.032 0 0.032 0.032c8.308 8.31 21.806 8.31 30.148 0a21.328 21.328 0 0 0 0-30.182z" fill="#F5F7FA" /></svg>