<?xml version="1.0" standalone="no"?><!DOCTYPE svg PUBLIC "-//W3C//DTD SVG 1.1//EN" "http://www.w3.org/Graphics/SVG/1.1/DTD/svg11.dtd"><svg class="icon" width="128px" height="128.00px" viewBox="0 0 1024 1024" version="1.1" xmlns="http://www.w3.org/2000/svg"><path d="M512 85.334L0.016 341.326v341.346L512 938.668l511.984-255.996V341.326z" fill="#FFD2A6" /><path d="M661.308 863.98l42.686-21.312v-185.304h-42.686zM831.99 778.672l42.686-21.376v-174.246h-42.686z" fill="#F4BE8E" /><path d="M512 228.986L0.016 341.326v186.306L512 783.61l511.984-255.978v-184.4z" fill="#37BC9B" /><path d="M0.016 682.672l511.062 255.496V113.894h-56.17L0.016 341.326z" fill="#F4BE8E" /><path d="M362.676 863.98V621.238h-42.67v221.43zM192.01 778.672v-195.622H149.338v174.246z" fill="#EAAD7A" /><path d="M0.016 527.632l511.062 255.54V243.922h-67.202L0.016 341.326z" fill="#2EAF8A" /><path d="M512 85.334L0.016 341.326 512 597.3l511.984-255.974z" fill="#48CFAD" /><path d="M596.84 396.48c-55.106 44.092-159.65 68.374-195.336 23.75-35.702-44.624 10.968-141.278 66.076-185.338 55.124-44.092 97.826-18.936 133.51 25.686 35.688 44.654 50.844 91.81-4.25 135.902z" fill="#ED5564" /><path d="M627.746 293.92c-9.188 7.342-22.624 5.842-30-3.344-7.342-9.218-5.874-22.624 3.344-30 9.218-7.344 22.624-5.844 29.968 3.344 7.376 9.22 5.876 22.626-3.312 30z" fill="#A0D468" /><path d="M601.09 260.578c-9.216 7.376-22.624 5.876-29.966-3.312-7.376-9.218-5.876-22.624 3.312-29.998 9.188-7.344 22.624-5.876 29.998 3.344 7.344 9.184 5.874 22.622-3.344 29.966z" fill="#A0D468" /><path d="M441.752 648.864a21.252 21.252 0 0 0-30.17 0c-8.328 8.312-8.328 21.812 0 30.124a21.26 21.26 0 0 0 30.17 0c8.328-8.312 8.328-21.812 0-30.124zM326.256 606.176c-8.328 8.312-8.328 21.812 0 30.188 8.328 8.312 21.828 8.312 30.17 0 8.328-8.376 8.328-21.876 0-30.188-8.342-8.312-21.842-8.312-30.17 0zM240.914 563.364c-8.328 8.312-8.328 21.876 0 30.188 8.328 8.312 21.844 8.312 30.172 0 8.342-8.312 8.342-21.876 0-30.188-8.328-8.314-21.844-8.314-30.172 0zM155.588 520.696c-8.328 8.344-8.328 21.844 0 30.172 8.328 8.308 21.842 8.308 30.17 0 8.328-8.328 8.328-21.828 0-30.172-8.326-8.314-21.842-8.314-30.17 0zM70.264 478.04a21.36 21.36 0 0 0 0 30.186c8.328 8.314 21.828 8.314 30.17 0 8.328-8.342 8.328-21.842 0-30.186-8.344-8.312-21.842-8.312-30.17 0z" fill="#8CC153" /><path d="M582.248 648.864c8.312-8.376 21.842-8.376 30.186 0 8.312 8.312 8.312 21.812 0 30.124-8.344 8.372-21.874 8.372-30.186 0-8.312-8.312-8.312-21.812 0-30.124zM697.744 606.176c8.312 8.312 8.312 21.812 0 30.188-8.312 8.312-21.842 8.312-30.186 0-8.312-8.376-8.312-21.876 0-30.188 8.344-8.312 21.874-8.312 30.186 0zM783.086 563.364c8.344 8.312 8.344 21.876 0 30.188s-21.844 8.312-30.156 0c-8.376-8.312-8.376-21.876 0-30.188 8.312-8.314 21.812-8.314 30.156 0zM868.426 520.696c8.312 8.344 8.312 21.844 0 30.172-8.344 8.308-21.874 8.308-30.186 0-8.312-8.328-8.312-21.828 0-30.172 8.312-8.314 21.842-8.314 30.186 0zM953.736 478.04c8.312 8.344 8.312 21.842 0 30.186-8.312 8.314-21.81 8.314-30.186 0-8.312-8.342-8.312-21.842 0-30.186 8.376-8.312 21.874-8.312 30.186 0z" fill="#A0D468" /></svg>