<?xml version="1.0" standalone="no"?><!DOCTYPE svg PUBLIC "-//W3C//DTD SVG 1.1//EN" "http://www.w3.org/Graphics/SVG/1.1/DTD/svg11.dtd"><svg class="icon" width="128px" height="128.00px" viewBox="0 0 1024 1024" version="1.1" xmlns="http://www.w3.org/2000/svg"><path d="M777.942 325.136c0-35.56-119.058-64.404-265.93-64.404-146.87 0-265.96 28.844-265.96 64.404L106.68 858.058h810.664l-139.402-532.922z" fill="#A0D468" /><path d="M776.222 320.668c0 33.094-118.684 59.936-265.086 59.936-146.402 0-265.086-26.842-265.086-59.936 0-33.092 118.684-59.936 265.086-59.936 146.404 0 265.086 26.844 265.086 59.936z" fill="#8CC153" /><path d="M725.348 349.168h-42.684v60.904c0 5.468 2.094 10.906 6.248 15.092 8.344 8.312 21.844 8.312 30.188 0a21.352 21.352 0 0 0 6.248-15.092v-60.904zM405.358 349.168v82.216c0 5.468 2.062 10.936 6.25 15.092 8.312 8.344 21.812 8.344 30.156 0a21.294 21.294 0 0 0 6.25-15.092v-82.216h-42.656zM362.672 335.356h-42.656v32.062c0 5.438 2.094 10.906 6.25 15.062 8.312 8.344 21.842 8.344 30.156 0 4.188-4.156 6.25-9.624 6.25-15.092v-32.032zM597.352 354.48h-42.684v34.248c0 5.468 2.094 10.938 6.248 15.094a21.332 21.332 0 0 0 30.188 0 21.3 21.3 0 0 0 6.248-15.094V354.48z" fill="#8CC153" /><path d="M1017.746 821.622a21.126 21.126 0 0 0-15.094-6.216H21.37a21.126 21.126 0 0 0-15.092 6.216 21.332 21.332 0 0 0 0 30.188 21.276 21.276 0 0 0 15.062 6.25h981.314a21.3 21.3 0 0 0 15.094-6.25c8.31-8.346 8.31-21.846-0.002-30.188z" fill="#F5F7FA" /><path d="M527.106 458.976c-8.344-8.312-21.844-8.312-30.188 0a21.296 21.296 0 0 0-6.25 15.094v255.992c0 5.468 2.094 10.906 6.25 15.094 8.344 8.31 21.844 8.31 30.188 0a21.35 21.35 0 0 0 6.25-15.094V474.07a21.3 21.3 0 0 0-6.25-15.094zM377.766 458.976c-8.344-8.312-21.842-8.312-30.156 0a21.32 21.32 0 0 0-5.968 11.594l-42.686 255.992h0.032c-1.094 6.562 0.876 13.532 5.936 18.594 8.344 8.31 21.844 8.31 30.188 0a21.484 21.484 0 0 0 5.936-11.594l42.686-255.992h-0.032c1.094-6.562-0.874-13.53-5.936-18.594zM725.036 726.562l-42.652-255.992h-0.032a21.076 21.076 0 0 0-5.938-11.594c-8.312-8.312-21.844-8.312-30.156 0-5.062 5.062-7.032 12.032-5.938 18.594h-0.032l42.688 255.992a21.498 21.498 0 0 0 5.936 11.594c8.344 8.31 21.844 8.31 30.188 0 5.06-5.062 7.028-12.032 5.936-18.594z" fill="#8CC153" /><path d="M578.728 318.7c-44.124 35.282-128.778 53.53-158.526 16.312-29.78-37.186 6.624-115.778 50.748-151.058 44.124-35.312 79.28-13.968 109.06 23.25 29.748 37.216 42.872 76.184-1.282 111.496z" fill="#ED5564" /><path d="M606.632 240.514c-9.188 7.376-22.624 5.876-29.966-3.312-7.344-9.218-5.876-22.624 3.344-30 9.188-7.344 22.624-5.876 29.966 3.344 7.376 9.188 5.876 22.624-3.344 29.968z" fill="#8CC153" /><path d="M580.01 207.204c-9.218 7.344-22.624 5.876-29.998-3.344-7.344-9.188-5.876-22.624 3.344-29.968 9.186-7.374 22.624-5.874 29.966 3.312 7.376 9.218 5.876 22.624-3.312 30z" fill="#8CC153" /></svg>