<?xml version="1.0" standalone="no"?><!DOCTYPE svg PUBLIC "-//W3C//DTD SVG 1.1//EN" "http://www.w3.org/Graphics/SVG/1.1/DTD/svg11.dtd"><svg class="icon" width="128px" height="128.00px" viewBox="0 0 1024 1024" version="1.1" xmlns="http://www.w3.org/2000/svg"><path d="M960.018 425.814h-42.686V811.46c0 5.498 2.094 10.936 6.25 15.124 8.344 8.312 21.842 8.312 30.186 0a21.368 21.368 0 0 0 6.25-15.124V425.814z" fill="#CCD1D9" /><path d="M1023.984 344.756c0 70.686-38.188 102.402-85.308 102.402-47.124 0-85.344-31.716-85.344-102.402s38.218-153.59 85.344-153.59c47.12 0 85.308 82.904 85.308 153.59zM810.68 512c0 223.838-181.464 405.332-405.334 405.332C181.51 917.332 0.046 735.838 0.046 512c0-223.868 181.462-405.332 405.3-405.332 223.868 0 405.334 181.464 405.334 405.332z" fill="#E6E9ED" /><path d="M405.346 128.012c11.594 0 21.032-9.25 21.312-20.782a403.54 403.54 0 0 0-42.624 0c0.314 11.532 9.72 20.782 21.312 20.782zM405.346 896.02c-11.592 0-21 9.25-21.312 20.75a402.636 402.636 0 0 0 42.624 0c-0.28-11.5-9.718-20.75-21.312-20.75zM258.414 157.23c10.718-4.438 15.874-16.594 11.718-27.344a442.38 442.38 0 0 0-19.876 7.624 439.748 439.748 0 0 0-19.5 8.688c4.69 10.532 16.94 15.47 27.658 11.032zM552.312 866.772a21.29 21.29 0 0 0-11.75 27.31 352.206 352.206 0 0 0 19.904-7.624 475.768 475.768 0 0 0 19.468-8.624c-4.686-10.562-16.936-15.5-27.622-11.062zM133.824 240.476c8.218-8.218 8.312-21.404 0.376-29.748a378.082 378.082 0 0 0-15.438 14.656 400.23 400.23 0 0 0-14.686 15.466c8.342 7.94 21.56 7.814 29.748-0.374zM676.872 783.524c-8.188 8.188-8.312 21.376-0.376 29.75a423.032 423.032 0 0 0 15.466-14.688 398.682 398.682 0 0 0 14.656-15.438c-8.342-7.938-21.56-7.812-29.746 0.376zM50.608 365.036c4.406-10.716-0.532-22.936-11.062-27.624a403.912 403.912 0 0 0-8.656 19.468 416.48 416.48 0 0 0-7.656 19.874c10.78 4.156 22.936-1 27.374-11.718zM760.118 658.964c-4.438 10.688 0.5 22.936 11.032 27.624a423.7 423.7 0 0 0 8.688-19.498 412.456 412.456 0 0 0 7.624-19.876c-10.752-4.124-22.908 1-27.344 11.75z" fill="#F5F7FA" /><path d="M21.358 512c0-11.594-9.25-21.032-20.78-21.312A478.944 478.944 0 0 0 0.016 512c0.032 7.124 0.218 14.282 0.562 21.282 11.532-0.25 20.78-9.688 20.78-21.282zM789.336 512c0 11.594 9.25 21.032 20.782 21.282a402.636 402.636 0 0 0 0-42.594c-11.532 0.28-20.782 9.718-20.782 21.312z" fill="#F5F7FA" /><path d="M50.608 658.964a21.334 21.334 0 0 0-27.374-11.75 384.304 384.304 0 0 0 7.656 19.876 390.614 390.614 0 0 0 8.656 19.498c10.53-4.688 15.498-16.936 11.062-27.624zM760.118 365.036c4.438 10.718 16.594 15.876 27.344 11.75a394.84 394.84 0 0 0-7.624-19.904 421.58 421.58 0 0 0-8.688-19.468c-10.532 4.686-15.47 16.904-11.032 27.622z" fill="#F5F7FA" /><path d="M133.824 783.524c-8.188-8.188-21.376-8.312-29.75-0.376a359.08 359.08 0 0 0 14.686 15.438 402.286 402.286 0 0 0 15.438 14.688c7.938-8.376 7.844-21.564-0.374-29.75zM676.872 240.476c8.188 8.188 21.404 8.312 29.748 0.376a397.904 397.904 0 0 0-30.122-30.122c-7.94 8.342-7.814 21.56 0.374 29.746z" fill="#F5F7FA" /><path d="M258.414 866.772c-10.718-4.438-22.968 0.5-27.624 11.062a460.796 460.796 0 0 0 19.468 8.624 349.86 349.86 0 0 0 19.876 7.624 21.25 21.25 0 0 0-11.72-27.31zM552.312 157.23c10.686 4.438 22.936-0.5 27.624-11.032a438.48 438.48 0 0 0-19.468-8.688 440.1 440.1 0 0 0-19.904-7.624c-4.126 10.75 1.03 22.906 11.748 27.344z" fill="#F5F7FA" /><path d="M575.998 426.658H234.696c-23.468 0-42.686 19.188-42.686 42.656V704.4c0 23.5 19.218 42.688 42.686 42.688h341.302c23.498 0 42.686-19.188 42.686-42.688V469.314c0-23.468-19.188-42.656-42.686-42.656z" fill="#FFD2A6" /><path d="M575.998 362.254H234.696c-23.468 0-42.686 19.188-42.686 42.656v235.118c0 23.438 19.218 42.624 42.686 42.624h341.302c23.498 0 42.686-19.186 42.686-42.624V404.91c0-23.468-19.188-42.656-42.686-42.656z" fill="#EC87C0" /><path d="M575.998 298.662H234.696c-23.468 0-42.686 19.188-42.686 42.656v235.086c0 23.5 19.218 42.688 42.686 42.688h341.302c23.498 0 42.686-19.188 42.686-42.688V341.318c0-23.468-19.188-42.656-42.686-42.656z" fill="#965353" /><path d="M472.094 518.218c-44.124 35.31-128.808 53.56-158.558 16.376-29.75-37.25 6.624-115.84 50.78-151.122 44.124-35.31 79.278-13.938 109.028 23.25 29.75 37.218 42.874 76.218-1.25 111.496z" fill="#ED5564" /><path d="M500 440.064c-9.218 7.344-22.624 5.844-30-3.344-7.342-9.218-5.876-22.624 3.344-29.998 9.188-7.344 22.624-5.844 29.968 3.344 7.376 9.188 5.876 22.624-3.312 29.998z" fill="#A0D468" /><path d="M473.344 406.722c-9.218 7.376-22.624 5.876-30-3.312-7.344-9.218-5.844-22.624 3.344-30 9.218-7.344 22.624-5.876 30 3.344 7.344 9.188 5.844 22.624-3.344 29.968z" fill="#A0D468" /></svg>