<?xml version="1.0" standalone="no"?><!DOCTYPE svg PUBLIC "-//W3C//DTD SVG 1.1//EN" "http://www.w3.org/Graphics/SVG/1.1/DTD/svg11.dtd"><svg class="icon" width="128px" height="128.00px" viewBox="0 0 1024 1024" version="1.1" xmlns="http://www.w3.org/2000/svg"><path d="M920.422 794.02l-3.624-1.032c-52.938-14.25-70.842-27.874-94.404-36.874-83.59-31.842-105.338-54.78-110.9-65.622-0.218-0.376-0.376-0.812-0.562-1.218l-0.686-97.092L512 589.934l-198.242 2.25-0.688 97.092c-0.188 0.406-0.344 0.844-0.562 1.218-5.562 10.842-27.31 33.78-110.902 65.622-23.56 9-41.466 22.624-94.402 36.874l-3.624 1.032c-48.186 15.904-80.622 60.624-80.622 111.058v118.902h978.084V905.08c0-50.438-32.436-95.156-80.62-111.06z" fill="#434A54" /><path d="M648.212 754.366l-124.432-73.34-173.336 98.774 66.216 244.18h178.682l73.308-193.182z" fill="#CCD1D9" /><path d="M557.904 810.612h-88.558l-47.342 177.246 11.56 36.122h161.778l5.216-71.372z" fill="#DA4453" /><path d="M569.53 697.398a21.426 21.426 0 0 0-15.5-6.03l-85.34 2.562c-11.532 0.376-20.688 9.81-20.688 21.31v95.37c0 11.812 9.562 21.344 21.344 21.344h85.308c11.782 0 21.344-9.532 21.344-21.344V712.68c0-5.75-2.344-11.25-6.468-15.282z" fill="#ED5564" /><path d="M369.568 800.426l144.056-74.246 147.682 76.182 28.25-41.778 38.624-51.998c-9.876-7.782-14.532-13.842-16.688-18.092-0.218-0.376-0.376-0.812-0.562-1.218l-0.686-97.092L512 589.934l-198.242 2.25-0.688 97.092c-0.188 0.406-0.344 0.844-0.562 1.218-2.188 4.312-7 10.56-17.218 18.498l74.278 91.434z" fill="#E6E9ED" /><path d="M469.346 1023.98l-155.776-407.734-55.936 140.556 65.092 49.996-11.624 48 76.06 169.182zM557.81 1023.98l152.622-407.734 59.088 140.556-65.088 49.996 11.622 48-76.06 169.182z" fill="#656D78" /><path d="M787.082 404.286c0 178.744-170.368 343.268-275.082 343.268-104.684 0-275.084-164.524-275.084-343.268 0-178.744 123.152-296.676 275.084-296.676s275.082 117.932 275.082 296.676z" fill="#EAC6BB" /><path d="M855.828 277.916c-19.904-10.124-47.808-19.062-82.902-26.624-69.932-15.032-162.586-23.344-260.926-23.344s-190.992 8.312-260.928 23.342c-35.092 7.562-62.998 16.5-82.902 26.624-26.654 13.562-40.154 30.186-40.154 49.374 0 19.218 13.5 35.842 40.154 49.404 19.904 10.124 47.81 19.062 82.902 26.624C321.008 418.348 413.66 426.66 512 426.66s190.994-8.312 260.926-23.342c35.094-7.562 62.998-16.5 82.902-26.624 26.656-13.562 40.156-30.186 40.156-49.404 0-19.188-13.5-35.812-40.156-49.374z" fill="#7F4545" /><path d="M725.054 57.33C700.556 19.832 664.9 0.02 621.996 0.02c-26.498 0-55.186 7.344-85.31 21.844A289.6 289.6 0 0 0 512 35.332C491.25 22.676 447.72 0.02 402.004 0.02c-42.904 0-78.558 19.812-103.058 57.31-28.498 43.56-42.936 112.652-42.936 205.336 0 18.218 17.188 29.062 30.124 35.592 13.624 6.906 32.436 13.624 54.466 19.5 29.374 7.78 90.714 20.906 171.398 20.906 80.686 0 142.026-13.124 171.4-20.906 22.032-5.876 40.842-12.592 54.464-19.5 12.936-6.532 30.124-17.376 30.124-35.592 0.002-92.684-14.436-161.776-42.932-205.336z" fill="#965353" /></svg>