<?xml version="1.0" standalone="no"?><!DOCTYPE svg PUBLIC "-//W3C//DTD SVG 1.1//EN" "http://www.w3.org/Graphics/SVG/1.1/DTD/svg11.dtd"><svg class="icon" width="128px" height="128.00px" viewBox="0 0 1024 1024" version="1.1" xmlns="http://www.w3.org/2000/svg"><path d="M920.418 815.368l-3.624-1.032c-52.936-14.218-70.874-27.876-94.436-36.844-83.558-31.84-105.306-54.808-110.87-65.652-0.218-0.376-0.376-0.812-0.562-1.188l-0.688-97.094-198.246-2.25-198.26 2.25-0.688 97.094c-0.172 0.376-0.328 0.812-0.532 1.188-5.562 10.844-27.312 33.812-110.904 65.652-23.56 8.968-41.482 22.624-94.418 36.844l-3.624 1.032c-48.202 15.938-80.608 60.622-80.608 111.058v97.558H1001.04v-97.558c0.002-50.438-32.436-95.122-80.622-111.058z" fill="#424953" /><path d="M570.052 874.644h-116.104l-30.548 149.34h177.182z" fill="#D94452" /><path d="M397.056 703.996l56.892 170.648h116.104l56.874-170.648z" fill="#EC5564" /><path d="M724.268 730.684l-13.904-97.624c-1.562-6.156-10.562 13.688-16.312 11a21.2 21.2 0 0 0-18.094-0.062l-163.964 76.156-163.962-76.156a21.236 21.236 0 0 0-18.11 0.062c-5.734 2.688-12.718-15.906-14.296-9.75l-15.906 96.376a21.3 21.3 0 0 0 1.906 15.468l63.624 117.336a21.374 21.374 0 0 0 14.876 10.812 20.2 20.2 0 0 0 3.876 0.344c5.046 0 9.982-1.782 13.874-5.124L512 771.744l114.122 97.778a21.22 21.22 0 0 0 13.876 5.124c1.312 0 2.562-0.094 3.876-0.344a21.38 21.38 0 0 0 14.876-10.812l63.624-117.336a21.36 21.36 0 0 0 1.894-15.47z" fill="#646C77" /><path d="M511.992 129.73c-151.934 0-275.102 117.934-275.102 296.678 0 178.748 170.4 343.24 275.102 343.24 104.684 0 275.116-164.492 275.116-343.24 0-178.744-123.182-296.678-275.116-296.678z" fill="#EAC6BB" /><path d="M511.992 42.668c-164.948 0-298.664 133.716-298.664 298.68v42.654h597.342v-42.654c0-164.964-133.744-298.68-298.678-298.68z" fill="#EC5564" /><path d="M831.982 384.002H192c-11.78 0-21.326-9.562-21.326-21.342 0-11.782 9.546-21.312 21.326-21.312h639.982a21.298 21.298 0 0 1 21.312 21.312c0 11.782-9.53 21.342-21.312 21.342zM426.712 213.414c-11.782 0-21.328-9.532-21.344-21.312l-0.046-149.402c0-8.124 4.594-15.53 11.844-19.124 1.938-0.968 47.984-23.562 94.826-23.562s92.872 22.592 94.808 23.562a21.35 21.35 0 0 1 11.876 19.092v146.684c0 11.78-9.562 21.312-21.374 21.312-11.75 0-21.312-9.532-21.312-21.312V56.7c-14.376-5.688-39.654-14.032-63.998-14.032-23.094 0-48.358 7.844-63.998 13.968l0.046 135.434a21.318 21.318 0 0 1-21.328 21.344z" fill="#D94452" /></svg>