<?xml version="1.0" standalone="no"?><!DOCTYPE svg PUBLIC "-//W3C//DTD SVG 1.1//EN" "http://www.w3.org/Graphics/SVG/1.1/DTD/svg11.dtd"><svg class="icon" width="128px" height="128.00px" viewBox="0 0 1024 1024" version="1.1" xmlns="http://www.w3.org/2000/svg"><path d="M813.932 779.396l-17.594-38.842c41.312-18.718 71.904-47.904 90.966-86.874 14.532-29.718 16.594-54.248 16.656-54.53l42.438 3.154c-0.062 1.218-2.344 31.5-19.876 68.188-16.03 33.718-48.718 80.032-112.59 108.904z" fill="#434A54" /><path d="M908.96 772.678l-3.656-1.062c-52.904-14.186-70.78-27.842-94.342-36.81-83.656-31.844-105.376-54.78-110.966-65.624l-0.468-1.218-0.718-97.124-198.276-2.218-198.184 2.218-0.688 97.124c-0.156 0.406-0.438 0.812-0.624 1.218-5.468 10.844-27.312 33.78-110.84 65.624-23.562 8.968-41.53 22.624-94.436 36.81l-3.686 1.062c-48.124 15.938-80.562 60.658-80.562 111.094v140.214h978.134v-140.214c-0.002-50.436-32.53-95.156-80.688-111.094z" fill="#DA4453" /><path d="M775.682 382.97c0 178.746-170.464 343.21-275.15 343.21-104.654 0-275.056-164.464-275.056-343.21 0-178.762 123.184-296.68 275.056-296.68 151.998 0 275.15 117.918 275.15 296.68z" fill="#ED5564" /><path d="M582.686 650.12c-3.906-6.312-10.782-10.156-18.124-10.156h-127.996c-7.436 0-14.28 3.844-18.186 10.156-3.876 6.25-4.188 14.156-0.938 20.718l64.06 127.996c3.562 7.25 10.968 11.812 19.032 11.812 8.156 0 15.468-4.562 19.092-11.812l63.966-127.996c3.374-6.562 2.968-14.468-0.906-20.718z" fill="#434A54" /><path d="M1011.708 601.244L976.46 432.64c-1.782-8.578-8.624-15.172-17.154-16.656a21.38 21.38 0 0 0-21.906 9.86l-90.53 147.84c-3.718 6.062-4.25 13.532-1.344 19.968 2.906 6.404 8.81 11.03 15.78 12.216l126.124 21.876c1.312 0.218 2.5 0.344 3.688 0.344h0.188c11.688-0.156 21.186-9.624 21.186-21.344a19.056 19.056 0 0 0-0.784-5.5z" fill="#ED5564" /><path d="M381.598 152.302c-95-16.592-154.966-138.966-155.498-140.202A21.5 21.5 0 0 0 204.258 0.164c-9.062 1.094-16.5 7.876-18.376 16.812-0.344 1.906-9.5 47.016-3 100.702 9.124 73.78 43.562 128.2 99.624 157.262 14.342 7.422 29.124 11.188 43.936 11.188 23.656 0 46.75-9.828 64.782-27.75 15.968-15.704 26.342-36.328 28.03-55.186 2.342-26.5-12.532-46.468-37.656-50.89z" fill="#FFCE54" /><path d="M340.692 138.148c-12.938-6.766-25-15.204-36.03-24.516-7.624 19.016-36.312 81.014-91.092 96.936 8 13.078 17.344 24.828 28.062 35.154 55.872-23.952 86.56-79.498 99.06-107.574z" fill="#F6BB42" /><path d="M619.56 152.302c94.902-16.592 154.996-138.966 155.496-140.202A21.32 21.32 0 0 1 796.806 0.164a21.26 21.26 0 0 1 18.344 16.812c0.468 1.906 9.624 47.016 3.032 100.702-9.032 73.78-43.438 128.2-99.656 157.262-14.25 7.422-28.998 11.188-43.904 11.188-23.654 0-46.654-9.828-64.78-27.75-15.876-15.704-26.344-36.328-27.938-55.186-2.344-26.5 12.438-46.468 37.656-50.89z" fill="#FFCE54" /><path d="M660.466 138.148c12.936-6.766 24.904-15.204 35.998-24.516 7.686 19.016 36.342 81.014 91.124 96.936a174.614 174.614 0 0 1-28.188 35.154c-55.75-23.952-86.436-79.498-98.934-107.574z" fill="#F6BB42" /></svg>