<?xml version="1.0" standalone="no"?><!DOCTYPE svg PUBLIC "-//W3C//DTD SVG 1.1//EN" "http://www.w3.org/Graphics/SVG/1.1/DTD/svg11.dtd"><svg class="icon" width="128px" height="128.00px" viewBox="0 0 1024 1024" version="1.1" xmlns="http://www.w3.org/2000/svg"><path d="M959.992 138.686H64.008c-11.75 0-21.312 9.532-21.312 21.344v255.996c0 63.342 12.406 124.812 36.876 182.668 23.656 55.876 57.5 106.06 100.592 149.184 43.094 43.062 93.28 76.938 149.154 100.562 57.876 24.5 119.342 36.876 182.684 36.876 63.376 0 124.844-12.376 182.716-36.876 55.872-23.624 106.058-57.5 149.152-100.562 43.094-43.124 76.938-93.308 100.594-149.184 24.466-57.858 36.874-119.326 36.874-182.668V160.03a21.316 21.316 0 0 0-21.346-21.344z" fill="#E6E9ED" /><path d="M60.352 544.07a468.486 468.486 0 0 0 19.218 54.624c23.656 55.876 57.5 106.06 100.592 149.184 43.094 43.062 93.28 76.938 149.154 100.562a475.686 475.686 0 0 0 54.25 19.124c-4.218-41-43.188-320.306-323.214-323.494zM640.468 867.564a476.042 476.042 0 0 0 54.248-19.124c55.872-23.624 106.058-57.5 149.152-100.562 43.094-43.124 76.938-93.308 100.594-149.184a468.844 468.844 0 0 0 19.216-54.624c-280.054 3.188-318.99 282.494-323.21 323.494z" fill="#CCD1D9" /><path d="M170.726 330.682H149.352c-11.782 0-21.344-9.562-21.344-21.344s9.562-21.312 21.344-21.312h21.376c11.78 0 21.342 9.532 21.342 21.312s-9.564 21.344-21.344 21.344zM170.726 416.024H149.352c-11.782 0-21.344-9.562-21.344-21.342 0-11.782 9.562-21.342 21.344-21.342h21.376c11.78 0 21.342 9.562 21.342 21.342-0.002 11.78-9.564 21.342-21.344 21.342zM170.726 373.338H149.352c-11.782 0-21.344-9.562-21.344-21.312 0-11.812 9.562-21.344 21.344-21.344h21.376c11.78 0 21.342 9.532 21.342 21.344-0.002 11.75-9.564 21.312-21.344 21.312zM874.682 416.024h-21.376c-11.782 0-21.344-9.562-21.344-21.342 0-11.782 9.562-21.342 21.344-21.342h21.376c11.782 0 21.312 9.562 21.312 21.342s-9.532 21.342-21.312 21.342zM874.682 330.682h-21.376c-11.782 0-21.344-9.562-21.344-21.344s9.562-21.312 21.344-21.312h21.376c11.782 0 21.312 9.532 21.312 21.312s-9.532 21.344-21.312 21.344zM874.682 373.338h-21.376c-11.782 0-21.344-9.562-21.344-21.312 0-11.812 9.562-21.344 21.344-21.344h21.376c11.782 0 21.312 9.532 21.312 21.344 0 11.75-9.532 21.312-21.312 21.312z" fill="#DA4453" /><path d="M42.696 181.34v42.688h447.994v63.998c0 11.782 9.56 21.312 21.31 21.312 11.812 0 21.344-9.532 21.344-21.312v-63.998h447.992V181.34h-106.654V138.686h-42.688V181.34h-42.656V138.686h-42.654V181.34h-42.686V138.686h-42.656V181.34h-42.654V138.686H576V181.34h-42.656V138.686h-42.654V181.34h-42.688V138.686h-42.656V181.34h-42.654V138.686h-42.688V181.34h-42.656V138.686h-42.654V181.34H192.006V138.686H149.352V181.34H42.696z" fill="#CCD1D9" /><path d="M149.352 288.026H21.354c-11.782 0-21.344 9.532-21.344 21.312v85.342c0 11.78 9.562 21.342 21.344 21.342h127.998c11.782 0 21.344-9.562 21.344-21.342v-85.342c0-11.78-9.564-21.312-21.344-21.312zM1002.68 288.026h-127.998c-11.782 0-21.344 9.532-21.344 21.312v85.342c0 11.78 9.562 21.342 21.344 21.342h127.998c11.782 0 21.31-9.562 21.31-21.342v-85.342c0-11.78-9.53-21.312-21.31-21.312z" fill="#ED5564" /></svg>