<?xml version="1.0" standalone="no"?><!DOCTYPE svg PUBLIC "-//W3C//DTD SVG 1.1//EN" "http://www.w3.org/Graphics/SVG/1.1/DTD/svg11.dtd"><svg class="icon" width="128px" height="128.00px" viewBox="0 0 1024 1024" version="1.1" xmlns="http://www.w3.org/2000/svg"><path d="M277.258 914.176L0.016 805.93V469.172l277.242 108.262z" fill="#F6BB42" /><path d="M277.258 914.176l277.274-108.246V469.172l-277.274 108.262z" fill="#EDAB35" /><path d="M277.258 360.912L0.016 469.172l277.242 108.262 277.242-108.262z" fill="#FFCE54" /><path d="M292.35 451.238c8.312 8.328 8.312 21.842 0 30.17-8.342 8.328-21.842 8.328-30.156 0-8.342-8.328-8.342-21.842 0-30.17 8.314-8.328 21.814-8.328 30.156 0zM454.126 601.122c-8.312 8.376-8.312 21.876 0 30.188 8.344 8.312 21.842 8.312 30.156 0 8.344-8.312 8.344-21.812 0-30.188-8.312-8.314-21.812-8.314-30.156 0zM100.388 601.122c8.342 8.376 8.342 21.876 0 30.188-8.312 8.312-21.812 8.312-30.156 0-8.312-8.312-8.312-21.812 0-30.188 8.344-8.314 21.844-8.314 30.156 0zM207.042 749.804c8.312 8.376 8.312 21.876 0 30.188-8.344 8.312-21.842 8.312-30.156 0-8.344-8.312-8.344-21.812 0-30.188 8.312-8.312 21.812-8.312 30.156 0zM347.506 750.43c-8.344 8.312-8.344 21.812 0 30.188 8.312 8.312 21.812 8.312 30.156 0 8.312-8.376 8.312-21.876 0-30.188-8.344-8.312-21.844-8.312-30.156 0zM400.816 675.808c-8.344 8.312-8.344 21.808 0 30.122 8.312 8.376 21.812 8.376 30.156 0 8.344-8.312 8.344-21.808 0-30.122-8.344-8.374-21.844-8.374-30.156 0z" fill="#434A54" /><path d="M812.832 628.464l-297.426 11.22-134.214-308.864 297.43-11.204z" fill="#F6BB42" /><path d="M812.832 628.464L1023.984 418.66 889.77 109.826 678.622 319.616z" fill="#EDAB35" /><path d="M592.308 121.028L381.192 330.82l297.43-11.204L889.77 109.826z" fill="#FFCE54" /><path d="M643.184 196.48c10.906 4.376 16.218 16.796 11.844 27.734-4.376 10.92-16.782 16.234-27.718 11.858-10.938-4.39-16.25-16.796-11.876-27.732 4.374-10.938 16.812-16.252 27.75-11.86zM525.406 409.238c10.938 4.376 16.25 16.796 11.876 27.718-4.376 10.938-16.782 16.25-27.718 11.876-10.936-4.39-16.25-16.796-11.874-27.734 4.372-10.938 16.81-16.25 27.716-11.86zM690.554 524.156c10.938 4.376 16.25 16.796 11.876 27.718-4.376 10.938-16.812 16.25-27.714 11.876-10.938-4.376-16.25-16.812-11.876-27.734 4.374-10.938 16.782-16.25 27.714-11.86zM640.246 406.504c10.938 4.374 16.25 16.796 11.844 27.734-4.376 10.922-16.782 16.234-27.718 11.86s-16.25-16.796-11.876-27.734c4.376-10.938 16.812-16.25 27.75-11.86zM575.746 526.876c10.938 4.39 16.25 16.796 11.876 27.75-4.376 10.938-16.812 16.25-27.746 11.876-10.938-4.406-16.25-16.812-11.844-27.766 4.374-10.924 16.776-16.236 27.714-11.86zM850.644 270.102c-4.406 10.92 0.906 23.342 11.844 27.732 10.938 4.376 23.376-0.938 27.75-11.874 4.376-10.922-0.938-23.342-11.876-27.734-10.936-4.374-23.342 0.94-27.718 11.876zM900.958 387.74c-4.376 10.936 0.938 23.358 11.876 27.732a21.294 21.294 0 0 0 27.714-11.858c4.406-10.936-0.906-23.342-11.844-27.734-10.934-4.376-23.34 0.938-27.746 11.86zM769.368 351.254c-4.376 10.938 0.938 23.344 11.876 27.734 10.938 4.376 23.34-0.938 27.714-11.86 4.376-10.938-0.938-23.358-11.84-27.734-10.938-4.388-23.376 0.924-27.75 11.86zM819.708 468.908c-4.376 10.938 0.938 23.344 11.844 27.734 10.938 4.376 23.376-0.938 27.75-11.876s-0.938-23.342-11.876-27.718c-10.938-4.388-23.344 0.922-27.718 11.86zM835.176 369.52c-4.376 10.938 0.938 23.36 11.876 27.734 10.938 4.39 23.344-0.922 27.718-11.858 4.376-10.938-0.938-23.36-11.844-27.734-10.938-4.376-23.376 0.936-27.75 11.858z" fill="#434A54" /></svg>