<?xml version="1.0" standalone="no"?><!DOCTYPE svg PUBLIC "-//W3C//DTD SVG 1.1//EN" "http://www.w3.org/Graphics/SVG/1.1/DTD/svg11.dtd"><svg class="icon" width="128px" height="128.00px" viewBox="0 0 1024 1024" version="1.1" xmlns="http://www.w3.org/2000/svg"><path d="M511.976 469.344c-11.782 0-21.312-9.532-21.312-21.344V149.354c0-11.782 9.532-21.342 21.312-21.342 11.78 0 21.342 9.562 21.342 21.342V448a21.33 21.33 0 0 1-21.342 21.344z" fill="#ED5564" /><path d="M639.97 618.684s-67.03 106.656-127.996 106.656c-60.936 0-127.996-106.656-127.996-106.656V448h255.992v170.684z" fill="#E6E9ED" /><path d="M575.972 170.698h-127.996a21.332 21.332 0 0 1-21.03-17.844l-21.344-127.996a21.26 21.26 0 0 1 4.782-17.28 21.32 21.32 0 0 1 16.282-7.562h170.652c6.28 0 12.216 2.782 16.28 7.562a21.248 21.248 0 0 1 4.75 17.28l-21.31 127.996a21.348 21.348 0 0 1-21.066 17.844z m-109.902-42.688h91.842l14.216-85.31H451.82l14.25 85.31z" fill="#434A54" /><path d="M511.976 682.684c-11.782 0-21.312-9.562-21.312-21.344v-127.996c0-11.782 9.532-21.344 21.312-21.344 11.78 0 21.342 9.562 21.342 21.344v127.996c0 11.782-9.562 21.344-21.342 21.344z" fill="#CCD1D9" /><path d="M956.148 990.458c-6.282-9.968-58.248-90.876-135.278-173.028-47.654-50.844-94.996-91.464-140.712-120.714-58.812-37.624-115.374-56.718-168.182-56.718-52.78 0-109.374 19.094-168.152 56.718-45.718 29.25-93.06 69.872-140.748 120.714-80.466 85.84-133.622 170.372-135.84 173.934a21.406 21.406 0 0 0-0.562 21.656 21.308 21.308 0 0 0 18.656 10.964h853.318c11.782 0 21.344-9.532 21.344-21.308 0-4.562-1.406-8.75-3.844-12.218z" fill="#FFCE54" /><path d="M159.016 1021.296c-0.624 0.876-1.124 1.782-1.624 2.688h52.592c86.53-115.746 163.496-184.336 214.026-222.054 58.03-43.308 94.56-56.278 94.904-56.402 11.124-3.844 17.062-15.906 13.282-27.062-3.812-11.156-15.938-17.094-27.062-13.312-6.408 2.154-158.934 56.28-346.118 316.142z" fill="#F6BB42" /></svg>