<?xml version="1.0" standalone="no"?><!DOCTYPE svg PUBLIC "-//W3C//DTD SVG 1.1//EN" "http://www.w3.org/Graphics/SVG/1.1/DTD/svg11.dtd"><svg class="icon" width="128px" height="128.00px" viewBox="0 0 1024 1024" version="1.1" xmlns="http://www.w3.org/2000/svg"><path d="M531.46 148.726l41.672 9.22-63.24 285.87-41.674-9.22z" fill="#A0D468" /><path d="M653.308 39.148c-12.75-19.764-36.248-24.718-58.936-29.5a801.142 801.142 0 0 1-8.562-1.844 563.94 563.94 0 0 1-8.562-1.954C564.25 2.834 551.938 0.008 539.954 0.008c-29.312 0-47.954 17.14-55.438 50.936-5.968 26.954-3.094 54.376 8.062 77.202 11.954 24.468 31.876 40.89 56.046 46.234 5.438 1.204 10.938 1.796 16.5 1.796 43.186 0 82.622-36.452 93.714-86.67 4.626-20.906 2.814-37.39-5.53-50.358z" fill="#DA4453" /><path d="M492.578 128.146c11.954 24.468 31.876 40.89 56.046 46.234 5.438 1.204 10.938 1.796 16.5 1.796 43.186 0 82.622-36.452 93.714-86.67 3.5-15.796 3.312-29.062-0.594-40.204-38.998 14.704-116.09 41.672-175.074 49.234 1.768 10.392 4.892 20.376 9.408 29.61z" fill="#ED5564" /><path d="M403.658 218.052l40.156 256.01h136.872l40.188-256.01z" fill="#48CFAD" /><path d="M263.566 517.532h498.43v143.778H263.566z" fill="#F4BE8E" /><path d="M160.944 1023.992h104.764l23.28-512.024H137.662zM734.996 511.968l23.312 512.024h104.746l23.282-512.024z" fill="#FFD2A6" /><path d="M159.006 981.304l1.938 42.688h104.764l1.936-42.688zM756.372 981.304l1.936 42.688h104.746l1.938-42.688z" fill="#A85D5D" /><path d="M341.332 511.968c-11.782 0-21.344 9.564-21.344 21.344v21.312c0 11.812 9.562 21.344 21.344 21.344 11.78 0 21.328-9.532 21.328-21.344v-21.312c-0.002-11.78-9.548-21.344-21.328-21.344zM426.658 511.968c-11.782 0-21.328 9.564-21.328 21.344v21.312c0 11.812 9.546 21.344 21.328 21.344a21.324 21.324 0 0 0 21.344-21.344v-21.312c-0.002-11.78-9.548-21.344-21.344-21.344zM512 511.968c-11.782 0-21.328 9.564-21.328 21.344v21.312c0 11.812 9.546 21.344 21.328 21.344s21.328-9.532 21.328-21.344v-21.312c0-11.78-9.546-21.344-21.328-21.344zM597.342 511.968c-11.782 0-21.344 9.564-21.344 21.344v21.312c0 11.812 9.562 21.344 21.344 21.344s21.344-9.532 21.344-21.344v-21.312c0-11.78-9.562-21.344-21.344-21.344zM682.684 511.968c-11.812 0-21.344 9.564-21.344 21.344v21.312a21.314 21.314 0 0 0 21.344 21.344c11.75 0 21.312-9.532 21.312-21.344v-21.312c0-11.78-9.562-21.344-21.312-21.344z" fill="#EAAD7A" /><path d="M938.68 426.642H85.32c-35.28 0-64 28.704-64 63.982 0 35.314 28.718 64 64 64h853.36c35.282 0 64-28.688 64-64 0-35.28-28.72-63.982-64-63.982z" fill="#A85D5D" /><path d="M85.32 447.97h853.36c31.656 0 58 23.092 63.094 53.342 0.594-3.468 0.906-7.032 0.906-10.688 0-35.28-28.718-63.982-64-63.982H85.32c-35.28 0-64 28.704-64 63.982 0 3.656 0.328 7.218 0.906 10.688 5.094-30.25 31.438-53.342 63.094-53.342z" fill="#FFFFFF" opacity=".2" /></svg>