<?xml version="1.0" standalone="no"?><!DOCTYPE svg PUBLIC "-//W3C//DTD SVG 1.1//EN" "http://www.w3.org/Graphics/SVG/1.1/DTD/svg11.dtd"><svg class="icon" width="128px" height="128.00px" viewBox="0 0 1024 1024" version="1.1" xmlns="http://www.w3.org/2000/svg"><path d="M85.336 320.002h853.346V874.68H85.336z" fill="#E6E9ED" /><path d="M618.688 618.686H172.008c-11.782 0-21.328-9.562-21.328-21.376 0-11.75 9.546-21.312 21.328-21.312h446.68c11.75 0 21.312 9.562 21.312 21.312 0 11.814-9.562 21.376-21.312 21.376zM618.688 703.996H172.008c-11.782 0-21.328-9.562-21.328-21.31 0-11.812 9.546-21.376 21.328-21.376h446.68c11.75 0 21.312 9.562 21.312 21.376 0 11.748-9.562 21.31-21.312 21.31zM384.004 789.306H172.008c-11.782 0-21.328-9.532-21.328-21.312s9.546-21.312 21.328-21.312h211.996c11.782 0 21.326 9.532 21.326 21.312s-9.544 21.312-21.326 21.312z" fill="#434A54" /><path d="M256.006 426.672h511.988v64H256.006zM746.684 694.996v94.31l42.122-21.312 43.188 22.218v-92.528z" fill="#ED5564" /><path d="M106.664 277.346a21.342 21.342 0 0 1-20.328-14.92c-3.546-11.234 2.672-23.218 13.922-26.766l405.32-127.998c11.234-3.546 23.218 2.688 26.766 13.92 3.546 11.234-2.688 23.218-13.922 26.766l-405.32 127.998c-2.142 0.672-4.312 1-6.438 1z" fill="#434A54" /><path d="M917.338 277.346c-2.124 0-4.282-0.328-6.438-1L505.578 148.35c-11.234-3.546-17.466-15.532-13.92-26.766 3.544-11.234 15.53-17.468 26.764-13.92l405.322 127.998c11.25 3.546 17.468 15.532 13.938 26.766-2.876 9.09-11.282 14.918-20.344 14.918z" fill="#434A54" /><path d="M512 128.006m-64 0a64 64 0 1 0 128 0 64 64 0 1 0-128 0Z" fill="#F6BB42" /><path d="M0.01 256.004h1008.358v64H0.01z" fill="#965353" /><path d="M938.682 308.894h69.686v631.974h-69.686z" fill="#965353" /><path d="M42.68 868.87h930.844v71.998H42.68z" fill="#965353" /><path d="M25.728 288.002h69.326v626.208H25.728z" fill="#965353" /><path d="M1002.68 234.676H21.338c-11.782 0-21.328 9.546-21.328 21.328V938.68c0 11.75 9.546 21.312 21.328 21.312H1002.68c11.75 0 21.31-9.562 21.31-21.312V256.004c0-11.782-9.56-21.328-21.31-21.328z m-72.874 63.998H94.18l-21.328-21.344h878.296l-21.342 21.344z m-12.5 42.658v511.976H106.68V341.332h810.626z m-853.298-12.486v536.96L42.68 887.15V307.502l21.328 21.344zM94.18 895.992h835.626l21.342 21.312H72.852l21.328-21.312z m865.812-30.186v-536.96l21.312-21.344v579.648l-21.312-21.344z" fill="#7F4545" /><path d="M853.306 639.998c0 35.344-28.624 63.998-64 63.998-35.312 0-63.998-28.654-63.998-63.998s28.686-64 63.998-64c35.376 0 64 28.656 64 64z" fill="#F6BB42" /><path d="M789.306 725.308c-47.03 0-85.308-38.25-85.308-85.31 0-47.062 38.28-85.31 85.308-85.31 47.062 0 85.376 38.248 85.376 85.31 0 47.06-38.312 85.31-85.376 85.31z m0-127.998c-23.5 0-42.624 19.156-42.624 42.688s19.124 42.688 42.624 42.688c23.562 0 42.688-19.156 42.688-42.688s-19.124-42.688-42.688-42.688z" fill="#FFCE54" /><path d="M810.682 639.998c0 11.782-9.562 21.312-21.376 21.312-11.75 0-21.312-9.532-21.312-21.312s9.562-21.312 21.312-21.312c11.814 0 21.376 9.53 21.376 21.312z" fill="#FFCE54" /></svg>