<?xml version="1.0" standalone="no"?><!DOCTYPE svg PUBLIC "-//W3C//DTD SVG 1.1//EN" "http://www.w3.org/Graphics/SVG/1.1/DTD/svg11.dtd"><svg class="icon" width="128px" height="128.00px" viewBox="0 0 1024 1024" version="1.1" xmlns="http://www.w3.org/2000/svg"><path d="M448.002 0.014h42.672v50h-42.672z" fill="#434A54" /><path d="M149.338 938.552H128.01v-21.124c0-11.782-9.544-21.312-21.326-21.312-11.796 0-21.344 9.532-21.344 21.312v21.124H64.012c-11.78 0-21.326 9.562-21.326 21.312 0 11.812 9.546 21.342 21.326 21.342H85.34v21.344c0 11.782 9.546 21.31 21.344 21.31 11.782 0 21.326-9.53 21.326-21.31v-21.344h21.328c11.782 0 21.344-9.53 21.344-21.342 0-11.748-9.562-21.312-21.344-21.312z" fill="#FC6E51" /><path d="M469.33 85.34m-63.998 0a63.998 63.998 0 1 0 127.996 0 63.998 63.998 0 1 0-127.996 0Z" fill="#AAB2BC" /><path d="M298.678 21.342c0 11.782-9.562 21.344-21.344 21.344-11.78 0-21.326-9.562-21.326-21.344S265.554 0.014 277.334 0.014c11.782 0 21.344 9.546 21.344 21.328z" fill="#EC87C0" /><path d="M810.682 64.014c0 11.78-9.562 21.326-21.376 21.326-11.75 0-21.312-9.546-21.312-21.326 0-11.782 9.562-21.328 21.312-21.328 11.814 0 21.376 9.546 21.376 21.328z" fill="#5D9CEC" /><path d="M938.678 192.01c0 11.782-9.562 21.328-21.376 21.328-11.75 0-21.312-9.546-21.312-21.328s9.562-21.328 21.312-21.328c11.814 0 21.376 9.546 21.376 21.328z" fill="#EC87C0" /><path d="M981.3 789.306c0 11.812-9.532 21.376-21.31 21.376-11.782 0-21.312-9.562-21.312-21.376 0-11.75 9.532-21.312 21.312-21.312 11.78 0 21.31 9.562 21.31 21.312z" fill="#A0D468" /><path d="M981.3 917.302c0 11.812-9.532 21.376-21.31 21.376-11.782 0-21.312-9.562-21.312-21.376 0-11.75 9.532-21.312 21.312-21.312 11.78 0 21.31 9.562 21.31 21.312z" fill="#EC87C0" /><path d="M853.304 959.99a21.296 21.296 0 0 1-21.312 21.31c-11.78 0-21.31-9.53-21.31-21.31s9.532-21.312 21.31-21.312a21.298 21.298 0 0 1 21.312 21.312z" fill="#5D9CEC" /><path d="M42.686 831.992c0 11.782-9.562 21.312-21.344 21.312S0.014 843.772 0.014 831.992c0-11.78 9.546-21.31 21.328-21.31s21.344 9.53 21.344 21.31z" fill="#A0D468" /><path d="M469.33 1002.676c-119.654 0-232.15-46.624-316.774-131.248-84.608-84.622-131.214-197.118-131.214-316.74 0-119.684 46.608-232.182 131.214-316.804 84.624-84.608 197.12-131.2 316.774-131.2 119.668 0 232.166 46.592 316.79 131.2 84.622 84.624 131.184 197.122 131.184 316.804 0 119.624-46.562 232.12-131.184 316.74-84.624 84.624-197.122 131.248-316.79 131.248z" fill="#E6E9ED" /><path d="M469.33 85.34C210.132 85.34 0.014 295.46 0.014 554.688c0 259.182 210.12 469.298 469.316 469.298 259.226 0 469.348-210.118 469.348-469.298 0-259.23-210.122-469.348-469.348-469.348z m426.16 447.988h-170.558c-2.312-67.358-15.624-131.934-38.186-191.994h152.184a423.814 423.814 0 0 1 23.56 47.264c19.468 46.062 30.532 94.654 33 144.73zM517.47 155.87c42.248 42.234 77.09 90.154 103.902 142.808h-130.7V130.762a570.252 570.252 0 0 1 26.798 25.108z m-69.468-25.124v167.932h-130.714c26.828-52.654 61.67-100.574 103.918-142.808a561.804 561.804 0 0 1 26.796-25.124z m0 210.588v191.994h-191.604c2.454-66.374 16.328-130.824 41.342-191.994h150.262z m0 234.666v191.994H297.74c-25.014-61.154-38.888-125.622-41.342-191.994h191.604z m0 234.682v167.87a568.346 568.346 0 0 1-26.796-25.092c-42.248-42.25-77.09-90.154-103.902-142.778h130.698z m42.672 167.868V810.68h130.7c-26.812 52.624-61.654 100.528-103.902 142.778a579.402 579.402 0 0 1-26.798 25.092z m0-210.556V576h191.604c-2.468 66.374-16.342 130.84-41.342 191.994h-150.262z m0-234.666v-191.994h150.262c25 61.17 38.874 125.622 41.342 191.994h-191.604z m280.352-280.352a429.17 429.17 0 0 1 39.718 45.702h-141.934a607.154 607.154 0 0 0-109.748-161.212 424.014 424.014 0 0 1 76.342 24.06c50.78 21.484 96.402 52.25 135.622 91.45z m-603.376 0c39.186-39.202 84.826-69.966 135.622-91.452a422.134 422.134 0 0 1 76.326-24.06c-44.716 47.186-81.936 101.558-109.746 161.212H127.95a429.14 429.14 0 0 1 39.7-45.7z m-67.92 88.358h152.2c-22.562 60.06-35.876 124.636-38.204 191.994H43.202c2.438-50.076 13.514-98.668 32.982-144.73a429.664 429.664 0 0 1 23.546-47.264zM43.202 576h170.526c2.328 67.374 15.64 131.934 38.204 191.994h-152.2a429.25 429.25 0 0 1-23.546-47.248C56.714 674.686 45.638 626.06 43.202 576z m124.448 280.368a431.82 431.82 0 0 1-39.702-45.686h141.918c27.794 59.622 65.014 113.996 109.73 161.184a419.624 419.624 0 0 1-76.326-24.062c-50.794-21.502-96.434-52.252-135.62-91.436z m603.376 0c-39.218 39.186-84.842 69.936-135.622 91.436a420.228 420.228 0 0 1-76.342 24.062 607.586 607.586 0 0 0 109.748-161.184h141.934a432.18 432.18 0 0 1-39.718 45.686z m67.904-88.374h-152.184c22.562-60.06 35.874-124.622 38.186-191.994h170.558c-2.468 50.06-13.532 98.686-33 144.746a429.344 429.344 0 0 1-23.56 47.248z" fill="#CCD1D9" /><path d="M106.684 128.012H85.34V106.902c0-11.782-9.546-21.344-21.328-21.344-11.78 0-21.326 9.562-21.326 21.344v21.11H21.342C9.56 128.012 0.014 137.558 0.014 149.338c0 11.782 9.546 21.344 21.328 21.344h21.344v21.328c0 11.782 9.546 21.328 21.326 21.328 11.782 0 21.328-9.546 21.328-21.328V170.682h21.344c11.782 0 21.326-9.562 21.326-21.344 0-11.78-9.546-21.326-21.326-21.326z" fill="#ED5564" /><path d="M1002.676 383.786H981.3v-21.108c0-11.782-9.532-21.344-21.31-21.344-11.782 0-21.312 9.562-21.312 21.344v21.108h-21.376c-11.75 0-21.312 9.546-21.312 21.328s9.562 21.344 21.312 21.344h21.376v21.326c0 11.782 9.532 21.328 21.312 21.328 11.78 0 21.31-9.546 21.31-21.328v-21.326h21.376c11.748 0 21.31-9.562 21.31-21.344s-9.562-21.328-21.31-21.328z" fill="#FFCE54" /></svg>