<?xml version="1.0" standalone="no"?><!DOCTYPE svg PUBLIC "-//W3C//DTD SVG 1.1//EN" "http://www.w3.org/Graphics/SVG/1.1/DTD/svg11.dtd"><svg class="icon" width="128px" height="128.00px" viewBox="0 0 1024 1024" version="1.1" xmlns="http://www.w3.org/2000/svg"><path d="M1023.984 746.68c0 47.124-38.216 85.31-85.342 85.31H85.324C38.2 831.99 0.016 793.804 0.016 746.68V277.35c0-47.124 38.186-85.34 85.308-85.34h853.318c47.124 0 85.342 38.216 85.342 85.34V746.68z" fill="#FFCE54" /><path d="M0.016 277.35h1023.968v127.998H0.016zM298.662 639.996H106.668c-11.782 0-21.344 9.562-21.344 21.344s9.562 21.342 21.344 21.342h191.994c11.782 0 21.344-9.56 21.344-21.342s-9.562-21.344-21.344-21.344zM490.656 554.686H106.668c-11.782 0-21.344 9.532-21.344 21.312 0 11.812 9.562 21.342 21.344 21.342h383.988c11.782 0 21.344-9.53 21.344-21.342 0-11.782-9.562-21.312-21.344-21.312z" fill="#434A54" /><path d="M703.9 618.684c35.344 0 63.998-28.654 63.998-63.998 0-35.342-28.654-63.998-63.998-63.998-35.376 0-63.998 28.656-63.998 63.998 0 35.344 28.624 63.998 63.998 63.998z m0-85.34c11.75 0 21.312 9.562 21.312 21.342 0 11.75-9.562 21.312-21.312 21.312-11.782 0-21.344-9.562-21.344-21.312 0-11.78 9.564-21.342 21.344-21.342zM831.896 618.684c-35.376 0-63.998 28.656-63.998 63.998 0 35.344 28.624 63.998 63.998 63.998 35.344 0 63.998-28.654 63.998-63.998 0-35.342-28.654-63.998-63.998-63.998z m0 85.31c-11.782 0-21.344-9.562-21.344-21.312 0-11.78 9.562-21.342 21.344-21.342 11.75 0 21.312 9.562 21.312 21.342 0 11.75-9.562 21.312-21.312 21.312z" fill="#ED5564" /><path d="M889.832 527.094a21.17 21.17 0 0 0 6.25-15.094c0-11.782-9.562-21.312-21.342-21.312a21.286 21.286 0 0 0-15.094 6.25L647.9 708.682c-4.876 3.938-7.998 9.938-7.998 16.654 0 11.782 9.53 21.344 21.31 21.344 5.906 0 11.218-2.406 15.094-6.25l0.094 0.094 213.432-213.43z" fill="#ED5564" /></svg>