<?xml version="1.0" standalone="no"?><!DOCTYPE svg PUBLIC "-//W3C//DTD SVG 1.1//EN" "http://www.w3.org/Graphics/SVG/1.1/DTD/svg11.dtd"><svg class="icon" width="128px" height="128.00px" viewBox="0 0 1024 1024" version="1.1" xmlns="http://www.w3.org/2000/svg"><path d="M170.666 1002.652c0 11.782-9.562 21.344-21.344 21.344s-21.344-9.562-21.344-21.344 9.562-21.344 21.344-21.344 21.344 9.564 21.344 21.344zM895.99 1002.652c0 11.782-9.562 21.344-21.312 21.344-11.812 0-21.376-9.562-21.376-21.344s9.562-21.344 21.376-21.344c11.75 0 21.312 9.564 21.312 21.344z" fill="#434A54" /><path d="M917.302 0.004H106.666c-11.782 0-21.344 9.532-21.344 21.312v959.992c0 11.782 9.562 21.344 21.344 21.344h810.636c11.812 0 21.376-9.562 21.376-21.344V21.316c0-11.78-9.562-21.312-21.376-21.312z" fill="#E6E9ED" /><path d="M85.322 193.034h853.356v681.622H85.322z" fill="#5D9CEC" /><path d="M895.99 85.314c0 35.344-28.624 64-64 64s-64-28.656-64-64c0-35.342 28.624-63.998 64-63.998s64 28.656 64 63.998z" fill="#434A54" /><path d="M853.24 65.564c-0.876 11.75-11.062 20.562-22.812 19.688s-20.562-11.094-19.688-22.844 11.062-20.56 22.812-19.686 20.564 11.092 19.688 22.842z" fill="#656D78" /><path d="M191.978 64.002c-11.75 0-21.312 9.532-21.312 21.312s9.562 21.344 21.312 21.344c11.812 0 21.344-9.562 21.344-21.344s-9.53-21.312-21.344-21.312zM277.322 64.002c-11.782 0-21.344 9.532-21.344 21.312s9.562 21.344 21.344 21.344 21.344-9.562 21.344-21.344-9.562-21.312-21.344-21.312zM362.664 64.002c-11.782 0-21.342 9.532-21.342 21.312s9.56 21.344 21.342 21.344 21.312-9.562 21.312-21.344-9.53-21.312-21.312-21.312z" fill="#5D9CEC" /><path d="M85.322 170.658v42.656h256c0 11.782 9.56 21.344 21.342 21.344h298.64c11.812 0 21.376-9.562 21.376-21.344h255.998V170.658H85.322zM597.304 490.656C597.304 608.468 501.82 704 383.976 704c-117.81 0-213.31-95.532-213.31-213.344 0-117.81 95.5-213.342 213.31-213.342 117.844 0 213.328 95.532 213.328 213.342z" fill="#CCD1D9" /><path d="M597.304 554.656C597.304 672.468 501.82 768 383.976 768c-117.81 0-213.31-95.532-213.31-213.344s95.5-213.342 213.31-213.342c117.844 0 213.328 95.53 213.328 213.342z" fill="#E6E9ED" /><path d="M597.304 618.656c0 117.812-95.484 213.342-213.328 213.342-117.81 0-213.31-95.53-213.31-213.342s95.5-213.344 213.31-213.344c117.844 0 213.328 95.532 213.328 213.344z" fill="#F5F7FA" /><path d="M490.664 618.656c0 58.906-47.75 106.656-106.688 106.656-58.874 0-106.654-47.75-106.654-106.656S325.104 512 383.976 512c58.938 0 106.688 47.75 106.688 106.656z" fill="#E6E9ED" /><path d="M639.992 298.658L661.304 512h170.686l21.312-213.342z" fill="#BDC2C9" /><path d="M639.992 405.312l21.312 213.344h170.686l21.312-213.344z" fill="#CCD1D9" /><path d="M639.992 512l21.312 213.312h170.686L853.302 512z" fill="#E6E9ED" /><path d="M639.992 618.656l21.312 213.342h170.686l21.312-213.342z" fill="#F5F7FA" /></svg>