<?xml version="1.0" standalone="no"?><!DOCTYPE svg PUBLIC "-//W3C//DTD SVG 1.1//EN" "http://www.w3.org/Graphics/SVG/1.1/DTD/svg11.dtd"><svg class="icon" width="128px" height="128.00px" viewBox="0 0 1024 1024" version="1.1" xmlns="http://www.w3.org/2000/svg"><path d="M874.68 0H21.32v1024h981.36V128l-128-128zM106.664 960c-11.782 0-21.344-9.562-21.344-21.312 0-11.812 9.562-21.376 21.344-21.376s21.328 9.562 21.328 21.376c0 11.75-9.546 21.312-21.328 21.312z" fill="#656D78" /><path d="M874.68 0h-42.688l128 128v896h42.688V128z" fill="#FFFFFF" opacity=".2" /><path d="M703.992 362.672c0 11.782-9.562 21.328-21.312 21.328H170.664c-11.782 0-21.344-9.546-21.344-21.328V21.328C149.32 9.546 158.882 0 170.664 0H682.68c11.75 0 21.312 9.546 21.312 21.328v341.344z" fill="#434A54" /><path d="M789.304 362.672c0 11.782-9.532 21.328-21.312 21.328H341.32c-11.782 0-21.328-9.546-21.328-21.328V21.328C319.992 9.546 329.54 0 341.32 0h426.672c11.782 0 21.312 9.546 21.312 21.328v341.344z" fill="#FFCE54" /><path d="M639.992 85.328c-11.782 0-21.312 9.562-21.312 21.344v170.656c0 11.782 9.532 21.344 21.312 21.344s21.312-9.562 21.312-21.344V106.672c0-11.782-9.53-21.344-21.312-21.344z" fill="#434A54" /><path d="M789.304 682.688h-554.64c-11.782 0-21.344 9.532-21.344 21.312s9.562 21.312 21.344 21.312h554.64c11.812 0 21.376-9.532 21.376-21.312s-9.562-21.312-21.376-21.312zM789.304 810.688h-554.64c-11.782 0-21.344 9.532-21.344 21.312s9.562 21.312 21.344 21.312h554.64c11.812 0 21.376-9.532 21.376-21.312s-9.562-21.312-21.376-21.312zM234.664 597.312h554.64c11.812 0 21.376-9.532 21.376-21.312s-9.562-21.312-21.376-21.312h-554.64c-11.782 0-21.344 9.532-21.344 21.312s9.562 21.312 21.344 21.312z" fill="#434A54" /></svg>