<?xml version="1.0" standalone="no"?><!DOCTYPE svg PUBLIC "-//W3C//DTD SVG 1.1//EN" "http://www.w3.org/Graphics/SVG/1.1/DTD/svg11.dtd"><svg class="icon" width="128px" height="128.00px" viewBox="0 0 1024 1024" version="1.1" xmlns="http://www.w3.org/2000/svg"><path d="M512 0C229.234 0 0 229.234 0 512c0 282.75 229.234 512 512 512 282.75 0 512-229.25 512-512C1024 229.234 794.75 0 512 0z m0 554.688c-23.532 0-42.672-19.156-42.672-42.688s19.14-42.672 42.672-42.672 42.688 19.14 42.688 42.672-19.156 42.688-42.688 42.688z" fill="#CCD1D9" /><path d="M512 554.688c-23.532 0-42.672-19.156-42.672-42.688s19.14-42.672 42.672-42.672 42.688 19.14 42.688 42.672-19.156 42.688-42.688 42.688z" fill="#FFFFFF" /><path d="M481.844 481.844L149.954 149.968C88.578 211.344 42.72 288.234 18.75 374.264l452.156 126.266a42.896 42.896 0 0 1 10.938-18.686zM553.094 523.468a43.202 43.202 0 0 1-10.938 18.688l331.876 331.876c61.406-61.376 107.25-138.282 131.218-224.282l-452.156-126.282z" fill="#E6E9ED" /><path d="M512 362.672c-82.344 0-149.328 66.984-149.328 149.328s66.984 149.312 149.328 149.312 149.312-66.968 149.312-149.312-66.968-149.328-149.312-149.328z m0 192.016c-23.532 0-42.672-19.156-42.672-42.688s19.14-42.672 42.672-42.672 42.688 19.14 42.688 42.672-19.156 42.688-42.688 42.688z" fill="#5D9CEC" /><path d="M512 448c-35.344 0-64 28.656-64 64s28.656 64 64 64 64-28.656 64-64-28.656-64-64-64z m0 85.328c-11.766 0-21.328-9.562-21.328-21.328s9.562-21.328 21.328-21.328 21.328 9.562 21.328 21.328-9.562 21.328-21.328 21.328z" fill="#4A89DC" /><path d="M512 341.328c-94.25 0-170.672 76.406-170.672 170.672 0 94.25 76.422 170.688 170.672 170.688s170.688-76.438 170.688-170.688c0-94.266-76.438-170.672-170.688-170.672zM512 640c-70.578 0-128-57.438-128-128 0-70.578 57.422-128 128-128 70.562 0 128 57.422 128 128 0 70.562-57.438 128-128 128z" fill="#4A89DC" /><path d="M512 0C229.234 0 0 229.234 0 512c0 282.75 229.234 512 512 512 282.75 0 512-229.25 512-512C1024 229.234 794.75 0 512 0z m331.876 843.876c-43.124 43.124-93.312 76.938-149.188 100.594-57.844 24.468-119.312 36.844-182.688 36.844s-124.844-12.376-182.672-36.844c-55.89-23.656-106.078-57.468-149.204-100.594-43.11-43.124-76.954-93.312-100.594-149.188-24.468-57.844-36.86-119.312-36.86-182.688s12.39-124.844 36.86-182.672c23.64-55.89 57.484-106.078 100.594-149.204 43.124-43.11 93.312-76.954 149.204-100.594 57.828-24.468 119.296-36.86 182.672-36.86s124.844 12.39 182.688 36.86c55.876 23.64 106.062 57.484 149.188 100.594 43.124 43.124 76.938 93.312 100.594 149.204 24.468 57.828 36.844 119.296 36.844 182.672s-12.376 124.844-36.844 182.688c-23.658 55.874-57.47 106.062-100.594 149.188z" fill="#FFFFFF" opacity=".2" /></svg>