<?xml version="1.0" standalone="no"?><!DOCTYPE svg PUBLIC "-//W3C//DTD SVG 1.1//EN" "http://www.w3.org/Graphics/SVG/1.1/DTD/svg11.dtd"><svg class="icon" width="128px" height="128.00px" viewBox="0 0 1024 1024" version="1.1" xmlns="http://www.w3.org/2000/svg"><path d="M554.842 192.01h-85.31c-11.782 0-21.342-9.546-21.342-21.326 0-11.782 9.562-21.328 21.342-21.328h85.31c11.782 0 21.344 9.546 21.344 21.328 0 11.778-9.562 21.326-21.344 21.326z" fill="#656D78" /><path d="M853.706 42.688H170.668c-11.782 0-21.312 9.544-21.312 21.326v85.342c0 11.782 9.53 21.328 21.312 21.328h683.038c11.782 0 21.312-9.546 21.312-21.328V64.014c0-11.782-9.532-21.326-21.312-21.326z" fill="#434A54" /><path d="M341.35 0.018h-85.342c-11.78 0-21.342 9.562-21.342 21.344v190.21c0 11.782 9.562 21.326 21.342 21.326h85.342c11.78 0 21.312-9.544 21.312-21.326V21.362c0-11.782-9.532-21.344-21.312-21.344zM767.99 0.018h-85.338c-11.782 0-21.312 9.562-21.312 21.344v190.21c0 11.782 9.532 21.326 21.312 21.326h85.338c11.782 0 21.344-9.544 21.344-21.326V21.362c0-11.782-9.562-21.344-21.344-21.344z" fill="#656D78" /><path d="M313.756 91.608c8.342 8.328 8.342 21.826 0 30.17-8.344 8.328-21.844 8.328-30.156 0-8.342-8.344-8.342-21.842 0-30.17 8.314-8.344 21.814-8.344 30.156 0z" fill="#AAB2BC" /><path d="M298.664 170.684c-105.872 0-191.994 86.136-191.994 191.992v639.994c0 11.782 9.562 21.312 21.342 21.312h341.332a21.3 21.3 0 0 0 21.312-21.312V362.676c0-105.856-86.12-191.992-191.992-191.992zM725.334 170.684c-105.87 0-191.99 86.136-191.99 191.992v639.994a21.298 21.298 0 0 0 21.31 21.312h341.332c11.782 0 21.344-9.532 21.344-21.312V362.676c0-105.856-86.154-191.992-191.996-191.992z" fill="#AC92EB" /><path d="M725.334 170.684c-7.218 0-14.342 0.422-21.34 1.188 95.872 10.654 170.648 92.152 170.648 190.804v639.994a21.3 21.3 0 0 1-21.312 21.312h42.656c11.782 0 21.344-9.532 21.344-21.312V362.676c0-105.856-86.154-191.992-191.996-191.992zM298.664 170.684c-7.188 0-14.312 0.422-21.312 1.188 95.84 10.654 170.65 92.152 170.65 190.804v639.994c0 11.782-9.562 21.312-21.344 21.312h42.686a21.3 21.3 0 0 0 21.312-21.312V362.676c0-105.856-86.12-191.992-191.992-191.992z" fill="#FFFFFF" opacity=".2" /><path d="M740.396 91.608c8.344 8.328 8.344 21.826 0 30.17-8.312 8.328-21.812 8.328-30.154 0-8.342-8.344-8.342-21.842 0-30.17 8.342-8.344 21.842-8.344 30.154 0z" fill="#AAB2BC" /></svg>