<?xml version="1.0" standalone="no"?><!DOCTYPE svg PUBLIC "-//W3C//DTD SVG 1.1//EN" "http://www.w3.org/Graphics/SVG/1.1/DTD/svg11.dtd"><svg class="icon" width="128px" height="128.00px" viewBox="0 0 1024 1024" version="1.1" xmlns="http://www.w3.org/2000/svg"><path d="M405.466 746.736h-85.342c-11.812 0-21.342 9.562-21.342 21.312 0 47.06-38.312 85.372-85.372 85.372-47.062 0-85.342-38.31-85.342-85.372V234.566c0-11.78-9.562-21.326-21.342-21.326H21.354c-11.78 0-21.342 9.546-21.342 21.326v533.482c0 117.684 95.746 213.43 213.4 213.43 117.682 0 213.398-95.746 213.398-213.43-0.002-11.75-9.564-21.312-21.344-21.312z" fill="#AC92EB" /><path d="M233.502 261.878c0.094-0.282 0.124-0.422 0.124-0.422l-40.436-13.624c1.344-4 14.876-40.184 73.34-74.918 74.154-44.046 185.524-66.374 330.988-66.374 145.494 0 256.802 22.328 330.866 66.388 58.402 34.734 71.872 70.934 73.214 74.95l-40.466 13.546s0.032 0.14 0.156 0.406c-0.122-0.264-727.692-0.234-727.786 0.048z" fill="#434A54" /><path d="M835.17 618.648c-27.186 0-63.31-6.844-105.154-14.718-39.778-7.532-84.806-16.062-130.588-20.124l-1.906-0.156-1.876 0.156c-45.78 4.062-90.84 12.562-130.588 20.094-41.968 7.906-78.184 14.75-105.402 14.75-12.812 0-22.812-1.532-30.5-4.656-36.78-14.844-67.592-44.032-91.654-86.716-25.654-45.544-36.654-94.168-41.374-126.948-10-69.388-1.282-130.324 21.25-148.184 26-20.64 64.842-34.7 122.184-44.278 60.78-10.156 145.12-15.376 257.834-15.968 112.714 0.594 197.056 5.812 257.834 15.968 57.344 9.578 96.154 23.638 122.186 44.278 22.498 17.86 31.248 78.794 21.248 148.184-4.718 32.78-15.718 81.404-41.374 126.948-24.06 42.686-54.874 71.874-91.654 86.716-7.718 3.124-17.684 4.654-30.466 4.654z" fill="#5D9CEC" /><path d="M467.276 713.486c0.218-0.438 0.406-0.874 0.594-1.31 0.124-0.312 0.218-0.562 0.312-0.876 0.124-0.376 0.282-0.688 0.376-1.062 0.124-0.376 0.218-0.75 0.282-1.124 0.094-0.312 0.188-0.624 0.25-0.938l0.188-1.312c0.032-0.25 0.094-0.5 0.094-0.75 0.062-0.562 0.094-1.124 0.094-1.688 0-0.124 0.032-0.25 0.032-0.376v-0.062c0-0.688-0.032-1.376-0.124-2.062-0.032-0.438-0.124-0.938-0.188-1.376-0.032-0.25-0.062-0.5-0.124-0.688a11.222 11.222 0 0 0-0.376-1.562c-0.032-0.124-0.062-0.312-0.124-0.438-0.124-0.5-0.312-0.938-0.468-1.376-0.094-0.188-0.156-0.438-0.218-0.624a8.316 8.316 0 0 0-0.532-1.06c-0.124-0.312-0.218-0.562-0.376-0.812a9.446 9.446 0 0 0-0.468-0.812 13.66 13.66 0 0 0-0.624-1 5.914 5.914 0 0 0-0.406-0.562c-0.25-0.376-0.532-0.75-0.812-1.124-0.124-0.124-0.25-0.25-0.376-0.406-0.344-0.376-0.656-0.782-1.032-1.124-0.218-0.218-0.438-0.406-0.656-0.594-0.282-0.282-0.562-0.562-0.876-0.812a17.07 17.07 0 0 0-1.718-1.25c-0.094-0.062-0.218-0.124-0.312-0.188a17.424 17.424 0 0 0-1.5-0.906c-0.218-0.094-0.438-0.218-0.624-0.312a24.452 24.452 0 0 0-1.282-0.594c-0.282-0.124-0.562-0.188-0.876-0.312-0.344-0.124-0.718-0.25-1.062-0.376-0.376-0.124-0.75-0.188-1.124-0.282a7.596 7.596 0 0 0-0.906-0.218 9.788 9.788 0 0 0-1.376-0.188 4.386 4.386 0 0 0-0.688-0.124c-0.594-0.062-1.156-0.062-1.75-0.062-0.124-0.032-0.218-0.062-0.344-0.062H277.444c-0.094 0-0.188 0.032-0.282 0.032-0.624 0.032-1.218 0.032-1.812 0.094l-0.656 0.094c-0.5 0.062-0.968 0.124-1.438 0.218a11.638 11.638 0 0 0-0.876 0.218c-0.376 0.094-0.75 0.156-1.124 0.282s-0.718 0.25-1.062 0.376c-0.312 0.124-0.594 0.188-0.906 0.312-0.406 0.188-0.812 0.376-1.218 0.594-0.218 0.094-0.438 0.218-0.656 0.312a17.424 17.424 0 0 0-1.5 0.906 2.568 2.568 0 0 0-0.312 0.188h-0.032c-0.594 0.376-1.156 0.812-1.718 1.25-0.282 0.25-0.562 0.532-0.844 0.812-0.218 0.188-0.468 0.376-0.656 0.594a11.778 11.778 0 0 0-1.032 1.124 4.398 4.398 0 0 1-0.376 0.406l-0.844 1.124c-0.124 0.188-0.282 0.376-0.406 0.562a7.718 7.718 0 0 0-0.594 1c-0.156 0.25-0.344 0.5-0.468 0.812a4.88 4.88 0 0 0-0.406 0.812c-0.156 0.312-0.344 0.688-0.5 1.06-0.094 0.188-0.156 0.438-0.218 0.624a13.942 13.942 0 0 0-0.5 1.376c-0.032 0.124-0.062 0.312-0.094 0.438-0.156 0.5-0.282 1-0.406 1.562-0.032 0.188-0.062 0.438-0.094 0.688-0.094 0.438-0.156 0.938-0.218 1.376-0.062 0.688-0.094 1.376-0.094 2.062v0.062c0 0.124 0.032 0.25 0.032 0.376 0 0.562 0.032 1.124 0.062 1.688 0.032 0.25 0.094 0.5 0.124 0.75 0.062 0.438 0.094 0.876 0.188 1.312 0.062 0.312 0.156 0.624 0.218 0.938l0.282 1.124c0.124 0.376 0.25 0.688 0.406 1.062 0.094 0.312 0.188 0.562 0.312 0.876 0.156 0.438 0.376 0.874 0.594 1.31l0.282 0.562c0.282 0.562 0.624 1.062 0.938 1.562a0.872 0.872 0 0 0 0.156 0.25l0.032 0.062 0.032 0.062 21.282 63.938a21.378 21.378 0 0 0 17.75 9.498h127.996c6.906 0 13.688-3.374 17.782-9.498l21.25-63.938c0.032 0 0.062-0.062 0.062-0.062l0.032-0.062a0.844 0.844 0 0 0 0.156-0.25c0.312-0.5 0.624-1 0.938-1.562 0.08-0.188 0.174-0.376 0.268-0.564z" fill="#434A54" /><path d="M128.07 768.048v-21.376H0.012v21.376c0 7.188 0.376 14.312 1.062 21.31h129.682a85.426 85.426 0 0 1-2.686-21.31zM152.538 827.794a85.01 85.01 0 0 1-21.342-36.936L18.886 855.732c5.906 13.062 13.092 25.376 21.374 36.938l112.278-64.876zM125.726 962.604l64.842-112.308a85.44 85.44 0 0 1-36.936-21.376L88.82 941.168a214.526 214.526 0 0 0 36.906 21.436zM234.752 980.354v-129.622a86.09 86.09 0 0 1-42.686 0v129.622c7.032 0.75 14.156 1.124 21.344 1.124 7.218 0 14.312-0.374 21.342-1.124z" fill="#967ADC" /><path d="M642.74 191.912l-121.964 409.518c36.436-6.812 76.714-14 117.558-17.624l1.876-0.156 1.876 0.156c2.156 0.188 4.282 0.438 6.438 0.624l115.994-389.456c-36.252-1.78-76.718-2.796-121.778-3.062z" fill="#FFFFFF" opacity=".1" /><path d="M990.664 235.426c-28.936-22.966-70.872-38.42-131.902-48.608-61.934-10.342-147.37-15.67-261.272-16.264h-0.218c-113.872 0.594-199.304 5.922-261.24 16.264-61.03 10.188-102.966 25.64-131.932 48.608-35.312 28.014-37.75 107.982-29.092 167.948 4.968 34.576 16.624 85.95 43.904 134.386 26.468 46.982 60.874 79.294 102.214 96.044 10.312 4.156 22.906 6.188 38.53 6.188 29.218 0 66.34-7 109.34-15.124 39.312-7.438 83.81-15.812 128.526-19.812 44.75 4 89.216 12.376 128.494 19.812 42.906 8.124 79.968 15.124 109.154 15.124 15.592 0 28.186-2.032 38.466-6.188 41.376-16.75 75.748-49.062 102.216-96.044 27.31-48.436 38.966-99.81 43.936-134.386 8.658-59.966 6.188-139.934-29.124-167.948z m-13.122 161.87c-4.438 30.968-14.812 76.84-38.842 119.51-21.624 38.376-48.906 64.436-81.062 77.436-3.468 1.376-10.186 3.062-22.466 3.062-25.186 0-60.404-6.656-101.216-14.376-40.214-7.594-85.806-16.218-132.65-20.376l-3.782-0.31-3.75 0.31c-46.84 4.156-92.434 12.75-132.682 20.376-40.906 7.718-76.216 14.376-101.434 14.376-12.312 0-19.03-1.688-22.5-3.062-32.186-13-59.436-39.06-81.06-77.436-24.03-42.67-34.404-88.542-38.874-119.526-4.218-29.468-4.906-60.264-1.812-84.466 4.374-34.452 14.124-43.076 15.216-43.952 22.75-18.046 59.53-31.124 112.434-39.952 59.624-9.968 142.806-15.092 254.334-15.67 111.496 0.578 194.682 5.704 254.334 15.67 52.876 8.828 89.656 21.904 112.436 39.952 1.094 0.876 10.844 9.5 15.218 43.952 3.092 24.218 2.408 54.998-1.842 84.482z" fill="#4A89DC" /><path d="M678.896 534.542c-26.938-59.06-52.782-86.576-81.376-86.576-28.56 0-54.402 27.5-81.34 86.53-17.282 37.874-28.688 75.124-29.156 76.686a20.988 20.988 0 0 0-0.5 10.376c34.782-6.468 72.81-13.094 110.996-16.5 38.25 3.406 76.282 10.062 111.058 16.532a19.568 19.568 0 0 0 0.406-3.844v-0.25a21.16 21.16 0 0 0-0.938-6.25c-0.466-1.566-11.87-38.816-29.15-76.704z" fill="#434A54" /><path d="M116.258 87.448L30.916 44.776A21.354 21.354 0 0 0 0.012 63.854V255.908H128.068V106.54a21.34 21.34 0 0 0-11.81-19.092z" fill="#E6E9ED" /></svg>