<?xml version="1.0" standalone="no"?><!DOCTYPE svg PUBLIC "-//W3C//DTD SVG 1.1//EN" "http://www.w3.org/Graphics/SVG/1.1/DTD/svg11.dtd"><svg class="icon" width="128px" height="128.00px" viewBox="0 0 1024 1024" version="1.1" xmlns="http://www.w3.org/2000/svg"><path d="M426.76 0.014C191.424 0.014 0.646 190.792 0.646 426.128S191.424 852.242 426.76 852.242c235.356 0 426.1-190.776 426.1-426.114S662.116 0.014 426.76 0.014z m0 447.426c-11.748 0-21.31-9.544-21.31-21.31s9.562-21.296 21.31-21.296c11.782 0 21.312 9.532 21.312 21.296s-9.53 21.31-21.312 21.31z" fill="#434A54" /><path d="M426.76 298.302c-70.466 0-127.808 57.344-127.808 127.826 0 70.498 57.342 127.84 127.808 127.84 70.498 0 127.858-57.342 127.858-127.84 0-70.482-57.36-127.826-127.858-127.826z m0 149.138c-11.748 0-21.31-9.544-21.31-21.31s9.562-21.296 21.31-21.296c11.782 0 21.312 9.532 21.312 21.296s-9.53 21.31-21.312 21.31z" fill="#ED5564" /><path d="M426.76 276.992c-82.372 0-149.122 66.78-149.122 149.136 0 82.374 66.75 149.122 149.122 149.122 82.374 0 149.168-66.748 149.168-149.122 0-82.356-66.796-149.136-149.168-149.136z m0 255.664c-58.748 0-106.528-47.78-106.528-106.528 0-58.734 47.78-106.53 106.528-106.53 58.75 0 106.53 47.794 106.53 106.53 0 58.748-47.78 106.528-106.53 106.528z" fill="#DA4453" /><path d="M426.76 170.462c-11.748 0-21.31 9.532-21.31 21.296 0 11.782 9.562 21.312 21.31 21.312 56.938 0 110.436 22.154 150.668 62.404 40.25 40.248 62.376 93.746 62.376 150.652h42.624c-0.002-141.196-114.438-255.664-255.668-255.664z" fill="#656D78" /><path d="M426.76 85.23c-11.748 0-21.31 9.546-21.31 21.312s9.562 21.312 21.31 21.312c40.312 0 79.342 7.876 116.092 23.42 35.514 15.016 67.452 36.532 94.826 63.938 27.438 27.404 48.936 59.31 63.936 94.824 15.56 36.75 23.436 75.81 23.436 116.092h42.624c0-188.26-152.622-340.898-340.914-340.898zM426.76 639.186c-56.904 0-110.402-22.156-150.652-62.404-40.248-40.234-62.404-93.732-62.404-150.652 0-11.766-9.532-21.296-21.31-21.296-11.75 0-21.282 9.532-21.282 21.296 0 141.184 114.464 255.68 255.648 255.68 11.782 0 21.312-9.56 21.312-21.31s-9.53-21.314-21.312-21.314z" fill="#656D78" /><path d="M426.76 724.432c-40.28 0-79.34-7.904-116.09-23.436-35.5-15.032-67.404-36.56-94.81-63.936-27.404-27.438-48.936-59.31-63.936-94.842-15.562-36.748-23.438-75.794-23.438-116.09 0-11.766-9.53-21.296-21.31-21.296-11.75 0-21.312 9.532-21.312 21.296 0 188.276 152.652 340.896 340.896 340.896 11.782 0 21.312-9.532 21.312-21.312s-9.53-21.28-21.312-21.28z" fill="#656D78" /><path d="M637.178 906.49l-128.138-300.46c-13.624-32.53 1.75-69.966 34.312-83.574 32.576-13.61 70.014 1.75 83.638 34.326l75.374 180.088-65.186 169.62z" fill="#DBADA2" /><path d="M661.116 257.04c23.56 0 42.624 19.078 42.624 42.608v326.664h-85.186V299.646c-0.002-23.528 19.062-42.606 42.562-42.606zM767.674 214.416c23.5 0 42.562 19.092 42.562 42.624v326.648h-85.188V257.04c0-23.532 19.064-42.624 42.626-42.624zM874.17 257.04c23.562 0 42.624 19.078 42.624 42.608v326.664h-85.186V299.646c0.002-23.528 19.064-42.606 42.562-42.606zM980.73 342.24c23.562 0 42.624 19.11 42.624 42.638v326.618h-85.246V384.878c0-23.528 19.062-42.638 42.622-42.638z" fill="#EAC6BB" /><path d="M618.552 821.62V557.968h85.186c0 5.844 4.812 10.656 10.686 10.656 5.876 0 10.624-4.812 10.624-10.656h85.188c0 5.844 4.812 10.656 10.688 10.656 5.874 0 10.686-4.812 10.686-10.656h85.186a10.676 10.676 0 0 0 10.688 10.656c5.812 0 10.624-4.812 10.624-10.656h85.246V821.62c0 111.746-90.684 202.368-202.43 202.368-111.748-0.002-202.372-90.622-202.372-202.368z" fill="#EAC6BB" /></svg>