<?xml version="1.0" standalone="no"?><!DOCTYPE svg PUBLIC "-//W3C//DTD SVG 1.1//EN" "http://www.w3.org/Graphics/SVG/1.1/DTD/svg11.dtd"><svg class="icon" width="128px" height="128.00px" viewBox="0 0 1024 1024" version="1.1" xmlns="http://www.w3.org/2000/svg"><path d="M725.244 1000.738l-42.686-474.66c-0.968-11-10.188-19.422-21.25-19.422H362.692c-11.062 0-20.282 8.422-21.25 19.422l-42.688 474.66a21.42 21.42 0 0 0 5.5 16.312 21.414 21.414 0 0 0 15.75 6.938h383.99c6 0 11.688-2.532 15.75-6.938a21.418 21.418 0 0 0 5.5-16.312z" fill="#FFCE54" /><path d="M746.68 170.664H277.318c-35.25 0-63.998-28.702-63.998-63.998V64.01c0-35.294 28.748-63.998 63.998-63.998H746.68c35.25 0 64 28.704 64 63.998v42.656c0 35.296-28.75 63.998-64 63.998z" fill="#FFD2A6" /><path d="M805.71 92.994a21.356 21.356 0 0 0-16.406-7.656H234.694a21.356 21.356 0 0 0-16.406 7.656 21.436 21.436 0 0 0-4.592 17.484l85.308 469.332c1.876 10.124 10.688 17.5 21 17.5h383.99c10.312 0 19.124-7.376 21-17.5l85.31-469.332a21.424 21.424 0 0 0-4.594-17.484z" fill="#FC6E51" /><path d="M343.378 85.448c-11.688 1.218-20.218 11.718-19 23.438l50.966 488.426h42.782c0-0.718-0.032-1.438-0.124-2.188L366.816 104.448c-1.124-10.968-10.406-19.124-21.188-19.11h-0.094c-0.718 0-1.406 0.032-2.156 0.11zM455.812 85.354a21.318 21.318 0 0 0-20.592 22.062l17.032 489.894h42.654c0-0.25 0.032-0.5 0.032-0.75l-17.062-490.628c-0.438-11.782-10.314-21-22.064-20.578zM568.186 85.354c-11.75-0.422-21.624 8.796-22.062 20.578l-17.06 490.628c0 0.25 0.032 0.5 0.032 0.75h42.652l17.032-489.894a21.32 21.32 0 0 0-20.594-22.062zM657.184 104.448l-51.188 490.676a17.388 17.388 0 0 0-0.124 2.188h42.782L699.62 108.884c1.218-11.718-7.312-22.218-18.998-23.438a20.55 20.55 0 0 0-2.188-0.11h-0.032c-10.78-0.014-20.094 8.142-21.218 19.112z" fill="#E9573F" /><path d="M405.376 213.508c-6.938 0-13.5-3.39-17.5-9.11l-41.124-58.86-35.532 57.796a21.334 21.334 0 0 1-17.654 10.156 21.288 21.288 0 0 1-18.124-9.296l-58.376-85.498c-6.654-9.734-4.154-23 5.562-29.64 9.75-6.656 23-4.14 29.656 5.578l39.844 58.326 35.31-57.466a21.306 21.306 0 0 1 17.532-10.156 21.22 21.22 0 0 1 18.094 9.11L404 152.946l34.218-57.232c6.062-10.11 19.154-13.406 29.28-7.36 10.094 6.062 13.376 19.156 7.344 29.266l-51.154 85.498a21.37 21.37 0 0 1-17.562 10.376c-0.25-0.002-0.5 0.014-0.75 0.014zM618.622 213.508c-0.25 0-0.5-0.016-0.75-0.016a21.37 21.37 0 0 1-17.562-10.376L549.154 117.62c-6.032-10.11-2.75-23.204 7.344-29.266 10.124-6.046 23.216-2.75 29.28 7.36l34.218 57.232 40.938-58.498c4.094-5.89 10.906-9.328 18.094-9.11s13.78 4.032 17.53 10.156l35.31 57.466 39.844-58.326c6.656-9.718 19.906-12.234 29.656-5.578 9.718 6.64 12.218 19.906 5.562 29.64l-58.376 85.498a21.252 21.252 0 0 1-18.124 9.296c-7.216-0.172-13.874-4-17.654-10.156L677.246 145.54l-41.124 58.86a21.39 21.39 0 0 1-17.5 9.108z" fill="#E9573F" /><path d="M512 213.336a21.334 21.334 0 0 1-17.876-9.704l-55.498-85.342c-6.406-9.876-3.594-23.094 6.282-29.516 9.874-6.422 23.092-3.61 29.53 6.266L512 152.852l37.56-57.81c6.438-9.876 19.656-12.688 29.53-6.266 9.876 6.422 12.688 19.64 6.282 29.516l-55.496 85.342a21.336 21.336 0 0 1-17.876 9.702zM733.43 533.328l7.75-42.672H282.818l7.75 42.672z" fill="#E9573F" /><path d="M317.754 789.492l-3.844 42.656h48.782c11.748 0 21.31-9.532 21.31-21.312s-9.562-21.344-21.31-21.344h-44.938zM706.244 789.304h-44.936c-11.75 0-21.312 9.562-21.312 21.344s9.562 21.344 21.312 21.344h48.748l-3.812-42.688z" fill="#F6BB42" /><path d="M512 938.644c-11.782 0-21.312-9.562-21.312-21.342V703.996c0-11.782 9.532-21.344 21.312-21.344s21.31 9.562 21.31 21.344v213.306c0 11.78-9.528 21.342-21.31 21.342z" fill="#434A54" /><path d="M512 917.49a21.308 21.308 0 0 1-17.062-8.532l-63.998-85.342a21.326 21.326 0 0 1 0-25.594l63.998-85.34c4.032-5.376 10.344-8.532 17.062-8.532s13.032 3.156 17.062 8.532l63.996 85.34a21.326 21.326 0 0 1 0 25.594l-63.996 85.342a21.308 21.308 0 0 1-17.062 8.532z m-37.312-106.654L512 860.618l37.31-49.782L512 761.056l-37.312 49.78z" fill="#ED5564" /></svg>