<?xml version="1.0" standalone="no"?><!DOCTYPE svg PUBLIC "-//W3C//DTD SVG 1.1//EN" "http://www.w3.org/Graphics/SVG/1.1/DTD/svg11.dtd"><svg class="icon" width="128px" height="128.00px" viewBox="0 0 1024 1024" version="1.1" xmlns="http://www.w3.org/2000/svg"><path d="M1002.676 170.688H21.324C9.574 170.688 0.012 180.22 0.012 192.032V832c0 11.812 9.562 21.312 21.312 21.312h981.352c11.75 0 21.312-9.5 21.312-21.312V192.032c0-11.814-9.562-21.344-21.312-21.344z" fill="#5D9CEC" /><path d="M384.002 170.688h255.994v682.624H384.002z" fill="#E6E9ED" /><path d="M490.688 640.004c0 11.812-9.562 21.312-21.376 21.312-11.75 0-21.312-9.5-21.312-21.312 0-11.75 9.562-21.312 21.312-21.312 11.814 0 21.376 9.562 21.376 21.312zM575.996 640.004a21.294 21.294 0 0 1-21.308 21.312c-11.812 0-21.376-9.5-21.376-21.312 0-11.75 9.562-21.312 21.376-21.312 11.75 0 21.308 9.562 21.308 21.312zM490.688 575.944a21.366 21.366 0 0 1-21.376 21.376c-11.75 0-21.312-9.562-21.312-21.376 0-11.75 9.562-21.31 21.312-21.31 11.814-0.002 21.376 9.56 21.376 21.31zM575.996 575.944c0 11.812-9.558 21.376-21.308 21.376a21.366 21.366 0 0 1-21.376-21.376c0-11.75 9.562-21.31 21.376-21.31 11.75-0.002 21.308 9.56 21.308 21.31zM490.688 256.03c0 11.75-9.562 21.312-21.376 21.312-11.75 0-21.312-9.562-21.312-21.312 0-11.812 9.562-21.342 21.312-21.342 11.814-0.002 21.376 9.528 21.376 21.342zM575.996 256.03c0 11.75-9.558 21.312-21.308 21.312-11.812 0-21.376-9.562-21.376-21.312 0-11.812 9.562-21.342 21.376-21.342 11.75-0.002 21.308 9.528 21.308 21.342zM490.688 320.028c0 11.75-9.562 21.312-21.376 21.312-11.75 0-21.312-9.562-21.312-21.312 0-11.812 9.562-21.342 21.312-21.342 11.814 0 21.376 9.53 21.376 21.342zM575.996 320.028c0 11.75-9.558 21.312-21.308 21.312-11.812 0-21.376-9.562-21.376-21.312 0-11.812 9.562-21.342 21.376-21.342 11.75 0 21.308 9.53 21.308 21.342z" fill="#434A54" /><path d="M714.684 234.686c0 11.78-9.562 21.342-21.312 21.342-11.812 0-21.376-9.562-21.376-21.342 0-11.782 9.562-21.342 21.376-21.342 11.75 0 21.312 9.562 21.312 21.342zM991.988 234.686c0 11.78-9.532 21.342-21.312 21.342s-21.312-9.562-21.312-21.342c0-11.782 9.532-21.342 21.312-21.342s21.312 9.562 21.312 21.342zM352.004 234.686c0 11.78-9.562 21.342-21.374 21.342-11.75 0-21.312-9.562-21.312-21.342 0-11.782 9.562-21.342 21.312-21.342 11.812 0 21.374 9.562 21.374 21.342zM74.636 234.686c0 11.78-9.532 21.342-21.312 21.342-11.782 0-21.312-9.562-21.312-21.342 0-11.782 9.532-21.342 21.312-21.342 11.78 0 21.312 9.562 21.312 21.342z" fill="#4A89DC" /><path d="M341.316 469.336c0 82.484-66.842 149.354-149.308 149.354S42.7 551.82 42.7 469.336c0-82.466 66.842-149.34 149.308-149.34s149.308 66.874 149.308 149.34z" fill="#656D78" /><path d="M192.008 640.004c-94.122 0-170.684-76.56-170.684-170.666 0-94.09 76.562-170.652 170.684-170.652 94.124 0 170.684 76.56 170.684 170.652 0 94.106-76.562 170.666-170.684 170.666z m0-298.664c-70.56 0-127.998 57.436-127.998 127.998 0 70.592 57.436 127.982 127.998 127.982s127.998-57.388 127.998-127.982c-0.002-70.562-57.438-127.998-127.998-127.998z" fill="#434A54" /><path d="M297.568 596.194c-5.468 0-10.936-2.062-15.092-6.25l-105.528-105.514a21.272 21.272 0 0 1 0-30.186c8.312-8.312 21.812-8.312 30.124 0l105.56 105.574c8.344 8.312 8.344 21.812 0 30.124a21.156 21.156 0 0 1-15.064 6.252z" fill="#434A54" /><path d="M937.582 574.944c-58.308 58.31-152.872 58.31-211.18 0-58.344-58.326-58.344-152.886 0-211.198 58.308-58.312 152.872-58.312 211.18 0 58.344 58.31 58.344 152.872 0 211.198z" fill="#656D78" /><path d="M831.992 640.004c-45.594 0-88.438-17.75-120.684-49.998-32.25-32.25-50-75.076-50-120.668s17.75-88.436 50-120.684c32.246-32.218 75.09-49.966 120.684-49.966 45.562 0 88.434 17.75 120.684 49.966 32.25 32.25 50 75.092 50 120.684s-17.75 88.418-50 120.668c-32.25 32.248-75.122 49.998-120.684 49.998z m0-298.664c-34.188 0-66.312 13.312-90.5 37.5-24.184 24.186-37.496 56.31-37.496 90.498s13.312 66.342 37.496 90.482c24.188 24.188 56.312 37.5 90.5 37.5s66.308-13.312 90.496-37.5c24.188-24.138 37.5-56.294 37.5-90.482s-13.312-66.312-37.5-90.498c-24.188-24.188-56.308-37.5-90.496-37.5z" fill="#434A54" /><path d="M831.992 639.942c-11.782 0-21.312-9.562-21.312-21.376v-149.23c0-11.78 9.532-21.342 21.312-21.342s21.312 9.562 21.312 21.342v149.23c0 11.812-9.53 21.376-21.312 21.376z" fill="#434A54" /><path d="M554.688 448.026c0 23.562-19.124 42.654-42.688 42.654-23.562 0-42.686-19.092-42.686-42.654 0-23.594 19.124-42.688 42.686-42.688s42.688 19.094 42.688 42.688z" fill="#CCD1D9" /><path d="M512 512.024c-35.312 0-63.998-28.718-63.998-63.998 0-35.312 28.686-64 63.998-64s63.996 28.686 63.996 64c0 35.278-28.684 63.998-63.996 63.998z m0-85.342c-11.75 0-21.312 9.562-21.312 21.344 0 11.75 9.562 21.312 21.312 21.312s21.312-9.562 21.312-21.312c0-11.782-9.562-21.344-21.312-21.344z" fill="#AAB2BC" /><path d="M512 448.026a21.3 21.3 0 0 0-21.312 21.312v21.342c0 11.782 9.53 21.344 21.312 21.344s21.312-9.562 21.312-21.344v-21.342A21.298 21.298 0 0 0 512 448.026zM469.314 787.688c-11.75 0-21.312-9.562-21.312-21.312v-62.372c0-11.812 9.562-21.312 21.312-21.312 11.812 0 21.376 9.5 21.376 21.312v62.372c-0.002 11.748-9.564 21.312-21.376 21.312zM554.688 789.376c-11.812 0-21.376-9.562-21.376-21.312v-62.372c0-11.75 9.562-21.312 21.376-21.312 11.75 0 21.308 9.562 21.308 21.312v62.372c0 11.748-9.558 21.312-21.308 21.312z" fill="#AAB2BC" /><path d="M0.012 725.314h127.998v127.998H0.012z" fill="#656D78" /><path d="M128.01 725.314h127.998v127.998H128.01z" fill="#434A54" /><path d="M256.006 725.314h127.996v127.998h-127.996zM639.996 725.314h127.996v127.998h-127.996z" fill="#656D78" /><path d="M767.992 725.314h127.996v127.998h-127.996z" fill="#434A54" /><path d="M895.988 725.314h128v127.998h-128z" fill="#656D78" /></svg>