<?xml version="1.0" standalone="no"?><!DOCTYPE svg PUBLIC "-//W3C//DTD SVG 1.1//EN" "http://www.w3.org/Graphics/SVG/1.1/DTD/svg11.dtd"><svg class="icon" width="128px" height="128.00px" viewBox="0 0 1024 1024" version="1.1" xmlns="http://www.w3.org/2000/svg"><path d="M294.046 341.312h431.282V384H294.046zM310.922 640h386.124v42.688H310.922zM199.828 213.312h617.218V256H199.828zM148.796 896h731.376v42.688H148.796zM148.796 85.312h731.376V128H148.796zM217.422 768h589.25v42.688H217.422z" fill="#5D9CEC" /><path d="M868.672 1005.624c-0.062-0.312 0 0.344 0 0z" fill="#4FC1E9" /><path d="M113.11 999.876C145.172 735.624 357.86 585.938 490.546 512 632.734 432.782 839.704 285.876 868.64 19.25 869.672 8.438 878.796 0 889.86 0c11.812 0 21.344 9.562 21.344 21.312 0 0.812-0.032 1.562-0.156 2.344-23.188 214.032-157.376 390.594-399.75 525.594-42.688 23.812-80.438 48.124-115.438 74.406-45.188 33.938-84.75 70.656-117.562 109.124-39.032 45.75-69.438 95.032-90.376 146.532-16.062 39.5-27.188 83.25-32.562 126.312-0.062 0.282-0.062 0.562-0.124 0.844v-0.032c-1.812 10-10.5 17.562-21 17.562-11.75 0-21.312-9.562-21.312-21.312-0.002-0.968 0.06-1.874 0.186-2.81z" fill="#967ADC" /><path d="M910.89 999.876C878.86 735.624 666.172 585.938 533.484 512 391.296 432.782 184.296 285.876 155.36 19.25 154.296 8.438 145.234 0 134.11 0 122.36 0 112.796 9.562 112.796 21.312c0 0.812 0.062 1.562 0.124 2.344 23.25 214.032 157.438 390.594 399.782 525.594 42.656 23.812 80.406 48.124 115.406 74.406 45.218 33.938 84.782 70.656 117.594 109.124 39.032 45.75 69.438 95.032 90.376 146.532 16.062 39.5 27.188 83.25 32.594 126.312 0 0.282 0.062 0.562 0.094 0.844l0.032-0.032c1.75 10 10.468 17.562 20.938 17.562 11.812 0 21.376-9.562 21.376-21.312-0.002-0.968-0.128-1.874-0.222-2.81z" fill="#AC92EC" /></svg>