<?xml version="1.0" standalone="no"?><!DOCTYPE svg PUBLIC "-//W3C//DTD SVG 1.1//EN" "http://www.w3.org/Graphics/SVG/1.1/DTD/svg11.dtd"><svg class="icon" width="128px" height="128.00px" viewBox="0 0 1024 1024" version="1.1" xmlns="http://www.w3.org/2000/svg"><path d="M985.604 496.094a21.308 21.308 0 0 0-9.406-15.656l-193.774-129.182c-5.062-19.186-17.468-60.372-34.842-77.714-7.124-7.156-21.842-16.75-72.78-27.906-18.342-4.032-35.434-6.938-44.308-8.344-14.31-12.092-55.436-42.748-104.418-42.748-25.046 0-48.374 7.876-69.358 23.438-31.654 23.466-111.166 117.714-236.288 280.05-92.464 119.964-177.134 234.834-177.976 235.99a21.366 21.366 0 0 0-3.75 16.842 21.384 21.384 0 0 0 9.952 14.094l426.64 255.99a21.238 21.238 0 0 0 10.984 3.032c2.968 0 5.938-0.594 8.718-1.844a21.334 21.334 0 0 0 12.234-15.5l80.732-423.638c34.624 11.312 100.276 30.156 153.46 30.156 74.686 0 173.37-40 177.526-41.718a21.14 21.14 0 0 0 6.998-4.654l53.498-53.498a21.364 21.364 0 0 0 6.158-17.19z" fill="#965353" /><path d="M70.814 695.772a8230.32 8230.32 0 0 0-28.358 38.25 21.366 21.366 0 0 0-3.75 16.842 21.384 21.384 0 0 0 9.952 14.094l426.64 255.99a21.238 21.238 0 0 0 10.984 3.032c2.968 0 5.938-0.594 8.718-1.844a21.334 21.334 0 0 0 12.234-15.5l8.376-43.966L70.814 695.772z" fill="#ED5564" /><path d="M699.616 362.692c0 11.782-9.562 21.312-21.344 21.312s-21.342-9.532-21.342-21.312 9.56-21.342 21.342-21.342 21.344 9.562 21.344 21.342z" fill="#434A54" /><path d="M432.94 938.668c0 11.782-9.546 21.312-21.328 21.312s-21.328-9.532-21.328-21.312 9.546-21.34 21.328-21.34c11.78 0 21.328 9.558 21.328 21.34zM347.614 889.328c0 11.782-9.546 21.344-21.328 21.344s-21.344-9.562-21.344-21.344 9.562-21.344 21.344-21.344c11.782 0 21.328 9.562 21.328 21.344zM262.29 839.986c0 11.782-9.562 21.344-21.342 21.344-11.782 0-21.328-9.562-21.328-21.344s9.546-21.312 21.328-21.312c11.78 0 21.342 9.532 21.342 21.312z" fill="#FFCE54" /><path d="M134.294 789.332a21.342 21.328 90 1 0 42.656 0 21.342 21.328 90 1 0-42.656 0Z" fill="#FFCE54" /><path d="M528.936 21.362s-59.858 143.994-34.156 277.334l119.498-16.686c21.998-138.652-85.342-260.648-85.342-260.648z" fill="#7F4545" /><path d="M494.764 320.006c-10.032 0-18.952-7.094-20.92-17.282C447.218 164.668 506.702 19.3 509.248 13.176a21.358 21.358 0 0 1 16.218-12.874 21.378 21.378 0 0 1 19.498 6.968c1.156 1.344 28.938 33.124 53.968 82.84 33.53 66.59 46.124 134.12 36.404 195.242-1.844 11.656-12.782 19.592-24.404 17.748-11.624-1.844-19.562-12.78-17.718-24.436 10.406-65.59-11.594-127.776-31.906-168.368-8.532-17.124-17.546-31.968-25.422-43.842-15.264 49.78-36.762 142.12-20.154 228.178 2.234 11.592-5.344 22.78-16.906 25-1.374 0.25-2.734 0.374-4.062 0.374z" fill="#965353" /><path d="M985.604 496.094a21.308 21.308 0 0 0-9.406-15.656l-57.934-38.624c12.53 31.31 34.154 74.624 58.028 74.624l3.156-3.156a21.362 21.362 0 0 0 6.156-17.188z" fill="#434A54" /><path d="M488.374 555.874c-39.452-21.312 85.684 100.026 85.684 100.026l13.906-72.902c0-0.002-60.154-5.784-99.59-27.124z" opacity=".1" /></svg>