<?xml version="1.0" standalone="no"?><!DOCTYPE svg PUBLIC "-//W3C//DTD SVG 1.1//EN" "http://www.w3.org/Graphics/SVG/1.1/DTD/svg11.dtd"><svg class="icon" width="128px" height="128.00px" viewBox="0 0 1024 1024" version="1.1" xmlns="http://www.w3.org/2000/svg"><path d="M757.046 629.434c-6.438 0-10.312-0.062-10.812-0.062-11.81-0.25-21.124-10-20.904-21.812 0.25-11.75 10-21.124 21.78-20.876 0.438 0 45.436 0.876 95.592-3.876 83.712-7.876 112.182-24.06 121.712-32.998 24.06-22.624 22.374-91.748-4.594-189.68-18.844-68.402-44.78-132.244-55.966-157.432h-71.872c-11.75 0-21.312-9.532-21.312-21.312 0-11.78 9.562-21.342 21.312-21.342h85.34c7.654 0 14.748 4.124 18.53 10.782 7.25 12.716 41.686 93.058 65.058 177.898 13.876 50.216 21.562 93.59 22.876 128.962 1.782 47.998-8.376 82.686-30.124 103.184-24.406 22.938-72.622 37.5-147.368 44.5-38 3.564-72.436 4.064-89.248 4.064z" fill="#656D78" /><path d="M746.672 757.3H107.558a21.434 21.434 0 0 0-15.014 6.188L6.36 848.798c-6.14 6.124-8 15.31-4.718 23.31 3.296 8 11.078 13.188 19.732 13.188h725.298c11.782 0 21.31-9.5 21.31-21.312v-85.308c0-11.812-9.528-21.376-21.31-21.376z" fill="#DA4453" /><path d="M810.67 181.386h-63.998c-11.81 0-21.342-9.56-21.342-21.342 0-11.78 9.532-21.342 21.342-21.342h63.998c11.75 0 21.312 9.562 21.312 21.342 0 11.782-9.562 21.342-21.312 21.342z" fill="#EC5564" /><path d="M831.982 757.3h-85.31c-11.78 0-21.342 9.562-21.342 21.376v85.308c0 11.812 9.562 21.312 21.342 21.312h85.31c11.812 0 21.342-9.5 21.342-21.312v-85.308c0-11.812-9.53-21.376-21.342-21.376zM917.322 821.298c-11.782 0-21.344-9.5-21.344-21.31V757.3c0-11.748 9.562-21.31 21.344-21.31 11.78 0 21.342 9.562 21.342 21.31v42.688c0 11.81-9.562 21.31-21.342 21.31z" fill="#F6BB42" /><path d="M443.608 312.008c-8.25-4.282-18.36-2.75-24.938 3.844L6.266 728.24c-4 4-6.25 9.438-6.25 15.062l0.016 120.682c0 8.624 5.204 16.438 13.172 19.688a20.72 20.72 0 0 0 8.154 1.624c5.546 0 11-2.124 15.094-6.25l386.484-386.454a21.378 21.378 0 0 0 5.938-11.376l25.888-146.586a21.324 21.324 0 0 0-11.154-22.622z" fill="#EC5564" /><path d="M959.976 757.3h-149.306V884.984h17.876c1.124 0.188 2.25 0.312 3.438 0.312h127.994c17.124 0 33.186-6.624 45.246-18.75 12.094-12.06 18.75-28.124 18.75-45.248-0.002-35.248-28.688-63.998-63.998-63.998z m15.092 79.124a21.356 21.356 0 0 1-15.092 6.25h-106.652v-42.686h106.652c11.748 0 21.342 9.56 21.342 21.31 0 5.75-2.218 11.064-6.25 15.126z" fill="#FFCE54" /><path d="M827.764 330.758c-12.468-24.438-29.406-46.716-49.532-65.436l68.844-68.874A21.388 21.388 0 0 0 851.7 173.2c-3.28-7.968-11.092-13.156-19.716-13.156h-127.996c-6 0-11.75 2.532-15.782 6.968l-34.748 38.248a239.46 239.46 0 0 0-34.778-2.562c-129.404 0-234.664 105.278-234.664 234.648 0 129.4 105.26 234.644 234.664 234.644 129.368 0 234.644-105.244 234.644-234.644 0-37.53-8.592-73.372-25.56-106.588z" fill="#656D78" /><path d="M618.68 565.31c-70.562 0-127.998-57.374-127.998-127.962 0-70.56 57.434-127.964 127.998-127.964 70.556 0 127.992 57.404 127.992 127.964 0 70.59-57.436 127.962-127.992 127.962z m0-213.272c-47.062 0-85.342 38.28-85.342 85.31 0 47.058 38.28 85.34 85.342 85.34 47.056 0 85.306-38.282 85.306-85.34 0-47.032-38.25-85.31-85.306-85.31z" fill="#434A54" /><path d="M639.99 437.348c0 11.78-9.532 21.34-21.31 21.34a21.33 21.33 0 0 1-21.344-21.34c0-11.782 9.532-21.312 21.344-21.312a21.298 21.298 0 0 1 21.31 21.312z" fill="#434A54" /></svg>