<?xml version="1.0" standalone="no"?><!DOCTYPE svg PUBLIC "-//W3C//DTD SVG 1.1//EN" "http://www.w3.org/Graphics/SVG/1.1/DTD/svg11.dtd"><svg class="icon" width="128px" height="128.00px" viewBox="0 0 1024 1024" version="1.1" xmlns="http://www.w3.org/2000/svg"><path d="M452.608 734.156L114.494 780.748 21.34 104.474l338.146-46.562z" fill="#FC6E51" /><path d="M114.494 802.06c-4.624 0-9.156-1.5-12.874-4.312a21.24 21.24 0 0 1-8.25-14.094L0.216 107.394c-1.624-11.67 6.562-22.436 18.218-24.044l338.114-46.578c11.688-1.61 22.438 6.546 24.062 18.218l93.154 676.26c1.594 11.688-6.562 22.438-18.25 24.062L117.4 801.874c-0.968 0.124-1.938 0.186-2.906 0.186zM45.404 122.708l87.31 633.98 295.866-40.75L341.24 81.96 45.404 122.708z" fill="#E9573F" /><path d="M134.526 190.252c-7.124 9.39-20.5 11.234-29.874 4.124-9.406-7.124-11.25-20.5-4.124-29.89 7.124-9.39 20.5-11.234 29.874-4.124 9.404 7.124 11.248 20.5 4.124 29.89zM230.708 263.14c-7.124 9.39-20.5 11.234-29.906 4.124-9.374-7.124-11.218-20.5-4.124-29.89 7.124-9.39 20.5-11.234 29.906-4.124 9.374 7.126 11.218 20.5 4.124 29.89zM326.862 336.028c-7.094 9.39-20.5 11.234-29.874 4.11a21.294 21.294 0 0 1-4.124-29.874c7.124-9.39 20.5-11.234 29.906-4.124 9.374 7.124 11.218 20.498 4.092 29.888zM157.806 359.308c-7.124 9.39-20.5 11.234-29.874 4.124-9.406-7.124-11.25-20.5-4.124-29.89 7.124-9.39 20.5-11.234 29.874-4.108a21.3 21.3 0 0 1 4.124 29.874zM303.582 166.97c-7.124 9.39-20.5 11.234-29.874 4.11-9.406-7.108-11.25-20.5-4.124-29.888 7.124-9.39 20.5-11.234 29.874-4.11 9.406 7.11 11.25 20.5 4.124 29.888z" fill="#F5F7FA" /><path d="M181.086 528.382c-7.094 9.388-20.5 11.232-29.874 4.108-9.406-7.108-11.25-20.482-4.124-29.888 7.124-9.376 20.5-11.218 29.906-4.11 9.374 7.11 11.216 20.5 4.092 29.89zM277.27 601.254c-7.124 9.406-20.5 11.25-29.874 4.124-9.406-7.124-11.25-20.5-4.124-29.876 7.124-9.374 20.5-11.248 29.874-4.124 9.406 7.126 11.25 20.5 4.124 29.876zM373.456 674.158c-7.124 9.376-20.5 11.218-29.906 4.124-9.376-7.124-11.218-20.5-4.094-29.904 7.094-9.376 20.468-11.218 29.874-4.124 9.376 7.122 11.218 20.498 4.126 29.904zM204.398 697.438a21.332 21.332 0 0 1-29.906 4.124c-9.374-7.124-11.218-20.498-4.124-29.904 7.124-9.376 20.5-11.218 29.906-4.094 9.374 7.094 11.218 20.5 4.124 29.874zM350.142 505.102c-7.092 9.376-20.468 11.218-29.874 4.11-9.374-7.11-11.218-20.5-4.124-29.89 7.124-9.39 20.5-11.234 29.906-4.11 9.374 7.108 11.218 20.484 4.092 29.89z" fill="#F5F7FA" /><path d="M70.84 463.744l-5.844-42.266 338.146-46.576 5.812 42.264z" fill="#E9573F" /><path d="M880.08 966.118l-335.802-61.312 122.62-671.54 335.772 61.294z" fill="#FC6E51" /><path d="M880.08 987.43a19.986 19.986 0 0 1-3.844-0.344l-335.788-61.28c-11.592-2.124-19.28-13.25-17.154-24.81l122.606-671.558a21.388 21.388 0 0 1 8.842-13.718 21.352 21.352 0 0 1 15.968-3.438l335.772 61.294c11.592 2.124 19.28 13.234 17.154 24.828l-122.59 671.526a21.266 21.266 0 0 1-8.842 13.718 21.228 21.228 0 0 1-12.124 3.782z m-310.96-99.778l293.804 53.652 114.902-629.588-293.774-53.624-114.932 629.56z" fill="#E9573F" /><path d="M816.268 449.354c-9.718 6.702-22.998 4.266-29.686-5.422-6.718-9.688-4.282-22.984 5.406-29.672 9.688-6.702 22.966-4.282 29.686 5.406 6.688 9.704 4.282 22.984-5.406 29.688zM716.99 517.976c-9.688 6.688-22.968 4.266-29.688-5.422-6.686-9.704-4.282-22.984 5.438-29.688 9.688-6.688 22.968-4.266 29.656 5.422 6.72 9.688 4.282 22.986-5.406 29.688zM915.516 380.73c-9.688 6.704-22.966 4.282-29.686-5.422-6.688-9.688-4.25-22.968 5.438-29.67 9.686-6.704 22.966-4.282 29.686 5.42 6.684 9.688 4.25 22.97-5.438 29.672z" fill="#F5F7FA" /><path d="M686.334 685.846c-9.686 6.718-22.966 4.282-29.686-5.406-6.686-9.688-4.25-22.968 5.438-29.686 9.688-6.688 22.966-4.282 29.686 5.436 6.686 9.686 4.25 22.968-5.438 29.656zM823.58 884.372c-9.688 6.718-22.998 4.282-29.686-5.406s-4.282-22.968 5.438-29.688c9.686-6.688 22.966-4.25 29.654 5.438 6.72 9.686 4.282 22.968-5.406 29.656zM655.68 853.746c-9.686 6.688-22.966 4.25-29.654-5.438-6.718-9.688-4.282-22.968 5.406-29.656 9.688-6.718 22.966-4.282 29.686 5.406a21.34 21.34 0 0 1-5.438 29.688zM854.236 716.5c-9.718 6.718-23 4.282-29.688-5.406-6.718-9.688-4.282-22.998 5.406-29.686s23-4.282 29.688 5.406c6.688 9.686 4.282 22.998-5.406 29.686z" fill="#F5F7FA" /><path d="M937.514 651.314l-335.77-61.31 7.688-41.936 335.77 61.28z" fill="#E9573F" /></svg>