<?xml version="1.0" standalone="no"?><!DOCTYPE svg PUBLIC "-//W3C//DTD SVG 1.1//EN" "http://www.w3.org/Graphics/SVG/1.1/DTD/svg11.dtd"><svg class="icon" width="128px" height="128.00px" viewBox="0 0 1024 1024" version="1.1" xmlns="http://www.w3.org/2000/svg"><path d="M803.488 195.606c-17.468-94.31-139.652-42.312-166.714-42.312s77.688-100.966-53.624-139.058c-174.012-50.498-144.012 47.156-209.51 79.78-65.436 32.656-127.06-48.342-151.496 0-24.436 48.374 130.56 436.458 130.56 436.458l246.542 13.374c-0.002-0.002 221.712-253.932 204.242-348.242z" fill="#A0D468" /><path d="M747.678 350.978c6.062 22.75-7.468 46.154-30.216 52.216l-82.468 22c-22.75 6.094-46.154-7.438-52.216-30.218L560.78 312.54c-6.094-22.78 7.436-46.154 30.216-52.216l82.436-22.032c22.75-6.062 46.156 7.468 52.218 30.218l22.028 82.468z" fill="#FC6E51" /><path d="M443.482 229.292c-50.092-30.968-115.81-15.5-146.81 34.592-31 50.06-15.53 115.81 34.562 146.808 50.092 30.968 115.84 15.5 146.81-34.592 30.998-50.06 15.53-115.808-34.562-146.808z" fill="#ED5564" /><path d="M590.65 503.442c-6.032 22.78-29.404 36.34-52.202 30.278l-123.716-32.778c-22.78-6.032-36.342-29.406-30.312-52.186l76.53-288.682c6.062-22.78 29.406-36.342 52.186-30.312l123.73 32.812c22.782 6.032 36.344 29.406 30.312 52.186l-76.528 288.682z" fill="#FFCE54" /><path d="M259.362 810.652h512.002V298.666c-85.34 0-512.002 170.652-512.002 170.652v341.334z" fill="#EAAD7A" /><path d="M259.362 469.318v341.334h512.002V426.664s-90.308-36.124-196.15-75.154c-146.638 50.122-315.852 117.808-315.852 117.808z" opacity=".1" /><path d="M771.364 981.304c0 23.562-19.092 42.686-42.654 42.686H302.016c-23.562 0-42.656-19.124-42.656-42.686V298.666c85.342 0 512.002 170.652 512.002 170.652v511.986z" fill="#F4BE8E" /><path d="M445.106 518.222c-8.312-8.312-21.842-8.312-30.156 0a21.214 21.214 0 0 0-6.25 15.092v341.336a21.22 21.22 0 0 0 6.25 15.094c8.312 8.312 21.844 8.312 30.156 0a21.35 21.35 0 0 0 6.25-15.094V533.314c0-5.466-2.094-10.904-6.25-15.092zM600.712 533.314c0-5.466-2.094-10.904-6.25-15.092-8.344-8.312-21.844-8.312-30.186 0a21.348 21.348 0 0 0-6.25 15.092v341.336c0 5.468 2.094 10.906 6.25 15.094 8.342 8.312 21.842 8.312 30.186 0a21.35 21.35 0 0 0 6.25-15.094V533.314z" fill="#EAAD7A" /></svg>