<?xml version="1.0" standalone="no"?><!DOCTYPE svg PUBLIC "-//W3C//DTD SVG 1.1//EN" "http://www.w3.org/Graphics/SVG/1.1/DTD/svg11.dtd"><svg class="icon" width="128px" height="128.00px" viewBox="0 0 1024 1024" version="1.1" xmlns="http://www.w3.org/2000/svg"><path d="M79.646 791.556l432.36-748.878 432.36 748.878z" fill="#EC5564" /><path d="M512.006 0.024L42.696 812.9h938.636L512.006 0.024z m0 85.34l395.422 684.88H116.584l395.422-684.88z" fill="#D94452" /><path d="M21.368 1023.984a21.326 21.326 0 0 1-15.094-6.25c-8.328-8.342-8.328-21.842 0-30.154L987.55 6.272c8.344-8.342 21.876-8.342 30.186 0 8.312 8.312 8.312 21.844 0 30.156L36.446 1017.734a21.314 21.314 0 0 1-15.078 6.25z" fill="#424953" /></svg>