<?xml version="1.0" standalone="no"?><!DOCTYPE svg PUBLIC "-//W3C//DTD SVG 1.1//EN" "http://www.w3.org/Graphics/SVG/1.1/DTD/svg11.dtd"><svg class="icon" width="128px" height="128.00px" viewBox="0 0 1024 1024" version="1.1" xmlns="http://www.w3.org/2000/svg"><path d="M21.796 831.994c7.376-170.402 104.496-276.022 303.926-331.426 183.806-51.062 433.358-52.53 676.914-52.562v383.988H21.796z" fill="#EC5564" /><path d="M1002.634 170.672H277.348c-11.78 0-21.312 9.562-21.312 21.342s9.532 21.342 21.312 21.342h703.974v213.336C483.966 427.004 0.046 438.534 0.046 853.332h1023.93V192.016c0-11.78-9.53-21.344-21.342-21.344z m-21.312 639.978H44.67c6.812-71.124 31.374-128.622 74.56-174.87 23.812-25.532 54.06-48.154 89.872-67.308 34.624-18.5 75.81-34.438 122.308-47.344 83.154-23.092 187.494-37.874 318.956-45.186 105.372-5.842 219.182-6.53 330.958-6.592v341.3z" fill="#D94452" /><path d="M21.358 1023.984a21.3 21.3 0 0 1-15.094-6.25c-8.342-8.342-8.342-21.842 0-30.154L987.572 6.272c8.312-8.342 21.844-8.342 30.186 0 8.312 8.344 8.312 21.844 0 30.156L36.42 1017.734a21.222 21.222 0 0 1-15.062 6.25z" fill="#424953" /></svg>