<?xml version="1.0" standalone="no"?><!DOCTYPE svg PUBLIC "-//W3C//DTD SVG 1.1//EN" "http://www.w3.org/Graphics/SVG/1.1/DTD/svg11.dtd"><svg class="icon" width="128px" height="128.00px" viewBox="0 0 1024 1024" version="1.1" xmlns="http://www.w3.org/2000/svg"><path d="M846.52 343.448l-86.654-39.998-114.684 41.342-134.994-50.654-128.996 62.654-134.65-62.654-86.654 54.654-113.34-5.344 129.34 449.328 673.288-8 119.996-441.328z" fill="#D94452" /><path d="M981.326 291.982l-49.686 33.124c-9.75 6.5-22.624 9.75-35.5 9.75-12.874 0-25.714-3.25-35.496-9.75l-56.998-37.998c-9.75-6.5-22.624-9.75-35.5-9.75s-25.718 3.25-35.498 9.75l-56.998 37.998c-9.75 6.5-22.624 9.75-35.498 9.75-12.876 0-25.718-3.25-35.498-9.75l-56.998-37.998c-9.75-6.5-22.624-9.75-35.5-9.75-12.874 0-25.718 3.25-35.5 9.75l-56.998 37.998c-9.75 6.5-22.624 9.75-35.5 9.75-12.844 0-25.718-3.25-35.5-9.75l-56.998-37.998c-9.75-6.5-22.624-9.75-35.5-9.75-12.844 0-25.718 3.25-35.5 9.75l-56.998 37.998c-9.75 6.5-22.624 9.75-35.5 9.75-12.844 0-25.718-3.25-35.5-9.75l-53.624-35.748v51.278l29.966 19.968c16.376 10.906 37.374 16.936 59.156 16.936 21.78 0 42.81-6.032 59.184-16.936l56.998-38c1.344-0.906 5.532-2.594 11.812-2.594s10.5 1.688 11.844 2.594l56.998 38c16.374 10.906 37.374 16.936 59.154 16.936s42.812-6.032 59.184-16.936l57-38c1.344-0.906 5.53-2.594 11.812-2.594s10.5 1.688 11.844 2.594l56.998 38c16.376 10.906 37.374 16.936 59.154 16.936s42.81-6.032 59.186-16.936l56.996-38c1.344-0.906 5.532-2.594 11.812-2.594s10.5 1.688 11.844 2.594l57 38c16.374 10.906 37.374 16.936 59.15 16.936 21.782 0 42.812-6.032 59.188-16.936l25.998-17.344v-51.278z" fill="#EC5564" /><path d="M853.332 810.65H170.668a21.332 21.332 0 0 1-20.592-15.782L0.738 240.232c-3.062-11.374 3.688-23.092 15.062-26.156s23.092 3.688 26.156 15.062l145.056 538.854H836.96l145.086-538.854c3.062-11.376 14.782-18.124 26.156-15.062 11.374 3.062 18.124 14.782 15.06 26.156l-149.336 554.636a21.334 21.334 0 0 1-20.594 15.782z" fill="#646C77" /><path d="M1017.73 6.272c-8.342-8.342-21.842-8.342-30.154 0L6.268 987.548a21.334 21.334 0 0 0 0 30.186 21.296 21.296 0 0 0 15.094 6.25c5.438 0 10.906-2.094 15.062-6.25L1017.73 36.428c8.344-8.312 8.344-21.844 0-30.156z" fill="#424953" /></svg>