<?xml version="1.0" standalone="no"?><!DOCTYPE svg PUBLIC "-//W3C//DTD SVG 1.1//EN" "http://www.w3.org/Graphics/SVG/1.1/DTD/svg11.dtd"><svg class="icon" width="128px" height="128.00px" viewBox="0 0 1024 1024" version="1.1" xmlns="http://www.w3.org/2000/svg"><path d="M671.988 384.008H394.67l-85.324 170.652L352 640h277.334l85.34-170.682z" fill="#967ADA" /><path d="M757.328 384.008l-85.34 170.652L714.674 640h298.644V384.008zM266.676 640L352 469.318l-42.654-85.31H10.684V640z" fill="#AC92EA" /><path d="M671.988 384.008v170.652l42.686-85.342zM352 640v-170.682l-42.654 85.342z" opacity=".1" /><path d="M1017.724 6.272c-8.31-8.342-21.81-8.342-30.154 0L6.262 987.548c-8.328 8.344-8.328 21.844 0 30.186a21.322 21.322 0 0 0 15.094 6.25c5.454 0 10.922-2.094 15.078-6.25L1017.724 36.428c8.344-8.344 8.344-21.844 0-30.156z" fill="#424953" /></svg>