<?xml version="1.0" standalone="no"?><!DOCTYPE svg PUBLIC "-//W3C//DTD SVG 1.1//EN" "http://www.w3.org/Graphics/SVG/1.1/DTD/svg11.dtd"><svg class="icon" width="128px" height="128.00px" viewBox="0 0 1024 1024" version="1.1" xmlns="http://www.w3.org/2000/svg"><path d="M511.986 917.332c-108.26 0-210.038-42.184-286.598-118.712-76.56-76.56-118.714-178.37-118.714-286.616 0-108.276 42.156-210.054 118.714-286.614 76.56-76.56 178.338-118.714 286.598-118.714 108.262 0 210.07 42.156 286.63 118.714 76.53 76.56 118.712 178.338 118.712 286.614 0 108.246-42.184 210.054-118.712 286.616-76.56 76.528-178.368 118.712-286.63 118.712z" fill="#EC5564" /><path d="M511.986 85.332c-235.632 0-426.64 191.024-426.64 426.672 0 235.616 191.008 426.64 426.64 426.64 235.63 0 426.656-191.026 426.656-426.64 0-235.648-191.024-426.672-426.656-426.672z m271.538 698.194c-35.282 35.282-76.34 62.966-122.058 82.31-47.342 19.998-97.62 30.152-149.478 30.152-51.858 0-102.136-10.154-149.448-30.152-45.716-19.344-86.794-47.03-122.074-82.31s-62.966-76.34-82.308-122.058C138.156 614.124 128 563.848 128 512.004c0-51.874 10.156-102.152 30.156-149.462 19.342-45.716 47.028-86.778 82.308-122.058s76.358-62.966 122.074-82.308c47.31-20 97.59-30.156 149.448-30.156 51.86 0 102.136 10.156 149.478 30.156 45.718 19.342 86.778 47.028 122.058 82.308s62.966 76.342 82.31 122.058c19.998 47.31 30.152 97.59 30.152 149.462 0 51.844-10.154 102.122-30.152 149.462-19.342 45.72-47.028 86.778-82.308 122.06z" fill="#D94452" /><path d="M21.348 1023.984a21.326 21.326 0 0 1-15.094-6.25c-8.328-8.342-8.328-21.842 0-30.186L987.546 6.272a21.334 21.334 0 0 1 30.186 0c8.344 8.312 8.344 21.844 0 30.156L36.426 1017.734a21.314 21.314 0 0 1-15.078 6.25z" fill="#424953" /></svg>