<?xml version="1.0" standalone="no"?><!DOCTYPE svg PUBLIC "-//W3C//DTD SVG 1.1//EN" "http://www.w3.org/Graphics/SVG/1.1/DTD/svg11.dtd"><svg class="icon" width="128px" height="128.00px" viewBox="0 0 1024 1024" version="1.1" xmlns="http://www.w3.org/2000/svg"><path d="M1023.984 917.292c0 47.152-38.218 85.372-85.34 85.372H85.326c-47.124 0-85.31-38.218-85.31-85.372V106.676c0-47.14 38.186-85.34 85.31-85.34h853.32c47.122 0 85.34 38.202 85.34 85.34v810.616z" fill="#E6E9ED" /><path d="M938.644 21.334H85.326C38.202 21.334 0.016 59.536 0.016 106.674v810.618c0 47.152 38.186 85.372 85.31 85.372h853.32c47.122 0 85.34-38.218 85.34-85.372V106.676c-0.002-47.14-38.22-85.342-85.342-85.342z m42.652 895.958c0 23.562-19.124 42.684-42.652 42.684H85.326c-23.53 0-42.654-19.122-42.654-42.684V106.676c0-23.53 19.124-42.67 42.654-42.67h853.32c23.53 0 42.652 19.14 42.652 42.67v810.616z" fill="#F5F7FA" /><path d="M298.664 106.676c-106.028 0-191.994 85.95-191.994 191.994 0 106.028 85.966 191.994 191.994 191.994s191.994-85.966 191.994-191.994c0-106.044-85.968-191.994-191.994-191.994z m0 234.65c-23.562 0-42.656-19.094-42.656-42.656S275.1 256 298.664 256c23.562 0 42.654 19.11 42.654 42.67s-19.094 42.656-42.654 42.656z" fill="#ED5564" /><path d="M725.304 106.676c-106.028 0-191.992 85.95-191.992 191.994 0 106.028 85.964 191.994 191.992 191.994 106.03 0 191.996-85.966 191.996-191.994 0-106.044-85.966-191.994-191.996-191.994z m0 234.65c-23.56 0-42.652-19.094-42.652-42.656S701.744 256 725.304 256c23.562 0 42.688 19.11 42.688 42.67s-19.124 42.656-42.688 42.656z" fill="#48CFAD" /><path d="M298.664 533.32c-106.028 0-191.994 85.98-191.994 191.976 0 106.058 85.966 191.996 191.994 191.996s191.994-85.938 191.994-191.996c0-105.996-85.968-191.976-191.994-191.976z m0 234.664c-23.562 0-42.656-19.124-42.656-42.688-0.032-23.562 19.092-42.624 42.656-42.624 23.562 0 42.654 19.062 42.654 42.624s-19.094 42.688-42.654 42.688z" fill="#A0D468" /><path d="M861.082 589.55c-74.996-74.964-196.554-74.964-271.522 0-74.998 75-74.998 196.558 0 271.524 74.966 74.968 196.526 74.968 271.522 0 74.968-74.964 74.968-196.524 0-271.524z m-105.59 165.934c-16.688 16.688-43.686 16.688-60.342 0-16.654-16.656-16.654-43.688 0-60.344 16.656-16.652 43.654-16.652 60.342 0 16.656 16.656 16.656 43.688 0 60.344z" fill="#FFCE54" /><path d="M313.756 176.924a21.28 21.28 0 0 0-15.092-6.25c-70.686 0-127.996 57.296-127.996 127.98 0 5.454 2.062 10.922 6.25 15.092 8.312 8.328 21.844 8.328 30.156 0a21.16 21.16 0 0 0 6.25-15.078c0-47.062 38.28-85.34 85.342-85.34 5.468 0 10.906-2.078 15.092-6.25 8.31-8.328 8.31-21.828-0.002-30.154z" fill="#DA4453" /><path d="M624.902 283.578c-8.344 8.328-8.344 21.842 0 30.17 8.312 8.328 21.844 8.328 30.156 0 8.344-8.328 8.344-21.842 0-30.17-8.312-8.328-21.844-8.328-30.156 0zM795.554 283.578c-8.312 8.328-8.312 21.842 0 30.17a21.36 21.36 0 0 0 30.186 0c8.312-8.328 8.312-21.842 0-30.17a21.36 21.36 0 0 0-30.186 0zM697.744 347.576a21.36 21.36 0 0 0-30.186 0c-8.312 8.328-8.312 21.842 0 30.17a21.36 21.36 0 0 0 30.186 0c8.312-8.328 8.312-21.842 0-30.17zM752.898 347.576c-8.344 8.328-8.344 21.842 0 30.17 8.312 8.328 21.844 8.328 30.156 0 8.344-8.328 8.344-21.842 0-30.17-8.312-8.328-21.844-8.328-30.156 0zM838.208 347.576c-8.312 8.344-8.312 21.842 0 30.17a21.36 21.36 0 0 0 30.186 0c8.312-8.328 8.312-21.826 0-30.17a21.36 21.36 0 0 0-30.186 0zM582.216 347.576c-8.312 8.344-8.312 21.842 0 30.17a21.36 21.36 0 0 0 30.186 0c8.312-8.328 8.312-21.826 0-30.17a21.36 21.36 0 0 0-30.186 0zM697.744 249.75c8.312-8.328 8.312-21.826 0-30.17a21.36 21.36 0 0 0-30.186 0c-8.312 8.344-8.312 21.842 0 30.17a21.36 21.36 0 0 0 30.186 0zM752.898 219.58c-8.344 8.344-8.344 21.842 0 30.17 8.312 8.328 21.844 8.328 30.156 0 8.344-8.328 8.344-21.826 0-30.17-8.312-8.33-21.844-8.33-30.156 0zM868.394 249.75c8.312-8.328 8.312-21.826 0-30.154a21.33 21.33 0 0 0-30.186 0c-8.312 8.328-8.312 21.828 0 30.154a21.334 21.334 0 0 0 30.186 0zM582.216 219.594c-8.312 8.328-8.312 21.828 0 30.154a21.33 21.33 0 0 0 30.186 0c8.312-8.328 8.312-21.826 0-30.154a21.33 21.33 0 0 0-30.186 0zM624.902 411.574c-8.344 8.344-8.344 21.842 0 30.17 8.312 8.328 21.844 8.328 30.156 0 8.344-8.328 8.344-21.826 0-30.17-8.312-8.328-21.844-8.328-30.156 0zM710.212 411.574c-8.312 8.344-8.312 21.842 0 30.17a21.36 21.36 0 0 0 30.186 0c8.312-8.328 8.312-21.826 0-30.17a21.36 21.36 0 0 0-30.186 0zM795.554 411.574c-8.312 8.344-8.312 21.842 0 30.17a21.36 21.36 0 0 0 30.186 0c8.312-8.328 8.312-21.826 0-30.17a21.36 21.36 0 0 0-30.186 0zM740.398 185.75c8.312-8.328 8.312-21.842 0-30.17a21.36 21.36 0 0 0-30.186 0c-8.312 8.328-8.312 21.842 0 30.17a21.354 21.354 0 0 0 30.186 0zM825.74 185.75c8.312-8.328 8.312-21.842 0-30.17-8.344-8.328-21.842-8.328-30.186 0s-8.344 21.842 0 30.17a21.354 21.354 0 0 0 30.186 0zM624.902 155.582c-8.344 8.328-8.344 21.842 0 30.17 8.312 8.328 21.844 8.328 30.156 0 8.344-8.328 8.344-21.842 0-30.17-8.312-8.33-21.844-8.33-30.156 0z" fill="#5D9CEC" /><path d="M309.694 684.11l-39.81-148.632a191.166 191.166 0 0 0-41.218 11.016l39.812 148.648a42.558 42.558 0 0 1 30.186-12.468 42.586 42.586 0 0 1 11.03 1.436z" fill="#4FC2E9" /><path d="M418.502 575.3l-108.81 108.808c14.688 3.938 26.25 15.5 30.186 30.156l108.778-108.778a195.356 195.356 0 0 0-30.154-30.186zM268.476 695.14l-148.652-39.84a190.238 190.238 0 0 0-11 41.246l148.62 39.812a42.736 42.736 0 0 1-1.438-11.062 42.554 42.554 0 0 1 12.47-30.156zM178.822 875.324l108.778-108.778c-14.656-3.938-26.218-15.5-30.156-30.188l-108.778 108.808a193.878 193.878 0 0 0 30.156 30.158zM368.66 904.168l-39.842-148.684 148.682 39.844a191.252 191.252 0 0 0 11-41.218l-148.622-39.812c0.938 3.5 1.438 7.188 1.438 11 0 23.562-19.092 42.688-42.654 42.688-3.812 0-7.532-0.5-11.032-1.438l39.812 148.622a191.34 191.34 0 0 0 41.218-11.002z" fill="#4FC2E9" /><path d="M913.614 762.796L687.84 537.008a192.45 192.45 0 0 0-45.312 15.042l256.054 256.058a191.512 191.512 0 0 0 15.032-45.312z" fill="#ED5564" /><path d="M766.524 736.36c-1.876 7-5.532 13.624-11.032 19.124s-12.124 9.188-19.156 11.062l108.81 108.778a200.364 200.364 0 0 0 15.936-14.25 188.058 188.058 0 0 0 14.218-15.906l-108.776-108.808zM684.122 714.296a42.14 42.14 0 0 1 11.03-19.156 42.794 42.794 0 0 1 19.124-11.032l-108.81-108.808a199.92 199.92 0 0 0-15.904 14.25 194.014 194.014 0 0 0-14.25 15.938l108.81 108.808z" fill="#ED5564" /><path d="M537 687.86l225.774 225.778a192.394 192.394 0 0 0 45.312-15.032L552.032 642.55a190.54 190.54 0 0 0-15.032 45.31z" fill="#ED5564" /></svg>