<?xml version="1.0" standalone="no"?><!DOCTYPE svg PUBLIC "-//W3C//DTD SVG 1.1//EN" "http://www.w3.org/Graphics/SVG/1.1/DTD/svg11.dtd"><svg class="icon" width="128px" height="128.00px" viewBox="0 0 1024 1024" version="1.1" xmlns="http://www.w3.org/2000/svg"><path d="M801.246 309.222c-2.188-0.376-150.062-85.31-289.246-85.31-139.17 0-289.262 85.31-289.262 85.31H85.334v322.68H938.68v-322.68h-137.434z" fill="#F4BE8E" /><path d="M106.678 543.938c-11.782 0-21.344-9.532-21.344-21.312V287.94c0-11.782 9.562-21.312 21.344-21.312s21.328 9.532 21.328 21.312v234.684c0 11.782-9.548 21.314-21.328 21.314zM917.304 543.938c-11.75 0-21.312-9.532-21.312-21.312V287.94c0-11.782 9.562-21.312 21.312-21.312 11.812 0 21.376 9.532 21.376 21.312v234.684c0 11.782-9.562 21.314-21.376 21.314z" fill="#FFD2A6" /><path d="M42.524 670.996h213.34v150.438H42.524zM767.996 670.996h213.308v150.438H767.996z" fill="#F4BE8E" /><path d="M469.328 567.876c0 11.782-9.546 21.344-21.328 21.344H192.004c-11.782 0-21.326-9.562-21.326-21.344v-130.592c0-11.782 9.544-21.344 21.326-21.344H448c11.782 0 21.328 9.562 21.328 21.344v130.592zM853.306 567.876c0 11.782-9.532 21.344-21.312 21.344H575.998c-11.78 0-21.31-9.562-21.31-21.344v-130.592c0-11.782 9.532-21.344 21.31-21.344h255.996c11.782 0 21.312 9.562 21.312 21.344v130.592z" fill="#E6E9ED" /><path d="M1023.992 721.278c0 11.782-9.562 21.344-21.312 21.344H21.336c-11.782 0-21.328-9.562-21.328-21.344v-198.652c0-11.782 9.546-21.344 21.328-21.344H1002.68c11.75 0 21.312 9.562 21.312 21.344v198.652z" fill="#5D9CEC" /><path d="M0.008 586.624h1023.984v42.652H0.008zM938.68 522.624c11.75 0 21.312-9.564 21.312-21.344h-42.688c0 11.782 9.564 21.344 21.376 21.344zM853.306 522.624c11.81 0 21.374-9.564 21.374-21.344h-42.686c0 11.782 9.562 21.344 21.312 21.344zM767.996 522.624c11.782 0 21.312-9.564 21.312-21.344h-42.624c0 11.782 9.53 21.344 21.312 21.344zM682.684 522.624c11.75 0 21.312-9.564 21.312-21.344h-42.688c0 11.782 9.564 21.344 21.376 21.344zM597.31 522.624c11.812 0 21.376-9.564 21.376-21.344h-42.688c0 11.782 9.562 21.344 21.312 21.344zM512 522.624c11.782 0 21.328-9.564 21.328-21.344h-42.656c0 11.782 9.546 21.344 21.328 21.344zM426.672 522.624c11.782 0 21.328-9.564 21.328-21.344h-42.672c0 11.782 9.562 21.344 21.344 21.344zM341.33 522.624c11.782 0 21.344-9.564 21.344-21.344h-42.672c0 11.782 9.546 21.344 21.328 21.344zM256.004 522.624c11.782 0 21.328-9.564 21.328-21.344h-42.656c0 11.782 9.546 21.344 21.328 21.344zM170.678 522.624c11.78 0 21.326-9.564 21.326-21.344H149.334c0 11.782 9.562 21.344 21.344 21.344zM85.334 522.624c11.782 0 21.344-9.564 21.344-21.344H64.006c0 11.782 9.546 21.344 21.328 21.344z" fill="#4A89DC" /><path d="M128.006 223.912c0 11.78-9.546 21.312-21.328 21.312s-21.344-9.532-21.344-21.312c0-11.782 9.562-21.344 21.344-21.344s21.328 9.562 21.328 21.344zM938.68 223.912c0 11.78-9.562 21.312-21.376 21.312-11.75 0-21.312-9.532-21.312-21.312 0-11.782 9.562-21.344 21.312-21.344 11.814 0 21.376 9.562 21.376 21.344zM0.008 671.934v64c0 11.782 9.546 21.344 21.328 21.344H1002.68c11.75 0 21.312-9.562 21.312-21.344v-64H0.008z" fill="#FFD2A6" /></svg>