<?xml version="1.0" standalone="no"?><!DOCTYPE svg PUBLIC "-//W3C//DTD SVG 1.1//EN" "http://www.w3.org/Graphics/SVG/1.1/DTD/svg11.dtd"><svg class="icon" width="128px" height="128.00px" viewBox="0 0 1024 1024" version="1.1" xmlns="http://www.w3.org/2000/svg"><path d="M959.992 810.65H64.008c-35.282 0-64-28.688-64-64V170.662c0-35.282 28.718-63.998 64-63.998h895.984c35.28 0 63.998 28.716 63.998 63.998v575.988c0 35.312-28.718 64-63.998 64z" fill="#ED5564" /><path d="M0.01 746.65c0 35.312 28.718 64 64 64h95.842V725.34H0.01v21.31z" fill="#E6E9ED" /><path d="M1023.99 448H106.664a21.3 21.3 0 0 0-21.312 21.312v128.03a21.296 21.296 0 0 0 21.312 21.31h917.326V448z" fill="#4FC2E9" /><path d="M192.006 703.996c-58.812 0-106.654 47.842-106.654 106.654 0 58.842 47.842 106.686 106.654 106.686s106.654-47.844 106.654-106.686c0-58.812-47.842-106.654-106.654-106.654zM789.338 703.996c-58.81 0-106.686 47.842-106.686 106.654 0 58.842 47.876 106.686 106.686 106.686s106.654-47.844 106.654-106.686c0-58.812-47.844-106.654-106.654-106.654z" fill="#434A54" /><path d="M207.1 795.588c8.312 8.312 8.312 21.812 0 30.156a21.334 21.334 0 0 1-30.186 0c-8.312-8.344-8.312-21.844 0-30.156a21.33 21.33 0 0 1 30.186 0z" fill="#F5F7FA" /><path d="M362.66 618.746h255.996v191.904H362.66z" fill="#E6E9ED" /><path d="M804.4 795.588c8.344 8.312 8.344 21.812 0 30.156-8.312 8.342-21.81 8.342-30.154 0-8.344-8.344-8.344-21.844 0-30.156 8.344-8.344 21.842-8.344 30.154 0z" fill="#F5F7FA" /><path d="M480 448h21.342v362.65H480z" fill="#E6E9ED" /><path d="M190.63 618.746L189.944 448l42.686-0.124 0.656 170.714zM724.996 618.746L724.34 448l42.656-0.124 0.656 170.714z" fill="#3BAFDA" /><path d="M1023.99 191.944H106.664a21.3 21.3 0 0 0-21.312 21.312v127.998c0 11.782 9.532 21.344 21.312 21.344h917.326V191.944z" fill="#4FC2E9" /><path d="M190.63 362.658l-0.686-170.714 42.686-0.126 0.656 170.716zM341.66 362.658l-0.658-170.714 42.656-0.126 0.688 170.716zM493.062 362.658l-0.686-170.714 42.686-0.126 0.656 170.716zM644.434 362.658l-0.688-170.714 42.688-0.126 0.656 170.716zM795.806 362.658l-0.656-170.714 42.654-0.126 0.656 170.716z" fill="#3BAFDA" /><path d="M362.66 448h255.994v362.65h21.342V426.658H341.346V810.65h21.314zM1023.99 661.34h-63.998c-11.782 0-21.344 9.532-21.344 21.312s9.562 21.344 21.344 21.344h63.998V661.34z" fill="#E6E9ED" /></svg>