<?xml version="1.0" standalone="no"?><!DOCTYPE svg PUBLIC "-//W3C//DTD SVG 1.1//EN" "http://www.w3.org/Graphics/SVG/1.1/DTD/svg11.dtd"><svg class="icon" width="128px" height="128.00px" viewBox="0 0 1024 1024" version="1.1" xmlns="http://www.w3.org/2000/svg"><path d="M696.782 709.306c-2.906 0-5.812-0.624-8.5-1.782l-68.936-29.998c-4-1.718-7.344-4.656-9.624-8.344l-17.344-28a21.284 21.284 0 0 1-2.218-17.562l33.312-107.278a21.354 21.354 0 0 1 8.376-11.296l75.622-51.56a21.528 21.528 0 0 1 9.312-3.532 314.37 314.37 0 0 1 39.782-2.516c134.186 0 234.246 83.858 238.464 87.436a21.302 21.302 0 0 1 7.062 20.498 21.332 21.332 0 0 1-14.5 16.094c-0.468 0.156-47.81 15.124-98.748 38.154-85.498 38.688-110.374 67.468-117.592 81.188a21.294 21.294 0 0 1-16.188 11.248l-55.592 7.062a18.964 18.964 0 0 1-2.688 0.188z" fill="#ED5564" /><path d="M902.34 479.376c-17.688-7.718-37.468-14.904-58.936-20.514a503.34 503.34 0 0 0-38.562 21.248c-32.75 20.016-59.876 42.204-80.656 65.982-26.904 30.782-43.216 64.342-48.498 99.654-1.75 11.624 6.312 22.5 17.938 24.25 1.094 0.156 2.156 0.25 3.188 0.25 10.404 0 19.498-7.624 21.06-18.188 14.28-95.56 133-152.34 184.466-172.682z" fill="#DA4453" /><path d="M324.524 709.12l-55.592-7.062a21.3 21.3 0 0 1-16.188-11.248c-7.218-13.718-32.092-42.5-117.59-81.188-50.92-23.03-98.264-37.998-98.732-38.154a21.38 21.38 0 0 1-14.516-16.094 21.348 21.348 0 0 1 7.078-20.498c4.204-3.578 104.28-87.436 238.464-87.436 13.328 0 26.702 0.844 39.78 2.516 3.344 0.438 6.532 1.64 9.312 3.532l75.624 51.56a21.412 21.412 0 0 1 8.358 11.296l33.328 107.278a21.288 21.288 0 0 1-2.234 17.562l-17.328 28a21.274 21.274 0 0 1-9.624 8.344l-68.936 29.998a21.674 21.674 0 0 1-8.516 1.782 19.706 19.706 0 0 1-2.688-0.188z" fill="#ED5564" /><path d="M121.638 479.376c17.702-7.718 37.5-14.904 58.966-20.514a506.184 506.184 0 0 1 38.546 21.248c32.75 20.016 59.874 42.204 80.654 65.982 26.906 30.782 43.234 64.342 48.5 99.654 1.75 11.624-6.296 22.5-17.938 24.25a22.28 22.28 0 0 1-3.188 0.25c-10.39 0-19.484-7.624-21.062-18.188-14.28-95.56-132.98-152.34-184.478-172.682z" fill="#DA4453" /><path d="M920.308 730.056l-3.656-1.062c-52.938-14.188-70.842-27.876-94.404-36.81-83.594-31.876-105.344-54.812-110.906-65.656-0.188-0.406-0.344-0.812-0.532-1.218l-0.688-97.09-198.258-2.25-198.262 2.25-0.688 97.09c-0.188 0.406-0.344 0.812-0.546 1.218-5.562 10.844-27.296 33.782-110.904 65.656-23.562 8.936-41.468 22.624-94.404 36.81l-3.64 1.062c-48.186 15.938-80.608 60.624-80.608 111.06v182.872H1000.9v-182.872c0-50.436-32.406-95.122-80.592-111.06z" fill="#FFCE54" /><path d="M511.864 1023.988h21.328V755.306c0-11.782-9.546-21.344-21.328-21.344-11.796 0-21.344 9.562-21.344 21.344v268.682h21.344z" fill="#F6BB42" /><path d="M511.864 789.336c168.574 0 234.602-118.528 240.102-129.028-27.312-15.5-37.156-27-40.624-33.782-0.188-0.406-0.344-0.812-0.532-1.218l-0.688-97.09-198.258-2.25-198.262 2.25-0.688 97.09c-0.188 0.406-0.344 0.812-0.546 1.218-3.468 6.782-13.282 18.282-40.624 33.782 5.5 10.5 71.53 129.028 240.12 129.028z" fill="#CCD1D9" /><path d="M513.316 641.34h-1.452l-82.404 137.496c24.218 6.532 51.576 10.5 82.404 10.5 31.342 0 59.138-4.094 83.668-10.844l-82.216-137.152z" fill="#AAB2BC" /><path d="M786.966 340.332c0 178.746-170.402 343.226-275.102 343.226-104.702 0-275.104-164.48-275.104-343.226 0-178.762 123.168-296.682 275.104-296.682 151.948 0 275.102 117.92 275.102 296.682z" fill="#E6E9ED" /><path d="M783.216 138.042S742.154 0.012 511.864 0.012C281.572 0.012 247.182 137.76 247.182 137.76c-36.342 91.542-9.468 226.26-9.468 226.26l83.81-150.262s91.342 21.326 190.34 21.326c98.982 0 193.666-21.326 193.666-21.326l81.438 126.98c-0.002 0 31.312-121.886-3.752-202.696z" fill="#434A54" /><path d="M554.534 533.344h-85.34c-11.782 0-21.328-9.562-21.328-21.344s9.546-21.328 21.328-21.328h85.34c11.782 0 21.344 9.546 21.344 21.328s-9.564 21.344-21.344 21.344z" fill="#CCD1D9" /><path d="M469.194 554.686c-11.782 0-21.328-9.562-21.328-21.342V512c0-11.782 9.546-21.328 21.328-21.328 11.78 0 21.328 9.546 21.328 21.328v21.344c-0.002 11.78-9.548 21.342-21.328 21.342zM554.534 554.686c-11.794 0-21.342-9.562-21.342-21.342V512c0-11.782 9.546-21.328 21.342-21.328 11.782 0 21.344 9.546 21.344 21.328v21.344c-0.002 11.78-9.564 21.342-21.344 21.342z" fill="#F5F7FA" /><path d="M490.52 874.68c0 11.782-9.546 21.312-21.328 21.312s-21.328-9.532-21.328-21.312 9.546-21.344 21.328-21.344 21.328 9.562 21.328 21.344zM490.52 959.99c0 11.782-9.546 21.344-21.328 21.344s-21.328-9.562-21.328-21.344 9.546-21.344 21.328-21.344 21.328 9.562 21.328 21.344z" fill="#434A54" /></svg>