<?xml version="1.0" standalone="no"?><!DOCTYPE svg PUBLIC "-//W3C//DTD SVG 1.1//EN" "http://www.w3.org/Graphics/SVG/1.1/DTD/svg11.dtd"><svg class="icon" width="128px" height="128.00px" viewBox="0 0 1024 1024" version="1.1" xmlns="http://www.w3.org/2000/svg"><path d="M192.004 74.688h703.988v613.63H192.004z" fill="#5D9CEC" /><path d="M618.654 74.688H405.344a21.332 21.332 0 0 0-21.342 21.344c0 11.782 9.562 21.31 21.342 21.31h85.312v575.974c0 11.812 9.562 21.376 21.344 21.376s21.344-9.562 21.344-21.376V117.342h85.31c11.78 0 21.342-9.53 21.342-21.31a21.33 21.33 0 0 0-21.342-21.344z" fill="#CCD1D9" /><path d="M883.554 714.692c11.782 0 21.344-9.562 21.344-21.376 0-11.748-9.562-21.31-21.344-21.31H140.444c-11.782 0-21.344 9.562-21.344 21.31 0 11.812 9.562 21.376 21.344 21.376-11.782 0-21.344 9.5-21.344 21.312s9.562 21.312 21.344 21.312h743.112c11.782 0 21.344-9.5 21.344-21.312s-9.564-21.312-21.346-21.312z" fill="#E6E9ED" /><path d="M0.008 1013.312H234.66V992c0-102.436-23.938-186.808-44.062-239.622-12.25-32.124-24.498-56.688-33.092-72.374 26.904-16.438 76.436-52 125.936-114.81 41.716-52.954 74.936-114.576 98.716-183.202 29.53-85.186 44.498-181.402 44.498-285.962V74.688H0.008v938.624zM597.342 74.688v21.344c0 104.248 14.968 200.278 44.498 285.4 23.782 68.562 57 130.216 98.718 183.264 49.532 62.998 99.092 98.748 125.996 115.248-8.624 15.686-20.904 40.248-33.154 72.436-20.124 52.812-44.06 137.186-44.06 239.622v21.312h234.652V74.688H597.342z" fill="#A0D468" /><path d="M384.002 74.688c-11.782 0-21.344-9.562-21.344-21.344V32.032c0-11.812 9.562-21.344 21.344-21.344s21.342 9.532 21.342 21.344v21.312c0 11.78-9.56 21.344-21.342 21.344zM298.658 74.688c-11.782 0-21.31-9.562-21.31-21.344V32.032c0-11.812 9.53-21.344 21.31-21.344s21.344 9.532 21.344 21.344v21.312c0 11.78-9.562 21.344-21.344 21.344zM213.348 74.688c-11.782 0-21.344-9.562-21.344-21.344V32.032c0-11.812 9.562-21.344 21.344-21.344s21.312 9.532 21.312 21.344v21.312c0 11.78-9.532 21.344-21.312 21.344zM128.006 74.688c-11.782 0-21.344-9.562-21.344-21.344V32.032c0-11.812 9.562-21.344 21.344-21.344s21.344 9.532 21.344 21.344v21.312c0 11.78-9.562 21.344-21.344 21.344zM42.664 74.688c-11.782 0-21.312-9.562-21.312-21.344V32.032c0-11.812 9.532-21.344 21.312-21.344s21.342 9.532 21.342 21.344v21.312c0 11.78-9.56 21.344-21.342 21.344zM981.336 74.688c-11.782 0-21.344-9.562-21.344-21.344V32.032c0-11.812 9.562-21.344 21.344-21.344s21.312 9.532 21.312 21.344v21.312c0 11.78-9.53 21.344-21.312 21.344zM895.992 74.688c-11.782 0-21.344-9.562-21.344-21.344V32.032c0-11.812 9.562-21.344 21.344-21.344s21.344 9.532 21.344 21.344v21.312c0 11.78-9.562 21.344-21.344 21.344zM810.65 74.688c-11.78 0-21.31-9.562-21.31-21.344V32.032c0-11.812 9.532-21.344 21.31-21.344 11.782 0 21.344 9.532 21.344 21.344v21.312c0 11.78-9.562 21.344-21.344 21.344zM725.34 74.688c-11.782 0-21.344-9.562-21.344-21.344V32.032c0-11.812 9.562-21.344 21.344-21.344s21.312 9.532 21.312 21.344v21.312c0 11.78-9.53 21.344-21.312 21.344zM639.996 74.688c-11.78 0-21.342-9.562-21.342-21.344V32.032a21.332 21.332 0 0 1 21.342-21.344c11.782 0 21.344 9.532 21.344 21.344v21.312c0 11.78-9.562 21.344-21.344 21.344z" fill="#434A54" /><path d="M1002.648 53.344H21.352C9.57 53.344 0.008 43.812 0.008 32.032c0-11.812 9.562-21.344 21.344-21.344h981.296c11.782 0 21.344 9.532 21.344 21.344 0 11.78-9.562 21.312-21.344 21.312z" fill="#656D78" /><path d="M85.318 693.316a21.36 21.36 0 0 1-14.438-5.624c-8.656-8-9.218-21.5-1.218-30.188 56.656-61.31 102.81-128.794 137.216-200.512 27.532-57.406 47.656-117.686 59.812-179.186 16.624-83.998 14.376-153.686 10.876-178.808-1.656-11.656 6.468-22.438 18.124-24.094 11.656-1.624 22.438 6.438 24.094 18.094 0.468 3.188 10.938 79.53-10.844 191.152-12.718 65.248-33.936 129.216-63.03 190.09-36.312 76.016-85.06 147.452-144.904 212.264a21.414 21.414 0 0 1-15.688 6.812z" fill="#8CC153" /><path d="M42.664 693.316c-4.406 0-8.876-1.312-12.688-4.186-9.468-7-11.468-20.376-4.438-29.812 41.31-55.748 95.06-162.264 116.342-353.134 12.906-115.53 7.562-207.964 7.5-208.872-0.718-11.782 8.25-21.876 20-22.594 11.748-0.75 21.874 8.25 22.592 20 0.218 3.876 5.624 96.404-7.594 215.434-7.782 70.154-20.466 134.81-37.716 192.246-21.782 72.61-51 133.982-86.844 182.294-4.186 5.686-10.622 8.624-17.154 8.624z" fill="#8CC153" /><path d="M128.006 1013.312h-0.718c-11.782-0.376-21-10.25-20.594-22.062 4.25-124.374-59.53-310.432-60.186-312.244-3.844-11.188 2.062-23.312 13.186-27.188 11.156-3.812 23.282 2.062 27.124 13.188 2.75 7.938 67.032 195.496 62.5 327.744-0.374 11.5-9.844 20.562-21.312 20.562z" fill="#8CC153" /><path d="M938.68 693.316a21.42 21.42 0 0 1-15.688-6.81c-59.844-64.812-108.592-136.248-144.902-212.264-29.094-60.874-50.312-124.842-63.032-190.09-21.782-111.624-11.312-187.964-10.844-191.152 1.656-11.656 12.468-19.782 24.124-18.094 11.656 1.656 19.75 12.438 18.094 24.094-3.5 25.124-5.75 94.81 10.876 178.808 12.156 61.5 32.282 121.78 59.81 179.186 34.406 71.716 80.56 139.202 137.216 200.512 8 8.688 7.438 22.188-1.218 30.188a21.348 21.348 0 0 1-14.436 5.622z" fill="#8CC153" /><path d="M981.336 693.316c-6.532 0-12.968-2.938-17.156-8.624-35.844-48.312-65.062-109.686-86.844-182.294-17.25-57.436-29.936-122.092-37.716-192.246-13.218-119.03-7.812-211.558-7.594-215.434 0.718-11.75 10.844-20.718 22.594-20 11.748 0.718 20.716 10.844 19.998 22.594-0.062 1.188-5.376 93.498 7.5 208.872 11.75 105.342 41.468 252.136 116.344 353.134 7.032 9.438 5.032 22.812-4.438 29.812-3.814 2.874-8.282 4.186-12.688 4.186z" fill="#8CC153" /><path d="M895.992 1013.312c-11.468 0-20.938-9.062-21.312-20.562-4.532-132.248 59.75-319.806 62.5-327.744 3.844-11.124 15.968-17 27.124-13.188 11.124 3.876 17.032 16 13.188 27.188-0.656 1.812-64.438 187.996-60.188 312.244 0.406 11.812-8.812 21.688-20.594 22.062h-0.718z" fill="#8CC153" /><path d="M170.662 693.316H0.008v-42.624h170.654c11.78 0 21.342 9.5 21.342 21.312s-9.562 21.312-21.342 21.312z" fill="#656D78" /><path d="M851.9 693.316h170.654v-42.624H851.9c-11.782 0-21.344 9.5-21.344 21.312s9.564 21.312 21.344 21.312z" fill="#656D78" /></svg>