<?xml version="1.0" standalone="no"?><!DOCTYPE svg PUBLIC "-//W3C//DTD SVG 1.1//EN" "http://www.w3.org/Graphics/SVG/1.1/DTD/svg11.dtd"><svg class="icon" width="128px" height="128.00px" viewBox="0 0 1024 1024" version="1.1" xmlns="http://www.w3.org/2000/svg"><path d="M938.056 469.342h-63.98v-63.98c0-11.778-9.56-21.322-21.338-21.322h-95.282v42.658h73.946v63.98c0 11.78 9.558 21.322 21.336 21.322h85.318c11.78 0 21.306-9.542 21.306-21.322 0.002-11.778-9.526-21.336-21.306-21.336z" fill="#424953" /><path d="M747.116 725.248H192.598L107.31 1023.844h725.092z" fill="#FB6D51" /><path d="M192.598 0.156h42.674v725.092H192.598z" fill="#CBD0D8" /><path d="M277.916 767.922v42.676H168.23l-12.184 42.612h35.55v42.674H143.864l-12.186 42.676h146.238v42.612H119.494l-12.184 42.674h725.092l-12.184-42.674h-158.422V938.56h146.238l-12.184-42.676h-48.736v-42.674h36.552l-12.186-42.612h-109.686v-42.676h97.502l-12.184-42.674H192.598l-12.184 42.674h97.502z m-43.644 127.96v-42.674h128.96v42.674h-128.96z m214.248 85.288h-127.96v-42.612h127.96v42.612z m-42.644-85.288v-42.674h127.958v42.674h-127.958z m213.278 85.288h-127.96v-42.612h127.96v42.612z m85.288-127.962v42.674h-127.96v-42.674h127.96z m-213.248-85.286h127.96v42.676h-127.96v-42.676z m-170.636 0h127.96v42.676h-127.96v-42.676z" fill="#E8563F" /><path d="M704.442 0.156h42.674v725.092h-42.674z" fill="#CBD0D8" /><path d="M747.116 0.156H192.598L64.636 213.42h810.44z" fill="#EC5564" /><path d="M788.758 426.698c0 23.556-19.086 42.644-42.642 42.644H191.598c-23.554 0-42.642-19.088-42.642-42.644V384.04c0-23.554 19.088-42.658 42.642-42.658h554.518c23.556 0 42.642 19.104 42.642 42.658v42.658z" fill="#FECD57" /><path d="M276.916 341.38h42.642v127.96h-42.642zM362.232 341.38h42.644v127.524h-42.644zM447.52 341.38h42.674v213.294H447.52z" fill="#F5BA45" /><path d="M575.48 512H362.232l42.644 170.636h127.96z" fill="#646C77" /><path d="M448.52 0.156h42.674V213.42H448.52zM256.61 213.42h43.486L342.522 0.156h-43.488zM683.104 213.42h-43.486L597.16 0.156h43.52z" fill="#D94452" /></svg>