<?xml version="1.0" standalone="no"?><!DOCTYPE svg PUBLIC "-//W3C//DTD SVG 1.1//EN" "http://www.w3.org/Graphics/SVG/1.1/DTD/svg11.dtd"><svg class="icon" width="128px" height="128.00px" viewBox="0 0 1024 1024" version="1.1" xmlns="http://www.w3.org/2000/svg"><path d="M853.308 341.334c0 11.782-9.532 21.328-21.312 21.328s-21.31-9.546-21.31-21.328 9.53-21.328 21.31-21.328 21.312 9.546 21.312 21.328z" fill="#424953" /><path d="M512.006 21.344m-21.328 0a21.328 21.328 0 1 0 42.656 0 21.328 21.328 0 1 0-42.656 0Z" fill="#424953" /><path d="M192.018 341.334m-21.328 0a21.328 21.328 0 1 0 42.656 0 21.328 21.328 0 1 0-42.656 0Z" fill="#424953" /><path d="M789.124 181.34c-29.094-50.404-75.686-84.42-127.652-98.858-38.466-37.81-91.246-61.138-149.462-61.138s-110.98 23.344-149.48 61.154c-51.966 14.438-98.542 48.438-127.636 98.842-29.108 50.42-35.28 107.762-21.794 159.994-13.484 52.232-7.312 109.59 21.794 159.994 29.094 50.42 75.67 84.42 127.636 98.856 38.5 37.812 91.264 61.126 149.48 61.126s110.996-23.312 149.496-61.126c51.934-14.436 98.526-48.436 127.62-98.856 29.126-50.404 35.282-107.762 21.81-159.994 13.468-52.232 7.312-109.574-21.812-159.994z m-184.93-64.03c11.81 0 23.56 1.25 35.06 3.656 18.968 21.154 32.124 46.28 38.654 73.42a211.82 211.82 0 0 0-73.342-13.078h-0.188a211.422 211.422 0 0 0-47.998-57.078 169.566 169.566 0 0 1 47.814-6.92z m-92.186 85.06a214.854 214.854 0 0 0-45.044-15.718c12.188-16.514 27.374-30.794 45.044-42.154 17.672 11.36 32.876 25.64 45.06 42.17a213.606 213.606 0 0 0-45.06 15.702z m34.81 78.512a170.384 170.384 0 0 1 20.626 28.454 172.882 172.882 0 0 1 14.344 31.998 172 172 0 0 1-14.344 31.998 169.75 169.75 0 0 1-20.626 28.454c-11.312 2.344-22.966 3.546-34.81 3.546s-23.5-1.204-34.826-3.546a170.282 170.282 0 0 1-20.594-28.454 172.274 172.274 0 0 1-14.376-31.998 173.028 173.028 0 0 1 14.376-31.998 170.94 170.94 0 0 1 20.594-28.454c11.326-2.344 22.982-3.546 34.826-3.546s23.498 1.204 34.81 3.546z m-79.184-49.982a211.19 211.19 0 0 0-12.766 11.516c-5.532 1.544-10.968 3.28-16.312 5.234 0.312-1.266 0.64-2.548 0.984-3.814a170.82 170.82 0 0 1 5.844-17.858 172.194 172.194 0 0 1 22.25 4.922z m-12.764 209.352a215.866 215.866 0 0 0 12.75 11.516 171.68 171.68 0 0 1-22.234 4.938 172.068 172.068 0 0 1-5.844-17.876 149.832 149.832 0 0 1-0.984-3.812c5.342 1.952 10.78 3.702 16.312 5.234z m57.138 40.062a214.738 214.738 0 0 0 45.06 15.702c-12.186 16.532-27.388 30.812-45.06 42.154-17.672-11.342-32.858-25.624-45.044-42.154a215.834 215.834 0 0 0 45.044-15.702z m44.372-28.546a211.518 211.518 0 0 0 12.75-11.516 209.5 209.5 0 0 0 16.312-5.234 156.18 156.18 0 0 1-0.968 3.812 172.7 172.7 0 0 1-5.844 17.876 173.514 173.514 0 0 1-22.25-4.938z m12.75-209.336a207.176 207.176 0 0 0-12.75-11.532 175.436 175.436 0 0 1 22.25-4.922 171.136 171.136 0 0 1 5.844 17.858c0.342 1.266 0.656 2.548 0.968 3.814a202.706 202.706 0 0 0-16.312-5.218z m-57.122-178.416c22.406 0 44.124 4.294 64.28 12.466a212.388 212.388 0 0 0-64.28 19.25 212.404 212.404 0 0 0-64.28-19.25c20.142-8.172 41.874-12.466 64.28-12.466z m-127.262 56.95a171.556 171.556 0 0 1 35.094-3.656 169.56 169.56 0 0 1 47.81 6.92 211.76 211.76 0 0 0-48.03 57.078h-0.19a211.994 211.994 0 0 0-73.324 13.078c6.548-27.14 19.686-52.264 38.64-73.42z m15.828 104.09a215.108 215.108 0 0 0-8.922 46.794 213.6 213.6 0 0 0-36.108 31.17c-8.234-18.81-13-39.092-14-60.076a171.002 171.002 0 0 1 59.03-17.888z m-2.782 116.278a209.074 209.074 0 0 0-3.64 16.766 152.126 152.126 0 0 1-2.828-2.75 173.532 173.532 0 0 1-12.546-14.016 173.874 173.874 0 0 1 12.546-14.016c0.938-0.922 1.876-1.844 2.828-2.75a209.948 209.948 0 0 0 3.64 16.766z m-125.948-138.668a170.772 170.772 0 0 1 42.888-49.294 212.15 212.15 0 0 0-15.452 65.154 212.214 212.214 0 0 0-48.78 46.06c2.984-21.544 10.14-42.514 21.344-61.92z m0 277.336c-11.204-19.406-18.36-40.376-21.342-61.92a212.32 212.32 0 0 0 48.78 46.076 212.484 212.484 0 0 0 15.452 65.152 170.804 170.804 0 0 1-42.89-49.308z m29.952-68.466c-20.234-19.25-35.422-43.204-44.282-70.202 8.86-27 24.046-50.952 44.282-70.186a211.998 211.998 0 0 0 25.436 70.186 212.068 212.068 0 0 0-25.436 70.202z m53.748-31.876a214.074 214.074 0 0 0 36.108 31.156 215.108 215.108 0 0 0 8.922 46.794 170.576 170.576 0 0 1-59.03-17.89c1-20.966 5.766-41.262 14-60.06z m29.202 182.026c-18.954-21.138-32.092-46.264-38.638-73.404a211.928 211.928 0 0 0 73.324 13.078h0.19a211.718 211.718 0 0 0 48.03 57.076c-15.516 4.562-31.61 6.938-47.81 6.938a169.38 169.38 0 0 1-35.096-3.688z m127.262 56.966c-22.406 0-44.138-4.282-64.28-12.468 21.844-2.876 43.53-9.248 64.28-19.248 20.748 10 42.436 16.374 64.28 19.248-20.158 8.188-41.892 12.468-64.28 12.468z m127.246-56.966a169.064 169.064 0 0 1-35.06 3.688 169.352 169.352 0 0 1-47.812-6.938 211.378 211.378 0 0 0 47.998-57.076h0.188c24.594 0 49.438-4.266 73.342-13.078-6.534 27.14-19.688 52.264-38.656 73.404z m-15.812-104.074a216.234 216.234 0 0 0 8.938-46.794 214.592 214.592 0 0 0 36.092-31.156c8.218 18.796 13 39.094 14 60.06a170.606 170.606 0 0 1-59.03 17.89z m2.78-116.278a210.052 210.052 0 0 0 3.656-16.766c0.938 0.906 1.876 1.828 2.812 2.75a179.636 179.636 0 0 1 12.562 14.016 180.41 180.41 0 0 1-12.562 14.016c-0.938 0.938-1.876 1.844-2.812 2.75a209.18 209.18 0 0 0-3.656-16.766z m42.248-38.312a214.766 214.766 0 0 0-36.092-31.17 216.188 216.188 0 0 0-8.938-46.794 170.946 170.946 0 0 1 59.03 17.888c-1 20.984-5.78 41.264-14 60.076z m83.716 176.98a171.568 171.568 0 0 1-42.902 49.308c8.404-20.342 13.716-42.232 15.468-65.152a212.898 212.898 0 0 0 48.748-46.076c-2.97 21.544-10.126 42.514-21.314 61.92z m-55.402-138.668a212.042 212.042 0 0 0 25.436-70.186c20.218 19.234 35.404 43.186 44.282 70.186-8.876 26.998-24.062 50.952-44.282 70.202a212.112 212.112 0 0 0-25.436-70.202z m27.968-122.808a212.93 212.93 0 0 0-15.5-65.17 171.226 171.226 0 0 1 42.934 49.31c11.188 19.406 18.344 40.376 21.314 61.92a212.79 212.79 0 0 0-48.748-46.06z" fill="#FECD57" /><path d="M300.216 533.328v383.97c0 11.812 9.564 21.342 21.344 21.342a21.318 21.318 0 0 0 21.328-21.342V585.122l-42.672-51.794zM684.19 592.464v324.834c0 11.812 9.562 21.342 21.376 21.342 11.75 0 21.31-9.53 21.31-21.342V533.328l-42.686 59.136zM492.21 641.308v362.676h0.078c0.688 11.154 9.922 19.998 21.266 19.998 11.328 0 20.56-8.844 21.266-19.998h0.062V641.308h-42.672z" fill="#FECD57" /><path d="M513.554 853.3c-23.532 0-42.67-19.124-42.67-42.654s19.138-42.656 42.67-42.656c23.514 0 42.638 19.126 42.638 42.656s-19.124 42.654-42.638 42.654z" fill="#FB6D51" /><path d="M513.554 746.648c-35.358 0-63.998 28.656-63.998 63.998s28.64 63.998 63.998 63.998c35.328 0 64.014-28.656 64.014-63.998s-28.686-63.998-64.014-63.998z m0 85.34c-11.766 0-21.344-9.56-21.344-21.342 0-11.75 9.578-21.344 21.344-21.344s21.328 9.594 21.328 21.344c0 11.782-9.562 21.342-21.328 21.342z" fill="#E8563F" /><path d="M512.008 21.344c-176.728 0-319.99 143.262-319.99 319.99s143.262 319.974 319.99 319.974c176.744 0 319.988-143.246 319.988-319.974S688.752 21.344 512.008 21.344z m196.118 516.092c-25.498 25.5-55.184 45.5-88.184 59.436-34.154 14.438-70.498 21.782-107.934 21.782-37.452 0-73.78-7.344-107.934-21.782-33.016-13.936-62.686-33.936-88.17-59.436-25.482-25.482-45.482-55.154-59.452-88.168-14.438-34.154-21.764-70.482-21.764-107.934 0-37.454 7.326-73.764 21.764-107.934 13.968-33.016 33.968-62.686 59.452-88.17 25.484-25.482 55.154-45.482 88.17-59.452 34.154-14.438 70.482-21.764 107.934-21.764 37.436 0 73.78 7.326 107.934 21.764 33 13.968 62.686 33.968 88.184 59.452 25.468 25.484 45.468 55.154 59.438 88.17 14.436 34.17 21.748 70.48 21.748 107.934 0 37.452-7.312 73.78-21.748 107.934-13.97 33.014-33.97 62.686-59.438 88.168z" fill="#EC5564" /><path d="M513.554 469.33c-70.576 0-127.996-57.42-127.996-127.996s57.42-127.996 127.996-127.996 128.01 57.42 128.01 127.996-57.434 127.996-128.01 127.996z" fill="#FB6D51" /><path d="M513.554 192.012c-82.482 0-149.338 66.856-149.338 149.322s66.856 149.322 149.338 149.322c82.45 0 149.322-66.856 149.322-149.322s-66.872-149.322-149.322-149.322z m0 255.99c-58.826 0-106.668-47.858-106.668-106.668s47.842-106.668 106.668-106.668 106.636 47.858 106.636 106.668-47.81 106.668-106.636 106.668z" fill="#E8563F" /><path d="M534.882 341.334c0 11.782-9.548 21.328-21.328 21.328-11.782 0-21.344-9.546-21.344-21.328s9.562-21.328 21.344-21.328c11.78 0 21.328 9.546 21.328 21.328z" fill="#424953" /><path d="M342.888 789.302h-42.672c-11.78 0-21.326-9.532-21.326-21.312s9.546-21.342 21.326-21.342h42.672c11.782 0 21.328 9.56 21.328 21.342s-9.546 21.312-21.328 21.312zM726.876 789.302h-42.686c-11.75 0-21.312-9.532-21.312-21.312s9.562-21.342 21.312-21.342h42.686c11.782 0 21.31 9.56 21.31 21.342s-9.53 21.312-21.31 21.312z" fill="#EC5564" /><path d="M534.882 981.296h-42.672c-11.78 0-21.326-9.532-21.326-21.312s9.546-21.344 21.326-21.344h42.672c11.782 0 21.31 9.562 21.31 21.344s-9.528 21.312-21.31 21.312z" fill="#EC5564" /></svg>