<?xml version="1.0" standalone="no"?><!DOCTYPE svg PUBLIC "-//W3C//DTD SVG 1.1//EN" "http://www.w3.org/Graphics/SVG/1.1/DTD/svg11.dtd"><svg class="icon" width="128px" height="128.00px" viewBox="0 0 1024 1024" version="1.1" xmlns="http://www.w3.org/2000/svg"><path d="M384.004 0.02c-11.782 0-21.328 9.546-21.328 21.328V199.34h42.654V21.346C405.332 9.566 395.786 0.02 384.004 0.02zM639.996 0.02c-11.782 0-21.344 9.546-21.344 21.328V199.34h42.686V21.346c0-11.78-9.562-21.326-21.342-21.326z" fill="#D670AC" /><path d="M362.678 131.28l-71.668 87.122c-7.578 8.954-10.594 25.328-6.704 36.39 0 0 35.42 100.542 35.42 194.54 0 0-63.716 163.354-63.716 211.976v341.364c0 11.716 9.594 21.31 21.328 21.31H746.648c11.75 0 21.344-9.594 21.344-21.31V661.308c0-48.624-63.964-213.132-63.964-213.132 0-93.996 35.466-193.398 35.466-193.398 3.936-11.062 0.968-27.42-6.624-36.374L661.338 131.28c-0.844-6.078-40.498-6.624-42.686-1.468 0 0-29.686 104.872-106.652 104.872-76.95 0-106.668-104.872-106.668-104.872-2.156-5.156-41.826-4.626-42.654 1.468z" fill="#EB87BF" /><path d="M704.026 448.174c0-93.996 35.466-193.398 35.466-193.398 3.936-11.062 0.968-27.42-6.624-36.374L661.338 131.28c-0.844-6.078-40.498-6.624-42.686-1.468 0 0-0.062 0.296-0.25 0.844 0.124 0.204 0.25 0.406 0.25 0.624l71.56 87.122c7.562 8.954 10.562 25.312 6.624 36.374 0 0-35.468 99.402-35.468 193.398 0 0 63.966 164.51 63.966 213.132v341.364c0 11.716-9.624 21.31-21.342 21.31h42.652c11.75 0 21.344-9.594 21.344-21.31V661.306c0.002-48.622-63.962-213.132-63.962-213.132z" fill="#FFFFFF" opacity=".2" /></svg>