<?xml version="1.0" standalone="no"?><!DOCTYPE svg PUBLIC "-//W3C//DTD SVG 1.1//EN" "http://www.w3.org/Graphics/SVG/1.1/DTD/svg11.dtd"><svg class="icon" width="128px" height="128.00px" viewBox="0 0 1024 1024" version="1.1" xmlns="http://www.w3.org/2000/svg"><path d="M735.176 96.882C672.738 34.414 589.678 0.008 501.32 0.008c-88.342 0-171.402 34.404-233.84 96.874-62.466 62.452-96.874 145.512-96.874 233.856v287.852c0 11.782 9.562 21.344 21.344 21.344h618.786c11.75 0 21.312-9.562 21.312-21.344V330.738c0-88.344-34.372-171.404-96.872-233.856z" fill="#5D9CEC" /><path d="M362.634 618.59V30.32a329.894 329.894 0 0 0-42.686 23.75v564.52c0 11.782 9.562 21.344 21.344 21.344 11.78 0 21.342-9.562 21.342-21.344zM682.676 618.59V54.07a325.732 325.732 0 0 0-42.688-23.75v588.27c0 11.782 9.562 21.344 21.376 21.344 11.75 0 21.312-9.562 21.312-21.344z" fill="#4A89DC" /><path d="M362.634 213.192h-42.686c-11.782 0-21.312-9.562-21.312-21.344s9.532-21.328 21.312-21.328h42.686c11.782 0 21.344 9.546 21.344 21.328s-9.562 21.344-21.344 21.344zM362.634 554.562h-42.686c-11.782 0-21.312-9.532-21.312-21.328 0-11.782 9.532-21.33 21.312-21.33h42.686c11.782 0 21.344 9.548 21.344 21.33 0 11.798-9.562 21.328-21.344 21.328zM682.676 213.192h-42.688c-11.748 0-21.31-9.562-21.31-21.344s9.562-21.328 21.31-21.328h42.688c11.812 0 21.376 9.546 21.376 21.328s-9.564 21.344-21.376 21.344zM682.676 554.562h-42.688c-11.748 0-21.31-9.532-21.31-21.328 0-11.782 9.562-21.33 21.31-21.33h42.688c11.812 0 21.376 9.548 21.376 21.33-0.002 11.798-9.564 21.328-21.376 21.328z" fill="#4A89DC" /><path d="M405.292 682.622H191.952c-11.782 0-21.344 9.532-21.344 21.312v298.714c0 11.782 9.562 21.344 21.344 21.344h213.34c11.812 0 21.344-9.562 21.344-21.344V703.934c-0.002-11.782-9.532-21.312-21.344-21.312zM832.048 682.622H618.678a21.28 21.28 0 0 0-21.312 21.312v298.714c0 11.782 9.5 21.344 21.312 21.344h213.372c11.812 0 21.312-9.562 21.312-21.344V703.934a21.28 21.28 0 0 0-21.314-21.312z" fill="#F4BE8E" /><path d="M319.95 810.622h-42.656c-11.782 0-21.344-9.562-21.344-21.312 0-11.812 9.562-21.376 21.344-21.376h42.656c11.782 0 21.344 9.562 21.344 21.376-0.002 11.748-9.564 21.312-21.344 21.312zM746.676 810.622h-42.624c-11.812 0-21.376-9.562-21.376-21.312a21.366 21.366 0 0 1 21.376-21.376h42.624a21.366 21.366 0 0 1 21.376 21.376c-0.002 11.748-9.564 21.312-21.376 21.312zM319.95 981.304h-42.656c-11.782 0-21.344-9.562-21.344-21.312 0-11.812 9.562-21.344 21.344-21.344h42.656c11.782 0 21.344 9.532 21.344 21.344-0.002 11.75-9.564 21.312-21.344 21.312zM746.676 981.304h-42.624c-11.812 0-21.376-9.562-21.376-21.312 0-11.812 9.562-21.344 21.376-21.344h42.624c11.812 0 21.376 9.532 21.376 21.344-0.002 11.75-9.564 21.312-21.376 21.312z" fill="#434A54" /><path d="M170.608 853.304h256.028v42.656H170.608zM597.366 853.304h255.996v42.656H597.366z" fill="#EAAD7A" /><path d="M896.046 597.25H127.92c-23.53 0-42.654 19.122-42.654 42.684v42.688c0 23.5 19.124 42.656 42.654 42.656h768.126c23.562 0 42.688-19.156 42.688-42.656v-42.688c0-23.562-19.124-42.684-42.688-42.684z" fill="#FFD2A6" /><path d="M511.976 661.246c11.812 0 21.344-9.532 21.344-21.312v-42.684h-42.656v42.684a21.3 21.3 0 0 0 21.312 21.312z" fill="#434A54" /></svg>