<?xml version="1.0" standalone="no"?><!DOCTYPE svg PUBLIC "-//W3C//DTD SVG 1.1//EN" "http://www.w3.org/Graphics/SVG/1.1/DTD/svg11.dtd"><svg class="icon" width="128px" height="128.00px" viewBox="0 0 1024 1024" version="1.1" xmlns="http://www.w3.org/2000/svg"><path d="M704.244 338.38c0-41.748 21.31-106.932 21.31-106.932l85.404 21.358 42.716-170.838L641.34 0.02S589.03 103.312 512 103.312C434.972 103.312 382.628 0.02 382.628 0.02L170.324 81.968l42.686 170.838 85.436-21.358s21.06 70.06 21.06 108.104c0 0-63.778 229.948-63.778 278.694 0 48.686 21.374 405.734 21.374 405.734h469.796s21.344-357.048 21.344-405.734c-0.002-48.746-63.998-279.866-63.998-279.866z" fill="#4FC0E8" /><path d="M382.628 42.72S434.972 146.028 512 146.028c77.03 0 129.34-103.308 129.34-103.308l202.586 78.2 9.75-38.952L641.34 0.02S589.03 103.312 512 103.312C434.972 103.312 382.628 0.02 382.628 0.02L170.324 81.968l9.718 38.952 202.586-78.2z" fill="#FFFFFF" opacity=".2" /></svg>