<?xml version="1.0" standalone="no"?><!DOCTYPE svg PUBLIC "-//W3C//DTD SVG 1.1//EN" "http://www.w3.org/Graphics/SVG/1.1/DTD/svg11.dtd"><svg class="icon" width="128px" height="128.00px" viewBox="0 0 1024 1024" version="1.1" xmlns="http://www.w3.org/2000/svg"><path d="M362.714 0.018c-11.75 0-21.312 9.532-21.312 21.31v98.654h42.656V21.328c-0.002-11.78-9.564-21.31-21.344-21.31zM661.282 0.018c-11.78 0-21.342 9.532-21.342 21.31v98.654h42.654V21.328c0-11.78-9.532-21.31-21.312-21.31z" fill="#EC87C0" /><path d="M850.214 981.016s-94.53 42.966-339.506 42.966c-245.022 0-336.926-42.966-336.926-42.966S126.972 342.13 512.02 342.13c385.034 0 338.194 638.886 338.194 638.886z" fill="#E6E9ED" /><path d="M703.938 99.702c-35.5-40.53-191.916 20.25-191.916 20.25s-156.462-60.78-191.962-20.25c-35.468 40.53 42.656 283.584 42.656 283.584H661.282s78.124-243.056 42.656-283.584z" fill="#CCD1D9" /><path d="M173.094 862.864a1461.008 1461.008 0 0 0-1.062 43.874c53.06 13.032 162.994 32.966 339.988 32.966 176.948 0 286.882-19.936 339.944-32.966a1280.258 1280.258 0 0 0-1.062-43.874c-45.25 11.844-155.122 34.186-338.882 34.186-183.806-0.002-293.646-22.342-338.926-34.186z" fill="#EC87C0" /></svg>