<?xml version="1.0" standalone="no"?><!DOCTYPE svg PUBLIC "-//W3C//DTD SVG 1.1//EN" "http://www.w3.org/Graphics/SVG/1.1/DTD/svg11.dtd"><svg class="icon" width="128px" height="128.00px" viewBox="0 0 1024 1024" version="1.1" xmlns="http://www.w3.org/2000/svg"><path d="M645.804 261.322H387.378c-81.934 127.152-195.368 359.736-195.368 762.658H831.988c0-410.546-106.746-638.976-186.184-762.658z" fill="#FECD57" /><path d="M341.286 0.02c-11.436 0-20.75 9-21.28 20.312h-0.062v142.682h42.686V20.332h-0.062C362.036 9.018 352.724 0.02 341.286 0.02zM682.618 0.02c-11.782 0-21.344 9.53-21.344 21.312v142.682h42.656V21.332A21.3 21.3 0 0 0 682.618 0.02z" fill="#E8563F" /><path d="M746.644 236.198c-1.062-34.498-9.808-60.872-25.964-78.402-15-16.312-35.532-24.592-60.938-24.592-52.622 0-115.648 37.374-141.836 54.528-27.312-16.906-94.278-54.528-149.838-54.528-26.376 0-47.624 8.124-63.248 24.156-17.186 17.592-26.406 44.124-27.5 78.84-1.188 38.842 8.188 69.81 27.936 91.966 17 19.124 41.56 31 71.06 34.374l1.188 0.124H646.46l1.188-0.124c29.468-3.376 54.032-15.25 71.062-34.374 19.75-22.158 29.154-53.094 27.934-91.968z" fill="#FB6D51" /><path d="M694.992 347.412c9-5.218 16.968-11.656 23.718-19.25 19.75-22.156 29.152-53.092 27.934-91.966-1.062-34.498-9.808-60.872-25.964-78.402-15-16.312-35.532-24.592-60.938-24.592-7.282 0-14.75 0.75-22.278 2 16.184 3.344 29.778 10.906 40.558 22.594 16.156 17.53 24.876 43.904 25.968 78.402 1.218 38.874-8.188 69.81-27.938 91.966-6.782 7.594-14.75 14.03-23.718 19.25 68.218 134.87 136.964 347.02 136.964 676.568h42.688c0.002-329.55-68.778-541.7-136.994-676.57z" fill="#FFFFFF" opacity=".2" /></svg>