<?xml version="1.0" standalone="no"?><!DOCTYPE svg PUBLIC "-//W3C//DTD SVG 1.1//EN" "http://www.w3.org/Graphics/SVG/1.1/DTD/svg11.dtd"><svg class="icon" width="128px" height="128.00px" viewBox="0 0 1024 1024" version="1.1" xmlns="http://www.w3.org/2000/svg"><path d="M389.816 543.992h-63.718c-11.782 0-21.328-9.546-21.328-21.328 0-6.39 7.124-79.686 32.906-106.668 21.796-22.828 62.356-0.562 67.7 0.218 11.656 1.704 19.718 12.546 18.016 24.202l-12.468 85.326a21.34 21.34 0 0 1-21.108 18.25zM64.012 181.33c-11.78 0-21.328-9.546-21.328-21.328V138.674c0-11.78 9.546-21.342 21.328-21.342S85.34 126.894 85.34 138.674v21.328c0 11.782-9.548 21.328-21.328 21.328zM149.338 181.33c-11.78 0-21.328-9.546-21.328-21.328V138.674c0-11.78 9.546-21.342 21.328-21.342S170.68 126.894 170.68 138.674v21.328c0 11.782-9.562 21.328-21.342 21.328zM234.678 181.33c-11.78 0-21.342-9.546-21.342-21.328V138.674c0-11.78 9.562-21.342 21.342-21.342 11.782 0 21.328 9.562 21.328 21.342v21.328c0 11.782-9.546 21.328-21.328 21.328z" fill="#ED5564" /><path d="M661.308 415.996c0 11.734-9.562 21.328-21.312 21.328H21.34c-11.734 0-21.328-9.594-21.328-21.328V160.002c0-11.734 9.594-21.328 21.328-21.328h618.656c11.75 0 21.312 9.594 21.312 21.328v255.994z" fill="#FFCE54" /><path d="M1002.674 309.326H789.302c-11.748 0-21.31-9.546-21.31-21.328 0-11.78 9.562-21.328 21.31-21.328h213.372c11.75 0 21.312 9.546 21.312 21.328s-9.562 21.328-21.312 21.328z" fill="#CCD1D9" /><path d="M789.302 351.998l-127.994 21.326v-170.652L789.302 224z" fill="#E6E9ED" /><path d="M725.306 309.326h-42.624c-11.812 0-21.376-9.546-21.376-21.328 0-11.78 9.562-21.328 21.376-21.328h42.624c11.812 0 21.376 9.546 21.376 21.328s-9.562 21.328-21.376 21.328z" fill="#CCD1D9" /><path d="M874.678 330.67c-11.812 0-21.376-9.562-21.376-21.344v-42.656c0-11.78 9.562-21.342 21.376-21.342 11.75 0 21.31 9.562 21.31 21.342v42.656c0 11.782-9.56 21.344-21.31 21.344z" fill="#E6E9ED" /><path d="M597.31 245.328h-21.312c-11.782 0-21.31-9.546-21.31-21.328s9.53-21.328 21.31-21.328h21.312c11.81 0 21.374 9.546 21.374 21.328s-9.562 21.328-21.374 21.328zM597.31 309.326h-21.312c-11.782 0-21.31-9.546-21.31-21.328 0-11.78 9.53-21.328 21.31-21.328h21.312c11.81 0 21.374 9.546 21.374 21.328s-9.562 21.328-21.374 21.328zM597.31 373.324h-21.312c-11.782 0-21.31-9.546-21.31-21.328s9.53-21.328 21.31-21.328h21.312c11.81 0 21.374 9.546 21.374 21.328s-9.562 21.328-21.374 21.328z" fill="#F6BB42" /><path d="M959.986 330.67c-11.782 0-21.312-9.562-21.312-21.344v-42.656c0-11.78 9.532-21.342 21.312-21.342s21.312 9.562 21.312 21.342v42.656c0 11.782-9.53 21.344-21.312 21.344z" fill="#E6E9ED" /><path d="M234.678 266.67H106.682c-11.78 0-21.342-9.562-21.342-21.342S94.902 224 106.682 224h127.996c11.782 0 21.328 9.546 21.328 21.328s-9.546 21.342-21.328 21.342zM234.678 351.998H106.682c-11.78 0-21.342-9.546-21.342-21.328s9.562-21.344 21.342-21.344h127.996c11.782 0 21.328 9.562 21.328 21.344 0 11.78-9.546 21.328-21.328 21.328zM544 138.674h42.686v298.648H544zM384.004 138.674h42.67v298.648h-42.67zM362.676 437.322H170.68L128.01 714.676h191.994z" fill="#F6BB42" /><path d="M426.674 885.292c0 11.75-9.61 21.376-21.344 21.376H64.012c-11.734 0-21.328-9.624-21.328-21.376v-170.618c0-11.75 9.594-21.376 21.328-21.376h341.318c11.734 0 21.344 9.624 21.344 21.376v170.618z" fill="#ED5564" /><path d="M42.684 821.296h383.99v42.684H42.684z" fill="#DA4453" /><path d="M106.682 842.672c-11.78 0-21.342 9.528-21.342 21.308v42.688h42.67V863.98c0-11.78-9.546-21.308-21.328-21.308zM192.008 842.672c-11.78 0-21.328 9.528-21.328 21.308v42.688h42.656V863.98c0-11.78-9.546-21.308-21.328-21.308zM277.334 842.672c-11.78 0-21.328 9.528-21.328 21.308v42.688h42.67V863.98c0.002-11.78-9.56-21.308-21.342-21.308zM362.676 842.672c-11.78 0-21.342 9.528-21.342 21.308v42.688h42.67V863.98c0-11.78-9.546-21.308-21.328-21.308z" fill="#DA4453" /></svg>