<?xml version="1.0" standalone="no"?><!DOCTYPE svg PUBLIC "-//W3C//DTD SVG 1.1//EN" "http://www.w3.org/Graphics/SVG/1.1/DTD/svg11.dtd"><svg class="icon" width="128px" height="128.00px" viewBox="0 0 1024 1024" version="1.1" xmlns="http://www.w3.org/2000/svg"><path d="M21.346 21.362h981.324v981.308H21.346z" fill="#4FC0E8" /><path d="M0.02 0.02v1023.96h1023.96V0.02H0.02z m981.274 981.306H42.69V42.706h938.606v938.62z" fill="#3BAED9" /><path d="M277.336 170.7c-11.78 0-21.328 9.532-21.328 21.312v639.978a21.32 21.32 0 0 0 21.328 21.342c11.782 0 21.344-9.532 21.344-21.342V192.012c0-11.78-9.562-21.312-21.344-21.312zM512 170.7c-11.78 0-21.328 9.532-21.328 21.312v639.978A21.32 21.32 0 0 0 512 853.332c11.782 0 21.312-9.532 21.312-21.342V192.012A21.3 21.3 0 0 0 512 170.7zM767.99 192.012c0-11.78-9.562-21.312-21.312-21.312-11.81 0-21.374 9.532-21.374 21.312v639.98c0 11.81 9.562 21.342 21.374 21.342 11.75 0 21.312-9.532 21.312-21.342V192.012z" fill="#3BAED9" /></svg>