<?xml version="1.0" standalone="no"?><!DOCTYPE svg PUBLIC "-//W3C//DTD SVG 1.1//EN" "http://www.w3.org/Graphics/SVG/1.1/DTD/svg11.dtd"><svg class="icon" width="128px" height="128.00px" viewBox="0 0 1024 1024" version="1.1" xmlns="http://www.w3.org/2000/svg"><path d="M511.992 0c-123.624 0-138.282 88-298.672 85.328v682.704c0 23.562 19.11 42.656 42.672 42.656h512c23.562 0 42.688-19.094 42.688-42.656V85.328C650.274 88 635.618 0 511.992 0z m0 128c-11.782 0-21.328-9.546-21.328-21.328s9.546-21.344 21.328-21.344 21.328 9.562 21.328 21.344S523.774 128 511.992 128z" fill="#E6E9ED" /><path d="M490.664 853.312h42.656V1024h-42.656z" fill="#F5F7FA" /><path d="M533.32 896c0 11.782-9.546 21.312-21.328 21.312S490.664 907.78 490.664 896s9.546-21.312 21.328-21.312S533.32 884.218 533.32 896z" fill="#3BAED9" /><path d="M490.664 683.688h42.656v195h-42.656z" fill="#3BAED9" /><path d="M447.992 853.312V1024h128v-170.688h-128z m85.328 128h-42.656V896h42.656v85.312z" fill="#E6E9ED" /><path d="M670.18 695.188c-16.624 16.594-49.376 30.188-72.876 30.188h-170.64c-23.468 0-56.25-13.594-72.844-30.188l-24.984-25c-16.594-16.562-30.172-49.376-30.172-72.812V213.36c0-23.468 19.204-42.656 42.656-42.656h341.36c23.438 0 42.624 19.188 42.624 42.656v384.016c0 23.438-13.562 56.25-30.156 72.812l-24.968 25z" fill="#F5F7FA" /><path d="M298.664 448.016v149.36c0 23.438 13.578 56.25 30.172 72.812l24.984 25c16.594 16.594 49.376 30.188 72.844 30.188h170.64c23.5 0 56.25-13.594 72.876-30.188l24.968-25c16.594-16.562 30.156-49.376 30.156-72.812v-149.36h-426.64z" fill="#4FC0E8" /><path d="M682.68 170.704h-42.688c23.468 0 42.688 19.188 42.688 42.656v384.016c0 23.438-13.594 56.25-30.188 72.812l-25 25c-16.594 16.594-49.376 30.188-72.812 30.188h42.624c23.5 0 56.25-13.594 72.876-30.188l24.968-25c16.594-16.562 30.156-49.376 30.156-72.812V213.36c0-23.47-19.186-42.656-42.624-42.656z" fill="#FFFFFF" opacity=".2" /></svg>