<?xml version="1.0" standalone="no"?><!DOCTYPE svg PUBLIC "-//W3C//DTD SVG 1.1//EN" "http://www.w3.org/Graphics/SVG/1.1/DTD/svg11.dtd"><svg class="icon" width="128px" height="128.00px" viewBox="0 0 1024 1024" version="1.1" xmlns="http://www.w3.org/2000/svg"><path d="M64.016 639.996c0 11.78-9.562 21.342-21.344 21.342s-21.344-9.562-21.344-21.342c0-11.782 9.562-21.344 21.344-21.344s21.344 9.562 21.344 21.344zM149.324 639.996c0 11.78-9.532 21.342-21.312 21.342-11.78 0-21.342-9.562-21.342-21.342 0-11.782 9.562-21.344 21.342-21.344s21.312 9.562 21.312 21.344zM234.666 639.996c0 11.78-9.562 21.342-21.344 21.342s-21.31-9.562-21.31-21.342c0-11.782 9.53-21.344 21.31-21.344s21.344 9.562 21.344 21.344zM320.006 639.996c0 11.78-9.56 21.342-21.342 21.342s-21.344-9.562-21.344-21.342c0-11.782 9.562-21.344 21.344-21.344s21.342 9.562 21.342 21.344zM405.316 639.996c0 11.78-9.532 21.342-21.312 21.342s-21.344-9.562-21.344-21.342c0-11.782 9.562-21.344 21.344-21.344s21.312 9.562 21.312 21.344zM490.656 639.996c0 11.78-9.562 21.342-21.342 21.342-11.782 0-21.312-9.562-21.312-21.342 0-11.782 9.532-21.344 21.312-21.344 11.78 0 21.342 9.562 21.342 21.344zM575.998 639.996c0 11.78-9.562 21.342-21.342 21.342-11.782 0-21.344-9.562-21.344-21.342 0-11.782 9.562-21.344 21.344-21.344 11.78 0 21.342 9.562 21.342 21.344zM661.308 639.996c0 11.78-9.532 21.342-21.31 21.342-11.782 0-21.344-9.562-21.344-21.342 0-11.782 9.562-21.344 21.344-21.344 11.78 0 21.31 9.562 21.31 21.344zM746.648 639.996c0 11.78-9.562 21.342-21.344 21.342-11.78 0-21.31-9.562-21.31-21.342 0-11.782 9.532-21.344 21.31-21.344 11.782 0 21.344 9.562 21.344 21.344zM831.992 639.996c0 11.78-9.562 21.342-21.344 21.342s-21.344-9.562-21.344-21.342c0-11.782 9.562-21.344 21.344-21.344s21.344 9.562 21.344 21.344zM917.298 639.996c0 11.78-9.532 21.342-21.312 21.342-11.78 0-21.34-9.562-21.34-21.342 0-11.782 9.56-21.344 21.34-21.344 11.782 0 21.312 9.562 21.312 21.344zM1002.64 639.996c0 11.78-9.56 21.342-21.342 21.342s-21.312-9.562-21.312-21.342c0-11.782 9.532-21.344 21.312-21.344s21.342 9.562 21.342 21.344z" fill="#E8563F" /><path d="M0.016 639.996h1023.968v383.988H0.016z" fill="#FB6D51" /><path d="M512 85.356c-11.782 0-21.344-9.562-21.344-21.342V21.36c0-11.782 9.562-21.344 21.344-21.344s21.312 9.562 21.312 21.344v42.654c0 11.78-9.53 21.342-21.312 21.342zM512 554.654c-11.782 0-21.344-9.53-21.344-21.31v-42.688c0-11.782 9.562-21.312 21.344-21.312s21.312 9.53 21.312 21.312v42.688A21.296 21.296 0 0 1 512 554.654z" fill="#F6BB42" /><path d="M376.222 141.574c-8.312 8.344-21.842 8.344-30.154 0l-30.186-30.156c-8.312-8.344-8.312-21.844 0-30.188 8.342-8.312 21.842-8.312 30.186 0l30.154 30.188c8.344 8.314 8.344 21.844 0 30.156zM708.088 473.438c-8.344 8.342-21.844 8.342-30.154 0l-30.188-30.154c-8.31-8.344-8.31-21.844 0-30.188 8.344-8.312 21.844-8.312 30.188 0l30.154 30.188c8.344 8.312 8.344 21.81 0 30.154z" fill="#FFCE54" /><path d="M320.006 277.352c0 11.782-9.56 21.312-21.342 21.312h-42.656c-11.782 0-21.342-9.53-21.342-21.312s9.56-21.344 21.342-21.344h42.656c11.782 0 21.342 9.562 21.342 21.344zM789.304 277.352a21.3 21.3 0 0 1-21.312 21.312h-42.688c-11.78 0-21.31-9.53-21.31-21.312s9.532-21.344 21.31-21.344h42.688c11.782 0 21.312 9.562 21.312 21.344z" fill="#F6BB42" /><path d="M376.222 413.096c8.344 8.344 8.344 21.844 0 30.156l-30.154 30.186a21.334 21.334 0 0 1-30.186 0c-8.312-8.344-8.312-21.842 0-30.186l30.186-30.156c8.312-8.344 21.842-8.344 30.154 0zM708.088 81.232a21.332 21.332 0 0 1 0 30.188l-30.154 30.156a21.332 21.332 0 0 1-30.188 0c-8.31-8.312-8.31-21.842 0-30.156l30.188-30.188c8.31-8.312 21.842-8.312 30.154 0zM512 426.66c-82.34 0-149.34-66.966-149.34-149.308s67-149.338 149.34-149.338c82.342 0 149.308 66.998 149.308 149.338 0 82.34-66.966 149.308-149.308 149.308z" fill="#FFCE54" /><path d="M512 106.668c-94.278 0-170.682 76.404-170.682 170.682C341.318 371.598 417.722 448 512 448c94.248 0 170.65-76.404 170.65-170.65 0-94.276-76.402-170.682-170.65-170.682z m0 298.678c-70.592 0-127.996-57.436-127.996-127.996 0-70.592 57.404-127.996 127.996-127.996 70.56 0 127.998 57.404 127.998 127.996 0 70.562-57.438 127.996-127.998 127.996z" fill="#F6BB42" /><path d="M149.356 810.646a21.322 21.322 0 0 1-16.75-8.094c-7.312-9.25-5.75-22.656 3.5-29.968l54-42.654c9.248-7.31 22.654-5.75 29.966 3.5s5.718 22.656-3.5 29.968l-53.998 42.654a21.32 21.32 0 0 1-13.218 4.594z" fill="#E8563F" /><path d="M234.666 895.988c-2.25 0-4.532-0.344-6.75-1.094-11.188-3.75-17.218-15.81-13.468-26.998l17.812-53.376-121.308-161.714c-7.094-9.436-5.188-22.81 4.25-29.874 9.436-7.062 22.81-5.156 29.874 4.25l128.028 170.682a21.298 21.298 0 0 1 3.188 19.562l-21.376 64a21.392 21.392 0 0 1-20.25 14.562zM575.966 810.646c-3.812 0-7.718-1.032-11.188-3.188l-87.652-54.186c-10-6.218-13.126-19.344-6.906-29.374 6.188-10.032 19.342-13.126 29.342-6.906l87.654 54.184c10 6.188 13.126 19.344 6.906 29.376-4.03 6.532-10.998 10.094-18.156 10.094zM831.992 938.64c-1.438 0-2.938-0.126-4.406-0.438-11.532-2.438-18.906-13.75-16.468-25.28l18.938-89.746-71.062-34.688a21.31 21.31 0 0 1-10.906-25.78l42.282-129.34c3.656-11.218 15.718-17.312 26.906-13.656 11.218 3.656 17.312 15.718 13.656 26.906L794.4 758.302l69.342 33.842c8.782 4.312 13.5 14 11.5 23.594l-22.376 105.996c-2.126 10.032-11 16.906-20.874 16.906z" fill="#E8563F" /><path d="M448.002 938.64c-5.468 0-10.936-2.062-15.092-6.25-8.344-8.312-8.344-21.81 0-30.152l55.934-55.936-40.436-202.12c-2.312-11.562 5.188-22.782 16.718-25.094 11.562-2.312 22.81 5.156 25.124 16.718l42.656 213.338a21.22 21.22 0 0 1-5.844 19.25l-63.998 63.994a21.138 21.138 0 0 1-15.062 6.252z" fill="#E8563F" /></svg>