<?xml version="1.0" standalone="no"?><!DOCTYPE svg PUBLIC "-//W3C//DTD SVG 1.1//EN" "http://www.w3.org/Graphics/SVG/1.1/DTD/svg11.dtd"><svg class="icon" width="128px" height="128.00px" viewBox="0 0 1024 1024" version="1.1" xmlns="http://www.w3.org/2000/svg"><path d="M1023.086 789.714c0-105.65-85.966-191.648-191.65-191.648-105.682 0-191.68 85.966-191.68 191.648 0 54.966 23.188 106.464 63.906 142.87v70.092c0 11.782 9.53 21.312 21.28 21.312H937.9c5.656 0 11.062-2.25 15.062-6.25s6.25-9.406 6.25-15.062v-70.092c40.718-36.404 63.874-87.902 63.874-142.87z" fill="#E6E9ED" /><path d="M7.156 1015.958a21.216 21.216 0 0 1 0-30.092l210.802-210.838c8.312-8.31 21.812-8.31 30.124 0 8.312 8.344 8.312 21.812 0 30.124L37.248 1015.958a21.22 21.22 0 0 1-30.092 0z" fill="#967ADC" /><path d="M797.218 367.67c0-5.656-2.25-11.092-6.25-15.062l-120.462-120.464a21.22 21.22 0 0 0-30.094 0L217.958 654.566a21.28 21.28 0 0 0-6.25 15.06v120.462c0 5.876 2.406 11.218 6.25 15.06a21.284 21.284 0 0 0 15.062 6.25h120.464c5.656 0 11.062-2.25 15.062-6.25l422.42-422.45a21.2 21.2 0 0 0 6.252-15.028z" fill="#E6E9ED" /><path d="M211.708 790.09c0 5.876 2.406 11.218 6.25 15.06a21.284 21.284 0 0 0 15.062 6.25h120.464c5.656 0 11.062-2.25 15.062-6.25L624.54 549.162H323.362l-105.402 105.404a21.28 21.28 0 0 0-6.25 15.06v120.464z" fill="#AC92EB" /><path d="M788.844 789.714a21.296 21.296 0 0 1-21.312 21.31c-11.75 0-21.28-9.53-21.28-21.31 0-11.75 9.53-21.28 21.28-21.28 11.78 0.002 21.312 9.53 21.312 21.28zM916.622 789.714a21.296 21.296 0 0 1-21.312 21.31c-11.75 0-21.282-9.53-21.282-21.31 0-11.75 9.532-21.28 21.282-21.28 11.78 0.002 21.312 9.53 21.312 21.28z" fill="#434A54" /><path d="M992.992 111.68c0-5.656-2.25-11.094-6.25-15.062l-60.246-60.248c-8.312-8.312-21.782-8.312-30.094 0L670.506 262.236c-4 4-6.218 9.406-6.218 15.062s2.218 11.062 6.218 15.062l60.246 60.248c8.312 8.312 21.81 8.312 30.124 0L986.742 126.71c4-3.968 6.25-9.406 6.25-15.03z" fill="#E6E9ED" /><path d="M625.352 247.206c-8.344-8.344-8.344-21.812 0-30.124 8.31-8.312 21.78-8.312 30.092 0l150.588 150.558c8.312 8.344 8.312 21.812 0 30.124-8.312 8.312-21.782 8.312-30.094 0l-150.586-150.558z" fill="#CCD1D9" /><path d="M534.166 639.504l-30.092-30.094c-8.312-8.344-21.812-8.312-30.124 0s-8.312 21.782 0 30.094l30.124 30.124 30.092-30.124zM443.826 729.876l-30.124-30.124c-8.312-8.31-21.78-8.31-30.092 0-8.342 8.312-8.342 21.812 0 30.124l30.092 30.092 30.124-30.092zM624.57 549.1l-30.092-30.092c-8.344-8.344-21.812-8.312-30.124 0s-8.312 21.782 0 30.092l30.124 30.124 30.092-30.124zM714.878 458.822l-30.124-30.124c-8.312-8.312-21.782-8.312-30.124 0-8.312 8.312-8.312 21.812 0 30.124l30.124 30.124 30.124-30.124z" fill="#434A54" /><path d="M788.844 960.084a21.3 21.3 0 0 0-21.312 21.312v42.592h42.594v-42.592c-0.002-11.78-9.532-21.312-21.282-21.312zM874.028 957.428a21.3 21.3 0 0 0-21.312 21.312v42.592c0 0.876 0.094 1.782 0.188 2.656h42.218c0.124-0.876 0.188-1.782 0.188-2.656V978.74c-0.002-11.782-9.532-21.312-21.282-21.312zM866.278 36.37c-8.312-8.312-8.312-21.78 0-30.124 8.312-8.312 21.782-8.312 30.124 0l120.464 120.464c8.312 8.344 8.312 21.812 0 30.124-8.312 8.312-21.812 8.312-30.124 0l-120.464-120.464z" fill="#CCD1D9" /></svg>