<?xml version="1.0" standalone="no"?><!DOCTYPE svg PUBLIC "-//W3C//DTD SVG 1.1//EN" "http://www.w3.org/Graphics/SVG/1.1/DTD/svg11.dtd"><svg class="icon" width="128px" height="128.00px" viewBox="0 0 1024 1024" version="1.1" xmlns="http://www.w3.org/2000/svg"><path d="M1002.678 767.992h-41.156c-87.216-52.746-258.338-85.34-449.522-85.34-191.166 0-362.304 32.594-449.52 85.34H21.34c-11.78 0-21.328 9.532-21.328 21.344v64c0 50.78 54.92 94.372 158.824 125.996 94.638 28.782 220.056 44.656 353.164 44.656 133.124 0 258.526-15.876 353.18-44.656 103.874-31.624 158.808-75.216 158.808-125.996v-64c0-11.812-9.562-21.344-21.31-21.344z" fill="#ED5564" /><path d="M980.178 362.676H43.824c-11.782 0-21.328 9.546-21.328 21.328v405.334c0 35.312 26.36 85.844 151.966 125.904C264.928 944.082 384.8 959.988 512 959.988c127.186 0 247.056-15.906 337.554-44.748 125.592-40.06 151.936-90.592 151.936-125.904V384.002c0-11.78-9.532-21.326-21.312-21.326z" fill="#DA4453" /><path d="M1002.678 362.676h-41.156C874.304 309.942 703.184 277.35 512 277.35c-191.166 0-362.304 32.592-449.52 85.326H21.34c-11.78 0-21.328 9.546-21.328 21.328v64c0 50.81 54.92 94.374 158.824 125.996 94.638 28.812 220.056 44.654 353.164 44.654 133.124 0 258.526-15.842 353.18-44.654 103.874-31.624 158.808-75.186 158.808-125.996v-64c0-11.782-9.562-21.328-21.31-21.328z" fill="#ED5564" /><path d="M512 533.328c-131.06 0-254.276-15.532-346.944-43.734-92.67-28.202-143.716-65.702-143.716-105.59s51.046-77.388 143.716-105.59C257.724 250.208 380.94 234.678 512 234.678c131.06 0 254.276 15.53 346.93 43.734 92.686 28.202 143.748 65.702 143.748 105.59s-51.062 77.388-143.748 105.59C766.276 517.796 643.06 533.328 512 533.328z" fill="#E6E9ED" /><path d="M865.18 258.006c-94.654-28.796-220.056-44.654-353.18-44.654-133.106 0-258.524 15.858-353.164 44.654C54.932 289.63 0.012 333.208 0.012 384.004c0 50.812 54.92 94.372 158.824 125.998 94.638 28.812 220.056 44.656 353.164 44.656 133.124 0 258.526-15.844 353.18-44.656 103.874-31.624 158.808-75.186 158.808-125.998 0-50.796-54.936-94.374-158.808-125.998z m91.842 162.762c-22.312 17.704-58.376 34.454-104.28 48.42C762.026 496.796 640.998 512 512 512c-129.012 0-250.026-15.204-340.742-42.812-45.906-13.968-81.966-30.718-104.28-48.42-16.124-12.782-24.296-25.156-24.296-36.764 0-11.608 8.172-23.968 24.296-36.764 22.312-17.704 58.374-34.436 104.28-48.42 90.716-27.61 211.728-42.812 340.742-42.812 128.998 0 250.026 15.204 340.742 42.812 45.904 13.984 81.966 30.716 104.28 48.42 16.124 12.796 24.282 25.156 24.282 36.764-0.002 11.608-8.158 23.982-24.282 36.764z" fill="#ED5564" /><path d="M277.334 1005.832c-11.782 0-21.328-9.562-21.328-21.344V515.172c0-11.782 9.546-21.328 21.328-21.328s21.342 9.546 21.342 21.328v469.316c0 11.782-9.56 21.344-21.342 21.344zM746.682 1005.832c-11.812 0-21.374-9.562-21.374-21.344V515.172c0-11.782 9.56-21.328 21.374-21.328 11.75 0 21.312 9.546 21.312 21.328v469.316c0 11.782-9.562 21.344-21.312 21.344z" fill="#434A54" /><path d="M448.362 381.346c-4.64 0-9.312-1.516-13.234-4.624L8.09 38.058C-1.144 30.746-2.69 17.324 4.638 8.09c7.312-9.234 20.734-10.78 29.968-3.452l427.036 338.648c9.218 7.328 10.782 20.75 3.454 29.984a21.324 21.324 0 0 1-16.734 8.076zM575.624 381.346c-6.28 0-12.498-2.78-16.716-8.078-7.344-9.234-5.782-22.656 3.468-29.984L989.396 4.638c9.218-7.328 22.654-5.782 29.966 3.452 7.312 9.234 5.782 22.656-3.438 29.968L588.874 376.722a21.28 21.28 0 0 1-13.25 4.624z" fill="#F4BE8E" /></svg>