<?xml version="1.0" standalone="no"?><!DOCTYPE svg PUBLIC "-//W3C//DTD SVG 1.1//EN" "http://www.w3.org/Graphics/SVG/1.1/DTD/svg11.dtd"><svg class="icon" width="128px" height="128.00px" viewBox="0 0 1024 1024" version="1.1" xmlns="http://www.w3.org/2000/svg"><path d="M85.336 899.174c-11.782 0-21.328-9.562-21.328-21.342v-85.344c0-5.656 2.25-11.062 6.25-15.062l36.42-36.436v-76.498c0-11.75 9.546-21.312 21.328-21.312s21.328 9.562 21.328 21.312v85.342c0 5.656-2.25 11.094-6.25 15.092l-36.406 36.406v76.5c0 11.78-9.56 21.342-21.342 21.342zM831.99 877.832c-11.782 0-21.344-9.562-21.344-21.344V493.854c0-11.782 9.562-21.328 21.344-21.328s21.342 9.546 21.342 21.328v362.634c0 11.782-9.56 21.344-21.342 21.344zM106.678 380.826c-11.78 0-21.342-9.546-21.342-21.328V188.832c0-11.782 9.562-21.328 21.342-21.328 11.782 0 21.328 9.546 21.328 21.328v170.668c0 11.78-9.548 21.326-21.328 21.326z" fill="#CCD1D9" /><path d="M191.988 252.83c-3.204 0-6.468-0.718-9.532-2.25L11.806 165.252C1.26 159.972-3.006 147.16 2.26 136.63c5.266-10.546 18.092-14.812 28.624-9.546l170.668 85.342c10.532 5.266 14.796 18.078 9.532 28.608a21.312 21.312 0 0 1-19.096 11.796z" fill="#E6E9ED" /><path d="M917.33 380.826c-11.782 0-21.344-9.546-21.344-21.328V188.832c0-11.782 9.562-21.328 21.344-21.328s21.312 9.546 21.312 21.328v170.668c0 11.78-9.53 21.326-21.312 21.326z" fill="#CCD1D9" /><path d="M832.022 252.83c-7.844 0-15.376-4.312-19.124-11.796-5.25-10.532-0.968-23.342 9.562-28.608l170.652-85.342c10.532-5.266 23.342-1 28.624 9.546 5.282 10.53 1 23.342-9.532 28.624l-170.682 85.326a21.222 21.222 0 0 1-9.5 2.25z" fill="#E6E9ED" /><path d="M959.956 344.53H703.992c-11.782 0-21.342 9.546-21.342 21.328v127.996c0 11.782 9.56 21.33 21.342 21.33h255.962c11.782 0 21.344-9.548 21.344-21.33v-127.996c0-11.78-9.562-21.328-21.342-21.328zM341.328 344.53H85.336c-11.782 0-21.328 9.546-21.328 21.328v298.634c0 11.782 9.546 21.344 21.328 21.344h255.992c11.782 0 21.344-9.562 21.344-21.344V365.858c0-11.78-9.562-21.328-21.344-21.328z" fill="#FFCE54" /><path d="M746.646 643.18c0 129.59-105.058 234.652-234.65 234.652-129.606 0-234.666-105.062-234.666-234.652 0-129.59 105.06-234.652 234.666-234.652 129.592 0 234.65 105.06 234.65 234.652z" fill="#FFFFFF" /><path d="M511.996 899.174c-141.152 0-255.992-114.842-255.992-255.994 0-141.154 114.84-255.994 255.992-255.994 141.154 0 255.994 114.84 255.994 255.994 0 141.152-114.84 255.994-255.994 255.994z m0-469.318c-117.636 0-213.322 95.702-213.322 213.324 0 117.624 95.686 213.308 213.322 213.308 117.624 0 213.34-95.686 213.34-213.308 0-117.622-95.716-213.324-213.34-213.324z"  /><path d="M746.646 643.18c0 129.59-105.058 234.652-234.65 234.652-129.606 0-234.666-105.062-234.666-234.652 0-129.59 105.06-234.652 234.666-234.652 129.592 0 234.65 105.06 234.65 234.652z" fill="#E6E9ED" /><path d="M511.996 899.174c-141.152 0-255.992-114.842-255.992-255.994 0-141.154 114.84-255.994 255.992-255.994 141.154 0 255.994 114.84 255.994 255.994 0 141.152-114.84 255.994-255.994 255.994z m0-469.318c-117.636 0-213.322 95.702-213.322 213.324 0 117.624 95.686 213.308 213.322 213.308 117.624 0 213.34-95.686 213.34-213.308 0-117.622-95.716-213.324-213.34-213.324z" fill="#DA4453" /><path d="M469.326 259.188H256.004c-11.782 0-21.328 9.562-21.328 21.344v170.652c0 11.78 9.546 21.342 21.328 21.342h213.322c11.782 0 21.328-9.562 21.328-21.342v-170.652c0-11.782-9.546-21.344-21.328-21.344zM767.99 259.188H554.652c-11.782 0-21.328 9.562-21.328 21.344v170.652c0 11.78 9.546 21.342 21.328 21.342h213.338c11.782 0 21.344-9.562 21.344-21.342v-170.652c0-11.782-9.562-21.344-21.344-21.344z" fill="#ED5564" /><path d="M362.672 408.528c-11.782 0-21.344-9.562-21.344-21.342v-42.656c0-11.782 9.562-21.344 21.344-21.344S384 332.75 384 344.53v42.656c0 11.78-9.546 21.342-21.328 21.342zM661.338 408.528c-11.782 0-21.344-9.562-21.344-21.342v-42.656c0-11.782 9.562-21.344 21.344-21.344s21.312 9.562 21.312 21.344v42.656c0 11.78-9.53 21.342-21.312 21.342z" fill="#434A54" /><path d="M725.336 899.174a21.326 21.326 0 0 1-16.656-8c-7.376-9.218-5.876-22.624 3.312-29.998l106.686-85.344c9.188-7.344 22.624-5.844 29.966 3.344 7.376 9.188 5.876 22.624-3.342 30l-106.656 85.31a21.18 21.18 0 0 1-13.31 4.688z" fill="#E6E9ED" /><path d="M938.642 899.174c-4.688 0-9.376-1.532-13.312-4.688l-106.652-85.31c-9.218-7.376-10.718-20.812-3.344-30 7.344-9.188 20.782-10.688 29.968-3.344l106.684 85.344c9.188 7.376 10.688 20.78 3.312 29.998a21.28 21.28 0 0 1-16.656 8z" fill="#E6E9ED" /><path d="M213.332 600.526c-11.782 0-21.328-9.562-21.328-21.344v-127.998c0-11.782 9.546-21.328 21.328-21.328s21.344 9.546 21.344 21.328v127.998c0 11.78-9.562 21.344-21.344 21.344z" fill="#434A54" /><path d="M831.99 472.528c-11.782 0-21.344-9.562-21.344-21.342v-42.656c0-11.78 9.562-21.342 21.344-21.342s21.31 9.562 21.31 21.342v42.656c0 11.778-9.528 21.342-21.31 21.342z" fill="#434A54" /><path d="M653.87 609.276a21.292 21.292 0 0 0-17.218-14.5l-72.904-10.594-32.624-66.076a21.32 21.32 0 0 0-19.126-11.892 21.344 21.344 0 0 0-19.14 11.892l-32.592 66.076-72.92 10.594a21.33 21.33 0 0 0-11.828 36.374l52.764 51.438-12.454 72.624a21.288 21.288 0 0 0 8.484 20.842 21.312 21.312 0 0 0 22.468 1.624l65.216-34.28 65.216 34.28a21.178 21.178 0 0 0 9.938 2.468h0.062c11.75-0.032 21.282-9.562 21.282-21.342 0-1.624-0.188-3.218-0.532-4.718l-12.25-71.498 52.75-51.438a21.366 21.366 0 0 0 5.408-21.874z" fill="#FFCE54" /></svg>