<?xml version="1.0" standalone="no"?><!DOCTYPE svg PUBLIC "-//W3C//DTD SVG 1.1//EN" "http://www.w3.org/Graphics/SVG/1.1/DTD/svg11.dtd"><svg class="icon" width="128px" height="128.00px" viewBox="0 0 1024 1024" version="1.1" xmlns="http://www.w3.org/2000/svg"><path d="M512 1002.638c-66.248 0-130.496-12.968-190.978-38.56-58.418-24.718-110.902-60.094-155.962-105.152-45.06-45.06-80.45-97.53-105.152-155.964-25.592-60.466-38.56-124.746-38.56-190.962 0-66.248 12.968-130.526 38.56-190.994C84.61 262.572 120 210.104 165.06 165.044c45.06-45.062 97.542-80.436 155.962-105.154 60.482-25.592 124.73-38.56 190.978-38.56s130.496 12.968 190.994 38.56c58.402 24.718 110.872 60.092 155.932 105.154 45.058 45.06 80.464 97.528 105.184 155.962 25.56 60.466 38.56 124.746 38.56 190.994 0 66.216-13 130.496-38.56 190.962-24.718 58.434-60.124 110.902-105.184 155.962-45.06 45.058-97.53 80.434-155.932 105.152-60.498 25.594-124.746 38.562-190.994 38.562z" fill="#EC5564" /><path d="M512 0.02C229.246 0.02 0.02 229.23 0.02 512 0.02 794.74 229.246 1023.98 512 1023.98c282.74 0 511.98-229.24 511.98-511.98C1023.98 229.23 794.74 0.02 512 0.02z m331.864 843.812c-43.124 43.124-93.31 76.964-149.182 100.622-57.842 24.438-119.308 36.842-182.682 36.842s-124.838-12.404-182.666-36.842c-55.888-23.656-106.074-57.498-149.198-100.622-43.108-43.092-76.952-93.31-100.59-149.182C55.08 636.808 42.69 575.374 42.69 512c0-63.404 12.39-124.838 36.858-182.68 23.64-55.874 57.482-106.09 100.59-149.182 43.124-43.124 93.308-76.966 149.198-100.622C387.162 55.08 448.626 42.674 512 42.674s124.84 12.406 182.682 36.842c55.872 23.656 106.058 57.498 149.182 100.622 43.124 43.092 76.934 93.308 100.59 149.182 24.468 57.842 36.842 119.276 36.842 182.68 0 63.374-12.374 124.808-36.842 182.65-23.658 55.872-57.468 106.09-100.59 149.182z" fill="#D94452" /></svg>