<?xml version="1.0" standalone="no"?><!DOCTYPE svg PUBLIC "-//W3C//DTD SVG 1.1//EN" "http://www.w3.org/Graphics/SVG/1.1/DTD/svg11.dtd"><svg class="icon" width="128px" height="128.00px" viewBox="0 0 1024 1024" version="1.1" xmlns="http://www.w3.org/2000/svg"><path d="M21.332 21.362H1002.64v981.276H21.332z" fill="#FB6D51" /><path d="M0.02 0.02v1023.96h1023.96V0.02H0.02z m981.274 981.306H42.674V42.674h938.622v938.652z" fill="#E8563F" /><path d="M426.66 554.656c-23.53 0-42.656-19.124-42.656-42.656 0-23.53 19.124-42.654 42.656-42.654 23.53 0 42.654 19.124 42.654 42.654 0 23.532-19.124 42.656-42.654 42.656z" fill="#F4F6F9" /><path d="M426.66 448.002c-35.342 0-63.998 28.656-63.998 63.998 0 35.344 28.656 63.998 63.998 63.998s63.998-28.654 63.998-63.998c0-35.342-28.656-63.998-63.998-63.998z m0 85.342c-11.782 0-21.344-9.594-21.344-21.344 0-11.75 9.562-21.342 21.344-21.342 11.75 0 21.342 9.594 21.342 21.342 0 11.75-9.592 21.344-21.342 21.344z" fill="#E5E8EC" /><path d="M597.31 554.656c-23.532 0-42.654-19.124-42.654-42.656 0-23.53 19.124-42.654 42.654-42.654 23.53 0 42.686 19.124 42.686 42.654 0 23.532-19.156 42.656-42.686 42.656z" fill="#F4F6F9" /><path d="M597.31 448.002c-35.342 0-63.998 28.656-63.998 63.998 0 35.344 28.656 63.998 63.998 63.998s63.996-28.654 63.996-63.998c0-35.342-28.654-63.998-63.996-63.998z m0 85.342c-11.75 0-21.312-9.594-21.312-21.344 0-11.75 9.562-21.342 21.312-21.342 11.78 0 21.342 9.594 21.342 21.342 0 11.75-9.562 21.344-21.342 21.344z" fill="#E5E8EC" /><path d="M512 42.674C252.792 42.674 42.674 252.792 42.674 512S252.792 981.326 512 981.326c259.178 0 469.294-210.118 469.294-469.326S771.178 42.674 512 42.674z m301.678 771.004c-39.188 39.216-84.842 69.964-135.622 91.462-52.592 22.25-108.462 33.5-166.056 33.5-57.624 0-113.496-11.25-166.088-33.5-50.778-21.498-96.434-52.246-135.62-91.462-39.186-39.188-69.966-84.81-91.434-135.622-22.248-52.56-33.53-108.432-33.53-166.056 0-57.624 11.282-113.496 33.53-166.056 21.468-50.81 52.248-96.434 91.434-135.62 39.186-39.216 84.842-69.966 135.62-91.464C398.504 96.61 454.376 85.36 512 85.36c57.594 0 113.464 11.25 166.056 33.5 50.78 21.5 96.434 52.248 135.622 91.464 39.186 39.186 69.964 84.81 91.432 135.62 22.25 52.56 33.53 108.432 33.53 166.056 0 57.624-11.282 113.496-33.532 166.056-21.466 50.812-52.244 96.434-91.43 135.622z" fill="#E8563F" /></svg>