<?xml version="1.0" standalone="no"?><!DOCTYPE svg PUBLIC "-//W3C//DTD SVG 1.1//EN" "http://www.w3.org/Graphics/SVG/1.1/DTD/svg11.dtd"><svg class="icon" width="128px" height="128.00px" viewBox="0 0 1024 1024" version="1.1" xmlns="http://www.w3.org/2000/svg"><path d="M21.332 21.362H1002.64v981.308H21.332z" fill="#EC5564" /><path d="M0.02 0.02v1023.96h1023.96V0.02H0.02z m981.274 981.306H42.674V42.706h938.622v938.62z" fill="#D94452" /><path d="M341.318 554.688c-23.53 0-42.654-19.156-42.654-42.688 0-23.5 19.124-42.654 42.654-42.654 23.532 0 42.686 19.156 42.686 42.654 0 23.532-19.154 42.688-42.686 42.688z" fill="#F4F6F9" /><path d="M341.318 448.002c-35.342 0-63.998 28.656-63.998 63.998 0 35.376 28.656 63.998 63.998 63.998s63.998-28.624 63.998-63.998c0-35.342-28.654-63.998-63.998-63.998z m0 85.342c-11.75 0-21.312-9.562-21.312-21.344 0-11.75 9.562-21.312 21.312-21.312 11.782 0 21.344 9.562 21.344 21.312 0 11.782-9.562 21.344-21.344 21.344z" fill="#E5E8EC" /><path d="M512 554.688c-23.53 0-42.686-19.156-42.686-42.688 0-23.5 19.156-42.654 42.686-42.654 23.5 0 42.656 19.156 42.656 42.654 0 23.532-19.156 42.688-42.656 42.688z" fill="#F4F6F9" /><path d="M512 448.002c-35.374 0-63.998 28.656-63.998 63.998 0 35.376 28.624 63.998 63.998 63.998 35.344 0 63.998-28.624 63.998-63.998 0-35.342-28.654-63.998-63.998-63.998z m0 85.342c-11.78 0-21.342-9.562-21.342-21.344 0-11.75 9.562-21.312 21.342-21.312 11.75 0 21.312 9.562 21.312 21.312 0 11.782-9.562 21.344-21.312 21.344z" fill="#E5E8EC" /><path d="M682.65 554.688c-23.532 0-42.654-19.156-42.654-42.688 0-23.5 19.124-42.654 42.654-42.654s42.654 19.156 42.654 42.654c0 23.532-19.122 42.688-42.654 42.688z" fill="#F4F6F9" /><path d="M682.65 448.002c-35.344 0-63.998 28.656-63.998 63.998 0 35.376 28.654 63.998 63.998 63.998 35.342 0 63.996-28.624 63.996-63.998 0-35.342-28.654-63.998-63.996-63.998z m0 85.342c-11.782 0-21.344-9.562-21.344-21.344 0-11.75 9.562-21.312 21.344-21.312 11.75 0 21.344 9.562 21.344 21.312 0 11.782-9.594 21.344-21.344 21.344z" fill="#E5E8EC" /><path d="M512 42.706C252.792 42.706 42.674 252.822 42.674 512c0 259.208 210.118 469.326 469.326 469.326 259.178 0 469.294-210.118 469.294-469.326 0-259.178-210.116-469.294-469.294-469.294z m301.678 771.002c-39.188 39.186-84.842 69.964-135.622 91.432-52.592 22.25-108.462 33.532-166.056 33.532-57.624 0-113.496-11.282-166.088-33.532-50.778-21.466-96.402-52.246-135.62-91.432-39.186-39.218-69.966-84.842-91.434-135.622C96.61 625.496 85.328 569.624 85.328 512c0-57.592 11.282-113.464 33.53-166.056 21.468-50.778 52.248-96.434 91.434-135.62 39.218-39.186 84.842-69.966 135.62-91.434C398.504 96.64 454.376 85.36 512 85.36c57.594 0 113.464 11.282 166.056 33.53 50.78 21.468 96.434 52.248 135.622 91.434 39.186 39.186 69.964 84.842 91.432 135.62C927.36 398.536 938.64 454.408 938.64 512c0 57.624-11.282 113.496-33.532 166.088-21.466 50.78-52.244 96.402-91.43 135.62z" fill="#D94452" /></svg>