<?xml version="1.0" standalone="no"?><!DOCTYPE svg PUBLIC "-//W3C//DTD SVG 1.1//EN" "http://www.w3.org/Graphics/SVG/1.1/DTD/svg11.dtd"><svg class="icon" width="128px" height="128.00px" viewBox="0 0 1024 1024" version="1.1" xmlns="http://www.w3.org/2000/svg"><path d="M21.362 21.362h981.308v981.276H21.362z" fill="#FECD57" /><path d="M0.02 0.02v1023.96h1023.96V0.02H0.02z m981.306 981.306H42.706V42.674h938.622v938.652z" fill="#F5BA45" /><path d="M512 554.656c-23.5 0-42.654-19.124-42.654-42.656 0-23.53 19.156-42.654 42.654-42.654 23.562 0 42.688 19.124 42.688 42.654 0 23.532-19.126 42.656-42.688 42.656z" fill="#F4F6F9" /><path d="M512 448.002c-35.312 0-63.998 28.656-63.998 63.998 0 35.344 28.686 63.998 63.998 63.998 35.376 0 63.998-28.654 63.998-63.998 0-35.342-28.622-63.998-63.998-63.998z m0 85.342c-11.75 0-21.312-9.594-21.312-21.344 0-11.75 9.562-21.342 21.312-21.342 11.782 0 21.344 9.594 21.344 21.342 0 11.75-9.562 21.344-21.344 21.344z" fill="#E5E8EC" /><path d="M512 42.674C252.822 42.674 42.706 252.792 42.706 512S252.822 981.326 512 981.326c259.208 0 469.326-210.118 469.326-469.326S771.208 42.674 512 42.674z m301.708 771.004c-39.218 39.216-84.842 69.964-135.652 91.462-52.56 22.25-108.432 33.5-166.056 33.5-57.624 0-113.464-11.25-166.056-33.5-50.778-21.498-96.434-52.246-135.62-91.462-39.186-39.188-69.966-84.81-91.434-135.622C96.64 625.496 85.36 569.624 85.36 512c0-57.624 11.282-113.496 33.53-166.056 21.468-50.81 52.248-96.434 91.434-135.62 39.186-39.216 84.842-69.966 135.62-91.464C398.536 96.61 454.376 85.36 512 85.36c57.624 0 113.496 11.25 166.056 33.5 50.81 21.5 96.434 52.248 135.652 91.464 39.186 39.186 69.964 84.81 91.462 135.62 22.218 52.562 33.5 108.434 33.5 166.056 0 57.624-11.282 113.496-33.5 166.056-21.496 50.812-52.276 96.434-91.462 135.622z" fill="#F5BA45" /></svg>