<?xml version="1.0" standalone="no"?><!DOCTYPE svg PUBLIC "-//W3C//DTD SVG 1.1//EN" "http://www.w3.org/Graphics/SVG/1.1/DTD/svg11.dtd"><svg class="icon" width="128px" height="128.00px" viewBox="0 0 1024 1024" version="1.1" xmlns="http://www.w3.org/2000/svg"><path d="M448 53.354H192.006c-35.312 0-63.998 28.718-63.998 63.998v191.996c0 35.312 23.906 63.998 53.31 63.998 29.406 0 53.342-28.686 53.342-63.998V181.352c0-11.75 9.562-21.312 21.344-21.312h127.998c11.75 0 21.312 9.562 21.312 21.312v127.998c0 35.312 23.936 63.998 53.342 63.998s53.342-28.686 53.342-63.998V117.352C512 82.074 483.282 53.354 448 53.354z" fill="#434A54" /><path d="M546.248 317.754c-60.436-60.436-140.778-93.716-226.244-93.716-85.498 0-165.84 33.282-226.276 93.716C33.292 378.19 0.012 458.532 0.012 544.032c0 56.156 14.75 111.434 42.686 159.808 27.092 46.906 65.966 86.464 112.372 114.434 3.344 2 7.124 3.062 11.032 3.062h307.774a21.42 21.42 0 0 0 11.032-3.062c46.404-27.968 85.28-67.528 112.374-114.434C625.22 655.464 640 600.188 640 544.032c-0.002-85.5-33.314-165.842-93.752-226.278z" fill="#656D78" /><path d="M1002.644 693.34H234.662c-11.782 0-21.342 9.532-21.342 21.312v85.34c0 11.782 9.562 21.344 21.342 21.344h767.982c11.782 0 21.344-9.562 21.344-21.344v-85.34c0-11.78-9.562-21.312-21.344-21.312z" fill="#CCD1D9" /><path d="M362.66 607.996c-35.28 0-63.998 28.718-63.998 64v170.652c0 35.312 28.718 64 63.998 64s64-28.688 64-64v-170.652c-0.002-35.282-28.72-64-64-64z" fill="#DA4453" /><path d="M469.314 544c-35.282 0-64 28.718-64 63.996v298.652c0 35.308 28.718 63.996 64 63.996 35.28 0 63.998-28.688 63.998-63.996V607.996C533.31 572.718 504.594 544 469.314 544z" fill="#ED5564" /><path d="M874.646 607.996c-35.28 0-63.996 28.718-63.996 64v170.652c0 35.312 28.716 64 63.996 64 35.282 0 64-28.688 64-64v-170.652c0-35.282-28.718-64-64-64z" fill="#DA4453" /><path d="M767.962 544c-35.282 0-64 28.718-64 63.996v298.652c0 35.308 28.718 63.996 64 63.996 35.312 0 63.998-28.688 63.998-63.996V607.996c0-35.278-28.684-63.996-63.998-63.996z" fill="#ED5564" /><path d="M1023.988 735.996a21.3 21.3 0 0 0-15.094 6.25c-8.344 8.344-8.344 21.844 0 30.152 4.156 4.188 9.624 6.25 15.094 6.25v-42.652zM213.32 735.996v42.652c5.468 0 10.936-2.062 15.092-6.25 8.312-8.308 8.312-21.808 0-30.152a21.294 21.294 0 0 0-15.092-6.25z" fill="#AAB2BC" /></svg>