<?xml version="1.0" standalone="no"?><!DOCTYPE svg PUBLIC "-//W3C//DTD SVG 1.1//EN" "http://www.w3.org/Graphics/SVG/1.1/DTD/svg11.dtd"><svg class="icon" width="128px" height="128.00px" viewBox="0 0 1024 1024" version="1.1" xmlns="http://www.w3.org/2000/svg"><path d="M170.668 874.642m-63.998 0a63.998 63.998 0 1 0 127.996 0 63.998 63.998 0 1 0-127.996 0Z" fill="#656D78" /><path d="M170.668 959.982c-47.06 0-85.34-38.282-85.34-85.34 0-47.028 38.28-85.308 85.34-85.308 47.03 0 85.34 38.282 85.34 85.308 0.002 47.06-38.308 85.34-85.34 85.34z m0-127.992c-23.53 0-42.654 19.122-42.654 42.652s19.124 42.688 42.654 42.688c23.532 0 42.656-19.156 42.656-42.688s-19.124-42.652-42.656-42.652z" fill="#434A54" /><path d="M853.3 874.642m-63.998 0a63.998 63.998 0 1 0 127.996 0 63.998 63.998 0 1 0-127.996 0Z" fill="#656D78" /><path d="M853.3 959.982c-47.06 0-85.31-38.282-85.31-85.34 0-47.028 38.25-85.308 85.31-85.308 47.058 0 85.34 38.282 85.34 85.308 0 47.06-38.28 85.34-85.34 85.34z m0-127.992c-23.532 0-42.654 19.122-42.654 42.652s19.124 42.688 42.654 42.688c23.528 0 42.684-19.156 42.684-42.688s-19.156-42.652-42.684-42.652zM155.576 859.58c-8.312 8.312-8.312 21.812 0 30.156a21.33 21.33 0 0 0 30.186 0c8.312-8.344 8.312-21.844 0-30.156a21.33 21.33 0 0 0-30.186 0z" fill="#434A54" /><path d="M868.39 859.58c8.344 8.312 8.344 21.812 0 30.156s-21.84 8.344-30.184 0c-8.312-8.344-8.312-21.844 0-30.156a21.328 21.328 0 0 1 30.184 0z" fill="#434A54" /><path d="M256.01 767.99H149.326c-11.782 0-21.312 9.562-21.312 21.344v63.996a21.298 21.298 0 0 0 21.312 21.312h42.686c5.656 0 11.062-2.25 15.062-6.25l63.998-63.996a21.326 21.326 0 0 0-15.062-36.406zM874.64 767.99h-106.65c-8.656 0-16.438 5.188-19.718 13.156a21.332 21.332 0 0 0 4.624 23.25l64 63.996c4 4 9.404 6.25 15.092 6.25h42.652c11.782 0 21.344-9.532 21.344-21.312v-63.996c0-11.782-9.562-21.344-21.344-21.344z" fill="#AAB2BC" /><path d="M959.982 213.356H64.018c-11.812 0-21.344 9.532-21.344 21.312v554.666c0 11.782 9.532 21.312 21.344 21.312h895.964c11.75 0 21.312-9.532 21.312-21.312V234.666c0-11.78-9.562-21.31-21.312-21.31z" fill="#967ADC" /><path d="M810.646 277.352c-11.782 0-21.344-9.562-21.344-21.342v-21.342c0-11.78 9.562-21.312 21.344-21.312s21.31 9.532 21.31 21.312v21.342c0.002 11.782-9.528 21.342-21.31 21.342zM895.984 277.352a21.332 21.332 0 0 1-21.344-21.342v-21.342c0-11.78 9.532-21.312 21.344-21.312 11.75 0 21.312 9.532 21.312 21.312v21.342c0 11.782-9.562 21.342-21.312 21.342zM725.302 277.352c-11.78 0-21.342-9.562-21.342-21.342v-21.342c0-11.78 9.562-21.312 21.342-21.312 11.782 0 21.344 9.532 21.344 21.312v21.342c0 11.782-9.562 21.342-21.344 21.342zM639.994 277.352c-11.812 0-21.342-9.562-21.342-21.342v-21.342c0-11.78 9.53-21.312 21.342-21.312 11.75 0 21.312 9.532 21.312 21.312v21.342c0 11.782-9.562 21.342-21.312 21.342zM554.656 277.352c-11.782 0-21.344-9.562-21.344-21.342v-21.342c0-11.78 9.562-21.312 21.344-21.312 11.78 0 21.342 9.532 21.342 21.312v21.342c0 11.782-9.562 21.342-21.342 21.342zM469.314 277.352c-11.78 0-21.342-9.562-21.342-21.342v-21.342c0-11.78 9.562-21.312 21.342-21.312 11.782 0 21.344 9.532 21.344 21.312v21.342c0 11.782-9.564 21.342-21.344 21.342zM384.004 277.352a21.332 21.332 0 0 1-21.344-21.342v-21.342c0-11.78 9.532-21.312 21.344-21.312a21.3 21.3 0 0 1 21.312 21.312v21.342c0 11.782-9.53 21.342-21.312 21.342zM298.664 277.352c-11.78 0-21.342-9.562-21.342-21.342v-21.342c0-11.78 9.562-21.312 21.342-21.312 11.782 0 21.344 9.532 21.344 21.312v21.342c0 11.782-9.562 21.342-21.344 21.342zM213.324 277.352c-11.782 0-21.312-9.562-21.312-21.342v-21.342c0-11.78 9.53-21.312 21.312-21.312s21.342 9.532 21.342 21.312v21.342c0 11.782-9.56 21.342-21.342 21.342zM128.014 277.352c-11.812 0-21.342-9.562-21.342-21.342v-21.342c0-11.78 9.532-21.312 21.342-21.312a21.3 21.3 0 0 1 21.312 21.312v21.342c0 11.782-9.532 21.342-21.312 21.342z" fill="#080808" opacity=".1" /><path d="M917.296 64.018H106.672c-11.78 0-21.342 9.562-21.342 21.342v63.998c0 11.782 9.562 21.312 21.342 21.312h810.624c11.782 0 21.344-9.532 21.344-21.312V85.36c0-11.78-9.562-21.342-21.344-21.342z" fill="#656D78" /><path d="M639.994 149.358H384.004a21.332 21.332 0 0 1-21.344-21.342c0-11.78 9.532-21.342 21.344-21.342h255.99c11.75 0 21.312 9.562 21.312 21.342 0 11.778-9.562 21.342-21.312 21.342z" fill="#434A54" /><path d="M192.012 639.994c-11.812 0-21.344 9.562-21.344 21.344v149.308h42.656v-149.308c0-11.782-9.562-21.344-21.312-21.344zM831.988 639.994c-11.81 0-21.342 9.562-21.342 21.344v149.308h42.654v-149.308c0-11.782-9.562-21.344-21.312-21.344z" fill="#080808" opacity=".1" /><path d="M1002.636 128.014H21.332C9.55 128.014 0.02 137.576 0.02 149.356v85.31c0 11.782 9.53 21.342 21.312 21.342h981.306c11.782 0 21.344-9.562 21.344-21.342V149.358c-0.002-11.782-9.564-21.344-21.346-21.344z" fill="#AC92EB" /></svg>