<?xml version="1.0" standalone="no"?><!DOCTYPE svg PUBLIC "-//W3C//DTD SVG 1.1//EN" "http://www.w3.org/Graphics/SVG/1.1/DTD/svg11.dtd"><svg class="icon" width="128px" height="128.00px" viewBox="0 0 1024 1024" version="1.1" xmlns="http://www.w3.org/2000/svg"><path d="M906.663229 192.011625a21.353958 21.353958 0 0 1-19.093963-11.779977l-36.777928-73.559856h-114.809775c-11.781977 0-21.341958-9.531981-21.341959-21.311959s9.559981-21.341958 21.341959-21.341958h127.99375c8.093984 0 15.46797 4.561991 19.093962 11.779977l42.655917 85.339833c5.28199 10.531979 0.999998 23.343954-9.531981 28.623944a21.239959 21.239959 0 0 1-9.529982 2.249996zM522.647979 0.02H352.000312c-11.781977 0-21.341958 9.559981-21.341958 21.341958V85.359833c0 11.781977 9.561981 21.311958 21.341958 21.311959h170.649667c11.811977 0 21.343958-9.531981 21.343959-21.311959V21.361958C543.991938 9.579981 534.459956 0.02 522.647979 0.02z" fill="#434A54" /><path d="M757.325521 149.355708H117.352771c-11.781977 0-21.341958 9.531981-21.341959 21.311959v85.339833c0 3.311994 0.781998 6.561987 2.249996 9.531981l83.089838 166.149676v357.641301c0 2.343995 0.25 58.091887 22.841955 114.589777 31.435939 78.529847 89.903824 120.057766 169.14967 120.057765h383.98325c11.781977 0 21.311958-9.561981 21.311958-21.343958V170.667667a21.299958 21.299958 0 0 0-21.311958-21.311959z" fill="#37BC9B" /><path d="M650.641729 895.98225c0-58.901885 47.779907-106.651792 106.683792-106.651792 58.905885 0 106.649792 47.749907 106.649792 106.651792 0 58.903885-47.743907 106.651792-106.649792 106.651792-58.903885 0-106.683792-47.747907-106.683792-106.651792z" fill="#656D78" /><path d="M757.325521 1023.978c-70.589862 0-127.99575-57.403888-127.99575-127.99575 0-70.589862 57.405888-127.99375 127.99575-127.99375 70.559862 0 127.99375 57.403888 127.99375 127.99375 0 70.591862-57.433888 127.99575-127.99375 127.99575z m0-213.335583c-47.059908 0-85.339833 38.279925-85.339833 85.339833s38.279925 85.341833 85.339833 85.341833c47.061908 0 85.309833-38.281925 85.309833-85.341833s-38.247925-85.339833-85.309833-85.339833z" fill="#434A54" /><path d="M757.325521 64.015875H117.352771c-11.781977 0-21.341958 9.561981-21.341959 21.341958v85.309834c0 11.781977 9.561981 21.341958 21.341959 21.341958h639.97275c11.781977 0 21.311958-9.561981 21.311958-21.341958V85.359833c0-11.781977-9.529981-21.343958-21.311958-21.343958z" fill="#48CFAD" /><path d="M246.878518 903.920235c-22.623956-56.49789-22.873955-112.245781-22.873956-114.589777V431.689157l-83.059837-166.149676a21.091959 21.091959 0 0 1-2.281996-9.531981V85.359833c0-11.781977 9.561981-21.341958 21.343958-21.341958H117.352771c-11.781977 0-21.341958 9.561981-21.341959 21.341958v170.649667c0 3.311994 0.781998 6.561987 2.249996 9.531981l83.089838 166.149676v357.641301c0 2.343995 0.25 58.091887 22.841955 114.589777 31.435939 78.529847 89.903824 120.057766 169.14967 120.057765h42.655917c-79.215845-0.002-137.713731-41.529919-169.11967-120.059765z" fill="#FFFFFF" opacity=".2" /><path d="M772.419491 880.88828c8.311984 8.343984 8.311984 21.843957 0 30.187941-8.343984 8.309984-21.843957 8.309984-30.187941 0a21.331958 21.331958 0 0 1 0-30.187941c8.343984-8.311984 21.843957-8.311984 30.187941 0z" fill="#AAB2BC" /></svg>