<?xml version="1.0" standalone="no"?><!DOCTYPE svg PUBLIC "-//W3C//DTD SVG 1.1//EN" "http://www.w3.org/Graphics/SVG/1.1/DTD/svg11.dtd"><svg class="icon" width="128px" height="128.00px" viewBox="0 0 1024 1024" version="1.1" xmlns="http://www.w3.org/2000/svg"><path d="M568.714 597.308h-85.358c-11.782 0-21.328 9.562-21.328 21.344v341.33c0 35.28 28.704 63.998 64 63.998 35.31 0 63.998-28.718 63.998-63.998V618.652c0.002-11.78-9.53-21.344-21.312-21.344z m-27.606 356.424c-8.328 8.312-21.828 8.312-30.156 0a21.332 21.332 0 0 1 0-30.188c8.328-8.31 21.828-8.31 30.156 0a21.306 21.306 0 0 1 0 30.188z" fill="#967ADC" /><path d="M762.958 66.33S616.62 108.642 525.546 277.664c-131.542 244.146-35.782 295.74-35.782 295.74s88.576 64.964 227.29-192.556c9.966-18.468 18.436-36.218 25.654-53.216 70.062-165.244 20.25-261.302 20.25-261.302z" fill="#CCD1D9" /><path d="M781.894 56.486l-0.032-0.032c-0.124-0.218-0.25-0.468-0.406-0.688-0.188-0.344-0.376-0.688-0.562-1-0.156-0.25-0.344-0.5-0.532-0.75-0.188-0.282-0.406-0.562-0.624-0.844-0.188-0.25-0.376-0.468-0.562-0.688-0.25-0.282-0.468-0.562-0.718-0.812-0.218-0.218-0.406-0.438-0.624-0.624a18.8 18.8 0 0 0-0.844-0.782l-0.624-0.532a21.914 21.914 0 0 0-1.032-0.782 54.934 54.934 0 0 1-0.562-0.376c-0.5-0.344-1.032-0.656-1.562-0.968-0.062-0.032-0.094-0.062-0.124-0.062s-0.032-0.032-0.032-0.032a34.032 34.032 0 0 0-1.844-0.876 3.968 3.968 0 0 1-0.562-0.218c-0.438-0.156-0.844-0.312-1.282-0.438-0.25-0.094-0.532-0.156-0.782-0.218a8.492 8.492 0 0 0-1.094-0.282 32.414 32.414 0 0 1-0.876-0.188c-0.376-0.062-0.718-0.094-1.094-0.156l-0.844-0.094c-0.406-0.032-0.812-0.032-1.188-0.032-0.25 0-0.5-0.032-0.75-0.032-0.5 0-0.968 0.032-1.468 0.094-0.156 0-0.312 0-0.468 0.032-0.656 0.062-1.312 0.156-1.968 0.282-0.124 0.032-0.218 0.062-0.344 0.094-0.5 0.094-0.968 0.188-1.468 0.344-0.032 0-0.094 0.032-0.188 0.062-3.344 0.968-41.31 12.592-90.184 44.904-45.81 30.28-110.744 85.528-159.884 176.744-56.874 105.558-80.246 190.744-69.452 253.176 8.266 47.876 34.202 66.532 40.998 70.688 4.454 2.938 18.14 10.624 39.89 10.624 29.454 0 60.544-13.716 92.386-40.81 41.06-34.876 83.184-92.154 125.244-170.276 9.906-18.342 18.812-36.842 26.5-54.966 73.154-172.522 21.782-275.174 19.562-279.486zM723.052 319.32c-7.156 16.906-15.5 34.216-24.782 51.404-91.714 170.274-156.492 188.65-180.07 188.65-9.328 0-14.766-2.688-16.078-3.406-0.89-0.718-1.046-0.718-2.234-1.344-0.156-0.094-15.14-9.938-20.546-41.186-6.266-36.282-0.078-104.904 65-225.68 44.53-82.684 103.088-132.87 144.338-160.37a393.146 393.146 0 0 1 25.624-15.748l-212.96 395.296c-5.594 10.374-1.718 23.31 8.656 28.904a21.416 21.416 0 0 0 10.11 2.532c7.594 0 14.938-4.062 18.796-11.218l217.584-403.86c5.592 40.968 4.06 107.622-33.438 196.026z" fill="#AAB2BC" /><path d="M289.116 69.486s146.338 42.312 237.398 211.334c131.542 244.146 35.794 295.74 35.794 295.74s-88.576 64.964-227.32-192.556c-9.936-18.436-18.42-36.186-25.624-53.184-70.074-165.276-20.248-261.334-20.248-261.334z" fill="#CCD1D9" /><path d="M545.31 270.696c-49.156-91.214-114.076-146.432-159.886-176.71-50.108-33.124-88.778-44.53-90.386-44.998-0.516-0.124-1.032-0.25-1.546-0.344-0.094-0.032-0.172-0.062-0.266-0.062a13.66 13.66 0 0 0-1.954-0.312c-0.156 0-0.296 0-0.438-0.032a24.506 24.506 0 0 0-1.516-0.062h-0.718c-0.406 0.032-0.812 0.032-1.218 0.062l-0.828 0.094c-0.376 0.032-0.734 0.094-1.11 0.156-0.282 0.062-0.562 0.094-0.86 0.156l-1.094 0.282c-0.266 0.094-0.532 0.156-0.796 0.218-0.422 0.156-0.844 0.312-1.25 0.468a3.76 3.76 0 0 0-0.594 0.218 21.78 21.78 0 0 0-1.844 0.876h-0.016l-0.14 0.094a18.036 18.036 0 0 0-1.562 0.938c-0.188 0.124-0.376 0.282-0.562 0.406-0.344 0.25-0.688 0.5-1.016 0.782-0.218 0.156-0.422 0.344-0.64 0.532-0.282 0.25-0.562 0.5-0.828 0.75-0.218 0.218-0.422 0.436-0.624 0.624-0.25 0.282-0.484 0.532-0.718 0.812-0.188 0.218-0.39 0.468-0.578 0.688-0.218 0.282-0.422 0.594-0.624 0.876-0.172 0.25-0.36 0.5-0.516 0.75-0.204 0.312-0.39 0.656-0.578 0.968-0.14 0.25-0.282 0.468-0.406 0.718-0.016 0-0.016 0.032-0.016 0.032-2.234 4.282-53.606 106.964 19.546 279.458 7.688 18.156 16.61 36.656 26.484 54.998 42.076 78.09 84.214 135.37 125.26 170.244 31.858 27.094 62.952 40.842 92.388 40.842 21.766 0 35.452-7.688 39.888-10.654 6.812-4.124 32.748-22.812 40.998-70.688 10.81-62.438-12.564-147.622-69.436-253.18z m28.218 240.428c-4.218 33.56-19.216 45.154-21.624 46.78-1.312 0.594-0.906 0.344-1.968 1.25-1.344 0.75-6.796 3.376-16.078 3.376-23.594 0-88.358-18.376-180.088-188.65-9.25-17.188-17.594-34.468-24.766-51.404-33.904-79.966-37.748-141.932-34.998-179.838 0.422-5.688 0.984-11 1.672-16l217.476 403.704a21.328 21.328 0 0 0 18.796 11.218c3.422 0 6.89-0.812 10.11-2.562 10.376-5.594 14.25-18.532 8.656-28.904L337.77 114.828c48.092 27.216 118.356 80.308 169.962 176.118 62.64 116.244 70.358 183.898 65.796 220.178z" fill="#AAB2BC" /><path d="M120.714 256.008s299.194 0 384.518 234.648c94.792 260.616 0 127.996 0 127.996L120.714 256.008z" fill="#E6E9ED" /><path d="M903.294 256.008s-291.926 0-377.266 234.648c-94.78 260.616 0 127.996 0 127.996l377.266-362.644z" fill="#E6E9ED" /><path d="M525.294 483.376c-20.796-57.184-55.296-105.902-102.574-144.838-37.406-30.842-82.78-55.53-134.824-73.404-87.824-30.124-163.994-30.468-167.182-30.468a21.328 21.328 0 0 0-19.826 13.468 21.288 21.288 0 0 0 5.188 23.374l383.094 361.298c2.328 3.156 7.516 10 13.64 16.874 14.968 16.844 26.422 24.032 38.282 24.032 8.718 0 16.562-4.094 21.592-11.25 9.624-13.752 14-37.78-37.39-179.086z m-273.49-184.9c6.75 8.562 17.466 25.936 16.436 42.466-0.406 6.53-2.656 12.656-6.764 18.5L180.228 282.82c20.672 3.094 45.314 8 71.576 15.656z m40.842 90.34c10.922-13.5 17.156-28.842 18.172-45.248 0.546-8.624-0.376-16.874-2.156-24.624 33.044 14.438 62.356 32.186 87.464 52.936 41.03 33.966 70.996 76.374 89.058 126.058 18.218 50.124 28.422 83.06 34.078 104.622L292.646 388.816z" fill="#CCD1D9" /><path d="M923.076 248.01a21.34 21.34 0 0 0-19.782-13.344c-3.124 0-77.622 0.344-163.682 30.53-50.996 17.874-95.528 42.592-132.338 73.434-46.436 38.936-80.528 87.622-101.292 144.744-51.388 141.276-46.998 165.336-37.39 179.086 5.016 7.156 12.876 11.25 21.578 11.25h0.016c11.86 0 23.296-7.188 38.266-24.032 6.188-6.936 11.422-13.842 13.704-16.936l233.396-224.366 0.032-0.032 142.494-136.964a21.352 21.352 0 0 0 4.998-23.37zM511.998 602.528c5.672-21.56 15.86-54.498 34.094-104.59 18.06-49.716 47.714-92.154 88.056-126.152 20.75-17.468 44.438-32.812 70.716-45.842-0.438 18.342 4.282 42.936 25.124 67.06L511.998 602.528z m248.834-239.18c-9.062-11.188-13.562-23.28-13.312-36.124 0.156-9.282 2.718-16.936 4.5-21.156 0.156-0.062 0.344-0.124 0.5-0.188 33.812-11.968 66.062-18.906 91.966-22.968l-83.654 80.436z" fill="#CCD1D9" /><path d="M526.03 21.33s-127.996 106.684-127.996 298.676c0 277.302 127.996 277.302 127.996 277.302s127.994 15.188 127.994-277.302c0-20.968-1.094-40.624-3.124-58.998-19.658-178.742-124.87-239.678-124.87-239.678z" fill="#F5F7FA" /><path d="M674.148 367.724a899.24 899.24 0 0 0 1.218-47.716c0-21-1.094-41.624-3.282-61.342-20.56-187.306-130.68-253.084-135.368-255.802-0.078-0.032-0.172-0.062-0.25-0.124a41.104 41.104 0 0 0-0.734-0.376c-0.312-0.156-0.624-0.312-0.954-0.468-0.25-0.124-0.516-0.218-0.782-0.344-0.344-0.124-0.704-0.25-1.062-0.376-0.234-0.094-0.468-0.188-0.704-0.25-0.578-0.188-1.156-0.312-1.734-0.438a4.73 4.73 0 0 0-0.656-0.124c-0.422-0.062-0.844-0.156-1.282-0.188-0.218-0.032-0.454-0.062-0.688-0.094-0.5-0.032-1-0.062-1.5-0.062H525.916c-0.624 0-1.25 0.032-1.876 0.094-0.234 0-0.454 0.032-0.672 0.062-0.406 0.062-0.812 0.124-1.204 0.188-0.282 0.062-0.532 0.094-0.796 0.156-0.376 0.094-0.75 0.188-1.11 0.282a6.376 6.376 0 0 1-0.734 0.218 35.38 35.38 0 0 0-1.624 0.594c-0.234 0.094-0.468 0.218-0.704 0.312a11.652 11.652 0 0 0-1 0.5 13.352 13.352 0 0 0-0.704 0.376c-0.328 0.188-0.656 0.376-0.984 0.594a6.72 6.72 0 0 0-0.61 0.406c-0.39 0.25-0.766 0.562-1.14 0.844-0.11 0.094-0.234 0.188-0.344 0.28 0 0-0.032 0-0.046 0.032-1.402 1.154-34.964 29.404-68.368 82.308-30.702 48.624-67.294 128.432-67.294 232.742 0 283.74 132.278 297.926 147.996 298.614 1.032 0.062 2.562 0.154 4.516 0.154 14.718 0 52.592-4.624 86.528-47.434 33.904-42.75 53.466-110.998 58.374-203.244-0.002-0.124 0.028-0.25 0.028-0.374z m-254.786-47.718c0-26.03 2.438-51.436 7.25-76.216 20.31 15.156 46.496 25.466 78.09 30.842v138.338c-53.264-14.186-76.794-38.654-84.074-47.874a779.8 779.8 0 0 1-1.266-45.09z m128.012-61.06c1.406 0.062 2.844 0.094 4.344 0.094 18.404 0 43.652-4.218 74.714-19.468a466.08 466.08 0 0 1 3.248 23.75c2 18.186 3.032 37.25 3.032 56.686 0 12.25-0.25 23.906-0.688 34.998-37.53 21.688-67.652 24.624-84.65 23.906v-119.966z m69.588-62.56c-32.842 18.156-56.31 20.686-69.59 19.874V67.33a256.182 256.182 0 0 1 18.216 21.686c17.126 22.78 37.594 57.872 51.374 107.37z m-137.776-84.932a387.672 387.672 0 0 1 25.516-36.062v155.838c-41.296-8.438-59.138-25.468-65.858-34.25 9.796-29.654 23.248-58.218 40.342-85.526z m103.154 433.388c-23.032 29.032-46.482 31.282-53.124 31.282-0.39 0-0.688 0-0.876-0.032-1.094-0.156-1.016-0.156-2.14-0.124-2.688-0.156-26.624-2.376-51.218-30.844-17.358-20.094-37.014-55.904-47.684-119.12 18.67 11.688 43.95 23.25 77.402 30.906v76.402c0 11.782 9.546 21.344 21.328 21.344s21.344-9.562 21.344-21.344v-111.808c1.468 0.062 2.968 0.094 4.532 0.094 3.624 0 7.53-0.156 11.654-0.438 21.218-1.532 43.124-7.218 64.808-16.624-8.622 76.964-28.59 118.306-46.026 140.306z" fill="#E6E9ED" /><path d="M629.524 564.78a21.306 21.306 0 0 0-18.154-10.124h-170.666a21.288 21.288 0 0 0-18.154 10.124 21.34 21.34 0 0 0-0.938 20.75l42.668 85.306a21.304 21.304 0 0 0 19.078 11.812h85.358a21.28 21.28 0 0 0 19.062-11.812l42.684-85.306a21.422 21.422 0 0 0-0.938-20.75z" fill="#AC92EB" /></svg>