<?xml version="1.0" standalone="no"?><!DOCTYPE svg PUBLIC "-//W3C//DTD SVG 1.1//EN" "http://www.w3.org/Graphics/SVG/1.1/DTD/svg11.dtd"><svg class="icon" width="128px" height="128.00px" viewBox="0 0 1024 1024" version="1.1" xmlns="http://www.w3.org/2000/svg"><path d="M596.784 47.362C577.41 16.392 548.1 0.02 512.022 0.02c-36.092 0-65.404 16.374-84.778 47.342-13.906 22.28-21.906 51.654-21.906 80.652 0 42.718 20.5 432.516 21.376 449.078l1.062 20.216h168.478l1.062-20.216c0.876-16.562 21.376-406.36 21.376-449.078-0.002-28.998-8.002-58.372-21.908-80.652z m-69.7 74.402c-8.312 8.312-21.844 8.312-30.156 0a21.334 21.334 0 0 1 0-30.186c8.312-8.312 21.844-8.312 30.156 0a21.33 21.33 0 0 1 0 30.186z" fill="#434A54" /><path d="M932.146 848.362c-7.188-51.186-19.188-98.872-35.624-141.682-20.75-54.188-48.808-100.746-83.244-138.432-73-79.81-174.34-120.246-301.256-120.246-126.932 0-228.272 40.434-301.27 120.246-34.468 37.686-62.482 84.244-83.278 138.432-16.436 42.81-28.436 90.496-35.624 141.682-12.218 86.872-6.516 153.37-6.266 156.182l1.75 19.438h849.374l1.688-19.438c0.25-2.814 6-69.312-6.25-156.182z" fill="#5D9CEC" /><path d="M512.022 554.654c-349.72 0-362.674 469.326-362.674 469.326h725.298s-12.938-469.326-362.624-469.326z" fill="#4A89DC" /><path d="M861.396 917.296H162.598a831.388 831.388 0 0 0-7.11 42.686h79.2c0 11.782 9.562 21.312 21.344 21.312a21.3 21.3 0 0 0 21.312-21.312h42.686a21.296 21.296 0 0 0 21.31 21.312c11.782 0 21.342-9.532 21.342-21.312h42.656c0 11.782 9.562 21.312 21.344 21.312 11.78 0 21.342-9.532 21.342-21.312h42.654c0 11.782 9.53 21.312 21.312 21.312s21.344-9.532 21.344-21.312h42.702a21.298 21.298 0 0 0 21.31 21.312c11.782 0 21.344-9.532 21.344-21.312h42.654c0 11.782 9.562 21.312 21.312 21.312 11.81 0 21.374-9.532 21.374-21.312h42.624c0 11.782 9.562 21.312 21.312 21.312 11.812 0 21.376-9.532 21.376-21.312h79.182a835.308 835.308 0 0 0-7.128-42.686z" fill="#080808" opacity=".1" /></svg>