<?xml version="1.0" standalone="no"?><!DOCTYPE svg PUBLIC "-//W3C//DTD SVG 1.1//EN" "http://www.w3.org/Graphics/SVG/1.1/DTD/svg11.dtd"><svg class="icon" width="128px" height="128.00px" viewBox="0 0 1024 1024" version="1.1" xmlns="http://www.w3.org/2000/svg"><path d="M192.062 106.664c-11.782 0-21.344 9.562-21.344 21.344v67.344h42.656V128.008c0.002-11.782-9.53-21.344-21.312-21.344zM832 106.664c-11.782 0-21.312 9.562-21.312 21.344v67.344h42.656V128.008c0-11.782-9.562-21.344-21.344-21.344z" fill="#CCD1D9" /><path d="M405.344 597.368h213.344v426.624H405.344z" fill="#434A54" /><path d="M256 0.008h512v384H256z" fill="#E6E9ED" /><path d="M810.688 448.008c0 11.718-5.344 29.312-11.844 39.094l-147 220.516c-6.5 9.75-21.438 17.75-33.156 17.75H405.344c-11.75 0-26.656-8-33.156-17.75l-147-220.516c-6.532-9.782-11.844-27.376-11.844-39.094v-256c0-11.718 9.594-21.344 21.344-21.344h554.656c11.718 0 21.344 9.624 21.344 21.344v256z" fill="#4A89DC" /><path d="M128 618.68c0 11.75 9.562 21.312 21.344 21.312h85.344c11.782 0 21.312-9.562 21.312-21.312V192.008c0-11.782-9.532-21.344-21.312-21.344H149.344C137.562 170.664 128 180.226 128 192.008V618.68zM768 618.68c0 11.75 9.562 21.312 21.344 21.312h85.344c11.782 0 21.312-9.562 21.312-21.312V192.008c0-11.782-9.532-21.344-21.312-21.344h-85.344c-11.782 0-21.344 9.562-21.344 21.344V618.68z" fill="#5D9CEC" /><path d="M832.344 618.368c-11.782 0-21.344 9.5-21.344 21.312h42.688c0-11.812-9.564-21.312-21.344-21.312zM192 618.68c-11.782 0-21.312 9.562-21.312 21.312h42.656c0-11.75-9.562-21.312-21.344-21.312z" fill="#4A89DC" /><path d="M128 426.664h128v42.688H128zM768 426.664h128v42.688h-128z" fill="#4A89DC" /><path d="M362.688 0.008v64c0 11.782 9.532 21.344 21.312 21.344s21.344-9.562 21.344-21.344v-64h-42.656zM448 0.008v64c0 11.782 9.562 21.344 21.344 21.344s21.344-9.562 21.344-21.344v-64H448zM533.344 0.008v64c0 11.782 9.562 21.344 21.344 21.344S576 75.79 576 64.008v-64h-42.656zM618.688 0.008v64c0 11.782 9.532 21.344 21.312 21.344s21.344-9.562 21.344-21.344v-64h-42.656z" fill="#CCD1D9" /><path d="M661.344 512.008H362.688c-11.782 0-21.344 9.562-21.344 21.344 0 11.766 9.562 21.328 21.344 21.328h298.656c11.782 0 21.344-9.562 21.344-21.328 0-11.782-9.564-21.344-21.344-21.344zM597.344 597.368h-170.656c-11.782 0-21.344 9.5-21.344 21.312 0 11.75 9.562 21.312 21.344 21.312h170.656c11.782 0 21.344-9.562 21.344-21.312 0-11.812-9.564-21.312-21.344-21.312z" opacity=".1" /></svg>