<?xml version="1.0" standalone="no"?><!DOCTYPE svg PUBLIC "-//W3C//DTD SVG 1.1//EN" "http://www.w3.org/Graphics/SVG/1.1/DTD/svg11.dtd"><svg class="icon" width="128px" height="128.00px" viewBox="0 0 1024 1024" version="1.1" xmlns="http://www.w3.org/2000/svg"><path d="M895.56 446.496c0 211.204-171.2 382.338-382.352 382.338-211.186 0-382.382-171.134-382.382-382.338 0-211.186 171.198-382.352 382.382-382.352 211.154 0 382.352 171.166 382.352 382.352z" fill="#5D9CEC" /><path d="M822.084 405.854c-75.322 5.716-99.44-38.394-89.536-51.89 17.18-23.338 98.844 33.396 104.248-8.654 0.938-7.374 19.37-26.554 35.616-30.178-37.05-101.282-115.746-182.476-215.31-222.962-3.342 11.434-6.342 20.868-7.998 21.68-57.418 27.898-125.21 40.864-165.916 94.502-5.718 7.53-13.278 21.744-5.124 30.742 10.122 11.152 37.114-0.312 50.42 0.656 36.834 2.654 140.832 26.866 144.206 43.706 3.376 16.838-39.456 48.704-81.316 25.586-12.34-6.78-61.576-15.246-78.29-18.244-11.684-2.124-112.654 10.558-108.124 130.552 1.812 48.642 32.24 79.976 81.32 80.54 40.706 0.468 81.912-4.312 95.25 43.908 11.308 40.798 6.998 83.1 17.056 123.712 4.062 16.37 12.684 39.364 33.428 41.112 31.396 2.688 52.516-18.37 71.384-40.298 15.058-17.496 34.082-32.68 45.268-53.172 17.776-32.49 12.902-71.166 31.708-103.734 15.156-26.246 65.484-109.376 41.71-107.564zM253.538 520.974c-11.964-17.402-25.68-34.24-37.988-51.39-11.464-15.996-56.264-88.692-77.008-99.846a383.56 383.56 0 0 0-7.716 76.758c0 93.066 33.27 178.336 88.536 244.628 1.406 1.75 34.646-22.93 37.55-25.43 12.278-10.434 22.556-23.118 27.148-38.8 10.716-36.426-10.372-76.602-30.522-105.92z" fill="#A0D468" /><path d="M513.208 64.144c-7.154 0-14.276 0.188-21.336 0.594 201.25 11.058 361.044 177.758 361.044 381.758 0 204.016-159.792 370.714-361.044 381.776 7.06 0.376 14.182 0.562 21.336 0.562 211.152 0 382.352-171.134 382.352-382.338 0-211.186-171.198-382.352-382.352-382.352z" fill="#FFFFFF" opacity=".2" /><path d="M901.684 671.32c-6.686-0.562-14.058-0.812-22.088-0.812-52.484 0-134.238 11.184-246.206 30.926-13.964-39.736-102.5-57.168-102.5-57.168s-191.066-10.374-313.03-17.058a400.996 400.996 0 0 0-22.554-0.624c-161.576 0-195.16 100.844-195.16 100.844v104.468c0.062 59.858 184.662 89.16 185.288 89.286 146.612 28.992 326.836 38.676 326.836 38.676s493.848-194.004 506.812-205.312c12.936-11.374 7.284-73.23-117.398-83.226z" fill="#EAC6BB" /><path d="M771.754 679.504c-38.798 5.124-84.006 12.372-135.708 21.494-6.622 2.936-13.402 5.936-20.368 8.874-135.52 57.792-231.368 69.976-287.88 69.976-11.778 0-21.336 9.56-21.336 21.306 0 11.81 9.56 21.306 21.336 21.306 88.192 0 190.908-24.742 305.282-73.602 69.196-29.616 120.804-58.858 138.674-69.354z" fill="#DBADA2" /></svg>