<?xml version="1.0" standalone="no"?><!DOCTYPE svg PUBLIC "-//W3C//DTD SVG 1.1//EN" "http://www.w3.org/Graphics/SVG/1.1/DTD/svg11.dtd"><svg class="icon" width="128px" height="128.00px" viewBox="0 0 1024 1024" version="1.1" xmlns="http://www.w3.org/2000/svg"><path d="M1004.39 490.672H533.328v-474h-42.64v474H19.626v42.64H490.688v468.126h42.64V533.312h471.062z" fill="#4A89DC" /><path d="M512 0c-282.75 0-512 229.234-512 512 0 282.75 229.25 512 512 512 282.766 0 512.016-229.25 512.016-512 0-282.766-229.25-512-512.016-512z m331.89 843.876c-43.124 43.124-93.312 76.938-149.188 100.594-57.876 24.468-119.312 36.844-182.704 36.844-63.376 0-124.812-12.376-182.656-36.844-55.876-23.656-106.094-57.468-149.188-100.594-43.124-43.124-76.968-93.312-100.594-149.188C55.094 636.812 42.688 575.376 42.688 512s12.406-124.844 36.876-182.672c23.624-55.89 57.468-106.078 100.594-149.204 43.094-43.11 93.312-76.954 149.188-100.594 57.844-24.468 119.282-36.86 182.656-36.86 63.39 0 124.828 12.39 182.704 36.86 55.876 23.64 106.062 57.484 149.188 100.594 43.124 43.124 76.938 93.312 100.624 149.204 24.438 57.828 36.812 119.296 36.812 182.672s-12.376 124.812-36.812 182.688c-23.69 55.874-57.502 106.062-100.628 149.188z" fill="#5D9CEC" /></svg>