<?xml version="1.0" standalone="no"?><!DOCTYPE svg PUBLIC "-//W3C//DTD SVG 1.1//EN" "http://www.w3.org/Graphics/SVG/1.1/DTD/svg11.dtd"><svg class="icon" width="128px" height="128.00px" viewBox="0 0 1024 1024" version="1.1" xmlns="http://www.w3.org/2000/svg"><path d="M0.016 415.898h1023.968v512.216H0.016z" fill="#646C77" /><path d="M716.932 415.898H307.054C126.308 494.926 0.016 675.31 0.016 885.18c0 14.376 0.594 28.624 1.766 42.684h1020.454c1.126-14.06 1.75-28.308 1.75-42.684-0.002-209.87-126.312-390.254-307.054-469.282z" fill="#FB6D51" /><path d="M893.612 927.864a384.862 384.862 0 0 0 2.376-42.684c0-212.056-171.932-383.942-383.986-383.942-212.07 0-383.988 171.884-383.988 383.942 0 14.438 0.812 28.686 2.376 42.684h763.222z" fill="#E8563F" /><path d="M765.804 927.864a259.434 259.434 0 0 0 3.5-42.684c0-142.122-115.184-257.304-257.304-257.304S254.68 743.058 254.68 885.18c0 14.562 1.218 28.81 3.532 42.684h507.592z" fill="#EC5564" /><path d="M632.686 927.864c4.75-13.374 7.312-27.684 7.312-42.684 0-70.624-57.312-127.996-127.998-127.996-70.702 0-127.996 57.374-127.996 127.996 0 15 2.578 29.31 7.296 42.684h241.386z" fill="#D94452" /><path d="M384.004 223.872v192.026h255.65v-192.026L512.126 117.22z" fill="#9ED36A" /><path d="M675.246 232.028l-149.074-130.84a21.272 21.272 0 0 0-28.718 0.562l-148.666 130.246c-8.876 7.75-9.782 21.25-2.032 30.124a21.346 21.346 0 0 0 16.076 7.312c4.968 0 9.984-1.75 14.032-5.282l135.262-118.558 134.996 118.558a21.36 21.36 0 0 0 14.062 5.282c5.938 0 11.844-2.468 16.062-7.312 7.748-8.842 6.874-22.342-2-30.092z" fill="#646C77" /><path d="M533.516 415.898v-85.342c0-11.78-9.562-21.342-21.344-21.342s-21.328 9.562-21.328 21.342v85.342h42.672z" fill="#424953" /></svg>