<?xml version="1.0" standalone="no"?><!DOCTYPE svg PUBLIC "-//W3C//DTD SVG 1.1//EN" "http://www.w3.org/Graphics/SVG/1.1/DTD/svg11.dtd"><svg class="icon" width="128px" height="128.00px" viewBox="0 0 1024 1024" version="1.1" xmlns="http://www.w3.org/2000/svg"><path d="M1001.574 571.73c0.874-2.308 1.404-4.872 1.404-7.528 0-11.778-9.56-21.304-21.306-21.304a21.306 21.306 0 0 0-19.836 13.528c-14.214 42.234-54.14 72.696-101.062 72.696-36.99 0-69.606-18.964-88.724-47.61a21.336 21.336 0 0 0 18.744-13.714c4.188-11.028-1.344-23.372-12.372-27.492l-39.864-15.152c-9.59-3.656-20.242 0.094-25.554 8.496a19.404 19.404 0 0 0-1.906 3.876l-15.15 39.864c-4.216 10.996 1.344 23.304 12.34 27.492 8.78 3.312 18.37 0.5 24.026-6.376 25.992 43.832 73.758 73.292 128.46 73.292 65.166-0.064 120.492-41.834 140.8-100.068z" fill="#8CC153" /><path d="M857.648 394.878c36.958 0 69.542 18.932 88.692 47.61-8.154 0.468-15.684 5.562-18.712 13.714-4.216 10.998 1.28 23.336 12.308 27.46l39.892 15.184c2.5 0.936 5.062 1.374 7.594 1.374 8.558-0.032 16.62-5.216 19.868-13.746l15.152-39.864a21.32 21.32 0 0 0-12.372-27.522c-8.746-3.342-18.338-0.468-23.96 6.404-26.024-43.862-73.792-73.292-128.46-73.292-65.2 0-120.528 41.832-140.832 100.064a21.456 21.456 0 0 0-1.406 7.53c0 11.778 9.558 21.306 21.336 21.274 9 0.032 16.714-5.592 19.808-13.496 14.214-42.234 54.138-72.694 101.092-72.694zM616.848 561.922c-18.464 37.27-56.89 62.95-101.22 62.95-62.262 0-112.902-50.672-112.902-112.934 0-62.232 50.64-112.904 112.902-112.904 44.33 0 82.756 25.68 101.22 62.95l38.238-18.994c-25.43-51.296-78.32-86.598-139.458-86.598-85.912 0-155.578 69.634-155.578 155.546 0 85.942 69.666 155.578 155.578 155.578 61.138 0 114.03-35.3 139.458-86.598l-38.238-18.996zM300.85 518.25h10.246c0.094-2.156 0.156-4.344 0.156-6.532 0-85.912-69.666-155.546-155.514-155.546-85.942 0-155.578 69.634-155.578 155.546 0 85.942 69.634 155.578 155.578 155.578 68.666 0 127.024-44.582 147.58-106.406h-45.986c-18.306 37.708-56.982 63.73-101.594 63.73-60.106 0-109.374-47.14-112.748-106.372h257.86z m-145.112-119.434c49.61 0 91.816 32.208 106.904 76.82H48.738c15.122-44.612 57.326-76.82 107-76.82z" fill="#A0D468" /></svg>