<?xml version="1.0" standalone="no"?><!DOCTYPE svg PUBLIC "-//W3C//DTD SVG 1.1//EN" "http://www.w3.org/Graphics/SVG/1.1/DTD/svg11.dtd"><svg class="icon" width="128px" height="128.00px" viewBox="0 0 1024 1024" version="1.1" xmlns="http://www.w3.org/2000/svg"><path d="M853.082 390.912L504.408 56.108 170.962 390.912v590.32h682.12z" fill="#FFD2A6" /><path d="M58.482 454.986L512.062 0.156l453.456 452.236-60.296 60.296L511.968 120.776 118.776 515.282z" fill="#EC5564" /><path d="M298.158 532.994s-9.028 141.8 57.436 209.842c40.754 41.708 107.578 42.52 149.33 1.844 41.626-40.77 42.376-107.594 1.64-149.328-66.464-68.044-208.406-62.358-208.406-62.358z" fill="#8CC153" /><path d="M496.566 725.216c-6.53-9.748-16.056-22.4-28.318-37.488-20.494-25.304-41.488-48.83-42.378-49.798a21.36 21.36 0 0 0-14.698-7.09c-11.746-0.656-21.822 8.34-22.478 20.086a21.254 21.254 0 0 0 5.404 15.402c32.366 36.238 69.622 82.508 73.478 93.628-0.578-1.656-1.312-7.78 2.782-13.808l35.27 23.96c10.558-15.558-1.252-33.208-9.062-44.892z" fill="#79AA41" /><path d="M719.032 461.86s-182.164 14.246-256.718 111.214c-45.72 59.454-34.646 144.676 24.71 190.474 59.528 45.612 144.72 34.428 190.426-25.024 74.6-96.97 41.582-276.664 41.582-276.664z" fill="#A0D468" /><path d="M622.028 603.536c-1.936-11.59-12.934-19.432-24.524-17.496a21.254 21.254 0 0 0-8.528 3.468v-0.032c-2 1.376-49.156 34.084-90.488 92.942-55.388 78.914-73.742 167.324-53.046 255.704l41.52-9.716c-18.01-76.852-2.656-150.984 45.624-220.338 36.896-52.954 80.102-83.132 80.54-83.446l-0.032-0.032a21.17 21.17 0 0 0 8.934-21.054z" fill="#8CC153" /><path d="M895.696 938.59c0-23.43-19.182-42.644-42.614-42.644H170.962c-23.446 0-42.642 19.214-42.642 42.644v42.642c0 23.432 19.198 42.612 42.642 42.612h682.12c23.432 0 42.614-19.18 42.614-42.612v-42.642z" fill="#7F4545" /></svg>