<?xml version="1.0" standalone="no"?><!DOCTYPE svg PUBLIC "-//W3C//DTD SVG 1.1//EN" "http://www.w3.org/Graphics/SVG/1.1/DTD/svg11.dtd"><svg class="icon" width="128px" height="128.00px" viewBox="0 0 1024 1024" version="1.1" xmlns="http://www.w3.org/2000/svg"><path d="M703.988 1023.99l-127.998-127.998V597.31h-127.996v298.682l-127.998 127.998z" fill="#F5BA45" /><path d="M447.994 895.992l-127.998 127.998h383.992l-127.998-127.998z" fill="#FECD57" /><path d="M725.3 341.316c0 141.404-95.498 255.996-213.308 255.996S298.684 482.72 298.684 341.316C298.684 199.944 394.182 0.01 511.992 0.01S725.3 199.944 725.3 341.316z" fill="#FFA77B" /><path d="M511.992 0.01c-7.204 0-14.312 0.75-21.328 2.188 107.794 22.032 191.982 206.402 191.982 339.118 0 132.748-84.188 241.902-191.982 254.746 7.016 0.812 14.124 1.25 21.328 1.25 117.81 0 213.308-114.592 213.308-255.996C725.3 199.944 629.802 0.01 511.992 0.01z" fill="#FFFFFF" opacity=".2" /><path d="M746.674 1002.646c0-11.782-9.56-21.31-21.31-21.342H298.622c-11.766 0.032-21.294 9.56-21.294 21.342s9.53 21.312 21.294 21.344h426.742c11.75-0.032 21.31-9.562 21.31-21.344z" fill="#F5BA45" /><path d="M746.674 490.438v-149.122H277.326v149.34c0 129.592 105.06 234.652 234.666 234.652 129.624 0 234.682-105.06 234.682-234.652v-0.218z" fill="#FECD57" /><path d="M746.674 490.438v-149.122h-42.686v149.34c0 122.404-93.748 222.902-213.324 233.684 7.032 0.656 14.14 0.968 21.328 0.968 129.624 0 234.682-105.06 234.682-234.652v-0.218z" fill="#FFFFFF" opacity=".2" /><path d="M511.992 0.01c-77.044 0-144.528 85.498-182.028 184.214l90.232 28.094c2.032 0.656 4.204 1 6.468 1 3.422 0 6.656-0.812 9.532-2.25l75.794-37.876 75.81 37.876a21.164 21.164 0 0 0 9.5 2.25c2.25 0 4.438-0.344 6.468-1l90.124-28.438C656.366 85.32 588.928 0.01 511.992 0.01z" fill="#E5E8EC" /><path d="M299.372 320.004a340.052 340.052 0 0 0-0.688 21.312H725.3c0-6.968-0.25-14.092-0.688-21.312h-425.24z" opacity=".1" /></svg>