<?xml version="1.0" standalone="no"?><!DOCTYPE svg PUBLIC "-//W3C//DTD SVG 1.1//EN" "http://www.w3.org/Graphics/SVG/1.1/DTD/svg11.dtd"><svg class="icon" width="128px" height="128.00px" viewBox="0 0 1024 1024" version="1.1" xmlns="http://www.w3.org/2000/svg"><path d="M1023.984 184.186c0-11.782-9.532-21.342-21.312-21.342-4.094 0-7.876 1.172-11.124 3.156v-0.016c-66.53 40.656-73.498 83.748-74.06 88.53l42.344 5.092s0 0.218-0.062 0.624c0-0.078 1.31-6.936 8.374-17.28 6.718-9.89 20.094-24.952 45.656-40.578l-0.032-0.016c6.122-3.748 10.216-10.466 10.216-18.17z" fill="#8CC153" /><path d="M481.308 442.274C157.346 333.496-42.806 459.336 7.818 674.788c59.124 251.712 439.866 215.244 632.206 85.342 281.776-190.34 266.434-346.634 266.434-346.634l-87.938-127.998s-212.152 198.776-337.212 156.776z" fill="#AC92EB" /><path d="M481.308 463.602c125.058 41.984 337.21-156.762 337.21-156.762l87 126.638c1.624-12.938 0.938-19.984 0.938-19.984l-87.938-127.998s-212.152 198.778-337.21 156.778C184.97 342.778-7.744 439.572 0.256 621.696c7.5-168.188 196.528-253.622 481.052-158.094z" fill="#FFFFFF" opacity=".2" /><path d="M902.582 407.854c-12.562 57.28-63.156 174.904-262.558 309.586-192.338 129.936-573.082 166.434-632.206-85.31C4.412 617.6 2.13 603.506 0.974 589.82c-2.436 26.312-0.25 54.748 6.844 84.966 59.124 251.712 439.866 215.244 632.206 85.342 281.776-190.34 266.434-346.634 266.434-346.634l-3.876-5.64z" opacity=".1" /><path d="M894.926 204.984l-10.282 6.468c-0.594 0.376-58.968 37.14-116.53 73.936-33.844 21.656-60.78 39.094-80.124 51.828-11.562 7.656-20.562 13.702-26.688 18a195.32 195.32 0 0 0-8.218 5.984c-3.062 2.406-12.438 9.718-10.406 22.5 0.438 2.796 3.532 16.828 21.468 18.812 2.468 0.282 5.468 0.406 9.468 0.406 8.25 0 19.718-0.546 31.844-1.124 9.188-0.438 18.624-0.89 26.406-1.078 0.25 5.376 0.53 11.344 0.748 16.484 1.938 46.014 2.312 54.31 10.032 62.044 6.876 6.844 15.718 6.844 19.032 6.844 7.782 0 20.78-1.688 34.53-3.468 4.844-0.656 10.312-1.344 15.062-1.906 1.844 5.25 3.938 11.438 5.718 16.624 4.344 12.686 9.218 27.124 13.624 38.436 6.124 15.922 12.5 32.36 29.782 32.36 14.562 0 20.188-11.594 26.124-23.876 3.594-7.36 8.468-18.14 14.5-31.984 10.032-22.968 23.498-54.968 40.03-95.09 28.092-68.202 55.748-137.28 56.03-137.982l7.188-18.016-109.338-56.202z" fill="#A0D468" /></svg>