<?xml version="1.0" standalone="no"?><!DOCTYPE svg PUBLIC "-//W3C//DTD SVG 1.1//EN" "http://www.w3.org/Graphics/SVG/1.1/DTD/svg11.dtd"><svg class="icon" width="128px" height="128.00px" viewBox="0 0 1024 1024" version="1.1" xmlns="http://www.w3.org/2000/svg"><path d="M874.86902 249.888c103.902 61.124 144.558 184.762 90.808 276.15-53.778 91.376-181.59 115.936-285.492 54.812-103.902-61.124-207.246-221.652-153.464-313.042 53.748-91.388 244.276-79.028 348.148-17.92z" fill="#CCD1D9" /><path d="M874.86902 249.888c-56.406-33.186-138.34-51.984-210.09-47.608 59.938 3.454 121.964 20.876 167.434 47.608 103.906 61.124 144.558 184.762 90.782 276.15-30.188 51.344-83.782 81.594-143.344 87.376 75.844 7.218 148.718-24 186.028-87.376 53.748-91.388 13.092-215.026-90.81-276.15z" fill="#FFFFFF" opacity=".2" /><path d="M734.62302 418.9c-52.218 108.654-171.996 159.512-267.588 113.59-95.56-45.92-130.716-171.214-78.53-279.868C440.72102 143.968 592.03302 27.534 687.59102 73.438c95.558 45.922 99.214 236.808 47.032 345.462z" fill="#FFA77B" /><path d="M687.59102 73.438c-21.032-10.11-44.782-12.328-69.562-8.516 9.344 1.624 18.344 4.406 26.906 8.516 95.562 45.92 99.218 236.808 47.032 345.46-35.5 73.874-102.246 121.028-171.402 129.2 83.058 10.062 171.246-40.138 214.058-129.2 52.182-108.652 48.526-299.538-47.032-345.46z" fill="#FFFFFF" opacity=".2" /><path d="M413.78502 499.21c-50.842 109.294-169.996 161.636-266.12 116.888-96.154-44.718-132.84-169.576-81.998-278.87S266.38102 109.64 362.50502 154.374c96.122 44.734 102.154 235.542 51.28 344.836z" fill="#E6E9ED" /><path d="M362.50502 154.374c-20.718-9.64-43.906-11.686-68.062-7.922 8.782 1.562 17.282 4.14 25.406 7.922 96.122 44.734 102.154 235.542 51.28 344.836-34.936 75.108-102.122 123.294-171.934 131.606 83.81 10.188 172.558-41.248 214.588-131.606 50.876-109.294 44.844-300.102-51.278-344.836z" fill="#FFFFFF" opacity=".3" /><path d="M736.43502 918.186c297.648-129.934 287.524-511.942 287.524-511.942 0-23.562-19.094-42.672-42.656-42.672H42.73102c-23.562 0-42.688 19.11-42.688 42.672 0 0-10.124 382.008 287.556 511.942h448.836z" fill="#FC6E51" /><path d="M42.73102 406.244c0-23.562 19.092-42.672 42.656-42.672H42.73102c-23.562 0-42.688 19.11-42.688 42.672 0 0-10.124 382.008 287.556 511.942h42.656C32.57502 788.252 42.73102 406.244 42.73102 406.244z" opacity=".1" /><path d="M1023.02102 742.596c0 120.53-85.964 218.246-191.996 218.246-106.028 0-191.964-97.716-191.964-218.246 0-120.558 85.938-291.026 191.964-291.026 106.03 0 191.996 170.468 191.996 291.026z" fill="#FFA77B" /><path d="M831.02502 451.57c-7.218 0-14.312 0.812-21.312 2.328 95.968 20.656 170.652 176.356 170.652 288.698s-74.684 204.84-170.652 216.902c7 0.876 14.094 1.344 21.312 1.344 106.032 0 191.996-97.716 191.996-218.246 0-120.558-85.966-291.026-191.996-291.026z" fill="#FFFFFF" opacity=".2" /></svg>