<?xml version="1.0" standalone="no"?><!DOCTYPE svg PUBLIC "-//W3C//DTD SVG 1.1//EN" "http://www.w3.org/Graphics/SVG/1.1/DTD/svg11.dtd"><svg class="icon" width="128px" height="128.00px" viewBox="0 0 1024 1024" version="1.1" xmlns="http://www.w3.org/2000/svg"><path d="M512.016 469.346c-11.78 0-21.342-9.562-21.342-21.344V21.358c0-11.782 9.562-21.342 21.342-21.342 11.782 0 21.314 9.56 21.314 21.342v426.644c0 11.782-9.532 21.344-21.314 21.344z" fill="#434A54" /><path d="M786.462 991.984c-69.312-120.214-135.09-311.678-190.184-553.702C554.468 254.57 533.33 105.2 533.142 103.7c-1.5-10.5-10.468-18.344-21.094-18.344h-0.032a21.31 21.31 0 0 0-21.124 18.312c-0.218 1.468-21.75 150.872-63.748 334.584-55.342 242.054-120.934 433.548-189.652 553.826a21.31 21.31 0 0 0 0.062 21.282 21.36 21.36 0 0 0 18.468 10.624h85.31c9.188 0 17.344-5.876 20.25-14.594 0.094-0.282 10.03-28.966 33.468-57.09 31.156-37.376 70.498-56.312 116.964-56.312 45.952 0 85.012 18.594 116.012 55.282 24.188 28.56 34.312 57.902 34.376 58.122a21.34 21.34 0 0 0 20.248 14.594h85.342c7.594 0 14.656-4.062 18.468-10.656s3.816-14.72 0.002-21.346zM571.282 738.68a21.312 21.312 0 0 1-16.624 7.968h-85.326a21.314 21.314 0 0 1-20.812-25.934l42.656-191.994a21.358 21.358 0 0 1 20.842-16.718c10 0 18.658 6.938 20.814 16.718l42.636 191.994a21.284 21.284 0 0 1-4.186 17.966z" fill="#DA4453" /><path d="M724.37 703.994H299.618c-11.782 0-21.312 9.562-21.312 21.342v85.312c0 11.78 9.532 21.342 21.312 21.342h424.752c11.782 0 21.312-9.562 21.312-21.342v-85.312c0-11.78-9.532-21.342-21.312-21.342zM405.488 554.654h213.01c11.782 0 21.344-9.532 21.344-21.31v-85.342c0-11.782-9.562-21.344-21.344-21.344H405.488c-11.78 0-21.342 9.562-21.342 21.344v85.342c0 11.78 9.562 21.31 21.342 21.31z" fill="#ED5564" /><path d="M490.674 490.656c0 11.782-9.562 21.344-21.342 21.344-11.782 0-21.312-9.562-21.312-21.344s9.532-21.31 21.312-21.31c11.78 0 21.342 9.53 21.342 21.31zM573.31 490.656c0 11.782-9.53 21.344-21.31 21.344-11.766 0-21.326-9.562-21.326-21.344s9.56-21.31 21.326-21.31a21.294 21.294 0 0 1 21.31 21.31zM405.332 767.992c0 11.782-9.53 21.344-21.312 21.344s-21.342-9.562-21.342-21.344 9.562-21.344 21.342-21.344 21.312 9.562 21.312 21.344zM490.674 767.992c0 11.782-9.562 21.344-21.342 21.344-11.782 0-21.312-9.562-21.312-21.344s9.532-21.344 21.312-21.344c11.78 0 21.342 9.562 21.342 21.344zM575.998 767.992c0 11.782-9.56 21.344-21.342 21.344-11.766 0-21.326-9.562-21.326-21.344s9.56-21.344 21.326-21.344c11.782 0 21.342 9.562 21.342 21.344zM661.31 767.992c0 11.782-9.532 21.344-21.312 21.344s-21.344-9.562-21.344-21.344 9.562-21.344 21.344-21.344 21.312 9.562 21.312 21.344z" fill="#DA4453" /></svg>