<?xml version="1.0" standalone="no"?><!DOCTYPE svg PUBLIC "-//W3C//DTD SVG 1.1//EN" "http://www.w3.org/Graphics/SVG/1.1/DTD/svg11.dtd"><svg class="icon" width="128px" height="128.00px" viewBox="0 0 1024 1024" version="1.1" xmlns="http://www.w3.org/2000/svg"><path d="M810.564 149.424c-11.778 0-21.306 9.558-21.306 21.336v63.98h42.644V170.76c0-11.778-9.558-21.336-21.338-21.336zM895.882 149.424c-11.778 0-21.338 9.558-21.338 21.336v63.98h42.674V170.76c0-11.778-9.558-21.336-21.336-21.336z" fill="#434A54" /><path d="M831.902 245.394v501.192c0 35.27-28.71 63.98-63.98 63.98s-63.98-28.71-63.98-63.98c0 0-42.644-34.896-42.644 0 0 58.886 47.736 106.624 106.624 106.624 58.886 0 106.624-47.736 106.624-106.624V245.394h-42.644z" fill="#CCD1D9" /><path d="M746.584 213.404v63.98c0 58.918 47.736 106.654 106.654 106.654 58.89 0 106.624-47.736 106.624-106.654v-63.98H746.584z" fill="#FFCE54" /><path d="M149.454 1002.508c-11.778 0-21.336-9.56-21.336-21.338V42.798c0-11.746 9.56-21.336 21.336-21.336h511.842c11.746 0 21.306 9.59 21.306 21.336v938.372c0 11.778-9.56 21.338-21.306 21.338H149.454z" fill="#E6E9ED" /><path d="M128.118 21.462h554.486v447.864H128.118z" fill="#5D9CEC" /><path d="M661.296 0.156H149.454C125.898 0.156 106.78 19.244 106.78 42.798v938.372c0 23.556 19.12 42.674 42.674 42.674h511.842c23.556 0 42.644-19.118 42.644-42.674V42.798C703.942 19.244 684.854 0.156 661.296 0.156z m0 981.014H149.454V42.798h511.842v938.372z" fill="#E6E9ED" /><path d="M746.584 1023.844H64.136v-85.316c0-23.554 19.088-42.644 42.642-42.644H703.94c23.554 0 42.642 19.09 42.642 42.644v85.316z" fill="#656D78" /><path d="M518.466 720.656l-75.416-75.414c-8.31-8.342-21.806-8.342-30.146 0l-30.148 30.146-60.326-60.294a21.328 21.328 0 0 0-30.178 0c-8.31 8.31-8.31 21.806 0 30.148l75.416 75.414c8.34 8.308 21.836 8.308 30.146 0l30.178-30.18 60.326 60.326c8.31 8.342 21.806 8.342 30.148 0 8.342-8.31 8.342-21.838 0-30.146z" fill="#F6BB42" /></svg>