<?xml version="1.0" standalone="no"?><!DOCTYPE svg PUBLIC "-//W3C//DTD SVG 1.1//EN" "http://www.w3.org/Graphics/SVG/1.1/DTD/svg11.dtd"><svg class="icon" width="128px" height="128.00px" viewBox="0 0 1024 1024" version="1.1" xmlns="http://www.w3.org/2000/svg"><path d="M728.964 136.616c-5.094-10.624-17.84-15.122-28.46-10.03l-57.668 27.648 18.398 38.458 57.704-27.648c10.62-5.092 15.118-17.808 10.026-28.428zM765.796 213.53c-5.06-10.624-17.806-15.09-28.43-9.998l-57.7 27.648 18.43 38.458 57.704-27.648c10.622-5.094 15.122-17.84 9.996-28.46z" fill="#434A54" /><path d="M379.962 561.234h-42.66c0-123.648 56.92-201.032 104.67-244.208 51.562-46.61 103.078-63.918 105.264-64.634l13.402 40.486c-0.468 0.156-46.36 15.84-91.316 56.952-59.292 54.204-89.36 125.338-89.36 211.404z" fill="#434A54" /><path d="M643.616 106.56l-57.702 27.648c-53.11 25.43-75.54 89.128-50.094 142.238s89.144 75.54 142.254 50.078l57.67-27.648-92.128-192.316z" fill="#FECD57" /><path d="M148.97 597.068s78.992-149.298 299.05-149.298 298.596 149.392 298.596 149.392c255.89 0 255.89 0 255.89 234.49H106.78c-39.378 0.312-85.302-42.174-85.302-42.174v-149.768l42.66-42.642h84.832z" fill="#656D78" /><path d="M732.464 575.824c-31.21-41.268-116.714-128.054-284.446-128.054-167.84 0-253.61 86.848-284.866 128.054h569.312z" fill="#4FC2E9" /><path d="M384.04 456.798h42.642v119.026H384.04z" fill="#3BAFDA" /><path d="M106.374 852.99c-46.298 0-94.08-42.956-99.376-47.862a21.286 21.286 0 0 1-6.84-15.65v-149.768c0-5.654 2.25-11.058 6.248-15.058l42.642-42.672c4-4 9.434-6.25 15.09-6.25h72.916c9.95-14.964 30.958-42.612 65.698-70.042 45.768-36.144 125.462-79.226 245.27-79.226 119.806 0 199.376 43.114 245.05 79.29 34.676 27.43 55.608 55.076 65.512 70.072 125.368 0.032 189.41 1.062 226.336 34.928 38.926 35.646 38.926 97.564 38.926 220.9 0 11.778-9.558 21.338-21.338 21.338H106.374z m-63.576-73.322c14.59 11.714 42.582 30.68 63.574 30.68h874.794c-0.094-93.942-1.688-146.738-25.054-168.168-25.868-23.71-91.098-23.71-209.498-23.71a21.31 21.31 0 0 1-18.87-11.402c-0.124-0.25-19.056-35.022-62.792-69.168-58.482-45.642-131.46-68.792-216.934-68.792-85.506 0-158.562 23.118-217.184 68.76-43.862 34.146-62.872 68.886-63.058 69.23a21.2 21.2 0 0 1-18.806 11.308H72.962l-30.164 30.146v131.116z" fill="#656D78" /><path d="M234.74 704.192c-58.794 0-106.624 47.83-106.624 106.624 0 58.792 47.83 106.624 106.624 106.624 58.81 0 106.64-47.83 106.64-106.624s-47.83-106.624-106.64-106.624zM789.226 704.192c-58.792 0-106.624 47.83-106.624 106.624 0 58.792 47.83 106.624 106.624 106.624 58.796 0 106.656-47.83 106.656-106.624s-47.858-106.624-106.656-106.624z" fill="#434A54" /><path d="M213.418 810.816c0 11.778 9.544 21.336 21.322 21.336 11.778 0 21.338-9.558 21.338-21.336s-9.56-21.338-21.338-21.338-21.322 9.562-21.322 21.338zM767.922 810.816c0 11.778 9.558 21.336 21.304 21.336 11.808 0 21.338-9.558 21.338-21.336s-9.53-21.338-21.338-21.338c-11.746 0-21.304 9.562-21.304 21.338z" fill="#F5F7FA" /><path d="M490.678 703.692H448.02c-11.778 0-21.338-9.528-21.338-21.304s9.56-21.338 21.338-21.338h42.658c11.778 0 21.322 9.56 21.322 21.338s-9.544 21.304-21.322 21.304z" fill="#434A54" /><path d="M1017.968 681.7c-2.624-16.278-6.434-30.118-11.996-41.988h-67.728c-11.778 0-21.306 9.56-21.306 21.338s9.53 21.338 21.306 21.338h74.478a20.946 20.946 0 0 0 5.246-0.688z" fill="#F5F7FA" /><path d="M64.136 575.73a21.352 21.352 0 0 0-15.09 6.25L6.404 624.652c-4 4-6.248 9.404-6.248 15.058h63.98c11.778 0 21.322-9.528 21.322-21.304v-42.676H64.136z" fill="#ED5564" /></svg>