<?xml version="1.0" standalone="no"?><!DOCTYPE svg PUBLIC "-//W3C//DTD SVG 1.1//EN" "http://www.w3.org/Graphics/SVG/1.1/DTD/svg11.dtd"><svg class="icon" width="128px" height="128.00px" viewBox="0 0 1024 1024" version="1.1" xmlns="http://www.w3.org/2000/svg"><path d="M920.422 772.708l-3.624-1.032c-52.938-14.25-70.84-27.876-94.4-36.844-83.594-31.842-105.342-54.81-110.904-65.654-0.218-0.376-0.376-0.812-0.562-1.188l-0.688-97.12L512 568.624l-198.242 2.25-0.688 97.12c-0.188 0.376-0.344 0.812-0.562 1.188-5.562 10.844-27.28 33.812-110.902 65.654-23.56 8.968-41.466 22.594-94.402 36.844l-3.624 1.032c-48.186 15.936-80.622 60.624-80.622 111.056v140.214h978.086v-140.214c-0.002-50.436-32.436-95.124-80.622-111.06z" fill="#ED5564" /><path d="M426.66 639.994h170.68V1023.98h-170.68z" fill="#F6BB42" /><path d="M313.382 573.092l-0.312 94.9 92.278 119.996L512 726.178zM710.93 568.624L512 726.178l106.652 61.81 92.278-119.996z" fill="#FFCE54" /><path d="M527.094 923.544c8.312 8.344 8.312 21.876 0 30.188-8.344 8.312-21.844 8.312-30.188 0-8.31-8.312-8.31-21.844 0-30.188 8.344-8.31 21.844-8.31 30.188 0zM527.094 838.238c8.312 8.31 8.312 21.808 0 30.184-8.344 8.312-21.844 8.312-30.188 0-8.31-8.376-8.31-21.874 0-30.184 8.344-8.312 21.844-8.312 30.188 0zM533.344 21.346c0 11.782-9.562 21.344-21.344 21.344s-21.342-9.562-21.342-21.344S500.218 0.02 512 0.02s21.344 9.544 21.344 21.326z" fill="#434A54" /><path d="M787.084 382.99c0 178.758-170.37 343.25-275.084 343.25-104.684 0-275.084-164.492-275.084-343.25 0-178.744 123.152-296.676 275.084-296.676s275.084 117.932 275.084 296.676z" fill="#EAC6BB" /><path d="M512 21.346c-154.12 0-283.864 127.104-283.864 283.88l-0.032 78.778h567.76l0.032-78.778c0-156.776-129.776-283.88-283.896-283.88z" fill="#ED5564" /><path d="M512 277.336c250.396 0 308.428 109.152 308.428 109.152 5.498 10.36 0.406 18.842-11.344 18.842H214.918c-11.75 0-16.844-8.484-11.344-18.842 0 0 58.03-109.152 308.426-109.152z" fill="#FFCE54" /><path d="M817.552 381.974c-2.188 1.28-5.032 2.014-8.468 2.014H214.918c-3.438 0-6.282-0.734-8.468-2.014-2 2.874-2.876 4.514-2.876 4.514-5.5 10.36-0.406 18.842 11.344 18.842h594.166c11.75 0 16.842-8.484 11.344-18.842 0 0-0.876-1.64-2.876-4.514z" fill="#F6BB42" /><path d="M511.968 256.008c-4.062 0-8.218-1.172-11.876-3.624-9.78-6.562-12.374-19.828-5.812-29.608l20.344-30.28h-45.28a21.38 21.38 0 0 1-18.842-11.296 21.366 21.366 0 0 1 1.124-21.938l42.652-63.512c6.594-9.782 19.844-12.39 29.624-5.812 9.782 6.562 12.376 19.828 5.812 29.61l-20.344 30.278h45.282c7.904 0 15.124 4.344 18.842 11.296a21.366 21.366 0 0 1-1.124 21.938l-42.654 63.512a21.352 21.352 0 0 1-17.748 9.436z" fill="#434A54" /></svg>