<?xml version="1.0" standalone="no"?><!DOCTYPE svg PUBLIC "-//W3C//DTD SVG 1.1//EN" "http://www.w3.org/Graphics/SVG/1.1/DTD/svg11.dtd"><svg class="icon" width="128px" height="128.00px" viewBox="0 0 1024 1024" version="1.1" xmlns="http://www.w3.org/2000/svg"><path d="M917.303208 1023.978c-11.749977 0-21.311958-9.531981-21.311958-21.311958v-21.341959c0-11.781977 9.561981-21.343958 21.311958-21.343958 11.811977 0 21.375958 9.561981 21.375959 21.343958v21.341959c0 11.781977-9.561981 21.311958-21.375959 21.311958zM405.340208 1023.978c-11.779977 0-21.327958-9.531981-21.327958-21.311958v-21.341959c0-11.781977 9.545981-21.343958 21.327958-21.343958s21.343958 9.561981 21.343959 21.343958v21.341959c0 11.781977-9.561981 21.311958-21.343959 21.311958z" fill="#434A54" /><path d="M959.989125 298.679417H362.684292c-11.779977 0-21.341958 9.545981-21.341959 21.327958v661.318708c0 11.779977 9.561981 21.341958 21.341959 21.341959h597.304833c11.781977 0 21.311958-9.561981 21.311958-21.341959v-661.318708c0-11.781977-9.529981-21.327958-21.311958-21.327958z" fill="#ED5564" /><path d="M959.989125 298.679417H362.684292c-11.779977 0-21.341958 9.545981-21.341959 21.327958V575.998875h639.95875V320.005375c0-11.779977-9.529981-21.325958-21.311958-21.325958z" fill="#FFCE54" /><path d="M170.692667 384.00325c-11.779977 0-21.341958-9.545981-21.341959-21.327958v-42.669917c0-11.779977 9.561981-21.327958 21.341959-21.327958 11.781977 0 21.327958 9.545981 21.327958 21.327958v42.669917c0 11.781977-9.545981 21.327958-21.327958 21.327958z" fill="#ED5564" /><path d="M106.696792 298.679417c-11.779977 0-21.341958-9.561981-21.341959-21.343959V149.339708c0-6.217988 2.717995-12.139976 7.453986-16.185968L242.126527 5.15999c8.953983-7.669985 22.419956-6.639987 30.091941 2.311995 7.655985 8.935983 6.623987 22.405956-2.311995 30.077942L128.02275 159.153689v118.181769c0 11.781977-9.545981 21.343958-21.325958 21.343959z" fill="#434A54" /><path d="M874.679292 767.9885H640.00175a21.295958 21.295958 0 0 1-21.309958-21.311958c0-11.811977 9.529981-21.343958 21.309958-21.343959H874.679292c11.749977 0 21.311958 9.531981 21.311958 21.343959 0 11.779977-9.561981 21.311958-21.311958 21.311958zM874.679292 682.678667H640.00175c-11.781977 0-21.309958-9.561981-21.309958-21.343959s9.529981-21.341958 21.309958-21.341958H874.679292c11.749977 0 21.311958 9.559981 21.311958 21.341958s-9.561981 21.343958-21.311958 21.343959z" fill="#DA4453" /><path d="M533.335958 448.001125c0 23.559954-19.093963 42.667917-42.655916 42.667917-23.561954 0-42.669917-19.109963-42.669917-42.667917 0-23.561954 19.107963-42.671917 42.669917-42.671917 23.561954 0.002 42.655917 19.109963 42.655916 42.671917z" fill="#656D78" /><path d="M490.680042 511.999c-35.295931 0-63.997875-28.717944-63.997875-63.997875 0-35.295931 28.701944-63.999875 63.997875-63.999875 35.279931 0 64.013875 28.701944 64.013875 63.999875C554.695917 483.281056 525.959973 511.999 490.680042 511.999z m0-85.325833c-11.765977 0-21.343958 9.561981-21.343959 21.327958 0 11.763977 9.577981 21.325958 21.343959 21.325958 11.749977 0 21.327958-9.561981 21.327958-21.325958 0-11.763977-9.577981-21.327958-21.327958-21.327958z" fill="#434A54" /><path d="M703.999625 448.001125c0 23.559954-19.123963 42.667917-42.685917 42.667917s-42.623917-19.109963-42.623916-42.667917c0-23.561954 19.059963-42.671917 42.623916-42.671917S703.999625 424.439171 703.999625 448.001125z" fill="#656D78" /><path d="M661.313708 511.999c-35.247931 0-63.997875-28.717944-63.997875-63.997875 0-35.295931 28.749944-63.999875 63.997875-63.999875 35.309931 0 63.995875 28.701944 63.995875 63.999875 0 35.279931-28.685944 63.997875-63.995875 63.997875z m0-85.325833c-11.749977 0-21.311958 9.561981-21.311958 21.327958 0 11.763977 9.561981 21.325958 21.311958 21.325958 11.781977 0 21.375958-9.561981 21.375959-21.325958 0-11.763977-9.593981-21.327958-21.375959-21.327958z" fill="#434A54" /><path d="M874.679292 448.001125c0 23.559954-19.123963 42.667917-42.683917 42.667917s-42.685917-19.109963-42.685917-42.667917c0-23.561954 19.123963-42.671917 42.685917-42.671917 23.557954 0.002 42.683917 19.109963 42.683917 42.671917z" fill="#656D78" /><path d="M831.995375 511.999c-35.279931 0-63.997875-28.717944-63.997875-63.997875 0-35.295931 28.717944-63.999875 63.997875-63.999875 35.307931 0 63.995875 28.701944 63.995875 63.999875 0 35.279931-28.687944 63.997875-63.995875 63.997875z m0-85.325833c-11.747977 0-21.309958 9.561981-21.309958 21.327958 0 11.763977 9.561981 21.325958 21.309958 21.325958 11.749977 0 21.311958-9.561981 21.311958-21.325958 0-11.763977-9.561981-21.327958-21.311958-21.327958z" fill="#434A54" /><path d="M725.309583 853.328333H703.999625v-21.341958c0-11.781977-9.561981-21.311958-21.309958-21.311958-11.811977 0-21.375958 9.531981-21.375959 21.311958v21.341958h-21.311958c-11.781977 0-21.309958 9.529981-21.309958 21.341959a21.295958 21.295958 0 0 0 21.309958 21.311958h21.311958v21.343958c0 11.779977 9.561981 21.341958 21.375959 21.341959 11.747977 0 21.309958-9.561981 21.309958-21.341959v-21.343958h21.309958c11.811977 0 21.375958-9.531981 21.375959-21.311958 0-11.811977-9.561981-21.341958-21.375959-21.341959zM874.679292 853.328333h-85.369834c-11.749977 0-21.311958 9.529981-21.311958 21.341959 0 11.781977 9.561981 21.311958 21.311958 21.311958h85.369834c11.749977 0 21.311958-9.531981 21.311958-21.311958 0-11.811977-9.561981-21.341958-21.311958-21.341959z" fill="#FFCE54" /><path d="M149.350708 256.0075H64.026875c-11.781977 0-21.327958 9.545981-21.327958 21.327958V597.338833c0 35.279931 28.701944 63.995875 63.997875 63.995875 35.279931 0 63.997875-28.715944 63.997875-63.995875V277.335458c-0.002-11.779977-9.563981-21.327958-21.343959-21.327958z" fill="#FFCE54" /><path d="M490.680042 746.676542c-23.531954 0-42.669917 19.123963-42.669917 42.653916 0 23.531954 19.137963 42.655917 42.669917 42.655917 23.513954 0 42.655917-19.123963 42.655916-42.655917 0-23.529954-19.139963-42.653917-42.655916-42.653916z" fill="#434A54" /><path d="M335.468345 836.424366c-9.795981 0-19.499962-0.405999-29.077943-1.249997-51.529899-4.437991-98.855807-20.59396-136.853733-46.717909-53.497896-36.779928-84.183836-90.871823-84.183836-148.46171 0-11.781977 9.561981-21.309958 21.341959-21.309958 11.781977 0 21.327958 9.529981 21.327958 21.309958 0 43.935914 23.327954 84.183836 65.685872 113.307779 31.919938 21.937957 72.151859 35.559931 116.353772 39.373923 48.607905 4.187992 101.041803-3.843992 151.633704-23.247955 10.999979-4.249992 23.343954 1.249998 27.561946 12.249976 4.217992 10.997979-1.265998 23.341954-12.265976 27.559946-46.731909 17.935965-95.103814 27.185947-141.523723 27.185947z" fill="#656D78" /><path d="M42.698917 597.338833c0 35.279931 28.701944 63.995875 63.997875 63.995875 35.279931 0 63.997875-28.715944 63.997875-63.995875H42.698917z" fill="#F6BB42" /><path d="M959.989125 298.679417h-42.685917c11.811977 0 21.375958 9.545981 21.375959 21.327958v661.318708c0 11.779977-9.561981 21.341958-21.375959 21.341959h42.685917c11.781977 0 21.311958-9.561981 21.311958-21.341959v-661.318708c0-11.781977-9.529981-21.327958-21.311958-21.327958z" fill="#FFFFFF" opacity=".2" /></svg>