<?xml version="1.0" standalone="no"?><!DOCTYPE svg PUBLIC "-//W3C//DTD SVG 1.1//EN" "http://www.w3.org/Graphics/SVG/1.1/DTD/svg11.dtd"><svg class="icon" width="128px" height="128.00px" viewBox="0 0 1024 1024" version="1.1" xmlns="http://www.w3.org/2000/svg"><path d="M985.652 113.54a21.366 21.366 0 0 1-5.718-15.282l1.438-41.936c0.376-11.75 10.25-20.968 22-20.562a21.29 21.29 0 0 1 20.592 22.032l-1.406 41.936c-0.438 11.75-10.282 20.968-22.06 20.562a21.134 21.134 0 0 1-14.846-6.75zM846.75 126.602c-3.718-4-5.938-9.406-5.718-15.282l1.438-41.936c0.406-11.78 10.28-20.968 22.03-20.592 11.75 0.406 20.968 10.282 20.562 22.03l-1.438 41.936c-0.376 11.782-10.25 20.968-22 20.594a21.456 21.456 0 0 1-14.874-6.75zM912.684 120.664a21.132 21.132 0 0 1-5.718-15.282l1.406-41.904c0.438-11.782 10.282-21 22.062-20.594 11.75 0.406 20.968 10.25 20.562 22.03l-1.438 41.936c-0.376 11.75-10.25 20.968-22 20.562a21.128 21.128 0 0 1-14.874-6.748z" fill="#434A54" /><path d="M631.598 678.432c-1.062-5.938-6-19.812-28.468-20.562-4.75-0.188-10.562 0.124-17.75 1a195.88 195.88 0 0 1-30.498 1.25c-23.936-0.812-44.184-5.5-55.56-8.75l-15.186-54.81a21.258 21.258 0 0 0-5-8.876l-62.75-67.216a21.244 21.244 0 0 0-5.312-4.124l-48.156-26.592c8.532-25.906 36.124-76.562 61.748-116.59a21.426 21.426 0 0 0-0.906-24.312 21.31 21.31 0 0 0-23.092-7.624c-58.656 17.344-110.84 58.624-150.902 119.372-20.5 31.156-32.938 59.842-38.874 75.218-58.75 15.062-114.122 44.186-153.372 80.872C11.646 659.556-6.916 708.12 2.334 761.18c7.532 43.248 33.03 87.624 77.904 135.684 55.718 59.624 108.216 89.498 160.59 91.31h0.032c41.218 1.376 80.686-15.25 117.34-49.5 39.656-37.06 72.686-90.934 91.686-149.122 15.656-6.624 48.936-20.876 81.748-36.124 26.592-12.312 47.746-22.938 62.872-31.436 22.342-12.622 40.56-24.622 37.092-43.56z" fill="#ED5564" /><path d="M594.504 721.994c22.344-12.624 40.562-24.624 37.094-43.562-0.844-4.624-4-14-15.906-18.376 0.406 1.25 0.688 2.376 0.844 3.25 3.468 19-14.75 31-37.094 43.562-15.124 8.562-36.31 19.186-62.872 31.498-32.812 15.25-66.124 29.498-81.78 36.124-18.968 58.188-52.03 112.06-91.654 149.122-36.686 34.25-76.154 50.876-117.372 49.5-46.124-1.624-92.404-25-140.872-71.31 53.998 56.374 105.06 84.624 155.934 86.374h0.032c41.218 1.376 80.686-15.25 117.34-49.5 39.656-37.06 72.686-90.934 91.686-149.122 15.656-6.624 48.936-20.876 81.748-36.124 26.592-12.312 47.746-22.938 62.872-31.436z" fill="#FFFFFF" opacity=".2" /><path d="M262.576 816.428l753.262-701.92c6.656-6.218 8.656-16 4.906-24.344a21.34 21.34 0 0 0-21.498-12.436l-139.186 13.342a21.206 21.206 0 0 0-12.532 5.624L174.516 723.682c-8.624 8.06-9.094 21.56-1.062 30.186l58.216 62.31h0.032c8 8.624 21.5 9.062 30.124 1 0.25-0.188 0.5-0.438 0.75-0.75z" fill="#E6E9ED" /><path d="M190.078 709.182l87.31 93.434 31.156-29.064-87.31-93.496zM252.39 650.932l87.31 93.498 31.156-29.124-87.312-93.436z" fill="#434A54" /><path d="M891.122 230.974l124.716-116.466c6.656-6.218 8.656-16 4.906-24.344a21.34 21.34 0 0 0-21.498-12.436l-139.186 13.342a21.206 21.206 0 0 0-12.532 5.624l-43.686 40.812 87.28 93.468z" fill="#656D78" /><path d="M761.376 292.222c-8.624 8.032-22.094 7.594-30.124-1.032-8.06-8.594-7.56-22.094 1-30.124 8.624-8.032 22.124-7.562 30.156 1.032s7.56 22.094-1.032 30.124zM699.064 350.44c-8.624 8.032-22.124 7.562-30.124-1.032-8.062-8.624-7.594-22.094 1-30.124 8.624-8.062 22.124-7.594 30.124 1 8.062 8.624 7.594 22.124-1 30.156zM636.754 408.624c-8.624 8.032-22.124 7.594-30.156-1.032-8.032-8.594-7.562-22.092 1.032-30.124 8.624-8.032 22.094-7.562 30.124 1.032 8.062 8.594 7.562 22.094-1 30.124zM574.41 466.842c-8.592 8.032-22.092 7.562-30.124-1.032-8.032-8.592-7.594-22.092 1.032-30.124 8.594-8.032 22.094-7.594 30.124 1.032 8.03 8.594 7.562 22.094-1.032 30.124z" fill="#434A54" /></svg>