<?xml version="1.0" standalone="no"?><!DOCTYPE svg PUBLIC "-//W3C//DTD SVG 1.1//EN" "http://www.w3.org/Graphics/SVG/1.1/DTD/svg11.dtd"><svg class="icon" width="128px" height="128.00px" viewBox="0 0 1024 1024" version="1.1" xmlns="http://www.w3.org/2000/svg"><path d="M709.804 631.43l-2.876-0.812c-41.874-11.25-56.06-22.06-74.686-29.124-66.122-25.248-83.306-43.374-87.682-51.936-0.188-0.312-0.312-0.624-0.438-0.938l-0.546-76.826-156.808-1.782-156.774 1.782-0.546 76.826c-0.14 0.312-0.266 0.624-0.438 0.938-4.39 8.562-21.594 26.688-87.702 51.936-18.64 7.062-32.794 17.874-74.668 29.124l-2.874 0.812C25.66 644.054 0.02 679.366 0.02 719.24v110.934H773.552V719.24c0-39.874-25.656-75.186-63.748-87.81z" fill="#ED5564" /><path d="M604.34 323.208c0 141.37-134.76 271.476-217.57 271.476-82.794 0-217.554-130.108-217.554-271.476S266.618 88.592 386.77 88.592c120.168 0 217.57 93.246 217.57 234.616z" fill="#EAC6BB" /><path d="M499.078 100.81s-4.218-37.624 40.812-64.686c19.078-11.468-285.896-65.81-362.424 126.9-28.75 72.374-7.5 178.932-7.5 178.932l66.278-118.84s72.248 16.876 150.526 16.876c78.292 0 153.166-16.876 153.166-16.876l64.402 100.402s24.78-96.372-2.968-160.306c-27.746-63.902-102.292-62.402-102.292-62.402z" fill="#965353" /><path d="M709.804 652.74l-2.876-0.812c-41.874-11.248-56.06-22.06-74.686-29.124-66.122-25.186-83.306-43.372-87.682-51.934-0.188-0.312-0.312-0.624-0.438-0.938l-0.422-57.764c0.046-0.062 0.094-0.156 0.156-0.218l-0.156-21.124c33.42-44.686 57.792-99.872 60.386-157.432-84.7 56.342-186.274 66.684-230.132 68.402-17.78 0.312-32.234 14.782-32.546 32.5l-0.14 3.532 0.032 0.812c5.624 155.668 67.764 289.41 147.808 391.534h284.442v-89.56c0.002-39.936-25.654-75.248-63.746-87.874z" fill="#080808" opacity=".1" /><path d="M1023.856 455.39c-0.438-17.624-14.75-31.938-32.312-32.25-48.934-1.906-169.646-14.5-258.552-89.496l0.376-2.124-12.06-7.532a33.226 33.226 0 0 0-17.188-5h-0.5a32.902 32.902 0 0 0-21.716 8.594c-89.53 80.372-215.134 93.59-265.272 95.558-17.782 0.312-32.234 14.75-32.546 32.468l-0.14 3.56 0.032 0.812c8.954 248.132 161.496 440.562 301.27 537.808l0.124 0.124a32.806 32.806 0 0 0 18.56 5.75c6.688 0 13.124-2 18.562-5.75l2.06-1.376c76.812-53.936 147.4-129.372 198.744-212.49 29.594-47.812 53.06-98.374 69.808-150.184 18.438-56.934 28.812-115.762 30.844-174.914l0.032-0.968-0.126-2.59z" fill="#FFCE54" /><path d="M1023.856 455.39c-0.438-17.624-14.75-31.938-32.312-32.25-48.934-1.906-169.646-14.5-258.552-89.496l0.376-2.124-12.06-7.532a33.226 33.226 0 0 0-17.188-5h-0.5c-3.562 0.032-7 0.688-10.312 1.844 2.312 0.812 4.562 1.844 6.688 3.156l12 7.532-0.312 2.124c88.874 74.996 209.586 87.59 258.522 89.496 17.56 0.312 31.874 14.624 32.28 32.25l0.188 2.594-0.062 0.968c-2.032 59.152-12.376 117.98-30.81 174.914-16.75 51.81-40.248 102.372-69.81 150.184-51.372 83.12-121.932 158.554-198.742 212.49l-2.062 1.376a32.544 32.544 0 0 1-7.876 3.938c3.376 1.188 6.968 1.812 10.624 1.812 6.688 0 13.124-2 18.562-5.75l2.06-1.376c76.812-53.936 147.4-129.372 198.744-212.49 29.594-47.812 53.06-98.374 69.808-150.184 18.438-56.934 28.812-115.762 30.844-174.914l0.032-0.968-0.13-2.594z" fill="#FFFFFF" opacity=".2" /><path d="M703.93 809.612c-3.188 0-6.468-0.688-9.532-2.25-10.53-5.312-14.78-18.124-9.53-28.624l48.714-97.124-93.464-0.124a21.34 21.34 0 0 1-18.124-10.062c-3.876-6.312-4.25-14.188-0.938-20.75l63.81-127.884c5.25-10.56 18.06-14.842 28.624-9.56 10.53 5.248 14.81 18.06 9.562 28.592l-48.436 97.042 93.528 0.124c7.406 0 14.282 3.812 18.156 10.124 3.876 6.25 4.218 14.124 0.906 20.75l-64.186 127.996c-3.716 7.436-11.278 11.75-19.09 11.75z" fill="#434A54" /></svg>