<?xml version="1.0" standalone="no"?><!DOCTYPE svg PUBLIC "-//W3C//DTD SVG 1.1//EN" "http://www.w3.org/Graphics/SVG/1.1/DTD/svg11.dtd"><svg class="icon" width="128px" height="128.00px" viewBox="0 0 1024 1024" version="1.1" xmlns="http://www.w3.org/2000/svg"><path d="M917.29 0.02H106.68c-11.782 0-21.344 9.544-21.344 21.326v981.292c0 11.782 9.562 21.344 21.344 21.344h810.61c11.812 0 21.376-9.562 21.376-21.344V21.346C938.664 9.564 929.102 0.02 917.29 0.02z" fill="#656D78" /><path d="M853.292 149.34c-11.75 0-21.312 9.546-21.312 21.328v127.996c0 11.782 9.562 21.328 21.312 21.328 11.808 0 21.372-9.546 21.372-21.328V170.668c0-11.78-9.562-21.328-21.372-21.328zM853.292 682.648c-11.75 0-21.312 9.562-21.312 21.344v127.996c0 11.78 9.562 21.31 21.312 21.31 11.808 0 21.372-9.532 21.372-21.31v-127.996c0-11.782-9.562-21.344-21.372-21.344z" fill="#434A54" /><path d="M170.676 85.344h682.618v853.294H170.676z" fill="#ED5564" /><path d="M743.92 650.024L530.632 266.962c-3.766-6.766-10.906-10.968-18.64-10.968s-14.876 4.204-18.64 10.968L279.578 650.93a21.28 21.28 0 0 0 0.25 21.188 21.308 21.308 0 0 0 18.39 10.532h427.576c11.812 0 21.312-9.562 21.312-21.344a21.64 21.64 0 0 0-3.186-11.282z" fill="#FFCE54" /><path d="M511.96 618.652c-3.204 0-6.468-0.718-9.532-2.25-10.532-5.282-14.796-18.094-9.532-28.624l27.234-54.468-50.812 0.032a21.354 21.354 0 0 1-18.138-10.124 21.37 21.37 0 0 1-0.938-20.764l42.67-85.326c5.266-10.546 18.078-14.812 28.624-9.546 10.532 5.266 14.812 18.078 9.532 28.624l-27.218 54.45h50.828c7.374 0 14.248 3.828 18.124 10.124a21.332 21.332 0 0 1 0.938 20.748l-42.686 85.342c-3.734 7.47-11.264 11.782-19.094 11.782z" fill="#434A54" /><path d="M661.298 810.644H362.668c-11.78 0-21.342-9.562-21.342-21.344 0-11.78 9.562-21.31 21.342-21.31h298.63c11.812 0 21.376 9.532 21.376 21.31 0 11.782-9.562 21.344-21.376 21.344z" fill="#DA4453" /></svg>