<?xml version="1.0" standalone="no"?><!DOCTYPE svg PUBLIC "-//W3C//DTD SVG 1.1//EN" "http://www.w3.org/Graphics/SVG/1.1/DTD/svg11.dtd"><svg class="icon" width="128px" height="128.00px" viewBox="0 0 1024 1024" version="1.1" xmlns="http://www.w3.org/2000/svg"><path d="M565.344 0.004h-170.688c-11.782 0-21.312 9.532-21.312 21.312s9.532 21.344 21.312 21.344h170.688c11.782 0 21.312-9.562 21.312-21.344S577.124 0.004 565.344 0.004z" fill="#37BC9B" /><path d="M970.654 853.31c0 11.782-9.532 21.344-21.312 21.344h-224c-11.782 0-21.344-9.562-21.344-21.344v-42.656c0-11.782 9.562-21.342 21.344-21.342h224c11.782 0 21.312 9.56 21.312 21.342v42.656z" fill="#CCD1D9" /><path d="M949.342 21.316H613.718v127.998h271.624V448c0 35.344 28.656 64 64 64s64-28.656 64-64V85.314c0-35.342-28.656-63.998-64-63.998z" fill="#434A54" /><path d="M10.658 85.314l213.718 505.342L259.72 42.66z" fill="#37BC9B" /><path d="M862.998 895.998L822.342 42.628c-0.562-11.718-10.624-21.312-22.344-21.312H160.002c-11.718 0-21.782 9.594-22.344 21.312L97.002 895.998c-0.532 11.718-1 30.906-1 42.656v63.998c0 11.718 9.594 21.344 21.344 21.344h725.308c11.75 0 21.344-9.624 21.344-21.344v-63.998c0-11.75-0.468-30.938-1-42.656z" fill="#48CFAD" /><path d="M134.596 106.658h690.808l-2.03-42.656H136.626z" fill="#37BC9B" /><path d="M117.346 1023.996h725.308c11.75 0 21.344-9.624 21.344-21.344v-63.998H96.002v63.998c0 11.72 9.594 21.344 21.344 21.344z" fill="#656D78" /><path d="M224.002 959.998c11.782 0 21.344-9.562 21.344-21.344h-42.688c0 11.782 9.562 21.344 21.344 21.344zM352 959.998c11.782 0 21.344-9.562 21.344-21.344h-42.686c0 11.782 9.562 21.344 21.342 21.344zM480 959.998c11.782 0 21.344-9.562 21.344-21.344h-42.688c0 11.782 9.562 21.344 21.344 21.344zM608 959.998c11.782 0 21.344-9.562 21.344-21.344h-42.688c0 11.782 9.562 21.344 21.344 21.344zM735.998 959.998c11.782 0 21.344-9.562 21.344-21.344h-42.688c0 11.782 9.562 21.344 21.344 21.344z" fill="#434A54" /><path d="M480 746.656c-35.282 0-64-28.718-64-64V362.658c0-35.282 28.718-64 64-64 35.284 0 64 28.718 64 64v319.998c0 35.282-28.716 64-64 64z" fill="#656D78" /><path d="M419.938 469.312h119.094v254.812h-119.094z" fill="#5D9CEC" /><path d="M458.656 405.312c0 11.782-9.532 21.344-21.312 21.344S416 417.094 416 405.312c0-11.78 9.562-21.31 21.344-21.31s21.312 9.532 21.312 21.31zM458.656 576c0 11.75-9.532 21.312-21.312 21.312S416 587.75 416 576c0-11.812 9.562-21.344 21.344-21.344s21.312 9.532 21.312 21.344zM458.656 661.312c0 11.782-9.532 21.344-21.312 21.344S416 673.094 416 661.312 425.562 640 437.344 640s21.312 9.532 21.312 21.312zM458.656 490.656c0 11.782-9.532 21.344-21.312 21.344S416 502.438 416 490.656s9.562-21.344 21.344-21.344 21.312 9.564 21.312 21.344z" fill="#434A54" /><path d="M480 277.314c-47.124 0-85.344 38.218-85.344 85.344v319.998c0 47.126 38.22 85.344 85.344 85.344s85.344-38.218 85.344-85.344V362.658c0-47.124-38.22-85.344-85.344-85.344z m42.658 405.342c0 23.532-19.126 42.656-42.658 42.656s-42.656-19.124-42.656-42.656V362.658c0-23.532 19.124-42.656 42.656-42.656s42.658 19.124 42.658 42.656v319.998z" fill="#37BC9B" /></svg>