<?xml version="1.0" standalone="no"?><!DOCTYPE svg PUBLIC "-//W3C//DTD SVG 1.1//EN" "http://www.w3.org/Graphics/SVG/1.1/DTD/svg11.dtd"><svg class="icon" width="128px" height="128.00px" viewBox="0 0 1024 1024" version="1.1" xmlns="http://www.w3.org/2000/svg"><path d="M831.25 542.094c-7.062-8.782-17.562-8.782-22.032-8.782-17.498 0-55.56 6.312-91.686 17.938-50.31 16.248-84.31 38.06-101.09 64.874-14.812 23.748-15.624 50.686-2.344 77.904 9.25 19 25.124 29.438 44.716 29.438 28.624 0 63.842-22.562 107.716-68.938 30.562-32.342 58.936-70.466 66.28-85.78 6.128-12.81 2.534-21.56-1.56-26.654zM144.014 551.25c-36.124-11.624-74.218-17.938-91.702-17.938-4.468 0-14.954 0-22.016 8.782-4.11 5.094-7.704 13.844-1.578 26.654 7.328 15.312 35.718 53.438 66.264 85.748 43.874 46.406 79.124 68.968 107.748 68.968 19.578 0 35.452-10.438 44.718-29.438 13.282-27.218 12.454-54.156-2.376-77.904-16.762-26.812-50.762-48.624-101.058-64.872z" fill="#DDAB9F" /><path d="M708.096 645.122c0 209.246-179.528 378.868-277.338 378.868-97.794 0-277.322-169.622-277.322-378.868 0-209.212 124.17-378.834 277.322-378.834 153.186 0 277.338 169.62 277.338 378.834z" fill="#EAC6BB" /><path d="M955.874 246.724c-46.938-83.436-104.562-147.028-171.308-188.996C723.66 19.418 657.006 0.012 586.476 0.012c-63.218 0-128.234 16.282-188.028 47.092-57.39 29.562-108.966 71.842-149.154 122.28-36 45.186-61.466 94.592-75.686 146.778-15.218 55.906-16.578 111.936-4.062 166.59l3.796 16.562h505.786l-1.438-22.686c-5.594-87.092 27.876-142.31 56.938-173.278 26.688-28.468 72.03-57.218 113.09-57.218 11.844 0 21.218 2.812 25.156 7.5 2.532 3.094 3.218 7.968 2.032 14.562-1.156 6.376 0.532 12.876 4.656 17.812 4.188 5 10.438 7.876 17.188 7.876h0.062c3.688 0 10.656-0.094 49.124-17.186l21.438-9.532-11.5-20.44z" fill="#A0D468" /><path d="M998.558 253.944c0 46.374-37.56 83.966-83.936 83.966s-83.936-37.592-83.936-83.966 37.56-83.936 83.936-83.936 83.936 37.562 83.936 83.936z" fill="#E6E9ED" /><path d="M345.432 682.652c-11.782 0-21.328 9.562-21.328 21.344s9.546 21.312 21.328 21.312 21.328-9.532 21.328-21.312-9.548-21.344-21.328-21.344zM516.1 682.652c-11.782 0-21.342 9.562-21.342 21.344s9.562 21.312 21.342 21.312 21.328-9.532 21.328-21.312-9.548-21.344-21.328-21.344zM473.428 810.306c-8.734 0-16.218 5.248-19.532 12.78-0.516 0.968-4.312 7.062-17.328 8.562h-12.188c-12.36-1.438-15.968-7.032-16.562-8.124-3.204-7.75-10.828-13.216-19.718-13.216-11.782 0-21.344 9.56-21.344 21.342 0 2.532 0.468 4.968 1.282 7.218h-0.016c4.766 13.282 23.296 35.782 62.452 35.782 38.108 0 57.046-21.344 62.53-34.532l0.156-0.406c0.062-0.124 0.124-0.25 0.172-0.376h-0.016c0.922-2.406 1.438-4.968 1.438-7.688 0.002-11.78-9.544-21.342-21.326-21.342z m-19.656 13.062c-0.094 0.188-0.156 0.406-0.234 0.624l-0.016-0.032s0.062-0.218 0.25-0.592z m-45.606 1.062h-0.016a10.326 10.326 0 0 0-0.296-0.812c0.062 0.156 0.17 0.406 0.312 0.812z" fill="#434A54" /><path d="M729.44 554.656c0 23.56-19.124 42.654-42.688 42.654H174.764c-23.562 0-42.656-19.094-42.656-42.654V512c0-23.562 19.092-42.686 42.656-42.686h511.988c23.562 0 42.688 19.124 42.688 42.686v42.656z" fill="#E6E9ED" /></svg>