<?xml version="1.0" standalone="no"?><!DOCTYPE svg PUBLIC "-//W3C//DTD SVG 1.1//EN" "http://www.w3.org/Graphics/SVG/1.1/DTD/svg11.dtd"><svg class="icon" width="128px" height="128.00px" viewBox="0 0 1024 1024" version="1.1" xmlns="http://www.w3.org/2000/svg"><path d="M426.66 128.012c-11.782 0-21.312-9.562-21.312-21.344V21.326A21.296 21.296 0 0 1 426.66 0.016c11.78 0 21.342 9.53 21.342 21.31v85.342c0 11.782-9.562 21.344-21.342 21.344zM597.342 128.012c-11.782 0-21.344-9.562-21.344-21.344V21.326c0-11.782 9.562-21.31 21.344-21.31s21.312 9.53 21.312 21.31v85.342c0 11.782-9.53 21.344-21.312 21.344z" fill="#434A54" /><path d="M435.286 44.482a21.378 21.378 0 0 0-22.968 3.718L177.666 261.54a21.376 21.376 0 0 0-7 15.78v725.32c0 11.782 9.562 21.344 21.344 21.344H426.66c11.78 0 21.342-9.562 21.342-21.344V448.002a21.332 21.332 0 0 0-21.342-21.344h-21.312v-85.34h21.312c11.78 0 21.342-9.532 21.342-21.312V64.014c0-8.47-4.968-16.126-12.716-19.532zM846.334 261.54L611.686 48.202a21.378 21.378 0 0 0-22.968-3.718A21.296 21.296 0 0 0 576 64.016v255.992c0 11.782 9.562 21.312 21.344 21.312h21.312v85.34h-21.312c-11.782 0-21.344 9.532-21.344 21.344V1002.64c0 11.782 9.562 21.344 21.344 21.344h234.65c11.78 0 21.342-9.562 21.342-21.344V277.318a21.266 21.266 0 0 0-7.002-15.778z" fill="#5D9CEC" /><path d="M404.816 214.226c-11.782 0-21.312 9.532-21.312 21.312s9.532 21.344 21.312 21.344h43.186v-42.656h-43.186zM619.186 252.446c11.782 0 21.312-9.562 21.312-21.344s-9.532-21.344-21.312-21.344h-43.188v42.688h43.188zM320.006 469.314c-11.782 0-21.342-9.532-21.342-21.312v-127.996c0-11.812 9.56-21.344 21.342-21.344s21.344 9.532 21.344 21.344v127.996c0 11.782-9.562 21.312-21.344 21.312zM256.008 469.314c-11.782 0-21.342-9.532-21.342-21.312v-127.996c0-11.812 9.56-21.344 21.342-21.344s21.344 9.532 21.344 21.344v127.996c0 11.782-9.562 21.312-21.344 21.312zM703.996 469.314c-11.782 0-21.344-9.532-21.344-21.312v-127.996c0-11.812 9.562-21.344 21.344-21.344 11.78 0 21.342 9.532 21.342 21.344v127.996c0 11.782-9.562 21.312-21.342 21.312zM767.994 469.314c-11.782 0-21.344-9.532-21.344-21.312v-127.996c0-11.812 9.562-21.344 21.344-21.344s21.344 9.532 21.344 21.344v127.996c0 11.782-9.562 21.312-21.344 21.312z" fill="#4A89DC" /><path d="M682.652 938.644c11.782 0 21.344-9.562 21.344-21.344s-9.562-21.312-21.344-21.312h-106.654v42.656h106.654zM682.652 853.302c11.782 0 21.344-9.532 21.344-21.312 0-11.81-9.562-21.342-21.344-21.342h-106.654v42.654h106.654zM682.652 767.992c11.782 0 21.344-9.562 21.344-21.344s-9.562-21.344-21.344-21.344h-106.654v42.688h106.654zM682.652 682.65c11.782 0 21.344-9.56 21.344-21.342s-9.562-21.312-21.344-21.312h-106.654v42.654h106.654zM682.652 597.308c11.782 0 21.344-9.53 21.344-21.31 0-11.812-9.562-21.344-21.344-21.344h-106.654v42.654h106.654zM341.35 554.654c-11.782 0-21.344 9.532-21.344 21.344 0 11.782 9.562 21.31 21.344 21.31h106.652v-42.654h-106.652zM341.35 639.996c-11.782 0-21.344 9.532-21.344 21.312s9.562 21.342 21.344 21.342h106.652v-42.654h-106.652zM341.35 725.304c-11.782 0-21.344 9.562-21.344 21.344s9.562 21.344 21.344 21.344h106.652v-42.688h-106.652zM341.35 810.648c-11.782 0-21.344 9.532-21.344 21.342 0 11.782 9.562 21.312 21.344 21.312h106.652v-42.654h-106.652zM341.35 895.988c-11.782 0-21.344 9.532-21.344 21.312s9.562 21.344 21.344 21.344h106.652v-42.656h-106.652z" fill="#E6E9ED" /></svg>