<?xml version="1.0" standalone="no"?><!DOCTYPE svg PUBLIC "-//W3C//DTD SVG 1.1//EN" "http://www.w3.org/Graphics/SVG/1.1/DTD/svg11.dtd"><svg class="icon" width="128px" height="128.00px" viewBox="0 0 1024 1024" version="1.1" xmlns="http://www.w3.org/2000/svg"><path d="M920.458 772.738l-3.656-1.062c-52.936-14.248-70.808-27.874-94.372-36.874-83.624-31.81-105.374-54.748-110.936-65.624a19.342 19.342 0 0 1-0.532-1.188l-0.688-97.124-198.26-2.25-198.292 2.25-0.688 97.124c-0.172 0.376-0.328 0.812-0.532 1.188-5.562 10.876-27.31 33.812-110.902 65.624-23.578 9-41.484 22.624-94.436 36.874l-3.64 1.062c-48.186 15.938-80.608 60.624-80.608 111.06v140.186H1001.08v-140.186c0.002-50.434-32.404-95.122-80.622-111.06z" fill="#434A54" /><path d="M22.918 981.328h978.164v42.656H22.918zM22.918 895.986h978.164v42.654H22.918zM26.996 853.332h969.992a116.714 116.714 0 0 0-21.75-42.688H48.762a116.748 116.748 0 0 0-21.766 42.688zM201.602 734.802c-21.546 8.218-38.36 20.282-81.452 33.186h783.712c-43.124-12.904-59.934-24.966-81.434-33.186a755.004 755.004 0 0 1-23.75-9.468H225.334a753.176 753.176 0 0 1-23.732 9.468z" fill="#EC87C0" /><path d="M180.336 744.272c53.374 25.124 165.308 66.404 325.086 66.404 162.48 0 280.446-42.688 335.57-67.686-6.312-3-12.25-5.782-18.562-8.188-83.624-31.81-105.374-54.748-110.936-65.624a19.342 19.342 0 0 1-0.532-1.188l-0.688-97.124-198.26-2.25-198.292 2.25-0.688 97.124c-0.172 0.376-0.328 0.812-0.532 1.188-5.562 10.876-27.31 33.812-110.902 65.624-7.232 2.75-13.92 5.938-21.264 9.47z" fill="#DBAFA5" /><path d="M787.118 382.03c0 178.778-170.402 343.274-275.102 343.274-104.716 0-275.134-164.496-275.134-343.274 0-178.746 123.17-296.68 275.134-296.68 151.918-0.002 275.102 117.934 275.102 296.68z" fill="#EAC6BB" /><path d="M207.196 293.344h0.032-0.032zM787.118 379.904c-7.782-186.996-10.25-238.93-111.058-319.054-164.042-130.498-417.178-10.438-417.178-10.438l45.702 32S137.262 192.91 179.322 469.37c5.156 33.936 235.9-230.712 481.364-216.338l126.432 126.872z" fill="#EC87C0" /><path d="M661.34 511.996c0 23.564-19.094 42.688-42.656 42.688s-42.688-19.124-42.688-42.688c0-23.562 19.124-85.342 42.688-85.342s42.656 61.778 42.656 85.342z" fill="#5D9CEC" /></svg>