<?xml version="1.0" standalone="no"?><!DOCTYPE svg PUBLIC "-//W3C//DTD SVG 1.1//EN" "http://www.w3.org/Graphics/SVG/1.1/DTD/svg11.dtd"><svg class="icon" width="128px" height="128.00px" viewBox="0 0 1024 1024" version="1.1" xmlns="http://www.w3.org/2000/svg"><path d="M512 85.356c-11.782 0-21.312-9.562-21.312-21.342V21.358C490.688 9.576 500.22 0.016 512 0.016s21.312 9.56 21.312 21.342v42.656c0 11.778-9.53 21.342-21.312 21.342z" fill="#434A54" /><path d="M616.434 225.132l-85.372-170.65a21.31 21.31 0 0 0-38.124 0l-85.342 170.65a21.342 21.342 0 0 0 0.906 20.75 21.364 21.364 0 0 0 18.188 10.124h170.62c7.438 0 14.282-3.812 18.188-10.124a21.422 21.422 0 0 0 0.936-20.75z" fill="#656D78" /><path d="M435.72 351.816h161.588v672.168H435.72z" fill="#5D9CEC" /><path d="M661.308 512h-85.312a21.298 21.298 0 0 1-21.31-21.312v-127.996c0-11.782 9.532-21.342 21.31-21.342h85.312c11.812 0 21.374 9.56 21.374 21.342v127.996c0 11.78-9.56 21.312-21.374 21.312zM448.002 512h-85.31c-11.812 0-21.376-9.532-21.376-21.312v-127.996c0-11.782 9.562-21.342 21.376-21.342h85.31c11.782 0 21.312 9.56 21.312 21.342v127.996A21.3 21.3 0 0 1 448.002 512z" fill="#F6BB42" /><path d="M448.002 469.346h-106.686c-11.748 0-21.31 9.56-21.31 21.342v533.296h149.308V490.688c0-11.782-9.53-21.342-21.312-21.342zM682.682 469.346h-106.686c-11.78 0-21.31 9.56-21.31 21.342v533.296h149.308V490.688c0-11.782-9.562-21.342-21.312-21.342z" fill="#FFCE54" /><path d="M661.308 384.004H362.692c-6.312 0-12.25-2.75-16.312-7.532s-5.782-11.124-4.75-17.312l21.312-127.996a21.366 21.366 0 0 1 21.062-17.812h255.992c10.438 0 19.312 7.532 21.062 17.812l21.31 127.996a21.316 21.316 0 0 1-4.75 17.312 21.34 21.34 0 0 1-16.31 7.532z" fill="#FFCE54" /><path d="M533.312 469.346h-42.624c-11.812 0-21.374-9.562-21.374-21.344s9.56-21.312 21.374-21.312h42.624c11.81 0 21.374 9.532 21.374 21.312s-9.562 21.344-21.374 21.344zM533.312 554.686h-42.624c-11.812 0-21.374-9.562-21.374-21.342 0-11.782 9.56-21.344 21.374-21.344h42.624c11.81 0 21.374 9.562 21.374 21.344 0 11.78-9.562 21.342-21.374 21.342zM533.312 639.996h-42.624c-11.812 0-21.374-9.532-21.374-21.312s9.56-21.344 21.374-21.344h42.624c11.81 0 21.374 9.562 21.374 21.344s-9.562 21.312-21.374 21.312zM533.312 725.336h-42.624c-11.812 0-21.374-9.56-21.374-21.342s9.56-21.312 21.374-21.312h42.624c11.81 0 21.374 9.532 21.374 21.312s-9.562 21.342-21.374 21.342zM533.312 810.68h-42.624c-11.812 0-21.374-9.562-21.374-21.344s9.56-21.344 21.374-21.344h42.624c11.81 0 21.374 9.562 21.374 21.344s-9.562 21.344-21.374 21.344zM533.312 895.988h-42.624c-11.812 0-21.374-9.532-21.374-21.312s9.56-21.342 21.374-21.342h42.624c11.81 0 21.374 9.56 21.374 21.342s-9.562 21.312-21.374 21.312z" fill="#4A89DC" /><path d="M661.308 895.988c-11.75 0-21.312 9.562-21.312 21.344s9.562 21.344 21.312 21.344h42.686v-42.688h-42.686zM661.308 810.68c-11.75 0-21.312 9.532-21.312 21.31 0 11.782 9.562 21.344 21.312 21.344h42.686V810.68h-42.686zM661.308 725.336c-11.75 0-21.312 9.562-21.312 21.344s9.562 21.312 21.312 21.312h42.686v-42.656h-42.686zM661.308 639.996c-11.75 0-21.312 9.562-21.312 21.344s9.562 21.342 21.312 21.342h42.686v-42.686h-42.686zM661.308 554.686c-11.75 0-21.312 9.532-21.312 21.312s9.562 21.342 21.312 21.342h42.686v-42.654h-42.686zM362.692 597.34c11.75 0 21.312-9.56 21.312-21.342s-9.562-21.312-21.312-21.312h-42.686v42.654h42.686zM362.692 682.682c11.75 0 21.312-9.56 21.312-21.342s-9.562-21.344-21.312-21.344h-42.686v42.686h42.686zM362.692 767.992c11.75 0 21.312-9.532 21.312-21.312s-9.562-21.344-21.312-21.344h-42.686v42.656h42.686zM362.692 853.334c11.75 0 21.312-9.562 21.312-21.344 0-11.78-9.562-21.31-21.312-21.31h-42.686v42.654h42.686zM362.692 938.676c11.75 0 21.312-9.562 21.312-21.344s-9.562-21.344-21.312-21.344h-42.686v42.688h42.686z" fill="#5D9CEC" /><path d="M348.16 320.006h327.678l-7.092-42.656H355.254z" fill="#F6BB42" /></svg>