<?xml version="1.0" standalone="no"?><!DOCTYPE svg PUBLIC "-//W3C//DTD SVG 1.1//EN" "http://www.w3.org/Graphics/SVG/1.1/DTD/svg11.dtd"><svg class="icon" width="128px" height="128.00px" viewBox="0 0 1024 1024" version="1.1" xmlns="http://www.w3.org/2000/svg"><path d="M192.012 927.99H64.018c-11.782 0-21.328-9.562-21.328-21.342v-63.998c0-11.782 9.546-21.344 21.328-21.344h127.994c11.782 0 21.342 9.562 21.342 21.344v63.998c0 11.78-9.562 21.342-21.342 21.342zM959.982 927.99h-127.996c-11.78 0-21.31-9.562-21.31-21.342v-63.998c0-11.782 9.532-21.344 21.31-21.344h127.996c11.81 0 21.342 9.562 21.342 21.344v63.998c0 11.78-9.532 21.342-21.342 21.342z" fill="#434A54" /><path d="M1002.668 138.68H21.362C9.582 138.68 0.02 148.21 0.02 160.022v682.628c0 11.782 9.562 21.344 21.342 21.344h981.306c11.75 0 21.312-9.562 21.312-21.344V160.022c0-11.812-9.562-21.342-21.312-21.342z" fill="#656D78" /><path d="M533.342 202.676H85.36a21.33 21.33 0 0 0-21.342 21.342v554.634c0 11.782 9.562 21.344 21.342 21.344h447.982c11.782 0 21.344-9.562 21.344-21.344V224.018c0-11.812-9.562-21.342-21.344-21.342z" fill="#434A54" /><path d="M298.696 629.316c-11.78 0-21.328 9.562-21.328 21.344 0 11.78 9.546 21.342 21.328 21.342s21.344-9.562 21.344-21.342c0-11.782-9.564-21.344-21.344-21.344zM298.742 330.67c-33.436 0-59.982 10.124-78.904 30.124-27.468 28.966-27.984 68.684-27.812 76.402 0 0.032-0.016 0.094-0.016 0.124 0 0.156 0.032 0.312 0.032 0.468 0.016 0.344 0.016 0.594 0.032 0.688 0.61 11.25 9.89 20.188 21.28 20.188 11.782 0 21.328-9.562 21.328-21.344 0-0.344-0.032-0.688-0.046-1l0.046-0.032c-0.016-0.282-0.968-28.342 16.328-46.372 10.562-11 26.608-16.592 47.732-16.592 25.342 0 42.436 6.186 52.232 18.874 7.75 10.03 11.688 25.218 11.718 45.154 0.032 14.312-12.25 32.656-34.578 51.748-19.452 16.594-39.452 27.624-39.638 27.718a21.36 21.36 0 0 0-11.094 18.718l-0.032 51.09c0 11.782 9.546 21.344 21.328 21.344h0.016c11.766 0 21.312-9.562 21.328-21.344l0.016-38.874c26.062-16.186 85.416-58.748 85.324-110.464-0.124-68.744-37.982-106.618-106.62-106.618z" fill="#A0D468" /><path d="M945.42 203.77L625.434 97.118a21.36 21.36 0 0 0-19.25 2.906 21.38 21.38 0 0 0-8.842 17.312v767.968c0 6.876 3.28 13.312 8.842 17.312a21.366 21.366 0 0 0 12.5 4.032c2.25 0 4.532-0.376 6.75-1.094l319.986-106.684c8.688-2.876 14.562-11.032 14.562-20.218V224.018c0-9.186-5.874-17.342-14.562-20.248z" fill="#434A54" /><path d="M618.684 96.024h-85.342c-11.782 0-21.342 9.53-21.342 21.312v767.968c0 11.782 9.56 21.344 21.342 21.344h85.342c11.748 0 21.31-9.562 21.31-21.344V117.336c0-11.782-9.562-21.312-21.31-21.312z" fill="#AAB2BC" /><path d="M727.18 416.012c-23.936 0-42.686 37.466-42.686 85.308s18.75 85.34 42.686 85.34c23.934 0 42.684-37.498 42.684-85.34s-18.75-85.308-42.684-85.308z" fill="#FFCE54" /></svg>