<?xml version="1.0" standalone="no"?><!DOCTYPE svg PUBLIC "-//W3C//DTD SVG 1.1//EN" "http://www.w3.org/Graphics/SVG/1.1/DTD/svg11.dtd"><svg class="icon" width="128px" height="128.00px" viewBox="0 0 1024 1024" version="1.1" xmlns="http://www.w3.org/2000/svg"><path d="M711.398 408.542l-95.62-95.748L927.644 0.02l95.966 0.156-0.344 95.592z" fill="#CCD1D9" /><path d="M664.558 684.316c-6.406-224.088 147.028-352.772 147.028-352.772l-60-60.092-59.968-60.092s-128.464 153.684-352.132 147.278c-87.31-1.844-175.184 30.624-241.806 97.34-129.716 129.936-129.716 340.616 0 470.55 129.684 129.938 339.992 129.938 469.692 0 66.624-66.746 99.03-154.778 97.186-242.212z" fill="#FC6E51" /><path d="M567.372 926.528a331.5 331.5 0 0 0 19.312-21.09c-46.734-32.124-141.388-105.312-244.416-208.34-115.28-115.278-196.902-220.746-225.37-258.932a342.85 342.85 0 0 0-19.218 17.812c-4 4-7.844 8.062-11.594 12.218 32.062 42.656 113.31 146.37 226.026 259.088 112.028 112.028 204.744 181.278 244.76 209.304a316.816 316.816 0 0 0 10.5-10.06z" fill="#E9573F" /><path d="M664.558 684.316c-6.406-224.088 147.028-352.772 147.028-352.772l-30.188-30.188s-153.402 128.716-146.996 352.772c1.812 87.468-30.594 175.496-97.204 242.246-124.59 124.778-323.46 129.684-453.896 14.778a316.144 316.144 0 0 0 14.376 15.376c129.684 129.938 339.992 129.938 469.692 0 66.626-66.746 99.032-154.778 97.188-242.212z" fill="#FFFFFF" opacity=".2" /><path d="M812.368 332.106l-120.688-120.684c-8.312-8.312-21.84-8.312-30.152 0a21.33 21.33 0 0 0 0 30.186l120.652 120.654a21.332 21.332 0 0 0 30.188 0c8.342-8.312 8.342-21.812 0-30.156z" fill="#E6E9ED" /></svg>