<?xml version="1.0" standalone="no"?><!DOCTYPE svg PUBLIC "-//W3C//DTD SVG 1.1//EN" "http://www.w3.org/Graphics/SVG/1.1/DTD/svg11.dtd"><svg class="icon" width="128px" height="128.00px" viewBox="0 0 1024 1024" version="1.1" xmlns="http://www.w3.org/2000/svg"><path d="M906.871373 917.669246c0-11.749862-9.561888-21.31175-21.311751-21.31175-3.311961 0-6.375925 0.749991-9.187892 2.093975v-0.031999c-117.372625 55.875345-279.86672 112.560681-387.37946 65.281235-58.935309-25.937696-73.529138-71.499162-74.123132-73.43714l0.062 0.155998-40.99952 11.875861c0.781991 2.623969 19.65577 65.311235 96.278872 99.748831 32.46762 14.593829 70.437175 21.937743 113.294672 21.937743 14.999824 0 30.561642-0.905989 46.747452-2.687968 75.623114-8.437901 164.558072-36.811569 264.492901-84.343012l-0.062-0.032c7.187916-3.43796 12.187857-10.749874 12.187858-19.249774z" fill="#434A54" /><path d="M458.898622 896.357496c0 11.781862-9.561888 21.31175-21.34175 21.31175h-85.343a21.29975 21.29975 0 0 1-21.31175-21.31175v-149.33825c0-11.781862 9.531888-21.34375 21.31175-21.34375h85.343c11.779862 0 21.34175 9.561888 21.34175 21.34375v149.33825z" fill="#656D78" /><path d="M352.213872 853.669996c0-11.747862-9.531888-21.30975-21.31175-21.30975v42.6855c11.781862-0.002 21.31175-9.563888 21.31175-21.37575zM437.556872 853.669996c0 11.811862 9.559888 21.37575 21.34175 21.37575v-42.6855c-11.779862 0-21.34175 9.561888-21.34175 21.30975z" fill="#434A54" /><path d="M117.128627 213.3295l43.155495 469.3145s30.499643 127.9965 234.64925 127.9965c204.135608 0 234.63325-127.9965 234.63325-127.9965l42.187506-469.3145H117.128627z" fill="#EC87C0" /><path d="M650.878373 0.008H138.940372c-11.781862 0-21.34375 9.545888-21.34375 21.32775l-0.467995 191.99375h554.625501V16.867802c-2.061976-9.641887-10.625875-16.859802-20.875755-16.859802z" fill="#E6E9ED" /><path d="M565.319375 106.66075c0 11.781862-9.561888 21.34375-21.32775 21.34375H245.343125c-11.781862 0-21.34375-9.561888-21.34375-21.34375V0.008H565.319375v106.65275z" fill="#656D78" /><path d="M543.991625 21.33575c0-11.781862-9.531888-21.32775-21.31175-21.32775s-21.34375 9.545888-21.34375 21.32775 9.561888 21.32775 21.34375 21.32775 21.31175-9.545888 21.31175-21.32775zM543.991625 64.00525c0-11.795862-9.531888-21.34175-21.31175-21.34175s-21.34375 9.545888-21.34375 21.34175c0 11.779862 9.561888 21.32775 21.34375 21.32775s21.31175-9.545888 21.31175-21.32775zM501.336125 106.66075c0 11.781862 9.561888 21.34375 21.34375 21.34375s21.31175-9.561888 21.31175-21.34375-9.531888-21.32775-21.31175-21.32775-21.34375 9.545888-21.34375 21.32775zM479.992375 42.6635c0-11.781862-9.531888-21.32775-21.31175-21.32775s-21.34175 9.545888-21.34175 21.32775c0 11.779862 9.559888 21.34175 21.34175 21.34175s21.31175-9.561888 21.31175-21.34175zM437.338875 85.333c0 11.781862 9.559888 21.32775 21.34175 21.32775s21.31175-9.545888 21.31175-21.32775c0-11.779862-9.531888-21.32775-21.31175-21.32775s-21.34175 9.547888-21.34175 21.32775zM415.995125 21.33575c0-11.781862-9.531888-21.32775-21.31175-21.32775s-21.34375 9.545888-21.34375 21.32775 9.561888 21.32775 21.34375 21.32775 21.31175-9.545888 21.31175-21.32775zM373.339625 64.00525c0 11.779862 9.561888 21.32775 21.34375 21.32775s21.31175-9.545888 21.31175-21.32775c0-11.795862-9.531888-21.34175-21.31175-21.34175s-21.34375 9.545888-21.34375 21.34175zM373.339625 106.66075c0 11.781862 9.561888 21.34375 21.34375 21.34375s21.31175-9.561888 21.31175-21.34375-9.531888-21.32775-21.31175-21.32775-21.34375 9.545888-21.34375 21.32775zM351.995875 42.6635c0-11.781862-9.531888-21.32775-21.31175-21.32775-11.779862 0-21.34175 9.545888-21.34175 21.32775 0 11.779862 9.561888 21.34175 21.34175 21.34175s21.31175-9.561888 21.31175-21.34175zM309.342375 85.333c0 11.781862 9.561888 21.32775 21.34175 21.32775 11.781862 0 21.31175-9.545888 21.31175-21.32775 0-11.779862-9.531888-21.32775-21.31175-21.32775-11.779862 0-21.34175 9.547888-21.34175 21.32775zM287.998625 21.33575c0-11.781862-9.531888-21.32775-21.31175-21.32775S245.343125 9.553888 245.343125 21.33575s9.561888 21.32775 21.34375 21.32775 21.31175-9.545888 21.31175-21.32775zM245.343125 64.00525c0 11.779862 9.561888 21.32775 21.34375 21.32775s21.31175-9.545888 21.31175-21.32775c0-11.795862-9.531888-21.34175-21.31175-21.34175s-21.34375 9.545888-21.34375 21.34175zM245.343125 106.66075c0 11.781862 9.561888 21.34375 21.34375 21.34375s21.31175-9.561888 21.31175-21.34375-9.531888-21.32775-21.31175-21.32775-21.34375 9.545888-21.34375 21.32775z" fill="#434A54" /><path d="M458.680625 341.326h-127.9965c-35.341586 0-63.99725 28.655664-63.99725 63.99925s28.655664 63.99925 63.99725 63.99925h127.9965c35.343586 0 63.99925-28.655664 63.99925-63.99925s-28.655664-63.99925-63.99925-63.99925z m0 85.325h-127.9965c-11.779862 0-21.34175-9.561888-21.34175-21.32775 0-11.763862 9.561888-21.32775 21.34175-21.32775h127.9965c11.749862 0 21.31175 9.561888 21.31175 21.32775s-9.561888 21.32775-21.31175 21.32775z" fill="#D770AD" /></svg>