<?xml version="1.0" standalone="no"?><!DOCTYPE svg PUBLIC "-//W3C//DTD SVG 1.1//EN" "http://www.w3.org/Graphics/SVG/1.1/DTD/svg11.dtd"><svg class="icon" width="128px" height="128.00px" viewBox="0 0 1024 1024" version="1.1" xmlns="http://www.w3.org/2000/svg"><path d="M890.418 984.11c8.344 21.938-4.06 39.876-27.528 39.876H161.1c-23.468 0-35.842-17.938-27.53-39.876l221.556-584.106c8.312-21.936 34.062-36.748 57.216-32.874l57.56 9.592c23.156 3.844 61.03 3.844 84.186 0l57.56-9.592c23.156-3.876 48.904 10.936 57.216 32.874l221.554 584.106z" fill="#9B5C5C" /><path d="M511.996 725.336c-11.782 0-21.344-9.53-21.344-21.342V490.688c0-11.782 9.562-21.342 21.344-21.342 11.78 0 21.342 9.562 21.342 21.342v213.306c0 11.812-9.562 21.342-21.342 21.342zM405.342 597.342A21.332 21.332 0 0 1 384 575.998v-106.654c0-11.782 9.562-21.342 21.342-21.342 11.782 0 21.312 9.562 21.312 21.342v106.654c0 11.812-9.53 21.344-21.312 21.344zM618.648 554.686c-11.782 0-21.312-9.56-21.312-21.342v-70.406c0-11.78 9.532-21.31 21.312-21.31s21.344 9.53 21.344 21.31v70.406c0 11.782-9.562 21.342-21.344 21.342z" fill="#E8563F" /><path d="M635.274 263.976c-0.688-0.844-16.562-20.938-1.5-36.062 33.498-33.624 15.592-74.872 1.376-92.09l-0.062-0.062a21.296 21.296 0 0 0-16.438-7.75c-11.782 0-21.312 9.562-21.312 21.342 0 5.188 1.844 9.936 4.906 13.624 0.032 0.032 4.532 5.876 6.718 13.312 2.562 8.718 0.938 15.156-5.406 21.53-33.406 33.53-15.594 75.436-1.5 92.936v-0.032a21.32 21.32 0 0 0 16.594 7.968c11.782 0 21.344-9.562 21.344-21.342a21.332 21.332 0 0 0-4.72-13.374z" fill="#CBD0D8" /><path d="M547.838 73.858c-5.594-31.842-16.344-57.53-17.688-60.716l-0.094-0.188a0.248 0.248 0 0 0-0.062-0.126c-3.282-7.532-10.78-12.812-19.53-12.812-11.782 0-21.344 9.562-21.344 21.344 0 3.032 0.656 5.906 1.782 8.532 0.094 0.218 9.938 23 14.906 51.31 4.156 23.812 5.562 56.25-11.344 75.374-22.342 25.282-29.468 63.716-20.562 111.216 5.842 31.218 16.686 56.528 18.436 60.498 0 0.032 0 0.062 0.032 0.094 0.094 0.218 0.156 0.376 0.188 0.406 3.344 7.406 10.782 12.562 19.438 12.562 11.78 0 21.342-9.532 21.342-21.342 0-3.094-0.688-6.062-1.906-8.75h0.032c-10.938-24.374-33.156-94.592-5.032-126.434 22.28-25.19 29.688-63.564 21.406-110.968z" fill="#A9B1BC" /><path d="M421.81 135.824c0-0.032-0.032-0.032-0.032-0.032v-0.032h-0.032c-3.906-4.718-9.812-7.75-16.406-7.75-11.78 0-21.342 9.562-21.342 21.342 0 5.188 1.844 9.936 4.906 13.624 0.062 0.032 4.562 5.876 6.718 13.312 2.562 8.718 0.938 15.156-5.406 21.53-33.406 33.53-15.594 75.436-1.5 92.936v-0.032c3.938 4.842 9.906 7.968 16.624 7.968 11.782 0 21.312-9.562 21.312-21.342a21.14 21.14 0 0 0-4.718-13.376c-0.688-0.844-16.562-20.938-1.5-36.062 33.53-33.618 15.596-74.898 1.376-92.086z" fill="#CBD0D8" /><path d="M511.996 490.688c127.998 0 177.368-36.654 177.368-36.654l-20.498-54.03c-8.312-21.936-34.06-36.748-57.216-32.874l-57.56 9.592c-23.156 3.844-61.03 3.844-84.186 0l-57.56-9.592c-23.156-3.876-48.906 10.936-57.216 32.874l-23.532 62.03c-0.002-0.002 52.404 28.654 180.4 28.654z" fill="#FB6D51" /></svg>