<?xml version="1.0" standalone="no"?><!DOCTYPE svg PUBLIC "-//W3C//DTD SVG 1.1//EN" "http://www.w3.org/Graphics/SVG/1.1/DTD/svg11.dtd"><svg class="icon" width="128px" height="128.00px" viewBox="0 0 1024 1024" version="1.1" xmlns="http://www.w3.org/2000/svg"><path d="M576.004 649.34h-127.996v310.646c0 35.312 28.702 63.998 63.998 63.998 35.282 0 63.998-28.686 63.998-63.998V649.34z" fill="#E6E9ED" /><path d="M448.008 853.334h127.996v85.342h-127.996zM512.006 0.016c-141.386 0-255.992 114.622-255.992 255.992v511.984h511.984V256.008C767.998 114.638 653.376 0.016 512.006 0.016z" fill="#A0D468" /><path d="M441.758 240.946c-8.328-8.344-21.842-8.344-30.17 0a21.21 21.21 0 0 0-6.25 15.062v341.334c0 5.468 2.078 10.906 6.25 15.094 8.328 8.312 21.842 8.312 30.17 0a21.3 21.3 0 0 0 6.25-15.124V256.04c0-5.47-2.078-10.938-6.25-15.094zM612.408 240.946c-8.312-8.344-21.81-8.344-30.154 0a21.276 21.276 0 0 0-6.25 15.062v341.334c0 5.468 2.094 10.906 6.25 15.094 8.344 8.312 21.842 8.312 30.154 0a21.216 21.216 0 0 0 6.25-15.094V256.008c0-5.438-2.062-10.906-6.25-15.062z" fill="#8CC153" /><path d="M661.346 705.806h-42.688v83.53c0 5.468 2.094 10.906 6.25 15.094 8.344 8.312 21.844 8.312 30.188 0a21.368 21.368 0 0 0 6.25-15.124v-83.5zM746.654 831.99v-83.558H704v83.558a21.3 21.3 0 0 0 6.25 15.094c8.344 8.344 21.842 8.344 30.154 0 4.188-4.156 6.25-9.626 6.25-15.094zM262.248 750.244c-8.328 8.342-8.328 21.842 0 30.186 8.344 8.312 21.842 8.312 30.17 0 8.328-8.344 8.328-21.844 0-30.186-8.328-8.312-21.826-8.312-30.17 0zM362.666 748.432h-42.656v83.558c0 5.468 2.078 10.938 6.25 15.094a21.294 21.294 0 0 0 30.156 0 21.228 21.228 0 0 0 6.25-15.094v-83.558z" fill="#A0D468" /></svg>