<?xml version="1.0" standalone="no"?><!DOCTYPE svg PUBLIC "-//W3C//DTD SVG 1.1//EN" "http://www.w3.org/Graphics/SVG/1.1/DTD/svg11.dtd"><svg class="icon" width="128px" height="128.00px" viewBox="0 0 1024 1024" version="1.1" xmlns="http://www.w3.org/2000/svg"><path d="M863.92 923.87c-3.404 0-6.592 0.812-9.466 2.218-2.312 1.124-234.226 113.724-395.346 13.652-106.1-65.89-159.9-209.826-159.9-427.776 0-217.826 53.738-361.714 159.744-427.636 36.43-22.668 79.484-36.196 127.972-40.242 39.552-3.31 82.824-0.344 128.562 8.794 78.954 15.764 138.406 44.802 139 45.1v-0.016a21.2 21.2 0 0 0 9.436 2.218c11.78 0 21.306-9.544 21.306-21.324 0-8.388-4.842-15.622-11.872-19.104v-0.014c-2.562-1.282-64.204-31.494-148.372-48.458C675.214 1.238 627.818-2.042 584.14 1.502c-55.52 4.532-105.164 20.184-147.53 46.49-119.472 74.202-180.052 230.306-180.052 463.972 0 233.696 60.58 389.816 180.052 464.018 42.366 26.306 92.01 41.958 147.53 46.49 11.402 0.938 23.056 1.406 34.96 1.406 33.618 0 69.11-3.718 105.882-11.154 84.168-16.934 145.808-47.146 148.372-48.428 7.03-3.498 11.872-10.714 11.872-19.12a21.29 21.29 0 0 0-21.306-21.306z" fill="#4A89DC" /><path d="M693.302 597.318H160.082c-11.778 0-21.308 9.532-21.308 21.308s9.53 21.34 21.308 21.34h533.222c11.78 0 21.306-9.562 21.306-21.34s-9.528-21.308-21.308-21.308zM714.61 469.35H181.42c-11.778 0-21.338 9.542-21.338 21.322s9.56 21.324 21.338 21.324h533.19c11.782 0 21.34-9.544 21.34-21.324s-9.56-21.322-21.34-21.322z" fill="#5D9CEC" /></svg>