<?xml version="1.0" standalone="no"?><!DOCTYPE svg PUBLIC "-//W3C//DTD SVG 1.1//EN" "http://www.w3.org/Graphics/SVG/1.1/DTD/svg11.dtd"><svg class="icon" width="128px" height="128.00px" viewBox="0 0 1024 1024" version="1.1" xmlns="http://www.w3.org/2000/svg"><path d="M682.622 618.378H64.008c-11.782 0-21.328 9.562-21.328 21.376v107.188c0 11.75 9.546 21.312 21.328 21.312h149.294c2.296 0 4.516-0.376 6.594-1.062H682.62v-148.814z" fill="#CCD1D9" /><path d="M580.624 613.132l-145.874-302.104 38.422-18.53 145.888 302.072zM640.028 661.066H21.338c-11.782 0-21.328-9.562-21.328-21.312 0-11.812 9.546-21.376 21.328-21.376h618.69c11.782 0 21.344 9.562 21.344 21.376 0 11.75-9.564 21.312-21.344 21.312z" fill="#E6E9ED" /><path d="M576 383.746l-362.666-170.654 42.656-42.656 405.288 173.31v296.008H576z" fill="#E6E9ED" /><path d="M213.334 408.402c0 11.78 9.546 21.312 21.328 21.312s21.328-9.532 21.328-21.312v-195.31h-42.656v195.31z" fill="#E6E9ED" /><path d="M255.802 490.274v-85.186c0-11.782-9.546-21.344-21.328-21.344-11.78 0-21.328 9.562-21.328 21.344V490.4c0 0.282-0.016 0.188 0 0.344-0.046 2-0.672 7.718-3.218 12.438-2.296 4.25-6.218 8.562-17.922 8.562-11.876 0-15.858-4.406-18-8.282-2.546-4.594-3.14-10.218-3.156-12v0.282h-0.266c0.016-0.344 0.046-0.718 0.046-1.062 0-11.782-9.546-21.344-21.328-21.344s-21.328 9.562-21.328 21.344c0 1.156 0.11 2.25 0.282 3.376 0.406 7.844 2.922 27.5 17.75 42.656 7.906 8.046 22.312 17.672 46 17.672 23.484 0 37.828-9.562 45.718-17.64 17.594-17.972 18.124-42.44 18.078-46.472z" fill="#434A54" /><path d="M661.308 745.878l0.25-404.602 200.81-0.188 83.78 143.842 56.468 38.124-0.376 222.824z" fill="#A0D468" /><path d="M937.43 469.962l-75.062-128.874-200.81 0.188-0.094 128.686z" fill="#4FC2E9" /><path d="M962.118 469.962l-87.5-150.216-234.372 0.218-0.312 447.226h383.62l0.438-255.448-61.874-41.78z m18.842 254.604H682.62l0.25-361.978 167.214-0.156 75.156 129.03 4.938 8.406 8.062 5.468 43.062 29.062-0.342 190.168z" fill="#A0D468" /><path d="M831.932 640.254c-58.904 0-106.654 47.75-106.654 106.688 0 58.876 47.75 106.622 106.654 106.622s106.686-47.746 106.686-106.622c0-58.938-47.782-106.688-106.686-106.688zM234.63 640.254c-58.904 0-106.654 47.75-106.654 106.688 0 58.876 47.75 106.622 106.654 106.622 58.906 0 106.67-47.746 106.67-106.622 0-58.938-47.764-106.688-106.67-106.688z" fill="#434A54" /><path d="M725.308 362.526h42.688v107.436h-42.688z" fill="#3BAFDA" /><path d="M810.62 746.942c0 11.75 9.532 21.312 21.312 21.312 11.78 0 21.342-9.562 21.342-21.312 0-11.812-9.562-21.376-21.342-21.376-11.782 0-21.312 9.562-21.312 21.376zM1023.834 599.132a21.396 21.396 0 0 0-10.156-2.562h-32.374c-11.812 0-21.344 9.5-21.344 21.308 0 11.75 9.532 21.312 21.344 21.312h32.374c3.656 0 7.094-0.876 10.094-2.5l0.062-37.558zM213.302 746.942c0 11.75 9.546 21.312 21.328 21.312s21.328-9.562 21.328-21.312c0-11.812-9.546-21.376-21.328-21.376-11.78 0-21.328 9.562-21.328 21.376z" fill="#E6E9ED" /></svg>