<?xml version="1.0" standalone="no"?><!DOCTYPE svg PUBLIC "-//W3C//DTD SVG 1.1//EN" "http://www.w3.org/Graphics/SVG/1.1/DTD/svg11.dtd"><svg class="icon" width="128px" height="128.00px" viewBox="0 0 1024 1024" version="1.1" xmlns="http://www.w3.org/2000/svg"><path d="M853.29 0.02H170.678c-11.782 0-21.342 9.532-21.342 21.312v981.304c0 11.782 9.56 21.344 21.342 21.344h682.612c11.812 0 21.376-9.562 21.376-21.344V21.332C874.664 9.55 865.102 0.02 853.29 0.02z" fill="#E6E9ED" /><path d="M853.29 0.02H170.678c-11.782 0-21.342 9.532-21.342 21.312v63.998h725.328V21.332c0-11.782-9.562-21.312-21.374-21.312z" fill="#E6E9ED" /><path d="M756.418 307.852a21.334 21.334 0 0 0-19.81 6.906c0 0.062-5.75 6.592-16.624 17.468-18.81 18.75-58.748 56.28-115.434 96.84-0.938 0.688-1.812 1.438-2.624 2.282L375.264 657.994c-8.344 8.312-8.344 21.844 0 30.156l90.434 90.462a21.356 21.356 0 0 0 30.186 0l95.232-95.212 149.492-149.526c33.998-34.032 50.248-81.904 46.936-138.464-2.438-41.278-14.438-72.904-14.938-74.248a21.314 21.314 0 0 0-16.188-13.31z" fill="#AAB2BC" /><path d="M342.11 914.294c-4 4-9.438 6.25-15.094 6.25s-11.094-2.25-15.094-6.25l-72.374-72.372c-8.31-8.312-8.31-21.812 0-30.156l144.746-144.742a21.354 21.354 0 0 1 30.186 0l72.342 72.374a21.334 21.334 0 0 1 0 30.186l-144.712 144.71z" fill="#ED5564" /><path d="M360.202 932.388a21.33 21.33 0 0 1-30.186 0l-90.466-90.464c-8.31-8.312-8.31-21.812 0-30.156a21.332 21.332 0 0 1 30.188 0l90.464 90.466c8.312 8.312 8.312 21.842 0 30.154z" fill="#DA4453" /><path d="M149.336 64.018h725.328v42.654H149.336z" fill="#ED5564" /><path d="M767.856 448.002H255.862c-11.782 0-21.342 9.532-21.342 21.312v127.994c0 11.782 9.56 21.344 21.342 21.344h511.994c5.876 0 11.188-2.376 15.062-6.25a21.17 21.17 0 0 0 6.25-15.094v-127.994c0-11.78-9.562-21.312-21.312-21.312z" fill="#FFCE54" /><path d="M698.986 548.404a21.096 21.096 0 0 1-15.062 6.25H339.922c-11.782 0-21.312-9.562-21.312-21.342A21.3 21.3 0 0 1 339.922 512h344.002a21.28 21.28 0 0 1 21.312 21.312c0 5.906-2.374 11.248-6.25 15.092zM523.006 805.736c-8.31 8.344-21.842 8.344-30.154 0l-126.65-126.618c-8.312-8.344-8.312-21.844 0-30.186 8.344-8.312 21.842-8.312 30.186 0l126.62 126.648c8.342 8.346 8.342 21.846-0.002 30.156z" fill="#434A54" /></svg>