<?xml version="1.0" standalone="no"?><!DOCTYPE svg PUBLIC "-//W3C//DTD SVG 1.1//EN" "http://www.w3.org/Graphics/SVG/1.1/DTD/svg11.dtd"><svg class="icon" width="128px" height="128.00px" viewBox="0 0 1024 1024" version="1.1" xmlns="http://www.w3.org/2000/svg"><path d="M938.608 469.376H85.33a21.268 21.268 0 0 0-21.312 21.31v383.986a21.268 21.268 0 0 0 21.312 21.31h853.278c11.812 0 21.376-9.5 21.376-21.31V490.688c-0.002-11.812-9.564-21.312-21.376-21.312z" fill="#CCD1D9" /><path d="M938.608 426.69H85.33c-11.796 0-21.312 9.562-21.312 21.312v383.984c0 11.812 9.514 21.376 21.312 21.376h853.278a21.366 21.366 0 0 0 21.376-21.376V448.002c-0.002-11.75-9.564-21.312-21.376-21.312z" fill="#E6E9ED" /><path d="M831.986 767.99H192.012c-11.796 0-21.358-9.562-21.358-21.312 0-11.81 9.562-21.31 21.358-21.31h639.974c11.75 0 21.31 9.5 21.31 21.31 0 11.75-9.56 21.312-21.31 21.312z" fill="#656D78" /><path d="M831.986 469.376H192.012c-11.796 0-21.358-9.562-21.358-21.376 0-11.75 9.562-21.312 21.358-21.312h639.974c11.75 0 21.31 9.562 21.31 21.312 0 11.814-9.56 21.376-21.31 21.376z" fill="#CCD1D9" /><path d="M780.176 533.376c0 11.748 9.562 21.31 21.312 21.31 11.812 0 21.31-9.562 21.31-21.31 0-11.812-9.498-21.376-21.31-21.376-11.75 0-21.312 9.562-21.312 21.376z" fill="#A0D468" /><path d="M694.806 533.376c0 11.748 9.562 21.31 21.374 21.31 11.75 0 21.31-9.562 21.31-21.31 0-11.812-9.56-21.376-21.31-21.376a21.366 21.366 0 0 0-21.374 21.376z" fill="#ED5564" /><path d="M609.496 533.376c0 11.748 9.562 21.31 21.31 21.31 11.812 0 21.376-9.562 21.376-21.31A21.366 21.366 0 0 0 630.806 512c-11.748 0-21.31 9.562-21.31 21.376zM825.736 176.918l-170.648-170.68A21.386 21.386 0 0 0 639.994 0.02H213.338c-11.78 0-21.328 9.532-21.328 21.312V426.66c0 11.78 9.546 21.342 21.328 21.342h597.336c11.748 0 21.31-9.562 21.31-21.342V192.012a21.3 21.3 0 0 0-6.248-15.094z" fill="#FFCE54" /><path d="M639.994 0.02v170.65c0 11.782 9.562 21.344 21.312 21.344h170.68a21.44 21.44 0 0 0-3.562-11.844l-0.032-0.032a18.288 18.288 0 0 0-1.156-1.562 0.53 0.53 0 0 1-0.124-0.156c-0.406-0.468-0.812-0.938-1.25-1.376-0.25-0.25-0.5-0.532-0.75-0.75L655.088 6.238A21.386 21.386 0 0 0 639.994 0.02z" fill="#F6BB42" /><path d="M256.01 1023.98c-11.782 0-21.328-9.562-21.328-21.344V746.646h42.654v255.99c0 11.782-9.546 21.344-21.326 21.344zM341.334 1023.98c-11.782 0-21.328-9.562-21.328-21.344V746.646h42.67v255.99c0.002 11.782-9.56 21.344-21.342 21.344zM426.674 1023.98c-11.782 0-21.344-9.562-21.344-21.344V746.646H448v255.99c0.002 11.782-9.544 21.344-21.326 21.344zM512 1023.98c-11.782 0-21.328-9.562-21.328-21.344V746.646h42.654v255.99c0 11.782-9.546 21.344-21.326 21.344z" fill="#FFCE54" /><path d="M597.31 1023.98c-11.75 0-21.312-9.562-21.312-21.344V746.646h42.686v255.99c0 11.782-9.562 21.344-21.374 21.344z" fill="#FFCE54" /><path d="M682.682 1023.98c-11.812 0-21.376-9.562-21.376-21.344V746.646h42.688v255.99c0 11.782-9.562 21.344-21.312 21.344z" fill="#FFCE54" /><path d="M767.988 1023.98c-11.782 0-21.31-9.562-21.31-21.344V746.646h42.624v255.99c-0.002 11.782-9.532 21.344-21.314 21.344z" fill="#FFCE54" /><path d="M426.674 384.004c-82.34 0-149.338-66.998-149.338-149.338 0-82.34 66.998-149.338 149.338-149.338 82.34 0 149.324 66.998 149.324 149.338 0 82.342-66.982 149.338-149.324 149.338z m0-255.988c-58.81 0-106.666 47.84-106.666 106.652s47.858 106.652 106.666 106.652c58.81 0 106.652-47.842 106.652-106.652s-47.84-106.652-106.652-106.652z" fill="#ED5564" /><path d="M426.674 256.01c-11.782 0-21.344-9.562-21.344-21.342v-64c0-11.78 9.562-21.342 21.344-21.342 11.78 0 21.328 9.562 21.328 21.342v63.998c0 11.782-9.546 21.344-21.328 21.344z" fill="#ED5564" /><path d="M448.002 298.666c0 11.78-9.546 21.342-21.328 21.342s-21.344-9.562-21.344-21.342c0-11.782 9.562-21.344 21.344-21.344 11.782 0 21.328 9.562 21.328 21.344z" fill="#ED5564" /></svg>