<?xml version="1.0" standalone="no"?><!DOCTYPE svg PUBLIC "-//W3C//DTD SVG 1.1//EN" "http://www.w3.org/Graphics/SVG/1.1/DTD/svg11.dtd"><svg class="icon" width="128px" height="128.00px" viewBox="0 0 1024 1024" version="1.1" xmlns="http://www.w3.org/2000/svg"><path d="M405.318 437.32c-8.218 0-15.376 7-18.906 17.25-5.874-10.25-17.656-17.25-31.218-17.25-19.436 0-35.186 14.344-35.186 32v98.874c0 17.656 15.75 31.968 35.186 31.968 15.5 0 28.656-9.124 33.342-21.812 3.906 7.468 9.968 12.282 16.782 12.282 11.782 0 21.344-14.312 21.344-32v-89.31c0-17.658-9.562-32.002-21.344-32.002z" fill="#434A54" /><path d="M490.66 522.662C310.82 500.1 78.92 601.816 138.168 847.686l117.842 57.092 520.708-186.306 7.562-67.812c0-0.002-71.75-100.156-293.62-127.998z" fill="#E6E9ED" /><path d="M924.712 178.138a21.334 21.334 0 0 0-24.032 3.78c-24.688 23.562-52.874 44.686-83.842 62.78a21.356 21.356 0 0 0-10.436 16.032l-55.25 494.238a21.326 21.326 0 0 0 4.218 15.248l80.966 106.688a21.4 21.4 0 0 0 16.968 8.438c1.968 0 3.938-0.282 5.874-0.844a21.306 21.306 0 0 0 15.376-18.532l62.094-666.642a21.33 21.33 0 0 0-11.936-21.186z" fill="#434A54" /><path d="M873.432 856.874c-0.688-1.906-17.186-47.688-62.246-93.216-41.344-41.81-115.75-91.654-235.184-91.654-82.592 0-160.59 11.562-231.838 34.344-57.248 18.312-110.278 43.874-157.622 75.996-81.248 55.124-117.59 110.376-119.09 112.718-6.25 9.592-3.782 22.404 5.562 29.03l60.342 42.654a21.484 21.484 0 0 0 12.312 3.906h647.298c4.438 0 8.718-1.376 12.344-3.906l60.34-42.654c5.656-4 9-10.5 9-17.438V864c0-2.44-0.406-4.846-1.218-7.126z" fill="#AC92EB" /><path d="M576.002 586.66c-58.812 0-106.684 47.842-106.684 106.654 0 58.842 47.872 106.684 106.684 106.684s106.654-47.842 106.654-106.684c0-58.812-47.842-106.654-106.654-106.654z" fill="#656D78" /><path d="M576.002 842.654c-11.782 0-21.344-9.532-21.344-21.344v-127.996c0-11.782 9.562-21.312 21.344-21.312s21.312 9.532 21.312 21.312v127.996c0 11.814-9.53 21.344-21.312 21.344z" fill="#AAB2BC" /><path d="M618.658 842.654h-85.344c-11.782 0-21.31-9.532-21.31-21.344a21.296 21.296 0 0 1 21.31-21.312h85.344c11.782 0 21.344 9.532 21.344 21.312 0 11.814-9.562 21.344-21.344 21.344z" fill="#CCD1D9" /><path d="M573.752 363.79a21.356 21.356 0 0 0-19.094-11.782H256.01c-11.782 0-21.344 9.532-21.344 21.312v85.342c0 11.782 9.562 21.344 21.344 21.344H490.66c6.718 0 13.032-3.156 17.062-8.532l63.998-85.342a21.392 21.392 0 0 0 2.032-22.342z" fill="#656D78" /><path d="M853.308 885.31c-47.03 0-85.31 38.28-85.31 85.34 0 9.718 1.656 19.312 4.906 28.468a21.306 21.306 0 0 0 20.094 14.188h120.652c9.032 0 17.094-5.688 20.094-14.188a84.956 84.956 0 0 0 4.906-28.468c0-47.06-38.28-85.34-85.342-85.34zM85.326 885.31c-47.03 0-85.31 38.28-85.31 85.34 0 9.718 1.656 19.312 4.906 28.468a21.306 21.306 0 0 0 20.094 14.188h120.654c9.032 0 17.094-5.688 20.094-14.188a84.956 84.956 0 0 0 4.906-28.468c-0.002-47.06-38.284-85.34-85.344-85.34z" fill="#434A54" /><path d="M1017.742 59.578L975.056 16.922a21.236 21.236 0 0 0-18.344-5.968 21.314 21.314 0 0 0-15.688 11.282c-0.376 0.718-37.344 71.654-95.81 120.778-70.28 59.06-163.34 88.686-164.246 88.966-6.406 2-11.5 6.906-13.75 13.25s-1.376 13.344 2.376 18.938l37.966 56.998a21.388 21.388 0 0 0 17.782 9.5c2.25 0 4.562-0.344 6.812-1.124 118.78-40.124 191.184-104.686 230.996-151.746 43.716-51.75 58.998-94.248 59.624-96.03a21.366 21.366 0 0 0-5.032-22.188z" fill="#AC92EB" /></svg>