<?xml version="1.0" standalone="no"?><!DOCTYPE svg PUBLIC "-//W3C//DTD SVG 1.1//EN" "http://www.w3.org/Graphics/SVG/1.1/DTD/svg11.dtd"><svg class="icon" width="128px" height="128.00px" viewBox="0 0 1024 1024" version="1.1" xmlns="http://www.w3.org/2000/svg"><path d="M770.485495 552.590921L701.047631 158.66369a21.371958 21.371958 0 0 0-19.153963-17.561966c-9.623981-0.843998-18.593964 4.90599-21.905957 13.967973l-58.341886 160.307687a21.269958 21.269958 0 0 0-0.967998 10.999979l43.809914 248.431514c1.811996 10.34398 10.811979 17.623966 20.967959 17.623966 1.217998 0 2.467995-0.124 3.717993-0.343999l84.029836-14.811971a21.193959 21.193959 0 0 0 13.749973-8.749983 21.241959 21.241959 0 0 0 3.531993-15.935969z" fill="#CACFD6" /><path d="M669.237693 81.88384c-29.403943-41.999918-73.403857-70.029863-123.903758-78.935846A195.193619 195.193619 0 0 0 511.79 0.01c-93.215818 0-172.621663 66.71587-188.839631 158.65169-8.905983 50.497901 2.405995 101.435802 31.811938 143.43372 29.405943 41.999918 73.405857 70.029863 123.903758 78.935846a194.879619 194.879619 0 0 0 33.531935 2.937994c93.231818 0 172.635663-66.71587 188.851631-158.65169 8.905983-50.497901-2.407995-101.435802-31.811938-143.43372z m-94.215816 121.215763c-5.405989 30.65594-31.889938 52.875897-62.917877 52.875897-3.749993 0-7.499985-0.311999-11.217978-0.967998-34.749932-6.123988-58.029887-39.375923-51.905899-74.123855 5.405989-30.65594 31.873938-52.905897 62.905877-52.905897 3.747993 0 7.497985 0.343999 11.215978 0.999998 16.843967 2.967994 31.515938 12.311976 41.32792 26.311949 9.777981 13.999973 13.559974 30.96594 10.591979 47.809906z" fill="#E6E9ED" /><path d="M457.822106 376.125265l22.655956-128.463749c-22.905955-12.999975-36.311929-39.405923-31.499939-66.779869 1.811996-10.18598-81.77984-27.779946-82.747838-22.217957l-22.249957 126.153754a196.045617 196.045617 0 0 0 10.781979 17.279966A191.871625 191.871625 0 0 0 379.200259 330.659354l25.341951-143.589719 41.999918 7.405985-29.061943 164.683679a190.371628 190.371628 0 0 0 40.341921 16.965966z" fill="#CACFD6" /><path d="M431.698157 156.163695l-84.029836-14.811971c-5.561989-0.967998-11.311978 0.281999-15.935969 3.531993s-7.781985 8.217984-8.781983 13.781973l-69.435864 393.927231c-0.999998 5.561989 0.281999 11.281978 3.531993 15.937969a21.275958 21.275958 0 0 0 13.749973 8.749982l84.029836 14.811972c1.249998 0.218 2.499995 0.343999 3.717993 0.343999 10.15598 0 19.155963-7.281986 20.967959-17.623966l69.465864-393.92723c2.063996-11.595977-5.685989-22.659956-17.279966-24.721952z" fill="#E6E9ED" /><path d="M887.293267 969.330107l-74.777854-424.145172c-2.061996-11.623977-13.123974-19.373962-24.717952-17.309966l-168.027671 29.623942a21.259958 21.259958 0 0 0-13.781974 8.781983 21.479958 21.479958 0 0 0-3.531993 15.937969l74.809854 424.145171c1.811996 10.34398 10.809979 17.623966 20.965959 17.623966 1.217998 0 2.467995-0.094 3.717993-0.311999l168.027672-29.655942c5.593989-0.967998 10.531979-4.123992 13.781973-8.749983s4.503991-10.37798 3.533993-15.939969z" fill="#5D9CEC" /><path d="M872.481296 885.302271l-45.153912-256.1215a21.507958 21.507958 0 0 0-8.781983-13.781973 21.507958 21.507958 0 0 0-15.935969-3.531993l-83.999836 14.811971a21.349958 21.349958 0 0 0-17.311966 24.717952l45.155912 256.1195a21.427958 21.427958 0 0 0 8.781983 13.781973 21.209959 21.209959 0 0 0 12.217976 3.843992 21.399958 21.399958 0 0 0 3.717993-0.311999l83.997836-14.811971a21.183959 21.183959 0 0 0 13.779973-8.781983 21.303958 21.303958 0 0 0 3.531993-15.933969z" fill="#656D78" /><path d="M783.36147 712.462608c-6.749987 9.655981-4.405991 22.935955 5.24999 29.685942 9.655981 6.781987 22.937955 4.405991 29.715942-5.217989 6.749987-9.655981 4.405991-22.965955-5.24799-29.715942-9.655981-6.751987-22.937955-4.407991-29.717942 5.247989zM798.205441 796.458444c-6.781987 9.655981-4.437991 22.967955 5.21799 29.717942s22.935955 4.405991 29.715942-5.249989c6.749987-9.655981 4.405991-22.937955-5.24999-29.687942-9.655981-6.779987-22.933955-4.403991-29.683942 5.219989z" fill="#434A54" /><path d="M418.010184 566.278894a21.271958 21.271958 0 0 0-13.781974-8.781983L236.200539 527.872969c-11.593977-2.061996-22.655956 5.687989-24.717952 17.309966l-74.779854 424.145172c-0.967998 5.561989 0.281999 11.311978 3.531993 15.937969s8.187984 7.781985 13.781973 8.749983l168.027672 29.655942c1.249998 0.218 2.499995 0.311999 3.717993 0.311999 10.15598 0 19.155963-7.281986 20.967959-17.623966l74.811854-424.145171a21.467958 21.467958 0 0 0-3.531993-15.935969z" fill="#5D9CEC" /><path d="M305.388404 626.682776l-83.997836-14.811971c-11.591977-2.031996-22.655956 5.717989-24.717952 17.311966l-45.155912 256.1195a21.331958 21.331958 0 0 0 3.531993 15.935969 21.199959 21.199959 0 0 0 13.781973 8.781983l83.997836 14.811971a21.399958 21.399958 0 0 0 3.717993 0.311999c4.341992 0 8.623983-1.311997 12.217976-3.843992a21.311958 21.311958 0 0 0 8.781983-13.781973l45.155912-256.1195c2.059996-11.591977-5.689989-22.653956-17.313966-24.715952z" fill="#656D78" /><path d="M240.60853 712.462608a21.271958 21.271958 0 0 1-5.21799 29.685942c-9.655981 6.781987-22.935955 4.405991-29.717942-5.217989-6.749987-9.655981-4.405991-22.965955 5.24999-29.715942 9.655981-6.751987 22.935955-4.407991 29.685942 5.247989zM225.796559 796.458444c6.781987 9.655981 4.437991 22.967955-5.21799 29.717942-9.655981 6.749987-22.967955 4.405991-29.717942-5.249989s-4.405991-22.937955 5.24999-29.687942c9.655981-6.779987 22.935955-4.403991 29.685942 5.219989z" fill="#434A54" /></svg>