<?xml version="1.0" standalone="no"?><!DOCTYPE svg PUBLIC "-//W3C//DTD SVG 1.1//EN" "http://www.w3.org/Graphics/SVG/1.1/DTD/svg11.dtd"><svg class="icon" width="128px" height="128.00px" viewBox="0 0 1024 1024" version="1.1" xmlns="http://www.w3.org/2000/svg"><path d="M704 981.312c0 23.562-19.094 42.688-42.656 42.688h-512c-23.562 0-42.688-19.124-42.688-42.688V405.328c0-23.562 19.124-42.656 42.688-42.656h512c23.562 0 42.656 19.094 42.656 42.656v575.984z" fill="#8CC153" /><path d="M490.656 384c0 11.782-9.532 21.328-21.312 21.328h-128c-11.782 0-21.344-9.546-21.344-21.328v-128c0-11.782 9.562-21.328 21.344-21.328h128c11.782 0 21.312 9.546 21.312 21.328v128z" fill="#656D78" /><path d="M704 938.688c0 23.562-19.094 42.624-42.656 42.624h-512c-23.562 0-42.688-19.062-42.688-42.624V362.672c0-23.578 19.124-42.672 42.688-42.672h512c23.562 0 42.656 19.094 42.656 42.672v576.016z" fill="#A0D468" /><path d="M405.344 810.688c-105.876 0-192-86.156-192-192 0-105.89 86.124-192.016 192-192.016 105.844 0 192 86.124 192 192.016 0 105.844-86.156 192-192 192z" fill="#E6E9ED" /><path d="M405.344 405.328C287.5 405.328 192 500.844 192 618.688 192 736.5 287.5 832 405.344 832c117.812 0 213.312-95.5 213.312-213.312 0-117.844-95.5-213.36-213.312-213.36zM526 739.344c-32.218 32.218-75.094 49.968-120.656 49.968-45.594 0-88.468-17.75-120.688-49.968-32.25-32.218-50-75.094-50-120.656 0-45.624 17.75-88.468 50-120.704C316.876 465.75 359.75 448 405.344 448c45.562 0 88.438 17.75 120.656 49.984 32.25 32.234 50 75.078 50 120.704 0 45.562-17.75 88.436-50 120.656z" fill="#CCD1D9" /><path d="M405.344 682.688c-35.312 0-64-28.75-64-64 0-35.312 28.688-64 64-64 35.282 0 64 28.688 64 64 0 35.25-28.72 64-64 64z" fill="#A0D468" /><path d="M405.344 533.328c-47.124 0-85.344 38.204-85.344 85.36C320 665.812 358.218 704 405.344 704s85.312-38.188 85.312-85.312c0-47.156-38.188-85.36-85.312-85.36z m0 127.984c-23.532 0-42.688-19.124-42.688-42.624 0-23.562 19.156-42.688 42.688-42.688 23.5 0 42.656 19.124 42.656 42.688 0 23.5-19.156 42.624-42.656 42.624z" fill="#8CC153" /><path d="M426.656 618.688c0 11.75-9.532 21.312-21.312 21.312S384 630.438 384 618.688c0-11.812 9.562-21.376 21.344-21.376s21.312 9.564 21.312 21.376zM618.656 0C489.062 0 384 105.062 384 234.672h42.656c0-51.296 19.968-99.5 56.25-135.766 36.25-36.266 84.468-56.234 135.75-56.234s99.5 19.968 135.782 56.234c36.25 36.266 56.218 84.468 56.218 135.766v294.656h42.688V234.672C853.344 105.062 748.282 0 618.656 0z" fill="#434A54" /><path d="M768 548.062h128v134.624h-128z" fill="#E6E9ED" /><path d="M917.344 597.312h-170.688V448c0-11.782 9.562-21.328 21.344-21.328h128c11.782 0 21.344 9.546 21.344 21.328v149.312z" fill="#656D78" /><path d="M234.656 874.688A21.3 21.3 0 0 0 213.344 896v85.312H256V896c0-11.782-9.562-21.312-21.344-21.312zM320 874.688c-11.782 0-21.344 9.532-21.344 21.312v85.312h42.688V896c0-11.782-9.562-21.312-21.344-21.312zM405.344 874.688C393.562 874.688 384 884.22 384 896v85.312h42.656V896a21.3 21.3 0 0 0-21.312-21.312zM490.656 874.688A21.3 21.3 0 0 0 469.344 896v85.312H512V896c0-11.782-9.562-21.312-21.344-21.312zM576 874.688c-11.782 0-21.344 9.532-21.344 21.312v85.312h42.688V896c0-11.782-9.562-21.312-21.344-21.312z" fill="#8CC153" /></svg>