<?xml version="1.0" standalone="no"?><!DOCTYPE svg PUBLIC "-//W3C//DTD SVG 1.1//EN" "http://www.w3.org/Graphics/SVG/1.1/DTD/svg11.dtd"><svg class="icon" width="128px" height="128.00px" viewBox="0 0 1024 1024" version="1.1" xmlns="http://www.w3.org/2000/svg"><path d="M960 422.782C960 165.876 759.562 0.25 512.188 0h-0.438C264.438 0.25 64 165.876 64 422.782 64 747.968 433.876 1023.094 511.75 1024h0.438C590.062 1023.094 960 747.968 960 422.782z" fill="#A0D468" /><path d="M607.312 597.344a228.02 228.02 0 0 1-31.938-2.282 240.52 240.52 0 0 1-20.062-3.75 227.04 227.04 0 0 1 1.876-45.124c7.688-53.968 34.624-103.25 75.876-138.75 40.876-35.188 92.938-54.562 146.562-54.562 10.562 0 21.312 0.75 31.938 2.25 6.688 0.968 13.376 2.218 20 3.782 0.876 15 0.25 30.124-1.876 45.094a224.404 224.404 0 0 1-75.812 138.75c-40.876 35.186-92.938 54.592-146.564 54.592zM416.624 597.344c-53.624 0-105.624-19.406-146.5-54.594-41.25-35.5-68.188-84.782-75.876-138.75a227.14 227.14 0 0 1-1.876-45.094 229.712 229.712 0 0 1 20.062-3.782 227.96 227.96 0 0 1 31.938-2.25c53.624 0 105.624 19.376 146.5 54.562 41.25 35.5 68.188 84.782 75.876 138.75a227.346 227.346 0 0 1 1.876 45.124 243.9 243.9 0 0 1-20 3.75 229.25 229.25 0 0 1-32 2.284z" fill="#FFFFFF" /><path d="M851.438 342.156A248.58 248.58 0 0 0 814.562 334a250.506 250.506 0 0 0-34.938-2.468c-120.688 0-226.062 88.75-243.562 211.656a247.88 247.88 0 0 0-0.624 64.844 251.15 251.15 0 0 0 36.938 8.156 250.506 250.506 0 0 0 34.938 2.468c120.688 0 226.062-88.75 243.5-211.656 3.124-22.032 3.248-43.782 0.624-64.844zM808.562 401a203.51 203.51 0 0 1-68.624 125.594C702.938 558.438 655.812 576 607.312 576c-9.624 0-19.376-0.688-28.938-2.062l-2.062-0.282c0.188-8.188 0.876-16.344 2-24.468a203.286 203.286 0 0 1 68.688-125.594c37-31.844 84.062-49.406 132.624-49.406 9.562 0 19.312 0.688 28.938 2.062 0.688 0.094 1.312 0.188 2 0.312-0.186 8.156-0.812 16.314-2 24.438zM244.376 331.532c-11.562 0-23.188 0.812-34.938 2.468a249.396 249.396 0 0 0-36.938 8.156 247.966 247.966 0 0 0 0.624 64.844c17.5 122.906 122.876 211.656 243.5 211.656 11.562 0 23.25-0.812 35-2.468a248.58 248.58 0 0 0 36.876-8.156c2.624-21.062 2.5-42.812-0.624-64.844-17.438-122.906-122.876-211.656-243.5-211.656z m201.248 242.406a205.534 205.534 0 0 1-29 2.062c-48.5 0-95.562-17.562-132.624-49.406a203.5 203.5 0 0 1-68.624-125.594 214.4 214.4 0 0 1-2-24.438c0.688-0.124 1.376-0.218 2.062-0.312a203.99 203.99 0 0 1 28.938-2.062c48.5 0 95.624 17.562 132.624 49.406a203.5 203.5 0 0 1 68.624 125.594c1.188 8.124 1.812 16.282 2 24.468-0.686 0.094-1.374 0.188-2 0.282z" fill="#8CC152" /><path d="M554.75 768h-85.562c-11.75 0-21.312 9.562-21.312 21.344s9.562 21.312 21.312 21.312h85.562c11.812 0 21.376-9.532 21.376-21.312S566.562 768 554.75 768z" fill="#434A54" /></svg>