<?xml version="1.0" standalone="no"?><!DOCTYPE svg PUBLIC "-//W3C//DTD SVG 1.1//EN" "http://www.w3.org/Graphics/SVG/1.1/DTD/svg11.dtd"><svg class="icon" width="128px" height="128.00px" viewBox="0 0 1024 1024" version="1.1" xmlns="http://www.w3.org/2000/svg"><path d="M938.688 533.328v-170.656h-85.312v-85.344H768v-42.656h85.376v-128h-128v85.312H640v85.344H384V191.984h-85.312V106.672h-128v128H256v42.656H170.688v85.344H85.376v170.656H0v298.656h128v-170.656h42.688v170.656H256v85.344h213.376v-128h-170.688v-42.656h426.688v42.656h-170.688v128H768v-85.344h85.376v-170.656H896v170.656h128V533.328h-85.312zM384 490.672h-128v-128h128v128z m384 0h-128v-128h128v128z" fill="#AC92EC" /></svg>