<?xml version="1.0" standalone="no"?><!DOCTYPE svg PUBLIC "-//W3C//DTD SVG 1.1//EN" "http://www.w3.org/Graphics/SVG/1.1/DTD/svg11.dtd"><svg class="icon" width="128px" height="128.00px" viewBox="0 0 1024 1024" version="1.1" xmlns="http://www.w3.org/2000/svg"><path d="M512 767.992c-98.092 0-195.526-25.248-281.836-72.996C150.634 650.934 80.322 587.874 26.042 512c54.28-75.876 124.59-138.996 204.12-182.996 86.31-47.75 183.746-72.998 281.836-72.998s195.528 25.248 281.836 72.998c79.528 44 149.84 107.122 204.152 182.996-54.312 75.874-124.624 138.934-204.152 182.996-86.306 47.748-183.744 72.996-281.834 72.996z" fill="#F5F7FA" /><path d="M746.648 469.312c0 129.622-105.058 234.684-234.648 234.684-129.59 0-234.652-105.062-234.652-234.684 0-129.558 105.06-234.618 234.652-234.618 129.59 0.002 234.648 105.06 234.648 234.618z" fill="#A0D468" /><path d="M597.34 469.312c0 47.124-38.218 85.374-85.34 85.374-47.124 0-85.342-38.248-85.342-85.374 0-47.124 38.218-85.308 85.342-85.308 47.122 0 85.34 38.186 85.34 85.308z" fill="#8CC153" /><path d="M512 234.696C301.13 234.696 114.416 344.066 0.012 512 114.416 679.934 301.13 789.304 512 789.304c210.868 0 397.582-109.372 511.988-277.304C909.582 344.066 722.868 234.696 512 234.696z m384.52 360.05c-34.59 31.75-72.59 59.188-113.028 81.562-41.032 22.75-84.59 40.248-129.464 52.06A559.69 559.69 0 0 1 512 746.68a559.666 559.666 0 0 1-142.028-18.312c-44.842-11.812-88.436-29.31-129.466-52.06-40.436-22.376-78.436-49.812-113.028-81.562A610.916 610.916 0 0 1 52.48 512c22.532-29.938 47.686-57.688 74.998-82.748 34.592-31.75 72.592-59.186 113.028-81.56 41.03-22.75 84.624-40.25 129.466-52.062A559.666 559.666 0 0 1 512 277.318a559.7 559.7 0 0 1 142.028 18.312c44.876 11.812 88.434 29.312 129.464 52.062 40.438 22.376 78.438 49.81 113.028 81.56 27.312 25.06 52.468 52.81 75 82.748-22.532 29.938-47.688 57.686-75 82.746z" fill="#E6E9ED" /></svg>