<?xml version="1.0" standalone="no"?><!DOCTYPE svg PUBLIC "-//W3C//DTD SVG 1.1//EN" "http://www.w3.org/Graphics/SVG/1.1/DTD/svg11.dtd"><svg class="icon" width="128px" height="128.00px" viewBox="0 0 1024 1024" version="1.1" xmlns="http://www.w3.org/2000/svg"><path d="M811.112 885.556h-0.812c-24.248-0.094-89.248-6.686-170.12-65.56-78.31-57.03-147.48-144.776-205.54-260.866-5.284-10.532-1-23.376 9.53-28.626 10.532-5.28 23.36-1 28.626 9.532 54.98 109.936 119.76 192.494 192.508 245.46 70.808 51.56 125.09 57.31 145.152 57.406 30.406 0.092 54.404-8.314 71.278-25.126 15.406-15.376 24.25-37.718 24.25-61.31 0-13.718-5.344-26.624-15.062-36.342-9.688-9.72-22.626-15.062-36.342-15.062-20.344 0-36.876 16.53-36.876 36.872 0 6.72 2.626 13.062 7.408 17.844a24.996 24.996 0 0 0 17.812 7.376c8.78 0 15.936-7.126 15.936-15.906 0-11.782 9.562-21.344 21.312-21.344 11.81 0 21.342 9.562 21.342 21.344 0 32.28-26.282 58.558-58.59 58.558-18.126 0-35.188-7.062-48.002-19.874-12.81-12.812-19.872-29.876-19.872-48 0-43.872 35.686-79.528 79.528-79.528 25.124 0 48.748 9.782 66.53 27.532 17.75 17.782 27.56 41.406 27.56 66.53 0 34.874-13.436 68.248-36.842 91.528-24.688 24.596-59.498 37.562-100.714 37.562z" fill="#F5BA45" /><path d="M428.06 544.288l-63.996-4.188a21.334 21.334 0 0 0-22.718 21.28v110.872c0 6.5 2.328 12.126 7.406 16.154 2.25 2.22 29.388 30.032 57.592 118.31a21.326 21.326 0 0 0 20.31 14.844 19.56 19.56 0 0 0 3.296-0.252 21.326 21.326 0 0 0 18.046-21.062v-234.68c0.002-11.216-8.716-20.528-19.936-21.278z" fill="#F5BA45" /><path d="M183.208 343.044c-70.152 62.53-88.152 97.872-161.854 115.872 10.312 7.562 316.444 236.368 810.628 0-211.114-258.242-541.29-211.712-648.774-115.872z" fill="#E5E8EC" /><path d="M575.994 416.324c0 82.496-66.858 149.338-149.324 149.338-82.464 0-149.322-66.842-149.322-149.338 0-82.466 66.858-149.308 149.322-149.308 82.466 0 149.324 66.842 149.324 149.308z" fill="#646C77" /><path d="M469.342 416.324c0 23.56-19.11 42.686-42.672 42.686-23.56 0-42.67-19.126-42.67-42.686 0-23.562 19.11-42.654 42.67-42.654 23.562 0 42.672 19.092 42.672 42.654z" fill="#424953" /><path d="M1002.668 437.572h-170.684c-11.782 0-21.31 9.562-21.31 21.344s9.53 21.344 21.31 21.344h170.684c11.748 0 21.31-9.562 21.31-21.344s-9.562-21.344-21.31-21.344z" fill="#5E9CEA" /><path d="M959.982 309.67c-2.876 0-5.752-0.56-8.562-1.782-336.052-146.994-556.42-139.524-682.12-107.37-132.964 34.032-188.182 100.592-188.712 101.246-7.438 9.156-20.858 10.562-30.014 3.156-9.156-7.436-10.546-20.874-3.126-30.03 2.578-3.156 64.794-78.216 211.274-115.684 84.608-21.656 180.416-26.406 284.772-14.094 129.246 15.25 272.272 56.874 425.048 123.684 10.782 4.718 15.688 17.282 11 28.092-3.5 8-11.34 12.782-19.56 12.782z" fill="#F5BA45" /><path d="M848.484 445.416c-142.152-173.9-322.052-199.838-416.626-199.838-105.714 0-206.43 31.25-262.85 81.53-17.766 15.844-32.188 29.906-44.92 42.342-37.422 36.5-58.03 56.594-107.792 68.748a21.28 21.28 0 0 0-15.86 16.562 21.336 21.336 0 0 0 8.294 21.376l0.19 0.126c10.076 7.404 47.748 33.53 109.574 58.402 86.262 34.718 180.554 52.344 280.24 52.344 142.588 0 291.444-36.626 442.438-108.842 5.938-2.81 10.188-8.216 11.626-14.592a21.266 21.266 0 0 0-4.314-18.158z m-449.75 98.902c-160.276 0-273.6-49.28-328.426-79.778 33.374-15.594 55.67-37.342 83.574-64.56 12.406-12.094 26.466-25.81 43.514-40.998 48.204-43 140.23-70.748 234.46-70.748 83.074 0 237.726 21.81 365.598 163.212-136.462 61.656-270.474 92.872-398.72 92.872z" fill="#5E9CEA" /></svg>