<?xml version="1.0" standalone="no"?><!DOCTYPE svg PUBLIC "-//W3C//DTD SVG 1.1//EN" "http://www.w3.org/Graphics/SVG/1.1/DTD/svg11.dtd"><svg class="icon" width="128px" height="128.00px" viewBox="0 0 1024 1024" version="1.1" xmlns="http://www.w3.org/2000/svg"><path d="M703.942 458.094h170.686V540h-170.686zM148.998 463h170.654v81.874H148.998z" fill="#434A54" /><path d="M960.062 469.312c0 11.782-9.562 21.344-21.312 21.344H85.282c-11.782 0-21.344-9.562-21.344-21.344V21.32C63.938 9.538 73.5 0.008 85.282 0.008h853.468c11.75 0 21.312 9.532 21.312 21.312v447.992zM960.062 1002.68c0 11.75-9.562 21.312-21.312 21.312H85.282c-11.782 0-21.344-9.562-21.344-21.312V533.312c0-11.782 9.562-21.312 21.344-21.312h853.468c11.75 0 21.312 9.532 21.312 21.312V1002.68z" fill="#656D78" /><path d="M148.998 85.318H874.44v319.996H148.998z" fill="#4FC2E9" /><path d="M149.28 597.31h341.338v191.998H149.28z" fill="#EC87C0" /><path d="M533.274 597.31h341.354v191.998H533.274z" fill="#AC92EB" /><path d="M768.316 863.992H430.338v42.688h337.978c11.75 0 21.312-9.562 21.312-21.376 0-11.75-9.562-21.312-21.312-21.312z" fill="#48CFAD" /><path d="M383.744 821.306H298.62c-35.342 0-64 28.688-64 63.998 0 35.376 28.656 64 64 64h85.124c35.344 0 64-28.624 64-64 0-35.31-28.656-63.998-64-63.998z" fill="#E6E9ED" /><path d="M767.942 149.318h-533.32c-11.782 0-21.344 9.562-21.344 21.342V320c0 11.782 9.562 21.312 21.344 21.312s21.312-9.532 21.312-21.312V192.004H767.94c11.812 0 21.312-9.562 21.312-21.344 0.002-11.78-9.498-21.342-21.31-21.342z" fill="#3BAFDA" /></svg>