<?xml version="1.0" standalone="no"?><!DOCTYPE svg PUBLIC "-//W3C//DTD SVG 1.1//EN" "http://www.w3.org/Graphics/SVG/1.1/DTD/svg11.dtd"><svg class="icon" width="128px" height="128.00px" viewBox="0 0 1024 1024" version="1.1" xmlns="http://www.w3.org/2000/svg"><path d="M405.36392 656.028c-2.28 0-4.624-0.376-6.936-1.156L14.43792 522.968c-11.156-3.844-17.092-15.984-13.25-27.124 3.812-11.14 15.968-17.062 27.094-13.25l384.02 131.934c11.156 3.812 17.062 15.938 13.25 27.094-3.032 8.842-11.314 14.406-20.188 14.406zM789.32192 656.028c-2.282 0-4.624-0.376-6.906-1.156l-384.02-131.902c-11.156-3.844-17.062-15.984-13.25-27.124 3.844-11.14 15.968-17.062 27.092-13.25l384.022 131.934c11.156 3.812 17.06 15.938 13.248 27.094-3.03 8.84-11.31 14.404-20.186 14.404z" fill="#ED5564" /><path d="M412.30192 678.528l-384.02-131.936a21.382 21.382 0 0 0-19.312 2.812 21.288 21.288 0 0 0-8.936 17.376v435.86c0 11.782 9.53 21.344 21.342 21.344h383.988c11.782 0 21.344-9.562 21.344-21.344V698.682c0-9.094-5.782-17.22-14.406-20.154z" fill="#F6BB42" /><path d="M796.25992 678.528l-384.022-131.936a21.396 21.396 0 0 0-19.312 2.812 21.368 21.368 0 0 0-8.938 17.376v435.86c0 11.782 9.562 21.344 21.342 21.344h383.99c11.782 0 21.342-9.562 21.342-21.344V698.682a21.28 21.28 0 0 0-14.402-20.154z" fill="#FFCE54" /><path d="M994.40792 95.418a63.602 63.602 0 0 0 8.25-31.404c0-35.282-28.716-63.998-63.996-63.998H277.33592c-35.28 0-63.998 28.716-63.998 63.998 0 35.294 28.718 63.998 63.998 63.998h472.986a63.496 63.496 0 0 0-3.656 21.342c0 35.282 28.718 63.982 63.998 63.982v21.344c0 35.282 28.718 63.998 63.998 63.998 35.282 0 64-28.716 64-63.998v-21.344h21.342c35.28 0 63.998-28.702 63.998-63.982 0-22.64-11.812-42.562-29.594-53.936z" fill="#CCD1D9" /><path d="M960.00392 298.678h-170.682c-11.782 0-21.312 9.546-21.312 21.328V1002.64c0 11.782 9.532 21.344 21.312 21.344h170.682c11.782 0 21.31-9.562 21.31-21.344V320.006c0-11.782-9.528-21.328-21.31-21.328z" fill="#E6E9ED" /><path d="M960.00392 298.678h-170.682c-11.782 0-21.312 9.546-21.312 21.328v106.668h213.304v-106.668c0-11.782-9.528-21.328-21.31-21.328z" fill="#ED5564" /></svg>