<?xml version="1.0" standalone="no"?><!DOCTYPE svg PUBLIC "-//W3C//DTD SVG 1.1//EN" "http://www.w3.org/Graphics/SVG/1.1/DTD/svg11.dtd"><svg class="icon" width="128px" height="128.00px" viewBox="0 0 1024 1024" version="1.1" xmlns="http://www.w3.org/2000/svg"><path d="M832 0c-47.126 0-85.344 38.204-85.344 85.328 0 47.14 38.218 85.344 85.344 85.344s85.344-38.204 85.344-85.344C917.344 38.204 879.126 0 832 0z m0 128c-23.532 0-42.656-19.14-42.656-42.672 0-23.516 19.126-42.656 42.656-42.656s42.656 19.14 42.656 42.656C874.656 108.86 855.532 128 832 128zM128 512c-11.782 0-21.344-9.562-21.344-21.344S116.218 469.344 128 469.344h384c11.782 0 21.344 9.532 21.344 21.312S523.782 512 512 512H128z" fill="#DA4453" /><path d="M128 1024c-11.782 0-21.344-9.562-21.344-21.312V21.328C106.656 9.546 116.218 0 128 0s21.344 9.546 21.344 21.328v981.36C149.344 1014.438 139.782 1024 128 1024z" fill="#ED5564" /><path d="M640 42.672H128c-11.782 0-21.344-9.562-21.344-21.344S116.218 0 128 0h512c11.782 0 21.344 9.546 21.344 21.328S651.782 42.672 640 42.672z" fill="#ED5564" /></svg>