<?xml version="1.0" standalone="no"?><!DOCTYPE svg PUBLIC "-//W3C//DTD SVG 1.1//EN" "http://www.w3.org/Graphics/SVG/1.1/DTD/svg11.dtd"><svg class="icon" width="128px" height="128.00px" viewBox="0 0 1024 1024" version="1.1" xmlns="http://www.w3.org/2000/svg"><path d="M673.09 282.66s-23.998-26.654-29.342-29.342c-5.312-2.656-95.998-34.654-95.998-34.654h-66.656l-66.654 14.688-48 33.31-9.344 44.842 18.688 46.624s21.312 65.842 20 69.78c-1.342 3.938 49.312 69.81 49.312 69.81l-10.656 40.938s-28 114.652-29.344 121.308c-1.312 6.656 62.686 153.308 62.686 153.308h93.308l40-102.652 16-126.654-14.656-121.31 48-65.342 22.656-114.654z" fill="#EC87C0" /><path d="M1022.3 317.16c-7.094-26.438-23.468-46.498-48.686-59.624-41.594-21.654-107.186-23.498-194.964-5.5-37.124 7.624-70.124 17.188-91.466 23.906a102.81 102.81 0 0 0-3.188-6.468c-14.404-26.282-43.624-47.81-84.53-62.28-34.312-12.124-68.56-16.436-87.466-16.436-18.906 0-53.156 4.312-87.466 16.436-40.906 14.47-70.124 36-84.53 62.28a103.916 103.916 0 0 0-3.188 6.468c-21.342-6.718-54.342-16.282-91.466-23.906-87.778-17.998-153.372-16.154-194.964 5.5C25.168 270.662 8.794 290.722 1.7 317.16c-15.686 58.624 80.78 111.716 149.466 133.09 32.218 10.032 62.466 15.094 90.216 15.094 8.562 0 16.906-0.468 25-1.438 28.5-3.406 53.966-12.718 75.686-27.688a152.898 152.898 0 0 0 28.406-25.498c23.25 44.53 40.342 92.81 40.218 104.56-1.25 7.438-5.468 17.062-9.906 27.25-10.186 23.342-22.842 52.402-15.842 87.09 18.218 89.904 59.404 186.622 61.154 190.684l5.532 12.938h120.746l5.532-12.938c1.75-4.062 42.938-100.78 61.156-190.714 7-34.656-5.656-63.716-15.844-87.058-4.438-10.188-8.656-19.812-9.906-27.25-0.124-11.75 16.968-60.032 40.218-104.56a152.874 152.874 0 0 0 28.404 25.498c21.718 14.968 47.186 24.282 75.686 27.688 8.094 0.968 16.438 1.438 25 1.438 27.75 0 57.998-5.062 90.214-15.094 68.686-21.376 165.15-74.466 149.464-133.092z m-510.518 137.184c-11.968-34.874-28.718-65.746-49.906-91.964-0.532-0.656-1.094-1.282-1.624-1.938 19.562 2.718 38.936 4.094 57.966 4.094 14.876 0 29.562-0.844 43.966-2.5-0.094 0.094-0.188 0.218-0.282 0.312-21.246 26.218-38.058 57.122-50.12 91.996zM512 233.414c37.186 0 113.934 18.904 134.56 56.558 0.812 1.468 1.5 2.968 2.124 4.468-55.812 25.812-118.904 33.562-187.622 23-41.968-6.468-73.748-18.218-85.716-23.094 0.624-1.468 1.312-2.938 2.094-4.376 20.626-37.652 97.374-56.556 134.56-56.556z m-194.182 167.682c-36.812 25.438-90.06 28.344-153.964 8.438-32.78-10.218-66.498-26.498-90.216-43.56-23.532-16.938-32.406-31.468-30.718-37.782 3.906-14.594 12.782-25.344 27.156-32.812 60.342-31.436 194.526 1.782 259.68 23.032 1.594 19.312 8.968 37.376 17.532 52.376-5.376 8.372-14.72 20.122-29.47 30.308z m122.058 158.496c5.656-12.966 11.032-25.216 13.032-38.186 0.782-5 3.156-20.218-19.092-75.032-13.406-33.03-30.094-66.09-45.812-90.652a158.63 158.63 0 0 1-5.062-8.532c14.062 9.312 31.436 23.782 47.468 44.156 19.906 25.28 35.186 55.778 45.466 90.684 7.656 26.124 12.5 54.782 14.5 85.624-1.344 22.406-1.344 45.78 0.062 70.06v56.344c-13.344 1.406-27.342 4.532-41.5 10.218-8.406-26.406-16.53-55.312-22.186-83.124-4.342-21.5 4.532-41.872 13.124-61.56zM480 790.586a1300.326 1300.326 0 0 1-17.342-45.81c20.812-8.812 43.874-11.094 68.748-6.718a155.36 155.36 0 0 1 29.404 8.282A1339.436 1339.436 0 0 1 544 790.588h-64z m91.092-269.18c2 12.968 7.376 25.218 13.032 38.186 8.594 19.688 17.468 40.06 13.124 61.56-5.75 28.376-14.094 57.906-22.688 84.718-10.25-3.876-24.56-8.312-41.436-10.782v-58.532h-0.032c1.344-23.876 1.344-46.842 0.032-68.874 2.032-30.874 6.876-59.53 14.594-85.654 10.28-34.876 25.624-65.404 45.592-90.652 16.156-20.438 33.656-34.938 47.812-44.282a163.688 163.688 0 0 1-5.124 8.624c-15.718 24.562-32.406 57.624-45.812 90.652-5.5 13.568-22.25 54.818-19.094 75.036z m379.274-155.434c-23.718 17.062-57.438 33.342-90.216 43.56-63.716 19.844-114.904 17.438-152.122-7.188a108.776 108.776 0 0 1-31.282-31.624c8.532-14.968 15.906-33.032 17.5-52.344 65.124-21.25 199.212-54.498 259.65-23 14.406 7.468 23.282 18.218 27.188 32.812 1.688 6.316-7.188 20.848-30.718 37.784z" fill="#D770AD" /><path d="M899.99 413.784c-5.218-25.592-41.092-40.03-80.09-32.216-39.032 7.812-66.406 34.904-61.156 60.464 5.218 25.624 41.094 40.032 80.092 32.218 39.03-7.812 66.404-34.874 61.154-60.466z" fill="#EC87C0" /><path d="M817.806 497.718c-41.562 0-73.688-20.656-79.968-51.406-3.032-14.748 0.25-29.874 9.468-43.78 13.5-20.342 39.062-35.998 68.406-41.874a128.488 128.488 0 0 1 25.216-2.532c41.56 0 73.686 20.656 79.966 51.374 3.032 14.75-0.25 29.904-9.468 43.78-13.5 20.376-39.094 36.032-68.404 41.876-8.404 1.688-16.902 2.562-25.216 2.562z m23.124-96.934c-5.532 0-11.186 0.562-16.842 1.718-21.718 4.344-35.532 15.062-41.218 23.624-1.968 2.968-4.124 7.376-3.25 11.654 2.218 10.812 21.156 17.25 38.188 17.25 5.532 0 11.188-0.562 16.842-1.688 21.718-4.344 35.532-15.062 41.216-23.654 1.968-2.938 4.124-7.344 3.25-11.624-2.22-10.812-21.156-17.28-38.186-17.28zM124.01 413.784c5.218-25.592 41.092-40.03 80.092-32.216 39.03 7.812 66.406 34.904 61.186 60.464-5.25 25.624-41.124 40.032-80.124 32.218-39.03-7.812-66.404-34.874-61.154-60.466z" fill="#EC87C0" /><path d="M206.196 497.718c-8.312 0-16.812-0.876-25.218-2.562-29.312-5.844-54.906-21.5-68.404-41.876-9.218-13.876-12.5-29.03-9.468-43.78 6.282-30.716 38.406-51.374 79.966-51.374 8.312 0 16.812 0.844 25.218 2.532 29.312 5.876 54.906 21.532 68.406 41.874 9.218 13.906 12.5 29.032 9.468 43.78-6.284 30.75-38.408 51.406-79.968 51.406z m-23.124-96.934c-17.032 0-35.968 6.468-38.186 17.282-0.876 4.282 1.282 8.688 3.25 11.624 5.688 8.592 19.5 19.31 41.218 23.654a86.56 86.56 0 0 0 16.842 1.688c17.032 0 35.968-6.438 38.186-17.25 0.876-4.28-1.282-8.686-3.25-11.654-5.686-8.562-19.5-19.282-41.218-23.624a84.066 84.066 0 0 0-16.842-1.72z" fill="#EC87C0" /></svg>