<?xml version="1.0" standalone="no"?><!DOCTYPE svg PUBLIC "-//W3C//DTD SVG 1.1//EN" "http://www.w3.org/Graphics/SVG/1.1/DTD/svg11.dtd"><svg class="icon" width="128px" height="128.00px" viewBox="0 0 1024 1024" version="1.1" xmlns="http://www.w3.org/2000/svg"><path d="M662.164 810.718h85.31v85.312h-85.31z" fill="#656D78" /><path d="M747.474 789.376h-85.31c-11.782 0-21.344 9.562-21.344 21.344v85.312c0 11.782 9.562 21.344 21.344 21.344h85.31c11.782 0 21.344-9.562 21.344-21.344V810.72c0-11.782-9.562-21.344-21.344-21.344z m-21.344 85.342h-42.624v-42.656h42.624v42.656z" fill="#434A54" /><path d="M598.196 981.34h-171.5l43.5-599.87h85.312z" fill="#AAB2BC" /><path d="M511.634 746.656c-63.25 0-125.812-16.844-180.936-48.656-83.876-48.438-143.876-126.624-168.936-220.156-25.062-93.562-12.188-191.28 36.25-275.154 32.406-56.156 79.188-102.594 135.312-134.282 54.53-30.78 116.436-47.062 179.03-47.062 63.28 0 125.842 16.812 180.936 48.624 83.874 48.438 143.874 126.624 168.966 220.188 25.062 93.53 12.188 191.248-36.25 275.122-32.438 56.156-79.218 102.594-135.342 134.282-54.532 30.814-116.406 47.094-179.03 47.094z" fill="#E6E9ED" /><path d="M703.944 51.502C643.508 16.596 577.508 0.002 512.354 0.002c-132.656 0-261.718 68.874-332.842 192.03-106 183.624-43.092 418.434 140.532 524.434 60.468 34.906 126.468 51.5 191.592 51.5 132.686 0 261.748-68.844 332.84-192.032 106.03-183.62 43.092-418.4-140.532-524.432z m103.594 503.122c-30.532 52.844-74.562 96.562-127.374 126.376a343.276 343.276 0 0 1-168.53 44.312c-59.5 0-118.376-15.812-170.25-45.782-39.938-23.032-74.124-53.188-101.624-89.624-26.624-35.188-45.938-74.75-57.376-117.592-11.5-42.812-14.562-86.75-9.124-130.53 5.624-45.28 20.156-88.5 43.186-128.406 30.532-52.876 74.562-96.562 127.376-126.406 51.312-28.968 109.624-44.312 168.562-44.312 59.5 0 118.374 15.842 170.25 45.78 39.904 23.062 74.124 53.218 101.624 89.624 26.594 35.218 45.876 74.782 57.376 117.594 11.468 42.842 14.562 86.75 9.124 130.53-5.628 45.312-20.19 88.53-43.22 128.436z" fill="#CCD1D9" /><path d="M575.258 615c-71.406-41.25-76.75-208.374-62.468-233.06 14.25-24.688 161.656-103.656 233.06-62.406 71.406 41.218 72.656 130.124 25.532 211.716-47.126 81.594-124.718 124.968-196.124 83.75z" fill="#4A89DC" /><path d="M278.01 315.126c71.406-41.218 218.812 37.718 233.062 62.406 14.25 24.718 8.938 191.842-62.468 233.06-71.406 41.218-149.03-2.156-196.124-83.75-47.096-81.592-45.876-170.496 25.53-211.716z" fill="#4A89DC" /><path d="M768.818 1002.684c0 11.782-9.562 21.312-21.344 21.312s-21.344-9.532-21.344-21.312 9.562-21.344 21.344-21.344 21.344 9.562 21.344 21.344zM299.572 1002.684c0 11.782-9.562 21.312-21.312 21.312-11.812 0-21.344-9.532-21.344-21.312s9.532-21.344 21.344-21.344c11.75 0 21.312 9.562 21.312 21.344z" fill="#434A54" /><path d="M683.414 210.846c0 82.468-142.094 170.624-170.592 170.624-28.5 0-170.592-88.156-170.592-170.624s76.374-127.968 170.592-127.968c94.218 0 170.592 45.5 170.592 127.968z" fill="#5D9CEC" /><path d="M576.008 384.002c0 35.342-28.688 63.968-64 63.968-35.344 0-64-28.624-64-63.968 0-35.344 28.656-64 64-64 35.312 0 64 28.656 64 64z" fill="#E6E9ED" /><path d="M811.444 981.34c0 11.782-9.532 21.344-21.312 21.344h-554.56c-11.75 0-21.312-9.562-21.312-21.344v-106.622c0-11.782 9.562-21.344 21.312-21.344h554.558c11.782 0 21.312 9.562 21.312 21.344v106.622z" fill="#5D9CEC" /><path d="M534.196 381.47c0 11.782-9.562 21.342-21.312 21.342-11.812 0-21.344-9.562-21.344-21.342s9.532-21.312 21.344-21.312c11.748 0 21.312 9.532 21.312 21.312z" fill="#434A54" /></svg>