<?xml version="1.0" standalone="no"?><!DOCTYPE svg PUBLIC "-//W3C//DTD SVG 1.1//EN" "http://www.w3.org/Graphics/SVG/1.1/DTD/svg11.dtd"><svg class="icon" width="128px" height="128.00px" viewBox="0 0 1024 1024" version="1.1" xmlns="http://www.w3.org/2000/svg"><path d="M917.004 1002.304a21.28 21.28 0 0 1-21.294 21.294H128.308c-11.772 0-21.312-9.524-21.312-21.294V21.726C106.996 9.954 116.536 0.4 128.308 0.4h767.402c11.77 0 21.294 9.554 21.294 21.326v980.578z" fill="#434A54" /><path d="M170.946 64.35h682.106v895.3H170.946z" fill="#F5F7FA" /><path d="M661.204 85.678H362.796L320.158 0.4h383.7z" fill="#FFCE54" /><path d="M554.662 43.054h-85.292c-11.772 0-21.312-9.556-21.312-21.328S457.596 0.4 469.37 0.4h85.292c11.74 0 21.296 9.554 21.296 21.326s-9.556 21.328-21.296 21.328z" fill="#F6BB42" /><path d="M419.424 257.292h-0.032L344.06 332.64l-30.118-30.102-0.016-0.032c-8.336-8.338-21.842-8.338-30.164 0-8.322 8.306-8.322 21.826 0 30.132l45.23 45.214c8.322 8.336 21.812 8.336 30.132 0l90.43-90.43h0.016c8.322-8.338 8.322-21.826 0-30.132-8.32-8.334-21.824-8.334-30.146 0.002zM419.424 470.44c0 0.032-0.016 0.032-0.016 0.032L344.06 545.82l-30.118-30.132h-0.016c-8.336-8.338-21.842-8.338-30.164-0.032-8.322 8.336-8.322 21.826 0 30.164l45.23 45.212a21.276 21.276 0 0 0 30.132 0l90.446-90.428c8.322-8.338 8.322-21.828 0-30.164-8.32-8.308-21.824-8.308-30.146 0zM419.424 683.616l-0.032 0.032-75.332 75.348-30.118-30.132c-0.016 0-0.016-0.032-0.016-0.032-8.336-8.304-21.842-8.336-30.164 0-8.322 8.338-8.322 21.828 0 30.164l45.23 45.214c8.322 8.306 21.812 8.306 30.132 0l90.446-90.46c8.322-8.304 8.322-21.794 0-30.132-8.32-8.338-21.824-8.338-30.146-0.002z" fill="#8CC153" /><path d="M533.318 341.476h191.836c11.802 0 21.358-9.554 21.358-21.326s-9.554-21.296-21.358-21.296h-191.836c-11.772 0-21.31 9.526-21.31 21.296s9.538 21.326 21.31 21.326zM725.154 512h-191.836c-11.772 0-21.31 9.554-21.31 21.326 0 11.774 9.54 21.328 21.31 21.328h191.836c11.802 0 21.358-9.554 21.358-21.328 0-11.772-9.554-21.326-21.358-21.326zM725.154 725.178h-191.836c-11.772 0-21.31 9.554-21.31 21.326s9.54 21.296 21.31 21.296h191.836c11.802 0 21.358-9.526 21.358-21.296s-9.554-21.326-21.358-21.326z" fill="#434A54" /></svg>