<?xml version="1.0" standalone="no"?><!DOCTYPE svg PUBLIC "-//W3C//DTD SVG 1.1//EN" "http://www.w3.org/Graphics/SVG/1.1/DTD/svg11.dtd"><svg class="icon" width="128px" height="128.00px" viewBox="0 0 1024 1024" version="1.1" xmlns="http://www.w3.org/2000/svg"><path d="M21.47 341.38h981.058v127.96H21.47zM21.47 682.636h981.058v127.96H21.47z" fill="#79AA41" /><path d="M128.11 1002.54V95.72l85.302-68.26 85.316 68.26v906.82z" fill="#9ED36A" /><path d="M213.412 0.156L106.788 85.458v938.384h213.264V85.458L213.412 0.156z m63.98 981.014h-127.96V105.966l63.98-51.188 63.98 51.188v875.204z" fill="#8AC054" /><path d="M426.69 1002.54V95.72l85.302-68.26 85.286 68.26v906.82z" fill="#9ED36A" /><path d="M511.992 0.156l-106.638 85.302v938.384h213.292V85.458L511.992 0.156z m63.98 981.014h-127.96V105.966l63.98-51.188 63.98 51.188v875.204z" fill="#8AC054" /><path d="M725.238 1002.54V95.72l85.35-68.26 85.288 68.26v906.82z" fill="#9ED36A" /><path d="M810.588 0.156l-106.654 85.302v938.384H917.18V85.458L810.588 0.156z m63.98 981.014h-127.96V105.966l63.98-51.188 63.98 51.188v875.204z" fill="#8AC054" /><path d="M234.748 405.362c0 11.778-9.558 21.336-21.336 21.336s-21.322-9.558-21.322-21.336 9.544-21.322 21.322-21.322 21.336 9.544 21.336 21.322zM234.748 746.618c0 11.746-9.558 21.304-21.336 21.304s-21.322-9.558-21.322-21.304c0-11.808 9.544-21.37 21.322-21.37s21.336 9.56 21.336 21.37zM533.312 405.362c0 11.778-9.542 21.336-21.32 21.336s-21.322-9.558-21.322-21.336 9.544-21.322 21.322-21.322 21.32 9.544 21.32 21.322zM533.312 746.618c0 11.746-9.542 21.304-21.32 21.304s-21.322-9.558-21.322-21.304c0-11.808 9.544-21.37 21.322-21.37s21.32 9.56 21.32 21.37zM831.894 405.362c0 11.778-9.558 21.336-21.306 21.336-11.808 0-21.37-9.558-21.37-21.336s9.56-21.322 21.37-21.322c11.748 0 21.306 9.544 21.306 21.322zM831.894 746.618c0 11.746-9.558 21.304-21.306 21.304-11.808 0-21.37-9.558-21.37-21.304a21.36 21.36 0 0 1 21.37-21.37c11.748 0 21.306 9.56 21.306 21.37z" fill="#646C77" /></svg>