<?xml version="1.0" standalone="no"?><!DOCTYPE svg PUBLIC "-//W3C//DTD SVG 1.1//EN" "http://www.w3.org/Graphics/SVG/1.1/DTD/svg11.dtd"><svg class="icon" width="128px" height="128.00px" viewBox="0 0 1024 1024" version="1.1" xmlns="http://www.w3.org/2000/svg"><path d="M722.964 753.172L6.3 36.446c-8.344-8.328-8.344-21.842 0-30.17 8.312-8.328 21.81-8.328 30.154 0l716.698 716.712c8.344 8.312 8.344 21.844 0 30.186-8.344 8.31-21.844 8.31-30.188-0.002z" fill="#AAB2BC" /><path d="M1023.95 970.63c0-14.25-5.532-27.656-15.592-37.718h-0.032l-142.026-142.054a21.354 21.354 0 0 0-15.092-6.25c-5.654 0-11.06 2.25-15.092 6.25l-45.248 45.28a21.33 21.33 0 0 0 0 30.186l142.024 142.024c20.81 20.812 54.654 20.812 75.464 0 10.062-10.064 15.594-23.47 15.594-37.718z" fill="#656D78" /><path d="M872.55 948.006l-30.182-30.186 75.464-75.434 30.152 30.186zM887.644 963.1l75.434-75.434 30.188 30.154-75.434 75.432z" fill="#434A54" /><path d="M270.848 753.172c-8.342-8.342-8.342-21.874 0-30.186L987.546 6.274c8.312-8.328 21.842-8.328 30.152 0 8.344 8.328 8.344 21.844 0 30.17L301.036 753.172c-8.344 8.312-21.844 8.312-30.188 0z" fill="#CCD1D9" /><path d="M15.674 1008.346h-0.03C5.582 998.284 0.052 984.88 0.052 970.632c0-14.25 5.532-27.656 15.624-37.718L157.7 790.86c4-4 9.436-6.25 15.092-6.25 5.656 0 11.062 2.25 15.062 6.25l45.278 45.28a21.33 21.33 0 0 1 0 30.186l-142.024 142.024c-10.092 10.062-23.5 15.624-37.748 15.624-14.218-0.004-27.622-5.566-37.686-15.628z" fill="#656D78" /><path d="M151.7 948.256l-75.246-75.246 30.184-30.154 75.246 75.244zM106.452 993.534l-75.246-75.246 30.154-30.184 75.246 75.246z" fill="#434A54" /><path d="M301.036 722.986c-28.218-28.216-65.716-43.748-105.62-43.748-39.748 0-77.122 15.438-105.308 43.436a19.634 19.634 0 0 0-3.156 3.876h-0.032c-0.25 0.406-0.5 0.812-0.718 1.25a21.08 21.08 0 0 0-2.656 10.282c0 1.656 0.188 3.282 0.592 4.968 0.032 0.188 0.094 0.376 0.124 0.562h0.032a21.204 21.204 0 0 0 5.812 9.874l180.74 180.74a21.356 21.356 0 0 0 30.186 0c28.186-28.248 43.748-65.746 43.748-105.62 0.002-39.904-15.56-77.402-43.744-105.62z" fill="#ED5564" /><path d="M344.782 828.606c0-39.904-15.562-77.402-43.748-105.62a171.24 171.24 0 0 0-7.812-7.282c23.592 27.156 36.466 61.464 36.466 97.808 0 39.902-15.53 77.402-43.748 105.586a21.356 21.356 0 0 1-30.186 0l15.092 15.124a21.356 21.356 0 0 0 30.186 0c28.188-28.246 43.75-65.744 43.75-105.616z" fill="#FFFFFF" opacity=".2" /><path d="M934.206 753.172c8.31-8.342 8.31-21.874 0-30.186-28.216-28.216-65.716-43.748-105.62-43.748-39.904 0-77.402 15.532-105.622 43.748-58.214 58.246-58.214 152.992 0 211.238 4 4 9.438 6.25 15.094 6.25s11.094-2.25 15.094-6.25l181.054-181.052z" fill="#5D9CEC" /><path d="M813.492 694.332c39.904 0 77.402 15.53 105.622 43.748 8.342 8.344 8.342 21.842 0 30.154l-165.96 165.99 181.052-181.052c8.31-8.342 8.31-21.874 0-30.186-28.216-28.216-65.716-43.748-105.62-43.748-39.904 0-77.402 15.532-105.622 43.748a184.06 184.06 0 0 0-7.216 7.75c27.124-23.562 61.464-36.404 97.744-36.404z" fill="#FFFFFF" opacity=".2" /></svg>