<?xml version="1.0" standalone="no"?><!DOCTYPE svg PUBLIC "-//W3C//DTD SVG 1.1//EN" "http://www.w3.org/Graphics/SVG/1.1/DTD/svg11.dtd"><svg class="icon" width="128px" height="128.00px" viewBox="0 0 1024 1024" version="1.1" xmlns="http://www.w3.org/2000/svg"><path d="M809.846 864.02L512 867.89l-297.83-3.87-64.434 159.824h724.528z" fill="#E5E8EC" /><path d="M725.092 1002.54c-11.778 0-21.304 9.558-21.304 21.304h42.64c0-11.746-9.558-21.304-21.336-21.304zM639.836 1002.54c-11.746 0-21.304 9.558-21.304 21.304h42.64c0-11.746-9.528-21.304-21.336-21.304zM810.346 1002.54c-11.778 0-21.304 9.558-21.304 21.304h42.614c-0.002-11.746-9.56-21.304-21.31-21.304zM554.614 1002.54c-11.762 0-21.308 9.558-21.308 21.304h42.614c-0.002-11.746-9.53-21.304-21.306-21.304zM469.374 1002.54c-11.762 0-21.306 9.558-21.306 21.304h42.626c0-11.746-9.544-21.304-21.32-21.304zM384.15 1002.54c-11.778 0-21.322 9.558-21.322 21.304h42.628c0-11.746-9.544-21.304-21.306-21.304zM298.91 1002.54c-11.778 0-21.322 9.558-21.322 21.304h42.626c0-11.746-9.544-21.304-21.304-21.304zM213.67 1002.54c-11.778 0-21.322 9.558-21.322 21.304h42.628c0-11.746-9.544-21.304-21.306-21.304z" fill="#46CEAD" /><path d="M214.17 159.982L512 156.14l297.846 3.842L874.264 0.156H149.736z" fill="#E5E8EC" /><path d="M298.91 21.478c11.762 0 21.306-9.544 21.306-21.322h-42.626c-0.002 11.778 9.542 21.322 21.32 21.322zM384.15 21.478c11.762 0 21.306-9.544 21.306-21.322h-42.628c0 11.778 9.544 21.322 21.322 21.322zM213.67 21.478c11.762 0 21.306-9.544 21.306-21.322H192.364c0 11.778 9.528 21.322 21.306 21.322zM469.388 21.478c11.762 0 21.306-9.544 21.306-21.322h-42.626c0 11.778 9.544 21.322 21.32 21.322zM554.614 21.478c11.778 0 21.304-9.544 21.304-21.322h-42.614c0 11.778 9.548 21.322 21.31 21.322zM639.836 21.478A21.312 21.312 0 0 0 661.172 0.156h-42.64c0 11.778 9.558 21.322 21.304 21.322zM725.092 21.478c11.778 0 21.336-9.544 21.336-21.322h-42.64c0 11.778 9.526 21.322 21.304 21.322zM810.346 21.478c11.75 0 21.308-9.544 21.308-21.322H789.04c0.002 11.778 9.528 21.322 21.306 21.322zM831.654 108.044H192.364S149.738 257.218 149.738 512.92c0 255.718 42.626 404.892 42.626 404.892h639.29s42.61-149.174 42.61-404.892c0-255.702-42.61-404.876-42.61-404.876z" fill="#46CEAD" /><path d="M277.588 299.83h468.84v426.2h-468.84z" fill="#FECD57" /></svg>