<?xml version="1.0" standalone="no"?><!DOCTYPE svg PUBLIC "-//W3C//DTD SVG 1.1//EN" "http://www.w3.org/Graphics/SVG/1.1/DTD/svg11.dtd"><svg class="icon" width="128px" height="128.00px" viewBox="0 0 1024 1024" version="1.1" xmlns="http://www.w3.org/2000/svg"><path d="M298.854 405.22c-4.716 0-8.56-1.516-10.746-4.25-2.218-2.748-2.844-6.794-1.812-11.434l66.76-300.408c2.874-13.042 17.714-24.93 31.054-24.93h255.78c13.372 0 28.18 11.886 31.052 24.93l66.76 300.408c1.032 4.638 0.406 8.686-1.81 11.434-2.188 2.734-5.998 4.25-10.748 4.25H298.854z" fill="#4B89DA" /><path d="M758.512 384.914L691.75 84.506c-5.062-22.884-28.43-41.614-51.86-41.614h-255.78c-23.43 0-46.768 18.728-51.86 41.614l-66.76 300.408c-5.092 22.882 9.934 41.612 33.364 41.612h426.29c23.432 0 38.458-18.73 33.368-41.612z m-449.13-1.016l64.48-290.146c0.718-3.31 6.874-8.23 10.248-8.23h255.78c3.376 0 9.528 4.92 10.246 8.23l64.48 290.146H309.382z" fill="#D94452" /><path d="M1018.274 944.93l-185.348-269.542c-12.372-19.9-41.708-36.178-65.168-36.178H256.242c-23.46 0-52.764 16.278-65.166 36.178L5.726 944.93c-12.402 19.902-3.374 36.178 20.056 36.178H998.22c23.428 0 32.456-16.276 20.054-36.178z" fill="#965353" /><path d="M491.202 670.546h42.11v310.56h-42.11zM278.174 981.108l110.872-306.97-40.082-14.496-116.12 321.466zM675.036 659.642l-40.082 14.496 110.872 306.97h45.33z" fill="#7F4545" /><path d="M767.758 383.898H256.242c-23.46 0-42.642 19.182-42.642 42.626v133.21c0 23.43 19.182 42.612 42.642 42.612h511.516c23.46 0 42.642-19.182 42.642-42.612v-133.21c0-23.444-19.182-42.626-42.642-42.626z" fill="#EC5564" /><path d="M171.238 660.956c-11.746 0-21.306-9.56-21.306-21.306v-127.868c0-11.762 9.56-21.322 21.306-21.322h682.024c11.778 0 21.338 9.56 21.338 21.322v127.868c0 11.746-9.56 21.306-21.338 21.306H171.238z" fill="#CBD0D8" /><path d="M853.262 469.154H171.238c-23.556 0-42.612 19.088-42.612 42.626v127.868c0 23.554 19.056 42.614 42.612 42.614h682.024c23.556 0 42.644-19.058 42.644-42.614V511.78c0-23.538-19.088-42.626-42.644-42.626z m0 170.494H171.238V511.78h682.024v127.868z" fill="#A9B1BC" /><path d="M789.062 554.426H234.936c-11.778 0-21.336 9.496-21.336 21.304 0 11.746 9.56 21.306 21.336 21.306h554.126c11.778 0 21.338-9.56 21.338-21.306 0-11.776-9.56-21.304-21.338-21.304z" fill="#646C77" /><path d="M341.498 491.552h42.612v170.34h-42.612zM639.954 489.554h42.642v170.338h-42.642z" fill="#A9B1BC" /><path d="M613.96 85.522h-85.27l-84.974 298.376h85.254z" fill="#5E9CEA" /></svg>