<?xml version="1.0" standalone="no"?><!DOCTYPE svg PUBLIC "-//W3C//DTD SVG 1.1//EN" "http://www.w3.org/Graphics/SVG/1.1/DTD/svg11.dtd"><svg class="icon" width="128px" height="128.00px" viewBox="0 0 1024 1024" version="1.1" xmlns="http://www.w3.org/2000/svg"><path d="M512 704.012c-105.842 0-191.91-86.098-191.91-191.942 0-105.842 86.068-191.956 191.91-191.956s191.942 86.114 191.942 191.956c0 105.844-86.1 191.942-191.942 191.942z" fill="#FECD57" /><path d="M512 298.792c-117.778 0-213.248 95.486-213.248 213.278 0 117.778 95.47 213.248 213.248 213.248 117.808 0 213.278-95.47 213.278-213.248 0-117.792-95.47-213.278-213.278-213.278z m120.65 333.93c-32.208 32.208-75.072 49.954-120.65 49.954-45.58 0-88.412-17.746-120.652-49.954-32.24-32.242-49.984-75.072-49.984-120.652s17.744-88.41 49.984-120.65c32.24-32.224 75.072-49.968 120.652-49.968 45.578 0 88.442 17.744 120.65 49.968 32.24 32.24 49.984 75.072 49.984 120.65 0 45.58-17.744 88.41-49.984 120.652zM512 0.21c-11.778 0-21.338 9.56-21.338 21.338v213.278c0 11.778 9.56 21.322 21.338 21.322s21.336-9.544 21.336-21.322V21.548c0-11.778-9.558-21.338-21.336-21.338z" fill="#F5BA45" /><path d="M285.224 76.61c-5.904-10.2-18.932-13.7-29.146-7.81-10.184 5.888-13.684 18.932-7.81 29.116l106.656 184.708c5.874 10.2 18.9 13.684 29.116 7.794 10.184-5.888 13.682-18.932 7.81-29.132l-106.626-184.676z" fill="#FECD57" /><path d="M282.57 354.978l-184.724-106.64c-10.184-5.888-23.244-2.39-29.116 7.81-5.904 10.184-2.406 23.226 7.81 29.116l184.694 106.656c10.216 5.888 23.244 2.39 29.148-7.81 5.902-10.2 2.404-23.242-7.812-29.132z" fill="#F5BA45" /><path d="M234.772 490.734H21.462c-11.746 0-21.306 9.56-21.306 21.336s9.56 21.322 21.306 21.322h213.31c11.778 0 21.306-9.544 21.306-21.322s-9.528-21.336-21.306-21.336zM1002.538 490.734h-213.28c-11.778 0-21.336 9.56-21.336 21.336s9.558 21.322 21.336 21.322h213.28c11.78 0 21.306-9.544 21.306-21.322s-9.528-21.336-21.306-21.336z" fill="#FECD57" /><path d="M955.27 256.15c-5.872-10.2-18.93-13.7-29.116-7.81l-184.724 106.64c-10.184 5.888-13.684 18.932-7.81 29.132 5.904 10.2 18.962 13.698 29.146 7.81l184.726-106.656c10.184-5.89 13.684-18.932 7.778-29.116z" fill="#F5BA45" /><path d="M767.922 68.8c-10.214-5.888-23.242-2.39-29.148 7.81l-106.592 184.678c-5.904 10.2-2.404 23.244 7.81 29.132 10.184 5.888 23.242 2.39 29.116-7.794l106.624-184.708c5.874-10.186 2.404-23.23-7.81-29.118z" fill="#FECD57" /><path d="M512 511.962C229.336 511.962 0.156 741.126 0.156 1023.79h1023.688c0-282.666-229.148-511.828-511.844-511.828z" fill="#965353" /><path d="M825.404 764.776c19.994-45.892 40.58-80.474 52.452-98.94a507.09 507.09 0 0 0-31.582-29.646c-11.778 17.65-35.834 56.326-59.482 110.404-28.302 64.7-60.982 164.012-60.858 277.196h42.644c-0.094-105.374 30.396-198.314 56.826-259.014zM609.344 663.898c33.868-56.418 69.668-95.844 90.378-116.402a505.774 505.774 0 0 0-44.704-15.276c-22.338 23.9-52.296 60.138-81.32 108.186-32.428 53.734-56.952 111.28-72.884 171.012-18.212 68.354-25.118 139.708-20.618 212.372h42.736c-10.526-160.262 40.678-283.666 86.412-359.892zM371.136 646.594c53.42-74.666 109.31-120.996 126.554-134.43a514.912 514.912 0 0 0-72.978 7.232c-25.242 24.354-56.484 58.186-87.348 101.08-39.862 55.606-70.76 114.964-91.784 176.508-24.96 73.102-35.958 149.328-32.772 226.804h42.706c-5.996-134.518 32.866-261.356 115.622-377.194z" fill="#7F4545" /></svg>