<?xml version="1.0" standalone="no"?><!DOCTYPE svg PUBLIC "-//W3C//DTD SVG 1.1//EN" "http://www.w3.org/Graphics/SVG/1.1/DTD/svg11.dtd"><svg class="icon" width="128px" height="128.00px" viewBox="0 0 1024 1024" version="1.1" xmlns="http://www.w3.org/2000/svg"><path d="M512 85.646c-200.156 0-362.404 162.248-362.404 362.374 0 200.186 162.248 362.436 362.404 362.436 200.124 0 362.374-162.25 362.374-362.436 0-200.126-162.25-362.374-362.374-362.374z m226.072 588.478c-29.352 29.414-63.574 52.458-101.638 68.572C597.058 759.37 555.186 767.8 512 767.8s-85.058-8.432-124.464-25.106c-38.064-16.114-72.256-39.158-101.638-68.572-29.384-29.352-52.428-63.574-68.542-101.608-16.674-39.44-25.106-81.312-25.106-124.496 0-43.186 8.432-85.028 25.106-124.436 16.114-38.062 39.156-72.256 68.542-101.638 29.382-29.382 63.574-52.428 101.638-68.54C426.942 136.73 468.814 128.3 512 128.3s85.058 8.43 124.434 25.106c38.064 16.112 72.288 39.156 101.638 68.54 29.382 29.382 52.46 63.576 68.572 101.638 16.642 39.408 25.106 81.25 25.106 124.436 0 43.184-8.462 85.056-25.106 124.496-16.11 38.032-39.188 72.256-68.572 101.608z" fill="#434A54" /><path d="M725.146 916.996c0 11.802-9.524 21.358-21.296 21.358h-383.7c-11.772 0-21.328-9.554-21.328-21.358V618.604c0-11.802 9.556-21.358 21.328-21.358h383.7c11.774 0 21.296 9.554 21.296 21.358v298.392z" fill="#FC6E51" /><path d="M1023.6 490.674c0 11.772-9.554 21.294-21.326 21.294H618.572c-11.772 0-21.326-9.524-21.326-21.294V192.25c0-11.772 9.554-21.326 21.326-21.326h383.702c11.772 0 21.326 9.554 21.326 21.326v298.424z" fill="#ED5564" /><path d="M426.722 490.674c0 11.772-9.554 21.294-21.326 21.294H21.696A21.28 21.28 0 0 1 0.402 490.674V192.25c0-11.772 9.524-21.326 21.294-21.326h383.702c11.772 0 21.326 9.554 21.326 21.326v298.424z" fill="#FFCE54" /><path d="M426.722 490.674c0 11.772-9.554 21.294-21.326 21.294H21.696A21.28 21.28 0 0 1 0.402 490.674V192.25c0-11.772 9.524-21.326 21.294-21.326h383.702c11.772 0 21.326 9.554 21.326 21.326v298.424z" fill="#FFCE54" /><path d="M181.508 375.576l-102.326 136.392h204.59z" fill="#DA4453" /><path d="M426.722 452.204l-100.858-134.488-145.762 194.254h225.292c11.772 0 21.326-9.524 21.326-21.294v-38.472z" fill="#ED5564" /><path d="M150.064 277.496c0 23.542-19.078 42.654-42.624 42.654s-42.624-19.112-42.624-42.654c0-23.544 19.078-42.624 42.624-42.624s42.624 19.08 42.624 42.624z" fill="#FC6E51" /><path d="M607.924 682.554c0-11.802-9.554-21.36-21.326-21.36-3.53 0-6.87 0.876-9.804 2.436-22.794 11.804-42.592 0.938-43.436 0.5l0.25 0.124h-0.032a20.994 20.994 0 0 0-10.93-3.06c-11.77 0-21.326 9.556-21.326 21.36v127.9h42.654v-99.424c3.464 0.438 7.182 0.688 11.054 0.688 12.364 0 26.572-2.56 41.374-10.242v-0.062a21.22 21.22 0 0 0 11.522-18.86z" fill="#E6E9ED" /><path d="M543.974 810.456c0 35.284-28.632 63.95-63.95 63.95s-63.952-28.666-63.952-63.95c0-35.348 28.634-63.952 63.952-63.952s63.95 28.604 63.95 63.952zM746.472 234.874l170.524 106.572-170.524 106.574z" fill="#F5F7FA" /></svg>