<?xml version="1.0" standalone="no"?><!DOCTYPE svg PUBLIC "-//W3C//DTD SVG 1.1//EN" "http://www.w3.org/Graphics/SVG/1.1/DTD/svg11.dtd"><svg class="icon" width="128px" height="128.00px" viewBox="0 0 1024 1024" version="1.1" xmlns="http://www.w3.org/2000/svg"><path d="M348.592 599.934l-90.512 90.498c-8.328 8.342-8.328 21.842 0 30.186l45.248 45.248a21.334 21.334 0 0 0 30.172 0l90.496-90.496a365.1 365.1 0 0 1-75.404-75.436z" fill="#CCD1D9" /><path d="M640.002 768.022c-102.574 0-198.992-39.936-271.52-112.464-72.53-72.528-112.48-168.962-112.48-271.52 0-102.59 39.952-199.024 112.48-271.552C441.01 39.988 537.428 0.02 640.002 0.02c102.558 0 198.992 39.936 271.552 112.464 72.496 72.528 112.434 168.962 112.434 271.552 0 102.558-39.938 198.994-112.434 271.52-72.56 72.53-168.994 112.466-271.552 112.466z m0-725.316c-91.184 0-176.884 35.5-241.35 99.966s-99.98 150.182-99.98 241.366c0 91.152 35.5 176.868 99.98 241.334 64.466 64.498 150.166 99.996 241.35 99.996s176.87-35.53 241.366-99.996c64.466-64.466 99.964-150.182 99.964-241.334 0-91.184-35.498-176.9-99.964-241.366-64.496-64.466-150.182-99.966-241.366-99.966z" fill="#E6E9ED" /><path d="M499.008 614.028c-3.89 0-7.812-1.032-11.328-3.25-9.984-6.282-12.984-19.438-6.718-29.436 19.374-30.812 9.718-75.216-0.5-122.278-9.656-44.404-19.624-90.308-7.968-133.652 13.656-50.654 54.138-86.528 123.762-109.622 47.122-15.656 94.464-6.656 136.868 26 35.716 27.466 65.186 69.684 85.31 122.12 20.092 52.466 28.874 110.338 25.374 167.37-0.75 11.75-10.876 20.686-22.624 19.998-11.75-0.75-20.688-10.842-20-22.624 6.25-101.56-32.438-205.618-94.056-253.054-31.124-23.968-63.906-30.466-97.436-19.312-55.748 18.5-86.232 44-95.996 80.216-8.968 33.312-0.11 74.09 8.452 113.496 11.594 53.342 23.578 108.496-5.062 154.056a21.31 21.31 0 0 1-18.078 9.972z" fill="#AC92EB" /><path d="M582.506 645.34a21.44 21.44 0 0 1-7.312-1.282c-11.062-4.032-16.75-16.282-12.75-27.344 15.938-43.716 8.188-95.714 0.688-146.026-5.312-35.906-10.376-69.874-6-98.714 5.562-36.718 26.094-60.592 60.998-71.028 26.06-7.75 51.31-2.938 72.998 13.968 19.436 15.156 46.434 48.78 64.432 122.962 11.812 48.562 17.312 105.31 15.188 155.712-0.468 11.782-10.438 20.906-22.186 20.438-11.782-0.5-20.936-10.438-20.436-22.218 3.81-90.34-19.248-209.022-63.216-243.24-10.782-8.406-21.782-10.532-34.594-6.718-37.622 11.218-36.622 44.248-24.966 122.588 7.876 52.936 16.782 112.964-2.782 166.87a21.392 21.392 0 0 1-20.062 14.032z" fill="#AC92EB" /><path d="M666.002 645.34c-1.562 0-3.124-0.156-4.718-0.532-11.468-2.594-18.718-14-16.094-25.5 20.812-92.278-9.594-185.932-9.906-186.87-3.688-11.186 2.376-23.248 13.562-26.936 11.188-3.718 23.25 2.376 26.968 13.53 1.406 4.282 34.376 105.966 10.968 209.68-2.218 9.91-11.03 16.628-20.78 16.628z" fill="#AC92EB" /><path d="M425.964 540.876c-10.656 0-19.86-7.968-21.156-18.812-1.78-14.782-4.624-31.156-7.656-48.498-10.156-58.28-22.794-130.776-1.406-195.15 11.952-35.998 33.592-66.466 64.326-90.59 33.952-26.624 80.356-46.466 137.934-58.966 67.308-14.624 130.93-2.844 183.99 34.03 30.812 21.406 57.874 51.34 78.214 86.56 18.438 31.874 30.718 66.528 35.594 100.246 1.656 11.656-6.438 22.468-18.124 24.124-11.656 1.688-22.438-6.406-24.124-18.092-6.686-46.686-35.84-116.058-95.934-157.808-43.684-30.342-94.37-39.56-150.586-27.374-94.636 20.562-150.51 60.216-170.806 121.308-17.984 54.186-6.858 118.026 2.954 174.368 3.124 17.936 6.078 34.874 7.984 50.78 1.406 11.718-6.954 22.312-18.64 23.718-0.876 0.092-1.72 0.156-2.564 0.156z" fill="#AC92EB" /><path d="M362.53 751.99l-90.512-90.528a21.326 21.326 0 0 0-30.17 0L24.996 878.33C8.888 894.422 0.012 915.858 0.012 938.638c0 22.812 8.876 44.25 24.984 60.342 16.124 16.124 37.546 25 60.342 25s44.232-8.876 60.342-25l216.85-216.836c4-4 6.25-9.436 6.25-15.092s-2.25-11.062-6.25-15.062z" fill="#656D78" /></svg>