<?xml version="1.0" standalone="no"?><!DOCTYPE svg PUBLIC "-//W3C//DTD SVG 1.1//EN" "http://www.w3.org/Graphics/SVG/1.1/DTD/svg11.dtd"><svg class="icon" width="128px" height="128.00px" viewBox="0 0 1024 1024" version="1.1" xmlns="http://www.w3.org/2000/svg"><path d="M628.848 305.968c-27.344-19.218-56.406-31.282-86.376-35.844-31.938-4.844-65.064-1.218-98.438 10.782-49.532 17.844-87.062 40.218-114.75 68.468-25.718 26.188-42.282 56.75-50.624 93.344-14.938 65.468-0.688 139.218 14.406 217.28 20.124 104.156 40.938 211.876-3.438 312.75a21.274 21.274 0 0 0-1.812 8.594c0 11.782 9.562 21.312 21.344 21.312 8.718 0 16.218-5.25 19.532-12.75 0.032-0.032 0.032-0.094 0.062-0.156s0.062-0.156 0.094-0.218c49.5-112.938 26.438-232.312 6.094-337.624-14.188-73.532-27.624-143-14.688-199.686 8.688-38.062 32.468-93.094 138.25-131.156 51.594-18.594 100.658-11.906 145.814 19.812 56.156 39.468 106.906 118.812 142.906 223.342 33.156 96.312 52.188 209.468 52.156 310.438 0 11.782 9.562 21.344 21.344 21.344s21.344-9.562 21.344-21.344c0-105.5-19.876-223.718-54.5-324.312-49.876-144.814-113.846-212.814-158.72-244.376z" fill="#967ADC" /><path d="M1012.972 444.936h0.032c-9.5-66.124-33.688-134.218-69.968-196.968-40-69.156-93.032-127.876-153.376-169.812-49.124-34.124-103.032-57.406-160.218-69.188-62.812-12.906-129.626-11.876-198.532 3.062C316.534 36.874 224.69 76 157.94 128.374c-59.344 46.562-101.094 105.344-124.156 174.718-41.938 126.282-17.688 265.374 3.688 388.124 6.25 35.782 12.124 69.562 15.812 100.376h0.032c1.25 10.594 10.25 18.812 21.156 18.812 11.782 0 21.344-9.562 21.344-21.344 0-0.844-0.062-1.688-0.156-2.532-3.812-31.938-9.812-66.282-16.156-102.656-20.5-117.75-43.782-251.25-5.218-367.342C118.472 183.5 238.096 97.562 439.94 53.75c63.094-13.688 123.938-14.688 180.908-2.968 51.5 10.594 100.094 31.594 144.468 62.406 55.218 38.376 103.906 92.376 140.782 156.124 33.094 57.25 56.062 121.782 64.656 181.688h0.032a21.296 21.296 0 0 0 21.094 18.282 21.3 21.3 0 0 0 21.312-21.312c0-1.034-0.094-2.034-0.22-3.034z" fill="#AC92EB" /><path d="M814.972 226.03c-42.124-50.218-90.188-87.218-142.844-109.968-60.156-26.032-126.5-33.5-197.158-22.218-80.124 12.782-148.124 33.718-202.188 62.25-50.344 26.562-90.406 60.656-119.032 101.282-39.594 56.25-58.656 125.656-58.25 212.25 0.344 73.656 14.75 150.53 27.468 218.374 14.876 79.438 28.968 154.5 16.218 202.532h0.032a21.03 21.03 0 0 0-0.75 5.468c0 11.782 9.562 21.312 21.344 21.312a21.3 21.3 0 0 0 20.594-15.844h0.032c15.218-57.344 0.968-133.344-15.532-221.344C139.596 545.216 110.94 392.28 188.628 281.968c24.718-35.094 59.718-64.75 104.062-88.156 49.938-26.312 113.5-45.782 189-57.844 118.188-18.844 219.344 20.688 300.626 117.5 74.532 88.812 112 202.562 127.688 262.436 24.25 92.656 25.75 161.688 19.032 181.124a21.26 21.26 0 0 0-1.156 6.938c0 11.782 9.532 21.344 21.312 21.344 9.344 0 17.282-6 20.156-14.376h0.032c0.032-0.094 0.062-0.218 0.094-0.344 0.062-0.156 0.124-0.344 0.156-0.532 11.594-35.25 4.124-119.218-18.344-204.968-16.626-63.34-56.408-183.872-136.314-279.06z" fill="#967ADC" /><path d="M784.754 341.842c-28.688-41.5-60.938-76.156-95.844-103.032-80.624-62.032-170.282-79.188-259.282-49.656-134.688 44.718-212.718 113.032-238.532 208.812-22.438 83.344-2.624 174.53 16.532 262.718 21.876 100.75 42.562 195.938-1.876 266.624h0.032a21.06 21.06 0 0 0-3.312 11.344c0 11.782 9.562 21.344 21.344 21.344 7.624 0 14.282-4 18.062-10 53.718-85.438 30.188-193.688 7.438-298.376-18.062-83.188-36.75-169.25-17-242.562 10.282-38.25 30.156-70.468 60.718-98.562 35.124-32.25 85.594-59.468 150.032-80.844 74.938-24.876 150.97-10 219.814 42.968 62.594 48.188 117.062 126.844 153.344 221.5 37.812 98.656 54.282 207.562 47.688 314.968h0.032c-0.032 0.438-0.094 0.876-0.094 1.312 0 11.782 9.562 21.344 21.344 21.344 11.344 0 20.594-8.876 21.282-20.032h0.032c6.968-113.438-10.468-228.532-50.438-332.842-19.316-50.434-43.316-96.528-71.316-137.028z" fill="#AC92EB" /><path d="M602.878 388.25c-38.406-29.906-83.062-38.468-129.126-24.75-63.312 18.876-99 60.468-109.094 127.188-8.468 55.686 1.624 123.468 12.312 195.25 14.968 100.656 31.906 214.718-2.532 309.438h0.032a20.886 20.886 0 0 0-1.312 7.282c0 11.782 9.562 21.344 21.344 21.344 9.218 0 17.032-5.876 20.032-14.062v0.032c38.156-104.906 20.344-224.656 4.624-330.312-10.188-68.5-19.812-133.218-12.312-182.592 7.562-50.032 31.968-78.624 79.094-92.656 33.22-9.906 62.876-4.156 90.72 17.5 44.75 34.844 83.312 111.406 108.594 215.53 22.718 93.594 33.376 203.062 29.282 300.312h0.032c0 0.312-0.032 0.594-0.032 0.906 0 11.782 9.532 21.344 21.312 21.344 11.5 0 20.812-9.094 21.282-20.438h0.032c4.282-101.094-6.844-214.876-30.468-312.188-19.472-80.286-56.784-186.91-123.816-239.128z" fill="#AC92EB" /><path d="M635.254 584.374c-16.218-48.782-34.468-85.03-54.218-107.78-26.406-30.344-51.844-32-68.532-28.062-39.594 9.406-61.906 39.344-66.282 89-3.532 39.562 3.532 89.218 11.718 146.688 13.218 93.032 29.656 208.812 1.312 312.844h0.032c-0.5 1.782-0.782 3.656-0.782 5.594 0 11.782 9.562 21.344 21.344 21.344 9.844 0 18.094-6.656 20.562-15.718 30.688-112.532 13.532-233.156-0.25-330.062-16.062-113-22.938-177.468 22.188-188.156 7.624-1.812 16.532 3.094 26.468 14.532 31.312 36.03 61.718 125.436 79.312 233.406 16.624 102.124 17.656 196.782 2.5 235.562l0.032 0.032a21.3 21.3 0 0 0 19.844 29.062c9.062 0 16.782-5.624 19.876-13.594v0.032c21.782-55.844 14.218-169.876-0.156-257.968-8.686-53.414-20.78-104.164-34.968-146.756z" fill="#967ADC" /><path d="M564.222 590.998c0-0.032-0.032-0.094-0.032-0.124a1.524 1.524 0 0 0-0.094-0.282c-2.812-8.468-10.812-14.624-20.25-14.624-11.782 0-21.344 9.562-21.344 21.344 0 2.344 0.406 4.562 1.094 6.688 0.156 0.5 16.468 50.468 27.062 124 17.624 121.968 6.312 214.124-6.282 269.968a21.34 21.34 0 0 0-0.532 4.688c0 11.782 9.562 21.344 21.344 21.344 10.156 0 18.656-7.124 20.782-16.656v0.032c0.032-0.124 0.062-0.218 0.094-0.312 0-0.062 0-0.094 0.032-0.156 24.188-107.718 17-214.968 6.656-286-10.78-74.348-26.81-124.598-28.53-129.91z" fill="#AC92EB" /></svg>