<?xml version="1.0" standalone="no"?><!DOCTYPE svg PUBLIC "-//W3C//DTD SVG 1.1//EN" "http://www.w3.org/Graphics/SVG/1.1/DTD/svg11.dtd"><svg class="icon" width="128px" height="128.00px" viewBox="0 0 1024 1024" version="1.1" xmlns="http://www.w3.org/2000/svg"><path d="M42.69 789.292c-11.764 0-21.342-9.562-21.342-21.31V127.992c0-11.75 9.578-21.312 21.342-21.312h938.604c11.75 0 21.376 9.562 21.376 21.312v639.99c0 11.748-9.624 21.31-21.376 21.31H42.69z" fill="#AC92EB" /><path d="M981.292 85.338H42.69C19.128 85.338 0.02 104.43 0.02 127.992v639.99c0 23.56 19.108 42.684 42.67 42.684h938.604c23.562 0 42.688-19.124 42.688-42.684V127.992c-0.002-23.562-19.126-42.654-42.69-42.654z m0 682.644H42.69V127.992h938.604v639.99z" fill="#E6E9ED" /><path d="M682.682 938.662H341.334l42.546-170.492 256.176-0.062z" fill="#CCD1D9" /><path d="M31.91 682.674h960.196v122.054H31.91z" fill="#E6E9ED" /><path d="M533.326 746.67c0 11.75-9.546 21.312-21.326 21.312-11.782 0-21.328-9.562-21.328-21.312 0-11.81 9.546-21.374 21.328-21.374 11.78 0 21.326 9.564 21.326 21.374z" fill="#434A54" /><path d="M682.682 895.976H341.334c-11.782 0-21.328 9.562-21.328 21.31 0 11.812 9.546 21.376 21.328 21.376H682.68c11.75 0 21.312-9.562 21.312-21.376 0.002-11.746-9.56-21.31-21.31-21.31z" fill="#E6E9ED" /><path d="M189.95 612.176c-3.876 0-7.796-1.062-11.328-3.312-9.984-6.25-12.984-19.438-6.718-29.374 16.702-26.562 8.218-65.638-0.75-106.95-8.64-39.75-17.562-80.872-7.046-119.932 12.358-45.842 48.84-78.28 111.542-99.092 42.67-14.154 85.512-6.03 123.886 23.5 32.078 24.688 58.544 62.592 76.576 109.59 17.984 46.964 25.842 98.746 22.686 149.776-0.718 11.732-10.828 20.67-22.592 19.982-11.766-0.75-20.702-10.876-19.984-22.608 5.514-89.53-28.5-181.21-82.714-222.93-27-20.78-55.404-26.436-84.418-16.81-105.45 34.998-92.56 94.34-76.248 169.46 10.406 47.874 21.156 97.386-4.812 138.698a21.35 21.35 0 0 1-18.08 10.002z" fill="#CCD1D9" /><path d="M264.182 639.988c-2.422 0-4.89-0.438-7.296-1.312-11.078-4-16.782-16.25-12.75-27.312 13.922-38.31 7.094-84.23 0.484-128.634-4.782-32.124-9.28-62.466-5.344-88.466 5.094-33.622 23.906-55.496 55.904-65.058 23.938-7.124 47.092-2.688 66.998 12.812 17.608 13.718 41.982 44.03 58.138 110.62 10.532 43.374 15.484 94.042 13.578 139.104-0.5 11.75-10.436 20.938-22.202 20.376-11.78-0.5-20.92-10.438-20.42-22.188 1.734-41.186-2.782-87.574-12.406-127.228-10.358-42.624-25.592-73.528-42.888-87.028-9.062-7.032-17.874-8.75-28.608-5.562-16.03 4.782-23.296 13.344-25.906 30.53-2.984 19.688 1.062 46.936 5.36 75.81 7.046 47.342 15.03 101.042-2.594 149.478a21.342 21.342 0 0 1-20.048 14.058z" fill="#E6E9ED" /><path d="M338.398 639.988c-1.546 0-3.124-0.188-4.718-0.5-11.484-2.624-18.702-14.062-16.108-25.562 18.358-81.356-8.454-163.978-8.718-164.822-3.704-11.188 2.36-23.248 13.546-26.936 11.188-3.688 23.266 2.376 26.952 13.56 1.266 3.812 30.78 94.81 9.844 187.634-2.238 9.876-11.048 16.626-20.798 16.626z" fill="#CCD1D9" /><path d="M125.016 547.116c-10.64 0-19.86-7.952-21.156-18.794-1.562-13.062-4.094-27.624-6.78-42.998-9.062-52.062-20.36-116.84-1.172-174.62 10.78-32.436 30.294-59.902 57.982-81.652 30.466-23.906 72.028-41.686 123.558-52.874 60.498-13.124 117.682-2.532 165.416 30.624 27.67 19.25 51.966 46.092 70.232 77.686 16.53 28.624 27.576 59.716 31.904 89.964 1.688 11.656-6.422 22.466-18.078 24.154-11.67 1.656-22.466-6.436-24.154-18.092-5.876-41.06-31.484-101.996-84.262-138.682-38.28-26.594-82.7-34.656-132.01-23.938-83.248 18.062-132.338 52.81-150.088 106.246-15.812 47.592-5.968 104.058 2.704 153.838 2.782 15.966 5.422 31.06 7.11 45.28 1.406 11.688-6.938 22.294-18.64 23.732-0.864 0.062-1.724 0.126-2.566 0.126z" fill="#E6E9ED" /><path d="M895.984 298.674H639.994c-11.75 0-21.31-9.562-21.31-21.344s9.56-21.344 21.31-21.344h255.99c11.812 0 21.344 9.562 21.344 21.344s-9.532 21.344-21.344 21.344zM895.984 383.982H639.994c-11.75 0-21.31-9.532-21.31-21.312 0-11.78 9.56-21.342 21.31-21.342h255.99a21.332 21.332 0 0 1 21.344 21.342c0 11.782-9.532 21.312-21.344 21.312zM895.984 469.322H639.994c-11.75 0-21.31-9.562-21.31-21.344s9.56-21.31 21.31-21.31h255.99c11.812 0 21.344 9.53 21.344 21.31s-9.532 21.344-21.344 21.344zM895.984 554.678H639.994c-11.75 0-21.31-9.562-21.31-21.358 0-11.782 9.56-21.344 21.31-21.344h255.99c11.812 0 21.344 9.562 21.344 21.344 0 11.796-9.532 21.358-21.344 21.358z" fill="#434A54" /></svg>