<?xml version="1.0" standalone="no"?><!DOCTYPE svg PUBLIC "-//W3C//DTD SVG 1.1//EN" "http://www.w3.org/Graphics/SVG/1.1/DTD/svg11.dtd"><svg class="icon" width="128px" height="128.00px" viewBox="0 0 1024 1024" version="1.1" xmlns="http://www.w3.org/2000/svg"><path d="M21.338 149.344C9.556 149.344 0.01 158.906 0.01 170.688v574.19c0 11.812 9.546 21.376 21.328 21.376s21.344-9.562 21.344-21.376V170.688c0-11.78-9.562-21.344-21.344-21.344zM1002.676 149.344c-11.812 0-21.374 9.562-21.374 21.344v574.19c0 11.812 9.56 21.376 21.374 21.376 11.75 0 21.312-9.562 21.312-21.376V170.688c0-11.78-9.562-21.344-21.312-21.344z" fill="#ED5564" /><path d="M895.366 954.684l-85.122-425.536a21.324 21.324 0 0 0-20.938-17.124H234.678c-10.172 0-18.938 7.156-20.92 17.124l-85.342 426.66a21.33 21.33 0 0 0 20.92 25.5h725.342c11.782 0 21.344-9.5 21.344-21.312a21.4 21.4 0 0 0-0.656-5.312z" fill="#656D78" /><path d="M554.686 981.308h-85.356l21.342-469.284h42.654zM1002.676 42.69H21.338C9.556 42.69 0.01 52.222 0.01 64.034v255.994c0 11.782 9.546 21.312 21.328 21.312h981.336c11.75 0 21.312-9.532 21.312-21.312V64.034c0.002-11.812-9.56-21.344-21.31-21.344z" fill="#E6E9ED" /><path d="M170.68 42.69h170.652v149.34H170.68zM341.332 192.032H512v149.31h-170.668zM0.012 192.032v127.998c0 11.782 9.546 21.312 21.328 21.312h149.34V192.032H0.012zM512 42.69h170.684v149.34H512zM682.684 192.032h170.622v149.31h-170.622zM1023.988 192.032V64.034c0-11.812-9.562-21.344-21.312-21.344h-149.372v149.34h170.684z" fill="#434A54" /></svg>