<?xml version="1.0" standalone="no"?><!DOCTYPE svg PUBLIC "-//W3C//DTD SVG 1.1//EN" "http://www.w3.org/Graphics/SVG/1.1/DTD/svg11.dtd"><svg class="icon" width="128px" height="128.00px" viewBox="0 0 1024 1024" version="1.1" xmlns="http://www.w3.org/2000/svg"><path d="M363.418 213.252L85.334 467.524v385.786l554.67-0.062V472.492z" fill="#FB6D51" /><path d="M299.42 554.568h127.996v256.054H299.42z" fill="#434A54" /><path d="M21.336 533.242a21.252 21.252 0 0 1-15.094-6.282c-8.312-8.344-8.312-21.844 0.032-30.156L348.326 198.158c8.344-8.344 21.874-8.312 30.186 0.032 8.312 8.312 8.312 21.842-0.032 30.154L36.43 526.992a21.354 21.354 0 0 1-15.094 6.25z" fill="#646C77" /><path d="M704 533.242a21.2 21.2 0 0 1-15.094-6.282L348.294 228.312c-8.312-8.344-8.282-21.842 0.032-30.154 8.344-8.344 21.874-8.312 30.186 0.032l340.582 298.646c8.312 8.344 8.312 21.844-0.032 30.156a21.276 21.276 0 0 1-15.062 6.25z" fill="#646C77" /><path d="M661.316 853.31H64.022c-11.782 0-21.344-9.5-21.344-21.312s9.562-21.312 21.344-21.312h597.294c11.782 0 21.34 9.5 21.34 21.312s-9.558 21.312-21.34 21.312z" fill="#E8563F" /><path d="M937.242 451.744c-117.304-131.402-73.808-281.054-73.808-281.054-178.714 53.748-285.46 189.776-266.648 363.834 0 0-30.532-13.25-78.714-41.282-37.718 270.07 106.496 360.068 277.554 360.068 171.022 0 333.644-186.496 141.616-401.566z" fill="#FECD57" /><path d="M554.132 534.524a414.822 414.822 0 0 1-1.718-22.094 1119.74 1119.74 0 0 1-34.344-19.188 769.656 769.656 0 0 0-2.718 22.156c24.468 12.906 38.78 19.126 38.78 19.126zM937.242 451.744c-117.304-131.402-73.808-281.054-73.808-281.054-16 4.812-31.402 10.282-46.214 16.376-7.376 42.342-16.688 159.37 77.336 264.68 185.402 207.632 40.25 388.628-123.898 400.942 8.25 0.438 16.562 0.626 24.968 0.626 171.022-0.004 333.644-186.5 141.616-401.57z" fill="#F5BA45" /></svg>