<?xml version="1.0" standalone="no"?><!DOCTYPE svg PUBLIC "-//W3C//DTD SVG 1.1//EN" "http://www.w3.org/Graphics/SVG/1.1/DTD/svg11.dtd"><svg class="icon" width="128px" height="128.00px" viewBox="0 0 1024 1024" version="1.1" xmlns="http://www.w3.org/2000/svg"><path d="M981.304 427.564H42.692c-11.78 0-21.342 9.532-21.342 21.312V960.86c0 11.782 9.562 21.344 21.342 21.344h938.614c11.782 0 21.344-9.562 21.344-21.344V448.876c-0.002-11.78-9.564-21.312-21.346-21.312z" fill="#FC6E51" /><path d="M170.688 555.56h-85.34a21.3 21.3 0 0 0-21.312 21.312v85.342c0 11.782 9.53 21.342 21.312 21.342h85.34c11.782 0 21.344-9.56 21.344-21.342v-85.342c0-11.78-9.564-21.312-21.344-21.312zM170.688 704.87h-85.34c-11.782 0-21.312 9.562-21.312 21.342v85.344c0 11.78 9.53 21.31 21.312 21.31h85.34c11.782 0 21.344-9.532 21.344-21.31v-85.344c0-11.78-9.564-21.342-21.344-21.342z" fill="#E9573F" /><path d="M938.652 555.56h-85.344a21.298 21.298 0 0 0-21.31 21.312v85.342c0 11.782 9.532 21.342 21.31 21.342h85.344c11.78 0 21.342-9.56 21.342-21.342v-85.342c0-11.78-9.562-21.312-21.342-21.312zM938.652 704.87h-85.344c-11.78 0-21.31 9.562-21.31 21.342v85.344c0 11.78 9.532 21.31 21.31 21.31h85.344c11.78 0 21.342-9.532 21.342-21.31v-85.344c0-11.78-9.562-21.342-21.342-21.342z" fill="#E9573F" /><path d="M768 555.56H256.03c-11.812 0-21.342 9.532-21.342 21.312v405.332h554.626V576.874c-0.002-11.782-9.564-21.314-21.314-21.314z" fill="#434A54" /><path d="M768 555.56H256.03c-11.812 0-21.342 9.532-21.342 21.312v149.338h554.626v-149.338c-0.002-11.78-9.564-21.312-21.314-21.312z" fill="#FFCE54" /><path d="M682.658 662.214h-341.32c-11.78 0-21.312-9.562-21.312-21.344s9.532-21.312 21.312-21.312h341.32c11.782 0 21.344 9.532 21.344 21.312s-9.562 21.344-21.344 21.344z" fill="#F6BB42" /><path d="M1002.648 470.22H21.348a21.328 21.328 0 0 1-18.124-10.124 21.256 21.256 0 0 1-0.938-20.75l42.656-85.342a21.356 21.356 0 0 1 19.094-11.782h895.958c8.062 0 15.438 4.562 19.06 11.782l42.656 85.342a21.336 21.336 0 0 1-0.906 20.75 21.42 21.42 0 0 1-18.156 10.124z" fill="#656D78" /><path d="M512.022 41.794c-94.122 0-170.682 76.936-170.682 171.526 0 94.624 76.56 171.558 170.682 171.558 94.076 0 170.636-76.936 170.636-171.558 0-94.59-76.56-171.526-170.636-171.526z" fill="#FC6E51" /><path d="M577.378 217.852c-30.904-32.874-14.124-89.184-13.998-89.684 2.376-7.5 0.406-15.656-5.062-21.28s-13.594-7.782-21.138-5.624c-54.344 15.532-89.406 59.904-97 120.996a21.378 21.378 0 0 0-19.718-3.906 21.334 21.334 0 0 0-15.032 18.562c-4.686 53.686 3.812 91.81 25.968 116.496 18.03 20.062 44.06 30.188 79.528 30.906 0.812 0 1.656 0.032 2.468 0.032 30.796 0 72.608-23.032 89.294-61.592 8.628-19.94 16.816-60.094-25.31-104.906z" fill="#FFCE54" /></svg>