<?xml version="1.0" standalone="no"?><!DOCTYPE svg PUBLIC "-//W3C//DTD SVG 1.1//EN" "http://www.w3.org/Graphics/SVG/1.1/DTD/svg11.dtd"><svg class="icon" width="128px" height="128.00px" viewBox="0 0 1024 1024" version="1.1" xmlns="http://www.w3.org/2000/svg"><path d="M256.006 362.692h511.99v469.3H256.006z" fill="#ED5564" /><path d="M436.908 926.928h171.78c78.308-45.404 141.934-151.184 31.498-268.712-89.874-95.59-56.53-204.462-56.53-204.462-136.888 39.092-197.856 123.402-197.856 242.15-13.656-9.376-32.86-25.094-43.124-37.906-57.326 131.964 10.328 227.212 94.232 268.93zM767.996 320.004h213.306V919.74H767.996z" fill="#FFCE54" /><path d="M981.302 448.002v-42.656H767.996v42.656h85.308v42.686h-85.308v42.656h213.306v-42.656h-85.31v-42.686zM981.302 661.34h-85.31v-42.654h85.31v-42.688H767.996v42.688h85.308v42.654h-85.308v42.656h213.306z" fill="#F6BB42" /><path d="M42.684 320.004h213.322V919.74H42.684z" fill="#FFCE54" /><path d="M0.012 64.01h1023.976v85.342H0.012z" fill="#A0D468" /><path d="M42.684 149.352h938.62v213.34H42.684z" fill="#E6E9ED" /><path d="M256.006 448.002v-42.656H42.684v42.656h85.326v42.686H42.684v42.656h213.322v-42.656H170.68v-42.686zM256.006 661.34H170.68v-42.654h85.326v-42.688H42.684v42.688h85.326v42.654H42.684v42.656h213.322zM256.006 746.682H42.684v42.656h85.326v43.06H170.68v-43.06h85.326zM981.302 746.682H767.996v42.656h85.308v43.06h42.688v-43.06h85.31z" fill="#F6BB42" /><path d="M767.996 831.804h213.306v42.688H767.996zM42.684 831.804h213.322v42.688H42.684z" fill="#F6BB42" /><path d="M790.372 234.694a21.3 21.3 0 0 0-21.312 21.312c0 11.812 9.532 21.344 21.312 21.344 11.78 0 21.31-9.532 21.31-21.344a21.298 21.298 0 0 0-21.31-21.312zM234.68 234.694c-11.782 0-21.344 9.532-21.344 21.312 0 11.812 9.562 21.344 21.344 21.344 11.78 0 21.326-9.532 21.326-21.344 0-11.782-9.548-21.312-21.326-21.312zM149.338 234.694c-11.782 0-21.328 9.532-21.328 21.312 0 11.812 9.546 21.344 21.328 21.344 11.78 0 21.342-9.532 21.342-21.344 0-11.782-9.562-21.312-21.342-21.312zM874.68 234.694c-11.812 0-21.376 9.532-21.376 21.312 0 11.812 9.562 21.344 21.376 21.344 11.75 0 21.312-9.532 21.312-21.344 0-11.782-9.562-21.312-21.312-21.312zM703.996 234.694H320.006c-11.782 0-21.328 9.532-21.328 21.312 0 11.812 9.546 21.344 21.328 21.344h383.99c11.782 0 21.312-9.532 21.312-21.344a21.298 21.298 0 0 0-21.312-21.312z" fill="#CCD1D9" /><path d="M104.198 149.352h241.352l85.342-85.342H189.54zM589.938 149.352h241.368l85.312-85.342h-241.34z" fill="#ED5564" /><path d="M42.684 831.992h938.62v127.998H42.684z" fill="#656D78" /><path d="M983.178 959.99H42.684c-11.782 0-21.344-9.532-21.344-21.312s9.562-21.344 21.344-21.344h940.494c11.782 0 21.312 9.562 21.312 21.344s-9.532 21.312-21.312 21.312z" fill="#434A54" /></svg>