<?xml version="1.0" standalone="no"?><!DOCTYPE svg PUBLIC "-//W3C//DTD SVG 1.1//EN" "http://www.w3.org/Graphics/SVG/1.1/DTD/svg11.dtd"><svg class="icon" width="128px" height="128.00px" viewBox="0 0 1024 1024" version="1.1" xmlns="http://www.w3.org/2000/svg"><path d="M405.34 789.806h213.356v234.182H405.34z" fill="#7F4545" /><path d="M405.34 847.618h42.654v176.372H405.34z" fill="#9B5C5C" /><path d="M170.688 853.96l341.304-640.64 341.32 640.642s-103.058 42.032-341.32 42.032c-238.244-0.002-341.304-42.034-341.304-42.034z" fill="#8CC153" /><path d="M228.312 745.776c38.436 9.782 123.308 24.5 285.398 24.5 163.292 0 245.542-14.938 281.856-24.718l-50.938-95.56c-49.438 7-122.808 13.032-228.792 13.032-109.528 0-185.308-6.438-236.088-13.75l-51.436 96.496z" fill="#A0D468" /><path d="M307.624 596.56l450.942 79.498-64.688-119.434H329.09z" fill="#79A83D" /><path d="M659.506 658.59l99.06 17.468-14.124-26.032c-22.938 3.22-50.938 6.252-84.936 8.564z" fill="#8CC153" /><path d="M256.06 534.062L512.054 0.012l256.012 534.05s-90.688 41.936-256.042 41.936c-165.402 0-255.964-41.936-255.964-41.936z" fill="#A0D468" /><path d="M301.936 438.346c49.216 6.032 118.058 10.876 212.338 10.876 92.734 0 160.042-4.688 208.042-10.594l-49-102.216c-42.624 3.124-94.684 5.156-157.762 5.156-65.998 0-120.246-2.218-164.558-5.562l-49.06 102.34zM400.372 233.006c33.874 1.032 71.81 1.656 114.246 1.656 40.516 0 76.766-0.562 109.204-1.532L512.054 0.012l-111.682 232.994z" fill="#8CC153" /></svg>