<?xml version="1.0" standalone="no"?><!DOCTYPE svg PUBLIC "-//W3C//DTD SVG 1.1//EN" "http://www.w3.org/Graphics/SVG/1.1/DTD/svg11.dtd"><svg class="icon" width="128px" height="128.00px" viewBox="0 0 1024 1024" version="1.1" xmlns="http://www.w3.org/2000/svg"><path d="M405.34 810.682h213.356v213.306H405.34z" fill="#7F4545" /><path d="M170.688 853.336l341.304-682.64 341.32 682.64z" fill="#8CC153" /><path d="M256.06 512.75L512.054 0.012l256.012 512.738z" fill="#A0D468" /><path d="M447.962 618.592c0 11.78-9.532 21.342-21.344 21.342-11.75 0-21.31-9.562-21.31-21.342 0-11.782 9.56-21.312 21.31-21.312 11.814 0 21.344 9.53 21.344 21.312z" fill="#ED5564" /><path d="M533.242 703.872c0 11.782-9.562 21.312-21.344 21.312s-21.342-9.532-21.342-21.312 9.56-21.344 21.342-21.344 21.344 9.562 21.344 21.344z" fill="#FFCE54" /><path d="M362.622 703.872c0 11.782-9.562 21.312-21.312 21.312-11.812 0-21.342-9.532-21.342-21.312s9.53-21.344 21.342-21.344c11.748 0 21.312 9.562 21.312 21.344z" fill="#AC92EB" /><path d="M703.878 703.872c0 11.782-9.562 21.312-21.312 21.312-11.812 0-21.31-9.532-21.31-21.312s9.498-21.344 21.31-21.344c11.75 0 21.312 9.562 21.312 21.344z" fill="#FFCE54" /><path d="M448.056 789.276c0 11.782-9.562 21.312-21.376 21.312-11.75 0-21.31-9.532-21.31-21.312s9.56-21.344 21.31-21.344c11.814 0 21.376 9.562 21.376 21.344z" fill="#AC92EB" /><path d="M277.31 789.276c0 11.782-9.562 21.312-21.344 21.312s-21.342-9.532-21.342-21.312 9.56-21.344 21.342-21.344 21.344 9.562 21.344 21.344z" fill="#FFCE54" /><path d="M618.696 789.276c0 11.782-9.562 21.312-21.312 21.312-11.812 0-21.376-9.532-21.376-21.312s9.562-21.344 21.376-21.344c11.748 0 21.312 9.562 21.312 21.344z" fill="#5D9CEC" /><path d="M789.316 789.276c0 11.782-9.562 21.312-21.376 21.312-11.75 0-21.312-9.532-21.312-21.312s9.562-21.344 21.312-21.344c11.814 0 21.376 9.562 21.376 21.344zM447.932 277.35c0 11.78-9.562 21.342-21.376 21.342-11.75 0-21.31-9.562-21.31-21.342 0-11.782 9.56-21.344 21.31-21.344 11.814 0 21.376 9.562 21.376 21.344z" fill="#ED5564" /><path d="M533.18 362.598c0 11.78-9.562 21.342-21.344 21.342s-21.342-9.562-21.342-21.342c0-11.782 9.56-21.312 21.342-21.312s21.344 9.53 21.344 21.312z" fill="#FFCE54" /><path d="M618.57 277.35c0 11.78-9.562 21.342-21.312 21.342-11.812 0-21.376-9.562-21.376-21.342 0-11.782 9.562-21.344 21.376-21.344 11.75 0 21.312 9.562 21.312 21.344zM447.994 448.002c0 11.78-9.562 21.342-21.344 21.342s-21.342-9.562-21.342-21.342c0-11.782 9.56-21.312 21.342-21.312s21.344 9.53 21.344 21.312z" fill="#5D9CEC" /><path d="M618.632 448.002c0 11.78-9.562 21.342-21.312 21.342-11.812 0-21.376-9.562-21.376-21.342 0-11.782 9.562-21.312 21.376-21.312 11.75 0 21.312 9.53 21.312 21.312z" fill="#ED5564" /><path d="M533.18 192.008c0 11.78-9.562 21.342-21.344 21.342s-21.342-9.562-21.342-21.342c0-11.782 9.56-21.312 21.342-21.312s21.344 9.53 21.344 21.312z" fill="#AC92EB" /><path d="M320.624 553.656l423.568 81.402-61.626-122.308H340.996z" fill="#79A83D" /><path d="M405.372 853.336h42.686v170.652h-42.686z" fill="#9B5C5C" /><path d="M618.632 618.592c0 11.78-9.562 21.342-21.312 21.342-11.812 0-21.376-9.562-21.376-21.342 0-11.782 9.562-21.312 21.376-21.312 11.75 0 21.312 9.53 21.312 21.312z" fill="#AC92EB" /></svg>