<?xml version="1.0" standalone="no"?><!DOCTYPE svg PUBLIC "-//W3C//DTD SVG 1.1//EN" "http://www.w3.org/Graphics/SVG/1.1/DTD/svg11.dtd"><svg class="icon" width="128px" height="128.00px" viewBox="0 0 1024 1024" version="1.1" xmlns="http://www.w3.org/2000/svg"><path d="M384.002 789.838h255.994v234.15H384.002z" fill="#7F4545" /><path d="M384.002 847.648h42.656v176.34h-42.656z" fill="#9B5C5C" /><path d="M128.008 853.992L512 213.35l383.992 640.642s-115.934 42-383.992 42c-268.056 0-383.992-42-383.992-42z" fill="#8CC153" /><path d="M270.538 616.186l530.58 79.498-71.59-119.404H294.692z" fill="#79A83D" /><path d="M676.778 583.092l-20.812-37.216c-1.656 0.906-160.87 88.746-435.458 153.808l-30.406 50.686c158.622-34.842 281.618-77.966 357.118-108.186 83.182-33.28 127.714-58.06 129.558-59.092z" fill="#ED5564" /><path d="M318.724 887.68c156.372-41.312 278.964-90.966 360.148-128.81 52.688-24.562 93.594-46.624 122.246-63.186l-21.964-36.624c-27.718 16-67.406 37.406-118.312 61.156-97.058 45.216-254.65 107.714-459.208 151.622 29.53 5.498 68.34 11.31 117.09 15.842z" fill="#AC92EB" /><path d="M429.314 639.964l89.248 13.406c10.188-3.906 19.782-7.624 28.656-11.188 83.184-33.28 127.714-58.06 129.558-59.092l-3.812-6.812h-79.714c-38.312 17.158-93.532 39.876-163.936 63.686z" fill="#DA4453" /><path d="M731.496 685.246l69.622 10.438-21.964-36.624c-13.19 7.624-29.126 16.468-47.658 26.186z" fill="#967ADC" /><path d="M213.382 555.406L512.062 0.012l298.648 555.394S704.932 597.342 512 597.342c-192.932 0-298.618-41.936-298.618-41.936z" fill="#A0D468" /><path d="M628.122 215.85c-13.278 9.718-35.872 24.686-68.372 41-45.938 23.032-120.53 52.998-224.528 71.998l-25.53 47.5c186.87-28.25 295.058-91.404 338.834-122.498l-20.404-38z" fill="#5D9CEC" /><path d="M731.402 407.908l-20.344-37.78c-26.188 10.876-66.594 26.53-117.964 43-79.468 25.5-200.84 57.75-342.462 72.998l-24.342 45.282c157.934-14.156 293.806-50 380.744-77.936 55.212-17.752 97.65-34.376 124.368-45.564z" fill="#FFCE54" /></svg>