<?xml version="1.0" standalone="no"?><!DOCTYPE svg PUBLIC "-//W3C//DTD SVG 1.1//EN" "http://www.w3.org/Graphics/SVG/1.1/DTD/svg11.dtd"><svg class="icon" width="128px" height="128.00px" viewBox="0 0 1024 1024" version="1.1" xmlns="http://www.w3.org/2000/svg"><path d="M64.021875 511.999a21.223959 21.223959 0 0 1-15.091971-6.249988L6.243988 463.093096c-8.311984-8.343984-8.311984-21.841957 0-30.169942 8.343984-8.327984 21.841957-8.343984 30.185941 0l42.655917 42.653917c8.341984 8.327984 8.341984 21.843957 0 30.171941A21.217959 21.217959 0 0 1 64.021875 511.999z" fill="#DA4453" /><path d="M21.335958 554.684917c-5.467989 0-10.905979-2.123996-15.09197-6.249988-8.311984-8.343984-8.311984-21.859957 0-30.187941l42.685916-42.669917c8.341984-8.327984 21.841957-8.327984 30.155942 0 8.341984 8.343984 8.341984 21.843957 0 30.171941l-42.655917 42.685917a21.433958 21.433958 0 0 1-15.093971 6.249988zM831.994375 341.333333a21.231959 21.231959 0 0 1-15.093971-6.249987l-42.685916-42.653917c-8.311984-8.327984-8.311984-21.843957 0-30.171941 8.343984-8.327984 21.843957-8.327984 30.187941 0l42.653917 42.669916a21.297958 21.297958 0 0 1 0 30.155942 21.209959 21.209959 0 0 1-15.061971 6.249987z" fill="#DA4453" /><path d="M789.308458 384.00325a21.285958 21.285958 0 0 1-15.09397-6.249988c-8.311984-8.327984-8.311984-21.841957 0-30.169941l42.685916-42.655917c8.311984-8.343984 21.843957-8.343984 30.155942 0a21.297958 21.297958 0 0 1 0 30.155942l-42.653917 42.669916a21.227959 21.227959 0 0 1-15.093971 6.249988z" fill="#DA4453" /><path d="M149.333708 426.673167c-50.061902 0-95.403814 43.903914-100.403804 48.903904-8.343984 8.343984-8.343984 21.843957 0 30.171941 0.499999 0.499999 12.341976 12.293976 29.905942 23.997953 24.811952 16.531968 48.529905 24.937951 70.497862 24.937952 105.463794 0 106.681792-61.40388 106.681792-64.013875 0-3.265994-0.843998-20.32796-16.935967-36.421929-18.281964-18.293964-48.497905-27.575946-89.745825-27.575946zM1007.050033 283.585446c-18.281964-18.295964-48.497905-27.577946-89.745825-27.577946-50.061902 0-95.403814 43.903914-100.403804 48.919904a21.297958 21.297958 0 0 0 0 30.155942c0.499999 0.499999 12.343976 12.295976 29.905942 23.999953 24.809952 16.543968 48.529905 24.919951 70.497862 24.919951 105.463794 0 106.683792-61.38788 106.683792-63.997875 0-3.249994-0.843998-20.31196-16.937967-36.419929z" fill="#ED5564" /><path d="M490.663042 341.333333c-11.779977 0-21.341958-9.545981-21.341959-21.327958V21.345958c0-11.781977 9.561981-21.327958 21.341959-21.327958 11.781977 0 21.311958 9.545981 21.311958 21.327958v298.659417c0 11.781977-9.529981 21.327958-21.311958 21.327958z" fill="#434A54" /><path d="M841.932356 727.800579a21.343958 21.343958 0 0 0-21.999957 1.249997l-62.373879 42.655917c-9.717981 6.655987-12.217976 19.935961-5.561989 29.653942s19.937961 12.217976 29.655942 5.561989l28.999944-19.841961v44.839912c0 0.405999-0.437999 39.375923-19.687962 77.06185-24.531952 47.995906-68.155867 72.339859-129.649747 72.339858-61.49988 0-105.123795-24.343952-129.621746-72.339858-19.217962-37.593927-19.687962-76.499851-19.717962-77.06185 0-11.747977-9.561981-21.279958-21.311958-21.279958-11.779977 0-21.341958 9.561981-21.341959 21.341958 0 1.937996 0.281999 48.249906 23.591954 94.873815 22.155957 44.309913 69.341865 97.12381 168.401671 97.12381 99.055807 0 146.243714-52.811897 168.397671-97.12381 23.341954-46.623909 23.591954-92.935818 23.591954-94.873815v-85.307833a21.299958 21.299958 0 0 0-11.371977-18.873963z" fill="#F6BB42" /><path d="M207.081596 454.249113c8.343984 8.327984 8.343984 21.843957 0 30.171941-8.311984 8.327984-21.843957 8.327984-30.155942 0-8.343984-8.327984-8.343984-21.843957 0-30.171941 8.311984-8.327984 21.841957-8.327984 30.155942 0zM975.052096 283.585446c8.341984 8.327984 8.341984 21.841957 0 30.169941-8.311984 8.327984-21.843957 8.327984-30.153942 0-8.343984-8.327984-8.343984-21.841957 0-30.169941 8.309984-8.327984 21.841957-8.327984 30.153942 0z" fill="#434A54" /><path d="M490.663042 298.677417c-35.279931 0-63.997875 28.703944-63.997875 63.997875 0 35.281931 28.717944 63.997875 63.997875 63.997875 35.281931 0 63.997875-28.715944 63.997875-63.997875 0-35.295931-28.715944-63.997875-63.997875-63.997875z m0 85.325833c-11.779977 0-21.341958-9.561981-21.341959-21.327958 0-11.763977 9.561981-21.341958 21.341959-21.341959 11.749977 0 21.311958 9.577981 21.311958 21.341959 0 11.765977-9.561981 21.327958-21.311958 21.327958z" fill="#FFCE54" /><path d="M490.663042 384.00325c-11.779977 0-21.341958 9.545981-21.341959 21.327958v426.591167c0 0.405999-0.437999 39.375923-19.687961 77.06185-24.529952 47.995906-68.121867 72.339859-129.651747 72.339858-61.49788 0-105.087795-24.343952-129.619747-72.339858-19.249962-37.687926-19.685962-76.65585-19.685961-76.99985v-44.901912l28.999943 19.841961c9.717981 6.655987 22.999955 4.155992 29.655942-5.561989 6.655987-9.717981 4.155992-22.997955-5.561989-29.653942l-62.373878-42.655917c-6.561987-4.467991-14.999971-4.93799-21.999957-1.249997s-11.375978 10.937979-11.375978 18.875963v85.307833c0 1.937996 0.25 48.249906 23.561954 94.873815 22.155957 44.309913 69.373865 97.12381 168.399671 97.12381 99.057807 0 146.275714-52.811897 168.431671-97.12381 23.311954-46.623909 23.561954-92.935818 23.561954-94.873815V405.331208c0-11.781977-9.529981-21.327958-21.311958-21.327958z" fill="#FFCE54" /></svg>