<?xml version="1.0" standalone="no"?><!DOCTYPE svg PUBLIC "-//W3C//DTD SVG 1.1//EN" "http://www.w3.org/Graphics/SVG/1.1/DTD/svg11.dtd"><svg class="icon" width="128px" height="128.00px" viewBox="0 0 1024 1024" version="1.1" xmlns="http://www.w3.org/2000/svg"><path d="M1023.988 512c0 282.776-229.214 511.988-511.988 511.988C229.224 1023.988 0.012 794.778 0.012 512 0.012 229.258 229.224 0.012 512 0.012 794.774 0.012 1023.988 229.258 1023.988 512z" fill="#E6E9ED" /><path d="M512 21.356c11.624 0 21.062-9.312 21.312-20.876a483.556 483.556 0 0 0-42.624 0c0.25 11.564 9.688 20.876 21.312 20.876zM512 1002.676c-11.624 0-21.062 9.312-21.312 20.876 7.062 0.312 14.188 0.438 21.312 0.438s14.25-0.124 21.312-0.438c-0.25-11.564-9.688-20.876-21.312-20.876z" fill="#CCD1D9" /><path d="M416.284 30.794c11.406-2.282 18.844-13.25 16.812-24.656a559.666 559.666 0 0 0-20.968 3.718c-7 1.406-13.938 2.938-20.812 4.594 2.468 11.312 13.56 18.626 24.968 16.344zM607.714 993.238c-11.404 2.282-18.842 13.25-16.81 24.656a558.842 558.842 0 0 0 20.966-3.718c7-1.406 13.938-2.938 20.812-4.594-2.468-11.312-13.56-18.594-24.968-16.344z" fill="#CCD1D9" /><path d="M324.222 58.7c10.75-4.438 15.906-16.656 11.718-27.436a484.42 484.42 0 0 0-19.876 7.75 519.956 519.956 0 0 0-19.532 8.562c4.66 10.592 16.94 15.592 27.69 11.124zM699.778 965.336c-10.75 4.434-15.906 16.652-11.718 27.434a484.42 484.42 0 0 0 19.876-7.75 518.436 518.436 0 0 0 19.53-8.562c-4.658-10.59-16.938-15.59-27.688-11.122z" fill="#CCD1D9" /><path d="M239.412 104.042c9.656-6.468 12.344-19.438 6.094-29.188a497.444 497.444 0 0 0-17.938 11.468 541.466 541.466 0 0 0-17.5 12.188c6.656 9.5 19.656 12 29.344 5.532zM784.586 919.992c-9.656 6.438-12.344 19.438-6.094 29.188a497.444 497.444 0 0 0 17.938-11.468 541.466 541.466 0 0 0 17.5-12.188c-6.656-9.5-19.656-12-29.344-5.532z" fill="#CCD1D9" /><path d="M165.07 165.072c8.218-8.218 8.312-21.5 0.282-29.842a524.76 524.76 0 0 0-15.376 14.75 488.992 488.992 0 0 0-14.75 15.406c8.344 7.998 21.594 7.904 29.844-0.314zM858.96 858.96c-8.25 8.218-8.344 21.5-0.312 29.844a526.37 526.37 0 0 0 15.376-14.75 526.856 526.856 0 0 0 14.78-15.406c-8.374-8-21.624-7.906-29.844 0.312z" fill="#CCD1D9" /><path d="M104.042 239.414c6.468-9.656 3.968-22.686-5.532-29.312a542.944 542.944 0 0 0-12.218 17.468 523.468 523.468 0 0 0-11.468 17.968c9.748 6.218 22.748 3.562 29.218-6.124zM919.958 784.622c-6.468 9.656-3.968 22.684 5.532 29.308 4.186-5.718 8.248-11.528 12.216-17.464s7.782-11.938 11.468-17.968c-9.748-6.22-22.746-3.564-29.216 6.124z" fill="#CCD1D9" /><path d="M58.698 324.254a21.324 21.324 0 0 0-11.156-27.686 548.872 548.872 0 0 0-8.56 19.53 555.3 555.3 0 0 0-7.75 19.844c10.778 4.22 22.996-0.938 27.466-11.688zM965.3 699.778a21.328 21.328 0 0 0 11.156 27.688 551.052 551.052 0 0 0 8.562-19.532 555.3 555.3 0 0 0 7.75-19.844c-10.78-4.218-22.998 0.938-27.468 11.688z" fill="#CCD1D9" /><path d="M30.762 416.284c2.282-11.406-5-22.468-16.312-24.968a504.524 504.524 0 0 0-4.594 20.812c-1.406 7-2.624 14-3.718 21 11.374 2 22.374-5.438 24.624-16.844zM993.238 607.75c-2.282 11.406 5 22.468 16.312 24.968a504.524 504.524 0 0 0 4.594-20.812c1.406-7 2.624-14 3.718-21-11.374-2.03-22.374 5.438-24.624 16.844z" fill="#CCD1D9" /><path d="M21.356 512c0-11.624-9.312-21.062-20.906-21.312A536.1 536.1 0 0 0 0.012 512c0 7.156 0.156 14.25 0.438 21.312A21.296 21.296 0 0 0 21.356 512zM1002.644 512a21.296 21.296 0 0 0 20.906 21.312c0.282-7.062 0.438-14.156 0.438-21.312 0-7.124-0.156-14.218-0.438-21.312-11.562 0.25-20.906 9.688-20.906 21.312z" fill="#CCD1D9" /><path d="M30.762 607.75c-2.25-11.406-13.25-18.876-24.624-16.844 1.094 7 2.312 14 3.718 21a503.8 503.8 0 0 0 4.594 20.812c11.312-2.5 18.592-13.562 16.312-24.968zM993.238 416.284c2.25 11.406 13.25 18.876 24.624 16.844-1.094-7-2.312-14-3.718-21a503.8 503.8 0 0 0-4.594-20.812c-11.28 2.5-18.592 13.562-16.312 24.968z" fill="#CCD1D9" /><path d="M58.698 699.778c-4.468-10.75-16.688-15.906-27.466-11.688a556.788 556.788 0 0 0 7.75 19.844 548.974 548.974 0 0 0 8.56 19.532 21.33 21.33 0 0 0 11.156-27.688zM965.3 324.254c4.468 10.75 16.688 15.906 27.468 11.688a556.788 556.788 0 0 0-7.75-19.844 527.844 527.844 0 0 0-8.562-19.53c-10.592 4.656-15.592 16.936-11.156 27.686z" fill="#CCD1D9" /><path d="M104.042 784.622c-6.468-9.688-19.468-12.376-29.218-6.124 3.688 6.032 7.5 12.032 11.468 17.968s8.062 11.746 12.218 17.464c9.5-6.626 12-19.652 5.532-29.308zM919.958 239.414c6.468 9.688 19.466 12.344 29.216 6.124a526.534 526.534 0 0 0-11.468-17.968 543.856 543.856 0 0 0-12.216-17.468c-9.5 6.624-12 19.656-5.532 29.312z" fill="#CCD1D9" /><path d="M165.07 858.96c-8.25-8.218-21.5-8.312-29.844-0.312a488.992 488.992 0 0 0 14.75 15.406 567.34 567.34 0 0 0 15.376 14.75c8.03-8.344 7.938-21.624-0.282-29.844zM858.96 165.072c8.218 8.218 21.468 8.312 29.81 0.282a522.968 522.968 0 0 0-14.748-15.376 527.4 527.4 0 0 0-15.376-14.75c-7.998 8.344-7.936 21.624 0.314 29.844z" fill="#CCD1D9" /><path d="M239.412 919.992c-9.688-6.468-22.718-3.968-29.344 5.532 5.718 4.156 11.562 8.218 17.5 12.188s11.906 7.782 17.938 11.468c6.25-9.75 3.562-22.75-6.094-29.188zM784.586 104.042c9.688 6.468 22.718 3.968 29.344-5.532-5.718-4.156-11.562-8.218-17.5-12.188s-11.906-7.812-17.938-11.5c-6.25 9.782-3.562 22.782 6.094 29.22z" fill="#CCD1D9" /><path d="M324.222 965.336c-10.75-4.468-23.032 0.532-27.656 11.122a496.58 496.58 0 0 0 19.5 8.562 483.3 483.3 0 0 0 19.876 7.75c4.186-10.782-0.97-23-11.72-27.434zM699.778 58.7c10.718 4.468 23.032-0.532 27.686-11.124a518.436 518.436 0 0 0-19.53-8.562 483.3 483.3 0 0 0-19.876-7.75c-4.186 10.78 0.97 22.998 11.72 27.436z" fill="#CCD1D9" /><path d="M416.284 993.238c-11.406-2.282-22.5 5.032-24.968 16.344a559.08 559.08 0 0 0 20.812 4.594c7 1.376 14 2.624 20.968 3.718 2.03-11.406-5.406-22.374-16.812-24.656zM607.714 30.794c11.406 2.25 22.5-5.032 24.968-16.344a559.08 559.08 0 0 0-20.812-4.594 554.804 554.804 0 0 0-20.966-3.718c-2.03 11.406 5.406 22.374 16.81 24.656z" fill="#CCD1D9" /><path d="M895.99 512c0 212.088-171.932 383.992-383.99 383.992S128.008 724.09 128.008 512c0-212.058 171.934-383.99 383.992-383.99S895.99 299.944 895.99 512z" fill="#CCD1D9" /><path d="M512 128.01c-7.156 0-14.282 0.218-21.344 0.624C692.808 139.698 853.336 307.1 853.336 512c0 204.932-160.528 372.334-362.68 383.398 7.062 0.406 14.188 0.594 21.344 0.594 212.058 0 383.99-171.902 383.99-383.992 0-212.056-171.932-383.99-383.99-383.99z" opacity=".1" /><path d="M810.648 576.032c0 11.782-9.532 21.312-21.312 21.312s-21.344-9.532-21.344-21.344c0-11.782 9.562-21.312 21.344-21.312s21.312 9.562 21.312 21.344zM725.34 618.688c0 11.782-9.562 21.34-21.344 21.34s-21.344-9.558-21.344-21.34 9.562-21.344 21.344-21.344 21.344 9.562 21.344 21.344zM513.75 234.694c0 11.782-9.532 21.344-21.312 21.344s-21.344-9.562-21.344-21.344c0-11.78 9.562-21.342 21.344-21.342s21.312 9.562 21.312 21.342zM384.002 234.694c0 11.782-9.562 21.344-21.342 21.312a21.3 21.3 0 0 1-21.312-21.312c0-11.78 9.532-21.342 21.312-21.342 11.78 0 21.342 9.562 21.342 21.342zM426.658 320.004c0 11.812-9.532 21.344-21.312 21.344s-21.344-9.532-21.344-21.312c0-11.78 9.562-21.342 21.344-21.342s21.312 9.562 21.312 21.31zM256.006 576c0 11.812-9.562 21.344-21.344 21.344s-21.312-9.562-21.312-21.344 9.532-21.312 21.312-21.312 21.344 9.53 21.344 21.312zM789.336 682.684c0 11.782-9.562 21.312-21.344 21.344-11.78 0-21.342-9.562-21.342-21.344s9.562-21.344 21.342-21.344c11.782 0 21.344 9.562 21.344 21.344zM469.344 746.684c0 11.782-9.562 21.312-21.344 21.344-11.78 0-21.342-9.562-21.342-21.344S436.22 725.34 448 725.34c11.782 0 21.344 9.562 21.344 21.344z" fill="#8CC153" /><path d="M328.286 599.812l-78.968 84.372 75.436 15.094 15.062 75.436 78.968-84.406z" fill="#434A54" /><path d="M512 832.024c0 11.782-9.562 21.312-21.344 21.312s-21.312-9.562-21.312-21.344 9.532-21.312 21.312-21.312S512 820.242 512 832.024z" fill="#8CC153" /><path d="M783.524 361.162c-30.154-30.156-44.592-14.406-75.434-45.25-30.844-30.842-15.062-45.248-45.25-75.404-30.156-30.186-120.684 0-150.84 30.156-30.156 30.156-183.714 329.15-183.714 329.15l90.498 90.496s297.806-141.528 331.274-174.996c33.466-33.47 63.622-123.968 33.466-154.152z" fill="#FFCE54" /><path d="M662.84 451.69l-30.156-30.188 30.156-30.156a21.33 21.33 0 0 0 0-30.186c-8.312-8.312-21.844-8.312-30.156 0v0.032l-30.186 30.154-30.156-30.186c-8.342-8.312-21.842-8.312-30.186 0-8.312 8.344-8.312 21.842 0 30.186h0.032l30.154 30.156-45.248 45.25-15.062-15.03c0-0.032-0.032-0.032-0.032-0.032-8.344-8.344-21.844-8.344-30.156 0-8.344 8.312-8.344 21.842 0 30.154l15.062 15.094-45.218 45.218c0 0.032-0.032 0.032-0.032 0.032-8.31 8.312-8.31 21.844 0 30.156a21.332 21.332 0 0 0 30.188 0l45.25-45.25 15.094 15.094c8.312 8.312 21.812 8.312 30.154 0 8.312-8.344 8.344-21.844 0-30.186l-15.092-15.062 45.248-45.248 30.124 30.092 0.062 0.062c8.312 8.344 21.844 8.344 30.156 0 8.344-8.314 8.344-21.844 0-30.156z" fill="#F6BB42" /><path d="M618.652 831.992c-22.78 0-44.216-8.876-60.308-24.968-16.124-16.122-25-37.558-25-60.34 0-22.812 8.876-44.218 24.968-60.344 16.124-16.124 37.56-25 60.34-25 22.812 0 44.218 8.876 60.344 25s25 37.532 25 60.344c0 22.782-8.876 44.218-25 60.34-16.124 16.094-37.532 24.968-60.344 24.968zM277.35 490.688c-22.812 0-44.218-8.876-60.344-25-16.124-16.124-24.998-37.53-24.998-60.342 0-22.78 8.876-44.216 24.998-60.342 16.124-16.094 37.532-25 60.344-25 22.78 0 44.216 8.906 60.342 25 16.094 16.124 24.968 37.562 24.968 60.342 0 22.812-8.876 44.218-24.968 60.342-16.126 16.126-37.564 25-60.342 25z" fill="#ED5564" /><path d="M694.09 671.246c-20.844-20.812-48.124-31.25-75.438-31.25-27.28 0.032-54.59 10.438-75.402 31.25-41.656 41.656-41.656 109.188 0 150.84 20.812 20.844 48.124 31.25 75.402 31.25 27.312 0 54.594-10.406 75.438-31.25 41.654-41.652 41.654-109.184 0-150.84z m-11.438 75.438c0 9.718-2.156 19.094-6.218 27.594l-27.594-27.594 27.594-27.624a64.056 64.056 0 0 1 6.218 27.624z m-64-64h0.032c9.688 0 19.062 2.156 27.594 6.218l-27.624 27.594-27.592-27.594a63.906 63.906 0 0 1 27.59-6.218z m-57.746 91.594c-4.094-8.5-6.25-17.876-6.25-27.594s2.156-19.094 6.25-27.594l27.592 27.594-27.592 27.594z m30.154 30.156l27.592-27.594 27.624 27.624a64.124 64.124 0 0 1-27.624 6.214 63.516 63.516 0 0 1-27.592-6.244zM277.35 298.694c-27.312 0-54.594 10.406-75.438 31.25-41.654 41.656-41.654 109.186 0 150.84C222.756 501.594 250.038 512 277.35 512c27.28 0 54.592-10.406 75.404-31.218 41.654-41.654 41.654-109.184 0-150.84-20.812-20.842-48.126-31.248-75.404-31.248z m30.154 106.652l27.594-27.592c4.094 8.5 6.25 17.874 6.25 27.592s-2.156 19.094-6.25 27.594l-27.594-27.594z m-30.154-63.998c9.716 0 19.092 2.156 27.592 6.218l-27.592 27.624-27.624-27.624a64.056 64.056 0 0 1 27.624-6.218z m-57.782 91.592c-4.062-8.5-6.218-17.876-6.218-27.594s2.156-19.092 6.218-27.592l27.594 27.592-27.594 27.594z m30.156 30.186l27.624-27.592 27.592 27.592a63.928 63.928 0 0 1-27.592 6.218 64.012 64.012 0 0 1-27.624-6.218z" fill="#DA4453" /></svg>