<?xml version="1.0" standalone="no"?><!DOCTYPE svg PUBLIC "-//W3C//DTD SVG 1.1//EN" "http://www.w3.org/Graphics/SVG/1.1/DTD/svg11.dtd"><svg class="icon" width="128px" height="128.00px" viewBox="0 0 1024 1024" version="1.1" xmlns="http://www.w3.org/2000/svg"><path d="M426.658 170.678a21.354 21.354 0 0 1-20.232-14.592c-3.718-11.188 2.328-23.25 13.498-27l128.014-42.654c11.154-3.718 23.248 2.312 26.966 13.5s-2.312 23.25-13.5 26.968l-127.996 42.686c-2.234 0.748-4.5 1.092-6.75 1.092zM512.016 448.01c-1.718 0-3.454-0.218-5.188-0.656l-85.326-21.342c-11.436-2.844-18.388-14.438-15.53-25.874 2.86-11.406 14.436-18.376 25.874-15.5l85.326 21.312c11.438 2.876 18.376 14.436 15.532 25.874a21.386 21.386 0 0 1-20.688 16.186z" fill="#434A54" /><path d="M1002.67 298.672H21.344c-11.78 0-21.328-9.562-21.328-21.342s9.546-21.344 21.328-21.344h981.326c11.75 0 21.312 9.562 21.312 21.344s-9.562 21.342-21.312 21.342z" fill="#7F4545" /><path d="M64.014 938.668c-11.782 0-21.328-9.562-21.328-21.342V234.674c0-11.78 9.546-21.342 21.328-21.342s21.328 9.562 21.328 21.342v682.652c0 11.78-9.546 21.342-21.328 21.342zM959.984 938.668c-11.78 0-21.31-9.562-21.31-21.342V234.674c0-11.78 9.532-21.342 21.31-21.342 11.782 0 21.312 9.562 21.312 21.342v682.652c0 11.78-9.53 21.342-21.312 21.342z" fill="#A85D5D" /><path d="M761.522 913.358c-9.562-50.438-37.282-100.31-82.306-148.246-46.594-49.594-72.844-107.558-78.062-172.276-3.906-48.888 6.282-83.608 6.344-83.888a21.286 21.286 0 0 0-5.156-21.186 21.3 21.3 0 0 0-21.092-5.562c-94.952 27.124-167.088 71.14-214.416 130.826-36.03 45.436-58.108 100.432-65.904 163.962-3.766-5.406-7.64-10.844-11.578-15.75a21.338 21.338 0 0 0-36.202 4.874c-22.608 52.06-33.248 103.152-31.608 151.934 0.39 11.498 9.812 20.624 21.328 20.624h497.684c6.376 0 12.376-2.844 16.438-7.718a21.336 21.336 0 0 0 4.53-17.594z" fill="#FFCE54" /><path d="M761.522 913.358c-9.562-50.438-37.282-100.31-82.306-148.246-46.594-49.594-72.844-107.558-78.062-172.276-3.906-48.888 6.282-83.608 6.344-83.888a21.286 21.286 0 0 0-5.156-21.186 21.3 21.3 0 0 0-21.092-5.562c-7.062 2-14 4.124-20.844 6.344a21.38 21.38 0 0 1 4.438 20.406c-0.094 0.282-10.282 35-6.344 83.888 5.188 64.716 31.436 122.682 78.06 172.276 45.062 47.936 72.746 97.808 82.306 148.246a21.338 21.338 0 0 1-4.56 17.592 21.314 21.314 0 0 1-16.404 7.718h42.652c6.376 0 12.376-2.844 16.438-7.718a21.336 21.336 0 0 0 4.53-17.594z" fill="#FFFFFF" opacity=".2" /><path d="M842.144 151.928a21.268 21.268 0 0 0-21.812 0.876l-130.9 85.34a21.4 21.4 0 0 0-9.654 17.874v42.656c0 7.218 3.654 13.938 9.686 17.874l130.87 85.31a21.268 21.268 0 0 0 11.656 3.468c3.5 0 7-0.844 10.156-2.562a21.318 21.318 0 0 0 11.154-18.782V170.678c-0.002-7.844-4.25-15.03-11.156-18.75z" fill="#656D78" /><path d="M655.934 167.116c-59.938-24.842-138.168-39.124-214.588-39.124-76.248 0-142.48 13.844-191.51 40.03-51.044 27.218-79.152 66.06-79.152 109.308 0 43.248 28.108 82.092 79.152 109.34 49.03 26.156 115.262 40 191.51 40 76.42 0 154.65-14.282 214.588-39.124 68.306-28.342 105.962-67.466 105.962-110.214 0-42.75-37.656-81.874-105.962-110.216z" fill="#FC6E51" /><path d="M289.834 286.174c-5.454 0-10.92-2.094-15.078-6.25-8.328-8.344-8.328-21.844 0-30.188l60.342-60.31a21.294 21.294 0 0 1 30.156 0c8.344 8.312 8.344 21.812 0 30.156l-60.326 60.34a21.316 21.316 0 0 1-15.094 6.252z" fill="#434A54" /><path d="M350.176 286.174a21.32 21.32 0 0 1-15.092-6.25l-60.326-60.34c-8.344-8.344-8.344-21.844 0-30.156 8.328-8.344 21.828-8.344 30.17 0l60.326 60.31a21.332 21.332 0 0 1 0 30.188 21.292 21.292 0 0 1-15.078 6.248z" fill="#434A54" /><path d="M257.148 319.984H183.666c-1.078 0-2.124 0.124-3.156 0.282 7.328 15.312 18.656 29.594 33.656 42.406h42.982c11.782 0 21.344-9.562 21.344-21.342s-9.562-21.346-21.344-21.346z" fill="#E9573F" /><path d="M512 341.328h-85.326c-11.78 0-21.342-9.562-21.342-21.344 0-11.78 9.562-21.312 21.342-21.312H512c11.782 0 21.328 9.532 21.328 21.312 0 11.782-9.546 21.344-21.328 21.344z" fill="#656D78" /></svg>