<?xml version="1.0" standalone="no"?><!DOCTYPE svg PUBLIC "-//W3C//DTD SVG 1.1//EN" "http://www.w3.org/Graphics/SVG/1.1/DTD/svg11.dtd"><svg class="icon" width="128px" height="128.00px" viewBox="0 0 1024 1024" version="1.1" xmlns="http://www.w3.org/2000/svg"><path d="M43.762 538.24h-1.094v-52.436H71.262l12.812-16.032c48.03-60.092 95.342-103.716 144.638-133.436 56.748-34.186 117.216-50.81 184.854-50.81 59.046 0 124.812 13.124 195.464 39l16.562 6.03 16-7.374c0.282-0.124 28.876-13.25 67.094-26.124 48.436-16.312 90.34-24.938 121.122-24.938 18.124 0 28.438 3 33.938 5.5 14.438 6.624 28.312 13.938 41.282 21.438v-42.594h11.31c-11.092-6.124-22.748-12.094-34.81-17.594-14.532-6.686-32.344-9.404-51.718-9.404-87.03 0-206.09 54.998-206.09 54.998-78.652-28.812-148.106-41.594-210.152-41.594-159.996 0-270.728 85.06-362.82 200.246H0.014v137.764h0.092c-0.032 1.344-0.092 2.656-0.092 4-1.218 187.808 217.214 288.868 468.318 288.868 194.606 0 408.822-60.684 555.662-188.744v-137.78h-42.656L43.762 538.24z" fill="#656D78" /><path d="M64.012 742.096c12.64 13.218 26.922 25.438 42.656 36.688V597.1H64.012v144.996zM149.338 805.126c13.532 7.188 27.782 13.842 42.67 19.936v-171.964H149.338v152.028zM234.664 840.468a639.82 639.82 0 0 0 42.67 11.844v-166.996h-42.67v155.152zM320.006 861.188a762.33 762.33 0 0 0 42.656 6.342v-163.778h-42.656v157.436zM405.334 871.592a913.22 913.22 0 0 0 42.67 1.938v-163.122h-42.67v161.184zM533.332 871.53v-157.122H490.66v159.058a936.516 936.516 0 0 0 42.672-1.936zM618.656 861.938v-158.186h-42.654v163.934a998.59 998.59 0 0 0 42.654-5.748zM704 844.624v-159.308h-42.656v168.964A996.542 996.542 0 0 0 704 844.624zM789.34 818.782v-153.684h-42.686v167.746a873.614 873.614 0 0 0 42.686-14.062zM874.652 782.876v-165.122h-42.656v184.496a780.728 780.728 0 0 0 42.656-19.374zM959.994 733.908v-143.996h-42.656v170.402c14.562-8.344 28.812-17.124 42.656-26.406z" fill="#434A54" /><path d="M981.336 297.402L322.708 490.68l354.51 99.232h227.808v-42.688H677.218c103.84-42.452 346.774-78.702 346.774-78.702v-138.06s-16.218-14.248-42.656-33.06z" fill="#E9573F" /><path d="M631.156 446.554c-8-55.998 392.836-115.78 392.836-115.78C682.656 41.784 2.184 113.718 0.014 447.118-2.158 780.502 687.72 840.5 1023.992 547.226c0-0.002-384.836-44.672-392.836-100.672z" fill="#FC6E51" /><path d="M645.376 425.774H1.122a238.72 238.72 0 0 0-1.108 21.344 233.88 233.88 0 0 0 0.842 21.312h652.112c-12.844-7.032-20.718-14.344-21.812-21.876-0.968-6.906 4.282-13.874 14.22-20.78z" fill="#E9573F" /><path d="M426.66 500.43c-30.03 0-59.092-6.906-79.748-18.938-17.11-10-26.906-22.5-26.906-34.376s9.796-24.406 26.906-34.374c20.656-12.062 49.718-18.968 79.748-18.968 30.032 0 59.108 6.906 79.764 18.968 17.096 9.966 26.908 22.498 26.908 34.374s-9.812 24.376-26.908 34.376c-20.656 12.032-49.732 18.938-79.764 18.938z" fill="#CCD1D9" /><path d="M426.66 372.462c-70.686 0-127.998 33.406-127.998 74.654 0 41.25 57.312 74.654 127.998 74.654 70.702 0 127.998-33.404 127.998-74.654 0-41.246-57.296-74.654-127.998-74.654z m69.014 90.592c-17.5 10.218-42.64 16.062-69.014 16.062-26.358 0-51.514-5.844-68.998-16.062-12.218-7.124-16.328-13.938-16.328-15.938s4.11-8.812 16.328-15.938c17.484-10.218 42.64-16.06 68.998-16.06 26.376 0 51.514 5.842 69.014 16.06 12.218 7.124 16.328 13.938 16.328 15.938s-4.11 8.814-16.328 15.938z" fill="#E6E9ED" /></svg>