<?xml version="1.0" standalone="no"?><!DOCTYPE svg PUBLIC "-//W3C//DTD SVG 1.1//EN" "http://www.w3.org/Graphics/SVG/1.1/DTD/svg11.dtd"><svg class="icon" width="128px" height="128.00px" viewBox="0 0 1024 1024" version="1.1" xmlns="http://www.w3.org/2000/svg"><path d="M552.092 328.818c-23.858-22.248-25.126-59.654-2.844-83.528 22.28-23.844 59.686-25.126 83.528-2.846 23.844 22.282 140.34 167.246 118.03 191.088-22.252 23.876-174.87-82.432-198.714-104.714z" fill="#EC5564" /><path d="M426.674 661.308c0 11.78-9.56 21.342-21.342 21.342s-21.328-9.562-21.328-21.342c0-11.782 9.546-21.312 21.328-21.312s21.342 9.532 21.342 21.312z" fill="#A9B1BC" /><path d="M512 1002.638c-100.7 0-195.088-10.81-265.802-30.466-76.608-21.282-96.858-45.186-96.858-54.874 0-9.656 20.25-33.592 96.858-54.874C316.912 842.8 411.3 831.988 512 831.988c100.686 0 195.086 10.812 265.802 30.438 76.626 21.282 96.874 45.216 96.874 54.874 0 9.688-20.248 33.592-96.874 54.874-70.716 19.654-165.116 30.464-265.802 30.464z" fill="#5E9CEA" /><path d="M512 810.646c-212.072 0-383.986 47.748-383.986 106.652S299.928 1023.982 512 1023.982c212.054 0 383.986-47.78 383.986-106.684S724.054 810.646 512 810.646z m316.302 120.466c-18.75 9.31-44.748 18.092-75.126 25.406-66.53 15.966-152.182 24.78-241.178 24.78-89.012 0-174.65-8.812-241.164-24.78-30.404-7.314-56.388-16.096-75.124-25.406-11.686-5.782-18.294-10.594-21.904-13.812 3.61-3.22 10.218-8.03 21.904-13.81 18.734-9.314 44.718-18.096 75.124-25.376 66.514-15.998 152.152-24.81 241.164-24.81 88.996 0 174.648 8.812 241.178 24.81 30.376 7.282 56.376 16.062 75.126 25.376 11.686 5.782 18.28 10.59 21.874 13.81-3.594 3.218-10.188 8.03-21.874 13.812z" fill="#E5E8EC" /><path d="M554.686 0.018c-11.796 0-21.36 9.53-21.36 21.31v390.3h42.672V21.328c0-11.782-9.562-21.31-21.312-21.31z" fill="#FECD57" /><path d="M575.998 498.282h-42.672v184.37h-0.032c0.018 0.438 0.032 0.876 0.032 1.344 0 23.5-19.138 42.654-42.654 42.654-23.53 0-42.67-19.154-42.67-42.654 0-0.468 0.016-0.906 0.032-1.344h-0.032v-42.654c0-11.812-9.546-21.344-21.328-21.344a21.332 21.332 0 0 0-21.342 21.344v42.654h0.032c0 0.438-0.032 0.876-0.032 1.344 0 47.126 38.202 85.31 85.34 85.31 47.124 0 85.326-38.186 85.326-85.31 0-0.468-0.032-0.906-0.032-1.344h0.032v-184.37z" fill="#CBD0D8" /><path d="M554.686 384.004c-35.358 0-64.014 28.656-64.014 63.998 0 35.344 28.656 63.998 64.014 63.998 35.31 0 63.998-28.654 63.998-63.998 0-35.342-28.688-63.998-63.998-63.998z m0 85.31c-11.782 0-21.36-9.562-21.36-21.312 0-11.782 9.578-21.344 21.36-21.344 11.75 0 21.312 9.562 21.312 21.344 0 11.75-9.562 21.312-21.312 21.312z" fill="#A9B1BC" /></svg>