<?xml version="1.0" standalone="no"?><!DOCTYPE svg PUBLIC "-//W3C//DTD SVG 1.1//EN" "http://www.w3.org/Graphics/SVG/1.1/DTD/svg11.dtd"><svg class="icon" width="128px" height="128.00px" viewBox="0 0 1024 1024" version="1.1" xmlns="http://www.w3.org/2000/svg"><path d="M789.332 342.97c-11.78 0-21.342-9.53-21.342-21.312V22.992c0-11.782 9.562-21.328 21.342-21.328 11.782 0 21.344 9.546 21.344 21.328v298.666c0 11.782-9.562 21.312-21.344 21.312z" fill="#CCD1D9" /><path d="M661.334 384H149.346c-5.656 0-11.094-2.25-15.094-6.25s-6.25-9.406-6.25-15.062v-63.998c0-11.812 9.562-21.344 21.344-21.344h31.25l79-118.498a21.35 21.35 0 0 1 17.75-9.5H618.68c11.782 0 21.31 9.546 21.31 21.328v121.544l39.094 58.624A21.32 21.32 0 1 1 661.334 384z" fill="#E6E9ED" /><path d="M789.364 343a21.396 21.396 0 0 1-18.592-10.812L600.118 31.882c-5.812-10.234-2.25-23.264 8-29.078 10.25-5.828 23.282-2.25 29.092 8l170.654 300.292c5.844 10.25 2.25 23.28-8 29.092a21.024 21.024 0 0 1-10.5 2.812z" fill="#FFCE54" /><path d="M661.334 384H149.346c-5.656 0-11.094-2.25-15.094-6.25s-6.25-9.406-6.25-15.062v-63.998c0-11.812 9.562-21.344 21.344-21.344h31.25l79-118.498a21.35 21.35 0 0 1 17.75-9.5H618.68c11.782 0 21.31 9.546 21.31 21.328v121.544l39.094 58.624A21.32 21.32 0 1 1 661.334 384z" fill="#CCD1D9" /><path d="M1023.078 315.44c-2.75-8.968-11.032-15.124-20.406-15.124h-213.34a21.188 21.188 0 0 0-14.78 5.968l-36.468 35.06H106.69c-5.656 0-11.094 2.25-15.094 6.25s-6.25 9.406-6.25 15.094V384H64.004c-11.782 0-21.312 9.562-21.312 21.344v128c0 11.78 9.532 21.31 21.312 21.31h810.67a21.316 21.316 0 0 0 21.312-20.81c2.75-115.094 117.404-193.718 118.53-194.468a21.35 21.35 0 0 0 8.562-23.936z" fill="#E6E9ED" /><path d="M831.988 129.662h-85.31c-11.782 0-21.344-9.562-21.344-21.342 0-11.782 9.562-21.328 21.344-21.328h85.31c11.78 0 21.342 9.546 21.342 21.328 0 11.78-9.562 21.342-21.342 21.342zM639.99 298.69c0-11.812-9.53-21.344-21.31-21.344H277.344c-11.782 0-21.344 9.532-21.344 21.344v42.374h42.686v-21.062h42.656v21.062h42.656v-21.062h42.688v22.624h42.656v-22.624h42.656v22.624h42.686v-22.624h42.654v22.624h42.654v-42.404h-0.062c0.028-0.5 0.06-1.032 0.06-1.532z" fill="#434A54" /><path d="M194.814 256.002h445.176V192.004H237.468z" fill="#5D9CEC" /><path d="M341.342 192.004h42.656v63.998h-42.656zM426.684 192.004h42.656v63.998h-42.656z" fill="#4A89DC" /><path d="M1023.984 1023.99V530.812l-33.124-16.562c-5.998-3-13.06-3-19.06 0l-33.124 16.562-33.156-16.562c-6-3-13.062-3-19.062 0l-33.124 16.562-33.124-16.562c-6-3-13.094-3-19.094 0l-33.124 16.562-33.124-16.562c-6-3-13.062-3-19.062 0l-33.124 16.562-33.124-16.562a21.376 21.376 0 0 0-19.092 0l-33.124 16.562-33.124-16.562c-6-3-13.094-3-19.094 0L512 530.812l-33.124-16.562c-6-3-13.062-3-19.062 0l-33.124 16.562-33.124-16.562a21.376 21.376 0 0 0-19.092 0l-33.124 16.562-33.124-16.562c-6-3-13.094-3-19.094 0L256 530.812l-33.124-16.562c-6-3-13.062-3-19.062 0l-33.124 16.562-33.124-16.562a21.376 21.376 0 0 0-19.092 0l-33.124 16.562-33.124-16.562c-6-3-13.062-3-19.094 0L0.008 530.812v493.178h1023.976z" fill="#5D9CEC" /><path d="M229.344 831.992c0-0.532-0.032-1.032-0.062-1.562-0.032-0.154-0.032-0.31-0.032-0.466a21.286 21.286 0 0 0-6.156-13.062l-42.656-42.656c-8.342-8.344-21.842-8.312-30.186 0-8.312 8.344-8.312 21.844 0 30.188l27.592 27.56-27.592 27.594c-8.312 8.312-8.312 21.844 0 30.156 4.188 4.188 9.624 6.25 15.094 6.25s10.906-2.094 15.092-6.25l42.656-42.656a21.302 21.302 0 0 0 6.156-13.032c0-0.188 0-0.344 0.032-0.5 0.03-0.532 0.062-1.032 0.062-1.564z" fill="#F6BB42" /><path d="M293.342 895.992c-21.968 0-45.686-8.376-70.498-24.906-17.562-11.718-29.406-23.5-29.906-24a21.33 21.33 0 0 1 0-30.186c5-5 50.342-48.906 100.404-48.906 41.25 0 71.436 9.282 89.748 27.594 16.094 16.094 16.906 33.156 16.906 36.404 0.002 2.626-1.186 64-106.654 64z" fill="#FFCE54" /><path d="M351.092 795.588c8.344 8.312 8.344 21.844 0 30.156-8.344 8.342-21.844 8.342-30.156 0-8.344-8.312-8.344-21.844 0-30.156 8.312-8.344 21.812-8.344 30.156 0z" fill="#434A54" /><path d="M835.486 725.34l27.594-27.594c8.344-8.312 8.344-21.844 0-30.156-8.344-8.344-21.844-8.344-30.154 0l-42.688 42.656a21.466 21.466 0 0 0-6.156 13.032v0.5a12.826 12.826 0 0 0 0 3.124v0.468a21.46 21.46 0 0 0 6.156 13.06l42.688 42.656a21.272 21.272 0 0 0 15.06 6.25 21.3 21.3 0 0 0 15.094-6.25 21.332 21.332 0 0 0 0-30.188l-27.594-27.558z" fill="#F6BB42" /><path d="M719.99 789.338c-105.436 0-106.654-61.404-106.654-63.998 0-3.25 0.812-20.312 16.906-36.438 18.31-18.282 48.498-27.562 89.748-27.562 22 0 45.718 8.376 70.498 24.906 17.562 11.718 29.438 23.5 29.938 24 8.312 8.344 8.312 21.842 0 30.186-5.032 5-50.374 48.906-100.436 48.906z" fill="#FFCE54" /><path d="M662.24 688.902c-8.312 8.344-8.312 21.844 0 30.188 8.344 8.312 21.844 8.312 30.188 0 8.312-8.344 8.312-21.844 0-30.188-8.344-8.312-21.844-8.312-30.188 0z" fill="#434A54" /></svg>