<?xml version="1.0" standalone="no"?><!DOCTYPE svg PUBLIC "-//W3C//DTD SVG 1.1//EN" "http://www.w3.org/Graphics/SVG/1.1/DTD/svg11.dtd"><svg class="icon" width="128px" height="128.00px" viewBox="0 0 1024 1024" version="1.1" xmlns="http://www.w3.org/2000/svg"><path d="M298.694083 341.312667a21.375791 21.375791 0 0 1-19.341811-12.249881c-4.999951-10.655896-0.437996-23.375772 10.2499-28.375722l181.308229-85.339167c10.655896-4.999951 23.373772-0.437996 28.405723 10.2159 4.999951 10.655896 0.437996 23.375772-10.2179 28.405723l-181.338229 85.309167a21.349792 21.349792 0 0 1-9.065912 2.03398zM725.301917 341.312667a21.339792 21.339792 0 0 1-9.061912-2.03198l-181.334229-85.309167c-10.655896-5.031951-15.217851-17.749827-10.2179-28.405723 5.031951-10.653896 17.717827-15.215851 28.401723-10.2159l181.306229 85.339167c10.655896 4.999951 15.249851 17.717827 10.2179 28.375722-3.623965 7.717925-11.31189 12.24788-19.311811 12.247881z" fill="#F4BE8E" /><path d="M543.999688 1023.978h-63.999376c-11.779885 0-21.341792-9.561907-21.341791-21.343791V117.320854c0-11.781885 9.561907-21.311792 21.341791-21.311792h63.999376c11.777885 0 21.339792 9.531907 21.339791 21.311792v885.313355c0 11.781885-9.561907 21.343792-21.339791 21.343791z" fill="#965353" /><path d="M725.333917 298.657083H298.662083c-11.781885 0-21.311792 9.531907-21.311791 21.343792v383.98625c0 6.467937 2.937971 12.593877 7.999921 16.655837l213.305917 170.652334a21.323792 21.323792 0 0 0 13.34187 4.687954c4.719954 0 9.437908-1.561985 13.31387-4.687954l213.333917-170.652334c5.061951-4.06196 7.999922-10.187901 7.999922-16.655837V320.000875c0-11.811885-9.529907-21.343792-21.311792-21.343792z" fill="#ED5564" /><path d="M426.658833 767.9845a21.299792 21.299792 0 0 0-21.311791 21.311792v27.311733L448.000625 850.765692v-61.4674c0-11.781885-9.561907-21.313792-21.341792-21.313792zM661.338542 782.484359v-57.185442c0-11.781885-9.561907-21.311792-21.343792-21.311792s-21.343792 9.531907-21.343792 21.311792v91.309108l42.687584-34.123666z" fill="#DA4453" /><path d="M421.502884 645.1457a21.299792 21.299792 0 0 1-15.093853-6.249939c-8.341919-8.311919-8.341919-21.843787 0-30.155706l180.992233-181.024232c8.343919-8.311919 21.843787-8.343919 30.187705 0 8.311919 8.343919 8.311919 21.843787 0 30.187705l-181.024232 180.992233a21.275792 21.275792 0 0 1-15.061853 6.249939z" fill="#F6BB42" /><path d="M512 682.645334c-11.779885 0-21.341792-9.561907-21.341792-21.343792V405.310042c0-11.781885 9.561907-21.309792 21.341792-21.309792 11.781885 0 21.343792 9.529907 21.343792 21.309792v255.9915c0 11.781885-9.561907 21.343792-21.343792 21.343792z" fill="#F6BB42" /><path d="M602.495116 645.1457a21.353791 21.353791 0 0 1-15.093852-6.249939l-180.992233-180.992233a21.335792 21.335792 0 0 1 0-30.187705c8.311919-8.311919 21.843787-8.311919 30.155706 0l181.024232 181.024232c8.343919 8.311919 8.343919 21.843787 0 30.155706a21.299792 21.299792 0 0 1-15.093853 6.249939z" fill="#F6BB42" /><path d="M277.350292 511.995h469.295417v42.653584h-469.295417z" fill="#F6BB42" /><path d="M810.645084 341.312667H213.352916c-11.779885 0-21.341792-9.531907-21.341791-21.311792a21.331792 21.331792 0 0 1 21.341791-21.343792h597.292168c11.781885 0 21.343792 9.531907 21.343791 21.343792 0 11.781885-9.561907 21.311792-21.343791 21.311792z" fill="#434A54" /><path d="M512 0.012c-58.809426 0-106.652958 47.841533-106.652958 106.652958 0 33.655671 16.061843 65.279363 42.655583 85.309167v21.343792c0 11.779885 9.531907 21.341792 21.343792 21.341791h85.307166c11.781885 0 21.343792-9.561907 21.343792-21.341791V191.974125c26.59374-20.031804 42.655583-51.653496 42.655583-85.309167C618.650958 47.853533 570.807426 0.012 512 0.012z" fill="#E6E9ED" /><path d="M490.656208 106.664958c0 11.781885-9.531907 21.343792-21.311791 21.343792-11.811885 0-21.343792-9.561907-21.343792-21.343792s9.531907-21.311792 21.343792-21.311792a21.299792 21.299792 0 0 1 21.311791 21.311792zM575.995375 106.664958c0 11.781885-9.561907 21.343792-21.343792 21.343792-11.777885 0-21.307792-9.561907-21.307791-21.343792s9.531907-21.311792 21.307791-21.311792c11.781885 0 21.343792 9.529907 21.343792 21.311792z" fill="#434A54" /><path d="M512.185998 426.841832c-58.715427 0-106.46496 47.747534-106.46496 106.46496 0 58.715427 47.749534 106.46296 106.46496 106.46296 58.715427 0 106.46496-47.747534 106.46496-106.46296 0-58.717427-47.749534-106.46496-106.46496-106.46496z" fill="#FFCE54" /></svg>