<?xml version="1.0" standalone="no"?><!DOCTYPE svg PUBLIC "-//W3C//DTD SVG 1.1//EN" "http://www.w3.org/Graphics/SVG/1.1/DTD/svg11.dtd"><svg class="icon" width="128px" height="128.00px" viewBox="0 0 1024 1024" version="1.1" xmlns="http://www.w3.org/2000/svg"><path d="M192.008 832c-11.782 0-21.342 9.53-21.342 21.31v42.688c0 11.782 9.562 21.31 21.342 21.31s21.342-9.53 21.342-21.31v-42.688c0-11.78-9.56-21.31-21.342-21.31zM277.35 832c-11.782 0-21.344 9.53-21.344 21.31v42.688c0 11.782 9.562 21.31 21.344 21.31 11.78 0 21.312-9.53 21.312-21.31v-42.688c0-11.78-9.532-21.31-21.312-21.31zM362.66 832a21.296 21.296 0 0 0-21.312 21.31v42.688c0 11.782 9.532 21.31 21.312 21.31s21.344-9.53 21.344-21.31v-42.688c0-11.78-9.562-21.31-21.344-21.31zM448.002 832c-11.782 0-21.342 9.53-21.342 21.31v42.688c0 11.782 9.562 21.31 21.342 21.31s21.344-9.53 21.344-21.31v-42.688c0-11.78-9.562-21.31-21.344-21.31zM533.344 832c-11.782 0-21.344 9.53-21.344 21.31v42.688c0 11.782 9.562 21.31 21.344 21.31s21.31-9.53 21.31-21.31v-42.688c0-11.78-9.53-21.31-21.31-21.31zM618.654 832a21.296 21.296 0 0 0-21.312 21.31v42.688c0 11.782 9.532 21.31 21.312 21.31s21.344-9.53 21.344-21.31v-42.688c0-11.78-9.562-21.31-21.344-21.31zM703.994 832c-11.78 0-21.342 9.53-21.342 21.31v42.688c0 11.782 9.562 21.31 21.342 21.31 11.782 0 21.344-9.53 21.344-21.31v-42.688c0-11.78-9.562-21.31-21.344-21.31z" fill="#DA4453" /><path d="M703.994 215.34H192.008c-11.782 0-21.342 9.562-21.342 21.342v616.626c0 11.782 9.562 21.344 21.342 21.344h511.986c11.782 0 21.344-9.562 21.344-21.344V236.684c0-11.782-9.562-21.344-21.344-21.344z" fill="#ED5564" /><path d="M584.154 470.958c-7.968-3.312-17.124-1.468-23.25 4.624L512 524.522l-48.904-48.938c-8.344-8.312-21.844-8.312-30.186 0l-48.906 48.938-48.906-48.938a21.394 21.394 0 0 0-23.25-4.624 21.382 21.382 0 0 0-13.188 19.718v170.636c0 11.782 9.562 21.344 21.344 21.344h255.994c11.782 0 21.344-9.562 21.344-21.344v-170.636c0-8.626-5.218-16.406-13.188-19.72zM1014.458 110.25a21.348 21.348 0 0 0-20.03-1.906L743.712 213.34H21.354c-11.78 0-21.342 9.562-21.342 21.342s9.562 21.342 21.342 21.342h719.608l253.278 108.906c2.688 1.188 5.562 1.75 8.406 1.75 4.124 0 8.216-1.188 11.748-3.532 6-3.938 9.594-10.624 9.594-17.812V128.03c0-7.156-3.562-13.812-9.53-17.78z" fill="#FFCE54" /><path d="M21.354 277.338c-11.78 0-21.342-9.532-21.342-21.312V213.34c0-11.782 9.562-21.312 21.342-21.312a21.3 21.3 0 0 1 21.312 21.312v42.686a21.298 21.298 0 0 1-21.312 21.312z" fill="#F6BB42" /></svg>