<?xml version="1.0" standalone="no"?><!DOCTYPE svg PUBLIC "-//W3C//DTD SVG 1.1//EN" "http://www.w3.org/Graphics/SVG/1.1/DTD/svg11.dtd"><svg class="icon" width="128px" height="128.00px" viewBox="0 0 1024 1024" version="1.1" xmlns="http://www.w3.org/2000/svg"><path d="M786.238 873.236l-36.592-512.198c-2.468-34.406-32.53-62.374-66.964-62.374H341.334c-34.468 0-64.53 27.966-66.982 62.374l-36.578 512.198c-1.234 17.28 4.468 33.654 16.046 46.122 11.592 12.438 27.514 19.282 44.858 19.282h426.624c17.374 0 33.278-6.844 44.872-19.282 11.564-12.468 17.284-28.842 16.064-46.122z" fill="#ED5564" /><path d="M170.684 533.312H21.346C9.566 533.312 0.018 523.78 0.018 512s9.546-21.344 21.328-21.344h149.338c11.78 0 21.328 9.562 21.328 21.344s-9.548 21.312-21.328 21.312zM1002.668 533.312h-149.372c-11.748 0-21.31-9.532-21.31-21.312s9.562-21.344 21.31-21.344h149.372c11.75 0 21.312 9.562 21.312 21.344s-9.562 21.312-21.312 21.312zM807.614 362.664c-7.376 0-14.562-3.812-18.5-10.656-5.876-10.218-2.376-23.25 7.812-29.156l129.308-74.652c10.216-5.906 23.248-2.406 29.154 7.812 5.904 10.186 2.406 23.25-7.812 29.124l-129.338 74.686a21.134 21.134 0 0 1-10.624 2.842zM682.62 237.73c-3.594 0-7.25-0.906-10.624-2.844-10.188-5.906-13.688-18.938-7.812-29.156l74.684-129.306c5.876-10.218 18.936-13.718 29.124-7.812 10.188 5.876 13.688 18.936 7.812 29.124l-74.682 129.338c-3.94 6.842-11.128 10.656-18.502 10.656zM512 192.012c-11.782 0-21.328-9.562-21.328-21.344V21.332C490.672 9.55 500.218 0.02 512 0.02c11.78 0 21.326 9.532 21.326 21.312v149.336c0 11.782-9.546 21.344-21.326 21.344zM341.366 237.73c-7.376 0-14.546-3.812-18.5-10.656l-74.668-129.338c-5.89-10.188-2.39-23.25 7.812-29.124 10.202-5.906 23.25-2.406 29.14 7.812l74.668 129.306c5.89 10.218 2.39 23.25-7.812 29.156a21.232 21.232 0 0 1-10.64 2.844zM216.386 362.664c-3.624 0-7.282-0.906-10.64-2.844l-129.324-74.686c-10.202-5.876-13.702-18.938-7.812-29.124 5.89-10.218 18.936-13.718 29.138-7.812l129.324 74.652c10.202 5.906 13.702 18.938 7.812 29.156-3.952 6.844-11.124 10.658-18.498 10.658z" fill="#DA4453" /><path d="M512 426.66c-82.34 0-149.322 66.998-149.322 149.338 0 82.308 66.982 149.306 149.322 149.306 82.342 0 149.306-66.998 149.306-149.306 0-82.342-66.964-149.338-149.306-149.338z" fill="#F6BB42" /><path d="M512 490.656c-47.046 0-85.326 38.282-85.326 85.342 0 47.03 38.28 85.308 85.326 85.308 47.06 0 85.31-38.28 85.31-85.308 0-47.06-38.25-85.342-85.31-85.342z" fill="#FFCE54" /><path d="M512 554.654c-35.296 0-63.998 28.718-63.998 63.998v127.994a21.36 21.36 0 0 0 6.25 15.094l42.67 42.652a21.286 21.286 0 0 0 15.078 6.25c5.452 0 10.92-2.094 15.076-6.25l42.672-42.652c4-4 6.25-9.438 6.25-15.094v-127.994c0-35.278-28.688-63.998-63.998-63.998z" fill="#F5F7FA" /><path d="M512 853.298c-11.782 0-21.328-9.562-21.328-21.312V789.3c0-11.782 9.546-21.31 21.328-21.31 11.78 0 21.326 9.53 21.326 21.31v42.686c0 11.75-9.546 21.312-21.326 21.312z" fill="#F5F7FA" /><path d="M810.676 810.642H213.338c-11.78 0-21.328 9.532-21.328 21.344v63.998c0 11.75 9.546 21.31 21.328 21.31h597.336c11.748 0 21.31-9.56 21.31-21.31v-63.998c0.002-11.812-9.56-21.344-21.308-21.344z" fill="#656D78" /><path d="M853.296 874.642H170.684c-11.78 0-21.342 9.532-21.342 21.342v106.622c0 11.812 9.562 21.376 21.342 21.376h682.612a21.366 21.366 0 0 0 21.376-21.376v-106.622c0-11.81-9.562-21.342-21.376-21.342z" fill="#434A54" /><path d="M767.988 959.982a21.296 21.296 0 0 0-21.31 21.312v42.686h42.624v-42.686a21.3 21.3 0 0 0-21.314-21.312zM682.682 959.982c-11.812 0-21.376 9.532-21.376 21.312v42.686h42.688v-42.686c0-11.78-9.562-21.312-21.312-21.312zM597.31 959.982c-11.75 0-21.312 9.532-21.312 21.312v42.686h42.686v-42.686c0-11.78-9.562-21.312-21.374-21.312zM512 959.982c-11.782 0-21.328 9.532-21.328 21.312v42.686h42.654v-42.686c0-11.78-9.546-21.312-21.326-21.312zM426.674 959.982c-11.782 0-21.344 9.532-21.344 21.312v42.686H448v-42.686c0.002-11.78-9.544-21.312-21.326-21.312zM341.334 959.982c-11.782 0-21.328 9.532-21.328 21.312v42.686h42.67v-42.686c0.002-11.78-9.56-21.312-21.342-21.312zM256.01 959.982c-11.782 0-21.328 9.532-21.328 21.312v42.686h42.654v-42.686c0-11.78-9.546-21.312-21.326-21.312z" fill="#656D78" /></svg>