<?xml version="1.0" standalone="no"?><!DOCTYPE svg PUBLIC "-//W3C//DTD SVG 1.1//EN" "http://www.w3.org/Graphics/SVG/1.1/DTD/svg11.dtd"><svg class="icon" width="128px" height="128.00px" viewBox="0 0 1024 1024" version="1.1" xmlns="http://www.w3.org/2000/svg"><path d="M593.054 633.312a21.36 21.36 0 0 0-6.25-15.094l-181.024-180.994c-8.344-8.342-21.844-8.342-30.156 0L43.762 769.056C15.576 797.274 0.014 834.772 0.014 874.646c0 39.906 15.562 77.404 43.748 105.59 28.186 28.218 65.686 43.75 105.59 43.75 39.904 0 77.404-15.532 105.588-43.75l331.864-331.832c4-3.998 6.25-9.436 6.25-15.092z" fill="#DA4453" /><path d="M717.082 607.094c0.218-0.094 0.406-0.218 0.594-0.312 0.498-0.282 0.998-0.562 1.436-0.876 0.124-0.062 0.218-0.124 0.312-0.188 0.438-0.312 0.876-0.624 1.282-0.938 0.124-0.094 0.218-0.188 0.344-0.282 0.5-0.406 0.968-0.844 1.406-1.282l0.094-0.094 180.996-180.994a21.272 21.272 0 0 0 0-30.186L632.054 120.422c-4-4-9.438-6.25-15.094-6.25s-11.094 2.25-15.094 6.25l-180.994 181.026-0.094 0.094a18.13 18.13 0 0 0-1.25 1.406c-0.094 0.094-0.218 0.218-0.282 0.344a12.214 12.214 0 0 0-0.938 1.282c-0.062 0.094-0.156 0.188-0.218 0.312-0.312 0.468-0.594 0.968-0.876 1.468-0.094 0.188-0.218 0.376-0.282 0.562a12.364 12.364 0 0 0-0.624 1.312c-0.06 0.188-0.186 0.406-0.248 0.594a12.45 12.45 0 0 0-0.344 0.968l-45.28 135.746a21.394 21.394 0 0 0 5.188 21.842l180.994 181.024a21.466 21.466 0 0 0 21.844 5.156l135.776-45.28a11.34 11.34 0 0 0 0.938-0.344c0.188-0.094 0.376-0.156 0.594-0.25 0.468-0.184 0.906-0.372 1.312-0.59z" fill="#ED5564" /><path d="M903.544 422.132a21.272 21.272 0 0 0 0-30.186L632.054 120.422c-4-4-9.438-6.25-15.094-6.25s-11.094 2.25-15.094 6.25l-30.154 30.188L873.42 452.286l30.124-30.154z" fill="#FFCE54" /><path d="M873.42 361.792l-30.186-30.188c-8.312 8.344-8.312 21.844 0 30.188 8.31 8.31 21.81 8.342 30.186 0zM813.048 301.448l-30.156-30.156c-8.344 8.312-8.344 21.812 0 30.156 8.344 8.344 21.844 8.344 30.156 0zM752.736 241.106l-30.188-30.154c-8.31 8.312-8.31 21.842 0 30.154a21.332 21.332 0 0 0 30.188 0zM692.396 180.796l-30.154-30.186a21.33 21.33 0 0 0 0 30.186c8.312 8.312 21.81 8.312 30.154 0z" fill="#F6BB42" /><path d="M194.6 829.396c-8.344-8.312-8.344-21.842 0-30.154l120.652-120.682c8.374-8.344 21.874-8.344 30.186 0 8.342 8.344 8.342 21.842 0 30.154l-120.684 120.682c-8.31 8.344-21.81 8.344-30.154 0z" fill="#434A54" /><path d="M360.532 723.806c-16.656 16.656-43.656 16.656-60.342 0-16.656-16.654-16.656-43.652 0-60.34 16.656-16.656 43.686-16.656 60.342 0 16.656 16.688 16.656 43.686 0 60.34z" fill="#656D78" /><path d="M707.488 135.516c-8.342-8.312-8.342-21.844 0-30.156l87.904-87.934c8.344-8.344 21.842-8.344 30.154 0 8.376 8.342 8.376 21.842 0 30.154l-87.904 87.936c-8.344 8.344-21.842 8.344-30.154 0zM797.986 226.044a21.33 21.33 0 0 1 0-30.186l189.586-189.586c8.344-8.344 21.844-8.344 30.156 0 8.344 8.344 8.344 21.842 0 30.154l-189.588 189.62c-8.344 8.31-21.842 8.31-30.154-0.002zM888.482 316.542c-8.312-8.342-8.312-21.842 0-30.186l87.936-87.904c8.31-8.312 21.81-8.312 30.124 0a21.272 21.272 0 0 1 0 30.186l-87.872 87.902c-8.344 8.314-21.876 8.314-30.188 0.002z" fill="#FFCE54" /></svg>