<?xml version="1.0" standalone="no"?><!DOCTYPE svg PUBLIC "-//W3C//DTD SVG 1.1//EN" "http://www.w3.org/Graphics/SVG/1.1/DTD/svg11.dtd"><svg class="icon" width="128px" height="128.00px" viewBox="0 0 1024 1024" version="1.1" xmlns="http://www.w3.org/2000/svg"><path d="M682.696 343.328c0 11.782-9.562 21.344-21.376 21.344H362.68c-11.782 0-21.344-9.562-21.344-21.344v-322C341.336 9.546 350.898 0 362.68 0h298.64c11.812 0 21.376 9.546 21.376 21.328v322z" fill="#E6E9ED" /><path d="M298.68 256v554.688C298.68 928.5 394.18 1024 512.008 1024c117.812 0 213.312-95.5 213.312-213.312V256H298.68z" fill="#ED5564" /><path d="M682.696 256v512c0 117.812-95.532 213.312-213.36 213.312-48.032 0-92.344-15.876-128-42.624C380.258 990.5 442.21 1024 512.008 1024c117.812 0 213.312-95.5 213.312-213.312V256h-42.624z" fill="#FFFFFF" opacity=".2" /><path d="M469.336 128H426.68c-11.782 0-21.344 9.546-21.344 21.328s9.562 21.344 21.344 21.344h42.656c11.782 0 21.344-9.562 21.344-21.344S481.118 128 469.336 128zM597.57 128h-42.688c-11.766 0-21.312 9.546-21.312 21.328s9.546 21.344 21.312 21.344h42.688c11.782 0 21.312-9.562 21.312-21.344S609.352 128 597.57 128z" fill="#CCD1D9" /><path d="M448.008 277.328h128c11.782 0 21.312-9.546 21.312-21.328h-170.64c0 11.782 9.546 21.328 21.328 21.328z" fill="#DA4453" /></svg>