<?xml version="1.0" standalone="no"?><!DOCTYPE svg PUBLIC "-//W3C//DTD SVG 1.1//EN" "http://www.w3.org/Graphics/SVG/1.1/DTD/svg11.dtd"><svg class="icon" width="128px" height="128.00px" viewBox="0 0 1024 1024" version="1.1" xmlns="http://www.w3.org/2000/svg"><path d="M544.809872 3.393987a21.295917 21.295917 0 0 0-23.295909 0.217999c-0.577998 0.375999-59.623767 39.091847-116.183546 39.091847-56.559779 0-115.589548-38.715849-116.153547-39.091847a21.319917 21.319917 0 0 0-23.669907 0c-0.593998 0.405998-59.277768 39.091847-116.165546 39.091847-56.561779 0-115.589548-38.715849-116.153547-39.091847A21.341917 21.341917 0 0 0 9.861961 3.393987 21.301917 21.301917 0 0 0 0.267999 24.641904l133.541478 860.404639c1.795993 11.655954 12.70395 19.623923 24.341905 17.81193 10.545959-1.623994 18.04593-10.717958 18.04593-21.061918h202.28921c-0.016 10.34396 7.499971 19.437924 18.029929 21.061918a19.713923 19.713923 0 0 0 3.295987 0.249999c10.34396 0 19.419924-7.531971 21.059918-18.061929L554.401834 24.641904a21.383916 21.383916 0 0 0-9.591962-21.247917zM1023.728001 999.386096l-133.557478-860.436639c-1.781993-11.623955-12.68795-19.593923-24.311905-17.78193-10.561959 1.623994-18.059929 10.717958-18.05993 21.061917H645.493479c0.032-10.34396-7.499971-19.437924-17.99993-21.061917-11.687954-1.811993-22.561912 6.155976-24.375905 17.78193l-133.541478 860.436639a21.337917 21.337917 0 0 0 9.593962 21.217917 21.319917 21.319917 0 0 0 23.311909-0.187999c0.577998-0.375999 59.637767-39.093847 116.199546-39.093847 56.561779 0 115.555549 38.717849 116.119547 39.093847a21.415916 21.415916 0 0 0 23.655907 0c0.593998-0.375999 59.653767-39.093847 116.213546-39.093847 56.561779 0 115.557549 38.717849 116.121547 39.093847a21.473916 21.473916 0 0 0 11.875953 3.561986c3.967985 0 7.937969-1.093996 11.467956-3.343987a21.327917 21.327917 0 0 0 9.591962-21.247917z" fill="#5D9CEC" /><path d="M277.334917 512c-11.781954 0-21.327917-9.531963-21.327917-21.311917V21.361917c0-11.781954 9.545963-21.343917 21.327917-21.343917 11.779954 0 21.341917 9.561963 21.341916 21.343917v469.326166c0 11.779954-9.561963 21.311917-21.341916 21.311917zM746.675083 1023.98c-11.811954 0-21.375917-9.531963-21.375916-21.311917V533.341917c0-11.781954 9.561963-21.341917 21.375916-21.341917 11.749954 0 21.311917 9.561963 21.311917 21.341917v469.326166c0 11.781954-9.561963 21.311917-21.311917 21.311917z" fill="#4A89DC" /><path d="M351.910625 502.936035c-20.827919-22.279913-45.903821-33.591869-74.575708-33.591868-28.655888 0-53.74779 11.311956-74.559709 33.591868-37.623853 40.311843-60.607763 117.121542-68.341733 228.333108-5.609978 80.591685-1.031996 149.089418-0.827997 151.963407a21.329917 21.329917 0 0 0 21.279917 19.875922h244.913043a21.339917 21.339917 0 0 0 21.279917-19.875922c0.187999-2.875989 4.781981-71.373721-0.827997-151.963407-7.73197-111.211566-30.73188-188.021266-68.339733-228.333108zM890.388522 140.76345c-0.781997-11.187956-10.061961-19.875922-21.281917-19.875922H624.181562c-11.187956 0-20.49992 8.687966-21.249917 19.875922-0.217999 2.875989-4.811981 71.403721 0.811997 151.995406 7.74997 111.213566 30.74988 188.023266 68.343733 228.303109 20.841919 22.311913 45.899821 33.623869 74.587708 33.623868 28.623888 0 53.74979-11.311956 74.559709-33.623868 37.623853-40.279843 60.591763-117.087543 68.309733-228.303109 5.625978-80.591685 1.063996-149.121417 0.843997-151.995406z" fill="#CCD1D9" /><path d="M405.330417 853.328667c0 82.465678-57.293776 149.339417-127.9955 149.339416-70.683724 0-127.9955-66.873739-127.9955-149.339416 0-82.463678 57.309776-149.337417 127.9955-149.337417 70.701724 0 127.9955 66.873739 127.9955 149.337417z" fill="#AAB2BC" /><path d="M277.334917 1023.98c-82.339678 0-149.323417-76.559701-149.323417-170.651333 0-94.089632 66.981738-170.647333 149.323417-170.647334s149.337417 76.557701 149.337416 170.647334c0 94.091632-66.997738 170.651333-149.337416 170.651333z m0-298.646833c-58.80977 0-106.651583 57.405776-106.651584 127.9955 0 70.591724 47.841813 127.9955 106.651584 127.9955 58.82577 0 106.667583-57.403776 106.667583-127.9955 0-70.589724-47.841813-127.9955-106.667583-127.9955z" fill="#E6E9ED" /><path d="M618.681583 170.699333c0-82.465678 57.281776-149.337417 127.9935-149.337416 70.685724 0 127.9955 66.871739 127.9955 149.337416 0 82.463678-57.309776 149.305417-127.9955 149.305417-70.713724 0-127.9935-66.839739-127.9935-149.305417z" fill="#AAB2BC" /><path d="M746.675083 341.348667c-82.369678 0-149.369417-76.559701-149.369416-170.649334 0-94.121632 66.999738-170.681333 149.369416-170.681333 82.309678 0 149.307417 76.559701 149.307417 170.681333 0 94.089632-66.997738 170.649333-149.307417 170.649334z m0-298.644834c-58.83977 0-106.681583 57.403776-106.681583 127.9955 0 70.559724 47.841813 127.9955 106.681583 127.9955 58.81177 0 106.621584-57.435776 106.621584-127.9955-0.002-70.591724-47.809813-127.9955-106.621584-127.9955z" fill="#E6E9ED" /></svg>