<?xml version="1.0" standalone="no"?><!DOCTYPE svg PUBLIC "-//W3C//DTD SVG 1.1//EN" "http://www.w3.org/Graphics/SVG/1.1/DTD/svg11.dtd"><svg class="icon" width="128px" height="128.00px" viewBox="0 0 1024 1024" version="1.1" xmlns="http://www.w3.org/2000/svg"><path d="M430.064 812.394c-0.156-11.688-9.656-21.094-21.342-21.094H97.764a21.34 21.34 0 0 0-16 7.218 21.244 21.244 0 0 0-5.188 16.75c0.124 1.188 0.312 4.282 0.5 7.31 1.218 21 4.094 70.156 26.468 114.374 28.874 56.936 80.622 87.03 149.682 87.03 47.53 0 86.874-15.406 116.904-45.844 60.528-61.308 59.996-161.524 59.934-165.744z" fill="#37BC9B" /><path d="M266.632 2.11C148.45 12.86-4.638 74.638 24.736 297.506c60.998 463.234 8.342 555.106 104.808 622.168 87.216 60.59 180.526 52.652 260.084-15.812 91.31-78.594 10-217.46 47.624-369.332 79.56-321.082 56.124-404.236 18.53-463.454-29.342-46.248-67.904-79.966-189.15-68.966z" fill="#48CFAD" /><path d="M278.882 192.072c-11.782 0-21.344-9.562-21.344-21.342V128.012c0-11.782 9.562-21.342 21.344-21.342 11.78 0 21.342 9.562 21.342 21.342v42.718c0.002 11.78-9.56 21.342-21.342 21.342z" fill="#434A54" /><path d="M129.388 619.152c-10.562 0-19.75-7.844-21.156-18.594-10.062-76.56-8.156-147.622 5.656-211.15 11.156-51.436 30.124-98.058 56.31-138.622 45.186-69.998 96.496-97.776 98.684-98.932 10.406-5.5 23.342-1.562 28.842 8.876 5.532 10.374 1.594 23.28-8.782 28.842-15.5 8.376-52.998 37.28-84.308 86.59-22.966 36.218-39.592 78-49.434 124.184-12.374 58.248-13.936 123.746-4.624 194.65 1.532 11.718-6.686 22.438-18.374 23.968-0.97 0.126-1.908 0.188-2.814 0.188z" fill="#656D78" /><path d="M364.318 619.152c-0.532 0-1.094-0.032-1.656-0.062-11.75-0.906-20.562-11.156-19.656-22.906 6.906-91.028 7.28-221.242-30.312-324.834-17.782-48.998-39.062-76.716-47.842-84.528l0.188 0.156 27.686-32.498c4.876 4.124 118.684 105.246 92.872 444.922-0.876 11.22-10.218 19.75-21.28 19.75z" fill="#656D78" /><path d="M942.236 798.52a21.34 21.34 0 0 0-16-7.218H615.278c-11.688 0-21.188 9.406-21.344 21.094-0.062 4.218-0.594 104.436 59.938 165.744 30.03 30.438 69.37 45.844 116.9 45.844 69.06 0 120.808-30.094 149.684-87.03 22.376-44.216 25.25-93.374 26.468-114.374 0.188-3.03 0.376-6.124 0.5-7.31a21.244 21.244 0 0 0-5.188-16.75z" fill="#37BC9B" /><path d="M757.366 2.11C875.55 12.86 1028.64 74.638 999.264 297.506c-60.996 463.234-8.344 555.106-104.808 622.168-87.214 60.59-180.526 52.652-260.084-15.812-91.308-78.594-10-217.46-47.624-369.332-79.558-321.082-56.122-404.236-18.53-463.454 29.34-46.248 67.904-79.966 189.148-68.966z" fill="#48CFAD" /><path d="M745.116 192.072c-11.782 0-21.344-9.562-21.344-21.342V128.012c0-11.782 9.562-21.342 21.344-21.342s21.344 9.562 21.344 21.342v42.718c-0.002 11.78-9.564 21.342-21.344 21.342z" fill="#434A54" /><path d="M894.612 619.152c-0.938 0-1.844-0.062-2.812-0.188-11.688-1.532-19.906-12.25-18.376-23.968 9.406-71.686 7.718-137.808-5.032-196.524-10.094-46.404-27.06-88.278-50.466-124.528-39.216-60.748-82.374-84.122-82.81-84.34-10.438-5.532-14.376-18.468-8.844-28.874 5.5-10.438 18.438-14.406 28.844-8.876 2.188 1.156 53.5 28.936 98.684 98.932 26.188 40.562 45.156 87.186 56.312 138.622 13.812 63.528 15.718 134.588 5.656 211.15-1.406 10.75-10.594 18.594-21.156 18.594z" fill="#656D78" /><path d="M659.684 619.152c-11.062 0-20.406-8.532-21.282-19.75-25.812-339.676 88.026-440.796 92.87-444.922l27.688 32.498 0.188-0.156c-8.782 7.812-30.062 35.53-47.842 84.528-37.59 103.59-37.214 233.804-30.308 324.834 0.906 11.75-7.906 22-19.656 22.906a29.88 29.88 0 0 1-1.658 0.062z" fill="#656D78" /></svg>