<?xml version="1.0" standalone="no"?><!DOCTYPE svg PUBLIC "-//W3C//DTD SVG 1.1//EN" "http://www.w3.org/Graphics/SVG/1.1/DTD/svg11.dtd"><svg class="icon" width="128px" height="128.00px" viewBox="0 0 1024 1024" version="1.1" xmlns="http://www.w3.org/2000/svg"><path d="M256.008 320.022l-0.954 410.846h512.438l0.968-410.846L512 64.03z" fill="#9ED36A" /><path d="M448.002 406.894h127.996v201.23h-127.996zM180.136 417.206a21.152 21.152 0 0 1-15.078-6.25c-8.328-8.312-8.328-21.812 0-30.156L496.906 48.938c8.328-8.312 21.846-8.312 30.172 0 8.328 8.342 8.328 21.842 0 30.184L195.228 410.956a21.18 21.18 0 0 1-15.092 6.25z" fill="#424953" /><path d="M843.866 417.206c-5.466 0-10.936-2.062-15.092-6.25L496.906 79.122c-8.328-8.342-8.328-21.842 0-30.184 8.328-8.312 21.846-8.312 30.172 0L858.928 380.8c8.344 8.344 8.344 21.842 0 30.156a21.146 21.146 0 0 1-15.062 6.25z" fill="#424953" /><path d="M927.174 624.372l-61.34-6.25-105.342-47.998-70.654 54.248-57.34 12.376-97.31-49.31-36-8-65.34 35.998-45.328 8.938-87.996-19.624-52-34.626s-19.702 36-35.186 40c-15.468 3.998-76.81 22.624-76.81 22.624l-43.998-8.376L0.016 578.124v403.174h1023.968V578.124l-96.81 46.248z" fill="#4A89DC" /><path d="M0.016 760.554h0.172c6.282 0 10.484 1.688 11.828 2.626l56.998 37.998c16.376 10.938 37.39 16.938 59.17 16.938 21.782 0 42.782-6 59.172-16.938l56.98-37.998c1.36-0.938 5.562-2.626 11.844-2.626s10.484 1.688 11.828 2.626l56.998 37.998c16.376 10.938 37.388 16.938 59.17 16.938s42.782-6 59.154-16.938l56.998-37.998c1.36-0.938 5.562-2.626 11.844-2.626 6.284 0 10.484 1.688 11.828 2.626l56.998 37.998c16.376 10.938 37.376 16.938 59.188 16.938 21.748 0 42.746-6 59.122-16.938l56.998-37.998c1.376-0.938 5.562-2.626 11.876-2.626 6.25 0 10.468 1.688 11.812 2.626l57 37.998c16.374 10.938 37.374 16.938 59.182 16.938 21.75 0 42.75-6 59.156-16.938l56.966-37.998c1.376-0.876 5.5-2.562 11.688-2.626v-42.624c-12.812 0-25.624 3.25-35.31 9.748l-57 37.998c-9.782 6.5-22.656 9.75-35.5 9.75-12.874 0-25.746-3.25-35.496-9.75l-57-37.996c-9.782-6.498-22.656-9.748-35.5-9.748-12.876 0-25.75 3.25-35.5 9.748l-56.996 37.998c-9.782 6.5-22.656 9.75-35.498 9.75-12.876 0-25.75-3.25-35.5-9.75l-56.998-37.998c-9.782-6.498-22.656-9.748-35.516-9.748-12.876 0-25.734 3.25-35.498 9.748l-56.998 37.998c-9.766 6.5-22.64 9.75-35.5 9.75-12.876 0-25.732-3.25-35.498-9.75L291.68 727.68c-9.766-6.498-22.64-9.748-35.5-9.748-12.876 0-25.732 3.25-35.498 9.748l-56.998 37.998c-9.766 6.5-22.626 9.75-35.5 9.75-12.874 0-25.732-3.25-35.498-9.75L35.688 727.68c-9.766-6.498-22.626-9.748-35.5-9.748H0.016v42.622z" fill="#5D9CEC" /><path d="M0.016 597.374h0.172c6.282 0 10.484 1.688 11.828 2.562l56.998 37.998c16.376 10.936 37.39 16.936 59.17 16.936 21.782 0 42.782-6 59.172-16.936l56.98-37.998c1.36-0.876 5.562-2.562 11.844-2.562s10.484 1.688 11.828 2.562l56.998 37.998c16.376 10.936 37.388 16.936 59.17 16.936s42.782-6 59.154-16.936l56.998-37.998c1.36-0.876 5.562-2.562 11.844-2.562 6.284 0 10.484 1.688 11.828 2.562l56.998 37.998c16.376 10.936 37.376 16.936 59.188 16.936 21.748 0 42.746-6 59.122-16.936l56.998-37.998c1.376-0.876 5.562-2.562 11.876-2.562 6.25 0 10.468 1.688 11.812 2.562l57 37.998c16.374 10.936 37.374 16.936 59.182 16.936 21.75 0 42.75-6 59.156-16.936l56.966-37.998c1.376-0.876 5.5-2.562 11.688-2.562v-42.688c-12.812 0-25.624 3.25-35.31 9.75l-57 38c-9.782 6.5-22.656 9.75-35.5 9.75-12.874 0-25.746-3.25-35.496-9.75l-56.998-38c-9.782-6.5-22.656-9.75-35.5-9.75-12.876 0-25.75 3.25-35.5 9.75l-56.996 38c-9.782 6.5-22.656 9.75-35.498 9.75-12.876 0-25.75-3.25-35.5-9.75l-56.998-38c-9.782-6.5-22.656-9.75-35.516-9.75-12.876 0-25.734 3.25-35.498 9.75l-56.998 38c-9.766 6.5-22.64 9.75-35.5 9.75-12.876 0-25.732-3.25-35.498-9.75l-56.998-38c-9.766-6.5-22.64-9.75-35.5-9.75-12.876 0-25.732 3.25-35.498 9.75l-56.998 38c-9.766 6.5-22.626 9.75-35.5 9.75-12.874 0-25.732-3.25-35.498-9.75l-56.998-38c-9.766-6.5-22.626-9.75-35.5-9.75H0.018v42.688zM0.016 923.796h0.172c6.282 0 10.484 1.688 11.828 2.626l56.998 38c16.376 10.876 37.39 16.876 59.17 16.876 21.782 0 42.782-6 59.156-16.876l56.996-38c1.36-0.938 5.562-2.626 11.844-2.626 6.266 0 10.484 1.688 11.828 2.626l56.998 38c16.376 10.876 37.388 16.876 59.17 16.876s42.782-6 59.154-16.876l56.998-38c1.344-0.938 5.562-2.626 11.844-2.626 6.268 0 10.484 1.688 11.828 2.626l56.998 38c16.376 10.876 37.376 16.876 59.188 16.876 21.748 0 42.746-6 59.122-16.876l56.998-38c1.376-0.938 5.562-2.626 11.876-2.626 6.25 0 10.468 1.688 11.812 2.626l57 38c16.374 10.876 37.374 16.876 59.182 16.876 21.75 0 42.75-6 59.126-16.876l56.998-38c1.376-0.938 5.5-2.562 11.688-2.626v-42.682c-12.812 0.062-25.624 3.31-35.342 9.81l-56.968 37.996c-9.782 6.5-22.656 9.75-35.5 9.75-12.874 0-25.746-3.25-35.528-9.75l-56.966-37.996c-9.782-6.562-22.656-9.81-35.5-9.81-12.876 0-25.75 3.248-35.532 9.81l-56.964 37.996c-9.782 6.5-22.656 9.75-35.498 9.75-12.876 0-25.75-3.25-35.5-9.75l-56.998-37.996c-9.782-6.562-22.656-9.81-35.516-9.81-12.876 0-25.75 3.248-35.498 9.81L419.68 928.92c-9.766 6.5-22.64 9.75-35.5 9.75-12.876 0-25.748-3.25-35.498-9.75l-56.998-37.996c-9.766-6.562-22.64-9.81-35.5-9.81-12.876 0-25.748 3.248-35.498 9.81L163.688 928.92c-9.766 6.5-22.64 9.75-35.5 9.75-12.874 0-25.748-3.25-35.498-9.75l-56.998-37.996c-9.766-6.562-22.64-9.81-35.5-9.81H0.02v42.682z" fill="#5D9CEC" /></svg>