<?xml version="1.0" standalone="no"?><!DOCTYPE svg PUBLIC "-//W3C//DTD SVG 1.1//EN" "http://www.w3.org/Graphics/SVG/1.1/DTD/svg11.dtd"><svg class="icon" width="128px" height="128.00px" viewBox="0 0 1024 1024" version="1.1" xmlns="http://www.w3.org/2000/svg"><path d="M480.278 957.146L459.44 919.94c1.032-0.594 104.514-59.292 158.966-143.206l35.772 23.244c-60.296 92.878-169.276 154.576-173.9 157.168zM464.22 831.716c-98.22-27.054-138.458-86.848-140.144-89.378l35.646-23.46-0.062-0.094c0.344 0.5 34.052 49.266 115.872 71.822l-11.312 41.11z" fill="#8CC153" /><path d="M623.56 812.35c-96.454-2.688-203.67-205.532 218.278-221.528-9.714 422.122-214.152 317.934-218.278 221.528zM336.384 736.964c64.012-5.186 128.118-143.83-152.922-139.55 21.37 280.258 153.578 203.782 152.922 139.55z" fill="#A0D468" /><path d="M448.538 512.002h42.674v511.844h-42.674z" fill="#A0D468" /><path d="M227.574 160.422c3.25 53.922 210.968 156.796 241.676 163.138v0.406c0.282-0.062 0.594-0.124 0.968-0.188 0.344 0.062 0.686 0.124 0.968 0.188v-0.406c30.71-6.342 238.004-109.216 241.252-163.138C717.282 80.134 620.28-2.528 470.218 0.22 320.14-2.528 222.732 80.134 227.574 160.422z" fill="#4FC2E9" /><path d="M705.538 167.608c-37.364-28.334-198.706 60.576-222.884 74.196l-0.25-0.218c-0.156 0.188-0.344 0.406-0.5 0.656-0.282 0.156-0.562 0.282-0.782 0.406l0.25 0.25c-15.902 20.712 31.648 86.818 64.744 118.808 49.268 47.58 50.86 146.862 147.082 61.418 99.78-82.35 67.916-213.342 12.34-255.516zM386.15 363.36c33.116-31.99 88.348-99.75 72.446-120.462l0.282-0.25a18.928 18.928 0 0 1-0.782-0.406c-0.188-0.25-0.342-0.468-0.5-0.656l-0.25 0.218c-24.212-13.622-185.506-102.532-222.87-74.196-55.576 42.174-87.442 173.166 12.34 255.516 96.19 85.442 90.1-12.184 139.334-59.764z" fill="#3BAFDA" /><path d="M714.908 359.924c-3.344-48.236-212.324-87.598-243.91-93.284v-0.376c-0.312 0.062-0.656 0.124-1 0.188a17.772 17.772 0 0 1-1-0.188v0.376c-31.616 5.686-240.552 45.048-243.894 93.284-4.998 71.792 90.442 198.376 244.894 195.91 154.468 2.466 249.91-124.12 244.91-195.91z" fill="#4FC2E9" /><path d="M470 306.816c-24.618 0-44.642-20.026-44.642-44.642 0-24.618 20.024-44.642 44.642-44.642 24.618 0 44.642 20.024 44.642 44.642 0 24.616-20.024 44.642-44.642 44.642z" fill="#FFCE54" /><path d="M470 196.192c-36.458 0-65.98 29.554-65.98 65.98s29.522 65.98 65.98 65.98c36.424 0 65.978-29.554 65.978-65.98S506.424 196.192 470 196.192z m0 89.286c-12.872 0-23.336-10.464-23.336-23.304 0-12.872 10.466-23.336 23.336-23.336 12.84 0 23.304 10.466 23.304 23.336 0 12.838-10.464 23.304-23.304 23.304z" fill="#F6BB42" /></svg>