<?xml version="1.0" standalone="no"?><!DOCTYPE svg PUBLIC "-//W3C//DTD SVG 1.1//EN" "http://www.w3.org/Graphics/SVG/1.1/DTD/svg11.dtd"><svg class="icon" width="128px" height="128.00px" viewBox="0 0 1024 1024" version="1.1" xmlns="http://www.w3.org/2000/svg"><path d="M497.824 956.428c52.33 140.27 312.75-316.466 312.75-316.466-186.258-8.122-339.368 245.174-312.75 316.466z" fill="#8CC153" /><path d="M490.684 448.426h42.644v575.416h-42.644z" fill="#A0D468" /><path d="M612.446 202.846c-27.43 102.406-77.352 178.008-111.482 168.854-34.13-9.154-39.55-99.562-12.122-201.968C516.288 67.356 566.18-8.246 600.324 0.908c34.114 9.122 39.552 99.562 12.122 201.938z" fill="#D94452" /><path d="M535.172 169.732c27.414 102.406 22.008 192.816-12.122 201.968-34.13 9.154-84.054-66.448-111.482-168.854C384.14 100.47 389.56 10.03 423.69 0.908c34.13-9.154 84.036 66.448 111.482 168.824z" fill="#EC5564" /><path d="M451.68 179.696c74.964 74.946 115.466 155.984 90.49 180.976-24.992 24.96-106.016-15.526-180.96-90.504-74.962-74.946-115.464-155.984-90.488-180.944 24.99-24.992 106.014 15.526 180.958 90.472z" fill="#D94452" /><path d="M384.374 230.056c102.39 27.428 177.962 77.35 168.842 111.498-9.154 34.114-99.566 39.55-201.972 12.122-102.39-27.46-177.978-77.352-168.838-111.498 9.152-34.114 99.56-39.552 201.968-12.122z" fill="#EC5564" /><path d="M351.244 307.346c102.406-27.46 192.818-22.026 201.972 12.122 9.122 34.114-66.452 84.036-168.842 111.466-102.406 27.428-192.816 22.024-201.968-12.122-9.14-34.116 66.446-84.038 168.838-111.466z" fill="#D94452" /><path d="M451.68 481.292c-74.946 74.978-155.968 115.496-180.96 90.502s15.526-106.03 90.488-180.976c74.946-74.946 155.968-115.464 180.96-90.472 24.978 24.994-15.524 106-90.488 180.946z" fill="#EC5564" /><path d="M535.172 491.258c-27.446 102.406-77.352 177.976-111.482 168.854-34.13-9.154-39.566-99.564-12.122-201.968 27.428-102.406 77.352-177.976 111.482-168.854 34.13 9.152 39.536 99.592 12.122 201.968z" fill="#D94452" /><path d="M612.446 458.142c27.43 102.404 21.992 192.814-12.122 201.968-34.144 9.124-84.038-66.448-111.482-168.854-27.43-102.376-22.008-192.816 12.122-201.97 34.13-9.12 84.052 66.45 111.482 168.856z" fill="#EC5564" /><path d="M662.804 390.82c74.946 74.946 115.464 155.984 90.472 180.976-24.96 24.992-106-15.526-180.946-90.502-74.962-74.946-115.464-155.984-90.488-180.944 24.994-24.994 106.018 15.524 180.962 90.47z" fill="#D94452" /><path d="M672.77 307.346c102.376 27.428 177.978 77.35 168.824 111.466-9.122 34.146-99.562 39.55-201.938 12.122-102.39-27.43-177.994-77.352-168.84-111.466 9.138-34.148 99.548-39.584 201.954-12.122z" fill="#EC5564" /><path d="M639.656 230.056c102.376-27.43 192.816-21.994 201.938 12.122 9.154 34.146-66.45 84.038-168.824 111.498-102.406 27.428-192.816 21.994-201.954-12.122-9.154-34.146 66.45-84.068 168.84-111.498z" fill="#D94452" /><path d="M662.804 270.168c-74.946 74.978-155.968 115.464-180.96 90.504-24.976-24.992 15.526-106.03 90.488-180.976 74.946-74.946 155.954-115.464 180.946-90.472 24.992 24.962-15.528 106-90.474 180.944z" fill="#EC5564" /><path d="M512.006 437.118c-28.476 0-55.25-11.09-75.4-31.208-41.566-41.582-41.566-109.216 0-150.798 20.15-20.15 46.922-31.24 75.4-31.24 28.478 0 55.264 11.09 75.384 31.24 41.582 41.582 41.582 109.216 0 150.798-20.118 20.118-46.906 31.208-75.384 31.208z" fill="#FFCE54" /><path d="M512.006 202.534zM602.48 240.022c-24.992-24.994-57.734-37.49-90.474-37.49s-65.496 12.496-90.472 37.49c-49.97 49.984-49.97 130.992 0 180.944 24.976 24.992 57.732 37.488 90.472 37.488 32.74 0 65.482-12.496 90.474-37.488 49.954-49.952 49.954-130.96 0-180.944z m-30.148 150.798c-16.12 16.12-37.536 24.994-60.326 24.994s-44.206-8.874-60.31-24.994c-33.254-33.27-33.254-87.378 0-120.62 16.104-16.12 37.536-24.992 60.31-24.992 22.79 0 44.206 8.872 60.294 24.992 33.272 33.24 33.272 87.348 0.032 120.62z" fill="#F6BB42" /></svg>