<?xml version="1.0" standalone="no"?><!DOCTYPE svg PUBLIC "-//W3C//DTD SVG 1.1//EN" "http://www.w3.org/Graphics/SVG/1.1/DTD/svg11.dtd"><svg class="icon" width="128px" height="128.00px" viewBox="0 0 1024 1024" version="1.1" xmlns="http://www.w3.org/2000/svg"><path d="M310.562 723.902l-167.688 167.688c-8.376 8.312-8.376 21.844 0 30.156 8.312 8.344 21.812 8.344 30.124 0l167.688-167.656-30.124-30.188zM880.75 891.59l-167.624-167.688-30.188 30.188 167.688 167.656c8.312 8.344 21.812 8.344 30.124 0 8.374-8.312 8.374-21.844 0-30.156zM533.376 906.652v-181.968h-42.688v182c0 5.438 2.062 10.906 6.25 15.062 8.312 8.344 21.812 8.344 30.188 0a21.43 21.43 0 0 0 6.25-15.094z" fill="#434A54" /><path d="M832 629.34H192l85.376 128h469.312z" fill="#CCD1D9" /><path d="M210.25 565.34c-12.062-34.124 615.624-34.124 603.562 0h44.938a364.166 364.166 0 0 0 15.938-106.656c0-200.312-162.376-362.688-362.688-362.688-200.25 0-362.624 162.376-362.624 362.688 0 37.124 5.562 72.938 15.938 106.656h44.936z" fill="#F6BB42" /><path d="M1024 565.34c0 58.906-47.75 106.656-106.688 106.656H106.688C47.75 671.996 0 624.246 0 565.34c0-58.906 47.75-106.656 106.688-106.656h810.624c58.938 0 106.688 47.75 106.688 106.656z" fill="#E6E9ED" /><path d="M277.376 565.34c0 11.782-9.562 21.344-21.376 21.344-11.75 0-21.312-9.562-21.312-21.344s9.562-21.344 21.312-21.344c11.812 0 21.376 9.562 21.376 21.344zM448 565.34c0 11.782-9.5 21.344-21.312 21.344-11.75 0-21.312-9.562-21.312-21.344s9.562-21.344 21.312-21.344c11.812 0 21.312 9.562 21.312 21.344zM618.688 565.34c0 11.782-9.562 21.344-21.312 21.344-11.812 0-21.376-9.562-21.376-21.344s9.562-21.344 21.376-21.344c11.748 0 21.312 9.562 21.312 21.344zM789.376 565.34c0 11.782-9.562 21.344-21.376 21.344-11.75 0-21.312-9.562-21.312-21.344s9.562-21.344 21.312-21.344c11.812 0 21.376 9.562 21.376 21.344z"  /><path d="M512 180.372c-11.75 0-21.312 9.532-21.312 21.344 0 11.782 9.562 21.312 21.312 21.312 62.938 0 122.124 24.532 166.624 69.032s69.062 103.656 69.062 166.624h42.624c0.002-153.72-124.56-278.312-278.31-278.312z" fill="#FFCE54" /><path d="M362.688 671.996h42.688v85.344h-42.688zM490.688 671.996h42.688v85.344h-42.688zM618.688 671.996h42.688v85.344h-42.688z" fill="#AAB2BD" /></svg>