<?xml version="1.0" standalone="no"?><!DOCTYPE svg PUBLIC "-//W3C//DTD SVG 1.1//EN" "http://www.w3.org/Graphics/SVG/1.1/DTD/svg11.dtd"><svg class="icon" width="128px" height="128.00px" viewBox="0 0 1024 1024" version="1.1" xmlns="http://www.w3.org/2000/svg"><path d="M210.188 469.344c-12.062-34.124 615.688-34.124 603.562 0h44.938c10.376-33.75 15.938-69.562 15.938-106.688C874.624 162.344 712.312 0 512 0S149.312 162.344 149.312 362.656c0 37.124 5.624 72.938 15.938 106.688h44.938z" fill="#F6BB42" /><path d="M167.75 1024L512 362.656 856.188 1024z" fill="#FC6E51" /><path d="M832 533.344H192l85.312 128h469.312z" fill="#CCD1D9" /><path d="M1024 469.344C1024 528.218 976.25 576 917.312 576H106.624C47.75 576 0 528.218 0 469.344c0-58.938 47.75-106.688 106.624-106.688h810.688c58.938 0 106.688 47.75 106.688 106.688z" fill="#E6E9ED" /><path d="M277.312 469.344c0 11.75-9.562 21.312-21.312 21.312-11.812 0-21.376-9.562-21.376-21.312 0-11.812 9.562-21.344 21.376-21.344 11.75 0 21.312 9.532 21.312 21.344zM448 469.344c0 11.75-9.562 21.312-21.376 21.312-11.75 0-21.312-9.562-21.312-21.312 0-11.812 9.562-21.344 21.312-21.344 11.814 0 21.376 9.532 21.376 21.344zM618.624 469.344c0 11.75-9.5 21.312-21.312 21.312-11.75 0-21.312-9.562-21.312-21.312 0-11.812 9.562-21.344 21.312-21.344 11.812 0 21.312 9.532 21.312 21.344zM789.312 469.344c0 11.75-9.562 21.312-21.312 21.312-11.812 0-21.376-9.562-21.376-21.312 0-11.812 9.562-21.344 21.376-21.344 11.75 0 21.312 9.532 21.312 21.344z" fill="#434A54" /><path d="M512 84.344c-11.812 0-21.376 9.562-21.376 21.344S500.188 127.032 512 127.032c62.938 0 122.124 24.5 166.624 69s69 103.688 69 166.624h42.688c0-153.688-124.624-278.312-278.312-278.312z" fill="#FFCE54" /><path d="M362.624 576h42.688v85.344h-42.688zM490.624 576h42.688v85.344h-42.688zM618.624 576h42.688v85.344h-42.688z" fill="#AAB2BD" /></svg>