<?xml version="1.0" standalone="no"?><!DOCTYPE svg PUBLIC "-//W3C//DTD SVG 1.1//EN" "http://www.w3.org/Graphics/SVG/1.1/DTD/svg11.dtd"><svg class="icon" width="128px" height="128.00px" viewBox="0 0 1024 1024" version="1.1" xmlns="http://www.w3.org/2000/svg"><path d="M699.152 503.56l150.062-150.092c33.842-33.842 81.964-115.186 115.684-180.028 18.562-35.688 34.5-69.592 44.906-95.466 14.624-36.312 19.656-57.124 6.718-70.094-11-11-27.968-10.53-64.906 1.75-25.062 8.344-56.904 21.656-89.624 37.468-38.56 18.656-134.53 68.28-192.684 126.436l-150.842 150.84a21.354 21.354 0 0 0 0 30.186l149.748 149.748v0.032c8.344 8.312 21.844 8.312 30.186 0 0.252-0.25 0.502-0.53 0.752-0.78z" fill="#FC6E51" /><path d="M699.152 503.56l150.062-150.092c33.842-33.842 81.964-115.186 115.684-180.028 18.562-35.688 34.5-69.592 44.906-95.466 14.624-36.312 19.656-57.124 6.718-70.094-5.532-5.5-12.532-8.124-22.812-7.844-0.718 11.968-5.876 27.438-14.062 47.782-10.406 25.876-26.376 59.78-44.938 95.466-33.716 64.842-81.808 146.154-115.652 180.028l-150.092 150.06c-0.25 0.282-0.468 0.532-0.75 0.782-8.312 8.344-21.812 8.344-30.156 0l30.156 30.156v0.032c8.344 8.312 21.844 8.312 30.186 0 0.25-0.252 0.5-0.532 0.75-0.782z" fill="#FFFFFF" opacity=".2" /><path d="M560.938 612.432a21.332 21.332 0 0 1 0-30.188l64-63.998c8.312-8.312 21.81-8.312 30.154 0a21.33 21.33 0 0 1 0 30.186l-63.998 64c-8.312 8.312-21.844 8.312-30.156 0z" fill="#CCD1D9" /><path d="M70.384 804.522c-8.328-8.344-8.328-21.844 0-30.188l64.046-64.03c8.328-8.344 21.828-8.344 30.17 0 8.328 8.312 8.328 21.842 0 30.154L100.554 804.52c-8.342 8.314-21.842 8.314-30.17 0.002z" fill="#E6E9ED" /><path d="M176.898 697.992c-8.328-8.312-8.328-21.844 0-30.156l298.712-298.712a21.294 21.294 0 0 1 30.156 0c8.342 8.312 8.342 21.844 0 30.156L207.07 697.992c-8.328 8.344-21.844 8.344-30.172 0z" fill="#CCD1D9" /><path d="M390.27 633.744c-8.328-8.312-8.328-21.812 0-30.156l156.762-156.748c8.312-8.342 21.812-8.342 30.156 0 8.344 8.312 8.344 21.844 0 30.156l-156.748 156.748c-8.326 8.344-21.842 8.344-30.17 0z" fill="#E6E9ED" /><path d="M6.292 1017.736c-8.328-8.312-8.344-21.844 0-30.156l341.292-341.304c8.328-8.312 21.842-8.344 30.17 0s8.328 21.842 0 30.186L36.448 1017.736a21.294 21.294 0 0 1-30.156 0z" fill="#CCD1D9" /><path d="M283.616 889.74c-8.328-8.312-8.328-21.812 0-30.156l234.65-234.652c8.328-8.344 21.844-8.344 30.172 0 8.312 8.312 8.312 21.812 0 30.156L313.786 889.74c-8.344 8.342-21.842 8.342-30.17 0z" fill="#E6E9ED" /></svg>