<?xml version="1.0" standalone="no"?><!DOCTYPE svg PUBLIC "-//W3C//DTD SVG 1.1//EN" "http://www.w3.org/Graphics/SVG/1.1/DTD/svg11.dtd"><svg class="icon" width="128px" height="128.00px" viewBox="0 0 1024 1024" version="1.1" xmlns="http://www.w3.org/2000/svg"><path d="M765.336 253.33c-74.56 0-141.744 31.562-188.962 82.06-25.28-29.154-62.592-47.56-104.184-47.56-76.186 0-137.964 61.748-137.964 137.932 0 1.156 0.032 2.312 0.062 3.468-78.748 15.938-137.996 85.558-137.996 169.012 0 95.184 77.186 172.43 172.432 172.43h396.614c142.838 0 258.648-115.808 258.648-258.664-0.002-142.87-115.812-258.678-258.65-258.678z" fill="#CCD1D9" /><path d="M925.642 309.016c34.844 44.06 55.656 99.746 55.656 160.306 0 142.858-115.778 258.662-258.65 258.662h-396.58c-36.748 0-70.78-11.496-98.746-31.058 31.186 44.558 82.874 73.746 141.4 73.746h396.614c142.838 0 258.648-115.808 258.648-258.664 0-82.308-38.436-155.62-98.342-202.992zM192.012 514.664h298.644c11.782 0 21.344-9.562 21.344-21.342s-9.562-21.342-21.344-21.342H192.012c-11.782 0-21.344 9.562-21.344 21.342s9.562 21.342 21.344 21.342z" fill="#AAB2BC" /><path d="M405.316 599.992H21.328c-11.782 0-21.312 9.562-21.312 21.308 0 11.812 9.532 21.376 21.312 21.376h383.988c11.782 0 21.344-9.562 21.344-21.376 0-11.746-9.562-21.308-21.344-21.308z" fill="#E6E9ED" /><path d="M384.004 727.984H149.324c-11.782 0-21.312 9.562-21.312 21.312 0 11.812 9.532 21.376 21.312 21.376h234.68c11.782 0 21.312-9.562 21.312-21.376 0-11.75-9.53-21.312-21.312-21.312z" fill="#AAB2BC" /></svg>