<?xml version="1.0" standalone="no"?><!DOCTYPE svg PUBLIC "-//W3C//DTD SVG 1.1//EN" "http://www.w3.org/Graphics/SVG/1.1/DTD/svg11.dtd"><svg class="icon" width="128px" height="128.00px" viewBox="0 0 1024 1024" version="1.1" xmlns="http://www.w3.org/2000/svg"><path d="M448 746.648c-129.62 0-235.086-105.464-235.086-235.102S318.382 276.446 448 276.446c129.62 0 235.116 105.464 235.116 235.102S577.622 746.648 448 746.648z" fill="#FFCE54" /><path d="M448 255.118c-141.62 0-256.428 114.81-256.428 256.43 0 141.634 114.808 256.444 256.428 256.444s256.428-114.808 256.428-256.444c0.002-141.622-114.806-256.43-256.428-256.43z m151.152 407.594c-40.372 40.376-94.058 62.592-151.152 62.592-57.09 0-110.778-22.216-151.15-62.592-40.374-40.374-62.624-94.058-62.624-151.166 0-57.092 22.25-110.778 62.624-151.152 40.374-40.374 94.06-62.608 151.15-62.608 57.092 0 110.78 22.234 151.152 62.608 40.376 40.374 62.594 94.058 62.594 151.152 0 57.108-22.218 110.794-62.594 151.166z" fill="#F6BB42" /><path d="M85.356 512h298.648c11.782 0 21.342-9.562 21.342-21.344s-9.562-21.328-21.342-21.328H85.356c-11.78 0-21.342 9.546-21.342 21.328S73.576 512 85.356 512z" fill="#CCD1D9" /><path d="M469.344 597.31H170.666c-11.78 0-21.312 9.562-21.312 21.342 0 11.782 9.532 21.344 21.312 21.344h298.678c11.78 0 21.312-9.562 21.312-21.344 0-11.778-9.53-21.342-21.312-21.342z" fill="#E6E9ED" /><path d="M405.346 725.304H85.356c-11.78 0-21.342 9.562-21.342 21.344s9.562 21.342 21.342 21.342h319.99c11.782 0 21.312-9.56 21.312-21.342s-9.53-21.344-21.312-21.344z" fill="#AAB2BC" /><path d="M448 810.646c-11.78 0-21.31 9.562-21.31 21.344l-0.032 170.65c0 11.782 9.562 21.344 21.342 21.344 11.782 0 21.344-9.562 21.344-21.344v-170.65c0-11.782-9.562-21.344-21.344-21.344zM448 213.338c11.782 0 21.344-9.546 21.344-21.344V21.344c0-11.782-9.562-21.328-21.344-21.328-11.78 0-21.342 9.546-21.342 21.328v170.65c0.002 11.782 9.564 21.344 21.342 21.344z" fill="#F6BB42" /><path d="M659.184 723.182c-8.312 8.31-8.312 21.842 0 30.154l120.684 120.686c8.312 8.344 21.812 8.344 30.156 0s8.344-21.844 0-30.156l-120.656-120.684c-8.344-8.344-21.872-8.344-30.184 0zM236.822 300.82v-0.016a21.298 21.298 0 0 0 0-30.156L116.138 149.964c-8.312-8.328-21.844-8.328-30.156 0-8.342 8.328-8.342 21.842 0 30.17l120.684 120.684c8.312 8.33 21.812 8.33 30.156 0.002z" fill="#FFCE54" /><path d="M746.648 511.984c0 11.782 9.562 21.328 21.344 21.328l170.648 0.016c11.782 0 21.344-9.562 21.344-21.344s-9.562-21.328-21.312-21.328h-170.68c-11.782 0-21.344 9.548-21.344 21.328z" fill="#F6BB42" /><path d="M659.184 300.804c8.312 8.328 21.808 8.328 30.184 0l120.656-120.668c8.344-8.328 8.344-21.844 0-30.17-8.344-8.328-21.844-8.328-30.156 0l-120.684 120.668c-8.312 8.326-8.344 21.842 0 30.17z" fill="#FFCE54" /></svg>