<?xml version="1.0" standalone="no"?><!DOCTYPE svg PUBLIC "-//W3C//DTD SVG 1.1//EN" "http://www.w3.org/Graphics/SVG/1.1/DTD/svg11.dtd"><svg class="icon" width="128px" height="128.00px" viewBox="0 0 1024 1024" version="1.1" xmlns="http://www.w3.org/2000/svg"><path d="M576 149.328h-128c-58.812 0-106.654 47.86-106.654 106.67 0 58.812 47.842 106.67 106.654 106.67 51.53 0 94.624-36.718 104.53-85.342H576a21.32 21.32 0 0 0 21.342-21.328V170.67c0-11.78-9.532-21.342-21.342-21.342z" fill="#CCD1D9" /><path d="M576 149.328h-85.312v106.67h106.654V170.67c0-11.78-9.532-21.342-21.342-21.342z" fill="#E6E9ED" /><path d="M1020.428 585.492l-84.092-126.156-84.532-211.262a21.294 21.294 0 0 0-19.81-13.406H21.354c-11.782 0-21.344 9.546-21.344 21.328v511.992c0 11.782 9.562 21.312 21.344 21.312h981.324a21.3 21.3 0 0 0 21.312-21.312v-170.684c0-4.186-1.218-8.312-3.562-11.812z" fill="#A0D468" /><path d="M767.996 341.324h-31.282c0-11.78-40.75-21.328-91.032-21.328-50.248 0-90.996 9.546-90.996 21.328V789.3h182.028v-21.312h31.282V341.324z" fill="#8CC153" /><path d="M1023.99 618.676h-63.998c-11.782 0-21.312 9.532-21.312 21.312s9.532 21.312 21.312 21.312h63.998v-42.624z" fill="#E6E9ED" /><path d="M719.09 591.086c-8.312 8.344-21.844 8.344-30.156 0a21.332 21.332 0 0 1 0-30.188c8.312-8.344 21.844-8.344 30.156 0a21.332 21.332 0 0 1 0 30.188z" fill="#434A54" /><path d="M831.994 661.3c-58.81 0-106.654 47.876-106.654 106.688s47.844 106.684 106.654 106.684c58.842 0 106.686-47.872 106.686-106.684s-47.844-106.688-106.686-106.688zM192.006 661.3c-58.812 0-106.654 47.876-106.654 106.688s47.842 106.684 106.654 106.684c58.842 0 106.686-47.872 106.686-106.684s-47.844-106.688-106.686-106.688z" fill="#434A54" /><path d="M207.1 783.05c-8.312 8.376-21.844 8.376-30.156 0-8.344-8.312-8.344-21.812 0-30.124 8.312-8.376 21.842-8.376 30.156 0 8.344 8.312 8.344 21.812 0 30.124zM847.086 783.05c-8.312 8.376-21.842 8.376-30.154 0-8.344-8.312-8.344-21.812 0-30.124 8.312-8.376 21.842-8.376 30.154 0 8.344 8.312 8.344 21.812 0 30.124z" fill="#F5F7FA" /><path d="M490.688 639.988H106.696c-11.782 0-21.344-9.562-21.344-21.312V341.324c0-11.78 9.562-21.328 21.344-21.328h383.992c11.782 0 21.312 9.546 21.312 21.328v277.352c0 11.75-9.532 21.312-21.312 21.312z" fill="#656D78" /><path d="M531.968 385.214l-0.438-2.328-26.75-62.89H92.57l-26.5 62.328-0.406 1.672a43.12 43.12 0 0 0-1.218 10.156c0 30.186 31.624 53.842 71.998 53.842 14.718 0 28.812-3.204 40.562-9.046 11.75 5.844 25.876 9.046 40.562 9.046 14.718 0 28.812-3.204 40.562-9.046 11.75 5.844 25.842 9.046 40.562 9.046 14.688 0 28.782-3.204 40.562-9.046 11.75 5.844 25.844 9.046 40.53 9.046 14.718 0 28.812-3.204 40.562-9.046 11.75 5.844 25.842 9.046 40.562 9.046 40.406 0 72.03-23.656 72.03-53.842 0-3.204-0.594-6.97-0.97-8.938z" fill="#ED5564" /><path d="M85.352 575.992v42.684c0 11.75 9.562 21.312 21.344 21.312h383.992c11.782 0 21.312-9.562 21.312-21.312v-42.684H85.352z" fill="#E6E9ED" /><path d="M936.336 459.336l-55.75-139.34H576c-11.782 0-21.312 9.546-21.312 21.328v127.998c0 11.782 9.532 21.344 21.312 21.344h381.21l-20.874-31.33z" fill="#4FC2E9" /><path d="M725.34 319.996h42.656v170.668H725.34z" fill="#3BAFDA" /></svg>