<?xml version="1.0" standalone="no"?><!DOCTYPE svg PUBLIC "-//W3C//DTD SVG 1.1//EN" "http://www.w3.org/Graphics/SVG/1.1/DTD/svg11.dtd"><svg class="icon" width="128px" height="128.00px" viewBox="0 0 1024 1024" version="1.1" xmlns="http://www.w3.org/2000/svg"><path d="M465.962 623.714a21.296 21.296 0 0 1-16.686-8.032c-23-28.906-48.216-81.59-59.904-125.214-12.592-47.06-15.466-94.028-8.092-132.274 8.436-43.592 29.404-71.998 59.09-79.936a62.56 62.56 0 0 1 16.344-2.156c27.53 0 55.466 16.968 80.808 49.06 22.734 28.844 41.61 68.404 53.11 111.37 11.748 43.624 16.248 101.842 10.748 138.372a21.366 21.366 0 0 1-15.56 17.466l-114.326 30.624c-1.844 0.502-3.688 0.72-5.532 0.72zM547.88 754.302h-0.062c-18.796 0-45.982-7.75-68.418-44.624-11.938-19.56-17.25-39.124-17.468-39.936a21.234 21.234 0 0 1 2.124-16.186 21.34 21.34 0 0 1 12.968-9.968l114.294-30.624c11.436-3.032 23.124 3.718 26.124 15.094 0.312 0.968 6.438 24.312 4.562 50.06-2.812 38.716-22.312 64.842-54.748 73.528-6.562 1.75-13.062 2.656-19.376 2.656z" fill="#ED5564" /><path d="M814.122 405.16c-1.812 0-3.688-0.25-5.5-0.718l-114.37-30.654a21.292 21.292 0 0 1-15.562-17.436c-5.438-36.562-0.938-94.748 10.75-138.402 11.5-42.966 30.374-82.496 53.122-111.37 25.31-32.092 53.248-49.03 80.808-49.03 5.562 0 11.062 0.718 16.312 2.124 29.748 7.968 50.686 36.342 59.124 79.936 7.376 38.278 4.5 85.246-8.062 132.274-11.75 43.656-36.938 96.31-59.936 125.214a21.328 21.328 0 0 1-16.686 8.062zM732.248 535.718c-6.374 0-12.874-0.876-19.374-2.624-32.498-8.718-51.936-34.812-54.81-73.53-1.876-25.75 4.312-49.092 4.562-50.092 1.438-5.468 5.062-10.124 9.938-12.938a21.24 21.24 0 0 1 16.188-2.124l114.306 30.624c11.438 3.032 18.188 14.75 15.124 26.124-0.25 0.812-5.562 20.376-17.5 39.936-22.436 36.874-49.624 44.624-68.434 44.624z" fill="#ED5564" /><path d="M348.592 599.934l-90.496 90.498a21.33 21.33 0 0 0 0 30.186l45.248 45.248a21.306 21.306 0 0 0 30.156 0l90.496-90.496a365.49 365.49 0 0 1-75.404-75.436z" fill="#CCD1D9" /><path d="M640.002 768.022c-102.574 0-198.976-39.936-271.504-112.464-72.53-72.528-112.496-168.962-112.496-271.52 0-102.59 39.966-199.024 112.496-271.52C441.026 39.988 537.428 0.02 640.002 0.02c102.558 0 198.992 39.936 271.552 112.464 72.496 72.528 112.434 168.962 112.434 271.552 0 102.558-39.938 198.994-112.434 271.52-72.56 72.53-168.994 112.466-271.552 112.466z m0-725.316c-91.184 0-176.884 35.5-241.35 99.966s-99.964 150.182-99.964 241.366c0 91.152 35.5 176.868 99.964 241.334 64.466 64.498 150.166 99.996 241.35 99.996s176.87-35.53 241.366-99.996c64.498-64.466 99.996-150.182 99.996-241.334 0-91.184-35.498-176.9-99.996-241.366-64.496-64.466-150.182-99.966-241.366-99.966z" fill="#E6E9ED" /><path d="M362.53 751.99l-90.498-90.528a21.354 21.354 0 0 0-30.186 0L25.01 878.33c-16.124 16.092-25 37.528-25 60.34 0 22.782 8.876 44.218 25 60.31 16.124 16.124 37.53 25 60.342 25 22.78 0 44.216-8.876 60.342-25l216.834-216.836c4-4 6.25-9.436 6.25-15.092s-2.248-11.062-6.248-15.062z" fill="#656D78" /></svg>