<?xml version="1.0" standalone="no"?><!DOCTYPE svg PUBLIC "-//W3C//DTD SVG 1.1//EN" "http://www.w3.org/Graphics/SVG/1.1/DTD/svg11.dtd"><svg class="icon" width="128px" height="128.00px" viewBox="0 0 1024 1024" version="1.1" xmlns="http://www.w3.org/2000/svg"><path d="M1002.676 170.688H21.338C9.558 170.688 0.012 180.218 0.012 192v640c0 11.75 9.546 21.312 21.328 21.312h981.336c11.75 0 21.312-9.562 21.312-21.312V192c0-11.782-9.562-21.312-21.312-21.312z" fill="#A0D468" /><path d="M21.338 383.994h127.998v256.01H21.338z" fill="#CCD1D9" /><path d="M490.672 170.688h42.654v682.624h-42.654zM75.088 212.216c9.968-19.936 10.25-39.374 10.25-41.53H42.666c-0.046 1.438-0.624 12.842-6.25 23.436-6.968 13.124-18.532 19.218-36.406 19.218v42.656c34.298 0.002 60.968-15.53 75.078-43.78zM41.558 777.562c-19.938-9.998-39.39-10.248-41.546-10.248V810c1.468 0 12.858 0.624 23.452 6.25 13.11 6.938 19.218 18.5 19.218 36.376h42.656c0-34.314-15.546-60.938-43.78-75.064zM948.928 212.216c-10-19.936-10.25-39.374-10.25-41.53h42.656c0.032 1.438 0.624 12.842 6.248 23.436 6.968 13.124 18.532 19.218 36.406 19.218v42.656c-34.312 0.002-60.966-15.53-75.06-43.78zM982.428 777.562c19.936-9.998 39.404-10.248 41.56-10.248V810c-1.468 0-12.876 0.624-23.438 6.25-13.124 6.938-19.248 18.5-19.248 36.376h-42.624c0-34.314 15.53-60.938 43.75-75.064z" fill="#8CC153" /><path d="M512 362.682c-82.342 0-149.326 66.968-149.326 149.31 0 82.326 66.982 149.324 149.326 149.324 82.342 0 149.308-66.998 149.308-149.324 0-82.342-66.966-149.31-149.308-149.31z" fill="#434A54" /><path d="M639.998 511.992a128.52 128.52 0 0 0-1.376-18.812h-64.75l-21 64.638 54.438 39.562c20.314-22.624 32.688-52.562 32.688-85.388zM535.404 386.15l-19.156 58.968 55 39.968 51.438-37.374c-18.406-31.656-50-54.686-87.282-61.562zM401.298 447.712l51.436 37.374 55.014-39.968-19.156-58.968c-37.278 6.876-68.872 29.906-87.294 61.562zM471.126 557.818l-21.016-64.638h-64.732a128.82 128.82 0 0 0-1.376 18.812c0 32.826 12.358 62.764 32.67 85.388l54.454-39.562zM478 562.818l-21.014 64.686 0.376 0.25c16.562 7.876 35.092 12.25 54.64 12.25 19.544 0 38.06-4.376 54.654-12.25l0.344-0.25-21-64.686h-68zM149.336 362.682H21.338c-11.782 0-21.328 9.53-21.328 21.312v256.01c0 11.75 9.546 21.312 21.328 21.312h127.998c11.782 0 21.344-9.562 21.344-21.312V383.994c0-11.782-9.562-21.312-21.344-21.312zM42.682 490.68h21.328v42.656H42.682V490.68z m63.998 0h21.328v42.656H106.68V490.68z m21.328-42.686H106.68v-42.656h21.328v42.656z m-63.998-42.656v42.656H42.682v-42.656h21.328z m-21.328 170.668h21.328v42.686H42.682v-42.686z m63.998 42.686v-42.686h21.328v42.686H106.68z" fill="#E6E9ED" /><path d="M874.678 383.994h127.998v256.01h-127.998z" fill="#CCD1D9" /><path d="M1002.676 362.682h-127.998c-11.812 0-21.374 9.53-21.374 21.312v256.01c0 11.75 9.56 21.312 21.374 21.312h127.998c11.75 0 21.312-9.562 21.312-21.312V383.994c0-11.782-9.562-21.312-21.312-21.312z m-106.686 127.998h21.312v42.656h-21.312V490.68z m64 0h21.312v42.656h-21.312V490.68z m21.312-42.686h-21.312v-42.656h21.312v42.656z m-64-42.656v42.656h-21.312v-42.656h21.312z m-21.312 170.668h21.312v42.686h-21.312v-42.686z m64 42.686v-42.686h21.312v42.686h-21.312z" fill="#E6E9ED" /></svg>