<?xml version="1.0" standalone="no"?><!DOCTYPE svg PUBLIC "-//W3C//DTD SVG 1.1//EN" "http://www.w3.org/Graphics/SVG/1.1/DTD/svg11.dtd"><svg class="icon" width="128px" height="128.00px" viewBox="0 0 1024 1024" version="1.1" xmlns="http://www.w3.org/2000/svg"><path d="M935.052 830.812l-81.748-122.622v-87l54.498 27.25a21.614 21.614 0 0 0 9.5 2.25c7.812 0 15.376-4.312 19.124-11.812 5.25-10.562 0.968-23.376-9.562-28.624l-73.56-36.748v-101.638l73.56-36.78c10.532-5.282 14.812-18.094 9.562-28.624-5.312-10.532-18.124-14.812-28.624-9.532l-54.498 27.218v-84.624l79.124-79.092c8.312-8.344 8.312-21.844 0-30.188-8.344-8.312-21.876-8.312-30.188 0l-79.06 79.092h-81.498l31.812-53.03c6.062-10.094 2.782-23.188-7.312-29.25-10.124-6.062-23.218-2.782-29.282 7.312l-44.968 74.966h-89.934l12-59.81c2.312-11.562-5.188-22.782-16.75-25.094s-22.812 5.188-25.124 16.718l-13.624 68.186h-93.012l-13.624-68.186c-2.312-11.532-13.562-19.032-25.108-16.718-11.546 2.312-19.046 13.532-16.734 25.094l11.968 59.81h-89.904l-44.984-74.966c-6.062-10.094-19.172-13.376-29.266-7.312-10.108 6.062-13.374 19.156-7.328 29.25l31.828 53.03h-81.498l-79.076-79.092c-8.328-8.312-21.844-8.312-30.172 0-8.328 8.344-8.328 21.844 0 30.188l79.092 79.092v84.624l-54.468-27.218c-10.532-5.282-23.344-1-28.624 9.532-5.264 10.532-0.984 23.344 9.546 28.624l73.546 36.78v101.638l-73.546 36.748c-10.532 5.25-14.812 18.062-9.546 28.624a21.332 21.332 0 0 0 19.11 11.812c3.204 0 6.454-0.75 9.516-2.25l54.468-27.25v87l-81.75 122.622c-6.546 9.812-3.89 23.062 5.906 29.624a21.614 21.614 0 0 0 11.812 3.562c6.906 0 13.672-3.312 17.782-9.5L203.432 736h617.126l78.998 118.498c4.124 6.188 10.876 9.5 17.812 9.5 4.062 0 8.156-1.188 11.812-3.562 9.778-6.56 12.436-19.812 5.872-29.624z m-593.72-478.786h85.342v85.31h-85.342v-85.31z m341.352 85.31h-85.374v-85.31h85.374v85.31z m127.998 127.982h-85.376v-85.294h85.376v85.294z m-127.998 0h-85.374v-85.294h85.374v85.294z m-127.998 0h-85.356v-85.294h85.356v85.294z m0-127.982h-85.356v-85.31h85.356v85.31z m-128.012 42.688v85.294h-85.342v-85.294h85.342z m-127.998 85.294h-85.342v-85.294h85.342v85.294z m-85.342 42.686h85.342v85.312h-85.342v-85.312z m127.998 0h85.342v85.312h-85.342v-85.312z m127.998 0h85.356v85.312h-85.356v-85.312z m127.98 0h85.374v85.312h-85.374v-85.312z m127.996 0h85.376v85.312h-85.376v-85.312z m85.376-170.668h-85.376v-85.31h85.376v85.31z m-512.006-85.31v85.31h-85.342v-85.31h85.342z" fill="#AAB2BC" /><path d="M789.306 757.314c0 70.686-57.282 127.998-127.998 127.998-70.686 0-127.982-57.312-127.982-127.998s57.296-127.998 127.982-127.998c70.718 0 127.998 57.312 127.998 127.998z" fill="#434A54" /><path d="M789.306 757.314c0-6.376-0.438-12.688-1.376-18.812h-64.718l-21.032 64.686 54.468 39.562c20.314-22.688 32.658-52.562 32.658-85.436zM684.746 631.504l-19.188 58.938 55.03 39.998 51.468-37.374c-18.436-31.688-50.062-54.688-87.31-61.562zM550.624 693.066l51.438 37.374 54.998-39.998-19.124-58.938c-37.282 6.874-68.876 29.874-87.312 61.562zM620.466 803.188l-21.032-64.686h-64.718a128.814 128.814 0 0 0-1.39 18.812c0 32.874 12.36 62.748 32.672 85.436l54.468-39.562zM627.31 808.188l-21 64.624 0.376 0.312c16.562 7.812 35.094 12.188 54.624 12.188a128.036 128.036 0 0 0 54.686-12.188l0.344-0.312-21.032-64.624h-67.998z" fill="#E6E9ED" /><path d="M1002.676 138.688H21.338C9.556 138.688 0.01 148.22 0.01 160.032v682.656C0.01 854.438 9.556 864 21.338 864H106.68c11.782 0 21.328-9.562 21.328-21.312V266.684h767.982v576.002c0 11.75 9.562 21.312 21.312 21.312h85.374c11.75 0 21.312-9.562 21.312-21.312V160.032c0-11.814-9.562-21.344-21.312-21.344z" fill="#CCD1D9" /></svg>