<?xml version="1.0" standalone="no"?><!DOCTYPE svg PUBLIC "-//W3C//DTD SVG 1.1//EN" "http://www.w3.org/Graphics/SVG/1.1/DTD/svg11.dtd"><svg class="icon" width="128px" height="128.00px" viewBox="0 0 1024 1024" version="1.1" xmlns="http://www.w3.org/2000/svg"><path d="M256.078 341.38c0 70.666-57.296 127.96-127.96 127.96-70.666 0-127.96-57.294-127.96-127.96s57.294-127.96 127.96-127.96c70.664 0 127.96 57.294 127.96 127.96zM1023.844 448.02c0 82.446-66.856 149.268-149.298 149.268s-149.268-66.822-149.268-149.268c0-82.444 66.824-149.284 149.268-149.284s149.298 66.84 149.298 149.284zM799.788 725.248c0 58.92-47.736 106.654-106.654 106.654-58.89 0-106.624-47.734-106.624-106.654 0-58.858 47.734-106.624 106.624-106.624 58.916 0 106.654 47.766 106.654 106.624z" fill="#8AC054" /><path d="M725.058 213.42c0 117.792-95.468 213.262-213.246 213.262s-213.28-95.47-213.28-213.262c0-117.778 95.502-213.264 213.28-213.264S725.058 95.642 725.058 213.42z" fill="#9ED36A" /><path d="M448.02 639.96c0 70.666-57.296 127.96-127.96 127.96-70.666 0-127.96-57.294-127.96-127.96 0-70.664 57.294-127.96 127.96-127.96 70.664 0 127.96 57.296 127.96 127.96z" fill="#8AC054" /><path d="M511.812 192.098c-11.778 0-21.338 9.544-21.338 21.322v810.424h42.642V213.42c0.002-11.778-9.526-21.322-21.304-21.322zM874.544 426.682c-11.778 0-21.306 9.56-21.306 21.338v575.824h42.644V448.02c0-11.778-9.558-21.338-21.338-21.338z" fill="#965353" /><path d="M693.132 703.942c-11.778 0-21.306 9.56-21.306 21.306v298.596h42.642V725.248c0-11.746-9.526-21.306-21.336-21.306zM320.058 618.624c-11.778 0-21.306 9.558-21.306 21.336v383.882h42.644V639.96c0-11.776-9.56-21.336-21.338-21.336z" fill="#7F4545" /><path d="M128.118 320.058c-11.778 0-21.338 9.544-21.338 21.322v682.462h42.674V341.38c0-11.776-9.56-21.322-21.336-21.322z" fill="#965353" /><path d="M981.2 981.17H21.494c-11.778 0-21.336 9.56-21.336 21.338s9.56 21.336 21.336 21.336H981.2c11.778 0 21.306-9.558 21.306-21.336s-9.53-21.338-21.306-21.338z" fill="#424953" /></svg>