<?xml version="1.0" standalone="no"?><!DOCTYPE svg PUBLIC "-//W3C//DTD SVG 1.1//EN" "http://www.w3.org/Graphics/SVG/1.1/DTD/svg11.dtd"><svg class="icon" width="128px" height="128.00px" viewBox="0 0 1024 1024" version="1.1" xmlns="http://www.w3.org/2000/svg"><path d="M597.808 469.688L182.65 170.666l99.684-138.402 415.098 299.054z" fill="#ED5564" /><path d="M590.874 333.38L314.146 134.01c-9.562-6.876-22.906-4.718-29.78 4.844-6.876 9.532-4.718 22.876 4.844 29.75l276.726 199.338c0 0.032 0 0.032 0.062 0.032 9.5 6.876 22.876 4.718 29.748-4.844 6.876-9.562 4.688-22.876-4.872-29.75z" fill="#434A54" /><path d="M384.082 384.44c0 11.75-9.532 21.312-21.312 21.312-11.782 0-21.312-9.562-21.312-21.312 0-11.78 9.532-21.342 21.312-21.342 11.78 0 21.312 9.562 21.312 21.342zM511.984 448.376a21.3 21.3 0 0 1-21.312 21.312c-11.782 0-21.312-9.532-21.312-21.312s9.532-21.312 21.312-21.312a21.298 21.298 0 0 1 21.312 21.312zM725.18 448.376c0 11.782-9.56 21.312-21.31 21.312s-21.31-9.532-21.31-21.312 9.56-21.312 21.31-21.312 21.31 9.53 21.31 21.312zM682.558 576.308c0 11.75-9.562 21.312-21.312 21.312-11.812 0-21.312-9.562-21.312-21.312s9.5-21.312 21.312-21.312c11.75 0 21.312 9.562 21.312 21.312zM725.18 235.196c0 11.782-9.56 21.312-21.31 21.312s-21.31-9.53-21.31-21.312c0-11.78 9.56-21.312 21.31-21.312s21.31 9.532 21.31 21.312zM595.746 193.946c0 11.782-9.56 21.312-21.31 21.312a21.278 21.278 0 0 1-21.31-21.312c0-11.78 9.498-21.312 21.31-21.312 11.75 0 21.31 9.532 21.31 21.312z" fill="#F4BE8E" /><path d="M832.552 242.008l-81.124 242.618s-0.25 269.676 40.25 283.176c40.438 13.564 474.362-380.862 40.874-525.794zM528.89 125.042l-203.056 155.622S70.936 368.598 45 334.756C19.062 300.912 250.836-237.728 528.89 125.042zM174.964 502.75c-420.112 180.116 44.842 537.482 84.028 520.668 39.186-16.81 9.062-282.24 16.78-285.552 7.688-3.25 179.152 201.556 218.338 184.744s100.948-599.948-319.146-419.86z" fill="#FFD2A6" /><path d="M389.614 573.372a20.868 20.868 0 0 0-10.906-11.062v-0.062c-3.062-1.376-75.966-32.904-175.212 9.562-99.248 42.438-126.84 116.934-127.964 120.058h0.032c-1.75 4.938-1.75 10.438 0.438 15.562 4.624 10.812 17.156 15.876 27.968 11.25a21.34 21.34 0 0 0 11.686-12.438h0.032c0.218-0.624 22.25-60.06 104.56-95.246 81.28-34.75 138.808-10.75 141.214-9.75l-0.124-0.062c5.25 2.312 11.374 2.562 17.062 0.124 10.838-4.624 15.87-17.124 11.214-27.936z" fill="#F4BE8E" /></svg>