<?xml version="1.0" standalone="no"?><!DOCTYPE svg PUBLIC "-//W3C//DTD SVG 1.1//EN" "http://www.w3.org/Graphics/SVG/1.1/DTD/svg11.dtd"><svg class="icon" width="128px" height="128.00px" viewBox="0 0 1024 1024" version="1.1" xmlns="http://www.w3.org/2000/svg"><path d="M405.346208 127.341751c-70.683862 0-127.99575 57.309888-127.99575 127.99575 0 11.781977 9.531981 21.341958 21.311959 21.341959s21.343958-9.559981 21.343958-21.341959c0-47.045908 38.279925-85.325833 85.339833-85.325833 47.031908 0 85.309833 38.279925 85.309834 85.325833v95.401814c26.187949-23.435954 42.687917-57.497888 42.687916-95.401814 0-70.685862-57.311888-127.99575-127.99775-127.99575z" fill="#4A89DC" /><path d="M618.651792 0.018c-70.685862 0-127.99575 57.309888-127.99575 127.99575v265.319482h42.687916V128.01375c0-47.045908 38.279925-85.325833 85.307834-85.325833 47.061908 0 85.341833 38.279925 85.341833 85.325833 0 11.779977 9.559981 21.325958 21.341958 21.325958s21.311958-9.545981 21.311959-21.325958c0-70.685862-57.309888-127.99575-127.99575-127.99575z" fill="#5D9CEC" /><path d="M597.027834 767.524501l-169.963668 1.155998-128.401749 255.303501h426.673166z" fill="#37BC9B" /><path d="M512 661.308708c153.151701 0 277.335458-124.135758 277.335458-277.303458H234.664542c0 153.167701 124.183757 277.303458 277.335458 277.303458z" fill="#E6E9ED" /><path d="M512 895.98825c212.053586 0 383.98725-171.933664 383.98725-383.98725 0 0-218.369573 57.997887-383.98725 0-165.621677-57.997887-383.98725 0-383.98725 0 0 212.053586 171.931664 383.98725 383.98725 383.98725z" fill="#48CFAD" /><path d="M853.207334 521.328982c-4.781991 200.631608-163.461681 363.159291-362.549292 374.065269 7.061986 0.375999 14.187972 0.593999 21.343958 0.593999 212.053586 0 383.98725-171.933664 383.98725-383.98725-0.002 0-16.063969 4.265992-42.781916 9.327982z" fill="#FFFFFF" opacity=".2" /></svg>