<?xml version="1.0" standalone="no"?><!DOCTYPE svg PUBLIC "-//W3C//DTD SVG 1.1//EN" "http://www.w3.org/Graphics/SVG/1.1/DTD/svg11.dtd"><svg class="icon" width="128px" height="128.00px" viewBox="0 0 1024 1024" version="1.1" xmlns="http://www.w3.org/2000/svg"><path d="M746.65 618.652H277.288c-11.782 0-21.344-9.532-21.344-21.342 0-11.75 9.562-21.312 21.344-21.312h469.364c11.782 0 21.344 9.562 21.344 21.312-0.002 11.812-9.564 21.342-21.346 21.342z" fill="#F6BB42" /><path d="M277.288 639.996c-11.782 0-21.344-9.562-21.344-21.344v-42.654c0-11.782 9.562-21.344 21.344-21.344 11.78 0 21.342 9.562 21.342 21.344v42.654c-0.002 11.782-9.564 21.344-21.342 21.344z" fill="#FFCE54" /><path d="M920.43 751.37l-3.624-1.032c-52.938-14.218-70.842-27.876-94.404-36.844-83.624-31.874-105.344-54.81-110.906-65.624-0.218-0.406-0.376-0.812-0.562-1.25l-0.688-97.06L512 547.31l-198.246 2.25-0.688 97.06c-0.188 0.438-0.344 0.844-0.562 1.25-5.562 10.812-27.282 33.75-110.902 65.624-23.562 8.968-41.468 22.624-94.404 36.844l-3.624 1.032c-48.188 15.936-80.624 60.624-80.624 111.06v161.558H1001.052v-161.558c0-50.438-32.436-95.126-80.622-111.06z" fill="#434A54" /><path d="M746.65 639.996c-11.782 0-21.312-9.562-21.312-21.344v-42.654c0-11.782 9.532-21.344 21.312-21.344s21.344 9.562 21.344 21.344v42.654c0 11.782-9.562 21.344-21.344 21.344z" fill="#FFCE54" /><path d="M711.494 647.872c-0.218-0.406-0.376-0.812-0.562-1.25l-0.062-12.344-399.334 15.312c-3.156 5.218-9.782 12.656-23.562 22.094l181.374 352.304h85.368l201.34-340.18c-30.344-16.562-40.936-28.874-44.562-35.936z" fill="#AC92EB" /><path d="M711.494 647.872c-0.218-0.406-0.376-0.812-0.562-1.25l-0.688-97.06L512 547.31l-198.246 2.25-0.688 97.06c-0.188 0.438-0.344 0.844-0.562 1.25-1.344 2.656 59.468 120.122 199.496 120.122 140.03 0 202.62-114.058 199.494-120.12z" fill="#8CC153" /><path d="M787.088 361.644c0 178.762-170.402 343.256-275.088 343.256s-275.088-164.494-275.088-343.256c0-297.634 123.154-296.666 275.088-296.666s275.088 0 275.088 296.666z" fill="#A0D468" /><path d="M778.244 124.166c-6.656-33.454-16.062-60.484-27.938-80.344C728.65 7.622 701.558 0.012 682.652 0.012H341.348c-20.406 0-39.188 8.172-54.312 23.638-23.936 24.484-39.966 68.124-47.686 129.716-5.5 43.89-4.718 80.904-4.656 82.466a21.32 21.32 0 0 0 21.312 20.844c3.25 0 6.532-0.75 9.532-2.266l72.654-36.326 30.5 31.436c3.968 4.11 9.438 6.438 15.156 6.484s11.188-2.204 15.248-6.25l27.562-27.578 27.594 27.578c4 4 9.438 6.25 15.094 6.25 5.654 0 11.06-2.25 15.06-6.25L512 222.178l27.594 27.578c8.312 8.328 21.81 8.328 30.154 0l27.594-27.578 27.562 27.578c8.344 8.328 21.844 8.328 30.188 0l31.716-31.716 71.53 36.326c6.594 3.36 14.5 3.032 20.812-0.844s10.188-10.766 10.188-18.188c0-2.266-0.126-56.232-11.094-111.168z" fill="#434A54" /><path d="M237.788 320.004h548.426a698.146 698.146 0 0 0-3.124-42.67H240.88c-1.406 13.374-2.436 27.576-3.092 42.67z" fill="#8CC153" /><path d="M341.348 341.332c-11.782 0-21.344-9.546-21.344-21.328v-42.67c0-11.782 9.562-21.328 21.344-21.328s21.312 9.546 21.312 21.328v42.67c0 11.782-9.532 21.328-21.312 21.328zM426.658 341.332c-11.782 0-21.312-9.546-21.312-21.328v-42.67c0-11.782 9.532-21.328 21.312-21.328s21.344 9.546 21.344 21.328v42.67c0 11.782-9.562 21.328-21.344 21.328zM512 341.332c-11.782 0-21.344-9.546-21.344-21.328v-42.67c0-11.782 9.562-21.328 21.344-21.328s21.344 9.546 21.344 21.328v42.67c0 11.782-9.562 21.328-21.344 21.328zM597.342 341.332c-11.782 0-21.344-9.546-21.344-21.328v-42.67c0-11.782 9.562-21.328 21.344-21.328s21.312 9.546 21.312 21.328v42.67c0 11.782-9.53 21.328-21.312 21.328zM682.652 341.332c-11.782 0-21.31-9.546-21.31-21.328v-42.67c0-11.782 9.53-21.328 21.31-21.328s21.342 9.546 21.342 21.328v42.67c0 11.782-9.56 21.328-21.342 21.328z" fill="#8CC153" /><path d="M342.66 473.766c-38.938-28.17-80.592-41.716-98.342-46.608 3.812 17.078 9 33.812 15.344 50.108 17.156 6.704 38.716 16.954 58.966 31.782 47.968 35.108 69.406 81.264 64 137.45 12.844 10.562 25.904 19.938 38.936 27.906 16.25-82.156-10.968-151.482-78.904-200.638z" fill="#ED5564" /><path d="M327.222 532.5c-3 0-6-0.624-8.906-1.954-10.688-4.922-15.376-17.578-10.468-28.282l15.124-32.89c4.906-10.702 17.562-15.404 28.282-10.482 10.688 4.922 15.406 17.592 10.468 28.294l-15.094 32.89c-3.592 7.814-11.342 12.424-19.406 12.424zM368.848 583.124a21.342 21.342 0 0 1-18.532-10.75c-5.844-10.25-2.312-23.282 7.938-29.124l31.094-17.78c10.248-5.844 23.28-2.282 29.124 7.938 5.844 10.232 2.282 23.28-7.938 29.092l-31.124 17.812c-3.344 1.874-6.968 2.812-10.562 2.812z" fill="#434A54" /><path d="M246.038 694.87l66.466-46.998 156.842 376.116-170.998-191.556 20.874-51.128zM777.994 694.87l-66.5-46.998-156.778 376.116 170.996-191.556-20.906-51.128z" fill="#656D78" /></svg>