<?xml version="1.0" standalone="no"?><!DOCTYPE svg PUBLIC "-//W3C//DTD SVG 1.1//EN" "http://www.w3.org/Graphics/SVG/1.1/DTD/svg11.dtd"><svg class="icon" width="128px" height="128.00px" viewBox="0 0 1024 1024" version="1.1" xmlns="http://www.w3.org/2000/svg"><path d="M42.404 597.302c-11.782 0-21.344-9.5-21.344-21.312V170.64c0-11.782 9.562-21.312 21.344-21.312S63.732 158.86 63.732 170.64v405.35c0 11.812-9.546 21.312-21.328 21.312zM149.354 533.32H128.012c-11.782 0-21.328-9.532-21.328-21.344 0-11.782 9.546-21.312 21.328-21.312h21.342c11.782 0 21.328 9.532 21.328 21.312a21.318 21.318 0 0 1-21.328 21.344z" fill="#E2A437" /><path d="M149.354 575.99H128.012c-11.782 0-21.328-9.562-21.328-21.31 0-11.796 9.546-21.36 21.328-21.36h21.342c11.782 0 21.328 9.562 21.328 21.36 0 11.748-9.546 21.31-21.328 21.31zM149.354 618.676H128.012c-11.782 0-21.328-9.56-21.328-21.374 0-11.75 9.546-21.312 21.328-21.312h21.342c11.782 0 21.328 9.562 21.328 21.312 0 11.814-9.546 21.374-21.328 21.374z" fill="#E2A437" /><path d="M212.698 725.298c-2.124 0-21.454-0.624-41.218-10.748-28.032-14.376-43.468-40.938-43.468-74.75V357.168c0-11.782 9.562-21.344 21.342-21.344 11.782 0 21.328 9.562 21.328 21.344V639.8c0 17.562 6.124 29.124 19.264 36.25 11.312 6.124 23.532 6.624 23.64 6.624h-0.156l-0.732 42.624zM319.742 874.672c-11.782 0-21.344-9.562-21.344-21.312V298.67c0-11.812 9.562-21.344 21.344-21.344s21.328 9.532 21.328 21.344V853.36c-0.002 11.75-9.548 21.312-21.328 21.312z" fill="#F6BB42" /><path d="M583.688 511.976H213.072c-11.782 0-21.344-9.532-21.344-21.312s9.562-21.344 21.344-21.344h370.616c11.782 0 21.344 9.562 21.344 21.344s-9.564 21.312-21.344 21.312zM596.25 597.302H213.072c-11.782 0-21.344-9.5-21.344-21.312 0-11.75 9.562-21.31 21.344-21.31h383.178c11.782 0 21.344 9.56 21.344 21.31 0 11.812-9.562 21.312-21.344 21.312zM576.032 682.864H215.166c-11.782 0-21.328-9.562-21.328-21.312 0-11.812 9.546-21.376 21.328-21.376h360.866c11.782 0 21.312 9.562 21.312 21.376 0 11.748-9.532 21.312-21.312 21.312z" fill="#FFCE54" /><path d="M319.742 874.672c-79.78 0-154.792-31.062-211.198-87.5C52.138 730.798 21.06 655.8 21.06 575.99c0-79.764 31.078-154.792 87.482-211.198 56.406-56.406 131.418-87.466 211.198-87.466s154.778 31.06 211.184 87.466c56.418 56.404 87.48 131.434 87.48 211.198 0 79.81-31.062 154.808-87.48 211.182-56.406 56.438-131.404 87.5-211.182 87.5z m0-554.692c-141.168 0-256.01 114.842-256.01 256.01 0 141.186 114.84 255.994 256.01 255.994 141.152 0 255.978-114.808 255.978-255.994-0.002-141.168-114.826-256.01-255.978-256.01zM64.012 191.984H21.358C9.578 191.984 0.016 182.422 0.016 170.64s9.562-21.312 21.342-21.312h42.656c11.782 0 21.344 9.532 21.344 21.312s-9.564 21.344-21.346 21.344z" fill="#F6BB42" /><path d="M319.742 319.324c-70.592 0-128.012 57.406-128.012 127.998v256.666c0 70.558 57.42 127.996 128.012 127.996 70.576 0 127.998-57.438 127.998-127.996V447.322c-0.002-70.592-57.422-127.998-127.998-127.998z m85.326 384.664c0 47.06-38.28 85.372-85.326 85.372-47.062 0-85.342-38.31-85.342-85.372V447.322c0-47.062 38.28-85.342 85.342-85.342 47.046 0 85.326 38.28 85.326 85.342v256.666z" fill="#FFCE54" /><path d="M617.906 593.178c-18.468 27.374-39.094 54.374-61.748 80.936-17.36 41.688-45.454 77.874-80.828 104.996 0.64 1.376 1.422 2.688 2.36 3.876a21.234 21.234 0 0 0 16.89 8.312c3.86 0 7.734-1.062 11.218-3.188a1409.872 1409.872 0 0 1 50.704-29.998c36.686-47.498 57.998-104.498 61.404-164.934z" opacity=".1" /><path d="M954.43 676.114l-185.558-392.944c-4.438-9.376-14.968-14.25-24.968-11.468-10.032 2.75-16.592 12.282-15.56 22.594 1.78 19.466-0.782 74.716-23.188 144.434-16.466 51.248-40.904 102.842-72.624 153.324-39.75 63.374-91.108 125.186-152.668 183.744-7.922 7.562-8.86 19.876-2.172 28.5a21.234 21.234 0 0 0 16.89 8.312c3.86 0 7.734-1.062 11.218-3.188 93.202-57.748 227.26-126.558 336.698-126.558 44.028 0 70.464 11.938 78.558 18.438 7.406 7.062 18.468 7.562 26.812 1.562 8.374-6 10.936-17.376 6.562-26.75z" fill="#F6BB42" /><path d="M951.742 438.916c57.998 112.452 67.936 222.698 22.156 246.322-45.782 23.624-129.902-48.376-187.934-160.792-58.03-112.436-67.936-222.714-22.156-246.338 45.75-23.626 129.902 48.372 187.934 160.808z" fill="#E2A437" /><path d="M954.524 711.05c-29.218 0-63.094-17.938-98.03-51.938-32.904-32-63.842-75.186-89.498-124.886-29.282-56.782-47.842-115.124-52.28-164.34-5.032-55.75 8.938-95.092 39.28-110.748 8.844-4.562 18.656-6.876 29.156-6.876 29.218 0 63.124 17.968 98.03 51.936 32.904 32.032 63.874 75.216 89.498 124.936 29.312 56.748 47.874 115.108 52.31 164.356 5 55.748-8.938 95.06-39.31 110.748-8.812 4.5-18.626 6.812-29.156 6.812z m-171.372-416.098c-3.688 0-6.812 0.688-9.562 2.094-13.312 6.874-19.594 33.31-16.376 68.998 3.938 43.874 20.876 96.622 47.718 148.622 23.218 45.014 52.092 85.452 81.308 113.886 36.968 36 60.062 39.876 68.282 39.876 3.718 0 6.844-0.688 9.594-2.124 13.312-6.876 19.594-33.312 16.376-68.998-3.938-43.874-20.906-96.638-47.718-148.606-23.218-45.032-52.124-85.466-81.342-113.904-36.968-35.97-60.06-39.844-68.28-39.844z" fill="#FFCE54" /></svg>