<?xml version="1.0" standalone="no"?><!DOCTYPE svg PUBLIC "-//W3C//DTD SVG 1.1//EN" "http://www.w3.org/Graphics/SVG/1.1/DTD/svg11.dtd"><svg class="icon" width="128px" height="128.00px" viewBox="0 0 1024 1024" version="1.1" xmlns="http://www.w3.org/2000/svg"><path d="M298.666 1002.652c0 11.782-9.546 21.344-21.328 21.344s-21.344-9.562-21.344-21.344 9.562-21.344 21.344-21.344 21.328 9.564 21.328 21.344zM767.99 1002.652c0 11.782-9.562 21.344-21.344 21.344s-21.344-9.562-21.344-21.344 9.562-21.344 21.344-21.344 21.344 9.564 21.344 21.344z" fill="#434A54" /><path d="M789.302 0.004h-554.62c-11.796 0-21.36 9.562-21.36 21.312v959.992c0 11.782 9.562 21.344 21.36 21.344h554.622c11.812 0 21.376-9.562 21.376-21.344V21.316C810.678 9.566 801.116 0.004 789.302 0.004z" fill="#A0D468" /><path d="M213.338 512h597.34v42.656h-597.34z" fill="#8CC153" /><path d="M277.338 341.346h-64v42.656h42.656v298.654h-42.656v42.656h64c11.782 0 21.328-9.532 21.328-21.312V362.658c0-11.782-9.546-21.312-21.328-21.312z" fill="#E6E9ED" /><path d="M789.302 0.004h-42.656c11.782 0 21.344 9.562 21.344 21.312v959.992c0 11.782-9.562 21.344-21.344 21.344h42.656c11.812 0 21.376-9.562 21.376-21.344V21.316c0-11.75-9.562-21.312-21.376-21.312z" fill="#FFFFFF" opacity=".2" /></svg>