<?xml version="1.0" standalone="no"?><!DOCTYPE svg PUBLIC "-//W3C//DTD SVG 1.1//EN" "http://www.w3.org/Graphics/SVG/1.1/DTD/svg11.dtd"><svg class="icon" width="128px" height="128.00px" viewBox="0 0 1024 1024" version="1.1" xmlns="http://www.w3.org/2000/svg"><path d="M1023.988 512c0 282.746-229.246 511.988-511.988 511.988C229.224 1023.988 0.012 794.746 0.012 512 0.012 229.226 229.224 0.012 512 0.012 794.742 0.012 1023.988 229.226 1023.988 512z" fill="#E6E9ED" /><path d="M512 21.326c11.624 0 21.062-9.312 21.312-20.876C526.234 0.168 519.14 0.012 512 0.012s-14.25 0.156-21.312 0.438c0.234 11.562 9.672 20.876 21.312 20.876zM512 1002.644c-11.64 0-21.078 9.312-21.312 20.906 7.062 0.282 14.172 0.438 21.312 0.438s14.234-0.156 21.312-0.438c-0.25-11.592-9.688-20.906-21.312-20.906z" fill="#CCD1D9" /><path d="M416.268 30.762c11.422-2.25 18.86-13.25 16.828-24.656a497.766 497.766 0 0 0-20.984 3.75c-7 1.376-13.938 2.906-20.812 4.594 2.484 11.282 13.562 18.594 24.968 16.312zM607.714 993.208c-11.404 2.282-18.842 13.25-16.842 24.656 7-1.094 14-2.312 20.998-3.718 7-1.406 13.938-2.938 20.812-4.594-2.498-11.314-13.56-18.594-24.968-16.344z" fill="#CCD1D9" /><path d="M324.222 58.7c10.75-4.468 15.906-16.686 11.704-27.468-6.64 2.438-13.266 5.032-19.86 7.75s-13.094 5.594-19.516 8.562c4.642 10.592 16.938 15.592 27.672 11.156zM699.746 965.304c-10.75 4.434-15.876 16.652-11.688 27.434 6.656-2.438 13.25-5 19.876-7.718a495.618 495.618 0 0 0 19.498-8.594c-4.624-10.59-16.936-15.59-27.686-11.122z" fill="#CCD1D9" /><path d="M239.396 104.042c9.672-6.468 12.36-19.468 6.124-29.218-6.046 3.688-12.032 7.5-17.968 11.468s-11.766 8.032-17.484 12.218c6.64 9.47 19.656 11.97 29.328 5.532zM784.586 919.96c-9.656 6.468-12.344 19.438-6.094 29.218 6-3.688 12-7.532 17.938-11.5 5.938-3.938 11.75-8.032 17.5-12.188-6.626-9.498-19.688-11.998-29.344-5.53z" fill="#CCD1D9" /><path d="M165.054 165.04c8.218-8.218 8.312-21.468 0.296-29.842a564.91 564.91 0 0 0-15.39 14.75 525.72 525.72 0 0 0-14.75 15.406c8.36 7.998 21.61 7.904 29.844-0.314zM858.93 858.93c-8.218 8.218-8.312 21.5-0.282 29.844a489.52 489.52 0 0 0 15.376-14.75 616.586 616.586 0 0 0 14.78-15.376c-8.374-8.03-21.624-7.938-29.874 0.282z" fill="#CCD1D9" /><path d="M104.042 239.414c6.454-9.686 3.954-22.718-5.532-29.342a518.58 518.58 0 0 0-12.218 17.468 523.468 523.468 0 0 0-11.468 17.968c9.748 6.248 22.748 3.562 29.218-6.094zM919.958 784.59c-6.468 9.656-3.968 22.684 5.532 29.308a460.742 460.742 0 0 0 12.186-17.464c4-5.938 7.812-11.938 11.5-17.968-9.75-6.22-22.748-3.564-29.218 6.124z" fill="#CCD1D9" /><path d="M58.698 324.224c4.438-10.75-0.546-23.03-11.156-27.686a545.306 545.306 0 0 0-8.56 19.53 526.506 526.506 0 0 0-7.75 19.844c10.794 4.218 23.012-0.938 27.466-11.688zM965.3 699.746c-4.438 10.75 0.562 23.062 11.124 27.688 3-6.406 5.876-12.906 8.594-19.5s5.282-13.218 7.718-19.876c-10.748-4.186-22.998 0.938-27.436 11.688z" fill="#CCD1D9" /><path d="M30.778 416.284c2.266-11.406-5.032-22.5-16.344-25a559.08 559.08 0 0 0-4.594 20.812c-1.39 7-2.624 14-3.718 21 11.406 2.032 22.374-5.406 24.656-16.812zM993.238 607.718c-2.282 11.406 5 22.5 16.312 24.968 1.688-6.876 3.188-13.812 4.594-20.812s2.624-14 3.718-21c-11.374-1.998-22.374 5.438-24.624 16.844z" fill="#CCD1D9" /><path d="M21.34 512c0-11.624-9.312-21.094-20.89-21.312A533.614 533.614 0 0 0 0.012 512c0 7.124 0.156 14.25 0.438 21.312 11.578-0.25 20.89-9.688 20.89-21.312zM1002.644 512c0 11.624 9.344 21.062 20.906 21.312 0.282-7.062 0.438-14.188 0.438-21.312 0-7.156-0.156-14.25-0.438-21.312-11.562 0.22-20.906 9.688-20.906 21.312z" fill="#CCD1D9" /><path d="M30.778 607.718c-2.282-11.406-13.25-18.844-24.656-16.844 1.094 7 2.328 14 3.718 21 1.406 7 2.938 13.938 4.594 20.812 11.312-2.498 18.608-13.562 16.344-24.968zM993.238 416.284c2.25 11.406 13.25 18.844 24.624 16.812-1.094-7-2.312-14-3.718-21s-2.906-13.938-4.594-20.812c-11.312 2.5-18.592 13.594-16.312 25z" fill="#CCD1D9" /><path d="M58.698 699.746c-4.454-10.718-16.672-15.906-27.466-11.688a508.62 508.62 0 0 0 16.31 39.376c10.608-4.656 15.592-16.938 11.156-27.688zM965.3 324.224c4.438 10.75 16.688 15.906 27.438 11.688a501.758 501.758 0 0 0-7.75-19.844 436.156 436.156 0 0 0-8.562-19.53c-10.562 4.656-15.562 16.936-11.126 27.686z" fill="#CCD1D9" /><path d="M104.042 784.59c-6.468-9.688-19.468-12.344-29.218-6.124 3.688 6.032 7.5 12.032 11.468 17.968s8.046 11.746 12.218 17.464c9.484-6.624 11.984-19.652 5.532-29.308zM919.958 239.382c6.468 9.688 19.466 12.376 29.216 6.124a482.35 482.35 0 0 0-11.5-17.968c-3.938-5.938-8-11.75-12.186-17.468-9.498 6.626-11.998 19.656-5.53 29.312z" fill="#CCD1D9" /><path d="M165.054 858.93c-8.234-8.218-21.484-8.312-29.844-0.282a568.41 568.41 0 0 0 14.75 15.376 525.208 525.208 0 0 0 15.39 14.75c8.018-8.344 7.924-21.626-0.296-29.844zM858.93 165.04c8.25 8.218 21.5 8.312 29.874 0.312a566.54 566.54 0 0 0-14.78-15.406 529.134 529.134 0 0 0-15.376-14.75c-8.03 8.376-7.938 21.626 0.282 29.844z" fill="#CCD1D9" /><path d="M239.396 919.96c-9.672-6.468-22.688-3.968-29.312 5.532a485.476 485.476 0 0 0 17.468 12.188 515.946 515.946 0 0 0 17.968 11.5c6.236-9.782 3.548-22.75-6.124-29.22zM784.586 104.01c9.656 6.468 22.718 3.968 29.344-5.5-5.75-4.188-11.562-8.25-17.5-12.218s-11.938-7.782-17.938-11.468c-6.25 9.75-3.562 22.75 6.094 29.186z" fill="#CCD1D9" /><path d="M324.222 965.304c-10.734-4.468-23.032 0.532-27.672 11.122 6.422 3 12.922 5.844 19.516 8.562a491.754 491.754 0 0 0 19.86 7.75c4.202-10.78-0.954-23-11.704-27.434zM699.746 58.7c10.75 4.438 23.062-0.562 27.686-11.156a495.18 495.18 0 0 0-19.498-8.562 500.674 500.674 0 0 0-19.876-7.75c-4.186 10.78 0.938 22.998 11.688 27.468z" fill="#CCD1D9" /><path d="M416.268 993.208c-11.406-2.25-22.484 5.032-24.968 16.344 6.876 1.656 13.812 3.188 20.812 4.594s14 2.624 20.984 3.718a21.32 21.32 0 0 0-16.828-24.656zM607.714 30.762c11.406 2.282 22.468-5.032 24.968-16.344a501.088 501.088 0 0 0-20.812-4.562 493.27 493.27 0 0 0-20.998-3.75c-1.998 11.406 5.438 22.406 16.842 24.656z" fill="#CCD1D9" /><path d="M895.99 512c0 212.058-171.932 383.992-383.99 383.992-212.074 0-383.992-171.934-383.992-383.992 0-212.088 171.918-383.99 383.992-383.99 212.058 0 383.99 171.902 383.99 383.99z" fill="#CCD1D9" /><path d="M512 128.01c-7.156 0-14.282 0.218-21.344 0.594C692.808 139.666 853.304 307.068 853.304 512c0 204.902-160.496 372.304-362.648 383.398 7.062 0.376 14.188 0.594 21.344 0.594 212.058 0 383.99-171.934 383.99-383.992 0-212.088-171.932-383.99-383.99-383.99z" opacity=".1" /><path d="M512.14 342.974c-67.14 12-139.358 159.902-139.358 159.902s-40.748 108.468 19.532 150.652c60.28 42.188 66.452 205.652 127.374 154.84 60.904-50.808 64.654 3.75 139.464-18.496 74.842-22.25 190.464-67.062 168.028-115.718-22.438-48.684 5.624-159.558-9.844-211.526-15.468-51.968-238.026-131.654-305.196-119.654z" fill="#F5F7FA" /><path d="M705.184 554.656c0 58.906-47.75 106.652-106.686 106.652-58.904 0-106.654-47.746-106.654-106.652s47.75-106.654 106.654-106.654c58.936 0 106.686 47.748 106.686 106.654z" fill="#FFCE54" /><path d="M598.498 448.002a106.26 106.26 0 0 0-21.312 2.124c48.686 9.874 85.31 52.936 85.31 104.528 0 51.594-36.624 94.652-85.31 104.528 6.876 1.406 14 2.124 21.312 2.124 58.936 0 106.686-47.746 106.686-106.652 0-58.904-47.75-106.652-106.686-106.652z" fill="#FFFFFF" opacity=".2" /><path d="M218.912 273.132c-0.36-1.876 1.594-5.75 3.328-6.562l41-19.282c6.954-3.25 20.186-6.032 28.888-6.032 0.546 0 1.062 0.032 1.562 0.032l45.234 2.312c1.204 0.062 2.454 0.094 3.734 0.094 15.062 0 34.404-4.156 47.03-10.094l41-19.28c6.954-3.25 20.186-6.03 28.888-6.03 0.532 0 1.062 0 1.562 0.032l45.234 2.312c1.204 0.062 2.454 0.062 3.734 0.062 15.062 0 34.39-4.124 47.016-10.062l40.998-19.282c6.968-3.282 20.186-6.032 28.904-6.032 0.532 0 1.062 0 1.562 0.032l45.218 2.282c1.938 0.124 5.218 2.938 5.594 4.844l23.562 119.716-39.25-2a71.69 71.69 0 0 0-3.718-0.094c-15.062 0-34.406 4.156-47.062 10.094l-40.966 19.25c-6.968 3.282-20.186 6.062-28.888 6.062-0.546 0-1.062-0.032-1.578-0.062l-45.234-2.282a71.69 71.69 0 0 0-3.718-0.094c-15.062 0-34.406 4.156-47.046 10.094l-40.982 19.282c-6.954 3.25-20.188 6.032-28.89 6.032-0.546 0-1.062-0.032-1.578-0.032l-45.232-2.312a71.69 71.69 0 0 0-3.718-0.094c-15.062 0-34.406 4.156-47.044 10.092l-35.562 16.718-23.582-119.716z" fill="#965353" /><path d="M725.058 303.944l-24.75-125.59c-2.25-11.5-13.688-21.406-25.406-22l-45.218-2.312a71.968 71.968 0 0 0-2.656-0.062c-11.688 0-28.124 3.438-37.966 8.062l-40.998 19.282c-9.844 4.624-26.282 8.062-37.954 8.062-0.922 0-1.796-0.032-2.656-0.062l-45.234-2.312a69.484 69.484 0 0 0-2.64-0.062c-11.688 0-28.124 3.438-37.966 8.062l-41 19.28c-9.844 4.624-26.28 8.062-37.952 8.062-0.922 0-1.796-0.032-2.656-0.062l-45.234-2.282c-0.844-0.062-1.734-0.062-2.64-0.062-11.686 0-28.124 3.406-37.966 8.062l-40.984 19.25c-10.624 5-17.452 18.5-15.186 30l24.716 125.59c1.704 8.594 7.984 13.75 15.468 13.75 2.562 0 5.266-0.624 7.968-1.876l40.982-19.282c9.86-4.624 26.296-8.062 37.968-8.062 0.922 0 1.796 0.032 2.64 0.062l45.232 2.282c0.86 0.062 1.734 0.062 2.656 0.062 11.672 0 28.11-3.406 37.968-8.062l40.982-19.25c9.86-4.624 26.296-8.062 37.968-8.062 0.922 0 1.796 0.032 2.64 0.062l45.25 2.282c0.844 0.062 1.718 0.062 2.64 0.062 11.672 0 28.108-3.438 37.982-8.062l40.966-19.25c9.844-4.624 26.282-8.062 37.968-8.062 0.906 0 1.812 0 2.624 0.062l45.25 2.282c0.376 0.032 0.75 0.032 1.094 0.032 11.1-0.002 18.286-8.752 16.1-19.876z m-60.25-25.062a121.486 121.486 0 0 0-4.812-0.124c-18.156 0-40.688 4.876-56.124 12.124l-40.998 19.282c-3.75 1.75-13.812 4-19.796 4h-0.484l-45.25-2.312a120.152 120.152 0 0 0-4.796-0.094c-18.14 0-40.704 4.844-56.124 12.094l-40.984 19.282c-3.75 1.75-13.844 4-19.812 4h-0.5l-45.232-2.282a79.94 79.94 0 0 0-4.796-0.124c-18.14 0-40.704 4.876-56.108 12.094l-10.844 5.124-15.984-81.154 30.156-14.188c3.75-1.75 13.842-4 19.81-4h0.484l45.25 2.282c1.546 0.094 3.156 0.124 4.796 0.124 18.14 0 40.702-4.876 56.108-12.094l41-19.282c3.75-1.75 13.826-4 19.81-4h0.484l45.234 2.28a80.48 80.48 0 0 0 4.812 0.124c18.14 0 40.704-4.874 56.108-12.092l40.998-19.28c3.75-1.782 13.844-4 19.812-4h0.468l33.282 1.688 15.968 81.154-11.936-0.626z" fill="#7F4242" /><path d="M237.788 350.754l-18.156-38.624 41.938-19.718c13.766-6.468 35.592-10.78 50.764-10l45.234 2.282c8.216 0.406 23.03-2.5 30.466-6l40.984-19.25c13.766-6.468 35.592-10.782 50.764-10l45.234 2.282c8.218 0.406 23.016-2.5 30.484-6l40.966-19.25c13.78-6.5 35.654-10.75 50.842-9.906l51.188 2.812-2.344 42.592-51.156-2.812c-8.188-0.438-22.938 2.438-30.376 5.906l-40.998 19.282c-13.748 6.468-35.576 10.75-50.764 10l-45.234-2.282c-8.218-0.406-23.016 2.5-30.454 5.968l-40.998 19.28c-13.75 6.468-35.578 10.782-50.764 10l-45.234-2.282c-8.204-0.406-23.016 2.5-30.452 6l-41.934 19.72z" fill="#7F4242" /><path d="M242.208 736.122c1.86-15.094-0.86-37.156-6.328-51.344l-16.266-42.282c-2.954-7.656-4.796-22.622-3.796-30.808l5.532-44.938c1.86-15.094-0.86-37.188-6.328-51.376l-16.264-42.25c-2.954-7.686-4.796-22.654-3.796-30.81l5.532-44.968c1.858-15.062-0.86-37.154-6.328-51.342l-14.11-36.686 121.09-14.906h0.204c2.312 0 5.5 2.218 6.11 3.782l16.282 42.28c2.954 7.688 4.796 22.656 3.796 30.812l-5.532 44.968c-1.86 15.062 0.86 37.156 6.312 51.342l16.282 42.28c2.954 7.656 4.796 22.624 3.796 30.812l-5.532 44.938c-1.86 15.094 0.86 37.156 6.312 51.34l16.28 42.282c2.954 7.688 4.796 22.656 3.796 30.812l-5.532 44.938c-0.234 1.906-3.31 5-5.216 5.218l-121.092 14.906 4.796-39z" fill="#965353" /><path d="M385.362 671.59l-16.282-42.278c-4.204-10.938-6.482-29.438-5.046-41.094l5.532-44.938c1.422-11.656-0.844-30.124-5.062-41.092l-16.28-42.25c-4.204-10.968-6.484-29.436-5.046-41.092l5.532-44.936c1.422-11.656-0.844-30.156-5.062-41.092l-16.266-42.28c-3.89-10.062-15.188-17.468-26.032-17.468-0.938 0-1.89 0.062-2.812 0.188l-127.042 15.624c-11.64 1.438-17.718 11.562-13.5 22.53l16.266 42.25c4.218 10.968 6.5 29.436 5.062 41.092l-5.532 44.968c-1.438 11.624 0.844 30.124 5.062 41.06l16.266 42.28c4.218 10.938 6.5 29.438 5.062 41.062l-5.532 44.968c-1.438 11.656 0.844 30.122 5.062 41.09l16.264 42.25c4.218 10.938 6.5 29.438 5.062 41.094l-5.532 44.938c-1.328 10.782 5.718 18.718 16 18.718 0.844 0 1.688-0.032 2.562-0.156l127.044-15.624c11.638-1.438 22.342-12.156 23.78-23.782l5.532-44.968c1.422-11.624-0.844-30.124-5.062-41.062z m-37.296 35.874l-4.062 33.032-82.076 10.124 1.454-11.876c2.312-18.718-0.812-44.062-7.594-61.624l-16.266-42.282c-1.688-4.372-3.11-15.902-2.532-20.528l5.532-44.968c2.296-18.688-0.812-44.032-7.594-61.624l-16.266-42.25c-1.688-4.376-3.11-15.906-2.532-20.562l5.532-44.938c2.296-18.718-0.812-44.06-7.578-61.624l-4.312-11.188 82.092-10.094 11.968 31.062c1.672 4.376 3.094 15.906 2.516 20.562l-5.532 44.936c-2.296 18.718 0.828 44.03 7.594 61.624l16.282 42.28c1.672 4.376 3.094 15.876 2.532 20.532l-5.546 44.968c-2.296 18.688 0.828 44.032 7.594 61.622l16.282 42.25c1.668 4.38 3.09 15.91 2.512 20.566z" fill="#7F4242" /><path d="M320.316 776.622l-42.326-5.406 6.482-50.844c1.032-8.124-0.766-23.032-3.716-30.688l-16.266-42.282c-5.468-14.184-8.188-36.246-6.328-51.34l5.532-44.968c1-8.156-0.844-23.124-3.796-30.812l-16.266-42.25c-5.468-14.186-8.188-36.28-6.328-51.374l5.532-44.936c1.016-8.156-0.828-23.124-3.796-30.812l-16.64-43.25 39.812-15.344 16.656 43.25c5.452 14.188 8.17 36.28 6.31 51.374l-5.53 44.936c-1 8.156 0.844 23.156 3.794 30.812l16.282 42.28c5.454 14.186 8.172 36.25 6.312 51.342l-5.532 44.968c-1 8.156 0.844 23.124 3.796 30.812l16.282 42.246c5.468 14.218 8.14 36.344 6.218 51.438l-6.484 50.848z" fill="#7F4242" /></svg>