<?xml version="1.0" standalone="no"?><!DOCTYPE svg PUBLIC "-//W3C//DTD SVG 1.1//EN" "http://www.w3.org/Graphics/SVG/1.1/DTD/svg11.dtd"><svg class="icon" width="128px" height="128.00px" viewBox="0 0 1024 1024" version="1.1" xmlns="http://www.w3.org/2000/svg"><path d="M554.688 725.306h-85.36v255.992c0 23.532 19.14 42.686 42.672 42.686s42.688-19.154 42.688-42.686V725.306z" fill="#E6E9ED" /><path d="M469.328 853.302h85.36v85.342h-85.36zM679.308 768.118c1.844 23.376-15.844 42.532-39.312 42.532H384.004c-23.468 0-41.156-19.156-39.312-42.532l57.28-725.572C403.832 19.14 424.534 0.016 448.004 0.016H576c23.466 0 44.186 19.124 46.03 42.53l57.278 725.572z" fill="#ED5564" /><path d="M448.002 0.016c-23.468 0-44.172 19.124-46.032 42.53L383.44 277.32h257.118l-18.532-234.774C620.184 19.14 599.464 0.016 575.998 0.016h-127.996z" fill="#FFCE54" /><path d="M363.238 533.312h297.54l-20.22-255.992H383.442z" fill="#A0D468" /><path d="M448.002 362.662c0 5.468 2.078 10.906 6.25 15.092 8.328 8.312 21.842 8.312 30.17 0a21.346 21.346 0 0 0 6.25-15.092v-89.34h-42.67v89.34zM597.308 273.32h-42.622v67.998a21.04 21.04 0 0 0 6.248 15.094c8.312 8.342 21.812 8.342 30.156 0 4.154-4.156 6.216-9.624 6.216-15.094V273.32z" fill="#FFCE54" /><path d="M661.308 831.958v-45.31h-42.624v45.342c0 5.438 2.062 10.906 6.25 15.062 8.312 8.344 21.812 8.344 30.124 0a21.03 21.03 0 0 0 6.25-15.094zM390.254 795.554a21.36 21.36 0 0 0 0 30.186c8.328 8.312 21.842 8.312 30.17 0a21.36 21.36 0 0 0 0-30.186c-8.328-8.312-21.842-8.312-30.17 0z" fill="#ED5564" /><path d="M533.328 529.312v89.342c0 5.468 2.094 10.906 6.25 15.092 8.328 8.312 21.858 8.312 30.17 0a21.212 21.212 0 0 0 6.25-15.092v-89.342h-42.67zM426.674 575.966c0 5.468 2.078 10.938 6.25 15.094 8.328 8.344 21.828 8.344 30.172 0a21.284 21.284 0 0 0 6.232-15.094v-46.654h-42.654v46.654z" fill="#A0D468" /></svg>