<?xml version="1.0" standalone="no"?><!DOCTYPE svg PUBLIC "-//W3C//DTD SVG 1.1//EN" "http://www.w3.org/Graphics/SVG/1.1/DTD/svg11.dtd"><svg class="icon" width="128px" height="128.00px" viewBox="0 0 1024 1024" version="1.1" xmlns="http://www.w3.org/2000/svg"><path d="M917.296 853.3H106.686V277.32s95.498-213.304 213.32-213.304h383.988c117.808 0 213.302 213.304 213.302 213.304v575.98z" fill="#EC5564" /><path d="M234.682 217.324h554.622v806.658H234.682z" fill="#EC5564" /><path d="M831.99 362.662c0-11.782-9.562-21.344-21.344-21.344s-21.344 9.562-21.344 21.344V853.3h42.688V362.662zM234.682 362.662c0-11.782-9.562-21.344-21.344-21.344-11.78 0-21.328 9.562-21.328 21.344V853.3h42.67V362.662z" opacity=".1" /><path d="M535.312 618.652c0 11.782-9.546 21.344-21.33 21.344-11.78 0-21.342-9.562-21.342-21.344s9.562-21.342 21.342-21.342c11.784 0 21.33 9.562 21.33 21.342zM535.312 746.646c0 11.782-9.546 21.344-21.33 21.344-11.78 0-21.342-9.562-21.342-21.344 0-11.78 9.562-21.342 21.342-21.342 11.784 0 21.33 9.564 21.33 21.342zM535.312 874.644c0 11.78-9.546 21.34-21.33 21.34-11.78 0-21.342-9.56-21.342-21.34 0-11.782 9.562-21.344 21.342-21.344 11.784 0 21.33 9.564 21.33 21.344z" fill="#424953" /><path d="M393.176 124.264h233.758v211.554H393.176z" fill="#F5BA45" /><path d="M905.234 209.948c-20.874-59.778-66.12-111.058-130.838-148.276C704.212 21.332 613.496 0.02 512.046 0.02c-101.48 0-192.212 21.312-262.366 61.654C185.87 98.36 139.388 151.044 118.826 209.98c-14.828 42.468-16.016 86.966-3.438 128.682 12.922 42.842 40.202 81.748 78.918 112.496 41.108 32.718 83.826 49.312 126.996 49.312 91.59 0 159.728-73.84 190.744-115.246 31.016 41.406 99.168 115.246 190.73 115.246h0.032c43.152 0 85.872-16.594 126.964-49.312 38.716-30.78 65.994-69.684 78.9-112.496 12.594-41.716 11.406-86.246-3.438-128.714z m-393.188 108.716c-12.296-11.436-30.968-29.686-48.436-50.404-47.966-56.874-46.06-82.31-42.998-90.622 6.204-16.906 39.53-26.624 91.434-26.624 51.86 0 85.17 9.718 91.39 26.624 3.032 8.312 4.966 33.748-42.998 90.622-17.454 20.718-36.11 38.966-48.392 50.404z" fill="#FECD57" /></svg>