<?xml version="1.0" standalone="no"?><!DOCTYPE svg PUBLIC "-//W3C//DTD SVG 1.1//EN" "http://www.w3.org/Graphics/SVG/1.1/DTD/svg11.dtd"><svg class="icon" width="128px" height="128.00px" viewBox="0 0 1024 1024" version="1.1" xmlns="http://www.w3.org/2000/svg"><path d="M938.672 405.346h64v426.642h-64z" fill="#A0D468" /><path d="M1002.672 384.004h-64c-11.812 0-21.372 9.562-21.372 21.342v426.642c0 11.782 9.558 21.344 21.372 21.344h64c11.75 0 21.312-9.562 21.312-21.344V405.346c0-11.78-9.562-21.342-21.312-21.342z m-42.688 170.65V512h21.312v42.654h-21.312z m21.312 42.686v42.656h-21.312V597.34h21.312z m-21.312 85.31h21.312v42.686h-21.312v-42.686z m21.312-255.992v42.686h-21.312v-42.686h21.312z m-21.312 383.986v-42.652h21.312v42.652h-21.312z" fill="#8CC153" /><path d="M384.004 234.664H170.682c-11.78 0-21.342-9.53-21.342-21.312V149.34c0-11.782 9.562-21.328 21.342-21.328h213.322c11.782 0 21.328 9.546 21.328 21.328v64.012c0 11.782-9.546 21.312-21.328 21.312zM192.01 192.01h170.666V170.682H192.01v21.328zM533.328 277.35H21.344c-11.78 0-21.328 9.53-21.328 21.312v575.982c0 11.782 9.546 21.344 21.328 21.344h511.984c11.796 0 21.36-9.562 21.36-21.344V298.662c0-11.782-9.564-21.312-21.36-21.312z" fill="#434A54" /><path d="M533.328 192.666H21.344c-11.78 0-21.328 9.562-21.328 21.342v597.324c0 11.782 9.546 21.312 21.328 21.312h511.984c11.796 0 21.36-9.532 21.36-21.312V214.008c0-11.78-9.564-21.342-21.36-21.342zM938.672 341.348H618.684c-11.812 0-21.376 9.53-21.376 21.312v511.984c0 11.782 9.562 21.344 21.376 21.344h319.988c11.75 0 21.312-9.562 21.312-21.344V362.66c0-11.782-9.562-21.312-21.312-21.312z" fill="#656D78" /><path d="M703.992 362.66h149.308c11.812 0 21.376-9.532 21.376-21.312H682.68a21.3 21.3 0 0 0 21.312 21.312zM853.3 874.144h-149.308c-11.782 0-21.312 9.562-21.312 21.344h191.996c0-11.78-9.562-21.344-21.376-21.344z" fill="#434A54" /><path d="M788.368 512c-58.812 0-106.652 47.842-106.652 106.652s47.84 106.684 106.652 106.684c58.808 0 106.684-47.874 106.684-106.684S847.176 512 788.368 512z" fill="#FFCE54" /><path d="M789.304 661.338c-11.75 0-21.312-9.562-21.312-21.342V597.34c0-11.782 9.562-21.344 21.312-21.344 11.812 0 21.372 9.562 21.372 21.344v42.656c0 11.78-9.558 21.342-21.372 21.342z" fill="#434A54" /><path d="M274.382 342.004c-94.09 0-170.65 76.56-170.65 170.652 0 94.122 76.56 170.682 170.65 170.682 94.106 0 170.666-76.56 170.666-170.682 0-94.092-76.558-170.652-170.666-170.652z" fill="#FFCE54" /><path d="M341.334 533.342h-127.996c-11.782 0-21.328-9.56-21.328-21.342s9.546-21.344 21.328-21.344h127.996c11.78 0 21.342 9.562 21.342 21.344s-9.562 21.342-21.342 21.342z" fill="#434A54" /></svg>