<?xml version="1.0" standalone="no"?><!DOCTYPE svg PUBLIC "-//W3C//DTD SVG 1.1//EN" "http://www.w3.org/Graphics/SVG/1.1/DTD/svg11.dtd"><svg class="icon" width="128px" height="128.00px" viewBox="0 0 1024 1024" version="1.1" xmlns="http://www.w3.org/2000/svg"><path d="M21.314 234.658h981.338v554.654H21.314z" fill="#E6E9ED" /><path d="M0.002 213.314v597.372h1023.994V213.314H0.002zM981.308 768H42.658V255.97h938.65V768z" fill="#CCD1D9" /><path d="M256 319.97h511.996V704H256z" fill="#A0D468" /><path d="M234.658 298.658v426.654h554.652V298.658H234.658z m511.994 384.03H277.314V341.314h469.338v341.374z" fill="#8CC153" /><path d="M885.308 629.312c-23.562 0-42.656 19.124-42.656 42.688s19.094 42.688 42.656 42.688 42.688-19.124 42.688-42.688-19.124-42.688-42.688-42.688zM885.308 586.688c23.562 0 42.688-19.124 42.688-42.718 0-23.562-19.124-42.656-42.688-42.656s-42.656 19.094-42.656 42.656c0 23.592 19.094 42.718 42.656 42.718zM138.658 629.312c-23.562 0-42.656 19.124-42.656 42.688s19.094 42.688 42.656 42.688S181.314 695.562 181.314 672s-19.094-42.688-42.656-42.688zM138.658 501.312c-23.562 0-42.656 19.094-42.656 42.656 0 23.594 19.094 42.718 42.656 42.718s42.656-19.124 42.656-42.718c0-23.562-19.094-42.656-42.656-42.656z" fill="#ED5564" /><path d="M874.652 341.314h42.656c11.782 0 21.344-9.562 21.344-21.344 0-11.78-9.562-21.312-21.344-21.312h-42.656c-11.782 0-21.344 9.532-21.344 21.312 0 11.78 9.564 21.344 21.344 21.344zM917.308 362.658h-42.656c-11.782 0-21.344 9.532-21.344 21.312s9.562 21.342 21.344 21.342h42.656c11.782 0 21.344-9.562 21.344-21.342s-9.562-21.312-21.344-21.312z" fill="#CCD1D9" /><path d="M528 682.688h-122.688l128-341.374H656z" fill="#FFFFFF" opacity=".1" /></svg>