<?xml version="1.0" standalone="no"?><!DOCTYPE svg PUBLIC "-//W3C//DTD SVG 1.1//EN" "http://www.w3.org/Graphics/SVG/1.1/DTD/svg11.dtd"><svg class="icon" width="128px" height="128.00px" viewBox="0 0 1024 1024" version="1.1" xmlns="http://www.w3.org/2000/svg"><path d="M849.184 947.39c-1.312-1.844-33.624-45.652-90.934-89.652-76.372-58.714-161.308-89.746-245.602-89.746-84.262 0-169.4 31-246.226 89.714-57.576 44-90.216 87.746-91.576 89.59a21.454 21.454 0 0 0-4.172 12.688v42.656a21.24 21.24 0 0 0 7.344 16.094 21.24 21.24 0 0 0 16.968 5.032c1.266-0.188 128.964-17.844 317.662-17.844 188.664 0 315.098 17.656 316.348 17.844 1 0.156 2 0.218 3 0.218 5.094 0 10.062-1.844 13.968-5.218a21.406 21.406 0 0 0 7.344-16.124v-42.656c0-4.532-1.436-8.94-4.124-12.596z" fill="#ED5564" /><path d="M852.214 953.234l-42.656-127.996a21.442 21.442 0 0 0-10.402-12.188c-3.532-1.844-89.032-45.058-286.508-45.058-197.4 0-284.1 43.152-287.694 44.996a21.284 21.284 0 0 0-10.516 12.25l-42.67 127.996a21.392 21.392 0 0 0 3.844 20.406 21.396 21.396 0 0 0 19.376 7.468c1.266-0.188 128.964-17.844 317.662-17.844 188.664 0 315.098 17.656 316.348 17.844 1 0.124 2 0.188 3 0.188 6.25 0 12.282-2.75 16.376-7.656a21.278 21.278 0 0 0 3.84-20.406z" fill="#434A54" /><path d="M385.308 541.546V853.3s24.094 42.688 126.684 42.688c102.606 0 128.012-42.688 128.012-42.688V540.094l-254.696 1.452z" fill="#656D78" /><path d="M527.086 420.424c-8.328 8.328-21.828 8.328-30.156 0-8.344-8.328-8.344-21.842 0-30.17 8.328-8.328 21.828-8.328 30.156 0 8.344 8.328 8.344 21.842 0 30.17z"  /><path d="M820.028 318.366S704 233.04 512.008 233.04c-191.994 0-308.022 85.326-308.022 85.326l-9.358 129.636s253.382 21.326 253.382 272.552h127.994c0-251.226 253.368-272.552 253.368-272.552l-9.344-129.636z" fill="#434A54" /><path d="M597.316 405.332c0 47.14-38.184 85.34-85.308 85.34-47.124 0-85.326-38.202-85.326-85.34 0-47.124 38.202-85.326 85.326-85.326 47.124 0 85.308 38.202 85.308 85.326z" fill="#ED5564" /><path d="M320.014 384.004m-42.67 0a42.67 42.67 0 1 0 85.34 0 42.67 42.67 0 1 0-85.34 0Z" fill="#656D78" /><path d="M746.688 384.004c0 23.562-19.124 42.67-42.688 42.67-23.558 0-42.684-19.108-42.684-42.67s19.124-42.67 42.684-42.67c23.562 0 42.688 19.108 42.688 42.67z" fill="#656D78" /><path d="M533.336 597.308H490.68c-11.782 0-21.342-9.532-21.342-21.312 0-11.778 9.562-21.34 21.342-21.34h42.656c11.796 0 21.36 9.562 21.36 21.34 0 11.782-9.564 21.312-21.36 21.312z" opacity=".2" /><path d="M798.624 118.732C722.062 42.172 620.252 0.018 512.006 0.018c-108.262 0-210.056 42.156-286.6 118.714-76.56 76.56-118.716 178.338-118.716 286.6s42.156 210.04 118.716 286.602c76.544 76.558 178.338 118.71 286.6 118.71 108.246 0 210.054-42.152 286.618-118.71 76.558-76.562 118.684-178.338 118.684-286.602s-42.124-210.04-118.684-286.6z m-286.616 585.26c-79.778 0-154.776-31.058-211.18-87.496-56.404-56.402-87.482-131.386-87.482-211.164 0-79.762 31.078-154.76 87.482-211.18 56.404-56.404 131.402-87.466 211.18-87.466 79.778 0 154.778 31.062 211.18 87.466 56.406 56.42 87.496 131.418 87.496 211.18 0 79.778-31.09 154.762-87.496 211.164-56.402 56.438-131.402 87.496-211.18 87.496z" fill="#ED5564" /></svg>