<?xml version="1.0" standalone="no"?><!DOCTYPE svg PUBLIC "-//W3C//DTD SVG 1.1//EN" "http://www.w3.org/Graphics/SVG/1.1/DTD/svg11.dtd"><svg class="icon" width="128px" height="128.00px" viewBox="0 0 1024 1024" version="1.1" xmlns="http://www.w3.org/2000/svg"><path d="M490.658 138.692H21.36C9.58 138.692 0.018 148.238 0.018 160.02V863.996c0 11.75 9.562 21.312 21.342 21.312h469.298c11.78 0 21.328-9.562 21.328-21.312V160.018c0-11.78-9.548-21.326-21.328-21.326z" fill="#656D78" /><path d="M0.018 245.344h511.968v533.282H0.018z" fill="#AC92EB" /><path d="M831.49 644.504c3.406 23.31-12.718 44.936-36.03 48.374-23.31 3.376-44.998-12.75-48.374-36.062-3.406-23.31 12.718-44.998 36.03-48.374 23.312-3.438 45 12.75 48.374 36.062z" fill="#FFFFFF" /><path d="M1000.362 619.816c-17-116.542-125.308-197.26-241.898-180.26-116.558 17.03-197.276 125.324-180.246 241.882 17 116.622 125.308 197.306 241.898 180.306 116.558-17.06 197.274-125.306 180.246-241.928z m-204.902 73.06c-23.31 3.376-44.998-12.75-48.374-36.062-3.406-23.31 12.718-44.998 36.03-48.374 23.31-3.438 44.998 12.75 48.374 36.062 3.406 23.312-12.718 44.938-36.03 48.374z" fill="#E6E9ED" /><path d="M763.806 684.876l-101.966 136.806 90.686 39.124 29.404-168.12a42.822 42.822 0 0 1-18.124-7.81zM831.49 644.504l168.872-24.688-9.876-42.938-73.748-97.262-101.966 136.824a42.406 42.406 0 0 1 16.718 28.064z" fill="#F5F7FA" /><path d="M789.242 714.624c-31.53 0-58.716-23.498-63.28-54.748-5.094-34.874 19.156-67.436 54.092-72.56a65.834 65.834 0 0 1 9.282-0.688c31.53 0 58.716 23.562 63.28 54.75 2.468 16.936-1.812 33.81-12 47.498-10.218 13.748-25.156 22.624-42.092 25.124a65.792 65.792 0 0 1-9.282 0.624z m0.094-85.308c-1.032 0-2.094 0.062-3.124 0.25-11.656 1.688-19.716 12.5-18.03 24.186 1.532 10.376 10.56 18.25 21.06 18.25 1.032 0 2.094-0.062 3.124-0.25 5.656-0.812 10.624-3.812 14.03-8.376a21.2 21.2 0 0 0 4-15.81c-1.53-10.374-10.56-18.25-21.06-18.25z" fill="#CCD1D9" /><path d="M256.01 351.996c-94.106 0-170.652 76.56-170.652 170.652 0 94.106 76.544 170.666 170.652 170.666 94.09 0 170.65-76.56 170.65-170.666 0-94.092-76.56-170.652-170.65-170.652z" fill="#FFCE54" /><path d="M320.006 543.99H192.012c-11.782 0-21.328-9.562-21.328-21.342 0-11.782 9.546-21.312 21.328-21.312h127.996c11.782 0 21.328 9.532 21.328 21.312-0.002 11.78-9.548 21.342-21.33 21.342z" fill="#434A54" /><path d="M789.024 885.308c-55.81 0-109.996-20.062-152.556-56.562-43-36.874-71.188-88.122-79.374-144.182-9.062-62.06 6.592-123.872 44.03-174.134 37.468-50.25 92.246-82.904 154.278-91.966a236.666 236.666 0 0 1 34.154-2.5c55.81 0 109.964 20.124 152.556 56.624 43 36.844 71.188 88.044 79.374 144.168 9.032 61.998-6.592 123.872-44.06 174.12-37.438 50.248-92.214 82.936-154.246 91.936a232.788 232.788 0 0 1-34.156 2.496z m0.53-426.658c-9.312 0-18.716 0.688-27.998 2.032-50.75 7.406-95.56 34.124-126.214 75.248-30.624 41.138-43.438 91.702-36.032 142.45 6.718 45.936 29.782 87.81 64.936 117.934 34.842 29.874 79.154 46.374 124.778 46.374 9.312 0 18.716-0.688 27.998-2.062 50.75-7.438 95.56-34.124 126.214-75.246 30.624-41.124 43.438-91.686 36.032-142.434a191.978 191.978 0 0 0-64.936-117.98c-34.842-29.88-79.154-46.316-124.778-46.316z" fill="#CCD1D9" /><path d="M490.658 138.692h-42.67c11.782 0 21.328 9.546 21.328 21.328V863.996c0 11.75-9.546 21.312-21.328 21.312h42.67c11.78 0 21.328-9.562 21.328-21.312V160.018c0-11.78-9.548-21.326-21.328-21.326z" fill="#FFFFFF" opacity=".2" /></svg>