<?xml version="1.0" standalone="no"?><!DOCTYPE svg PUBLIC "-//W3C//DTD SVG 1.1//EN" "http://www.w3.org/Graphics/SVG/1.1/DTD/svg11.dtd"><svg class="icon" width="128px" height="128.00px" viewBox="0 0 1024 1024" version="1.1" xmlns="http://www.w3.org/2000/svg"><path d="M959.996 277.314H839.12L810.684 256H213.33l-28.438 21.312H64.002s-64 43.906-64 234.686c0 190.75 64 234.626 64 234.626h120.89L213.33 768h597.354l28.438-21.376h120.876s64-43.876 64-234.626c-0.002-190.78-64.002-234.684-64.002-234.684z" fill="#656D78" /><path d="M895.996 469.342c0 11.782-9.562 21.312-21.312 21.312-11.812 0-21.376-9.532-21.376-21.312S862.872 448 874.684 448c11.75 0 21.312 9.562 21.312 21.342zM895.996 554.656c0 11.75-9.562 21.312-21.312 21.312-11.812 0-21.376-9.562-21.376-21.312 0-11.782 9.562-21.312 21.376-21.312 11.75 0 21.312 9.532 21.312 21.312zM938.684 512c0 11.782-9.562 21.344-21.376 21.344-11.75 0-21.312-9.562-21.312-21.344 0-11.782 9.562-21.344 21.312-21.344 11.814 0 21.376 9.562 21.376 21.344zM853.308 512c0 11.782-9.532 21.344-21.312 21.344s-21.312-9.562-21.312-21.344c0-11.782 9.532-21.344 21.312-21.344s21.312 9.562 21.312 21.344z" fill="#AAB2BC" /><path d="M256 341.312h511.996v341.312H256z" fill="#5D9CEC" /><path d="M192 490.656H170.674v-21.312c0-11.782-9.562-21.344-21.344-21.344s-21.328 9.562-21.328 21.344v21.312H106.674c-11.782 0-21.344 9.562-21.344 21.344 0 11.782 9.562 21.344 21.344 21.344h21.328v21.312c0 11.75 9.546 21.312 21.328 21.312s21.344-9.562 21.344-21.312v-21.312H192c11.782 0 21.328-9.562 21.328-21.344 0.002-11.782-9.546-21.344-21.328-21.344z" fill="#AAB2BC" /><path d="M448 704c-11.782 0-21.328 9.562-21.328 21.312 0 11.812 9.546 21.312 21.328 21.312s21.328-9.5 21.328-21.312c0-11.75-9.546-21.312-21.328-21.312zM384 704c-11.782 0-21.328 9.562-21.328 21.312 0 11.812 9.546 21.312 21.328 21.312s21.328-9.5 21.328-21.312c0-11.75-9.546-21.312-21.328-21.312zM320 704h-42.672c-11.782 0-21.328 9.562-21.328 21.312 0 11.812 9.546 21.312 21.328 21.312H320c11.782 0 21.328-9.5 21.328-21.312C341.33 713.562 331.782 704 320 704zM746.684 704h-42.688c-11.778 0-21.308 9.562-21.308 21.312a21.28 21.28 0 0 0 21.308 21.312h42.688c11.75 0 21.312-9.5 21.312-21.312 0-11.75-9.562-21.312-21.312-21.312zM640 704h-42.688c-11.75 0-21.312 9.562-21.312 21.312 0 11.812 9.562 21.312 21.312 21.312H640c11.782 0 21.312-9.5 21.312-21.312 0-11.75-9.53-21.312-21.312-21.312z" fill="#434A54" /><path d="M509.328 682.624h-122.656l128-341.312h122.64z" fill="#FFFFFF" opacity=".1" /></svg>