<?xml version="1.0" standalone="no"?><!DOCTYPE svg PUBLIC "-//W3C//DTD SVG 1.1//EN" "http://www.w3.org/Graphics/SVG/1.1/DTD/svg11.dtd"><svg class="icon" width="128px" height="128.00px" viewBox="0 0 1024 1024" version="1.1" xmlns="http://www.w3.org/2000/svg"><path d="M1023.766 700.208c-5.5-125.9-113.778-410.142-118.372-422.172a21.412 21.412 0 0 0-8.124-10.156l-22.624-15v-21.89a21.3 21.3 0 0 0-15.188-20.42L702.68 163.4a21.354 21.354 0 0 0-18 2.702l-51.152 34.234H390.472l-51.154-34.234a21.354 21.354 0 0 0-18-2.702l-156.776 47.17a21.3 21.3 0 0 0-15.188 20.42v21.89l-22.624 15a21.454 21.454 0 0 0-8.124 10.156C113.982 290.066 5.734 574.308 0.234 700.208c-3.218 73.5 30.124 113.558 58.654 134.184 30.592 22.156 62.186 26.718 63.498 26.906a21.246 21.246 0 0 0 17.874-5.938c0.438-0.406 42.374-41.594 89.248-82.746 86.81-76.248 109.34-81.31 112.028-81.654h340.928c2.684 0.344 25.214 5.406 112.028 81.654 46.872 41.152 88.808 82.34 89.214 82.746a21.3 21.3 0 0 0 14.968 6.124c0.968 0 1.938-0.062 2.938-0.188 1.312-0.188 32.902-4.75 63.496-26.906 28.532-20.622 61.876-60.682 58.658-134.182z" fill="#656D78" /><path d="M276.852 392.798m-63.998 0a63.998 63.998 0 1 0 127.996 0 63.998 63.998 0 1 0-127.996 0Z" fill="#CCD1D9" /><path d="M276.852 307.472c-47.03 0-85.31 38.28-85.31 85.326 0 47.044 38.28 85.324 85.31 85.324 47.06 0 85.34-38.28 85.34-85.324 0-47.046-38.28-85.326-85.34-85.326z m0 127.996c-23.53 0-42.656-19.14-42.656-42.67 0-23.532 19.124-42.672 42.656-42.672s42.686 19.14 42.686 42.672c0 23.53-19.156 42.67-42.686 42.67z" fill="#AAB2BC" /><path d="M618.654 541.652m-63.998 0a63.998 63.998 0 1 0 127.996 0 63.998 63.998 0 1 0-127.996 0Z" fill="#CCD1D9" /><path d="M618.652 626.962c-47.032 0-85.308-38.282-85.308-85.31 0-47.06 38.278-85.326 85.308-85.326 47.062 0 85.34 38.264 85.34 85.326 0 47.03-38.278 85.31-85.34 85.31z m0-127.98c-23.532 0-42.656 19.14-42.656 42.67 0 23.532 19.124 42.654 42.656 42.654s42.688-19.124 42.688-42.654c0-23.528-19.156-42.67-42.688-42.67z" fill="#AAB2BC" /><path d="M405.348 605.65c-11.782 0-21.344-9.562-21.344-21.344v-85.324c0-11.782 9.562-21.328 21.344-21.328 11.78 0 21.312 9.546 21.312 21.328v85.324c0 11.782-9.532 21.344-21.312 21.344z" fill="#CCD1D9" /><path d="M448.002 562.964h-85.34c-11.782 0-21.312-9.532-21.312-21.312s9.53-21.326 21.312-21.326h85.34c11.782 0 21.344 9.544 21.344 21.326s-9.562 21.312-21.344 21.312z" fill="#CCD1D9" /><path d="M740.398 292.614c8.344 8.344 8.344 21.844 0 30.172-8.312 8.344-21.844 8.344-30.156 0-8.344-8.328-8.344-21.828 0-30.172 8.312-8.328 21.844-8.328 30.156 0z" fill="#FFCE54" /><path d="M740.398 420.14c8.344 8.328 8.344 21.844 0 30.172-8.312 8.328-21.844 8.328-30.156 0-8.344-8.328-8.344-21.844 0-30.172 8.312-8.328 21.844-8.328 30.156 0z" fill="#A0D468" /><path d="M804.394 356.142c8.344 8.328 8.344 21.844 0 30.172-8.308 8.328-21.84 8.328-30.152 0-8.344-8.328-8.344-21.844 0-30.172 8.312-8.328 21.844-8.328 30.152 0z" fill="#ED5564" /><path d="M676.402 356.142c8.34 8.328 8.34 21.844 0 30.172-8.312 8.328-21.844 8.328-30.156 0-8.344-8.328-8.344-21.844 0-30.172 8.312-8.328 21.844-8.328 30.156 0z" fill="#5D9CEC" /><path d="M390.472 200.336l36.188 85.31h170.68l36.188-85.31z" fill="#434A54" /></svg>