<?xml version="1.0" standalone="no"?><!DOCTYPE svg PUBLIC "-//W3C//DTD SVG 1.1//EN" "http://www.w3.org/Graphics/SVG/1.1/DTD/svg11.dtd"><svg class="icon" width="128px" height="128.00px" viewBox="0 0 1024 1024" version="1.1" xmlns="http://www.w3.org/2000/svg"><path d="M149.346 0.004v1023.992h575.996c82.468 0 149.312-66.842 149.312-149.31V0.004H149.346z" fill="#E6E9ED" /><path d="M256.002 106.674h511.996v384.014H256.002z" fill="#A0D468" /><path d="M234.658 85.346V512h554.684V85.346H234.658z m511.996 383.998H277.346V128.002h469.308v341.342z" fill="#8CC153" /><path d="M469.344 853.342h-42.688c-11.782 0-21.312 9.562-21.312 21.344s9.532 21.312 21.312 21.312h42.688c11.782 0 21.312-9.532 21.312-21.312s-9.532-21.344-21.312-21.344zM597.344 853.342h-42.688c-11.782 0-21.312 9.562-21.312 21.344s9.532 21.312 21.312 21.312h42.688c11.782 0 21.312-9.532 21.312-21.312s-9.532-21.344-21.312-21.344z" fill="#AAB2BC" /><path d="M725.342 661.344c-23.532 0-42.686-19.156-42.686-42.656 0-23.532 19.154-42.688 42.686-42.688 23.5 0 42.656 19.156 42.656 42.688 0 23.5-19.156 42.656-42.656 42.656z" fill="#ED5564" /><path d="M725.342 554.688c-35.342 0-63.998 28.656-63.998 64s28.656 64 63.998 64c35.344 0 64-28.656 64-64s-28.656-64-64-64z m0 85.312c-11.782 0-21.344-9.562-21.344-21.312 0-11.782 9.562-21.344 21.344-21.344 11.75 0 21.312 9.562 21.312 21.344 0 11.75-9.562 21.312-21.312 21.312z" fill="#DA4453" /><path d="M597.344 746.688c-23.532 0-42.688-19.156-42.688-42.688s19.156-42.656 42.688-42.656c23.5 0 42.656 19.124 42.656 42.656s-19.156 42.688-42.656 42.688z" fill="#ED5564" /><path d="M597.344 640c-35.344 0-64 28.656-64 64s28.656 64 64 64 64-28.656 64-64-28.656-64-64-64z m0 85.344c-11.782 0-21.344-9.562-21.344-21.344 0-11.75 9.562-21.312 21.344-21.312 11.75 0 21.312 9.562 21.312 21.312 0 11.782-9.562 21.344-21.312 21.344z" fill="#DA4453" /><path d="M746.654 917.342c0 11.782-9.532 21.344-21.312 21.344s-21.344-9.562-21.344-21.344 9.562-21.344 21.344-21.344 21.312 9.562 21.312 21.344zM789.342 874.686c0 11.782-9.562 21.312-21.344 21.312s-21.344-9.532-21.344-21.312 9.562-21.344 21.344-21.344 21.344 9.562 21.344 21.344zM831.998 831.998c0 11.782-9.562 21.344-21.344 21.344s-21.312-9.562-21.312-21.344 9.532-21.312 21.312-21.312 21.344 9.53 21.344 21.312zM831.998 917.342c0 11.782-9.562 21.344-21.344 21.344s-21.312-9.562-21.312-21.344 9.532-21.344 21.312-21.344 21.344 9.562 21.344 21.344zM789.342 959.998c0 11.78-9.562 21.342-21.344 21.342s-21.344-9.562-21.344-21.342c0-11.782 9.562-21.312 21.344-21.312s21.344 9.53 21.344 21.312zM703.998 959.998c0 11.78-9.56 21.342-21.342 21.342s-21.312-9.562-21.312-21.342c0-11.782 9.532-21.312 21.312-21.312s21.342 9.53 21.342 21.312z" fill="#CCD1D9" /><path d="M528 469.344h-122.656l128-341.342H656z" fill="#FFFFFF" opacity=".1" /><path d="M234.658 618.688H448V704H234.658z" fill="#434A54" /><path d="M298.658 554.688H384V768h-85.342z" fill="#656D78" /></svg>