<?xml version="1.0" standalone="no"?><!DOCTYPE svg PUBLIC "-//W3C//DTD SVG 1.1//EN" "http://www.w3.org/Graphics/SVG/1.1/DTD/svg11.dtd"><svg class="icon" width="128px" height="128.00px" viewBox="0 0 1024 1024" version="1.1" xmlns="http://www.w3.org/2000/svg"><path d="M42.704 800c-11.75 0-21.344-9.562-21.344-21.376V117.348c0-11.75 9.594-21.312 21.344-21.312h938.624c11.75 0 21.344 9.562 21.344 21.312v661.276c0 11.812-9.594 21.376-21.344 21.376H42.704z" fill="#A0D468" /><path d="M981.328 74.694H42.704C19.142 74.694 0.018 93.786 0.018 117.348v661.276c0 23.562 19.124 42.684 42.686 42.684h938.624c23.562 0 42.656-19.122 42.656-42.684V117.348c0-23.56-19.094-42.654-42.656-42.654z m0 703.93H42.704V117.348h938.624v661.276z" fill="#E6E9ED" /><path d="M682.68 949.304H341.35l42.528-170.492 256.18-0.062z" fill="#CCD1D9" /><path d="M31.922 693.316h960.188v122.054H31.922z" fill="#E6E9ED" /><path d="M533.344 757.312c0 11.812-9.562 21.312-21.344 21.312a21.28 21.28 0 0 1-21.312-21.312c0-11.75 9.532-21.312 21.312-21.312 11.782 0 21.344 9.562 21.344 21.312z" fill="#434A54" /><path d="M682.68 906.622H341.35c-11.782 0-21.344 9.562-21.344 21.376 0 11.746 9.562 21.308 21.344 21.308H682.68c11.782 0 21.312-9.562 21.312-21.308 0-11.814-9.532-21.376-21.312-21.376z" fill="#E6E9ED" /><path d="M106.7 181.346h511.984V522.68H106.7z" fill="#ED5564" /><path d="M384.004 351.998l111.778-62.436a127.93 127.93 0 0 0-21.25-28.06c-49.998-50-131.026-50-181.026 0-49.966 49.998-49.966 131.028 0 181.026 50 49.966 131.028 49.966 181.026 0 8.532-8.562 15.624-18 21.25-28.062l-111.778-62.468z" fill="#FFCE54" /><path d="M789.336 543.992c-11.782 0-21.344-9.532-21.344-21.312V181.346c0-11.782 9.562-21.342 21.344-21.342s21.34 9.562 21.34 21.342V522.68c0 11.78-9.558 21.312-21.34 21.312z" fill="#E6E9ED" /><path d="M836.8 501.336h-132.808c-11.782 0-21.312-9.562-21.312-21.344a21.3 21.3 0 0 1 21.312-21.312H836.8c16.25 0 22-3.188 23.376-4.124 0.156-6.218-11.562-34.28-76.872-80.654l-12.624-9c-49.812-35.342-106.308-86.404-92.778-128.808 8.808-27.624 39.652-33.404 63.964-33.404h132.808a21.298 21.298 0 0 1 21.312 21.312c0 11.78-9.532 21.342-21.312 21.342h-132.808c-16.25 0-22 3.156-23.344 4.124-0.188 6.188 11.532 34.28 76.844 80.654l12.652 8.968c49.782 35.374 106.312 86.404 92.782 128.808-8.812 27.626-39.656 33.438-64 33.438z" fill="#F5F7FA" /><path d="M893.644 629.316H127.076c-11.782 0-21.342-9.562-21.342-21.312 0-11.812 9.562-21.312 21.342-21.312h766.57c11.782 0 21.344 9.5 21.344 21.312-0.002 11.75-9.564 21.312-21.346 21.312z" fill="#434A54" /></svg>