<?xml version="1.0" standalone="no"?><!DOCTYPE svg PUBLIC "-//W3C//DTD SVG 1.1//EN" "http://www.w3.org/Graphics/SVG/1.1/DTD/svg11.dtd"><svg class="icon" width="128px" height="128.00px" viewBox="0 0 1024 1024" version="1.1" xmlns="http://www.w3.org/2000/svg"><path d="M821.292 234.666c-11.75 0-21.308 9.562-21.308 21.312v85.372c0 11.75 9.558 21.312 21.308 21.312 11.812 0 21.376-9.562 21.376-21.312v-85.372c0-11.75-9.562-21.312-21.376-21.312zM821.292 383.974c-11.75 0-21.308 9.562-21.308 21.374v85.31c0 11.782 9.558 21.312 21.308 21.312 11.812 0 21.376-9.532 21.376-21.312v-85.31a21.364 21.364 0 0 0-21.376-21.374z" fill="#434A54" /><path d="M266.672 1013.328c-41.186 0-74.654-33.5-74.654-74.688V85.358c0-41.188 33.468-74.686 74.654-74.686h469.312c41.188 0 74.684 33.498 74.684 74.686V938.64c0 41.188-33.496 74.688-74.684 74.688H266.672z" fill="#434A54" /><path d="M735.984 0.016H266.672c-47.124 0-85.34 38.218-85.34 85.342V938.64c0 47.124 38.218 85.344 85.34 85.344h469.312c47.124 0 85.308-38.218 85.308-85.344V85.358c0-47.124-38.182-85.342-85.308-85.342z m64 938.624c0 35.312-28.688 64-64 64H266.672c-35.28 0-63.998-28.688-63.998-64V85.358c0-35.312 28.718-63.998 63.998-63.998h469.312c35.312 0 64 28.686 64 63.998V938.64z" fill="#656D78" /><path d="M202.674 149.356h597.31v725.288H202.674z" fill="#FFCE54" /><path d="M671.988 85.358c0 11.75-9.562 21.31-21.312 21.31-11.812 0-21.376-9.562-21.376-21.31a21.366 21.366 0 0 1 21.376-21.376c11.75 0.002 21.312 9.564 21.312 21.376z" fill="#5D9CEC" /><path d="M586.676 63.984H352.012c-11.812 0-21.342 9.562-21.342 21.376 0 11.75 9.532 21.31 21.342 21.31h234.664c11.75 0 21.312-9.562 21.312-21.31 0-11.814-9.562-21.376-21.312-21.376zM650.676 960.546H352.012c-11.78 0-21.342-9.562-21.342-21.344 0-11.778 9.562-21.34 21.342-21.34h298.664c11.75 0 21.312 9.562 21.312 21.34 0 11.782-9.562 21.344-21.312 21.344z" fill="#656D78" /><path d="M714.672 639.996c0 47.124-38.246 85.34-85.372 85.34H373.326c-47.124 0-85.31-38.214-85.31-85.34V384.004c0-47.124 38.186-85.342 85.31-85.342H629.3c47.124 0 85.372 38.218 85.372 85.342v255.992z" fill="#ED5564" /><path d="M509.446 512l111.73-62.466c-5.562-10.032-12.688-19.5-21.25-28.032-49.934-49.998-131.01-49.998-180.978 0-49.998 49.966-49.998 131.028 0 180.994 49.968 50 131.044 50 180.978 0 8.562-8.532 15.688-18 21.25-28.028L509.446 512z" fill="#FFCE54" /></svg>