<?xml version="1.0" standalone="no"?><!DOCTYPE svg PUBLIC "-//W3C//DTD SVG 1.1//EN" "http://www.w3.org/Graphics/SVG/1.1/DTD/svg11.dtd"><svg class="icon" width="128px" height="128.00px" viewBox="0 0 1024 1024" version="1.1" xmlns="http://www.w3.org/2000/svg"><path d="M928.27 385.724L533.11 149.714a21.34 21.34 0 0 0-21.484-0.234L96.136 385.49a21.34 21.34 0 0 0-10.796 18.546v513.298c0 11.782 9.562 21.312 21.344 21.312H917.3c11.812 0 21.376-9.532 21.376-21.312V404.036a21.36 21.36 0 0 0-10.406-18.312z" fill="#FFCE54" /><path d="M1012.516 343.772L521.876 87.78a21.314 21.314 0 0 0-19.75 0L11.482 343.772a21.314 21.314 0 0 0-11.466 18.906v85.326a21.3 21.3 0 0 0 10.28 18.25 21.336 21.336 0 0 0 20.922 0.672L512 216.072l480.796 250.852a21.248 21.248 0 0 0 9.876 2.422c3.812 0 7.624-1.046 11.032-3.094a21.27 21.27 0 0 0 10.282-18.25v-85.326a21.348 21.348 0 0 0-11.47-18.904z" fill="#ED5564" /><path d="M831.99 554.656H192.01c-11.782 0-21.328 9.562-21.328 21.344v341.334c0 11.782 9.546 21.312 21.328 21.312h639.98c11.78 0 21.31-9.532 21.31-21.312V576c0-11.782-9.53-21.344-21.31-21.344z" fill="#E6E9ED" /><path d="M748.304 682.652H277.334c-11.78 0-21.326-9.53-21.326-21.31s9.546-21.344 21.326-21.344h470.97c11.782 0 21.344 9.562 21.344 21.344s-9.562 21.31-21.344 21.31zM748.304 767.994H277.334c-11.78 0-21.326-9.562-21.326-21.344s9.546-21.312 21.326-21.312h470.97c11.782 0 21.344 9.532 21.344 21.312s-9.562 21.344-21.344 21.344zM748.304 853.336H277.334c-11.78 0-21.326-9.562-21.326-21.344 0-11.78 9.546-21.342 21.326-21.342h470.97c11.782 0 21.344 9.562 21.344 21.342 0 11.782-9.562 21.344-21.344 21.344z" fill="#CCD1D9" /><path d="M362.676 362.678h298.632v127.996H362.676z" fill="#5D9CEC" /><path d="M959.986 938.646H64.014c-11.782 0-21.328-9.532-21.328-21.312s9.546-21.344 21.328-21.344h895.972c11.782 0 21.31 9.562 21.31 21.344s-9.528 21.312-21.31 21.312z" fill="#656D78" /><path d="M661.308 341.35H362.676c-11.782 0-21.344 9.546-21.344 21.328v127.996c0 11.782 9.562 21.328 21.344 21.328h298.632c11.812 0 21.374-9.546 21.374-21.328v-127.996c0-11.782-9.56-21.328-21.374-21.328z m-170.636 127.996h-106.668v-85.34h106.668v85.34z m149.324 0h-106.668v-85.34h106.668v85.34z" fill="#E6E9ED" /></svg>