<?xml version="1.0" standalone="no"?><!DOCTYPE svg PUBLIC "-//W3C//DTD SVG 1.1//EN" "http://www.w3.org/Graphics/SVG/1.1/DTD/svg11.dtd"><svg class="icon" width="128px" height="128.00px" viewBox="0 0 1024 1024" version="1.1" xmlns="http://www.w3.org/2000/svg"><path d="M725.308 618.972V298.684 768.16l298.4-0.156 0.282-295.338-85.31-45.984-85.344-170.668h-128.028v362.958z" fill="#E6E9ED" /><path d="M725.34 255.934l-0.032 170.67H938.68l-85.344-170.67z" fill="#4FC2E9" /><path d="M827.4 298.606l63.968 127.998h47.312l-85.344-170.67H725.34v42.672z" fill="#F5F7FA" /><path d="M853.492 170.686H170.82L0.01 341.338v469.352h85.482l42.592-42.25 597.224-0.312V256.012l0.062-42.67h128.122c11.75 0 21.312-9.546 21.312-21.328s-9.562-21.328-21.312-21.328z" fill="#FC6E51" /><path d="M938.68 746.692c0 58.876-47.782 106.622-106.686 106.622s-106.686-47.746-106.686-106.622c0-58.938 47.782-106.688 106.686-106.688s106.686 47.75 106.686 106.688zM554.812 746.692c0 58.876-47.766 106.622-106.67 106.622s-106.654-47.746-106.654-106.622c0-58.938 47.75-106.688 106.654-106.688s106.67 47.75 106.67 106.688zM341.488 746.692c0 58.876-47.764 106.622-106.67 106.622-58.904 0-106.67-47.746-106.67-106.622 0-58.938 47.766-106.688 106.67-106.688s106.67 47.75 106.67 106.688z" fill="#434A54" /><path d="M234.818 725.316c-11.78 0-21.328 9.562-21.328 21.376 0 11.75 9.546 21.312 21.328 21.312s21.328-9.562 21.328-21.312c0-11.814-9.548-21.376-21.328-21.376zM831.994 725.316c-11.782 0-21.312 9.562-21.312 21.376 0 11.75 9.532 21.312 21.312 21.312 11.78 0 21.31-9.562 21.31-21.312 0-11.814-9.53-21.376-21.31-21.376zM448.142 725.316c-11.782 0-21.328 9.562-21.328 21.376 0 11.75 9.546 21.312 21.328 21.312s21.344-9.562 21.344-21.312c0-11.814-9.564-21.376-21.344-21.376z" fill="#F5F7FA" /><path d="M405.33 341.338h-42.812c-11.782 0-21.328-9.546-21.328-21.328 0-11.78 9.546-21.328 21.328-21.328h42.812c11.782 0 21.344 9.546 21.344 21.328s-9.562 21.328-21.344 21.328z" fill="#E6E9ED" /><path d="M746.528 298.606h42.654v127.998h-42.654z" fill="#3BAFDA" /><path d="M448.142 576.008h-128.278c-10.968 0-20.14-8.312-21.234-19.188l-21.328-213.356a21.33 21.33 0 0 1 21.218-23.452h170.966c6.016 0 11.764 2.546 15.812 7.016s6 10.436 5.406 16.436L469.376 556.82c-1.094 10.876-10.266 19.188-21.234 19.188z" fill="#E6E9ED" /><path d="M490.812 362.682h-213.62c-11.782 0-21.328-9.562-21.328-21.344 0-11.78 9.546-21.328 21.328-21.328h213.62c11.782 0 21.328 9.546 21.328 21.328s-9.546 21.344-21.328 21.344z" fill="#F5F7FA" /><path d="M554.25 177.796v14.218c0 11.782 9.532 21.328 21.312 21.328a21.32 21.32 0 0 0 21.342-21.328v-14.218c0-2.5-0.468-4.89-1.218-7.11H555.5a20.636 20.636 0 0 0-1.25 7.11zM234.24 213.342c11.782 0 21.344-9.546 21.344-21.328v-14.218c0-2.5-0.468-4.89-1.25-7.11h-40.186a21.002 21.002 0 0 0-1.234 7.11v14.218c-0.002 11.782 9.544 21.328 21.326 21.328zM298.238 177.796v14.218c0 11.782 9.546 21.328 21.344 21.328 11.78 0 21.328-9.546 21.328-21.328v-14.218c0-2.5-0.454-4.89-1.25-7.11h-40.17a20.972 20.972 0 0 0-1.252 7.11zM383.58 177.796v14.218c0 11.782 9.546 21.328 21.328 21.328s21.328-9.546 21.328-21.328v-14.218c0-2.5-0.454-4.89-1.25-7.11h-40.172a21.012 21.012 0 0 0-1.234 7.11zM468.908 177.796v14.218c0 11.782 9.546 21.328 21.328 21.328s21.344-9.546 21.344-21.328v-14.218c0-2.5-0.468-4.89-1.25-7.11h-40.186a21.31 21.31 0 0 0-1.236 7.11z" fill="#E9573F" /></svg>