<?xml version="1.0" standalone="no"?><!DOCTYPE svg PUBLIC "-//W3C//DTD SVG 1.1//EN" "http://www.w3.org/Graphics/SVG/1.1/DTD/svg11.dtd"><svg class="icon" width="128px" height="128.00px" viewBox="0 0 1024 1024" version="1.1" xmlns="http://www.w3.org/2000/svg"><path d="M362.816 863.93c-1.5 0-89.78-0.438-176.342-25.062-49.498-14.094-88.624-33.152-116.214-56.684-32.906-28.062-48.906-61.5-48.906-102.25 0-118.214 58-160.278 131.436-213.496 53.936-39.092 114.748-83.154 159.09-164.278h102.154c43.376 80.154 103.936 123.748 157.684 162.402 74.06 53.28 132.56 95.342 132.56 215.214 0 40.718-15.968 74.124-48.844 102.188-27.594 23.532-66.654 42.622-116.09 56.746-86.686 24.75-175.152 25.22-176.528 25.22z" fill="#EFCADB" /><path d="M426.784 280.848v-78.122l-127.968-85.31v163.432z" fill="#A0D468" /><path d="M725.59 679.778c0-184.558-132.342-203.902-234.184-308.368a227.704 227.704 0 0 0-4.438-5.562l-0.5 0.406c-21.968-23.374-42.374-50.966-59.498-85.404h-127.966c-17.344 34.344-37.716 62-59.56 85.436l-0.532-0.438c-0.376 0.406-2.062 2.468-4.782 6C131.444 477.878 0.01 497.128 0.01 679.934c0 205.34 362.804 205.34 362.804 205.34 0.376 0 64.904-0.094 139.402-15.532l0.062 0.062c0.032-0.032 0.062-0.062 0.062-0.094 102.25-21.218 223.25-71.37 223.25-189.932z m-682.924 0.156c0-49.468 10.718-86.996 33.75-118.152 21.81-29.468 52.904-52 88.904-78.062 2.844-2.062 5.688-4.156 8.562-6.218a469.77 469.77 0 0 0-16.656 46.186c-16.624 55.094-21.562 109.558-14.624 161.902 6.032 45.718 21.124 89.718 44.998 131.376-44.124-13.032-78.874-30.124-103.308-50.844-28-23.782-41.626-51.97-41.626-86.188z m204.996 151.152c-34.468-46.934-55.532-97.402-62.656-150.246-6.216-46.124-1.966-94.372 12.656-143.464 20.594-69.156 56.312-120.84 69.188-138.028 22.404-23.468 41.404-48.5 57.466-75.842h77.216c17.406 29.904 37 54.624 57.56 75.936 12.938 17.312 48.562 68.936 69.124 137.934 14.624 49.094 18.876 97.34 12.656 143.464-7.124 52.782-28.156 103.218-62.562 150.09-62.654 11.406-114.872 11.688-115.496 11.688-0.654 0-52.498-0.188-115.152-11.532z m394.146-65.528c-24.376 20.844-59.154 38.062-103.434 51.218 23.81-41.624 38.874-85.562 44.904-131.188 6.906-52.344 2-106.808-14.624-161.902-5.094-16.874-10.968-32.718-17.156-47.406 2.594 1.876 5.188 3.75 7.75 5.594 36.186 26.032 67.466 48.53 89.466 78.218 23.344 31.5 34.218 69.496 34.218 119.684 0.002 34.002-13.436 62.064-41.124 85.782z" fill="#E2B7CC" /><path d="M448.314 863.93H277.66c-11.78 0-21.31 9.562-21.31 21.344s9.532 21.312 21.31 21.312h170.654c11.78 0 21.31-9.532 21.31-21.312s-9.53-21.344-21.31-21.344z" fill="#E2B7CC" /><path d="M512.156 671.964s113.184 213.308 293.868 213.308 217.964-213.308 217.964-213.308H512.156z m379.898 144.908c-25.062 17.308-53.188 25.746-86.032 25.746-33.56 0-67.374-9.25-100.496-27.464-27.938-15.344-55.5-37.062-81.938-64.532a491.14 491.14 0 0 1-31.342-36h374.49c-5.188 13.124-11.936 27.688-20.592 42.094-15.372 25.718-33.558 45.936-54.09 60.156z" fill="#FFDCE9" /><path d="M384.314 842.618a21.298 21.298 0 0 1-21.31 21.312c-11.782 0-21.344-9.532-21.344-21.312s9.562-21.344 21.344-21.344c11.78 0 21.31 9.562 21.31 21.344zM448.314 842.618c0 11.782-9.562 21.312-21.344 21.312s-21.312-9.532-21.312-21.312 9.532-21.344 21.312-21.344 21.344 9.562 21.344 21.344zM320.316 842.618c0 11.782-9.532 21.312-21.312 21.312s-21.344-9.532-21.344-21.312 9.562-21.344 21.344-21.344 21.312 9.562 21.312 21.344z" fill="#E2B7CC" /><path d="M512.312 672.278c-11.156 2.656-20.406 7.156-27.624 13.5-9.938 8.688-14.188 19.468-14.938 27.062v0.312l-0.094 0.75h0.032c0 0.406-0.062 0.812-0.062 1.218 0 11.782 9.562 21.344 21.344 21.344 10.562 0 19.312-7.688 21-17.75 1.218-1.782 7.876-6.312 25.282-6.688-15.128-21.842-23.69-37.468-24.94-39.748z" fill="#FFDCE9" /><path d="M806.024 842.898c-125.214 0-217.494-113.902-255.682-170.622h446.334c-5.782 19.406-16.032 47.594-32.812 75.376-38.186 63.22-91.278 95.246-157.84 95.246z" fill="#F5F7FA" /></svg>