<?xml version="1.0" standalone="no"?><!DOCTYPE svg PUBLIC "-//W3C//DTD SVG 1.1//EN" "http://www.w3.org/Graphics/SVG/1.1/DTD/svg11.dtd"><svg class="icon" width="128px" height="128.00px" viewBox="0 0 1024 1024" version="1.1" xmlns="http://www.w3.org/2000/svg"><path d="M426.674 640.022c0-82.496 38.202-149.356 85.326-149.356s85.312 66.86 85.312 149.356c0 82.468-38.188 149.31-85.312 149.31s-85.326-66.842-85.326-149.31z" fill="#ED5564" /><path d="M214.226 610.274c11.546-81.67-16.922-153.232-63.592-159.824-46.656-6.594-93.842 54.248-105.388 135.95-11.532 81.654 16.938 153.184 63.592 159.778 46.67 6.592 93.858-54.25 105.388-135.904z" fill="#FFCE54" /><path d="M809.776 610.274c-11.532-81.67 16.906-153.232 63.592-159.824 46.656-6.594 93.844 54.248 105.374 135.95 11.562 81.654-16.936 153.184-63.56 159.778-46.69 6.592-93.876-54.25-105.406-135.904z" fill="#A0D468" /><path d="M533.328 405.324h-42.654c-23.562 0-42.67 19.124-42.67 42.688v85.31c0 23.578 127.998 23.578 127.998 0v-85.31c-0.002-23.562-19.126-42.688-42.674-42.688zM183.696 368.952l-42.234-5.968a43.918 43.918 0 0 0-6.032-0.438c-20.922 0-39.17 15.406-42.186 36.716l-11.938 84.466c-3.312 23.344 123.716 39.218 126.732 17.938l11.938-84.498c3.298-23.344-12.936-44.936-36.28-48.216zM942.68 483.728l-11.938-84.466c-3-21.312-21.25-36.716-42.188-36.716-1.968 0-4 0.156-6 0.438l-42.248 5.968c-23.344 3.28-39.562 24.874-36.282 48.216l11.938 84.498c3.032 21.282 130.03 5.406 126.718-17.938z" fill="#CCD1D9" /><path d="M576 469.324c-11.782 0-21.312 9.562-21.312 21.342s9.532 21.344 21.312 21.344v-42.686zM469.33 490.666c0-11.782-9.546-21.342-21.328-21.342v42.686c11.782 0 21.328-9.562 21.328-21.344zM91.51 417.98l-0.906-0.094-5.954 42.156c0.296 0.062 0.578 0.156 0.876 0.188 11.672 1.656 22.468-6.468 24.108-18.156 1.658-11.656-6.468-22.438-18.124-24.094zM210.882 481.478l5.968-42.186c-11.532-1.438-22.124 6.624-23.75 18.156-1.638 11.562 6.314 22.218 17.782 24.03zM931.93 419.23c-11.656 1.656-19.75 12.438-18.124 24.094 1.656 11.688 12.438 19.812 24.124 18.156 0.532-0.094 1.062-0.188 1.562-0.312l-5.938-42.092c-0.53 0.06-1.062 0.092-1.624 0.154zM830.9 455.792c-1.656-11.624-12.344-19.718-23.968-18.156l5.938 42.216c11.624-1.686 19.686-12.436 18.03-24.06z" fill="#AAB2BC" /><path d="M490.674 306.608h42.654v98.716h-42.654zM141.462 362.982l42.234 5.97 9.188-64.968-42.25-5.97zM831.156 303.984l42.248-5.97 9.18 64.972-42.25 5.968z" fill="#434A54" /><path d="M512 341.326c-86.06 0-218.588-5.594-361.256-32.344-85.764-16.092-134.122-32.06-136.138-32.748-11.172-3.718-17.218-15.782-13.5-26.968 3.734-11.188 15.812-17.218 26.984-13.5 0.468 0.156 48.328 15.906 131.56 31.468 76.764 14.344 200.214 31.436 352.352 31.436 152.622 0 276.432-17.186 353.398-31.624 82.938-15.562 130.03-31.124 130.53-31.282 11.156-3.718 23.248 2.312 26.966 13.5s-2.344 23.25-13.498 26.968c-2.032 0.688-50.342 16.656-136.154 32.748-78.748 14.752-205.308 32.346-361.244 32.346z" fill="#656D78" /></svg>