<?xml version="1.0" standalone="no"?><!DOCTYPE svg PUBLIC "-//W3C//DTD SVG 1.1//EN" "http://www.w3.org/Graphics/SVG/1.1/DTD/svg11.dtd"><svg class="icon" width="128px" height="128.00px" viewBox="0 0 1024 1024" version="1.1" xmlns="http://www.w3.org/2000/svg"><path d="M221.102 544.56l64.014-156.308-171.808 26.25z" fill="#ED5564" /><path d="M441.44 492.688l44.75-162.872-167.388 46.75z" fill="#FFCE54" /><path d="M658.78 423.44l29.028-166.402-162.182 62.466z" fill="#ED5564" /><path d="M729.556 236.914l141.06 92.902 15.562-168.182z" fill="#FFCE54" /><path d="M1023.986 76.292c0-11.78-9.562-21.342-21.31-21.342-4.812 0-9.188 1.594-12.75 4.25-1.094 0.782-109.186 80.81-282.304 162.214-101.748 47.812-205.512 86.624-308.398 115.31-128.386 35.78-255.744 55.842-378.522 59.56v0.032C9.218 396.66 0.014 406.066 0.014 417.628c0 11.782 9.546 21.312 21.328 21.312 0.218 0 0.438 0 0.656-0.032v0.032c126.214-3.842 256.992-24.406 388.678-61.124 105.17-29.342 211.198-68.966 315.068-117.81 177.028-83.186 285.148-163.246 289.68-166.622h-0.032c5.22-3.904 8.594-10.092 8.594-17.092z" fill="#434A54" /><path d="M360.458 892.394l116.59-122.184-169.542-38.186zM514.142 777.868l61.482 157.34 109.872-128.31z" fill="#ED5564" /><path d="M143.744 828.18l126.608-111.78-165.668-52.528zM724.244 815.742l70.876 153.308 101.932-134.684z" fill="#FFCE54" /><path d="M1003.926 823.024v-0.032c-301.554-17.812-550.206-74.344-705.702-118.624-168.356-47.936-266.804-92.28-268.054-92.842v0.032a20.906 20.906 0 0 0-8.828-1.938c-11.782 0-21.328 9.562-21.328 21.344 0 8.624 5.14 16.032 12.516 19.406h-0.016c4.078 1.844 101.638 45.874 272.976 94.714 157.746 45 410.006 102.436 715.904 120.498v-0.032c0.406 0.032 0.844 0.062 1.282 0.062 11.748 0 21.31-9.562 21.31-21.344 0-11.34-8.874-20.588-20.06-21.244z" fill="#434A54" /></svg>