<?xml version="1.0" standalone="no"?><!DOCTYPE svg PUBLIC "-//W3C//DTD SVG 1.1//EN" "http://www.w3.org/Graphics/SVG/1.1/DTD/svg11.dtd"><svg class="icon" width="128px" height="128.00px" viewBox="0 0 1024 1024" version="1.1" xmlns="http://www.w3.org/2000/svg"><path d="M542.404 192.006c14.594 25.124 22.906 54.25 22.906 85.312 0 94.124-76.56 170.684-170.652 170.684s-170.654-76.56-170.654-170.684c0-94.092 76.562-170.654 170.654-170.654V64.008c-117.624 0-213.34 95.686-213.34 213.308 0 117.654 95.716 213.34 213.34 213.34s213.34-95.686 213.34-213.34c0-30.312-6.376-59.186-17.812-85.312h-47.782z" fill="#FFCE54" /><path d="M607.998 0.008h-213.34c-11.782 0-21.344 9.532-21.344 21.312v255.996c0 11.782 9.562 21.344 21.344 21.344h213.34c11.782 0 21.312-9.562 21.312-21.344V21.322A21.3 21.3 0 0 0 607.998 0.008z" fill="#656D78" /><path d="M821.306 767.996c-11.75 0-21.312-9.562-21.312-21.344V246.068l-118.498-78.998a21.27 21.27 0 0 1-9.5-17.75V42.666H352.002c-11.782 0-21.344-9.562-21.344-21.344S340.22 0.01 352.002 0.01h341.304c11.812 0 21.376 9.532 21.376 21.312v116.592l118.5 79a21.35 21.35 0 0 1 9.5 17.75v511.992c0 11.778-9.562 21.34-21.376 21.34z" fill="#434A54" /><path d="M650.684 170.664H352.002c-11.782 0-21.344 9.562-21.344 21.342v85.312c0 11.782 9.562 21.344 21.344 21.344h298.682c11.75 0 21.312-9.562 21.312-21.344V192.006c0-11.78-9.562-21.342-21.312-21.342z" fill="#8CC153" /><path d="M735.994 256.004H266.66c-11.782 0-21.344 9.532-21.344 21.312v725.332c0 11.782 9.562 21.344 21.344 21.344h469.334c11.782 0 21.312-9.562 21.312-21.344V277.318a21.3 21.3 0 0 0-21.312-21.314z" fill="#A0D468" /><path d="M245.316 618.656h511.99v255.996H245.316z" fill="#E6E9ED" /><path d="M245.316 618.656h255.996v255.996H245.316z" fill="#CCD1D9" /><path d="M650.684 426.658H352.002c-11.782 0-21.344-9.562-21.344-21.342 0-11.782 9.562-21.312 21.344-21.312h298.682c11.75 0 21.312 9.532 21.312 21.312 0 11.78-9.562 21.342-21.312 21.342zM650.684 512H352.002c-11.782 0-21.344-9.562-21.344-21.344s9.562-21.344 21.344-21.344h298.682c11.75 0 21.312 9.562 21.312 21.344S662.434 512 650.684 512z" fill="#434A54" /><path d="M735.994 256.004h-42.688c11.812 0 21.376 9.532 21.376 21.312v725.332c0 11.782-9.562 21.344-21.376 21.344h42.688c11.782 0 21.312-9.562 21.312-21.344V277.318a21.3 21.3 0 0 0-21.312-21.314z" fill="#FFFFFF" opacity=".2" /></svg>