<?xml version="1.0" standalone="no"?><!DOCTYPE svg PUBLIC "-//W3C//DTD SVG 1.1//EN" "http://www.w3.org/Graphics/SVG/1.1/DTD/svg11.dtd"><svg class="icon" width="128px" height="128.00px" viewBox="0 0 1024 1024" version="1.1" xmlns="http://www.w3.org/2000/svg"><path d="M917.988 276.13H106.034a21.366 21.366 0 0 0-21.376 21.376v128.216c0 11.782 9.562 21.342 21.376 21.342h811.954c11.782 0 21.344-9.562 21.344-21.342v-128.216c0-11.814-9.562-21.376-21.344-21.376z" fill="#656D78" /><path d="M875.238 391.752c0 236.028-224.996 453.244-363.242 453.244-138.248-0.032-363.244-217.214-363.244-453.244C148.752 155.724 311.374 0.008 511.996 0.008s363.242 155.718 363.242 391.744z" fill="#434A54" /><path d="M511.996 0.008c-7.188 0-14.282 0.218-21.376 0.624 190.684 10.624 341.902 163.53 341.902 391.12 0 224.216-203.058 431.43-341.902 451.618 7.312 1.062 14.468 1.624 21.376 1.624 138.246 0 363.242-217.214 363.242-453.244C875.238 155.726 712.618 0.008 511.996 0.008z" fill="#FFFFFF" opacity=".1" /><path d="M725.68 233.412H298.344a21.366 21.366 0 0 0-21.376 21.376V468.44a21.366 21.366 0 0 0 21.376 21.376H725.68c11.782 0 21.344-9.562 21.344-21.376V254.786c0-11.812-9.564-21.374-21.344-21.374z" fill="#5D9CEC" /><path d="M506.652 489.814h-122.842l128.186-256.402h122.844z" fill="#FFFFFF" opacity=".1" /><path d="M640.21 553.906c0 70.812-57.402 128.214-128.214 128.214s-128.186-57.402-128.186-128.214c-0.032-70.812 57.374-128.186 128.186-128.186 70.812 0 128.214 57.374 128.214 128.186z" fill="#CCD1D9" /><path d="M724.93 623.562s-21.938-8.312-76.062 45.84c-54.152 54.156-45.84 76.062-45.84 76.062l94.528 94.562 121.906-121.906-94.532-94.558z" fill="#656D78" /><path d="M533.372 553.906a21.366 21.366 0 0 1-21.376 21.376c-11.782 0-21.376-9.562-21.376-21.376 0-11.782 9.594-21.344 21.376-21.344 11.812 0 21.376 9.562 21.376 21.344zM533.372 489.814a21.366 21.366 0 0 1-21.376 21.376c-11.782 0-21.376-9.562-21.376-21.376s9.594-21.376 21.376-21.376a21.366 21.366 0 0 1 21.376 21.376zM533.372 618.032c0 11.782-9.562 21.344-21.376 21.344-11.782 0-21.376-9.562-21.376-21.344 0-11.812 9.594-21.376 21.376-21.376a21.366 21.366 0 0 1 21.376 21.376zM467.154 503.376c10.25 5.876 13.75 18.968 7.842 29.186-5.906 10.188-18.968 13.718-29.186 7.812s-13.718-18.968-7.844-29.186c5.906-10.218 19-13.718 29.188-7.812zM578.184 567.468c10.218 5.906 13.718 18.968 7.844 29.188-5.906 10.218-18.968 13.718-29.188 7.812s-13.718-18.968-7.844-29.188c5.906-10.218 18.968-13.718 29.188-7.812zM445.81 567.468c10.218-5.906 23.282-2.406 29.186 7.812 5.906 10.218 2.406 23.282-7.842 29.188-10.188 5.906-23.282 2.406-29.188-7.812-5.876-10.218-2.376-23.28 7.844-29.188zM556.84 503.376c10.218-5.906 23.282-2.406 29.188 7.812 5.906 10.218 2.376 23.28-7.844 29.186s-23.282 2.376-29.188-7.812c-5.874-10.25-2.374-23.312 7.844-29.186z" fill="#AAB2BC" /><path d="M997.176 764.59l-133.468-133.464c-8.34-8.344-21.872-8.344-30.214 0L610.59 854.058a21.26 21.26 0 0 0-6.282 15.094c0 5.688 2.25 11.124 6.282 15.124l133.464 133.464c4.156 4.156 9.624 6.25 15.094 6.25s10.938-2.094 15.124-6.25l222.902-222.934c8.346-8.342 8.346-21.872 0.002-30.216z" fill="#AC92EB" /><path d="M420.998 745.464s8.312-21.906-45.842-76.062c-54.156-54.152-76.06-45.84-76.06-45.84l-94.562 94.558 121.904 121.906 94.56-94.562z" fill="#656D78" /><path d="M190.596 631.032c-8.344-8.344-21.876-8.344-30.218 0l-133.56 133.558c-4 4-6.25 9.438-6.25 15.124a21.36 21.36 0 0 0 6.25 15.094l222.932 222.934c4 4 9.438 6.25 15.094 6.25 5.688 0 11.124-2.25 15.124-6.25l133.53-133.558c8.342-8.344 8.342-21.876 0.032-30.218L190.596 631.032z" fill="#AC92EB" /><path d="M255.68 696.108l90.654 90.654-163.78 163.778-90.652-90.654zM931.082 860.996l-90.652 90.652-163.75-163.776 90.656-90.658z" fill="#FFFFFF" opacity=".1" /></svg>