<?xml version="1.0" standalone="no"?><!DOCTYPE svg PUBLIC "-//W3C//DTD SVG 1.1//EN" "http://www.w3.org/Graphics/SVG/1.1/DTD/svg11.dtd"><svg class="icon" width="128px" height="128.00px" viewBox="0 0 1024 1024" version="1.1" xmlns="http://www.w3.org/2000/svg"><path d="M789.336 384.004c-11.782 0-21.344-9.562-21.344-21.344v-63.998c0-11.782 9.562-21.312 21.344-21.312s21.342 9.532 21.342 21.312v63.998c0 11.782-9.56 21.344-21.342 21.344zM362.692 853.334c-11.782 0-21.344-9.562-21.344-21.344V298.662c0-11.782 9.562-21.312 21.344-21.312s21.312 9.532 21.312 21.312v533.328c0 11.782-9.532 21.344-21.312 21.344z" fill="#434A54" /><path d="M1002.672 341.348H746.68c-11.782 0-21.344 9.53-21.344 21.312v469.33c0 11.782 9.562 21.344 21.344 21.344h255.992c11.782 0 21.312-9.562 21.312-21.344V362.66a21.298 21.298 0 0 0-21.312-21.312z" fill="#FFCE54" /><path d="M725.336 427.126h298.648v170.65H725.336z" fill="#5D9CEC" /><path d="M533.312 853.334c-9.75 0-18.594-6.782-20.782-16.718-2.562-11.5 4.688-22.904 16.188-25.436 26.31-5.876 43.28-17.812 51.872-36.532 20.688-45-9.874-120.59-23.404-145.934-5.532-10.406-1.624-23.312 8.782-28.876 10.404-5.56 23.31-1.624 28.874 8.782 2.376 4.468 58.188 110.592 24.532 183.84-14.344 31.248-41.75 51.53-81.402 60.342-1.566 0.344-3.096 0.532-4.66 0.532z" fill="#434A54" /><path d="M490.688 639.996c-11.782 0-21.342-9.562-21.342-21.344v-42.654c0-11.782 9.56-21.344 21.342-21.344S512 564.216 512 575.998v42.654c0 11.782-9.532 21.344-21.312 21.344z" fill="#DA4453" /><path d="M192.042 853.334c-1.532 0-3.094-0.188-4.656-0.532-39.656-8.812-67.03-29.094-81.374-60.342-33.688-73.248 22.124-179.372 24.532-183.84 5.53-10.406 18.466-14.342 28.874-8.782 10.376 5.562 14.312 18.468 8.782 28.844-13.532 25.438-44.06 101.214-23.406 146.028 8.624 18.688 25.594 30.624 51.876 36.468 11.498 2.532 18.748 13.936 16.186 25.436a21.376 21.376 0 0 1-20.814 16.72z" fill="#434A54" /><path d="M234.696 639.996c-11.782 0-21.344-9.562-21.344-21.344v-42.654c0-11.782 9.562-21.344 21.344-21.344s21.312 9.562 21.312 21.344v42.654c0 11.782-9.532 21.344-21.312 21.344z" fill="#DA4453" /><path d="M938.676 703.994h-127.998c-11.78 0-21.342-9.562-21.342-21.344 0-11.78 9.562-21.31 21.342-21.31h127.998c11.78 0 21.31 9.532 21.31 21.31 0 11.782-9.53 21.344-21.31 21.344zM938.676 789.336h-127.998c-11.78 0-21.342-9.562-21.342-21.344s9.562-21.344 21.342-21.344h127.998c11.78 0 21.31 9.562 21.31 21.344s-9.53 21.344-21.31 21.344z" fill="#F6BB42" /><path d="M831.99 320.006H128.012c-70.56 0-127.996-57.436-127.996-127.998 0-11.78 9.56-21.342 21.342-21.342h63.998c11.782 0 21.344 9.562 21.344 21.342 0 11.75 9.562 21.342 21.312 21.342h703.978c11.81 0 21.342 9.532 21.342 21.312v63.998c0 11.784-9.532 21.346-21.342 21.346z" fill="#ED5564" /><path d="M490.688 469.344c-35.28 0-63.998 28.686-63.998 64 0 35.28 28.718 63.996 63.998 63.996 35.282 0 63.998-28.716 63.998-63.996 0-35.312-28.718-64-63.998-64zM234.696 469.344c-35.28 0-63.998 28.686-63.998 64 0 35.28 28.718 63.996 63.998 63.996s63.998-28.716 63.998-63.996c0-35.312-28.72-64-63.998-64z" fill="#ED5564" /><path d="M533.344 597.34h-85.342a21.3 21.3 0 0 0-21.312 21.312v213.338c0 11.782 9.532 21.344 21.312 21.344h85.342c11.78 0 21.342-9.562 21.342-21.344V618.652c0-11.78-9.562-21.312-21.342-21.312zM277.35 597.34h-85.34a21.3 21.3 0 0 0-21.312 21.312v213.338c0 11.782 9.532 21.344 21.312 21.344h85.34c11.782 0 21.344-9.562 21.344-21.344V618.652c0-11.78-9.564-21.312-21.344-21.312z" fill="#FFCE54" /><path d="M882.676 597.308H802.68l63.996-170.65h79.966z" fill="#FFFFFF" opacity=".1" /></svg>