<?xml version="1.0" standalone="no"?><!DOCTYPE svg PUBLIC "-//W3C//DTD SVG 1.1//EN" "http://www.w3.org/Graphics/SVG/1.1/DTD/svg11.dtd"><svg class="icon" width="128px" height="128.00px" viewBox="0 0 1024 1024" version="1.1" xmlns="http://www.w3.org/2000/svg"><path d="M917.298 341.524c-11.782 0-21.312-9.546-21.312-21.328v-42.67c0-11.78 9.532-21.328 21.312-21.328 11.812 0 21.344 9.546 21.344 21.328v42.67a21.318 21.318 0 0 1-21.344 21.328z" fill="#ED5564" /><path d="M576 725.336c-11.782 0-21.342-9.56-21.342-21.342s9.56-21.312 21.342-21.312c103.84 0 164.398-6.718 202.524-22.406 37.968-15.624 53.466-40.06 53.466-84.276 0-11.782 9.562-21.312 21.312-21.312 11.808 0 21.34 9.532 21.34 21.312 0 61.122-26.122 101.588-79.87 123.712-44.154 18.188-107.558 25.624-218.772 25.624zM853.302 256.012c-11.75 0-21.312-9.546-21.312-21.328V106.69c0-6.484 2.938-12.61 8-16.672l106.652-85.324c9.216-7.36 22.624-5.876 29.998 3.328 7.344 9.202 5.876 22.624-3.344 29.984L874.642 116.94v117.744a21.316 21.316 0 0 1-21.34 21.328z" fill="#434A54" /><path d="M895.986 213.53h-85.338c-11.782 0-21.344 9.562-21.344 21.342v320.002c0 35.282 28.718 63.996 63.998 63.996 35.308 0 63.996-28.714 63.996-63.996V234.872c0-11.78-9.53-21.342-21.312-21.342z" fill="#FFCE54" /><path d="M789.304 554.876c0 35.282 28.718 63.996 63.998 63.996 35.308 0 63.996-28.714 63.996-63.996h-127.994z" fill="#F6BB42" /><path d="M362.678 725.336h-85.34c-11.75 0-21.312-9.56-21.312-21.342s9.562-21.312 21.312-21.312h85.34c11.782 0 21.344 9.532 21.344 21.312s-9.564 21.342-21.344 21.342z" fill="#434A54" /><path d="M170.686 384.006c-11.78 0-21.342-9.546-21.342-21.328v-85.34c0-11.78 9.562-21.328 21.342-21.328 11.782 0 21.344 9.546 21.344 21.328v85.34c0 11.782-9.564 21.328-21.344 21.328zM469.33 384.006c-11.75 0-21.31-9.546-21.31-21.328v-85.34c0-11.78 9.562-21.328 21.31-21.328 11.812 0 21.344 9.546 21.344 21.328v85.34c0 11.782-9.532 21.328-21.344 21.328z" fill="#AAB2BC" /><path d="M170.686 341.336c-70.56 0-127.996 57.42-127.996 127.994v533.308c0 11.812 9.562 21.344 21.344 21.344h213.304a21.312 21.312 0 0 0 21.342-21.344V469.332c0-70.576-57.404-127.996-127.994-127.996z" fill="#ED5564" /><path d="M213.34 298.682H128.032c-11.78 0-21.342-9.562-21.342-21.344 0-11.78 9.562-21.328 21.342-21.328h85.31a21.318 21.318 0 0 1 21.342 21.328c-0.002 11.782-9.53 21.344-21.344 21.344z" fill="#CCD1D9" /><path d="M469.33 341.336c-70.56 0-127.964 57.42-127.964 127.994v533.308c0 11.812 9.532 21.344 21.312 21.344H576c11.782 0 21.31-9.532 21.31-21.344V469.332c0-70.576-57.386-127.996-127.98-127.996z" fill="#5D9CEC" /><path d="M469.33 341.336c-7.25 0-14.374 0.624-21.31 1.796 60.434 10.186 106.638 62.888 106.638 126.198v533.308a21.31 21.31 0 0 1-21.328 21.344H576c11.782 0 21.31-9.532 21.31-21.344V469.332c0-70.576-57.386-127.996-127.98-127.996zM170.686 341.336c-7.25 0-14.374 0.624-21.342 1.796 60.466 10.186 106.684 62.888 106.684 126.198v533.308c0 11.812-9.562 21.344-21.344 21.344h42.686c11.782 0 21.312-9.532 21.312-21.344V469.332c-0.002-70.576-57.406-127.996-127.996-127.996z" fill="#FFFFFF" opacity=".2" /><path d="M512.016 298.682h-85.34c-11.782 0-21.344-9.562-21.344-21.344 0-11.78 9.562-21.328 21.344-21.328h85.34c11.782 0 21.314 9.546 21.314 21.328s-9.532 21.344-21.314 21.344z" fill="#CCD1D9" /></svg>