<?xml version="1.0" standalone="no"?><!DOCTYPE svg PUBLIC "-//W3C//DTD SVG 1.1//EN" "http://www.w3.org/Graphics/SVG/1.1/DTD/svg11.dtd"><svg class="icon" width="128px" height="128.00px" viewBox="0 0 1024 1024" version="1.1" xmlns="http://www.w3.org/2000/svg"><path d="M426.674 214.672h170.634v212.65h-170.634zM232.838 192.956L128.014 938.666h191.992l63.372-701.212zM790.866 192.956l104.81 745.71h-191.994l-63.374-701.212z" fill="#D94452" /><path d="M933.362 469.666c2.906 23.28-13.906 42.342-37.376 42.342H128.014c-23.468 0-40.282-19.062-37.376-42.342l10.75-43.342c2.906-23.28 24.484-42.312 47.952-42.312h725.336c23.438 0 45.03 19.032 47.936 42.312l10.75 43.342zM981.296 256.016c0 23.468-19.188 42.656-42.626 42.656H85.342c-23.468 0-42.654-19.188-42.654-42.656v-85.34c0-23.468 19.186-42.656 42.654-42.656h853.33c23.438 0 42.626 19.188 42.626 42.656v85.34z" fill="#EC5564" /><path d="M1023.982 213.33S725.306 224.018 512 224.018c-213.322 0-511.982-10.688-511.982-10.688l42.67-127.996S298.29 96.022 512 96.022s469.296-10.688 469.296-10.688l42.686 127.996z" fill="#646C77" /><path d="M28.454 128.02S298.29 138.676 512 138.676s483.546-10.656 483.546-10.656l-14.25-42.686S725.71 96.022 512 96.022 42.688 85.334 42.688 85.334L28.454 128.02z" fill="#424953" /></svg>