<?xml version="1.0" standalone="no"?><!DOCTYPE svg PUBLIC "-//W3C//DTD SVG 1.1//EN" "http://www.w3.org/Graphics/SVG/1.1/DTD/svg11.dtd"><svg class="icon" width="128px" height="128.00px" viewBox="0 0 1024 1024" version="1.1" xmlns="http://www.w3.org/2000/svg"><path d="M889.776 6.25c-8.342-8.312-21.842-8.312-30.186 0l-147.994 148.026 30.154 30.156 147.994-147.996h0.032c8.312-8.342 8.312-21.842 0-30.186z" fill="#967ADC" /><path d="M889.744 96.748L799.31 6.314s0-0.032-0.032-0.032c-8.312-8.312-21.812-8.312-30.154 0a21.33 21.33 0 0 0 0 30.186l90.434 90.404v0.032a21.334 21.334 0 0 0 30.186 0c8.312-8.314 8.312-21.844 0-30.156z" fill="#AC92EB" /><path d="M341.326 793.334v209.338c0 11.78 9.532 21.31 21.312 21.31 11.78 0 21.342-9.532 21.342-21.31V793.334h-42.654z" fill="#D770AD" /><path d="M362.638 341.334c-129.59 0-234.648 105.058-234.648 234.664 0 129.62 105.058 234.678 234.648 234.678 129.62 0 234.68-105.058 234.68-234.678 0-129.606-105.06-234.664-234.68-234.664z m135.778 370.44c-36.28 36.25-84.498 56.218-135.776 56.218-51.28 0-99.498-19.968-135.746-56.218-36.28-36.28-56.248-84.496-56.248-135.776 0-51.294 19.968-99.512 56.248-135.762 36.25-36.28 84.466-56.248 135.746-56.248 51.28 0 99.496 19.968 135.776 56.248 36.25 36.25 56.216 84.466 56.216 135.762-0.002 51.28-19.968 99.496-56.216 135.776zM426.604 959.984h-127.902c-11.782 0-21.344-9.532-21.344-21.312s9.562-21.342 21.344-21.342h127.902c11.782 0 21.344 9.56 21.344 21.342s-9.562 21.312-21.344 21.312z" fill="#EC87C0" /><path d="M738.876 157.09c-45.812-45.81-105.874-68.716-165.934-68.716S452.82 111.28 407.01 157.09c-91.622 91.652-91.622 240.242 0 331.864 40.936 40.938 93.216 63.576 146.712 67.952a191.63 191.63 0 0 0-9.656-44.014c-40.31-6.062-77.528-24.718-106.87-54.092-36.28-36.282-56.248-84.466-56.248-135.778 0-51.28 19.968-99.496 56.248-135.746 36.25-36.25 84.466-56.25 135.746-56.25 51.282 0 99.496 20 135.746 56.25 36.28 36.25 56.248 84.466 56.248 135.746 0 51.31-19.968 99.496-56.216 135.778-32.438 32.404-74.436 51.81-119.622 55.56a231.434 231.434 0 0 1 7.406 42.17c51.966-5.218 102.558-27.732 142.372-67.576 91.622-91.622 91.622-240.212 0-331.864z" fill="#AC92EB" /></svg>