<?xml version="1.0" standalone="no"?><!DOCTYPE svg PUBLIC "-//W3C//DTD SVG 1.1//EN" "http://www.w3.org/Graphics/SVG/1.1/DTD/svg11.dtd"><svg class="icon" width="128px" height="128.00px" viewBox="0 0 1024 1024" version="1.1" xmlns="http://www.w3.org/2000/svg"><path d="M341.350333 793.302451V1002.640042c0 11.779977 9.561981 21.341958 21.343959 21.341958 11.779977 0 21.311958-9.561981 21.311958-21.341958V793.302451h-42.655917z" fill="#967ADC" /><path d="M741.741551 184.45164l-30.185941-30.187941 146.151715-146.119715 30.153941 30.153941z" fill="#4A89DC" /><path d="M895.98525 21.329958c0-11.779977-9.531981-21.309958-21.309958-21.309958h-84.685835v0.032c-0.218-0.032-0.437999-0.032-0.655999-0.032-11.781977 0-21.341958 9.531981-21.341958 21.309958 0 11.781977 9.559981 21.343958 21.341958 21.343959 0.218 0 0.437999-0.032 0.655999-0.032v0.032h63.343876v63.341876h0.032c0 0.218-0.032 0.437999-0.032 0.655999 0 11.781977 9.559981 21.343958 21.341959 21.343958 11.779977 0 21.309958-9.561981 21.309958-21.343958 0-0.218-0.032-0.437999-0.032-0.655999h0.032V21.329958z" fill="#5D9CEC" /><path d="M362.694292 341.319333c-129.621747 0-234.679542 105.057795-234.679542 234.679542 0 129.587747 105.057795 234.645542 234.679542 234.645542 129.587747 0 234.647542-105.057795 234.647541-234.645542 0-129.621747-105.059795-234.679542-234.647541-234.679542z m135.743734 370.423277c-36.249929 36.249929-84.465835 56.24989-135.745734 56.24989-51.3119 0-99.497806-19.999961-135.777735-56.24989-36.249929-36.247929-56.21589-84.463835-56.21589-135.743735 0-51.3099 19.967961-99.495806 56.21589-135.777735 36.279929-36.247929 84.465835-56.21589 135.777735-56.21589 51.2799 0 99.495806 19.967961 135.745734 56.21589 36.249929 36.281929 56.24789 84.465835 56.247891 135.777735 0 51.2799-19.997961 99.495806-56.247891 135.743735zM426.628167 959.984125h-127.90175c-11.781977 0-21.343958-9.561981-21.343959-21.343958s9.561981-21.341958 21.343959-21.341959h127.90175c11.781977 0 21.343958 9.559981 21.343958 21.341959s-9.561981 21.343958-21.343958 21.343958z" fill="#AC92EB" /><path d="M738.899557 157.107693c-45.811911-45.84191-105.873793-68.747866-165.933676-68.747866s-120.089765 22.905955-165.931676 68.747866c-91.621821 91.621821-91.621821 240.209531 0 331.831352 40.93592 40.93792 93.215818 63.559876 146.711713 67.935867a191.657626 191.657626 0 0 0-9.655981-43.997914c-40.309921-6.061988-77.527849-24.717952-106.869791-54.091894-36.279929-36.249929-56.24789-84.465835-56.24789-135.745735 0-51.3099 19.967961-99.527806 56.24789-135.775735 36.249929-36.249929 84.465835-56.21789 135.745735-56.21789 51.2819 0 99.495806 19.967961 135.777735 56.21789 36.247929 36.247929 56.21589 84.463835 56.21589 135.775735 0 51.2799-19.967961 99.495806-56.21589 135.745735-32.437937 32.435937-74.403855 51.809899-119.589767 55.559891a234.079543 234.079543 0 0 1 7.375986 42.153918c51.997898-5.21799 102.5578-27.715946 142.371722-67.559868 91.649821-91.621821 91.649821-240.211531-0.002-331.831352z" fill="#5D9CEC" /></svg>