<?xml version="1.0" standalone="no"?><!DOCTYPE svg PUBLIC "-//W3C//DTD SVG 1.1//EN" "http://www.w3.org/Graphics/SVG/1.1/DTD/svg11.dtd"><svg class="icon" width="128px" height="128.00px" viewBox="0 0 1024 1024" version="1.1" xmlns="http://www.w3.org/2000/svg"><path d="M920.836 815.152l-3.656-1.032c-52.968-14.25-70.872-27.906-94.496-36.876-83.688-31.906-105.438-54.876-111-65.718-0.188-0.376-0.376-0.812-0.562-1.218l-0.688-97.184L512 610.876l-198.434 2.25-0.688 97.184c-0.188 0.406-0.376 0.844-0.562 1.218-5.562 10.844-27.312 33.812-110.998 65.718-23.592 8.968-41.53 22.624-94.498 36.876l-3.656 1.032c-48.218 15.968-80.686 60.688-80.686 111.184v97.656h979.046v-97.656c0-50.498-32.47-95.216-80.688-111.186z" fill="#434A54" /><path d="M511.876 746.464l-120.75 101.75 122.498 175.778 112.22-184.09z" fill="#CCD1D9" /><path d="M313.096 640.156l96.53 228.84 103.998-77.532 107.314 80 89.684-233.496z" fill="#E6E9ED" /><path d="M787.372 425.814c0 178.904-170.558 343.556-275.372 343.556-104.81 0-275.37-164.652-275.37-343.556C236.63 246.88 359.94 128.82 512 128.82c152.058 0 275.372 118.06 275.372 296.994z" fill="#EAC6BB" /><path d="M513.624 1023.992L313.096 640.156l-55.718 137.778 65.188 50.03-11.688 48.064zM513.624 1023.992l196.998-386.024 58.812 139.966-65.188 50.03 11.688 48.064z" fill="#656D78" /><path d="M736.308 63.884C674.122 22.696 594.438 0.008 512 0.008c-82.436 0-162.122 22.688-224.308 63.876-62.062 41.092-97.624 95.186-97.624 148.404 0 52.28 37.75 100.092 106.248 134.59 59.968 30.218 138.56 47.532 215.684 47.532s155.714-17.312 215.684-47.532c68.5-34.5 106.25-82.31 106.25-134.59 0-53.218-35.562-107.312-97.626-148.404z" fill="#DA4453" /><path d="M769.872 330.348H257.378c-6.562 0-12.75-3-16.812-8.156a21.3 21.3 0 0 1-3.938-18.218c1.25-5.25 33.812-128.122 275.37-128.122 241.122 0 277.058 122.342 278.496 127.56a21.372 21.372 0 0 1-3.688 18.562 21.322 21.322 0 0 1-16.934 8.374z" fill="#ED5564" /><path d="M790.122 302.254a21.37 21.37 0 0 0-20.25-14.624H257.378a21.342 21.342 0 0 0-20.25 14.624 21.226 21.226 0 0 0 7.438 23.812l85.404 64.062a21.34 21.34 0 0 0 12.812 4.282h341.65c4.624 0 9.124-1.5 12.812-4.282l85.438-64.062a21.32 21.32 0 0 0 7.44-23.812z" fill="#656D78" /><path d="M556.312 116.82c0 23.562-19.124 42.688-42.688 42.688-23.594 0-42.718-19.124-42.718-42.688 0-23.592 19.124-42.716 42.718-42.716 23.564-0.002 42.688 19.122 42.688 42.716z" fill="#FFCE54" /><path d="M534.968 869.558c0 11.812-9.562 21.376-21.344 21.376a21.366 21.366 0 0 1-21.376-21.376c0-11.782 9.562-21.344 21.376-21.344 11.782 0 21.344 9.564 21.344 21.344z" fill="#656D78" /><path d="M340.94 587c-10.656 20.718-18.062 41.468-18.062 59.156 0 62.996 150.31 164.84 189.122 165.496 38.812-0.656 189.122-102.5 189.122-165.496 0-18.094-7.75-39.344-18.812-60.5-27.596-52.844-313.87-51.968-341.37 1.344z" fill="#E9573F" /><path d="M668.122 501.908c30.062-9.218 56.876 12.342 22.312 31-69.746 37.624-122.246-103.874-181.308-29.936-59.062 73.936 35.062 148.468 119.312 140.718 229.246-21.062 132.278-178.53 88.84-177.186-33.188 0.996-49.156 35.404-49.156 35.404z" fill="#FC6E51" /><path d="M355.878 501.908c-30.062-9.218-56.874 12.342-22.312 31 69.75 37.624 122.248-103.874 181.31-29.936 59.062 73.936-35.062 148.468-119.31 140.718-229.246-21.062-132.28-178.53-88.812-177.186 33.186 0.996 49.124 35.404 49.124 35.404z" fill="#FC6E51" /></svg>