<?xml version="1.0" standalone="no"?><!DOCTYPE svg PUBLIC "-//W3C//DTD SVG 1.1//EN" "http://www.w3.org/Graphics/SVG/1.1/DTD/svg11.dtd"><svg class="icon" width="128px" height="128.00px" viewBox="0 0 1024 1024" version="1.1" xmlns="http://www.w3.org/2000/svg"><path d="M1000.146 309.942a21.428 21.428 0 0 0-13.218-10.516l-219.464-59.858C758.962 106.042 647.624 0.012 512 0.012c-135.636 0-246.978 106.03-255.478 239.556L37.058 299.426c-5.656 1.546-10.422 5.344-13.188 10.516s-3.296 11.25-1.438 16.812L107.76 582.748a21.352 21.352 0 0 0 15.344 14 21.284 21.284 0 0 0 19.984-5.656l60.92-60.936 53.092 159.246a21.38 21.38 0 0 0 13.344 13.466 21.412 21.412 0 0 0 18.78-2.5l44.764-30.03c12.718 22.532 34.704 60.56 58.672 98.278 71.138 111.938 99.404 127.376 119.34 127.376s48.184-15.438 119.34-127.376c23.968-37.716 45.966-75.746 58.686-98.278l44.748 30.03a21.408 21.408 0 0 0 18.782 2.5c6.312-2.188 11.25-7.124 13.344-13.466l53.094-159.246 60.904 60.936a21.34 21.34 0 0 0 20 5.656c7.188-1.688 13-7 15.344-14l85.31-255.994c1.876-5.562 1.344-11.64-1.406-16.812z" fill="#5D9CEC" /><path d="M256.522 282.24C265.022 148.71 376.364 42.682 512 42.682c135.622 0 246.962 106.03 255.462 239.558v-42.672C758.962 106.042 647.624 0.012 512 0.012c-135.636 0-246.978 106.03-255.478 239.556v42.672z" fill="#FFFFFF" opacity=".2" /><path d="M995.022 303.676l-78.78 236.402c-2.344 7.014-8.156 12.294-15.344 14.014s-14.75-0.468-20-5.656l-60.904-60.936-53.094 159.246c-2.094 6.312-7.032 11.282-13.344 13.438s-13.25 1.25-18.782-2.468l-44.748-30.032c-12.718 22.5-34.716 60.562-58.686 98.28-71.156 111.936-99.404 127.342-119.34 127.342s-48.202-15.406-119.34-127.342c-23.968-37.716-45.954-75.78-58.672-98.28l-44.764 30.032a21.3 21.3 0 0 1-18.78 2.468 21.332 21.332 0 0 1-13.344-13.438l-53.092-159.246-60.92 60.936c-5.218 5.188-12.78 7.376-19.984 5.656a21.4 21.4 0 0 1-15.344-14.014L28.964 303.676a21.32 21.32 0 0 0-6.532 23.078L107.76 582.748a21.352 21.352 0 0 0 15.344 14 21.284 21.284 0 0 0 19.984-5.656l60.92-60.936 53.092 159.246a21.38 21.38 0 0 0 13.344 13.466 21.412 21.412 0 0 0 18.78-2.5l44.764-30.03c12.718 22.532 34.704 60.56 58.672 98.278 71.138 111.938 99.404 127.376 119.34 127.376s48.184-15.438 119.34-127.376c23.968-37.716 45.966-75.746 58.686-98.278l44.748 30.03a21.408 21.408 0 0 0 18.782 2.5c6.312-2.188 11.25-7.124 13.344-13.466l53.094-159.246 60.904 60.936a21.34 21.34 0 0 0 20 5.656c7.188-1.688 13-7 15.344-14l85.31-255.994c1.876-5.562 1.344-11.64-1.406-16.812a21.682 21.682 0 0 0-5.124-6.266z" opacity=".1" /><path d="M469.332 213.336c0 11.78-9.546 21.342-21.328 21.342s-21.342-9.562-21.342-21.342c0-11.782 9.562-21.328 21.342-21.328s21.328 9.546 21.328 21.328zM597.342 213.336c0 11.78-9.562 21.342-21.344 21.342s-21.344-9.562-21.344-21.342c0-11.782 9.562-21.328 21.344-21.328s21.344 9.546 21.344 21.328z" fill="#434A54" /><path d="M128.01 810.68c-11.782 0-21.344-9.562-21.344-21.376v-85.31c0-11.78 9.562-21.31 21.344-21.31 11.78 0 21.328 9.532 21.328 21.31v85.31c0 11.814-9.546 21.376-21.328 21.376zM895.992 810.68c-11.782 0-21.344-9.562-21.344-21.376v-85.31c0-11.78 9.562-21.31 21.344-21.31s21.344 9.532 21.344 21.31v85.31c0 11.814-9.562 21.376-21.344 21.376zM298.662 1023.988c-11.782 0-21.328-9.562-21.328-21.312v-170.682c0-11.784 9.546-21.314 21.328-21.314s21.344 9.532 21.344 21.314v170.682c0 11.75-9.562 21.312-21.344 21.312zM725.338 1023.988c-11.782 0-21.344-9.562-21.344-21.312v-170.682c0-11.784 9.562-21.314 21.344-21.314s21.312 9.532 21.312 21.314v170.682c0 11.75-9.53 21.312-21.312 21.312z" fill="#CCD1D9" /><path d="M566.03 344.582c-9.968-6.25-23.154-3.204-29.388 6.782-0.078 0.11-7.828 11.312-24.64 11.312-15.108 0-22.796-8.906-24.546-11.218-3.766-6.062-10.468-10.124-18.124-10.124-11.782 0-21.328 9.562-21.328 21.344 0 4.14 1.204 7.984 3.234 11.266l-0.062 0.032c7.282 11.656 28.28 31.358 60.826 31.358 32.53 0 53.528-19.702 60.81-31.358 6.248-9.988 3.218-23.16-6.782-29.394z" fill="#434A54" /></svg>