<?xml version="1.0" standalone="no"?><!DOCTYPE svg PUBLIC "-//W3C//DTD SVG 1.1//EN" "http://www.w3.org/Graphics/SVG/1.1/DTD/svg11.dtd"><svg class="icon" width="128px" height="128.00px" viewBox="0 0 1024 1024" version="1.1" xmlns="http://www.w3.org/2000/svg"><path d="M786.334 96.608c-30.498-57.03-67.058-85.934-108.622-85.934-47.842 0-97.528 39.092-147.712 116.246a729.266 729.266 0 0 0-18 29.28 692.812 692.812 0 0 0-17.968-29.28C443.846 49.766 394.16 10.674 346.288 10.674c-41.56 0-78.09 28.904-108.558 85.934-22.812 42.686-14.594 73.342-3.688 91.53 19.656 32.78 63.592 54.874 134.308 67.496 54.31 9.718 111.778 11.156 141.214 11.156H514.47c29.404 0 86.874-1.438 141.212-11.156 70.718-12.624 114.652-34.716 134.308-67.496 10.906-18.188 19.126-48.846-3.656-91.53z" fill="#E6E9ED" /><path d="M959.986 380.192c0-23.592-19.094-42.654-42.656-42.654H106.702c-23.562 0-42.686 19.062-42.686 42.654v590.48c0 23.562 19.124 42.654 42.686 42.654h810.628c23.562 0 42.656-19.092 42.656-42.654v-590.48z" fill="#967ADC" /><path d="M1023.982 416.036c0 23.56-19.094 42.624-42.654 42.624H42.704c-23.562 0-42.686-19.062-42.686-42.624v-170.682c0-23.562 19.124-42.688 42.686-42.688h938.624c23.56 0 42.654 19.124 42.654 42.688v170.682z" fill="#AC92EB" /><path d="M405.348 202.666h213.338v255.992H405.348z" fill="#F5F7FA" /><path d="M64.016 500.876l895.97 81.464v-122.306H64.016z" opacity=".1" /><path d="M600.904 535.094c-34.844 0-66.31 14.31-88.904 37.374-22.592-23.062-54.06-37.374-88.872-37.374-68.716 0-124.432 55.714-124.432 124.432C298.696 801.74 512 926.204 512 926.204s213.338-124.462 213.338-266.678c0-68.718-55.718-124.432-124.434-124.432z" fill="#F5F7FA" /><path d="M600.904 535.094a123.1 123.1 0 0 0-21.344 1.844c58.56 10.092 103.122 61.152 103.122 122.588 0 114.374-137.996 217.244-191.994 253.148 13.156 8.75 21.312 13.53 21.312 13.53s213.338-124.462 213.338-266.678c0-68.718-55.718-124.432-124.434-124.432z" opacity=".1" /></svg>