<?xml version="1.0" standalone="no"?><!DOCTYPE svg PUBLIC "-//W3C//DTD SVG 1.1//EN" "http://www.w3.org/Graphics/SVG/1.1/DTD/svg11.dtd"><svg class="icon" width="128px" height="128.00px" viewBox="0 0 1024 1024" version="1.1" xmlns="http://www.w3.org/2000/svg"><path d="M786.308 117.948c-30.5-57.032-67.032-85.936-108.594-85.936-47.842 0-97.528 39.092-147.73 116.246A694.836 694.836 0 0 0 512 177.54a681.104 681.104 0 0 0-17.998-29.282c-50.172-77.154-99.874-116.246-147.716-116.246-41.56 0-78.108 28.904-108.592 85.936-22.794 42.686-14.576 73.342-3.67 91.53 19.654 32.78 63.592 54.874 134.324 67.498 54.31 9.718 111.78 11.156 141.2 11.156h4.908c29.422 0 86.89-1.438 141.202-11.156 70.716-12.624 114.654-34.718 134.342-67.498 10.87-18.188 19.12-48.846-3.692-91.53z" fill="#DA4453" /><path d="M959.992 444.19c0-23.562-19.124-42.656-42.688-42.656H106.682c-23.562 0-42.67 19.094-42.67 42.656v505.144c0 23.562 19.108 42.654 42.67 42.654h810.624c23.562 0 42.688-19.092 42.688-42.654V444.19z" fill="#8CC153" /><path d="M1023.988 480.032c0 23.562-19.124 42.656-42.686 42.656H42.684c-23.562 0-42.672-19.094-42.672-42.656V266.694c0-23.562 19.11-42.688 42.672-42.688h938.62c23.562 0 42.686 19.124 42.686 42.688v213.338z" fill="#A0D468" /><path d="M405.332 224.006h213.356v298.65H405.332z" fill="#ED5564" /><path d="M64.012 564.874l895.98 81.466v-122.308H64.012z" fill="#79A83D" /><path d="M405.332 522.656h213.356v469.332H405.332z" fill="#DA4453" /><path d="M405.332 595.904l213.356 19.406v-91.278H405.332z" fill="#C63046" /></svg>