<?xml version="1.0" standalone="no"?><!DOCTYPE svg PUBLIC "-//W3C//DTD SVG 1.1//EN" "http://www.w3.org/Graphics/SVG/1.1/DTD/svg11.dtd"><svg class="icon" width="128px" height="128.00px" viewBox="0 0 1024 1024" version="1.1" xmlns="http://www.w3.org/2000/svg"><path d="M936.122 388.538c-10.75-75.656-65-77.5-65-77.5l-359.116 36.688L152.856 311.04s-54.28 1.844-64.966 77.5c-10.718 75.624 20 97.466 20 97.466l212.434 99.998-17.5 167.464-69.966 69.998s-141.216 33.75-97.466 147.466c22.656 58.966 190.182 52.874 190.182 52.874l186.434-107.56 186.402 107.56s167.528 6.094 190.214-52.874c43.688-113.716-97.496-147.466-97.496-147.466l-70-69.998-17.5-167.464 212.496-99.998c-0.002-0.002 30.684-21.844 19.998-97.468z" fill="#F4BE8E" /><path d="M746.624 234.666c0 129.592-105.06 234.652-234.62 234.652-129.622 0-234.682-105.06-234.682-234.652 0-129.59 105.06-234.65 234.682-234.65 129.56 0 234.62 105.06 234.62 234.65z" fill="#FFD2A6" /><path d="M152.856 311.04s-54.28 1.844-64.966 77.5c-10.718 75.624 20 97.466 20 97.466l96.874 45.594c18.062-24.812 39.936-67.906 15.188-110.06-24.344-41.5-4.5-80.092 12.688-102.342l-79.784-8.158zM325.634 899.088c-61.498-9.81-84.624-46.56-93.184-75.53-7.938 2-139.498 37.062-97.06 147.374 22.656 58.966 190.182 52.874 190.182 52.874l89.436-51.624c-5.876-27.032-25.938-62.97-89.374-73.094zM871.122 311.04s54.25 1.844 64.968 77.5c10.718 75.624-19.968 97.466-19.968 97.466L819.218 531.6c-18.094-24.812-39.904-67.906-15.218-110.06 24.376-41.5 4.532-80.092-12.686-102.342l79.808-8.158zM698.376 899.088c61.5-9.81 84.562-46.56 93.124-75.53 7.936 2 139.496 37.062 97.122 147.374-22.688 58.966-190.246 52.874-190.246 52.874l-89.434-51.624c5.906-27.032 25.934-62.97 89.434-73.094z" fill="#FC6E51" /><path d="M533.316 575.97c0 11.812-9.562 21.344-21.312 21.344-11.812 0-21.374-9.532-21.374-21.344 0-11.75 9.562-21.31 21.374-21.31 11.75 0 21.312 9.56 21.312 21.31z" fill="#ED5564" /><path d="M533.316 661.312c0 11.782-9.562 21.344-21.312 21.344-11.812 0-21.374-9.562-21.374-21.344s9.562-21.344 21.374-21.344c11.75 0 21.312 9.564 21.312 21.344z" fill="#48CFAD" /><path d="M533.316 746.654c0 11.782-9.562 21.312-21.312 21.312-11.812 0-21.374-9.532-21.374-21.312s9.562-21.342 21.374-21.342c11.75 0 21.312 9.562 21.312 21.342z" fill="#FC6E51" /><path d="M597.316 192.012c0 11.78-9.562 21.312-21.312 21.312-11.812 0-21.376-9.532-21.376-21.312 0-11.782 9.562-21.344 21.376-21.344 11.75 0 21.312 9.562 21.312 21.344zM469.318 192.012c0 11.78-9.562 21.312-21.312 21.312-11.812 0-21.376-9.532-21.376-21.312 0-11.782 9.562-21.344 21.376-21.344 11.75 0 21.312 9.562 21.312 21.344z" fill="#434A54" /><path d="M575.128 326.04h-0.032c0.594-1.906 0.906-3.938 0.906-6.032 0-11.782-9.562-21.342-21.376-21.342-9.156 0-16.938 5.782-19.968 13.906-0.344 0.656-4.406 7.438-22.656 7.438s-22.342-6.75-22.686-7.438c-3.032-8.092-10.812-13.906-20-13.906-11.782 0-21.312 9.562-21.312 21.342 0 2.094 0.312 4.124 0.876 6.032v0.124a1.854 1.854 0 0 1 0.156 0.438c4.342 13.656 22.218 36.062 62.966 36.062 40.718 0 58.592-22.406 62.936-36.062 0.032-0.156 0.062-0.312 0.124-0.438a0.28 0.28 0 0 1 0.066-0.124z m-40.874-12.22a0.234 0.234 0 0 0-0.062 0.124c0-0.062 0.03-0.092 0.062-0.124z m0.406-1.218c-0.094 0.312-0.218 0.562-0.312 0.876 0.156-0.47 0.25-0.752 0.312-0.876z m-44.904 1.344v-0.124 0.124z m-0.126-0.5c-0.094-0.282-0.218-0.562-0.312-0.844 0.062 0.124 0.156 0.406 0.312 0.844z" fill="#434A54" /></svg>