<?xml version="1.0" standalone="no"?><!DOCTYPE svg PUBLIC "-//W3C//DTD SVG 1.1//EN" "http://www.w3.org/Graphics/SVG/1.1/DTD/svg11.dtd"><svg class="icon" width="128px" height="128.00px" viewBox="0 0 1024 1024" version="1.1" xmlns="http://www.w3.org/2000/svg"><path d="M751.234 217.144l-5.438-41.406a21.41 21.41 0 0 0-4.124-10.032l-98.682-131.182a21.314 21.314 0 0 0-16.844-8.5c-6.654-0.156-12.904 2.938-16.998 8.188L571.618 82.18a21.34 21.34 0 0 0-2.75 21.688l46.156 105.496a21.364 21.364 0 0 0 15.342 12.374l95.558 19.092c1.376 0.282 2.812 0.438 4.188 0.438 5.376 0 10.592-2.032 14.56-5.782a21.148 21.148 0 0 0 6.562-18.342z" fill="#F6BB42" /><path d="M989.412 379.232a22.462 22.462 0 0 0-5.376-4.812l-88.996-55.842-93.434-68.81-15.718-62.904a21.304 21.304 0 0 0-13.656-14.968c-2.938-1.032-73.184-25.28-145.492-25.28-1.938 0-3.906 0-5.876 0.062-53.342 1-123.058 33.966-150.994 48.372L334.72 95.744c-7.342-5.438-17.342-5.532-24.842-0.312a21.3 21.3 0 0 0-8.248 23.436l28.124 96.714a21.304 21.304 0 0 0 5.936 9.656l58.842 54.748c-20.468 19.718-58.06 57.748-107.308 115.496C163.07 541.1 64.138 695.936 3.016 800.184a21.346 21.346 0 0 0-2.188 16.342 21.24 21.24 0 0 0 10.062 13l337.61 191.68a21.29 21.29 0 0 0 10.5 2.782c2.75 0 5.5-0.532 8.092-1.594a21.386 21.386 0 0 0 12.438-13.906c77.464-272.394 156.336-436.452 183.398-488.822 22.438 9.124 53 13.592 92.434 13.592 76.498 0 163.338-16.904 187.306-21.874l66.684 25.03c2.812 1.062 5.812 1.532 8.812 1.344l71.652-4.406c7.466-0.438 14.154-4.812 17.624-11.466 1.688-3.25 16.468-32.656 16.468-64.312 0.002-33.876-30.996-73.874-34.496-78.342z" fill="#FFCE54" /><path d="M660.894 298.64c0 11.78-9.562 21.312-21.342 21.312-11.782 0-21.31-9.532-21.31-21.312s9.53-21.342 21.31-21.342 21.342 9.562 21.342 21.342z" fill="#434A54" /><path d="M677.924 179.114L549.992 8.558a21.396 21.396 0 0 0-15.562-8.5 21.502 21.502 0 0 0-16.624 6.218l-42.624 42.654a21.31 21.31 0 0 0-4.532 23.5l11.186 26.062c0.218 0.532 0.5 1.062 0.782 1.562l28.968 54.592v58.654a21.312 21.312 0 0 0 21.344 21.342c11.748 0 21.31-9.532 21.31-21.342v-3.562l82.936-13.876 6.624 8.844c7.06 9.406 20.434 11.344 29.84 4.25 9.44-7.062 11.346-20.436 4.284-29.842z" fill="#FFCE54" /><path d="M412 351.294c-10.032-24.31-21.376-47.092-28.374-60.622-21.688 21.498-54.936 56.154-96.402 104.808-31.624 37.092-61.592 74.808-89.748 112.09a21.3 21.3 0 0 0 12.906 4.374c0.75 0 1.468-0.062 2.188-0.124 1.75-0.188 42.874-4.468 88.216-11.874 85.528-13.968 108.276-26.062 118.556-35.03 20.062-17.532 17.782-52.562-7.342-113.622zM486.182 691.466c25.718-64.776 47.81-113.12 63.278-144.868-13.062-9.624-53.934-37.374-90.778-37.374-5.876 0-11.532 0.686-16.748 2.062-5.718 1.5-14.718 3.626-25.156 6.126-27.75 6.592-69.686 16.592-104.59 27.374-54.84 16.968-75.246 29.936-77.996 49.53-1.688 12.282 4.938 22.844 19.75 31.438 7.156 4.188 17 8.5 30.062 13.25 20.31 7.372 48.622 15.778 84.184 24.964 51.436 13.282 103.776 24.498 117.994 27.498zM105.198 757.528c45.092 62.466 64.31 74.998 80.684 75.03 9.312 0 17.592-4.532 22.686-12.406 13.968-21.498 17.312-66.092 18.092-84.246 1-23.124 0.718-65.154-12.342-86.966-12.312-20.528-33.03-72.152-39.968-90.306-1.5-3.938-4.124-7.25-7.468-9.688-37.998 52.404-72.122 103.212-101.746 149.71 7.75 12.06 23.032 35.31 40.062 58.872zM402.812 720.81c-63.436-36.25-86.028-40.436-97.498-40.436-11.248 0-18.248 4.436-22.124 8.154-5.624 5.406-12.75 15.688-18.124 47.5-3.156 18.78-5.094 41.592-5.438 64.186-0.75 51.716 6.124 85.372 20.436 100.028 5.812 5.938 23.466 23.998 99.902 23.998 10.092 0 18.78-0.312 24.78-0.624 19.406-62.652 38.562-118.402 56.56-167.212-9.184-5.94-32.402-20.688-58.494-35.594z" fill="#FC6E51" /><path d="M511.588 175.458a637.24 637.24 0 0 0-41.716 19.592l41.716 18.25V175.458zM473.246 481.664l81.152 54.904 8.532-16.904zM916.542 470.32l93.994 45.062 9.436-27.592zM989.412 379.232a22.462 22.462 0 0 0-5.376-4.812l-24.436-15.312c0 0.032-0.438 55.404 53.214 57.654-9.278-19.312-21.276-34.844-23.402-37.53z" fill="#F6BB42" /></svg>