<?xml version="1.0" standalone="no"?><!DOCTYPE svg PUBLIC "-//W3C//DTD SVG 1.1//EN" "http://www.w3.org/Graphics/SVG/1.1/DTD/svg11.dtd"><svg class="icon" width="128px" height="128.00px" viewBox="0 0 1024 1024" version="1.1" xmlns="http://www.w3.org/2000/svg"><path d="M1002.688 490.656H21.376C9.562 490.656 0 500.218 0 512s9.562 21.344 21.376 21.344h981.312c11.75 0 21.312-9.562 21.312-21.344s-9.562-21.344-21.312-21.344z" fill="#CCD1D9" /><path d="M256 704c-105.876 0-192-86.124-192-192s86.124-192 192-192 192 86.124 192 192-86.124 192-192 192z" fill="#F6BB42" /><path d="M256 384c-70.688 0-128 57.312-128 128 0 11.782 9.562 21.344 21.376 21.344 11.75 0 21.312-9.562 21.312-21.344 0-47.032 38.25-85.344 85.312-85.344 11.812 0 21.376-9.562 21.376-21.312 0-11.812-9.564-21.344-21.376-21.344z" fill="#FFCE54" /><path d="M768 704c-105.876 0-192-86.124-192-192s86.124-192 192-192 192 86.124 192 192-86.124 192-192 192z" fill="#F6BB42" /><path d="M256 298.656c-117.812 0-213.312 95.5-213.312 213.344S138.188 725.344 256 725.344 469.376 629.844 469.376 512 373.812 298.656 256 298.656z m120.688 334c-32.25 32.25-75.062 50-120.688 50-45.562 0-88.438-17.75-120.688-50C103.124 600.438 85.376 557.594 85.376 512s17.75-88.468 49.938-120.656c32.25-32.25 75.124-50 120.688-50 45.624 0 88.438 17.75 120.688 50 32.25 32.188 50 75.062 50 120.656s-17.752 88.438-50.002 120.656zM768 298.656c-117.812 0-213.312 95.5-213.312 213.344S650.188 725.344 768 725.344 981.376 629.844 981.376 512 885.812 298.656 768 298.656z m120.688 334c-32.25 32.25-75.062 50-120.688 50-45.562 0-88.438-17.75-120.688-50-32.188-32.218-49.938-75.062-49.938-120.656s17.75-88.468 49.938-120.656c32.25-32.25 75.124-50 120.688-50 45.624 0 88.438 17.75 120.688 50 32.25 32.188 50 75.062 50 120.656s-17.75 88.438-50 120.656z" fill="#E6E9ED" /><path d="M768 384c-70.688 0-128 57.312-128 128 0 11.782 9.562 21.344 21.376 21.344 11.75 0 21.312-9.562 21.312-21.344 0-47.032 38.25-85.344 85.312-85.344 11.812 0 21.376-9.562 21.376-21.312 0-11.812-9.564-21.344-21.376-21.344z" fill="#FFCE54" /></svg>