<?xml version="1.0" standalone="no"?><!DOCTYPE svg PUBLIC "-//W3C//DTD SVG 1.1//EN" "http://www.w3.org/Graphics/SVG/1.1/DTD/svg11.dtd"><svg class="icon" width="128px" height="128.00px" viewBox="0 0 1024 1024" version="1.1" xmlns="http://www.w3.org/2000/svg"><path d="M103.952 584.34h816.098v42.656H103.952z" fill="#E6E9ED" /><path d="M246.51 225.26L182.636 182.668c-0.032 0-0.062-0.032-0.094-0.032l-0.032-0.032a21.17 21.17 0 0 0-11.844-3.594c-8.906 0-16.53 5.468-19.718 13.216L1.612 554.874l39.468 16.25 139.4-338.582 42.216 28.124c0.032 0.032 0.062 0.032 0.062 0.062l0.062 0.032a21.424 21.424 0 0 0 11.844 3.594c11.782 0 21.342-9.562 21.342-21.342a21.304 21.304 0 0 0-9.496-17.752zM843.49 232.542l139.432 338.582 39.436-16.25L873.02 192.228c-3.188-7.748-10.812-13.216-19.716-13.216-4.376 0-8.438 1.312-11.812 3.594l-0.062 0.032c-0.032 0-0.062 0.032-0.094 0.032l-63.844 42.592a21.232 21.232 0 0 0-9.498 17.75c0 11.78 9.53 21.342 21.31 21.342 4.376 0 8.468-1.344 11.844-3.594l0.062-0.032c0-0.032 0.032-0.032 0.062-0.062l42.218-28.124z" fill="#CCD1D9" /><path d="M347.538 395.222c-40.03 0-76.248 16.468-102.214 42.966-25.968-26.498-62.154-42.966-102.216-42.966-79.028 0-143.088 64.092-143.088 143.12 0 163.526 245.304 306.646 245.304 306.646S490.66 701.866 490.66 538.342c-0.002-79.028-64.064-143.12-143.122-143.12zM880.864 395.222c-40.03 0-76.248 16.468-102.216 42.966-25.966-26.498-62.184-42.966-102.214-42.966-79.028 0-143.12 64.092-143.12 143.12 0 163.526 245.334 306.646 245.334 306.646s245.336-143.122 245.336-306.646c-0.002-79.028-64.092-143.12-143.12-143.12z" fill="#EC87C0" /><path d="M880.864 395.222c-7.25 0-14.376 0.562-21.312 1.594 68.904 10.312 121.746 69.748 121.746 141.526 0 133.84-164.306 253.992-223.992 293.24 13.248 8.688 21.342 13.406 21.342 13.406s245.336-143.122 245.336-306.646c-0.002-79.028-64.092-143.12-143.12-143.12zM347.538 395.222c-7.218 0-14.342 0.562-21.312 1.594 68.904 10.312 121.776 69.748 121.776 141.526 0 133.84-164.338 253.992-223.992 293.24 13.218 8.688 21.312 13.406 21.312 13.406s245.336-143.122 245.336-306.646c0-79.028-64.062-143.12-143.12-143.12z" fill="#FFFFFF" opacity=".2" /></svg>