<?xml version="1.0" standalone="no"?><!DOCTYPE svg PUBLIC "-//W3C//DTD SVG 1.1//EN" "http://www.w3.org/Graphics/SVG/1.1/DTD/svg11.dtd"><svg class="icon" width="128px" height="128.00px" viewBox="0 0 1024 1024" version="1.1" xmlns="http://www.w3.org/2000/svg"><path d="M1002.624 490.656H21.312C9.562 490.656 0 500.218 0 512s9.562 21.344 21.312 21.344h981.312c11.812 0 21.376-9.562 21.376-21.344s-9.562-21.344-21.376-21.344z" fill="#CCD1D9" /><path d="M64 405.344h384v213.312H64z" fill="#F6BB42" /><path d="M362.624 533.344H149.25v-42.688c0-11.75-9.562-21.312-21.312-21.312-11.812 0-21.376 9.562-21.376 21.312v64c0 11.75 9.624 21.312 21.376 21.344h234.688c11.812 0 21.376-9.532 21.376-21.344-0.002-11.75-9.564-21.312-21.378-21.312z" fill="#FFCE54" /><path d="M576 405.344h384v213.312H576z" fill="#F6BB42" /><path d="M448 384H64c-11.812 0-21.376 9.532-21.376 21.344v213.312C42.624 630.468 52.188 640 64 640h384c11.75 0 21.312-9.532 21.312-21.344V405.344c0-11.812-9.562-21.344-21.312-21.344z m-21.376 213.344H85.312v-170.688h341.312v170.688zM960 384H576c-11.812 0-21.376 9.532-21.376 21.344v213.312c0 11.812 9.562 21.344 21.376 21.344h384c11.75 0 21.312-9.532 21.312-21.344V405.344c0-11.812-9.562-21.344-21.312-21.344z m-21.376 213.344H597.312v-170.688h341.312v170.688z" fill="#E6E9ED" /><path d="M874.624 533.344H661.25v-42.688c0-11.75-9.562-21.312-21.312-21.312-11.812 0-21.376 9.562-21.376 21.312v64c0 11.75 9.624 21.312 21.376 21.344h234.688c11.812 0 21.376-9.532 21.376-21.344-0.002-11.75-9.564-21.312-21.378-21.312z" fill="#FFCE54" /></svg>