<?xml version="1.0" standalone="no"?><!DOCTYPE svg PUBLIC "-//W3C//DTD SVG 1.1//EN" "http://www.w3.org/Graphics/SVG/1.1/DTD/svg11.dtd"><svg class="icon" width="128px" height="128.00px" viewBox="0 0 1024 1024" version="1.1" xmlns="http://www.w3.org/2000/svg"><path d="M447.146 822.808h42.718v158.434h-42.718z" fill="#434A54" /><path d="M800.826 50.68c-8.344-8.344-21.876-8.344-30.218 0s-8.344 21.876 0 30.218c40.812 40.796 72.376 88.342 93.876 141.31 20.75 51.186 31.282 105.28 31.282 160.794 0 55.514-10.532 109.608-31.282 160.794-21.5 52.954-53.062 100.516-93.876 141.324-40.78 40.782-88.34 72.376-141.306 93.844-51.188 20.75-105.282 31.282-160.78 31.282-55.53 0-109.624-10.532-160.81-31.282-52.968-21.468-100.5-53.062-141.31-93.844a21.318 21.318 0 0 0-30.218 0c-8.344 8.312-8.344 21.876 0 30.188 91.78 91.782 212.058 137.656 332.338 137.656 120.25 0 240.528-45.876 332.306-137.656 183.528-183.526 183.528-481.084-0.002-664.628zM639.426 981.242H297.618c-11.782 0-21.344 9.562-21.344 21.376s9.562 21.376 21.344 21.376h341.808c11.78 0 21.342-9.562 21.342-21.376s-9.562-21.376-21.342-21.376z" fill="#656D78" /><path d="M851.514 383.002c0 211.528-171.464 382.994-382.994 382.994-211.528 0-382.994-171.464-382.994-382.994C85.526 171.474 256.992 0.008 468.52 0.008c211.528 0 382.994 171.468 382.994 382.994z" fill="#5D9CEC" /><path d="M777.826 342.348c-75.402 5.734-99.59-38.468-89.652-51.968 17.188-23.39 98.996 33.438 104.402-8.672 0.968-7.39 19.468-26.67 35.75-30.264-37.124-101.466-115.934-182.824-215.682-223.372-3.406 11.484-6.406 20.968-8.062 21.782-57.5 27.954-125.436 40.936-166.218 94.67-5.718 7.546-13.282 21.796-5.094 30.796 10.124 11.156 37.188-0.312 50.468 0.656 36.936 2.656 141.092 26.906 144.468 43.78 3.376 16.858-39.532 48.78-81.468 25.64-12.344-6.812-61.656-15.296-78.406-18.312-11.718-2.094-112.81 10.592-108.31 130.78 1.812 48.748 32.312 80.106 81.466 80.668 40.782 0.468 82.062-4.296 95.406 43.968 11.312 40.906 7 83.25 17.094 123.968 4.062 16.376 12.718 39.376 33.468 41.156 31.468 2.718 52.624-18.438 71.53-40.376 15.062-17.532 34.094-32.75 45.344-53.25 17.81-32.546 12.906-71.296 31.748-103.89 15.186-26.294 65.592-109.588 41.748-107.76zM208.43 457.61c-12-17.422-25.75-34.296-38.06-51.484-11.5-16.014-56.344-88.826-77.124-100.014a384.732 384.732 0 0 0-7.718 76.89c0 93.216 33.312 178.654 88.656 245.06 1.406 1.718 34.686-23 37.624-25.5 12.282-10.438 22.562-23.188 27.188-38.844 10.716-36.514-10.378-76.748-30.566-106.108z" fill="#A0D468" /><path d="M468.52 0.008c-7.188 0-14.282 0.204-21.376 0.594 201.59 11.094 361.65 178.044 361.65 382.4 0 204.372-160.058 371.306-361.65 382.4 7.094 0.406 14.188 0.594 21.376 0.594 211.528 0 382.994-171.464 382.994-382.994C851.514 171.476 680.048 0.008 468.52 0.008z" fill="#FFFFFF" opacity=".2" /></svg>