<?xml version="1.0" standalone="no"?><!DOCTYPE svg PUBLIC "-//W3C//DTD SVG 1.1//EN" "http://www.w3.org/Graphics/SVG/1.1/DTD/svg11.dtd"><svg class="icon" width="128px" height="128.00px" viewBox="0 0 1024 1024" version="1.1" xmlns="http://www.w3.org/2000/svg"><path d="M585.184 1023.98c63.996 0 124.152-24.904 169.368-70.122 45.25-45.25 70.156-143.182 70.156-143.182l-0.124-571.23c0-41.858-34.032-75.918-75.876-75.918-8.622 0-17.122 1.484-25.246 4.376l-7.532 2.686-0.344 0.124V130.406c0-41.858-34.062-75.904-75.902-75.904-9.594 0-19 1.796-27.968 5.342l-5.844 2.296-0.282 0.11-0.062-0.282-1.656-6.062C594.934 23.002 564.812 0.02 530.624 0.02c-34.124 0-64.218 22.984-73.156 55.888l-1.656 6.046-0.062 0.282-0.282-0.094-5.844-2.296a76.138 76.138 0 0 0-27.998-5.342c-41.842 0-75.874 34.044-75.874 75.904v300.396l-0.468-0.61-10.062-13c-20.968-27.062-57.654-36.75-89.248-23.578-28.374 11.828-46.686 39.328-46.686 70.06 0 10.03 2 19.858 5.906 29.218l158.996 383.908c0.156 0.312 0.25 0.624 0.376 0.876l0.376 0.906c18.218 42.592 48.216 78.842 86.778 104.778 39.498 26.558 85.656 40.618 133.464 40.618z" fill="#424953" /><path d="M585.184 981.202c-52.558 0-101.964-20.466-139.088-57.56-20.31-20.344-36.154-45.28-45.904-72.09v0.062l-0.282 0.218-0.156-0.344-2.938-7.094-152.152-367.846-0.438-1.032-0.032-0.046v-0.108a32.644 32.644 0 0 1-2.156-11.686c0-13.454 8-25.452 20.376-30.576 10.936-4.64 20.592-2.062 25.374-0.11 4.718 1.922 13.344 6.81 17.968 17.826l82.716 188.15V130.406c0-18.266 14.876-33.124 33.156-33.124s33.124 14.858 33.124 33.124v296.27h42.75V75.844c0-18.264 14.874-33.124 33.124-33.124 18.312 0 33.188 14.858 33.188 33.124v350.832h42.746V130.406c0-18.266 14.844-33.124 33.124-33.124 18.246 0 33.122 14.858 33.122 33.124v296.27h42.782v-187.228c0-18.312 14.844-33.202 33.122-33.202 18.25 0 33.124 14.89 33.124 33.202l-0.094 572.542c0 52.498-20.25 74.434-57.402 111.65-37.158 37.126-86.56 57.562-139.154 57.562z" fill="#646C77" /><path d="M376.722 831.99h426.64v170.68h-426.64z" fill="#646C77" /><path d="M355.38 810.678V1023.98h469.328V810.678H355.38z m426.64 170.616H398.036V853.3H782.02v127.994z" fill="#424953" /><path d="M483.376 917.296c0 11.812-9.562 21.376-21.342 21.376-11.782 0-21.312-9.562-21.312-21.376 0-11.75 9.532-21.312 21.312-21.312 11.778 0 21.342 9.562 21.342 21.312z" fill="#FECD57" /></svg>