<?xml version="1.0" standalone="no"?><!DOCTYPE svg PUBLIC "-//W3C//DTD SVG 1.1//EN" "http://www.w3.org/Graphics/SVG/1.1/DTD/svg11.dtd"><svg class="icon" width="128px" height="128.00px" viewBox="0 0 1024 1024" version="1.1" xmlns="http://www.w3.org/2000/svg"><path d="M900.11 114.11a21.3 21.3 0 0 0-16.156-7.438H140.046a21.294 21.294 0 0 0-16.156 7.438C44.002 206.856 0.022 325.444 0.022 448.002c0 100.714 29.216 198.178 84.512 281.864 53.874 81.558 129.386 145.744 218.35 185.588 2.734 1.218 5.718 1.876 8.718 1.876h400.796c3 0 5.968-0.656 8.718-1.876 88.964-39.844 164.492-104.03 218.366-185.588 55.28-83.686 84.496-181.148 84.496-281.864 0-122.558-43.998-241.146-123.868-333.892z" fill="#E6E9ED" /><path d="M938.67 256.01l-42.686 21.344-42.686-21.344-42.624 21.344-42.688-21.344-42.684 21.344-42.624-21.344-42.684 21.344-42.686-21.344-42.624 21.344L512 256.01l-42.67 21.344-42.654-21.344-42.67 21.344-42.67-21.344-42.654 21.344-42.67-21.344-42.67 21.344-42.656-21.344-42.668 21.344-46.328-21.344-38.998 21.344h-13.376A512.158 512.158 0 0 0 0.022 448.002c0 100.714 29.216 198.178 84.512 281.864 53.874 81.558 129.386 145.744 218.35 185.588 2.734 1.218 5.718 1.876 8.718 1.876h400.796c3 0 5.968-0.656 8.718-1.876 88.964-39.844 164.492-104.03 218.366-185.588 55.28-83.686 84.496-181.148 84.496-281.864 0-58.59-10.062-116.246-29.31-170.648h-13.376l-42.622-21.344z" fill="#5D9CEC" /><path d="M441.738 454.282l-42.64-42.624c-8.328-8.342-21.828-8.342-30.17-0.032-8.328 8.344-8.328 21.844 0 30.186l27.562 27.56-27.562 27.532c-8.328 8.344-8.328 21.844 0 30.186a21.322 21.322 0 0 0 15.094 6.25c5.452 0 10.92-2.094 15.078-6.25l42.64-42.654c8.324-8.312 8.324-21.81-0.002-30.154z" fill="#E9573F" /><path d="M831.988 831.986a21.376 21.376 0 0 1-20.25-14.594c-1.25-3.75-30.25-93.122 0-184.116 25.688-77.248 0.25-156.464 0-157.246-3.688-11.186 2.376-23.25 13.562-26.936 11.188-3.688 23.218 2.344 26.936 13.5 1.25 3.78 30.248 93.122 0 184.116-25.686 77.248-0.25 156.464 0 157.246 3.688 11.186-2.374 23.248-13.56 26.936-2.218 0.75-4.5 1.094-6.688 1.094zM192.012 831.986c-2.234 0-4.5-0.344-6.734-1.094-11.172-3.718-17.218-15.782-13.516-26.936 0.376-1.188 25.624-80.186 0-157.246-30.264-90.994-1.25-180.336 0-184.116 3.718-11.186 15.796-17.218 26.984-13.5 11.172 3.718 17.234 15.78 13.516 26.966-0.25 0.75-25.686 79.966 0 157.214 30.264 90.994 1.25 180.366 0 184.116-2.984 8.94-11.312 14.596-20.25 14.596zM277.354 831.986c-2.156 0-4.342-0.312-6.5-1-11.204-3.594-17.39-15.562-13.86-26.748 0.282-0.876 11.218-37.344 0.032-72.436-15.514-48.594-0.64-96.276 0-98.306 3.578-11.218 15.578-17.406 26.812-13.812 11.218 3.562 17.406 15.562 13.828 26.808-0.094 0.282-11.282 37.03 0 72.342 15.514 48.592 0.64 96.308 0 98.308-2.89 9.064-11.282 14.844-20.312 14.844zM746.678 832.018a21.384 21.384 0 0 1-20.342-14.876c-0.656-2-15.532-49.716 0-98.308 11.28-35.312 0.094-72.06-0.032-72.436a21.278 21.278 0 0 1 13.874-26.746c11.188-3.594 23.218 2.624 26.81 13.844 0.624 2.032 15.5 49.712 0 98.306-11.28 35.342-0.124 72.06 0 72.436 3.594 11.216-2.624 23.186-13.81 26.78-2.188 0.688-4.376 1-6.5 1z" fill="#A0D468" /><path d="M575.998 661.336h-127.996c-11.78 0-21.326 9.532-21.326 21.31v127.996c0 11.782 9.546 21.344 21.326 21.344h127.996c11.782 0 21.312-9.562 21.312-21.344v-127.996a21.298 21.298 0 0 0-21.312-21.31z" fill="#965353" /><path d="M426.676 703.99v42.656h170.634v-42.656h-63.982v-42.654h-42.656v42.654z" fill="#FFCE54" /><path d="M42.692 298.664c3.578 0 7.092-0.876 10.234-2.594l29.578-16.186 36.592 16.842a21.376 21.376 0 0 0 18.468-0.312l33.124-16.562 33.124 16.562c6 3 13.062 3 19.078 0l33.124-16.562 33.124 16.562c6 3 13.078 3 19.076 0l33.124-16.562 33.124 16.562c6.016 3 13.078 3 19.092 0l33.124-16.562 33.124 16.562c6 3 13.062 3 19.078 0l33.12-16.562 33.124 16.562c6 3 13.062 3 19.062 0l33.124-16.562 33.124 16.562c6.032 3 13.094 3 19.124 0l33.124-16.562 33.124 16.562c6 3 13.062 3 19.062 0l33.122-16.562 33.124 16.562c6 3 13.062 3 19.062 0l33.124-16.562 33.124 16.562c6.032 3 13.094 3 19.124 0l33.124-16.562 33.124 16.562a20.842 20.842 0 0 0 9.5 2.25l20.404 0.062a512.906 512.906 0 0 0-15.092-42.716h-0.25l-38.186-19.094c-6-3-13.062-3-19.062 0l-33.124 16.562-33.124-16.562c-6-3-13.06-3-19.06 0l-33.124 16.562-33.124-16.562a21.444 21.444 0 0 0-19.124 0l-33.124 16.562-33.124-16.562c-6-3-13.062-3-19.062 0l-33.122 16.562-33.124-16.562c-6-3-13.062-3-19.062 0l-33.124 16.562-33.138-16.562a21.376 21.376 0 0 0-19.092 0l-33.124 16.562-33.124-16.562c-6-3-13.078-3-19.078 0l-33.124 16.562-33.124-16.562a21.346 21.346 0 0 0-19.078 0l-33.122 16.562-33.124-16.562a21.38 21.38 0 0 0-19.094 0l-33.124 16.562-33.124-16.562c-6-3-13.078-3-19.078 0l-33.498 16.782-37.03-17.062a21.36 21.36 0 0 0-19.17 0.656l-33.984 18.594a513.06 513.06 0 0 0-15.156 42.78h20.39z" fill="#4A89DC" /><path d="M533.312 533.374c-31.14 0-60.732-5-83.342-14.03-38.84-15.532-44.654-38-44.654-49.968 0-12 5.812-34.434 44.654-49.998 22.61-9.032 52.202-14 83.342-14 31.124 0 60.748 4.968 83.374 14 38.808 15.562 44.62 37.998 44.62 49.998 0 11.968-5.81 34.438-44.62 49.968-22.626 9.03-52.25 14.03-83.374 14.03z" fill="#FC6E51" /><path d="M721.118 915.454a512.15 512.15 0 0 0 172.524-126.122H130.36a512.306 512.306 0 0 0 172.524 126.122c2.734 1.218 5.718 1.876 8.718 1.876h400.796c3-0.002 5.97-0.658 8.72-1.876z" fill="#FFCE54" /><path d="M900.11 114.11a21.3 21.3 0 0 0-16.156-7.438H841.3c6.188 0 12.092 2.718 16.154 7.438 79.872 92.746 123.838 211.334 123.838 333.892 0 100.714-29.186 198.178-84.496 281.864-53.872 81.558-129.372 145.744-218.368 185.588a21.3 21.3 0 0 1-8.688 1.876h42.656c3 0 5.968-0.656 8.718-1.876 88.964-39.844 164.492-104.03 218.366-185.588 55.28-83.686 84.496-181.148 84.496-281.864 0.002-122.558-43.996-241.146-123.866-333.892zM123.892 114.11a21.298 21.298 0 0 1 16.156-7.438h42.67a21.348 21.348 0 0 0-16.172 7.438c-79.872 92.746-123.854 211.334-123.854 333.892 0 100.714 29.218 198.178 84.498 281.864 53.888 81.558 129.384 145.744 218.366 185.588 2.734 1.218 5.704 1.876 8.718 1.876h-42.67c-3 0-5.984-0.656-8.718-1.876-88.964-39.844-164.476-104.03-218.35-185.588C29.238 646.18 0.022 548.716 0.022 448.002c0-122.558 43.98-241.146 123.87-333.892z" fill="#FFFFFF" opacity=".2" /><path d="M746.678 831.986c0 11.782-9.562 21.344-21.374 21.344-11.75 0-21.312-9.562-21.312-21.344s9.562-21.344 21.312-21.344c11.812 0 21.374 9.564 21.374 21.344zM703.992 874.64c0 11.782-9.562 21.344-21.312 21.344-11.812 0-21.376-9.562-21.376-21.344s9.562-21.31 21.376-21.31c11.75 0 21.312 9.53 21.312 21.31zM661.304 831.986c0 11.782-9.53 21.344-21.308 21.344-11.782 0-21.31-9.562-21.31-21.344s9.53-21.344 21.31-21.344 21.308 9.564 21.308 21.344zM618.686 874.64c0 11.782-9.562 21.344-21.376 21.344-11.75 0-21.312-9.562-21.312-21.344s9.562-21.31 21.312-21.31c11.814 0 21.376 9.53 21.376 21.31zM575.998 831.986c0 11.782-9.562 21.344-21.312 21.344-11.796 0-21.358-9.562-21.358-21.344s9.56-21.344 21.358-21.344c11.75 0 21.312 9.564 21.312 21.344zM533.328 874.64c0 11.782-9.546 21.344-21.328 21.344-11.78 0-21.328-9.562-21.328-21.344s9.546-21.31 21.328-21.31 21.328 9.53 21.328 21.31zM490.672 831.986c0 11.782-9.562 21.344-21.342 21.344-11.782 0-21.328-9.562-21.328-21.344s9.546-21.344 21.328-21.344c11.78 0 21.342 9.564 21.342 21.344zM448.002 874.64c0 11.782-9.544 21.344-21.326 21.344-11.78 0-21.342-9.562-21.342-21.344s9.562-21.31 21.342-21.31c11.782 0 21.326 9.53 21.326 21.31zM405.334 831.986c0 11.782-9.546 21.344-21.328 21.344s-21.328-9.562-21.328-21.344 9.546-21.344 21.328-21.344c11.78 0 21.328 9.564 21.328 21.344zM362.678 874.64c0 11.782-9.562 21.344-21.342 21.344s-21.328-9.562-21.328-21.344 9.546-21.31 21.328-21.31c11.78 0 21.342 9.53 21.342 21.31zM320.008 831.986c0 11.782-9.546 21.344-21.326 21.344-11.782 0-21.344-9.562-21.344-21.344s9.562-21.344 21.344-21.344c11.778 0 21.326 9.564 21.326 21.344z" fill="#F6BB42" /></svg>