<?xml version="1.0" standalone="no"?><!DOCTYPE svg PUBLIC "-//W3C//DTD SVG 1.1//EN" "http://www.w3.org/Graphics/SVG/1.1/DTD/svg11.dtd"><svg class="icon" width="128px" height="128.00px" viewBox="0 0 1024 1024" version="1.1" xmlns="http://www.w3.org/2000/svg"><path d="M669.958 466.806l-150.836-150.852c-8.344-8.328-21.844-8.328-30.17 0L6.274 798.664c-4 4-6.25 9.406-6.25 15.062s2.25 11.062 6.25 15.06l150.836 150.868a21.286 21.286 0 0 0 15.078 6.25 21.32 21.32 0 0 0 15.092-6.25L669.958 496.96a21.292 21.292 0 0 0 0-30.154z" fill="#7F4545" /><path d="M760.456 436.636L549.278 225.458c-8.326-8.326-21.826-8.326-30.154 0L21.352 723.23c-8.328 8.312-8.328 21.812 0 30.154l211.176 211.178c4 4 9.42 6.25 15.078 6.25 5.656 0 11.092-2.25 15.092-6.25l497.756-497.756c4-4.016 6.25-9.438 6.25-15.094a21.312 21.312 0 0 0-6.248-15.076z" fill="#7F4545" /><path d="M724.612 446.872c-0.344 1.514-36.996 153.116-175.334 291.422-72.2 72.214-151.914 120.18-206.068 147.71-58.982 29.966-101.338 42.902-101.76 43.028l6.156 20.438 6.14 20.438c1.844-0.562 45.67-13.876 107.792-45.376 57.184-28.964 141.414-79.558 217.926-156.052 76.652-76.684 123.212-156.992 148.774-210.866 27.876-58.792 37.532-99.354 37.906-101.042l-41.532-9.7z" fill="#434A54" /><path d="M157.11 910.47a21.152 21.152 0 0 1-15.078-6.25c-8.342-8.31-8.342-21.81-0.016-30.154l15.094-15.094c8.328-8.312 21.826-8.312 30.17 0 8.328 8.312 8.328 21.844 0 30.188l-15.092 15.06a21.156 21.156 0 0 1-15.078 6.25zM96.77 850.16a21.412 21.412 0 0 1-15.078-6.25c-8.328-8.342-8.328-21.872 0-30.184l15.078-15.062a21.28 21.28 0 0 1 30.17-0.032c8.328 8.344 8.328 21.844 0 30.154l-15.078 15.124a21.448 21.448 0 0 1-15.092 6.25z" fill="#080808" opacity=".1" /><path d="M536.686 380.06a21.314 21.314 0 0 1-15.078-6.25c-8.328-8.326-8.328-21.842 0-30.17L795.576 69.672c8.344-8.328 21.844-8.328 30.188 0 8.312 8.326 8.312 21.842-0.032 30.17L551.778 373.81a21.29 21.29 0 0 1-15.092 6.25z" fill="#CCD1D9" /><path d="M948.568 207.242c-2.876 0-5.844-0.14-8.78-0.422-37.81-3.61-75.684-28.67-94.9-43.28-34.468-26.248-51.75-49.482-56.436-62.464-5.782-16.124 1.782-26.06 5.31-29.592 21.218-21.218 57.124-33.388 98.434-33.388 38.342 0 74.402 10.186 98.902 27.966 28.122 20.388 39.714 56.542 28.84 89.994-10.216 31.576-37.588 51.186-71.37 51.186z" fill="#E6E9ED" /><path d="M608.026 429.402a21.232 21.232 0 0 1-15.094-6.25 21.292 21.292 0 0 1 0-30.154l142.304-142.32c8.344-8.328 21.844-8.328 30.188 0 8.31 8.328 8.31 21.842 0 30.17l-142.336 142.304a21.214 21.214 0 0 1-15.062 6.25z" fill="#CCD1D9" /><path d="M930.79 247.068c-24.53-17.782-60.592-27.966-98.932-27.966-41.31 0-77.214 12.17-98.434 33.388-3.532 3.532-11.094 13.466-5.282 29.592 4.656 12.984 21.938 36.216 56.436 62.464 19.186 14.61 57.06 39.67 94.87 43.264 2.968 0.296 5.906 0.438 8.812 0.438 33.78 0 61.122-19.608 71.372-51.186 10.842-33.45-0.752-69.62-28.842-89.994z" fill="#E6E9ED" /><path d="M765.048 442.98c-3.624-8.062-11.656-13.078-20.468-12.578h-0.812c-11.906 0-120.492-3.876-261.8-138.368-8.374-7.984-21.592-7.828-29.78 0.36L21.352 723.23c-8.328 8.312-8.328 21.812 0 30.154l211.176 211.178c4 4 9.42 6.25 15.078 6.25 5.656 0 11.092-2.25 15.092-6.25l497.756-497.756c6.282-6.264 8.22-15.75 4.594-23.826z" fill="#965353" /><path d="M624.71 602.548l-75.434-75.418c-8.326-8.326-21.826-8.326-30.154 0L307.946 738.292c-8.328 8.344-8.328 21.874 0 30.186l75.418 75.432 241.346-241.362z" fill="#FFCE54" /></svg>