<?xml version="1.0" standalone="no"?><!DOCTYPE svg PUBLIC "-//W3C//DTD SVG 1.1//EN" "http://www.w3.org/Graphics/SVG/1.1/DTD/svg11.dtd"><svg class="icon" width="128px" height="128.00px" viewBox="0 0 1024 1024" version="1.1" xmlns="http://www.w3.org/2000/svg"><path d="M904.458 25.416c0.25-1.312 0.406-2.688 0.406-4.094 0-11.782-9.562-21.312-21.344-21.312h-64.81c-10.342 0-18.936 7.342-20.904 17.124l-81.562 403.054 41.812 8.468 11.218 65.592 41.876 8.188 93.246-476.74c0.032-0.062 0.032-0.094 0.032-0.156l0.03-0.124z" fill="#AAB2BC" /><path d="M816.242 447.25a21.312 21.312 0 0 0-15.03-20.218c-12.188-3.75-300.884-92.28-489.802-92.28-82.482 0-134.356 16.842-158.574 51.498-11.296 16.156-25.968 56.374-31.514 106.436-4.656 42.188-4.156 104.81 24.812 163.558 20.704 42.032 52.812 75.716 95.452 100.154 48.342 27.686 110.576 43.436 184.98 46.81 8.858 0.406 17.702 0.594 26.312 0.594h0.032c109.31 0 196.746-32.312 259.962-96.028 103.496-104.338 103.432-254.21 103.37-260.524z" fill="#CCD1D9" /><path d="M611.342 555.31c-1.094 0-2.218-0.062-3.376-0.25l-336.336-53.53c-11.624-1.844-19.562-12.782-17.702-24.438 1.844-11.624 12.78-19.562 24.42-17.718l336.336 53.532c11.624 1.876 19.562 12.812 17.718 24.438-1.686 10.466-10.748 17.966-21.06 17.966zM591.248 681.714c-1.124 0-2.25-0.062-3.406-0.25l-336.32-53.532c-11.64-1.876-19.562-12.812-17.718-24.436 1.86-11.624 12.782-19.562 24.42-17.688l336.336 53.498c11.624 1.876 19.562 12.812 17.718 24.438-1.654 10.502-10.748 17.97-21.03 17.97z" fill="#AAB2BC" /><path d="M605.404 917.302h42.654v106.686h-42.654z" fill="#DA4453" /><path d="M690.712 938.646h-127.996c-11.782 0-21.328-9.562-21.328-21.344s9.546-21.31 21.328-21.31h127.996c11.782 0 21.344 9.53 21.344 21.31s-9.562 21.344-21.344 21.344z" fill="#ED5564" /><path d="M626.716 469.312c-117.624 0-213.324 95.686-213.324 213.34 0 117.622 95.702 213.34 213.324 213.34 117.622 0 213.338-95.718 213.338-213.34 0-117.654-95.716-213.34-213.338-213.34z" fill="#FFCE54" /><path d="M520.232 554.654c0 11.782-9.544 21.344-21.326 21.344s-21.328-9.562-21.328-21.344c0-11.78 9.546-21.342 21.328-21.342s21.326 9.564 21.326 21.342zM477.578 597.31c0 11.81-9.562 21.342-21.342 21.342s-21.328-9.532-21.328-21.342c0-11.782 9.546-21.312 21.328-21.312s21.342 9.532 21.342 21.312zM520.232 639.996c0 11.782-9.544 21.312-21.326 21.312s-21.328-9.532-21.328-21.312c0-11.812 9.546-21.344 21.328-21.344s21.326 9.532 21.326 21.344zM477.578 682.652c0 11.782-9.562 21.344-21.342 21.344s-21.328-9.562-21.328-21.344 9.546-21.344 21.328-21.344 21.342 9.564 21.342 21.344zM520.232 725.308c0 11.78-9.544 21.342-21.326 21.342s-21.328-9.562-21.328-21.342c0-11.782 9.546-21.312 21.328-21.312s21.326 9.532 21.326 21.312zM477.578 767.994c0 11.78-9.562 21.31-21.342 21.31s-21.328-9.532-21.328-21.31c0-11.782 9.546-21.344 21.328-21.344s21.342 9.562 21.342 21.344zM520.232 810.648c0 11.782-9.544 21.344-21.326 21.344s-21.328-9.562-21.328-21.344 9.546-21.344 21.328-21.344 21.326 9.564 21.326 21.344zM562.904 512c0 11.782-9.532 21.312-21.328 21.312-11.782 0-21.344-9.532-21.344-21.312s9.562-21.344 21.344-21.344c11.798 0 21.328 9.562 21.328 21.344zM605.592 554.654c0 11.782-9.562 21.344-21.344 21.344s-21.344-9.562-21.344-21.344c0-11.78 9.562-21.342 21.344-21.342s21.344 9.564 21.344 21.342zM562.904 597.31a21.31 21.31 0 0 1-21.328 21.342c-11.782 0-21.344-9.532-21.344-21.342 0-11.782 9.562-21.312 21.344-21.312 11.798 0 21.328 9.532 21.328 21.312zM605.592 639.996c0 11.782-9.562 21.312-21.344 21.312s-21.344-9.532-21.344-21.312c0-11.812 9.562-21.344 21.344-21.344s21.344 9.532 21.344 21.344zM562.904 682.652c0 11.782-9.532 21.344-21.328 21.344-11.782 0-21.344-9.562-21.344-21.344s9.562-21.344 21.344-21.344c11.798 0 21.328 9.564 21.328 21.344zM605.592 725.308c0 11.78-9.562 21.342-21.344 21.342s-21.344-9.562-21.344-21.342c0-11.782 9.562-21.312 21.344-21.312s21.344 9.532 21.344 21.312zM562.904 767.994c0 11.78-9.532 21.31-21.328 21.31-11.782 0-21.344-9.532-21.344-21.31 0-11.782 9.562-21.344 21.344-21.344 11.798 0 21.328 9.562 21.328 21.344zM605.592 810.648c0 11.782-9.562 21.344-21.344 21.344s-21.344-9.562-21.344-21.344 9.562-21.344 21.344-21.344 21.344 9.564 21.344 21.344zM562.904 853.304c0 11.782-9.532 21.344-21.328 21.344-11.782 0-21.344-9.562-21.344-21.344s9.562-21.312 21.344-21.312c11.798 0 21.328 9.532 21.328 21.312zM648.246 512c0 11.782-9.56 21.312-21.342 21.312S605.592 523.78 605.592 512s9.532-21.344 21.312-21.344 21.342 9.562 21.342 21.344zM690.9 554.654c0 11.782-9.53 21.344-21.31 21.344s-21.344-9.562-21.344-21.344c0-11.78 9.562-21.342 21.344-21.342s21.31 9.564 21.31 21.342zM648.246 597.31c0 11.81-9.56 21.342-21.342 21.342s-21.312-9.532-21.312-21.342c0-11.782 9.532-21.312 21.312-21.312s21.342 9.532 21.342 21.312zM690.9 639.996c0 11.782-9.53 21.312-21.31 21.312s-21.344-9.532-21.344-21.312c0-11.812 9.562-21.344 21.344-21.344s21.31 9.532 21.31 21.344zM648.246 682.652c0 11.782-9.56 21.344-21.342 21.344s-21.312-9.562-21.312-21.344 9.532-21.344 21.312-21.344 21.342 9.564 21.342 21.344zM690.9 725.308c0 11.78-9.53 21.342-21.31 21.342s-21.344-9.562-21.344-21.342c0-11.782 9.562-21.312 21.344-21.312s21.31 9.532 21.31 21.312zM648.246 767.994c0 11.78-9.56 21.31-21.342 21.31s-21.312-9.532-21.312-21.31c0-11.782 9.532-21.344 21.312-21.344s21.342 9.562 21.342 21.344zM690.9 810.648c0 11.782-9.53 21.344-21.31 21.344s-21.344-9.562-21.344-21.344 9.562-21.344 21.344-21.344 21.31 9.564 21.31 21.344zM648.246 853.304c0 11.782-9.56 21.344-21.342 21.344s-21.312-9.562-21.312-21.344 9.532-21.312 21.312-21.312 21.342 9.532 21.342 21.312zM733.588 512c0 11.782-9.562 21.312-21.344 21.312S690.9 523.782 690.9 512s9.562-21.344 21.344-21.344 21.344 9.562 21.344 21.344zM776.244 554.654c0 11.782-9.562 21.344-21.344 21.344s-21.312-9.562-21.312-21.344c0-11.78 9.532-21.342 21.312-21.342s21.344 9.564 21.344 21.342zM733.588 597.31c0 11.81-9.562 21.342-21.344 21.342s-21.344-9.532-21.344-21.342c0-11.782 9.562-21.312 21.344-21.312s21.344 9.532 21.344 21.312zM776.244 639.996c0 11.782-9.562 21.312-21.344 21.312s-21.312-9.532-21.312-21.312c0-11.812 9.532-21.344 21.312-21.344s21.344 9.532 21.344 21.344zM733.588 682.652c0 11.782-9.562 21.344-21.344 21.344s-21.344-9.562-21.344-21.344 9.562-21.344 21.344-21.344 21.344 9.564 21.344 21.344zM776.244 725.308c0 11.78-9.562 21.342-21.344 21.342s-21.312-9.562-21.312-21.342c0-11.782 9.532-21.312 21.312-21.312s21.344 9.532 21.344 21.312zM733.588 767.994c0 11.78-9.562 21.31-21.344 21.31s-21.344-9.532-21.344-21.31c0-11.782 9.562-21.344 21.344-21.344s21.344 9.562 21.344 21.344zM776.244 810.648c0 11.782-9.562 21.344-21.344 21.344s-21.312-9.562-21.312-21.344 9.532-21.344 21.312-21.344 21.344 9.564 21.344 21.344zM733.588 853.304c0 11.782-9.562 21.344-21.344 21.344s-21.344-9.562-21.344-21.344 9.562-21.312 21.344-21.312 21.344 9.532 21.344 21.312zM818.898 597.31c0 11.81-9.53 21.342-21.31 21.342s-21.344-9.532-21.344-21.342c0-11.782 9.562-21.312 21.344-21.312s21.31 9.532 21.31 21.312zM818.898 682.652c0 11.782-9.53 21.344-21.31 21.344s-21.344-9.562-21.344-21.344 9.562-21.344 21.344-21.344 21.31 9.564 21.31 21.344zM818.898 767.994c0 11.78-9.53 21.31-21.31 21.31s-21.344-9.532-21.344-21.31c0-11.782 9.562-21.344 21.344-21.344s21.31 9.562 21.31 21.344z" fill="#F6BB42" /></svg>