<?xml version="1.0" standalone="no"?><!DOCTYPE svg PUBLIC "-//W3C//DTD SVG 1.1//EN" "http://www.w3.org/Graphics/SVG/1.1/DTD/svg11.dtd"><svg class="icon" width="128px" height="128.00px" viewBox="0 0 1024 1024" version="1.1" xmlns="http://www.w3.org/2000/svg"><path d="M626.186 150.696L455.5 86.698a21.228 21.228 0 0 0-19.624 2.438 21.304 21.304 0 0 0-9.186 17.53v127.998c0 7 3.436 13.532 9.186 17.532a21.362 21.362 0 0 0 12.156 3.812c2.5 0 5.032-0.468 7.468-1.376l170.684-64a21.336 21.336 0 0 0 13.812-19.968 21.302 21.302 0 0 0-13.81-19.968z" fill="#ED5564" /><path d="M1002.676 874.648H405.346c-11.782 0-21.342-9.562-21.342-21.344 0-85.464 33.312-165.84 93.748-226.278 60.436-60.434 140.78-93.714 226.244-93.714 85.5 0 165.84 33.282 226.278 93.714 60.436 60.438 93.716 140.812 93.716 226.278-0.002 11.782-9.532 21.344-21.314 21.344z" fill="#8CC153" /><path d="M930.272 627.028c-60.438-60.434-140.778-93.714-226.278-93.714-3.562 0-7.094 0.094-10.656 0.188 81.468 2.656 157.686 35.624 215.622 93.528 60.438 60.438 93.716 140.812 93.716 226.278 0 11.782-9.562 21.344-21.342 21.344h21.342c11.782 0 21.312-9.562 21.312-21.344 0-85.468-33.28-165.844-93.716-226.28z" fill="#FFFFFF" opacity=".2" /><path d="M764.806 621.872c-84.624-84.622-197.122-131.214-316.806-131.214-119.654 0-232.152 46.592-316.774 131.214C46.634 706.464 0.012 818.992 0.012 938.648v21.34h895.978v-21.34c0-119.656-46.592-232.184-131.184-316.776z" fill="#A0D468" /><path d="M764.806 621.872c-84.624-84.622-197.122-131.214-316.806-131.214-7.124 0-14.25 0.188-21.312 0.5 111.652 5.188 215.872 51.156 295.43 130.714 84.624 84.594 131.216 197.122 131.216 316.778v21.34h42.654v-21.34c0.002-119.658-46.59-232.186-131.182-316.778z" fill="#FFFFFF" opacity=".2" /><path d="M213.35 469.314c-35.282 0-64 28.718-64 64s28.718 64 64 64c35.28 0 63.998-28.718 63.998-64s-28.718-64-63.998-64z" fill="#E6E9ED" /><path d="M448.032 554.656c82.934 0 106.654-50.562 106.654-50.562l0.438-0.594c-34.624-8.468-70.53-12.844-107.122-12.844-36.092 0-71.56 4.282-105.81 12.532l-0.844 0.906s23.718 50.562 106.684 50.562z" fill="#434A54" /><path d="M448 533.312c-11.75 0-21.312-9.532-21.312-21.312V85.324c0-11.782 9.562-21.312 21.312-21.312 11.812 0 21.344 9.532 21.344 21.312V512c0 11.782-9.53 21.312-21.344 21.312z" fill="#656D78" /></svg>