<?xml version="1.0" standalone="no"?><!DOCTYPE svg PUBLIC "-//W3C//DTD SVG 1.1//EN" "http://www.w3.org/Graphics/SVG/1.1/DTD/svg11.dtd"><svg class="icon" width="128px" height="128.00px" viewBox="0 0 1024 1024" version="1.1" xmlns="http://www.w3.org/2000/svg"><path d="M853.332 895.984H170.678c-11.782 0-21.344-9.532-21.344-21.31 0-11.782 9.562-21.344 21.344-21.344h682.654c11.782 0 21.344 9.562 21.344 21.344 0 11.78-9.562 21.31-21.344 21.31z" fill="#965353" /><path d="M383.422 290.282c-9.936 0-18.842-7-20.906-17.094L320.986 68.676c-2.344-11.546 5.124-22.812 16.656-25.156 11.562-2.344 22.812 5.11 25.156 16.656l41.53 204.51c2.344 11.532-5.094 22.812-16.656 25.156-1.438 0.282-2.844 0.44-4.25 0.44zM641.462 291.124c-1.312 0-2.656-0.124-3.968-0.376-11.594-2.188-19.218-13.344-17.032-24.906l39.5-209.9c2.188-11.578 13.344-19.188 24.906-17.016 11.592 2.172 19.216 13.328 17.03 24.906L662.4 273.718a21.348 21.348 0 0 1-20.938 17.406z" fill="#434A54" /><path d="M959.986 234.688c0 11.78-9.532 21.312-21.312 21.312s-21.344-9.532-21.344-21.312c0-11.782 9.562-21.342 21.344-21.342s21.312 9.562 21.312 21.342z" fill="#AAB2BC" /><path d="M959.986 192.002c0 11.782-9.532 21.344-21.312 21.344s-21.344-9.562-21.344-21.344c0-11.766 9.562-21.312 21.344-21.312s21.312 9.546 21.312 21.312z" fill="#CCD1D9" /><path d="M959.986 320c0 11.78-9.532 21.342-21.312 21.342S917.33 331.78 917.33 320c0-11.782 9.562-21.312 21.344-21.312s21.312 9.53 21.312 21.312z" fill="#AAB2BC" /><path d="M959.986 277.344c0 11.782-9.532 21.344-21.312 21.344s-21.344-9.562-21.344-21.344S926.892 256 938.674 256s21.312 9.562 21.312 21.344z" fill="#CCD1D9" /><path d="M959.986 149.346c0 11.782-9.532 21.342-21.312 21.342s-21.344-9.562-21.344-21.342 9.562-21.328 21.344-21.328 21.312 9.548 21.312 21.328z" fill="#AAB2BC" /><path d="M959.986 106.692c0 11.782-9.532 21.328-21.312 21.328s-21.344-9.546-21.344-21.328 9.562-21.344 21.344-21.344 21.312 9.562 21.312 21.344z" fill="#CCD1D9" /><path d="M959.986 64.02c0 11.782-9.532 21.328-21.312 21.328s-21.344-9.546-21.344-21.328c0-11.78 9.562-21.328 21.344-21.328s21.312 9.548 21.312 21.328z" fill="#AAB2BC" /><path d="M170.678 1023.982c-11.782 0-21.344-9.532-21.344-21.312V44.912c0-11.782 9.562-21.328 21.344-21.328 11.78 0 21.312 9.546 21.312 21.328v957.758a21.3 21.3 0 0 1-21.312 21.312zM853.332 1023.982c-11.78 0-21.342-9.532-21.342-21.312V44.912c0-11.782 9.562-21.328 21.342-21.328 11.782 0 21.344 9.546 21.344 21.328v957.758c0 11.782-9.562 21.312-21.344 21.312z" fill="#7F4545" /><path d="M511.982 85.348c-327.898 0-469.614-41.794-475.488-43.576-11.282-3.422-17.656-15.328-14.25-26.61A21.364 21.364 0 0 1 48.838 0.928c1.376 0.422 142.778 41.764 463.144 41.764C832.398 42.692 973.768 1.35 975.174 0.928c11.282-3.376 23.156 3 26.562 14.264 3.404 11.282-2.968 23.156-14.218 26.578-5.876 1.782-147.59 43.578-475.536 43.578z" fill="#965353" /><path d="M511.982 213.346c-152.902 0-277.306 124.402-277.306 277.336 0 152.902 124.404 277.304 277.306 277.304 152.95 0 277.352-124.402 277.352-277.304 0-152.934-124.402-277.336-277.352-277.336z" fill="#FFCE54" /><path d="M511.982 661.334c-94.092 0-170.652-76.56-170.652-170.652 0-94.122 76.56-170.682 170.652-170.682 94.138 0 170.7 76.56 170.7 170.682 0 94.092-76.562 170.652-170.7 170.652z m0-298.648c-70.56 0-127.998 57.404-127.998 127.996 0 70.56 57.436 127.996 127.998 127.996 70.606 0 128.012-57.436 128.012-127.996 0-70.592-57.406-127.996-128.012-127.996z" fill="#F6BB42" /><path d="M511.982 426.684c-35.28 0-63.998 28.718-63.998 63.998 0 35.282 28.718 64 63.998 64 35.328 0 64.012-28.718 64.012-64 0-35.28-28.686-63.998-64.012-63.998z" fill="#F6BB42" /><path d="M938.674 682.678c-11.782 0-21.344-9.562-21.344-21.344V362.686c0-11.782 9.562-21.344 21.344-21.344s21.312 9.562 21.312 21.344v298.648c0 11.782-9.53 21.344-21.312 21.344z" fill="#434A54" /><path d="M938.674 639.99c-35.312 0-63.998 28.718-63.998 64 0 35.31 28.686 63.996 63.998 63.996 35.282 0 64-28.686 64-63.996 0-35.282-28.718-64-64-64z" fill="#ED5564" /></svg>