<?xml version="1.0" standalone="no"?><!DOCTYPE svg PUBLIC "-//W3C//DTD SVG 1.1//EN" "http://www.w3.org/Graphics/SVG/1.1/DTD/svg11.dtd"><svg class="icon" width="128px" height="126.64px" viewBox="0 0 1035 1024" version="1.1" xmlns="http://www.w3.org/2000/svg"><path d="M779.06914 396.572H224.67314c-11.75 0-21.312 9.546-21.312 21.328v296.652c0 11.782 9.562 21.312 21.312 21.312 50 0 212.622 45.53 271.09 63.06a20.486 20.486 0 0 0 12.248 0c58.532-17.5 221.31-63.06 271.056-63.06a21.3 21.3 0 0 0 21.312-21.312V417.9c0.002-11.782-9.53-21.328-21.31-21.328z" fill="#656D78" /><path d="M224.67314 735.864c5.75 0 12.968 0.624 21.344 1.688v-340.98h-21.344c-11.75 0-21.312 9.546-21.312 21.328v296.652c0 11.78 9.562 21.312 21.312 21.312z" fill="#FFFFFF" opacity=".1" /><path d="M976.81714 352.824l-469.336-127.936a21.34 21.34 0 0 0-11.216 0L26.92714 352.824a21.32 21.32 0 1 0 0 41.14l469.336 127.936a21.394 21.394 0 0 0 11.216 0l469.336-127.936a21.32 21.32 0 0 0 0.002-41.14z" fill="#434A54" /><path d="M971.22314 501.32c-11.782 0-21.31-9.546-21.31-21.312v-106.606c0-11.782 9.53-21.328 21.31-21.328s21.312 9.546 21.312 21.328v106.606c0 11.766-9.532 21.312-21.312 21.312z" fill="#F6BB42" /><path d="M1031.59714 532.148l-42.624-63.968c-3.968-5.938-10.624-9.5-17.75-9.5s-13.78 3.562-17.748 9.5l-42.624 63.968a21.24 21.24 0 0 0-3.594 11.828v106.608c0 11.782 9.532 21.344 21.312 21.344h85.31c11.782 0 21.31-9.562 21.31-21.344v-106.608c0-4.218-1.248-8.328-3.592-11.828z" fill="#FFCE54" /><path d="M971.22314 394.712H480.79514c-11.75 0-21.312-9.546-21.312-21.312 0-11.782 9.562-21.328 21.312-21.328h490.428c11.782 0 21.312 9.546 21.312 21.328 0 11.766-9.532 21.312-21.312 21.312z" fill="#F6BB42" /></svg>