<?xml version="1.0" standalone="no"?><!DOCTYPE svg PUBLIC "-//W3C//DTD SVG 1.1//EN" "http://www.w3.org/Graphics/SVG/1.1/DTD/svg11.dtd"><svg class="icon" width="128px" height="128.00px" viewBox="0 0 1024 1024" version="1.1" xmlns="http://www.w3.org/2000/svg"><path d="M920.814 772.496l-3.624-1.062c-53-14.25-70.938-27.906-94.5-36.876-83.686-31.876-105.434-54.872-110.996-65.714-0.218-0.406-0.376-0.812-0.562-1.218l-0.688-97.188-198.436-2.25-198.45 2.25-0.688 97.188c-0.172 0.406-0.328 0.812-0.532 1.218-5.562 10.844-27.344 33.84-111.016 65.714-23.592 8.968-41.514 22.624-94.496 36.876l-3.64 1.062c-48.234 15.938-80.688 60.656-80.688 111.124v140.372H1001.5V883.62c0-50.468-32.438-95.186-80.686-111.124z" fill="#DBAFA5" /><path d="M787.376 382.378c0 178.934-170.556 343.556-275.37 343.556-104.794 0-275.356-164.622-275.356-343.556 0-178.918 123.28-296.964 275.356-296.964 152.062 0 275.37 118.044 275.37 296.964z" fill="#EAC6BB" /><path d="M767.752 127.164H255.778c-11.796 0-21.36 9.546-21.36 21.344v170.826c0 9.796 6.656 18.328 16.14 20.704 3.578 0.906 89.454 22 261.45 22 171.998 0 257.432-21.094 260.962-22a21.362 21.362 0 0 0 16.124-20.704V148.506c0.002-11.796-9.56-21.342-21.342-21.342z" fill="#656D78" /><path d="M964.438 85.79L516.024 0.384c-2.64-0.5-5.344-0.5-7.984 0L59.624 85.79a21.362 21.362 0 0 0-17.36 20.984c0 10.25 7.282 19.046 17.36 20.968l448.414 85.42a21.364 21.364 0 0 0 7.984 0l448.414-85.42c10.062-1.922 17.376-10.718 17.376-20.968s-7.312-19.064-17.374-20.984z" fill="#434A54" /><path d="M960.438 276.628c-11.782 0-21.342-9.562-21.342-21.358V106.774c0-11.796 9.56-21.36 21.342-21.36 11.812 0 21.376 9.562 21.376 21.36v148.498c-0.002 11.796-9.564 21.356-21.376 21.356z" fill="#FFCE54" /><path d="M920.814 772.496l-3.624-1.062c-53-14.25-70.938-27.906-94.5-36.876-32.844-12.5-56.124-23.656-72.688-33.25l-237.994 173.188-237.434-173.5c-16.562 9.624-40.016 20.876-73.25 33.562-23.592 8.968-41.514 22.624-94.496 36.876l-3.64 1.062c-48.234 15.938-80.688 60.656-80.688 111.124v140.372h979V883.62c0-50.468-32.438-95.186-80.686-111.124z" fill="#48CFAD" /><path d="M960.438 128.116h-448.68c-11.796 0-21.36-9.562-21.36-21.342 0-11.796 9.562-21.36 21.36-21.36h448.68c11.812 0 21.376 9.562 21.376 21.36-0.002 11.78-9.564 21.342-21.376 21.342z" fill="#FFCE54" /></svg>