<?xml version="1.0" standalone="no"?><!DOCTYPE svg PUBLIC "-//W3C//DTD SVG 1.1//EN" "http://www.w3.org/Graphics/SVG/1.1/DTD/svg11.dtd"><svg class="icon" width="128px" height="128.00px" viewBox="0 0 1024 1024" version="1.1" xmlns="http://www.w3.org/2000/svg"><path d="M689.558 347.074l-1.594-0.438c-22.968-6.188-30.75-12.094-40.968-16-36.28-13.812-45.716-23.782-48.154-28.5-0.062-0.156-0.156-0.344-0.218-0.532l-0.312-42.124-86.062-1-86.062 1-0.282 42.124c-0.094 0.188-0.156 0.376-0.25 0.532-2.406 4.718-11.842 14.688-48.124 28.5-10.25 3.906-18 9.812-41 16l-1.562 0.438c-20.938 6.906-35 26.312-35 48.218v144.622h424.584v-144.622c0.002-21.906-14.09-41.312-34.996-48.218z" fill="#48CFAD" /><path d="M399.438 321.292l112.81 70.03 113.062-69.906c-18.718-9.062-24.624-15.688-26.468-19.282-0.062-0.156-0.156-0.344-0.218-0.532l-0.312-42.124-86.062-1-86.062 1-0.282 42.124c-0.094 0.188-0.156 0.376-0.25 0.532-1.812 3.566-7.688 10.158-26.218 19.158z" fill="#DBAFA5" /><path d="M806.242 477.04a21.32 21.32 0 0 0-16.5-7.782H234.286a21.276 21.276 0 0 0-16.5 7.782 21.35 21.35 0 0 0-4.438 17.718l42.656 213.276c2 10 10.75 17.156 20.936 17.156h470.148c10.154 0 18.904-7.156 20.904-17.156l42.656-213.276a21.334 21.334 0 0 0-4.406-17.718z" fill="#A85D5D" /><path d="M704.214 554.57h-383.9c-11.782 0-21.344 9.532-21.344 21.312v426.586c0 11.782 9.562 21.344 21.344 21.344h383.9c11.782 0 21.342-9.562 21.342-21.344V575.882c0-11.78-9.56-21.312-21.342-21.312z" fill="#965353" /><path d="M490.688 554.57h42.654v469.242h-42.654zM639.998 1024l-1.406-170.652c0-0.376 0-0.75 0.032-1.124 0.938-21.782 20.342-63.032 86.934-63.032v42.656c-38.31 0-43.592 17.562-44.31 22.344l1.406 169.434-42.656 0.374zM384.034 746.536c11.782 0 21.342-9.562 21.342-21.344v-170.622H362.72v170.622c0 11.78 9.532 21.344 21.314 21.344zM426.688 959.812c-11.78 0-21.312 9.562-21.312 21.344v42.656h42.656v-42.656c0-11.78-9.564-21.344-21.344-21.344z" fill="#7F4545" /><path d="M631.686 177.92c0 77.592-73.968 148.998-119.436 148.998-45.436 0-119.404-71.406-119.404-148.998 0-77.624 53.466-128.81 119.404-128.81 65.966 0 119.436 51.186 119.436 128.81z" fill="#EAC6BB" /><path d="M618.28 65.986H404.97c-11.75 0-21.312 9.532-21.312 21.312v74.092c0 9.688 6.532 18.156 15.936 20.624 1.532 0.406 38.874 9.968 112.154 9.968s110.406-9.562 111.968-9.968a21.326 21.326 0 0 0 15.906-20.624V87.296c0.002-11.78-9.562-21.31-21.342-21.31z" fill="#656D78" /><path d="M708.214 43.172L516.248 0.516a20.986 20.986 0 0 0-9.25 0l-191.964 42.656c-9.75 2.188-16.688 10.844-16.688 20.812 0 10 6.938 18.656 16.688 20.842L507 127.484c1.532 0.344 3.094 0.5 4.624 0.5 1.562 0 3.124-0.156 4.624-0.5l191.966-42.656a21.354 21.354 0 0 0 16.716-20.842c0.002-9.97-6.934-18.626-16.716-20.814z" fill="#434A54" /></svg>