<?xml version="1.0" standalone="no"?><!DOCTYPE svg PUBLIC "-//W3C//DTD SVG 1.1//EN" "http://www.w3.org/Graphics/SVG/1.1/DTD/svg11.dtd"><svg class="icon" width="128px" height="128.00px" viewBox="0 0 1024 1024" version="1.1" xmlns="http://www.w3.org/2000/svg"><path d="M256.014 1023.988h-42.67c-11.782 0-21.328-9.532-21.328-21.312s9.546-21.344 21.328-21.344h42.67c11.78 0 21.328 9.562 21.328 21.344s-9.548 21.312-21.328 21.312zM682.66 1023.988h-42.656c-11.782 0-21.344-9.532-21.344-21.312s9.562-21.344 21.344-21.344h42.656c11.78 0 21.342 9.562 21.342 21.344s-9.562 21.312-21.342 21.312z" fill="#434A54" /><path d="M853.342 917.334H768c-11.782 0-21.344-9.532-21.344-21.344V874.68H682.66c-11.782 0-21.344-9.562-21.344-21.344s9.562-21.344 21.344-21.344H768c11.782 0 21.344 9.562 21.344 21.344v21.344h63.998c11.782 0 21.312 9.56 21.312 21.31 0 11.812-9.53 21.344-21.312 21.344z" fill="#F6BB42" /><path d="M448.008 746.682c-11.782 0-21.328-9.562-21.328-21.344V661.34c0-11.782 9.546-21.344 21.328-21.344 11.78 0 21.328 9.562 21.328 21.344v63.998c0 11.782-9.546 21.344-21.328 21.344zM277.34 661.34c-11.782 0-21.328-9.532-21.328-21.344v-42.654c0-11.782 9.546-21.344 21.328-21.344 11.796 0 21.342 9.562 21.342 21.344v42.654a21.32 21.32 0 0 1-21.342 21.344z" fill="#CCD1D9" /><path d="M405.338 597.342h-85.326c-11.782 0-21.328-9.532-21.328-21.344 0-11.75 9.546-21.31 21.328-21.31h85.326c11.796 0 21.342 9.56 21.342 21.31a21.32 21.32 0 0 1-21.342 21.344z" fill="#434A54" /><path d="M490.68 468.438h-85.342c-11.782 0-21.328 9.532-21.328 21.312 0 4.438 0.25 109.186 21.938 197.996a21.328 21.328 0 0 0 20.734 16.25h42.656c9.844 0 18.39-6.688 20.734-16.25 21.686-88.81 21.936-193.558 21.936-197.996-0.002-11.782-9.548-21.312-21.328-21.312z" fill="#F6BB42" /><path d="M682.66 703.996H213.342c-11.782 0-21.328 9.562-21.328 21.342v255.994c0 11.782 9.546 21.344 21.328 21.344H682.66c11.78 0 21.342-9.562 21.342-21.344V725.338c0-11.78-9.562-21.342-21.342-21.342z" fill="#965353" /><path d="M725.314 1002.676H170.688c-11.782 0-21.328-9.562-21.328-21.344s9.546-21.344 21.328-21.344h554.626c11.81 0 21.342 9.562 21.342 21.344s-9.532 21.344-21.342 21.344zM725.314 746.682H170.688c-11.782 0-21.328-9.562-21.328-21.344 0-11.78 9.546-21.342 21.328-21.342h554.626c11.81 0 21.342 9.562 21.342 21.342 0 11.782-9.532 21.344-21.342 21.344z" fill="#7F4545" /><path d="M640.004 661.34H256.014c-11.782 0-21.328 9.562-21.328 21.344s9.546 21.312 21.328 21.312h383.99c11.782 0 21.312-9.532 21.312-21.312s-9.53-21.344-21.312-21.344z" fill="#434A54" /><path d="M725.314 256.006c0 129.622-124.154 234.682-277.306 234.682-153.168 0-277.322-105.06-277.322-234.682 0-129.59 124.154-234.65 277.322-234.65 153.152 0 277.306 105.06 277.306 234.65z" fill="#F6BB42" /><path d="M448.008 269.35c-11.782 0-21.328-9.532-21.328-21.344V21.356c0-11.782 9.546-21.344 21.328-21.344 11.78 0 21.328 9.562 21.328 21.344v226.65c0 11.812-9.546 21.344-21.328 21.344zM448.008 512c-11.782 0-21.328-9.532-21.328-21.312v-127.996c0-11.782 9.546-21.344 21.328-21.344 11.78 0 21.328 9.562 21.328 21.344v127.996c0 11.78-9.546 21.312-21.328 21.312zM448.024 326.692a21.356 21.356 0 0 1-17.812-9.562 21.328 21.328 0 0 1 6.032-29.56c24.436-16.156 79.078-29.5 167.01-40.812 62.812-8.062 120.06-11.968 120.624-12.032 11.78-0.782 21.936 8.094 22.748 19.844 0.782 11.75-8.094 21.938-19.842 22.75-0.562 0.032-56.716 3.876-118.28 11.782-36.312 4.688-123.434 17.342-148.73 34.06a21.392 21.392 0 0 1-11.75 3.53zM383.994 326.692c-3.156 0-6.376-0.718-9.406-2.188-24.25-11.968-67.388-23.906-124.746-34.53-44.218-8.218-81.342-12.718-81.702-12.782-11.704-1.406-20.046-12.032-18.64-23.718s12.032-20.032 23.734-18.624c6.25 0.75 154.074 18.812 220.198 51.376 10.578 5.188 14.922 17.998 9.718 28.56a21.346 21.346 0 0 1-19.156 11.906z" fill="#FFCE54" /><path d="M448.024 326.692a21.34 21.34 0 0 1-19.844-13.468c-60.374-152.184-173.714-212.62-174.854-213.212-10.438-5.438-14.5-18.344-9.062-28.782 5.454-10.436 18.328-14.498 28.78-9.06 5.218 2.716 128.622 68.53 194.792 235.338 4.344 10.936-1.016 23.342-11.954 27.686a21.862 21.862 0 0 1-7.858 1.498z" fill="#FFCE54" /><path d="M448.008 326.692c-2.704 0-5.438-0.5-8.078-1.594-10.906-4.468-16.124-16.938-11.656-27.842 69.92-170.746 189.886-232.684 194.948-235.212 10.532-5.312 23.376-1.062 28.656 9.466 5.312 10.5 1.062 23.344-9.468 28.624-0.218 0.124-28.062 14.5-63.344 47.904-32.466 30.718-78.122 84.342-111.308 165.402a21.368 21.368 0 0 1-19.75 13.252z" fill="#FFCE54" /><path d="M616.286 463.876a21.362 21.362 0 0 1-15.656-6.842c-0.312-0.312-31.248-33.656-66.826-66.718-66.544-61.874-85.404-63.592-86.168-63.624-11.782-0.188-21.156-9.906-20.968-21.688 0.188-11.654 9.718-20.998 21.344-20.998 0.11 0 0.218 0.032 0.344 0.032 15.936 0.25 43.312 8.938 113.934 74.53 37.03 34.374 68.342 68.06 69.654 69.466 8 8.656 7.5 22.124-1.156 30.154a21.228 21.228 0 0 1-14.502 5.688z" fill="#FFCE54" /><path d="M277.34 458a21.22 21.22 0 0 1-14.718-5.874c-8.53-8.156-8.842-21.656-0.704-30.188 1.234-1.282 30.64-32 67.03-64.154 77.06-68.092 106.45-72.216 116.09-73.56 11.67-1.624 22.452 6.5 24.092 18.154 1.64 11.688-6.5 22.468-18.156 24.094-31 4.344-111.17 75.686-158.2 124.936-4.184 4.406-9.808 6.592-15.434 6.592z" fill="#FFCE54" /><path d="M512.006 305.348c0 31.656-28.656 57.344-63.998 57.344s-64-25.688-64-57.344c0-31.654 28.656-57.342 64-57.342s63.998 25.688 63.998 57.342z" fill="#E2A437" /><path d="M597.316 895.99V810.68c-11.782 0-21.312-9.562-21.312-21.344H320.012c0 11.782-9.546 21.344-21.328 21.344v85.31c11.782 0 21.328 9.562 21.328 21.344h255.992c0-11.782 9.532-21.344 21.312-21.344z" fill="#FFCE54" /><path d="M576.004 938.676H320.012c-11.782 0-21.328-9.562-21.328-21.342a21.332 21.332 0 0 1-21.342-21.344V810.68c0-11.782 9.562-21.344 21.342-21.344 0-11.782 9.546-21.344 21.328-21.344h255.992c11.782 0 21.312 9.562 21.312 21.344 11.812 0 21.344 9.562 21.344 21.344v85.31a21.314 21.314 0 0 1-21.344 21.344c0 11.78-9.53 21.342-21.312 21.342zM335.62 895.99h224.76a43.188 43.188 0 0 1 15.624-15.592v-54.124a42.978 42.978 0 0 1-15.624-15.594H335.62a42.934 42.934 0 0 1-15.608 15.594v54.124a43.128 43.128 0 0 1 15.608 15.592z" fill="#F6BB42" /><path d="M277.34 512c-35.28 0-63.998 28.718-63.998 63.998 0 35.312 28.718 63.998 63.998 63.998 35.296 0 63.998-28.686 63.998-63.998 0-35.28-28.702-63.998-63.998-63.998z" fill="#656D78" /><path d="M448.008 512c-79.108 0-153.652-26.188-209.87-73.748-57.264-48.468-88.78-113.186-88.78-182.246s31.514-133.746 88.78-182.184C294.356 26.23 368.9 0.012 448.008 0.012c79.124 0 153.652 26.218 209.87 73.81 57.248 48.438 88.778 113.124 88.778 182.184s-31.53 133.778-88.778 182.246C601.66 485.812 527.132 512 448.008 512z m0-469.3c-141.154 0-255.994 95.686-255.994 213.306 0 117.654 114.84 213.338 255.994 213.338 141.152 0 255.994-95.684 255.994-213.338 0-117.622-114.842-213.306-255.994-213.306z" fill="#FFCE54" /></svg>