<?xml version="1.0" standalone="no"?><!DOCTYPE svg PUBLIC "-//W3C//DTD SVG 1.1//EN" "http://www.w3.org/Graphics/SVG/1.1/DTD/svg11.dtd"><svg class="icon" width="128px" height="128.00px" viewBox="0 0 1024 1024" version="1.1" xmlns="http://www.w3.org/2000/svg"><path d="M691.496 0.008H332.502l-76.498 76.498v947.486h106.67V1002.68h298.634v21.312h106.688V76.506z" fill="#A85D5D" /><path d="M362.674 490.686h297.542V1002.68H362.674z" fill="#5D9CEC" /><path d="M661.308 490.686h106.688v533.306h-106.688z" fill="#965353" /><path d="M597.31 810.684c0 47.122-38.186 85.308-85.31 85.308s-85.328-38.188-85.328-85.308c0-47.124 38.202-85.344 85.328-85.344s85.31 38.218 85.31 85.344z" fill="#FFCE54" /><path d="M512 917.336c-58.812 0-106.67-47.844-106.67-106.652 0-58.812 47.86-106.688 106.67-106.688 58.812 0 106.686 47.876 106.686 106.688 0 58.808-47.874 106.652-106.686 106.652z m0-170.652c-35.296 0-64 28.718-64 64s28.702 63.996 64 63.996c35.282 0 63.998-28.714 63.998-63.996s-28.716-64-63.998-64z" fill="#F6BB42" /><path d="M490.672 490.686h42.656V725.34h-42.656zM533.328 810.684c0 11.75-9.532 21.344-21.328 21.344s-21.328-9.594-21.328-21.344S500.204 789.34 512 789.34s21.328 9.594 21.328 21.344z" fill="#F6BB42" /><path d="M426.672 661.34c11.782 0 21.328-9.532 21.328-21.344v-149.31h-42.672v149.31a21.334 21.334 0 0 0 21.344 21.344zM597.31 661.34c11.812 0 21.376-9.532 21.376-21.344v-149.31h-42.688v149.31c0 11.812 9.562 21.344 21.312 21.344z" fill="#434A54" /><path d="M406.408 362.408c-58.312-58.312-58.312-152.84 0-211.184 58.312-58.31 152.874-58.31 211.184 0 58.31 58.344 58.31 152.874 0 211.216-58.31 58.31-152.874 58.31-211.184-0.032z" fill="#FFCE54" /><path d="M512 427.5c-45.594 0-88.452-17.75-120.686-50-32.234-32.216-49.984-75.092-49.984-120.684 0-45.562 17.75-88.436 49.984-120.654 32.234-32.25 75.092-50 120.686-50 45.562 0 88.436 17.75 120.684 50 66.532 66.53 66.532 174.81 0 241.338-32.248 32.25-75.09 50-120.684 50z m0-298.682c-34.188 0-66.328 13.312-90.514 37.5-24.17 24.188-37.484 56.312-37.484 90.5s13.312 66.342 37.484 90.53c24.188 24.156 56.328 37.468 90.514 37.468s66.31-13.312 90.498-37.468c49.936-49.906 49.936-131.122 0-181.028C578.31 142.13 546.188 128.818 512 128.818z" fill="#F6BB42" /><path d="M587.436 302.096l-54.108-54.092v-76.5c0-11.782-9.546-21.344-21.328-21.344s-21.328 9.562-21.328 21.344v85.312c0 5.906 2.39 11.25 6.25 15.092l60.328 60.344a21.35 21.35 0 0 0 30.186 0c8.312-8.342 8.312-21.842 0-30.156z" fill="#434A54" /><path d="M767.996 554.688A21.3 21.3 0 0 0 746.684 576c0 11.812 9.532 21.344 21.312 21.344v-42.656zM767.996 639.996c-11.782 0-21.312 9.562-21.312 21.344s9.532 21.344 21.312 21.344v-42.688zM767.996 725.34c-11.782 0-21.312 9.562-21.312 21.344s9.532 21.312 21.312 21.312V725.34zM767.996 810.684a21.3 21.3 0 0 0-21.312 21.312c0 11.812 9.532 21.34 21.312 21.34v-42.652zM767.996 895.992c-11.782 0-21.312 9.562-21.312 21.344s9.532 21.344 21.312 21.344v-42.688z" fill="#7F4545" /><path d="M256.004 490.686h106.67v533.306h-106.67z" fill="#965353" /><path d="M256.004 554.688c11.782 0 21.328 9.532 21.328 21.312 0 11.812-9.546 21.344-21.328 21.344v-42.656zM256.004 639.996c11.782 0 21.328 9.562 21.328 21.344s-9.546 21.344-21.328 21.344v-42.688zM256.004 725.34c11.782 0 21.328 9.562 21.328 21.344s-9.546 21.312-21.328 21.312V725.34zM256.004 810.684c11.782 0 21.328 9.532 21.328 21.312 0 11.812-9.546 21.34-21.328 21.34v-42.652zM256.004 895.992c11.782 0 21.328 9.562 21.328 21.344s-9.546 21.344-21.328 21.344v-42.688z" fill="#7F4545" /></svg>