<?xml version="1.0" standalone="no"?><!DOCTYPE svg PUBLIC "-//W3C//DTD SVG 1.1//EN" "http://www.w3.org/Graphics/SVG/1.1/DTD/svg11.dtd"><svg class="icon" width="128px" height="128.00px" viewBox="0 0 1024 1024" version="1.1" xmlns="http://www.w3.org/2000/svg"><path d="M383.622 107.712c-92.592 9.718-268.244 135.09-266.026 156.23 2.218 21.156 200.122 107.294 292.682 97.56 92.56-9.718 161.652-74.42 154.276-144.496-7.374-70.092-88.372-119.012-180.932-109.294z" fill="#8CC153" /><path d="M650.428 21.338c0-11.782-9.562-21.328-21.344-21.328-3 0-5.844 0.61-8.406 1.718-3.406 1.468-28.248 13.032-52.124 49.078-30.716 46.358-46.248 111.138-46.124 192.558l42.654-0.062c-0.062-48.608 6.282-116.794 36.904-165.622 17.688-28.248 35.532-36.748 35.718-36.826l-0.188 0.078c7.598-3.28 12.91-10.812 12.91-19.594z" fill="#A0D468" /><path d="M650.428 917.304c0-58.876-47.75-106.652-106.652-106.652-58.936 0-106.686 47.778-106.686 106.652 0 58.938 47.75 106.684 106.686 106.684 58.902 0 106.652-47.746 106.652-106.684z" fill="#AC92EB" /><path d="M522.432 874.648c0 11.782-9.562 21.344-21.342 21.344s-21.312-9.562-21.312-21.344 9.532-21.344 21.312-21.344 21.342 9.564 21.342 21.344z" fill="#FFFFFF" opacity=".2" /><path d="M735.77 767.996c0-58.938-47.78-106.688-106.686-106.688-58.904 0-106.652 47.75-106.652 106.688 0 58.902 47.748 106.652 106.652 106.652 58.906 0 106.686-47.75 106.686-106.652z" fill="#9782D8" /><path d="M607.772 725.308a21.332 21.332 0 0 1-21.342 21.344c-11.782 0-21.344-9.532-21.344-21.344 0-11.75 9.562-21.312 21.344-21.312 11.778 0 21.342 9.562 21.342 21.312z" fill="#FFFFFF" opacity=".2" /><path d="M565.086 767.996c0-58.938-47.748-106.688-106.654-106.688-58.904 0-106.654 47.75-106.654 106.688 0 58.902 47.75 106.652 106.654 106.652 58.906 0 106.654-47.75 106.654-106.652z" fill="#9782D8" /><path d="M437.09 725.308c0 11.812-9.532 21.344-21.312 21.344a21.332 21.332 0 0 1-21.342-21.344c0-11.75 9.562-21.312 21.342-21.312s21.312 9.562 21.312 21.312z" fill="#FFFFFF" opacity=".2" /><path d="M394.434 469.33c0-58.904-47.75-106.67-106.654-106.67-58.936 0-106.684 47.766-106.684 106.67 0 58.906 47.748 106.67 106.684 106.67 58.906 0 106.654-47.766 106.654-106.67z" fill="#9782D8" /><path d="M266.438 426.658c0 11.782-9.562 21.328-21.344 21.328s-21.312-9.546-21.312-21.328c0-11.78 9.53-21.328 21.312-21.328s21.344 9.548 21.344 21.328z" fill="#FFFFFF" opacity=".2" /><path d="M906.424 469.33c0-58.904-47.75-106.67-106.656-106.67-58.936 0-106.684 47.766-106.684 106.67 0 58.906 47.748 106.67 106.684 106.67 58.906 0 106.656-47.766 106.656-106.67z" fill="#9782D8" /><path d="M778.424 426.658c0 11.782-9.56 21.328-21.342 21.328s-21.312-9.546-21.312-21.328c0-11.78 9.532-21.328 21.312-21.328s21.342 9.548 21.342 21.328z" fill="#FFFFFF" opacity=".2" /><path d="M821.08 618.656c0-58.906-47.748-106.672-106.652-106.672-58.906 0-106.688 47.766-106.688 106.672 0 58.902 47.782 106.652 106.688 106.652 58.904 0 106.652-47.75 106.652-106.652z" fill="#AC92EB" /><path d="M693.084 576c0 11.75-9.532 21.312-21.344 21.312-11.75 0-21.312-9.562-21.312-21.312 0-11.812 9.562-21.344 21.312-21.344A21.314 21.314 0 0 1 693.084 576z" fill="#FFFFFF" opacity=".2" /><path d="M479.776 618.656c0-58.906-47.78-106.672-106.686-106.672-58.904 0-106.654 47.766-106.654 106.672 0 58.902 47.75 106.652 106.654 106.652 58.906 0 106.686-47.75 106.686-106.652z" fill="#AC92EB" /><path d="M351.78 576c0 11.75-9.562 21.312-21.344 21.312-11.78 0-21.342-9.562-21.342-21.312a21.332 21.332 0 0 1 21.342-21.344c11.78 0 21.344 9.532 21.344 21.344z" fill="#FFFFFF" opacity=".2" /><path d="M650.428 618.656c0-58.906-47.75-106.672-106.652-106.672-58.936 0-106.686 47.766-106.686 106.672 0 58.902 47.75 106.652 106.686 106.652 58.902 0 106.652-47.75 106.652-106.652z" fill="#9782D8" /><path d="M522.432 576c0 11.75-9.562 21.312-21.342 21.312s-21.312-9.562-21.312-21.312c0-11.812 9.532-21.344 21.312-21.344s21.342 9.532 21.342 21.344z" fill="#FFFFFF" opacity=".2" /><path d="M565.086 469.33c0-58.904-47.748-106.67-106.654-106.67-58.904 0-106.654 47.766-106.654 106.67 0 58.906 47.75 106.67 106.654 106.67 58.906 0 106.654-47.766 106.654-106.67z" fill="#AC92EB" /><path d="M437.09 426.658c0 11.782-9.532 21.328-21.312 21.328-11.78 0-21.342-9.546-21.342-21.328 0-11.78 9.562-21.328 21.342-21.328 11.78 0.002 21.312 9.548 21.312 21.328z" fill="#FFFFFF" opacity=".2" /><path d="M735.77 469.33c0-58.904-47.78-106.67-106.686-106.67-58.904 0-106.652 47.766-106.652 106.67 0 58.906 47.748 106.67 106.652 106.67 58.906 0 106.686-47.766 106.686-106.67z" fill="#AC92EB" /><path d="M607.772 426.658c0 11.782-9.562 21.328-21.342 21.328-11.782 0-21.344-9.546-21.344-21.328 0-11.78 9.562-21.328 21.344-21.328 11.778 0.002 21.342 9.548 21.342 21.328z" fill="#FFFFFF" opacity=".2" /><path d="M479.746 319.99c0-58.906-47.75-106.654-106.654-106.654-58.904 0-106.654 47.748-106.654 106.654 0 58.92 47.75 106.668 106.654 106.668 58.904 0 106.654-47.748 106.654-106.668z" fill="#AC92EB" /><path d="M351.78 277.334c0 11.782-9.562 21.328-21.344 21.328-11.78 0-21.342-9.546-21.342-21.328s9.562-21.342 21.342-21.342c11.78-0.002 21.344 9.56 21.344 21.342z" fill="#FFFFFF" opacity=".2" /><path d="M821.08 319.99c0-58.906-47.748-106.654-106.652-106.654-58.906 0-106.688 47.748-106.688 106.654 0 58.92 47.782 106.668 106.688 106.668 58.904 0 106.652-47.748 106.652-106.668z" fill="#AC92EB" /><path d="M693.084 277.334c0 11.782-9.532 21.328-21.344 21.328-11.75 0-21.312-9.546-21.312-21.328s9.562-21.342 21.312-21.342c11.812-0.002 21.344 9.56 21.344 21.342z" fill="#FFFFFF" opacity=".2" /><path d="M650.428 319.99c0-58.906-47.75-106.654-106.684-106.654-58.906 0-106.654 47.748-106.654 106.654 0 58.92 47.75 106.668 106.654 106.668 58.934 0 106.684-47.748 106.684-106.668z" fill="#9782D8" /><path d="M522.432 277.334c0 11.782-9.562 21.328-21.342 21.328s-21.344-9.546-21.344-21.328 9.562-21.342 21.344-21.342 21.342 9.56 21.342 21.342z" fill="#FFFFFF" opacity=".2" /></svg>