<?xml version="1.0" standalone="no"?><!DOCTYPE svg PUBLIC "-//W3C//DTD SVG 1.1//EN" "http://www.w3.org/Graphics/SVG/1.1/DTD/svg11.dtd"><svg class="icon" width="128px" height="128.00px" viewBox="0 0 1024 1024" version="1.1" xmlns="http://www.w3.org/2000/svg"><path d="M192.012 778.644H64.018c-11.782 0-21.328 9.562-21.328 21.344v63.996c0 11.782 9.546 21.344 21.328 21.344h127.994c11.782 0 21.328-9.562 21.328-21.344v-63.996c0-11.78-9.546-21.344-21.328-21.344zM959.982 778.644h-127.994c-11.782 0-21.312 9.562-21.312 21.344v63.996c0 11.782 9.532 21.344 21.312 21.344h127.994c11.78 0 21.31-9.562 21.31-21.344v-63.996c0-11.78-9.53-21.344-21.31-21.344z" fill="#7F4545" /><path d="M959.982 138.672h-21.312c-3.312 0-6.594 0.782-9.562 2.25l-33.124 16.562-33.124-16.562c-6-3-13.06-3-19.06 0l-33.124 16.562-33.124-16.562a21.444 21.444 0 0 0-19.124 0l-33.124 16.562-33.124-16.562c-6-3-13.062-3-19.062 0l-33.122 16.562-33.124-16.562c-6-3-13.062-3-19.062 0l-33.124 16.562-33.138-16.562a21.376 21.376 0 0 0-19.092 0l-33.124 16.562-33.124-16.562c-6-3-13.078-3-19.078 0l-33.124 16.562-33.124-16.562a21.346 21.346 0 0 0-19.078 0l-33.122 16.562-33.124-16.562a21.38 21.38 0 0 0-19.094 0l-33.124 16.562-33.124-16.562c-6-3-13.062-3-19.078 0l-33.122 16.562-33.124-16.562a21.548 21.548 0 0 0-9.546-2.25H64.018c-11.782 0-21.328 9.562-21.328 21.342v383.984c0 11.782 9.546 21.344 21.328 21.344h895.964c11.78 0 21.31-9.562 21.31-21.344V160.014c0-11.78-9.53-21.342-21.31-21.342z" fill="#A0D468" /><path d="M959.982 138.672h-21.312c-3.312 0-6.594 0.782-9.562 2.25l-33.124 16.562-33.124-16.562c-6-3-13.06-3-19.06 0l-33.124 16.562-33.124-16.562a21.444 21.444 0 0 0-19.124 0l-33.124 16.562-33.124-16.562c-6-3-13.062-3-19.062 0l-33.122 16.562-33.124-16.562c-6-3-13.062-3-19.062 0l-33.124 16.562-33.138-16.562a21.376 21.376 0 0 0-19.092 0l-33.124 16.562-33.124-16.562c-6-3-13.078-3-19.078 0l-33.124 16.562-33.124-16.562a21.346 21.346 0 0 0-19.078 0l-33.122 16.562-33.124-16.562a21.38 21.38 0 0 0-19.094 0l-33.124 16.562-33.124-16.562c-6-3-13.062-3-19.078 0l-33.122 16.562-33.124-16.562a21.548 21.548 0 0 0-9.546-2.25H64.018c-11.782 0-21.328 9.562-21.328 21.342v42.654c0-11.782 9.546-21.312 21.328-21.312h21.328c3.312 0 6.578 0.75 9.546 2.25l33.124 16.562 33.122-16.562c6.016-3 13.078-3 19.078 0l33.124 16.562 33.124-16.562a21.38 21.38 0 0 1 19.094 0l33.124 16.562 33.122-16.562c6-3 13.062-3 19.078 0l33.124 16.562 33.124-16.562c6-3 13.078-3 19.078 0l33.124 16.562 33.124-16.562c6.014-3 13.078-3 19.092 0l33.138 16.562 33.124-16.562c6-3 13.062-3 19.062 0l33.124 16.562 33.122-16.562c6-3 13.062-3 19.062 0l33.124 16.562 33.124-16.562c6.03-3 13.092-3 19.124 0l33.124 16.562 33.124-16.562c6-3 13.06-3 19.06 0l33.124 16.562 33.124-16.562a21.19 21.19 0 0 1 9.562-2.25h21.312c11.78 0 21.31 9.532 21.31 21.312V160.014c0-11.78-9.53-21.342-21.31-21.342z" fill="#FFFFFF" opacity=".2" /><path d="M128.016 565.342c-11.782 0-21.328-9.562-21.328-21.344V330.664c0-11.782 9.546-21.312 21.328-21.312 11.78 0 21.328 9.532 21.328 21.312v213.334c0 11.782-9.548 21.344-21.328 21.344zM213.34 565.342c-11.782 0-21.328-9.562-21.328-21.344V330.664c0-11.782 9.546-21.312 21.328-21.312 11.78 0 21.342 9.532 21.342 21.312v213.334c0.002 11.782-9.56 21.344-21.342 21.344zM298.682 565.342c-11.782 0-21.344-9.562-21.344-21.344V330.664c0-11.782 9.562-21.312 21.344-21.312 11.78 0 21.326 9.532 21.326 21.312v213.334c0 11.782-9.548 21.344-21.326 21.344zM384.006 565.342c-11.782 0-21.328-9.562-21.328-21.344V330.664c0-11.782 9.546-21.312 21.328-21.312 11.78 0 21.328 9.532 21.328 21.312v213.334c0 11.782-9.548 21.344-21.328 21.344zM469.33 565.342c-11.782 0-21.328-9.562-21.328-21.344V330.664c0-11.782 9.546-21.312 21.328-21.312 11.78 0 21.342 9.532 21.342 21.312v213.334c0 11.782-9.562 21.344-21.342 21.344zM554.686 565.342c-11.796 0-21.358-9.562-21.358-21.344V330.664c0-11.782 9.56-21.312 21.358-21.312 11.75 0 21.312 9.532 21.312 21.312v213.334c0 11.782-9.562 21.344-21.312 21.344zM639.996 565.342c-11.782 0-21.31-9.562-21.31-21.344V330.664a21.296 21.296 0 0 1 21.31-21.312c11.78 0 21.308 9.532 21.308 21.312v213.334c0 11.782-9.528 21.344-21.308 21.344zM725.304 565.342c-11.75 0-21.312-9.562-21.312-21.344V330.664c0-11.782 9.562-21.312 21.312-21.312 11.81 0 21.374 9.532 21.374 21.312v213.334c0 11.782-9.562 21.344-21.374 21.344zM810.676 565.342c-11.812 0-21.376-9.562-21.376-21.344V330.664c0-11.782 9.562-21.312 21.376-21.312 11.75 0 21.312 9.532 21.312 21.312v213.334c0 11.782-9.562 21.344-21.312 21.344zM895.984 565.342c-11.782 0-21.31-9.562-21.31-21.344V330.664c0-11.782 9.53-21.312 21.31-21.312s21.312 9.532 21.312 21.312v213.334c0 11.782-9.53 21.344-21.312 21.344z" fill="#8CC153" /><path d="M1002.666 522.656H21.348c-11.78 0-21.326 9.56-21.326 21.342v255.99c0 11.78 9.546 21.342 21.326 21.342h981.318c11.75 0 21.312-9.562 21.312-21.342V543.998c0-11.782-9.562-21.342-21.312-21.342z" fill="#965353" /><path d="M149.344 629.34h725.33v85.306H149.344z" fill="#FFCE54" /></svg>