<?xml version="1.0" standalone="no"?><!DOCTYPE svg PUBLIC "-//W3C//DTD SVG 1.1//EN" "http://www.w3.org/Graphics/SVG/1.1/DTD/svg11.dtd"><svg class="icon" width="128px" height="128.00px" viewBox="0 0 1024 1024" version="1.1" xmlns="http://www.w3.org/2000/svg"><path d="M725.316 0.012H298.684c-11.782 0-21.342 9.546-21.342 21.328v194.666c0 11.782 9.562 21.328 21.342 21.328h426.632c11.81 0 21.374-9.546 21.374-21.328V21.34c0-11.78-9.564-21.328-21.374-21.328zM704.004 194.68H320.012V42.684h383.992V194.68z" fill="#CCD1D9" /><path d="M725.316 0.012H298.684c-11.782 0-21.342 9.546-21.342 21.328v85.342h469.348V21.34c0-11.78-9.564-21.328-21.374-21.328z" fill="#5D9CEC" /><path d="M859 256.006c0 11.782-9.562 21.328-21.312 21.328-11.812 0-21.376-9.546-21.376-21.328s9.562-21.328 21.376-21.328c11.75 0 21.312 9.548 21.312 21.328zM863.562 341.334c0 11.782-9.562 21.344-21.344 21.344s-21.344-9.562-21.344-21.344 9.562-21.328 21.344-21.328 21.344 9.546 21.344 21.328zM868.218 426.674c0 11.782-9.532 21.328-21.344 21.328-11.75 0-21.312-9.546-21.312-21.328s9.562-21.344 21.312-21.344a21.334 21.334 0 0 1 21.344 21.344zM872.562 512c0 11.78-9.562 21.328-21.344 21.328s-21.344-9.546-21.344-21.328 9.562-21.328 21.344-21.328 21.344 9.548 21.344 21.328zM877 597.312c0 11.812-9.562 21.376-21.312 21.376a21.366 21.366 0 0 1-21.376-21.376c0-11.75 9.562-21.312 21.376-21.312 11.75 0 21.312 9.562 21.312 21.312zM881.782 682.652c0 11.782-9.562 21.344-21.344 21.344s-21.312-9.562-21.312-21.344 9.532-21.312 21.312-21.312 21.344 9.532 21.344 21.312zM885.812 767.996c0 11.782-9.532 21.344-21.312 21.344s-21.312-9.562-21.312-21.344 9.532-21.344 21.312-21.344 21.312 9.562 21.312 21.344zM890.81 853.336c0 11.782-9.53 21.312-21.31 21.312s-21.312-9.532-21.312-21.312 9.532-21.344 21.312-21.344 21.31 9.562 21.31 21.344z" fill="#CCD1D9" /><path d="M405.338 0.012h-42.654c0 11.782 9.546 21.328 21.328 21.328S405.338 11.794 405.338 0.012zM490.68 0.012h-42.67c0 11.782 9.546 21.328 21.328 21.328S490.68 11.794 490.68 0.012zM554.696 21.34c11.748 0 21.31-9.546 21.31-21.328h-42.67c0 11.782 9.562 21.328 21.36 21.328zM640.004 21.34c11.782 0 21.312-9.546 21.312-21.328h-42.624c0 11.782 9.53 21.328 21.312 21.328z" fill="#4A89DC" /><path d="M165.016 256.006c0 11.782 9.546 21.328 21.328 21.328s21.342-9.546 21.342-21.328-9.562-21.328-21.342-21.328-21.328 9.548-21.328 21.328zM160.454 341.334c0 11.782 9.562 21.344 21.342 21.344s21.328-9.562 21.328-21.344-9.546-21.328-21.328-21.328-21.342 9.546-21.342 21.328zM155.798 426.674c0 11.782 9.546 21.328 21.328 21.328s21.328-9.546 21.328-21.328-9.546-21.344-21.328-21.344-21.328 9.564-21.328 21.344zM151.454 512c0 11.78 9.562 21.328 21.342 21.328 11.782 0 21.328-9.546 21.328-21.328s-9.546-21.328-21.328-21.328c-11.78 0-21.342 9.548-21.342 21.328zM147.016 597.312c0 11.812 9.546 21.376 21.328 21.376s21.344-9.562 21.344-21.376c0-11.75-9.562-21.312-21.344-21.312-11.78 0-21.328 9.562-21.328 21.312zM142.236 682.652c0 11.782 9.562 21.344 21.342 21.344 11.782 0 21.328-9.562 21.328-21.344S175.36 661.34 163.578 661.34c-11.78 0-21.342 9.532-21.342 21.312zM138.188 767.996c0 11.782 9.546 21.344 21.328 21.344 11.78 0 21.328-9.562 21.328-21.344s-9.546-21.344-21.328-21.344c-11.78 0-21.328 9.562-21.328 21.344zM133.188 853.336c0 11.782 9.546 21.312 21.328 21.312 11.78 0 21.328-9.532 21.328-21.312s-9.546-21.344-21.328-21.344c-11.78 0-21.328 9.562-21.328 21.344z" fill="#CCD1D9" /><path d="M832 149.336H192.016L149.344 959.992h725.344z" fill="#E6E9ED" /><path d="M704.004 853.336c0-11.782 9.562-21.344 21.312-21.344 11.81 0 21.374 9.562 21.374 21.344s-9.562 21.312-21.374 21.312c-11.75 0-21.312-9.53-21.312-21.312zM618.692 853.336c0-11.782 9.532-21.344 21.312-21.344s21.312 9.562 21.312 21.344-9.532 21.312-21.312 21.312-21.312-9.53-21.312-21.312zM533.336 853.336c0-11.782 9.562-21.344 21.36-21.344 11.748 0 21.31 9.562 21.31 21.344s-9.562 21.312-21.31 21.312c-11.798 0-21.36-9.53-21.36-21.312zM448.008 853.336c0-11.782 9.546-21.344 21.328-21.344s21.342 9.562 21.342 21.344-9.562 21.312-21.342 21.312-21.328-9.53-21.328-21.312zM362.684 853.336c0-11.782 9.546-21.344 21.328-21.344s21.328 9.562 21.328 21.344-9.546 21.312-21.328 21.312-21.328-9.53-21.328-21.312zM277.342 853.336c0-11.782 9.562-21.344 21.342-21.344s21.328 9.562 21.328 21.344-9.546 21.312-21.328 21.312-21.342-9.53-21.342-21.312zM661.316 767.996c0-11.782 9.562-21.344 21.376-21.344 11.75 0 21.312 9.562 21.312 21.344s-9.562 21.344-21.312 21.344c-11.814 0-21.376-9.562-21.376-21.344zM576.006 767.996c0-11.782 9.562-21.344 21.312-21.344 11.81 0 21.374 9.562 21.374 21.344s-9.562 21.344-21.374 21.344c-11.75 0-21.312-9.562-21.312-21.344zM490.68 767.996c0-11.782 9.546-21.344 21.328-21.344s21.328 9.562 21.328 21.344-9.546 21.344-21.328 21.344-21.328-9.562-21.328-21.344zM405.338 767.996c0-11.782 9.562-21.344 21.344-21.344s21.328 9.562 21.328 21.344-9.546 21.344-21.328 21.344-21.344-9.562-21.344-21.344zM320.012 767.996c0-11.782 9.546-21.344 21.328-21.344s21.344 9.562 21.344 21.344-9.562 21.344-21.344 21.344-21.328-9.562-21.328-21.344z" fill="#CCD1D9" /><path d="M704.004 682.652c0-11.782 9.562-21.312 21.312-21.312 11.81 0 21.374 9.532 21.374 21.312s-9.562 21.344-21.374 21.344c-11.75 0-21.312-9.562-21.312-21.344zM618.692 682.652c0-11.782 9.532-21.312 21.312-21.312s21.312 9.532 21.312 21.312-9.532 21.344-21.312 21.344-21.312-9.562-21.312-21.344zM533.336 682.652c0-11.782 9.562-21.312 21.36-21.312 11.748 0 21.31 9.532 21.31 21.312s-9.562 21.344-21.31 21.344c-11.798 0-21.36-9.562-21.36-21.344zM448.008 682.652c0-11.782 9.546-21.312 21.328-21.312s21.342 9.532 21.342 21.312-9.562 21.344-21.342 21.344-21.328-9.562-21.328-21.344zM362.684 682.652c0-11.782 9.546-21.312 21.328-21.312s21.328 9.532 21.328 21.312-9.546 21.344-21.328 21.344-21.328-9.562-21.328-21.344zM277.342 682.652c0-11.782 9.562-21.312 21.342-21.312s21.328 9.532 21.328 21.312-9.546 21.344-21.328 21.344-21.342-9.562-21.342-21.344zM661.316 597.312c0-11.75 9.562-21.312 21.376-21.312 11.75 0 21.312 9.562 21.312 21.312 0 11.812-9.562 21.376-21.312 21.376a21.366 21.366 0 0 1-21.376-21.376zM576.006 597.312c0-11.75 9.562-21.312 21.312-21.312 11.81 0 21.374 9.562 21.374 21.312a21.366 21.366 0 0 1-21.374 21.376c-11.75 0-21.312-9.564-21.312-21.376zM490.68 597.312c0-11.75 9.546-21.312 21.328-21.312s21.328 9.562 21.328 21.312c0 11.812-9.546 21.376-21.328 21.376s-21.328-9.564-21.328-21.376zM405.338 597.312c0-11.75 9.562-21.312 21.344-21.312s21.328 9.562 21.328 21.312c0 11.812-9.546 21.376-21.328 21.376s-21.344-9.564-21.344-21.376zM320.012 597.312c0-11.75 9.546-21.312 21.328-21.312s21.344 9.562 21.344 21.312c0 11.812-9.562 21.376-21.344 21.376s-21.328-9.564-21.328-21.376z" fill="#CCD1D9" /><path d="M704.004 512c0-11.782 9.562-21.328 21.312-21.328 11.81 0 21.374 9.546 21.374 21.328 0 11.78-9.562 21.328-21.374 21.328-11.75 0-21.312-9.546-21.312-21.328zM618.692 512c0-11.782 9.532-21.328 21.312-21.328s21.312 9.546 21.312 21.328c0 11.78-9.532 21.328-21.312 21.328s-21.312-9.546-21.312-21.328zM533.336 512c0-11.782 9.562-21.328 21.36-21.328 11.748 0 21.31 9.546 21.31 21.328 0 11.78-9.562 21.328-21.31 21.328-11.798 0-21.36-9.546-21.36-21.328zM448.008 512c0-11.782 9.546-21.328 21.328-21.328S490.68 500.22 490.68 512s-9.562 21.328-21.342 21.328-21.33-9.546-21.33-21.328z" fill="#CCD1D9" /><path d="M384.01 512m-21.328 0a21.328 21.328 0 1 0 42.656 0 21.328 21.328 0 1 0-42.656 0Z" fill="#CCD1D9" /><path d="M277.342 512c0-11.782 9.562-21.328 21.342-21.328s21.328 9.546 21.328 21.328c0 11.78-9.546 21.328-21.328 21.328s-21.342-9.546-21.342-21.328zM661.316 426.674c0-11.782 9.562-21.344 21.376-21.344 11.75 0 21.312 9.562 21.312 21.344s-9.562 21.328-21.312 21.328c-11.814 0-21.376-9.546-21.376-21.328zM576.006 426.674c0-11.782 9.562-21.344 21.312-21.344 11.81 0 21.374 9.562 21.374 21.344s-9.562 21.328-21.374 21.328c-11.75 0-21.312-9.546-21.312-21.328zM490.68 426.674c0-11.782 9.546-21.344 21.328-21.344s21.328 9.562 21.328 21.344-9.546 21.328-21.328 21.328-21.328-9.546-21.328-21.328zM405.338 426.674c0-11.782 9.562-21.344 21.344-21.344s21.328 9.562 21.328 21.344-9.546 21.328-21.328 21.328-21.344-9.546-21.344-21.328zM320.012 426.674c0-11.782 9.546-21.344 21.328-21.344s21.344 9.562 21.344 21.344-9.562 21.328-21.344 21.328-21.328-9.546-21.328-21.328z" fill="#CCD1D9" /><path d="M704.004 341.334c0-11.782 9.562-21.328 21.312-21.328 11.81 0 21.374 9.546 21.374 21.328s-9.562 21.344-21.374 21.344c-11.75-0.002-21.312-9.564-21.312-21.344zM618.692 341.334c0-11.782 9.532-21.328 21.312-21.328s21.312 9.546 21.312 21.328-9.532 21.344-21.312 21.344-21.312-9.564-21.312-21.344zM533.336 341.334c0-11.782 9.562-21.328 21.36-21.328 11.748 0 21.31 9.546 21.31 21.328s-9.562 21.344-21.31 21.344c-11.798-0.002-21.36-9.564-21.36-21.344zM448.008 341.334c0-11.782 9.546-21.328 21.328-21.328s21.342 9.546 21.342 21.328-9.562 21.344-21.342 21.344-21.328-9.564-21.328-21.344zM362.684 341.334c0-11.782 9.546-21.328 21.328-21.328s21.328 9.546 21.328 21.328-9.546 21.344-21.328 21.344-21.328-9.564-21.328-21.344zM277.342 341.334c0-11.782 9.562-21.328 21.342-21.328s21.328 9.546 21.328 21.328-9.546 21.344-21.328 21.344-21.342-9.564-21.342-21.344zM661.316 256.006c0-11.782 9.562-21.328 21.376-21.328 11.75 0 21.312 9.546 21.312 21.328s-9.562 21.328-21.312 21.328c-11.814 0-21.376-9.546-21.376-21.328zM576.006 256.006c0-11.782 9.562-21.328 21.312-21.328 11.81 0 21.374 9.546 21.374 21.328s-9.562 21.328-21.374 21.328c-11.75 0-21.312-9.546-21.312-21.328z" fill="#CCD1D9" /><path d="M512.008 256.006m-21.328 0a21.328 21.328 0 1 0 42.656 0 21.328 21.328 0 1 0-42.656 0Z" fill="#CCD1D9" /><path d="M405.338 256.006c0-11.782 9.562-21.328 21.344-21.328s21.328 9.546 21.328 21.328-9.546 21.328-21.328 21.328-21.344-9.546-21.344-21.328zM320.012 256.006c0-11.782 9.546-21.328 21.328-21.328s21.344 9.546 21.344 21.328-9.562 21.328-21.344 21.328-21.328-9.546-21.328-21.328z" fill="#CCD1D9" /><path d="M895.998 917.336H128.016c-11.734 0-21.328 9.594-21.328 21.312v63.996c0 11.75 9.594 21.344 21.328 21.344h767.982c11.75 0 21.312-9.594 21.312-21.344v-63.996c0-11.718-9.562-21.312-21.312-21.312z" fill="#5D9CEC" /></svg>