<?xml version="1.0" standalone="no"?><!DOCTYPE svg PUBLIC "-//W3C//DTD SVG 1.1//EN" "http://www.w3.org/Graphics/SVG/1.1/DTD/svg11.dtd"><svg class="icon" width="128px" height="128.00px" viewBox="0 0 1024 1024" version="1.1" xmlns="http://www.w3.org/2000/svg"><path d="M982.802 839.304c-26.124-47.624-63.436-90.31-110.842-126.81-96.374-74.28-224.212-115.184-359.96-115.184-135.746 0-263.588 40.904-359.96 115.184-47.406 36.5-84.702 79.186-110.842 126.81C13.872 889.054 0.012 942.052 0.012 996.708c0 2.124 0.032 4.25 0.078 6.376 0.218 11.594 9.704 20.906 21.328 20.906h981.166c11.624 0 21.092-9.312 21.342-20.906 0.032-2.094 0.062-4.25 0.062-6.376 0-54.656-13.874-107.654-41.186-157.404z" fill="#965353" /><path d="M982.802 839.304c-26.124-47.624-63.436-90.31-110.842-126.81-96.374-74.28-224.212-115.184-359.96-115.184-7.14 0-14.25 0.156-21.328 0.376 127.762 4.06 247.322 44.436 338.634 114.808 47.404 36.5 84.686 79.186 110.81 126.81 27.342 49.75 41.186 102.748 41.186 157.402 0 2.124 0 4.282-0.062 6.376-0.218 11.594-9.688 20.906-21.31 20.906h42.654c11.624 0 21.092-9.312 21.342-20.906 0.032-2.094 0.062-4.25 0.062-6.376 0-54.654-13.874-107.652-41.186-157.402z" fill="#FFFFFF" opacity=".1" /><path d="M767.994 127.994h-24c-8.312-33.204-36.124-63.86-80.308-87.906C616.874 14.62 557.998 0.012 502.11 0.012c-55.078 0-110.716 14.81-152.668 40.654-38.406 23.656-62.562 54.11-69.794 87.328h-23.64c-11.78 0-21.328 9.562-21.328 21.342v523.41c0 11.688 9.344 21.188 21 21.344l512.004 7.998h0.312c5.594 0 10.968-2.218 14.968-6.124a21.234 21.234 0 0 0 6.344-15.216V149.336c-0.002-11.78-9.532-21.342-21.314-21.342z" fill="#ED5564" /><path d="M618.686 234.662c0-58.904-47.782-106.668-106.686-106.668s-106.668 47.764-106.668 106.668c0 34.906 16.766 65.874 42.67 85.342v42.656h127.996v-42.656c25.906-19.468 42.688-50.436 42.688-85.342z" fill="#E6E9ED" /><path d="M789.306 85.338c0 11.782-9.532 21.328-21.312 21.328s-21.312-9.546-21.312-21.328 9.532-21.328 21.312-21.328 21.312 9.546 21.312 21.328z" fill="#DA4453" /><path d="M256.006 85.338m-21.328 0a21.328 21.328 0 1 0 42.656 0 21.328 21.328 0 1 0-42.656 0Z" fill="#DA4453" /><path d="M298.676 639.308c-11.782 0-21.342-9.562-21.342-21.312v-169.994c0-11.796 9.562-21.344 21.342-21.344s21.328 9.546 21.328 21.344v169.994c0 11.75-9.546 21.312-21.328 21.312zM725.306 639.308c-11.75 0-21.312-9.562-21.312-21.312v-169.994c0-11.796 9.562-21.344 21.312-21.344 11.812 0 21.376 9.546 21.376 21.344v169.994c0 11.75-9.562 21.312-21.376 21.312z" fill="#DA4453" /><path d="M490.672 234.662c0 11.782-9.562 21.328-21.342 21.328-11.782 0-21.328-9.546-21.328-21.328s9.546-21.326 21.328-21.326c11.78 0 21.342 9.544 21.342 21.326zM575.998 234.662c0 11.782-9.562 21.328-21.312 21.328-11.794 0-21.358-9.546-21.358-21.328s9.562-21.326 21.358-21.326c11.75 0 21.312 9.544 21.312 21.326z" fill="#434A54" /><path d="M512 319.988c-11.78 0-21.328 9.562-21.328 21.344v21.328h42.656v-21.328c0-11.782-9.546-21.344-21.328-21.344z" fill="#CCD1D9" /><path d="M213.334 618.652H810.68v85.342H213.334zM598.31 512H427.66c-11.782 0-21.328-9.562-21.328-21.344s9.546-21.328 21.328-21.328h170.652c11.812 0 21.344 9.546 21.344 21.328S610.124 512 598.31 512zM555.654 575.998h-85.324c-11.782 0-21.344-9.562-21.344-21.344s9.562-21.326 21.344-21.326h85.324c11.782 0 21.344 9.544 21.344 21.326s-9.562 21.344-21.344 21.344z" fill="#434A54" /></svg>