<?xml version="1.0" standalone="no"?><!DOCTYPE svg PUBLIC "-//W3C//DTD SVG 1.1//EN" "http://www.w3.org/Graphics/SVG/1.1/DTD/svg11.dtd"><svg class="icon" width="128px" height="128.00px" viewBox="0 0 1024 1024" version="1.1" xmlns="http://www.w3.org/2000/svg"><path d="M383.998 425.314c-84.076-10.532-149.326-82.436-149.326-169.31 0-86.904 65.25-158.81 149.326-169.34V43.728C276.342 54.446 192 145.57 192 256.004c0 110.404 84.342 201.528 191.996 212.246v-42.936z" fill="#434A54" /><path d="M715.834 159.006L612.9 15.822c-3.938-6.032-5.968-8.844-13.156-8.844L383.998 0.008c-11.782 0-21.328 9.532-21.328 21.312v213.34c0 11.782 9.546 21.344 21.328 21.344h170.654c11.782 0 21.344-9.562 21.344-21.344V192.006h121.996c7.812 0 15-4.312 18.75-11.186a21.352 21.352 0 0 0-0.908-21.814z" fill="#CCD1D9" /><path d="M831.958 767.996c-11.312 0-20.75-8.906-21.282-20.344-5.594-118.464-21.062-229.59-46.032-330.276-19.938-80.406-45.938-154.404-77.248-219.902-38.562-80.592-78.654-133.216-98.936-154.81H341.342c-11.782 0-21.344-9.562-21.344-21.344S329.56 0.008 341.342 0.008h255.996c5.406 0 10.594 2.032 14.562 5.75 2.25 2.094 55.966 53.062 112.622 170.466 32.876 68.186 60.124 145.09 80.968 228.622 25.968 103.998 42.062 218.654 47.812 340.806 0.562 11.75-8.532 21.75-20.312 22.312-0.344 0-0.688 0.032-1.032 0.032z" fill="#E6E9ED" /><path d="M681.274 354.252c-32.188-75.124-63.966-128.342-65.31-130.56a21.286 21.286 0 0 0-18.282-10.374h-256.34c-7.5 0-14.438 3.938-18.296 10.374-1.344 2.218-33.124 55.438-65.312 130.56C214.11 456 192 544.968 192 618.656c0 73.684 22.108 162.622 65.732 264.402 32.188 75.122 63.968 128.34 65.312 130.558a21.326 21.326 0 0 0 18.296 10.376h256.34c7.5 0 14.438-3.938 18.282-10.376 1.344-2.218 33.124-55.438 65.31-130.558 43.624-101.782 65.748-190.718 65.748-264.402 0.002-73.688-22.124-162.656-65.746-264.404z" fill="#8CC153" /><path d="M579.432 322.754a21.308 21.308 0 0 0 21.124 18.562h62.998a21.32 21.32 0 0 0 18.25-10.282 21.286 21.286 0 0 0 0.656-20.936l-44.718-85.342a21.346 21.346 0 0 0-18.904-11.436H587.12a21.434 21.434 0 0 0-16.438 7.718 21.43 21.43 0 0 0-4.532 17.594c4.906 25.966 9.376 54.28 13.282 84.122zM424.292 341.316h90.124c6.172 0 12.032-2.656 16.078-7.312a21.38 21.38 0 0 0 5.062-16.906c-0.438-3.124-0.86-6.188-1.282-9.124-3.984-27.874-8.454-53.968-13.266-77.592a21.328 21.328 0 0 0-20.906-17.062h-61.5c-10.14 0-18.876 7.124-20.906 17.062-4.812 23.624-9.28 49.718-13.264 77.592-0.422 2.938-0.844 6-1.266 9.124-0.844 6.094 1 12.282 5.046 16.906a21.338 21.338 0 0 0 16.08 7.312zM275.092 341.316h63.046c10.704 0 19.766-7.938 21.156-18.562 3.89-29.842 8.342-58.156 13.264-84.124a21.382 21.382 0 0 0-4.546-17.594 21.376 21.376 0 0 0-16.42-7.718h-31.766a21.35 21.35 0 0 0-18.906 11.436l-44.718 85.342a21.29 21.29 0 0 0 0.64 20.936 21.336 21.336 0 0 0 18.25 10.284zM594.056 390.91a21.428 21.428 0 0 0-5.532 16.25 2248.506 2248.506 0 0 1 5.718 84.56c0.562 11.344 9.938 20.282 21.312 20.282h112.34a21.28 21.28 0 0 0 17.25-8.812 21.288 21.288 0 0 0 3.032-19.156l-27.812-85.31a21.296 21.296 0 0 0-20.282-14.718h-90.308a21.294 21.294 0 0 0-15.718 6.904zM408.638 512h121.434c5.844 0 11.438-2.406 15.454-6.656a21.314 21.314 0 0 0 5.844-15.782 2224.83 2224.83 0 0 0-6.094-86.154 21.32 21.32 0 0 0-21.234-19.406h-109.372a21.308 21.308 0 0 0-21.234 19.406 2257.056 2257.056 0 0 0-6.094 86.154 21.432 21.432 0 0 0 5.828 15.782 21.32 21.32 0 0 0 15.468 6.656zM210.766 512h112.388c11.376 0 20.75-8.938 21.312-20.282a2292.312 2292.312 0 0 1 5.704-84.56 21.244 21.244 0 0 0-5.532-16.25 21.292 21.292 0 0 0-15.718-6.906h-90.358a21.328 21.328 0 0 0-20.282 14.718l-27.812 85.31a21.38 21.38 0 0 0 3.032 19.156 21.3 21.3 0 0 0 17.266 8.814zM320.404 682.652c5.718 0 11.188-2.312 15.204-6.376s6.218-9.594 6.124-15.308c-0.234-14.156-0.344-28.344-0.344-42.124 0-13.906 0.11-28.218 0.328-42.532a21.232 21.232 0 0 0-6.124-15.282 21.236 21.236 0 0 0-15.204-6.376H192c-11.782 0-21.328 9.532-21.328 21.344v85.312c0 11.778 9.546 21.34 21.328 21.34h128.404zM532.962 554.656h-127.216c-11.64 0-21.14 9.344-21.328 20.968a2465.848 2465.848 0 0 0 0 86.062c0.204 11.622 9.688 20.964 21.328 20.964h127.216c11.624 0 21.124-9.344 21.312-20.964 0.25-14.438 0.376-28.844 0.376-42.844 0-14.156-0.124-28.688-0.376-43.218-0.186-11.624-9.686-20.968-21.312-20.968zM746.646 554.656h-128.34a21.204 21.204 0 0 0-15.188 6.376 21.152 21.152 0 0 0-6.124 15.282c0.218 14.282 0.344 28.562 0.344 42.532 0 13.782-0.124 27.968-0.376 42.124a21.352 21.352 0 0 0 6.124 15.308 21.46 21.46 0 0 0 15.218 6.376h128.34c11.782 0 21.344-9.562 21.344-21.34V576c0.002-11.812-9.56-21.344-21.342-21.344zM513.73 895.996H424.98a21.232 21.232 0 0 0-16.108 7.34 21.23 21.23 0 0 0-5.016 16.968c0.438 3.094 0.876 6.124 1.312 9.032 4.14 27.938 8.796 54.094 13.812 77.75a21.352 21.352 0 0 0 20.876 16.906h59.014c10.062 0 18.764-7.062 20.858-16.906 5.016-23.656 9.672-49.812 13.812-77.75 0.438-2.906 0.876-5.938 1.312-9.032a21.224 21.224 0 0 0-5.016-16.968 21.226 21.226 0 0 0-16.106-7.34zM663.742 895.996h-63.81a21.318 21.318 0 0 0-21.124 18.464c-4.032 29.812-8.656 58.094-13.75 84.094a21.342 21.342 0 0 0 4.468 17.656 21.406 21.406 0 0 0 16.468 7.782h33.032c7.938 0 15.188-4.406 18.874-11.438l44.75-85.344a21.292 21.292 0 0 0-0.656-20.938c-3.846-6.404-10.784-10.276-18.252-10.276zM359.904 914.46a21.32 21.32 0 0 0-21.14-18.464h-63.5a21.268 21.268 0 0 0-18.25 10.278 21.32 21.32 0 0 0-0.64 20.938l44.734 85.344a21.34 21.34 0 0 0 18.89 11.438h32.704a21.44 21.44 0 0 0 16.484-7.782 21.336 21.336 0 0 0 4.454-17.656c-5.08-26.002-9.706-54.282-13.736-84.096zM344.966 846.372a21.328 21.328 0 0 0 5.5-16.312 2206.534 2206.534 0 0 1-5.906-84.5c-0.594-11.344-9.954-20.25-21.312-20.25h-112.31a21.346 21.346 0 0 0-17.264 8.812 21.266 21.266 0 0 0-3.016 19.124l27.796 85.344a21.324 21.324 0 0 0 20.282 14.718h90.482c5.998 0 11.702-2.5 15.748-6.936zM529.962 725.308h-121.216a21.32 21.32 0 0 0-21.296 22.468 2164.096 2164.096 0 0 0 6.312 86.188 21.324 21.324 0 0 0 21.234 19.344h108.716c11.016 0 20.218-8.376 21.218-19.344a2155.314 2155.314 0 0 0 6.312-86.188 21.32 21.32 0 0 0-21.28-22.468zM728.084 725.308h-112.622c-11.376 0-20.718 8.906-21.312 20.25a2230.45 2230.45 0 0 1-5.906 84.5c-0.532 5.968 1.438 11.906 5.5 16.312a21.248 21.248 0 0 0 15.75 6.938h90.778c9.25 0 17.438-5.938 20.282-14.718l27.812-85.344c2.124-6.5 1-13.594-3.032-19.124a21.32 21.32 0 0 0-17.25-8.814z" fill="#A0D468" /></svg>