<?xml version="1.0" standalone="no"?><!DOCTYPE svg PUBLIC "-//W3C//DTD SVG 1.1//EN" "http://www.w3.org/Graphics/SVG/1.1/DTD/svg11.dtd"><svg class="icon" width="128px" height="128.00px" viewBox="0 0 1024 1024" version="1.1" xmlns="http://www.w3.org/2000/svg"><path d="M199.52 384.004H96.022c-5.468 0-10.938 2.062-15.094 6.218a21.334 21.334 0 0 0 0 30.186 21.296 21.296 0 0 0 15.094 6.25H199.52v-42.654z" fill="#434A54" /><path d="M312.798 895.992h438.426v42.656H312.798z" fill="#AAB2BC" /><path d="M672.008 767.996c0 23.562-19.094 42.652-42.656 42.652h-170.682c-23.56 0-42.654-19.09-42.654-42.652v-170.684c0-23.562 19.094-42.656 42.654-42.656h170.682c23.562 0 42.656 19.094 42.656 42.656v170.684z" fill="#656D78" /><path d="M731.288 221.258c-0.062-0.032-4.656-6.156-6.874-13.906-2.624-9.094-1-15.718 5.374-22.124 17.312-17.376 23.032-39.968 16.124-63.624-4.656-15.906-13.656-27.124-14.782-28.5 0-0.032-0.032-0.032-0.032-0.062-3.938-4.718-9.81-7.718-16.436-7.718-11.782 0-21.312 9.562-21.312 21.344 0 5.156 1.844 9.906 4.906 13.594 0.032 0.062 4.532 5.876 6.718 13.342 2.532 8.718 0.938 15.156-5.438 21.5-17.282 17.376-23 40.094-16.156 64 4.656 16.218 13.656 27.686 14.688 28.936 3.906 4.844 9.876 7.968 16.594 7.968 11.78 0 21.342-9.562 21.342-21.344 0-5.062-1.782-9.718-4.75-13.374l0.034-0.032zM580.978 50.668c-6.344-23.874-18.624-40.436-19.998-42.25-3.906-5.094-10.062-8.406-16.968-8.406-11.782 0-21.344 9.532-21.344 21.312 0 4.812 1.624 9.25 4.312 12.812l-0.032 0.032c0.094 0.094 9 12.188 13.094 28.624 4.906 19.656 0.968 36.374-12.032 51.062-22.78 25.78-30.03 57.404-20.968 91.466 6.344 23.874 18.592 40.436 20 42.248 3.906 5.094 10.032 8.438 16.968 8.438 11.782 0 21.342-9.562 21.342-21.344 0-4.812-1.624-9.25-4.31-12.812v-0.032c-0.094-0.124-8.968-12.186-13.062-28.624-4.906-19.656-1-36.376 12-51.062 22.812-25.778 30.062-57.402 20.998-91.464zM404.608 121.604c-4.656-15.844-13.592-27.062-14.78-28.5-0.032 0-0.032-0.032-0.032-0.032l-0.032-0.032a21.25 21.25 0 0 0-16.406-7.718c-11.812 0-21.342 9.562-21.342 21.344 0 5.156 1.844 9.906 4.906 13.594 0.032 0.062 4.532 5.876 6.718 13.342 2.562 8.718 0.938 15.156-5.406 21.5-17.282 17.376-23.032 40.094-16.188 64 4.656 16.218 13.688 27.686 14.688 28.936a21.33 21.33 0 0 0 16.624 7.968c11.75 0 21.312-9.562 21.312-21.344 0-5.062-1.782-9.718-4.718-13.374v-0.032c-0.032-0.032-4.656-6.156-6.876-13.906-2.624-9.094-1-15.718 5.376-22.124 17.312-17.374 23.062-39.966 16.156-63.622z" fill="#E6E9ED" /><path d="M374.234 636.902L267.58 996.488a21.336 21.336 0 0 0 5.344 21.25c8.344 8.312 21.842 8.312 30.186 0a21.298 21.298 0 0 0 5.376-9.094l106.654-359.586-40.906-12.156zM713.82 636.996l-40.968 11.968 85.342 292.216 40.934-11.938z" fill="#CCD1D9" /><path d="M544.012 682.652c212.056 0 383.99-171.932 383.99-383.99H160.022c0 212.058 171.9 383.99 383.99 383.99z" fill="#ED5564" /><path d="M885.348 298.662c0 204.902-160.528 372.302-362.68 383.396 7.062 0.376 14.188 0.594 21.344 0.594 212.056 0 383.99-171.932 383.99-383.99h-42.654z" fill="#FFFFFF" opacity=".2" /><path d="M778.66 1002.644c-35.28 0-63.996-28.718-63.996-63.996 0-35.282 28.716-64 63.996-64 35.282 0 64 28.718 64 64 0 35.278-28.718 63.996-64 63.996z" fill="#656D78" /><path d="M778.66 853.304c-47.124 0-85.308 38.218-85.308 85.344 0 47.122 38.186 85.34 85.308 85.34 47.124 0 85.344-38.218 85.344-85.34 0-47.124-38.218-85.344-85.344-85.344z m0 127.996c-23.53 0-42.654-19.122-42.654-42.652s19.124-42.656 42.654-42.656c23.532 0 42.688 19.124 42.688 42.656s-19.156 42.652-42.688 42.652z" fill="#434A54" /><path d="M793.754 953.742c-8.344 8.312-21.844 8.312-30.186 0-8.312-8.344-8.312-21.844 0-30.188 8.342-8.312 21.842-8.312 30.186 0 8.312 8.344 8.312 21.844 0 30.188z" fill="#CCD1D9" /><path d="M943.094 304.912a21.204 21.204 0 0 0-15.874-6.218v-0.032H160.02a21.3 21.3 0 0 0-15.094 6.25c-8.312 8.312-8.312 21.842 0 30.156 4.156 4.188 9.624 6.25 15.094 6.25h767.2v-0.032a21.22 21.22 0 0 0 15.874-6.218c8.312-8.314 8.312-21.844 0-30.156z" fill="#DA4453" /><path d="M516.418 752.902c-8.312-8.344-21.842-8.344-30.156 0a21.276 21.276 0 0 0-6.25 15.062v42.684h42.656v-42.684c0-5.436-2.062-10.906-6.25-15.062zM608.008 767.964c0-5.438-2.094-10.906-6.248-15.062a21.332 21.332 0 0 0-30.188 0 21.244 21.244 0 0 0-6.218 15.062v42.684h42.654v-42.684z" fill="#434A54" /></svg>