<?xml version="1.0" standalone="no"?><!DOCTYPE svg PUBLIC "-//W3C//DTD SVG 1.1//EN" "http://www.w3.org/Graphics/SVG/1.1/DTD/svg11.dtd"><svg class="icon" width="128px" height="128.00px" viewBox="0 0 1024 1024" version="1.1" xmlns="http://www.w3.org/2000/svg"><path d="M606.624 341.96l75.438 75.42-376.244 376.212-75.42-75.404z" fill="#CBD0D8" /><path d="M269.148 845.372l120.668-120.652-90.498-90.53-119.732 119.716L12.7 890.622s-28.546 92.156 0 120.686c28.562 28.53 120.684 0 120.684 0l135.764-165.936z m-196.638 105.062c-8.328-8.344-8.328-21.844 0-30.156 8.328-8.344 21.842-8.344 30.17 0 8.328 8.312 8.328 21.812 0 30.156s-21.842 8.344-30.17 0z" fill="#EC5564" /><path d="M208.804 724.718l-29.218 29.188-1.03 0.876c0.032 0 0.046 0.062 0.078 0.094 8.328 8.344 21.842 8.312 30.17-0.032 8.328-8.312 8.328-21.812 0-30.126zM269.148 845.372l30.17-30.154c-8.328-8.344-21.842-8.344-30.17 0-8.328 8.312-8.328 21.81 0 30.154z" fill="#D94452" /><path d="M998.992 175.854l-150.84-150.84c-16.656-16.672-38.5-25-60.344-25s-43.688 8.328-60.342 25l-150.842 150.84s-96.216 211.778-17.688 290.306c22.562 22.562 56.062 30.61 92.344 30.61 89.904 0 196.872-49.39 196.872-49.39l150.84-150.84c33.312-33.33 33.344-87.358 0-120.686z m-256.434-75.42c6.656-6.656 16.624-7.984 24.624-3.984v-0.016l0.376 0.188v0.016l59.968 29.968v0.016c2 1 3.876 2.312 5.532 3.984 8.344 8.328 8.344 21.844 0 30.17-6.656 6.656-16.624 7.968-24.624 3.984l-0.344-0.156c0-0.016-0.032-0.032-0.062-0.032l-59.938-29.968v-0.016c-2-1-3.876-2.312-5.532-3.984-8.342-8.326-8.342-21.842 0-30.17z m-60.34 60.342c6.656-6.672 16.624-7.984 24.624-3.984v-0.016l0.344 0.172 0.062 0.032 59.936 29.968v0.016c2 1 3.876 2.312 5.532 3.984a21.294 21.294 0 0 1 0 30.156c-6.656 6.672-16.624 7.984-24.624 4l-0.344-0.172-0.032-0.016-59.964-29.984h0.032c-2-1-3.906-2.328-5.562-3.984-8.346-8.344-8.346-21.844-0.004-30.172z m30.156 120.67c-6.656 6.672-16.624 7.984-24.592 3.984l-0.032 0.016-0.376-0.188-59.968-29.984 0.032-0.016c-2-1-3.906-2.312-5.562-3.984-8.344-8.328-8.344-21.828 0-30.17 6.656-6.656 16.624-7.968 24.624-3.984l0.344 0.172c0.032 0 0.032 0.016 0.062 0.016l59.936 29.984c2 1 3.876 2.328 5.532 3.984 8.342 8.342 8.342 21.842 0 30.17z m90.528 120.684c-8.344 8.328-21.844 8.328-30.188 0a21.34 21.34 0 0 1-3.968-5.562l-0.032 0.016-29.966-59.952v-0.016l-0.188-0.376c-4-8-2.656-17.952 3.998-24.624 8.312-8.328 21.844-8.328 30.156 0a20.92 20.92 0 0 1 4 5.546l29.968 59.936c0.032 0.032 0.032 0.046 0.032 0.062l0.188 0.344h-0.032c4.002 7.986 2.688 17.954-3.968 24.626z m60.344-60.342c-8.344 8.328-21.844 8.328-30.188 0a21.532 21.532 0 0 1-3.968-5.546h-0.032l-29.968-59.952v-0.016l-0.188-0.376a21.344 21.344 0 0 1 4-24.624c8.312-8.328 21.844-8.328 30.156 0 1.688 1.672 3 3.562 4 5.562v-0.016l29.968 59.938c0 0.032 0.032 0.046 0.032 0.078l0.156 0.328c4 8 2.688 17.968-3.968 24.624z m60.31-60.342c-8.312 8.328-21.812 8.328-30.154 0a21.662 21.662 0 0 1-4-5.546l-29.968-59.936c0-0.016-0.032-0.046-0.032-0.046l-0.156-0.344v-0.016c-4-7.984-2.688-17.954 4-24.61 8.312-8.344 21.812-8.344 30.156 0a21.382 21.382 0 0 1 3.998 5.546v-0.016l29.968 59.936c0 0.032 0.032 0.062 0.032 0.062l0.156 0.344v0.016c4 7.984 2.688 17.954-4 24.61z" fill="#E5E8EC" /><path d="M389.816 754.876c8.328-8.344 8.344-21.844 0.016-30.156h-0.016l-90.482-90.498-0.016-0.032c-8.328-8.344-21.842-8.344-30.17 0-8.328 8.342-8.328 21.842 0 30.154l0.016 0.032 90.498 90.5c8.328 8.342 21.828 8.342 30.154 0z" fill="#D94452" /></svg>