<?xml version="1.0" standalone="no"?><!DOCTYPE svg PUBLIC "-//W3C//DTD SVG 1.1//EN" "http://www.w3.org/Graphics/SVG/1.1/DTD/svg11.dtd"><svg class="icon" width="128px" height="128.00px" viewBox="0 0 1024 1024" version="1.1" xmlns="http://www.w3.org/2000/svg"><path d="M512 1023.992c-23.374 0-45.654-22.376-74.466-74.842-17.842-32.5-31.28-64.438-31.842-65.782l39.342-16.5c0.124 0.282 11.812 28.062 27.25 56.876 22.312 41.624 35.156 53.532 39.716 56.75 4.562-3.218 17.406-15.124 39.716-56.75 15.438-28.812 27.124-56.594 27.25-56.876l39.344 16.5c-0.562 1.344-14 33.282-31.844 65.782-28.812 52.468-51.09 74.842-74.466 74.842z" fill="#CBD0D8" /><path d="M323.254 34.324c2.188 11.562-5.406 22.734-16.968 24.952-11.562 2.204-22.75-5.39-24.936-16.968-2.218-11.578 5.374-22.75 16.936-24.952a21.352 21.352 0 0 1 24.968 16.968z" fill="#A9B1BC" /><path d="M332.098 76.074c2.218 11.562-5.376 22.734-16.968 24.938-11.562 2.204-22.718-5.39-24.938-16.954-2.218-11.578 5.406-22.75 16.968-24.954s22.752 5.392 24.938 16.97zM340.972 117.808c2.188 11.578-5.406 22.75-16.968 24.952-11.594 2.204-22.75-5.39-24.968-16.968-2.188-11.562 5.406-22.734 16.968-24.938 11.594-2.202 22.75 5.392 24.968 16.954z" fill="#A9B1BC" /><path d="M399.502 548.564L298.286 17.356c-2.188-11.578-13.376-19.172-24.936-16.968-11.562 2.218-19.156 13.376-16.968 24.954 0 0 0 0.032 0.032 0.046L357.6 556.564l41.902-8z" fill="#CBD0D8" /><path d="M498.188 913.088c2.188 11.594-5.406 22.75-16.968 24.968l-62.874 11.968c-11.562 2.218-22.75-5.376-24.938-16.968l-103.81-544.864c-2.218-11.562 5.376-22.734 16.968-24.938l62.842-11.984c11.594-2.204 22.75 5.39 24.968 16.968l103.812 544.85z" fill="#965353" /><path d="M321.286 554.47l105.31-17.186-8-41.922-105.31 17.172zM337.192 638.094l105.404-16.782-8-41.906-105.372 16.75zM353.128 721.748l105.468-16.438-8-41.936-105.436 16.436zM369.16 805.808l105.342-16.906-7.968-41.936-105.374 16.908z" fill="#7F4545" /><path d="M700.746 34.324c-2.188 11.562 5.406 22.734 16.968 24.952 11.562 2.204 22.75-5.39 24.966-16.968 2.188-11.578-5.404-22.75-16.966-24.952a21.354 21.354 0 0 0-24.968 16.968z" fill="#A9B1BC" /><path d="M691.902 76.074c-2.216 11.562 5.376 22.734 16.968 24.938 11.562 2.204 22.718-5.39 24.938-16.954 2.218-11.578-5.376-22.75-16.968-24.954-11.562-2.202-22.75 5.392-24.938 16.97zM683.03 117.808c-2.188 11.578 5.406 22.75 16.966 24.952 11.594 2.204 22.75-5.39 24.968-16.968 2.188-11.562-5.406-22.734-16.968-24.938-11.594-2.202-22.748 5.392-24.966 16.954z" fill="#A9B1BC" /><path d="M624.498 548.564L725.714 17.356c2.188-11.578 13.376-19.172 24.936-16.968 11.562 2.218 19.156 13.376 16.968 24.954v0.046l-101.214 531.176-41.906-8z" fill="#CBD0D8" /><path d="M525.812 913.088c-2.188 11.594 5.406 22.75 16.966 24.968l62.876 11.968c11.562 2.218 22.75-5.376 24.938-16.968l103.81-544.864c2.218-11.562-5.376-22.734-16.968-24.938l-62.842-11.984c-11.594-2.204-22.75 5.39-24.968 16.968l-103.812 544.85z" fill="#965353" /><path d="M702.714 554.47l-105.31-17.186 8-41.922 105.31 17.172zM686.81 638.094l-105.406-16.782 8-41.906 105.374 16.75zM670.874 721.748l-105.47-16.438 8-41.936 105.438 16.436zM654.842 805.808l-105.344-16.906 7.968-41.936 105.376 16.908z" fill="#7F4545" /></svg>