<?xml version="1.0" standalone="no"?><!DOCTYPE svg PUBLIC "-//W3C//DTD SVG 1.1//EN" "http://www.w3.org/Graphics/SVG/1.1/DTD/svg11.dtd"><svg class="icon" width="128px" height="128.00px" viewBox="0 0 1024 1024" version="1.1" xmlns="http://www.w3.org/2000/svg"><path d="M128.008 599.874h32.28v-42.686H106.664c-11.782 0-21.344 9.56-21.344 21.342v128c0 11.782 9.562 21.344 21.344 21.344h82.966v-42.688H128.008v-85.312zM938.648 578.592v-0.062c0-11.782-9.562-21.342-21.344-21.342h-74.936v42.686h53.624v85.31h-50.966v42.688h72.28c11.782 0 21.344-9.562 21.344-21.344V578.592z" fill="#CBD0D8" /><path d="M699.246 330.348c-0.032-0.062-4.624-6.156-6.876-13.906-2.592-9.094-1-15.718 5.406-22.124 17.312-17.406 23.032-40 16.124-63.624-4.656-15.906-13.624-27.092-14.782-28.5v-0.032c-0.032 0-0.032-0.032-0.032-0.032-3.938-4.718-9.842-7.718-16.436-7.718-11.782 0-21.344 9.562-21.344 21.344 0 5.156 1.844 9.906 4.906 13.594 0.062 0.062 4.562 5.874 6.75 13.312 2.532 8.718 0.906 15.156-5.438 21.53-17.282 17.376-23.032 40.094-16.156 64 4.656 16.218 13.656 27.686 14.688 28.936a21.246 21.246 0 0 0 16.594 7.936c11.78 0 21.342-9.53 21.342-21.312a21.212 21.212 0 0 0-4.746-13.404zM548.966 117.102c-6.344-23.906-18.624-40.468-19.998-42.282l-0.032 0.032a21.212 21.212 0 0 0-16.938-8.438c-11.782 0-21.344 9.562-21.344 21.344 0 4.812 1.624 9.218 4.312 12.812h-0.032c0.094 0.124 9 12.218 13.094 28.624 4.91 19.688 0.972 36.406-12.028 51.094-22.78 25.782-30.03 57.406-20.968 91.436 6.344 23.906 18.592 40.468 19.968 42.282l0.032-0.032c3.906 5.124 10.032 8.438 16.968 8.438 11.782 0 21.312-9.562 21.312-21.344 0-4.812-1.594-9.218-4.282-12.812-0.094-0.124-8.968-12.218-13.062-28.624-4.906-19.686-1-36.404 12-51.092 22.78-25.784 30.062-57.408 20.998-91.438zM372.566 230.692c-4.624-15.906-13.624-27.092-14.782-28.5v-0.032l-0.032-0.032a21.268 21.268 0 0 0-16.438-7.718c-11.78 0-21.312 9.562-21.312 21.344 0 5.156 1.844 9.906 4.906 13.594 0.032 0.062 4.532 5.874 6.718 13.312 2.562 8.718 0.938 15.156-5.406 21.53-17.282 17.376-23.032 40.094-16.188 64 4.656 16.218 13.656 27.686 14.688 28.936a21.292 21.292 0 0 0 16.592 7.936c11.782 0 21.344-9.53 21.344-21.312 0-5.094-1.782-9.718-4.718-13.406-0.062-0.062-4.656-6.156-6.876-13.906-2.624-9.094-1-15.718 5.376-22.124 17.314-17.404 23.064-39.996 16.128-63.622z" fill="#E5E8EC" /><path d="M1002.646 621.186H21.322c-11.782 0-21.312 9.562-21.312 21.342 0 11.782 9.532 21.344 21.312 21.344h981.324c11.782 0 21.344-9.562 21.344-21.344 0-11.78-9.562-21.342-21.344-21.342z" fill="#E5E8EC" /><path d="M504.438 903.618c319.526-1.312 384.306-223.308 360.682-321.556-2-8.218-71.406-178.622-285.778-178.622-214.37 0-174.122 117.966-422.21 107.186 0 0-6.812 14.562-8.812 22.782-23.624 98.278 36.624 368.896 356.118 370.21z" fill="#965353" /><path d="M148.32 576.092c2-8.218 8.812-22.78 8.812-22.78 248.088 10.748 207.84-107.218 422.21-107.218 214.372 0 283.778 170.404 285.778 178.654 1.438 6 2.562 12.468 3.282 19.31 2.312-23.248 0.906-44.56-3.282-61.998-2-8.218-71.406-178.622-285.778-178.622-214.37 0-174.122 117.966-422.21 107.186 0 0-6.812 14.562-8.812 22.782-4.188 17.406-5.718 40.186-3.688 65.904 0.782-8.5 2.032-16.28 3.688-23.218z" fill="#FFFFFF" opacity=".1" /><path d="M193.412 957.586c-10.468 0-20.312-4.062-27.718-11.468a39.214 39.214 0 0 1-9.624-15.688 39.176 39.176 0 0 1-15.656-9.562c-15.28-15.312-15.28-40.188 0-55.438 7.406-7.438 17.25-11.5 27.718-11.5 2.782 0 5.532 0.312 8.188 0.876l79.248-79.246 55.406 55.436-79.218 79.216c0.562 2.656 0.844 5.406 0.844 8.188 0 10.468-4.092 20.312-11.5 27.718-7.376 7.406-17.22 11.468-27.688 11.468z" fill="#E5E8EC" /><path d="M284.41 625.248c-53.812 53.81-90.342 169.496-41.5 218.37 48.842 48.844 164.56 12.312 218.372-41.498 53.842-53.81 57.842-137.03 9-185.872-48.842-48.874-132.06-44.812-185.872 9z" fill="#A85D5D" /></svg>