<?xml version="1.0" standalone="no"?><!DOCTYPE svg PUBLIC "-//W3C//DTD SVG 1.1//EN" "http://www.w3.org/Graphics/SVG/1.1/DTD/svg11.dtd"><svg class="icon" width="128px" height="128.00px" viewBox="0 0 1024 1024" version="1.1" xmlns="http://www.w3.org/2000/svg"><path d="M998.994 115.508s-208.934 264.806-282.12 191.59c-73.186-73.186 191.622-282.088 191.622-282.088-33.342-33.344-87.374-33.344-120.686 0 0 0-90.53 90.498-150.84 150.84-49.282 49.25-80.124 116.904-47.062 182.808L230.4 718.184l75.436 75.436 359.166-359.21c66.06 33.842 133.558 2.218 183.152-47.376l150.84-150.84c33.312-33.344 33.312-87.374 0-120.686z" fill="#CBD0D8" /><path d="M701.782 322.192c43.124 43.124 133.342-31.032 200.184-99.28-64.78 63.404-145.154 124.154-185.09 84.186-39.936-39.938 20.782-120.31 84.186-185.058-68.25 66.842-142.372 157.058-99.28 200.152zM983.932 251.256l15.062-15.062c33.312-33.342 33.312-87.374 0-120.684 0 0-4.968 6.282-13.624 16.656 31.812 33.404 31.342 86.278-1.438 119.09zM891.842 38.604c10.342-8.656 16.654-13.592 16.654-13.592-33.342-33.344-87.374-33.344-120.686 0 0 0-5.656 5.656-15.094 15.062 32.814-32.814 85.688-33.282 119.126-1.47zM848.154 387.034c6.188-6.218 12.718-12.718 19.406-19.438-6.594 6.594-13.094 13.126-19.406 19.438z" fill="#A9B1BC" /><path d="M299.304 634.186l-119.716 119.716-166.872 136.716s-28.562 92.124 0 120.686c28.562 28.56 120.684 0 120.684 0l135.748-165.936 120.684-120.684-90.528-90.498z m-196.62 316.244c-8.344 8.312-21.844 8.312-30.156 0a21.332 21.332 0 0 1 0-30.188c8.312-8.312 21.812-8.312 30.156 0a21.332 21.332 0 0 1 0 30.188z" fill="#46CEAD" /><path d="M208.806 724.684l-29.218 29.218-1.03 0.844c0.032 0.032 0.062 0.094 0.094 0.124 8.312 8.312 21.812 8.312 30.156 0a21.332 21.332 0 0 0-0.002-30.186zM269.15 845.368l30.156-30.186c-8.312-8.312-21.812-8.312-30.156 0a21.33 21.33 0 0 0 0 30.186z" fill="#35BB9B" /><path d="M269.15 664.34c-8.344-8.312-8.344-21.844 0-30.154 8.344-8.344 21.842-8.344 30.156 0l90.53 90.498c8.312 8.344 8.312 21.844 0 30.188-8.342 8.312-21.842 8.312-30.186 0l-90.5-90.532z" fill="#35BB9B" /></svg>