<?xml version="1.0" standalone="no"?><!DOCTYPE svg PUBLIC "-//W3C//DTD SVG 1.1//EN" "http://www.w3.org/Graphics/SVG/1.1/DTD/svg11.dtd"><svg class="icon" width="128px" height="128.00px" viewBox="0 0 1024 1024" version="1.1" xmlns="http://www.w3.org/2000/svg"><path d="M776.834 140.486L648.838 12.49 636.34 0.024H21.358v1023.952h767.976V152.986z" fill="#E6E9ED" /><path d="M320.004 938.668l-63.998-21.376-63.998 21.376v-142.684h127.996z" fill="#F6BB42" /><path d="M362.66 746.672c0 58.876-47.75 106.624-106.654 106.624s-106.654-47.748-106.654-106.624c0-58.936 47.75-106.684 106.654-106.684s106.654 47.748 106.654 106.684z" fill="#FFCE54" /><path d="M639.996 746.672H512c-11.78 0-21.342 9.5-21.342 21.312s9.562 21.312 21.342 21.312h127.998c11.78 0 21.342-9.5 21.342-21.312s-9.564-21.312-21.344-21.312z" fill="#5D9CEC" /><path d="M170.666 426.666h469.332c11.78 0 21.342-9.562 21.342-21.342 0-11.782-9.562-21.344-21.342-21.344H170.666c-11.78 0-21.312 9.562-21.312 21.344 0 11.78 9.53 21.342 21.312 21.342zM639.996 511.976H170.666c-11.78 0-21.312 9.562-21.312 21.344 0 11.794 9.532 21.358 21.312 21.358h469.332c11.78 0 21.342-9.562 21.342-21.358-0.002-11.78-9.564-21.344-21.344-21.344zM170.666 298.67h234.68c11.782 0 21.312-9.562 21.312-21.344 0-11.78-9.532-21.342-21.312-21.342H170.666c-11.78 0-21.312 9.562-21.312 21.342 0 11.782 9.53 21.344 21.312 21.344z" fill="#434A54" /><path d="M945.642 725.296h-56.654l-56.998 199.122 85.34 56.874 85.312-56.874z" fill="#FFCE54" /><path d="M917.33 170.674c-47.152 0-85.34 38.186-85.34 85.31v575.998h170.652V255.984c0-47.124-38.186-85.31-85.312-85.31z" fill="#434A54" /><path d="M277.35 746.672c0 11.75-9.562 21.312-21.342 21.312s-21.342-9.562-21.342-21.312c0-11.812 9.562-21.376 21.342-21.376s21.342 9.564 21.342 21.376z" fill="#F6BB42" /><path d="M789.334 152.986H636.34V0.024z" fill="#CCD1D9" /></svg>