<?xml version="1.0" standalone="no"?><!DOCTYPE svg PUBLIC "-//W3C//DTD SVG 1.1//EN" "http://www.w3.org/Graphics/SVG/1.1/DTD/svg11.dtd"><svg class="icon" width="128px" height="128.00px" viewBox="0 0 1024 1024" version="1.1" xmlns="http://www.w3.org/2000/svg"><path d="M602.124 663.184L360.378 422.314 782.682 0.01l241.308 241.308z" fill="#CCD1D9" /><path d="M909.586 256.41v-38.998h38.998c5.438 0 10.906-2.094 15.062-6.25 8.344-8.312 8.344-21.844 0-30.156L782.682 0.01l-198.808 198.808 162.402 162.402v15.844h42.656l-0.032-39h39c5.438 0 10.938-2.062 15.094-6.25 4.188-4.156 6.25-9.624 6.25-15.094v-38.968h39v-0.032c5.468 0.032 10.904-2.062 15.092-6.218a21.346 21.346 0 0 0 6.25-15.092z" fill="#E6E9ED" /><path d="M271.474 1023.99L0.01 752.528l465.928-465.962 271.496 271.496z" fill="#8CC153" /><path d="M301.66 993.834L30.166 722.372l556.426-556.46 271.496 271.496z" fill="#A0D468" /><path d="M367.346 727.746c-8.312-8.344-8.312-21.844 0-30.188l196.058-196.058c8.344-8.312 21.844-8.312 30.188 0 8.312 8.344 8.312 21.844 0 30.156l-196.09 196.09c-8.312 8.312-21.812 8.312-30.156 0zM246.692 727.746a21.332 21.332 0 0 1 0-30.188l316.712-316.712a21.332 21.332 0 0 1 30.188 0c8.312 8.344 8.312 21.844 0 30.156L276.848 727.746c-8.312 8.312-21.812 8.312-30.156 0z" fill="#424953" /><path d="M301.66 993.834l-30.186-30.154 556.458-556.46 30.156 30.188z" fill="#FFFFFF" opacity=".2" /></svg>