<?xml version="1.0" standalone="no"?><!DOCTYPE svg PUBLIC "-//W3C//DTD SVG 1.1//EN" "http://www.w3.org/Graphics/SVG/1.1/DTD/svg11.dtd"><svg class="icon" width="128px" height="128.00px" viewBox="0 0 1024 1024" version="1.1" xmlns="http://www.w3.org/2000/svg"><path d="M853.314 341.316c0 188.528-152.81 341.336-341.292 341.336-188.528 0-341.338-152.808-341.338-341.336C170.684 152.82 323.494 0.01 512.022 0.01c188.482 0 341.292 152.81 341.292 341.306z" fill="#E5E8EC" /><path d="M618.694 298.66c0 35.342-28.688 63.998-64 63.998-35.358 0-64.014-28.656-64.014-63.998 0-35.344 28.656-64 64.014-64 35.312 0.002 64 28.656 64 64z" fill="#4FC0E8" /><path d="M533.336 298.66c0 35.342-28.624 63.998-64 63.998-35.342 0-63.998-28.656-63.998-63.998 0-35.344 28.656-64 63.998-64 35.374 0.002 64 28.656 64 64z" fill="#FB6D51" /><path d="M746.69 554.656c0 35.342-28.686 63.998-63.996 63.998-35.376 0-64-28.656-64-63.998 0-35.344 28.624-64 64-64 35.31 0 63.996 28.656 63.996 64z" fill="#AC92EA" /><path d="M704.004 469.312c0 35.376-28.624 64-63.998 64-35.312 0-64-28.624-64-64 0-35.342 28.688-63.998 64-63.998 35.374 0 63.998 28.656 63.998 63.998z" fill="#9ED36A" /><path d="M661.318 384.002c0 35.344-28.624 64-64 64-35.312 0-63.982-28.656-63.982-64 0-35.342 28.67-63.998 63.982-63.998 35.376 0 64 28.656 64 63.998z" fill="#FECD57" /><path d="M426.68 384.002m-64 0a64 64 0 1 0 128 0 64 64 0 1 0-128 0Z" fill="#FECD57" /><path d="M576.006 384.002c0 35.344-28.624 64-63.982 64-35.344 0-64-28.656-64-64 0-35.342 28.656-63.998 64-63.998 35.356 0 63.982 28.656 63.982 63.998z" fill="#AC92EA" /><path d="M618.694 469.312c0 35.376-28.688 64-64 64-35.358 0-64.014-28.624-64.014-64 0-35.342 28.656-63.998 64.014-63.998 35.312 0 64 28.656 64 63.998z" fill="#EC87C0" /><path d="M661.318 554.656c0 35.342-28.624 63.998-64 63.998-35.312 0-63.982-28.656-63.982-63.998 0-35.344 28.67-64 63.982-64 35.376 0 64 28.656 64 64z" fill="#4FC0E8" /><path d="M448.024 469.312c0 35.376-28.654 64-63.998 64s-63.998-28.624-63.998-64c0-35.342 28.654-63.998 63.998-63.998s63.998 28.656 63.998 63.998z" fill="#ED5564" /><path d="M533.336 469.312c0 35.376-28.624 64-64 64-35.342 0-63.998-28.624-63.998-64 0-35.342 28.656-63.998 63.998-63.998 35.374 0 64 28.656 64 63.998z" fill="#5D9CEC" /><path d="M341.338 554.656m-64 0a64 64 0 1 0 128 0 64 64 0 1 0-128 0Z" fill="#FECD57" /><path d="M512.024 0.01c-7.188 0-14.282 0.25-21.344 0.688 178.576 11 320.01 159.278 320.01 340.618S669.256 670.964 490.68 681.964c7.062 0.438 14.156 0.688 21.344 0.688 188.48 0 341.292-152.808 341.292-341.336C853.314 152.82 700.504 0.01 512.024 0.01z" fill="#FFFFFF" opacity=".2" /><path d="M426.68 554.656m-64 0a64 64 0 1 0 128 0 64 64 0 1 0-128 0Z" fill="#46CEAD" /><path d="M576.006 554.656c0 35.342-28.624 63.998-63.982 63.998-35.344 0-64-28.656-64-63.998 0-35.344 28.656-64 64-64 35.356 0 63.982 28.656 63.982 64z" fill="#FB6D51" /><path d="M298.496 607.624h427.008v416.368H298.496z" fill="#ED5564" /><path d="M682.88 607.624h42.624v416.368H682.88z" fill="#FFFFFF" opacity=".2" /><path d="M490.68 895.992c0 11.782-9.562 21.312-21.344 21.312s-21.312-9.532-21.312-21.312 9.532-21.344 21.312-21.344 21.344 9.562 21.344 21.344zM574.444 895.992c0 11.782-9.5 21.312-21.312 21.312-11.766 0-21.326-9.532-21.326-21.312s9.56-21.344 21.326-21.344c11.812 0 21.312 9.562 21.312 21.344zM512.024 831.994c-22.812 0-44.218-8.876-60.344-25-33.28-33.28-33.28-87.404 0-120.686 16.124-16.124 37.532-25 60.344-25 22.782 0 44.232 8.876 60.358 25 33.25 33.282 33.25 87.406 0 120.686-16.126 16.126-37.578 25-60.358 25z" fill="#CCD1D9" /><path d="M587.444 671.246c-20.812-20.844-48.14-31.25-75.42-31.25-27.312 0-54.594 10.406-75.438 31.25-41.654 41.624-41.654 109.188 0 150.842 20.844 20.81 48.124 31.216 75.438 31.216 27.28 0 54.608-10.406 75.42-31.216 41.624-41.654 41.624-109.216 0-150.842z m-30.188 120.654c-12.062 12.094-28.138 18.75-45.232 18.75s-33.188-6.656-45.25-18.75c-24.968-24.936-24.968-65.56 0-90.498 12.062-12.094 28.156-18.75 45.25-18.75s33.17 6.656 45.232 18.75c24.938 24.938 24.938 65.562 0 90.498zM426.682 895.992h170.636v106.654h-170.636z" fill="#E5E8EC" /><path d="M436.586 671.246a106.072 106.072 0 0 0-13.56 16.594l147.792 147.808a107.572 107.572 0 0 0 16.624-13.56 107.124 107.124 0 0 0 13.562-16.594l-147.826-147.842a106.056 106.056 0 0 0-16.592 13.594z" fill="#E5E8EC" /><path d="M682.694 0.01H341.338a21.298 21.298 0 0 0-21.31 21.312c0 11.78 9.532 21.342 21.31 21.342h341.356c11.748 0 21.31-9.562 21.31-21.342S694.442 0.01 682.694 0.01z" fill="#ED5564" /></svg>