<?xml version="1.0" standalone="no"?><!DOCTYPE svg PUBLIC "-//W3C//DTD SVG 1.1//EN" "http://www.w3.org/Graphics/SVG/1.1/DTD/svg11.dtd"><svg class="icon" width="128px" height="128.00px" viewBox="0 0 1024 1024" version="1.1" xmlns="http://www.w3.org/2000/svg"><path d="M347.584 225.826c-8.328 8.312-8.328 21.842 0 30.154 8.344 8.344 21.842 8.344 30.17 0 8.328-8.312 8.328-21.842 0-30.154-8.328-8.344-21.828-8.344-30.17 0z" fill="#E6E9ED" /><path d="M533.328 298.666c0-42.656-90.982-149.308-255.994-149.308-164.996 0-255.976 106.652-255.976 149.308 0 42.686-21.342 400.706-21.342 400.706s68.202 25.968 279.35 25.968c211.15 0 275.322-25.968 275.322-25.968s-21.36-358.018-21.36-400.706z" fill="#37BC9B" /><path d="M112.934 347.604c-8.342 8.312-8.342 21.812 0 30.154 8.328 8.344 21.828 8.344 30.172 0 8.328-8.342 8.328-21.842 0-30.154-8.344-8.344-21.844-8.344-30.172 0zM390.254 368.916c-8.328 8.342-8.328 21.842 0 30.186 8.328 8.312 21.842 8.312 30.17 0 8.328-8.344 8.328-21.844 0-30.186-8.328-8.314-21.842-8.314-30.17 0zM240.93 475.6c-8.342 8.312-8.342 21.812 0 30.154 8.328 8.344 21.828 8.344 30.172 0 8.328-8.342 8.328-21.842 0-30.154-8.344-8.344-21.844-8.344-30.172 0zM518.25 347.604c-8.328 8.312-8.328 21.812 0 30.154 8.328 8.344 21.844 8.344 30.188 0 8.312-8.342 8.312-21.842 0-30.154-8.344-8.344-21.86-8.344-30.188 0zM518.25 518.254c-8.328 8.312-8.328 21.844 0 30.156 8.328 8.342 21.844 8.342 30.188 0 8.312-8.312 8.312-21.844 0-30.156-8.344-8.344-21.86-8.344-30.188 0zM432.924 176.92a21.334 21.334 0 0 0 0 30.186c8.328 8.312 21.828 8.312 30.156 0a21.334 21.334 0 0 0 0-30.186c-8.328-8.312-21.828-8.312-30.156 0zM240.93 134.266c-8.342 8.344-8.342 21.844 0 30.156 8.328 8.342 21.828 8.342 30.172 0 8.328-8.312 8.328-21.812 0-30.156-8.344-8.344-21.844-8.344-30.172 0zM6.266 304.916c-8.328 8.342-8.328 21.842 0 30.186 8.328 8.312 21.842 8.312 30.17 0 8.328-8.344 8.328-21.844 0-30.186-8.328-8.312-21.842-8.312-30.17 0zM6.266 475.6c-8.328 8.312-8.328 21.812 0 30.154 8.328 8.344 21.842 8.344 30.17 0 8.328-8.342 8.328-21.842 0-30.154-8.328-8.344-21.842-8.344-30.17 0zM432.924 560.908a21.336 21.336 0 0 0 0 30.188c8.328 8.312 21.828 8.312 30.156 0a21.336 21.336 0 0 0 0-30.188c-8.328-8.312-21.828-8.312-30.156 0zM219.586 262.262c-8.328 8.344-8.328 21.844 0 30.156 8.328 8.342 21.842 8.342 30.17 0 8.328-8.312 8.328-21.812 0-30.156s-21.84-8.344-30.17 0zM347.584 219.608c-8.328 8.312-8.328 21.842 0 30.154 8.328 8.344 21.842 8.344 30.17 0 8.328-8.312 8.328-21.842 0-30.154-8.328-8.344-21.842-8.344-30.17 0zM304.928 624.908a21.334 21.334 0 0 0 0 30.186c8.328 8.312 21.828 8.312 30.172 0 8.328-8.344 8.328-21.844 0-30.186-8.344-8.312-21.844-8.312-30.172 0zM112.934 560.908a21.336 21.336 0 0 0 0 30.188c8.328 8.312 21.828 8.312 30.156 0a21.336 21.336 0 0 0 0-30.188c-8.328-8.312-21.828-8.312-30.156 0zM816.928 225.826c-8.374 8.312-8.374 21.842 0 30.154 8.312 8.344 21.812 8.344 30.156 0 8.342-8.312 8.342-21.842 0-30.154-8.344-8.344-21.844-8.344-30.156 0z" fill="#E6E9ED" /><path d="M1002.64 298.666c0-42.656-90.964-149.308-255.96-149.308-165.026 0-256.006 106.652-256.006 149.308 0 42.686-21.344 400.706-21.344 400.706s68.218 25.968 279.35 25.968c211.15 0 275.304-25.968 275.304-25.968S1002.64 341.354 1002.64 298.666z" fill="#8CC153" /><path d="M582.248 347.604c-8.312 8.312-8.312 21.812 0 30.154 8.312 8.344 21.842 8.344 30.186 0 8.312-8.342 8.312-21.842 0-30.154-8.344-8.344-21.874-8.344-30.186 0zM859.55 368.916c-8.312 8.342-8.312 21.842 0 30.186 8.344 8.312 21.876 8.312 30.188 0 8.312-8.344 8.312-21.844 0-30.186-8.312-8.314-21.844-8.314-30.188 0zM710.244 475.6c-8.312 8.312-8.312 21.812 0 30.154 8.312 8.344 21.842 8.344 30.186 0 8.312-8.342 8.312-21.842 0-30.154-8.344-8.344-21.874-8.344-30.186 0zM987.546 347.604c-8.312 8.312-8.312 21.812 0 30.154 8.344 8.344 21.876 8.344 30.188 0 8.312-8.342 8.312-21.842 0-30.154-8.312-8.344-21.844-8.344-30.188 0zM987.546 518.254c-8.312 8.312-8.312 21.844 0 30.156 8.344 8.342 21.876 8.342 30.188 0 8.312-8.312 8.312-21.844 0-30.156-8.312-8.344-21.844-8.344-30.188 0zM902.238 176.92c-8.312 8.342-8.312 21.842 0 30.186 8.312 8.312 21.844 8.312 30.188 0 8.312-8.344 8.312-21.844 0-30.186-8.344-8.312-21.876-8.312-30.188 0zM710.244 134.266c-8.312 8.344-8.312 21.844 0 30.156 8.312 8.342 21.842 8.342 30.186 0 8.312-8.312 8.312-21.812 0-30.156-8.344-8.344-21.874-8.344-30.186 0zM475.58 304.916c-8.328 8.342-8.328 21.842 0 30.186 8.328 8.312 21.842 8.312 30.17 0 8.328-8.344 8.328-21.844 0-30.186-8.328-8.312-21.842-8.312-30.17 0zM475.58 475.6c-8.328 8.312-8.328 21.812 0 30.154 8.344 8.344 21.842 8.344 30.17 0 8.328-8.342 8.328-21.842 0-30.154-8.328-8.344-21.828-8.344-30.17 0zM902.238 560.908c-8.312 8.344-8.312 21.844 0 30.188 8.312 8.312 21.844 8.312 30.188 0 8.312-8.344 8.312-21.844 0-30.188-8.344-8.312-21.876-8.312-30.188 0zM688.932 262.262c-8.374 8.344-8.374 21.844 0 30.156 8.312 8.342 21.812 8.342 30.156 0 8.342-8.312 8.342-21.812 0-30.156-8.344-8.344-21.844-8.344-30.156 0zM816.928 219.608c-8.374 8.312-8.374 21.842 0 30.154 8.312 8.344 21.812 8.344 30.156 0 8.342-8.312 8.342-21.842 0-30.154-8.344-8.344-21.844-8.344-30.156 0zM774.242 624.908c-8.312 8.342-8.312 21.842 0 30.186 8.312 8.312 21.844 8.312 30.188 0 8.312-8.344 8.312-21.844 0-30.186-8.344-8.312-21.876-8.312-30.188 0zM582.248 560.908c-8.312 8.344-8.312 21.844 0 30.188 8.312 8.312 21.842 8.312 30.186 0 8.312-8.344 8.312-21.844 0-30.188-8.344-8.312-21.874-8.312-30.186 0zM582.248 396.476c-8.312 8.344-8.312 21.844 0 30.186 8.312 8.312 21.842 8.312 30.186 0 8.312-8.342 8.312-21.842 0-30.186-8.344-8.312-21.874-8.312-30.186 0z" fill="#E6E9ED" /><path d="M767.992 469.35c0-42.656-90.996-149.34-255.992-149.34-164.996 0-255.992 106.684-255.992 149.34 0 42.654-21.328 400.676-21.328 400.676s68.202 25.966 279.35 25.966c211.148 0 275.274-25.966 275.274-25.966s-21.312-358.022-21.312-400.676z" fill="#5D9CEC" /><path d="M347.584 518.254c-8.328 8.344-8.328 21.844 0 30.188 8.344 8.31 21.842 8.31 30.17 0 8.328-8.344 8.328-21.844 0-30.188-8.328-8.312-21.828-8.312-30.17 0zM624.934 539.598c-8.376 8.312-8.376 21.842 0 30.154 8.312 8.344 21.812 8.344 30.124 0 8.376-8.312 8.376-21.842 0-30.154-8.312-8.344-21.812-8.344-30.124 0zM475.58 646.25c-8.328 8.344-8.328 21.844 0 30.188 8.344 8.31 21.842 8.31 30.17 0 8.328-8.344 8.328-21.844 0-30.188-8.328-8.312-21.828-8.312-30.17 0zM752.93 518.254a21.274 21.274 0 0 0 0 30.188c8.312 8.31 21.812 8.31 30.156 0a21.332 21.332 0 0 0 0-30.188c-8.344-8.312-21.844-8.312-30.156 0zM752.93 688.904a21.274 21.274 0 0 0 0 30.188c8.312 8.312 21.812 8.312 30.156 0a21.332 21.332 0 0 0 0-30.188c-8.344-8.312-21.844-8.312-30.156 0zM667.558 347.604c-8.312 8.312-8.312 21.842 0 30.154 8.344 8.344 21.874 8.344 30.186 0 8.312-8.312 8.312-21.842 0-30.154-8.312-8.344-21.842-8.344-30.186 0zM475.58 304.948c-8.328 8.312-8.328 21.812 0 30.156 8.328 8.312 21.842 8.312 30.17 0 8.328-8.344 8.328-21.844 0-30.156-8.328-8.344-21.842-8.344-30.17 0zM240.93 475.6c-8.328 8.312-8.328 21.842 0 30.154 8.328 8.344 21.844 8.344 30.172 0 8.328-8.312 8.328-21.842 0-30.154-8.328-8.344-21.844-8.344-30.172 0zM240.93 646.25c-8.328 8.344-8.328 21.844 0 30.188 8.328 8.31 21.844 8.31 30.172 0 8.328-8.344 8.328-21.844 0-30.188-8.328-8.312-21.844-8.312-30.172 0zM667.558 731.592c-8.312 8.312-8.312 21.842 0 30.154 8.344 8.344 21.874 8.344 30.186 0 8.312-8.312 8.312-21.842 0-30.154-8.312-8.344-21.842-8.344-30.186 0zM454.252 432.914c-8.328 8.342-8.328 21.842 0 30.186 8.328 8.312 21.842 8.312 30.17 0 8.328-8.344 8.328-21.844 0-30.186-8.328-8.314-21.842-8.314-30.17 0zM582.248 390.258c-8.312 8.344-8.312 21.844 0 30.188 8.312 8.312 21.842 8.312 30.186 0 8.312-8.344 8.312-21.844 0-30.188-8.344-8.312-21.874-8.312-30.186 0zM539.578 795.59c-8.328 8.312-8.328 21.842 0 30.154 8.328 8.344 21.858 8.344 30.17 0 8.312-8.312 8.312-21.842 0-30.154-8.312-8.344-21.842-8.344-30.17 0zM347.584 731.592c-8.328 8.312-8.328 21.842 0 30.154 8.328 8.344 21.842 8.344 30.17 0 8.328-8.312 8.328-21.842 0-30.154-8.328-8.344-21.842-8.344-30.17 0z" fill="#E6E9ED" /></svg>