<?xml version="1.0" standalone="no"?><!DOCTYPE svg PUBLIC "-//W3C//DTD SVG 1.1//EN" "http://www.w3.org/Graphics/SVG/1.1/DTD/svg11.dtd"><svg class="icon" width="128px" height="128.00px" viewBox="0 0 1024 1024" version="1.1" xmlns="http://www.w3.org/2000/svg"><path d="M682.68 938.664c-11.812 0-21.376-9.562-21.376-21.342V490.688c0-11.78 9.562-21.342 21.376-21.342 11.75 0 21.31 9.562 21.31 21.342v426.634c0 11.78-9.56 21.342-21.31 21.342zM874.668 938.664c-11.81 0-21.374-9.562-21.374-21.342V490.688c0-11.78 9.562-21.342 21.374-21.342 11.75 0 21.312 9.562 21.312 21.342v426.634c0 11.78-9.562 21.342-21.312 21.342z" fill="#434A54" /><path d="M789.298 0.028c-94.056 0-170.616 76.556-170.616 170.678 0 94.088 76.558 170.646 170.616 170.646 94.12 0 170.678-76.558 170.678-170.646 0-94.122-76.558-170.678-170.678-170.678z" fill="#AC92EB" /><path d="M108.396 91.428c-43.294 84.652 8.954 170.678 8.954 170.678s7.716-97.338 51.934-135.992c70.512-61.652 209.146-20.686 226.442 51.998 17.296 72.684-156.414 95.712-158.148 154.148-1.624 55.308 171.586 96.962 141.478 149.524-25.376 44.34-114.916 102.994-121.994 156.302-5.64 42.342 131.368 121.806 138.882 141.304 7.516 19.532-44.452 223.27-44.452 223.27s133.994-204.832 126.228-252.89c-7.766-48.032-116.744-87.372-118.182-111.684-1.422-24.31 95.512-79.184 115.51-178.522 11.844-58.808-106.12-110.276-112.884-123.554-6.75-13.25 167.554-52.124 124.884-189.896C444.378 8.338 167.064-23.222 108.396 91.428z" fill="#5D9CEC" /><path d="M149.348 198.11H85.35c-11.78 0-21.326 9.532-21.326 21.312v237.33c0 29.404 23.92 53.342 53.326 53.342 29.404 0 53.34-23.938 53.34-53.342V219.422c0-11.782-9.564-21.312-21.342-21.312z" fill="#434A54" /><path d="M682.68 1023.972c-35.312 0-63.996-28.688-63.996-63.996 0-35.282 28.684-63.996 63.996-63.996 35.246 0 63.996 28.714 63.996 63.996 0 35.31-28.75 63.996-63.996 63.996z m0-85.308c-11.782 0-21.376 9.562-21.376 21.312 0 11.782 9.594 21.342 21.376 21.342 11.75 0 21.31-9.56 21.31-21.342 0-11.75-9.56-21.312-21.31-21.312z" fill="#656D78" /><path d="M724.488 384.006h-84.494l-6.406 8.562c-1.468 1.968-36.28 49.154-36.28 119.432 0 70.308 34.81 117.492 36.28 119.46l6.406 8.532h85.306l6.438-8.532c1.468-1.968 36.25-49.184 36.25-122.118 0-73.714-35.624-116.12-37.124-117.87l-6.376-7.466zM922.854 391.474l-6.374-7.468h-84.496l-6.406 8.562c-1.468 1.968-36.28 49.154-36.28 119.432 0 70.308 34.81 117.492 36.28 119.46l6.406 8.532h85.308l6.436-8.532c1.468-1.968 36.248-49.184 36.248-122.118 0-73.714-35.622-116.118-37.122-117.868z" fill="#48CFAD" /><path d="M597.308 512c0 7.406 0.438 14.498 1.124 21.342h168.274c0.812-7.656 1.282-15.654 1.282-23.998 0-6.468-0.282-12.688-0.812-18.656h-168.742c-0.688 6.844-1.126 13.936-1.126 21.312z" fill="#37BC9B" /><path d="M874.668 1023.972c-35.308 0-63.996-28.688-63.996-63.996 0-35.282 28.688-63.996 63.996-63.996 35.25 0 63.998 28.714 63.998 63.996 0 35.31-28.748 63.996-63.998 63.996z m0-85.308c-11.78 0-21.374 9.562-21.374 21.312 0 11.782 9.594 21.342 21.374 21.342 11.75 0 21.312-9.56 21.312-21.342 0-11.75-9.562-21.312-21.312-21.312z" fill="#656D78" /><path d="M789.298 512c0 7.406 0.438 14.498 1.124 21.342h168.272c0.812-7.656 1.282-15.654 1.282-23.998 0-6.468-0.282-12.688-0.812-18.656h-168.74c-0.688 6.844-1.126 13.936-1.126 21.312z" fill="#37BC9B" /><path d="M619.058 159.362a170.508 170.508 0 0 0-0.376 11.344c0 11.438 1.124 22.624 3.282 33.466 37.214 8.5 93.432 12.812 167.334 12.812 73.934 0 130.15-4.312 167.366-12.812a169.028 169.028 0 0 0 3.312-33.466c0-3.812-0.124-7.594-0.376-11.344-19.81 6.156-66.308 14.968-170.302 14.968-103.93 0-150.428-8.812-170.24-14.968z" fill="#967ADC" /></svg>