<?xml version="1.0" standalone="no"?><!DOCTYPE svg PUBLIC "-//W3C//DTD SVG 1.1//EN" "http://www.w3.org/Graphics/SVG/1.1/DTD/svg11.dtd"><svg class="icon" width="128px" height="128.00px" viewBox="0 0 1024 1024" version="1.1" xmlns="http://www.w3.org/2000/svg"><path d="M512 693.304c-5.874 0-11.75-2.376-15.968-7.124-7.812-8.812-7.03-22.312 1.782-30.124l191.992-170.678c8.81-7.812 22.28-7 30.122 1.812 7.812 8.75 7.032 22.25-1.782 30.062l-191.988 170.68a21.186 21.186 0 0 1-14.158 5.372z" fill="#CCD1D9" /><path d="M511.97 693.304a21.16 21.16 0 0 1-14.156-5.376l-191.99-170.68c-8.812-7.812-9.594-21.312-1.782-30.062 7.842-8.812 21.312-9.624 30.124-1.812l191.99 170.678c8.812 7.812 9.594 21.312 1.782 30.124-4.22 4.754-10.094 7.128-15.968 7.128z" fill="#CCD1D9" /><path d="M362.666 117.334c-23.562 0-42.654 19.094-42.654 42.654v85.34h85.308v-85.34c-0.002-23.562-19.094-42.654-42.654-42.654zM661.274 117.334c-23.56 0-42.652 19.094-42.652 42.654v85.34h85.338v-85.34c-0.002-23.562-19.124-42.654-42.686-42.654zM336.978 488.438a21.314 21.314 0 0 0-16.968-8.436h-85.34c-9.592 0-18 6.374-20.56 15.624l-106.652 383.98c-1.782 6.438-0.468 13.312 3.562 18.624s10.312 8.438 17 8.438h85.308c9.592 0 18-6.438 20.56-15.624l106.652-383.98a21.352 21.352 0 0 0-3.562-18.626z" fill="#E6E9ED" /><path d="M234.67 906.668H106.678c-11.78 0-21.342-9.562-21.342-21.376 0-11.75 9.562-21.312 21.342-21.312h127.994c11.782 0 21.342 9.562 21.342 21.312 0 11.814-9.562 21.376-21.344 21.376z" fill="#656D78" /><path d="M683.43 507.064l106.65 383.98a21.38 21.38 0 0 0 20.56 15.624h85.34c6.656 0 12.938-3.124 16.968-8.438s5.344-12.188 3.562-18.624l-106.652-383.98a21.31 21.31 0 0 0-20.56-15.624h-85.308a21.328 21.328 0 0 0-16.998 8.436 21.352 21.352 0 0 0-3.562 18.626z" fill="#E6E9ED" /><path d="M789.298 906.668h127.994c11.78 0 21.342-9.562 21.342-21.376 0-11.75-9.562-21.312-21.342-21.312h-127.994c-11.782 0-21.31 9.562-21.31 21.312 0 11.814 9.53 21.376 21.31 21.376z" fill="#656D78" /><path d="M512 821.296a21.284 21.284 0 0 1-21.342-21.312v-127.992A21.284 21.284 0 0 1 512 650.68c11.782 0 21.312 9.5 21.312 21.312v127.992A21.278 21.278 0 0 1 512 821.296z" fill="#CCD1D9" /><path d="M544 906.668h-63.998c-11.812 0-21.342-9.562-21.342-21.376v-85.308a21.286 21.286 0 0 1 21.342-21.312H544c11.78 0 21.31 9.5 21.31 21.312v85.308c0 11.814-9.53 21.376-21.31 21.376z" fill="#434A54" /><path d="M959.976 223.984H64.024c-35.312 0-63.998 28.716-63.998 63.998v106.712c0 31.81 22.874 66.496 52.122 79.058l70.902 30.374c24.25 10.374 63.904 18.562 90.278 18.562H810.64c26.376 0 66.028-8.188 90.278-18.562l70.902-30.374c29.248-12.562 52.152-47.248 52.152-79.058v-106.712c0-35.28-28.714-63.998-63.996-63.998z" fill="#5D9CEC" /><path d="M959.976 223.984H64.024c-35.312 0-63.998 28.716-63.998 63.998v21.342c0-35.28 28.686-63.996 63.998-63.996h895.952c35.282 0 63.996 28.716 63.996 63.996v-21.342c0-35.28-28.714-63.998-63.996-63.998z" fill="#FFFFFF" opacity=".2" /></svg>