<?xml version="1.0" standalone="no"?><!DOCTYPE svg PUBLIC "-//W3C//DTD SVG 1.1//EN" "http://www.w3.org/Graphics/SVG/1.1/DTD/svg11.dtd"><svg class="icon" width="128px" height="128.00px" viewBox="0 0 1024 1024" version="1.1" xmlns="http://www.w3.org/2000/svg"><path d="M895.99 554.686c0-23.466-19.188-42.686-42.654-42.686H170.666c-23.468 0-42.656 19.218-42.656 42.686v426.646c0 23.468 19.188 42.656 42.656 42.656h682.67c23.466 0 42.654-19.188 42.654-42.656V554.686z" fill="#EAC6BB" /><path d="M582.904 912.8c-268.054-8.154-408.208 6.282-454.894 12.624v55.906c0 23.468 19.188 42.656 42.656 42.656h682.67c23.466 0 42.654-19.188 42.654-42.656v-54.782c-55.404-2.966-196.462-10.216-313.086-13.748z" fill="#DBADA2" /><path d="M575.998 775.304s0.376-43.936 1.188-142.622C581.186 128.006 426.66 0.01 426.66 0.01s43.842 283.024 42.53 561.424c-0.812 167.902-21.188 213.87-21.188 213.87-13.28 12.814 141.278 12.814 127.996 0z" fill="#434A54" /><path d="M597.342 810.68c0 47.124-38.218 85.31-85.34 85.31-47.124 0-85.342-38.186-85.342-85.31s38.218-85.342 85.342-85.342c47.122 0 85.34 38.216 85.34 85.342z" fill="#656D78" /></svg>