<?xml version="1.0" standalone="no"?><!DOCTYPE svg PUBLIC "-//W3C//DTD SVG 1.1//EN" "http://www.w3.org/Graphics/SVG/1.1/DTD/svg11.dtd"><svg class="icon" width="128px" height="128.00px" viewBox="0 0 1024 1024" version="1.1" xmlns="http://www.w3.org/2000/svg"><path d="M837.878 791.308H186.124S16.284 0.008 511.994 0.008c495.694 0 325.884 791.3 325.884 791.3z" fill="#E2A437" /><path d="M877.752 772.714l-3.624-1.062c-52.936-14.188-70.81-27.876-94.374-36.812-83.624-31.876-105.376-54.812-110.936-65.656l-0.562-1.218-0.688-97.092-155.576-2.25-155.59 2.25-0.688 97.092c-0.188 0.406-0.344 0.812-0.532 1.218-5.562 10.844-27.312 33.782-110.904 65.656-23.562 8.938-41.468 22.624-94.406 36.812l-3.624 1.062c-48.188 15.938-80.624 60.624-80.624 111.058v140.218h892.75v-140.218c0.002-50.434-32.436-95.12-80.622-111.058z" fill="#AC92EB" /><path d="M787.128 382.096c0 178.746-170.436 343.244-275.136 343.244-104.686 0-275.088-164.498-275.088-343.244 0-178.748 123.154-296.684 275.088-296.684 151.952 0 275.136 117.936 275.136 296.684z" fill="#EAC6BB" /><path d="M574.32 169.974l282.682 192.966C831.816 176.598 746.192 0.008 511.992 0.008l62.328 169.966z" fill="#F6BB42" /><path d="M532.054 252.878c91.326-65.656 169.95-130.248 210.386-164.404C689.378 34.258 615.068 0.008 511.992 0.008c-273.464 0-344.37 240.84-352.994 456.774 94.842-25.5 219.966-93.874 373.056-203.904z" fill="#FFCE54" /></svg>