<?xml version="1.0" standalone="no"?><!DOCTYPE svg PUBLIC "-//W3C//DTD SVG 1.1//EN" "http://www.w3.org/Graphics/SVG/1.1/DTD/svg11.dtd"><svg class="icon" width="128px" height="128.00px" viewBox="0 0 1024 1024" version="1.1" xmlns="http://www.w3.org/2000/svg"><path d="M920.422 772.714l-3.624-1.062c-52.936-14.188-70.872-27.876-94.434-36.812-83.562-31.876-105.312-54.812-110.876-65.656-0.218-0.406-0.376-0.812-0.562-1.218l-0.688-97.092-198.246-2.25-198.262 2.25-0.688 97.092c-0.172 0.406-0.328 0.812-0.532 1.218-5.562 10.844-27.312 33.782-110.904 65.656-23.562 8.938-41.484 22.624-94.422 36.812l-3.624 1.062c-48.186 15.938-80.608 60.624-80.608 111.058v140.218h978.094v-140.218c0-50.434-32.436-95.12-80.624-111.058z" fill="#ED5564" /><path d="M787.114 382.97c0 178.746-170.436 343.244-275.122 343.244-104.702 0-275.106-164.498-275.106-343.244 0-178.748 123.17-296.684 275.106-296.684s275.122 117.936 275.122 296.684z" fill="#EAC6BB" /><path d="M653.99 101.756s-5.344-47.562 51.624-81.78c24.124-14.5-361.51-83.218-458.29 160.434-36.36 91.562-9.484 226.278-9.484 226.278l83.812-150.278s91.342 21.344 190.34 21.344c99 0 193.652-21.344 193.652-21.344l81.468 126.998s31.282-121.904-3.782-202.716c-35.06-80.812-129.34-78.936-129.34-78.936z" fill="#434A54" /></svg>