<?xml version="1.0" standalone="no"?><!DOCTYPE svg PUBLIC "-//W3C//DTD SVG 1.1//EN" "http://www.w3.org/Graphics/SVG/1.1/DTD/svg11.dtd"><svg class="icon" width="128px" height="128.00px" viewBox="0 0 1024 1024" version="1.1" xmlns="http://www.w3.org/2000/svg"><path d="M908.124 621.374c-45.498-38.25-54.374-126.78-63.684-220.56-9.25-92.716-18.876-188.59-62.5-265.588C730.566 44.602 642.256 0.382 511.93 0.008c-130.216 0.376-218.496 44.594-269.902 135.216-43.624 76.998-53.218 172.872-62.436 265.588-9.376 93.718-18.188 182.31-63.686 220.56l-18.5 15.53 17.718 16.468c2.376 2.156 24.812 21.906 85.218 40.938 78.498 24.688 183.372 37.218 311.65 37.218 128.264 0 233.136-12.532 311.636-37.218 60.374-19.032 82.874-38.782 85.246-40.938l17.75-16.468-18.5-15.528z" fill="#343A42" /><path d="M877.752 772.714l-3.624-1.032c-52.936-14.218-70.81-27.876-94.436-36.812-83.562-31.876-105.312-54.844-110.874-65.688a39.328 39.328 0 0 1-0.562-1.188l-0.688-97.092-155.576-2.282-155.59 2.282-0.688 97.092c-0.188 0.406-0.312 0.812-0.532 1.188-5.562 10.844-27.344 33.812-110.904 65.688-23.562 8.938-41.468 22.594-94.436 36.812l-3.624 1.032c-48.188 15.968-80.592 60.654-80.592 111.058v140.218h892.75v-140.218c0-50.402-32.438-95.088-80.624-111.058z" fill="#4FC2E9" /><path d="M787.128 382.096c0 178.778-170.436 343.276-275.136 343.276-104.686 0-275.088-164.498-275.088-343.276 0-178.78 123.186-296.684 275.088-296.684 151.952 0 275.136 117.904 275.136 296.684z" fill="#EAC6BB" /><path d="M564.008 161.318c0.376 0.312 34.312 30.5 87.31 60.874 43.31 24.844 107.81 54.5 178.874 62.218-9-53.218-22.876-104.404-48.25-149.184C730.566 44.602 642.256 0.382 511.93 0.008c-130.218 0.374 52.078 161.31 52.078 161.31z" fill="#434A54" /><path d="M377.808 363.034c63.092-31.938 126.216-76.406 187.7-132.06 75.56-68.436 129.308-136.154 154.184-169.684C668.444 20.416 599.758 0.228 511.93 0.01c-130.216 0.376-218.496 44.594-269.902 135.216-43.624 76.998-53.218 172.872-62.436 265.588-0.75 7.218-1.468 14.406-2.188 21.562 66-5.468 133.28-25.344 200.404-59.342z" fill="#656D78" /></svg>