<?xml version="1.0" standalone="no"?><!DOCTYPE svg PUBLIC "-//W3C//DTD SVG 1.1//EN" "http://www.w3.org/Graphics/SVG/1.1/DTD/svg11.dtd"><svg class="icon" width="128px" height="128.00px" viewBox="0 0 1024 1024" version="1.1" xmlns="http://www.w3.org/2000/svg"><path d="M596.964 576.008h302.684c8.782 24.876 32.466 42.688 60.342 42.688 35.342 0 63.998-28.688 63.998-64 0-16.422-6.156-31.36-16.312-42.704a63.592 63.592 0 0 0 16.312-42.656c0-35.342-28.656-63.998-63.998-63.998-27.876 0-51.56 17.812-60.342 42.654H596.964v128.016z" fill="#E6E9ED" /><path d="M768.276 510.96c0-250.652-618.924-340.274-618.924-340.274v682.626s618.924-91.684 618.924-342.352z" fill="#E5675A" /><path d="M149.352 810.692v42.622s618.924-91.684 618.924-342.352c0-7.25-0.532-14.342-1.532-21.312C732.994 724.192 149.352 810.692 149.352 810.692z" opacity=".1" /><path d="M298.66 511.992c0-188.496-66.842-341.306-149.308-341.306-82.498 0-149.34 152.81-149.34 341.306 0 188.512 66.842 341.32 149.34 341.32 82.466 0 149.308-152.808 149.308-341.32z" fill="#EFACA0" /><path d="M213.35 511.992c0-117.81-28.656-213.308-63.998-213.308-35.344 0-63.998 95.498-63.998 213.308 0 117.824 28.654 213.324 63.998 213.324 35.342 0 63.998-95.5 63.998-213.324z" opacity=".1" /><path d="M149.352 554.696c-11.782 0-21.344-19.14-21.344-42.704 0-23.562 9.562-42.656 21.344-42.656s21.312 19.094 21.312 42.656c0 23.562-9.532 42.704-21.312 42.704z" fill="#E6E9ED" /></svg>