<?xml version="1.0" standalone="no"?><!DOCTYPE svg PUBLIC "-//W3C//DTD SVG 1.1//EN" "http://www.w3.org/Graphics/SVG/1.1/DTD/svg11.dtd"><svg class="icon" width="128px" height="128.00px" viewBox="0 0 1024 1024" version="1.1" xmlns="http://www.w3.org/2000/svg"><path d="M981.334 895.812a21.28 21.28 0 0 1-21.312 21.312H64.446a21.278 21.278 0 0 1-21.312-21.312v-106.624h938.2v106.624zM511.75 106.876c-259.058 0-469.084 152.746-469.084 341.18h938.2c0-188.434-210.028-341.18-469.116-341.18z" fill="#F4BE8E" /><path d="M43.134 789.19c-23.53 0-42.656-19.124-42.656-42.624s19.124-42.624 42.656-42.624h938.2c23.532 0 42.656 19.124 42.656 42.624s-19.124 42.624-42.656 42.624h-938.2zM42.666 618.63c-23.53 0-42.656-19.124-42.656-42.624 0-23.56 19.124-42.67 42.656-42.67h938.2c23.532 0 42.656 19.11 42.656 42.67 0 23.5-19.124 42.624-42.656 42.624h-938.2z" fill="#965353" /><path d="M512.25 682.628c0 11.75-9.562 21.312-21.344 21.312H43.134c-11.782 0-21.312-9.562-21.312-21.312v-42.686c0-11.75 9.53-21.312 21.312-21.312h447.772c11.782 0 21.344 9.562 21.344 21.312v42.686zM1002.678 682.628c0 11.75-9.562 21.312-21.344 21.312H533.562c-11.782 0-21.312-9.562-21.312-21.312v-42.686c0-11.75 9.532-21.312 21.312-21.312h447.772c11.782 0 21.344 9.562 21.344 21.312v42.686z" fill="#EC5564" /><path d="M512.25 874.5L85.79 618.63h851.952z" fill="#FECD57" /><path d="M426.47 703.942c0 11.75-9.562 21.312-21.344 21.312-11.75 0-21.312-9.562-21.312-21.312 0-11.812 9.562-21.312 21.312-21.312 11.782-0.002 21.344 9.498 21.344 21.312zM618.842 725.254c0 11.75-9.532 21.312-21.312 21.312s-21.312-9.562-21.312-21.312c0-11.812 9.532-21.312 21.312-21.312s21.312 9.5 21.312 21.312z" fill="#F5BA45" /><path d="M362.972 234.81c0 11.782-9.532 21.342-21.312 21.342-11.78 0-21.342-9.562-21.342-21.342s9.562-21.312 21.342-21.312a21.3 21.3 0 0 1 21.312 21.312zM533.562 234.81c0 11.782-9.562 21.342-21.312 21.342-11.782 0-21.344-9.562-21.344-21.342s9.562-21.312 21.344-21.312c11.75 0 21.312 9.532 21.312 21.312zM704.152 234.81c0 11.782-9.562 21.342-21.342 21.342-11.75 0-21.312-9.562-21.312-21.342s9.562-21.312 21.312-21.312c11.78 0 21.342 9.532 21.342 21.312zM277.192 341.432c0 11.782-9.532 21.312-21.312 21.312s-21.312-9.53-21.312-21.312c0-11.78 9.532-21.312 21.312-21.312s21.312 9.532 21.312 21.312zM447.782 341.432a21.3 21.3 0 0 1-21.312 21.312c-11.782 0-21.344-9.53-21.344-21.312 0-11.78 9.562-21.312 21.344-21.312a21.3 21.3 0 0 1 21.312 21.312zM618.374 341.432c0 11.782-9.562 21.312-21.312 21.312-11.782 0-21.344-9.53-21.344-21.312 0-11.78 9.562-21.312 21.344-21.312 11.748 0.002 21.312 9.532 21.312 21.312zM789.432 341.432c0 11.782-9.532 21.312-21.312 21.312s-21.344-9.53-21.344-21.312c0-11.78 9.562-21.312 21.344-21.312s21.312 9.532 21.312 21.312z" fill="#EAAD7A" /><path d="M1013.334 468.71c0-11.78-9.562-21.342-21.344-21.342-2.876 0-5.624 0.594-8.124 1.624l-0.032 0.032c-0.094 0.032-0.156 0.032-0.218 0.062L885.4 489.618l-98.25-40.53c-0.062-0.032-0.124-0.032-0.188-0.062l-0.062-0.032c-2.5-1.032-5.25-1.624-8.124-1.624s-5.624 0.594-8.124 1.624l-0.062 0.032c-0.062 0.032-0.124 0.032-0.188 0.062l-98.246 40.53-98.25-40.53c-0.062-0.032-0.094-0.032-0.156-0.062l-0.062-0.032a21.442 21.442 0 0 0-8.156-1.624c-2.876 0-5.594 0.594-8.124 1.624l-0.062 0.032c-0.062 0.032-0.124 0.032-0.156 0.062l-98.248 40.53-98.248-40.53c-0.062-0.032-0.124-0.032-0.188-0.062l-0.062-0.032c-2.5-1.032-5.25-1.624-8.124-1.624s-5.624 0.594-8.124 1.624l-0.062 0.032c-0.062 0.032-0.124 0.032-0.188 0.062l-98.248 40.53-98.248-40.53c-0.062-0.032-0.094-0.032-0.156-0.062l-0.062-0.032a21.442 21.442 0 0 0-8.156-1.624c-2.876 0-5.624 0.594-8.124 1.624l-0.062 0.032c-0.062 0.032-0.124 0.032-0.156 0.062l-106.38 43.872c-7.75 3.218-13.218 10.812-13.218 19.718 0 11.782 9.562 21.312 21.342 21.312 2.876 0 5.624-0.562 8.124-1.594l0.062-0.032c0.062-0.032 0.124-0.032 0.188-0.062l98.216-40.532 98.248 40.532c0.062 0.032 0.124 0.032 0.188 0.062l0.062 0.032c2.5 1.032 5.25 1.594 8.124 1.594s5.624-0.562 8.124-1.594l0.062-0.032c0.062-0.032 0.124-0.032 0.188-0.062l98.248-40.532 98.248 40.532c0.062 0.032 0.124 0.032 0.188 0.062l0.062 0.032c2.5 1.032 5.25 1.594 8.124 1.594s5.624-0.562 8.124-1.594l0.062-0.032c0.062-0.032 0.124-0.032 0.188-0.062l98.216-40.532 98.25 40.532c0.062 0.032 0.124 0.032 0.188 0.062l0.062 0.032c2.5 1.032 5.25 1.594 8.124 1.594s5.624-0.562 8.124-1.594l0.062-0.032c0.062-0.032 0.124-0.032 0.188-0.062l98.246-40.532 98.25 40.532c0.062 0.032 0.094 0.032 0.156 0.062l0.062 0.032c2.532 1.032 5.25 1.594 8.156 1.594 2.876 0 5.624-0.562 8.124-1.594l0.032-0.032c0.094-0.032 0.156-0.032 0.218-0.062l106.372-43.876v-0.032c7.728-3.184 13.196-10.808 13.196-19.684z" fill="#9ED36A" /></svg>