<?xml version="1.0" standalone="no"?><!DOCTYPE svg PUBLIC "-//W3C//DTD SVG 1.1//EN" "http://www.w3.org/Graphics/SVG/1.1/DTD/svg11.dtd"><svg class="icon" width="128px" height="128.00px" viewBox="0 0 1024 1024" version="1.1" xmlns="http://www.w3.org/2000/svg"><path d="M631.126 272.192L25.006 878.326c-33.326 33.312-33.326 87.342 0 120.654 33.328 33.342 87.356 33.342 120.684 0l606.122-606.106-120.686-120.682z" fill="#965353" /><path d="M99.41 922.544c-8.328-8.344-8.328-21.842 0-30.188l305.084-305.084c8.328-8.31 21.842-8.31 30.17 0 8.328 8.344 8.328 21.844 0 30.188L129.58 922.544c-8.342 8.344-21.842 8.344-30.17 0z" fill="#A85D5D" /><path d="M783.28 364c-33.688 33.686-88.28 33.686-121.966 0-33.686-33.686-33.686-88.308 0-121.996 33.688-33.654 88.28-33.654 121.966 0 33.684 33.688 33.684 88.31 0 121.996z" fill="#965353" /><path d="M737.374 316.784c-8.312 8.344-21.81 8.344-30.186 0-8.314-8.312-8.314-21.844 0-30.156 8.376-8.342 21.874-8.342 30.186 0 8.31 8.312 8.31 21.842 0 30.156z" fill="#A85D5D" /><path d="M145.69 963.636c14.75 0 29.5-3.812 42.654-11.404V714.99l-42.654 42.654v205.992zM231.014 913.67l42.67-42.686V629.646l-42.67 42.658zM316.34 828.33l42.67-42.656V544.306l-42.67 42.688z" fill="#965353" /><path d="M179.25 362.032L480.944 60.354l512.858 512.858-301.676 301.71z" fill="#A9B1BC" /><path d="M601.628 784.392l60.312 120.684 362.048-362.02-120.684-60.342zM541.286 120.696L480.944 0.012 118.91 362.032l120.682 60.342z" fill="#646C77" /><path d="M450.774 150.852c-8.328 8.344-21.844 8.344-30.17 0-8.328-8.312-8.328-21.812 0-30.156 8.328-8.344 21.842-8.344 30.17 0 8.326 8.312 8.326 21.844 0 30.156zM360.26 241.378c-8.328 8.312-21.826 8.312-30.156 0a21.348 21.348 0 0 1-0.014-30.188c8.344-8.31 21.842-8.31 30.17 0a21.332 21.332 0 0 1 0 30.188zM269.764 331.876c-8.328 8.342-21.844 8.342-30.17 0-8.328-8.344-8.328-21.844 0-30.188 8.328-8.312 21.842-8.312 30.17 0 8.326 8.346 8.326 21.846 0 30.188zM903.304 603.398c-8.312 8.312-21.844 8.312-30.186 0-8.314-8.344-8.314-21.844 0-30.186 8.342-8.312 21.874-8.312 30.186 0 8.314 8.342 8.314 21.842 0 30.186zM812.808 693.894a21.332 21.332 0 0 1-30.188 0c-8.312-8.31-8.312-21.842 0-30.152a21.328 21.328 0 0 1 30.188 0c8.314 8.31 8.314 21.842 0 30.152zM722.312 784.392c-8.344 8.342-21.876 8.342-30.188 0-8.312-8.31-8.312-21.81 0-30.154 8.31-8.344 21.844-8.344 30.188 0 8.31 8.344 8.31 21.844 0 30.154z" fill="#424953" /><path d="M496.022 527.964c-20.14-20.126-31.234-46.938-31.234-75.404 0-28.5 11.094-55.28 31.234-75.436 20.156-20.156 46.938-31.248 75.42-31.248 28.498 0 55.28 11.092 75.436 31.248 20.126 20.156 31.248 46.936 31.248 75.436 0 28.466-11.124 55.28-31.248 75.404-20.156 20.154-46.938 31.248-75.436 31.248-28.484 0-55.264-11.092-75.42-31.248z" fill="#E8563F" /><path d="M661.94 362.032c-49.966-49.966-131.014-49.966-180.996 0-49.984 49.998-49.984 131.028 0 181.026 49.982 49.998 131.028 49.998 180.996 0 49.996-50 49.996-131.028 0-181.026z m-30.158 150.84c-16.09 16.124-37.53 24.998-60.34 24.998-22.78 0-44.218-8.876-60.328-24.998-16.124-16.094-24.998-37.532-24.998-60.31 0-22.812 8.876-44.218 24.998-60.344 16.11-16.124 37.548-24.998 60.328-24.998 22.81 0 44.25 8.876 60.34 24.998 16.126 16.126 25 37.532 25 60.344 0 22.778-8.876 44.216-25 60.31z" fill="#FB6D51" /><path d="M519.55 370.5l30.172-30.188 129.528 129.528-30.188 30.188zM463.648 435.248l30.17-30.156 129.526 129.53-30.152 30.152z" fill="#FB6D51" /></svg>