<?xml version="1.0" standalone="no"?><!DOCTYPE svg PUBLIC "-//W3C//DTD SVG 1.1//EN" "http://www.w3.org/Graphics/SVG/1.1/DTD/svg11.dtd"><svg class="icon" width="128px" height="128.00px" viewBox="0 0 1024 1024" version="1.1" xmlns="http://www.w3.org/2000/svg"><path d="M337.57 875.484a21.334 21.334 0 0 1-18.624-10.906c-5.75-10.28-2.124-23.28 8.188-29.03l76.59-42.936c10.282-5.75 23.28-2.094 29.03 8.188 5.75 10.28 2.094 23.28-8.188 29.03l-76.59 42.936a21.22 21.22 0 0 1-10.406 2.718zM662.992 886.484c-0.718 0-1.468-0.032-2.216-0.124-11.718-1.188-20.216-11.688-19.03-23.406l10.124-97.152c1.218-11.75 11.716-20.248 23.436-19.03 11.718 1.216 20.218 11.716 19 23.404l-10.124 97.184c-1.128 11-10.378 19.124-21.19 19.124z" fill="#E9573F" /><path d="M770.3 817.456c-1.938 0-3.938-0.282-5.936-0.844l-97.186-28.124c-11.342-3.282-17.874-15.124-14.56-26.438 3.25-11.312 15.092-17.81 26.404-14.562l97.214 28.124c11.312 3.312 17.812 15.124 14.562 26.438-2.684 9.342-11.248 15.406-20.498 15.406zM281.228 746.678h-27.342c-11.812 0-21.342-9.562-21.342-21.376 0-11.75 9.532-21.312 21.342-21.312h27.342c11.782 0 21.344 9.562 21.344 21.312 0 11.814-9.562 21.376-21.344 21.376z" fill="#E9573F" /><path d="M938.67 1002.666h-170.682c-11.78 0-21.31-9.562-21.31-21.376 0-11.748 9.532-21.31 21.31-21.31h170.682c11.75 0 21.312 9.562 21.312 21.31 0 11.814-9.562 21.376-21.312 21.376zM256.01 1002.666H85.362c-11.782 0-21.342-9.562-21.342-21.376 0-11.748 9.562-21.31 21.342-21.31h170.65c11.782 0 21.342 9.562 21.342 21.31 0 11.814-9.562 21.376-21.344 21.376z" fill="#434A54" /><path d="M85.33 1002.666c-5.094 0-10.25-1.876-14.312-5.562-8.75-7.938-9.376-21.436-1.438-30.124l168.494-185.368c7.936-8.75 21.436-9.376 30.124-1.438a21.28 21.28 0 0 1 1.438 30.124l-168.494 185.368a21.3 21.3 0 0 1-15.812 7zM938.67 1002.666a21.36 21.36 0 0 1-15.812-7l-168.336-185.18c-7.906-8.748-7.282-22.216 1.438-30.124 8.716-7.938 22.216-7.312 30.124 1.406l168.37 185.21c7.906 8.688 7.282 22.186-1.438 30.124-4.096 3.69-9.222 5.564-14.346 5.564z" fill="#434A54" /><path d="M439.536 835.112c-12.406 0-22.53-1.062-30.842-3.25-58.936-15.562-101.372-36.404-126.12-61.874-21.062-21.624-22.686-39.654-22.686-44.686 0-0.812 0.062-1.688 0.156-2.5 4.094-34.25 20.906-63.374 48.654-84.15 26.342-19.718 60.28-30.156 98.122-30.156 3.782 0 7.624 0.094 11.468 0.312 1.656 0.062 3.468 0.124 5.344 0.124 48.154 0 144.056-27.562 154.65-30.624 16.438-6.624 123.026-48.826 172.68-48.826 3.468 0 6.718 0.188 9.688 0.578 45.154 5.876 67.28 17.562 69.624 18.876a21.41 21.41 0 0 1 10.282 13.156c1.5 5.592 0.624 11.53-2.344 16.498l-14.906 24.812 1.062 1.532a21.36 21.36 0 0 1 1 22.438c-13.376 23.934-40.406 50.652-69.03 78.932-25.748 25.438-52.374 51.748-64.966 72.686a21.302 21.302 0 0 1-12.312 9.5c-6.536 1.874-160.872 46.622-239.524 46.622z" fill="#FC6E51" /><path d="M512 981.292c-0.062 0-0.094 0.032-0.124 0.032v-0.032c-125.306 0-243.114-48.81-331.736-137.43C91.518 755.208 42.708 637.372 42.708 512c0-11.782-9.562-21.328-21.344-21.328-11.78 0-21.342 9.546-21.342 21.328 0 69.122 13.562 136.18 40.248 199.302 25.812 60.936 62.684 115.714 109.714 162.712 47.028 47.03 101.776 83.934 162.71 109.712 63.124 26.688 130.122 40.25 199.18 40.25h0.124c11.812 0 21.344-9.562 21.344-21.312 0.002-11.81-9.53-21.372-21.342-21.372zM1023.978 512c0-69.108-13.532-136.166-40.248-199.29-25.78-60.966-62.684-115.73-109.682-162.742-47.03-46.998-101.78-83.92-162.744-109.7C648.184 13.566 581.124 0.022 512 0.022c-11.78 0-21.312 9.544-21.312 21.326S500.22 42.692 512 42.692c125.372 0 243.24 48.81 331.864 137.446 88.65 88.654 137.46 206.51 137.46 331.864 0 11.78 9.532 21.326 21.342 21.326 11.75-0.002 21.312-9.548 21.312-21.328z" fill="#E6E9ED" /><path d="M469.346 130.36h85.34v763.282h-85.34z" fill="#F6BB42" /><path d="M652.4 618.684c-4.342 0-8.78-1.376-12.56-4.124-4.312-3.156-25.966-20.124-28.904-44.594-1.532-12.686 2.25-24.842 10.936-35.17 10.188-12.06 23.376-18.702 38.124-19.202 30.404-1 56.498 25.076 59.374 28.06 8.188 8.468 7.938 21.968-0.562 30.154-8.438 8.188-21.938 7.938-30.124-0.5-6.156-6.25-19.094-15.404-27.312-15.06-1.248 0.032-3.56 0.124-6.874 4.062-1.312 1.594-1.25 2.188-1.218 2.562 0.562 4.716 8.06 12.56 11.716 15.248 9.532 6.938 11.624 20.282 4.656 29.812a21.398 21.398 0 0 1-17.252 8.752z" fill="#E9573F" /><path d="M703.992 597.308c0 11.812 9.562 21.376 21.344 21.376 11.78 0 21.342-9.562 21.342-21.376 0-11.75-9.562-21.312-21.342-21.312-11.782 0-21.344 9.562-21.344 21.312z" fill="#434A54" /><path d="M512 917.296c-108.246 0-210.052-42.124-286.614-118.684C148.86 722.052 106.704 620.246 106.704 512c0-108.262 42.156-210.054 118.682-286.598C301.948 148.844 403.754 106.688 512 106.688c108.278 0 210.054 42.156 286.614 118.714 76.56 76.542 118.714 178.336 118.714 286.598 0 108.246-42.154 210.052-118.714 286.614-76.56 76.558-178.336 118.682-286.614 118.682z m0-767.952c-96.87 0-187.93 37.73-256.426 106.228C187.076 324.054 149.36 415.128 149.36 512s37.716 187.928 106.214 256.426S415.13 874.672 512 874.672c96.874 0 187.93-37.748 256.426-106.246 68.5-68.498 106.248-159.554 106.248-256.426s-37.748-187.946-106.248-256.428C699.93 187.074 608.874 149.344 512 149.344z" fill="#FFCE54" /></svg>