<?xml version="1.0" standalone="no"?><!DOCTYPE svg PUBLIC "-//W3C//DTD SVG 1.1//EN" "http://www.w3.org/Graphics/SVG/1.1/DTD/svg11.dtd"><svg class="icon" width="128px" height="128.00px" viewBox="0 0 1024 1024" version="1.1" xmlns="http://www.w3.org/2000/svg"><path d="M497.918 98.056l-41.75 8.75 63.248 301.586 41.766-8.782z" fill="#434A54" /><path d="M499.918 107.338c0 11.782-9.546 21.312-21.328 21.312-11.78 0-21.328-9.53-21.328-21.312s9.546-21.344 21.328-21.344 21.328 9.562 21.328 21.344z"  /><path d="M827.612 36.246c-40.656-3.282-112.684 5.938-217.306 24.406-11.28-32.186-82.998-46.312-82.998-46.312S372.532 5.902 273.754 0.528C127.148-7.502 97.43 81.682 97.43 81.682v84.592c0.062 48.53 149.558 72.31 150.074 72.374 118.748 23.468 264.71 31.312 264.71 31.312s399.988-157.12 410.488-166.308 5.874-59.312-95.09-67.406z" fill="#EAC6BB" /><path d="M757.708 38.684c-38.686 3.938-87.748 11.438-147.402 21.968-2.438-6.906-7.624-13-14.31-18.28-3.938 1.124-7.906 2.218-11.876 3.344-114.934 31.966-195.496 49.092-232.962 49.498-11.672 0.124-21.092 9.624-21.092 21.344 0 11.78 9.546 21.312 21.328 21.312h0.25c92.354-1.034 363.564-85.718 406.064-99.186z" fill="#DBADA2" /><path d="M481.418 81.556c-11.514-2.438-22.828 4.938-25.25 16.5L392.92 399.61c-2.422 11.53 4.968 22.842 16.5 25.28 1.468 0.282 2.938 0.438 4.39 0.438 9.89 0 18.75-6.906 20.86-16.936l63.248-301.584c2.422-11.532-4.968-22.846-16.5-25.252z" fill="#656D78" /><path d="M670.584 1023.982H286.596l85.324-639.996h213.324z" fill="#A0D468" /><path d="M457.262 383.986h42.656V963.36h-42.656z" fill="#8CC153" /><path d="M478.59 938.642l-191.994 85.31v0.03h383.988v-0.03z" fill="#8CC153" /></svg>