<?xml version="1.0" standalone="no"?><!DOCTYPE svg PUBLIC "-//W3C//DTD SVG 1.1//EN" "http://www.w3.org/Graphics/SVG/1.1/DTD/svg11.dtd"><svg class="icon" width="128px" height="128.00px" viewBox="0 0 1024 1024" version="1.1" xmlns="http://www.w3.org/2000/svg"><path d="M924.868 686.68c16.562-16.594 22.688-39.656 18.376-61.03 21.376 4.312 44.436-1.812 60.998-18.376 26.31-26.31 26.31-68.964 0-95.262 26.31-26.312 26.31-68.966 0-95.278-16.562-16.578-39.624-22.702-60.998-18.39 4.312-21.376-1.812-44.436-18.376-61.014-16.562-16.562-39.624-22.686-60.996-18.374 4.312-21.388-1.812-44.436-18.406-61.012-16.592-16.578-39.624-22.702-60.998-18.39 4.282-21.374-1.844-44.436-18.406-61.012-16.562-16.562-39.624-22.686-60.996-18.39 4.31-21.376-1.812-44.42-18.376-60.998-16.594-16.578-39.624-22.704-60.998-18.39 4.282-21.374-1.812-44.436-18.406-61.012-26.31-26.296-68.964-26.296-95.278 0-26.312-26.296-68.966-26.296-95.278 0-16.578 16.578-22.686 39.638-18.39 61.012-21.376-4.312-44.436 1.812-61 18.39-16.578 16.578-22.702 39.624-18.39 60.998-21.374-4.296-44.436 1.828-61.012 18.39-16.562 16.578-22.686 39.638-18.39 61.012-21.374-4.312-44.42 1.812-60.998 18.39-16.578 16.578-22.702 39.624-18.39 61.012-21.376-4.312-44.436 1.812-61.014 18.374-16.562 16.578-22.688 39.64-18.39 61.014-21.374-4.312-44.42 1.812-60.998 18.39-26.312 26.31-26.312 68.966 0 95.278-26.312 26.296-26.312 68.952 0 95.262 16.578 16.562 39.624 22.688 60.998 18.376-4.296 21.374 1.828 44.436 18.39 61.03 16.578 16.562 39.638 22.686 61.014 18.376-4.312 21.374 1.812 44.434 18.39 60.996 16.578 16.594 39.624 22.718 60.998 18.406-4.296 21.376 1.828 44.438 18.39 60.998 16.578 16.562 39.64 22.688 61.012 18.406-4.312 21.374 1.812 44.402 18.39 60.996 16.562 16.562 39.624 22.688 61 18.376-4.296 21.376 1.812 44.436 18.39 61.03 26.31 26.28 68.966 26.28 95.278 0 26.312 26.28 68.966 26.28 95.278 0 16.562-16.594 22.688-39.654 18.406-61.03 21.374 4.312 44.404-1.812 60.998-18.376 16.562-16.594 22.686-39.624 18.376-60.996 21.374 4.282 44.434-1.844 60.996-18.406 16.562-16.56 22.688-39.624 18.376-60.998 21.376 4.312 44.438-1.812 61.03-18.406 16.594-16.562 22.718-39.624 18.406-60.996 21.37 4.31 44.43-1.814 60.994-18.376z" fill="#CBD0D8" /><path d="M512.008 1004.262L19.76 512.014 512.008 19.75 1004.24 512.014z" fill="#E5E8EC" /><path d="M512.008 895.982L128.022 512.014 512.008 128.012l383.984 384.002z" fill="#46CEAD" /></svg>