<?xml version="1.0" standalone="no"?><!DOCTYPE svg PUBLIC "-//W3C//DTD SVG 1.1//EN" "http://www.w3.org/Graphics/SVG/1.1/DTD/svg11.dtd"><svg class="icon" width="128px" height="128.00px" viewBox="0 0 1024 1024" version="1.1" xmlns="http://www.w3.org/2000/svg"><path d="M384.004 357.442H682.68v63.998H384.004z" fill="#AC92EB" /><path d="M341.334 293.444h298.662v63.998H341.334z" fill="#ED5564" /><path d="M384.004 229.446H682.68v63.998H384.004z" fill="#FFCE54" /><path d="M309.992 421.44h298.662v63.998H309.992z" fill="#5D9CEC" /><path d="M384.004 482.72H682.68v64H384.004z" fill="#FFCE54" /><path d="M901.768 505.876c-6.688-0.5-14.03-0.75-22.092-0.75-52.5 0-134.246 11.124-246.274 30.936-13.938-39.75-102.512-57.186-102.512-57.186s-191.12-10.436-313.116-17.062c-7.782-0.438-15.328-0.688-22.562-0.688C33.61 461.126 0.016 562 0.016 562v104.496c0.062 59.934 184.698 89.246 185.322 89.372 146.666 29 326.926 38.688 326.926 38.688S1006.232 600.498 1019.2 589.122c12.97-11.314 7.282-73.246-117.432-83.246z" fill="#EAC6BB" /><path d="M771.836 514.062c-38.812 5.124-84.062 12.438-135.778 21.5a1756.812 1756.812 0 0 1-20.344 8.938c-135.558 57.808-231.43 69.934-287.974 69.934-11.796 0-21.328 9.562-21.328 21.312 0 11.812 9.532 21.376 21.328 21.376 88.2 0 190.962-24.812 305.38-73.688 69.184-29.558 120.84-58.81 138.716-69.372z" fill="#DBADA2" /></svg>