<?xml version="1.0" standalone="no"?><!DOCTYPE svg PUBLIC "-//W3C//DTD SVG 1.1//EN" "http://www.w3.org/Graphics/SVG/1.1/DTD/svg11.dtd"><svg class="icon" width="128px" height="128.00px" viewBox="0 0 1024 1024" version="1.1" xmlns="http://www.w3.org/2000/svg"><path d="M846.51 482.106l-86.654-40-114.684 41.344-134.994-50.654-128.994 62.654-134.652-62.654-86.652 54.654-113.34-5.344 129.338 449.344 673.288-8 119.996-441.344z" fill="#4B89DA" /><path d="M981.316 430.64l-49.686 33.124c-9.75 6.5-22.624 9.75-35.5 9.75-12.874 0-25.714-3.25-35.496-9.75l-56.998-37.998c-9.75-6.5-22.624-9.75-35.5-9.75s-25.718 3.25-35.498 9.75l-56.998 37.998c-9.75 6.5-22.624 9.75-35.498 9.75-12.876 0-25.718-3.25-35.498-9.75l-56.998-37.998c-9.75-6.5-22.624-9.75-35.5-9.75-12.842 0-25.718 3.25-35.5 9.75l-56.998 37.998c-9.75 6.5-22.624 9.75-35.5 9.75-12.844 0-25.718-3.25-35.5-9.75l-56.966-37.998c-9.782-6.5-22.656-9.75-35.53-9.75-12.844 0-25.718 3.25-35.5 9.75l-56.966 37.998c-9.782 6.5-22.656 9.75-35.5 9.75-12.876 0-25.75-3.25-35.5-9.75l-53.624-35.748v51.278l29.936 19.968c16.376 10.906 37.406 16.938 59.186 16.938s42.78-6.032 59.154-16.938l56.998-38c1.344-0.906 5.562-2.594 11.812-2.594 6.282 0 10.5 1.688 11.844 2.594l56.998 38c16.374 10.906 37.406 16.938 59.154 16.938 21.78 0 42.812-6.032 59.184-16.938l57-38c1.344-0.906 5.53-2.594 11.812-2.594 6.28 0 10.5 1.688 11.842 2.594l56.998 38c16.376 10.906 37.374 16.938 59.154 16.938s42.81-6.032 59.186-16.938l56.996-38c1.344-0.906 5.532-2.594 11.812-2.594s10.5 1.688 11.844 2.594l57 38c16.374 10.906 37.374 16.938 59.15 16.938 21.782 0 42.812-6.032 59.188-16.938l25.998-17.344V430.64z" fill="#5E9CEA" /><path d="M853.322 949.324H170.66c-9.624 0-18.062-6.468-20.592-15.782L0.76 378.89c-3.062-11.374 3.656-23.092 15.032-26.156a21.34 21.34 0 0 1 26.156 15.062l145.088 538.87h649.916l145.086-538.87c3.062-11.376 14.782-18.124 26.156-15.062 11.374 3.062 18.094 14.782 15.06 26.156l-149.336 554.652a21.338 21.338 0 0 1-20.596 15.782z" fill="#646C77" /><path d="M666.078 87.088l-303.362 121.964c-32.686 13.438-48.28 50.78-34.842 83.466 13.436 32.686 50.78 48.31 83.466 34.874l180.806-74.09 73.932-166.214z" fill="#DBADA2" /><path d="M223.376 563.746c16.656 16.654 43.656 16.686 60.31 0.032l231.208-231.228-60.31-60.31-231.208 231.21c-16.656 16.656-16.656 43.64 0 60.296zM268.626 669.334c16.656 16.656 43.654 16.624 60.31-0.032l231.18-231.226-60.31-60.312-231.18 231.228c-16.656 16.656-16.656 43.686 0 60.342zM374.184 714.52c16.656 16.656 43.624 16.718 60.28 0.062l231.24-231.258-60.34-60.31L374.152 654.24c-16.654 16.656-16.624 43.626 0.032 60.28zM509.898 729.644c16.656 16.654 43.624 16.686 60.28 0.032l231.208-231.226-60.31-60.34-231.242 231.224c-16.654 16.656-16.592 43.654 0.064 60.31z" fill="#EAC6BB" /><path d="M592.77 134.056l-186.556 186.554 60.342 60.31a10.618 10.618 0 0 1 15.03 0c4.156 4.188 4.188 10.906 0.032 15.062l60.31 60.31c4.156-4.156 10.906-4.124 15.062 0.032s4.188 10.906 0.032 15.062l60.308 60.312a10.628 10.628 0 0 1 15.062 0.032 10.638 10.638 0 0 1 0 15.046l60.342 60.34 186.554-186.572c79.124-79.124 79.154-207.4 0-286.52-79.12-79.152-207.366-79.12-286.518 0.032z" fill="#EAC6BB" /></svg>