<?xml version="1.0" standalone="no"?><!DOCTYPE svg PUBLIC "-//W3C//DTD SVG 1.1//EN" "http://www.w3.org/Graphics/SVG/1.1/DTD/svg11.dtd"><svg class="icon" width="128px" height="128.00px" viewBox="0 0 1024 1024" version="1.1" xmlns="http://www.w3.org/2000/svg"><path d="M778.582 292.352C775.208 148.216 656.932 32.018 512 32.018c-70.998 0-137.822 27.594-188.134 77.686-49.952 49.748-77.826 115.916-78.498 186.368-0.016 0.516-0.032 1.046-0.032 1.578v54.358h106.668v-53.17c0.016-0.328 0.016-0.64 0.016-0.922 0.204-42.576 16.922-82.576 47.108-112.622 30.186-30.06 70.262-46.606 112.872-46.606 88.214 0 159.994 71.76 159.994 159.992 0 7.062-0.5 14.234-1.438 21.328h39.438v31.998h74.212v-59.654h-5.624z" fill="#5D9CEC" /><path d="M895.984 448.206v-160.198c0-11.782-9.562-21.328-21.312-21.328H575.998c-11.782 0-21.312 9.546-21.312 21.328v160.198c-80.388 55.952-128.01 146.728-128.01 245.102 0 79.808 31.062 154.804 87.466 211.208 56.42 56.404 131.416 87.466 211.164 87.466 79.808 0 154.804-31.062 211.178-87.466 56.436-56.404 87.498-131.4 87.498-211.208-0.002-98.374-47.626-189.152-127.998-245.102z m-170.68 415.78c-94.06 0-170.62-76.56-170.62-170.68 0-94.092 76.558-170.634 170.62-170.634 94.122 0 170.68 76.542 170.68 170.634 0 94.12-76.558 170.68-170.68 170.68z" fill="#CCD1D9" /><path d="M757.3 927.982a21.296 21.296 0 0 1-21.31 21.312c-11.78 0-21.31-9.532-21.31-21.312s9.532-21.31 21.31-21.31a21.294 21.294 0 0 1 21.31 21.31z" fill="#AAB2BC" /><path d="M804.894 981.294c3.812-13.376 6.532-29.968 6.532-50.124 0-34.624-8.124-63.746-15.282-82.59a170.294 170.294 0 0 1-40.844 12.782c5.876 14.876 13.5 39.936 13.5 69.808 0 32.156-8.624 51.032-13.656 59.344a294.406 294.406 0 0 0 49.75-9.22z" fill="#AAB2BC" /><path d="M469.33 448.206v-160.198c0-11.782-9.546-21.328-21.328-21.328H149.342c-11.782 0-21.328 9.546-21.328 21.328v160.198C47.642 504.156 0.02 594.934 0.02 693.306c0 79.808 31.062 154.804 87.482 211.208 56.404 56.404 131.4 87.466 211.178 87.466 79.762 0 154.776-31.062 211.18-87.466 56.388-56.404 87.452-131.4 87.452-211.208-0.002-98.372-47.626-189.15-127.982-245.1z m-170.65 415.78c-94.106 0-170.666-76.56-170.666-170.68 0-94.092 76.56-170.634 170.666-170.634 94.09 0 170.65 76.542 170.65 170.634 0 94.12-76.56 170.68-170.65 170.68z" fill="#E6E9ED" /><path d="M330.678 927.982c0 11.782-9.562 21.312-21.342 21.312-11.782 0-21.328-9.532-21.328-21.312s9.546-21.31 21.328-21.31c11.78 0 21.342 9.53 21.342 21.31z" fill="#CCD1D9" /><path d="M767.988 416.004c0 23.56-19.124 42.67-42.684 42.67s-42.624-19.11-42.624-42.67c0-23.562 19.062-42.67 42.624-42.67s42.684 19.108 42.684 42.67z" fill="#434A54" /><path d="M746.678 355.678v-25c0-11.78-9.562-21.342-21.374-21.342-11.75 0-21.31 9.562-21.31 21.342v25c-24.812 8.796-42.688 32.514-42.688 60.326 0 35.294 28.75 63.996 63.998 63.996 35.308 0 63.996-28.702 63.996-63.996 0-27.812-17.812-51.53-42.622-60.326z m-21.374 81.652c-11.75 0-21.31-9.562-21.31-21.326 0-11.766 9.56-21.328 21.31-21.328 11.78 0 21.374 9.562 21.374 21.328 0 11.764-9.594 21.326-21.374 21.326z" fill="#656D78" /><path d="M341.334 416.004c0 23.56-19.094 42.67-42.656 42.67s-42.67-19.11-42.67-42.67c0-23.562 19.108-42.67 42.67-42.67s42.656 19.108 42.656 42.67z" fill="#434A54" /><path d="M320.008 355.678v-25c0-11.78-9.546-21.342-21.328-21.342-11.78 0-21.342 9.562-21.342 21.342v25c-24.828 8.796-42.654 32.514-42.654 60.326 0 35.294 28.702 63.996 63.998 63.996 35.28 0 63.998-28.702 63.998-63.996-0.002-27.812-17.846-51.53-42.672-60.326z m-21.328 81.652c-11.764 0-21.342-9.562-21.342-21.326 0-11.766 9.578-21.328 21.342-21.328 11.75 0 21.328 9.562 21.328 21.328 0 11.764-9.578 21.326-21.328 21.326z" fill="#656D78" /><path d="M490.672 32.862v107.23A163.854 163.854 0 0 1 512 138.688c7.232 0 14.358 0.484 21.326 1.42V32.876c-7.032-0.562-14.14-0.86-21.326-0.86-7.156 0.002-14.266 0.298-21.328 0.846zM414.238 171.996a158.622 158.622 0 0 1 36.92-21.374l-53.654-92.918A264.83 264.83 0 0 0 360.6 79.11l53.638 92.886zM271.04 184.2l92.918 53.638a158.44 158.44 0 0 1 21.374-36.92L292.43 147.28A265.452 265.452 0 0 0 271.04 184.2zM638.588 200.95a160.758 160.758 0 0 1 21.406 36.92l92.838-53.608a266.79 266.79 0 0 0-21.404-36.904l-92.84 53.592zM609.714 172.074l53.592-92.838a266.58 266.58 0 0 0-36.874-21.39l-53.624 92.856a159.86 159.86 0 0 1 36.906 21.372z" fill="#4A89DC" /><path d="M378.254 981.294c3.796-13.376 6.546-29.968 6.546-50.124 0-34.624-8.172-63.746-15.312-82.59a170.368 170.368 0 0 1-40.828 12.782c5.86 14.876 13.468 39.936 13.468 69.808 0 32.156-8.594 51.032-13.64 59.344a294.848 294.848 0 0 0 49.766-9.22z" fill="#CCD1D9" /></svg>