<?xml version="1.0" standalone="no"?><!DOCTYPE svg PUBLIC "-//W3C//DTD SVG 1.1//EN" "http://www.w3.org/Graphics/SVG/1.1/DTD/svg11.dtd"><svg class="icon" width="128px" height="128.00px" viewBox="0 0 1024 1024" version="1.1" xmlns="http://www.w3.org/2000/svg"><path d="M246.544 601.968a21.256 21.256 0 0 1 5.594-20.438l575.92-575.28c8.344-8.328 21.844-8.312 30.156 0.016l135.778 135.76c0.656 0.672 1.282 1.36 1.844 2.078l2.688 2.468a21.36 21.36 0 0 1 6.876 14.796l2.624 60.28c0.5 11.782-8.624 21.734-20.376 22.25l-39 1.688 1.688 38.966c0.532 11.782-8.594 21.734-20.374 22.25l-38.968 1.688 1.688 38.984a21.356 21.356 0 0 1-20.404 22.234l-38.968 1.688 1.688 38.968a21.334 21.334 0 0 1-5.562 15.342 21.418 21.418 0 0 1-14.812 6.906l-38.966 1.688 1.688 38.968c0.25 5.656-1.782 11.172-5.594 15.344s-9.156 6.656-14.782 6.906l-38.996 1.688 1.688 38.966a21.356 21.356 0 0 1-5.562 15.36 21.484 21.484 0 0 1-14.812 6.906l-38.968 1.688 1.688 38.968a21.396 21.396 0 0 1-5.594 15.344 21.42 21.42 0 0 1-14.812 6.906l-38.968 1.688 1.68 38.968c0.532 11.778-8.592 21.714-20.374 22.246l-38.966 1.688 1.688 38.968c0.5 11.782-8.624 21.718-20.406 22.25l-38.968 1.688 1.688 38.964c0.532 11.782-8.624 21.718-20.374 22.25l-60.28 2.594c-0.25 0.032-0.468 0.032-0.688 0.032l-161.09-210.712z" fill="#E5E8EC" /><path d="M428.758 764.434c-1.218-20.876-10.282-39.25-26.25-53.124-35.81-31.124-25.936-79.902-16.404-127.058 7.592-37.562 14.748-73.03-3.876-98.216l-14.75-19.922L15.958 818.398l8.686 14.312c16.876 27.75 40.686 35.032 59.812 40.876 21.03 6.406 34.906 10.656 45.842 38.124 40.404 101.34 78.872 112.278 93.528 112.278l9.28-0.344 144.528-144.528 0.688-0.75c5.5-6.03 53.592-60.592 50.436-113.932z m-102.934 75.62l-0.094 0.094-0.25 0.282c-0.032 0-0.032 0-0.062 0.032l-44.906 44.906-0.032 0.032a21.696 21.696 0 0 1-5.532 3.968 21.092 21.092 0 0 1-9.5 2.25c-7.844 0-15.376-4.312-19.124-11.782l-60.342-120.714c-4.156-8.344-2.312-18.156 3.874-24.468 0.062-0.032 45.374-45.376 45.374-45.376s0.032-0.032 0.062-0.032a21.38 21.38 0 0 1 5.468-3.968c10.532-5.25 23.344-1 28.624 9.562l60.342 120.684c4.19 8.374 2.348 18.186-3.902 24.53z" fill="#5E9CEA" /><path d="M402.508 711.308a74.688 74.688 0 0 1-4.25-4c-0.094 0.094-0.218 0.188-0.312 0.282l-19.78 19.812c-8.344 8.312-8.344 21.812 0 30.156 8.312 8.344 21.81 8.344 30.154 0l15.718-15.718c-4.374-11.562-11.624-21.906-21.53-30.532zM393.414 540.36c-5.592-0.11-11.248 1.954-15.498 6.234l-29.906 29.876c-8.312 8.344-8.312 21.844 0 30.188a21.33 21.33 0 0 0 30.186 0l4.344-4.344a1147.956 1147.956 0 0 1 3.562-18.062c3.064-15.158 6.064-29.97 7.312-43.892z" fill="#4B89DA" /></svg>