<?xml version="1.0" standalone="no"?><!DOCTYPE svg PUBLIC "-//W3C//DTD SVG 1.1//EN" "http://www.w3.org/Graphics/SVG/1.1/DTD/svg11.dtd"><svg class="icon" width="128px" height="128.00px" viewBox="0 0 1024 1024" version="1.1" xmlns="http://www.w3.org/2000/svg"><path d="M994.64 335.366c-15.312-22.546-43.092-56.61-88.402-91.014-69.966-53.076-195.152-116.34-394.238-116.34-199.072 0-324.256 63.264-394.208 116.34C36.56 305.974 0.016 375.598 0.016 405.348v383.988c0 11.782 9.56 21.344 21.342 21.344h981.314c11.75 0 21.312-9.562 21.312-21.344V405.348c0-17.032-10.688-42.532-29.344-69.982z" fill="#434A54" /><path d="M995.046 417.956c-15.376-24.31-43.092-61.108-88.122-98.372-70.308-58.202-195.9-127.574-394.924-127.574-199.01 0-324.6 69.374-394.91 127.574-45.032 37.264-72.764 74.06-88.108 98.372C10.842 446.706 0.016 473.878 0.016 490.672v384.004c0 11.782 9.56 21.312 21.342 21.312h981.314c11.75 0 21.312-9.532 21.312-21.312V490.672c0-16.796-10.812-43.966-28.938-72.716z" fill="#ED5564" /><path d="M279.552 373.348h449.314v65.936H279.552z" fill="#5D9CEC" /><path d="M874.676 895.988V575.998c0-11.782-9.562-21.312-21.344-21.312H170.682c-11.782 0-21.328 9.532-21.328 21.312v319.99h725.322z" fill="#FFCE54" /><path d="M426.674 767.992H213.352c-11.78 0-21.342-9.532-21.342-21.312s9.562-21.344 21.342-21.344h213.322c11.782 0 21.328 9.562 21.328 21.344s-9.546 21.312-21.328 21.312zM426.674 703.994H213.352c-11.78 0-21.342-9.562-21.342-21.312 0-11.81 9.562-21.342 21.342-21.342h213.322a21.32 21.32 0 0 1 21.328 21.342c0 11.75-9.546 21.312-21.328 21.312zM426.674 831.99H213.352c-11.78 0-21.342-9.532-21.342-21.31 0-11.782 9.562-21.344 21.342-21.344h213.322c11.782 0 21.328 9.562 21.328 21.344 0 11.778-9.546 21.31-21.328 21.31zM810.678 767.992H597.34c-11.782 0-21.344-9.532-21.344-21.312s9.562-21.344 21.344-21.344h213.338c11.75 0 21.312 9.562 21.312 21.344s-9.562 21.312-21.312 21.312zM810.678 703.994H597.34c-11.782 0-21.344-9.562-21.344-21.312 0-11.81 9.562-21.342 21.344-21.342h213.338c11.75 0 21.312 9.532 21.312 21.342 0 11.75-9.562 21.312-21.312 21.312zM810.678 831.99H597.34c-11.782 0-21.344-9.532-21.344-21.31 0-11.782 9.562-21.344 21.344-21.344h213.338c11.75 0 21.312 9.562 21.312 21.344 0 11.778-9.562 21.31-21.312 21.31z" fill="#F6BB42" /><path d="M746.68 469.346H277.35c-11.78 0-21.342-9.546-21.342-21.328v-85.342c0-11.782 9.562-21.326 21.342-21.326H746.68c11.75 0 21.312 9.544 21.312 21.326v85.342c0 11.78-9.562 21.328-21.312 21.328z m-448.002-42.672h426.658V384.02H298.678v42.654z" fill="#E6E9ED" /><path d="M512 469.346c-11.782 0-21.328-9.546-21.328-21.328v-85.342c0-11.782 9.546-21.326 21.328-21.326 11.796 0 21.344 9.544 21.344 21.326v85.342c0 11.78-9.548 21.328-21.344 21.328z" fill="#E6E9ED" /><path d="M490.672 554.686h42.672v341.302h-42.672z" fill="#F6BB42" /></svg>