<?xml version="1.0" standalone="no"?><!DOCTYPE svg PUBLIC "-//W3C//DTD SVG 1.1//EN" "http://www.w3.org/Graphics/SVG/1.1/DTD/svg11.dtd"><svg class="icon" width="128px" height="128.00px" viewBox="0 0 1024 1024" version="1.1" xmlns="http://www.w3.org/2000/svg"><path d="M21.346 21.362h981.324v981.276H21.346z" fill="#46CEAD" /><path d="M0.02 0.02v1023.96h1023.96V0.02H0.02z m981.274 981.306H42.69V42.674h938.606v938.652z" fill="#35BB9B" /><path d="M1002.67 21.362h-15.25c-15.31 23.436-42.03 57.748-83.748 91.778-67.994 55.436-191.148 121.526-391.672 121.526S188.34 168.576 120.342 113.14C78.608 79.11 51.924 44.8 36.564 21.362h-15.218v51.934c16.952 21.532 39.842 46.374 69.918 71.186 46.952 38.716 101.95 69.528 163.462 91.622 76.294 27.344 162.854 41.25 257.272 41.25 94.436 0 180.994-13.906 257.272-41.25 61.532-22.092 116.528-52.904 163.462-91.622 30.062-24.812 52.966-49.654 69.936-71.186V21.362z" fill="#35BB9B" /></svg>