<?xml version="1.0" standalone="no"?><!DOCTYPE svg PUBLIC "-//W3C//DTD SVG 1.1//EN" "http://www.w3.org/Graphics/SVG/1.1/DTD/svg11.dtd"><svg class="icon" width="128px" height="128.00px" viewBox="0 0 1024 1024" version="1.1" xmlns="http://www.w3.org/2000/svg"><path d="M479.946 340.44c-11.204 0-20.61-8.718-21.296-20.062-0.718-11.782 8.234-21.906 20.016-22.624 0.656-0.062 72.218-5.406 112.78-56.124 45.56-56.906 83.06-124.466 83.436-125.154 5.688-10.312 18.688-14.062 29.032-8.344 10.344 5.688 14.062 18.686 8.344 29.03-1.562 2.876-39.562 71.312-87.436 131.154-52.624 65.782-139.858 71.844-143.544 72.062a18.71 18.71 0 0 1-1.332 0.062z" fill="#434A54" /><path d="M479.992 340.44c-0.454 0-0.89-0.032-1.328-0.062-3.688-0.218-90.936-6.282-143.544-72.062-47.876-59.842-85.858-128.278-87.452-131.154-5.704-10.344-1.968-23.342 8.36-29.03 10.328-5.718 23.328-1.968 29.032 8.376 0.468 0.812 37.936 68.28 83.42 125.122 40.578 50.718 112.138 56.062 112.858 56.124 11.75 0.782 20.672 10.938 19.922 22.688-0.736 11.31-10.096 19.998-21.268 19.998zM522.696 468.594h-85.452c-11.796 0-21.36-9.562-21.36-21.374 0-11.782 9.562-21.344 21.36-21.344h85.452c11.796 0 21.376 9.562 21.376 21.344-0.002 11.812-9.58 21.374-21.376 21.374z" fill="#434A54" /><path d="M479.96 917.18c-11.796 0-21.36-9.562-21.36-21.376V106.788c0-11.782 9.562-21.344 21.36-21.344s21.376 9.562 21.376 21.344v789.016c0 11.814-9.578 21.376-21.376 21.376z" fill="#656D78" /><path d="M621.818 986.21l-128.17-106.812a21.394 21.394 0 0 0-27.36 0l-128.154 106.812a21.344 21.344 0 0 0-6.422 23.688 21.396 21.396 0 0 0 20.092 14.094h256.324c9 0 17.032-5.656 20.094-14.094a21.36 21.36 0 0 0-6.404-23.688z" fill="#656D78" /><path d="M522.696 64.07c0 23.594-19.124 42.718-42.734 42.718-23.592 0-42.718-19.124-42.718-42.718s19.124-42.718 42.718-42.718c23.608 0 42.734 19.124 42.734 42.718z" fill="#FFCE54" /><path d="M479.96 128.162c-35.328 0-64.078-28.75-64.078-64.092S444.632 0.01 479.96 0.01c35.344 0 64.11 28.718 64.11 64.06 0 35.344-28.766 64.092-64.11 64.092z m0-85.436c-11.766 0-21.36 9.562-21.36 21.344s9.594 21.376 21.36 21.376c11.782 0 21.376-9.594 21.376-21.376s-9.594-21.344-21.376-21.344z" fill="#F6BB42" /><path d="M777.816 328.002c-0.562-1.624-14.062-40.094-31.688-79.28-10.594-23.5-20.5-42.406-29.5-56.186-10.312-15.812-24.624-33.938-44.438-33.938-19.75 0-34.094 18.124-44.374 33.938-9 13.782-18.938 32.688-29.5 56.186-17.624 39.186-31.124 77.656-31.716 79.28l-1.188 3.438v391.93l5.344 6.062c1.562 1.75 10.186 10.968 26.686 20.062 21.624 11.876 47.498 18.156 74.748 18.156 66.844 0 100.062-36.656 101.438-38.218l5.376-6.062V331.44l-1.188-3.438z" fill="#DA4453" /><path d="M571.132 729.808c0.062 0.062 0.124 0.124 0.156 0.188l0.312 0.312c0.094 0.094 0.188 0.218 0.282 0.312l0.344 0.344c0.094 0.124 0.25 0.25 0.376 0.376 0.124 0.156 0.28 0.282 0.404 0.438 0.124 0.124 0.282 0.25 0.438 0.406 0.188 0.188 0.406 0.376 0.624 0.594 0.124 0.094 0.218 0.218 0.344 0.312 4.156 3.938 11.782 10.188 23.032 16.406 20.5 11.25 44.81 17.468 70.56 18.094l2.656-20.218c35.156-266.246-25.562-505.804-26.156-508.21l-13.376-51.624c-1.124 1.688-2.248 3.344-3.31 5-7.218 11.032-15 25.376-23.282 42.75l-0.032 0.032c-1.25 2.688-2.5 5.344-3.75 8.032 0 0.062-0.032 0.094-0.062 0.124-0.5 1.156-1.032 2.282-1.562 3.406l-0.376 0.938a110.32 110.32 0 0 0-1.562 3.406c-0.062 0.188-0.156 0.344-0.25 0.532-0.5 1.124-0.968 2.218-1.438 3.312-0.124 0.25-0.25 0.5-0.344 0.75-0.468 1.094-0.968 2.218-1.438 3.312-0.376 0.844-0.718 1.656-1.094 2.5-0.25 0.594-0.5 1.188-0.75 1.75-0.376 0.876-0.75 1.75-1.124 2.594-0.124 0.376-0.312 0.75-0.438 1.094l-1.124 2.718a11.55 11.55 0 0 0-0.406 0.938 102.38 102.38 0 0 0-1.156 2.782c-0.124 0.25-0.218 0.5-0.312 0.75-0.406 0.968-0.812 1.906-1.188 2.844a8.446 8.446 0 0 0-0.25 0.624c-0.438 1-0.812 2-1.218 2.968a1.516 1.516 0 0 1-0.156 0.312 1082.69 1082.69 0 0 0-10.438 26.718l-0.032 0.032c-0.312 0.812-0.594 1.624-0.906 2.406 0 0.032-0.032 0.094-0.062 0.156-1.374 3.688-2.56 6.906-3.56 9.562-0.062 0.218-0.124 0.438-0.218 0.624-0.094 0.282-0.156 0.5-0.282 0.75-0.124 0.344-0.25 0.688-0.344 1.032-0.062 0.124-0.094 0.282-0.156 0.406-0.124 0.406-0.282 0.782-0.438 1.156 0 0.062 0 0.124-0.062 0.188-0.812 2.282-1.312 3.656-1.376 3.968l-0.75 2-0.468 1.438v391.93l5.344 6.062c0.124 0.094 0.25 0.218 0.374 0.374z" fill="#ED5564" /><path d="M693.566 1023.992H266.356c-11.796 0-21.36-9.594-21.36-21.376 0-11.812 9.562-21.376 21.36-21.376h427.21a21.366 21.366 0 0 1 21.376 21.376c0 11.782-9.564 21.376-21.376 21.376z" fill="#434A54" /></svg>