<?xml version="1.0" standalone="no"?><!DOCTYPE svg PUBLIC "-//W3C//DTD SVG 1.1//EN" "http://www.w3.org/Graphics/SVG/1.1/DTD/svg11.dtd"><svg class="icon" width="128px" height="128.00px" viewBox="0 0 1024 1024" version="1.1" xmlns="http://www.w3.org/2000/svg"><path d="M703.938 895.988H319.936l-63.998 127.994h511.998z" fill="#646C77" /><path d="M277.25 981.296l-21.312 42.686h511.998l-21.374-42.686z" fill="#424953" /><path d="M511.93 0.018c-11.782 0-21.344 9.53-21.344 21.31v749.32h42.656V21.328A21.298 21.298 0 0 0 511.93 0.018zM597.254 64.016a21.28 21.28 0 0 0-21.31 21.31v691.978h42.622V85.326c-0.002-11.78-9.562-21.31-21.312-21.31zM426.588 64.016c-11.78 0-21.342 9.532-21.342 21.31v691.978h42.686V85.326c0-11.78-9.562-21.31-21.344-21.31zM341.248 128.012a21.3 21.3 0 0 0-21.312 21.312v594.666h42.656V149.324c-0.002-11.782-9.564-21.312-21.344-21.312zM682.564 128.012c-11.75 0-21.312 9.532-21.312 21.312v594.666h42.686V149.324c0-11.782-9.562-21.312-21.374-21.312z" fill="#CBD0D8" /><path d="M929.182 537.626c-1.688-91.686-24.498-188.182-65.874-279.024l-2.064-4.594-90.182-23.216c27.936 108.34 40.934 195.62 39.686 266.834-1.252 71.28-16.75 125.122-47.376 164.622-45.31 58.592-126.746 87.058-248.79 87.058h-5.154c-122.058 0-203.432-28.466-248.804-87.058-30.592-39.5-46.092-93.342-47.342-164.622-1.282-71.214 11.72-158.494 39.718-266.834l-90.184 23.216-2.094 4.594c-41.404 90.842-64.154 187.338-65.872 279.024-1.782 96.152 20 182.274 62.936 249.052 64.248 99.842 172.026 152.622 311.646 152.622h85.138c139.684 0 247.428-52.78 311.676-152.622 42.938-66.78 64.686-152.9 62.936-249.052z" fill="#F5BA45" /><path d="M928.87 526.938c-3.062 83.246-24.5 157.806-62.626 217.086-64.248 99.84-171.992 152.62-311.676 152.62h-85.138c-139.62 0-247.398-52.78-311.646-152.62-38.124-59.28-59.53-133.84-62.624-217.086-0.126 3.56-0.25 7.124-0.312 10.688-1.782 96.152 20 182.274 62.936 249.052 64.248 99.842 172.026 152.622 311.646 152.622h85.138c139.684 0 247.428-52.78 311.676-152.622 42.94-66.78 64.688-152.9 62.938-249.052a633.602 633.602 0 0 0-0.312-10.688z" fill="#FFFFFF" opacity=".2" /><path d="M225.876 213.322h559.746v42.686H225.876z" fill="#E5E8EC" /><path d="M938.932 213.322c0 47.124-38.188 85.342-85.31 85.342-47.126 0-85.31-38.218-85.31-85.342s38.186-85.31 85.31-85.31c47.122 0 85.31 38.188 85.31 85.31z" fill="#FECD57" /><path d="M874.934 213.322c0 11.782-9.5 21.344-21.312 21.344s-21.31-9.562-21.31-21.344 9.498-21.31 21.31-21.31 21.312 9.53 21.312 21.31z" fill="#F5BA45" /><path d="M85.068 213.322c0 47.124 38.218 85.342 85.34 85.342s85.342-38.218 85.342-85.342-38.218-85.31-85.342-85.31-85.34 38.188-85.34 85.31z" fill="#FECD57" /><path d="M191.752 213.322c0 11.782-9.562 21.344-21.342 21.344s-21.342-9.562-21.342-21.344 9.562-21.31 21.342-21.31 21.342 9.53 21.342 21.31z" fill="#F5BA45" /></svg>