<?xml version="1.0" standalone="no"?><!DOCTYPE svg PUBLIC "-//W3C//DTD SVG 1.1//EN" "http://www.w3.org/Graphics/SVG/1.1/DTD/svg11.dtd"><svg class="icon" width="128px" height="128.00px" viewBox="0 0 1024 1024" version="1.1" xmlns="http://www.w3.org/2000/svg"><path d="M99.512 990.14c-16.626 16.626-43.686 16.626-60.342 0-16.626-16.656-16.626-43.718 0-60.342l628.134-628.104 60.31 60.342L99.512 990.14z" fill="#A85D5D" /><path d="M667.274 271.54L24.108 914.706c-25 24.998-25 65.53 0 90.528 25 25 65.498 25 90.498 0l643.198-643.196-90.53-90.498zM84.45 975.046c-8.342 8.312-21.874 8.312-30.186 0-8.312-8.312-8.312-21.844 0-30.188L667.274 331.88l30.188 30.156L84.45 975.046z" fill="#965353" /><path d="M455.718 483.096l90.496 90.496 181.402-181.37-90.498-90.526z" fill="#EC5564" /><path d="M637.118 301.696L425.562 513.25l90.498 90.528 211.556-211.556z" fill="#EC5564" /><path d="M637.118 301.696l90.498 90.496 150.278-150.776 8.782 68.496S1145.01 130.792 938.798 0.018l-301.68 301.678z" fill="#CBD0D8" /><path d="M582.184 368.222l75.714 75.686 30.156-30.186-75.684-75.684zM523.466 430.158l75.684 75.686 30.186-30.154-75.682-75.686zM463.124 490.502l75.686 75.684 30.186-30.188-75.684-75.652z" fill="#D94452" /><path d="M667.274 331.88L455.718 543.436l-30.186-30.186 211.586-211.554zM727.616 392.222L516.06 603.778l-30.186-30.156L697.46 362.038z" fill="#D94452" /><path d="M697.46 362.038l30.156 30.154 151.088-151.058 0.938-61.278z" fill="#A9B1BC" /></svg>