<?xml version="1.0" standalone="no"?><!DOCTYPE svg PUBLIC "-//W3C//DTD SVG 1.1//EN" "http://www.w3.org/Graphics/SVG/1.1/DTD/svg11.dtd"><svg class="icon" width="128px" height="128.00px" viewBox="0 0 1024 1024" version="1.1" xmlns="http://www.w3.org/2000/svg"><path d="M320.004375 27.371947h42.655917v804.620428h-42.655917zM384.00225 49.057904h42.655917v703.684626h-42.655917zM448.002125 110.259785h42.655917v560.234905h-42.655917zM512 219.367572h42.653917v368.817279H512zM575.995875 275.115463h42.655917v230.791549h-42.655917zM639.99575 277.333458h42.655917v204.9936h-42.655917zM703.993625 221.707567h42.653917v119.623766h-42.653917zM767.9915 158.91369h42.655917v100.137804h-42.655917z" fill="#CCD1D9" /><path d="M277.318458 0.012H192.008625c-11.781977 0-21.341958 9.545981-21.341958 21.327958v895.96025c0 11.809977 9.561981 21.373958 21.341958 21.373959h85.309833c11.781977 0 21.341958-9.561981 21.341959-21.373959V21.339958c0.002-11.781977-9.559981-21.327958-21.341959-21.327958z" fill="#F4BE8E" /><path d="M170.666667 106.681792h127.99575v213.321583H170.666667zM170.666667 746.680542h127.99575v213.305583H170.666667z" fill="#ED5564" /><path d="M617.121795 298.677417c-30.65594 0-56.18589-11.609977-78.059848-35.499931-17.903965-19.515962-31.403939-44.873912-45.715911-71.73186-19.091963-35.84393-38.841924-72.919858-71.091861-101.293802-36.341929-31.935938-83.747836-47.465907-144.933717-47.465907-11.781977 0-21.311958-9.561981-21.311958-21.343959S265.538481 0.014 277.320458 0.014c72.029859 0 128.653749 18.999963 173.089662 58.109886C488.500046 91.619821 511.094002 133.993738 530.999963 171.381665c28.779944 54.043894 46.963908 84.623835 86.121832 84.623835 51.0619 0 78.403847-31.967938 107.34179-65.809871 17.779965-20.781959 36.185929-42.281917 60.279882-55.637892 28.531944-15.843969 60.155883-17.623966 96.653812-5.453989 11.153978 3.733993 17.215966 15.809969 13.497973 26.981947-3.749993 11.171978-15.809969 17.217966-26.997947 13.499974-25.215951-8.405984-44.465913-7.703985-62.465878 2.281995-17.375966 9.623981-32.499937 27.327947-48.531905 46.06191-30.77994 35.98193-69.059865 80.747842-139.777727 80.747843z" fill="#FFD2A6" /><path d="M277.318458 42.683917H149.322708c-11.779977 0-21.311958-9.561981-21.311958-21.343959S137.542731 0.012 149.322708 0.012h127.99775c11.781977 0 21.341958 9.545981 21.341959 21.327958s-9.561981 21.343958-21.343959 21.343959z" fill="#FFD2A6" /><path d="M490.658042 895.98825h-59.249885c-11.781977 0-21.341958-9.561981-21.341958-21.309958 0-11.811977 9.561981-21.375958 21.341958-21.375959h59.249885c11.779977 0 21.341958 9.561981 21.341958 21.375959 0 11.747977-9.561981 21.309958-21.341958 21.309958z" fill="#434A54" /><path d="M886.769268 131.791743c-9.309982-6.437987-22.029957-4.483991-28.965943 4.453991L260.474491 904.238234a21.249958 21.249958 0 0 0-2.311995 22.435956c3.593993 7.343986 11.031978 11.999977 19.155962 11.999977h127.99775c7.437985 0 14.341972-3.875992 18.217965-10.24998L892.831256 160.459687a21.315958 21.315958 0 0 0-6.061988-28.667944z" fill="#FFD2A6" /><path d="M448.002125 895.98825H149.322708c-11.779977 0-21.311958 9.561981-21.311958 21.311958v85.373834c0 11.749977 9.531981 21.311958 21.311958 21.311958h298.679417c11.779977 0 21.311958-9.561981 21.311958-21.311958v-85.373834c0-11.749977-9.531981-21.311958-21.311958-21.311958z" fill="#656D78" /></svg>