<?xml version="1.0" standalone="no"?><!DOCTYPE svg PUBLIC "-//W3C//DTD SVG 1.1//EN" "http://www.w3.org/Graphics/SVG/1.1/DTD/svg11.dtd"><svg class="icon" width="128px" height="128.00px" viewBox="0 0 1024 1024" version="1.1" xmlns="http://www.w3.org/2000/svg"><path d="M1023.98 640.05c0 70.684-229.24 127.994-511.98 127.994-282.754 0-511.98-57.31-511.98-127.994S229.246 512.04 512 512.04c282.74 0 511.98 57.328 511.98 128.01z" fill="#D670AC" /><path d="M809.49 579.302s-131.058 60.748-295.1 60.748c-164.026 0-298.864-60.748-298.864-60.748 0-152.134 106.45-323.348 296.99-323.348 190.54 0.002 296.974 171.214 296.974 323.348z" fill="#EB87BF" /><path d="M828.99 538.258c5.5-12.422 3.188-27.468-7-37.64s-25.25-12.516-37.656-7.032c-8-10.968-22.218-16.454-36.094-12.734-13.904 3.734-23.466 15.594-24.936 29.078-13.5 1.468-25.342 11.016-29.06 24.922-3.75 13.89 1.75 28.078 12.75 36.11-5.5 12.404-3.188 27.466 6.998 37.652 10.188 10.156 25.25 12.5 37.654 7 8 10.968 22.218 16.468 36.094 12.75 13.906-3.75 23.468-15.594 24.938-29.092 13.5-1.468 25.344-11 29.062-24.906a33.824 33.824 0 0 0-12.75-36.108z" fill="#E5E8EC" /><path d="M789.302 554.618c0 11.782-9.532 21.31-21.312 21.31s-21.312-9.53-21.312-21.31c0-11.796 9.532-21.344 21.312-21.344s21.312 9.546 21.312 21.344z" fill="#EC5564" /></svg>