<?xml version="1.0" standalone="no"?><!DOCTYPE svg PUBLIC "-//W3C//DTD SVG 1.1//EN" "http://www.w3.org/Graphics/SVG/1.1/DTD/svg11.dtd"><svg class="icon" width="128px" height="128.00px" viewBox="0 0 1024 1024" version="1.1" xmlns="http://www.w3.org/2000/svg"><path d="M874.644 597.302S895.984 213.33 512 213.33c-383.986 0-362.674 383.972-362.674 383.972L0.02 767.982S141.858 810.67 512 810.67s511.98-42.688 511.98-42.688l-149.336-170.68z" fill="#AC92EA" /><path d="M874.644 597.302S725.304 639.988 512 639.988c-213.334 0-362.674-42.686-362.674-42.686L0.02 767.982S141.858 810.67 512 810.67s511.98-42.688 511.98-42.688l-149.336-170.68z" fill="#967ADA" /><path d="M746.646 661.298c-23.53 0-42.652-19.124-42.652-42.624 0-23.56 19.124-42.686 42.652-42.686 23.532 0 42.656 19.124 42.656 42.686 0 23.502-19.124 42.624-42.656 42.624z" fill="#D670AC" /><path d="M746.646 554.68c-35.342 0-63.996 28.624-63.996 63.996 0 35.31 28.654 63.998 63.996 63.998 35.344 0 64-28.688 64-63.998 0-35.374-28.656-63.996-64-63.996z m0 85.308c-11.748 0-21.342-9.562-21.342-21.312 0-11.782 9.594-21.374 21.342-21.374 11.782 0 21.344 9.592 21.344 21.374 0 11.75-9.562 21.312-21.344 21.312z" fill="#EB87BF" /><path d="M37.768 776.638l154.244-179.336s-20.53-369.566 341.3-383.55a557.798 557.798 0 0 0-21.312-0.422c-383.986 0-362.674 383.972-362.674 383.972L0.02 767.982l37.748 8.656z" fill="#FFFFFF" opacity=".2" /></svg>