<?xml version="1.0" standalone="no"?><!DOCTYPE svg PUBLIC "-//W3C//DTD SVG 1.1//EN" "http://www.w3.org/Graphics/SVG/1.1/DTD/svg11.dtd"><svg class="icon" width="128px" height="128.00px" viewBox="0 0 1024 1024" version="1.1" xmlns="http://www.w3.org/2000/svg"><path d="M702.9 576.156c-59-0.25-123.402 0-190.9 0-67.482 0-131.902-0.25-190.9 0L0.02 597.5v21.342c0 47.124 105.714 170.65 511.98 170.65s511.98-123.528 511.98-170.65v-19.31l-321.08-23.376z" fill="#602B2B" /><path d="M1023.98 597.5c0 47.122-105.714 170.648-511.98 170.648S0.02 644.62 0.02 597.5c0-47.124 229.226-42.654 511.98-42.654 282.74 0 511.98-4.47 511.98 42.654z" fill="#602B2B" /><path d="M1023.98 597.5c0 47.122-105.714 170.648-511.98 170.648S0.02 644.62 0.02 597.5c0-47.124 229.226-42.654 511.98-42.654 282.74 0 511.98-4.47 511.98 42.654z" fill="#6D3B3B" /><path d="M874.676 597.5s-135.308 63.996-362.55 63.996c-227.226 0-363.284-63.996-363.284-63.996s103.95-361.628 135.652-361.628 206.93 62.982 227.256 62.982c20.312 0 206.742-75.31 227.992-62.982 21.28 12.342 134.934 361.628 134.934 361.628z" fill="#7F4545" /><path d="M512.124 618.842c-189.352 0-315.364-44.436-352.126-59.246-6.968 23.31-11.156 37.904-11.156 37.904s136.058 63.996 363.284 63.996c227.242 0 362.55-63.996 362.55-63.996s-4.688-14.376-12.344-37.436c-38.092 15.312-162.9 58.778-350.208 58.778z" fill="#EC5564" /><path d="M284.494 278.542c31.702 0 206.93 62.982 227.256 62.982 20.312 0 206.742-75.308 227.992-62.982 16.966 9.828 92.592 233.726 122.59 324.208 8.124-3.25 12.344-5.25 12.344-5.25s-113.654-349.286-134.934-361.628c-21.25-12.328-207.68 62.982-227.992 62.982-20.328 0-195.554-62.982-227.256-62.982S148.842 597.5 148.842 597.5s3.796 1.782 11.156 4.75c27.686-92.764 99.152-323.708 124.496-323.708z" fill="#FFFFFF" opacity=".1" /></svg>