<?xml version="1.0" standalone="no"?><!DOCTYPE svg PUBLIC "-//W3C//DTD SVG 1.1//EN" "http://www.w3.org/Graphics/SVG/1.1/DTD/svg11.dtd"><svg class="icon" width="128px" height="128.00px" viewBox="0 0 1024 1024" version="1.1" xmlns="http://www.w3.org/2000/svg"><path d="M474.916 938.488l-6.248 0.438c-0.062 0-5.592 0.312-12.59 0.312-14.652 0-20.37-1.438-21.65-1.812-7.124-4.376-17.714-7.998-28.898-11.808-6.154-2.124-15.308-5.25-18.588-6.938-0.812-0.78-1.844-1.78-3.062-2.936-22.836-21.806-38.582-34.99-51.546-37.988-9.06-2.092-48.142-9.874-64.136-9.874-6.06-1.716-23.274-13.744-30.054-20.492-7.31-7.216-18.244-9.996-40.332-15.184-9.06-2.124-24.056-5.624-28.398-7.934-4.186-3.376-9.092-6.5-13.84-9.53-3.656-2.342-9.372-5.966-12.122-8.342-2.344-7.746-8.81-15.622-21.4-18.526-4.624-1.092-9.964-1.53-17.776-1.53-2.468 0-4.998 0.062-7.498 0.094-2.218 0.032-4.374 0.094-6.436 0.094-3.436 0-5.092-0.124-5.78-0.218a352.056 352.056 0 0 0-9.278-3.376c-8.154-2.968-26.742-9.622-32.522-12.684-4.466-4.156-11.152-8.154-17.932-11.714 3.03-13.934 5.154-28.118 3.842-36.27-0.656-3.968-1.75-8.654-2.936-13.59-1.812-7.562-4.28-17.934-4.28-23.432 0-2.436 1-7.624 1.874-12.184 2.25-11.558 5.03-25.93 2.062-40.112-0.876-5.562 2.28-26.43 4.186-38.864 3.342-22.182 5.186-35.178 3.436-44.3-1.186-6.324-3.374-13.106-5.716-20.274-2.468-7.624-5.842-18.058-5.842-22.854 0-10.138 5.342-38.988 7.374-49.86l0.656-3.624c1.844-10.044-0.686-23.446-5.03-44.33-1.124-5.312-2.624-12.45-2.936-15.292 0.594-3.936 3.53-14.98 5.498-22.43 5.998-22.462 7.998-30.976 7.092-38.176-1.032-8.326-5.436-14.23-8.654-18.542-3.186-4.248-4-5.608-4-7.684v-37.146c13.09-4.03 30.928-9.684 39.238-13.152 4.154-1.578 20.086-3.03 28.648-3.826 18.494-1.704 26.96-2.61 33.676-6.436 4.874-2.766 11.028-8.124 23.836-19.65 4.716-4.234 11.622-10.418 14.496-12.668 3-1.078 10.404-2.92 15.432-4.17 19.338-4.81 29.804-7.654 36.614-14.386 1.436-1.266 7.31-5.78 31.272-20.682l1.5-0.938c5.248-2.78 30.552-11.684 44.206-16.48 3-1.046 5.842-2.046 8.498-2.984 7.53-2.656 16.746-4.264 24.836-5.686 15.214-2.64 28.336-4.936 34.24-17.572 1.436-2.672 5.592-7.998 8.278-10.544 15.588-2.484 52.672-12.34 65.636-17.682 11.996-4.952 18.932-12.59 23.524-17.634 0.75-0.796 1.656-1.796 2.312-2.452 9.184-3.03 36.426-12.95 51.608-18.494 16.746 10.622 46.298 28.256 62.856 31.552 6.406 1.28 12.872 2 18.558 2.624 4.53 0.5 11.058 1.218 14.246 2.092 10.714 12.824 37.55 30.1 53.326 31.6 2.06 0.188 8.28 1.89 12.402 3 9.998 2.718 20.338 5.53 29.302 5.53 0.438 0 0.876-0.016 1.312-0.032 9.06 0.734 49.36 13.136 57.794 18.384 25.618 21.118 42.798 33.536 51.078 36.926 6.124 2.516 15.496 3.92 32.896 6.374 10.09 1.438 26.93 3.812 31.334 5.452 6.842 3.078 34.022 21.836 42.956 28.006 4.376 3.014 7.532 5.186 9.216 6.294 2.216 1.436 7.78 5.06 73.01 26.352-6.718 39.16-12.964 81.334-10.934 93.16 1.31 7.668 3.934 14.714 6.214 20.93 1.5 4.014 3.75 10.076 3.75 12.184-0.062 3.624-2.438 19.212-4.032 29.522-4.03 26.508-5.622 38.004-4.936 44.956 0.562 6.138 2.874 13.2 6.592 24.226 2.094 6.202 5.936 17.698 6.248 21.462-0.156 3.172-2.716 13.278-4.404 19.992-4.094 16.184-6.56 26.554-5.812 35.084 0.562 6.53 2.812 14.622 5.406 23.962 1.75 6.402 4.716 17.088 4.81 20.43-0.032 2.688-1.686 11.872-2.904 18.622-2.624 14.556-5.344 29.616-4.688 40.612 0.844 13.934 5.844 37.426 7.592 45.298v39.02c-25.804 14.652-27.552 17.276-30.022 20.96-7.904 11.874-15.278 21.556-18.528 25.054-7.434 2.718-29.832 8-36.77 8.812-0.688-0.062-1.344-0.062-2.03-0.062-10.154 0-17.15 5.964-27.774 15.026-3.966 3.404-9.404 8.03-12.372 9.81-4.56 2.154-22.12 5.778-30.584 7.558-15.964 3.312-21.96 4.532-27.148 8.216-2.906 2.06-30.458 22.682-40.176 31.772-5.996 2.968-26.804 7.81-33.332 8.308-0.344-0.032-0.688-0.032-1.032-0.032-7.404 0-13.59 3.312-23.868 8.75-5.938 3.124-19.808 10.434-24.774 10.808h-2.156c-15.09 0-40.426 4.686-52.796 17.37-4 1.624-13.058 4.03-18.712 5.53-11.404 3.032-18.432 4.968-23.838 7.874-7.964 2.842-46.328 10.964-81.006 17.588l-40.66-22.608z" fill="#FECD57" /><path d="M1010.878 467.006c-0.906-9.216 9.09-61.762 9.09-72.432 0-10.652-8.058-23.868-10.278-36.738-2.218-12.886 14.152-104.094 14.152-104.094s-79.258-25.54-85.6-29.662c-6.342-4.124-44.236-31.1-55.326-35.99-11.122-4.89-55.984-8.436-64.636-11.996-8.684-3.562-37.114-26.664-45.986-33.99-8.78-7.232-59.482-22.93-70.916-22.93-0.156 0-0.312 0.016-0.468 0.016-0.282 0.016-0.594 0.016-0.906 0.016-10.652 0-30.616-7.56-39.676-8.418-9.34-0.89-33.864-16.416-39.798-25.102-5.966-8.67-26.43-7.342-44.174-10.888C558.578 71.236 512 40.464 512 40.464s-53.61 19.666-62.294 22.336c-8.654 2.656-11.996 14.432-25.992 20.212-13.996 5.78-55.982 16.214-63.292 16.666-7.342 0.438-19.556 17.324-21.774 22.212-2.218 4.89-27.242 5.264-46.892 12.216-19.65 6.95-50.64 17.588-56.638 21.322-5.998 3.75-31.334 19.338-36.644 24.664-5.342 5.328-41.3 11.044-47.986 15.324-6.686 4.296-31.554 28.554-37.99 32.224-6.466 3.656-47.486 3.89-59.982 9.108-12.496 5.202-52.358 16.994-52.358 16.994v52.984c0 15.324 11.902 21.758 12.808 28.866 0.876 7.122-12.808 49.11-12.808 57.764 0 8.668 10.372 45.018 8.372 55.982C6.5 460.32 0.158 493.324 0.158 506.664c0 13.324 9.466 34.208 11.902 47.096 2.468 12.902-10.872 67.51-7.53 83.504C7.842 653.26 0.156 673.254 0.156 685.25c0 11.998 5.904 30.896 7.466 40.458 1.562 9.53-7.466 44.518-7.466 44.518s25.43 11.808 28.584 16.122c3.124 4.34 39.3 16.432 49.078 20.242 2.686 1 7.28 1.25 12.528 1.25 4.406 0 9.31-0.188 13.934-0.188 9.872 0 18.526 0.782 18.87 5.56 0.656 9.374 22.65 19.306 33.334 27.992 10.652 8.686 59.668 14.462 66.636 21.37 6.904 6.808 32.116 26.618 44.206 26.618h0.842c12.622 0 48.016 6.746 59.356 9.372 11.56 2.624 39.332 30.616 45.892 36.614 6.53 5.998 39.862 13.996 50.296 20.682 6.154 3.936 21.088 4.748 32.366 4.748 7.874 0 13.964-0.438 13.964-0.438L512 983.536s86.566-16.37 94.346-20.992c7.78-4.688 42.642-10.246 47.298-16.684 4.498-6.184 23.242-11.808 38.3-11.808 0.594 0 1.124 0 1.688 0.032 0.188 0.032 0.344 0.032 0.5 0.032 15.244 0 43.046-19.586 48.61-19.586 0.062 0 0.156 0 0.218 0.032h0.688c7.028 0 40.892-6.938 47.296-13.372 6.654-6.624 34.866-27.992 38.644-30.618 3.782-2.688 45.706-8.684 55.984-14.684 9.934-5.808 25.336-22.054 29.584-22.054 0.156 0 0.28 0 0.404 0.062 0.218 0.062 0.594 0.124 1.062 0.124 7.312 0 42.958-8.372 48.924-12.122 6.374-4 22.9-28.68 24.68-31.302 1.75-2.688 33.616-20.37 33.616-20.37v-53.86s-6.748-29.552-7.624-44.204c-0.906-14.652 7.624-47.332 7.624-57.984s-9.402-35.988-10.308-46.204c-0.876-10.216 10.308-42.208 10.308-53.312 0.002-11.12-12.088-38.44-12.964-47.656z m-29.71 278.478c-19.148 11.372-22.336 15.246-26.43 21.43-4.934 7.438-9.808 14.122-13.122 18.372-7.528 2.124-19.586 4.936-25.492 5.902-0.312-0.032-0.624-0.032-0.966-0.032-17.994 0-29.458 9.81-41.612 20.184-2.376 2.03-6.094 5.184-8.376 6.902-5.622 1.75-18.554 4.438-25.086 5.782-18.054 3.748-26.304 5.464-35.082 11.684-0.282 0.188-25.742 18.93-39.27 30.772-5.904 1.998-17.556 4.686-23.024 5.404-12.652 0-21.994 4.938-33.802 11.184-4.342 2.282-12.902 6.81-17.306 8.342-5.844 0.032-41.3 1.032-63.73 20.026-3.75 1.188-9.216 2.624-12.902 3.594-10.434 2.78-18.996 5.028-26.46 8.684-9.092 2.718-39.894 9.246-69.324 14.996l-28.396-15.778-10.934-6.124-12.528 0.812c-0.062 0-5 0.312-11.248 0.312-7.466 0-11.872-0.438-14.028-0.718-8.528-4.53-18.806-8.092-29.616-11.778-4.156-1.438-9.966-3.404-13.496-4.81-0.124-0.094-0.218-0.188-0.344-0.312-26.68-25.492-43.518-39.176-61.482-43.332-0.406-0.094-41.082-9.058-64.136-10.278-5.748-3.124-16.276-10.934-19.838-14.434-11.902-11.808-28.084-15.59-50.484-20.836-6.748-1.594-17.556-4.094-22.524-5.844-4.28-3.186-8.748-6.028-13.09-8.808-1.686-1.094-3.842-2.468-5.748-3.75-6.342-13.558-21.462-27.992-57.014-27.992-2.718 0-5.342 0.032-7.904 0.062-2.186 0.062-4.248 0.094-6.03 0.094-0.562 0-1.03-0.032-1.436-0.032-1.844-0.686-4-1.436-6.404-2.31-6.154-2.186-21.37-7.686-28.054-10.652-1.844-1.532-3.812-2.968-5.874-4.404 2.906-18.184 1.718-25.492 1.156-28.93-0.782-4.75-1.968-9.808-3.25-15.152-1.218-5.092-3.436-14.434-3.686-18.182 0.188-1.716 0.938-5.56 1.5-8.404 2.374-12.34 5.592-29.052 2.312-46.766-0.032-6.216 2.592-23.586 4.062-33.084 3.812-25.18 5.686-38.894 3.312-51.484-1.438-7.608-3.968-15.354-6.374-22.854-1.656-5.058-4.342-13.416-4.812-16.792 0.124-4.216 1.468-15.588 6.998-45.454 0.25-1.39 0.5-2.64 0.688-3.67 2.53-13.872-0.25-29.1-5.156-52.532-0.686-3.358-1.592-7.56-2.124-10.544 1.032-4.514 3-11.996 4.436-17.338 6.342-23.806 9.09-34.818 7.654-46.298-1.718-13.62-8.59-23.086-12.496-28.32v-16.746c9.372-3.014 18.712-6.17 24.804-8.606 4.53-1.046 16.902-2.17 23.68-2.796 19.494-1.796 31.272-2.874 42.3-9.138 7.06-4.014 14.308-10.418 27.554-22.322 3.186-2.874 7.498-6.764 10.56-9.388 3-0.828 7.154-1.86 10.248-2.624 19.9-4.952 34.458-8.576 45.642-19.12 1.938-1.516 8.248-6.03 28.368-18.542l0.468-0.296c6.53-2.968 28.834-10.808 41.05-15.104 2.968-1.046 5.842-2.046 8.498-2.984 5.874-2.078 14.122-3.514 21.43-4.794 16.276-2.844 38.458-6.716 49.298-28.352 0.218-0.342 0.5-0.75 0.812-1.17 19.994-4.046 50.234-12.512 62.48-17.574 14.964-6.17 24.274-15.464 29.71-21.368 9.404-3.264 24.492-8.7 37.238-13.356 2.812 1.718 5.842 3.53 8.966 5.374 30.084 17.636 43.642 21.838 52.078 23.524 7.31 1.468 14.278 2.234 20.432 2.906 1.75 0.204 3.966 0.438 5.966 0.704 15.682 15.166 42.048 30.834 61.232 32.958 1.81 0.344 6.402 1.578 9.496 2.42 10.808 2.936 23.086 6.264 34.864 6.264 9.78 1.592 38.3 10.606 47.33 14.916 39.644 32.568 49.828 36.754 54.764 38.77 8.53 3.5 18.372 4.984 38.05 7.764 8.032 1.14 21.056 2.984 26.398 4.264 5.438 3.014 18.464 11.622 38.738 25.632 5.094 3.514 7.842 5.406 9.716 6.624 4.154 2.704 9.154 5.952 60.638 23.04-0.594 3.718-1.218 7.576-1.812 11.498-8.06 51.546-7.56 62.528-6.156 70.712 1.656 9.606 4.782 17.98 7.25 24.696 0.75 1.984 1.654 4.498 2.216 6.216-0.624 5.53-2.374 16.932-3.56 24.882-4.532 29.57-6.032 40.768-5.124 50.218 0.844 8.874 3.844 17.746 7.624 28.976 1.466 4.358 3.714 11.122 4.778 15.152-0.75 3.764-2.31 9.918-3.404 14.308-4.654 18.414-7.374 30.444-6.374 42.126 0.75 8.498 3.218 17.432 6.092 27.802 1.218 4.5 3.186 11.592 3.904 15.246-0.438 3.344-1.624 9.808-2.436 14.308-3.374 18.838-5.748 33.146-4.966 45.736 0.844 14.244 5.31 36.02 7.528 46.298v24.436z" fill="#F5BA45" /><path d="M533.304 972.852h-42.642V889.66c0-3.906-1.092-6.594-3.342-11.716-2.968-6.874-7.03-16.244-5.998-29.116 0.876-10.496 4.218-19.808 6.904-27.304 0.782-2.188 1.78-5 2.28-6.748-0.562-1.966-1.562-5.03-2.342-7.436-3.468-10.622-7.436-22.618-6.874-33.426 0.344-6.688 7.374-51.922 17.214-72.2 3.124-6.372 8.154-18.96 8.684-23.398 1.062-9.028 0.376-16.056-0.406-24.242-0.438-4.436-0.876-8.996-1.03-13.996-1.124-3.186-4.374-10.184-6.404-14.496-6.156-13.184-9.03-19.368-8.654-26.618 0-1.56-0.156-7.152-0.312-12.122-1.28-43.704-0.75-52.686 1.562-59.074 9.248-25.258-0.062-53.594-0.156-53.89l40.362-13.838c0.562 1.686 14.028 41.472 0.468 80.694-0.688 7.464 0.094 34.426 0.406 44.862 0.156 5.81 0.25 9.31 0.282 11.622 1.094 2.592 3.188 7.124 4.688 10.31 6.746 14.432 10.246 22.304 10.372 29.926 0.032 4 0.438 8.124 0.876 12.496 0.906 9.282 1.906 19.808 0.312 33.43-1.688 14.122-11.558 34.676-12.684 36.988-5.81 11.934-12.402 48.546-12.964 55.794 0 3.248 3.218 13.152 4.78 17.9 2.032 6.156 3.78 11.528 4.436 16.278 1.218 8.934-1.688 16.994-4.748 25.554-2.03 5.686-4.124 11.558-4.53 16.4-0.156 1.968 0.376 3.498 2.594 8.592 2.904 6.684 6.872 15.808 6.872 28.774v83.192z" fill="#F5BA45" /><path d="M516.186 487.906l-8.404-41.8c27.398-5.53 56.578-13.762 62.666-17.666 3.688-2.92 8.376-7.482 13.308-12.308 10.624-10.326 21.588-21.01 33.054-25.93 16.462-7.06 40.048-7.06 57.292-7.06 1.124 0 1.532-0.124 1.532-0.124 0.718-0.312 3.032-2.436 4.562-3.842 3.248-2.984 7.246-6.686 12.872-10.34 13.028-8.482 30.738-17.542 43.048-22.008 8.998-3.28 19.212-2.358 30.022-1.39 4.718 0.42 12.496 1.124 15.402 0.64 3.904-1.686 9.214-3.296 16.37-5.482 9.28-2.828 20.806-6.342 30.928-10.576 14.028-5.842 16.964-9.606 17.058-9.778 11.934-17.01 23.68-31.366 46.078-34.208 3-1.906 8.78-7.7 12.34-11.262 9.28-9.326 17.308-17.37 28.274-19.276l56.452-9.794 7.28 42.034-53.61 9.294c-2.124 1.78-5.684 5.342-8.184 7.856-10.278 10.31-21.962 22.008-36.644 23.4-3.312 0.312-5.938 0.578-17.058 16.432-12.464 17.838-40.458 27.538-70.478 36.676-4.624 1.406-10.372 3.156-11.964 3.858-10.874 4.92-23.682 3.78-36.052 2.67-4.028-0.376-9.996-0.906-12.464-0.702-8.214 3.108-22.618 10.262-33.488 17.354-2.656 1.718-4.812 3.686-7.28 5.966-6.592 6.076-16.556 15.26-34.99 15.26-11.214 0-32.082 0-40.486 3.608-4.186 1.796-14.152 11.498-20.088 17.276-5.874 5.716-11.402 11.106-16.902 15.432-14.31 11.232-56.546 20.98-80.446 25.79z" fill="#F5BA45" /><path d="M507 487.75c-21.868-5.248-57.044-13.496-64.2-14.714-8.56-1.454-21.086-6.78-31.866-13.558-15.964-10.028-24.648-21.228-25.836-33.334-1.53-1.53-4.28-3.468-6.56-4.624-8.934 2.186-19.962 1.75-28.616 0.782-17.432-1.938-29.428-6.732-36.458-14.622-6.31-2.546-23.868-5.232-31.648-6.42-7.622-1.17-13.652-2.092-18.12-3.264-12.964-3.42-26.336-17.526-36.926-31.646-16.37 1.062-43.112 1.454-59.232-5.31-16.838-7.06-29.958-23.758-37.3-34.974-14.684-1.734-41.018-5.092-55.92-8.576C50.61 311.96 18.776 286.124 12.622 281l27.304-32.756c11.746 9.762 33.864 25.32 44.08 27.71 18.464 4.312 60.95 8.842 61.388 8.888l11.31 1.202 5.31 10.06c4.686 8.81 14.996 22.65 22.024 25.602 7.686 3.218 32.396 3.186 50.704 1.14l12.872-1.438 7.216 10.778c6.998 10.388 16.62 21.79 20.93 24.836 2.812 0.578 7.904 1.36 12.496 2.062 27.898 4.264 46.236 7.81 55.92 18.776 5.248 1.938 18.026 3.094 23.494 2.39 11.746-5.124 24.836-0.062 34.052 5.358 7.31 4.312 23.524 15.714 25.648 33.178 4.624 4.404 17.402 11.152 22.65 12.214 10.778 1.828 61.232 13.902 66.948 15.26l-9.968 41.49z" fill="#F5BA45" /><path d="M235.116 155.43c-2.436 1.532-8.09 5.014-14.276 8.982L740.43 380.8v534.26c0.968-0.312 1.75-0.532 2.312-0.532 0.062 0 0.156 0 0.218 0.032h0.688c5.464 0 27.024-4.188 39.458-9.03V352.354L274.01 140.356c-16.87 5.952-34.52 12.356-38.894 15.074z" fill="#424953" /><path d="M106.78 408.024c-11.778 0-21.336 9.544-21.336 21.322 0 11.778 9.56 21.338 21.336 21.338 11.778 0 21.338-9.56 21.338-21.338s-9.56-21.322-21.338-21.322zM192.098 578.66c-11.81 0-21.338 9.528-21.338 21.304s9.528 21.306 21.338 21.306c11.746 0 21.306-9.53 21.306-21.306s-9.56-21.304-21.306-21.304zM362.702 663.946c-11.778 0-21.336 9.56-21.336 21.306 0 11.81 9.56 21.37 21.336 21.37 11.778 0 21.338-9.558 21.338-21.37 0-11.746-9.56-21.306-21.338-21.306zM277.384 749.232c-11.778 0-21.306 9.56-21.306 21.37 0 11.746 9.528 21.304 21.306 21.304s21.336-9.558 21.336-21.304c0-11.81-9.558-21.37-21.336-21.37zM405.344 749.232c-11.778 0-21.306 9.56-21.306 21.37 0 11.746 9.528 21.304 21.306 21.304s21.336-9.558 21.336-21.304c0.002-11.81-9.558-21.37-21.336-21.37zM106.78 663.946c-11.778 0-21.336 9.56-21.336 21.306 0 11.81 9.56 21.37 21.336 21.37 11.778 0 21.338-9.558 21.338-21.37 0-11.746-9.56-21.306-21.338-21.306zM277.384 493.326c-11.778 0-21.306 9.56-21.306 21.338s9.528 21.32 21.306 21.32 21.336-9.542 21.336-21.32-9.558-21.338-21.336-21.338zM917.188 472.004c11.778 0 21.338-9.544 21.338-21.322 0-11.778-9.56-21.338-21.338-21.338s-21.304 9.56-21.304 21.338c-0.002 11.778 9.526 21.322 21.304 21.322zM831.902 599.964c-11.808 0-21.338 9.56-21.338 21.306 0 11.81 9.53 21.37 21.338 21.37 11.746 0 21.304-9.558 21.304-21.37 0.002-11.744-9.558-21.306-21.304-21.306zM661.266 685.252c-11.778 0-21.304 9.56-21.304 21.37 0 11.746 9.528 21.304 21.304 21.304s21.338-9.558 21.338-21.304c0-11.81-9.562-21.37-21.338-21.37zM618.624 557.292c11.78 0 21.338-9.53 21.338-21.306s-9.558-21.32-21.338-21.32c-11.778 0-21.338 9.542-21.338 21.32s9.56 21.306 21.338 21.306zM618.624 216.084c11.78 0 21.338-9.544 21.338-21.322 0-11.778-9.558-21.338-21.338-21.338-11.778 0-21.338 9.56-21.338 21.338s9.56 21.322 21.338 21.322zM490.662 344.498c-11.778 0-21.336 9.544-21.336 21.322 0 11.778 9.56 21.322 21.336 21.322 11.778 0 21.338-9.544 21.338-21.322 0-11.778-9.56-21.322-21.338-21.322zM490.662 173.424c-11.778 0-21.336 9.56-21.336 21.338s9.56 21.322 21.336 21.322c11.778 0 21.338-9.544 21.338-21.322 0-11.778-9.56-21.338-21.338-21.338zM362.702 301.384c11.778 0 21.338-9.544 21.338-21.322s-9.56-21.322-21.338-21.322-21.336 9.544-21.336 21.322 9.558 21.322 21.336 21.322zM234.74 258.742c-11.778 0-21.336 9.544-21.336 21.322s9.56 21.322 21.336 21.322c11.778 0 21.338-9.544 21.338-21.322s-9.56-21.322-21.338-21.322zM746.584 258.742c-11.778 0-21.338 9.544-21.338 21.322s9.56 21.322 21.338 21.322c11.78 0 21.338-9.544 21.338-21.322s-9.558-21.322-21.338-21.322zM618.624 770.602c-11.778 0-21.338 9.528-21.338 21.304s9.56 21.306 21.338 21.306c11.78 0 21.338-9.53 21.338-21.306s-9.56-21.304-21.338-21.304zM917.188 685.252c-11.778 0-21.304 9.56-21.304 21.37 0 11.746 9.528 21.304 21.304 21.304s21.338-9.558 21.338-21.304c0-11.81-9.562-21.37-21.338-21.37z" fill="#F5BA45" /></svg>