<?xml version="1.0" standalone="no"?><!DOCTYPE svg PUBLIC "-//W3C//DTD SVG 1.1//EN" "http://www.w3.org/Graphics/SVG/1.1/DTD/svg11.dtd"><svg class="icon" width="128px" height="128.00px" viewBox="0 0 1024 1024" version="1.1" xmlns="http://www.w3.org/2000/svg"><path d="M917.344 938.688c0 47.124-38.22 85.312-85.344 85.312H192c-47.124 0-85.344-38.188-85.344-85.312V128.016c0-47.14 38.218-85.344 85.344-85.344h640c47.124 0 85.344 38.204 85.344 85.344v810.672z" fill="#967ADC" /><path d="M917.344 896c0 47.124-38.218 85.344-85.344 85.344H192c-47.124 0-85.344-38.218-85.344-85.344V85.344C106.656 38.218 144.876 0 192 0h640c47.124 0 85.344 38.218 85.344 85.344V896z" fill="#AC92EB" /><path d="M512 725.344c-79.782 0-154.782-31.062-211.188-87.468-56.406-56.438-87.468-131.42-87.468-211.204 0-79.766 31.062-154.782 87.468-211.188C357.218 159.078 432.218 128.016 512 128.016c79.782 0 154.782 31.062 211.188 87.468 56.406 56.406 87.468 131.422 87.468 211.188 0 79.782-31.062 154.766-87.468 211.204-56.406 56.406-131.406 87.468-211.188 87.468z" fill="#E6E9ED" /><path d="M512 106.672c-176.718 0-320 143.266-320 320s143.282 320.016 320 320.016 320-143.282 320-320.016-143.282-320-320-320z m196.094 516.11c-25.468 25.468-55.124 45.468-88.156 59.468C585.782 696.688 549.468 704 512 704s-73.782-7.312-107.938-21.75c-33.032-14-62.688-34-88.156-59.468-25.5-25.466-45.5-55.156-59.468-88.172-14.438-34.156-21.782-70.468-21.782-107.938 0-37.454 7.344-73.766 21.782-107.938 13.968-33.016 33.968-62.672 59.468-88.156 25.468-25.484 55.124-45.5 88.156-59.454 34.156-14.454 70.468-21.782 107.938-21.782 37.468 0 73.782 7.328 107.938 21.782 33.034 13.954 62.688 33.968 88.156 59.454 25.5 25.484 45.5 55.14 59.468 88.156 14.438 34.172 21.782 70.484 21.782 107.938 0 37.468-7.344 73.782-21.782 107.938-13.968 33.014-33.968 62.702-59.468 88.172z" fill="#CCD1D9" /><path d="M853.344 85.344c0 11.782-9.562 21.328-21.344 21.328s-21.344-9.546-21.344-21.328S820.218 64 832 64s21.344 9.562 21.344 21.344zM853.344 896c0 11.782-9.562 21.344-21.344 21.344s-21.344-9.562-21.344-21.344 9.562-21.312 21.344-21.312 21.344 9.53 21.344 21.312z" fill="#434A54" /><path d="M512 512.016c-47.062 0-85.344-38.282-85.344-85.344 0-47.046 38.282-85.328 85.344-85.328s85.344 38.282 85.344 85.328c0 47.062-38.282 85.344-85.344 85.344z" fill="#5D9CEC" /><path d="M512 320.016c-58.906 0-106.656 47.75-106.656 106.656s47.75 106.672 106.656 106.672 106.656-47.766 106.656-106.672-47.75-106.656-106.656-106.656z m0 170.656c-35.282 0-64-28.704-64-64 0-35.282 28.718-64 64-64s64 28.718 64 64c0 35.296-28.718 64-64 64z" fill="#4A89DC" /><path d="M213.344 85.344c0 11.782-9.562 21.328-21.344 21.328s-21.344-9.546-21.344-21.328S180.218 64 192 64s21.344 9.562 21.344 21.344z" fill="#434A54" /><path d="M180.718 640H106.656v256c0 47.124 38.218 85.344 85.344 85.344h320v-170.656c-136.624 0-257.5-67.376-331.282-170.688z" fill="#E6E9ED" /><path d="M533.344 426.672c0 11.782-9.562 21.344-21.344 21.344-11.782 0-21.344-9.562-21.344-21.344s9.562-21.328 21.344-21.328c11.782 0 21.344 9.546 21.344 21.328z" fill="#434A54" /><path d="M612.406 838.25c-8.312-8.312-21.812-8.312-30.156 0a21.368 21.368 0 0 0-6.25 15.124v63.938c0 5.5 2.094 10.938 6.25 15.124 8.344 8.312 21.844 8.312 30.156 0a21.216 21.216 0 0 0 6.25-15.094v-64c0-5.466-2.062-10.904-6.25-15.092zM676.406 838.25c-8.312-8.312-21.812-8.312-30.156 0a21.368 21.368 0 0 0-6.25 15.124v63.938c0 5.5 2.094 10.938 6.25 15.124 8.344 8.312 21.844 8.312 30.156 0a21.216 21.216 0 0 0 6.25-15.094v-64c0-5.466-2.062-10.904-6.25-15.092zM746.656 853.376c0-5.5-2.062-10.938-6.25-15.124-8.312-8.312-21.844-8.312-30.156 0a21.368 21.368 0 0 0-6.25 15.124v63.94c0 5.5 2.094 10.938 6.25 15.124 8.312 8.312 21.844 8.312 30.156 0a21.234 21.234 0 0 0 6.25-15.124v-63.94z" fill="#967ADC" /><path d="M350.156 870l220.782-280.188A21.378 21.378 0 0 0 576 576c0-11.75-9.562-21.312-21.344-21.312a21.08 21.08 0 0 0-13.782 5.062L260.656 780.532c-15.782 11.656-26 30.376-26 51.468 0 35.376 28.656 64 64 64 21.126 0 39.844-10.218 51.5-26z" fill="#434A54" /></svg>