<?xml version="1.0" standalone="no"?><!DOCTYPE svg PUBLIC "-//W3C//DTD SVG 1.1//EN" "http://www.w3.org/Graphics/SVG/1.1/DTD/svg11.dtd"><svg class="icon" width="128px" height="128.00px" viewBox="0 0 1024 1024" version="1.1" xmlns="http://www.w3.org/2000/svg"><path d="M277.336 0h469.36v469.328h-469.36z" fill="#CCD1D9" /><path d="M341.336 0h341.36v256h-341.36z" fill="#E6E9ED" /><path d="M384.008 576v448h256V576z" fill="#434A54" /><path d="M768.008 256h-512c-11.734 0-21.328 9.594-21.328 21.328V576c0 11.75 5.312 29.312 11.828 39.062l61.672 92.5c6.5 9.782 11.828 27.376 11.828 39.124v42.624c0 11.75 9.61 21.376 21.328 21.376h341.36c11.718 0 21.312-9.624 21.312-21.376v-42.624c0-11.75 5.312-29.344 11.812-39.124l61.688-92.5c6.5-9.75 11.812-27.312 11.812-39.062V277.328c0-11.734-9.562-21.328-21.312-21.328z" fill="#AC92EB" /><path d="M469.336 128H426.68c-11.782 0-21.344 9.546-21.344 21.328s9.562 21.344 21.344 21.344h42.656c11.782 0 21.344-9.562 21.344-21.344S481.118 128 469.336 128zM597.32 128h-42.624c-11.796 0-21.36 9.546-21.36 21.328s9.562 21.344 21.36 21.344h42.624c11.812 0 21.376-9.562 21.376-21.344S609.132 128 597.32 128z" fill="#CCD1D9" /><path d="M316.196 725.312c2.328 7.438 3.812 15.188 3.812 21.376V768h384v-21.312c0-6.188 1.468-13.938 3.812-21.376H316.196z" fill="#967ADC" /><path d="M405.336 512h213.36c11.75 0 21.312-9.546 21.312-21.328s-9.562-21.344-21.312-21.344h-213.36c-11.782 0-21.328 9.562-21.328 21.344S393.554 512 405.336 512zM618.696 554.688h-213.36c-11.782 0-21.328 9.532-21.328 21.312s9.546 21.312 21.328 21.312h213.36c11.75 0 21.312-9.532 21.312-21.312s-9.562-21.312-21.312-21.312z" fill="#967ADC" /></svg>