<?xml version="1.0" standalone="no"?><!DOCTYPE svg PUBLIC "-//W3C//DTD SVG 1.1//EN" "http://www.w3.org/Graphics/SVG/1.1/DTD/svg11.dtd"><svg class="icon" width="128px" height="128.00px" viewBox="0 0 1024 1024" version="1.1" xmlns="http://www.w3.org/2000/svg"><path d="M513.58 246.642L0.032 428.13v85.372l208.252 349.164c76.292-81.492 184.832-132.488 305.294-132.488 118.6 0 225.656 49.434 301.746 128.738l208.644-349.85v-85.372L513.58 246.642z" fill="#CCD1D9" /><path d="M513.58 161.334c-212.316 0-399.992 105.432-513.546 266.794L208.284 777.36c76.292-81.558 184.832-132.492 305.294-132.492 118.6 0 225.656 49.372 301.746 128.742l208.644-349.916c-113.866-158.864-300.042-262.36-510.388-262.36z" fill="#E6E9ED" /><path d="M405.334 478.69c-23.466 0-42.654-19.186-42.654-42.624v-42.684c0-23.438 19.204-42.686 42.654-42.686H618.68c23.438 0 42.624 19.248 42.624 42.686v42.684c0 23.438-19.188 42.624-42.624 42.624H405.334z" fill="#DA4453" /><path d="M405.334 478.69c-23.466 0-42.654-19.186-42.654-42.624v-42.684c0-23.438 19.204-42.686 42.654-42.686H618.68c23.438 0 42.624 19.248 42.624 42.686v42.684c0 23.438-19.188 42.624-42.624 42.624H405.334z" fill="#DA4453" /><path d="M575.996 521.376c0 23.438-19.188 42.684-42.668 42.684h-42.656c-23.466 0-42.668-19.246-42.668-42.684v-213.3c0-23.498 19.202-42.684 42.668-42.684h42.656c23.48 0 42.668 19.186 42.668 42.684v213.3z" fill="#ED5564" /><path d="M575.996 521.376c0 23.438-19.188 42.684-42.668 42.684h-42.656c-23.466 0-42.668-19.246-42.668-42.684v-213.3c0-23.498 19.202-42.684 42.668-42.684h42.656c23.48 0 42.668 19.186 42.668 42.684v213.3z" fill="#ED5564" /></svg>