<?xml version="1.0" standalone="no"?><!DOCTYPE svg PUBLIC "-//W3C//DTD SVG 1.1//EN" "http://www.w3.org/Graphics/SVG/1.1/DTD/svg11.dtd"><svg class="icon" width="128px" height="128.00px" viewBox="0 0 1024 1024" version="1.1" xmlns="http://www.w3.org/2000/svg"><path d="M922.678 919.998v82.686c0 11.75 9.5 21.312 21.312 21.312 11.75 0 21.312-9.562 21.312-21.312v-82.686h-42.624z" fill="#434A54" /><path d="M997.302 682.688v-213.36l-53.312-42.656-53.312 42.656v213.36z" fill="#FFCE54" /><path d="M890.678 490.672h106.624v42.656h-106.624zM890.678 576h106.624v42.688h-106.624z" fill="#F6BB42" /><path d="M581.304 657.312v345.372c0 11.75 9.562 21.312 21.376 21.312 11.75 0 21.312-9.562 21.312-21.312V657.312h-42.688zM176.01 657.312v345.372c0 11.75 9.532 21.312 21.312 21.312s21.344-9.562 21.344-21.312V657.312H176.01z" fill="#434A54" /><path d="M655.992 661.312c0 11.812-9.562 21.376-21.312 21.376h-64a21.366 21.366 0 0 1-21.376-21.376V512c0-11.782 9.562-21.328 21.376-21.328h64c11.75 0 21.312 9.546 21.312 21.328v149.312z" fill="#656D78" /><path d="M687.992 256.002c0-11.782-9.562-21.328-21.312-21.328h-128.016c-11.782 0-21.342 9.546-21.342 21.328V576c0 11.782 9.56 21.312 21.342 21.312h128.016c11.75 0 21.312-9.532 21.312-21.312V256.002z" fill="#CCD1D9" /><path d="M250.666 661.312c0 11.812-9.562 21.376-21.344 21.376h-64c-11.782 0-21.312-9.562-21.312-21.376V512c0-11.782 9.532-21.328 21.312-21.328h64c11.782 0 21.344 9.546 21.344 21.328v149.312z" fill="#656D78" /><path d="M282.666 256.002c0-11.782-9.562-21.328-21.344-21.328h-128c-11.782 0-21.312 9.546-21.312 21.328V576a21.3 21.3 0 0 0 21.312 21.312h128c11.782 0 21.344-9.532 21.344-21.312V256.002z" fill="#CCD1D9" /><path d="M389.32 192.002c0 106.032-85.966 192-191.998 192s-192-85.968-192-192S91.29 0.004 197.322 0.004s191.998 85.966 191.998 191.998z" fill="#ED5564" /><path d="M304.01 192.002c0 58.906-47.782 106.672-106.688 106.672s-106.656-47.766-106.656-106.672 47.75-106.672 106.656-106.672 106.688 47.766 106.688 106.672z" fill="#656D78" /><path d="M218.666 149.33c0 11.782-9.562 21.344-21.344 21.344s-21.312-9.562-21.312-21.344 9.532-21.328 21.312-21.328 21.344 9.546 21.344 21.328zM261.322 192.002c0 11.782-9.532 21.328-21.312 21.328-11.812 0-21.344-9.546-21.344-21.328s9.532-21.328 21.344-21.328c11.782 0 21.312 9.546 21.312 21.328zM176.01 192.002c0 11.782-9.562 21.328-21.344 21.328s-21.344-9.546-21.344-21.328 9.562-21.328 21.344-21.328 21.344 9.546 21.344 21.328zM218.666 234.674c0 11.782-9.562 21.328-21.344 21.328s-21.312-9.546-21.312-21.328 9.532-21.344 21.312-21.344 21.344 9.562 21.344 21.344z" fill="#434A54" /><path d="M837.302 0.004h-191.998v1.188c-96 10.61-170.64 91.982-170.64 190.81s74.64 180.204 170.64 190.812v1.188h191.998c11.812 0 21.376-9.546 21.376-21.328V21.332c0-11.782-9.562-21.328-21.376-21.328z" fill="#E6E9ED" /><path d="M837.302 0.004h-64v383.998h64c11.812 0 21.376-9.546 21.376-21.328V21.332c0-11.782-9.562-21.328-21.376-21.328z" fill="#ED5564" /><path d="M997.302 917.31c0 11.812-9.5 21.376-21.312 21.376h-64c-11.75 0-21.312-9.562-21.312-21.376v-127.998c0-11.75 9.562-21.312 21.312-21.312h64c11.812 0 21.312 9.562 21.312 21.312v127.998z" fill="#656D78" /><path d="M1018.678 640h-149.376v213.31a21.366 21.366 0 0 0 21.376 21.376h106.624a21.366 21.366 0 0 0 21.376-21.376V640z" fill="#ED5564" /></svg>