<?xml version="1.0" standalone="no"?><!DOCTYPE svg PUBLIC "-//W3C//DTD SVG 1.1//EN" "http://www.w3.org/Graphics/SVG/1.1/DTD/svg11.dtd"><svg class="icon" width="128px" height="128.00px" viewBox="0 0 1024 1024" version="1.1" xmlns="http://www.w3.org/2000/svg"><path d="M316.438 307.596c52.374-45.438 120.75-72.938 195.562-72.938 74.782 0 143.156 27.5 195.558 72.938l90.656-90.656C722.528 148.408 622.124 106.658 512 106.658c-110.156 0-210.562 41.75-286.25 110.282l90.688 90.656z" fill="#48CFAD" /><path d="M512 106.658c-235.656 0-426.686 191.032-426.686 426.686v193.312h42.688v-193.312c0-51.876 10.124-102.156 30.156-149.468 19.342-45.718 47.03-86.78 82.312-122.062s76.344-62.968 122.062-82.312C409.844 159.47 460.124 149.346 512 149.346c51.844 0 102.124 10.124 149.438 30.156 45.746 19.344 86.808 47.032 122.058 82.312 35.312 35.282 63 76.342 82.312 122.062 20.032 47.312 30.188 97.592 30.188 149.468v193.312h42.656v-193.312c0-235.654-191.03-426.686-426.652-426.686z" fill="#CCD1D9" /><path d="M810.652 725.344c0 82.466 47.75 149.31 106.656 149.31 58.938 0 106.688-66.844 106.688-149.31 0-82.5-47.75-149.344-106.688-149.344-58.906 0-106.656 66.844-106.656 149.344z" fill="#48CFAD" /><path d="M767.996 874.654c0 23.562 19.094 42.688 42.656 42.688h85.344c23.562 0 42.656-19.124 42.656-42.688V576c0-23.562-19.094-42.656-42.656-42.656h-85.344c-23.562 0-42.656 19.094-42.656 42.656v298.654z" fill="#656D78" /><path d="M213.314 725.344c0 82.466-47.75 149.31-106.656 149.31S0.002 807.81 0.002 725.344C0.002 642.844 47.752 576 106.658 576s106.656 66.844 106.656 149.344z" fill="#48CFAD" /><path d="M256 874.654c0 23.562-19.124 42.688-42.688 42.688H128.002c-23.562 0-42.688-19.124-42.688-42.688V576c0-23.562 19.124-42.656 42.688-42.656h85.312c23.562 0 42.688 19.094 42.688 42.656v298.654z" fill="#656D78" /><path d="M256 618.656c-11.782 0-21.344 9.562-21.344 21.344s9.562 21.344 21.344 21.344v-42.688zM256 704c-11.782 0-21.344 9.562-21.344 21.344s9.562 21.312 21.344 21.312V704zM256 789.344c-11.782 0-21.344 9.53-21.344 21.31s9.562 21.344 21.344 21.344v-42.654zM789.308 640c0-11.782-9.532-21.344-21.312-21.344v42.688c11.782 0 21.312-9.562 21.312-21.344zM789.308 725.344c0-11.782-9.532-21.344-21.312-21.344v42.656a21.3 21.3 0 0 0 21.312-21.312zM789.308 810.654a21.296 21.296 0 0 0-21.312-21.31v42.654c11.782 0 21.312-9.562 21.312-21.344z" fill="#434A54" /></svg>