<?xml version="1.0" standalone="no"?><!DOCTYPE svg PUBLIC "-//W3C//DTD SVG 1.1//EN" "http://www.w3.org/Graphics/SVG/1.1/DTD/svg11.dtd"><svg class="icon" width="128px" height="128.00px" viewBox="0 0 1024 1024" version="1.1" xmlns="http://www.w3.org/2000/svg"><path d="M316.45 200.946c52.374-45.438 120.748-72.936 195.526-72.936 74.762 0 143.136 27.498 195.574 72.936l90.622-90.624C722.488 41.762 622.114 0.012 511.976 0.012c-110.154 0-210.526 41.75-286.212 110.31l90.686 90.624z" fill="#434A54" /><path d="M511.976 0.012C276.326 0.012 85.362 191.07 85.362 426.69v235.962h42.656V426.69c0-51.874 10.156-102.124 30.124-149.434 19.374-45.75 47.062-86.81 82.31-122.06 35.312-35.31 76.374-62.998 122.06-82.31 47.312-20.06 97.622-30.186 149.464-30.186 51.828 0 102.136 10.124 149.45 30.186 45.75 19.312 86.808 47 122.058 82.31 35.312 35.25 63 76.31 82.312 122.06 20 47.31 30.184 97.56 30.184 149.434v235.962h42.624V426.69C938.606 191.07 747.61 0.012 511.976 0.012z" fill="#CCD1D9" /><path d="M853.296 1023.988c-3.25 0-6.562-0.75-9.688-2.344-10.5-5.344-14.624-18.188-9.312-28.688 0.25-0.438 25.124-51.062 1.562-84.716-38.688-55.092-2.812-122.216-1.25-125.03 5.624-10.344 18.562-14.156 28.938-8.5 10.312 5.624 14.124 18.532 8.5 28.876-0.376 0.718-24.562 47-1.25 80.154 38.372 54.748 3.062 125.624 1.5 128.592-3.75 7.406-11.25 11.656-19 11.656z" fill="#434A54" /><path d="M511.976 769.336a21.304 21.304 0 0 1-20.562-15.748l-47.186-173.964-19.062 48.216a21.3 21.3 0 0 1-19.842 13.5h-106.654c-11.78 0-21.342-9.562-21.342-21.344 0-11.78 9.562-21.31 21.342-21.31h92.154l37.342-94.53a21.306 21.306 0 0 1 21.032-13.438c9.156 0.5 16.968 6.844 19.374 15.718l43.406 160.058 43.454-160.058a21.242 21.242 0 0 1 19.372-15.718 21.246 21.246 0 0 1 21 13.468l37.376 94.498h92.124c11.808 0 21.372 9.532 21.372 21.31 0 11.782-9.562 21.344-21.372 21.344H618.68a21.408 21.408 0 0 1-19.876-13.5l-19.062-48.216-47.168 173.964a21.32 21.32 0 0 1-20.598 15.75z" fill="#FFCE54" /><path d="M810.61 618.684c0 82.438 47.812 149.308 106.684 149.308 58.938 0 106.688-66.872 106.688-149.308 0-82.496-47.75-149.372-106.688-149.372-58.872 0-106.684 66.876-106.684 149.372z" fill="#DA4453" /><path d="M767.984 767.992c0 23.562 19.062 42.688 42.624 42.688h85.372c23.562 0 42.624-19.124 42.624-42.688v-298.68c0-23.56-19.062-42.624-42.624-42.624h-85.372c-23.562 0-42.624 19.062-42.624 42.624v298.68z" fill="#ED5564" /><path d="M789.296 490.688c0-11.812-9.562-21.376-21.312-21.376V512c11.75 0 21.312-9.562 21.312-21.312zM789.296 575.998c0-11.75-9.562-21.31-21.312-21.31v42.624c11.75-0.002 21.312-9.502 21.312-21.314zM789.296 661.308c0-11.75-9.562-21.312-21.312-21.312v42.688c11.75 0 21.312-9.562 21.312-21.376zM789.296 746.682c0-11.812-9.562-21.376-21.312-21.376v42.686c11.75 0 21.312-9.56 21.312-21.31z" fill="#DA4453" /><path d="M213.36 618.684c0 82.438-47.78 149.308-106.686 149.308C47.77 767.992 0.02 701.12 0.02 618.684c0-82.496 47.75-149.372 106.654-149.372 58.906 0 106.686 66.876 106.686 149.372z" fill="#DA4453" /><path d="M256.014 767.992c0 23.562-19.092 42.688-42.654 42.688H128.018c-23.562 0-42.656-19.124-42.656-42.688v-298.68c0-23.56 19.092-42.624 42.656-42.624h85.342c23.562 0 42.654 19.062 42.654 42.624v298.68z" fill="#ED5564" /><path d="M234.67 490.688c0-11.812 9.562-21.376 21.342-21.376V512c-11.778 0-21.342-9.562-21.342-21.312zM234.67 575.998c0-11.75 9.562-21.31 21.342-21.31v42.624c-11.778-0.002-21.342-9.502-21.342-21.314zM234.67 661.308c0-11.75 9.562-21.312 21.342-21.312v42.688c-11.778 0-21.342-9.562-21.342-21.376zM234.67 746.682c0-11.812 9.562-21.376 21.342-21.376v42.686c-11.778 0-21.342-9.56-21.342-21.31z" fill="#DA4453" /></svg>