<?xml version="1.0" standalone="no"?><!DOCTYPE svg PUBLIC "-//W3C//DTD SVG 1.1//EN" "http://www.w3.org/Graphics/SVG/1.1/DTD/svg11.dtd"><svg class="icon" width="128px" height="128.00px" viewBox="0 0 1024 1024" version="1.1" xmlns="http://www.w3.org/2000/svg"><path d="M769.052 643.826l-3.028-0.876c-44.092-11.834-59.018-23.2-78.628-30.662-69.602-26.51-87.71-45.622-92.364-54.676-0.156-0.312-0.282-0.656-0.438-1l-0.562-80.86-165.074-1.874-165.09 1.874-0.592 80.86a5.572 5.572 0 0 1-0.438 1c-4.622 9.054-22.732 28.166-92.334 54.676-19.64 7.462-34.536 18.828-78.626 30.662l-3.03 0.876c-40.124 13.272-67.134 50.492-67.134 92.49v116.754h814.442v-116.754c0-41.998-27.01-79.218-67.104-92.49z" fill="#5D9CEC" /><path d="M519.108 853.07h-177.644l25.326-159.876 124.058-53.302z" fill="#967ADC" /><path d="M491.128 693.194h-124.338l-35.536-177.656h195.41z" fill="#AC92EB" /><path d="M262.838 464.576v93.038l75.254 86.744 98.924-79.938z" fill="#F5F7FA" /><path d="M658.014 319.314c0 148.822-141.874 285.826-229.054 285.826S199.888 468.134 199.888 319.314c0-148.852 102.544-247.056 229.072-247.056 126.48-0.002 229.054 98.202 229.054 247.056z" fill="#EAC6BB" /><path d="M570.646 47.714c-38.956-35.286-174.288-85.996-299.782 0-98.986 67.79-88.992 238.75-88.992 238.75s129.898 32.85 278.658-52.178c96.16-54.926 129.666 0.938 146.9 49.586 16.8 47.37 50.586 35.442 50.586 35.442s37.282-158.752-87.37-271.6z" fill="#FFCE54" /><path d="M524.292 211.804c16.83-1.218 30.398 2.686 41.484 9.804 4.558-17.018 10.302-30.82 16.546-41.966l26.762-32.568c10.492-8.4 20.016-12.084 25.762-13.676a273.004 273.004 0 0 0-21.734-37.47c-26.76 10.582-68.664 39.156-88.82 115.876z" fill="#F6BB42" /><path d="M661.2 917.02c-62.608 0-121.482-24.386-165.792-68.666-44.278-44.308-68.666-103.168-68.666-165.806s24.386-121.53 68.666-165.824c44.31-44.278 103.184-68.698 165.792-68.698 62.638 0 121.53 24.418 165.808 68.698 44.308 44.294 68.698 103.186 68.698 165.824s-24.388 121.498-68.698 165.806c-44.28 44.278-103.17 68.666-165.808 68.666z" fill="#4FC2E9" /><path d="M842.09 501.64c-49.93-49.93-115.41-74.91-180.89-74.91-65.448 0-130.912 24.98-180.842 74.91-99.89 99.908-99.89 261.874 0 361.764 49.93 49.96 115.396 74.942 180.842 74.942 65.48 0 130.93-24.98 180.89-74.942 99.89-99.89 99.89-261.858 0-361.764z m-30.132 331.632c-40.282 40.25-93.802 62.422-150.758 62.422-56.924 0-110.444-22.172-150.71-62.422-40.25-40.248-62.42-93.8-62.42-150.724 0-56.956 22.17-110.476 62.42-150.742 40.266-40.282 93.786-62.452 150.71-62.452 56.956 0 110.476 22.17 150.758 62.452 40.25 40.266 62.42 93.788 62.42 150.742-0.002 56.922-22.17 110.476-62.42 150.724z" fill="#434A54" /><path d="M996.034 987.214a20.792 20.792 0 0 0-2.562-2.154l-146.884-146.884-30.132 30.162 149.228 149.228 0.218-0.188c8.304 8.306 21.792 8.306 30.132 0a21.318 21.318 0 0 0 0-30.164z" fill="#434A54" /><path d="M661.2 511.976c-94.176 0-170.506 76.394-170.506 170.572 0 11.772 9.554 21.294 21.328 21.294a21.28 21.28 0 0 0 21.294-21.294c0-70.54 57.378-127.9 127.884-127.9 11.772 0 21.326-9.554 21.326-21.344 0-11.772-9.556-21.328-21.326-21.328z" fill="#3BAFDA" /></svg>