<?xml version="1.0" standalone="no"?><!DOCTYPE svg PUBLIC "-//W3C//DTD SVG 1.1//EN" "http://www.w3.org/Graphics/SVG/1.1/DTD/svg11.dtd"><svg class="icon" width="128px" height="128.00px" viewBox="0 0 1024 1024" version="1.1" xmlns="http://www.w3.org/2000/svg"><path d="M511.992 916.956c-108.152 0-209.836-42.124-286.334-118.622C149.192 721.868 107.068 620.152 107.068 512s42.124-209.838 118.59-286.334c76.498-76.498 178.182-118.59 286.334-118.59 108.17 0 209.854 42.092 286.35 118.59 76.466 76.496 118.59 178.182 118.59 286.334s-42.124 209.868-118.59 286.334c-76.496 76.498-178.18 118.622-286.35 118.622z" fill="#A0D468" /><path d="M511.992 85.732C276.594 85.732 85.726 276.57 85.726 512s190.868 426.266 426.266 426.266c235.414 0 426.284-190.836 426.284-426.266S747.406 85.732 511.992 85.732zM783.248 783.24c-35.248 35.248-76.278 62.936-121.964 82.248-47.246 20-97.496 30.124-149.292 30.124-51.78 0-102.028-10.124-149.276-30.124-45.686-19.312-86.716-47-121.964-82.248-35.25-35.216-62.904-76.248-82.216-121.934-20-47.28-30.124-97.496-30.124-149.306s10.124-102.03 30.124-149.308c19.312-45.654 46.966-86.684 82.216-121.934 35.248-35.248 76.278-62.904 121.964-82.246 47.248-19.968 97.496-30.124 149.276-30.124 51.794 0 102.044 10.156 149.292 30.124 45.688 19.342 86.716 46.998 121.964 82.246 35.25 35.25 62.906 76.28 82.216 121.934 20 47.28 30.124 97.498 30.124 149.308s-10.124 102.028-30.124 149.306c-19.31 45.686-46.966 86.718-82.216 121.934z" fill="#434A54" /><path d="M526.898 816.894c-8.344-8.312-21.842-8.312-30.156 0a21.216 21.216 0 0 0-6.25 15.094v170.652c0 5.468 2.062 10.936 6.25 15.092 8.312 8.344 21.842 8.344 30.156 0a21.294 21.294 0 0 0 6.25-15.092v-170.652c0-5.468-2.094-10.906-6.25-15.094zM192.002 490.656H21.352a21.346 21.346 0 0 0-15.092 6.25c-8.312 8.344-8.312 21.844 0 30.188a21.42 21.42 0 0 0 15.124 6.25h170.62a21.3 21.3 0 0 0 15.094-6.25 21.332 21.332 0 0 0 0-30.188 21.304 21.304 0 0 0-15.096-6.25zM1017.74 496.906a21.35 21.35 0 0 0-15.094-6.25h-170.68a21.276 21.276 0 0 0-15.062 6.25 21.332 21.332 0 0 0 0 30.188 21.296 21.296 0 0 0 15.094 6.25h170.618a21.42 21.42 0 0 0 15.124-6.25c8.312-8.344 8.312-21.844 0-30.188zM526.898 6.266c-8.312-8.342-21.842-8.342-30.156 0-4.188 4.156-6.25 9.624-6.25 15.094v170.65a21.22 21.22 0 0 0 6.25 15.094c8.312 8.312 21.842 8.312 30.156 0a21.35 21.35 0 0 0 6.25-15.094V21.36c0-5.47-2.094-10.938-6.25-15.094z" fill="#656D78" /><path d="M600.88 342.224c-34.844 0-66.294 14.31-88.888 37.374-22.562-23.062-54.06-37.374-88.872-37.374-68.716 0-124.432 55.716-124.432 124.432 0 142.214 213.304 266.68 213.304 266.68s213.322-124.464 213.322-266.68c0-68.714-55.718-124.432-124.434-124.432z" fill="#ED5564" /><path d="M600.88 342.224a122.46 122.46 0 0 0-21.312 1.844c58.53 10.124 103.09 61.154 103.09 122.588 0 114.372-137.964 217.276-191.978 253.148 13.156 8.75 21.312 13.532 21.312 13.532s213.322-124.464 213.322-266.68c0-68.714-55.718-124.432-124.434-124.432z" fill="#FFFFFF" opacity=".2" /></svg>