<?xml version="1.0" standalone="no"?><!DOCTYPE svg PUBLIC "-//W3C//DTD SVG 1.1//EN" "http://www.w3.org/Graphics/SVG/1.1/DTD/svg11.dtd"><svg class="icon" width="128px" height="128.00px" viewBox="0 0 1024 1024" version="1.1" xmlns="http://www.w3.org/2000/svg"><path d="M725.306 42.696c-83.56 0-159.122 34.342-213.306 89.668-54.202-55.326-129.746-89.668-213.32-89.668C133.732 42.696 0.018 176.41 0.018 341.342 0.018 682.69 512 981.304 512 981.304s511.982-298.616 511.982-639.962c0-164.932-133.714-298.646-298.676-298.646z" fill="#AC92EB" /><path d="M725.306 42.696a299.8 299.8 0 0 0-42.624 3.046c144.714 20.702 255.992 145.15 255.992 295.6 0 280.756-346.394 532.624-469.344 613.182 26.53 17.406 42.67 26.78 42.67 26.78s511.982-298.616 511.982-639.962c0-164.932-133.714-298.646-298.676-298.646z" fill="#FFFFFF" opacity=".2" /><path d="M484.422 774.25c-0.86-0.876-1.782-1.594-2.718-2.282v-0.032c-103.902-74-172.056-143.528-210.93-188.808-42.108-49.074-59.888-81.058-60.06-81.372a21.388 21.388 0 0 0-3.624-4.828c-8.328-8.328-21.828-8.328-30.156 0-6.86 6.844-8.062 17.204-3.64 25.296 3 5.516 76.028 136.588 283.662 284.458h0.016c8.328 5.938 19.968 5.188 27.452-2.248 8.326-8.342 8.326-21.874-0.002-30.184z" fill="#967ADC" /><path d="M426.674 704c0-11.78-9.562-21.31-21.342-21.31a21.22 21.22 0 0 0-15.078 6.25l-42.67 42.624a21.364 21.364 0 0 0-6.25 15.124c0 11.75 9.562 21.312 21.344 21.312 5.89 0 11.218-2.376 15.078-6.25l42.67-42.688a21.22 21.22 0 0 0 6.248-15.062zM356.428 655.096v-0.032a21.208 21.208 0 0 0 6.25-15.06c0-11.782-9.562-21.312-21.344-21.312a21.22 21.22 0 0 0-15.078 6.25l-42.67 42.624a21.364 21.364 0 0 0-6.25 15.124c0 11.75 9.562 21.31 21.344 21.31 5.89 0 11.218-2.376 15.078-6.25l42.67-42.654zM298.68 576.006c0-11.782-9.562-21.312-21.344-21.312a21.196 21.196 0 0 0-15.078 6.25l-42.67 42.624a21.372 21.372 0 0 0-6.25 15.124c0 11.75 9.562 21.312 21.342 21.312 5.89 0 11.218-2.376 15.078-6.25l42.656-42.656a21.24 21.24 0 0 0 6.266-15.092z" fill="#434A54" /></svg>