<?xml version="1.0" standalone="no"?><!DOCTYPE svg PUBLIC "-//W3C//DTD SVG 1.1//EN" "http://www.w3.org/Graphics/SVG/1.1/DTD/svg11.dtd"><svg class="icon" width="128px" height="128.00px" viewBox="0 0 1024 1024" version="1.1" xmlns="http://www.w3.org/2000/svg"><path d="M933.948 981.578l-75.904-683.164c-2.592-23.328-23.936-42.406-47.374-42.406h-597.34c-23.468 0-44.78 19.078-47.374 42.406L90.052 981.578c-2.594 23.344 14.5 42.404 37.938 42.404h767.988c23.47 0 40.564-19.06 37.97-42.404z" fill="#EC87C0" /><path d="M931.354 958.234c-5.594 13.688-18.906 23.062-35.376 23.062H127.99c-16.438 0-29.75-9.376-35.376-23.062l-2.562 23.344c-2.594 23.344 14.5 42.404 37.938 42.404h767.988c23.468 0 40.562-19.06 37.968-42.404l-2.592-23.344z" fill="#D770AD" /><path d="M682.674 170.684c0-94.264-76.434-170.666-170.698-170.666-94.246 0-170.65 76.402-170.65 170.666v191.322h0.032c0 0.218-0.032 0.438-0.032 0.67 0 11.782 9.532 21.328 21.344 21.328 11.748 0 21.31-9.546 21.31-21.328 0-0.232 0-0.452-0.032-0.67h0.032V170.684c0-70.592 57.436-127.996 127.996-127.996 70.608 0 128.012 57.404 128.012 127.996v191.322h0.062a4.558 4.558 0 0 0-0.062 0.67c0 11.782 9.562 21.328 21.342 21.328 11.782 0 21.344-9.546 21.344-21.328 0-0.232-0.032-0.452-0.062-0.67h0.062V170.684z" fill="#434A54" /><path d="M591.99 501.328c-31.312 0-59.702 12.89-80.014 33.64-20.312-20.75-48.654-33.64-79.998-33.64-61.842 0-111.996 50.17-111.996 111.98 0 127.996 191.994 239.992 191.994 239.992s192.01-111.996 192.01-239.992c0-61.81-50.124-111.98-111.996-111.98z" fill="#F5F7FA" /><path d="M591.99 501.328c-7.282 0-14.406 0.734-21.312 2.062 51.624 9.968 90.652 55.388 90.652 109.918 0 101.496-120.668 192.898-170.666 226.43 13.062 8.75 21.312 13.562 21.312 13.562s192.01-111.996 192.01-239.992c0-61.81-50.124-111.98-111.996-111.98z" opacity=".1" /></svg>