<?xml version="1.0" standalone="no"?><!DOCTYPE svg PUBLIC "-//W3C//DTD SVG 1.1//EN" "http://www.w3.org/Graphics/SVG/1.1/DTD/svg11.dtd"><svg class="icon" width="128px" height="128.00px" viewBox="0 0 1024 1024" version="1.1" xmlns="http://www.w3.org/2000/svg"><path d="M64.012 437.336H21.34c-11.78 0-21.328 9.562-21.328 21.342s9.546 21.344 21.328 21.344h42.67c11.782 0 21.328-9.562 21.328-21.344s-9.546-21.342-21.326-21.342z" fill="#646C77" /><path d="M149.338 373.354H64.012c-11.78 0-21.328 9.546-21.328 21.328v127.996c0 11.782 9.546 21.328 21.328 21.328h85.326c11.78 0 21.342-9.546 21.342-21.328v-127.996c0-11.782-9.562-21.328-21.342-21.328z" fill="#424953" /><path d="M1002.674 245.358c-11.812 0-21.376 9.546-21.376 21.328v170.652H917.3c-11.75 0-21.312 9.562-21.312 21.342s9.562 21.344 21.312 21.344h85.374c11.75 0 21.312-9.562 21.312-21.344v-191.994c0-11.78-9.562-21.328-21.312-21.328z" fill="#E5E8EC" /><path d="M213.336 330.684c-35.342 0-63.998 28.656-63.998 63.998v554.624c0 35.376 28.656 64 63.998 64s63.998-28.624 63.998-64V394.682c0-35.342-28.656-63.998-63.998-63.998z" fill="#F5BA45" /><path d="M341.334 330.684c-35.342 0-64 28.656-64 63.998v554.624c0 35.376 28.656 64 64 64s63.998-28.624 63.998-64V394.682c-0.002-35.342-28.656-63.998-63.998-63.998z" fill="#FECD57" /><path d="M469.33 330.684c-35.342 0-64 28.656-64 63.998v554.624c0 35.376 28.656 64 64 64s64-28.624 64-64V394.682c-0.002-35.342-28.658-63.998-64-63.998z" fill="#F5BA45" /><path d="M597.31 330.684c-35.312 0-63.982 28.656-63.982 63.998v554.624c0 35.376 28.67 64 63.982 64 35.374 0 63.998-28.624 63.998-64V394.682c0-35.342-28.624-63.998-63.998-63.998z" fill="#FECD57" /><path d="M725.306 330.684c-35.31 0-63.998 28.656-63.998 63.998v554.624c0 35.376 28.688 64 63.998 64 35.374 0 63.996-28.624 63.996-64V394.682c0-35.342-28.622-63.998-63.996-63.998z" fill="#F5BA45" /><path d="M853.302 330.684c-35.312 0-64 28.656-64 63.998v554.624c0 35.376 28.688 64 64 64 35.376 0 63.998-28.624 63.998-64V394.682c0-35.342-28.622-63.998-63.998-63.998z" fill="#FECD57" /><path d="M720.622 231.968c-0.688-0.844-16.562-20.922-1.5-36.046 33.496-33.64 15.56-74.92 1.376-92.106l-0.062-0.032v-0.032c-3.938-4.718-9.812-7.718-16.438-7.718-11.782 0-21.312 9.546-21.312 21.328 0 5.172 1.812 9.922 4.876 13.61 0.062 0.062 4.562 5.876 6.75 13.312 2.532 8.718 0.938 15.156-5.438 21.532-33.376 33.53-15.562 75.452-1.5 92.936v-0.016a21.368 21.368 0 0 0 16.624 7.952c11.782 0 21.31-9.546 21.31-21.328a21.346 21.346 0 0 0-4.686-13.392zM570.31 61.378c-6.376-23.89-18.624-40.452-19.998-42.264v0.016c-3.938-5.124-10.046-8.436-16.984-8.436-11.782 0-21.328 9.562-21.328 21.342 0 4.812 1.61 9.234 4.312 12.812h-0.016c0.078 0.124 8.968 12.204 13.078 28.64 4.906 19.672 0.968 36.374-12.016 51.076-22.796 25.764-30.062 57.388-21 91.434 6.36 23.89 18.624 40.468 20 42.282l0.016-0.016a21.27 21.27 0 0 0 16.954 8.42c11.796 0 21.36-9.546 21.36-21.328 0-4.86-1.656-9.312-4.376-12.906v-0.016c-0.062-0.11-8.546-11.688-12.718-27.39-5.36-20.156-1.532-37.232 11.718-52.216 22.812-25.78 30.062-57.404 20.998-91.45zM379.144 103.816s-0.016-0.032-0.032-0.032l-0.016-0.032a21.308 21.308 0 0 0-16.422-7.718c-11.78 0-21.342 9.546-21.342 21.328 0 5.172 1.844 9.922 4.922 13.61h-0.016c0.046 0.062 4.546 5.876 6.734 13.312 2.546 8.718 0.922 15.156-5.42 21.532-33.406 33.53-15.578 75.452-1.484 92.936v-0.016a21.24 21.24 0 0 0 16.608 7.952c11.782 0 21.328-9.546 21.328-21.328a21.28 21.28 0 0 0-4.734-13.39h0.016c-0.688-0.844-16.562-20.922-1.5-36.046 33.512-33.642 15.576-74.922 1.358-92.108z" fill="#E5E8EC" /></svg>