<?xml version="1.0" standalone="no"?><!DOCTYPE svg PUBLIC "-//W3C//DTD SVG 1.1//EN" "http://www.w3.org/Graphics/SVG/1.1/DTD/svg11.dtd"><svg class="icon" width="128px" height="128.00px" viewBox="0 0 1024 1024" version="1.1" xmlns="http://www.w3.org/2000/svg"><path d="M512 480.252c-230.992 0-425.986-152.996-489.984-362.988C7.518 164.762 0.018 214.76 0.018 266.758 0.018 549.748 229.01 778.74 512 778.74c282.74 0 511.982-228.992 511.982-511.982 0-51.998-8-101.996-22.248-149.494C937.736 327.256 742.742 480.252 512 480.252z" fill="#EC5564" /><path d="M139.512 320.256c10 10.5 20.25 20.5 31 30-22.5 30.498-71.748 87.496-135.746 103.996-5.25-13.5-10-27-14-40.498 55.748-12.5 101.248-68.998 118.746-93.498zM100.014 571.748c-8.5-11.5-16.5-23.5-24-35.5 51-30.498 85.498-70.996 106.248-100.496 14.748-20.998 24.498-39.998 29.998-51.998 11.75 8.5 23.748 16.5 36.248 24-18.248 36.998-62.998 111.994-148.494 163.994zM883.736 320.256c-10 10.5-20.248 20.5-31 30 22.5 30.498 71.75 87.496 135.748 103.996 5.25-13.5 9.75-27 13.998-40.498-55.746-12.5-101.246-68.998-118.746-93.498zM923.236 571.748c8.5-11.5 16.5-23.5 24-35.5-51.25-30.498-85.748-70.996-106.248-100.496-15-20.998-24.748-39.998-30.248-51.998-11.5 8.5-23.75 16.5-36 24 18 36.998 62.748 111.994 148.496 163.994z" fill="#D94452" /><path d="M533.248 394.754c0 12-9.498 21.5-21.248 21.5-12 0-21.5-9.5-21.5-21.5 0-11.5 9.5-21.5 21.5-21.5 11.75 0 21.248 10 21.248 21.5z" fill="#A9B1BC" /><path d="M511.25 394.754c-211.992 0-383.986 171.994-383.986 383.986v127.996h767.972V778.74c0-211.992-171.992-383.986-383.986-383.986z" fill="#CBD0D8" /><path d="M127.264 821.238h767.972v43H127.264z" fill="#A9B1BC" /><path d="M276.508 885.238c0 11.998-9.5 21.498-21.25 21.498s-21.248-9.5-21.248-21.498c0-11.5 9.498-21 21.248-21s21.25 9.5 21.25 21zM447.252 885.238c0 11.998-9.5 21.498-21.248 21.498-11.75 0-21.5-9.5-21.5-21.498 0-11.5 9.75-21 21.5-21 11.748 0 21.248 9.5 21.248 21zM617.996 885.238c0 11.998-9.5 21.498-21.5 21.498-11.75 0-21.25-9.5-21.25-21.498 0-11.5 9.5-21 21.25-21 12 0 21.5 9.5 21.5 21zM788.49 885.238c0 11.998-9.5 21.498-21.25 21.498-11.748 0-21.248-9.5-21.248-21.498 0-11.5 9.5-21 21.248-21 11.75 0 21.25 9.5 21.25 21z" fill="#646C77" /><path d="M511.25 394.754c-7.25 0-14.25 0.5-21.25 0.5 201.994 11 362.488 178.494 362.488 383.486v127.996h42.748V778.74c0-211.992-171.992-383.986-383.986-383.986z" fill="#FFFFFF" opacity=".2" /><path d="M512.5 394.754c6.998 0 14.25 0.5 21.248 0.5-201.992 11-362.486 178.494-362.486 383.486v127.996H128.514V778.74c0-211.992 171.994-383.986 383.986-383.986z" opacity=".1" /></svg>