<?xml version="1.0" standalone="no"?><!DOCTYPE svg PUBLIC "-//W3C//DTD SVG 1.1//EN" "http://www.w3.org/Graphics/SVG/1.1/DTD/svg11.dtd"><svg class="icon" width="128px" height="128.00px" viewBox="0 0 1024 1024" version="1.1" xmlns="http://www.w3.org/2000/svg"><path d="M840.774 737.652l-64.874-103.122-131.558-18.656-16 364.426 265.804 1.032v-64.216l-23.966-31.686s-172.84-19.876-161.84-106.904c11.032-87.466 132.434-40.874 132.434-40.874zM551.564 512.004h-133.308l-104.84-206.554 245.992-67.968z" fill="#A9B1BC" /><path d="M554.44 411.446c-78.528-19.126-177.994 18.186-177.994 18.186l7.468 14.688 34.342 67.686h68.312l65.652-22.718 2.22-77.842z" opacity=".1" /><path d="M124.922 807.088l153.806-200.712s16.844-372.486 399.55-256.678L978.208 81.768C-0.012-274.034-51.072 636.436 124.922 807.088z" fill="#EC5564" /><path d="M955.49 102.08l22.716-20.312C-0.012-274.032-51.074 636.436 124.92 807.088l6.562-8.594C7.926 553.408 112.046-167.38 955.49 102.08z" fill="#D94452" /><path d="M678.59 723.996c94.624-108.122 210.62 158.278 215.182 157.12 4.5-1.154-32.498-249.428-32.498-249.428S838.588 426.662 646.78 411.382c-353.02-28.156-351.208 255.272-351.208 255.272v271.99h213.338l127.994 85.342h213.306l0.062-84.998-30.374-33.654c0.002 0-235.052-74.214-141.308-181.338z" fill="#CBD0D8" /><path d="M893.772 881.116c4.5-1.154-32.498-249.428-32.498-249.428S838.588 426.662 646.78 411.382c-177.774-14.188-265.552 50.652-308.928 118.528 0 0 186.058-138.028 379.364-39.5 154.586 78.78 174.306 391.268 176.556 390.706z" fill="#FFFFFF" opacity=".2" /></svg>