<?xml version="1.0" standalone="no"?><!DOCTYPE svg PUBLIC "-//W3C//DTD SVG 1.1//EN" "http://www.w3.org/Graphics/SVG/1.1/DTD/svg11.dtd"><svg class="icon" width="128px" height="128.00px" viewBox="0 0 1024 1024" version="1.1" xmlns="http://www.w3.org/2000/svg"><path d="M511.978 1023.98c-11.782 0-21.312-9.562-21.312-21.344v-132.12a21.3 21.3 0 0 1 21.312-21.312c11.78 0 21.342 9.532 21.342 21.312v132.12c0 11.782-9.562 21.344-21.342 21.344z" fill="#8CC153" /><path d="M857.134 849.924l-29.904-7.938c-1.688-7.688-7.53-14-15.374-16.094l-29.906-7.906c-2.094-9.624-10.624-16.81-20.844-16.81h-26.124a20.848 20.848 0 0 0-6.154-7.562 21.43 21.43 0 0 0-18.498-3.718l-23.968 6.344a20.81 20.81 0 0 0-4.844-4c-6.406-3.876-14.376-4.062-21-0.562l-24.032 12.716a21.434 21.434 0 0 0-19.592-1.532l-104.918 44.5-104.872-44.5a21.494 21.494 0 0 0-19.624 1.532l-24.03-12.716a21.266 21.266 0 0 0-20.968 0.562 21.668 21.668 0 0 0-4.876 4l-23.968-6.344a21.372 21.372 0 0 0-18.468 3.718 21.244 21.244 0 0 0-6.186 7.562h-26.092a21.316 21.316 0 0 0-20.844 16.81l-29.906 7.906a21.368 21.368 0 0 0-15.374 16.094l-29.904 7.938a21.3 21.3 0 0 0-15.874 20.624c0 9.656 6.5 18.124 15.874 20.592l29.904 7.938a21.366 21.366 0 0 0 15.374 16.092l29.906 7.906c2.062 9.594 10.624 16.812 20.844 16.812h26.092a21.55 21.55 0 0 0 6.186 7.562 21.31 21.31 0 0 0 13 4.438c1.844 0 3.688-0.25 5.468-0.718l23.968-6.344a21.622 21.622 0 0 0 4.876 4 21.24 21.24 0 0 0 21 0.562l24.03-12.718a21.32 21.32 0 0 0 19.592 1.5l104.872-44.466 104.918 44.466a21.32 21.32 0 0 0 19.592-1.5l24.032 12.718c6.624 3.5 14.594 3.312 21-0.562a20.81 20.81 0 0 0 4.844-4l23.968 6.344c1.81 0.468 3.654 0.718 5.466 0.718a21.4 21.4 0 0 0 13.032-4.438 21.134 21.134 0 0 0 6.154-7.562h26.124c10.218 0 18.75-7.218 20.844-16.812l29.906-7.906a21.414 21.414 0 0 0 15.374-16.092l29.904-7.938a21.326 21.326 0 0 0 15.876-20.592 21.3 21.3 0 0 0-15.876-20.624z" fill="#A0D468" /><path d="M979.974 402.566c-7.156-7.156-18.344-8.312-26.78-2.75l-58.374 38.342-0.188-0.188c-7.156-7.156-18.376-8.312-26.812-2.75l-58.372 38.344-0.188-0.188a21.228 21.228 0 0 0-15.094-6.25 21.33 21.33 0 0 0-15.094 6.218l-45.53 45.53a21.39 21.39 0 0 0-14.436-3.75 21.312 21.312 0 0 0-15.654 9.5l-34.406 52.374a21.46 21.46 0 0 0-12.312-1.188 21.268 21.268 0 0 0-15.532 12.748l-24.874 59.968a21.034 21.034 0 0 0-6.718 0.032 21.22 21.22 0 0 0-15.654 11.466l-81.984 163.024-81.934-163.024a21.216 21.216 0 0 0-15.656-11.466 21.038 21.038 0 0 0-6.718-0.032l-24.874-59.968a21.25 21.25 0 0 0-15.562-12.748 21.368 21.368 0 0 0-12.282 1.188l-34.406-52.374a21.316 21.316 0 0 0-15.656-9.5 21.52 21.52 0 0 0-14.468 3.75l-45.5-45.498c-4-4.032-9.436-6.25-15.092-6.25s-11.094 2.218-15.094 6.25l-0.188 0.188-58.364-38.344a21.374 21.374 0 0 0-26.812 2.718l-0.188 0.218-58.374-38.342c-8.436-5.562-19.656-4.406-26.812 2.75a21.328 21.328 0 0 0-2.718 26.78L79.62 487.72l-0.218 0.188a21.33 21.33 0 0 0-2.718 26.812l38.342 58.374-0.218 0.188c-8.312 8.344-8.312 21.842 0 30.186L160.338 649a21.39 21.39 0 0 0-3.75 14.436 21.32 21.32 0 0 0 9.5 15.656l52.372 34.404a21.46 21.46 0 0 0-1.188 12.312 21.266 21.266 0 0 0 12.75 15.532l59.966 24.874a21.994 21.994 0 0 0 0 6.718 21.332 21.332 0 0 0 11.5 15.654l200.93 100.996c0.156 0.094 0.312 0.156 0.468 0.218 0.5 0.218 1 0.468 1.5 0.656 0.282 0.094 0.532 0.188 0.812 0.282 0.468 0.156 0.938 0.282 1.406 0.406 0.282 0.094 0.562 0.156 0.876 0.218 0.468 0.124 0.968 0.188 1.468 0.25 0.25 0.062 0.532 0.094 0.782 0.124 0.718 0.094 1.438 0.124 2.188 0.124H512.356a21.648 21.648 0 0 0 4.5-0.562c0.032 0 0.062 0 0.094-0.032a13.676 13.676 0 0 0 2.188-0.656l0.282-0.094a16.506 16.506 0 0 0 2.032-0.876 0.236 0.236 0 0 0 0.124-0.062l200.948-100.996a21.29 21.29 0 0 0 11.466-15.654c0.376-2.25 0.376-4.5 0.032-6.718l59.966-24.874a21.324 21.324 0 0 0 12.75-15.532 21.442 21.442 0 0 0-1.188-12.312l52.372-34.404a21.42 21.42 0 0 0 9.5-15.656 21.24 21.24 0 0 0-3.782-14.436l45.532-45.532a21.33 21.33 0 0 0 0-30.186l-0.188-0.188 38.342-58.374a21.336 21.336 0 0 0-2.75-26.812l-0.188-0.188 38.342-58.374a21.294 21.294 0 0 0-2.756-26.776z" fill="#8CC153" /><path d="M666.3 462.908a21.37 21.37 0 0 0-18.062-10h-0.188l20.906-86.902a21.352 21.352 0 0 0-3.968-18.186 21.376 21.376 0 0 0-16.75-8.124h-5.938v-91.902a21.298 21.298 0 0 0-21.31-21.312h-10.438l-23.31-96.886a21.328 21.328 0 0 0-20.75-16.344h-10.438L532.726 16.364A21.328 21.328 0 0 0 511.976 0.02c-9.844 0-18.438 6.75-20.718 16.344l-23.312 96.886h-10.436a21.326 21.326 0 0 0-20.75 16.344l-23.312 96.886h-10.436c-11.782 0-21.342 9.532-21.342 21.312v91.902h-5.906c-6.532 0-12.718 3-16.75 8.124a21.26 21.26 0 0 0-4 18.186l20.906 86.902h-0.156a21.328 21.328 0 0 0-18.062 10 21.282 21.282 0 0 0-1.156 20.592l40.216 83.56a21.434 21.434 0 0 0-11.342 8.344 21.302 21.302 0 0 0-2.312 19.716l108.964 283.084a21.374 21.374 0 0 0 19.906 13.654c8.842 0 16.75-5.438 19.906-13.654l109.012-283.084a21.3 21.3 0 0 0-2.312-19.716 21.56 21.56 0 0 0-11.344-8.344l40.218-83.56a21.28 21.28 0 0 0-1.158-20.59z" fill="#A0D468" /></svg>