<?xml version="1.0" standalone="no"?><!DOCTYPE svg PUBLIC "-//W3C//DTD SVG 1.1//EN" "http://www.w3.org/Graphics/SVG/1.1/DTD/svg11.dtd"><svg class="icon" width="128px" height="128.00px" viewBox="0 0 1024 1024" version="1.1" xmlns="http://www.w3.org/2000/svg"><path d="M810.656 881.684H213.344L42.656 469.372h938.688z" fill="#8CC153" /><path d="M512 881.684c282.782 0 512-229.218 512-512H0c0 282.78 229.218 512 512 512z" fill="#A0D468" /><path d="M1024 369.684c0 47.124-229.218 85.344-512 85.344S0 416.808 0 369.684s229.218-85.344 512-85.344 512 38.218 512 85.344z" fill="#8CC153" /><path d="M833.968 436.028l151.282-164.468-90.5-90.5-296.562 272.748c88.344-2.5 169-8.75 235.78-17.78z" fill="#CCD1D9" /><path d="M999.406 285.684c-32.812 32.812-86 32.812-118.812 0-32.782-32.782-32.782-85.968 0-118.782 32.812-32.782 86-32.782 118.812 0 32.782 32.812 32.782 86 0 118.782z" fill="#E6E9ED" /><path d="M426.656 711.028c-23.468 0-42.656-19.218-42.656-42.688v-42.656c0-23.468 19.188-42.656 42.656-42.656h170.688c23.468 0 42.656 19.188 42.656 42.656v42.656c0 23.468-19.188 42.688-42.656 42.688h-170.688z" fill="#E6E9ED" /><path d="M426.656 711.028c-23.468 0-42.656-19.218-42.656-42.688v-42.656c0-23.468 19.188-42.656 42.656-42.656h170.688c23.468 0 42.656 19.188 42.656 42.656v42.656c0 23.468-19.188 42.688-42.656 42.688h-170.688z" fill="#E6E9ED" /><path d="M576 732.34c0 23.468-19.188 42.688-42.656 42.688h-42.688c-23.468 0-42.656-19.218-42.656-42.688v-170.656c0-23.468 19.188-42.656 42.656-42.656h42.688c23.468 0 42.656 19.188 42.656 42.656v170.656z" fill="#F5F7FA" /><path d="M576 732.34c0 23.468-19.188 42.688-42.656 42.688h-42.688c-23.468 0-42.656-19.218-42.656-42.688v-170.656c0-23.468 19.188-42.656 42.656-42.656h42.688c23.468 0 42.656 19.188 42.656 42.656v170.656z" fill="#F5F7FA" /></svg>