<?xml version="1.0" standalone="no"?><!DOCTYPE svg PUBLIC "-//W3C//DTD SVG 1.1//EN" "http://www.w3.org/Graphics/SVG/1.1/DTD/svg11.dtd"><svg class="icon" width="128px" height="128.00px" viewBox="0 0 1024 1024" version="1.1" xmlns="http://www.w3.org/2000/svg"><path d="M494.294 329.596l35.408 23.764L231.22 798.06l-35.408-23.766z" fill="#434A54" /><path d="M792.716 800.93L494.264 353.28l35.472-23.638 298.454 447.65z" fill="#434A54" /><path d="M426.754 789.096c0 117.752-95.458 213.178-213.178 213.178C95.858 1002.274 0.4 906.848 0.4 789.096c0-117.72 95.458-213.144 213.176-213.144 117.72 0 213.178 95.424 213.178 213.144z" fill="#EC87C0" /><path d="M372.046 931.672v-14.05c0-16.332-10.492-30.82-26.104-35.972l-1.188-0.344c-17.174-4.59-22.952-9.024-30.602-11.928-27.072-10.336-34.128-17.768-35.94-21.264-0.062-0.156-0.124-0.282-0.156-0.406l-0.25-31.476-64.232-0.716-64.262 0.716-0.218 31.476c-0.062 0.124-0.094 0.25-0.156 0.406-1.81 3.496-8.868 10.928-35.94 21.264-7.65 2.904-13.458 7.338-30.602 11.928l-1.188 0.344c-15.612 5.152-26.104 19.64-26.104 35.972v14.05c39 43.342 95.55 70.602 158.468 70.602 62.924 0 119.474-27.26 158.474-70.602z" fill="#FFCE54" /><path d="M302.726 778.666c0 57.924-55.208 111.226-89.15 111.226-33.942 0-89.148-53.302-89.148-111.226s39.906-96.142 89.148-96.142c49.244 0 89.15 38.218 89.15 96.142z" fill="#EAC6BB" /><path d="M1023.6 789.096c0 117.752-95.426 213.178-213.144 213.178-117.754 0-213.178-95.426-213.178-213.178 0-117.72 95.424-213.144 213.178-213.144 117.718 0 213.144 95.424 213.144 213.144z" fill="#A0D468" /><path d="M651.954 931.672c32.256 35.816 76.44 60.64 126.338 68.198l43.466 2.092c58.362-3.03 110.508-29.57 147.166-70.29v-14.05c0-16.332-10.524-30.82-26.136-35.972l-1.154-0.344c-17.174-4.59-22.982-9.024-30.6-11.928-27.106-10.336-34.13-17.768-35.942-21.264a4.366 4.366 0 0 0-0.188-0.406l-0.218-31.476-64.23-0.716-64.264 0.716-0.216 31.476c-0.062 0.124-0.094 0.25-0.188 0.406-1.782 3.496-8.838 10.928-35.942 21.264-7.62 2.904-13.428 7.338-30.57 11.928l-1.188 0.344c-15.614 5.152-26.134 19.64-26.134 35.972v14.05z" fill="#AC92EB" /><path d="M899.604 778.666c0 57.924-55.238 111.226-89.148 111.226-33.944 0-89.15-53.302-89.15-111.226s39.906-96.142 89.15-96.142c49.21 0 89.148 38.218 89.148 96.142z" fill="#EAC6BB" /><path d="M789.126 298.822c0 153.038-124.058 277.128-277.126 277.128-153.038 0-277.096-124.092-277.096-277.128S358.962 21.726 512 21.726c153.068 0 277.126 124.06 277.126 277.096z" fill="#ED5564" /><path d="M305.944 484.116c50.74 56.364 124.246 91.836 206.056 91.836 81.248 0 154.348-34.972 205.028-90.68v-8.87c-3.186-17.456-15.708-32.13-33.13-37.908l-1.532-0.438c-22.262-5.996-29.82-11.742-39.718-15.488-35.192-13.428-44.34-23.076-46.68-27.634a3.726 3.726 0 0 1-0.218-0.532l-0.312-40.844-83.438-0.964-83.436 0.966-0.28 40.844a3.726 3.726 0 0 0-0.218 0.532c-2.342 4.558-11.492 14.208-46.684 27.634-9.93 3.746-17.456 9.492-39.75 15.488l-1.53 0.438c-17.392 5.776-29.914 20.452-33.1 37.908 0.002-0.002-0.53 3.622-1.058 7.712z" fill="#48CFAD" /><path d="M627.784 274.466c0 75.254-71.722 144.48-115.784 144.48-44.058 0-115.786-69.226-115.786-144.48 0-75.222 51.836-124.84 115.786-124.84 63.952 0 115.784 49.618 115.784 124.84z" fill="#EAC6BB" /></svg>