<?xml version="1.0" standalone="no"?><!DOCTYPE svg PUBLIC "-//W3C//DTD SVG 1.1//EN" "http://www.w3.org/Graphics/SVG/1.1/DTD/svg11.dtd"><svg class="icon" width="128px" height="128.00px" viewBox="0 0 1024 1024" version="1.1" xmlns="http://www.w3.org/2000/svg"><path d="M837.876 791.304H186.124S16.286 0.012 511.992 0.012c495.692 0 325.884 791.292 325.884 791.292z" fill="#E2A437" /><path d="M877.75 772.742l-3.624-1.062c-52.938-14.186-70.812-27.874-94.376-36.81-83.622-31.874-105.372-54.81-110.934-65.686-0.188-0.376-0.376-0.812-0.562-1.188l-0.688-97.124-155.574-2.25-155.59 2.25-0.688 97.124c-0.188 0.376-0.344 0.812-0.532 1.188-5.562 10.876-27.312 33.812-110.904 65.686-23.562 8.938-41.468 22.624-94.404 36.81l-3.624 1.062c-48.186 15.938-80.624 60.624-80.624 111.06v140.186h892.742v-140.186c0.004-50.434-32.434-95.122-80.618-111.06z" fill="#A0D468" /><path d="M707.722 760.712l30.996-42.874c-50.214-23.062-65.402-39.812-69.902-48.656-0.188-0.376-0.376-0.812-0.562-1.188l-0.688-97.124-155.574-2.25-155.59 2.25-0.688 97.124c-0.188 0.376-0.344 0.812-0.532 1.188-4.156 8.124-17.344 23-58.546 43.25l40.296 41.31 42.656 31.592 217.884 21.438 110.25-46.06z" fill="#DBAFA5" /><path d="M787.124 382.126c0 178.746-170.434 343.242-275.132 343.242-104.684 0-275.086-164.496-275.086-343.242 0-178.744 123.154-296.68 275.086-296.68 151.95 0.002 275.132 117.936 275.132 296.68z" fill="#EAC6BB" /><path d="M429.806 259.538h336.88v44.874h-336.88z" fill="#DA4453" /><path d="M777.406 298.694h-52.028v-21.344h46.058a303.36 303.36 0 0 0-17.25-42.656H492.976v21.312h-2.296v42.688h-92.842v42.654h387.036c-1.624-14.72-4.124-28.97-7.468-42.654z m-222.71 0h-21.36v-21.344h21.36v21.344z m63.996 0h-21.376v-21.344h21.376v21.344z m64 0h-21.376v-21.344h21.376v21.344z" fill="#ED5564" /><path d="M696.004 774.274c27.25-20.904 43.402-42.092 50.622-52.902-15.782-6.938-28.434-13.344-38.59-19.156-17.062 23.404-74.656 87.214-196.028 87.214-61.608 0-114.2-16.062-156.356-47.716-20.094-15.094-32.936-30.374-39.64-39.53-10.172 5.844-22.842 12.25-38.64 19.188 7.218 10.81 23.39 31.998 50.608 52.902 34.39 26.376 94.232 57.844 184.026 57.844 89.81 0 149.622-31.47 183.998-57.844z" fill="#434A54" /><path d="M490.68 810.774h42.656v170.558H490.68z" fill="#E6E9ED" /><path d="M577.692 954.55l-75.59-39.592 19.812-37.81 75.558 39.624z" fill="#E6E9ED" /><path d="M446.338 954.55l-19.796-37.778 75.56-39.624 19.812 37.81z" fill="#E6E9ED" /><path d="M512.008 1002.676c-58.812 0-106.668-47.844-106.668-106.686 0-58.81 47.858-106.654 106.668-106.654 58.812 0 106.684 47.844 106.684 106.654 0 58.842-47.872 106.686-106.684 106.686z m0-170.684c-35.296 0-63.998 28.718-63.998 63.998 0 35.31 28.702 63.998 63.998 63.998 35.312 0 63.996-28.688 63.996-63.998 0-35.28-28.684-63.998-63.996-63.998z" fill="#CCD1D9" /><path d="M574.316 170.008L857 362.942C831.812 176.632 746.188 0.012 511.992 0.012l62.324 169.996z" fill="#F6BB42" /><path d="M532.054 252.88c91.324-65.624 169.95-130.246 210.382-164.372C689.378 34.262 615.066 0.012 511.992 0.012 238.53 0.012 167.626 240.88 159 456.814c94.842-25.5 219.964-93.872 373.054-203.934z" fill="#FFCE54" /></svg>