<?xml version="1.0" standalone="no"?><!DOCTYPE svg PUBLIC "-//W3C//DTD SVG 1.1//EN" "http://www.w3.org/Graphics/SVG/1.1/DTD/svg11.dtd"><svg class="icon" width="128px" height="128.00px" viewBox="0 0 1024 1024" version="1.1" xmlns="http://www.w3.org/2000/svg"><path d="M920.738 772.526l-3.656-1.062c-52.966-14.248-70.872-27.936-94.464-36.874-83.656-31.874-105.436-54.874-110.998-65.686-0.188-0.376-0.344-0.812-0.532-1.25l-0.688-97.124-198.4-2.25-198.402 2.25-0.688 97.124c-0.188 0.438-0.344 0.876-0.532 1.25-5.562 10.812-27.342 33.812-110.996 65.686-23.594 8.938-41.5 22.624-94.466 36.874l-3.656 1.062c-48.216 15.968-80.654 60.656-80.654 111.154v140.31h978.788V883.68c0-50.498-32.436-95.186-80.656-111.154z" fill="#EC5564" /><path d="M987.738 828.932l-113.716 113.714-90.498-90.496 93.498-93.53c-17.938-6.876-30.062-13.25-41.686-18.624l-82 81.966-90.496-90.498 54.53-54.53c-2.844-3.156-4.624-5.844-5.75-8.032-0.188-0.376-0.344-0.812-0.532-1.25l-0.312-44.468L512 821.962l-90.498-90.498 162.338-162.34-59.652-0.688-132.874 132.842-78.092-78.094-0.312 44.468c-0.188 0.438-0.344 0.876-0.532 1.25-1.124 2.188-2.938 4.876-5.75 8.032l54.532 54.53-90.498 90.498-81.998-81.966c-11.624 5.376-23.75 11.75-41.688 18.624l93.498 93.53-90.498 90.496-113.714-113.714a116.046 116.046 0 0 0-13.376 46.968l96.904 96.902-51.156 51.188h60.344l20.998-21 20.968 21h60.342l-51.154-51.188 90.53-90.498 90.498 90.498-51.156 51.188h60.344l20.966-21 21 21h60.342l-51.154-51.188L512 882.304l90.496 90.498-51.154 51.188h60.342l21-21 20.968 21h60.342l-51.154-51.188 90.496-90.498 90.532 90.498-51.156 51.188h60.31l21-21 20.998 21h60.344l-51.156-51.188 96.906-96.934a116.036 116.036 0 0 0-13.376-46.936z m-596.424 113.714l-90.498-90.496 90.498-90.53 90.53 90.53-90.53 90.496z m241.37 0l-90.53-90.496 90.53-90.53 90.498 90.53-90.498 90.496z" fill="#DA4453" /><path d="M426.658 681.466h170.682v341.336h-170.682z" fill="#E5E8EC" /><path d="M527.094 922.396c8.31 8.312 8.31 21.812 0 30.156a21.332 21.332 0 0 1-30.188 0c-8.312-8.344-8.312-21.844 0-30.156a21.336 21.336 0 0 1 30.188 0zM527.094 837.056c8.31 8.344 8.31 21.844 0 30.156a21.332 21.332 0 0 1-30.188 0c-8.312-8.312-8.312-21.812 0-30.156a21.332 21.332 0 0 1 30.188 0z" fill="#424953" /><path d="M512 768.962l127.996 60.5 71.092-161.808v-79.278zM512 768.962l-127.998 60.5-71.092-161.808v-79.278z" fill="#F4F6F9" /><path d="M787.304 383.24c0 178.854-170.528 343.476-275.304 343.476-104.78 0-275.306-164.622-275.306-343.476 0-178.87 123.28-296.868 275.306-296.868 152.058 0 275.304 117.998 275.304 296.868z" fill="#EAC6BB" /><path d="M682.308 56.874c-46.812-42.438-209.464-103.31-360.304 0-118.964 81.434-106.964 286.928-106.964 286.928s156.122 39.436 334.896-62.686c115.592-66.06 155.872 1.124 176.59 59.56 20.154 56.936 60.78 42.562 60.78 42.562s44.812-190.744-104.998-326.364z" fill="#FC6E51" /><path d="M624.59 254.242c16.656-1.5 30.688 1.062 42.656 6.562 23.56-73.748 68.434-96.31 91.152-103.184a324.676 324.676 0 0 0-21.562-37.624c-8.966 3.376-19.216 8.25-29.966 15.188-27.124 17.562-62.53 52.248-82.28 119.058zM341.004 544.408c-10.688 20.686-18.094 41.436-18.094 59.124 0 62.998 150.278 164.806 189.09 165.432 38.81-0.624 189.088-102.434 189.088-165.432 0-18.062-7.75-39.312-18.81-60.482-27.594-52.814-313.836-51.938-341.274 1.358z" fill="#E9573F" /><path d="M717.212 423.926c-33.186 1-49.124 35.436-49.124 35.436 30.03-9.25 56.842 12.312 22.31 30.936-68.592 37.062-120.528-99.248-178.4-33.31-57.876-65.936-109.81 70.374-178.372 33.31-34.562-18.624-7.75-40.186 22.282-30.936 0 0-15.938-34.436-49.124-35.436-43.436-1.312-140.402 156.042 88.81 177.168 43.75 4 90.186-14.188 116.404-42.938 26.216 28.75 72.652 46.938 116.434 42.938 229.184-21.126 132.216-178.48 88.78-177.168z" fill="#FC6E51" /></svg>