<?xml version="1.0" standalone="no"?><!DOCTYPE svg PUBLIC "-//W3C//DTD SVG 1.1//EN" "http://www.w3.org/Graphics/SVG/1.1/DTD/svg11.dtd"><svg class="icon" width="128px" height="128.00px" viewBox="0 0 1024 1024" version="1.1" xmlns="http://www.w3.org/2000/svg"><path d="M1008.95 95.044a21.254 21.254 0 0 0-8.938-13.688l-51.654-35.248a21.334 21.334 0 0 0-16.186-3.312 21.42 21.42 0 0 0-13.686 9.234c-1.156 1.766-116.496 177.772-246.488 363.856-216.082 309.296-305.11 407.604-341.732 435.6-1.344 1.032-9.734 6.188-41.934 6.188-44.56 0-107.23-9.782-157.586-17.624-35.92-5.624-64.278-10.032-79.778-10.032a65.8 65.8 0 0 0-6.968 0.344c-19.468 2.282-35.374 19.53-41.514 45.03-6.718 27.936-0.688 69.84 38.466 95.964 7.5 5.03 30.326 20.248 144.774 20.248 42.936 0 90.246-2.282 129.822-6.282 19.514-1.938 35.67-4.188 47.998-6.624 19.124-3.75 28.342-7.81 33.984-14.966C562.254 755.398 1001.136 117.48 1005.574 111.058a21.36 21.36 0 0 0 3.376-16.014z" fill="#5D9CEC" /><path d="M637.718 637.03a13477.48 13477.48 0 0 0 24.78-34.874l-77.058-64.122c-8.624 11.968-17 23.53-25.092 34.624l77.37 64.372zM618.284 492.1l76.028 65.152c8.28-11.686 16.53-23.374 24.714-34.996l-75.964-65.122c-8.468 12-16.718 23.656-24.778 34.966z" fill="#434A54" /><path d="M1006.45 88.31c-0.282 0.484-0.562 0.954-0.876 1.422-4.438 6.406-443.32 644.356-608.046 852.688-5.64 7.124-14.86 11.188-33.984 14.968-12.328 2.438-28.482 4.656-47.998 6.624-39.576 4-86.886 6.282-129.822 6.282-114.448 0-137.274-15.25-144.774-20.25-26.218-17.5-37.576-42.092-40.202-64.778-3.218 27.248 5.422 62.872 40.202 86.09 7.5 5.03 30.326 20.248 144.774 20.248 42.936 0 90.246-2.282 129.822-6.282 19.514-1.938 35.67-4.188 47.998-6.624 19.124-3.75 28.342-7.81 33.984-14.966C562.254 755.398 1001.136 117.48 1005.574 111.058a21.36 21.36 0 0 0 3.376-16.014 21.39 21.39 0 0 0-2.5-6.734z" fill="#FFFFFF" opacity=".2" /><path d="M1002.606 130.308a21.36 21.36 0 0 1-11.998-3.718l-80.934-55.248c-9.75-6.64-12.25-19.906-5.624-29.64 6.656-9.734 19.936-12.234 29.654-5.592l80.964 55.248c9.716 6.64 12.216 19.906 5.592 29.638a21.35 21.35 0 0 1-17.654 9.312z" fill="#4A89DC" /><path d="M661.248 164.4H362.656c-11.782 0-21.342 9.562-21.342 21.328v85.324c0 22.406 19.92 39.452 59.214 50.686 30.046 8.578 69.622 13.312 111.432 13.312 41.794 0 81.386-4.734 111.416-13.312 39.308-11.234 59.214-28.28 59.214-50.686V185.726c0.002-11.764-9.56-21.326-21.342-21.326z" fill="#656D78" /><path d="M1021.51 875.392c-6.124-25.5-22.03-42.748-41.496-45.03a66.822 66.822 0 0 0-6.968-0.344c-15.5 0-43.874 4.406-79.778 10.032-50.34 7.842-113.026 17.624-157.586 17.624-32.216 0-40.59-5.156-41.934-6.188-36.624-27.996-125.652-126.304-341.734-435.6C222.006 229.802 106.668 53.796 105.512 52.03l-11.906-18.186L6.314 93.418l12.124 17.64c4.422 6.42 443.304 644.34 608.03 852.674 5.656 7.156 14.876 11.216 33.998 14.966 12.312 2.438 28.468 4.688 47.998 6.656 39.56 3.968 86.87 6.25 129.806 6.25 28.308 0 114.46 0 144.774-20.248 39.154-26.124 45.184-68.028 38.466-95.964z" fill="#ED5564" /><path d="M386.294 637.03l77.372-64.372a6331.872 6331.872 0 0 1-25.092-34.624l-77.074 64.122c8.28 11.688 16.544 23.31 24.794 34.874zM304.97 522.256c8.202 11.624 16.452 23.31 24.716 34.996l76.028-65.152a11488.05 11488.05 0 0 1-24.764-34.966l-75.98 65.122z" fill="#434A54" /><path d="M983.044 950.044c-30.312 20.25-116.464 20.25-144.774 20.25-42.938 0-90.246-2.282-129.806-6.282-19.53-1.968-35.686-4.188-47.998-6.624-19.124-3.782-28.342-7.844-33.998-14.968C461.744 734.088 22.86 96.138 18.438 89.732l-2.14-3.124-9.984 6.812 12.124 17.64c4.422 6.42 443.304 644.34 608.03 852.674 5.656 7.156 14.876 11.216 33.998 14.966 12.312 2.438 28.468 4.688 47.998 6.656 39.56 3.968 86.87 6.25 129.806 6.25 28.308 0 114.46 0 144.774-20.248 34.778-23.218 43.434-58.842 40.214-86.09-2.624 22.686-13.996 47.276-40.214 64.776z" fill="#FFFFFF" opacity=".2" /><path d="M21.392 130.308a21.326 21.326 0 0 1-17.64-9.312c-6.64-9.734-4.14-22.998 5.592-29.638l80.95-55.248c9.734-6.64 23-4.14 29.64 5.592 6.64 9.734 4.14 23-5.594 29.64L33.39 126.588a21.32 21.32 0 0 1-11.998 3.72z" fill="#DA4453" /><path d="M623.376 135.058c-30.032-8.578-69.624-13.312-111.416-13.312-41.81 0-81.386 4.734-111.432 13.312-39.294 11.218-59.214 28.28-59.214 50.668 0 22.406 19.92 39.45 59.214 50.684 30.046 8.578 69.622 13.312 111.432 13.312 41.794 0 81.386-4.734 111.416-13.312 39.308-11.234 59.214-28.28 59.214-50.684 0.002-22.39-19.904-39.45-59.214-50.668z" fill="#434A54" /></svg>