<?xml version="1.0" standalone="no"?><!DOCTYPE svg PUBLIC "-//W3C//DTD SVG 1.1//EN" "http://www.w3.org/Graphics/SVG/1.1/DTD/svg11.dtd"><svg class="icon" width="128px" height="128.00px" viewBox="0 0 1024 1024" version="1.1" xmlns="http://www.w3.org/2000/svg"><path d="M61.98 879.398c29.186-31.718 64.624-85.654 4.53-116.06 0 0 115.654-28.312 103.154-106.998 0 0 123.374 20.5 144.78-81.874 0 0 91.374 52.282 197.838 44.938-59.592 88.53-59.998 193.776-59.998 193.776-99.374-32.624-143.308 84.468-143.308 84.468-61.876-50.188-144.216 35.842-144.216 35.842 3.686-67.248-60.718-63.53-102.78-54.092z" fill="#A0D468" /><path d="M140.292 989.894l3.156-57.592c0.688-12.594-1.594-21.75-6.75-27.218-7.468-7.874-22.032-9.53-32.906-9.53-10.844 0-23.344 1.562-37.156 4.654L0.012 915.146l46.25-50.216c22.498-24.406 33.904-46.624 31.31-60.966-0.532-3.032-2.218-12.218-20.686-21.594L5.418 756.306l56.032-13.718c0.218-0.062 26.686-6.718 50.842-21.842 28.156-17.656 40.03-37.624 36.282-61.062l-4.656-29.25 29.248 4.844c0.032 0 8.782 1.376 21.5 1.376 15.718 0 38.656-2.094 58.53-12.06 21.782-10.968 35-28.782 40.376-54.5l6-28.748 25.498 14.594c0.718 0.438 76.344 42.842 166.466 42.842 6.466 0 12.966-0.25 19.28-0.688l43.594-3L530 631.308c-55.092 81.812-56.374 180.996-56.374 181.996l-0.188 29.282-27.812-9.124c-9.468-3.094-18.656-4.656-27.344-4.656-59.998 0-89.03 75.56-89.31 76.342l-10.404 27.75-23.032-18.656c-9.094-7.376-19.032-10.968-30.438-10.968-34.342 0-72.936 32.468-84.936 44.968l-39.87 41.652z m-32.408-136.964c26.032 0.718 46.124 8.376 59.81 22.812a62.966 62.966 0 0 1 11.688 17.438c1.406-1.032 2.844-2.032 4.312-3.062 28.468-19.594 55.842-29.532 81.404-29.532 12.282 0 23.906 2.282 34.75 6.844 17.062-30.656 54.874-81.342 118.434-81.342 4.718 0 9.5 0.312 14.312 0.876 3.282-32.124 13.062-89.248 42.188-145.936-63.656-3.094-118.03-23.186-147.498-36.436-20.53 47.874-67.498 74.78-132.622 74.78-1.156 0-2.282-0.032-3.376-0.032-3.062 24.844-17.312 53.436-57.28 78.154-8.594 5.312-17.282 9.718-25.312 13.344 5.124 7.156 9.094 15.594 10.876 25.532 3.158 17.466-0.748 36.372-11.686 56.56z" fill="#8CC153" /><path d="M962.024 879.398c-29.188-31.718-64.624-85.654-4.562-116.06 0 0-115.624-28.312-103.124-106.998 0 0-123.372 20.5-144.778-81.874 0 0-91.372 52.282-197.84 44.938 59.594 88.53 60 193.776 60 193.776 99.372-32.624 143.308 84.468 143.308 84.468 61.876-50.188 144.214 35.842 144.214 35.842-3.688-67.248 60.718-63.53 102.782-54.092z" fill="#A0D468" /><path d="M843.836 948.24c-11.998-12.5-50.59-44.968-84.934-44.968-11.406 0-21.344 3.594-30.438 10.968l-23.032 18.656-10.406-27.75c-0.282-0.782-29.31-76.342-89.308-76.342-8.688 0-17.906 1.562-27.344 4.656l-27.812 9.124-0.188-29.282c0-1-1.282-100.184-56.374-181.996l-24.406-36.216 43.592 3c6.312 0.438 12.812 0.688 19.282 0.688 90.124 0 165.746-42.404 166.464-42.842l25.5-14.594 6 28.748c5.376 25.718 18.594 43.532 40.376 54.5 19.876 9.966 42.81 12.06 58.53 12.06 12.716 0 21.466-1.376 21.498-1.376l29.25-4.844-4.656 29.25c-3.75 23.438 8.124 43.406 36.282 61.062 24.156 15.124 50.624 21.78 50.844 21.842l56.028 13.718-51.464 26.062c-18.468 9.376-20.156 18.562-20.688 21.594-2.594 14.342 8.812 36.56 31.31 60.966l46.248 50.216-66.622-14.938c-13.812-3.092-26.312-4.654-37.156-4.654-10.876 0-25.438 1.656-32.906 9.53-5.156 5.468-7.438 14.624-6.75 27.218l3.156 57.592-39.876-41.648z m60.562-151.87c1.812-9.938 5.782-18.376 10.906-25.532-8.032-3.624-16.75-8.032-25.312-13.344-39.968-24.718-54.216-53.31-57.28-78.154-1.094 0-2.218 0.032-3.376 0.032-65.124 0-112.092-26.906-132.624-74.78-29.466 13.25-83.84 33.342-147.496 36.436 29.124 56.688 38.906 113.81 42.188 145.936a123.536 123.536 0 0 1 14.312-0.876c63.558 0 101.372 50.686 118.434 81.342 10.844-4.562 22.468-6.844 34.75-6.844 25.562 0 52.936 9.938 81.404 29.532 1.466 1.032 2.904 2.032 4.31 3.062a62.996 62.996 0 0 1 11.688-17.438c13.656-14.438 33.782-22.094 59.812-22.812-10.934-20.188-14.84-39.094-11.716-56.56z" fill="#8CC153" /><path d="M512.282 105.666c-12.844 41.154-41.842 98.78-98.216 61.966 0 0 33.312 114.31-41.092 142.808 0 0 79.436 96.592 1.5 166.342 0 0 90.936 52.966 137.84 148.872 46.844-95.904 137.81-148.872 137.81-148.872-77.936-69.75 1.5-166.342 1.5-166.342-74.404-28.498-41.092-142.808-41.092-142.808-56.376 36.814-85.376-20.812-98.25-61.966z" fill="#A0D468" /><path d="M631.03 173.602c-4.844 16.624-13.654 66.28 3.532 96.03 5.688 9.876 13.782 16.688 24.688 20.876l27.686 10.624-18.842 22.874c-0.5 0.624-51.436 63.594-21.438 115.53 4.344 7.532 10.282 14.718 17.718 21.344l21.78 19.53-25.248 14.812c-0.876 0.5-86.124 51.188-129.436 139.808l-19.156 39.25-19.186-39.25a271.876 271.876 0 0 0-9.094-17.03c-45.062-78.06-119.592-122.342-120.31-122.78l-25.376-14.782 21.876-19.56c19.594-17.532 28.438-37.876 27.032-62.218-1.312-22.186-10.938-43.092-18.812-56.716-6.376-11.032-11.938-17.906-11.968-17.938l-18.812-22.874 27.688-10.624c22.156-8.468 33.5-28.75 34.718-61.938 1.032-28.466-6.438-54.748-6.5-54.966l-16.124-55.374 48.28 31.53c17.344 11.344 26.188 8.156 29.062 7.124 13.688-4.906 27.25-25.904 37.156-57.592l20.342-65.186 20.376 65.186c4.25 13.5 9.124 25.124 14.532 34.498 5.468 9.438 14.156 21.188 24.75 23.718 7.312 1.75 16.376-0.844 26.938-7.75l48.28-31.53-16.132 55.374zM469.22 197.07c-9.5 3.406-18.812 4.188-27.562 3.312 0.876 8.812 1.406 18.532 1.094 28.624-1.406 46.968-19.062 73.594-39.06 88.686 0.562 0.938 1.156 1.906 1.718 2.906 32.56 56.406 32.78 110.53 1.594 152.216 26.154 18.904 70.748 55.936 105.278 109.528 34.532-53.56 79.094-90.592 105.312-109.496a117.076 117.076 0 0 1-7.938-11.968c-31.782-55.062-6.812-113.124 11.218-143.216-9.376-7.124-17.156-16.03-23.282-26.686-12.782-22.124-17.876-50.812-15.124-85.248a139.42 139.42 0 0 1 0.468-5.282 63.61 63.61 0 0 1-20.938-1.406c-19.344-4.624-36.032-18.188-49.656-40.376-12.03 19.562-26.434 32.406-43.122 38.406z" fill="#8CC153" /><path d="M467.626 582.716c-53.812-31.092-122.624-12.624-153.684 41.156-31.062 53.81-12.624 122.622 41.186 153.684 53.812 31.062 122.592 12.624 153.684-41.188 31.064-53.81 12.626-122.588-41.186-153.652z" fill="#DA4453" /><path d="M352.222 719.964c-10.218-5.876-13.718-18.938-7.812-29.156 5.876-10.218 18.938-13.688 29.156-7.812 10.188 5.906 13.688 18.968 7.812 29.156-5.906 10.22-18.968 13.718-29.156 7.812z" fill="#434A54" /><path d="M556.376 582.716c53.812-31.092 122.622-12.624 153.684 41.156 31.062 53.81 12.624 122.622-41.188 153.684-53.808 31.062-122.622 12.624-153.684-41.188-31.062-53.81-12.626-122.588 41.188-153.652z" fill="#DA4453" /><path d="M629.686 719.964c10.218-5.876 13.718-18.938 7.812-29.156-5.876-10.218-18.936-13.688-29.154-7.812-10.188 5.906-13.688 18.968-7.812 29.156 5.906 10.22 18.968 13.718 29.154 7.812z" fill="#434A54" /><path d="M458.19 605.31c-53.81-31.062-72.248-99.874-41.188-153.684 31.062-53.812 99.874-72.248 153.686-41.188 53.812 31.094 72.248 99.874 41.188 153.684-31.064 53.814-99.876 72.25-153.686 41.188z" fill="#ED5564" /><path d="M522.968 506.5c-10.218-5.876-13.718-18.938-7.812-29.154 5.906-10.188 18.938-13.688 29.156-7.812 10.218 5.906 13.718 18.966 7.812 29.154-5.906 10.218-18.936 13.718-29.156 7.812z" fill="#434A54" /></svg>