<?xml version="1.0" standalone="no"?><!DOCTYPE svg PUBLIC "-//W3C//DTD SVG 1.1//EN" "http://www.w3.org/Graphics/SVG/1.1/DTD/svg11.dtd"><svg class="icon" width="128px" height="128.00px" viewBox="0 0 1024 1024" version="1.1" xmlns="http://www.w3.org/2000/svg"><path d="M222.02 341.242H563.4v128.012H222.02z" fill="#CCD1D9" /><path d="M563.4 426.582H222.02s-128.028 64.014-128.028 192.042c0 277.364 192.026 405.36 192.026 405.36h213.368s192.01-127.996 192.01-405.36c0-128.028-127.996-192.042-127.996-192.042z" fill="#E6E9ED" /><path d="M100.336 703.964c33.218 218.368 185.682 320.02 185.682 320.02h213.368s152.48-101.652 185.668-320.02H100.336z" fill="#FFCE54" /><path d="M584.744 703.964c0 106.058-86.014 192.024-192.042 192.024-106.06 0-192.026-85.964-192.026-192.024s85.966-192.042 192.026-192.042c106.028 0 192.042 85.984 192.042 192.042z" fill="#ED5564" /><path d="M382.016 693.496V645.84l-41.218-23.808-41.248 23.808v47.656l41.248 23.812zM485.826 693.496V645.84l-41.218-23.808-41.25 23.808v47.656l41.25 23.812zM433.92 783.43v-47.652l-41.216-23.814-41.25 23.814v47.652l41.25 23.812z" fill="#FFCE54" /><path d="M886.828 105.732c28.906-5.608 47.812-33.608 42.188-62.53C923.422 14.282 895.422-4.608 866.484 1L304.33 111.248l20.344 104.716 562.154-110.232z" fill="#F6BB42" /><path d="M450.452 262.008a21.33 21.33 0 0 0-30.186 0c-8.312 8.328-8.312 21.828 0 30.172a21.36 21.36 0 0 0 30.186 0c8.342-8.344 8.342-21.844 0-30.172zM386.454 262.008a21.33 21.33 0 0 0-30.186 0 21.296 21.296 0 0 0-6.25 15.094v64.138h42.686v-64.154c0-5.452-2.094-10.92-6.25-15.078z" fill="#FFCE54" /><path d="M563.4 362.584a21.23 21.23 0 0 0-15.092 6.25 21.28 21.28 0 0 0 0 30.17 21.228 21.228 0 0 0 15.092 6.25v-42.67z" fill="#AAB2BC" /><path d="M237.084 368.834a21.21 21.21 0 0 0-15.062-6.25v42.67c5.438 0 10.906-2.078 15.062-6.25 8.342-8.328 8.342-21.842 0-30.17z" fill="#AAB2BC" /><path d="M356.798 230.354l-28.468-146.622a21.24 21.24 0 0 0-9-13.61c-9.782-6.594-23.03-4.016-29.624 5.75a21.248 21.248 0 0 0-3.282 16l28.468 146.604c1.062 5.36 4.124 10.328 9 13.624 9.782 6.594 23.062 4.016 29.624-5.75a21.234 21.234 0 0 0 3.282-15.996zM419.608 218.152l-28.436-146.606c-1.062-5.36-4.124-10.328-9.032-13.624-9.75-6.592-23.03-4.014-29.624 5.75a21.366 21.366 0 0 0-3.25 16l28.468 146.622a21.23 21.23 0 0 0 9 13.608c9.782 6.594 23.03 4.016 29.624-5.75a21.09 21.09 0 0 0 3.25-16zM482.45 205.964l-28.436-146.622h-0.032a21.196 21.196 0 0 0-9-13.608c-9.75-6.592-23.03-4.032-29.624 5.734a21.366 21.366 0 0 0-3.25 16l28.468 146.622a21.262 21.262 0 0 0 9 13.624c9.75 6.592 23.03 4.016 29.624-5.75a21.366 21.366 0 0 0 3.25-16z" fill="#FFCE54" /></svg>