<?xml version="1.0" standalone="no"?><!DOCTYPE svg PUBLIC "-//W3C//DTD SVG 1.1//EN" "http://www.w3.org/Graphics/SVG/1.1/DTD/svg11.dtd"><svg class="icon" width="128px" height="128.00px" viewBox="0 0 1024 1024" version="1.1" xmlns="http://www.w3.org/2000/svg"><path d="M746.652 234.666H277.314L42.658 618.68h938.65z" fill="#37BC9B" /><path d="M372.594 783.554c-4.624-16.188-13.656-27.688-14.656-28.938a21.252 21.252 0 0 0-16.624-7.938 21.278 21.278 0 0 0-21.312 21.312c0 5.062 1.782 9.75 4.718 13.376 0.032 0.062 4.656 6.188 6.876 13.936 2.594 9.062 1 15.688-5.376 22.124-17.344 17.376-23.062 40-16.156 63.624 4.656 15.876 13.624 27.062 14.782 28.5h0.032l0.032 0.062a21.32 21.32 0 0 0 16.406 7.688c11.78 0 21.342-9.562 21.342-21.312 0-5.188-1.844-9.938-4.906-13.624-0.032-0.062-4.562-5.876-6.718-13.312-2.562-8.688-0.938-15.124 5.406-21.5 17.278-17.374 23.028-40.124 16.154-63.998zM548.968 797.366c-6.344-23.936-18.624-40.498-20-42.31l-0.032 0.062a21.212 21.212 0 0 0-16.938-8.438c-11.782 0-21.344 9.5-21.344 21.312 0 4.876 1.656 9.312 4.376 12.876l-0.032 0.062c0.094 0.062 8.562 11.686 12.718 27.374 5.376 20.124 1.532 37.25-11.718 52.25-22.782 25.75-30.032 57.376-20.968 91.438 6.344 23.874 18.594 40.436 19.968 42.248h0.032c3.906 5.124 10.032 8.438 16.968 8.438 11.782 0 21.312-9.562 21.312-21.376 0-4.812-1.594-9.25-4.282-12.812-0.094-0.124-8.968-12.186-13.062-28.624-4.906-19.688-1-36.376 12-51.062 22.784-25.814 30.066-57.438 21.002-91.438zM699.09 882.366c-0.062-0.062-4.558-5.876-6.714-13.312-2.562-8.688-0.938-15.124 5.402-21.5 17.282-17.376 23.032-40.124 16.156-63.998-4.656-16.188-13.656-27.688-14.656-28.938h-0.032a21.13 21.13 0 0 0-16.59-7.938c-11.782 0-21.344 9.5-21.344 21.312 0 5.062 1.782 9.75 4.75 13.376 0.032 0.062 4.656 6.188 6.876 13.936 2.594 9.062 1 15.688-5.406 22.124-17.312 17.376-23.032 40-16.124 63.624 4.656 15.876 13.594 27.062 14.782 28.5h0.032s0 0.062 0.032 0.062a21.32 21.32 0 0 0 16.406 7.688c11.782 0 21.34-9.562 21.34-21.312a21.272 21.272 0 0 0-4.91-13.624z" fill="#CCD1D9" /><path d="M277.314 21.324h469.338v255.998H277.314z" fill="#434A54" /><path d="M1023.996 682.68c0 11.75-9.562 21.312-21.344 21.312H21.314c-11.782 0-21.312-9.562-21.312-21.312v-85.376c0-11.75 9.53-21.312 21.312-21.312h981.338c11.782 0 21.344 9.562 21.344 21.312v85.376z" fill="#48CFAD" /><path d="M959.996 639.992c0 11.75-9.562 21.312-21.344 21.312s-21.344-9.562-21.344-21.312c0-11.812 9.562-21.312 21.344-21.312s21.344 9.5 21.344 21.312zM106.658 639.992c0 11.75-9.562 21.312-21.344 21.312s-21.312-9.562-21.312-21.312c0-11.812 9.532-21.312 21.312-21.312s21.344 9.5 21.344 21.312z" fill="#37BC9B" /><path d="M618.656 618.68c-11.782 0-21.344 9.5-21.344 21.312 0 11.75 9.562 21.312 21.344 21.312S640 651.742 640 639.992c0-11.812-9.562-21.312-21.344-21.312zM703.996 618.68c-11.778 0-21.34 9.5-21.34 21.312 0 11.75 9.562 21.312 21.34 21.312 11.782 0 21.312-9.562 21.312-21.312a21.278 21.278 0 0 0-21.312-21.312zM320 618.68c-11.782 0-21.344 9.5-21.344 21.312 0 11.75 9.562 21.312 21.344 21.312s21.312-9.562 21.312-21.312A21.276 21.276 0 0 0 320 618.68zM405.312 618.68A21.278 21.278 0 0 0 384 639.992c0 11.75 9.532 21.312 21.312 21.312s21.344-9.562 21.344-21.312c0-11.812-9.562-21.312-21.344-21.312zM533.312 618.68h-42.656c-11.782 0-21.344 9.5-21.344 21.312 0 11.75 9.562 21.312 21.344 21.312h42.656c11.782 0 21.344-9.562 21.344-21.312 0-11.812-9.562-21.312-21.344-21.312z" fill="#E6E9ED" /><path d="M767.996 234.666H256c-11.782 0-21.344 9.532-21.344 21.344 0 11.75 9.562 21.312 21.344 21.312h511.996c11.782 0 21.312-9.562 21.312-21.312 0-11.812-9.53-21.344-21.312-21.344z" fill="#656D78" /></svg>