<?xml version="1.0" standalone="no"?><!DOCTYPE svg PUBLIC "-//W3C//DTD SVG 1.1//EN" "http://www.w3.org/Graphics/SVG/1.1/DTD/svg11.dtd"><svg class="icon" width="128px" height="128.00px" viewBox="0 0 1024 1024" version="1.1" xmlns="http://www.w3.org/2000/svg"><path d="M128.232 619.658c-0.468-3.376-11.344-84.028 7.688-174.278 25.936-122.932 94.964-203.586 199.62-233.18 111.622-31.56 218.46-2.374 308.958 84.404 66.902 64.124 100.934 136.528 102.34 139.59l-38.688 17.966c-0.312-0.686-32.624-69.058-94.058-127.62-79.874-76.124-169.712-100.78-266.93-73.28-89.402 25.28-146.338 92.528-169.276 199.838-17.748 83.092-7.5 159.932-7.406 160.712l-42.248 5.848z" fill="#E8563F" /><path d="M149.358 659.376c-23.532 0-42.688-19.124-42.688-42.654s19.156-42.656 42.688-42.656c23.53 0 42.654 19.126 42.654 42.656s-19.126 42.654-42.654 42.654zM725.338 488.724c-23.53 0-42.686-19.126-42.686-42.654 0-23.532 19.156-42.688 42.686-42.688 23.532 0 42.656 19.156 42.656 42.688 0 23.53-19.124 42.654-42.656 42.654z" fill="#E8563F" /><path d="M149.358 552.722c-35.344 0-63.998 28.656-63.998 63.998 0 35.344 28.654 63.998 63.998 63.998 35.342 0 63.998-28.654 63.998-63.998 0-35.342-28.656-63.998-63.998-63.998z m0 85.342c-11.782 0-21.344-9.594-21.344-21.344s9.562-21.344 21.344-21.344c11.748 0 21.31 9.594 21.31 21.344s-9.562 21.344-21.31 21.344zM725.338 382.072c-35.342 0-63.998 28.654-63.998 63.998 0 35.342 28.656 63.996 63.998 63.996s64-28.654 64-63.996c0-35.344-28.658-63.998-64-63.998z m0 85.308c-11.78 0-21.344-9.562-21.344-21.31 0-11.782 9.564-21.344 21.344-21.344 11.75 0 21.312 9.562 21.312 21.344 0 11.748-9.562 21.31-21.312 21.31z" fill="#F5BA45" /><path d="M810.648 360.728C437.098 746.592 62.204 581.564 31.58 567.128a14.53 14.53 0 0 0-2-0.968l-0.032-0.032a21.484 21.484 0 0 0-8.188-1.626c-11.782 0-21.344 9.532-21.344 21.31 0 8.75 5.282 16.282 12.812 19.562 563.544 496.672 1002.968-7.654 1002.968-7.654L810.648 360.728z" fill="#FECD57" /><path d="M409.472 814.122a606.864 606.864 0 0 0 43.406 6.374c17.342-46.154 19.748-99.65 6.748-156.68-6.906-30.282-16.686-55.31-23.748-71.154a667.626 667.626 0 0 1-42.498 9.782c13.092 27.15 54.248 124.96 16.092 211.678zM259.604 614.376c13.282 26.406 43.936 99.558 11 157.87a704.784 704.784 0 0 0 40.124 15.5c18.748-36.654 22.438-80.842 10.5-129.464-4.218-17.188-9.782-32.53-15.032-44.874a656.74 656.74 0 0 1-46.592 0.968z" fill="#F5BA45" /><path d="M660.84 723.374c0 11.782-9.532 21.342-21.312 21.342-11.78 0-21.342-9.56-21.342-21.342s9.562-21.31 21.342-21.31a21.296 21.296 0 0 1 21.312 21.31zM660.84 595.376c0 11.782-9.532 21.344-21.312 21.344-11.78 0-21.342-9.562-21.342-21.344 0-11.78 9.562-21.312 21.342-21.312a21.3 21.3 0 0 1 21.312 21.312zM699.87 689.562c8.314 8.312 8.314 21.842 0 30.154a21.326 21.326 0 0 1-30.186 0c-8.312-8.312-8.312-21.842 0-30.154a21.33 21.33 0 0 1 30.186 0zM609.342 599.064c8.344 8.312 8.344 21.81 0 30.156-8.312 8.344-21.812 8.344-30.154 0-8.344-8.346-8.344-21.844 0-30.156 8.342-8.342 21.842-8.342 30.154 0zM703.528 638.064c11.782 0 21.342 9.53 21.342 21.31s-9.56 21.344-21.342 21.344-21.344-9.562-21.344-21.344 9.562-21.31 21.344-21.31zM575.53 638.064c11.782 0 21.344 9.53 21.344 21.31s-9.562 21.344-21.344 21.344-21.342-9.562-21.342-21.344 9.56-21.31 21.342-21.31zM669.684 599.034c8.344-8.31 21.844-8.31 30.186 0 8.314 8.344 8.314 21.842 0 30.188-8.342 8.344-21.842 8.312-30.186 0-8.312-8.346-8.312-21.846 0-30.188zM579.188 689.562c8.342-8.344 21.842-8.344 30.154 0 8.344 8.312 8.344 21.842 0 30.154-8.312 8.346-21.812 8.346-30.154 0-8.344-8.312-8.344-21.84 0-30.154z" fill="#D94452" /><path d="M842.552 477.162c0 11.782-9.562 21.344-21.344 21.344s-21.342-9.562-21.342-21.344 9.56-21.31 21.342-21.31 21.344 9.528 21.344 21.31zM887.488 531.378c0 11.782-9.56 21.344-21.342 21.344s-21.312-9.562-21.312-21.344 9.532-21.312 21.312-21.312 21.342 9.532 21.342 21.312zM930.144 585.598c0 11.78-9.532 21.342-21.312 21.342s-21.344-9.562-21.344-21.342c0-11.782 9.562-21.314 21.344-21.314s21.312 9.532 21.312 21.314z" fill="#E8563F" /><path d="M707.528 453.976l199.618 238.208a796.804 796.804 0 0 0 34.126-25.748L740.526 426.946a956.18 956.18 0 0 1-32.998 27.03z" fill="#F5BA45" /><path d="M639.528 595.376c-35.34 0-63.998 28.656-63.998 63.998 0 35.344 28.658 63.998 63.998 63.998 35.344 0 64-28.654 64-63.998 0-35.34-28.656-63.998-64-63.998z m0 85.342c-11.78 0-21.342-9.562-21.342-21.344 0-11.75 9.562-21.31 21.342-21.31 11.75 0 21.312 9.56 21.312 21.31 0 11.782-9.562 21.344-21.312 21.344z" fill="#EC5564" /><path d="M12.83 605.376c563.544 496.672 1002.968-7.654 1002.968-7.654l-19.44-22.5c-515.2 489.36-991.06 26.874-983.528 30.154z" opacity=".1" /><path d="M1002.674 632.97a21.3 21.3 0 0 1-16.062-7.282L780.056 390.384c-7.752-8.844-6.876-22.312 1.966-30.094s22.344-6.906 30.094 1.968l206.554 235.304c7.782 8.844 6.906 22.31-1.936 30.092a21.218 21.218 0 0 1-14.06 5.316z" fill="#F5BA45" /></svg>