<?xml version="1.0" standalone="no"?><!DOCTYPE svg PUBLIC "-//W3C//DTD SVG 1.1//EN" "http://www.w3.org/Graphics/SVG/1.1/DTD/svg11.dtd"><svg class="icon" width="128px" height="128.00px" viewBox="0 0 1024 1024" version="1.1" xmlns="http://www.w3.org/2000/svg"><path d="M494.396 141.842a21.4 21.4 0 0 0-18.39-11.532s-0.374-0.016-1.124-0.016c-5.406 0-25.296 0.594-53.874 8.078-37.044 9.704-72.918 26.67-106.652 50.418-45.81 32.25-86.23 76.294-120.136 130.886-41.42 66.702-73.308 149.62-94.776 246.478a21.364 21.364 0 0 0 4.328 18.154 21.284 21.284 0 0 0 16.954 7.782h1.828c6.124 0 37.762 0.406 59.638 8.656 2.454 0.906 5 1.376 7.5 1.376 6.984 0 13.718-3.438 17.766-9.532l285.8-429.124c4.294-6.454 4.7-14.734 1.138-21.624z" fill="#ED5564" /><path d="M588.534 1023.978a21.302 21.302 0 0 1-15.5-6.688L174.19 595.434a21.372 21.372 0 0 1-4.704-21.5c3.922-11.624 97.154-285.316 180.618-368.782 64.374-64.372 132.62-80.012 164.244-83.778l20.264-104.106c1.172-6 4.876-11.218 10.172-14.31a21.266 21.266 0 0 1 17.468-1.86c3.25 1.062 78.154 27.202 97.684 158.946 18.31 14.358 70.28 55.482 122.306 100.372 38.032 32.81 68.748 61.248 91.31 84.542 41.124 42.468 48.464 61.092 50.246 72.576 5.25 33.686-6.842 66.356-17.904 87.84-11 21.374-26.342 41.75-36.466 48.5-4.124 2.75-9 4.188-14.032 4.188-6.874 0-13.466-2.406-20.936-7.938-5.906 4.532-36.468 26.81-67.406 26.81-5.716 0-11.248-0.75-16.404-2.25-19.154-5.562-33.936-25.56-45.124-61.106a321.608 321.608 0 0 1-6.75-25.296c-0.876 0.016-1.782 0.016-2.718 0.016-20.812 0-49.434-1.89-78.432-9.718l-13.906 71.014c19.28 29.31 84.37 135.836 84.37 235.802 0 114.964-78.932 225.146-82.276 229.772a21.358 21.358 0 0 1-15.906 8.75c-0.438 0.03-0.906 0.06-1.374 0.06z" fill="#965353" /><path d="M650.154 255.9c0 11.782-9.53 21.328-21.31 21.328s-21.342-9.546-21.342-21.328 9.562-21.328 21.342-21.328 21.31 9.546 21.31 21.328z" fill="#434A54" /><path d="M504.848 451.564c-35.998-19.108 102.654 75.106 102.654 75.106l10.124-48.092s-76.78-7.908-112.778-27.014zM472.334 130.374c13.234 27.812 32.498 65.966 30.734 48.31-2.656-26.668 11.28-57.31 11.28-57.31-10.468 1.25-24.968 3.812-42.014 9z" opacity=".1" /></svg>