<?xml version="1.0" standalone="no"?><!DOCTYPE svg PUBLIC "-//W3C//DTD SVG 1.1//EN" "http://www.w3.org/Graphics/SVG/1.1/DTD/svg11.dtd"><svg class="icon" width="128px" height="128.00px" viewBox="0 0 1024 1024" version="1.1" xmlns="http://www.w3.org/2000/svg"><path d="M682.542 245.392c-4.654 3.718-63.918 53.968-62.418 106.688 0.438 38.504 27.834 63.214 62.418 63.95 34.584-0.734 61.982-25.446 62.42-63.95 1.496-52.718-57.736-102.968-62.42-106.688z" fill="#5E9CEA" /><path d="M149.422 906.564c-70.542 0-127.96-57.418-127.96-127.96 0-70.57 57.42-127.96 127.96-127.96h725.122c23.526 0 42.642-19.148 42.642-42.672 0-23.494-19.118-42.644-42.642-42.644H234.74c-117.588 0-213.278-95.69-213.278-213.292 0-117.606 95.69-213.28 213.278-213.28h255.922v85.318H234.74c-70.542 0-127.96 57.404-127.96 127.96 0 70.57 57.42 127.976 127.96 127.976h639.774c70.572 0 127.992 57.402 127.992 127.96 0 70.57-57.42 127.96-127.992 127.96H149.36c-23.494 0-42.644 19.148-42.644 42.672 0 23.526 19.15 42.676 42.644 42.676h810.472c23.524 0 42.674 19.12 42.674 42.614 0 23.554-19.15 42.672-42.674 42.672H149.422z" fill="#46CEAD" /><path d="M959.832 799.912H149.36a21.294 21.294 0 0 1-21.306-21.308c0-11.778 9.528-21.336 21.306-21.336h725.154c82.474 0 149.33-66.824 149.33-149.296 0-82.446-66.856-149.298-149.33-149.298H234.74c-58.888 0-106.624-47.736-106.624-106.638 0-58.888 47.736-106.64 106.624-106.64H512v-127.96H234.74C105.186 117.436 0.156 222.468 0.156 352.038c0 129.568 105.03 234.628 234.584 234.628h639.804c11.78 0 21.306 9.53 21.306 21.308 0 11.808-9.528 21.336-21.306 21.336H149.422c-82.444 0-149.266 66.824-149.266 149.296 0 82.446 66.824 149.3 149.266 149.3h810.41c35.332 0 64.012-28.648 64.012-64.012 0-35.304-28.68-63.982-64.012-63.982z m0 85.348H149.422c-58.794 0-106.624-47.86-106.624-106.656 0-58.792 47.83-106.652 106.624-106.652h725.122c35.272 0 63.98-28.68 63.98-63.98 0-35.272-28.708-63.98-63.98-63.98H234.74c-51.266 0-99.47-19.964-135.708-56.218-36.27-36.254-56.234-84.458-56.234-135.738 0-51.266 19.962-99.47 56.234-135.724 36.238-36.256 84.442-56.216 135.708-56.216h234.584v42.642H234.74c-39.862 0-77.352 15.542-105.562 43.736s-43.736 65.684-43.736 105.562c0 39.876 15.526 77.38 43.736 105.576s65.7 43.72 105.562 43.72h639.774c58.826 0 106.654 47.844 106.654 106.64 0 58.792-47.828 106.652-106.654 106.652H149.36c-35.27 0-63.98 28.68-63.98 63.98 0 35.272 28.71 63.98 63.98 63.98h810.472c11.778 0 21.336 9.56 21.336 21.308 0 11.778-9.558 21.368-21.336 21.368z" fill="#35BB9B" /><path d="M469.294 117.432v127.96l213.248-21.32V138.754z" fill="#CBD0D8" /><path d="M490.6 266.73c-11.778 0-21.336-9.56-21.336-21.338v-127.96c0-11.778 9.56-21.336 21.336-21.336 11.778 0 21.338 9.558 21.338 21.336v127.96c0 11.778-9.56 21.338-21.338 21.338z" fill="#E5E8EC" /></svg>