<?xml version="1.0" standalone="no"?><!DOCTYPE svg PUBLIC "-//W3C//DTD SVG 1.1//EN" "http://www.w3.org/Graphics/SVG/1.1/DTD/svg11.dtd"><svg class="icon" width="128px" height="128.00px" viewBox="0 0 1024 1024" version="1.1" xmlns="http://www.w3.org/2000/svg"><path d="M725.312 981.268c-11.75 0-21.31-9.562-21.31-21.344 0-64.498-32.06-88.06-33.436-88.998l0.312 0.156 23.624-35.53c2.124 1.438 52.186 35.748 52.186 124.372 0 11.782-9.564 21.344-21.376 21.344zM170.69 874.614H128.02c-11.782 0-21.328-9.532-21.328-21.31 0-11.782 9.546-21.344 21.328-21.344h42.67c11.782 0 21.328 9.562 21.328 21.344 0 11.778-9.548 21.31-21.328 21.31z" fill="#434A54" /><path d="M128.02 938.676c-11.782 0-21.328-9.562-21.328-21.376v-63.998c0-11.782 9.546-21.344 21.328-21.344 11.78 0 21.326 9.562 21.326 21.344v63.998c0 11.814-9.548 21.376-21.326 21.376z" fill="#434A54" /><path d="M639.942 341.334h-127.98c-11.782 0-21.344 9.56-21.344 21.342v170.652c0 11.794 9.562 21.358 21.344 21.358h127.98c11.812 0 21.344-9.562 21.344-21.358v-170.652a21.33 21.33 0 0 0-21.344-21.342z" fill="#CCD1D9" /><path d="M618.692 384.004c-11.812 0-21.376 9.546-21.376 21.328 0 11.78 9.562 21.342 21.376 21.342h42.594v-42.67h-42.594zM618.692 448.002c-11.812 0-21.376 9.546-21.376 21.328 0 11.78 9.562 21.342 21.376 21.342h42.594v-42.67h-42.594z" fill="#AAB2BC" /><path d="M682.69 511.938h-512c-11.782 0-21.344 9.546-21.344 21.344v320.052c0 11.78 9.562 21.342 21.344 21.342h512c11.75 0 21.312-9.562 21.312-21.342V533.282c0-11.798-9.562-21.344-21.312-21.344z" fill="#FFCE54" /><path d="M682.69 511.938h-42.686c11.782 0 21.312 9.546 21.312 21.344v320.052c0 11.78-9.532 21.342-21.312 21.342h42.686c11.75 0 21.312-9.562 21.312-21.342V533.282c0-11.798-9.562-21.344-21.312-21.344z" fill="#FFFFFF" opacity=".2" /><path d="M768 959.924c0 23.562-19.124 42.686-42.688 42.686-23.56 0-42.624-19.124-42.624-42.686 0-23.56 19.062-42.654 42.624-42.654 23.564 0 42.688 19.094 42.688 42.654z" fill="#AAB2BC" /><path d="M725.312 1023.922c-35.248 0-63.996-28.688-63.996-63.998 0-35.28 28.748-63.998 63.996-63.998 35.312 0 64 28.718 64 63.998 0 35.31-28.688 63.998-64 63.998z m0-85.308c-11.75 0-21.31 9.562-21.31 21.31 0 11.75 9.56 21.344 21.31 21.344 11.782 0 21.376-9.594 21.376-21.344 0-11.748-9.594-21.31-21.376-21.31z" fill="#656D78" /><path d="M362.684 1023.89c-11.782 0-21.344-9.532-21.344-21.344V703.994c0-11.782 9.562-21.312 21.344-21.312s21.328 9.532 21.328 21.312v298.552c0 11.814-9.548 21.344-21.328 21.344z" fill="#434A54" /><path d="M468.244 980.174a21.326 21.326 0 0 1-15.094-6.25l-211.12-211.12c-8.328-8.312-8.328-21.844 0-30.188 8.328-8.312 21.844-8.312 30.17 0l211.12 211.122c8.328 8.344 8.328 21.874 0 30.186a21.312 21.312 0 0 1-15.076 6.25z" fill="#434A54" /><path d="M511.96 874.614H213.39c-11.78 0-21.326-9.562-21.326-21.342 0-11.782 9.546-21.344 21.326-21.344H511.96c11.782 0 21.328 9.562 21.328 21.344 0.002 11.778-9.546 21.342-21.328 21.342z" fill="#434A54" /><path d="M257.124 980.174a21.326 21.326 0 0 1-15.094-6.25c-8.328-8.312-8.328-21.842 0-30.186l211.12-211.122c8.328-8.312 21.842-8.312 30.17 0 8.328 8.344 8.328 21.876 0 30.188L272.2 973.924a21.278 21.278 0 0 1-15.076 6.25z" fill="#434A54" /><path d="M320.06 853.334a42.67 42.654 0 1 0 85.34 0 42.67 42.654 0 1 0-85.34 0Z" fill="#AAB2BC" /><path d="M511.96 554.624c-11.782 0-21.344-9.562-21.344-21.342V21.342c0-11.782 9.562-21.326 21.344-21.326s21.328 9.544 21.328 21.326v511.94c0.002 11.778-9.546 21.342-21.328 21.342z" fill="#E6E9ED" /><path d="M900.622 128.512L515.07 43.186a21.472 21.472 0 0 0-9.25 0L123.378 128.528a21.326 21.326 0 0 0-16.688 20.81v42.672c0 11.782 9.546 21.326 21.328 21.326h767.976c11.782 0 21.312-9.544 21.312-21.326V149.338c0.002-10-6.934-18.654-16.684-20.826zM298.686 533.328h-85.342c-11.78 0-21.326-9.546-21.326-21.328s9.546-21.328 21.326-21.328h85.342c11.782 0 21.328 9.546 21.328 21.328s-9.548 21.328-21.328 21.328zM447.948 533.328h-85.326c-11.782 0-21.328-9.546-21.328-21.328s9.546-21.328 21.328-21.328h85.326c11.796 0 21.344 9.546 21.344 21.328s-9.548 21.328-21.344 21.328z" fill="#ED5564" /><path d="M725.312 554.624H128.02c-11.782 0-21.328-9.562-21.328-21.342 0-11.796 9.546-21.344 21.328-21.344h597.292c11.812 0 21.376 9.546 21.376 21.344 0 11.778-9.564 21.342-21.376 21.342z" fill="#F6BB42" /><path d="M362.684 1023.984c-94.106 0-170.666-76.558-170.666-170.682 0-94.06 76.56-170.622 170.666-170.622 94.092 0 170.652 76.56 170.652 170.622 0 94.124-76.56 170.682-170.652 170.682z m0-298.68c-70.576 0-127.996 57.438-127.996 127.998 0 70.592 57.42 127.996 127.996 127.996s127.996-57.404 127.996-127.996c0-70.56-57.42-127.998-127.996-127.998z" fill="#656D78" /></svg>