<?xml version="1.0" standalone="no"?><!DOCTYPE svg PUBLIC "-//W3C//DTD SVG 1.1//EN" "http://www.w3.org/Graphics/SVG/1.1/DTD/svg11.dtd"><svg class="icon" width="128px" height="128.00px" viewBox="0 0 1024 1024" version="1.1" xmlns="http://www.w3.org/2000/svg"><path d="M512.002 58.632l113.34 113.34-113.34 113.34-113.34-113.34zM512.004 285.314l113.34 113.34-113.338 113.338-113.34-113.34z" fill="#E6E9ED" /><path d="M398.66 625.312L285.334 512l113.326-113.34L512 512zM171.992 625.312L58.668 512l113.324-113.34L285.334 512z" fill="#ED5564" /><path d="M398.66 398.66l-113.326-113.34 113.326-113.342L512 285.32zM398.66 851.992l-113.326-113.34 113.326-113.34 113.34 113.34z" fill="#ED5564" /><path d="M512 738.652l-113.34-113.34L512 512l113.34 113.312zM285.334 512l-113.342-113.34 113.342-113.34 113.326 113.34zM285.334 738.652l-113.342-113.34L285.334 512l113.326 113.312zM512.02 738.65l113.34 113.34-113.34 113.34-113.34-113.342z" fill="#E6E9ED" /><path d="M625.34 398.66L738.682 512l-113.342 113.312L512 512zM851.992 398.66l113.34 113.34-113.34 113.312L738.682 512zM625.348 852.002l-113.34-113.34 113.34-113.34 113.34 113.34z" fill="#ED5564" /><path d="M625.34 398.664L512 285.324l113.34-113.34 113.34 113.34z" fill="#ED5564" /><path d="M738.682 512l113.31 113.312-113.31 113.34-113.342-113.34zM738.682 285.32l113.31 113.34L738.682 512l-113.342-113.34z" fill="#E6E9ED" /><path d="M341.332 917.304c-11.766 0-21.326-9.562-21.326-21.344V127.98c0-11.782 9.56-21.344 21.326-21.344h341.352c11.75 0 21.312 9.562 21.312 21.344v767.98c0 11.782-9.562 21.344-21.312 21.344H341.332z" fill="#F4BE8E" /><path d="M682.684 85.292H341.332c-23.56 0-42.67 19.124-42.67 42.688v767.98c0 23.594 19.11 42.688 42.67 42.688h341.352c23.562 0 42.656-19.094 42.656-42.688V127.98c0-23.564-19.094-42.688-42.656-42.688z m0 810.668H341.332V127.98h341.352v767.98z" fill="#EAAD7A" /><path d="M512 1002.644c-47.044 0-85.326-38.278-85.326-85.34V106.666c0-47.062 38.282-85.342 85.326-85.342 47.062 0 85.342 38.28 85.342 85.342v810.638c0 47.064-38.28 85.34-85.342 85.34z" fill="#FC6E51" /><path d="M512 0.012c-58.904 0-106.67 47.75-106.67 106.654v810.638c0 58.902 47.766 106.684 106.67 106.684s106.684-47.782 106.684-106.684V106.666c0-58.904-47.78-106.654-106.684-106.654z m63.998 917.292c0 35.282-28.686 63.996-63.998 63.996-35.294 0-63.998-28.714-63.998-63.996V106.666c0-35.282 28.704-63.998 63.998-63.998 35.312 0 63.998 28.716 63.998 63.998v810.638z" fill="#E9573F" /><path d="M552.438 865.118l-34.282-68.496c-7.484-15-7.484-42.282 0-57.25l25.828-51.688c13.578-27.188 13.578-68.214 0-95.402l-25.844-51.688c-7.484-14.968-7.484-42.25 0-57.218l25.844-51.686c13.578-27.188 13.578-68.216 0-95.404l-25.812-51.654c-7.484-15-7.484-42.282 0-57.28l34.266-68.5h-0.032a21.22 21.22 0 0 0 2.282-9.532c0-11.78-9.562-21.342-21.36-21.342-8.344 0-15.562 4.812-19.062 11.812h-0.016l-34.232 68.5c-13.594 27.186-13.594 68.186-0.016 95.404l25.826 51.656c7.484 15 7.484 42.28-0.016 57.248l-25.826 51.686c-13.61 27.186-13.61 68.216 0 95.404l25.826 51.688c7.5 14.968 7.5 42.246 0 57.246l-25.826 51.656c-13.594 27.218-13.594 68.218 0.016 95.402l34.248 68.532 0.016-0.032c3.5 7 10.718 11.812 19.062 11.812 11.796 0 21.36-9.562 21.36-21.344a21.22 21.22 0 0 0-2.282-9.532h0.032z" fill="#FFCE54" /><path d="M725.34 751.996l13.342-13.344 29.31-29.344V314.662l-29.31-29.342-13.342-13.344zM256.006 709.308l29.328 29.344 13.328 13.344v-480.02l-13.328 13.344-29.328 29.342z" opacity=".1" /></svg>