<?xml version="1.0" standalone="no"?><!DOCTYPE svg PUBLIC "-//W3C//DTD SVG 1.1//EN" "http://www.w3.org/Graphics/SVG/1.1/DTD/svg11.dtd"><svg class="icon" width="128px" height="128.00px" viewBox="0 0 1024 1024" version="1.1" xmlns="http://www.w3.org/2000/svg"><path d="M477.912 811.338h279.12c127.28-73.75 230.682-245.714 51.186-436.68-145.996-155.402-91.808-332.336-91.808-332.336-222.498 63.56-321.59 200.62-321.59 393.586-22.188-15.218-53.42-40.842-70.078-61.656-93.138 214.528 16.766 369.336 153.17 437.086z" fill="#F6BB42" /><path d="M660.658 834.836h-137.684c-62.782-36.374-113.796-121.216-25.25-215.4 72.03-76.688 45.298-163.998 45.298-163.998 109.762 31.376 158.636 98.998 158.636 194.184 10.938-7.5 26.376-20.124 34.592-30.404 45.936 105.838-8.28 182.214-75.592 215.618z" fill="#FFCE54" /><path d="M151.09 692.152c-1.422 0-2.86-0.156-4.312-0.438-4.468-0.906-109.748-23.688-145.638-130.092-3.764-11.156 2.234-23.25 13.406-27 11.156-3.782 23.266 2.218 27.032 13.376 28.14 83.436 112.934 101.748 113.778 101.936 11.546 2.376 18.984 13.624 16.61 25.188-2.08 10.062-10.954 17.03-20.876 17.03z" fill="#8CC153" /><path d="M1021.9 623.842c-575.816 300.71-680.424-2.5-799.53-23.906-128.202-23.094-174.512 133.184-104.248 192.372 518.568 436.926 939.184 4.374 903.778-168.466z" fill="#ED5564" /><path d="M118.122 749.65c-16.844-14.188-26.968-33.968-30.89-55.468-6.344 36.5 3.234 74.844 30.89 98.124 517.318 435.866 937.154 6.438 904.028-167.216-30.062 190.248-425.304 527.896-904.028 124.56z" opacity=".1" /><path d="M79.514 633.934c-19.546 19.562 6.704 67.31 6.704 67.31l54.388-88.434s-41.53 1.564-61.092 21.124z" fill="#A0D468" /></svg>