<?xml version="1.0" standalone="no"?><!DOCTYPE svg PUBLIC "-//W3C//DTD SVG 1.1//EN" "http://www.w3.org/Graphics/SVG/1.1/DTD/svg11.dtd"><svg class="icon" width="128px" height="128.00px" viewBox="0 0 1024 1024" version="1.1" xmlns="http://www.w3.org/2000/svg"><path d="M597.506 512c0-58.67 234.488-258.88 234.488-490.652 0-7.14-0.062-14.25-0.188-21.328h-639.6a1217.6 1217.6 0 0 0-0.188 21.328C192.02 253.12 426.526 453.33 426.526 512c0 58.686-234.506 258.866-234.506 490.668 0 7.124 0.062 14.25 0.188 21.312h639.6c0.124-7.062 0.188-14.188 0.188-21.312C831.994 770.866 597.506 570.686 597.506 512z" fill="#E6E9ED" /><path d="M831.994 21.348c0-7.14-0.062-14.25-0.188-21.328h-21.31a1217.6 1217.6 0 0 1 0.188 21.328c0 231.772-234.552 431.982-234.552 490.652 0 58.686 234.552 258.866 234.552 490.668 0 7.124-0.062 14.25-0.188 21.312h21.31c0.124-7.062 0.188-14.188 0.188-21.312 0-231.802-234.488-431.982-234.488-490.668 0-58.67 234.488-258.88 234.488-490.652zM192.02 21.348c0-7.14 0.062-14.25 0.188-21.328h21.328a1217.6 1217.6 0 0 0-0.188 21.328c0 231.772 234.506 431.982 234.506 490.652 0 58.686-234.506 258.866-234.506 490.668 0 7.124 0.062 14.25 0.188 21.312H192.208a1215.77 1215.77 0 0 1-0.188-21.312c0-231.802 234.506-431.982 234.506-490.668 0-58.67-234.506-258.88-234.506-490.652z" fill="#FFFFFF" opacity=".3" /><path d="M874.68 106.688c0 11.782-9.562 21.328-21.376 21.328H170.692c-11.78 0-21.342-9.546-21.342-21.328v-85.34C149.35 9.566 158.912 0.02 170.692 0.02h682.612c11.812 0 21.376 9.546 21.376 21.328v85.34z" fill="#A85D5D" /><path d="M895.992 0.02H128.022c-11.78 0-21.328 9.546-21.328 21.328 0 11.78 9.546 21.342 21.328 21.342h767.97c11.782 0 21.312-9.562 21.312-21.342 0-11.782-9.53-21.328-21.312-21.328z" fill="#434A54" /><path d="M336.218 213.338c30.312 54.498 67.372 104.606 97.666 145.542 22.61 30.53 40.452 54.654 53.578 76.996a245.612 245.612 0 0 1 3.578 6.296v368.5c0 11.75 9.546 21.312 21.328 21.312 11.78 0 21.342-9.562 21.342-21.312V440.846c0.922-1.64 1.86-3.296 2.844-4.968 13.14-22.342 30.984-46.466 53.578-76.996 30.31-40.936 67.372-91.044 97.652-145.542H336.218z" fill="#FFCE54" /><path d="M735.248 898.234l-213.336-106.652a21.14 21.14 0 0 0-19.076 0L289.5 898.234a21.38 21.38 0 0 0-11.218 23.998 21.36 21.36 0 0 0 20.764 16.438h426.64c9.904 0 18.498-6.812 20.748-16.438 2.314-9.622-2.342-19.56-11.186-23.998z" fill="#FFCE54" /><path d="M874.68 1002.668c0 11.75-9.562 21.312-21.376 21.312H170.692c-11.78 0-21.342-9.562-21.342-21.312v-85.374c0-11.748 9.562-21.31 21.342-21.31h682.612c11.812 0 21.376 9.562 21.376 21.31v85.374z" fill="#A85D5D" /><path d="M917.304 1002.668c0-11.56-9.124-20.936-20.562-21.31v-0.062H128.022c-11.78 0-21.328 9.562-21.328 21.374 0 11.75 9.546 21.312 21.328 21.312h768.72v-0.032c11.438-0.408 20.562-9.782 20.562-21.282z" fill="#434A54" /></svg>