<?xml version="1.0" standalone="no"?><!DOCTYPE svg PUBLIC "-//W3C//DTD SVG 1.1//EN" "http://www.w3.org/Graphics/SVG/1.1/DTD/svg11.dtd"><svg class="icon" width="128px" height="128.00px" viewBox="0 0 1024 1024" version="1.1" xmlns="http://www.w3.org/2000/svg"><path d="M512.734 469.306c-11.782 0-21.344-9.562-21.344-21.342V21.352c0-11.782 9.562-21.344 21.344-21.344 11.78 0 21.342 9.562 21.342 21.344v426.612c0 11.78-9.562 21.342-21.342 21.342z" fill="#434A54" /><path d="M512.734 426.62L277.368 680.876v343.116l469.262-0.124V685.876z" fill="#FB6D51" /><path d="M448.734 767.936h127.996v213.37h-127.996z" fill="#434A54" /><path d="M305.678 278.188c45.092 0 84.186 25.592 103.528 63.028 19.376-37.436 58.466-63.028 103.53-63.028 45.06 0 84.152 25.592 103.528 63.028 19.376-37.436 58.436-63.028 103.526-63.028 37.156 0 70.25 17.374 91.562 44.498v-2.718c0-164.902-133.684-298.616-298.616-298.616-164.934 0-298.618 133.714-298.618 298.616v2.718c21.312-27.124 54.406-44.498 91.56-44.498z" fill="#ED5564" /><path d="M213.368 746.562c-5.468 0-10.938-2.062-15.092-6.25-8.312-8.312-8.312-21.81 0.032-30.124l299.366-298.664c8.344-8.312 21.842-8.312 30.154 0.032 8.344 8.344 8.312 21.844-0.032 30.188L228.43 740.376a21.294 21.294 0 0 1-15.062 6.186z" fill="#646C77" /><path d="M810.63 746.562c-5.468 0-10.938-2.062-15.094-6.25L497.64 441.714c-8.312-8.344-8.312-21.876 0.032-30.188s21.842-8.312 30.154 0.032l297.898 298.632c8.312 8.312 8.312 21.874-0.032 30.186a21.34 21.34 0 0 1-15.062 6.186z" fill="#646C77" /><path d="M767.974 1023.992H256.024c-11.782 0-21.312-9.562-21.312-21.312 0-11.812 9.532-21.376 21.312-21.376h511.952c11.782 0 21.312 9.562 21.312 21.376 0 11.75-9.532 21.312-21.314 21.312z" fill="#E8563F" /></svg>