<?xml version="1.0" standalone="no"?><!DOCTYPE svg PUBLIC "-//W3C//DTD SVG 1.1//EN" "http://www.w3.org/Graphics/SVG/1.1/DTD/svg11.dtd"><svg class="icon" width="128px" height="128.00px" viewBox="0 0 1024 1024" version="1.1" xmlns="http://www.w3.org/2000/svg"><path d="M64.012 21.358C28.638 21.358 0.014 50.012 0.014 85.356v533.296c0 23.562 19.094 42.688 42.656 42.688h85.342V21.358h-64z" fill="#4A89DC" /><path d="M959.986 149.354H0.014v533.296c0 35.344 28.624 64 63.998 64h959.974V213.352l-64-63.998z" fill="#5D9CEC" /><path d="M981.298 831.99c23.562 0 42.688-19.094 42.688-42.656V213.352s-19.124 21.312-42.688 21.312h-85.31v597.326h85.31z" fill="#83BEFF" /><path d="M959.986 149.354h-63.998v127.996h63.998c35.344 0 64-28.654 64-63.998s-28.656-63.998-64-63.998z" fill="#5D9CEC" /><path d="M618.652 384.034v-170.682H149.26v469.298h639.98V384.002l-170.588 0.032z m127.936 255.962h-42.592c0-11.782-9.562-21.344-21.344-21.344h-85.342c-11.782 0-21.312 9.562-21.312 21.344H362.66v-149.34c0-11.782-9.562-21.312-21.342-21.312a21.3 21.3 0 0 0-21.312 21.312v149.34H191.914v-106.654c11.782 0 21.344-9.562 21.344-21.342v-127.998c0-11.78-9.562-21.342-21.344-21.342v-106.652h128.09v149.338c0 11.782 9.532 21.344 21.312 21.344H512c11.782 0 21.312-9.562 21.312-21.344S523.78 384.034 512 384.034h-149.34v-128.026h213.338v170.682l170.59-0.032v213.338z" fill="#F5F7FA" /><path d="M661.34 917.332c-0.532 0-1.062-0.032-1.594-0.062L83.762 874.582c-11.75-0.844-20.562-11.094-19.718-22.844 0.876-11.748 11.094-20.56 22.876-19.686l575.984 42.654c11.75 0.876 20.562 11.094 19.688 22.844-0.846 11.22-10.19 19.782-21.252 19.782z" fill="#E6E9ED" /><path d="M85.292 1002.642c-11.062 0-20.406-8.532-21.25-19.75-0.844-11.75 7.968-21.968 19.718-22.844l576.016-42.654c11.718-0.876 21.968 7.938 22.844 19.686 0.876 11.75-7.938 21.968-19.718 22.844L86.918 1002.58c-0.562 0.062-1.094 0.062-1.626 0.062z" fill="#E6E9ED" /><path d="M810.646 938.642h-106.65c-11.812 0-21.344-9.53-21.344-21.31s9.532-21.344 21.344-21.344h106.65c11.782 0 21.344 9.562 21.344 21.344s-9.562 21.31-21.344 21.31z" fill="#656D78" /><path d="M703.996 917.332c0 47.124-38.218 85.31-85.344 85.31-47.124 0-85.34-38.188-85.34-85.31 0-47.124 38.216-85.342 85.34-85.342 47.126 0 85.344 38.218 85.344 85.342z" fill="#434A54" /><path d="M648.808 887.144c16.688 16.656 16.688 43.688 0 60.342-16.656 16.656-43.656 16.656-60.342 0-16.656-16.654-16.656-43.686 0-60.342 16.686-16.656 43.686-16.656 60.342 0z" fill="#656D78" /><path d="M0.014 85.356v63.998h63.998C28.638 149.354 0.014 120.698 0.014 85.356z" fill="#5D9CEC" /></svg>