<?xml version="1.0" standalone="no"?><!DOCTYPE svg PUBLIC "-//W3C//DTD SVG 1.1//EN" "http://www.w3.org/Graphics/SVG/1.1/DTD/svg11.dtd"><svg class="icon" width="128px" height="128.00px" viewBox="0 0 1024 1024" version="1.1" xmlns="http://www.w3.org/2000/svg"><path d="M917.291208 1023.982c-11.749977 0-21.311958-9.561981-21.311958-21.311958v-127.99575c0-11.811977 9.561981-21.373958 21.311958-21.373959 11.811977 0 21.375958 9.559981 21.375959 21.373959v127.99575c0 11.749977-9.561981 21.311958-21.375959 21.311958zM106.676792 1023.982c-11.779977 0-21.341958-9.561981-21.341959-21.311958v-127.99575c0-11.811977 9.561981-21.373958 21.341959-21.373959 11.781977 0 21.327958 9.559981 21.327958 21.373959v127.99575c0 11.749977-9.545981 21.311958-21.327958 21.311958z" fill="#965353" /><path d="M983.16308 738.584557c-18.121965-68.183867-38.433925-98.589807-65.871872-98.589807-27.405946 0-47.749907 30.405941-65.843871 98.589807-12.027977 45.217912-19.463962 94.779815-19.463962 114.715776 0 47.059908 38.277925 85.373833 85.307833 85.373834 47.061908 0 85.371833-38.311925 85.371834-85.373834 0-19.935961-7.467985-69.497864-19.499962-114.715776zM106.676792 639.99475c-27.435946 0-47.747907 30.405941-65.873872 98.589807-12.013977 45.217912-19.467962 94.779815-19.467962 114.715776 0 47.059908 38.279925 85.373833 85.339834 85.373834C153.7207 938.674167 192.000625 900.362241 192.000625 853.300333c0-19.937961-7.437985-69.497864-19.453962-114.715776-18.121965-68.183867-38.431925-98.589807-65.869871-98.589807z" fill="#A0D468" /><path d="M767.9835 0.016H256.0005c-11.781977 0-21.327958 9.543981-21.327958 21.325958v981.328084c0 11.749977 9.545981 21.311958 21.327958 21.311958h511.983c11.781977 0 21.311958-9.561981 21.311958-21.311958V21.341958c0-11.781977-9.529981-21.325958-21.311958-21.325958z" fill="#4FC2E9" /><path d="M511.992 1023.982c-11.779977 0-21.327958-9.561981-21.327958-21.311958v-42.685917c0-11.779977 9.545981-21.309958 21.327958-21.309958s21.327958 9.531981 21.327958 21.309958v42.685917c0 11.749977-9.545981 21.311958-21.327958 21.311958z" fill="#434A54" /><path d="M703.987625 895.98625H319.998375c-11.781977 0-21.327958-9.561981-21.327958-21.311958 0-11.811977 9.545981-21.373958 21.327958-21.373959h383.98925c11.777977 0 21.307958 9.559981 21.307958 21.373959 0 11.749977-9.529981 21.311958-21.307958 21.311958zM703.987625 810.678417H319.998375c-11.781977 0-21.327958-9.561981-21.327958-21.375959 0-11.749977 9.545981-21.311958 21.327958-21.311958h383.98925c11.777977 0 21.307958 9.561981 21.307958 21.311958 0 11.813977-9.529981 21.375958-21.307958 21.375959zM703.987625 725.302583H319.998375c-11.781977 0-21.327958-9.529981-21.327958-21.309958s9.545981-21.311958 21.327958-21.311958h383.98925c11.777977 0 21.307958 9.531981 21.307958 21.311958s-9.529981 21.309958-21.307958 21.309958zM703.987625 639.99475H319.998375c-11.781977 0-21.327958-9.561981-21.327958-21.311958 0-11.811977 9.545981-21.375958 21.327958-21.375959h383.98925c11.777977 0 21.307958 9.561981 21.307958 21.375959 0 11.749977-9.529981 21.311958-21.307958 21.311958zM703.987625 554.684917H319.998375c-11.781977 0-21.327958-9.561981-21.327958-21.357959 0-11.781977 9.545981-21.327958 21.327958-21.327958h383.98925c11.777977 0 21.307958 9.545981 21.307958 21.327958 0 11.795977-9.529981 21.357958-21.307958 21.357959zM703.987625 469.329083H319.998375c-11.781977 0-21.327958-9.545981-21.327958-21.327958s9.545981-21.327958 21.327958-21.327958h383.98925c11.777977 0 21.307958 9.545981 21.307958 21.327958s-9.529981 21.327958-21.307958 21.327958zM703.987625 384.00325H319.998375c-11.781977 0-21.327958-9.545981-21.327958-21.327958s9.545981-21.341958 21.327958-21.341959h383.98925c11.777977 0 21.307958 9.559981 21.307958 21.341959s-9.529981 21.327958-21.307958 21.327958zM703.987625 298.677417H319.998375c-11.781977 0-21.327958-9.561981-21.327958-21.343959 0-11.779977 9.545981-21.325958 21.327958-21.325958h383.98925c11.777977 0 21.307958 9.545981 21.307958 21.325958 0 11.781977-9.529981 21.343958-21.307958 21.343959zM703.987625 213.335583H319.998375c-11.781977 0-21.327958-9.543981-21.327958-21.325958s9.545981-21.327958 21.327958-21.327958h383.98925c11.777977 0 21.307958 9.545981 21.307958 21.327958s-9.529981 21.325958-21.307958 21.325958zM703.987625 128.01175H319.998375c-11.781977 0-21.327958-9.545981-21.327958-21.327958s9.545981-21.343958 21.327958-21.343959h383.98925c11.777977 0 21.307958 9.561981 21.307958 21.343959s-9.529981 21.327958-21.307958 21.327958z" fill="#E6E9ED" /><path d="M789.295458 42.685917H234.672542c-11.781977 0-21.343958-9.561981-21.343959-21.343959S222.890565 0.016 234.672542 0.016h554.622916c11.811977 0 21.375958 9.543981 21.375959 21.325958s-9.561981 21.343958-21.375959 21.343959z" fill="#3BAFDA" /><path d="M810.671417 1023.982H213.330583c-11.779977 0-21.327958-9.561981-21.327958-21.311958 0-11.811977 9.545981-21.373958 21.327958-21.373959h597.340834c11.749977 0 21.311958 9.559981 21.311958 21.373959 0 11.749977-9.561981 21.311958-21.311958 21.311958z" fill="#656D78" /></svg>