<?xml version="1.0" standalone="no"?><!DOCTYPE svg PUBLIC "-//W3C//DTD SVG 1.1//EN" "http://www.w3.org/Graphics/SVG/1.1/DTD/svg11.dtd"><svg class="icon" width="128px" height="128.00px" viewBox="0 0 1024 1024" version="1.1" xmlns="http://www.w3.org/2000/svg"><path d="M853.292 554.686h-42.622c-11.812 0-21.376-9.562-21.376-21.358 0-11.782 9.562-21.328 21.376-21.328h42.622c11.812 0 21.376 9.546 21.376 21.328 0 11.796-9.562 21.358-21.376 21.358zM213.33 554.686H170.674c-11.78 0-21.342-9.562-21.342-21.358 0-11.782 9.562-21.328 21.342-21.328h42.656c11.782 0 21.344 9.546 21.344 21.328-0.002 11.796-9.564 21.358-21.344 21.358z" fill="#AAB2BC" /><path d="M810.672 448.002h-64c-11.812 0-21.376 9.546-21.376 21.328v127.978a21.366 21.366 0 0 0 21.376 21.376h64c11.75 0 21.312-9.562 21.312-21.376v-127.978c0-11.782-9.562-21.328-21.312-21.328zM277.328 448.002h-63.998c-11.78 0-21.342 9.546-21.342 21.328v127.978c0 11.812 9.562 21.376 21.342 21.376h63.998c11.782 0 21.344-9.562 21.344-21.376v-127.978c-0.002-11.782-9.564-21.328-21.344-21.328z" fill="#656D78" /><path d="M746.672 384.004h-63.996c-11.812 0-21.376 9.546-21.376 21.328v255.976a21.364 21.364 0 0 0 21.376 21.374h63.996c11.75 0 21.312-9.56 21.312-21.374V405.332c0-11.782-9.562-21.328-21.312-21.328zM341.326 384.004h-63.998c-11.78 0-21.342 9.546-21.342 21.328v255.976c0 11.812 9.562 21.374 21.342 21.374h63.998c11.782 0 21.344-9.56 21.344-21.374V405.332c-0.002-11.782-9.564-21.328-21.344-21.328z" fill="#434A54" /><path d="M511.976 85.34c-11.75 0-21.312-9.546-21.312-21.326V21.342c0-11.782 9.562-21.326 21.312-21.326 11.812 0 21.344 9.544 21.344 21.326v42.672c0 11.778-9.53 21.326-21.344 21.326z" fill="#434A54" /><path d="M682.676 938.676H341.326c-11.78 0-21.342-9.562-21.342-21.376V256.008c0-105.874 86.154-191.994 191.994-191.994 105.886 0 192.012 86.122 192.012 191.994V917.3c-0.002 11.814-9.564 21.376-21.314 21.376z" fill="#ED5564" /><path d="M554.68 85.34h-85.358c-11.782 0-21.344-9.546-21.344-21.326 0-11.782 9.562-21.328 21.344-21.328h85.358c11.75 0 21.308 9.546 21.308 21.328 0 11.778-9.558 21.326-21.308 21.326z" fill="#656D78" /><path d="M426.666 874.676c-11.782 0-21.344-9.562-21.344-21.374V628.746c0-11.812 9.562-21.344 21.344-21.344 11.78 0 21.312 9.532 21.312 21.344v224.556c0 11.812-9.53 21.374-21.312 21.374zM597.3 874.676c-11.75 0-21.312-9.562-21.312-21.374V628.746c0-11.812 9.562-21.344 21.312-21.344 11.812 0 21.376 9.532 21.376 21.344v224.556a21.364 21.364 0 0 1-21.376 21.374zM511.976 874.676c-11.75 0-21.312-9.562-21.312-21.374v-191.994c0-11.75 9.562-21.312 21.312-21.312 11.812 0 21.344 9.562 21.344 21.312v191.994c0 11.812-9.53 21.374-21.344 21.374zM426.666 277.334c-11.782 0-21.344-9.544-21.344-21.326v-42.672c0-11.78 9.562-21.326 21.344-21.326 11.78 0 21.312 9.546 21.312 21.326v42.672c0 11.782-9.53 21.326-21.312 21.326zM511.976 277.334c-11.75 0-21.312-9.544-21.312-21.326V192.01c0-11.782 9.562-21.328 21.312-21.328 11.812 0 21.344 9.546 21.344 21.328v63.998c0 11.782-9.53 21.326-21.344 21.326zM597.3 277.334c-11.75 0-21.312-9.544-21.312-21.326v-42.672c0-11.78 9.562-21.326 21.312-21.326 11.812 0 21.376 9.546 21.376 21.326v42.672c0 11.782-9.562 21.326-21.376 21.326zM511.976 426.674c-11.75 0-21.312-9.562-21.312-21.342v-21.328c0-11.782 9.562-21.328 21.312-21.328 11.812 0 21.344 9.546 21.344 21.328v21.328c0 11.78-9.53 21.342-21.344 21.342zM597.3 459.268c-11.75 0-21.312-9.546-21.312-21.328v-53.936c0-11.782 9.562-21.328 21.312-21.328 11.812 0 21.376 9.546 21.376 21.328v53.936c0 11.78-9.562 21.328-21.376 21.328zM426.666 459.268c-11.782 0-21.344-9.546-21.344-21.328v-53.936c0-11.782 9.562-21.328 21.344-21.328 11.78 0 21.312 9.546 21.312 21.328v53.936c0 11.78-9.53 21.328-21.312 21.328z" fill="#DA4453" /><path d="M511.976 384.004c-82.31 0-149.308 66.982-149.308 149.324 0 82.356 66.998 149.354 149.308 149.354 82.324 0 149.324-66.998 149.324-149.354 0-82.342-67-149.324-149.324-149.324z" fill="#434A54" /><path d="M511.976 448.002c-47.03 0-85.31 38.28-85.31 85.326 0 47.044 38.28 85.356 85.31 85.356 47.078 0 85.324-38.31 85.324-85.356 0-47.046-38.246-85.326-85.324-85.326z" fill="#656D78" /><path d="M533.32 533.328c0 11.794-9.532 21.358-21.344 21.358-11.75 0-21.312-9.562-21.312-21.358 0-11.782 9.562-21.328 21.312-21.328a21.318 21.318 0 0 1 21.344 21.328z" fill="#AAB2BC" /><path d="M725.296 234.68H298.67c-11.782 0-21.344 9.546-21.344 21.328v63.998c0 11.782 9.562 21.328 21.344 21.328h426.626c11.812 0 21.376-9.546 21.376-21.328v-63.998c0-11.782-9.562-21.328-21.376-21.328z" fill="#DA4453" /><path d="M746.672 1023.984H277.328c-11.78 0-21.342-9.562-21.342-21.312V917.3c0-11.75 9.562-21.312 21.342-21.312h469.344c11.75 0 21.312 9.562 21.312 21.312v85.372c0 11.75-9.562 21.312-21.312 21.312z" fill="#656D78" /><path d="M341.326 981.298c-11.78 0-21.342 9.56-21.342 21.374v21.312h42.686v-21.312c-0.002-11.812-9.564-21.374-21.344-21.374zM426.666 981.298c-11.782 0-21.344 9.56-21.344 21.374v21.312h42.656v-21.312c0-11.812-9.53-21.374-21.312-21.374zM511.976 981.298c-11.75 0-21.312 9.56-21.312 21.374v21.312h42.656v-21.312c0-11.812-9.53-21.374-21.344-21.374zM597.3 981.298c-11.75 0-21.312 9.56-21.312 21.374v21.312h42.688v-21.312a21.364 21.364 0 0 0-21.376-21.374zM682.676 981.298a21.364 21.364 0 0 0-21.376 21.374v21.312h42.688v-21.312c0-11.812-9.562-21.374-21.312-21.374z" fill="#434A54" /></svg>