<?xml version="1.0" standalone="no"?><!DOCTYPE svg PUBLIC "-//W3C//DTD SVG 1.1//EN" "http://www.w3.org/Graphics/SVG/1.1/DTD/svg11.dtd"><svg class="icon" width="128px" height="128.00px" viewBox="0 0 1024 1024" version="1.1" xmlns="http://www.w3.org/2000/svg"><path d="M439.138 256.17a21.236 21.236 0 0 0-14.092 5.344c-9.812-3.312-22.718-5.344-36.842-5.344-30.78 0-55.716 9.56-55.716 21.342v277.234c0 11.75 24.936 21.312 55.716 21.312 14.124 0 27.03-2 36.842-5.312a21.214 21.214 0 0 0 14.092 5.312c11.782 0 21.312-9.562 21.312-21.312V277.512c0-11.782-9.532-21.342-21.312-21.342z" fill="#CCD1D9" /><path d="M960.468 204.328c-94.246-72.746-190.958-126.806-287.36-160.742C590.894 14.682 507.916 0.028 426.452 0.028c-112.712 0-202.896 28.342-258.706 52.122-60.216 25.652-98.964 53.652-106.276 60.964a21.286 21.286 0 0 0-5.062 22.062l19.436 56.122a21.33 21.33 0 0 0 22.936 14.188c0.562-0.094 58.434-7.624 122.15-7.624 46.092 0 84.214 4 111.556 11.562v68.09h127.962v-47.216c22.25-5.188 68.34-13.78 130.602-13.78 105.34 0 210.676 23.436 313.046 69.59 9.032 4.094 19.716 1.376 25.716-6.5l34.592-45.466c7.128-9.348 5.346-22.658-3.936-29.814z" fill="#E6E9ED" /><path d="M411.546 121.958c-8.312 8.312-21.812 8.312-30.154 0-8.312-8.344-8.312-21.842 0-30.154 8.342-8.344 21.842-8.344 30.154 0 8.342 8.312 8.342 21.81 0 30.154z" fill="#CCD1D9" /><path d="M460.45 533.436h-127.962a21.28 21.28 0 0 0-21.312 21.31v383.918c0 46.998 38.248 85.308 85.308 85.308 47.028 0 85.308-38.31 85.308-85.308V554.746c0-11.81-9.562-21.31-21.342-21.31z" fill="#5D9CEC" /><path d="M860.068 220.454c-10.938-4.344-23.342 1-27.686 11.966l-7.844 19.688a19.916 19.916 0 0 0-0.812 2.656 824.026 824.026 0 0 1 39.904 14.342c0.188-0.406 0.376-0.812 0.562-1.25l7.81-19.686a21.356 21.356 0 0 0-11.934-27.716zM775.416 194.016c-10.842-4.562-23.342 0.532-27.904 11.406l-8.124 19.342a21.722 21.722 0 0 0-1.594 6.906 731.58 731.58 0 0 1 40.904 9.656c0-0.032 0.032-0.032 0.032-0.062l8.094-19.342c4.558-10.844-0.532-23.344-11.408-27.906zM692.328 175.112a21.29 21.29 0 0 0-28.344 10.312l-9.562 20.466a21.144 21.144 0 0 0-1.532 13.344 705.128 705.128 0 0 1 40.218 4.624l9.53-20.406c4.97-10.686 0.344-23.372-10.31-28.34zM588.458 137.52c-0.938 0-1.876-0.062-2.812-0.188-0.688-0.062-70.042-9.124-125.196-9.124-11.78 0-21.312-9.562-21.312-21.342a21.3 21.3 0 0 1 21.312-21.312c57.996 0 127.82 9.124 130.79 9.5 11.656 1.532 19.876 12.25 18.344 23.936-1.408 10.718-10.596 18.53-21.126 18.53z" fill="#CCD1D9" /><path d="M460.45 640.054c-11.78 0-21.312 9.562-21.312 21.312a21.28 21.28 0 0 0 21.312 21.31h21.342v-42.624h-21.342zM460.45 725.364c-11.78 0-21.312 9.562-21.312 21.312 0 11.81 9.532 21.374 21.312 21.374h21.342v-42.686h-21.342zM460.45 810.672c-11.78 0-21.312 9.562-21.312 21.31 0 11.81 9.532 21.374 21.312 21.374h21.342v-42.684h-21.342zM332.488 853.356c11.782 0 21.342-9.562 21.342-21.374 0-11.748-9.562-21.31-21.342-21.31h-21.312v42.684h21.312zM332.488 768.048c11.782 0 21.342-9.562 21.342-21.374 0-11.75-9.562-21.312-21.342-21.312h-21.312v42.686h21.312zM332.488 682.678c11.782 0 21.342-9.5 21.342-21.31 0-11.75-9.562-21.312-21.342-21.312h-21.312v42.624h21.312zM396.484 981.288c-11.782 0-21.342 9.562-21.342 21.31v18.624a82.924 82.924 0 0 0 21.342 2.75c7.342 0 14.5-0.938 21.312-2.75v-18.624c0-11.748-9.532-21.31-21.312-21.31z" fill="#4A89DC" /></svg>