<?xml version="1.0" standalone="no"?><!DOCTYPE svg PUBLIC "-//W3C//DTD SVG 1.1//EN" "http://www.w3.org/Graphics/SVG/1.1/DTD/svg11.dtd"><svg class="icon" width="128px" height="128.00px" viewBox="0 0 1024 1024" version="1.1" xmlns="http://www.w3.org/2000/svg"><path d="M396.386 80.876c122.168 151.996-226.65 90.654-116.748 450.846 81.014 265.492 392.708 167.37 461.392 0C933.714 62.204 234.86-120.104 396.386 80.876z" fill="#F5F7FA" /><path d="M419.822 120.67c11.376-4.828 25.062-11.39 38.812-19.826 35.92-22.062 57.702-47.342 64.936-75.31-108.326-46.39-196.12-30.438-127.184 55.342 12.218 15.17 19.702 28.232 23.436 39.794zM772.718 332.992a543.534 543.534 0 0 1-22.468 34.092c-30.78 43.108-82.964 101.998-156.558 137.604l-18.592-38.404c65.154-31.514 111.966-84.342 139.808-123.106 24.436-34.062 38.966-63.608 43.904-74.342a340.42 340.42 0 0 0-27.218-61.936c-15.654 22.984-46.372 64.858-91.402 111.714-39.156 40.734-81.058 76.794-124.606 107.216-54.654 38.186-112.014 67.514-170.512 87.168l-13.592-40.452c123.996-41.67 219.588-122.778 277.928-183.494 57.906-60.232 91.216-112.278 96.78-121.262-14.844-20-31.436-38.296-49.06-54.842-22.562 43.702-55.124 85.122-97.092 123.402-38.498 35.108-84.982 67.702-138.168 96.872-75.794 41.562-142.668 63.982-163.962 70.608 0 35.578 6.39 77.624 21.732 127.886 81.014 265.492 392.708 167.37 461.392 0 30.092-73.384 38.468-139.742 31.686-198.724z" fill="#ED5564" /><path d="M531.68 204.48c40.888-37.388 71.762-77.702 91.95-119.996a474.582 474.582 0 0 0-61.186-39.984c-26.202 78.982-124.042 116.154-151.746 125.23-33.702 43.624-128.09 75.638-148.744 187.824 28.966-10 82.356-30.376 140.212-62.186 50.062-27.53 93.638-58.108 129.514-90.888z" fill="#ED5564" /><path d="M682.692 1023.986H341.34L277.342 585.5h469.346z" fill="#F6BB42" /><path d="M735.218 663.936l-102.528 102.558-90.512-90.528 2.016-2-30.172-30.188-2.016 2.032-2.718-2.718-30.156 30.156 2.704 2.718-90.512 90.528-102.53-102.558 10.312 70.654 62.06 62.06-46.248 46.248 7.688 52.654 68.716-68.748 90.512 90.53-102.246 102.246 4.422 4.406h51.498l76.498-76.498 76.498 76.498h60.31l-106.636-106.652 90.512-90.53 68.716 68.748 7.688-52.654-46.248-46.248 62.058-62.06 10.314-70.654zM512.008 887.146l-90.514-90.496 90.514-90.498 90.496 90.498-90.496 90.496z" fill="#E8A734" /><path d="M272.076 574.562l-30.17-30.154 66.17-66.17 30.17 30.17zM349.372 678.31l-30.17-30.186 177.712-177.714 30.172 30.156zM756.624 579.282l-71.932-71.968 30.154-30.17 71.966 71.982z"  /><path d="M671.972 675.624l-170.37-170.356 30.172-30.17 170.352 170.368z"  /><path d="M789.312 639.998c0 23.562-19.062 42.654-42.624 42.654H277.342c-23.56 0-42.654-19.092-42.654-42.654v-127.996c0-23.56 19.094-42.67 42.654-42.67h469.346c23.562 0 42.624 19.11 42.624 42.67v127.996z" fill="#FFCE54" /><path d="M283.592 484.41c8.328 8.328 21.844 8.328 30.172 0a21.22 21.22 0 0 0 6.25-15.078h-42.656c0 5.454 2.078 10.922 6.234 15.078zM368.934 484.41c8.328 8.328 21.828 8.328 30.172 0a21.208 21.208 0 0 0 6.232-15.078h-42.654a21.22 21.22 0 0 0 6.25 15.078zM454.26 484.41c8.328 8.328 21.842 8.328 30.17 0a21.286 21.286 0 0 0 6.25-15.078h-42.67a21.22 21.22 0 0 0 6.25 15.078zM539.586 484.41c8.328 8.328 21.858 8.328 30.17 0a21.152 21.152 0 0 0 6.25-15.078h-42.67c0 5.454 2.094 10.922 6.25 15.078zM624.91 484.41c8.344 8.328 21.844 8.328 30.156 0a21.152 21.152 0 0 0 6.25-15.078h-42.624a21.12 21.12 0 0 0 6.218 15.078zM704.002 469.332c0 5.454 2.062 10.922 6.25 15.078 8.312 8.328 21.842 8.328 30.186 0a21.388 21.388 0 0 0 6.218-15.078h-42.654z" fill="#F6BB42" /></svg>