<?xml version="1.0" standalone="no"?><!DOCTYPE svg PUBLIC "-//W3C//DTD SVG 1.1//EN" "http://www.w3.org/Graphics/SVG/1.1/DTD/svg11.dtd"><svg class="icon" width="128px" height="128.00px" viewBox="0 0 1024 1024" version="1.1" xmlns="http://www.w3.org/2000/svg"><path d="M682.756 170.694c0 94.264-76.376 170.668-170.67 170.668-94.248 0-170.654-76.406-170.654-170.668S417.838 0.01 512.086 0.01c94.294 0 170.67 76.42 170.67 170.684z" fill="#46CEAD" /><path d="M512.024 164.396c-31.28-35.452-77.03-57.81-128.028-57.81-10.656 0-21.124 1-31.25 2.876-7.312 19-11.312 39.64-11.312 61.232 0 94.264 76.406 170.668 170.654 170.668 94.294 0 170.67-76.406 170.67-170.668 0-21.578-4-42.202-11.312-61.202a170.776 170.776 0 0 0-31.438-2.906c-51.002 0-96.736 22.358-127.984 57.81z" opacity=".1" /><path d="M810.69 298.598c0 94.264-76.436 170.684-170.684 170.684-94.25 0-170.668-76.42-170.668-170.684s76.418-170.668 170.668-170.668c94.248 0 170.684 76.404 170.684 170.668z" fill="#AC92EA" /><path d="M469.336 298.598c0 48.812 20.5 92.842 53.342 123.936 32.826-31.094 53.326-75.124 53.326-123.936 0-48.796-20.5-92.826-53.326-123.936-32.842 31.11-53.342 75.14-53.342 123.936z" opacity=".1" /><path d="M554.694 298.598c0 94.264-76.418 170.684-170.698 170.684-94.25 0-170.684-76.42-170.684-170.684s76.436-170.668 170.684-170.668c94.278 0 170.698 76.404 170.698 170.668z" fill="#EC5564" /><path d="M554.694 298.598c0 94.264-76.418 170.684-170.698 170.684-94.25 0-170.684-76.42-170.684-170.684s76.436-170.668 170.684-170.668c94.278 0 170.698 76.404 170.698 170.668z" fill="#EC5564" /><path d="M383.996 127.93c3.592 0 7.156 0.124 10.656 0.342-89.28 5.5-159.998 79.656-159.998 170.326 0 90.686 70.718 164.84 159.998 170.34-3.5 0.218-7.062 0.344-10.656 0.344-94.25 0-170.684-76.42-170.684-170.684s76.434-170.668 170.684-170.668z" fill="#FFFFFF" opacity=".2" /><path d="M512.024 1023.99c-128.028 0-298.712-682.722-298.712-682.722h597.378s-170.684 682.722-298.666 682.722z" fill="#FECD57" /><path d="M794.94 401.236l-101.874 101.874-60.374-60.342 101.498-101.498H673.88l-71.376 71.328-60.328-60.342 10.954-10.984h-82.294l11 10.984-60.342 60.342-71.342-71.328h-60.342l101.498 101.498-60.342 60.342-101.874-101.874a5148.24 5148.24 0 0 0 23.5 83.826l48.218 48.218-26.092 26.094a4302.768 4302.768 0 0 0 14.374 45.966l41.876-41.876 60.342 60.344-60.342 60.342-23.906-23.938c10.468 31.218 21.532 62.718 33.03 93.376l51.218 51.248-22.186 22.188a1437.264 1437.264 0 0 0 18.406 41.936l33.968-33.968 60.342 60.376-52.936 52.938c8.186 13.438 16.406 25.468 24.562 35.75l58.53-58.532 58.576 58.532c8.124-10.25 16.376-22.312 24.562-35.75l-52.954-52.938 60.328-60.376 34 33.968a1356.852 1356.852 0 0 0 18.376-41.936l-22.188-22.188 51.25-51.248c11.498-30.656 22.56-62.156 32.998-93.376l-23.876 23.938-60.374-60.342 60.374-60.344 41.876 41.876a6447.746 6447.746 0 0 0 14.374-45.966l-26.124-26.094 48.248-48.218a5227.646 5227.646 0 0 0 23.498-83.826z m-282.948-18.812l60.388 60.342-60.388 60.342-60.342-60.342 60.342-60.342z m0.032 181.012l60.358 60.376-60.388 60.342-60.342-60.342 60.372-60.376z m-150.872-30.154l60.342-60.344 60.342 60.344-60.342 60.342-60.342-60.342z m0 181.026l60.342-60.312 60.342 60.312-60.342 60.376-60.342-60.376z m150.84 150.872l-60.342-60.342 60.342-60.342 60.326 60.342-60.326 60.342z m150.888-150.872l-60.376 60.376-60.328-60.376 60.328-60.312 60.376 60.312z m-60.374-120.684l-60.328-60.342 60.328-60.344 60.376 60.344-60.376 60.342z" fill="#F5BA45" /></svg>