<?xml version="1.0" standalone="no"?><!DOCTYPE svg PUBLIC "-//W3C//DTD SVG 1.1//EN" "http://www.w3.org/Graphics/SVG/1.1/DTD/svg11.dtd"><svg class="icon" width="128px" height="128.00px" viewBox="0 0 1024 1024" version="1.1" xmlns="http://www.w3.org/2000/svg"><path d="M576 981.298h-127.998l-42.67-249.742h213.354z" fill="#E6E9ED" /><path d="M706.058 996.862l-119.12-79.562h-149.872l-119.138 79.562z" fill="#CCD1D9" /><path d="M182.666 313.474l39.436-16.264L105.044 13.218C101.84 5.468 94.216 0.014 85.31 0.014c-11.78 0-21.328 9.546-21.328 21.328 0 2.89 0.578 5.624 1.61 8.14l0.032 0.078a0.456 0.456 0 0 1 0.062 0.156l116.98 283.758zM740.432 987.548a21.42 21.42 0 0 0-15.124-6.25H298.68a21.35 21.35 0 0 0-15.094 6.25c-8.328 8.344-8.328 21.874 0 30.186a21.188 21.188 0 0 0 15.094 6.25h426.658a21.22 21.22 0 0 0 15.094-6.25c8.312-8.312 8.312-21.842 0-30.186z" fill="#E6E9ED" /><path d="M703.996 320.006c0 106.044-85.966 191.994-192.01 191.994-106.028 0-191.994-85.95-191.994-191.994 0-106.028 85.966-191.994 191.994-191.994 106.044 0 192.01 85.966 192.01 191.994z" fill="#5D9CEC" /><path d="M917.334 405.332c0 106.042-85.966 191.978-191.996 191.978-106.028 0-192.008-85.936-192.008-191.978 0-106.028 85.98-191.994 192.008-191.994 106.03 0 191.996 85.966 191.996 191.994z" fill="#ED5564" /><path d="M490.674 448.002c0 106.058-85.966 191.994-191.994 191.994-106.044 0-191.994-85.936-191.994-191.994 0-106.042 85.95-191.994 191.994-191.994 106.028 0 191.994 85.95 191.994 191.994z" fill="#48CFAD" /><path d="M512 810.68c-459.924 0-447.986-426.55-447.986-426.55h895.974c0-0.002 11.938 426.55-447.988 426.55z" fill="#FFCE54" /><path d="M725.338 320.006c0 11.782 9.532 21.328 21.344 21.328 11.782 0 21.312-9.546 21.312-21.328v-101.902a192.784 192.784 0 0 0-42.656-4.766v106.668zM661.342 224.292v74.388c0 11.782 9.532 21.328 21.312 21.328 11.78 0 21.342-9.546 21.342-21.328v-84.154a190.624 190.624 0 0 0-42.654 9.766zM319.992 257.196v62.81c0 11.782 9.562 21.328 21.342 21.328 11.782 0 21.328-9.546 21.328-21.328v-53.06a190.564 190.564 0 0 0-42.67-9.75zM234.666 341.334h0.016c0 11.782 9.546 21.342 21.328 21.342s21.328-9.562 21.328-21.342v-84.138a191.532 191.532 0 0 0-42.67 9.75v74.388zM490.658 298.678c0 11.782 9.546 21.328 21.328 21.328s21.344-9.546 21.344-21.328v-94.668h-42.672v94.668zM554.69 183.682v50.998c0 11.782 9.53 21.328 21.31 21.328s21.342-9.546 21.342-21.328V183.682h-42.652zM426.676 234.68c0 11.782 9.546 21.328 21.328 21.328s21.328-9.546 21.328-21.328V134.372h-6.468a189.46 189.46 0 0 0-36.186 13.61v86.698z" fill="#965353" /><path d="M597.81 195.432c-44.122 35.296-128.808 53.544-158.574 16.344-29.75-37.218 6.64-115.792 50.78-151.09 44.124-35.294 79.294-13.952 109.042 23.266 29.752 37.2 42.878 76.184-1.248 111.48z" fill="#ED5564" /><path d="M625.716 117.262c-9.218 7.358-22.624 5.874-30-3.328-7.342-9.204-5.842-22.624 3.344-29.984 9.188-7.36 22.624-5.876 29.968 3.328 7.376 9.204 5.876 22.626-3.312 29.984z" fill="#A0D468" /><path d="M599.06 83.952c-9.186 7.36-22.624 5.86-29.998-3.344-7.344-9.204-5.844-22.624 3.344-29.984 9.218-7.36 22.624-5.86 29.998 3.344 7.344 9.186 5.844 22.624-3.344 29.984z" fill="#A0D468" /></svg>