<?xml version="1.0" standalone="no"?><!DOCTYPE svg PUBLIC "-//W3C//DTD SVG 1.1//EN" "http://www.w3.org/Graphics/SVG/1.1/DTD/svg11.dtd"><svg class="icon" width="128px" height="128.00px" viewBox="0 0 1024 1024" version="1.1" xmlns="http://www.w3.org/2000/svg"><path d="M745.542 47.552c-259.64-133.646-658.548 26.198-580.92 360.78L125.714 455.42l-68.758 125.87 66.884 53.18-2.78 89.398 26.73 38.312s-31.818 119.594 16.832 136.55c90.772 31.664 197.626 16.082 197.626 16.082l5.338 108.79h451.492s-44.684-225.512 23.17-321.282c67.854-95.8 289.18-456.112-96.706-654.768z" fill="#EAC6BB" /><path d="M732.55 362.774c0 105.948-85.9 191.85-191.848 191.85-105.95 0-191.852-85.904-191.852-191.85 0-105.95 85.902-191.85 191.852-191.85 105.948 0 191.848 85.902 191.848 191.85z" fill="#F6BB42" /><path d="M604.652 362.774a21.282 21.282 0 0 0-21.296-21.296 21.16 21.16 0 0 0-15.082 6.246l-27.57 27.542-27.542-27.542a21.146 21.146 0 0 0-15.082-6.246c-11.772 0-21.328 9.524-21.328 21.296 0 5.9 2.404 11.208 6.246 15.082l36.41 36.376v119.094h42.624v-119.094l36.376-36.376a21.16 21.16 0 0 0 6.244-15.082z" fill="#FFCE54" /><path d="M562.03 661.226c0 11.774-9.556 21.296-21.326 21.296a21.28 21.28 0 0 1-21.296-21.296c0-11.77 9.524-21.324 21.296-21.324 11.768 0 21.326 9.556 21.326 21.324z" fill="#434A54" /><path d="M455.456 533.328h170.524v127.898h-170.524z" fill="#E6E9ED" /><path d="M607.182 554.782a22.846 22.846 0 0 0-2.53-0.156c-11.774 0-21.296 9.554-21.296 21.328 0 11.77 9.524 21.324 21.296 21.324h21.328v-42.496h-18.798zM607.182 597.434a22.846 22.846 0 0 0-2.53-0.156c-11.774 0-21.296 9.524-21.296 21.296s9.524 21.328 21.296 21.328h21.328v-42.468h-18.798zM474.254 639.746c0.812 0.094 1.656 0.156 2.498 0.156 11.772 0 21.328-9.554 21.328-21.328s-9.554-21.296-21.328-21.296h-21.296v42.468h18.798z" fill="#CCD1D9" /><path d="M474.254 597.09c0.812 0.094 1.656 0.188 2.498 0.188 11.772 0 21.328-9.554 21.328-21.324 0-11.774-9.554-21.328-21.328-21.328h-21.296v42.464h18.798z" fill="#CCD1D9" /></svg>