<?xml version="1.0" standalone="no"?><!DOCTYPE svg PUBLIC "-//W3C//DTD SVG 1.1//EN" "http://www.w3.org/Graphics/SVG/1.1/DTD/svg11.dtd"><svg class="icon" width="128px" height="128.00px" viewBox="0 0 1024 1024" version="1.1" xmlns="http://www.w3.org/2000/svg"><path d="M999.608 512l-75.996-170.9-151.996-148.122-161.338-55.904-149.322-7.594-123.998 39.938-133.324 51.998-70.67 78.232-90.668 191.04-21.328 112.058 6.672 298.616h978.624z" fill="#E5E8EC" /><path d="M512 106.702C229.244 106.702 0.018 335.912 0.018 618.684V917.3h1023.964V618.684C1023.982 335.912 794.74 106.702 512 106.702zM50.422 533.344h34.92v85.34H42.688c0-28.906 2.608-57.406 7.734-85.34z m43.404-127.996h98.184v85.34H60.328a469.778 469.778 0 0 1 19.216-54.686 479.592 479.592 0 0 1 14.282-30.654z m546.17-127.996v85.34H384.004v-85.34h255.992z m-32.688 341.332v-85.34h288.678v85.34H607.308zM233.056 746.68v-85.342h554.652v85.342H233.056z m183.666-213.336v85.34H128.014v-85.34h288.708z m147.964 0v85.34h-105.308v-85.34h105.308z m-32.97-42.656v-85.34h257.586v85.34H531.716z m-42.668-85.34v85.34H234.682v-85.34h254.366zM190.384 661.338v85.342H42.688v-85.342h147.696z m705.602 127.964v85.374H128.014v-85.374h767.972z m-65.62-42.622v-85.342h150.932v85.342h-150.932z m108.306-127.996v-85.34h34.904a472.298 472.298 0 0 1 7.72 85.34h-42.624z m25-127.996h-131.684v-85.34h98.186a468.68 468.68 0 0 1 33.498 85.34z m-58.248-127.996H682.682v-85.34h151.432a608.7 608.7 0 0 1 9.752 9.468c23.278 23.296 43.84 48.654 61.558 75.872z m-123.466-127.994H531.716V149.792c56.406 2.312 111.154 14.516 162.964 36.438a467.942 467.942 0 0 1 87.278 48.468z m-292.91-84.78v84.78H242.04a467.242 467.242 0 0 1 87.294-48.466c50.826-21.502 104.45-33.674 159.714-36.314zM180.136 286.82a493.634 493.634 0 0 1 9.764-9.468h151.434v85.34H118.56c17.732-27.218 38.296-52.576 61.576-75.872zM42.688 789.302h42.654v85.374H42.688v-85.374z m895.984 85.374v-85.374h42.626v85.374h-42.626z" fill="#CBD0D8" /><path d="M512 490.688c-117.824 0-213.322 95.496-213.322 213.306v213.304h426.628V703.994c0-117.81-95.498-213.306-213.306-213.306z" fill="#5E9CEA" /><path d="M320.006 917.298V703.994c0-105.84 86.124-191.994 191.994-191.994s191.992 86.154 191.992 191.994v213.304H320.006z" fill="#5E9CEA" /><path d="M448.002 725.304c0 11.814-9.546 21.376-21.328 21.376-11.78 0-21.342-9.56-21.342-21.376 0-11.748 9.562-21.31 21.342-21.31 11.782 0 21.328 9.562 21.328 21.31z" fill="#434A54" /><path d="M341.334 917.298V703.994c0-45.562 17.75-88.436 49.998-120.654 32.216-32.248 75.076-49.996 120.668-49.996s88.434 17.748 120.684 49.996c32.25 32.218 49.998 75.092 49.998 120.654v213.304h42.626V703.994c0-117.81-95.498-213.306-213.306-213.306-117.824 0-213.322 95.496-213.322 213.306v213.304h42.654z" fill="#4B89DA" /></svg>