<?xml version="1.0" standalone="no"?><!DOCTYPE svg PUBLIC "-//W3C//DTD SVG 1.1//EN" "http://www.w3.org/Graphics/SVG/1.1/DTD/svg11.dtd"><svg class="icon" width="128px" height="128.00px" viewBox="0 0 1024 1024" version="1.1" xmlns="http://www.w3.org/2000/svg"><path d="M417.986 327.14c6.094 22.75-7.406 46.156-30.17 52.25L140.54 445.636c-22.764 6.124-46.156-7.406-52.25-30.154L22.028 168.206c-6.094-22.75 7.422-46.156 30.17-52.248l247.276-66.25c22.764-6.124 46.156 7.406 52.25 30.156l66.262 247.276z" fill="#E6E9ED" /><path d="M176.57 126.8c3.062 11.376-3.704 23.062-15.078 26.124-11.374 3.062-23.078-3.718-26.124-15.094s3.704-23.062 15.078-26.124c11.39-3.03 23.078 3.72 26.124 15.094zM114.76 143.364c3.046 11.376-3.704 23.092-15.094 26.124-11.376 3.062-23.062-3.688-26.124-15.092-3.046-11.376 3.704-23.062 15.092-26.124 11.376-3.034 23.078 3.716 26.126 15.092zM238.396 110.24c3.046 11.374-3.702 23.062-15.092 26.124-11.376 3.032-23.078-3.718-26.124-15.094-3.046-11.374 3.702-23.062 15.092-26.124 11.376-3.032 23.078 3.718 26.124 15.094zM300.208 93.676c3.046 11.376-3.704 23.062-15.078 26.124-11.39 3.032-23.078-3.718-26.124-15.092-3.062-11.376 3.704-23.062 15.078-26.124 11.374-3.062 23.078 3.718 26.124 15.092z" fill="#CCD1D9" /><path d="M1002.676 774.722h-106.688c-11.782 0-21.312 9.532-21.312 21.312s9.532 21.344 21.312 21.344H1002.674c11.75 0 21.312-9.562 21.312-21.344s-9.56-21.312-21.31-21.312zM876.708 728.162l75.406-75.374v-0.032c8.376-8.344 8.344-21.844 0-30.188-8.312-8.312-21.812-8.312-30.156 0l-75.402 75.406c-8.344 8.344-8.344 21.874 0 30.186 8.312 8.346 21.812 8.346 30.152 0.002zM876.77 864.004c-0.032-0.032-0.032-0.062-0.062-0.062-8.34-8.344-21.84-8.344-30.152 0-8.344 8.31-8.344 21.81 0 30.154l75.372 75.404 0.032 0.032c8.344 8.312 21.844 8.312 30.156 0 8.376-8.344 8.344-21.844 0-30.188l-75.346-75.34z" fill="#4FC2E9" /><path d="M534.296 625.382L397.33 114.176 0.012 220.644l199.916 746.074h568.064V625.382z" fill="#5D9CEC" /><path d="M625.84 625.382h142.152v341.336H625.84zM534.296 625.382l-5.312-19.844-98.686 98.688-0.016 0.032c-8.328 8.31-8.328 21.842 0 30.154 8.328 8.344 21.842 8.344 30.17 0l109.042-109.03h-35.198z" fill="#4A89DC" /></svg>