<?xml version="1.0" standalone="no"?><!DOCTYPE svg PUBLIC "-//W3C//DTD SVG 1.1//EN" "http://www.w3.org/Graphics/SVG/1.1/DTD/svg11.dtd"><svg class="icon" width="128px" height="128.00px" viewBox="0 0 1024 1024" version="1.1" xmlns="http://www.w3.org/2000/svg"><path d="M639.622 213.132c0 35.248-28.562 63.81-63.812 63.81-35.246 0-63.824-28.562-63.824-63.81 0-35.25 28.578-63.81 63.824-63.81 35.248 0 63.812 28.56 63.812 63.81z" fill="#DBADA2" /><path d="M511.984 320.004l85.324-46.748-42.656-120.308-375.628 167.056z" fill="#DBADA2" /><path d="M565.308 575.998h394.68c35.344 0 64-28.624 64-63.998s-28.656-64-64-64h-394.68a10.656 10.656 0 0 1-10.656-10.688c0-5.874 4.782-10.624 10.656-10.624h330.68c35.344 0 64-28.688 64-63.998 0-35.376-28.656-64-64-64H426.658h-138.654C128.946 298.69 0.012 427.626 0.012 586.684c0 158.934 128.73 287.742 287.618 287.992h-0.14 480.502c56.688 0 85.312-28.686 85.312-63.998 0-35.376-28.624-63.998-64-63.998H565.308c-5.876 0-10.656-4.812-10.656-10.688s4.782-10.688 10.656-10.688h330.68c35.344 0 64-28.624 64-63.998 0-35.312-28.656-64-64-64h-330.68c-5.876 0-10.656-4.748-10.656-10.624a10.656 10.656 0 0 1 10.656-10.684z" fill="#EAC6BB" /><path d="M618.09 874.678L343.488 591.124l266.664-283.556 7.876-8.876h-191.37-138.654C128.946 298.692 0.012 427.628 0.012 586.686c0 158.934 128.73 287.742 287.618 287.992h-0.14 330.6z" fill="#E6E9ED" /><path d="M41.37 735.432l436.786-436.74h-51.498-8.828L21.214 695.308a286.758 286.758 0 0 0 20.156 40.124zM288.004 298.692c-15.046 0-29.812 1.124-44.218 3.376L3.386 542.438a290.966 290.966 0 0 0-3.374 44.248c0 6.312 0.218 12.624 0.624 18.874l306.868-306.868h-19.5zM587.59 874.678h60.344L360.378 587.124l288.43-288.432h-60.312L90.712 796.43a290.264 290.264 0 0 0 33.342 27l35.5-35.5 83.154 83.186c14.624 2.312 29.624 3.5 44.92 3.562h-0.14 19.11l-116.872-116.874 55.154-55.184 172.042 172.056h60.342L275.052 672.434l55.154-55.124 257.384 257.368z" fill="#CCD1D9" /></svg>