<?xml version="1.0" standalone="no"?><!DOCTYPE svg PUBLIC "-//W3C//DTD SVG 1.1//EN" "http://www.w3.org/Graphics/SVG/1.1/DTD/svg11.dtd"><svg class="icon" width="128px" height="128.00px" viewBox="0 0 1024 1024" version="1.1" xmlns="http://www.w3.org/2000/svg"><path d="M639.622 213.132c0 35.248-28.562 63.81-63.812 63.81-35.246 0-63.808-28.562-63.808-63.81 0-35.25 28.562-63.81 63.808-63.81 35.248 0 63.812 28.56 63.812 63.81z" fill="#DBADA2" /><path d="M512 320.004l85.34-46.748-42.688-120.308L179.04 320.004z" fill="#DBADA2" /><path d="M565.34 575.998h394.648c35.344 0 64-28.624 64-63.998s-28.656-64-64-64H565.34a10.664 10.664 0 0 1-10.688-10.688c0-5.874 4.782-10.624 10.688-10.624h330.648c35.344 0 64-28.688 64-63.998 0-35.376-28.656-64-64-64H426.658h-138.654C128.946 298.69 0.012 427.626 0.012 586.684c0 158.934 128.746 287.742 287.618 287.992h-0.124 480.488c56.688 0 85.344-28.686 85.344-63.998 0-35.376-28.656-63.998-64-63.998H565.34c-5.906 0-10.688-4.812-10.688-10.688s4.782-10.688 10.688-10.688h330.648c35.344 0 64-28.624 64-63.998 0-35.312-28.656-64-64-64H565.34c-5.906 0-10.688-4.748-10.688-10.624a10.662 10.662 0 0 1 10.688-10.684z" fill="#EAC6BB" /><path d="M193.258 665.372c-50.936 0-86.998-4.188-89.06-4.438-11.718-1.376-20.094-11.938-18.688-23.688 1.376-11.688 11.968-20.062 23.656-18.688 3.094 0.376 270.086 30.188 365.492-77.996 7.812-8.876 21.28-9.688 30.124-1.876 8.844 7.75 9.688 21.248 1.876 30.06-46.968 53.31-129.528 84.936-245.37 93.998-24.282 1.94-47.374 2.628-68.03 2.628z" fill="#DBADA2" /><path d="M415.158 662.308a21.354 21.354 0 0 1-19.5-12.624l-26.968-60.31c-4.782-10.75 0.032-23.376 10.782-28.188s23.374 0 28.186 10.75l26.968 60.31c4.812 10.75 0 23.376-10.782 28.188-2.81 1.25-5.78 1.874-8.686 1.874zM311.162 686.684c-10.438 0-19.562-7.688-21.094-18.312l-9.468-66c-1.656-11.686 6.438-22.498 18.094-24.124a21.308 21.308 0 0 1 24.156 18.06l9.438 66c1.688 11.688-6.406 22.5-18.062 24.188-1.034 0.126-2.064 0.188-3.064 0.188zM213.694 697.996c-11.656 0-21.186-9.376-21.312-21.124l-0.656-60c-0.156-11.75 9.312-21.438 21.092-21.562 11.75-0.188 21.438 9.312 21.562 21.124l0.656 60c0.156 11.75-9.312 21.438-21.094 21.562h-0.248z" fill="#424953" /></svg>