<?xml version="1.0" standalone="no"?><!DOCTYPE svg PUBLIC "-//W3C//DTD SVG 1.1//EN" "http://www.w3.org/Graphics/SVG/1.1/DTD/svg11.dtd"><svg class="icon" width="128px" height="128.00px" viewBox="0 0 1024 1024" version="1.1" xmlns="http://www.w3.org/2000/svg"><path d="M639.618 213.144c0 35.246-28.56 63.808-63.808 63.808-35.23 0-63.806-28.562-63.806-63.808 0-35.248 28.576-63.808 63.806-63.808 35.246 0 63.808 28.56 63.808 63.808z" fill="#DBADA2" /><path d="M512.002 320.012l85.338-46.746-42.654-120.306-375.634 167.052z" fill="#DBADA2" /><path d="M803.858 241.078c-8.31-8.31-21.81-8.31-30.154 0l-27.03 27.062-27.06-27.062c-8.312-8.31-21.844-8.31-30.188 0-8.31 8.312-8.31 21.876 0 30.188l27.062 27.058-3.124 3.124 30.186 30.124 3.124-3.124 3.124 3.124 30.156-30.124-3.124-3.124 27.03-27.058c8.34-8.312 8.34-21.876-0.002-30.188z" fill="#DA4453" /><path d="M565.34 575.996h394.632c35.374 0 63.996-28.624 63.996-63.996 0-35.374-28.624-63.996-63.996-63.996H565.34a10.636 10.636 0 0 1-10.654-10.688 10.62 10.62 0 0 1 10.654-10.624h330.636c35.374 0 63.996-28.684 63.996-63.996 0-35.372-28.624-63.996-63.996-63.996H426.678h-138.664C128.978 298.7 0.034 427.63 0.034 586.684c0 158.926 128.742 287.73 287.606 287.98h-0.124 480.47c56.684 0 85.34-28.686 85.34-63.996 0-35.372-28.656-63.996-63.996-63.996H565.34c-5.904 0-10.654-4.812-10.654-10.688 0-5.874 4.75-10.686 10.654-10.686h330.636c35.374 0 63.996-28.624 63.996-63.996 0-35.31-28.624-63.996-63.996-63.996H565.34a10.62 10.62 0 0 1-10.654-10.624 10.636 10.636 0 0 1 10.654-10.686z" fill="#EAC6BB" /><path d="M682.678 298.7h127.992v127.992h-127.992z" fill="#ED5564" /></svg>