<?xml version="1.0" standalone="no"?><!DOCTYPE svg PUBLIC "-//W3C//DTD SVG 1.1//EN" "http://www.w3.org/Graphics/SVG/1.1/DTD/svg11.dtd"><svg class="icon" width="128px" height="128.00px" viewBox="0 0 1024 1024" version="1.1" xmlns="http://www.w3.org/2000/svg"><path d="M116.56 931.61h758.02v63.966H116.56z" fill="#F5F7FA" /><path d="M853.236 941.796h42.688v60.624h-42.688z" fill="#E6E9ED" /><path d="M160.074 959.982h735.85c11.75 0 21.312-9.53 21.312-21.31V21.346c0-11.782-9.562-21.328-21.312-21.328H192.074c-47.108 0-85.31 38.202-85.31 85.308V970.67c0 29.438 23.874 53.312 53.326 53.312h735.834c11.75 0 21.312-9.562 21.312-21.312 0-11.812-9.562-21.344-21.312-21.344H160.09c-5.876 0-10.67-4.782-10.67-10.656s4.78-10.688 10.654-10.688z" fill="#FC6E51" /><path d="M512 213.292c-117.606 0-213.274 95.684-213.274 213.29S394.394 639.872 512 639.872c117.622 0 213.272-95.686 213.272-213.292S629.622 213.292 512 213.292z m156.372 281.504c-16.968 4.828-61.376 15.124-135.042 16.844v-63.734h147.98a168.932 168.932 0 0 1-12.938 46.89z m-312.696-136.572c22.188-6.344 68.888-15.11 134.996-16.704v63.732h-147.962a169.156 169.156 0 0 1 12.966-47.028z m-12.968 89.682h147.962v63.718c-66.28-1.64-113.088-10.64-135.166-17.094a169.354 169.354 0 0 1-12.796-46.624z m190.62-42.652v-63.716c66.418 1.656 113.23 10.688 135.2 17.156a169.948 169.948 0 0 1 12.782 46.56h-147.982z m100.98-97.53c-25.188-4.156-58.78-7.906-100.98-8.876v-41.56c39.358 4.922 74.606 23.33 100.98 50.436z m-143.636-50.434v41.544c-42.076 0.938-75.574 4.578-100.714 8.624 26.326-26.95 61.464-45.262 100.714-50.168z m-100.934 288.176c25.204 4.156 58.764 7.876 100.934 8.844v41.56c-39.358-4.936-74.59-23.312-100.934-50.404z m143.59 50.406v-41.56c42.108-0.938 75.606-4.594 100.73-8.656-26.312 26.966-61.466 45.278-100.73 50.216z" fill="#FFCE54" /><path d="M725.272 170.636H298.726c-11.782 0-21.328-9.546-21.328-21.328s9.546-21.328 21.328-21.328h426.546c11.782 0 21.344 9.546 21.344 21.328s-9.564 21.328-21.344 21.328z" fill="#E9573F" /><path d="M725.272 746.49H298.726c-11.782 0-21.328-9.562-21.328-21.312a21.318 21.318 0 0 1 21.328-21.342h426.546c11.782 0 21.344 9.53 21.344 21.342 0 11.75-9.564 21.312-21.344 21.312zM639.964 831.798H384.036c-11.78 0-21.328-9.562-21.328-21.31 0-11.782 9.546-21.344 21.328-21.344h255.93c11.782 0 21.344 9.562 21.344 21.344-0.002 11.748-9.564 21.31-21.346 21.31z" fill="#434A54" /></svg>