<?xml version="1.0" standalone="no"?><!DOCTYPE svg PUBLIC "-//W3C//DTD SVG 1.1//EN" "http://www.w3.org/Graphics/SVG/1.1/DTD/svg11.dtd"><svg class="icon" width="128px" height="128.00px" viewBox="0 0 1024 1024" version="1.1" xmlns="http://www.w3.org/2000/svg"><path d="M753.438 469.198c-35.18-99.448-129.968-170.68-241.46-170.68-111.444 0-206.266 71.232-241.414 170.68h-14.59v85.324c0 141.404 114.63 256.004 256.004 256.004 141.422 0 256.02-114.6 256.02-256.004v-85.324h-14.56z" fill="#F6BB42" /><path d="M329.364 79.628c57.83-24.462 119.254-36.85 182.614-36.85 63.376 0 124.8 12.386 182.662 36.85 55.862 23.636 106.038 57.472 149.154 100.572a479.934 479.934 0 0 1 30.18 33.242h-106.04c-11.808 0-21.306 9.542-21.306 21.322s9.498 21.34 21.306 21.34h148.78c1.438 0 2.874-0.156 4.31-0.438 0.25-0.062 0.5-0.14 0.75-0.204 0.438-0.11 0.876-0.204 1.25-0.328 0.124-0.016 0.188-0.062 0.25-0.078a21.388 21.388 0 0 0 14.622-17.792c0.062-0.828 0.124-1.656 0.124-2.5v-149.34c0-11.78-9.558-21.324-21.306-21.324-11.81 0-21.306 9.544-21.306 21.324v87.4C801.614 66.898 664.582 0.118 511.976 0.118 230.042 0.118 1.218 230.346 0 512a21.328 21.328 0 0 0 21.34 21.338c11.778 0 21.432-9.56 21.432-21.338 0-63.362 12.404-124.816 36.868-182.646 23.62-55.862 57.456-106.04 100.57-149.152 43.082-43.1 93.29-76.936 149.154-100.574zM1002.63 490.66c-11.748 0-21.432 9.56-21.432 21.34 0 63.36-12.374 124.814-36.804 182.614-23.684 55.894-57.488 106.07-100.602 149.186-43.118 43.084-93.292 76.952-149.154 100.57-57.862 24.462-119.286 36.868-182.662 36.868-63.36 0-124.784-12.404-182.614-36.868-55.864-23.62-106.07-57.486-149.154-100.57a472.81 472.81 0 0 1-30.21-33.242h106.068c11.78 0 21.308-9.56 21.308-21.34s-9.53-21.306-21.308-21.306H107.29c-1.468 0-2.906 0.124-4.312 0.404-0.25 0.062-0.532 0.156-0.782 0.218-0.406 0.094-0.844 0.188-1.25 0.312-0.094 0.032-0.156 0.062-0.25 0.094-7.78 2.532-13.622 9.404-14.59 17.808-0.094 0.812-0.156 1.624-0.156 2.468v149.342c0 11.778 9.56 21.338 21.34 21.338 11.778 0 21.306-9.56 21.306-21.338v-87.386c93.792 105.912 230.792 172.71 383.38 172.71C793.93 1023.882 1022.75 793.652 1024 512c0-11.78-9.558-21.34-21.37-21.34z" fill="#434A54" /><path d="M767.996 469.198c0 141.374-114.598 256.004-256.02 256.004-141.374 0-256.004-114.63-256.004-256.004 0-141.406 114.63-256.036 256.004-256.036 141.422 0 256.02 114.63 256.02 256.036z" fill="#FFCE54" /><path d="M511.976 341.164c-11.778 0-21.306 9.56-21.306 21.338V575.86c0 11.78 9.53 21.338 21.306 21.338 11.81 0 21.34-9.558 21.34-21.338V362.502a21.326 21.326 0 0 0-21.34-21.338z" fill="#E8AA3D" /></svg>