<?xml version="1.0" standalone="no"?><!DOCTYPE svg PUBLIC "-//W3C//DTD SVG 1.1//EN" "http://www.w3.org/Graphics/SVG/1.1/DTD/svg11.dtd"><svg class="icon" width="128px" height="128.00px" viewBox="0 0 1024 1024" version="1.1" xmlns="http://www.w3.org/2000/svg"><path d="M362.41 217.51c-23.342-2.594-58.404 5.904-77.904 18.936L35.514 402.442c-19.562 13-35.5 42.874-35.5 66.31v511.986c0 23.468 19.188 42.686 42.656 42.686H981.3c23.468 0 42.686-19.216 42.686-42.686V468.752c0-23.438-15.968-53.31-35.498-66.31l-171.806-114.528c-19.532-13.062-54.594-25.844-77.906-28.406l-376.366-41.998z" fill="#FFCE54" /><path d="M738.806 259.508l-188.212-21-188.184-20.998c-23.31-2.594-58.342 5.904-77.904 18.904l-124.496 83.03-124.496 82.998c-11.876 7.906-22.438 22.062-28.876 37.186l504.58 331.804L1016.956 438.66c-6.5-14.812-16.842-28.468-28.466-36.218l-85.904-57.28-85.964-57.31c-19.502-13-54.502-25.782-77.816-28.344z" fill="#F6BB42" /><path d="M895.958 518.252l-384.926 253.18L127.98 519.44V0.576h597.326l170.652 170.716z" fill="#E6E9ED" /><path d="M530.158 608.248c-20.502-33.404 1.216-57.966 3.78-60.654l-0.188 0.156-30.344-29.998c-16.81 17.03-40.466 62.53-9.594 112.84 23.284 37.938-0.374 83.654-0.624 84.092l18.81 10.06 18.75 10.156c1.47-2.718 35.72-67.496-0.59-126.652z" fill="#CCD1D9" /><path d="M533.312 511.44h-0.032v-25.656h-42.654v25.656c-11.782 0-21.312 9.562-21.312 21.31 0 11.782 9.562 21.344 21.344 21.344h42.654c11.782 0 21.344-9.562 21.344-21.344 0-11.78-9.562-21.31-21.344-21.31z" fill="#967ADC" /><path d="M725.306 171.292h170.652L725.306 0.576z" fill="#CCD1D9" /><path d="M682.652 319.444c0 106.03-76.404 191.996-170.652 191.996-94.278 0-170.682-85.966-170.682-191.996 0-106.058 76.404-191.994 170.682-191.994 94.248 0 170.652 85.934 170.652 191.994z" fill="#AC92EB" /><path d="M511.968 191.448c-58.874 0-106.622 57.28-106.652 127.934v0.062c0 11.782 9.562 21.312 21.342 21.312 11.782 0 21.344-9.532 21.344-21.312 0-23.906 7.782-46.936 21.344-63.216 11.906-14.25 27.03-22.124 42.624-22.124 11.784 0 21.344-9.562 21.344-21.342-0.002-11.784-9.562-21.314-21.346-21.314z" fill="#FFFFFF" opacity=".2" /><path d="M192.01 852.742H106.668c-11.782 0-21.344-9.532-21.344-21.31 0-11.782 9.562-21.344 21.344-21.344h85.342c11.748 0 21.31 9.562 21.31 21.344 0 11.778-9.562 21.31-21.31 21.31zM362.66 938.084H106.668c-11.782 0-21.344-9.562-21.344-21.344s9.562-21.312 21.344-21.312H362.66c11.782 0 21.344 9.532 21.344 21.312s-9.562 21.344-21.344 21.344z" fill="#434A54" /><path d="M558.718 750.088c-11.718-13.094-28.716-21.344-47.688-21.344-18.936 0-35.966 8.25-47.686 21.344l-16.312 21.344v21.312c0 35.376 28.656 63.998 63.998 63.998 35.344 0 63.998-28.624 63.998-63.998v-21.312l-16.31-21.344z" fill="#DA4453" /><path d="M511.032 771.432m-63.998 0a63.998 63.998 0 1 0 127.996 0 63.998 63.998 0 1 0-127.996 0Z" fill="#ED5564" /></svg>