<?xml version="1.0" standalone="no"?><!DOCTYPE svg PUBLIC "-//W3C//DTD SVG 1.1//EN" "http://www.w3.org/Graphics/SVG/1.1/DTD/svg11.dtd"><svg class="icon" width="128px" height="128.00px" viewBox="0 0 1024 1024" version="1.1" xmlns="http://www.w3.org/2000/svg"><path d="M21.8 831.99c7.36-170.402 104.464-276.022 303.91-331.428 183.822-51.06 433.342-52.53 676.96-52.56v383.988H21.8z" fill="#FECD57" /><path d="M1002.67 170.668H277.336c-11.78 0-21.328 9.562-21.328 21.344 0 11.78 9.546 21.342 21.328 21.342h703.958v213.338C483.938 427.004 0.02 438.534 0.02 853.332h1023.96V192.012c0-11.782-9.562-21.344-21.31-21.344z m-21.376 639.978H44.658c6.812-71.124 31.374-128.622 74.544-174.87 23.828-25.532 54.076-48.154 89.918-67.308 34.624-18.5 75.78-34.438 122.308-47.376 83.138-23.062 187.462-37.844 318.94-45.156 105.372-5.842 219.182-6.53 330.926-6.592v341.302z" fill="#F5BA45" /><path d="M553.124 703.994c-23.532 0-42.672-19.156-42.672-42.656 0-23.53 19.14-42.686 42.672-42.686 23.53 0 42.686 19.156 42.686 42.686 0 23.5-19.156 42.656-42.686 42.656z" fill="#F4F6F9" /><path d="M553.124 597.342c-35.344 0-64 28.654-64 63.996 0 35.344 28.656 63.998 64 63.998 35.342 0 63.996-28.654 63.996-63.998 0.002-35.342-28.654-63.996-63.996-63.996z m0 85.308c-11.766 0-21.328-9.562-21.328-21.312 0-11.782 9.562-21.342 21.328-21.342 11.75 0 21.31 9.56 21.31 21.342 0.002 11.75-9.558 21.312-21.31 21.312z" fill="#E5E8EC" /></svg>