<?xml version="1.0" standalone="no"?><!DOCTYPE svg PUBLIC "-//W3C//DTD SVG 1.1//EN" "http://www.w3.org/Graphics/SVG/1.1/DTD/svg11.dtd"><svg class="icon" width="128px" height="128.00px" viewBox="0 0 1024 1024" version="1.1" xmlns="http://www.w3.org/2000/svg"><path d="M435.752 132.618c5.344 10.5 1.218 23.342-9.28 28.718l-113.934 58.342c-10.468 5.376-23.342 1.218-28.718-9.282l-40.092-78.31c-5.376-10.5-1.218-23.342 9.282-28.716l113.902-58.342c10.5-5.344 23.344-1.218 28.718 9.28l40.122 78.31z" fill="#434A54" /><path d="M256.01 200.678c0 11.78-9.532 21.342-21.312 21.342-11.78 0-21.342-9.562-21.342-21.342 0-11.782 9.562-21.312 21.342-21.312a21.3 21.3 0 0 1 21.312 21.312z" fill="#E6E9ED" /><path d="M810.678 448.014c0 11.78-9.562 21.34-21.344 21.34s-21.344-9.562-21.344-21.34c0-11.782 9.562-21.344 21.344-21.344s21.344 9.562 21.344 21.344z"  /><path d="M938.672 42.684C99.954-41.75 42.706 554.664 42.706 554.664H868.86c56.844-98.652 155.122-85.31 155.122-85.31L938.672 42.684z m-117.338 277.24l-404.986 0.094c31.342-62.904 85.684-109.622 161.87-139.088 76.746-29.688 160.304-35.938 216.868-35.938 26.25 0 47.592 1.344 61.026 2.5l17.312 103.028-52.09 69.404z" fill="#AC92EB" /><path d="M62.58 469.354c-16.594 50.998-19.876 85.31-19.876 85.31H868.86c38.718-67.184 96.654-82.434 129.652-85.31H62.58z" fill="#E6E9ED" /><path d="M703.992 277.238h-127.994c-11.782 0.032-21.31 9.562-21.31 21.344s9.53 21.342 21.31 21.342h127.994c11.782 0 21.342-9.562 21.342-21.342s-9.56-21.344-21.342-21.344zM938.64 362.672c0 11.782-9.562 21.342-21.344 21.342s-21.312-9.562-21.312-21.342 9.532-21.342 21.312-21.342 21.344 9.56 21.344 21.342z" fill="#434A54" /><path d="M810.678 533.352c-11.782 0-21.344 9.532-21.344 21.312h42.654a21.296 21.296 0 0 0-21.31-21.312zM725.334 533.352c-11.78 0-21.342 9.532-21.342 21.312h42.686c0-11.782-9.562-21.312-21.344-21.312zM639.994 533.352a21.296 21.296 0 0 0-21.31 21.312h42.654c0-11.782-9.562-21.312-21.344-21.312zM554.688 533.352c-11.782 0-21.344 9.532-21.344 21.312h42.654a21.298 21.298 0 0 0-21.31-21.312zM469.344 533.352c-11.78 0-21.342 9.532-21.342 21.312h42.686c0-11.782-9.562-21.312-21.344-21.312zM384.004 533.352a21.3 21.3 0 0 0-21.312 21.312h42.656c0-11.782-9.562-21.312-21.344-21.312zM298.696 533.352c-11.78 0-21.342 9.532-21.342 21.312h42.656a21.3 21.3 0 0 0-21.314-21.312zM213.356 533.352c-11.782 0-21.342 9.532-21.342 21.312h42.684c0-11.782-9.562-21.312-21.342-21.312zM128.014 533.352a21.3 21.3 0 0 0-21.312 21.312h42.654c0.002-11.782-9.562-21.312-21.342-21.312zM853.332 618.662H42.706c-11.78 0-21.342-9.532-21.342-21.312 0-11.78 9.562-21.342 21.342-21.342h810.626c11.778 0 21.34 9.562 21.34 21.342s-9.562 21.312-21.34 21.312z" fill="#CCD1D9" /><path d="M1002.668 640.004H21.362c-11.782 0-21.342 9.56-21.342 21.342v298.646c0 9.188 5.876 17.344 14.592 20.25l63.998 21.31c5.376 1.782 11.218 1.376 16.282-1.156l33.124-16.562 33.124 16.562c6 3 13.092 3 19.092 0l33.124-16.562 33.124 16.562c6 3 13.062 3 19.092 0l33.124-16.562 33.124 16.562c6 3 13.062 3 19.062 0l33.124-16.562 33.124 16.562c6 3 13.092 3 19.092 0l33.124-16.562 33.124 16.562c6 3 13.062 3 19.094 0l33.124-16.562 33.124 16.562c5.998 3 13.06 3 19.06 0l33.124-16.562 33.124 16.562a21.388 21.388 0 0 0 19.092 0l33.124-16.562 33.124 16.562c6 3 13.062 3 19.094 0l33.124-16.562 33.124 16.562c6 3 13.058 3 19.058 0l33.124-16.562 33.124 16.562a21.354 21.354 0 0 0 16.282 1.156l63.996-21.31a21.342 21.342 0 0 0 14.594-20.25V661.346c0-11.782-9.53-21.342-21.312-21.342z" fill="#5D9CEC" /><path d="M85.33 277.362c-4.406 0-8.876-1.376-12.718-4.25-9.436-7.03-11.406-20.374-4.376-29.842 0.062-0.062 9.5-13.124 13.876-30.124 5.062-19.75 1.188-35.686-11.844-48.716-24.312-24.312-32.126-55.81-22.562-91.06 6.562-24.186 19.124-41.53 20.53-43.404 7.032-9.468 20.406-11.438 29.876-4.376 9.406 7 11.374 20.344 4.406 29.78-0.312 0.406-9.592 13.376-13.906 30.186-5.094 19.75-1.218 35.686 11.842 48.716 24.312 24.312 32.124 55.81 22.562 91.06-6.562 24.186-19.124 41.53-20.562 43.434a21.26 21.26 0 0 1-17.124 8.596z" fill="#E6E9ED" /><path d="M0.02 853.34h1023.96v42.654H0.02z" fill="#4A89DC" /></svg>