<?xml version="1.0" standalone="no"?><!DOCTYPE svg PUBLIC "-//W3C//DTD SVG 1.1//EN" "http://www.w3.org/Graphics/SVG/1.1/DTD/svg11.dtd"><svg class="icon" width="128px" height="128.00px" viewBox="0 0 1024 1024" version="1.1" xmlns="http://www.w3.org/2000/svg"><path d="M1023.996 225.108c0-11.782-9.532-21.344-21.312-21.344a21.28 21.28 0 0 0-8.594 1.812l-136.25 60.032 17.188 39.032 135.906-59.876a0.304 0.304 0 0 0 0.094-0.032l0.25-0.124c7.5-3.314 12.718-10.782 12.718-19.5z" fill="#434A54" /><path d="M966.558 270.482l-28.812-57.156c-5.312-10.5-18.124-14.75-28.656-9.438l-126.688 63.876h70.938v83.686l103.782-52.312c10.5-5.312 14.75-18.124 9.436-28.656z" fill="#656D78" /><path d="M220.064 326.106l113.906-58.342 40.124 78.342-113.906 58.312z" fill="#E6E9ED" /><path d="M393.094 336.356l-40.124-78.312a21.34 21.34 0 0 0-28.718-9.28l-113.906 58.344c-10.5 5.374-14.656 18.218-9.282 28.718l40.094 78.342c3.782 7.376 11.282 11.594 19.032 11.594 3.25 0 6.594-0.75 9.688-2.344l113.936-58.342c10.498-5.376 14.624-18.22 9.28-28.72z m-123.656 39.376l-20.688-40.376 75.968-38.874 20.656 40.342-75.936 38.908z" fill="#CCD1D9" /><path d="M213.344 404.45c0 11.782-9.562 21.312-21.344 21.312-11.75 0-21.312-9.532-21.312-21.312 0-11.78 9.562-21.342 21.312-21.342 11.782-0.002 21.344 9.56 21.344 21.342z" fill="#5D9CEC" /><path d="M895.996 246.42C57.284 161.982 0.002 758.402 0.002 758.402h826.212c56.844-98.624 155.124-85.312 155.124-85.312L895.996 246.42z m-117.312 277.232l-404.996 0.124c31.344-62.922 85.688-109.64 161.876-139.108 76.718-29.688 160.282-35.938 216.872-35.938 26.25 0 47.594 1.344 61 2.5l17.344 103.03-52.096 69.392z" fill="#48CFAD" /><path d="M810.684 779.778H21.346c-11.782 0-21.342 9.562-21.342 21.31 0 11.812 9.562 21.312 21.342 21.312h789.338c11.782 0 21.312-9.5 21.312-21.312 0-11.748-9.532-21.31-21.312-21.31z" fill="#CCD1D9" /><path d="M955.902 673.09H19.908c-16.594 51-19.906 85.312-19.906 85.312h826.212c38.72-67.188 96.658-82.438 129.688-85.312z" fill="#E6E9ED" /><path d="M661.344 481.012h-128c-11.782 0-21.344 9.532-21.344 21.312s9.562 21.328 21.344 21.328h128c11.782 0 21.344-9.546 21.344-21.328s-9.564-21.312-21.344-21.312z" fill="#37BC9B" /><path d="M895.996 566.402c0 11.812-9.562 21.376-21.344 21.376s-21.312-9.562-21.312-21.376c0-11.75 9.532-21.312 21.312-21.312s21.344 9.562 21.344 21.312z" fill="#434A54" /><path d="M767.996 737.09c-11.782 0-21.312 9.562-21.312 21.312h42.656c0-11.75-9.562-21.312-21.344-21.312zM682.688 737.09c-11.782 0-21.344 9.562-21.344 21.312h42.652c0-11.75-9.528-21.312-21.308-21.312zM597.344 737.09c-11.782 0-21.344 9.562-21.344 21.312h42.688c0-11.75-9.564-21.312-21.344-21.312zM512 737.09c-11.782 0-21.312 9.562-21.312 21.312h42.656c0-11.75-9.562-21.312-21.344-21.312zM426.688 737.09c-11.782 0-21.344 9.562-21.344 21.312H448c0-11.75-9.532-21.312-21.312-21.312zM341.344 737.09c-11.782 0-21.344 9.562-21.344 21.312h42.686c0.002-11.75-9.562-21.312-21.342-21.312zM256 737.09c-11.782 0-21.312 9.562-21.312 21.312h42.656c0-11.75-9.562-21.312-21.344-21.312zM170.69 737.09c-11.782 0-21.344 9.562-21.344 21.312H192c0-11.75-9.53-21.312-21.31-21.312zM85.346 737.09c-11.782 0-21.344 9.562-21.344 21.312h42.688c0-11.75-9.564-21.312-21.344-21.312z" fill="#CCD1D9" /><path d="M903.934 285.952l-7.938-39.532C57.284 161.982 0.002 758.402 0.002 758.402h50.53c31.564-132.688 182.126-526.358 853.402-472.45z" fill="#FFFFFF" opacity=".2" /></svg>