<?xml version="1.0" standalone="no"?><!DOCTYPE svg PUBLIC "-//W3C//DTD SVG 1.1//EN" "http://www.w3.org/Graphics/SVG/1.1/DTD/svg11.dtd"><svg class="icon" width="128px" height="128.00px" viewBox="0 0 1024 1024" version="1.1" xmlns="http://www.w3.org/2000/svg"><path d="M192.004 863.986h-3.734L675.06 455.104l-27.438-32.672L121.928 863.986h-15.25c-11.782 0-21.344 9.562-21.344 21.312 0 11.812 9.562 21.374 21.344 21.374h85.326c11.782 0 21.328-9.56 21.328-21.374 0-11.75-9.546-21.312-21.328-21.312z" fill="#434A54" /><path d="M789.308 863.986h-15.25L248.394 422.432l-27.438 32.672 486.79 408.882h-3.75c-11.782 0-21.312 9.562-21.312 21.312 0 11.812 9.532 21.374 21.312 21.374h85.312c11.812 0 21.374-9.56 21.374-21.374 0-11.75-9.56-21.312-21.374-21.312z" fill="#656D78" /><path d="M917.304 394.666c0 11.782-9.532 21.328-21.312 21.328s-21.312-9.546-21.312-21.328 9.532-21.342 21.312-21.342 21.312 9.56 21.312 21.342zM981.304 394.666c0 11.782-9.532 21.328-21.312 21.328s-21.312-9.546-21.312-21.328 9.532-21.342 21.312-21.342 21.312 9.56 21.312 21.342z" fill="#CCD1D9" /><path d="M1002.68 351.996h-166.624v42.67h166.624c11.75 0 21.312-9.562 21.312-21.342 0-11.782-9.562-21.328-21.312-21.328zM703.996 202.67l-85.31-85.342-85.358 85.342v170.654h170.668z" fill="#E6E9ED" /><path d="M853.306 479.994H128.006C0.008 479.994 0.008 351.996 0.008 351.996h853.298v127.998z" fill="#48CFAD" /><path d="M170.678 373.324c11.78 0 21.326-9.546 21.326-21.328H149.334c0 11.782 9.562 21.328 21.344 21.328zM298.674 373.324c11.782 0 21.328-9.546 21.328-21.328h-42.67c0 11.782 9.56 21.328 21.342 21.328zM426.672 373.324c11.782 0 21.328-9.546 21.328-21.328h-42.672c0 11.782 9.562 21.328 21.344 21.328zM554.688 373.324c11.75 0 21.31-9.546 21.31-21.328h-42.67c0 11.782 9.562 21.328 21.36 21.328zM682.684 373.324c11.75 0 21.312-9.546 21.312-21.328h-42.688c0 11.782 9.564 21.328 21.376 21.328z" fill="#37BC9B" /><path d="M618.686 245.326c0 11.782-9.562 21.342-21.376 21.342-11.75 0-21.312-9.56-21.312-21.342s9.562-21.328 21.312-21.328c11.814 0 21.376 9.546 21.376 21.328zM661.308 287.996c0 11.782-9.532 21.328-21.312 21.328-11.78 0-21.31-9.546-21.31-21.328s9.532-21.328 21.31-21.328c11.782 0 21.312 9.546 21.312 21.328z" fill="#CCD1D9" /><path d="M426.672 309.324H106.678c-11.782 0-21.344 9.562-21.344 21.344s9.562 21.328 21.344 21.328h319.994c11.782 0 21.328-9.546 21.328-21.328s-9.546-21.344-21.328-21.344z" fill="#AC92EB" /></svg>