<?xml version="1.0" standalone="no"?><!DOCTYPE svg PUBLIC "-//W3C//DTD SVG 1.1//EN" "http://www.w3.org/Graphics/SVG/1.1/DTD/svg11.dtd"><svg class="icon" width="128px" height="128.00px" viewBox="0 0 1024 1024" version="1.1" xmlns="http://www.w3.org/2000/svg"><path d="M469.33 298.7c-35.28 0-63.998 28.686-63.998 63.998 0 35.28 28.716 63.966 63.998 63.966 35.296 0 64-28.686 64-63.966-0.002-35.312-28.706-63.998-64-63.998z" fill="#7F4545" /><path d="M618.964 406.666c-39.904-64.904-92.434-102.498-94.636-104.06a21.336 21.336 0 0 0-32.968 22.812c0.156 0.594 14.876 57.716 13.938 126.808-0.546 39.782-6.11 75.686-16.532 106.748-12.656 37.624-32.578 68.154-59.216 90.746a21.376 21.376 0 0 0-6.36 23.282 21.32 21.32 0 0 0 19.39 14.312l170.572 6.062h0.75c8.156 0 15.624-4.656 19.218-12.032 44.564-92.124 39.658-187.12-14.156-274.678z" fill="#965353" /><path d="M878.174 859.054c-29.624-60.436-70.09-109.558-120.34-145.996-66.872-48.464-149.588-73.056-245.834-73.056s-178.948 24.592-245.836 73.056c-50.232 36.438-90.714 85.56-120.324 145.996a21.322 21.322 0 0 0 1.062 20.656 21.326 21.326 0 0 0 18.092 10.062h693.99c7.376 0 14.218-3.812 18.124-10.062a21.396 21.396 0 0 0 1.066-20.656z" fill="#FFCE54" /><path d="M1.112 860.43h1022.872v142.214H1.112z" fill="#5D9CEC" /><path d="M574.56 34.99a21.282 21.282 0 0 0-20.532-13.624c-3.468 0.124-85.512 3.186-130.98 58.122-24.966 30.156-33.842 69.154-26.404 115.902 16.422 102.996 102.684 142.496 106.34 144.12a21.32 21.32 0 0 0 8.672 1.844c7.204 0 14.188-3.656 18.172-10.156 0.546-0.906 13.624-22.312 21.17-52.06 10.438-41.124 5.594-78.934-14.03-109.34-14.032-21.78-13.64-45.5 1.188-72.56 12.374-22.562 30.28-38.218 30.404-38.342a21.308 21.308 0 0 0 6-23.906z" fill="#8CC153" /><path d="M463.08 710.248c8.344 8.342 8.344 21.842 0 30.154a21.294 21.294 0 0 1-30.156 0c-8.344-8.312-8.344-21.812 0-30.154a21.294 21.294 0 0 1 30.156 0zM548.438 795.588c8.31 8.312 8.31 21.812 0 30.154-8.36 8.344-21.86 8.344-30.188 0-8.328-8.342-8.328-21.842 0-30.154 8.328-8.342 21.828-8.342 30.188 0zM335.084 710.248c8.344 8.342 8.344 21.842 0 30.154a21.294 21.294 0 0 1-30.156 0c-8.344-8.312-8.344-21.812 0-30.154a21.294 21.294 0 0 1 30.156 0zM420.424 795.588c8.328 8.312 8.328 21.812 0 30.154-8.326 8.344-21.842 8.344-30.17 0-8.328-8.342-8.328-21.842 0-30.154 8.328-8.342 21.844-8.342 30.17 0zM292.428 795.588c8.328 8.312 8.328 21.812 0 30.154-8.328 8.344-21.842 8.344-30.17 0-8.328-8.342-8.328-21.842 0-30.154 8.328-8.342 21.842-8.342 30.17 0zM591.09 710.248c8.312 8.342 8.312 21.842 0 30.154a21.33 21.33 0 0 1-30.186 0c-8.312-8.312-8.312-21.812 0-30.154a21.33 21.33 0 0 1 30.186 0zM676.434 795.588c8.31 8.312 8.31 21.812 0 30.154a21.332 21.332 0 0 1-30.188 0c-8.312-8.342-8.312-21.842 0-30.154a21.336 21.336 0 0 1 30.188 0zM719.084 710.248c8.312 8.342 8.312 21.842 0 30.154a21.328 21.328 0 0 1-30.184 0c-8.31-8.312-8.31-21.812 0-30.154a21.328 21.328 0 0 1 30.184 0zM804.428 795.588c8.312 8.312 8.312 21.812 0 30.154a21.332 21.332 0 0 1-30.188 0c-8.344-8.342-8.344-21.842 0-30.154a21.336 21.336 0 0 1 30.188 0z" fill="#F6BB42" /><path d="M868.486 219.672c-3.25-3.282-80.528-80.124-175.586-80.124-23.124 0-45.53 4.594-66.592 13.688-62.966 27.092-98.308 76.996-116.886 114.276a146 146 0 0 0-4.906-6.376c-19.906-24.406-56.92-53.684-120.214-54.59-0.656-0.032-1.328-0.032-2-0.032-133.372 0-187.26 185.462-189.494 193.368-2.734 9.718 1.704 20 10.64 24.686a21.534 21.534 0 0 0 9.89 2.438c6.202 0 12.296-2.718 16.468-7.75 0.67-0.812 67.122-80.09 148.636-80.09 7.17 0 14.374 0.624 21.39 1.876 19.388 3.376 39.436 5.094 59.56 5.094h0.016c29.89 0 51-3.812 56.03-4.812 1.14 0 2.468 0.032 4.032 0.032 15.156 0 45.404-1.124 77.558-8.532 42.718-9.812 74.344-27.342 94.03-52.092 19.06-23.968 48.934-36.156 88.746-36.156 35.844 0 66.342 10.186 66.592 10.28 9.374 3.218 19.748-0.438 24.998-8.842a21.304 21.304 0 0 0-2.908-26.342z" fill="#A0D468" /><path d="M682.652 895.992c-3.25 0-6.532-0.75-9.532-2.25l-33.124-16.562-33.124 16.562c-6 3-13.062 3-19.094 0l-33.124-16.562-33.124 16.562c-6 3-13.062 3-19.078 0l-33.124-16.562-33.124 16.562c-6 3-13.078 3-19.078 0l-33.124-16.562-33.124 16.562a21.346 21.346 0 0 1-19.078 0l-33.124-16.562-33.124 16.562a21.376 21.376 0 0 1-19.092 0l-33.124-16.562-33.124 16.562c-6 3-13.062 3-19.078 0l-33.124-16.562-33.124 16.562a21.344 21.344 0 0 1-16.28 1.156L14.612 873.554c-11.188-3.718-17.218-15.812-13.5-26.968 3.734-11.188 15.812-17.218 26.982-13.5l55.624 18.532 34.75-17.376a21.38 21.38 0 0 1 19.094 0l33.124 16.562 33.124-16.562c6-3 13.078-3 19.078 0l33.124 16.562 33.124-16.562c6.016-3 13.078-3 19.078 0l33.124 16.562 33.124-16.562c6.016-3 13.078-3 19.078 0l33.138 16.562 33.124-16.562c6-3 13.062-3 19.078 0l33.12 16.562 33.124-16.562c5.998-3 13.092-3 19.092 0l33.124 16.562 33.124-16.562c6-3 13.062-3 19.062 0l33.124 16.562 33.152-16.562c5.998-3 13.06-3 19.06 0l33.124 16.562 33.124-16.562c6-3 13.094-3 19.092 0l33.124 16.562 33.124-16.562c6-3 13.062-3 19.062 0l34.782 17.376 55.59-18.532c11.188-3.718 23.282 2.312 27 13.5 3.718 11.156-2.312 23.25-13.5 26.968l-63.996 21.344a21.354 21.354 0 0 1-16.282-1.156l-33.124-16.562-33.124 16.562c-6 3-13.062 3-19.092 0l-33.124-16.562-33.124 16.562c-6 3-13.062 3-19.062 0l-33.124-16.562-33.122 16.562a21.364 21.364 0 0 1-9.558 2.25z" fill="#4A89DC" /><path d="M554.686 576.002h-72.388c-6.578 15.656-14.578 29.906-23.938 42.656h96.326c11.782 0 21.312-9.532 21.312-21.312s-9.532-21.344-21.312-21.344zM655.09 490.662H597.34c-11.782 0-21.342 9.562-21.342 21.344 0 11.78 9.56 21.342 21.342 21.342h64.968a264.178 264.178 0 0 0-7.218-42.686z" fill="#7F4545" /></svg>