<?xml version="1.0" standalone="no"?><!DOCTYPE svg PUBLIC "-//W3C//DTD SVG 1.1//EN" "http://www.w3.org/Graphics/SVG/1.1/DTD/svg11.dtd"><svg class="icon" width="128px" height="128.00px" viewBox="0 0 1024 1024" version="1.1" xmlns="http://www.w3.org/2000/svg"><path d="M448 809.344h128V1024h-128z" fill="#434A54" /><path d="M597.344 832c0 11.782-9.562 21.344-21.344 21.344h-128c-11.782 0-21.344-9.562-21.344-21.344V552c0-11.782 9.562-21.344 21.344-21.344h128c11.782 0 21.344 9.562 21.344 21.344v280z" fill="#E9573F" /><path d="M576 513.344h-128V42.672L511.624 0 576 42.672z" fill="#FFCE54" /><path d="M448 810.656c0-11.782-9.562-21.312-21.344-21.312V832c11.782 0 21.344-9.562 21.344-21.344zM576 809.344c0 11.782 9.562 21.312 21.344 21.312V788c-11.782 0-21.344 9.562-21.344 21.344z" opacity=".1" /><path d="M640 746.656c0 11.782-9.562 21.344-21.344 21.344H405.344c-11.782 0-21.344-9.562-21.344-21.344v-384c0-11.782 9.562-21.312 21.344-21.312h213.312c11.782 0 21.344 9.532 21.344 21.312v384z" fill="#FC6E51" /><path d="M448 106.672h128v42.672h-128zM448 192h128v42.656h-128z" fill="#F6BB42" /><path d="M512 426.656c-11.782 0-21.344 9.562-21.344 21.344v213.344c0 11.782 9.562 21.312 21.344 21.312s21.344-9.532 21.344-21.312V448c0-11.782-9.562-21.344-21.344-21.344z" fill="#E9573F" /></svg>