<?xml version="1.0" standalone="no"?><!DOCTYPE svg PUBLIC "-//W3C//DTD SVG 1.1//EN" "http://www.w3.org/Graphics/SVG/1.1/DTD/svg11.dtd"><svg class="icon" width="128px" height="128.00px" viewBox="0 0 1024 1024" version="1.1" xmlns="http://www.w3.org/2000/svg"><path d="M682.696 212h128v812h-128z" fill="#ED5564" /><path d="M213.336 170.656l-42.656-64 42.656-64h439.86v128z" fill="#FFCE54" /><path d="M832.008 533.344c0 11.782-9.562 21.282-21.312 21.282h-128c-11.812 0-21.376-9.5-21.376-21.282v-248c0-11.782 9.562-21.344 21.376-21.344h128c11.75 0 21.312 9.562 21.312 21.344v248z" fill="#434A54" /><path d="M810.696 426.656c0 11.782 9.562 21.344 21.312 21.344v-42.656c-11.75 0-21.312 9.532-21.312 21.312zM810.696 469.344c0 11.782 9.562 21.312 21.312 21.312V448c-11.75 0-21.312 9.562-21.312 21.344zM810.696 512c0 11.782 9.562 21.344 21.312 21.344v-42.688c-11.75 0-21.312 9.562-21.312 21.344zM682.696 512c0-11.782-9.562-21.344-21.376-21.344v42.688c11.812 0 21.376-9.562 21.376-21.344zM682.696 469.344c0-11.782-9.562-21.344-21.376-21.344v42.656c11.812 0 21.376-9.532 21.376-21.312zM682.696 426.656c0-11.782-9.562-21.312-21.376-21.312V448c11.812 0 21.376-9.562 21.376-21.344z" opacity=".2" /><path d="M661.32 0h-170.64c-11.718 0-21.344 9.594-21.344 21.344V192c0 11.718 9.624 21.344 21.344 21.344h128.016c11.75 0 21.312 9.594 21.312 21.312v128c0 11.75 9.624 21.344 21.312 21.344h170.688c11.75 0 21.312-9.594 21.312-21.344V21.344C853.32 9.594 843.758 0 832.008 0H661.32z" fill="#656D78" /><path d="M277.336 42.656h42.688v128h-42.688zM362.68 42.656h42.656v128H362.68z" fill="#F6BB42" /></svg>