<?xml version="1.0" standalone="no"?><!DOCTYPE svg PUBLIC "-//W3C//DTD SVG 1.1//EN" "http://www.w3.org/Graphics/SVG/1.1/DTD/svg11.dtd"><svg class="icon" width="128px" height="128.00px" viewBox="0 0 1024 1024" version="1.1" xmlns="http://www.w3.org/2000/svg"><path d="M938.664 853.332H85.336v-575.98c0-117.824 95.512-213.336 213.336-213.336h426.624c117.84 0 213.368 95.512 213.368 213.336v575.98z" fill="#5E9CEA" /><path d="M234.674 217.354h554.62V1023.98h-554.62z" fill="#5E9CEA" /><path d="M490.666 115.39h42.656V1023.98h-42.656z" fill="#4B89DA" /><path d="M554.68 490.672c0 11.782-9.562 21.328-21.36 21.328-11.782 0-21.328-9.546-21.328-21.328s9.546-21.328 21.328-21.328c11.798 0.002 21.36 9.548 21.36 21.328zM554.68 618.684c0 11.75-9.562 21.312-21.36 21.312-11.782 0-21.328-9.562-21.328-21.312a21.318 21.318 0 0 1 21.328-21.342c11.798 0 21.36 9.53 21.36 21.342zM554.68 362.678c0 11.78-9.562 21.328-21.36 21.328-11.782 0-21.328-9.546-21.328-21.328s9.546-21.328 21.328-21.328c11.798 0 21.36 9.546 21.36 21.328zM554.68 746.678c0 11.75-9.562 21.312-21.36 21.312-11.782 0-21.328-9.562-21.328-21.312a21.32 21.32 0 0 1 21.328-21.342c11.798 0 21.36 9.532 21.36 21.342z" fill="#424953" /><path d="M737.046 92.876L511.992 159.608 281.72 92.876V0.02h455.326z" fill="#CBD0D8" /><path d="M554.68 874.676c0 11.748-9.562 21.308-21.36 21.308-11.782 0-21.328-9.56-21.328-21.308 0-11.812 9.546-21.344 21.328-21.344 11.798 0 21.36 9.532 21.36 21.344z" fill="#424953" /><path d="M780.608 19.144C773.702 10.426 760.42 0.02 736.422 0.02c-36.03 0-87.716 24.218-138.244 64.748-36.53 29.296-66.358 62.326-86.186 94.84-19.828-32.514-49.638-65.544-86.168-94.84C375.278 24.238 323.592 0.02 287.58 0.02c-24.014 0-37.296 10.406-44.218 19.124-12.156 15.296-14.89 37.748-8.14 66.732 12.342 52.936 63.498 93.388 152.056 120.23 62.278 18.89 120.464 23.968 122.916 24.172 0.594 0.062 1.188 0.078 1.782 0.078h0.032c0.594 0 1.188-0.016 1.782-0.078 2.454-0.204 60.638-5.282 122.918-24.172 88.558-26.842 139.712-67.294 152.056-120.23 6.75-28.984 4.03-51.436-8.156-66.732z" fill="#E5E8EC" /><path d="M85.336 789.334h149.338v63.998H85.336zM789.294 789.334h149.37v63.998h-149.37z" fill="#4B89DA" /><path d="M128.006 821.334c0 11.782-9.546 21.344-21.328 21.344-11.78 0-21.342-9.562-21.342-21.344s9.562-21.344 21.342-21.344c11.782 0 21.328 9.562 21.328 21.344zM938.664 821.334c0 11.782-9.562 21.344-21.376 21.344-11.75 0-21.312-9.562-21.312-21.344s9.562-21.344 21.312-21.344c11.814 0 21.376 9.562 21.376 21.344z" fill="#424953" /><path d="M831.982 362.678c0-11.782-9.562-21.328-21.312-21.328-11.812 0-21.376 9.546-21.376 21.328v490.654h42.688V362.678zM234.674 362.678c0-11.782-9.562-21.328-21.344-21.328-11.78 0-21.328 9.546-21.328 21.328v490.654h42.67V362.678z" opacity=".1" /></svg>