<?xml version="1.0" standalone="no"?><!DOCTYPE svg PUBLIC "-//W3C//DTD SVG 1.1//EN" "http://www.w3.org/Graphics/SVG/1.1/DTD/svg11.dtd"><svg class="icon" width="128px" height="128.00px" viewBox="0 0 1024 1024" version="1.1" xmlns="http://www.w3.org/2000/svg"><path d="M469.322 682.558v298.774l42.656 42.652 42.702-42.652V682.558z" fill="#424953" /><path d="M426.666 383.94h170.638v341.274h-170.638z" fill="#E5E8EC" /><path d="M661.3 341.288h-298.6c-11.78 0-21.342 9.53-21.342 21.312v63.998c0 11.782 9.562 21.342 21.342 21.342h298.6c11.75 0 21.312-9.562 21.312-21.342V362.6c0.002-11.782-9.562-21.312-21.312-21.312z" fill="#F4F6F9" /><path d="M426.666 597.25h170.638v127.964h-170.638z" fill="#5E9CEA" /><path d="M192.048 298.63a21.346 21.346 0 0 1-15.092-6.25c-8.312-8.344-8.312-21.842 0-30.186l85.342-85.31c8.312-8.312 21.812-8.312 30.156 0a21.33 21.33 0 0 1 0 30.186l-85.31 85.31a21.352 21.352 0 0 1-15.096 6.25z" fill="#646C77" /><path d="M917.23 106.668H106.738c-23.562 0-42.656 19.092-42.656 42.654 0 23.562 19.094 42.656 42.656 42.656h810.492c23.562 0 42.688-19.092 42.688-42.656 0-23.562-19.126-42.654-42.688-42.654z" fill="#424953" /><path d="M703.988 0.014H320.014c-35.28 0-63.966 28.686-63.966 63.966v255.962c0 35.28 28.686 63.998 63.966 63.998h383.974c35.25 0 63.934-28.716 63.934-63.998V63.982c0-35.28-28.684-63.968-63.934-63.968z" fill="#5E9CEA" /><path d="M703.988 0.014H320.014c-35.28 0-63.966 28.686-63.966 63.966v255.962c0 35.28 28.686 63.998 63.966 63.998h383.974c35.25 0 63.934-28.716 63.934-63.998V63.982c0-35.28-28.684-63.968-63.934-63.968z" fill="#5E9CEA" /><path d="M597.304 85.326c11.808 0 21.308-9.562 21.308-21.344V0.014h-42.622V63.98c0.002 11.782 9.564 21.346 21.314 21.346zM512.008 85.326c11.78 0 21.312-9.562 21.312-21.344V0.014h-42.656V63.98c0.002 11.782 9.564 21.346 21.344 21.346zM426.666 85.326c11.78 0 21.342-9.562 21.342-21.344V0.014h-42.656V63.98c0.002 11.782 9.534 21.346 21.314 21.346z" fill="#4B89DA" /><path d="M575.992 255.976h-127.982c-11.782 0-21.342-9.562-21.342-21.344s9.562-21.344 21.342-21.344h127.982c11.75 0 21.312 9.562 21.312 21.344s-9.562 21.344-21.312 21.344z" fill="#F4F6F9" /><path d="M341.358 85.326h-85.31V127.98h63.966v149.308c0 11.78 9.562 21.342 21.344 21.342 11.78 0 21.342-9.562 21.342-21.342v-170.62c0-11.782-9.562-21.342-21.342-21.342zM682.614 85.326h85.308V127.98h-63.934v149.308c0 11.78-9.562 21.342-21.376 21.342-11.75 0-21.312-9.562-21.312-21.342v-170.62c0-11.782 9.564-21.342 21.314-21.342zM597.304 639.902h-21.312c-11.812 0-21.312 9.532-21.312 21.312s9.5 21.344 21.312 21.344h21.312v-42.656zM448.01 639.902h-21.342v42.656h21.342c11.782 0 21.312-9.562 21.312-21.344s-9.53-21.312-21.312-21.312z" fill="#4B89DA" /><path d="M490.666 447.938v106.624c0 11.782 9.562 21.344 21.312 21.344 11.812 0 21.342-9.562 21.342-21.344v-106.624h-42.654z" fill="#CBD0D8" /></svg>