<?xml version="1.0" standalone="no"?><!DOCTYPE svg PUBLIC "-//W3C//DTD SVG 1.1//EN" "http://www.w3.org/Graphics/SVG/1.1/DTD/svg11.dtd"><svg class="icon" width="128px" height="128.00px" viewBox="0 0 1024 1024" version="1.1" xmlns="http://www.w3.org/2000/svg"><path d="M938.664 256.01c0-117.808-95.558-213.32-213.368-213.32H298.672c-117.808 0-213.336 95.512-213.336 213.32v554.668h149.338V1023.98h554.62V810.678h149.37V256.01z" fill="#9ED36A" /><path d="M341.326 0.02h341.348v65.326H341.326z" fill="#D94452" /><path d="M213.332 810.678c0-11.812-9.562-21.376-21.312-21.376-11.812 0-21.342 9.562-21.342 21.376h42.654zM170.676 810.678c0-11.812-9.562-21.376-21.342-21.376s-21.312 9.562-21.312 21.376h42.654zM128.022 810.678c-0.032-11.812-9.562-21.376-21.344-21.376-11.78 0-21.342 9.562-21.342 21.376h42.686zM938.664 810.678a21.366 21.366 0 0 0-21.376-21.376c-11.75 0-21.312 9.562-21.312 21.376h42.688zM895.976 810.678c0-11.812-9.56-21.376-21.308-21.376a21.366 21.366 0 0 0-21.376 21.376h42.684z" fill="#EC5564" /><path d="M853.292 810.678c0-11.812-9.562-21.376-21.31-21.376-11.812 0-21.312 9.562-21.312 21.376h42.622z" fill="#EC5564" /><path d="M831.982 320.006c0-11.78-9.562-21.326-21.312-21.326-11.812 0-21.376 9.546-21.376 21.326v490.67h42.688V320.006zM234.674 320.006c0-11.78-9.562-21.326-21.344-21.326-11.78 0-21.312 9.546-21.312 21.326v490.67h42.656V320.006z" opacity=".1" /><path d="M234.674 959.984h554.62v63.996h-554.62z" fill="#EC5564" /><path d="M490.666 65.344h42.656V1023.98h-42.656z" opacity=".1" /><path d="M341.326 0.02l-42.654 42.67 171.338 149.4 41.998-126.746z" fill="#EC5564" /><path d="M682.674 0.02l42.622 42.67-171.304 149.4-41.984-126.746z" fill="#EC5564" /></svg>