<?xml version="1.0" standalone="no"?><!DOCTYPE svg PUBLIC "-//W3C//DTD SVG 1.1//EN" "http://www.w3.org/Graphics/SVG/1.1/DTD/svg11.dtd"><svg class="icon" width="128px" height="128.00px" viewBox="0 0 1024 1024" version="1.1" xmlns="http://www.w3.org/2000/svg"><path d="M252.632 245.352h515.36v378.8h-515.36z" fill="#5D9CEC" /><path d="M767.992 650.652H256.006c-11.782 0-21.342-9.532-21.342-21.312V245.352c0-11.782 9.562-21.344 21.342-21.344h511.986c11.782 0 21.312 9.562 21.312 21.344V629.34a21.298 21.298 0 0 1-21.312 21.312z m-490.642-42.656h469.298V266.678H277.35v341.318z" fill="#FFCE54" /><path d="M746.648 394.674H277.35c-11.78 0-21.342-9.546-21.342-21.328s9.562-21.344 21.342-21.344h469.298c11.782 0 21.344 9.562 21.344 21.344s-9.562 21.328-21.344 21.328z" fill="#FFCE54" /><path d="M426.658 650.652c-11.782 0-21.344-9.532-21.344-21.312V245.352c0-11.782 9.562-21.344 21.344-21.344 11.78 0 21.342 9.562 21.342 21.344V629.34c0 11.782-9.562 21.312-21.342 21.312zM341.348 650.652c-11.78 0-21.342-9.532-21.342-21.312V245.352c0-11.782 9.562-21.344 21.342-21.344 11.782 0 21.312 9.562 21.312 21.344V629.34a21.3 21.3 0 0 1-21.312 21.312zM510.312 650.652c-11.78 0-21.342-9.532-21.342-21.312V245.352c0-11.782 9.562-21.344 21.342-21.344 11.782 0 21.314 9.562 21.314 21.344V629.34a21.3 21.3 0 0 1-21.314 21.312zM682.65 650.652c-11.78 0-21.342-9.532-21.342-21.312V245.352c0-11.782 9.562-21.344 21.342-21.344 11.782 0 21.344 9.562 21.344 21.344V629.34c0 11.782-9.562 21.312-21.344 21.312zM597.308 650.652a21.3 21.3 0 0 1-21.312-21.312V245.352c0-11.782 9.532-21.344 21.312-21.344s21.344 9.562 21.344 21.344V629.34c0 11.782-9.562 21.312-21.344 21.312z" fill="#FFCE54" /><path d="M746.648 522.656H277.35c-11.78 0-21.342-9.532-21.342-21.312S265.57 480 277.35 480h469.298c11.782 0 21.344 9.562 21.344 21.344s-9.562 21.312-21.344 21.312z" fill="#FFCE54" /><path d="M277.35 202.68c-11.78 0-21.342-9.546-21.342-21.328V138.682c0-11.782 9.562-21.328 21.342-21.328 11.782 0 21.312 9.546 21.312 21.328v42.67c0 11.782-9.532 21.328-21.312 21.328zM746.648 202.68c-11.782 0-21.344-9.546-21.344-21.328V138.682c0-11.782 9.562-21.328 21.344-21.328s21.344 9.546 21.344 21.328v42.67c0 11.782-9.562 21.328-21.344 21.328z" fill="#ED5564" /><path d="M384.534 202.68c-11.782 0-21.342-9.546-21.342-21.328V160.026c0-11.782 9.562-21.342 21.342-21.342s21.342 9.562 21.342 21.342v21.328c0 11.78-9.56 21.326-21.342 21.326zM469.876 202.68c-11.782 0-21.344-9.546-21.344-21.328V160.026c0-11.782 9.562-21.342 21.344-21.342 11.78 0 21.312 9.562 21.312 21.342v21.328c0 11.78-9.532 21.326-21.312 21.326zM555.186 202.68c-11.782 0-21.31-9.546-21.31-21.328V160.026c0-11.782 9.53-21.342 21.31-21.342s21.342 9.562 21.342 21.342v21.328c0 11.78-9.562 21.326-21.342 21.326zM639.996 202.68c-11.782 0-21.344-9.546-21.344-21.328V160.026c0-11.782 9.562-21.342 21.344-21.342s21.312 9.562 21.312 21.342v21.328c0 11.78-9.53 21.326-21.312 21.326z" fill="#DA4453" /><path d="M746.648 160.026H277.35c-11.78 0-21.342 9.546-21.342 21.328v63.998c0 11.782 9.562 21.328 21.342 21.328h469.298c11.782 0 21.344-9.546 21.344-21.328V181.354c0-11.782-9.562-21.328-21.344-21.328z" fill="#ED5564" /><path d="M874.644 906.644H149.354c-11.782 0-21.342-9.562-21.342-21.344V629.34c0-11.782 9.562-21.344 21.342-21.344h725.292c11.782 0 21.312 9.562 21.312 21.344v255.96c0 11.782-9.532 21.344-21.314 21.344z" fill="#CCD1D9" /><path d="M346.848 607.996h347.522v298.648H346.848z" fill="#ED5564" /><path d="M469.314 714.65c0 11.78-9.532 21.342-21.312 21.342-11.78 0-21.342-9.562-21.342-21.342 0-11.782 9.562-21.312 21.342-21.312a21.3 21.3 0 0 1 21.312 21.312zM469.314 799.992a21.3 21.3 0 0 1-21.312 21.312c-11.78 0-21.342-9.532-21.342-21.312s9.562-21.344 21.342-21.344 21.312 9.562 21.312 21.344zM595.778 714.65c0 11.78-9.562 21.342-21.344 21.342-11.78 0-21.31-9.562-21.31-21.342a21.298 21.298 0 0 1 21.31-21.312c11.78 0 21.344 9.532 21.344 21.312zM595.778 799.992c0 11.782-9.562 21.312-21.344 21.312-11.78 0-21.31-9.532-21.31-21.312s9.532-21.344 21.31-21.344c11.78 0 21.344 9.562 21.344 21.344z" fill="#DA4453" /><path d="M959.956 906.644h-85.31c-11.782 0-21.344-9.562-21.344-21.344V543.998c0-11.78 9.562-21.342 21.344-21.342h85.31c11.782 0 21.342 9.562 21.342 21.342V885.3c-0.002 11.782-9.562 21.344-21.342 21.344zM149.354 906.644h-85.34c-11.782 0-21.312-9.562-21.312-21.344V543.998c0-11.78 9.532-21.342 21.312-21.342h85.34c11.782 0 21.312 9.562 21.312 21.342V885.3c0 11.782-9.532 21.344-21.312 21.344z" fill="#E6E9ED" /><path d="M981.296 416.002H853.3c-11.78 0-21.342 9.546-21.342 21.328v85.326a21.36 21.36 0 0 0 6.25 15.094l21.342 21.342c4 4 9.438 6.25 15.094 6.25h85.31a21.36 21.36 0 0 0 15.094-6.25l21.342-21.342c4-4 6.25-9.438 6.25-15.094v-85.326c0-11.782-9.562-21.328-21.344-21.328zM170.666 416.002H42.7a21.318 21.318 0 0 0-21.342 21.328v85.326a21.36 21.36 0 0 0 6.25 15.094l21.312 21.342c4 4 9.438 6.25 15.094 6.25h85.34c5.656 0 11.062-2.25 15.062-6.25l21.342-21.342c4-4 6.25-9.438 6.25-15.094v-85.326c0-11.782-9.562-21.328-21.342-21.328z" fill="#5D9CEC" /><path d="M373.346 565.342h-63.998c-11.78 0-21.342 9.532-21.342 21.312v319.99h106.654V586.654a21.3 21.3 0 0 0-21.314-21.312zM714.648 565.342h-63.996c-11.782 0-21.344 9.532-21.344 21.312v319.99h106.684V586.654c0-11.78-9.562-21.312-21.344-21.312z" fill="#E6E9ED" /><path d="M490.656 607.996h42.656v298.648h-42.656z" fill="#DA4453" /><path d="M1014.796 419.784l-84.308-63.482a21.328 21.328 0 0 0-25.594-0.046l-85.686 63.998a21.288 21.288 0 0 0-7.468 23.812 21.276 21.276 0 0 0 20.218 14.594h170.714c11.782 0 21.312-9.532 21.312-21.328a21.28 21.28 0 0 0-9.188-17.548zM204.164 419.784L119.886 356.3a21.324 21.324 0 0 0-25.592-0.046L8.576 420.252a21.338 21.338 0 0 0-7.468 23.812 21.342 21.342 0 0 0 20.25 14.594h170.684a21.32 21.32 0 1 0 12.122-38.874z" fill="#434A54" /><path d="M789.304 266.678h-554.64c-11.782 0-21.312-9.546-21.312-21.328s9.532-21.344 21.312-21.344h554.64c11.782 0 21.342 9.562 21.342 21.344s-9.56 21.328-21.342 21.328z" fill="#F6BB42" /></svg>