<?xml version="1.0" standalone="no"?><!DOCTYPE svg PUBLIC "-//W3C//DTD SVG 1.1//EN" "http://www.w3.org/Graphics/SVG/1.1/DTD/svg11.dtd"><svg class="icon" width="128px" height="128.00px" viewBox="0 0 1024 1024" version="1.1" xmlns="http://www.w3.org/2000/svg"><path d="M128.378 251.226v297.71c0 14.936 19.124 27.06 42.686 27.06H853.7c23.562 0 42.656-12.124 42.656-27.06V251.226H128.378z" fill="#E6E9ED" /><path d="M131.066 511.984v469.314c0 23.562 16.436 39.998 40 39.998H853.7c23.562 0 40-16.436 40-39.998V511.984H131.066z" fill="#ED5564" /><path d="M213.344 597.31c-11.78 0-21.342 9.562-21.342 21.344s9.562 21.342 21.342 21.342c11.782 0 21.344-9.56 21.344-21.342s-9.562-21.344-21.344-21.344zM789.328 703.994c0-11.812-9.562-21.344-21.344-21.344s-21.344 9.532-21.344 21.344c0 11.75 9.562 21.312 21.344 21.312s21.344-9.562 21.344-21.312zM789.328 895.988c-11.782 0-21.344 9.562-21.344 21.312 0 11.812 9.562 21.344 21.344 21.344s21.312-9.532 21.312-21.344c0-11.75-9.53-21.312-21.312-21.312zM486.212 831.99c-11.782 0-21.344 9.562-21.344 21.312 0 11.812 9.562 21.344 21.344 21.344 11.78 0 21.342-9.532 21.342-21.344 0-11.75-9.562-21.312-21.342-21.312zM256 938.644c-11.782 0-21.312 9.53-21.312 21.342 0 11.75 9.53 21.312 21.312 21.312s21.312-9.562 21.312-21.312c0-11.812-9.53-21.342-21.312-21.342zM170.69 810.648a21.312 21.312 0 0 0-21.344 21.342c0 11.75 9.532 21.312 21.344 21.312 11.75 0 21.312-9.562 21.312-21.312 0-11.812-9.562-21.342-21.312-21.342zM597.3 959.986c-11.748 0-21.31 9.562-21.31 21.312 0 11.812 9.562 21.344 21.31 21.344 11.812 0 21.376-9.532 21.376-21.344 0-11.75-9.562-21.312-21.376-21.312z" fill="#434A54" /><path d="M853.7 128.012H171.066c-23.562 0-42.686 19.094-42.686 42.656V981.3c0 23.562 19.124 42.686 42.686 42.686H853.7c23.562 0 42.656-19.124 42.656-42.686V170.666c0-23.56-19.094-42.654-42.656-42.654z m0 853.286H171.066V170.666H853.7v810.632z" fill="#E6E9ED" /><path d="M962.228 303.164c10.5 21 1.938 29.546-19.03 19.014l-8.718-4.36c-20.968-10.53-56.344-13.092-78.594-5.704l-47.402 15.766c-22.282 7.39-58.718 7.376-80.968-0.046l-47.058-15.672c-22.25-7.42-58.688-7.42-80.938 0l-47.028 15.672c-22.282 7.422-58.718 7.422-80.968 0l-47.03-15.672c-22.282-7.42-58.716-7.42-80.966 0l-47.03 15.672c-22.282 7.422-58.716 7.468-80.998 0.094l-46.624-15.422c-22.25-7.374-57.716-4.906-78.748 5.454l-9.188 4.516c-21.062 10.376-29.686 1.688-19.186-19.312l47.186-94.34c10.5-21 19.062-57.358 19.062-80.826V42.67C128.002 19.202 147.188 0.014 170.688 0.014h682.634c23.468 0 42.656 19.188 42.656 42.656v85.34c0 23.454 8.594 59.826 19.094 80.826l47.156 94.328z" fill="#FFCE54" /><path d="M853.324 0.016H170.69c-23.5 0-42.686 19.188-42.686 42.656v85.326c0 6.36-0.624 13.656-1.75 21.344h771.476c-1.124-7.688-1.75-14.984-1.75-21.328v-85.34c0-23.47-19.188-42.658-42.656-42.658z" fill="#F6BB42" /><path d="M122.066 170.666h779.852c-3.656-15.062-5.938-30.578-5.938-42.656H128.004c0 12.08-2.282 27.596-5.938 42.656z" fill="#434A54" /><path d="M511.68 149.34c0 23.562-66.624 42.67-113.652 42.67-47.03 0-56.686-19.108-56.686-42.67s9.656-42.67 56.686-42.67c47.028-0.002 113.652 19.108 113.652 42.67z" fill="#656D78" /><path d="M512.304 149.34c0-23.562 66.624-42.67 113.652-42.67 47.032 0 56.688 19.108 56.688 42.67s-9.656 42.67-56.688 42.67c-47.028 0-113.652-19.108-113.652-42.67z" fill="#656D78" /><path d="M554.274 149.34c0 23.562-19.094 42.67-42.656 42.67-23.562 0-42.686-19.108-42.686-42.67s19.124-42.67 42.686-42.67c23.562-0.002 42.656 19.108 42.656 42.67z" fill="#434A54" /><path d="M256 426.66h511.984v426.644H256z" fill="#FFCE54" /><path d="M594.426 708.62c-52.996 42.438-154.37 64.716-189.744 20.5-35.374-44.25 8.656-138.246 61.654-180.65 53.03-42.39 94.904-17.124 130.276 27.092 35.408 44.248 50.846 90.684-2.186 133.058z" fill="#ED5564" /><path d="M623.3 608.874c-9.218 7.376-22.624 5.876-30-3.312-7.374-9.188-5.874-22.624 3.312-30 9.218-7.344 22.624-5.876 30 3.344s5.876 22.624-3.312 29.968z" fill="#A0D468" /><path d="M596.614 575.56c-9.186 7.376-22.624 5.876-29.966-3.312-7.342-9.218-5.844-22.624 3.344-29.998 9.188-7.36 22.624-5.86 29.998 3.312 7.342 9.218 5.842 22.624-3.376 29.998z" fill="#A0D468" /></svg>