<?xml version="1.0" standalone="no"?><!DOCTYPE svg PUBLIC "-//W3C//DTD SVG 1.1//EN" "http://www.w3.org/Graphics/SVG/1.1/DTD/svg11.dtd"><svg class="icon" width="128px" height="128.00px" viewBox="0 0 1024 1024" version="1.1" xmlns="http://www.w3.org/2000/svg"><path d="M1023.984 426.666c0-188.526-181.432-341.334-405.3-341.334-111.496 0-212.494 37.936-285.772 99.278l-0.032 0.062c-16.812 14.062-32.186 29.376-45.874 45.75l-169.62 169.37 97.372 55.498c11.312 114.636 89.904 213.198 202.432 267.57v215.808l308.146-59.688 205.246-204.804h-0.032c60.496-60.25 93.434-162.888 93.434-247.51z" fill="#F4BE8E" /><path d="M928.676 676.05c11.188-39.624 17.06-80.25 17.06-119 0-53.106-12.374-104.636-36.686-153.072-23.376-46.53-56.75-88.248-99.184-123.964-86.562-72.904-201.402-113.028-323.398-113.028-54.53 0-118.404 16.78-170.276 32.498-13.936 12.312-17.5 17-29.186 30.938l-37.936 37.904c71.686-38.03 154.496-58.686 237.4-58.686 229.712 0 416.582 155.87 416.582 347.41 0 68.312-20.438 141.558-53.438 197.934l79.062-78.934z" fill="#EAAD7A" /><path d="M405.346 298.67C181.51 298.67 0.014 451.478 0.014 639.988c0 56.058 16.092 108.996 44.562 155.684C18.328 807.234 0.016 833.48 0.016 863.98c0 41.25 33.436 74.688 74.686 74.688H601.686c132.934 0 208.996-170.184 208.996-298.68-0.002-188.51-181.498-341.318-405.336-341.318z" fill="#FFD2A6" /><path d="M610.308 471.478c-57.246-42.03-131.932-66.154-204.962-66.154-71.498 0-146.432 27.03-205.586 74.092-27.686 22.062-50.78 47.812-66.78 74.448-17.156 28.624-26.218 58.5-26.218 86.376 0 24.812 7.186 44.496 21.374 58.622 27 26.876 72.28 26.688 115.996 26.438h225.214c41.78 0 81.25-2 105.09-26.624 13.688-14.124 20.248-34.122 19.436-59.372-1.624-50.312-42.308-93.058-108.87-114.386-41.874-13.408-88.372-16.25-130.872-7.968-48.062 9.344-87.31 32.11-113.748 65.73-7.874 8.376-7.78 21.562 0.406 29.75 8.344 8.312 21.844 8.312 30.156 0 0.718-0.75 1.342-1.5 1.936-2.25l0.094 0.062c33.092-43.312 112.028-72.542 199.026-44.688 57.25 18.376 78.436 50.812 79.218 75.124 0.656 20-5.406 26.25-7.406 28.312-12.25 12.622-44.844 13.684-74.468 13.684h-61.092c-48.342-0.062-112.622-0.062-152.246-0.062-4 0-8.062 0-12.062 0.062-35.062 0.188-71.248 0.312-85.748-14.058-5.906-5.876-8.812-15.188-8.812-28.376 0-41.438 28.78-89.058 76.936-127.418 51.748-41.216 116.996-64.842 179.026-64.842 64.154 0 129.654 21.094 179.714 57.874 48.498 35.626 76.31 81.576 76.31 126.138 0 45.5-12.782 86.996-36.032 116.934-19.968 25.688-45.716 40.376-70.652 40.376H40.796a224.652 224.652 0 0 0 3.782 6.376 75.22 75.22 0 0 0-37.374 36.308h547.484c38.184 0 76.214-20.746 104.34-56.872 29.03-37.376 45.03-88.188 45.03-143.122-0.002-58.316-34.156-116.796-93.75-160.514z" fill="#ED5564" /></svg>