<?xml version="1.0" standalone="no"?><!DOCTYPE svg PUBLIC "-//W3C//DTD SVG 1.1//EN" "http://www.w3.org/Graphics/SVG/1.1/DTD/svg11.dtd"><svg class="icon" width="128px" height="128.00px" viewBox="0 0 1024 1024" version="1.1" xmlns="http://www.w3.org/2000/svg"><path d="M532.87 324.332l-41.75-8.796s-0.11 0.36-0.188 1.078c0.032-0.312 2.546-32.482-57.374-87.636-8.67-7.984-9.234-21.468-1.25-30.14 7.968-8.672 21.468-9.234 30.14-1.25 77.436 71.278 72.25 118.088 70.422 126.744z" fill="#434A54" /><path d="M511.994 319.942m-63.998 0a63.998 63.998 0 1 0 127.996 0 63.998 63.998 0 1 0-127.996 0Z" fill="#ED5564" /><path d="M936.982 98.48c-4.562-10.876-17.062-15.984-27.938-11.422-5.438 2.282-9.406 6.546-11.5 11.61l-184.37 451.362 39.498 16.124 184.372-451.344v-0.016a21.228 21.228 0 0 0-0.062-16.314z" fill="#E6E9ED" /><path d="M969.606 917.174a79.814 79.814 0 0 0-0.376-20.376l-61.186-428.392c-6.624-46.452-50.468-84.466-97.402-84.466H213.346c-46.936 0-90.762 38.016-97.404 84.466l-61.2 428.392c-1 7-1.078 13.844-0.36 20.376h915.224z" fill="#8CC153" /><path d="M863.264 917.174a81.576 81.576 0 0 0-0.282-20.438L800.986 447.14c-6.406-46.498-50.062-84.528-96.998-84.528H320c-46.92 0-90.576 38.03-96.982 84.528L161.004 896.736a81.652 81.652 0 0 0-0.266 20.438h702.526z" fill="#A0D468" /><path d="M697.05 917.174c1.282-6.75 1.75-13.782 1.25-21.062l-31.31-469.704c-3.124-46.828-44.062-85.138-90.998-85.138h-127.996c-46.92 0-87.872 38.31-90.998 85.138l-31.312 469.704a83.014 83.014 0 0 0 1.25 21.062h370.114z" fill="#B8E281" /><path d="M1017.728 902.174a21.296 21.296 0 0 0-15.094-6.25H23.43a21.358 21.358 0 0 0-17.17 6.156c-8.328 8.312-8.328 21.844 0 30.156a21.188 21.188 0 0 0 15.092 6.25v0.124h981.282a21.3 21.3 0 0 0 15.094-6.25 21.33 21.33 0 0 0 0-30.186z" fill="#434A54" /></svg>