<?xml version="1.0" standalone="no"?><!DOCTYPE svg PUBLIC "-//W3C//DTD SVG 1.1//EN" "http://www.w3.org/Graphics/SVG/1.1/DTD/svg11.dtd"><svg class="icon" width="128px" height="128.00px" viewBox="0 0 1024 1024" version="1.1" xmlns="http://www.w3.org/2000/svg"><path d="M555.562 688.814C773.96 600.38 879.3 351.654 790.868 133.254L0.016 453.494c88.434 218.384 337.176 323.756 555.546 235.32z" fill="#F6BB42" /><path d="M531.562 629.506c185.62-75.188 275.18-286.602 199.992-472.236L59.326 429.496c75.186 185.634 286.586 275.194 472.236 200.01z" fill="#FFCE54" /><path d="M748.992 443.12c35.312-83.34 28.718-201.118 0.218-292.99l-39.842 16.14c22.966 78.434 31.06 187.698 0.344 260.226-35.56 83.934-101.686 149.01-186.182 183.198-41.03 16.624-84.092 25.06-127.964 25.06-67.186 0-132.434-19.624-188.682-56.874-47.374-31.31-97.966-102.356-126.59-156.884l-39.842 16.124c33.156 65.81 87.84 139.948 142.902 176.324 63.248 41.874 136.622 63.998 212.212 63.998 49.374 0 97.84-9.5 143.996-28.188 95.06-38.498 169.432-111.7 209.43-206.134z" fill="#FFDB8A" /><path d="M238.072 432.87c-10.844-4.594-23.376 0.5-27.968 11.342-4.592 10.844 0.5 23.376 11.344 27.968s23.342-0.5 27.936-11.344-0.47-23.372-11.312-27.966zM317.162 400.872c-10.844-4.594-23.374 0.468-27.968 11.312s0.468 23.374 11.312 27.966c10.874 4.594 23.374-0.468 27.968-11.342a21.302 21.302 0 0 0-11.312-27.936zM396.254 368.84c-10.844-4.594-23.376 0.468-27.968 11.312-4.592 10.844 0.468 23.376 11.312 27.968s23.374-0.468 27.968-11.312-0.47-23.374-11.312-27.968zM475.344 336.81c-10.876-4.594-23.374 0.484-27.968 11.328s0.468 23.358 11.312 27.952c10.842 4.594 23.374-0.468 27.968-11.312 4.594-10.858-0.468-23.374-11.312-27.968zM554.406 304.78c-10.844-4.594-23.344 0.484-27.938 11.328-4.594 10.844 0.468 23.376 11.312 27.968s23.374-0.484 27.966-11.328-0.466-23.358-11.34-27.968zM381.222 559.006c-10.876-4.562-23.374 0.5-27.968 11.376-4.594 10.812 0.468 23.312 11.312 27.938 10.842 4.562 23.374-0.5 27.968-11.312a21.376 21.376 0 0 0-11.312-28.002zM460.284 527.024c-10.844-4.624-23.344 0.468-27.938 11.312-4.592 10.86 0.468 23.358 11.312 27.982 10.844 4.562 23.374-0.5 27.968-11.376 4.594-10.81-0.468-23.324-11.342-27.918zM539.376 494.994c-10.844-4.594-23.376 0.468-27.968 11.312-4.594 10.844 0.5 23.376 11.344 27.968s23.376-0.468 27.968-11.312c4.592-10.876-0.502-23.376-11.344-27.968zM618.464 462.962c-10.844-4.594-23.376 0.468-27.966 11.312-4.594 10.844 0.468 23.374 11.342 27.968 10.844 4.592 23.344-0.468 27.938-11.312 4.594-10.842-0.47-23.374-11.314-27.968zM633.496 272.766c-10.844-4.594-23.344 0.468-27.968 11.328-4.594 10.844 0.5 23.358 11.344 27.952 10.844 4.594 23.376-0.468 27.968-11.328 4.594-10.842-0.5-23.358-11.344-27.952zM309.63 495.962c-10.842-4.594-23.342 0.468-27.936 11.312-4.594 10.844 0.468 23.376 11.312 27.968s23.374-0.468 27.968-11.312-0.5-23.374-11.344-27.968zM388.722 463.932c-10.844-4.594-23.374 0.468-27.968 11.312-4.594 10.876 0.5 23.374 11.342 27.968 10.844 4.592 23.344-0.468 27.936-11.312 4.628-10.844-0.466-23.374-11.31-27.968zM467.814 431.902c-10.842-4.594-23.374 0.468-27.968 11.342-4.594 10.844 0.468 23.344 11.312 27.938 10.876 4.594 23.374-0.468 27.968-11.312s-0.468-23.374-11.312-27.968zM546.906 399.872c-10.844-4.594-23.376 0.5-27.968 11.344s0.468 23.374 11.312 27.968c10.844 4.592 23.376-0.5 27.968-11.344 4.592-10.844-0.468-23.344-11.312-27.968zM625.996 367.856c-10.844-4.594-23.376 0.484-27.968 11.328-4.594 10.844 0.468 23.376 11.312 27.968s23.376-0.468 27.968-11.344c4.594-10.844-0.468-23.358-11.312-27.952z" fill="#F6BB42" /><path d="M597.372 890.746c235.62 0 426.614-190.994 426.614-426.596H170.76c0 235.602 190.994 426.596 426.612 426.596z" fill="#E9573F" /><path d="M597.372 826.748c200.278 0 362.616-162.306 362.616-362.598h-725.26c0 200.292 162.37 362.598 362.644 362.598z" fill="#FC6E51" /><path d="M368.972 534.368c-8.342 8.344-8.342 21.826 0 30.202 8.344 8.312 21.844 8.312 30.156 0 8.342-8.376 8.342-21.858 0-30.202-8.312-8.314-21.812-8.314-30.156 0zM454.284 534.368c-8.312 8.344-8.312 21.826 0 30.202 8.344 8.312 21.842 8.312 30.186 0 8.312-8.376 8.312-21.858 0-30.202-8.344-8.314-21.844-8.314-30.186 0zM539.624 534.368c-8.344 8.344-8.344 21.826 0 30.202 8.312 8.312 21.842 8.312 30.154 0 8.344-8.376 8.344-21.858 0-30.202-8.312-8.314-21.84-8.314-30.154 0zM624.934 534.368c-8.312 8.344-8.312 21.826 0 30.202 8.344 8.312 21.844 8.312 30.188 0 8.312-8.376 8.312-21.858 0-30.202-8.344-8.314-21.844-8.314-30.188 0zM710.276 534.368c-8.344 8.344-8.344 21.826 0 30.202 8.312 8.312 21.842 8.312 30.154 0 8.344-8.376 8.344-21.858 0-30.202-8.312-8.314-21.842-8.314-30.154 0zM454.284 705.002c-8.312 8.376-8.312 21.876 0 30.188 8.344 8.312 21.842 8.312 30.186 0 8.312-8.312 8.312-21.812 0-30.188-8.344-8.312-21.844-8.312-30.186 0zM539.624 705.002c-8.344 8.376-8.344 21.876 0 30.188 8.312 8.312 21.842 8.312 30.154 0 8.344-8.312 8.344-21.812 0-30.188-8.312-8.312-21.84-8.312-30.154 0zM624.934 705.002c-8.312 8.376-8.312 21.876 0 30.188 8.344 8.312 21.844 8.312 30.188 0 8.312-8.312 8.312-21.812 0-30.188-8.344-8.312-21.844-8.312-30.188 0zM710.276 705.002c-8.344 8.376-8.344 21.876 0 30.188 8.312 8.312 21.842 8.312 30.154 0 8.344-8.312 8.344-21.812 0-30.188-8.312-8.312-21.842-8.312-30.154 0zM825.772 534.368c-8.344-8.312-21.842-8.312-30.186 0-8.312 8.344-8.312 21.826 0 30.202 8.344 8.312 21.842 8.312 30.186 0 8.312-8.376 8.312-21.86 0-30.202zM411.628 619.694c-8.312 8.312-8.312 21.874 0 30.186 8.344 8.312 21.842 8.312 30.186 0 8.312-8.312 8.312-21.874 0-30.186-8.344-8.314-21.842-8.314-30.186 0zM496.968 619.694c-8.342 8.312-8.342 21.874 0 30.186 8.312 8.312 21.812 8.312 30.156 0s8.344-21.874 0-30.186-21.842-8.314-30.156 0zM582.28 619.694c-8.312 8.312-8.312 21.874 0 30.186 8.344 8.312 21.842 8.312 30.154 0 8.344-8.312 8.344-21.874 0-30.186-8.312-8.314-21.81-8.314-30.154 0zM667.622 619.694c-8.344 8.312-8.344 21.874 0 30.186 8.312 8.312 21.81 8.312 30.154 0 8.312-8.312 8.312-21.874 0-30.186-8.344-8.314-21.842-8.314-30.154 0zM752.93 619.694c-8.344 8.312-8.344 21.874 0 30.186 8.312 8.312 21.844 8.312 30.156 0 8.344-8.312 8.344-21.874 0-30.186-8.312-8.314-21.844-8.314-30.156 0z" fill="#E9573F" /><path d="M937.864 464.15c-5.5 82.732-40.218 182.354-99.154 241.352-64.466 64.436-150.184 99.936-241.338 99.936-91.184 0-176.868-35.5-241.334-99.936-58.966-58.998-93.654-158.62-99.184-241.352h-42.75c5.5 96.918 44.656 204.416 111.778 271.476 72.498 72.56 168.932 112.496 271.49 112.496 102.56 0 198.964-39.936 271.492-112.496 67.094-67.06 106.28-174.558 111.778-271.476h-42.778z" fill="#FF816C" /></svg>