<?xml version="1.0" standalone="no"?><!DOCTYPE svg PUBLIC "-//W3C//DTD SVG 1.1//EN" "http://www.w3.org/Graphics/SVG/1.1/DTD/svg11.dtd"><svg class="icon" width="128px" height="128.00px" viewBox="0 0 1024 1024" version="1.1" xmlns="http://www.w3.org/2000/svg"><path d="M298.622 384.034l-0.124 426.71c0 117.778 95.466 213.244 213.246 213.244 117.762 0 213.262-95.466 213.262-213.244l0.124-426.71H298.622z" fill="#ED5564" /><path d="M512.21 0.012c-117.81 0-213.308 28.874-213.308 64.53 0 35.624 95.498 64.5 213.308 64.5 117.792 0 213.292-28.874 213.292-64.5C725.504 28.886 630.004 0.012 512.21 0.012z m120.732 74.03c-33.996 7.968-76.872 12.344-120.73 12.344-43.842 0-86.716-4.376-120.716-12.344-13.36-3.124-23.828-6.438-31.812-9.5 7.984-3.094 18.452-6.406 31.812-9.532l120.716-12.342c43.86 0 86.734 4.374 120.73 12.342 13.344 3.124 23.812 6.438 31.812 9.532-8 3.062-18.468 6.374-31.812 9.5z" fill="#FFCE54" /><path d="M298.512 754.244l309.37-238.182-33.406-132.028H298.622z" fill="#DA4453" /><path d="M725.504 383.972c0 117.81-95.5 213.338-213.292 213.338-117.81 0-213.308-95.53-213.308-213.338s95.498-213.34 213.306-213.34c117.794 0 213.294 95.53 213.294 213.34z" fill="#EAC6BB" /><path d="M576.196 746.588H533.54v-42.654c0-11.782-9.546-21.312-21.328-21.312s-21.328 9.532-21.328 21.312v42.654h-42.67c-11.782 0-21.328 9.562-21.328 21.344s9.546 21.344 21.328 21.344h42.67v85.31c0 11.782 9.546 21.344 21.328 21.344s21.328-9.562 21.328-21.344v-85.31h42.656c11.812 0 21.344-9.562 21.344-21.344s-9.532-21.344-21.344-21.344z" fill="#FFCE54" /></svg>