<?xml version="1.0" standalone="no"?><!DOCTYPE svg PUBLIC "-//W3C//DTD SVG 1.1//EN" "http://www.w3.org/Graphics/SVG/1.1/DTD/svg11.dtd"><svg class="icon" width="128px" height="128.00px" viewBox="0 0 1024 1024" version="1.1" xmlns="http://www.w3.org/2000/svg"><path d="M920.578 772.612l-3.624-1.062c-52.968-14.218-70.874-27.874-94.466-36.842-83.622-31.876-105.37-54.81-110.932-65.654a10.372 10.372 0 0 1-0.532-1.218H312.976c-0.156 0.406-0.312 0.812-0.532 1.218-5.562 10.844-27.31 33.78-110.934 65.654-23.592 8.968-41.498 22.624-94.464 36.842l-3.624 1.062C55.236 788.546 22.8 833.264 22.8 883.702v140.276h978.4v-140.276c0-50.438-32.408-95.156-80.622-111.09z" fill="#434A54" /><path d="M569.78 664.49l-193.4 72.31-39.998 45.06 176.024 225.992 163.744-261.834z" fill="#CCD1D9" /><path d="M557.904 810.576h-88.59l-24.062 132.652 62.28 69.812 72.028-76.906z" fill="#DA4453" /><path d="M640.026 798.296l81.06-117.306c-5.124-4.876-7.968-8.906-9.532-11.938a10.372 10.372 0 0 1-0.532-1.218l-0.686-97.122L512 568.462l-198.336 2.25-0.688 97.122c-0.156 0.406-0.312 0.812-0.532 1.218-3.376 6.594-12.782 17.688-38.498 32.56l53.53 86.464 56.748 10.218 129.4-93.528 126.402 93.53z" fill="#E6E9ED" /><path d="M569.624 719.926a21.196 21.196 0 0 0-15.344-6.094l-85.372 1.624c-11.624 0.218-20.938 9.718-20.938 21.344v73.776c0 11.782 9.562 21.344 21.344 21.344h85.372c11.782 0 21.344-9.562 21.344-21.344v-75.432c0-5.718-2.314-11.218-6.406-15.218z" fill="#ED5564" /><path d="M721.086 680.99l-207.46 300.3-211.712-299.362c-10.092 9.282-28.31 21.624-61.154 36.53l216.054 305.52h111.122L779.644 716.8c-31.654-14.656-49.028-26.748-58.558-35.81z" fill="#656D78" /><path d="M787.208 382.752c0 178.804-170.46 343.362-275.208 343.362s-275.208-164.556-275.208-343.362S360.004 85.982 512 85.982s275.208 117.964 275.208 296.77z" fill="#EAC6BB" /><path d="M341.07 544.212c-10.688 20.688-18.094 41.436-18.094 59.124 0 62.966 150.244 164.744 189.024 165.37 38.78-0.624 189.026-102.402 189.026-165.37 0-18.06-7.75-39.342-18.812-60.464-27.594-52.812-313.708-51.922-341.144 1.34z" fill="#CCD1D9" /><path d="M668.026 459.186c30.032-9.218 56.842 12.344 22.282 30.966-69.686 37.624-122.152-103.808-181.182-29.904s35.03 148.368 119.244 140.618c229.116-21.06 132.182-178.398 88.78-177.07-33.188 1-49.124 35.39-49.124 35.39z" fill="#E6E9ED" /><path d="M355.974 459.186c-30.03-9.218-56.842 12.344-22.28 30.966 69.684 37.624 122.15-103.808 181.18-29.904s-35.03 148.368-119.246 140.618c-229.116-21.06-132.182-178.398-88.778-177.07 33.19 1 49.124 35.39 49.124 35.39zM682.244 56.858c-46.812-42.388-209.368-103.278-360.174 0-118.902 81.452-106.902 286.848-106.902 286.848s156.056 39.42 334.768-62.686c115.528-66.014 155.808 1.11 176.494 59.576 20.154 56.904 60.778 42.53 60.778 42.53s44.778-190.694-104.964-326.268z" fill="#E6E9ED" /><path d="M630.588 253.772c16.344-0.5 30.032 3.094 41.624 9.5 22.188-80.528 65.902-102.184 84.994-107.902a336.356 336.356 0 0 0-21.81-37.452c-31.214 12.282-80.526 45.67-104.808 135.854z" fill="#CCD1D9" /></svg>