<?xml version="1.0" standalone="no"?><!DOCTYPE svg PUBLIC "-//W3C//DTD SVG 1.1//EN" "http://www.w3.org/Graphics/SVG/1.1/DTD/svg11.dtd"><svg class="icon" width="128px" height="128.00px" viewBox="0 0 1024 1024" version="1.1" xmlns="http://www.w3.org/2000/svg"><path d="M767.994 112.68c0 11.046-8.968 20-20 20H276.004c-11.032 0-20-8.952-20-20V20.01c0-11.032 8.968-20 20-20h471.99c11.032 0 20 8.968 20 20V112.68z" fill="#FB6D51" /><path d="M767.994 85.352l85.344 191.996v726.642c0 11.062-8.968 20-20 20H361.346a19.98 19.98 0 0 1-20-20V277.348l-85.342-191.996h511.99z" fill="#F5BA45" /><path d="M341.346 21.354c11.782 0 21.312-9.562 21.312-21.344h-42.654c0 11.782 9.562 21.344 21.342 21.344zM426.658 21.354c11.78 0 21.342-9.562 21.342-21.344h-42.654c0 11.782 9.53 21.344 21.312 21.344zM512 21.354c11.782 0 21.344-9.562 21.344-21.344h-42.688c0 11.782 9.562 21.344 21.344 21.344zM597.342 21.354c11.782 0 21.312-9.562 21.312-21.344h-42.656c0 11.782 9.562 21.344 21.344 21.344zM682.654 21.354c11.78 0 21.342-9.562 21.342-21.344h-42.654c0 11.782 9.532 21.344 21.312 21.344z" fill="#E8563F" /><path d="M256.004 85.352l-85.342 191.996v726.642c0 11.062 8.968 20 20 20h471.992a19.98 19.98 0 0 0 20-20V277.348l85.34-191.996H256.004z" fill="#FECD57" /><path d="M256.004 85.352l-85.342 191.996h511.992l85.34-191.996z" fill="#F5BA45" /><path d="M490.656 405.346c0-11.782-9.532-21.328-21.312-21.328-2.282 0-4.438 0.344-6.468 1-5.968 1.89-56.124 20.516-63.748 111.888l42.498 3.546c5.25-62.686 33.562-74.514 34.782-74.982-0.376 0.14-0.594 0.204-0.624 0.218a21.346 21.346 0 0 0 14.872-20.342z" fill="#424953" /><path d="M533.344 192.022c0 35.344-28.656 63.998-64 63.998-35.342 0-63.998-28.654-63.998-63.998 0-35.36 28.656-64.014 63.998-64.014 35.344-0.002 64 28.654 64 64.014z" fill="#E5E8EC" /><path d="M469.344 256.02c7.344 0 14.406-1.264 21-3.562-1.688-10.078-10.438-17.782-21-17.782-10.594 0-19.344 7.704-21.032 17.782a63.786 63.786 0 0 0 21.032 3.562zM469.344 128.006c-7.376 0-14.438 1.266-21.032 3.562 1.688 10.078 10.438 17.782 21.032 17.782 10.562 0 19.312-7.704 21-17.782a63.74 63.74 0 0 0-21-3.562zM524.75 224.022a64.028 64.028 0 0 0 7.438-19.984c-9.562-3.578-20.624 0.156-25.906 9.312s-3 20.578 4.906 27.092a64.538 64.538 0 0 0 13.562-16.42zM413.908 160.006a64.028 64.028 0 0 0-7.438 19.984c9.594 3.578 20.624-0.156 25.906-9.312 5.28-9.156 2.998-20.578-4.876-27.092a63.99 63.99 0 0 0-13.592 16.42zM524.75 160.006a63.886 63.886 0 0 0-13.562-16.42c-7.906 6.516-10.188 17.936-4.906 27.092s16.344 12.89 25.906 9.312a63.98 63.98 0 0 0-7.438-19.984zM413.908 224.022a63.956 63.956 0 0 0 13.594 16.42c7.874-6.516 10.154-17.936 4.876-27.092-5.282-9.156-16.312-12.89-25.906-9.312a64.01 64.01 0 0 0 7.436 19.984z" fill="#CBD0D8" /><path d="M597.342 639.996c0 94.25-76.404 170.686-170.684 170.686-94.248 0-170.654-76.436-170.654-170.686 0-94.246 76.406-170.652 170.654-170.652 94.28 0 170.684 76.406 170.684 170.652z" fill="#FB6D51" /><path d="M426.658 469.344c-7.218 0-14.344 0.454-21.312 1.328 84.186 10.5 149.308 82.328 149.308 169.324 0 87.062-65.124 158.842-149.308 169.342 6.968 0.876 14.094 1.344 21.312 1.344 94.28 0 170.684-76.436 170.684-170.686 0-94.246-76.404-170.652-170.684-170.652z" fill="#FFFFFF" opacity=".2" /><path d="M426.658 746.684c0 11.75-9.532 21.312-21.312 21.312s-21.344-9.562-21.344-21.312c0-11.812 9.562-21.344 21.344-21.344s21.312 9.532 21.312 21.344zM448 682.684c0 11.75-9.562 21.312-21.342 21.312-11.782 0-21.312-9.562-21.312-21.312 0-11.812 9.532-21.344 21.312-21.344 11.78 0 21.342 9.532 21.342 21.344zM384.002 703.996c0 11.782-9.562 21.344-21.344 21.344s-21.312-9.562-21.312-21.344 9.532-21.312 21.312-21.312 21.344 9.53 21.344 21.312z" fill="#E8563F" /><path d="M767.994 85.352l-85.34 191.996h170.684z" opacity=".1" /></svg>