<?xml version="1.0" standalone="no"?><!DOCTYPE svg PUBLIC "-//W3C//DTD SVG 1.1//EN" "http://www.w3.org/Graphics/SVG/1.1/DTD/svg11.dtd"><svg class="icon" width="128px" height="128.00px" viewBox="0 0 1024 1024" version="1.1" xmlns="http://www.w3.org/2000/svg"><path d="M533.344 1002.652c0 11.782-9.562 21.344-21.344 21.344s-21.344-9.562-21.344-21.344 9.562-21.344 21.344-21.344 21.344 9.564 21.344 21.344zM874.654 1002.652c0 11.782-9.532 21.344-21.312 21.344s-21.344-9.562-21.344-21.344 9.562-21.344 21.344-21.344 21.312 9.564 21.312 21.344z" fill="#434A54" /><path d="M761.716 106.658h45.282a63.37 63.37 0 0 0 3.656-21.344c0-35.342-28.656-63.998-64-63.998s-63.998 28.656-63.998 63.998c0 35.376 28.654 64 63.998 64 5.188 0 10.218-0.624 15.062-1.782V106.658z" fill="#E9573F" /><path d="M640 64.002m-64 0a64 64 0 1 0 128 0 64 64 0 1 0-128 0Z" fill="#FC6E51" /><path d="M385.844 620.094l-33.782-123.47 205.782-56.312 33.78 123.47z" fill="#E9573F" /><path d="M576 85.314h213.342v383.998H576z" fill="#AAB2BC" /><path d="M874.654 597.312H490.656S448 469.312 448 298.658h469.342c0 170.654-42.688 298.654-42.688 298.654z" fill="#FC6E51" /><path d="M917.342 981.308c0 11.782-9.562 21.344-21.344 21.344H469.344c-11.782 0-21.344-9.562-21.344-21.344V576c0-11.782 9.562-21.344 21.344-21.344h85.312L576 298.658h213.342l21.312 255.998h85.344c11.782 0 21.344 9.562 21.344 21.344v405.308z" fill="#E6E9ED" /><path d="M853.342 106.658c0-11.782-9.562-21.344-21.344-21.344H533.344c-11.78 0-21.344 9.562-21.344 21.344s9.564 21.344 21.344 21.344h298.654c11.782 0 21.344-9.562 21.344-21.344z" fill="#434A54" /><path d="M682.656 469.312c-35.344 0-64 28.656-64 64 0 35.376 28.656 64 64 64 35.342 0 63.998-28.624 63.998-64 0-35.344-28.656-64-63.998-64z" fill="#656D78" /><path d="M703.998 512c0 11.782-9.56 21.312-21.342 21.312S661.344 523.78 661.344 512s9.532-21.344 21.312-21.344 21.342 9.562 21.342 21.344z" fill="#434A54" /><path d="M703.998 405.312h-42.654c-11.782 0-21.344 9.562-21.344 21.344S649.562 448 661.344 448h42.654c11.782 0 21.344-9.562 21.344-21.344s-9.562-21.344-21.344-21.344zM448 614.844v53.032c45.968 31.438 132.282 78.782 234.656 78.782 102.404 0 188.686-47.344 234.686-78.782v-53C891.28 635.594 796.748 704 682.656 704 569 704 474.124 635.562 448 614.844z" fill="#CCD1D9" /><path d="M384 1023.996H128.002L85.346 640h341.31z" fill="#E6E9ED" /><path d="M99.564 768l28.438 255.996H384L412.438 768z" fill="#FC6E51" /><path d="M917.342 298.658H448c-11.782 0-21.344 9.562-21.344 21.344s9.562 21.312 21.344 21.312h469.342c11.782 0 21.312-9.532 21.312-21.312s-9.53-21.344-21.312-21.344z" fill="#CCD1D9" /></svg>