<?xml version="1.0" standalone="no"?><!DOCTYPE svg PUBLIC "-//W3C//DTD SVG 1.1//EN" "http://www.w3.org/Graphics/SVG/1.1/DTD/svg11.dtd"><svg class="icon" width="128px" height="128.00px" viewBox="0 0 1024 1024" version="1.1" xmlns="http://www.w3.org/2000/svg"><path d="M884.182 87.618v-0.016L713.464 2.276l-0.032 0.016a21.086 21.086 0 0 0-9.5-2.282c-10.344 0-18.966 7.36-20.936 17.124l-51.906 255.962 41.812 8.484 46.404-228.7 145.81 72.876a21.538 21.538 0 0 0 9.562 2.25c11.75 0 21.31-9.546 21.31-21.328 0.004-8.342-4.806-15.56-11.806-19.06z" fill="#424953" /><path d="M703.934 234.676h-85.342c-11.782 0-21.344 9.546-21.344 21.342 0 11.766 9.562 21.328 21.344 21.328h85.342c11.75 0 21.312-9.562 21.312-21.328 0-11.794-9.562-21.342-21.312-21.342z" fill="#8AC054" /><path d="M128.008 1002.678c0 11.75 9.546 21.312 21.328 21.312h469.35c11.75 0 21.312-9.562 21.312-21.312V277.348c0-11.782-9.562-21.328-21.312-21.328H149.334c-11.782 0-21.328 9.546-21.328 21.328v725.33z" fill="#8AC054" /><path d="M128.008 277.348v9.64l68.358 89.014a21.38 21.38 0 0 0 16.656 8.344h0.266c6.438 0 12.532-2.906 16.594-7.922l69.326-85.654c7.406-9.156 6-22.594-3.156-30-9.156-7.42-22.592-6-30.014 3.156l-52.312 64.624-55.704-72.53h-8.688c-11.78 0-21.326 9.546-21.326 21.328z" opacity=".1" /><path d="M256.004 1002.678c0 11.75 9.546 21.312 21.328 21.312h511.974c11.812 0 21.376-9.562 21.376-21.312V277.348c0-11.782-9.562-21.328-21.376-21.328H277.334c-11.782 0-21.328 9.546-21.328 21.328v725.33z" fill="#9ED36A" /><path d="M789.306 256.02h-42.624c11.75 0 21.312 9.546 21.312 21.328v725.33c0 11.75-9.562 21.312-21.312 21.312h42.624c11.812 0 21.376-9.562 21.376-21.312V277.348c0-11.782-9.562-21.328-21.376-21.328z" fill="#FFFFFF" opacity=".2" /><path d="M597.498 470.594c0-11.78-9.562-21.328-21.376-21.328-4.812 0-9.312 1.64-12.876 4.376l-0.032-0.016c-5.782 4.406-56.388 44.452-51.092 92.936l42.436-4.64c-2.312-20.938 24.876-46.922 34.562-54.376l-0.032-0.016c5.098-3.906 8.41-10.03 8.41-16.936z" fill="#424953" /><path d="M533.328 529.968c-100.466-44.172-168.622 25.218-168.622 123.464 0 98.218 92.732 185.122 168.622 150.904 75.888 34.216 168.606-52.686 168.606-150.904 0-98.244-68.124-167.636-168.606-123.464z" fill="#EC5564" /><path d="M570.404 518.39c55.094 11 88.906 65.858 88.906 135.042 0 74.25-53.032 142.03-111.688 155.874 72.75 18.406 154.31-63.748 154.31-155.874 0.002-85.59-51.746-149.292-131.528-135.042z" fill="#FFFFFF" opacity=".2" /></svg>