<?xml version="1.0" standalone="no"?><!DOCTYPE svg PUBLIC "-//W3C//DTD SVG 1.1//EN" "http://www.w3.org/Graphics/SVG/1.1/DTD/svg11.dtd"><svg class="icon" width="128px" height="128.00px" viewBox="0 0 1024 1024" version="1.1" xmlns="http://www.w3.org/2000/svg"><path d="M874.648 938.676H149.322c-11.782 0-21.312-9.562-21.312-21.374v-533.3c0-102.574 39.938-198.994 112.466-271.524C312.974 39.95 409.41 0.012 512 0.012c102.56 0 198.996 39.938 271.494 112.466 72.53 72.53 112.496 168.95 112.496 271.524v533.3c0 11.812-9.562 21.374-21.342 21.374z" fill="#E6E9ED" /><path d="M128.01 405.33h127.998v170.668H128.01zM512 0.012c-40.78 0-80.53 6.328-118.246 18.468l86.216 140.2 68.748-7.672L630.216 18.48C592.498 6.34 552.75 0.012 512 0.012zM767.994 405.33h127.996v170.668h-127.996z" fill="#FFCE54" /><path d="M256.008 981.3h511.986V384.002c0-68.374-26.656-132.668-74.998-181.01-48.342-48.36-112.622-74.982-180.996-74.982-68.404 0-132.684 26.624-181.026 74.982-48.344 48.342-74.966 112.636-74.966 181.01V981.3z" fill="#ED5564" /><path d="M512 0.012c-7.156 0-14.282 0.204-21.342 0.594v63.404A21.318 21.318 0 0 0 512 85.338c11.784 0 21.312-9.546 21.312-21.328V0.606C526.252 0.214 519.126 0.012 512 0.012zM512 938.676c-11.812 0-21.342-9.562-21.342-21.374V874.68c0-11.812 9.53-21.376 21.342-21.376 11.784 0 21.312 9.562 21.312 21.376v42.624c0 11.81-9.528 21.372-21.312 21.372z" fill="#F6BB42" /><path d="M384.004 362.676c0 11.782-9.562 21.326-21.344 21.326s-21.344-9.544-21.344-21.326 9.562-21.344 21.344-21.344 21.344 9.562 21.344 21.344zM384.004 426.674c0 11.782-9.562 21.328-21.344 21.328s-21.344-9.546-21.344-21.328 9.562-21.344 21.344-21.344 21.344 9.562 21.344 21.344z" fill="#E6E9ED" /><path d="M469.314 448.002h-63.998c-11.782 0-21.312-9.546-21.312-21.328s9.532-21.344 21.312-21.344h63.998c11.782 0 21.344 9.562 21.344 21.344s-9.562 21.328-21.344 21.328zM469.314 384.002h-63.998c-11.782 0-21.312-9.544-21.312-21.326s9.532-21.344 21.312-21.344h63.998c11.782 0 21.344 9.562 21.344 21.344s-9.562 21.326-21.344 21.326z" fill="#434A54" /><path d="M575.998 362.676c0 11.782-9.56 21.326-21.342 21.326s-21.344-9.544-21.344-21.326 9.562-21.344 21.344-21.344 21.342 9.562 21.342 21.344zM575.998 426.674c0 11.782-9.56 21.328-21.342 21.328s-21.344-9.546-21.344-21.328 9.562-21.344 21.344-21.344 21.342 9.562 21.342 21.344z" fill="#E6E9ED" /><path d="M661.31 448.002h-64c-11.782 0-21.312-9.546-21.312-21.328s9.532-21.344 21.312-21.344h64c11.782 0 21.344 9.562 21.344 21.344s-9.562 21.328-21.344 21.328zM661.31 384.002h-64c-11.782 0-21.312-9.544-21.312-21.326s9.532-21.344 21.312-21.344h64c11.782 0 21.344 9.562 21.344 21.344s-9.562 21.326-21.344 21.326zM341.316 917.302h-42.654c-11.782 0-21.344-9.532-21.344-21.312s9.562-21.31 21.344-21.31h42.654c11.782 0 21.344 9.53 21.344 21.31s-9.562 21.312-21.344 21.312z" fill="#434A54" /><path d="M270.506 298.678h482.958c-12.532-35.594-32.998-68.218-60.466-95.686-48.344-48.36-112.624-74.982-180.998-74.982-68.404 0-132.684 26.624-181.026 74.982-27.468 27.466-47.936 60.092-60.468 95.686z" fill="#5D9CEC" /><path d="M511.812 192.008c-58.904 0-106.652 47.748-106.652 106.67h213.306c0-58.922-47.748-106.67-106.654-106.67z" fill="#434A54" /><path d="M512 256.006c-23.592 0-42.686 19.11-42.686 42.672h85.342c0-23.562-19.094-42.672-42.656-42.672z" fill="#F6BB42" /><path d="M648.624 490.672l-285.964-7-8 280.758 50.656 73.562 63.998 36.688h85.342l63.81-42.688 42.844-85.31z" fill="#FFCE54" /><path d="M128.01 810.68v191.996c0 11.75 9.532 21.312 21.312 21.312h85.342c11.782 0 21.344-9.562 21.344-21.312V810.68H128.01zM767.994 810.68v191.996c0 11.75 9.532 21.312 21.312 21.312h85.342c11.78 0 21.342-9.562 21.342-21.312V810.68h-127.996z" fill="#656D78" /><path d="M128.01 554.688h127.998v42.624H128.01zM128.01 469.328h127.998V512H128.01zM128.01 384.002h127.998v42.672H128.01zM767.994 554.688h127.996v42.624h-127.996zM767.994 469.328h127.996V512h-127.996zM767.994 384.002h127.996v42.672h-127.996zM661.31 469.328H362.66c-11.782 0-21.344 9.562-21.344 21.344v234.634c0 94.124 76.56 170.684 170.684 170.684 94.092 0 170.654-76.56 170.654-170.684V490.672c0-11.782-9.562-21.344-21.344-21.344z m-21.406 259.948l-22.968-22.998 23.062-23.032v42.06c0 1.344-0.032 2.656-0.094 3.97z m-244.462 48.966l41.78-41.81 44.594 44.624-46.624 46.624c-17.066-12.844-30.814-29.812-39.75-49.438z m-11.438-52.936v-42.06l23.032 23.032-22.968 22.998c-0.064-1.314-0.064-2.626-0.064-3.97z m83.372-168.558L512 512.124l44.594 44.624L512 601.342l-44.624-44.594z m14.438 74.748L437.22 676.12l-44.624-44.624 44.624-44.592 44.594 44.592zM572.216 512h29.094l-14.562 14.562-14.532-14.562z m-134.996 14.562L422.658 512h29.124l-14.562 14.562z m-30.184 30.186l-23.032 23.032v-46.108l23.032 23.076z m60.34 149.53L512 661.684l44.594 44.594L512 750.87l-44.624-44.592z m74.78-74.782l44.592-44.592 44.624 44.592-44.624 44.624-44.592-44.624z m74.78-74.748l23.062-23.076v46.108l-23.062-23.032z m-141.684 291.182L512 811.242l36.718 36.688A127.404 127.404 0 0 1 512 853.306a127.524 127.524 0 0 1-36.748-5.376z m113.528-20.25l-46.624-46.624 44.592-44.624 41.782 41.81c-8.938 19.626-22.688 36.594-39.75 49.438z" fill="#F6BB42" /></svg>