<?xml version="1.0" standalone="no"?><!DOCTYPE svg PUBLIC "-//W3C//DTD SVG 1.1//EN" "http://www.w3.org/Graphics/SVG/1.1/DTD/svg11.dtd"><svg class="icon" width="128px" height="128.00px" viewBox="0 0 1024 1024" version="1.1" xmlns="http://www.w3.org/2000/svg"><path d="M511.992 0c-11.75 0-21.328 9.546-21.328 21.328v981.36c0 11.75 9.578 21.312 21.328 21.312 11.812 0 21.312-9.562 21.312-21.312V21.328c0-11.782-9.5-21.328-21.312-21.328z" fill="#F6BB42" /><path d="M661.304 853.312h-298.64c-11.782 0-21.344 9.562-21.344 21.376 0 11.75 9.562 21.312 21.344 21.312h298.64c11.812 0 21.376-9.562 21.376-21.312a21.366 21.366 0 0 0-21.376-21.376zM810.68 298.672H563.118l175.312-175.282c7.812-8.36 7.624-21.5-0.498-29.656-8.19-8.172-21.314-8.312-29.626-0.484l-196.686 196.578-196.61-196.578c-8.374-7.828-21.468-7.688-29.624 0.484-8.188 8.156-8.312 21.266-0.5 29.624l175.25 175.312-247.5 0.03c-11.468 0.376-20.626 9.75-20.626 21.298s9.158 20.954 20.626 21.328h247.5l-174.75 174.796c-8.344 8.312-8.344 21.814 0 30.124 8.312 8.376 21.812 8.376 30.156 0l196.08-196.078 196.124 196.078c8.312 8.376 21.876 8.376 30.19 0 8.31-8.31 8.31-21.812 0-30.124l-174.814-174.796H810.68c11.75 0 21.312-9.546 21.312-21.328s-9.562-21.326-21.312-21.326z" fill="#FFCE54" /></svg>