<?xml version="1.0" standalone="no"?><!DOCTYPE svg PUBLIC "-//W3C//DTD SVG 1.1//EN" "http://www.w3.org/Graphics/SVG/1.1/DTD/svg11.dtd"><svg class="icon" width="128px" height="128.00px" viewBox="0 0 1024 1024" version="1.1" xmlns="http://www.w3.org/2000/svg"><path d="M703.992 0c-11.75 0-21.312 9.546-21.312 21.328v981.36c0 11.75 9.562 21.312 21.312 21.312 11.812 0 21.312-9.562 21.312-21.312V21.328c0-11.782-9.5-21.328-21.312-21.328z" fill="#E9573F" /><path d="M917.304 810.688H254.352C404.07 666.562 598.804 442.968 597.304 256c0-141.39-114.578-256-255.984-256-141.376 0-256 114.61-256 256 0 11.782 9.562 21.328 21.344 21.328S128.008 267.782 128.008 256c0-56.984 22.188-110.562 62.468-150.844 40.312-40.296 93.876-62.484 150.844-62.484 57 0 110.562 22.188 150.86 62.484 40.312 40.282 62.5 93.86 62.5 150.844v0.344c0.876 112.75-83.11 263.25-242.922 435.218-43.624 46.938-87.532 89.624-126.218 125.25A21.348 21.348 0 0 0 179.196 832c0 11.782 9.562 21.312 21.344 21.312h716.766c11.812 0 21.376-9.532 21.376-21.312s-9.564-21.312-21.378-21.312z" fill="#FC6E51" /></svg>