<?xml version="1.0" standalone="no"?><!DOCTYPE svg PUBLIC "-//W3C//DTD SVG 1.1//EN" "http://www.w3.org/Graphics/SVG/1.1/DTD/svg11.dtd"><svg class="icon" width="128px" height="128.00px" viewBox="0 0 1024 1024" version="1.1" xmlns="http://www.w3.org/2000/svg"><path d="M959.982 554.9H64.018c-11.782 0-21.328 9.562-21.328 21.344v383.984c0 11.782 9.546 21.344 21.328 21.344h895.964c11.78 0 21.31-9.562 21.31-21.344V576.244c0-11.782-9.53-21.344-21.31-21.344z" fill="#965353" /><path d="M320.008 576.244v405.328h42.67V576.244c0-11.782-9.562-21.344-21.342-21.344-11.782 0-21.328 9.562-21.328 21.344zM661.306 576.244v405.328h42.688V576.244c0-11.782-9.562-21.344-21.312-21.344-11.812 0-21.376 9.562-21.376 21.344z" fill="#7F4545" /><path d="M456.392 323.566c-16.046-14-19.812-53.076-23.454-90.856-3.906-40.608-8.328-86.622-28.28-123.104-24.092-44.092-66.808-66.514-127.072-66.686-60.138 0.172-102.856 22.594-126.948 66.686-19.954 36.484-24.376 82.498-28.28 123.088-3.64 37.794-7.406 76.872-23.454 90.872l-17.578 15.312 16.812 16.14c4.094 3.938 43.842 38.356 179.508 38.356s175.416-34.418 179.508-38.356l16.812-16.14-17.574-15.312z" fill="#E2A437" /><path d="M435.22 399.968l-1.562-0.468c-22.812-6.344-30.514-12.452-40.67-16.452-36.014-14.234-45.388-24.498-47.778-29.342-0.094-0.172-0.156-0.36-0.234-0.532l-0.296-43.39-67.03-1-67.03 1-0.296 43.39c-0.078 0.172-0.14 0.36-0.234 0.532-2.39 4.844-11.764 15.108-47.778 29.342-10.156 4-17.858 10.108-40.67 16.452l-1.562 0.468c-20.766 7.124-34.734 27.078-34.734 49.624v62.654h384.608v-62.654c0-22.546-13.968-42.498-34.734-49.624z" fill="#EC87C0" /><path d="M396.16 225.428c0 79.874-73.404 153.37-118.51 153.37S159.14 305.302 159.14 225.428c0-79.856 53.06-132.556 118.51-132.556s118.51 52.702 118.51 132.556z" fill="#EAC6BB" /><path d="M293.946 137.73s60.56 56.34 136.166 67.372c-3.796-32.906-9.922-67.09-25.454-95.496-22.998-42.092-62.996-64.436-119.01-66.514l8.298 94.638z" fill="#F6BB42" /><path d="M923.766 396.954l-1.656-0.484c-24.312-6.514-32.5-12.78-43.312-16.89-38.374-14.624-48.374-25.154-50.904-30.124-0.094-0.188-0.156-0.376-0.25-0.562l-0.312-44.544-90.964-1.032-90.934 1.032-0.312 44.544a2.266 2.266 0 0 0-0.25 0.562c-2.562 4.968-12.562 15.5-50.902 30.124-10.812 4.11-19.032 10.376-43.312 16.89l-1.656 0.484C526.874 404.266 512 424.764 512 447.904v64.342H960.734v-64.342c-0.002-23.14-14.876-43.638-36.968-50.95z" fill="#5D9CEC" /><path d="M862.61 218.148c0 81.998-78.184 157.48-126.244 157.48-48.028 0-126.212-75.482-126.212-157.48 0-82.01 56.53-136.118 126.212-136.118 69.716 0 126.244 54.106 126.244 136.118z" fill="#EAC6BB" /><path d="M801.52 78.452s-2.468-11.156 23.686-26.86c11.062-6.656-165.836-38.186-210.272 73.608-16.686 42.014-4.344 103.824-4.344 103.824l38.466-68.95s41.906 9.796 87.308 9.796c45.436 0 88.872-9.796 88.872-9.796l37.374 58.262s14.344-55.934-1.75-93.01c-16.062-37.064-59.34-46.874-59.34-46.874z" fill="#434A54" /><path d="M1002.668 469.576H21.346c-11.78 0-21.328 9.546-21.328 21.326v85.342c0 11.78 9.546 21.342 21.328 21.342h981.322c11.75 0 21.312-9.562 21.312-21.342v-85.342c0-11.78-9.562-21.326-21.312-21.326z" fill="#A85D5D" /><path d="M372.194 71.03c-24.014-18.562-55.624-28-94.606-28.11-60.138 0.172-102.856 22.594-126.948 66.686-19.954 36.484-24.376 82.498-28.28 123.088l-1.124 11.516c125.446-9.532 224.678-136.37 250.958-173.18z" fill="#FFCE54" /></svg>