<?xml version="1.0" standalone="no"?><!DOCTYPE svg PUBLIC "-//W3C//DTD SVG 1.1//EN" "http://www.w3.org/Graphics/SVG/1.1/DTD/svg11.dtd"><svg class="icon" width="128px" height="128.00px" viewBox="0 0 1024 1024" version="1.1" xmlns="http://www.w3.org/2000/svg"><path d="M1019.026 349.016L805.724 93.03a21.334 21.334 0 0 0-16.404-7.688H234.692a21.226 21.226 0 0 0-16.374 7.688L4.986 349.016c-7.094 8.468-6.5 20.936 1.282 28.748l127.994 127.994c8.342 8.312 21.874 8.312 30.186 0l48.904-48.936v460.462c0 11.808 9.562 21.372 21.342 21.372H789.32c11.78 0 21.342-9.562 21.342-21.372V463.01l49.936 43.716a21.388 21.388 0 0 0 29.154-0.968l127.992-127.994c7.782-7.81 8.344-20.278 1.282-28.748z" fill="#AAB2BC" /><path d="M527.74 301.706L335.75 92.28A21.296 21.296 0 0 0 320 85.342h-85.308a21.226 21.226 0 0 0-16.374 7.688L4.986 349.016c-7.094 8.468-6.5 20.936 1.282 28.748l127.994 127.994c8.342 8.312 21.874 8.312 30.186 0l48.904-48.936v388.086c0 11.312 8.78 20.624 20.06 21.312l48.466 2.876c0.438 0.062 0.876 0.062 1.282 0.062 8.468 0 16.218-5.062 19.592-12.876l228.864-531.736a21.372 21.372 0 0 0-3.876-22.84z" fill="#CCD1D9" /><path d="M1019.026 349.016L805.724 93.03a21.334 21.334 0 0 0-16.404-7.688h-85.34c-5.966 0-11.654 2.5-15.716 6.938l-469.32 511.958a21.37 21.37 0 0 0-5.592 14.438v298.61c0 11.808 9.562 21.372 21.342 21.372H789.32c11.78 0 21.342-9.562 21.342-21.372V463.01l49.936 43.716a21.388 21.388 0 0 0 29.154-0.968l127.992-127.994c7.782-7.81 8.344-20.278 1.282-28.748z" fill="#E6E9ED" /><path d="M213.35 618.676h597.312v85.304H213.35z" fill="#DA4453" /><path d="M1019.026 349.016l-40.028-48.03-164.96 164.96 46.56 40.78a21.388 21.388 0 0 0 29.154-0.968l127.992-127.994c7.782-7.81 8.344-20.278 1.282-28.748zM4.986 349.016l40.03-48.03 162.084 162.086-43.716 43.654c-8.436 7.374-21.186 6.968-29.124-0.968L6.268 377.764c-7.782-7.81-8.376-20.278-1.282-28.748z" fill="#656D78" /><path d="M646.826 748.668l-89.838-119.808-44.998 44.936-44.934-44.936-89.87 119.808 73.12 73.122 61.684-82.248 61.716 82.248z" fill="#DA4453" /><path d="M511.99 597.3c-35.28 0-63.996 28.746-63.996 63.996 0 35.312 28.716 63.996 63.996 63.996 35.312 0 63.996-28.684 63.996-63.996 0-35.25-28.684-63.996-63.996-63.996z" fill="#ED5564" /></svg>