<?xml version="1.0" standalone="no"?><!DOCTYPE svg PUBLIC "-//W3C//DTD SVG 1.1//EN" "http://www.w3.org/Graphics/SVG/1.1/DTD/svg11.dtd"><svg class="icon" width="128px" height="128.00px" viewBox="0 0 1024 1024" version="1.1" xmlns="http://www.w3.org/2000/svg"><path d="M320 693.34H192.004c-11.782 0-21.344 9.562-21.344 21.344v64c0 11.782 9.562 21.312 21.344 21.312H320a21.3 21.3 0 0 0 21.312-21.312v-64c0.002-11.782-9.53-21.344-21.312-21.344zM831.994 693.34h-128c-11.782 0-21.342 9.562-21.342 21.344v64c0 11.782 9.56 21.312 21.342 21.312h128a21.3 21.3 0 0 0 21.312-21.312v-64c0-11.782-9.53-21.344-21.312-21.344z" fill="#7F4545" /><path d="M831.994 608c-11.782 0-21.344-9.532-21.344-21.312V275.004c0-11.782 9.562-21.344 21.344-21.344s21.312 9.562 21.312 21.344v311.682A21.3 21.3 0 0 1 831.994 608zM192.004 608c-11.782 0-21.344-9.532-21.344-21.312V345.752c0-11.782 9.562-21.342 21.344-21.342 11.78 0 21.312 9.562 21.312 21.342v240.934A21.3 21.3 0 0 1 192.004 608z" fill="#7F4545" /><path d="M851.056 577.156C846.088 567.188 794.338 480 511.998 480c-282.37 0-334.12 87.186-339.088 97.156a21.388 21.388 0 0 0-2.25 9.532v127.996c0 11.782 9.562 21.312 21.344 21.312h639.99a21.3 21.3 0 0 0 21.312-21.312v-127.996c0-3.312-0.75-6.594-2.25-9.532z" fill="#965353" /><path d="M717.962 591.906a2.56 2.56 0 0 0-0.406-0.344l-0.032-0.032c-2.376-1.968-10.968-8.376-25.062-11.562-12.998-2.968-34.06-3.844-60.59 8.782-27.188 12.938-42.468 2.624-43.094 2.188 0.312 0.218 0.468 0.376 0.468 0.376a21.194 21.194 0 0 0-13.25-4.624c-11.782 0-21.344 9.532-21.344 21.312 0 6.782 3.156 12.812 8.094 16.718 1.656 1.344 10.75 8.094 26 11.406 4.782 1.032 10.594 1.782 17.25 1.782 12.124 0 27.156-2.532 44.186-10.624 26.468-12.594 39.844-3.094 40.406-2.656-0.406-0.312-0.594-0.5-0.594-0.5h0.032a21.238 21.238 0 0 0 13.966 5.218c11.782 0 21.312-9.532 21.312-21.344a21.276 21.276 0 0 0-7.342-16.096zM306.376 591.906c0.094-0.094 0.25-0.218 0.406-0.344l0.032-0.032c2.376-1.968 10.968-8.376 25.062-11.562 13-2.968 34.062-3.844 60.592 8.782 27.186 12.938 42.468 2.624 43.124 2.188-0.344 0.218-0.5 0.376-0.5 0.376a21.194 21.194 0 0 1 13.25-4.624c11.782 0 21.344 9.532 21.344 21.312 0 6.782-3.156 12.812-8.094 16.718h0.032c-1.688 1.344-10.782 8.094-26.032 11.406-4.782 1.032-10.594 1.782-17.25 1.782-12.124 0-27.156-2.532-44.186-10.624-26.468-12.594-39.842-3.094-40.406-2.656 0.406-0.312 0.594-0.5 0.594-0.5h-0.032a21.12 21.12 0 0 1-13.968 5.218c-11.782 0-21.312-9.532-21.312-21.344a21.292 21.292 0 0 1 7.344-16.096zM533.31 608c0 11.812-9.532 21.344-21.312 21.344s-21.344-9.532-21.344-21.344c0-11.782 9.562-21.312 21.344-21.312s21.312 9.53 21.312 21.312z" fill="#FFCE54" /><path d="M1004.24 266.63l-257.122-19.218a21.29 21.29 0 0 0-15.876 5.438 21.236 21.236 0 0 0-7.032 15.25l-1.562 57.092c-0.344 11.5 8.532 21.156 20 21.874l255.372 15.782c0.438 0.032 0.876 0.032 1.312 0.032 11.188 0 20.594-8.718 21.282-20l3.344-53.654c0.72-11.658-8.062-21.752-19.718-22.596z" fill="#ED5564" /><path d="M747.588 241.474c-0.5-0.032-49.812-2.124-126.528-2.124-89.406 0-177.686 2.718-262.372 8.124-113.904 7.282-165.09 14.844-224.402 23.594-17.594 2.594-35.782 5.282-56.406 8.062a21.192 21.192 0 0 0-13.656 7.624L4.82 359.502a21.31 21.31 0 0 0-1.624 24.718 21.352 21.352 0 0 0 18.124 10.124c1.594 0 3.156-0.188 4.75-0.532 1.282-0.312 130.466-29.218 339.244-42.562 70.312-4.468 143.342-6.75 217.06-6.75 97.624 0 162.278 4.094 162.902 4.124 5.906 0.376 11.656-1.688 15.968-5.718s6.75-9.656 6.75-15.562v-64.562c0-11.402-9-20.808-20.406-21.308z" fill="#CCD1D9" /><path d="M747.588 241.474c-0.5-0.032-49.812-2.124-126.528-2.124-89.406 0-177.686 2.718-262.372 8.124-113.904 7.282-165.09 14.844-224.402 23.594-17.594 2.594-35.782 5.282-56.406 8.062a21.192 21.192 0 0 0-13.656 7.624L4.82 359.502a21.29 21.29 0 0 0-1.938 24.156c0.562-0.968 1.188-1.938 1.938-2.812l59.406-72.75a21.238 21.238 0 0 1 13.656-7.656c20.624-2.782 38.812-5.438 56.406-8.062 59.312-8.75 110.498-16.312 224.402-23.562 84.686-5.406 172.966-8.156 262.372-8.156 76.714 0 126.028 2.124 126.528 2.156 11.406 0.5 20.406 9.876 20.406 21.312v-21.344c-0.002-11.404-9.002-20.81-20.408-21.31z" fill="#FFFFFF" opacity=".2" /><path d="M746.65 365.346c-11.782 0-21.344-9.562-21.344-21.344v-98.654c0-11.782 9.562-21.344 21.344-21.344s21.344 9.562 21.344 21.344v98.654c0 11.782-9.562 21.344-21.344 21.344zM810.65 351.252l42.656 2.658v-98.562l-42.656-3.186zM895.992 356.534l42.654 2.626v-97.436l-42.654-3.188z" fill="#DA4453" /></svg>