<?xml version="1.0" standalone="no"?><!DOCTYPE svg PUBLIC "-//W3C//DTD SVG 1.1//EN" "http://www.w3.org/Graphics/SVG/1.1/DTD/svg11.dtd"><svg class="icon" width="128px" height="128.00px" viewBox="0 0 1024 1024" version="1.1" xmlns="http://www.w3.org/2000/svg"><path d="M213.322 381.292h424.392v42.656H213.322z" fill="#7F4545" /><path d="M234.666 445.292c-11.782 0-21.344-9.546-21.344-21.342v-42.656c0-11.78 9.562-21.344 21.344-21.344s21.342 9.564 21.342 21.344v42.656c0 11.794-9.56 21.342-21.342 21.342z" fill="#965353" /><path d="M428.94 253.298h424.362v42.654H428.94z" fill="#7F4545" /><path d="M981.296 466.618C779.616 560.38 512 551.944 512 551.944s-267.618 8.438-469.328-85.326C39.64 465.196 0.018 531.944 0.018 637.284s101.996 166.338 127.996 170.65C153.98 812.28 512 813.374 512 813.374s357.988-1.094 383.986-5.438c25.968-4.312 127.996-65.31 127.996-170.65 0-105.342-39.624-172.09-42.686-170.668z" fill="#FFD2A6" /><path d="M170.668 809.998c12.376 0.31 26.842 0.626 42.654 0.876v-288.6a1040.5 1040.5 0 0 1-42.654-10.314v298.038zM810.646 810.874c15.842-0.25 30.282-0.564 42.654-0.876V511.96a1017.264 1017.264 0 0 1-42.654 10.314v288.6z" fill="#965353" /><path d="M533.312 615.942c0 11.812-9.534 21.344-21.312 21.344-11.782 0-21.344-9.532-21.344-21.344 0-11.782 9.562-21.312 21.344-21.312a21.298 21.298 0 0 1 21.312 21.312zM533.312 743.936c0 11.814-9.534 21.344-21.312 21.344-11.782 0-21.344-9.53-21.344-21.344 0-11.78 9.562-21.308 21.344-21.308a21.294 21.294 0 0 1 21.312 21.308zM481.814 619.628c8.342 8.312 8.342 21.81 0 30.154-8.312 8.344-21.844 8.344-30.156 0-8.344-8.344-8.344-21.842 0-30.154 8.312-8.342 21.844-8.374 30.156 0zM572.342 710.126c8.312 8.31 8.312 21.808 0 30.154a21.33 21.33 0 0 1-30.186 0c-8.314-8.346-8.314-21.844 0-30.154a21.334 21.334 0 0 1 30.186 0zM448.002 658.626a21.3 21.3 0 0 1 21.312 21.312c0 11.81-9.532 21.344-21.312 21.344s-21.344-9.534-21.344-21.344c0-11.78 9.562-21.312 21.344-21.312zM575.998 658.626c11.78 0 21.31 9.532 21.31 21.312 0 11.81-9.532 21.344-21.31 21.344a21.332 21.332 0 0 1-21.342-21.344c0-11.78 9.56-21.312 21.342-21.312zM451.658 710.126c8.312-8.344 21.844-8.344 30.156 0 8.342 8.31 8.342 21.808 0 30.154-8.312 8.344-21.844 8.344-30.156 0-8.344-8.344-8.344-21.842 0-30.154zM542.156 619.628c8.342-8.344 21.842-8.376 30.186 0 8.312 8.312 8.312 21.81 0 30.154a21.33 21.33 0 0 1-30.186 0c-8.314-8.342-8.314-21.84 0-30.154z" fill="#D94452" /><path d="M512 722.626c-23.532 0-42.686-19.158-42.686-42.688 0-23.5 19.154-42.654 42.686-42.654s42.656 19.154 42.656 42.654c0 23.53-19.124 42.688-42.656 42.688z" fill="#D94452" /><path d="M512 615.942c-35.342 0-63.998 28.654-63.998 63.998 0 35.374 28.656 63.996 63.998 63.996s63.998-28.624 63.998-63.996c0-35.344-28.656-63.998-63.998-63.998z m0 85.342c-11.782 0-21.344-9.596-21.344-21.344 0-11.75 9.562-21.312 21.344-21.312 11.75 0 21.312 9.562 21.312 21.312 0 11.748-9.562 21.344-21.312 21.344z" fill="#EC5564" /><path d="M767.992 338.624c70.686 0 85.308 52.374 85.308 63.998 0 11.626-14.624 63.998-85.308 63.998s-170.684-28.656-170.684-63.998c0-35.344 99.998-63.998 170.684-63.998zM298.664 338.624c-70.686 0-85.342-52.374-85.342-64 0-11.624 14.656-63.998 85.342-63.998s170.65 28.656 170.65 63.998c0 35.344-99.964 64-170.65 64zM831.988 317.294c-11.782 0-21.342-9.546-21.342-21.342v-42.654c0-11.782 9.56-21.344 21.342-21.344s21.312 9.562 21.312 21.344v42.654c0 11.796-9.53 21.342-21.312 21.342z" fill="#965353" /><path d="M895.986 765.28C869.988 769.624 512 770.716 512 770.716s-358.02-1.094-383.986-5.438C103.388 761.184 10.578 706.22 0.862 610.908c-0.562 8.5-0.844 17.282-0.844 26.376 0 105.34 101.996 166.338 127.996 170.65C153.98 812.28 512 813.374 512 813.374s357.988-1.094 383.986-5.438c25.968-4.312 127.996-65.31 127.996-170.65 0-9.094-0.312-17.876-0.844-26.376-9.718 95.31-102.558 150.276-127.152 154.37z" opacity=".1" /></svg>