<?xml version="1.0" standalone="no"?><!DOCTYPE svg PUBLIC "-//W3C//DTD SVG 1.1//EN" "http://www.w3.org/Graphics/SVG/1.1/DTD/svg11.dtd"><svg class="icon" width="128px" height="128.00px" viewBox="0 0 1024 1024" version="1.1" xmlns="http://www.w3.org/2000/svg"><path d="M296.386 243.006c-5.094-0.562-9.75 0.906-12.968 4.124l-36.186 36.186c-6.656 6.656-5.312 18.81 3.032 27.154l463.194 463.192c3.998 4 9.092 6.562 14.186 7.124s9.75-0.906 12.938-4.094l36.216-36.214c6.656-6.656 5.312-18.812-3.032-27.156L310.574 250.132c-4-4-9.094-6.562-14.188-7.126z" fill="#CCD1D9" /><path d="M323.824 252.88L301.2 154.886a21.598 21.598 0 0 0-5.688-10.312L157.208 6.268c-8.344-8.312-21.842-8.312-30.186 0L6.372 126.918c-4 4-6.25 9.438-6.25 15.062a21.3 21.3 0 0 0 6.25 15.092l138.336 138.306a21.15 21.15 0 0 0 10.282 5.718l97.994 22.624c1.594 0.376 3.218 0.532 4.812 0.532 5.594 0 11.032-2.188 15.092-6.25l45.248-45.248a21.334 21.334 0 0 0 5.688-19.874z" fill="#656D78" /><path d="M99.46 129.512c8.312 8.312 21.81 8.312 30.154 0a21.33 21.33 0 0 0 0-30.186l-47.84-47.842-30.124 30.186L99.46 129.512z" fill="#434A54" /><path d="M869.042 722.73l-97.992-22.624a21.4 21.4 0 0 0-19.906 5.688l-45.248 45.248a21.36 21.36 0 0 0-5.688 19.874l22.624 98.028a21.366 21.366 0 0 0 5.688 10.282l138.336 138.304c8.312 8.344 21.812 8.344 30.156 0l120.648-120.618c4-4 6.218-9.438 6.218-15.094s-2.218-11.094-6.218-15.094l-138.336-138.304a21.094 21.094 0 0 0-10.282-5.69z" fill="#656D78" /><path d="M972.414 942.156l-47.81-47.84a21.33 21.33 0 0 0-30.186 0c-8.312 8.31-8.312 21.842 0 30.152l47.84 47.844 30.156-30.156z" fill="#434A54" /><path d="M995.446 4.268c-3.25 0.468-76.684 8.344-196.804 62.56-70.028 31.656-140.304 71.31-208.8 117.932-85.496 58.09-168.522 127.274-246.768 205.52-78.34 78.308-145.024 158.928-198.302 239.58-42.81 64.842-77.122 129.932-101.932 193.368C0.06 932.72 0.124 999.81 0.154 1002.622l0.188 21.344 21.342-0.188c2.844-0.032 70.934-1.156 181.458-45.092 64.09-25.466 129.68-60.31 194.866-103.494 81.12-53.746 161.992-120.682 240.3-199.022 78.246-78.214 147.18-161.022 204.802-246.048 46.246-68.122 85.4-137.9 116.368-207.27 53.092-119.026 59.778-191.458 60.214-194.646L1023.474 0.144l-28.028 4.124z" fill="#48CFAD" /><path d="M617.684 406.404c-33.312-33.31-87.34-33.31-120.652 0.032l-120.65 120.618c-33.31 33.31-33.31 87.308 0 120.65 33.342 33.31 87.338 33.31 120.65 0l120.652-120.65c33.308-33.31 33.308-87.34 0-120.65z" fill="#656D78" /><path d="M632.744 391.342c-41.53-41.592-109.212-41.592-150.804 0l-120.618 120.62c-41.592 41.588-41.592 109.244 0 150.804 20.124 20.154 46.934 31.248 75.372 31.248 28.498 0 55.278-11.094 75.432-31.248l120.62-120.62c20.154-20.154 31.248-46.934 31.248-75.432-0.002-28.466-11.096-55.248-31.25-75.372z m-30.122 120.62l-120.682 120.648c-12.062 12.094-28.154 18.75-45.248 18.75-17.062 0-33.124-6.656-45.216-18.75-24.936-24.904-24.936-65.528 0-90.462l120.65-120.68c24.938-24.904 65.528-24.904 90.496 0 12.062 12.094 18.718 28.154 18.718 45.248 0 17.09-6.656 33.184-18.718 45.246zM225.484 798.446c-8.344-8.312-21.842-8.312-30.186 0L0.496 993.278c-0.344 5.594-0.344 8.782-0.344 9.344l0.188 21.344 21.342-0.188c0.562 0 3.656-0.062 9.092-0.468l194.708-194.708c8.282-8.312 8.282-21.844 0.002-30.156zM858.888 165.01a21.33 21.33 0 0 0 30.186 0l129.43-129.43c0.75-4.344 1.124-6.842 1.188-7.374L1023.474 0.144l-28.028 4.124c-0.532 0.062-2.968 0.438-7.218 1.25l-129.338 129.338c-8.314 8.344-8.314 21.842-0.002 30.154z" fill="#37BC9B" /><path d="M819.984 204.102V165.104c0-11.782-9.562-21.312-21.344-21.312-11.78 0-21.28 9.53-21.28 21.312l-0.032 38.998h-38.998c-11.782 0-21.312 9.562-21.312 21.342 0 11.75 9.532 21.312 21.312 21.312h39.03v38.998c-0.032 11.78 9.5 21.31 21.28 21.31 5.906 0 11.218-2.376 15.094-6.25a21.276 21.276 0 0 0 6.25-15.06v-38.998h38.998c5.876 0 11.216-2.406 15.092-6.25 3.844-3.876 6.25-9.156 6.25-15.062 0-11.78-9.562-21.342-21.342-21.342h-38.998z" fill="#E6E9ED" /><path d="M729.52 294.598v-39.03c0-11.78-9.562-21.28-21.342-21.28s-21.342 9.5-21.342 21.28v39.03h-39a21.296 21.296 0 0 0-21.31 21.312c0 11.78 9.532 21.342 21.31 21.342h39v38.998c0 11.782 9.562 21.344 21.342 21.344 5.876 0 11.216-2.406 15.092-6.25a21.412 21.412 0 0 0 6.25-15.094v-38.998h39a21.28 21.28 0 0 0 21.278-21.342c0-11.782-9.5-21.312-21.28-21.312H729.52z" fill="#E6E9ED" /><path d="M331.072 753.198c-16.686 16.654-43.684 16.654-60.34 0-16.656-16.654-16.656-43.686 0-60.34 16.656-16.656 43.686-16.656 60.34 0 16.656 16.654 16.656 43.684 0 60.34z" fill="#37BC9B" /></svg>