<?xml version="1.0" standalone="no"?><!DOCTYPE svg PUBLIC "-//W3C//DTD SVG 1.1//EN" "http://www.w3.org/Graphics/SVG/1.1/DTD/svg11.dtd"><svg class="icon" width="128px" height="128.00px" viewBox="0 0 1024 1024" version="1.1" xmlns="http://www.w3.org/2000/svg"><path d="M64.012 501.328h42.672v79.982H64.012z" fill="#F6BB42" /><path d="M136.134 538.326c-48.608-0.656-84.95 8.734-108.028 27.984C9.544 581.748-0.144 603.496 0.028 629.246l-0.016 0.062v0.25h0.016c0.11 11.688 9.61 21.124 21.312 21.124 11.782 0 21.344-9.562 21.344-21.376 0-0.062-0.016-0.124-0.016-0.188h0.016c-0.124-13.124 3.906-22.688 12.686-30 14.532-12.124 42.766-18.498 79.514-18.124 30.5 0.312 56.25 5.248 56.484 5.31l8.14-41.936c-1.17-0.182-29.186-5.574-63.374-6.042zM149.338 501.328c0-11.782-9.546-21.312-21.328-21.312H42.686c-11.782 0-21.328 9.532-21.328 21.312 0 11.78 9.546 21.344 21.328 21.344h85.324c11.782 0 21.328-9.564 21.328-21.344z" fill="#FFCE54" /><path d="M892.896 652.496l43.844 174.558c8.562 34.31-12.25 69.058-46.5 77.684-34.31 8.562-69.058-12.25-77.684-46.498l-43.812-174.622 124.152-31.122zM302.146 652.496l-43.81 174.558c-8.61 34.31 12.204 69.058 46.482 77.684 34.282 8.562 69.044-12.25 77.654-46.498l43.826-174.622-124.152-31.122z" fill="#965353" /><path d="M597.342 117.338c-307.79 0-426.66 85.342-426.66 85.342v512.002s118.872 85.31 426.66 85.31c307.774 0 426.644-85.31 426.644-85.31V202.68s-118.87-85.342-426.644-85.342z" fill="#A85D5D" /><path d="M170.682 283.74v43.154c64.358-10.094 261.946-38.874 426.66-38.874s362.274 28.78 426.644 38.874V283.74c-71.59-11.094-264.43-38.406-426.644-38.406-162.23 0-355.068 27.312-426.66 38.406zM170.682 590.434v43.188c71.592 11.062 264.43 38.376 426.66 38.376 162.214 0 355.054-27.312 426.644-38.376v-43.188c-64.34 10.124-261.868 38.876-426.644 38.876-164.716-0.002-362.302-28.752-426.66-38.876zM170.682 437.33h853.304v42.686H170.682z" fill="#965353" /><path d="M341.334 776.118c36.186 7.562 78.67 14.188 127.996 18.5V122.712c-49.326 4.344-91.81 10.938-127.996 18.532v634.874zM725.306 794.618c49.376-4.312 91.844-10.938 127.998-18.5V141.244c-36.154-7.594-78.624-14.188-127.998-18.532v671.906z" fill="#F5F7FA" /><path d="M597.342 117.338c-307.79 0-426.66 85.342-426.66 85.342v42.654s118.872-85.31 426.66-85.31c4.406 0 8.782 0 13.124 0.062 2.532 0 5.062 0.032 7.594 0.062 1.562 0.032 3.156 0.062 4.75 0.062 288.868 4.53 401.176 85.122 401.176 85.122V202.68s-118.87-85.342-426.644-85.342zM597.31 801.492c307.804 0 426.676-85.31 426.676-85.31v-42.686s-118.872 85.372-426.676 85.372c-4.376 0-8.75-0.062-13.124-0.062-2.532 0-5.062-0.062-7.562-0.124-1.562 0-3.188 0-4.75-0.062-288.882-4.5-401.192-85.122-401.192-85.122v42.686c0-0.002 118.87 85.308 426.628 85.308z" opacity=".1" /></svg>