<?xml version="1.0" standalone="no"?><!DOCTYPE svg PUBLIC "-//W3C//DTD SVG 1.1//EN" "http://www.w3.org/Graphics/SVG/1.1/DTD/svg11.dtd"><svg class="icon" width="128px" height="128.00px" viewBox="0 0 1024 1024" version="1.1" xmlns="http://www.w3.org/2000/svg"><path d="M928.508 364.526L523.182 114.958a21.3 21.3 0 0 0-22.358 0L95.496 364.526a21.37 21.37 0 0 0-10.14 18.172v513.292c0 11.782 9.546 21.344 21.328 21.344h810.64c11.78 0 21.31-9.562 21.31-21.344V382.698a21.392 21.392 0 0 0-10.126-18.172z" fill="#E6E9ED" /><path d="M1012.504 322.418L521.87 66.428a21.376 21.376 0 0 0-19.734 0L11.484 322.418a21.356 21.356 0 0 0-11.468 18.92v85.326c0 7.468 3.906 14.374 10.282 18.25a21.368 21.368 0 0 0 20.92 0.672L511.994 194.736l480.792 250.85a21.28 21.28 0 0 0 9.842 2.406c3.844 0 7.688-1.032 11.062-3.078a21.356 21.356 0 0 0 10.282-18.25v-85.326c0-7.952-4.406-15.232-11.468-18.92z" fill="#ED5564" /><path d="M511.994 469.334c-105.854 0-191.992 86.14-191.992 192.008v234.648c0 11.782 9.562 21.344 21.342 21.344h341.298c11.782 0 21.344-9.562 21.344-21.344V661.342c0-105.87-86.118-192.008-191.992-192.008z" fill="#434A54" /><path d="M575.992 383.994h-127.996c-11.78 0-21.326-9.546-21.326-21.328s9.546-21.328 21.326-21.328h127.996c11.782 0 21.344 9.546 21.344 21.328s-9.562 21.328-21.344 21.328z" fill="#F6BB42" /><path d="M426.67 405.336c-5.454 0-10.92-2.078-15.078-6.25-8.344-8.328-8.344-21.842 0-30.17l6.25-6.25-6.25-6.25c-8.344-8.328-8.344-21.826 0-30.17 8.328-8.328 21.828-8.328 30.17 0l21.326 21.342c8.328 8.328 8.328 21.828 0 30.17l-21.326 21.328a21.25 21.25 0 0 1-15.092 6.25zM597.336 405.336a21.232 21.232 0 0 1-15.094-6.25l-21.344-21.328c-8.312-8.344-8.312-21.844 0-30.17l21.344-21.342c8.344-8.328 21.844-8.328 30.156 0 8.342 8.344 8.342 21.842 0 30.17l-6.25 6.25 6.25 6.25c8.342 8.328 8.342 21.844 0 30.17a21.21 21.21 0 0 1-15.062 6.25z" fill="#F6BB42" /><path d="M234.678 831.992c11.78 0 21.328-9.562 21.328-21.344 0-11.78-9.546-21.31-21.328-21.31H85.356v42.654h149.322z" fill="#CCD1D9" /><path d="M959.976 917.334H64.012c-11.782 0-21.328-9.562-21.328-21.344s9.546-21.344 21.328-21.344h895.964c11.78 0 21.342 9.562 21.342 21.344s-9.562 21.344-21.342 21.344z" fill="#656D78" /><path d="M1019.442 840.21a21.26 21.26 0 0 0-16.812-8.218H746.64a21.35 21.35 0 0 0-16.81 8.218 21.308 21.308 0 0 0-3.876 18.282l21.342 85.338a21.324 21.324 0 0 0 20.686 16.156h213.336c9.782 0 18.31-6.656 20.686-16.156l21.344-85.338a21.22 21.22 0 0 0-3.906-18.282z" fill="#ED5564" /></svg>