<?xml version="1.0" standalone="no"?><!DOCTYPE svg PUBLIC "-//W3C//DTD SVG 1.1//EN" "http://www.w3.org/Graphics/SVG/1.1/DTD/svg11.dtd"><svg class="icon" width="128px" height="128.00px" viewBox="0 0 1024 1024" version="1.1" xmlns="http://www.w3.org/2000/svg"><path d="M725.34 511.984c0-85.326-106.716-255.872-106.716-255.872L618.686 0.008H405.158l0.376 255.87s-106.874 170.778-106.874 256.104v490.662c0 11.782 9.562 21.344 21.344 21.344h383.992c11.782 0 21.344-9.562 21.344-21.344v-490.66z" fill="#F4F6F9" /><path d="M618.624 149.334h-50.282c-15.032-13.234-34.748-21.28-56.342-21.28s-41.312 8.046-56.342 21.282h-50.25v128.106h50.25c15.032 13.234 34.75 21.282 56.342 21.282s41.31-8.046 56.342-21.282h50.282V149.334z" fill="#CBD0D8" /><path d="M576.03 213.38c0 35.358-28.656 63.998-63.998 63.998-35.374 0-64-28.64-64-63.998 0-35.344 28.624-64 64-64 35.342 0.002 63.998 28.658 63.998 64zM298.66 511.984v490.662c0 11.782 9.562 21.344 21.344 21.344h383.992c11.782 0 21.344-9.562 21.344-21.344V511.984c0-34.39-17.344-82.638-38.06-127.998H336.722c-20.686 45.376-38.062 93.624-38.062 127.998z" fill="#EC5564" /><path d="M406.97 874.648l-20.782-213.34h48.312l-0.656-21.53c0.032-1.312 0.5-17.656 9.906-33.062 12.406-20.406 35.406-30.718 68.312-30.718 32.936 0 55.936 10.312 68.342 30.718 9.376 15.438 9.876 31.75 9.876 33.062l-0.624 21.874 21.968-0.344h26.218l-20.688 213.34H406.97z" fill="#E5E8EC" /><path d="M611.624 639.996s1.188-85.34-99.56-85.34-99.53 85.34-99.53 85.34H362.66l24.968 255.996h248.902l24.812-255.996h-49.718z m-13.844 213.308h-171.434l-16.656-170.652h2.844l44.874 1.532-2.218-44.436c0.124-2.124 1.032-13.124 7.406-22.938 3.438-5.312 7.968-9.376 13.782-12.438 8.938-4.688 20.936-7.062 35.686-7.062 14.782 0 26.78 2.376 35.716 7.062 5.812 3.062 10.312 7.124 13.782 12.438 6.344 9.812 7.282 20.812 7.376 22.938l-2.156 42.904h47.562l-16.564 170.652z" fill="#CBD0D8" /><path d="M533.344 682.652c0 11.782-9.562 21.344-21.344 21.344s-21.344-9.562-21.344-21.344 9.562-21.344 21.344-21.344 21.344 9.564 21.344 21.344z" fill="#EC5564" /><path d="M575.998 767.996c0-11.782-9.562-21.344-21.344-21.344h-85.31c-11.782 0-21.344 9.562-21.344 21.344s9.562 21.31 21.344 21.31h85.31c11.782 0 21.344-9.528 21.344-21.31z" fill="#424953" /><path d="M533.344 213.38A21.33 21.33 0 0 1 512 234.722c-11.782 0-21.312-9.562-21.312-21.342S500.218 192.052 512 192.052c11.812 0 21.344 9.548 21.344 21.328z" fill="#E5E8EC" /><path d="M639.998 1002.646c-11.782 0-21.344 9.562-21.344 21.344h42.688c0-11.782-9.562-21.344-21.344-21.344zM575.998 1002.646c-11.782 0-21.344 9.562-21.344 21.344h42.688c0-11.782-9.562-21.344-21.344-21.344zM512 1002.646c-11.782 0-21.344 9.562-21.344 21.344h42.688c0-11.782-9.562-21.344-21.344-21.344zM448 1002.646c-11.782 0-21.342 9.562-21.342 21.344h42.686c0-11.782-9.562-21.344-21.344-21.344zM384.002 1002.646c-11.78 0-21.342 9.562-21.342 21.344h42.686c0-11.782-9.562-21.344-21.344-21.344z" fill="#D94452" /><path d="M618.624 256.114L618.686 0.01h-42.656l-0.062 256.104s106.688 170.544 106.688 255.872v490.662c0 11.782-9.532 21.344-21.312 21.344h42.654c11.782 0 21.344-9.562 21.344-21.344V511.986c0-85.326-106.718-255.872-106.718-255.872z" fill="#FFFFFF" opacity=".2" /><path d="M639.998 85.336c0 11.782-9.562 21.328-21.344 21.328H405.346c-11.782 0-21.344-9.546-21.344-21.328V21.338c0-11.782 9.562-21.328 21.344-21.328h213.308c11.782 0 21.344 9.546 21.344 21.328v63.998z" fill="#424953" /></svg>