<?xml version="1.0" standalone="no"?><!DOCTYPE svg PUBLIC "-//W3C//DTD SVG 1.1//EN" "http://www.w3.org/Graphics/SVG/1.1/DTD/svg11.dtd"><svg class="icon" width="128px" height="128.00px" viewBox="0 0 1024 1024" version="1.1" xmlns="http://www.w3.org/2000/svg"><path d="M64.015875 576.007875c0 247.433651 200.558475 447.992125 447.992125 447.992125 247.417651 0 447.976125-200.558475 447.976125-447.992125 0-155.185272-78.936612-291.916869-198.808505-372.305456 36.811353-16.827704 62.374904-53.921052 62.374904-97.014294C823.548524 47.76716 775.799363 0.018 716.864399 0.018c-58.874965 0-106.622126 47.749161-106.622126 106.670125 0 43.311239 25.811546 80.560584 62.874895 97.26429 46.937175 20.343642 89.122433 49.077137 125.497794 85.452498 37.249345 37.233346 66.436832 80.592583 86.874473 128.841735 21.123629 49.953122 31.811441 103.014189 31.811441 157.763227s-10.687812 107.810105-31.811441 157.747227c-20.437641 48.249152-49.623128 91.622389-86.874473 128.873735s-80.622583 66.436832-128.873735 86.874472c-49.937122 21.123629-102.998189 31.811441-157.731227 31.811441-54.749038 0-107.810105-10.687812-157.747227-31.811441-48.281151-20.437641-91.622389-49.623128-128.873735-86.874472-37.219346-37.251345-66.468832-80.626583-86.874473-128.875735-21.123629-49.937122-31.84344-102.998189-31.84344-157.747227s10.717812-107.810105 31.84344-157.763227c20.405641-48.249152 49.655127-91.60839 86.874473-128.841735 36.375361-36.375361 78.560619-65.154855 125.465795-85.482498 37.031349-16.733706 62.842895-53.967051 62.842895-97.23229C413.697728 47.76716 365.916568 0.018 307.011603 0.018s-106.654125 47.749161-106.654125 106.670125c0 43.123242 25.59355 80.23259 62.404903 97.044294C142.920488 284.123006 64.015875 420.838602 64.015875 576.007875z m588.849649-469.31975c0-35.29538 28.749495-63.998875 63.998875-63.998875 35.311379 0 63.998875 28.703495 63.998875 63.998875 0 35.28138-28.687496 63.998875-63.998875 63.998875-35.24938 0-63.998875-28.717495-63.998875-63.998875z m-409.852796 0c0-35.29538 28.717495-63.998875 63.998875-63.998875s63.998875 28.703495 63.998875 63.998875c0 35.28138-28.717495 63.998875-63.998875 63.998875s-63.998875-28.717495-63.998875-63.998875z" fill="#8CC152" /><path d="M200.575474 106.688125C200.575474 47.76716 248.324635 0.018 307.261599 0.018c58.874965 0 106.654125 47.749161 106.654125 106.670125 0 58.904965-47.78116 106.654125-106.654125 106.654125-58.936964 0-106.686125-47.749161-106.686125-106.654125zM610.552268 106.688125C610.552268 47.76716 658.301428 0.018 717.238392 0.018c58.874965 0 106.686125 47.749161 106.686125 106.670125 0 58.904965-47.81116 106.654125-106.686125 106.654125-58.936964 0-106.686125-47.749161-106.686124-106.654125z" fill="#A0D468" /></svg>