<?xml version="1.0" standalone="no"?><!DOCTYPE svg PUBLIC "-//W3C//DTD SVG 1.1//EN" "http://www.w3.org/Graphics/SVG/1.1/DTD/svg11.dtd"><svg class="icon" width="128px" height="128.00px" viewBox="0 0 1024 1024" version="1.1" xmlns="http://www.w3.org/2000/svg"><path d="M81.078 876.864l147.12 147.12 45.186-45.154-30.186-30.188c-8.312-8.312-8.312-21.844 0-30.154 8.312-8.344 21.842-8.344 30.186 0l30.156 30.154 45.154-45.154-147.12-147.12-120.496 120.496z" fill="#F6BB42" /><path d="M167.856 963.64l-47.468-47.466 120.496-120.496 47.498 47.466z" opacity=".1" /><path d="M922.798 192.98c-24.062-24.044-53.124-41.124-84.872-50.232-9.124-31.748-26.186-60.842-50.248-84.888C710.556-19.262 585.092-19.262 508 57.86c-58.06 58.03-84.81 149.214-79.498 270.992 2.062 47.358 8.688 89.998 14.188 118.59L62.11 828.05c-25 25-25 65.53 0 90.498 24.968 24.998 65.53 24.998 90.498 0l380.582-380.598c28.624 5.516 71.248 12.172 118.622 14.234 121.776 5.282 212.96-21.466 270.99-79.512 77.12-77.104 77.12-202.57-0.004-279.692z m-90.496 189.182c-30.438 30.452-91.808 45.436-172.778 42.216-35.84-1.422-68.934-6.108-92.84-10.406-4.282-23.92-9-57.014-10.406-92.84-3.218-80.966 11.782-142.338 42.218-172.776 27.186-27.202 71.464-27.202 98.684 0 13.344 13.376 20.624 31.14 20.406 50.06l-0.656 65.31 65.308-0.656c18.906-0.188 36.688 7.062 50.062 20.422 27.188 27.202 27.188 71.466 0.002 98.67z" fill="#FFCE54" /><path d="M862.458 253.322c-21.216-21.234-49.466-32.92-79.498-32.92h-1.156l-21.78 0.234 0.218-21.782c0.312-30.466-11.376-59.124-32.904-80.654-21.218-21.218-49.468-32.906-79.53-32.906-30.03 0-58.28 11.688-79.498 32.89-39.498 39.53-58.436 110.294-54.686 204.65 1.562 39.312 6.876 75.358 11.062 98.668l5.25 29.234 29.216 5.234c23.282 4.172 59.344 9.484 98.652 11.046 7.75 0.296 15.438 0.454 22.844 0.468 82.874 0 145.746-19.078 181.806-55.154 21.218-21.202 32.904-49.452 32.904-79.498 0.004-30.058-11.682-58.292-32.9-79.51z m-30.156 128.84c-27.75 27.734-81.124 42.654-151.652 42.654-6.876 0-13.906-0.14-21.124-0.438-35.84-1.422-68.934-6.108-92.84-10.406-4.282-23.92-9-57.014-10.406-92.84-3.218-80.966 11.782-142.338 42.218-172.776 13.594-13.594 31.466-20.406 49.31-20.406 17.874 0 35.748 6.812 49.374 20.406 13.344 13.376 20.624 31.14 20.406 50.06l-0.656 65.31 65.308-0.656h0.718c18.656 0 36.156 7.234 49.344 20.422 27.186 27.202 27.186 71.466 0 98.67zM298.008 773.18l42.654-42.656v-181.026l-42.654 42.654zM383.318 687.838l42.684-42.654V464.16l-42.684 42.67zM212.666 858.52l42.656-42.688V634.84l-42.656 42.654z" fill="#F6BB42" /></svg>