<?xml version="1.0" standalone="no"?><!DOCTYPE svg PUBLIC "-//W3C//DTD SVG 1.1//EN" "http://www.w3.org/Graphics/SVG/1.1/DTD/svg11.dtd"><svg class="icon" width="128px" height="128.00px" viewBox="0 0 1024 1024" version="1.1" xmlns="http://www.w3.org/2000/svg"><path d="M959.982 170.694H64.018C28.738 170.694 0.02 199.396 0.02 234.692v554.618c0 35.31 28.718 63.998 63.998 63.998h895.964c35.31 0 63.998-28.688 63.998-63.998V234.692c0-35.298-28.688-63.998-63.998-63.998z" fill="#ED5564" /><path d="M849.736 542.836l-42.654-63.998a21.35 21.35 0 0 0-17.75-9.5H362.694c-11.782 0-21.342 9.562-21.342 21.342v170.634c0 11.812 9.562 21.376 21.342 21.376h213.304c5.688 0 11.094-2.25 15.094-6.25l27.592-27.592 27.56 27.592c8.344 8.312 21.844 8.312 30.188 0l27.562-27.592 27.59 27.592a21.43 21.43 0 0 0 15.094 6.25c5.466 0 10.904-2.124 15.092-6.25l42.656-42.686c1-1 1.876-2.062 2.656-3.25l42.654-63.998a21.328 21.328 0 0 0 0-23.67z" fill="#F6BB42" /><path d="M1023.98 320.016v-85.324c0-35.296-28.688-63.998-63.998-63.998H64.018C28.738 170.694 0.02 199.396 0.02 234.692v85.324h1023.96z" fill="#656D78" /><path d="M33.862 320.016h60.342l149.338-149.322H183.2zM161.858 320.016h60.34l149.34-149.322h-60.342zM289.852 320.016h60.342l149.338-149.322h-60.342zM417.846 320.016h60.342l149.338-149.322h-60.34zM545.842 320.016h60.342l149.336-149.322h-60.338zM673.838 320.016h60.34l149.338-149.322h-60.342z" fill="#434A54" /><path d="M393.722 554.694c0 11.75 9.562 21.312 21.342 21.312h428.358l6.312-9.5a21.328 21.328 0 0 0 0-23.67l-6.312-9.5H415.066c-11.78 0-21.344 9.562-21.344 21.358z" opacity=".1" /><path d="M951.17 170.694l-149.338 149.322h60.34l136.372-136.37a63.66 63.66 0 0 0-38.56-12.954h-8.814z" fill="#434A54" /><path d="M362.694 405.34c-94.122 0-170.682 76.56-170.682 170.666 0 94.122 76.56 170.68 170.682 170.68 94.09 0 170.648-76.558 170.648-170.68 0-94.106-76.558-170.666-170.648-170.666z m-63.998 191.976c-11.78 0-21.342-9.532-21.342-21.31 0-11.782 9.562-21.312 21.342-21.312a21.3 21.3 0 0 1 21.312 21.312c0 11.78-9.532 21.31-21.312 21.31z" fill="#FFCE54" /></svg>