<?xml version="1.0" standalone="no"?><!DOCTYPE svg PUBLIC "-//W3C//DTD SVG 1.1//EN" "http://www.w3.org/Graphics/SVG/1.1/DTD/svg11.dtd"><svg class="icon" width="128px" height="128.00px" viewBox="0 0 1024 1024" version="1.1" xmlns="http://www.w3.org/2000/svg"><path d="M901.772 651.402c-6.688-0.562-14.03-0.812-22.092-0.812-52.5 0-134.246 11.188-246.276 30.938-13.938-39.75-102.496-57.188-102.496-57.188s-191.136-10.406-313.132-17.058a401.274 401.274 0 0 0-22.562-0.624c-161.604 0-195.198 100.872-195.198 100.872v104.464c0.062 59.934 184.698 89.278 185.324 89.372 146.668 28.968 326.928 38.688 326.928 38.688s493.97-194.086 506.94-205.398c12.968-11.348 7.28-73.254-117.436-83.254z" fill="#EAC6BB" /><path d="M771.838 659.558c-38.81 5.156-84.058 12.406-135.778 21.5a1095.988 1095.988 0 0 1-20.344 8.906c-135.558 57.844-231.43 69.968-287.976 69.968-11.782 0-21.328 9.558-21.328 21.34s9.546 21.344 21.328 21.344c88.216 0 190.964-24.812 305.382-73.684 69.188-29.56 120.81-58.842 138.716-69.374z" fill="#DBADA2" /><path d="M749.528 362.942L447.222 147.728l-111.356 156.402 117.542 83.684 25.03 47.094 47.124 7.376 22.376 42.124 47.124 7.344 22.404 42.124 63.656 9.968 96.622-40.906-28.216-139.996z" fill="#F6BB42" /><path d="M519.378 303.85c-6.828 9.594-4.594 22.906 5.016 29.75l243.632 173.464 9.718-4.124-9.718-48.282-218.898-155.838c-9.594-6.814-22.908-4.596-29.75 5.03z" fill="#FFCE54" /><path d="M509.862 113.762c-27.376-19.5-59.546-29.812-93.06-29.812-51.936 0-100.904 25.25-130.996 67.498-24.89 34.968-34.67 77.53-27.562 119.84 7.124 42.312 30.296 79.342 65.264 104.216 27.376 19.5 59.562 29.812 93.06 29.812 51.936 0 100.904-25.25 130.998-67.498 51.372-72.186 34.466-172.684-37.704-224.056z m-143.34 99.746c-11.624 1.968-22.624-5.876-24.578-17.5-1.954-11.594 5.876-22.624 17.5-24.562 11.61-1.968 22.624 5.874 24.578 17.5 1.952 11.624-5.892 22.624-17.5 24.562z" fill="#FFCE54" /></svg>