<?xml version="1.0" standalone="no"?><!DOCTYPE svg PUBLIC "-//W3C//DTD SVG 1.1//EN" "http://www.w3.org/Graphics/SVG/1.1/DTD/svg11.dtd"><svg class="icon" width="128px" height="128.00px" viewBox="0 0 1024 1024" version="1.1" xmlns="http://www.w3.org/2000/svg"><path d="M925.616 933.172L835.186 1023.6l-90.43-90.428 90.43-90.462zM820.104 827.66l-90.43 90.43-120.594-120.594 90.462-90.43z" fill="#434A54" /><path d="M531.476 599.296l90.428-90.428L1000.98 887.944l-90.428 90.428z" fill="#656D78" /><path d="M385.41 703.85h-0.032c-91.084 0-176.736-35.472-241.154-99.89-64.42-64.418-99.906-150.07-99.906-241.186 0-91.086 35.486-176.738 99.906-241.156 64.418-64.418 150.07-99.89 241.154-99.89 91.118 0 176.77 35.472 241.188 99.89 64.42 64.418 99.89 150.07 99.89 241.156 0 91.116-35.47 176.768-99.89 241.186-64.418 64.416-150.07 99.89-241.156 99.89z" fill="#4FC2E9" /><path d="M385.378 0.4C185.254 0.4 23.006 162.648 23.006 362.774c0 200.154 162.248 362.404 362.374 362.404 200.158 0 362.404-162.25 362.404-362.404C747.784 162.648 585.538 0.4 385.378 0.4z m226.106 588.476c-29.382 29.382-63.576 52.428-101.64 68.542-39.406 16.674-81.28 25.106-124.464 25.106s-85.058-8.432-124.434-25.106c-38.08-16.114-72.272-39.158-101.654-68.542-29.37-29.382-52.444-63.574-68.542-101.638-16.658-39.406-25.106-81.28-25.106-124.464s8.448-85.058 25.106-124.434c16.098-38.064 39.156-72.29 68.542-101.64 29.382-29.382 63.574-52.458 101.654-68.57 39.406-16.644 81.25-25.106 124.434-25.106 43.186 0 85.058 8.46 124.464 25.106 38.064 16.112 72.258 39.188 101.64 68.57 29.384 29.352 52.458 63.576 68.542 101.64 16.674 39.376 25.106 81.248 25.106 124.434s-8.432 85.058-25.106 124.464c-16.082 38.064-39.156 72.256-68.542 101.638z" fill="#434A54" /><path d="M385.378 85.678c-153.038 0-277.112 124.058-277.112 277.096 0 11.772 9.554 21.326 21.328 21.326 11.772 0 21.31-9.554 21.31-21.326 0-62.638 24.386-121.5 68.682-165.808 44.292-44.278 103.184-68.664 165.792-68.664 11.774 0 21.328-9.556 21.328-21.328s-9.554-21.296-21.328-21.296z" fill="#3BAFDA" /></svg>