<?xml version="1.0" standalone="no"?><!DOCTYPE svg PUBLIC "-//W3C//DTD SVG 1.1//EN" "http://www.w3.org/Graphics/SVG/1.1/DTD/svg11.dtd"><svg class="icon" width="128px" height="128.00px" viewBox="0 0 1024 1024" version="1.1" xmlns="http://www.w3.org/2000/svg"><path d="M521.882 326.688l22 160.746c216.65-34.594 162.964 536.55 162.964 536.55h116.874c42.124-859.856-301.838-697.296-301.838-697.296z" fill="#DA4453" /><path d="M598.256 449.808s8.25-17.53 7.438-42.592c0.812-25.06-7.438-42.624-7.438-42.624 123.34-31.124 123.34-406.334-127.714-360.742C221.39 49.1 197.392 314.5 196.704 407.216c0.688 92.686 24.686 358.116 273.836 403.366 251.056 45.594 251.056-329.618 127.716-360.774z" fill="#EC5564" /><path d="M513.228 810.582c-249.15-45.25-273.182-310.68-273.87-403.366 0.688-92.716 24.72-358.116 273.87-403.364a249.06 249.06 0 0 1 18.718-2.656c-18.5-2.124-38.936-1.436-61.404 2.656C221.39 49.1 197.392 314.5 196.704 407.216c0.688 92.686 24.686 358.116 273.836 403.366 22.468 4.094 42.906 4.782 61.404 2.656-6.062-0.624-12.312-1.5-18.716-2.656z" fill="#FFFFFF" opacity=".2" /></svg>