<?xml version="1.0" standalone="no"?><!DOCTYPE svg PUBLIC "-//W3C//DTD SVG 1.1//EN" "http://www.w3.org/Graphics/SVG/1.1/DTD/svg11.dtd"><svg class="icon" width="128px" height="128.00px" viewBox="0 0 1024 1024" version="1.1" xmlns="http://www.w3.org/2000/svg"><path d="M249.844 696.086l60.218-60.248 30.124-30.124L945.92 0.01s120.466 240.948 0 361.43c-120.496 120.464-455.144 455.114-455.144 455.114l-60.216-60.248-60.25 60.248-120.466-120.468z" fill="#CCD1D9" /><path d="M445.622 771.368l45.156 45.186S825.426 481.906 945.922 361.44c39.312-39.312 52.938-91.466 53.5-143.872l-553.8 553.8z" fill="#E6E9ED" /><path d="M69.13 876.8l240.932-240.962 150.622 150.592-60.28 0.062-120.434 120.434-75.312 105.402c-33.28 33.282-132.372-11.904-165.652-45.186-33.28-33.248-3.156-57.092 30.124-90.342z" fill="#434A54" /><path d="M189.596 876.8c8.312 8.312 8.312 21.782 0 30.124-8.312 8.312-21.812 8.312-30.124 0-8.312-8.312-8.312-21.812 0-30.124 8.312-8.312 21.812-8.312 30.124 0zM249.844 816.552c8.312 8.312 8.312 21.812 0 30.124-8.312 8.312-21.812 8.312-30.124 0-8.312-8.31-8.312-21.81 0-30.124s21.814-8.312 30.124 0zM310.094 756.336c8.312 8.312 8.312 21.782 0 30.094-8.344 8.312-21.812 8.312-30.124 0-8.312-8.312-8.312-21.782 0-30.094 8.312-8.344 21.78-8.344 30.124 0z" fill="#CCD1D9" /><path d="M494.12 451.796c8.312 8.312 21.812 8.312 30.124 0l150.59-150.606c8.312-8.312 8.312-21.796 0-30.108l-180.714 180.714z" fill="#AAB2BC" /></svg>