<?xml version="1.0" standalone="no"?><!DOCTYPE svg PUBLIC "-//W3C//DTD SVG 1.1//EN" "http://www.w3.org/Graphics/SVG/1.1/DTD/svg11.dtd"><svg class="icon" width="128px" height="128.00px" viewBox="0 0 1024 1024" version="1.1" xmlns="http://www.w3.org/2000/svg"><path d="M341.314 607.998h319.994v53.312H341.314z" fill="#CCD1D9" /><path d="M459 422.034c-0.562-9.156-4.438-22.468-19.562-33.782-1.562-1.188-2.312-2.062-2.532-2.468 0.094-1.25 1.438-3.844 3.062-6 4.876-3.906 8.032-9.906 8.032-16.656 0-11.782-9.562-21.31-21.344-21.31a21.334 21.334 0 0 0-14.532 5.716l-0.25-0.25c-3.188 3.032-18.936 19.376-17.56 41.312 0.562 9.156 4.406 22.468 19.56 33.812 1.562 1.156 2.282 2.062 2.532 2.438-0.124 1.688-2.468 5.656-4.718 7.938l0.188-0.188 0.25 0.282c-4.188 3.906-6.812 9.438-6.812 15.594 0 11.782 9.562 21.342 21.344 21.342 7.468 0 14.062-3.876 17.876-9.716 5.59-6.378 15.56-20.408 14.466-38.064zM544.312 422.034c-0.562-9.156-4.406-22.468-19.562-33.782-1.562-1.188-2.282-2.062-2.532-2.468 0.094-1.25 1.468-3.844 3.094-6 4.876-3.906 8-9.906 8-16.656 0-11.782-9.562-21.31-21.312-21.31a21.334 21.334 0 0 0-14.532 5.716l-0.282-0.25c-3.156 3.032-18.906 19.376-17.562 41.312 0.594 9.156 4.438 22.468 19.594 33.812 1.562 1.156 2.282 2.062 2.532 2.438-0.124 1.688-2.468 5.656-4.75 7.938l0.188-0.188 0.282 0.282c-4.188 3.906-6.812 9.438-6.812 15.594a21.33 21.33 0 0 0 21.344 21.342c7.468 0 14.062-3.876 17.844-9.716 5.592-6.378 15.56-20.408 14.466-38.064zM629.654 422.034c-0.562-9.156-4.406-22.468-19.562-33.782-1.562-1.188-2.282-2.062-2.532-2.468 0.094-1.25 1.438-3.844 3.062-6a21.212 21.212 0 0 0 8.032-16.656c0-11.782-9.562-21.31-21.344-21.31a21.334 21.334 0 0 0-14.532 5.716l-0.25-0.25c-3.156 3.032-18.904 19.376-17.56 41.312 0.562 9.156 4.438 22.468 19.56 33.812 1.562 1.156 2.312 2.062 2.532 2.438-0.124 1.688-2.468 5.656-4.718 7.938l0.188-0.188 0.25 0.282c-4.156 3.906-6.782 9.438-6.782 15.594 0 11.782 9.532 21.342 21.312 21.342 7.5 0 14.062-3.876 17.876-9.716 5.594-6.378 15.56-20.408 14.468-38.064z" fill="#E6E9ED" /><path d="M341.314 661.31h341.338v319.994H341.314z" fill="#5D9CEC" /><path d="M0.008 576h319.994v426.68H0.008zM703.996 1002.68h319.996V576h-341.34zM725.308 21.32h298.684v383.994H725.308zM0.008 21.32h298.65v383.994H0.008z" fill="#A0D468" /><path d="M480 597.312h-85.342c-11.782 0-21.344-9.5-21.344-21.312s9.562-21.312 21.344-21.312H480c11.75 0 21.312 9.5 21.312 21.312s-9.562 21.312-21.312 21.312zM629.31 597.312H544c-11.812 0-21.344-9.5-21.344-21.312s9.532-21.312 21.344-21.312h85.31c11.78 0 21.342 9.5 21.342 21.312s-9.562 21.312-21.342 21.312z" fill="#434A54" /><path d="M416 639.998c-11.812 0-21.342-9.562-21.342-21.312v-21.374c0-11.75 9.53-21.312 21.342-21.312 11.75 0 21.312 9.562 21.312 21.312v21.374c0 11.75-9.562 21.312-21.312 21.312zM480 639.998c-11.812 0-21.344-9.562-21.344-21.312v-21.374c0-11.75 9.532-21.312 21.344-21.312 11.75 0 21.312 9.562 21.312 21.312v21.374c0 11.75-9.562 21.312-21.312 21.312zM544 639.998c-11.812 0-21.344-9.562-21.344-21.312v-21.374c0-11.75 9.532-21.312 21.344-21.312 11.75 0 21.312 9.562 21.312 21.312v21.374c0 11.75-9.562 21.312-21.312 21.312zM607.998 639.998c-11.812 0-21.344-9.562-21.344-21.312v-21.374c0-11.75 9.532-21.312 21.344-21.312 11.75 0 21.312 9.562 21.312 21.312v21.374c0 11.75-9.562 21.312-21.312 21.312z" fill="#434A54" /><path d="M597.31 767.996h-191.998c-11.78 0-21.31-9.562-21.31-21.312 0-11.812 9.532-21.376 21.31-21.376h191.998c11.782 0 21.344 9.562 21.344 21.376 0 11.75-9.562 21.312-21.344 21.312z" fill="#E6E9ED" /><path d="M384.002 21.32h255.994v191.998H384.002z" fill="#CCD1D9" /><path d="M789.308 831.996c-11.782 0-21.312-9.562-21.312-21.312v-42.688c0-11.812 9.532-21.312 21.312-21.312s21.342 9.5 21.342 21.312v42.688c0 11.75-9.56 21.312-21.342 21.312zM85.318 831.996c-11.782 0-21.312-9.562-21.312-21.312v-42.688c0-11.812 9.532-21.312 21.312-21.312s21.344 9.5 21.344 21.312v42.688c0 11.75-9.562 21.312-21.344 21.312zM85.318 255.972a21.3 21.3 0 0 1-21.312-21.312V191.974c0-11.782 9.532-21.312 21.312-21.312s21.344 9.532 21.344 21.312v42.686c0 11.782-9.562 21.312-21.344 21.312zM810.65 255.972c-11.78 0-21.342-9.532-21.342-21.312V191.974c0-11.782 9.562-21.312 21.342-21.312 11.782 0 21.344 9.532 21.344 21.312v42.686c0 11.782-9.562 21.312-21.344 21.312z" fill="#434A54" /><path d="M384.002 191.974l-42.688 106.686c0 11.782 9.562 21.312 21.344 21.312h298.65c11.782 0 21.344-9.532 21.344-21.312l-42.656-106.686H384.002zM703.996 1002.68H320.002V576h383.994v426.68z m-341.338-42.688h298.65V618.686H362.658v341.306z" fill="#E6E9ED" /></svg>