<?xml version="1.0" standalone="no"?><!DOCTYPE svg PUBLIC "-//W3C//DTD SVG 1.1//EN" "http://www.w3.org/Graphics/SVG/1.1/DTD/svg11.dtd"><svg class="icon" width="128px" height="128.00px" viewBox="0 0 1024 1024" version="1.1" xmlns="http://www.w3.org/2000/svg"><path d="M277.222 53.352c0 11.782-9.544 21.328-21.326 21.328s-21.328-9.546-21.328-21.328c0-11.78 9.546-21.342 21.328-21.342s21.326 9.562 21.326 21.342z" fill="#7F4545" /><path d="M319.676 53.352c0 11.782-9.562 21.328-21.344 21.328s-21.328-9.546-21.328-21.328c0-11.78 9.546-21.342 21.328-21.342s21.344 9.562 21.344 21.342zM362.332 53.352c0 11.782-9.546 21.328-21.328 21.328s-21.328-9.546-21.328-21.328c0-11.78 9.546-21.342 21.328-21.342s21.328 9.562 21.328 21.342z" fill="#7F4545" /><path d="M298.676 53.352c167.886 0 298.632 127.998 298.632 362.65 0 234.682-46.498 362.68-298.632 362.68C46.526 778.682 0.012 693.338 0.012 416.002 0.012 138.68 130.774 53.352 298.676 53.352z" fill="#965353" /><path d="M42.682 416.002c0-264.214 118.686-354.15 275.104-362.072a321.42 321.42 0 0 0-19.11-0.578C130.774 53.352 0.012 138.68 0.012 416.002c0 277.336 46.514 362.68 298.664 362.68 6.454 0 12.734-0.124 18.938-0.282-231.37-5.438-274.932-93.998-274.932-362.398z" opacity=".1" /><path d="M448.002 671.996c0 11.812-9.546 21.342-21.328 21.342s-21.344-9.53-21.344-21.342c0-11.782 9.562-21.312 21.344-21.312s21.328 9.53 21.328 21.312zM192.006 160.006c0 11.78-9.544 21.342-21.326 21.342s-21.344-9.562-21.344-21.342c0-11.782 9.562-21.328 21.344-21.328s21.326 9.548 21.326 21.328zM320.004 160.006c0 11.78-9.546 21.342-21.328 21.342s-21.344-9.562-21.344-21.342c0-11.782 9.562-21.328 21.344-21.328s21.328 9.548 21.328 21.328zM448.002 160.006c0 11.78-9.546 21.342-21.328 21.342s-21.344-9.562-21.344-21.342c0-11.782 9.562-21.328 21.344-21.328s21.328 9.548 21.328 21.328zM127.898 288.004c0 11.782-9.546 21.344-21.328 21.344-11.796 0-21.342-9.562-21.342-21.344s9.544-21.328 21.342-21.328c11.782 0 21.328 9.546 21.328 21.328zM255.896 288.004c0 11.782-9.546 21.344-21.328 21.344s-21.344-9.562-21.344-21.344 9.562-21.328 21.344-21.328 21.328 9.546 21.328 21.328zM383.892 288.004c0 11.782-9.546 21.344-21.326 21.344-11.782 0-21.344-9.562-21.344-21.344s9.562-21.328 21.344-21.328c11.78 0 21.326 9.546 21.326 21.328zM512 288.004c0 11.782-9.546 21.344-21.328 21.344s-21.344-9.562-21.344-21.344 9.562-21.328 21.344-21.328S512 276.222 512 288.004zM192.006 416.002c0 11.796-9.544 21.342-21.326 21.342s-21.344-9.546-21.344-21.342c0-11.782 9.562-21.328 21.344-21.328s21.326 9.546 21.326 21.328zM320.004 416.002c0 11.796-9.546 21.342-21.328 21.342s-21.344-9.546-21.344-21.342c0-11.782 9.562-21.328 21.344-21.328s21.328 9.546 21.328 21.328zM448.002 416.002c0 11.796-9.546 21.342-21.328 21.342s-21.344-9.546-21.344-21.342c0-11.782 9.562-21.328 21.344-21.328s21.328 9.546 21.328 21.328zM127.898 543.998c0 11.812-9.546 21.344-21.328 21.344a21.32 21.32 0 0 1-21.342-21.344c0-11.782 9.544-21.328 21.342-21.328 11.782 0 21.328 9.546 21.328 21.328zM255.896 543.998c0 11.812-9.546 21.344-21.328 21.344s-21.344-9.532-21.344-21.344c0-11.782 9.562-21.328 21.344-21.328s21.328 9.546 21.328 21.328zM383.892 543.998c0 11.812-9.546 21.344-21.326 21.344-11.782 0-21.344-9.532-21.344-21.344 0-11.782 9.562-21.328 21.344-21.328 11.78 0 21.326 9.546 21.326 21.328zM512 543.998c0 11.812-9.546 21.344-21.328 21.344s-21.344-9.532-21.344-21.344c0-11.782 9.562-21.328 21.344-21.328S512 532.216 512 543.998zM192.006 671.996c0 11.812-9.544 21.342-21.326 21.342s-21.344-9.53-21.344-21.342c0-11.782 9.562-21.312 21.344-21.312s21.326 9.53 21.326 21.312zM320.004 671.996c0 11.812-9.546 21.342-21.328 21.342s-21.344-9.53-21.344-21.342c0-11.782 9.562-21.312 21.344-21.312s21.328 9.53 21.328 21.312z" fill="#A85D5D" /><path d="M725.308 970.678c-152.904 0-277.306-124.436-277.306-277.34 0-152.918 124.402-277.32 277.306-277.32 152.934 0 277.368 124.402 277.368 277.32 0 152.904-124.434 277.34-277.368 277.34z" fill="#8CC153" /><path d="M725.308 394.674c-164.936 0-298.634 133.714-298.634 298.664 0 164.966 133.7 298.652 298.634 298.652 164.964 0 298.68-133.686 298.68-298.652 0-164.95-133.714-298.664-298.68-298.664z m181.06 479.692c-48.376 48.344-112.656 74.968-181.058 74.968-68.376 0-132.624-26.624-180.996-74.968-48.344-48.374-74.984-112.652-74.984-181.028 0-68.374 26.64-132.652 74.984-181.01 48.374-48.358 112.622-74.982 180.996-74.982 68.402 0 132.684 26.624 181.058 74.982 48.31 48.358 74.934 112.638 74.934 181.01-0.002 68.374-26.624 132.654-74.934 181.028z" fill="#A85D5D" /><path d="M725.308 394.674c-14.468 0-28.688 1.062-42.624 3.046 144.714 20.702 255.994 145.168 255.994 295.618 0 150.466-111.28 274.902-255.994 295.59 13.938 2 28.156 3.062 42.624 3.062 164.964 0 298.68-133.686 298.68-298.652 0-164.95-133.714-298.664-298.68-298.664z" fill="#FFFFFF" opacity=".2" /><path d="M693.558 795.056c-0.656-0.062-1.75-0.406-2.312-0.75l-11.75-11.906c-6.312-6.376-16.688-13.906-24.688-17.938l-14.968-7.5c-0.5-0.468-1.156-1.344-1.438-1.968l-2.532-16.562c-1.312-8.844-5.282-21.062-9.406-29l-7.718-14.876a8.022 8.022 0 0 1 0-2.436l7.718-14.876c4.124-7.938 8.094-20.156 9.406-29l2.532-16.562c0.282-0.624 0.938-1.5 1.438-1.968l14.968-7.498c8-4.032 18.376-11.562 24.688-17.938l11.75-11.906c0.562-0.312 1.656-0.688 2.312-0.75l16.5 2.718c5.468 0.906 11.312 1.094 15.25 1.094 3.968 0 9.81-0.188 15.248-1.094l16.562-2.718c0.624 0.062 1.718 0.438 2.312 0.75l11.75 11.906c6.282 6.376 16.686 13.906 24.686 17.938l14.938 7.498c0.5 0.468 1.188 1.376 1.438 1.968l2.532 16.562c1.344 8.876 5.282 21.062 9.406 29l7.718 14.876c0.124 0.654 0.124 1.78 0 2.436l-7.718 14.876c-4.124 7.938-8.062 20.156-9.406 29l-2.532 16.562c-0.25 0.594-0.938 1.5-1.438 1.968l-14.938 7.5c-8.032 4.032-18.404 11.562-24.686 17.938l-11.75 11.906c-0.594 0.312-1.688 0.688-2.312 0.75l-16.532-2.718c-5.468-0.906-11.31-1.094-15.28-1.094-3.938 0-9.782 0.188-15.25 1.094l-16.498 2.718z" fill="#E6E9ED" /><path d="M746.682 543.998c0 11.812-9.562 21.344-21.374 21.344-11.75 0-21.312-9.532-21.312-21.344 0-11.766 9.562-21.328 21.312-21.328 11.812 0 21.374 9.562 21.374 21.328z" fill="#434A54" /><path d="M686.308 504.14c3.624 11.216-2.5 23.248-13.718 26.888s-23.218-2.5-26.876-13.704c-3.656-11.202 2.468-23.232 13.688-26.874s23.25 2.488 26.906 13.69zM804.93 869.366c3.656 11.188-2.468 23.218-13.688 26.876-11.188 3.624-23.248-2.5-26.874-13.718s2.5-23.216 13.686-26.874a21.278 21.278 0 0 1 26.876 13.716zM582.56 563.248c9.5 6.906 11.624 20.25 4.688 29.782-6.906 9.532-20.25 11.656-29.782 4.718a21.34 21.34 0 0 1-4.718-29.812 21.36 21.36 0 0 1 29.812-4.688zM893.18 788.932c9.562 6.938 11.656 20.25 4.75 29.81-6.938 9.5-20.282 11.624-29.812 4.688-9.532-6.904-11.624-20.248-4.718-29.78s20.28-11.656 29.78-4.718zM533.328 671.996c11.796 0 21.358 9.562 21.326 21.342 0.032 11.782-9.53 21.344-21.326 21.344-11.782 0-21.328-9.562-21.328-21.344 0-11.78 9.546-21.342 21.328-21.342zM917.302 671.996c11.812 0 21.376 9.562 21.376 21.342 0 11.782-9.562 21.344-21.376 21.344-11.748 0-21.31-9.562-21.31-21.344 0-11.78 9.562-21.342 21.31-21.342zM557.466 788.932c9.532-6.938 22.876-4.812 29.782 4.718 6.938 9.532 4.812 22.876-4.688 29.78a21.358 21.358 0 0 1-29.812-4.688 21.34 21.34 0 0 1 4.718-29.81zM868.118 563.248c9.532-6.938 22.876-4.812 29.812 4.688 6.906 9.562 4.812 22.876-4.75 29.812-9.5 6.938-22.876 4.812-29.782-4.718s-4.812-22.876 4.72-29.782zM645.714 869.366c3.656-11.216 15.656-17.374 26.876-13.716s17.344 15.654 13.718 26.874c-3.688 11.218-15.688 17.344-26.906 13.718-11.218-3.658-17.344-15.69-13.688-26.876zM764.37 504.14c3.624-11.204 15.686-17.328 26.874-13.688 11.218 3.64 17.344 15.672 13.688 26.874-3.624 11.204-15.656 17.344-26.876 13.704-11.186-3.642-17.312-15.672-13.686-26.89z" fill="#434A54" /><path d="M746.682 842.68c0 11.75-9.562 21.312-21.374 21.312-11.75 0-21.312-9.562-21.312-21.312 0-11.812 9.562-21.344 21.312-21.344 11.812 0 21.374 9.532 21.374 21.344zM654.808 559.998c6.938 9.5 4.812 22.876-4.718 29.782-9.532 6.938-22.876 4.812-29.782-4.718-6.938-9.532-4.812-22.876 4.688-29.812 9.562-6.908 22.876-4.814 29.812 4.748zM830.368 801.62c6.938 9.5 4.812 22.874-4.75 29.78-9.5 6.938-22.844 4.812-29.782-4.718-6.906-9.53-4.812-22.874 4.718-29.81 9.532-6.91 22.876-4.816 29.814 4.748zM589.904 626.902c11.216 3.656 17.342 15.656 13.686 26.876s-15.654 17.344-26.874 13.718c-11.218-3.656-17.344-15.688-13.718-26.876 3.656-11.218 15.688-17.372 26.906-13.718zM873.93 719.182c11.218 3.656 17.344 15.688 13.688 26.876-3.624 11.218-15.656 17.376-26.876 13.718-11.188-3.656-17.312-15.688-13.688-26.906 3.626-11.188 15.688-17.314 26.876-13.688zM576.716 719.182a21.35 21.35 0 0 1 26.874 13.688c3.656 11.218-2.468 23.25-13.686 26.906-11.218 3.656-23.25-2.5-26.906-13.718-3.624-11.188 2.5-23.22 13.718-26.876zM860.742 626.902c11.218-3.654 23.25 2.5 26.876 13.718 3.656 11.188-2.468 23.218-13.688 26.876-11.188 3.624-23.25-2.5-26.876-13.718s2.5-23.22 13.688-26.876zM620.308 801.62c6.906-9.562 20.25-11.656 29.782-4.75 9.532 6.938 11.656 20.282 4.718 29.81a21.37 21.37 0 0 1-29.812 4.75c-9.5-6.938-11.624-20.28-4.688-29.81zM795.836 559.998c6.938-9.562 20.282-11.656 29.812-4.75 9.532 6.938 11.656 20.282 4.718 29.812s-20.282 11.656-29.812 4.75c-9.53-6.936-11.624-20.28-4.718-29.812z" fill="#434A54" /></svg>