<?xml version="1.0" standalone="no"?><!DOCTYPE svg PUBLIC "-//W3C//DTD SVG 1.1//EN" "http://www.w3.org/Graphics/SVG/1.1/DTD/svg11.dtd"><svg class="icon" width="128px" height="128.00px" viewBox="0 0 1024 1024" version="1.1" xmlns="http://www.w3.org/2000/svg"><path d="M919.36 0.354a21.27 21.27 0 0 0-19.78 6.938c-0.124 0.094-9.906 11.25-28.438 29.782-31.592 31.594-98.842 94.78-194.214 163.028-0.968 0.688-1.844 1.438-2.688 2.282L296.31 580.314c-8.344 8.312-8.344 21.812 0 30.188l150.84 150.808a21.342 21.342 0 0 0 30.186 0l60.624-60.624c-8.344-8.312-8.344-21.812 0-30.188 8.312-8.31 21.812-8.31 30.156 0l15.094-15.06c-8.344-8.312-8.344-21.876 0-30.188 8.312-8.312 21.844-8.312 30.156 0l15.094-15.062c-8.344-8.312-8.344-21.876 0-30.188 8.31-8.312 21.842-8.312 30.154 0l226.808-226.778c53.78-53.78 79.404-129.842 74.092-219.996-3.906-66.654-23.188-117.404-24-119.53A21.348 21.348 0 0 0 919.36 0.354z" fill="#CCD1D9" /><path d="M919.36 0.354a21.27 21.27 0 0 0-19.78 6.938c-0.124 0.094-9.906 11.25-28.438 29.782 0 0 32.5 177.278-46.342 256.09a11908867.35 11908867.35 0 0 0-347.182 347.214l60.342 60.31c-8.344-8.312-8.344-21.812 0-30.188 8.312-8.31 21.812-8.31 30.156 0l15.094-15.06c-8.344-8.312-8.344-21.876 0-30.188 8.312-8.312 21.844-8.312 30.156 0l15.094-15.062c-8.344-8.312-8.344-21.876 0-30.188 8.31-8.312 21.842-8.312 30.154 0l226.808-226.778c53.78-53.78 79.404-129.842 74.092-219.996-3.906-66.654-23.188-117.404-24-119.53A21.346 21.346 0 0 0 919.36 0.354z" fill="#E6E9ED" /><path d="M462.244 746.248l-241.34 241.308c-8.344 8.376-21.876 8.376-30.186 0l-120.686-120.622c-8.312-8.376-8.312-21.876 0-30.188l241.37-241.372a21.306 21.306 0 0 1 30.156 0l120.686 120.686c8.342 8.316 8.342 21.814 0 30.188z" fill="#ED5564" /><path d="M251.06 1017.744c-8.342 8.312-21.842 8.312-30.156 0l-150.872-150.808c-8.312-8.376-8.312-21.876 0-30.188l15.092-15.124 165.934 165.934c8.346 8.374 8.346 21.874 0.002 30.186zM266.154 942.308l30.156-30.124-150.842-150.874-30.186 30.188zM326.464 881.998l30.188-30.188L205.78 701l-30.156 30.124zM386.808 821.624l30.154-30.126-150.808-150.872-30.188 30.186z" fill="#DA4453" /><path d="M658.616 338.662L418.15 579.126c-8.312 8.312-21.812 8.312-30.156 0s-8.344-21.812 0-30.188L628.46 308.506c8.31-8.342 21.842-8.342 30.154 0 8.344 8.312 8.344 21.844 0.002 30.156z" fill="#080808" opacity=".1" /><path d="M537.96 700.688l-15.092 15.062-60.342-60.31 15.092-15.064z" fill="#E6E9ED" /><path d="M522.586 806.56c-8.344 8.312-21.842 8.312-30.186 0L281.216 595.376c-8.312-8.312-8.312-21.812 0-30.188 8.344-8.312 21.844-8.312 30.186 0l211.184 211.184c8.312 8.376 8.312 21.876 0 30.188z" fill="#434A54" /></svg>