<?xml version="1.0" standalone="no"?><!DOCTYPE svg PUBLIC "-//W3C//DTD SVG 1.1//EN" "http://www.w3.org/Graphics/SVG/1.1/DTD/svg11.dtd"><svg class="icon" width="128px" height="128.00px" viewBox="0 0 1024 1024" version="1.1" xmlns="http://www.w3.org/2000/svg"><path d="M818.784 697.43a21.22 21.22 0 0 1-6.25-15.06V446.328c0-11.766 9.532-21.296 21.312-21.296 11.75 0 21.28 9.532 21.28 21.296V682.4c0 11.75-9.53 21.28-21.28 21.28-5.876 0-11.22-2.376-15.062-6.25zM733.596 654.838a21.096 21.096 0 0 1-6.25-15.062v-111.808c0-11.75 9.532-21.296 21.312-21.296 11.75 0 21.282 9.546 21.282 21.296v111.808c0 11.782-9.532 21.312-21.282 21.312a21.16 21.16 0 0 1-15.062-6.25zM733.596 782.646a21.206 21.206 0 0 1-6.25-15.062V711.68a21.296 21.296 0 0 1 21.312-21.31c11.75 0 21.282 9.53 21.282 21.31v55.904c0 11.75-9.532 21.282-21.282 21.282a21.258 21.258 0 0 1-15.062-6.22zM903.968 484.466a21.312 21.312 0 0 1-6.25-15.062v-102.934c0-11.766 9.562-21.298 21.312-21.298s21.312 9.532 21.312 21.298v102.934c0 11.766-9.562 21.296-21.312 21.296a21.26 21.26 0 0 1-15.062-6.234z" fill="#DA4453" /><path d="M340.214 605.712l30.094-30.092L945.906 0.008s120.464 240.948 0 361.43c-120.498 120.482-409.914 409.958-409.914 409.958l-30.124-30.124-15.062 15.062-150.592-150.622z" fill="#E6E9ED" /><path d="M505.868 741.274l30.124 30.124S825.408 481.922 945.906 361.44c31.216-31.218 46.248-70.53 51.404-111.638L502.492 744.618l-7.812 7.844 11.188-11.188z" fill="#ED5564" /><path d="M69.126 876.802l271.088-271.09 150.59 150.624-90.404 30.154-120.434 120.438-75.31 105.402c-33.25 33.282-132.374-11.906-165.654-45.154-33.25-33.282-3.126-57.092 30.124-90.374z" fill="#434A54" /><path d="M189.592 876.802c8.344 8.312 8.344 21.812 0 30.124-8.312 8.31-21.78 8.31-30.092 0-8.344-8.312-8.344-21.812 0-30.124 8.312-8.312 21.78-8.312 30.092 0zM249.84 816.552c8.312 8.312 8.312 21.812 0 30.124-8.312 8.312-21.812 8.312-30.124 0s-8.312-21.812 0-30.124 21.814-8.312 30.124 0zM310.09 756.336c8.312 8.31 8.312 21.78 0 30.124-8.312 8.312-21.812 8.312-30.124 0-8.312-8.344-8.312-21.812 0-30.124 8.312-8.312 21.812-8.312 30.124 0z" fill="#AAB2BC" /></svg>