<?xml version="1.0" standalone="no"?><!DOCTYPE svg PUBLIC "-//W3C//DTD SVG 1.1//EN" "http://www.w3.org/Graphics/SVG/1.1/DTD/svg11.dtd"><svg class="icon" width="128px" height="128.00px" viewBox="0 0 1024 1024" version="1.1" xmlns="http://www.w3.org/2000/svg"><path d="M637.656 97.498c-39.466-30.406-76.78-59.124-110.966-91.608l-0.06-0.06a21.038 21.038 0 0 0-6.218-4.078 21.344 21.344 0 0 0-23.126 4.138c-34.188 32.484-71.466 61.202-110.964 91.608C204.076 237.776-2.48 396.77 21.364 1003.484a21.364 21.364 0 0 0 13.688 19.092c2.5 0.938 5.06 1.406 7.626 1.406 5.656 0 11.216-2.25 15.31-6.5 65.592-67.654 194.712-87.464 195.994-87.624 1.968-0.218 3.906 4.658 5.718 3.908l252.302-101.842 252.276 101.842c1.842 0.75 3.782-4.126 5.718-3.908 1.31 0.158 130.402 19.968 195.994 87.624a21.248 21.248 0 0 0 15.342 6.5c2.53 0 5.126-0.468 7.592-1.406a21.39 21.39 0 0 0 13.718-19.092c23.814-606.714-182.742-765.708-364.986-905.986z" fill="#4FC0E8" /><path d="M320.01 938.64c0 11.782-9.562 21.344-21.344 21.344s-21.344-9.562-21.344-21.344 9.562-21.31 21.344-21.31 21.344 9.53 21.344 21.31zM405.318 938.64c0 11.782-9.532 21.344-21.31 21.344-11.782 0-21.344-9.562-21.344-21.344s9.562-21.31 21.344-21.31c11.78 0 21.31 9.53 21.31 21.31zM490.66 938.64c0 11.782-9.562 21.344-21.344 21.344-11.78 0-21.31-9.562-21.31-21.344s9.532-21.31 21.31-21.31c11.782 0 21.344 9.53 21.344 21.31zM576.002 938.64c0 11.782-9.562 21.344-21.342 21.344-11.782 0-21.344-9.562-21.344-21.344s9.562-21.31 21.344-21.31c11.78 0 21.342 9.53 21.342 21.31zM661.31 938.64c0 11.782-9.532 21.344-21.31 21.344-11.782 0-21.344-9.562-21.344-21.344s9.562-21.31 21.344-21.31c11.78 0 21.31 9.53 21.31 21.31zM746.652 938.64c0 11.782-9.562 21.344-21.342 21.344-11.782 0-21.314-9.562-21.314-21.344s9.534-21.31 21.314-21.31 21.342 9.53 21.342 21.31z" fill="#CBD0D8" /><path d="M533.316 12.112a855.052 855.052 0 0 1-6.626-6.22l-0.06-0.06a21.038 21.038 0 0 0-6.218-4.078 21.344 21.344 0 0 0-23.126 4.138 820.184 820.184 0 0 1-6.626 6.22v656.382h42.656V12.112z" fill="#3BAED9" /><path d="M512.002 526.126c-22.06-21.126-63.996-68.28-63.996-120.792s41.936-99.652 63.996-120.792c22.034 21.124 64 68.264 64 120.792 0 52.512-41.966 99.666-64 120.792z" fill="#EC5564" /><path d="M512.002 256.008s-85.34 66.858-85.34 149.324c0 82.48 85.34 149.322 85.34 149.322s85.31-66.842 85.31-149.322c0-82.466-85.31-149.324-85.31-149.324z m10.282 227.054a245.57 245.57 0 0 1-10.282 12.376 246.666 246.666 0 0 1-10.31-12.376c-14.75-18.998-32.376-47.936-32.376-77.73 0-29.812 17.626-58.716 32.376-77.732a248.028 248.028 0 0 1 10.31-12.36 245.84 245.84 0 0 1 10.282 12.36c14.782 19.016 32.376 47.92 32.376 77.732 0 29.794-17.596 58.732-32.376 77.73z" fill="#D94452" /><path d="M512.002 639.122c-165.432 0-299.55 134.088-299.55 299.52h599.074c0-165.434-134.09-299.52-299.524-299.52z" fill="#E5E8EC" /></svg>