<?xml version="1.0" standalone="no"?><!DOCTYPE svg PUBLIC "-//W3C//DTD SVG 1.1//EN" "http://www.w3.org/Graphics/SVG/1.1/DTD/svg11.dtd"><svg class="icon" width="128px" height="128.00px" viewBox="0 0 1024 1024" version="1.1" xmlns="http://www.w3.org/2000/svg"><path d="M596.902 315.818L554.248 102.48a21.352 21.352 0 0 0-20.936-17.156h-42.656a21.35 21.35 0 0 0-20.936 17.156l-42.656 213.338a20.864 20.864 0 0 0-0.406 4.188v42.654c0 11.782 9.532 21.344 21.344 21.344h127.994c11.782 0 21.312-9.562 21.312-21.344v-42.654c0-1.406-0.124-2.812-0.406-4.188z" fill="#48CFAD" /><path d="M597.308 341.318h-170.65c-11.782 0-21.344 9.56-21.344 21.342v255.992c0 11.782 9.562 21.344 21.344 21.344h170.65c11.782 0 21.344-9.562 21.344-21.344V362.66c0-11.782-9.562-21.342-21.344-21.342z" fill="#ED5564" /><path d="M114.824 598.934a21.332 21.332 0 0 0-23.25 4.624l-27.56 27.594-27.594-27.594a21.384 21.384 0 0 0-23.25-4.624 21.352 21.352 0 0 0-13.154 19.718v127.996c0 11.782 9.53 21.344 21.31 21.344h85.342c11.782 0 21.344-9.562 21.344-21.344v-127.996c0-8.624-5.22-16.406-13.188-19.718zM264.164 598.934a21.332 21.332 0 0 0-23.25 4.624l-27.594 27.594-27.56-27.594a21.394 21.394 0 0 0-23.25-4.624 21.382 21.382 0 0 0-13.188 19.718v127.996c0 11.782 9.562 21.344 21.344 21.344h85.342c11.782 0 21.31-9.562 21.31-21.344v-127.996c0-8.624-5.188-16.406-13.154-19.718zM861.458 598.934c-7.968-3.312-17.124-1.468-23.248 4.624l-27.562 27.594-27.592-27.594a21.384 21.384 0 0 0-23.25-4.624 21.354 21.354 0 0 0-13.156 19.718v127.996c0 11.782 9.532 21.344 21.344 21.344h85.308c11.782 0 21.344-9.562 21.344-21.344v-127.996a21.336 21.336 0 0 0-13.188-19.718zM1010.796 598.934a21.332 21.332 0 0 0-23.25 4.624l-27.56 27.594-27.592-27.594a21.384 21.384 0 0 0-23.25-4.624 21.354 21.354 0 0 0-13.156 19.718v127.996c0 11.782 9.532 21.344 21.312 21.344h85.34c11.782 0 21.344-9.562 21.344-21.344v-127.996a21.38 21.38 0 0 0-13.188-19.718z" fill="#FFCE54" /><path d="M320.006 490.656c0 11.782-9.562 21.344-21.344 21.344s-21.344-9.562-21.344-21.344 9.562-21.342 21.344-21.342 21.344 9.562 21.344 21.342zM746.648 490.656c0 11.782-9.562 21.344-21.344 21.344s-21.31-9.562-21.31-21.344 9.53-21.342 21.31-21.342 21.344 9.562 21.344 21.342z" fill="#48CFAD" /><path d="M1002.64 1023.984H21.326c-11.782 0-21.31-9.562-21.31-21.344V746.648c0-11.782 9.53-21.344 21.31-21.344H1002.64c11.782 0 21.344 9.562 21.344 21.344V1002.64c0 11.782-9.562 21.344-21.344 21.344z" fill="#DA4453" /><path d="M331.724 849.116h367.988v174.87H331.724z" fill="#434A54" /><path d="M682.65 597.308H341.316c-11.78 0-21.31 9.562-21.31 21.344v170.652c0 11.782 9.532 21.344 21.31 21.344h341.334c11.782 0 21.344-9.562 21.344-21.344v-170.652c0-11.78-9.562-21.344-21.344-21.344zM426.658 1023.984c-11.782 0-21.344-9.562-21.344-21.344v-127.996c0-11.782 9.562-21.342 21.344-21.342s21.344 9.56 21.344 21.342v127.996c0 11.782-9.562 21.344-21.344 21.344zM512 1023.984c-11.812 0-21.344-9.562-21.344-21.344v-127.996A21.33 21.33 0 0 1 512 853.302c11.782 0 21.312 9.56 21.312 21.342v127.996c0 11.782-9.53 21.344-21.312 21.344zM597.308 1023.984c-11.782 0-21.312-9.562-21.312-21.344v-127.996c0-11.782 9.532-21.342 21.312-21.342s21.344 9.56 21.344 21.342v127.996c0 11.782-9.562 21.344-21.344 21.344z" fill="#656D78" /><path d="M593.058 797.836l-63.996-85.31a21.356 21.356 0 0 0-34.156 0l-63.998 85.31a21.326 21.326 0 0 0-2 22.344 21.386 21.386 0 0 0 19.094 11.81h127.994c8.062 0 15.438-4.594 19.062-11.81a21.322 21.322 0 0 0-2-22.344z" fill="#ED5564" /><path d="M512 384.004c-41.186 0-74.686 33.466-74.686 74.654 0 41.154 33.5 74.654 74.686 74.654 41.154 0 74.652-33.5 74.652-74.654 0-41.188-33.498-74.654-74.652-74.654zM617.09 76.324a21.292 21.292 0 0 0-17.218-14.498l-47.466-6.906-21.25-43.032c-3.594-7.282-11-11.874-19.124-11.874s-15.532 4.592-19.124 11.874L471.658 54.92l-47.468 6.906a21.29 21.29 0 0 0-17.218 14.498 21.276 21.276 0 0 0 5.376 21.876l34.376 33.5-8.124 47.28c-1.376 8 1.938 16.094 8.5 20.876a21.404 21.404 0 0 0 12.532 4.062c3.406 0 6.812-0.782 9.938-2.438l42.466-22.344 42.466 22.344c3.156 1.656 6.562 2.5 10 2.438 11.748 0 21.28-9.562 21.28-21.312 0-1.624-0.188-3.218-0.532-4.75L577.34 131.7l34.376-33.5a21.276 21.276 0 0 0 5.374-21.876z" fill="#FFCE54" /><path d="M313.444 517.938c-8.25-7.938-21.312-7.938-29.562 0l-42.686 40.998a21.492 21.492 0 0 0-6.532 15.406v449.642h127.996V574.342c0-5.812-2.376-11.376-6.562-15.406l-42.654-40.998zM782.774 558.936l-42.688-40.998c-8.25-7.938-21.312-7.938-29.562 0l-42.652 40.998a21.394 21.394 0 0 0-6.562 15.406v449.642h127.996V574.342a21.376 21.376 0 0 0-6.532-15.406z" fill="#ED5564" /><path d="M362.66 810.648h298.648v63.996H362.66z" fill="#DA4453" /></svg>