<?xml version="1.0" standalone="no"?><!DOCTYPE svg PUBLIC "-//W3C//DTD SVG 1.1//EN" "http://www.w3.org/Graphics/SVG/1.1/DTD/svg11.dtd"><svg class="icon" width="128px" height="128.00px" viewBox="0 0 1024 1024" version="1.1" xmlns="http://www.w3.org/2000/svg"><path d="M192.010625 1002.670042c-34.685932 0-63.995875-19.559962-63.995875-42.685917V64.017875c0-23.125955 29.309943-42.671917 63.995875-42.671917 34.687932 0 63.997875 19.545962 63.997875 42.671917v895.96625c0 23.125955-29.309943 42.685917-63.997875 42.685917zM320.006375 874.676292c-34.685932 0-63.997875-19.561962-63.997875-42.687917V64.017875c0-23.125955 29.311943-42.671917 63.997875-42.671917 34.687932 0 63.997875 19.545962 63.997875 42.671917v767.9705c0 23.125955-29.309943 42.687917-63.997875 42.687917zM448.002125 746.680542c-34.685932 0-63.997875-19.559962-63.997875-42.685917V64.017875c0-23.125955 29.311943-42.671917 63.997875-42.671917 34.687932 0 63.997875 19.545962 63.997875 42.671917v639.97675c0 23.125955-29.309943 42.685917-63.997875 42.685917zM575.997875 618.684792c-34.685932 0-63.997875-19.561962-63.997875-42.685917V64.017875c0-23.125955 29.311943-42.671917 63.997875-42.671917 34.687932 0 63.997875 19.545962 63.997875 42.671917v511.981c0 23.123955-29.309943 42.685917-63.997875 42.685917z" fill="#FFD2A6" /><path d="M703.991625 533.328958c-34.685932 0-63.995875-19.531962-63.995875-42.655916V64.017875c0-23.125955 29.309943-42.671917 63.995875-42.671917 34.687932 0 63.999875 19.545962 63.999875 42.671917v426.655167c0 23.123955-29.311943 42.655917-63.999875 42.655916zM831.987375 405.333208c-34.685932 0-63.995875-19.531962-63.995875-42.655916V64.017875c0-23.125955 29.309943-42.671917 63.995875-42.671917 34.687932 0 63.997875 19.545962 63.997875 42.671917v298.659417c0 23.123955-29.309943 42.655917-63.997875 42.655916z" fill="#FFD2A6" /><path d="M831.987375 0.02c-25.49995 0-48.373906 8.387984-63.995875 21.685958-15.625969-13.295974-38.499925-21.685958-63.999875-21.685958-25.49595 0-48.373906 8.387984-63.995875 21.685958C624.369781 8.409984 601.495825 0.02 575.997875 0.02c-25.49995 0-48.373906 8.387984-63.997875 21.685958C496.374031 8.409984 473.502075 0.02 448.002125 0.02c-25.49795 0-48.373906 8.387984-63.997875 21.685958C368.378281 8.409984 345.506325 0.02 320.006375 0.02c-25.49795 0-48.373906 8.387984-63.997875 21.685958C240.382531 8.409984 217.510575 0.02 192.010625 0.02c-47.123908 0-85.339833 28.653944-85.339833 63.997875v895.96625c0 35.343931 38.215925 63.997875 85.339833 63.997875s85.341833-28.653944 85.341833-63.997875v-72.557858c12.531976 5.435989 27.091947 8.561983 42.653917 8.561983 47.123908 0 85.341833-28.657944 85.341833-63.999875v-72.559858c12.531976 5.439989 27.091947 8.561983 42.653917 8.561983 47.123908 0 85.339833-28.653944 85.339833-63.995875v-72.561858c12.533976 5.437989 27.093947 8.563983 42.655917 8.563983 47.123908 0 85.339833-28.655944 85.339833-63.997875V546.060933c12.531976 5.467989 27.093947 8.625983 42.653917 8.625984 47.123908 0 85.343833-28.673944 85.343833-64.015875V418.081183c12.529976 5.453989 27.089947 8.593983 42.651917 8.593984 47.125908 0 85.341833-28.655944 85.341833-63.999875V64.017875c0-35.343931-38.215925-63.997875-85.341833-63.997875zM234.666542 959.984125c0 7.499985-16.187968 21.311958-42.655917 21.311958-26.465948 0-42.653917-13.811973-42.653917-21.311958V64.017875c0-7.515985 16.187968-21.327958 42.653917-21.327958 26.467948 0 42.655917 13.811973 42.655917 21.327958v895.96625z m127.99575-127.99575c0 7.499985-16.187968 21.311958-42.655917 21.311958-26.465948 0-42.653917-13.811973-42.653917-21.311958V64.017875c0-7.515985 16.187968-21.327958 42.653917-21.327958 26.467948 0 42.655917 13.811973 42.655917 21.327958v767.9705z m127.99375-127.99375c0 7.499985-16.185968 21.309958-42.653917 21.309958s-42.653917-13.809973-42.653917-21.309958V64.017875c0-7.515985 16.185968-21.327958 42.653917-21.327958s42.653917 13.811973 42.653917 21.327958V703.994625z m127.99575-127.99575c0 7.499985-16.185968 21.309958-42.653917 21.309958s-42.655917-13.809973-42.655917-21.309958V64.017875c0-7.515985 16.187968-21.327958 42.655917-21.327958s42.653917 13.811973 42.653917 21.327958V575.998875z m127.99575-85.325833c0 7.515985-16.187968 21.327958-42.655917 21.327958-26.465948 0-42.653917-13.811973-42.653917-21.327958V64.017875c0-7.515985 16.187968-21.327958 42.653917-21.327958 26.467948 0 42.655917 13.811973 42.655917 21.327958v426.655167z m127.99575-127.99575c0 7.515985-16.189968 21.327958-42.655917 21.327958s-42.651917-13.811973-42.651917-21.327958V64.017875c0-7.515985 16.185968-21.327958 42.651917-21.327958s42.655917 13.811973 42.655917 21.327958v298.659417z" fill="#F4BE8E" /><path d="M106.670792 85.343833h810.658416v170.665667H106.670792z" fill="#EC5564" /><path d="M895.98525 170.685667c0 11.781977-9.559981 21.327958-21.341958 21.327958s-21.311958-9.545981-21.311959-21.327958 9.531981-21.343958 21.311959-21.343959 21.341958 9.561981 21.341958 21.343959zM810.645417 170.685667c0 11.781977-9.531981 21.327958-21.309959 21.327958-11.781977 0-21.343958-9.545981-21.343958-21.327958s9.561981-21.343958 21.343958-21.343959c11.779977 0 21.309958 9.561981 21.309959 21.343959zM170.668667 170.685667c0 11.781977-9.531981 21.327958-21.311959 21.327958s-21.341958-9.545981-21.341958-21.327958 9.559981-21.343958 21.341958-21.343959 21.311958 9.561981 21.311959 21.343959zM256.0085 170.685667c0 11.781977-9.559981 21.327958-21.341958 21.327958s-21.311958-9.545981-21.311959-21.327958 9.531981-21.343958 21.311959-21.343959 21.341958 9.561981 21.341958 21.343959zM298.664417 170.685667c0 11.781977-9.531981 21.327958-21.311959 21.327958s-21.343958-9.545981-21.343958-21.327958 9.561981-21.343958 21.343958-21.343959 21.311958 9.561981 21.311959 21.343959zM384.00425 170.685667c0 11.781977-9.561981 21.327958-21.341958 21.327958-11.781977 0-21.311958-9.545981-21.311959-21.327958s9.531981-21.343958 21.311959-21.343959c11.779977 0 21.341958 9.561981 21.341958 21.343959zM426.658167 170.685667c0 11.781977-9.529981 21.327958-21.309959 21.327958s-21.343958-9.545981-21.343958-21.327958 9.561981-21.343958 21.343958-21.343959 21.309958 9.561981 21.309959 21.343959zM512 170.685667c0 11.781977-9.561981 21.327958-21.343958 21.327958-11.779977 0-21.309958-9.545981-21.309959-21.327958s9.531981-21.343958 21.309959-21.343959c11.781977 0 21.343958 9.561981 21.343958 21.343959zM554.655917 170.685667c0 11.781977-9.533981 21.327958-21.313959 21.327958S512 182.465644 512 170.685667s9.559981-21.343958 21.341958-21.343959 21.313958 9.561981 21.313959 21.343959zM639.99575 170.685667c0 11.781977-9.561981 21.327958-21.343958 21.327958s-21.309958-9.545981-21.309959-21.327958 9.529981-21.343958 21.309959-21.343959 21.343958 9.561981 21.343958 21.343959zM682.649667 170.685667c0 11.781977-9.531981 21.327958-21.311959 21.327958s-21.341958-9.545981-21.341958-21.327958 9.559981-21.343958 21.341958-21.343959 21.311958 9.561981 21.311959 21.343959zM767.9915 170.685667c0 11.781977-9.561981 21.327958-21.343958 21.327958s-21.311958-9.545981-21.311959-21.327958 9.531981-21.343958 21.311959-21.343959 21.343958 9.561981 21.343958 21.343959z" fill="#434A54" /><path d="M106.670792 85.343833h42.685916v170.665667H106.670792zM234.666542 85.343833h42.685916v170.665667h-42.685916zM362.662292 85.343833h42.685916v170.665667h-42.685916zM490.656042 85.343833h42.685916v170.665667h-42.685916zM618.651792 85.343833h42.685916v170.665667h-42.685916zM746.647542 85.343833h42.687916v170.665667h-42.687916zM874.643292 85.343833h42.685916v170.665667h-42.685916z" fill="#D94452" /></svg>