<?xml version="1.0" standalone="no"?><!DOCTYPE svg PUBLIC "-//W3C//DTD SVG 1.1//EN" "http://www.w3.org/Graphics/SVG/1.1/DTD/svg11.dtd"><svg class="icon" width="128px" height="128.00px" viewBox="0 0 1024 1024" version="1.1" xmlns="http://www.w3.org/2000/svg"><path d="M53.35 1023.964c-14.25 0-27.624-5.562-37.716-15.624-10.062-10.062-15.624-23.436-15.624-37.684 0-14.25 5.532-27.624 15.624-37.75l543.988-543.956c2.062-2.062-1.906 46.232 17.904 65.168 18.75 17.876 61.56 6.188 57.498 10.25L91.036 1008.34c-10.062 10.062-23.436 15.624-37.686 15.624z" fill="#E6E9ED" /><path d="M694.522 101.998h253.796v42.686H694.522zM661.146 187.338h340.264v42.652H661.146zM587.338 272.676h383.168v42.654H587.338zM559.34 358.016h236.924v42.654H559.34z" fill="#F6BB42" /><path d="M879.322 74h42.654v257.048h-42.654zM794.014 27.346h42.656v335.482h-42.656zM708.676 52.062h42.654v387.622h-42.654zM623.338 233.74h42.684v229.442h-42.684z" fill="#F6BB42" /><path d="M614.65 486.554c-32.25 0-54.904-5.624-55.842-5.874a21.376 21.376 0 0 1-15.482-15.5c-0.376-1.376-8.75-35.31-4.812-79.792 5.25-59.746 30.292-110.65 72.356-147.148 31.59-27.436 42.528-61.746 54.09-98.056 12.124-37.998 24.656-77.308 59.934-112.588 18.312-18.312 40.5-27.56 65.936-27.56 70.402 0 142.586 74.652 150.302 82.838 8.094 7.624 81.464 78.558 82.84 148.274 0.5 26.312-8.75 49.154-27.56 67.934-35.28 35.312-74.59 47.842-112.588 59.966-36.31 11.562-70.622 22.498-98.056 54.09-52.656 60.668-122.122 73.416-171.118 73.416z m-32.312-44.932c8 1.124 19.188 2.25 32.312 2.25 40.122 0 96.776-10.188 138.898-58.702 35.28-40.624 76.964-53.934 117.304-66.778 34.688-11.062 67.436-21.498 95.402-49.466 10.406-10.404 15.344-22.498 15.032-36.936-0.876-45.028-50.624-100.712-69.746-118.338-0.406-0.406-0.812-0.78-1.188-1.186-0.156-0.188-17.094-18.344-41.094-36.094-29.746-22.03-56.872-33.686-78.432-33.686-13.938 0-25.624 4.938-35.748 15.062-27.968 27.966-38.404 60.714-49.466 95.4-12.842 40.31-26.154 82.028-66.778 117.306-65.058 56.47-60.964 139.34-56.496 171.168z" fill="#FFCE54" /><path d="M526.982 572.426l-75.402-75.434 30.154-30.122 75.418 75.37zM466.642 632.734l-75.434-75.37 30.186-30.186 75.434 75.434zM53.35 895.222L15.634 932.906c-10.092 10.124-15.624 23.5-15.624 37.75 0 14.248 5.562 27.622 15.624 37.684 10.094 10.062 23.468 15.624 37.716 15.624 14.25 0 27.624-5.562 37.686-15.624l37.748-37.684-75.434-75.434zM864.73 713.918c-20.124-20.186-46.904-31.248-75.402-31.248s-55.28 11.062-75.434 31.248c-20.124 20.124-31.248 46.936-31.248 75.372 0 28.5 11.124 55.308 31.248 75.434 20.154 20.188 46.936 31.25 75.434 31.25s55.28-11.062 75.402-31.25c20.154-20.124 31.248-46.934 31.248-75.434 0-28.436-11.094-55.248-31.248-75.372z" fill="#ED5564" /><path d="M880.292 733.606a106.4 106.4 0 0 0-15.56-19.688c-4.718-4.75-9.812-8.938-15.218-12.688-7.874 15.624-25.686 42.25-65.872 82.434-40.124 40.124-66.748 57.936-82.372 65.872a105.77 105.77 0 0 0 12.624 15.188c5.998 6 12.624 11.188 19.686 15.562 20.562-12.5 46.904-33.124 80.246-66.434 33.342-33.376 53.934-59.748 66.466-80.246z" fill="#DA4453" /></svg>