<?xml version="1.0" standalone="no"?><!DOCTYPE svg PUBLIC "-//W3C//DTD SVG 1.1//EN" "http://www.w3.org/Graphics/SVG/1.1/DTD/svg11.dtd"><svg class="icon" width="128px" height="128.00px" viewBox="0 0 1024 1024" version="1.1" xmlns="http://www.w3.org/2000/svg"><path d="M767.95374 981.315337c-10.811905 0-20.091823-8.217927-21.185813-19.217831l-62.091451-620.756519H339.313524l-62.077451 620.756519c-1.17199 11.749896-11.655897 20.281821-23.357794 19.123832-11.717897-1.18799-20.281821-11.623897-19.109832-23.343794l63.999435-639.97635A21.353811 21.353811 0 0 1 320.001695 298.683363h383.98661c10.967903 0 20.123822 8.311927 21.247813 19.217831l63.995435 639.97635c1.15599 11.717897-7.403935 22.155804-19.123832 23.343794-0.717994 0.061999-1.435987 0.093999-2.153981 0.093999z" fill="#CCD1D9" /><path d="M687.676449 20.537819C687.238453 9.06992 677.832536 0.008 666.364637 0.008H362.671318c-11.419899 0-20.827816 8.999921-21.311812 20.43582l-42.669623 981.277337c-0.515995 11.781896 8.609924 21.715808 20.38982 22.247803h0.937992a21.319812 21.319812 0 0 0 21.295812-20.40382l6.531942-150.246673h329.081095l5.749949 150.152674c0.437996 11.779896 10.311909 20.903815 22.123805 20.497819 11.781896-0.437996 20.935815-10.373908 20.497819-22.123804L687.676449 20.537819zM362.687318 511.98948h301.145342l4.905956 127.99687H357.125367l5.561951-127.99687z m283.145501-469.295857l16.343855 426.640234H364.547302l18.545836-426.640234h262.739681zM349.705433 810.664843l5.561951-127.99487h315.097218l4.937956 127.99487h-325.597125z" fill="#E6E9ED" /><path d="M687.676449 20.537819C687.238453 9.06992 677.832536 0.008 666.364637 0.008H362.671318c-11.419899 0-20.827816 8.999921-21.311812 20.43582l-4.687958 107.55905H691.798413l-4.121964-107.465051z" fill="#5D9CEC" /><path d="M597.335247 42.693623c11.779896 0 21.341812-9.561916 21.341811-21.341811V0.008h-42.685623v21.341812c0 11.779896 9.561916 21.343812 21.343812 21.343811zM511.996 42.693623c11.779896 0 21.341812-9.561916 21.341812-21.341811V0.008h-42.669624v21.341812c-0.002 11.779896 9.545916 21.343812 21.327812 21.343811zM426.668753 42.693623c11.779896 0 21.327812-9.561916 21.327812-21.341811V0.008h-42.669623v21.341812c0 11.779896 9.561916 21.343812 21.341811 21.343811z" fill="#4A89DC" /></svg>