<?xml version="1.0" standalone="no"?><!DOCTYPE svg PUBLIC "-//W3C//DTD SVG 1.1//EN" "http://www.w3.org/Graphics/SVG/1.1/DTD/svg11.dtd"><svg class="icon" width="128px" height="128.00px" viewBox="0 0 1024 1024" version="1.1" xmlns="http://www.w3.org/2000/svg"><path d="M63.982 0.014h895.976v1023.97H63.982z" fill="#FECD57" /><path d="M511.97 234.664c-11.782 0-21.344 9.562-21.344 21.344v554.64c0 11.782 9.562 21.344 21.344 21.344 11.78 0 21.342-9.562 21.342-21.344v-554.64c0-11.782-9.562-21.344-21.342-21.344z" fill="#F6BB42" /><path d="M960.02 725.09a10.48 10.48 0 0 0-0.062-0.968V0.014H63.982v1023.97H959.958V726.558c0.03-0.5 0.062-0.968 0.062-1.468z m-42.72-24.594c-4.188-1.25-8.594-2.906-12.968-5.188-19.996-10.344-29.714-28.438-29.714-55.312v-170.682c0-26.53 9.75-44.53 29.808-55.03 4.312-2.25 8.718-3.938 12.876-5.218v291.43zM618.622 42.668h128v447.988h-128V42.668z m0 490.644h42.688v85.34c0 20.344-5.468 36-16.218 46.562-7.906 7.718-17.782 12.032-26.468 14.438v-146.34zM277.32 42.668h127.996v447.988h-42.686v-106.654c0-11.78-9.532-21.342-21.312-21.342-11.782 0-21.344 9.562-21.344 21.342v106.654H277.32V42.668z m-127.996 0v170.652c0 20.344-5.468 36-16.218 46.562-7.906 7.75-17.782 12.062-26.468 14.438V42.668h42.686z m85.308 938.632H191.978v-129.75c0-11.778-9.562-21.34-21.342-21.34s-21.312 9.562-21.312 21.34v129.75H106.636V318.006c16.124-2.938 38.124-10.062 55.904-27.25 19.532-18.906 29.436-44.966 29.436-77.436V42.668h42.656V981.3z m170.684 0H277.32V533.312h127.996V981.3z m170.652 0h-127.998V42.668h127.998V981.3z m170.654 0h-128V723.308c16.124-2.906 38.124-10.032 55.906-27.25 19.532-18.876 29.438-44.938 29.438-77.406v-85.34h42.656V981.3z m127.996 0v-85.312c0-11.782-9.532-21.344-21.312-21.344s-21.344 9.562-21.344 21.344v85.312h-42.656V42.668h42.656v129.778c0 11.78 9.562 21.312 21.344 21.312s21.312-9.532 21.312-21.312V42.668h42.684v322.428c-8.968 1.812-19.876 4.968-30.872 10.468-35.124 17.562-54.468 50.874-54.468 93.748v170.682c0 31.468 9.656 57 28.718 75.876 17.906 17.718 40.372 25.25 56.622 28.438V981.3h-42.684z" fill="#F6BB42" /></svg>