<?xml version="1.0" standalone="no"?><!DOCTYPE svg PUBLIC "-//W3C//DTD SVG 1.1//EN" "http://www.w3.org/Graphics/SVG/1.1/DTD/svg11.dtd"><svg class="icon" width="128px" height="128.00px" viewBox="0 0 1024 1024" version="1.1" xmlns="http://www.w3.org/2000/svg"><path d="M256.078 502.892l112.964 506.518 286.602-6.652 112.278-506.52z" fill="#E5E8EC" /><path d="M512 213.42c56.982 0 110.528-22.182 150.796-62.466 40.3-40.268 62.48-93.83 62.48-150.796h42.644c0 141.348-114.59 255.922-255.922 255.922v-42.66z" fill="#F5BA45" /><path d="M490.662 793.602h42.674v93.972h-42.674z" fill="#424953" /><path d="M446.644 853.208h127.96v156.202h-127.96z" fill="#EC5564" /><path d="M233.366 512l110.904 511.844H676.98L787.852 512H233.366z m409.188 469.17H378.666l-92.41-426.494h448.738l-92.44 426.494z" fill="#CBD0D8" /><path d="M554.112 241.566C550.832 261.858 533.18 277.4 512 277.4c-21.182 0-38.832-15.542-42.112-35.834-79.226 8.28-245.426 48.236-319.06 313.11h722.344c-73.634-264.874-239.834-304.83-319.06-313.11z" fill="#EC5564" /><path d="M510.624 810.598c-23.524 0-42.674-19.152-42.674-42.676 0-13.59 20.056-45.36 42.674-73.602 22.618 28.242 42.644 60.012 42.644 73.602 0.002 23.524-19.12 42.676-42.644 42.676z" fill="#FECD57" /><path d="M510.624 661.268s-63.98 71.322-63.98 106.654c0 35.334 28.648 63.98 63.98 63.98 35.332 0 63.98-28.646 63.98-63.98 0.002-35.332-63.98-106.654-63.98-106.654z m0 127.96c-11.528 0-20.93-9.154-21.306-20.556 0.438-2.062 3.592-13.434 21.306-38.676 17.682 25.242 20.868 36.614 21.304 38.676-0.374 11.402-9.806 20.556-21.304 20.556z" fill="#F5BA45" /><path d="M859.55 511.078h-70.292v-41.736h54.016a517.896 517.896 0 0 0-20.898-42.644h-119.808V384.04h93.222c-11.31-15.932-23.026-30.084-35.052-42.658h-143.486v-42.644h94.062c-29.614-20.774-59.262-34.066-86.348-42.658h-76.04c-7.404 12.73-21.18 21.322-36.926 21.322s-29.522-8.592-36.926-21.322h-76.04c-27.086 8.592-56.732 21.884-86.348 42.658h91.284v42.644h-140.708c-12.028 12.574-23.742 26.726-35.052 42.658h90.472v42.658h-117.058a515.984 515.984 0 0 0-20.9 42.644h52.64v41.736H164.45a720.628 720.628 0 0 0-13.372 42.66h721.844a720.628 720.628 0 0 0-13.372-42.66z m-199.66-127.038v42.658h-127.96V384.04h127.96z m-213.246-85.304h127.96v42.644h-127.96v-42.644z m-85.316 85.304h127.96v42.658h-127.96V384.04z m42.642 127.038h-127.96v-41.736h127.96v41.736z m170.636 0h-127.96v-41.736h127.96v41.736z m171.978 0h-129.334v-41.736h129.334v41.736z" fill="#D94452" /><path d="M512 170.776c-35.334 0-63.98 28.648-63.98 63.98 0 35.334 28.648 63.98 63.98 63.98 35.332 0 63.98-28.646 63.98-63.98 0-35.332-28.648-63.98-63.98-63.98z m0 85.302c-11.748 0-21.338-9.574-21.338-21.322 0-11.762 9.59-21.336 21.338-21.336 11.746 0 21.336 9.574 21.336 21.336 0 11.748-9.59 21.322-21.336 21.322z" fill="#D94452" /><path d="M512 213.42c-56.984 0-110.53-22.182-150.798-62.466C320.902 110.686 298.72 57.124 298.72 0.158h-42.642c0 141.348 114.59 255.922 255.922 255.922 11.778 0 21.336-9.542 21.336-21.322S523.778 213.42 512 213.42z" fill="#FECD57" /></svg>