<?xml version="1.0" standalone="no"?><!DOCTYPE svg PUBLIC "-//W3C//DTD SVG 1.1//EN" "http://www.w3.org/Graphics/SVG/1.1/DTD/svg11.dtd"><svg class="icon" width="128px" height="128.00px" viewBox="0 0 1024 1024" version="1.1" xmlns="http://www.w3.org/2000/svg"><path d="M491.032 502.656h42.656v485.336h-42.656z" fill="#CCD1D9" /><path d="M576 618.652h-127.998c-11.782 0-21.344 9.532-21.344 21.344 0 11.75 9.562 21.312 21.344 21.312H576c11.782 0 21.312-9.562 21.312-21.312 0-11.812-9.53-21.344-21.312-21.344z" fill="#DA4453" /><path d="M640.84 1023.992H381.128s-61.156-106.688-61.156-213.34c0-106.656 61.156-170.656 61.156-170.656H640.84s63.906 64 63.906 170.656c0 106.652-63.906 213.34-63.906 213.34z" fill="#ED5564" /><path d="M661.308 981.304H362.66c-11.782 0-21.342 9.562-21.342 21.344s9.562 21.344 21.342 21.344h298.65c11.812 0 21.344-9.562 21.344-21.344s-9.532-21.344-21.346-21.344zM725.308 509.764v87.548c0 11.808 9.562 21.34 21.344 21.34s21.344-9.532 21.344-21.34v-87.548h-42.688z" fill="#434A54" /><path d="M703.122 781.34l-41.812 41.812-27.562-27.594c-3.872-3.844-9.184-6.25-15.09-6.25s-11.218 2.406-15.094 6.25l-27.5 27.532-27.188-27.468a21.444 21.444 0 0 0-15.188-6.312c-5.876 0-11.188 2.406-15.062 6.25l-27.5 27.532-27.218-27.468c-3.876-3.876-9.218-6.312-15.156-6.312a21.28 21.28 0 0 0-15.062 6.25l-27.532 27.532-27.218-27.468c-3.876-3.876-9.218-6.312-15.124-6.312s-11.25 2.406-15.094 6.25l-28.406 28.438c0.812 18.156 3.282 36.184 6.75 53.558l36.686-36.684 27.188 27.464a21.246 21.246 0 0 0 15.156 6.312c5.876 0 11.218-2.406 15.094-6.25l27.5-27.528 27.186 27.464c3.876 3.906 9.25 6.312 15.156 6.312s11.218-2.406 15.094-6.25l27.5-27.528 27.218 27.464a21.19 21.19 0 0 0 15.156 6.312 21.28 21.28 0 0 0 15.062-6.25l27.594-27.59 27.59 27.59a21.284 21.284 0 0 0 15.062 6.25c5.906 0 11.25-2.406 15.094-6.25l26.656-26.652c1.094-10.312 1.688-20.688 1.688-31.094 0-10.156-0.562-19.938-1.624-29.312z" fill="#DA4453" /><path d="M725.308 0.008H298.66c-4.812 171.45-170.654 554.648-170.654 554.648 85.312 0 213.248-42.672 213.248-42.672s101.998 34.642 170.748 41.486c68.75-6.844 170.714-41.486 170.714-41.486s127.938 42.672 213.278 42.672c-0.002 0-165.872-383.198-170.686-554.648z" fill="#F6BB42" /><path d="M343.378 512.702c14.874 4.938 105.654 34.486 168.622 40.766 62.562-6.25 152.652-35.468 168.338-40.672l2.312-3.032C600 304.002 588 0.008 588 0.008h-151.998s-12 303.994-94.686 509.756l2.062 2.938z" fill="#FFCE54" /></svg>