<?xml version="1.0" standalone="no"?><!DOCTYPE svg PUBLIC "-//W3C//DTD SVG 1.1//EN" "http://www.w3.org/Graphics/SVG/1.1/DTD/svg11.dtd"><svg class="icon" width="128px" height="128.00px" viewBox="0 0 1024 1024" version="1.1" xmlns="http://www.w3.org/2000/svg"><path d="M703.985375 490.661292a21.295709 21.295709 0 0 1-21.311708-21.309709v-84.014851c0-11.779839 9.53187-21.325708 21.311708-21.325709s21.311709 9.545869 21.311709 21.325709v84.014851c0 11.779839-9.52987 21.309709-21.311709 21.309709z" fill="#CCD1D9" /><path d="M489.118313 395.462593h42.671416v628.531407h-42.671416z" fill="#DA4453" /><path d="M554.679416 512.005h-85.358832c-11.779839 0-21.325708-9.561869-21.325709-21.343708 0-11.779839 9.545869-21.309709 21.325709-21.309709h85.358832c11.749839 0 21.309709 9.53187 21.309709 21.309709 0 11.781839-9.559869 21.343708-21.309709 21.343708z" fill="#ED5564" /><path d="M677.923732 0.022H346.074269c-3.747949 131.152207-132.744185 424.284199-132.744186 424.284199 66.373093 0 165.869732-32.639554 165.869733-32.639554s79.324915 26.467638 132.792184 31.733566c53.467269-5.265928 132.806184-31.733566 132.806184-31.733566s99.49864 32.639554 165.871733 32.639554c0-0.002-128.996236-293.131992-132.746185-424.284199z" fill="#F6BB42" /><path d="M379.229815 391.774644c0.203997-0.077999 0.327996-0.109998 0.327996-0.109999s79.308916 26.467638 132.778184 31.733566c51.531295-5.061931 126.962264-29.811592 132.462189-31.623567v-0.109999C572.429174 234.264797 571.803182 0.022 571.803182 0.022h-119.636364s-0.623991 234.242797-72.967002 391.642645l0.029999 0.109999z" fill="#FFCE54" /><path d="M661.297959 1023.992H362.668042c-11.781839 0-21.341708-9.561869-21.341709-21.343708s9.559869-21.311709 21.341709-21.311709H661.297959c11.811839 0 21.375708 9.53187 21.375708 21.311709s-9.561869 21.343708-21.375708 21.343708z" fill="#434A54" /></svg>