<?xml version="1.0" standalone="no"?><!DOCTYPE svg PUBLIC "-//W3C//DTD SVG 1.1//EN" "http://www.w3.org/Graphics/SVG/1.1/DTD/svg11.dtd"><svg class="icon" width="128px" height="128.00px" viewBox="0 0 1024 1024" version="1.1" xmlns="http://www.w3.org/2000/svg"><path d="M682.8 512l-79.996 136.65 79.996 84.874 170.496 34.466 101.246-87.778 69.436-40.216L981.292 512l-170.494-42.686z" fill="#FB6D51" /><path d="M725.486 733.524l-79.996-84.874L725.486 512l109.688-36.594-24.376-6.092L682.8 512l-79.996 136.65 79.996 84.874z" fill="#E8563F" /><path d="M511.996 469.314l42.81-85.248-85.482-85.402L384 341.318 317.048 476z" fill="#FB6D51" /><path d="M426.67 341.318l56.888-28.436-14.234-14.218L384 341.318 317.048 476l43.406-1.5z" fill="#E8563F" /><path d="M384 277.32c0 11.782-9.546 21.342-21.328 21.342s-21.344-9.562-21.344-21.342 9.562-21.312 21.344-21.312S384 265.54 384 277.32zM597.304 320.006c0 11.78-9.532 21.312-21.312 21.312s-21.31-9.532-21.31-21.312c0-11.812 9.53-21.342 21.31-21.342s21.312 9.53 21.312 21.342zM639.992 533.312c0 11.782-9.562 21.342-21.312 21.342-11.812 0-21.376-9.56-21.376-21.342S606.868 512 618.68 512c11.75 0 21.312 9.532 21.312 21.312zM298.674 234.664c0 11.782-9.562 21.344-21.342 21.344-11.782 0-21.328-9.562-21.328-21.344 0-11.78 9.546-21.342 21.328-21.342 11.78 0 21.342 9.562 21.342 21.342z" fill="#424953" /><path d="M682.676 341.318h-42.684l-42.688 42.686v85.31h85.372l43.03-43.092z" fill="#FB6D51" /><path d="M682.676 341.318h-42.684l-42.688 42.686v85.31h42.688v-85.31z" fill="#E8563F" /><path d="M1004.916 963.64L60.354 19.078C47.462 6.204 35.48 0.016 25.668 0.016 10.168 0.016 0.012 15.36 0.012 44.078v979.906h979.906c46.936 0 58.186-27.156 24.998-60.344z" fill="#7F4545" /><path d="M962.23 1006.296L17.684 61.734c-6.14-6.126-12.078-10.75-17.672-13.906v976.156h976.156c-3.188-5.624-7.782-11.53-13.938-17.688z" fill="#9B5C5C" /></svg>