<?xml version="1.0" standalone="no"?><!DOCTYPE svg PUBLIC "-//W3C//DTD SVG 1.1//EN" "http://www.w3.org/Graphics/SVG/1.1/DTD/svg11.dtd"><svg class="icon" width="128px" height="128.00px" viewBox="0 0 1024 1024" version="1.1" xmlns="http://www.w3.org/2000/svg"><path d="M1023.6 192.25V85.678c0-23.576-19.078-42.654-42.622-42.654H43.04C19.494 43.024 0.4 62.102 0.4 85.678v106.572h1023.2z" fill="#E6E9ED" /><path d="M85.678 85.678c0 11.772-9.542 21.294-21.328 21.294-11.772 0-21.31-9.524-21.31-21.294 0-11.774 9.54-21.328 21.31-21.328 11.786 0 21.328 9.554 21.328 21.328z" fill="#ED5564" /><path d="M149.626 85.678c0 11.772-9.54 21.294-21.31 21.294-11.774 0-21.328-9.524-21.328-21.294 0-11.774 9.554-21.328 21.328-21.328 11.772 0 21.31 9.554 21.31 21.328z" fill="#FFCE54" /><path d="M213.576 85.678c0 11.772-9.54 21.294-21.31 21.294S170.94 97.45 170.94 85.678c0-11.774 9.554-21.328 21.326-21.328s21.31 9.554 21.31 21.328z" fill="#A0D468" /><path d="M0.4 128.3h1023.2v852.676H0.4z" fill="#F5F7FA" /><path d="M226.894 266.972l-40.468 40.47 324.03 218.548 158.234-158.282zM799.682 839.744l-40.5 40.468-218.548-324.028 158.282-158.25zM427.598 669.19l-135.66-75.38-120.578 30.164 135.66 105.512z" fill="#4A89DC" /><path d="M397.464 639.056l75.364 135.646-30.148 120.592-105.512-135.674z" fill="#4A89DC" /><path d="M367.316 789.784l-90.446-90.46L759.212 216.98s47.306-12.99 75.348 15.082c28.102 28.072 15.114 75.378 15.114 75.378L367.316 789.784z" fill="#5D9CEC" /><path d="M359.776 737.012l-30.148-30.132-22.592 22.576-0.016 0.032c-8.322 8.306-8.322 21.826 0 30.132 8.322 8.338 21.826 8.338 30.148 0l22.608-22.608z" fill="#4A89DC" /></svg>