<?xml version="1.0" standalone="no"?><!DOCTYPE svg PUBLIC "-//W3C//DTD SVG 1.1//EN" "http://www.w3.org/Graphics/SVG/1.1/DTD/svg11.dtd"><svg class="icon" width="128px" height="128.00px" viewBox="0 0 1024 1024" version="1.1" xmlns="http://www.w3.org/2000/svg"><path d="M793.178 241.37l-13.344-42.654-37.312-10.672-42.686 13.328V150.716l-14.654-55.998s-40-18.672-48-21.344c-8-2.656-42.654 11.984-42.654 11.984s-18.686-37.31-23.998-41.31c-5.344-4-30.686-22.672-37.342-22.688-6.656-0.032-42.656 10.688-42.656 10.688l-14.688 59.998s-38.654-25.328-42.654-28-58.654 28-58.654 28l-14.686 78.638 14.686 229.35s-21.342 56-25.342 54.67c-4-1.344-78.654-48-78.654-48l-46.684 14.656v45.34l143.994 358.66 6.688 170.648h429.298l-10.658-754.638z" fill="#EC87C0" /><path d="M824.582 239.448c0-41.858-34.03-75.904-75.874-75.904-8.624 0-17.124 1.468-25.248 4.376l-7.532 2.672-0.344 0.124V130.42c0-41.858-34.06-75.918-75.904-75.918-9.594 0-18.998 1.796-27.966 5.344l-5.844 2.312-0.282 0.11-0.062-0.296-1.656-6.062C594.932 23.004 564.81 0.022 530.624 0.022c-34.124 0-64.218 22.982-73.154 55.888l-1.624 6.062-0.094 0.282-0.282-0.11-5.812-2.296c-9.062-3.546-18.468-5.344-28.03-5.344-41.842 0-75.874 34.062-75.874 75.918V430.818l-0.468-0.624-10.062-12.984c-20.936-27.062-57.654-36.748-89.248-23.578-28.374 11.828-46.686 39.328-46.686 70.06 0 10.03 2 19.858 5.906 29.218l150.182 362.642v168.432h469.326V810.676l-0.122-571.228z m-42.56 677.88H398.036v-63.998h383.986v63.998zM244.228 475.532l-0.032-0.062v-0.092c-1.406-3.782-2.156-7.704-2.156-11.686 0-13.468 8-25.466 20.376-30.592 10.936-4.64 20.562-2.062 25.374-0.11 4.75 1.938 13.374 6.828 17.936 17.828l82.748 188.148V130.42c0-18.264 14.874-33.124 33.156-33.124 18.28 0 33.154 14.86 33.154 33.124v296.254h42.716V75.86c0-18.264 14.876-33.124 33.124-33.124 18.312 0 33.186 14.858 33.186 33.124v350.816h42.748V130.42c0-18.264 14.844-33.124 33.124-33.124 18.25 0 33.124 14.86 33.124 33.124v296.254h42.78v-187.228c0-18.296 14.842-33.202 33.124-33.202s33.124 14.906 33.124 33.202c0 4.75-0.094 540.792-0.094 571.228H382.848L244.666 476.56l-0.438-1.028z m495.138 505.794c0-11.782-9.562-21.344-21.342-21.344-11.782 0-21.312 9.562-21.312 21.344h-42.686c0-11.782-9.532-21.344-21.312-21.344-11.78 0-21.342 9.562-21.342 21.344h-42.654c0-11.782-9.56-21.344-21.342-21.344s-21.344 9.562-21.344 21.344h-42.656c0-11.782-9.562-21.344-21.344-21.344-11.748 0-21.31 9.562-21.31 21.344h-42.686v-21.344h383.986v21.344h-42.656z" fill="#D770AD" /></svg>