<?xml version="1.0" standalone="no"?><!DOCTYPE svg PUBLIC "-//W3C//DTD SVG 1.1//EN" "http://www.w3.org/Graphics/SVG/1.1/DTD/svg11.dtd"><svg class="icon" width="128px" height="128.00px" viewBox="0 0 1024 1024" version="1.1" xmlns="http://www.w3.org/2000/svg"><path d="M981.366 611.152l-1.938 6.282H44.604l-1.968-6.344L1.98 623.776l106.464 340.676a21.336 21.336 0 0 0 10.438 12.5c3.686 1.938 93.246 47.03 393.11 47.03 299.444 0 388.75-40.936 392.438-42.686a21.268 21.268 0 0 0 11.188-12.938l106.434-344.644-40.686-12.562z" fill="#E6E9ED" /><path d="M1001.676 617.434c0 47.028-219.24 85.152-489.684 85.152-270.428 0-489.668-38.124-489.668-85.152 0-47.03 219.242-85.154 489.668-85.154 270.444 0 489.684 38.124 489.684 85.154z" fill="#5D9CEC" /><path d="M511.992 723.896c-131.964 0-256.24-8.966-349.892-25.248-46.498-8.094-83.31-17.656-109.402-28.376-12.782-5.25-51.686-21.25-51.686-52.84 0-31.592 38.904-47.592 51.686-52.842 26.092-10.718 62.904-20.282 109.402-28.344 93.652-16.312 217.928-25.28 349.892-25.28 132.01 0 256.256 8.966 349.938 25.28 46.5 8.062 83.312 17.624 109.374 28.344 12.812 5.25 51.686 21.25 51.686 52.842 0 31.59-38.874 47.59-51.686 52.84-26.06 10.718-62.874 20.282-109.374 28.376-93.682 16.282-217.928 25.248-349.938 25.248zM45.01 617.434c6.468 6.154 34.03 24.936 139.464 41.746 89.434 14.282 205.742 22.124 327.518 22.124 121.822 0 238.13-7.844 327.566-22.124 105.434-16.81 132.994-35.592 139.432-41.746-6.438-6.124-33.998-24.936-139.432-41.748-89.436-14.282-205.744-22.124-327.566-22.124-121.776 0-238.084 7.844-327.518 22.124-105.434 16.812-132.996 35.622-139.464 41.748z" fill="#CCD1D9" /><path d="M810.06 638.712H213.94c-11.782 0-21.312-9.532-21.312-21.28 0-11.75 9.53-21.28 21.312-21.28h596.12c11.812 0 21.31 9.53 21.31 21.28 0.002 11.75-9.496 21.28-21.31 21.28z" fill="#4A89DC" /><path d="M688.376 0.02h-74.186c0 56.34-45.81 102.184-102.2 102.184-56.342 0-102.152-45.842-102.152-102.184h-74.216L88.666 141.106l70.56 194.056 97.278-35.28v317.864H767.5V299.882l97.306 35.28 70.562-194.056L688.376 0.02z" fill="#A0D468" /><path d="M511.992 80.89c-44.592 0-80.872-36.28-80.872-80.872h-42.592c0 68.184 55.28 123.462 123.464 123.462 68.202 0 123.51-55.278 123.51-123.462h-42.624c0 44.594-36.246 80.872-80.886 80.872z" fill="#8CC153" /></svg>