<?xml version="1.0" standalone="no"?><!DOCTYPE svg PUBLIC "-//W3C//DTD SVG 1.1//EN" "http://www.w3.org/Graphics/SVG/1.1/DTD/svg11.dtd"><svg class="icon" width="128px" height="128.00px" viewBox="0 0 1024 1024" version="1.1" xmlns="http://www.w3.org/2000/svg"><path d="M725.336 150.24h-85.34c0 70.56-57.402 127.996-127.994 127.996-70.56 0-127.996-57.434-127.996-127.996h-85.34L0.022 320.89l85.34 234.664 127.996-42.67v490.652h597.292V512.884l127.994 42.67 85.34-234.664L725.336 150.24z" fill="#48CFAD" /><path d="M512.002 256.892c-58.81 0-106.652-47.842-106.652-106.652h-42.686c0 82.466 66.874 149.338 149.338 149.338s149.338-66.874 149.338-149.338h-42.686c0 58.81-47.842 106.652-106.652 106.652z" fill="#37BC9B" /><path d="M533.346 127.148c-349.8 0-510.762-41.624-517.45-43.404-11.406-3-18.186-14.686-15.156-26.092 3.032-11.374 14.686-18.156 26.062-15.156 1.594 0.438 163.244 41.998 506.544 41.998 343.328 0 460.918-40.998 462.042-41.436 11.094-4 23.312 1.75 27.312 12.842 4 11.062-1.718 23.312-12.812 27.312-4.968 1.782-125.808 43.936-476.542 43.936z" fill="#434A54" /><path d="M703.994 184.896c-11.782 0-21.342-9.532-21.342-21.312V41.808c0-11.782 9.56-21.344 21.342-21.344s21.342 9.562 21.342 21.344v121.776c0 11.782-9.56 21.312-21.342 21.312zM320.01 184.896c-11.782 0-21.344-9.532-21.344-21.312V41.808c0-11.782 9.562-21.344 21.344-21.344 11.78 0 21.342 9.562 21.342 21.344v121.776c0 11.782-9.562 21.312-21.342 21.312z" fill="#F4BE8E" /></svg>