<?xml version="1.0" standalone="no"?><!DOCTYPE svg PUBLIC "-//W3C//DTD SVG 1.1//EN" "http://www.w3.org/Graphics/SVG/1.1/DTD/svg11.dtd"><svg class="icon" width="128px" height="128.00px" viewBox="0 0 1024 1024" version="1.1" xmlns="http://www.w3.org/2000/svg"><path d="M831.994 149.32H149.336c-18.906 0-35.922 8.25-47.656 21.344L13.634 259.254v53.124h71.702V640c0 35.312 28.718 63.996 64 63.996h682.658c35.312 0 64-28.684 64-63.996V213.318c0-35.28-28.688-63.998-64-63.998z" fill="#967ADC" /><path d="M895.994 213.318c0-35.28-28.688-64-64-64h-0.188l-85.124 85.342 63.998 64 85.312-84.436v-0.906z" fill="#FFFFFF" opacity=".1" /><path d="M746.684 234.662H64.008c-35.294 0-63.998 28.718-63.998 64v426.648c0 35.312 28.704 64 63.998 64h682.676c35.248 0 63.998-28.688 63.998-64V298.66c0-35.28-28.75-63.998-63.998-63.998z" fill="#AC92EB" /><path d="M668.124 58.916c-36.686-25.282-101.748-37.594-198.792-37.594-97.06 0-162.076 12.312-198.764 37.594-35.888 24.75-35.888 55.812-35.888 69.06v64c0 11.812 9.546 21.344 21.328 21.344 11.78 0 21.326-9.532 21.326-21.344v-64c0-10.25 0-21.906 17.454-33.936 19.89-13.688 66.312-30.062 174.544-30.062S624 80.352 643.876 94.04c17.436 12.032 17.436 23.686 17.436 33.936v64c0 11.812 9.562 21.344 21.376 21.344 11.75 0 21.312-9.532 21.312-21.344v-64c-0.002-13.25-0.002-44.312-35.876-69.06z" fill="#E6E9ED" /><path d="M455.548 756.684L322.16 543.218c-3.906-6.25-10.734-10.032-18.094-10.032s-14.204 3.782-18.094 10.032L152.586 756.684a21.276 21.276 0 0 0-0.562 21.624 21.254 21.254 0 0 0 18.656 11h266.776c7.75 0 14.89-4.188 18.656-11a21.28 21.28 0 0 0-0.564-21.624z" fill="#CCD1D9" /><path d="M764.744 756.684L551.438 415.346a21.28 21.28 0 0 0-18.094-10.032 21.292 21.292 0 0 0-18.078 10.032L301.958 756.684a21.314 21.314 0 0 0-0.578 21.624 21.292 21.292 0 0 0 18.656 11h426.618c7.78 0 14.904-4.188 18.654-11a21.28 21.28 0 0 0-0.564-21.624zM192.006 341.316c-35.294 0-63.998 28.718-63.998 63.998s28.704 64 63.998 64c35.296 0 64-28.718 64-64 0-35.278-28.704-63.998-64-63.998z" fill="#E6E9ED" /><path d="M789.306 645.812c-0.688 0-1.406 0-2.124-0.062-11.688-1.188-20.25-11.562-19.156-23.25 0.25-2.876 4.876-64.876-51.778-91.156-10.688-4.968-15.344-17.656-10.376-28.342 4.938-10.688 17.624-15.344 28.31-10.376 35.124 16.282 59.466 44.686 70.466 82.124 7.968 27.124 6.094 49.376 5.844 51.812-1.06 11.062-10.372 19.25-21.186 19.25zM668.124 58.916c-36.686-25.282-101.748-37.594-198.792-37.594-97.06 0-162.076 12.312-198.764 37.594-22.342 15.406-30.78 33.25-33.952 47.75H702.06c-3.186-14.502-11.624-32.344-33.936-47.75z" fill="#434A54" /><path d="M982.054 644.188C952.992 606.624 911.056 586 863.87 586c-23.876 0-48.938 5.124-74.594 15.376-25.688-10.25-50.716-15.376-74.622-15.376-47.156 0-89.124 20.624-118.154 58.188-27.062 35-41.938 83.496-41.938 136.558 0 54.75 21.094 110.75 57.876 153.684 37.124 43.376 85.28 68.25 132.152 68.25a129.228 129.228 0 0 0 44.686-7.938 128.936 128.936 0 0 0 44.656 7.938c46.876-0.062 95.062-24.876 132.186-68.25 36.782-42.934 57.874-98.934 57.874-153.684-0.002-53.062-14.874-101.558-41.938-136.558z" fill="#A0D468" /><path d="M633.75 934.43c-36.75-42.934-57.876-98.934-57.876-153.684 0-53.062 14.906-101.558 41.938-136.558 26.876-34.688 64.81-55 107.652-57.876a208.444 208.444 0 0 0-10.81-0.312c-47.156 0-89.124 20.624-118.154 58.188-27.062 35-41.938 83.496-41.938 136.558 0 54.75 21.094 110.75 57.876 153.684 37.124 43.376 85.28 68.25 132.152 68.25 3.594 0 7.124-0.188 10.654-0.5-43.434-3.438-87.184-27.688-121.494-67.75z" fill="#FFFFFF" opacity=".2" /></svg>