<?xml version="1.0" standalone="no"?><!DOCTYPE svg PUBLIC "-//W3C//DTD SVG 1.1//EN" "http://www.w3.org/Graphics/SVG/1.1/DTD/svg11.dtd"><svg class="icon" width="128px" height="128.00px" viewBox="0 0 1024 1024" version="1.1" xmlns="http://www.w3.org/2000/svg"><path d="M56.422 216.228c156.526 65.248 102.122 182.836 102.122 182.836-132.028 10.376-102.122-182.836-102.122-182.836z" fill="#8AC054" /><path d="M277.508 271.382c37.186 192.18-110.59 214.962-110.59 214.962-94.28-120.34 110.59-214.962 110.59-214.962zM0.018 455.596c190.776-15.718 197.21 130.34 197.21 130.34C70.234 664.808 0.018 455.596 0.018 455.596zM274.008 468.438c126.714 160.088 0.812 252.118 0.812 252.118-145.09-66.156-0.812-252.118-0.812-252.118z" fill="#8AC054" /><path d="M44.016 681.712c218.804-84.058 276.552 85.464 276.552 85.464-122.152 136.342-276.552-85.464-276.552-85.464zM353.068 633.058c181.744 92.498 105.84 228.554 105.84 228.554-159.276 0.436-105.84-228.554-105.84-228.554z" fill="#8AC054" /><path d="M706.992 948.548a23.1 23.1 0 0 1-3.562-0.284c-241.834-40.592-409.922-136.276-499.576-284.366-28.654-47.374-49.06-100.06-60.592-156.62-9.188-45.03-12.812-92.622-10.782-141.402 3.468-82.998 22.032-140.588 22.812-142.996 3.656-11.218 15.718-17.312 26.906-13.656 11.186 3.656 17.31 15.688 13.654 26.874-0.188 0.562-17.748 55.498-20.81 133.058-2.75 70.716 6.376 175.494 65.53 273.022 82.996 136.776 241.118 225.618 469.92 263.99 11.626 1.968 19.468 12.968 17.534 24.562-1.752 10.444-10.782 17.818-21.034 17.818z" fill="#79AA41" /><path d="M857.114 486.344c24.374-31.124 28.748-60.5 21.842-86.966 116.464-3.5 88.654-183.15 88.654-183.15-95.34 39.716-112.434 98.902-111.214 139.088-39.218-51.312-109.872-83.934-109.872-83.934-37.188 192.182 110.59 214.962 110.59 214.962zM826.802 585.936c20.152 12.53 38.874 17.782 56.092 17.782 91.402 0 141.088-148.122 141.088-148.122-9.718-0.814-19-1.188-27.81-1.188-163.588 0-169.37 131.528-169.37 131.528z" fill="#9ED36A" /><path d="M805.24 668.432c36.748-81.466-55.216-199.994-55.216-199.994-103.686 130.998-38.216 216.43-11 243.148-26.032 27.594-35.56 55.592-35.56 55.592 28.716 32.032 59.214 44.312 89.09 44.312 97.152 0 187.494-129.778 187.494-129.778-43.5-16.686-80.624-23.376-112.184-23.376-23.936 0.002-44.718 3.846-62.624 10.096zM559.56 861.614c159.088-13.5 85.686-237.43 85.686-237.43-173.37 108.244-85.686 237.43-85.686 237.43z" fill="#9ED36A" /><path d="M317.038 948.548c-10.218 0-19.28-7.376-21.03-17.812-1.938-11.594 5.906-22.594 17.532-24.562 229.022-38.436 387.236-127.372 470.138-264.366 59.28-97.936 68.186-203.12 65.25-274.148-3.22-77.186-20.562-130.996-20.75-131.528-3.656-11.188 2.468-23.25 13.654-26.906 11.188-3.656 23.25 2.438 26.904 13.656 0.782 2.408 19.344 59.998 22.812 142.996 2.032 48.78-1.594 96.372-10.78 141.402-11.534 56.558-31.938 109.278-60.592 156.62-89.65 148.09-257.74 243.774-499.576 284.366-1.22 0.19-2.406 0.282-3.562 0.282z" fill="#8AC054" /><path d="M853.708 244.82c69.53-105.184-105.184-169.37-105.184-169.37-17.844 160.466 105.184 169.37 105.184 169.37z" fill="#9ED36A" /><path d="M275.508 75.452c17.844 160.464-105.184 169.37-105.184 169.37-69.53-105.186 105.184-169.37 105.184-169.37z" fill="#8AC054" /></svg>