<?xml version="1.0" standalone="no"?><!DOCTYPE svg PUBLIC "-//W3C//DTD SVG 1.1//EN" "http://www.w3.org/Graphics/SVG/1.1/DTD/svg11.dtd"><svg class="icon" width="128px" height="128.00px" viewBox="0 0 1024 1024" version="1.1" xmlns="http://www.w3.org/2000/svg"><path d="M168.558 122.956c-2.312-9.28-10.684-16.152-20.666-16.152H21.478C9.7 106.804 0.156 116.348 0.156 128.126S9.7 149.448 21.478 149.448h109.918l121.542 469.248 41.284-10.684L168.558 122.956z" fill="#424953" /><path d="M396.692 534.22h-193.27c-23.462 0-45.534 18.962-49.032 42.174l-25.804 170.668c-3.5 23.21 12.824 42.174 36.286 42.174h231.82c23.46 0 42.658-19.182 42.658-42.612v-169.762c0-23.428-19.198-42.642-42.658-42.642z" fill="#FECD57" /><path d="M981.2 661.276C589.696 448.028 208.732 448.028 208.732 448.028l98.814 381.226 673.654 2.656v-170.634z" fill="#EC5564" /><path d="M341.38 895.89c-58.794 0-106.624-47.828-106.624-106.654 0-58.794 47.83-106.592 106.624-106.592 58.81 0 106.64 47.796 106.64 106.592 0 58.826-47.83 106.654-106.64 106.654z" fill="#646C77" /><path d="M341.38 661.276c-70.666 0-127.96 57.294-127.96 127.96 0 70.698 57.294 127.96 127.96 127.96 70.682 0 127.96-57.264 127.96-127.96 0-70.666-57.278-127.96-127.96-127.96z m0 213.31c-47.032 0-85.302-38.3-85.302-85.35 0-47.018 38.27-85.288 85.302-85.288 47.048 0 85.318 38.27 85.318 85.288 0 47.05-38.27 85.35-85.318 85.35z" fill="#424953" /><path d="M917.218 895.89c-47.046 0-85.316-38.27-85.316-85.286 0-47.048 38.27-85.35 85.316-85.35 47.018 0 85.288 38.3 85.288 85.35 0 47.018-38.27 85.286-85.288 85.286z" fill="#646C77" /><path d="M917.218 703.95c-58.886 0-106.654 47.736-106.654 106.656 0 58.856 47.768 106.592 106.654 106.592 58.89 0 106.624-47.736 106.624-106.592 0.002-58.92-47.732-106.656-106.624-106.656z m0 170.636c-35.3 0-63.98-28.742-63.98-63.98 0-35.302 28.68-63.98 63.98-63.98 35.272 0 63.98 28.678 63.98 63.98 0.002 35.238-28.708 63.98-63.98 63.98z" fill="#424953" /><path d="M938.526 810.606c0 11.746-9.53 21.304-21.306 21.304s-21.336-9.558-21.336-21.304c0-11.808 9.558-21.37 21.336-21.37s21.306 9.56 21.306 21.37zM362.716 789.236c0 11.808-9.56 21.37-21.336 21.37s-21.322-9.56-21.322-21.37c0-11.746 9.544-21.306 21.322-21.306s21.336 9.56 21.336 21.306z" fill="#E5E8EC" /><path d="M406.392 467.458c40.034 89.1 129.554 151.206 233.57 151.206 55.17 0 106.28-17.496 148.078-47.206-144.798-56.778-278.962-87.442-381.648-104z" fill="#424953" /><path d="M187.848 619.54H147.876l-6.452 42.642h46.424c11.778 0 21.322-9.53 21.322-21.338 0-11.746-9.544-21.304-21.322-21.304zM131.756 726.162h46.486a21.326 21.326 0 0 0 21.336-21.338c0-11.746-9.56-21.304-21.336-21.304H138.208l-6.452 42.642z" fill="#F5BA45" /></svg>