<?xml version="1.0" standalone="no"?><!DOCTYPE svg PUBLIC "-//W3C//DTD SVG 1.1//EN" "http://www.w3.org/Graphics/SVG/1.1/DTD/svg11.dtd"><svg class="icon" width="128px" height="128.00px" viewBox="0 0 1024 1024" version="1.1" xmlns="http://www.w3.org/2000/svg"><path d="M776.792 140.514L648.798 12.52l-12.5-12.5H21.34v1023.96h767.952V153.014z" fill="#E6E9ED" /><path d="M170.678 597.372h469.308c11.75 0 21.312-9.562 21.312-21.374 0-11.75-9.562-21.312-21.312-21.312H170.678c-11.812 0-21.342 9.562-21.342 21.312 0 11.81 9.53 21.374 21.342 21.374zM639.986 682.682H170.678c-11.812 0-21.342 9.562-21.342 21.31 0 11.812 9.53 21.376 21.342 21.376h469.308c11.75 0 21.312-9.562 21.312-21.376 0-11.748-9.562-21.31-21.312-21.31zM405.324 810.674H170.678c-11.812 0-21.342 9.562-21.342 21.312 0 11.812 9.53 21.376 21.342 21.376h234.646c11.782 0 21.344-9.562 21.344-21.376 0-11.75-9.562-21.312-21.344-21.312z" fill="#434A54" /><path d="M945.662 682.244h-56.686l-56.998 199.118 85.312 56.87 85.37-56.87z" fill="#E6E9ED" /><path d="M917.29 127.578c-47.124 0-85.31 38.186-85.31 85.308v575.978h170.682V212.886c-0.002-47.122-38.252-85.308-85.372-85.308z" fill="#656D78" /><path d="M789.292 153.014h-152.994V0.02z" fill="#CCD1D9" /><path d="M321.078 426.174c-11.782 0-21.328-9.546-21.328-21.328V147.53c0-11.796 9.546-21.342 21.328-21.342s21.328 9.546 21.328 21.342v257.318c0 11.78-9.546 21.326-21.328 21.326z" fill="#F6BB42" /><path d="M406.402 426.174h-170.648c-11.782 0-21.344-9.546-21.344-21.328s9.562-21.328 21.344-21.328h170.648c11.782 0 21.344 9.546 21.344 21.328s-9.562 21.328-21.344 21.328z" fill="#434A54" /><path d="M449.26 212.854H193.27c-11.782 0-21.326-9.546-21.326-21.326 0-11.796 9.544-21.342 21.326-21.342H449.26c11.782 0 21.344 9.546 21.344 21.342 0 11.78-9.562 21.326-21.344 21.326z" fill="#FFCE54" /><path d="M212.832 298.18H170.162c-11.782 0-21.326-9.546-21.326-21.328 0-11.78 9.544-21.328 21.326-21.328h42.67c11.782 0 21.328 9.546 21.328 21.328s-9.546 21.328-21.328 21.328z" fill="#434A54" /><path d="M470.212 298.18h-42.654c-11.796 0-21.344-9.546-21.344-21.328 0-11.78 9.546-21.328 21.344-21.328h42.654c11.782 0 21.342 9.546 21.342 21.328s-9.56 21.328-21.342 21.328z" fill="#434A54" /></svg>