<?xml version="1.0" standalone="no"?><!DOCTYPE svg PUBLIC "-//W3C//DTD SVG 1.1//EN" "http://www.w3.org/Graphics/SVG/1.1/DTD/svg11.dtd"><svg class="icon" width="128px" height="128.00px" viewBox="0 0 1024 1024" version="1.1" xmlns="http://www.w3.org/2000/svg"><path d="M865.492 772.712l-3.624-1.032c-52.934-14.218-28.186-27.874-51.746-36.842-83.622-31.876-105.37-54.81-110.932-65.654-0.188-0.376-0.312-0.812-0.5-1.218H300.782c-0.188 0.406-0.344 0.844-0.532 1.218-5.562 10.844-27.312 33.78-110.902 65.654-23.56 8.968-41.466 22.624-94.402 36.842l-3.656 1.032c-48.186 15.936-80.59 60.622-80.59 111.06v140.212H946.116v-140.212c0-50.438-32.436-95.124-80.624-111.06z" fill="#434A54" /><path d="M584.694 644.312l-168.918-25.78-71.09 150.212 156.65 255.24 154.604-234.648z" fill="#CCD1D9" /><path d="M545.63 789.336h-88.574l-27.81 106.652 72.09 127.996 70.982-127.996z" fill="#DA4453" /><path d="M560.568 722.714l-49.232-80.652a21.37 21.37 0 0 0-19.718-10.156 21.314 21.314 0 0 0-18.062 12.812l-36.062 83.246a21.444 21.444 0 0 0-1.782 8.468v52.902c0 11.782 9.562 21.31 21.344 21.31h85.34a21.274 21.274 0 0 0 21.296-21.31V733.84a21.13 21.13 0 0 0-3.124-11.126z" fill="#ED5564" /><path d="M351.904 786.304l149.432-81.402 157.354 85.902s43.5-115.776 40.5-121.62c-0.188-0.376-0.312-0.812-0.5-1.218l-0.688-97.09-198.292-2.25-198.242 2.25-0.688 97.09c-0.188 0.406-0.344 0.844-0.532 1.218-2.592 5.064 51.656 117.12 51.656 117.12z" fill="#E6E9ED" /><path d="M774.808 382.976c0 178.744-170.368 343.238-275.098 343.238-104.684 0-275.084-164.494-275.084-343.238 0-178.742 123.184-296.644 275.084-296.644 151.916 0 275.098 117.902 275.098 296.644z" fill="#EAC6BB" /><path d="M669.94 56.834c-46.81-42.374-209.352-103.246-360.064 0-118.872 81.436-106.872 286.738-106.872 286.738s155.994 39.404 334.642-62.654c115.48-65.998 155.73 1.124 176.416 59.56 20.186 56.874 60.746 42.498 60.746 42.498S819.622 192.36 669.94 56.834z" fill="#965353" /><path d="M618.254 253.67c16.374-0.5 30.06 3.094 41.624 9.5 22.188-80.498 65.874-102.152 84.934-107.872-6.188-12.5-13.438-25.03-21.748-37.436-31.25 12.282-80.5 45.656-104.81 135.808z" fill="#7F4242" /><path d="M501.336 1023.984L300.782 667.966l-55.436 67.562 65.122 49.996-11.656 47.998zM501.336 1023.984l197.354-356.018 58.182 67.562-65.058 49.996 11.626 47.998z" fill="#656D78" /><path d="M1007.114 732.558l-106.622-107.59c-4-4.032-9.5-6.312-15.188-6.312h-149.306c-11.81 0-21.31 9.562-21.31 21.344v362.64c0 11.782 9.5 21.344 21.31 21.344h255.99c11.812 0 21.312-9.562 21.312-21.344V747.556c0-5.622-2.186-11.028-6.186-14.998z" fill="#FFCE54" /><path d="M900.492 624.968c-4-4.032-9.5-6.312-15.188-6.312v128.9h127.996c0-5.624-2.188-11.03-6.188-14.998l-106.62-107.59z" fill="#F6BB42" /></svg>