<?xml version="1.0" standalone="no"?><!DOCTYPE svg PUBLIC "-//W3C//DTD SVG 1.1//EN" "http://www.w3.org/Graphics/SVG/1.1/DTD/svg11.dtd"><svg class="icon" width="128px" height="128.00px" viewBox="0 0 1024 1024" version="1.1" xmlns="http://www.w3.org/2000/svg"><path d="M229.694 156.446l276.6 297.944-31.246 29.008-276.6-297.944z" fill="#434A54" /><path d="M128.3 170.924c0 94.208 76.346 170.552 170.538 170.552 94.176 0 170.524-76.346 170.524-170.552C469.362 76.746 393.016 0.4 298.838 0.4 204.646 0.4 128.3 76.746 128.3 170.924z" fill="#ED5564" /><path d="M174.764 287.926c31.1 32.944 75.174 53.55 124.074 53.55 49.43 0 93.942-21.044 125.09-54.676v-22.952a30.444 30.444 0 0 0-19.204-18.89l-0.954-0.282c-13.724-3.684-18.36-7.212-24.464-9.524-21.686-8.276-27.322-14.208-28.758-17.018-0.046-0.124-0.094-0.218-0.14-0.312l-0.172-25.2-51.398-0.562-51.398 0.562-0.186 25.2c-0.046 0.094-0.078 0.188-0.124 0.312-1.452 2.81-7.088 8.742-28.758 17.018-6.12 2.31-10.758 5.84-24.482 9.524l-0.936 0.282a30.47 30.47 0 0 0-18.188 16.33v26.638z" fill="#48CFAD" /><path d="M227.518 162.586c0 46.338 44.168 88.96 71.32 88.96 27.136 0 71.32-42.624 71.32-88.96 0-46.34-31.944-76.908-71.32-76.908-39.39 0-71.32 30.568-71.32 76.908z" fill="#EAC6BB" /><path d="M506.3 483.368l-31.24-29.01L751.656 156.434l31.256 29.01z" fill="#434A54" /><path d="M916.996 575.952v-106.574c0-23.542-19.048-42.654-42.592-42.654H106.988c-23.544 0-42.638 19.112-42.638 42.654v106.574h852.646z" fill="#E6E9ED" /><path d="M789.096 1023.6H64.35V512h852.646V915.686z" fill="#F5F7FA" /><path d="M149.612 469.376c0 11.772-9.54 21.296-21.312 21.296-11.772 0-21.312-9.526-21.312-21.296s9.54-21.326 21.312-21.326c11.772 0 21.312 9.556 21.312 21.326z" fill="#ED5564" /><path d="M213.56 469.376c0 11.772-9.54 21.296-21.31 21.296-11.772 0-21.312-9.526-21.312-21.296s9.54-21.326 21.312-21.326c11.772 0 21.31 9.556 21.31 21.326z" fill="#FFCE54" /><path d="M277.51 469.376c0 11.772-9.54 21.296-21.312 21.296-11.772 0-21.312-9.526-21.312-21.296s9.54-21.326 21.312-21.326c11.774 0 21.312 9.556 21.312 21.326zM149.612 895.702h319.75V1023.6H149.612zM789.096 1023.6H512v-127.898h319.75z" fill="#A0D468" /><path d="M149.612 597.278h682.138v255.8H149.612z" fill="#48CFAD" /><path d="M682.552 703.85H298.838c-11.772 0-21.328 9.554-21.328 21.328 0 11.772 9.556 21.294 21.328 21.294h383.714c11.742 0 21.296-9.524 21.296-21.294 0.002-11.774-9.554-21.328-21.296-21.328z" fill="#434A54" /><path d="M947.222 789.126c-25.292-62.514-86.556-106.604-158.126-106.604-71.54 0-132.802 44.09-158.124 106.604h-12.242v57.268a157.466 157.466 0 0 0-0.124 6.684c0 2.216 0.032 4.464 0.124 6.682 3.498 91.084 78.44 163.84 170.368 163.84 91.96 0 166.902-72.756 170.43-163.84h0.124v-70.632h-12.43z" fill="#F6BB42" /><path d="M959.65 789.126c0 94.176-76.348 170.524-170.554 170.524-94.176 0-170.492-76.348-170.492-170.524s76.316-170.554 170.492-170.554c94.206 0 170.554 76.38 170.554 170.554z" fill="#FFCE54" /><path d="M789.096 703.85c-11.742 0-21.296 9.554-21.296 21.328v127.9c0 11.772 9.554 21.294 21.296 21.294 11.804 0 21.36-9.524 21.36-21.294v-127.9c0-11.774-9.556-21.328-21.36-21.328z" fill="#E8AA3D" /><path d="M512 170.924c0 94.208 76.346 170.552 170.552 170.552 94.178 0 170.492-76.346 170.492-170.552C853.044 76.746 776.73 0.4 682.552 0.4 588.346 0.4 512 76.746 512 170.924z" fill="#A0D468" /><path d="M558.462 287.926c31.102 32.944 75.192 53.55 124.09 53.55 49.4 0 93.928-21.044 125.09-54.676v-22.952a30.528 30.528 0 0 0-19.234-18.89l-0.938-0.282c-13.738-3.684-18.36-7.212-24.48-9.524-21.67-8.276-27.29-14.208-28.726-17.018-0.062-0.124-0.124-0.218-0.156-0.312l-0.156-25.2-51.398-0.562-51.396 0.562-0.186 25.2c-0.062 0.094-0.094 0.188-0.156 0.312-1.438 2.81-7.09 8.742-28.76 17.018-6.12 2.31-10.742 5.84-24.482 9.524l-0.936 0.282a30.488 30.488 0 0 0-18.174 16.33v26.638z" fill="#5D9CEC" /><path d="M611.234 162.586c0 46.338 44.154 88.96 71.318 88.96 27.106 0 71.32-42.624 71.32-88.96 0-46.34-31.974-76.908-71.32-76.908-39.406 0-71.318 30.568-71.318 76.908z" fill="#EAC6BB" /></svg>