<?xml version="1.0" standalone="no"?><!DOCTYPE svg PUBLIC "-//W3C//DTD SVG 1.1//EN" "http://www.w3.org/Graphics/SVG/1.1/DTD/svg11.dtd"><svg class="icon" width="128px" height="128.00px" viewBox="0 0 1024 1024" version="1.1" xmlns="http://www.w3.org/2000/svg"><path d="M959.992 85.328H64.008c-11.782 0-21.328 9.562-21.328 21.344v554.632c0 11.812 9.546 21.376 21.328 21.376h895.984c11.782 0 21.312-9.562 21.312-21.376V106.672c0-11.782-9.53-21.344-21.312-21.344z" fill="#48CFAD" /><path d="M1002.68 682.68H21.338c-11.782 0-21.328-9.562-21.328-21.376 0-11.75 9.546-21.312 21.328-21.312H1002.68c11.75 0 21.31 9.562 21.31 21.312 0 11.814-9.56 21.376-21.31 21.376z" fill="#434A54" /><path d="M341.332 554.68c-45.578 0-88.436-17.766-120.67-50.014-32.234-32.218-49.982-75.078-49.982-120.67s17.748-88.452 49.982-120.686c32.234-32.234 75.092-49.984 120.67-49.984 45.594 0 88.452 17.75 120.686 50C494.25 295.542 512 338.402 512 383.996c0 45.592-17.75 88.436-49.982 120.67-32.234 32.248-75.092 50.014-120.686 50.014z m0-298.682c-34.188 0-66.328 13.312-90.498 37.484-24.188 24.188-37.5 56.328-37.5 90.514s13.312 66.326 37.5 90.514c24.17 24.172 56.31 37.484 90.498 37.484s66.342-13.312 90.514-37.484c24.172-24.188 37.484-56.328 37.484-90.514s-13.312-66.328-37.484-90.514c-24.172-24.174-56.326-37.484-90.514-37.484zM507.266 218.06c-8.328-8.328-21.842-8.328-30.17 0s-8.328 21.842 0 30.17c8.344 8.328 21.842 8.328 30.17 0s8.328-21.842 0-30.17z" fill="#F5F7FA" /><path d="M446.924 278.402c-8.328-8.328-21.828-8.328-30.156 0-8.344 8.328-8.344 21.844 0 30.172 8.328 8.328 21.828 8.328 30.156 0 8.344-8.328 8.344-21.844 0-30.172zM386.598 338.746c-8.344-8.328-21.844-8.328-30.172 0s-8.328 21.828 0 30.172c8.328 8.328 21.844 8.328 30.172 0 8.328-8.344 8.328-21.844 0-30.172zM326.254 399.074c-8.328-8.328-21.844-8.328-30.172 0-8.328 8.342-8.328 21.842 0 30.17 8.328 8.344 21.844 8.344 30.172 0 8.328-8.328 8.328-21.828 0-30.17zM265.91 459.416c-8.326-8.328-21.842-8.328-30.17 0s-8.328 21.844 0 30.172c8.344 8.328 21.844 8.328 30.17 0 8.328-8.33 8.328-21.83 0-30.172zM205.568 519.758c-8.328-8.328-21.828-8.328-30.154 0-8.344 8.328-8.344 21.844 0 30.172 8.326 8.312 21.826 8.312 30.154 0 8.344-8.328 8.344-21.844 0-30.172zM832.37 341.324H619.062c-11.812 0-21.344-9.546-21.344-21.328s9.532-21.328 21.344-21.328h213.306c11.782 0 21.344 9.546 21.344 21.328s-9.562 21.328-21.342 21.328zM831.994 426.666H618.688c-11.812 0-21.376-9.562-21.376-21.342s9.562-21.328 21.376-21.328h213.306c11.782 0 21.312 9.546 21.312 21.328 0 11.78-9.53 21.342-21.312 21.342z" fill="#F5F7FA" /><path d="M725.714 511.994H618.28c-11.782 0-21.344-9.546-21.344-21.328s9.562-21.344 21.344-21.344h107.434c11.782 0 21.344 9.562 21.344 21.344s-9.562 21.328-21.344 21.328z" fill="#F5F7FA" /><path d="M192.006 710.676c-82.342 0-149.326 66.968-149.326 149.312v57.308c0 11.812 9.546 21.376 21.328 21.376h255.996c11.782 0 21.328-9.562 21.328-21.376v-57.308c0-82.344-66.984-149.312-149.326-149.312z" fill="#5D9CEC" /><path d="M512 710.676c-82.342 0-149.324 66.968-149.324 149.312v57.308c0 11.812 9.546 21.376 21.328 21.376H640c11.78 0 21.31-9.562 21.31-21.376v-57.308c0-82.344-66.966-149.312-149.31-149.312z" fill="#ED5564" /><path d="M831.994 710.676c-82.342 0-149.308 66.968-149.308 149.312v57.308c0 11.812 9.532 21.376 21.312 21.376h255.994c11.782 0 21.312-9.562 21.312-21.376v-57.308c0-82.344-66.966-149.312-149.31-149.312z" fill="#A0D468" /><path d="M190.49 597.304c-58.81 0-106.67 47.876-106.67 106.684 0 58.812 47.86 106.688 106.67 106.688 58.812 0 106.67-47.876 106.67-106.688 0-58.808-47.858-106.684-106.67-106.684zM510.484 597.304c-58.81 0-106.67 47.876-106.67 106.684 0 58.812 47.86 106.688 106.67 106.688 58.828 0 106.672-47.876 106.672-106.688 0-58.808-47.844-106.684-106.672-106.684zM830.494 597.304c-58.812 0-106.686 47.876-106.686 106.684 0 58.812 47.874 106.688 106.686 106.688s106.656-47.876 106.656-106.688c0-58.808-47.844-106.684-106.656-106.684z" fill="#EAC6BB" /></svg>