<?xml version="1.0" standalone="no"?><!DOCTYPE svg PUBLIC "-//W3C//DTD SVG 1.1//EN" "http://www.w3.org/Graphics/SVG/1.1/DTD/svg11.dtd"><svg class="icon" width="128px" height="128.00px" viewBox="0 0 1024 1024" version="1.1" xmlns="http://www.w3.org/2000/svg"><path d="M23.322 87.32s-212.12 806.076 643.424 643.454C829.368-124.8 23.322 87.32 23.322 87.32z" fill="#F6BB42" /><path d="M47.946 81.772c-15.716 3.204-24.624 5.546-24.624 5.546s-212.12 806.076 643.424 643.454a1265.896 1265.896 0 0 0 4.624-25.562C-66.738 831.992 21.01 214.302 47.946 81.772z" opacity=".1" /><path d="M62.68 105.334c0 11.782-9.546 21.328-21.326 21.328-11.782 0-21.344-9.546-21.344-21.328s9.562-21.328 21.344-21.328c11.778 0 21.326 9.548 21.326 21.328z" fill="#434A54" /><path d="M256.004 597.308c0 11.782-9.546 21.344-21.328 21.344-11.78 0-21.342-9.562-21.342-21.344s9.562-21.312 21.342-21.312c11.782 0 21.328 9.532 21.328 21.312zM298.676 639.996c0 11.782-9.562 21.312-21.344 21.312s-21.328-9.532-21.328-21.312 9.546-21.344 21.328-21.344 21.344 9.562 21.344 21.344zM341.332 597.308c0 11.782-9.546 21.344-21.328 21.344s-21.328-9.532-21.328-21.344c0-11.782 9.546-21.312 21.328-21.312s21.328 9.532 21.328 21.312z" opacity=".1" /><path d="M703.996 938.644c-79.782 0-154.78-31.062-211.168-87.464-56.422-56.406-87.482-131.406-87.482-211.184 0-79.782 31.06-154.778 87.482-211.2 56.388-56.406 131.386-87.466 211.168-87.466 79.778 0 154.778 31.06 211.184 87.466 56.402 56.422 87.464 131.418 87.464 211.2 0 79.778-31.062 154.778-87.464 211.184-56.406 56.402-131.406 87.464-211.184 87.464z" fill="#E6E9ED" /><path d="M703.996 319.988c-176.714 0-319.978 143.262-319.978 320.008 0 176.714 143.264 319.992 319.978 319.992s319.992-143.278 319.992-319.992c0-176.746-143.278-319.992-319.992-320.008z m196.09 516.098c-25.468 25.468-55.124 45.496-88.156 59.434-34.154 14.468-70.466 21.782-107.934 21.782s-73.782-7.312-107.938-21.782c-32.998-13.938-62.668-33.964-88.152-59.434s-45.484-55.156-59.454-88.156c-14.438-34.188-21.766-70.496-21.766-107.934 0-37.468 7.328-73.782 21.766-107.954 13.968-33.012 33.968-62.668 59.454-88.152s55.154-45.484 88.152-59.454c34.156-14.454 70.468-21.782 107.938-21.782 37.466 0 73.78 7.328 107.934 21.782 33.032 13.968 62.688 33.968 88.156 59.454 25.498 25.484 45.498 55.14 59.466 88.152 14.436 34.172 21.78 70.484 21.78 107.954 0 37.438-7.344 73.746-21.78 107.934-13.968 33-33.968 62.688-59.466 88.156z" fill="#FFCE54" /><path d="M703.996 874.644c-129.404 0-234.652-105.278-234.652-234.648 0-129.404 105.248-234.668 234.652-234.668 129.402 0 234.65 105.264 234.65 234.668 0 129.372-105.248 234.648-234.65 234.648z" fill="#FFCE54" /><path d="M703.996 383.984c-141.374 0-255.98 114.624-255.98 256.012 0 141.372 114.608 255.992 255.98 255.992 141.372 0 255.994-114.622 255.994-255.992 0-141.386-114.622-256.012-255.994-256.012z m21.344 43.72c41.874 4.124 81.152 20.406 113.684 47.094l-113.684 113.7v-160.794z m-42.688 160.792l-113.686-113.7c32.56-26.688 71.81-42.968 113.686-47.094v160.794z m-30.156 30.156h-160.762c4.124-41.876 20.39-81.156 47.078-113.684l113.684 113.684z m0 42.656l-113.684 113.684c-26.688-32.532-42.954-71.782-47.078-113.684h160.762z m30.156 30.188v160.778c-41.876-4.124-81.124-20.406-113.686-47.094l113.686-113.684z m42.688 0l113.684 113.684c-32.532 26.688-71.81 42.968-113.684 47.094v-160.778z m30.154-30.188h160.778c-4.124 41.902-20.404 81.152-47.092 113.684l-113.686-113.684z m0-42.656l113.686-113.684c26.688 32.528 42.968 71.808 47.092 113.684h-160.778z" fill="#F6BB42" /><path d="M746.65 639.996c0 23.562-19.092 42.656-42.654 42.656s-42.656-19.094-42.656-42.656 19.094-42.688 42.656-42.688 42.654 19.126 42.654 42.688zM895.96 554.652c0 11.782-9.532 21.344-21.312 21.344s-21.344-9.562-21.344-21.344 9.562-21.328 21.344-21.328c11.782-0.016 21.312 9.548 21.312 21.328zM682.652 767.992c0 11.782-9.562 21.312-21.344 21.312s-21.312-9.532-21.312-21.312 9.532-21.344 21.312-21.344 21.344 9.562 21.344 21.344z" fill="#E6E9ED" /><path d="M703.996 319.988c-14.468 0-28.688 0.984-42.656 2.844 156.528 20.858 277.306 154.886 277.306 317.164 0 162.246-120.78 296.274-277.306 317.148a325.564 325.564 0 0 0 42.656 2.844c176.714 0 319.992-143.278 319.992-319.992 0-176.746-143.278-319.992-319.992-320.008z" fill="#FFFFFF" opacity=".2" /></svg>