<?xml version="1.0" standalone="no"?><!DOCTYPE svg PUBLIC "-//W3C//DTD SVG 1.1//EN" "http://www.w3.org/Graphics/SVG/1.1/DTD/svg11.dtd"><svg class="icon" width="128px" height="128.00px" viewBox="0 0 1024 1024" version="1.1" xmlns="http://www.w3.org/2000/svg"><path d="M767.932 639.988c0 23.562-19.124 42.688-42.688 42.688s-42.654-19.124-42.654-42.688 19.092-42.686 42.654-42.686 42.688 19.124 42.688 42.686zM895.93 554.678c0 23.562-19.124 42.624-42.686 42.624s-42.656-19.062-42.656-42.624c0-23.576 19.094-42.67 42.656-42.67 23.56 0 42.686 19.094 42.686 42.67z" fill="#FFCE54" /><path d="M1023.988 575.99c0 11.812-9.562 21.312-21.31 21.312-11.812 0-21.376-9.5-21.376-21.312 0-11.75 9.562-21.312 21.376-21.312 11.748 0 21.31 9.562 21.31 21.312z" fill="#ED5564" /><path d="M981.302 405.322c0 11.782-9.532 21.344-21.31 21.344-11.782 0-21.312-9.562-21.312-21.344s9.532-21.312 21.312-21.312c11.78 0 21.31 9.532 21.31 21.312z" fill="#EC87C0" /><path d="M682.684 533.32c0 11.794-9.562 21.358-21.374 21.358-11.75 0-21.312-9.562-21.312-21.358 0-11.782 9.562-21.312 21.312-21.312 11.812 0 21.374 9.532 21.374 21.312z" fill="#AC92EB" /><path d="M789.244 405.322v-21.312c0-11.782-9.532-21.344-21.312-21.344s-21.344 9.562-21.344 21.344v21.312c-11.782 0-21.344 9.562-21.344 21.344s9.562 21.342 21.344 21.342v21.312c0 11.782 9.562 21.344 21.344 21.344s21.312-9.562 21.312-21.344v-21.312c11.812 0 21.344-9.562 21.344-21.342s-9.532-21.344-21.344-21.344z" fill="#FC6E51" /><path d="M704.588 741.424l-2.844-0.876c-41.558-11.124-55.622-21.876-74.122-28.876-65.624-25.06-82.716-43.06-87.076-51.56-0.156-0.312-0.282-0.624-0.422-0.938l-0.546-76.248-155.636-1.75-155.654 1.75-0.532 76.248c-0.14 0.312-0.266 0.624-0.422 0.938-4.376 8.5-21.436 26.5-87.076 51.56-18.5 7-32.546 17.75-74.108 28.876l-2.86 0.876c-37.828 12.5-63.28 47.56-63.28 87.124v110.122h767.858v-110.122c0.002-39.564-25.436-74.624-63.28-87.124z" fill="#8CC153" /><path d="M599.904 446.26c0 140.292-133.778 269.476-215.962 269.476-82.202 0-215.98-129.184-215.98-269.476 0-140.342 96.7-232.932 215.98-232.932 119.278 0 215.962 92.59 215.962 232.932z" fill="#EAC6BB" /><path d="M326.082 795.546c-8.328 8.376-8.328 21.876 0 30.19 8.344 8.312 21.844 8.312 30.172 0 8.344-8.314 8.344-21.814 0-30.19-8.328-8.312-21.828-8.312-30.172 0zM326.082 859.546c-8.328 8.376-8.328 21.876 0 30.188 8.344 8.312 21.844 8.312 30.172 0 8.344-8.312 8.344-21.812 0-30.188-8.328-8.312-21.828-8.312-30.172 0z" fill="#FFCE54" /><path d="M583.936 296.168c-53.624-10-124.652-15.5-199.994-15.5s-146.388 5.5-200.012 15.5c-68.232 12.718-98.654 30.436-98.654 57.498s30.42 44.812 98.654 57.5c53.624 10 124.668 15.5 200.012 15.5 75.342 0 146.372-5.5 199.994-15.5 68.25-12.688 98.654-30.436 98.654-57.5s-30.404-44.78-98.654-57.498z" fill="#8CC153" /><path d="M566.124 133.392c-35.888-31.876-97.184-48.062-182.182-48.062-85.014 0-146.294 16.186-182.168 48.062-30.298 26.936-31.172 55.436-31.172 58.622v149.402l14.124 5.062c4.61 1.656 49.39 16.188 199.214 16.188 149.808 0 194.588-14.532 199.182-16.188l14.124-5.062V192.014c0.002-3.186-0.872-31.686-31.122-58.622z" fill="#A0D468" /><path d="M383.942 320.01c-149.826 0-194.606-14.53-199.214-16.186l-14.124-5.094v42.686l14.124 5.062c4.61 1.656 49.39 16.188 199.214 16.188 149.808 0 194.588-14.532 199.182-16.188l14.124-5.062v-42.686l-14.124 5.094c-4.594 1.656-49.374 16.186-199.182 16.186z" fill="#FFCE54" /><path d="M362.628 938.67h42.656v-175.998h-42.656z" opacity=".1" /><path d="M905.492 652.3l-5.75-12.312h-265.12l-5.75 12.312c-2.624 5.562-63.624 138.058-10.188 222.122 27.094 42.624 77.06 64.248 148.496 64.248 71.438 0 121.436-21.624 148.498-64.248 53.468-84.062-7.56-216.558-10.186-222.122z" fill="#656D78" /><path d="M177.414 512.008c-12.468 14.75 122.044 255.976 206.434 255.976 84.374 0 219.432-240.914 206.62-255.976 0 0-51.966 127.98-206.634 127.98-154.67 0-206.42-127.98-206.42-127.98z" fill="#FC6E51" /><path d="M907.524 682.676H626.874c-11.812 0-21.344-9.562-21.344-21.376 0-11.75 9.532-21.312 21.344-21.312h280.65c11.782 0 21.344 9.562 21.344 21.312 0 11.814-9.564 21.376-21.344 21.376z" fill="#434A54" /></svg>