<?xml version="1.0" standalone="no"?><!DOCTYPE svg PUBLIC "-//W3C//DTD SVG 1.1//EN" "http://www.w3.org/Graphics/SVG/1.1/DTD/svg11.dtd"><svg class="icon" width="128px" height="128.00px" viewBox="0 0 1024 1024" version="1.1" xmlns="http://www.w3.org/2000/svg"><path d="M362.41 217.484c-23.328-2.594-58.388 5.906-77.904 18.936L35.512 402.416c-19.532 13-35.5 42.876-35.5 66.312v512.004c0 23.436 19.204 42.686 42.672 42.686h938.62c23.5 0 42.686-19.25 42.686-42.686V468.728c0-23.436-15.966-53.312-35.498-66.312l-171.808-114.528c-19.498-13.03-54.56-25.812-77.904-28.406l-376.37-41.998z" fill="#FFCE54" /><path d="M738.808 259.482l-188.214-21-188.184-21c-23.312-2.594-58.342 5.906-77.874 18.906l-124.53 83.03-124.496 82.998c-11.876 7.906-22.422 22.062-28.876 37.188l504.582 331.82 505.738-332.79c-6.466-14.782-16.842-28.468-28.466-36.218l-85.904-57.28-85.966-57.28c-19.496-12.998-54.496-25.78-77.81-28.374z" fill="#F6BB42" /><path d="M192.008 852.734H106.682c-11.782 0-21.328-9.562-21.328-21.312 0-11.812 9.546-21.374 21.328-21.374h85.326c11.782 0 21.344 9.56 21.344 21.374 0 11.75-9.562 21.312-21.344 21.312zM362.676 938.044H106.682c-11.782 0-21.328-9.562-21.328-21.312 0-11.812 9.546-21.31 21.328-21.31h255.994c11.782 0 21.328 9.498 21.328 21.31 0 11.75-9.546 21.312-21.328 21.312z" fill="#434A54" /><path d="M895.992 518.226L511.046 771.424 127.994 519.414V0.582h597.314l170.684 170.684z" fill="#E6E9ED" /><path d="M725.308 171.266h170.684L725.308 0.582z" fill="#CCD1D9" /><path d="M448.048 512.57h128.014v127.98h-128.014z" fill="#7F4545" /><path d="M320.006 555.242L512 213.92l191.996 341.322z" fill="#8CC153" /><path d="M362.722 384.574l149.324-298.65 149.328 298.65z" fill="#A0D468" /><path d="M558.75 750.048c-11.75-13.062-28.75-21.312-47.704-21.312-18.952 0-35.966 8.25-47.686 21.312l-16.312 21.376v21.312c0 35.374 28.656 63.998 63.998 63.998 35.328 0 64.016-28.624 64.016-63.998v-21.312l-16.312-21.376z" fill="#DA4453" /><path d="M575.062 771.424c0 35.312-28.688 63.998-64.016 63.998-35.342 0-63.998-28.686-63.998-63.998 0-35.376 28.656-63.998 63.998-63.998 35.33 0 64.016 28.622 64.016 63.998z" fill="#ED5564" /></svg>