<?xml version="1.0" standalone="no"?><!DOCTYPE svg PUBLIC "-//W3C//DTD SVG 1.1//EN" "http://www.w3.org/Graphics/SVG/1.1/DTD/svg11.dtd"><svg class="icon" width="128px" height="128.00px" viewBox="0 0 1024 1024" version="1.1" xmlns="http://www.w3.org/2000/svg"><path d="M234.67 480.024H21.362c-11.812 0-21.344 9.532-21.344 21.312v255.978c0 11.782 9.532 21.344 21.344 21.344h213.308c11.782 0 21.344-9.562 21.344-21.344V501.336c0-11.782-9.562-21.312-21.344-21.312z" fill="#FFCE54" /><path d="M234.67 480.024H21.362c-11.812 0-21.344 9.532-21.344 21.312v63.982h255.996v-63.982c0-11.782-9.562-21.312-21.344-21.312z" fill="#656D78" /><path d="M405.354 608.006h-170.684c-11.78 0-21.312-9.562-21.312-21.344V373.338a21.3 21.3 0 0 1 21.312-21.312h64c11.782 0 21.344 9.532 21.344 21.312v127.998h85.342c11.75 0 21.312 9.562 21.312 21.344v63.982c-0.002 11.782-9.564 21.344-21.314 21.344z" fill="#ED5564" /><path d="M320.012 501.336V471.18l-106.654 106.638v8.844c0 11.782 9.532 21.344 21.312 21.344h8.844l106.654-106.67h-30.156z" fill="#DA4453" /><path d="M661.35 778.658c-7.812 0-15.376-4.312-19.094-11.782L497.54 477.43c-5.282-10.532-1-23.344 9.532-28.624 10.532-5.25 23.344-1 28.626 9.562l144.714 289.416c5.282 10.532 1 23.344-9.532 28.624a21.306 21.306 0 0 1-9.53 2.25z" fill="#CCD1D9" /><path d="M490.666 693.316H234.67a21.3 21.3 0 0 1-21.312-21.312v-85.342c0-11.782 9.532-21.344 21.312-21.344h255.996c11.782 0 21.344 9.562 21.344 21.344v85.342c-0.002 11.782-9.564 21.312-21.344 21.312z" fill="#656D78" /><path d="M667.038 650.66H21.362c-11.812 0-21.344 9.562-21.344 21.344v85.31c0 11.782 9.532 21.344 21.344 21.344h645.674c11.782 0 21.344-9.562 21.344-21.344v-85.31c0-11.782-9.562-21.344-21.342-21.344z" fill="#FFCE54" /><path d="M1023.688 668.472c-1.906-11.594-12.906-19.468-24.532-17.532l-234.682 39.124L682.412 156.78c-1.782-11.656-12.688-19.624-24.312-17.844-11.656 1.782-19.656 12.688-17.844 24.344l85.312 554.63c0.032 0.032 0.032 0.094 0.032 0.124 0 0.062 0 0.094 0.032 0.124 0.032 0.312 0.124 0.562 0.188 0.876s0.094 0.624 0.188 0.938l0.282 0.938c0.094 0.314 0.188 0.624 0.282 0.906 0.124 0.312 0.25 0.624 0.376 0.906 0.094 0.312 0.218 0.594 0.344 0.876s0.312 0.594 0.468 0.876c0.124 0.282 0.25 0.532 0.406 0.782 0.156 0.312 0.344 0.594 0.532 0.876 0.156 0.25 0.312 0.5 0.468 0.718 0.188 0.282 0.406 0.562 0.624 0.844 0.156 0.188 0.312 0.438 0.5 0.624 0.218 0.282 0.468 0.532 0.718 0.782 0.156 0.216 0.344 0.404 0.532 0.592 0.25 0.25 0.5 0.5 0.782 0.718 0.188 0.188 0.376 0.376 0.562 0.532 0.282 0.25 0.562 0.438 0.844 0.656 0.218 0.156 0.406 0.344 0.624 0.468 0.282 0.218 0.594 0.406 0.906 0.594 0.218 0.156 0.406 0.282 0.656 0.406 0.312 0.188 0.624 0.344 0.938 0.532 0.25 0.094 0.468 0.25 0.688 0.344 0.344 0.156 0.688 0.312 1.062 0.438 0.218 0.094 0.406 0.188 0.624 0.282 0.406 0.156 0.812 0.25 1.188 0.376 0.218 0.062 0.406 0.156 0.594 0.188 0.468 0.156 0.938 0.25 1.438 0.344 0.124 0.032 0.25 0.062 0.406 0.094 1.218 0.218 2.5 0.344 3.782 0.344 0.156 0 0.282-0.032 0.406-0.032 0.438 0 0.844 0 1.282-0.032l0.656-0.094 0.938-0.094c0.032 0 0.062-0.032 0.094-0.032 0.062 0 0.124 0 0.156-0.032l255.994-42.654c11.622-1.94 19.464-12.94 17.528-24.566z" fill="#656D78" /><path d="M682.412 754.096l-85.31-554.66c-0.032-0.156-0.094-0.282-0.094-0.438-0.094-0.406-0.188-0.844-0.282-1.25a8.18 8.18 0 0 0-0.218-0.844 12.19 12.19 0 0 0-0.344-1.156c-0.124-0.312-0.218-0.594-0.344-0.906-0.124-0.344-0.282-0.656-0.406-1l-0.468-0.938-0.468-0.844a10.17 10.17 0 0 0-0.594-0.968c-0.156-0.25-0.344-0.5-0.5-0.75-0.218-0.312-0.468-0.624-0.688-0.938l-0.594-0.688-0.75-0.844c-0.218-0.218-0.468-0.438-0.688-0.656-0.25-0.25-0.532-0.468-0.782-0.718-0.282-0.218-0.532-0.438-0.812-0.624-0.25-0.218-0.532-0.406-0.782-0.624-0.312-0.188-0.594-0.376-0.906-0.562-0.282-0.188-0.532-0.344-0.812-0.532-0.312-0.156-0.656-0.344-0.968-0.5-0.282-0.156-0.594-0.282-0.876-0.438a13.1 13.1 0 0 1-1-0.406c-0.312-0.124-0.624-0.218-0.968-0.344l-0.938-0.282a7.64 7.64 0 0 0-1.124-0.282c-0.282-0.062-0.562-0.124-0.876-0.188l-1.218-0.188-0.876-0.094a16.388 16.388 0 0 0-1.282-0.062c-0.156 0-0.282-0.032-0.438-0.032h-341.34c-11.78 0-21.312 9.562-21.312 21.344V720.44c0 11.78 9.532 21.31 21.312 21.31 11.782 0 21.344-9.532 21.344-21.31V224.03h301.684l82.558 536.536a21.312 21.312 0 0 0 21.062 18.094c1.062 0 2.156-0.094 3.25-0.25 11.66-1.784 19.66-12.69 17.848-24.314z" fill="#E6E9ED" /><path d="M64.018 522.68c11.782 0 21.342-9.562 21.342-21.344v-21.312H42.674v21.312c0 11.782 9.562 21.344 21.344 21.344zM149.36 522.68c11.75 0 21.312-9.562 21.312-21.344v-21.312H128.016v21.312c0 11.782 9.53 21.344 21.344 21.344zM476.916 505.21a21.294 21.294 0 0 1-17.656-9.376c-6.624-9.718-4.094-23 5.656-29.624l67.468-45.842c9.75-6.624 23.032-4.094 29.656 5.656 6.594 9.75 4.062 22.998-5.656 29.624l-67.5 45.876a21.4 21.4 0 0 1-11.968 3.686zM661.318 629.316c-70.56 0-127.996 57.438-127.996 127.998 0 70.594 57.436 127.998 127.996 127.998 70.594 0 127.998-57.404 127.998-127.998 0-70.56-57.404-127.998-127.998-127.998z" fill="#434A54" /><path d="M704.006 757.314c0 23.562-19.124 42.688-42.688 42.688s-42.654-19.124-42.654-42.688 19.092-42.654 42.654-42.654 42.688 19.092 42.688 42.654z" fill="#F5F7FA" /><path d="M192.014 629.316c-70.592 0-127.998 57.438-127.998 127.998 0 70.594 57.406 127.998 127.998 127.998 70.562 0 127.998-57.404 127.998-127.998 0-70.56-57.436-127.998-127.998-127.998z" fill="#434A54" /><path d="M234.67 757.314c0 23.562-19.092 42.688-42.656 42.688-23.562 0-42.656-19.124-42.656-42.688s19.094-42.654 42.656-42.654c23.564 0 42.656 19.092 42.656 42.654z" fill="#F5F7FA" /></svg>