<?xml version="1.0" standalone="no"?><!DOCTYPE svg PUBLIC "-//W3C//DTD SVG 1.1//EN" "http://www.w3.org/Graphics/SVG/1.1/DTD/svg11.dtd"><svg class="icon" width="128px" height="128.00px" viewBox="0 0 1024 1024" version="1.1" xmlns="http://www.w3.org/2000/svg"><path d="M831.996 959.982c0 23.562-19.124 42.686-42.686 42.686h-554.62c-23.56 0-42.67-19.124-42.67-42.686V64.016c0-23.562 19.11-42.67 42.67-42.67h554.622c23.562 0 42.686 19.11 42.686 42.67v895.966z" fill="#FFCE54" /><path d="M789.31 1023.98h-554.62c-35.294 0-63.998-28.688-63.998-63.998V64.016C170.692 28.72 199.396 0.018 234.69 0.018h554.622c35.31 0 63.998 28.702 63.998 63.998v895.966c-0.002 35.31-28.688 63.998-64 63.998zM234.69 42.69c-11.764 0-21.342 9.562-21.342 21.328v895.966c0 11.75 9.578 21.312 21.342 21.312h554.622c11.782 0 21.376-9.562 21.376-21.312V64.016c0-11.764-9.594-21.328-21.376-21.328H234.69z" fill="#F6BB42" /><path d="M527.086 91.594c8.344 8.328 8.344 21.844 0 30.17-8.328 8.328-21.828 8.328-30.156 0-8.344-8.326-8.344-21.842 0-30.17 8.328-8.328 21.828-8.328 30.156 0zM527.086 902.234c8.344 8.312 8.344 21.842 0 30.186-8.328 8.312-21.828 8.312-30.156 0-8.344-8.344-8.344-21.874 0-30.186 8.328-8.312 21.828-8.312 30.156 0zM405.34 277.336h213.352V512H405.34z" fill="#434A54" /><path d="M405.34 512h213.352v234.678H405.34z" fill="#656D78" /><path d="M405.34 703.992h213.352v42.686H405.34z" fill="#434A54" /><path d="M640.002 789.3H384.012c-11.782 0-21.328-9.53-21.328-21.31V256.008c0-11.78 9.546-21.328 21.328-21.328h255.99c11.782 0 21.312 9.546 21.312 21.328v511.982a21.296 21.296 0 0 1-21.312 21.31zM405.34 746.678h213.352V277.336H405.34v469.342z" fill="#F6BB42" /><path d="M512.008 448.002c-11.782 0-21.328-9.546-21.328-21.328v-85.34c0-11.78 9.546-21.328 21.328-21.328s21.328 9.546 21.328 21.328v85.34c0 11.782-9.546 21.328-21.328 21.328z" fill="#AAB2BC" /><path d="M512.008 661.304c-35.89 0-63.998-23.404-63.998-53.308s28.108-53.31 63.998-53.31c35.876 0 63.998 23.406 63.998 53.31s-28.124 53.308-63.998 53.308z m0-63.996c-13.234 0-21.328 6.938-21.328 10.688s8.094 10.688 21.328 10.688 21.328-6.938 21.328-10.688-8.094-10.688-21.328-10.688z" fill="#CCD1D9" /></svg>