<?xml version="1.0" standalone="no"?><!DOCTYPE svg PUBLIC "-//W3C//DTD SVG 1.1//EN" "http://www.w3.org/Graphics/SVG/1.1/DTD/svg11.dtd"><svg class="icon" width="128px" height="128.00px" viewBox="0 0 1024 1024" version="1.1" xmlns="http://www.w3.org/2000/svg"><path d="M533.21 1000.412c1.172 11.714-7.386 22.18-19.102 23.336-11.73 1.156-22.166-7.402-23.336-19.118-1.17-11.716 7.388-22.15 19.104-23.338 11.73-1.156 22.164 7.406 23.334 19.12z" fill="#434A54" /><path d="M690.132 250.312l-362.388 54.044c-0.75 0.124-1.5 0.25-2.25 0.438-11.418 2.906-18.338 14.496-15.464 25.898a21.31 21.31 0 0 0 23.898 15.872l362.044-54.016c0.844-0.094 1.688-0.25 2.53-0.438a21.36 21.36 0 0 0 15.464-25.93c-2.716-10.714-13.118-17.462-23.834-15.868z" fill="#F6BB42" /><path d="M690.132 333.474L327.744 387.52a19 19 0 0 0-2.25 0.438c-11.418 2.876-18.338 14.464-15.464 25.898 2.374 9.404 10.636 15.714 19.836 16.09 21.932 14.496 37.786 35.832 47.22 63.606 8.418 24.776 8.356 45.548 8.356 45.736l21.322 0.25 21.322 0.312c0.062-3.406 0.36-67.73-43.018-117.778l240.676-35.894c-12.09 18.37-20.462 40.018-24.804 64.542-6.936 38.958-1.156 71.696-0.906 73.07l41.988-7.558c-0.062-0.25-4.75-27.618 1.124-59.232 7.308-39.55 27.302-67.542 59.386-83.224 8.964-4.282 13.964-14.434 11.434-24.432-2.716-10.716-13.118-17.494-23.834-15.87zM690.132 166.932l-362.388 54.044a19 19 0 0 0-2.25 0.438c-11.418 2.876-18.338 14.464-15.464 25.898 2.718 10.748 13.152 17.496 23.898 15.872l362.044-54.016a18.066 18.066 0 0 0 2.53-0.468c11.436-2.874 18.34-14.494 15.464-25.898-2.716-10.716-13.118-17.496-23.834-15.87z" fill="#FECD57" /><path d="M333.93 180.022l362.044-54.016a18.066 18.066 0 0 0 2.53-0.468c11.436-2.874 18.34-14.462 15.464-25.898-2.718-10.714-13.122-17.462-23.836-15.87L327.744 137.814c-0.75 0.124-1.5 0.25-2.25 0.438-11.434 2.906-18.354 14.496-15.464 25.898a21.314 21.314 0 0 0 23.9 15.872z" fill="#F6BB42" /><path d="M333.93 96.61l362.044-53.984c0.844-0.124 1.688-0.25 2.53-0.468 11.436-2.874 18.34-14.494 15.464-25.898A21.32 21.32 0 0 0 690.132 0.39L327.744 54.436a21.304 21.304 0 0 0-17.714 26.334c2.72 10.748 13.154 17.496 23.9 15.84z" fill="#FECD57" /><path d="M682.604 682.634c0 23.554-19.088 42.642-42.642 42.642H384.04c-23.572 0-42.66-19.088-42.66-42.642v-127.96c0-23.57 19.088-42.692 42.66-42.692h255.92c23.554 0 42.642 19.122 42.642 42.692v127.96z" fill="#CCD1D9" /><path d="M639.96 767.92l42.644-42.642v-127.962H341.38v127.962l42.66 42.642v250.174l255.92-38.208z" fill="#E6E9ED" /><path d="M388.632 848.708l252.892-37.738c0.75-0.124 1.532-0.25 2.28-0.438 11.404-2.906 18.338-14.496 15.434-25.898-2.718-10.746-13.122-17.496-23.87-15.872l-252.906 37.77c-0.75 0.094-1.5 0.218-2.25 0.438-11.418 2.876-18.338 14.464-15.448 25.898 2.702 10.748 13.136 17.498 23.868 15.84zM635.368 937.494l-252.906 37.77a19 19 0 0 0-2.25 0.438c-11.418 2.876-18.338 14.496-15.464 25.898 2.718 10.746 13.136 17.494 23.882 15.872l252.922-37.772c0.75-0.094 1.5-0.25 2.216-0.436 11.436-2.876 18.338-14.464 15.464-25.898-2.714-10.748-13.148-17.496-23.864-15.872zM635.368 853.144l-252.906 37.738c-0.75 0.124-1.5 0.25-2.25 0.438-11.418 2.904-18.338 14.496-15.464 25.898 2.718 10.748 13.136 17.526 23.882 15.87l252.892-37.738c0.75-0.124 1.5-0.25 2.248-0.468 11.436-2.874 18.338-14.464 15.464-25.898-2.716-10.716-13.15-17.496-23.866-15.84z" fill="#CCD1D9" /></svg>