<?xml version="1.0" standalone="no"?><!DOCTYPE svg PUBLIC "-//W3C//DTD SVG 1.1//EN" "http://www.w3.org/Graphics/SVG/1.1/DTD/svg11.dtd"><svg class="icon" width="128px" height="128.00px" viewBox="0 0 1024 1024" version="1.1" xmlns="http://www.w3.org/2000/svg"><path d="M512 74.936c-11.774 0-21.314 9.556-21.314 21.33v46.626h42.628V96.266c0-11.774-9.54-21.33-21.314-21.33z" fill="#434A54" /><path d="M639.856 240.706C637.294 172.28 581.02 117.596 512 117.596c-70.642 0-127.902 58.15-127.902 128.792l-42.66 617.386h341.14l-42.722-623.068z" fill="#E6E9ED" /><path d="M384.098 246.388l-8.776 127.042h273.652l-9.12-132.726C637.294 172.28 581.02 117.596 512 117.596c-70.642 0-127.902 58.15-127.902 128.792z" fill="#FFCE54" /><path d="M955.06 827.08c-16.396 10.898-37.382 16.926-59.12 16.926-21.796 0-42.786-6.028-59.148-16.926l-56.964-37.976c-1.342-0.906-5.558-2.624-11.804-2.624-6.308 0-10.492 1.716-11.868 2.624l-56.962 37.976c-16.366 10.898-37.352 16.926-59.088 16.926-21.796 0-42.786-6.028-59.148-16.926l-56.964-37.976c-1.344-0.906-5.542-2.624-11.82-2.624s-10.478 1.716-11.836 2.624l-56.964 37.976c-16.364 10.898-37.35 16.926-59.118 16.926s-42.77-6.028-59.134-16.926l-56.964-37.976c-1.342-0.906-5.542-2.624-11.82-2.624s-10.478 1.716-11.836 2.624L187.536 827.08c-16.364 10.898-37.352 16.926-59.118 16.926-21.768 0-42.77-6.028-59.134-16.926L12.32 789.104c-1.342-0.906-5.558-2.624-11.82-2.624v162.584h1023.172V786.48c-6.184 0.062-10.304 1.716-11.68 2.624L955.06 827.08z" fill="#4A89DC" /><path d="M0.328 799.848c0.062 0 0.11-0.032 0.172-0.032 6.262 0 10.478 1.716 11.82 2.592l56.964 37.974c16.364 10.932 37.366 16.928 59.134 16.928 21.766 0 42.754-5.996 59.118-16.928l56.964-37.974c1.358-0.876 5.558-2.592 11.836-2.592s10.478 1.716 11.82 2.592l56.964 37.974c16.364 10.932 37.366 16.928 59.134 16.928s42.754-5.996 59.118-16.928l56.964-37.974c1.358-0.876 5.558-2.592 11.836-2.592s10.476 1.716 11.82 2.592l56.964 37.974c16.364 10.932 37.352 16.928 59.148 16.928 21.736 0 42.722-5.996 59.088-16.928l56.962-37.974c1.376-0.876 5.558-2.592 11.868-2.592 6.246 0 10.462 1.716 11.804 2.592l56.964 37.974c16.364 10.932 37.352 16.928 59.148 16.928 21.736 0 42.722-5.996 59.12-16.928l56.932-37.974c1.376-0.876 5.496-2.56 11.68-2.56v-42.66c-12.804 0.032-25.608 3.278-35.29 9.742l-56.964 37.976c-9.774 6.496-22.64 9.744-35.476 9.744-12.868 0-25.734-3.248-35.476-9.744l-56.964-37.976c-9.774-6.496-22.64-9.742-35.476-9.742-12.868 0-25.734 3.246-35.508 9.742l-56.934 37.976c-9.774 6.496-22.64 9.744-35.476 9.744-12.868 0-25.734-3.248-35.476-9.744l-56.964-37.976c-9.774-6.496-22.64-9.742-35.492-9.742-12.866 0-25.718 3.246-35.478 9.742l-56.962 37.976c-9.76 6.496-22.626 9.744-35.478 9.744-12.868 0-25.718-3.248-35.478-9.744l-56.962-37.976c-9.76-6.496-22.626-9.742-35.478-9.742-12.868 0-25.718 3.246-35.478 9.742l-56.962 37.976c-9.76 6.496-22.626 9.744-35.478 9.744-12.868 0-25.718-3.248-35.478-9.744l-56.964-37.976c-9.758-6.496-22.626-9.742-35.476-9.742H0.33v42.66z" fill="#5D9CEC" /><path d="M448.806 298.792h42.644v63.958h-42.644zM532.55 298.792h42.66v63.958h-42.66z" fill="#434A54" /><path d="M661.216 266.812H362.768c-11.774 0-21.33 9.556-21.33 21.33s9.556 21.33 21.33 21.33h298.45c11.806 0 21.362-9.556 21.362-21.33-0.002-11.772-9.556-21.33-21.364-21.33z" fill="#656D78" /><path d="M810.496 373.432H746.54c-11.806 0-21.364 9.556-21.364 21.298 0 11.806 9.556 21.33 21.364 21.33h63.958c11.742 0 21.3-9.524 21.3-21.33-0.002-11.742-9.56-21.298-21.302-21.298zM746.54 288.142h63.958c11.742 0 21.3-9.524 21.3-21.33 0-11.742-9.558-21.298-21.3-21.298H746.54c-11.806 0-21.364 9.556-21.364 21.298 0 11.806 9.556 21.33 21.364 21.33zM895.754 309.472H746.54c-11.806 0-21.364 9.556-21.364 21.298 0 11.806 9.556 21.33 21.364 21.33h149.214c11.774 0 21.3-9.524 21.3-21.33 0-11.74-9.526-21.298-21.3-21.298z" fill="#FFCE54" /><path d="M277.478 373.432H213.52c-11.774 0-21.314 9.556-21.314 21.298 0 11.806 9.542 21.33 21.314 21.33h63.958c11.774 0 21.33-9.524 21.33-21.33 0-11.742-9.556-21.298-21.33-21.298zM213.52 288.142h63.958c11.774 0 21.33-9.524 21.33-21.33 0-11.742-9.556-21.298-21.33-21.298H213.52c-11.774 0-21.314 9.556-21.314 21.298 0 11.806 9.54 21.33 21.314 21.33zM277.478 309.472H128.246c-11.774 0-21.314 9.556-21.314 21.298 0 11.806 9.542 21.33 21.314 21.33h149.232c11.774 0 21.33-9.524 21.33-21.33 0-11.74-9.556-21.298-21.33-21.298z" fill="#FFCE54" /><path d="M661.216 352.102H362.768c-11.774 0-21.33 9.556-21.33 21.33s9.556 21.298 21.33 21.298h298.45c11.806 0 21.362-9.524 21.362-21.298-0.002-11.774-9.556-21.33-21.364-21.33z" fill="#656D78" /><path d="M355.506 660.092h313.082l-9.056-132.57h-294.86z" fill="#DA4453" /><path d="M354.694 671.93h314.704l-2.934-42.66h-13.492l-85.258-85.29h92.942l-2.938-42.63H366.484l-2.952 42.63h23.266l85.29 85.29h-114.442l-2.952 42.66z m92.41-127.95h60.304l85.29 85.29h-60.32l-85.274-85.29z" fill="#ED5564" /></svg>