<?xml version="1.0" standalone="no"?><!DOCTYPE svg PUBLIC "-//W3C//DTD SVG 1.1//EN" "http://www.w3.org/Graphics/SVG/1.1/DTD/svg11.dtd"><svg class="icon" width="128px" height="128.00px" viewBox="0 0 1024 1024" version="1.1" xmlns="http://www.w3.org/2000/svg"><path d="M511.996 341.334c-11.782 0-21.328-9.546-21.328-21.328V21.346c0-11.782 9.546-21.326 21.328-21.326s21.328 9.544 21.328 21.326v298.662c0 11.78-9.546 21.326-21.328 21.326z" fill="#434A54" /><path d="M511.996 1023.98c-11.782 0-21.328-9.562-21.328-21.312v-127.996c0-11.812 9.546-21.374 21.328-21.374s21.328 9.56 21.328 21.374v127.996c0 11.75-9.546 21.312-21.328 21.312zM319.988 972.544c-3.624 0-7.296-0.938-10.656-2.876-10.204-5.876-13.686-18.938-7.796-29.124l63.998-110.87c5.89-10.188 18.938-13.688 29.14-7.812 10.202 5.906 13.702 18.938 7.796 29.154l-63.998 110.84c-3.938 6.876-11.108 10.688-18.484 10.688zM179.478 831.988c-7.376 0-14.546-3.812-18.5-10.656-5.89-10.218-2.39-23.25 7.812-29.156l110.84-63.998c10.204-5.876 23.25-2.376 29.14 7.812s2.406 23.25-7.796 29.124L190.12 829.112a21.29 21.29 0 0 1-10.642 2.876zM844.516 831.988c-3.624 0-7.282-0.938-10.656-2.876l-110.84-63.998c-10.218-5.876-13.718-18.938-7.812-29.124s18.936-13.688 29.154-7.812l110.842 63.998c10.214 5.906 13.714 18.938 7.808 29.156a21.334 21.334 0 0 1-18.496 10.656zM703.988 972.544a21.296 21.296 0 0 1-18.498-10.688l-63.998-110.84c-5.876-10.216-2.376-23.248 7.81-29.154 10.218-5.876 23.25-2.376 29.156 7.812l63.998 110.87c5.904 10.188 2.404 23.25-7.812 29.124a21.222 21.222 0 0 1-10.656 2.876z" fill="#F6BB42" /><path d="M597.304 298.68h-170.632c-11.782 0-21.344 9.546-21.344 21.328v150.852c0 5.656 2.25 11.094 6.25 15.094s9.438 6.25 15.094 6.25l170.664-0.032c11.782 0 21.344-9.546 21.344-21.328v-150.836c0-11.782-9.562-21.328-21.376-21.328z" fill="#CCD1D9" /><path d="M678.272 522.67c-16.876-29.232-41.188-53.544-70.28-70.308a21.38 21.38 0 0 0-10.688-2.86l-170.648 0.032c-3.734 0-7.406 0.984-10.656 2.86-91.684 52.936-123.214 170.602-70.28 262.288 34.202 59.186 97.966 95.996 166.432 95.996h0.016c33.516 0 66.638-8.876 95.824-25.748 91.684-52.94 123.214-170.558 70.28-262.26z" fill="#F6BB42" /><path d="M678.272 522.67c-16.876-29.232-41.188-53.544-70.28-70.308a21.38 21.38 0 0 0-10.688-2.86l-42.434 0.016c3.656 0.032 7.248 1 10.436 2.844 29.124 16.764 53.436 41.076 70.308 70.308 52.938 91.702 21.376 209.32-70.308 262.258a192.218 192.218 0 0 1-74.514 24.53c7.046 0.782 14.172 1.218 21.36 1.218h0.016c33.516 0 66.638-8.876 95.824-25.748 91.684-52.938 123.214-170.556 70.28-262.258z" fill="#FFFFFF" opacity=".2" /><path d="M405.328 405.332h63.998c11.78 0 21.342-9.546 21.342-21.328 0-11.78-9.562-21.328-21.342-21.328h-63.998v42.656zM618.68 362.676h-63.996c-11.796 0-21.36 9.546-21.36 21.328s9.562 21.328 21.36 21.328h63.996v-42.656z" fill="#AAB2BC" /><path d="M554.684 533.326h-21.36v-83.808h-42.656v83.808h-21.342c-35.28 0-63.998 28.734-63.998 63.982 0 35.31 28.718 63.996 63.998 63.996h85.358c35.248 0 63.996-28.686 63.996-63.996 0-35.248-28.748-63.982-63.996-63.982zM448 597.308c0-11.748 9.562-21.31 21.326-21.31h21.342v42.686h-21.342c-11.766 0-21.326-9.594-21.326-21.376z m106.684 21.376h-21.36v-42.686h21.36c11.748 0 21.31 9.562 21.31 21.31 0 11.782-9.562 21.376-21.31 21.376z" fill="#FFCE54" /></svg>