<?xml version="1.0" standalone="no"?><!DOCTYPE svg PUBLIC "-//W3C//DTD SVG 1.1//EN" "http://www.w3.org/Graphics/SVG/1.1/DTD/svg11.dtd"><svg class="icon" width="128px" height="128.00px" viewBox="0 0 1024 1024" version="1.1" xmlns="http://www.w3.org/2000/svg"><path d="M426.682 810.566v127.96c0 47.11 38.208 85.316 85.318 85.316 47.108 0 85.316-38.208 85.316-85.316v-127.96h-170.634z" fill="#CCD1D9" /><path d="M597.316 880.45l-170.634 25.46v32.618c0 3.53 0.25 6.996 0.656 10.402l169.978-25.368v-43.112z" fill="#E6E9ED" /><path d="M426.682 661.268V64.136c0-23.524 19.15-42.674 42.674-42.674 23.494 0 42.644 19.15 42.644 42.674v597.13h-85.318zM512 661.268V64.136c0-23.524 19.12-42.674 42.644-42.674s42.672 19.15 42.672 42.674v597.13H512z" fill="#FECD57" /><path d="M554.644 0.156A63.634 63.634 0 0 0 512 16.462 63.64 63.64 0 0 0 469.356 0.156c-35.334 0-63.98 28.648-63.98 63.98v618.468h213.248V64.136c0-35.332-28.648-63.98-63.98-63.98z m-63.98 639.804H448.02V64.136c0-11.778 9.56-21.338 21.336-21.338 11.746 0 21.306 9.56 21.306 21.338V639.96z m85.316 0h-42.644V64.136c0-11.778 9.562-21.338 21.308-21.338 11.778 0 21.336 9.56 21.336 21.338V639.96z" fill="#F6BB42" /><path d="M618.624 554.644H405.376c-23.556 0-42.674 19.086-42.674 42.642v170.634l63.98 85.288h170.634l63.98-85.288v-170.634c0-23.556-19.116-42.642-42.672-42.642z" fill="#E6E9ED" /><path d="M448.052 554.644c0 1.718 0.186 3.466 0.624 5.216 2.874 11.434 14.464 18.338 25.898 15.462 9.654-2.436 16.088-11.152 16.088-20.68h-42.61zM533.336 554.644c0 1.718 0.188 3.466 0.624 5.216a21.36 21.36 0 0 0 25.93 15.462c9.656-2.436 16.058-11.152 16.058-20.68h-42.612z" fill="#CCD1D9" /></svg>