<?xml version="1.0" standalone="no"?><!DOCTYPE svg PUBLIC "-//W3C//DTD SVG 1.1//EN" "http://www.w3.org/Graphics/SVG/1.1/DTD/svg11.dtd"><svg class="icon" width="128px" height="128.00px" viewBox="0 0 1024 1024" version="1.1" xmlns="http://www.w3.org/2000/svg"><path d="M961.156 62.844c-83.248-83.248-218.206-83.248-301.452 0l-180.876 180.858c-83.248 83.248-83.248 218.236 0 301.468 83.264 83.214 218.22 83.246 301.468 0l180.858-180.876c83.25-83.248 83.25-218.204 0.002-301.45z m-60.264 241.154l-0.062 0.032-180.828 180.86c-49.93 49.93-130.93 49.93-180.876 0-49.946-49.96-49.946-130.93 0-180.89 0.016 0 0.032-0.032 0.032-0.032l180.844-180.858c49.93-49.93 130.93-49.93 180.89 0 49.962 49.96 49.962 130.928 0 180.888z" fill="#E6E9ED" /><path d="M545.17 478.83c-83.232-83.248-218.206-83.248-301.454 0l-180.874 180.844c-83.248 83.248-83.248 218.236 0 301.482 83.248 83.248 218.22 83.248 301.468 0l180.86-180.888c83.246-83.248 83.246-218.206 0-301.438z m-60.282 241.14s-0.016 0.032-0.032 0.032l-180.842 180.858c-49.946 49.93-130.928 49.93-180.874 0-49.946-49.96-49.946-130.928 0-180.888 0 0 0.016-0.032 0.032-0.032l180.842-180.844c49.946-49.93 130.928-49.93 180.874 0 49.962 49.946 49.962 130.946 0 180.874z" fill="#5D9CEC" /><path d="M662.764 361.266c-24.98-24.98-65.51-24.98-90.458 0L361.282 572.274c-24.98 24.98-24.98 65.45 0 90.43 24.964 24.98 65.464 24.98 90.43 0l211.052-211.008c24.948-24.982 24.948-65.45 0-90.43z" fill="#DA4453" /><path d="M661.204 511.992c0 82.388-66.76 149.21-149.196 149.21-82.404 0-149.212-66.822-149.212-149.21-0.016-82.404 66.808-149.226 149.212-149.226 82.436 0 149.196 66.822 149.196 149.226z" fill="#ED5564" /><path d="M575.958 511.992c0-11.646-9.338-21.078-20.922-21.296v-0.032h-21.718v-21.296c0-11.772-9.54-21.328-21.31-21.328-11.772 0-21.312 9.556-21.312 21.328v21.296h-21.328c-11.772 0-21.312 9.556-21.312 21.328s9.54 21.326 21.312 21.326h21.328V554.6c0 11.772 9.54 21.328 21.312 21.328 11.772 0 21.31-9.556 21.31-21.328v-21.282h21.718v-0.032c11.586-0.186 20.922-9.648 20.922-21.294z" fill="#F5F7FA" /></svg>