<?xml version="1.0" standalone="no"?><!DOCTYPE svg PUBLIC "-//W3C//DTD SVG 1.1//EN" "http://www.w3.org/Graphics/SVG/1.1/DTD/svg11.dtd"><svg class="icon" width="128px" height="128.00px" viewBox="0 0 1024 1024" version="1.1" xmlns="http://www.w3.org/2000/svg"><path d="M1023.986 160.01c0-11.782-9.562-21.344-21.344-21.344V96.012c11.782 0 21.344-9.562 21.344-21.342s-9.562-21.312-21.344-21.312H213.32v810.632h789.322c11.782 0 21.344-9.562 21.344-21.34 0-11.782-9.562-21.312-21.344-21.312v-42.688c11.782 0 21.344-9.532 21.344-21.308 0-11.782-9.562-21.344-21.344-21.344V693.34c11.782 0 21.344-9.562 21.344-21.344s-9.562-21.344-21.344-21.344V608c11.782 0 21.344-9.562 21.344-21.344s-9.562-21.312-21.344-21.312v-42.688c11.782 0 21.344-9.532 21.344-21.312 0-11.782-9.562-21.344-21.344-21.344v-42.656c11.782 0 21.344-9.562 21.344-21.342 0-11.782-9.562-21.344-21.344-21.344v-42.654c11.782 0 21.344-9.562 21.344-21.342 0-11.782-9.562-21.312-21.344-21.312v-42.686c11.782 0 21.344-9.53 21.344-21.312s-9.562-21.344-21.344-21.344V181.352c11.782 0 21.344-9.56 21.344-21.342z" fill="#EAAA39" /><path d="M246.85 586.656h777.136c0-11.782-9.562-21.312-21.344-21.312v-42.688c11.782 0 21.344-9.532 21.344-21.312 0-11.782-9.562-21.344-21.344-21.344v-42.656c11.782 0 21.344-9.562 21.344-21.342 0-11.782-9.562-21.344-21.344-21.344v-42.654c11.782 0 21.344-9.562 21.344-21.342H246.85v255.994z" fill="#E9573F" /><path d="M393.44 79.856c-42.748-17.094-99.122-26.5-158.776-26.5-59.624 0-116.028 9.406-158.776 26.5C26.95 99.45 0.014 127.916 0.014 160.01v703.978c0 32.124 26.936 60.562 75.874 80.156 42.75 17.094 99.154 26.5 158.776 26.5 59.656 0 116.03-9.406 158.776-26.5 48.936-19.594 75.874-48.032 75.874-80.156V160.01c0-32.094-26.938-60.56-75.874-80.154z" fill="#FFCE54" /><path d="M0.014 160.01a234.65 106.654 0 1 0 469.3 0 234.65 106.654 0 1 0-469.3 0Z" fill="#F6BB42" /><path d="M249.756 144.916c8.312 8.344 8.312 21.844 0 30.188-8.344 8.312-21.844 8.312-30.186 0-8.312-8.344-8.312-21.844 0-30.188 8.344-8.312 21.844-8.312 30.186 0z" fill="#434A54" /><path d="M234.664 504.658C105.074 504.658 0.014 456.908 0.014 398.004v227.994c0 58.906 105.06 106.656 234.65 106.656s234.65-47.75 234.65-106.656V398.002c0 58.906-105.06 106.656-234.65 106.656z" fill="#FC6E51" /></svg>