<?xml version="1.0" standalone="no"?><!DOCTYPE svg PUBLIC "-//W3C//DTD SVG 1.1//EN" "http://www.w3.org/Graphics/SVG/1.1/DTD/svg11.dtd"><svg class="icon" width="128px" height="128.00px" viewBox="0 0 1024 1024" version="1.1" xmlns="http://www.w3.org/2000/svg"><path d="M512.004 302.474C197.044 166.384 0.016 500.284 0.016 500.284c116.684 112.214 222.682 207.184 355.084 242.744 44.154 11.842 242.46 14.904 281.336 5.812 137.964-32.25 265.086-130.78 387.554-248.556 0.002 0-197.026-333.9-511.986-197.81z" fill="#ED5564" /><path d="M512.004 345.162c260.21-112.464 439.926 95.902 494.55 171.746 5.812-5.5 11.624-11.032 17.438-16.624 0 0-197.028-333.898-511.988-197.808C197.044 166.384 0.016 500.284 0.016 500.284a8078.44 8078.44 0 0 0 17.406 16.688C71.984 441.158 251.728 232.666 512.004 345.162z" fill="#FFFFFF" opacity=".2" /><path d="M1023.992 500.284c-97.968-7.062-226.464-25.656-321.836-13.25-68.906 8.968-134.032 17.438-188.746 17.438-53.124 0-112.248-8.062-174.872-16.624-93.186-12.75-219.838 6.376-338.522 12.438 116.684 112.214 222.682 207.184 355.084 242.744 44.154 11.842 242.46 14.904 281.336 5.812 137.966-32.252 265.088-130.782 387.556-248.558z" fill="#DA4453" /><path d="M338.54 530.502c62.624 8.562 121.748 16.624 174.872 16.624 54.714 0 119.84-8.468 188.746-17.438 82.308-10.718 189.274 1.656 280.024 9.812 14-12.782 27.938-25.876 41.812-39.218-97.968-7.062-226.464-25.656-321.836-13.25-68.906 8.968-134.032 17.438-188.746 17.438-53.124 0-112.248-8.062-174.872-16.624-93.186-12.75-219.838 6.376-338.522 12.438 14.186 13.624 28.186 27 42.124 40.062 105.87-7.5 214.18-21.062 296.398-9.844z" opacity=".1" /></svg>