<?xml version="1.0" standalone="no"?><!DOCTYPE svg PUBLIC "-//W3C//DTD SVG 1.1//EN" "http://www.w3.org/Graphics/SVG/1.1/DTD/svg11.dtd"><svg class="icon" width="128px" height="128.00px" viewBox="0 0 1024 1024" version="1.1" xmlns="http://www.w3.org/2000/svg"><path d="M927.982 469.258a63.886 63.886 0 0 0-31.998 8.578 64.06 64.06 0 0 0-31.998-8.578 63.88 63.88 0 0 0-31.998 8.578 64.066 64.066 0 0 0-32-8.578 63.888 63.888 0 0 0-32 8.578 64.052 64.052 0 0 0-31.998-8.578 63.886 63.886 0 0 0-31.998 8.578 64.066 64.066 0 0 0-32-8.578 63.874 63.874 0 0 0-31.996 8.578 64.06 64.06 0 0 0-31.998-8.578 63.888 63.888 0 0 0-32 8.578 64.066 64.066 0 0 0-32-8.578A63.886 63.886 0 0 0 512 477.836a64.066 64.066 0 0 0-32-8.578 63.9 63.9 0 0 0-32 8.578 64.052 64.052 0 0 0-31.998-8.578 63.888 63.888 0 0 0-32 8.578 64.066 64.066 0 0 0-32-8.578 63.894 63.894 0 0 0-32 8.578 64.06 64.06 0 0 0-31.998-8.578 63.894 63.894 0 0 0-32 8.578 64.066 64.066 0 0 0-32-8.578 63.9 63.9 0 0 0-32 8.578 64.066 64.066 0 0 0-32-8.578 63.886 63.886 0 0 0-31.998 8.578 64.066 64.066 0 0 0-32-8.578c-35.312 0-63.998 28.704-63.998 63.998s28.686 63.982 63.998 63.982a64.06 64.06 0 0 0 32-8.562 63.872 63.872 0 0 0 31.998 8.562c11.344 0 22.344-3 32-8.562a63.874 63.874 0 0 0 32 8.562c11.344 0 22.342-3 32-8.562a63.874 63.874 0 0 0 32 8.562c11.344 0 22.342-3 31.998-8.562a63.874 63.874 0 0 0 32 8.562 64.06 64.06 0 0 0 32-8.562 63.874 63.874 0 0 0 32 8.562c11.342 0 22.342-3 31.998-8.562a63.874 63.874 0 0 0 32 8.562c11.344 0 22.344-3 32-8.562a63.872 63.872 0 0 0 31.998 8.562c11.344 0 22.344-3 32-8.562a63.874 63.874 0 0 0 32 8.562c11.344 0 22.342-3 31.998-8.562a63.87 63.87 0 0 0 31.996 8.562c11.344 0 22.344-3 32-8.562a63.872 63.872 0 0 0 31.998 8.562c11.344 0 22.344-3 31.998-8.562a63.874 63.874 0 0 0 32 8.562c11.344 0 22.344-3 32-8.562a63.872 63.872 0 0 0 31.998 8.562c11.344 0 22.342-3 31.998-8.562a63.872 63.872 0 0 0 31.998 8.562c35.282 0 63.998-28.688 63.998-63.982s-28.716-63.998-63.998-63.998z" fill="#E6E9ED" /><path d="M981.292 533.256H42.676c-11.782 0-21.344 9.546-21.344 21.328v127.992c0 35.282 28.718 64 63.998 64h853.308c35.28 0 63.996-28.718 63.996-64v-127.992c0-11.782-9.56-21.328-21.342-21.328z" fill="#EC5564" /><path d="M1002.634 575.926H21.332c-11.78 0-21.31-9.56-21.31-21.342s9.532-21.328 21.31-21.328h981.302c11.782 0 21.344 9.546 21.344 21.328s-9.562 21.342-21.344 21.342z" fill="#DA4453" /><path d="M682.648 149.274c-55.996 0-85.306 46.996-85.306 93.416 0 29.124 15.376 292.8 16.032 304.02 0.656 11.282 9.998 20.094 21.31 20.094h95.934c11.28 0 20.624-8.812 21.28-20.094 0.656-11.218 16.03-274.894 16.03-304.02-0.002-46.42-29.282-93.416-85.28-93.416z m15 100.4a21.332 21.332 0 0 1-30.188 0c-8.31-8.328-8.31-21.826 0-30.154a21.332 21.332 0 1 1 30.188 30.154z" fill="#F6BB42" /><path d="M975.918 747.232c-11.31-80.498-39.966-147.838-82.808-194.68-51.122-55.904-121.934-84.232-210.46-84.232-88.556 0-159.368 28.328-210.458 84.232-42.874 46.842-71.498 114.182-82.84 194.68-8.438 59.996-4.468 106.122-4.282 108.058 0.968 10.998 10.186 19.436 21.25 19.436h552.666c11.06 0 20.248-8.438 21.248-19.436 0.184-1.936 4.122-48.062-4.316-108.058z" fill="#FFCE54" /><path d="M384.038 831.916c0.218 14 0.938 22.562 1.032 23.376 0.968 10.998 10.186 19.436 21.25 19.436h552.666c11.06 0 20.248-8.438 21.248-19.436 0.062-0.812 0.812-9.376 1.032-23.376H384.038z" fill="#F6BB42" /></svg>