<?xml version="1.0" standalone="no"?><!DOCTYPE svg PUBLIC "-//W3C//DTD SVG 1.1//EN" "http://www.w3.org/Graphics/SVG/1.1/DTD/svg11.dtd"><svg class="icon" width="128px" height="128.00px" viewBox="0 0 1024 1024" version="1.1" xmlns="http://www.w3.org/2000/svg"><path d="M328.362 742.412c0 11.78-9.532 21.31-21.312 21.31-11.782 0-21.344-9.532-21.344-21.31 0-11.782 9.562-21.344 21.344-21.344 11.78 0 21.312 9.562 21.312 21.344z" fill="#434A54" /><path d="M261.894 163.77C-100.472 157.208 18.806 582.698 18.806 704.132c0 121.434-35.592 157.152 38.406 156.152 212.588-2.906 217.776-138.124 321.368-153.746 395.788-59.656 589.16-269.84 643.126-455.208 32.154-110.466-283.338-78.154-381.928-66.466-126.7 15.03-244.168-18.688-377.884-21.094z" fill="#965353" /><path d="M618.464 487.45c-4.124-50.032-2.656-102.746 4.438-156.652 9.406-71.53 26.282-126.434 33.532-147.84a1580.5 1580.5 0 0 0-16.656 1.906c-9.938 1.188-19.812 2.032-29.656 2.656-8.812 28.844-21.438 76.874-29.376 136.496-7.562 57.094-9.218 112.996-4.876 166.214 4.562 55.75 15.718 108.652 33.25 157.684a902.94 902.94 0 0 0 39.594-15.968c-15.842-44.874-26.03-93.34-30.25-144.496z" fill="#7F4545" /><path d="M261.894 206.424c133.716 2.406 251.182 36.124 377.882 21.094 86.684-10.25 340.96-36.468 379.334 32.374 0.906-2.844 1.782-5.718 2.594-8.562 32.154-110.466-283.338-78.154-381.928-66.466-126.7 15.03-244.166-18.688-377.882-21.094C32.62 159.614-3.848 328.422 0.306 483.73c4.126-141.996 53.218-281.056 261.588-277.306z" fill="#FFFFFF" opacity=".1" /></svg>