<?xml version="1.0" standalone="no"?><!DOCTYPE svg PUBLIC "-//W3C//DTD SVG 1.1//EN" "http://www.w3.org/Graphics/SVG/1.1/DTD/svg11.dtd"><svg class="icon" width="128px" height="128.00px" viewBox="0 0 1024 1024" version="1.1" xmlns="http://www.w3.org/2000/svg"><path d="M688.462 639.994H631.34c-11.78 0-21.342-9.56-21.342-21.342s9.562-21.312 21.342-21.312h52.09l80.81-40.436c10.56-5.25 23.374-1 28.624 9.562 5.282 10.53 1 23.342-9.532 28.624l-85.34 42.656a21.398 21.398 0 0 1-9.53 2.248zM688.462 725.334h-85.338c-11.782 0-21.312-9.562-21.312-21.344s9.532-21.344 21.312-21.344h80.306l80.81-40.402c10.56-5.28 23.374-1 28.624 9.53 5.282 10.562 1 23.376-9.532 28.624l-85.34 42.686a21.372 21.372 0 0 1-9.53 2.25zM404.256 639.994h-57.124a21.52 21.52 0 0 1-9.532-2.248l-85.34-42.656c-10.53-5.282-14.812-18.094-9.53-28.624 5.28-10.562 18.092-14.812 28.624-9.562l80.808 40.436h52.092c11.782 0 21.342 9.532 21.342 21.312s-9.558 21.342-21.34 21.342zM432.474 725.334h-85.34c-3.312 0-6.562-0.782-9.532-2.25l-85.34-42.686c-10.53-5.25-14.812-18.062-9.53-28.624 5.28-10.53 18.092-14.808 28.624-9.53l80.808 40.402h80.31c11.782 0 21.342 9.562 21.342 21.344s-9.56 21.344-21.342 21.344z" fill="#DA4453" /><path d="M552.218 326.696a21.34 21.34 0 0 1-9.062-2.032c-10.654-5.032-15.216-17.718-10.216-28.406l93.558-198.678c5.032-10.656 17.718-15.218 28.404-10.218 10.654 5.032 15.216 17.75 10.186 28.404l-93.556 198.68c-3.626 7.718-11.282 12.25-19.314 12.25zM475.16 334.54a21.356 21.356 0 0 1-19.75-13.188L370.102 114.828c-4.5-10.874 0.656-23.374 11.562-27.874 10.874-4.5 23.374 0.688 27.874 11.594l85.308 206.49c4.5 10.906-0.656 23.376-11.562 27.876a21.41 21.41 0 0 1-8.124 1.626z" fill="#434A54" /><path d="M383.852 426.692c-31.78-1.376-89.902-9.188-110.652-24.376-24.094-17.592-29.03-54.092-29.062-54.374a21.216 21.216 0 0 0-8.718-14.78 21.382 21.382 0 0 0-16.844-3.562l-58.092 12.186c-11.28 2.376-18.654 13.282-16.624 24.624 0.312 1.656 7.5 41.216 27.56 89.746 10.968 26.466 47.374 49.53 114.59 72.622 45.342 15.562 87.496 24.968 89.278 25.376 1.532 0.344 3.062 0.5 4.624 0.5a21.1 21.1 0 0 0 13.03-4.468 21.26 21.26 0 0 0 8.282-16.094l3.032-85.34c0.408-11.716-8.686-21.56-20.404-22.06zM863.52 341.788l-58.124-12.186a21.316 21.316 0 0 0-16.812 3.562 21.236 21.236 0 0 0-8.75 14.78c-0.032 0.376-5 36.812-29.06 54.374-20.748 15.188-78.874 23-110.62 24.376-11.718 0.5-20.842 10.344-20.436 22.06l3.03 85.34a21.458 21.458 0 0 0 8.282 16.094 21.252 21.252 0 0 0 13.062 4.468c1.532 0 3.094-0.156 4.624-0.5 1.748-0.406 43.934-9.812 89.244-25.376 67.216-23.092 103.654-46.154 114.59-72.622 20.094-48.53 27.28-88.09 27.56-89.746 2.032-11.344-5.31-22.25-16.59-24.624z" fill="#DA4453" /><path d="M603.124 981.322h-170.65c-11.782 0-21.342-9.56-21.342-21.342V708.74c-9.188-20.282-42.656-102.15-42.656-218.084 0-57.496 23.906-115.776 69.124-168.554 33.53-39.092 66.966-61.592 68.372-62.53a21.416 21.416 0 0 1 23.656 0c1.406 0.938 34.842 23.438 68.374 62.53 45.216 52.78 69.12 111.058 69.12 168.554 0 115.934-33.464 197.802-42.652 218.084v251.24c-0.004 11.782-9.564 21.342-21.346 21.342z" fill="#ED5564" /><path d="M875.394 71.362C825.364 2.022 741.304 0.022 731.868 0.022h-1.25c-7.876 0.25-15.062 4.78-18.594 11.81-2.718 5.532-65.496 133.902-1.844 212.024 8.282 24.686 45.56 128.462 95.622 157.306a21.67 21.67 0 0 0 10.656 2.844h42.654c9.188 0 17.376-5.876 20.25-14.594 44.184-132.902 42.842-233.178-3.968-298.05zM293.356 0.022h-1.25c-9.406 0-93.498 2-143.494 71.34-46.812 64.874-48.154 165.148-4 298.05a21.34 21.34 0 0 0 20.248 14.594h42.656c3.75 0 7.406-1 10.656-2.844 50.092-28.844 87.34-132.622 95.622-157.306 63.686-78.122 0.906-206.492-1.844-212.024-3.502-7.032-10.72-11.56-18.594-11.81z" fill="#ED5564" /><path d="M496.472 384.006c0 11.78-9.562 21.342-21.342 21.342-11.782 0-21.312-9.562-21.312-21.342 0-11.782 9.532-21.344 21.312-21.344 11.78 0 21.342 9.562 21.342 21.344zM581.812 384.006c0 11.78-9.562 21.342-21.344 21.342s-21.344-9.562-21.344-21.342c0-11.782 9.562-21.344 21.344-21.344s21.344 9.562 21.344 21.344z" fill="#434A54" /><path d="M590.218 903.64c-29.968-6.906-60.624-7.656-72.404-7.656-11.812 0-42.466 0.75-72.434 7.656-63.624 14.688-76.966 46.464-76.966 70.558 0 27.436 23.936 49.78 53.342 49.78 8.406 0 16.624-1.876 24.032-5.344a56.496 56.496 0 0 0 23.998 5.344c8.406 0 16.624-1.876 24-5.344 7.406 3.468 15.624 5.344 24.03 5.344s16.624-1.876 23.998-5.344a56.612 56.612 0 0 0 48.032 0 56.512 56.512 0 0 0 24 5.344c29.404 0 53.338-22.344 53.338-49.78-0.002-24.092-13.344-55.87-76.966-70.558zM581.812 725.334c-11.782 0-21.344 9.532-21.344 21.312 0 11.78 9.562 21.342 21.344 21.342h42.654v-42.654h-42.654zM581.812 810.642c-11.782 0-21.344 9.562-21.344 21.344s9.562 21.344 21.344 21.344h42.654v-42.688h-42.654zM453.754 853.33c11.782 0 21.312-9.562 21.312-21.344s-9.532-21.344-21.312-21.344h-42.684v42.688h42.684zM453.754 767.988c11.782 0 21.312-9.562 21.312-21.342a21.3 21.3 0 0 0-21.312-21.312h-42.684v42.654h42.684zM666.65 514.594c0.312-7.812 0.468-15.782 0.468-23.938 0-6.844-0.344-13.688-1-20.532-19.746 6.376-79.12 23.438-148.304 23.438-68.904 0-128.494-17.062-148.306-23.438a205.148 205.148 0 0 0-1.032 20.532c0 8.156 0.156 16.124 0.468 23.938 29.03 8.438 84.714 21.624 148.87 21.624 64.124-0.002 119.81-13.186 148.836-21.624zM795.584 213.324a21.22 21.22 0 0 1-15.094-6.25c-20.216-20.282-38.248-57.434-53.59-110.462-11-38.032-16.562-70.31-16.812-71.654-1.968-11.624 5.844-22.624 17.438-24.624 11.624-1.968 22.654 5.81 24.624 17.436 5.812 33.748 27.592 128.152 58.56 159.182 8.312 8.31 8.282 21.842-0.032 30.154a21.32 21.32 0 0 1-15.094 6.218zM228.388 213.324a21.244 21.244 0 0 1-15.062-6.218c-8.344-8.312-8.344-21.844-0.032-30.154 31-31.092 52.78-125.434 58.53-159.182 2-11.624 13-19.436 24.624-17.436 11.624 2 19.436 12.998 17.436 24.624-0.218 1.344-5.812 33.624-16.81 71.654-15.312 53.03-33.342 90.182-53.592 110.462-4.156 4.188-9.624 6.25-15.094 6.25z" fill="#DA4453" /></svg>