<?xml version="1.0" standalone="no"?><!DOCTYPE svg PUBLIC "-//W3C//DTD SVG 1.1//EN" "http://www.w3.org/Graphics/SVG/1.1/DTD/svg11.dtd"><svg class="icon" width="128px" height="128.00px" viewBox="0 0 1024 1024" version="1.1" xmlns="http://www.w3.org/2000/svg"><path d="M244.884 927.984L0.018 1013.326V373.348l244.866-85.34z" fill="#AC92EB" /><path d="M512 1013.326l-267.116-85.342V288.008L512 373.348z" fill="#967ADC" /><path d="M779.116 927.984L512 1013.326V373.348l267.116-85.34z" fill="#AC92EB" /><path d="M1023.982 1013.326l-244.866-85.342V288.008l244.866 85.34z" fill="#967ADC" /><path d="M737.99 104.294C677.62 43.92 597.37 10.672 511.984 10.672c-85.374 0-165.65 33.248-226.024 93.622-60.356 60.374-93.606 140.65-93.606 226.024 0 41.686 12.734 92.558 37.842 151.276 21.592 50.498 51.67 104.872 86.982 157.246 20.532 30.466 126.434 182.49 194.806 182.49 68.388 0 174.26-152.024 194.82-182.49 35.28-52.376 65.374-106.748 86.966-157.246 25.092-58.716 37.842-109.59 37.842-151.276 0.002-85.372-33.246-165.65-93.622-226.024z" fill="#A0D468" /><path d="M511.046 181.354c-82.342 0-149.324 66.966-149.324 149.308 0 82.34 66.982 149.338 149.324 149.338 82.324 0 149.324-66.998 149.324-149.338 0.002-82.342-66.998-149.308-149.324-149.308z" fill="#8CC153" /></svg>