<?xml version="1.0" standalone="no"?><!DOCTYPE svg PUBLIC "-//W3C//DTD SVG 1.1//EN" "http://www.w3.org/Graphics/SVG/1.1/DTD/svg11.dtd"><svg class="icon" width="128px" height="128.00px" viewBox="0 0 1024 1024" version="1.1" xmlns="http://www.w3.org/2000/svg"><path d="M490.666 0.012H170.672c-11.782 0-21.344 9.562-21.344 21.342v981.322c0 11.782 9.562 21.312 21.344 21.312h319.992c11.782 0 21.344-9.532 21.344-21.312V21.354c0-11.78-9.562-21.342-21.342-21.342z" fill="#5D9CEC" /><path d="M853.296 0.012H533.32c-11.782 0-21.312 9.562-21.312 21.342v981.322a21.298 21.298 0 0 0 21.312 21.312h319.976c11.812 0 21.376-9.532 21.376-21.312V21.354c0-11.78-9.562-21.342-21.376-21.342z" fill="#ED5564" /><path d="M219.578 262.256c-8.312 8.342-8.312 21.842 0 30.186a21.332 21.332 0 0 0 30.188 0c8.312-8.342 8.312-21.842 0-30.186-8.346-8.312-21.846-8.312-30.188 0zM304.918 262.288c-8.342 8.312-8.342 21.812 0 30.154 8.312 8.344 21.844 8.344 30.156 0 8.342-8.342 8.342-21.842 0-30.154-8.312-8.344-21.842-8.344-30.156 0zM420.416 262.256c-8.344-8.312-21.844-8.312-30.188 0-8.312 8.342-8.312 21.842 0 30.186a21.332 21.332 0 0 0 30.188 0c8.314-8.344 8.314-21.844 0-30.186z" fill="#4A89DC" /><path d="M219.578 731.588c-8.312 8.344-8.312 21.844 0 30.156a21.336 21.336 0 0 0 30.188 0c8.312-8.312 8.312-21.812 0-30.156a21.336 21.336 0 0 0-30.188 0zM304.918 731.588a21.336 21.336 0 0 0 0 30.188c8.312 8.31 21.844 8.31 30.156 0a21.336 21.336 0 0 0 0-30.188c-8.312-8.342-21.842-8.342-30.156 0zM420.416 731.588a21.336 21.336 0 0 0-30.188 0c-8.312 8.344-8.312 21.844 0 30.156a21.336 21.336 0 0 0 30.188 0c8.314-8.312 8.314-21.812 0-30.156z" fill="#4A89DC" /><path d="M405.324 128.008h-170.652c-11.782 0-21.342-9.532-21.342-21.312 0-11.782 9.562-21.342 21.342-21.342h170.652c11.782 0 21.344 9.562 21.344 21.342-0.002 11.78-9.564 21.312-21.344 21.312zM405.324 213.35h-170.652c-11.782 0-21.342-9.532-21.342-21.342 0-11.782 9.562-21.312 21.342-21.312h170.652c11.782 0 21.344 9.53 21.344 21.312-0.002 11.81-9.564 21.342-21.344 21.342zM405.324 853.336h-170.652a21.33 21.33 0 0 1-21.342-21.344c0-11.782 9.562-21.312 21.342-21.312h170.652c11.782 0 21.344 9.532 21.344 21.312a21.334 21.334 0 0 1-21.344 21.344zM405.324 938.678h-170.652c-11.782 0-21.342-9.562-21.342-21.344s9.562-21.342 21.342-21.342h170.652c11.782 0 21.344 9.56 21.344 21.342s-9.564 21.344-21.344 21.344zM490.666 256.006c-11.782 0-21.342-9.532-21.342-21.312V149.352c0-11.782 9.562-21.344 21.342-21.344s21.344 9.562 21.344 21.344v85.342c-0.002 11.78-9.564 21.312-21.344 21.312zM490.666 895.992c-11.782 0-21.342-9.532-21.342-21.312v-85.344c0-11.782 9.562-21.342 21.342-21.342s21.344 9.56 21.344 21.342v85.344c-0.002 11.78-9.564 21.312-21.344 21.312z" fill="#4A89DC" /><path d="M384.012 448c0-35.28-28.718-64-64-64-35.312 0-63.998 28.718-63.998 64v85.342c0 11.78 9.53 21.342 21.312 21.342h85.342c5.656 0 11.094-2.25 15.094-6.25s6.25-9.436 6.25-15.092V448z m-42.686 64h-42.656v-64c0-11.75 9.562-21.312 21.342-21.312 11.75 0 21.312 9.562 21.312 21.312v64z" fill="#434A54" /><path d="M320.012 469.344c-47.062 0-85.342 38.282-85.342 85.342 0 47.062 38.28 85.31 85.342 85.31 47.03 0 85.31-38.248 85.31-85.31 0.002-47.062-38.28-85.342-85.31-85.342z" fill="#656D78" /><path d="M335.076 539.594a21.334 21.334 0 0 1 0 30.186c-8.312 8.312-21.844 8.312-30.156 0a21.334 21.334 0 0 1 0-30.186c8.312-8.312 21.842-8.312 30.156 0z" fill="#AAB2BC" /><path d="M582.242 262.256c-8.312 8.342-8.312 21.842 0 30.186 8.312 8.344 21.812 8.344 30.188 0 8.312-8.342 8.312-21.842 0-30.186-8.376-8.312-21.876-8.312-30.188 0zM667.55 262.288c-8.312 8.312-8.312 21.812 0 30.154 8.376 8.344 21.876 8.344 30.188 0 8.312-8.342 8.312-21.842 0-30.154-8.312-8.344-21.812-8.344-30.188 0zM783.05 262.256c-8.312-8.312-21.812-8.312-30.124 0a21.272 21.272 0 0 0 0 30.186c8.312 8.344 21.812 8.344 30.124 0a21.272 21.272 0 0 0 0-30.186z" fill="#DA4453" /><path d="M582.242 731.588c-8.312 8.344-8.312 21.844 0 30.156 8.312 8.342 21.812 8.342 30.188 0 8.312-8.312 8.312-21.812 0-30.156-8.376-8.342-21.876-8.342-30.188 0zM667.55 731.588c-8.312 8.344-8.312 21.844 0 30.188 8.376 8.31 21.876 8.31 30.188 0 8.312-8.344 8.312-21.844 0-30.188-8.312-8.342-21.812-8.342-30.188 0zM783.05 731.588c-8.312-8.342-21.812-8.342-30.124 0-8.376 8.344-8.376 21.844 0 30.156 8.312 8.342 21.812 8.342 30.124 0 8.376-8.312 8.376-21.812 0-30.156z" fill="#DA4453" /><path d="M767.988 128.008h-170.684c-11.75 0-21.312-9.532-21.312-21.312 0-11.782 9.562-21.342 21.312-21.342h170.684c11.75 0 21.312 9.562 21.312 21.342s-9.562 21.312-21.312 21.312zM767.988 213.35h-170.684c-11.75 0-21.312-9.532-21.312-21.342 0-11.782 9.562-21.312 21.312-21.312h170.684c11.75 0 21.312 9.53 21.312 21.312 0 11.81-9.562 21.342-21.312 21.342zM767.988 853.336h-170.684c-11.75 0-21.312-9.532-21.312-21.344 0-11.782 9.562-21.312 21.312-21.312h170.684c11.75 0 21.312 9.532 21.312 21.312 0 11.812-9.562 21.344-21.312 21.344zM767.988 938.678h-170.684c-11.75 0-21.312-9.562-21.312-21.344s9.562-21.342 21.312-21.342h170.684c11.75 0 21.312 9.56 21.312 21.342s-9.562 21.344-21.312 21.344zM853.296 256.006c-11.75 0-21.312-9.532-21.312-21.312V149.352c0-11.782 9.562-21.344 21.312-21.344 11.812 0 21.376 9.562 21.376 21.344v85.342c0 11.78-9.562 21.312-21.376 21.312zM853.296 895.992c-11.75 0-21.312-9.532-21.312-21.312v-85.344c0-11.782 9.562-21.342 21.312-21.342 11.812 0 21.376 9.56 21.376 21.342v85.344c0 11.78-9.562 21.312-21.376 21.312z" fill="#DA4453" /><path d="M746.05 448c0-35.28-28.688-64-64-64-35.25 0-63.996 28.718-63.996 64v85.342c0 11.78 9.562 21.342 21.376 21.342h85.308c5.688 0 11.062-2.25 15.062-6.25s6.25-9.436 6.25-15.092V448z m-42.624 64h-42.688v-64c0-11.75 9.562-21.312 21.312-21.312 11.812 0 21.376 9.562 21.376 21.312v64z" fill="#434A54" /><path d="M682.05 469.344c-47.058 0-85.308 38.282-85.308 85.342 0 47.062 38.25 85.31 85.308 85.31 47.062 0 85.376-38.248 85.376-85.31 0-47.062-38.312-85.342-85.376-85.342z" fill="#656D78" /><path d="M697.176 539.594c8.312 8.342 8.312 21.842 0 30.186-8.376 8.312-21.876 8.312-30.188 0-8.312-8.344-8.312-21.844 0-30.186 8.312-8.312 21.812-8.312 30.188 0z" fill="#AAB2BC" /></svg>