<?xml version="1.0" standalone="no"?><!DOCTYPE svg PUBLIC "-//W3C//DTD SVG 1.1//EN" "http://www.w3.org/Graphics/SVG/1.1/DTD/svg11.dtd"><svg class="icon" width="128px" height="128.00px" viewBox="0 0 1024 1024" version="1.1" xmlns="http://www.w3.org/2000/svg"><path d="M512 0.018c-117.714 0-213.148 95.434-213.148 213.148v362.582h426.298V213.166C725.15 95.452 629.714 0.018 512 0.018z m170.526 533.076H341.474V213.166c0-45.56 17.75-88.372 49.968-120.59C423.628 60.39 466.44 42.64 512 42.64s88.374 17.75 120.558 49.936c32.216 32.218 49.966 75.03 49.966 120.59v319.928z" fill="#434A54" /><path d="M678.306 292.258c-65.152 0-124.058 26.748-166.306 69.904-42.248-43.156-101.152-69.904-166.306-69.904-128.558 0-232.804 104.214-232.804 232.804C112.888 791.146 512 1023.982 512 1023.982s399.112-232.836 399.112-498.92c0-128.59-104.216-232.804-232.806-232.804z" fill="#FC6E51" /><path d="M678.306 292.258c-7.188 0-14.312 0.312-21.312 0.968 118.59 10.782 211.494 110.434 211.494 231.836 0 228.804-295.116 433.016-377.8 485.732 13.468 8.594 21.312 13.188 21.312 13.188s399.112-232.836 399.112-498.92c0-128.59-104.216-232.804-232.806-232.804z" fill="#FFFFFF" opacity=".2" /><path d="M469.376 722.054v-58.28l-5.344-6.032a63.96 63.96 0 0 1-15.968-42.28c0-35.248 28.686-63.936 63.934-63.936s63.936 28.688 63.936 63.936a63.972 63.972 0 0 1-15.968 42.28l-5.344 6.032v58.28h-85.246z" fill="#434A54" /><path d="M512 530.218c-47.092 0-85.248 38.154-85.248 85.246 0 21.624 8.062 41.342 21.312 56.374v71.53h127.87v-71.53c13.25-15.032 21.312-34.748 21.312-56.374 0.002-47.09-38.154-85.246-85.246-85.246z m31.966 113.434l-10.654 12.06v45.028h-42.624v-45.028l-10.656-12.06a42.636 42.636 0 0 1-10.656-28.188c0-23.5 19.124-42.624 42.624-42.624 23.5 0 42.624 19.124 42.624 42.624a42.628 42.628 0 0 1-10.658 28.188z" fill="#E9573F" /></svg>