<?xml version="1.0" standalone="no"?><!DOCTYPE svg PUBLIC "-//W3C//DTD SVG 1.1//EN" "http://www.w3.org/Graphics/SVG/1.1/DTD/svg11.dtd"><svg class="icon" width="128px" height="128.00px" viewBox="0 0 1024 1024" version="1.1" xmlns="http://www.w3.org/2000/svg"><path d="M853.304 725.34c-25.436 0-48.31 11.216-63.998 28.998-15.624-17.782-38.498-28.998-63.998-28.998-47.032 0-85.312 38.28-85.312 85.342 0 47.06 38.282 85.31 85.312 85.31 25.5 0 48.376-11.218 63.998-28.968 15.688 17.75 38.562 28.968 63.998 28.968 47.062 0 85.376-38.25 85.376-85.31 0-47.062-38.312-85.342-85.376-85.342z" fill="#CCD1D9" /><path d="M740.434 795.588c8.312 8.344 8.312 21.844 0 30.188-8.376 8.31-21.876 8.31-30.188 0-8.312-8.344-8.312-21.844 0-30.188 8.312-8.312 21.812-8.312 30.188 0zM868.43 795.588c8.312 8.344 8.312 21.844 0 30.188-8.376 8.31-21.876 8.31-30.188 0-8.31-8.344-8.31-21.844 0-30.188 8.312-8.312 21.812-8.312 30.188 0z" fill="#434A54" /><path d="M1002.678 512h-136.624c-11.75 0-21.312 9.562-21.312 21.344v85.34c0 11.782 9.562 21.312 21.312 21.312h136.624c11.75 0 21.312-9.532 21.312-21.312v-85.34c0-11.782-9.562-21.344-21.312-21.344z" fill="#FFCE54" /><path d="M831.994 341.346H618.686c-35.312 0-63.998-28.716-63.998-63.998 0-7.468 1.25-14.656 3.624-21.344H64.008c-35.296 0-64-28.686-64-63.998 0-35.282 28.702-63.998 64-63.998h725.298c35.312 0 63.998 28.716 63.998 63.998 0 8.344-1.562 16.282-4.5 23.594 27.188 7.406 47.188 32.28 47.188 61.748 0 35.28-28.688 63.998-63.998 63.998z" fill="#E6E9ED" /><path d="M831.994 384.002h-85.31c-11.812 0-21.376 9.562-21.376 21.344v127.998c0 11.78 9.562 21.342 21.376 21.342h85.31c11.78 0 21.31-9.562 21.31-21.342v-127.998c0-11.782-9.53-21.344-21.31-21.344z" fill="#434A54" /><path d="M234.676 809.744H106.68c-11.782 0-21.344-9.562-21.344-21.344V405.346c0-11.782 9.562-21.344 21.344-21.344h127.998c11.782 0 21.328 9.562 21.328 21.344V788.4c-0.002 11.782-9.548 21.344-21.33 21.344z" fill="#F6BB42" /><path d="M874.68 512H452.376c-58.812 0-106.654 47.874-106.654 106.684v85.312c0 58.842 47.842 106.686 106.654 106.686H874.68c58.812 0 106.624-47.844 106.624-106.686v-85.312c0-58.81-47.812-106.684-106.624-106.684z" fill="#656D78" /><path d="M490.672 384.002H234.676c-11.78 0-21.342 9.562-21.342 21.344V788.4c0 11.782 9.562 21.344 21.342 21.344h255.996c11.782 0 21.328-9.562 21.328-21.344V405.346c0-11.782-9.546-21.344-21.328-21.344z" fill="#FFCE54" /><path d="M533.328 725.34c-47.046 0-85.328 38.28-85.328 85.342 0 47.06 38.28 85.31 85.328 85.31s85.358-38.25 85.358-85.31c0-47.062-38.31-85.342-85.358-85.342zM362.674 725.34c-47.062 0-85.342 38.28-85.342 85.342 0 47.06 38.28 85.31 85.342 85.31 47.046 0 85.326-38.25 85.326-85.31 0-47.062-38.28-85.342-85.326-85.342z" fill="#E6E9ED" /><path d="M192.006 725.34c-47.046 0-85.326 38.28-85.326 85.342 0 47.06 38.28 85.31 85.326 85.31s85.328-38.25 85.328-85.31c0-47.062-38.282-85.342-85.328-85.342z" fill="#E6E9ED" /><path d="M533.328 831.992H192.006c-11.782 0-21.328-9.53-21.328-21.31s9.546-21.344 21.328-21.344h341.322c11.796 0 21.36 9.562 21.36 21.344s-9.564 21.31-21.36 21.31z" fill="#434A54" /><path d="M106.68 512c11.782 0 21.328-9.532 21.328-21.312s-9.546-21.344-21.328-21.344H85.336V512H106.68zM106.68 597.342c11.782 0 21.328-9.532 21.328-21.344 0-11.782-9.546-21.312-21.328-21.312H85.336v42.656H106.68zM106.68 682.684c11.782 0 21.328-9.562 21.328-21.344s-9.546-21.344-21.328-21.344H85.336v42.688H106.68z" fill="#FFCE54" /><path d="M512 405.346c0-11.782-9.546-21.344-21.328-21.344H234.676c-11.78 0-21.342 9.562-21.342 21.344V512H512v-106.654z" fill="#4FC2E9" /><path d="M341.332 384.002h42.67V512h-42.67z" fill="#3BAFDA" /></svg>