<?xml version="1.0" standalone="no"?><!DOCTYPE svg PUBLIC "-//W3C//DTD SVG 1.1//EN" "http://www.w3.org/Graphics/SVG/1.1/DTD/svg11.dtd"><svg class="icon" width="128px" height="128.00px" viewBox="0 0 1024 1024" version="1.1" xmlns="http://www.w3.org/2000/svg"><path d="M18.768 1005.23c25 25 65.53 25 90.514 0l552-552-90.53-90.528L18.768 914.734c-24.998 25-24.998 65.496 0 90.496z" fill="#E6E9ED" /><path d="M443.522 489.964a300.528 300.528 0 0 0 90.53 90.526l127.23-127.26-90.53-90.528-127.23 127.262zM372.008 582.804c0-5.876-2.39-11.218-6.25-15.062l-30.17 30.156a21.352 21.352 0 0 0 15.092 6.25c11.782 0 21.328-9.562 21.328-21.344zM311.666 643.18a21.36 21.36 0 0 0-6.25-15.124l-30.17 30.188a21.188 21.188 0 0 0 15.078 6.25c11.78-0.002 21.342-9.564 21.342-21.314zM245.058 688.426l-30.17 30.188a21.36 21.36 0 0 0 15.094 6.25c11.78 0 21.328-9.562 21.328-21.376a21.28 21.28 0 0 0-6.252-15.062zM190.966 763.864c0-5.876-2.39-11.25-6.25-15.094l-30.17 30.156a21.188 21.188 0 0 0 15.078 6.25c11.78 0 21.342-9.532 21.342-21.312zM94.188 839.296a21.226 21.226 0 0 0 15.094 6.25c11.78 0 21.328-9.562 21.328-21.344 0-5.906-2.39-11.214-6.25-15.09l-30.172 30.184zM64.018 869.484L33.846 899.64a21.32 21.32 0 0 0 15.078 6.25c11.782 0 21.344-9.532 21.344-21.344 0-5.874-2.392-11.218-6.25-15.062z" fill="#CCD1D9" /><path d="M471.364 621.804a21.36 21.36 0 0 1 15.094 6.25l-30.17 30.188a21.292 21.292 0 0 1-6.25-15.094c0-11.78 9.546-21.344 21.326-21.344zM411.022 682.176c5.89 0 11.218 2.376 15.078 6.25l-30.17 30.156a21.236 21.236 0 0 1-6.25-15.094c0-11.75 9.562-21.312 21.342-21.312zM365.758 748.77l-30.17 30.156a21.218 21.218 0 0 1-6.25-15.062c0-11.812 9.546-21.344 21.328-21.344 5.89 0 11.234 2.406 15.092 6.25zM290.324 802.864c5.89 0 11.218 2.376 15.078 6.25l-30.17 30.184a21.3 21.3 0 0 1-6.25-15.094c-0.002-11.778 9.56-21.34 21.342-21.34zM214.888 899.64a21.288 21.288 0 0 1-6.25-15.094c0-11.782 9.546-21.312 21.328-21.312 5.89 0 11.234 2.376 15.092 6.25l-30.17 30.156zM184.702 929.796L154.53 959.98a21.274 21.274 0 0 1-6.25-15.062c0-11.808 9.562-21.372 21.344-21.372 5.89 0 11.218 2.408 15.078 6.25z" fill="#CCD1D9" /><path d="M936.492 87.508c-116.654-116.652-305.774-116.652-422.41 0-116.652 116.636-116.652 305.772 0 422.408 116.636 116.638 305.756 116.638 422.41 0.016 116.652-116.652 116.652-305.786 0-422.424z" fill="#967ADC" /><path d="M906.46 570.118c-8.312 8.312-21.844 8.344-30.156 0L453.88 147.694c-8.328-8.328-8.328-21.844 0-30.17l60.044-60.046c8.344-8.328 21.844-8.342 30.172 0L966.52 479.904c8.344 8.328 8.344 21.842 0 30.17l-60.06 60.044z" fill="#AC92EB" /><path d="M642.282 125.476c25.562-12.28 53.78-18.78 82.996-18.78 51.312 0 99.53 19.968 135.778 56.234a21.346 21.346 0 0 0 15.094 6.25c11.782 0 21.344-9.546 21.344-21.328a21.36 21.36 0 0 0-6.25-15.094c-76.028-76.014-191.182-88.95-280.586-38.874l31.624 31.592z" fill="#AC92EB" /></svg>