<?xml version="1.0" standalone="no"?><!DOCTYPE svg PUBLIC "-//W3C//DTD SVG 1.1//EN" "http://www.w3.org/Graphics/SVG/1.1/DTD/svg11.dtd"><svg class="icon" width="128px" height="128.00px" viewBox="0 0 1024 1024" version="1.1" xmlns="http://www.w3.org/2000/svg"><path d="M715.994 6.274c-8.312-8.328-21.842-8.328-30.154 0l-90.528 90.528c-8.344 8.328-8.344 21.842 0 30.17l45.248 45.264a21.346 21.346 0 0 0 30.186 0l90.528-90.528c8.312-8.328 8.312-21.842 0-30.17l-45.28-45.264zM1017.726 308.008l-45.246-45.264c-4-4-9.438-6.25-15.094-6.25s-11.094 2.25-15.094 6.25l-90.526 90.528c-8.31 8.328-8.31 21.842 0 30.17l45.28 45.264a21.296 21.296 0 0 0 15.094 6.25c5.438 0 10.904-2.094 15.06-6.25l90.526-90.528a21.334 21.334 0 0 0 0-30.17zM180.536 541.746c-4.014-4-9.436-6.25-15.092-6.25s-11.078 2.25-15.092 6.25L59.84 632.272a21.306 21.306 0 0 0 0 30.156l45.262 45.278a21.286 21.286 0 0 0 15.078 6.25 21.32 21.32 0 0 0 15.092-6.25l90.51-90.526c4-4 6.25-9.438 6.25-15.094 0-5.654-2.234-11.092-6.25-15.092l-45.246-45.248zM437.008 798.232a21.254 21.254 0 0 0-15.094-6.25 21.246 21.246 0 0 0-15.092 6.25l-90.51 90.496c-8.328 8.344-8.328 21.842 0 30.184l45.264 45.25a21.152 21.152 0 0 0 15.078 6.25c5.468 0 10.92-2.062 15.092-6.25l90.51-90.496a21.35 21.35 0 0 0 0-30.186l-45.248-45.248z" fill="#656D78" /><path d="M987.542 368.35a21.218 21.218 0 0 0-15.062-6.25c-11.782 0-21.344 9.562-21.344 21.342 0 5.89 2.376 11.218 6.25 15.094l30.156-30.186zM452.084 903.82a21.186 21.186 0 0 0-15.078-6.248c-11.796 0-21.342 9.56-21.342 21.34 0 5.876 2.39 11.218 6.25 15.094l30.17-30.186zM655.652 36.446a21.218 21.218 0 0 1 6.25 15.092c0 11.782-9.562 21.328-21.342 21.328a21.34 21.34 0 0 1-15.094-6.234l30.186-30.186zM120.18 571.932a21.226 21.226 0 0 1 6.25 15.062c0 11.78-9.546 21.342-21.328 21.342a21.226 21.226 0 0 1-15.092-6.25l30.17-30.154z" fill="#434A54" /><path d="M972.48 51.538c-16.718-16.702-47.748-20.218-70.808-20.218-30.624 0-81.996 6.172-152.774 35.56-69.714 28.968-141.648 73.606-213.786 132.68-86.45 70.808-172.132 161.696-254.676 270.158C184.662 595.588 92.166 746.486 5.562 918.194c-17.108 33.906 9.578 61.248 23.92 75.964l0.376 0.376c15.266 14.876 31.984 29.438 53.608 29.438 7.562 0 15.078-1.844 22.326-5.532 297.188-149.868 526.74-313.796 682.326-487.194 150.836-168.13 190.49-299.828 200.678-363.37 8.652-53.966 2.56-97.464-16.316-116.338z" fill="#48CFAD" /><path d="M788.116 531.246c150.836-168.13 190.49-299.828 200.678-363.37 8.654-53.966 2.562-97.464-16.312-116.338-5.062-5.062-11.468-8.906-18.532-11.828 9.344 22.734 11.188 57.388 4.656 97.996-10.188 63.542-49.808 195.24-200.676 363.372-155.586 173.38-385.138 337.31-682.31 487.208-7.25 3.656-14.764 5.498-22.328 5.498h-0.016c-14.5 0-26.78-6.53-37.92-15.342 4.844 6.188 10 11.468 14.124 15.716l0.376 0.376c15.266 14.876 31.984 29.438 53.608 29.438 7.562 0 15.078-1.844 22.326-5.532 297.188-149.868 526.74-313.798 682.326-487.194z" fill="#FFFFFF" opacity=".2" /><path d="M806.52 135.816c-11.782 0-21.342 9.546-21.342 21.326 0 11.782 9.56 21.342 21.342 21.342s21.344-9.562 21.344-21.342-9.564-21.326-21.344-21.326zM866.86 196.156c-11.78 0-21.34 9.546-21.34 21.342 0 11.78 9.56 21.328 21.34 21.328 11.782 0 21.344-9.546 21.344-21.328 0-11.796-9.564-21.342-21.344-21.342zM746.18 196.156c-11.782 0-21.344 9.546-21.344 21.342 0 11.78 9.562 21.328 21.344 21.328s21.344-9.546 21.344-21.328c0-11.796-9.564-21.342-21.344-21.342zM806.52 256.496c-11.782 0-21.342 9.562-21.342 21.342s9.56 21.326 21.342 21.326 21.344-9.544 21.344-21.326-9.564-21.342-21.344-21.342z" fill="#E6E9ED" /><path d="M271.046 671.272c-11.78 0-21.326 9.56-21.342 21.342 0 11.78 9.562 21.342 21.342 21.342 11.782 0 21.342-9.562 21.342-21.342 0.002-11.782-9.56-21.342-21.342-21.342zM331.388 731.612c-11.78 0-21.328 9.562-21.328 21.342 0 11.782 9.546 21.342 21.328 21.342 11.796 0 21.342-9.56 21.342-21.342 0-11.78-9.546-21.342-21.342-21.342zM210.708 731.612c-11.782 0-21.342 9.562-21.342 21.342 0 11.782 9.562 21.342 21.342 21.342s21.328-9.56 21.328-21.342c-0.002-11.78-9.548-21.342-21.328-21.342zM271.046 791.982c-11.78 0-21.326 9.532-21.326 21.312-0.016 11.78 9.546 21.342 21.326 21.342 11.782 0 21.342-9.562 21.342-21.342 0.002-11.78-9.56-21.312-21.342-21.312z" fill="#E6E9ED" /></svg>