<?xml version="1.0" standalone="no"?><!DOCTYPE svg PUBLIC "-//W3C//DTD SVG 1.1//EN" "http://www.w3.org/Graphics/SVG/1.1/DTD/svg11.dtd"><svg class="icon" width="128px" height="128.00px" viewBox="0 0 1024 1024" version="1.1" xmlns="http://www.w3.org/2000/svg"><path d="M344.108 810.644L106.678 573.218V237.446L344.108 0.016h335.756l237.428 237.43v335.772L679.864 810.644z" fill="#E6E9ED" /><path d="M511.992 672.652c0 23.562-19.108 42.652-42.67 42.652s-42.654-19.09-42.654-42.652 19.092-42.656 42.654-42.656 42.67 19.094 42.67 42.656z" fill="#ED5564" /><path d="M426.668 672.652c0 23.562-19.11 42.652-42.672 42.652-23.56 0-42.67-19.09-42.67-42.652s19.11-42.656 42.67-42.656c23.562 0 42.672 19.094 42.672 42.656z" fill="#AC92EB" /><path d="M341.326 672.652c0 23.562-19.094 42.652-42.654 42.652-23.578 0-42.67-19.09-42.67-42.652s19.092-42.656 42.67-42.656c23.56 0 42.654 19.094 42.654 42.656z" fill="#A0D468" /><path d="M597.302 672.652c0 23.562-19.062 42.652-42.624 42.652-23.594 0-42.688-19.09-42.688-42.652s19.094-42.656 42.688-42.656c23.562 0 42.624 19.094 42.624 42.656z" fill="#AC92EB" /><path d="M682.674 672.652c0 23.562-19.124 42.652-42.684 42.652-23.562 0-42.688-19.09-42.688-42.652s19.124-42.656 42.688-42.656c23.56 0 42.684 19.094 42.684 42.656z" fill="#FC6E51" /><path d="M767.986 672.652c0 23.562-19.124 42.652-42.688 42.652s-42.624-19.09-42.624-42.652 19.062-42.656 42.624-42.656 42.688 19.094 42.688 42.656z" fill="#48CFAD" /><path d="M917.292 237.446l-16.312-16.342-794.302 329.02v23.094l16.328 16.34L917.292 260.54z" fill="#CCD1D9" /><path d="M679.864 0.016H656.8l-161.04 388.77 39.404 16.342L696.206 16.33z" fill="#CCD1D9" /><path d="M327.78 16.33l164.168 396.36 39.42-16.312L367.202 0.016h-23.094z" fill="#CCD1D9" /><path d="M123.006 221.104l-16.328 16.342v23.094L900.98 589.558l16.312-16.34v-23.094z" fill="#CCD1D9" /><path d="M469.322 746.648c0 23.562-19.094 42.656-42.654 42.656-23.578 0-42.672-19.094-42.672-42.656s19.094-42.656 42.672-42.656c23.56 0 42.654 19.094 42.654 42.656z" fill="#48CFAD" /><path d="M383.996 746.648c0 23.562-19.108 42.656-42.67 42.656-23.56 0-42.654-19.094-42.654-42.656s19.094-42.656 42.654-42.656c23.562 0 42.67 19.094 42.67 42.656z" fill="#FC6E51" /><path d="M554.68 746.648c0 23.562-19.124 42.656-42.688 42.656-23.56 0-42.67-19.094-42.67-42.656s19.11-42.656 42.67-42.656c23.562 0 42.688 19.094 42.688 42.656z" fill="#FFCE54" /><path d="M639.99 746.648c0 23.562-19.124 42.656-42.688 42.656s-42.624-19.094-42.624-42.656 19.06-42.656 42.624-42.656 42.688 19.094 42.688 42.656z" fill="#5D9CEC" /><path d="M725.298 746.648c0 23.562-19.062 42.656-42.624 42.656-23.592 0-42.684-19.094-42.684-42.656s19.092-42.656 42.684-42.656c23.562 0 42.624 19.094 42.624 42.656z" fill="#ED5564" /><path d="M256.002 938.64h-8.704l300.568-488.918-71.764-46.124L145.848 938.64h-17.842c-23.562 0-42.672 19.094-42.672 42.656s19.11 42.688 42.672 42.688h127.996c23.56 0 42.67-19.124 42.67-42.688s-19.11-42.656-42.67-42.656z" fill="#434A54" /><path d="M767.986 938.64h8.686L476.104 449.722l71.764-46.124L878.138 938.64h17.842c23.562 0 42.686 19.094 42.686 42.656s-19.124 42.688-42.686 42.688h-127.994c-23.562 0-42.688-19.124-42.688-42.688s19.126-42.656 42.688-42.656z" fill="#434A54" /><path d="M575.99 405.316c0 35.374-28.654 63.998-63.998 63.998-35.342 0-63.998-28.624-63.998-63.998 0-35.342 28.656-63.998 63.998-63.998 35.344 0 63.998 28.656 63.998 63.998z" fill="#434A54" /><path d="M511.992 490.658c-47.044 0-85.324-38.28-85.324-85.34 0-47.03 38.28-85.31 85.324-85.31 47.062 0 85.31 38.28 85.31 85.31 0 47.06-38.248 85.34-85.31 85.34z m0-127.996c-23.53 0-42.67 19.156-42.67 42.656 0 23.53 19.14 42.686 42.67 42.686 23.532 0 42.688-19.156 42.688-42.686 0-23.5-19.156-42.656-42.688-42.656z" fill="#656D78" /></svg>