<?xml version="1.0" standalone="no"?><!DOCTYPE svg PUBLIC "-//W3C//DTD SVG 1.1//EN" "http://www.w3.org/Graphics/SVG/1.1/DTD/svg11.dtd"><svg class="icon" width="128px" height="128.00px" viewBox="0 0 1024 1024" version="1.1" xmlns="http://www.w3.org/2000/svg"><path d="M106.692 0.016h639.996v1023.968H106.692z" fill="#5D9CEC" /><path d="M117.676 587.934H707v234.68H117.676z" fill="#F5F7FA" /><path d="M106.692 553.468v298.644h639.996V553.468H106.692z m298.648 127.996h42.67v42.652H405.34v-42.652z m-42.656 42.654h-42.67v-42.652h42.67v42.652z m127.996-42.654h42.656v42.652H490.68v-42.652z m0-42.686v-42.656h42.656v42.656H490.68z m-42.67 0H405.34v-42.656h42.67v42.656z m-85.326 0h-42.67v-42.656h42.67v42.656z m-85.34 0h-42.656v-42.656h42.656v42.656z m0 42.686v42.652h-42.656v-42.652h42.656z m0 85.31v42.688h-42.656v-42.688h42.656z m42.67 0h42.67v42.688h-42.67v-42.688z m85.326 0h42.67v42.688H405.34v-42.688z m85.34 0h42.656v42.688H490.68v-42.688z m85.324 0h42.688v42.688h-42.688v-42.688z m0-42.656v-42.652h42.688v42.652h-42.688z m0-85.34v-42.656h42.688v42.656h-42.688zM149.348 596.122h42.67v42.656H149.348v-42.656z m0 85.342h42.67v42.652H149.348v-42.652z m0 85.31h42.67v42.688H149.348v-42.688zM704 809.46h-42.684v-42.688H704v42.688z m0-85.342h-42.684v-42.652H704v42.652z m0-85.34h-42.684v-42.656H704v42.656z" fill="#E6E9ED" /><path d="M638.442 959.984H213.346c-11.782 0-21.328-9.532-21.328-21.312 0-11.778 9.546-21.34 21.328-21.34h425.096c11.812 0 21.376 9.562 21.376 21.34-0.002 11.782-9.564 21.312-21.376 21.312z" fill="#4A89DC" /><path d="M638.442 106.7H213.346c-11.782 0-21.328-9.562-21.328-21.342 0-11.782 9.546-21.344 21.328-21.344h425.096c11.812 0 21.376 9.562 21.376 21.344-0.002 11.78-9.564 21.342-21.376 21.342zM554.696 170.698H297.14c-11.78 0-21.328-9.562-21.328-21.342 0-11.782 9.546-21.344 21.328-21.344h257.556c11.746 0 21.308 9.562 21.308 21.344 0 11.78-9.562 21.342-21.308 21.342z" fill="#434A54" /><path d="M853.308 767.118c-5.312 0-10.624-1.968-14.75-5.938l-42.652-40.906a21.18 21.18 0 0 1-6.594-15.376V235.572c0-11.78 9.562-21.342 21.372-21.342h85.312c11.782 0 21.312 9.562 21.312 21.342V704.9a21.28 21.28 0 0 1-6.562 15.376l-42.656 40.906a21.228 21.228 0 0 1-14.782 5.936z" fill="#FFCE54" /><path d="M789.312 278.226h127.996v42.686h-127.996z" fill="#CCD1D9" /><path d="M117.676 247.852H707V482.5H117.676z" fill="#F5F7FA" /><path d="M106.692 213.354V512h639.996V213.352H106.692z m298.648 127.996h42.67v42.656H405.34v-42.656z m-42.656 42.654h-42.67v-42.656h42.67v42.656z m127.996-42.654h42.656v42.656H490.68v-42.656z m0-42.656v-42.686h42.656v42.686H490.68z m-42.67 0H405.34v-42.686h42.67v42.686z m-85.326 0h-42.67v-42.686h42.67v42.686z m-85.34 0h-42.656v-42.686h42.656v42.686z m0 42.656v42.656h-42.656v-42.656h42.656z m0 85.34v42.654h-42.656v-42.654h42.656z m42.67 0h42.67v42.654h-42.67v-42.654z m85.326 0h42.67v42.654H405.34v-42.654z m85.34 0h42.656v42.654H490.68v-42.654z m85.324 0h42.688v42.654h-42.688v-42.654z m0-42.686v-42.656h42.688v42.656h-42.688z m0-85.31v-42.686h42.688v42.686h-42.688zM149.348 256.008h42.67v42.686H149.348v-42.686z m0 85.342h42.67v42.656H149.348v-42.656z m0 85.34h42.67v42.654H149.348v-42.654zM704 469.344h-42.684v-42.654H704v42.654z m0-85.34h-42.684v-42.656H704v42.656z m0-85.31h-42.684v-42.686H704v42.686z" fill="#E6E9ED" /><path d="M895.996 214.228h-85.312c-11.808 0-21.372 9.562-21.372 21.342v42.656h127.996v-42.656c0-11.778-9.53-21.342-21.312-21.342z" fill="#EC87C0" /><path d="M884.152 745.774h-61.656l16.062 15.406a21.2 21.2 0 0 0 14.75 5.938c5.344 0 10.656-1.968 14.782-5.938l16.062-15.406z" fill="#434A54" /></svg>