<?xml version="1.0" standalone="no"?><!DOCTYPE svg PUBLIC "-//W3C//DTD SVG 1.1//EN" "http://www.w3.org/Graphics/SVG/1.1/DTD/svg11.dtd"><svg class="icon" width="128px" height="128.00px" viewBox="0 0 1024 1024" version="1.1" xmlns="http://www.w3.org/2000/svg"><path d="M959.984 32.016H64.014C28.718 32.016 0.016 60.732 0.016 96.014v469.328c0 35.28 28.702 63.998 63.998 63.998h895.97c35.312 0 64-28.718 64-63.998V96.014c0-35.282-28.688-63.998-64-63.998z" fill="#AC92EB" /><path d="M661.308 138.7h127.996v127.996h-127.996zM533.328 138.7h127.98v127.996h-127.98zM789.304 138.7h127.996v127.996h-127.996zM661.308 266.696h127.996v127.996h-127.996zM533.328 266.696h127.98v127.996h-127.98zM789.304 266.696h127.996v127.996h-127.996zM661.308 394.692h127.996v127.996h-127.996zM533.328 394.692h127.98v127.996h-127.98zM789.304 394.692h127.996v127.996h-127.996z" fill="#656D78" /><path d="M810.676 117.356H512v426.642h426.672V117.356h-127.996zM682.68 160.012h85.312v85.34H682.68v-85.34z m-127.992 0h85.308v85.34h-85.308v-85.34z m0 127.994h85.308v85.342h-85.308v-85.342z m85.308 213.338h-85.308v-85.342h85.308v85.342z m42.684-213.338h85.312v85.342H682.68v-85.342z m85.312 213.338H682.68v-85.342h85.312v85.342z m127.996 0h-85.312v-85.342h85.312v85.342z m0-127.996h-85.312v-85.342h85.312v85.342z m-85.312-127.996v-85.34h85.312v85.34h-85.312z" fill="#434A54" /><path d="M277.336 117.356c-94.2 0-170.838 76.654-170.838 170.838 0 94.216 76.638 170.84 170.838 170.84s170.838-76.624 170.838-170.84c0-94.184-76.638-170.838-170.838-170.838z" fill="#FFCE54" /><path d="M426.816 543.998H127.872c-11.782 0-21.344-9.532-21.344-21.31 0-11.782 9.562-21.344 21.344-21.344h298.944c11.782 0 21.328 9.562 21.328 21.344-0.002 11.778-9.548 21.31-21.328 21.31z" fill="#967ADC" /><path d="M341.334 309.538h-127.996c-11.782 0-21.328-9.562-21.328-21.344 0-11.78 9.546-21.31 21.328-21.31h127.996c11.78 0 21.342 9.532 21.342 21.31 0 11.78-9.562 21.344-21.342 21.344z" fill="#434A54" /><path d="M618.684 778.68h-11.25c-24.312-27.25-58.496-42.688-95.434-42.688-36.936 0-71.138 15.438-95.418 42.688h-11.25c-11.782 0-21.328 9.53-21.328 21.31v63.998c0 70.59 57.42 127.996 127.996 127.996 70.558 0 127.996-57.406 127.996-127.996v-63.998c0-11.782-9.562-21.31-21.312-21.31z m-21.376 85.308c0 47.06-170.634 47.06-170.634 0v-42.656a21.36 21.36 0 0 0 17.046-8.5c16.312-21.716 41.186-34.152 68.28-34.152s51.996 12.436 68.278 34.152a21.358 21.358 0 0 0 17.032 8.5v42.656z" fill="#F6BB42" /><path d="M512 671.994c-70.576 0-127.996 57.436-127.996 127.996 0 70.592 57.42 127.996 127.996 127.996 70.558 0 127.996-57.404 127.996-127.996 0-70.56-57.438-127.996-127.996-127.996z" fill="#FFCE54" /><path d="M512 842.676c-11.78 0-21.328-9.562-21.328-21.344V778.68c0-11.782 9.546-21.344 21.328-21.344s21.328 9.562 21.328 21.344v42.652c0 11.782-9.546 21.344-21.328 21.344z" fill="#E8AA3D" /></svg>