<?xml version="1.0" standalone="no"?><!DOCTYPE svg PUBLIC "-//W3C//DTD SVG 1.1//EN" "http://www.w3.org/Graphics/SVG/1.1/DTD/svg11.dtd"><svg class="icon" width="128px" height="128.00px" viewBox="0 0 1024 1024" version="1.1" xmlns="http://www.w3.org/2000/svg"><path d="M578.874 435.72c-129.092 0-183.058-85.156-185.356-88.874l36.326-22.374c0.062 0.094 11.812 18.406 37.11 35.874 33.656 23.25 74.344 34.186 120.982 32.562l1.468 42.656c-3.562 0.094-7.062 0.156-10.53 0.156z" fill="#7F4545" /><path d="M681.246 300.536c-27.75-17.968-66.874-37.844-116.246-59.062-77.766-33.406-157.594-59.968-168.31-63.5l-18.296-8.406-19.078 38.156c0.594 0.344 59.592 32.342 119.874 69.81 95.748 59.562 117.966 84.968 123.03 92.874-5.594 7.936-28.032 32.906-115.264 95.154-55.718 39.75-110.06 74.812-110.592 75.156L315.47 580h249.404l5.844-4.656c1.562-1.25 38.53-30.844 77.372-69.124 55.188-54.436 84.468-96.686 89.532-129.124 5.062-32.592-29.75-59.31-56.376-76.56z" fill="#A85D5D" /><path d="M133.912 537.312l97.514 170.652h561.102l97.496-170.652H133.912z" fill="#48CFAD" /><path d="M877.96 201.694c-3.594-7.032-11.968-23.468-31.842-23.468-3.688 0-6.938 0.562-10.062 1.124-3 0.5-5.876 1-9.562 1.124 0.062-0.782 0.124-1.5 0.124-2.156 0.312-3.938 0.594-8.376 0.406-13.094-1.032-26.374-8.344-32.842-29.404-47.562-15.812-11.062-53.032-15.218-108-20.28-16.376-1.532-31.812-2.938-38.624-4.25-0.812-0.906-2-2.75-2.938-4.156-9.438-14-22.248-28.968-56.03-28.968-6.906 0-14.344 0.624-22.78 1.906-35.938 5.406-91.032 8.812-143.75 8.812-29.982 0-56.716-1.094-75.28-3.156a150.512 150.512 0 0 0-15.688-0.844c-32.046 0-52.826 11.656-67.982 20.188-7.438 4.156-13.86 7.782-19.172 8.624-17.266 2.688-31.14 12.344-41.266 28.718-7.376 11.906-11.782 25.842-15.672 38.092l-1.266 3.906c-12.688 39.594-7.734 75 13.968 99.748 13.61 15.5 29.844 22.376 42.89 27.906 10.454 4.376 18.688 7.876 24.594 14.594 15.484 17.594 42.874 21.094 69.374 24.5 12.578 1.624 31.594 4.032 36.64 7.844 26.31 19.936 77.794 31.874 137.748 31.874 51.204 0 63.67-5.968 86.326-23 3.468-2.594 7.032-5.312 11.406-8.28 24.56-16.938 116.904-50.312 139.686-50.532 9.876 3.188 21.876 3.844 30.438 3.844 12.25 0 53.624-1.594 70.874-22.438 2.062-2.468 4.562-5.124 7.248-7.906 6.188-6.406 13.188-13.686 17.75-22.78 6.566-13.06 6.504-26.84-0.154-39.934z" fill="#A0D468" /><path d="M189.176 208.944l1.266-3.938c3.89-12.25 8.296-26.156 15.672-38.094 10.124-16.376 24-26.03 41.266-28.718 5.312-0.812 11.734-4.438 19.172-8.624 15.156-8.532 35.936-20.186 67.982-20.186 5.078 0 10.344 0.312 15.688 0.876 18.562 2 45.296 3.124 75.28 3.124 52.718 0 107.812-3.376 143.75-8.812 8.436-1.25 15.874-1.876 22.78-1.876 33.782 0 46.592 14.936 56.03 28.936 0.938 1.406 2.124 3.25 2.938 4.188 6.812 1.282 22.25 2.718 38.624 4.218 54.968 5.094 92.188 9.218 108 20.28 21.06 14.75 28.374 21.188 29.404 47.532 0.188 4.782-0.094 9.218-0.406 13.156 0 0.624-0.062 1.376-0.124 2.124 3.688-0.094 6.562-0.594 9.562-1.124 3.124-0.532 6.376-1.094 10.062-1.094 18.78 0 27.31 14.686 31.186 22.218 0.282-0.5 0.562-0.968 0.812-1.5 6.562-13.062 6.5-26.842-0.156-39.936-3.594-7.032-11.968-23.468-31.842-23.468-3.688 0-6.938 0.562-10.062 1.124-3 0.5-5.876 1-9.562 1.124 0.062-0.782 0.124-1.5 0.124-2.156 0.312-3.938 0.594-8.376 0.406-13.094-1.032-26.374-8.344-32.842-29.404-47.562-15.812-11.062-53.032-15.218-108-20.28-16.376-1.532-31.812-2.938-38.624-4.25-0.812-0.906-2-2.75-2.938-4.156-9.438-14-22.248-28.968-56.03-28.968-6.906 0-14.344 0.624-22.78 1.906-35.938 5.406-91.032 8.812-143.75 8.812-29.982 0-56.716-1.094-75.28-3.156a150.512 150.512 0 0 0-15.688-0.844c-32.046 0-52.826 11.656-67.982 20.188-7.438 4.156-13.86 7.782-19.172 8.624-17.266 2.688-31.14 12.344-41.266 28.718-7.376 11.906-11.782 25.842-15.672 38.092l-1.266 3.906c-7.14 22.312-8.704 43.282-4.812 61.782a156.788 156.788 0 0 1 4.812-19.092z" fill="#FFFFFF" opacity=".2" /><path d="M192.004 878.65h639.99v42.654H192.004z" fill="#656D78" /><path d="M42.68 793.34h170.652v170.652H42.68zM810.682 793.34h170.624v170.652h-170.624z" fill="#434A54" /><path d="M42.68 665.31h938.624v170.654H42.68z" fill="#656D78" /><path d="M1002.648 707.964H21.352c-11.782 0-21.344-9.532-21.344-21.31 0-11.782 9.562-21.344 21.344-21.344h981.296c11.782 0 21.344 9.562 21.344 21.344 0 11.78-9.562 21.31-21.344 21.31z" fill="#434A54" /></svg>