<?xml version="1.0" standalone="no"?><!DOCTYPE svg PUBLIC "-//W3C//DTD SVG 1.1//EN" "http://www.w3.org/Graphics/SVG/1.1/DTD/svg11.dtd"><svg class="icon" width="128px" height="128.00px" viewBox="0 0 1024 1024" version="1.1" xmlns="http://www.w3.org/2000/svg"><path d="M753.65 618.334L542.218 406.902l-8.842-8.844V0.006h-42.752v398.052l-8.842 8.844-211.432 211.432 30.218 30.218L512 437.12l211.432 211.432z" fill="#ED5564" /><path d="M424.252 199.376c-62.28-32-432.084 52.468-348.584 790.982 6.03 53.342 50.404 41.78 190.12-24.344 107.216-50.75 175.152-11.812 198.246-35.624 51.684-53.344 22.528-699.044-39.782-731.014z" fill="#F4BE8E" /><path d="M118.384 990.358c-69.5-614.704 175.026-776.262 294.898-794.73C327.628 176.94-3.832 287.154 75.666 990.358c3.438 30.406 19.342 39.716 58.248 29.876-9.062-4.97-13.812-14.846-15.53-29.876z" fill="#FFFFFF" opacity=".2" /><path d="M599.748 199.376c62.282-32 432.082 52.468 348.586 790.982-6.032 53.342-50.406 41.78-190.122-24.344-107.214-50.75-175.152-11.812-198.246-35.624-51.684-53.344-22.528-699.044 39.782-731.014z" fill="#F4BE8E" /><path d="M578.154 938.232c8.468 1.124 18.876 0.782 31.188 0.344-11.312-0.624-21.718-0.594-31.188-0.344zM610.716 195.626c119.872 18.468 364.398 180.028 294.898 794.73-1.718 15.032-6.468 24.906-15.532 29.876 38.906 9.842 54.812 0.532 58.25-29.876 79.5-703.202-251.96-813.416-337.616-794.73z" fill="#FFFFFF" opacity=".2" /></svg>