<?xml version="1.0" standalone="no"?><!DOCTYPE svg PUBLIC "-//W3C//DTD SVG 1.1//EN" "http://www.w3.org/Graphics/SVG/1.1/DTD/svg11.dtd"><svg class="icon" width="128px" height="128.00px" viewBox="0 0 1024 1024" version="1.1" xmlns="http://www.w3.org/2000/svg"><path d="M448.01 85.338h-21.328c-11.782 0-21.342-9.546-21.342-21.328 0-11.78 9.562-21.326 21.342-21.326h21.328c11.78 0 21.328 9.546 21.328 21.326-0.002 11.782-9.548 21.328-21.328 21.328zM597.316 85.338h-21.312c-11.778 0-21.308-9.546-21.308-21.328 0-11.78 9.532-21.326 21.308-21.326h21.312c11.812 0 21.376 9.546 21.376 21.326 0 11.782-9.564 21.328-21.376 21.328zM448.01 128.01h-21.328c-11.782 0-21.342-9.546-21.342-21.328s9.562-21.344 21.342-21.344h21.328c11.78 0 21.328 9.562 21.328 21.344s-9.548 21.328-21.328 21.328zM597.316 128.01h-21.312c-11.778 0-21.308-9.546-21.308-21.328s9.532-21.344 21.308-21.344h21.312c11.812 0 21.376 9.562 21.376 21.344s-9.564 21.328-21.376 21.328zM448.01 170.68h-21.328c-11.782 0-21.342-9.562-21.342-21.344 0-11.78 9.562-21.326 21.342-21.326h21.328c11.78 0 21.328 9.546 21.328 21.326-0.002 11.782-9.548 21.344-21.328 21.344zM597.316 170.68h-21.312c-11.778 0-21.308-9.562-21.308-21.344 0-11.78 9.532-21.326 21.308-21.326h21.312c11.812 0 21.376 9.546 21.376 21.326 0 11.782-9.564 21.344-21.376 21.344z" fill="#434A54" /><path d="M711.786 455.846c-25.406-46.906-54.468-84.31-86.406-111.202-36.188-30.5-74.308-45.966-113.372-45.966-39.062 0-77.202 15.466-113.388 45.966-31.906 26.89-60.968 64.294-86.388 111.202-48.562 89.592-77.544 203.962-77.544 305.868 0 50.716 7.296 94.404 21.67 129.872 13.796 34.03 34.562 61.748 61.702 82.404 44.78 34.124 106.404 50 193.948 50 87.558 0 149.184-15.876 193.934-50 27.152-20.656 47.934-48.376 61.714-82.404 14.376-35.466 21.656-79.154 21.656-129.872 0-101.906-28.968-216.276-77.526-305.868z" fill="#FFCE54" /><path d="M711.786 455.846c-25.406-46.906-54.468-84.31-86.406-111.202-36.188-30.5-74.308-45.966-113.372-45.966-3.562 0-7.124 0.124-10.672 0.39 35.344 2.56 69.856 17.858 102.73 45.576 31.876 26.89 60.938 64.294 86.376 111.202C739 545.438 768 659.808 768 761.712c0 50.716-7.312 94.404-21.688 129.872-13.782 34.03-34.558 61.748-61.684 82.404-42.938 32.718-101.376 48.656-183.292 49.906 3.516 0.062 7.062 0.094 10.672 0.094 87.558 0 149.184-15.876 193.934-50 27.152-20.656 47.934-48.376 61.714-82.404 14.376-35.466 21.656-79.154 21.656-129.872 0-101.904-28.968-216.274-77.526-305.866z" fill="#FFFFFF" opacity=".2" /><path d="M597.316 575.998c0 47.124-38.184 85.31-85.308 85.31-47.124 0-85.326-38.188-85.326-85.31s38.202-85.326 85.326-85.326c47.124 0 85.308 38.204 85.308 85.326z" fill="#434A54" /><path d="M512.008 682.684c-58.812 0-106.668-47.876-106.668-106.686s47.858-106.67 106.668-106.67c58.812 0 106.684 47.86 106.684 106.67s-47.872 106.686-106.684 106.686z m0-170.684c-35.296 0-63.998 28.704-63.998 63.998 0 35.312 28.702 63.998 63.998 63.998 35.312 0 63.996-28.686 63.996-63.998 0-35.294-28.684-63.998-63.996-63.998z" fill="#F6BB42" /><path d="M576.004 449.33h-127.994c-11.782 0-21.328-9.546-21.328-21.328V21.34c0-11.782 9.546-21.328 21.328-21.328h127.994c11.782 0 21.312 9.546 21.312 21.328v406.662c0 11.782-9.53 21.328-21.312 21.328z" fill="#965353" /><path d="M458.68 810.68c0 11.75 9.546 21.312 21.328 21.312s21.328-9.562 21.328-21.312V0.012H458.68V810.68zM522.68 810.68c0 11.75 9.546 21.312 21.328 21.312s21.312-9.562 21.312-21.312V0.012h-42.64V810.68z" fill="#E6E9ED" /><path d="M618.692 853.304H405.338c-11.782 0-21.328-9.532-21.328-21.312s9.546-21.312 21.328-21.312h213.352c11.75 0 21.312 9.532 21.312 21.312s-9.56 21.312-21.31 21.312z" fill="#434A54" /></svg>