<?xml version="1.0" standalone="no"?><!DOCTYPE svg PUBLIC "-//W3C//DTD SVG 1.1//EN" "http://www.w3.org/Graphics/SVG/1.1/DTD/svg11.dtd"><svg class="icon" width="128px" height="128.00px" viewBox="0 0 1024 1024" version="1.1" xmlns="http://www.w3.org/2000/svg"><path d="M837.518 967.772l-30.156-30.154c-8.312-8.344-8.312-21.844 0-30.156 8.344-8.344 21.844-8.344 30.156 0l30.186 30.156c8.312 8.344 8.312 21.842 0 30.154a21.33 21.33 0 0 1-30.186 0z" fill="#E6E9ED" /><path d="M837.518 967.772l-30.156-30.154c-8.312-8.344-8.312-21.844 0-30.156 8.344-8.344 21.844-8.344 30.156 0l30.186 30.156c8.312 8.344 8.312 21.842 0 30.154a21.33 21.33 0 0 1-30.186 0zM844.862 847.12a21.15 21.15 0 0 1-6.25-15.062c0-11.782 9.532-21.344 21.31-21.344h42.656c11.78 0 21.342 9.562 21.342 21.344s-9.562 21.312-21.342 21.312h-42.656a21.154 21.154 0 0 1-15.06-6.25zM716.862 1017.772a21.412 21.412 0 0 1-6.25-15.094v-42.656c0-11.78 9.562-21.342 21.344-21.342s21.344 9.562 21.344 21.342v42.656c0 11.782-9.562 21.312-21.344 21.312a21.38 21.38 0 0 1-15.094-6.218z" fill="#E6E9ED" /><path d="M685.582 594.404a21.276 21.276 0 0 1-5.688-10.406c-3.844-17.062-4.968-33.812-3.344-49.796 1.188-11.716 11.656-20.248 23.374-19.06 11.718 1.188 20.25 11.654 19.062 23.374-1.156 11.422-0.312 23.578 2.532 36.14 2.562 11.5-4.656 22.906-16.156 25.468-7.406 1.686-14.78-0.75-19.78-5.72z m9.498-84.074a21.33 21.33 0 0 1-3.748-25.062c6.686-12.624 15.592-24.532 26.466-35.438a175.726 175.726 0 0 1 4.25-4.094c8.594-8.03 22.094-7.562 30.124 1.032 8.062 8.624 7.594 22.124-1.032 30.156a152.356 152.356 0 0 0-3.188 3.094c-7.876 7.844-14.25 16.344-18.938 25.218-5.5 10.406-18.406 14.374-28.812 8.874a21.584 21.584 0 0 1-5.122-3.78z m61.282-59.344a21.474 21.474 0 0 1-3.094-3.938c-6.156-10.03-3.032-23.156 7-29.312 12.876-7.936 24.156-15.468 34.532-23.03 9.5-6.968 22.844-4.906 29.782 4.594 6.968 9.532 4.906 22.874-4.594 29.812-11.282 8.282-23.5 16.436-37.376 24.936a21.342 21.342 0 0 1-26.25-3.062z m69.218-51.53l-0.376-0.376c-8.124-8.532-7.812-22.032 0.718-30.156 1.312-1.282 2.624-2.562 3.906-3.844 8.406-8.406 15.624-16.938 21.406-25.406 6.656-9.718 19.936-12.218 29.654-5.562s12.218 19.938 5.562 29.656c-7.282 10.624-16.188 21.218-26.438 31.5-1.532 1.5-3.06 3.032-4.654 4.532-8.402 8-21.622 7.812-29.778-0.344z m47.03-71.342c-5.344-5.344-7.688-13.406-5.344-21.188 3.438-11.5 4.75-23.03 4-35.312-0.718-11.75 8.25-21.844 20-22.562s21.876 8.218 22.56 20c1.062 17.094-0.874 33.968-5.686 50.092-3.376 11.28-15.282 17.686-26.562 14.312a21.07 21.07 0 0 1-8.968-5.342z m-4.094-84.812a21.088 21.088 0 0 1-5-7.938c-4.032-11.312-9.686-23.218-16.78-35.374-5.938-10.186-2.5-23.25 7.656-29.186 10.186-5.938 23.248-2.5 29.186 7.656 8.438 14.468 15.218 28.78 20.124 42.624 3.938 11.094-1.876 23.282-12.968 27.25-8 2.842-16.594 0.592-22.218-5.032z" fill="#656D78" /><path d="M842.706 18.712c-24.938-24.936-65.532-24.936-90.5 0L118.794 652.154c-24.954 24.966-24.954 65.56 0 90.496 24.936 24.938 65.53 24.938 90.482 0l633.428-633.44c24.936-24.936 24.936-65.53 0.002-90.498z" fill="#965353" /><path d="M711.048 653.654a19.526 19.526 0 0 1-2.312-2.718c-0.594-0.844-6.062-8.594-12.376-21.282-5.28-10.532-1-23.344 9.532-28.594 10.532-5.282 23.344-1 28.624 9.532 4.844 9.688 8.968 15.594 9 15.624 6.782 9.624 4.5 22.938-5.094 29.718a21.3 21.3 0 0 1-27.374-2.28zM825.892 168.522a21.262 21.262 0 0 1-1.876-2.156 472.97 472.97 0 0 0-12.75-15.876c-7.562-9.032-6.376-22.468 2.656-30.062 9.032-7.562 22.468-6.376 30.032 2.656a466.226 466.226 0 0 1 13.968 17.406c7.124 9.344 5.342 22.75-4.032 29.876-8.56 6.562-20.56 5.594-27.998-1.844z" fill="#656D78" /><path d="M695.456 709.372l73.124 0.032c19.562-83.844-88.466-88.906-73.124-0.032z" fill="#AAB2BC" /><path d="M842.706 18.712c-24.938-24.936-65.532-24.936-90.5 0L661.74 109.21l90.466 90.5 90.5-90.5c24.934-24.936 24.934-65.53 0-90.498z" fill="#FFCE54" /><path d="M737.142 214.772l-90.498-90.468a21.33 21.33 0 0 1 0-30.186c8.312-8.312 21.844-8.312 30.156 0l90.498 90.5c8.312 8.342 8.312 21.842 0 30.156-8.342 8.34-21.842 8.34-30.156-0.002z" fill="#F6BB42" /><path d="M142.7 628.248h180.982l42.654-42.656h-180.98zM233.2 537.732h180.98l42.656-42.652h-180.982zM323.682 447.266h180.982l42.638-42.654h-180.966z" fill="#7F4545" /><path d="M837.518 726.464c-58.188-58.218-152.936-58.218-211.122 0-58.218 58.216-58.218 152.936 0 211.152 58.216 58.216 152.934 58.216 211.122 0 58.216-58.216 58.216-152.934 0-211.152z" fill="#CCD1D9" /><path d="M626.396 756.65l-30.188-30.186c-8.312-8.312-8.312-21.812 0-30.156 8.344-8.312 21.844-8.312 30.188 0l30.154 30.156c8.312 8.342 8.312 21.842 0 30.186-8.342 8.312-21.842 8.312-30.154 0z" fill="#E6E9ED" /><path d="M626.396 756.65l-30.188-30.186c-8.312-8.312-8.312-21.812 0-30.156 8.344-8.312 21.844-8.312 30.188 0l30.154 30.156c8.312 8.342 8.312 21.842 0 30.186-8.342 8.312-21.842 8.312-30.154 0zM546.24 847.12a21.27 21.27 0 0 1-6.234-15.062c0-11.782 9.546-21.344 21.328-21.344h42.656c11.782 0 21.312 9.562 21.312 21.344s-9.532 21.312-21.312 21.312h-42.656a21.234 21.234 0 0 1-15.094-6.25zM807.362 756.65c-8.312-8.344-8.312-21.844 0-30.186l30.156-30.156c8.344-8.312 21.842-8.312 30.186 0 8.312 8.344 8.312 21.844 0 30.156l-30.186 30.186c-8.312 8.312-21.812 8.312-30.156 0zM596.208 967.772c-8.312-8.312-8.312-21.81 0-30.154l30.188-30.156c8.312-8.344 21.81-8.344 30.154 0 8.312 8.312 8.312 21.812 0 30.156l-30.154 30.154a21.332 21.332 0 0 1-30.188 0zM747.048 847.12a21.332 21.332 0 0 1-30.188 0c-8.312-8.312-8.312-21.812 0-30.156a21.332 21.332 0 0 1 30.188 0c8.314 8.342 8.314 21.842 0 30.156zM792.268 801.87c-8.312 8.344-21.812 8.344-30.156 0-8.312-8.312-8.312-21.812 0-30.156 8.344-8.312 21.844-8.312 30.156 0 8.344 8.342 8.344 21.842 0 30.156zM792.268 892.37c-8.312 8.342-21.812 8.342-30.156 0-8.312-8.312-8.312-21.844 0-30.156 8.344-8.344 21.844-8.344 30.156 0 8.344 8.312 8.344 21.842 0 30.156zM701.798 892.37a21.334 21.334 0 0 1-30.186 0c-8.312-8.312-8.312-21.844 0-30.156a21.33 21.33 0 0 1 30.186 0c8.314 8.312 8.314 21.842 0 30.156zM701.798 801.87c-8.344 8.344-21.842 8.344-30.154 0-8.344-8.312-8.344-21.812 0-30.156 8.312-8.312 21.81-8.312 30.154 0 8.314 8.342 8.314 21.842 0 30.156z" fill="#E6E9ED" /></svg>