<?xml version="1.0" standalone="no"?><!DOCTYPE svg PUBLIC "-//W3C//DTD SVG 1.1//EN" "http://www.w3.org/Graphics/SVG/1.1/DTD/svg11.dtd"><svg class="icon" width="128px" height="128.00px" viewBox="0 0 1024 1024" version="1.1" xmlns="http://www.w3.org/2000/svg"><path d="M18.758482 1005.295018C6.664493 993.20103 0.0405 977.107046 0.0085 960.013062c0.032-17.093983 6.687993-33.155968 18.749982-45.249955l544.803468-544.801468c8.375992-8.343992 21.875979-8.343992 30.18797 0l60.307941 60.341941c3.999996 3.999996 6.249994 9.405991 6.249994 15.061985a21.359979 21.359979 0 0 1-6.249994 15.093985L109.288393 1005.295018c-24.967976 24.937976-65.561936 24.937976-90.529911 0z" fill="#DA4453" /><path d="M654.057861 430.30558l-60.307941-60.341941c-8.311992-8.343992-21.811979-8.343992-30.18797 0l-182.747822 182.777821 90.497912 90.499912 182.745821-182.779822c3.999996-3.999996 6.249994-9.437991 6.249994-15.093985 0-5.655994-2.249998-11.061989-6.249994-15.061985zM79.102423 854.425166L18.760482 914.765107C6.698493 926.859095 0.0425 942.921079 0.0105 960.015062c0.032 17.093983 6.655994 33.187968 18.749982 45.281956 24.967976 24.937976 65.559936 24.937976 90.529911 0l60.341941-60.343941-90.529911-90.527911z" fill="#AAB2BC" /><path d="M959.991563 298.683708c0-62.687939-24.375976-121.623881-68.687933-165.935838-44.307957-44.311957-103.245899-68.715933-165.933838-68.715933s-121.621881 24.405976-165.933838 68.715933c-91.499911 91.497911-91.499911 240.371765 0 331.869676 44.311957 44.343957 103.245899 68.749933 165.933838 68.749933s121.623881-24.405976 165.933838-68.749933c44.313957-44.311957 68.687933-103.247899 68.687933-165.933838z" fill="#CCD1D9" /><path d="M36.446464 1017.765006l13.437987-13.437987c8.343992-8.311992 8.343992-21.811979 0-30.15597s-21.843979-8.343992-30.15597 0L6.260494 987.639036a63.977938 63.977938 0 0 0 12.499988 17.655982 63.665938 63.665938 0 0 0 17.685982 12.469988z" fill="#434A54" /><path d="M253.878252 679.643336h181.029823l42.653959-42.651958h-181.025824zM163.38034 770.175248h181.029824l42.653958-42.687958-181.027823 0.032zM72.852429 860.675159h181.025823l42.657958-42.655958H115.538387z" opacity=".1" /><path d="M740.433777 313.777694c-8.311992 8.311992-21.811979 8.311992-30.187971 0-8.311992-8.343992-8.311992-21.841979 0-30.185971 8.375992-8.311992 21.875979-8.311992 30.187971 0 8.311992 8.341992 8.311992 21.841979 0 30.185971zM861.117659 162.935841c-8.307992-8.343992-8.307992-21.843979 0-30.187971l45.249956-45.249955c8.311992-8.341992 21.811979-8.341992 30.18797 0 8.311992 8.311992 8.311992 21.841979 0 30.15597l-45.249955 45.281956c-8.375992 8.313992-21.875979 8.313992-30.187971 0zM710.245806 100.437902c-3.811996-3.875996-6.249994-9.187991-6.249993-15.093985v-63.999938c0-11.779988 9.561991-21.343979 21.375979-21.343979 11.749989 0 21.311979 9.561991 21.311979 21.343979v63.999938c0 11.781988-9.561991 21.343979-21.311979 21.343979a21.253979 21.253979 0 0 1-15.125986-6.249994zM710.245806 591.117423c-3.811996-3.875996-6.249994-9.187991-6.249993-15.093986v-63.999937c0-11.781988 9.561991-21.343979 21.375979-21.343979 11.749989 0 21.311979 9.561991 21.311979 21.343979v63.999937c0 11.781988-9.561991 21.343979-21.311979 21.34398a21.385979 21.385979 0 0 1-15.125986-6.249994zM559.437954 162.935841l-45.249956-45.281956c-8.343992-8.311992-8.343992-21.841979 0-30.15597 8.311992-8.341992 21.843979-8.341992 30.12397 0l45.249956 45.249955a21.273979 21.273979 0 0 1 0 30.187971c-8.311992 8.313992-21.811979 8.313992-30.12397 0zM906.367615 509.867502l-45.249956-45.249956c-8.307992-8.311992-8.307992-21.843979 0-30.15597 8.311992-8.343992 21.811979-8.343992 30.187971 0l45.249955 45.249956c8.311992 8.311992 8.311992 21.843979 0 30.15597-8.375992 8.341992-21.875979 8.341992-30.18797 0zM432.938077 313.777694c-3.843996-3.875996-6.249994-9.187991-6.249994-15.091986 0-11.781988 9.561991-21.343979 21.343979-21.343979h63.999938c11.781988 0 21.343979 9.561991 21.343979 21.343979 0 11.779988-9.561991 21.341979-21.343979 21.341979h-63.999938c-5.905994 0-11.217989-2.405998-15.093985-6.249993zM923.617598 313.777694a21.223979 21.223979 0 0 1-6.249994-15.091986c0-11.781988 9.561991-21.343979 21.311979-21.343979h63.999938c11.811988 0 21.311979 9.561991 21.311979 21.343979 0 11.779988-9.499991 21.341979-21.311979 21.341979h-63.999938a21.223979 21.223979 0 0 1-15.061985-6.249993zM770.621747 253.433753a21.273979 21.273979 0 0 1 0-30.187971l30.123971-30.155971c8.375992-8.341992 21.875979-8.341992 30.187971 0 8.375992 8.343992 8.375992 21.843979 0 30.155971l-30.187971 30.187971c-8.311992 8.313992-21.811979 8.343992-30.123971 0zM619.749895 404.275605c-8.311992-8.311992-8.311992-21.843979 0-30.15597l30.18397-30.187971c8.311992-8.311992 21.811979-8.311992 30.187971 0 8.311992 8.343992 8.311992 21.843979 0 30.187971l-30.187971 30.15597c-8.375992 8.343992-21.871979 8.343992-30.18397 0zM688.183828 231.339774a21.199979 21.199979 0 0 1-5.499995-9.561991l-11.061989-41.215959c-3.061997-11.375989 3.687996-23.061977 15.061985-26.123975 11.375989-3.031997 23.061977 3.717996 26.123975 15.093985l11.061989 41.21796c3.061997 11.373989-3.687996 23.061977-15.061985 26.123975-7.685992 2.029998-15.435985-0.314-20.62398-5.533995zM743.371774 437.399573a21.199979 21.199979 0 0 1-5.499995-9.561991l-11.061989-41.21796c-2.999997-11.375989 3.749996-23.061977 15.123985-26.123974 11.375989-3.031997 23.061977 3.717996 26.123975 15.093985l10.999989 41.21796c3.061997 11.375989-3.687996 23.061977-15.061985 26.123974-7.623993 2.061998-15.373985-0.314-20.62398-5.531994zM586.623927 280.653726c-5.187995-5.217995-7.561993-12.967987-5.499995-20.62398 2.999997-11.375989 14.749986-18.123982 26.123975-15.061985L648.431867 255.99975c11.375989 3.061997 18.123982 14.749986 15.123985 26.123974-3.061997 11.375989-14.749986 18.123982-26.187974 15.093986l-41.18396-11.031989a21.573979 21.573979 0 0 1-9.559991-5.531995zM792.683726 335.869672c-5.187995-5.217995-7.561993-12.999987-5.499995-20.62398 3.061997-11.375989 14.749986-18.123982 26.123975-15.091985l41.18796 11.061989c11.371989 3.031997 18.121982 14.749986 15.121985 26.123975-3.061997 11.375989-14.745986 18.123982-26.121975 15.093985l-41.249959-11.061989a21.219979 21.219979 0 0 1-9.561991-5.501995z" fill="#E6E9ED" /><path d="M154.538349 960.015062L64.040437 869.519151c-8.343992-8.343992-8.343992-21.843979 0-30.155971 8.311992-8.343992 21.811979-8.343992 30.155971 0 0 0 0-0.032 0 0l90.499912 90.495912c8.343992 8.343992 8.343992 21.843979 0 30.15597-8.315992 8.343992-21.845979 8.343992-30.157971 0zM456.250054 658.335357l-90.529911-90.531911c-8.311992-8.311992-8.311992-21.843979 0-30.155971a21.331979 21.331979 0 0 1 30.18797 0l90.497912 90.499912a21.331979 21.331979 0 0 1 0 30.18797c-8.343992 8.307992-21.841979 8.307992-30.155971 0z" fill="#ED5564" /></svg>