<?xml version="1.0" standalone="no"?><!DOCTYPE svg PUBLIC "-//W3C//DTD SVG 1.1//EN" "http://www.w3.org/Graphics/SVG/1.1/DTD/svg11.dtd"><svg class="icon" width="128px" height="128.00px" viewBox="0 0 1024 1024" version="1.1" xmlns="http://www.w3.org/2000/svg"><path d="M846.52 236.81l-86.654-39.998-114.684 41.342-134.994-50.686-128.996 62.686-134.65-62.686-86.654 54.686-113.34-5.344 129.34 449.282 673.288-8 119.996-441.282z" fill="#4B89DA" /><path d="M981.326 185.344l-49.686 33.124c-9.75 6.5-22.624 9.75-35.5 9.75-12.842 0-25.714-3.25-35.496-9.75l-56.998-37.998c-9.75-6.532-22.624-9.782-35.5-9.782s-25.718 3.25-35.498 9.782l-56.998 37.998c-9.75 6.5-22.624 9.75-35.498 9.75-12.844 0-25.718-3.25-35.498-9.75l-56.998-37.998c-9.75-6.532-22.624-9.782-35.5-9.782-12.842 0-25.718 3.25-35.5 9.782l-56.966 37.998c-9.782 6.5-22.656 9.75-35.53 9.75-12.844 0-25.718-3.25-35.5-9.75l-56.966-37.998c-9.782-6.532-22.656-9.782-35.5-9.782-12.876 0-25.75 3.25-35.5 9.782l-56.998 37.998c-9.782 6.5-22.656 9.75-35.5 9.75-12.876 0-25.75-3.25-35.5-9.75L39.08 182.718v51.28l29.936 19.968c16.376 10.906 37.406 16.904 59.186 16.904s42.78-5.998 59.154-16.904l56.998-38c1.344-0.906 5.562-2.594 11.844-2.594 6.25 0 10.468 1.688 11.812 2.594l56.998 38c16.374 10.906 37.406 16.904 59.154 16.904 21.78 0 42.812-5.998 59.184-16.904l57-38c1.344-0.906 5.53-2.594 11.812-2.594s10.5 1.688 11.844 2.594l56.998 38c16.376 10.906 37.374 16.904 59.154 16.904s42.81-5.998 59.186-16.904l56.996-38c1.344-0.906 5.532-2.594 11.812-2.594s10.5 1.688 11.844 2.594l57 38c16.374 10.906 37.374 16.904 59.15 16.904 21.782 0 42.812-5.998 59.188-16.904l25.998-17.344V185.344z" fill="#5E9CEA" /><path d="M853.332 703.998H170.7a21.37 21.37 0 0 1-20.624-15.782L0.768 133.564C-2.292 122.19 4.424 110.502 15.8 107.44c11.406-3.062 23.092 3.656 26.156 15.032l145.088 538.84H836.96l145.086-538.84c3.062-11.376 14.782-18.094 26.156-15.032 11.374 3.062 18.092 14.75 15.03 26.124l-149.304 554.652a21.338 21.338 0 0 1-20.596 15.782zM169.512 810.65h682.632c11.782 0 21.344-9.562 21.344-21.344s-9.562-21.312-21.344-21.312H169.512c-11.78 0-21.342 9.532-21.342 21.312s9.562 21.344 21.342 21.344zM852.144 874.648H169.512c-11.78 0-21.342 9.56-21.342 21.34 0 11.782 9.562 21.312 21.342 21.312h682.632c11.782 0 21.344-9.532 21.344-21.312 0-11.78-9.562-21.34-21.344-21.34z" fill="#646C77" /></svg>