<?xml version="1.0" standalone="no"?><!DOCTYPE svg PUBLIC "-//W3C//DTD SVG 1.1//EN" "http://www.w3.org/Graphics/SVG/1.1/DTD/svg11.dtd"><svg class="icon" width="128px" height="128.00px" viewBox="0 0 1024 1024" version="1.1" xmlns="http://www.w3.org/2000/svg"><path d="M846.52 290.15l-86.654-39.998-114.684 41.31-134.994-50.654-128.996 62.654-134.65-62.654-86.654 54.654-113.34-5.312 129.34 449.28 673.288-8 119.996-441.28z" fill="#4B89DA" /><path d="M981.326 238.682l-49.686 33.092c-9.75 6.532-22.624 9.782-35.5 9.782-12.842 0-25.714-3.25-35.496-9.782l-56.998-37.998c-9.75-6.5-22.624-9.75-35.5-9.75s-25.718 3.25-35.498 9.75l-56.998 37.998c-9.75 6.532-22.624 9.782-35.498 9.782-12.844 0-25.718-3.25-35.498-9.782l-56.998-37.998c-9.75-6.5-22.624-9.75-35.5-9.75-12.842 0-25.718 3.25-35.5 9.75l-56.998 37.998c-9.75 6.532-22.624 9.782-35.5 9.782-12.844 0-25.718-3.25-35.5-9.782l-56.966-37.998c-9.782-6.5-22.656-9.75-35.53-9.75-12.844 0-25.718 3.25-35.5 9.75l-56.966 37.998c-9.782 6.532-22.656 9.782-35.5 9.782-12.876 0-25.75-3.25-35.5-9.782L39.08 236.026v51.28l29.936 19.968c16.376 10.936 37.406 16.936 59.186 16.936 21.75 0 42.78-6 59.154-16.936l56.998-37.998c1.344-0.876 5.562-2.594 11.812-2.594 6.282 0 10.5 1.718 11.844 2.594l56.998 37.998c16.374 10.936 37.374 16.936 59.154 16.936s42.812-6 59.184-16.936l57-37.998c1.344-0.876 5.53-2.594 11.812-2.594s10.5 1.718 11.844 2.594l56.998 37.998c16.376 10.936 37.374 16.936 59.154 16.936s42.81-6 59.186-16.936l56.996-37.998c1.344-0.876 5.532-2.594 11.812-2.594s10.5 1.718 11.844 2.594l57 37.998c16.374 10.936 37.374 16.936 59.15 16.936 21.782 0 42.812-6 59.188-16.936l25.998-17.312v-51.28z" fill="#5E9CEA" /><path d="M853.332 757.302H170.7a21.37 21.37 0 0 1-20.624-15.78L0.768 186.904c-3.06-11.374 3.656-23.092 15.032-26.154a21.34 21.34 0 0 1 26.156 15.062l145.088 538.838H836.96l145.086-538.838c3.062-11.374 14.782-18.124 26.156-15.062 11.374 3.062 18.092 14.78 15.03 26.154l-149.304 554.62a21.34 21.34 0 0 1-20.596 15.778zM851.926 821.302H169.262c-11.78 0-21.312 9.562-21.312 21.344 0 11.78 9.532 21.342 21.312 21.342h682.664c11.782 0 21.312-9.562 21.312-21.342s-9.53-21.344-21.312-21.344z" fill="#646C77" /></svg>