<?xml version="1.0" standalone="no"?><!DOCTYPE svg PUBLIC "-//W3C//DTD SVG 1.1//EN" "http://www.w3.org/Graphics/SVG/1.1/DTD/svg11.dtd"><svg class="icon" width="128px" height="128.00px" viewBox="0 0 1024 1024" version="1.1" xmlns="http://www.w3.org/2000/svg"><path d="M846.542 343.46l-86.684-39.998-114.684 41.342-135.01-50.684-128.964 62.684-134.652-62.684-86.682 54.684-113.31-5.344 129.308 449.314 673.304-8 119.996-441.314z" fill="#4B89DA" /><path d="M981.318 291.994l-49.654 33.124c-9.75 6.5-22.624 9.75-35.5 9.75-12.874 0-25.746-3.25-35.496-9.75l-56.998-37.998c-9.75-6.5-22.624-9.782-35.5-9.782s-25.75 3.282-35.498 9.782l-56.998 37.998c-9.782 6.5-22.624 9.75-35.498 9.75-12.876 0-25.75-3.25-35.498-9.75L547.68 287.12c-9.766-6.5-22.64-9.782-35.516-9.782-12.874 0-25.75 3.282-35.5 9.782l-56.998 37.998c-9.75 6.5-22.624 9.75-35.5 9.75s-25.75-3.25-35.5-9.75l-56.998-37.998c-9.75-6.5-22.624-9.782-35.5-9.782s-25.75 3.282-35.5 9.782l-56.998 37.998c-9.75 6.5-22.624 9.75-35.5 9.75-12.876 0-25.75-3.25-35.5-9.75l-53.624-35.748v51.278l29.936 19.968c16.376 10.906 37.406 16.936 59.186 16.936s42.81-6.032 59.184-16.936l56.966-38c1.344-0.906 5.562-2.594 11.844-2.594 6.25 0 10.5 1.688 11.812 2.594l56.998 38c16.374 10.906 37.406 16.936 59.186 16.936s42.78-6.032 59.154-16.936l57-38c1.344-0.906 5.562-2.594 11.842-2.594 6.25 0 10.5 1.688 11.812 2.594l57.014 38c16.376 10.906 37.404 16.936 59.186 16.936 21.748 0 42.78-6.032 59.154-16.936l56.996-38c1.344-0.906 5.532-2.594 11.844-2.594 6.25 0 10.5 1.688 11.812 2.594l57 38c16.374 10.906 37.404 16.936 59.182 16.936 21.75 0 42.782-6.032 59.156-16.936l25.998-17.344v-51.278z" fill="#5E9CEA" /><path d="M853.324 810.648H170.676a21.37 21.37 0 0 1-20.624-15.782L0.746 240.246c-3.062-11.374 3.688-23.092 15.062-26.156s23.062 3.688 26.124 15.062l145.088 538.84h649.962l145.054-538.84c3.062-11.376 14.782-18.124 26.156-15.062 11.374 3.062 18.124 14.782 15.06 26.156l-149.336 554.622a21.304 21.304 0 0 1-20.592 15.78z" fill="#646C77" /></svg>