<?xml version="1.0" standalone="no"?><!DOCTYPE svg PUBLIC "-//W3C//DTD SVG 1.1//EN" "http://www.w3.org/Graphics/SVG/1.1/DTD/svg11.dtd"><svg class="icon" width="128px" height="128.00px" viewBox="0 0 1024 1024" version="1.1" xmlns="http://www.w3.org/2000/svg"><path d="M471.660158 106.665583c0 11.781954-9.561963 21.343917-21.311917 21.343917-11.811954 0-21.341917-9.561963-21.341917-21.343917s9.529963-21.343917 21.341917-21.343916c11.747954 0 21.311917 9.561963 21.311917 21.343916zM215.665158 448.00025c0 11.749954-9.529963 21.309917-21.341917 21.309917-11.749954 0-21.311917-9.559963-21.311917-21.309917 0-11.811954 9.561963-21.343917 21.311917-21.343917a21.311917 21.311917 0 0 1 21.341917 21.343917z" fill="#FC6E51" /><path d="M45.013824 703.99125c0 11.781954-9.561963 21.311917-21.343916 21.311917-11.779954 0-21.341917-9.531963-21.341917-21.311917 0-11.779954 9.561963-21.341917 21.341917-21.341917 11.781954 0 21.343917 9.561963 21.343916 21.341917z" fill="#A0D468" /><path d="M471.660158 874.644583c0 11.781954-9.561963 21.343917-21.311917 21.343917-11.811954 0-21.341917-9.561963-21.341917-21.343917s9.529963-21.343917 21.341917-21.343916c11.747954 0 21.311917 9.563963 21.311917 21.343916z" fill="#ED5564" /><path d="M855.648658 959.98625c0 11.781954-9.529963 21.311917-21.309917 21.311917s-21.343917-9.531963-21.343917-21.311917 9.561963-21.343917 21.343917-21.343917 21.309917 9.561963 21.309917 21.343917z" fill="#FFCE54" /><path d="M748.995074 618.649583v-21.341916c0-11.781954-9.561963-21.311917-21.343916-21.311917s-21.311917 9.531963-21.311917 21.311917v21.341916a21.331917 21.331917 0 0 0-21.341917 21.343917c0 11.781954 9.561963 21.311917 21.341917 21.311917v21.343916c0 11.781954 9.531963 21.341917 21.311917 21.341917s21.343917-9.559963 21.343916-21.341917v-21.343916c11.781954 0 21.343917-9.531963 21.343917-21.311917 0-11.811954-9.561963-21.343917-21.343917-21.343917z" fill="#48CFAD" /><path d="M151.667408 191.97525V170.663333c0-11.781954-9.531963-21.343917-21.341917-21.343916-11.749954 0-21.311917 9.561963-21.311917 21.343916v21.311917c-11.811954 0-21.341917 9.561963-21.341916 21.343917 0 11.779954 9.529963 21.341917 21.341916 21.341916v21.311917c0 11.781954 9.561963 21.343917 21.311917 21.343917 11.811954 0 21.341917-9.561963 21.341917-21.343917v-21.311917c11.781954 0 21.341917-9.561963 21.341916-21.341916s-9.559963-21.343917-21.341916-21.343917z" fill="#AC92EB" /><path d="M66.325741 1002.640083a42.359835 42.359835 0 0 1-29.749884-12.123952c-8.187968-7.935969-12.74995-18.591927-12.905949-29.997883s4.155984-22.155913 12.093952-30.311882c88.999652-91.341643 230.745099-243.869047 256.368999-289.710868 50.405803-90.091648 109.029574-158.495381 151.839407-208.431186 19.781923-23.09391 36.873856-43.029832 46.435818-57.435775 23.499908-35.467861 84.935668-126.373506 148.279421-204.8712 99.245612-123.029519 144.651435-143.091441 173.089324-146.809427 5.623978-0.749997 14.655943-1.623994 25.781899-1.623993 22.873911 0 44.559826 3.561986 64.435749 10.561958 41.811837 14.687943 70.779724 43.249831 83.841672 82.593678 20.091922 60.685763 14.343944 110.589568 11.687954 126.339506-0.937996 13.843946-6.561974 54.437787-39.903844 82.02968-19.187925 15.905938-43.031832 23.967906-70.811723 23.967906-8.999965 0-18.531928-0.875997-28.31189-2.59399-28.05989-4.875981-49.997805-15.31194-65.123745-30.999879-14.937942-15.46794-23.03191-35.529861-24.031906-59.591767-0.999996-23.499908 17.343932-43.40383 40.84384-44.403826 0.593998-0.032 1.217995-0.032 1.843993-0.032 22.499912 0 40.93784 17.309932 42.497834 39.653845 2.155992 3.281987 11.155956 9.405963 20.123921 11.623955 4.311983 1.093996 8.437967 1.623994 12.217953 1.623993 6.687974 0 12.311952-1.687993 16.249936-4.905981 6.811973-5.561978 8.999965-18.061929 9.281964-22.375912 0.032-2.56199 0.311999-4.937981 0.875997-7.62397 0.375999-2.031992 6.843973-39.779845-8.437968-85.839665-4.249983-12.87595-13.249948-21.905914-27.467892-27.687892-13.967945-5.687978-29.653884-6.875973-40.373843-6.875973-7.499971 0-12.74995 0.593998-13.875945 0.717997-2.343991 0.623998-32.781872 10.18796-118.031539 115.839548-61.057761 75.685704-120.713528 163.96536-143.52744 198.401225-12.465951 18.811927-30.247882 39.561845-52.779793 65.809742-40.499842 47.249815-95.935625 111.935563-142.153445 194.58924-39.373846 70.345725-246.273038 283.528892-269.740946 307.588799-8.093968 8.311968-18.937926 12.90595-30.561881 12.905949z" fill="#A85D5D" /><path d="M1006.08207 107.759579c-7.59197-22.843911-19.965922-42.811833-36.809856-59.311768-16.435936-16.061937-36.685857-28.437889-60.215765-36.685857C886.900536 3.949985 862.83863 0.012 837.558728 0.012c-12.281952 0-22.311913 0.967996-28.531888 1.781993-23.281909 3.061988-46.467818 14.153945-73.031715 34.903864-31.687876 24.811903-68.965731 63.93775-113.933555 119.685532-63.90575 79.185691-125.779509 170.745333-149.433416 206.463194-8.811966 13.311948-25.5319 32.779872-44.841825 55.341783-43.40583 50.623802-102.841598 119.935532-154.247398 211.869173-21.811915 38.999848-146.651427 176.089312-253.025011 285.242886-11.935953 12.249952-18.373928 28.405889-18.185929 45.499822 0.249999 17.093933 7.093972 33.059871 19.341924 44.997824 12.031953 11.717954 27.905891 18.187929 44.655826 18.187929 17.187933 0 33.875868-7.061972 45.843821-19.343924 2.46799-2.53199 61.279761-62.903754 123.059519-130.151492 82.965676-90.311647 132.059484-149.809415 149.997414-181.933289 45.185823-80.811684 99.83961-144.529435 139.747454-191.057254 22.99991-26.875895 41.185839-48.059812 54.373788-67.965734 22.655912-34.187866 81.84368-121.809524 142.339444-196.777232 69.467729-86.091664 99.999609-104.93359 106.593584-108.307577 1.999992-0.155999 5.03198-0.311999 8.717965-0.311999 12.467951 0 23.935907 1.875993 32.341874 5.28198 10.593959 4.311983 13.655947 9.811962 15.249941 14.623943 13.187948 39.843844 8.155968 72.559717 7.749969 75.123706a57.977774 57.977774 0 0 0-1.249995 10.467959c-0.217999 2.249991-1.031996 5.249979-1.781993 6.937973a13.223948 13.223948 0 0 1-2.43799 0.217999c-2.061992 0-4.437983-0.343999-7.061973-0.999996-1.623994-0.405998-3.655986-1.281995-5.437979-2.249991-6.499975-28.623888-31.935875-49.685806-62.341756-49.685806-0.905996 0-1.843993 0.032-2.749989 0.062-17.061933 0.717997-32.843872 8.031969-44.405827 20.623919-11.593955 12.591951-17.561931 28.903887-16.843934 45.997821 1.217995 28.999887 11.593955 54.435787 29.999883 73.497713 18.343928 18.999926 44.187827 31.531877 76.8097 37.217854 10.999957 1.905993 21.749915 2.875989 31.967875 2.875989 32.905871 0 61.311761-9.687962 84.43567-28.843887 17.99993-14.905942 31.281878-34.405866 39.497846-57.903774 5.499979-15.749938 7.375971-29.781884 7.999969-38.061851 2.965988-18.315928 8.529967-71.62572-12.657951-135.561471z m-29.779884 130.58949c-0.531998 9.655962-4.311983 44.905825-32.279874 68.059734-15.31194 12.68795-34.499865 19.061926-57.217776 19.061926-7.811969 0-16.031937-0.749997-24.655904-2.249992-48.68581-8.499967-69.965727-34.185866-71.49772-70.465724-0.499998-11.781954 8.655966-21.717915 20.43792-22.217914 0.311999 0 0.623998-0.032 0.937996-0.031999 11.343956 0 20.781919 8.999965 21.249917 20.43792 0.593998 14.187945 21.497916 26.561896 36.215859 30.249882 6.187976 1.531994 11.999953 2.249991 17.375932 2.249991 12.343952 0 22.405912-3.749985 29.749883-9.717962 15.781938-12.87595 17.031933-36.749856 17.093934-38.217851 0-1.467994 0.155999-2.65599 0.467998-4.093984 0.094-0.343999 8.623966-43.279831-9.093965-96.777622-14.281944-43.093832-62.187757-49.155808-88.091656-49.155808-9.437963 0-15.967938 0.811997-16.875934 0.905997-8.405967 1.123996-42.655833 13.281948-131.653485 123.559517-61.591759 76.373702-121.715525 165.307354-144.683435 200.025219-11.749954 17.717931-29.187886 38.031851-51.2178 63.747751-41.06184 47.905813-97.30962 113.497557-144.559435 197.995226-38.655849 69.09173-257.116996 293.618853-266.39896 303.148816a21.239917 21.239917 0 0 1-15.28194 6.437975c-5.375979 0-10.749958-1.999992-14.873942-6.061977-8.437967-8.217968-8.623966-21.717915-0.375999-30.155882 77.249698-79.27969 230.931098-242.807052 259.680986-294.180851 49.341807-88.215655 107.185581-155.683392 149.403417-204.961199 20.249921-23.623908 37.749853-44.031828 48.029812-59.529767 23.343909-35.217862 84.341671-125.46551 147.091425-203.245206 95.589627-118.465537 136.683466-136.091468 159.277378-139.059457 4.937981-0.655997 12.999949-1.437994 22.99991-1.437995 15.717939 0 36.309858 1.937992 57.341776 9.343964 35.343862 12.437951 59.781766 36.343858 70.687724 69.18773 19.435924 58.651771 12.591951 106.617584 10.715958 117.149542z" fill="#965353" /></svg>