<?xml version="1.0" standalone="no"?><!DOCTYPE svg PUBLIC "-//W3C//DTD SVG 1.1//EN" "http://www.w3.org/Graphics/SVG/1.1/DTD/svg11.dtd"><svg class="icon" width="128px" height="128.00px" viewBox="0 0 1024 1024" version="1.1" xmlns="http://www.w3.org/2000/svg"><path d="M895.99 277.226c0 11.782-9.562 21.342-21.312 21.342-11.812 0-21.374-9.562-21.374-21.342s9.56-21.328 21.374-21.328c11.75 0 21.312 9.546 21.312 21.328zM554.688 362.568c0 11.78-9.562 21.328-21.36 21.328-11.78 0-21.328-9.546-21.328-21.328s9.548-21.344 21.328-21.344c11.796 0 21.36 9.562 21.36 21.344z" fill="#EC87C0" /><path d="M938.646 405.222c0 11.782-9.532 21.344-21.344 21.344-11.75 0-21.312-9.562-21.312-21.344s9.562-21.328 21.312-21.328a21.318 21.318 0 0 1 21.344 21.328z" fill="#FC6E51" /><path d="M831.992 85.23h-21.31V64.122c0-11.782-9.562-21.328-21.376-21.328-11.75 0-21.312 9.546-21.312 21.328v21.108h-21.312c-11.812 0-21.376 9.562-21.376 21.342s9.562 21.328 21.376 21.328h21.312v21.328c0 11.782 9.562 21.342 21.312 21.342 11.812 0 21.376-9.562 21.376-21.342V127.902h21.31c11.782 0 21.312-9.546 21.312-21.328s-9.53-21.344-21.312-21.344z" fill="#ED5564" /><path d="M746.682 298.568h-21.376v-21.124c0-11.782-9.532-21.328-21.31-21.328-11.782 0-21.312 9.546-21.312 21.328v21.124h-21.374c-11.75 0-21.312 9.546-21.312 21.328s9.562 21.328 21.312 21.328h21.374v21.344c0 11.78 9.532 21.328 21.312 21.328 11.78 0 21.31-9.546 21.31-21.328v-21.344h21.376c11.75 0 21.312-9.546 21.312-21.328 0-11.78-9.562-21.328-21.312-21.328z" fill="#AC92EB" /><path d="M669.31 981.208c141.372 0 255.992-21.906 255.992-48.938l-15.062-397.786s-60.248-32.64-240.93-32.64c-180.7 0-240.934 32.64-240.934 32.64l-15.06 397.786c0 27.03 114.608 48.938 255.994 48.938z" fill="#434A54" /><path d="M910.24 534.484s-60.248-32.64-240.93-32.64c-7.312 0-14.406 0.062-21.312 0.172 164.122 2.422 219.586 32.468 219.586 32.468l15.062 397.786c0 25.656-103.278 46.718-234.648 48.782 7 0.094 14.124 0.156 21.312 0.156 141.372 0 255.992-21.906 255.992-48.938l-15.062-397.786z" fill="#FFFFFF" opacity=".1" /><path d="M1023.986 554.562c0 70.684-162.372 127.996-362.676 127.996-200.278 0-362.648-57.312-362.648-127.996 0-70.702 162.372-127.998 362.648-127.998 200.306 0.002 362.676 57.296 362.676 127.998z" fill="#656D78" /><path d="M661.31 597.214c-56.594 0-110.654-5.656-152.216-15.902-42.294-10.438-57.638-22.25-60.732-26.75 3.094-4.532 18.438-16.344 60.732-26.782 41.562-10.25 95.624-15.89 152.216-15.89 56.622 0 110.684 5.64 152.246 15.89 42.31 10.438 57.622 22.25 60.746 26.782-3.124 4.5-18.436 16.312-60.746 26.75-41.562 10.246-95.624 15.902-152.246 15.902z" fill="#434A54" /><path d="M29.154 451.518l554.22-319.992 42.686 73.89L71.824 525.406z" fill="#656D78" /><path d="M591.186 102.386L0.014 443.706l63.998 110.858 591.174-341.334-64-110.844zM58.292 459.33l517.3-298.664 21.344 36.952-517.3 298.648-21.344-36.936z" fill="#434A54" /><path d="M591.17 102.378l63.996 110.84-147.776 85.32-63.996-110.84z" fill="#F6BB42" /><path d="M464.736 224.664l147.824-85.326 21.314 36.936-147.794 85.342z" fill="#FFCE54" /><path d="M22.092 480.658l147.792-85.326 21.328 36.936-147.792 85.342z" fill="#656D78" /></svg>