<?xml version="1.0" standalone="no"?><!DOCTYPE svg PUBLIC "-//W3C//DTD SVG 1.1//EN" "http://www.w3.org/Graphics/SVG/1.1/DTD/svg11.dtd"><svg class="icon" width="128px" height="128.00px" viewBox="0 0 1024 1024" version="1.1" xmlns="http://www.w3.org/2000/svg"><path d="M908.118 621.37c-45.5-38.246-54.372-126.744-63.684-220.554-9.25-92.682-18.876-188.554-62.498-265.552C730.56 44.642 642.252 0.394 511.93 0.02c-130.214 0.376-218.492 44.624-269.896 135.244-43.624 76.998-53.216 172.87-62.434 265.552-9.376 93.748-18.186 182.308-63.684 220.554l-18.5 15.562 17.718 16.436c2.376 2.188 24.81 21.938 85.214 40.938 78.498 24.688 183.368 37.248 311.644 37.248 128.26 0 233.13-12.56 311.628-37.248 60.372-19 82.872-38.75 85.246-40.938l17.75-16.436-18.498-15.562z" fill="#7F4545" /><path d="M877.742 772.74l-3.624-1.062c-52.932-14.188-70.806-27.876-94.432-36.812-83.56-31.874-105.308-54.81-110.872-65.686-0.188-0.376-0.376-0.75-0.562-1.188l-0.688-97.056-155.572-2.312-155.588 2.312-0.688 97.056c-0.188 0.438-0.312 0.812-0.532 1.188-5.562 10.876-27.342 33.812-110.902 65.686-23.56 8.938-41.466 22.624-94.434 36.812l-3.624 1.062c-48.184 15.936-80.59 60.624-80.59 111.056v140.184h892.732v-140.184c0-50.432-32.436-95.12-80.624-111.056z" fill="#434A54" /><path d="M489.056 725.366h42.686v154.15h-42.686z" fill="#656D78" /><path d="M355.716 667.992c-0.188 0.438-0.312 0.812-0.532 1.188-1.938 3.812-5.906 9.124-13.844 15.782v196.774h42.686v-225.46H355.78l-0.064 11.716zM682.69 684.96c-7.938-6.656-11.938-11.968-13.876-15.782-0.188-0.376-0.376-0.75-0.562-1.188l-0.062-11.718h-28.188v223.242h42.688V684.96z" fill="#CCD1D9" /><path d="M447.496 786.644l62.902-61.278-155.212-100.872v44.686zM510.398 725.366l62.858 61.278 95.558-117.464-0.624-36.686zM511.992 1023.98H704v-32.032c0-11.748 3.562-30.248 7.938-41.154l5.5-13.718c4.312-10.906 4.312-28.748 0-39.624l-5.5-13.75c-4.376-10.906-17.5-20.344-29.248-20.968l-150.728-8.248c-5.812-0.344-13.438-0.5-21.094-0.5-7.812 0-15.594 0.188-21.5 0.5l-148.12 8.216c-11.718 0.656-24.874 10.094-29.216 21l-5.5 13.75c-4.344 10.876-4.406 28.748-0.124 39.654l5.75 14.75c4.282 10.938 7.782 29.468 7.782 41.186v30.938h192.052z" fill="#E6E9ED" /><path d="M787.124 382.13c0 178.744-170.432 343.236-275.13 343.236-104.684 0-275.084-164.492-275.084-343.236 0-178.806 123.184-296.676 275.084-296.676 151.946 0 275.13 117.87 275.13 296.676z" fill="#EAC6BB" /><path d="M564.006 161.326c0.376 0.312 34.31 30.5 87.308 60.874 43.31 24.874 107.808 54.498 178.87 62.248-8.998-53.248-22.874-104.432-48.248-149.182C730.56 44.642 642.252 0.394 511.93 0.02c-130.214 0.374 52.076 161.306 52.076 161.306z" fill="#965353" /><path d="M377.81 363.068c63.092-31.936 126.214-76.434 187.696-132.056 75.558-68.436 129.306-136.182 154.182-169.682C668.44 20.456 599.754 0.27 511.93 0.02c-130.214 0.376-218.492 44.624-269.896 135.244-43.624 76.998-53.216 172.87-62.434 265.552-0.75 7.25-1.468 14.438-2.188 21.562 65.996-5.438 133.276-25.312 200.398-59.31z" fill="#A85D5D" /></svg>