<?xml version="1.0" standalone="no"?><!DOCTYPE svg PUBLIC "-//W3C//DTD SVG 1.1//EN" "http://www.w3.org/Graphics/SVG/1.1/DTD/svg11.dtd"><svg class="icon" width="128px" height="128.00px" viewBox="0 0 1024 1024" version="1.1" xmlns="http://www.w3.org/2000/svg"><path d="M362.406 217.446c-23.312-2.562-58.376 5.938-77.906 18.938l-249 166C15.968 415.382 0 445.29 0 468.726v512.016c0 23.5 19.218 42.688 42.656 42.688h938.688c23.438 0 42.656-19.188 42.656-42.688V468.726c0-23.438-15.968-53.344-35.5-66.344l-171.812-114.5c-19.532-13.062-54.594-25.812-77.906-28.438l-376.376-41.998z" fill="#FFCE54" /><path d="M738.812 259.446l-188.218-21-188.188-21c-23.312-2.562-58.344 5.938-77.876 18.938L160 319.382l-124.5 83C23.624 410.32 13.094 424.476 6.624 439.6l504.594 331.828 505.75-332.766c-6.5-14.812-16.844-28.532-28.468-36.282l-85.906-57.25-85.938-57.312c-19.532-12.998-54.532-25.748-77.844-28.372z" fill="#F6BB42" /><path d="M192 852.742H106.656c-11.75 0-21.312-9.5-21.312-21.312 0-11.75 9.562-21.312 21.312-21.312H192c11.782 0 21.344 9.562 21.344 21.312 0 11.812-9.562 21.312-21.344 21.312zM362.656 938.118h-256c-11.75 0-21.312-9.562-21.312-21.376 0-11.75 9.562-21.312 21.312-21.312h256c11.812 0 21.344 9.562 21.344 21.312 0 11.812-9.532 21.376-21.344 21.376z" fill="#434A54" /><path d="M895.968 518.226L511.032 771.43 127.968 519.414V0.57h597.376l170.624 170.688z" fill="#E6E9ED" /><path d="M725.344 171.258h170.624L725.344 0.57z" fill="#CCD1D9" /><path d="M558.718 750.118c-11.688-13.124-28.718-21.376-47.688-21.376-18.938 0-35.938 8.25-47.688 21.376l-16.312 21.312v21.312c0 35.376 28.688 64 64 64 35.376 0 64-28.624 64-64v-21.312l-16.312-21.312z" fill="#DA4453" /><path d="M575.032 771.43c0 35.376-28.624 64-64 64-35.312 0-64-28.624-64-64 0-35.312 28.688-64 64-64 35.374 0 64 28.688 64 64z" fill="#ED5564" /><path d="M747.624 403.79H278.28c-11.782 0-21.312 9.532-21.344 21.344 0.032 11.75 9.562 21.312 21.344 21.312h469.344c11.782 0 21.344-9.562 21.344-21.344s-9.562-21.312-21.344-21.312zM387.968 137.414l64.376 107.532 36.624-21.906-64.376-107.562-0.032 0.032c-3.718-6.218-10.5-10.406-18.282-10.406-11.782 0-21.312 9.562-21.312 21.344 0 4 1.124 7.75 3.032 10.938l-0.03 0.028zM638.124 137.414l-0.032-0.032a21.01 21.01 0 0 0 3.062-10.938c0-11.782-9.562-21.344-21.344-21.344-7.782 0-14.562 4.188-18.282 10.406l-0.032-0.032-64.376 107.562 36.594 21.906 64.41-107.528zM278.468 278.882c0.376 2.656 10.25 64.75 74.624 88.876l14.968-39.938c-40.344-15.156-47.156-53.688-47.406-55.312l0.032 0.156h-0.032c-1.5-10.312-10.376-18.218-21.094-18.218-11.782 0-21.312 9.562-21.312 21.344 0 1.062 0.094 2.094 0.25 3.094h-0.03zM747.406 278.882h-0.032c0.156-1 0.25-2.032 0.25-3.094 0-11.782-9.562-21.344-21.344-21.344-10.718 0-19.562 7.906-21.062 18.218h-0.032c-0.062 0.406-6.312 39.75-47.406 55.156l15 39.938c64.344-24.124 74.22-86.216 74.626-88.874zM726.062 592.68c-0.406-2.624-10.25-64.734-74.624-88.89l-14.968 39.968c40.344 15.11 47.124 53.672 47.406 55.296l-0.032-0.188h0.032c1.5 10.312 10.344 18.25 21.094 18.25 11.75 0 21.312-9.562 21.312-21.312 0-1.062-0.094-2.124-0.25-3.124h0.03zM299.844 592.68h0.032c-0.156 1-0.25 2.062-0.25 3.124 0 11.75 9.532 21.312 21.312 21.312 10.718 0 19.594-7.938 21.094-18.25l0.032 0.062c0.062-0.438 6.312-39.75 47.406-55.172l-15-39.938c-64.376 24.128-74.22 86.236-74.626 88.862z" fill="#434A54" /><path d="M683.5 382.446c0 129.594-48.718 234.672-170.562 234.672-121.812 0-170.532-105.078-170.532-234.672s63.406-192 170.562-192c107.126 0 170.532 62.406 170.532 192z" fill="#ED5564" /><path d="M671.688 297.102H354.218c-4.188 13.032-7.25 27.25-9.25 42.688h146.656v276.204c6.844 0.75 13.938 1.124 21.312 1.124 7.406 0 14.5-0.376 21.344-1.124V339.79h146.656c-1.968-15.438-5.06-29.688-9.248-42.688z" fill="#DA4453" /></svg>