<?xml version="1.0" standalone="no"?><!DOCTYPE svg PUBLIC "-//W3C//DTD SVG 1.1//EN" "http://www.w3.org/Graphics/SVG/1.1/DTD/svg11.dtd"><svg class="icon" width="128px" height="128.00px" viewBox="0 0 1024 1024" version="1.1" xmlns="http://www.w3.org/2000/svg"><path d="M221.412 336.39c7.938-62.078-47.014-196.386-61.186-198.198-14.188-1.812-101.092 114.404-109.014 176.496-7.922 62.076 23.766 117.262 70.764 123.262 47 5.984 91.53-39.468 99.436-101.56z" fill="#A0D468" /><path d="M26.962 374.404l-0.016 0.032a20.7 20.7 0 0 0-5.61-0.782c-11.782 0-21.326 9.546-21.326 21.328 0 9.844 6.654 18.094 15.702 20.562v0.032c0.64 0.172 65.468 17.92 141.466 42.388l13.062-40.624c-76.888-24.732-142.62-42.748-143.278-42.936z" fill="#434A54" /><path d="M737.682 385.748c-106.748 2.578-234.806-138.716-351.93-138.762-196.152-0.078-274.572 195.4-248.182 333.164 26.39 137.714 132.904 227.278 363.742 219.934 253.526-8.094 455.552-287.714 436.052-336.588-19.53-48.872-137.246-79.264-199.682-77.748z" fill="#E9573F" /><path d="M932.584 454.574c-34.654 89.67-214.056 295.916-431.272 302.854-230.838 7.344-337.352-82.218-363.742-219.966a275.192 275.192 0 0 1-4.218-32.67c-1.766 25.966-0.344 51.514 4.218 75.358 26.39 137.714 132.904 227.278 363.742 219.934 253.526-8.094 455.552-287.714 436.052-336.588a50.76 50.76 0 0 0-4.78-8.922z" opacity=".1" /><path d="M767.994 885.83c141.374 0 255.994-114.59 255.994-255.994H512c0 141.404 114.622 255.994 255.994 255.994z" fill="#FC6E51" /><path d="M767.994 864.486c129.592 0 234.65-105.058 234.65-234.65H533.328c0 129.592 105.044 234.65 234.666 234.65z" fill="#FFCE54" /><path d="M917.302 629.836v0.032c0 11.75 9.562 21.312 21.344 21.312s21.344-9.562 21.344-21.312v-0.032h-42.688zM831.992 629.868c0 11.75 9.562 21.312 21.312 21.312 11.812 0 21.344-9.562 21.344-21.312v-0.032h-42.656v0.032zM746.65 629.868c0 11.75 9.562 21.312 21.344 21.312 11.78 0 21.31-9.562 21.31-21.312v-0.032h-42.654v0.032zM661.308 629.868c0 11.75 9.562 21.312 21.344 21.312s21.344-9.562 21.344-21.312v-0.032h-42.688v0.032zM575.998 629.868c0 11.75 9.562 21.312 21.31 21.312 11.812 0 21.344-9.562 21.344-21.312v-0.032h-42.654v0.032z" opacity=".1" /></svg>