<?xml version="1.0" standalone="no"?><!DOCTYPE svg PUBLIC "-//W3C//DTD SVG 1.1//EN" "http://www.w3.org/Graphics/SVG/1.1/DTD/svg11.dtd"><svg class="icon" width="128px" height="128.00px" viewBox="0 0 1024 1024" version="1.1" xmlns="http://www.w3.org/2000/svg"><path d="M746.682 513.938h-85.34c-11.782 0-21.344-9.546-21.344-21.344V64.01c0-35.294 28.718-63.998 63.998-63.998 35.31 0 63.998 28.704 63.998 63.998v428.584c0 11.796-9.532 21.344-21.312 21.344z" fill="#FFD2A6" /><path d="M856.804 933.52c-40.248 58.344-94.498 90.468-152.808 90.468-58.28 0-112.56-32.124-152.746-90.468-38.562-55.902-59.81-129.84-59.81-208.212 0-78.342 21.248-152.308 59.81-208.198 40.186-58.328 94.466-90.452 152.746-90.452 58.31 0 112.56 32.124 152.808 90.452 38.53 55.888 59.748 129.856 59.748 208.198 0 78.372-21.218 152.31-59.748 208.212z" fill="#A0D468" /><path d="M491.44 725.306c0-36.998 4.748-73.06 13.81-106.654h397.522c9.062 33.594 13.782 69.656 13.782 106.654 0 37.032-4.718 73.06-13.782 106.686H505.25c-9.062-33.624-13.81-69.654-13.81-106.686z" fill="#ED5564" /><path d="M598.124 725.306c0-11.748-9.562-21.31-21.344-21.31-11.78 0-21.342 9.562-21.342 21.31a21.332 21.332 0 0 0 21.342 21.344c11.78 0 21.344-9.53 21.344-21.344zM683.436 725.306c0-11.748-9.532-21.31-21.312-21.31s-21.344 9.562-21.344 21.31c0 11.812 9.562 21.344 21.344 21.344s21.312-9.53 21.312-21.344zM768.776 725.306c0-11.748-9.532-21.31-21.344-21.31-11.75 0-21.31 9.562-21.31 21.31 0 11.812 9.56 21.344 21.31 21.344a21.312 21.312 0 0 0 21.344-21.344zM854.118 725.306c0-11.748-9.56-21.31-21.342-21.31s-21.344 9.562-21.344 21.31c0 11.812 9.562 21.344 21.344 21.344s21.342-9.53 21.342-21.344z" fill="#DA4453" /><path d="M639.998 151.274V64.01c0-35.294 28.718-63.998 63.998-63.998 35.31 0 63.998 28.704 63.998 63.998v87.264h-127.996z" fill="#A0D468" /><path d="M856.804 933.52c-40.248 58.344-94.498 90.468-152.808 90.468-3.562 0-7.124-0.124-10.656-0.376 54.248-3.688 104.374-35.312 142.124-90.094 38.53-55.902 59.778-129.84 59.778-208.212 0-78.342-21.248-152.308-59.778-208.198-37.75-54.75-87.876-86.404-142.124-90.092a161.374 161.374 0 0 1 10.656-0.36c58.31 0 112.56 32.124 152.808 90.452 38.53 55.888 59.748 129.856 59.748 208.198 0 78.374-21.218 152.312-59.748 208.214z" fill="#FFFFFF" opacity=".1" /><path d="M362.692 510.046h-85.342c-11.782 0-21.342 9.562-21.342 21.344v428.598c0 35.282 28.716 64 63.998 64 35.31 0 63.998-28.718 63.998-64V531.39c0-11.78-9.532-21.344-21.312-21.344z" fill="#FFD2A6" /><path d="M472.814 90.462C432.564 32.12 378.316 0.01 320.006 0.01c-58.282 0-112.56 32.11-152.746 90.452-38.562 55.904-59.812 129.842-59.812 208.2s21.25 152.308 59.812 208.212c40.186 58.31 94.464 90.436 152.746 90.436 58.31 0 112.558-32.124 152.808-90.436 38.53-55.904 59.748-129.856 59.748-208.212s-21.218-152.294-59.748-208.2z" fill="#A0D468" /><path d="M107.448 298.662c0 37.03 4.75 73.06 13.812 106.668h397.524c9.062-33.608 13.78-69.638 13.78-106.668 0-37.016-4.716-73.046-13.78-106.654H121.26c-9.062 33.608-13.812 69.638-13.812 106.654z" fill="#ED5564" /><path d="M214.132 298.662c0 11.78-9.562 21.342-21.344 21.342s-21.342-9.562-21.342-21.342c0-11.782 9.56-21.328 21.342-21.328s21.344 9.546 21.344 21.328zM299.444 298.662c0 11.78-9.532 21.342-21.312 21.342s-21.344-9.562-21.344-21.342c0-11.782 9.562-21.328 21.344-21.328s21.312 9.546 21.312 21.328zM384.786 298.662c0 11.78-9.532 21.342-21.344 21.342-11.75 0-21.312-9.562-21.312-21.342 0-11.782 9.562-21.328 21.312-21.328 11.812 0 21.344 9.546 21.344 21.328zM470.126 298.662c0 11.78-9.562 21.342-21.344 21.342s-21.344-9.562-21.344-21.342c0-11.782 9.562-21.328 21.344-21.328s21.344 9.546 21.344 21.328z" fill="#DA4453" /><path d="M256.008 872.71v87.278c0 35.282 28.716 64 63.998 64 35.31 0 63.998-28.718 63.998-64v-87.278h-127.996z" fill="#A0D468" /><path d="M472.814 90.462C432.564 32.12 378.316 0.01 320.006 0.01c-3.562 0-7.124 0.124-10.656 0.36 54.248 3.672 104.372 35.328 142.122 90.092 38.532 55.904 59.78 129.842 59.78 208.2s-21.248 152.308-59.78 208.212c-37.75 54.748-87.874 86.404-142.122 90.092 3.532 0.218 7.094 0.344 10.656 0.344 58.31 0 112.558-32.124 152.808-90.436 38.53-55.904 59.748-129.856 59.748-208.212s-21.218-152.294-59.748-208.2z" fill="#FFFFFF" opacity=".1" /></svg>