<?xml version="1.0" standalone="no"?><!DOCTYPE svg PUBLIC "-//W3C//DTD SVG 1.1//EN" "http://www.w3.org/Graphics/SVG/1.1/DTD/svg11.dtd"><svg class="icon" width="128px" height="128.00px" viewBox="0 0 1024 1024" version="1.1" xmlns="http://www.w3.org/2000/svg"><path d="M192.01 405.338c-94.092 0-170.652-76.56-170.652-170.652 0-94.122 76.56-170.652 170.652-170.652 94.106 0 170.666 76.53 170.666 170.652 0 94.092-76.56 170.652-170.666 170.652z" fill="#FFCE54" /><path d="M192.01 42.692C85.98 42.692 0.014 128.658 0.014 234.688s85.966 191.996 191.996 191.996c106.042 0 191.994-85.966 191.994-191.996s-85.952-191.996-191.994-191.996z m147.824 170.652h-96.31l68.108-68.092a147.564 147.564 0 0 1 28.202 68.092z m-126.482-126.496a147.928 147.928 0 0 1 68.108 28.218l-68.108 68.124V86.848z m-42.67 96.34L102.574 115.066a147.936 147.936 0 0 1 68.108-28.218v96.34z m0 199.308c-24.782-3.532-48.092-13.156-68.108-28.218l68.108-68.092v96.31z m42.67-96.31l68.108 68.092c-20.014 15.062-43.326 24.686-68.108 28.218v-96.31zM72.402 145.252l68.108 68.092H44.202a147.54 147.54 0 0 1 28.2-68.092z m-28.2 110.778h96.308l-68.108 68.092c-15.03-20.03-24.686-43.31-28.2-68.092z m267.428 68.092l-68.108-68.092h96.31c-3.514 24.782-13.17 48.062-28.202 68.092z" fill="#F6BB42" /><path d="M597.342 670.254h42.656v298.618h-42.656z" fill="#CCD1D9" /><path d="M618.686 682.692c-172.464 0-192.012-256.008-192.012-256.008h384.008c0-0.002-19.562 256.008-191.996 256.008z" fill="#DA4453" /><path d="M874.678 469.336H362.676c-127.996 0-149.324-255.992-149.324-255.992h810.634s-42.654 255.992-149.308 255.992z" fill="#E6E9ED" /><path d="M227.882 298.686c17.954 74.466 56.326 170.652 134.792 170.652h512.002c65.376 0 106.716-96.184 128.936-170.652H227.882z" fill="#ED5564" /><path d="M767.994 938.684H469.346c-11.782 0-21.328 9.562-21.328 21.312 0 11.812 9.546 21.312 21.328 21.312h298.648c11.782 0 21.344-9.5 21.344-21.312 0-11.75-9.562-21.312-21.344-21.312z" fill="#E6E9ED" /><path d="M597.342 681.254c6.844 0.938 13.938 1.438 21.344 1.438 127.746 0 171.59-140.512 185.746-213.354h-42.688c-13.312 68.622-52.998 197.29-164.402 211.916zM981.332 213.344s-42.654 255.992-149.34 255.992h42.686c106.654 0 149.308-255.992 149.308-255.992h-42.654z" fill="#FFFFFF" opacity=".2" /></svg>