<?xml version="1.0" standalone="no"?><!DOCTYPE svg PUBLIC "-//W3C//DTD SVG 1.1//EN" "http://www.w3.org/Graphics/SVG/1.1/DTD/svg11.dtd"><svg class="icon" width="128px" height="128.00px" viewBox="0 0 1024 1024" version="1.1" xmlns="http://www.w3.org/2000/svg"><path d="M682.652 554.696H1002.64v341.3H682.652z" fill="#FC6E51" /><path d="M1002.64 533.336H682.652c-11.782 0-21.312 9.562-21.312 21.36v341.3a21.28 21.28 0 0 0 21.312 21.312H1002.64c11.782 0 21.344-9.5 21.344-21.312v-341.3c0-11.798-9.562-21.36-21.344-21.36z m-21.312 106.668H938.64v-64h42.688v64z m-191.992 0v-64h106.652v64h-106.652z m31.996 42.688V768h-117.34v-85.308h117.34z m74.656 127.992v64h-106.652v-64h106.652z m-32-42.684v-85.308h117.34V768h-117.34z m-117.34-191.996v64h-42.656v-64h42.656z m-42.656 234.68h42.656v64h-42.656v-64z m234.648 64v-64h42.688v64H938.64z" fill="#E9573F" /><path d="M21.36 554.696h319.99v341.3H21.36z" fill="#FC6E51" /><path d="M341.35 533.336H21.36c-11.78 0-21.342 9.562-21.342 21.36v341.3c0 11.812 9.562 21.312 21.342 21.312h319.99a21.28 21.28 0 0 0 21.312-21.312v-341.3c0-11.798-9.532-21.36-21.312-21.36z m-21.344 106.668h-42.654v-64h42.654v64z m-191.994 0v-64h106.652v64H128.012z m32 42.688V768h-117.34v-85.308h117.34z m74.654 127.992v64H128.012v-64h106.654z m-32-42.684v-85.308h117.34V768h-117.34z m-117.308-191.996v64H42.672v-64h42.686z m-42.686 234.68h42.686v64H42.672v-64z m234.68 64v-64h42.654v64h-42.654z" fill="#E9573F" /><path d="M405.348 375.34h213.304v179.354H405.348z" fill="#CCD1D9" /><path d="M711.336 300.624C686.242 159.472 557.532 106.818 512 106.692c-45.53 0.124-174.244 52.78-199.336 193.932-12.656 71.248 10.312 149.09 39.842 149.09 29.562 0 57.874-15.688 88.372-19.312 30.5-3.594 107.186-3.594 137.682 0 30.5 3.624 63.376 19.312 92.938 19.312 29.526 0 52.494-77.842 39.838-149.09z" fill="#ED5564" /><path d="M712.68 309.25c-0.062 0-110.184 21.624-110.464 125.808 23.344 5.938 47.25 14.656 69.282 14.656 28.338 0 50.65-71.716 41.182-140.464zM312.664 300.624c234.618 16.968 119.684-167.682 119.558-167.9-50.124 28.374-104.216 81.59-119.558 167.9z" fill="#E6E9ED" /><path d="M682.652 533.336H341.35c-11.782 0-21.344 9.562-21.344 21.36v341.3c0 11.812 9.562 21.312 21.344 21.312h341.302c11.778 0 21.34-9.5 21.34-21.312v-341.3c0-11.798-9.562-21.36-21.34-21.36z" fill="#FFCE54" /><path d="M420.41 633.754c-8.312 8.312-21.812 8.312-30.156 0s-8.344-21.812 0-30.188c8.344-8.312 21.842-8.312 30.156 0 8.342 8.376 8.342 21.876 0 30.188zM633.746 633.754c-8.344 8.312-21.844 8.312-30.156 0-8.344-8.312-8.344-21.812 0-30.188 8.312-8.312 21.812-8.312 30.156 0 8.344 8.376 8.344 21.876 0 30.188zM420.41 847.058c-8.312 8.376-21.812 8.376-30.156 0-8.344-8.312-8.344-21.812 0-30.124 8.344-8.372 21.842-8.372 30.156 0 8.342 8.312 8.342 21.812 0 30.124z" fill="#F6BB42" /><path d="M633.746 847.058c-8.344 8.376-21.844 8.376-30.156 0-8.344-8.312-8.344-21.812 0-30.124 8.312-8.372 21.812-8.372 30.156 0 8.344 8.312 8.344 21.812 0 30.124z" fill="#F6BB42" /><path d="M711.336 300.624C686.242 159.472 557.532 106.818 512 106.692c-3.156 0-6.75 0.282-10.656 0.812 52.282 7.094 165.308 61.78 188.648 193.12 11.75 66.124-7.188 137.902-33.558 147.902 5.094 0.75 10.124 1.188 15.062 1.188 29.528 0 52.496-77.842 39.84-149.09z" fill="#FFFFFF" opacity=".2" /></svg>