<?xml version="1.0" standalone="no"?><!DOCTYPE svg PUBLIC "-//W3C//DTD SVG 1.1//EN" "http://www.w3.org/Graphics/SVG/1.1/DTD/svg11.dtd"><svg class="icon" width="128px" height="128.00px" viewBox="0 0 1024 1024" version="1.1" xmlns="http://www.w3.org/2000/svg"><path d="M362.796 703.6c0 11.774-9.554 21.328-21.328 21.328-11.772 0-21.328-9.554-21.328-21.328 0-11.772 9.556-21.326 21.328-21.326 11.774 0 21.328 9.554 21.328 21.326z" fill="#E6E9ED" /><path d="M405.418 874.624h-191.85L143.374 575.232l262.42 1.842-60.484 124.966zM853.052 467.128c0 70.632-57.266 127.9-127.898 127.9s-127.9-57.268-127.9-127.9c0-70.664 57.268-127.9 127.9-127.9s127.898 57.236 127.898 127.9zM43.046 447.8c0-11.774-9.554-21.328-21.328-21.328S0.422 436.028 0.422 447.8V490.454c0 11.742 9.524 21.296 21.296 21.296s21.328-9.554 21.328-21.296V447.8z" fill="#434A54" /><path d="M789.104 767.55l-405.012-127.9V298.604l405.012-127.9z" fill="#E6E9ED" /><path d="M254.818 554.404c0 11.74-9.554 21.296-21.326 21.296H43.046c-11.772 0-21.328-9.556-21.328-21.296v-170.554c0-11.772 9.554-21.294 21.328-21.294h190.446c11.772 0 21.326 9.524 21.326 21.294v170.554z" fill="#ED5564" /><path d="M405.418 618.354c0 11.742-9.554 21.296-21.328 21.296H128.324c-11.804 0-21.328-9.554-21.328-21.296V319.9c0-11.772 9.524-21.296 21.328-21.296h255.768c11.772 0 21.328 9.524 21.328 21.296v298.454z" fill="#F5F7FA" /><path d="M767.776 149.376c-11.77 0-21.294 9.554-21.294 21.328v596.846c0 11.772 9.526 21.326 21.294 21.326 11.774 0 21.328-9.554 21.328-21.326V170.704c0-11.772-9.556-21.328-21.328-21.328z" fill="#CCD1D9" /><path d="M895.678 447.8c-11.774 0-21.296 9.554-21.296 21.326s9.524 21.328 21.296 21.328h106.604c11.772 0 21.294-9.554 21.294-21.328 0-11.772-9.524-21.326-21.294-21.326h-106.604zM895.708 405.178c2.622 0 5.308-0.5 7.898-1.532l106.574-42.624c10.928-4.372 16.236-16.798 11.866-27.728-4.374-10.928-16.768-16.238-27.698-11.866l-106.574 42.624c-10.928 4.372-16.236 16.8-11.864 27.728 3.31 8.34 11.336 13.398 19.798 13.398zM1010.182 577.23l-106.574-42.624c-10.93-4.372-23.324 0.938-27.696 11.866-4.374 10.93 0.936 23.326 11.864 27.698l106.574 42.654c2.592 1.032 5.278 1.53 7.9 1.53 8.462 0 16.486-5.09 19.796-13.426 4.372-10.93-0.936-23.326-11.864-27.698z" fill="#ED5564" /></svg>