<?xml version="1.0" standalone="no"?><!DOCTYPE svg PUBLIC "-//W3C//DTD SVG 1.1//EN" "http://www.w3.org/Graphics/SVG/1.1/DTD/svg11.dtd"><svg class="icon" width="128px" height="128.00px" viewBox="0 0 1024 1024" version="1.1" xmlns="http://www.w3.org/2000/svg"><path d="M695.992 358.266l-30.188-30.156L978.492 15.438l30.188 30.172z" fill="#DA4453" /><path d="M692.868 331.11c-79.25-79.25-183.124-118.876-286.984-118.876-103.876 0-207.75 39.624-287 118.876-158.5 158.516-158.5 415.516 0 574.016C198.132 984.376 302.008 1024 405.882 1024c103.86 0 207.734-39.624 286.984-118.876 158.502-158.5 158.502-415.5 0.002-574.014z m-30.126 543.828c-34.75 34.688-75.124 61.562-120.188 79.812-43.5 17.624-89.484 26.562-136.672 26.562s-93.188-8.938-136.718-26.562c-45.032-18.282-85.438-45.124-120.124-79.812s-61.532-75.094-79.782-120.124c-17.656-43.5-26.594-89.5-26.594-136.688s8.938-93.188 26.594-136.704c18.25-45.032 45.094-85.454 79.782-120.14s75.124-61.532 120.156-79.782c43.5-17.656 89.5-26.594 136.688-26.594s93.172 8.938 136.672 26.594c45.062 18.25 85.5 45.094 120.188 79.782 34.624 34.688 61.5 75.11 79.75 120.14 17.624 43.516 26.624 89.516 26.624 136.704s-9 93.188-26.624 136.688c-18.252 45.03-45.126 85.436-79.752 120.124zM1002.68 0h-192c-11.812 0-21.376 9.546-21.376 21.328s9.562 21.344 21.376 21.344h170.624v170.656c0 11.782 9.562 21.344 21.376 21.344 11.75 0 21.312-9.562 21.312-21.344v-192C1023.992 9.546 1014.43 0 1002.68 0z" fill="#ED5565" /></svg>