<?xml version="1.0" standalone="no"?><!DOCTYPE svg PUBLIC "-//W3C//DTD SVG 1.1//EN" "http://www.w3.org/Graphics/SVG/1.1/DTD/svg11.dtd"><svg class="icon" width="128px" height="128.00px" viewBox="0 0 1024 1024" version="1.1" xmlns="http://www.w3.org/2000/svg"><path d="M277.2 599.302c-3.25 0-6.532-0.75-9.562-2.25l-67.998-34c-10.5-5.28-14.782-18.06-9.5-28.592 5.25-10.532 18.062-14.812 28.592-9.532l56.216 28.094 92.06-68.75c9.406-7.062 22.75-5.124 29.812 4.312 7.062 9.436 5.124 22.78-4.312 29.842l-102.56 76.624a21.236 21.236 0 0 1-12.748 4.252zM123.892 650.582c-11.75 0-21.312-9.53-21.312-21.31v-63.968c0-11.78 9.562-21.31 21.312-21.31 11.812 0 21.344 9.532 21.344 21.31v63.968c0 11.78-9.53 21.31-21.344 21.31z" fill="#7F4545" /><path d="M21.334 753.172a21.28 21.28 0 0 1-15.062-6.25c-8.344-8.344-8.344-21.844 0-30.156L577.878 145.162c8.31-8.344 21.81-8.344 30.124 0 8.344 8.312 8.344 21.812 0 30.156L36.396 746.922a21.28 21.28 0 0 1-15.062 6.25z" fill="#965353" /><path d="M1023.614 902.45c-10.938-57.718-42.686-114.842-94.372-169.808-54.5-57.996-85.186-125.838-91.216-201.586-4.532-57.092 7.406-97.654 7.532-97.998a21.452 21.452 0 0 0-5.188-21.186c-5.468-5.562-13.562-7.686-21.062-5.562-109.184 31.186-192.054 81.716-246.302 150.184-42.966 54.186-68.624 120.214-76.562 196.804-0.876-1.25-1.75-2.468-2.594-3.718-5.094-7.344-10.406-14.938-15.75-21.594-4.656-5.844-12.062-8.782-19.468-7.812a21.296 21.296 0 0 0-16.686 12.656c-25.998 59.748-38.186 118.402-36.31 174.308 0.376 11.5 9.812 20.592 21.31 20.592h575.732c6.344 0 12.376-2.812 16.406-7.716a21.346 21.346 0 0 0 4.53-17.564z" fill="#FFCE54" /><path d="M1023.614 902.45c-10.938-57.718-42.686-114.842-94.372-169.808-54.5-57.996-85.186-125.838-91.216-201.586-4.532-57.092 7.406-97.654 7.532-97.998a21.452 21.452 0 0 0-5.188-21.186c-5.468-5.562-13.562-7.686-21.062-5.562a718.848 718.848 0 0 0-20.874 6.312 21.346 21.346 0 0 1 4.468 20.436c-0.094 0.344-12.032 40.906-7.5 97.998 6 75.748 36.686 143.59 91.214 201.586 51.656 54.966 83.404 112.09 94.342 169.808a21.216 21.216 0 0 1-4.532 17.562 21.226 21.226 0 0 1-16.406 7.716h42.654c6.344 0 12.376-2.812 16.406-7.716a21.328 21.328 0 0 0 4.534-17.562z" fill="#FFFFFF" opacity=".2" /><path d="M650.658 223.126l-120.59-120.622c-8.312-8.312-21.814-8.312-30.158 0l-120.588 120.622c-4 4-6.25 9.406-6.25 15.062s2.25 11.062 6.25 15.062l120.588 120.622a21.306 21.306 0 0 0 30.156 0l120.59-120.622c4-4 6.25-9.406 6.25-15.062s-2.248-11.062-6.248-15.062z" fill="#EC87C0" /><path d="M641.814 223.126c0 5.624-2.218 11.062-6.218 15.062l-120.59 120.59c-4 4-9.438 6.25-15.094 6.25s-11.094-2.25-15.094-6.218l15.094 15.062a21.306 21.306 0 0 0 30.156 0l120.59-120.622c4-4 6.25-9.406 6.25-15.062s-2.25-11.062-6.25-15.062l-15.062-15.092c4 4 6.218 9.438 6.218 15.092z" fill="#FFFFFF" opacity=".2" /></svg>