<?xml version="1.0" standalone="no"?><!DOCTYPE svg PUBLIC "-//W3C//DTD SVG 1.1//EN" "http://www.w3.org/Graphics/SVG/1.1/DTD/svg11.dtd"><svg class="icon" width="128px" height="128.00px" viewBox="0 0 1024 1024" version="1.1" xmlns="http://www.w3.org/2000/svg"><path d="M341.34 256.008V0.014H170.688v255.994l-127.996 127.996v597.328c0 23.562 19.092 42.654 42.656 42.654h341.334c23.562 0 42.656-19.092 42.656-42.654V384.004l-127.998-127.996z" fill="#A0D468" /><path d="M384.012 490.69c0-11.782-9.546-21.344-21.328-21.344H149.346c-11.782 0-21.328 9.562-21.328 21.344S137.564 512 149.346 512h213.338c11.78 0 21.328-9.53 21.328-21.31z" fill="#E9573F" /><path d="M170.688 0.014h170.652v170.684H170.688z" fill="#434A54" /><path d="M746.688 789.338h42.624v213.338h-42.624z" fill="#CCD1D9" /><path d="M256.014 490.69m-63.998 0a63.998 63.998 0 1 0 127.996 0 63.998 63.998 0 1 0-127.996 0Z" fill="#FC6E51" /><path d="M128.018 597.342h255.994v298.648H128.018z" fill="#FC6E51" /><path d="M768 853.336L554.696 554.688h426.612z" fill="#E6E9ED" /><path d="M959.996 448.002c0-11.748-9.562-21.31-21.312-21.31-7.188 0-13.5 3.532-17.376 8.938l-157.84 220.87 34.718 24.81 157.84-220.9h-0.032a21.22 21.22 0 0 0 4.002-12.408z" fill="#FFD2A6" /><path d="M920.372 640.03H615.628L768 853.336z" fill="#A0D468" /><path d="M853.312 981.332h-170.622c-11.812 0-21.376 9.562-21.376 21.344s9.562 21.31 21.376 21.31h170.622c11.808 0 21.372-9.53 21.372-21.31s-9.562-21.344-21.372-21.344z" fill="#E6E9ED" /><path d="M341.34 256.008V0.014h-42.656v255.994l127.996 127.996v597.328c0 23.562-19.108 42.654-42.67 42.654h42.67c23.562 0 42.656-19.092 42.656-42.654V384.004l-127.996-127.996zM938.684 554.688l-191.996 268.806L768 853.336l213.308-298.648z" fill="#FFFFFF" opacity=".2" /></svg>