<?xml version="1.0" standalone="no"?><!DOCTYPE svg PUBLIC "-//W3C//DTD SVG 1.1//EN" "http://www.w3.org/Graphics/SVG/1.1/DTD/svg11.dtd"><svg class="icon" width="128px" height="128.00px" viewBox="0 0 1024 1024" version="1.1" xmlns="http://www.w3.org/2000/svg"><path d="M448 170.676c11.782 0 21.328-9.546 21.328-21.328S459.782 128.006 448 128.006h-21.328c11.782 0 21.328-9.546 21.328-21.328s-9.546-21.328-21.328-21.328c11.782 0 21.328-9.562 21.328-21.342 0-11.782-9.546-21.328-21.328-21.328V21.352c0-11.782-9.562-21.344-21.344-21.344S384 9.57 384 21.352V42.68c-11.78 0-21.328 9.546-21.328 21.328 0 11.78 9.546 21.342 21.328 21.342-11.78 0-21.328 9.546-21.328 21.328S372.218 128.006 384 128.006h-21.328c-11.782 0-21.344 9.562-21.344 21.344s9.562 21.328 21.344 21.328c-11.782 0-21.344 9.546-21.344 21.342 0 11.782 9.562 21.328 21.344 21.328H384c-11.78 0-21.328 9.546-21.328 21.328S372.218 256.02 384 256.02c-11.78 0-21.328 9.546-21.328 21.328 0 11.78 9.546 21.328 21.328 21.328v241.34h42.672v-241.34c11.782 0 21.328-9.546 21.328-21.328s-9.546-21.328-21.328-21.328c11.782 0 21.328-9.562 21.328-21.344s-9.546-21.328-21.328-21.328H448c11.782 0 21.328-9.546 21.328-21.328 0.002-11.796-9.546-21.344-21.328-21.344z" fill="#434A54" /><path d="M469.33 618.686c0 11.75-9.546 21.31-21.328 21.31h-85.326c-11.782 0-21.344-9.56-21.344-21.31v-85.342c0-11.782 9.562-21.328 21.344-21.328H448c11.782 0 21.328 9.546 21.328 21.328v85.342zM682.684 448.016c0 11.782-9.562 21.328-21.374 21.328H576c-11.782 0-21.312-9.546-21.312-21.328v-85.342c0-11.782 9.532-21.328 21.312-21.328h85.31c11.81 0 21.374 9.546 21.374 21.328v85.342z" fill="#656D78" /><path d="M533.328 426.672V938.68c0 47.124 38.204 85.312 85.358 85.312 47.124 0 85.31-38.188 85.31-85.312V426.672h-170.668zM320.004 597.342V938.68c0 47.124 38.202 85.312 85.326 85.312 47.14 0 85.342-38.188 85.342-85.312V597.342h-170.668z" fill="#AC92EB" /></svg>