<?xml version="1.0" standalone="no"?><!DOCTYPE svg PUBLIC "-//W3C//DTD SVG 1.1//EN" "http://www.w3.org/Graphics/SVG/1.1/DTD/svg11.dtd"><svg class="icon" width="128px" height="128.00px" viewBox="0 0 1024 1024" version="1.1" xmlns="http://www.w3.org/2000/svg"><path d="M874.688 362.688H592.376v298.624h282.312c82.438 0 149.312-66.812 149.312-149.282 0-82.498-66.876-149.342-149.312-149.342z m0 256H635.062V405.344h239.624c58.812 0 106.624 47.876 106.624 106.688 0.002 58.78-47.81 106.656-106.622 106.656zM0 512.032c0 82.468 66.844 149.282 149.344 149.282h282.282V362.688H149.344C66.844 362.688 0 429.562 0 512.032z m388.968 106.656H149.344c-58.812 0-106.688-47.876-106.688-106.656 0-58.812 47.876-106.688 106.688-106.688h239.624v213.344z" fill="#CCD1D9" /><path d="M832 682.688c0 23.562-19.124 42.624-42.688 42.624H234.656c-23.562 0-42.656-19.062-42.656-42.624V341.344c0-23.562 19.094-42.656 42.656-42.656h554.656c23.562 0 42.688 19.094 42.688 42.656v341.344z" fill="#48CFAD" /><path d="M789.312 298.688h-42.624c23.562 0 42.624 19.094 42.624 42.656v341.344c0 23.562-19.062 42.624-42.624 42.624h42.624c23.562 0 42.688-19.062 42.688-42.624V341.344c0-23.562-19.124-42.656-42.688-42.656z" fill="#FFFFFF" opacity=".2" /><path d="M725.718 597.312H299.032v0.062c-0.124 0-0.25-0.062-0.376-0.062-11.75 0-21.312 9.562-21.312 21.376 0 11.75 9.562 21.312 21.312 21.312H725.72c11.782 0 21.344-9.562 21.344-21.312-0.002-11.812-9.564-21.376-21.346-21.376zM298.468 554.688c0.124 0 0.25-0.062 0.376-0.062v0.062h426.688c11.782 0 21.344-9.562 21.344-21.344s-9.562-21.312-21.344-21.312H298.468c-11.782 0-21.312 9.532-21.312 21.312s9.532 21.344 21.312 21.344z" fill="#37BC9B" /></svg>