<?xml version="1.0" standalone="no"?><!DOCTYPE svg PUBLIC "-//W3C//DTD SVG 1.1//EN" "http://www.w3.org/Graphics/SVG/1.1/DTD/svg11.dtd"><svg class="icon" width="128px" height="128.00px" viewBox="0 0 1024 1024" version="1.1" xmlns="http://www.w3.org/2000/svg"><path d="M736.116 1023.982c71.906-84.714 117.374-209.492 117.374-348.614 0-255.178-152.87-462.032-341.488-462.032S170.512 420.192 170.512 675.37c0 139.122 45.466 263.898 117.372 348.614h448.232z" fill="#E5E8EC" /><path d="M648.12 560.186s-12.966 125.808-139.62 146.462v82.654c229.742 12 325.614-177.776 325.614-177.776l-185.994-51.34z" fill="#5E9CEA" /><path d="M376.942 560.186s13 125.808 139.652 146.462v82.654c-229.774 12-325.644-177.776-325.644-177.776l185.992-51.34z" fill="#5E9CEA" /><path d="M256.008 959.984a21.224 21.224 0 0 1-15.06-6.248 21.274 21.274 0 0 1 0-30.188l42.624-42.656c8.344-8.344 21.874-8.344 30.186 0s8.312 21.844 0 30.156l-42.654 42.688a21.364 21.364 0 0 1-15.096 6.248z" fill="#EC5564" /><path d="M341.318 959.984a21.284 21.284 0 0 1-15.062-6.248l-42.686-42.688c-8.312-8.312-8.312-21.812 0-30.156 8.344-8.344 21.874-8.344 30.186 0l42.688 42.656c8.31 8.344 8.31 21.842 0 30.188a21.378 21.378 0 0 1-15.126 6.248z" fill="#EC5564" /><path d="M341.318 959.984a21.284 21.284 0 0 1-15.062-6.248c-8.312-8.346-8.312-21.844 0-30.188l42.688-42.656c8.31-8.344 21.81-8.344 30.154 0s8.344 21.844 0 30.156l-42.654 42.688a21.378 21.378 0 0 1-15.126 6.248z" fill="#EC5564" /><path d="M426.69 959.984c-5.5 0-10.936-2.094-15.124-6.248l-42.624-42.688c-8.376-8.312-8.376-21.812 0-30.156 8.31-8.344 21.81-8.344 30.154 0l42.654 42.656c8.312 8.344 8.312 21.842 0 30.188a21.28 21.28 0 0 1-15.06 6.248z" fill="#EC5564" /><path d="M426.69 959.984c-5.5 0-10.936-2.094-15.124-6.248-8.312-8.346-8.312-21.844 0-30.188l42.686-42.656c8.312-8.344 21.842-8.344 30.188 0 8.31 8.344 8.31 21.844 0 30.156l-42.688 42.688a21.286 21.286 0 0 1-15.062 6.248z" fill="#EC5564" /><path d="M512 959.984a21.228 21.228 0 0 1-15.062-6.248l-42.686-42.688c-8.312-8.312-8.312-21.812 0-30.156s21.842-8.344 30.188 0l42.654 42.656a21.336 21.336 0 0 1 0 30.188 21.364 21.364 0 0 1-15.094 6.248z" fill="#EC5564" /><path d="M512 959.984a21.228 21.228 0 0 1-15.062-6.248 21.278 21.278 0 0 1 0-30.188l42.624-42.656c8.344-8.344 21.876-8.344 30.186 0 8.314 8.344 8.314 21.844 0 30.156l-42.652 42.688a21.372 21.372 0 0 1-15.096 6.248z" fill="#EC5564" /><path d="M597.308 959.984a21.286 21.286 0 0 1-15.062-6.248l-42.686-42.688c-8.312-8.312-8.312-21.812 0-30.156 8.344-8.344 21.876-8.344 30.186 0l42.688 42.656c8.312 8.344 8.312 21.842 0 30.188a21.378 21.378 0 0 1-15.126 6.248z" fill="#EC5564" /><path d="M597.434 959.984a21.228 21.228 0 0 1-15.062-6.248 21.332 21.332 0 0 1 0-30.188l42.626-42.656c8.376-8.344 21.876-8.344 30.186 0 8.314 8.344 8.314 21.844 0 30.156l-42.654 42.688a21.31 21.31 0 0 1-15.096 6.248z" fill="#EC5564" /><path d="M682.776 959.984a21.36 21.36 0 0 1-15.094-6.248l-42.686-42.688c-8.31-8.312-8.31-21.812 0-30.156 8.376-8.344 21.876-8.344 30.186 0l42.686 42.656c8.314 8.344 8.314 21.842 0 30.188a21.352 21.352 0 0 1-15.092 6.248z" fill="#EC5564" /><path d="M682.776 959.984a21.36 21.36 0 0 1-15.094-6.248c-8.312-8.346-8.312-21.844 0-30.188l42.686-42.656c8.312-8.344 21.812-8.344 30.156 0s8.344 21.844 0 30.156l-42.656 42.688a21.352 21.352 0 0 1-15.092 6.248z" fill="#EC5564" /><path d="M768.116 959.984c-5.5 0-10.938-2.094-15.124-6.248l-42.626-42.688c-8.342-8.312-8.342-21.812 0-30.156 8.312-8.344 21.812-8.344 30.156 0l42.654 42.656c8.312 8.344 8.312 21.842 0 30.188a21.276 21.276 0 0 1-15.06 6.248z" fill="#EC5564" /><path d="M533.56 512c0 11.782-9.562 21.31-21.342 21.31-11.782 0-21.344-9.53-21.344-21.31s9.562-21.344 21.344-21.344c11.78 0 21.342 9.562 21.342 21.344z" fill="#D94452" /><path d="M512 213.338c-2.718 0-5.438 0.046-8.126 0.126l-48.716 6.25c-148.34 33.624-264.274 196.666-282.24 400.408C409.628 609.84 512 482.656 512 482.656h0.218s102.278 127.122 338.864 137.464C830.896 390.988 686.806 213.338 512 213.338z" fill="#EC5564" /><path d="M768.116 256.008c0 141.372-114.62 255.992-255.99 255.992-141.4 0-255.992-114.622-255.992-255.992C256.134 114.624 370.726 0.018 512.126 0.018c141.37 0 255.99 114.606 255.99 255.99z" fill="#EAC6BB" /><path d="M256.132 256.008c0 2.968 0.062 5.906 0.156 8.86 154.464 6.422 277.146-80.856 277.146-80.856L529.81 0.628a265.746 265.746 0 0 0-17.688-0.61c-141.398 0-255.99 114.606-255.99 255.99z" fill="#F5BA45" /><path d="M512.126 0.018c-58.686 0-112.746 19.748-155.932 52.952 51.53 48.732 196.742 170.978 410.546 229.648 0.876-8.75 1.376-17.626 1.376-26.61 0-141.384-114.62-255.99-255.99-255.99z" fill="#FECD57" /><path d="M576.124 298.664a21.32 21.32 0 0 0-21.344 21.342c0 11.782 9.532 21.328 21.344 21.328 11.748 0 21.31-9.546 21.31-21.328 0-11.796-9.562-21.342-21.31-21.342zM554.78 384.004a21.314 21.314 0 0 0-20.218 14.546c-1.312 2.406-7.53 6.782-22.342 6.782-15 0-21.312-4.5-22.626-6.954-2.904-8.36-10.81-14.376-20.154-14.376-11.782 0-21.312 9.546-21.312 21.328 0 1.876 0.25 3.688 0.688 5.422 0.062 0.218 0.126 0.454 0.188 0.688l0.094 0.328c4.218 13.922 21.812 36.232 63.124 36.232s58.78-22.294 62.904-36.31c0.032-0.032 0.032-0.062 0.062-0.11 0.06-0.344 0.188-0.688 0.25-1.016v-0.016a20.58 20.58 0 0 0 0.688-5.218c-0.002-11.78-9.566-21.326-21.346-21.326z m-64.904 15.156c0.064 0.204 0.126 0.454 0.19 0.75-0.066-0.25-0.126-0.5-0.19-0.75z m44.466 0.078c-0.094 0.282-0.156 0.578-0.218 0.86h-0.03c0.092-0.36 0.154-0.626 0.248-0.86zM469.44 320.006c0-11.794-9.562-21.342-21.312-21.342a21.32 21.32 0 0 0-21.344 21.342c0 11.782 9.532 21.328 21.344 21.328 11.748 0 21.312-9.546 21.312-21.328z" fill="#424953" /><path d="M512 746.648m-63.998 0a63.998 63.998 0 1 0 127.996 0 63.998 63.998 0 1 0-127.996 0Z" fill="#EAC6BB" /></svg>