<?xml version="1.0" standalone="no"?><!DOCTYPE svg PUBLIC "-//W3C//DTD SVG 1.1//EN" "http://www.w3.org/Graphics/SVG/1.1/DTD/svg11.dtd"><svg class="icon" width="128px" height="128.00px" viewBox="0 0 1024 1024" version="1.1" xmlns="http://www.w3.org/2000/svg"><path d="M639.996 384.012H384.004c-11.782 0-21.328-9.562-21.328-21.344v-127.996c0-11.782 9.546-21.344 21.328-21.344h255.992c11.812 0 21.344 9.562 21.344 21.344v127.996c0 11.782-9.532 21.344-21.344 21.344z" fill="#ED5564" /><path d="M469.346 384.012c-11.782 0-21.328-9.562-21.328-21.344v-85.342c0-11.78 9.546-21.31 21.328-21.31 11.78 0 21.326 9.53 21.326 21.31v85.342c0 11.782-9.548 21.344-21.326 21.344zM554.686 384.012c-11.796 0-21.342-9.562-21.342-21.344v-85.342c0-11.78 9.544-21.31 21.342-21.31 11.75 0 21.31 9.53 21.31 21.31v85.342c0 11.782-9.56 21.344-21.31 21.344z" fill="#434A54" /><path d="M341.348 469.322h341.334c11.75 0 21.312-9.532 21.312-21.312v-85.342c0-11.782-9.562-21.342-21.312-21.342H341.348c-11.78 0-21.342 9.562-21.342 21.342v85.342c0 11.78 9.562 21.312 21.342 21.312z" fill="#FFCE54" /><path d="M256.008 554.678h511.984c11.812 0 21.344-9.562 21.344-21.358v-85.31c0-11.782-9.532-21.344-21.344-21.344H256.008c-11.782 0-21.328 9.562-21.328 21.344v85.31c0 11.796 9.546 21.358 21.328 21.358z" fill="#F6BB42" /><path d="M170.682 639.988h682.65c11.782 0 21.344-9.562 21.344-21.312V533.32c0-11.782-9.562-21.312-21.344-21.312H170.682c-11.782 0-21.328 9.532-21.328 21.312v85.356c0 11.75 9.546 21.312 21.328 21.312z" fill="#FFCE54" /><path d="M938.676 597.3H85.356c-11.782 0-21.342 9.562-21.342 21.376v85.31c0 11.812 9.56 21.31 21.342 21.31h853.32c11.748 0 21.31-9.498 21.31-21.31v-85.31c0-11.812-9.562-21.376-21.31-21.376z" fill="#F6BB42" /><path d="M1002.672 682.674H21.358c-11.782 0-21.342 9.562-21.342 21.312v85.31c0 11.812 9.56 21.376 21.342 21.376h981.314c11.75 0 21.312-9.562 21.312-21.376v-85.31c0-11.75-9.562-21.312-21.312-21.312z" fill="#FFCE54" /><path d="M597.34 810.672h-170.666l42.672-469.346h85.34z" fill="#656D78" /></svg>