<?xml version="1.0" standalone="no"?><!DOCTYPE svg PUBLIC "-//W3C//DTD SVG 1.1//EN" "http://www.w3.org/Graphics/SVG/1.1/DTD/svg11.dtd"><svg class="icon" width="128px" height="128.00px" viewBox="0 0 1024 1024" version="1.1" xmlns="http://www.w3.org/2000/svg"><path d="M661.748 242.426a21.33 21.33 0 0 1 0 30.186l-90.5 90.498c-8.312 8.344-21.844 8.344-30.156 0l-150.872-150.84c-8.312-8.344-8.312-21.844 0-30.156l90.53-90.53c8.312-8.312 21.842-8.312 30.156 0l150.842 150.842z" fill="#ED5564" /><path d="M420.408 151.928c8.344 8.342 21.842 8.342 30.156 0 8.344-8.312 8.344-21.844 0-30.156l-30.156 30.156z" fill="#D94452" /><path d="M569.436 392.392c-11.844-33.468-69.53 21.25-114.56-1.968-45-23.218-8.938-89.748-147.434-57.406-104.466 24.406-39.124 94.968-59.592 94.624-20.436-0.344-105.716-37.562-131.81 26.842-26.124 64.406 106.686 241.292 106.686 241.292l188.214-6c0 0.002 170.34-263.914 158.496-297.384z" fill="#9ED36A" /><path d="M405.314 512.016c0 35.328-28.656 63.982-64 63.982-35.342 0-63.998-28.654-63.998-63.982 0-35.344 28.656-64 63.998-64 35.346 0 64 28.656 64 64z" fill="#FECD57" /><path d="M101.632 603.436c72.124 41.498 164.184 16.688 205.684-55.404L46.258 397.768C4.76 469.86 29.54 561.938 101.632 603.436z" fill="#FB6D51" /><path d="M0.01 512.016v59.044c0 145.31 89.154 270.212 216.778 324.932h289.37c127.624-54.718 216.808-179.622 216.808-324.932v-59.044H0.01z" fill="#ED5564" /><path d="M0.01 512.016h504.616v42.64H0.01z" fill="#D94452" /><path d="M567.154 158.178c16.594-16.592 49.376-30.156 72.844-30.156h341.304c23.468 0 42.688 19.188 42.688 42.656v725.314c0 23.468-19.218 42.656-42.688 42.656H469.314c-23.468 0-42.656-19.188-42.656-42.656v-554.66c0-23.468 13.562-56.218 30.156-72.812l110.34-110.342z" fill="#FECD57" /><path d="M981.302 128.022h-42.654c23.466 0 42.654 19.188 42.654 42.656v725.314c0 23.468-19.188 42.656-42.654 42.656h42.654c23.468 0 42.688-19.188 42.688-42.656V170.678c0-23.468-19.218-42.656-42.688-42.656z" fill="#FFFFFF" opacity=".2" /><path d="M788.65 362.674s-128.434-0.094-128.028 127.248c0.25 88.482 128.402 0.75 128.402 0.75l-0.374-127.998z" fill="#E5E8EC" /><path d="M788.62 448.016h-127.964c-47.124 0-85.312 38.186-85.312 85.312 0 47.108 38.188 85.294 85.312 85.294h127.964c47.124 0 85.344-38.188 85.344-85.294-0.002-47.124-38.22-85.312-85.344-85.312z" fill="#F4F6F9" /><path d="M660.654 575.966c0 11.782-9.562 21.344-21.344 21.344s-21.312-9.562-21.312-21.344 9.532-21.31 21.312-21.31 21.344 9.53 21.344 21.31zM745.994 575.966c0 11.782-9.56 21.344-21.342 21.344s-21.344-9.562-21.344-21.344 9.562-21.31 21.344-21.31 21.342 9.53 21.342 21.31zM831.306 575.966c0 11.782-9.532 21.344-21.312 21.344-11.812 0-21.344-9.562-21.344-21.344s9.532-21.31 21.344-21.31a21.296 21.296 0 0 1 21.312 21.31z"  /><path d="M532.656 533.328v42.638h-0.032c0 59.718 34.374 112.28 86.404 142.78a20.744 20.744 0 0 0-1.032 6.562c0 11.782 9.532 21.344 21.312 21.344h170.684c11.782 0 21.312-9.562 21.312-21.344 0-2.594-0.468-5.094-1.344-7.406 51.25-30.594 84.966-82.748 84.998-141.904v-42.67H532.656z" fill="#ED5564" /><path d="M898.024 917.304c-11.78 0-21.342 9.562-21.342 21.344h42.686c0-11.78-9.564-21.344-21.344-21.344zM812.026 917.304c-11.782 0-21.344 9.562-21.344 21.344h42.656c0-11.78-9.532-21.344-21.312-21.344zM725.996 917.304c-11.782 0-21.344 9.562-21.344 21.344h42.686c0-11.78-9.56-21.344-21.342-21.344zM639.966 917.304c-11.782 0-21.312 9.562-21.312 21.344h42.656c0-11.78-9.562-21.344-21.344-21.344zM553.966 917.304c-11.782 0-21.342 9.562-21.342 21.344h42.686c0-11.78-9.562-21.344-21.344-21.344z" fill="#F5BA45" /></svg>