<?xml version="1.0" standalone="no"?><!DOCTYPE svg PUBLIC "-//W3C//DTD SVG 1.1//EN" "http://www.w3.org/Graphics/SVG/1.1/DTD/svg11.dtd"><svg class="icon" width="128px" height="128.00px" viewBox="0 0 1024 1024" version="1.1" xmlns="http://www.w3.org/2000/svg"><path d="M1022.872 270.538a21.346 21.346 0 0 0-20.218-14.53H640.006a21.34 21.34 0 0 0-12.906 4.344L8.456 729.652a21.374 21.374 0 0 0-7.344 23.812 21.316 21.316 0 0 0 20.218 14.532h362.68a21.32 21.32 0 0 0 12.874-4.344l618.674-469.304c7.282-5.562 10.25-15.124 7.314-23.81z" fill="#F6BB42" /><path d="M21.332 725.34h981.322c11.782 0 21.344 9.532 21.344 21.312v213.336c0 11.782-9.562 21.344-21.344 21.344H21.332c-11.782 0-21.312-9.562-21.312-21.344V746.652a21.3 21.3 0 0 1 21.312-21.312z" fill="#FFCE54" /><path d="M917.31 725.34h85.342c11.782 0 21.344 9.532 21.344 21.312v213.336c0 11.782-9.562 21.344-21.344 21.344h-85.342V725.34z" fill="#E6E9ED" /><path d="M1002.652 810.648c0-11.782 9.532-21.312 21.344-21.312v42.656c-11.812 0-21.344-9.562-21.344-21.344zM1002.652 895.992c0-11.782 9.532-21.344 21.344-21.344v42.688c-11.812 0-21.344-9.562-21.344-21.344z" fill="#CCD1D9" /><path d="M810.658 789.336c-11.782 0-21.344-9.562-21.344-21.34V725.34H832v42.656c0 11.778-9.562 21.34-21.342 21.34zM725.314 789.336c-11.782 0-21.312-9.562-21.312-21.34V725.34h42.656v42.656c0 11.778-9.562 21.34-21.344 21.34z" fill="#656D78" /><path d="M640.006 831.992c-11.812 0-21.344-9.562-21.344-21.344V725.34h42.654v85.308c0 11.782-9.562 21.344-21.31 21.344z" fill="#434A54" /><path d="M554.662 789.336c-11.782 0-21.344-9.562-21.344-21.34V725.34h42.688v42.656c0 11.778-9.562 21.34-21.344 21.34zM469.322 789.336c-11.782 0-21.312-9.562-21.312-21.34V725.34h42.656v42.656c-0.002 11.778-9.564 21.34-21.344 21.34z" fill="#656D78" /><path d="M384.01 831.992c-11.812 0-21.344-9.562-21.344-21.344V725.34h42.656v85.308c0 11.782-9.562 21.344-21.312 21.344z" fill="#434A54" /><path d="M298.668 789.336c-11.782 0-21.344-9.562-21.344-21.34V725.34h42.686v42.656c0.002 11.778-9.56 21.34-21.342 21.34zM213.328 789.336c-11.782 0-21.312-9.562-21.312-21.34V725.34h42.656v42.656c-0.002 11.778-9.564 21.34-21.344 21.34z" fill="#656D78" /><path d="M128.016 831.992c-11.812 0-21.344-9.562-21.344-21.344V725.34h42.656v85.308c0 11.782-9.562 21.344-21.312 21.344z" fill="#434A54" /><path d="M1002.652 42.666H21.332C9.55 42.666 0.02 52.228 0.02 64.01v213.338a21.3 21.3 0 0 0 21.312 21.312h981.322c11.782 0 21.344-9.532 21.344-21.312V64.01c-0.002-11.78-9.564-21.344-21.346-21.344z" fill="#FFCE54" /><path d="M106.672 42.666h-85.34C9.55 42.666 0.02 52.228 0.02 64.01v213.338a21.3 21.3 0 0 0 21.312 21.312h85.342V42.666z" fill="#E6E9ED" /><path d="M21.332 128.008c0-11.782-9.562-21.342-21.312-21.342v42.686c11.748 0 21.312-9.562 21.312-21.344zM21.332 213.35c0-11.782-9.562-21.342-21.312-21.342v42.656c11.748 0 21.312-9.532 21.312-21.314z" fill="#CCD1D9" /><path d="M213.328 106.666c11.78 0 21.342-9.532 21.342-21.312V42.666H192.014v42.688a21.3 21.3 0 0 0 21.314 21.312zM298.668 106.666c11.78 0 21.342-9.532 21.342-21.312V42.666h-42.686v42.688c0.002 11.78 9.564 21.312 21.344 21.312z" fill="#656D78" /><path d="M384.01 149.352c11.75 0 21.312-9.562 21.312-21.344V42.666h-42.656v85.342c0 11.782 9.532 21.344 21.344 21.344z" fill="#434A54" /><path d="M469.322 106.666c11.78 0 21.342-9.532 21.342-21.312V42.666h-42.656v42.688a21.3 21.3 0 0 0 21.314 21.312zM554.662 106.666c11.782 0 21.344-9.532 21.344-21.312V42.666h-42.688v42.688c0 11.78 9.562 21.312 21.344 21.312z" fill="#656D78" /><path d="M640.006 149.352c11.748 0 21.31-9.562 21.31-21.344V42.666h-42.654v85.342c0 11.782 9.532 21.344 21.344 21.344z" fill="#434A54" /><path d="M725.314 106.666c11.782 0 21.344-9.532 21.344-21.312V42.666h-42.656v42.688a21.3 21.3 0 0 0 21.312 21.312zM810.658 106.666c11.78 0 21.342-9.532 21.342-21.312V42.666h-42.686v42.688c0 11.78 9.562 21.312 21.344 21.312z" fill="#656D78" /><path d="M895.998 149.352c11.75 0 21.312-9.562 21.312-21.344V42.666h-42.656v85.342c0 11.782 9.532 21.344 21.344 21.344z" fill="#434A54" /></svg>