<?xml version="1.0" standalone="no"?><!DOCTYPE svg PUBLIC "-//W3C//DTD SVG 1.1//EN" "http://www.w3.org/Graphics/SVG/1.1/DTD/svg11.dtd"><svg class="icon" width="128px" height="128.00px" viewBox="0 0 1024 1024" version="1.1" xmlns="http://www.w3.org/2000/svg"><path d="M597.31 533.336v255.976H0.014V533.336c0-164.934 133.716-298.648 298.664-298.648 164.932 0 298.632 133.714 298.632 298.648z" fill="#5D9CEC" /><path d="M448 533.336c0 82.482-66.856 149.356-149.324 149.356-82.482 0-149.34-66.874-149.34-149.356 0-82.466 66.858-149.324 149.34-149.324 82.468 0 149.324 66.858 149.324 149.324z" fill="#F5F7FA" /><path d="M468.814 789.312H129.026c-11.782 0-21.328-9.532-21.328-21.312 0-11.778 9.546-21.308 21.328-21.308h339.788c11.78 0 21.328 9.532 21.328 21.308-0.002 11.782-9.548 21.312-21.328 21.312zM298.928 298.686h-0.25c-129.606 0-234.666 105.06-234.666 234.65 0 5.532 0.204 11.016 0.578 16.422-0.36 1.594-0.578 3.25-0.578 4.938 0 11.75 9.546 21.312 21.328 21.312s21.342-9.562 21.342-21.312h1.172a197.8 197.8 0 0 1-1.172-21.36c0-51.28 19.968-99.498 56.232-135.762 36.264-36.264 84.466-56.232 135.762-56.232h0.25c11.78 0 21.328-9.546 21.328-21.328s-9.546-21.328-21.326-21.328z" fill="#4A89DC" /><path d="M597.31 661.318h405.364v127.994H597.31z" fill="#FFCE54" /><path d="M661.308 746.692c-11.75 0-21.312 9.532-21.312 21.308v21.312h42.688V768c0-11.778-9.562-21.308-21.376-21.308zM746.682 746.692c-11.812 0-21.376 9.532-21.376 21.308v21.312h42.686V768c0-11.778-9.562-21.308-21.31-21.308zM831.99 746.692A21.298 21.298 0 0 0 810.678 768v21.312h42.624V768a21.296 21.296 0 0 0-21.312-21.308zM917.3 746.692c-11.75 0-21.312 9.532-21.312 21.308v21.312h42.686V768c0-11.778-9.56-21.308-21.374-21.308z" fill="#F6BB42" /><path d="M1023.986 789.312v-149.306c0-11.782-9.562-21.312-21.312-21.312-11.812 0-21.376 9.532-21.376 21.312v149.306h42.688z" fill="#434A54" /><path d="M341.334 533.336c0 23.546-19.094 42.672-42.656 42.672-23.562 0-42.67-19.124-42.67-42.672 0-23.562 19.108-42.654 42.67-42.654s42.656 19.092 42.656 42.654z" fill="#5D9CEC" /></svg>