<?xml version="1.0" standalone="no"?><!DOCTYPE svg PUBLIC "-//W3C//DTD SVG 1.1//EN" "http://www.w3.org/Graphics/SVG/1.1/DTD/svg11.dtd"><svg class="icon" width="128px" height="128.00px" viewBox="0 0 1024 1024" version="1.1" xmlns="http://www.w3.org/2000/svg"><path d="M1023.8 440.438l-54.376-40.03c-86.214-111.936-264.18-150.84-457.426-16.468-9.156 6.344-19.11 11.812-29.734 16.468L0.012 402.72v125.652c0 180.528 127.996 324.932 497.16 324.932 326.196 0 526.816-72.186 526.816-288.838 0-14.564-0.188-124.028-0.188-124.028z" fill="#DA4453" /><path d="M853.304 803.274v-157.06h-42.656v171.81c14.938-4.47 29.156-9.344 42.656-14.75zM725.308 837.302v-150.214h-42.656v156.34a957.336 957.336 0 0 0 42.656-6.126zM597.308 850.74v-147.654h-42.654v149.436c14.532-0.438 28.72-1 42.654-1.782zM469.328 853.022v-149.936h-42.67v148.342c13.828 0.75 28.048 1.312 42.67 1.594zM341.332 843.146v-149.716H298.66v142.436a811.626 811.626 0 0 0 42.672 7.28zM213.334 812.554v-166.342H170.664v148.624a450.984 450.984 0 0 0 42.67 17.718z" opacity=".1" /><path d="M512 255.972C362.738 359.72 0.012 219.88 0.012 400.408c0 180.526 127.996 324.96 497.16 324.96 326.196 0 526.816-72.216 526.816-288.868 0-216.62-240.934-368.96-511.988-180.528z" fill="#ED5564" /><path d="M213.334 533.308c-34.686 0-63.998-19.53-63.998-42.654 0-23.124 29.312-42.656 63.998-42.656 34.688 0 63.998 19.532 63.998 42.656s-29.31 42.654-63.998 42.654z" fill="#CCD1D9" /><path d="M213.334 426.656c-47.124 0-85.326 28.656-85.326 64 0 35.34 38.204 63.998 85.326 63.998 47.124 0 85.326-28.656 85.326-63.998 0-35.344-38.202-64-85.326-64z m0 85.342c-26.468 0-42.67-13.81-42.67-21.342s16.202-21.344 42.67-21.344 42.672 13.812 42.672 21.344-16.204 21.342-42.672 21.342z" fill="#E6E9ED" /><path d="M280.926 704.118c60.438 13.718 132.076 21.25 216.246 21.25 35.562 0 69.638-0.876 102.106-2.688l-120.152-163.184-198.2 144.622z" fill="#F5F7FA" /><path d="M464.828 462.186c-26.374-73.936-40.482-140.652-46.17-171.372-13.688 2.438-27.89 4.188-42.406 5.5 5.624 31.062 20.032 100.53 48.124 179.464 9.64 27.124 20.046 52.872 31.124 77.154-20.704 28.782-61.516 61.218-118.982 94.436-44.39 25.656-84.624 43.532-92.826 47.092 20.672 6.062 42.842 11.312 66.576 15.656 49.406-25.06 122.56-67.154 165.918-115.184 8.078 15.218 16.454 29.748 25.11 43.498 20.782 32.968 43.266 61.592 67.202 85.654a1543.572 1543.572 0 0 0 60.248-3.344c-81.622-64.028-133.824-174.15-163.918-258.554z" fill="#E6E9ED" /></svg>