<?xml version="1.0" standalone="no"?><!DOCTYPE svg PUBLIC "-//W3C//DTD SVG 1.1//EN" "http://www.w3.org/Graphics/SVG/1.1/DTD/svg11.dtd"><svg class="icon" width="128px" height="128.00px" viewBox="0 0 1024 1024" version="1.1" xmlns="http://www.w3.org/2000/svg"><path d="M716.034 36.424c8.344-8.328 8.344-21.828 0-30.172-8.312-8.328-21.844-8.328-30.156 0-8.344 8.344-8.344 21.844 0 30.172 8.312 8.344 21.842 8.328 30.156 0z" fill="#CCD1D9" /><path d="M685.876 66.596c8.312-8.328 8.312-21.828 0-30.17-8.344-8.328-21.844-8.328-30.188 0-8.312 8.344-8.312 21.842 0 30.17 8.346 8.326 21.846 8.326 30.188 0z" fill="#CCD1D9" /><path d="M655.69 96.766c8.344-8.328 8.344-21.844 0-30.17-8.312-8.328-21.812-8.328-30.156 0-8.344 8.328-8.344 21.842 0 30.17s21.842 8.328 30.156 0zM595.378 96.766c-8.344 8.328-8.344 21.844 0 30.172 8.312 8.328 21.81 8.328 30.154 0 8.344-8.328 8.344-21.844 0-30.172s-21.84-8.328-30.154 0z" fill="#CCD1D9" /><path d="M565.192 126.938c-8.31 8.328-8.31 21.842 0 30.17 8.344 8.328 21.844 8.328 30.188 0 8.312-8.328 8.312-21.842 0-30.17-8.344-8.328-21.844-8.328-30.188 0z" fill="#CCD1D9" /><path d="M535.038 157.108c-8.328 8.328-8.328 21.844 0 30.172s21.844 8.328 30.154 0c8.344-8.344 8.344-21.844 0-30.172-8.312-8.326-21.826-8.326-30.154 0zM1017.744 307.95c-8.344-8.328-21.844-8.328-30.188 0-8.312 8.328-8.312 21.842 0 30.17 8.344 8.328 21.844 8.328 30.188 0 8.312-8.328 8.312-21.844 0-30.17z" fill="#CCD1D9" /><path d="M957.4 338.12c-8.344 8.328-8.344 21.844 0 30.172 8.312 8.328 21.844 8.328 30.156 0 8.344-8.328 8.344-21.844 0-30.172-8.312-8.328-21.844-8.328-30.156 0z" fill="#CCD1D9" /><path d="M927.214 368.292c-8.312 8.328-8.312 21.842 0 30.17 8.342 8.328 21.842 8.328 30.186 0 8.312-8.328 8.312-21.842 0-30.17-8.344-8.328-21.844-8.328-30.186 0z" fill="#CCD1D9" /><path d="M897.058 398.462c-8.344 8.328-8.344 21.844 0 30.172 8.312 8.328 21.844 8.328 30.156 0 8.342-8.328 8.342-21.844 0-30.172-8.312-8.328-21.812-8.328-30.156 0z" fill="#CCD1D9" /><path d="M866.904 428.634c-8.344 8.328-8.344 21.828 0 30.17 8.312 8.328 21.81 8.328 30.154 0 8.344-8.342 8.312-21.842 0-30.17-8.344-8.328-21.842-8.344-30.154 0z" fill="#CCD1D9" /><path d="M836.716 458.804c-8.312 8.328-8.344 21.828 0 30.17a21.346 21.346 0 0 0 30.188-0.016c8.312-8.328 8.312-21.828 0-30.156a21.338 21.338 0 0 0-30.188 0.002zM170.17 944.356l-90.498-90.5 576.018-576.078 90.528 90.514z" fill="#CCD1D9" /><path d="M836.716 488.976c-8.344 8.328-21.844 8.328-30.156-0.016L535.038 217.452c-8.328-8.342-8.328-21.842 0-30.17l180.996-181.028a21.36 21.36 0 0 1 30.186 0L1017.746 277.78c8.312 8.344 8.312 21.842 0 30.17l-181.03 181.026z" fill="#E6E9ED" /><path d="M836.716 338.12l-150.84-150.84c-8.344-8.328-21.844-8.328-30.188 0-8.312 8.328-8.312 21.828 0 30.156 0 0.016 0 0.016 0.032 0.016l150.808 150.826s0 0.016 0.032 0.016c8.312 8.328 21.812 8.328 30.156 0 8.344-8.33 8.344-21.846 0-30.174zM716.034 157.108s0.032 0 0.032 0.016l150.808 150.826h0.032c8.312 8.328 21.81 8.328 30.154 0 8.344-8.328 8.344-21.842 0-30.17 0-0.016-0.032-0.016-0.032-0.032l-150.778-150.778c-0.032-0.016-0.032-0.016-0.032-0.032a21.36 21.36 0 0 0-30.186 0c-8.312 8.328-8.312 21.844 0.002 30.17z" fill="#CCD1D9" /><path d="M522.818 591.738l-90.514-90.544c-8.328-8.328-21.844-8.328-30.172 0L25.018 878.324c-33.328 33.344-33.328 87.376 0 120.688 33.326 33.308 87.358 33.308 120.684 0L522.82 621.894c8.326-8.344 8.326-21.844-0.002-30.156zM70.266 953.762c-8.328-8.344-8.328-21.844 0-30.188 8.328-8.312 21.844-8.312 30.172 0 8.328 8.344 8.328 21.844 0 30.188-8.328 8.312-21.844 8.312-30.172 0z" fill="#48CFAD" /><path d="M447.396 667.144c-8.342 8.344-8.342 21.844-0.016 30.152 0 0 0 0.032 0.016 0.032l30.156-30.184c-8.328-8.312-21.828-8.312-30.156 0zM387.054 727.484c-8.344 8.344-8.344 21.844 0 30.156l30.172-30.156c-8.344-8.344-21.844-8.344-30.172 0zM326.712 787.828c-8.328 8.312-8.328 21.844 0 30.156l30.172-30.156c-8.328-8.344-21.842-8.344-30.172 0zM266.372 848.168c-8.328 8.312-8.328 21.844 0 30.156l30.17-30.156c-8.33-8.34-21.842-8.34-30.17 0zM206.042 908.512c-8.342 8.312-8.342 21.812-0.016 30.156h0.016l30.156-30.156c-8.326-8.344-21.826-8.344-30.156 0z" fill="#37BC9B" /><path d="M115.532 817.984c8.326-8.312 8.326-21.844 0-30.156L85.36 817.984c8.328 8.344 21.844 8.344 30.172 0zM175.874 757.64c8.328-8.312 8.328-21.812 0-30.156L145.702 757.64c8.328 8.344 21.828 8.344 30.172 0zM236.2 697.296c8.344-8.308 8.344-21.808 0-30.152l-30.156 30.184c8.328 8.312 21.828 8.312 30.156-0.032zM296.542 636.988c8.328-8.344 8.328-21.844 0-30.188l-30.17 30.188c8.328 8.312 21.84 8.312 30.17 0zM356.884 576.614c8.326-8.312 8.326-21.812 0-30.156l-30.172 30.188a21.288 21.288 0 0 0 30.172-0.032z" fill="#37BC9B" /></svg>