<?xml version="1.0" standalone="no"?><!DOCTYPE svg PUBLIC "-//W3C//DTD SVG 1.1//EN" "http://www.w3.org/Graphics/SVG/1.1/DTD/svg11.dtd"><svg class="icon" width="128px" height="128.00px" viewBox="0 0 1024 1024" version="1.1" xmlns="http://www.w3.org/2000/svg"><path d="M469.328 74.682h-170.656c-11.782 0-21.344 9.532-21.344 21.312 0 11.812 9.562 21.344 21.344 21.344h170.656c11.782 0 21.344-9.532 21.344-21.344 0-11.782-9.562-21.312-21.344-21.312z" fill="#434A54" /><path d="M298.672 522.68V309.338l-21.342-128h213.342l-21.344 128V522.68z" fill="#AAB2BC" /><path d="M213.33 479.992h469.358V693.32H213.33z" fill="#CCD1D9" /><path d="M256 479.992c0-11.782-9.546-21.312-21.328-21.312s-21.344 9.532-21.344 21.312V693.32c0 11.812 9.562 21.376 21.344 21.376S256 705.132 256 693.32h42.672V479.992H256z" fill="#656D78" /><path d="M512 928.006c0 11.812-9.546 21.312-21.328 21.312s-21.344-9.5-21.344-21.312 9.562-21.312 21.344-21.312S512 916.194 512 928.006zM959.996 928.006c0 11.812-9.562 21.312-21.312 21.312-11.812 0-21.376-9.5-21.376-21.312s9.562-21.312 21.376-21.312c11.75 0 21.312 9.5 21.312 21.312z" fill="#434A54" /><path d="M0.002 778.696v122.624s17.718 48 72 48h218.67c54.282 0 72-48 72-48v-122.624H0.002z" fill="#E6E9ED" /><path d="M234.672 562.758c0-11.812-9.562-21.328-21.344-21.328v42.64c11.782 0 21.344-9.562 21.344-21.312zM234.672 520.086c0-11.782-9.562-21.344-21.344-21.344v42.688c11.782 0 21.344-9.562 21.344-21.344zM234.672 648.07c0-11.75-9.562-21.312-21.344-21.312v42.688c11.782 0 21.344-9.564 21.344-21.376zM234.672 605.446c0-11.812-9.562-21.376-21.344-21.376v42.688c11.782 0 21.344-9.562 21.344-21.312z" fill="#434A54" /><path d="M938.684 437.336H597.312c-46.906 0-95 37.156-106.86 82.562l-84.906 325.544c-11.86 45.376 16.86 82.562 63.782 82.562h469.356c46.906 0 85.312-38.376 85.312-85.312V522.68c0-46.938-38.406-85.344-85.312-85.344zM810.684 202.682c0 11.782-9.562 21.312-21.376 21.312H234.672c-11.782 0-21.344-9.532-21.344-21.312V95.994h597.354v106.688z" fill="#48CFAD" /><path d="M938.684 437.336h-170.688v127.984h256v-42.64c0-46.938-38.406-85.344-85.312-85.344z" fill="#37BC9B" /><path d="M640 650.696c-23.532 0-42.688-19.188-42.688-42.688S616.468 565.32 640 565.32s42.688 19.188 42.688 42.688-19.156 42.688-42.688 42.688z" fill="#656D78" /><path d="M874.684 501.336c0 11.782-9.562 21.344-21.376 21.344-11.75 0-21.312-9.562-21.312-21.344s9.562-21.344 21.312-21.344c11.814 0 21.376 9.562 21.376 21.344zM937.528 501.336c0 11.782-9.562 21.344-21.344 21.344s-21.312-9.562-21.312-21.344 9.532-21.344 21.312-21.344 21.344 9.562 21.344 21.344z" fill="#E6E9ED" /><path d="M703.996 629.32c11.782 0 21.312-9.5 21.312-21.312s-9.532-21.312-21.312-21.312c-1.188 0-2.376 0.124-3.562 0.312a60.852 60.852 0 0 0-2.812-6.876c0.938-0.688 1.876-1.438 2.718-2.312 8.344-8.312 8.344-21.812 0-30.124-8.34-8.36-21.84-8.36-30.152 0-0.876 0.812-1.624 1.75-2.312 2.688-2.188-1.062-4.5-2-6.876-2.812 0.188-1.188 0.312-2.376 0.312-3.578 0-11.782-9.532-21.312-21.312-21.312s-21.312 9.532-21.312 21.312c0 1.204 0.124 2.39 0.312 3.578a60.852 60.852 0 0 0-6.876 2.812c-0.688-0.938-1.438-1.876-2.312-2.688-8.312-8.36-21.812-8.36-30.156 0-8.344 8.312-8.344 21.812 0 30.124 0.844 0.876 1.782 1.624 2.718 2.312-1.062 2.188-2 4.5-2.812 6.876a22.478 22.478 0 0 0-3.562-0.312c-11.782 0-21.312 9.5-21.312 21.312S564.218 629.32 576 629.32c1.218 0 2.376-0.124 3.562-0.312a60.852 60.852 0 0 0 2.812 6.876c-0.938 0.688-1.876 1.438-2.718 2.312-8.344 8.312-8.344 21.812 0 30.124 8.344 8.376 21.844 8.376 30.156 0 0.876-0.812 1.624-1.75 2.312-2.688 2.188 1.062 4.5 2 6.876 2.812a22.812 22.812 0 0 0-0.312 3.562c0 11.812 9.532 21.312 21.312 21.312s21.312-9.5 21.312-21.312c0-1.188-0.124-2.376-0.312-3.562a60.852 60.852 0 0 0 6.876-2.812c0.688 0.938 1.438 1.876 2.312 2.688 8.312 8.376 21.812 8.376 30.152 0 8.344-8.312 8.344-21.812 0-30.124a20.964 20.964 0 0 0-2.718-2.312c1.062-2.188 2-4.5 2.812-6.876 1.188 0.188 2.374 0.312 3.562 0.312z m-63.996 0c-11.75 0-21.312-9.562-21.312-21.312s9.562-21.312 21.312-21.312 21.312 9.562 21.312 21.312S651.75 629.32 640 629.32z" fill="#434A54" /><path d="M917.308 800.006h-128c-11.75 0-21.312 9.562-21.312 21.312 0 11.812 9.562 21.376 21.312 21.376h128a21.366 21.366 0 0 0 21.376-21.376c0-11.75-9.562-21.312-21.376-21.312z" fill="#37BC9B" /></svg>