<?xml version="1.0" standalone="no"?><!DOCTYPE svg PUBLIC "-//W3C//DTD SVG 1.1//EN" "http://www.w3.org/Graphics/SVG/1.1/DTD/svg11.dtd"><svg class="icon" width="128px" height="128.00px" viewBox="0 0 1024 1024" version="1.1" xmlns="http://www.w3.org/2000/svg"><path d="M1022.36082 87.854c-3.312-7.968-11.062-13.188-19.688-13.188H21.33482a21.346 21.346 0 0 0-15.08 36.438l170.668 170.652c4 4 9.422 6.25 15.078 6.25h639.986c5.656 0 11.062-2.25 15.062-6.25l170.684-170.652a21.28 21.28 0 0 0 4.628-23.25z" fill="#4A89DC" /><path d="M488.38682 532.906L36.42882 80.916a21.39 21.39 0 0 0-23.25-4.624 21.366 21.366 0 0 0-13.17 19.718v255.994a21.36 21.36 0 0 0 6.248 15.094l405.632 405.614a21.344 21.344 0 0 0 15.094 6.25c1.982 0 3.998-0.282 5.966-0.844a21.374 21.374 0 0 0 14.86-15.872l46.328-209.652a21.28 21.28 0 0 0-5.75-19.688zM1010.79682 76.292a21.41 21.41 0 0 0-23.25 4.624L542.74482 525.75a21.314 21.314 0 0 0-4.422 23.688l78.36 177.622a21.234 21.234 0 0 0 15.594 12.376c1.282 0.25 2.594 0.376 3.906 0.376 5.624 0 11.06-2.218 15.092-6.25l366.46-366.46c4-4 6.25-9.438 6.25-15.094V96.01c0-8.624-5.188-16.406-13.188-19.718z" fill="#5D9CEC" /><path d="M724.11682 713.528v-41.532a21.62 21.62 0 0 0-4.062-12.594l-30.938-42.312c-39.748-59.122-105.934-94.434-177.12-94.434-71.124 0-137.248 35.25-177.028 94.278L303.00082 659.122a21.236 21.236 0 0 0-4.328 12.876v64c0 117.622 95.702 213.336 213.324 213.336s213.306-95.714 213.306-213.336c0-7.44-0.374-14.97-1.186-22.47z" fill="#F6BB42" /><path d="M511.99682 458.658c-117.624 0-213.324 95.718-213.324 213.338s95.702 213.34 213.324 213.34 213.306-95.718 213.306-213.34-95.682-213.338-213.306-213.338z" fill="#FFCE54" /><path d="M511.71482 756.652c-11.782 0-21.344-9.532-21.344-21.312v-127.996c0-11.782 9.562-21.344 21.344-21.344 11.78 0 21.326 9.562 21.326 21.344v127.996c0.002 11.782-9.546 21.312-21.326 21.312z" fill="#E8AA3D" /></svg>