<?xml version="1.0" standalone="no"?><!DOCTYPE svg PUBLIC "-//W3C//DTD SVG 1.1//EN" "http://www.w3.org/Graphics/SVG/1.1/DTD/svg11.dtd"><svg class="icon" width="128px" height="128.00px" viewBox="0 0 1024 1024" version="1.1" xmlns="http://www.w3.org/2000/svg"><path d="M801.462 679.622a21.292 21.292 0 0 0-17.218-14.5l-174.902-25.402-78.218-158.484a21.318 21.318 0 0 0-19.124-11.89 21.32 21.32 0 0 0-19.124 11.89L414.66 639.72l-174.888 25.402a21.312 21.312 0 0 0-17.234 14.5 21.372 21.372 0 0 0 5.406 21.876l126.544 123.376-29.876 174.184c-1.36 8 1.922 16.094 8.5 20.844a21.168 21.168 0 0 0 12.532 4.094c3.406 0 6.812-0.812 9.922-2.468L512 939.304l156.434 82.218a21.312 21.312 0 0 0 22.468-1.624c6.56-4.75 9.842-12.844 8.498-20.844l-29.874-174.184 126.53-123.376a21.36 21.36 0 0 0 5.406-21.872z" fill="#FFCE54" /><path d="M725.212 0.008H298.55c-11.782 0-21.344 9.546-21.344 21.344v298.652c0 11.78 9.562 21.342 21.344 21.342h426.662c11.782 0 21.344-9.562 21.344-21.342V21.352c0-11.796-9.562-21.344-21.344-21.344z" fill="#5D9CEC" /><path d="M405.206 85.352c0 11.782-9.546 21.328-21.328 21.328s-21.328-9.546-21.328-21.328c0-11.796 9.546-21.342 21.328-21.342s21.328 9.546 21.328 21.342zM490.546 85.352c0 11.782-9.562 21.328-21.342 21.328-11.782 0-21.328-9.546-21.328-21.328 0-11.796 9.546-21.342 21.328-21.342 11.78-0.002 21.342 9.546 21.342 21.342zM575.874 85.352c0 11.782-9.532 21.328-21.312 21.328-11.796 0-21.36-9.546-21.36-21.328 0-11.796 9.562-21.342 21.36-21.342 11.78-0.002 21.312 9.546 21.312 21.342zM661.214 85.352c0 11.782-9.562 21.328-21.344 21.328-11.78 0-21.31-9.546-21.31-21.328 0-11.796 9.532-21.342 21.31-21.342 11.782-0.002 21.344 9.546 21.344 21.342zM405.206 256.004c0 11.782-9.546 21.344-21.328 21.344s-21.328-9.562-21.328-21.344 9.546-21.328 21.328-21.328 21.328 9.548 21.328 21.328zM490.546 256.004c0 11.782-9.562 21.344-21.342 21.344-11.782 0-21.328-9.562-21.328-21.344s9.546-21.328 21.328-21.328c11.78 0 21.342 9.548 21.342 21.328zM575.874 256.004c0 11.782-9.532 21.344-21.312 21.344-11.796 0-21.36-9.562-21.36-21.344s9.562-21.328 21.36-21.328c11.78 0 21.312 9.548 21.312 21.328zM661.214 256.004c0 11.782-9.562 21.344-21.344 21.344-11.78 0-21.31-9.562-21.31-21.344s9.532-21.328 21.31-21.328c11.782 0 21.344 9.548 21.344 21.328zM447.876 170.678c0 11.782-9.546 21.328-21.328 21.328-11.78 0-21.342-9.546-21.342-21.328s9.562-21.328 21.342-21.328c11.782 0 21.328 9.548 21.328 21.328z" fill="#4A89DC" /><path d="M511.874 170.678m-21.328 0a21.328 21.328 0 1 0 42.656 0 21.328 21.328 0 1 0-42.656 0Z" fill="#4A89DC" /><path d="M618.56 170.678c0 11.782-9.562 21.328-21.344 21.328s-21.344-9.546-21.344-21.328 9.562-21.328 21.344-21.328 21.344 9.548 21.344 21.328z" fill="#4A89DC" /><path d="M511.876 426.674c-11.782 0-21.328-9.546-21.328-21.328v-85.342c0-11.782 9.546-21.328 21.328-21.328 11.78 0 21.326 9.546 21.326 21.328v85.342c0 11.78-9.548 21.328-21.326 21.328z" fill="#F6BB42" /><path d="M511.876 512c-35.282 0-64-28.704-64-64 0-35.28 28.718-63.998 64-63.998 35.31 0 63.998 28.718 63.998 63.998 0 35.298-28.688 64-63.998 64z m0-85.326c-11.766 0-21.328 9.562-21.328 21.328s9.562 21.344 21.328 21.344c11.764 0 21.326-9.578 21.326-21.344 0-11.766-9.564-21.328-21.326-21.328z" fill="#FFCE54" /><path d="M609.342 639.718l-78.218-158.484a21.318 21.318 0 0 0-19.124-11.89v298.652l97.342-128.278zM669.528 824.872l126.53-123.376a21.37 21.37 0 0 0 5.406-21.876L512 767.996l157.528 56.876zM512 939.304l156.434 82.218a21.296 21.296 0 0 0 16.5 1.406l5.968-3.032L512 767.996v171.308zM354.488 824.872l-29.876 174.184c-1.36 8 1.922 16.094 8.5 20.844L512 767.996l-157.512 56.876zM222.536 679.622L512 767.996l-97.342-128.278-174.888 25.402a21.316 21.316 0 0 0-17.234 14.502z" fill="#F6BB42" /><path d="M746.556 341.346H277.208c-11.782 0-21.328-9.562-21.328-21.342 0-11.782 9.546-21.328 21.328-21.328h469.35c11.782 0 21.312 9.546 21.312 21.328 0 11.78-9.532 21.342-21.314 21.342zM746.556 42.68H277.208c-11.782 0-21.328-9.546-21.328-21.328 0-11.796 9.546-21.344 21.328-21.344h469.35c11.782 0 21.312 9.546 21.312 21.344 0 11.782-9.532 21.328-21.314 21.328z" fill="#4A89DC" /></svg>