<?xml version="1.0" standalone="no"?><!DOCTYPE svg PUBLIC "-//W3C//DTD SVG 1.1//EN" "http://www.w3.org/Graphics/SVG/1.1/DTD/svg11.dtd"><svg class="icon" width="128px" height="128.00px" viewBox="0 0 1024 1024" version="1.1" xmlns="http://www.w3.org/2000/svg"><path d="M277.354 533.344h-42.656c-11.782 0-21.344-9.562-21.344-21.344s9.562-21.312 21.344-21.312h42.656c11.78 0 21.342 9.532 21.342 21.312s-9.564 21.344-21.342 21.344zM789.336 533.344H746.68c-11.782 0-21.344-9.562-21.344-21.344s9.562-21.312 21.344-21.312h42.656c11.782 0 21.344 9.532 21.344 21.312s-9.562 21.344-21.344 21.344z" fill="#CBD0D8" /><path d="M512.002 448.002c-11.75 0-21.312-9.53-21.312-21.312V21.36c0-11.782 9.562-21.344 21.312-21.344 11.81 0 21.342 9.562 21.342 21.344v405.332c0 11.78-9.532 21.31-21.342 21.31z" fill="#434A54" /><path d="M304.946 278.196c45.06 0 84.186 25.624 103.558 63.06 19.344-37.436 58.436-63.06 103.498-63.06 45.092 0 84.184 25.624 103.558 63.06 19.376-37.436 58.436-63.06 103.528-63.06 37.154 0 70.28 17.406 91.592 44.528v-2.718c0-164.932-133.714-298.646-298.678-298.646-164.934 0-298.648 133.714-298.648 298.646v2.718c21.344-27.124 54.438-44.528 91.592-44.528z" fill="#ED5564" /><path d="M618.686 426.69H405.348c-11.78 0-21.342 9.532-21.342 21.312v127.996c0 11.782 9.562 21.344 21.342 21.344h213.338c11.782 0 21.312-9.562 21.312-21.344v-127.996a21.3 21.3 0 0 0-21.312-21.312z m-21.344 127.996h-170.65v-85.34h170.65v85.34z" fill="#646C77" /><path d="M895.986 1002.672a21.296 21.296 0 0 1-21.308 21.312H149.358c-11.782 0-21.344-9.532-21.344-21.312V533.344c0-11.782 9.562-21.344 21.344-21.344h725.32c11.78 0 21.308 9.562 21.308 21.344v469.328z" fill="#E5E8EC" /><path d="M874.678 981.328H149.358c-11.782 0-21.344-9.562-21.344-21.344v42.688c0 11.782 9.562 21.312 21.344 21.312h725.32c11.78 0 21.308-9.532 21.308-21.312v-42.688c0 11.782-9.528 21.344-21.308 21.344z" fill="#CBD0D8" /><path d="M554.688 853.334c0 23.562-19.126 42.654-42.686 42.654-23.562 0-42.656-19.092-42.656-42.654v-170.652c0-23.562 19.094-42.686 42.656-42.686 23.56 0 42.686 19.124 42.686 42.686v170.652z" fill="#DA4453" /><path d="M639.998 767.99c0 23.562-19.062 42.688-42.656 42.688h-170.65c-23.562 0-42.686-19.126-42.686-42.688 0-23.56 19.124-42.654 42.686-42.654h170.65c23.594 0 42.656 19.094 42.656 42.654z" fill="#ED5564" /></svg>