<?xml version="1.0" standalone="no"?><!DOCTYPE svg PUBLIC "-//W3C//DTD SVG 1.1//EN" "http://www.w3.org/Graphics/SVG/1.1/DTD/svg11.dtd"><svg class="icon" width="128px" height="128.00px" viewBox="0 0 1024 1024" version="1.1" xmlns="http://www.w3.org/2000/svg"><path d="M816.868 67.072c-37.094-22.31-82.312-39.31-134.434-50.56-50.656-10.938-108-16.5-170.434-16.5-62.436 0-119.778 5.562-170.434 16.5-52.124 11.25-97.34 28.25-134.434 50.56-79.684 47.938-121.778 120.654-121.778 210.278 0 87.936 60.624 271.432 144.152 436.302C288.224 829.554 403.034 1023.988 512 1023.988c108.964 0 223.774-194.434 282.492-310.336 83.532-164.872 144.152-348.368 144.152-436.302 0-89.624-42.094-162.34-121.776-210.278z" fill="#ED5564" /><path d="M816.868 67.072c-37.094-22.31-82.312-39.31-134.434-50.56-50.656-10.938-108-16.5-170.434-16.5-7.188 0-14.282 0.094-21.342 0.25 54.218 1.124 104.276 6.562 149.12 16.25 52.094 11.25 97.34 28.25 134.402 50.56 79.688 47.938 121.808 120.654 121.808 210.278 0 87.936-60.622 271.432-144.152 436.302-54.902 108.372-158.84 285.368-261.178 307.93A97.582 97.582 0 0 0 512 1023.988c108.964 0 223.774-194.434 282.492-310.336 83.532-164.872 144.152-348.368 144.152-436.302 0-89.624-42.094-162.34-121.776-210.278z" fill="#FFFFFF" opacity=".2" /><path d="M512 213.352c-94.092 0-170.652 76.56-170.652 170.65 0 94.124 76.56 170.686 170.652 170.686 94.09 0 170.652-76.562 170.652-170.686 0-94.09-76.562-170.65-170.652-170.65z" fill="#FFCE54" /><path d="M405.316 597.342c-5 0-10.032-1.75-14.094-5.312-8.844-7.782-9.688-21.282-1.906-30.124l137.934-156.558h-79.248c-8.406 0-16.032-4.938-19.468-12.594s-2.062-16.624 3.532-22.904l170.65-191.996c7.844-8.812 21.312-9.594 30.124-1.782 8.812 7.844 9.594 21.312 1.782 30.124l-139.122 156.496h78.964a21.34 21.34 0 0 1 19.438 12.562 21.374 21.374 0 0 1-3.438 22.874l-169.12 191.996a21.284 21.284 0 0 1-16.028 7.218z" fill="#434A54" /></svg>