<?xml version="1.0" standalone="no"?><!DOCTYPE svg PUBLIC "-//W3C//DTD SVG 1.1//EN" "http://www.w3.org/Graphics/SVG/1.1/DTD/svg11.dtd"><svg class="icon" width="128px" height="128.00px" viewBox="0 0 1024 1024" version="1.1" xmlns="http://www.w3.org/2000/svg"><path d="M23.39 980.348c0 23.514 19.086 42.6 42.6 42.6h915.426c23.514 0 42.6-19.086 42.6-42.6V86.19c0-23.514-19.086-42.568-42.6-42.568H65.99c-23.514 0-42.6 19.054-42.6 42.568v894.158z" fill="#CCD1D9" /><path d="M21.3 128.79c-11.758 0-21.3 9.512-21.3 21.27v170.336c0 11.758 9.542 21.27 21.3 21.27 11.756 0 21.298-9.512 21.298-21.27V150.058c0.002-11.758-9.54-21.268-21.298-21.268zM21.3 639.736c-11.758 0-21.3 9.512-21.3 21.27v170.336c0 11.758 9.542 21.27 21.3 21.27 11.756 0 21.298-9.512 21.298-21.27v-170.336c0.002-11.758-9.54-21.27-21.298-21.27z" fill="#434A54" /><path d="M23.39 937.78c0 23.514 19.086 42.568 42.6 42.568h915.426c23.514 0 42.6-19.054 42.6-42.568V43.622c0-23.514-19.086-42.568-42.6-42.568H65.99c-23.514 0-42.6 19.054-42.6 42.568V937.78z" fill="#E6E9ED" /><path d="M894.158 490.7c0 11.756 9.542 21.3 21.298 21.3 11.758 0 21.3-9.542 21.3-21.3s-9.542-21.3-21.3-21.3c-11.754 0-21.298 9.544-21.298 21.3z" fill="#434A54" /><path d="M298.074 597.138c-23.42 0-42.6-19.148-42.6-42.57v-127.736c0-23.42 19.178-42.568 42.6-42.568h468.348c23.452 0 42.6 19.148 42.6 42.568v127.736c0 23.422-19.148 42.57-42.6 42.57H298.074z" fill="#DA4453" /><path d="M638.684 724.874c0 23.422-19.146 42.602-42.566 42.602h-127.738c-23.42 0-42.568-19.18-42.568-42.602V256.526c0-23.42 19.148-42.6 42.568-42.6h127.738c23.42 0 42.566 19.178 42.566 42.6v468.348z" fill="#ED5564" /></svg>