<?xml version="1.0" standalone="no"?><!DOCTYPE svg PUBLIC "-//W3C//DTD SVG 1.1//EN" "http://www.w3.org/Graphics/SVG/1.1/DTD/svg11.dtd"><svg class="icon" width="128px" height="128.00px" viewBox="0 0 1024 1024" version="1.1" xmlns="http://www.w3.org/2000/svg"><path d="M895.994 512h-42.686c-35.25 0-64 28.686-64 64v341.304c0 35.312 28.75 64 64 64h42.686c35.31 0 63.998-28.688 63.998-64V576c0-35.312-28.688-64-63.998-64zM170.678 512H128.008c-35.282 0-64 28.686-64 64v341.304c0 35.312 28.718 64 64 64h42.67c35.282 0 64-28.688 64-64V576c0-35.312-28.72-64-64-64z" fill="#434A54" /><path d="M213.334 597.312l21.344 4.624V576c0-35.312-28.718-64-64-64H128.008c-35.282 0-64 28.686-64 64v120.872l149.326-99.56zM810.684 597.312l-21.376 4.624V576c0-35.312 28.75-64 64-64h42.686c35.31 0 63.998 28.686 63.998 64v120.872l-149.308-99.56z" fill="#ED5564" /><path d="M405.362 128.038c-1.688 0-3.406-0.188-5.124-0.624-11.438-2.812-18.422-14.406-15.624-25.842 0.64-2.624 6.796-26.25 24.828-50.342C434.502 17.696 469.97 0.008 512 0.008c42.032 0 77.5 17.688 102.562 51.218 18.032 24.094 24.186 47.718 24.81 50.342 2.812 11.436-4.186 23-15.624 25.812s-23-4.188-25.812-15.624c-0.688-2.75-18.438-69.092-85.938-69.092-67.482 0-85.248 66.342-85.966 69.186-2.39 9.72-11.092 16.188-20.67 16.188z" fill="#434A54" /><path d="M810.684 192.006H213.334c-11.782 0-21.328 9.532-21.328 21.312v668.49c0 11.75 9.546 21.308 21.328 21.308h597.35c11.75 0 21.312-9.558 21.312-21.308V213.318c0-11.78-9.562-21.312-21.312-21.312z" fill="#CCD1D9" /><path d="M789.308 682.684H234.678c-35.296 0-64 28.688-64 64v213.308c0 35.312 28.704 64 64 64h554.63c35.312 0 64-28.688 64-64V746.684c0-35.312-28.686-64-64-64z" fill="#DA4453" /><path d="M746.684 895.996c-11.812 0-21.376-9.562-21.376-21.312v-42.688c0-11.812 9.562-21.312 21.376-21.312 11.75 0 21.312 9.5 21.312 21.312v42.688c0 11.75-9.562 21.312-21.312 21.312z" fill="#434A54" /><path d="M725.308 980.43c-11.75 0-21.312 9.562-21.312 21.376v21.312c0 0.312 0.032 0.562 0.062 0.876h42.562c0-0.312 0.062-0.562 0.062-0.876v-21.312a21.362 21.362 0 0 0-21.374-21.376zM639.998 980.43c-11.78 0-21.31 9.562-21.31 21.376v21.312c0 0.312 0 0.562 0.032 0.876h42.592V1001.806c-0.002-11.814-9.532-21.376-21.314-21.376zM554.688 980.43c-11.796 0-21.36 9.562-21.36 21.376v21.312c0 0.312 0.032 0.562 0.046 0.876h42.562c0.032-0.312 0.062-0.562 0.062-0.876v-21.312c0.002-11.814-9.56-21.376-21.31-21.376zM469.33 980.43c-11.782 0-21.328 9.562-21.328 21.376v21.312c0 0.312 0.032 0.562 0.046 0.876h42.576c0.016-0.312 0.046-0.562 0.046-0.876v-21.312c0.002-11.814-9.56-21.376-21.34-21.376zM384.002 980.43c-11.782 0-21.328 9.562-21.328 21.376v21.312c0 0.312 0.032 0.562 0.046 0.876h42.578c0-0.312 0.032-0.562 0.032-0.876v-21.312c0-11.814-9.546-21.376-21.328-21.376zM298.676 980.43c-11.782 0-21.344 9.562-21.344 21.376v21.312c0 0.312 0.032 0.562 0.046 0.876h42.578c0.016-0.312 0.046-0.562 0.046-0.876v-21.312c0.002-11.814-9.544-21.376-21.326-21.376z" fill="#080808" opacity=".1" /><path d="M384.002 512h-85.326c-11.782 0-21.344 9.53-21.344 21.312v64a21.38 21.38 0 0 0 11.796 19.124l42.672 21.312c3 1.5 6.266 2.25 9.532 2.25 3.282 0 6.546-0.75 9.546-2.25l42.67-21.312a21.368 21.368 0 0 0 11.782-19.124v-64c0-11.78-9.546-21.312-21.328-21.312zM725.308 512h-85.31a21.296 21.296 0 0 0-21.31 21.312v64c0 8.124 4.562 15.5 11.782 19.124l42.654 21.312c3 1.5 6.282 2.25 9.562 2.25 3.25 0 6.5-0.75 9.498-2.25l42.688-21.312a21.396 21.396 0 0 0 11.812-19.124v-64c0-11.78-9.562-21.312-21.376-21.312z" fill="#434A54" /><path d="M767.996 85.32H256.004c-35.28 0-63.998 28.718-63.998 64v341.338c0 35.28 28.718 64.03 63.998 64.03h511.992c35.312 0 64-28.75 64-64.03V149.32c0-35.282-28.688-64-64-64z" fill="#E6E9ED" /><path d="M639.998 277.318h-85.31V192.006h-85.358v85.312h-85.328v85.342h85.328V448h85.358v-85.34h85.31zM170.678 831.996h682.63v-85.312c0-35.312-28.688-64-64-64H234.678c-35.296 0-64 28.688-64 64v85.312z" fill="#ED5564" /><path d="M597.312 810.684h-170.638c-11.782 0-21.344 9.5-21.344 21.312h213.358c0-11.812-9.564-21.312-21.376-21.312z" fill="#FFFFFF" opacity=".2" /></svg>