<?xml version="1.0" standalone="no"?><!DOCTYPE svg PUBLIC "-//W3C//DTD SVG 1.1//EN" "http://www.w3.org/Graphics/SVG/1.1/DTD/svg11.dtd"><svg class="icon" width="128px" height="128.00px" viewBox="0 0 1024 1024" version="1.1" xmlns="http://www.w3.org/2000/svg"><path d="M490.664 706v296.656c0 11.782 9.562 21.344 21.312 21.344 11.796 0 21.36-9.562 21.36-21.344V706h-42.672z" fill="#37BC9B" /><path d="M753.336 121.312c9.75 9.75 18.876 20 27.25 30.688 19.25-39.468 30.062-83.812 30.062-130.688 0-11.78-9.562-21.312-21.312-21.312-11.812 0-21.376 9.532-21.376 21.312 0 33.5-6.376 66-18.562 96.124 1.312 1.282 2.626 2.564 3.938 3.876zM270.664 121.312c1.25-1.312 2.624-2.594 3.938-3.876-12.188-30.124-18.624-62.624-18.624-96.124 0-11.782-9.5-21.312-21.312-21.312-11.75 0-21.312 9.532-21.312 21.312 0 46.876 10.812 91.218 30 130.688a340.926 340.926 0 0 1 27.31-30.688z" fill="#37BC9B" /><path d="M511.976 0C311.726 0 149.352 162.376 149.352 362.656c0 200.312 162.376 362.656 362.624 362.656 200.296 0 362.672-162.344 362.672-362.656C874.648 162.376 712.274 0 511.976 0z m226.298 588.938c-29.438 29.406-63.624 52.468-101.75 68.594-39.438 16.688-81.312 25.124-124.546 25.124-43.188 0-85.124-8.438-124.5-25.124-38.124-16.124-72.376-39.188-101.75-68.594s-52.5-63.624-68.624-101.718c-16.624-39.438-25.124-81.344-25.124-124.562s8.5-85.124 25.124-124.532c16.124-38.124 39.25-72.344 68.624-101.75s63.624-52.468 101.75-68.594c39.376-16.656 81.312-25.124 124.5-25.124 43.234 0 85.11 8.468 124.546 25.124 38.124 16.124 72.312 39.188 101.75 68.594 29.376 29.406 52.438 63.624 68.562 101.75 16.688 39.406 25.124 81.312 25.124 124.532s-8.438 85.124-25.124 124.562c-16.126 38.092-39.188 72.312-68.562 101.718zM661.336 853.312H362.664c-11.75 0-21.312 9.562-21.312 21.344S350.914 896 362.664 896h298.672c11.75 0 21.312-9.562 21.312-21.344s-9.562-21.344-21.312-21.344z" fill="#48CFAD" /></svg>