<?xml version="1.0" standalone="no"?><!DOCTYPE svg PUBLIC "-//W3C//DTD SVG 1.1//EN" "http://www.w3.org/Graphics/SVG/1.1/DTD/svg11.dtd"><svg class="icon" width="128px" height="128.00px" viewBox="0 0 1024 1024" version="1.1" xmlns="http://www.w3.org/2000/svg"><path d="M646.364 12.522c-16.688-16.686-43.688-16.686-60.374 0L106.114 492.384c-16.656 16.656-16.656 43.686 0 60.342l181.026 180.996L827.358 193.516 646.364 12.522zM226.796 552.726c-16.656-16.656-16.656-43.688 0-60.342L585.99 133.174c16.686-16.656 43.686-16.656 60.374 0l120.622 120.684-419.502 419.52-120.688-120.652z" fill="#E5E8EC" /><path d="M966.792 178.422c0-17.092-6.688-33.156-18.75-45.248-12.124-12.062-28.186-18.718-45.248-18.718-17.124 0-33.186 6.624-45.248 18.718L196.61 794.062l90.53 90.498 51.282-51.248a21.242 21.242 0 0 0 15.06 6.218c5.468 0 10.938-2.062 15.094-6.218a21.332 21.332 0 0 0 0-30.188l30.154-30.156a21.35 21.35 0 0 0 30.188 0c8.312-8.342 8.312-21.84 0-30.184l30.156-30.156a21.296 21.296 0 0 0 15.094 6.25 21.22 21.22 0 0 0 15.06-6.25 21.332 21.332 0 0 0 0-30.188l30.188-30.154a21.332 21.332 0 0 0 15.062 6.25 21.4 21.4 0 0 0 15.14-6.25c8.312-8.344 8.312-21.844 0-30.156l30.124-30.186a21.234 21.234 0 0 0 15.124 6.25c5.436 0 10.874-2.062 15.06-6.25 8.312-8.312 8.312-21.812 0-30.156l30.188-30.188v0.032c4.124 4.156 9.624 6.218 15.062 6.218s10.938-2.062 15.062-6.218a21.272 21.272 0 0 0 0-30.186l30.188-30.156a21.332 21.332 0 0 0 15.062 6.25c5.5 0 10.936-2.094 15.124-6.25 8.312-8.344 8.312-21.844 0-30.186l30.124-30.156a21.368 21.368 0 0 0 15.124 6.25c5.438 0 10.936-2.094 15.06-6.25 8.376-8.344 8.312-21.844 0-30.188l30.188-30.154a21.332 21.332 0 0 0 15.062 6.25c5.5 0 10.938-2.094 15.124-6.25 8.312-8.344 8.312-21.842 0-30.156l30.124-30.188a21.234 21.234 0 0 0 15.124 6.25c5.438 0 10.876-2.062 15.062-6.25 8.312-8.312 8.312-21.812 0-30.156l36.436-36.406c12.064-12.09 18.752-28.184 18.752-45.278z" fill="#E5E8EC" /><path d="M522.664 106.02c-8.344-8.312-21.876-8.312-30.188 0L199.64 398.886c-8.344 8.312-8.344 21.812 0 30.156a21.296 21.296 0 0 0 15.094 6.25c5.438 0 10.906-2.094 15.062-6.25L522.664 136.206c8.312-8.344 8.312-21.842 0-30.186z" fill="#CBD0D8" /><path d="M226.796 763.91l-150.84 150.838c-12.094 12.062-18.748 28.154-18.748 45.248s6.654 33.156 18.748 45.25c12.094 12.092 28.156 18.748 45.25 18.748s33.154-6.656 45.248-18.748l150.84-150.842-90.498-90.494z" fill="#EC5564" /></svg>