<?xml version="1.0" standalone="no"?><!DOCTYPE svg PUBLIC "-//W3C//DTD SVG 1.1//EN" "http://www.w3.org/Graphics/SVG/1.1/DTD/svg11.dtd"><svg class="icon" width="128px" height="128.00px" viewBox="0 0 1024 1024" version="1.1" xmlns="http://www.w3.org/2000/svg"><path d="M426.664 654h170.64v370h-170.64z" fill="#434A54" /><path d="M383.992 0h256v469.344h-256z" fill="#E6E9ED" /><path d="M661.304 213.344h-298.64c-11.734 0-21.344 9.594-21.344 21.328v298.672c0 11.718 3.046 30.438 6.75 41.562l29.172 87.532c3.718 11.124 6.75 29.844 6.75 41.562v85.344c0 11.718 9.594 21.344 21.328 21.344h213.36c11.718 0 21.312-9.624 21.312-21.344V704c0-11.718 3.032-30.438 6.75-41.562l29.188-87.532c3.688-11.124 6.75-29.844 6.75-41.562V234.672c0-11.734-9.626-21.328-21.376-21.328z" fill="#A0D468" /><path d="M575.992 21.344c11.782 0 21.312-9.562 21.312-21.344H554.68c0 11.782 9.53 21.344 21.312 21.344zM618.68 21.344c11.75 0 21.312-9.562 21.312-21.344h-42.688c0 11.782 9.564 21.344 21.376 21.344zM490.664 21.344c11.782 0 21.328-9.562 21.328-21.344H469.32c0 11.782 9.562 21.344 21.344 21.344z" fill="#CCD1D9" /><path d="M533.32 21.344c11.796 0 21.36-9.562 21.36-21.344h-42.688c0 11.782 9.548 21.344 21.328 21.344zM405.32 21.344c11.782 0 21.344-9.562 21.344-21.344h-42.672c0 11.782 9.548 21.344 21.328 21.344zM447.992 21.344c11.782 0 21.328-9.562 21.328-21.344h-42.656c0 11.782 9.546 21.344 21.328 21.344z" fill="#CCD1D9" /><path d="M381.96 682.688c1.25 7.624 2.032 15.376 2.032 21.312v85.344c0 11.718 9.594 21.344 21.328 21.344h213.36c11.718 0 21.312-9.624 21.312-21.344V704c0-5.938 0.782-13.688 2.032-21.312H381.96z" fill="#8CC153" /><path d="M639.992 746.688c-11.5 0.312-20.782 9.718-20.782 21.312s9.282 21.032 20.782 21.312v-42.624zM639.43 746.688c0.188 0 0.376-0.032 0.562-0.062v-42.594c-0.188 0-0.376-0.032-0.562-0.032-11.782 0-21.312 9.562-21.312 21.344s9.53 21.344 21.312 21.344zM383.992 704v42.688c11.782 0 21.328-9.562 21.328-21.344S395.774 704 383.992 704zM405.32 768c0-11.782-9.546-21.312-21.328-21.312v42.656c11.782 0 21.328-9.562 21.328-21.344z" opacity=".1" /><path d="M447.992 426.672h128c11.782 0 21.312-9.546 21.312-21.328S587.774 384 575.992 384h-128c-11.782 0-21.328 9.562-21.328 21.344s9.546 21.328 21.328 21.328zM575.992 469.344h-128c-11.782 0-21.328 9.546-21.328 21.328S436.21 512 447.992 512h128c11.782 0 21.312-9.546 21.312-21.328s-9.53-21.328-21.312-21.328z" fill="#8CC153" /></svg>