<?xml version="1.0" standalone="no"?><!DOCTYPE svg PUBLIC "-//W3C//DTD SVG 1.1//EN" "http://www.w3.org/Graphics/SVG/1.1/DTD/svg11.dtd"><svg class="icon" width="128px" height="128.00px" viewBox="0 0 1024 1024" version="1.1" xmlns="http://www.w3.org/2000/svg"><path d="M874.774 917.678c0-11.812-9.562-21.376-21.344-21.376-3.282 0-6.376 0.782-9.156 2.124v-0.032c-117.434 55.904-279.992 112.592-387.554 65.28-58.966-25.938-73.53-71.498-74.124-73.436l0.032 0.156-41 11.844c0.782 2.688 19.656 65.342 96.31 99.81 32.5 14.624 70.466 21.938 113.31 21.938 15 0 30.59-0.876 46.746-2.688 75.656-8.438 164.684-36.812 264.622-84.376h-0.032c7.22-3.434 12.19-10.746 12.19-19.244z" fill="#434A54" /><path d="M405.284 725.62h-85.374c-11.782 0-21.344 9.532-21.344 21.312v149.372c0 11.812 9.562 21.376 21.344 21.376h85.374c11.78 0 21.342-9.562 21.342-21.376v-149.372c0-11.782-9.562-21.312-21.342-21.312z" fill="#656D78" /><path d="M319.912 853.648c0-11.782-9.562-21.344-21.344-21.344v42.688c11.78 0 21.344-9.562 21.344-21.344zM405.284 853.648c0 11.782 9.562 21.344 21.342 21.344v-42.688c-11.78 0-21.342 9.564-21.342 21.344z" fill="#434A54" /><path d="M576.028 213.43c0 117.856-95.526 213.4-213.398 213.4-117.84 0-213.402-95.544-213.402-213.4C149.228 95.556 244.788 0.012 362.63 0.012c117.87 0 213.398 95.544 213.398 213.418z" fill="#E6E9ED" /><path d="M511.532 362.816H212.726l63.998 448.144h170.746z" fill="#ED5564" /><path d="M362.628 490.86c-11.812 0-21.344 9.546-21.344 21.328v128.058c0 11.782 9.532 21.344 21.344 21.344 11.78 0 21.342-9.562 21.342-21.344v-128.058c0.002-11.782-9.56-21.328-21.342-21.328z" fill="#DA4453" /><path d="M298.598 74.698c0 11.796-9.53 21.344-21.312 21.344a21.32 21.32 0 0 1-21.342-21.344c0-11.78 9.53-21.326 21.342-21.326 11.782 0 21.312 9.546 21.312 21.326zM383.972 74.698c0 11.796-9.562 21.344-21.342 21.344-11.782 0-21.344-9.546-21.344-21.344 0-11.78 9.562-21.326 21.344-21.326 11.78 0 21.342 9.546 21.342 21.326zM469.344 74.698c0 11.796-9.562 21.344-21.342 21.344-11.782 0-21.344-9.546-21.344-21.344 0-11.78 9.562-21.326 21.344-21.326 11.78 0 21.342 9.546 21.342 21.326zM255.944 160.07c0 11.782-9.562 21.344-21.344 21.344s-21.342-9.562-21.342-21.344 9.562-21.342 21.342-21.342 21.344 9.562 21.344 21.342zM341.286 160.07c0 11.782-9.562 21.344-21.342 21.344S298.6 171.852 298.6 160.07s9.562-21.342 21.344-21.342 21.342 9.562 21.342 21.342zM426.658 160.07c0 11.782-9.562 21.344-21.342 21.344-11.782 0-21.344-9.562-21.344-21.344s9.562-21.342 21.344-21.342c11.78 0 21.342 9.562 21.342 21.342zM512.032 160.07c0 11.782-9.562 21.344-21.342 21.344-11.782 0-21.344-9.562-21.344-21.344s9.562-21.342 21.344-21.342c11.778 0 21.342 9.562 21.342 21.342zM213.258 245.428c0 11.782-9.562 21.344-21.344 21.344s-21.342-9.562-21.342-21.344 9.562-21.344 21.342-21.344 21.344 9.562 21.344 21.344zM298.598 245.428c0 11.782-9.53 21.344-21.312 21.344-11.812 0-21.342-9.562-21.342-21.344s9.53-21.344 21.342-21.344c11.782 0 21.312 9.562 21.312 21.344zM383.972 245.428c0 11.782-9.562 21.344-21.342 21.344-11.782 0-21.344-9.562-21.344-21.344s9.562-21.344 21.344-21.344c11.78 0 21.342 9.562 21.342 21.344zM469.344 245.428c0 11.782-9.562 21.344-21.342 21.344-11.782 0-21.344-9.562-21.344-21.344s9.562-21.344 21.344-21.344c11.78 0 21.342 9.562 21.342 21.344zM554.688 245.428c0 11.782-9.532 21.344-21.312 21.344-11.812 0-21.344-9.562-21.344-21.344s9.532-21.344 21.344-21.344c11.78 0 21.312 9.562 21.312 21.344zM255.944 330.8c0 11.782-9.562 21.328-21.344 21.328s-21.342-9.546-21.342-21.328c0-11.796 9.562-21.344 21.342-21.344s21.344 9.548 21.344 21.344zM341.286 330.8c0 11.782-9.562 21.328-21.342 21.328S298.6 342.582 298.6 330.8c0-11.796 9.562-21.344 21.344-21.344s21.342 9.548 21.342 21.344zM426.658 330.8c0 11.782-9.562 21.328-21.342 21.328-11.782 0-21.344-9.546-21.344-21.328 0-11.796 9.562-21.344 21.344-21.344 11.78 0.002 21.342 9.548 21.342 21.344zM512.032 330.8c0 11.782-9.562 21.328-21.342 21.328-11.782 0-21.344-9.546-21.344-21.328 0-11.796 9.562-21.344 21.344-21.344 11.778 0.002 21.342 9.548 21.342 21.344z" fill="#CCD1D9" /><path d="M384.002 554.876h-42.718c-11.812 0-21.342 9.56-21.342 21.342s9.532 21.344 21.342 21.344h42.718c11.782 0 21.344-9.562 21.344-21.344s-9.562-21.342-21.344-21.342z" fill="#434A54" /></svg>