<?xml version="1.0" standalone="no"?><!DOCTYPE svg PUBLIC "-//W3C//DTD SVG 1.1//EN" "http://www.w3.org/Graphics/SVG/1.1/DTD/svg11.dtd"><svg class="icon" width="128px" height="128.00px" viewBox="0 0 1024 1024" version="1.1" xmlns="http://www.w3.org/2000/svg"><path d="M85.33 821.302c0 11.812-9.546 21.376-21.328 21.376s-21.344-9.562-21.344-21.376c0-11.75 9.562-21.312 21.344-21.312s21.328 9.562 21.328 21.312zM981.308 821.302c0 11.812-9.532 21.376-21.312 21.376s-21.344-9.562-21.344-21.376c0-11.75 9.562-21.312 21.344-21.312s21.312 9.562 21.312 21.312z" fill="#434A54" /><path d="M1023.996 799.99c0 11.812-9.562 21.312-21.344 21.312H21.33c-11.782 0-21.328-9.5-21.328-21.312V202.666c0-11.782 9.546-21.344 21.328-21.344h981.322c11.782 0 21.344 9.562 21.344 21.344v597.324z" fill="#E6E9ED" /><path d="M725.308 181.322h42.688v639.98h-42.688z" fill="#CCD1D9" /><path d="M746.652 352.008h256.376v42.656H746.652zM917.308 693.304h-85.312c-11.782 0-21.344 9.562-21.344 21.376 0 11.75 9.562 21.312 21.344 21.312h85.312c11.812 0 21.344-9.562 21.344-21.312 0-11.812-9.53-21.376-21.344-21.376z" fill="#CCD1D9" /><path d="M831.996 480.008c11.782 0 21.312-9.562 21.312-21.344s-9.532-21.344-21.312-21.344-21.344 9.562-21.344 21.344 9.562 21.344 21.344 21.344zM917.308 480.008c11.812 0 21.344-9.562 21.344-21.344s-9.532-21.344-21.344-21.344c-11.75 0-21.312 9.562-21.312 21.344s9.562 21.344 21.312 21.344zM831.996 565.304c11.782 0 21.312-9.5 21.312-21.312 0-11.766-9.532-21.328-21.312-21.328s-21.344 9.562-21.344 21.328c0 11.812 9.562 21.312 21.344 21.312zM917.308 522.664c-11.75 0-21.312 9.562-21.312 21.328 0 11.812 9.562 21.312 21.312 21.312 11.812 0 21.344-9.5 21.344-21.312 0-11.766-9.53-21.328-21.344-21.328zM831.996 650.68c11.782 0 21.312-9.562 21.312-21.376 0-11.75-9.532-21.312-21.312-21.312s-21.344 9.562-21.344 21.312c0 11.814 9.562 21.376 21.344 21.376zM917.308 607.992c-11.75 0-21.312 9.562-21.312 21.312 0 11.812 9.562 21.376 21.312 21.376 11.812 0 21.344-9.562 21.344-21.376 0-11.75-9.53-21.312-21.344-21.312z" fill="#434A54" /><path d="M106.658 288.01H640V714.68H106.658z" fill="#5D9CEC" /><path d="M85.33 266.666v469.326h575.982V266.666H85.33z m533.326 426.638H128.002V309.322h490.654v383.982z" fill="#4A89DC" /><path d="M725.308 352.008c-11.75 0-21.312 9.532-21.312 21.312v255.984c0 11.812 9.562 21.376 21.312 21.376 11.812 0 21.344-9.562 21.344-21.376V373.322c0-11.782-9.53-21.314-21.344-21.314z" fill="#CCD1D9" /><path d="M378.656 693.304H256l128-383.982h122.656z" fill="#FFFFFF" opacity=".1" /><path d="M1002.652 181.322H21.33c-11.782 0-21.328 9.562-21.328 21.344v597.324c0 11.812 9.546 21.312 21.328 21.312h981.322c11.782 0 21.344-9.5 21.344-21.312V202.666c0-11.782-9.562-21.344-21.344-21.344zM981.308 778.68H42.658V224.01h938.65V778.68z" fill="#CCD1D9" /><path d="M767.996 224.01h213.312v128H767.996z" fill="#5D9CEC" /></svg>