<?xml version="1.0" standalone="no"?><!DOCTYPE svg PUBLIC "-//W3C//DTD SVG 1.1//EN" "http://www.w3.org/Graphics/SVG/1.1/DTD/svg11.dtd"><svg class="icon" width="128px" height="128.00px" viewBox="0 0 1024 1024" version="1.1" xmlns="http://www.w3.org/2000/svg"><path d="M469.344083 682.650667h85.311834v234.649541h-85.311834z" fill="#434A54" /><path d="M618.651792 703.994625H405.346208c-97.30981 0-170.683667-73.375857-170.683666-170.683667V277.317458c0-11.781977 9.561981-21.311958 21.343958-21.311958h63.997875c11.781977 0 21.341958 9.531981 21.341958 21.311958s-9.561981 21.343958-21.341958 21.343959h-42.655917v234.649541c0 35.59193 12.937975 68.091867 36.405929 91.589821 23.499954 23.467954 55.999891 36.405929 91.591821 36.405929h213.305584c35.59393 0 68.093867-12.937975 91.593821-36.405929 23.495954-23.497954 36.401929-55.997891 36.401929-91.589821V298.661417h-42.651917c-11.781977 0-21.343958-9.561981-21.343958-21.343959s9.561981-21.311958 21.343958-21.311958h63.995875c11.781977 0 21.343958 9.531981 21.343958 21.311958v255.9935c0 97.30981-73.371857 170.683667-170.683666 170.683667z" fill="#656D78" /><path d="M575.995875 639.99475h-127.99375c-82.341839 0-149.339708-66.997869-149.339708-149.339708V149.319708c0-82.341839 66.999869-149.307708 149.339708-149.307708h127.99375c82.343839 0 149.343708 66.965869 149.343708 149.307708v341.335334c0 82.341839-66.999869 149.339708-149.343708 149.339708z" fill="#CCD1D9" /><path d="M747.117541 895.98825H276.880459a21.299958 21.299958 0 0 0-21.311958 21.311958v85.341834c0 11.781977 9.529981 21.343958 21.311958 21.343958h470.235082c11.781977 0 21.311958-9.561981 21.311958-21.343958v-85.341834a21.295958 21.295958 0 0 0-21.309958-21.311958z" fill="#656D78" /><path d="M533.343958 469.311083v-42.653916h191.995625v-42.655917h-191.995625v-42.685917h191.995625v-42.653916h-191.995625v-42.655917h191.995625V213.319583h-191.995625V170.663667h191.995625V149.319708a150.059707 150.059707 0 0 0-1.531997-21.309958H300.192414a150.059707 150.059707 0 0 0-1.531997 21.309958v21.343959h191.995625v42.655916H298.660417v42.685917h191.995625v42.655917H298.660417v42.653916h191.995625v42.685917H298.660417v42.655917h191.995625v42.653916H298.660417v21.343959c0 7.249986 0.531999 14.343972 1.531997 21.343958h423.615172c0.999998-6.999986 1.531997-14.093972 1.531997-21.343958v-21.343959h-191.995625z" fill="#AAB2BC" /><path d="M554.655917 320.003375c0 23.561954-19.093963 42.655917-42.655917 42.655917-23.561954 0-42.655917-19.093963-42.655917-42.655917 0-23.591954 19.093963-42.685917 42.655917-42.685917 23.561954 0 42.655917 19.093963 42.655917 42.685917z" fill="#656D78" /><path d="M512 384.00125c-35.279931 0-63.997875-28.715944-63.997875-63.997875 0-35.309931 28.717944-63.997875 63.997875-63.997875 35.281931 0 63.995875 28.687944 63.995875 63.997875 0 35.281931-28.713944 63.997875-63.995875 63.997875z m0-85.339833c-11.749977 0-21.341958 9.559981-21.341958 21.341958 0 11.749977 9.591981 21.311958 21.341958 21.311958s21.343958-9.561981 21.343958-21.311958c0-11.781977-9.593981-21.341958-21.343958-21.341958zM448.002125 575.996875c-11.781977 0-21.343958 9.531981-21.343958 21.311958v41.15392c6.967986 0.999998 14.093972 1.531997 21.343958 1.531997h21.341958v-42.685917c0-11.779977-9.561981-21.311958-21.341958-21.311958zM512 575.996875c-11.781977 0-21.341958 9.531981-21.341958 21.311958v42.685917h42.685916v-42.685917c0-11.779977-9.561981-21.311958-21.343958-21.311958zM597.339833 638.462753v-41.15392c0-11.781977-9.561981-21.311958-21.343958-21.311958-11.777977 0-21.339958 9.531981-21.339958 21.311958v42.685917h21.339958c7.249986 0 14.375972-0.531999 21.343958-1.531997zM575.995875 64.009875c11.781977 0 21.343958-9.559981 21.343958-21.341958V1.541997a150.177707 150.177707 0 0 0-21.343958-1.531997h-21.339958v42.655917c0 11.783977 9.561981 21.343958 21.339958 21.343958zM512 64.009875c11.781977 0 21.343958-9.559981 21.343958-21.341958V0.012h-42.685916v42.655917c0 11.781977 9.559981 21.341958 21.341958 21.341958zM426.658167 1.541997v41.12392c0 11.781977 9.561981 21.341958 21.343958 21.341958 11.779977 0 21.341958-9.559981 21.341958-21.341958V0.012h-21.341958c-7.249986 0-14.375972 0.529999-21.343958 1.529997z" fill="#AAB2BC" /><path d="M682.213668 981.298083c-11.781977 0-21.343958 9.561981-21.343959 21.343959v21.343958h42.687917v-21.343958c0-11.779977-9.561981-21.343958-21.343958-21.343959zM596.871834 981.298083c-11.781977 0-21.311958 9.561981-21.311958 21.343959v21.343958h42.655917v-21.343958c-0.002-11.779977-9.563981-21.343958-21.343959-21.343959zM511.562001 981.298083c-11.781977 0-21.341958 9.561981-21.341958 21.343959v21.343958h42.655916v-21.343958c0-11.779977-9.531981-21.343958-21.313958-21.343959zM426.220168 981.298083c-11.781977 0-21.341958 9.561981-21.341959 21.343959v21.343958h42.685917v-21.343958c0-11.779977-9.561981-21.343958-21.343958-21.343959zM340.878334 981.298083c-11.779977 0-21.311958 9.561981-21.311958 21.343959v21.343958h42.655917v-21.343958c0-11.779977-9.561981-21.343958-21.343959-21.343959z" fill="#434A54" /></svg>