<?xml version="1.0" standalone="no"?><!DOCTYPE svg PUBLIC "-//W3C//DTD SVG 1.1//EN" "http://www.w3.org/Graphics/SVG/1.1/DTD/svg11.dtd"><svg class="icon" width="128px" height="128.00px" viewBox="0 0 1024 1024" version="1.1" xmlns="http://www.w3.org/2000/svg"><path d="M255.898 6.248L165.274 96.872l120.812 120.876 90.624-90.658z" fill="#E6E9ED" /><path d="M666.336 639.5c-34.5 51.5-93.188 85.438-159.876 85.438-106.124 0-192.25-86.094-192.25-192.25 0-91.502 63.938-168.064 149.562-187.502V215.06c-156.75 20.876-277.688 155.124-277.688 317.596 0 176.968 143.438 320.468 320.376 320.468 139.5 0 258.188-89.188 302.188-213.624h-142.312z" fill="#FFCE54" /><path d="M843.586 596.75H629.96a21.366 21.366 0 0 0-21.376 21.376c0 11.782 9.562 21.376 21.376 21.376h213.624c11.812 0 21.376-9.594 21.376-21.376a21.364 21.364 0 0 0-21.374-21.376zM666.836 473.216c8.312 8.344 8.312 21.876 0 30.22a21.406 21.406 0 0 1-30.25 0c-8.312-8.344-8.312-21.876 0.062-30.22 8.312-8.342 21.812-8.342 30.188 0z" fill="#434A54" /><path d="M697.024 382.592c16.688 16.688 16.688 43.718 0 60.406L606.4 533.656c-16.688 16.656-43.75 16.656-60.438 0L259.024 246.654c-16.688-16.688-16.688-43.718 0-60.406l90.624-90.626c16.688-16.688 43.75-16.688 60.438 0l286.938 286.97z" fill="#F6BB42" /><path d="M506.46 682.218c-47.188 0-85.438 38.25-85.438 85.468v170.876h170.876v-170.876c0-47.218-38.25-85.468-85.438-85.468z" fill="#E6E9ED" /><path d="M592.46 395.81l-181.25-181.282a21.406 21.406 0 0 0-30.25 0c-8.312 8.344-8.312 21.876 0 30.218l181.25 181.25a21.35 21.35 0 0 0 30.25 0c8.314-8.31 8.314-21.872 0-30.186z" fill="#FFCE54" /><path d="M255.898 6.248L165.274 96.872c-8.312 8.344-8.312 21.876 0 30.25 8.376 8.312 21.876 8.312 30.25 0l90.624-90.656c8.312-8.344 8.312-21.844 0-30.218-8.374-8.314-21.938-8.344-30.25 0z" fill="#CCD1D9" /><path d="M805.524 1024v-85.438c0-23.624-19.124-42.75-42.75-42.75H250.148c-23.562 0-42.688 19.124-42.688 42.75V1024h598.064z" fill="#434A54" /></svg>