<?xml version="1.0" standalone="no"?><!DOCTYPE svg PUBLIC "-//W3C//DTD SVG 1.1//EN" "http://www.w3.org/Graphics/SVG/1.1/DTD/svg11.dtd"><svg class="icon" width="128px" height="128.00px" viewBox="0 0 1024 1024" version="1.1" xmlns="http://www.w3.org/2000/svg"><path d="M64.008 85.376c-35.376 0-64 28.624-64 63.998v575.944c0 23.56 19.124 42.686 42.686 42.686h85.312V85.376H64.008z" fill="#F6BB42" /><path d="M959.992 213.374H0.008v575.942c0 35.376 28.624 64 64 64h959.984V277.372l-64-63.998z" fill="#FFCE54" /><path d="M981.304 938.624c23.562 0 42.688-19.062 42.688-42.624V277.372s-19.124 21.312-42.688 21.312h-85.312v639.942h85.312z" fill="#F6BB42" /><path d="M959.992 213.374h-64v127.996h64c35.344 0 64-28.686 64-63.998 0-35.376-28.656-63.998-64-63.998zM0.008 149.374v64h64c-35.376 0-64-28.688-64-64z" fill="#FFCE54" /><path d="M149.35 474.242a21.346 21.346 0 0 1-15.092-6.25c-8.312-8.344-8.312-21.844 0-30.186l85.342-85.312a21.33 21.33 0 0 1 30.186 0c8.312 8.312 8.312 21.844 0 30.156l-85.342 85.342a21.3 21.3 0 0 1-15.094 6.25z" fill="#434A54" /><path d="M234.692 474.242a21.3 21.3 0 0 1-15.094-6.25l-85.342-85.342c-8.312-8.312-8.312-21.844 0-30.156a21.33 21.33 0 0 1 30.186 0l85.342 85.312c8.312 8.342 8.312 21.842 0 30.186a21.34 21.34 0 0 1-15.092 6.25zM661.34 602.256c-5.468 0-10.906-2.124-15.094-6.25-8.312-8.376-8.312-21.876 0-30.188l85.344-85.326a21.332 21.332 0 0 1 30.188 0c8.312 8.312 8.312 21.844 0 30.156l-85.344 85.358a21.434 21.434 0 0 1-15.094 6.25z" fill="#434A54" /><path d="M746.684 602.256a21.426 21.426 0 0 1-15.094-6.25l-85.344-85.358c-8.312-8.312-8.312-21.844 0-30.156a21.332 21.332 0 0 1 30.188 0l85.344 85.326c8.312 8.312 8.312 21.812 0 30.188-4.188 4.124-9.626 6.25-15.094 6.25zM192.006 730.254a21.404 21.404 0 0 1-15.062-6.25c-8.344-8.376-8.344-21.876 0-30.188l85.31-85.31a21.274 21.274 0 0 1 30.188 0c8.312 8.312 8.312 21.812 0 30.124l-85.342 85.374a21.438 21.438 0 0 1-15.094 6.25z" fill="#434A54" /><path d="M277.348 730.254c-5.468 0-10.906-2.124-15.094-6.25l-85.31-85.374c-8.344-8.312-8.344-21.812 0-30.124 8.312-8.376 21.842-8.376 30.156 0l85.342 85.31c8.312 8.312 8.312 21.812 0 30.188a21.434 21.434 0 0 1-15.094 6.25z" fill="#434A54" /><path d="M576 346.244h-64c-11.782 0-21.312 9.532-21.312 21.344A21.3 21.3 0 0 0 512 388.9h12.5l-155.56 155.606a20.97 20.97 0 0 0-6.156 13 21.244 21.244 0 0 0 6.156 17.124l85.312 85.376c4.188 4.124 9.624 6.248 15.094 6.248 5.468 0 10.936-2.124 15.092-6.248 8.312-8.376 8.312-21.876 0-30.188l-70.248-70.25 140.498-140.48v12.5c0 11.78 9.532 21.31 21.312 21.31s21.344-9.532 21.344-21.31v-64c0-11.812-9.562-21.344-21.344-21.344z" fill="#DA4453" /><path d="M576 666.254c0 47.124-38.188 85.31-85.312 85.31-47.124 0-85.342-38.186-85.342-85.31s38.218-85.374 85.342-85.374c47.124 0 85.312 38.25 85.312 85.374z" fill="#ED5564" /></svg>