<?xml version="1.0" standalone="no"?><!DOCTYPE svg PUBLIC "-//W3C//DTD SVG 1.1//EN" "http://www.w3.org/Graphics/SVG/1.1/DTD/svg11.dtd"><svg class="icon" width="128px" height="128.00px" viewBox="0 0 1024 1024" version="1.1" xmlns="http://www.w3.org/2000/svg"><path d="M406.12 170.662V0.01H192.794v170.652s-106.67 213.34-106.67 255.996v575.988c0 11.782 9.562 21.344 21.344 21.344H491.46c11.782 0 21.328-9.562 21.328-21.344V426.658c0.002-42.656-106.668-255.996-106.668-255.996z" fill="#E5E8EC" /><path d="M86.124 469.312h426.664v383.992H86.124z" fill="#4FC0E8" /><path d="M427.462 1002.646c-11.782 0-21.344 9.562-21.344 21.344h42.67c0.002-11.782-9.544-21.344-21.326-21.344zM342.12 1002.646c-11.78 0-21.328 9.562-21.328 21.344h42.67c0.002-11.782-9.56-21.344-21.342-21.344zM256.794 1002.646c-11.782 0-21.328 9.562-21.328 21.344h42.656c0-11.782-9.546-21.344-21.328-21.344zM171.468 1002.646c-11.782 0-21.344 9.562-21.344 21.344h42.67c0-11.782-9.546-21.344-21.326-21.344zM406.12 108.008V65.32c-11.782 0-21.328 9.562-21.328 21.344s9.546 21.344 21.328 21.344zM214.124 86.664c0-11.782-9.546-21.344-21.328-21.344v42.688c11.78 0 21.328-9.562 21.328-21.344z" fill="#CBD0D8" /><path d="M381.542 688.684c0 45.344-36.75 82.094-82.078 82.094-45.342 0-82.092-36.75-82.092-82.094s62.796-136.808 82.092-136.808c19.298 0 82.078 91.464 82.078 136.808z" fill="#E5E8EC" /><path d="M895.252 1023.99H596.568l-42.656-447.992h383.964z" fill="#CBD0D8" /><path d="M560.006 639.996l36.562 383.994h298.684l36.56-383.994z" fill="#E5E8EC" /><path d="M747.44 725.308c-11.748 0-21.31 9.562-21.31 21.344v170.652c0 11.782 9.562 21.344 21.31 21.344 11.812 0 21.344-9.562 21.344-21.344v-170.652c0-11.78-9.532-21.344-21.344-21.344zM699.378 915.336l-0.062-0.188v-0.032l-15.936-170.464h-0.032c-1-10.844-10.124-19.344-21.218-19.344-11.812 0-21.344 9.562-21.344 21.344 0 0.688 0.032 1.344 0.094 2v0.188l16 170.464a21.334 21.334 0 0 0 21.25 19.344c11.75 0 21.31-9.562 21.31-21.344 0-0.656-0.032-1.312-0.094-1.968h0.032zM854.002 748.652c0.062-0.656 0.124-1.312 0.124-2 0-11.782-9.562-21.344-21.344-21.344-11.094 0-20.218 8.5-21.218 19.344l-16 170.464v0.22a20.96 20.96 0 0 0-0.124 1.968c0 11.782 9.562 21.344 21.344 21.344 11.094 0 20.218-8.5 21.218-19.344l16-170.464v-0.188z" fill="#CBD0D8" /><path d="M406.12 170.662V0.01h-42.656v170.652s106.654 213.34 106.654 255.996v575.988c0 11.782-9.546 21.344-21.328 21.344h42.67c11.782 0 21.328-9.562 21.328-21.344V426.658c0.002-42.656-106.668-255.996-106.668-255.996z" fill="#FFFFFF" opacity=".2" /><path d="M427.462 21.322c0-11.782-9.562-21.312-21.344-21.312H192.794c-11.782 0-21.328 9.532-21.328 21.312 0 11.78 9.546 21.342 21.328 21.342H406.12c11.78 0.002 21.342-9.562 21.342-21.342z" fill="#CBD0D8" /><path d="M895.252 575.998l-42.688 447.992h42.688l42.624-447.992z" fill="#FFFFFF" opacity=".2" /></svg>