<?xml version="1.0" standalone="no"?><!DOCTYPE svg PUBLIC "-//W3C//DTD SVG 1.1//EN" "http://www.w3.org/Graphics/SVG/1.1/DTD/svg11.dtd"><svg class="icon" width="128px" height="128.00px" viewBox="0 0 1024 1024" version="1.1" xmlns="http://www.w3.org/2000/svg"><path d="M761.744 6.264c-8.312-8.328-21.844-8.328-30.156 0a20.832 20.832 0 0 0-4.468 6.578h-0.032L449.786 650.306l39.124 17L766.212 29.858c3.376-7.814 1.908-17.22-4.468-23.594z" fill="#ED5564" /><path d="M460.394 94.012c35.046 63.998-128.668 38.67-149.778 161.994-29.014 169.542 119.998 161.778 119.998 161.778l206.228-19.11s99.372 56.608 44.876-127.558C618.654 58.012 425.348 30.014 460.394 94.012z" fill="#E6E9ED" /><path d="M597.342 938.736h-213.32l-42.672 85.246h298.648z" fill="#CCD1D9" /><path d="M682.654 256.006H298.696s-42.67 42.67-42.67 170.666c0 85.326 21.328 264.756 127.996 512h213.322c106.654-247.244 127.996-426.676 127.996-512-0.002-127.996-42.686-170.666-42.686-170.666z" fill="#EC87C0" /><path d="M426.676 938.736H384.02a21.148 21.148 0 0 0 6.25 14.998c8.328 8.312 21.842 8.312 30.17 0a21.174 21.174 0 0 0 6.236-14.998zM469.346 938.736h-42.654a21.198 21.198 0 0 0 6.234 14.998c8.344 8.312 21.844 8.312 30.172 0a21.144 21.144 0 0 0 6.248-14.998z" fill="#D770AD" /><path d="M512.002 938.736h-42.656a21.28 21.28 0 0 0 6.25 14.998c8.328 8.312 21.842 8.312 30.17 0a21.19 21.19 0 0 0 6.236-14.998zM554.658 938.736h-42.64a21.148 21.148 0 0 0 6.25 14.998c8.328 8.312 21.828 8.312 30.14 0a21.08 21.08 0 0 0 6.25-14.998z" fill="#D770AD" /><path d="M597.31 938.736h-42.652c0.032 5.436 2.094 10.874 6.248 14.998 8.344 8.312 21.844 8.312 30.188 0a21.186 21.186 0 0 0 6.216-14.998z" fill="#D770AD" /><path d="M615.716 144.666c-11.5 25.858-44.654 88.122-106.762 113.606l16.204 39.468c61.78-25.358 99.214-77.638 118.684-113.528a315.292 315.292 0 0 0-28.126-39.546zM541.112 189.132c24.17-26.686 41.982-51.936 52.48-68.138-11.092-10.592-22.31-19.592-33.374-27.108-22.624 35.56-97.98 141.808-201.836 163.228l8.61 41.78c60.044-12.372 120.26-50.326 174.12-109.762z" fill="#F5F7FA" /><path d="M676.436 987.546a21.35 21.35 0 0 0-15.094-6.25H320.024a21.326 21.326 0 0 0-15.094 6.25c-8.328 8.344-8.328 21.874 0 30.186a21.322 21.322 0 0 0 15.094 6.25h341.318a21.22 21.22 0 0 0 15.094-6.25c8.312-8.312 8.312-21.842 0-30.186z" fill="#E6E9ED" /><path d="M263.572 341.332h454.206c-12.25-62.452-35.124-85.326-35.124-85.326H298.696s-22.874 22.874-35.124 85.326zM505.768 475.578c-8.328-8.328-21.842-8.328-30.17 0a21.254 21.254 0 0 0-6.25 15.092v298.632c0 5.5 2.078 10.938 6.25 15.124 8.328 8.312 21.842 8.312 30.17 0a21.368 21.368 0 0 0 6.25-15.124V490.67c0-5.466-2.094-10.92-6.25-15.092zM612.436 475.578a21.36 21.36 0 0 0-30.186 0c-3.406 3.39-5.376 7.656-6 12.078h-0.032l-42.654 298.646h0.016c-0.906 6.438 1.078 13.188 6.016 18.124 8.312 8.312 21.842 8.312 30.154 0a21.58 21.58 0 0 0 6.032-12.094l42.686-298.648h-0.032a21.388 21.388 0 0 0-6-18.106zM447.8 786.302L405.13 487.64l-0.016 0.016a21.128 21.128 0 0 0-6.014-12.078c-8.328-8.328-21.828-8.328-30.172 0a21.29 21.29 0 0 0-6 18.092l-0.032 0.016 42.67 298.648h0.016a21.542 21.542 0 0 0 6.016 12.094c8.328 8.312 21.842 8.312 30.17 0 4.938-4.938 6.922-11.688 6.016-18.124h0.016z" fill="#D770AD" /><path d="M405.254 151.338l-42.482-4-0.016 0.282c0-0.124 0.734-12.672-6.86-26.218-10.282-18.358-30.89-30.624-61.232-36.436-11.562-2.218-19.156-13.39-16.938-24.968s13.406-19.156 24.968-16.936c30.812 5.906 71.762 21.186 92.012 60.436 12.378 23.996 10.768 45.48 10.548 47.84z" fill="#434A54" /><path d="M384.022 149.338m-63.998 0a63.998 63.998 0 1 0 127.996 0 63.998 63.998 0 1 0-127.996 0Z" fill="#ED5564" /></svg>