<?xml version="1.0" standalone="no"?><!DOCTYPE svg PUBLIC "-//W3C//DTD SVG 1.1//EN" "http://www.w3.org/Graphics/SVG/1.1/DTD/svg11.dtd"><svg class="icon" width="128px" height="128.00px" viewBox="0 0 1024 1024" version="1.1" xmlns="http://www.w3.org/2000/svg"><path d="M768.002 112.68c0 11.046-8.938 20-20 20H276.028c-11.046 0-20-8.952-20-20V20.01c0-11.032 8.954-20 20-20h471.974c11.062 0 20 8.968 20 20V112.68z" fill="#4FC0E8" /><path d="M768.002 85.352l85.312 191.996v726.642a19.98 19.98 0 0 1-20 20h-471.96c-11.046 0-20-8.938-20-20V277.348l-85.326-191.996h511.974zM341.354 21.354c11.782 0 21.328-9.562 21.328-21.344h-42.654c0 11.782 9.546 21.344 21.326 21.344zM426.682 21.354c11.78 0 21.342-9.562 21.342-21.344h-42.67c0 11.782 9.546 21.344 21.328 21.344zM512.024 21.354c11.782 0 21.328-9.562 21.328-21.344H490.68c0 11.782 9.562 21.344 21.344 21.344zM597.318 21.354c11.812 0 21.376-9.562 21.376-21.344h-42.688c0 11.782 9.562 21.344 21.312 21.344zM682.694 21.354c11.748 0 21.31-9.562 21.31-21.344h-42.686c0 11.782 9.562 21.344 21.376 21.344z" fill="#3BAED9" /><path d="M256.028 85.352l-85.342 191.996v726.642c0 11.062 8.954 20 20 20h472.008c11 0 20-8.938 20-20V277.348l85.308-191.996H256.028z" fill="#4FC0E8" /><path d="M256.028 85.352l-85.342 191.996h512.008l85.308-191.996z" opacity=".1" /><path d="M533.352 192.022c0 35.344-28.656 63.998-64 63.998-35.342 0-63.998-28.654-63.998-63.998 0-35.36 28.656-64.014 63.998-64.014 35.344-0.002 64 28.654 64 64.014z" fill="#E5E8EC" /><path d="M469.352 256.02c7.36 0 14.422-1.264 21.016-3.562-1.704-10.078-10.454-17.782-21.016-17.782-10.578 0-19.328 7.704-21.016 17.782a63.69 63.69 0 0 0 21.016 3.562zM469.352 128.006c-7.36 0-14.438 1.266-21.016 3.562 1.688 10.078 10.438 17.782 21.016 17.782 10.562 0 19.312-7.704 21.016-17.782a63.77 63.77 0 0 0-21.016-3.562zM524.774 224.022a64.028 64.028 0 0 0 7.438-19.984c-9.578-3.578-20.624 0.156-25.906 9.312-5.296 9.156-3 20.578 4.89 27.092a64.302 64.302 0 0 0 13.578-16.42zM413.932 160.006a64.028 64.028 0 0 0-7.438 19.984c9.578 3.578 20.624-0.156 25.906-9.312 5.28-9.156 2.998-20.578-4.89-27.092a63.578 63.578 0 0 0-13.578 16.42zM524.774 160.006a63.9 63.9 0 0 0-13.578-16.42c-7.89 6.516-10.188 17.936-4.89 27.092 5.282 9.156 16.328 12.89 25.906 9.312a64.08 64.08 0 0 0-7.438-19.984zM413.932 224.022a63.578 63.578 0 0 0 13.578 16.42c7.888-6.516 10.17-17.936 4.89-27.092-5.282-9.156-16.328-12.89-25.906-9.312a64.016 64.016 0 0 0 7.438 19.984z" fill="#CBD0D8" /><path d="M768.002 85.352l-85.308 191.996h170.62z" opacity=".1" /><path d="M682.694 471.032c-6.75 0.922-13.062 2.204-18.562 3.876l-51.876 15.688c-12.25 3.704-28.376 5.562-44.562 5.562-16.124 0-32.31-1.86-44.576-5.562l-51.812-15.688c-12.266-3.704-28.422-5.562-44.592-5.562-16.156 0-32.312 1.86-44.578 5.562l-51.826 15.688c-12.25 3.704-28.422 5.562-44.578 5.562s-32.328-1.86-44.578-5.562l-51.826-15.688c-5.532-1.672-11.876-2.968-18.64-3.89v310.072c1.454 0.312 2.718 0.656 3.782 0.968l51.812 15.688c21.186 6.376 44.03 7.75 59.452 7.75s38.266-1.376 59.452-7.75l51.812-15.688c5.39-1.624 16.032-3.374 29.718-3.374 13.702 0 24.342 1.75 29.732 3.374l51.812 15.688c21.188 6.376 43.998 7.75 59.436 7.75s38.25-1.376 59.438-7.75l51.812-15.688a55.514 55.514 0 0 1 3.75-0.938V471.032z" fill="#E5E8EC" /><path d="M554.694 618.686H298.684c-11.782 0-21.328 9.562-21.328 21.31 0 11.812 9.546 21.344 21.328 21.344h256.01c11.75 0 21.312-9.532 21.312-21.344 0-11.748-9.562-21.31-21.312-21.31z" fill="#4FC0E8" /></svg>