<?xml version="1.0" standalone="no"?><!DOCTYPE svg PUBLIC "-//W3C//DTD SVG 1.1//EN" "http://www.w3.org/Graphics/SVG/1.1/DTD/svg11.dtd"><svg class="icon" width="128px" height="128.00px" viewBox="0 0 1024 1024" version="1.1" xmlns="http://www.w3.org/2000/svg"><path d="M639.774 298.548S610.938 213.434 512 213.434c-98.908 0-127.774 85.488-127.774 85.488l-170.792 724.92h597.13l-170.79-725.294z" fill="#9ED36A" /><path d="M225.462 0.156L134.99 90.644l301.594 301.612 90.506-90.488zM587.414 482.728l-90.504 90.502 301.628 301.598 90.472-90.472z" fill="#EC5564" /><path d="M512 810.848c-35.334 0-63.98 28.646-63.98 63.98v149.016h127.96v-149.016c0-35.334-28.648-63.98-63.98-63.98zM889.01 784.356l-30.146 30.146L134.99 90.644l30.146-30.162z" fill="#424953" /><path d="M858.864 60.482L557.234 362.092l90.474 90.488L949.336 150.968zM74.67 724.014l301.616-301.616 90.472 90.472L165.14 814.486z" fill="#EC5564" /><path d="M165.136 814.502l-30.146-30.146L858.864 60.482l30.146 30.162z" fill="#646C77" /></svg>