<?xml version="1.0" standalone="no"?><!DOCTYPE svg PUBLIC "-//W3C//DTD SVG 1.1//EN" "http://www.w3.org/Graphics/SVG/1.1/DTD/svg11.dtd"><svg class="icon" width="128px" height="128.00px" viewBox="0 0 1024 1024" version="1.1" xmlns="http://www.w3.org/2000/svg"><path d="M298.668 426.672h-64c-11.78 0-21.342-9.562-21.342-21.344S222.888 384 234.668 384h64c11.782 0 21.328 9.546 21.328 21.328s-9.546 21.344-21.328 21.344zM789.3 426.672h-64c-11.75 0-21.312-9.562-21.312-21.344S713.55 384 725.3 384h64c11.812 0 21.374 9.546 21.374 21.328s-9.56 21.344-21.374 21.344zM789.3 981.304H234.668c-11.78 0-21.342-9.532-21.342-21.312s9.562-21.312 21.342-21.312H789.3c11.812 0 21.374 9.532 21.374 21.312s-9.56 21.312-21.374 21.312z" fill="#CCD1D9" /><path d="M725.3 0.008H298.668c-11.782 0-21.344 9.546-21.344 21.328v874.656c0 11.782 9.562 21.312 21.344 21.312H725.3c11.812 0 21.376-9.532 21.376-21.312V21.336c0-11.782-9.562-21.328-21.376-21.328z" fill="#5D9CEC" /><path d="M234.668 1023.992c-11.78 0-21.342-9.562-21.342-21.312V213.334c0-11.782 9.562-21.328 21.342-21.328 11.782 0 21.328 9.546 21.328 21.328V1002.68c0 11.75-9.546 21.312-21.328 21.312zM789.3 1023.992c-11.75 0-21.312-9.562-21.312-21.312V213.334c0-11.782 9.562-21.328 21.312-21.328 11.812 0 21.374 9.546 21.374 21.328V1002.68c0 11.75-9.56 21.312-21.374 21.312z" fill="#E6E9ED" /><path d="M509.32 917.304h-122.654L514.664 0.008h122.636z" fill="#FFFFFF" opacity=".1" /></svg>