<?xml version="1.0" standalone="no"?><!DOCTYPE svg PUBLIC "-//W3C//DTD SVG 1.1//EN" "http://www.w3.org/Graphics/SVG/1.1/DTD/svg11.dtd"><svg class="icon" width="128px" height="128.00px" viewBox="0 0 1024 1024" version="1.1" xmlns="http://www.w3.org/2000/svg"><path d="M21.352 170.686h661.3v640.006H21.352z" fill="#5D9CEC" /><path d="M661.34 170.686h341.308v640.006H661.34z" fill="#E6E9ED" /><path d="M1002.648 853.314H21.352c-11.782 0-21.344-9.53-21.344-21.31s9.562-21.312 21.344-21.312h981.296c11.782 0 21.344 9.532 21.344 21.312s-9.562 21.31-21.344 21.31z" fill="#434A54" /><path d="M981.336 320.012v85.326c0 11.782 9.532 21.344 21.312 21.344v-127.998c-11.78 0-21.312 9.546-21.312 21.328zM981.336 576.008v85.31c0 11.812 9.532 21.376 21.312 21.376v-127.998a21.3 21.3 0 0 0-21.312 21.312z" fill="#CCD1D9" /><path d="M501.938 519.04l-12.562-82.608c-3.218-21-20.938-36.25-42.156-36.25-2.156 0-4.312 0.172-6.468 0.5l-21.094 3.204a42.39 42.39 0 0 0-27.936 16.906 42.368 42.368 0 0 0-7.812 31.704l12.594 82.592c3.188 21.016 20.904 36.234 42.154 36.234 2.124 0 4.312-0.124 6.438-0.468l21.094-3.218c11.282-1.688 21.188-7.718 27.938-16.876 6.748-9.206 9.528-20.456 7.81-31.72z" fill="#E6E9ED" /><path d="M750.964 384.448a21.414 21.414 0 0 0-4.312-0.438H725.34c-11.782 0-21.344 9.546-21.344 21.328s9.562 21.344 21.344 21.344v85.326c-11.782 0-21.344 9.546-21.344 21.328 0 11.796 9.562 21.36 21.344 21.36h21.312c1.5 0 2.938-0.188 4.312-0.438 9.718-2 17.032-10.61 17.032-20.922v-127.998c0-10.312-7.312-18.906-17.032-20.89z" fill="#434A54" /><path d="M439.782 699.066c-10.376 0-19.468-7.562-21.062-18.092l-41.5-272.418c-1.782-11.656 6.218-22.532 17.876-24.296 11.654-1.782 22.53 6.218 24.31 17.876l41.5 272.402c1.75 11.656-6.25 22.53-17.876 24.31-1.092 0.156-2.186 0.218-3.248 0.218z" fill="#A0D468" /><path d="M359.876 597.32l26.25 213.372h144.656L557.5 597.32z" fill="#E6E9ED" /><path d="M229.316 810.378H106.662L234.66 170.686h122.654z" fill="#FFFFFF" opacity=".1" /></svg>