<?xml version="1.0" standalone="no"?><!DOCTYPE svg PUBLIC "-//W3C//DTD SVG 1.1//EN" "http://www.w3.org/Graphics/SVG/1.1/DTD/svg11.dtd"><svg class="icon" width="128px" height="128.00px" viewBox="0 0 1024 1024" version="1.1" xmlns="http://www.w3.org/2000/svg"><path d="M305.122 316.862c55.592 32.546 129.06 50.468 206.872 50.468s151.276-17.922 206.87-50.468c59.188-34.64 91.812-81.936 91.812-133.186s-32.624-98.56-91.812-133.202C663.27 17.93 589.804 0.008 511.994 0.008s-151.28 17.92-206.872 50.466c-59.186 34.64-91.794 81.952-91.794 133.202s32.606 98.546 91.794 133.186zM718.864 707.122c-55.594-32.532-129.058-50.438-206.87-50.438s-151.28 17.906-206.872 50.438c-59.186 34.656-91.794 81.938-91.794 133.188 0 51.246 32.608 98.558 91.794 133.214 55.592 32.532 129.06 50.468 206.872 50.468s151.276-17.938 206.87-50.468c59.188-34.656 91.812-81.968 91.812-133.214 0-51.252-32.626-98.532-91.812-133.188z" fill="#FFCE54" /><path d="M191.998 106.678h639.99v810.626H191.998z" fill="#5D9CEC" /><path d="M447.994 895.992c-11.782 0-21.328 9.562-21.328 21.312v21.376c0 11.75 9.546 21.312 21.328 21.312 11.78 0 21.328-9.562 21.328-21.312v-21.376c0-11.75-9.548-21.312-21.328-21.312zM511.994 895.992c-11.782 0-21.328 9.562-21.328 21.312v21.376c0 11.75 9.546 21.312 21.328 21.312 11.78 0 21.328-9.562 21.328-21.312v-21.376c-0.002-11.75-9.548-21.312-21.328-21.312zM575.992 895.992c-11.782 0-21.312 9.562-21.312 21.312v21.376c0 11.75 9.532 21.312 21.312 21.312s21.312-9.562 21.312-21.312v-21.376c0-11.75-9.53-21.312-21.312-21.312z" fill="#F6BB42" /><path d="M447.994 64.006c-11.782 0-21.328 9.546-21.328 21.328v21.344c0 11.78 9.546 21.328 21.328 21.328 11.78 0 21.328-9.546 21.328-21.328V85.334c0-11.78-9.548-21.328-21.328-21.328zM511.994 64.006c-11.782 0-21.328 9.546-21.328 21.328v21.344c0 11.78 9.546 21.328 21.328 21.328 11.78 0 21.328-9.546 21.328-21.328V85.334c-0.002-11.78-9.548-21.328-21.328-21.328zM575.992 64.006c-11.782 0-21.312 9.546-21.312 21.328v21.344c0 11.78 9.532 21.328 21.312 21.328s21.312-9.546 21.312-21.328V85.334c0-11.78-9.53-21.328-21.312-21.328z" fill="#F6BB42" /><path d="M874.672 213.334c0-11.782-9.562-21.328-21.372-21.328V149.334c11.808 0 21.372-9.546 21.372-21.328 0-11.78-9.562-21.328-21.372-21.328V85.334H170.67v21.344c-11.782 0-21.344 9.546-21.344 21.328s9.562 21.328 21.344 21.328v42.672c-11.782 0-21.344 9.546-21.344 21.328s9.562 21.342 21.344 21.342v42.656c-11.782 0-21.344 9.562-21.344 21.344s9.562 21.328 21.344 21.328v42.67c-11.782 0-21.344 9.546-21.344 21.328s9.562 21.328 21.344 21.328V448c-11.782 0-21.344 9.546-21.344 21.328s9.562 21.342 21.344 21.342v42.658c-11.782 0-21.344 9.562-21.344 21.36 0 11.75 9.562 21.312 21.344 21.312v42.684c-11.782 0-21.344 9.532-21.344 21.312s9.562 21.312 21.344 21.312v42.688c-11.782 0-21.344 9.562-21.344 21.312 0 11.812 9.562 21.376 21.344 21.376v42.624c-11.782 0-21.344 9.562-21.344 21.376 0 11.75 9.562 21.312 21.344 21.312v42.684c-11.782 0-21.344 9.532-21.344 21.312s9.562 21.312 21.344 21.312v21.376H853.3v-21.376c11.808 0 21.372-9.532 21.372-21.312s-9.562-21.312-21.372-21.312v-42.684c11.808 0 21.372-9.562 21.372-21.312 0-11.812-9.562-21.376-21.372-21.376v-42.624c11.808 0 21.372-9.562 21.372-21.376 0-11.75-9.562-21.312-21.372-21.312v-42.688c11.808 0 21.372-9.532 21.372-21.312s-9.562-21.312-21.372-21.312V576c11.808 0 21.372-9.562 21.372-21.312 0-11.796-9.562-21.36-21.372-21.36v-42.658c11.808 0 21.372-9.562 21.372-21.342S865.11 448 853.3 448v-42.672c11.808 0 21.372-9.546 21.372-21.328 0-11.78-9.562-21.328-21.372-21.328v-42.67c11.808 0 21.372-9.546 21.372-21.328s-9.562-21.344-21.372-21.344v-42.656c11.81 0.002 21.372-9.56 21.372-21.34zM213.326 895.992V128.006h597.35v767.986H213.326z" fill="#4A89DC" /><path d="M509.322 895.93h-122.656l127.998-767.924h122.636z" fill="#FFFFFF" opacity=".1" /></svg>