<?xml version="1.0" standalone="no"?><!DOCTYPE svg PUBLIC "-//W3C//DTD SVG 1.1//EN" "http://www.w3.org/Graphics/SVG/1.1/DTD/svg11.dtd"><svg class="icon" width="128px" height="128.00px" viewBox="0 0 1024 1024" version="1.1" xmlns="http://www.w3.org/2000/svg"><path d="M106.666 767.99h493.328v170.682H106.666z" fill="#CBD0D8" /><path d="M234.662 853.3h493.326v170.68H234.662z" fill="#E5E8EC" /><path d="M353.346 917.296c-11.782 0-21.344 9.562-21.344 21.376v85.308h42.654v-85.308c0-11.812-9.53-21.376-21.31-21.376zM609.336 917.296c-11.78 0-21.342 9.562-21.342 21.376v85.308h42.654v-85.308c0-11.812-9.53-21.376-21.312-21.376zM481.058 917.296c-11.748 0-21.31 9.562-21.31 21.376v85.308h42.654v-85.308c0-11.812-9.53-21.376-21.344-21.376z" fill="#CBD0D8" /><path d="M640.024 288.008C640.024 128.952 511.09 0.018 352.034 0.018 193.008 0.018 64.076 128.95 64.076 288.008v522.668h575.95V288.008z" fill="#8AC054" /><path d="M920.574 470.376c-41.248-41.248-102.65-50.076-152.556-26.468v-70.576c0-159.042-128.932-287.99-287.99-287.99-159.026 0-287.958 128.948-287.958 287.99l-0.03 522.652h575.978v-82.994l152.556-152.558c52.468-52.498 52.468-137.572 0-190.056z" fill="#9ED36A" /><path d="M725.364 373.334v82.638c13.562-6.438 27.998-10.438 42.654-12.062v-70.576c0-159.042-128.932-287.99-287.99-287.99-7.156 0-14.28 0.282-21.31 0.796 149.086 10.922 266.646 135.324 266.646 287.194zM920.574 470.376c-31.686-31.67-75.214-44.202-116.306-37.638 26.968 4.312 52.842 16.858 73.652 37.638 52.466 52.482 52.466 137.556 0 190.054l-152.556 152.558v82.994h42.654v-82.994l152.556-152.558c52.468-52.496 52.468-137.57 0-190.054z" fill="#FFFFFF" opacity=".2" /></svg>