<?xml version="1.0" standalone="no"?><!DOCTYPE svg PUBLIC "-//W3C//DTD SVG 1.1//EN" "http://www.w3.org/Graphics/SVG/1.1/DTD/svg11.dtd"><svg class="icon" width="128px" height="128.00px" viewBox="0 0 1024 1024" version="1.1" xmlns="http://www.w3.org/2000/svg"><path d="M894.874 427.83c-45.844-45.842-114.058-55.64-169.496-29.406v-78.42C725.378 143.274 582.132 0.012 405.386 0.012c-176.73 0-319.992 143.262-319.992 319.992v575.988h639.984v-87.466l169.496-169.53c58.312-58.31 58.312-152.84 0-211.166z" fill="#FC6E51" /><path d="M128.046 895.992H682.72v127.996H128.046z" fill="#FFCE54" /><path d="M277.388 959.99c-11.782 0-21.344 9.562-21.344 21.312v42.686h42.67v-42.686c0-11.75-9.546-21.312-21.326-21.312zM533.38 959.99c-11.782 0-21.344 9.562-21.344 21.312v42.686h42.688v-42.686c0-11.75-9.562-21.312-21.344-21.312zM405.12 959.99c-11.782 0-21.328 9.562-21.328 21.312v42.686h42.672v-42.686c-0.002-11.75-9.548-21.312-21.344-21.312z" fill="#F6BB42" /><path d="M405.384 128.008c-106.044 0-191.996 85.966-191.996 191.996 0 1.688 0.032 3.376 0.078 5.046a19.564 19.564 0 0 0-0.078 1.64c0 11.782 9.546 21.344 21.328 21.344s21.328-9.562 21.328-21.344h0.156a158.134 158.134 0 0 1-0.156-6.688c0-39.888 15.546-77.388 43.748-105.59 28.204-28.202 65.704-43.734 105.592-43.734 11.782 0 21.328-9.562 21.328-21.344s-9.546-21.326-21.328-21.326z" fill="#E9573F" /></svg>