<?xml version="1.0" standalone="no"?><!DOCTYPE svg PUBLIC "-//W3C//DTD SVG 1.1//EN" "http://www.w3.org/Graphics/SVG/1.1/DTD/svg11.dtd"><svg class="icon" width="128px" height="128.00px" viewBox="0 0 1024 1024" version="1.1" xmlns="http://www.w3.org/2000/svg"><path d="M341.322 405.312h-128c-11.782 0-21.328 9.562-21.328 21.344 0 0.312 0.032 0.594 0.046 0.906h-0.046v64h42.672V448h85.328v42.656h42.67v-64c0-11.78-9.562-21.344-21.342-21.344z" fill="#CCD1D9" /><path d="M255.994 354.658h42.672v145.78h-42.672z" fill="#E6E9ED" /><path d="M383.992 362.658c0 11.782-9.546 21.344-21.328 21.344H191.994c-11.782 0-21.328-9.562-21.328-21.344v-128c0-11.782 9.546-21.344 21.328-21.344h170.67c11.782 0 21.328 9.562 21.328 21.344v128z" fill="#434A54" /><path d="M447.992 298.658c0 11.782-9.546 21.344-21.328 21.344H127.994c-11.782 0-21.328-9.562-21.328-21.344v-85.344c0-11.782 9.546-21.312 21.328-21.312h298.67c11.782 0 21.328 9.532 21.328 21.312v85.344z" fill="#656D78" /><path d="M618.68 1023.996h341.31V170.658H618.68v554.654l-85.36 170.686z" fill="#DA4453" /><path d="M106.666 256.002h853.324V85.314c0-47.124-38.188-85.31-85.312-85.31H191.994c-47.124 0-85.328 38.188-85.328 85.31v170.688z" fill="#ED5564" /><path d="M874.678 426.656c0 47.124-38.218 85.344-85.376 85.344-47.124 0-85.312-38.218-85.312-85.344 0-47.124 38.188-85.342 85.312-85.342 47.156 0 85.376 38.22 85.376 85.342z" fill="#E6E9ED" /><path d="M1002.678 1002.652c0 11.782-9.562 21.344-21.376 21.344H42.666c-11.782 0-21.344-9.562-21.344-21.344v-85.342c0-11.782 9.562-21.312 21.344-21.312h938.636c11.812 0 21.376 9.532 21.376 21.312v85.342z" fill="#656D78" /><path d="M981.302 981.308H42.666c-11.782 0-21.344-9.532-21.344-21.31v42.654c0 11.782 9.562 21.344 21.344 21.344h938.636c11.812 0 21.376-9.562 21.376-21.344v-42.654c0 11.78-9.562 21.31-21.376 21.31z" fill="#434A54" /><path d="M21.322 469.312v341.342s31.5 85.344 128 85.344H405.32c96.516 0 128-85.344 128-85.344V469.312H21.322z" fill="#E6E9ED" /><path d="M810.678 384.002c0 11.782-9.562 21.31-21.376 21.31-11.75 0-21.312-9.53-21.312-21.31s9.562-21.344 21.312-21.344c11.814 0 21.376 9.562 21.376 21.344z" fill="#CCD1D9" /><path d="M746.678 576c0 11.782-9.562 21.312-21.376 21.312-11.75 0-21.312-9.532-21.312-21.312s9.562-21.344 21.312-21.344c11.814 0 21.376 9.562 21.376 21.344zM810.678 576c0 11.782-9.562 21.312-21.376 21.312-11.75 0-21.312-9.532-21.312-21.312s9.562-21.344 21.312-21.344c11.814 0 21.376 9.562 21.376 21.344zM874.678 576c0 11.782-9.562 21.312-21.376 21.312-11.75 0-21.312-9.532-21.312-21.312s9.562-21.344 21.312-21.344c11.814 0 21.376 9.562 21.376 21.344zM746.678 640c0 11.782-9.562 21.312-21.376 21.312-11.75 0-21.312-9.532-21.312-21.312s9.562-21.344 21.312-21.344c11.814 0 21.376 9.562 21.376 21.344zM810.678 640c0 11.782-9.562 21.312-21.376 21.312-11.75 0-21.312-9.532-21.312-21.312s9.562-21.344 21.312-21.344c11.814 0 21.376 9.562 21.376 21.344zM874.678 640c0 11.782-9.562 21.312-21.376 21.312-11.75 0-21.312-9.532-21.312-21.312s9.562-21.344 21.312-21.344c11.814 0 21.376 9.562 21.376 21.344zM746.678 704c0 11.782-9.562 21.312-21.376 21.312-11.75 0-21.312-9.532-21.312-21.312s9.562-21.344 21.312-21.344c11.814 0 21.376 9.562 21.376 21.344zM810.678 704c0 11.782-9.562 21.312-21.376 21.312-11.75 0-21.312-9.532-21.312-21.312s9.562-21.344 21.312-21.344c11.814 0 21.376 9.562 21.376 21.344zM874.678 704c0 11.782-9.562 21.312-21.376 21.312-11.75 0-21.312-9.532-21.312-21.312s9.562-21.344 21.312-21.344c11.814 0 21.376 9.562 21.376 21.344z" fill="#E6E9ED" /><path d="M277.322 640c-11.782 0-21.328 9.532-21.328 21.312s9.546 21.344 21.328 21.344H618.68V640H277.322z" fill="#434A54" /><path d="M853.302 768h-128c-11.75 0-21.312 9.532-21.312 21.312 0 11.78 9.562 21.342 21.312 21.342h128c11.812 0 21.376-9.562 21.376-21.342S865.116 768 853.302 768z" fill="#FFCE54" /><path d="M106.666 128.002v42.656h64c0 11.782 9.546 21.344 21.328 21.344s21.328-9.562 21.328-21.344h42.672c0 11.782 9.546 21.344 21.328 21.344s21.344-9.562 21.344-21.344h42.656c0 11.782 9.56 21.344 21.342 21.344s21.328-9.562 21.328-21.344h42.672c0 11.782 9.546 21.344 21.328 21.344s21.328-9.562 21.328-21.344h42.672c0 11.782 9.548 21.344 21.328 21.344 11.796 0 21.36-9.562 21.36-21.344h42.624c0 11.782 9.562 21.344 21.376 21.344 11.75 0 21.312-9.562 21.312-21.344h42.688c0 11.782 9.532 21.344 21.31 21.344 11.782 0 21.312-9.562 21.312-21.344h42.688c0 11.782 9.562 21.344 21.312 21.344 11.812 0 21.376-9.562 21.376-21.344h42.624c0 11.782 9.562 21.344 21.376 21.344 11.75 0 21.312-9.562 21.312-21.344h64V128.002H106.666z" fill="#DA4453" /></svg>