<?xml version="1.0" standalone="no"?><!DOCTYPE svg PUBLIC "-//W3C//DTD SVG 1.1//EN" "http://www.w3.org/Graphics/SVG/1.1/DTD/svg11.dtd"><svg class="icon" width="128px" height="128.00px" viewBox="0 0 1024 1024" version="1.1" xmlns="http://www.w3.org/2000/svg"><path d="M639.716 979.082c0 23.5-19.062 42.562-42.594 42.562H128.884c-23.5 0-42.562-19.062-42.562-42.562V368.536L235.32 164.226h255.398l148.998 204.308v610.548z" fill="#AC92EB" /><path d="M490.718 164.226l-62.28-23.75 168.684 228.058V979.08c0 23.5-19.032 42.562-42.562 42.562h42.562c23.532 0 42.594-19.062 42.594-42.562V368.536L490.718 164.226z" fill="#FFFFFF" opacity=".2" /><path d="M512 127.726c0 23.5-19.062 42.562-42.56 42.562H256.6c-23.53 0-42.56-19.062-42.56-42.562V42.572c0-23.498 19.032-42.56 42.56-42.56h212.84c23.498 0 42.56 19.062 42.56 42.56v85.154z" fill="#E6E9ED" /><path d="M320.442 21.292c11.75 0 21.282-9.532 21.282-21.282h-42.56c-0.002 11.752 9.53 21.282 21.278 21.282zM405.564 21.292c11.782 0 21.312-9.532 21.312-21.282h-42.592c0.002 11.752 9.532 21.282 21.28 21.282zM767.4 325.942v655.484c0 23.5 19.062 42.562 42.562 42.562 23.53 0 42.592-19.062 42.592-42.562V325.942H767.4z" fill="#CCD1D9" /><path d="M937.678 298.192c0 93.938-57.188 170.058-127.714 170.058-70.532 0-127.686-76.122-127.686-170.058 0-93.936 57.154-170.09 127.686-170.09 70.526 0 127.714 76.154 127.714 170.09zM256.6 681.09c-23.404 0-42.56-19.156-42.56-42.562v-42.562c0-23.404 19.156-42.558 42.56-42.558h212.84c23.404 0 42.56 19.154 42.56 42.558v42.562c0 23.406-19.156 42.562-42.56 42.562H256.6z" fill="#E6E9ED" /><path d="M426.876 723.682c0 23.406-19.156 42.56-42.592 42.56h-42.562c-23.406 0-42.56-19.154-42.56-42.56V510.844c0-23.438 19.154-42.594 42.56-42.594h42.562c23.436 0 42.592 19.156 42.592 42.594v212.838z" fill="#F5F7FA" /></svg>