<?xml version="1.0" standalone="no"?><!DOCTYPE svg PUBLIC "-//W3C//DTD SVG 1.1//EN" "http://www.w3.org/Graphics/SVG/1.1/DTD/svg11.dtd"><svg class="icon" width="128px" height="128.00px" viewBox="0 0 1024 1024" version="1.1" xmlns="http://www.w3.org/2000/svg"><path d="M512 0c-58.906 0-106.656 47.75-106.656 106.656v196.658h213.312V106.656C618.656 47.75 570.908 0 512 0z" fill="#434A54" /><path d="M810.656 426.656V192c0-23.562-19.094-42.686-42.656-42.686H256c-23.562 0-42.656 19.124-42.656 42.686v234.656c0 23.562 19.094 42.658 42.656 42.658V704c-23.562 0-42.656 19.094-42.656 42.658v234.654c0 23.564 19.094 42.688 42.656 42.688h512c23.562 0 42.656-19.124 42.656-42.688V746.658c0-23.564-19.094-42.658-42.656-42.658V469.314c23.562 0 42.656-19.096 42.656-42.658z" fill="#AC92EA" /><path d="M298.656 469.314H256V512h42.656c11.782 0 21.344-9.562 21.344-21.344 0-11.78-9.562-21.342-21.344-21.342zM298.656 661.312H256V704h42.656c11.782 0 21.344-9.56 21.344-21.342s-9.562-21.346-21.344-21.346zM725.346 704H768v-42.688h-42.654c-11.784 0-21.346 9.564-21.346 21.346S713.562 704 725.346 704zM725.346 512H768v-42.686h-42.654c-11.784 0-21.346 9.562-21.346 21.342 0 11.782 9.562 21.344 21.346 21.344z" fill="#967ADA" /><path d="M426.656 650.658C403.188 650.658 384 631.468 384 608v-42.688c0-23.436 19.188-42.654 42.656-42.654h170.69c23.466 0 42.654 19.218 42.654 42.654V608c0 23.468-19.188 42.658-42.654 42.658h-170.69z" fill="#E6E9ED" /><path d="M426.656 650.658C403.188 650.658 384 631.468 384 608v-42.688c0-23.436 19.188-42.654 42.656-42.654h170.69c23.466 0 42.654 19.218 42.654 42.654V608c0 23.468-19.188 42.658-42.654 42.658h-170.69z" fill="#E6E9ED" /><path d="M576 672c0 23.468-19.188 42.658-42.654 42.658h-42.69C467.188 714.658 448 695.468 448 672v-170.686c0-23.438 19.188-42.658 42.656-42.658h42.69c23.466 0 42.654 19.218 42.654 42.658V672z" fill="#F4F6F9" /><path d="M576 672c0 23.468-19.188 42.658-42.654 42.658h-42.69C467.188 714.658 448 695.468 448 672v-170.686c0-23.438 19.188-42.658 42.656-42.658h42.69c23.466 0 42.654 19.218 42.654 42.658V672z" fill="#F4F6F9" /></svg>