<?xml version="1.0" standalone="no"?><!DOCTYPE svg PUBLIC "-//W3C//DTD SVG 1.1//EN" "http://www.w3.org/Graphics/SVG/1.1/DTD/svg11.dtd"><svg class="icon" width="128px" height="128.00px" viewBox="0 0 1024 1024" version="1.1" xmlns="http://www.w3.org/2000/svg"><path d="M1023.67 402.382S1003.058 32.056 832.668 72.78c-116.706 27.92-233.662 237.036-233.662 237.036l70.64 93.942s167.708-186.568 199.686-185.196c46.658 2-42.536 271.388-15.458 269.14 42.628-3.56 83.602-84.446 109.586-103.934 30.354-22.858 31.416 15.054 60.21 18.614z" fill="#FC6E51" /><path d="M688.76 388.89l164.614-164.644-120.58-120.546-164.644 164.582c-109.68-48.968-197.64 16.738-287.628 106.744l-148.952 148.966-79.778 79.762-45.22 45.22c-8.324 8.306-8.324 21.798 0 30.168l271.358 271.326c8.322 8.306 21.83 8.306 30.152 0l45.22-45.22 79.778-79.762 191.596-191.564c90.006-90.004 113.052-135.352 64.084-245.032z" fill="#A0D468" /><path d="M308.082 950.468l45.22-45.22 79.778-79.762 191.596-191.564c23.612-23.672 42.628-44.222 56.962-63.646-62.272 21.362-181.102 67.208-287.846-12.93s-194.33-52.28-258.116-37.476l-4.106 4.124-79.778 79.762-45.22 45.22c-8.324 8.306-8.324 21.798 0 30.168l271.358 271.326c8.322 8.306 21.828 8.306 30.152-0.002z" fill="#8CC153" /><path d="M49.216 691.634l45.22-45.22 79.778-79.824 148.936-148.904c90.004-90.006 177.948-155.712 287.628-106.744l164.614-164.644-42.598-42.598-164.644 164.582c-109.68-48.968-197.64 16.738-287.628 106.744l-148.952 148.966-79.778 79.762-45.22 45.22c-8.324 8.306-8.324 21.798 0 30.168L49.2 721.74c-8.306-8.306-8.306-21.798 0.016-30.106z" opacity=".1" /><path d="M883.51 194.14l-120.578-120.61c-8.278-8.308-21.862-8.308-30.136 0L672.46 133.804c-8.278 8.306-8.278 21.862 0 30.168l120.61 120.612c8.308 8.306 21.862 8.306 30.168 0l60.274-60.338c8.306-8.244 8.306-21.86-0.002-30.106z" fill="#8CC153" /></svg>