<?xml version="1.0" standalone="no"?><!DOCTYPE svg PUBLIC "-//W3C//DTD SVG 1.1//EN" "http://www.w3.org/Graphics/SVG/1.1/DTD/svg11.dtd"><svg class="icon" width="128px" height="128.00px" viewBox="0 0 1024 1024" version="1.1" xmlns="http://www.w3.org/2000/svg"><path d="M512.016 1023.984c-11.796 0-21.344-9.532-21.344-21.312V21.36c0-11.782 9.546-21.344 21.344-21.344 11.782 0 21.328 9.562 21.328 21.344v981.312c0 11.782-9.548 21.312-21.328 21.312z" fill="#424953" /><path d="M810.68 959.984c-82.376 0-149.34-66.964-149.34-149.306s66.964-149.34 149.34-149.34c82.306 0 149.306 66.998 149.306 149.34s-67 149.306-149.306 149.306z" fill="#FECD57" /><path d="M810.68 639.996c-94.248 0-170.682 76.436-170.682 170.682s76.434 170.65 170.682 170.65c94.244 0 170.65-76.404 170.65-170.65s-76.406-170.682-170.65-170.682z m0 298.676c-70.594 0-127.998-57.432-127.998-127.994 0-70.592 57.404-127.996 127.998-127.996 70.558 0 127.994 57.404 127.994 127.996 0 70.562-57.436 127.994-127.994 127.994z" fill="#F5BA45" /><path d="M874.678 767.99c0-11.78-9.562-21.31-21.344-21.31h-21.342c0-11.782-9.562-21.344-21.312-21.344-11.812 0-21.344 9.562-21.344 21.344h-8c-12.376 0-22.218 5.938-26.344 15.938-4.156 9.966-1.376 21.154 7.376 29.904l39.468 39.468h-33.844c-11.782 0-21.312 9.562-21.312 21.344s9.532 21.344 21.312 21.344h21.344c0 11.78 9.532 21.31 21.344 21.31 11.75 0 21.312-9.532 21.312-21.31h7.998c12.376 0 22.25-5.968 26.376-15.938 4.126-10 1.376-21.156-7.376-29.906l-39.498-39.5h33.842c11.782 0 21.344-9.532 21.344-21.344z" fill="#E8AA3D" /><path d="M213.354 959.984c-82.342 0-149.322-66.964-149.322-149.306s66.98-149.34 149.322-149.34 149.322 66.998 149.322 149.34-66.98 149.306-149.322 149.306z" fill="#FECD57" /><path d="M213.354 639.996c-94.262 0-170.666 76.436-170.666 170.682s76.404 170.65 170.666 170.65c94.248 0 170.666-76.404 170.666-170.65s-76.418-170.682-170.666-170.682z m0 298.676c-70.576 0-127.996-57.432-127.996-127.994 0-70.592 57.42-127.996 127.996-127.996s127.996 57.404 127.996 127.996c0 70.562-57.42 127.994-127.996 127.994z" fill="#F5BA45" /><path d="M277.352 767.99c0-11.78-9.546-21.31-21.328-21.31h-21.342c0-11.782-9.546-21.344-21.328-21.344s-21.326 9.562-21.326 21.344h-8c-12.376 0-22.234 5.938-26.36 15.938-4.14 9.966-1.39 21.154 7.36 29.904l39.482 39.468H170.684c-11.782 0-21.328 9.562-21.328 21.344s9.546 21.344 21.328 21.344h21.344c0 11.78 9.544 21.31 21.326 21.31s21.328-9.532 21.328-21.31h7.998c12.376 0 22.218-5.968 26.36-15.938 4.14-10 1.376-21.156-7.36-29.906l-39.498-39.5h33.842c11.78 0 21.328-9.532 21.328-21.344z" fill="#E8AA3D" /><path d="M512 85.356C229.244 85.356 0.016 314.6 0.016 597.342v4.626c36.562-46.468 93.31-76.31 157.028-76.31 77.264 0 101.622 43.904 134.808 108.122 33.202-64.216 142.886-108.122 220.164-108.122 77.264 0 186.948 43.904 220.164 108.122 33.188-64.216 57.532-108.122 134.81-108.122 63.684 0 120.434 29.842 156.994 76.31v-4.626C1023.984 314.6 794.774 85.356 512 85.356z" fill="#DA4453" /><path d="M512.016 525.656c77.264 0 186.948 43.904 220.164 108.122 0-324.77-134.37-483.61-185.93-547.296A540.56 540.56 0 0 0 512 85.356c-11.5 0-22.922 0.406-34.232 1.126-51.576 63.686-185.916 222.526-185.916 547.296 33.2-64.218 142.886-108.122 220.164-108.122z" fill="#ED5564" /></svg>