<?xml version="1.0" standalone="no"?><!DOCTYPE svg PUBLIC "-//W3C//DTD SVG 1.1//EN" "http://www.w3.org/Graphics/SVG/1.1/DTD/svg11.dtd"><svg class="icon" width="128px" height="128.00px" viewBox="0 0 1024 1024" version="1.1" xmlns="http://www.w3.org/2000/svg"><path d="M511.984 234.744c-210.826 0-397.486 109.35-511.868 277.28 114.38 167.882 301.042 277.234 511.868 277.234 210.844 0 397.488-109.352 511.898-277.234-114.41-167.932-301.054-277.28-511.898-277.28z" fill="#E6E9ED" /><path d="M746.604 469.346c0 129.58-105.04 234.62-234.604 234.62-129.58 0-234.618-105.04-234.618-234.62 0-129.564 105.038-234.602 234.618-234.602 129.564 0 234.604 105.038 234.604 234.602z" fill="#A0D468" /><path d="M533.324 467.972V426.7h42.662c11.78 0 21.306-9.56 21.306-21.338 0-11.78-9.528-21.308-21.306-21.308h-42.662v-21.338c0-11.78-9.56-21.338-21.34-21.338-11.778 0-21.322 9.56-21.322 21.338v21.338h-10.67c-36.804 0-48.598 15.06-52.02 27.712-6.452 23.87 14.074 50.208 62.69 80.326v41.242H448c-11.78 0-21.324 9.558-21.324 21.356 0 11.746 9.544 21.304 21.324 21.304h42.662c0 11.812 9.544 21.308 21.322 21.308 11.78 0 21.34-9.496 21.34-21.308h10.652c36.82 0 48.63-15.058 52.036-27.68 6.468-23.888-14.09-50.226-62.688-80.342z m-42.662-27.556c-7.078-5.436-12.06-9.998-15.42-13.59a105.12 105.12 0 0 1 4.75-0.124h10.67v13.714z m53.314 92.916h-10.652v-13.714c7.076 5.434 12.042 10.028 15.418 13.59-1.406 0.092-3 0.124-4.766 0.124z" fill="#434A54" /></svg>