<?xml version="1.0" standalone="no"?><!DOCTYPE svg PUBLIC "-//W3C//DTD SVG 1.1//EN" "http://www.w3.org/Graphics/SVG/1.1/DTD/svg11.dtd"><svg class="icon" width="128px" height="128.00px" viewBox="0 0 1024 1024" version="1.1" xmlns="http://www.w3.org/2000/svg"><path d="M128.088 160.082h767.826v338.296H128.088z" fill="#CCD1D9" /><path d="M1023.882 693.332c0 11.75-9.558 21.308-21.338 21.308H21.426c-11.78 0-21.308-9.558-21.308-21.308V309.39c0-11.778 9.53-21.338 21.308-21.338h981.12c11.78 0 21.338 9.56 21.338 21.338v383.942z" fill="#E6E9ED" /><path d="M938.558 394.682c0 11.81-9.558 21.34-21.338 21.34s-21.306-9.53-21.306-21.34c0-11.778 9.528-21.306 21.306-21.306s21.338 9.528 21.338 21.306z" fill="#A0D468" /><path d="M853.234 394.682c0 11.81-9.528 21.34-21.306 21.34s-21.338-9.53-21.338-21.34c0-11.778 9.558-21.306 21.338-21.306s21.306 9.528 21.306 21.306z" fill="#FFCE54" /><path d="M767.942 394.682c0 11.81-9.558 21.34-21.338 21.34s-21.338-9.53-21.338-21.34c0-11.778 9.558-21.306 21.338-21.306s21.338 9.528 21.338 21.306z" fill="#ED5564" /><path d="M213.38 181.418c11.78 0 21.34-9.56 21.34-21.338H192.074c0 11.778 9.53 21.338 21.306 21.338zM298.706 181.418c11.78 0 21.34-9.56 21.34-21.338h-42.678c0 11.778 9.56 21.338 21.338 21.338zM384.03 181.418c11.78 0 21.308-9.56 21.308-21.338h-42.646c0 11.778 9.56 21.338 21.338 21.338zM469.322 181.418c11.78 0 21.34-9.56 21.34-21.338h-42.646c0 11.778 9.528 21.338 21.306 21.338zM554.648 181.418c11.778 0 21.338-9.56 21.338-21.338h-42.678c0 11.778 9.562 21.338 21.34 21.338zM639.972 181.418c11.778 0 21.306-9.56 21.306-21.338h-42.646c0 11.778 9.562 21.338 21.34 21.338zM725.266 181.418c11.778 0 21.338-9.56 21.338-21.338h-42.646c0 11.778 9.528 21.338 21.308 21.338zM789.25 160.082c0 11.778 9.56 21.338 21.34 21.338 11.778 0 21.338-9.56 21.338-21.338h-42.678z" fill="#AAB2BC" /><path d="M917.22 607.976c0-11.746-9.53-21.304-21.306-21.304H128.088c-11.778 0-21.338 9.558-21.338 21.304 0 11.812 9.56 21.372 21.338 21.372h767.826c11.778 0 21.306-9.558 21.306-21.372z" fill="#434A54" /><path d="M128.088 607.976h767.826v255.942H128.088z" fill="#8CC153" /><path d="M831.928 735.95v-127.972H192.074v127.972c35.334 0 63.984 28.68 63.984 63.984H767.94c0.002-35.306 28.652-63.984 63.988-63.984z" fill="#A0D468" /><path d="M405.338 607.976c0 58.926 47.77 106.664 106.662 106.664 58.894 0 106.632-47.738 106.632-106.664H405.338z" fill="#8CC153" /></svg>