<?xml version="1.0" standalone="no"?><!DOCTYPE svg PUBLIC "-//W3C//DTD SVG 1.1//EN" "http://www.w3.org/Graphics/SVG/1.1/DTD/svg11.dtd"><svg class="icon" width="128px" height="128.00px" viewBox="0 0 1024 1024" version="1.1" xmlns="http://www.w3.org/2000/svg"><path d="M1002.544 384.038H448.016c-11.78 0-21.34 9.528-21.34 21.306v426.574c0 11.81 9.56 21.308 21.34 21.308h341.234l149.308 85.356v-85.356h63.986c11.78 0 21.338-9.498 21.338-21.308V405.344c0-11.78-9.558-21.306-21.338-21.306z" fill="#FFCE54" /><path d="M448.016 384.038c-11.78 0-21.34 9.528-21.34 21.306v277.294h319.928c11.78 0 21.338-9.558 21.338-21.37V384.038H448.016z" fill="#F6BB42" /><path d="M703.958 85.418H21.426c-11.78 0-21.308 9.558-21.308 21.338v511.898c0 11.746 9.53 21.308 21.308 21.308h63.984v127.97l230.354-127.97h388.194c11.778 0 21.308-9.562 21.308-21.308V106.756c0-11.78-9.532-21.338-21.308-21.338z" fill="#A0D468" /><path d="M384.03 351.012v-73.638h63.986a21.294 21.294 0 0 0 21.306-21.306c0-11.78-9.53-21.34-21.306-21.34h-63.986v-21.338c0-11.78-9.56-21.308-21.338-21.308-11.78 0-21.34 9.53-21.34 21.308v21.338h-21.306c-43.896 0-58.114 17.434-62.298 32.024-8.53 29.712 19.622 65.892 83.606 107.632v73.638h-63.984a21.294 21.294 0 0 0-21.308 21.308c0 11.778 9.53 21.338 21.308 21.338h63.984v21.34c0 11.778 9.56 21.306 21.34 21.306 11.778 0 21.338-9.53 21.338-21.306v-21.34h21.308c43.894 0 58.112-17.402 62.296-32.024 8.528-29.712-19.62-65.89-83.606-107.632z m-84.356-71.138c2.938-1.062 8.998-2.5 20.372-2.5h21.306v44.99c-28.214-21.216-38.99-35.962-41.678-42.49z m105.664 168.148h-21.308v-44.99c28.244 21.246 38.992 35.96 41.708 42.49-2.936 1.062-8.998 2.5-20.4 2.5z" fill="#434A54" /></svg>