<?xml version="1.0" standalone="no"?><!DOCTYPE svg PUBLIC "-//W3C//DTD SVG 1.1//EN" "http://www.w3.org/Graphics/SVG/1.1/DTD/svg11.dtd"><svg class="icon" width="128px" height="128.00px" viewBox="0 0 1024 1024" version="1.1" xmlns="http://www.w3.org/2000/svg"><path d="M426.676 831.894c-108.256 0-210.014-42.146-286.56-118.66-76.544-76.544-118.692-178.334-118.692-286.558 0-108.258 42.146-210.016 118.692-286.56s178.302-118.692 286.56-118.692c108.226 0 210.014 42.146 286.56 118.692 76.514 76.544 118.692 178.302 118.692 286.56 0 108.224-42.178 210.014-118.692 286.558-76.544 76.514-178.302 118.66-286.528 118.66h-0.032z" fill="#A0D468" /><path d="M1014.886 985.172L742.792 713.078c151.934-167.432 147.122-426.434-14.498-588.052C645.002 41.732 535.84 0.118 426.676 0.118S208.352 41.732 125.058 125.026c-166.586 166.586-166.586 436.682 0 603.268 83.262 83.292 192.456 124.942 301.62 124.942 102.444 0 204.89-36.648 285.934-110.008l274.624 274.624 0.218-0.218c3.876 3.844 9.188 6.25 15.092 6.25 11.78 0 21.338-9.56 21.338-21.34-0.002-7.186-3.562-13.498-8.998-17.372z m-588.21-174.584c-49.864 0-98.478-9.466-144.498-28.12-47.584-19.308-90.324-47.678-126.972-84.324-36.648-36.68-65.046-79.388-84.324-126.97-18.652-46.022-28.118-94.634-28.118-144.498 0-49.896 9.466-98.51 28.118-144.498 19.278-47.584 47.676-90.324 84.324-126.972 36.648-36.678 79.388-65.046 126.972-84.356 45.99-18.622 94.602-28.086 144.498-28.086 49.864 0 98.478 9.464 144.5 28.086 47.582 19.308 90.292 47.678 126.968 84.356 36.648 36.648 65.018 79.388 84.324 126.972 18.652 45.988 28.122 94.602 28.122 144.498 0 49.864-9.468 98.476-28.122 144.498-19.306 47.582-47.676 90.292-84.324 126.97-36.678 36.646-79.386 65.046-126.968 84.324-45.99 18.654-94.604 28.12-144.5 28.12z" fill="#434A54" /><path d="M520.656 487.972L448.14 415.52v-138.156h85.324c11.746 0 21.308-9.56 21.308-21.306 0-11.81-9.562-21.34-21.308-21.34H448.14V192.072h-0.156c0-11.81-9.56-21.338-21.338-21.338s-21.338 9.528-21.338 21.338c0 0.844 0.062 1.656 0.188 2.5v40.146h-13.81c-60.236 0-79.826 25.588-86.168 40.834-14.714 35.554 13.778 71.516 32.086 89.792l67.89 67.86v142.78h-85.324c-11.778 0-21.338 9.53-21.338 21.306 0 11.78 9.56 21.34 21.338 21.34h85.324v42.646c0 11.78 9.53 21.338 21.308 21.338s21.338-9.558 21.338-21.338v-42.646h18.402c60.266 0 79.856-25.588 86.168-40.866 14.716-35.522-13.778-71.514-32.054-89.792z m-152.904-152.776c-19.902-19.9-25.806-36.084-22.808-43.302 4.156-10.028 26.462-14.528 46.74-14.528h13.81v95.542l-37.742-37.712z m145.53 226.262c-4.124 10.03-26.462 14.528-46.74 14.528h-18.402V475.82l42.334 42.334c19.932 19.902 25.808 36.086 22.808 43.304z" fill="#434A54" /></svg>