<?xml version="1.0" standalone="no"?><!DOCTYPE svg PUBLIC "-//W3C//DTD SVG 1.1//EN" "http://www.w3.org/Graphics/SVG/1.1/DTD/svg11.dtd"><svg class="icon" width="128px" height="128.00px" viewBox="0 0 1024 1024" version="1.1" xmlns="http://www.w3.org/2000/svg"><path d="M1015.844 511.868c-12.032-29.686-33.81-46.842-47.966-55.342l-0.688-30.874a21.4 21.4 0 0 0-9.842-17.466l-100.152-64.06c4.032-8.624 8.968-19.656 13.594-31.188 17.498-43.372 20.06-65.778 9.216-79.872-12.124-15.748-46.308-34.686-64.058-43.842-6.844-15.376-24.688-48.654-61.78-81.464-28.53-25.282-62.81-45.376-101.84-59.716-48.058-17.656-103.496-26.594-164.806-26.594h-0.656c-68.716 0.062-161.744 41.654-248.866 111.246-47.03 37.56-90.528 81.53-129.338 130.684-42.78 54.122-78.684 113.276-106.776 175.742a21.406 21.406 0 0 0 1.718 20.592L359.62 993.052a21.346 21.346 0 0 0 15.656 9.438c0.688 0.062 1.406 0.062 2.094 0.062 5.624 0 11.062-2.188 15.062-6.25l206.338-206.052c30.436 2.624 124.962 9.938 210.834 9.938 127.712 0 159.71-15.876 173.304-29.688 44.31-44.998 37.186-112.558 34.31-130.556 3.314-18.938 14.126-89.748-1.374-128.076z" fill="#656D78" /><path d="M809.604 800.186c127.712 0 159.71-15.876 173.304-29.688 44.31-44.998 37.186-112.558 34.31-130.556 3.312-18.936 14.124-89.746-1.376-128.074-12.032-29.686-33.81-46.842-47.966-55.342h-138.274c-126.496 75.686-148.464 281.538-51.5 343.348 26.782 1.124 4.096 0.312 31.502 0.312zM361.214 515.682c-14.468 0-29.716-2.938-44.092-11.156-36.654-21-55.248-68.748-55.248-141.996 0-34.81 15.374-54.78 28.28-65.402 38.592-31.842 100.714-20.874 107.652-19.53a21.302 21.302 0 0 1 16.876 24.996c-2.25 11.562-13.406 19.124-24.968 16.876-13.53-2.562-52.842-5.624-72.498 10.624-8.532 7.062-12.656 17.688-12.656 32.436 0 56.03 11.656 92.308 33.75 104.964 28.092 16.062 69.56-7.376 69.966-7.624 10.156-5.968 23.218-2.562 29.186 7.594s2.594 23.25-7.562 29.218c-1.814 1.062-32.938 19-68.686 19z" fill="#FFFFFF" opacity=".1" /><path d="M804.042 341.188c0 11.78-9.532 21.342-21.312 21.342s-21.342-9.562-21.342-21.342c0-11.782 9.56-21.312 21.342-21.312s21.312 9.53 21.312 21.312zM380.402 450.558c-2.468 0-4.968-0.438-7.438-1.376-36.5-13.562-44.874-43.686-40.968-65.31 4.438-24.718 23.532-42.686 45.374-42.686 11.782 0 21.342 9.56 21.342 21.342 0 11.562-9.218 20.968-20.686 21.344-1.532 1-4.468 5.282-4.282 10.656 0.25 6.344 5 11.282 14.124 14.686 11.03 4.124 16.656 16.406 12.53 27.438-3.186 8.594-11.34 13.906-19.996 13.906z" fill="#434A54" /><path d="M487.334 747.624c-8.438-8.436-44.872-105.306-44.872-105.306s6.216 118.682 14.654 130.244c8.468 11.562 113.248 46.06 113.248 46.06l28.406-28.374s-102.968-34.188-111.436-42.624z" opacity=".2" /><path d="M990.908 474.494a121.088 121.088 0 0 0-23.032-17.968h-138.274l161.306 17.968zM1019.312 676.69c0.624-16.624-1.032-30.062-2.094-36.748l-171.616 2.376 173.71 34.372z" fill="#434A54" /></svg>