<?xml version="1.0" standalone="no"?><!DOCTYPE svg PUBLIC "-//W3C//DTD SVG 1.1//EN" "http://www.w3.org/Graphics/SVG/1.1/DTD/svg11.dtd"><svg class="icon" width="128px" height="128.00px" viewBox="0 0 1024 1024" version="1.1" xmlns="http://www.w3.org/2000/svg"><path d="M277.336 405.316c-35.342 0-63.998 28.656-63.998 63.998s28.656 63.998 63.998 63.998 63.998-28.656 63.998-63.998-28.654-63.998-63.998-63.998z m0 85.34c-11.75 0-21.328-9.562-21.328-21.342 0-11.75 9.578-21.312 21.328-21.312 11.766 0 21.344 9.562 21.344 21.312 0 11.78-9.578 21.342-21.344 21.342z" fill="#F5BA45" /><path d="M234.682 490.656c-35.342 0-63.998 28.656-63.998 64 0 35.342 28.656 63.996 63.998 63.996s63.998-28.654 63.998-63.996c0-35.344-28.656-64-63.998-64z m0 85.342c-11.766 0-21.344-9.56-21.344-21.342 0-11.75 9.578-21.344 21.344-21.344 11.75 0 21.328 9.594 21.328 21.344 0 11.782-9.578 21.342-21.328 21.342z" fill="#FECD57" /><path d="M192.012 575.998c-35.342 0-63.998 28.656-63.998 63.998s28.656 63.998 63.998 63.998 63.998-28.656 63.998-63.998-28.656-63.998-63.998-63.998z m0 85.308c-11.764 0-21.328-9.562-21.328-21.31 0-11.782 9.562-21.344 21.328-21.344s21.328 9.562 21.328 21.344c-0.002 11.748-9.564 21.31-21.328 21.31z" fill="#F5BA45" /><path d="M149.342 661.306c-35.342 0-63.998 28.656-63.998 63.998 0 35.374 28.656 63.998 63.998 63.998s63.998-28.624 63.998-63.998c-0.002-35.342-28.656-63.998-63.998-63.998z m0 85.34c-11.75 0-21.328-9.56-21.328-21.342 0-11.75 9.578-21.31 21.328-21.31 11.766 0 21.342 9.56 21.342 21.31 0 11.782-9.576 21.342-21.342 21.342zM64.016 831.99c-35.342 0-63.998 28.624-63.998 63.994 0 35.344 28.656 64 63.998 64s63.998-28.656 63.998-64c0-35.37-28.654-63.994-63.998-63.994z m0 85.306c-11.764 0-21.328-9.562-21.328-21.312 0-11.78 9.562-21.34 21.328-21.34s21.328 9.56 21.328 21.34c0 11.75-9.562 21.312-21.328 21.312z" fill="#FECD57" /><path d="M106.686 746.646c-35.342 0-63.998 28.656-63.998 64 0 35.342 28.654 63.998 63.998 63.998s63.998-28.656 63.998-63.998c0-35.344-28.654-64-63.998-64z m0 85.344c-11.764 0-21.342-9.562-21.342-21.344 0-11.75 9.578-21.344 21.342-21.344 11.75 0 21.328 9.594 21.328 21.344 0 11.782-9.578 21.344-21.328 21.344z" fill="#F5BA45" /><path d="M341.334 320.006c-47.122 0-85.324 38.188-85.324 85.31s38.202 85.34 85.324 85.34c47.14 0 85.342-38.216 85.342-85.34s-38.202-85.31-85.342-85.31z m0 127.996c-23.514 0-42.654-19.154-42.654-42.686 0-23.5 19.138-42.654 42.654-42.654 23.532 0 42.67 19.154 42.67 42.654 0 23.532-19.138 42.686-42.67 42.686z" fill="#FECD57" /><path d="M682.682 725.304c-85.496 0-165.854-33.28-226.29-93.714-60.434-60.434-93.714-140.778-93.714-226.274 0-85.466 33.28-165.806 93.714-226.242 60.436-60.436 140.792-93.746 226.29-93.746 85.434 0 165.806 33.31 226.24 93.746 60.438 60.436 93.748 140.776 93.748 226.242 0 85.496-33.31 165.84-93.748 226.274-60.434 60.436-140.806 93.714-226.24 93.714z" fill="#4FC0E8" /><path d="M908.922 179.074c-60.434-60.436-140.806-93.746-226.24-93.746-10.782 0-21.438 0.532-32 1.594 73.374 7.218 141.434 39.31 194.244 92.152 60.434 60.436 93.746 140.776 93.746 226.242 0 85.496-33.312 165.84-93.746 226.274-52.81 52.842-120.872 84.902-194.244 92.152 10.562 1.032 21.218 1.562 32 1.562 85.434 0 165.806-33.28 226.24-93.714 60.438-60.434 93.748-140.778 93.748-226.274 0-85.466-33.31-165.806-93.748-226.242z" fill="#FFFFFF" opacity=".2" /><path d="M682.682 64.016c-188.524 0-341.348 152.806-341.348 341.3 0 188.526 152.824 341.33 341.348 341.33 188.494 0 341.298-152.804 341.298-341.33 0-188.494-152.804-341.3-341.298-341.3z m211.178 552.48c-27.464 27.466-59.4 48.998-94.962 64.03-36.782 15.562-75.904 23.468-116.214 23.468-40.374 0-79.464-7.906-116.244-23.468-35.578-15.032-67.514-36.562-94.952-64.03-27.454-27.436-48.982-59.372-64.03-94.934-15.562-36.782-23.452-75.904-23.452-116.246 0-40.31 7.89-79.436 23.452-116.214 15.046-35.56 36.576-67.498 64.03-94.964 27.436-27.436 59.374-48.966 94.952-63.998 36.78-15.562 75.872-23.468 116.244-23.468 40.31 0 79.434 7.906 116.214 23.468 35.562 15.032 67.498 36.562 94.962 63.998 27.438 27.466 48.968 59.404 64 94.964 15.562 36.78 23.436 75.904 23.436 116.214 0 40.342-7.874 79.464-23.436 116.246-15.032 35.562-36.564 67.498-64 94.934z" fill="#F5BA45" /></svg>