<?xml version="1.0" standalone="no"?><!DOCTYPE svg PUBLIC "-//W3C//DTD SVG 1.1//EN" "http://www.w3.org/Graphics/SVG/1.1/DTD/svg11.dtd"><svg class="icon" width="128px" height="128.00px" viewBox="0 0 1024 1024" version="1.1" xmlns="http://www.w3.org/2000/svg"><path d="M490.68 0h42.656v554.656H490.68z" fill="#434A54" /><path d="M512.008 512c-282.766 0-512 229.218-512 512h1023.984c0-282.782-229.218-512-511.984-512z" fill="#E6E9ED" /><path d="M959.992 341.312H661.336v-256h298.656l-42.624 128z" fill="#DA4453" /><path d="M533.336 0h256v256h-256z" fill="#ED5565" /><path d="M320.008 853.312c0 35.376-28.656 64-64 64s-64-28.624-64-64c0-35.344 28.656-64 64-64s64 28.656 64 64z" fill="#CCD1D9" /><path d="M789.336 874.656m-64 0a64 64 0 1 0 128 0 64 64 0 1 0-128 0Z" fill="#CCD1D9" /><path d="M597.336 725.312c0 47.156-38.204 85.344-85.328 85.344s-85.328-38.188-85.328-85.344c0-47.124 38.204-85.312 85.328-85.312s85.328 38.188 85.328 85.312z" fill="#CCD1D9" /></svg>