<?xml version="1.0" standalone="no"?><!DOCTYPE svg PUBLIC "-//W3C//DTD SVG 1.1//EN" "http://www.w3.org/Graphics/SVG/1.1/DTD/svg11.dtd"><svg class="icon" width="128px" height="128.00px" viewBox="0 0 1024 1024" version="1.1" xmlns="http://www.w3.org/2000/svg"><path d="M480.024 512c0-230.844 152.766-425.968 362.64-489.876C795.414 7.75 745.29 0 693.352 0 410.586 0 181.336 229.218 181.336 512c0 282.75 229.25 512 512.016 512 51.938 0 102.062-7.75 149.312-22.124C632.79 937.938 480.024 742.812 480.024 512z m216.266 469.312h-2.938c-63.376 0-124.812-12.376-182.704-36.844-55.876-23.656-106.062-57.5-149.188-100.594-43.124-43.124-76.938-93.312-100.594-149.218-24.468-57.812-36.844-119.282-36.844-182.656s12.376-124.844 36.844-182.688c23.656-55.876 57.468-106.062 100.594-149.188s93.312-76.968 149.188-100.594c57.89-24.468 119.328-36.876 182.704-36.876h2.938a555.156 555.156 0 0 0-23.438 15.624c-47.5 33.5-89.376 74.062-124.312 120.532-35.39 47.032-62.89 99-81.766 154.5-19.532 57.406-29.438 117.532-29.438 178.688s9.906 121.25 29.438 178.656a551.906 551.906 0 0 0 81.766 154.5c34.938 46.5 76.812 87.032 124.312 120.532a553.27 553.27 0 0 0 23.438 15.626z" fill="#FFCE54" /></svg>