<?xml version="1.0" standalone="no"?><!DOCTYPE svg PUBLIC "-//W3C//DTD SVG 1.1//EN" "http://www.w3.org/Graphics/SVG/1.1/DTD/svg11.dtd"><svg class="icon" width="128px" height="128.00px" viewBox="0 0 1024 1024" version="1.1" xmlns="http://www.w3.org/2000/svg"><path d="M1023.984 512c0 282.74-229.242 511.984-511.984 511.984C229.228 1023.984 0.016 794.74 0.016 512 0.016 229.228 229.228 0.016 512 0.016 794.742 0.016 1023.984 229.228 1023.984 512z" fill="#646C77" /><path d="M639.998 512c0-129.746 57.934-245.96 149.306-324.208C714.744 123.918 617.874 85.326 512 85.326 276.352 85.326 85.326 276.352 85.326 512c0 235.618 191.026 426.64 426.674 426.64 105.874 0 202.744-38.59 277.304-102.432-91.372-78.248-149.306-194.462-149.306-324.208z" fill="#FECD57" /><path d="M170.668 512c0-221.21 168.338-403.082 383.926-424.55A435.956 435.956 0 0 0 512 85.324C276.352 85.326 85.326 276.352 85.326 512c0 235.618 191.026 426.64 426.674 426.64 14.376 0 28.562-0.718 42.594-2.126C339.006 915.08 170.668 733.21 170.668 512z" fill="#F5BA45" /></svg>