<?xml version="1.0" standalone="no"?><!DOCTYPE svg PUBLIC "-//W3C//DTD SVG 1.1//EN" "http://www.w3.org/Graphics/SVG/1.1/DTD/svg11.dtd"><svg class="icon" width="128px" height="128.00px" viewBox="0 0 1024 1024" version="1.1" xmlns="http://www.w3.org/2000/svg"><path d="M490.68 0h42.656v298.672H490.68z" fill="#434A54" /><path d="M725.336 170.672h-192V0h192L682.68 85.328z" fill="#DA4453" /><path d="M895.992 640c0 212.062-171.906 384-383.984 384-212.08 0-384-171.938-384-384 0-212.078 171.92-384 384-384 212.078 0 383.984 171.922 383.984 384z" fill="#FC6E51" /><path d="M469.336 725.312c0 47.124-38.204 85.376-85.328 85.376s-85.33-38.25-85.33-85.376S336.882 640 384.008 640s85.328 38.188 85.328 85.312zM746.68 746.688c0 35.312-28.656 64-64 64s-64-28.688-64-64c0-35.376 28.656-64 64-64s64 28.624 64 64zM640.008 490.672c0 35.344-28.656 64.016-64.002 64.016-35.342 0-63.998-28.672-63.998-64.016s28.656-64 63.998-64c35.346 0 64.002 28.656 64.002 64z" fill="#E9573F" /></svg>