<?xml version="1.0" standalone="no"?><!DOCTYPE svg PUBLIC "-//W3C//DTD SVG 1.1//EN" "http://www.w3.org/Graphics/SVG/1.1/DTD/svg11.dtd"><svg class="icon" width="128px" height="128.00px" viewBox="0 0 1024 1024" version="1.1" xmlns="http://www.w3.org/2000/svg"><path d="M383.848 391.912c-133.902 0-242.43-108.528-242.43-242.398 0-30.108 5.5-58.92 15.532-85.498C65.234 98.576 0.016 187.122 0.016 290.916c0 133.87 108.53 242.414 242.43 242.414 103.78 0 192.308-65.232 226.9-156.916-26.594 10.012-55.404 15.498-85.498 15.498z" fill="#FFCE54" /><path d="M285.102 490.658c-133.902 0-242.43-108.528-242.43-242.414 0-56.076 19.062-107.7 51.03-148.776C36.704 143.826 0.016 213.088 0.016 290.916c0 133.87 108.53 242.414 242.43 242.414 77.81 0 147.058-36.686 191.434-93.684-41.064 31.966-92.686 51.012-148.778 51.012z" fill="#F6BB42" /><path d="M765.336 442.676c-74.56 0-141.744 31.56-188.962 82.028-25.28-29.124-62.592-47.546-104.184-47.546-76.186 0-137.934 61.764-137.934 137.964 0 1.126 0 2.282 0.032 3.438-78.716 15.938-137.996 85.562-137.996 168.996 0 95.218 77.216 172.43 172.432 172.43h396.614c142.838 0 258.648-115.804 258.648-258.676-0.002-142.842-115.812-258.634-258.65-258.634z" fill="#CCD1D9" /><path d="M925.642 498.344c34.876 44.078 55.688 99.78 55.688 160.338 0 142.808-115.808 258.618-258.65 258.618H326.068c-36.716 0-70.748-11.468-98.714-31.032 31.154 44.558 82.874 73.714 141.37 73.714h396.614c142.838 0 258.648-115.804 258.648-258.676-0.002-82.278-38.438-155.588-98.344-202.962z" fill="#AAB2BC" /></svg>