<?xml version="1.0" standalone="no"?><!DOCTYPE svg PUBLIC "-//W3C//DTD SVG 1.1//EN" "http://www.w3.org/Graphics/SVG/1.1/DTD/svg11.dtd"><svg class="icon" width="128px" height="128.00px" viewBox="0 0 1024 1024" version="1.1" xmlns="http://www.w3.org/2000/svg"><path d="M1008.354 91.04c10.062-10.094 15.624-23.468 15.624-37.716 0-14.218-5.562-27.624-15.624-37.688-10.062-10.062-23.436-15.624-37.686-15.624s-27.624 5.562-37.686 15.624L260.368 688.266l75.386 75.374 672.6-672.6z m-66.902 12.842c-11.782 0-21.312-9.562-21.312-21.344s9.532-21.312 21.312-21.312 21.342 9.53 21.342 21.312-9.562 21.344-21.342 21.344z" fill="#434A54" /><path d="M497.842 918.194c5.032-5.03 7.796-11.716 7.796-18.842s-2.766-13.812-7.796-18.844L143.512 526.178c-10.39-10.406-27.294-10.406-37.702 0L7.814 624.174c-10.39 10.406-10.39 27.31 0 37.686l354.328 354.364c10.39 10.376 27.296 10.344 37.688-0.032l98.012-97.998z" fill="#5D9CEC" /><path d="M365.908 808.886l-150.774-150.778c-8.328-8.344-8.328-21.842 0-30.154a21.292 21.292 0 0 1 30.154 0l150.776 150.778c8.328 8.31 8.328 21.81 0 30.154-8.328 8.314-21.828 8.314-30.156 0z" fill="#E6E9ED" /><path d="M1008.354 91.04c10.062-10.094 15.624-23.468 15.624-37.716 0-14.218-5.562-27.624-15.624-37.688-10.062-10.062-23.436-15.624-37.686-15.624s-27.624 5.562-37.686 15.624L813.3 135.318l75.37 75.372 119.684-119.65z m-66.902 12.842c-11.782 0-21.312-9.562-21.312-21.344s9.532-21.312 21.312-21.312 21.342 9.53 21.342 21.312-9.562 21.344-21.342 21.344z" fill="#656D78" /><path d="M411.142 974.724h-0.016l-60.28-60.28-0.016-0.032h-0.016l-60.28-60.28-0.016-0.032h-0.016l-60.278-60.28c-0.016 0-0.016-0.032-0.016-0.032h-0.016L34.204 597.8 7.814 624.174c-10.39 10.406-10.39 27.31 0 37.686l11.31 11.312 15.078-15.062 30.156 30.156-15.078 15.062 30.154 30.154 15.078-15.06 30.154 30.154-15.076 15.062 30.154 30.154 15.078-15.06 30.154 30.154-15.078 15.062 30.156 30.154 15.078-15.06 30.154 30.152-15.076 15.062 30.154 30.156 15.076-15.062 30.156 30.154-15.078 15.062 30.156 30.156 15.076-15.062 30.154 30.154-15.076 15.062 11.31 11.344c10.39 10.376 27.296 10.344 37.688-0.032l26.39-26.376-15.062-15.06-0.012-0.028z" fill="#4A89DC" /></svg>