<?xml version="1.0" standalone="no"?><!DOCTYPE svg PUBLIC "-//W3C//DTD SVG 1.1//EN" "http://www.w3.org/Graphics/SVG/1.1/DTD/svg11.dtd"><svg class="icon" width="128px" height="128.00px" viewBox="0 0 1024 1024" version="1.1" xmlns="http://www.w3.org/2000/svg"><path d="M0 117.344h1024v853.312H0z" fill="#4A89DC" /><path d="M960 53.344c-11.75 0-21.312 9.532-21.312 21.312S948.25 96 960 96c11.812 0 21.344-9.562 21.344-21.344S971.812 53.344 960 53.344zM618.688 53.344H576c-11.75 0-21.312 9.532-21.312 21.312S564.25 96 576 96h42.688C630.468 96 640 86.438 640 74.656s-9.532-21.312-21.312-21.312zM746.688 53.344H704c-11.75 0-21.312 9.532-21.312 21.312S692.25 96 704 96h42.688C758.468 96 768 86.438 768 74.656s-9.532-21.312-21.312-21.312zM874.688 53.344h-42.656c-11.782 0-21.344 9.532-21.344 21.312S820.25 96 832.032 96h42.656c11.782 0 21.344-9.562 21.344-21.344s-9.564-21.312-21.344-21.312z" fill="#434A54" /><path d="M0 74.656h1024V928H0z" fill="#5D9CEC" /><path d="M106.688 181.344H192v85.312H106.688z" fill="#656D78" /><path d="M85.344 160v128h128V160h-128z m85.344 85.344H128v-42.688h42.688v42.688z" fill="#434A54" /><path d="M170.688 821.344c-26.562 0-44.562-9.75-55.032-29.812-8.688-16.562-8.968-34.124-8.968-34.312v-63.876H448v128H170.688z" fill="#E6E9ED" /><path d="M85.344 672v85.344s0 85.312 85.344 85.312h298.656V672h-384z m341.344 128h-256c-22.938 0-30.906-8.844-35.688-17.5-5.376-9.782-6.844-21.594-7-25.532v-42.312h298.688V800z" fill="#CACFD7" /><path d="M106.688 330.656c-11.782 0-21.344 9.562-21.344 21.344v256c0 11.782 9.562 21.344 21.344 21.344S128 619.782 128 608V352c0-11.782-9.532-21.344-21.312-21.344zM192 330.656c-11.75 0-21.312 9.562-21.312 21.344v256c0 11.782 9.562 21.344 21.312 21.344 11.812 0 21.344-9.562 21.344-21.344V352c0-11.782-9.532-21.344-21.344-21.344zM448 330.656c-11.75 0-21.312 9.562-21.312 21.344v256c0 11.782 9.562 21.344 21.312 21.344 11.812 0 21.344-9.562 21.344-21.344V352c0-11.782-9.532-21.344-21.344-21.344zM362.688 330.656c-11.782 0-21.344 9.562-21.344 21.344v256c0 11.782 9.562 21.344 21.344 21.344S384 619.782 384 608V352c0-11.782-9.532-21.344-21.312-21.344z" fill="#434A54" /><path d="M917.344 800h-384c-11.782 0-21.344 9.562-21.344 21.344s9.562 21.312 21.344 21.312h384c11.782 0 21.344-9.532 21.344-21.312S929.124 800 917.344 800zM533.344 757.344h384c11.782 0 21.344-9.562 21.344-21.344s-9.562-21.344-21.344-21.344h-384c-11.782 0-21.344 9.562-21.344 21.344s9.562 21.344 21.344 21.344z" fill="#434A54" /><path d="M917.344 245.344h-384c-11.782 0-21.344 9.532-21.344 21.312S521.562 288 533.344 288h384c11.782 0 21.344-9.562 21.344-21.344s-9.564-21.312-21.344-21.312zM533.344 202.656h384c11.782 0 21.344-9.532 21.344-21.312S929.124 160 917.344 160h-384C521.562 160 512 169.562 512 181.344s9.562 21.312 21.344 21.312z" fill="#434A54" /><path d="M917.344 352h85.344v298.656h-85.344z" fill="#E6E9ED" /><path d="M896 330.656V672h128V330.656h-128z m85.344 298.688h-42.656v-256h42.656v256z" fill="#CACFD7" /><path d="M981.344 416c0 11.782-9.532 21.344-21.344 21.344-11.75 0-21.312-9.562-21.312-21.344s9.562-21.344 21.312-21.344c11.812 0 21.344 9.562 21.344 21.344zM981.344 501.344c0 11.782-9.532 21.312-21.344 21.312-11.75 0-21.312-9.532-21.312-21.312S948.25 480 960 480c11.812 0 21.344 9.562 21.344 21.344zM981.344 586.656c0 11.782-9.532 21.344-21.344 21.344-11.75 0-21.312-9.562-21.312-21.344s9.562-21.312 21.312-21.312c11.812 0 21.344 9.532 21.344 21.312z" fill="#CACFD7" /><path d="M298.688 181.344c0 11.782-9.562 21.312-21.344 21.312S256 193.124 256 181.344 265.562 160 277.344 160s21.344 9.562 21.344 21.344zM384 266.656c0 11.782-9.532 21.344-21.312 21.344s-21.344-9.562-21.344-21.344 9.562-21.312 21.344-21.312S384 254.876 384 266.656zM341.344 224c0 11.782-9.532 21.344-21.344 21.344-11.75 0-21.312-9.562-21.312-21.344s9.562-21.344 21.312-21.344c11.812 0 21.344 9.562 21.344 21.344zM384 181.344c0 11.782-9.532 21.312-21.312 21.312s-21.344-9.532-21.344-21.312S350.906 160 362.688 160 384 169.562 384 181.344zM298.688 266.656c0 11.782-9.562 21.344-21.344 21.344S256 278.438 256 266.656s9.562-21.312 21.344-21.312 21.344 9.532 21.344 21.312zM469.344 266.656c0 11.782-9.532 21.344-21.344 21.344-11.75 0-21.312-9.562-21.312-21.344s9.562-21.312 21.312-21.312c11.812 0 21.344 9.532 21.344 21.312zM426.688 224c0 11.782-9.562 21.344-21.344 21.344S384 235.782 384 224s9.562-21.344 21.344-21.344 21.344 9.562 21.344 21.344zM469.344 181.344c0 11.782-9.532 21.312-21.344 21.312-11.75 0-21.312-9.532-21.312-21.312S436.25 160 448 160c11.812 0 21.344 9.562 21.344 21.344z" fill="#4A89DC" /><path d="M362.688 736H192c-11.75 0-21.312 9.562-21.312 21.344S180.25 778.656 192 778.656h170.688c11.782 0 21.312-9.532 21.312-21.312S374.468 736 362.688 736zM533.344 352H832v298.656H533.344z" fill="#CACFD7" /><path d="M277.344 416c-11.782 0-21.344 9.562-21.344 21.344v85.312c0 11.782 9.562 21.344 21.344 21.344s21.344-9.562 21.344-21.344v-85.312c0-11.782-9.564-21.344-21.344-21.344zM277.344 373.344c11.782 0 21.344-9.562 21.344-21.344s-9.562-21.344-21.344-21.344S256 340.218 256 352s9.562 21.344 21.344 21.344zM277.344 586.656c-11.782 0-21.344 9.562-21.344 21.344s9.562 21.344 21.344 21.344 21.344-9.562 21.344-21.344-9.564-21.344-21.344-21.344z" fill="#4A89DC" /><path d="M682.688 650.656c-82.344 0-149.344-66.968-149.344-149.312S600.344 352 682.688 352 832 419 832 501.344s-66.968 149.312-149.312 149.312z" fill="#656D78" /><path d="M824.376 521.906l11.282-41.156c-1.156-0.312-28.468-7.718-61.376-11.5-16.782-1.938-32-2.532-45.624-1.876 19.718-19.718 47.25-39.406 68.782-51.688l-21.124-37.062c-1.032 0.594-25.594 14.656-51.562 35.25-13.25 10.532-24.438 20.876-33.624 31 0-9.032 0.594-19.032 1.812-29.75 3.312-29.532 10.156-54.844 10.312-55.5L682.688 354l-20.594-5.624c-0.312 1.124-7.718 28.438-11.5 61.376-1.906 16.782-2.532 32-1.876 45.594-19.718-19.688-39.406-47.25-51.688-68.75l-37.062 21.124c0.594 1.032 14.656 25.594 35.25 51.532 10.532 13.25 20.876 24.468 31 33.624-9.032 0.032-19.032-0.562-29.75-1.782-29.75-3.376-55.25-10.282-55.5-10.344l-5.624 20.594 5.656-20.594-11.282 41.156c1.124 0.312 28.438 7.75 61.376 11.532 12.438 1.406 24.032 2.124 34.75 2.124 3.718 0 7.344-0.094 10.844-0.25-19.718 19.688-47.25 39.376-68.75 51.688l10.562 18.532 10.562 18.532c1.032-0.594 25.594-14.656 51.532-35.282 13.25-10.5 24.468-20.844 33.624-30.968 0.032 9.032-0.562 19-1.782 29.75-3.376 29.718-10.25 55.218-10.344 55.468l41.156 11.282c0.312-1.156 7.75-28.468 11.532-61.376 1.906-16.782 2.532-32 1.876-45.624 19.688 19.718 39.376 47.25 51.656 68.75l37.094-21.124c-0.594-1.032-14.656-25.594-35.282-51.532-10.5-13.25-20.844-24.438-30.968-33.624 9.032 0 19 0.594 29.75 1.812 29.75 3.342 55.218 10.248 55.47 10.31z" fill="#434A54" /><path d="M682.688 544C659.156 544 640 524.876 640 501.344s19.156-42.688 42.688-42.688 42.656 19.156 42.656 42.688S706.218 544 682.688 544z" fill="#CCD1D9" /><path d="M682.688 437.344c-35.344 0-64 28.656-64 64s28.656 64 64 64 64-28.656 64-64-28.656-64-64-64z m0 85.312c-11.782 0-21.344-9.562-21.344-21.312 0-11.782 9.562-21.344 21.344-21.344 11.75 0 21.312 9.562 21.312 21.344 0 11.75-9.562 21.312-21.312 21.312z" fill="#E6E9ED" /><path d="M682.688 330.656c-94.25 0-170.688 76.406-170.688 170.688C512 595.594 588.438 672 682.688 672s170.656-76.406 170.656-170.656c0-94.282-76.406-170.688-170.656-170.688z m0 298.688c-70.594 0-128-57.438-128-128 0-70.594 57.406-128 128-128 70.562 0 128 57.406 128 128 0 70.562-57.438 128-128 128z" fill="#434A54" /></svg>