<?xml version="1.0" standalone="no"?><!DOCTYPE svg PUBLIC "-//W3C//DTD SVG 1.1//EN" "http://www.w3.org/Graphics/SVG/1.1/DTD/svg11.dtd"><svg class="icon" width="128px" height="128.00px" viewBox="0 0 1024 1024" version="1.1" xmlns="http://www.w3.org/2000/svg"><path d="M383.934 498.478c-11.796 0-21.358-9.562-21.358-21.376V415.9c0-11.796 9.562-21.358 21.358-21.358 11.796 0 21.36 9.562 21.36 21.358v61.202c-0.002 11.814-9.564 21.376-21.36 21.376zM512.056 498.478c-11.796 0-21.36-9.562-21.36-21.376V415.9c0-11.796 9.562-21.358 21.36-21.358s21.36 9.562 21.36 21.358v61.202c0 11.814-9.562 21.376-21.36 21.376zM640.178 498.478c-11.81 0-21.342-9.562-21.342-21.376V415.9c0-11.796 9.532-21.358 21.342-21.358 11.782 0 21.344 9.562 21.344 21.358v61.202c0 11.814-9.564 21.376-21.344 21.376z" fill="#434A54" /><path d="M914.112 725.676l-101.842-208.7a0.508 0.508 0 0 0-0.124-0.218c-26.906-53.624-101.966-57.78-124.342-57.78-2.594 0-4.032 0.062-4.032 0.062-0.5 0.016-1.344 0.032-1.844 0.032H299.842c-12.5 0-22.686 10.172-22.686 22.688v83.608h-148.14c-12.514 0-22.686 10.188-22.686 22.688v127.996c0 12.25 9.938 22.438 22.156 22.688l765.158 18.812h0.562c7.75 0 14.782-3.876 18.844-10.376s4.468-14.5 1.062-21.5z" fill="#4FC2E9" /><path d="M1021.672 662.926c-3.718-7.5-11.312-12.124-19.812-12.124H22.238c-7.796 0-14.876 3.938-18.922 10.5-4.062 6.562-4.406 14.624-0.906 21.562l84.216 168.496c3.954 7.876 12.204 13 21.032 13h766.078c7.406 0 14.75-3.688 19.218-9.624l126.53-168.684c5.094-6.814 5.938-15.626 2.188-23.126z" fill="#E6E9ED" /><path d="M815.05 522.664H581.68c-11.78 0-21.342 9.562-21.342 21.39 0 11.75 9.562 21.312 21.342 21.312h254.212l-20.842-42.702z" fill="#F5F7FA" /><path d="M917.768 586.742H405.292c-11.796 0-21.36 9.562-21.36 21.376V650.8h42.704v-21.376h42.718V650.8h42.702v-21.376h42.688V650.8h42.716v-21.376h42.716V650.8h42.718v-21.376h42.688V650.8h42.718v-21.376h42.716V650.8h42.686v-21.376h42.718V650.8h42.718v-42.684c0.004-11.812-9.558-21.374-21.37-21.374z" fill="#434A54" /><path d="M661.522 245.06h-42.686c23.56 0 42.686-19.124 42.686-42.702 0-23.594-19.124-42.718-42.686-42.718H63.612c-23.578 0-42.702 19.124-42.702 42.718 0 23.578 19.124 42.702 42.702 42.702h298.962c-23.594 0-42.702 19.124-42.702 42.718 0 23.578 19.108 42.702 42.702 42.702H661.52c23.594 0 42.718-19.124 42.718-42.702 0.002-23.594-19.122-42.718-42.716-42.718z" fill="#CCD1D9" /><path d="M219.344 742.488c-8.328 8.312-8.328 21.812 0 30.188 8.342 8.312 21.874 8.312 30.202 0 8.344-8.376 8.344-21.876 0-30.188-8.328-8.374-21.86-8.374-30.202 0zM390.184 742.488c-8.344 8.312-8.344 21.812 0 30.188 8.344 8.312 21.86 8.312 30.204 0 8.344-8.376 8.344-21.876 0-30.188a21.298 21.298 0 0 0-30.204 0zM561.026 742.488c-8.344 8.312-8.344 21.812 0 30.188 8.312 8.312 21.842 8.312 30.186 0 8.344-8.376 8.344-21.876 0-30.188-8.344-8.374-21.874-8.374-30.186 0zM762.052 742.488a21.31 21.31 0 0 0-30.218 0c-8.344 8.312-8.344 21.812 0 30.188 8.344 8.312 21.876 8.312 30.218 0 8.344-8.376 8.344-21.876 0-30.188z" fill="#434A54" /></svg>