<?xml version="1.0" standalone="no"?><!DOCTYPE svg PUBLIC "-//W3C//DTD SVG 1.1//EN" "http://www.w3.org/Graphics/SVG/1.1/DTD/svg11.dtd"><svg class="icon" width="128px" height="128.00px" viewBox="0 0 1024 1024" version="1.1" xmlns="http://www.w3.org/2000/svg"><path d="M754.07 971.976c-3.438 0-6.906-0.844-10.032-2.5L109.478 631.398a21.308 21.308 0 0 1-9.406-10.06c-8.688-19.282-82.84-193.022-16.874-356.326 37.186-92.026 94.276-161.522 169.646-206.582C317.684 19.682 393.838 0.028 479.144 0.028c77.278 0 160.554 17.124 234.458 48.214 69.058 29.06 125.494 68.59 154.802 108.432 47.624 64.686 78.558 141.244 92.028 227.52 11.656 74.902 9.624 157.43-5.938 238.644-29.624 154.772-105.65 293.796-189.144 345.888a21.272 21.272 0 0 1-11.28 3.25z" fill="#A0D468" /><path d="M952.34 342.382c-22.248-3.25-91.12-13.686-173.74-30.092-132.306-26.342-239.236-55.964-309.296-85.746a21.36 21.36 0 0 0-19.906 1.718l-114.244 73.84a21.344 21.344 0 0 0-9.78 17.844c0 5.094-0.062 125.432 30.31 187.772 10.686 21.966 54.622 56.34 299.39 144.868 128.932 46.624 256.208 87.09 266.238 90.246 13.904-37.938 25.214-78.402 33.184-119.994 15.562-81.214 17.594-163.742 5.938-238.644a589.794 589.794 0 0 0-8.094-41.812z" fill="#5D9CEC" /><path d="M427.68 320.01m-80.964 0a80.964 80.964 0 1 0 161.928 0 80.964 80.964 0 1 0-161.928 0Z" fill="#656D78" /><path d="M427.68 217.734c-56.404 0-102.306 45.872-102.306 102.276 0 56.402 45.904 102.276 102.306 102.276s102.276-45.874 102.276-102.276c0.002-56.404-45.872-102.276-102.276-102.276z m0 161.896c-32.874 0-59.622-26.748-59.622-59.622s26.75-59.622 59.622-59.622 59.622 26.748 59.622 59.622-26.748 59.622-59.622 59.622z" fill="#434A54" /><path d="M442.774 335.104c-8.342 8.31-21.842 8.31-30.186 0-8.312-8.344-8.312-21.844 0-30.188 8.342-8.31 21.842-8.31 30.186 0 8.312 8.344 8.312 21.844 0 30.188zM702.042 1023.972c-3.376 0-6.81-0.812-9.998-2.5L75.074 692.74c-10.406-5.532-14.342-18.438-8.812-28.842 5.532-10.406 18.468-14.344 28.842-8.812l617 328.732a21.28 21.28 0 0 1 8.78 28.842c-3.814 7.218-11.218 11.312-18.842 11.312z" fill="#434A54" /><path d="M960.434 384.194c-13.468-86.276-44.402-162.834-92.028-227.52-29.308-39.842-85.744-79.372-154.802-108.432C639.702 17.15 556.424 0.028 479.146 0.028c-7.186 0-14.28 0.156-21.342 0.438 71.09 2.81 145.994 19.53 213.114 47.778 69.058 29.06 125.492 68.59 154.836 108.432 47.59 64.686 78.558 141.244 92.028 227.52 11.654 74.902 9.624 157.43-5.938 238.644-28.594 149.272-100.308 283.86-180.274 339.982l12.468 6.656a21.488 21.488 0 0 0 10.032 2.5c3.906 0 7.844-1.094 11.282-3.25 83.494-52.092 159.522-191.118 189.144-345.888 15.562-81.216 17.594-163.744 5.938-238.646z" fill="#FFFFFF" opacity=".2" /></svg>