<?xml version="1.0" standalone="no"?><!DOCTYPE svg PUBLIC "-//W3C//DTD SVG 1.1//EN" "http://www.w3.org/Graphics/SVG/1.1/DTD/svg11.dtd"><svg class="icon" width="128px" height="128.00px" viewBox="0 0 1024 1024" version="1.1" xmlns="http://www.w3.org/2000/svg"><path d="M576 0.01h-127.984c-11.782 0-21.328 9.53-21.328 21.312v354.774c0 11.782 9.546 21.312 21.328 21.312H576c11.748 0 21.31-9.532 21.31-21.312V21.322C597.31 9.54 587.748 0.01 576 0.01z" fill="#E6E9ED" /><path d="M702.496 255.942H321.52c-12.484 0-22.656 10.156-22.656 22.656v154.84c0 12.5 10.172 22.686 22.656 22.686h380.976c12.468 0 22.624-10.188 22.624-22.686v-154.84c0.002-12.5-10.156-22.656-22.624-22.656z" fill="#656D78" /><path d="M766.372 319.91H257.646c-12.484 0-22.656 10.188-22.656 22.656v347.962c0 12.5 10.172 22.688 22.656 22.688h508.726c12.468 0 22.624-10.188 22.624-22.688V342.564c-0.002-12.468-10.156-22.654-22.624-22.654z" fill="#FFCE54" /><path d="M326.3 411.47c-8.328 8.342-8.328 21.842 0 30.154a21.294 21.294 0 0 0 30.156 0c8.328-8.312 8.328-21.812 0-30.154-8.328-8.312-21.828-8.312-30.156 0zM411.612 411.47c-8.328 8.342-8.328 21.842 0 30.154a21.294 21.294 0 0 0 30.156 0c8.328-8.312 8.328-21.812 0-30.154-8.33-8.312-21.828-8.312-30.156 0zM496.922 411.47c-8.328 8.342-8.328 21.842 0 30.154a21.294 21.294 0 0 0 30.156 0c8.328-8.312 8.328-21.812 0-30.154-8.328-8.312-21.828-8.312-30.156 0zM582.248 411.47c-8.342 8.342-8.342 21.842 0 30.154 8.312 8.344 21.812 8.344 30.124 0 8.344-8.312 8.344-21.812 0-30.154-8.312-8.312-21.812-8.312-30.124 0zM697.684 411.47c-8.312-8.312-21.812-8.312-30.124 0-8.344 8.342-8.344 21.842 0 30.154 8.312 8.344 21.812 8.344 30.124 0 8.344-8.31 8.344-21.81 0-30.154z" fill="#656D78" /><path d="M426.69 85.32h170.622v92.06h-170.622z" fill="#ED5564" /><path d="M738.622 967.866l155.684-382.46a21.27 21.27 0 0 0-0.876-17.968 21.252 21.252 0 0 0-14.282-10.938l-362.57-79.592a20.566 20.566 0 0 0-9.156 0L144.85 556.498a21.334 21.334 0 0 0-14.406 11.124 21.3 21.3 0 0 0-0.61 18.156l164.716 382.086h444.072z" fill="#E6E9ED" /><path d="M512 967.866v-491.46c-1.532 0-3.062 0.156-4.578 0.5L144.85 556.498a21.334 21.334 0 0 0-14.406 11.124 21.3 21.3 0 0 0-0.61 18.156l164.716 382.086H512z" fill="#CCD1D9" /><path d="M0.134 1023.99h1023.73v-125.998l-31.5-15.718c-6-3-13.06-3-19.06 0l-33.124 16.562-33.124-16.562c-6-3-13.062-3-19.062 0l-33.124 16.562-33.124-16.562c-6-3-13.062-3-19.062 0l-33.124 16.562-33.124-16.562c-6-3-13.062-3-19.062 0l-33.124 16.562-33.124-16.562c-6-3-13.062-3-19.06 0l-33.124 16.562-33.124-16.562c-6-3-13.062-3-19.062 0L512 899.648l-34.75-17.376a21.346 21.346 0 0 0-19.078 0l-33.124 16.562-33.11-16.562a21.346 21.346 0 0 0-19.078 0l-33.124 16.562-33.108-16.562a21.346 21.346 0 0 0-19.078 0l-33.124 16.562-33.124-16.562c-6-3-13.062-3-19.062 0l-33.124 16.562-33.124-16.562c-6-3-13.062-3-19.062 0l-33.124 16.562-33.124-16.562c-6-3-13.062-3-19.062 0L0.746 898.834l-0.612 125.156z" fill="#5D9CEC" /></svg>