<?xml version="1.0" standalone="no"?><!DOCTYPE svg PUBLIC "-//W3C//DTD SVG 1.1//EN" "http://www.w3.org/Graphics/SVG/1.1/DTD/svg11.dtd"><svg class="icon" width="128px" height="128.00px" viewBox="0 0 1024 1024" version="1.1" xmlns="http://www.w3.org/2000/svg"><path d="M703.998 170.658H320.002c-11.766 0-21.328-9.562-21.328-21.328s9.562-21.328 21.328-21.328h149.328c35.344 0 64-28.656 64-64V21.332c0-11.782-9.546-21.328-21.328-21.328s-21.328 9.546-21.328 21.328v42.67c0 11.75-9.578 21.328-21.344 21.328h-149.328c-35.344 0-64 28.656-64 64s28.656 64 64 64h383.996c11.75 0 21.312 9.562 21.312 21.328s-9.562 21.344-21.312 21.344h-149.31c-35.358 0-64.014 28.64-64.014 64v94.654h42.656v-94.654c0-11.766 9.578-21.344 21.36-21.344H704c35.344 0 64-28.656 64-64s-28.658-64-64.002-64z" fill="#434A54" /><path d="M490.672 1013.308c-111.75 0-202.67-90.904-202.67-202.654V597.312c0-111.734 90.92-202.654 202.67-202.654h42.656c111.734 0 202.67 90.92 202.67 202.654v213.342c0 111.75-90.936 202.654-202.67 202.654h-42.656z" fill="#F5F7FA" /><path d="M533.328 384.002h-42.656c-117.828 0-213.342 95.498-213.342 213.31v213.342c0 117.844 95.514 213.342 213.342 213.342h42.656c117.828 0 213.358-95.498 213.358-213.342V597.312c0-117.812-95.53-213.31-213.358-213.31z m170.67 426.652c0 45.594-17.748 88.468-49.998 120.688-32.218 32.218-75.062 49.966-120.672 49.966h-42.656c-45.594 0-88.454-17.748-120.688-49.966C337.75 899.124 320 856.248 320 810.654V597.312c0-45.562 17.75-88.438 49.984-120.672 32.234-32.234 75.094-49.984 120.688-49.984h42.656c45.61 0 88.454 17.75 120.672 49.984 32.25 32.234 49.998 75.11 49.998 120.672v213.342z" fill="#E6E9ED" /><path d="M533.328 490.656c0-11.782-9.546-21.328-21.328-21.328s-21.328 9.546-21.328 21.328v106.656c0 11.812 9.546 21.344 21.328 21.344 11.78 0 21.328-9.532 21.328-21.344v-106.656z" fill="#5D9CEC" /></svg>