<?xml version="1.0" standalone="no"?><!DOCTYPE svg PUBLIC "-//W3C//DTD SVG 1.1//EN" "http://www.w3.org/Graphics/SVG/1.1/DTD/svg11.dtd"><svg class="icon" width="128px" height="128.00px" viewBox="0 0 1024 1024" version="1.1" xmlns="http://www.w3.org/2000/svg"><path d="M645.082 192.008h69.344v159.934h-69.344z" fill="#AAB2BC" /><path d="M192 170.698v511.986h639.982V170.698H192z m522.426 181.244h-69.344V185.29h69.344v166.652z" fill="#FFCE54" /><path d="M703.988 128.01v213.338H661.3V128.01H362.668v341.334H149.33V725.34h725.34V128.01h-170.682zM405.322 170.698h213.354v170.652H405.322V170.698z m-42.654 511.986H192V512h170.668v170.684z m341.32 0H405.322V384.002h298.666v298.682z m127.994 0h-85.308V170.698h85.308v511.986z" fill="#F6BB42" /><path d="M277.326 1023.984C230.28 1023.984 192 985.738 192 938.676V810.68h170.668v127.996c0 47.062-38.28 85.308-85.342 85.308zM746.674 1023.984c-47.06 0-85.374-38.246-85.374-85.308V810.68h170.682v127.996c0 47.062-38.28 85.308-85.308 85.308z" fill="#434A54" /><path d="M277.326 938.676c-11.78 0-21.328-9.562-21.328-21.344v-85.34c0-11.75 9.546-21.312 21.328-21.312s21.344 9.562 21.344 21.312v85.34c0 11.782-9.562 21.344-21.344 21.344zM746.674 938.676c-11.812 0-21.376-9.562-21.376-21.344v-85.34c0-11.75 9.562-21.312 21.376-21.312 11.748 0 21.31 9.562 21.31 21.312v85.34c0 11.782-9.562 21.344-21.31 21.344z" fill="#656D78" /><path d="M853.294 725.34H170.672a21.33 21.33 0 0 1-21.342-21.344V21.358c0-11.78 9.562-21.342 21.342-21.342h682.622c11.812 0 21.376 9.562 21.376 21.342v682.638c0 11.812-9.562 21.344-21.376 21.344zM192 682.684h639.982V42.7H192v639.984z" fill="#E6E9ED" /><path d="M597.302 490.688h-85.31v-106.686h85.31v106.686zM319.998 320.006h-85.326v-106.654h85.326v106.654zM319.998 618.684h-85.326V512h85.326v106.684z" fill="#E6E9ED" /><path d="M149.33 0.014h725.34v213.336H149.33z" fill="#5D9CEC" /><path d="M149.33 85.356h725.34v42.654H149.33z" fill="#4A89DC" /><path d="M597.302 213.352h-170.636c-11.782 0-21.344-9.532-21.344-21.342 0-11.782 9.562-21.312 21.344-21.312h170.636c11.81 0 21.374 9.53 21.374 21.312 0 11.81-9.562 21.342-21.374 21.342z" fill="#434A54" /><path d="M874.67 853.332H149.33v-170.648h725.34v170.648z" fill="#E6E9ED" /><path d="M405.322 746.684c0 11.782 9.562 21.308 21.344 21.308h170.636c11.81 0 21.374-9.528 21.374-21.308v-64H405.322v64z" fill="#CCD1D9" /></svg>