<?xml version="1.0" standalone="no"?><!DOCTYPE svg PUBLIC "-//W3C//DTD SVG 1.1//EN" "http://www.w3.org/Graphics/SVG/1.1/DTD/svg11.dtd"><svg class="icon" width="128px" height="128.00px" viewBox="0 0 1024 1024" version="1.1" xmlns="http://www.w3.org/2000/svg"><path d="M917.05 551.876c0 93.684-181.372 128.556-405.05 128.556-223.698 0-405.036-34.874-405.036-128.556 0-93.67 141.762-252.696 405.036-252.696s405.05 159.026 405.05 252.696z" fill="#FFD2A6" /><path d="M810.46 1023.984H213.54l-127.904-511.64h852.728z" fill="#ED5564" /><path d="M601.684 603.874c-8.312-8.312-21.81-8.312-30.124 0-3.812 3.75-5.844 8.624-6.188 13.562l-21.342 297.802h0.032a21.304 21.304 0 0 0 6.156 16.624c8.344 8.312 21.842 8.312 30.154 0a21.6 21.6 0 0 0 6.188-13.562l21.31-297.834c0.408-5.968-1.624-12.03-6.186-16.592zM750.93 603.874c-8.344-8.312-21.844-8.312-30.188 0a21.38 21.38 0 0 0-5.748 10.594L651.058 912.3a21.296 21.296 0 0 0 5.75 19.562c8.312 8.312 21.812 8.312 30.156 0 3.03-3.032 4.904-6.75 5.748-10.624h0.032l63.936-297.802c1.438-6.876-0.438-14.25-5.75-19.562zM372.958 912.738l-63.952-298.272-0.016 0.032a21.088 21.088 0 0 0-5.75-10.624c-8.328-8.312-21.828-8.312-30.156 0-5.31 5.312-7.216 12.688-5.748 19.532l-0.016 0.032 63.952 298.24h0.016a21.266 21.266 0 0 0 5.748 10.594c8.328 8.312 21.828 8.312 30.156 0a21.28 21.28 0 0 0 5.75-19.532h0.016zM479.968 915.238l-21.31-297.802h-0.032a21.11 21.11 0 0 0-6.172-13.562c-8.312-8.312-21.812-8.312-30.14 0a21.26 21.26 0 0 0-6.172 16.594h-0.016L437.44 918.3h0.016a21.412 21.412 0 0 0 6.172 13.562c8.328 8.312 21.826 8.312 30.154 0a21.326 21.326 0 0 0 6.172-16.624h0.014z" fill="#DA4453" /><path d="M689.744 124.684C610.558 52.452 516.876 0.016 466.906 0.016c-29.482 0-41.716 17.922-43.358 34.688-9.204 94.558-49.592 117.824-100.73 147.292-57.294 33.014-122.246 70.434-139.95 210.916-1.782 14.188 2.484 27.594 12.344 38.78 27.998 31.75 105.762 47.186 237.726 47.202h0.046c78.108 0 170.322-5.86 253.042-16.062 131.026-16.188 145.4-30.578 150.838-36 4.938-4.92 7.624-11.25 7.624-17.78-0.154-124.67-97.028-231.682-154.744-284.368z" fill="#965353" /><path d="M746.242 183.026c-0.938 13.296-5.25 52.436-25.062 101.59-14.436 35.842-34.122 69.482-58.496 99.996-27 33.844-59.938 63.936-98.06 89.624 26-1.734 52.124-3.906 77.748-6.516 19.656-17.532 37.594-36.39 53.624-56.498 26.966-33.75 48.748-70.982 64.748-110.668 10.718-26.624 17.376-50.734 21.562-70.372-11.502-16.97-23.782-32.75-36.064-47.156zM689.744 124.684a714.398 714.398 0 0 0-28.06-24.28c-10.376 29.374-33.624 87.246-73.748 149.338-33.374 51.624-71.732 96.06-114.03 132.074-49.17 41.86-103.886 72.436-162.822 90.998 27.42 3.296 59.358 5.25 95.95 5.86 33.454-17.734 65.264-39.42 95.138-64.936 45.516-38.874 86.67-86.654 122.292-141.996 35.906-55.794 58.782-107.59 71.624-141.184a871.354 871.354 0 0 0-6.344-5.874zM543.218 22.656c-3.828 23.734-16.266 80.436-53.624 142.152-28.56 47.202-65.966 88.184-111.2 121.808-53.544 39.794-118.386 69.436-192.884 88.216-0.968 5.828-1.86 11.842-2.64 18.078-1.124 8.954 0.156 17.578 3.734 25.546 84.42-20.11 157.884-53.234 218.43-98.53 49.75-37.216 90.874-82.638 122.202-134.964 34.076-56.966 49.014-109.418 55.452-140.792-13.564-8.186-26.812-15.404-39.47-21.514z" fill="#7F4545" /><path d="M320.116 171.26c-9.688 0-18.454-6.656-20.734-16.484-0.156-0.594-6.36-25.312-27.936-51.092-28.86-34.454-70.608-54.796-124.092-60.452C135.636 42 127.152 31.5 128.386 19.796 129.62 8.078 140.136-0.408 151.838 0.828c82.092 8.688 128.996 46.906 153.902 77.436 27.36 33.546 34.874 65.608 35.186 66.952 2.61 11.484-4.578 22.906-16.06 25.514a21.68 21.68 0 0 1-4.75 0.53z" fill="#434A54" /><path d="M426.72 149.95c0 58.858-47.716 106.59-106.574 106.59-58.874 0-106.592-47.732-106.592-106.59 0-58.874 47.718-106.59 106.592-106.59 58.858-0.002 106.574 47.716 106.574 106.59z" fill="#ED5564" /><path d="M681.558 256.54c-11.782 0-21.312 9.546-21.312 21.312 0 11.782 9.532 21.328 21.312 21.328 11.748 0 21.31-9.546 21.31-21.328 0.002-11.766-9.562-21.312-21.31-21.312zM618.59 43.358c-11.782 0-21.312 9.546-21.312 21.312 0 11.782 9.532 21.312 21.312 21.312s21.312-9.532 21.312-21.312c0-11.764-9.53-21.312-21.312-21.312zM490.688 85.982c-11.782 0-21.328 9.546-21.328 21.328 0 11.766 9.546 21.312 21.328 21.312 11.766 0 21.312-9.546 21.312-21.312 0-11.78-9.546-21.328-21.312-21.328zM213.93 256.54c-11.78 0-21.326 9.546-21.326 21.312 0 11.782 9.546 21.312 21.326 21.312 11.766 0 21.312-9.53 21.312-21.312 0-11.766-9.546-21.312-21.312-21.312zM298.818 277.852c-11.766 0-21.312 9.546-21.312 21.312 0 11.782 9.546 21.328 21.312 21.328 11.782 0 21.328-9.546 21.328-21.328 0-11.766-9.546-21.312-21.328-21.312zM426.72 192.572c-11.766 0-21.312 9.546-21.312 21.328 0 11.766 9.546 21.312 21.312 21.312 11.782 0 21.328-9.546 21.328-21.312 0-11.78-9.546-21.328-21.328-21.328zM575.936 171.26c-11.75 0-21.31 9.546-21.31 21.312 0 11.782 9.56 21.328 21.31 21.328a21.318 21.318 0 0 0 21.342-21.328c0-11.764-9.53-21.312-21.342-21.312zM490.688 299.178c-11.782 0-21.328 9.546-21.328 21.312 0 11.766 9.546 21.312 21.328 21.312 11.766 0 21.312-9.546 21.312-21.312 0-11.764-9.546-21.312-21.312-21.312zM384.098 363.13c-11.782 0-21.328 9.546-21.328 21.312 0 11.782 9.546 21.312 21.328 21.312 11.766 0 21.31-9.532 21.31-21.312 0-11.766-9.544-21.312-21.31-21.312zM618.59 341.802c-11.782 0-21.312 9.546-21.312 21.328 0 11.766 9.532 21.312 21.312 21.312s21.312-9.546 21.312-21.312c0-11.78-9.53-21.328-21.312-21.328zM789.118 341.802c-11.75 0-21.312 9.546-21.312 21.328 0 11.766 9.562 21.312 21.312 21.312 11.812 0 21.344-9.546 21.344-21.312a21.32 21.32 0 0 0-21.344-21.328z" fill="#A0D468" /></svg>