<?xml version="1.0" standalone="no"?><!DOCTYPE svg PUBLIC "-//W3C//DTD SVG 1.1//EN" "http://www.w3.org/Graphics/SVG/1.1/DTD/svg11.dtd"><svg class="icon" width="128px" height="128.00px" viewBox="0 0 1024 1024" version="1.1" xmlns="http://www.w3.org/2000/svg"><path d="M970.684 298.662H565.32c-23.546 0-42.638 19.094-42.638 42.656v42.686h362.628c23.562 0 42.688 19.094 42.688 42.656v298.646c0 23.562-19.124 42.688-42.688 42.688H522.682v42.656c0 23.56 19.092 42.654 42.638 42.654h405.364c23.562 0 42.624-19.094 42.624-42.654V341.318c-0.002-23.562-19.062-42.656-42.624-42.656z" fill="#E6E9ED" /><path d="M117.348 170.666V981.3c0 23.562 19.124 42.686 42.686 42.686h597.282c23.562 0 42.688-19.124 42.688-42.686V170.666H117.348z" fill="#FFCE54" /><path d="M117.348 938.646v42.654c0 23.562 19.124 42.686 42.686 42.686h597.282c23.562 0 42.688-19.124 42.688-42.686v-42.654H117.348z" fill="#E6E9ED" /><path d="M309.342 384.004a21.3 21.3 0 0 0-21.312 21.312v383.99c0 11.782 9.532 21.344 21.312 21.344s21.344-9.562 21.344-21.344V405.316c0-11.78-9.562-21.312-21.344-21.312zM458.682 384.004c-11.782 0-21.344 9.532-21.344 21.312v383.99c0 11.782 9.562 21.344 21.344 21.344s21.344-9.562 21.344-21.344V405.316c0-11.78-9.564-21.312-21.344-21.312zM629.318 405.316c0-11.782-9.5-21.312-21.312-21.312-11.75 0-21.312 9.532-21.312 21.312v383.99c0 11.782 9.562 21.344 21.312 21.344 11.812 0 21.312-9.562 21.312-21.344V405.316z" fill="#F6BB42" /><path d="M202.688 959.99c11.782 0 21.344-9.562 21.344-21.344H181.346c0 11.782 9.562 21.344 21.342 21.344zM288.03 959.99c11.782 0 21.312-9.562 21.312-21.344h-42.654c0 11.782 9.56 21.344 21.342 21.344zM373.34 959.99c11.782 0 21.344-9.562 21.344-21.344h-42.656c0 11.782 9.53 21.344 21.312 21.344zM458.682 959.99c11.782 0 21.344-9.562 21.344-21.344h-42.688c0 11.782 9.562 21.344 21.344 21.344zM544.008 959.99c11.75 0 21.312-9.562 21.312-21.344h-42.638c0 11.782 9.528 21.344 21.326 21.344zM629.318 959.99c11.812 0 21.376-9.562 21.376-21.344h-42.688c0 11.782 9.562 21.344 21.312 21.344zM714.69 959.99c11.75 0 21.312-9.562 21.312-21.344h-42.686c0 11.782 9.562 21.344 21.374 21.344z" fill="#CCD1D9" /><path d="M160.034 981.3V170.666H117.348V981.3c0 23.562 19.124 42.686 42.686 42.686h42.654c-23.562 0-42.654-19.122-42.654-42.686z" fill="#FFFFFF" opacity=".2" /><path d="M714.69 21.326c-35.874 0-68.246 14.656-91.496 38.25-26.624-23.782-61.874-38.25-100.512-38.25-35.094 0-67.406 11.938-93 31.968-27.842-20.094-62.03-31.968-98.996-31.968-43.156 0-82.56 16.188-112.466 42.782-103.34 3.062-186.182 87.808-186.182 191.9 0 106.03 85.936 191.994 191.994 191.994 72.53 0 135.652-40.216 168.308-99.59a169.056 169.056 0 0 0 51.904-32.156c23.468 27.938 58.78 45.688 98.216 45.688 59.608 0 109.732-40.532 123.982-95.404a128.198 128.198 0 0 0 48.246 9.376c70.688 0 127.998-56.998 127.998-127.28 0.002-70.312-57.31-127.31-127.996-127.31z" fill="#F5F7FA" /><path d="M224.032 469.314c-117.622 0-213.338-95.686-213.338-213.306 0-55.874 21.438-108.686 60.374-148.714 37.062-38.124 86.124-60.716 138.84-64.154A190.424 190.424 0 0 1 330.688 0.016c35.124 0 68.874 9.438 98.558 27.406C457.028 9.454 489.028 0.016 522.684 0.016c35.952 0 70.762 11.156 99.762 31.718C648.634 11.172 680.756 0.016 714.692 0.016 797.004 0.016 864 66.672 864 148.638c0 81.936-66.996 148.622-149.308 148.622-11.874 0-23.56-1.376-34.874-4.094-23.186 54-76.874 90.124-137.356 90.124-37.25 0-72.654-13.718-99.936-38.186-11 8-22.81 14.75-35.31 20.25-38.438 64.306-107.936 103.96-183.184 103.96z m106.654-426.644a147.76 147.76 0 0 0-98.28 37.374l-5.812 5.156-7.75 0.218c-44.466 1.312-86.092 19.656-117.184 51.624-31.156 32.03-48.31 74.28-48.31 118.964 0 94.092 76.558 170.652 170.682 170.652 62.248 0 119.56-33.906 149.622-88.53l3.718-6.782 7.188-2.812a146.906 146.906 0 0 0 45.374-28.094l16.406-14.842 14.25 16.936c20.344 24.218 50.186 38.094 81.874 38.094 48.732 0 91.17-32.688 103.294-79.436l6.124-23.562 22.562 9.124c12.748 5.188 26.31 7.812 40.246 7.812 58.812 0 106.624-47.53 106.624-105.936 0-58.436-47.812-105.964-106.624-105.964-28.936 0-55.996 11.312-76.246 31.874l-14.25 14.468-15.188-13.5c-23.75-21.186-54.374-32.842-86.324-32.842-29.282 0-56.906 9.5-79.876 27.438l-12.624 9.842-12.998-9.374c-25.282-18.246-55.188-27.902-86.498-27.902z" fill="#E6E9ED" /></svg>