<?xml version="1.0" standalone="no"?><!DOCTYPE svg PUBLIC "-//W3C//DTD SVG 1.1//EN" "http://www.w3.org/Graphics/SVG/1.1/DTD/svg11.dtd"><svg class="icon" width="128px" height="128.00px" viewBox="0 0 1024 1024" version="1.1" xmlns="http://www.w3.org/2000/svg"><path d="M746.646 938.638H533.312c-5.656 0-11.062-2.25-15.062-6.25S512 922.982 512 917.296V789.3h42.688l-0.032 106.684h170.678v-149.338h42.656v170.65c0 11.812-9.562 21.342-21.344 21.342z" fill="#434A54" /><path d="M917.328 1023.98H448.002c-5.656 0-11.094-2.25-15.094-6.25s-6.25-9.438-6.25-15.094l0.032-213.336h42.654l-0.032 191.994h426.67V746.646h42.688v255.99c0.002 11.782-9.56 21.344-21.342 21.344z" fill="#434A54" /><path d="M533.344 42.674H149.358c-58.81 0-106.684 47.858-106.684 106.666v554.652c0 58.81 47.874 106.652 106.684 106.652h383.986c58.81 0 106.65-47.842 106.65-106.652V149.34c0-58.808-47.84-106.666-106.65-106.666z" fill="#434A54" /><path d="M533.344 0.02H149.358c-58.81 0-106.684 47.842-106.684 106.652v554.632c0 58.812 47.874 106.686 106.684 106.686h383.986c58.81 0 106.65-47.874 106.65-106.686V106.672c0-58.81-47.84-106.652-106.65-106.652z" fill="#656D78" /><path d="M128.014 85.344h426.642v213.32H128.014z" fill="#A0D468" /><path d="M469.344 42.674H213.356c-11.782 0-21.342-9.546-21.342-21.328S201.574 0.02 213.356 0.02h255.99c11.782 0 21.312 9.544 21.312 21.326s-9.532 21.328-21.314 21.328z" fill="#434A54" /><path d="M320.008 85.344l-85.342 214.664h127.996l85.34-214.664z" fill="#FFFFFF" opacity=".1" /><path d="M356.412 347.584c8.342 8.328 8.342 21.828 0 30.172-8.312 8.328-21.812 8.328-30.154 0-8.344-8.344-8.344-21.844 0-30.172 8.342-8.328 21.842-8.328 30.154 0zM356.412 688.898c8.342 8.344 8.342 21.844 0 30.156-8.312 8.342-21.812 8.342-30.154 0-8.344-8.312-8.344-21.812 0-30.156 8.342-8.344 21.842-8.344 30.154 0zM261.542 364.926c11.374 3.046 18.124 14.75 15.062 26.124-3.032 11.374-14.75 18.124-26.124 15.078s-18.124-14.734-15.062-26.124c3.03-11.374 14.748-18.124 26.124-15.078zM432.19 660.492c11.376 3.062 18.124 14.75 15.094 26.156-3.062 11.376-14.75 18.124-26.124 15.094-11.406-3.062-18.156-14.75-15.094-26.124 3.032-11.408 14.75-18.158 26.124-15.126zM188.012 427.394c11.374-3.046 23.092 3.704 26.124 15.078 3.062 11.374-3.688 23.076-15.062 26.122-11.374 3.046-23.092-3.702-26.124-15.076-3.062-11.374 3.688-23.078 15.062-26.124zM483.626 598.058c11.374-3.06 23.062 3.688 26.124 15.062 3.032 11.374-3.718 23.092-15.094 26.124-11.374 3.062-23.092-3.688-26.124-15.062-3.062-11.374 3.688-23.092 15.094-26.124zM155.608 518.232c8.312-8.326 21.812-8.326 30.156 0 8.344 8.344 8.344 21.844 0 30.172-8.344 8.344-21.842 8.344-30.156 0-8.344-8.328-8.344-21.844 0-30.172zM496.906 518.232c8.344-8.326 21.844-8.326 30.188 0 8.312 8.328 8.312 21.844 0 30.172a21.332 21.332 0 0 1-30.188 0c-8.312-8.328-8.312-21.828 0-30.172zM172.95 613.122c3.032-11.376 14.75-18.124 26.124-15.062 11.376 3.032 18.124 14.75 15.062 26.124-3.032 11.376-14.75 18.124-26.124 15.062-11.374-3.034-18.124-14.752-15.062-26.124zM468.532 442.472c3.032-11.376 14.75-18.124 26.124-15.078 11.376 3.046 18.124 14.75 15.094 26.124-3.062 11.374-14.75 18.138-26.124 15.076-11.406-3.048-18.156-14.748-15.094-26.122zM235.416 686.648c-3.062-11.406 3.688-23.094 15.062-26.156 11.376-3.032 23.092 3.718 26.124 15.124 3.062 11.376-3.688 23.062-15.062 26.124-11.374 3.034-23.092-3.716-26.124-15.092zM406.066 391.05c-3.062-11.374 3.688-23.078 15.094-26.124 11.374-3.046 23.062 3.704 26.124 15.078 3.032 11.39-3.718 23.076-15.094 26.124-11.374 3.046-23.092-3.704-26.124-15.078z" fill="#AAB2BC" /><path d="M512.718 389.52c-3.032-11.374 3.718-23.078 15.094-26.124s23.062 3.704 26.124 15.078c3.062 11.39-3.688 23.076-15.094 26.124-11.374 3.062-23.06-3.704-26.124-15.078zM128.734 389.52c-3.032-11.374 3.718-23.078 15.092-26.124s23.062 3.704 26.124 15.078c3.062 11.39-3.688 23.076-15.092 26.124-11.376 3.062-23.064-3.704-26.124-15.078z" fill="#434A54" /><path d="M431.846 623.806c-49.998 49.998-131.026 49.998-181.024 0-49.966-49.964-49.966-131.01 0-180.992 49.998-49.984 131.026-49.984 181.024 0 49.998 49.982 49.998 131.028 0 180.992z" fill="#AAB2BC" /><path d="M296.102 599.934a21.432 21.432 0 0 1-15.094-6.248c-8.344-8.344-8.344-21.876 0-30.188l90.496-90.514c8.344-8.328 21.844-8.328 30.186 0 8.312 8.328 8.312 21.844 0 30.172l-90.528 90.53a21.41 21.41 0 0 1-15.06 6.248z" fill="#CCD1D9" /><path d="M789.334 277.336h-85.342c-11.782 0-21.342 9.546-21.342 21.328v447.982c0 11.782 9.56 21.344 21.342 21.344h85.342c11.782 0 21.312-9.562 21.312-21.344V298.664c0-11.782-9.53-21.328-21.312-21.328z" fill="#ED5564" /><path d="M959.982 277.336H874.64c-11.782 0-21.308 9.546-21.308 21.328v447.982c0 11.782 9.528 21.344 21.308 21.344h85.342c11.782 0 21.344-9.562 21.344-21.344V298.664c0-11.782-9.562-21.328-21.344-21.328z" fill="#656D78" /><path d="M746.646 320.006c-11.782 0-21.312-9.562-21.312-21.342V149.34c0-11.782 9.532-21.328 21.312-21.328s21.344 9.546 21.344 21.328v149.324c0 11.782-9.562 21.342-21.344 21.342zM917.328 320.006c-11.782 0-21.344-9.562-21.344-21.342V149.34c0-11.782 9.562-21.328 21.344-21.328S938.64 137.56 938.64 149.34v149.324c0 11.782-9.53 21.342-21.312 21.342z" fill="#FFCE54" /><path d="M789.334 277.336h-85.342c-11.782 0-21.342 9.546-21.342 21.328v42.67h127.996v-42.67c0-11.782-9.53-21.328-21.312-21.328z" fill="#DA4453" /><path d="M959.982 277.336H874.64c-11.782 0-21.308 9.546-21.308 21.328v42.67h127.994v-42.67c0-11.782-9.562-21.328-21.344-21.328z" fill="#434A54" /></svg>