<?xml version="1.0" standalone="no"?><!DOCTYPE svg PUBLIC "-//W3C//DTD SVG 1.1//EN" "http://www.w3.org/Graphics/SVG/1.1/DTD/svg11.dtd"><svg class="icon" width="128px" height="128.00px" viewBox="0 0 1024 1024" version="1.1" xmlns="http://www.w3.org/2000/svg"><path d="M476.288 1002.638c-25.156-213.742-81.528-720.818-73.31-786.66 2.75-22.312 14.186-79.28 60.186-126.278 44.28-45.28 107.06-68.28 186.65-68.342 79.53 0.062 142.34 23.062 186.588 68.342 46 47.03 57.438 103.964 60.218 126.278 8.186 65.842-48.782 572.95-74.216 786.66H476.288z" fill="#F5BA45" /><path d="M478.664 1002.638c0 11.782-9.532 21.344-21.312 21.344s-21.342-9.562-21.342-21.344c0-11.78 9.562-21.31 21.342-21.31s21.312 9.532 21.312 21.31z"  /><path d="M846.306 981.922c18.344-155.87 80.528-695.696 71.466-768.568C907.182 128.076 841.434 0.206 649.782 0.018c-191.65 0.188-257.366 128.058-267.99 213.304-10.594 85.342 75.56 810.66 75.56 810.66h383.986c11.782 0 21.312-9.562 21.312-21.344 0-10.06-6.968-18.468-16.344-20.716z m-153.87-0.594h-197.148c-7.342-63.124-22.718-197.056-37.28-335.208-35.998-342.114-35.686-412.954-33.874-427.516 2.5-20.156 12.812-71.624 54.28-113.996 40.09-40.998 97.748-61.842 171.368-61.936 73.624 0.094 131.28 20.938 171.372 61.936 41.466 42.374 51.78 93.84 54.28 113.996 1.81 14.562 2.092 85.374-34.312 427.456-14.716 138.212-30.28 272.146-37.688 335.27h-110.998z" fill="#E2A334" /><path d="M818.746 318.224c-18.562-61.248-168.964-104.872-168.964-104.872s-150.4 43.624-168.962 104.872c-34.718 114.652 83.184 620.416 83.184 620.416h170.65s118.806-505.764 84.092-620.416z" fill="#E5E8EC" /><path d="M558.378 913.86c3.532 15.814 5.626 24.782 5.626 24.782h170.65s18.966-80.746 39.53-184.992L558.378 913.86zM534.754 803.396l266.274-197.68c8.032-49.312 14.904-98.31 19.218-142.278L513.036 691.526c7.282 39.778 14.782 77.932 21.718 111.87zM493.818 577.81l328.394-243.804c-0.938-5.876-2.06-11.156-3.466-15.782-7.188-23.716-34.186-44.81-64.53-61.748l-275.304 204.4c3.468 36.342 8.688 76.216 14.906 116.934z" fill="#CBD0D8" /><path d="M649.782 85.358c-70.686 0-127.996 57.28-127.996 127.996 0 70.686 57.31 127.996 127.996 127.996 70.688 0 127.998-57.31 127.998-127.996 0-70.718-57.312-127.996-127.998-127.996z" fill="#E5E8EC" /><path d="M639.126 213.354c0 11.782-9.562 21.312-21.344 21.312-11.78 0-21.342-9.532-21.342-21.312 0-11.812 9.562-21.342 21.342-21.342s21.344 9.53 21.344 21.342z"  /><path d="M200.734 1002.638C175.58 788.896 119.206 281.852 127.424 215.978c2.75-22.312 14.188-79.28 60.186-126.278 44.28-45.28 107.06-68.28 186.65-68.342 79.53 0.062 142.308 23.062 186.588 68.342 45.998 47.03 57.434 103.964 60.186 126.278 8.218 65.842-48.748 572.95-74.186 786.66H200.734z" fill="#FECD57" /><path d="M642.22 213.354C631.596 128.076 565.878 0.206 374.23 0.018 182.58 0.206 116.862 128.076 106.238 213.322c-10.624 85.342 75.56 810.66 75.56 810.66h383.988s87.058-725.318 76.434-810.628z m-76.654 432.704c-14.718 138.212-30.282 272.146-37.686 335.27H219.732c-7.344-63.124-22.718-196.96-37.28-335.144-36-342.178-35.686-413.018-33.876-427.58 2.5-20.156 12.812-71.624 54.28-113.996 40.092-40.998 97.748-61.842 171.37-61.936 73.622 0.094 131.276 20.938 171.37 61.936 41.466 42.374 51.778 93.84 54.278 113.996 1.818 14.562 2.098 85.372-34.308 427.454z" fill="#F5BA45" /><path d="M374.23 938.64c-11.782 0-21.344-9.53-21.344-21.31V106.67c0-11.782 9.562-21.312 21.344-21.312 11.78 0 21.342 9.532 21.342 21.312v810.66c0 11.782-9.562 21.31-21.342 21.31z" fill="#F5BA45" /></svg>