<?xml version="1.0" standalone="no"?><!DOCTYPE svg PUBLIC "-//W3C//DTD SVG 1.1//EN" "http://www.w3.org/Graphics/SVG/1.1/DTD/svg11.dtd"><svg class="icon" width="128px" height="128.00px" viewBox="0 0 1024 1024" version="1.1" xmlns="http://www.w3.org/2000/svg"><path d="M920.804 687.09l-3.624-1.062c-53-14.218-70.904-27.906-94.498-36.876-83.688-31.876-105.438-54.842-111-65.716-0.218-0.376-0.376-0.782-0.562-1.188l-0.688-97.186L512 482.812l-198.434 2.25-0.688 97.186c-0.188 0.406-0.344 0.812-0.562 1.188-5.562 10.876-27.312 33.842-110.996 65.716-23.594 8.968-41.5 22.656-94.498 36.876l-3.624 1.062c-48.25 15.936-80.688 60.654-80.688 111.152v225.746h978.98V798.242c0-50.498-32.438-95.216-80.686-111.152z" fill="#F6BB42" /><path d="M667.996 1023.988l324.962-269.526a117.102 117.102 0 0 0-23.218-36.218L601.124 1023.988h66.872zM450.814 1023.988h63.062L889.992 677.84c-18.968-6.438-32.124-12.562-43.498-18l-395.68 364.148zM341.848 1023.988l420.708-401.18c-17.532-9.124-29.282-17.032-37.094-23.624l-445.52 424.802h61.906zM181.258 1023.988l529.424-506.426-0.25-32.5-27.248-0.312-224.65 214.9-150.78-109.528c-5.624 6.718-16.124 15.78-35.654 26.904l155.058 112.624-55.498 53.124-176.902-130.964c-12.968 5.594-25.376 12.532-44.624 20.124l190.214 140.778-51.5 49.282-201.838-168.186a117.256 117.256 0 0 0-34.75 26.624l205.528 171.28-59.654 57.06-175.624-141.216v54.782l144.498 116.216-47.53 45.436h61.78zM826.682 1023.988l174.808-152.028v-56.592l-239.902 208.62z" opacity=".05" /><path d="M787.37 296.972c0 178.934-170.558 343.586-275.37 343.586s-275.37-164.652-275.37-343.586c0-178.9 123.28-296.96 275.37-296.96s275.37 118.06 275.37 296.96z" fill="#FFCE54" /><path d="M237.474 271.818l500.988-150.308a269.546 269.546 0 0 0-28.094-36.188l-85.622 25.688-75.09-108.498A287.768 287.768 0 0 0 512 0.012c-5.282 0-10.5 0.156-15.718 0.438l85.466 123.498-55.56 16.656-99.404-127.438a263.946 263.946 0 0 0-40.904 16.968l96.402 123.654-56.53 16.968-93.248-103.966a261.91 261.91 0 0 0-29.624 30.938l77.656 86.592-136.874 41.06a348.88 348.88 0 0 0-6.188 46.438zM245.912 370.348l525.894-177.778a294.824 294.824 0 0 0-15.75-39.75l-517.738 174.996a310.132 310.132 0 0 0 7.594 42.532zM276.1 449.69l510.988-166.496c-0.532-14.968-1.938-29.5-4.188-43.532l-524.364 170.84a396.76 396.76 0 0 0 17.564 39.188zM329.536 529.468l449.552-163.308c3.718-15.782 6.282-31.876 7.468-48.124l-484.084 175.808a435.456 435.456 0 0 0 27.064 35.624zM411.158 603.434l324.21-131.246c10.938-18.31 20.562-37.592 28.468-57.592l-391.74 158.59c12.814 11.344 25.94 21.5 39.062 30.248z" opacity=".05" /><path d="M618.624 277.13m-42.718 0a42.718 42.718 0 1 0 85.436 0 42.718 42.718 0 1 0-85.436 0Z" fill="#5D9CEC" /><path d="M447.94 277.13c0 23.592-19.124 42.716-42.718 42.716-23.56 0-42.686-19.124-42.686-42.716 0-23.594 19.124-42.718 42.686-42.718 23.592 0 42.718 19.126 42.718 42.718z" fill="#5D9CEC" /></svg>