<?xml version="1.0" standalone="no"?><!DOCTYPE svg PUBLIC "-//W3C//DTD SVG 1.1//EN" "http://www.w3.org/Graphics/SVG/1.1/DTD/svg11.dtd"><svg class="icon" width="128px" height="128.00px" viewBox="0 0 1024 1024" version="1.1" xmlns="http://www.w3.org/2000/svg"><path d="M980.27 565.998c-11.938-92.874-35.812-231.056-81.876-362.024a21.342 21.342 0 0 0-21.344-14.218l-146.59 8.39c-10.876 0.61-19.532 9.342-20.062 20.234-9.124 182.636-7.656 284.932-4.75 339.054-41.404-28.608-113.122-64.108-213.746-64.108-54.124 0-110.778 10.454-168.622 31.124-10.094-14.532-28.03-37-55-59.344-41.28-34.154-112.84-74.952-218.496-73.826-11.686 0.124-21.092 9.64-21.092 21.328v590.064c0 8.312 4.876 15.876 12.438 19.376 2.842 1.312 5.874 1.938 8.906 1.938 5 0 9.968-1.75 13.906-5.156l185.746-159.84c82.03 58.686 184.714 89.622 298.244 89.622h0.062c92.532 0 189.496-20.966 272.932-59.058 82.154-37.5 143.186-87.438 171.808-140.654a21.3 21.3 0 0 0 2.562-10.718c-0.09-2.876-2.122-71.624-15.026-172.184z" fill="#EAC6BB" /><path d="M49.788 433.956c105.654-1.124 177.214 39.654 218.496 73.826 26.968 22.344 44.906 44.78 55 59.342 57.842-20.688 114.498-31.138 168.622-31.138 100.624 0 172.34 35.514 213.746 64.076a1549.636 1549.636 0 0 1-1.624-43.75c-41.654-28.388-112.778-62.982-212.12-62.982-54.124 0-110.778 10.454-168.622 31.124-10.094-14.532-28.03-37-55-59.344-41.28-34.154-112.84-74.952-218.496-73.826-11.686 0.124-21.092 9.64-21.092 21.328v42.67c-0.002-11.688 9.404-21.202 21.09-21.326z" fill="#FFFFFF" opacity=".2" /><path d="M50.038 1023.988c-6 0-11.968-2.5-16.186-7.438-7.688-8.906-6.656-22.376 2.282-30.062l256.244-220.494c8.936-7.688 22.406-6.688 30.092 2.25 7.688 8.936 6.688 22.404-2.25 30.06L63.944 1018.832a21.216 21.216 0 0 1-13.906 5.156z" fill="#DBAFA5" /><path d="M898.394 203.974a21.342 21.342 0 0 0-21.344-14.218l-146.59 8.39c-10.876 0.61-19.532 9.342-20.062 20.234-2.188 43.454-3.75 82.358-4.844 117.154 25.562 6.438 52.782 8.89 79.5 8.89 62.56 0 122.058-13.468 149.402-20.672-10.156-39.622-22.092-80.028-36.062-119.778z" fill="#ED5564" /><path d="M899.488 209.022c-0.094-1.156-2.782-28.514-10.156-62.06-10.25-46.546-24.25-81.232-41.592-103.092-2.532-3.204-5.688-6.188-20.75-13.078-6.968-3.17-18.404-8.014-33.53-13-24.5-8.11-62.312-17.78-103.188-17.78-30.03 0-57.59 5.204-81.934 15.484-49.25 20.764-84.75 79.232-73.094 120.31 4.688 16.468 14.438 26.454 24.406 32.172v2.046c0.468 19.578 9.656 34.702 25.156 41.466 7.406 3.234 15.844 4.876 25.094 4.876 5.282 0 10.406-0.546 15.094-1.328 7.062 15.234 19.936 30.656 41.342 35.594 3.468 0.796 7.188 1.204 11.094 1.204 16.56 0 36.374-16.656 49.81-23.094 13.032 11.454 33.688 31.234 64.844 31.234 1.938 0 3.906-0.032 5.906-0.124 61.714-2.468 91.934-30.376 95.184-33.546a21.252 21.252 0 0 0 6.314-17.284z" fill="#EAC6BB" /><path d="M727.242 228.74c-13.438 6.438-33.25 1.75-49.81 1.75-3.906 0-7.624-0.406-11.094-1.204-21.406-4.938-34.28-20.344-41.342-35.578-4.688 0.782-9.812 1.312-15.094 1.312-9.25 0-17.688-1.624-25.094-4.86-15.5-6.766-24.688-21.89-25.156-41.484v-2.032c-9.968-5.718-19.718-15.704-24.406-32.188a53.956 53.956 0 0 1-1.376-6.39c-1.406 9.67-1.062 19.078 1.376 27.734 4.688 16.468 14.438 26.454 24.406 32.172v2.046c0.468 19.578 9.656 34.702 25.156 41.466 7.406 3.234 15.844 4.876 25.094 4.876 5.282 0 10.406-0.546 15.094-1.328 7.062 15.234 19.936 30.656 41.342 35.594 3.468 0.796 7.188 1.204 11.094 1.204 16.56 0.004 38.872-4.09 49.81-23.09z" fill="#DBAFA5" /></svg>