<?xml version="1.0" standalone="no"?><!DOCTYPE svg PUBLIC "-//W3C//DTD SVG 1.1//EN" "http://www.w3.org/Graphics/SVG/1.1/DTD/svg11.dtd"><svg class="icon" width="128px" height="128.00px" viewBox="0 0 1024 1024" version="1.1" xmlns="http://www.w3.org/2000/svg"><path d="M833.686 0.01H193.388c-47.124 0-85.31 38.218-85.31 85.342v396.618c0 47.124 38.186 85.342 85.31 85.342h640.298c47.124 0 85.342-38.218 85.342-85.342V85.352c0-47.122-38.218-85.342-85.342-85.342z m42.688 481.96c0 23.532-19.156 42.686-42.688 42.686H193.388c-23.5 0-42.656-19.156-42.656-42.686V85.352c0-23.53 19.156-42.654 42.656-42.654h640.298c23.532 0 42.688 19.124 42.688 42.654v396.618z" fill="#F6BB42" /><path d="M239.606 461.564c-12.624 62.968-46.968 60.812-88.216 52.53-41.25-8.25-73.81-19.468-61.186-82.436 12.624-62.968 65.592-153.84 106.84-145.59 41.248 8.28 55.156 112.528 42.562 175.496z" fill="#E6E9ED" /><path d="M342.478 337.472c-8.624 43.124-77.374 37-160.402 20.374-83-16.624-148.81-37.436-140.184-80.56 8.624-43.124 88.466-92.216 171.464-75.592s137.778 92.654 129.122 135.778z" fill="#FC6E51" /><path d="M213.356 201.694c-18.812-3.75-37.436-4.156-55.124-2 4.156 0.5 8.312 1.156 12.468 2 82.998 16.624 137.748 92.654 129.122 135.778-3.876 19.406-19.938 28.842-44 31.842 47.092 4.032 80.78-2.5 86.654-31.842 8.658-43.124-46.122-119.152-129.12-135.778z" fill="#FFFFFF" opacity=".1" /><path d="M683.034 375.222c61.686 45.656 41.312 82.498 10.688 123.874-30.624 41.374-59.876 71.624-121.592 25.968-61.686-45.656-132.434-149.934-101.81-191.308 30.624-41.376 151.026-4.19 212.714 41.466z" fill="#CCD1D9" /><path d="M602.44 199.132c42.25 31.25-0.5 104.06-62.122 187.308-61.592 83.248-118.748 145.404-160.998 114.124-42.25-31.25-53.592-144.124 8.032-227.34 61.624-83.248 172.84-105.374 215.088-74.092z" fill="#965353" /><path d="M602.44 199.132c-16.28-12.062-42.842-16.188-72.872-11.906 11.968 2.062 22.31 6.032 30.216 11.906 42.248 31.25-0.532 104.06-62.122 187.308-41.062 55.466-80.124 101.56-114.124 116.904 41.78 24.374 97.186-36.406 156.778-116.904 61.624-83.248 104.374-156.058 62.124-187.308z" fill="#FFFFFF" opacity=".1" /><path d="M806.686 473.97c-33.998 79.874-73.31 69.936-118.746 50.562-45.438-19.342-79.844-40.812-45.812-120.654 34.032-79.874 123.592-187.934 169.028-168.56 45.436 19.344 29.56 158.778-4.47 238.652z" fill="#E6E9ED" /><path d="M964.494 332.722c-23.28 54.686-101.372 32.436-192.806-6.5-91.436-38.968-161.592-79.842-138.28-134.53 23.282-54.686 131.216-102.466 222.652-63.53 91.436 38.938 131.746 149.874 108.434 204.56z" fill="#ED5564" /><path d="M856.06 128.166c-30.344-12.938-62.532-16.282-92.81-13.032 16.842 1.876 33.748 6.062 50.154 13.032 91.406 38.936 131.716 149.872 108.436 204.558-7.342 17.25-20.154 26.842-37.092 30.686 38.31 6.032 67.092-0.968 79.746-30.686 23.312-54.688-16.998-165.624-108.434-204.558z" fill="#FFFFFF" opacity=".2" /><path d="M982.87 895.992c0 70.688-57.31 127.996-127.996 127.996H172.232c-70.686 0-127.998-57.308-127.998-127.996V384.002h938.634v511.99z" fill="#FFCE54" /><path d="M905.748 924.054l77.122-77.124v-87.122l-77.122-77.124 77.122-77.122v-87.124L939.434 475l-30.154 30.188L966.088 562l-90.496 90.496L785.06 562l55.624-55.624-30.188-30.156-55.592 55.592-56.06-56.062-30.188 30.188L724.72 562l-90.5 90.496L543.724 562l56.528-56.53-30.186-30.156-56.528 56.5-55.594-55.592-30.156 30.156L483.382 562l-90.498 90.496L302.354 562l55.624-55.624-30.188-30.156-55.59 55.592-56.25-56.218-30.156 30.156L242.012 562l-90.498 90.496L61.016 562l56.53-56.53-30.186-30.156-43.124 43.124v87.124l77.124 77.122-77.124 77.124v87.122l77.124 77.124-50.342 50.312c8.782 11.312 19.376 21.124 31.406 28.934l49.092-49.122 69.812 69.808h101.748l69.812-69.778 69.78 69.778h101.748l69.81-69.808 69.812 69.808h101.746l69.812-69.808 49.092 49.122a128.658 128.658 0 0 0 31.406-28.934l-50.346-50.312z m-150.842-331.866l90.498 90.496-90.498 90.5-90.498-90.5 90.498-90.496z m-241.368 0l90.526 90.496-90.526 90.5-90.5-90.5 90.5-90.496z m-241.338 0l90.498 90.496-90.498 90.5-90.498-90.5 90.498-90.496z m-120.686 301.68l-90.498-90.496 90.498-90.5 90.498 90.5-90.498 90.496z m120.686 120.682l-90.498-90.496 90.498-90.532 90.498 90.532-90.498 90.496z m30.154-211.178l90.53-90.5 90.498 90.5-90.498 90.496-90.53-90.496z m211.184 211.178l-90.5-90.496 90.5-90.532 90.526 90.532-90.526 90.496z m30.186-211.178l90.496-90.5 90.5 90.5-90.5 90.496-90.496-90.496z m211.182 211.178l-90.498-90.496 90.498-90.532 90.498 90.532-90.498 90.496z m30.154-211.178l90.532-90.532 90.496 90.532-90.496 90.496-90.532-90.496z" fill="#F6BB42" /><path d="M44.236 469.344h938.634V512H44.236zM127.89 405.346c11.78 0 21.342-9.562 21.342-21.344H106.546c0 11.782 9.562 21.344 21.344 21.344zM213.576 405.346c11.782 0 21.342-9.562 21.342-21.344H192.262c0 11.782 9.532 21.344 21.314 21.344zM299.292 405.346c11.782 0 21.342-9.562 21.342-21.344h-42.686c0 11.782 9.562 21.344 21.344 21.344zM385.008 405.346c11.782 0 21.312-9.562 21.312-21.344h-42.656c0.002 11.782 9.564 21.344 21.344 21.344zM470.694 405.346c11.782 0 21.344-9.562 21.344-21.344h-42.686c0 11.782 9.562 21.344 21.342 21.344zM556.41 405.346c11.782 0 21.312-9.562 21.312-21.344h-42.654c0 11.782 9.562 21.344 21.342 21.344zM642.096 405.346c11.782 0 21.344-9.562 21.344-21.344h-42.656c0 11.782 9.53 21.344 21.312 21.344zM727.814 405.346c11.78 0 21.31-9.562 21.31-21.344h-42.654c0 11.782 9.564 21.344 21.344 21.344zM813.498 405.346c11.782 0 21.344-9.562 21.344-21.344h-42.656c0 11.782 9.53 21.344 21.312 21.344zM899.216 405.346c11.782 0 21.31-9.562 21.31-21.344h-42.654c0.002 11.782 9.564 21.344 21.344 21.344z" fill="#F6BB42" /></svg>