<?xml version="1.0" standalone="no"?><!DOCTYPE svg PUBLIC "-//W3C//DTD SVG 1.1//EN" "http://www.w3.org/Graphics/SVG/1.1/DTD/svg11.dtd"><svg class="icon" width="128px" height="128.00px" viewBox="0 0 1024 1024" version="1.1" xmlns="http://www.w3.org/2000/svg"><path d="M915.176 300.826c-116.622-116.638-305.71-116.638-422.364 0-116.622 116.638-116.622 305.744 0 422.366 116.652 116.622 305.742 116.622 422.364 0 116.656-116.624 116.656-305.73 0-422.366zM734.18 542.18c-16.684 16.638-43.684 16.638-60.34 0-16.656-16.656-16.656-43.688 0-60.344s43.656-16.656 60.34 0c16.656 16.656 16.656 43.688 0 60.344z" fill="#E6E9ED" /><path d="M1002.644 490.68H740.96c9.438 16.312 7.156 37.532-6.782 51.5a42.024 42.024 0 0 1-19.122 11.016l185.054 185.088 30.156-30.154 72.376-174.792V490.68z" fill="#F5F7FA" /><path d="M703.996 576.006c-17.094 0-33.156-6.656-45.25-18.75-12.094-12.06-18.75-28.154-18.75-45.248s6.656-33.172 18.75-45.25c12.094-12.092 28.156-18.75 45.25-18.75s33.184 6.656 45.246 18.75c12.094 12.078 18.75 28.156 18.75 45.25s-6.656 33.188-18.75 45.248c-12.062 12.094-28.152 18.75-45.246 18.75z m0-85.326a21.1 21.1 0 0 0-15.062 6.25c-4.032 4.016-6.25 9.376-6.25 15.078s2.218 11.046 6.25 15.078c4 4.032 9.376 6.25 15.062 6.25 5.718 0 11.062-2.218 15.094-6.25s6.25-9.376 6.25-15.078-2.218-11.046-6.25-15.078-9.376-6.25-15.094-6.25z" fill="#CCD1D9" /><path d="M703.996 832c-85.468 0-165.808-33.282-226.246-93.716-60.468-60.466-93.748-140.808-93.748-226.276s33.28-165.824 93.748-226.26c60.436-60.452 140.776-93.732 226.246-93.732 85.496 0 165.84 33.28 226.274 93.732 60.438 60.436 93.718 140.792 93.718 226.26s-33.282 165.808-93.718 226.276C869.836 798.718 789.492 832 703.996 832z m0-597.314c-74.062 0-143.714 28.842-196.09 81.216-108.122 108.138-108.122 284.072 0 392.226 52.376 52.374 122.028 81.184 196.09 81.184 74.09 0 143.714-28.81 196.118-81.184 108.124-108.154 108.124-284.088 0-392.226-52.404-52.372-122.028-81.216-196.118-81.216z m0 341.32c-17.094 0-33.156-6.656-45.25-18.75-12.094-12.06-18.75-28.154-18.75-45.248s6.656-33.172 18.75-45.25c12.094-12.092 28.156-18.75 45.25-18.75s33.184 6.656 45.246 18.75c12.094 12.078 18.75 28.156 18.75 45.25s-6.656 33.188-18.75 45.248c-12.062 12.094-28.152 18.75-45.246 18.75z m0-85.326a21.1 21.1 0 0 0-15.062 6.25c-4.032 4.016-6.25 9.376-6.25 15.078s2.218 11.062 6.25 15.078c4 4.032 9.376 6.25 15.062 6.25 5.718 0 11.062-2.218 15.094-6.25 4.032-4.016 6.25-9.376 6.25-15.078s-2.218-11.062-6.25-15.078a21.176 21.176 0 0 0-15.094-6.25z" fill="#CCD1D9" /><path d="M661.34 170.688H21.356c-11.78 0-21.342 9.546-21.342 21.328V832c0 11.782 9.562 21.312 21.342 21.312H661.34c11.782 0 21.344-9.532 21.344-21.312V192.016c0-11.782-9.562-21.328-21.344-21.328z" fill="#AC92EB" /><path d="M106.698 170.688H21.356c-11.78 0-21.342 9.546-21.342 21.328V832c0 11.782 9.562 21.312 21.342 21.312h85.342V170.688z" fill="#656D78" /><path d="M362.036 459.166h42.686v180.838h-42.686z" fill="#CCD1D9" /><path d="M522.218 408.494l-129.278-64.888a21.3 21.3 0 0 0-20.75 0.922 21.304 21.304 0 0 0-10.156 18.156v129.324c0 7.39 3.844 14.25 10.124 18.14a21.206 21.206 0 0 0 11.218 3.188c3.25 0 6.5-0.734 9.5-2.234l129.278-64.452a21.244 21.244 0 0 0 11.812-19.062 21.28 21.28 0 0 0-11.748-19.094zM319.38 554.696c-47.062 0-85.342 38.248-85.342 85.308 0 47.062 38.28 85.31 85.342 85.31s85.342-38.248 85.342-85.31c0-47.06-38.28-85.308-85.342-85.308z" fill="#E6E9ED" /><path d="M21.356 277.342c11.782 0 21.344-9.546 21.344-21.328s-9.562-21.328-21.344-21.328H0.012v42.656h21.344zM21.356 362.684c11.782 0 21.344-9.562 21.344-21.344s-9.562-21.328-21.344-21.328H0.012v42.67h21.344zM21.356 448.01c11.782 0 21.344-9.546 21.344-21.328s-9.562-21.344-21.344-21.344H0.012v42.672h21.344zM21.356 533.336c11.782 0 21.344-9.546 21.344-21.328s-9.562-21.328-21.344-21.328H0.012v42.656h21.344zM21.356 618.692c11.782 0 21.344-9.56 21.344-21.374 0-11.75-9.562-21.312-21.344-21.312H0.012v42.686h21.344zM21.356 704.004c11.782 0 21.344-9.562 21.344-21.312 0-11.812-9.562-21.376-21.344-21.376H0.012v42.688h21.344zM21.356 789.312c11.782 0 21.344-9.532 21.344-21.312 0-11.78-9.562-21.31-21.344-21.31H0.012v42.624h21.344z" fill="#434A54" /></svg>