<?xml version="1.0" standalone="no"?><!DOCTYPE svg PUBLIC "-//W3C//DTD SVG 1.1//EN" "http://www.w3.org/Graphics/SVG/1.1/DTD/svg11.dtd"><svg class="icon" width="128px" height="128.00px" viewBox="0 0 1024 1024" version="1.1" xmlns="http://www.w3.org/2000/svg"><path d="M512.008 1023.958c-11.812 0-21.344-9.532-21.344-21.312V21.324c0-11.782 9.532-21.312 21.344-21.312a21.296 21.296 0 0 1 21.31 21.312v981.32a21.298 21.298 0 0 1-21.31 21.314z" fill="#434A54" /><path d="M256.014 1023.988a21.256 21.256 0 0 1-17.75-9.532c-6.562-9.782-3.906-23.032 5.906-29.562l255.994-170.684c9.812-6.532 23.032-3.876 29.594 5.938 6.53 9.782 3.874 23.032-5.938 29.562l-255.994 170.684a21.366 21.366 0 0 1-11.812 3.594z" fill="#656D78" /><path d="M767.984 1023.988c-4.062 0-8.188-1.188-11.812-3.594l-256.008-170.684c-9.812-6.532-12.468-19.782-5.906-29.562a21.308 21.308 0 0 1 29.562-5.938l255.976 170.684c9.812 6.532 12.5 19.782 5.938 29.562a21.294 21.294 0 0 1-17.75 9.532z" fill="#656D78" /><path d="M767.984 426.658H256.014c-11.812 0-21.344-9.562-21.344-21.344V106.666c0-11.782 9.532-21.344 21.344-21.344h511.97c11.75 0 21.312 9.562 21.312 21.344v298.648c0 11.782-9.562 21.344-21.312 21.344z" fill="#ED5564" /><path d="M703.986 21.324c-2 0-49.748 0.062-98.374 5.468-33.876 3.782-70.982 9.968-93.606 24.344-22.656-14.376-59.748-20.562-93.654-24.344-48.624-5.406-96.342-5.468-98.342-5.468-11.812 0-21.344 9.562-21.344 21.344v298.648c0 11.782 9.532 21.344 21.312 21.344 0.406 0 40.218 0.062 82.53 4.062 67.31 6.376 84.686 17.092 88.342 20.154 0.032 0.282 0.094 0.532 0.156 0.812 0.032 0.282 0.094 0.562 0.156 0.844 0.094 0.406 0.188 0.782 0.282 1.188 0.094 0.25 0.156 0.5 0.218 0.782l0.468 1.218c0.094 0.218 0.156 0.438 0.25 0.656 0.25 0.562 0.532 1.156 0.812 1.718 0.032 0.032 0.062 0.094 0.094 0.156 0.312 0.532 0.624 1.062 0.968 1.594 0.124 0.188 0.282 0.376 0.406 0.562 0.25 0.344 0.5 0.688 0.782 1 0.156 0.218 0.344 0.406 0.5 0.624a18.8 18.8 0 0 1 0.782 0.844c0.218 0.218 0.406 0.406 0.624 0.594 0.282 0.25 0.532 0.5 0.844 0.75l0.656 0.562c0.282 0.218 0.594 0.438 0.906 0.656 0.218 0.156 0.468 0.312 0.718 0.468 0.312 0.218 0.624 0.406 0.938 0.594 0.25 0.124 0.5 0.282 0.782 0.406 0.312 0.188 0.656 0.344 1 0.5 0.25 0.124 0.532 0.25 0.812 0.344 0.344 0.156 0.718 0.282 1.062 0.406 0.282 0.094 0.532 0.188 0.812 0.25 0.406 0.124 0.782 0.218 1.188 0.312 0.25 0.062 0.532 0.124 0.782 0.188 0.438 0.094 0.906 0.156 1.376 0.218l0.656 0.094a24.338 24.338 0 0 0 4.218 0l0.656-0.094c0.468-0.062 0.938-0.124 1.376-0.218 0.25-0.062 0.532-0.124 0.782-0.188 0.406-0.094 0.782-0.188 1.188-0.312 0.282-0.062 0.532-0.156 0.812-0.25 0.344-0.124 0.718-0.25 1.062-0.406 0.282-0.094 0.562-0.218 0.812-0.344 0.344-0.156 0.688-0.312 1-0.5 0.282-0.124 0.532-0.282 0.782-0.406 0.312-0.188 0.624-0.376 0.938-0.594 0.25-0.156 0.5-0.312 0.718-0.468 0.312-0.218 0.624-0.438 0.906-0.656l0.656-0.562c0.312-0.25 0.562-0.5 0.844-0.75 0.218-0.188 0.406-0.376 0.624-0.594a18.8 18.8 0 0 1 0.782-0.844c0.156-0.218 0.344-0.406 0.5-0.624 0.282-0.312 0.532-0.656 0.782-1 0.124-0.188 0.282-0.376 0.406-0.562 0.344-0.532 0.656-1.062 0.968-1.594 0.032-0.062 0.062-0.124 0.094-0.156 0.282-0.562 0.562-1.156 0.812-1.718 0.092-0.218 0.154-0.438 0.248-0.656l0.468-1.218a5.58 5.58 0 0 1 0.218-0.782c0.094-0.406 0.218-0.782 0.282-1.188 0.062-0.282 0.124-0.562 0.156-0.844 0.062-0.282 0.124-0.532 0.156-0.812 3.656-3.062 21.046-13.78 88.358-20.154 42.312-4 82.124-4.062 82.498-4.062 11.75 0 21.312-9.562 21.312-21.344V42.668c0.004-11.782-9.558-21.344-21.308-21.344z" fill="#E6E9ED" /><path d="M533.318 41.106c-7.936 2.812-15.154 6.124-21.31 10.032-6.188-3.906-13.406-7.218-21.344-10.032V386.72c0.062 0.062 0.124 0.124 0.188 0.156 0.032 0.282 0.094 0.532 0.156 0.812 0.032 0.282 0.094 0.562 0.156 0.844 0.094 0.406 0.188 0.782 0.282 1.188 0.094 0.25 0.156 0.5 0.218 0.782l0.468 1.218c0.094 0.218 0.156 0.438 0.25 0.656 0.25 0.562 0.532 1.156 0.812 1.718 0.032 0.032 0.062 0.094 0.094 0.156 0.312 0.532 0.624 1.062 0.968 1.594 0.124 0.188 0.282 0.376 0.406 0.562 0.25 0.344 0.5 0.688 0.782 1 0.156 0.218 0.344 0.406 0.5 0.624a18.8 18.8 0 0 1 0.782 0.844c0.218 0.218 0.406 0.406 0.624 0.594 0.282 0.25 0.532 0.5 0.844 0.75l0.656 0.562c0.282 0.218 0.594 0.438 0.906 0.656 0.218 0.156 0.468 0.312 0.718 0.468 0.312 0.218 0.624 0.406 0.938 0.594 0.25 0.124 0.5 0.282 0.782 0.406 0.312 0.188 0.656 0.344 1 0.5 0.25 0.124 0.532 0.25 0.812 0.344 0.344 0.156 0.718 0.282 1.062 0.406 0.282 0.094 0.532 0.188 0.812 0.25 0.406 0.124 0.782 0.218 1.188 0.312 0.25 0.062 0.532 0.124 0.782 0.188 0.438 0.094 0.906 0.156 1.376 0.218l0.656 0.094a24.338 24.338 0 0 0 4.218 0l0.656-0.094c0.468-0.062 0.938-0.124 1.376-0.218 0.25-0.062 0.532-0.124 0.782-0.188 0.406-0.094 0.782-0.188 1.188-0.312 0.282-0.062 0.532-0.156 0.812-0.25 0.344-0.124 0.718-0.25 1.062-0.406 0.282-0.094 0.562-0.218 0.812-0.344 0.344-0.156 0.688-0.312 1-0.5 0.282-0.124 0.532-0.282 0.782-0.406 0.312-0.188 0.624-0.376 0.938-0.594 0.25-0.156 0.5-0.312 0.718-0.468 0.312-0.218 0.624-0.438 0.906-0.656l0.656-0.562c0.312-0.25 0.562-0.5 0.844-0.75 0.218-0.188 0.406-0.376 0.624-0.594a18.8 18.8 0 0 1 0.782-0.844c0.156-0.218 0.344-0.406 0.5-0.624 0.282-0.312 0.532-0.656 0.782-1 0.124-0.188 0.282-0.376 0.406-0.562 0.344-0.532 0.656-1.062 0.968-1.594 0.032-0.062 0.062-0.124 0.094-0.156 0.282-0.562 0.562-1.156 0.812-1.718 0.092-0.218 0.154-0.438 0.248-0.656l0.468-1.218a5.58 5.58 0 0 1 0.218-0.782c0.094-0.406 0.218-0.782 0.282-1.188 0.062-0.282 0.124-0.562 0.156-0.844 0.062-0.282 0.124-0.532 0.156-0.812 0.062-0.032 0.124-0.094 0.188-0.156V41.106z" fill="#CCD1D9" /><path d="M789.296 426.658H234.67c-11.782 0-21.342-9.562-21.342-21.344s9.56-21.344 21.342-21.344h554.626c11.812 0 21.376 9.562 21.376 21.344s-9.562 21.344-21.376 21.344z" fill="#656D78" /></svg>