<?xml version="1.0" standalone="no"?><!DOCTYPE svg PUBLIC "-//W3C//DTD SVG 1.1//EN" "http://www.w3.org/Graphics/SVG/1.1/DTD/svg11.dtd"><svg class="icon" width="128px" height="128.00px" viewBox="0 0 1024 1024" version="1.1" xmlns="http://www.w3.org/2000/svg"><path d="M920.418 836.734l-3.624-1.062c-52.936-14.188-70.872-27.876-94.434-36.812-83.562-31.876-105.31-54.81-110.874-65.686-0.218-0.376-0.376-0.812-0.562-1.188l-0.688-97.124-198.244-2.25-198.262 2.25-0.688 97.124c-0.172 0.376-0.328 0.812-0.532 1.188-5.562 10.876-27.31 33.81-110.902 65.686-23.562 8.938-41.468 22.624-94.404 36.812l-3.624 1.062c-48.186 15.938-80.624 60.624-80.624 111.058v76.188h978.086v-76.188c0-50.434-32.436-95.12-80.624-111.058z" fill="#5D9CEC" /><path d="M692.392 1021.292c-7.248 0-14.342-3.688-18.31-10.312-0.876-1.5-21.406-36.25-22.968-88.376-1.468-47.372 12.812-119.122 89.058-191.87 44.688-42.686 68.624-94.498 71.124-153.996 1.938-45.264-9.876-78.42-10-78.732-4-11.062 1.656-23.312 12.688-27.344a21.288 21.288 0 0 1 27.344 12.594c0.594 1.624 14.56 40.062 12.686 93.294-1.718 49.31-17.78 121.436-84.404 184.996-52.06 49.748-77.592 103.498-75.874 159.744 1.25 40.5 16.75 67.438 16.938 67.688 6.062 10.124 2.75 23.25-7.312 29.312a21.24 21.24 0 0 1-10.97 3.002z" fill="#434A54" /><path d="M815.016 281.014c-0.094-0.562-11.376-61.186-54.624-120.53-24.968-34.248-55.654-61.498-91.246-80.966-44.688-24.436-97.532-36.842-157.152-36.842-59.952 0-112.764 12.532-156.95 37.28-35.094 19.624-65.06 47.094-89.06 81.56-41.25 59.25-50.576 118.404-50.654 118.998l-42.188-6.376c0.422-2.812 10.954-69.686 57.826-136.996 27.734-39.844 62.468-71.594 103.232-94.436C384.838 14.364 444.65 0.02 511.992 0.02c67.308 0 127.402 14.344 178.682 42.656 41.216 22.748 76.624 54.436 105.28 94.186 48.438 67.186 60.592 133.964 61.092 136.778l-42.03 7.374z" fill="#CCD1D9" /><path d="M787.11 447.01c0 178.728-170.434 343.224-275.118 343.224-104.702 0-275.104-164.496-275.104-343.224 0-178.746 123.17-296.682 275.104-296.682s275.118 117.936 275.118 296.682z" fill="#EAC6BB" /><path d="M682.176 120.83c-46.782-42.376-209.308-103.248-360.04 0-118.872 81.436-85.53 286.742-85.53 286.742s134.638 39.438 313.32-62.624c115.498-65.998 155.746 1.124 176.434 59.56 20.124 56.874 60.748 42.5 60.748 42.5s44.752-190.62-104.932-326.178z" fill="#965353" /><path d="M630.55 317.7c16.312-0.5 30.032 3.062 41.624 9.5 22.186-80.498 65.872-102.186 84.934-107.872a325.3 325.3 0 0 0-21.812-37.438c-31.184 12.25-80.496 45.624-104.746 135.81z" fill="#7F4242" /><path d="M878.702 255.982H793.36c-11.782 0-21.312 9.562-21.312 21.344v213.338a21.3 21.3 0 0 0 21.312 21.312h85.342c11.78 0 21.342-9.532 21.342-21.312V277.326c-0.002-11.782-9.564-21.344-21.342-21.344z" fill="#656D78" /><path d="M793.36 362.668c11.812 0 21.344-9.562 21.344-21.344s-9.532-21.344-21.344-21.344h-21.312v42.688h21.312zM793.36 447.978c11.812 0 21.344-9.532 21.344-21.312s-9.532-21.344-21.344-21.344h-21.312v42.656h21.312z" fill="#434A54" /><path d="M151.562 255.982h85.326c11.782 0 21.344 9.562 21.344 21.344v213.338c0 11.782-9.562 21.312-21.344 21.312H151.562c-11.782 0-21.326-9.532-21.326-21.312V277.326c0-11.782 9.546-21.344 21.326-21.344z" fill="#656D78" /><path d="M236.888 362.668c-11.782 0-21.326-9.562-21.326-21.344s9.544-21.344 21.326-21.344h21.344v42.688h-21.344zM236.888 447.978c-11.782 0-21.326-9.532-21.326-21.312s9.544-21.344 21.326-21.344h21.344v42.656h-21.344z" fill="#434A54" /></svg>