<?xml version="1.0" standalone="no"?><!DOCTYPE svg PUBLIC "-//W3C//DTD SVG 1.1//EN" "http://www.w3.org/Graphics/SVG/1.1/DTD/svg11.dtd"><svg class="icon" width="128px" height="128.00px" viewBox="0 0 1024 1024" version="1.1" xmlns="http://www.w3.org/2000/svg"><path d="M838.37 458.54c-11.688-9.844-25.75-16.656-40.968-20-4.844-13.562-13.406-25.906-25-35.718-11.656-9.844-25.782-16.688-40.966-20-4.844-13.562-13.406-25.936-25-35.718-11.656-9.876-25.748-16.686-40.936-20-4.876-13.562-13.438-25.938-25.032-35.718-11.656-9.876-25.75-16.688-40.968-20-4.844-13.562-13.376-25.936-25-35.75-17.032-14.374-39.216-22.312-62.498-22.312-23.312 0-45.5 7.938-62.53 22.312-11.594 9.812-20.156 22.186-25 35.75-15.218 3.312-29.282 10.124-40.968 20-11.594 9.782-20.124 22.156-25 35.718-15.188 3.312-29.312 10.124-40.936 20-11.624 9.782-20.188 22.156-25.032 35.718-15.186 3.312-29.28 10.156-40.968 20-11.562 9.812-20.124 22.156-25 35.718-15.188 3.344-29.282 10.156-40.938 20-18.842 15.906-29.624 38.562-29.624 62.156 0 23.61 10.782 46.232 29.624 62.108 17.032 14.438 39.218 22.376 62.5 22.376h527.708c23.282 0 45.468-7.938 62.532-22.376 18.812-15.876 29.624-38.498 29.624-62.108 0-23.594-10.812-46.25-29.624-62.156z" fill="#FB6D51" /><path d="M348.972 501.79l-297.9-129.374L116.226 728.3z" fill="#FECD57" /><path d="M257.942 348.386L178.694 636.616l335.93-134.984z" fill="#F5BA45" /><path d="M455.438 333.886l-179.84 268.166 390.338-23.312z" fill="#FECD57" /><path d="M586.186 366.384L348.972 578.616l378.524 72.998z" fill="#F5BA45" /><path d="M616.874 358.822l62 320.916 258.368-256.04z" fill="#FECD57" /><path d="M948.772 636.116l49.25-287.23-296.12 132.34z" fill="#F5BA45" /><path d="M895.992 810.674H128.008L0.01 512.008h1023.98z" fill="#ED5564" /><path d="M58.446 648.364l29.686-29.686-74.248-74.248zM88.132 618.678l85.344 85.31 85.342-85.31-85.342-85.358zM258.818 618.678l85.31 85.31 85.342-85.31-85.342-85.358zM429.47 618.678l85.342 85.31 85.312-85.31-85.312-85.358zM600.124 618.678l85.342 85.31 85.34-85.31-85.34-85.358zM770.806 618.678l85.314 85.31 85.34-85.31-85.34-85.358zM941.46 618.678l25.78 25.748 38.626-90.184zM109.632 767.864l18.376 42.81h109.466l21.344-21.376-85.342-85.31zM258.818 789.298l21.312 21.376h127.996l21.344-21.376-85.342-85.31zM429.47 789.298l21.344 21.376h127.996l21.314-21.376-85.312-85.31zM600.124 789.298l21.342 21.376h127.996l21.344-21.376-85.34-85.31zM916.024 763.864l-59.904-59.876-85.314 85.31 21.314 21.376h103.872z" fill="#E5E8EC" /><path d="M109.632 767.864l63.844-63.876-85.344-85.31-29.686 29.686zM173.476 703.988l85.342 85.31 85.31-85.31-85.31-85.31zM344.128 703.988l85.342 85.31 85.342-85.31-85.342-85.31zM514.812 703.988l85.312 85.31 85.342-85.31-85.342-85.31zM685.466 703.988l85.34 85.31 85.314-85.31-85.314-85.31zM967.24 644.426l-25.78-25.748-85.34 85.31 59.904 59.876zM7.26 528.914l6.624 15.516 74.248 74.248 85.344-85.358-21.344-21.312H24.134zM173.476 533.32l85.342 85.358 85.31-85.358-21.312-21.312H194.818zM344.128 533.32l85.342 85.358 85.342-85.358-21.344-21.312h-127.996zM514.812 533.32l85.312 85.358 85.342-85.358-21.342-21.312h-128zM685.466 533.32l85.34 85.358 85.314-85.358-21.314-21.312h-127.998z" fill="#ED5564" /><path d="M1005.458 512.008h-127.996L856.12 533.32l85.34 85.358 64.406-64.436 12.562-29.296z" fill="#ED5564" /><path d="M1022.584 512.008l-128.028 298.666h-42.624l127.964-298.666z" fill="#FFFFFF" opacity=".2" /></svg>