<?xml version="1.0" standalone="no"?><!DOCTYPE svg PUBLIC "-//W3C//DTD SVG 1.1//EN" "http://www.w3.org/Graphics/SVG/1.1/DTD/svg11.dtd"><svg class="icon" width="128px" height="128.00px" viewBox="0 0 1024 1024" version="1.1" xmlns="http://www.w3.org/2000/svg"><path d="M725.338 831.992c0-11.812-9.56-21.344-21.342-21.344H437.594a21.332 21.332 0 0 0-21.342 21.344c0 11.782 9.562 21.308 21.342 21.308h266.402c11.782 0 21.342-9.526 21.342-21.308zM597.342 256.008V85.326h127.996v170.682h-127.996z" fill="#CBD0D8" /><path d="M362.66 981.3v-64a21.3 21.3 0 0 0-21.312-21.312c-11.782 0-21.344 9.532-21.344 21.312v64c0 11.782 9.562 21.344 21.344 21.344 11.78 0 21.312-9.562 21.312-21.344zM533.344 511.968c0-4.656-1.532-9.374-4.688-13.312l-85.342-106.654c-7.344-9.218-20.78-10.688-29.968-3.344-9.218 7.376-10.688 20.782-3.344 30l85.342 106.654c7.344 9.188 20.782 10.688 29.968 3.344a21.32 21.32 0 0 0 8.032-16.688z" fill="#434A54" /><path d="M171.696 341.288l-1.032 0.032C76.574 341.32 0.012 264.758 0.012 170.668S76.574 0.014 170.666 0.014l469.332 22.312v296.68L171.696 341.288z" fill="#5D9CEC" /><path d="M234.664 917.3V277.32c0-11.782 9.562-21.312 21.344-21.312h277.336a21.298 21.298 0 0 1 21.312 21.312v127.996c0 11.782-9.532 21.342-21.312 21.342H448V917.3c0 11.782-9.562 21.344-21.342 21.344h-170.652c-11.78 0-21.342-9.562-21.342-21.344z" fill="#656D78" /><path d="M595.998 106.636c0-11.156-8.688-20.562-20-21.25L236.006 64.044c-11.75-0.75-21.874 8.188-22.624 19.938-0.75 11.75 8.188 21.906 19.968 22.656l339.992 21.312c11.75 0.75 21.876-8.188 22.624-19.936 0.032-0.472 0.032-0.908 0.032-1.378z" fill="#4A89DC" /><path d="M234.664 512h213.338v42.656H234.664zM234.664 639.996h213.338v42.656H234.664zM234.664 767.992h213.338v42.656H234.664z" fill="#434A54" /><path d="M1023.986 106.668c0-11.782-9.562-21.342-21.344-21.342h-85.31c-11.782 0-21.344 9.562-21.344 21.342s9.562 21.342 21.344 21.342h85.31c11.782 0 21.344-9.562 21.344-21.342z" fill="#FECD57" /><path d="M725.338 981.3c0-11.782-9.56-21.312-21.342-21.312h-64c-11.782 0-21.344 9.532-21.344 21.312s9.562 21.344 21.344 21.344h64c11.782 0 21.342-9.562 21.342-21.344z" fill="#656D78" /><path d="M0.014 170.666C0.014 76.576 76.574 0.014 170.666 0.014v341.304c-94.092 0-170.652-76.562-170.652-170.652z" fill="#4A89DC" /><path d="M682.652 1023.984V85.326h255.99v938.66H682.652z" fill="#E6E9ED" /><path d="M831.99 1023.984V192.008h-42.656v831.976h-42.684V192.008h-63.998V149.322h255.99v42.686h-63.996v831.976z" fill="#CBD0D8" /></svg>