<?xml version="1.0" standalone="no"?><!DOCTYPE svg PUBLIC "-//W3C//DTD SVG 1.1//EN" "http://www.w3.org/Graphics/SVG/1.1/DTD/svg11.dtd"><svg class="icon" width="128px" height="128.00px" viewBox="0 0 1024 1024" version="1.1" xmlns="http://www.w3.org/2000/svg"><path d="M986.496 37.502c-50-49.984-131.03-49.984-181.028 0L37.48 805.49c-49.968 49.964-49.968 131.028 0 180.996 50 50 131.03 50 181.028 0l767.988-767.972c50-49.984 50-131.03 0-181.012z" fill="#E6E9ED" /><path d="M930.902 178.436V135.766h92.812a127.988 127.988 0 0 0-4.594-42.672h-88.218V4.876A128.408 128.408 0 0 0 888.248 0.266v92.826h-42.686V10.362a127.986 127.986 0 0 0-40.094 27.14l-2.562 2.578v53.014h-42.656v-10.344l-53.032 53.016h10.344v42.67h-42.656v-10.36l-53.03 53.014h10.376v42.672h-42.686v-10.36l-53 53.03h10.344v42.656h-42.656v-10.344l-53.032 53.016h10.344v42.67h-42.654v-10.358l-53.032 53.014h10.376v42.672h-53.032l-42.654 42.672 95.686-0.032v42.688h-8.532v42.652h8.532v8.5h42.656v-8.5h42.654v95.688l42.688-42.656V647.74h53l42.656-42.652h-10.344V562.4h53.03l42.654-42.64h-10.344v-42.672h53l42.688-42.656h-95.688v-42.67h42.656v40.826h42.688v-40.826h53l42.654-42.672h-10.342v-42.656h53.03l42.654-42.67h-10.344v-42.672h53l2.594-2.578a127.404 127.404 0 0 0 27.124-40.078h-82.718zM461.566 605.088h-42.654V562.4h42.654v42.688z m0-85.328h-42.654v-42.672h42.654v42.672z m85.344 85.328h-42.656V562.4h42.656v42.688z m0-85.328h-42.656v-42.672h42.656v42.672z m0-85.328h-42.656v-42.67h42.656v42.67z m42.656-127.998h42.686v42.656h-42.686v-42.656z m42.686 213.326h-42.686v-42.672h42.686v42.672z m0-85.328h-42.686v-42.67h42.686v42.67z m85.31-85.342h-42.656v-42.656h42.656v42.656z m0-85.326h-42.656v-42.672h42.656v42.672z m85.344 85.326h-42.656v-42.656h42.656v42.656z m0-85.326h-42.656v-42.672h42.656v42.672z m0-85.328h-42.656V135.766h42.656v42.67z m85.342 85.328h-42.686v-42.672h42.686v42.672z m0-85.328h-42.686V135.766h42.686v42.67z" fill="#F5F7FA" /><path d="M309.008 533.962l-30.156 30.158 180.996 181.026 30.188-30.188z" fill="#4FC2E9" /></svg>