<?xml version="1.0" standalone="no"?><!DOCTYPE svg PUBLIC "-//W3C//DTD SVG 1.1//EN" "http://www.w3.org/Graphics/SVG/1.1/DTD/svg11.dtd"><svg class="icon" width="128px" height="128.00px" viewBox="0 0 1024 1024" version="1.1" xmlns="http://www.w3.org/2000/svg"><path d="M510.194 1023.838S781.3 692.002 744.936 479.708c-9.374-54.546-357.034 473.498-234.742 544.13z" fill="#8CC153" /><path d="M510.194 1023.838S268.018 820.088 275.172 606.716c2.64-78.522 357.296 346.49 235.022 417.122z" fill="#8CC153" /><path d="M488.434 277.394h42.66v746.444h-42.66z" fill="#A0D468" /><path d="M721.348 69.426C675.706 23.784 464.286 16.848 500.102 291.39 771.24 323.786 766.958 115.038 721.348 69.426z" fill="#D770AD" /><path d="M590.452 553.202c62.324-16.73 174.04-196.362-81.632-302.612-163.608 218.59 19.306 319.292 81.632 302.612z" fill="#D770AD" /><path d="M236.95 197.95c-16.698 62.324 83.006 248.892 302.862 80.6-107.518-250.986-286.166-142.926-302.862-80.6z" fill="#D770AD" /><path d="M433.56 1.948c-62.324 16.682-174.056 196.316 81.632 302.564C678.798 85.922 495.886-14.766 433.56 1.948z" fill="#EC87C0" /><path d="M787.046 357.152c16.712-62.294-82.974-248.892-302.846-80.6 107.532 250.986 286.166 142.954 302.846 80.6z" fill="#EC87C0" /><path d="M302.664 485.674c45.626 45.644 257.078 52.578 221.246-221.964-271.122-32.396-266.874 176.354-221.246 221.964z" fill="#EC87C0" /><path d="M509.772 362.994c-47.204 0-85.598-38.394-85.598-85.598s38.394-85.598 85.598-85.598c47.19 0 85.584 38.394 85.584 85.598s-38.396 85.598-85.584 85.598z" fill="#FFCE54" /><path d="M616.538 298.576c11.808 0 21.336-9.528 21.336-21.306s-9.528-21.336-21.336-21.336c-0.688 0-1.312 0.032-2 0.094a107.672 107.672 0 0 0-3.438-12.746c0.624-0.282 1.188-0.594 1.812-0.938 10.184-5.904 13.684-18.932 7.81-29.148-5.904-10.184-18.932-13.684-29.146-7.81-0.594 0.376-1.218 0.75-1.782 1.156a105.14 105.14 0 0 0-9.31-9.31c0.406-0.562 0.782-1.156 1.124-1.782 5.904-10.214 2.404-23.242-7.81-29.116-10.184-5.906-23.242-2.406-29.118 7.778a15.224 15.224 0 0 0-0.966 1.906c-4.138-1.376-8.374-2.562-12.73-3.436 0.078-0.688 0.11-1.376 0.11-2.094 0-11.778-9.544-21.336-21.322-21.336s-21.336 9.56-21.336 21.336c0 0.718 0.046 1.406 0.11 2.094-4.342 0.874-8.59 2.062-12.73 3.436a18.536 18.536 0 0 0-0.968-1.906c-5.888-10.184-18.932-13.684-29.132-7.81-10.2 5.904-13.698 18.932-7.81 29.146 0.36 0.624 0.75 1.218 1.156 1.782a107.25 107.25 0 0 0-9.326 9.31 28.946 28.946 0 0 0-1.78-1.156c-10.2-5.874-23.244-2.374-29.132 7.81-5.888 10.216-2.39 23.244 7.81 29.148 0.594 0.344 1.204 0.656 1.812 0.938a109.406 109.406 0 0 0-3.452 12.746 21.33 21.33 0 0 0-2-0.094c-11.778 0-21.322 9.56-21.322 21.336s9.544 21.306 21.322 21.306c0.656 0 1.312-0.032 1.952-0.094a105.966 105.966 0 0 0 3.42 12.808c-0.578 0.282-1.172 0.562-1.734 0.876-10.2 5.904-13.698 18.932-7.81 29.148 5.888 10.184 18.932 13.684 29.132 7.81 0.562-0.342 1.092-0.686 1.624-1.062a102.44 102.44 0 0 0 9.372 9.404c-0.374 0.532-0.718 1.062-1.046 1.592-5.888 10.216-2.39 23.244 7.81 29.148 10.2 5.874 23.244 2.376 29.132-7.81 0.312-0.532 0.594-1.094 0.844-1.656a104.492 104.492 0 0 0 12.84 3.468c-0.046 0.594-0.094 1.218-0.094 1.812 0 11.808 9.56 21.336 21.336 21.336s21.322-9.528 21.322-21.336c0-0.594-0.046-1.218-0.094-1.812a103.822 103.822 0 0 0 12.84-3.468c0.282 0.562 0.53 1.124 0.842 1.656 5.876 10.184 18.934 13.682 29.118 7.81 10.214-5.904 13.714-18.932 7.81-29.148a43.48 43.48 0 0 0-1-1.592 110.832 110.832 0 0 0 9.374-9.372c0.5 0.344 1.032 0.688 1.594 1.03 10.214 5.874 23.242 2.376 29.146-7.81 5.874-10.216 2.374-23.244-7.81-29.148-0.562-0.312-1.156-0.594-1.75-0.876a103.146 103.146 0 0 0 3.438-12.808c0.622 0.064 1.278 0.096 1.936 0.096z m-106.766 43.08c-35.442 0-64.262-28.804-64.262-64.262 0-35.426 28.82-64.262 64.262-64.262 35.41 0 64.278 28.834 64.278 64.262-0.002 35.458-28.868 64.262-64.278 64.262z" fill="#F6BB42" /><path d="M509.506 257.65c-11.792 0-21.336 9.528-21.336 21.306s9.544 21.338 21.336 21.338c11.778 0 21.322-9.56 21.322-21.338s-9.544-21.306-21.322-21.306z" fill="#F6BB42" /></svg>