<?xml version="1.0" standalone="no"?><!DOCTYPE svg PUBLIC "-//W3C//DTD SVG 1.1//EN" "http://www.w3.org/Graphics/SVG/1.1/DTD/svg11.dtd"><svg class="icon" width="128px" height="128.00px" viewBox="0 0 1024 1024" version="1.1" xmlns="http://www.w3.org/2000/svg"><path d="M320.188 469.344l-0.376 511.968c0 23.562 19.094 42.688 42.656 42.688h298.656c23.562 0 42.688-19.124 42.688-42.688l0.376-511.968h-384z" fill="#5D9CEC" /><path d="M703.812 938.656c0 23.594-19.124 42.656-42.688 42.656H362.468c-23.156 0-42-18.438-42.624-41.438l-0.032 41.438c0 23.562 19.094 42.688 42.656 42.688h298.656c23.562 0 42.688-19.124 42.688-42.688l0.376-511.968h-0.032l-0.344 469.312z" fill="#4A89DC" /><path d="M640.562 384h-256L458.468 0h106.656z" fill="#CCD1D9" /><path d="M640.562 384h-256l-64.374 85.344h384z" fill="#4A89DC" /><path d="M512.562 620.156c-6.376 5.094-87.344 73.718-85.282 145.782 0.594 52.624 38 86.376 85.282 87.376 47.282-1 84.688-34.75 85.312-87.376 2.032-72.062-78.906-140.688-85.312-145.782zM639.812 298.656h-256c-11.782 0-21.344 9.562-21.344 21.344s9.562 21.344 21.344 21.344h256c11.782 0 21.312-9.562 21.312-21.344s-9.53-21.344-21.312-21.344z" fill="#E6E9ED" /></svg>