<?xml version="1.0" standalone="no"?><!DOCTYPE svg PUBLIC "-//W3C//DTD SVG 1.1//EN" "http://www.w3.org/Graphics/SVG/1.1/DTD/svg11.dtd"><svg class="icon" width="128px" height="128.00px" viewBox="0 0 1024 1024" version="1.1" xmlns="http://www.w3.org/2000/svg"><path d="M192.00695 0.004c-47.06186 0-85.341747 38.279886-85.341747 85.341747v767.98172c0 11.781965 9.531972 21.343937 21.343937 21.343936h106.653683V0.004H192.00695z" fill="#656D78" /><path d="M192.00695 789.327657c-35.373895 0-63.99781 28.655915-63.99781 63.99981s28.623915 63.99781 63.99781 63.99781h703.98391v-127.99762H192.00695z" fill="#E6E9ED" /><path d="M917.302797 21.345937c0-11.779965-9.561972-21.341937-21.311937-21.341937H234.662823v810.667593H895.99086c11.749965 0 21.311937-9.561972 21.311937-21.343936V21.345937z" fill="#AC92EB" /><path d="M384.00238 874.671403h-170.683493c-11.749965 0-21.311937-9.561972-21.311937-21.343936s9.561972-21.341937 21.311937-21.341937h170.683493c11.781965 0 21.311937 9.559972 21.311937 21.341937s-9.529972 21.343937-21.311937 21.343936zM725.303367 831.98553c-11.749965 0-21.311937 9.559972-21.311937 21.341937s9.561972 21.343937 21.311937 21.343936h170.687493v-42.685873h-170.687493z" fill="#CCD1D9" /><path d="M128.00914 170.671493c11.779965 0 21.311937-9.545972 21.311937-21.327936 0-11.779965-9.531972-21.341937-21.311937-21.341937H106.667203v42.669873h21.341937zM128.00914 298.667113c11.779965 0 21.311937-9.545972 21.311937-21.327936s-9.531972-21.343937-21.311937-21.343937H106.667203v42.669873h21.341937zM128.00914 426.664733c11.779965 0 21.311937-9.545972 21.311937-21.327936s-9.531972-21.341937-21.311937-21.341937H106.667203v42.669873h21.341937zM128.00914 554.678353c11.779965 0 21.311937-9.561972 21.311937-21.357936 0-11.781965-9.531972-21.343937-21.311937-21.343937H106.667203v42.701873h21.341937zM128.00914 682.675973c11.779965 0 21.311937-9.561972 21.311937-21.343936s-9.531972-21.343937-21.311937-21.343937H106.667203v42.687873h21.341937z" fill="#434A54" /><path d="M917.302797 917.325277c0-11.779965-9.561972-21.341937-21.311937-21.341937H234.662823v42.685873h661.328037c11.749965 0 21.311937-9.561972 21.311937-21.343936z" fill="#AC92EB" /><path d="M234.662823 895.98334H192.00695c-23.52993 0-42.685873-19.123943-42.685873-42.655873 0-23.52993 19.155943-42.655873 42.685873-42.655874h42.655873v-42.687873H192.00695c-47.06186 0-85.341747 38.281886-85.341747 85.343747s38.279886 85.341747 85.341747 85.341746h42.655873v-42.685873z" fill="#656D78" /><path d="M362.660443 853.327467h-149.339556v149.339556c0 6.84398 3.31199 13.281961 8.875973 17.311949 5.561983 3.999988 12.717962 5.093985 19.217943 2.905991l57.24783-19.061943 57.24983 19.061943c2.217993 0.749998 4.467987 1.093997 6.74998 1.093997 4.405987 0 8.781974-1.375996 12.467963-3.999988a21.411936 21.411936 0 0 0 8.875974-17.311949v-149.339556H362.660443z" fill="#ED5564" /><path d="M703.99143 298.667113c0-82.481755-66.871801-149.339557-149.339557-149.339556-82.463755 0-149.337557 66.857802-149.337556 149.339556 0 50.733849 25.343925 95.559716 63.99981 122.543637v69.435793h170.681493v-69.435793c38.687885-26.98192 63.99581-71.809787 63.99581-122.543637z" fill="#E6E9ED" /><path d="M512 298.667113c0 11.781965-9.529972 21.327937-21.311937 21.327937s-21.341937-9.545972-21.341936-21.327937c0-11.779965 9.561972-21.341937 21.341936-21.341936S512 286.887148 512 298.667113zM638.463625 298.667113c0 11.781965-9.561972 21.327937-21.343937 21.327937s-21.311937-9.545972-21.311937-21.327937c0-11.779965 9.531972-21.341937 21.311937-21.341936s21.343937 9.561972 21.343937 21.341936z" fill="#434A54" /><path d="M917.302797 789.327657v-63.99781c-85.311747 0.032-85.311747 85.341747-85.311747 85.341746h63.99981c11.749965 0 21.311937-9.561972 21.311937-21.343936zM895.99086 0.004h-63.99981c0 85.311747 85.343747 85.311747 85.343747 85.311747v-63.99981c0-11.749965-9.561972-21.311937-21.343937-21.311937z" fill="#FFCE54" /><path d="M725.335367 618.676163H384.00238c-11.781965 0-21.311937-9.561972-21.311937-21.341936a21.299937 21.299937 0 0 1 21.311937-21.311937h341.332987c11.781965 0 21.343937 9.531972 21.343936 21.311937 0 11.779965-9.561972 21.341937-21.343936 21.341936zM639.99562 703.98591h-170.651493c-11.781965 0-21.343937-9.529972-21.343937-21.309937s9.561972-21.343937 21.343937-21.343936h170.651493c11.781965 0 21.343937 9.561972 21.343937 21.343936s-9.561972 21.309937-21.343937 21.309937z" fill="#434A54" /><path d="M543.999905 469.320607c0-11.779965-9.561972-21.325937-21.343937-21.325937s-21.343937 9.545972-21.343936 21.325937v21.327936H543.999905v-21.327936zM586.651778 447.99467c-11.781965 0-21.343937 9.545972-21.343936 21.325937v21.327936h42.687873v-21.327936c0-11.779965-9.561972-21.325937-21.343937-21.325937z" fill="#CCD1D9" /></svg>