<?xml version="1.0" standalone="no"?><!DOCTYPE svg PUBLIC "-//W3C//DTD SVG 1.1//EN" "http://www.w3.org/Graphics/SVG/1.1/DTD/svg11.dtd"><svg class="icon" width="128px" height="128.00px" viewBox="0 0 1024 1024" version="1.1" xmlns="http://www.w3.org/2000/svg"><path d="M651.806 0.018L150.574 191.526l307.49 321.38L791.49 363.6z" fill="#424953" /><path d="M834.146 451.548L735.18 247.46l-348.8 171.872 131.684 171.916-4.844 84.59s-65.06 42.966-104.84 106.81c-57.31 91.996-67.03 241.334-67.03 241.334h426.642c0-112.558-71.626-255.992-71.626-255.992l34.688-104.058s96.748-2.438 103.684-9.844c6.968-7.438 12.094-96.714 12.094-96.714l26.594-50.764-39.28-55.062z" fill="#EAC6BB" /><path d="M755.804 932.14c-39.56-17.154-147.464-68.372-182.088-130.402-29.876-53.496-92.216-65.81-126.964-68.372-13.438 14.376-26.938 30.966-38.374 49.282-57.31 91.996-67.03 241.334-67.03 241.334h426.642c0.002-29.56-4.936-61.184-12.186-91.842z" fill="#9ED36A" /><path d="M746.678 469.33c0 11.782-9.562 21.326-21.342 21.326s-21.344-9.544-21.344-21.326 9.564-21.344 21.344-21.344 21.342 9.562 21.342 21.344z" fill="#434A54" /><path d="M765.396 429.534c-6.718-4.326-46.59-27.232-96.214 3.048a21.328 21.328 0 1 0 11.124 39.544 21.2 21.2 0 0 0 11.06-3.126c28.344-17.282 48.5-5.188 50.688-3.766-0.188-0.126-0.312-0.204-0.312-0.204l0.032-0.032a21.152 21.152 0 0 0 12.282 3.906c11.782 0 21.342-9.546 21.342-21.328-0.002-7.606-4.002-14.262-10.002-18.042z" fill="#646C77" /><path d="M601.966 518.078c-21.344-11.532-31.968-22.032-37.25-29.966l-3.062-5.5a25.8 25.8 0 0 1-1.532-4.39c-1.594-6.5 0.344-11.25 2.282-14.078 6.594-9.766 4.032-23.032-5.718-29.626-9.75-6.61-23.03-4.046-29.626 5.718-9.562 14.11-12.53 31.204-8.376 48.14 6.22 25.388 27.408 47.996 63 67.246a21.09 21.09 0 0 0 10.124 2.562c7.596 0 14.938-4.062 18.782-11.188 5.596-10.37 1.75-23.308-8.624-28.918z" fill="#D3A99F" /><path d="M651.806 0.018L150.574 191.526l307.49 321.38L791.49 363.6z" fill="#424953" /><path d="M758.836 278.57c-50.188 18.266-187.15 77.452-162.028 172.212l194.682-87.184-32.654-85.028zM312.6 360.88l412.61-169.792-15.28-39.842-428.984 176.526z" fill="#F5BA45" /><path d="M652.776 0.33l-37.218 14.216 140.9 365.49 35.968-16.11z" fill="#FFFFFF" opacity=".2" /><path d="M615.558 635.714s61.092 60.78 102.872 66.124l12.626-37.906c-0.002 0-61.56 1-115.498-28.218z" fill="#D3A99F" /></svg>