<?xml version="1.0" standalone="no"?><!DOCTYPE svg PUBLIC "-//W3C//DTD SVG 1.1//EN" "http://www.w3.org/Graphics/SVG/1.1/DTD/svg11.dtd"><svg class="icon" width="128px" height="128.00px" viewBox="0 0 1024 1024" version="1.1" xmlns="http://www.w3.org/2000/svg"><path d="M490.122 33.004v969.674c0 11.75 9.562 21.312 21.344 21.312 11.764 0 21.328-9.562 21.328-21.312V33.004h-42.672z" fill="#3BAFDA" /><path d="M874.102 26.738v335.934c0 48.982-9.562 96.466-28.438 141.154-18.312 43.17-44.438 81.982-77.75 115.294-33.312 33.31-72.124 59.466-115.31 77.748-44.686 18.876-92.186 28.468-141.138 28.468-48.968 0-96.468-9.594-141.154-28.468-43.186-18.282-81.968-44.438-115.28-77.748-33.342-33.312-59.498-72.124-77.748-115.294-18.906-44.688-28.468-92.172-28.468-141.154V21.644H106.128v341.122c0.062 223.792 181.498 405.228 405.338 405.228 223.824 0 405.322-181.466 405.322-405.322V26.738h-42.686zM660.792 853.336H362.124c-11.782 0-21.312 9.532-21.312 21.344 0 11.75 9.53 21.312 21.312 21.312h298.666c11.812 0 21.312-9.562 21.312-21.312a21.284 21.284 0 0 0-21.31-21.344z" fill="#4FC1E9" /><path d="M1002.098 96.77L911.6 6.254c-8.31-8.328-21.81-8.328-30.186 0l-90.5 90.514c-8.312 8.328-8.312 21.842 0 30.17 8.376 8.328 21.876 8.328 30.188 0l75.438-75.42 75.434 75.42c8.312 8.328 21.812 8.328 30.124 0a21.254 21.254 0 0 0 0-30.168zM617.042 96.77l-90.5-90.514c-8.328-8.328-21.828-8.328-30.17 0l-90.5 90.514c-8.344 8.328-8.344 21.842 0 30.17 8.312 8.328 21.844 8.328 30.156 0l75.436-75.42 75.39 75.42c8.376 8.328 21.876 8.328 30.188 0a21.252 21.252 0 0 0 0-30.17zM233.064 96.77L142.564 6.254a21.36 21.36 0 0 0-30.186 0l-90.5 90.514c-8.344 8.328-8.344 21.842 0 30.17 8.312 8.328 21.844 8.328 30.156 0l75.436-75.42 75.406 75.42a21.36 21.36 0 0 0 30.186 0c8.314-8.326 8.314-21.84 0.002-30.168z" fill="#4FC1E9" /></svg>