<?xml version="1.0" standalone="no"?><!DOCTYPE svg PUBLIC "-//W3C//DTD SVG 1.1//EN" "http://www.w3.org/Graphics/SVG/1.1/DTD/svg11.dtd"><svg class="icon" width="128px" height="128.00px" viewBox="0 0 1024 1024" version="1.1" xmlns="http://www.w3.org/2000/svg"><path d="M448.09 810.786h127.85v213.058h-127.85z" fill="#A85D5D" /><path d="M767.726 356.844L512.446 63.528 256.336 356.844v496.552h511.39z" fill="#FFD2A6" /><path d="M589.594 78.274v-0.016L511.494 0.156 119.752 391.896l60.264 60.262L511.446 120.744l332.508 330.4 60.292-60.264z" fill="#EC5564" /><path d="M618.554 499.614c0 58.842-47.708 106.546-106.53 106.546-58.842 0-106.546-47.706-106.546-106.546s47.704-106.544 106.546-106.544c58.824-0.002 106.53 47.702 106.53 106.544z" fill="#424953" /><path d="M512.024 627.464c-70.494 0-127.852-57.358-127.852-127.852s57.358-127.852 127.852-127.852c70.51 0 127.834 57.358 127.834 127.852s-57.322 127.852-127.834 127.852z m0-213.09c-47.002 0-85.24 38.238-85.24 85.24s38.238 85.24 85.24 85.24c46.984 0 85.222-38.238 85.222-85.24s-38.238-85.24-85.222-85.24z" fill="#F4BE8E" /><path d="M533.328 704.254c0 11.746-9.542 21.306-21.304 21.306-11.778 0-21.322-9.56-21.322-21.306 0-11.778 9.544-21.304 21.322-21.304 11.762 0 21.304 9.526 21.304 21.304z" fill="#D94452" /><path d="M448.09 853.396h127.85v42.612h-127.85z" opacity=".1" /></svg>