<?xml version="1.0" standalone="no"?><!DOCTYPE svg PUBLIC "-//W3C//DTD SVG 1.1//EN" "http://www.w3.org/Graphics/SVG/1.1/DTD/svg11.dtd"><svg class="icon" width="128px" height="128.00px" viewBox="0 0 1024 1024" version="1.1" xmlns="http://www.w3.org/2000/svg"><path d="M725.178 512c0 117.72-95.426 213.146-213.178 213.146-117.72 0-213.146-95.426-213.146-213.146 0-117.736 95.426-213.162 213.146-213.162 117.752 0 213.178 95.426 213.178 213.162z" fill="#8CC153" /><path d="M298.854 512c0-116.596 93.616-211.318 209.774-213.13V0.4h-136.142v116.876a412.974 412.974 0 0 0-40.906 16.94l-82.654-82.638-197.314 197.33 82.624 82.624a424.84 424.84 0 0 0-16.956 40.938H0.4v279.046h116.876a424.122 424.122 0 0 0 16.956 40.938l-82.624 82.654 197.314 197.284 82.624-82.624c13.272 6.37 26.95 11.99 40.938 16.956V1023.6h136.142V725.146c-116.158-1.812-209.772-96.55-209.772-213.146z" fill="#A0D468" /><path d="M512 0.4c-7.12 0-14.238 0.156-21.294 0.438v1022.326c7.056 0.28 14.176 0.436 21.294 0.436 282.56 0 511.6-229.07 511.6-511.6C1023.6 229.456 794.56 0.4 512 0.4z" fill="#4FC2E9" /><path d="M512 0.4c-7.12 0-14.238 0.156-21.294 0.438v1022.326c7.056 0.28 14.176 0.436 21.294 0.436 282.56 0 511.6-229.07 511.6-511.6C1023.6 229.456 794.56 0.4 512 0.4z m417.862 724.746h-165.214c20.61-60.454 32.662-124.902 34.786-191.836h181.046c-2.468 55.816-14.644 109.93-36.316 161.234a480.128 480.128 0 0 1-14.302 30.602zM543.1 979.948c-3.246 0.218-6.494 0.406-9.774 0.562V767.8h168.62c-30.726 67.634-73.038 128.648-125.932 181.544a605.886 605.886 0 0 1-32.914 30.604z m-9.774-254.802v-191.836h223.452c-2.216 66.058-14.708 130.382-37.314 191.836h-186.138z m9.774-681.108a625.62 625.62 0 0 1 32.914 30.602c52.894 52.912 95.206 113.942 125.932 181.56h-168.62V43.506c3.28 0.14 6.528 0.328 9.774 0.532z m176.362 254.8c22.608 61.468 35.098 125.808 37.314 191.852H533.326v-191.852h186.136z m261.016 191.852h-181.046c-2.124-66.95-14.176-131.368-34.754-191.852h165.184a478.13 478.13 0 0 1 14.3 30.632c21.672 51.29 33.848 105.418 36.316 161.22zM843.616 180.384a468.774 468.774 0 0 1 61.546 75.814h-156.692C716.84 180.87 671.656 112.64 615.952 54.56a463.876 463.876 0 0 1 78.594 25.308c55.83 23.624 106.01 57.44 149.07 100.516z m0 663.232c-43.058 43.092-93.238 76.878-149.07 100.516a463.876 463.876 0 0 1-78.594 25.324c55.674-58.08 100.858-126.338 132.52-201.654h156.692a470.368 470.368 0 0 1-61.548 75.814z" fill="#3BAFDA" /></svg>