<?xml version="1.0" standalone="no"?><!DOCTYPE svg PUBLIC "-//W3C//DTD SVG 1.1//EN" "http://www.w3.org/Graphics/SVG/1.1/DTD/svg11.dtd"><svg class="icon" width="128px" height="128.00px" viewBox="0 0 1024 1024" version="1.1" xmlns="http://www.w3.org/2000/svg"><path d="M896.00002 469.308c0 247.438-200.562 448-448 448-247.422 0-448-200.562-448-448C0.00002 221.902 200.57802 21.34 448.00002 21.34c247.438 0 448 200.562 448 447.968z" fill="#5D9CEC" /><path d="M811.93802 426.34c-91.25 6.938-120.5-46.532-108.5-62.844 20.812-28.344 119.782 40.438 126.344-10.532 1.094-8.406 20.968-29.562 39.75-35.656-43.908-121.656-138.908-218.844-259.156-265.624-3.406 11.282-6.344 19.906-8.062 20.75-69.578 33.844-151.782 49.532-201.11 114.562-6.922 9.124-16.078 26.376-6.172 37.25 12.25 13.5 44.968-0.376 61.078 0.782 44.672 3.218 170.704 32.562 174.766 52.968 4.124 20.438-47.812 59.032-98.546 31.032-14.938-8.218-74.61-18.468-94.89-22.124-14.156-2.562-136.5 12.812-131.046 158.218 2.218 58.968 39.094 96.938 98.594 97.624 49.328 0.562 99.266-5.218 115.422 53.188 13.688 49.5 8.484 100.75 20.688 150 4.906 19.812 15.344 47.624 40.468 49.812 38.062 3.25 63.688-22.312 86.562-48.906 18.218-21.188 41.25-39.594 54.844-64.406 21.562-39.376 15.656-86.25 38.438-125.688 18.372-31.844 79.34-132.594 50.528-130.406zM143.76602 556.59c-14.032-20.376-30.094-40.124-44.516-60.218-13.438-18.718-65.89-103.906-90.204-117A450.2 450.2 0 0 0 0.00002 469.308c0 109.062 38.968 208.968 103.718 286.656 1.656 2 40.578-26.906 44.016-29.812 14.36-12.218 26.406-27.124 31.782-45.438 12.562-42.718-12.126-89.78-35.75-124.124z" fill="#A0D468" /><path d="M1024.00002 445.372l-0.124-2.156c0-6.844-5.562-12.438-12.344-12.468-56.282-2.124-197.468-16.812-299.062-107.344l-2.032-1.124 0.062-0.376a12.734 12.734 0 0 0-6.562-1.906c-2.938 0.032-5.938 1.218-8.25 3.282-101.688 90.654-242.938 105.342-298.922 107.466-7.078 0.032-12.594 5.624-12.64 12.468l-0.126 3.188c9.312 255.468 167.562 453.624 313 554.124 4.188 2.844 9.812 2.844 13.968 0l2-1.344c145.094-101.06 302.22-299.03 311.032-553.81z" fill="#FFCE54" /><path d="M725.56202 511.996c0-11.782-9.562-21.344-21.344-21.344s-21.344 9.562-21.344 21.344v298.656c0 11.782 9.562 21.344 21.344 21.344s21.344-9.562 21.344-21.344V511.996z" fill="#F6BB42" /></svg>