<?xml version="1.0" standalone="no"?><!DOCTYPE svg PUBLIC "-//W3C//DTD SVG 1.1//EN" "http://www.w3.org/Graphics/SVG/1.1/DTD/svg11.dtd"><svg class="icon" width="128px" height="128.00px" viewBox="0 0 1024 1024" version="1.1" xmlns="http://www.w3.org/2000/svg"><path d="M612.716 42.82c-22.75 0-43.312 9.344-58.062 24.374-14.75-15.03-35.28-24.374-58.028-24.374-44.906 0-81.278 36.374-81.278 81.248 0 92.904 139.306 174.15 139.306 174.15s139.34-81.248 139.34-174.15c0-44.874-36.406-81.248-81.278-81.248z" fill="#ED5564" /><path d="M612.716 42.82c-7.376 0-14.532 1-21.344 2.844 34.53 9.376 59.966 40.904 59.966 78.404 0 69.934-78.966 133.276-117.996 160.308 12.81 8.874 21.31 13.842 21.31 13.842s139.34-81.248 139.34-174.15c0.002-44.874-36.404-81.248-81.276-81.248z" fill="#FFFFFF" opacity=".2" /><path d="M759.242 405.184c-247.586 0-210.556 363.004-210.556 363.004s35.406 42.308 211.37 42.308c175.994 0 211.65-42.622 211.65-42.622s35.12-362.69-212.464-362.69z" fill="#CCD1D9" /><path d="M980.64 844.558l-1.688-0.5c-28.748-7.75-49.842-15.188-62.53-20.124-44.936-17.25-56.686-29.748-59.652-35.624-0.094-0.25-0.188-0.438-0.282-0.688l-0.406-54.998-192.058 2.25-0.376 52.748c-0.094 0.25-0.156 0.438-0.282 0.688-3 5.876-14.686 18.374-59.652 35.686-12.656 4.876-33.782 12.312-62.25 20l-1.968 0.562c-25.904 8.688-43.34 33-43.34 60.374v76.248h527.826v-76.248c0-27.374-17.406-51.686-43.342-60.374z" fill="#E6E9ED" /><path d="M909.642 632.192c0 97.184-92.652 190.618-149.588 190.618-56.904 0-149.556-93.434-149.556-190.618 0-97.168 66.964-161.26 149.556-161.26 82.624-0.002 149.588 64.092 149.588 161.26z" fill="#EAC6BB" /><path d="M587.436 815.558l-2.062-0.624c-34.844-9.436-60.404-18.436-75.81-24.374-54.498-20.936-68.716-36.124-72.31-43.248-0.124-0.25-0.25-0.5-0.344-0.812l-0.5-66.624-232.836 2.624-0.468 63.998a4.834 4.834 0 0 1-0.344 0.812c-3.624 7.124-17.812 22.312-72.31 43.31-15.376 5.876-40.968 14.876-75.498 24.248l-2.376 0.688c-31.406 10.5-52.56 39.938-52.56 73.188v92.434h639.948v-92.434c-0.002-33.248-21.092-62.686-52.53-73.186z" fill="#434A54" /><path d="M352.006 853.184h-63.998l-32 127.996h128.028z" fill="#DA4453" /><path d="M772.74 471.43c-14.06 4.376-27.716 8.842-32.778 10.03-11.562 2.656-45.968 37.312-45.968 37.312l51.654 43.358s63.404 41.624 162.494 45.686c-9.624-78.668-65.714-130.73-135.402-136.386z" fill="#F6BB42" /><path d="M352.006 853.184h-63.998l-42.686-113.308h149.338z" fill="#ED5564" /><path d="M206.854 708l-24.218 57.75 64.218 79.246 71.34-55.81z" fill="#656D78" /><path d="M429.534 708l24.218 57.75-64.216 79.246-71.342-55.81z" fill="#656D78" /><path d="M501.344 558.068c0 117.808-112.34 231.118-181.338 231.118-69.03 0-181.338-113.308-181.338-231.118 0-117.824 81.184-195.54 181.338-195.54s181.338 77.716 181.338 195.54z" fill="#EAC6BB" /><path d="M436.846 341.186c-30.842-27.938-134.214-62.216-237.336 0-52.216 31.498-90.216 170.682-90.216 170.682s101.84 57.702 234.43-4.688c79.34-37.312 77.56-17.782 100.248 16.218 13.436 20.186 57.374 34.67 57.374 34.67s34.186-127.542-64.5-216.882z" fill="#434A54" /><path d="M611.624 611.004c124.996-20.124 189.898-102.95 207.148-128.324-18.032-7.686-37.876-11.75-58.716-11.75-76.406 0-139.432 54.874-148.432 140.074z" fill="#FFCE54" /></svg>