<?xml version="1.0" standalone="no"?><!DOCTYPE svg PUBLIC "-//W3C//DTD SVG 1.1//EN" "http://www.w3.org/Graphics/SVG/1.1/DTD/svg11.dtd"><svg class="icon" width="128px" height="128.00px" viewBox="0 0 1024 1024" version="1.1" xmlns="http://www.w3.org/2000/svg"><path d="M234.668 895.992H149.326c-11.782 0-21.328 9.562-21.328 21.312v42.688c0 35.312 28.704 64 64 64s63.998-28.688 63.998-64v-42.688c0-11.75-9.546-21.312-21.328-21.312zM874.672 895.992H789.3c-11.75 0-21.312 9.562-21.312 21.312v42.688c0 35.312 28.688 64 63.998 64s63.998-28.688 63.998-64v-42.688c0-11.75-9.562-21.312-21.312-21.312z" fill="#434A54" /><path d="M917.296 0.008H106.672c-11.782 0-21.344 9.546-21.344 21.328v895.968c0 11.812 9.562 21.376 21.344 21.376h810.624a21.366 21.366 0 0 0 21.376-21.376V21.336c0-11.782-9.562-21.328-21.376-21.328z" fill="#A85D5D" /><path d="M85.328 597.312h853.344v42.684H85.328z" fill="#965353" /><path d="M618.678 746.684c-11.812 0-21.376 9.532-21.376 21.312h-170.636c0-11.782-9.562-21.312-21.344-21.312s-21.328 9.532-21.328 21.312v21.312c0 11.812 9.546 21.376 21.328 21.376h213.356c11.748 0 21.31-9.562 21.31-21.376v-21.312c0-11.782-9.562-21.312-21.31-21.312zM618.678 448c-11.812 0-21.376 9.546-21.376 21.328h-170.636c0-11.78-9.562-21.328-21.344-21.328s-21.328 9.546-21.328 21.328v21.342c0 11.782 9.546 21.328 21.328 21.328h213.356c11.748 0 21.31-9.546 21.31-21.328v-21.342c0-11.78-9.562-21.328-21.31-21.328zM618.678 149.334c-11.812 0-21.376 9.562-21.376 21.344h-170.636c0-11.782-9.562-21.344-21.344-21.344s-21.328 9.562-21.328 21.344v21.328c0 11.782 9.546 21.328 21.328 21.328h213.356c11.748 0 21.31-9.546 21.31-21.328V170.676c0-11.78-9.562-21.342-21.31-21.342z" fill="#FFCE54" /><path d="M85.328 298.674h853.344v42.656H85.328z" fill="#965353" /><path d="M917.296 0.008h-42.624c11.75 0 21.312 9.546 21.312 21.328v895.968c0 11.812-9.562 21.376-21.312 21.376h42.624a21.366 21.366 0 0 0 21.376-21.376V21.336c0-11.782-9.562-21.328-21.376-21.328z" fill="#FFFFFF" opacity=".1" /></svg>