<?xml version="1.0" standalone="no"?><!DOCTYPE svg PUBLIC "-//W3C//DTD SVG 1.1//EN" "http://www.w3.org/Graphics/SVG/1.1/DTD/svg11.dtd"><svg class="icon" width="128px" height="128.00px" viewBox="0 0 1024 1024" version="1.1" xmlns="http://www.w3.org/2000/svg"><path d="M490.68 277.346h42.656v64H490.68z" fill="#434A54" /><path d="M618.694 341.346c-11.812 0-21.376-9.532-21.376-21.344v-42.656c0-11.782 9.562-21.342 21.376-21.342 11.748 0 21.31 9.562 21.31 21.342v42.656c0 11.814-9.562 21.344-21.31 21.344z" fill="#CCD1D9" /><path d="M213.34 959.992c0 35.312 28.718 64 64 64 35.296 0 64-28.688 64-64v-42.656h-128v42.656zM682.692 917.336v42.656c0 35.312 28.688 64 64 64 35.25 0 63.998-28.688 63.998-64v-42.656h-127.998z" fill="#434A54" /><path d="M587.474 353.158c-20.716-21.374-47.514-33.156-75.466-33.156s-54.75 11.782-75.468 33.156c-19.828 20.468-31.204 47.28-31.204 73.53v106.656h213.356v-106.656c0.002-26.25-11.374-53.062-31.218-73.53z" fill="#48CFAD" /><path d="M590.224 0.008h-156.434l-124.452 298.682h405.354z" fill="#FFCE54" /><path d="M170.686 490.686h682.628v469.306H170.686z" fill="#FFD2A6" /><path d="M170.686 703.996h682.628v42.688H170.686z" fill="#F4BE8E" /><path d="M576.006 639.996h-127.998c-11.782 0-21.328-9.532-21.328-21.312s9.546-21.34 21.328-21.34h127.998c11.782 0 21.312 9.558 21.312 21.34s-9.53 21.312-21.312 21.312zM576.006 853.336h-127.998a21.316 21.316 0 0 1-21.328-21.34c0-11.75 9.546-21.312 21.328-21.312h127.998c11.782 0 21.312 9.562 21.312 21.312 0 11.812-9.53 21.34-21.312 21.34z" fill="#434A54" /></svg>