<?xml version="1.0" standalone="no"?><!DOCTYPE svg PUBLIC "-//W3C//DTD SVG 1.1//EN" "http://www.w3.org/Graphics/SVG/1.1/DTD/svg11.dtd"><svg class="icon" width="128px" height="128.00px" viewBox="0 0 1024 1024" version="1.1" xmlns="http://www.w3.org/2000/svg"><path d="M320.01 577v254.996c0 106.058 85.936 191.996 191.996 191.996 106.048 0 191.982-85.938 191.982-191.996V577H320.01zM639.68 831.996c0 70.714-57.312 127.996-127.986 127.996-70.686 0-127.998-57.282-127.998-127.996v-166.652H639.68v166.652z" fill="#EC87C0" /><path d="M796.796 566.718a21.354 21.354 0 0 0-18.688-11.032H233.042a21.312 21.312 0 0 0-18.688 11.032c-9.188 16.688-13.844 34.156-13.844 51.968 0 95.684 134 170.652 305.058 170.652 171.106 0 305.102-74.968 305.102-170.652 0.002-17.81-4.686-35.28-13.874-51.968z" fill="#967ADC" /><path d="M894.984 523.688c-22.062-10.968-53-20.686-92-28.874-77.934-16.438-181.304-25.468-291.008-25.468-109.686 0-213.028 9.032-290.996 25.468-39 8.188-69.936 17.906-91.966 28.874-29 14.438-43.686 32.032-43.686 52.312 0 20.312 14.688 37.906 43.686 52.344 22.032 10.938 52.968 20.688 91.966 28.876 77.968 16.438 181.31 25.468 290.996 25.468 109.704 0 213.076-9.032 291.008-25.468 39-8.188 69.938-17.938 92-28.876 29-14.438 43.688-32.032 43.688-52.344 0-20.282-14.688-37.876-43.688-52.312z" fill="#AC92EB" /><path d="M637.742 337.128c42.184-36.562 66.246-89.03 66.246-145.124 0-105.842-86.122-191.998-191.982-191.998-105.874 0-191.996 86.156-191.996 191.998 0 56.062 24.03 108.498 66.186 145.06 2.938 13.124 9.218 44.562 11.156 80.154 3.124 58.406-6.686 100.716-28.406 122.342a21.346 21.346 0 0 0-0.718 29.5c7.782 8.5 37.312 28.282 143.466 28.282 105.986 0 135.918-19.624 143.856-28.032 7.876-8.406 7.688-21.5-0.438-29.656-43.12-43.372-28.308-155.12-17.37-202.526z" fill="#EC87C0" /><path d="M637.742 337.128c42.184-36.562 66.246-89.03 66.246-145.124 0-105.842-86.122-191.998-191.982-191.998-3.594 0-7.156 0.124-10.688 0.312 100.922 5.562 181.356 89.406 181.356 191.684 0 56.092-24.062 108.56-66.308 145.124-10.938 47.406-25.688 159.154 17.438 202.528 8.062 8.156 8.25 21.25 0.376 29.656-7.624 8.124-35.812 26.688-133.142 27.968 3.468 0.032 7.032 0.062 10.656 0.062 105.986 0 135.918-19.624 143.856-28.032 7.876-8.406 7.688-21.5-0.438-29.656-43.12-43.37-28.308-155.118-17.37-202.524z" fill="#FFFFFF" opacity=".2" /></svg>