<?xml version="1.0" standalone="no"?><!DOCTYPE svg PUBLIC "-//W3C//DTD SVG 1.1//EN" "http://www.w3.org/Graphics/SVG/1.1/DTD/svg11.dtd"><svg class="icon" width="128px" height="128.00px" viewBox="0 0 1024 1024" version="1.1" xmlns="http://www.w3.org/2000/svg"><path d="M746.575542 935.636173c-2.031996-40.653921-62.089879-354.703307-165.147678-638.456753-12.405976-34.123933-41.387919-57.059889-72.107859-57.059889-16.779967 0-31.935938 7.327986-41.529919 20.107961-8.717983 11.591977-16.965967 32.763936-6.811986 67.873867 46.12391 159.555688 74.559854 313.643387 90.325823 414.82719 17.747965 114.243777 24.341952 191.679626 24.809952 201.179607 2.217996 44.779913 39.559923 79.873844 85.057834 79.873844 1.437997 0 2.875994-0.032 4.311991-0.124 22.687956-1.123998 43.623915-10.875979 58.933885-27.437946 15.37597-16.689967 23.251955-38.251925 22.157957-60.783881z" fill="#DA4453" /><path d="M556.209914 260.227492c-9.593981-12.779975-24.765952-20.107961-41.545919-20.107961-30.71594 0-59.685883 22.935955-72.089859 57.059889-103.057799 283.755446-163.119681 597.802832-165.149678 638.456753-1.093998 22.531956 6.781987 44.093914 22.185957 60.779881 15.28197 16.561968 36.217929 26.311949 58.873885 27.437946 1.467997 0.094 2.905994 0.124 4.343991 0.124 45.497911 0 82.841838-35.093931 85.059834-79.873844 0.467999-9.499981 7.059986-86.93583 24.809952-201.179607 28.529944-183.303642 64.841873-326.751362 90.323823-414.82719 10.15598-35.105931 1.905996-56.27789-6.811986-67.869867z" fill="#ED5564" /><path d="M438.386144 12.939975c-35.093931 17.561966-54.435894 50.841901-54.435894 93.747817v154.243698l127.99375 19.999961V0.02h-21.341958c-2.685995 0-27.091947 0.357999-52.215898 12.919975zM606.831815 12.939975C581.707864 0.379999 557.303912 0.02 554.617917 0.02h-21.359959v280.909451l128.00975-19.999961V106.687792c0-42.905916-19.343962-76.185851-54.435893-93.747817z" fill="#CCD1D9" /><path d="M597.269833 192.011625h-149.319708c-35.311931 0-63.997875 28.701944-63.997875 63.997875v1.889996l0.311999 1.875997c0.218 1.123998 5.06199 28.077945 13.029975 55.499891 10.31198 35.69993 23.623954 68.729866 50.655901 68.729866h149.319708c27.031947 0 40.341921-33.029935 50.685901-68.729866 7.937984-27.421946 12.781975-54.373894 12.999975-55.499891l0.311999-1.875997v-1.889996c0-35.295931-28.687944-63.997875-63.997875-63.997875z" fill="#E6E9ED" /><path d="M658.641714 237.837535c-4.655991-15.669969-15.15597-28.827944-28.937944-36.981927-18.809963 37.935926-73.243857 133.853739-163.101681 183.147642h75.059853c36.263929-30.091941 64.323874-64.527874 84.011836-92.745819a572.448882 572.448882 0 0 0 32.967936-53.419896z" fill="#CCD1D9" /></svg>