<?xml version="1.0" standalone="no"?><!DOCTYPE svg PUBLIC "-//W3C//DTD SVG 1.1//EN" "http://www.w3.org/Graphics/SVG/1.1/DTD/svg11.dtd"><svg class="icon" width="128px" height="128.00px" viewBox="0 0 1024 1024" version="1.1" xmlns="http://www.w3.org/2000/svg"><path d="M858.928 858.93c-191.62 191.622-502.252 191.622-693.874 0s-191.622-502.27 0-693.89c191.604-191.606 502.286-191.606 693.874 0 191.62 191.62 191.62 502.268 0 693.89z" fill="#ED5564" /><path d="M256.006 618.652h511.988v85.344H256.006zM512 320.004c-141.388 0-255.994 95.498-255.994 213.324h511.988c0-117.826-114.622-213.324-255.994-213.324z" fill="#F4BE8E" /><path d="M767.994 533.328H256.006c-23.562 0-42.67 19.108-42.67 42.67s19.108 42.654 42.67 42.654h511.988c23.562 0 42.688-19.092 42.688-42.654s-19.126-42.67-42.688-42.67z" fill="#A85D5D" /><path d="M512 661.308l-213.324-127.98h426.63z" fill="#FFCE54" /><path d="M697.744 484.406c8.312-8.328 8.312-21.828 0-30.17-8.312-8.328-21.842-8.328-30.186 0-8.312 8.342-8.312 21.842 0 30.17 8.344 8.344 21.874 8.344 30.186 0zM612.436 399.08c8.312-8.328 8.312-21.844 0-30.17-8.344-8.328-21.876-8.328-30.188 0-8.312 8.328-8.312 21.842 0 30.17s21.844 8.328 30.188 0zM527.076 484.406c8.344-8.328 8.344-21.828 0-30.17-8.328-8.328-21.826-8.328-30.154 0-8.344 8.342-8.344 21.842 0 30.17a21.292 21.292 0 0 0 30.154 0z" fill="#EAAD7A" /><path d="M426.666 383.994m-21.334 0a21.334 21.334 0 1 0 42.668 0 21.334 21.334 0 1 0-42.668 0Z" fill="#EAAD7A" /><path d="M356.424 484.406c8.328-8.328 8.328-21.828 0-30.17-8.344-8.328-21.842-8.328-30.17 0-8.328 8.342-8.328 21.842 0 30.17 8.328 8.344 21.828 8.344 30.17 0z" fill="#EAAD7A" /><path d="M858.928 165.04a486.508 486.508 0 0 0-15.436-14.734L150.32 843.492c4.782 5.25 9.672 10.376 14.734 15.438s10.218 9.938 15.436 14.75L873.678 180.476a489.864 489.864 0 0 0-14.75-15.436z" fill="#434A54" /><path d="M986.488 319.348c-25.748-63.53-63.592-120.512-112.466-169.386-48.842-48.874-105.84-86.702-169.372-112.466C643.31 12.62 578.498 0.012 512 0.012c-66.484 0-131.31 12.608-192.652 37.482C255.818 63.26 198.834 101.086 149.96 149.96c-48.858 48.874-86.702 105.858-112.466 169.386C12.62 380.69 0.012 445.5 0.012 512c0 66.498 12.608 131.308 37.484 192.622 25.764 63.56 63.608 120.528 112.466 169.402 48.874 48.874 105.858 86.714 169.386 112.464 61.342 24.876 126.168 37.5 192.652 37.5 66.498 0 131.31-12.624 192.65-37.5 63.532-25.75 120.53-63.592 169.372-112.464 48.876-48.876 86.718-105.842 112.466-169.402 24.876-61.312 37.5-126.124 37.5-192.622 0-66.5-12.624-131.31-37.5-192.652z m-142.62 524.52C755.212 932.49 637.374 981.3 512 981.3c-125.358 0-243.214-48.81-331.868-137.434C91.494 755.212 42.682 637.372 42.682 512c0-125.374 48.81-243.23 137.45-331.868C268.786 91.494 386.642 42.666 512 42.666c125.374 0 243.212 48.828 331.868 137.466 88.624 88.638 137.436 206.496 137.436 331.868-0.002 125.372-48.814 243.212-137.436 331.868z" fill="#DA4453" /></svg>