<?xml version="1.0" standalone="no"?><!DOCTYPE svg PUBLIC "-//W3C//DTD SVG 1.1//EN" "http://www.w3.org/Graphics/SVG/1.1/DTD/svg11.dtd"><svg class="icon" width="128px" height="128.00px" viewBox="0 0 1024 1024" version="1.1" xmlns="http://www.w3.org/2000/svg"><path d="M79.64 791.556L512 42.678l432.36 748.878z" fill="#FB6D51" /><path d="M512 0.024L42.706 812.9h938.59L512 0.024z m0 85.34l395.422 684.88H116.578L512 85.364z" fill="#E8563F" /><path d="M405.066 514.254c23.5 0 42.654 19.124 42.654 42.656h42.656c0-47.124-38.186-85.342-85.31-85.342s-85.34 38.216-85.34 85.342v85.34c0 47.124 38.218 85.308 85.34 85.308s85.31-38.186 85.31-85.308H447.72c0 23.53-19.154 42.654-42.654 42.654-23.53 0-42.686-19.124-42.686-42.654v-85.34c0-23.532 19.156-42.656 42.686-42.656zM597.248 684.904V471.568h-42.686v255.99h149.338v-42.654z" fill="#E8563F" /><path d="M21.332 1023.984a21.328 21.328 0 0 1-15.062-6.25c-8.312-8.342-8.312-21.842 0-30.154L987.544 6.272c8.376-8.342 21.876-8.342 30.186 0 8.312 8.312 8.312 21.844 0 30.156L36.456 1017.734a21.368 21.368 0 0 1-15.124 6.25z" fill="#424953" /></svg>