<?xml version="1.0" standalone="no"?><!DOCTYPE svg PUBLIC "-//W3C//DTD SVG 1.1//EN" "http://www.w3.org/Graphics/SVG/1.1/DTD/svg11.dtd"><svg class="icon" width="128px" height="128.00px" viewBox="0 0 1024 1024" version="1.1" xmlns="http://www.w3.org/2000/svg"><path d="M775.838 575.874S690.308 0.012 512.002 0.012c-178.308 0-263.838 575.862-263.838 575.862-72.81 25.686-124.998 95.06-124.998 176.682 0 103.312 83.624 187.09 186.872 187.308C355.004 990.8 428.722 1023.988 512 1023.988c83.278 0 156.998-33.188 201.962-84.124 103.25-0.218 186.872-83.996 186.872-187.308 0-81.622-52.186-150.998-124.996-176.682z" fill="#EAC6BB" /><path d="M775.838 575.874S690.308 0.012 512.002 0.012c-14.876 0-29.094 4.032-42.656 11.376 149.278 80.686 221.15 564.486 221.15 564.486 72.81 25.686 125.03 95.06 125.03 176.682 0 103.312-83.656 187.09-186.902 187.308-37.124 42.032-93.81 71.968-159.278 81.156a307.608 307.608 0 0 0 42.656 2.968c83.278 0 156.998-33.188 201.962-84.124 103.25-0.218 186.872-83.996 186.872-187.308-0.002-81.622-52.188-150.998-124.998-176.682z" fill="#FFFFFF" opacity=".2" /></svg>