<?xml version="1.0" standalone="no"?><!DOCTYPE svg PUBLIC "-//W3C//DTD SVG 1.1//EN" "http://www.w3.org/Graphics/SVG/1.1/DTD/svg11.dtd"><svg class="icon" width="128px" height="128.00px" viewBox="0 0 1024 1024" version="1.1" xmlns="http://www.w3.org/2000/svg"><path d="M729.486 810.024c-5.876 4.656-80.184 67.654-78.308 133.778 0.562 48.282 34.874 79.282 78.308 80.188 43.376-0.906 77.688-31.906 78.25-80.188 1.876-66.124-72.438-129.122-78.25-133.778z" fill="#FFCE54" /><path d="M731.862 479.876S660.554 0.012 511.978 0.012C363.42 0.012 292.14 479.876 292.14 479.876c-60.686 21.438-104.186 79.248-104.186 147.246 0 86.092 69.686 155.902 155.746 156.122 37.468 42.438 98.874 70.094 168.278 70.094 69.452 0 130.826-27.656 168.324-70.094 86.06-0.218 155.746-70.03 155.746-156.122-0.002-67.998-43.5-125.81-104.186-147.246z" fill="#EAC6BB" /><path d="M731.862 479.876S660.554 0.012 511.978 0.012c-7.282 0-14.406 1.188-21.312 3.376 134.076 42.624 198.512 476.488 198.512 476.488 60.686 21.438 104.186 79.248 104.186 147.246 0 86.092-69.688 155.902-155.746 156.122-33.562 38.032-86.374 64.188-146.952 69.188 7 0.594 14.124 0.906 21.312 0.906 69.452 0 130.826-27.656 168.324-70.094 86.06-0.218 155.746-70.03 155.746-156.122-0.002-67.998-43.5-125.81-104.186-147.246z" fill="#FFFFFF" opacity=".2" /></svg>