<?xml version="1.0" standalone="no"?><!DOCTYPE svg PUBLIC "-//W3C//DTD SVG 1.1//EN" "http://www.w3.org/Graphics/SVG/1.1/DTD/svg11.dtd"><svg class="icon" width="128px" height="128.00px" viewBox="0 0 1024 1024" version="1.1" xmlns="http://www.w3.org/2000/svg"><path d="M703.838 657.838l-385.768 15.094-83.404 351.048h554.636z" fill="#E5E8EC" /><path d="M320.006 639.996c-10 0-18.374 6.874-20.686 16.154h-0.032L213.98 997.482a21.6 21.6 0 0 0-0.656 5.156c0 11.78 9.562 21.342 21.344 21.342 10 0 18.374-6.876 20.686-16.154l85.34-341.332h-0.032c0.438-1.656 0.656-3.376 0.656-5.156 0-11.782-9.53-21.342-21.312-21.342zM809.99 997.482h0.032L724.68 656.15h-0.032c-2.312-9.282-10.656-16.154-20.654-16.154-11.782 0-21.344 9.56-21.344 21.342 0 1.782 0.25 3.5 0.656 5.156h-0.032l85.34 341.332h0.032c2.312 9.28 10.688 16.154 20.656 16.154 11.782 0 21.344-9.562 21.344-21.342 0-1.78-0.25-3.5-0.656-5.156z" fill="#CBD0D8" /><path d="M21.8 661.338c7.344-170.43 104.464-276.052 303.894-331.424 183.836-51.092 433.358-52.53 676.944-52.56V661.34H21.8z" fill="#4FC0E8" /><path d="M1002.638 0.02H277.322c-11.78 0-21.312 9.562-21.312 21.342s9.532 21.312 21.312 21.312h703.974v213.336C483.938 256.354 0.02 267.854 0.02 682.65h1023.96V21.362c0-11.78-9.562-21.342-21.342-21.342z m-21.344 639.976H44.642c6.812-71.122 31.374-128.622 74.56-174.87 23.812-25.532 54.06-48.186 89.902-67.31 34.624-18.5 75.78-34.436 122.308-47.374 83.154-23.092 187.462-37.874 318.924-45.154 105.372-5.874 219.182-6.53 330.958-6.592v341.3z" fill="#3BAED9" /><path d="M853.3 746.646c0-11.78-9.562-21.31-21.31-21.31-2.25 0-4.438 0.344-6.468 1L143.108 939.578c-8.75 2.688-15.092 10.782-15.092 20.406 0 11.782 9.53 21.342 21.312 21.342 2.25 0 4.438-0.376 6.468-1l682.414-213.274c8.716-2.656 15.09-10.78 15.09-20.406z" fill="#424953" /></svg>