<?xml version="1.0" standalone="no"?><!DOCTYPE svg PUBLIC "-//W3C//DTD SVG 1.1//EN" "http://www.w3.org/Graphics/SVG/1.1/DTD/svg11.dtd"><svg class="icon" width="128px" height="128.00px" viewBox="0 0 1024 1024" version="1.1" xmlns="http://www.w3.org/2000/svg"><path d="M128.308 0.4h149.196v1023.2H128.308z" fill="#5D9CEC" /><path d="M170.932 149.626H106.98c-11.772 0-21.326-9.54-21.326-21.326 0-11.774 9.554-21.312 21.326-21.312h63.952c11.772 0 21.326 9.54 21.326 21.312 0 11.788-9.554 21.326-21.326 21.326zM170.932 277.528H106.98c-11.772 0-21.326-9.54-21.326-21.328 0-11.772 9.554-21.31 21.326-21.31h63.952c11.772 0 21.326 9.54 21.326 21.31 0 11.788-9.554 21.328-21.326 21.328zM170.932 405.428H106.98c-11.772 0-21.326-9.54-21.326-21.328 0-11.772 9.554-21.31 21.326-21.31h63.952c11.772 0 21.326 9.54 21.326 21.31 0 11.788-9.554 21.328-21.326 21.328zM170.932 533.326H106.98c-11.772 0-21.326-9.54-21.326-21.31 0-11.788 9.554-21.326 21.326-21.326h63.952c11.772 0 21.326 9.54 21.326 21.326 0 11.772-9.554 21.31-21.326 21.31zM170.932 661.226H106.98c-11.772 0-21.326-9.524-21.326-21.326 0-11.774 9.554-21.296 21.326-21.296h63.952c11.772 0 21.326 9.524 21.326 21.296 0 11.804-9.554 21.326-21.326 21.326zM170.932 789.126H106.98c-11.772 0-21.326-9.524-21.326-21.326 0-11.774 9.554-21.296 21.326-21.296h63.952c11.772 0 21.326 9.524 21.326 21.296 0 11.804-9.554 21.326-21.326 21.326zM170.932 917.028H106.98c-11.772 0-21.326-9.524-21.326-21.326 0-11.774 9.554-21.296 21.326-21.296h63.952c11.772 0 21.326 9.524 21.326 21.296 0 11.802-9.554 21.326-21.326 21.326z" fill="#E6E9ED" /><path d="M320.158 0.4h618.188v1023.2H320.158z" fill="#434A54" /><path d="M234.88 0.4h618.156v1023.2H234.88z" fill="#656D78" /><path d="M767.792 512.016c0 117.706-95.426 213.162-213.144 213.162-117.736 0-213.194-95.458-213.194-213.162 0-117.736 95.458-213.178 213.194-213.178 117.718 0 213.144 95.442 213.144 213.178z" fill="#5D9CEC" /><path d="M713.084 654.576v-14.05c0-16.332-10.492-30.82-26.104-35.972l-1.186-0.344c-17.114-4.59-22.922-9.024-30.602-11.958-27.042-10.304-34.1-17.736-35.91-21.232a4.366 4.366 0 0 0-0.188-0.406l-0.188-31.476-64.262-0.718-64.246 0.718-0.25 31.476c-0.032 0.124-0.094 0.25-0.156 0.406-1.81 3.496-8.838 10.928-35.942 21.232-7.65 2.936-13.426 7.37-30.6 11.958l-1.188 0.344c-15.614 5.152-26.106 19.64-26.106 35.972v14.05c39.034 43.34 95.55 70.602 158.486 70.602 62.892 0 119.474-27.262 158.442-70.602z" fill="#FC6E51" /><path d="M853.038 43.866h85.308v127.9h-85.308z" fill="#A0D468" /><path d="M853.038 214.404h85.308v127.9h-85.308z" fill="#FC6E51" /><path d="M853.038 384.1h85.308v127.916h-85.308z" fill="#ED5564" /><path d="M643.764 501.554c0 57.94-55.208 111.242-89.118 111.242-33.926 0-89.164-53.302-89.164-111.242 0-57.908 39.906-96.126 89.164-96.126 49.212 0 89.118 38.218 89.118 96.126z" fill="#EAC6BB" /></svg>