<?xml version="1.0" standalone="no"?><!DOCTYPE svg PUBLIC "-//W3C//DTD SVG 1.1//EN" "http://www.w3.org/Graphics/SVG/1.1/DTD/svg11.dtd"><svg class="icon" width="128px" height="128.00px" viewBox="0 0 1024 1024" version="1.1" xmlns="http://www.w3.org/2000/svg"><path d="M810.68 501.834h42.688v308.82H810.68z" fill="#F6BB42" /><path d="M1012.208 471.6l-170.652-85.326a21.336 21.336 0 0 0-20.75 0.922 21.38 21.38 0 0 0-10.124 18.156v170.652c0 7.406 3.844 14.25 10.124 18.156a21.288 21.288 0 0 0 11.218 3.188c3.25 0 6.532-0.75 9.532-2.25l170.652-85.342a21.334 21.334 0 0 0 0-38.156z" fill="#FFCE54" /><path d="M128.166 277.996h42.656v361.38H128.166zM554.718 277.996h42.652v276.042h-42.652z" fill="#DA4453" /><path d="M589.714 132.89a21.308 21.308 0 0 0-17.656-4.454L145.352 212.514c-10 1.968-17.186 10.734-17.186 20.92v128.622c0 6.376 2.844 12.422 7.782 16.468a21.232 21.232 0 0 0 17.654 4.452l426.706-84.06c10-1.968 17.218-10.734 17.218-20.922v-128.62a21.36 21.36 0 0 0-7.812-16.484zM85.354 724.688c-47.062 0-85.342-38.28-85.342-85.31 0-47.06 38.28-85.34 85.342-85.34s85.31 38.28 85.31 85.34c0.002 47.03-38.248 85.31-85.31 85.31zM512.062 639.376c-47.062 0-85.342-38.28-85.342-85.34 0-47.046 38.28-85.328 85.342-85.328 47.032 0 85.308 38.28 85.308 85.328 0.002 47.062-38.276 85.34-85.308 85.34z" fill="#ED5564" /><path d="M768.024 725.312c-47.058 0-85.308 38.28-85.308 85.342 0 47.032 38.25 85.31 85.308 85.31 47.062 0 85.344-38.28 85.344-85.31 0-47.062-38.282-85.342-85.344-85.342z" fill="#FFCE54" /></svg>