<?xml version="1.0" standalone="no"?><!DOCTYPE svg PUBLIC "-//W3C//DTD SVG 1.1//EN" "http://www.w3.org/Graphics/SVG/1.1/DTD/svg11.dtd"><svg class="icon" width="128px" height="128.00px" viewBox="0 0 1024 1024" version="1.1" xmlns="http://www.w3.org/2000/svg"><path d="M885.331271 0.016H138.666729c-35.311931 0-63.997875 28.685944-63.997875 63.997875 0 35.279931 28.685944 63.997875 63.997875 63.997875h67.653868a63.309876 63.309876 0 0 0-3.655993 21.309958c0 35.281931 28.687944 63.997875 63.999875 63.997875h21.311959v21.343959c0 35.281931 28.749944 63.997875 63.997875 63.997875 35.311931 0 63.997875-28.715944 63.997875-63.997875V213.319583c35.311931 0 63.997875-28.715944 63.997875-63.997875 0-7.467985-1.249998-14.653971-3.623993-21.309958h408.987201c35.249931 0 63.999875-28.717944 63.999875-63.997875C949.331146 28.701944 920.581202 0.016 885.331271 0.016z" fill="#CCD1D9" /><path d="M588.527851 762.584511c-32.933936-139.557727-70.245863-297.707419-44.871913-438.829143a21.227959 21.227959 0 0 0-4.623991-17.437966 21.287958 21.287958 0 0 0-16.375968-7.655985H181.322646a21.179959 21.179959 0 0 0-16.341968 7.655985 21.219959 21.219959 0 0 0-4.623991 17.437966c25.341951 141.121724-11.967977 299.271415-44.873913 438.829143-20.999959 88.935826-40.81192 172.933662-40.81192 240.053531 0 11.781977 9.561981 21.343958 21.311959 21.343958h511.983c11.811977 0 21.375958-9.561981 21.375958-21.343958-0.002-67.119869-19.877961-151.117705-40.81392-240.053531z" fill="#AC92EB" /><path d="M117.324771 1002.638042c0-67.121869 19.841961-151.119705 40.77992-240.053531 32.935936-139.557727 70.247863-297.707419 44.873913-438.829143a21.357958 21.357958 0 0 1 4.65599-17.437966 21.179959 21.179959 0 0 1 16.343969-7.655985H181.322646a21.179959 21.179959 0 0 0-16.341968 7.655985 21.219959 21.219959 0 0 0-4.623991 17.437966c25.341951 141.121724-11.967977 299.271415-44.873913 438.829143-20.999959 88.935826-40.81192 172.933662-40.81192 240.053531 0 11.781977 9.561981 21.343958 21.311959 21.343958h42.685916c-11.781977 0-21.343958-9.561981-21.343958-21.343958z" fill="#FFFFFF" opacity=".1" /><path d="M906.643229 725.302583H629.339771v-63.995875c0-7.875985-4.375991-15.093971-11.311978-18.811963s-15.31197-3.311994-21.875957 1.061998l-94.807815 63.215877v-45.465912c0-7.875985-4.375991-15.093971-11.311978-18.811963s-15.31197-3.311994-21.873957 1.061998l-127.99775 85.339833a21.313958 21.313958 0 0 0-9.499982 17.749966V1002.638042c0 11.781977 9.561981 21.343958 21.311959 21.343958h554.668916c11.749977 0 21.311958-9.561981 21.311959-21.343958V746.646542c0.004-11.779977-9.559981-21.343958-21.309959-21.343959z" fill="#E6E9ED" /><path d="M330.662354 810.646417h597.292834v127.99575H330.662354z" fill="#5D9CEC" /><path d="M458.658104 810.646417h42.685917v127.99575h-42.685917zM607.963813 810.646417h42.687916v127.99575h-42.687916zM757.335521 810.646417h42.623917v127.99575h-42.623917z" fill="#4A89DC" /></svg>