<?xml version="1.0" standalone="no"?><!DOCTYPE svg PUBLIC "-//W3C//DTD SVG 1.1//EN" "http://www.w3.org/Graphics/SVG/1.1/DTD/svg11.dtd"><svg class="icon" width="128px" height="128.00px" viewBox="0 0 1024 1024" version="1.1" xmlns="http://www.w3.org/2000/svg"><path d="M747.122 468.658c-22.062-44.874-52.812-89.342-91.25-132.186-65.122-72.53-129.464-115.092-132.152-116.872a21.356 21.356 0 0 0-23.406 0c-2.718 1.78-67.062 44.342-132.154 116.872-38.468 42.844-69.186 87.312-91.28 132.186-28 56.874-42.186 114.468-42.186 171.342 0 99.308 29.874 194.808 84.092 268.992 53.436 73.062 123.874 115 193.248 115 69.344 0 139.778-41.938 193.152-115 54.25-74.184 84.124-169.684 84.124-268.992-0.002-56.876-14.188-114.468-42.188-171.342z" fill="#DA4453" /><path d="M385.158 977.492c39.78 30.124 83.53 46.5 126.874 46.5 43.406 0 87.344-16.5 127.152-46.75-20.496-6.188-65.872-17.25-127.152-17.25-62.25 0-107.218 11.376-126.874 17.5z" fill="#434A54" /><path d="M747.122 468.658c-22.062-44.874-52.812-89.342-91.25-132.186-65.122-72.53-129.464-115.092-132.152-116.872a21.356 21.356 0 0 0-23.406 0c-0.562 0.406-4 2.656-9.624 6.656 20.688 14.75 71.376 53.218 122.5 110.216 38.496 42.844 69.184 87.312 91.308 132.186 27.938 56.874 42.188 114.468 42.188 171.342 0 99.308-29.876 194.808-84.124 268.992-47.996 65.562-109.622 106.062-171.872 113.624 7.094 0.876 14.218 1.376 21.344 1.376 69.344 0 139.778-41.938 193.152-115 54.25-74.184 84.124-169.684 84.124-268.992-0.002-56.876-14.188-114.468-42.188-171.342z" fill="#FFFFFF" opacity=".1" /><path d="M608.062 473.782a21.452 21.452 0 0 0-16.188-2.188 21.316 21.316 0 0 0-13 9.968l-66.844 115.812-66.874-115.812a21.406 21.406 0 0 0-13-9.968 21.388 21.388 0 0 0-16.188 2.188c-59.092 34.282-95.874 97.968-95.936 166.218-0.032 5.688 2.218 11.124 6.218 15.124s9.438 6.25 15.094 6.25h133.716l-66.874 115.808a21.384 21.384 0 0 0-2.124 16.188 21.158 21.158 0 0 0 9.936 12.938c29.094 16.812 62.28 25.688 96.03 25.688 33.718 0 66.906-8.876 95.968-25.688a20.93 20.93 0 0 0 9.938-12.938c1.5-5.438 0.688-11.312-2.124-16.188l-66.876-115.808h133.746c5.624 0 11.062-2.25 15.062-6.25s6.25-9.438 6.25-15.124c-0.058-68.25-36.87-131.936-95.93-166.218z" fill="#F6BB42" /><path d="M512.032 576c-35.312 0-64 28.688-64 64 0 35.246 28.686 63.996 64 63.996 35.28 0 63.968-28.75 63.968-63.996 0-35.312-28.688-64-63.968-64z" fill="#FFCE54" /><path d="M746.684 0.008H277.348a21.3 21.3 0 0 0-21.312 21.312v255.996c0 11.782 9.532 21.344 21.312 21.344h469.336c11.75 0 21.312-9.562 21.312-21.344V21.322c0-11.782-9.562-21.314-21.312-21.314z" fill="#DA4453" /><path d="M362.69 0.008h298.62V298.66h-298.62z" fill="#ED5564" /></svg>