<?xml version="1.0" standalone="no"?><!DOCTYPE svg PUBLIC "-//W3C//DTD SVG 1.1//EN" "http://www.w3.org/Graphics/SVG/1.1/DTD/svg11.dtd"><svg class="icon" width="128px" height="128.00px" viewBox="0 0 1024 1024" version="1.1" xmlns="http://www.w3.org/2000/svg"><path d="M371.848847 333.504026c-16.123672-9.529806-35.905271-15.435686-51.654951-15.435687-15.73368 0-35.529278 5.90588-51.638951 15.435687-21.66956 12.843739-33.607317 30.03139-33.607317 48.467015v578.086258c0 18.437625 11.937758 35.655276 33.607317 48.467015 16.109673 9.531806 35.905271 15.467686 51.638951 15.467686 15.74968 0 35.531278-5.937879 51.654951-15.467686 21.65556-12.81174 33.593318-30.03139 33.593317-48.467015V381.971041c0-18.435626-11.937758-35.623276-33.593317-48.467015zM755.429055 333.504026c-16.093673-9.529806-35.875271-15.435686-51.622951-15.435687s-35.531278 5.90588-51.654951 15.435687c-21.65156 12.843739-33.589318 30.03139-33.589318 48.467015v578.086258c0 18.437625 11.937758 35.655276 33.589318 48.467015 16.123672 9.531806 35.905271 15.467686 51.654951 15.467686s35.531278-5.937879 51.622951-15.467686c21.687559-12.81174 33.623317-30.03139 33.623317-48.467015V381.971041c0-18.435626-11.935758-35.623276-33.623317-48.467015z" fill="#965353" /><path d="M320.209896 360.659474c-0.46799 0-0.953981 0-1.437971-0.031999-11.749761-0.781984-20.623581-10.937778-19.841597-22.65554 0.045999-0.749985 1.217975-17.935636 5.061897-44.3091 1.701965-11.623764 12.513746-19.6876 24.169509-17.999634 11.639764 1.687966 19.7036 12.499746 18.015634 24.187508-3.593927 24.561501-4.703904 40.779172-4.717904 40.935169-0.765984 11.249771-10.123794 19.873596-21.249568 19.873596z m383.532209-0.779984c-11.061775 0-20.437585-8.531827-21.249568-19.7176-0.217996-2.905941-1.46797-18.529624-4.781903-41.059166-1.717965-11.623764 6.343871-22.467544 17.999634-24.187508s22.467544 6.343871 24.15551 17.999634c3.43793 23.373525 4.811902 39.623195 5.123896 44.059105 0.875982 11.749761-7.937839 21.967554-19.655601 22.843536-0.529989 0.029999-1.091978 0.061999-1.591968 0.061999z m-371.314457-83.934295c-1.405971 0-2.827943-0.123997-4.249914-0.405992-11.531766-2.343952-18.999614-13.593724-16.655662-25.12349a725.805257 725.805257 0 0 1 10.031796-42.873129c3.045938-11.375769 14.717701-18.123632 26.09347-15.061694 11.375769 2.999939 18.123632 14.687702 15.077694 26.061471a676.118266 676.118266 0 0 0-9.419809 40.311181c-2.049958 10.121794-10.939778 17.091653-20.877575 17.091653z m359.002707-0.719986c-9.937798 0-18.811618-6.999858-20.875576-17.061653-2.811943-13.875718-5.999878-27.437443-9.467807-40.311181-3.061938-11.375769 3.655926-23.061532 15.031694-26.123469 11.375769-3.061938 23.061532 3.685925 26.12347 15.061694 3.687925 13.717721 7.061857 28.123429 10.061795 42.841129 2.375952 11.531766-5.061897 22.781537-16.623662 25.155489-1.437971 0.281994-2.875942 0.437991-4.249914 0.437991zM354.663196 193.540869c-2.343952 0-4.717904-0.375992-7.045857-1.187976-11.109774-3.905921-16.953656-16.061674-13.077734-27.185448 5.155895-14.687702 10.795781-28.655418 16.765659-41.499157 4.967899-10.687783 17.639642-15.311689 28.311425-10.311791 10.671783 4.9379 15.295689 17.623642 10.34379 28.311425-5.389891 11.561765-10.499787 24.217508-15.187692 37.623236-3.079937 8.751822-11.31377 14.249711-20.109591 14.249711z m314.423613-0.717986c-8.781822 0-17.031654-5.467889-20.093592-14.217711-4.717904-13.405728-9.8438-26.061471-15.24569-37.623236-4.687905-9.999797-0.905982-21.811557 8.401829-27.311445-9.589805 4.843902-21.527563 1.781964-27.495441-7.435849-7.437849-11.499766-15.405687-21.623561-23.717518-30.061389-6.999858-7.155855-7.937839-17.999634-2.905941-26.12347a21.389566 21.389566 0 0 1-25.781477 3.875922 100.45396 100.45396 0 0 0-32.921331-11.531766c-9.483807-1.531969-16.467666-9.123815-17.687641-18.155631-1.171976 9.031817-8.109835 16.655662-17.593642 18.249629-11.453767 1.937961-22.515543 5.875881-32.857333 11.717762a21.329567 21.329567 0 0 1-25.749477-3.687925c5.061897 8.123835 4.139916 18.937615-2.827942 26.09347-8.265832 8.499827-16.217671 18.68562-23.63952 30.185387-6.37587 9.873799-19.561603 12.749741-29.453402 6.37387-9.889799-6.373871-12.749741-19.561603-6.37587-29.467401 8.937818-13.905718 18.671621-26.279466 28.921412-36.779253 8.203833-8.437829 21.68556-8.623825 30.123388-0.437991 0.155997 0.155997 0.311994 0.311994 0.453991 0.437991-0.171997-0.249995-0.327993-0.531989-0.48399-0.811984-5.781883-10.249792-2.171956-23.249528 8.093835-29.03141 14.639703-8.249832 30.341384-13.843719 46.685052-16.593663 11.609764-1.999959 22.609541 5.811882 24.577501 17.437646 0.031999 0.249995 0.077998 0.49999 0.109998 0.749985 0.031999-0.249995 0.061999-0.49999 0.109997-0.749985 1.889962-11.623764 12.843739-19.499604 24.453504-17.623642 16.375667 2.687945 32.123347 8.187834 46.811049 16.375667 10.281791 5.717884 13.999716 18.68762 8.249832 28.967412a12.743741 12.743741 0 0 1-0.49999 0.905981c0.155997-0.187996 0.311994-0.375992 0.49999-0.499989 8.37583-8.249832 21.875556-8.123835 30.123388 0.281994 10.281791 10.467787 20.057593 22.843536 29.05741 36.717254 6.37587 9.875799 3.561928 23.061532-6.311872 29.467402-0.217996 0.155997-0.46799 0.281994-0.717985 0.46799 0.217996-0.123997 0.405992-0.217996 0.623987-0.311994 10.655784-4.999898 23.343526-0.375992 28.343425 10.249792 5.999878 12.875738 11.655763 26.811455 16.811658 41.499157 3.93792 11.123774-1.937961 23.311526-12.999736 27.187448a21.947554 21.947554 0 0 1-7.091856 1.213975z" fill="#F6BB42" /><path d="M405.442164 424.594175V381.971041c0-18.437625-11.937758-35.623276-33.593317-48.467015-16.123672-9.529806-35.905271-15.435686-51.654951-15.435687-15.73368 0-35.529278 5.90588-51.638951 15.435687-21.66956 12.843739-33.607317 30.03139-33.607317 48.467015v42.623134h170.494536zM789.052372 424.594175V381.971041c0-18.437625-11.937758-35.623276-33.623317-48.467015-16.093673-9.529806-35.875271-15.435686-51.622951-15.435687s-35.531278 5.90588-51.654951 15.435687c-21.65156 12.843739-33.589318 30.03139-33.589318 48.467015v42.623134h170.490537z" fill="#FFCE54" /><path d="M384.128597 725.630061c-11.765761 0-21.311567 9.529806-21.311567 21.309567 0 11.749761 9.545806 21.311567 21.311567 21.311567h21.311567v-42.623134h-21.311567zM384.128597 789.564762c-11.765761 0-21.311567 9.531806-21.311567 21.311567 0 11.749761 9.545806 21.311567 21.311567 21.311567h21.311567v-42.623134h-21.311567zM384.128597 853.501463c-11.765761 0-21.311567 9.531806-21.311567 21.311567 0 11.749761 9.545806 21.311567 21.311567 21.311567h21.311567V853.501463h-21.311567zM256.259195 896.124597c11.781761 0 21.311567-9.561806 21.311567-21.311567a21.299567 21.299567 0 0 0-21.311567-21.311567h-21.311567v42.623134h21.311567zM256.259195 832.189896c11.781761 0 21.311567-9.561806 21.311567-21.311567a21.299567 21.299567 0 0 0-21.311567-21.311567h-21.311567v42.623134h21.311567zM256.259195 768.253195c11.781761 0 21.311567-9.561806 21.311567-21.311567a21.295567 21.295567 0 0 0-21.311567-21.309567h-21.311567v42.623134h21.311567zM767.740805 725.630061a21.295567 21.295567 0 0 0-21.311567 21.309567c0 11.749761 9.531806 21.311567 21.311567 21.311567h21.311567v-42.623134h-21.311567zM767.740805 789.564762a21.299567 21.299567 0 0 0-21.311567 21.311567c0 11.749761 9.531806 21.311567 21.311567 21.311567h21.311567v-42.623134h-21.311567zM767.740805 853.501463a21.299567 21.299567 0 0 0-21.311567 21.311567c0 11.749761 9.531806 21.311567 21.311567 21.311567h21.311567V853.501463h-21.311567zM639.869403 896.124597c11.749761 0 21.311567-9.561806 21.311567-21.311567 0-11.781761-9.561806-21.311567-21.311567-21.311567h-21.307568v42.623134h21.307568zM639.869403 832.189896c11.749761 0 21.311567-9.561806 21.311567-21.311567 0-11.781761-9.561806-21.311567-21.311567-21.311567h-21.307568v42.623134h21.307568zM639.869403 768.253195c11.749761 0 21.311567-9.561806 21.311567-21.311567 0-11.781761-9.561806-21.309567-21.311567-21.309567h-21.307568v42.623134h21.307568z" fill="#7F4545" /><path d="M755.429055 333.504026c-16.093673-9.529806-35.875271-15.435686-51.622951-15.435687-3.375931 0-6.967858 0.281994-10.655784 0.811984 13.437727 1.905961 28.343424 7.155855 40.967168 14.623703 21.687559 12.843739 33.623317 30.03139 33.623317 48.467015v578.086258c0 18.437625-11.937758 35.655276-33.623317 48.467015-12.623744 7.467848-27.531441 12.717742-40.967168 14.655703 3.687925 0.49999 7.281852 0.811984 10.655784 0.811983 15.74968 0 35.531278-5.937879 51.622951-15.467686 21.687559-12.81174 33.623317-30.03139 33.623317-48.467015V381.971041c0-18.435626-11.935758-35.623276-33.623317-48.467015zM371.848847 333.504026c-16.123672-9.529806-35.905271-15.435686-51.654951-15.435687-3.389931 0-6.967858 0.281994-10.655783 0.811984 13.437727 1.905961 28.343424 7.155855 40.999167 14.623703 21.65556 12.843739 33.591318 30.03139 33.591317 48.467015v578.086258c0 18.437625-11.937758 35.655276-33.591317 48.467015-12.655743 7.467848-27.56144 12.717742-40.999167 14.655703 3.687925 0.49999 7.265852 0.811984 10.655783 0.811983 15.74968 0 35.531278-5.937879 51.654951-15.467686 21.65556-12.81174 33.593318-30.03139 33.593317-48.467015V381.971041c0-18.435626-11.937758-35.623276-33.593317-48.467015z" fill="#FFFFFF" opacity=".1" /></svg>