<?xml version="1.0" standalone="no"?><!DOCTYPE svg PUBLIC "-//W3C//DTD SVG 1.1//EN" "http://www.w3.org/Graphics/SVG/1.1/DTD/svg11.dtd"><svg class="icon" width="128px" height="128.00px" viewBox="0 0 1024 1024" version="1.1" xmlns="http://www.w3.org/2000/svg"><path d="M955.99 233.086c6.75-14.808 16.808-38.3 25.274-63.73 21.088-63.264 20.87-104.468-0.624-125.962-10.872-10.902-26.958-16.4-47.828-16.4-45.924 0-111.778 27.336-141.894 41.048C771.362 44.018 729.466 0.156 684.2 0.156c-4.154 0-8.28 0.376-12.278 1.094-40.238 7.28-69.198 65.386-105.716 146.674-6.844 15.246-15.434 34.366-21.964 46.642-0.498-0.75-0.966-1.5-1.42-2.218-11.746-18.432-31.396-49.266-68.324-49.266-7.31 0-14.932 1.28-22.666 3.748-47.25 15.214-67.604 95.408-87.536 190.848-1.766 8.404-3.702 17.684-5.592 26.086-13.652-17.62-34.49-38.3-68.056-38.3-5.81 0-11.826 0.656-17.886 1.968-23.618 5.06-40.502 34.022-58.294 99.938-11.684 43.33-23.462 102.534-35.038 175.978-19.57 124.366-31.99 248.768-32.114 250.018l-2.562 25.898 25.882-2.56c1.25-0.124 125.65-12.558 250.018-32.118 73.446-11.558 132.68-23.368 176.008-35.05 65.918-17.778 94.878-34.678 99.94-58.294 4.904-22.962 0.594-43.956-12.778-62.452-6.998-9.652-15.588-17.304-23.588-23.492 8.406-1.876 17.684-3.81 26.118-5.56 95.41-19.962 175.634-40.298 190.816-87.566 7.188-22.37 3.876-43.518-9.59-61.138-10.308-13.528-24.492-22.554-35.926-29.834-0.688-0.468-1.438-0.938-2.218-1.438 12.278-6.53 31.398-15.122 46.642-21.962 81.288-36.52 139.394-65.478 146.674-105.716 9.058-49.926-40.582-97.694-66.762-118.998z" fill="#FECD57" /><path d="M955.99 233.086c6.75-14.808 16.808-38.3 25.274-63.73 21.088-63.264 20.87-104.468-0.624-125.962-10.872-10.902-26.958-16.4-47.828-16.4-7.28 0-15.09 0.688-23.148 1.906 11.622 2.466 21.118 7.278 28.334 14.494 21.494 21.494 21.712 62.7 0.624 125.962-8.498 25.43-18.556 48.922-25.304 63.73 26.21 21.304 75.852 69.072 66.792 118.994-7.278 40.238-65.384 69.198-146.672 105.716-15.246 6.842-34.366 15.434-46.642 21.962 0.748 0.5 1.498 0.968 2.216 1.438 11.402 7.28 25.618 16.306 35.928 29.834 13.464 17.622 16.776 38.77 9.592 61.138-15.184 47.268-95.41 67.604-190.85 87.566-8.436 1.75-17.682 3.686-26.084 5.56 7.964 6.188 16.554 13.84 23.554 23.492 13.402 18.496 17.712 39.488 12.778 62.452-5.062 23.618-33.99 40.518-99.94 58.294-43.33 11.684-102.546 23.492-175.978 35.05-97.172 15.278-194.378 26.21-232.834 30.304l-0.422 4.374 25.882-2.56c1.25-0.124 125.65-12.558 250.018-32.118 73.446-11.558 132.68-23.368 176.008-35.05 65.918-17.778 94.878-34.678 99.94-58.294 4.904-22.962 0.594-43.956-12.778-62.452-6.998-9.652-15.588-17.304-23.588-23.492 8.406-1.876 17.684-3.81 26.118-5.56 95.41-19.962 175.634-40.298 190.816-87.566 7.188-22.37 3.876-43.518-9.59-61.138-10.308-13.528-24.492-22.554-35.926-29.834-0.688-0.468-1.438-0.938-2.218-1.438 12.278-6.53 31.398-15.122 46.642-21.962 81.288-36.52 139.394-65.478 146.674-105.716 9.056-49.922-40.584-97.69-66.764-118.994z" fill="#FFFFFF" opacity=".2" /><path d="M634.244 411.094c0-11.778-9.528-21.338-21.304-21.338a21.304 21.304 0 0 0-15.09 6.248L6.438 987.418a21.194 21.194 0 0 0-6.28 15.09c0 11.778 9.56 21.336 21.336 21.336 5.888 0 11.214-2.376 15.074-6.246l591.43-591.416a21.216 21.216 0 0 0 6.246-15.088z" fill="#F5BA45" /></svg>