<?xml version="1.0" standalone="no"?><!DOCTYPE svg PUBLIC "-//W3C//DTD SVG 1.1//EN" "http://www.w3.org/Graphics/SVG/1.1/DTD/svg11.dtd"><svg class="icon" width="128px" height="128.00px" viewBox="0 0 1024 1024" version="1.1" xmlns="http://www.w3.org/2000/svg"><path d="M640.016 0v492.468H384.046V0C210.922 54.376 85.328 216.062 85.328 407.124V1024h853.344V407.124c0-191.03-125.562-352.748-298.656-407.124z" fill="#E6E9ED" /><path d="M384.046 108.468h255.968v384H384.046z" fill="#CCD1D9" /><path d="M512.046 343.124c-35.312 0-64.032-28.718-64.032-64 0-35.312 28.718-64 64.032-64 35.25 0 63.968 28.688 63.968 64 0.002 35.282-28.718 64-63.968 64z" fill="#FFCE54" /><path d="M512.046 193.782c-47.156 0-85.376 38.218-85.376 85.344s38.218 85.312 85.376 85.312c47.124 0 85.312-38.188 85.312-85.312s-38.186-85.344-85.312-85.344z m0 128c-23.562 0-42.688-19.124-42.688-42.656s19.124-42.688 42.688-42.688c23.5 0 42.624 19.156 42.624 42.688s-19.124 42.656-42.624 42.656z" fill="#434A54" /><path d="M959.984 682.656h-896c-11.75 0-21.312 9.532-21.312 21.344 0 11.782 9.562 21.344 21.312 21.344h896c11.812 0 21.344-9.562 21.344-21.344a21.314 21.314 0 0 0-21.344-21.344z" fill="#CCD1D9" /><path d="M511.984 810.656c-47.124 0-85.312 38.218-85.312 85.344v128h170.656v-128c0-47.124-38.188-85.344-85.344-85.344z" fill="#656D78" /></svg>