<?xml version="1.0" standalone="no"?><!DOCTYPE svg PUBLIC "-//W3C//DTD SVG 1.1//EN" "http://www.w3.org/Graphics/SVG/1.1/DTD/svg11.dtd"><svg class="icon" width="128px" height="128.00px" viewBox="0 0 1024 1024" version="1.1" xmlns="http://www.w3.org/2000/svg"><path d="M42.674 789.292c-11.78 0-21.342-9.562-21.342-21.31V127.992c0-11.75 9.562-21.312 21.342-21.312h938.62c11.75 0 21.344 9.562 21.344 21.312v639.99c0 11.748-9.594 21.31-21.344 21.31H42.674z" fill="#FC6E51" /><path d="M981.292 85.338H42.674C19.112 85.338 0.02 104.43 0.02 127.992v639.99c0 23.56 19.092 42.684 42.654 42.684h938.62c23.562 0 42.688-19.124 42.688-42.684V127.992c-0.002-23.562-19.126-42.654-42.69-42.654z m0 682.644H42.674V127.992h938.62v639.99z" fill="#E6E9ED" /><path d="M682.65 938.662H341.32l42.56-170.492 256.146-0.062z" fill="#CCD1D9" /><path d="M31.894 682.674h960.18v122.054H31.894z" fill="#E6E9ED" /><path d="M533.31 746.67c0 11.75-9.562 21.312-21.31 21.312-11.812 0-21.344-9.562-21.344-21.312 0-11.81 9.532-21.374 21.344-21.374 11.748 0 21.31 9.564 21.31 21.374z" fill="#434A54" /><path d="M682.65 895.976H341.32c-11.782 0-21.312 9.562-21.312 21.31 0 11.812 9.53 21.376 21.312 21.376h341.332c11.782 0 21.344-9.562 21.344-21.376-0.002-11.746-9.564-21.31-21.346-21.31z" fill="#E6E9ED" /><path d="M556.374 554.678H106.672c-11.78 0-21.342-9.562-21.342-21.358 0-11.782 9.562-21.344 21.342-21.344h449.702c11.782 0 21.312 9.562 21.312 21.344 0 11.796-9.532 21.358-21.312 21.358zM556.374 469.322H106.672c-11.78 0-21.342-9.562-21.342-21.344s9.562-21.31 21.342-21.31h449.702c11.782 0 21.312 9.53 21.312 21.31s-9.532 21.344-21.312 21.344zM556.374 383.982H106.672c-11.78 0-21.342-9.532-21.342-21.312 0-11.78 9.562-21.342 21.342-21.342h449.702c11.782 0 21.312 9.562 21.312 21.342a21.3 21.3 0 0 1-21.312 21.312zM556.374 298.674H106.672c-11.78 0-21.342-9.562-21.342-21.344s9.562-21.344 21.342-21.344h449.702c11.782 0 21.312 9.562 21.312 21.344s-9.532 21.344-21.312 21.344z" fill="#E9573F" /><path d="M895.984 298.674H639.994c-11.812 0-21.342-9.562-21.342-21.344s9.53-21.344 21.342-21.344h255.99c11.782 0 21.312 9.562 21.312 21.344s-9.53 21.344-21.312 21.344z" fill="#434A54" /><path d="M895.984 383.982H639.994c-11.812 0-21.342-9.532-21.342-21.312 0-11.78 9.53-21.342 21.342-21.342h255.99c11.782 0 21.312 9.562 21.312 21.342a21.298 21.298 0 0 1-21.312 21.312z" fill="#434A54" /><path d="M895.984 469.322H639.994c-11.812 0-21.342-9.562-21.342-21.344s9.53-21.31 21.342-21.31h255.99c11.782 0 21.312 9.53 21.312 21.31s-9.53 21.344-21.312 21.344z" fill="#434A54" /><path d="M895.984 554.678H639.994c-11.812 0-21.342-9.562-21.342-21.358 0-11.782 9.53-21.344 21.342-21.344h255.99c11.782 0 21.312 9.562 21.312 21.344 0 11.796-9.53 21.358-21.312 21.358z" fill="#434A54" /><path d="M534.03 556.99l-1.812-0.5c-26.466-7.124-35.404-13.92-47.184-18.42-41.812-15.938-52.686-27.406-55.466-32.812-0.094-0.188-0.156-0.406-0.25-0.594l-0.344-48.56-99.122-1.124-99.122 1.124-0.344 48.56c-0.094 0.188-0.188 0.406-0.282 0.594-2.782 5.406-13.656 16.876-55.436 32.812-11.78 4.5-20.75 11.294-47.216 18.42l-1.812 0.5c-24.092 8-40.31 30.31-40.31 55.56v27.438h489.014v-27.438c-0.002-25.25-16.22-47.56-40.314-55.56z" fill="#FFCE54" /><path d="M467.376 362.172c0 89.37-85.184 171.618-137.526 171.618s-137.558-82.248-137.558-171.618c0-89.374 61.592-148.34 137.558-148.34s137.526 58.966 137.526 148.34z" fill="#EAC6BB" /><path d="M401.348 213.832s-3.188-16.062 25.28-33.154c12.062-7.25-180.744-41.624-229.116 80.214-18.186 45.75-4.75 113.122-4.75 113.122l41.906-75.122s45.686 10.654 95.184 10.654c49.466 0 96.808-10.654 96.808-10.654l40.716 63.466s15.656-60.936-1.876-101.342c-17.53-40.402-64.152-47.184-64.152-47.184z" fill="#965353" /></svg>