<?xml version="1.0" standalone="no"?><!DOCTYPE svg PUBLIC "-//W3C//DTD SVG 1.1//EN" "http://www.w3.org/Graphics/SVG/1.1/DTD/svg11.dtd"><svg class="icon" width="128px" height="128.00px" viewBox="0 0 1024 1024" version="1.1" xmlns="http://www.w3.org/2000/svg"><path d="M789.308 469.312h42.688v156.434h-42.688zM192.006 469.312h42.656v156.434H192.006zM298.66 999.992v-104c0-2.624 3.844-7.188 6.438-7.624l171.826-28.624c8.812-1.468 21.594-2.312 35.078-2.312 13.468 0 26.25 0.844 35.062 2.312l171.84 28.624c2.562 0.438 6.406 5 6.406 7.624v104h42.688v-104c0-23.468-18.938-45.844-42.094-49.684l-171.808-28.656c-11.594-1.906-26.844-2.876-42.092-2.876-15.266 0-30.516 0.968-42.094 2.876l-171.826 28.656c-23.14 3.84-42.078 26.214-42.078 49.684v104h42.654z" fill="#AAB2BC" /><path d="M490.658 707.996h42.67v267.09h-42.67z" fill="#CCD1D9" /><path d="M277.334 1002.648c-23.532 0-42.672-19.156-42.672-42.656 0-23.532 19.14-42.688 42.672-42.688 23.53 0 42.67 19.156 42.67 42.688 0 23.5-19.14 42.656-42.67 42.656z" fill="#656D78" /><path d="M277.334 895.992c-35.344 0-64 28.624-64 64 0 35.344 28.656 64 64 64 35.342 0 64-28.656 64-64-0.002-35.374-28.658-64-64-64z m0 85.312c-11.766 0-21.328-9.562-21.328-21.312 0-11.782 9.562-21.344 21.328-21.344 11.764 0 21.328 9.562 21.328 21.344-0.002 11.75-9.564 21.312-21.328 21.312z" fill="#434A54" /><path d="M512 1002.648c-23.532 0-42.672-19.156-42.672-42.656 0-23.532 19.14-42.688 42.672-42.688 23.514 0 42.656 19.156 42.656 42.688 0 23.5-19.14 42.656-42.656 42.656z" fill="#656D78" /><path d="M512 895.992c-35.36 0-64 28.624-64 64 0 35.344 28.64 64 64 64 35.342 0 64-28.656 64-64 0-35.374-28.656-64-64-64z m0 85.312c-11.766 0-21.344-9.562-21.344-21.312 0-11.782 9.578-21.344 21.344-21.344 11.75 0 21.328 9.562 21.328 21.344 0 11.75-9.578 21.312-21.328 21.312z" fill="#434A54" /><path d="M746.652 1002.648c-23.532 0-42.656-19.156-42.656-42.656 0-23.532 19.124-42.688 42.656-42.688s42.656 19.156 42.656 42.688c0 23.5-19.124 42.656-42.656 42.656z" fill="#656D78" /><path d="M746.652 895.992c-35.344 0-64 28.624-64 64 0 35.344 28.656 64 64 64s64-28.656 64-64c0-35.374-28.656-64-64-64z m0 85.312c-11.75 0-21.344-9.562-21.344-21.312 0-11.782 9.594-21.344 21.344-21.344 11.782 0 21.344 9.562 21.344 21.344 0 11.75-9.562 21.312-21.344 21.312zM426.658 725.308c0 11.782-9.546 21.344-21.328 21.344-11.78 0-21.328-9.562-21.328-21.344s9.546-21.312 21.328-21.312 21.328 9.532 21.328 21.312zM639.996 725.308c0 11.782-9.562 21.344-21.34 21.344-11.782 0-21.344-9.562-21.344-21.344s9.562-21.312 21.344-21.312c11.778 0 21.34 9.532 21.34 21.312z" fill="#434A54" /><path d="M767.996 703.996c0 11.75-9.562 21.312-21.344 21.312h-469.32c-11.782 0-21.328-9.562-21.328-21.312V21.32c0-11.782 9.546-21.312 21.328-21.312h469.32c11.782 0 21.344 9.53 21.344 21.312v682.676z" fill="#E6E9ED" /><path d="M831.996 703.996c0 11.75-9.562 21.312-21.344 21.312H213.334c-11.782 0-21.328-9.562-21.328-21.312v-106.684c0-11.782 9.546-21.312 21.328-21.312h597.318c11.782 0 21.344 9.532 21.344 21.312v106.684z" fill="#656D78" /><path d="M341.332 597.312c11.78 0 21.328-9.532 21.328-21.312h-42.656c0 11.782 9.546 21.312 21.328 21.312zM256.004 597.312c11.782 0 21.328-9.532 21.328-21.312H234.66c0.002 11.782 9.564 21.312 21.344 21.312zM426.658 597.312c11.782 0 21.344-9.532 21.344-21.312h-42.672c0 11.782 9.546 21.312 21.328 21.312zM512 597.312c11.78 0 21.328-9.532 21.328-21.312h-42.67c0 11.782 9.562 21.312 21.342 21.312zM597.312 597.312c11.782 0 21.344-9.532 21.344-21.312H576a21.3 21.3 0 0 0 21.312 21.312zM682.652 597.312c11.782 0 21.344-9.532 21.344-21.312h-42.688c0 11.782 9.564 21.312 21.344 21.312zM767.996 597.312A21.3 21.3 0 0 0 789.308 576h-42.656c0 11.782 9.562 21.312 21.344 21.312z" fill="#434A54" /><path d="M405.33 362.658c0 11.782-9.546 21.342-21.328 21.342s-21.344-9.562-21.344-21.342 9.562-21.342 21.344-21.342 21.328 9.56 21.328 21.342zM490.658 362.658c0 11.782-9.546 21.342-21.328 21.342-11.78 0-21.328-9.562-21.328-21.342s9.546-21.342 21.328-21.342c11.78 0 21.328 9.56 21.328 21.342zM576 362.658c0 11.782-9.562 21.342-21.344 21.342s-21.328-9.562-21.328-21.342 9.546-21.342 21.328-21.342S576 350.876 576 362.658zM661.308 362.658c0 11.782-9.532 21.342-21.312 21.342-11.778 0-21.34-9.562-21.34-21.342s9.562-21.342 21.34-21.342c11.782 0 21.312 9.56 21.312 21.342zM448.002 277.316c0 11.782-9.562 21.344-21.344 21.344s-21.328-9.562-21.328-21.344 9.546-21.312 21.328-21.312 21.344 9.53 21.344 21.312zM533.328 277.316c0 11.782-9.546 21.344-21.328 21.344s-21.344-9.562-21.344-21.344 9.562-21.312 21.344-21.312c11.782 0 21.328 9.53 21.328 21.312zM618.656 277.316c0 11.782-9.562 21.344-21.344 21.344S576 289.096 576 277.316s9.532-21.312 21.312-21.312 21.344 9.53 21.344 21.312zM448.002 448c0 11.782-9.562 21.312-21.344 21.312s-21.328-9.53-21.328-21.312 9.546-21.344 21.328-21.344 21.344 9.564 21.344 21.344zM533.328 448c0 11.782-9.546 21.312-21.328 21.312s-21.344-9.53-21.344-21.312 9.562-21.344 21.344-21.344c11.782 0.002 21.328 9.564 21.328 21.344zM618.656 448c0 11.782-9.562 21.312-21.344 21.312S576 459.782 576 448s9.532-21.344 21.312-21.344 21.344 9.564 21.344 21.344zM277.334 490.656h-128c-11.782 0-21.328-9.562-21.328-21.342s9.546-21.312 21.328-21.312h127.998c11.78 0 21.328 9.532 21.328 21.312 0 11.78-9.546 21.342-21.326 21.342zM746.652 0.008h-469.32c-11.782 0-21.328 9.53-21.328 21.312v127.996c0 11.782 9.546 21.344 21.328 21.344h469.32c11.782 0 21.344-9.562 21.344-21.344V21.32c0-11.78-9.562-21.312-21.344-21.312zM874.648 490.656h-127.996c-11.782 0-21.344-9.562-21.344-21.342s9.562-21.312 21.344-21.312h127.996c11.782 0 21.344 9.532 21.344 21.312 0 11.78-9.562 21.342-21.344 21.342z" fill="#CCD1D9" /></svg>