<?xml version="1.0" standalone="no"?><!DOCTYPE svg PUBLIC "-//W3C//DTD SVG 1.1//EN" "http://www.w3.org/Graphics/SVG/1.1/DTD/svg11.dtd"><svg class="icon" width="128px" height="128.00px" viewBox="0 0 1024 1024" version="1.1" xmlns="http://www.w3.org/2000/svg"><path d="M362.69 170.88c0 11.782-9.562 21.312-21.344 21.312s-21.344-9.532-21.344-21.312 9.562-21.344 21.344-21.344 21.344 9.564 21.344 21.344z"  /><path d="M149.35 405.534V170.88c0-11.782 9.562-21.344 21.344-21.344H512c11.782 0 21.344 9.562 21.344 21.344v234.652H149.35z" fill="#5D9CEC" /><path d="M512 128.194H170.694c-23.562 0-42.688 19.094-42.688 42.688v255.964h426.682V170.88c0-23.592-19.094-42.686-42.688-42.686z m0 255.996H170.694V170.88H512v213.31z" fill="#CCD1D9" /><path d="M575.998 384.19H106.694c-11.782 0-21.344 9.562-21.344 21.344s9.562 21.312 21.344 21.312h469.304c11.782 0 21.344-9.532 21.344-21.312s-9.562-21.344-21.344-21.344z" fill="#E6E9ED" /><path d="M336.002 384.19h-79.998L341.346 170.88h79.966z" fill="#FFFFFF" opacity=".1" /><path d="M639.996 426.44h341.34v469.368h-341.34zM64.006 895.806c-11.78 0-21.31-9.562-21.31-21.376V448.596c0-11.782 9.532-21.344 21.31-21.344 11.812 0 21.344 9.562 21.344 21.344v425.836c0 11.812-9.532 21.374-21.344 21.374z" fill="#FFD2A6" /><path d="M639.996 661.124h341.34v42.686h-341.34z" fill="#F4BE8E" /><path d="M831.994 597.124H789.34c-11.782 0-21.344-9.562-21.344-21.312 0-11.812 9.562-21.376 21.344-21.376h42.654c11.812 0 21.344 9.562 21.344 21.376 0 11.75-9.532 21.312-21.344 21.312zM831.994 810.434H789.34c-11.782 0-21.344-9.5-21.344-21.312 0-11.75 9.562-21.312 21.344-21.312h42.654c11.812 0 21.344 9.562 21.344 21.312 0 11.812-9.532 21.312-21.344 21.312z" fill="#434A54" /><path d="M725.34 234.442h85.342v213.342H725.34z" fill="#5D9CEC" /><path d="M810.682 234.442h85.31v213.342h-85.31z" fill="#48CFAD" /><path d="M703.996 469.124c-11.782 0-21.312-9.56-21.312-21.342v-20.532a21.3 21.3 0 0 1 21.312-21.312c11.812 0 21.344 9.532 21.344 21.312v20.532a21.33 21.33 0 0 1-21.344 21.342z" fill="#965353" /><path d="M917.336 469.124c-11.782 0-21.344-9.56-21.344-21.342v-20.532c0-11.782 9.562-21.312 21.344-21.312s21.344 9.532 21.344 21.312v20.532c0 11.782-9.562 21.342-21.344 21.342z" fill="#965353" /><path d="M1002.68 469.124H21.352c-11.782 0-21.344-9.56-21.344-21.342s9.562-21.344 21.344-21.344H1002.68c11.782 0 21.312 9.562 21.312 21.344s-9.532 21.342-21.312 21.342z" fill="#A85D5D" /></svg>