<?xml version="1.0" standalone="no"?><!DOCTYPE svg PUBLIC "-//W3C//DTD SVG 1.1//EN" "http://www.w3.org/Graphics/SVG/1.1/DTD/svg11.dtd"><svg class="icon" width="128px" height="128.00px" viewBox="0 0 1024 1024" version="1.1" xmlns="http://www.w3.org/2000/svg"><path d="M597.302 256.004V0.01h-170.636v255.996s-149.34 42.656-149.34 170.654v597.332h469.348V426.66c0-127.998-149.372-170.656-149.372-170.656z" fill="#9ED36A" /><path d="M426.666 0.01h170.636v85.326h-170.636z" fill="#EC5564" /><path d="M277.326 575.998v447.992h469.348V575.998H277.326z" fill="#8AC054" /><path d="M511.976 21.338c11.782 0 21.344-9.546 21.344-21.328h-42.656c0 11.782 9.532 21.328 21.312 21.328z" fill="#D94452" /><path d="M512.008 384.002c-82.686 0-149.714 57.296-149.714 127.982v384.008h299.384V511.984c0-70.686-67-127.982-149.67-127.982z" fill="#EC5564" /><path d="M597.302 661.308c0 58.938-38.188 106.688-85.326 106.688-47.124 0-85.31-47.75-85.31-106.688 0-58.874 38.188-106.652 85.31-106.652 47.14 0 85.326 47.78 85.326 106.652z" fill="#424953" /><path d="M511.976 554.656c-3.594 0-7.156 0.312-10.656 0.844 42.092 6.562 74.67 51.436 74.67 105.808 0 54.406-32.578 99.25-74.67 105.812 3.5 0.562 7.062 0.876 10.656 0.876 47.138 0 85.326-47.75 85.326-106.688 0-58.872-38.186-106.652-85.326-106.652zM597.302 256.004V0.01h-42.624v255.996s149.31 42.656 149.31 170.654v597.332h42.686V426.66c0-127.998-149.372-170.656-149.372-170.656z" fill="#FFFFFF" opacity=".2" /></svg>