<?xml version="1.0" standalone="no"?><!DOCTYPE svg PUBLIC "-//W3C//DTD SVG 1.1//EN" "http://www.w3.org/Graphics/SVG/1.1/DTD/svg11.dtd"><svg class="icon" width="128px" height="128.00px" viewBox="0 0 1024 1024" version="1.1" xmlns="http://www.w3.org/2000/svg"><path d="M890.148 478.312c-10.688-38.404-38.532-87.874-110.5-105.404l-10.124 41.438c41.248 10.062 67.874 34.998 79.154 74.154 9.032 31.342 4.906 60.53 4.876 60.81l42.188 6.406c0.218-1.53 5.532-37.406-5.594-77.404zM578.28 440.72c29.404 38.81-6.376 118.09-22.624 145.372l18.312 10.968 18.312 10.938c0.718-1.188 17.936-30.156 29.466-67.062 16.438-52.56 13.156-96.124-9.438-125.964L578.28 440.72z" fill="#8CC153" /><path d="M171.79 64.292c163.402 301.93 569.892 355.274 569.892 355.274C603.684 80.508 171.79 64.292 171.79 64.292z" fill="#8CC153" /><path d="M725.34 767.712c0 106.028-66.876 191.996-149.342 191.996s-149.34-85.968-149.34-191.996c0-106.03 66.874-191.996 149.34-191.996s149.342 85.968 149.342 191.996zM1023.988 725.056c0 106.03-66.874 191.996-149.34 191.996-82.468 0-149.308-85.966-149.308-191.996 0-106.058 66.84-191.996 149.308-191.996 82.468 0 149.34 85.938 149.34 191.996z" fill="#434A54" /><path d="M874.648 533.06a117.2 117.2 0 0 0-21.312 1.938c72.342 13.312 127.996 93.31 127.996 190.058 0 96.716-55.654 176.714-127.996 190.028a117.22 117.22 0 0 0 21.312 1.968c82.466 0 149.34-85.966 149.34-191.996 0-106.058-66.872-191.996-149.34-191.996zM576.998 575.716a118 118 0 0 0-21.344 1.968c72.374 13.282 127.998 93.31 127.998 190.028 0 96.714-55.624 176.714-127.998 190.028a117.82 117.82 0 0 0 21.344 1.968c82.466 0 149.31-85.968 149.31-191.996s-66.844-191.996-149.31-191.996z" fill="#FFFFFF" opacity=".1" /><path d="M1003.676 362.44v-0.032c-213.34-10.188-413.584 42.562-422.022 44.812l0.156 0.532C215.568 349.876 0.012 698.338 0.012 698.338c306.648 42.124 535.144-174.934 606.64-253.338 48.968-11.654 219.622-48.342 394.992-39.966v-0.032c0.344 0 0.656 0.062 1 0.062 11.782 0 21.344-9.562 21.344-21.344 0-11.436-9.03-20.75-20.312-21.28z" fill="#A0D468" /></svg>