<?xml version="1.0" standalone="no"?><!DOCTYPE svg PUBLIC "-//W3C//DTD SVG 1.1//EN" "http://www.w3.org/Graphics/SVG/1.1/DTD/svg11.dtd"><svg class="icon" width="128px" height="128.00px" viewBox="0 0 1024 1024" version="1.1" xmlns="http://www.w3.org/2000/svg"><path d="M633.626 561.772a21.294 21.294 0 0 0-15.782-6.968H406.148a21.276 21.276 0 0 0-15.812 7 21.17 21.17 0 0 0-5.406 16.438l42.656 426.552c1.062 10.906 10.25 19.188 21.218 19.188h127.95c10.968 0 20.156-8.344 21.218-19.282l41.094-426.522c0.592-6-1.376-11.938-5.44-16.406z" fill="#DA4453" /><path d="M412.428 853.39l15.156 151.402c1.062 10.906 10.25 19.188 21.218 19.188h127.95c10.968 0 20.156-8.344 21.218-19.282l14.594-151.308H412.428z" fill="#434A54" /><path d="M712.092 315.184c-7.812-36.436-28.216-72.374-60.592-106.842-32.874-34.966-51.436-75.81-55.216-121.372-2.844-34.594 4.312-59.218 4.376-59.374a21.346 21.346 0 0 0-5.188-21.186A21.282 21.282 0 0 0 574.378 0.848c-70.262 20.062-123.762 52.78-158.98 97.184-24.188 30.5-39.968 66.75-47.124 108.122-0.062-0.094-0.124-0.188-0.218-0.282a21.32 21.32 0 0 0-36.186 4.876c-17.906 41.188-25.688 81.56-23.156 119.998 2.312 35.062 13.062 67.748 31.938 97.216 20 31.154 48.592 57.498 82.748 76.216 31.874 17.468 67.716 27.468 100.776 28.124 1.624 0.062 3.25 0.062 4.876 0.062 30.39 0 66.016-12 97.766-32.938 34.186-22.562 61.058-53.624 75.684-87.436 13.464-31.152 16.684-63.712 9.59-96.806z" fill="#F6BB42" /><path d="M596.158 340.684c-38.718-45.906-55.672-91.53-55.828-91.936a21.302 21.302 0 0 0-15.062-13.468 21.224 21.224 0 0 0-19.498 5.094c-43.092 40.062-72 78.436-86.03 114.06-12.688 32.28-13.594 62.78-2.688 90.592 10.156 25.906 30.874 49.03 59.874 66.936 15.594 9.624 39.028 20.344 47.748 20.376h0.032c2.532 0 5.062-0.468 7.438-1.344 27.454-10.218 75.922-44.938 88.984-94.624 6.03-22.97 6.624-58.25-24.97-95.686z" fill="#FFCE54" /><path d="M662.062 469.492H363.492c-11.782 0-21.342 9.532-21.342 21.312v85.31c0 11.782 9.562 21.344 21.342 21.344h298.57c11.75 0 21.312-9.562 21.312-21.344v-85.31c0.002-11.78-9.562-21.312-21.312-21.312z" fill="#ED5564" /><path d="M597.284 490.804c11.782 0 21.344-9.532 21.344-21.312h-42.656a21.296 21.296 0 0 0 21.312 21.312zM511.99 490.804c11.778 0 21.34-9.532 21.34-21.312h-42.654a21.3 21.3 0 0 0 21.314 21.312zM426.71 490.804c11.75 0 21.312-9.532 21.312-21.312h-42.656c0 11.782 9.562 21.312 21.344 21.312z" fill="#DA4453" /></svg>