<?xml version="1.0" standalone="no"?><!DOCTYPE svg PUBLIC "-//W3C//DTD SVG 1.1//EN" "http://www.w3.org/Graphics/SVG/1.1/DTD/svg11.dtd"><svg class="icon" width="128px" height="128.00px" viewBox="0 0 1024 1024" version="1.1" xmlns="http://www.w3.org/2000/svg"><path d="M597.34 42.698c-11.778 0-21.34 9.53-21.34 21.312v445.334h42.652V64.01a21.298 21.298 0 0 0-21.312-21.312zM426.658 170.694a21.3 21.3 0 0 0-21.312 21.312V637.34h42.656V192.006c0-11.78-9.562-21.312-21.344-21.312z" fill="#A0D468" /><path d="M522.656 677.528h106.684V199.132l-106.684-71.124zM501.344 762.84H394.66V284.474l106.684-71.124z" fill="#8CC153" /><path d="M661.34 490.688c0 11.782-9.562 21.312-21.344 21.312s-21.344-9.53-21.344-21.312 9.562-21.344 21.344-21.344 21.344 9.564 21.344 21.344zM405.346 490.688c0 11.782-9.562 21.312-21.344 21.312s-21.342-9.53-21.342-21.312 9.562-21.344 21.342-21.344 21.344 9.564 21.344 21.344z" fill="#F6BB42" /><path d="M565.344 549.5h-106.686V71.134L565.344 0.01z" fill="#A0D468" /><path d="M576 1002.676c0 11.782-9.562 21.312-21.344 21.312s-21.312-9.532-21.312-21.312c0-11.778 9.532-21.34 21.312-21.34S576 990.898 576 1002.676z" fill="#F6BB42" /><path d="M533.344 1002.676c0 11.782-9.562 21.312-21.344 21.312-11.78 0-21.342-9.532-21.342-21.312 0-11.778 9.562-21.34 21.342-21.34 11.782 0 21.344 9.562 21.344 21.34z" fill="#F6BB42" /><path d="M490.658 1002.676a21.3 21.3 0 0 1-21.312 21.312c-11.78 0-21.342-9.532-21.342-21.312 0-11.778 9.562-21.34 21.342-21.34s21.312 9.562 21.312 21.34z" fill="#F6BB42" /><path d="M810.648 725.34c0 153.152-133.714 277.336-298.648 277.336S213.35 878.492 213.35 725.34C213.35 482.688 512 448 512 448s298.648 34.688 298.648 277.34z" fill="#FFCE54" /><path d="M512 448s-7.968 0.938-21.342 3.532c68.342 13.376 277.338 70.812 277.338 273.808 0 146.496-122.344 266.464-277.338 276.618 7.062 0.468 14.156 0.718 21.342 0.718 164.934 0 298.648-124.184 298.648-277.336C810.648 482.688 512 448 512 448z" fill="#FFFFFF" opacity=".2" /></svg>