<?xml version="1.0" standalone="no"?><!DOCTYPE svg PUBLIC "-//W3C//DTD SVG 1.1//EN" "http://www.w3.org/Graphics/SVG/1.1/DTD/svg11.dtd"><svg class="icon" width="128px" height="128.00px" viewBox="0 0 1024 1024" version="1.1" xmlns="http://www.w3.org/2000/svg"><path d="M789.3 405.316c0 212.086-171.9 383.988-383.97 383.988-212.072 0-383.988-171.902-383.988-383.988 0-212.056 171.916-383.988 383.988-383.988C617.4 21.33 789.3 193.26 789.3 405.316z" fill="#5D9CEC" /><path d="M691.928 118.7C615.37 42.172 513.608 0.016 405.33 0.016 297.066 0.016 195.288 42.172 118.728 118.7 42.17 195.26 0.014 297.07 0.014 405.316c0 108.278 42.156 210.054 118.714 286.618 76.56 76.558 178.338 118.71 286.602 118.71 108.278 0 210.04-42.152 286.598-118.71 76.562-76.562 118.714-178.338 118.714-286.618 0-108.246-42.152-210.056-118.714-286.616z m-199.524 638.792a362.772 362.772 0 0 1-65.732 9.844v-138.59h121.606a870.288 870.288 0 0 1-10.922 30.938c-18.358 48.684-36.904 83.558-44.952 97.808z m-219.086-97.808a839.544 839.544 0 0 1-10.922-30.938h121.606v138.59a362.744 362.744 0 0 1-65.732-9.844c-8.048-14.25-26.594-49.124-44.952-97.808zM43.358 427.19h138.916c1.954 58.154 11.376 112.278 23.25 158.9H90.792c-27.812-48.214-44.092-102.34-47.434-158.9zM318.27 53.14a362.594 362.594 0 0 1 65.732-9.842v139.12h-121.778a822.34 822.34 0 0 1 11.094-31.436c18.358-48.688 36.904-83.562 44.952-97.842z m219.086 97.84a801.054 801.054 0 0 1 11.078 31.436h-121.762v-139.12c22.36 1.28 44.342 4.592 65.716 9.842 8.064 14.282 26.61 49.156 44.968 97.842z m23.828 74.092c12.374 46.092 22.56 100.622 24.56 159.432h-159.072v-159.432h134.512z m-177.182 0v159.432h-159.072c2-58.81 12.154-113.34 24.544-159.432h134.528z m-201.76 159.432H43.294c3.186-56.748 19.388-111.06 47.186-159.432h114.902c-11.874 46.78-21.296 101.092-23.14 159.432z m42.734 42.686h159.026v158.9h-134.386c-12.376-45.902-22.546-100.276-24.64-158.9z m201.696 158.9v-158.9h159.01c-2.094 58.624-12.25 112.998-24.624 158.9h-134.386z m201.728-158.9h138.902c-3.344 56.56-19.624 110.684-47.438 158.9h-114.714c11.876-46.622 21.282-100.746 23.25-158.9z m0.032-42.686c-1.844-58.342-11.282-112.654-23.156-159.432h114.902c27.812 48.374 44 102.684 47.188 159.432h-138.934z m63.026-202.088h-98.214c-5.468-17.468-11.032-33.436-16.406-47.592a830.984 830.984 0 0 0-26.342-62.03c40.998 17.906 78.686 43.498 111.278 76.092a370.192 370.192 0 0 1 29.684 33.53z m-431.296-109.62a836.408 836.408 0 0 0-26.36 62.03 852.38 852.38 0 0 0-16.374 47.592H119.212A365.438 365.438 0 0 1 148.9 148.888c32.576-32.594 70.28-58.186 111.262-76.092zM119.62 628.746h97.982a828.604 828.604 0 0 0 16.202 47.062c9.188 24.246 18.328 45.122 26.36 62.028-40.982-17.906-78.686-43.496-111.262-76.09a366.06 366.06 0 0 1-29.282-33z m430.876 109.09a820.206 820.206 0 0 0 26.342-62.028c5.312-14 10.844-29.782 16.218-47.062h97.964a363.518 363.518 0 0 1-29.248 33c-32.59 32.594-70.278 58.184-111.276 76.09z" fill="#4A89DC" /><path d="M980.294 703.21a21.954 21.954 0 0 0-4.5-7.652l-42.094-45.968a21.226 21.226 0 0 0-15.716-6.938h-48.374c-4.718 0-9.312 1.562-13.032 4.438l-18.438 14.218H610.776l-18.406-14.218a21.452 21.452 0 0 0-13.032-4.438h-48.386c-5.984 0-11.704 2.5-15.734 6.938l-42.062 45.968a21.04 21.04 0 0 0-4.498 7.652c-49.296 148.152-56.812 242.96-22.984 289.868 14.578 20.218 36.264 30.906 62.702 30.906 22.966 0 55.464-11.468 79.872-65.968 6.688-14.906 11.25-29.714 14.156-40.714h244.118c2.906 11 7.468 25.808 14.156 40.714 24.406 54.5 56.904 65.968 79.872 65.968 26.468 0 48.124-10.688 62.718-30.906 33.806-46.906 26.306-141.714-22.974-289.868z" fill="#656D78" /><path d="M638.274 874.644m-42.656 0a42.656 42.656 0 1 0 85.312 0 42.656 42.656 0 1 0-85.312 0Z" fill="#CCD1D9" /><path d="M638.276 938.64c-35.282 0-64-28.714-64-63.996s28.718-64 64-64c35.28 0 63.996 28.718 63.996 64s-28.718 63.996-63.996 63.996z m0-85.34c-11.75 0-21.344 9.562-21.344 21.344 0 11.75 9.594 21.344 21.344 21.344s21.342-9.594 21.342-21.344c0-11.78-9.592-21.344-21.342-21.344z" fill="#AAB2BC" /><path d="M851.612 874.644c0 23.562-19.124 42.656-42.688 42.656-23.56 0-42.652-19.094-42.652-42.656s19.092-42.656 42.652-42.656c23.562 0 42.688 19.094 42.688 42.656z" fill="#CCD1D9" /><path d="M808.924 938.64c-35.278 0-63.996-28.714-63.996-63.996s28.718-64 63.996-64c35.312 0 64 28.718 64 64s-28.688 63.996-64 63.996z m0-85.34c-11.748 0-21.31 9.562-21.31 21.344 0 11.75 9.562 21.344 21.31 21.344 11.782 0 21.344-9.594 21.344-21.344 0-11.78-9.562-21.344-21.344-21.344z" fill="#AAB2BC" /><path d="M838.142 661.308H610.776v62.216h227.43z" fill="#434A54" /></svg>