<?xml version="1.0" standalone="no"?><!DOCTYPE svg PUBLIC "-//W3C//DTD SVG 1.1//EN" "http://www.w3.org/Graphics/SVG/1.1/DTD/svg11.dtd"><svg class="icon" width="128px" height="128.00px" viewBox="0 0 1024 1024" version="1.1" xmlns="http://www.w3.org/2000/svg"><path d="M821.092 232.73a21.336 21.336 0 0 1-30.188 0c-8.312-8.312-8.312-21.842 0-30.156a21.332 21.332 0 0 1 30.188 0c8.342 8.314 8.342 21.844 0 30.156z" fill="#AAB2BC" /><path d="M957.306 67.204c-185.934-185.934-407.802 74.998-407.802 74.998l90.53 90.528-90.53 90.528 150.902 150.872 90.498-90.528 90.528 90.528s261.776-220.994 75.874-406.926z m-60.78 180.62c-17.594 17.594-32.906 26.532-45.498 26.532-18.5 0-37.78-19.282-60.124-41.624l-0.938-0.938c-18.156-18.156-35.312-35.312-39.718-50.936-1.688-6.032-6.188-21.968 25.562-53.716 17.75-17.75 33.124-26.75 45.656-26.75 18.154 0 37.092 18.938 58.996 40.876l0.968 0.938c18.406 18.436 35.812 35.81 40.376 51.716 1.75 6.09 6.406 22.216-25.28 53.902z" fill="#FFCE54" /><path d="M896.526 127.14c-25.406-25.438-47.716-48.092-75.058-48.092-17.468 0.032-37 9.282-60.718 33-60.842 60.81-26.594 94.124 15.094 135.778 25.376 25.406 47.842 47.874 75.186 47.874 17.498 0 37.03-9.218 60.592-32.78 60.338-60.344 26.56-94.126-15.096-135.78z m4.156 79.81c-1.844 4.812-6.656 13.186-19.25 25.78-14.938 14.968-25.498 20.28-30.404 20.28-3.75 0-9.376-3.468-13.376-6.344-9.438-6.782-20.216-17.592-31.654-29.03l-0.938-0.938c-15.438-15.406-31.376-31.344-34.282-41.656-0.344-1.218-0.812-2.906 0.718-6.906 1.876-4.842 6.75-13.25 19.406-25.936 19.5-19.468 28.906-20.468 30.562-20.468 3.592 0 8.966 3.344 12.874 6.124 9.218 6.624 19.812 17.25 31.03 28.468l0.968 0.968c15.688 15.686 31.906 31.906 34.968 42.53 0.502 1.69 0.784 3.41-0.622 7.128z" fill="#F6BB42" /><path d="M549.504 262.916L43.752 768.668c-58.328 58.312-58.328 152.872 0 211.244 58.326 58.31 152.902 58.31 211.228 0l505.768-505.782-211.244-211.214z" fill="#A85D5D" /><path d="M760.748 474.13l-30.188-30.156-505.75 505.752c-53.202 53.186-136.558 57.874-195.058 14a150.984 150.984 0 0 0 14 16.186c58.326 58.31 152.902 58.31 211.228 0l505.768-505.782z" fill="#FFFFFF" opacity=".2" /></svg>