<?xml version="1.0" standalone="no"?><!DOCTYPE svg PUBLIC "-//W3C//DTD SVG 1.1//EN" "http://www.w3.org/Graphics/SVG/1.1/DTD/svg11.dtd"><svg class="icon" width="128px" height="128.00px" viewBox="0 0 1024 1024" version="1.1" xmlns="http://www.w3.org/2000/svg"><path d="M465.656 1023.844s249.564-127.93 341.13-515.092c0 0-327.978 256.234-341.13 515.092z" fill="#8CC153" /><path d="M508.298 1023.844s-0.282-281.164-234.552-426.15c0 0-2.25 320.714 234.552 426.15z" fill="#8CC153" /><path d="M465.656 568.11h42.642v455.734h-42.642z" fill="#A0D468" /><path d="M220.324 463.516c24.992 43.298 374.056 95.908 267.512-154.454-163.544-217.464-292.504 111.184-267.512 154.454z" fill="#E9573F" /><path d="M487.836 0.156c-49.984 0-270.104 276.042 0 308.906C757.926 276.198 537.82 0.156 487.836 0.156z" fill="#E9573F" /><path d="M755.332 463.516c24.992-43.27-103.968-371.918-267.496-154.454-106.592 250.362 242.504 197.752 267.496 154.454z" fill="#E9573F" /><path d="M241.13 162.67c-23.43 40.612 97.626 349.174 251.174 144.986 100.046-235.052-227.712-185.63-251.174-144.986z" fill="#FC6E51" /><path d="M743.46 162.67C720 122.026 392.24 72.604 492.304 307.656c153.53 204.188 274.618-104.374 251.156-144.986z" fill="#FC6E51" /><path d="M492.304 597.694c46.922 0 253.592-259.14 0-290.038-253.58 30.896-46.924 290.038 0 290.038z" fill="#FC6E51" /><path d="M550.926 302.908c0 35.332-28.632 63.98-63.964 63.98-35.334 0-63.95-28.648-63.95-63.98 0-35.302 28.616-63.95 63.95-63.95 35.33 0 63.964 28.648 63.964 63.95z" fill="#FFCE54" /></svg>