<?xml version="1.0" standalone="no"?><!DOCTYPE svg PUBLIC "-//W3C//DTD SVG 1.1//EN" "http://www.w3.org/Graphics/SVG/1.1/DTD/svg11.dtd"><svg class="icon" width="128px" height="128.00px" viewBox="0 0 1024 1024" version="1.1" xmlns="http://www.w3.org/2000/svg"><path d="M0.014 54.73h725.324v958.568H0.014z" fill="#ED5564" /><path d="M42.702 182.726h639.982v787.95H42.702z" fill="#AAB2BC" /><path d="M42.702 140.042h639.982v787.948H42.702z" fill="#CCD1D9" /><path d="M42.702 97.384h639.982V885.3H42.702z" fill="#E6E9ED" /><path d="M106.7 10.702c-11.782 0-21.344 9.53-21.344 21.31v85.342c0 11.782 9.562 21.344 21.344 21.344s21.31-9.562 21.31-21.344V32.012A21.294 21.294 0 0 0 106.7 10.702zM234.696 10.702c-11.782 0-21.344 9.53-21.344 21.31v85.342c0 11.782 9.562 21.344 21.344 21.344s21.312-9.562 21.312-21.344V32.012a21.296 21.296 0 0 0-21.312-21.31zM362.692 10.702c-11.782 0-21.342 9.53-21.342 21.31v85.342c0 11.782 9.56 21.344 21.342 21.344s21.312-9.562 21.312-21.344V32.012a21.296 21.296 0 0 0-21.312-21.31zM490.69 10.702c-11.782 0-21.344 9.53-21.344 21.31v85.342c0 11.782 9.562 21.344 21.344 21.344s21.312-9.562 21.312-21.344V32.012a21.296 21.296 0 0 0-21.312-21.31zM618.686 10.702c-11.812 0-21.344 9.53-21.344 21.31v85.342c0 11.782 9.532 21.344 21.344 21.344 11.75 0 21.312-9.562 21.312-21.344V32.012c0-11.782-9.562-21.31-21.312-21.31z" fill="#CCD1D9" /><path d="M966.99 671.996h-56.656l-56.998 199.118 85.342 56.874 85.308-56.874z" fill="#FFCE54" /><path d="M938.678 117.354c-47.156 0-85.342 38.218-85.342 85.342V778.68h170.65V202.696c0-47.124-38.186-85.342-85.308-85.342z" fill="#656D78" /><path d="M533.344 373.348H192.01a21.3 21.3 0 0 1-21.312-21.312c0-11.812 9.532-21.344 21.312-21.344h341.334c11.782 0 21.344 9.532 21.344 21.344 0 11.78-9.564 21.312-21.344 21.312zM533.344 480.032H192.01c-11.782 0-21.312-9.562-21.312-21.344 0-11.78 9.532-21.342 21.312-21.342h341.334c11.782 0 21.344 9.562 21.344 21.342s-9.564 21.344-21.344 21.344zM533.344 586.684H192.01c-11.782 0-21.312-9.56-21.312-21.374 0-11.75 9.532-21.312 21.312-21.312h341.334c11.782 0 21.344 9.562 21.344 21.312 0 11.814-9.564 21.374-21.344 21.374zM362.692 693.306H192.01c-11.782 0-21.312-9.562-21.312-21.31a21.28 21.28 0 0 1 21.312-21.312h170.682c11.782 0 21.312 9.5 21.312 21.312 0 11.748-9.532 21.31-21.312 21.31z" fill="#434A54" /></svg>