<?xml version="1.0" standalone="no"?><!DOCTYPE svg PUBLIC "-//W3C//DTD SVG 1.1//EN" "http://www.w3.org/Graphics/SVG/1.1/DTD/svg11.dtd"><svg class="icon" width="128px" height="128.00px" viewBox="0 0 1024 1024" version="1.1" xmlns="http://www.w3.org/2000/svg"><path d="M981.296 554.654c0 259.182-210.118 469.33-469.296 469.33-259.196 0-469.328-210.148-469.328-469.33C42.672 295.446 252.804 85.326 512 85.326c259.18 0 469.296 210.12 469.296 469.328z" fill="#723939" /><path d="M981.296 512c0 259.18-210.118 469.298-469.296 469.298C252.804 981.298 42.672 771.18 42.672 512 42.672 252.79 252.804 42.67 512 42.67c259.18 0 469.296 210.12 469.296 469.33z" fill="#F5F7FA" /><path d="M981.296 469.314c0 259.21-210.118 469.33-469.296 469.33-259.196 0-469.312-210.12-469.312-469.33C42.688 210.134 252.804 0.016 512 0.016c259.18 0 469.296 210.118 469.296 469.298z" fill="#7F4545" /><path d="M981.296 469.314c0 259.21-210.118 469.33-469.296 469.33-259.196 0-469.312-210.12-469.312-469.33C42.688 210.134 252.804 0.016 512 0.016c259.18 0 469.296 210.118 469.296 469.298z" fill="#7F4545" /><path d="M512 0.016c-7.14 0-14.266 0.156-21.326 0.468v63.53c0 11.75 9.544 21.312 21.326 21.312s21.344-9.562 21.344-21.312V0.484A484.468 484.468 0 0 0 512 0.016zM512 853.302c-11.782 0-21.326 9.562-21.326 21.344v63.498c7.06 0.312 14.186 0.5 21.326 0.5 7.156 0 14.266-0.188 21.344-0.5v-63.498c0-11.78-9.562-21.344-21.344-21.344zM366.974 22.984a469.778 469.778 0 0 0-20.14 7.032l19.624 60.404c3.654 11.218 15.686 17.342 26.888 13.718 11.204-3.656 17.328-15.686 13.704-26.906l-19.64-60.404c-6.828 1.906-13.64 3.938-20.436 6.156zM630.684 834.522c-11.218 3.624-17.376 15.656-13.718 26.876l19.624 60.404a482.148 482.148 0 0 0 20.438-6.124 477.614 477.614 0 0 0 20.156-7.062l-19.624-60.404c-3.658-11.222-15.688-17.346-26.876-13.69zM236.15 89.638a421.54 421.54 0 0 0-16.968 12.938l37.326 51.374c6.922 9.532 20.266 11.656 29.796 4.718s11.64-20.282 4.718-29.812l-37.328-51.374a451.752 451.752 0 0 0-17.544 12.156zM737.71 779.96c-9.532 6.938-11.656 20.282-4.718 29.812l37.312 51.374a502.708 502.708 0 0 0 17.562-12.124 502.104 502.104 0 0 0 16.968-12.938l-37.344-51.404c-6.904-9.532-20.248-11.626-29.78-4.72zM132.308 193.448a532.364 532.364 0 0 0-12.14 17.562l51.39 37.31c9.53 6.938 22.858 4.812 29.794-4.718 6.922-9.532 4.812-22.842-4.718-29.78L145.246 176.48a504.76 504.76 0 0 0-12.938 16.968zM822.678 695.026c-6.936 9.532-4.812 22.876 4.688 29.782l51.374 37.342a434.646 434.646 0 0 0 12.938-16.966 440.414 440.414 0 0 0 12.156-17.562l-51.376-37.312c-9.53-6.94-22.874-4.816-29.78 4.716zM65.654 324.288a459.732 459.732 0 0 0-6.124 20.438l60.404 19.624c11.204 3.656 23.234-2.5 26.876-13.686 3.64-11.218-2.5-23.25-13.688-26.876l-60.404-19.624a454.694 454.694 0 0 0-7.064 20.124zM877.176 587.966c-3.624 11.218 2.5 23.25 13.718 26.906l60.404 19.624a463.1 463.1 0 0 0 13.186-40.592l-60.404-19.624c-11.216-3.626-23.248 2.5-26.904 13.686zM42.688 469.314c0 7.156 0.172 14.282 0.484 21.342h63.514c11.78 0 21.326-9.562 21.326-21.342s-9.546-21.312-21.326-21.344H43.172a484.964 484.964 0 0 0-0.484 21.344zM895.988 469.314c0 11.782 9.562 21.342 21.312 21.342h63.528c0.344-7.062 0.468-14.186 0.5-21.342 0-7.156-0.156-14.25-0.5-21.344H917.3c-11.75 0-21.312 9.564-21.312 21.344zM65.654 614.342a462.168 462.168 0 0 0 7.062 20.154l60.388-19.624c11.204-3.656 17.344-15.688 13.704-26.906-3.64-11.188-15.672-17.312-26.876-13.688l-60.404 19.624a438.746 438.746 0 0 0 6.126 20.44zM877.176 350.662c3.656 11.186 15.688 17.342 26.906 13.686l60.404-19.624a512.02 512.02 0 0 0-6.124-20.438 476.224 476.224 0 0 0-7.062-20.124l-60.404 19.624c-11.22 3.626-17.346 15.658-13.72 26.876zM132.308 745.182a502.02 502.02 0 0 0 12.938 16.966l51.374-37.342c9.546-6.906 11.656-20.25 4.734-29.782-6.938-9.532-20.266-11.656-29.794-4.718L120.168 727.62a477.998 477.998 0 0 0 12.14 17.562zM822.678 243.602c6.906 9.53 20.25 11.656 29.78 4.718l51.376-37.31a490.52 490.52 0 0 0-12.156-17.562 433.21 433.21 0 0 0-12.938-16.968l-51.374 37.342c-9.5 6.906-11.624 20.25-4.688 29.78zM236.15 849.022a498.83 498.83 0 0 0 17.53 12.124l37.344-51.374c6.922-9.532 4.812-22.876-4.718-29.812-9.532-6.906-22.876-4.812-29.796 4.718l-37.342 51.404a519.392 519.392 0 0 0 16.982 12.94zM737.68 158.668c9.562 6.906 22.876 4.812 29.812-4.718l37.344-51.374a434.714 434.714 0 0 0-16.968-12.938 440.414 440.414 0 0 0-17.562-12.156l-37.312 51.374c-6.94 9.53-4.814 22.874 4.686 29.812zM366.974 915.676a453.348 453.348 0 0 0 20.436 6.124l19.624-60.404c3.64-11.218-2.484-23.25-13.688-26.876-11.204-3.656-23.25 2.5-26.888 13.688l-19.624 60.404a467.37 467.37 0 0 0 20.14 7.064zM630.684 104.138c11.188 3.624 23.218-2.5 26.876-13.718l19.624-60.404a481.132 481.132 0 0 0-20.156-7.032 479.712 479.712 0 0 0-20.438-6.156l-19.624 60.404c-3.658 11.22 2.468 23.25 13.718 26.906zM496.922 605.686c-8.326 8.344-8.326 21.844 0 30.186 8.328 8.312 21.844 8.312 30.172 0 8.328-8.342 8.328-21.842 0-30.186-8.328-8.312-21.844-8.312-30.172 0zM496.922 302.788c-8.326 8.312-8.326 21.842 0 30.156 8.328 8.344 21.844 8.344 30.172 0 8.328-8.312 8.328-21.842 0-30.156-8.328-8.342-21.844-8.342-30.172 0zM527.078 185.76c8.328-8.342 8.328-21.842 0-30.186-8.328-8.312-21.844-8.312-30.172 0-8.326 8.344-8.326 21.842 0 30.186 8.328 8.312 21.844 8.312 30.172 0zM496.906 752.898c-8.326 8.312-8.326 21.844 0 30.156 8.328 8.344 21.844 8.344 30.172 0 8.328-8.312 8.328-21.844 0-30.156-8.328-8.342-21.844-8.342-30.172 0zM300.804 236.79c-11.782 0-21.328 9.562-21.328 21.342 0 11.782 9.546 21.344 21.328 21.344 11.78 0 21.342-9.562 21.342-21.344 0-11.78-9.562-21.31-21.342-21.342zM723.18 659.184c-11.78 0-21.342 9.532-21.342 21.31 0 11.782 9.562 21.344 21.342 21.344 11.782 0 21.312-9.562 21.312-21.344 0-11.78-9.532-21.31-21.312-21.31zM198.244 454.252c-8.328 8.312-8.328 21.812 0 30.156 8.344 8.342 21.844 8.342 30.172 0 8.328-8.344 8.328-21.844 0-30.156-8.328-8.344-21.828-8.344-30.172 0zM825.74 454.252a21.33 21.33 0 0 0-30.186 0c-8.312 8.312-8.312 21.812 0 30.156a21.334 21.334 0 0 0 30.186 0c8.312-8.344 8.312-21.844 0-30.156zM300.804 659.184c-11.782 0-21.328 9.532-21.328 21.31 0 11.782 9.546 21.344 21.328 21.344 11.78 0 21.342-9.562 21.342-21.344 0-11.78-9.562-21.31-21.342-21.31zM723.18 236.822c-11.78 0-21.342 9.532-21.342 21.312 0 11.782 9.562 21.344 21.342 21.344 11.782 0 21.312-9.562 21.312-21.344a21.3 21.3 0 0 0-21.312-21.312z" fill="#602B2B" /><path d="M575.998 448.002h-127.996a21.252 21.252 0 0 0-15.078 6.218c-8.326 8.344-8.326 21.844 0 30.188a21.286 21.286 0 0 0 15.078 6.25h127.996a21.3 21.3 0 0 0 15.094-6.25 21.336 21.336 0 0 0 0-30.188c-4.156-4.156-9.626-6.218-15.094-6.218z" fill="#602B2B" /><path d="M681.778 469.314c0-58.904-76.032-106.654-169.778-106.654-93.762 0-169.76 47.75-169.76 106.654s75.998 106.684 169.76 106.684c93.746 0 169.778-47.78 169.778-106.684z m-72.406 39.31c-24.998 15.688-60.496 24.688-97.372 24.688-36.874 0-72.358-9-97.34-24.688-18.922-11.906-29.766-26.216-29.766-39.31s10.844-27.406 29.766-39.28c24.982-15.718 60.466-24.718 97.34-24.718 36.876 0 72.374 9 97.372 24.718 18.876 11.874 29.75 26.186 29.75 39.28s-10.876 27.406-29.75 39.31zM663.464 601.342l118.246 48.966 48.966-118.246-118.246-48.998-48.966 118.278z m72.09-62.53l39.406 16.342-16.344 39.406-39.404-16.312 16.342-39.436zM331.022 739.026l118.246 48.998 48.982-118.246-118.246-48.998-48.982 118.246z m72.06-62.498l39.42 16.342-16.326 39.406-39.406-16.344 16.312-39.404zM692.994 199.604l-118.246-48.966-48.982 118.246 118.23 48.998 48.998-118.278z m-72.06 62.528l-39.436-16.342 16.31-39.406 39.438 16.312-16.312 39.436zM525.766 669.778l48.982 118.246 118.246-48.998-48.998-118.246-118.23 48.998z m72.042 62.498l-16.31-39.406 39.436-16.342 16.312 39.404-39.438 16.344zM498.25 268.882l-48.982-118.246-118.246 48.966 48.982 118.278 118.246-48.998z m-72.074-62.498l16.326 39.406-39.42 16.342-16.312-39.436 39.406-16.312zM360.552 337.318l-118.264-48.966-48.982 118.246 118.262 48.966 48.984-118.246z m-72.076 62.498l-39.422-16.312 16.328-39.436 39.42 16.342-16.326 39.406zM712.432 455.564l118.246-48.966-48.966-118.278-118.246 48.998 48.966 118.246z m46.186-111.496l16.344 39.436-39.406 16.312-16.342-39.406 39.404-16.342zM311.568 483.096l-118.262 48.966 48.998 118.246 118.248-48.966-48.984-118.246z m-46.186 111.464l-16.328-39.406 39.422-16.342 16.326 39.436-39.42 16.312z" fill="#602B2B" /></svg>