<?xml version="1.0" standalone="no"?><!DOCTYPE svg PUBLIC "-//W3C//DTD SVG 1.1//EN" "http://www.w3.org/Graphics/SVG/1.1/DTD/svg11.dtd"><svg class="icon" width="128px" height="128.00px" viewBox="0 0 1024 1024" version="1.1" xmlns="http://www.w3.org/2000/svg"><path d="M832.654 392.562c-0.032 0-116.534 58.89-125.37 203.872-7.276 119.688 104.856 133.272 104.856 133.272s112.944 0.124 120.216-119.594c8.84-144.95-99.702-217.55-99.702-217.55z" fill="#A0D468" /><path d="M807.83 821.852c-0.438 0-0.874-0.032-1.31-0.062-11.74-0.718-20.702-10.804-19.984-22.576l14.208-233.536c0.716-11.742 10.834-20.704 22.574-19.984 11.774 0.716 20.704 10.834 19.984 22.574l-14.208 233.538c-0.686 11.334-10.084 20.046-21.264 20.046z" fill="#8CC153" /><path d="M498.074 892.422c0.032 0.032 54.02 109.102 189.102 118.438 111.506 7.682 125.028-96.736 125.028-96.736s0.966-105.292-110.54-112.974c-135.082-9.338-203.558 91.272-203.59 91.272z" fill="#A0D468" /><path d="M878.212 940.01c-0.5 0-0.998-0.032-1.498-0.062l-217.58-15.02c-11.742-0.812-20.61-10.992-19.796-22.732s10.992-20.61 22.732-19.796l217.58 15.02c11.74 0.812 20.61 10.99 19.796 22.732-0.78 11.238-10.116 19.858-21.234 19.858z" fill="#8CC153" /><path d="M508.9 599.328l90.43-90.428 424.256 424.256-90.428 90.428z" fill="#8CC153" /><path d="M362.804 703.88c-91.118 0-176.768-35.472-241.188-99.89-64.416-64.448-99.89-150.102-99.89-241.186 0-91.118 35.472-176.77 99.89-241.188 64.42-64.418 150.07-99.89 241.188-99.89 91.084 0 176.736 35.472 241.154 99.89 64.45 64.418 99.922 150.07 99.922 241.188 0 91.116-35.472 176.768-99.922 241.186-64.386 64.418-150.07 99.89-241.154 99.89z" fill="#4FC2E9" /><path d="M362.804 0.4C162.648 0.4 0.4 162.648 0.4 362.804c0 200.154 162.248 362.374 362.404 362.374 200.124 0.032 362.374-162.25 362.374-362.374C725.178 162.648 562.928 0.4 362.804 0.4z m226.104 588.508c-29.382 29.382-63.574 52.428-101.67 68.542-39.376 16.674-81.248 25.106-124.434 25.106s-85.058-8.432-124.464-25.106c-38.064-16.114-72.258-39.158-101.64-68.542s-52.458-63.574-68.54-101.67c-16.676-39.376-25.136-81.248-25.136-124.434s8.46-85.058 25.136-124.464c16.08-38.064 39.156-72.258 68.54-101.64s63.576-52.458 101.64-68.54c39.406-16.676 81.28-25.106 124.464-25.106s85.058 8.43 124.434 25.106c38.096 16.08 72.288 39.156 101.67 68.54s52.428 63.576 68.54 101.64c16.644 39.406 25.106 81.28 25.106 124.464s-8.46 85.058-25.106 124.434c-16.112 38.096-39.156 72.288-68.54 101.67z" fill="#8CC153" /><path d="M384.1 107.004a21.298 21.298 0 0 0-19.016-21.202v-0.124c-0.624 0-1.218 0.032-1.842 0.032-0.156 0-0.282-0.032-0.438-0.032-0.282 0-0.532 0.032-0.782 0.032-148.29 1.59-268.632 119.686-273.878 267.102a21.5 21.5 0 0 0-2.466 9.992c0 11.772 9.554 21.326 21.326 21.326s21.296-9.554 21.296-21.326h2.28c0-62.638 24.418-121.532 68.696-165.808 44.278-44.308 103.17-68.696 165.808-68.696v-0.124c10.71-1.126 19.016-10.18 19.016-21.172z" fill="#3BAFDA" /></svg>