<?xml version="1.0" standalone="no"?><!DOCTYPE svg PUBLIC "-//W3C//DTD SVG 1.1//EN" "http://www.w3.org/Graphics/SVG/1.1/DTD/svg11.dtd"><svg class="icon" width="128px" height="128.00px" viewBox="0 0 1024 1024" version="1.1" xmlns="http://www.w3.org/2000/svg"><path d="M733.744 298.66c-11.782 0-21.344-9.532-21.344-21.312s9.562-21.344 21.344-21.344c33.562 0 46.624-8.938 51.438-14.282 3.124-3.436 4.124-7.03 4.124-7.06 0-11.782 9.562-21.312 21.376-21.312 11.75 0 21.312 9.532 21.312 21.312 0 3.156-0.75 19.686-15.124 35.624-16.938 18.842-44.938 28.374-83.126 28.374zM290.254 256.004c-23.108 0-40.764-4.468-49.732-12.562-4.876-4.404-5.718-8.592-5.86-9.53 0-0.062 0.016-0.124 0.016-0.156 0-11.782-9.562-21.344-21.344-21.344-11.78 0-21.328 9.562-21.328 21.344 0 0.312 0.032 0.594 0.046 0.906h-0.046c0 3.156 0.734 19.686 15.11 35.624 16.968 18.844 44.952 28.376 83.138 28.376 11.782 0 21.344-9.532 21.344-21.312s-9.562-21.346-21.344-21.346z m-55.576-21.342h-0.046c0-0.218 0.032-0.468 0.032-0.688 0.03 0.438 0.014 0.688 0.014 0.688z" fill="#434A54" /><path d="M512 128.008c-152.918 0-277.322 124.402-277.322 277.338 0 35.812 10.078 84.186 29.14 139.872 17.562 51.282 41.546 105.842 69.374 157.872 28.454 53.156 58.376 98.78 86.546 131.938 34.874 41.03 65.044 60.966 92.262 60.966 27.218 0 57.374-19.938 92.248-60.966 28.188-33.158 58.124-78.782 86.56-131.938 27.81-52.03 51.81-106.59 69.374-157.872 19.062-55.686 29.124-104.058 29.124-139.872 0-152.936-124.372-277.338-277.306-277.338z" fill="#A85D5D" /><path d="M1002.678 725.338H21.338c-11.78 0-21.328-9.562-21.328-21.344 0-11.78 9.546-21.342 21.328-21.342h981.338c11.748 0 21.31 9.562 21.31 21.342 0.002 11.782-9.56 21.344-21.308 21.344z" fill="#FFD2A6" /><path d="M426.674 725.338c-11.782 0-21.344-9.562-21.344-21.344v-21.342c0-11.782 9.562-21.312 21.344-21.312 11.78 0 21.328 9.532 21.328 21.312v21.342c0 11.782-9.546 21.344-21.328 21.344zM469.33 725.338c-11.782 0-21.328-9.562-21.328-21.344v-21.342c0-11.782 9.546-21.312 21.328-21.312 11.78 0 21.342 9.532 21.342 21.312v21.342c0 11.782-9.562 21.344-21.342 21.344zM554.686 725.338c-11.794 0-21.358-9.562-21.358-21.344v-21.342c0-11.782 9.562-21.312 21.358-21.312 11.75 0 21.312 9.532 21.312 21.312v21.342c0 11.782-9.562 21.344-21.312 21.344z" fill="#F6BB42" /><path d="M597.31 725.338c-11.75 0-21.312-9.562-21.312-21.344v-21.342c0-11.782 9.562-21.312 21.312-21.312 11.812 0 21.376 9.532 21.376 21.312v21.342c0 11.782-9.562 21.344-21.376 21.344z" fill="#F6BB42" /><path d="M512 469.344c-11.78 0-21.328-9.562-21.328-21.342v-42.656c0-11.782 9.546-21.344 21.328-21.344s21.328 9.562 21.328 21.344v42.656c0 11.78-9.546 21.342-21.328 21.342z" fill="#FFCE54" /><path d="M775.838 319.908c-36.094-111.246-140.714-191.9-263.838-191.9-122.59 0-226.838 79.966-263.37 190.462l0.296 1.532C319.676 177.35 512 234.662 512 362.658c0-127.964 193.056-185.278 263.838-42.75zM512 767.992c-11.78 0-21.328 9.562-21.328 21.344v102.782c7.312 2.594 14.422 3.876 21.328 3.876 6.906 0 14.016-1.282 21.328-3.876v-102.782c0-11.782-9.546-21.344-21.328-21.344z" fill="#7F4545" /><path d="M512 128.008c-3.656 0-7.312 0.062-10.936 0.218 148.122 5.5 266.93 127.684 266.93 277.12 0 35.812-10.062 84.186-29.156 139.872-17.532 51.282-41.53 105.842-69.374 157.872-28.436 53.156-58.374 98.78-86.53 131.938-30.376 35.748-57.202 55.466-81.606 59.966 3.61 0.656 7.172 1 10.67 1 27.218 0 57.374-19.938 92.248-60.966 28.188-33.158 58.124-78.782 86.56-131.938 27.81-52.03 51.81-106.59 69.374-157.872 19.062-55.686 29.124-104.058 29.124-139.872 0.002-152.936-124.37-277.338-277.304-277.338z" fill="#FFFFFF" opacity=".1" /><path d="M439.97 386.658c0 30.188-26.374 54.688-58.888 54.688-32.532 0-58.89-24.5-58.89-54.688s26.358-54.656 58.89-54.656c32.514 0 58.888 24.468 58.888 54.656zM689.308 382.44c0 29.344-24.594 53.124-54.904 53.124-30.312 0-54.906-23.782-54.906-53.124 0-29.312 24.594-53.094 54.906-53.094 30.31 0 54.904 23.78 54.904 53.094z" fill="#F6BB42" /><path d="M384.004 362.658c-11.782 0-21.328 9.562-21.328 21.344s9.546 21.344 21.328 21.344 21.328-9.562 21.328-21.344-9.546-21.344-21.328-21.344z" fill="#434A54" /><path d="M384.004 298.66c-47.046 0-85.328 38.28-85.328 85.342s38.28 85.342 85.328 85.342c47.046 0 85.326-38.28 85.326-85.342s-38.28-85.342-85.326-85.342z m0 127.998c-23.532 0-42.672-19.124-42.672-42.656s19.14-42.656 42.672-42.656c23.53 0 42.67 19.124 42.67 42.656s-19.14 42.656-42.67 42.656z" fill="#FFCE54" /><path d="M639.998 362.658c-11.782 0-21.312 9.562-21.312 21.344s9.532 21.344 21.312 21.344 21.312-9.562 21.312-21.344-9.53-21.344-21.312-21.344z" fill="#434A54" /><path d="M639.998 298.66c-47.062 0-85.312 38.28-85.312 85.342s38.25 85.342 85.312 85.342c47.06 0 85.308-38.28 85.308-85.342s-38.248-85.342-85.308-85.342z m0 127.998c-23.532 0-42.688-19.124-42.688-42.656s19.156-42.656 42.688-42.656 42.686 19.124 42.686 42.656-19.154 42.656-42.686 42.656z" fill="#FFCE54" /></svg>