<?xml version="1.0" standalone="no"?><!DOCTYPE svg PUBLIC "-//W3C//DTD SVG 1.1//EN" "http://www.w3.org/Graphics/SVG/1.1/DTD/svg11.dtd"><svg class="icon" width="128px" height="128.00px" viewBox="0 0 1024 1024" version="1.1" xmlns="http://www.w3.org/2000/svg"><path d="M149.33 298.692h127.996v170.652H149.33zM746.674 298.598h127.996v170.652h-127.996z" fill="#656D78" /><path d="M789.048 597.34c0 23.468-18.124 49.094-40.188 56.906 0 0-80.184 28.438-237.134 28.438-156.964 0-237.12-28.438-237.12-28.438-22.124-7.812-40.218-33.438-40.218-56.906V256.006c0-23.466 12.842-56.938 28.562-74.374l134.902-149.902C413.54 14.292 445.602 0.012 469.07 0.012h85.292c23.5 0 55.562 14.282 71.25 31.718l134.872 149.902c15.75 17.436 28.562 50.906 28.562 74.374V597.34z" fill="#48CFAD" /><path d="M760.486 181.632l-134.872-149.902C609.926 14.292 577.864 0.012 554.364 0.012h-42.638c23.468 0 55.512 14.282 71.2 31.718l134.934 149.902c15.688 17.436 28.5 50.906 28.5 74.374V597.34c0 23.468-18.062 49.094-40.186 56.906 0 0-72.936 25.844-215.792 28.25 6.968 0.124 14.062 0.188 21.344 0.188 156.95 0 237.134-28.438 237.134-28.438 22.062-7.812 40.188-33.438 40.188-56.906V256.006c0-23.466-12.812-56.938-28.562-74.374z" fill="#FFFFFF" opacity=".2" /><path d="M410.948 1023.988c102.154-103.938 165.166-246.464 165.166-403.68V512h-128.012v108.308c0 60.532-11.844 119.186-35.156 174.372-22.562 53.344-54.906 101.248-96.092 142.464-35.874 35.876-76.874 65.032-122.122 86.844h216.216z" fill="#CCD1D9" /><path d="M318.762 935.144l95.216 85.75a571.6 571.6 0 0 0 28.53-31.75l-95.184-85.716a447.906 447.906 0 0 1-28.562 31.716zM377.45 861.992l110.904 64.028a584.53 584.53 0 0 0 21.312-36.966l-110.936-64.06a438.36 438.36 0 0 1-21.28 36.998zM432.604 737.556a444.378 444.378 0 0 1-13.094 40.592l121.84 39.594a615.98 615.98 0 0 0 13.138-40.594l-121.884-39.592zM443.134 687.464l127.356 13.376c1.938-14 3.438-28.156 4.376-42.438l-127.45-13.406a456.628 456.628 0 0 1-4.282 42.468zM405.074 405.346V512c0 58.904 47.75 106.684 106.654 106.684 58.888 0 106.638-47.78 106.638-106.684v-106.654H405.074z" fill="#E6E9ED" /></svg>