<?xml version="1.0" standalone="no"?><!DOCTYPE svg PUBLIC "-//W3C//DTD SVG 1.1//EN" "http://www.w3.org/Graphics/SVG/1.1/DTD/svg11.dtd"><svg class="icon" width="128px" height="128.00px" viewBox="0 0 1024 1024" version="1.1" xmlns="http://www.w3.org/2000/svg"><path d="M512.008 448.002c-11.782 0-21.328-9.53-21.328-21.312V21.36c0-11.782 9.546-21.344 21.328-21.344s21.328 9.562 21.328 21.344v405.332c0 11.78-9.546 21.31-21.328 21.31z" fill="#434A54" /><path d="M304.936 278.196c45.076 0 84.168 25.624 103.542 63.09 19.36-37.466 58.452-63.09 103.528-63.09 45.062 0 84.184 25.624 103.528 63.09 19.376-37.466 58.468-63.09 103.528-63.09 37.188 0 70.282 17.406 91.626 44.528v-2.686c0-164.964-133.746-298.678-298.68-298.678-164.948 0-298.664 133.714-298.664 298.678v2.686c21.328-27.124 54.438-44.528 91.592-44.528z" fill="#ED5564" /><path d="M810.688 426.69H213.344c-23.466 0-42.654 19.188-42.654 42.654v511.984c0 23.468 19.188 42.656 42.654 42.656h597.342c23.438 0 42.622-19.188 42.622-42.656V469.344c0-23.466-19.182-42.654-42.62-42.654z" fill="#FECD57" /><path d="M810.688 981.328H213.344c-23.466 0-42.654-19.188-42.654-42.656v42.656c0 23.468 19.188 42.656 42.654 42.656h597.342c23.438 0 42.622-19.188 42.622-42.656v-42.656c0 23.468-19.182 42.656-42.62 42.656z" fill="#F5BA45" /><path d="M618.692 595.092v-147.09H405.338v149.34h0.156c0 11.782 9.546 21.342 21.328 21.342s21.326-9.56 21.326-21.342c0 11.782 9.546 21.342 21.344 21.342 11.78 0 21.328-9.56 21.328-21.342 0 11.782 9.546 21.342 21.328 21.342s21.344-9.56 21.344-21.342c0 11.782 9.546 21.342 21.328 21.342 11.778 0 21.308-9.56 21.308-21.342 0 11.782 9.562 21.342 21.376 21.342 11.75 0 21.312-9.56 21.312-21.342 0-0.75-0.062-1.5-0.124-2.25z" fill="#CBD0D8" /><path d="M618.692 573.78v-147.088H405.338V576h0.156c0 11.812 9.546 21.344 21.328 21.344s21.326-9.532 21.326-21.344a21.322 21.322 0 0 0 21.344 21.344c11.78 0 21.328-9.532 21.328-21.344 0 11.812 9.546 21.344 21.328 21.344s21.344-9.532 21.344-21.344c0 11.812 9.546 21.344 21.328 21.344 11.778 0 21.308-9.532 21.308-21.344 0 11.812 9.562 21.344 21.376 21.344 11.75 0 21.312-9.532 21.312-21.344 0-0.752-0.062-1.502-0.124-2.22z" fill="#E5E8EC" /><path d="M448.008 767.99h-170.666c-11.782 0-21.328 9.562-21.328 21.344s9.546 21.344 21.328 21.344h170.666c11.782 0 21.328-9.562 21.328-21.344s-9.546-21.344-21.328-21.344zM362.684 853.334h-85.34c-11.782 0-21.328 9.562-21.328 21.344 0 11.78 9.546 21.31 21.328 21.31h85.34c11.782 0 21.328-9.532 21.328-21.31 0-11.782-9.548-21.344-21.328-21.344z" fill="#434A54" /></svg>