<?xml version="1.0" standalone="no"?><!DOCTYPE svg PUBLIC "-//W3C//DTD SVG 1.1//EN" "http://www.w3.org/Graphics/SVG/1.1/DTD/svg11.dtd"><svg class="icon" width="128px" height="128.00px" viewBox="0 0 1024 1024" version="1.1" xmlns="http://www.w3.org/2000/svg"><path d="M725.304 426.66c-47.028 0-85.308 38.28-85.308 85.342s38.282 85.338 85.308 85.338c47.062 0 85.372-38.278 85.372-85.338s-38.308-85.342-85.372-85.342zM938.672 426.66c-47.058 0-85.372 38.28-85.372 85.342s38.312 85.338 85.372 85.338c47.032 0 85.312-38.278 85.312-85.338s-38.28-85.342-85.312-85.342z" fill="#ED5564" /><path d="M649.778 364.068l-10.406-18.624a342.9 342.9 0 0 0-56.688-74.778c-64.464-64.498-150.18-99.998-241.366-99.998-91.154 0-176.87 35.5-241.336 99.998C35.516 335.13 0.016 420.816 0.016 512c0 91.182 35.5 176.87 99.966 241.334s150.182 99.996 241.336 99.996c91.184 0 176.9-35.532 241.366-99.996a342.994 342.994 0 0 0 56.688-74.778l10.406-18.624L385.066 512l264.712-147.932z" fill="#FFCE54" /><path d="M384.004 810.644c-91.184 0-176.87-35.496-241.368-99.964-64.436-64.464-99.934-150.18-99.934-241.334 0-81.058 28.062-157.776 79.56-219.086a333.65 333.65 0 0 0-22.28 20.406C35.516 335.13 0.016 420.816 0.016 512c0 91.182 35.5 176.87 99.966 241.334s150.182 99.996 241.336 99.996c91.184 0 176.9-35.532 241.366-99.996a335.628 335.628 0 0 0 20.438-22.282c-61.34 51.534-138.058 79.592-219.118 79.592z" fill="#FFFFFF" opacity=".2" /><path d="M392.816 371.504c-16.624 16.656-43.656 16.656-60.31 0-16.686-16.656-16.686-43.686 0-60.342 16.656-16.656 43.686-16.656 60.31 0 16.688 16.658 16.688 43.686 0 60.342z" fill="#434A54" /><path d="M719.054 505.75c-8.312 8.342-21.812 8.342-30.124 0-8.372-8.344-8.372-21.844 0-30.156 8.312-8.342 21.812-8.342 30.124 0 8.376 8.314 8.376 21.814 0 30.156zM932.422 505.75c-8.34 8.342-21.872 8.342-30.184 0-8.312-8.344-8.312-21.844 0-30.156 8.312-8.342 21.844-8.342 30.184 0 8.312 8.314 8.312 21.814 0 30.156z" fill="#FFFFFF" opacity=".2" /></svg>