<?xml version="1.0" standalone="no"?><!DOCTYPE svg PUBLIC "-//W3C//DTD SVG 1.1//EN" "http://www.w3.org/Graphics/SVG/1.1/DTD/svg11.dtd"><svg class="icon" width="128px" height="128.00px" viewBox="0 0 1024 1024" version="1.1" xmlns="http://www.w3.org/2000/svg"><path d="M938.322 234.88V128.278c0-23.544-19.078-42.624-42.622-42.624H43.024C19.478 85.654 0.4 104.732 0.4 128.278v106.604h937.922z" fill="#E6E9ED" /><path d="M938.322 810.448H0.4V170.932h937.922v446.29z" fill="#F5F7FA" /><path d="M85.646 128.278c0 11.772-9.526 21.326-21.296 21.326s-21.326-9.554-21.326-21.326c0-11.774 9.554-21.296 21.326-21.296s21.296 9.522 21.296 21.296z" fill="#ED5564" /><path d="M149.596 128.278c0 11.772-9.524 21.326-21.294 21.326-11.774 0-21.328-9.554-21.328-21.326 0-11.774 9.554-21.296 21.328-21.296a21.28 21.28 0 0 1 21.294 21.296z" fill="#FFCE54" /><path d="M213.544 128.278c0 11.772-9.524 21.326-21.294 21.326s-21.326-9.554-21.326-21.326c0-11.774 9.554-21.296 21.326-21.296s21.294 9.522 21.294 21.296zM85.646 597.238h362.404v213.208H85.646zM490.674 597.238h362.372v213.208H490.674z" fill="#A0D468" /><path d="M725.146 405.404c0 11.772-9.524 21.326-21.296 21.326s-21.328-9.554-21.328-21.326c0-11.774 9.556-21.328 21.328-21.328 11.774 0 21.296 9.554 21.296 21.328zM256.2 405.404c0 11.772-9.554 21.326-21.326 21.326s-21.328-9.554-21.328-21.326c0-11.774 9.556-21.328 21.328-21.328s21.326 9.554 21.326 21.328z"  /><path d="M85.646 256.176h767.398v298.47H85.646z" fill="#FFCE54" /><path d="M703.85 426.73H234.874c-11.772 0-21.328-9.554-21.328-21.326 0-11.774 9.556-21.328 21.328-21.328h468.976c11.774 0 21.296 9.554 21.296 21.328 0 11.772-9.522 21.326-21.296 21.326z" fill="#434A54" /><path d="M1023.6 682.546c0 129.46-104.98 234.442-234.504 234.442-129.492 0-234.472-104.98-234.472-234.442 0-129.526 104.98-234.52 234.472-234.52 129.524 0.002 234.504 104.996 234.504 234.52z" fill="#E9573F" /><path d="M1023.6 703.842c0 129.524-104.98 234.504-234.504 234.504-129.492 0-234.472-104.98-234.472-234.504s104.98-234.488 234.472-234.488c129.524 0 234.504 104.964 234.504 234.488z" fill="#E9573F" /><path d="M1023.6 661.188c0 129.526-104.98 234.506-234.504 234.506-129.492 0-234.472-104.98-234.472-234.506 0-129.476 104.98-234.458 234.472-234.458 129.524 0 234.504 104.98 234.504 234.458z" fill="#FC6E51" /><path d="M810.424 469.354c0 11.772-9.554 21.328-21.328 21.328-11.772 0-21.296-9.556-21.296-21.328s9.526-21.326 21.296-21.326c11.774 0 21.328 9.554 21.328 21.326zM711.656 484.404c5.87 10.18 2.374 23.232-7.806 29.104-10.21 5.9-23.23 2.404-29.132-7.806-5.872-10.18-2.376-23.232 7.804-29.104 10.21-5.9 23.234-2.404 29.134 7.806zM633.624 546.84c10.18 5.872 13.678 18.924 7.806 29.104-5.9 10.178-18.924 13.676-29.132 7.804-10.18-5.87-13.678-18.922-7.806-29.102a21.266 21.266 0 0 1 29.132-7.806zM597.246 639.892c11.772 0 21.326 9.554 21.326 21.294 0 11.802-9.554 21.36-21.326 21.296-11.772 0.062-21.294-9.494-21.294-21.296 0-11.738 9.522-21.294 21.294-21.294zM980.948 639.892c11.8 0 21.326 9.554 21.326 21.294 0 11.802-9.526 21.36-21.326 21.36-11.774 0-21.296-9.556-21.296-21.36-0.002-11.738 9.522-21.294 21.296-21.294zM944.6 546.84a21.232 21.232 0 0 1 29.102 7.806c5.902 10.18 2.404 23.232-7.774 29.102-10.21 5.872-23.234 2.374-29.134-7.804-5.87-10.18-2.406-23.234 7.806-29.104zM866.566 484.404c5.9-10.21 18.924-13.708 29.134-7.806 10.18 5.872 13.676 18.924 7.804 29.104-5.902 10.21-18.922 13.708-29.132 7.806-10.178-5.872-13.674-18.924-7.806-29.104z" fill="#E9573F" /><path d="M789.096 533.302c-11.772 0-21.296 9.556-21.296 21.344v127.9h42.624v-127.9c0-11.786-9.554-21.344-21.328-21.344z" fill="#434A54" /><path d="M831.75 661.188c0 23.544-19.112 42.654-42.654 42.654s-42.624-19.11-42.624-42.654c0-23.542 19.08-42.592 42.624-42.592s42.654 19.048 42.654 42.592z" fill="#656D78" /></svg>