<?xml version="1.0" standalone="no"?><!DOCTYPE svg PUBLIC "-//W3C//DTD SVG 1.1//EN" "http://www.w3.org/Graphics/SVG/1.1/DTD/svg11.dtd"><svg class="icon" width="128px" height="128.00px" viewBox="0 0 1024 1024" version="1.1" xmlns="http://www.w3.org/2000/svg"><path d="M85.334 277.336v639.998c0 58.904 191.026 106.652 426.66 106.652 235.62 0 426.674-47.748 426.674-106.652V277.336H85.334z" fill="#E6E9ED" /><path d="M511.994 384.004c27.53 0 54.436-0.656 80.5-1.906l183.992-21.06c98.782-19.546 162.184-49.764 162.184-83.702 0-58.906-191.054-106.668-426.674-106.668-235.634 0-426.66 47.764-426.66 106.668s191.022 106.668 426.658 106.668z" fill="#DA4453" /><path d="M511.994 384.004c27.53 0 54.436-0.656 80.5-1.906l183.992-21.06c77.5-15.344 133.214-37.25 153.622-62.374-39.532-48.686-211.68-85.326-418.112-85.326-206.416 0-378.584 36.64-418.114 85.326 39.528 48.686 211.696 85.34 418.112 85.34z" fill="#ED5564" /><path d="M424.354 84.546C412.12 26.922 355.48-9.874 297.858 2.36c-57.624 12.234-94.42 68.874-82.17 126.496l50.03 235.586c63.436 11.234 139.682 18.25 222.196 19.39l-63.56-299.286zM324.452 127.56c-11.532 2.454-22.858-4.906-25.296-16.436-2.454-11.516 4.906-22.842 16.436-25.296 11.516-2.438 22.844 4.906 25.296 16.436 2.438 11.53-4.906 22.858-16.436 25.296z" fill="#FFCE54" /><path d="M170.674 341.352v63.982c0 11.782 9.546 21.328 21.328 21.328s21.328-9.546 21.328-21.328v-51.826c-15.408-3.782-29.672-7.844-42.656-12.156zM256 362.678v298.664c0 11.78 9.546 21.31 21.328 21.31s21.344-9.532 21.344-21.31V369.724A1044.04 1044.04 0 0 1 256 362.678zM511.994 384.004v63.998c0 11.782 9.546 21.328 21.328 21.328 11.796 0 21.36-9.546 21.36-21.328v-64.53c-14.05 0.346-28.284 0.532-42.688 0.532zM725.3 369.724v120.934c0 11.782 9.562 21.342 21.376 21.342 11.746 0 21.308-9.56 21.308-21.342v-127.982a1045.748 1045.748 0 0 1-42.684 7.048zM810.672 353.506v9.5c0.188 11.624 9.624 21 21.312 21s21.124-9.374 21.312-21v-21.67c-12.968 4.328-27.25 8.39-42.624 12.17z" fill="#DA4453" /></svg>