<?xml version="1.0" standalone="no"?><!DOCTYPE svg PUBLIC "-//W3C//DTD SVG 1.1//EN" "http://www.w3.org/Graphics/SVG/1.1/DTD/svg11.dtd"><svg class="icon" width="128px" height="128.00px" viewBox="0 0 1024 1024" version="1.1" xmlns="http://www.w3.org/2000/svg"><path d="M682.618 226.752a21.294 21.294 0 0 1-21.308 21.308H362.692a21.294 21.294 0 0 1-21.308-21.308V21.458c0-11.78 9.528-21.34 21.308-21.34h298.618c11.782 0 21.308 9.56 21.308 21.34v205.294z" fill="#5D9CEC" /><path d="M405.368 0.118v42.678c0 11.78 9.53 21.308 21.308 21.308 11.78 0 21.338-9.53 21.338-21.308V0.118h-42.646zM490.662 0.118v42.678c0 11.78 9.56 21.308 21.338 21.308s21.34-9.53 21.34-21.308V0.118h-42.678zM575.984 0.118v42.678c0 11.78 9.562 21.308 21.34 21.308s21.308-9.53 21.308-21.308V0.118h-42.648z" fill="#4A89DC" /><path d="M810.586 1002.574c0 11.78-9.528 21.308-21.304 21.308H234.72a21.294 21.294 0 0 1-21.308-21.308V341.382l127.97-170.618h341.234l127.968 170.618v661.192z" fill="#E6E9ED" /><path d="M213.414 405.368h597.172v426.558H213.414z" fill="#5D9CEC" /><path d="M618.632 639.97c0 58.892-47.738 106.662-106.632 106.662-58.892 0-106.632-47.77-106.632-106.662s84.544-149.248 106.632-149.248c22.122 0.002 106.632 90.356 106.632 149.248z" fill="#F5F7FA" /></svg>