<?xml version="1.0" standalone="no"?><!DOCTYPE svg PUBLIC "-//W3C//DTD SVG 1.1//EN" "http://www.w3.org/Graphics/SVG/1.1/DTD/svg11.dtd"><svg class="icon" width="128px" height="128.00px" viewBox="0 0 1024 1024" version="1.1" xmlns="http://www.w3.org/2000/svg"><path d="M490.68 696.000006v306.687994c0 11.75 9.516 21.312 21.33 21.312 11.75 0 21.312-9.562 21.312-21.312V696.000006H490.68z" fill="#8CC152" /><path d="M859.569993 338.718013L527.07 6.21802A21.256 21.256 0 0 0 512.008 0.00002c-5.5 0-10.938 2.078-15.064 6.218L164.430007 338.718013c-8.312 8.296-8.312 21.876 0 30.172l332.515993 332.483993a21.12 21.12 0 0 0 15.064 6.25c5.436 0 10.936-2.094 15.062-6.25l332.499993-332.483993c8.31-8.296 8.31-21.874-0.002-30.172zM512.008 656.124007L209.680006 353.796013 512.008 51.484019 814.319994 353.796013 512.008 656.124007zM661.319997 853.312003H362.680003c-11.782 0-21.344 9.562-21.344 21.376 0 11.75 9.562 21.312 21.344 21.312h298.639994c11.812 0 21.376-9.562 21.376-21.312a21.368 21.368 0 0 0-21.376-21.376z" fill="#A0D468" /></svg>