<?xml version="1.0" standalone="no"?><!DOCTYPE svg PUBLIC "-//W3C//DTD SVG 1.1//EN" "http://www.w3.org/Graphics/SVG/1.1/DTD/svg11.dtd"><svg class="icon" width="128px" height="128.00px" viewBox="0 0 1024 1024" version="1.1" xmlns="http://www.w3.org/2000/svg"><path d="M992.71 31.264c-41.656-41.672-79.03-41.672-120.714 0L625.562 277.696l120.716 120.714L992.71 151.98c41.688-41.67 41.688-79.046 0-120.716z m-75.434 75.468c-8.312-8.328-8.312-21.844 0-30.172a21.334 21.334 0 0 1 30.186 0c8.344 8.328 8.344 21.844 0 30.172s-21.842 8.328-30.186 0z" fill="#ED5564" /><path d="M625.562 277.696l-135.808 45.28 211.308 211.274 45.218-135.838z" fill="#E6E9ED" /><path d="M699.938 412.426c-8.312 8.328-21.844 8.328-30.188 0-8.312-8.328-8.312-21.842 0-30.17 8.344-8.344 21.876-8.344 30.188 0 8.344 8.328 8.344 21.842 0 30.17zM640.688 353.164c-8.344 8.328-21.844 8.328-30.188 0a21.336 21.336 0 0 1 0-30.188c8.344-8.328 21.844-8.328 30.188 0 8.312 8.344 8.312 21.844 0 30.188z" fill="#AAB2BC" /><path d="M655.75 911.492c-149.996 149.996-393.208 149.996-543.206 0-150.028-149.996-150.028-393.224 0-543.236 149.996-150.012 393.208-150.012 543.206 0 150.028 150.012 150.028 393.24 0 543.236z" fill="#434A54" /><path d="M655.75 368.256a378.92 378.92 0 0 0-22.156-20.516c129.154 150.918 122.31 378.254-20.5 521.064-142.838 142.84-370.146 149.652-521.08 20.5 6.5 7.594 13.344 15 20.532 22.188 149.996 149.996 393.208 149.996 543.206 0 150.026-149.996 150.026-393.224-0.002-543.236z" fill="#FFFFFF" opacity=".1" /><path d="M384.164 874.618c-62.716 0-121.654-24.406-165.996-68.748s-68.748-103.28-68.748-165.996c0-62.686 24.406-121.652 68.748-165.996 44.342-44.326 103.28-68.748 165.996-68.748 62.686 0 121.654 24.422 165.966 68.748 44.342 44.342 68.746 103.31 68.746 165.996 0 62.716-24.404 121.654-68.746 165.996-44.314 44.34-103.282 68.748-165.966 68.748z" fill="#656D78" /><path d="M565.22 458.786c-48.374-48.358-112.654-74.998-181.058-74.998s-132.716 26.64-181.09 74.998c-48.374 48.374-74.998 112.684-74.998 181.088s26.624 132.716 74.998 181.09c48.374 48.374 112.686 74.998 181.09 74.998s132.684-26.656 181.058-74.998c48.374-48.374 74.998-112.686 74.998-181.09s-26.624-132.714-74.998-181.088z m-30.184 331.992c-40.282 40.31-93.874 62.496-150.872 62.496-57.03 0-110.59-22.186-150.902-62.496-40.312-40.312-62.5-93.906-62.5-150.904s22.188-110.606 62.5-150.902c40.28-40.294 93.904-62.498 150.902-62.498s110.59 22.188 150.872 62.498c40.31 40.296 62.53 93.904 62.53 150.902s-22.22 110.59-62.53 150.904z" fill="#AAB2BC" /></svg>