<?xml version="1.0" standalone="no"?><!DOCTYPE svg PUBLIC "-//W3C//DTD SVG 1.1//EN" "http://www.w3.org/Graphics/SVG/1.1/DTD/svg11.dtd"><svg class="icon" width="128px" height="128.00px" viewBox="0 0 1024 1024" version="1.1" xmlns="http://www.w3.org/2000/svg"><path d="M405.33 405.346h213.354v85.31H405.33z" fill="#FFCE54" /><path d="M746.682 469.344H320.004c-11.782 0-21.328 9.532-21.328 21.312S308.222 512 320.004 512h426.678c11.75 0 21.31-9.562 21.31-21.344s-9.56-21.312-21.31-21.312z" fill="#DA4453" /><path d="M853.304 490.656H213.334c-23.514 0-42.654 19.156-42.654 42.686 0 23.532 19.14 42.656 42.654 42.656h639.97c23.562 0 42.686-19.124 42.686-42.656 0-23.53-19.122-42.686-42.686-42.686z" fill="#F4BE8E" /><path d="M810.68 575.998h-640c-23.532 0-42.672 19.124-42.672 42.656 0 23.53 19.14 42.686 42.672 42.686h640c23.5 0 42.624-19.156 42.624-42.686s-19.124-42.656-42.624-42.656z" fill="#EAAD7A" /><path d="M853.304 661.34H213.334c-23.514 0-42.654 19.124-42.654 42.654 0 23.532 19.14 42.656 42.654 42.656h639.97c23.562 0 42.686-19.124 42.686-42.656 0-23.53-19.122-42.654-42.686-42.654z" fill="#F4BE8E" /><path d="M810.68 746.65h-640c-23.532 0-42.672 19.156-42.672 42.688 0 23.53 19.14 42.654 42.672 42.654h640c23.5 0 42.624-19.124 42.624-42.654 0-23.532-19.124-42.688-42.624-42.688z" fill="#EAAD7A" /><path d="M810.68 831.992h-640c-23.532 0-42.672 19.124-42.672 42.654s19.14 42.688 42.672 42.688h640c23.5 0 42.624-19.156 42.624-42.688s-19.124-42.654-42.624-42.654z" fill="#F4BE8E" /><path d="M699.278 285.288c-0.032-0.062-4.656-6.188-6.906-13.938-2.594-9.094-1-15.688 5.406-22.094 17.344-17.406 23.032-39.998 16.156-63.624-4.656-15.876-13.594-27.062-14.812-28.5v-0.032c0-0.032-0.032-0.032-0.032-0.032a21.3 21.3 0 0 0-16.406-7.718c-11.812 0-21.376 9.532-21.376 21.312 0 5.188 1.876 9.938 4.938 13.624 0.032 0.062 4.532 5.876 6.718 13.312 2.532 8.718 0.906 15.154-5.406 21.53-17.312 17.344-23.032 40.094-16.188 64 4.656 16.186 13.688 27.686 14.688 28.936a21.258 21.258 0 0 0 16.624 7.938c11.75 0 21.312-9.562 21.312-21.344a21.16 21.16 0 0 0-4.75-13.374h0.034zM548.968 114.698c-6.344-23.906-18.61-40.468-19.984-42.282l-0.032 0.032a21.24 21.24 0 0 0-16.954-8.438c-11.782 0-21.328 9.562-21.328 21.344 0 4.812 1.61 9.218 4.296 12.812h-0.016c0.094 0.124 8.984 12.218 13.078 28.624 4.906 19.686 0.984 36.374-12.016 51.092-22.782 25.782-30.046 57.374-20.984 91.436 6.344 23.874 18.61 40.466 19.984 42.28l0.016-0.032c3.906 5.124 10.046 8.438 16.968 8.438 11.782 0 21.328-9.562 21.328-21.344 0-4.844-1.64-9.31-4.376-12.904h0.032c-0.094-0.124-8.546-11.688-12.718-27.406-5.376-20.156-1.532-37.218 11.718-52.216 22.77-25.782 30.052-57.408 20.988-91.436zM372.58 185.632c-4.656-15.906-13.624-27.124-14.78-28.532-0.016 0-0.032-0.032-0.032-0.032h-0.016a21.26 21.26 0 0 0-16.422-7.718c-11.782 0-21.328 9.532-21.328 21.312 0 5.156 1.828 9.876 4.86 13.562l-0.078-0.094c0.062 0.062 4.984 6.312 7.094 14.376 2.172 8.282 0.484 14.466-5.656 20.624-17.282 17.344-23.032 40.094-16.172 64 4.656 16.186 13.672 27.686 14.672 28.936h0.016a21.264 21.264 0 0 0 16.594 7.938c11.782 0 21.344-9.562 21.344-21.344a21.24 21.24 0 0 0-4.734-13.374c-0.046-0.062-4.656-6.188-6.876-13.938-2.61-9.094-1-15.688 5.39-22.094 17.312-17.404 23.046-39.996 16.124-63.622z m-47.702-1.374c0.016 0 0.032 0.032 0.032 0.032l-0.032-0.032z" fill="#E6E9ED" /><path d="M1002.676 917.334H21.34c-11.782 0-21.328 9.532-21.328 21.312s9.546 21.344 21.328 21.344h981.336c11.75 0 21.312-9.562 21.312-21.344s-9.562-21.312-21.312-21.312z" fill="#434A54" /><path d="M298.676 810.648c0 11.782 9.546 21.344 21.328 21.344s21.328-9.562 21.328-21.344V490.656h-42.656v319.992zM554.688 725.338a21.298 21.298 0 0 0 21.31 21.312 21.3 21.3 0 0 0 21.312-21.312V490.656h-42.624v234.682zM725.308 490.656v127.998c0 11.782 9.56 21.342 21.374 21.342 11.75 0 21.31-9.56 21.31-21.342v-127.998h-42.684z" fill="#ED5564" /><path d="M426.674 490.656v108.686c0 11.782 9.546 21.312 21.326 21.312 11.782 0 21.328-9.532 21.328-21.312v-108.686h-42.654z" fill="#ED5564" /></svg>