<?xml version="1.0" standalone="no"?><!DOCTYPE svg PUBLIC "-//W3C//DTD SVG 1.1//EN" "http://www.w3.org/Graphics/SVG/1.1/DTD/svg11.dtd"><svg class="icon" width="128px" height="128.00px" viewBox="0 0 1024 1024" version="1.1" xmlns="http://www.w3.org/2000/svg"><path d="M831.988 1023.98H575.996L512 661.306 448 1023.98H192.01L234.682 0.02H789.3z" fill="#46CEAD" /><path d="M459.298 959.984H194.682l-2.672 63.996H448zM575.996 1023.98h255.992l-2.688-63.996H564.688z" fill="#35BB9B" /><path d="M568.624 106.686c23.872 18.204 112.93 81.138 229.394 101.95l-1.844-43.778c-60.308-12.266-112.746-36.92-149.746-58.17h147.34l-1.782-42.67H682.68V0.02h-42.684v63.998H384.004V0.02h-42.67v63.998h-109.324l-1.782 42.67h147.462c-36.92 21.25-89.372 45.89-149.884 58.17l-1.828 43.778c116.448-20.812 205.54-83.746 229.398-101.95h113.248z" fill="#35BB9B" /><path d="M490.672 0.02v170.666c0 11.78 9.546 21.328 21.328 21.328s21.33-9.546 21.33-21.328V0.02h-42.658z" fill="#E5E8EC" /></svg>