<?xml version="1.0" standalone="no"?><!DOCTYPE svg PUBLIC "-//W3C//DTD SVG 1.1//EN" "http://www.w3.org/Graphics/SVG/1.1/DTD/svg11.dtd"><svg class="icon" width="128px" height="128.00px" viewBox="0 0 1024 1024" version="1.1" xmlns="http://www.w3.org/2000/svg"><path d="M981.296 554.686H42.67c-11.78 0-21.342 9.5-21.342 21.312V917.3c0 11.812 9.562 21.376 21.342 21.376h938.626c11.782 0 21.344-9.562 21.344-21.376V575.998c0-11.812-9.562-21.312-21.344-21.312zM852.708 278.1c-0.5-2.062-12.684-50.654-61.84-98.496-28.406-27.624-63.468-49.592-104.214-65.28-50.032-19.218-108.782-29-174.652-29-65.904 0-124.652 9.782-174.682 29-40.748 15.686-75.81 37.654-104.214 65.28-49.158 47.842-61.346 96.434-61.846 98.496a21.294 21.294 0 0 0 4.188 18.468c1.5 1.876 38.092 46.592 97.34 91.748 35 26.654 70.716 47.936 106.184 63.248 45.03 19.468 89.78 29.31 133.028 29.31 43.218 0 87.964-9.842 132.996-29.31 35.468-15.312 71.184-36.594 106.184-63.248 59.25-45.156 95.84-89.874 97.34-91.748 4.218-5.188 5.75-12 4.188-18.468z" fill="#ED5564" /><path d="M874.644 213.32H149.324c-11.782 0-21.312 9.562-21.312 21.344v149.34a21.3 21.3 0 0 0 21.312 21.312h725.322c11.782 0 21.344-9.532 21.344-21.312v-149.34c-0.002-11.782-9.564-21.344-21.346-21.344z" fill="#F6BB42" /><path d="M1002.64 597.308H21.328c-11.782 0-21.312-9.498-21.312-21.31s9.53-21.312 21.312-21.312H1002.64c11.782 0 21.344 9.5 21.344 21.312s-9.562 21.31-21.344 21.31z" fill="#434A54" /><path d="M917.3 426.658H106.668c-11.78 0-21.342 9.562-21.342 21.344V917.3c0 11.812 9.562 21.376 21.342 21.376H917.3c11.782 0 21.344-9.562 21.344-21.376V448.002c0-11.782-9.562-21.344-21.344-21.344zM964.926 320.568l-447.988-106.654a21.208 21.208 0 0 0-9.906 0L59.044 320.568a21.356 21.356 0 0 0-16.376 20.75v42.686h938.626v-42.686a21.346 21.346 0 0 0-16.368-20.75z" fill="#FFCE54" /><path d="M565.312 938.676h-106.654c-11.782 0-21.342-47.75-21.342-106.686s9.562-106.686 21.342-106.686h106.654c11.778 0 21.34 47.75 21.34 106.686s-9.562 106.686-21.34 106.686z" fill="#434A54" /><path d="M485.314 433.876a21.34 21.34 0 0 0-16-7.218h-85.31a21.292 21.292 0 0 0-16 7.218 21.316 21.316 0 0 0-5.188 16.75l10.5 84.03v404.02H480v-404.02l10.5-84.03a21.314 21.314 0 0 0-5.186-16.75zM655.964 433.876a21.274 21.274 0 0 0-15.968-7.218h-85.34c-6.124 0-11.938 2.624-16 7.218s-5.938 10.688-5.188 16.75L544 534.656v404.02h106.652v-404.02l10.5-84.03a21.308 21.308 0 0 0-5.188-16.75zM826.648 433.876a21.34 21.34 0 0 0-16-7.218h-85.344a21.34 21.34 0 0 0-16 7.218c-4.028 4.594-5.934 10.688-5.152 16.75l10.496 84.03v404.02h106.656v-404.02l10.5-84.03a21.406 21.406 0 0 0-5.156-16.75zM314.662 433.876a21.34 21.34 0 0 0-16-7.218H213.32a21.342 21.342 0 0 0-16 7.218 21.286 21.286 0 0 0-5.156 16.75l10.5 84.03v404.02h106.654v-404.02l10.5-84.03a21.406 21.406 0 0 0-5.156-16.75z" fill="#E6E9ED" /><path d="M298.664 426.658h-85.342a21.342 21.342 0 0 0-16 7.218 21.286 21.286 0 0 0-5.156 16.75l10.342 82.686h106.998l10.312-82.686a21.406 21.406 0 0 0-5.156-16.75 21.342 21.342 0 0 0-15.998-7.218zM469.314 426.658h-85.31a21.292 21.292 0 0 0-16 7.218 21.316 21.316 0 0 0-5.188 16.75l10.342 82.686h106.998l10.344-82.686c0.75-6.062-1.124-12.156-5.188-16.75s-9.874-7.218-15.998-7.218zM639.996 426.658h-85.34c-6.124 0-11.938 2.624-16 7.218s-5.938 10.688-5.188 16.75l10.344 82.686h106.996l10.344-82.686a21.308 21.308 0 0 0-5.188-16.75 21.276 21.276 0 0 0-15.968-7.218zM810.648 426.658h-85.344a21.34 21.34 0 0 0-16 7.218c-4.028 4.594-5.934 10.688-5.152 16.75l10.34 82.686h107l10.312-82.686a21.406 21.406 0 0 0-5.156-16.75 21.344 21.344 0 0 0-16-7.218z" fill="#F5F7FA" /><path d="M917.3 362.66H106.668c-11.78 0-21.342 9.562-21.342 21.344v63.998c0 11.78 9.562 21.312 21.342 21.312H917.3c11.782 0 21.344-9.532 21.344-21.312v-63.998c0-11.782-9.562-21.344-21.344-21.344z" fill="#ED5564" /><path d="M810.648 426.658c-11.782 0-21.344 9.562-21.344 21.344v21.312h42.688v-21.312c0-11.782-9.562-21.344-21.344-21.344zM725.304 426.658c-11.782 0-21.308 9.562-21.308 21.344v21.312h42.652v-21.312c0-11.782-9.562-21.344-21.344-21.344zM639.996 426.658c-11.812 0-21.344 9.562-21.344 21.344v21.312h42.656v-21.312c0-11.782-9.562-21.344-21.312-21.344zM554.656 426.658c-11.782 0-21.344 9.562-21.344 21.344v21.312h42.684v-21.312c0-11.782-9.558-21.344-21.34-21.344zM469.314 426.658c-11.782 0-21.312 9.562-21.312 21.344v21.312h42.656v-21.312c0-11.782-9.564-21.344-21.344-21.344zM384.004 426.658c-11.812 0-21.342 9.562-21.342 21.344v21.312h42.654v-21.312c0-11.782-9.562-21.344-21.312-21.344zM298.664 426.658c-11.782 0-21.344 9.562-21.344 21.344v21.312h42.686v-21.312c0-11.782-9.562-21.344-21.342-21.344zM213.322 426.658c-11.78 0-21.312 9.562-21.312 21.344v21.312h42.656v-21.312c0-11.782-9.564-21.344-21.344-21.344z" fill="#DA4453" /></svg>