<?xml version="1.0" standalone="no"?><!DOCTYPE svg PUBLIC "-//W3C//DTD SVG 1.1//EN" "http://www.w3.org/Graphics/SVG/1.1/DTD/svg11.dtd"><svg class="icon" width="128px" height="128.00px" viewBox="0 0 1024 1024" version="1.1" xmlns="http://www.w3.org/2000/svg"><path d="M906.84 386.878c-10.094-6.032-23.218-2.782-29.282 7.344L565.44 914.398 682 431.502c2.782-11.438-4.25-22.968-15.688-25.718-11.468-2.782-23 4.282-25.75 15.718l-128.576 532.552-128.53-532.552c-2.782-11.436-14.282-18.5-25.718-15.718-11.468 2.75-18.5 14.28-15.75 25.718l116.56 482.896L146.43 394.222c-6.062-10.124-19.156-13.376-29.25-7.344-10.124 6.062-13.376 19.188-7.312 29.28l364.68 607.834h74.89l364.71-607.834c6.064-10.092 2.784-23.218-7.308-29.28z" fill="#FFD2A6" /><path d="M798.436 116.85C722.124 41.508 620.408 0.008 511.988 0.008c-108.374 0-210.09 41.5-286.402 116.842-76.592 75.624-118.78 176.81-118.78 284.872v3.468c0 9.062 5.782 17.156 14.376 20.156a21.336 21.336 0 0 0 23.718-6.968c26.468-33.656 42.5-45.624 79.656-45.624 52.468 0 99.28 24.938 119.248 63.53a21.254 21.254 0 0 0 18.936 11.562c7.938 0 15.25-4.468 18.938-11.562 16.312-31.562 66.312-63.53 130.31-63.53 64.014 0 114.046 31.968 130.356 63.53a21.338 21.338 0 0 0 18.968 11.562c7.938 0 15.25-4.468 18.938-11.562 19.936-38.592 66.748-63.53 119.248-63.53 37.124 0 53.124 11.968 79.624 45.624a21.332 21.332 0 0 0 23.718 6.968 21.368 21.368 0 0 0 14.342-20.156v-3.468c0-108.06-42.186-209.248-118.746-284.872z" fill="#A0D468" /><path d="M798.436 116.85C722.124 41.508 620.408 0.008 511.988 0.008c-108.374 0-210.09 41.5-286.402 116.842-76.592 75.624-118.78 176.81-118.78 284.872v3.468c0 2.5 0.468 4.906 1.282 7.156 7.468-95.906 48.53-184.748 117.498-252.84 76.312-75.342 178.028-116.842 286.402-116.842 108.42 0 210.136 41.5 286.448 116.842 68.966 68.092 109.998 156.934 117.496 252.84 0.812-2.25 1.25-4.656 1.25-7.156v-3.468c0-108.06-42.186-209.248-118.746-284.872z" fill="#FFFFFF" opacity=".2" /><path d="M597.314 767.714h-170.608c-11.78 0-21.342 9.532-21.342 21.312v213.246c0 11.782 9.562 21.344 21.342 21.344h170.608c11.782 0 21.312-9.562 21.312-21.344V789.028a21.3 21.3 0 0 0-21.312-21.314z" fill="#ED5564" /><path d="M576.002 916.992c-11.782 0-21.344 9.532-21.344 21.312s9.562 21.312 21.344 21.312h42.624v-42.624h-42.624zM576.002 831.684c-11.782 0-21.344 9.532-21.344 21.312s9.562 21.344 21.344 21.344h42.624v-42.656h-42.624zM448.02 874.34c11.782 0 21.344-9.562 21.344-21.344s-9.562-21.312-21.344-21.312h-42.656v42.656h42.656zM448.02 959.618c11.782 0 21.344-9.532 21.344-21.312s-9.562-21.312-21.344-21.312h-42.656v42.624h42.656z" fill="#434A54" /></svg>