<?xml version="1.0" standalone="no"?><!DOCTYPE svg PUBLIC "-//W3C//DTD SVG 1.1//EN" "http://www.w3.org/Graphics/SVG/1.1/DTD/svg11.dtd"><svg class="icon" width="128px" height="128.00px" viewBox="0 0 1024 1024" version="1.1" xmlns="http://www.w3.org/2000/svg"><path d="M170.698 277.342c-11.782 0-21.344-9.546-21.344-21.326 0-11.782 9.562-21.328 21.344-21.328 17.876 0 29.438-6.11 36.404-19.218 5.844-10.984 6.25-22.828 6.25-23.578V128.018c0-11.78 9.562-21.328 21.344-21.328s21.312 9.546 21.312 21.328v63.998c0 2.156-0.282 21.608-10.25 41.546-14.094 28.234-40.782 43.78-75.06 43.78zM853.332 277.342c-34.28 0-60.964-15.546-75.058-43.78-9.968-19.938-10.282-39.39-10.282-41.546V128.018c0-11.78 9.562-21.328 21.344-21.328s21.342 9.546 21.342 21.328v63.874c0 0.75 0.406 12.594 6.25 23.578 6.968 13.11 18.532 19.218 36.404 19.218 11.782 0 21.344 9.546 21.344 21.328 0 11.78-9.562 21.326-21.344 21.326z" fill="#7F4545" /><path d="M938.676 405.338c-42.906 0-76.188-19.328-93.75-54.452-12.56-25.108-12.936-49.514-12.936-52.202V128.018c0-11.78 9.562-21.328 21.342-21.328 11.782 0 21.344 9.546 21.344 21.328v170.666c0 0.046 0.282 17.624 8.968 34.202 10.468 20.046 28.468 29.796 55.032 29.796 11.78 0 21.31 9.546 21.31 21.328s-9.53 21.328-21.31 21.328zM85.356 405.338c-11.782 0-21.342-9.546-21.342-21.328s9.56-21.328 21.342-21.328c26.562 0 44.562-9.75 55.03-29.796 8.688-16.578 8.968-34.156 8.968-34.328v-170.54c0-11.78 9.562-21.328 21.344-21.328s21.312 9.546 21.312 21.328v170.666c0 2.688-0.344 27.092-12.906 52.202-17.562 35.126-50.842 54.452-93.748 54.452z" fill="#965353" /><path d="M234.696 917.308c-11.782 0-21.344-9.532-21.344-21.312v-106.684c0-11.75 9.562-21.312 21.344-21.312s21.312 9.562 21.312 21.312v106.684a21.3 21.3 0 0 1-21.312 21.312z" fill="#656D78" /><path d="M298.694 895.996c-11.782 0-21.344-9.562-21.344-21.312v-85.372c0-11.75 9.562-21.312 21.344-21.312s21.312 9.562 21.312 21.312v85.372c0 11.75-9.532 21.312-21.312 21.312zM725.336 895.996c-11.782 0-21.342-9.562-21.342-21.312v-85.372c0-11.75 9.56-21.312 21.342-21.312s21.344 9.562 21.344 21.312v85.372c0 11.75-9.562 21.312-21.344 21.312z" fill="#434A54" /><path d="M789.336 917.308c-11.782 0-21.344-9.532-21.344-21.312v-106.684c0-11.75 9.562-21.312 21.344-21.312s21.342 9.562 21.342 21.312v106.684c0 11.782-9.56 21.312-21.342 21.312z" fill="#656D78" /><path d="M85.356 106.692H21.358C9.576 106.692 0.016 116.238 0.016 128.02v767.978c0 11.782 9.56 21.312 21.342 21.312h63.998c11.782 0 21.344-9.532 21.344-21.312V128.018c0-11.78-9.564-21.326-21.344-21.326zM1002.672 106.692h-63.996c-11.782 0-21.344 9.546-21.344 21.328v767.978c0 11.782 9.562 21.312 21.344 21.312h63.996a21.3 21.3 0 0 0 21.312-21.312V128.018c0-11.78-9.53-21.326-21.312-21.326z" fill="#A85D5D" /><path d="M298.694 746.688c-11.782 0-21.344-9.562-21.344-21.376V490.68c0-11.782 9.562-21.342 21.344-21.342s21.312 9.562 21.312 21.342v234.632c0 11.812-9.532 21.376-21.312 21.376zM725.336 746.688c-11.782 0-21.342-9.562-21.342-21.376V490.68c0-11.782 9.56-21.342 21.342-21.342s21.344 9.562 21.344 21.342v234.632c0 11.812-9.562 21.376-21.344 21.376z" fill="#434A54" /><path d="M767.992 618.692H256.008c-11.75 0-21.312-9.562-21.312-21.376 0-11.748 9.562-21.31 21.312-21.31h511.984c11.812 0 21.344 9.562 21.344 21.31 0 11.812-9.532 21.376-21.344 21.376zM767.992 682.69H256.008c-11.75 0-21.312-9.56-21.312-21.374 0-11.75 9.562-21.312 21.312-21.312h511.984c11.812 0 21.344 9.562 21.344 21.312 0 11.812-9.532 21.374-21.344 21.374zM767.992 554.694H256.008c-11.75 0-21.312-9.562-21.312-21.358 0-11.782 9.562-21.328 21.312-21.328h511.984c11.812 0 21.344 9.546 21.344 21.328 0 11.794-9.532 21.358-21.344 21.358z" fill="#F4BE8E" /><path d="M789.336 704.002h-554.64c-11.782 0-21.344 9.562-21.344 21.31v64c0 11.812 9.562 21.376 21.344 21.376h554.64c11.782 0 21.342-9.562 21.342-21.376v-64c0-11.748-9.56-21.31-21.342-21.31z" fill="#FFD2A6" /></svg>