<?xml version="1.0" standalone="no"?><!DOCTYPE svg PUBLIC "-//W3C//DTD SVG 1.1//EN" "http://www.w3.org/Graphics/SVG/1.1/DTD/svg11.dtd"><svg class="icon" width="128px" height="128.00px" viewBox="0 0 1024 1024" version="1.1" xmlns="http://www.w3.org/2000/svg"><path d="M131.582 27.108h773.96v979.944H131.582z" fill="#FFCE54" /><path d="M853.358 0.014H106.738v490.674h-0.094v533.296H917.354V0.014h-63.996z m-64.126 928.474L529.196 668.464l-25.688-25.688 30.188-30.156 255.538 255.554v60.314z m0-120.652L563.866 582.438l-60.358-60.344 30.188-30.156 255.538 255.558v60.34zM234.734 549.532l238.62-238.62 4.31 4.312 25.844 25.876-60.342 60.31-208.432 208.434v-60.312z m0-241.37l238.62-238.586 30.154 30.156-30.154 30.156-238.62 238.618v-60.344z m238.62-117.934l30.154 30.186-30.154 30.156-238.62 238.618v-60.342l238.62-238.618z m-238.62 479.956l238.62-238.588 30.154 30.156-30.154 30.188-238.62 238.588v-60.344z m0 120.684l238.62-238.586 30.154 30.156-30.154 30.184-238.62 238.586v-60.34z m208.432-87.746l30.188-30.188 13.28 13.282 16.876 16.906-75.436 75.434-193.338 193.34v-60.344l208.43-208.43z m346.066-15.97L533.696 431.596l-30.188-30.186 30.188-30.156 150.856 150.84 104.682 104.714v60.344z m-255.536-376.24l-30.188-30.156 30.188-30.186 123.418 123.434 132.12 132.122v60.342L533.696 310.912z m255.662 134.996L563.866 220.414l-30.17-30.186-30.188-30.156 30.188-30.156 255.662 255.648v60.344z m0-362.052L748.174 42.7h41.184v41.156z m-85.994-25.594l85.994 85.934v60.342L635.488 50.7l-8-8H687.8l15.564 15.562z m85.994 206.62v60.342l-107.556-107.56L506.82 42.7h60.358l222.18 222.182z m-554.624-17.062V187.508l138.058-138.058 6.75-6.75h60.342L234.734 247.82z m0-120.684V66.826L258.86 42.7h60.342l-84.468 84.436z m87.78 817.322l150.84-150.84 30.154 30.188-157.526 157.528h-60.344l36.876-36.876z m150.84-30.158l30.154 30.188-36.842 36.844h-60.344l67.032-67.032z m90.512 30.188l-60.358-60.344 30.188-30.188 127.356 127.376H600.74l-36.874-36.844z m-23.484 36.844h-13.376l6.688-6.688 6.688 6.688z m-36.874-217.868l30.188-30.156 248.04 248.024h-60.372L503.508 763.464zM192.078 42.7v447.988H149.424V42.7H192.078zM155.08 981.332h-5.782V533.344h42.78v447.988H155.08z m719.59 0H831.92V533.344h42.75v447.988z m-42.688-490.644V42.7h42.688v447.988h-42.688z" fill="#F6BB42" /></svg>