<?xml version="1.0" standalone="no"?><!DOCTYPE svg PUBLIC "-//W3C//DTD SVG 1.1//EN" "http://www.w3.org/Graphics/SVG/1.1/DTD/svg11.dtd"><svg class="icon" width="128px" height="128.00px" viewBox="0 0 1024 1024" version="1.1" xmlns="http://www.w3.org/2000/svg"><path d="M421.876 848.148c-108.356 0-208.104-34.532-280.882-97.25-37.748-32.528-67.232-71.528-87.622-115.964-21.234-46.282-32-97.246-32-151.48 0-87.874 34.216-170.48 96.342-232.604 62.138-62.138 144.746-96.356 232.602-96.356 149.824 0 271.712 121.888 271.712 271.712 0 124.544-101.34 225.916-225.916 225.916-53.044 0-101.06-16.688-135.2-46.968-34.876-30.934-54.078-74.73-54.078-123.338 0-42.952 16.14-81.638 45.438-108.934 28.092-26.17 66.982-40.592 109.528-40.592 23.562 0 42.734 19.156 42.734 42.718s-19.172 42.734-42.734 42.734c-42.874 0-69.514 24.546-69.514 64.076 0 62.624 55.936 84.874 103.826 84.874 77.452 0 140.464-63.03 140.464-140.482 0-102.702-83.544-186.262-186.262-186.262-134.262 0-243.492 109.232-243.492 243.51 0 164.416 129.542 279.226 315.052 279.226h194.622v85.468h-194.62z" fill="#ED5564" /><path d="M421.876 741.336c-175.666 0-293.696-103.652-293.696-257.882 0-122.496 99.654-222.15 222.134-222.15 90.936 0 164.904 73.982 164.904 164.902 0 65.67-53.438 119.106-119.108 119.106-13.766 0-82.466-3.062-82.466-63.5 0-38.562 33.688-42.718 48.154-42.718 35.344 0 64.092-28.75 64.092-64.092 0-35.328-28.748-64.078-64.092-64.078-47.966 0-92.028 16.454-124.09 46.328-33.672 31.388-52.232 75.624-52.232 124.558 0 54.812 21.764 104.276 61.264 139.308 19.124 17 41.794 30.124 67.358 39.032 25.328 8.844 52.92 13.344 82.014 13.344 136.356 0 247.26-110.934 247.26-247.29 0-161.606-131.452-293.07-293.056-293.07-93.574 0-181.542 36.436-247.71 102.606C36.452 301.912 0.014 389.878 0.014 483.454c0 57.342 11.422 111.292 33.954 160.416 21.67 47.188 52.982 88.684 93.092 123.214 76.636 66.032 181.354 102.402 294.818 102.402h215.964v-128.15H421.876z m173.248 85.438h-173.246c-103.246 0-198.042-32.688-266.93-92.062-35.42-30.528-63.06-67.09-82.154-108.684-19.952-43.464-30.06-91.434-30.06-142.574 0-82.17 31.998-159.402 90.09-217.51 58.094-58.092 135.342-90.092 217.494-90.092 138.044 0 250.37 112.31 250.37 250.354 0 112.778-91.78 204.54-204.572 204.54-98.858 0-167.902-61.246-167.902-148.932 0-36.952 13.718-70.092 38.624-93.31 24.124-22.484 57.858-34.858 94.964-34.858 11.796 0 21.376 9.562 21.376 21.358s-9.578 21.358-21.376 21.358c-54.358 0-90.872 34.344-90.872 85.452 0 73.374 62.874 106.214 125.184 106.214 89.232 0 161.824-72.59 161.824-161.822 0-114.482-93.138-207.62-207.622-207.62-146.042 0-264.868 118.808-264.868 264.868 0 176.98 138.34 300.6 336.428 300.6h173.246v42.72z" fill="#DA4453" /><path d="M1023.986 869.488H719.056v-128.152h219.528z" fill="#F6BB42" /><path d="M554.062 719.964h256.37v170.898H554.062z" fill="#FFCE54" /></svg>