<?xml version="1.0" standalone="no"?><!DOCTYPE svg PUBLIC "-//W3C//DTD SVG 1.1//EN" "http://www.w3.org/Graphics/SVG/1.1/DTD/svg11.dtd"><svg class="icon" width="128px" height="128.00px" viewBox="0 0 1024 1024" version="1.1" xmlns="http://www.w3.org/2000/svg"><path d="M318.152 676.124l183.856 168.556c2.03 2.03-6.776 53.146-4.496 54.738 18.518 12.928 44.214 11.118 60.764-5.434 18.58-18.578 18.58-48.71 0-67.292 18.58 18.58 48.712 18.58 67.292 0 18.266-18.268 18.546-47.744 0.81-66.384 18.642 17.736 48.12 17.456 66.416-0.844 18.27-18.268 18.548-47.744 0.812-66.386 18.642 17.706 48.12 17.458 66.418-0.842 18.578-18.58 18.578-48.682 0-67.26l-150.602-149.928-92.772-56.426 71.88-46.37-247.992-99.922-190.632 190.6 99.266 157.206 68.98 55.988z" fill="#DBA6A1" /><path d="M880.15 467.398L676.214 263.494l-200.28 77.252-80.468 80.468c-18.674 18.674-18.674 48.932 0 67.604 18.672 18.674 48.93 18.674 67.604 0l38.938-36.19 49.648-12.708 57.768 35.128 150.602 149.928 120.124-157.578z" fill="#EAC6BB" /><path d="M275.216 594.032l-23.452 23.452c-18.578 18.578-18.578 48.71 0 67.26 18.58 18.578 48.712 18.578 67.26 0.032l23.482-23.482c18.578-18.578 18.578-48.68 0-67.26-18.578-18.58-48.712-18.58-67.29-0.002z" fill="#EAC6BB" /><path d="M342.508 661.292l-23.482 23.482c-18.546 18.546-18.578 48.68 0 67.26 18.58 18.58 48.712 18.58 67.292 0l23.452-23.452c18.58-18.578 18.58-48.71 0-67.292-18.582-18.578-48.684-18.578-67.262 0.002z" fill="#EAC6BB" /><path d="M409.768 728.582l-23.452 23.452c-18.578 18.58-18.578 48.71 0 67.26 18.58 18.58 48.682 18.58 67.26 0l23.482-23.452c18.58-18.578 18.548-48.68 0-67.26-18.578-18.578-48.71-18.578-67.29 0z" fill="#EAC6BB" /><path d="M477.058 795.842l-23.482 23.452c-18.578 18.58-18.578 48.712 0 67.292 18.58 18.58 48.712 18.58 67.292 0l23.45-23.45c18.578-18.58 18.578-48.712 0-67.292s-48.68-18.58-67.26-0.002z" fill="#EAC6BB" /><path d="M1023.6 361.104l-124.872 124.904-245.026-245.058 124.87-124.872zM245.428 117.67l124.87 124.868L125.272 487.564 0.404 362.694z" fill="#434A54" /><path d="M118.744 369.224a21.318 21.318 0 0 0 0 30.164c8.306 8.306 21.828 8.306 30.132 0a21.314 21.314 0 0 0 0-30.164c-8.304-8.306-21.826-8.306-30.132 0z" fill="#FFCE54" /></svg>