<?xml version="1.0" standalone="no"?><!DOCTYPE svg PUBLIC "-//W3C//DTD SVG 1.1//EN" "http://www.w3.org/Graphics/SVG/1.1/DTD/svg11.dtd"><svg class="icon" width="128px" height="128.00px" viewBox="0 0 1024 1024" version="1.1" xmlns="http://www.w3.org/2000/svg"><path d="M981.344 767.992H42.672V170.664h42.672V85.32h256L384 170.664h597.344z" fill="#F6BB42" /><path d="M981.344 895.992H42.672L0 256.008h1024z" fill="#FFCE54" /><path d="M853.344 469.32c-70.718 0-128 57.312-128 127.984v192h256v-192c0-70.672-57.312-127.984-128-127.984z m85.344 277.36H768v-149.376c0-47 38.282-85.296 85.344-85.296 47.032 0 85.344 38.296 85.344 85.296v149.376z" fill="#434A54" /><path d="M682.688 639.992H1024V938.68H682.688z" fill="#ED5564" /><path d="M883.906 764.93c0 17.688-14.344 32-32 32h-8c-17.656 0-32-14.312-32-32 0-17.624 14.344-32 32-32h8c17.656 0 32 14.374 32 32z" fill="#434A54" /><path d="M917.344 767.992c0-35.312-28.656-64-64-64s-64 28.688-64 64c0 27.876 17.812 51.562 42.656 60.376v24.938c0 11.812 9.562 21.376 21.344 21.376s21.344-9.562 21.344-21.376v-24.938c24.844-8.814 42.656-32.5 42.656-60.376z m-64 21.312c-11.782 0-21.344-9.562-21.344-21.312s9.562-21.312 21.344-21.312 21.344 9.562 21.344 21.312-9.564 21.312-21.344 21.312z" fill="#656D78" /><path d="M128 383.976h554.688v213.328H128z" fill="#E6E9ED" /><path d="M303.624 493.508l-4.938-2.844 4.938-2.876c10.204-5.876 13.704-18.938 7.812-29.124-5.89-10.218-18.938-13.718-29.14-7.812l-4.954 2.844v-5.718c0-11.782-9.546-21.312-21.328-21.312s-21.328 9.532-21.328 21.312v5.718l-4.954-2.844c-10.204-5.906-23.25-2.406-29.14 7.812-5.89 10.188-2.406 23.25 7.796 29.124l4.954 2.876-4.954 2.844c-10.204 5.906-13.688 18.938-7.796 29.156 5.89 10.188 18.938 13.688 29.14 7.782l4.954-2.844v5.718c0 11.796 9.546 21.36 21.328 21.36s21.328-9.562 21.328-21.36v-5.718l4.954 2.844c10.204 5.906 23.25 2.406 29.14-7.782 5.892-10.218 2.392-23.25-7.812-29.156zM452.954 493.508L448 490.664l4.954-2.876c10.204-5.876 13.704-18.938 7.812-29.124-5.89-10.218-18.938-13.718-29.14-7.812l-4.954 2.844v-5.688c0-11.812-9.546-21.344-21.328-21.344S384 436.196 384 448.008v5.688l-4.938-2.844c-10.218-5.906-23.25-2.406-29.156 7.812-5.89 10.188-2.39 23.25 7.812 29.124l4.954 2.876-4.954 2.844c-10.204 5.906-13.704 18.938-7.812 29.156 5.89 10.188 18.938 13.688 29.156 7.812L384 527.6v5.718c0 11.796 9.562 21.36 21.344 21.36s21.328-9.562 21.328-21.36V527.6l4.954 2.876c10.204 5.876 23.25 2.376 29.14-7.812 5.89-10.218 2.39-23.25-7.812-29.156zM602.312 493.508l-4.968-2.844 4.968-2.876c10.188-5.876 13.688-18.938 7.782-29.124-5.906-10.218-18.938-13.718-29.156-7.812L576 453.696v-5.688c0-11.812-9.562-21.344-21.312-21.344a21.324 21.324 0 0 0-21.344 21.344v5.688l-4.954-2.844c-10.204-5.906-23.25-2.406-29.14 7.812-5.89 10.188-2.39 23.25 7.812 29.124l4.938 2.876-4.938 2.844c-10.204 5.906-13.704 18.938-7.812 29.156 5.89 10.188 18.938 13.688 29.14 7.812l4.954-2.876v5.718c0 11.796 9.546 21.36 21.344 21.36 11.75 0 21.312-9.562 21.312-21.36v-5.72l4.938 2.876c10.218 5.876 23.25 2.376 29.156-7.812 5.906-10.216 2.406-23.248-7.782-29.154z" fill="#434A54" /></svg>