<?xml version="1.0" standalone="no"?><!DOCTYPE svg PUBLIC "-//W3C//DTD SVG 1.1//EN" "http://www.w3.org/Graphics/SVG/1.1/DTD/svg11.dtd"><svg class="icon" width="128px" height="128.00px" viewBox="0 0 1024 1024" version="1.1" xmlns="http://www.w3.org/2000/svg"><path d="M344.362 1011.462c-16.656 16.654-43.684 16.654-60.34 0L12.51 739.952c-16.656-16.654-16.656-43.652 0-60.34L679.616 12.538c16.688-16.656 43.684-16.656 60.372 0l271.48 271.51c16.688 16.654 16.688 43.684 0 60.338L344.362 1011.462z" fill="#E6E9ED" /><path d="M724.862 148.276c-8.308 8.342-21.808 8.342-30.184 0-8.312-8.312-8.312-21.81 0-30.154 8.376-8.342 21.876-8.342 30.184 0 8.312 8.344 8.312 21.842 0 30.154zM815.358 238.8c-8.312 8.312-21.812 8.312-30.124 0a21.272 21.272 0 0 1 0-30.186c8.312-8.312 21.812-8.312 30.124 0a21.282 21.282 0 0 1 0 30.186zM905.85 329.294c-8.312 8.342-21.812 8.342-30.124 0-8.372-8.342-8.372-21.842 0-30.154 8.312-8.342 21.812-8.342 30.124 0 8.374 8.312 8.374 21.812 0 30.154zM679.616 284.048c-8.312 8.312-21.808 8.312-30.184 0-8.312-8.344-8.312-21.842 0-30.186 8.376-8.312 21.872-8.312 30.184 0 8.312 8.344 8.312 21.842 0 30.186zM770.112 374.54c-8.312 8.344-21.812 8.344-30.124 0-8.376-8.312-8.376-21.842 0-30.154 8.312-8.342 21.812-8.342 30.124 0 8.37 8.312 8.37 21.842 0 30.154z" fill="#CCD1D9" /><path d="M299.116 875.722c8.308-8.344 21.84-8.344 30.152 0 8.344 8.31 8.344 21.842 0 30.154-8.312 8.344-21.844 8.344-30.152 0-8.344-8.312-8.344-21.842 0-30.154zM208.62 785.198c8.312-8.312 21.812-8.312 30.156 0a21.33 21.33 0 0 1 0 30.186c-8.312 8.312-21.844 8.312-30.156 0a21.336 21.336 0 0 1 0-30.186zM118.096 694.706c8.344-8.344 21.844-8.312 30.188 0 8.308 8.344 8.308 21.842 0 30.184-8.344 8.312-21.844 8.312-30.188 0-8.312-8.344-8.312-21.842 0-30.184zM344.362 739.952c8.344-8.312 21.84-8.312 30.184 0 8.312 8.344 8.312 21.844 0 30.186-8.344 8.31-21.84 8.31-30.184 0-8.314-8.344-8.314-21.844 0-30.186zM253.87 649.458c8.308-8.344 21.84-8.344 30.152 0 8.344 8.344 8.344 21.842 0 30.152-8.312 8.344-21.844 8.344-30.152 0-8.344-8.31-8.344-21.808 0-30.152z" fill="#CCD1D9" /><path d="M767.798 526.466L497.506 256.174 256.178 497.532l270.292 270.292z" fill="#A0D468" /></svg>