<?xml version="1.0" standalone="no"?><!DOCTYPE svg PUBLIC "-//W3C//DTD SVG 1.1//EN" "http://www.w3.org/Graphics/SVG/1.1/DTD/svg11.dtd"><svg class="icon" width="128px" height="128.00px" viewBox="0 0 1024 1024" version="1.1" xmlns="http://www.w3.org/2000/svg"><path d="M639.992 96h128v672h-128z" fill="#DA4453" /><path d="M511.992 512c-141.39 0-256 114.594-256 256 0 141.376 114.61 256 256 256 141.376 0 256-114.624 256-256 0-141.406-114.624-256-256-256z m0 384c-70.578 0-128-57.438-128-128 0-70.594 57.422-128 128-128 70.562 0 128 57.406 128 128 0 70.562-57.438 128-128 128z" fill="#ED5564" /><path d="M255.992 96h128v672h-128z" fill="#ED5564" /><path d="M426.664 672.656v-146.094a255.006 255.006 0 0 0-42.672 19.688V768c0-37.844 16.5-71.876 42.672-95.344z" fill="#DA4453" /><path d="M213.32 0h213.344v256H213.32z" fill="#434A54" /><path d="M597.304 0H810.68v256H597.304z" fill="#434A54" /><path d="M298.664 128c0 11.75 9.546 21.312 21.328 21.312S341.32 139.75 341.32 128V0h-42.656v128zM682.68 0v128c0 11.75 9.532 21.312 21.312 21.312S725.304 139.75 725.304 128V0H682.68z" fill="#CCD1D9" /></svg>