<?xml version="1.0" standalone="no"?><!DOCTYPE svg PUBLIC "-//W3C//DTD SVG 1.1//EN" "http://www.w3.org/Graphics/SVG/1.1/DTD/svg11.dtd"><svg class="icon" width="128px" height="128.00px" viewBox="0 0 1024 1024" version="1.1" xmlns="http://www.w3.org/2000/svg"><path d="M156.382 576.008L0.012 618.696V405.338l156.37 42.686zM867.618 448.024l156.37-42.686v213.358l-156.37-42.688z" fill="#E9573F" /><path d="M106.664 490.68c0 11.782-9.532 21.342-21.31 21.342-11.782 0-21.344-9.56-21.344-21.342s9.562-21.344 21.344-21.344c11.778 0 21.31 9.564 21.31 21.344z" opacity=".1" /><path d="M106.664 533.336c0 11.796-9.532 21.36-21.31 21.36-11.782 0-21.344-9.562-21.344-21.36 0-11.782 9.562-21.314 21.344-21.314a21.3 21.3 0 0 1 21.31 21.314zM959.99 490.68c0 11.782-9.562 21.342-21.344 21.342s-21.312-9.56-21.312-21.342 9.532-21.344 21.312-21.344 21.344 9.564 21.344 21.344zM959.99 533.336c0 11.796-9.562 21.36-21.344 21.36s-21.312-9.562-21.312-21.36c0-11.782 9.532-21.314 21.312-21.314s21.344 9.532 21.344 21.314z" opacity=".1" /><path d="M725.34 298.684H298.66c-117.808 0-213.306 95.53-213.306 213.338 0 117.794 95.498 213.294 213.306 213.294h426.68c117.808 0 213.306-95.5 213.306-213.294 0-117.808-95.498-213.338-213.306-213.338z" fill="#FC6E51" /><path d="M725.34 682.692H298.66c-110.624 0-201.558-84.184-212.244-192.01a209.674 209.674 0 0 0-1.062 21.342c0 117.794 95.498 213.294 213.306 213.294h426.68c117.808 0 213.306-95.5 213.306-213.294 0-7.216-0.344-14.31-1.062-21.342-10.688 107.826-101.624 192.01-212.244 192.01z" opacity=".1" /><path d="M298.66 298.684h426.68v213.338H298.66z" fill="#FFCE54" /><path d="M298.66 320.028h426.68c114.214 0 207.494 89.78 213.056 202.652 0.156-3.532 0.25-7.094 0.25-10.658 0-117.808-95.498-213.338-213.306-213.338H298.66c-117.808 0-213.306 95.53-213.306 213.338 0 3.564 0.094 7.126 0.25 10.658 5.562-112.872 98.808-202.652 213.056-202.652z" fill="#FFFFFF" opacity=".2" /></svg>