<?xml version="1.0" standalone="no"?><!DOCTYPE svg PUBLIC "-//W3C//DTD SVG 1.1//EN" "http://www.w3.org/Graphics/SVG/1.1/DTD/svg11.dtd"><svg class="icon" width="128px" height="128.00px" viewBox="0 0 1024 1024" version="1.1" xmlns="http://www.w3.org/2000/svg"><path d="M477.946 1023.882c-153.934 0-278.718-124.786-278.718-278.718s124.784-278.748 278.718-278.748c153.964 0 278.75 124.814 278.75 278.748s-124.786 278.718-278.75 278.718z" fill="#EAC6BB" /><path d="M588.36 712.14h119.066V113.558c0-32.836-26.714-59.518-59.52-59.518-32.836 0-59.546 26.682-59.546 59.518V712.14zM458.668 658.246h119.036V59.634c0-32.806-26.71-59.518-59.516-59.518-32.838 0-59.52 26.71-59.52 59.518v598.612zM328.948 712.14h119.036V113.558c0-32.836-26.712-59.518-59.518-59.518-32.836 0-59.518 26.682-59.518 59.518V712.14zM199.228 745.164h119.036V221.378c0-32.836-26.682-59.518-59.518-59.518-32.804 0-59.518 26.682-59.518 59.518v523.786z" fill="#EAC6BB" /><path d="M63.884 212.38h896.234v469.454H63.884z" fill="#8CC153" /><path d="M191.916 276.396h640.166c0 35.368 28.652 64.018 64.02 64.018v213.388c-35.368 0-64.02 28.648-64.02 64.016H191.916c0-35.368-28.65-64.016-64.016-64.016V340.414c35.368 0 64.016-28.65 64.016-64.018z" fill="#A0D468" /><path d="M512 447.108m-106.694 0a106.694 106.694 0 1 0 213.388 0 106.694 106.694 0 1 0-213.388 0Z" fill="#8CC153" /><path d="M872.23 579.016l0.032-0.032c9.714-18.902 11.528-40.458 5.062-60.706-6.5-20.246-20.464-36.774-39.368-46.522-11.402-5.874-23.652-8.874-36.398-8.874-29.96 0-57.114 16.558-70.828 43.178L588.36 782l146.246 69.734L872.2 579.078l0.03-0.062z" fill="#EAC6BB" /></svg>