<?xml version="1.0" standalone="no"?><!DOCTYPE svg PUBLIC "-//W3C//DTD SVG 1.1//EN" "http://www.w3.org/Graphics/SVG/1.1/DTD/svg11.dtd"><svg class="icon" width="128px" height="128.00px" viewBox="0 0 1024 1024" version="1.1" xmlns="http://www.w3.org/2000/svg"><path d="M901.69 649.966c-6.684-0.532-14.028-0.782-22.086-0.782-52.488 0-134.22 11.154-246.226 30.932-13.934-39.74-102.476-57.174-102.476-57.174s-191.096-10.404-313.068-17.058a401.9 401.9 0 0 0-22.558-0.656C33.704 605.228 0.118 706.08 0.118 706.08v104.476c0.062 59.89 184.66 89.228 185.286 89.354 146.638 28.962 326.864 38.648 326.864 38.648s493.87-194.02 506.836-205.36c12.964-11.34 7.276-73.234-117.414-83.232z" fill="#EAC6BB" /><path d="M771.784 658.152c-38.804 5.124-84.042 12.404-135.75 21.496a1361.7 1361.7 0 0 1-20.34 8.904c-135.53 57.798-231.382 69.954-287.916 69.954-11.778 0-21.324 9.558-21.324 21.306 0 11.81 9.544 21.34 21.324 21.34 88.198 0 190.924-24.776 305.32-73.64 69.17-29.586 120.782-58.83 138.686-69.36z" fill="#DBADA2" /><path d="M670.212 256.058C644.906 193.542 583.608 149.426 512 149.426c-71.608 0-132.892 44.116-158.214 106.632h-12.262v57.298a157.518 157.518 0 0 0 0 13.372c3.514 91.136 78.482 163.932 170.476 163.932 91.978 0 166.96-72.794 170.49-163.932h0.124v-70.67h-12.402z" fill="#F6BB42" /><path d="M512 256.058m-170.616 0a170.616 170.616 0 1 0 341.232 0 170.616 170.616 0 1 0-341.232 0Z" fill="#FFCE54" /><path d="M512 170.734c-11.778 0-21.324 9.558-21.324 21.338v127.97c0 11.78 9.544 21.34 21.324 21.34 11.778 0 21.338-9.56 21.338-21.34V192.072c0-11.78-9.56-21.338-21.338-21.338z" fill="#E8AA3D" /></svg>