<?xml version="1.0" standalone="no"?><!DOCTYPE svg PUBLIC "-//W3C//DTD SVG 1.1//EN" "http://www.w3.org/Graphics/SVG/1.1/DTD/svg11.dtd"><svg class="icon" width="128px" height="128.00px" viewBox="0 0 1024 1024" version="1.1" xmlns="http://www.w3.org/2000/svg"><path d="M569.708 192.01c-32.906-75.342-108.058-127.996-195.556-127.996-87.466 0-162.62 52.654-195.556 127.996l-17.75 21.326v63.998c0 117.826 95.498 213.338 213.306 213.338 117.84 0 213.338-95.512 213.338-213.338v-63.998l-17.782-21.326z" fill="#F6BB42" /><path d="M587.49 213.336c0 117.826-95.498 213.338-213.338 213.338-117.808 0-213.306-95.512-213.306-213.338 0-117.808 95.498-213.32 213.306-213.32 117.842 0 213.338 95.512 213.338 213.32z" fill="#FFCE54" /><path d="M438.152 378.676h42.686v71.998h-42.686z"  /><path d="M374.152 128.012c-11.78 0-21.312 9.546-21.312 21.326v127.996c0 11.796 9.532 21.344 21.312 21.344 11.782 0 21.344-9.546 21.344-21.344V149.338c0-11.78-9.562-21.326-21.344-21.326z" fill="#E8AA3D" /><path d="M841.138 588.874c0-26.562-18.906-48.092-45.656-48.092-26.748 0-57.214 21.53-57.214 48.092v-23.624c0-26.56-27.188-48.108-53.906-48.108-26.782 0-53.936 21.546-53.936 48.108v-35.858c0-26.266-26.874-47.594-53.186-48.078-1.156-0.062-2.344-0.14-3.562-0.14-26.718 0-53.624 21.546-53.624 48.11v-182.496c0-26.56-25.248-48.108-51.996-48.108-26.75 0-51.186 21.546-51.186 48.108v367.366l-35.406-46.216c-18.718-24.406-53.81-29.156-78.404-10.562-24.594 18.594-29.344 53.436-10.594 77.872l165.838 216.434 9.844 30.248c2.718 11.874 13.406 20.748 26.186 20.748H755.86s0.032-0.032 0.094-0.062c0.218 0 0.406 0.062 0.624 0.062a26.872 26.872 0 0 0 25.81-19.248c0.062-0.188 0.156-0.312 0.188-0.5 69.656-284.436 58.562-394.056 58.562-394.056z" fill="#F5F7FA" /><path d="M862.482 587.874c-0.532-38.438-29.75-68.42-67-68.42-15.312 0-31.374 5.062-44.966 13.812-12.966-21.876-38.404-37.454-66.154-37.454-13.406 0-26.25 3.624-37.406 9.828-4.062-9.64-10.56-18.532-19.28-26.078-13.876-12.014-31.936-19.138-49.624-19.576-1.218-0.062-2.688-0.14-4.376-0.14-11.376 0-22.406 2.64-32.312 7.282v-120.342c0-37.638-33.56-69.452-73.308-69.452-39.312 0-72.53 31.812-72.53 69.452v304.648c-14.688-17.062-35.812-26.75-58.624-26.75-17 0-33.156 5.438-46.686 15.688-16.5 12.438-27.092 30.532-29.842 50.936-2.75 20.376 2.624 40.56 15.156 56.936l163.62 213.494 8.438 26.062c5.438 21.342 24.53 36.186 46.75 36.186h264.678l0.218-0.062c19.874-1.124 37.374-14.594 43.374-33.624 0.218-0.624 0.468-1.438 0.688-2.376 66.842-272.93 60.248-386.99 59.186-400.05z m-100.404 388.988a3.856 3.856 0 0 1-0.156 0.562 5.56 5.56 0 0 1-4.844 3.876c-0.344 0-0.718-0.032-1.124-0.032h-7l-0.062 0.032H494.336c-2.938 0-4.938-2.094-5.406-4.188l-0.218-0.876-11.25-34.624-168.088-219.34a33.728 33.728 0 0 1-6.718-25.216c1.218-9.062 5.936-17.124 13.28-22.686a34.754 34.754 0 0 1 20.968-7c10.968 0 21.03 4.938 27.624 13.498l73.686 96.186V346.786c0-14.014 14.218-26.78 29.842-26.78 15.75 0 30.656 13.016 30.656 26.78v271.524h0.032c0 0.124-0.032 0.25-0.032 0.376 0 11.75 9.562 21.312 21.34 21.312 11.782 0 21.312-9.562 21.312-21.312V529.282c0-13.516 16.032-26.782 32.312-26.782 0.688 0 1.376 0.046 2 0.094l1.156 0.046c16.282 0.296 32.28 13.562 32.28 26.75V618.684c0 11.75 9.532 21.312 21.312 21.312 11.78 0 21.342-9.562 21.342-21.312 0-0.124-0.032-0.25-0.032-0.376h0.032v-53.06c0-13.5 16.124-26.764 32.594-26.764 16.124 0 32.562 13.514 32.562 26.764v53.06h0.032c0 0.124-0.032 0.25-0.032 0.376 0 11.75 9.562 21.312 21.344 21.312 11.78 0 21.342-9.562 21.342-21.312 0-0.124-0.032-0.25-0.032-0.376h0.032v-29.436c0-12.75 18.78-26.75 35.874-26.75 15.968 0 24.312 13.438 24.312 26.75v1l0.124 1.094c0.096 1.094 9.408 110.934-57.84 385.896z" fill="#434A54" /></svg>