<?xml version="1.0" standalone="no"?><!DOCTYPE svg PUBLIC "-//W3C//DTD SVG 1.1//EN" "http://www.w3.org/Graphics/SVG/1.1/DTD/svg11.dtd"><svg class="icon" width="128px" height="128.00px" viewBox="0 0 1024 1024" version="1.1" xmlns="http://www.w3.org/2000/svg"><path d="M776.808 140.506l-128-127.998-12.496-12.5H21.322v1023.984h767.986V153.006z" fill="#E6E9ED" /><path d="M170.662 597.376h469.334c11.75 0 21.312-9.562 21.312-21.376 0-11.75-9.562-21.312-21.312-21.312H170.662c-11.812 0-21.344 9.562-21.344 21.312 0 11.812 9.532 21.376 21.344 21.376zM639.996 682.684H170.662c-11.812 0-21.344 9.562-21.344 21.312 0 11.812 9.532 21.376 21.344 21.376h469.334c11.75 0 21.312-9.562 21.312-21.376 0-11.75-9.562-21.312-21.312-21.312zM405.314 810.684H170.662c-11.812 0-21.344 9.562-21.344 21.312 0 11.812 9.532 21.376 21.344 21.376h234.652c11.78 0 21.342-9.562 21.342-21.376 0.002-11.75-9.562-21.312-21.342-21.312z" fill="#434A54" /><path d="M945.68 682.246h-56.688l-56.996 199.126 85.308 56.87 85.376-56.87z" fill="#E6E9ED" /><path d="M917.304 127.57c-47.124 0-85.308 38.188-85.308 85.312v575.99h170.684V212.88c0-47.124-38.25-85.31-85.376-85.31z" fill="#656D78" /><path d="M789.308 153.006h-152.996V0.008z" fill="#CCD1D9" /><path d="M298.472 468.938c-11.782 0-21.344-9.562-21.344-21.344V149.32c0-11.782 9.562-21.312 21.344-21.312a21.3 21.3 0 0 1 21.312 21.312v298.276c0 11.78-9.532 21.342-21.312 21.342z" fill="#967ADC" /><path d="M403.72 425.034c-5.468 0-10.938-2.062-15.094-6.25l-105.248-105.248c-8.344-8.312-8.344-21.812 0-30.156s21.842-8.344 30.186 0l105.216 105.248c8.344 8.312 8.344 21.844 0 30.156a21.144 21.144 0 0 1-15.06 6.25z" fill="#967ADC" /><path d="M193.006 425.252a21.276 21.276 0 0 1-15.062-6.25c-8.312-8.342-8.312-21.842 0-30.186l105.436-105.436a21.33 21.33 0 0 1 30.186 0c8.312 8.344 8.312 21.842 0 30.156l-105.436 105.466a21.37 21.37 0 0 1-15.124 6.25z" fill="#967ADC" /><path d="M298.66 469.314c-94.092 0-170.654-76.56-170.654-170.652 0-94.124 76.56-170.654 170.654-170.654 94.092 0 170.654 76.53 170.654 170.654 0 94.09-76.562 170.652-170.654 170.652z m0-298.65c-70.592 0-127.998 57.404-127.998 127.998 0 70.56 57.406 127.998 127.998 127.998 70.56 0 127.998-57.436 127.998-127.998 0-70.594-57.438-127.998-127.998-127.998z" fill="#AC92EB" /></svg>