<?xml version="1.0" standalone="no"?><!DOCTYPE svg PUBLIC "-//W3C//DTD SVG 1.1//EN" "http://www.w3.org/Graphics/SVG/1.1/DTD/svg11.dtd"><svg class="icon" width="128px" height="128.00px" viewBox="0 0 1024 1024" version="1.1" xmlns="http://www.w3.org/2000/svg"><path d="M57.832 609.848a15.82 15.82 0 0 1-2.188 1.906c-9.376 7.156-22.812 5.282-29.938-4.094-1.376-1.812-13.626-18.376-20-42.278-9.06-34.032-1.78-65.656 21-91.42 13.25-14.984 17.094-32.078 11.718-52.218-4.188-15.718-12.626-27.296-12.718-27.406-7.126-9.374-5.312-22.764 4.062-29.89 9.376-7.14 22.782-5.312 29.906 4.064 1.376 1.812 13.624 18.374 19.998 42.264 9.032 34.046 1.782 65.67-20.998 91.434-13 14.702-16.938 31.406-12.032 51.074 4.126 16.442 13 28.532 13.094 28.66 6.532 8.564 5.532 20.502-1.904 27.904z" fill="#CBD0D8" /><path d="M277.792 709.812c8.344 8.316 8.344 21.816 0 30.156l-120.684 120.684c-8.312 8.344-21.842 8.344-30.156 0l-120.68-120.684c-8.344-8.34-8.344-21.84 0-30.156l120.682-120.684c8.314-8.312 21.844-8.312 30.156 0l120.682 120.684z" fill="#EC5564" /><path d="M51.52 694.722c8.344-8.344 8.344-21.844 0-30.156l-30.156 30.156c8.312 8.344 21.844 8.344 30.156 0zM112.174 634.066c8.344-8.312 8.344-21.844 0-30.188l-30.156 30.188c8.312 8.312 21.844 8.312 30.156 0z" fill="#D94452" /><path d="M147.546 583.628c-7.126-1.902-15.03-0.062-20.594 5.5l-15.092 15.062a21.33 21.33 0 0 0 30.186 0c5.564-5.562 7.376-13.432 5.5-20.562zM0.772 730.376c7.092 1.906 14.998 0.094 20.592-5.5 8.312-8.308 8.312-21.808 0-30.152l-15.092 15.09a21.262 21.262 0 0 0-5.5 20.562zM82.018 634.066l-30.186 30.188c8.344 8.312 21.842 8.312 30.186 0 8.312-8.344 8.312-21.876 0-30.188z" fill="#D94452" /><path d="M933.49 23.946L66.614 890.808c-25 25-25 65.528 0 90.496 24.998 25 65.53 25 90.496 0L1023.986 114.458l-90.496-90.512z" fill="#965353" /><path d="M81.7 875.74l211.18-211.178 90.496 90.498-211.18 211.178zM805.744 332.702l-211.182 211.18-90.496-90.512 211.182-211.18z" fill="#FB6D51" /><path d="M852.21 286.234V105.208L809.556 147.88v181.01zM930.366 208.064V27.056l-42.658 42.67v181.01z" fill="#7F4545" /><path d="M202.358 815.406c8.344 8.34 8.344 21.84 0 30.152-8.312 8.344-21.81 8.344-30.154 0-8.344-8.312-8.344-21.812 0-30.152 8.342-8.344 21.84-8.344 30.154 0zM262.7 815.406c8.344 8.312 8.344 21.84 0 30.152-8.312 8.344-21.842 8.344-30.154 0-8.344-8.312-8.344-21.812 0-30.152 8.312-8.344 21.84-8.344 30.154 0zM262.7 755.062c8.344 8.312 8.344 21.812 0 30.156-8.312 8.344-21.842 8.344-30.154 0-8.344-8.344-8.344-21.844 0-30.156 8.312-8.344 21.84-8.344 30.154 0zM323.042 755.062c8.344 8.312 8.344 21.812 0 30.156-8.312 8.344-21.844 8.344-30.154 0-8.344-8.344-8.344-21.844 0-30.156 8.31-8.344 21.84-8.344 30.154 0z" fill="#E8563F" /><path d="M398.476 649.472c8.312 8.344 8.312 21.844 0 30.156a21.34 21.34 0 0 1-30.188 0c-8.31-8.312-8.31-21.812 0-30.156a21.332 21.332 0 0 1 30.188 0zM458.818 589.128c8.312 8.316 8.312 21.844 0 30.188-8.344 8.312-21.844 8.312-30.186 0-8.314-8.344-8.314-21.872 0-30.188 8.342-8.312 21.842-8.312 30.186 0zM519.16 528.79c8.31 8.328 8.31 21.844-0.032 30.156-8.312 8.34-21.812 8.34-30.156 0-8.342-8.312-8.342-21.828 0-30.156a21.358 21.358 0 0 1 30.188 0z" fill="#7F4545" /><path d="M685.06 393.028c8.344 8.328 8.344 21.842 0 30.17-8.312 8.328-21.842 8.328-30.156 0-8.344-8.328-8.344-21.844 0-30.17 8.344-8.328 21.844-8.328 30.156 0zM624.718 393.028c8.342 8.328 8.342 21.842 0 30.17-8.312 8.328-21.81 8.328-30.156 0-8.342-8.328-8.342-21.844 0-30.17 8.346-8.328 21.844-8.328 30.156 0zM685.06 332.686c8.344 8.344 8.344 21.844 0 30.172-8.312 8.342-21.812 8.328-30.156 0-8.344-8.328-8.344-21.828 0-30.172 8.314-8.328 21.844-8.328 30.156 0zM745.4 332.702a21.294 21.294 0 0 1 0 30.156c-8.31 8.328-21.842 8.342-30.152 0a21.294 21.294 0 0 1 0-30.156c8.31-8.344 21.842-8.344 30.152 0zM624.718 453.37c8.342 8.328 8.342 21.842 0 30.17-8.312 8.328-21.81 8.328-30.156 0-8.342-8.342-8.342-21.842 0-30.17 8.346-8.328 21.844-8.328 30.156 0zM202.358 875.746c8.344 8.312 8.344 21.812 0 30.156-8.312 8.344-21.81 8.344-30.154 0s-8.344-21.844 0-30.156c8.342-8.344 21.84-8.344 30.154 0z" fill="#E8563F" /></svg>