<?xml version="1.0" standalone="no"?><!DOCTYPE svg PUBLIC "-//W3C//DTD SVG 1.1//EN" "http://www.w3.org/Graphics/SVG/1.1/DTD/svg11.dtd"><svg class="icon" width="128px" height="128.00px" viewBox="0 0 1024 1024" version="1.1" xmlns="http://www.w3.org/2000/svg"><path d="M981.1119 243.39c-26.812-46.874-65.436-87.84-114.842-121.808-94.028-64.654-222.802-100.244-362.58-100.244-69.06 0-134.588 8.592-194.806 25.558-60.81 17.156-114.622 42.376-159.87 74.966-47 33.876-83.686 74.936-108.966 121.996C13.4879 293.328 0.0199 348.544 0.0199 407.98c0 57.558 27.498 119.338 81.684 183.57 41.842 49.624 99.872 101.186 172.556 153.244 122.748 88.058 243.398 146.622 248.46 149.122 2.938 1.376 6.094 2.124 9.282 2.124s6.344-0.75 9.282-2.124c5.094-2.5 125.714-61.062 248.458-149.122 72.686-52.058 130.714-103.62 172.558-153.244 54.184-64.232 81.684-126.012 81.684-183.57 0-59.436-14.438-114.808-42.872-164.59z" fill="#F6BB42" /><path d="M519.1259 21.494L512.0019 42.71v639.962l51.936 2.938 166.93-607.246 3.812-21.188c-65.556-21.966-138.744-34.214-215.554-35.682zM285.9459 53.866c-51.466 16.75-97.434 39.562-136.932 67.998-19.688 14.188-37.5 29.624-53.5 46.25l10.124 20.342 301.272 508.78 53.154-11.56-167.992-611.374-6.126-20.436zM0.3939 391.042a379.684 379.684 0 0 0-0.376 16.938c0 57.558 27.498 119.338 81.684 183.57 41.842 49.624 99.872 101.186 172.556 153.244a1516.344 1516.344 0 0 0 49.124 33.876c30.03 2.188 53.56 4 53.56 4v-59.188L21.5179 396.48 0.3939 391.042zM1022.4219 374.606c-4.438-46.874-18.25-90.872-41.31-131.214-12.124-21.154-26.624-41.092-43.436-59.748l-21.376 8.312-299.052 504.966 51.094 25.31L1002.4539 396.48s8.124-8.906 19.968-21.874z" fill="#080808" opacity=".05" /><path d="M267.0719 782.67h459.982v106.622H267.0719z" fill="#FFFFFF" /><path d="M1017.6719 795.48c-1.438-1.438-36.186-35.31-116.622-68.56-46.312-19.124-98.746-34.308-155.872-45.246-70.932-13.5-149.37-20.376-233.178-20.376-83.81 0-162.246 6.876-233.18 20.376-57.124 10.938-109.558 26.124-155.87 45.246-80.434 33.25-115.182 67.124-116.62 68.56a21.464 21.464 0 0 0-5.376 21.438 21.354 21.354 0 0 0 16.5 14.686l438.672 81.812c1.312 0.25 2.624 0.376 3.938 0.376 1.062 0 2.124-0.062 3.188-0.25l542.576-81.812a21.342 21.342 0 0 0 17.094-14.436c2.5-7.688 0.5-16.126-5.25-21.814z" fill="#ED5564" /><path d="M1018.6719 796.606a21.12 21.12 0 0 0-22.75-6.188c-1.25 0.376-129.496 41.56-483.92 41.56-352.52 0-482.704-41.186-483.922-41.56a21.116 21.116 0 0 0-22.748 6.188 21.258 21.258 0 0 0-3.188 23.376l63.998 131.996a21.398 21.398 0 0 0 8.312 8.998c7.188 4.25 80.466 41.688 437.548 41.688 357.08 0 430.362-37.438 437.546-41.688a21.2 21.2 0 0 0 8.312-8.998l63.998-131.996a21.252 21.252 0 0 0-3.186-23.376z" fill="#FFCE54" /><path d="M512.0019 490.664c-82.342 0-149.308 67.014-149.308 149.324 0 82.306 66.966 149.304 149.308 149.304 82.34 0 149.308-66.998 149.308-149.304 0-82.31-66.968-149.324-149.308-149.324z" fill="#E6E9ED" /><path d="M512.0019 490.664c-7.25 0-14.376 0.532-21.312 1.532 72.248 10.376 127.996 72.668 127.996 147.792 0 75.12-55.748 137.432-127.996 147.804 6.938 1 14.062 1.5 21.312 1.5 82.34 0 149.308-66.998 149.308-149.304 0-82.31-66.968-149.324-149.308-149.324z" fill="#FFFFFF" opacity=".3" /></svg>