<?xml version="1.0" standalone="no"?><!DOCTYPE svg PUBLIC "-//W3C//DTD SVG 1.1//EN" "http://www.w3.org/Graphics/SVG/1.1/DTD/svg11.dtd"><svg class="icon" width="128px" height="128.00px" viewBox="0 0 1024 1024" version="1.1" xmlns="http://www.w3.org/2000/svg"><path d="M405.33 53.344c0-11.78-9.546-21.342-21.328-21.342-2.422 0-4.718 0.438-6.89 1.156-2.704 0.906-27.092 9.75-51.452 35.062-22.328 23.186-48.936 65.374-48.936 134.466 0 11.782 9.546 21.312 21.328 21.312s21.328-9.532 21.328-21.312c0-102.248 68.748-128.154 71.67-129.216l-0.156 0.062c8.39-2.874 14.436-10.812 14.436-20.188z" fill="#434A54" /><path d="M498.282 450.398c-32.624-30.592-87.576-241.65-200.23-269.056C185.396 208.748 127.304 419.806 94.68 450.398 59.822 483.054 0.01 558.38 0.01 668.878c0 106.186 81.42 267.994 282.086 280.62 0.296 0.062 0.546 0.062 0.812 0.062 4.578 0 9.016-2.376 13.562-4.438 4.562 2.062 9 4.438 13.578 4.438 0.266 0 0.516 0 0.812-0.062 200.666-12.624 282.072-174.434 282.072-280.62 0.004-110.498-59.792-185.824-94.65-218.48z" fill="#F6BB42" /><path d="M341.582 946.248l-2.438-1.124c-1.546 0.688-3.062 1.438-4.594 2.124 2.36-0.312 4.702-0.624 7.032-1zM42.682 668.878c0-110.498 59.794-185.824 94.668-218.48 30.5-28.592 83.25-214.87 182.012-261.432-6.876-3.25-13.968-5.844-21.312-7.624C185.396 208.748 127.304 419.806 94.68 450.398 59.822 483.054 0.01 558.38 0.01 668.878c0 106.186 81.42 267.994 282.086 280.62 0.296 0.062 0.546 0.062 0.812 0.062 3.75 0 7.422-1.624 11.14-3.312-178.29-26.312-251.366-176.746-251.366-277.37zM301.082 947.248c2.968 1.25 5.938 2.312 8.968 2.312 0.266 0 0.516 0 0.812-0.062 2.328-0.124 4.64-0.376 6.954-0.562a350.28 350.28 0 0 1-16.734-1.688z" opacity=".1" /><path d="M1023.988 693.314H341.33c-1.062 100.062 166.372 200.934 170.34 204.372 56.014 48.5 81.078 89.624 231.636 94.124 3.376 0.124 6.718 0.188 10.062 0.188 153.966 0 259.37-107 270.056-270.622 0.596-8.936 0.564-28.062 0.564-28.062z m-112.12 194.684c-39.906 40.124-94.718 61.312-158.498 61.312-2.812 0-5.624 0-8.438-0.124h-0.344c-55.092-1.688-94.216-8.376-123.124-21.062-24.594-10.812-40.998-25.812-61.78-44.688a903.646 903.646 0 0 0-20.076-18c-2.468-2.124-4.422-3.436-8.704-6.248-12.812-8.376-51.766-34-87.28-67.998-20.234-19.438-35.67-38.124-45.764-55.188h581.44c-7.124 62.312-30.278 114.622-67.432 151.996z" fill="#FFCE54" /><path d="M753.37 949.31c-3.062 0-6.188-0.062-9.25-0.188h-0.188c-124.374-3.688-155.496-32.062-198.62-71.25-6.218-5.688-12.688-11.624-19.688-17.624-1.39-1.25-2.562-2-6.438-4.562-86.718-56.998-141.138-114.81-153.732-162.374h636.908c-0.062 2-0.124 3.876-0.218 5.312-4.906 75.25-30.906 138.56-75.154 183.058-43.998 44.254-104.06 67.628-173.62 67.628z" fill="#FFE7B0" /><path d="M639.996 693.314c0 47.124 47.75 85.376 106.686 85.376 58.874 0 106.654-38.25 106.654-85.376h-213.34z" fill="#EDCA8C" /><path d="M725.308 693.314c0 11.812 9.56 21.312 21.374 21.312 11.75 0 21.312-9.5 21.312-21.312h-42.686z" fill="#434A54" /></svg>