<?xml version="1.0" standalone="no"?><!DOCTYPE svg PUBLIC "-//W3C//DTD SVG 1.1//EN" "http://www.w3.org/Graphics/SVG/1.1/DTD/svg11.dtd"><svg class="icon" width="128px" height="128.00px" viewBox="0 0 1024 1024" version="1.1" xmlns="http://www.w3.org/2000/svg"><path d="M767.994 221.358s-127.998 243.9-127.998 400.008c0 156.09 127.998 363.93 127.998 363.93s127.998-201.278 127.998-363.93c0-162.64-127.998-400.008-127.998-400.008zM341.348 392.01s-127.998 146.058-127.998 279.416c0 133.342 127.998 254.182 127.998 254.182s127.996-145.528 127.996-254.182-127.996-279.416-127.996-279.416z" fill="#81AF46" /><path d="M659.622 104.11c-33.812-58.436-102.31-81.498-159.34-53.624-49.53 24.218-70.124 84.216-45.904 133.746 9.748 19.968 26.874 34.718 48.216 41.468 19.406 6.188 41.532 5.5 62.248-1.844 14.688-5.218 28.532-19.812 34.404-36.344 5.688-15.906 4.094-32.656-4.436-47.342-0.062-0.124-0.094-0.218-0.156-0.312a109.828 109.828 0 0 0-0.376-0.656h-0.032c-3.75-6.156-10.5-10.312-18.25-10.312-11.75 0-21.312 9.562-21.312 21.342 0 4.032 1.124 7.812 3.094 11.032h-0.032c2.376 3.906 2.812 7.468 1.468 11.562-2.032 6.032-6.968 10.156-8.656 10.844-20.092 7.124-46.78 4.468-57.874-18.156-13.876-28.406-2.062-62.812 26.312-76.686 18.25-8.938 38.06-10 57.28-3.094 19.06 6.844 35.53 20.938 46.404 39.75 16.188 27.936 29 72.216-45.936 133.996l27.124 32.938c35.968-29.656 59.062-60.404 68.594-91.374 9.972-32.374 5.66-64.966-12.84-96.934z" fill="#8CC153" /><path d="M1018.208 306.324l0.032-0.032c-2.282-2.406-56.688-59.624-146.246-88.624-52.938-17.156-107.216-20.876-161.246-11.094-66.844 12.156-133.154 45.062-197.122 97.874-57.936 47.81-118.874 77.592-181.152 88.56-49.624 8.75-100.436 5.656-151.058-9.156-87.532-25.594-144.966-78.06-145.56-78.592a21.264 21.264 0 0 0-14.5-5.688c-11.782 0-21.342 9.532-21.342 21.312 0 6.186 2.654 11.718 6.842 15.624h-0.034c2.594 2.406 64.25 59.03 160.874 87.78 36.404 10.844 72.936 16.25 109.214 16.25 20.718 0 41.344-1.75 61.812-5.312 70.06-12.094 138.028-45.03 202.058-97.874 57.902-47.812 117.278-77.624 176.464-88.592 46.874-8.688 93.934-5.656 139.964 8.968 79.654 25.28 129.434 77.28 129.902 77.748a21.302 21.302 0 0 0 15.562 6.75c11.782 0 21.312-9.562 21.312-21.342a21.14 21.14 0 0 0-5.776-14.56z" fill="#A0D468" /><path d="M831.992 473.29c0 35.344-28.624 63.998-63.998 63.998-35.344 0-63.998-28.654-63.998-63.998 0-35.342 28.654-63.998 63.998-63.998 35.374 0 63.998 28.654 63.998 63.998zM831.992 622.646c0 35.342-28.624 63.998-63.998 63.998-35.344 0-63.998-28.656-63.998-63.998 0-35.344 28.654-64 63.998-64 35.374 0 63.998 28.656 63.998 64zM405.346 584.302c0 35.344-28.656 63.998-63.998 63.998-35.344 0-64-28.654-64-63.998s28.656-64.016 64-64.016c35.342 0.002 63.998 28.672 63.998 64.016z" fill="#8CC153" /><path d="M341.346 733.612m-64 0a64 64 0 1 0 128 0 64 64 0 1 0-128 0Z" fill="#8CC153" /><path d="M831.992 771.986c0 35.344-28.624 63.998-63.998 63.998-35.344 0-63.998-28.654-63.998-63.998 0-35.376 28.654-64 63.998-64 35.374 0 63.998 28.626 63.998 64z" fill="#8CC153" /><path d="M341.348 520.288c-3.624 0-7.188 0.312-10.656 0.876 30.25 5.094 53.31 31.422 53.31 63.14 0 31.688-23.06 57.998-53.31 63.092 3.468 0.562 7.032 0.906 10.656 0.906 35.342 0 63.998-28.654 63.998-63.998s-28.656-64.016-63.998-64.016zM341.348 669.614c-3.624 0-7.188 0.312-10.656 0.906 30.25 5.094 53.31 31.404 53.31 63.092 0 31.718-23.06 58.032-53.31 63.094 3.468 0.594 7.032 0.906 10.656 0.906 35.342 0 63.998-28.656 63.998-64s-28.656-63.998-63.998-63.998zM767.994 707.986c-3.624 0-7.188 0.312-10.656 0.876 30.28 5.094 53.342 31.406 53.342 63.124 0 31.688-23.062 57.998-53.342 63.092 3.468 0.562 7.032 0.906 10.656 0.906 35.374 0 63.998-28.654 63.998-63.998 0-35.374-28.624-64-63.998-64zM767.994 558.646c-3.624 0-7.188 0.312-10.656 0.906 30.28 5.062 53.342 31.376 53.342 63.094 0 31.716-23.062 58.03-53.342 63.092 3.468 0.594 7.032 0.906 10.656 0.906 35.374 0 63.998-28.656 63.998-63.998 0-35.344-28.624-64-63.998-64zM767.994 409.292c-3.624 0-7.188 0.344-10.656 0.906 30.28 5.094 53.342 31.404 53.342 63.092 0 31.718-23.062 58.03-53.342 63.124a66.62 66.62 0 0 0 10.656 0.876c35.374 0 63.998-28.654 63.998-63.998 0-35.346-28.624-64-63.998-64z" fill="#FFFFFF" opacity=".1" /></svg>