<?xml version="1.0" standalone="no"?><!DOCTYPE svg PUBLIC "-//W3C//DTD SVG 1.1//EN" "http://www.w3.org/Graphics/SVG/1.1/DTD/svg11.dtd"><svg class="icon" width="128px" height="128.00px" viewBox="0 0 1024 1024" version="1.1" xmlns="http://www.w3.org/2000/svg"><path d="M512 426.682c-11.812 0-21.344-9.562-21.344-21.344v-85.326c0-11.782 9.532-21.328 21.344-21.328 11.748 0 21.31 9.546 21.31 21.328v85.326c0 11.782-9.562 21.344-21.31 21.344z" fill="#F6BB42" /><path d="M618.654 384.01h-213.34c-11.782 0-21.312 9.546-21.312 21.328v85.342c0 11.782 9.53 21.328 21.312 21.328h213.34c11.782 0 21.344-9.546 21.344-21.328v-85.342c0-11.78-9.562-21.328-21.344-21.328z" fill="#434A54" /><path d="M959.99 725.316H661.308c-11.782 0-21.31 9.562-21.31 21.376v213.304a21.296 21.296 0 0 0 21.31 21.312h298.682c11.75 0 21.312-9.532 21.312-21.312V746.692c0-11.814-9.562-21.376-21.312-21.376zM362.66 640.004H64.01c-11.812 0-21.342 9.562-21.342 21.312v298.68c0 11.782 9.53 21.312 21.342 21.312H362.66c11.782 0 21.344-9.532 21.344-21.312v-298.68c-0.002-11.75-9.564-21.312-21.344-21.312z" fill="#FC6E51" /><path d="M661.308 469.336H362.66c-11.782 0-21.342 9.562-21.342 21.344v469.316c0 11.782 9.562 21.312 21.342 21.312h298.65c11.782 0 21.344-9.532 21.344-21.312V490.68c-0.002-11.78-9.564-21.344-21.346-21.344z" fill="#FFCE54" /><path d="M1002.644 981.308H21.324c-11.782 0-21.312-9.532-21.312-21.312s9.53-21.308 21.312-21.308h981.322c11.782 0 21.344 9.528 21.344 21.308s-9.564 21.312-21.346 21.312z" fill="#434A54" /><path d="M401.096 277.358c-2.468 0-5-0.438-7.468-1.376-93.434-35.03-115.154-160.512-116.028-165.824-1-6.188 0.75-12.5 4.782-17.282 4.062-4.764 10-7.53 16.282-7.53h85.342c11.75 0 21.312 9.562 21.312 21.342s-9.562 21.328-21.312 21.328h-58.092c10.032 33.11 33.842 89.702 82.686 108.03 11.032 4.124 16.624 16.422 12.5 27.454a21.384 21.384 0 0 1-20.004 13.858zM622.842 277.358a21.36 21.36 0 0 1-19.968-13.858c-4.124-11.032 1.468-23.328 12.5-27.454 49.092-18.422 72.808-74.952 82.746-108.03h-58.122c-11.812 0-21.344-9.546-21.344-21.328a21.33 21.33 0 0 1 21.344-21.342h85.308c6.282 0 12.218 2.766 16.282 7.53a21.494 21.494 0 0 1 4.782 17.282c-0.876 5.312-22.594 130.794-116.028 165.824-2.468 0.938-5 1.376-7.5 1.376z" fill="#F6BB42" /><path d="M639.998 42.69H384.002c-11.812 0-21.344 9.546-21.344 21.328v127.998c0 82.342 66.966 149.326 149.34 149.326 82.31 0 149.308-66.984 149.308-149.326V64.018c0.002-11.78-9.56-21.328-21.308-21.328z" fill="#FFCE54" /><path d="M512 234.686c-11.812 0-21.344-9.562-21.344-21.344V149.344c0-11.782 9.532-21.328 21.344-21.328 11.748 0 21.31 9.546 21.31 21.328v63.998c0 11.782-9.562 21.344-21.31 21.344z" fill="#E8AA3D" /></svg>