<?xml version="1.0" standalone="no"?><!DOCTYPE svg PUBLIC "-//W3C//DTD SVG 1.1//EN" "http://www.w3.org/Graphics/SVG/1.1/DTD/svg11.dtd"><svg class="icon" width="128px" height="128.00px" viewBox="0 0 1024 1024" version="1.1" xmlns="http://www.w3.org/2000/svg"><path d="M256.528 978.642L45.388 767.472l-30.18 30.18L0.118 1023.882l226.26-15.09z" fill="#E6E9ED" /><path d="M324.418 805.184l-105.602-105.602-173.428 67.89-15.09 226.26 226.23-15.09z" fill="#F5F7FA" /><path d="M986.39 37.61c-49.958-49.988-131-49.988-180.99 0L150.958 692.052l180.99 180.99 654.444-654.446c49.986-49.986 49.986-130.998-0.002-180.986z" fill="#656D78" /><path d="M256.528 797.652l-30.148-30.18-75.422 75.42c-8.342 8.31-8.342 21.84 0 30.15a21.328 21.328 0 0 0 30.182 0l75.388-75.39z" fill="#CCD1D9" /><path d="M301.798 842.892L948.274 196.416c8.312-8.342 8.312-21.838 0-30.18-8.34-8.31-21.838-8.31-30.18 0L271.618 812.712l30.18 30.18z" fill="#434A54" /></svg>