<?xml version="1.0" standalone="no"?><!DOCTYPE svg PUBLIC "-//W3C//DTD SVG 1.1//EN" "http://www.w3.org/Graphics/SVG/1.1/DTD/svg11.dtd"><svg class="icon" width="128px" height="128.00px" viewBox="0 0 1024 1024" version="1.1" xmlns="http://www.w3.org/2000/svg"><path d="M24.994 40.174c33.304-33.336 87.324-33.336 120.628 0l633.448 633.418-120.66 120.628L24.994 160.802c-33.336-33.304-33.336-87.324 0-120.628z" fill="#ED5564" /><path d="M58.798 104.16a21.326 21.326 0 0 1 30.18 0l645.758 645.758c8.308 8.31 8.308 21.808 0 30.15a21.354 21.354 0 0 1-15.09 6.248 21.352 21.352 0 0 1-15.092-6.248L58.798 134.308c-8.31-8.342-8.31-21.838 0-30.148z" fill="#DA4453" /><path d="M635.666 812.748c0 181.676 267.876 196.08 356.482 196.08 88.572 0-35.648-107.476-35.648-196.08 0-88.606-71.828-160.4-160.434-160.4s-160.4 71.794-160.4 160.4z" fill="#656D78" /><path d="M992.148 1008.828c-88.606 0-356.482-14.404-356.482-196.08 0-24.556 5.53-47.834 15.374-68.64 0.032 0 13.528 229.978 371.696 235.414 4.402 18.12-2.032 29.306-30.588 29.306z" fill="#434A54" /><path d="M986.398 37.582c-49.988-49.958-131-49.958-180.99 0L0.124 842.896v180.99h180.958l805.316-805.316c49.988-49.988 49.988-131 0-180.988z" fill="#F6BB42" /><path d="M956.25 248.72l30.148-30.15c49.988-49.988 49.988-131 0-180.988-49.988-49.958-131-49.958-180.99 0l-30.148 30.18 180.99 180.958z" fill="#EC87C0" /><path d="M850.804 143.306L151.058 843.022c-8.31 8.342-8.31 21.84 0 30.182 8.342 8.31 21.838 8.31 30.18 0L880.954 173.458l-30.15-30.152z" fill="#FFCE54" /><path d="M0.124 842.896v180.99h180.96z" fill="#FFE5AB" /><path d="M835.714 369.506l-180.99-180.96 120.658-120.66 180.994 180.99z" fill="#E6E9ED" /><path d="M760.324 143.306l-30.18-30.18c-0.032-0.032-0.094-0.062-0.124-0.124l-30.148 30.148a0.566 0.566 0 0 0 0.124 0.156l30.148 30.15a21.326 21.326 0 0 0 30.18 0c8.312-8.31 8.312-21.838 0-30.15zM850.524 293.836l30.18 30.18c0.032 0.032 0.094 0.062 0.124 0.124l30.15-30.148a0.566 0.566 0 0 0-0.124-0.156l-30.15-30.15a21.326 21.326 0 0 0-30.18 0c-8.312 8.31-8.312 21.84 0 30.15z" fill="#CCD1D9" /><path d="M0.124 963.556v60.33h60.332z" fill="#656D78" /></svg>