<?xml version="1.0" standalone="no"?><!DOCTYPE svg PUBLIC "-//W3C//DTD SVG 1.1//EN" "http://www.w3.org/Graphics/SVG/1.1/DTD/svg11.dtd"><svg class="icon" width="128px" height="128.00px" viewBox="0 0 1024 1024" version="1.1" xmlns="http://www.w3.org/2000/svg"><path d="M565.344 426.672V213.334c0-11.782-9.562-21.328-21.344-21.328H117.35c-11.78 0-21.342 9.546-21.342 21.328v213.338c0 5.656 2.25 11.078 6.25 15.078 0.376 0.36 36.406 37.062 36.406 92.358 0 54.39-35.842 90.266-36.124 90.516A21.294 21.294 0 0 0 96.008 640v213.308c0 11.812 9.562 21.376 21.342 21.376H544c11.782 0 21.344-9.562 21.344-21.376V640c0-5.656-2.188-11-6.188-15-0.376-0.376-36.5-37.75-36.5-91.672 0-53.89 36.124-91.264 36.438-91.578 4-4 6.25-9.42 6.25-15.078z" fill="#A0D468" /><path d="M330.66 320.004c-58.906 0-106.656 47.75-106.656 106.668v448.01h213.34V426.672c0-58.918-47.748-106.668-106.684-106.668z" fill="#CCD1D9" /><path d="M352.002 341.332v533.352h85.342V426.672c0-42.388-24.75-79.012-60.56-96.216-15.75 3.188-24.782 6.908-24.782 10.876z" fill="#E6E9ED" /><path d="M810.648 0.008c-64.684 0-117.308 52.64-117.308 117.326V938.68c0 47.032 38.282 85.312 85.308 85.312 47.062 0 85.344-38.282 85.344-85.312V181.334c0-29.406-23.938-53.328-53.344-53.328s-53.312 23.922-53.312 53.328v693.35c0 11.75 9.532 21.308 21.312 21.308s21.344-9.558 21.344-21.308V181.334a10.67 10.67 0 0 1 10.656-10.656c5.906 0 10.688 4.782 10.688 10.656V938.68c0 23.5-19.156 42.624-42.688 42.624-23.5 0-42.652-19.124-42.652-42.624V117.334c0-41.17 33.496-74.654 74.652-74.654 41.188 0 74.688 33.484 74.688 74.654v757.348c0 11.75 9.532 21.308 21.312 21.308s21.344-9.558 21.344-21.308V117.334c0-64.684-52.624-117.326-117.344-117.326z" fill="#CCD1D9" /><path d="M330.66 576c0 11.782-9.532 21.312-21.312 21.312S288.004 587.78 288.004 576s9.562-21.312 21.344-21.312S330.66 564.218 330.66 576z" fill="#434A54" /><path d="M245.348 874.684V426.672c0-47.06 38.28-85.34 85.312-85.34 47.062 0 85.342 38.282 85.342 85.34v448.01h42.656V426.672c0-70.576-57.406-127.998-127.998-127.998-70.562 0-128 57.422-128 127.998v448.01h42.688z" fill="#8CC153" /></svg>