<?xml version="1.0" standalone="no"?><!DOCTYPE svg PUBLIC "-//W3C//DTD SVG 1.1//EN" "http://www.w3.org/Graphics/SVG/1.1/DTD/svg11.dtd"><svg class="icon" width="128px" height="128.00px" viewBox="0 0 1024 1024" version="1.1" xmlns="http://www.w3.org/2000/svg"><path d="M554.66 384.004H149.35v618.664c0 11.75 9.562 21.312 21.342 21.312H554.66c11.782 0 21.312-9.562 21.312-21.312V384.004H554.66z" fill="#656D78" /><path d="M277.344 405.332c-11.782 0-21.342-9.546-21.342-21.328v-21.328c0-11.78 9.562-21.342 21.342-21.342s21.342 9.562 21.342 21.342v21.328c0 11.782-9.562 21.328-21.342 21.328zM362.684 405.332c-11.782 0-21.342-9.546-21.342-21.328v-21.328c0-11.78 9.562-21.342 21.342-21.342s21.312 9.562 21.312 21.342v21.328c0 11.782-9.53 21.328-21.312 21.328zM447.994 405.332c-11.782 0-21.312-9.546-21.312-21.328v-21.328c0-11.78 9.53-21.342 21.312-21.342 11.78 0 21.342 9.562 21.342 21.342v21.328c0 11.782-9.562 21.328-21.342 21.328z" fill="#DA4453" /><path d="M468.836 597.308H255.5c-11.782 0-21.342-9.532-21.342-21.31 0-11.782 9.562-21.312 21.342-21.312h213.334a21.3 21.3 0 0 1 21.312 21.312 21.294 21.294 0 0 1-21.31 21.31zM406.744 682.682h-86.37c-11.782 0-21.312-9.562-21.312-21.376 0-11.748 9.532-21.31 21.312-21.31h86.37c11.782 0 21.312 9.562 21.312 21.31 0 11.814-9.53 21.376-21.312 21.376z" fill="#434A54" /><path d="M554.66 0.02h-85.324c-11.78 0-21.342 9.546-21.342 21.328v21.342h-170.65V21.348c0-11.782-9.562-21.328-21.342-21.328H170.692c-11.78 0-21.342 9.546-21.342 21.328v362.658h426.624V21.348C575.972 9.566 566.442 0.02 554.66 0.02z" fill="#ED5564" /><path d="M277.344 42.69h170.65v234.648h-170.65z" fill="#DA4453" /><path d="M405.338 149.342c0 23.56-19.092 42.67-42.654 42.67S320 172.904 320 149.342s19.124-42.656 42.686-42.656 42.652 19.096 42.652 42.656z" fill="#434A54" /><path d="M362.684 213.338c-35.312 0-63.998-28.702-63.998-63.996 0-35.28 28.686-63.998 63.998-63.998 35.28 0 63.998 28.718 63.998 63.998 0 35.296-28.718 63.996-63.998 63.996z m0-85.322c-11.782 0-21.342 9.578-21.342 21.328 0 11.764 9.562 21.342 21.342 21.342 11.75 0 21.312-9.578 21.312-21.342 0-11.75-9.562-21.328-21.312-21.328z" fill="#656D78" /><path d="M170.692 1002.668V21.348C170.692 9.566 180.224 0.02 192.004 0.02H170.692c-11.78 0-21.342 9.546-21.342 21.328v981.322c0 11.75 9.562 21.312 21.342 21.312h21.312c-11.782-0.002-21.312-9.564-21.312-21.314zM554.66 1002.668V21.348c0-11.782-9.562-21.328-21.328-21.328h21.328c11.782 0 21.312 9.546 21.312 21.328v981.322c0 11.75-9.532 21.312-21.312 21.312h-21.328c11.766-0.002 21.328-9.564 21.328-21.314z" fill="#FFFFFF" opacity=".1" /><path d="M760.15 873.112a21.344 21.344 0 0 1-19.154-11.906c-5.218-10.562-0.876-23.344 9.686-28.562 40.688-20.094 73.966-75.528 83.374-95.182 5.094-10.624 17.81-15.124 28.436-10.032 10.656 5.062 15.156 17.81 10.062 28.436-1.656 3.438-40.842 84.308-102.964 115.028a21.458 21.458 0 0 1-9.44 2.218z" fill="#8CC153" /><path d="M773.4 833.548c-8.468-11.344-26.154-30.812-49.152-34.03a32.336 32.336 0 0 0-4.624-0.312c-14.03 0-27.28 8.186-45.592 19.53-31.062 19.188-77.964 48.188-148.668 48.188-73.026 0-153.116-25.624-200.99-40.938-25.874-8.282-36.686-11.624-44.81-11.624-14.124 0-22 10-23.312 19.282-0.532 3.656-1.624 11.344 11.656 35.218 6.062 10.938 16.782 27.966 33.342 47.09 26.186 30.218 57.31 54.688 92.464 72.782 45.466 23.374 96.496 35.248 151.634 35.248 88.434 0 155.808-17.624 200.274-52.31 36.186-28.25 49.03-62.592 49.03-83.404-0.002-16.72-7.752-36.688-21.252-54.72z" fill="#ED5564" /><path d="M745.622 950.326c-44.464 34.718-111.84 52.342-200.274 52.342-55.138 0-106.166-11.874-151.634-35.28-35.154-18.094-66.278-42.594-92.464-72.78-16.562-19.124-27.28-36.124-33.342-47.06-4.936-8.876-7.874-15.5-9.592-20.5a21.524 21.524 0 0 0-2.062 6.594c-0.532 3.656-1.624 11.344 11.656 35.218 6.062 10.938 16.782 27.966 33.342 47.09 26.186 30.218 57.31 54.688 92.464 72.782 45.466 23.374 96.496 35.248 151.634 35.248 88.434 0 155.808-17.624 200.274-52.31 36.186-28.25 49.03-62.592 49.03-83.404 0-3.404-0.344-6.998-0.968-10.654-3.598 20.684-17.536 48.87-48.064 72.714z" fill="#FFFFFF" opacity=".2" /></svg>