<?xml version="1.0" standalone="no"?><!DOCTYPE svg PUBLIC "-//W3C//DTD SVG 1.1//EN" "http://www.w3.org/Graphics/SVG/1.1/DTD/svg11.dtd"><svg class="icon" width="128px" height="128.00px" viewBox="0 0 1024 1024" version="1.1" xmlns="http://www.w3.org/2000/svg"><path d="M639.98975 213.347583c-188.575632 0-341.477333 124.779756-341.477333 383.99325 0 134.497737 41.15592 341.087334 107.091791 426.649167h468.631085c65.935871-85.561833 107.123791-292.151429 107.12379-426.649167 0-259.215494-152.809702-383.99325-341.369333-383.99325z" fill="#AC92EB" /><path d="M618.677792 223.441564v692.486647c-0.062 0.467999-0.062 0.937998-0.062 1.405997 0 11.781977 9.499981 21.343958 21.311958 21.343959 11.749977 0 21.311958-9.561981 21.311959-21.343959h0.061999V223.441564h-42.623916z" fill="#E6E9ED" /><path d="M874.235293 1023.99c65.935871-85.561833 107.123791-292.151429 107.12379-426.649167H298.512417c0 134.497737 41.15592 341.087334 107.091791 426.649167h468.631085z" fill="#967ADC" /><path d="M370.980275 191.223627l-25.24995-34.405933c86.311831-63.311876 166.497675-50.405902 169.871668-49.843903l-7.249986 42.061918c-0.032 0-16.717967-2.593995-41.905918 1.343997-33.591934 5.28199-65.717872 18.999963-95.465814 40.843921z" fill="#E6E9ED" /><path d="M213.326583 42.695917c-94.279816 0-170.683667 76.403851-170.683666 170.651666 0 94.249816 76.405851 170.653667 170.683666 170.653667 94.249816 0 170.653667-76.405851 170.653667-170.653667-0.002-94.247816-76.405851-170.651667-170.653667-170.651666z" fill="#434A54" /><path d="M618.677792 597.340833v318.587378c-0.062 0.467999-0.062 0.937998-0.062 1.405997 0 11.781977 9.499981 21.343958 21.311958 21.343959 11.749977 0 21.311958-9.561981 21.311959-21.343959h0.061999V597.340833h-42.623916z" fill="#CCD1D9" /><path d="M768.1755 0.008H511.632001c-11.781977 0-21.341958 9.561981-21.341959 21.343958v213.339584c0 11.781977 9.561981 21.311958 21.341959 21.311958h256.541499c11.811977 0 21.375958-9.531981 21.375958-21.311958V21.351958c0-11.781977-9.561981-21.343958-21.373958-21.343958z" fill="#E6E9ED" /><path d="M213.326583 128.00575c-47.155908 0-85.341833 38.217925-85.341833 85.341833 0 11.781977 9.561981 21.343958 21.341958 21.343959 11.781977 0 21.343958-9.561981 21.343959-21.343959 0-0.062-0.032-0.156-0.032-0.217999 0.124-23.435954 19.217962-42.435917 42.685916-42.435917 11.781977 0 21.311958-9.561981 21.311959-21.341959s-9.529981-21.345958-21.309959-21.345958z" fill="#656D78" /><path d="M757.54952 97.755809h31.999938v63.999875h-31.999938z" fill="#434A54" /><path d="M768.1755 128.00575c0-11.781977 9.561981-21.311958 21.375958-21.311958V64.005875c-35.311931 0-63.999875 28.717944-63.999875 63.999875 0 35.279931 28.687944 63.999875 63.999875 63.999875V149.349708c-11.813977 0-21.375958-9.561981-21.375958-21.343958z" fill="#656D78" /></svg>