<?xml version="1.0" standalone="no"?><!DOCTYPE svg PUBLIC "-//W3C//DTD SVG 1.1//EN" "http://www.w3.org/Graphics/SVG/1.1/DTD/svg11.dtd"><svg class="icon" width="128px" height="128.00px" viewBox="0 0 1024 1024" version="1.1" xmlns="http://www.w3.org/2000/svg"><path d="M639.972 595.996H384.028c-11.782 0-21.344 9.562-21.344 21.344v385.294c0 7.876 4.312 15.094 11.25 18.812s15.376 3.312 21.906-1.062l116.152-77.436 116.168 77.436a21.308 21.308 0 0 0 11.812 3.594 21.38 21.38 0 0 0 10.092-2.532 21.38 21.38 0 0 0 11.248-18.812V617.34c0-11.782-9.56-21.344-21.34-21.344z" fill="#DA4453" /><path d="M426.682 595.996h-42.654c-11.782 0-21.344 9.562-21.344 21.344v385.294c0 7.876 4.312 15.094 11.25 18.812a21.386 21.386 0 0 0 10.094 2.532c4.124 0 8.25-1.218 11.812-3.594l30.842-20.562V595.996zM597.318 595.996h42.654c11.78 0 21.34 9.562 21.34 21.344v385.294c0 7.876-4.342 15.094-11.248 18.812a21.38 21.38 0 0 1-10.092 2.532c-4.124 0-8.25-1.218-11.812-3.594l-30.842-20.562V595.996z" fill="#ED5564" /><path d="M870.37 349.866l-51.966-69.31 10.344-85.998a21.28 21.28 0 0 0-12.782-22.17L736.28 138.358l-33.998-79.668c-3.75-8.718-12.782-13.936-22.188-12.796l-85.994 10.358-69.296-51.966a21.328 21.328 0 0 0-25.594 0L429.9 56.252l-85.998-10.358a21.328 21.328 0 0 0-22.156 12.796L287.72 138.358l-79.684 34.03a21.284 21.284 0 0 0-12.782 22.17l10.344 85.998-51.966 69.31a21.324 21.324 0 0 0 0 25.592l51.966 69.31-10.344 85.996c-1.156 9.406 4.062 18.422 12.782 22.172l79.684 34.03 34.03 79.652a21.276 21.276 0 0 0 22.156 12.782l85.998-10.344 69.31 51.966a21.25 21.25 0 0 0 12.78 4.282 21.28 21.28 0 0 0 12.814-4.282l69.294-51.966 85.994 10.376a21.406 21.406 0 0 0 22.188-12.812l33.998-79.652 79.686-34.03a21.296 21.296 0 0 0 12.782-22.172l-10.344-85.996 51.966-69.31a21.336 21.336 0 0 0-0.002-25.594z" fill="#FFCE54" /><path d="M511.992 213.34c-11.75 0-21.312-9.546-21.312-21.344V149.342c0-11.782 9.562-21.328 21.312-21.328a21.318 21.318 0 0 1 21.344 21.328v42.654a21.324 21.324 0 0 1-21.344 21.344zM511.992 597.308c-11.75 0-21.312-9.562-21.312-21.344v-42.654c0-11.78 9.562-21.328 21.312-21.328 11.814 0 21.344 9.548 21.344 21.328v42.654c0 11.782-9.532 21.344-21.344 21.344zM426.682 236.198c-7.344 0-14.53-3.812-18.468-10.67l-21.342-36.936c-5.876-10.204-2.406-23.25 7.812-29.138 10.188-5.89 23.25-2.406 29.124 7.796l21.344 36.952c5.904 10.204 2.404 23.25-7.812 29.14a21.266 21.266 0 0 1-10.658 2.856zM618.662 568.714c-7.376 0-14.532-3.81-18.468-10.654l-21.344-36.936c-5.906-10.204-2.406-23.25 7.812-29.14 10.188-5.89 23.25-2.406 29.124 7.796l21.342 36.952c5.876 10.204 2.406 23.234-7.812 29.14a21.22 21.22 0 0 1-10.654 2.842zM364.184 298.664c-3.624 0-7.28-0.922-10.624-2.86l-36.968-21.326c-10.188-5.89-13.688-18.938-7.812-29.14 5.906-10.202 18.938-13.702 29.156-7.812l36.936 21.328c10.218 5.89 13.718 18.938 7.812 29.14-3.936 6.842-11.124 10.67-18.5 10.67zM696.718 490.656c-3.624 0-7.282-0.922-10.656-2.86l-36.936-21.328c-10.216-5.89-13.716-18.936-7.81-29.138 5.876-10.218 18.936-13.704 29.122-7.812l36.968 21.328c10.188 5.89 13.688 18.936 7.812 29.138a21.35 21.35 0 0 1-18.5 10.672zM341.342 383.99h-42.654c-11.782 0-21.344-9.546-21.344-21.328s9.562-21.328 21.344-21.328h42.654c11.782 0 21.342 9.546 21.342 21.328s-9.56 21.328-21.342 21.328zM725.312 383.99h-42.656c-11.782 0-21.344-9.546-21.344-21.328s9.562-21.328 21.344-21.328h42.656c11.78 0 21.342 9.546 21.342 21.328s-9.562 21.328-21.342 21.328zM327.28 490.656a21.35 21.35 0 0 1-18.5-10.672c-5.876-10.204-2.376-23.25 7.812-29.138l36.968-21.328c10.186-5.89 23.25-2.406 29.124 7.812 5.906 10.202 2.406 23.248-7.812 29.138l-36.936 21.328a21.31 21.31 0 0 1-10.656 2.86zM659.814 298.664c-7.376 0-14.56-3.828-18.498-10.67-5.906-10.202-2.406-23.25 7.81-29.14l36.936-21.328c10.218-5.89 23.25-2.39 29.156 7.812 5.876 10.204 2.376 23.25-7.812 29.14l-36.968 21.326a21.2 21.2 0 0 1-10.624 2.86zM405.34 568.714c-3.624 0-7.312-0.906-10.656-2.842-10.218-5.906-13.686-18.938-7.812-29.14l21.342-36.952c5.876-10.204 18.936-13.688 29.124-7.796 10.216 5.89 13.716 18.936 7.812 29.14l-21.344 36.936c-3.936 6.844-11.122 10.654-18.466 10.654zM597.288 236.198c-3.594 0-7.282-0.92-10.624-2.858-10.218-5.89-13.718-18.936-7.812-29.14l21.312-36.952c5.906-10.202 18.938-13.686 29.154-7.796 10.218 5.89 13.688 18.936 7.812 29.138l-21.342 36.936c-3.938 6.844-11.126 10.672-18.5 10.672z" fill="#F6BB42" /><path d="M511.992 170.668c-105.838 0-191.96 86.122-191.96 191.992 0 105.854 86.122 191.994 191.96 191.994 105.858 0 191.978-86.138 191.978-191.994-0.002-105.868-86.12-191.992-191.978-191.992z" fill="#ED5564" /><path d="M511.992 170.668c-3.562 0-7.124 0.11-10.656 0.296 100.92 5.562 181.32 89.418 181.32 191.696 0 102.278-80.4 186.118-181.32 191.68 3.53 0.188 7.092 0.312 10.656 0.312 105.858 0 191.978-86.138 191.978-191.994-0.002-105.866-86.12-191.99-191.978-191.99z" fill="#FFFFFF" opacity=".2" /><path d="M511.992 469.312c-35.28 0-63.966-28.702-63.966-63.98 0-35.296 28.686-63.998 63.966-63.998 35.296 0 63.984 28.702 63.984 63.998-0.002 35.28-28.688 63.98-63.984 63.98zM533.336 298.664c0 11.78-9.532 21.328-21.344 21.328-11.75 0-21.312-9.546-21.312-21.328s9.562-21.326 21.312-21.326c11.812 0 21.344 9.546 21.344 21.326zM466.744 308.57c8.344 8.344 8.344 21.844 0 30.17-8.344 8.344-21.842 8.344-30.154 0-8.344-8.328-8.344-21.828 0-30.17 8.312-8.328 21.81-8.328 30.154 0zM557.256 308.57c8.344-8.328 21.844-8.328 30.156 0 8.344 8.344 8.344 21.844 0 30.17-8.312 8.344-21.812 8.344-30.156 0-8.344-8.326-8.344-21.826 0-30.17z" fill="#E6E9ED" /></svg>