<?xml version="1.0" standalone="no"?><!DOCTYPE svg PUBLIC "-//W3C//DTD SVG 1.1//EN" "http://www.w3.org/Graphics/SVG/1.1/DTD/svg11.dtd"><svg class="icon" width="128px" height="128.00px" viewBox="0 0 1024 1024" version="1.1" xmlns="http://www.w3.org/2000/svg"><path d="M277.338 917.328H192.012c-11.78 0-21.328-9.562-21.328-21.344s9.546-21.344 21.328-21.344h85.326c11.782 0 21.344 9.562 21.344 21.344s-9.562 21.344-21.344 21.344zM831.988 917.328h-85.31c-11.81 0-21.374-9.562-21.374-21.344s9.562-21.344 21.374-21.344h85.31c11.782 0 21.31 9.562 21.31 21.344s-9.528 21.344-21.31 21.344z" fill="#ED5564" /><path d="M661.304 106.672H362.678c-11.78 0-21.342 9.562-21.342 21.342v149.338c0 11.78 9.562 21.31 21.342 21.31h298.626c11.812 0 21.376-9.53 21.376-21.31V128.014c0-11.78-9.562-21.342-21.376-21.342z m-21.308 149.338H384.006V149.358h255.99v106.652z" fill="#434A54" /><path d="M1002.666 341.35h-63.996c-11.812 0-21.374 9.53-21.374 21.312v426.67c0 11.782 9.56 21.31 21.374 21.31h63.996c11.75 0 21.312-9.53 21.312-21.31V362.662c0-11.782-9.562-21.312-21.312-21.312zM85.346 341.35H21.348c-11.78 0-21.326 9.53-21.326 21.312v426.67c0 11.782 9.546 21.31 21.326 21.31h63.998c11.782 0 21.342-9.53 21.342-21.31V362.662c0-11.782-9.562-21.312-21.342-21.312z" fill="#ED5564" /><path d="M895.984 256.01H128.016c-35.296 0-63.998 28.718-63.998 63.998v511.98c0 35.28 28.702 63.998 63.998 63.998h767.968c35.28 0 63.998-28.718 63.998-63.998v-511.98c0-35.28-28.718-63.998-63.998-63.998z" fill="#FFCE54" /><path d="M64.018 512h895.964v127.996H64.018zM831.988 831.986c-11.782 0-21.312 9.562-21.312 21.344v42.654h42.624v-42.654c-0.002-11.782-9.53-21.344-21.312-21.344zM703.992 831.986c-11.782 0-21.312 9.562-21.312 21.344v42.654h42.624v-42.654c0-11.782-9.53-21.344-21.312-21.344zM575.998 831.986c-11.782 0-21.312 9.562-21.312 21.344v42.654h42.624v-42.654c0-11.782-9.53-21.344-21.312-21.344zM448.002 831.986c-11.78 0-21.326 9.562-21.326 21.344v42.654h42.654v-42.654c0-11.782-9.546-21.344-21.328-21.344zM320.008 831.986c-11.782 0-21.326 9.562-21.326 21.344v42.654h42.654v-42.654c-0.002-11.782-9.548-21.344-21.328-21.344zM192.012 831.986c-11.78 0-21.328 9.562-21.328 21.344v42.654h42.656v-42.654c0-11.782-9.546-21.344-21.328-21.344zM192.012 341.35c11.782 0 21.328-9.562 21.328-21.342v-63.998H170.686v63.998c0 11.78 9.546 21.342 21.326 21.342zM320.008 384.004c11.78 0 21.328-9.562 21.328-21.344v-106.652h-42.654v106.652c0 11.782 9.544 21.344 21.326 21.344zM448.002 426.66c11.782 0 21.328-9.532 21.328-21.312v-149.338h-42.654v149.338c0 11.78 9.546 21.312 21.326 21.312zM575.998 426.66a21.3 21.3 0 0 0 21.312-21.312v-149.338h-42.624v149.338a21.3 21.3 0 0 0 21.312 21.312zM703.992 384.004c11.782 0 21.312-9.562 21.312-21.344v-106.652H682.68v106.652c0 11.782 9.53 21.344 21.312 21.344zM831.988 341.35c11.782 0 21.31-9.562 21.31-21.342v-63.998h-42.624v63.998c0.002 11.78 9.534 21.342 21.314 21.342z" fill="#F6BB42" /><path d="M170.686 512h170.65v127.996H170.686zM682.68 512h170.62v127.996h-170.62z" fill="#434A54" /><path d="M661.304 106.672H362.678c-11.78 0-21.342 9.562-21.342 21.342v42.654H682.68V128.014c0-11.78-9.562-21.342-21.376-21.342z" fill="#FFCE54" /></svg>