<?xml version="1.0" standalone="no"?><!DOCTYPE svg PUBLIC "-//W3C//DTD SVG 1.1//EN" "http://www.w3.org/Graphics/SVG/1.1/DTD/svg11.dtd"><svg class="icon" width="128px" height="128.00px" viewBox="0 0 1024 1024" version="1.1" xmlns="http://www.w3.org/2000/svg"><path d="M987.546 338.232l-120.682-120.712a21.332 21.332 0 0 1 0-30.188c8.312-8.312 21.842-8.312 30.154 0l120.712 120.714a21.33 21.33 0 0 1 0 30.186c-8.342 8.312-21.842 8.312-30.184 0zM821.586 262.798a21.33 21.33 0 0 1 0-30.186 21.33 21.33 0 0 1 30.186 0l120.682 120.712c8.344 8.312 8.344 21.844 0 30.156-8.31 8.344-21.842 8.344-30.154 0l-120.714-120.682zM897.02 428.76l-120.684-120.714a21.328 21.328 0 0 1 0-30.184c8.312-8.312 21.844-8.312 30.156 0l120.712 120.712a21.33 21.33 0 0 1 0 30.186c-8.34 8.314-21.84 8.314-30.184 0zM851.772 474.008l-120.712-120.682a21.33 21.33 0 0 1 0-30.186 21.33 21.33 0 0 1 30.186 0l120.682 120.714c8.344 8.312 8.344 21.842 0 30.154-8.312 8.344-21.844 8.344-30.156 0zM806.492 519.29l-120.714-120.714c-8.312-8.342-8.312-21.842 0-30.186 8.344-8.312 21.844-8.312 30.188 0l120.714 120.714a21.332 21.332 0 0 1 0 30.188 21.34 21.34 0 0 1-30.188-0.002zM761.244 564.538l-120.712-120.684a21.33 21.33 0 0 1 0-30.186c8.312-8.342 21.84-8.342 30.184 0l120.684 120.714c8.344 8.312 8.344 21.844 0 30.156-8.314 8.34-21.846 8.34-30.156 0zM715.964 609.816l-120.712-120.714c-8.312-8.312-8.312-21.844 0-30.186 8.344-8.312 21.844-8.312 30.186 0l120.712 120.714c8.312 8.344 8.312 21.844 0 30.188a21.332 21.332 0 0 1-30.186-0.002zM670.714 655.062l-120.712-120.682a21.36 21.36 0 0 1 0-30.186c8.312-8.344 21.844-8.344 30.156 0l120.712 120.714c8.344 8.312 8.344 21.84 0 30.152-8.312 8.346-21.842 8.346-30.156 0.002zM625.438 700.342l-120.698-120.712c-8.312-8.312-8.312-21.842 0-30.154a21.328 21.328 0 0 1 30.184 0l120.7 120.682c8.31 8.344 8.31 21.842 0 30.186a21.332 21.332 0 0 1-30.186-0.002zM806.492 157.178l-120.714-120.714c-8.312-8.344-8.312-21.842 0-30.186a21.336 21.336 0 0 1 30.188 0l120.714 120.714a21.33 21.33 0 0 1 0 30.186c-8.344 8.312-21.844 8.312-30.188 0zM746.15 217.52l-120.712-120.714c-8.342-8.312-8.342-21.844 0-30.156a21.334 21.334 0 0 1 30.186 0l120.712 120.682c8.312 8.344 8.312 21.844 0 30.188-8.344 8.342-21.874 8.342-30.186 0zM685.778 277.862l-120.682-120.684a21.33 21.33 0 0 1 0-30.186c8.312-8.342 21.844-8.342 30.156 0l120.712 120.714c8.344 8.312 8.344 21.844 0 30.156a21.334 21.334 0 0 1-30.186 0zM504.74 217.52c-8.312-8.344-8.312-21.844 0-30.188 8.342-8.312 21.842-8.312 30.184 0l120.7 120.714c8.31 8.344 8.31 21.844 0 30.186-8.342 8.312-21.842 8.312-30.186 0L504.74 217.52zM565.096 398.574l-120.698-120.712c-8.344-8.312-8.344-21.844 0-30.156a21.33 21.33 0 0 1 30.186 0l120.668 120.682a21.33 21.33 0 0 1 0 30.186c-8.312 8.344-21.844 8.344-30.156 0zM504.74 458.946c0-0.03 0 0 0 0l-120.682-120.714a21.33 21.33 0 0 1 0-30.186c8.312-8.342 21.842-8.342 30.156 0l120.712 120.714c8.344 8.312 8.344 21.842 0 30.186-8.344 8.312-21.844 8.312-30.186 0zM444.398 519.29l-120.714-120.714a21.33 21.33 0 0 1 0-30.186c8.342-8.312 21.842-8.312 30.186 0l120.714 120.714c8.312 8.344 8.312 21.842 0 30.188a21.34 21.34 0 0 1-30.186-0.002z" fill="#CCD1D9" /><path d="M384.056 579.628a21.172 21.172 0 0 1-6.25-15.092c0-5.656 2.218-11.062 6.25-15.062L836.68 96.806c4-4 9.438-6.25 15.092-6.25 5.656 0 11.062 2.25 15.094 6.25l60.34 60.372c8.344 8.312 8.344 21.842 0 30.154L474.584 640.002c-8.344 8.31-21.844 8.31-30.186 0l-60.342-60.374z" fill="#E6E9ED" /><path d="M489.646 624.91l-90.528-90.53a21.306 21.306 0 0 0-30.156 0L25.008 878.336C8.884 894.43 0.01 915.868 0.01 938.676c0 22.812 8.876 44.248 24.998 60.342 33.28 33.282 87.434 33.282 120.714 0l343.922-343.924a21.326 21.326 0 0 0 0.002-30.184z" fill="#EC5564" /><path d="M489.646 624.91l-90.528-90.53 75.466 75.436c8.312 8.344 8.312 21.844 0 30.186L130.628 983.956c-30.748 30.718-79.248 33.062-112.714 7.032 2.186 2.782 4.53 5.5 7.092 8.032 33.28 33.282 87.434 33.282 120.714 0l343.922-343.924a21.326 21.326 0 0 0 0.004-30.186z" fill="#FFFFFF" opacity=".2" /></svg>