<?xml version="1.0" standalone="no"?><!DOCTYPE svg PUBLIC "-//W3C//DTD SVG 1.1//EN" "http://www.w3.org/Graphics/SVG/1.1/DTD/svg11.dtd"><svg class="icon" width="128px" height="128.00px" viewBox="0 0 1024 1024" version="1.1" xmlns="http://www.w3.org/2000/svg"><path d="M213.378 575.996V959.98c0 35.31 133.712 63.998 298.644 63.998 164.914 0 298.598-28.688 298.598-63.998V575.996H213.378z" fill="#E5E8EC" /><path d="M512.024 512c-129.4 0-234.646-105.262-234.646-234.662 0-129.384 105.246-234.646 234.646-234.646 129.356 0 234.6 105.262 234.6 234.646 0 129.4-105.246 234.662-234.6 234.662z" fill="#A9B1BC" /><path d="M512.024 192.012c-47.124 0-85.34 38.204-85.34 85.326s38.216 85.34 85.34 85.34c47.108 0 85.294-38.216 85.294-85.34s-38.188-85.326-85.294-85.326z m0 127.996c-23.532 0-42.654-19.14-42.654-42.67 0-23.516 19.124-42.654 42.654-42.654 23.498 0 42.608 19.138 42.608 42.654-0.002 23.53-19.11 42.67-42.608 42.67z" fill="#CBD0D8" /><path d="M512.024 106.688c-94.246 0-170.65 76.402-170.65 170.65 0 94.246 76.404 170.664 170.65 170.664 94.232 0 170.602-76.418 170.602-170.664-0.002-94.248-76.37-170.65-170.602-170.65z m0 298.644c-70.59 0-127.994-57.436-127.994-127.994 0-70.576 57.404-127.994 127.994-127.994 70.544 0 127.98 57.418 127.98 127.994 0 70.558-57.436 127.994-127.98 127.994z" fill="#CBD0D8" /><path d="M767.996 298.648c11.75 0 21.312-9.53 21.312-21.31s-9.562-21.328-21.312-21.328c-0.312 0-0.624 0.016-0.876 0.046a256.266 256.266 0 0 0-3.186-24.186c0.312-0.062 0.56-0.11 0.81-0.188 11.438-3.046 18.188-14.734 15.124-26.124-3.062-11.376-14.75-18.124-26.124-15.094-0.25 0.094-0.562 0.172-0.812 0.25A254.59 254.59 0 0 0 743.62 168.2c0.25-0.124 0.5-0.234 0.75-0.376 10.188-5.922 13.688-18.936 7.812-29.138a21.36 21.36 0 0 0-29.186-7.812c-0.25 0.14-0.5 0.312-0.75 0.468a249.94 249.94 0 0 0-14.812-19.328c0.188-0.204 0.438-0.39 0.624-0.624 8.376-8.31 8.376-21.81 0-30.138-8.312-8.36-21.812-8.36-30.124-0.032-0.25 0.234-0.438 0.468-0.624 0.672a259.926 259.926 0 0 0-19.31-14.86c0.124-0.25 0.312-0.468 0.438-0.718 5.936-10.218 2.438-23.248-7.812-29.154-10.186-5.89-23.248-2.39-29.124 7.812l-0.376 0.75a250.264 250.264 0 0 0-22.56-9.328c0.124-0.266 0.188-0.546 0.25-0.796 3.062-11.39-3.688-23.078-15.062-26.124-11.376-3.078-23.062 3.688-26.124 15.062-0.062 0.296-0.124 0.562-0.188 0.844a255.426 255.426 0 0 0-24.17-3.156c0.062-0.282 0.062-0.578 0.062-0.876 0-11.782-9.562-21.326-21.312-21.326-11.812 0-21.344 9.544-21.344 21.326 0 0.296 0.032 0.594 0.062 0.876-8.188 0.672-16.248 1.734-24.186 3.156-0.062-0.282-0.094-0.546-0.188-0.844-3.032-11.376-14.75-18.124-26.124-15.062-11.376 3.046-18.124 14.75-15.094 26.124 0.094 0.25 0.188 0.532 0.25 0.796a249.686 249.686 0 0 0-22.5 9.328c-0.156-0.25-0.25-0.5-0.406-0.75-5.876-10.204-18.936-13.704-29.124-7.812-10.218 5.906-13.718 18.936-7.812 29.154l0.468 0.75a257.7 257.7 0 0 0-19.344 14.828c-0.188-0.204-0.376-0.422-0.594-0.64-8.312-8.36-21.842-8.36-30.154 0-8.344 8.328-8.344 21.828 0 30.138 0.218 0.234 0.438 0.422 0.656 0.624a250.316 250.316 0 0 0-14.842 19.328c-0.25-0.14-0.5-0.328-0.75-0.468-10.218-5.906-23.25-2.406-29.156 7.812-5.876 10.204-2.376 23.248 7.812 29.138 0.25 0.14 0.5 0.25 0.75 0.376a264.216 264.216 0 0 0-9.344 22.514c-0.25-0.078-0.532-0.156-0.782-0.25-11.376-3.032-23.094 3.718-26.124 15.094-3.062 11.39 3.686 23.078 15.06 26.124 0.282 0.078 0.562 0.124 0.844 0.188a256.276 256.276 0 0 0-3.156 24.186 7.628 7.628 0 0 0-0.876-0.046c-11.78 0-21.342 9.546-21.342 21.328s9.562 21.31 21.342 21.342c0.312 0 0.594-0.046 0.876-0.046 0.688 8.172 1.718 16.234 3.156 24.188-0.282 0.062-0.562 0.078-0.844 0.172-11.376 3.032-18.124 14.748-15.06 26.124 3.03 11.376 14.748 18.124 26.124 15.094 0.25-0.078 0.532-0.204 0.782-0.266a266.434 266.434 0 0 0 9.344 22.516c-0.25 0.156-0.5 0.25-0.75 0.406-10.188 5.89-13.688 18.936-7.812 29.138 5.906 10.204 18.938 13.704 29.156 7.812 0.25-0.172 0.468-0.328 0.718-0.484a257.758 257.758 0 0 0 14.874 19.31c-0.218 0.218-0.438 0.406-0.656 0.61-8.344 8.328-8.344 21.86 0 30.186 8.312 8.312 21.81 8.312 30.154 0 0.218-0.234 0.406-0.454 0.594-0.688a258.44 258.44 0 0 0 19.344 14.876c-0.156 0.25-0.312 0.484-0.468 0.734a21.302 21.302 0 0 0 7.812 29.14c10.188 5.89 23.216 2.39 29.124-7.796 0.156-0.25 0.25-0.5 0.376-0.75a268.98 268.98 0 0 0 22.532 9.344c-0.062 0.266-0.156 0.516-0.25 0.782-3.032 11.374 3.718 23.06 15.094 26.108 11.374 3.062 23.06-3.688 26.124-15.062l0.188-0.828c7.938 1.438 15.998 2.454 24.186 3.156a7.522 7.522 0 0 0-0.062 0.876c0 11.796 9.532 21.36 21.344 21.36 11.75 0 21.312-9.562 21.312-21.36 0-0.312 0-0.594-0.062-0.876 8.186-0.704 16.232-1.718 24.17-3.156 0.062 0.282 0.124 0.562 0.188 0.828 3.062 11.376 14.75 18.124 26.124 15.062 11.376-3.016 18.124-14.734 15.124-26.108a3.814 3.814 0 0 1-0.25-0.782 263.618 263.618 0 0 0 22.498-9.344l0.376 0.75c5.876 10.188 18.938 13.672 29.124 7.796a21.246 21.246 0 0 0 7.812-29.14c-0.124-0.25-0.312-0.484-0.438-0.734a250.866 250.866 0 0 0 19.31-14.876c0.188 0.234 0.376 0.454 0.624 0.688 8.312 8.312 21.812 8.312 30.124 0a21.272 21.272 0 0 0 0-30.186c-0.188-0.204-0.438-0.39-0.624-0.61a267.132 267.132 0 0 0 14.876-19.31c0.188 0.156 0.438 0.312 0.688 0.468a21.37 21.37 0 0 0 29.186-7.796c5.876-10.204 2.376-23.248-7.812-29.138-0.25-0.156-0.5-0.25-0.75-0.406a256.034 256.034 0 0 0 9.312-22.516c0.25 0.062 0.562 0.188 0.812 0.25 11.374 3.046 23.06-3.704 26.124-15.078s-3.688-23.092-15.062-26.124c-0.312-0.094-0.56-0.11-0.874-0.172a257.786 257.786 0 0 0 3.186-24.188c0.25-0.002 0.562 0.014 0.874 0.014z m-255.972 192.024c-56.998 0-110.558-22.188-150.838-62.48-40.31-40.31-62.496-93.872-62.496-150.854 0-56.998 22.186-110.558 62.496-150.838 40.28-40.294 93.84-62.482 150.838-62.482 56.982 0 110.542 22.188 150.79 62.482 40.312 40.28 62.5 93.84 62.5 150.838 0 56.982-22.188 110.542-62.5 150.854-40.248 40.292-93.808 62.48-150.79 62.48z" fill="#CBD0D8" /><path d="M810.622 575.996c0 35.312-133.684 63.998-298.598 63.998-164.932 0-298.644-28.686-298.644-63.998 0-35.358 133.712-63.996 298.644-63.996 164.914 0 298.598 28.638 298.598 63.996z" fill="#CBD0D8" /><path d="M512.024 682.678c-164.932 0-298.644-28.686-298.644-63.994v298.614c0 35.372 133.712 63.994 298.644 63.994 164.914 0 298.598-28.624 298.598-63.994V618.684c0 35.308-133.684 63.994-298.598 63.994z" fill="#EC5564" /><path d="M236.91 600.934c45.374 22.938 151.462 39.06 275.114 39.06 123.606 0 229.724-16.124 275.098-39.06v-24.938H236.91v24.938z" fill="#E8563F" /><path d="M512.024 618.684c71.67 0 140.542-5.624 193.914-15.75 25.25-4.75 45.874-10.312 61.372-16.5 11-4.376 16.812-8.062 19.812-10.438-3-2.376-8.812-6.062-19.812-10.436-15.498-6.188-36.122-11.75-61.372-16.562-53.374-10.11-122.244-15.672-193.914-15.672-71.714 0-140.588 5.562-193.93 15.672-25.248 4.812-45.904 10.376-61.404 16.562-11 4.374-16.81 8.06-19.78 10.436 2.968 2.376 8.78 6.062 19.78 10.438 15.5 6.188 36.156 11.75 61.404 16.5 53.342 10.124 122.214 15.75 193.93 15.75z" fill="#FB6D51" /><path d="M511.992 917.296c-35.282 0-63.998-28.688-63.998-63.998 0-35.25 28.716-63.998 63.998-63.998 35.264 0 64.014 28.748 64.014 63.998 0 35.312-28.75 63.998-64.014 63.998zM533.336 746.678c0 11.748-9.562 21.31-21.344 21.31s-21.312-9.562-21.312-21.31c0-11.812 9.532-21.376 21.312-21.376s21.344 9.564 21.344 21.376zM466.744 756.55c8.312 8.344 8.312 21.876 0 30.188-8.344 8.312-21.842 8.312-30.186 0-8.312-8.312-8.312-21.844 0-30.188 8.344-8.312 21.842-8.312 30.186 0zM557.256 756.55c8.312-8.312 21.876-8.312 30.188 0 8.312 8.344 8.312 21.876 0 30.188s-21.876 8.312-30.188 0-8.312-21.844 0-30.188z" fill="#E5E8EC" /></svg>