<?xml version="1.0" standalone="no"?><!DOCTYPE svg PUBLIC "-//W3C//DTD SVG 1.1//EN" "http://www.w3.org/Graphics/SVG/1.1/DTD/svg11.dtd"><svg class="icon" width="128px" height="128.00px" viewBox="0 0 1024 1024" version="1.1" xmlns="http://www.w3.org/2000/svg"><path d="M151.616 116.234a21.308 21.308 0 0 0 19.06 11.782h682.66c8.062 0 15.468-4.562 19.062-11.782l42.686-85.34a21.414 21.414 0 0 0-0.938-20.75A21.352 21.352 0 0 0 895.99 0.02H128.022a21.336 21.336 0 0 0-19.094 30.874l42.688 85.34zM872.398 907.796a21.28 21.28 0 0 0-19.062-11.812H170.676a21.278 21.278 0 0 0-19.06 11.812l-42.686 85.306a21.334 21.334 0 0 0 0.938 20.75 21.312 21.312 0 0 0 18.156 10.124h767.968c7.406 0 14.25-3.812 18.156-10.124a21.418 21.418 0 0 0 0.938-20.75l-42.688-85.306z" fill="#967ADC" /><path d="M256.016 128.016c-11.78 0-21.342-9.546-21.342-21.328V85.362c0-11.782 9.562-21.344 21.342-21.344 11.782 0 21.342 9.562 21.342 21.344v21.326c0.002 11.78-9.56 21.328-21.342 21.328zM341.356 128.016c-11.78 0-21.342-9.546-21.342-21.328V85.362c0-11.782 9.562-21.344 21.342-21.344 11.782 0 21.312 9.562 21.312 21.344v21.326c0 11.78-9.53 21.328-21.312 21.328zM426.666 128.016c-11.78 0-21.312-9.546-21.312-21.328V85.362c0-11.782 9.532-21.344 21.312-21.344 11.782 0 21.342 9.562 21.342 21.344v21.326c0 11.78-9.56 21.328-21.342 21.328zM512.006 128.016c-11.78 0-21.342-9.546-21.342-21.328V85.362c0-11.782 9.562-21.344 21.342-21.344 11.782 0 21.344 9.562 21.344 21.344v21.326c0 11.78-9.562 21.328-21.344 21.328zM597.348 128.016c-11.782 0-21.344-9.546-21.344-21.328V85.362c0-11.782 9.562-21.344 21.344-21.344s21.312 9.562 21.312 21.344v21.326c0 11.78-9.532 21.328-21.312 21.328zM682.654 128.016c-11.782 0-21.312-9.546-21.312-21.328V85.362c0-11.782 9.532-21.344 21.312-21.344s21.344 9.562 21.344 21.344v21.326c0 11.78-9.562 21.328-21.344 21.328zM767.994 128.016c-11.78 0-21.342-9.546-21.342-21.328V85.362c0-11.782 9.562-21.344 21.342-21.344 11.782 0 21.344 9.562 21.344 21.344v21.326c0 11.78-9.562 21.328-21.344 21.328zM767.994 959.98c-11.78 0-21.342-9.562-21.342-21.312v-21.34c0-11.782 9.562-21.344 21.342-21.344 11.782 0 21.344 9.562 21.344 21.344v21.34c0 11.75-9.562 21.312-21.344 21.312zM682.654 959.98c-11.782 0-21.312-9.562-21.312-21.312v-21.34c0-11.782 9.532-21.344 21.312-21.344s21.344 9.562 21.344 21.344v21.34c0 11.75-9.562 21.312-21.344 21.312zM597.348 959.98c-11.782 0-21.344-9.562-21.344-21.312v-21.34c0-11.782 9.562-21.344 21.344-21.344s21.312 9.562 21.312 21.344v21.34c0 11.75-9.532 21.312-21.312 21.312zM512.006 959.98c-11.78 0-21.342-9.562-21.342-21.312v-21.34c0-11.782 9.562-21.344 21.342-21.344 11.782 0 21.344 9.562 21.344 21.344v21.34c0 11.75-9.562 21.312-21.344 21.312zM426.666 959.98c-11.78 0-21.312-9.562-21.312-21.312v-21.34c0-11.782 9.532-21.344 21.312-21.344 11.782 0 21.342 9.562 21.342 21.344v21.34c0 11.75-9.56 21.312-21.342 21.312zM341.356 959.98c-11.78 0-21.342-9.562-21.342-21.312v-21.34c0-11.782 9.562-21.344 21.342-21.344 11.782 0 21.312 9.562 21.312 21.344v21.34c0 11.75-9.53 21.312-21.312 21.312zM256.016 959.98c-11.78 0-21.342-9.562-21.342-21.312v-21.34c0-11.782 9.562-21.344 21.342-21.344 11.782 0 21.342 9.562 21.342 21.344v21.34c0.002 11.75-9.56 21.312-21.342 21.312z" fill="#AC92EB" /><path d="M874.024 101.518a21.326 21.326 0 0 0-20.688-16.156H170.676a21.336 21.336 0 0 0-21.03 17.812c-0.876 5.31-21.624 132.664-21.624 387.498 0 254.38 21.28 427.562 21.5 429.312 1.344 10.652 10.406 18.684 21.154 18.684h682.66c10.406 0 19.312-7.562 21.032-17.842 0.876-5.28 21.624-133.15 21.624-430.154-0.002-297.864-21.062-385.576-21.968-389.154z" fill="#AC92EB" /><path d="M128.022 490.672c0 53.702 0.938 103.73 2.436 149.322h763.624c1.188-44.06 1.906-93.714 1.906-149.322 0-39.076-0.376-74.528-1-106.666H129.304c-0.812 32.67-1.282 68.2-1.282 106.666z" fill="#E6E9ED" /><path d="M512.006 256.01c-141.15 0-255.99 114.84-255.99 255.99 0 141.148 114.838 255.988 255.99 255.988S767.994 653.148 767.994 512c0-141.15-114.838-255.99-255.988-255.99z" fill="#F5F7FA" /><path d="M512.006 682.678c-58.81 0-106.652-47.87-106.652-106.682 0-58.808 47.84-106.652 106.652-106.652s106.654 47.844 106.654 106.652c0 58.812-47.844 106.682-106.654 106.682zM512.006 448.002c-29.406 0-53.342-23.92-53.342-53.326 0-29.404 23.936-53.326 53.342-53.326 29.404 0 53.342 23.922 53.342 53.326 0 29.406-23.938 53.326-53.342 53.326zM392.636 488.624c-14.25 0-27.656-5.546-37.716-15.624-20.812-20.794-20.812-54.636 0-75.418 10.062-10.076 23.468-15.624 37.716-15.624 14.218 0 27.624 5.546 37.686 15.624 20.81 20.796 20.81 54.624 0 75.418-10.062 10.078-23.468 15.624-37.686 15.624zM631.376 488.624c-14.248 0-27.624-5.546-37.716-15.624-10.062-10.076-15.624-23.466-15.624-37.714 0-14.234 5.562-27.64 15.624-37.704 10.094-10.076 23.468-15.624 37.716-15.624 14.25 0 27.654 5.546 37.714 15.624 10.062 10.062 15.624 23.468 15.624 37.704 0 14.248-5.562 27.638-15.624 37.714-10.058 10.078-23.464 15.624-37.714 15.624z" fill="#48CFAD" /></svg>