<?xml version="1.0" standalone="no"?><!DOCTYPE svg PUBLIC "-//W3C//DTD SVG 1.1//EN" "http://www.w3.org/Graphics/SVG/1.1/DTD/svg11.dtd"><svg class="icon" width="128px" height="128.00px" viewBox="0 0 1024 1024" version="1.1" xmlns="http://www.w3.org/2000/svg"><path d="M6.682 1015.158a21.18 21.18 0 0 1 0-30.062l210.646-210.678c8.282-8.312 21.782-8.312 30.092 0 8.312 8.344 8.312 21.812 0 30.124L36.742 1015.158a21.178 21.178 0 0 1-30.06 0z" fill="#37BC9B" /><path d="M796.118 367.404c0-5.656-2.25-11.094-6.25-15.062l-120.372-120.37c-8.282-8.344-21.746-8.344-30.058 0L217.328 654.046c-4 4-6.25 9.406-6.25 15.062v120.372a21.28 21.28 0 0 0 6.25 15.062 21.322 21.322 0 0 0 15.032 6.216h120.37c5.656 0 11.062-2.25 15.062-6.216l422.076-422.138c4-3.968 6.25-9.406 6.25-15z" fill="#E6E9ED" /><path d="M211.08 789.48a21.28 21.28 0 0 0 6.25 15.062 21.322 21.322 0 0 0 15.032 6.216h120.37c5.656 0 11.062-2.25 15.062-6.216L623.562 548.74H322.636l-105.308 105.306c-4 4-6.25 9.406-6.25 15.062v120.372z" fill="#48CFAD" /><path d="M991.734 111.602c0-5.656-2.25-11.092-6.25-15.03l-60.186-60.216c-8.31-8.312-21.78-8.312-30.06 0L669.496 262.034c-4 4-6.218 9.406-6.218 15.062s2.218 11.062 6.218 15.062l60.218 60.184c8.31 8.312 21.78 8.312 30.092 0L985.484 126.632c4-3.968 6.25-9.406 6.25-15.03z" fill="#E6E9ED" /><path d="M624.376 247.034c-8.31-8.344-8.31-21.81 0-30.124 8.312-8.282 21.782-8.282 30.092 0l150.462 150.462c8.312 8.312 8.312 21.782 0 30.092-8.312 8.312-21.782 8.312-30.062 0l-150.492-150.43z" fill="#CCD1D9" /><path d="M533.286 639.02l-30.092-30.094c-8.282-8.312-21.782-8.282-30.092 0-8.312 8.312-8.312 21.782 0 30.094l30.092 30.09 30.092-30.09zM443.008 729.294L412.916 699.2c-8.312-8.312-21.782-8.312-30.062 0-8.344 8.312-8.344 21.812 0 30.094l30.062 30.092 30.092-30.092zM623.594 548.678l-30.06-30.06a21.248 21.248 0 0 0-30.094 0 21.236 21.236 0 0 0 0 30.06l30.094 30.092 30.06-30.092zM713.84 458.462l-30.094-30.092c-8.312-8.312-21.782-8.312-30.092 0s-8.31 21.81 0 30.092l30.092 30.124 30.094-30.124z" fill="#434A54" /><path d="M865.116 36.356c-8.282-8.312-8.282-21.782 0-30.094 8.312-8.31 21.78-8.31 30.124 0l120.37 120.372c8.282 8.344 8.282 21.782 0 30.092-8.312 8.312-21.81 8.312-30.124 0l-120.37-120.37z" fill="#CCD1D9" /><path d="M688.622 1023.97c-10.406 0-29.404-3.656-39.778-28.312-6.094-14.468-8.938-35.466-8.938-66.092 0-82.276 66.934-149.21 149.21-149.21 82.28 0 149.212 66.936 149.212 149.21 0 29.844-2.968 50.342-9.344 64.53-7.874 17.594-22.124 27.282-40.092 27.282-14.404 0-29.248-6.218-44.996-12.782-16.938-7.062-36.156-15.062-54.782-15.062-18.594 0-37.874 8.718-54.872 16.438-15.902 7.218-30.902 13.998-45.62 13.998z" fill="#37BC9B" /><path d="M959.642 865.632c-35.876 0-63.966-37.466-63.966-85.278s28.092-85.248 63.966-85.248c35.84 0 63.934 37.438 63.934 85.248s-28.094 85.278-63.934 85.278z" fill="#48CFAD" /><path d="M853.052 780.356c-35.842 0-63.936-37.436-63.936-85.248 0-47.81 28.094-85.276 63.936-85.276 35.874 0 63.936 37.464 63.936 85.276s-28.062 85.248-63.936 85.248z" fill="#48CFAD" /><path d="M725.152 780.356c-35.844 0-63.938-37.436-63.938-85.248 0-47.81 28.094-85.276 63.938-85.276 35.874 0 63.964 37.464 63.964 85.276 0.002 47.812-28.09 85.248-63.964 85.248z" fill="#48CFAD" /><path d="M618.596 865.632c-35.876 0-63.968-37.466-63.968-85.278s28.094-85.248 63.968-85.248c35.84 0 63.932 37.438 63.932 85.248s-28.092 85.278-63.932 85.278z" fill="#48CFAD" /></svg>