<?xml version="1.0" standalone="no"?><!DOCTYPE svg PUBLIC "-//W3C//DTD SVG 1.1//EN" "http://www.w3.org/Graphics/SVG/1.1/DTD/svg11.dtd"><svg class="icon" width="128px" height="128.00px" viewBox="0 0 1024 1024" version="1.1" xmlns="http://www.w3.org/2000/svg"><path d="M831.988 554.694h-42.656c-11.782 0-21.344 9.532-21.344 21.31v42.688c0 35.246 28.718 63.994 64 63.994h42.686c11.78 0 21.31-9.56 21.31-21.374v-42.622c0-35.312-28.686-63.996-63.996-63.996z" fill="#7F4545" /><path d="M917.328 640.002h-170.65c-35.28 0-63.998 28.686-63.998 63.996 0 35.312 28.718 63.998 63.998 63.998h170.65c35.28 0 63.996-28.686 63.996-63.998 0-35.31-28.716-63.996-63.996-63.996z" fill="#965353" /><path d="M490.688 170.694H21.364C9.584 170.694 0.022 180.238 0.022 192.02v639.974c0 11.782 9.562 21.312 21.342 21.312h469.326a21.3 21.3 0 0 0 21.312-21.312V192.02c-0.002-11.782-9.532-21.326-21.314-21.326z" fill="#E6E9ED" /><path d="M0.022 234.692H512v42.654H0.022z" fill="#ED5564" /><path d="M424.972 810.682H83.642c-11.78 0-21.312-9.56-21.312-21.374 0-11.75 9.532-21.312 21.312-21.312h341.33c11.782 0 21.344 9.562 21.344 21.312 0 11.814-9.562 21.374-21.344 21.374z" fill="#CCD1D9" /><path d="M959.982 725.31H704.024c-35.312 0-63.996 28.748-63.996 63.998 0 35.31 28.684 63.998 63.996 63.998h255.958c35.308 0 63.996-28.688 63.996-63.998 0-35.25-28.686-63.998-63.996-63.998z" fill="#A85D5D" /><path d="M254.324 618.692c-35.312 0-63.998-28.75-63.998-63.998 0-35.31 28.686-64.014 63.998-64.014 35.28 0 63.998 28.704 63.998 64.014-0.002 35.248-28.718 63.998-63.998 63.998zM275.634 448.01c0 11.782-9.53 21.326-21.312 21.326-11.78 0-21.342-9.544-21.342-21.326 0-11.78 9.562-21.326 21.342-21.326 11.782 0 21.312 9.546 21.312 21.326zM209.044 457.916c8.342 8.342 8.342 21.842 0 30.17-8.312 8.344-21.842 8.344-30.156 0-8.344-8.328-8.344-21.828 0-30.17 8.314-8.328 21.844-8.328 30.156 0zM299.572 457.916c8.342-8.328 21.842-8.328 30.186 0 8.312 8.342 8.312 21.842 0 30.17a21.33 21.33 0 0 1-30.186 0c-8.312-8.328-8.312-21.828 0-30.17z" fill="#ED5564" /><path d="M847.082 390.264c-10.782-10.782-14-22.032-10.188-35.39 3.376-11.828 10.968-20.592 11.062-20.686l-0.124 0.124-0.032-0.046a21.226 21.226 0 0 0 5.53-14.312c0-11.782-9.53-21.344-21.342-21.344-6.812 0-12.876 3.234-16.782 8.234-3.312 3.906-13.25 16.672-18.75 34.326-9 28.922-1.718 57.076 20.468 79.264 10.782 10.782 14 22.03 10.188 35.388-3.376 11.81-10.968 20.592-11.062 20.67l0.124-0.11v0.016a21.274 21.274 0 0 0-5.5 14.282c0 11.782 9.562 21.328 21.312 21.328 6.312 0 11.938-2.734 15.844-7.062v0.016c1.376-1.5 13.436-15.266 19.716-35.438 9.002-28.92 1.722-57.074-20.464-79.26z" fill="#E6E9ED" /></svg>