<?xml version="1.0" standalone="no"?><!DOCTYPE svg PUBLIC "-//W3C//DTD SVG 1.1//EN" "http://www.w3.org/Graphics/SVG/1.1/DTD/svg11.dtd"><svg class="icon" width="128px" height="128.00px" viewBox="0 0 1024 1024" version="1.1" xmlns="http://www.w3.org/2000/svg"><path d="M896.484 127.788H299.434L128.562 298.66v682.674c0 23.562 19.094 42.656 42.656 42.656h682.61c23.562 0 42.656-19.094 42.656-42.656V127.788z" fill="#FC6E51" /><path d="M359.776 127.788l85.124-85.124h408.928v85.124h42.656V42.664c0-23.562-19.094-42.654-42.656-42.654H427.212l-127.78 127.778h60.344zM224.248 112.914c-8.312-8.312-21.812-8.312-30.156 0L133.75 173.256c-8.312 8.344-8.312 21.844 0 30.188 8.344 8.312 21.844 8.312 30.188 0l60.312-60.344a21.336 21.336 0 0 0-0.002-30.186z" fill="#434A54" /><path d="M645.3 533.312c-57.154-71.562-35.466-167.53-35.248-168.436l7.782-32.342-32.656 6.436c-58.498 11.562-105.122 37.624-138.622 77.468-26.53 31.53-45 72.03-55.062 120.656-2.062-1.188-3.688-2.406-4.624-3.624l-23.592-30.876-13.406 36.5c-14.906 40.686-20.5 79.902-16.594 116.558 3.594 33.656 14.968 64.438 33.876 91.466 18.936 27.156 45.156 49.688 75.78 65.156 29.062 14.718 60.656 22.466 91.374 22.466h21.498v-1.438c55.874-7.404 106.808-42.966 130.964-93.154 17.374-36.12 35.094-111.058-41.47-206.836z" fill="#FFCE54" /><path d="M229.028 923.554c-8.342-8.312-21.842-8.312-30.186 0.032l-68.812 68.904c3.968 14.656 15.562 26.188 30.25 30.094l68.748-68.844c8.344-8.344 8.312-21.844 0-30.186zM826.268 923.586c-8.344-8.344-21.844-8.344-30.188-0.032a21.33 21.33 0 0 0 0 30.186l68.716 68.812c14.688-3.906 26.282-15.438 30.218-30.124l-68.746-68.842zM896.484 127.788h-30.156L796.08 198.162c-8.344 8.312-8.344 21.842 0 30.156a21.296 21.296 0 0 0 15.094 6.25c5.438 0 10.906-2.094 15.094-6.282l70.216-70.312V127.788z" fill="#E9573F" /></svg>