<?xml version="1.0" standalone="no"?><!DOCTYPE svg PUBLIC "-//W3C//DTD SVG 1.1//EN" "http://www.w3.org/Graphics/SVG/1.1/DTD/svg11.dtd"><svg class="icon" width="128px" height="128.00px" viewBox="0 0 1024 1024" version="1.1" xmlns="http://www.w3.org/2000/svg"><path d="M938.64 256.01H85.348c-11.782 0-21.328 9.562-21.328 21.344v85.34c0 11.782 9.546 21.312 21.328 21.312H938.64c11.782 0 21.344-9.532 21.344-21.312v-85.34c0-11.782-9.562-21.344-21.344-21.344z" fill="#E6E9ED" /><path d="M512.002 0.022c-82.34 0-149.338 66.996-149.338 149.338 0 82.34 66.998 149.336 149.338 149.336 82.31 0 149.306-66.996 149.306-149.336 0-82.342-66.996-149.338-149.306-149.338z" fill="#48CFAD" /><path d="M512.002 256.01c-35.296 0-63.998-28.686-63.998-63.998 0-35.28 28.702-63.996 63.998-63.996C547.28 128.016 576 156.732 576 192.012c0 35.312-28.718 63.998-63.998 63.998zM533.332 85.362c0 11.782-9.546 21.342-21.33 21.342-11.78 0-21.342-9.56-21.342-21.342s9.562-21.344 21.342-21.344c11.784 0 21.33 9.562 21.33 21.344zM466.724 95.268a21.33 21.33 0 0 1 0 30.186c-8.328 8.312-21.826 8.312-30.154 0a21.33 21.33 0 0 1 0-30.186c8.328-8.312 21.826-8.312 30.154 0zM557.25 95.268c8.344-8.312 21.844-8.312 30.156 0a21.33 21.33 0 0 1 0 30.186c-8.312 8.312-21.812 8.312-30.156 0a21.33 21.33 0 0 1 0-30.186zM981.296 512H42.678c-11.782 0-21.328 9.562-21.328 21.342v469.324c0 11.75 9.546 21.312 21.328 21.312h938.618c11.782 0 21.34-9.562 21.34-21.312V533.342c0-11.78-9.558-21.342-21.34-21.342z" fill="#E6E9ED" /><path d="M597.312 639.994h-170.65c-11.78 0-21.328 9.56-21.328 21.31v341.362c0 11.75 9.546 21.312 21.328 21.312h170.65c11.782 0 21.344-9.562 21.344-21.312V661.304c0-11.75-9.562-21.31-21.344-21.31z" fill="#48CFAD" /><path d="M1021.23 480.188l-63.528-127.026a21.28 21.28 0 0 0-19.062-11.812H85.348a21.304 21.304 0 0 0-19.078 11.812L2.274 481.156a21.34 21.34 0 0 0 0.922 20.75A21.35 21.35 0 0 0 21.35 512h981.286c0 0.032 0 0.032 0.032 0a21.3 21.3 0 0 0 21.312-21.312c0-3.812-1-7.406-2.75-10.5z" fill="#37BC9B" /><path d="M490.66 831.986c0 11.812-9.546 21.312-21.328 21.312s-21.328-9.5-21.328-21.312 9.546-21.312 21.328-21.312 21.328 9.5 21.328 21.312zM1002.636 1023.978H21.35c-11.78 0-21.326-9.562-21.326-21.312 0-11.812 9.546-21.376 21.326-21.376h981.286c11.782 0 21.344 9.562 21.344 21.376 0 11.75-9.562 21.312-21.344 21.312z" fill="#434A54" /><path d="M1002.636 469.344H21.35c-11.78 0-21.326 9.562-21.326 21.344v79.558a21.36 21.36 0 0 0 10.64 18.5 63.934 63.934 0 0 0 32.014 8.562c16.374 0 31.342-6.188 42.67-16.312 11.328 10.124 26.28 16.312 42.67 16.312 16.374 0 31.326-6.188 42.654-16.312 11.328 10.124 26.296 16.312 42.67 16.312 16.374 0 31.328-6.188 42.67-16.312 11.328 10.124 26.28 16.312 42.656 16.312 16.374 0 31.342-6.188 42.668-16.312 11.328 10.124 26.28 16.312 42.67 16.312 16.374 0 31.328-6.188 42.654-16.312 11.328 10.124 26.294 16.312 42.67 16.312 16.374 0 31.328-6.188 42.67-16.312 11.33 10.124 26.278 16.312 42.654 16.312s31.344-6.188 42.656-16.312c11.344 10.124 26.282 16.312 42.688 16.312 16.372 0 31.308-6.188 42.652-16.312 11.312 10.124 26.282 16.312 42.656 16.312 16.372 0 31.34-6.188 42.684-16.312 11.312 10.124 26.282 16.312 42.656 16.312s31.344-6.188 42.652-16.312c11.344 10.124 26.282 16.312 42.688 16.312 16.376 0 31.308-6.188 42.652-16.312 11.312 10.124 26.282 16.312 42.656 16.312a63.952 63.952 0 0 0 32.028-8.562 21.376 21.376 0 0 0 10.656-18.5v-79.558c0.002-11.782-9.56-21.344-21.342-21.344z" fill="#48CFAD" /><path d="M320.01 938.668H149.346c-11.782 0-21.328-9.562-21.328-21.372v-170.62c0-58.812 47.84-106.684 106.652-106.684s106.666 47.872 106.666 106.684v170.62c0.002 11.81-9.544 21.372-21.326 21.372z" fill="#5D9CEC" /><path d="M874.644 938.668h-170.648c-11.782 0-21.344-9.562-21.344-21.372v-170.62c0-58.812 47.844-106.684 106.652-106.684 58.812 0 106.684 47.872 106.684 106.684v170.62c0 11.81-9.562 21.372-21.344 21.372z" fill="#5D9CEC" /><path d="M789.304 639.994c-58.808 0-106.652 47.872-106.652 106.684h213.336c0-58.812-47.87-106.684-106.684-106.684zM234.67 639.994c-58.81 0-106.652 47.872-106.652 106.684h213.318c0.002-58.812-47.854-106.684-106.666-106.684z" fill="#4FC2E9" /></svg>