<?xml version="1.0" standalone="no"?><!DOCTYPE svg PUBLIC "-//W3C//DTD SVG 1.1//EN" "http://www.w3.org/Graphics/SVG/1.1/DTD/svg11.dtd"><svg class="icon" width="128px" height="128.00px" viewBox="0 0 1024 1024" version="1.1" xmlns="http://www.w3.org/2000/svg"><path d="M512 0.022c-70.636 0-127.916 57.278-127.916 127.9v149.244c0 11.75 9.546 21.31 21.328 21.31h213.18c11.78 0 21.342-9.56 21.342-21.31V127.922c0-70.624-57.31-127.9-127.934-127.9z" fill="#E6E9ED" /><path d="M745.74 290.698c-1.218-3.282-13.092-32.876-48.154-62.342-31.718-26.688-89.65-58.468-185.586-58.468-95.932 0-153.87 31.78-185.586 58.466-35.06 29.466-46.92 59.06-48.17 62.342a21.97 21.97 0 0 0-1.422 7.78v682.19c0 23.876 17.844 43.312 39.764 43.312h390.844c21.906 0 39.748-19.438 39.748-43.312V298.476c0-2.656-0.5-5.312-1.438-7.778z" fill="#AC92EB" /><path d="M745.74 290.698c-1.218-3.282-13.092-32.876-48.154-62.342-31.718-26.688-89.65-58.468-185.586-58.468-3.624 0-7.204 0.062-10.716 0.156 89.622 2.218 144.462 32.624 174.958 58.31 35.062 29.466 46.938 59.06 48.188 62.342 0.938 2.466 1.438 5.124 1.438 7.78v682.19c0 23.876-17.844 43.312-39.75 43.312h21.312c21.906 0 39.748-19.438 39.748-43.312V298.476c0-2.656-0.5-5.312-1.438-7.778z" fill="#FFFFFF" opacity=".2" /><path d="M278.244 290.698c1.25-3.282 13.11-32.876 48.17-62.342 31.716-26.688 89.654-58.466 185.586-58.466 3.624 0 7.204 0.062 10.718 0.156-89.622 2.218-144.462 32.624-174.978 58.31-35.06 29.466-46.934 59.06-48.168 62.342a21.97 21.97 0 0 0-1.422 7.78v682.19c0 23.876 17.826 43.312 39.746 43.312h-21.31c-21.92 0-39.764-19.438-39.764-43.312V298.476c0-2.656 0.484-5.312 1.422-7.778z" fill="#FFFFFF" opacity=".2" /><path d="M660.806 447.69H363.194c-11.782 0-21.328 9.562-21.328 21.342v341.08c0 11.782 9.546 21.312 21.328 21.312h297.614c11.78 0 21.31-9.532 21.31-21.312v-341.08c0-11.78-9.532-21.342-21.312-21.342z" fill="#E6E9ED" /><path d="M512 746.146c-35.264 0-63.952-28.688-63.952-63.936 0-35.282 28.688-63.964 63.952-63.964 35.248 0 63.936 28.684 63.936 63.964 0 35.248-28.688 63.936-63.936 63.936zM533.312 575.622c0 11.75-9.532 21.312-21.312 21.312-11.78 0-21.31-9.562-21.31-21.312 0-11.78 9.532-21.342 21.31-21.342 11.782 0 21.312 9.562 21.312 21.342zM466.768 585.528c8.328 8.312 8.328 21.812 0 30.124a21.292 21.292 0 0 1-30.154 0c-8.328-8.312-8.328-21.812 0-30.124a21.292 21.292 0 0 1 30.154 0zM557.248 585.528c8.312-8.344 21.812-8.344 30.124 0 8.344 8.312 8.344 21.812 0 30.156-8.312 8.312-21.812 8.312-30.124 0-8.344-8.344-8.344-21.844 0-30.156z" fill="#AC92EB" /><path d="M639.934 362.412H384.084c-11.766 0-21.312-9.532-21.312-21.312 0-11.78 9.546-21.31 21.312-21.31h255.85c11.748 0 21.308 9.532 21.308 21.31 0 11.78-9.56 21.312-21.308 21.312zM661.242 1023.292V1001.98c0-11.782-9.56-21.312-21.308-21.312-11.812 0-21.342 9.532-21.342 21.312v21.312c0 0.25 0.032 0.468 0.032 0.688h42.556c0.03-0.22 0.062-0.438 0.062-0.688zM575.936 1023.292V1001.98a21.3 21.3 0 0 0-21.312-21.312c-11.766 0-21.31 9.532-21.31 21.312v21.312c0 0.25 0.032 0.468 0.046 0.688h42.576v-0.688zM490.69 1023.292V1001.98c0-11.782-9.546-21.312-21.328-21.312-11.766 0-21.312 9.532-21.312 21.312v21.312c0 0.25 0.016 0.468 0.032 0.688h42.562c0.014-0.22 0.046-0.438 0.046-0.688zM405.412 1023.292V1001.98c0-11.782-9.546-21.312-21.328-21.312-11.766 0-21.312 9.532-21.312 21.312v21.312c0 0.25 0.032 0.468 0.032 0.688h42.578c-0.002-0.22 0.03-0.438 0.03-0.688z" fill="#967ADC" /></svg>