<?xml version="1.0" standalone="no"?><!DOCTYPE svg PUBLIC "-//W3C//DTD SVG 1.1//EN" "http://www.w3.org/Graphics/SVG/1.1/DTD/svg11.dtd"><svg class="icon" width="128px" height="128.00px" viewBox="0 0 1024 1024" version="1.1" xmlns="http://www.w3.org/2000/svg"><path d="M279.4 81.452l-46.576 7.016s-182.76 461.594-142.058 488.782C279.4 703.4 132.686 1023.984 405.162 1023.984V523.468l106.668-3.736L279.4 81.452z" fill="#4B89DA" /><path d="M147.452 320.006h172.384l-17.39-85.34H177.608c-9.828 27.076-20.142 56.076-30.156 85.34zM95.5 490.656h251.054l-21.328-85.324H119.468c-9.562 30.842-17.89 60.014-23.968 85.324zM405.162 634.278l-23.094-58.28H89.312c0.454 0.5 0.938 0.938 1.454 1.25 33.968 22.75 57.06 51.748 73.686 84.06h240.71v-27.03zM213.152 831.988h192.01v-85.34H194.934c7.124 28.438 12.452 57.404 18.218 85.34zM236.23 917.298c24.186 62.248 67.53 106.684 168.932 106.684v-106.684h-168.932z" fill="#F5BA45" /><path d="M744.618 81.452l46.562 7.016s182.744 461.594 142.058 488.782C744.616 703.4 891.3 1023.984 618.842 1023.984V523.468l-106.668-3.736 232.444-438.28z" fill="#4B89DA" /><path d="M876.552 320.006h-172.37l17.374-85.34h124.84c9.842 27.076 20.156 56.076 30.156 85.34zM928.488 490.656H677.434l21.344-85.324h205.774c9.562 30.842 17.874 60.014 23.936 85.324zM618.842 634.278l23.094-58.28h292.74c-0.438 0.5-0.938 0.938-1.438 1.25-33.968 22.75-57.06 51.748-73.686 84.06H618.842v-27.03zM810.868 831.988h-192.026v-85.34h210.21c-7.122 28.438-12.434 57.404-18.184 85.34zM787.774 917.298c-24.186 62.248-67.528 106.684-168.932 106.684v-106.684h168.932z" fill="#F5BA45" /><path d="M726.682 381.394c0 153.166-96.124 343.91-214.68 343.91-118.558 0-214.664-190.744-214.664-343.91S393.444 170.668 512.002 170.668c118.556 0 214.68 57.56 214.68 210.726z" fill="#EAC6BB" /><path d="M744.432 81.452S621.842 6.472 512.002 0.018c-109.84 6.454-232.43 81.434-232.43 81.434l-46.576 7.016 64.342 280.914s68.998-100.936 214.664-100.936c145.682 0 214.68 100.936 214.68 100.936l64.31-280.914-46.56-7.016z" fill="#5E9CEA" /><path d="M533.328 2.08c-7.14-0.954-14.25-1.656-21.326-2.062-7.078 0.406-14.188 1.11-21.328 2.062v267.116c6.922-0.484 14.016-0.75 21.328-0.75 7.312 0 14.406 0.266 21.326 0.75V2.08z" fill="#4B89DA" /><path d="M449.254 275.086L387.208 29.75c-61.248 23.344-107.636 51.702-107.636 51.702l105.262 216.478a270.35 270.35 0 0 1 64.42-22.844zM574.748 275.086l62.062-245.336c61.248 23.344 107.622 51.702 107.622 51.702l-105.246 216.478a270.976 270.976 0 0 0-64.438-22.844z" fill="#FECD57" /><path d="M448.004 688.65v228.648c0 35.374 63.998 63.998 63.998 63.998S576 952.672 576 917.298V688.65H448.004z" fill="#4B89DA" /><path d="M448.004 789.302H576v85.342h-127.996z" fill="#FECD57" /><path d="M448.004 426.658c0 11.782-9.546 21.344-21.328 21.344-11.78 0-21.342-9.562-21.342-21.344 0-11.78 9.562-21.326 21.342-21.326 11.782 0 21.328 9.546 21.328 21.326z" fill="#434A54" /><path d="M469.316 448.002c-3.14 0-6.344-0.704-9.36-2.188l-87.106-42.654c-10.58-5.188-14.954-17.968-9.782-28.546 5.186-10.576 17.966-14.952 28.544-9.782l87.106 42.672c10.58 5.188 14.954 17.966 9.782 28.544-3.7 7.564-11.294 11.954-19.184 11.954z" fill="#646C77" /><path d="M576 426.658c0 11.782 9.562 21.344 21.31 21.344 11.812 0 21.376-9.562 21.376-21.344 0-11.78-9.562-21.326-21.376-21.326-11.748 0-21.31 9.546-21.31 21.326z" fill="#434A54" /><path d="M554.688 448.002a21.334 21.334 0 0 1-19.17-11.954c-5.19-10.578-0.814-23.358 9.764-28.544l87.092-42.672c10.594-5.17 23.374-0.794 28.562 9.782 5.186 10.578 0.81 23.36-9.782 28.546l-87.092 42.654a21.328 21.328 0 0 1-9.374 2.188z" fill="#646C77" /><path d="M533.328 597.308h-42.654c-11.78 0-21.342-9.532-21.342-21.31a21.332 21.332 0 0 1 21.342-21.344h42.654c11.796 0 21.36 9.532 21.36 21.344 0 11.78-9.562 21.31-21.36 21.31z" fill="#434A54" /></svg>