<?xml version="1.0" standalone="no"?><!DOCTYPE svg PUBLIC "-//W3C//DTD SVG 1.1//EN" "http://www.w3.org/Graphics/SVG/1.1/DTD/svg11.dtd"><svg class="icon" width="128px" height="128.00px" viewBox="0 0 1024 1024" version="1.1" xmlns="http://www.w3.org/2000/svg"><path d="M21.386 789.31c-0.952 0-1.89-0.062-2.86-0.188-11.672-1.562-19.874-12.282-18.328-23.966L85.54 125.176c1.546-11.656 12.282-19.874 23.968-18.312 11.67 1.562 19.876 12.282 18.31 23.968l-85.324 639.98c-1.42 10.718-10.592 18.498-21.108 18.498z" fill="#424953" /><path d="M191.99 789.31c-10.532 0-19.686-7.782-21.124-18.498L85.542 130.832c-1.562-11.688 6.64-22.406 18.328-23.968 11.672-1.56 22.406 6.656 23.952 18.312l85.342 639.98c1.546 11.686-6.656 22.404-18.328 23.966-0.956 0.126-1.906 0.188-2.846 0.188z" fill="#424953" /><path d="M106.682 789.31c-11.782 0-21.328-9.562-21.328-21.344V127.988c0-11.782 9.546-21.312 21.328-21.312s21.328 9.532 21.328 21.312v639.978c0 11.782-9.548 21.344-21.328 21.344z" fill="#646C77" /><path d="M967.766 77.584c-75-74.966-196.558-74.966-271.524 0-64.626 64.624-61.562 150.494-14.812 224.68 0 0 37.094-130.746 112.528-154.682 42.344-13.438 68.184 5.406 83.278 20.498 25 25 25 65.53 0 90.53-24.968 24.968-57.84 30.124-102.528 12.032l-78.464 78.464-22 22L151.946 893.4c-24.984 24.966-24.984 65.498 0 90.496 25 25 65.514 25 90.514 0L821.33 405.04c52.626 2.906 106.214-15.718 146.438-55.936 74.962-74.966 74.962-196.554-0.002-271.52z" fill="#4B89DA" /><path d="M247.708 797.624L151.946 893.4c-24.984 24.966-24.984 65.498 0 90.496 25 25 65.514 25 90.514 0l5.25-5.248v-181.024zM363.376 862.964l115.668-115.652v-181.026l-115.668 115.684zM594.684 631.658l115.68-115.682v-180.994l-14.122 14.124-22 22-79.558 79.526zM967.766 349.106a192.572 192.572 0 0 0 37.058-52.06l-109.808-72.654a63.69 63.69 0 0 1-17.782 34.218c-14.25 14.248-31.09 22.03-51.214 22.748v123.872c51.12 1.592 102.714-17.124 141.746-56.124zM967.766 77.584c-42.282-42.282-99.376-60.716-154.562-55.31l3.692 120.872c24.968-1.532 42.59 8.998 54.778 19.718l116.964-60.56a196.502 196.502 0 0 0-20.872-24.72z" fill="#F5BA45" /><path d="M194.6 82.74c-24.998-24.968-65.514-24.968-90.512 0-24.982 24.998-24.982 65.53 0 90.528l810.646 810.628c25 25 65.496 25 90.496 0 25-24.998 25-65.53 0-90.496L194.6 82.74z" fill="#FECD57" /><path d="M914.734 983.896c25 25 65.496 25 90.496 0 25-24.998 25-65.53 0-90.496l-5.094-5.124h-181.024l95.622 95.62zM587.804 656.94l115.656 115.684h180.994L768.8 656.94zM537.48 425.634h-181.01l115.668 115.654h181.01zM125.134 194.298l115.668 115.654h181.008l-115.666-115.654z" fill="#5E9CEA" /><path d="M699.398 526.946l-90.53-90.498-30.154 30.154 90.528 90.528zM578.586 647.754l-90.496-90.498-30.17 30.154 90.514 90.53z" opacity=".1" /></svg>