<?xml version="1.0" standalone="no"?><!DOCTYPE svg PUBLIC "-//W3C//DTD SVG 1.1//EN" "http://www.w3.org/Graphics/SVG/1.1/DTD/svg11.dtd"><svg class="icon" width="128px" height="128.00px" viewBox="0 0 1024 1024" version="1.1" xmlns="http://www.w3.org/2000/svg"><path d="M853.329 234.651875V127.99775c0-23.561586-19.123664-42.65525-42.68725-42.65525h-767.9865C19.093664 85.3425 0 104.436164 0 127.99775v106.654125h853.329z" fill="#CCD1D9" /><path d="M853.329 725.33125H0V170.653h853.329v446.680148z" fill="#E6E9ED" /><path d="M85.3425 127.99775c0 11.781793-9.561832 21.343625-21.343625 21.343625S42.65525 139.779543 42.65525 127.99775 52.217082 106.654125 63.998875 106.654125 85.3425 116.215957 85.3425 127.99775z" fill="#ED5564" /><path d="M149.341375 127.99775c0 11.781793-9.561832 21.343625-21.343625 21.343625S106.654125 139.779543 106.654125 127.99775 116.215957 106.654125 127.99775 106.654125 149.341375 116.215957 149.341375 127.99775z" fill="#FFCE54" /><path d="M213.34025 127.99775c0 11.781793-9.561832 21.343625-21.343625 21.343625S170.653 139.779543 170.653 127.99775 180.214832 106.654125 191.996625 106.654125 213.34025 116.215957 213.34025 127.99775z" fill="#A0D468" /><path d="M85.3425 597.3335h319.994375v127.99775h-319.994375zM447.992125 597.3335h319.994375v127.99775H447.992125zM85.3425 255.9955H767.9865v298.65075H85.3425z" fill="#ED5564" /><path d="M661.332375 383.99325H234.651875c-11.781793 0-21.311625 9.561832-21.311625 21.343625s9.531832 21.311625 21.311625 21.311625h426.6805c11.781793 0 21.311625-9.531832 21.311625-21.311625S673.112168 383.99325 661.332375 383.99325z" fill="#434A54" /><path d="M938.6395 0h42.68725v575.989875h-42.68725z" fill="#FFCE54" /><path d="M938.6395 661.332375V895.98425c0 47.061173-38.281327 85.3425-85.3105 85.3425C806.267827 981.32675 767.9865 943.045423 767.9865 895.98425v-24.123576l30.71746 20.467641c0.031999 0 0.031999 0.031999 0.061999 0.031999l0.061999 0.031999a20.999631 20.999631 0 0 0 11.811792 3.593937c11.781793 0 21.343625-9.561832 21.343625-21.343625 0-7.40587-3.781934-13.905756-9.499833-17.749688l-63.874877-42.561251c-0.031999-0.031999-0.061999-0.031999-0.093998-0.061999l-0.032-0.032a21.349625 21.349625 0 0 0-11.843792-3.593937c-11.781793 0-21.311625 9.561832-21.311625 21.343625v63.998875c0 70.686757 57.280993 127.99775 127.99775 127.99775 70.686757 0 127.99775-57.310993 127.99775-127.99775V661.332375h-42.68325z" fill="#434A54" /><path d="M959.983125 554.64625c-35.343379 0-63.998875 28.655496-63.998875 63.998875s28.655496 63.998875 63.998875 63.998875 63.998875-28.655496 63.998875-63.998875-28.655496-63.998875-63.998875-63.998875zM959.983125 639.98875c-11.749793 0-21.343625-9.561832-21.343625-21.343625 0-11.749793 9.593831-21.311625 21.343625-21.311625s21.343625 9.561832 21.343625 21.311625c0 11.781793-9.593831 21.343625-21.343625 21.343625z" fill="#656D78" /></svg>