<?xml version="1.0" standalone="no"?><!DOCTYPE svg PUBLIC "-//W3C//DTD SVG 1.1//EN" "http://www.w3.org/Graphics/SVG/1.1/DTD/svg11.dtd"><svg class="icon" width="128px" height="128.00px" viewBox="0 0 1024 1024" version="1.1" xmlns="http://www.w3.org/2000/svg"><path d="M213.346 170.674c-11.782 0-21.344 9.546-21.344 21.328v85.328c0 11.782 9.562 21.344 21.344 21.344s21.312-9.562 21.312-21.344V192.002c0-11.782-9.532-21.328-21.312-21.328zM213.346 320.002c-11.782 0-21.344 9.546-21.344 21.328v85.342c0 11.782 9.562 21.328 21.344 21.328s21.312-9.546 21.312-21.328v-85.342c0-11.782-9.532-21.328-21.312-21.328zM810.654 384.002c-11.782 0-21.312 9.546-21.312 21.326v85.344c0 11.782 9.532 21.328 21.312 21.328s21.344-9.546 21.344-21.328v-85.344c0-11.78-9.562-21.326-21.344-21.326z" fill="#434A54" /><path d="M298.658 1013.308c-41.156 0-74.656-33.468-74.656-74.624V85.33c0-41.17 33.5-74.654 74.656-74.654h426.684c41.156 0 74.656 33.484 74.656 74.654v853.356c0 41.154-33.5 74.624-74.656 74.624H298.658z" fill="#A0D468" /><path d="M725.342 0.004H298.658c-47.124 0-85.312 38.204-85.312 85.326v853.356c0 47.124 38.188 85.31 85.312 85.31h426.684c47.124 0 85.312-38.188 85.312-85.31V85.33c0-47.122-38.188-85.326-85.312-85.326z m64 938.682c0 35.248-28.718 63.998-64 63.998H298.658c-35.282 0-64-28.75-64-63.998V85.33c0-35.28 28.718-63.998 64-63.998h426.684c35.282 0 64 28.718 64 63.998v853.356z" fill="#8CC153" /><path d="M234.658 149.33h554.684v682.668H234.658zM682.656 85.33c0 11.782-9.532 21.344-21.312 21.344S640 97.112 640 85.33s9.562-21.328 21.344-21.328 21.312 9.546 21.312 21.328z" fill="#5D9CEC" /><path d="M576 64.002h-128c-11.782 0-21.344 9.546-21.344 21.328S436.22 106.674 448 106.674h128c11.782 0 21.344-9.562 21.344-21.344S587.782 64.002 576 64.002zM563.782 863.998h-106.656c-29.468 0-53.344 23.876-53.344 53.312 0 29.5 23.876 53.374 53.344 53.374h106.656c29.468 0 53.344-23.874 53.344-53.374-0.002-29.436-23.876-53.312-53.344-53.312z m0 64h-106.656c-5.876 0-10.656-4.782-10.656-10.688 0-5.876 4.782-10.624 10.656-10.624h106.656c5.906 0 10.688 4.75 10.688 10.624a10.686 10.686 0 0 1-10.688 10.688z" fill="#8CC153" /><path d="M570.656 832.124H448L576 149.22h122.654z" fill="#FFFFFF" opacity=".1" /></svg>