<?xml version="1.0" standalone="no"?><!DOCTYPE svg PUBLIC "-//W3C//DTD SVG 1.1//EN" "http://www.w3.org/Graphics/SVG/1.1/DTD/svg11.dtd"><svg class="icon" width="128px" height="128.00px" viewBox="0 0 1024 1024" version="1.1" xmlns="http://www.w3.org/2000/svg"><path d="M433.202 877.992h156.666v47.308h-156.666z" fill="#656D78" /><path d="M469.34 917.304c-11.782 0-21.328-9.532-21.328-21.312v-21.344c0-11.782 9.546-21.344 21.328-21.344s21.328 9.562 21.328 21.344v21.344c0 11.782-9.546 21.312-21.328 21.312zM554.65 917.304c-11.766 0-21.312-9.532-21.312-21.312v-21.344c0-11.782 9.546-21.344 21.312-21.344 11.782 0 21.342 9.562 21.342 21.344v21.344c0 11.782-9.56 21.312-21.342 21.312z" fill="#FFCE54" /><path d="M426.67 895.992c-11.782 0-21.328-9.562-21.328-21.344V639.996c0-11.782 9.546-21.344 21.328-21.344s21.344 9.562 21.344 21.344v234.652c0 11.782-9.562 21.344-21.344 21.344zM597.336 895.992c-11.782 0-21.344-9.562-21.344-21.344V639.996c0-11.782 9.562-21.312 21.344-21.312s21.312 9.532 21.312 21.312v234.652c0 11.782-9.53 21.344-21.312 21.344zM959.984 405.332c-5.218 0-10.438-1.89-14.562-5.734L689.428 160.666c-8.592-8.032-9.06-21.53-1.03-30.14 8.03-8.624 21.53-9.078 30.154-1.046l255.994 238.932c8.594 8.032 9.062 21.53 1.032 30.14a21.234 21.234 0 0 1-15.594 6.78z" fill="#434A54" /><path d="M21.352 405.346c-8.812 0-17.062-5.516-20.124-14.296-3.906-11.124 1.954-23.296 13.078-27.186L867.612 65.214a21.334 21.334 0 0 1 27.186 13.078c3.876 11.124-1.968 23.296-13.092 27.186L28.398 404.144a21.352 21.352 0 0 1-7.046 1.202zM128.022 618.684h-64c-11.78 0-21.328 9.532-21.328 21.312v298.648c0 11.782 9.546 21.344 21.328 21.344h64c11.78 0 21.328-9.562 21.328-21.344V639.996c-0.002-11.782-9.548-21.312-21.328-21.312zM959.984 618.684h-64c-11.78 0-21.342 9.532-21.342 21.312v298.648c0 11.782 9.562 21.344 21.342 21.344h64c11.782 0 21.344-9.562 21.344-21.344V639.996c0-11.782-9.562-21.312-21.344-21.312z" fill="#7F4545" /><path d="M42.696 917.304v21.34c0 11.782 9.546 21.344 21.328 21.344h64c11.78 0 21.328-9.562 21.328-21.344v-21.34H42.696zM874.642 917.304v21.34c0 11.782 9.562 21.344 21.342 21.344h64c11.782 0 21.344-9.562 21.344-21.344v-21.34h-106.686z" fill="#434A54" /><path d="M1002.64 362.662H21.352c-11.78 0-21.328 9.562-21.328 21.342v255.992c0 11.782 9.546 21.312 21.328 21.312H1002.64c11.78 0 21.342-9.532 21.342-21.312V384.004c0-11.78-9.562-21.342-21.342-21.342z" fill="#965353" /><path d="M85.35 512H938.64v64H85.35z" fill="#E6E9ED" /><path d="M938.64 512h85.342v64H938.64zM0.024 512h85.326v64H0.024z" fill="#A85D5D" /><path d="M512.012 341.334h85.324v127.998h-85.324z" fill="#E6E9ED" /><path d="M426.67 341.334h85.342v127.998h-85.342z" fill="#E6E9ED" /><path d="M853.33 554.656c11.782 0 21.312-9.532 21.312-21.328V512h-42.654v21.328c0 11.796 9.562 21.328 21.342 21.328zM767.988 554.656c11.782 0 21.344-9.532 21.344-21.328V512h-42.688v21.328c0 11.796 9.564 21.328 21.344 21.328zM682.648 554.656c11.78 0 21.342-9.532 21.342-21.328V512h-42.654v21.328c0 11.796 9.532 21.328 21.312 21.328zM597.336 554.656c11.782 0 21.312-9.532 21.312-21.328V512h-42.656v21.328c0 11.796 9.562 21.328 21.344 21.328zM512.012 554.656c11.78 0 21.326-9.532 21.326-21.328V512h-42.668v21.328c-0.002 11.796 9.56 21.328 21.342 21.328zM426.67 554.656c11.782 0 21.344-9.532 21.344-21.328V512h-42.67v21.328a21.312 21.312 0 0 0 21.326 21.328zM341.344 554.656a21.316 21.316 0 0 0 21.328-21.328V512h-42.656v21.328a21.316 21.316 0 0 0 21.328 21.328zM256.018 554.656a21.316 21.316 0 0 0 21.328-21.328V512h-42.67v21.328c-0.002 11.796 9.562 21.328 21.342 21.328zM170.692 554.656c11.764 0 21.328-9.532 21.328-21.328V512H149.348v21.328c0 11.796 9.548 21.328 21.344 21.328zM597.336 959.988h-170.666c-11.782 0-21.328-9.562-21.328-21.344v-63.996c0-11.782 9.546-21.344 21.328-21.344h170.666c11.782 0 21.312 9.562 21.312 21.344v63.996c0 11.782-9.53 21.344-21.312 21.344z m-149.322-42.684h127.978v-21.312h-127.978v21.312z" fill="#434A54" /><path d="M490.668 341.334h42.668v127.998h-42.668z" fill="#CCD1D9" /></svg>