<?xml version="1.0" standalone="no"?><!DOCTYPE svg PUBLIC "-//W3C//DTD SVG 1.1//EN" "http://www.w3.org/Graphics/SVG/1.1/DTD/svg11.dtd"><svg class="icon" width="128px" height="128.00px" viewBox="0 0 1024 1024" version="1.1" xmlns="http://www.w3.org/2000/svg"><path d="M85.338 917.31c-11.782 0-21.328-9.532-21.328-21.312v-21.31c0-11.812 9.546-21.376 21.328-21.376s21.342 9.562 21.342 21.376v21.31c0.002 11.782-9.56 21.312-21.342 21.312zM938.676 917.31c-11.812 0-21.376-9.532-21.376-21.312v-21.31a21.366 21.366 0 0 1 21.376-21.376c11.75 0 21.312 9.562 21.312 21.376v21.31c0 11.782-9.562 21.312-21.312 21.312z" fill="#434A54" /><path d="M981.3 42.692H42.684c-11.782 0-21.344 9.546-21.344 21.328v810.668c0 11.748 9.562 21.31 21.344 21.31H981.3c11.812 0 21.376-9.562 21.376-21.31V64.018c0-11.78-9.562-21.326-21.376-21.326z" fill="#7F4545" /><path d="M21.34 320.012h981.336v127.998H21.34z" fill="#965353" /><path d="M512 192.016m-21.328 0a21.328 21.328 0 1 0 42.656 0 21.328 21.328 0 1 0-42.656 0Z" fill="#FFCE54" /><path d="M432.002 816h167.12v49.312h-167.12z" fill="#F6BB42" /><path d="M1002.676 490.68H21.34c-11.78 0-21.328 9.546-21.328 21.328v63.998c0 11.782 9.546 21.312 21.328 21.312h981.336c11.75 0 21.312-9.532 21.312-21.312v-63.998c0-11.782-9.562-21.328-21.312-21.328z" fill="#965353" /><path d="M106.682 448.01h810.62v63.998H106.682z" fill="#E6E9ED" /><path d="M1002.676 85.346H21.34C9.56 85.346 0.012 75.8 0.012 64.018c0-11.78 9.546-21.328 21.328-21.328h981.336c11.75 0 21.312 9.546 21.312 21.328s-9.562 21.328-21.312 21.328z" fill="#434A54" /><path d="M234.678 320.012l42.656 63.998H746.68l42.624-63.998z" fill="#A85D5D" /><path d="M512 895.998h-85.326c-11.782 0-21.342-9.562-21.342-21.31v-64c0-11.812 9.562-21.376 21.342-21.376H512c11.782 0 21.328 9.562 21.328 21.376v64c0 11.748-9.546 21.31-21.328 21.31z m-63.998-42.686h42.67V832h-42.67v21.312z" fill="#FFCE54" /><path d="M597.308 895.998H512c-11.782 0-21.328-9.562-21.328-21.31v-64c0-11.812 9.546-21.376 21.328-21.376h85.308a21.366 21.366 0 0 1 21.376 21.376v64c0 11.748-9.562 21.31-21.376 21.31z m-63.98-42.686h42.668V832h-42.668v21.312z" fill="#FFCE54" /><path d="M853.304 490.68c11.812 0 21.376-9.562 21.376-21.342v-21.328h-42.688v21.328c0 11.78 9.562 21.342 21.312 21.342zM767.992 490.68c11.782 0 21.312-9.562 21.312-21.342v-21.328H746.68v21.328c0 11.78 9.53 21.342 21.312 21.342zM682.684 490.68c11.75 0 21.312-9.562 21.312-21.342v-21.328h-42.688v21.328c0 11.78 9.564 21.342 21.376 21.342zM597.308 490.68c11.812 0 21.376-9.562 21.376-21.342v-21.328h-42.688v21.328c0 11.78 9.562 21.342 21.312 21.342zM512 490.68c11.782 0 21.328-9.562 21.328-21.342v-21.328h-42.656v21.328c0 11.78 9.546 21.342 21.328 21.342zM426.674 490.68c11.782 0 21.328-9.562 21.328-21.342v-21.328h-42.67v21.328c0 11.78 9.56 21.342 21.342 21.342zM341.332 490.68c11.782 0 21.344-9.562 21.344-21.342v-21.328h-42.67v21.328c-0.002 11.78 9.546 21.342 21.326 21.342zM256.006 490.68c11.78 0 21.328-9.562 21.328-21.342v-21.328h-42.656v21.328c0 11.78 9.548 21.342 21.328 21.342zM320.004 981.308c-11.782 0-21.328-9.532-21.328-21.312V752.002c0-11.782 9.546-21.312 21.328-21.312s21.328 9.532 21.328 21.312v207.994c0 11.782-9.546 21.312-21.328 21.312zM703.996 981.308a21.3 21.3 0 0 1-21.312-21.312V746.69c0-11.812 9.532-21.376 21.312-21.376s21.312 9.562 21.312 21.376v213.306a21.298 21.298 0 0 1-21.312 21.312zM170.68 490.68c11.78 0 21.328-9.562 21.328-21.342v-21.328H149.336v21.328c0 11.78 9.564 21.342 21.344 21.342z" fill="#434A54" /><path d="M746.68 640.004H277.334c-11.782 0-21.328 9.562-21.328 21.312v85.374c0 11.75 9.546 21.31 21.328 21.31H746.68c11.75 0 21.312-9.56 21.312-21.31v-85.374c0-11.75-9.562-21.312-21.312-21.312z" fill="#ED5564" /><path d="M426.752 192.016c0-11.782-9.546-21.328-21.328-21.328a21.22 21.22 0 0 0-16.218 7.5l-0.062-0.062s0.11-0.156 0.376-0.422c-1.172 1.218-29.468 29.376-103.154-5.016-42.53-19.842-80.436-25.67-112.668-17.328C147.946 162.048 135.4 175.5 133.15 178.124v0.016a21.316 21.316 0 0 0-5.14 13.876c0 11.782 9.546 21.328 21.328 21.328a21.24 21.24 0 0 0 16.188-7.454l0.016 0.016s-0.124 0.156-0.376 0.422c1.156-1.218 29.468-29.376 103.154 5.016 29.984 14 57.656 21.014 82.67 21.014 10.468 0 20.484-1.234 29.984-3.688 22.234-5.766 34.624-16.578 39.046-21.124a21.256 21.256 0 0 0 6.732-15.53zM890.864 178.14v-0.016c-2.25-2.624-14.808-16.078-40.558-22.764-32.25-8.344-70.124-2.516-112.688 17.328-73.684 34.39-101.964 6.234-103.122 5.016 0.25 0.266 0.376 0.422 0.376 0.422v0.016c-3.938-4.562-9.75-7.454-16.188-7.454-11.812 0-21.376 9.546-21.376 21.328 0 5.296 1.968 10.14 5.188 13.876l-0.032 0.016c2.25 2.624 14.812 16.078 40.562 22.764 9.5 2.454 19.532 3.688 29.968 3.688 25.032 0 52.688-7.016 82.684-21.014 73.688-34.39 102-6.234 103.156-5.016a8.404 8.404 0 0 1-0.376-0.422l0.032-0.016a21.174 21.174 0 0 0 16.188 7.454c11.746 0 21.308-9.546 21.308-21.328a21.306 21.306 0 0 0-5.122-13.878z" fill="#FFCE54" /><path d="M106.682 512.008v-85.326c0-11.782-9.562-21.344-21.342-21.344h-64c-11.78 0-21.328 9.562-21.328 21.344v85.326h106.67zM1023.988 512.008v-85.326c0-11.782-9.562-21.344-21.312-21.344h-64c-11.812 0-21.376 9.562-21.376 21.344v85.326h106.688z" fill="#A85D5D" /></svg>