<?xml version="1.0" standalone="no"?><!DOCTYPE svg PUBLIC "-//W3C//DTD SVG 1.1//EN" "http://www.w3.org/Graphics/SVG/1.1/DTD/svg11.dtd"><svg class="icon" width="128px" height="128.00px" viewBox="0 0 1024 1024" version="1.1" xmlns="http://www.w3.org/2000/svg"><path d="M816.84 470.438c-46.124-15.436-79.156-48.42-98.186-98.058-14.812-38.704-15.218-73.466-15.218-73.702 0-79.78-31.092-154.78-87.498-211.184C559.534 31.074 484.536 0.012 404.756 0.012S249.978 31.074 193.574 87.494c-56.404 56.404-87.482 131.404-87.482 211.184v725.31h810.652V703.996c0-17.594 0.344-34.124 0.656-48.688 1.998-93.654 3.186-150.184-100.56-184.87z" fill="#656D78" /><path d="M816.84 470.438c-46.124-15.436-79.156-48.42-98.186-98.058-14.812-38.704-15.218-73.466-15.218-73.702 0-79.78-31.092-154.78-87.498-211.184C559.534 31.074 484.536 0.012 404.756 0.012c-7.156 0-14.266 0.266-21.328 0.75 71.732 5.032 138.498 35.376 189.854 86.732 56.406 56.404 87.468 131.404 87.468 211.184 0 0.234 0.438 34.998 15.25 73.702 18.998 49.638 52.03 82.624 98.184 98.058 103.748 34.688 102.56 91.216 100.56 184.872-0.312 14.562-0.656 31.094-0.656 48.688v319.992h42.654V703.996c0-17.594 0.344-34.124 0.656-48.688 2-93.654 3.188-150.184-100.558-184.87z" fill="#FFFFFF" opacity=".1" /><path d="M106.09 874.68h810.652v149.308H106.09z" fill="#434A54" /><path d="M170.09 874.68h682.654v149.308H170.09z" fill="#E6E9ED" /><path d="M767.434 959.988c11.782 0 21.312-9.562 21.312-21.312V874.68h-42.656v63.996c0 11.75 9.562 21.312 21.344 21.312zM682.094 959.988c11.78 0 21.342-9.562 21.342-21.312V874.68h-42.686v63.996c0 11.75 9.562 21.312 21.344 21.312zM596.75 959.988c11.782 0 21.344-9.562 21.344-21.312V874.68h-42.656v63.996c0 11.75 9.53 21.312 21.312 21.312zM511.424 959.988c11.782 0 21.328-9.562 21.328-21.312V874.68h-42.67v63.996c0 11.75 9.562 21.312 21.342 21.312zM426.084 959.988c11.782 0 21.344-9.562 21.344-21.312V874.68h-42.67v63.996c-0.002 11.75 9.544 21.312 21.326 21.312zM340.756 959.988c11.782 0 21.328-9.562 21.328-21.312V874.68h-42.656v63.996c0.002 11.75 9.548 21.312 21.328 21.312zM255.432 959.988c11.78 0 21.328-9.562 21.328-21.312V874.68h-42.67v63.996c-0.002 11.75 9.56 21.312 21.342 21.312z" fill="#434A54" /></svg>