<?xml version="1.0" standalone="no"?><!DOCTYPE svg PUBLIC "-//W3C//DTD SVG 1.1//EN" "http://www.w3.org/Graphics/SVG/1.1/DTD/svg11.dtd"><svg class="icon" width="128px" height="128.00px" viewBox="0 0 1024 1024" version="1.1" xmlns="http://www.w3.org/2000/svg"><path d="M1007.834 448.626l-164.936-41.216-123.84-123.81c-4-4-9.406-6.25-15.062-6.25H426.674a21.324 21.324 0 0 0-20.516 15.468c-0.594 2.062-13.266 47.06-20.234 112.53H21.338c-11.782 0-21.328 9.53-21.328 21.312v213.338c0 11.782 9.546 21.344 21.328 21.344h981.34c11.75 0 21.312-9.562 21.312-21.344v-170.652c0-9.814-6.656-18.346-16.156-20.72z" fill="#48CFAD" /><path d="M703.996 277.348H426.674a21.324 21.324 0 0 0-20.516 15.468c-0.594 2.062-13.266 47.06-20.234 112.53h454.912l-121.778-121.748c-4-4-9.406-6.25-15.062-6.25z" fill="#5D9CEC" /><path d="M1007.834 448.626l-164.936-41.216-123.84-123.81c-4-4-9.406-6.25-15.062-6.25H426.674a21.324 21.324 0 0 0-20.516 15.468c-0.594 2.062-13.266 47.06-20.234 112.53H21.338c-11.782 0-21.328 9.53-21.328 21.312v213.338c0 11.782 9.546 21.344 21.328 21.344h981.34c11.75 0 21.312-9.562 21.312-21.344v-170.652c0-9.814-6.656-18.346-16.156-20.72z m-26.53 170.026H42.68V448h362.65a21.34 21.34 0 0 0 21.266-19.592c3.984-48.406 11.952-87.842 16.718-108.404h251.838l121.78 121.748a21.012 21.012 0 0 0 9.876 5.624L981.304 486v132.652z" fill="#48CFAD" /><path d="M1007.834 448.626l-69.154-17.28v38a21.3 21.3 0 0 0 21.312 21.312h63.998v-21.312c0-9.814-6.656-18.346-16.156-20.72zM639.996 512h-42.686C585.56 512 576 502.438 576 490.658s9.56-21.312 21.31-21.312h42.686c11.782 0 21.312 9.532 21.312 21.312S651.778 512 639.996 512z" fill="#E6E9ED" /><path d="M0.01 490.658h21.328a21.34 21.34 0 0 0 19-11.594l37.734-73.716H21.338c-11.782 0-21.328 9.53-21.328 21.312v63.998z" fill="#ED5564" /><path d="M512 320.004h42.688v85.342H512z" fill="#4A89DC" /><path d="M234.676 533.344c-58.826 0-106.67 47.844-106.67 106.652 0 58.812 47.844 106.656 106.67 106.656 58.812 0 106.654-47.844 106.654-106.656 0.002-58.808-47.842-106.652-106.654-106.652zM831.994 533.344c-58.81 0-106.686 47.844-106.686 106.652 0 58.812 47.876 106.656 106.686 106.656s106.686-47.844 106.686-106.656c0-58.808-47.876-106.652-106.686-106.652z" fill="#434A54" /><path d="M249.754 624.902c8.328 8.344 8.328 21.844 0 30.188-8.328 8.312-21.844 8.312-30.17 0-8.328-8.344-8.328-21.844 0-30.188 8.328-8.312 21.842-8.312 30.17 0zM847.086 624.902a21.332 21.332 0 0 1 0 30.188c-8.344 8.312-21.842 8.312-30.154 0a21.274 21.274 0 0 1 0-30.188c8.312-8.312 21.81-8.312 30.154 0z" fill="#F5F7FA" /></svg>