<?xml version="1.0" standalone="no"?><!DOCTYPE svg PUBLIC "-//W3C//DTD SVG 1.1//EN" "http://www.w3.org/Graphics/SVG/1.1/DTD/svg11.dtd"><svg class="icon" width="128px" height="128.00px" viewBox="0 0 1024 1024" version="1.1" xmlns="http://www.w3.org/2000/svg"><path d="M170.686 0.008h170.654v1023.984H170.686zM426.68 0.008h170.638v1023.984H426.68zM682.692 0.008h170.624v1023.984h-170.624z" fill="#F6BB42" /><path d="M42.688 0.008h170.654v1023.984H42.688zM298.682 0.008h170.654v1023.984h-170.654zM554.696 0.008h170.622v1023.984h-170.622zM810.69 0.008h170.624v1023.984h-170.624z" fill="#FFCE54" /><path d="M312.152 275.596h394.666v467.68H312.152z" fill="#F5F7FA" /><path d="M256.028 213.348v597.334h511.976V213.348H256.028z m63.998 533.336V277.346h383.978v469.336H320.026z" fill="#434A54" /><path d="M603.944 373.502s-117.982-13.718-183.576 85.124c-54.124 81.624 31.094 144.75 31.094 144.75s91.312 53.964 145.482-27.624c65.56-98.846 7-202.218 7-202.25z" fill="#A0D468" /><path d="M429.118 663.778a21.24 21.24 0 0 1-11.782-3.562c-9.812-6.532-12.5-19.75-6-29.594l83.03-125.122c6.5-9.812 19.75-12.5 29.562-5.968 9.812 6.5 12.5 19.75 6 29.564l-83.03 125.122a21.304 21.304 0 0 1-17.78 9.56z" fill="#8CC153" /></svg>