<?xml version="1.0" standalone="no"?><!DOCTYPE svg PUBLIC "-//W3C//DTD SVG 1.1//EN" "http://www.w3.org/Graphics/SVG/1.1/DTD/svg11.dtd"><svg class="icon" width="128px" height="128.00px" viewBox="0 0 1024 1024" version="1.1" xmlns="http://www.w3.org/2000/svg"><path d="M989.65 276.628C943.872 166.1 857.81 80.04 747.28 34.258 692.5 11.572 634.876 0.072 576.064 0.072c-87.53 0-172.622 25.438-246.056 73.592-75.25 49.344-133.28 119.53-167.872 202.964-23.124 55.844-34.624 114.56-34.186 174.528 0.436 57.906 11.936 114.498 34.186 168.216l8.25 19.906 19.812-8.406c12.5-5.344 25.718-10.938 39.438-16.75-24.158-50.28-37.688-106.622-37.688-166.122 0-212.058 171.904-383.962 383.96-383.962 212.058 0 383.96 171.904 383.96 383.962s-171.902 383.962-383.96 383.962c-59.53 0-115.872-13.532-166.152-37.718a19258.144 19258.144 0 0 1-16.718 39.498l-8.376 19.782 19.844 8.218c54.812 22.688 112.404 34.218 171.214 34.218h0.032c87.5 0 172.59-25.468 246.028-73.592 75.248-49.342 133.308-119.53 167.872-202.996 45.78-110.496 45.78-232.214-0.002-342.744z" fill="#F4BE8E" /><path d="M575.908 810.62c-48.124 0-94.56-9.188-138.372-27.312 43.282-102.466 95.624-227.244 121.372-290.65a21.36 21.36 0 0 0-4.688-23.124 21.372 21.372 0 0 0-15.094-6.25c-2.686 0-5.404 0.532-7.998 1.562-64.124 25.968-188.622 78.282-290.558 121.466-18.124-43.78-27.312-90.216-27.312-138.31 0-96.842 37.718-187.904 106.216-256.402 68.498-68.498 159.56-106.216 256.432-106.216 96.844 0 187.902 37.718 256.402 106.216 68.498 68.498 106.216 159.56 106.216 256.402 0 96.874-37.718 187.934-106.216 256.432-68.498 68.5-159.556 106.186-256.4 106.186z" fill="#EC5564" /><path d="M575.908 64.04c-212.058 0-383.96 171.904-383.96 383.962 0 59.5 13.532 115.84 37.688 166.122 106.184-45.062 241.964-102.154 309.492-129.498-27.154 66.938-83.404 200.872-129.372 309.62 50.28 24.188 106.624 37.718 166.152 37.718 212.058 0 383.96-171.904 383.96-383.962 0.002-212.06-171.902-383.962-383.96-383.962z m241.34 625.3c-31.376 31.344-67.876 55.968-108.498 73.156-42.06 17.782-86.748 26.81-132.842 26.81-38 0-74.874-6.062-110.09-18.124 41.436-98.188 88.748-211.152 112.84-270.528a42.576 42.576 0 0 0-9.344-46.186 42.66 42.66 0 0 0-30.188-12.5c-5.374 0-10.81 1-15.998 3.094-60 24.312-172.684 71.624-270.432 112.936-12.032-35.188-18.094-72.032-18.094-110 0-46.092 9.032-90.78 26.812-132.81 17.188-40.656 41.78-77.156 73.154-108.53 31.344-31.344 67.874-55.968 108.498-73.156 42.062-17.78 86.75-26.78 132.84-26.78 46.094 0 90.782 9 132.842 26.78 40.624 17.188 77.124 41.812 108.498 73.186 31.344 31.342 55.968 67.842 73.156 108.498 17.78 42.03 26.78 86.716 26.78 132.81s-9 90.812-26.78 132.84c-17.186 40.63-41.81 77.16-73.154 108.504z" fill="#D94452" /><path d="M597.19 0.572c-7-0.344-14.062-0.5-21.124-0.5-7.188 0-14.344 0.188-21.468 0.532a21.294 21.294 0 0 0 21.312 20.782c11.592-0.002 21.03-9.282 21.28-20.814zM575.908 874.618c-11.624 0-21.032 9.282-21.312 20.812 7.032 0.344 14.062 0.532 21.124 0.532h0.032c7.156 0 14.312-0.188 21.438-0.532-0.282-11.532-9.688-20.812-21.282-20.812zM480.662 10.292a426.7 426.7 0 0 0-20.532 5 423.64 423.64 0 0 0-20.624 6.062c3.282 11.062 14.782 17.562 25.968 14.562 11.218-3 17.938-14.406 15.188-25.624zM686.314 860.086c-11.218 3-17.906 14.406-15.188 25.624a435.66 435.66 0 0 0 20.56-4.968 505.08 505.08 0 0 0 20.594-6.062c-3.248-11.062-14.748-17.594-25.966-14.594zM370.632 49.852a484.024 484.024 0 0 0-18.562 10.124 458.86 458.86 0 0 0-18.344 11.218c6.032 9.844 18.812 13.156 28.876 7.344 10.03-5.78 13.562-18.53 8.03-28.686zM789.216 817.462c-10.062 5.812-13.594 18.56-8.032 28.686a426.472 426.472 0 0 0 18.532-10.124h0.032a493.028 493.028 0 0 0 18.312-11.186c-6-9.844-18.812-13.156-28.844-7.376zM274.572 116.57a479.07 479.07 0 0 0-15.312 14.562 497.46 497.46 0 0 0-14.812 15.562c8.376 7.968 21.594 7.842 29.782-0.344 8.216-8.218 8.31-21.436 0.342-29.78zM877.56 749.684c-8.188 8.188-8.312 21.438-0.344 29.782a420.748 420.748 0 0 0 15.312-14.594 410.11 410.11 0 0 0 14.81-15.562c-8.342-7.938-21.558-7.846-29.778 0.374zM199.042 205.85a477.744 477.744 0 0 0-11 18.032 458.276 458.276 0 0 0-10.28 18.874c10.124 5.532 22.874 2 28.686-8.062 5.78-10.032 2.468-22.844-7.406-28.844zM945.372 661.308c-5.812 10.062-2.5 22.876 7.374 28.876a440.63 440.63 0 0 0 21.282-36.938c-10.128-5.5-22.878-2-28.656 8.062zM149.23 311.628a407.62 407.62 0 0 0-5.968 20.282 447.372 447.372 0 0 0-5.062 20.874c11.218 2.718 22.624-3.968 25.624-15.188 3-11.218-3.532-22.718-14.594-25.968zM987.994 558.438c-3 11.186 3.5 22.686 14.594 25.936a489.33 489.33 0 0 0 5.968-20.25c1.844-6.936 3.5-13.904 5.032-20.874-11.218-2.718-22.594 3.968-25.594 15.188zM128.448 426.72c-0.312 7-0.5 14.062-0.5 21.124 0 7.188 0.186 14.342 0.53 21.468 11.532-0.282 20.812-9.686 20.812-21.312 0.002-11.592-9.28-21.03-20.842-21.28zM1002.526 448c0 11.624 9.282 21.03 20.812 21.312 0.344-7.032 0.532-14.062 0.532-21.124 0-7.188-0.218-14.342-0.532-21.468-11.562 0.282-20.812 9.688-20.812 21.28zM138.198 543.25c1.5 6.876 3.156 13.688 4.968 20.53a505.08 505.08 0 0 0 6.062 20.594c11.062-3.25 17.594-14.75 14.594-25.936-2.998-11.22-14.406-17.906-25.624-15.188zM987.994 337.596c3 11.218 14.406 17.906 25.624 15.188a426.046 426.046 0 0 0-5-20.53v-0.032a433.256 433.256 0 0 0-6.062-20.594c-11.062 3.25-17.562 14.75-14.562 25.968zM945.372 234.692c5.81 10.062 18.56 13.594 28.686 8.062a447.174 447.174 0 0 0-10.124-18.562 496.024 496.024 0 0 0-11.188-18.344c-9.874 6.032-13.188 18.814-7.374 28.844zM877.56 146.35c8.218 8.218 21.436 8.312 29.81 0.344a452.064 452.064 0 0 0-14.592-15.312 497.46 497.46 0 0 0-15.562-14.812 21.33 21.33 0 0 0 0.344 29.78zM789.216 78.54a21.27 21.27 0 0 0 28.844-7.376 453.476 453.476 0 0 0-18.032-11 458.35 458.35 0 0 0-18.876-10.28c-5.498 10.124-1.998 22.874 8.064 28.656zM439.504 874.68a431.29 431.29 0 0 0 41.188 11c2.688-11.188-4-22.594-15.218-25.594-11.188-3-22.72 3.532-25.97 14.594zM686.314 35.916c11.216 3.032 22.716-3.5 25.966-14.592a436.2 436.2 0 0 0-20.282-5.938v-0.032a493.768 493.768 0 0 0-20.874-5.032c-2.716 11.22 4.002 22.594 15.19 25.594z" fill="#D89766" /><path d="M853.216 341.346h91.624a383.22 383.22 0 0 0-15.094-42.656h-76.53V213.38h26.594a385.652 385.652 0 0 0-69.282-69.28v26.592h-85.31V94.164a380.908 380.908 0 0 0-42.654-15.094v91.654l-85.344-0.032V64.664c-7.062-0.406-14.156-0.624-21.312-0.624s-14.282 0.218-21.344 0.624v106.03h-85.31V79.07a383.42 383.42 0 0 0-42.686 15.094v76.53h-85.312V144.1a386.682 386.682 0 0 0-69.28 69.28H298.6v85.31h-76.53a374.9 374.9 0 0 0-15.094 42.656H298.6v85.342H192.54c-0.376 7.062-0.594 14.156-0.594 21.312s0.188 14.28 0.594 21.342h106.06v115.592c14.124-6 28.406-12 42.656-18v-97.592h85.312v61.812c14.842-6.218 29.156-12.156 42.686-17.782V469.34h85.31v85.312h-44.248a15989.566 15989.566 0 0 1-17.782 42.654h62.03v85.342h-97.748c-6 14.218-12 28.468-17.968 42.656h115.716v106.06c7.062 0.376 14.188 0.594 21.344 0.594s14.25-0.218 21.312-0.594v-106.06h85.344v91.624a375.006 375.006 0 0 0 42.654-15.094v-76.53h85.31v26.624a387.752 387.752 0 0 0 69.282-69.282h-26.594v-85.342h76.53a380.908 380.908 0 0 0 15.094-42.654h-91.624v-85.312h106.028c0.406-7.062 0.624-14.186 0.624-21.342s-0.218-14.25-0.624-21.312h-106.028v-85.338z m-426.648 85.344h-85.312v-85.342h85.312v85.342z m0-127.998h-85.312V213.38h85.312v85.312z m127.996 127.998h-85.31v-85.342h85.31v85.342z m0-127.998h-85.31V213.38h85.31v85.312z m128 383.96H597.22v-85.342h85.344v85.342z m0-127.996H597.22v-85.312h85.344v85.312z m0-127.966H597.22v-85.342h85.344v85.342z m0-127.998H597.22V213.38h85.344v85.312z m127.966 383.96H725.22v-85.342h85.31v85.342z m0-127.996H725.22v-85.312h85.31v85.312z m0-127.966H725.22v-85.342h85.31v85.342z m0-127.998H725.22V213.38h85.31v85.312z" fill="#D94452" /><path d="M270.258 1023.928l-19.718-8.188C140.01 969.96 53.95 883.868 8.17 773.372l-8.156-19.718 461.304-191.09-191.06 461.364z" fill="#EC5564" /><path d="M302.758 945.368l57.562-138.904h-14.876v-85.342h50.218l17.656-42.624h-67.874V610.56l-42.686 17.688v50.248h-85.31v-14.906l-138.936 57.532h96.28v85.342H23.482a443.984 443.984 0 0 0 24.842 42.654h126.466v126.468c13.656 9.032 27.906 17.28 42.656 24.842v-151.31h85.31v96.25z m-85.31-138.906V721.12h85.31v85.342h-85.31z" fill="#D94452" /><path d="M294.882 964.43l16.344-39.5a365.962 365.962 0 0 1-22.156-8.438c-40.624-17.188-77.124-41.812-108.498-73.188-31.342-31.342-55.966-67.84-73.154-108.496a328.39 328.39 0 0 1-8.438-22.124l-39.468 16.312c38.5 109.872 125.53 196.902 235.37 235.434z" fill="#D94452" /><path d="M250.666 1015.802a474.15 474.15 0 0 0 19.782 7.624l24.436-58.998c-109.842-38.532-196.872-125.562-235.37-235.434L0.482 753.464a481.53 481.53 0 0 0 7.688 19.906c20.03 48.342 47.78 91.996 81.904 129.684 43.874 48.438 98.31 86.936 160.466 112.686l0.126 0.062z" fill="#F4BE8E" /><path d="M52.356 815.4c-5.782-10.062-18.532-13.594-28.686-8.032a484.024 484.024 0 0 0 10.124 18.562h0.032a420.64 420.64 0 0 0 11.188 18.31c9.842-5.998 13.154-18.808 7.342-28.84zM120.168 903.742c-8.218-8.188-21.438-8.312-29.782-0.312a419 419 0 0 0 14.562 15.282 432.634 432.634 0 0 0 15.562 14.812c7.97-8.344 7.844-21.564-0.342-29.782zM208.51 971.554c-10.032-5.812-22.844-2.5-28.844 7.376a420.604 420.604 0 0 0 18.032 10.998c6.218 3.624 12.532 7 18.876 10.312a21.32 21.32 0 0 0-8.064-28.686z" fill="#D89766" /></svg>