<?xml version="1.0" standalone="no"?><!DOCTYPE svg PUBLIC "-//W3C//DTD SVG 1.1//EN" "http://www.w3.org/Graphics/SVG/1.1/DTD/svg11.dtd"><svg class="icon" width="128px" height="128.00px" viewBox="0 0 1024 1024" version="1.1" xmlns="http://www.w3.org/2000/svg"><path d="M853.3 970.666H170.682L43.952 714.674h937.752z" fill="#FFCE54" /><path d="M149.558 927.98l21.124 42.686H853.3l21.438-42.686z" fill="#F6BB42" /><path d="M1023.984 671.988c0-23.468-18.218-48.748-40.5-56.154l-46.996-15.656c-22.282-7.438-50.376-29.968-62.438-50.092 0 0-106.058-176.762-362.05-176.762S149.964 550.086 149.964 550.086c-12.078 20.124-40.17 42.654-62.436 50.092l-47.03 15.656C18.234 623.24 0.016 648.52 0.016 671.988v85.308c0 23.5 18.218 36.624 40.484 29.188l47.03-15.688c22.266-7.406 58.702-7.406 80.952 0l47.044 15.688c22.266 7.438 58.702 7.438 80.966 0l47.03-15.688c22.266-7.406 58.702-7.406 80.952 0l47.044 15.688c22.266 7.438 58.702 7.438 80.952 0l47.058-15.688c22.25-7.406 58.688-7.406 80.938 0l47.058 15.688c22.25 7.438 58.688 7.438 80.938 0l47.058-15.688c22.25-7.406 58.688-7.406 80.938 0l47.058 15.688c22.25 7.438 40.468-5.688 40.468-29.188v-85.308z" fill="#FC6E51" /><path d="M512 479.994c-11.782 0-21.328 9.544-21.328 21.326v108.702c0 11.782 9.546 21.344 21.328 21.344s21.328-9.562 21.328-21.344V501.32c0-11.78-9.546-21.326-21.328-21.326zM416.16 482.948c-10.156-5.984-23.234-2.594-29.202 7.56l-63.998 108.67a21.372 21.372 0 0 0 7.562 29.25c3.39 2 7.124 2.938 10.796 2.938 7.312 0 14.422-3.75 18.406-10.5l63.998-108.716c5.968-10.158 2.594-23.236-7.562-29.202zM701.056 599.178l-63.998-108.67c-6-10.154-19.062-13.544-29.218-7.56-10.156 5.966-13.532 19.044-7.562 29.202l64 108.716c3.968 6.75 11.094 10.5 18.406 10.5 3.688 0 7.404-0.938 10.81-2.938 10.126-6 13.532-19.062 7.562-29.25z" fill="#E9573F" /><path d="M699.276 274.61c-0.032-0.062-4.656-6.172-6.906-13.922-2.594-9.094-1-15.718 5.406-22.124 17.312-17.388 23.03-39.982 16.156-63.608-4.656-15.842-13.594-27.03-14.812-28.498v-0.046l-0.032-0.016a21.3 21.3 0 0 0-16.404-7.718c-11.812 0-21.376 9.546-21.376 21.328 0 5.172 1.876 9.92 4.938 13.608 0.032 0.062 4.532 5.876 6.718 13.328 2.532 8.718 0.906 15.14-5.406 21.516-17.312 17.36-23.062 40.092-16.188 63.998 4.656 16.204 13.688 27.686 14.688 28.936v-0.016a21.222 21.222 0 0 0 16.624 7.954c11.748 0 21.31-9.546 21.31-21.326a21.2 21.2 0 0 0-4.75-13.39h0.034zM548.968 104.02c-6.344-23.888-18.61-40.452-19.984-42.264l-0.032 0.016a21.24 21.24 0 0 0-16.954-8.438c-11.782 0-21.328 9.562-21.328 21.344 0 4.844 1.64 9.312 4.36 12.89l-0.016 0.016c0.094 0.11 8.546 11.688 12.718 27.404 5.36 20.156 1.532 37.234-11.718 52.218-22.78 25.764-30.046 57.388-20.984 91.45 6.344 23.876 18.61 40.452 19.984 42.264l0.016-0.016c3.906 5.11 10.046 8.422 16.968 8.422 11.782 0 21.328-9.546 21.328-21.326a21.22 21.22 0 0 0-4.296-12.812l0.016-0.016c-0.094-0.124-8.984-12.204-13.078-28.624-4.906-19.686-0.984-36.388 12.016-51.076 22.766-25.782 30.048-57.406 20.984-91.452zM372.582 174.956c-4.64-15.874-13.592-27.076-14.764-28.514-0.016 0-0.016-0.016-0.032-0.016 0-0.016-0.016-0.032-0.016-0.032h-0.016a21.26 21.26 0 0 0-16.422-7.718c-11.78 0-21.328 9.546-21.328 21.328 0 5.172 1.844 9.92 4.906 13.608 0.046 0.062 4.546 5.876 6.718 13.328 2.562 8.718 0.938 15.14-5.406 21.516-17.282 17.36-23.03 40.092-16.172 63.998 4.656 16.204 13.672 27.686 14.672 28.936l0.016-0.016a21.228 21.228 0 0 0 16.592 7.954c11.782 0 21.344-9.546 21.344-21.326a21.28 21.28 0 0 0-4.734-13.39c-0.046-0.062-4.656-6.172-6.876-13.922-2.61-9.094-1-15.718 5.39-22.124 17.316-17.392 23.05-39.986 16.128-63.61z" fill="#E6E9ED" /><path d="M241.742 955.542a21.434 21.434 0 0 0-6.25 15.124h42.67c0-5.5-2.078-10.938-6.25-15.124-8.326-8.314-21.842-8.314-30.17 0zM369.738 955.542a21.35 21.35 0 0 0-6.234 15.124h42.654c0-5.5-2.078-10.938-6.25-15.124-8.326-8.314-21.826-8.314-30.17 0zM497.75 955.542a21.308 21.308 0 0 0-6.25 15.124h42.656c0-5.5-2.078-10.938-6.25-15.124-8.328-8.314-21.828-8.314-30.156 0zM625.746 955.542a21.234 21.234 0 0 0-6.25 15.124h42.656c0-5.5-2.094-10.938-6.25-15.124-8.344-8.314-21.844-8.314-30.156 0zM783.93 955.542c-8.376-8.312-21.876-8.312-30.188 0a21.234 21.234 0 0 0-6.25 15.124h42.656c0-5.5-2.094-10.938-6.218-15.124z" fill="#E8A734" /></svg>