<?xml version="1.0" standalone="no"?><!DOCTYPE svg PUBLIC "-//W3C//DTD SVG 1.1//EN" "http://www.w3.org/Graphics/SVG/1.1/DTD/svg11.dtd"><svg class="icon" width="128px" height="128.00px" viewBox="0 0 1024 1024" version="1.1" xmlns="http://www.w3.org/2000/svg"><path d="M1014.474 649.002l-62.558-41.746-98.496-91.918c-6.31-36.406-37.124-192.212-114.246-265.208C653.24 168.818 513.34 156.632 507.418 156.164c-0.11-0.032-0.234-0.032-0.36-0.032-1.032-0.062-25.532-1.594-64.074-1.594-55.342 0-138.434 3.188-219.96 18.342-99.606 18.532-172.556 50.436-216.788 94.81a21.36 21.36 0 0 0-6.032 17.874l85.324 639.99c1.422 10.56 10.454 18.498 21.138 18.498 117.152 0 219.368-40.496 253.052-55.372 70.326 47.122 143.978 70.996 219.118 70.996 81.964 0 150.306-28.938 193.208-53.246 33.75-19.124 57.344-38.25 68.188-47.686h77.09a21.28 21.28 0 0 0 19.06-11.812l85.34-170.682c4.816-9.624 1.722-21.31-7.248-27.248z" fill="#EC87C0" /><path d="M682.644 474.744a21.3 21.3 0 0 1-21.312 21.312c-11.78 0-21.34-9.532-21.34-21.312s9.56-21.344 21.34-21.344c11.782 0 21.312 9.562 21.312 21.344z" fill="#434A54" /><path d="M936.384 846.934l85.34-170.682c4.812-9.624 1.718-21.312-7.25-27.25l-49.714-33.184-124.526 242.928h77.09c8.06 0 15.468-4.562 19.06-11.812z" fill="#D770AD" /><path d="M974.132 747.998c-10.374-5.56-23.31-1.748-28.936 8.624-5.594 10.376-1.75 23.312 8.624 28.938l10.438 5.624 19.092-38.188-9.218-4.998z" fill="#434A54" /><path d="M247.178 771.874l-42.326 26.312c77.436 89.246 154.87 90.496 154.87 90.496s-92.888-68.498-112.544-116.808zM408.5 154.946l21.984 30.28 47.308-30.248a1345.788 1345.788 0 0 0-34.808-0.438c-10.562 0-22.124 0.124-34.484 0.406z" fill="#D770AD" /><path d="M853.202 109.792c-0.876-7.938-6.092-14.75-13.53-17.594-2.968-1.156-73.282-27.876-160.122-27.876-47.808 0-91.62 8.156-130.15 24.25-48.294 20.124-88.292 52.654-118.916 96.652a21.314 21.314 0 0 0-2.922 18.312 21.31 21.31 0 0 0 12.516 13.688l213.318 85.338c2.562 1 5.25 1.5 7.936 1.5 3.25 0 6.5-0.718 9.468-2.218a21.372 21.372 0 0 0 11.094-13.436c6.718-24.342 37.062-60.186 85.496-100.934 38.844-32.716 76-57.342 76.344-57.592a21.33 21.33 0 0 0 9.468-20.09z" fill="#EC87C0" /></svg>