<?xml version="1.0" standalone="no"?><!DOCTYPE svg PUBLIC "-//W3C//DTD SVG 1.1//EN" "http://www.w3.org/Graphics/SVG/1.1/DTD/svg11.dtd"><svg class="icon" width="128px" height="128.00px" viewBox="0 0 1024 1024" version="1.1" xmlns="http://www.w3.org/2000/svg"><path d="M745.718 47.206C485.882-86.572 86.672 73.424 164.358 408.258l-38.952 47.124-68.794 125.968 66.936 53.216-2.782 89.466 26.75 38.342s-31.858 119.686 16.842 136.654c90.826 31.686 197.776 16.092 197.776 16.092l5.328 108.876h451.85s-44.718-225.684 23.186-321.524c67.904-95.874 289.4-456.46-96.78-655.266z" fill="#EAC6BB" /><path d="M319.48 915.122s-16.686 2.438-42.452 3.438c15.75 0.594 30.234 0.468 42.624 0l-0.172-3.438zM745.718 47.206C677.158 11.926 598.94-2.918 522.302 0.488c62.608 2.812 124.888 17.968 180.73 46.718 386.208 198.808 164.714 559.392 96.81 655.268-67.906 95.84-23.188 321.524-23.188 321.524h42.656s-44.718-225.684 23.186-321.524c67.906-95.876 289.402-456.462-96.778-655.268z" fill="#FFFFFF" opacity=".2" /><path d="M455.398 618.66c0 11.782-9.546 21.344-21.328 21.344s-21.344-9.562-21.344-21.344 9.562-21.344 21.344-21.344c11.782 0 21.328 9.562 21.328 21.344zM370.072 704.004c0 11.78-9.562 21.31-21.342 21.31-11.782 0-21.328-9.532-21.328-21.31 0-11.782 9.546-21.344 21.328-21.344 11.78 0 21.342 9.562 21.342 21.344zM284.73 448.006c0 11.782-9.546 21.312-21.328 21.312s-21.328-9.532-21.328-21.312 9.546-21.342 21.328-21.342 21.328 9.562 21.328 21.342zM199.404 534.102c0 11.75-9.546 21.31-21.328 21.31s-21.342-9.56-21.342-21.31c0-11.812 9.562-21.344 21.342-21.344s21.328 9.532 21.328 21.344zM284.73 618.66c0 11.782-9.546 21.344-21.328 21.344s-21.328-9.562-21.328-21.344 9.546-21.344 21.328-21.344 21.328 9.562 21.328 21.344zM370.072 534.102c0 11.75-9.562 21.31-21.342 21.31-11.782 0-21.328-9.56-21.328-21.31 0-11.812 9.546-21.344 21.328-21.344a21.33 21.33 0 0 1 21.342 21.344zM455.398 448.006c0 11.782-9.546 21.312-21.328 21.312s-21.344-9.532-21.344-21.312 9.562-21.342 21.344-21.342c11.782 0.002 21.328 9.562 21.328 21.342zM455.398 789.312c0 11.782-9.546 21.344-21.328 21.344s-21.344-9.562-21.344-21.344S422.29 768 434.072 768c11.78 0 21.326 9.532 21.326 21.312zM284.73 789.312c0 11.782-9.546 21.344-21.328 21.344s-21.328-9.562-21.328-21.344S251.622 768 263.404 768s21.326 9.532 21.326 21.312zM540.724 704.004c0 11.78-9.546 21.31-21.328 21.31-11.78 0-21.328-9.532-21.328-21.31 0-11.782 9.546-21.344 21.328-21.344s21.328 9.562 21.328 21.344zM540.724 534.102c0 11.75-9.546 21.31-21.328 21.31-11.78 0-21.328-9.56-21.328-21.31 0-11.812 9.546-21.344 21.328-21.344 11.782-0.002 21.328 9.532 21.328 21.344z" fill="#ED5564" /></svg>