<?xml version="1.0" standalone="no"?><!DOCTYPE svg PUBLIC "-//W3C//DTD SVG 1.1//EN" "http://www.w3.org/Graphics/SVG/1.1/DTD/svg11.dtd"><svg class="icon" width="128px" height="128.00px" viewBox="0 0 1024 1024" version="1.1" xmlns="http://www.w3.org/2000/svg"><path d="M513.671964 448.028374c-4.593901 0-9.203802-1.499968-13.107718-4.531902-9.281801-7.249844-10.953765-20.655556-3.703921-29.935357 17.795618-22.81151 46.06101-34.90525 81.762244-34.90525 24.871466 0 45.183029 5.967872 46.05701 6.217866 11.249758 3.375927 17.68762 15.249672 14.311693 26.53143-3.343928 11.279758-15.187674 17.717619-26.437432 14.373691-0.187996-0.031999-15.531666-4.437905-33.933271-4.437904h-0.93798c-21.905529 0.187996-37.765189 6.375863-47.170987 18.437604a21.319542 21.319542 0 0 1-16.839638 8.249822z" fill="#A0D468" /><path d="M513.687964 448.028374c-8.499817 0-16.545645-5.12389-19.841574-13.529709-7.577837-19.217587-51.106902-11.561752-61.466679-8.623815-11.343756 3.187932-23.123503-3.405927-26.327435-14.749683-3.203931-11.343756 3.389927-23.123503 14.733684-26.311434 0.843982-0.249995 20.95355-5.843874 43.419067-5.62388 20.123568 0.155997 55.8728 5.561881 69.32651 39.655148 4.311907 10.967764-1.061977 23.373498-12.031741 27.685406a21.509538 21.509538 0 0 1-7.811832 1.497967zM513.499968 378.655865a21.327542 21.327542 0 0 1-21.327542-20.93755c-1.217974-64.808608 19.717576-134.52511 60.5127-201.521671 30.561343-50.154922 61.338682-81.216255 62.620655-82.528227 8.343821-8.343821 21.87553-8.343821 30.187351-0.031999 8.343821 8.341821 8.37582 21.841531 0.031999 30.185351-0.281994 0.281994-29.031376 29.405368-56.962776 75.496378-25.249458 41.687104-55.060817 106.339715-53.732845 177.618184 0.217995 11.781747-9.139804 21.499538-20.921551 21.717534l-0.407991 0.002z" fill="#8CC153" /><path d="M513.483968 378.655865c-11.233759 0-20.639557-8.781811-21.279543-20.123568-2.233952-39.653148-38.327177-73.028431-68.216534-94.057979-34.499259-24.249479-68.528528-37.809188-68.856521-37.965184-10.967764-4.311907-16.343649-16.717641-12.015742-27.655406 4.327907-10.967764 16.717641-16.343649 27.685406-12.031742 6.453861 2.561945 158.056604 63.622633 163.994476 169.304363a21.305542 21.305542 0 0 1-21.311542 22.529516z" fill="#8CC153" /><path d="M511.984 405.343291c-4.733898 0-9.483796-1.561966-13.435711-4.781897-9.139804-7.43784-10.531774-20.875552-3.093934-30.031355 62.482658-76.840349 162.350512-72.714438 166.570422-72.496442 11.781747 0.593987 20.843552 10.623772 20.217565 22.375519-0.561988 11.749748-10.531774 20.811553-22.31152 20.249565-1.061977-0.061999-82.87022-2.875938-131.383178 56.81078a21.263543 21.263543 0 0 1-16.563644 7.87383z" fill="#8CC153" /><path d="M491.50044 389.905623c-0.031999-0.123997-4.6559-15.031677-19.483581-28.217394-19.951571-17.717619-48.794952-24.623471-85.730158-20.499559-11.703749 1.311972-22.263522-7.093848-23.577494-18.811596-1.311972-11.717748 7.123847-22.249522 18.827596-23.561494 34.983248-3.937915 84.402187-1.37597 121.167397 33.123289 22.35752 20.999549 29.155374 43.841058 29.857358 46.373003l-41.123116 11.375756 0.061998 0.217995z" fill="#A0D468" /><path d="M512.031999 483.557611c-0.795983 0-1.593966-0.061999-2.389948-0.123997-11.701749-1.311972-20.139567-11.875745-18.841596-23.561494 17.091633-153.710698 0.077998-434.386667-0.093998-437.198607-0.733984-11.781747 8.217823-21.87553 19.967571-22.623514 11.749748-0.717985 21.88953 8.217823 22.609515 19.99957 0.717985 11.62375 17.405626 287.17583-0.077999 444.54245-1.205974 10.903766-10.455775 18.965593-21.173545 18.965592z" fill="#A0D468" /><path d="M513.515967 378.655865c-1.671964 0-3.359928-0.187996-5.045891-0.593987-11.451754-2.78194-18.483603-14.311693-15.701663-25.749447 21.951528-90.402058 153.226708-155.430661 158.820588-158.148602 10.593772-5.155889 23.343498-0.781983 28.531387 9.811789s0.781983 23.343498-9.811789 28.531387c-32.999291 16.155653-121.775384 71.028474-136.071077 129.86921-2.377949 9.747791-11.113761 16.27965-20.721555 16.27965z" fill="#A0D468" /><path d="M512.016 447.996375c-0.46799 0-0.95398-0.031999-1.453969-0.061999-11.749748-0.781983-20.639557-10.935765-19.841574-22.717512 8.295822-123.431348-18.905594-204.677603-43.185072-251.082605-20.921551-39.965141-45.045032-64.278619-54.872821-71.558463-9.561795-6.905852-11.65575-20.217566-4.765898-29.749361 6.905852-9.561795 20.295564-11.65575 29.841359-4.781897 1.421969 1.031978 35.281242 25.873444 66.044581 83.402208 17.68762 33.02929 30.999334 70.434487 39.56115 111.181612 10.593772 50.374918 13.937701 106.027722 9.937787 165.462445-0.749984 11.281758-10.125782 19.905572-21.265543 19.905572z" fill="#A0D468" /><path d="M746.740957 725.328417c0 213.303417-85.498163 298.643584-234.740957 298.643584-149.41479 0-234.740957-85.340167-234.740957-298.643584 0-213.335417 85.326167-298.673583 234.740957-298.673583 149.242794 0 234.740957 85.338167 234.740957 298.673583z" fill="#FC6E51" /><path d="M746.678958 736.734172l-53.874842 53.874842-60.374703-60.342703 60.374703-60.340704 53.936841 53.964841c-0.061999-22.531516-1.031978-43.623063-2.967936-63.30864l-20.811553-20.811553 15.875659-15.873659c-3.061934-17.467625-6.96785-33.655277-11.717749-48.622955l-34.311263 34.311262-60.374702-60.310704 53.06086-53.05886a176.126216 176.126216 0 0 0-30.999334-29.343369l-52.216879 52.214878-60.322704-60.340704 27.233415-27.249414c-17.343627-3.155932-35.875229-4.717899-55.498807-4.811897l-1.905959 1.905959-1.905959-1.905959c-19.623578 0.093998-38.123181 1.687964-55.450809 4.875895l27.185416 27.185416-60.340704 60.340704-52.076881-52.058882c-11.295757 8.37582-21.623535 18.15561-30.935335 29.375369l52.840864 52.872864-60.326703 60.310704-33.99927-33.999269c-4.749898 14.967678-8.639814 31.18733-11.687749 48.684954l15.515667 15.499667-20.343563 20.343563c-1.937958 19.687577-2.937937 40.779124-2.999936 63.30864l53.512851-53.496851 60.326703 60.340704-60.326703 60.342703-53.418853-53.404852c0.359992 23.031505 1.749962 44.499044 4.139911 64.466615l19.10959 19.091589-13.9677 13.9677c3.327929 17.187631 7.531838 33.091289 12.593729 47.746974l31.545323-31.529322 60.326703 60.340703-48.262963 48.248964a175.352233 175.352233 0 0 0 32.15531 28.187394l46.279005-46.281005 60.340704 60.340703-18.703598 18.687599c15.499667 2.34395 31.859316 3.499925 49.090945 3.499925 17.077633 0 33.311284-1.123976 48.686954-3.437927l-18.733598-18.749597 60.322704-60.340703 46.437003 46.437002a176.980198 176.980198 0 0 0 32.217308-28.155395l-48.498958-48.43696 60.374702-60.340703 31.811317 31.841316c5.093891-14.623686 9.3118-30.529344 12.655728-47.684976l-14.311692-14.343692 19.593579-19.591579c2.373949-19.969571 3.747919-41.43711 4.123911-64.436615z m-84.060194-96.963917l-60.342704 60.340704-60.322704-60.340704 60.322704-60.340704 60.342704 60.340704z m-90.496056 90.496056l-60.342703 60.342703-60.340704-60.342703 60.340704-60.340704 60.342703 60.340704z m-60.340703-241.332815l60.342703 60.340703-60.342703 60.310704-60.340704-60.310704 60.340704-60.340703z m-150.852759 150.836759l60.340703-60.340704 60.340704 60.340704-60.340704 60.340704-60.340703-60.340704z m0 180.992111l60.340703-60.308704 60.340704 60.308704-60.340704 60.340704-60.340703-60.340704z m150.852759 150.868759l-60.340704-60.342703 60.340704-60.340704 60.342703 60.340704-60.342703 60.342703z m90.494055-90.528055l-60.322704-60.340704 60.322704-60.308704 60.342704 60.308704-60.342704 60.340704z" fill="#E9573F" /></svg>