<?xml version="1.0" standalone="no"?><!DOCTYPE svg PUBLIC "-//W3C//DTD SVG 1.1//EN" "http://www.w3.org/Graphics/SVG/1.1/DTD/svg11.dtd"><svg class="icon" width="128px" height="128.00px" viewBox="0 0 1024 1024" version="1.1" xmlns="http://www.w3.org/2000/svg"><path d="M1000.124 392.388c-374.322 39.724-552.568 177.324-638.214 243.468-15.302 11.806-32.402 24.984-40.708 28.982-2.888-5.434-8.916-22.112-9.524-66.458-0.454-32.606 2.31-62.708 2.342-63.024l2.17-23.296H18.364l-2.998 17.74c-27.81 165.144-17.24 269.888 33.306 329.664 32.73 38.66 81.496 57.526 149.092 57.526 9.666 0 19.924-0.438 30.512-1.186 71.392-5.124 140.942-67.024 229.01-145.408 63.428-56.462 135.32-120.424 224.98-179.884 103.714-68.734 210.242-117.174 325.606-148.03l15.8-4.248v-48.344l-23.548 2.498z" fill="#8C4C4C" /><path d="M1007.872 442.482l15.8-4.248v-48.344l-23.546 2.498c-197.996 21.018-341.154 69.424-444.712 120.142 4.056 27.012 18.642 92.658 65.77 121.016a1361.236 1361.236 0 0 1 61.086-43.038c103.71-68.73 210.238-117.172 325.602-148.026z" fill="#656D78" /><path d="M164.958 411.814c-0.14-0.188-15.194-15.802-22.672-38.476-9.682-29.292-2.296-55.714 22.61-80.728 45.892-46.064 43.222-92.972 32.9-124.202C187.1 136.022 165.864 114.254 164.958 113.38a21.172 21.172 0 0 0-15.162-6.37c-11.774 0-21.314 9.556-21.314 21.362 0 5.808 2.326 11.054 6.106 14.866l-0.016 0.032c0.156 0.156 15.834 16.488 23.142 39.694 9.072 28.886 1.546 54.902-23.016 79.574-45.876 46.032-43.208 92.94-32.902 124.17 10.696 32.416 31.948 54.152 32.838 55.058h0.016a21.226 21.226 0 0 0 15.146 6.34c11.774 0 21.314-9.556 21.314-21.33a21.16 21.16 0 0 0-6.152-14.962z" fill="#CCD1D9" /><path d="M1000.124 392.388c-374.322 39.724-552.568 177.324-638.214 243.468-15.302 11.806-32.402 24.984-40.708 28.982 12.46 1.81 28.998 4.996 52.858-6.246 8.338-3.874 15.178-10.93 30.48-22.736 84.18-65.022 257.802-199.06 619.132-241.314v-4.654l-23.548 2.5zM91.302 859.464c-50.53-59.776-61.118-164.52-33.306-329.664l2.998-17.738H18.364L15.366 529.8c-27.81 165.144-17.24 269.888 33.306 329.664 32.73 38.66 81.496 57.526 149.092 57.526 7.09 0 14.506-0.25 22.126-0.624-57.056-3.56-99.264-22.236-128.588-56.902z" fill="#FFFFFF" opacity=".1" /><path d="M1002.376 464.218c-11.802 0-21.332-9.524-21.332-21.298v-50.624c0-11.774 9.53-21.33 21.332-21.33 11.742 0 21.296 9.556 21.296 21.33v50.624c0 11.774-9.554 21.298-21.296 21.298z" fill="#434A54" /></svg>