<?xml version="1.0" standalone="no"?><!DOCTYPE svg PUBLIC "-//W3C//DTD SVG 1.1//EN" "http://www.w3.org/Graphics/SVG/1.1/DTD/svg11.dtd"><svg class="icon" width="128px" height="128.00px" viewBox="0 0 1024 1024" version="1.1" xmlns="http://www.w3.org/2000/svg"><path d="M661.37 64.08h42.686v85.308h-42.686z" fill="#AAB2BC" /><path d="M317.632 341.256c0.812 0.094 1.656 0.156 2.468 0.156h682.566a21.298 21.298 0 0 0 21.312-21.312V191.98c0-5.656-2.25-11.062-6.25-15.062s-9.406-6.25-15.062-6.25H341.444v-0.188h-21.342c-85.498 0-165.87 33.28-226.334 93.746C33.33 324.664 0.02 405.066 0.02 490.562c0 85.466 33.31 165.868 93.748 226.304 55.404 55.404 127.526 87.964 204.992 93.028v0.718H703.932c82.31 0 149.308 66.996 149.308 149.306 0 11.782 9.528 21.344 21.308 21.344h128.122c11.782 0 21.312-9.562 21.312-21.344 0-85.498-33.282-165.87-93.746-226.304-55.406-55.404-127.526-87.964-204.994-93.058v-0.688h-405.14c-82.342 0-149.308-66.996-149.308-149.306 0-81.528 65.654-147.962 146.838-149.306z" fill="#5D9CEC" /><path d="M703.93 831.958c-11.782 0-21.342-9.562-21.342-21.344v-170.744c0-11.782 9.56-21.342 21.342-21.342 11.75 0 21.31 9.56 21.31 21.342v170.744c0 11.78-9.56 21.344-21.31 21.344zM320.102 831.958c-11.782 0-21.344-9.562-21.344-21.344v-170.744c0-11.782 9.562-21.342 21.344-21.342 11.78 0 21.342 9.56 21.342 21.342v170.744c0 11.78-9.562 21.344-21.342 21.344zM320.102 362.754c-11.782 0-21.344-9.562-21.344-21.342V170.668c0-11.782 9.562-21.344 21.344-21.344 11.78 0 21.342 9.562 21.342 21.344v170.744c0 11.78-9.562 21.342-21.342 21.342z" fill="#4A89DC" /><path d="M847.114 134.294c-4-4-9.438-6.218-15.094-6.218H533.406c-11.782 0-21.344 9.53-21.344 21.312v213.304c0 5.656 2.25 11.094 6.25 15.094s9.438 6.25 15.094 6.25H832.02c11.782 0 21.344-9.562 21.344-21.342V149.388a21.36 21.36 0 0 0-6.25-15.094z" fill="#656D78" /><path d="M847.114 134.294c-4-4-9.438-6.218-15.094-6.218H533.406c-11.782 0-21.344 9.53-21.344 21.312v213.304c0 5.656 2.25 11.094 6.25 15.094s9.438 6.25 15.094 6.25H832.02c11.782 0 21.344-9.562 21.344-21.342V149.388a21.36 21.36 0 0 0-6.25-15.094z" fill="#656D78" /><path d="M853.364 341.35c0 11.78-9.562 21.342-21.344 21.342H533.406c-5.656 0-11.094-2.25-15.094-6.25s-6.25-9.438-6.25-15.092v21.342c0 5.656 2.25 11.094 6.25 15.094s9.438 6.25 15.094 6.25H832.02c11.782 0 21.344-9.562 21.344-21.342V149.388v191.962z" fill="#FFFFFF" opacity=".2" /><path d="M768.022 85.39h-170.62c-11.78 0-21.342-9.532-21.342-21.312s9.562-21.342 21.342-21.342h170.62c11.782 0 21.344 9.562 21.344 21.342s-9.564 21.312-21.344 21.312z" fill="#CCD1D9" /></svg>