<?xml version="1.0" standalone="no"?><!DOCTYPE svg PUBLIC "-//W3C//DTD SVG 1.1//EN" "http://www.w3.org/Graphics/SVG/1.1/DTD/svg11.dtd"><svg class="icon" width="128px" height="128.00px" viewBox="0 0 1024 1024" version="1.1" xmlns="http://www.w3.org/2000/svg"><path d="M564.312 488.876l-120.688-120.688L140.938 670.844l120.686 120.688z" fill="#E6E9ED" /><path d="M894.938 37.5c-49.938-50-131-50-181 0L382.312 369.124l181 181.032 331.624-331.594c50.002-50 50.002-131.062 0.002-181.062z" fill="#ED5565" /><path d="M188.624 713.688l-17.812 17.812c-8.376 8.312-8.376 21.812 0 30.156 8.312 8.344 21.812 8.344 30.188 0l17.812-17.782-30.188-30.186z" fill="#F6BB42" /><path d="M170.688 826.25c-0.562 0.406-79.062 54.624-79.124 118.624C91.562 988.594 127 1024 170.688 1024h0.062c43.688 0 79.124-35.406 79.124-79.124-0.062-64-78.562-118.22-79.186-118.626zM473.312 579.876H231.938l-91 90.968 120.686 120.688z" fill="#FFCE54" /></svg>