<?xml version="1.0" standalone="no"?><!DOCTYPE svg PUBLIC "-//W3C//DTD SVG 1.1//EN" "http://www.w3.org/Graphics/SVG/1.1/DTD/svg11.dtd"><svg class="icon" width="128px" height="128.00px" viewBox="0 0 1024 1024" version="1.1" xmlns="http://www.w3.org/2000/svg"><path d="M420.932 542.76l60.292 60.294-60.292 60.292-60.294-60.292z" fill="#FECD57" /><path d="M1011.35 12.65C994.698-4 967.706-4 951.054 12.65l-530.118 530.12 60.294 60.292 530.12-530.118c16.65-16.652 16.65-43.644 0-60.294z" fill="#FB6D51" /><path d="M370.046 653.954a10.652 10.652 0 0 1 0-15.058L973.674 35.252c4.154-4.156 10.902-4.156 15.09 0a10.68 10.68 0 0 1 0 15.074L385.134 653.954a10.634 10.634 0 0 1-15.088 0z" fill="#FFFFFF" opacity=".2" /><path d="M81.102 836.024c-8.34 8.34-8.31 21.836 0 30.178 8.342 8.31 21.836 8.31 30.148 0l226.118-226.12-30.146-30.178-226.12 226.12zM413.408 716.122l-30.146-30.146-226.12 226.086c-8.31 8.34-8.31 21.836 0 30.178 8.342 8.31 21.838 8.31 30.148 0l226.118-226.118z" fill="#F5BA45" /><path d="M488.792 731.18l-195.972-195.958c-16.652-16.648-43.642-16.648-60.294 0L6.408 761.36c-8.342 8.308-8.31 21.804 0 30.114 8.31 8.344 21.806 8.344 30.146 0l30.148-30.114 195.97-196.004 195.972 196.004-195.972 195.938-30.146 30.148c-8.342 8.34-8.342 21.836 0 30.148 8.31 8.308 21.806 8.34 30.146 0l226.12-226.122c16.65-16.618 16.65-43.608 0-60.292z" fill="#FECD57" /></svg>