<?xml version="1.0" standalone="no"?><!DOCTYPE svg PUBLIC "-//W3C//DTD SVG 1.1//EN" "http://www.w3.org/Graphics/SVG/1.1/DTD/svg11.dtd"><svg class="icon" width="128px" height="128.00px" viewBox="0 0 1024 1024" version="1.1" xmlns="http://www.w3.org/2000/svg"><path d="M746.69 533.35c-68.404 0-132.686-26.622-181.058-74.996-48.326-48.342-74.952-112.622-74.952-180.996 0-68.404 26.624-132.684 74.952-181.028 48.374-48.342 112.654-74.966 181.058-74.966 68.374 0 132.624 26.624 180.996 74.966 48.342 48.342 74.998 112.624 74.998 181.028 0 68.374-26.656 132.652-74.998 180.996-48.374 48.374-112.624 74.996-180.996 74.996z" fill="#CCD1D9" /><path d="M942.746 81.238C888.624 27.084 817.624 0.02 746.69 0.02c-70.998 0-141.964 27.062-196.12 81.216-108.31 108.31-108.31 283.9 0 392.208 54.154 54.156 125.122 81.216 196.12 81.216 70.936 0 141.934-27.06 196.056-81.216 108.31-108.306 108.31-283.896 0-392.206z m-30.154 362.054c-44.31 44.31-103.248 68.716-165.902 68.716-62.686 0-121.624-24.406-165.934-68.716-44.342-44.344-68.748-103.28-68.748-165.934 0-62.686 24.406-121.624 68.748-165.934 44.31-44.342 103.248-68.748 165.934-68.748 62.654 0 121.592 24.406 165.902 68.748 44.342 44.31 68.716 103.248 68.716 165.934 0 62.654-24.374 121.59-68.716 165.934z" fill="#E6E9ED" /><path d="M428.948 415.948l-29.216 87.654L25.004 878.31c-33.31 33.344-33.31 87.376 0 120.686 33.328 33.31 87.358 33.31 120.686 0l374.708-374.708 87.668-29.218-179.118-179.122zM100.44 953.748c-8.344 8.312-21.842 8.312-30.17 0-8.328-8.344-8.328-21.844 0-30.188 8.328-8.312 21.842-8.312 30.17 0 8.328 8.344 8.328 21.844 0 30.188z" fill="#ED5564" /><path d="M523.914 530.258l-30.172-30.156 219.7-219.682 30.154 30.186z" fill="#434A54" /><path d="M746.69 320.012c23.56 0 42.624-19.092 42.624-42.654 0-23.562-19.062-42.688-42.624-42.688s-42.686 19.124-42.686 42.688c0 23.562 19.124 42.654 42.686 42.654z" fill="#ED5564" /><path d="M746.69 597.318c-43.248 0-85.124-8.438-124.56-25.124-38.124-16.124-72.308-39.188-101.73-68.59-29.406-29.376-52.482-63.624-68.592-101.716-16.672-39.404-25.124-81.31-25.124-124.528 0-11.782-9.562-21.344-21.344-21.344-11.78 0-21.326 9.562-21.326 21.344 0 200.276 162.372 362.646 362.678 362.646 11.75 0 21.31-9.56 21.31-21.342s-9.562-21.346-21.312-21.346z" fill="#656D78" /></svg>