<?xml version="1.0" standalone="no"?><!DOCTYPE svg PUBLIC "-//W3C//DTD SVG 1.1//EN" "http://www.w3.org/Graphics/SVG/1.1/DTD/svg11.dtd"><svg class="icon" width="128px" height="128.00px" viewBox="0 0 1024 1024" version="1.1" xmlns="http://www.w3.org/2000/svg"><path d="M981.296 1013.304H42.702c-11.782 0-21.344-9.562-21.344-21.312V522.68c0-11.78 9.562-21.342 21.344-21.342h938.596c11.782 0 21.344 9.562 21.344 21.342v469.312c-0.002 11.75-9.564 21.312-21.346 21.312z" fill="#E6E9ED" /><path d="M895.958 1013.304h-170.652c-11.782 0-21.31-9.562-21.31-21.312v-341.3c0-11.812 9.53-21.376 21.31-21.376h170.652c11.812 0 21.344 9.562 21.344 21.376v341.3c-0.002 11.75-9.532 21.312-21.344 21.312z" fill="#FC6E51" /><path d="M149.354 672.004h469.298v213.304H149.354z" fill="#5D9CEC" /><path d="M298.38 653.128l-168.65 6.688v191.996l23.342 62.622 81.592-20.626-10.282-102.684zM465.72 653.128l168.652 6.688v191.996l-23.344 62.622-81.622-20.626 10.31-102.684z" fill="#A0D468" /><path d="M655.684 192.69c0 76.936-62.376 139.34-139.308 139.34-76.966 0-139.34-62.404-139.34-139.34 0-76.934 62.374-139.308 139.34-139.308 76.932 0 139.308 62.372 139.308 139.308z" fill="#FFCE54" /><path d="M938.644 416.026H85.356c-11.782 0-21.342-9.562-21.342-21.342v-63.998c0-11.78 9.56-21.342 21.342-21.342h853.29c11.78 0 21.31 9.562 21.31 21.342v63.998c0 11.78-9.532 21.342-21.312 21.342z" fill="#E6E9ED" /><path d="M1019.14 466.462l-63.436-84.59a21.31 21.31 0 0 0-17.06-8.532H85.356a21.308 21.308 0 0 0-17.062 8.532l-63.998 85.34a21.4 21.4 0 0 0-2.032 22.342 21.356 21.356 0 0 0 19.094 11.782H1002.672a21.3 21.3 0 0 0 21.312-21.312c0-5.154-1.812-9.874-4.844-13.562z" fill="#E9573F" /><path d="M1002.64 458.682H21.358A21.33 21.33 0 0 0 0.016 480.024v79.608c0 7.624 4.06 14.624 10.654 18.438a64.022 64.022 0 0 0 32.032 8.624c16.376 0 31.31-6.188 42.654-16.376a63.552 63.552 0 0 0 42.656 16.376 63.546 63.546 0 0 0 42.654-16.376c11.344 10.188 26.312 16.376 42.686 16.376 16.376 0 31.312-6.188 42.656-16.376 11.344 10.188 26.28 16.376 42.654 16.376s31.344-6.188 42.686-16.376c11.312 10.188 26.282 16.376 42.656 16.376s31.342-6.188 42.654-16.376c11.344 10.188 26.312 16.376 42.688 16.376 16.374 0 31.31-6.188 42.654-16.376a63.55 63.55 0 0 0 42.654 16.376 63.542 63.542 0 0 0 42.654-16.376c11.344 10.188 26.312 16.376 42.688 16.376s31.312-6.188 42.654-16.376c11.344 10.188 26.28 16.376 42.654 16.376s31.344-6.188 42.688-16.376a63.55 63.55 0 0 0 42.654 16.376 63.54 63.54 0 0 0 42.654-16.376c11.344 10.188 26.282 16.376 42.656 16.376 16.406 0 31.344-6.188 42.688-16.376a63.54 63.54 0 0 0 42.652 16.376c11.25 0 22.312-3 32.032-8.624a21.244 21.244 0 0 0 10.624-18.438v-79.608c0.002-11.812-9.53-21.342-21.312-21.342z" fill="#FC6E51" /><path d="M789.304 821.312c0 11.812-9.532 21.376-21.312 21.376s-21.344-9.562-21.344-21.376c0-11.75 9.562-21.312 21.344-21.312s21.312 9.562 21.312 21.312zM1002.64 1013.304H21.358c-11.782 0-21.342-9.562-21.342-21.312 0-11.808 9.56-21.372 21.342-21.372H1002.64c11.782 0 21.312 9.562 21.312 21.372 0.002 11.75-9.53 21.312-21.312 21.312z" fill="#434A54" /><path d="M512 352.028c-94.092 0-170.652-76.56-170.652-170.682 0-94.092 76.56-170.652 170.652-170.652 94.09 0 170.65 76.56 170.65 170.652 0 94.122-76.56 170.682-170.65 170.682z m0-298.646c-70.592 0-127.996 57.404-127.996 127.964 0 70.592 57.404 127.996 127.996 127.996 70.558 0 127.996-57.404 127.996-127.996 0-70.56-57.438-127.964-127.996-127.964z" fill="#F6BB42" /><path d="M661.308 202.69H362.66c-11.782 0-21.312-9.562-21.312-21.342a21.3 21.3 0 0 1 21.312-21.312h298.648c11.782 0 21.342 9.532 21.342 21.312 0 11.778-9.56 21.342-21.342 21.342z" fill="#F6BB42" /><path d="M437.314 332.03c-3.624 0-7.282-0.938-10.656-2.876-10.188-5.906-13.688-18.936-7.812-29.156l149.34-258.618c5.874-10.218 18.936-13.718 29.124-7.812 10.218 5.876 13.718 18.938 7.812 29.124l-149.306 258.65a21.372 21.372 0 0 1-18.502 10.688z" fill="#F6BB42" /><path d="M586.684 332.03c-7.376 0-14.56-3.844-18.498-10.686l-149.34-258.65c-5.876-10.186-2.376-23.25 7.812-29.124 10.218-5.906 23.25-2.406 29.156 7.812L605.122 300c5.906 10.218 2.406 23.25-7.812 29.156a21.244 21.244 0 0 1-10.626 2.874z" fill="#F6BB42" /><path d="M533.344 74.692c0 11.782-9.562 21.344-21.344 21.344s-21.344-9.562-21.344-21.344c0-11.78 9.562-21.31 21.344-21.31s21.344 9.53 21.344 21.31zM533.344 288.03c0 11.782-9.562 21.312-21.344 21.312s-21.344-9.532-21.344-21.312 9.562-21.342 21.344-21.342 21.344 9.562 21.344 21.342zM430.284 109.568c10.218 5.876 13.718 18.936 7.812 29.124-5.876 10.218-18.938 13.718-29.124 7.812-10.216-5.876-13.716-18.936-7.81-29.124 5.872-10.218 18.934-13.718 29.122-7.812zM615.028 216.22c10.218 5.876 13.688 18.938 7.812 29.124-5.876 10.218-18.938 13.718-29.156 7.812-10.188-5.876-13.688-18.938-7.782-29.124 5.876-10.218 18.938-13.718 29.126-7.812zM408.97 216.22c10.188-5.906 23.25-2.406 29.124 7.812 5.906 10.188 2.406 23.25-7.812 29.124-10.188 5.906-23.25 2.406-29.124-7.812-5.904-10.186-2.404-23.25 7.812-29.124zM593.684 109.568c10.218-5.906 23.282-2.406 29.156 7.782 5.876 10.218 2.406 23.28-7.812 29.154-10.188 5.906-23.25 2.406-29.124-7.812-5.908-10.188-2.408-23.25 7.78-29.124z" fill="#ED5564" /><path d="M303.85 630.004c-11.406-2.876-23 4.062-25.876 15.5C267.914 685.566 226.57 800 170.666 800c-11.782 0-21.312 9.562-21.312 21.312 0 11.812 9.532 21.376 21.312 21.376 10.812 0 21.312-2.062 31.562-6.062 5.466 18.438 9.03 42.808-3.438 54.434-8.624 8.062-9.094 21.562-1.032 30.124a21.26 21.26 0 0 0 15.592 6.812c5.218 0 10.438-1.938 14.562-5.75 13.75-12.812 28.25-37.5 19.188-82.058-2.156-10.624-5.25-20.312-8.032-27.812 0.906-0.876 1.782-1.75 2.688-2.624 15.782-15.812 30.592-37.376 43.998-64.188 22.124-44.246 33.156-87.872 33.624-89.746 2.846-11.376-4.09-23.002-15.528-25.814zM597.308 800c-55.874 0-97.214-114.434-107.278-154.496-2.876-11.438-14.438-18.376-25.874-15.562-11.438 2.876-18.376 14.438-15.532 25.876 0.468 1.876 11.5 45.5 33.624 89.746 13.406 26.812 28.218 48.376 44 64.188 0.876 0.876 1.782 1.75 2.688 2.624-2.782 7.5-5.876 17.188-8.032 27.812-9.062 44.558 5.438 69.246 19.186 82.058a21.432 21.432 0 0 0 14.562 5.75c5.718 0 11.406-2.312 15.594-6.812 8.03-8.562 7.592-22.062-1.032-30.124-12.438-11.624-9.094-35.746-3.5-54.434 10.248 4 20.81 6.062 31.592 6.062 11.782 0 21.344-9.562 21.344-21.376 0.002-11.75-9.56-21.312-21.342-21.312z" fill="#8CC153" /><path d="M639.996 927.996H128.012c-11.782 0-21.344-9.562-21.344-21.312V650.692c0-11.812 9.562-21.376 21.344-21.376h511.984c11.782 0 21.312 9.562 21.312 21.376v255.992c0 11.75-9.53 21.312-21.312 21.312zM149.354 885.308h469.298V672.004H149.354v213.304z" fill="#F5F7FA" /></svg>