<?xml version="1.0" standalone="no"?><!DOCTYPE svg PUBLIC "-//W3C//DTD SVG 1.1//EN" "http://www.w3.org/Graphics/SVG/1.1/DTD/svg11.dtd"><svg class="icon" width="128px" height="128.00px" viewBox="0 0 1024 1024" version="1.1" xmlns="http://www.w3.org/2000/svg"><path d="M745.718 47.22C485.882-86.556 86.672 73.44 164.358 408.274l-38.936 47.124-68.81 125.936 66.952 53.216-2.782 89.466 26.734 38.342s-31.858 119.686 16.842 136.686c90.826 31.686 197.792 16.092 197.792 16.092l5.312 108.844h451.85s-44.718-225.652 23.186-321.524c67.904-95.874 289.4-456.428-96.78-655.236z" fill="#EAC6BB" /><path d="M745.718 47.22C677.19 11.91 598.942-2.902 522.302 0.502c62.608 2.782 124.888 17.968 180.73 46.718 386.208 198.808 164.714 559.362 96.81 655.236-67.906 95.872-23.188 321.524-23.188 321.524h42.656s-44.718-225.652 23.186-321.524c67.906-95.874 289.402-456.428-96.778-655.236z" fill="#FFFFFF" opacity=".2" /><path d="M411.15 538.648l45.062-15.656c11.124-3.844 17.016-16 13.156-27.158-3.86-11.124-16.032-17-27.156-13.156l-45.062 15.656c-11.124 3.876-17.014 16.032-13.156 27.158 3.062 8.812 11.328 14.344 20.156 14.344 2.312 0 4.686-0.376 7-1.188zM296.168 545.868l47.656 2h0.906c11.376 0 20.828-8.968 21.296-20.438 0.484-11.782-8.656-21.72-20.42-22.188l-47.67-2c-11.75-0.468-21.702 8.656-22.202 20.438-0.486 11.78 8.668 21.718 20.434 22.188zM240.326 542.68c8.86 0 17.14-5.562 20.172-14.406 3.828-11.156-2.11-23.282-13.25-27.126l-45.108-15.468c-11.14-3.844-23.28 2.094-27.108 13.25-3.812 11.124 2.11 23.282 13.25 27.094l45.124 15.5c2.28 0.78 4.622 1.156 6.92 1.156zM445.648 659.27c-10.484-5.376-23.342-1.218-28.718 9.25l-21.764 42.468c-5.376 10.466-1.234 23.342 9.25 28.716a21.34 21.34 0 0 0 9.718 2.344c7.75 0 15.234-4.25 19-11.594l21.764-42.466c5.376-10.468 1.234-23.344-9.25-28.718zM454.946 548.21c-11.766-0.624-21.796 8.436-22.406 20.186l-2.5 47.654c-0.61 11.75 8.436 21.782 20.202 22.406 0.376 0 0.75 0.032 1.124 0.032 11.282 0 20.688-8.844 21.296-20.218l2.484-47.654c0.61-11.75-8.436-21.78-20.2-22.406zM355.354 744.018l-39.578 26.624c-9.782 6.562-12.376 19.844-5.796 29.594 4.11 6.156 10.842 9.438 17.718 9.438a21.08 21.08 0 0 0 11.876-3.624l39.592-26.624c9.782-6.562 12.376-19.812 5.796-29.592-6.562-9.786-19.828-12.378-29.608-5.816zM272.528 796.39l-44.812 16.376c-11.062 4.062-16.75 16.312-12.704 27.376 3.156 8.624 11.328 14 20.032 14a20.82 20.82 0 0 0 7.328-1.312l44.796-16.376c11.062-4.032 16.766-16.282 12.718-27.344-4.046-11.094-16.312-16.782-27.358-12.72z" fill="#434A54" /></svg>