<?xml version="1.0" standalone="no"?><!DOCTYPE svg PUBLIC "-//W3C//DTD SVG 1.1//EN" "http://www.w3.org/Graphics/SVG/1.1/DTD/svg11.dtd"><svg class="icon" width="128px" height="128.00px" viewBox="0 0 1024 1024" version="1.1" xmlns="http://www.w3.org/2000/svg"><path d="M805.672 519.406l-31.748-245.336c-4.404-34.186-34.874-60.966-69.342-60.966H106.758c-34.466 0-64.918 26.78-69.326 60.966L5.636 520.968C2.542 545.06 0.012 584.464 0.012 608.746v10c0 35.342 28.734 64.06 64.06 64.06h683.198c35.342 0 64.058-28.718 64.058-64.06v-11.562c0-24.282-2.532-63.686-5.656-87.778z" fill="#AAB2BC" /><path d="M806.984 531.436l-34.214-342.02c-3.406-34.03-34-61.716-68.188-61.716H106.758c-34.186 0-64.778 27.686-68.184 61.716L4.372 531.436c-1.734 17.376 3.578 33.876 14.952 46.466 11.39 12.562 27.28 19.5 44.75 19.5h683.198c17.468 0 33.374-6.938 44.748-19.5 11.372-12.592 16.684-29.092 14.964-46.466z" fill="#CCD1D9" /><path d="M662.958 353.222c0-65.31-48.686-124.09-128.122-156.088V149.058c0-11.796-9.56-21.36-21.342-21.36H299.986c-11.796 0-21.342 9.562-21.342 21.36v47.232c-35.578 14.062-65.904 33.874-88.326 57.81-27.42 29.312-41.92 63.592-41.92 99.122 0 49.75 27.89 95.904 78.53 129.996 48.044 32.344 111.528 50.124 178.744 50.124s130.698-17.78 178.758-50.124c50.624-34.092 78.528-80.246 78.528-129.996z" fill="#E6E9ED" /><path d="M121.868 496.906c8.328 8.344 8.328 21.844 0 30.188-8.344 8.342-21.858 8.342-30.202 0-8.328-8.344-8.328-21.844 0-30.188 8.342-8.344 21.858-8.344 30.202 0zM719.676 496.906a21.332 21.332 0 0 1 0 30.188 21.336 21.336 0 0 1-30.188 0 21.336 21.336 0 0 1 0-30.188 21.332 21.332 0 0 1 30.188 0z" fill="#434A54" /><path d="M420.764 463.064c-8.344 8.342-21.858 8.342-30.186 0-8.344-8.344-8.344-21.874 0-30.218 8.328-8.312 21.842-8.312 30.186 0 8.344 8.344 8.344 21.874 0 30.218zM448.748 299.38h-85.404c-11.782 0-21.342-9.532-21.342-21.342 0-11.78 9.562-21.342 21.342-21.342h85.404c11.796 0 21.36 9.562 21.36 21.342-0.002 11.812-9.564 21.342-21.36 21.342z" fill="#CCD1D9" /><path d="M192.162 597.402h128.104v85.404H192.162z" fill="#080808" opacity=".2" /><path d="M980.262 575.308a21.764 21.764 0 0 0-4.532-7.686l-42.094-45.998a21.244 21.244 0 0 0-15.748-6.938h-48.404c-4.718 0-9.312 1.562-13.062 4.438l-18.438 14.216H610.46l-18.468-14.216a21.316 21.316 0 0 0-13.032-4.438h-48.434c-5.984 0-11.704 2.5-15.75 6.938l-42.094 45.998a21.468 21.468 0 0 0-4.514 7.686c-49.328 148.246-56.842 243.148-23 290.086 14.594 20.218 36.296 30.906 62.764 30.906 22.986 0 55.528-11.438 79.966-66 6.688-14.906 11.25-29.748 14.124-40.748h244.368c2.876 11 7.468 25.842 14.156 40.748 24.438 54.562 56.966 66 79.934 66 26.468 0 48.188-10.688 62.75-30.906 33.874-46.936 26.342-141.84-22.968-290.086z" fill="#656D78" /><path d="M680.646 746.868c0 23.562-19.094 42.686-42.686 42.686-23.594 0-42.718-19.124-42.718-42.686 0-23.594 19.124-42.718 42.718-42.718 23.592-0.002 42.686 19.124 42.686 42.718z" fill="#CCD1D9" /><path d="M637.96 810.894c-35.312 0-64.062-28.716-64.062-64.028 0-35.312 28.75-64.06 64.062-64.06 35.31 0 64.058 28.748 64.058 64.06 0.002 35.312-28.746 64.028-64.058 64.028z m0-85.37c-11.782 0-21.344 9.562-21.344 21.344 0 11.75 9.562 21.344 21.344 21.344s21.342-9.594 21.342-21.344c0-11.782-9.56-21.344-21.342-21.344z" fill="#AAB2BC" /><path d="M851.454 746.868c0 23.562-19.124 42.686-42.688 42.686-23.592 0-42.714-19.124-42.714-42.686 0-23.594 19.124-42.718 42.714-42.718 23.562-0.002 42.688 19.124 42.688 42.718z" fill="#CCD1D9" /><path d="M808.766 810.894c-35.34 0-64.058-28.716-64.058-64.028 0-35.312 28.718-64.06 64.058-64.06 35.312 0 64.032 28.748 64.032 64.06-0.002 35.312-28.72 64.028-64.032 64.028z m0-85.37c-11.78 0-21.374 9.562-21.374 21.344 0 11.75 9.594 21.344 21.374 21.344 11.75 0 21.344-9.594 21.344-21.344 0-11.782-9.594-21.344-21.344-21.344z" fill="#AAB2BC" /><path d="M830.046 533.342H616.868l-0.25 64.06h213.492z" fill="#434A54" /></svg>