<?xml version="1.0" standalone="no"?><!DOCTYPE svg PUBLIC "-//W3C//DTD SVG 1.1//EN" "http://www.w3.org/Graphics/SVG/1.1/DTD/svg11.dtd"><svg class="icon" width="128px" height="128.00px" viewBox="0 0 1024 1024" version="1.1" xmlns="http://www.w3.org/2000/svg"><path d="M298.672 927.998h118.374v42.654h-118.374z" fill="#434A54" /><path d="M106.674 895.998h234.656v106.654H106.674z" fill="#CCD1D9" /><path d="M170.674 810.654h-128C16.768 830.122 0.004 861.092 0.004 895.998c0 58.906 47.75 106.654 106.67 106.654 58.906 0 106.656-47.748 106.656-106.654 0-34.906-16.75-65.874-42.656-85.344z" fill="#E6E9ED" /><path d="M1023.996 917.342c0 47.124-38.188 85.31-85.312 85.31H469.328c-47.124 0-85.328-38.186-85.328-85.31V106.658c0-47.124 38.204-85.31 85.328-85.31h469.356c47.124 0 85.312 38.186 85.312 85.31v810.684z" fill="#CCD1D9" /><path d="M469.328 106.658h469.356v426.686H469.328z" fill="#5D9CEC" /><path d="M703.996 554.656c-106.028 0-191.996 85.968-191.996 192 0 106.06 85.968 191.998 191.996 191.998 106.032 0 192-85.938 192-191.998 0-106.032-85.968-192-192-192z m0 255.998C668.656 810.654 640 782 640 746.656s28.656-64 63.996-64c35.344 0 64 28.656 64 64s-28.656 63.998-64 63.998z" fill="#F5F7FA" /><path d="M725.308 618.656c0 11.782-9.532 21.344-21.312 21.344-11.778 0-21.308-9.562-21.308-21.344s9.532-21.312 21.308-21.312a21.3 21.3 0 0 1 21.312 21.312zM853.308 746.656c0 11.782-9.532 21.344-21.312 21.344s-21.312-9.562-21.312-21.344 9.532-21.312 21.312-21.312 21.312 9.532 21.312 21.312zM597.312 746.656c0 11.782-9.532 21.344-21.312 21.344s-21.312-9.562-21.312-21.344 9.532-21.312 21.312-21.312 21.312 9.532 21.312 21.312zM725.308 874.654c0 11.782-9.532 21.344-21.312 21.344-11.778 0-21.308-9.562-21.308-21.344s9.532-21.312 21.308-21.312a21.3 21.3 0 0 1 21.312 21.312z" fill="#434A54" /><path d="M719.996 533.344h-122.684l127.996-426.686h122.688z" fill="#FFFFFF" opacity=".1" /></svg>