<?xml version="1.0" standalone="no"?><!DOCTYPE svg PUBLIC "-//W3C//DTD SVG 1.1//EN" "http://www.w3.org/Graphics/SVG/1.1/DTD/svg11.dtd"><svg class="icon" width="128px" height="128.00px" viewBox="0 0 1024 1024" version="1.1" xmlns="http://www.w3.org/2000/svg"><path d="M1002.64 277.328H575.996c-11.782 0-21.34 9.562-21.34 21.342v554.624c0 11.812 9.558 21.376 21.34 21.376H1002.64c11.782 0 21.344-9.562 21.344-21.376V298.67c0-11.782-9.562-21.342-21.344-21.342zM448.002 277.328H21.36c-11.78 0-21.342 9.562-21.342 21.342v554.624c0 11.812 9.562 21.376 21.342 21.376h426.642c11.782 0 21.344-9.562 21.344-21.376V298.67c0-11.782-9.562-21.342-21.344-21.342z" fill="#E6E9ED" /><path d="M448.002 234.672H21.36A21.332 21.332 0 0 0 0.018 256.016v554.652c0 11.75 9.562 21.312 21.342 21.312h426.642c11.782 0 21.344-9.562 21.344-21.312V256.016c0-11.812-9.562-21.344-21.344-21.344z" fill="#CCD1D9" /><path d="M448.002 192.018H21.36c-11.78 0-21.342 9.532-21.342 21.312v554.656c0 11.75 9.562 21.31 21.342 21.31h426.642c11.782 0 21.344-9.56 21.344-21.31V213.33c0-11.782-9.562-21.312-21.344-21.312z" fill="#E6E9ED" /><path d="M21.36 170.674h426.642v554.624H21.36z" fill="#ED5564" /><path d="M448.002 149.332H21.36C9.58 149.332 0.018 158.894 0.018 170.674v554.624c0 11.812 9.562 21.376 21.342 21.376h426.642c11.782 0 21.344-9.562 21.344-21.376V170.674c0-11.78-9.562-21.342-21.344-21.342z m-21.342 158.806v98.716l-10.968 10.968-60.342-60.342 60.342-60.342 10.968 11z m-222.15 139.872L144.168 508.32l-60.342-60.31 60.342-60.342 60.342 60.342zM174.324 357.48l60.342-60.342 60.342 60.342-60.342 60.342-60.342-60.342z m60.342 120.684l60.342 60.342-60.342 60.358-60.342-60.358 60.342-60.342z m30.186-30.154l60.342-60.342 60.31 60.342-60.31 60.31-60.342-60.31z m60.342-120.684l-60.342-60.342 60.342-60.342 60.31 60.342-60.31 60.342z m-90.528-90.53l-44.81-44.78h89.622l-44.812 44.78z m-30.156 30.188l-60.342 60.342-60.342-60.342 60.342-60.342 60.342 60.342zM114.012 357.48l-60.342 60.342-11-10.968v-98.716l11-11 60.342 60.342z m-71.34 230.384v-98.73l11-10.968 60.342 60.342-60.342 60.358-11-11.002z m101.496-19.186l60.342 60.31-60.342 60.374-60.342-60.374 60.342-60.31z m90.498 90.496l44.812 44.81H189.854l44.812-44.81z m30.186-30.186l60.342-60.31 60.31 60.31-60.31 60.374-60.342-60.374z m90.496-90.482l60.342-60.342 10.968 10.968v98.73l-10.968 11-60.342-60.356z m71.312-312.676l-10.968 10.968-44.81-44.78h55.78v33.812zM98.482 192.018l-44.812 44.78-11-10.968V192.018h55.812zM42.672 670.174l11-11 44.812 44.81H42.672v-33.81z m328.208 33.81l44.81-44.81 10.968 11v33.81H370.88z" fill="#DA4453" /><path d="M679.09 329.514a21.35 21.35 0 0 0-17.75-9.5 21.27 21.27 0 0 0-17.75 9.5l-42.688 63.998a21.298 21.298 0 0 0 0 23.656l42.688 63.998a21.27 21.27 0 0 0 17.75 9.5c7.124 0 13.782-3.562 17.75-9.5l42.652-63.998a21.346 21.346 0 0 0 0-23.686l-42.652-63.968zM977.734 734.796l-42.656-63.998a21.344 21.344 0 0 0-17.746-9.5 21.27 21.27 0 0 0-17.75 9.5l-42.688 63.998a21.35 21.35 0 0 0 0 23.688l42.688 63.996a21.27 21.27 0 0 0 17.75 9.5c7.124 0 13.778-3.562 17.746-9.5l42.656-63.996a21.35 21.35 0 0 0 0-23.688z" fill="#ED5564" /></svg>