<?xml version="1.0" standalone="no"?><!DOCTYPE svg PUBLIC "-//W3C//DTD SVG 1.1//EN" "http://www.w3.org/Graphics/SVG/1.1/DTD/svg11.dtd"><svg class="icon" width="128px" height="128.00px" viewBox="0 0 1024 1024" version="1.1" xmlns="http://www.w3.org/2000/svg"><path d="M170.666 277.318a21.296 21.296 0 0 1-21.312-21.31c0-11.782 9.532-21.344 21.312-21.344 17.876 0 29.438-6.094 36.404-19.218 5.844-10.968 6.25-22.812 6.282-23.562V128.01c0-11.78 9.532-21.342 21.312-21.342s21.344 9.562 21.344 21.342v63.998c0 2.156-0.282 21.592-10.25 41.53-14.126 28.25-40.782 43.78-75.092 43.78zM853.332 277.318c-34.31 0-60.964-15.53-75.09-43.78-9.968-19.938-10.25-39.374-10.25-41.53V128.01c0-11.78 9.562-21.342 21.344-21.342s21.31 9.562 21.31 21.342v63.874c0.032 0.75 0.438 12.594 6.282 23.562 6.968 13.124 18.532 19.218 36.404 19.218 11.782 0 21.312 9.562 21.312 21.344 0 11.78-9.53 21.31-21.312 21.31z" fill="#7F4545" /><path d="M938.644 405.316c-42.876 0-76.188-19.312-93.75-54.436-12.53-25.124-12.904-49.53-12.904-52.216V128.01c0-11.78 9.562-21.342 21.342-21.342 11.782 0 21.312 9.562 21.312 21.342v170.652c0 0.062 0.312 17.624 8.968 34.218 10.5 20.03 28.5 29.78 55.032 29.78 11.78 0 21.342 9.562 21.342 21.344 0 11.78-9.562 21.312-21.342 21.312zM85.356 405.316c-11.782 0-21.342-9.532-21.342-21.312 0-11.782 9.56-21.344 21.342-21.344 26.532 0 44.532-9.75 55.03-29.78 8.656-16.592 8.968-34.156 8.968-34.342V128.01c0-11.78 9.532-21.342 21.312-21.342s21.344 9.562 21.344 21.342v170.652c0 2.688-0.376 27.092-12.906 52.216-17.562 35.126-50.874 54.438-93.748 54.438z" fill="#965353" /><path d="M85.356 106.668H21.358C9.576 106.668 0.016 116.23 0.016 128.01v767.978c0 11.782 9.56 21.344 21.342 21.344h63.998c11.782 0 21.312-9.562 21.312-21.344V128.01c0-11.78-9.532-21.342-21.312-21.342zM1002.64 106.668h-63.996c-11.782 0-21.312 9.562-21.312 21.342v767.978c0 11.782 9.532 21.344 21.312 21.344h63.996c11.782 0 21.344-9.562 21.344-21.344V128.01c0-11.78-9.562-21.342-21.344-21.342z" fill="#A85D5D" /><path d="M362.66 767.992c-11.782 0-21.312-9.562-21.312-21.344V128.01c0-11.78 9.532-21.342 21.312-21.342s21.344 9.562 21.344 21.342v618.638c0 11.782-9.562 21.344-21.344 21.344z" fill="#ED5564" /><path d="M661.34 767.992c-11.782 0-21.344-9.562-21.344-21.344V128.01c0-11.78 9.562-21.342 21.344-21.342s21.31 9.562 21.31 21.342v618.638c0 11.782-9.528 21.344-21.31 21.344z" fill="#ED5564" /><path d="M703.994 639.996H320.006c-11.782 0-21.344 9.562-21.344 21.344v63.996c0 11.782 9.562 21.312 21.344 21.312h383.988c11.78 0 21.342-9.532 21.342-21.312V661.34c0-11.782-9.562-21.344-21.342-21.344z" fill="#FFD2A6" /></svg>