<?xml version="1.0" standalone="no"?><!DOCTYPE svg PUBLIC "-//W3C//DTD SVG 1.1//EN" "http://www.w3.org/Graphics/SVG/1.1/DTD/svg11.dtd"><svg class="icon" width="128px" height="128.00px" viewBox="0 0 1024 1024" version="1.1" xmlns="http://www.w3.org/2000/svg"><path d="M405.868 784.594h213.454V1024H405.868z" fill="#656D78" /><path d="M661.446 832.532a21.366 21.366 0 0 1-21.376 21.376h-256.14a21.366 21.366 0 0 1-21.376-21.376V567.5c0-11.812 9.562-21.344 21.376-21.344h256.14c11.812 0 21.376 9.532 21.376 21.344v265.032z" fill="#434A54" /><path d="M426.618 369.594V64.046C426.618 28.688 397.93 0 362.554 0c-35.344 0-64.032 28.688-64.032 64.046v305.546h128.096zM725.446 369.594V64.046c0-35.36-28.624-64.046-64-64.046s-64.062 28.688-64.062 64.046v305.546h128.062z" fill="#FFCE54" /><path d="M640.07 768.5c0 11.782 9.562 21.344 21.376 21.344v-42.688c-11.814 0-21.376 9.562-21.376 21.344zM640.07 811.188c0 11.812 9.562 21.344 21.376 21.344v-42.688c-11.814 0-21.376 9.562-21.376 21.344zM383.93 811.188c0-11.782-9.562-21.344-21.376-21.344v42.688c11.814 0 21.376-9.532 21.376-21.344zM383.93 768.5c0-11.782-9.562-21.344-21.376-21.344v42.688c11.814 0 21.376-9.562 21.376-21.344z" opacity=".2" /><path d="M789.508 597.718l-129.626 128.094H362.554l-128.062-128.094V256.188h555.016z" fill="#656D78" /><path d="M298.524 85.39h128.094v42.704h-128.094zM597.382 85.39h128.062v42.704h-128.062z" fill="#F6BB42" /><path d="M619.32 555.032H405.868c-11.812 0-21.376 9.562-21.376 21.344s9.562 21.344 21.376 21.344H619.32c11.812 0 21.376-9.562 21.376-21.344s-9.564-21.344-21.376-21.344zM662.008 469.656h-298.86c-11.782 0-21.344 9.532-21.344 21.344 0 11.782 9.562 21.344 21.344 21.344h298.86c11.812 0 21.376-9.562 21.376-21.344-0.002-11.812-9.564-21.344-21.376-21.344z" fill="#434A54" /></svg>