<?xml version="1.0" standalone="no"?><!DOCTYPE svg PUBLIC "-//W3C//DTD SVG 1.1//EN" "http://www.w3.org/Graphics/SVG/1.1/DTD/svg11.dtd"><svg class="icon" width="128px" height="128.00px" viewBox="0 0 1024 1024" version="1.1" xmlns="http://www.w3.org/2000/svg"><path d="M928.234 170.794h-64c-11.808 0-21.372-9.562-21.372-21.344 0-11.796 9.562-21.358 21.372-21.358h64c11.812 0 21.376 9.562 21.376 21.358 0 11.782-9.564 21.344-21.376 21.344zM928.234 85.406h-64c-11.808 0-21.372-9.562-21.372-21.342 0-11.796 9.562-21.358 21.372-21.358h64c11.812 0 21.376 9.562 21.376 21.358 0 11.78-9.564 21.342-21.376 21.342z" fill="#FFCE54" /><path d="M650.744 298.868H202.48c-47.092 0-85.386-38.296-85.386-85.388 0-47.076 38.294-85.388 85.386-85.388h533.634c11.812 0 21.376-9.544 21.376-21.342 0-11.782-9.562-21.344-21.376-21.344H202.48c-70.624 0-128.09 57.45-128.09 128.074 0 70.622 57.466 128.088 128.09 128.088h448.264c47.092 0 85.372 38.296 85.372 85.372 0 47.09-38.28 85.388-85.372 85.388H287.868c-70.622 0-128.088 57.482-128.088 128.104 0 70.624 57.466 128.058 128.088 128.058h170.76c47.092 0 85.374 38.31 85.374 85.372h0.062c0 0.25-0.062 0.438-0.062 0.688v148.056a21.366 21.366 0 0 0 21.374 21.376c11.782 0 21.344-9.562 21.344-21.376v-148.056c0-0.25-0.032-0.438-0.032-0.688h0.032c0-70.622-57.466-128.058-128.09-128.058h-170.76c-47.092 0-85.386-38.31-85.386-85.372 0-47.122 38.294-85.402 85.386-85.402h362.876c70.624 0 128.09-57.466 128.09-128.088-0.002-70.624-57.468-128.074-128.092-128.074z" fill="#ED5564" /><path d="M864.234 0.02h-42.712c-58.844 0-106.716 47.874-106.716 106.73s47.874 106.73 106.716 106.73h42.712c11.75 0 21.312-9.546 21.312-21.342V21.362c0-11.782-9.562-21.342-21.312-21.342z" fill="#434A54" /></svg>