<?xml version="1.0" standalone="no"?><!DOCTYPE svg PUBLIC "-//W3C//DTD SVG 1.1//EN" "http://www.w3.org/Graphics/SVG/1.1/DTD/svg11.dtd"><svg class="icon" width="128px" height="128.00px" viewBox="0 0 1024 1024" version="1.1" xmlns="http://www.w3.org/2000/svg"><path d="M921.304 772.708l-3.688-1.032c-52.938-14.25-70.808-27.876-94.372-36.844-83.624-31.842-105.372-54.81-110.934-65.654-0.188-0.376-0.312-0.812-0.5-1.188l-0.688-97.12-198.29-2.25-198.242 2.25-0.688 97.12c-0.188 0.376-0.344 0.812-0.532 1.188-5.562 10.844-27.31 33.812-110.902 65.654-23.56 8.968-41.466 22.594-94.434 36.844l-3.624 1.032c-48.186 15.936-80.59 60.624-80.59 111.056v140.214h978.04v-140.214c0.004-50.432-32.37-95.12-80.556-111.056z" fill="#5D9CEC" /><path d="M427.528 639.994h170.664V1023.98h-170.664z" fill="#CCD1D9" /><path d="M313.376 669.18l92.808 118.808 106.652-61.748-198.368-136.398zM710.938 589.842l-198.102 136.336 106.668 61.81 92.308-119.996z" fill="#E6E9ED" /><path d="M527.93 902.234c8.344 8.312 8.344 21.81 0 30.186-8.344 8.312-21.844 8.312-30.156 0-8.342-8.376-8.342-21.874 0-30.186 8.312-8.312 21.812-8.312 30.156 0zM527.93 816.926c8.344 8.312 8.344 21.812 0 30.124-8.344 8.376-21.844 8.376-30.156 0-8.342-8.31-8.342-21.81 0-30.124 8.312-8.376 21.812-8.376 30.156 0z" fill="#080808" /><path d="M534.18 21.346c0 11.782-9.562 21.344-21.344 21.344s-21.31-9.562-21.31-21.344S501.054 0.02 512.836 0.02s21.344 9.544 21.344 21.326z" fill="#434A54" /><path d="M787.936 382.99c0 178.758-170.37 343.25-275.1 343.25-104.684 0-275.084-164.492-275.084-343.25 0-178.744 123.152-296.676 275.084-296.676 151.916-0.002 275.1 117.932 275.1 296.676z" fill="#EAC6BB" /><path d="M512.836 21.346c-154.088 0-283.864 127.104-283.864 283.88v78.778h567.712l0.062-78.778c0.002-156.776-129.806-283.88-283.91-283.88z" fill="#5D9CEC" /><path d="M821.248 386.488s-58-109.152-308.412-109.152c-250.366 0-308.394 109.152-308.394 109.152-5.532 10.36-0.438 18.842 11.312 18.842h594.182c11.75 0.002 16.81-8.482 11.312-18.842z" fill="#656D78" /><path d="M818.374 381.974c-2.188 1.28-5 2.03-8.438 2.03H215.754c-3.438 0-6.25-0.75-8.468-2.03-1.968 2.874-2.844 4.514-2.844 4.514-5.532 10.36-0.438 18.842 11.312 18.842h594.182c11.75 0 16.81-8.484 11.312-18.842 0 0-0.874-1.64-2.874-4.514z" fill="#434A54" /><path d="M662.19 938.67h213.302v85.31H662.19zM512.836 117.344c-32.56 0-53.31 49.028-53.31 74.668 0 29.406 23.906 53.326 53.31 53.326 29.406 0 53.358-23.92 53.358-53.326 0-25.64-20.812-74.668-53.358-74.668z" fill="#E6E9ED" /><path d="M256.69 837.582H171.38v186.398h85.308v-186.398h0.002z" fill="#F4BE8E" /><path d="M384.78 682.68H43.448a21.298 21.298 0 0 0-21.31 21.312c0 105.872 86.122 191.992 191.96 191.992 105.872 0 192.024-86.122 192.024-191.992 0-11.782-9.564-21.312-21.342-21.312z" fill="#434A54" /><path d="M384.78 682.68h-21.344c11.782 0 21.344 9.532 21.344 21.312 0 102.308-80.404 186.118-181.338 191.68 3.532 0.188 7.094 0.312 10.656 0.312 105.872 0 192.024-86.122 192.024-191.992 0-11.782-9.564-21.312-21.342-21.312z" fill="#656D78" /></svg>