<?xml version="1.0" standalone="no"?><!DOCTYPE svg PUBLIC "-//W3C//DTD SVG 1.1//EN" "http://www.w3.org/Graphics/SVG/1.1/DTD/svg11.dtd"><svg class="icon" width="128px" height="128.00px" viewBox="0 0 1024 1024" version="1.1" xmlns="http://www.w3.org/2000/svg"><path d="M914.742 18.762L18.748 914.742c-24.984 24.968-24.984 65.496 0 90.496 24.998 25 65.514 25 90.514 0L1005.24 109.26c25-24.984 25-65.514 0-90.498-25-25-65.5-25-90.498 0z" fill="#EAAD7A" /><path d="M169.588 914.742c-8.328 8.312-8.328 21.844 0 30.156l30.172-30.156c-8.328-8.344-21.828-8.344-30.172 0zM109.262 975.082c-8.328 8.312-8.328 21.812 0 30.156l30.17-30.156c-8.344-8.344-21.842-8.344-30.17 0zM109.262 854.398c8.328-8.344 8.328-21.844 0-30.156l-30.172 30.156c8.328 8.344 21.844 8.344 30.172 0zM48.918 914.742c8.328-8.344 8.328-21.844 0-30.188L18.748 914.742c8.344 8.312 21.842 8.312 30.17 0zM979.616 104.73c-8.344 8.328-8.344 21.844 0 30.17l30.156-30.17c-8.314-8.328-21.844-8.328-30.156 0zM919.274 165.072c-8.312 8.328-8.312 21.828 0 30.172l30.154-30.172c-8.312-8.328-21.81-8.328-30.154 0zM919.274 44.404c8.344-8.328 8.344-21.844 0-30.172l-30.156 30.172c8.312 8.326 21.842 8.326 30.156 0zM858.932 104.73a21.294 21.294 0 0 0 0-30.156l-30.156 30.156c8.312 8.328 21.844 8.328 30.156 0z" fill="#D89766" /><path d="M843.87 180.15c-84.498-84.466-120.684-90.498-120.684-90.498l-226.278 226.26L89.652 723.184s6.032 36.188 90.498 120.652c84.466 84.468 120.668 90.5 120.668 90.5l407.274-407.242 226.274-226.276s-6.032-36.202-90.496-120.668z" fill="#F4BE8E" /><path d="M707.998 165.15L164.978 708.184c-8.328 8.312-8.328 21.844 0 30.156 8.328 8.344 21.828 8.344 30.172 0h0.016L738.184 195.322c8.312-8.328 8.312-21.828 0-30.172a21.36 21.36 0 0 0-30.186 0z" fill="#FFD2A6" /></svg>