<?xml version="1.0" standalone="no"?><!DOCTYPE svg PUBLIC "-//W3C//DTD SVG 1.1//EN" "http://www.w3.org/Graphics/SVG/1.1/DTD/svg11.dtd"><svg class="icon" width="128px" height="128.00px" viewBox="0 0 1024 1024" version="1.1" xmlns="http://www.w3.org/2000/svg"><path d="M1005.254 109.274h-0.032l-507.2 507.23-90.496-90.53 507.2-507.2C926.82 6.682 942.882 0.026 959.974 0.026c17.094 0 33.186 6.656 45.248 18.748 12.094 12.078 18.75 28.156 18.75 45.25s-6.656 33.156-18.718 45.25z" fill="#F4BE8E" /><path d="M1008.91 48.932c0 17.092-6.656 33.17-18.75 45.248v0.016L482.93 601.378l15.094 15.124 507.2-507.23h0.032c12.062-12.094 18.718-28.156 18.718-45.25s-6.656-33.17-18.75-45.25a63.42 63.42 0 0 0-8.156-6.922c7.686 10.77 11.842 23.598 11.842 37.082z" fill="#FFFFFF" opacity=".2" /><path d="M443.712 459.618c-8.344-8.342-21.842-8.342-30.154 0L281.562 591.6c-4 4-6.25 9.436-6.25 15.092s2.25 11.062 6.25 15.06l120.684 120.684c8.312 8.344 21.812 8.344 30.154 0l131.996-131.994c8.312-8.312 8.312-21.81 0-30.154l-120.684-120.67z" fill="#434A54" /><path d="M242.158 505.726c-71.936-3.984-140.494 24.404-198.21 82.124L6.262 625.564l392.204 392.174 37.686-37.686c57.716-57.718 86.124-126.246 82.124-198.21-3.656-66.092-35.5-132.342-89.654-186.46-54.126-54.142-120.34-85.984-186.464-89.656z" fill="#656D78" /><path d="M488.118 751.686c3.968 71.936-24.406 140.494-82.122 198.18l-37.718 37.686 30.188 30.188 37.686-37.686c57.716-57.718 86.124-126.246 82.124-198.21-3.656-66.092-35.5-132.342-89.654-186.46a338.826 338.826 0 0 0-15.53-14.624c45.246 50.992 71.682 110.99 75.026 170.926z" fill="#FFFFFF" opacity=".1" /><path d="M428.62 1017.738c-8.31 8.312-21.81 8.312-30.154 0L6.262 625.534c-8.312-8.342-8.312-21.842 0-30.152a21.33 21.33 0 0 1 30.186 0L428.62 987.55c8.342 8.344 8.342 21.876 0 30.188z" fill="#434A54" /><path d="M488.96 504.868l-30.154 30.17c-8.344 8.328-8.344 21.844 0 30.156 8.31 8.344 21.81 8.344 30.154 0l30.188-30.156-30.188-30.17z" fill="#656D78" /></svg>