<?xml version="1.0" standalone="no"?><!DOCTYPE svg PUBLIC "-//W3C//DTD SVG 1.1//EN" "http://www.w3.org/Graphics/SVG/1.1/DTD/svg11.dtd"><svg class="icon" width="128px" height="128.00px" viewBox="0 0 1024 1024" version="1.1" xmlns="http://www.w3.org/2000/svg"><path d="M917.336 320c0-11.75-9.562-21.312-21.376-21.312-11.75 0-21.312 9.562-21.312 21.312 0 49-9.562 96.5-28.5 141.188-18.25 43.124-44.438 81.938-77.75 115.25s-72.062 59.5-115.25 77.75c-44.688 18.876-92.188 28.5-141.172 28.5-48.938 0-96.438-9.624-141.124-28.5-43.188-18.25-82-44.438-115.312-77.75s-59.438-72.124-77.75-115.25C158.914 416.5 149.352 369 149.352 320c0-11.75-9.562-21.312-21.376-21.312-11.75 0-21.312 9.562-21.312 21.312 0 216.688 170.062 393.688 384 404.812v277.876c0 11.75 9.562 21.312 21.312 21.312 11.796 0 21.36-9.562 21.36-21.312V724.812c213.938-11.124 384-188.124 384-404.812z" fill="#4A89DC" /><path d="M512.008 640c176.766 0 320.016-143.25 320.016-320S688.774 0 512.008 0c-176.688 0-320 143.25-320 320s143.312 320 320 320zM234.696 320c0-37.438 7.312-73.75 21.75-107.938 14-33 34-62.688 59.5-88.188a277.254 277.254 0 0 1 88.124-59.438c34.188-14.438 70.5-21.75 107.938-21.75 37.516 0 73.828 7.312 107.954 21.75 33.062 14 62.688 34 88.188 59.438 25.5 25.5 45.5 55.188 59.438 88.188 14.438 34.188 21.812 70.5 21.812 107.938s-7.376 73.812-21.812 107.938c-13.938 33-33.938 62.688-59.438 88.188s-55.124 45.5-88.188 59.438c-34.124 14.438-70.438 21.75-107.954 21.75-37.438 0-73.75-7.312-107.938-21.75-33-13.938-62.688-33.938-88.124-59.438-25.5-25.5-45.5-55.188-59.5-88.188-14.438-34.126-21.75-70.5-21.75-107.938zM661.336 853.188H362.664c-11.812 0-21.312 9.562-21.312 21.376 0 11.75 9.5 21.312 21.312 21.312h298.672c11.75 0 21.312-9.562 21.312-21.312 0-11.814-9.562-21.376-21.312-21.376z" fill="#5D9CEC" /></svg>