<?xml version="1.0" standalone="no"?><!DOCTYPE svg PUBLIC "-//W3C//DTD SVG 1.1//EN" "http://www.w3.org/Graphics/SVG/1.1/DTD/svg11.dtd"><svg class="icon" width="128px" height="128.00px" viewBox="0 0 1024 1024" version="1.1" xmlns="http://www.w3.org/2000/svg"><path d="M1023.984 512c0 282.781582-229.188419 512-511.984 512C229.250418 1024 0 794.781582 0 512 0 229.250418 229.250418 0 512 0 794.795581 0 1023.984 229.250418 1023.984 512z" fill="#CCD1D9" /><path d="M856.29662 766.812019c-37.875408 37.843409-88.93861 48.093249-114.110217 22.905642-25.187606-25.187606-14.937767-76.248809 22.921642-114.092218 37.811409-37.813409 88.874611-48.095249 114.062218-22.907642 25.189606 25.189606 14.939767 76.250809-22.873643 114.094218zM515.717942 782.217778c33.093483 14.999766 49.031234 51.1872 35.593444 80.810737-13.43779 29.625537-51.123201 41.469352-84.216684 26.469587-33.125482-14.999766-49.063233-51.157201-35.625444-80.782738 13.43779-29.621537 51.155201-41.497352 84.248684-26.497586zM867.046452 352.688489c22.999641 41.437353 16.437743 89.062608-14.68777 106.342339-31.123514 17.313729-75.000828-2.281964-98.062468-43.719317-22.983641-41.437353-16.421743-89.030609 14.687771-106.342339 31.125514-17.28173 75.062827 2.281964 98.062467 43.719317zM528.187747 229.468415c40.061374 18.031718 84.406681 6.3759 99.032453-26.093593s-5.967907-73.436853-46.031281-91.468571c-40.063374-18.061718-84.406681-6.4059-99.032453 26.061593-14.655771 32.469493 5.967907 73.438853 46.031281 91.500571zM301.593288 344.282621c-28.999547 28.999547-72.906861 32.093499-98.092468 6.905892-25.187606-25.157607-22.093655-69.09492 6.937892-98.094468 28.999547-29.031546 72.93686-32.123498 98.092467-6.937891 25.187606 25.187606 22.093655 69.09492-6.937891 98.126467zM271.811753 612.844424c20.843674 44.843299 11.53182 93.374541-20.749676 108.374307-32.311495 14.999766-75.374822-9.217856-96.186497-54.063155-20.843674-44.843299-11.53182-93.344541 20.749676-108.344307 32.313495-14.999766 75.374822 9.187856 96.186497 54.033155z" fill="#AAB2BD" /></svg>