<?xml version="1.0" standalone="no"?><!DOCTYPE svg PUBLIC "-//W3C//DTD SVG 1.1//EN" "http://www.w3.org/Graphics/SVG/1.1/DTD/svg11.dtd"><svg class="icon" width="128px" height="128.00px" viewBox="0 0 1024 1024" version="1.1" xmlns="http://www.w3.org/2000/svg"><path d="M746.696 981.312h-533.36V609.438H170.68v393.25c0 11.75 9.562 21.312 21.344 21.312h554.672c11.75 0 21.312-9.562 21.312-21.312 0-11.812-9.562-21.376-21.312-21.376z" fill="#37BC9B" /><path d="M533.32 0H192.024C180.242 0 170.68 9.546 170.68 21.328V640h362.64c176.75 0 320-143.266 320-320S710.07 0 533.32 0z m196.126 516.124c-25.5 25.468-55.124 45.468-88.188 59.438-34.124 14.438-70.438 21.75-107.938 21.75H213.336V42.672H533.32c37.5 0 73.812 7.328 107.938 21.782 33.062 13.954 62.688 33.954 88.188 59.438s45.5 55.156 59.438 88.172c14.5 34.172 21.812 70.484 21.812 107.938s-7.312 73.766-21.812 107.938c-13.938 33.014-33.938 62.684-59.438 88.184z" fill="#48CFAD" /></svg>