<?xml version="1.0" standalone="no"?><!DOCTYPE svg PUBLIC "-//W3C//DTD SVG 1.1//EN" "http://www.w3.org/Graphics/SVG/1.1/DTD/svg11.dtd"><svg class="icon" width="128px" height="128.00px" viewBox="0 0 1024 1024" version="1.1" xmlns="http://www.w3.org/2000/svg"><path d="M809.18 465.844a21.264 21.264 0 0 0-6.532-11.156c-8.75-7.906-22.25-7.186-30.126 1.562l-175.182 194.524-176.15-195.71c-0.032-0.062-0.094-0.094-0.156-0.126-3.906-4.25-9.468-6.936-15.688-6.936-11.782 0-21.344 9.562-21.344 21.342v383.988c0 11.782 9.562 21.312 21.344 21.312s21.312-9.532 21.312-21.312V524.938l154.806 171.992a21.26 21.26 0 0 0 15.844 7.062h0.032c0.688 0 1.376-0.032 2.062-0.094l0.562-0.094c0.5-0.062 1-0.126 1.5-0.218 0.218-0.062 0.438-0.094 0.688-0.156 0.438-0.126 0.876-0.218 1.312-0.344 0.25-0.094 0.5-0.156 0.75-0.25a10.14 10.14 0 0 0 1.218-0.468c0.25-0.094 0.5-0.188 0.75-0.312 0.406-0.188 0.782-0.376 1.156-0.562 0.25-0.156 0.5-0.282 0.75-0.438 0.376-0.188 0.718-0.438 1.062-0.688l0.75-0.468c0.406-0.312 0.782-0.626 1.188-0.968l0.468-0.376 0.032-0.032c0.562-0.5 1.094-1.032 1.594-1.594l154.806-171.898v328.3c0 11.782 9.562 21.312 21.344 21.312s21.312-9.532 21.312-21.312V469.344c0.004-1.312-0.526-2.468-1.464-3.5zM192.012 448H21.36C9.578 448 0.016 457.562 0.016 469.342V853.33c0 11.782 9.562 21.312 21.344 21.312s21.312-9.532 21.312-21.312v-106.684h149.34c82.464 0 149.338-66.844 149.338-149.308S274.476 448 192.012 448z m0 255.992h-149.34V490.656h149.34c58.808 0 106.652 47.844 106.652 106.684 0 58.808-47.844 106.652-106.652 106.652z" fill="#967ADA" /><path d="M896.548 384.002c-59.12 0-107.212-48.092-107.212-107.246 0-44.686 27.844-83.936 67.874-99.778 5.156 74.372 64.746 133.996 139.122 139.12-15.814 40.03-55.064 67.904-99.784 67.904z" fill="#FECD57" /><path d="M1006.766 295.13c-70.998 0-128.556-57.562-128.556-128.558 0-5.844 0.376-11.594 1.124-17.218-62.84 8.406-111.34 62.248-111.34 127.402 0 71.028 57.562 128.588 128.556 128.588 65.188 0 119.03-48.498 127.436-111.37a130.28 130.28 0 0 1-17.22 1.156z m-110.218 67.53c-47.34 0-85.9-38.532-85.9-85.904 0-26.094 11.844-49.842 30.686-65.748 7.656 28.716 22.782 55.06 44.342 76.624 21.592 21.592 47.904 36.716 76.624 44.372-15.876 18.812-39.658 30.656-65.752 30.656z" fill="#F5BA45" /></svg>