<?xml version="1.0" standalone="no"?><!DOCTYPE svg PUBLIC "-//W3C//DTD SVG 1.1//EN" "http://www.w3.org/Graphics/SVG/1.1/DTD/svg11.dtd"><svg class="icon" width="128px" height="128.00px" viewBox="0 0 1024 1024" version="1.1" xmlns="http://www.w3.org/2000/svg"><path d="M874.612 0.118H149.42L106.774 1023.882h810.452z" fill="#F6BB42" /><path d="M881.704 170.75L874.612 0.118H149.42l-7.11 170.632z" fill="#FFCE54" /><path d="M448.022 0.118V256.06c0 11.794 9.544 21.34 21.324 21.34s21.338-9.544 21.338-21.34c0 11.794 9.544 21.34 21.324 21.34 11.778 0 21.322-9.544 21.322-21.34 0 11.794 9.56 21.34 21.354 21.34 11.75 0 21.308-9.544 21.308-21.34V0.118h-127.97z" fill="#F5F7FA" /><path d="M277.39 767.942l134.078-223.45 134.064 223.45z" fill="#DA4453" /><path d="M389.114 767.942l178.756-312.804 178.77 312.804z" fill="#ED5564" /></svg>