<?xml version="1.0" standalone="no"?><!DOCTYPE svg PUBLIC "-//W3C//DTD SVG 1.1//EN" "http://www.w3.org/Graphics/SVG/1.1/DTD/svg11.dtd"><svg class="icon" width="128px" height="128.00px" viewBox="0 0 1024 1024" version="1.1" xmlns="http://www.w3.org/2000/svg"><path d="M858.058 255.756c-2.624-23.312-23.936-42.406-47.374-42.406H213.34c-23.452 0-44.78 19.092-47.374 42.406l-75.904 725.86c-2.594 23.31 14.484 42.374 37.952 42.374h767.982c23.468 0 40.562-19.062 37.938-42.374l-75.876-725.86z" fill="#ED5564" /><path d="M682.688 170.696c0-94.248-76.434-170.684-170.684-170.684-94.248 0-170.666 76.436-170.666 170.684v127.31h0.046c-0.016 0.25-0.046 0.468-0.046 0.688 0 11.78 9.562 21.312 21.344 21.312 11.78 0 21.328-9.532 21.328-21.312 0-0.218-0.032-0.438-0.032-0.688h0.032V170.696c0-70.592 57.42-127.998 127.996-127.998 70.562 0 127.998 57.406 127.998 127.998v127.31h0.032c0 0.25-0.032 0.468-0.032 0.688 0 11.78 9.562 21.312 21.312 21.312 11.81 0 21.374-9.532 21.374-21.312 0-0.218-0.062-0.438-0.062-0.688h0.062V170.696z" fill="#434A54" /><path d="M448.054 767.994h128.012v127.998h-128.012z" fill="#7F4545" /><path d="M320.01 810.682l191.994-341.338L704 810.682z" fill="#8CC153" /><path d="M362.728 639.996l149.322-298.648 149.326 298.648z" fill="#A0D468" /><path d="M90.062 981.616c-2.594 23.31 14.484 42.374 37.952 42.374h767.982c23.468 0 40.562-19.062 37.938-42.374v-0.282H90.092l-0.03 0.282z" fill="#DA4453" /></svg>