<?xml version="1.0" standalone="no"?><!DOCTYPE svg PUBLIC "-//W3C//DTD SVG 1.1//EN" "http://www.w3.org/Graphics/SVG/1.1/DTD/svg11.dtd"><svg class="icon" width="128px" height="128.00px" viewBox="0 0 1024 1024" version="1.1" xmlns="http://www.w3.org/2000/svg"><path d="M935.11 981.486c1.968 23.374-15.656 42.498-39.124 42.498H128.01c-23.468 0-41.062-19.124-39.124-42.498l56.936-682.964c1.938-23.376 22.718-42.514 46.186-42.514h639.98c23.468 0 44.282 19.138 46.216 42.514l56.906 682.964z" fill="#48CFAD" /><path d="M202.726 441.346c5.468 2.328 17 2.312 22.438-0.032l60.186-25.828c16.25-6.966 39.812-6.966 56.03 0l60.186 25.828c5.436 2.344 16.936 2.344 22.374 0l60.186-25.828c16.25-6.966 39.81-6.966 56.028 0l60.188 25.828c5.438 2.344 16.936 2.344 22.374 0l60.186-25.828c16.25-6.966 39.812-6.966 56.062 0l60.152 25.828c5.438 2.328 16.938 2.328 22.376 0l66.248-28.484-9.532-114.308c-1.936-23.376-22.748-42.514-46.216-42.514H192.008c-23.468 0-44.25 19.138-46.186 42.514l-9.562 114.434 66.466 28.39z" fill="#E6E9ED" /><path d="M725.336 341.146c-0.032-3.39-1.032-84.014-26-166.012C664.46 60.576 599.684 0.014 511.998 0.014c-87.684 0-152.464 60.56-187.338 175.12-24.968 81.998-25.936 162.622-25.968 166.012v0.188c0 11.78 9.53 21.342 21.312 21.342 11.718 0 21.218-9.454 21.342-21.154 0-0.766 0.938-77.794 24.124-153.964 29.28-96.138 78.56-144.872 146.526-144.872 67.78 0 116.996 48.482 146.306 144.106 23.344 76.17 24.344 153.964 24.376 154.73 0.094 11.702 9.594 21.154 21.312 21.154 11.782 0 21.344-9.562 21.344-21.342l0.002-0.188z" fill="#434A54" /><path d="M88.886 981.486c-1.938 23.374 15.656 42.498 39.124 42.498h767.976c23.466 0 41.092-19.124 39.124-42.498l-1.782-21.5H90.698l-1.812 21.5z" fill="#37BC9B" /></svg>