<?xml version="1.0" standalone="no"?><!DOCTYPE svg PUBLIC "-//W3C//DTD SVG 1.1//EN" "http://www.w3.org/Graphics/SVG/1.1/DTD/svg11.dtd"><svg class="icon" width="128px" height="128.00px" viewBox="0 0 1024 1024" version="1.1" xmlns="http://www.w3.org/2000/svg"><path d="M917.226 1002.574c0 11.748-9.498 21.308-21.308 21.308H128.112c-11.78 0-21.338-9.56-21.338-21.308V21.458c0-11.78 9.558-21.34 21.338-21.34h767.806c11.81 0 21.308 9.56 21.308 21.34v981.116z" fill="#E9573F" /><path d="M190.066 214.288c15.778 10.888 46.458 20.45 65.64 20.45h512.618c19.184 0 49.864-9.56 65.672-20.45L917.226 156.8V21.458c0-11.78-9.498-21.34-21.308-21.34H128.112c-11.78 0-21.338 9.56-21.338 21.34V156.8l83.292 57.488z" fill="#FC6E51" /><path d="M533.33 938.59l85.34-142.216 85.292 142.216z" fill="#E6E9ED" /><path d="M604.424 938.59l113.786-199.08 113.724 199.08z" fill="#F5F7FA" /><path d="M277.39 853.266h-63.986c-11.78 0-21.306-9.53-21.306-21.34a21.292 21.292 0 0 1 21.306-21.306h63.986c11.778 0 21.338 9.53 21.338 21.306 0 11.81-9.56 21.34-21.338 21.34zM405.36 938.59h-191.956c-11.78 0-21.306-9.56-21.306-21.34 0-11.778 9.528-21.338 21.306-21.338h191.956c11.78 0 21.34 9.56 21.34 21.338 0 11.78-9.562 21.34-21.34 21.34z" fill="#434A54" /><path d="M572.68 169.734l-121.362 0.016 31.586 86.308-31.586 86.34 121.362-0.016-31.54-86.324z" fill="#FFCE54" /><path d="M575.992 362.706c0 35.336-28.618 63.986-63.968 63.986-35.336 0-63.986-28.65-63.986-63.986 0-35.334 28.65-63.986 63.986-63.986 35.352 0 63.968 28.652 63.968 63.986zM448.038 149.428c0-35.336 28.65-63.986 63.986-63.986 35.352 0 63.968 28.65 63.968 63.986 0 35.334-28.618 63.984-63.968 63.984-35.336 0-63.986-28.65-63.986-63.984z" fill="#434A54" /><path d="M533.33 149.428c0 11.778-9.53 21.322-21.306 21.322-11.78 0-21.34-9.544-21.34-21.322 0-11.78 9.56-21.34 21.34-21.34 11.776 0 21.306 9.56 21.306 21.34zM533.33 363.738c0 11.778-9.53 21.324-21.306 21.324-11.78 0-21.34-9.544-21.34-21.324s9.56-21.338 21.34-21.338c11.776-0.002 21.306 9.558 21.306 21.338z" fill="#656D78" /></svg>