<?xml version="1.0" standalone="no"?><!DOCTYPE svg PUBLIC "-//W3C//DTD SVG 1.1//EN" "http://www.w3.org/Graphics/SVG/1.1/DTD/svg11.dtd"><svg class="icon" width="128px" height="128.00px" viewBox="0 0 1024 1024" version="1.1" xmlns="http://www.w3.org/2000/svg"><path d="M512 170.668c-35.342 0-63.998 28.656-63.998 63.998s28.656 63.998 63.998 63.998c35.344 0 63.998-28.656 63.998-63.998-0.002-35.342-28.654-63.998-63.998-63.998z m0 85.342c-11.764 0-21.328-9.594-21.328-21.342 0-11.782 9.562-21.344 21.328-21.344s21.33 9.562 21.33 21.344c-0.002 11.748-9.564 21.342-21.33 21.342z" fill="#F5BA45" /><path d="M512 85.328c-35.344 0-64 28.656-64 63.998s28.656 63.998 63.998 63.998c35.344 0 63.998-28.656 63.998-63.998S547.344 85.328 512 85.328z m0 85.34c-11.764 0-21.328-9.562-21.328-21.342 0-11.75 9.562-21.312 21.328-21.312s21.33 9.562 21.33 21.312c-0.002 11.782-9.564 21.342-21.33 21.342z" fill="#FECD57" /><path d="M512 0.02c-35.344 0-64 28.624-64 63.996 0 35.344 28.656 63.998 64 63.998s63.998-28.656 63.998-63.998C575.996 28.644 547.344 0.02 512 0.02z m0 85.308c-11.764 0-21.328-9.562-21.328-21.312 0-11.78 9.562-21.342 21.328-21.342s21.33 9.562 21.33 21.342c-0.002 11.75-9.564 21.312-21.33 21.312z" fill="#F5BA45" /><path d="M512 256.01c-58.904 0-106.668 47.748-106.668 106.652s47.764 106.652 106.668 106.652c58.908 0 106.684-47.748 106.684-106.652S570.906 256.01 512 256.01z m0 170.65c-35.28 0-63.998-28.718-63.998-63.998S476.72 298.664 512 298.664c35.314 0 63.998 28.716 63.998 63.998S547.312 426.66 512 426.66z" fill="#FECD57" /><path d="M512 1002.638c-79.778 0-154.776-31.06-211.178-87.466-56.406-56.434-87.482-131.432-87.482-211.178 0-79.78 31.078-154.776 87.482-211.212 56.404-56.404 131.402-87.466 211.178-87.466 79.778 0 154.774 31.062 211.18 87.466 56.402 56.436 87.496 131.432 87.496 211.212 0 79.746-31.094 154.744-87.496 211.178-56.406 56.406-131.402 87.466-211.18 87.466z" fill="#FECD57" /><path d="M512 405.316c-11.78 0-21.328 9.562-21.328 21.344 0 11.78 9.546 21.342 21.328 21.342s21.33-9.562 21.33-21.342c-0.002-11.782-9.548-21.344-21.33-21.344zM512 959.984c-11.78 0-21.328 9.532-21.328 21.31 0 11.782 9.546 21.344 21.328 21.344s21.33-9.562 21.33-21.344c-0.002-11.778-9.548-21.31-21.33-21.31zM362.676 445.346c-10.204 5.876-13.704 18.938-7.812 29.124 5.89 10.218 18.936 13.718 29.14 7.812s13.704-18.936 7.812-29.156c-5.89-10.186-18.938-13.686-29.14-7.78zM639.996 925.672c-10.188 5.876-13.688 18.938-7.812 29.124 5.876 10.218 18.934 13.718 29.122 7.812 10.218-5.876 13.718-18.938 7.812-29.124-5.876-10.218-18.938-13.688-29.122-7.812zM282.492 546.844c-10.204-5.906-23.25-2.406-29.14 7.812-5.89 10.188-2.39 23.248 7.812 29.124 10.202 5.906 23.25 2.406 29.14-7.782 5.892-10.216 2.392-23.248-7.812-29.154zM762.832 824.178c-10.218-5.906-23.246-2.406-29.152 7.812-5.876 10.188-2.376 23.248 7.812 29.124 10.214 5.906 23.246 2.406 29.152-7.812 5.906-10.188 2.406-23.25-7.812-29.124zM234.682 682.65c-11.782 0-21.344 9.532-21.344 21.344 0 11.748 9.562 21.31 21.344 21.31 11.78 0 21.328-9.562 21.328-21.31-0.002-11.812-9.548-21.344-21.328-21.344zM789.3 682.65c-11.75 0-21.312 9.532-21.312 21.344 0 11.748 9.562 21.31 21.312 21.31 11.812 0 21.376-9.562 21.376-21.31 0-11.812-9.562-21.344-21.376-21.344zM261.166 824.178c-10.204 5.876-13.704 18.936-7.812 29.124 5.89 10.218 18.936 13.718 29.14 7.812 10.204-5.876 13.704-18.936 7.812-29.124-5.892-10.218-18.938-13.718-29.14-7.812zM762.832 583.78c10.218-5.876 13.718-18.936 7.812-29.124-5.906-10.218-18.938-13.718-29.152-7.812-10.188 5.906-13.688 18.938-7.812 29.154 5.906 10.188 18.934 13.688 29.152 7.782zM384.004 925.672c-10.204-5.876-23.25-2.406-29.14 7.812-5.89 10.188-2.39 23.25 7.812 29.124 10.202 5.906 23.25 2.406 29.14-7.782 5.892-10.216 2.392-23.28-7.812-29.154zM639.996 482.282c10.184 5.906 23.246 2.406 29.122-7.812 5.906-10.186 2.406-23.25-7.812-29.124-10.188-5.906-23.246-2.406-29.122 7.782-5.876 10.218-2.376 23.248 7.812 29.154z" fill="#F5BA45" /><path d="M647.742 809.584v-0.032l-114.414-114.402v-161.838c0-11.782-9.546-21.312-21.33-21.312-11.78 0-21.328 9.532-21.328 21.312v170.682c0 5.874 2.39 11.216 6.25 15.06l120.668 120.686c8.344 8.342 21.844 8.31 30.152 0 8.346-8.344 8.346-21.844 0.002-30.156z" fill="#424953" /><path d="M533.328 341.318h-42.656c-11.782 0-21.342 9.562-21.342 21.344 0 11.78 9.562 21.342 21.342 21.342v21.312h42.656v-21.312c11.796 0 21.36-9.562 21.36-21.342 0-11.782-9.564-21.344-21.36-21.344z" fill="#FECD57" /><path d="M512 384.004c-176.728 0-319.988 143.246-319.988 319.99 0 176.71 143.26 319.986 319.988 319.986 176.744 0 319.99-143.276 319.99-319.986-0.002-176.744-143.248-319.99-319.99-319.99z m196.118 516.074c-25.5 25.468-55.188 45.468-88.184 59.438-34.156 14.468-70.496 21.78-107.934 21.78-37.452 0-73.778-7.31-107.932-21.78-33.016-13.968-62.686-33.968-88.168-59.438-25.484-25.496-45.484-55.152-59.452-88.15-14.438-34.188-21.764-70.498-21.764-107.934 0-37.468 7.328-73.78 21.764-107.934 13.968-33.03 33.968-62.686 59.452-88.186 25.482-25.468 55.154-45.466 88.168-59.436 34.156-14.466 70.48-21.78 107.932-21.78 37.438 0 73.778 7.312 107.934 21.78 32.996 13.968 62.684 33.968 88.184 59.436 25.468 25.5 45.464 55.156 59.434 88.186 14.438 34.154 21.75 70.464 21.75 107.934 0 37.436-7.312 73.746-21.75 107.934-13.97 32.998-33.966 62.654-59.434 88.15z" fill="#F5BA45" /></svg>