<?xml version="1.0" standalone="no"?><!DOCTYPE svg PUBLIC "-//W3C//DTD SVG 1.1//EN" "http://www.w3.org/Graphics/SVG/1.1/DTD/svg11.dtd"><svg class="icon" width="128px" height="128.00px" viewBox="0 0 1024 1024" version="1.1" xmlns="http://www.w3.org/2000/svg"><path d="M832.019181 319.995181C832.019181 143.262738 688.706443 0 512.008 0 335.275557 0 192.012819 143.262738 192.012819 319.995181c0 104.687078 50.265557 197.636259 127.996872 255.995745v106.687061h384.384614v-106.937058c77.499317-58.421485 127.624876-151.230668 127.624876-255.745748z" fill="#E6E9ED" /><path d="M426.602752 613.990592c-11.795896 0-21.343812 9.561916-21.343812 21.343812v47.217584h42.671624V635.334404c0-11.781896-9.547916-21.343812-21.327812-21.343812zM512.008 613.990592c-11.781896 0-21.343812 9.561916-21.343812 21.343812v47.217584h42.671624V635.334404c0-11.781896-9.561916-21.343812-21.327812-21.343812zM597.333248 613.990592c-11.781896 0-21.309812 9.561916-21.309812 21.343812v47.217584h42.623625V635.334404c-0.002-11.781896-9.531916-21.343812-21.313813-21.343812z" fill="#CCD1D9" /><path d="M405.25894 298.667369m-63.999436 0a63.999436 63.999436 0 1 0 127.998872 0 63.999436 63.999436 0 1 0-127.998872 0Z" fill="#434A54" /><path d="M618.74106 298.667369m-63.999436 0a63.999436 63.999436 0 1 0 127.998872 0 63.999436 63.999436 0 1 0-127.998872 0Z" fill="#434A54" /><path d="M533.335812 426.666242h-42.671624c-11.781896 0-21.327812 9.545916-21.327812 21.327812s9.545916 21.341812 21.327812 21.341812h42.671624c11.781896 0 21.311812-9.561916 21.311812-21.341812s-9.529916-21.327812-21.311812-21.327812z" fill="#434A54" /><path d="M928.954327 942.2377c-11.123902-3.905966-23.281795 1.999982-27.155761 13.123885L136.24731 688.677934c3.875966-11.123902-1.999982-23.249795-13.123885-27.155761-11.123902-3.875966-23.295795 2.031982-27.17176 13.155884l-14.031877 40.281645c-3.875966 11.123902 1.999982 23.281795 13.123885 27.155761 11.139902 3.875966 23.295795-1.999982 27.17176-13.123884l765.553257 266.619651c-3.875966 11.123902 1.999982 23.311795 13.123884 27.187761s23.281795-1.999982 27.155761-13.123885l14.031877-40.311645c3.873966-11.125902-1.999982-23.281795-13.125885-27.125761z" fill="#CCD1D9" /><path d="M942.080212 714.957702l-14.031877-40.281645c-3.875966-11.123902-16.031859-17.03185-27.155761-13.155884-11.123902 3.905966-16.99985 16.031859-13.123884 27.155761L122.215433 955.363585c-3.875966-11.123902-16.031859-17.03185-27.17176-13.123885-11.123902 3.843966-16.99985 15.999859-13.123885 27.123761l14.031877 40.311645c3.875966 11.123902 16.045859 16.99985 27.17176 13.123885s16.99985-16.061859 13.123885-27.187761l765.551256-266.621651c3.875966 11.123902 16.031859 16.99985 27.155761 13.123884s16.99985-16.029859 13.125885-27.155761z" fill="#E6E9ED" /></svg>