<?xml version="1.0" standalone="no"?><!DOCTYPE svg PUBLIC "-//W3C//DTD SVG 1.1//EN" "http://www.w3.org/Graphics/SVG/1.1/DTD/svg11.dtd"><svg class="icon" width="128px" height="128.00px" viewBox="0 0 1024 1024" version="1.1" xmlns="http://www.w3.org/2000/svg"><path d="M821.291396 234.649542c-11.749977 0-21.307958 9.561981-21.307958 21.343958v85.339833c0 11.779977 9.557981 21.311958 21.307958 21.311959 11.811977 0 21.375958-9.531981 21.375958-21.311959v-85.339833c0-11.781977-9.561981-21.343958-21.375958-21.343958zM821.291396 383.98925c-11.749977 0-21.307958 9.561981-21.307958 21.341958v85.309834c0 11.795977 9.557981 21.343958 21.307958 21.343958 11.811977 0 21.375958-9.545981 21.375958-21.343958v-85.309834c0-11.781977-9.561981-21.341958-21.375958-21.341958z" fill="#434A54" /><path d="M266.672479 1013.326021c-41.18592 0-74.653854-33.499935-74.653854-74.687854V85.341833c0-41.18792 33.467935-74.685854 74.653854-74.685854h469.311084c41.18792 0 74.683854 33.497935 74.683854 74.685854V938.638167c0 41.18792-33.495935 74.687854-74.683854 74.687854H266.672479z" fill="#434A54" /><path d="M735.983563 0.016H266.672479c-47.123908 0-85.339833 38.201925-85.339833 85.325833V938.638167c0 47.123908 38.217925 85.343833 85.339833 85.343833h469.311084c47.123908 0 85.307833-38.217925 85.307833-85.343833V85.341833c0-47.123908-38.181925-85.325833-85.307833-85.325833z m63.999875 938.622167c0 35.311931-28.687944 63.999875-63.999875 63.999875H266.672479c-35.279931 0-63.997875-28.687944-63.997875-63.999875V85.341833c0-35.311931 28.717944-63.997875 63.997875-63.997875h469.311084c35.311931 0 63.999875 28.685944 63.999875 63.997875V938.638167z" fill="#656D78" /><path d="M202.674604 149.339708h597.308834v725.302584H202.674604z" fill="#48CFAD" /><path d="M671.987688 85.341833c0 11.779977-9.561981 21.309958-21.311959 21.309959-11.811977 0-21.375958-9.529981-21.375958-21.309959 0-11.781977 9.561981-21.343958 21.375958-21.343958 11.749977 0.002 21.311958 9.563981 21.311959 21.343958z" fill="#5D9CEC" /><path d="M586.675854 63.999875H352.012312c-11.811977 0-21.341958 9.561981-21.341958 21.343958 0 11.779977 9.531981 21.309958 21.341958 21.309959h234.663542c11.749977 0 21.311958-9.529981 21.311959-21.309959 0-11.781977-9.561981-21.343958-21.311959-21.343958z" fill="#656D78" /><path d="M387.950242 874.642292H614.739799c35.123931-31.281939 57.249888-76.80785 57.249889-127.433751 0-94.089816-76.56185-170.651667-170.635667-170.651667-94.121816 0-170.681667 76.56185-170.681667 170.651667-0.002 50.625901 22.153957 96.153812 57.277888 127.433751z" fill="#ED5564" /><path d="M281.76645 774.802487c8.311984 8.311984 8.311984 21.811957 0 30.155941a21.335958 21.335958 0 0 1-30.185941 0c-8.311984-8.343984-8.311984-21.843957 0-30.155941a21.329958 21.329958 0 0 1 30.185941 0zM751.109533 774.802487c8.311984 8.311984 8.311984 21.811957 0 30.155941-8.375984 8.339984-21.875957 8.339984-30.187941 0-8.311984-8.343984-8.311984-21.843957 0-30.155941 8.311984-8.343984 21.811957-8.343984 30.187941 0z" fill="#434A54" /><path d="M637.737754 768.552499l-132.635741 7.437985-174.211659-20.781959c2.187996 47.405907 23.811953 89.807825 57.059888 119.433767H614.739799c33.623934-29.967941 55.375892-73.027857 57.123889-121.089764l-34.125934 14.999971z" fill="#E6E9ED" /><path d="M650.675729 960.544124H352.012312c-11.779977 0-21.341958-9.561981-21.341958-21.343958 0-11.777977 9.561981-21.339958 21.341958-21.339959h298.663417c11.749977 0 21.311958 9.561981 21.311959 21.339959 0 11.781977-9.561981 21.343958-21.311959 21.343958z" fill="#656D78" /><path d="M669.925692 773.834489a169.941668 169.941668 0 0 0 2.061996-26.623948c0-5.781989-0.25-11.467978-0.811999-17.093967-30.311941 5.937988-96.687811 17.093967-169.291669 17.093967-72.747858 0-139.837727-11.187978-170.337668-17.155967a173.405661 173.405661 0 0 0-0.875998 17.155967c0 9.031982 0.717999 17.905965 2.093996 26.561948 35.155931 6.499987 98.997807 16.093969 169.11967 16.093968 69.915863 0 133.10374-9.531981 168.041672-16.031968z" fill="#434A54" /><path d="M544.617936 768.552499c0 23.561954-19.077963 42.651917-42.639916 42.651917s-42.653917-19.089963-42.653917-42.651917 19.091963-42.687917 42.653917-42.687917c23.561954 0.002 42.639917 19.125963 42.639916 42.687917z" fill="#E6E9ED" /><path d="M501.97602 832.548374c-35.279931 0-63.997875-28.713944-63.997875-63.995875 0-35.311931 28.717944-63.999875 63.997875-63.999875 35.281931 0 64.011875 28.687944 64.011875 63.999875 0 35.281931-28.729944 63.995875-64.011875 63.995875z m0-85.339833c-11.779977 0-21.341958 9.561981-21.341959 21.343958 0 11.749977 9.561981 21.311958 21.341959 21.311958 11.749977 0 21.343958-9.561981 21.343958-21.311958 0-11.779977-9.593981-21.343958-21.343958-21.343958z" fill="#434A54" /><path d="M696.48364 234.071543c-1.561997-5.593989-5.24999-10.32798-10.37598-13.123975a21.269958 21.269958 0 0 0-16.621968-1.609996c-2.061996 0.639999-50.811901 16.201968-98.123808 45.591911-33.949934 21.107959-56.07389 42.497917-70.041863 62.903877-18.091965-26.281949-44.997912-47.357908-70.027863-62.903877-47.279908-29.389943-96.027812-44.951912-98.089809-45.591911a21.353958 21.353958 0 0 0-16.655967 1.609996 21.399958 21.399958 0 0 0-10.34398 13.123975c-11.655977 42.795916 17.655966 88.623827 87.08983 136.213734 47.153908 32.327937 96.215812 54.185894 98.277808 55.107892 2.749995 1.217998 5.687989 1.827996 8.623983 1.827997 0.375999 0 0.749999-0.016 1.123998-0.032a21.275958 21.275958 0 0 0 9.779981-1.795997c2.061996-0.921998 51.1359-22.779956 98.261808-55.107892 69.439864-47.591907 98.749807-93.417818 87.12383-136.213734z" fill="#F6BB42" /><path d="M621.549786 407.707204c-0.875998-13.217974-4.749991-50.169902-20.24996-69.123865-29.811942-36.513929-82.823838-39.357923-98.355808-39.357923-0.687999 0-1.217998 0-1.623997 0.016-0.375999-0.016-0.905998-0.016-1.591997-0.016-6.061988 0-22.155957 0.499999-40.467921 5.15599-25.091951 6.389988-44.591913 17.889965-57.903887 34.201933-15.49997 18.951963-19.343962 55.903891-20.21796 69.123865-2.561995 7.295986-7.623985 24.279953-7.779985 43.857914-0.281999 36.747928 17.185966 64.215875 49.153904 77.371849 55.215892 22.717956 72.529858 25.905949 77.435849 26.249949l1.373997 0.062 1.405997-0.062c4.90599-0.343999 22.217957-3.531993 77.449849-26.249949 31.937938-13.155974 49.437903-40.623921 49.123904-77.371849-0.126-19.577962-5.18799-36.563929-7.751985-43.857914z" fill="#FFCE54" /><path d="M473.758075 390.801237c8.311984 8.327984 8.311984 21.841957 0 30.169941-8.341984 8.327984-21.841957 8.327984-30.185941 0-8.311984-8.327984-8.311984-21.841957 0-30.169941 8.343984-8.327984 21.843957-8.327984 30.185941 0zM559.117908 390.801237c8.307984 8.327984 8.307984 21.841957 0 30.169941-8.375984 8.327984-21.859957 8.327984-30.203941 0-8.311984-8.327984-8.311984-21.841957 0-30.169941 8.343984-8.327984 21.827957-8.327984 30.203941 0z" fill="#434A54" /><path d="M501.352021 576.556874c-3.591993 0-7.155986 0.124-10.685979 0.343999 89.135826 5.499989 160.009687 79.781844 160.009687 170.307668 0 50.623901-22.187957 96.151812-57.249888 127.433751h21.311958c35.123931-31.281939 57.249888-76.80785 57.249889-127.433751 0-94.087816-76.56185-170.651667-170.635667-170.651667z" fill="#FFFFFF" opacity=".2" /></svg>