<?xml version="1.0" standalone="no"?><!DOCTYPE svg PUBLIC "-//W3C//DTD SVG 1.1//EN" "http://www.w3.org/Graphics/SVG/1.1/DTD/svg11.dtd"><svg class="icon" width="128px" height="128.00px" viewBox="0 0 1024 1024" version="1.1" xmlns="http://www.w3.org/2000/svg"><path d="M463.096 399.098c-8.344 8.328-21.844 8.328-30.156 0-8.344-8.342-8.344-21.842 0-30.17 8.312-8.344 21.812-8.344 30.156 0 8.342 8.326 8.342 21.826 0 30.17z"  /><path d="M1002.672 0.016H21.36C9.58 0.016 0.018 9.562 0.018 21.344v981.328c0 11.75 9.562 21.312 21.342 21.312h981.312c11.782 0 21.312-9.562 21.312-21.312V21.344c0-11.78-9.53-21.328-21.312-21.328z" fill="#A0D468" /><path d="M216.198 1023.984H741.68L1023.984 897.8V661.058z" fill="#434A54" /><path d="M763.18 0.016l45.996 102.966 88.188 197.352 126.62-56.576V21.344L1002.672 0.016zM21.36 0.016C9.58 0.016 0.018 9.562 0.018 21.344v120.668L323.88 0.016H21.36z" fill="#FFCE54" /><path d="M620.934 256.04c-40.844-41.28-94.652-64.014-151.588-64.014-56.936 0-110.778 22.734-151.588 64.014-40.406 40.874-62.654 94.23-62.654 150.23 0 61.53 29.686 105.95 67.31 162.168 30.968 46.308 69.466 103.902 102.09 188.93 4.438 12 18.718 31.938 44.842 31.938 25.968 0 40.31-18.906 44.716-30.094l0.062-0.218c32.75-86.09 71.434-144.152 102.496-190.804 37.406-56.186 66.964-100.56 66.964-161.918 0.002-56.002-22.244-109.358-62.65-150.232z" fill="#ED5564" /><path d="M255.102 406.27c0 61.53 29.686 105.95 67.31 162.168 30.968 46.308 69.466 103.902 102.09 188.93 4.438 12 18.718 31.938 44.842 31.938 25.968 0 40.31-18.906 44.716-30.094l0.062-0.218c32.75-86.09 71.434-144.152 102.496-190.804 37.406-56.186 66.964-100.56 66.964-161.918v-0.938h-428.48v0.936z" fill="#E6E9ED" /><path d="M255.102 406.27c0 7.014 0.406 13.796 1.124 20.406h426.238c0.714-6.61 1.122-13.39 1.122-20.406 0-7.468-0.406-14.906-1.184-22.264H256.29a210.73 210.73 0 0 0-1.188 22.264z" fill="#434A54" /><path d="M533.344 406.27c0 35.358-28.656 63.998-63.998 63.998s-63.998-28.638-63.998-63.998c0-35.342 28.656-63.998 63.998-63.998s63.998 28.654 63.998 63.998z" fill="#E6E9ED" /><path d="M469.346 491.61c-47.062 0-85.342-38.28-85.342-85.34 0-47.046 38.28-85.326 85.342-85.326 47.06 0 85.342 38.28 85.342 85.326 0 47.062-38.282 85.34-85.342 85.34z m0-127.996c-23.532 0-42.656 19.14-42.656 42.656 0 23.53 19.124 42.67 42.656 42.67 23.53 0 42.654-19.14 42.654-42.67 0-23.516-19.124-42.656-42.654-42.656z" fill="#434A54" /><path d="M620.934 256.04c-40.844-41.28-94.652-64.014-151.588-64.014-3.562 0-7.124 0.094-10.656 0.266 52.936 2.656 102.65 25.062 140.9 63.748 40.406 40.874 62.656 94.23 62.656 150.23 0 61.358-29.532 105.732-66.968 161.918-31.062 46.652-69.714 104.714-102.464 190.804l-0.094 0.218c-3.75 9.532-14.718 24.656-33.936 28.938 3.282 0.75 6.782 1.156 10.562 1.156 25.968 0 40.31-18.906 44.716-30.094l0.062-0.218c32.75-86.09 71.434-144.152 102.496-190.804 37.406-56.186 66.964-100.56 66.964-161.918 0.002-56-22.244-109.356-62.65-150.23z" fill="#FFFFFF" opacity=".2" /></svg>