<?xml version="1.0" standalone="no"?><!DOCTYPE svg PUBLIC "-//W3C//DTD SVG 1.1//EN" "http://www.w3.org/Graphics/SVG/1.1/DTD/svg11.dtd"><svg class="icon" width="128px" height="128.00px" viewBox="0 0 1024 1024" version="1.1" xmlns="http://www.w3.org/2000/svg"><path d="M938.662 384.004H85.338c-35.282 0-63.998 28.718-63.998 63.998C21.34 483.298 50.056 512 85.338 512h853.324c35.248 0 63.998-28.702 63.998-63.998 0-35.28-28.75-63.998-63.998-63.998z" fill="#5D9CEC" /><path d="M813.668 124.984C733.108 44.392 625.958 0.02 511.992 0.02s-221.1 44.374-301.676 124.964c-80.59 80.574-124.962 187.71-124.962 301.674v320.018c0 11.75 9.546 21.312 21.326 21.312h810.61c11.812 0 21.342-9.562 21.342-21.312V426.66c-0.002-113.964-44.374-221.102-124.964-301.676z" fill="#656D78" /><path d="M813.668 124.984C733.108 44.392 625.958 0.02 511.992 0.02s-221.1 44.374-301.676 124.964c-80.59 80.574-124.962 187.71-124.962 301.674v42.67c0-113.964 44.374-221.1 124.962-301.692 80.576-80.576 187.71-124.95 301.676-124.95S733.108 87.06 813.668 167.636c80.59 80.59 124.962 187.728 124.962 301.692V426.66c0-113.964-44.372-221.102-124.962-301.676z" fill="#FFFFFF" opacity=".1" /><path d="M810.668 384.004H213.332c-35.28 0-63.996 28.718-63.996 63.998v469.292c0 12.282 4.342 30.5 25.014 47.75 14.826 12.344 36.654 22.906 64.856 31.376 60.966 18.28 152.744 27.56 272.788 27.56 120.056 0 211.804-9.282 272.8-27.56 28.188-8.468 49.998-19.032 64.842-31.376 20.654-17.25 25.03-35.468 25.03-47.75V448.002c-0.002-35.28-28.75-63.998-63.998-63.998z" fill="#5D9CEC" /><path d="M85.354 426.66v0.016h853.278v-0.016c0-14.342-0.718-28.578-2.094-42.654H87.448a433.412 433.412 0 0 0-2.094 42.654z" fill="#434A54" /><path d="M508.774 1023.98l154.65-596.18h-148.198l-153.072 590.118c42.732 3.938 91.7 6 146.62 6.062z" fill="#FFFFFF" opacity=".1" /></svg>