<?xml version="1.0" standalone="no"?><!DOCTYPE svg PUBLIC "-//W3C//DTD SVG 1.1//EN" "http://www.w3.org/Graphics/SVG/1.1/DTD/svg11.dtd"><svg class="icon" width="128px" height="128.00px" viewBox="0 0 1024 1024" version="1.1" xmlns="http://www.w3.org/2000/svg"><path d="M539.186 861.952L350.6 673.396c-4-4-9.406-6.25-15.062-6.25s-11.094 2.25-15.094 6.25l-45.248 45.248a21.33 21.33 0 0 0 0 30.186l188.554 188.554a53.02 53.02 0 0 0 37.718 15.624c14.248 0 27.624-5.562 37.716-15.624 20.782-20.78 20.782-54.62 0.002-75.432z" fill="#434A54" /><path d="M1023.98 64.014c0-17.094-6.656-33.17-18.718-45.248-12.094-12.094-28.188-18.75-45.28-18.75-17.094 0-33.154 6.656-45.248 18.75L18.738 914.76C6.676 926.854 0.02 942.916 0.02 960.01s6.656 33.156 18.718 45.248c24.968 24.966 65.56 24.966 90.528 0L1005.262 109.262c12.062-12.076 18.718-28.154 18.718-45.248z" fill="#656D78" /><path d="M410.94 884.608l30.186 30.152 75.434-75.434-30.184-30.156zM350.6 824.264l30.186 30.156 75.434-75.436-30.186-30.154z" opacity=".2" /><path d="M305.352 628.148L18.738 914.76C6.676 926.854 0.02 942.916 0.02 960.01s6.656 33.156 18.718 45.248c24.968 24.966 65.56 24.966 90.528 0L395.88 718.644l-90.528-90.496z" fill="#ED5564" /><path d="M33.832 899.668l90.528 90.53 30.154-30.188-90.496-90.496zM94.172 839.326l90.496 90.528 30.186-30.186-90.526-90.498zM154.514 778.984l90.496 90.53 30.186-30.188-90.528-90.496zM214.854 718.644l90.498 90.526 30.186-30.186-90.528-90.494z" fill="#DA4453" /><path d="M15.082 975.104c0-17.094 6.656-33.188 18.75-45.25L929.828 33.844c12.092-12.078 28.154-18.75 45.246-18.75 13.5 0 26.312 4.156 37.094 11.844a67.148 67.148 0 0 0-6.906-8.172c-12.094-12.094-28.188-18.75-45.28-18.75-17.094 0-33.154 6.656-45.248 18.75L18.738 914.76C6.676 926.854 0.02 942.916 0.02 960.01s6.656 33.156 18.718 45.248a62.9 62.9 0 0 0 8.188 6.906c-7.688-10.75-11.844-23.592-11.844-37.06z" fill="#FFFFFF" opacity=".1" /></svg>