<?xml version="1.0" standalone="no"?><!DOCTYPE svg PUBLIC "-//W3C//DTD SVG 1.1//EN" "http://www.w3.org/Graphics/SVG/1.1/DTD/svg11.dtd"><svg class="icon" width="128px" height="128.00px" viewBox="0 0 1024 1024" version="1.1" xmlns="http://www.w3.org/2000/svg"><path d="M874.672 384.004h-63.996c-11.812 0-21.376 9.546-21.376 21.328v127.996c0 11.794 9.562 21.358 21.376 21.358h63.996c11.75 0 21.312-9.562 21.312-21.358v-127.996c0-11.782-9.562-21.328-21.312-21.328zM213.34 384.004H149.344c-11.782 0-21.328 9.546-21.328 21.328v127.996c0 11.794 9.546 21.358 21.328 21.358h63.996c11.782 0 21.344-9.562 21.344-21.358v-127.996c0-11.782-9.562-21.328-21.344-21.328z" fill="#CCD1D9" /><path d="M748.052 27.786C692.806 9.364 613.372 0.02 512 0.02c-101.386 0-180.804 9.344-236.068 27.766-69.358 23.108-83.92 55.67-83.92 78.902v810.608c0 23.25 14.562 55.812 83.92 78.938 55.264 18.404 134.682 27.748 236.068 27.748 101.372 0 180.806-9.344 236.052-27.748 69.374-23.124 83.934-55.688 83.934-78.938V106.688c0-23.232-14.56-55.796-83.934-78.902zM384.006 448.002c-11.782 0-21.328-9.546-21.328-21.328s9.546-21.342 21.328-21.342c11.78 0 21.326 9.562 21.326 21.342s-9.546 21.328-21.326 21.328z m42.67 85.326c-11.782 0-21.344-9.546-21.344-21.328s9.562-21.328 21.344-21.328c11.78 0 21.326 9.546 21.326 21.328s-9.546 21.328-21.326 21.328z m42.654-85.326c-11.782 0-21.328-9.546-21.328-21.328s9.546-21.342 21.328-21.342 21.342 9.562 21.342 21.342-9.56 21.328-21.342 21.328zM512 533.328c-11.782 0-21.328-9.546-21.328-21.328s9.546-21.328 21.328-21.328c11.78 0 21.326 9.546 21.326 21.328S523.78 533.328 512 533.328z m42.686-85.326c-11.796 0-21.36-9.546-21.36-21.328s9.562-21.342 21.36-21.342c11.75 0 21.312 9.562 21.312 21.342s-9.562 21.328-21.312 21.328z m42.624 85.326c-11.75 0-21.312-9.546-21.312-21.328s9.562-21.328 21.312-21.328c11.81 0 21.374 9.546 21.374 21.328s-9.562 21.328-21.374 21.328z m42.684-85.326c-11.782 0-21.31-9.546-21.31-21.328s9.53-21.342 21.31-21.342 21.312 9.562 21.312 21.342-9.53 21.328-21.312 21.328z" fill="#656D78" /><path d="M256.01 917.294c-11.782 0-21.326-9.53-21.326-21.31V128.016c0-11.782 9.544-21.328 21.326-21.328s21.328 9.546 21.328 21.328v767.968c0 11.782-9.546 21.31-21.328 21.31zM767.988 917.294a21.294 21.294 0 0 1-21.31-21.31V128.016c0-11.782 9.53-21.328 21.31-21.328s21.312 9.546 21.312 21.328v767.968a21.296 21.296 0 0 1-21.312 21.31z" fill="#FFFFFF" opacity=".1" /><path d="M639.994 213.338H384.006c-35.296 0-63.998 28.718-63.998 63.998 0 35.296 28.702 63.998 63.998 63.998h255.988c35.312 0 64-28.702 64-63.998 0-35.278-28.688-63.998-64-63.998z" fill="#5D9CEC" /><path d="M490.672 213.338l-42.67 127.996h85.324l42.672-127.996z" fill="#FFFFFF" opacity=".1" /></svg>