<?xml version="1.0" standalone="no"?><!DOCTYPE svg PUBLIC "-//W3C//DTD SVG 1.1//EN" "http://www.w3.org/Graphics/SVG/1.1/DTD/svg11.dtd"><svg class="icon" width="128px" height="128.00px" viewBox="0 0 1024 1024" version="1.1" xmlns="http://www.w3.org/2000/svg"><path d="M490.672 319.102H405.3c-11.78 0-21.326 9.56-21.326 21.342v72.03c0 11.78 9.546 21.342 21.326 21.342h85.372c11.782 0 21.328-9.562 21.328-21.342v-72.03c0-11.782-9.546-21.342-21.328-21.342z" fill="#ED5564" /><path d="M148.874 555.124s79.012-149.338 299.128-149.338c220.118 0 298.708 149.4 298.708 149.4 255.958 0 255.958 0 255.958 234.552H106.688c-39.404 0.312-85.34-42.186-85.34-42.186v-149.806l42.67-42.624h84.856z" fill="#5D9CEC" /><path d="M732.522 533.876c-31.214-41.282-116.712-128.09-284.52-128.09-167.884 0-253.678 86.84-284.942 128.09h569.462z" fill="#4FC2E9" /><path d="M384.004 414.816h42.67v119.058h-42.67z" fill="#3BAFDA" /><path d="M106.282 811.112c-46.326 0-94.122-42.996-99.418-47.872a21.464 21.464 0 0 1-6.844-15.688v-149.806c0-5.624 2.25-11.062 6.25-15.06l42.67-42.654c4-4 9.422-6.25 15.078-6.25h72.934c9.954-15 30.968-42.624 65.716-70.092 45.78-36.156 125.51-79.248 245.334-79.248 119.84 0 199.46 43.154 245.148 79.31 34.654 27.466 55.59 55.092 65.494 70.124 125.402 0.032 189.462 1.032 226.43 34.874 38.906 35.686 38.906 97.622 38.906 220.99 0 11.81-9.562 21.31-21.312 21.31l-896.386 0.062z m-63.592-73.37c14.594 11.686 42.578 30.686 63.576 30.686h875.028c-0.094-93.996-1.688-146.806-25.06-168.182-25.874-23.748-91.124-23.748-209.524-23.748-7.906 0-15.218-4.376-18.904-11.376-0.124-0.312-19.03-35.06-62.81-69.216-58.498-45.654-131.496-68.78-216.992-68.78-85.512 0-158.602 23.124-217.226 68.748-43.89 34.156-62.904 68.936-63.09 69.248-3.688 7-10.906 11.312-18.812 11.312H72.86L42.69 606.62v131.122z" fill="#5D9CEC" /><path d="M136.968 533.876h621.676v277.206H136.968z" fill="#F5F7FA" /><path d="M234.682 662.244c-58.826 0-106.668 47.81-106.668 106.622 0 58.872 47.842 106.684 106.668 106.684 58.81 0 106.652-47.812 106.652-106.684 0-58.812-47.842-106.622-106.652-106.622zM789.3 662.244c-58.81 0-106.62 47.81-106.62 106.622 0 58.872 47.808 106.684 106.62 106.684 58.842 0 106.684-47.812 106.684-106.684 0-58.812-47.842-106.622-106.684-106.622z" fill="#434A54" /><path d="M213.338 768.866c0 11.81 9.562 21.374 21.344 21.374 11.78 0 21.328-9.562 21.328-21.374 0-11.75-9.546-21.312-21.328-21.312-11.78-0.002-21.344 9.562-21.344 21.312zM767.988 768.866c0 11.81 9.562 21.374 21.312 21.374a21.366 21.366 0 0 0 21.376-21.374c0-11.75-9.562-21.312-21.376-21.312-11.75-0.002-21.312 9.562-21.312 21.312zM1018.106 639.746c-2.624-16.312-6.438-30.124-12-42h-67.748c-11.78 0-21.31 9.562-21.31 21.376 0 11.75 9.532 21.312 21.31 21.312h74.498c1.812 0 3.562-0.25 5.25-0.688z" fill="#F5F7FA" /><path d="M64.018 533.782a21.324 21.324 0 0 0-15.078 6.25L6.27 582.686a21.334 21.334 0 0 0-6.25 15.06h63.998c11.78 0 21.328-9.562 21.328-21.31v-42.654H64.018z" fill="#ED5564" /><path d="M447.798 276.446c-11.782 0-21.342-9.562-21.342-21.342V169.794c0-11.782 9.562-21.344 21.342-21.344s21.328 9.562 21.328 21.344v85.308c0 11.78-9.546 21.344-21.328 21.344zM362.662 308.446c-3.624 0-7.282-0.906-10.656-2.876l-73.888-42.654c-10.204-5.876-13.702-18.938-7.812-29.124 5.89-10.218 18.938-13.718 29.14-7.812l73.904 42.654c10.202 5.906 13.702 18.938 7.812 29.156-3.954 6.842-11.124 10.656-18.5 10.656zM533.358 308.446c-7.376 0-14.546-3.812-18.498-10.656-5.89-10.218-2.39-23.25 7.81-29.156l73.89-42.654c10.216-5.906 23.248-2.406 29.154 7.812 5.904 10.188 2.404 23.25-7.812 29.124l-73.904 42.686a21.152 21.152 0 0 1-10.64 2.844z" fill="#DA4453" /><path d="M574.966 648.496c-2.532-7.718-9.188-13.376-17.218-14.5l-33.124-4.812-14.81-30.032a21.356 21.356 0 0 0-19.14-11.906 21.35 21.35 0 0 0-19.124 11.906l-14.812 30.032-33.124 4.812c-8.032 1.124-14.718 6.782-17.218 14.5a21.348 21.348 0 0 0 5.39 21.874l23.968 23.376-5.656 32.966c-1.376 8 1.92 16.094 8.484 20.874a21.414 21.414 0 0 0 12.546 4.062c3.39 0 6.796-0.812 9.92-2.468l29.624-15.56 29.624 15.56c3.14 1.688 6.562 2.468 10 2.468 11.766-0.032 21.296-9.56 21.296-21.342 0-1.624-0.188-3.188-0.532-4.718l-5.468-31.842 23.968-23.376a21.38 21.38 0 0 0 5.406-21.874z" fill="#FFCE54" /><path d="M190.574 533.876c9.89-11.406 23.17-24.75 40.202-38 58.624-45.624 131.714-68.748 217.242-68.748 85.496 0 158.478 23.124 216.976 68.78 17 13.25 30.218 26.594 40.062 37.968h53.588c-9.904-15.032-30.84-42.656-65.494-70.124-45.688-36.156-125.308-79.31-245.132-79.31-119.838 0-199.554 43.092-245.35 79.248-34.748 27.466-55.762 55.092-65.7 70.092v0.094h53.606z" fill="#F5F7FA" /></svg>