<?xml version="1.0" standalone="no"?><!DOCTYPE svg PUBLIC "-//W3C//DTD SVG 1.1//EN" "http://www.w3.org/Graphics/SVG/1.1/DTD/svg11.dtd"><svg class="icon" width="128px" height="128.00px" viewBox="0 0 1024 1024" version="1.1" xmlns="http://www.w3.org/2000/svg"><path d="M860.58 737.274l-338.658-122.872a21.268 21.268 0 0 0-14.452-0.032L163.5 737.242a21.336 21.336 0 0 0-13.734 24.28c3.328 16.624 21.232 44.278 60.762 67.528 63.482 37.344 164.916 56.28 301.474 56.28s237.99-18.936 301.458-56.28c39.528-23.25 57.434-50.904 60.778-67.528a21.368 21.368 0 0 0-13.658-24.248z" fill="#434A54" /><path d="M813.458 807.706c-63.466 37.344-164.9 56.282-301.458 56.282s-237.992-18.938-301.474-56.282C176.216 787.52 158.2 764.022 151.874 747.304a21.304 21.304 0 0 0-2.11 14.218c3.328 16.624 21.232 44.278 60.762 67.528 63.482 37.344 164.916 56.28 301.474 56.28s237.99-18.936 301.458-56.28c39.528-23.25 57.434-50.904 60.778-67.528 1-5 0.156-10-2.124-14.218-6.314 16.718-24.342 40.216-58.654 60.402z" fill="#656D78" /><path d="M1021.732 534.454l-127.996-255.992a21.382 21.382 0 0 0-12-10.578L519.094 139.89a21.262 21.262 0 0 0-14.186 0L142.25 267.884a21.424 21.424 0 0 0-12.016 10.64L2.24 536.61a21.364 21.364 0 0 0 3.14 23.638l149.338 168.556a21.356 21.356 0 0 0 15.968 7.188h682.612c6.156 0 12-2.656 16.062-7.282l149.34-170.65a21.392 21.392 0 0 0 3.032-23.606z" fill="#4A89DC" /><path d="M779.834 531.938C731.118 508.234 645.122 480 512.002 480c-236.632 0-362.658 86.716-362.658 149.338v127.994c0 7.094 3.532 13.718 9.436 17.686a21.266 21.266 0 0 0 19.936 2.062c1.016-0.406 103.622-41.09 333.284-41.09 228.24 0 332.298 40.714 333.33 41.122 2.562 1.032 5.28 1.532 7.966 1.532 4.188 0 8.344-1.218 11.906-3.624a21.296 21.296 0 0 0 9.438-17.686V629.34c0.002-31.626-36.34-68.936-94.806-97.402z" fill="#5D9CEC" /><path d="M865.206 732.368a21.25 21.25 0 0 1-11.906 3.624c-2.688 0-5.404-0.5-7.966-1.562-1.032-0.406-105.09-41.092-333.33-41.092-229.664 0-332.268 40.686-333.284 41.092a21.354 21.354 0 0 1-19.936-2.062 21.314 21.314 0 0 1-9.436-17.718v42.686c0 7.094 3.532 13.718 9.436 17.686a21.266 21.266 0 0 0 19.936 2.062c1.016-0.406 103.622-41.09 333.284-41.09 228.24 0 332.298 40.714 333.33 41.122 2.562 1.032 5.28 1.532 7.966 1.532 4.188 0 8.344-1.218 11.906-3.624a21.296 21.296 0 0 0 9.438-17.686v-42.686a21.324 21.324 0 0 1-9.438 17.716z" fill="#FFCE54" /><path d="M258.918 486.142a21.328 21.328 0 0 0 17.64 9.296c4.14 0 8.328-1.204 12.016-3.718 9.718-6.64 12.218-19.92 5.578-29.638L157.72 262.434l-15.468 5.452a21.424 21.424 0 0 0-12.016 10.64l-5.546 11.204 134.228 196.412zM893.736 278.462a21.382 21.382 0 0 0-12-10.578l-15.406-5.436-137.244 199.57c-6.686 9.718-4.216 23 5.468 29.67a21.274 21.274 0 0 0 12.062 3.75 21.34 21.34 0 0 0 17.624-9.234l135.122-196.476-5.626-11.266z" fill="#5D9CEC" /><path d="M514.548 457.752c11.452-9.078 14.53-11.5 38.108-17.344 17.282-4.296 30.906-11.92 40.532-22.67 9.56-10.718 14.592-24.39 14.592-39.546 0-10.828-5.062-19.888-10.404-29.466-3.312-5.89-7.032-12.516-9.968-20.328-7.718-20.436 0.812-29.124 9.876-38.31l8.186-8.328c0.718-0.75 1.124-1.688 1.124-2.688 0-1.14-0.5-2.188-1.406-2.938l-0.876-0.734-43.28-35.686a4.14 4.14 0 0 0-3.062-1.124 4.068 4.068 0 0 0-2.624 1.188c-1.718 1.876-3.344 3.688-4.032 4.468l-1.376 1.61c-3.812 4.454-8.11 9.484-14.156 9.484-6.656 0-12.14-6.108-16.578-11.014a66.66 66.66 0 0 0-4.654-4.688l-0.188-0.156c-0.828-0.594-1.578-0.86-2.376-0.89a4.06 4.06 0 0 0-2.376 0.922 66.152 66.152 0 0 0-4.796 4.796c-4.438 4.922-9.938 11.03-16.594 11.03-6.046 0-10.358-5.046-14.17-9.514l-1.36-1.594c-0.688-0.766-2.312-2.578-3.906-4.328-1.75-1.75-4.204-1.672-5.718-0.282l-43.67 36.014-0.594 0.5a3.85 3.85 0 0 0-1.39 2.938c0 1 0.406 1.954 1.11 2.688l8.204 8.328c9.062 9.188 17.592 17.874 9.874 38.31-2.954 7.812-6.656 14.438-9.952 20.296-5.376 9.61-10.438 18.67-10.438 29.498 0 15.156 5.046 28.828 14.624 39.546 9.592 10.75 23.234 18.374 40.514 22.67 23.578 5.844 26.656 8.266 38.078 17.312 0.734 0.61 2.624 0.938 2.624 0.938 0.92-0.018 1.796-0.33 2.498-0.908z" fill="#FFCE54" /></svg>