<?xml version="1.0" standalone="no"?><!DOCTYPE svg PUBLIC "-//W3C//DTD SVG 1.1//EN" "http://www.w3.org/Graphics/SVG/1.1/DTD/svg11.dtd"><svg class="icon" width="128px" height="126.15px" viewBox="0 0 1039 1024" version="1.1" xmlns="http://www.w3.org/2000/svg"><path d="M1002.64 1023.976H21.358c-11.782 0-21.342-9.5-21.342-21.312V448.01c0-11.782 9.562-21.328 21.342-21.328H1002.64c11.782 0 21.344 9.546 21.344 21.328v554.654c0 11.812-9.562 21.312-21.344 21.312z" fill="#5D9CEC" /><path d="M1017.734 432.932l-85.34-85.342c-4-4-9.406-6.248-15.062-6.248H106.668a21.286 21.286 0 0 0-15.062 6.248L6.264 432.932A21.324 21.324 0 0 0 1.64 456.182a21.354 21.354 0 0 0 19.718 13.156H1002.64a21.32 21.32 0 1 0 15.094-36.406z" fill="#4A89DC" /><path d="M618.652 639.988H405.346c-11.78 0-21.342 9.562-21.342 21.376v362.614h255.992V661.364c0-11.814-9.562-21.376-21.344-21.376z" fill="#E6E9ED" /><path d="M106.668 661.364h213.338v170.62H106.668z" fill="#434A54" /><path d="M170.666 853.358c-11.78 0-21.312-9.562-21.312-21.376v-170.62c0-11.812 9.532-21.376 21.312-21.376 11.782 0 21.344 9.562 21.344 21.376v170.62c0 11.812-9.562 21.376-21.344 21.376z" fill="#CCD1D9" /><path d="M703.994 661.364h213.338v170.62H703.994z" fill="#434A54" /><path d="M256.008 853.358c-11.782 0-21.342-9.562-21.342-21.376v-170.62c0-11.812 9.562-21.376 21.342-21.376s21.342 9.562 21.342 21.376v170.62c0 11.812-9.56 21.376-21.342 21.376zM767.992 853.358c-11.782 0-21.344-9.562-21.344-21.376v-170.62c0-11.812 9.562-21.376 21.344-21.376s21.344 9.562 21.344 21.376v170.62c0 11.812-9.562 21.376-21.344 21.376zM853.332 853.358c-11.78 0-21.342-9.562-21.342-21.376v-170.62c0-11.812 9.562-21.376 21.342-21.376 11.782 0 21.312 9.562 21.312 21.376v170.62c0 11.812-9.53 21.376-21.312 21.376z" fill="#CCD1D9" /><path d="M320.006 853.358H106.668c-11.78 0-21.312-9.562-21.312-21.376v-170.62c0-11.812 9.532-21.376 21.312-21.376h213.338c11.782 0 21.342 9.562 21.342 21.376v170.62c0 11.812-9.56 21.376-21.342 21.376z m-191.994-42.686h170.652v-127.998H128.012v127.998zM917.332 853.358H703.994c-11.782 0-21.344-9.562-21.344-21.376v-170.62c0-11.812 9.562-21.376 21.344-21.376h213.338c11.782 0 21.312 9.562 21.312 21.376v170.62c0 11.812-9.53 21.376-21.312 21.376z m-191.996-42.686h170.652v-127.998h-170.652v127.998zM917.332 554.678H106.668c-11.78 0-21.312-9.562-21.312-21.342 0-11.782 9.532-21.344 21.312-21.344h810.664c11.782 0 21.312 9.562 21.312 21.344 0 11.78-9.53 21.342-21.312 21.342z" fill="#4A89DC" /><path d="M469.346 831.982c0 11.812-9.562 21.376-21.344 21.376-11.78 0-21.342-9.562-21.342-21.376 0-11.748 9.562-21.31 21.342-21.31 11.782 0 21.344 9.562 21.344 21.31z" fill="#434A54" /><path d="M851.676 469.338c0-9.25-5.906-17.14-14.154-20.094l-318.428-127.7a21.294 21.294 0 0 0-15.874 0L184.072 449.542a21.284 21.284 0 0 0-13.376 19.796h680.98z" fill="#E6E9ED" /><path d="M511.156 341.342c-94.09 0-170.652-76.56-170.652-170.652 0-94.108 76.56-170.666 170.652-170.666 94.09 0 170.65 76.558 170.65 170.666 0 94.092-76.56 170.652-170.65 170.652z" fill="#FFCE54" /><path d="M629.34 142.298a21.336 21.336 0 0 0-17.218-14.514l-55.966-8.124-25.03-50.716a21.32 21.32 0 1 0-38.248 0L467.846 119.66l-55.968 8.124a21.334 21.334 0 0 0-17.218 14.514 21.37 21.37 0 0 0 5.406 21.876l40.498 39.468-9.562 55.732a21.314 21.314 0 0 0 30.936 22.482L512 255.546l50.06 26.31a21.322 21.322 0 0 0 9.906 2.454h0.062c11.78-0.016 21.31-9.562 21.31-21.326 0-1.624-0.188-3.218-0.532-4.734l-9.376-54.608 40.5-39.468a21.362 21.362 0 0 0 5.41-21.876z" fill="#F6BB42" /></svg>