<?xml version="1.0" standalone="no"?><!DOCTYPE svg PUBLIC "-//W3C//DTD SVG 1.1//EN" "http://www.w3.org/Graphics/SVG/1.1/DTD/svg11.dtd"><svg class="icon" width="128px" height="128.00px" viewBox="0 0 1024 1024" version="1.1" xmlns="http://www.w3.org/2000/svg"><path d="M920.61 815.298l-3.624-1.062c-52.968-14.248-70.874-27.904-94.466-36.874-83.622-31.874-105.37-54.808-110.932-65.684-0.218-0.376-0.376-0.812-0.562-1.188l-0.686-97.122-198.34-2.246-198.336 2.25-0.688 97.122c-0.188 0.376-0.344 0.812-0.562 1.188-5.562 10.876-27.31 33.81-110.934 65.684-23.592 8.968-41.498 22.624-94.464 36.874l-3.624 1.062c-48.216 15.938-80.652 60.624-80.652 111.09v97.592H1001.262v-97.592c0-50.468-32.438-95.156-80.652-111.094z" fill="#A0D468" /><path d="M792.676 765.302c-59.216-25.624-76.278-44.186-81.09-53.624-0.218-0.376-0.376-0.812-0.562-1.188l-0.686-97.122L512 611.122l-198.336 2.25-0.688 97.122c-0.188 0.376-0.344 0.812-0.562 1.188-4.906 9.624-22.498 28.656-84.246 54.966l85.746 50.902 404.172-7 74.59-45.248z" fill="#DBAFA5" /><path d="M787.238 425.362c0 178.822-170.492 343.41-275.238 343.41s-275.238-164.588-275.238-343.41c0-178.82 123.244-296.8 275.238-296.8s275.238 117.98 275.238 296.8z" fill="#EAC6BB" /><path d="M801.864 131.984c-26.218-39.25-61.216-70.326-104.026-92.326C646.682 13.364 584.154 0.02 512 0.02s-134.682 13.344-185.836 39.64c-42.81 22-77.81 53.076-104.028 92.326-49.124 73.558-51.624 151.478-51.624 166.352v170.744c0 11.78 9.562 21.342 21.342 21.342h64.03c11.782 0 21.344-9.562 21.344-21.342v-149.4h469.542v149.4c0 11.78 9.56 21.342 21.342 21.342h64.03c11.782 0 21.342-9.562 21.342-21.342v-170.744c0-14.876-2.5-92.796-51.62-166.354z" fill="#656D78" /><path d="M801.864 131.984c-26.218-39.25-61.216-70.326-104.026-92.326C646.682 13.364 584.154 0.02 512 0.02s-134.682 13.344-185.836 39.64c-42.81 22-77.81 53.076-104.028 92.326-49.124 73.558-51.624 151.478-51.624 166.352v42.686c0-14.876 2.5-92.792 51.624-166.354 26.216-39.248 61.216-70.326 104.028-92.324 51.154-26.312 113.682-39.64 185.836-39.64s134.682 13.328 185.838 39.64c42.808 21.998 77.806 53.076 104.026 92.324 49.122 73.56 51.622 151.478 51.622 166.354v-42.686c-0.002-14.876-2.502-92.796-51.622-166.354z" fill="#FFFFFF" opacity=".1" /><path d="M818.676 775.894c-19.406-7.498-35.344-14.466-48.438-20.936a464.126 464.126 0 0 1-27.374 13.718c-47.808 21.936-126.65 48.122-230.958 48.122s-183.21-26.186-231.022-48.122c-10-4.594-19.094-9.188-27.25-13.624-13.124 6.438-29.092 13.438-48.498 20.936 14.188 9.062 32.904 19.876 56.03 30.592 51.998 24.124 137.712 52.906 250.74 52.906s198.68-28.782 250.644-52.906c23.188-10.78 41.938-21.592 56.126-30.686z" fill="#8CC153" /><path d="M768.114 276.994H255.884c-11.782 0-21.342 9.546-21.342 21.344v298.784c0 8.124 4.592 15.5 11.842 19.124 3.688 1.812 92.216 44.904 265.616 44.904 173.37 0 261.926-43.092 265.614-44.904a21.366 21.366 0 0 0 11.844-19.124V298.336c0-11.796-9.564-21.342-21.344-21.342z" fill="#5D9CEC" /><path d="M533.092 320.132l-126.088 335.362c22.438 2.5 47.216 4.376 74.342 5.188h9.06l128.058-340.548h-85.372z" fill="#FFFFFF" opacity=".1" /><path d="M512 1023.98h277.458v-170.744c0-35.312-28.718-64.03-64.028-64.03h-426.86c-35.31 0-64.028 28.716-64.028 64.03v170.744H512z" fill="#656D78" /><path d="M682.494 938.608H341.008c-11.782 0-21.344-9.562-21.344-21.344 0-11.78 9.562-21.342 21.344-21.342h341.486c11.782 0 21.344 9.562 21.344 21.342s-9.562 21.344-21.344 21.344zM853.484 319.68v-21.342c0-3.656-0.156-11.11-1.094-21.344H171.638c-0.968 10.234-1.124 17.688-1.124 21.344v21.342h682.97z" fill="#434A54" /></svg>