<?xml version="1.0" standalone="no"?><!DOCTYPE svg PUBLIC "-//W3C//DTD SVG 1.1//EN" "http://www.w3.org/Graphics/SVG/1.1/DTD/svg11.dtd"><svg class="icon" width="128px" height="128.00px" viewBox="0 0 1024 1024" version="1.1" xmlns="http://www.w3.org/2000/svg"><path d="M512 1002.676c-84.248 0-159.622-10.558-224.028-31.372-59.998-19.376-110.964-47.812-151.496-84.5-75.31-68.25-115.124-166.184-115.124-283.242 0-45.376 9.876-93.376 29.406-142.75 19-48.03 46.092-94.904 80.53-139.308 34.468-44.5 74.28-83.842 118.28-116.998 45.404-34.218 92.966-60 141.372-76.624l14.406-4.938V42.698h170.652v69.654l16.5 3.844c102.092 23.718 206.338 92.092 285.994 187.622 78.904 94.592 124.152 203.84 124.152 299.746 0 117.058-39.812 214.992-115.122 283.242-40.532 36.688-91.5 65.124-151.498 84.5-64.402 20.812-139.778 31.37-224.024 31.37z" fill="#FFE7B0" /><path d="M320.004 320.004c-23.562 0-42.656 19.124-42.656 42.686s19.094 42.656 42.656 42.656 42.656-19.094 42.656-42.656c0-23.562-19.094-42.686-42.656-42.686z" fill="#ED5564" /><path d="M234.662 320.004c-23.562 0-42.656 19.124-42.656 42.686s19.094 42.656 42.656 42.656 42.686-19.094 42.686-42.656c0-23.562-19.124-42.686-42.686-42.686zM277.348 405.346c-23.56 0-42.686 19.092-42.686 42.654 0 23.562 19.124 42.688 42.686 42.688s42.656-19.124 42.656-42.688c0-23.56-19.094-42.654-42.656-42.654z" fill="#DA4453" /><path d="M192.006 405.346c-23.56 0-42.654 19.092-42.654 42.654 0 23.562 19.094 42.688 42.654 42.688 23.562 0 42.656-19.124 42.656-42.688 0-23.56-19.094-42.654-42.656-42.654zM362.66 405.346c-23.562 0-42.656 19.092-42.656 42.654 0 23.562 19.094 42.688 42.656 42.688 23.56 0 42.686-19.124 42.686-42.688 0-23.56-19.126-42.654-42.686-42.654zM661.34 448c-23.562 0-42.688 19.124-42.688 42.688 0 23.562 19.124 42.656 42.688 42.656s42.656-19.094 42.656-42.656c0-23.562-19.094-42.688-42.656-42.688z" fill="#ED5564" /><path d="M746.65 448c-23.56 0-42.654 19.124-42.654 42.688 0 23.562 19.094 42.656 42.654 42.656 23.562 0 42.686-19.094 42.686-42.656 0-23.562-19.124-42.688-42.686-42.688z" fill="#DA4453" /><path d="M831.992 448c-23.562 0-42.656 19.124-42.656 42.688 0 23.562 19.094 42.656 42.656 42.656s42.656-19.094 42.656-42.656c0-23.562-19.094-42.688-42.656-42.688z" fill="#ED5564" /><path d="M789.336 362.69c-23.56 0-42.686 19.094-42.686 42.656 0 23.562 19.124 42.654 42.686 42.654s42.656-19.092 42.656-42.654c0-23.562-19.094-42.656-42.656-42.656z" fill="#DA4453" /><path d="M746.65 277.348c-23.56 0-42.654 19.094-42.654 42.656 0 23.562 19.094 42.686 42.654 42.686 23.594 0 42.686-19.124 42.686-42.686s-19.092-42.656-42.686-42.656z" fill="#ED5564" /><path d="M661.34 277.348c-23.562 0-42.688 19.094-42.688 42.656 0 23.562 19.124 42.686 42.688 42.686s42.656-19.124 42.656-42.686-19.094-42.656-42.656-42.656z" fill="#DA4453" /><path d="M618.652 192.006c-23.562 0-42.654 19.124-42.654 42.688 0 23.56 19.092 42.654 42.654 42.654 23.594 0 42.688-19.094 42.688-42.654 0-23.562-19.094-42.688-42.688-42.688z" fill="#ED5564" /><path d="M533.344 192.006c-23.562 0-42.688 19.124-42.688 42.688 0 23.56 19.124 42.654 42.688 42.654 23.56 0 42.654-19.094 42.654-42.654 0-23.562-19.094-42.688-42.654-42.688z" fill="#DA4453" /><path d="M575.998 277.348c-23.562 0-42.654 19.094-42.654 42.656 0 23.562 19.092 42.686 42.654 42.686 23.56 0 42.654-19.124 42.654-42.686s-19.094-42.656-42.654-42.656z" fill="#ED5564" /><path d="M703.996 405.346m-42.656 0a42.656 42.656 0 1 0 85.312 0 42.656 42.656 0 1 0-85.312 0Z" fill="#ED5564" /><path d="M618.652 362.69c-23.562 0-42.654 19.094-42.654 42.656 0 23.562 19.092 42.654 42.654 42.654s42.688-19.092 42.688-42.654c0-23.562-19.126-42.656-42.688-42.656zM277.348 576c-23.56 0-42.686 19.124-42.686 42.688 0 23.558 19.124 42.684 42.686 42.684s42.656-19.124 42.656-42.684c0-23.564-19.094-42.688-42.656-42.688z" fill="#DA4453" /><path d="M192.006 576c-23.56 0-42.654 19.124-42.654 42.688 0 23.558 19.094 42.684 42.654 42.684 23.562 0 42.656-19.124 42.656-42.684 0-23.564-19.094-42.688-42.656-42.688z" fill="#ED5564" /><path d="M149.352 661.372c-23.562 0-42.688 19.062-42.688 42.624s19.124 42.688 42.688 42.688 42.654-19.124 42.654-42.688-19.092-42.624-42.654-42.624z" fill="#DA4453" /><path d="M234.662 661.372c-23.562 0-42.656 19.062-42.656 42.624s19.094 42.688 42.656 42.688 42.686-19.124 42.686-42.688-19.124-42.624-42.686-42.624zM320.004 661.372c-23.562 0-42.656 19.062-42.656 42.624s19.094 42.688 42.656 42.688 42.656-19.124 42.656-42.688-19.094-42.624-42.656-42.624z" fill="#ED5564" /><path d="M405.346 661.372c-23.562 0-42.686 19.062-42.686 42.624s19.124 42.688 42.686 42.688 42.656-19.124 42.656-42.688-19.094-42.624-42.656-42.624z" fill="#DA4453" /><path d="M362.66 745.434c-23.562 0-42.656 19.062-42.656 42.624s19.094 42.684 42.656 42.684c23.56 0 42.686-19.122 42.686-42.684s-19.126-42.624-42.686-42.624z" fill="#ED5564" /><path d="M277.348 745.434c-23.56 0-42.686 19.062-42.686 42.624s19.124 42.684 42.686 42.684 42.656-19.122 42.656-42.684-19.094-42.624-42.656-42.624z" fill="#DA4453" /><path d="M320.004 831.992c-23.562 0-42.656 19.124-42.656 42.688s19.094 42.688 42.656 42.688 42.656-19.124 42.656-42.688-19.094-42.688-42.656-42.688zM192.006 745.434c-23.56 0-42.654 19.062-42.654 42.624s19.094 42.684 42.654 42.684c23.562 0 42.656-19.122 42.656-42.684s-19.094-42.624-42.656-42.624z" fill="#ED5564" /><path d="M362.66 576c-23.562 0-42.656 19.124-42.656 42.688 0 23.558 19.094 42.684 42.656 42.684 23.56 0 42.686-19.124 42.686-42.684 0-23.564-19.126-42.688-42.686-42.688z" fill="#DA4453" /><path d="M448.002 576c-23.562 0-42.656 19.124-42.656 42.688 0 23.558 19.094 42.684 42.656 42.684 23.56 0 42.654-19.124 42.654-42.684 0-23.564-19.094-42.688-42.654-42.688z" fill="#ED5564" /><path d="M618.652 831.992c-23.562 0-42.654 19.124-42.654 42.688s19.092 42.688 42.654 42.688 42.688-19.124 42.688-42.688-19.126-42.688-42.688-42.688z" fill="#DA4453" /><path d="M703.996 831.992c-23.562 0-42.656 19.124-42.656 42.688s19.094 42.688 42.656 42.688 42.654-19.124 42.654-42.688-19.092-42.688-42.654-42.688z" fill="#ED5564" /><path d="M746.65 746.684c-23.56 0-42.654 19.124-42.654 42.688s19.094 42.622 42.654 42.622c23.562 0 42.686-19.058 42.686-42.622s-19.124-42.688-42.686-42.688z" fill="#DA4453" /><path d="M831.992 745.434c-23.562 0-42.656 19.062-42.656 42.624s19.094 42.684 42.656 42.684 42.656-19.122 42.656-42.684-19.094-42.624-42.656-42.624zM789.336 661.372c-23.56 0-42.686 19.062-42.686 42.624s19.124 42.688 42.686 42.688 42.656-19.124 42.656-42.688-19.094-42.624-42.656-42.624z" fill="#ED5564" /><path d="M703.996 661.372c-23.562 0-42.656 19.062-42.656 42.624s19.094 42.688 42.656 42.688 42.654-19.124 42.654-42.688-19.092-42.624-42.654-42.624z" fill="#DA4453" /><path d="M661.34 746.684c-23.562 0-42.688 19.124-42.688 42.688s19.124 42.622 42.688 42.622 42.656-19.058 42.656-42.622-19.094-42.688-42.656-42.688z" fill="#ED5564" /><path d="M405.346 490.688c-23.562 0-42.686 19.092-42.686 42.656S381.784 576 405.346 576s42.656-19.094 42.656-42.656-19.094-42.656-42.656-42.656z" fill="#DA4453" /><path d="M320.004 533.344m-42.656 0a42.656 42.656 0 1 0 85.312 0 42.656 42.656 0 1 0-85.312 0Z" fill="#ED5564" /><path d="M234.662 490.688c-23.562 0-42.656 19.092-42.656 42.656S211.1 576 234.662 576s42.686-19.094 42.686-42.656-19.124-42.656-42.686-42.656z" fill="#ED5564" /><path d="M149.352 490.688c-23.562 0-42.688 19.092-42.688 42.656S125.79 576 149.352 576s42.654-19.094 42.654-42.656-19.092-42.656-42.654-42.656z" fill="#DA4453" /><path d="M860.21 593c-97.748-50.376-220.902-14.438-275.87 6.406a384.904 384.904 0 0 0-1.938-20.782c-15.344-124.874-89.842-219.59-144.528-279.964-61.312-67.624-66.812-151.654-66.844-152.498l-42.624 2.312c0.218 4.032 6.032 99.592 77.842 178.84 50.782 56.062 119.936 143.654 133.78 256.528 7 56.902-0.624 116.278-22.688 176.402-25.562 69.746-71.248 142.808-135.748 217.184l32.25 27.996c67.904-78.308 116.186-155.872 143.558-230.492 16-43.624 25.124-87 27.312-129.688 36.78-15.376 163.714-61.84 255.962-14.312 52.218 26.876 85.686 81 99.436 160.75l42.06-7.25c-16.15-93.624-57.18-158.06-121.96-191.432z" opacity=".1" /><path d="M597.34 95.416v-74.06c0-11.782-9.56-21.344-21.342-21.344s-21.344 9.562-21.344 21.344H512C512 9.574 502.438 0.012 490.656 0.012s-21.312 9.562-21.312 21.344h-42.686c0-11.782-9.532-21.344-21.312-21.344s-21.344 9.562-21.344 21.344v86.342C177.102 178.788 0.012 406.566 0.012 603.562 0.012 840.368 155.04 1023.988 512 1023.988s511.988-183.622 511.988-420.426c0-210.402-202.058-455.96-426.648-508.146z m275.87 775.576c-38.282 34.624-86.656 61.562-143.746 80-62.282 20.124-135.436 30.376-217.464 30.376s-155.184-10.25-217.464-30.376c-57.092-18.438-105.466-45.376-143.746-80-35.812-32.438-63.186-71.996-81.342-117.622-17.75-44.624-26.782-95-26.782-149.808 0-42.656 9.406-88.062 27.938-134.906 18.25-46.156 44.342-91.28 77.53-134.09 33.344-43 71.78-80.998 114.28-113.028 43.624-32.876 89.186-57.592 135.464-73.468 0 0-62.03 20.936 27.406-9.436 89.436-30.376 169.152 0 169.152 0 95.498 24.092 192.682 88.936 267.682 178.84 75.748 90.81 119.214 195.088 119.214 286.088 0 54.808-9.032 105.184-26.78 149.808-18.156 45.626-45.528 85.184-81.342 117.622z" fill="#ED5564" /></svg>