<?xml version="1.0" standalone="no"?><!DOCTYPE svg PUBLIC "-//W3C//DTD SVG 1.1//EN" "http://www.w3.org/Graphics/SVG/1.1/DTD/svg11.dtd"><svg class="icon" width="128px" height="128.00px" viewBox="0 0 1024 1024" version="1.1" xmlns="http://www.w3.org/2000/svg"><path d="M1002.654 288.004H21.334c-11.782 0-21.312 9.562-21.312 21.344v554.644c0 11.782 9.53 21.344 21.312 21.344h981.322c11.782 0 21.312-9.562 21.312-21.344V309.348c-0.002-11.782-9.532-21.344-21.314-21.344z" fill="#E6E9ED" /><path d="M704.004 416.002h-298.68c-11.782 0-21.312-9.562-21.312-21.344s9.53-21.312 21.312-21.312h298.68c11.75 0 21.312 9.532 21.312 21.312s-9.562 21.344-21.312 21.344zM704.004 501.344h-298.68c-11.782 0-21.312-9.562-21.312-21.344s9.53-21.344 21.312-21.344h298.68c11.75 0 21.312 9.562 21.312 21.344s-9.562 21.344-21.312 21.344z" fill="#434A54" /><path d="M844.346 211.13c8.656 16.594 8.968 34.156 8.968 34.218v42.654h42.654v-42.654c0-2.718-0.344-27.094-12.906-52.218-17.562-35.124-50.842-54.468-93.746-54.468-42.906 0-76.188 19.344-93.75 54.468-12.56 25.124-12.904 49.5-12.904 52.218v330.648c0 11.782 9.53 21.344 21.342 21.344 11.75 0 21.312-9.562 21.312-21.344V245.35c0-0.156 0.376-17.032 8.406-33.124 10.406-20.78 28.594-30.874 55.594-30.874 26.56-0.002 44.56 9.748 55.03 29.778zM545.696 211.13c8.656 16.594 8.968 34.156 8.968 34.218v42.654h42.656v-42.654c0-2.718-0.344-27.094-12.906-52.218-17.562-35.124-50.844-54.468-93.748-54.468-42.906 0-76.186 19.344-93.748 54.468-12.562 25.124-12.906 49.5-12.906 52.218v330.648c0 11.782 9.53 21.344 21.312 21.344s21.344-9.562 21.344-21.344V245.35c0-0.156 0.344-17.032 8.406-33.124 10.406-20.78 28.562-30.874 55.592-30.874 26.53-0.002 44.56 9.748 55.03 29.778z" fill="#656D78" /><path d="M21.334 885.336h981.322c11.782 0 21.312-9.562 21.312-21.344V565.216H0.022v298.776c0 11.782 9.53 21.344 21.312 21.344z" fill="#5D9CEC" /><path d="M682.662 607.996c-3.282 0-6.532-0.748-9.532-2.248l-33.154-16.562-33.124 16.562a21.324 21.324 0 0 1-19.062 0l-33.124-16.562-33.124 16.562a21.388 21.388 0 0 1-19.092 0l-33.124-16.562-33.124 16.562a21.324 21.324 0 0 1-19.062 0l-33.124-16.562-33.124 16.562a21.388 21.388 0 0 1-19.092 0l-33.124-16.562-33.124 16.562a21.388 21.388 0 0 1-19.092 0l-33.124-16.562-33.124 16.562a21.324 21.324 0 0 1-19.062 0l-33.124-16.562-33.124 16.562a21.438 21.438 0 0 1-16.312 1.156l-64-21.344c-11.156-3.718-17.186-15.812-13.468-26.968 3.718-11.188 15.812-17.216 26.968-13.5l55.624 18.532 34.75-17.376c6-3 13.092-3 19.092 0l33.124 16.562 33.124-16.562c6-3 13.062-3 19.092 0l33.124 16.562 33.124-16.562c6-3 13.062-3 19.062 0l33.124 16.562 33.124-16.562c6-3 13.092-3 19.092 0l33.124 16.562 33.124-16.562c6-3 13.062-3 19.062 0l33.124 16.562 33.154-16.562c6-3 13.062-3 19.062 0l33.124 16.562 33.124-16.562c6-3 13.092-3 19.092 0l33.124 16.562 33.124-16.562c6-3 13.062-3 19.062 0l33.124 16.562 33.124-16.562c6.032-3 13.094-3 19.092 0l33.124 16.562 33.124-16.562c6-3 13.062-3 19.094 0l34.75 17.376 55.624-18.532c11.156-3.716 23.25 2.312 26.968 13.5 3.75 11.156-2.312 23.25-13.468 26.968l-63.998 21.344c-5.376 1.78-11.25 1.374-16.312-1.156l-33.124-16.562-33.124 16.562a21.32 21.32 0 0 1-19.06 0l-33.124-16.562-33.124 16.562a21.392 21.392 0 0 1-19.094 0l-33.124-16.562-33.124 16.562a21.36 21.36 0 0 1-9.532 2.248zM426.636 735.994c-3.188 0-6.438-0.718-9.5-2.25l-33.124-16.56-33.124 16.56a21.376 21.376 0 0 1-19.092 0l-33.124-16.56-33.124 16.56c-6 3-13.092 3-19.092 0l-33.124-16.56-33.124 16.56c-6 3-13.062 3-19.062 0l-33.124-16.56-33.124 16.56a21.42 21.42 0 0 1-16.312 1.156l-64-21.342C3.43 709.84-2.6 697.746 1.118 686.59c3.718-11.188 15.812-17.218 26.968-13.5l55.624 18.532 34.75-17.376c6-3 13.092-3 19.092 0l33.124 16.562 33.124-16.562c6-3 13.062-3 19.092 0l33.124 16.562 33.124-16.562c6-3 13.062-3 19.062 0l33.124 16.562 33.124-16.562c6-3 13.092-3 19.092 0l42.656 21.344c10.532 5.25 14.812 18.062 9.532 28.624-3.72 7.468-11.25 11.78-19.094 11.78zM576.008 778.648c-7.812 0-15.376-4.312-19.094-11.78-5.282-10.532-1-23.344 9.532-28.624l42.688-21.342c6-3 13.062-3 19.062 0l33.124 16.56 33.124-16.56c6-3 13.094-3 19.094 0l33.124 16.56 33.124-16.56c6-3 13.062-3 19.062 0l33.124 16.56 33.124-16.56a21.38 21.38 0 0 1 19.094 0l33.124 16.56 33.124-16.56c6-3 13.062-3 19.094 0l42.654 21.342c10.532 5.282 14.812 18.094 9.532 28.624-5.25 10.53-18.062 14.81-28.624 9.53l-33.124-16.56-33.124 16.56c-6 3-13.062 3-19.062 0l-33.124-16.56-33.124 16.56a21.38 21.38 0 0 1-19.094 0l-33.124-16.56-33.124 16.56c-6 3-13.062 3-19.062 0l-33.124-16.56-33.154 16.56c-6 3-13.062 3-19.062 0l-33.124-16.56-33.124 16.56a21.35 21.35 0 0 1-9.536 2.25z" fill="#4A89DC" /></svg>