<?xml version="1.0" standalone="no"?><!DOCTYPE svg PUBLIC "-//W3C//DTD SVG 1.1//EN" "http://www.w3.org/Graphics/SVG/1.1/DTD/svg11.dtd"><svg class="icon" width="128px" height="128.00px" viewBox="0 0 1024 1024" version="1.1" xmlns="http://www.w3.org/2000/svg"><path d="M654.924 828.534c0 182.194-84.04 195.314-187.708 195.314-103.656 0-187.694-13.122-187.694-195.314S363.56 364.08 467.216 364.08c103.668 0 187.708 282.26 187.708 464.454z" fill="#E5E8EC" /><path d="M309.732 608.6c47.564 4.592 100.406 6.092 156.062 6.092 56.748 0 110.56-1.562 158.856-6.374-33.488-130.024-91.488-244.238-157.434-244.238-65.98 0-124.026 114.372-157.484 244.52z" opacity=".1" /><path d="M843.458 426.03c0 124.776-169.106 146.02-377.666 146.02-208.578 0-377.65-21.244-377.65-146.02 0-124.744 169.074-305.75 377.65-305.75 208.562 0 377.666 181.006 377.666 305.75z" fill="#965353" /><path d="M130.802 426.03c0-120.462 157.67-293.378 356.312-305.124-7.06-0.406-14.166-0.624-21.322-0.624-208.578 0-377.65 181.006-377.65 305.75 0 124.776 169.074 146.02 377.65 146.02 7.154 0 14.262-0.032 21.322-0.062-198.642-1.534-356.312-25.464-356.312-145.96z" opacity=".1" /><path d="M334.084 83.292c0.016 0.032 42.566 189.91 248.828 255.61 170.292 54.234 230.868-102.844 230.868-102.844s41.394-163.168-128.896-217.402c-206.266-65.686-350.768 64.636-350.8 64.636z" fill="#9ED36A" /><path d="M785.602 282.916c-32.708 41.238-96.284 89.878-202.69 55.984C447.362 295.726 382.522 198.942 354 137.65c-5.06 1.562-10.06 3.28-15.026 5.06 15.824 47.766 74.882 185.006 243.938 238.834 126.056 40.144 192.004-35.49 217.746-77.506a368.388 368.388 0 0 0-15.056-21.122z" opacity=".1" /><path d="M920.998 247.834L588.724 142.022c-11.214-3.592-23.21 2.624-26.774 13.84-3.562 11.214 2.624 23.212 13.84 26.772v0.032l332.274 105.812v-0.032c11.214 3.592 23.21-2.624 26.774-13.838 3.592-11.216-2.626-23.212-13.84-26.774z" fill="#8AC054" /></svg>