<?xml version="1.0" standalone="no"?><!DOCTYPE svg PUBLIC "-//W3C//DTD SVG 1.1//EN" "http://www.w3.org/Graphics/SVG/1.1/DTD/svg11.dtd"><svg class="icon" width="128px" height="128.00px" viewBox="0 0 1024 1024" version="1.1" xmlns="http://www.w3.org/2000/svg"><path d="M917.336 0.01a63.638 63.638 0 0 0-34.436 10.062 64.112 64.112 0 0 0-23.094 25.874l-186.964 384.024-18.688 38.374 38.374 18.656 38.344 18.688 38.374 18.688L787.932 476l186.902-383.992a64.108 64.108 0 0 0 6.5-28c0-35.312-28.718-63.998-63.998-63.998z" fill="#E5E8EC" /><path d="M170.664 554.656c-21.562 0-42.094-6.282-57.78-17.718-17.5-12.718-27.532-31-27.532-50.156s10.032-37.436 27.532-50.156c15.686-11.436 36.218-17.718 57.78-17.718h0.312c1.812-17 11.53-32.906 27.218-44.344 15.718-11.406 36.25-17.718 57.812-17.718h0.312c1.812-17 11.5-32.906 27.218-44.312 15.718-11.438 36.25-17.718 57.812-17.718h0.312c1.812-17 11.5-32.906 27.218-44.342 15.686-11.406 36.218-17.718 57.78-17.718h0.312c1.812-17 11.53-32.906 27.218-44.342 15.718-11.406 36.25-17.688 57.812-17.688s42.092 6.282 57.81 17.688c15.718 11.438 25.406 27.344 27.218 44.342h0.312c21.562 0 42.094 6.312 57.782 17.718 15.718 11.436 25.406 27.342 27.218 44.342h0.312c21.592 0 42.092 6.282 57.81 17.718 15.716 11.406 25.404 27.312 27.216 44.312h0.312c21.562 0 42.094 6.312 57.812 17.718 15.718 11.438 25.406 27.344 27.218 44.344h0.312c21.562 0 42.094 6.282 57.78 17.718 17.5 12.718 27.532 31 27.532 50.156s-10.032 37.438-27.532 50.156c-15.686 11.438-36.216 17.718-57.78 17.718H170.664z" fill="#FFD2A6" /><path d="M923.68 419.376c-15.124-11-33.716-18.124-53.56-20.718-5.718-15.938-16.624-30.312-31.782-41.342-15.124-11-33.718-18.124-53.562-20.718-5.718-15.936-16.624-30.312-31.782-41.342-15.092-10.968-33.686-18.124-53.56-20.688-5.688-15.968-16.592-30.342-31.748-41.342-15.124-11-33.718-18.124-53.562-20.718-5.718-15.938-16.624-30.312-31.782-41.344-19.312-14.032-44.312-21.78-70.342-21.78s-51.03 7.75-70.342 21.78c-15.156 11.032-26.062 25.406-31.78 41.344-19.844 2.594-38.436 9.718-53.562 20.718-15.156 11-26.062 25.374-31.75 41.342-19.876 2.562-38.468 9.718-53.562 20.688-15.156 11.032-26.062 25.406-31.782 41.342-19.842 2.594-38.436 9.718-53.562 20.718-15.156 11.03-26.062 25.406-31.78 41.342-19.844 2.594-38.436 9.718-53.562 20.718-23.062 16.78-36.312 41.342-36.312 67.404 0 26.062 13.25 50.624 36.312 67.406 19.344 14.06 44.312 21.81 70.342 21.81h682.674c26.032 0 50.998-7.75 70.342-21.81 23.062-16.782 36.31-41.344 36.31-67.406 0.004-26.06-13.244-50.622-36.306-67.404z m-70.342 113.936H170.664c-35.344 0-64-20.844-64-46.532 0-21.344 19.812-39.342 46.75-44.812 8.124 5.906 20.876 11.5 36.75 11.5 9.468 0 20.062-2 31.438-7.156a0.236 0.236 0 0 0 0.124-0.062c0.188-0.062 0.376-0.156 0.562-0.218V446a21.27 21.27 0 0 0 12.374-19.342c0-11.782-9.53-21.344-21.312-21.344-3.218 0-6.218 0.718-8.968 2v-0.032c-3.406 1.594-6.468 2.532-9.218 3.032 8.344-18.624 32.406-32.124 60.842-32.124 9.876 0 19.218 1.624 27.562 4.532-4-6.062-6.218-12.876-6.218-20.032 0-23.562 24.092-43.03 55.342-46.124 15.156 15.968 49.218 46.374 88.342 46.374a79.46 79.46 0 0 0 7.688-0.376c0.062-0.032 0.124-0.032 0.188-0.032h0.032c10.718-1.156 19.062-10.218 19.062-21.218 0-11.78-9.562-21.312-21.342-21.312-0.75 0-1.532 0.032-2.282 0.124v-0.032c-21 2.312-46.062-18.094-59.468-31.656 7.376-19.782 32.218-34.342 61.75-34.342 9.874 0 19.218 1.624 27.562 4.53-3.968-6.062-6.218-12.874-6.218-20.062 0-25.686 28.656-46.53 64-46.53 32.624 0 59.53 17.75 63.466 40.686-9.656 2.124-22.844 3.376-40.466 2v0.032a14.826 14.826 0 0 0-1.656-0.094c-11.782 0-21.344 9.532-21.344 21.344 0 11.218 8.688 20.374 19.688 21.25 6.31 0.5 12.28 0.718 17.874 0.718 39.782 0 62.032-11.406 73.218-20.062 22.688 7.156 38.562 23.594 38.562 42.718 0 7.188-2.25 13.968-6.25 20.032 8.376-2.876 17.718-4.532 27.562-4.532 32.716 0 59.686 17.874 63.528 40.906-13.124 5.25-21.06 5.624-21.186 5.624h0.376-0.032c-11.782 0-21.344 9.532-21.344 21.344 0 11.75 9.532 21.282 21.282 21.312h0.062c3.156 0 29.498-0.75 66.154-23.876 23.718 6.812 40.5 23.624 40.5 43.282 0 7.188-2.25 13.968-6.218 20.062 8.344-2.906 17.688-4.532 27.562-4.532 35.344 0 63.998 20.842 63.998 46.53s-28.66 46.534-64.004 46.534z" fill="#F4BE8E" /><path d="M0.01 469.312v85.344c0 189.684 103.154 355.274 256.432 443.708a21.568 21.568 0 0 0-0.438 4.282c0 11.782 9.562 21.344 21.344 21.344h469.302c11.782 0 21.344-9.562 21.344-21.344 0-1.468-0.156-2.876-0.438-4.282 153.28-88.466 256.434-254.026 256.434-443.708v-85.344H0.01z" fill="#46CEAD" /><path d="M0.01 512v42.656h64c0 11.78 9.562 21.342 21.342 21.342 11.782 0 21.312-9.562 21.312-21.342h42.686c0 11.78 9.532 21.342 21.312 21.342 11.78 0 21.342-9.562 21.342-21.342h42.656c0 11.78 9.562 21.342 21.344 21.342s21.344-9.562 21.344-21.342h42.656c0 11.78 9.562 21.342 21.342 21.342 11.782 0 21.312-9.562 21.312-21.342h42.686c0 11.78 9.532 21.342 21.312 21.342 11.78 0 21.342-9.562 21.342-21.342h42.656c0 11.78 9.562 21.342 21.344 21.342s21.344-9.562 21.344-21.342h42.654c0 11.78 9.562 21.342 21.344 21.342s21.312-9.562 21.312-21.342h42.688c0 11.78 9.532 21.342 21.312 21.342 11.78 0 21.342-9.562 21.342-21.342h42.654c0 11.78 9.562 21.342 21.344 21.342s21.344-9.562 21.344-21.342h42.656c0 11.78 9.562 21.342 21.344 21.342s21.312-9.562 21.312-21.342h42.686c0 11.78 9.532 21.342 21.312 21.342 11.78 0 21.342-9.562 21.342-21.342h64V512H0.01z" fill="#35BB9B" /><path d="M981.334 469.312v85.344c0 189.684-103.152 355.242-256.432 443.708 0.282 1.406 0.438 2.812 0.438 4.282 0 11.782-9.562 21.344-21.344 21.344h42.654c11.782 0 21.344-9.562 21.344-21.344 0-1.468-0.156-2.876-0.438-4.282 153.28-88.466 256.434-254.026 256.434-443.708v-85.344h-42.656z" fill="#FFFFFF" opacity=".2" /></svg>