<?xml version="1.0" standalone="no"?><!DOCTYPE svg PUBLIC "-//W3C//DTD SVG 1.1//EN" "http://www.w3.org/Graphics/SVG/1.1/DTD/svg11.dtd"><svg class="icon" width="128px" height="128.00px" viewBox="0 0 1024 1024" version="1.1" xmlns="http://www.w3.org/2000/svg"><path d="M848.388 68.92C803.952 24.484 745.108 0.018 682.646 0.018H341.344c-62.452 0-121.308 24.466-165.744 68.902-44.436 44.436-68.92 103.31-68.92 165.744V789.3c0 62.436 24.484 121.31 68.92 165.744 44.436 44.438 103.292 68.938 165.744 68.938h341.302c62.462 0 121.306-24.5 165.742-68.938 44.466-44.434 68.936-103.308 68.936-165.744V234.664c0-62.434-24.468-121.308-68.936-165.744z" fill="#E6E9ED" /><path d="M341.344 1002.638c-56.75 0-110.248-22.25-150.666-62.654-40.406-40.436-62.654-93.936-62.654-150.684V234.664c0-56.746 22.25-110.246 62.654-150.65 40.42-40.42 93.918-62.668 150.666-62.668h341.302c56.744 0 110.276 22.248 150.68 62.668 40.404 40.404 62.654 93.904 62.654 150.65V789.3c0 56.748-22.25 110.248-62.654 150.684-40.404 40.404-93.936 62.654-150.68 62.654H341.344z" fill="#4FC2E9" /><path d="M128.022 670.182v119.12c0 56.748 22.25 110.248 62.654 150.684 40.42 40.404 93.918 62.654 150.666 62.654h341.302c56.744 0 110.276-22.25 150.68-62.654 40.404-40.436 62.654-93.936 62.654-150.684v-119.12H128.022z" fill="#F5F7FA" /><path d="M134.21 170.668a149.61 149.61 0 0 0-6.188 42.67c0 82.466 66.858 149.324 149.324 149.324s149.322-66.858 149.322-149.324a149.61 149.61 0 0 0-6.188-42.67H134.21z" fill="#FFCE54" /><path d="M398.014 170.668a127.49 127.49 0 0 1 7.328 42.67c0 70.576-57.42 127.996-127.996 127.996s-127.996-57.42-127.996-127.996a127.09 127.09 0 0 1 7.328-42.67H127.788v106.668h-8.64c25.376 62.482 86.716 106.652 158.198 106.652 94.106 0 170.666-76.544 170.666-170.65 0-14.734-1.876-29.032-5.406-42.67h-44.592z" fill="#F6BB42" /><path d="M175.6 68.92C146.772 97.748 126.35 132.652 115.554 170.668h792.894c-10.812-38.016-31.218-72.92-60.06-101.748C803.952 24.484 745.108 0.018 682.646 0.018H341.344c-62.452 0-121.308 24.466-165.744 68.902zM164.584 696.024c-9.266 0-17.858-1.498-24.78-4.966L118.476 680.4l19.078-38.154 21.186 10.56c4.766 1.75 23.218 0.376 40.562-8.31l9.016-4.5c27.186-13.624 68.2-13.624 95.402 0l9 4.5c14.984 7.498 42.264 7.498 57.248 0l9-4.5c27.202-13.624 68.216-13.624 95.402 0l9.014 4.5c14.984 7.498 42.266 7.498 57.234 0l8.998-4.5c27.188-13.624 68.216-13.624 95.404 0l9.032 4.5c14.968 7.498 42.248 7.498 57.214 0l8.998-4.5c27.218-13.624 68.218-13.624 95.438 0l8.998 4.5c17.344 8.686 35.78 10.06 40.56 8.31l21.188-10.56 19.062 38.154-21.312 10.656c-20.282 10.124-54.874 3.438-78.59-8.406l-9-4.5c-14.968-7.468-42.25-7.468-57.25 0l-9 4.5c-27.184 13.592-68.212 13.592-95.4 0l-9-4.5c-15-7.468-42.282-7.468-57.248 0l-9.032 4.5c-27.17 13.592-68.186 13.592-95.372 0l-9.016-4.5c-14.984-7.468-42.262-7.468-57.248 0l-9 4.5c-27.202 13.592-68.216 13.592-95.404 0l-9.016-4.5c-14.968-7.468-42.248-7.468-57.232 0l-9.016 4.5c-15.604 7.812-35.93 13.374-53.79 13.374zM512.026 917.298c-7.828 0-15.36-4.312-19.11-11.782-5.266-10.532-1-23.344 9.546-28.624l47.154-23.594c27.188-13.562 68.216-13.562 95.404 0l9.032 4.5c14.968 7.5 42.248 7.5 57.214 0l8.998-4.5c27.218-13.562 68.218-13.562 95.438 0l47.152 23.594c10.532 5.282 14.812 18.094 9.532 28.624-5.25 10.532-18.062 14.812-28.624 9.532l-47.154-23.562c-14.968-7.5-42.282-7.5-57.25 0l-9 4.5c-27.184 13.594-68.212 13.594-95.4 0l-9-4.5c-15-7.5-42.282-7.5-57.248 0l-47.17 23.562a20.784 20.784 0 0 1-9.514 2.25zM164.584 824.018c-9.266 0-17.858-1.5-24.78-4.966l-21.328-10.656c-10.53-5.282-14.812-18.094-9.546-28.624 5.282-10.532 18.092-14.812 28.624-9.532l21.186 10.562c4.766 1.75 23.234 0.376 40.562-8.312l9.016-4.5c27.186-13.624 68.2-13.624 95.402 0l9 4.5c14.984 7.5 42.264 7.5 57.248 0l47.168-23.594c10.532-5.282 23.344-1 28.624 9.532 5.264 10.562 0.984 23.376-9.546 28.624l-47.17 23.592c-27.202 13.592-68.216 13.592-95.404 0l-9.016-4.5c-14.968-7.5-42.248-7.5-57.232 0l-9.016 4.5c-15.606 7.814-35.932 13.374-53.792 13.374z" fill="#E6E9ED" /><path d="M172.458 604.84c-1.828 0-3.688-0.218-5.546-0.718-11.376-3.062-18.124-14.75-15.078-26.124l44.17-164.854c3.046-11.374 14.75-18.138 26.124-15.092 11.39 3.062 18.14 14.748 15.092 26.138l-44.17 164.838a21.34 21.34 0 0 1-20.592 15.812z" fill="#F6BB42" /><path d="M382.234 604.84a21.346 21.346 0 0 1-20.594-15.812l-44.17-164.838c-3.046-11.39 3.704-23.076 15.094-26.138 11.376-3.046 23.078 3.718 26.124 15.092l44.17 164.854c3.046 11.376-3.704 23.062-15.094 26.124-1.844 0.5-3.704 0.718-5.53 0.718z" fill="#FFCE54" /><path d="M563.93 499.938a21.202 21.202 0 0 1-15.06-6.25l-120.686-120.668c-8.328-8.344-8.328-21.842 0-30.17s21.842-8.328 30.17 0l120.668 120.666c8.342 8.328 8.342 21.844 0 30.172a21.224 21.224 0 0 1-15.092 6.25z" fill="#F6BB42" /><path d="M668.866 318.24c-1.844 0-3.688-0.234-5.532-0.734l-164.856-44.17c-11.376-3.046-18.124-14.734-15.078-26.124 3.046-11.376 14.75-18.138 26.124-15.078l164.84 44.172c11.374 3.046 18.124 14.75 15.092 26.124-2.562 9.528-11.184 15.81-20.59 15.81z" fill="#FFCE54" /><path d="M575.992 170.668h-170.65c-11.782 0-21.328-9.546-21.328-21.328s9.546-21.344 21.328-21.344h170.65c11.78 0 21.342 9.562 21.342 21.344s-9.562 21.328-21.342 21.328z" fill="#CCD1D9" /><path d="M848.388 68.92C803.952 24.484 745.108 0.018 682.646 0.018H341.344c-62.452 0-121.308 24.466-165.744 68.902-44.436 44.436-68.92 103.31-68.92 165.744V789.3c0 62.436 24.484 121.31 68.92 165.744 44.436 44.438 103.292 68.938 165.744 68.938h341.302c62.462 0 121.306-24.5 165.742-68.938 44.466-44.434 68.936-103.308 68.936-165.744V234.664c0-62.434-24.468-121.308-68.936-165.744z m26.248 720.38c0 51.06-20.032 99.216-56.404 135.59s-84.53 56.404-135.586 56.404H341.344c-51.046 0-99.2-20.032-135.574-56.404-36.39-36.374-56.42-84.53-56.42-135.59V234.664c0-51.044 20.03-99.2 56.42-135.572 36.374-36.39 84.528-56.42 135.574-56.42h341.302c51.056 0 99.212 20.03 135.586 56.42 36.374 36.374 56.404 84.528 56.404 135.572V789.3z" fill="#434A54" /></svg>