<?xml version="1.0" standalone="no"?><!DOCTYPE svg PUBLIC "-//W3C//DTD SVG 1.1//EN" "http://www.w3.org/Graphics/SVG/1.1/DTD/svg11.dtd"><svg class="icon" width="128px" height="128.00px" viewBox="0 0 1024 1024" version="1.1" xmlns="http://www.w3.org/2000/svg"><path d="M1002.638 512c0 270.49-219.68 489.764-490.638 489.764-270.976 0-490.656-219.274-490.656-489.764 0-270.492 219.68-489.764 490.656-489.764 270.958 0 490.638 219.272 490.638 489.764z" fill="#CCD1D9" /><path d="M512 1023.108c-69.092 0-136.152-13.532-199.274-40.188-60.968-25.75-115.73-62.59-162.746-109.496-47.014-46.938-83.918-101.59-109.714-162.462C13.564 647.932 0.018 580.996 0.018 512c0-68.998 13.546-135.934 40.248-198.962 25.796-60.874 62.702-115.528 109.714-162.462 47.014-46.904 101.778-83.748 162.746-109.496C375.848 14.424 442.908 0.892 512 0.892s136.152 13.532 199.274 40.186c60.966 25.748 115.746 62.592 162.744 109.496 47 46.936 83.936 101.59 109.714 162.462 26.718 63.03 40.25 129.964 40.25 198.962 0 68.996-13.532 135.932-40.25 198.96-25.78 60.874-62.714 115.526-109.714 162.462-46.998 46.906-101.778 83.746-162.744 109.496-63.122 26.66-130.182 40.192-199.274 40.192z m0-979.53c-125.372 0-243.226 48.716-331.864 137.212C91.498 269.258 42.688 386.878 42.688 512s48.81 242.74 137.45 331.206C268.774 931.704 386.628 980.42 512 980.42s243.208-48.716 331.864-137.214C932.518 754.74 981.328 637.122 981.328 512s-48.81-242.742-137.464-331.208C755.208 92.294 637.372 43.578 512 43.578z" fill="#E6E9ED" /><path d="M527.094 48.92c8.312 8.344 8.312 21.844 0 30.188-8.344 8.312-21.844 8.312-30.188 0-8.312-8.344-8.312-21.844 0-30.188 8.344-8.31 21.844-8.31 30.188 0zM527.094 944.89c8.312 8.344 8.312 21.842 0 30.186-8.344 8.312-21.844 8.312-30.188 0-8.312-8.344-8.312-21.842 0-30.186 8.344-8.312 21.844-8.312 30.188 0zM293.522 103.42c11.39 3.062 18.14 14.748 15.094 26.124-3.046 11.406-14.75 18.156-26.124 15.094-11.39-3.062-18.14-14.75-15.094-26.124 3.048-11.376 14.75-18.126 26.124-15.094zM741.522 879.362c11.376 3.032 18.124 14.75 15.062 26.124-3.032 11.376-14.75 18.124-26.124 15.092-11.376-3.06-18.124-14.748-15.06-26.124 3.028-11.406 14.746-18.156 26.122-15.092zM118.512 267.414c11.376-3.062 23.078 3.688 26.124 15.062s-3.704 23.092-15.078 26.124c-11.39 3.062-23.078-3.688-26.14-15.06-3.044-11.376 3.72-23.094 15.094-26.126zM894.456 715.396c11.376-3.06 23.062 3.688 26.124 15.062 3.062 11.406-3.718 23.094-15.094 26.124-11.376 3.062-23.094-3.688-26.124-15.062s3.718-23.092 15.094-26.124zM48.922 496.906c8.342-8.312 21.842-8.312 30.17 0 8.328 8.344 8.342 21.842 0 30.186-8.328 8.312-21.828 8.312-30.17 0a21.36 21.36 0 0 1 0-30.186zM944.892 496.906c8.342-8.312 21.842-8.312 30.186 0 8.31 8.344 8.31 21.842 0 30.186-8.344 8.312-21.844 8.312-30.186 0-8.312-8.344-8.312-21.842 0-30.186zM103.42 730.458c3.062-11.376 14.75-18.124 26.14-15.062 11.376 3.032 18.124 14.75 15.078 26.124s-14.75 18.124-26.124 15.062c-11.376-3.03-18.14-14.716-15.094-26.124zM879.362 282.476c3.032-11.376 14.75-18.124 26.124-15.062 11.376 3.032 18.156 14.75 15.094 26.124-3.062 11.374-14.75 18.124-26.124 15.06-11.376-3.03-18.126-14.716-15.094-26.122zM267.398 905.486c-3.046-11.376 3.704-23.062 15.094-26.124 11.374-3.062 23.078 3.718 26.124 15.094s-3.704 23.062-15.094 26.124c-11.374 3.03-23.076-3.718-26.124-15.094zM715.398 129.542c-3.062-11.376 3.686-23.06 15.06-26.124 11.376-3.032 23.094 3.718 26.124 15.092 3.062 11.376-3.688 23.094-15.062 26.124-11.374 3.066-23.092-3.684-26.122-15.092z" fill="#434A54" /><path d="M915.986 512c0 222.708-180.872 403.236-403.986 403.236-223.118 0-403.986-180.528-403.986-403.236 0-222.71 180.868-403.236 403.986-403.236 223.116 0 403.986 180.526 403.986 403.236z" fill="#4FC2E9" /><path d="M846.3 554.654l-67.56-47.624-112.588 39.374-57.562-28.782L512 548.81l-74.092-31.188-99.902 35.376s-67.03-33.532-71.342-30.844c-4.312 2.656-49.67 11.188-49.67 11.188l-108.98 21.312 37.358 126.934 100.058 137.432 194.666 87.124 164.432-6.188 147.556-48.938 101.308-97.778 67.906-198.586H846.3z" fill="#5D9CEC" /><path d="M913.768 575.996h-60.438c-3.312 0-6.592-0.782-9.56-2.25l-75.78-37.904-75.778 37.904c-6 3-13.092 3-19.092 0l-75.782-37.904-75.808 37.904c-6 3-13.062 3-19.062 0l-75.794-37.904-75.794 37.904c-6 3-13.078 3-19.078 0l-75.794-37.904-75.792 37.904a21.438 21.438 0 0 1-9.532 2.25H110.248c-11.782 0-21.328-9.562-21.328-21.342 0-11.782 9.546-21.312 21.328-21.312h55.388l80.826-40.436c6.014-3 13.078-3 19.092 0l75.78 37.904 75.792-37.904c6-3 13.078-3 19.078 0L512 530.81l75.778-37.904c6-3 13.094-3 19.094 0l75.782 37.904 75.806-37.904c6-3 13.062-3 19.062 0l80.84 40.436h55.406c11.75 0 21.312 9.532 21.312 21.312 0 11.78-9.562 21.342-21.312 21.342zM875.018 703.992h-21.688c-3.312 0-6.592-0.782-9.56-2.25l-75.78-37.904-75.778 37.904c-6 3-13.092 3-19.092 0l-75.782-37.904-75.808 37.904c-6 3-13.062 3-19.062 0l-75.794-37.904-75.794 37.904c-6 3-13.078 3-19.078 0l-75.794-37.904-75.792 37.904a21.438 21.438 0 0 1-9.532 2.25H151.06c-11.78 0-21.328-9.56-21.328-21.342s9.546-21.312 21.328-21.312h14.578l80.826-40.436c6.014-3 13.078-3 19.092 0l75.78 37.904 75.792-37.904c6-3 13.078-3 19.078 0L512 658.806l75.778-37.904c6-3 13.094-3 19.094 0l75.782 37.904 75.806-37.904c6-3 13.062-3 19.062 0l80.84 40.436h16.656c11.812 0 21.344 9.532 21.344 21.312s-9.532 21.342-21.344 21.342zM682.652 831.986c-3.25 0-6.532-0.75-9.532-2.25l-75.782-37.904-75.808 37.904c-6 3-13.062 3-19.062 0l-75.794-37.904-75.794 37.904c-6 3-13.078 3-19.078 0l-75.794-37.904-29.466 14.75c-10.53 5.25-23.342 1-28.624-9.562-5.266-10.53-1-23.342 9.546-28.592l38.998-19.532c6.014-3 13.078-3 19.092 0l75.78 37.906 75.792-37.906c6-3 13.078-3 19.078 0L512 786.802l75.778-37.906c6-3 13.094-3 19.094 0l75.782 37.906 75.806-37.906c6-3 13.062-3 19.062 0l38.998 19.532c10.562 5.25 14.812 18.062 9.562 28.624-5.25 10.532-18.06 14.782-28.624 9.532l-29.468-14.75-75.778 37.904c-3 1.498-6.28 2.248-9.56 2.248z" fill="#4A89DC" /><path d="M512 936.578c-113.606 0-220.4-44.154-300.74-124.34C130.918 732.052 86.686 625.402 86.686 512s44.234-220.054 124.576-300.24C291.6 131.574 398.394 87.42 512 87.42c113.59 0 220.396 44.154 300.74 124.34 80.34 80.186 124.59 186.838 124.59 300.24S893.08 732.052 812.74 812.238c-80.344 80.186-187.15 124.34-300.74 124.34z m0-806.504c-102.214 0-198.322 39.75-270.584 111.872C169.136 314.1 129.34 410.004 129.34 512s39.796 197.898 112.074 270.052c72.264 72.122 168.37 111.872 270.584 111.872s198.336-39.75 270.584-111.872C854.86 709.898 894.64 613.996 894.64 512s-39.782-197.9-112.058-270.054C710.336 169.824 614.214 130.074 512 130.074z" fill="#E6E9ED" /><path d="M730.458 363.286c-32.872-8.154-60.12-5.06-81.026 9.156-4.594 3.124-8.5 6.594-11.906 10.156-24.25-20.436-62.31-23.216-85.374-20.498-11.654 1.374-19.998 11.936-18.654 23.624s11.906 20.062 23.592 18.75c0.188 0 16.75-1.812 33.186 1.876 7.376 1.656 24.688 5.53 27.032 23.124 1.406 10.718 10.594 18.53 21.124 18.53 0.906 0 1.876-0.062 2.844-0.188 9.75-1.312 17.094-9.03 18.312-18.374v0.282c0-0.156 2.406-14.438 14.25-22.248 12.936-8.594 32.34-6.25 46.338-2.75 11.438 2.812 23.032-4.156 25.844-15.562 2.846-11.442-4.124-23.036-15.562-25.878zM511.438 234.696c-60.28 1.562-97.168 28.376-117.496 50.562a152.584 152.584 0 0 0-8.25 9.812c-13.67-18.656-30.546-28.406-44.608-33.468-20.86-7.5-39.186-6.124-44.328-5.532-8.578 0.876-16.14 6.876-18.514 15.688-3.046 11.406 3.704 23.094 15.092 26.154 2.86 0.75 5.734 0.906 8.484 0.5l0.016 0.032-0.204 0.032c4.812-0.624 47.468-4.56 61.78 48.438 2.562 9.5 11.188 15.78 20.578 15.78 1.844 0 3.718-0.248 5.578-0.748 7.312-1.968 12.688-7.532 14.782-14.25h0.016l-0.032 0.124c0.906-2.782 23.294-68.28 108.23-70.498 11.782-0.282 21.094-10.094 20.782-21.876s-10.094-21.064-21.906-20.75z" fill="#434A54" /></svg>