<?xml version="1.0" standalone="no"?><!DOCTYPE svg PUBLIC "-//W3C//DTD SVG 1.1//EN" "http://www.w3.org/Graphics/SVG/1.1/DTD/svg11.dtd"><svg class="icon" width="128px" height="128.00px" viewBox="0 0 1024 1024" version="1.1" xmlns="http://www.w3.org/2000/svg"><path d="M0.118 42.764h1023.766v938.472H0.118z" fill="#FC6E51" /><path d="M85.426 981.236H1023.886v-42.678h-42.68v-85.292h42.68v-42.678h-191.958v-85.292H1023.886v-42.678h-42.68v-85.292h42.68v-42.678h-191.958v-85.292H1023.886v-42.678h-42.68v-85.292h42.68v-42.678h-191.958v-85.292H1023.886V170.734h-42.68V85.442h42.68V42.764H0.118v42.678H42.78v85.292H0.118v42.678H192.09v85.292H0.118v42.678H42.78v85.292H0.118v42.678H192.09v85.292H0.118v42.678H42.78v85.292H0.118v42.678H192.09v85.292H0.118v42.678H42.78v85.292H0.118v42.678H85.426z m255.942-170.648h-106.632v-85.292h255.942v85.292h-149.31z m191.97-255.942v-85.292h255.91v85.292H533.338z m106.63 42.678v85.292h-255.94v-85.292h255.94z m0-170.648h-255.94v-85.292h255.94v85.292z m-149.292 42.678v85.292H234.734v-85.292h255.942z m149.292 469.204h-255.94v-85.292h255.94v85.292z m0-127.97h-106.63v-85.292h255.91v85.292h-149.28z m298.56 42.678v85.292h-255.88v-85.292h255.88z m0-255.942v85.292h-255.88v-85.292h255.88z m0-255.942v85.292h-255.88v-85.292h255.88z m-255.88-255.94h255.88v85.292h-255.88V85.442z m0 127.97h106.6v85.292H533.338v-85.292h149.31z m-298.62-127.97h255.94v85.292h-255.94V85.442z m-42.66 127.97h149.31v85.292H234.736v-85.292h106.632zM85.426 170.734V85.442h255.942v85.292H85.426z m0 255.942v-85.292h255.942v85.292H85.426z m0 255.942v-85.292h255.942v85.292H85.426z m0 170.648h255.942v85.292H85.426v-85.292z" fill="#E9573F" /><path d="M678.96 128.088H192.074v767.824h639.852V281.054l-12.496-12.496-127.972-127.97-12.498-12.5z" fill="#F5F7FA" /><path d="M298.69 554.646l106.132-170.616 106.132 170.616z" fill="#E9573F" /><path d="M426.3 554.646l149.466-255.94 149.464 255.94z" fill="#FC6E51" /><path d="M575.984 767.942h-170.632c-11.778 0-21.324-9.56-21.324-21.34 0-11.778 9.544-21.306 21.324-21.306h170.632c11.78 0 21.308 9.53 21.308 21.306 0 11.778-9.528 21.34-21.308 21.34zM661.278 682.618H320.044c-11.78 0-21.324-9.53-21.324-21.308s9.544-21.338 21.324-21.338h341.234c11.81 0 21.372 9.56 21.372 21.338-0.002 11.778-9.562 21.308-21.372 21.308z" fill="#434A54" /><path d="M678.96 128.088v152.964h152.966z" fill="#CCD1D9" /></svg>