<?xml version="1.0" standalone="no"?><!DOCTYPE svg PUBLIC "-//W3C//DTD SVG 1.1//EN" "http://www.w3.org/Graphics/SVG/1.1/DTD/svg11.dtd"><svg class="icon" width="128px" height="128.00px" viewBox="0 0 1024 1024" version="1.1" xmlns="http://www.w3.org/2000/svg"><path d="M971.548 203.292s75.562-165.808 45.282-196.122c-30.312-30.28-196.122 45.28-196.122 45.28L475.654 397.504l150.84 150.838 345.054-345.05z" fill="#CCD1D9" /><path d="M684.962 520.064l-181.028-181.026L37.572 805.4c-0.032 0.032-0.062 0.062-0.062 0.094-50 49.966-50 131.03 0 180.996 49.966 49.998 131.028 49.998 180.994 0 0.062-0.032 0.094-0.094 0.156-0.124l466.302-466.302z" fill="#ED5564" /><path d="M865.958 158.042c-8.312-8.344-21.844-8.344-30.156 0L624.62 369.194v0.032c-8.344 8.312-8.344 21.812 0 30.154 8.312 8.344 21.844 8.344 30.156 0L865.958 188.198c8.344-8.344 8.344-21.844 0-30.156z" fill="#AAB2BC" /><path d="M654.776 550.218l-180.996-180.992 30.156-30.188 181.026 181.026z" fill="#DA4453" /><path d="M684.962 520.064l-181.028-181.026 150.84 150.84L188.474 956.18c-0.032 0.062-0.094 0.094-0.124 0.156-44.844 44.842-114.686 49.436-164.684 13.81a126.224 126.224 0 0 0 13.844 16.344c49.966 49.998 131.028 49.998 180.994 0 0.062-0.032 0.094-0.094 0.156-0.124l466.302-466.302z" fill="#FFFFFF" opacity=".2" /></svg>