<?xml version="1.0" standalone="no"?><!DOCTYPE svg PUBLIC "-//W3C//DTD SVG 1.1//EN" "http://www.w3.org/Graphics/SVG/1.1/DTD/svg11.dtd"><svg class="icon" width="128px" height="128.00px" viewBox="0 0 1024 1024" version="1.1" xmlns="http://www.w3.org/2000/svg"><path d="M579.244 173.76c-130.84-16.25-429.788-3.938-538.566 176.246-42.25 70.03-59.39 160.466-12.922 243.058 96.28 171.122 641.518 71.092 704.672-107.842 30.218-85.622 8.28-291.43-153.184-311.462z" fill="#965353" /><path d="M70.49 593.064c-46.468-82.592-29.328-173.028 12.922-243.058 83.576-138.434 279.4-177.778 425.006-181.214-147.294-3.53-375.648 28.688-467.74 181.214-42.25 70.03-59.39 160.466-12.922 243.058 37.156 66.03 141.168 91.686 258.542 87.998-99.28-3.25-183.248-30.124-215.808-87.998z" opacity=".1" /><path d="M149.456 456.848c0 11.812-9.562 21.376-21.358 21.376-11.796 0-21.36-9.562-21.36-21.376s9.562-21.374 21.36-21.374c11.796 0 21.358 9.562 21.358 21.374zM555.4 328.664c0 11.782-9.56 21.342-21.358 21.342s-21.36-9.562-21.36-21.342c0-11.812 9.562-21.374 21.36-21.374s21.358 9.562 21.358 21.374zM427.216 456.848c0 11.812-9.562 21.376-21.358 21.376-11.796 0-21.376-9.562-21.376-21.376s9.578-21.374 21.376-21.374c11.796 0 21.358 9.562 21.358 21.374zM234.922 563.69a21.346 21.346 0 0 0-20.436 15.124c-8.516 27.876-7.562 67.716-4.562 100.186 14.046 1.282 28.5 2.062 43.25 2.312-3.156-30.844-4.546-67.78 2.156-89.874 0.624-2.032 0.968-4.156 0.968-6.406 0-11.78-9.578-21.342-21.376-21.342zM351.858 285.976c0.032 11.782 9.594 21.312 21.358 21.312 11.796 0 21.376-9.562 21.376-21.376v-0.062c-0.11-32.312 19.452-84.466 32.858-115.342a884.158 884.158 0 0 0-48.092 4.438c-1.562 4-3.172 8.156-4.782 12.468-15.14 40.624-22.78 73.748-22.718 98.466v0.096z" fill="#7F4545" /><path d="M810.332 307.04c-197.808 10-304.96 180.028-341.852 256.276-27.296 56.406-53.484 97.374-42.218 158.028 11.266 60.656 101.124 106.686 158.918 124.06 35.81 10.75 225.15 31.624 329.806-57.748 108.622-92.812 108.996-235.028 108.996-320.494s-15.872-170.154-213.65-160.122z" fill="#A85D5D" /><path d="M724.868 734.592a21.366 21.366 0 0 1-21.376 21.376c-11.782 0-21.376-9.562-21.376-21.376 0-11.782 9.594-21.344 21.376-21.344 11.812 0 21.376 9.562 21.376 21.344zM682.118 499.566c0 11.812-9.562 21.374-21.344 21.374a21.366 21.366 0 0 1-21.376-21.374c0-11.782 9.562-21.344 21.376-21.344 11.78 0 21.344 9.564 21.344 21.344zM853.05 585.034a21.366 21.366 0 0 1-21.376 21.376c-11.782 0-21.344-9.562-21.344-21.376 0-11.782 9.562-21.344 21.344-21.344 11.814 0 21.376 9.562 21.376 21.344zM502.23 808.56c17.734-10.032 37.484-24.438 47.044-42.594 0.094-0.156 0.188-0.344 0.282-0.5a1.322 1.322 0 0 1 0.156-0.282h-0.032a21.022 21.022 0 0 0 2.344-9.688c0-11.782-9.56-21.344-21.358-21.344-8.312 0-15.5 4.75-19.032 11.688h-0.016c-6.282 12.344-29.234 26.094-48.094 34.406 11.472 10.408 24.738 19.878 38.706 28.314zM985.704 345.756c-17.062 11.03-43.404 24.842-69.248 25.656v0.032a21.78 21.78 0 0 0-5.748 0.968c-11.25 3.562-17.468 15.562-13.906 26.812 2.938 9.344 11.718 15.188 21.06 14.906 35.344-1.156 68.716-17.782 92.654-33.562-5.656-12.812-13.626-24.594-24.812-34.812z" fill="#965353" /><path d="M818.958 306.664c149.278 6.376 162.308 83.124 162.308 160.496 0 85.466-0.376 227.682-109.028 320.494-57.282 48.936-139.966 64.81-208.934 67.404 74.466 2.75 181.872-7.812 251.684-67.404 108.622-92.812 108.996-235.028 108.996-320.494 0-84.216-15.406-167.652-205.026-160.496z" fill="#FFFFFF" opacity=".1" /></svg>