<?xml version="1.0" standalone="no"?><!DOCTYPE svg PUBLIC "-//W3C//DTD SVG 1.1//EN" "http://www.w3.org/Graphics/SVG/1.1/DTD/svg11.dtd"><svg class="icon" width="128px" height="128.00px" viewBox="0 0 1024 1024" version="1.1" xmlns="http://www.w3.org/2000/svg"><path d="M63.914 938.618c-11.812 0-21.344 9.562-21.344 21.376 0 11.746 9.532 21.308 21.344 21.308h85.342v-42.684H63.914z" fill="#434A54" /><path d="M937.672 427.972c-45.874-45.858-114.122-55.656-169.558-29.406v-78.452C768.114 143.322 624.806 0.012 448.03 0.012c-176.808 0-320.118 143.31-320.118 320.102v703.874h640.202V808.804l169.558-169.558c58.344-58.37 58.344-152.932 0-211.274z" fill="#ED5564" /><path d="M725.43 320.114v91.248a149.28 149.28 0 0 1 42.684-12.796v-78.452C768.114 143.322 624.806 0.012 448.03 0.012c-7.188 0-14.312 0.266-21.344 0.734 166.808 10.986 298.744 149.748 298.744 319.368zM937.672 427.972c-34.624-34.61-81.996-48.67-126.996-42.202 30.844 4.422 60.562 18.468 84.31 42.202 58.342 58.342 58.342 152.904 0 211.274l-169.556 169.558v215.184h42.684V808.804l169.558-169.558c58.344-58.37 58.344-152.932 0-211.274z" fill="#FFFFFF" opacity=".2" /><path d="M447.998 0.012l152.028 152.042 66.154-66.138C609.024 32.636 532.34 0.012 448.03 0.012h-0.032zM768.114 320.114c0-10.312-0.5-20.5-1.466-30.56l-14.562 14.562 16.03 16.014v-0.016zM832.238 384.254l71.904 71.904 30.78-30.812c-28.748-27.344-65.684-41.046-102.684-41.092zM229.816 85.932l66.124 66.124L447.998 0.014c-84.31 0.014-160.996 32.64-218.182 85.918zM600.026 456.158l-152.028-152.042 152.028-152.06 152.058 152.06z" fill="#E6E9ED" /><path d="M295.94 456.158l-152.028-152.042 152.028-152.06 152.058 152.06zM600.026 760.246l-152.028-152.058 152.028-152.03 152.058 152.03z" fill="#E6E9ED" /><path d="M295.94 760.246l-152.028-152.058 152.028-152.03 152.058 152.03zM937.672 639.246c29.188-29.246 43.782-67.528 43.75-105.808l-77.28-77.28-152.058 152.03 108.31 108.308 77.278-77.25zM447.998 912.304l111.686 111.684h80.684l111.716-111.684-152.058-152.058zM447.998 912.304l-152.058-152.058-152.028 152.058 111.684 111.684h80.686z" fill="#E6E9ED" /><path d="M127.912 938.618h640.202v85.372H127.912z" fill="#DA4453" /><path d="M661.398 1002.644c-11.782 0-21.312 9.562-21.312 21.344h42.656c0-11.78-9.532-21.344-21.344-21.344zM576.056 1002.644c-11.78 0-21.342 9.562-21.342 21.344H597.4c0-11.78-9.562-21.344-21.344-21.344zM490.684 1002.644c-11.78 0-21.342 9.562-21.342 21.344h42.686c0-11.78-9.564-21.344-21.344-21.344zM405.342 1002.644c-11.78 0-21.342 9.562-21.342 21.344h42.686c0-11.78-9.562-21.344-21.344-21.344zM319.97 1002.644c-11.782 0-21.344 9.562-21.344 21.344h42.686c0-11.78-9.562-21.344-21.342-21.344zM234.628 1002.644c-11.782 0-21.344 9.562-21.344 21.344h42.686c0-11.78-9.562-21.344-21.342-21.344z" fill="#ED5564" /></svg>