<?xml version="1.0" standalone="no"?><!DOCTYPE svg PUBLIC "-//W3C//DTD SVG 1.1//EN" "http://www.w3.org/Graphics/SVG/1.1/DTD/svg11.dtd"><svg class="icon" width="128px" height="128.00px" viewBox="0 0 1024 1024" version="1.1" xmlns="http://www.w3.org/2000/svg"><path d="M633.748 68.728l-62.5-62.498c-4-4-9.438-6.218-15.094-6.218h-88.34a21.33 21.33 0 0 0-15.094 6.218l-62.498 62.498c-4 4-6.218 9.438-6.218 15.094v88.342c0 5.656 2.218 11.094 6.218 15.094l62.498 62.498c4 4 9.438 6.218 15.094 6.218h88.34c5.656 0 11.094-2.218 15.094-6.218l62.5-62.498c4-4 6.25-9.438 6.25-15.094V83.822c0-5.688-2.25-11.094-6.25-15.094zM512 170.664c-23.53 0-42.686-19.156-42.686-42.654 0-23.532 19.156-42.688 42.686-42.688 23.5 0 42.654 19.156 42.654 42.688 0 23.498-19.154 42.654-42.654 42.654z" fill="#4A89DC" /><path d="M639.998 298.66H384.004a21.314 21.314 0 0 0-21.344 21.344v85.31c0 11.782 9.532 21.344 21.344 21.344h255.994c11.782 0 21.312-9.562 21.312-21.344v-85.31c0-11.812-9.53-21.344-21.312-21.344z" fill="#434A54" /><path d="M746.65 469.312h-21.344v-63.998a21.296 21.296 0 0 0-21.312-21.31H320.004c-11.812 0-21.344 9.53-21.344 21.31v63.998h-21.342c-11.782 0-21.312 9.562-21.312 21.344v511.988c0 11.782 9.532 21.344 21.312 21.344h469.332c11.782 0 21.344-9.562 21.344-21.344V490.656c0-11.78-9.562-21.344-21.344-21.344z" fill="#E6E9ED" /><path d="M298.662 469.312h106.654c11.782 0 21.344-9.53 21.344-21.31 0-11.812-9.562-21.344-21.344-21.344h-106.654v42.654zM595.78 448.002a21.296 21.296 0 0 0 21.312 21.31h108.214v-42.654h-108.214c-11.782 0-21.312 9.532-21.312 21.344z" fill="#CCD1D9" /><path d="M697.746 262.224l-42.686-42.654c-4-4-9.406-6.25-15.062-6.25H384.004a21.306 21.306 0 0 0-15.094 6.25l-42.688 42.654c-8.312 8.344-8.312 21.844 0 30.188l42.688 42.654c4 4 9.406 6.25 15.094 6.25h255.994c5.656 0 11.062-2.25 15.062-6.25l42.686-42.654c8.31-8.344 8.31-21.844 0-30.188zM512 661.308c-87.528-87.53-214.496-30.438-255.994-7.938v349.274c0 11.782 9.532 21.344 21.312 21.344h469.332c11.782 0 21.344-9.562 21.344-21.344V669.246c-41.532 22.5-168.496 79.592-255.994-7.938z" fill="#5D9CEC" /><path d="M746.65 469.312h-21.344v-63.998a21.296 21.296 0 0 0-21.312-21.31h-42.684c11.78 0 21.342 9.53 21.342 21.31v63.998h21.342c11.782 0 21.312 9.562 21.312 21.344v511.988c0 11.782-9.532 21.344-21.312 21.344h42.656c11.782 0 21.344-9.562 21.344-21.344V490.656c0-11.78-9.562-21.344-21.344-21.344z" fill="#FFFFFF" opacity=".2" /><path d="M390.254 795.554a21.334 21.334 0 0 0 0 30.19c8.312 8.312 21.812 8.312 30.156 0a21.334 21.334 0 0 0 0-30.19c-8.344-8.312-21.844-8.312-30.156 0zM347.566 880.898c-8.312 8.312-8.312 21.844 0 30.156a21.336 21.336 0 0 0 30.188 0c8.312-8.312 8.312-21.844 0-30.156a21.332 21.332 0 0 0-30.188 0z" fill="#4A89DC" /></svg>