<?xml version="1.0" standalone="no"?><!DOCTYPE svg PUBLIC "-//W3C//DTD SVG 1.1//EN" "http://www.w3.org/Graphics/SVG/1.1/DTD/svg11.dtd"><svg class="icon" width="128px" height="128.00px" viewBox="0 0 1024 1024" version="1.1" xmlns="http://www.w3.org/2000/svg"><path d="M981.298 597.342c-2.844 0-5.75-0.594-8.562-1.812l-97.31-42.656c-10.782-4.75-15.688-17.31-10.968-28.124 4.718-10.782 17.312-15.688 28.094-10.968l97.342 42.654c10.782 4.75 15.716 17.344 10.968 28.124-3.5 8-11.344 12.782-19.564 12.782zM42.678 597.342a21.362 21.362 0 0 1-19.546-12.782c-4.734-10.782 0.188-23.376 10.984-28.124l97.312-42.654c10.796-4.718 23.374 0.188 28.108 10.968 4.734 10.812-0.188 23.374-10.968 28.124l-97.326 42.656a21.37 21.37 0 0 1-8.564 1.812z" fill="#434A54" /><path d="M402 384.004c0 23.56-47.75 42.654-106.67 42.654-58.904 0-106.654-19.094-106.654-42.654 0-23.562 47.75-42.688 106.654-42.688 58.92 0 106.67 19.126 106.67 42.688z" fill="#FFCE54" /><path d="M295.33 448.002c-31.14 0-60.732-5-83.342-14.032-38.842-15.532-44.654-37.968-44.654-49.966 0-12 5.812-34.438 44.654-50 22.61-9.032 52.202-14 83.342-14s60.75 4.968 83.358 14c38.842 15.562 44.64 38 44.64 50 0 11.998-5.796 34.436-44.64 49.966-22.61 9.032-52.22 14.032-83.358 14.032z m-84.796-63.998c5.5 6.968 34.734 21.31 84.794 21.31 50.078 0 79.312-14.342 84.812-21.31-5.5-7-34.734-21.344-84.812-21.344-50.06 0-79.294 14.344-84.794 21.344z" fill="#F6BB42" /><path d="M615.306 384.004c0 23.56-47.75 42.654-106.638 42.654-58.92 0-106.67-19.094-106.67-42.654 0-23.562 47.75-42.688 106.67-42.688 58.888 0 106.638 19.126 106.638 42.688z" fill="#FFCE54" /><path d="M508.668 448.002c-31.14 0-60.75-5-83.358-14.032-38.842-15.532-44.64-37.968-44.64-49.966 0-12 5.796-34.438 44.64-50 22.608-9.032 52.216-14 83.358-14 31.14 0 60.732 4.968 83.326 14 38.876 15.562 44.688 38 44.688 50 0 11.998-5.812 34.436-44.688 49.966-22.594 9.032-52.186 14.032-83.326 14.032z m-84.81-63.998c5.5 6.968 34.734 21.31 84.81 21.31s79.294-14.342 84.794-21.31c-5.5-7-34.718-21.344-84.794-21.344-50.076 0-79.31 14.344-84.81 21.344z" fill="#F6BB42" /><path d="M828.678 384.004c0 23.56-47.782 42.654-106.688 42.654-58.902 0-106.684-19.094-106.684-42.654 0-23.562 47.782-42.688 106.684-42.688 58.906 0 106.688 19.126 106.688 42.688z" fill="#FFCE54" /><path d="M721.99 448.002c-31.124 0-60.746-5-83.34-14.032-38.844-15.532-44.656-37.968-44.656-49.966 0-12 5.812-34.438 44.656-50 22.594-9.032 52.216-14 83.34-14 31.124 0 60.75 4.968 83.344 14 38.844 15.562 44.656 38 44.656 50 0 11.998-5.812 34.436-44.656 49.966-22.594 9.032-52.218 14.032-83.344 14.032z m-84.808-63.998c5.5 6.968 34.748 21.31 84.808 21.31 50.062 0 79.312-14.342 84.812-21.31-5.5-7-34.75-21.344-84.812-21.344-50.06 0-79.308 14.344-84.808 21.344z" fill="#F6BB42" /><path d="M721.99 310.254c0 23.562-47.748 42.656-106.684 42.656-58.876 0-106.638-19.094-106.638-42.656 0-23.56 47.762-42.654 106.638-42.654 58.936 0 106.684 19.094 106.684 42.654z" fill="#FFCE54" /><path d="M615.306 374.254c-31.124 0-60.718-4.968-83.326-14.032-38.842-15.532-44.656-37.968-44.656-49.968s5.812-34.436 44.656-49.966c22.608-9.062 52.202-14.032 83.326-14.032 31.156 0 60.748 4.968 83.374 14.032 38.842 15.532 44.624 37.966 44.624 49.966s-5.782 34.438-44.624 49.968c-22.626 9.064-52.218 14.032-83.374 14.032z m-84.778-64c5.5 6.968 34.716 21.344 84.78 21.344 50.092 0 79.31-14.376 84.81-21.344-5.5-6.968-34.718-21.342-84.81-21.342-50.064 0-79.28 14.374-84.78 21.342z" fill="#F6BB42" /><path d="M508.668 310.254c0 23.562-47.764 42.656-106.67 42.656s-106.67-19.094-106.67-42.656c0-23.56 47.764-42.654 106.67-42.654s106.67 19.094 106.67 42.654z" fill="#FFCE54" /><path d="M402 374.254c-31.14 0-60.734-4.968-83.342-14.032-38.858-15.532-44.656-37.968-44.656-49.968s5.796-34.436 44.656-49.966c22.608-9.062 52.202-14.032 83.342-14.032s60.734 4.968 83.342 14.032c38.858 15.532 44.656 37.966 44.656 49.966s-5.796 34.438-44.656 49.968c-22.61 9.064-52.202 14.032-83.342 14.032z m-84.796-64c5.5 6.968 34.718 21.344 84.794 21.344s79.294-14.376 84.794-21.344c-5.5-6.968-34.718-21.342-84.794-21.342s-79.294 14.374-84.794 21.342z" fill="#F6BB42" /><path d="M615.306 236.006c0 23.562-47.75 42.656-106.638 42.656-58.92 0-106.67-19.094-106.67-42.656 0-23.56 47.75-42.686 106.67-42.686 58.888 0 106.638 19.126 106.638 42.686z" fill="#FFCE54" /><path d="M508.668 300.004c-31.14 0-60.75-4.998-83.358-14.03-38.842-15.532-44.64-37.968-44.64-49.968s5.796-34.436 44.64-49.998c22.608-9.032 52.216-14 83.358-14 31.14 0 60.732 4.968 83.326 14 38.876 15.562 44.688 37.998 44.688 49.998s-5.812 34.438-44.688 49.968c-22.594 9.032-52.186 14.03-83.326 14.03z m-84.81-63.998c5.5 6.968 34.734 21.312 84.81 21.312s79.294-14.344 84.794-21.312c-5.5-7-34.718-21.342-84.794-21.342-50.076 0-79.31 14.342-84.81 21.342z" fill="#F6BB42" /><path d="M981.298 256.006a21.298 21.298 0 0 1-21.31 21.312c-11.782 0-21.312-9.532-21.312-21.312s9.532-21.344 21.312-21.344c11.78 0 21.31 9.562 21.31 21.344z" fill="#A0D468" /><path d="M597.306 21.322c0 11.782-9.532 21.344-21.312 21.344s-21.312-9.562-21.312-21.344c0-11.78 9.532-21.31 21.312-21.31s21.312 9.53 21.312 21.31z" fill="#AC92EB" /><path d="M341.328 128.01c0 11.782-9.546 21.31-21.328 21.31s-21.328-9.53-21.328-21.31S308.22 106.666 320 106.666c11.782 0 21.328 9.562 21.328 21.344z" fill="#48CFAD" /><path d="M874.676 44.322V23.01c0-11.78-9.562-21.342-21.374-21.342-11.75 0-21.312 9.562-21.312 21.342v21.312c-11.782 0-21.312 9.562-21.312 21.344s9.532 21.344 21.312 21.344v21.312c0 11.782 9.562 21.344 21.312 21.344 11.81 0 21.374-9.562 21.374-21.344V87.01c11.75 0 21.312-9.562 21.312-21.344s-9.562-21.344-21.312-21.344z" fill="#FC6E51" /><path d="M106.678 170.664V149.32c0-11.78-9.562-21.31-21.342-21.31-11.782 0-21.33 9.532-21.33 21.31v21.344c-11.78 0-21.328 9.562-21.328 21.344s9.546 21.312 21.328 21.312v21.342c0 11.782 9.546 21.344 21.33 21.344 11.78 0 21.342-9.562 21.342-21.344V213.32c11.782 0 21.328-9.532 21.328-21.312s-9.548-21.344-21.328-21.344z" fill="#ED5564" /><path d="M914.52 620.464c-9.906-77.498-32.594-135.278-33.594-137.684-3.188-8.124-11.062-13.468-19.812-13.468H162.864a21.322 21.322 0 0 0-19.812 13.468c-0.968 2.406-23.67 60.186-33.578 137.684-5.86 45.876-6 89.216-0.406 128.81 7.124 50.374 23.578 94.842 48.906 132.186 64.202 94.56 183.308 142.528 354.022 142.528s289.806-47.966 354.024-142.528c25.344-37.344 41.782-81.812 48.906-132.186 5.594-39.592 5.438-82.934-0.406-128.81z" fill="#656D78" /><path d="M914.52 620.464c-9.906-77.498-32.594-135.278-33.594-137.684-3.188-8.124-11.062-13.468-19.812-13.468H818.46c8.718 0 16.594 5.344 19.844 13.468 0.938 2.406 23.624 60.186 33.56 137.684 5.876 45.876 6 89.216 0.376 128.81-7.094 50.374-23.56 94.842-48.874 132.186-61.5 90.56-173.372 138.372-332.696 142.246 7.016 0.188 14.124 0.282 21.328 0.282 170.714 0 289.806-47.966 354.024-142.528 25.344-37.344 41.782-81.812 48.906-132.186 5.592-39.592 5.436-82.934-0.408-128.81z" fill="#FFFFFF" opacity=".1" /><path d="M874.676 384.004H149.334c-35.28 0-63.998 28.686-63.998 63.998 0 35.28 28.718 63.998 63.998 63.998h725.342c35.25 0 64-28.718 64-63.998 0-35.312-28.75-63.998-64-63.998z" fill="#434A54" /><path d="M533.262 704.026h-101.934l-1.344 0.156c-48.108 6.156-76.218 24.218-83.53 53.718-6.39 25.748 1.406 42.842 9.094 52.654 12.376 15.846 31.75 22.47 46.296 25.252 0.954 4.842 2.328 10.248 4.328 15.686 9.704 26.5 29.828 41.718 55.202 41.718h0.016c5.938 0 12.218-0.844 18.67-2.5 29.234-7.438 47.092-35.5 53.078-83.438l0.172-1.344-0.048-101.902z" fill="#8CC153" /><path d="M677.336 757.244c-7.468-29.25-35.53-47.094-83.466-53.062l-1.312-0.188-59.28 0.032v-59.342l-0.172-1.344c-6.124-48.092-24.202-76.216-53.702-83.53-6.328-1.562-12.484-2.376-18.312-2.376-15.376 0-29.014 5.532-39.436 15.968-12.204 12.218-17.688 28.904-20.156 41.78-14.514 2.876-33.828 9.594-46.124 25.5-7.624 9.876-15.344 27-8.796 52.75 7.454 29.216 35.532 47.092 83.468 53.06l1.328 0.188 59.264-0.032v59.31l0.172 1.344c6.14 48.124 24.202 76.218 53.686 83.562 6.342 1.562 12.498 2.344 18.31 2.344 15.376 0 29.032-5.5 39.468-15.968 12.218-12.188 17.688-28.876 20.156-41.748 14.5-2.876 33.812-9.624 46.124-25.502 7.624-9.872 15.312-27.03 8.78-52.746z" fill="#A0D468" /><path d="M668.368 640.09c-12.374-15.812-31.748-22.438-46.31-25.218a101.994 101.994 0 0 0-4.312-15.716c-9.688-26.5-29.812-41.688-55.188-41.688-5.938 0-12.25 0.844-18.702 2.468-29.234 7.438-47.092 35.532-53.078 83.466l-0.172 1.312 0.046 101.936h101.934l1.344-0.188c48.124-6.124 76.216-24.188 83.56-53.686 6.378-25.748-1.436-42.874-9.122-52.686z" fill="#8CC153" /></svg>