<?xml version="1.0" standalone="no"?><!DOCTYPE svg PUBLIC "-//W3C//DTD SVG 1.1//EN" "http://www.w3.org/Graphics/SVG/1.1/DTD/svg11.dtd"><svg class="icon" width="128px" height="128.00px" viewBox="0 0 1024 1024" version="1.1" xmlns="http://www.w3.org/2000/svg"><path d="M863.616 212.928c-0.032-2.218-1.56-54.878-37.178-107.476-20.964-30.914-49.3-55.502-84.292-73.076C699.528 10.972 647.07 0.118 586.242 0.118c-60.846 0-113.288 10.856-155.872 32.258-34.976 17.574-63.33 42.162-84.246 73.076-35.618 52.598-37.086 105.274-37.132 107.492V971.832h42.646V213.74c0.14-2.968 2.5-45.038 30.914-85.98 16.918-24.416 39.868-43.88 68.204-57.878 36.382-17.994 81.966-27.118 135.486-27.118 53.488 0 99.102 9.124 135.5 27.118 28.336 13.998 51.332 33.478 68.266 57.878 29.368 42.272 30.96 85.73 30.992 86.168 0.312 11.528 9.716 20.776 21.308 20.776 11.778 0 21.306-9.544 21.306-21.322l0.002-0.454z" fill="#37BC9B" /><path d="M756.828 575.922c0-11.748-9.53-21.306-21.308-21.306H181.022c-11.78 0-21.324 9.558-21.324 21.306a21.312 21.312 0 0 0 21.324 21.338H735.52c11.778 0 21.308-9.528 21.308-21.338zM864.302 980.142c0-11.748-9.53-21.308-21.306-21.308-2.876 0-5.594 0.562-8.094 1.594v-0.032a0.516 0.516 0 0 1-0.188 0.094l-0.032 0.032c-5.716 2.25-125.468 47.708-283.622-4.188-93.214-30.586-168.354-21.494-214.982-8.498-51.348 14.31-80.654 36.43-81.874 37.368h0.016c-5.092 3.906-8.388 10.03-8.388 16.934 0 11.78 9.56 21.34 21.34 21.34 4.826 0 9.28-1.656 12.856-4.344h0.016c0.25-0.188 25.384-18.808 69.516-30.774 59.002-15.964 122.332-13.124 188.208 8.498 62.032 20.338 118.55 27.026 166.008 27.026 87.2 0 143.716-22.528 147.278-23.996a21.308 21.308 0 0 0 13.248-19.746z" fill="#37BC9B" /></svg>