<?xml version="1.0" standalone="no"?><!DOCTYPE svg PUBLIC "-//W3C//DTD SVG 1.1//EN" "http://www.w3.org/Graphics/SVG/1.1/DTD/svg11.dtd"><svg class="icon" width="128px" height="128.00px" viewBox="0 0 1024 1024" version="1.1" xmlns="http://www.w3.org/2000/svg"><path d="M426.68 573.376V1024h170.64V573.376z" fill="#656D78" /><path d="M384.008 604.438h256V768h-256z" fill="#434A54" /><path d="M448.008 746.688c-11.782 0-21.328 9.562-21.328 21.312h42.656c0-11.75-9.546-21.312-21.328-21.312zM512.008 746.688c-11.782 0-21.328 9.562-21.328 21.312h42.656c0-11.75-9.546-21.312-21.328-21.312zM576.008 746.688c-11.782 0-21.312 9.562-21.312 21.312h42.624c0-11.75-9.53-21.312-21.312-21.312z" opacity=".1" /><path d="M725.32 362.688c0 11.718-3 30.438-6.718 41.562l-29.188 87.532c-3.718 11.124-6.718 29.844-6.718 41.562v128.032c0 11.688-9.624 21.312-21.376 21.312H362.68c-11.734 0-21.344-9.624-21.344-21.312v-128.032c0-11.718-3.032-30.438-6.734-41.562l-29.188-87.532c-3.704-11.124-6.734-29.844-6.734-41.562V21.344C298.68 9.624 308.274 0 320.008 0h384c11.75 0 21.312 9.624 21.312 21.344v341.344z" fill="#656D78" /><path d="M341.336 597.376h341.36V640h-341.36zM339.304 512.032c1.25 7.624 2.032 15.376 2.032 21.312v21.344h341.36v-21.344c0-5.938 0.75-13.688 2-21.312H339.304zM444.836 0v192.032c0 35.344 28.656 64 64 64 35.36 0 63.984-28.656 63.984-64V0h-127.984z" fill="#434A54" /><path d="M575.508 384.032h-127.5c-11.782 0-21.328 9.532-21.328 21.312s9.546 21.344 21.328 21.344h127.5c11.782 0 21.312-9.562 21.312-21.344s-9.53-21.312-21.312-21.312zM448.008 341.344h127.5c11.782 0 21.312-9.562 21.312-21.312 0-11.782-9.532-21.344-21.312-21.344h-127.5c-11.782 0-21.328 9.562-21.328 21.344 0 11.75 9.546 21.312 21.328 21.312z" fill="#434A54" /></svg>