<?xml version="1.0" standalone="no"?><!DOCTYPE svg PUBLIC "-//W3C//DTD SVG 1.1//EN" "http://www.w3.org/Graphics/SVG/1.1/DTD/svg11.dtd"><svg class="icon" width="128px" height="128.00px" viewBox="0 0 1024 1024" version="1.1" xmlns="http://www.w3.org/2000/svg"><path d="M970.656 981.312h-85.312c-11.782 0-21.344 9.562-21.344 21.376 0 11.75 9.562 21.312 21.344 21.312h85.312c11.782 0 21.344-9.562 21.344-21.312 0-11.812-9.562-21.376-21.344-21.376zM800 981.312h-85.344c-11.782 0-21.312 9.562-21.312 21.376 0 11.75 9.532 21.312 21.312 21.312H800c11.782 0 21.344-9.562 21.344-21.312 0-11.812-9.562-21.376-21.344-21.376zM629.344 981.312c-11.782 0-21.344 9.562-21.344 21.376 0 11.75 9.562 21.312 21.344 21.312s21.312-9.562 21.312-21.312c0-11.812-9.532-21.376-21.312-21.376zM544 981.312c-11.782 0-21.344 9.562-21.344 21.376 0 11.75 9.562 21.312 21.344 21.312s21.344-9.562 21.344-21.312c0-11.812-9.562-21.376-21.344-21.376z" fill="#CCD1D9" /><path d="M266.656 0C148.844 0 53.344 95.516 53.344 213.328v448.422H160V213.328c0-58.906 47.75-106.656 106.656-106.656s106.688 47.75 106.688 106.656v128.89H480v-128.89C480 95.516 384.5 0 266.656 0zM160 725.312C160 713.562 169.562 704 181.344 704s21.312 9.562 21.312 21.312c0 11.812-9.532 21.376-21.312 21.376S160 737.124 160 725.312zM85.344 725.312c0-11.75 9.532-21.312 21.312-21.312S128 713.562 128 725.312c0 11.812-9.562 21.376-21.344 21.376s-21.312-9.564-21.312-21.376zM10.656 725.312C10.656 713.562 20.218 704 32 704s21.344 9.562 21.344 21.312c0 11.812-9.562 21.376-21.344 21.376s-21.344-9.564-21.344-21.376z" fill="#434A54" /><path d="M245.344 234.672h768v768.016h-768z" fill="#4FC2E9" /><path d="M10.656 597.312h192v128h-192z" fill="#AAB2BC" /><path d="M629.344 896C476.406 896 352 771.594 352 618.688c0-152.938 124.406-277.36 277.344-277.36 152.906 0 277.312 124.422 277.312 277.36 0 152.906-124.406 277.312-277.312 277.312z" fill="#CCD1D9" /><path d="M629.344 320c-164.968 0-298.688 133.718-298.688 298.688 0 164.938 133.718 298.624 298.688 298.624 164.938 0 298.656-133.688 298.656-298.624C928 453.718 794.282 320 629.344 320z m21.312 247.156v-31.124a84.832 84.832 0 0 1 22 9.156l-22 21.968z m-42.656 0.032l-21.968-22A84.62 84.62 0 0 1 608 536.032v31.156z m-30.156 30.124h-31.156a85.066 85.066 0 0 1 9.156-21.938l22 21.938z m0 42.688l-22 22a86.4 86.4 0 0 1-9.156-22h31.156zM608 670.188v31.124a84.67 84.67 0 0 1-21.968-9.188L608 670.188z m42.656 0l22 21.938a84.912 84.912 0 0 1-22 9.188v-31.126zM680.844 640h31.124a85.268 85.268 0 0 1-9.156 22l-21.968-22z m0-42.688l21.968-21.938a83.934 83.934 0 0 1 9.156 21.938h-31.124z m22.656-82.984a127.36 127.36 0 0 0-52.844-21.89v-43.124A168.986 168.986 0 0 1 734 483.83l-30.5 30.498zM608 492.438a127.524 127.524 0 0 0-52.844 21.89l-30.5-30.5c24.25-18.876 52.876-30.734 83.344-34.516v43.126z m-83 52.062c-10.968 15.438-18.624 33.376-21.876 52.812h-43.156c3.782-30.468 15.656-59.078 34.532-83.312l30.5 30.5zM503.124 640a127.168 127.168 0 0 0 21.876 52.812l-30.5 30.5A168.78 168.78 0 0 1 459.968 640h43.156z m52.032 83A127.106 127.106 0 0 0 608 744.876V788c-30.468-3.75-59.094-15.624-83.344-34.5l30.5-30.5z m95.5 21.876A126.916 126.916 0 0 0 703.5 723L734 753.5c-24.218 18.876-52.844 30.75-83.344 34.5v-43.124z m83-52.064A127.25 127.25 0 0 0 755.562 640h43.124c-3.782 30.5-15.624 59.124-34.532 83.312l-30.498-30.5z m21.906-95.5a127.406 127.406 0 0 0-21.906-52.812l30.5-30.5a168.8 168.8 0 0 1 34.532 83.312h-43.126z m8.782-143.828c-31.624-25.86-70.782-42.828-113.688-47.094v-42.844c53.282 4.376 103.218 25.062 143.968 59.64l-30.28 30.298zM608 406.39c-42.906 4.266-82.062 21.234-113.688 47.094l-30.282-30.296c40.75-34.578 90.688-55.266 143.968-59.64v42.842z m-143.844 77.266c-25.876 31.61-42.844 70.782-47.094 113.656h-42.844c4.376-53.25 25.062-103.188 59.624-143.954l30.314 30.298zM417.062 640c4.25 42.906 21.218 82.062 47.094 113.688l-30.312 30.282c-34.562-40.75-55.25-90.688-59.624-143.968h42.842z m77.25 143.844c31.624 25.844 70.782 42.844 113.688 47.094v42.844c-53.282-4.376-103.218-25.062-143.968-59.656l30.28-30.282z m156.344 47.094c42.906-4.25 82.062-21.25 113.688-47.094l30.282 30.282c-40.75 34.594-90.688 55.282-143.968 59.656v-42.844z m143.844-77.25c25.876-31.624 42.844-70.782 47.094-113.688h42.844c-4.376 53.282-25.032 103.218-59.624 143.968l-30.314-30.28z m47.094-156.376c-4.25-42.876-21.218-82.046-47.094-113.656l30.312-30.296c34.594 40.766 55.25 90.704 59.624 143.954h-42.842z" fill="#E6E9ED" /><path d="M928 341.328c0 11.782-9.562 21.344-21.344 21.344s-21.312-9.562-21.312-21.344S894.876 320 906.656 320 928 329.546 928 341.328zM928 896c0 11.782-9.562 21.312-21.344 21.312S885.344 907.78 885.344 896s9.532-21.312 21.312-21.312S928 884.218 928 896zM373.344 341.328c0 11.782-9.562 21.344-21.344 21.344s-21.344-9.562-21.344-21.344S340.218 320 352 320s21.344 9.546 21.344 21.328zM373.344 896c0 11.782-9.562 21.312-21.344 21.312S330.656 907.78 330.656 896s9.562-21.312 21.344-21.312 21.344 9.53 21.344 21.312z" fill="#434A54" /><path d="M501.344 234.672c0-11.782-9.562-21.344-21.344-21.344h-106.656c-11.782 0-21.344 9.562-21.344 21.344h149.344z" fill="#3BAFDA" /></svg>