<?xml version="1.0" standalone="no"?><!DOCTYPE svg PUBLIC "-//W3C//DTD SVG 1.1//EN" "http://www.w3.org/Graphics/SVG/1.1/DTD/svg11.dtd"><svg class="icon" width="128px" height="128.00px" viewBox="0 0 1024 1024" version="1.1" xmlns="http://www.w3.org/2000/svg"><path d="M885.468 917.688a21.314 21.314 0 0 0-21.344-21.344 20.94 20.94 0 0 0-9.156 2.094l-0.032-0.032c-117.438 55.906-280 112.594-387.516 65.282-58.968-25.938-73.546-71.532-74.14-73.438l0.046 0.156-41 11.844c0.766 2.656 19.656 65.344 96.312 99.812 32.472 14.594 70.44 21.938 113.3 21.938 15 0 30.624-0.906 46.75-2.688 75.688-8.438 164.688-36.812 264.624-84.376 7.188-3.436 12.156-10.748 12.156-19.248z" fill="#434A54" /><path d="M437.312 896.344c0 11.782-9.562 21.344-21.344 21.344h-85.376c-11.782 0-21.328-9.562-21.328-21.344v-149.406c0-11.782 9.546-21.344 21.328-21.344h85.376c11.782 0 21.344 9.562 21.344 21.344v149.406z" fill="#F6BB42" /><path d="M330.594 853.656c0-11.782-9.546-21.344-21.328-21.344V875c11.78 0 21.328-9.562 21.328-21.344zM415.968 853.656c0 11.782 9.546 21.344 21.344 21.344v-42.688c-11.796 0-21.344 9.564-21.344 21.344z" opacity=".1" /><path d="M608.032 768.282c0 23.594-19.094 42.688-42.656 42.688H181.204c-23.562 0-42.672-19.094-42.672-42.688V42.688C138.532 19.094 157.64 0 181.204 0h384.172c23.562 0 42.656 19.094 42.656 42.688v725.594z" fill="#FFCE54" /><path d="M373.282 704.25c-70.61 0-128.046-57.438-128.046-128.032s57.438-128.062 128.046-128.062 128.046 57.468 128.046 128.062-57.438 128.032-128.046 128.032z" fill="#E6E9ED" /><path d="M351.938 576.218c0 11.782-9.546 21.344-21.344 21.344-11.782 0-21.328-9.562-21.328-21.344s9.546-21.344 21.328-21.344c11.796 0.002 21.344 9.564 21.344 21.344z" fill="#434A54" /><path d="M394.624 469.5c0 11.782-9.562 21.344-21.344 21.344s-21.344-9.562-21.344-21.344 9.562-21.344 21.344-21.344 21.344 9.562 21.344 21.344zM394.624 682.906c0 11.812-9.562 21.344-21.344 21.344s-21.344-9.532-21.344-21.344c0-11.782 9.562-21.312 21.344-21.312s21.344 9.53 21.344 21.312z" fill="#AAB2BC" /><path d="M437.312 576.218c0 11.782-9.562 21.344-21.344 21.344-11.796 0-21.344-9.562-21.344-21.344s9.546-21.344 21.344-21.344c11.782 0.002 21.344 9.564 21.344 21.344z" fill="#434A54" /><path d="M373.282 426.812c-82.5 0-149.39 66.906-149.39 149.406s66.89 149.376 149.39 149.376 149.39-66.876 149.39-149.376-66.89-149.406-149.39-149.406z m0 256.094c-58.844 0-106.704-47.844-106.704-106.688s47.86-106.718 106.704-106.718 106.704 47.876 106.704 106.718-47.862 106.688-106.704 106.688z" fill="#F6BB42" /><path d="M373.282 362.812c-70.61 0-128.046-57.438-128.046-128.062 0-70.594 57.438-128.032 128.046-128.032s128.046 57.438 128.046 128.032c0 70.626-57.438 128.062-128.046 128.062z" fill="#E6E9ED" /><path d="M351.938 234.75c0 11.782-9.546 21.344-21.344 21.344-11.782 0-21.328-9.562-21.328-21.344s9.546-21.344 21.328-21.344c11.796 0 21.344 9.562 21.344 21.344z" fill="#434A54" /><path d="M394.624 128.062c0 11.782-9.562 21.312-21.344 21.312s-21.344-9.532-21.344-21.312c0-11.812 9.562-21.344 21.344-21.344s21.344 9.532 21.344 21.344zM394.624 341.468c0 11.782-9.562 21.344-21.344 21.344s-21.344-9.562-21.344-21.344 9.562-21.344 21.344-21.344 21.344 9.564 21.344 21.344z" fill="#AAB2BC" /><path d="M437.312 234.75c0 11.782-9.562 21.344-21.344 21.344-11.796 0-21.344-9.562-21.344-21.344s9.546-21.344 21.344-21.344c11.782 0 21.344 9.562 21.344 21.344z" fill="#434A54" /><path d="M373.282 85.376c-82.5 0-149.39 66.876-149.39 149.376s66.89 149.406 149.39 149.406 149.39-66.906 149.39-149.406-66.89-149.376-149.39-149.376z m0 256.092c-58.844 0-106.704-47.876-106.704-106.718s47.86-106.688 106.704-106.688 106.704 47.844 106.704 106.688-47.862 106.718-106.704 106.718z" fill="#F6BB42" /></svg>