<?xml version="1.0" standalone="no"?><!DOCTYPE svg PUBLIC "-//W3C//DTD SVG 1.1//EN" "http://www.w3.org/Graphics/SVG/1.1/DTD/svg11.dtd"><svg class="icon" width="128px" height="128.00px" viewBox="0 0 1024 1024" version="1.1" xmlns="http://www.w3.org/2000/svg"><path d="M192 0h640v1024H192z" fill="#AC92EB" /><path d="M380.624 448c-24.124-19.344-44.124-43.906-58.156-71.344-15.782-30.906-23.812-64.344-23.812-99.312 0-35 8.032-68.406 23.812-99.312 14.032-27.468 34.032-52 58.156-71.344h262.75c24.124 19.344 44.124 43.876 58.156 71.344 15.782 30.906 23.812 64.312 23.812 99.312 0 34.968-8.032 68.406-23.812 99.312-14.032 27.438-34.032 52-58.156 71.344H380.624z" fill="#E6E9ED" /><path d="M650.688 85.344H373.312c-58.282 43.782-95.968 113.5-95.968 192s37.688 148.218 95.968 192h277.376c58.282-43.782 95.968-113.5 95.968-192s-37.688-148.22-95.968-192z m-15.032 341.344H388.344c-19.25-16.688-35.344-37.124-46.876-59.75C327.218 339.062 320 308.906 320 277.344c0-31.594 7.218-61.718 21.468-89.624C353 165.124 369.094 144.688 388.344 128h247.312c19.25 16.688 35.312 37.124 46.876 59.718C696.782 215.624 704 245.75 704 277.344c0 31.562-7.218 61.718-21.468 89.594-11.564 22.624-27.626 43.062-46.876 59.75z" fill="#967ADC" /><path d="M380.624 917.344c-24.124-19.376-44.124-43.906-58.156-71.344-15.782-30.938-23.812-64.344-23.812-99.312 0-35 8.032-68.406 23.812-99.344 14.032-27.438 34.032-51.968 58.156-71.344h262.75c24.124 19.376 44.124 43.906 58.156 71.344 15.782 30.938 23.812 64.344 23.812 99.344 0 34.968-8.032 68.376-23.812 99.312-14.032 27.438-34.032 51.968-58.156 71.344H380.624z" fill="#E6E9ED" /><path d="M650.688 554.688H373.312c-58.282 43.782-95.968 113.468-95.968 192 0 78.5 37.688 148.188 95.968 192h277.376c58.282-43.812 95.968-113.5 95.968-192 0-78.532-37.688-148.22-95.968-192zM635.656 896H388.344c-19.25-16.688-35.344-37.094-46.876-59.718C327.218 808.406 320 778.25 320 746.688c0-31.594 7.218-61.75 21.468-89.624 11.532-22.624 27.624-43.032 46.876-59.718h247.312c19.25 16.688 35.312 37.094 46.876 59.718C696.782 684.938 704 715.094 704 746.688c0 31.562-7.218 61.718-21.468 89.594-11.564 22.624-27.626 43.03-46.876 59.718z" fill="#967ADC" /><path d="M533.344 341.344h-42.656c-11.812 0-21.344 9.562-21.344 21.344S478.876 384 490.656 384h42.688c11.782 0 21.312-9.532 21.312-21.312s-9.532-21.344-21.312-21.344zM618.656 213.344c0-11.782-9.532-21.344-21.312-21.344S576 201.562 576 213.344v64c0 11.782 9.562 21.344 21.344 21.344s21.312-9.562 21.312-21.344v-64zM426.656 192c-11.782 0-21.312 9.562-21.312 21.344v64c0 11.782 9.532 21.344 21.312 21.344S448 289.124 448 277.344v-64C448 201.562 438.438 192 426.656 192zM533.344 810.688h-42.688c-11.782 0-21.312 9.532-21.312 21.312s9.532 21.344 21.312 21.344h42.688c11.782 0 21.312-9.562 21.312-21.344s-9.532-21.312-21.312-21.312zM597.344 661.344c-11.782 0-21.344 9.562-21.344 21.344v64c0 11.782 9.562 21.312 21.344 21.312s21.312-9.532 21.312-21.312v-64c0-11.782-9.532-21.344-21.312-21.344zM426.656 661.344c-11.782 0-21.312 9.562-21.312 21.344v64c0 11.782 9.532 21.312 21.312 21.312S448 758.468 448 746.688v-64c0-11.782-9.562-21.344-21.344-21.344z" fill="#434A54" /></svg>