<?xml version="1.0" standalone="no"?><!DOCTYPE svg PUBLIC "-//W3C//DTD SVG 1.1//EN" "http://www.w3.org/Graphics/SVG/1.1/DTD/svg11.dtd"><svg class="icon" width="128px" height="128.00px" viewBox="0 0 1024 1024" version="1.1" xmlns="http://www.w3.org/2000/svg"><path d="M1002.668 959.982c0 23.562-19.124 42.686-42.686 42.686H64.018c-23.562 0-42.67-19.124-42.67-42.686V64.016c0-23.562 19.108-42.67 42.67-42.67h895.964c23.562 0 42.686 19.11 42.686 42.67v895.966z" fill="#E6E9ED" /><path d="M106.68 106.678m-21.334 0a21.334 21.334 0 1 0 42.668 0 21.334 21.334 0 1 0-42.668 0Z" fill="#434A54" /><path d="M932.422 91.594c8.312 8.328 8.312 21.844 0 30.17-8.344 8.328-21.876 8.328-30.188 0-8.312-8.326-8.312-21.842 0-30.17s21.844-8.328 30.188 0zM121.764 902.234c8.328 8.312 8.328 21.842 0 30.186-8.328 8.312-21.842 8.312-30.17 0-8.328-8.344-8.328-21.874 0-30.186 8.328-8.312 21.844-8.312 30.17 0zM932.422 902.234c8.312 8.312 8.312 21.842 0 30.186-8.344 8.312-21.876 8.312-30.188 0-8.312-8.344-8.312-21.874 0-30.186s21.844-8.312 30.188 0z" fill="#434A54" /><path d="M959.982 1023.98H64.018C28.722 1023.98 0.02 995.292 0.02 959.982V64.016C0.02 28.72 28.722 0.02 64.018 0.02h895.964c35.31 0 63.998 28.702 63.998 63.998v895.966c0 35.308-28.688 63.996-63.998 63.996zM64.018 42.69c-11.766 0-21.328 9.562-21.328 21.328v895.966c0 11.75 9.562 21.312 21.328 21.312h895.964c11.75 0 21.312-9.562 21.312-21.312V64.016c0-11.764-9.562-21.328-21.312-21.328H64.018z" fill="#CCD1D9" /><path d="M853.3 512c0 188.492-152.808 341.298-341.3 341.298-188.508 0-341.316-152.806-341.316-341.298 0-188.508 152.808-341.316 341.316-341.316 188.492 0 341.3 152.808 341.3 341.316z" fill="#AAB2BC" /><path d="M512 874.672c-96.872 0-187.946-37.746-256.428-106.244C187.076 699.93 149.342 608.872 149.342 512c0-96.872 37.734-187.93 106.23-256.428C324.054 187.074 415.128 149.34 512 149.34s187.93 37.734 256.428 106.23c68.498 68.498 106.244 159.556 106.244 256.428 0 96.872-37.746 187.93-106.244 256.428S608.872 874.672 512 874.672z m0-682.66c-85.464 0-165.822 33.28-226.256 93.714C225.292 346.178 192.012 426.534 192.012 512c0 85.464 33.28 165.804 93.73 226.272 60.434 60.436 140.792 93.716 226.256 93.716 85.496 0 165.806-33.282 226.272-93.716 60.438-60.466 93.716-140.806 93.716-226.272 0-85.466-33.28-165.822-93.716-226.274C677.806 225.292 597.464 192.012 512 192.012z" fill="#CCD1D9" /><path d="M789.302 512c0 153.18-124.122 277.3-277.302 277.3-153.166 0-277.318-124.122-277.318-277.3 0-153.166 124.152-277.318 277.318-277.318 153.182 0 277.302 124.152 277.302 277.318z" fill="#656D78" /><path d="M384.004 448.002c-35.296 0-63.998 28.7-63.998 63.998 0 35.31 28.702 63.998 63.998 63.998s63.998-28.688 63.998-63.998c0-35.296-28.702-63.998-63.998-63.998zM639.994 448.002c-35.31 0-63.996 28.7-63.996 63.998 0 35.31 28.686 63.998 63.996 63.998 35.312 0 63.998-28.688 63.998-63.998 0-35.296-28.686-63.998-63.998-63.998z" fill="#434A54" /><path d="M512 234.682c-7.172 0-14.296 0.266-21.328 0.796v63.202c0 11.782 9.546 21.328 21.328 21.328s21.328-9.546 21.328-21.328v-63.202a283.984 283.984 0 0 0-21.328-0.796zM512 703.992c-11.782 0-21.328 9.562-21.328 21.31v63.216c7.03 0.532 14.156 0.782 21.328 0.782s14.296-0.25 21.328-0.782v-63.216c0-11.748-9.546-21.31-21.328-21.31z" fill="#CCD1D9" /><path d="M527.078 496.922c8.344 8.328 8.344 21.826 0 30.17-8.328 8.328-21.828 8.328-30.156 0-8.342-8.344-8.342-21.842 0-30.17a21.294 21.294 0 0 1 30.156 0z" fill="#AAB2BC" /></svg>