<?xml version="1.0" standalone="no"?><!DOCTYPE svg PUBLIC "-//W3C//DTD SVG 1.1//EN" "http://www.w3.org/Graphics/SVG/1.1/DTD/svg11.dtd"><svg class="icon" width="128px" height="128.00px" viewBox="0 0 1024 1024" version="1.1" xmlns="http://www.w3.org/2000/svg"><path d="M241.6 479.55L18.418 702.766c-24.718 25.342-24.562 65.934 0.562 91.058s65.716 25.312 91.06 0.562l0.032 0.032 223.182-223.212-91.654-91.656z" fill="#AC92EA" /><path d="M800.306 133.184L679.652 12.5c-16.686-16.656-43.686-16.656-60.342 0L196.946 434.896c-50 49.966-50 131.028 0 180.996 49.966 50 131.028 50 180.996 0L800.306 193.526c16.656-16.656 16.656-43.686 0-60.342z" fill="#E6E9ED" /><path d="M468.438 525.394l-180.996-181.028 241.34-241.338 181.026 181.026z" fill="#F5F7FA" /><path d="M452.782 690.766L229.6 913.946c-24.718 25.344-24.562 65.968 0.562 91.062 25.124 25.124 65.716 25.31 91.06 0.562l0.032 0.032 223.184-223.214-91.656-91.622z" fill="#AC92EA" /><path d="M1011.488 344.366l-120.654-120.652c-16.688-16.688-43.686-16.688-60.34 0L408.126 646.078c-50 49.968-50 131.028 0 180.996 49.968 49.998 131.03 49.998 180.996 0l422.366-422.366c16.656-16.654 16.688-43.654 0-60.342z" fill="#E6E9ED" /><path d="M739.96 314.204l181.028 181.026-241.338 241.336-181.026-181.026z" fill="#F5F7FA" /><path d="M574.03 299.116l-60.31-60.342c-8.344-8.31-21.844-8.31-30.188 0-8.312 8.344-8.312 21.844 0 30.188l60.344 60.342c8.344 8.312 21.842 8.312 30.154 0a21.332 21.332 0 0 0 0-30.188zM453.376 299.116c-8.344-8.344-21.842-8.312-30.186 0-8.312 8.344-8.312 21.844 0 30.188l60.342 60.312a21.336 21.336 0 0 0 30.188 0c8.312-8.312 8.312-21.812 0-30.156l-60.344-60.344z" fill="#AC92EA" /><path d="M785.244 510.3l-60.344-60.344c-8.344-8.312-21.842-8.312-30.186 0-8.312 8.344-8.312 21.844 0 30.188l60.342 60.344c8.344 8.312 21.844 8.312 30.188 0 8.312-8.344 8.312-21.844 0-30.188z" fill="#AC92EA" /></svg>