<?xml version="1.0" standalone="no"?><!DOCTYPE svg PUBLIC "-//W3C//DTD SVG 1.1//EN" "http://www.w3.org/Graphics/SVG/1.1/DTD/svg11.dtd"><svg class="icon" width="128px" height="128.00px" viewBox="0 0 1024 1024" version="1.1" xmlns="http://www.w3.org/2000/svg"><path d="M800.434 984.422v-0.032l-277.248-170.618-11.186 18.154-11.186-18.152-277.28 170.618 0.032 0.032c-6.092 3.75-10.186 10.466-10.186 18.152 0 11.78 9.56 21.308 21.34 21.308 4.092 0 7.904-1.156 11.152-3.156h0.032L512 856.982l266.096 163.744c3.25 2 7.06 3.156 11.154 3.156 11.778 0 21.34-9.53 21.34-21.308 0-7.686-4.062-14.402-10.156-18.152z" fill="#CCD1D9" /><path d="M512 0.118c-11.778 0-21.338 9.558-21.338 21.338v981.12c0 11.78 9.56 21.308 21.338 21.308 11.78 0 21.308-9.53 21.308-21.308V21.456c0-11.78-9.528-21.338-21.308-21.338z" fill="#E6E9ED" /><path d="M42.764 128.838h938.444v639.104H42.764z" fill="#E6E9ED" /><path d="M1023.882 149.426c0 11.78-9.558 21.34-21.338 21.34H21.426c-11.78 0-21.308-9.56-21.308-21.34V64.102c0-11.748 9.53-21.306 21.308-21.306h981.12c11.78 0 21.338 9.558 21.338 21.306v85.324z" fill="#434A54" /><path d="M320.044 661.308c0 11.78-9.56 21.338-21.34 21.338H213.38c-11.778 0-21.306-9.558-21.306-21.338v-127.97c0-11.78 9.53-21.338 21.306-21.338h85.324c11.78 0 21.34 9.558 21.34 21.338v127.97z" fill="#48CFAD" /><path d="M490.662 661.308c0 11.78-9.56 21.338-21.34 21.338h-85.292c-11.778 0-21.338-9.558-21.338-21.338V362.72c0-11.78 9.56-21.338 21.338-21.338h85.292c11.78 0 21.34 9.558 21.34 21.338v298.588z" fill="#5D9CEC" /><path d="M661.28 661.308c0 11.78-9.53 21.338-21.306 21.338h-85.324c-11.78 0-21.34-9.558-21.34-21.338V448.014c0-11.78 9.56-21.306 21.34-21.306h85.324a21.292 21.292 0 0 1 21.306 21.306v213.294z" fill="#A0D468" /><path d="M831.928 661.308c0 11.78-9.56 21.338-21.338 21.338h-85.324c-11.78 0-21.308-9.558-21.308-21.338V277.396c0-11.78 9.53-21.338 21.308-21.338h85.324c11.778 0 21.338 9.558 21.338 21.338v383.912z" fill="#AC92EB" /><path d="M874.574 639.97H149.396c-11.78 0-21.308 9.558-21.308 21.338s9.53 21.338 21.308 21.338h725.178c11.778 0 21.34-9.558 21.34-21.338s-9.562-21.338-21.34-21.338z" fill="#434A54" /></svg>