<?xml version="1.0" standalone="no"?><!DOCTYPE svg PUBLIC "-//W3C//DTD SVG 1.1//EN" "http://www.w3.org/Graphics/SVG/1.1/DTD/svg11.dtd"><svg class="icon" width="128px" height="128.00px" viewBox="0 0 1024 1024" version="1.1" xmlns="http://www.w3.org/2000/svg"><path d="M490.678 780.312h42.662v105.882h-42.662z" fill="#656D78" /><path d="M42.78 106.748h938.458v703.84H42.78z" fill="#E6E9ED" /><path d="M1023.882 192.072c0 11.78-9.558 21.34-21.306 21.34H21.458c-11.78 0-21.34-9.56-21.34-21.34V64.102c0-11.78 9.56-21.338 21.34-21.338h981.12c11.748 0 21.306 9.558 21.306 21.338v127.97z" fill="#434A54" /><path d="M512 853.266c-35.336 0-63.984 28.648-63.984 63.984s28.648 63.986 63.984 63.986c35.368 0 63.986-28.65 63.986-63.986S547.368 853.266 512 853.266z m0 85.292c-11.746 0-21.322-9.56-21.322-21.308 0-11.78 9.576-21.338 21.322-21.338 11.764 0 21.34 9.558 21.34 21.338 0 11.748-9.576 21.308-21.34 21.308z" fill="#E6E9ED" /><path d="M320.044 703.956c0 11.78-9.544 21.338-21.324 21.338h-85.308c-11.778 0-21.338-9.558-21.338-21.338v-127.97c0-11.78 9.56-21.338 21.338-21.338h85.308c11.78 0 21.324 9.558 21.324 21.338v127.97z" fill="#48CFAD" /><path d="M490.678 703.956c0 11.78-9.544 21.338-21.324 21.338h-85.324c-11.778 0-21.322-9.558-21.322-21.338V405.368c0-11.78 9.544-21.338 21.322-21.338h85.324c11.78 0 21.324 9.558 21.324 21.338v298.588z" fill="#5D9CEC" /><path d="M661.31 703.956c0 11.78-9.53 21.338-21.338 21.338H554.68c-11.794 0-21.34-9.558-21.34-21.338V490.66c0-11.78 9.544-21.306 21.34-21.306h85.292c11.808 0 21.338 9.528 21.338 21.306v213.296z" fill="#A0D468" /><path d="M831.928 703.956c0 11.78-9.56 21.338-21.306 21.338h-85.324c-11.78 0-21.34-9.558-21.34-21.338V320.042c0-11.78 9.56-21.338 21.34-21.338h85.324c11.746 0 21.306 9.558 21.306 21.338v383.914z" fill="#AC92EB" /><path d="M874.606 682.616H149.428c-11.78 0-21.34 9.562-21.34 21.34 0 11.78 9.56 21.338 21.34 21.338h725.178c11.746 0 21.308-9.558 21.308-21.338 0-11.778-9.562-21.34-21.308-21.34z" fill="#656D78" /></svg>