<?xml version="1.0" standalone="no"?><!DOCTYPE svg PUBLIC "-//W3C//DTD SVG 1.1//EN" "http://www.w3.org/Graphics/SVG/1.1/DTD/svg11.dtd"><svg class="icon" width="128px" height="128.00px" viewBox="0 0 1024 1024" version="1.1" xmlns="http://www.w3.org/2000/svg"><path d="M974.112 399.582l-93.28-216.368-113.152-46.656h-155.84l-72.214 38.592-31-3.844-137.98-45.67-110.168 10.922-91.186 36.734-58.686 80.388-55.592 172.698 6.954 177.682 126.058 189.588 249.132 89.308h208.432l231.242-118.122 118.122-187.994-20.842-177.258z m-102.218 209.446l-117.122 129.996-122.09 55.592h-162.276l-164.276-42.654-94.294-70.5-63.514-96.278-14.89-123.074 24.812-135.98 26.796-41.686 123.074-64.514s122.09 12.906 125.074 11.906c2.968-0.984 101.216 52.608 101.216 52.608l51.56-49 43.748-15.514 187.588 35.732s63.53 83.374 65.498 86.358c2 2.968 24.812 139.95 24.812 139.95l-35.716 127.058z" fill="#F4B68C" /><path d="M481.594 390.534s10.844-98.48 10.844-101.434c0-2.968-43.342-41.374-43.342-41.374l-25.608 34.468-9.844 61.06 4.922 129.028 30.53 67.934 30.53-12.796 19.702-70.904-17.734-65.982z" fill="#F4B68C" /><path d="M823.334 584.528l-40.374 4.938-121.152-5.906-94.53-34.466 31.498-61.06 6.906-125.074-40.374-115.23-90.606 9.858 24.624 36.438L520 436.83l-70.904 103.386-90.606 50.248-166.432-11.812s-31.514 19.688-33.484 22.624c-1.968 2.968 0 44.31 0 44.31l37.42 30.562 97.498 6.874 152.652-33.498 71.888-28.56 122.122 62.058 169.402-10.81 45.308-29.562V598.34c0-3.936-31.53-13.812-31.53-13.812z" fill="#F4B68C" /><path d="M998.266 411.316c-4.812-37.874-13.906-75.858-26.28-109.826-12.968-35.608-28.904-65.81-47.374-89.762-36.032-46.654-93.81-80.654-162.714-95.762a365.184 365.184 0 0 0-78.09-8.454c-41 0-80.344 6.782-116.874 20.14-19.56 7.14-37.966 16.14-54.936 26.844-16.984-10.704-35.358-19.704-54.936-26.844-36.546-13.358-75.874-20.14-116.888-20.14a365.268 365.268 0 0 0-78.09 8.454C193.18 131.074 135.4 165.074 99.386 211.728c-18.468 23.952-34.42 54.154-47.39 89.762-12.358 33.968-21.452 71.952-26.296 109.84-8.266 64.764-8.688 162.166 36.28 258.256 33.67 71.966 86.512 129.558 157.042 171.212 77.388 45.654 175.402 71.124 291.304 75.624l1.672 0.062 1.656-0.062c115.902-4.5 213.93-29.968 291.304-75.624 70.528-41.654 123.372-99.246 157.056-171.212 44.97-96.09 44.532-193.492 36.252-258.27z m-74.996 240.146c-29.968 63.998-77.06 115.308-140.058 152.496-71.216 42.03-162.464 65.498-271.21 69.716-108.748-4.218-199.994-27.688-271.226-69.716-62.982-37.188-110.09-88.498-140.042-152.496-40.624-86.81-40.14-175.556-32.592-234.726 9.046-70.904 33.406-137.762 65.124-178.87 29.874-38.702 78.888-67.154 137.98-80.106a321.804 321.804 0 0 1 68.934-7.468c35.452 0 70.358 5.89 102.216 17.532 26.078 9.53 49.53 22.826 69.608 39.294v0.016c11.218 9.218 21.406 19.406 30.39 30.514h-0.016a211.86 211.86 0 0 1 9.062 12.014c0.782 1.124 1.532 2.25 2.312 3.406 0.718 1.094 1.438 2.188 2.124 3.296 25.904 40.578 37.808 89.904 35.342 146.762-2.718 62.294-19.562 114.074-50.216 154.65a177.29 177.29 0 0 0 9.094 7.624c29.248 22.75 83.714 50.344 177.086 52.438 3.782 0.062 7.468 0.124 11.124 0.124 51.594 0 90.748-7.938 91.716-8.124a22.842 22.842 0 0 1 4.406-0.438 21.364 21.364 0 0 1 21.374 21.376c0 10.374-7.376 18.998-17.154 20.966-3.094 0.656-44.592 8.968-100.216 8.968-3.656 0-7.344 0-11.094-0.094-83.59-1.688-153.9-22.906-203.382-61.374a218.064 218.064 0 0 1-11.954-10 224.584 224.584 0 0 1-11.968 10c-49.466 38.466-119.792 59.686-203.368 61.374-3.75 0.094-7.454 0.094-11.094 0.094-55.624 0-97.122-8.312-100.216-8.968-9.796-1.968-17.17-10.594-17.17-20.966 0-11.812 9.578-21.376 21.39-21.376 1.5 0 2.968 0.156 4.39 0.438 0.984 0.188 40.108 8.124 91.716 8.124 3.64 0 7.36-0.062 11.124-0.124 93.372-2.094 147.838-29.688 177.088-52.438a170.35 170.35 0 0 0 8.14-6.782l0.016 0.032c0.234-0.25 0.468-0.438 0.704-0.656 0.078-0.062 0.156-0.124 0.234-0.218 40.514-36.03 62.546-88.604 65.484-156.494 2.624-60.216-13.532-102.716-36.282-132.668-0.062-0.094-0.124-0.204-0.188-0.296l-0.016 0.016c-9.312-12.204-19.702-22.312-30.39-30.67 0-0.016 0.016-0.016 0.016-0.016a8.234 8.234 0 0 0-0.39-0.282l-0.296-0.25h-0.016c-18.374-14.25-37.5-23.374-53.202-29.108-27.516-10.046-57.468-14.796-87.28-14.796-69.778 0-138.73 26-173.306 70.794-26.874 34.812-48.53 95.42-56.544 158.152-6.828 53.544-7.376 133.65 28.906 211.178 26.234 56.06 67.624 101.06 123.042 133.778 64.702 38.188 148.62 59.624 249.476 63.748 100.84-4.124 184.776-25.56 249.46-63.748 55.436-32.716 96.808-77.716 123.058-133.778 36.282-77.53 35.718-157.634 28.906-211.178-8.032-62.732-29.688-123.34-56.562-158.152-34.56-44.794-103.496-70.794-173.274-70.794-29.812 0-59.782 4.75-87.312 14.796a212.6 212.6 0 0 0-17.154 7.156 252.196 252.196 0 0 0-30.216-32.702 253.312 253.312 0 0 1 32.686-14.64c31.874-11.64 66.78-17.532 102.216-17.532 22.998 0 46.184 2.468 68.934 7.468 59.124 12.952 108.122 41.404 137.996 80.106 31.718 41.108 56.06 107.966 65.124 178.87 7.528 59.174 8.028 147.918-32.594 234.728z m-320.742-399.94a179.296 179.296 0 0 1 8.438-3.328c21.844-7.984 46.938-12.202 72.624-12.202 58.372 0 114.402 21.764 139.4 54.156 22.156 28.702 40.998 82.638 47.998 137.432 4.844 38.014 6.218 90.824-9.344 145.104a63.588 63.588 0 0 0-27.216-6.062c-4.344 0-8.718 0.438-12.968 1.312-1.156 0.218-36.874 7.218-83.154 7.218-3.406 0-6.812 0-10.156-0.094-61.278-1.344-102.434-14.532-129.372-28.966 21.062-40.42 32.844-87.7 35.188-141.104 2.498-57.764-8.064-109.232-31.438-153.466z m176.87 450.626a283.2 283.2 0 0 1-39.688 28.124C681.558 764.614 604.932 784.02 512 788.02c-92.95-4-169.558-23.406-227.728-57.748-14.328-8.438-27.546-17.844-39.656-28.124 12.484 0.812 26.282 1.376 40.952 1.376 3.984 0 8-0.062 11.954-0.124 85.31-1.75 159.01-22.406 214.478-59.998 55.466 37.592 129.152 58.248 214.46 59.998 3.968 0.062 7.968 0.124 11.968 0.124 14.69 0 28.47-0.564 40.97-1.376z m-389.362-297.16c2.328 53.404 14.124 100.684 35.17 141.104-26.936 14.436-68.092 27.624-129.356 28.966-3.344 0.094-6.766 0.094-10.172 0.094-46.186 0-81.872-6.968-83.154-7.218a64.424 64.424 0 0 0-12.954-1.312 63.616 63.616 0 0 0-27.234 6.062c-15.562-54.28-14.188-107.088-9.328-145.104 7-54.794 25.828-108.732 47.984-137.432 25-32.39 81.028-54.156 139.432-54.156 25.656 0 50.764 4.218 72.592 12.202a166.52 166.52 0 0 1 8.438 3.328c-23.356 44.234-33.918 95.702-31.418 153.466z m68.122-131.278c5.858 4.86 11.578 10.422 16.842 16.796 5.156 6.234 9.64 13 13.5 20.25-9.344 24.514-14.546 54.326-12.984 90.528 1.234 28.218 5.766 53.794 13.546 76.654-0.218 0.484-0.422 0.984-0.64 1.468-7.234 15.92-16.532 29.498-28.202 41.122-16.312-33.59-25.5-72.794-27.438-117.402-2.122-48.996 6.408-92.386 25.376-129.416z" fill="#E09D70" /><path d="M1017.734 409.378a21.416 21.416 0 0 0-30.282 0c-8.344 8.344-8.344 21.89 0 30.25a21.45 21.45 0 0 0 30.282 0c8.344-8.36 8.344-21.906 0-30.25zM860.988 666.026c-8.344 8.376-8.344 21.904 0 30.248 8.344 8.376 21.906 8.376 30.25 0 8.344-8.344 8.344-21.874 0-30.248-8.344-8.344-21.906-8.344-30.25 0zM711.276 858.55c-8.376 8.344-8.376 21.904 0 30.248 8.344 8.344 21.904 8.344 30.248 0s8.344-21.904 0-30.248-21.904-8.342-30.248 0zM582.936 772.99c-8.344 8.344-8.344 21.906 0 30.25s21.904 8.344 30.248 0 8.344-21.906 0-30.25-21.904-8.344-30.248 0zM720.118 589.34c8.376-8.344 8.376-21.876 0-30.25-8.342-8.342-21.874-8.342-30.248 0-8.342 8.376-8.342 21.906 0 30.25 8.374 8.374 21.906 8.374 30.248 0zM903.77 195.478c-8.344 8.344-8.344 21.89 0 30.25 8.344 8.342 21.906 8.342 30.25 0 8.344-8.36 8.344-21.906 0-30.25-8.344-8.36-21.906-8.36-30.25 0zM698.744 122.636c8.344-8.342 8.344-21.888 0-30.248-8.344-8.344-21.904-8.344-30.248 0-8.376 8.36-8.376 21.906 0 30.248 8.344 8.36 21.904 8.36 30.248 0zM377.894 161.558c8.344-8.36 8.344-21.89 0-30.25-8.36-8.344-21.906-8.344-30.25 0a21.378 21.378 0 0 0 0 30.25c8.346 8.358 21.892 8.358 30.25 0zM369.036 366.582c-8.358 8.36-8.358 21.906 0 30.25 8.344 8.36 21.89 8.36 30.25 0 8.342-8.344 8.342-21.89 0-30.25-8.36-8.342-21.908-8.342-30.25 0zM604.308 452.142c-8.344 8.36-8.344 21.906 0 30.25 8.376 8.358 21.906 8.358 30.25 0 8.376-8.344 8.376-21.89 0-30.25-8.344-8.344-21.874-8.344-30.25 0zM304.866 601.872c-8.358 8.344-8.358 21.906 0 30.248 8.344 8.344 21.89 8.344 30.25 0 8.342-8.342 8.342-21.904 0-30.248-8.36-8.344-21.908-8.344-30.25 0zM432.534 901.362c-8.358 8.344-8.358 21.906 0 30.25 8.344 8.344 21.89 8.344 30.25 0 8.342-8.344 8.342-21.906 0-30.25-8.36-8.344-21.908-8.344-30.25 0zM48.186 238.258c-8.342 8.344-8.342 21.89 0 30.25 8.36 8.344 21.906 8.344 30.25 0 8.358-8.36 8.358-21.906 0-30.25-8.344-8.358-21.892-8.358-30.25 0zM6.266 537.716c-8.344 8.344-8.344 21.874 0 30.248 8.36 8.344 21.906 8.344 30.264 0 8.344-8.376 8.344-21.904 0-30.248-8.36-8.358-21.906-8.358-30.264 0zM219.306 794.396c-8.36 8.312-8.36 21.874 0 30.216a21.35 21.35 0 0 0 30.25 0c8.36-8.344 8.36-21.904 0-30.216a21.352 21.352 0 0 0-30.25 0zM133.746 623.278c-8.36 8.344-8.36 21.874 0 30.248 8.36 8.344 21.906 8.344 30.25 0 8.36-8.376 8.36-21.904 0-30.248-8.344-8.376-21.89-8.376-30.25 0z" fill="#E6E9ED" /></svg>