<?xml version="1.0" standalone="no"?><!DOCTYPE svg PUBLIC "-//W3C//DTD SVG 1.1//EN" "http://www.w3.org/Graphics/SVG/1.1/DTD/svg11.dtd"><svg class="icon" width="128px" height="128.00px" viewBox="0 0 1024 1024" version="1.1" xmlns="http://www.w3.org/2000/svg"><path d="M1002.542 543.984H21.424c-11.778 0-21.308 9.56-21.308 21.308v383.912c0 11.808 9.53 21.37 21.308 21.37h981.118c11.778 0 21.34-9.56 21.34-21.37V565.292c0-11.748-9.562-21.308-21.34-21.308z" fill="#CCD1D9" /><path d="M1002.542 501.322H21.424c-11.778 0-21.308 9.56-21.308 21.34v383.928c0 11.746 9.53 21.306 21.308 21.306h981.118c11.778 0 21.34-9.56 21.34-21.306V522.662c0-11.78-9.562-21.34-21.34-21.34z" fill="#E6E9ED" /><path d="M895.91 842.604H128.088c-11.78 0-21.338-9.56-21.338-21.37 0-11.748 9.56-21.308 21.338-21.308h767.822c11.78 0 21.308 9.56 21.308 21.308 0 11.808-9.528 21.37-21.308 21.37z" fill="#656D78" /><path d="M895.91 543.984H128.088c-11.78 0-21.338-9.542-21.338-21.322s9.56-21.34 21.338-21.34h767.822c11.78 0 21.308 9.56 21.308 21.34s-9.528 21.322-21.308 21.322z" fill="#CCD1D9" /><path d="M149.396 53.426h725.176v469.236H149.396z" fill="#ED5564" /><path d="M298.706 437.338l121.878-203.11 121.876 203.11z" fill="#E6E9ED" /><path d="M400.276 437.338l162.494-284.374 162.492 284.374z" fill="#F5F7FA" /><path d="M844.11 607.97c0 11.81 9.562 21.306 21.34 21.306 11.78 0 21.308-9.496 21.308-21.306 0-11.748-9.53-21.308-21.308-21.308s-21.34 9.56-21.34 21.308z" fill="#A0D468" /><path d="M758.786 607.97c0 11.81 9.562 21.306 21.34 21.306 11.78 0 21.34-9.496 21.34-21.306 0-11.748-9.56-21.308-21.34-21.308-11.778 0-21.34 9.56-21.34 21.308z" fill="#ED5564" /><path d="M673.492 607.97a21.274 21.274 0 0 0 21.308 21.306c11.78 0 21.34-9.496 21.34-21.306 0-11.748-9.56-21.308-21.34-21.308-11.776 0-21.308 9.56-21.308 21.308z" fill="#FFCE54" /></svg>