<?xml version="1.0" standalone="no"?><!DOCTYPE svg PUBLIC "-//W3C//DTD SVG 1.1//EN" "http://www.w3.org/Graphics/SVG/1.1/DTD/svg11.dtd"><svg class="icon" width="128px" height="128.00px" viewBox="0 0 1024 1024" version="1.1" xmlns="http://www.w3.org/2000/svg"><path d="M1002.574 490.684H21.456V192.066c0-47.116 38.21-85.292 85.324-85.292h810.47c47.114 0 85.324 38.178 85.324 85.292v298.618z" fill="#656D78" /><path d="M21.456 490.684h149.31v426.542H21.456z" fill="#E6E9ED" /><path d="M789.28 384.022c0 11.81 9.56 21.338 21.338 21.338 11.78 0 21.308-9.528 21.308-21.338 0-11.748-9.53-21.308-21.308-21.308s-21.338 9.56-21.338 21.308z"  /><path d="M853.266 256.05c0 11.81 9.558 21.34 21.338 21.34s21.306-9.53 21.306-21.34c0-11.748-9.528-21.306-21.306-21.306s-21.338 9.56-21.338 21.306z" fill="#A0D468" /><path d="M767.942 256.05c0 11.81 9.558 21.34 21.338 21.34s21.338-9.53 21.338-21.34c0-11.748-9.558-21.306-21.338-21.306s-21.338 9.56-21.338 21.306z" fill="#ED5564" /><path d="M682.648 256.05c0 11.81 9.558 21.34 21.306 21.34a21.308 21.308 0 0 0 21.338-21.34c0-11.748-9.528-21.306-21.338-21.306-11.746 0-21.306 9.56-21.306 21.306z" fill="#FFCE54" /><path d="M192.074 384.022c0 11.81 9.56 21.338 21.338 21.338s21.338-9.528 21.338-21.338c0-11.748-9.56-21.308-21.338-21.308-11.78 0-21.338 9.56-21.338 21.308z"  /><path d="M853.266 490.684h149.308v426.542h-149.308z" fill="#E6E9ED" /><path d="M320.044 234.744H149.426c-11.78 0-21.338 9.528-21.338 21.306 0 11.81 9.56 21.34 21.338 21.34h170.618a21.308 21.308 0 0 0 21.338-21.34c0-11.778-9.528-21.306-21.338-21.306z" fill="#F5F7FA" /><path d="M170.766 874.612H21.456c-11.778 0-21.338 9.498-21.338 21.308s9.56 21.306 21.338 21.306h149.31c11.778 0 21.308-9.496 21.308-21.306s-9.53-21.308-21.308-21.308zM1002.574 874.612h-149.308c-11.78 0-21.34 9.498-21.34 21.308s9.56 21.306 21.34 21.306h149.308c11.778 0 21.308-9.496 21.308-21.306s-9.53-21.308-21.308-21.308z" fill="#434A54" /><path d="M810.618 405.36H213.412a21.324 21.324 0 0 1-21.338-21.338c0-11.778 9.56-21.308 21.338-21.308h597.206c11.78 0 21.308 9.53 21.308 21.308 0 11.81-9.53 21.338-21.308 21.338z" fill="#434A54" /><path d="M639.968 810.626H256.058V384.022h511.884v298.634z" fill="#E6E9ED" /><path d="M639.968 682.656v127.97l127.974-127.97z" fill="#CCD1D9" /></svg>