<?xml version="1.0" standalone="no"?><!DOCTYPE svg PUBLIC "-//W3C//DTD SVG 1.1//EN" "http://www.w3.org/Graphics/SVG/1.1/DTD/svg11.dtd"><svg class="icon" width="128px" height="128.00px" viewBox="0 0 1024 1024" version="1.1" xmlns="http://www.w3.org/2000/svg"><path d="M874.57 639.97c-8.936 0-17.246-5.654-20.212-14.59-3.75-11.186 2.31-23.276 13.464-26.994l127.97-42.646c11.186-3.718 23.276 2.312 26.994 13.496 3.716 11.154-2.312 23.244-13.498 26.962l-127.97 42.646a21.022 21.022 0 0 1-6.748 1.126zM874.57 789.248c-8.936 0-17.246-5.654-20.212-14.59-3.75-11.152 2.31-23.244 13.464-26.962l127.97-42.646c11.186-3.748 23.276 2.312 26.994 13.466 3.716 11.184-2.312 23.276-13.498 26.994l-127.97 42.646a21.032 21.032 0 0 1-6.748 1.092zM874.57 490.662c-8.936 0-17.246-5.656-20.212-14.59-3.75-11.184 2.31-23.244 13.464-26.962l127.97-42.678c11.186-3.718 23.276 2.312 26.994 13.498 3.716 11.184-2.312 23.244-13.498 26.962l-127.97 42.678a21.086 21.086 0 0 1-6.748 1.092z" fill="#656D78" /><path d="M725.292 952.774v49.77c0 11.78 9.532 21.308 21.308 21.308h85.324c11.778 0 21.34-9.53 21.34-21.308v-49.77h-127.972zM85.44 1002.542c0 11.78 9.544 21.34 21.324 21.34h85.308c11.778 0 21.338-9.56 21.338-21.34v-49.77H85.44v49.77z" fill="#434A54" /><path d="M42.778 213.38h853.13v767.824H42.778z" fill="#E6E9ED" /><path d="M213.41 0.118C95.608 0.118 0.116 95.596 0.116 213.38v85.324h938.442V0.118H213.41z" fill="#656D78" /><path d="M42.778 597.292h853.13v42.678H42.778z" fill="#CCD1D9" /><path d="M17.892 128.088h920.664V85.41H42.778A212.008 212.008 0 0 0 17.892 128.088z" fill="#434A54" /><path d="M853.264 213.38c0 11.78-9.562 21.34-21.34 21.34s-21.34-9.56-21.34-21.34c0-11.778 9.562-21.306 21.34-21.306s21.34 9.528 21.34 21.306z" fill="#FFCE54" /><path d="M767.94 213.38c0 11.78-9.562 21.34-21.34 21.34s-21.308-9.56-21.308-21.34c0-11.778 9.532-21.306 21.308-21.306s21.34 9.528 21.34 21.306z" fill="#ED5564" /><path d="M682.616 213.38c0 11.78-9.53 21.34-21.308 21.34s-21.34-9.56-21.34-21.34c0-11.778 9.562-21.306 21.34-21.306a21.294 21.294 0 0 1 21.308 21.306z" fill="#A0D468" /><path d="M403.96 341.352h127.972a21.294 21.294 0 0 0 21.306-21.306v-21.34h-170.602v21.34c0 11.776 9.546 21.306 21.324 21.306zM533.336 639.97h-149.308v21.306c0 11.78 9.56 21.34 21.338 21.34h127.97c11.78 0 21.306-9.56 21.306-21.34v-21.306h-21.306z" fill="#434A54" /></svg>