<?xml version="1.0" standalone="no"?><!DOCTYPE svg PUBLIC "-//W3C//DTD SVG 1.1//EN" "http://www.w3.org/Graphics/SVG/1.1/DTD/svg11.dtd"><svg class="icon" width="128px" height="128.00px" viewBox="0 0 1024 1024" version="1.1" xmlns="http://www.w3.org/2000/svg"><path d="M1002.652 544.032H21.314A21.278 21.278 0 0 0 0.002 565.344v384a21.274 21.274 0 0 0 21.312 21.308h981.338c11.782 0 21.344-9.496 21.344-21.308v-384c0-11.812-9.562-21.312-21.344-21.312z" fill="#CCD1D9" /><path d="M1002.652 501.344H21.314c-11.782 0-21.312 9.562-21.312 21.312v384c0 11.812 9.53 21.376 21.312 21.376h981.338c11.782 0 21.344-9.562 21.344-21.376v-384c0-11.748-9.562-21.312-21.344-21.312z" fill="#E6E9ED" /><path d="M895.996 842.656H128.002c-11.782 0-21.344-9.562-21.344-21.312 0-11.812 9.562-21.312 21.344-21.312h767.994c11.782 0 21.312 9.5 21.312 21.312 0 11.75-9.53 21.312-21.312 21.312z" fill="#656D78" /><path d="M895.996 544.032H128.002c-11.782 0-21.344-9.562-21.344-21.376 0-11.75 9.562-21.312 21.344-21.312h767.994c11.782 0 21.312 9.562 21.312 21.312 0 11.812-9.53 21.376-21.312 21.376z" fill="#CCD1D9" /><path d="M844.184 608.032c0 11.75 9.562 21.312 21.344 21.312s21.312-9.562 21.312-21.312c0-11.812-9.532-21.376-21.312-21.376s-21.344 9.562-21.344 21.376z" fill="#A0D468" /><path d="M758.84 608.032c0 11.75 9.562 21.312 21.344 21.312s21.344-9.562 21.344-21.312c0-11.812-9.562-21.376-21.344-21.376s-21.344 9.562-21.344 21.376z" fill="#ED5564" /><path d="M673.532 608.032c0 11.75 9.532 21.312 21.312 21.312 11.778 0 21.34-9.562 21.34-21.312 0-11.812-9.562-21.376-21.34-21.376-11.782 0-21.312 9.562-21.312 21.376zM862.152 193.846l-128-128-12.5-12.5H149.346v469.31h725.306V206.346z" fill="#FFCE54" /><path d="M721.652 53.346v153h153z" fill="#F6BB42" /></svg>