<?xml version="1.0" standalone="no"?><!DOCTYPE svg PUBLIC "-//W3C//DTD SVG 1.1//EN" "http://www.w3.org/Graphics/SVG/1.1/DTD/svg11.dtd"><svg class="icon" width="128px" height="128.00px" viewBox="0 0 1024 1024" version="1.1" xmlns="http://www.w3.org/2000/svg"><path d="M920.368 858.048l-3.624-1.032c-52.938-14.218-70.81-27.876-94.374-36.844-83.622-31.842-105.37-54.808-110.932-65.652-0.188-0.376-0.312-0.782-0.5-1.188l-0.686-97.09-198.26-2.248-198.21 2.248-0.688 97.09c-0.188 0.406-0.344 0.812-0.562 1.188-5.562 10.844-27.28 33.81-110.872 65.652-23.56 8.968-41.466 22.624-94.402 36.844l-3.656 1.032c-48.186 15.938-80.59 60.622-80.59 111.058v54.874h977.976v-54.874c0-50.436-32.438-95.12-80.62-111.058z" fill="#FC6E51" /><path d="M773.558 799.458c-43.998-21.156-57.808-36.592-62.122-44.936-0.188-0.376-0.312-0.782-0.5-1.188l-0.686-97.09-198.26-2.248-198.21 2.248-0.688 97.09c-0.188 0.406-0.344 0.812-0.562 1.188-4.25 8.344-18.062 23.78-62.06 44.936 35.406 35.654 111.964 86.184 261.522 86.184 149.572-0.002 226.132-50.53 261.566-86.184z" fill="#DBAFA5" /><path d="M787.058 468.376c0 178.712-170.368 343.204-275.066 343.204-104.684 0-275.052-164.49-275.052-343.204 0-178.744 123.152-296.646 275.052-296.646 151.948 0.002 275.066 117.904 275.066 296.646z" fill="#EAC6BB" /><path d="M794.184 808.798c-16.562-7.094-29.876-13.654-40.624-19.654a206.692 206.692 0 0 1-23.186 18.716c-66.684 46.656-155.554 56.438-218.38 56.438-111.808 0-179.054-29.718-215.742-54.624-10.28-7-18.81-13.998-25.78-20.56-10.718 6-24.062 12.592-40.654 19.686 36.31 39.406 117.996 98.154 282.176 98.154 164.196 0 245.878-58.748 282.19-98.156z" fill="#E9573F" /><path d="M654.002 187.168s-5.376-47.56 51.624-81.778c24.058-14.5-361.502-83.214-458.25 160.43-36.374 91.53-9.5 226.242-9.5 226.242l83.81-150.244s91.34 21.312 190.304 21.312c99.012 0 193.634-21.312 193.634-21.312l81.432 126.964s31.312-121.87-3.75-202.68c-35.058-80.808-129.304-78.934-129.304-78.934z" fill="#965353" /><path d="M128.57 1023.98c-11.782 0-21.344-9.562-21.344-21.344V21.364C107.226 9.582 116.788 0.02 128.57 0.02s21.312 9.562 21.312 21.344v981.274c0 11.78-9.53 21.342-21.312 21.342zM896.492 1023.98c-11.812 0-21.376-9.562-21.376-21.344V21.364c0-11.782 9.562-21.344 21.376-21.344 11.75 0 21.312 9.562 21.312 21.344v981.274c0 11.78-9.562 21.342-21.312 21.342zM640.502 1023.98c-11.812 0-21.31-9.562-21.31-21.344V21.364c0-11.782 9.498-21.344 21.31-21.344 11.75 0 21.312 9.562 21.312 21.344v981.274c0 11.78-9.562 21.342-21.312 21.342zM384.53 1023.98c-11.782 0-21.312-9.562-21.312-21.344V21.364c0-11.782 9.532-21.344 21.312-21.344 11.78 0 21.342 9.562 21.342 21.344v981.274c0 11.78-9.564 21.342-21.342 21.342z" fill="#CCD1D9" /></svg>