<?xml version="1.0" standalone="no"?><!DOCTYPE svg PUBLIC "-//W3C//DTD SVG 1.1//EN" "http://www.w3.org/Graphics/SVG/1.1/DTD/svg11.dtd"><svg class="icon" width="128px" height="128.00px" viewBox="0 0 1024 1024" version="1.1" xmlns="http://www.w3.org/2000/svg"><path d="M959.982 490.658h-42.686c-11.75 0-21.312-30.904-21.312-42.654v-170.65c0-35.31-28.718-63.998-63.998-63.998H64.018C28.706 213.356 0.02 242.044 0.02 277.354v362.676c0 35.248 28.686 63.996 63.998 63.996h895.964c35.28 0 63.998-28.748 63.998-63.996v-85.374c0-35.28-28.718-63.998-63.998-63.998z" fill="#FC6E51" /><path d="M229.23 663.028l-37.218-44.374H0.02v21.376c0 35.248 28.686 63.996 63.998 63.996h152.744c7.28-23.998 12.468-40.998 12.468-40.998z" fill="#E6E9ED" /><path d="M192.012 597.342c-58.84 0-106.682 47.876-106.682 106.684 0 58.81 47.842 106.62 106.682 106.62 58.81 0 106.652-47.808 106.652-106.62 0-58.81-47.842-106.684-106.652-106.684zM789.3 597.342c-58.81 0-106.65 47.876-106.65 106.684 0 58.81 47.84 106.62 106.65 106.62s106.684-47.808 106.684-106.62c0-58.81-47.872-106.684-106.684-106.684z" fill="#434A54" /><path d="M207.074 688.902c8.342 8.374 8.342 21.874 0 30.186-8.312 8.312-21.844 8.312-30.156 0-8.342-8.312-8.342-21.812 0-30.186 8.312-8.312 21.844-8.312 30.156 0zM804.394 688.902c8.344 8.374 8.344 21.874 0 30.186s-21.844 8.312-30.156 0c-8.344-8.312-8.344-21.812 0-30.186 8.312-8.312 21.812-8.312 30.156 0z" fill="#F5F7FA" /><path d="M895.984 320.01H106.672v170.648H959.982z" fill="#4FC2E9" /><path d="M959.982 554.656c-11.812 0-21.344 9.562-21.344 21.376 0 11.748 9.532 21.31 21.344 21.31h63.998v-42.686h-63.998z" fill="#E6E9ED" /><path d="M160.014 320.01h21.31v170.648H160.014zM224.01 320.01h21.312v170.648h-21.312zM288.008 320.01h21.312v170.648h-21.312zM352.006 320.01h21.312v170.648h-21.312zM416.002 320.01h21.312v170.648h-21.312zM480 320.01h21.312v170.648H480zM543.998 320.01h21.312v170.648h-21.312zM607.996 320.01h21.31v170.648h-21.31zM671.994 320.01h21.312v170.648h-21.312zM735.99 320.01h21.31v170.648h-21.31z" fill="#CCD1D9" /><path d="M106.672 394.662H757.3v21.344H106.672z" fill="#E6E9ED" /><path d="M629.306 682.652h-21.31V330.664H373.318v351.988h-21.312V320.01a10.648 10.648 0 0 1 10.656-10.656h255.99a10.668 10.668 0 0 1 10.654 10.656v362.642z" fill="#FFCE54" /><path d="M480 320.01h21.312v362.642H480z" fill="#FFCE54" /><path d="M352.006 490.658h277.3v213.368h-277.3z" fill="#FFCE54" /></svg>