<?xml version="1.0" standalone="no"?><!DOCTYPE svg PUBLIC "-//W3C//DTD SVG 1.1//EN" "http://www.w3.org/Graphics/SVG/1.1/DTD/svg11.dtd"><svg class="icon" width="128px" height="128.00px" viewBox="0 0 1024 1024" version="1.1" xmlns="http://www.w3.org/2000/svg"><path d="M320.008 0H149.336c-11.782 0-21.328 9.546-21.328 21.344 0 11.782 9.546 21.328 21.328 21.328h149.344v938.672H149.336c-11.782 0-21.328 9.532-21.328 21.344 0 11.75 9.546 21.312 21.328 21.312h170.672c11.782 0 21.328-9.562 21.328-21.312V21.344C341.336 9.546 331.79 0 320.008 0zM874.68 981.344h-149.344V42.672h149.344c11.782 0 21.312-9.546 21.312-21.328C895.992 9.546 886.46 0 874.68 0h-170.688c-11.75 0-21.312 9.546-21.312 21.344v981.344c0 11.75 9.562 21.312 21.312 21.312h170.688c11.782 0 21.312-9.562 21.312-21.312 0-11.812-9.532-21.344-21.312-21.344z" fill="#5D9CEC" /><path d="M511.992 426.672c-47.11 0-85.312 38.204-85.312 85.328s38.204 85.344 85.312 85.344c47.124 0 85.344-38.218 85.344-85.344s-38.218-85.328-85.344-85.328z" fill="#4A89DC" /></svg>