<?xml version="1.0" standalone="no"?><!DOCTYPE svg PUBLIC "-//W3C//DTD SVG 1.1//EN" "http://www.w3.org/Graphics/SVG/1.1/DTD/svg11.dtd"><svg class="icon" width="128px" height="128.00px" viewBox="0 0 1024 1024" version="1.1" xmlns="http://www.w3.org/2000/svg"><path d="M455.002 831.662l-23.28-358.536h136.956L543.12 831.662z" fill="#FFD2A6" /><path d="M408.976 451.818l26.058 401.156h127.96l28.558-401.156h-182.576z m114.268 358.504H475L454.472 494.44h91.272l-22.5 315.882z" fill="#F4BE8E" /><path d="M387.538 1002.65c-91.21 0-143.708-3.938-164.488-7.5 1.906-19.374 10.844-33.308 28-44.184 21.028-13.312 51.652-20.498 81.274-27.498 41.778-9.842 84.804-19.998 107.586-49.184h127.144c8.562 38.842 15.062 58.744 19.562 72.494 5.312 16.094 7.624 23.156 8.188 46.872-29.626 4.656-110.336 9-207.266 9z" fill="#FFD2A6" /><path d="M584.302 852.974h-155.924c-36.934 71.87-232.636 27.434-226.918 155.926 0.5 10.562 90.21 15.06 186.078 15.06 110.304 0 228.76-5.966 228.76-15.56 0-70.12-8.746-42.684-31.996-155.426z m-61.12 125.24c-39.776 2-87.96 3.094-135.644 3.094-63.402 0-107.868-1.906-135.082-4.156 2.746-3.124 6.122-5.688 9.996-8.154 18-11.406 46.84-18.218 74.746-24.782 22.996-5.406 46.746-11 67.84-19.81 18.496-7.716 33.246-17.248 44.528-28.78h100.492c6.938 29.154 12.376 45.778 16.308 57.778 2.812 8.624 4.624 14.124 5.75 21.374-11.246 1.124-27.06 2.312-48.934 3.436z" fill="#F4BE8E" /><path d="M562.306 475.814c-11-0.438-38.75-8.312-70.246-22.56-32.684-14.842-50.464-27.81-55.652-33.874 9.344-70.368 37.152-155.05 74.808-227.482 37.214-71.496 81.522-126.678 126.832-158.582 8.562 29.28 25.062 73.526 52.122 99.648 20.812 20.124 70.372 39.934 101.054 50.902-35.12 60.156-137.176 226.08-228.918 291.948z" fill="#FFD2A6" /><path d="M704.982 117.654C667.236 81.22 651.674 0.04 651.674 0.04c-126.524 65.744-219.484 279.416-236.92 420.716-3.156 25.5 112.742 76.402 148.428 76.402 3.746 0 6.622-0.562 8.372-1.782 118.618-82.62 251.11-323.414 251.11-323.414s-91.06-28.56-117.682-54.308z m-148.426 335.85c-9.688-2.06-27.844-7.436-51.526-17.842-22.468-9.844-37.624-18.938-45.808-24.842 10.34-65.65 36.34-142.616 70.928-209.078 29.282-56.278 62.778-101.774 97.274-132.74 10.438 27.342 25.938 58.058 47.872 79.306 9.812 9.436 29 24.436 82.746 45.778 0.624 0.25 1.312 0.5 1.938 0.75-13.812 22.874-32.438 52.714-54.058 84.494-55.56 81.556-106.87 141.426-149.366 174.174z" fill="#F4BE8E" /><path d="M499 916.94c-35.282 0-63.964-28.688-63.964-63.964 0-35.28 28.684-63.964 63.964-63.964 35.276 0 63.996 28.686 63.996 63.964-0.002 35.276-28.72 63.964-63.996 63.964z" fill="#656D78" /><path d="M499 767.668c-47.09 0-85.308 38.186-85.308 85.306s38.218 85.304 85.308 85.304c47.12 0 85.304-38.184 85.304-85.304s-38.184-85.306-85.304-85.306z m0 127.958c-23.5 0-42.652-19.154-42.652-42.652 0-23.5 19.152-42.652 42.652-42.652 23.526 0 42.652 19.152 42.652 42.652-0.002 23.498-19.126 42.652-42.652 42.652z" fill="#434A54" /><path d="M520.306 852.974c0 11.782-9.526 21.31-21.308 21.31s-21.312-9.53-21.312-21.31 9.532-21.312 21.312-21.312 21.308 9.532 21.308 21.312z" fill="#434A54" /><path d="M499 537.124c-47.028 0-85.308-38.278-85.308-85.304 0-47.03 38.282-85.308 85.308-85.308 47.058 0 85.304 38.28 85.304 85.308-0.002 47.026-38.248 85.304-85.304 85.304z" fill="#656D78" /><path d="M499 345.202c-58.872 0-106.618 47.746-106.618 106.618 0 58.87 47.746 106.616 106.618 106.616 58.87 0 106.616-47.746 106.616-106.616 0-58.872-47.746-106.618-106.616-106.618z m0 170.58c-35.282 0-63.964-28.716-63.964-63.962 0-35.282 28.684-63.996 63.964-63.996 35.276 0 63.996 28.714 63.996 63.996-0.002 35.244-28.72 63.962-63.996 63.962z" fill="#434A54" /><path d="M520.306 451.818c0 11.78-9.526 21.308-21.308 21.308s-21.312-9.53-21.312-21.308c0-11.782 9.532-21.312 21.312-21.312s21.308 9.532 21.308 21.312z" fill="#434A54" /></svg>