<?xml version="1.0" standalone="no"?><!DOCTYPE svg PUBLIC "-//W3C//DTD SVG 1.1//EN" "http://www.w3.org/Graphics/SVG/1.1/DTD/svg11.dtd"><svg class="icon" width="128px" height="128.00px" viewBox="0 0 1024 1024" version="1.1" xmlns="http://www.w3.org/2000/svg"><path d="M730.364 85.354H293.608a21.298 21.298 0 0 0-21.312 21.312v85.342c0 11.78 9.532 21.342 21.312 21.342h436.756c11.812 0 21.312-9.562 21.312-21.342V106.666c0-11.782-9.5-21.312-21.312-21.312z" fill="#DA4453" /><path d="M767.988 0.012H255.984c-11.75 0-21.312 9.562-21.312 21.342v85.31c0 11.78 9.562 21.342 21.312 21.342h512.004c11.812 0 21.312-9.562 21.312-21.342V21.354c0-11.78-9.5-21.342-21.312-21.342z" fill="#656D78" /><path d="M682.676 64.01c-11.812 0-21.376-9.562-21.376-21.344V21.354c0-11.782 9.562-21.342 21.376-21.342 11.75 0 21.312 9.562 21.312 21.342v21.312c0 11.782-9.562 21.344-21.312 21.344zM597.304 64.01c-11.75 0-21.312-9.562-21.312-21.344V21.354c0-11.782 9.562-21.342 21.312-21.342 11.812 0 21.376 9.562 21.376 21.342v21.312c0 11.782-9.562 21.344-21.376 21.344zM512.008 64.01c-11.782 0-21.344-9.562-21.344-21.344V21.354c0-11.782 9.562-21.342 21.344-21.342 11.78 0 21.312 9.562 21.312 21.342v21.312c0 11.782-9.53 21.344-21.312 21.344zM426.666 64.01c-11.782 0-21.344-9.562-21.344-21.344V21.354c0-11.782 9.562-21.342 21.344-21.342 11.78 0 21.342 9.562 21.342 21.342v21.312c0.002 11.782-9.56 21.344-21.342 21.344zM341.326 64.01c-11.782 0-21.312-9.562-21.312-21.344V21.354c0-11.782 9.532-21.342 21.312-21.342 11.78 0 21.342 9.562 21.342 21.342v21.312c0 11.782-9.562 21.344-21.342 21.344z" fill="#434A54" /><path d="M767.988 170.664H255.984c-58.812 0-106.654 47.874-106.654 106.684v639.986c0 58.81 47.842 106.654 106.654 106.654h512.004c58.808 0 106.684-47.844 106.684-106.654V277.348c0-58.81-47.876-106.684-106.684-106.684z" fill="#ED5564" /><path d="M149.33 384.002h725.342V725.34H149.33z" fill="#F6BB42" /><path d="M767.988 170.664H725.3c58.812 0 106.684 47.874 106.684 106.684v639.986c0 58.81-47.872 106.654-106.684 106.654h42.688c58.808 0 106.684-47.844 106.684-106.654V277.348c0-58.81-47.876-106.684-106.684-106.684z" fill="#FFFFFF" opacity=".2" /><path d="M511.978 320.004c-129.372 0-234.652 105.28-234.652 234.65 0 129.404 105.28 234.682 234.652 234.682 129.39 0 234.698-105.278 234.698-234.682 0-129.37-105.308-234.65-234.698-234.65z" fill="#FFCE54" /><path d="M639.992 895.992H383.98c-11.75 0-21.312-9.562-21.312-21.344s9.562-21.312 21.312-21.312h256.012c11.808 0 21.308 9.532 21.308 21.312s-9.5 21.344-21.308 21.344z" fill="#434A54" /><path d="M649.926 513.656a21.286 21.286 0 0 0-17.246-14.5l-70.188-10.218-31.36-63.592a21.34 21.34 0 0 0-19.124-11.876 21.352 21.352 0 0 0-19.156 11.876l-31.374 63.592-70.186 10.218c-8.03 1.156-14.718 6.782-17.218 14.5s-0.406 16.218 5.406 21.876l50.78 49.498-12 69.904c-1.376 8 1.938 16.094 8.5 20.876a21.376 21.376 0 0 0 22.468 1.624l62.78-33 62.734 33a21.622 21.622 0 0 0 9.938 2.438c4.438 0 8.812-1.376 12.562-4.062a21.378 21.378 0 0 0 8.5-20.876l-12-69.904 50.746-49.498a21.382 21.382 0 0 0 5.438-21.876z" fill="#ED5564" /></svg>