<?xml version="1.0" standalone="no"?><!DOCTYPE svg PUBLIC "-//W3C//DTD SVG 1.1//EN" "http://www.w3.org/Graphics/SVG/1.1/DTD/svg11.dtd"><svg class="icon" width="128px" height="128.00px" viewBox="0 0 1024 1024" version="1.1" xmlns="http://www.w3.org/2000/svg"><path d="M959.984 277.342h-120.872L810.676 256H213.322l-28.436 21.342H64.014S0.016 321.216 0.016 511.992c0 190.758 63.998 234.632 63.998 234.632h120.872L213.322 768h597.354l28.438-21.376h120.872s64-43.876 64-234.632c-0.002-190.776-64.002-234.65-64.002-234.65z" fill="#656D78" /><path d="M895.988 469.336c0 11.782-9.562 21.312-21.312 21.312-11.812 0-21.376-9.532-21.376-21.312 0-11.78 9.562-21.342 21.376-21.342 11.75 0 21.312 9.562 21.312 21.342zM895.988 554.63c0 11.75-9.562 21.31-21.312 21.31-11.812 0-21.376-9.56-21.376-21.31 0-11.766 9.562-21.296 21.376-21.296 11.75 0 21.312 9.532 21.312 21.296zM938.672 511.992c0 11.782-9.562 21.342-21.372 21.342-11.75 0-21.312-9.56-21.312-21.342s9.562-21.344 21.312-21.344c11.81 0 21.372 9.562 21.372 21.344zM853.3 511.992c0 11.782-9.562 21.342-21.312 21.342-11.812 0-21.312-9.56-21.312-21.342s9.5-21.344 21.312-21.344c11.75 0 21.312 9.562 21.312 21.344z" fill="#AAB2BC" /><path d="M256.008 341.34h511.984v341.286H256.008z" fill="#AC92EB" /><path d="M192.01 490.648H170.666v-21.312c0-11.78-9.562-21.342-21.342-21.342s-21.312 9.562-21.312 21.342v21.312H106.668c-11.78 0-21.342 9.562-21.342 21.344s9.562 21.342 21.342 21.342h21.344v21.296c0 11.75 9.53 21.31 21.312 21.31s21.342-9.56 21.342-21.31v-21.296h21.344c11.75 0 21.312-9.56 21.312-21.342s-9.562-21.344-21.312-21.344z" fill="#AAB2BC" /><path d="M448.002 704c-11.812 0-21.342 9.562-21.342 21.312a21.286 21.286 0 0 0 21.342 21.312c11.75 0 21.312-9.5 21.312-21.312 0-11.75-9.562-21.312-21.312-21.312zM384.004 704c-11.812 0-21.342 9.562-21.342 21.312a21.286 21.286 0 0 0 21.342 21.312c11.75 0 21.312-9.5 21.312-21.312 0-11.75-9.562-21.312-21.312-21.312zM320.006 704H277.32c-11.782 0-21.312 9.562-21.312 21.312a21.278 21.278 0 0 0 21.312 21.312h42.686c11.75 0 21.312-9.5 21.312-21.312 0-11.75-9.562-21.312-21.312-21.312zM746.68 704h-42.688c-11.812 0-21.312 9.562-21.312 21.312a21.26 21.26 0 0 0 21.312 21.312h42.688c11.75 0 21.312-9.5 21.312-21.312 0-11.75-9.562-21.312-21.312-21.312zM639.996 704h-42.688c-11.75 0-21.312 9.562-21.312 21.312 0 11.812 9.562 21.312 21.312 21.312h42.688c11.75 0 21.312-9.5 21.312-21.312 0-11.75-9.562-21.312-21.312-21.312z" fill="#434A54" /><path d="M426.69 512.024l74.528-41.624a85.648 85.648 0 0 0-14.156-18.686c-33.342-33.344-87.404-33.344-120.714 0-33.342 33.31-33.342 87.34 0 120.668 33.312 33.31 87.372 33.31 120.714 0a85.66 85.66 0 0 0 14.156-18.688l-74.528-41.67z" fill="#FFCE54" /><path d="M569.746 527.118a21.33 21.33 0 0 1-30.184 0c-8.312-8.312-8.312-21.844 0-30.156a21.328 21.328 0 0 1 30.184 0c8.312 8.312 8.312 21.842 0 30.156zM633.746 527.118a21.336 21.336 0 0 1-30.188 0c-8.312-8.312-8.312-21.844 0-30.156a21.332 21.332 0 0 1 30.188 0c8.312 8.312 8.344 21.842 0 30.156zM697.742 527.118a21.33 21.33 0 0 1-30.184 0c-8.312-8.312-8.312-21.844 0-30.156a21.328 21.328 0 0 1 30.184 0c8.344 8.312 8.344 21.842 0 30.156z" fill="#ED5564" /></svg>