<?xml version="1.0" standalone="no"?><!DOCTYPE svg PUBLIC "-//W3C//DTD SVG 1.1//EN" "http://www.w3.org/Graphics/SVG/1.1/DTD/svg11.dtd"><svg class="icon" width="128px" height="128.00px" viewBox="0 0 1024 1024" version="1.1" xmlns="http://www.w3.org/2000/svg"><path d="M937.992 853.582H86.008V278.478c0-117.636 95.372-213.008 213.024-213.008H725c117.624 0 212.992 95.372 212.992 213.008v575.104z" fill="#FECD57" /><path d="M213.816 853.582c0-11.78-9.532-21.28-21.28-21.28-11.78 0-21.312 9.5-21.312 21.28h42.592zM852.808 853.582c0-11.78-9.562-21.28-21.31-21.28-11.75 0-21.312 9.5-21.312 21.28h42.622z" fill="#424953" /><path d="M739.312 146.498L511.774 170.982 284.72 146.498V0.582h454.592z" fill="#D94452" /><path d="M235.096 218.574h553.838v805.408H235.096z" fill="#FECD57" /><path d="M831.498 363.678c0-11.766-9.5-21.296-21.312-21.296-11.75 0-21.25 9.532-21.25 21.296v489.904h42.562V363.678zM235.096 363.678c0-11.766-9.5-21.296-21.282-21.296-11.78 0-21.28 9.532-21.28 21.296v489.904h42.562V363.678z" opacity=".1" /><path d="M171.224 853.582c0-11.78-9.562-21.28-21.312-21.28s-21.312 9.5-21.312 21.28h42.624z" fill="#424953" /><path d="M128.6 853.582c0-11.78-9.532-21.28-21.282-21.28-11.78 0-21.312 9.5-21.312 21.28H128.6zM895.43 853.582c0-11.78-9.56-21.28-21.308-21.28-11.75 0-21.312 9.5-21.312 21.28h42.62zM937.992 853.582c0-11.78-9.5-21.28-21.312-21.28-11.75 0-21.25 9.5-21.25 21.28h42.562z" fill="#424953" /><path d="M429.434 383.99c0 11.766 9.53 21.296 21.28 21.296 11.782 0 21.312-9.53 21.312-21.296v-176.822h-42.59v176.822zM557.196 207.166v176.822c0 11.766 9.562 21.296 21.31 21.296 11.75 0 21.312-9.53 21.312-21.296v-176.822h-42.622z" fill="#424953" /><path d="M782.686 19.502C775.624 10.612 762.062 0.018 737.376 0.018c-36.436 0-88.436 23.78-138.994 63.606-36.56 28.842-66.452 61.482-86.294 93.716-19.592-32.186-48.936-64.78-84.808-93.59C377.528 23.846 326.53 0.02 290.782 0.02c-24.062 0-37.374 10.42-44.342 19.17-12.218 15.374-14.968 37.952-8.156 67.106 12.312 52.92 63.03 92.888 150.682 118.76 61.56 18.188 119.058 22.61 121.496 22.782 0.5 0.046 1 0.062 1.562 0.062 0.5 0 1-0.016 1.532-0.046 2.468-0.188 61.202-4.594 124.012-22.75 89.434-25.858 141.056-65.826 153.432-118.808 6.686-28.904 3.936-51.372-8.314-66.794z" fill="#EC5564" /></svg>