<?xml version="1.0" standalone="no"?><!DOCTYPE svg PUBLIC "-//W3C//DTD SVG 1.1//EN" "http://www.w3.org/Graphics/SVG/1.1/DTD/svg11.dtd"><svg class="icon" width="128px" height="128.00px" viewBox="0 0 1024 1024" version="1.1" xmlns="http://www.w3.org/2000/svg"><path d="M512.024 875.114h-0.032C274.78 875.114 367.62 667.12 0.034 683.12L0.004 1023.986h1023.992V683.12c-367.618-16-274.746 191.994-511.972 191.994z" fill="#EC87C0" /><path d="M512.024 875.114h-0.032C274.78 875.114 367.62 667.12 0.034 683.12L0.004 1023.986l0.03-298.212c367.584-15.998 274.744 191.994 511.958 191.994h0.032c237.226 0 144.356-207.992 511.972-191.994V683.12c-367.618-16-274.746 191.994-511.972 191.994z" fill="#FFFFFF" opacity=".2" /><path d="M939.808 361.752c44-106.342-6.5-228.246-112.872-272.276-32.062-13.25-65.5-17.936-97.876-15.062-20.808-24.876-47.808-45.218-79.872-58.5-106.356-44.03-228.26 6.5-272.29 112.872-12.062 29.218-17.032 59.592-15.656 89.218l6 149.684c-32.28 38.686-119.998 314.678-27.156 353.114 29.218 12.094 177.652-216.806 206.356-205.15 28.684 11.656-28.204 278.898 1 290.96 92.872 38.438 225.804-218.838 230.304-269.024l110.122-101.656c21.878-19.962 39.878-44.96 51.94-74.18z" fill="#FFCE54" /></svg>