<?xml version="1.0" standalone="no"?><!DOCTYPE svg PUBLIC "-//W3C//DTD SVG 1.1//EN" "http://www.w3.org/Graphics/SVG/1.1/DTD/svg11.dtd"><svg class="icon" width="128px" height="128.00px" viewBox="0 0 1024 1024" version="1.1" xmlns="http://www.w3.org/2000/svg"><path d="M846.00738 97.124c-118.468-57.406-246.124-33.156-334 69.594-87.874-102.75-215.53-127-334.03-69.594C27.22738 178.906-44.58462 365.312 29.28938 560.594 122.97738 820.032 462.60138 941.468 512.00738 957.282c49.438-15.812 389.062-137.25 482.688-396.688 73.906-195.282 2.094-381.688-148.688-463.47z" fill="#ED5564" /><path d="M1010.97538 508.844H647.06938l-68.25 154.688-127.906-383.688-102.438 229-335.436 0.032a476.646 476.646 0 0 0 12.938 42.656l350.124-0.032 69-154.156 128.156 384.5 101.624-230.312h323.156a467.172 467.172 0 0 0 12.938-42.688z" fill="#E6E9ED" /><path d="M846.00738 97.124c-49-23.75-99.594-33.5-148.282-29.532 35.156 2.844 70.782 12.656 105.624 29.532 150.782 81.782 222.594 268.188 148.688 463.468-84.78 234.908-371.28 356.69-461.372 389.346a644.068 644.068 0 0 0 21.342 7.344c49.438-15.812 389.062-137.25 482.688-396.688 73.906-195.282 2.094-381.688-148.688-463.47z" fill="#FFFFFF" opacity=".2" /></svg>