<?xml version="1.0" standalone="no"?><!DOCTYPE svg PUBLIC "-//W3C//DTD SVG 1.1//EN" "http://www.w3.org/Graphics/SVG/1.1/DTD/svg11.dtd"><svg class="icon" width="128px" height="128.00px" viewBox="0 0 1024 1024" version="1.1" xmlns="http://www.w3.org/2000/svg"><path d="M981.312 85.312H42.656C19.094 85.312 0 104.438 0 128v810.688c0 23.562 19.094 42.624 42.656 42.624h938.656c23.562 0 42.688-19.062 42.688-42.624V128c0-23.562-19.124-42.688-42.688-42.688z" fill="#CCD1D9" /><path d="M42.656 917.312c-11.75 0-21.312-9.562-21.312-21.312V85.312C21.344 73.562 30.906 64 42.656 64h938.656c11.782 0 21.376 9.562 21.376 21.312V896c0 11.75-9.594 21.312-21.376 21.312H42.656z" fill="#5D9CEC" /><path d="M574 656.624l-128.156-384.562-69 154.188-333.812 0.032v-42.658l306.156-0.03 102.468-229 127.906 383.718 68.25-154.718h336.344v42.656H675.624z" fill="#4A89DC" /><path d="M24.344 725.312h966.718v183H24.344z" fill="#E6E9ED" /><path d="M128 832c0 11.75-9.532 21.312-21.344 21.312-11.75 0-21.312-9.562-21.312-21.312 0-11.812 9.562-21.312 21.312-21.312C118.468 810.688 128 820.188 128 832z" fill="#ED5564" /><path d="M213.344 832c0 11.75-9.562 21.312-21.344 21.312S170.656 843.75 170.656 832c0-11.812 9.562-21.312 21.344-21.312s21.344 9.5 21.344 21.312z" fill="#5D9CEC" /><path d="M298.656 832c0 11.75-9.562 21.312-21.312 21.312-11.812 0-21.344-9.562-21.344-21.312 0-11.812 9.532-21.312 21.344-21.312 11.75 0 21.312 9.5 21.312 21.312z" fill="#A0D468" /><path d="M917.312 810.688h-128c-11.75 0-21.312 9.5-21.312 21.312 0 11.75 9.562 21.312 21.312 21.312h128c11.812 0 21.376-9.562 21.376-21.312 0-11.812-9.564-21.312-21.376-21.312z" fill="#434A54" /><path d="M981.312 42.688H42.656C19.094 42.688 0 61.75 0 85.312V896c0 23.562 19.094 42.688 42.656 42.688h938.656c23.562 0 42.688-19.124 42.688-42.688V85.312c0-23.562-19.124-42.624-42.688-42.624z m0 853.312H42.656V85.312h938.656V896z" fill="#E6E9ED" /></svg>