<?xml version="1.0" standalone="no"?><!DOCTYPE svg PUBLIC "-//W3C//DTD SVG 1.1//EN" "http://www.w3.org/Graphics/SVG/1.1/DTD/svg11.dtd"><svg class="icon" width="128px" height="128.00px" viewBox="0 0 1024 1024" version="1.1" xmlns="http://www.w3.org/2000/svg"><path d="M234.408 917.936h555.722c234.652 0 320.12-598.22 128.186-598.22H106.192c-192.652-0.002-107.186 598.22 128.216 598.22z" fill="#D84532" /><path d="M681.914 130.468L648.32 63.314s-207.292 21.624-199.448 234.088c2.218 59.56 41.562 85.53 78.03 85.53 41.452 0 79.2-33.594 54.294-89.466-53.638-120.406 100.718-162.998 100.718-162.998z" fill="#A0D468" /><path d="M681.914 130.468L648.32 63.314s-15.782 1.656-38.468 8.5l29.312 58.654s-154.324 42.592-100.7 162.996c20.514 46.032-1.468 76.936-33.064 86.404a76.896 76.896 0 0 0 21.5 3.062c41.452 0 79.2-33.594 54.294-89.466-53.636-120.404 100.72-162.996 100.72-162.996z" fill="#8CC153" /><path d="M318.968 939.31h384.57c234.65 0 320.118-640.97 128.184-640.97H190.752c-192.652 0-107.184 640.97 128.216 640.97z" fill="#E9573F" /><path d="M596.946 276.964H426.84c-140.34 0.032-191.434 43.812-191.434 213.778 0 169.95 63.75 469.944 172.904 469.944h206.948c109.156 0 173.34-342.742 173.34-470.038 0-127.31-51.31-213.652-191.652-213.684z" fill="#FC6E51" /></svg>