<?xml version="1.0" standalone="no"?><!DOCTYPE svg PUBLIC "-//W3C//DTD SVG 1.1//EN" "http://www.w3.org/Graphics/SVG/1.1/DTD/svg11.dtd"><svg class="icon" width="128px" height="128.00px" viewBox="0 0 1024 1024" version="1.1" xmlns="http://www.w3.org/2000/svg"><path d="M554.694 128.02h-85.356c-11.782 0-21.326 9.562-21.326 21.344v186.146c0 11.78 9.544 21.342 21.326 21.342h85.356c11.75 0 21.31-9.562 21.31-21.342V149.364c0-11.782-9.56-21.344-21.31-21.344z" fill="#E6E9ED" /><path d="M527.086 207.11a21.294 21.294 0 0 1-30.156 0c-8.342-8.312-8.342-21.842 0-30.154a21.294 21.294 0 0 1 30.156 0c8.344 8.312 8.344 21.84 0 30.154zM527.086 271.106a21.294 21.294 0 0 1-30.156 0c-8.342-8.312-8.342-21.842 0-30.154a21.294 21.294 0 0 1 30.156 0c8.344 8.312 8.344 21.84 0 30.154z" fill="#434A54" /><path d="M713.81 561.308c-35.186-60.246-78.964-135.18-122.744-248.956a21.412 21.412 0 0 0-19.938-13.654h-118.258a21.356 21.356 0 0 0-19.906 13.654c-43.794 113.776-87.574 188.708-122.744 248.956-43.996 75.308-75.778 129.744-75.778 206.678 0 93.994 31.032 163.552 92.246 206.77 46.264 32.654 108.62 49.216 185.318 49.216 76.684 0 139.054-16.562 185.304-49.216 61.246-43.216 92.244-112.776 92.244-206.77 0.002-76.934-31.746-131.368-75.744-206.678z" fill="#656D78" /><path d="M640.002 0.028H384.014c-11.78 0-21.326 9.56-21.326 21.342V128.02c0 11.812 9.546 21.344 21.326 21.344h255.988c11.78 0 21.31-9.532 21.31-21.344V21.37c0-11.782-9.53-21.342-21.31-21.342z" fill="#434A54" /><path d="M469.198 64.024c11.782 0 21.328-9.532 21.328-21.312V0.028h-42.67v42.684c0 11.78 9.56 21.312 21.342 21.312zM552.974 64.024c11.782 0 21.342-9.532 21.342-21.312V0.028h-42.668v42.684c0 11.78 9.548 21.312 21.326 21.312z" fill="#656D78" /><path d="M483.666 298.7c-32.358 102.87-164.336 549.75-69.964 714.398 29.482 7.25 62.324 10.876 98.306 10.876 38.374 0 73.122-4.124 104.058-12.344 92.776-165.836-38.5-610.374-70.746-712.93h-61.654z" fill="#FFCE54" /><path d="M713.81 561.308c-35.186-60.246-78.964-135.18-122.744-248.956a21.412 21.412 0 0 0-19.938-13.654h-42.652c8.828 0 16.718 5.436 19.906 13.654 43.808 113.776 87.556 188.708 122.742 248.956 43.998 75.308 75.778 129.744 75.778 206.678 0 93.994-31.03 163.552-92.214 206.77-41.934 29.592-96.994 45.966-164.006 48.78 6.966 0.312 14.092 0.438 21.326 0.438 76.684 0 139.054-16.562 185.304-49.216 61.246-43.216 92.244-112.776 92.244-206.77 0-76.936-31.748-131.37-75.746-206.68z" fill="#FFFFFF" opacity=".1" /></svg>