<?xml version="1.0" standalone="no"?><!DOCTYPE svg PUBLIC "-//W3C//DTD SVG 1.1//EN" "http://www.w3.org/Graphics/SVG/1.1/DTD/svg11.dtd"><svg class="icon" width="128px" height="128.00px" viewBox="0 0 1024 1024" version="1.1" xmlns="http://www.w3.org/2000/svg"><path d="M764.058 379.1c-15.5-39.436-37.25-75.622-64.654-107.526-54.28-63.184-124.306-100.9-187.396-100.9s-133.132 37.716-187.396 100.9c-27.42 31.904-49.17 68.09-64.652 107.526-16.766 42.686-25.266 87.09-25.266 131.994 0 44.932 8.422 89.338 25.032 131.96 15.374 39.468 37.014 75.652 64.292 107.558 54.06 63.184 124.338 100.93 187.99 100.93s133.93-37.746 187.99-100.93c27.28-31.906 48.936-68.09 64.31-107.558 16.592-42.622 24.998-87.028 24.998-131.96 0-44.904-8.5-89.308-25.248-131.994z" fill="#FFCE54" /><path d="M526.976 178.33a21.342 21.342 0 0 0-16.094-7.656 21.316 21.316 0 0 0-16.624 7.624c-1.154 1.376-28.544 34.28-55.902 91.746-25.108 52.78-55.044 137.43-55.044 241.05s29.938 188.268 55.044 241.018c27.482 57.778 54.78 90.464 55.934 91.836a21.312 21.312 0 0 0 16.312 7.594h0.016a21.414 21.414 0 0 0 16.344-7.656c4.532-5.402 110.916-134.742 110.916-332.792-0.002-197.74-106.37-327.358-110.902-332.764z" fill="#ED5564" /><path d="M764.058 379.1c-15.5-39.436-37.25-75.622-64.654-107.526-54.28-63.184-124.306-100.9-187.396-100.9-7.032 0-14.156 0.5-21.326 1.406 57.17 7.342 117.854 43.34 166.068 99.494 27.406 31.904 49.154 68.09 64.622 107.526 16.812 42.686 25.312 87.09 25.312 131.994 0 44.932-8.438 89.338-25.062 131.96-15.374 39.468-36.996 75.652-64.278 107.558-48.09 56.214-108.992 92.246-166.662 99.524 7.17 0.906 14.28 1.406 21.326 1.406 63.652 0 133.93-37.746 187.99-100.93 27.28-31.906 48.936-68.09 64.31-107.558 16.592-42.622 24.998-87.028 24.998-131.96 0-44.904-8.5-89.308-25.248-131.994z" fill="#FFFFFF" opacity=".2" /><path d="M510.602 192.016c-11.782 0-21.326-9.562-21.326-21.342V21.338c0-11.782 9.544-21.312 21.326-21.312s21.328 9.53 21.328 21.312v149.336c0 11.782-9.548 21.342-21.328 21.342z" fill="#434A54" /><path d="M554.694 85.334c0 23.562-19.124 42.686-42.686 42.686-23.56 0-42.67-19.124-42.67-42.686 0-23.56 19.11-42.654 42.67-42.654 23.562 0 42.686 19.094 42.686 42.654z" fill="#656D78" /><path d="M510.602 1023.972c-11.782 0-21.326-9.562-21.326-21.344v-149.336c0-11.778 9.544-21.308 21.326-21.308s21.328 9.532 21.328 21.308v149.336c0 11.782-9.548 21.344-21.328 21.344z" fill="#434A54" /><path d="M554.694 938.632c0 23.562-19.124 42.656-42.686 42.656-23.56 0-42.67-19.094-42.67-42.656 0-23.558 19.11-42.652 42.67-42.652 23.562 0 42.686 19.094 42.686 42.652z" fill="#656D78" /></svg>