<?xml version="1.0" standalone="no"?><!DOCTYPE svg PUBLIC "-//W3C//DTD SVG 1.1//EN" "http://www.w3.org/Graphics/SVG/1.1/DTD/svg11.dtd"><svg class="icon" width="128px" height="128.00px" viewBox="0 0 1024 1024" version="1.1" xmlns="http://www.w3.org/2000/svg"><path d="M661.306 277.318H362.676l-106.668 85.248v75.342l511.984 14.562v-89.904z" fill="#F6BB42" /><path d="M255.836 362.66h511.968v383.988H255.836z" fill="#FFCE54" /><path d="M1002.674 490.656c-11.812 0-21.376 9.562-21.376 21.344 0 63.374-12.376 124.808-36.844 182.65-23.656 55.874-57.466 106.092-100.59 149.184-43.124 43.124-93.31 76.966-149.184 100.592-57.842 24.466-119.308 36.874-182.682 36.874s-124.84-12.406-182.666-36.874c-55.876-23.624-106.076-57.468-149.2-100.592-43.11-43.092-76.952-93.31-100.592-149.184C55.092 636.808 42.686 575.374 42.686 512s12.406-124.84 36.858-182.682c23.64-55.874 57.482-106.06 100.592-149.184 43.124-43.124 93.324-76.966 149.2-100.592C387.16 55.076 448.626 42.67 512 42.67s124.84 12.406 182.682 36.874c51.686 21.876 98.558 52.5 139.434 91.124h-78.31c-11.75 0-21.31 9.562-21.31 21.344s9.56 21.31 21.31 21.31H883.8c11.812 0 21.376-9.53 21.376-21.31V64.014c0-11.782-9.562-21.344-21.376-21.344-11.748 0-21.31 9.562-21.31 21.344v74.78C770.868 52.732 647.62 0.016 512 0.016 229.242 0.016 0.016 229.226 0.016 512 0.016 794.742 229.242 1023.984 512 1023.984c282.74 0 511.984-229.242 511.984-511.984 0-11.782-9.562-21.344-21.31-21.344z" fill="#434A54" /></svg>