<?xml version="1.0" standalone="no"?><!DOCTYPE svg PUBLIC "-//W3C//DTD SVG 1.1//EN" "http://www.w3.org/Graphics/SVG/1.1/DTD/svg11.dtd"><svg class="icon" width="128px" height="128.00px" viewBox="0 0 1024 1024" version="1.1" xmlns="http://www.w3.org/2000/svg"><path d="M122.84 405.822c-23.512 0-42.63-19.122-42.63-42.646 0-23.494 19.12-42.616 42.63-42.616s42.63 19.122 42.63 42.616c0 23.526-19.12 42.646-42.63 42.646z" fill="#434A54" /><path d="M122.84 341.868h767.2v-42.616H122.84c-35.32 0-63.94 28.618-63.94 63.922v101.258h42.63v-40.958a64.152 64.152 0 0 0 21.308 3.656c27.836 0 51.504-17.808 60.284-42.616H122.84c-11.748 0-21.308-9.56-21.308-21.338 0-11.748 9.56-21.308 21.308-21.308z" fill="#ED5564" /><path d="M766.91 203.37c40.774 23.542 54.77 75.67 31.212 116.442L435.846 947.338c-23.542 40.774-75.67 54.738-116.458 31.182l-172.32-99.478-53.3-447.474 224.48-388.818C341.79 1.978 393.918-11.988 434.706 11.554l332.204 191.816z" fill="#FFCE54" /><path d="M940.122 328.622c33.304 33.274 33.304 87.262 0 120.566L427.786 961.524c-33.29 33.304-87.278 33.304-120.566 0L85.536 739.856l6.342-226.09L548.304 57.34c33.274-33.29 87.262-33.29 120.566 0l271.252 271.282z" fill="#F5F7FA" /><path d="M789.406 177.906L170.61 796.748l-90.432-90.416L698.988 87.488z" fill="#434A54" /><path d="M911.41 981.27c0 23.556-19.09 42.616-42.648 42.616H101.532c-23.542 0-42.63-19.058-42.63-42.616v-554.14c0-23.558 19.09-42.616 42.63-42.616h767.23c23.558 0 42.648 19.058 42.648 42.616v554.14z" fill="#ED5564" /><path d="M655.656 853.39h277.06c11.78 0 21.306-9.528 21.306-21.306V576.33c0-11.78-9.528-21.306-21.306-21.306h-277.06s-85.292 102.132-85.292 149.184 85.292 149.182 85.292 149.182z" fill="#DA4453" /><path d="M783.532 704.208c0 23.556-19.088 42.616-42.644 42.616-23.528 0-42.618-19.058-42.618-42.616s19.09-42.616 42.618-42.616c23.556 0 42.644 19.058 42.644 42.616z" fill="#FFCE54" /></svg>