<?xml version="1.0" standalone="no"?><!DOCTYPE svg PUBLIC "-//W3C//DTD SVG 1.1//EN" "http://www.w3.org/Graphics/SVG/1.1/DTD/svg11.dtd"><svg class="icon" width="128px" height="128.00px" viewBox="0 0 1024 1024" version="1.1" xmlns="http://www.w3.org/2000/svg"><path d="M100.978 405.368c-23.526 0-42.662-19.152-42.662-42.662 0-23.526 19.136-42.662 42.662-42.662s42.662 19.136 42.662 42.662c0 23.508-19.136 42.662-42.662 42.662z" fill="#434A54" /><path d="M100.978 384.03c-11.762 0-21.324-9.56-21.324-21.324s9.56-21.338 21.324-21.338V298.72c-35.336 0-63.986 28.632-63.986 63.984v101.304h42.662V423.02a63.382 63.382 0 0 0 21.324 3.656c27.854 0 51.536-17.808 60.33-42.646H100.978z" fill="#FC6E51" /><path d="M604.878 61.054l-116.334 888.22L74 894.974l-21.292-231.26L139.624 0.118z" fill="#8CC153" /><path d="M469.674 107.874L258.208 80.176c-4.592 35.04-36.726 59.72-71.764 55.144L103.352 769.752c35.038 4.594 59.736 36.71 55.144 71.734L369.962 869.2c4.592-35.054 36.726-59.736 71.764-55.144l83.09-634.432c-35.036-4.58-59.734-36.712-55.142-71.75z" fill="#A0D468" /><path d="M814.986 180.59L472.736 1008.416 55.458 835.926l-2.876-39.368L381.35 1.318z" fill="#8CC153" /><path d="M672.27 190.838l-197.096-81.496c-13.496 32.664-50.926 48.192-83.574 34.696L147.124 735.354c32.666 13.498 48.192 50.894 34.696 83.576l197.096 81.48c13.512-32.648 50.926-48.176 83.59-34.68l244.446-591.318c-32.652-13.512-48.18-50.926-34.682-83.574z" fill="#A0D468" /><path d="M987.008 350.444L512.398 969.832l-148.996 31.304-293.714-225.04L614.532 65.04z" fill="#8CC153" /><path d="M846.478 323.402l-169.274-129.736c-21.494 28.056-61.674 33.368-89.728 11.874L198.314 713.422c28.056 21.494 33.368 61.674 11.874 89.728l169.304 129.72c21.496-28.056 61.658-33.368 89.698-11.872l389.162-507.884c-28.026-21.492-33.368-61.672-11.874-89.712z" fill="#A0D468" /><path d="M890.124 981.236c0 23.556-19.09 42.646-42.646 42.646H79.654c-23.572 0-42.662-19.09-42.662-42.646v-554.56c0-23.558 19.09-42.646 42.662-42.646h767.824c23.556 0 42.646 19.088 42.646 42.646v554.56z" fill="#FC6E51" /><path d="M634.184 853.266h277.282c11.778 0 21.306-9.56 21.306-21.34V575.984c0-11.78-9.53-21.338-21.306-21.338H634.184s-85.324 102.196-85.324 149.308 85.324 149.312 85.324 149.312z" fill="#E9573F" /><path d="M762.154 703.956c0 23.556-19.088 42.646-42.646 42.646-23.556 0-42.678-19.09-42.678-42.646s19.122-42.646 42.678-42.646c23.558-0.002 42.646 19.088 42.646 42.646z" fill="#FFCE54" /></svg>