<?xml version="1.0" standalone="no"?><!DOCTYPE svg PUBLIC "-//W3C//DTD SVG 1.1//EN" "http://www.w3.org/Graphics/SVG/1.1/DTD/svg11.dtd"><svg class="icon" width="128px" height="128.00px" viewBox="0 0 1024 1024" version="1.1" xmlns="http://www.w3.org/2000/svg"><path d="M1018.984 754.25L528.922 115.036a21.39 21.39 0 0 0-16.94-8.344c-6.64 0-12.89 3.094-16.92 8.344L4.418 755a21.372 21.372 0 0 0-2.204 22.438 21.38 21.38 0 0 0 19.124 11.876h981.332c11.782 0 21.312-9.562 21.312-21.312a21.31 21.31 0 0 0-4.998-13.752z" fill="#FC6E51" /><path d="M579.714 802.188c-11.78 0-21.31-9.5-21.31-21.312V558.818l-46.422-1.25-46.404 1.25v222.056c0 11.812-9.546 21.312-21.328 21.312-50.31 0-86.106-12.562-109.434-38.5-20.672-22.938-28.406-52.436-35.874-80.874-10.422-39.748-20.282-77.31-64.044-99.684-6.422-3.312-11.266-9.124-13.61-16.438-4.734-14.75-2.734-42.482 43.546-144.292 24.562-54.06 50.78-104.746 51.044-105.246a21.318 21.318 0 0 1 16.5-11.376l26.25-3.032c16.046-7.156 86.668-37.062 152.402-40 0.64-0.032 1.266-0.032 1.906 0 65.748 2.938 136.374 32.842 152.404 40l26.248 3.032a21.252 21.252 0 0 1 16.498 11.376c0.282 0.5 26.5 51.186 51.062 105.246 46.282 101.81 48.282 129.542 43.532 144.292-2.344 7.312-7.188 13.124-13.594 16.438-43.782 22.374-53.624 59.936-64.062 99.684-7.468 28.438-15.188 57.936-35.874 80.874-23.31 25.938-59.122 38.502-109.436 38.502z" fill="#5D9CEC" /><path d="M801.148 707.564l-191.996-127.996a21.512 21.512 0 0 0-11.844-3.562h-170.652c-4.218 0-8.328 1.25-11.844 3.562l-191.978 127.996c-5.938 4-9.5 10.624-9.5 17.748v127.998c0 11.81 9.546 21.374 21.328 21.374h554.642c11.782 0 21.342-9.562 21.342-21.374v-127.998c0-7.122-3.56-13.748-9.498-17.748z" fill="#F6BB42" /><path d="M511.982 256.032c-101.904 0-184.526 78.622-184.526 197.776 0 119.2 114.292 228.882 184.526 228.882s184.542-109.684 184.542-228.882c0.002-119.154-82.622-197.776-184.542-197.776z" fill="#FFCE54" /><path d="M511.982 746.688c-11.78 0-21.328-9.562-21.328-21.376v-85.308c0-11.812 9.546-21.312 21.328-21.312 11.784 0 21.33 9.5 21.33 21.312v85.308c0 11.812-9.546 21.376-21.33 21.376z" fill="#ED5564" /><path d="M405.33 810.688h-191.994c-11.78 0-21.328 9.5-21.328 21.31v63.998c0 11.75 9.546 21.312 21.328 21.312h191.994c11.782 0 21.328-9.562 21.328-21.312v-63.998c0-11.81-9.548-21.31-21.328-21.31zM810.646 810.688h-191.994c-11.782 0-21.344 9.5-21.344 21.31v63.998c0 11.75 9.562 21.312 21.344 21.312h191.994c11.782 0 21.312-9.562 21.312-21.312v-63.998a21.278 21.278 0 0 0-21.312-21.31z" fill="#FFCE54" /><path d="M277.334 874.684c-11.78 0-21.328-9.562-21.328-21.374v-21.312c0-11.81 9.546-21.31 21.328-21.31s21.328 9.5 21.328 21.31v21.312c0 11.812-9.548 21.374-21.328 21.374zM341.332 874.684c-11.78 0-21.342-9.562-21.342-21.374v-21.312c0-11.81 9.562-21.31 21.342-21.31 11.782 0 21.328 9.5 21.328 21.31v21.312c0 11.812-9.548 21.374-21.328 21.374zM682.65 874.684c-11.78 0-21.342-9.562-21.342-21.374v-21.312c0-11.81 9.562-21.31 21.342-21.31 11.782 0 21.344 9.5 21.344 21.31v21.312c0 11.812-9.562 21.374-21.344 21.374zM746.648 874.684c-11.782 0-21.344-9.562-21.344-21.374v-21.312c0-11.81 9.562-21.31 21.344-21.31s21.344 9.5 21.344 21.31v21.312c0 11.812-9.562 21.374-21.344 21.374z" fill="#F6BB42" /></svg>