<?xml version="1.0" standalone="no"?><!DOCTYPE svg PUBLIC "-//W3C//DTD SVG 1.1//EN" "http://www.w3.org/Graphics/SVG/1.1/DTD/svg11.dtd"><svg class="icon" width="128px" height="128.00px" viewBox="0 0 1024 1024" version="1.1" xmlns="http://www.w3.org/2000/svg"><path d="M512 85.36v853.28l511.982-213.3z" fill="#F5BA45" /><path d="M512 85.36L0.018 725.34 512 938.64z" fill="#FECD57" /><path d="M575.998 783.992c-8.344 0-16.282-4.938-19.688-13.126-4.532-10.876 0.626-23.376 11.498-27.906l276.43-115.184c10.876-4.532 23.344 0.626 27.876 11.5s-0.596 23.376-11.468 27.906l-276.428 115.184a21.78 21.78 0 0 1-8.22 1.626zM575.998 655.996c-8.344 0-16.282-4.938-19.688-13.126-4.532-10.876 0.626-23.376 11.498-27.906l199.62-83.184c10.876-4.532 23.376 0.626 27.908 11.5 4.53 10.876-0.626 23.376-11.5 27.906l-199.62 83.184a21.764 21.764 0 0 1-8.218 1.626zM575.998 528c-8.344 0-16.282-4.938-19.688-13.126-4.532-10.874 0.626-23.374 11.498-27.904l122.81-51.186c10.876-4.532 23.374 0.626 27.906 11.5 4.53 10.874-0.626 23.374-11.5 27.904l-122.808 51.154a21.204 21.204 0 0 1-8.218 1.658zM575.998 400.004c-8.344 0-16.282-4.938-19.688-13.124-4.532-10.876 0.594-23.376 11.468-27.906l46.06-19.188c10.876-4.53 23.376 0.626 27.906 11.5 4.53 10.876-0.626 23.376-11.5 27.906l-46.03 19.186a21.746 21.746 0 0 1-8.216 1.626z" opacity=".1" /><path d="M448.002 783.992c-2.75 0-5.532-0.532-8.218-1.626L163.356 667.184c-10.876-4.532-16-17.032-11.468-27.906s17-16.032 27.876-11.5l276.428 115.184c10.876 4.532 16.032 17.032 11.5 27.906-3.408 8.186-11.346 13.124-19.69 13.124zM448.002 655.996c-2.75 0-5.532-0.532-8.218-1.626l-199.618-83.184c-10.876-4.532-16.032-17.032-11.5-27.906s17.032-16.032 27.904-11.5l199.65 83.184c10.876 4.532 16 17.032 11.468 27.906-3.404 8.188-11.342 13.126-19.686 13.126zM448.002 528c-2.75 0-5.532-0.532-8.218-1.656l-122.808-51.154c-10.876-4.532-16.032-17.032-11.5-27.904 4.532-10.876 17.032-16.032 27.906-11.5l122.808 51.186c10.876 4.532 16.032 17.032 11.5 27.904-3.406 8.186-11.344 13.124-19.688 13.124zM448.002 400.004c-2.75 0-5.532-0.532-8.188-1.626l-46.06-19.186c-10.876-4.532-16.032-17.032-11.5-27.906s17.032-16.03 27.906-11.5l46.06 19.188c10.876 4.532 16 17.032 11.468 27.906-3.404 8.186-11.342 13.124-19.686 13.124z" opacity=".1" /></svg>