<?xml version="1.0" standalone="no"?><!DOCTYPE svg PUBLIC "-//W3C//DTD SVG 1.1//EN" "http://www.w3.org/Graphics/SVG/1.1/DTD/svg11.dtd"><svg class="icon" width="128px" height="128.00px" viewBox="0 0 1024 1024" version="1.1" xmlns="http://www.w3.org/2000/svg"><path d="M687.492 895.828s-30.686-39.998-33.374-66.874c-2.688-26.904-7.53-103.778-7.53-103.778l-107.092 51.998s7.094 80.436 24.438 112.434 32.656 91.556 32.656 91.556h150.054c0.002-47.996-59.152-85.336-59.152-85.336zM109.266 811.362L85.424 672.68a21.356 21.356 0 0 0-18.156-17.532 21.338 21.338 0 0 0-22.188 12.062L2.052 758.738a21.528 21.528 0 0 0-1.968 10.812c2.032 24.718 18.25 71.436 65.372 71.436 9.5 0 19.686-2.032 30.342-6.062a21.37 21.37 0 0 0 13.468-23.562z" fill="#CCD1D9" /><path d="M194.856 892.36c-17.78 0-27.656-0.532-28.062-0.562-6-0.344-11.56-3.218-15.342-7.876L45.58 753.27a21.412 21.412 0 0 1-4.75-13.842c0.312-17.032 3.842-167.682 28.25-214.632 0.75-1.436 1.532-2.936 2.282-4.404 11.468-22.25 27.124-52.686 68.59-82.84 46.03-33.5 115.526-60.904 212.492-83.81 43.686-10.312 84.498-15.562 121.276-15.562 94.778 0 143.872 34.5 165.432 56.31l141.492-88.716a21.208 21.208 0 0 1 11.344-3.282c14.406 0 91.34 20.25 130.4 62.936 35.906 39.25 95.214 123.932 97.746 127.496a21.472 21.472 0 0 1 3.844 12.25v29.466c0 4.344-1.344 8.594-3.812 12.204l-24 34.498a21.624 21.624 0 0 1-4.154 4.468c-2.376 1.906-56.28 44.532-129.838 48.406-9.312 12.84-30.748 44.996-64.592 110.12-40.842 78.59-121.152 88.714-222.834 101.528-36.688 4.624-78.278 9.876-122.496 18.874-118.182 24.028-211.99 27.622-257.396 27.622z" fill="#E6E9ED" /><path d="M860.362 176.748c-3.812-26.592-25.624-59.372-66.748-100.214-28.562-28.358-55.81-49.874-56.966-50.78a21.254 21.254 0 0 0-19.748-3.532 21.364 21.364 0 0 0-13.968 14.454c-1.562 5.532-38.344 135.978-31.094 195.976 7.188 59.404 55.718 156.65 57.782 160.744a21.256 21.256 0 0 0 12.404 10.718 22.1 22.1 0 0 0 6.656 1.062c3.344 0 6.688-0.812 9.718-2.344l83.374-42.686a21.266 21.266 0 0 0 11.404-16.156c0.622-4.592 14.904-113.026 7.186-167.242z" fill="#E6E9ED" /><path d="M895.984 426.488c0 11.78-9.562 21.342-21.342 21.342-11.782 0-21.312-9.562-21.312-21.342a21.3 21.3 0 0 1 21.312-21.312c11.78 0 21.342 9.532 21.342 21.312z" fill="#434A54" /><path d="M709.648 350.304l-30.03 18.842 50 24.25zM51.05 760.02l20.344 25.124 20.374-76.936zM284.322 586.028c-37.25 3.282-78.748 29.218-78.748 29.218l225.46 253.644 36.03-7.06s56.404-93.592 2.344-184.244c-44.654-74.934-116.808-97.558-185.086-91.558z" fill="#CCD1D9" /><path d="M639.902 930.356c-1.094-20.652-17.594-36.496-49.03-47.09-18.468-6.218-36.562-8.782-37.312-8.906-1-0.124-2-0.188-3-0.188l-123.088 0.25 1.876-2.906c25.748-39.936 28.404-57.936 28.78-67.996 2.5-66.498-9.812-107.498-52.184-155.714-22.562-25.652-62.936-41.372-126.588-41.372-34.374 0-62.342 4.124-63.528 4.312a21.11 21.11 0 0 0-10.25 4.5l-109.776 88.65a21.956 21.956 0 0 0-4.032 4.312c-28.906 41.06-34.342 91.53-15.718 145.996 13.468 39.404 35 67.246 35.906 68.402a21.338 21.338 0 0 0 18.842 8.124l60.278-5.748-0.938 56.152a21.542 21.542 0 0 0 6.124 15.312 21.46 21.46 0 0 0 15.218 6.376h385.11c5.656 0 11.062-2.25 15.062-6.218 3.094-3.094 30.092-31.062 28.248-66.248z" fill="#E6E9ED" /></svg>