<?xml version="1.0" standalone="no"?><!DOCTYPE svg PUBLIC "-//W3C//DTD SVG 1.1//EN" "http://www.w3.org/Graphics/SVG/1.1/DTD/svg11.dtd"><svg class="icon" width="128px" height="128.00px" viewBox="0 0 1024 1024" version="1.1" xmlns="http://www.w3.org/2000/svg"><path d="M1002.68 512c0 270.996-219.684 490.678-490.68 490.678C241.02 1002.68 21.336 782.996 21.336 512 21.336 241.036 241.02 21.352 512 21.352c270.996 0 490.68 219.684 490.68 490.648z" fill="#A0D468" /><path d="M512 1023.992c-69.108 0-136.17-13.532-199.294-40.218-60.968-25.782-115.732-62.718-162.732-109.714-47.014-47.032-83.936-101.782-109.716-162.75C13.556 648.188 0.008 581.124 0.008 512c0-69.094 13.546-136.154 40.25-199.278C66.04 251.754 102.96 197.006 149.974 149.976c47-47 101.764-83.904 162.732-109.716C375.83 13.572 442.892 0.008 512 0.008c69.124 0 136.184 13.562 199.308 40.25 60.938 25.812 115.718 62.718 162.746 109.716 47 47.03 83.906 101.78 109.688 162.748 26.688 63.124 40.25 130.184 40.25 199.278 0 69.124-13.562 136.186-40.25 199.308-25.782 60.968-62.688 115.718-109.688 162.75-47.028 46.996-101.808 83.934-162.746 109.714-63.124 26.688-130.184 40.22-199.308 40.22z m0-981.296c-125.358 0-243.214 48.812-331.87 137.466C91.492 268.786 42.68 386.66 42.68 512c0 125.374 48.812 243.246 137.452 331.87 88.654 88.652 206.512 137.464 331.87 137.464 125.372 0 243.214-48.812 331.872-137.464 88.622-88.624 137.434-206.496 137.434-331.87 0-125.342-48.812-243.214-137.434-331.838C755.214 91.508 637.372 42.696 512 42.696z" fill="#434A54" /><path d="M870.804 243.692l-30.496 30.532c49.996 68.716 76.996 151.184 76.996 237.778 0 108.28-42.124 210.058-118.684 286.62-76.562 76.562-178.372 118.714-286.622 118.714-108.264 0-210.058-42.152-286.604-118.714-76.56-76.564-118.716-178.34-118.716-286.622 0-108.248 42.156-210.028 118.716-286.59 76.546-76.56 178.34-118.716 286.604-118.716 101.124 0 196.59 36.78 271.122 104.03l-75.562 75.562c-54.282-47.188-122.934-72.936-195.558-72.936-79.78 0-154.778 31.062-211.184 87.468-56.406 56.436-87.484 131.434-87.484 211.184 0 79.78 31.078 154.776 87.484 211.214 56.406 56.406 131.404 87.468 211.184 87.468 79.782 0 154.778-31.062 211.184-87.468 56.406-56.438 87.5-131.434 87.5-211.214 0-57.968-16.438-113.436-47.094-161.06l-31.124 31.124c22.562 38.124 35.532 82.53 35.532 129.936 0 141.186-114.844 255.996-255.996 255.996-141.154 0-255.996-114.808-255.996-255.996 0-141.154 114.842-255.996 255.996-255.996 62.938 0 120.594 22.844 165.214 60.624l-91.09 91.092c-20.938-14.906-46.516-23.718-74.124-23.718-70.578 0-127.998 57.436-127.998 127.998 0 70.592 57.42 128 127.998 128 70.562 0 127.996-57.406 127.996-128 0-11.438-1.5-22.532-4.372-33.124l-38.5 38.5c-2.75 44.562-39.876 79.968-85.124 79.968-47.046 0-85.328-38.282-85.328-85.342 0-47.032 38.282-85.312 85.328-85.312a84.656 84.656 0 0 1 43.312 11.844l-58.39 58.406c-8.344 8.312-8.344 21.842 0 30.156 4.156 4.156 9.624 6.25 15.078 6.25s10.922-2.094 15.078-6.25l301.7-301.682a21.33 21.33 0 0 0 0-30.186C744.184 110.632 631.688 64.008 512 64.008c-119.67 0-232.168 46.624-316.776 131.216C110.6 279.848 64.008 392.346 64.008 512c0 119.686 46.592 232.182 131.216 316.808 84.608 84.59 197.106 131.184 316.776 131.184 119.688 0 232.184-46.594 316.778-131.184C913.4 744.184 959.992 631.686 959.992 512c0-98.03-31.312-191.278-89.188-268.308z" fill="#8CC153" /></svg>