<?xml version="1.0" standalone="no"?><!DOCTYPE svg PUBLIC "-//W3C//DTD SVG 1.1//EN" "http://www.w3.org/Graphics/SVG/1.1/DTD/svg11.dtd"><svg class="icon" width="128px" height="128.00px" viewBox="0 0 1024 1024" version="1.1" xmlns="http://www.w3.org/2000/svg"><path d="M512.024 478.89L256.55 921.368c75.19 43.376 162.424 68.188 255.472 68.218 93.034-0.032 180.286-24.844 255.472-68.218L512.024 478.89zM513.18 476.89H1024c-0.218-188.97-102.846-353.974-255.378-442.474L513.18 476.89zM510.868 476.89L255.394 34.416C102.876 122.916 0.25 287.918 0 476.89h510.868z" fill="#F6BB42" /><path d="M362.678 478.89c0-82.47 66.86-149.346 149.346-149.346 82.47 0 149.346 66.876 149.346 149.346s-66.876 149.348-149.346 149.348c-82.486 0-149.346-66.878-149.346-149.348z" fill="#FFCE54" /></svg>