<?xml version="1.0" standalone="no"?><!DOCTYPE svg PUBLIC "-//W3C//DTD SVG 1.1//EN" "http://www.w3.org/Graphics/SVG/1.1/DTD/svg11.dtd"><svg class="icon" width="128px" height="128.00px" viewBox="0 0 1024 1024" version="1.1" xmlns="http://www.w3.org/2000/svg"><path d="M573.25 42.448c-5.718-6.016-12.188-9.062-19.218-9.062h-0.562c-9.716 0.234-18.202 5.968-30.232 20.42-8.312 9.968-17.112 22.906-24.766 36.436-14.984 26.438-32.844 67.25-32.906 111.544-0.078 73.326 27.484 161.714 30.594 171.48-4.968 48.968-13.954 142.856-15.438 194.326l42.766 1.218c1.484-51.656 11.14-150.888 15.876-197.294 18.044-29.718 76.95-130.434 79.7-183.058 2.81-53.496-28.47-127.714-45.814-146.01z" fill="#8CC153" /><path d="M778.838 220.21c-4.53-4.39-10.498-6.624-17.686-6.624-22.062 0-114.186 29.186-157.31 93.638-38.124 56.982-62.012 138.792-67.386 158.34-11.954 11.516-25.158 28.124-38.046 52.078a1310.63 1310.63 0 0 0-40.032-77.342l-0.188-4.812c-0.312-7.922-7.844-194.7-40.468-268.948-14.874-33.842-39.858-73.342-68.56-108.356C302.194 0.87 283.522 0.23 277.396 0.01h-0.876c-5.64 0-16.296 1.938-24.454 14.906-12.688 20.204-15.968 62.842-14.796 96.014 1.734 49.342 13.016 97.952 31.766 136.856 36.062 74.842 105.358 153.434 136.686 186.98 19.388 32.656 49.624 87.248 76.654 151.732l39.454-16.532c-0.422-1.032-0.844-2.032-1.266-3.032l1.656 0.656c17.516-43.124 35.936-64.828 48.716-75.578 30.966-13.376 143.092-63.89 175.528-107.076 11.282-15.032 26.656-43.186 35.624-91.888 2.532-13.782 4.218-27.734 4.688-39.328 0.686-15.698-0.406-26.228-7.938-33.51z" fill="#A0D468" /><path d="M471.518 948.118v54.464c0 11.812 9.578 21.406 21.39 21.406 11.81 0 21.39-9.594 21.39-21.406v-54.464h-42.78z" fill="#CCD1D9" /><path d="M685.404 749.464c0 160.434-192.464 231.746-192.464 231.746s-192.434-71.312-192.434-231.746c0-108.312 86.154-196.09 192.434-196.09 106.308 0.002 192.464 87.778 192.464 196.09z" fill="#EC87C0" /><path d="M354.52 885.68c56.938 65.312 138.42 95.532 138.42 95.532s81.31-30.156 138.214-95.312c-26.25-14.812-75.03-36.188-138.246-36.188-62.874-0.002-111.78 21.124-138.388 35.968z" fill="#E6E9ED" /><path d="M492.94 553.376c-7.218 0-14.36 0.406-21.39 1.218 96.232 10.844 171.074 93.934 171.074 194.872 0 127.184-120.934 198.34-171.074 222.372 13.11 6.312 21.39 9.376 21.39 9.376s192.464-71.312 192.464-231.746c0-108.316-86.156-196.092-192.464-196.092z" fill="#FFFFFF" opacity=".2" /></svg>