<?xml version="1.0" standalone="no"?><!DOCTYPE svg PUBLIC "-//W3C//DTD SVG 1.1//EN" "http://www.w3.org/Graphics/SVG/1.1/DTD/svg11.dtd"><svg class="icon" width="128px" height="128.00px" viewBox="0 0 1024 1024" version="1.1" xmlns="http://www.w3.org/2000/svg"><path d="M1023.996 981.242c0 23.562-19.094 42.688-42.688 42.688H42.674c-23.578 0-42.67-19.124-42.67-42.688V341.246c0-23.578 19.092-42.67 42.67-42.67h938.634c23.594 0 42.688 19.092 42.688 42.67v639.996z" fill="#DA4453" /><path d="M360.046 1.92v0.016c-10.75-4.812-23.358 0.016-28.17 10.766-4.812 10.766 0.016 23.376 10.766 28.188 0.046 0.016 0.078 0.032 0.124 0.046l1.796 0.812 638.308 285.342v14.312h41.124v-42.67L360.046 1.92z" fill="#434A54" /><path d="M1023.996 938.588c0 23.562-19.094 42.654-42.688 42.654H42.674c-23.578 0-42.67-19.092-42.67-42.654V298.576c0-23.578 19.092-42.656 42.67-42.656h938.634c23.594 0 42.688 19.078 42.688 42.656v640.012z" fill="#ED5564" /><path d="M703.996 490.574c-11.746 0-21.34-9.578-21.34-21.344v-42.656c0-11.766 9.594-21.344 21.34-21.344h170.656c11.782 0 21.344 9.578 21.344 21.344v42.656c0 11.766-9.562 21.344-21.344 21.344h-170.656z" fill="#CCD1D9" /><path d="M810.684 469.23c0 11.782-9.562 21.344-21.376 21.344-11.75 0-21.312-9.562-21.312-21.344 0-11.766 9.562-21.312 21.312-21.312 11.814-0.002 21.376 9.546 21.376 21.312z" fill="#434A54" /><path d="M874.652 383.902h-170.656c-23.558 0-42.652 19.108-42.652 42.67v42.656c0 23.562 19.094 42.672 42.652 42.672h170.656c23.594 0 42.688-19.11 42.688-42.672v-42.656c0-23.562-19.094-42.67-42.688-42.67z m0 85.328h-170.656v-42.656h170.656v42.656z" fill="#E6E9ED" /><path d="M361.328 831.932c-116.89 0-211.982-95.124-211.982-212.03 0-116.892 95.092-212 211.982-212s211.984 95.11 211.984 212c0 116.906-95.094 212.03-211.984 212.03z" fill="#FFCE54" /><path d="M361.328 386.574c-128.858 0-233.326 104.468-233.326 233.328 0 128.876 104.468 233.342 233.326 233.342 128.86 0 233.36-104.466 233.36-233.342 0-128.86-104.5-233.328-233.36-233.328z m134.828 368.172c-36 36-83.89 55.842-134.828 55.842-50.92 0-98.812-19.842-134.812-55.842-36.016-36.032-55.858-83.906-55.858-134.844s19.842-98.812 55.858-134.83c36-36 83.89-55.828 134.812-55.828 50.938 0 98.828 19.828 134.828 55.828C532.172 521.09 552 568.964 552 619.902s-19.828 98.812-55.844 134.844z" fill="#F6BB42" /><path d="M363.032 554.59c-35.264 0-63.984 28.688-63.984 64 0 35.282 28.718 64 63.984 64 35.296 0 64.016-28.718 64.016-64-0.002-35.312-28.72-64-64.016-64z m0 85.344c-11.766 0-21.312-9.562-21.312-21.344s9.546-21.344 21.312-21.344c11.796 0 21.344 9.562 21.344 21.344s-9.548 21.344-21.344 21.344z" fill="#F6BB42" /><path d="M895.996 639.934h-213.34c-11.782 0-21.312 9.532-21.312 21.312s9.532 21.344 21.312 21.344h213.34c11.782 0 21.344-9.562 21.344-21.344s-9.562-21.312-21.344-21.312zM895.996 725.402h-213.34c-11.782 0-21.312 9.562-21.312 21.344s9.532 21.344 21.312 21.344h213.34c11.782 0 21.344-9.562 21.344-21.344s-9.562-21.344-21.344-21.344zM895.996 810.744h-213.34c-11.782 0-21.312 9.562-21.312 21.344s9.532 21.344 21.312 21.344h213.34c11.782 0 21.344-9.562 21.344-21.344s-9.562-21.344-21.344-21.344z" fill="#DA4453" /></svg>