<?xml version="1.0" standalone="no"?><!DOCTYPE svg PUBLIC "-//W3C//DTD SVG 1.1//EN" "http://www.w3.org/Graphics/SVG/1.1/DTD/svg11.dtd"><svg class="icon" width="128px" height="128.00px" viewBox="0 0 1024 1024" version="1.1" xmlns="http://www.w3.org/2000/svg"><path d="M959.991125 447.999125c0-247.421517-200.561608-447.999125-447.983125-447.999125-247.437517 0-447.999125 200.577608-447.999125 447.999125 0 155.187697 78.937846 291.93743 198.811612 372.311273-36.811928 16.811967-62.375878 53.937895-62.375878 96.99981 0 58.937885 47.749907 106.687792 106.687791 106.687792 58.875885 0 106.655792-47.749907 106.655792-106.687792 0-43.311915-25.84395-80.561843-62.905877-97.24981-46.937908-20.34396-89.123826-49.061904-125.499755-85.437833C188.132633 697.374638 158.94669 653.998723 138.508729 605.748817 117.382771 555.810914 106.696792 502.733018 106.696792 447.999125s10.687979-107.811789 31.811937-157.765692c20.43796-48.249906 49.623903-91.609821 86.875831-128.843748 37.249927-37.249927 80.623843-66.46787 128.875748-86.889831 49.937902-21.123959 102.999799-31.827938 157.749692-31.827937 54.733893 0 107.795789 10.703979 157.733692 31.827937 48.311906 20.42196 91.623821 49.639903 128.875748 86.889831 37.249927 37.233927 66.49987 80.593843 86.875831 128.843748 21.123959 49.953902 31.875938 103.031799 31.875937 157.765692s-10.749979 107.811789-31.875937 157.749692C865.11931 653.998723 835.871367 697.372638 798.61944 734.624565c-36.375929 36.375929-78.561847 65.123873-125.437755 85.467833-37.061928 16.717967-62.875877 53.967895-62.875877 97.21781 0 58.937885 47.811907 106.687792 106.687792 106.687792 58.937885 0 106.687792-47.749907 106.687791-106.687792 0-43.123916-25.62395-80.217843-62.437878-97.03181 119.873766-80.403843 198.747612-217.091576 198.747612-372.279273z m-588.85885 469.311083c0 35.311931-28.717944 63.999875-63.999875 63.999875-35.311931 0-63.999875-28.687944-63.999875-63.999875 0-35.249931 28.687944-63.999875 63.999875-63.999875 35.281931 0 63.999875 28.749944 63.999875 63.999875z m409.8592 0c0 35.311931-28.687944 63.999875-63.999875 63.999875-35.249931 0-63.999875-28.687944-63.999875-63.999875 0-35.249931 28.749944-63.999875 63.999875-63.999875 35.311931 0 63.999875 28.749944 63.999875 63.999875z" fill="#967ADC" /><path d="M823.429392 917.310208c0 58.937885-47.749907 106.687792-106.687792 106.687792-58.875885 0-106.623792-47.749907-106.623792-106.687792 0-58.875885 47.749907-106.623792 106.623792-106.623791 58.937885 0 106.687792 47.749907 106.687792 106.623791zM413.446192 917.310208c0 58.937885-47.749907 106.687792-106.687791 106.687792-58.875885 0-106.655792-47.749907-106.655792-106.687792 0-58.875885 47.781907-106.623792 106.655792-106.623791 58.937885 0 106.687792 47.749907 106.687791 106.623791z" fill="#AC92EC" /></svg>