<?xml version="1.0" standalone="no"?><!DOCTYPE svg PUBLIC "-//W3C//DTD SVG 1.1//EN" "http://www.w3.org/Graphics/SVG/1.1/DTD/svg11.dtd"><svg class="icon" width="128px" height="128.00px" viewBox="0 0 1024 1024" version="1.1" xmlns="http://www.w3.org/2000/svg"><path d="M703.994 21.36c-92.246 0-175.354 39.03-233.742 101.466-31.294-36.032-77.436-58.812-128.918-58.812-94.248 0-170.65 76.404-170.65 170.65 0 1.438 0.016 2.844 0.046 4.282C73.326 258.664 0.016 344.786 0.016 448.002c0 117.808 95.514 213.336 213.322 213.336h490.656c176.712 0 319.99-143.276 319.99-319.99 0-176.744-143.276-319.988-319.99-319.988z" fill="#CCD1D9" /><path d="M907.924 94.732c45.844 55.374 73.406 126.434 73.406 203.932 0 176.744-143.276 319.99-319.99 319.99H170.684c-48.032 0-92.358-15.874-128.012-42.654 38.92 51.81 100.886 85.34 170.666 85.34h490.656c176.712 0 319.99-143.276 319.99-319.99 0-99.248-45.154-187.9-116.06-246.618z" fill="#AAB2BC" /><path d="M170.668 1002.64c-3.218 0-6.468-0.718-9.532-2.25-10.532-5.25-14.812-18.094-9.546-28.626l127.996-255.99c5.282-10.532 18.094-14.812 28.626-9.532 10.546 5.282 14.81 18.092 9.546 28.624L189.762 990.86c-3.734 7.468-11.282 11.78-19.094 11.78z" fill="#5D9CEC" /><path d="M298.664 1002.64c-3.218 0-6.468-0.718-9.532-2.25-10.532-5.25-14.812-18.094-9.546-28.626l127.996-255.99c5.282-10.532 18.094-14.812 28.626-9.532 10.544 5.282 14.81 18.092 9.544 28.624L317.758 990.86c-3.734 7.468-11.282 11.78-19.094 11.78z" fill="#4A89DC" /><path d="M426.66 1002.64c-3.218 0-6.468-0.718-9.532-2.25-10.532-5.25-14.812-18.094-9.546-28.626l127.996-255.99c5.282-10.532 18.11-14.812 28.608-9.532 10.562 5.282 14.812 18.092 9.562 28.624L445.752 990.86c-3.734 7.468-11.28 11.78-19.092 11.78z" fill="#5D9CEC" /><path d="M554.656 1002.64c-3.218 0-6.468-0.718-9.532-2.25-10.532-5.25-14.812-18.094-9.546-28.626l128.012-255.99c5.25-10.532 18.06-14.812 28.624-9.532 10.532 5.282 14.812 18.092 9.532 28.624L573.748 990.86a21.352 21.352 0 0 1-19.092 11.78z" fill="#4A89DC" /></svg>