<?xml version="1.0" standalone="no"?><!DOCTYPE svg PUBLIC "-//W3C//DTD SVG 1.1//EN" "http://www.w3.org/Graphics/SVG/1.1/DTD/svg11.dtd"><svg class="icon" width="128px" height="128.00px" viewBox="0 0 1024 1024" version="1.1" xmlns="http://www.w3.org/2000/svg"><path d="M703.994 85.452c-92.246 0-175.37 39.032-233.742 101.466-31.31-36.03-77.436-58.81-128.934-58.81-94.248 0-170.65 76.404-170.65 170.65 0 1.438 0.032 2.844 0.062 4.282C73.326 322.788 0.016 408.88 0.016 512.096c0 117.808 95.498 213.336 213.306 213.336h490.672c176.712 0 319.99-143.276 319.99-319.99 0-176.744-143.276-319.99-319.99-319.99z" fill="#CCD1D9" /><path d="M907.924 158.824c45.812 55.376 73.376 126.436 73.376 203.932 0 176.746-143.244 319.99-319.99 319.99H170.668c-48.032 0-92.342-15.876-127.996-42.654 38.904 51.81 100.872 85.34 170.65 85.34h490.672c176.712 0 319.99-143.276 319.99-319.99 0-99.246-45.186-187.9-116.06-246.618z" fill="#AAB2BC" /><path d="M639.998 810.554c0 70.718-57.312 127.994-127.998 127.994s-127.996-57.276-127.996-127.994c0-70.686 103.684-255.804 128.058-255.804s127.936 185.12 127.936 255.804z" fill="#5D9CEC" /><path d="M810.648 874.554c0 35.34-28.656 63.994-64 63.994-35.342 0-63.998-28.654-63.998-63.994 0-35.344 51.716-106.468 63.904-106.468s64.094 71.124 64.094 106.468zM341.318 874.554c0 35.34-28.624 63.994-63.998 63.994-35.312 0-63.998-28.654-63.998-63.994 0-35.344 51.716-106.468 63.904-106.468s64.092 71.124 64.092 106.468z" fill="#4A89DC" /></svg>