<?xml version="1.0" standalone="no"?><!DOCTYPE svg PUBLIC "-//W3C//DTD SVG 1.1//EN" "http://www.w3.org/Graphics/SVG/1.1/DTD/svg11.dtd"><svg class="icon" width="128px" height="128.00px" viewBox="0 0 1024 1024" version="1.1" xmlns="http://www.w3.org/2000/svg"><path d="M239.274 764.996h106.952v88h-106.952zM559.564 554h149.31v128.688h-149.31z" fill="#DBADA2" /><path d="M730.436 682.688h-192.45c-11.782 0-21.328 9.528-21.328 21.308v319.996h235.12V703.996c0-11.782-9.562-21.308-21.342-21.308z" fill="#ED5564" /><path d="M870.308 308.05c-12.5-12.5-32.75-12.5-45.25 0l-148.184 158.388L783.402 512l88.968-151.998c9.376-17.294 10.438-39.466-2.062-51.952z" fill="#DBADA2" /><path d="M516.658 703.996v64h235.12v-64c0-11.782-9.56-21.308-21.342-21.308h-192.45c-11.78 0-21.328 9.526-21.328 21.308z" fill="#DA4453" /><path d="M346.584 853.308h-107.108c-11.782 0-21.344 9.562-21.344 21.376v149.308h149.794v-149.308c0.002-11.812-9.546-21.376-21.342-21.376z" fill="#5D9CEC" /><path d="M218.132 874.684v21.308h149.794v-21.308c0-11.812-9.546-21.376-21.344-21.376h-107.108c-11.778 0-21.342 9.564-21.342 21.376z" fill="#4A89DC" /><path d="M762.214 42.68c-17.686 0-31.998 14.328-31.998 32v202.652a10.674 10.674 0 0 1-10.654 10.672 10.68 10.68 0 0 1-10.688-10.672V32.008c0-17.672-14.312-32-32-32-17.656 0-32 14.328-32 32v245.324a10.652 10.652 0 0 1-10.654 10.672 10.672 10.672 0 0 1-10.656-10.672V74.68c0-17.672-14.344-32-32-32-17.688 0-32 14.328-32 32v202.652a10.68 10.68 0 0 1-10.688 10.672 10.664 10.664 0 0 1-10.656-10.672V160.006c0-17.672-14.328-32-32-32-17.686 0-32 14.328-32 32v298.666c0 88.358 71.624 160.014 159.998 160.014 88.372 0 159.994-71.656 159.994-160.014V74.68c0.002-17.672-14.31-32-31.998-32zM207.696 426.33c-11.782 0-21.328 9.562-21.328 21.344V597h42.67v-149.328c0.002-11.78-9.562-21.342-21.342-21.342zM261.04 383.674c-11.796 0-21.344 9.546-21.344 21.328V597h42.67v-191.998c0-11.78-9.546-21.328-21.326-21.328zM314.366 426.33c-11.782 0-21.328 9.562-21.328 21.344V597h42.656v-149.328c0-11.78-9.546-21.342-21.328-21.342z" fill="#EAC6BB" /><path d="M149.948 624.562c-8.328 8.344-6.25 17.75 0 30.188l43.42 91.34 71.016-37.25-84.264-84.278c-8.328-8.312-21.844-8.312-30.172 0z" fill="#DBADA2" /><path d="M367.694 469c-11.782 0-21.328 9.546-21.328 21.328v149.358h42.672v-149.358c0-11.78-9.564-21.328-21.344-21.328z" fill="#EAC6BB" /><path d="M389.038 708.996c0 55.968-45.376 101.312-101.342 101.312s-101.326-45.344-101.326-101.312c0-55.964 45.358-101.308 101.326-101.308s101.342 45.344 101.342 101.308z" fill="#EAC6BB" /><path d="M186.368 597h202.668v111.996H186.368z" fill="#EAC6BB" /></svg>