<?xml version="1.0" standalone="no"?><!DOCTYPE svg PUBLIC "-//W3C//DTD SVG 1.1//EN" "http://www.w3.org/Graphics/SVG/1.1/DTD/svg11.dtd"><svg class="icon" width="128px" height="128.00px" viewBox="0 0 1024 1024" version="1.1" xmlns="http://www.w3.org/2000/svg"><path d="M1007.238 144.462c5.624-10.342 1.812-23.296-8.562-28.936a21.146 21.146 0 0 0-12.094-2.5h-0.032-0.126c-5.312 0.516-89.058 10.188-143.622 110.436-5.656 10.36-1.812 23.312 8.5 28.936 10.376 5.64 23.312 1.812 28.938-8.532 43.498-79.874 106.714-87.966 110.246-88.358 0 0 0.032-0.016 0.062-0.016a21.3 21.3 0 0 0 16.69-11.03z m-16.844 11.048h0.062-0.062z" fill="#8CC153" /><path d="M811.804 548.156c-16.876 31.032-55.748 42.5-86.808 25.594-31.062-16.906-42.5-55.75-25.624-86.778 16.906-31.046 55.748-42.516 86.808-25.624 31.062 16.89 42.5 55.762 25.624 86.808z" fill="#C6325C" /><path d="M736.87 507.362c-16.904 31.06-55.78 42.482-86.81 25.622-31.062-16.906-42.532-55.762-25.624-86.81 16.876-31.044 55.75-42.514 86.812-25.624 31.028 16.908 42.496 55.766 25.622 86.812z" fill="#C6325C" /><path d="M821.742 262.116c-16.876 31.046-55.748 42.516-86.81 25.624-31.03-16.906-42.498-55.764-25.624-86.81 16.938-31.046 55.78-42.514 86.808-25.624 31.064 16.89 42.532 55.766 25.626 86.81zM971.676 343.694c-16.936 31.046-55.78 42.514-86.808 25.624-31.062-16.89-42.532-55.764-25.624-86.81 16.876-31.046 55.75-42.514 86.81-25.624 31.028 16.904 42.496 55.764 25.622 86.81z" fill="#D63A5F" /><path d="M896.71 302.898c-16.906 31.062-55.782 42.53-86.812 25.624-31.032-16.89-42.53-55.764-25.624-86.81 16.906-31.03 55.782-42.514 86.812-25.608 31.032 16.89 42.532 55.762 25.624 86.794z" fill="#C6325C" /><path d="M740.182 412.02c-16.904 31.044-55.748 42.514-86.81 25.608-31.062-16.89-42.5-55.75-25.624-86.796 16.876-31.044 55.75-42.514 86.812-25.624 31.06 16.892 42.496 55.766 25.622 86.812zM890.054 493.596c-16.876 31.044-55.75 42.512-86.782 25.622-31.03-16.904-42.53-55.762-25.624-86.808 16.904-31.046 55.78-42.514 86.81-25.624 31.034 16.906 42.534 55.764 25.596 86.81z" fill="#D63A5F" /><path d="M815.118 452.8c-16.876 31.046-55.748 42.516-86.808 25.624-31.032-16.89-42.5-55.764-25.624-86.81 16.906-31.046 55.78-42.514 86.808-25.61 31.06 16.892 42.53 55.75 25.624 86.796zM743.494 316.664c-16.904 31.046-55.748 42.514-86.81 25.624s-42.5-55.764-25.624-86.81c16.906-31.046 55.75-42.514 86.812-25.608 31.06 16.888 42.498 55.746 25.622 86.794zM968.332 439.05c-16.904 31.03-55.746 42.5-86.778 25.608-31.062-16.89-42.532-55.764-25.624-86.81 16.876-31.046 55.75-42.514 86.81-25.61 31.03 16.892 42.498 55.752 25.592 86.812z" fill="#C6325C" /><path d="M893.368 398.254c-16.876 31.046-55.75 42.514-86.782 25.608-31.03-16.89-42.53-55.75-25.624-86.794 16.906-31.046 55.782-42.514 86.812-25.624 31.03 16.89 42.53 55.764 25.594 86.81z" fill="#D63A5F" /><path d="M818.43 357.458c-16.876 31.046-55.748 42.516-86.808 25.624-31.032-16.906-42.5-55.764-25.624-86.81 16.938-31.046 55.78-42.514 86.808-25.624 31.062 16.906 42.53 55.766 25.624 86.81z" fill="#D63A5F" /><path d="M1020.988 297.678c5.624-10.344 1.812-23.296-8.562-28.938a21.204 21.204 0 0 0-9.376-2.562v-0.016l0.188 0.016c-15.468-0.86-62.998-12.436-132.152-50.076-69.156-37.656-104.686-71.264-113.81-83.794l0.094 0.156v0.016a20.974 20.974 0 0 0-7.25-6.5c-10.344-5.64-23.31-1.812-28.936 8.532-4 7.36-3.188 16.014 1.282 22.436l-0.032 0.016c0.876 1.218 8.968 12.436 28.936 29.828 25.782 22.484 59.186 44.954 99.31 66.78 96.748 52.64 148.622 55.156 150.778 55.234v-0.032c7.842 0.296 15.53-3.736 19.53-11.096z" fill="#A0D468" /><path d="M151.196 112.058c-6.312-9.954-19.484-12.922-29.438-6.61a21.032 21.032 0 0 0-8.078 9.344h-0.016c0 0.016-0.016 0.046-0.016 0.062l-0.046 0.094c-2.14 4.89-34.436 82.764 26.594 179.214 6.312 9.954 19.484 12.906 29.438 6.61s12.922-19.484 6.624-29.438C127.618 194.508 151.32 135.338 152.696 132.058c0-0.016 0.016-0.046 0.016-0.062l0.016-0.016-0.016 0.016a21.306 21.306 0 0 0-1.516-19.938z m1.452 20.078c0.016-0.016 0.016-0.032 0.032-0.046l-0.032 0.046z" fill="#8CC153" /><path d="M408.784 479.206c18.906 29.86 10.016 69.388-19.844 88.262-29.874 18.938-69.404 10.032-88.31-19.812-18.906-29.876-10.016-69.404 19.86-88.31 29.858-18.904 69.402-10.014 88.294 19.86z" fill="#C6325C" /><path d="M336.692 524.828c18.89 29.86 10 69.39-19.86 88.296-29.876 18.904-69.404 10.032-88.31-19.844-18.89-29.876-10.016-69.406 19.86-88.294 29.856-18.904 69.404-10.014 88.31 19.842z" fill="#C6325C" /><path d="M163.726 331.334c18.906 29.874 10.016 69.406-19.844 88.31-29.876 18.89-69.404 10-88.31-19.858-18.906-29.876-10.016-69.406 19.86-88.31 29.858-18.892 69.404-10.016 88.294 19.858zM307.942 240.07c18.906 29.858 10.016 69.406-19.86 88.294-29.858 18.906-69.404 10.016-88.294-19.842-18.904-29.876-10.016-69.406 19.844-88.31 29.874-18.906 69.404-10.016 88.31 19.858z" fill="#D63A5F" /><path d="M235.834 285.694c18.906 29.876 10.016 69.404-19.844 88.31-29.876 18.906-69.404 10.016-88.31-19.86-18.906-29.858-10.016-69.404 19.86-88.294 29.858-18.904 69.388-10.014 88.294 19.844z" fill="#C6325C" /><path d="M255.006 475.55c18.89 29.86 10 69.356-19.86 88.294-29.876 18.876-69.404 10-88.31-19.86-18.89-29.86-10.016-69.388 19.86-88.294 29.856-18.904 69.404-10.016 88.31 19.86zM399.206 384.27c18.906 29.876 10.016 69.404-19.86 88.31-29.858 18.906-69.388 10.016-88.294-19.86-18.904-29.858-10.016-69.388 19.86-88.294 29.858-18.904 69.386-10.014 88.294 19.844z" fill="#D63A5F" /><path d="M327.098 429.91c18.906 29.874 10.016 69.406-19.844 88.308-29.876 18.89-69.404 10.016-88.31-19.856-18.906-29.876-10.016-69.406 19.86-88.31 29.858-18.89 69.404-10 88.294 19.858zM173.304 426.254c18.904 29.874 10.03 69.406-19.844 88.308-29.876 18.89-69.404 10-88.31-19.856-18.89-29.876-10-69.406 19.86-88.31 29.872-18.892 69.404-10 88.294 19.858zM389.626 289.35c18.906 29.876 10.016 69.404-19.86 88.31-29.858 18.906-69.404 10.016-88.294-19.86-18.904-29.858-10.014-69.404 19.844-88.294 29.876-18.904 69.404-10.014 88.31 19.844z" fill="#C6325C" /><path d="M317.52 334.99c18.906 29.858 10.016 69.406-19.86 88.294-29.858 18.906-69.388 10.016-88.294-19.842-18.906-29.876-10.016-69.406 19.86-88.31 29.858-18.89 69.388-10.016 88.294 19.858z" fill="#D63A5F" /><path d="M245.412 380.614c18.906 29.876 10.016 69.404-19.844 88.31-29.876 18.906-69.404 10.016-88.31-19.86-18.89-29.858-10.016-69.388 19.86-88.294 29.856-18.904 69.404-10.016 88.294 19.844z" fill="#D63A5F" /><path d="M291.738 174.586c-6.296-9.952-19.466-12.92-29.436-6.624a21.3 21.3 0 0 0-6.812 6.968l-0.016-0.016 0.11-0.156c-8.282 13.094-41.5 48.984-108.044 91.092-66.544 42.11-113.202 56.782-128.576 58.656l0.188-0.016v0.016c-3.172 0.328-6.328 1.36-9.204 3.17-9.966 6.296-12.92 19.484-6.624 29.436 4.484 7.078 12.422 10.594 20.218 9.796v0.016c1.484-0.156 15.234-1.766 40.124-10.734 32.202-11.608 68.092-29.874 106.686-54.294 93.044-58.89 120.48-102.982 121.606-104.842h-0.032c4.078-6.718 4.296-15.404-0.188-22.468z" fill="#A0D468" /><path d="M350.738 773.59c-2.578 11.5 4.64 22.938 16.138 25.5 4.266 1 8.516 0.562 12.328-0.876 0.016 0 0.032-0.032 0.062-0.032 0.016-0.032 0.046-0.032 0.078-0.032 4.984-1.938 82.888-34.188 107.92-145.53 2.594-11.5-4.64-22.906-16.124-25.5-11.5-2.594-22.904 4.656-25.498 16.156-19.954 88.686-78.532 113.81-81.826 115.124-0.016 0-0.046 0.032-0.062 0.032h-0.016 0.016a21.348 21.348 0 0 0-13.016 15.158z m13.156-15.218v0.032h-0.046l0.046-0.032z" fill="#8CC153" /><path d="M428.19 331.866c7.766-34.484 41.998-56.156 76.482-48.39 34.484 7.75 56.138 41.984 48.388 76.466-7.748 34.484-41.982 56.156-76.466 48.406-34.482-7.75-56.154-42-48.404-76.482z" fill="#C6325C" /><path d="M511.454 350.584c7.75-34.482 41.982-56.154 76.482-48.404 34.498 7.766 56.154 42 48.374 76.482-7.75 34.484-41.966 56.156-76.436 48.406-34.514-7.752-56.17-42-48.42-76.484z" fill="#C6325C" /><path d="M496.922 609.688c7.75-34.468 42-56.156 76.482-48.406 34.466 7.75 56.154 42 48.404 76.498-7.75 34.468-41.998 56.124-76.496 48.376-34.468-7.752-56.14-42.002-48.39-76.468zM330.41 572.25c7.75-34.454 41.998-56.14 76.482-48.39 34.484 7.766 56.154 41.984 48.406 76.484-7.766 34.466-42 56.124-76.484 48.374-34.482-7.752-56.154-42-48.404-76.468z" fill="#D63A5F" /><path d="M413.674 590.968c7.75-34.5 41.984-56.14 76.466-48.36 34.484 7.734 56.172 41.954 48.406 76.422-7.75 34.498-42 56.186-76.484 48.436-34.482-7.75-56.154-42-48.388-76.498z" fill="#C6325C" /><path d="M534.36 443.206c7.75-34.498 42.014-56.154 76.48-48.404 34.468 7.75 56.156 42 48.406 76.482-7.75 34.484-42 56.154-76.498 48.388-34.466-7.748-56.138-41.982-48.388-76.466zM367.846 405.77c7.75-34.484 42-56.156 76.484-48.406 34.482 7.75 56.154 42 48.404 76.484s-41.998 56.156-76.482 48.39c-34.484-7.75-56.154-41.984-48.406-76.468z" fill="#D63A5F" /><path d="M451.112 424.488c7.748-34.484 41.982-56.156 76.466-48.406 34.482 7.75 56.17 42 48.42 76.482-7.75 34.484-42.014 56.156-76.498 48.39-34.484-7.748-56.154-41.982-48.388-76.466zM557.248 535.796c7.75-34.466 41.998-56.138 76.498-48.388s56.156 41.998 48.376 76.466c-7.75 34.468-41.968 56.156-76.438 48.406-34.498-7.748-56.186-41.998-48.436-76.484zM307.504 479.66c7.75-34.484 42-56.156 76.482-48.406 34.484 7.766 56.156 42 48.406 76.484-7.766 34.498-42 56.138-76.482 48.388-34.484-7.782-56.156-41.986-48.406-76.466z" fill="#C6325C" /><path d="M390.752 498.378c7.766-34.484 42-56.156 76.482-48.406 34.484 7.766 56.156 42 48.406 76.482-7.75 34.454-42 56.14-76.482 48.39-34.484-7.75-56.156-41.984-48.406-76.466z" fill="#D63A5F" /><path d="M474.016 517.094c7.75-34.482 41.984-56.154 76.482-48.404 34.5 7.75 56.124 42 48.374 76.466-7.748 34.5-41.966 56.156-76.45 48.406-34.5-7.75-56.172-42-48.406-76.468z" fill="#D63A5F" /><path d="M295.566 630.03c-2.594 11.5 4.64 22.876 16.124 25.5 3.328 0.718 6.64 0.624 9.75-0.124l-0.188 0.062c15.11-3.406 63.982-5.312 140.808 12 76.844 17.25 120.186 39.874 132.404 49.436l-0.156-0.124v-0.032a21.23 21.23 0 0 0 8.748 4.282c11.5 2.562 22.938-4.624 25.5-16.124 1.876-8.188-1.282-16.31-7.376-21.248h0.032c-1.156-0.938-12.032-9.532-35.966-20.782-30.968-14.562-69.264-27.032-113.81-37.032-107.45-24.186-158.028-12.374-160.122-11.874V614a21.252 21.252 0 0 0-15.748 16.03z" fill="#A0D468" /><path d="M1023.988 879.21c0 23.562-19.094 42.656-42.656 42.656H42.682c-23.562 0-42.67-19.094-42.67-42.656V409.896h1023.976v469.314z" fill="#FFCE54" /><path d="M0.012 495.222v42.668h63.998c0 11.766 9.562 21.328 21.344 21.328 11.78 0 21.326-9.562 21.326-21.328h42.672c0 11.766 9.546 21.328 21.328 21.328s21.326-9.562 21.326-21.328h42.672c0 11.766 9.546 21.328 21.328 21.328s21.342-9.562 21.342-21.328h42.656c0 11.766 9.562 21.328 21.344 21.328s21.328-9.562 21.328-21.328h42.67c0 11.766 9.546 21.328 21.328 21.328s21.328-9.562 21.328-21.328h42.67c0 11.766 9.546 21.328 21.328 21.328s21.328-9.562 21.328-21.328h42.67c0 11.766 9.562 21.328 21.342 21.328 11.782 0 21.344-9.562 21.344-21.328h42.656c0 11.766 9.532 21.328 21.344 21.328 11.75 0 21.312-9.562 21.312-21.328h42.686c0 11.766 9.532 21.328 21.312 21.328 11.78 0 21.342-9.562 21.342-21.328h42.656c0 11.766 9.562 21.328 21.344 21.328s21.344-9.562 21.344-21.328h42.654c0 11.766 9.532 21.328 21.344 21.328 11.75 0 21.312-9.562 21.312-21.328h63.248v-42.668H0.012z" fill="#F6BB42" /><path d="M981.332 409.896v469.316c0 23.562-19.094 42.656-42.654 42.656h42.654c23.562 0 42.656-19.094 42.656-42.656V409.896h-42.656z" fill="#FFFFFF" opacity=".2" /></svg>