<?xml version="1.0" standalone="no"?><!DOCTYPE svg PUBLIC "-//W3C//DTD SVG 1.1//EN" "http://www.w3.org/Graphics/SVG/1.1/DTD/svg11.dtd"><svg class="icon" width="128px" height="128.00px" viewBox="0 0 1024 1024" version="1.1" xmlns="http://www.w3.org/2000/svg"><path d="M920.364 792.742l-3.656-1.062c-52.904-14.188-70.808-27.876-94.372-36.81-83.594-31.874-105.31-54.81-110.874-65.654-0.218-0.376-0.376-0.812-0.562-1.188l-0.688-97.092L512 588.686l-198.214 2.25-0.688 97.092c-0.188 0.376-0.376 0.812-0.562 1.188-5.562 10.844-27.31 33.782-110.872 65.654-23.562 8.936-41.5 22.624-94.404 36.81l-3.656 1.062c-48.154 15.938-80.56 60.624-80.56 111.03v120.216h977.914v-120.216c0-50.404-32.408-95.092-80.594-111.03z" fill="#DBAFA5" /><path d="M212.852 1023.988h597.734V750.306c-73.906-29.498-93.874-50.78-99.124-61.092-0.218-0.376-0.376-0.812-0.562-1.188l-0.438-60.062-396.802-21.28-0.562 81.342c-0.188 0.376-0.376 0.812-0.562 1.188-5.312 10.344-25.31 31.688-99.684 61.28v273.494z" fill="#FFCE54" /><path d="M725.276 873.804v-168.808c-7.938-6.656-11.876-11.968-13.812-15.782-0.218-0.376-0.376-0.812-0.562-1.188l-0.688-97.092L512 588.686l-198.214 2.25-0.688 97.092c-0.188 0.376-0.376 0.812-0.562 1.188-1.938 3.812-5.938 9.156-13.876 15.844l-0.25 168.746s1.688 85.34 213.558 85.34c211.932-0.002 213.308-85.342 213.308-85.342z" fill="#DBAFA5" /><path d="M787.054 403.064c0 178.714-170.402 343.18-275.054 343.18-104.686 0-275.088-164.464-275.088-343.18S360.098 106.448 512 106.448s275.054 117.902 275.054 296.616z" fill="#EAC6BB" /><path d="M853.24 681.872a21.322 21.322 0 0 1-20.842-17l-77.812-372.146c-2.406-11.532 5-22.844 16.5-25.25 11.562-2.406 22.876 5 25.25 16.532l77.81 372.146c2.406 11.532-5 22.844-16.5 25.25a21.52 21.52 0 0 1-4.406 0.468zM789.274 681.872c-9.906 0-18.782-6.938-20.876-17l-71.342-341.242c-2.406-11.532 4.968-22.844 16.532-25.248 11.5-2.438 22.81 4.966 25.248 16.498l71.312 341.274c2.438 11.532-5 22.844-16.5 25.25-1.5 0.31-2.938 0.468-4.374 0.468zM725.276 681.872c-9.876 0-18.75-6.938-20.876-17l-71.31-341.274c-2.438-11.532 4.968-22.812 16.5-25.216 11.532-2.438 22.812 4.966 25.25 16.498l71.308 341.274c2.438 11.532-4.968 22.844-16.5 25.25a21.18 21.18 0 0 1-4.372 0.468zM170.726 681.872c-1.438 0-2.906-0.156-4.376-0.468-11.532-2.406-18.938-13.718-16.5-25.25l77.78-372.146c2.406-11.532 13.718-18.938 25.25-16.532s18.906 13.718 16.532 25.25L191.602 664.872c-2.126 10.062-11 17-20.876 17zM234.724 681.872c-1.438 0-2.906-0.156-4.376-0.468-11.532-2.406-18.936-13.718-16.498-25.25L285.16 314.88c2.406-11.532 13.716-18.936 25.248-16.498 11.532 2.404 18.938 13.716 16.5 25.248L255.6 664.872c-2.126 10.062-11 17-20.876 17zM298.722 681.872c-1.438 0-2.938-0.156-4.374-0.468-11.562-2.406-18.938-13.718-16.532-25.25l71.342-341.274c2.406-11.532 13.688-18.936 25.248-16.498 11.5 2.404 18.906 13.686 16.5 25.216l-71.31 341.274c-2.124 10.062-10.998 17-20.874 17z" fill="#434A54" /><path d="M733.71 53.542C674.152 19.012 595.402 0.012 511.968 0.012c-83.374 0-162.122 19-221.682 53.532-63.218 36.654-98.03 86.624-98.03 140.746 0 42.436 16.218 101.936 93.56 144.372l4.812 2.624 442.768-0.688 4.75-2.624c77.376-42.404 93.562-101.53 93.562-143.684 0.002-54.124-34.81-104.092-97.998-140.748z" fill="#EC5564" /><path d="M831.71 194.29c0-30.968-11.406-60.592-33.032-87.154H225.288C203.664 133.698 192.258 163.32 192.258 194.29c0 12.688 1.438 26.876 5.532 41.686h628.328c4.156-14.812 5.592-29.03 5.592-41.686z" fill="#FFCE54" /><path d="M197.79 235.974c9.624 34.75 33.78 72.904 88.03 102.686l4.812 2.624 442.768-0.688 4.75-2.624c54.124-29.656 78.312-67.53 87.968-101.998H197.79z" fill="#A0D468" /></svg>