<?xml version="1.0" standalone="no"?><!DOCTYPE svg PUBLIC "-//W3C//DTD SVG 1.1//EN" "http://www.w3.org/Graphics/SVG/1.1/DTD/svg11.dtd"><svg class="icon" width="128px" height="128.00px" viewBox="0 0 1024 1024" version="1.1" xmlns="http://www.w3.org/2000/svg"><path d="M199.458 469.314c-5.218 0-10.468-1.906-14.578-5.75-8.592-8.062-9.03-21.562-0.968-30.156L503.906 92.07c8.046-8.594 21.546-9.032 30.156-0.968 8.594 8.062 9.032 21.562 0.968 30.156L215.036 462.564a21.208 21.208 0 0 1-15.578 6.75z" fill="#FFD2A6" /><path d="M839.462 469.314a21.174 21.174 0 0 1-15.562-6.75L503.906 121.256c-8.062-8.592-7.624-22.092 0.968-30.156s22.094-7.624 30.156 0.968l319.994 341.336c8.062 8.594 7.624 22.094-0.968 30.156a21.34 21.34 0 0 1-14.594 5.754z" fill="#FFD2A6" /><path d="M882.12 426.658H156.804c-23.562 0-42.672 19.094-42.672 42.656S133.242 512 156.804 512H882.12c23.562 0 42.688-19.124 42.688-42.688s-19.126-42.654-42.688-42.654z" fill="#A85D5D" /><path d="M519.468 128.006c-35.296 0-64-28.718-64-63.998 0-35.312 28.704-64 64-64 35.282 0 64 28.688 64 64 0 35.282-28.718 63.998-64 63.998z m0-85.34c-11.766 0-21.344 9.562-21.344 21.344 0 11.75 9.578 21.312 21.344 21.312s21.328-9.562 21.328-21.312c0-11.782-9.562-21.344-21.328-21.344z" fill="#434A54" /><path d="M178.132 512h42.67v341.308H178.132zM796.806 512h42.656v319.996h-42.656z" fill="#FFD2A6" /><path d="M893.556 820.558c-20.156-20.156-46.938-31.25-75.438-31.25s-55.25 11.094-75.436 31.25c-20.124 20.156-31.216 46.938-31.216 75.434 0 28.468 11.092 55.25 31.216 75.406 20.186 20.156 46.936 31.25 75.436 31.25s55.282-11.094 75.438-31.25c20.124-20.156 31.25-46.938 31.25-75.406 0-28.496-11.124-55.278-31.25-75.434z" fill="#AC92EB" /><path d="M498.124 512h42.672v170.656h-42.672z" fill="#FFD2A6" /><path d="M711.466 1023.992a21.354 21.354 0 0 1-15.094-6.25c-8.312-8.344-8.312-21.844 0-30.188l213.34-213.34c8.344-8.312 21.844-8.312 30.156 0a21.336 21.336 0 0 1 0 30.188l-213.31 213.34a21.34 21.34 0 0 1-15.092 6.25z" fill="#E6E9ED" /><path d="M320.02 873.09a21.38 21.38 0 0 0-17.218-14.532l-58.186-8.438-26.016-52.718a21.35 21.35 0 0 0-19.124-11.906 21.356 21.356 0 0 0-19.14 11.906l-26.016 52.72-58.186 8.438a21.392 21.392 0 0 0-17.218 14.532 21.378 21.378 0 0 0 5.406 21.872l42.092 41.032-9.938 57.938c-1.376 8 1.922 16.094 8.484 20.876a21.312 21.312 0 0 0 22.468 1.624l52.044-27.376 52.032 27.376a21.144 21.144 0 0 0 9.938 2.438c4.42 0 8.812-1.376 12.53-4.062a21.336 21.336 0 0 0 8.484-20.876l-9.938-57.938 42.11-41.032a21.34 21.34 0 0 0 5.392-21.874z" fill="#FFCE54" /><path d="M463.392 718.746l-74.28-15.812-15.094 45.25 35.328 35.312zM554.376 809.746l15.812 74.282-45.25 15.09-35.312-35.31z" fill="#ED5564" /><path d="M570.812 792.372c57.312-60.406 84.436-102.468 85.436-132.402 0.5-15.906-6.188-26.032-11.874-31.75-5.688-5.688-15.844-12.376-31.75-11.876-29.938 1-72 28.156-132.39 85.464-41.562 39.438-75.436 77.968-76.858 79.594-7.406 8.438-7 21.188 0.954 29.156l57.718 57.718c7.938 7.938 20.688 8.344 29.14 0.938 1.626-1.406 40.172-35.28 79.624-76.842z" fill="#E6E9ED" /><path d="M624.688 729.214c20.716-28.468 30.966-51.09 31.56-69.246 0.5-15.906-6.188-26.032-11.874-31.75-5.688-5.688-15.844-12.376-31.75-11.876-18.124 0.594-40.75 10.844-69.234 31.562l81.298 81.31z" fill="#ED5564" /></svg>