<?xml version="1.0" standalone="no"?><!DOCTYPE svg PUBLIC "-//W3C//DTD SVG 1.1//EN" "http://www.w3.org/Graphics/SVG/1.1/DTD/svg11.dtd"><svg class="icon" width="128px" height="128.00px" viewBox="0 0 1024 1024" version="1.1" xmlns="http://www.w3.org/2000/svg"><path d="M494.122 666.69c64.594-80.188 114.376-146.248 148-196.342 20.216-30.094 34.186-53.75 42.716-72.342 5.782-12.562 19.282-41.936 1.282-59.936-18.032-18.032-47.404-4.5-59.966 1.25-18.594 8.532-42.25 22.5-72.344 42.718-50.094 33.624-116.156 83.404-196.34 147.998C215.72 644.158 73.754 769.374 49.16 793.966 21.38 821.78 4.192 857.124 0.786 893.498c-3.532 37.842 8.124 72.31 32.844 97.028 24.718 24.718 59.186 36.376 97.03 32.844 36.376-3.406 71.716-20.562 99.53-48.376 24.592-24.592 149.81-166.558 263.932-308.304zM112.786 911.058c-8.344-8.312-8.344-21.81 0-30.154 8.312-8.344 21.842-8.344 30.156 0 8.344 8.344 8.344 21.842 0 30.154-8.314 8.344-21.846 8.344-30.156 0z" fill="#F6BB42" /><path d="M201.25 825.154c-8.312-8.312-8.312-21.844 0-30.156l275.246-275.244a21.33 21.33 0 0 1 30.186 0c8.312 8.312 8.312 21.812 0 30.156L231.438 825.154a21.332 21.332 0 0 1-30.188 0z" fill="#DA4453" /><path d="M1023.832 320.006c0-85.468-33.282-165.84-93.716-226.278C869.678 33.292 789.302 0.012 703.838 0.012c-85.466 0-165.81 33.282-226.248 93.718s-93.748 140.81-93.748 226.278c0 85.466 33.312 165.81 93.748 226.248v0.032c60.436 60.436 140.78 93.716 226.248 93.716 85.464 0 165.84-33.282 226.278-93.748 60.434-60.44 93.716-140.782 93.716-226.25z" fill="#FFCE54" /><path d="M557.246 35.418c-29.032 15-55.906 34.562-79.656 58.312a322.56 322.56 0 0 0-45.438 57.062c32.218 40.624 94.406 112.592 209.53 227.748 119.182 119.184 192.12 181.622 231.932 212.838a323.46 323.46 0 0 0 56.5-45.124c23.842-23.812 43.436-50.782 58.436-79.906-41.03-32.75-112.436-94.748-225.374-207.684-110.994-110.998-172.774-181.872-205.93-223.246z" fill="#ED5564" /><path d="M732.93 349.1c-16.654 16.656-43.654 16.656-60.31 0-16.688-16.656-16.688-43.688 0-60.344 16.656-16.656 43.656-16.656 60.31 0 16.688 16.658 16.688 43.688 0 60.344zM615.684 224.29c-16.656 16.656-43.688 16.656-60.344 0s-16.656-43.656 0-60.342c16.656-16.656 43.688-16.656 60.344 0 16.656 16.686 16.656 43.686 0 60.342zM857.022 465.66c-16.656 16.656-43.656 16.656-60.312 0-16.688-16.656-16.688-43.688 0-60.342 16.656-16.656 43.656-16.656 60.312 0 16.686 16.654 16.656 43.686 0 60.342z" fill="#DA4453" /><path d="M839.928 30.23c0.062 0.124 14.124 49.124 58.282 93.28 44.156 44.156 95.28 60.342 95.404 60.406-15.532-33.092-36.876-63.562-63.498-90.186-26.626-26.594-57.094-47.938-90.188-63.5z" fill="#ED5564" /><path d="M1023.832 320.006c0-85.468-33.282-165.84-93.716-226.278a324.76 324.76 0 0 0-15.594-14.562c51.186 58.342 79.154 132.342 79.154 210.652 0 85.5-33.312 165.84-93.748 226.278-60.438 60.436-140.782 93.716-226.246 93.716-78.31 0-152.342-27.968-210.684-79.124 4.688 5.312 9.532 10.532 14.594 15.562v0.032c60.436 60.436 140.78 93.716 226.248 93.716 85.464 0 165.84-33.282 226.278-93.748 60.432-60.434 93.714-140.776 93.714-226.244z" fill="#FFFFFF" opacity=".2" /></svg>