<?xml version="1.0" standalone="no"?><!DOCTYPE svg PUBLIC "-//W3C//DTD SVG 1.1//EN" "http://www.w3.org/Graphics/SVG/1.1/DTD/svg11.dtd"><svg class="icon" width="128px" height="128.00px" viewBox="0 0 1024 1024" version="1.1" xmlns="http://www.w3.org/2000/svg"><path d="M920.428 772.734l-3.624-1.062c-52.938-14.186-70.874-27.874-94.436-36.81-83.592-31.874-105.31-54.81-110.904-65.654-0.188-0.406-0.344-0.812-0.532-1.218l-0.688-97.092L512 568.646l-198.246 2.25-0.688 97.092c-0.188 0.406-0.344 0.812-0.532 1.218-5.594 10.844-27.342 33.782-110.902 65.654-23.562 8.938-41.5 22.624-94.436 36.81l-3.624 1.062c-48.188 15.938-80.592 60.624-80.592 111.062v140.184h978.04v-140.184c0-50.434-32.404-95.122-80.592-111.06z" fill="#E6E9ED" /><path d="M448.002 569.366V1023.98h127.996V569.366l-63.998-0.72zM256.006 1023.98h106.654V570.334l-48.906 0.562-0.688 97.092c-0.188 0.406-0.344 0.812-0.532 1.218-4.094 7.938-16.904 22.438-56.53 42.188V1023.98zM639.998 1023.98h106.652V699.8c-23.218-13.876-31.938-24.282-35.188-30.594-0.188-0.406-0.344-0.812-0.532-1.218l-0.688-97.092-70.246-0.812V1023.98zM853.336 1023.98h147.684v-140.184c0-50.438-32.404-95.124-80.592-111.062l-3.624-1.062c-29.876-8.03-48.594-15.874-63.466-22.78V1023.98z" fill="#434A54" /><path d="M313.566 594.958l-1.03 74.25 102.06 120.12L512 726.236zM710.432 594.958L512 726.236l97.404 63.092 101.528-121.34z" fill="#656D78" /><path d="M527.092 816.922c8.312 8.312 8.312 21.812 0 30.156a21.33 21.33 0 0 1-30.186 0c-8.312-8.344-8.312-21.844 0-30.156a21.33 21.33 0 0 1 30.186 0zM527.092 902.232c8.312 8.344 8.312 21.844 0 30.188-8.344 8.31-21.842 8.31-30.186 0-8.312-8.344-8.312-21.844 0-30.188 8.344-8.31 21.842-8.31 30.186 0z" fill="#FFCE54" /><path d="M149.352 758.048c-11.25 4.376-24.81 8.968-42.154 13.624l-3.624 1.062c-48.188 15.938-80.592 60.624-80.592 111.062v140.184h126.372V758.048z" fill="#434A54" /><path d="M787.088 382.994c0 178.746-170.372 343.242-275.088 343.242S236.912 561.74 236.912 382.994 360.066 86.314 512 86.314s275.088 117.934 275.088 296.68z" fill="#EAC6BB" /><path d="M653.996 101.75s-5.344-47.53 51.624-81.78c24.124-14.468-361.49-83.216-458.27 160.464-36.374 91.53-9.5 226.246-9.5 226.246l83.81-150.246s91.342 21.312 190.34 21.312 193.65-21.312 193.65-21.312l81.438 126.964s31.31-121.902-3.75-202.714c-35.062-80.776-129.342-78.934-129.342-78.934z" fill="#965353" /></svg>