<?xml version="1.0" standalone="no"?><!DOCTYPE svg PUBLIC "-//W3C//DTD SVG 1.1//EN" "http://www.w3.org/Graphics/SVG/1.1/DTD/svg11.dtd"><svg class="icon" width="128px" height="128.00px" viewBox="0 0 1024 1024" version="1.1" xmlns="http://www.w3.org/2000/svg"><path d="M810.646 727.148c0 11.75-9.594 21.344-21.312 21.344H234.664c-11.718 0-21.312-9.594-21.312-21.344v-121.34c0-11.716 9.594-21.31 21.312-21.31h554.67c11.718 0 21.312 9.594 21.312 21.31v121.34z" fill="#8CC153" /><path d="M1002.642 490.656c-11.782 0-21.312 9.562-21.312 21.344 0 63.374-12.406 124.84-36.876 182.682-23.624 55.874-57.466 106.06-100.59 149.184-43.124 43.124-93.31 76.966-149.184 100.592-57.842 24.466-119.308 36.874-182.682 36.874s-124.84-12.406-182.682-36.874c-55.876-23.624-106.06-57.468-149.184-100.592-43.124-43.124-76.966-93.31-100.592-149.184C55.076 636.84 42.67 575.374 42.67 512s12.406-124.84 36.874-182.682c23.624-55.874 57.466-106.06 100.592-149.184 43.124-43.124 93.308-76.966 149.184-100.592 57.84-24.466 119.306-36.872 182.68-36.872s124.84 12.406 182.682 36.874c51.716 21.876 98.528 52.5 139.402 91.124h-78.248c-11.782 0-21.342 9.562-21.342 21.344s9.56 21.342 21.342 21.342h127.996c11.782 0 21.312-9.56 21.312-21.342V64.014c0-11.782-9.532-21.344-21.312-21.344-11.78 0-21.342 9.562-21.342 21.344v74.78C770.898 52.732 647.62 0.016 512 0.016 229.226 0.016 0.016 229.226 0.016 512S229.226 1023.984 512 1023.984c282.772 0 511.984-229.21 511.984-511.984 0-11.782-9.562-21.344-21.342-21.344z" fill="#434A54" /><path d="M234.664 298.662c-11.718 0-21.312 9.624-21.312 21.344v298.646c0 11.75 9.594 21.344 21.312 21.344h554.67c11.718 0 21.312-9.594 21.312-21.344v-127.996-170.65c0-11.718-9.594-21.344-21.312-21.344H234.664z" fill="#A0D468" /><path d="M596.936 468.002c0 47.124-38.188 85.34-85.31 85.34s-85.342-38.216-85.342-85.34 38.218-85.342 85.342-85.342 85.31 38.216 85.31 85.342z" fill="#8CC153" /><path d="M213.352 672.902v21.342c0 11.782 9.532 21.344 21.312 21.344h554.67c11.782 0 21.312-9.562 21.312-21.344v-21.342H213.352z" fill="#A0D468" /></svg>