<?xml version="1.0" standalone="no"?><!DOCTYPE svg PUBLIC "-//W3C//DTD SVG 1.1//EN" "http://www.w3.org/Graphics/SVG/1.1/DTD/svg11.dtd"><svg class="icon" width="128px" height="128.00px" viewBox="0 0 1024 1024" version="1.1" xmlns="http://www.w3.org/2000/svg"><path d="M514.9 1002.652c-72.126 0-126.282-21.876-160.908-65.03-26.062-32.5-31.25-65.844-31.28-66.188-1.468-10.562-2.688-28.688-2.688-39.438V106.658c0-6.5 4.438-17.968 8.782-22.782 0.062-0.062 14.876-15.782 44.718-31.282 27.5-14.248 73.844-31.28 138.5-31.28 35.67 0 88.67 5.438 138.484 31.28 29.812 15.5 44.624 31.218 44.75 31.376 4.31 4.718 8.748 16.188 8.748 22.688v725.34c0 10.938-0.938 29.438-2.062 40.344-0.062 0.218-4.062 33.406-28.936 65.688-32.938 42.872-86.188 64.622-158.108 64.622z" fill="#656D78" /><path d="M711.006 69.534S647.758 0.004 512.024 0.004c-135.782 0-199 69.53-199 69.53-7.876 8.688-14.344 25.376-14.344 37.124v725.34c0 11.718 1.312 30.812 2.906 42.438 0 0 20.594 149.56 213.312 149.56 192.73 0 208.23-149.466 208.23-149.466 1.188-11.656 2.188-30.812 2.188-42.532V106.658c0.002-11.75-6.436-28.438-14.31-37.124z m-28.31 762.464c0 10.062-0.938 27.624-1.938 37.782-0.312 1.968-4.562 29.968-25.75 56.688-28.876 36.406-76 54.842-140.108 54.842-64.5 0-112.626-18.716-143.094-55.592-22.376-27.124-27.656-55.438-28-57.406-1.312-9.782-2.468-26.624-2.468-36.312V107.034c0.282-2.282 2.062-6.906 3.406-8.906 2.594-2.562 16.03-15.156 40.5-27.562 36.532-18.532 79.188-27.904 126.782-27.904 47.546 0 90.234 9.374 126.734 27.904 24.5 12.406 37.938 25 40.5 27.562 1.376 2 3.124 6.624 3.438 8.906v724.964z" fill="#434A54" /><path d="M446.93 874.654c0 11.782-9.532 21.344-21.344 21.344-11.75 0-21.312-9.562-21.312-21.344s9.562-21.344 21.312-21.344c11.814 0 21.344 9.564 21.344 21.344z" fill="#ED5564" /><path d="M532.274 874.654c0 11.782-9.56 21.344-21.342 21.344-11.782 0-21.344-9.562-21.344-21.344s9.562-21.344 21.344-21.344c11.78 0 21.342 9.564 21.342 21.344z" fill="#FFCE54" /><path d="M617.57 874.654c0 11.782-9.5 21.344-21.312 21.344-11.75 0-21.312-9.562-21.312-21.344s9.562-21.344 21.312-21.344c11.812 0 21.312 9.564 21.312 21.344z" fill="#A0D468" /><path d="M426.68 298.658h-42.656a21.314 21.314 0 0 0-21.344 21.344c0 11.75 9.532 21.312 21.344 21.312h42.656c11.782 0 21.344-9.562 21.344-21.312 0-11.812-9.562-21.344-21.344-21.344zM533.336 298.658H490.68c-11.782 0-21.344 9.532-21.344 21.344 0 11.75 9.562 21.312 21.344 21.312h42.656c11.796 0 21.36-9.562 21.36-21.312 0-11.812-9.564-21.344-21.36-21.344zM597.32 341.314h42.688c11.75 0 21.312-9.562 21.312-21.312 0-11.812-9.562-21.344-21.312-21.344H597.32c-11.75 0-21.312 9.532-21.312 21.344 0 11.75 9.562 21.312 21.312 21.312zM426.68 384.002h-42.656c-11.812 0-21.344 9.532-21.344 21.31 0 11.782 9.532 21.344 21.344 21.344h42.656c11.782 0 21.344-9.562 21.344-21.344 0-11.778-9.562-21.31-21.344-21.31zM533.336 384.002H490.68c-11.782 0-21.344 9.532-21.344 21.31 0 11.782 9.562 21.344 21.344 21.344h42.656c11.796 0 21.36-9.562 21.36-21.344 0-11.778-9.564-21.31-21.36-21.31zM640.008 384.002H597.32c-11.75 0-21.312 9.532-21.312 21.31 0 11.782 9.562 21.344 21.312 21.344h42.688c11.75 0 21.312-9.562 21.312-21.344 0-11.778-9.562-21.31-21.312-21.31zM426.68 469.312h-42.656c-11.812 0-21.344 9.562-21.344 21.344S372.212 512 384.024 512h42.656c11.782 0 21.344-9.562 21.344-21.344s-9.562-21.344-21.344-21.344zM533.336 469.312H490.68c-11.782 0-21.344 9.562-21.344 21.344S478.9 512 490.68 512h42.656c11.796 0 21.36-9.562 21.36-21.344s-9.564-21.344-21.36-21.344zM640.008 469.312H597.32c-11.75 0-21.312 9.562-21.312 21.344S585.57 512 597.32 512h42.688c11.75 0 21.312-9.562 21.312-21.344s-9.562-21.344-21.312-21.344z" fill="#E6E9ED" /><path d="M597.32 213.314c-23.5 0-42.624-19.124-42.624-42.656s19.124-42.656 42.624-42.656c23.562 0 42.688 19.124 42.688 42.656s-19.126 42.656-42.688 42.656z" fill="#ED5564" /><path d="M597.32 106.658c-35.312 0-63.984 28.656-63.984 64s28.672 64 63.984 64c35.376 0 64-28.656 64-64s-28.624-64-64-64z m0 85.344c-11.75 0-21.312-9.594-21.312-21.344 0-11.782 9.562-21.344 21.312-21.344 11.812 0 21.376 9.562 21.376 21.344 0 11.75-9.564 21.344-21.376 21.344z" fill="#DA4453" /><path d="M453.368 657c4.656-10.594 0-22.938-10.406-27.876a7.384 7.384 0 0 1-0.562-0.25c-10.75-4.718-23.312 0.156-28.094 10.906-12.032 27.406-11.656 57.282-1.124 83.156a21.232 21.232 0 0 0 10.594 11.188 21.32 21.32 0 0 0 17.188 0.5c10.906-4.438 16.156-16.876 11.718-27.812-6.564-16.188-6.346-33.874 0.686-49.812zM472.994 622.032a21.31 21.31 0 0 0 16.594 0.718c16.344-6.094 34.03-5.344 49.812 2.124 10.61 5.032 23.36 0.5 28.422-10.124 5-10.656 0.5-23.376-10.188-28.438 0 0 0-0.032-0.062-0.032 0-0.032-0.062-0.032-0.062-0.032l-0.062-0.032c0-0.032-0.062-0.032-0.062-0.032l-0.062-0.032-0.062-0.032c-0.062 0-0.062-0.032-0.062-0.032l-0.062-0.032c-0.062 0-0.062 0-0.062-0.032h-0.062V586h-0.062v-0.032c-0.062 0-0.062 0-0.062-0.032h-0.062v-0.032h-0.062c0-0.032 0-0.032-0.062-0.032 0-0.032-0.062-0.032-0.062-0.032v-0.032h-0.062l-0.062-0.032v-0.032h-0.062l-0.062-0.032-0.062-0.032-0.062-0.032s-0.062 0-0.062-0.032c0 0-0.062 0-0.062-0.032h-0.062v-0.032h-0.062v-0.032s-0.062 0-0.062-0.032h-0.062l-0.062-0.032-0.062-0.032-0.062-0.032s-0.062 0-0.062-0.032c0 0-0.062 0-0.062-0.032l-0.062-0.032h-0.062v-0.032s-0.062 0-0.062-0.032h-0.062v-0.032h-0.062l-0.062-0.032c-0.062 0-0.062-0.032-0.062-0.032h-0.062v-0.032h-0.062v-0.032c-0.062 0-0.062 0-0.062-0.032h-0.062v-0.032h-0.062c0-0.032 0-0.032-0.062-0.032l-0.062-0.032-0.062-0.032s-0.062 0-0.062-0.032c-0.062 0-0.062-0.032-0.062-0.032h-0.062v-0.032h-0.062c0-0.032 0-0.032-0.062-0.032 0-0.032-0.062-0.032-0.062-0.032l-0.062-0.032-0.062-0.032c-0.062 0-0.062-0.032-0.062-0.032h-0.062v-0.032h-0.062v-0.032h-0.062c0-0.032-0.062-0.032-0.062-0.032l-0.062-0.032h-0.062c0-0.032-0.062-0.062-0.124-0.062v-0.032c-0.062-0.032-0.188-0.062-0.25-0.094 0 0-0.062 0-0.062-0.032 0 0-0.062 0-0.062-0.032h-0.062v-0.032s-0.062 0-0.062-0.032h-0.062l-0.062-0.032-0.062-0.032s-0.062 0-0.062-0.032c0 0-0.062 0-0.062-0.032h-0.062v-0.032h-0.062s0-0.032-0.062-0.032l-0.062-0.032c-0.062 0-0.062-0.032-0.062-0.032h-0.062v-0.032h-0.062c0-0.032-0.062-0.032-0.062-0.032-0.062 0-0.062-0.032-0.062-0.032h-0.062v-0.032h-0.062c0-0.032 0-0.032-0.062-0.032 0-0.032-0.062-0.032-0.062-0.032l-0.062-0.032-0.062-0.032c-0.062 0-0.062 0-0.062-0.032h-0.062v-0.032h-0.062v-0.032h-0.062l-0.062-0.032c-0.062 0-0.062 0-0.062-0.032h-0.062v-0.032h-0.062v-0.032h-0.062l-0.062-0.032s-0.062 0-0.062-0.032h-0.062v-0.032h-0.062l-0.062-0.032-0.062-0.032-0.062-0.032h-0.062v-0.032h-0.062l-0.062-0.032h-0.062v-0.032h-0.062v-0.032h-0.062l-0.062-0.032s-0.062 0-0.062-0.032l-0.062-0.032h-0.062v-0.032h-0.062s-0.062 0-0.062-0.032h-0.062c0-0.032 0-0.032-0.062-0.032v-0.032h-0.062l-0.062-0.032h-0.062c0-0.032 0-0.032-0.062-0.032 0-0.032-0.062-0.032-0.062-0.032 0-0.032-0.062-0.032-0.062-0.032-0.062 0-0.062-0.032-0.062-0.032h-0.062c-0.188-0.094-0.376-0.156-0.624-0.25l-0.062-0.032h-0.062l-0.062-0.032-0.062-0.032h-0.062v-0.032h-0.062c0-0.032-0.062-0.032-0.062-0.032l-0.062-0.032h-0.062v-0.032h-0.062l-0.062-0.032-0.062-0.032s-0.062 0-0.062-0.032h-0.062l-0.062-0.032h-0.062v-0.032h-0.062l-0.062-0.032s-0.062 0-0.062-0.032c0 0-0.062 0-0.062-0.032h-0.062l-0.062-0.032h-0.062v-0.032h-0.062l-0.062-0.032c-0.062 0-0.062 0-0.062-0.032h-0.062v-0.032h-0.062l-0.062-0.032h-0.062v-0.032h-0.062l-0.062-0.032h-0.062c0-0.032-0.062-0.032-0.062-0.032l-0.062-0.032c-0.062 0-0.062-0.032-0.062-0.032h-0.062s0-0.032-0.062-0.032c0 0-0.062 0-0.062-0.032-0.062 0-0.062 0-0.062-0.032h-0.062-0.062v-0.032h-0.062v-0.032h-0.062c-0.062 0-0.062-0.032-0.062-0.032h-0.062v-0.032h-0.062s-0.062 0-0.062-0.032c0 0-0.062 0-0.062-0.032h-0.124v-0.032h-0.062c0-0.032-0.062-0.032-0.062-0.032-0.438-0.156-0.876-0.282-1.312-0.438 0 0-0.062 0-0.124-0.032-0.062 0-0.062-0.032-0.062-0.032h-0.016c-0.032 0-0.062 0-0.094-0.032 0 0-0.062 0-0.062-0.032h-0.094c-0.032-0.032-0.062-0.032-0.062-0.032h-0.032s-0.032-0.032-0.062-0.032c0 0-0.062 0-0.094-0.032h-0.032l-0.032-0.032h-0.094l-0.032-0.032h-0.062s-0.032-0.032-0.062-0.032c0 0-0.032 0-0.062-0.032h-0.094v-0.032h-0.094s-0.032-0.032-0.062-0.032l-0.094-0.032c-0.032 0-0.062 0-0.062-0.032h-0.032-0.062c-0.032-0.032-0.062-0.032-0.062-0.032h-0.032l-0.062-0.032c-0.032 0-0.062 0-0.062-0.032h-0.032-0.062v-0.032h-0.094l-0.032-0.032h-0.032c-0.032 0-0.062 0-0.094-0.032 0 0-0.062 0-0.062-0.032h-0.032-0.062c-0.032-0.032-0.062-0.032-0.062-0.032h-0.032c-0.032 0-0.032-0.032-0.032-0.032h-0.126a72.374 72.374 0 0 0-2.406-0.688c-0.094-0.032-0.218-0.062-0.312-0.094h-0.094c-0.032-0.032-0.062-0.032-0.062-0.032s-0.062 0-0.094-0.032h-0.094c0-0.032-0.032-0.032-0.062-0.032 0 0-0.062 0-0.094-0.032h-0.064c-0.032-0.032-0.062-0.032-0.094-0.032-0.062 0-0.094-0.032-0.156-0.032-0.032-0.032-0.062-0.032-0.094-0.032 0 0-0.032 0-0.062-0.032a106.488 106.488 0 0 0-63.312 3.562c-11.032 4.124-16.624 16.406-12.5 27.438 1.912 5.53 5.912 9.656 10.756 11.938zM618.632 686.156v-0.094V686v-0.094-0.062-0.032-0.062-0.094-0.062-0.064-0.032-0.062-0.032-0.062-0.064-0.032-0.062-0.064-0.032-0.088-0.062-0.096-0.126-0.032-0.094-0.062-0.064-0.032-0.094-0.032-0.032-0.094-0.062V683.646v-0.094-0.062-0.064-0.032-0.094-0.062-0.096-0.126-0.032-0.094-0.062-0.064-0.032-0.062-0.064-0.062-0.064-0.062-0.064-0.032-0.094-0.032-0.126V681.968v-0.126-0.032-0.094-0.062-0.064-0.032-0.126-0.062-0.064-0.062-0.032-0.062-0.062-0.032-0.094-0.062-0.344-0.062-0.032-0.094-0.062-0.062-0.032-0.094-0.062-0.088-0.062-0.032-0.062-0.094-0.032-0.094-0.032-0.126-0.062l-0.062-0.032v-0.032-0.062-0.064-0.032-0.094-0.062-0.064-0.032-0.094-0.062-0.096-0.062-0.032-0.062-0.094-0.094-0.062-0.094-0.062-0.032-0.062-0.094-0.062c-0.062-0.156-0.062-0.282-0.062-0.406v-0.032-0.062-0.188-0.062-0.032-0.124-0.032-0.062-0.094-0.094s0-0.032-0.062-0.062h0.062c-0.062-0.032-0.062-0.062-0.062-0.062v-0.032-0.062-0.032-0.062-0.094-0.062-0.062-0.032V676v-0.062-0.062-0.032-0.094-0.156c-0.062-0.032-0.062-0.032-0.062-0.062v-0.094-0.062-0.032-0.062-0.094-0.094-0.312c-0.062-0.344-0.062-0.656-0.124-1v-0.156-0.062-0.032-0.062-0.032-0.062-0.094s0-0.032-0.062-0.062v-0.094-0.062-0.094-0.094-0.062-0.094-0.094-0.062c-0.062-0.032-0.062-0.062-0.062-0.094v-0.062-0.094-0.156c-0.124-0.876-0.188-1.75-0.312-2.624-1.438-11.344-4.624-22.376-9.562-32.688a21.32 21.32 0 0 0-10.062-10.094c-5.624-2.656-12.312-2.876-18.312 0-10.688 5.062-15.188 17.782-10.124 28.438 7.5 15.782 8.312 33.468 2.25 49.75a21.242 21.242 0 0 0 10.812 26.718c0.562 0.282 1.124 0.5 1.688 0.718 11.062 4.124 23.312-1.468 27.438-12.5a103.882 103.882 0 0 0 6.25-27.376c0-0.124 0.062-0.218 0.062-0.344v-0.312-0.156c0-0.062 0.062-0.124 0.062-0.188v-0.062-0.25c0.062-0.532 0.062-1.094 0.124-1.624v-0.25-0.062-0.094-0.062-0.032-0.062s0-0.062 0.062-0.062v-0.032-0.062-0.032-0.062-0.094-0.062-0.032-0.062-0.062-0.032-0.062-0.062-0.032-0.062-0.094-0.062-0.094-0.094-0.062h0.062v-0.094-0.062-0.968-0.032-0.062-0.094-0.062-0.094-0.062-0.032s0-0.032 0.062-0.032l-0.004-0.034zM555.57 741.5a21.348 21.348 0 0 0-17.766-0.25c-15.998 7.062-33.718 7.344-49.812 0.782-10.938-4.406-23.376 0.844-27.812 11.75-4.25 10.532 0.468 22.5 10.624 27.282 0.344 0.188 0.718 0.344 1.094 0.5a106.08 106.08 0 0 0 14 4.594c0.032 0 0.062 0 0.062 0.032h0.094c0.032 0 0.062 0.032 0.094 0.032 0 0 0.032 0 0.062 0.032h0.094c0.032 0 0.032 0.032 0.032 0.032h0.124v0.032h0.094l0.062 0.032h0.094c0.032 0.032 0.062 0.032 0.062 0.032h0.032s0.032 0 0.062 0.032h0.094c0 0.032 0.032 0.032 0.062 0.032h0.094v0.032h0.064c0.032 0 0.062 0.032 0.094 0.032h0.062c0.562 0.156 1.124 0.282 1.688 0.406h0.096c0.032 0.032 0.062 0.032 0.062 0.032h0.094l0.032 0.032h0.062c0.032 0 0.062 0 0.062 0.032h0.094s0.062 0 0.062 0.032h0.126c0 0.032 0.032 0.032 0.062 0.032h0.094l0.032 0.032h0.094l0.032 0.032h0.094s0.032 0 0.062 0.032h0.094l0.062 0.032h0.094s0.032 0.032 0.062 0.032h0.094c0.032 0.032 0.062 0.032 0.062 0.032h0.126c0 0.032 0.032 0.032 0.032 0.032h0.064s0.032 0 0.062 0.032h0.124l0.032 0.032h0.094s0.032 0 0.032 0.032h0.094c0.188 0.032 0.376 0.062 0.562 0.124h0.156v0.032h0.126c0.032 0.032 0.062 0.032 0.062 0.032h0.156l0.032 0.032h0.094c0.032 0 0.032 0.032 0.032 0.032h0.156c0.032 0.032 0.062 0.032 0.062 0.032h0.126l0.032 0.032h0.126l0.062 0.032h0.096s0.032 0.032 0.062 0.032h0.096c0.032 0 0.062 0 0.062 0.032h0.126s0.032 0 0.032 0.032h0.158c0.032 0 0.032 0 0.062 0.032h0.096s0.032 0 0.062 0.032h0.158s0.032 0.032 0.062 0.032h0.096c0.032 0 0.032 0.032 0.032 0.032h0.188l0.032 0.032h0.126c0.032 0 0.032 0 0.062 0.032h0.19l0.032 0.032h0.126c0.032 0.032 0.032 0.032 0.062 0.032h0.158l0.032 0.032h0.126c0.032 0 0.032 0 0.062 0.032h0.19c0 0.032 0.032 0.032 0.032 0.032h0.126s0.032 0 0.062 0.032h0.158s0.032 0 0.032 0.032h0.158c0.032 0 0.032 0 0.062 0.032h0.19l0.032 0.032h0.126s0.032 0 0.062 0.032h0.19c0.032 0 0.032 0 0.062 0.032h0.158l0.032 0.032h0.22l0.032 0.032h0.158s0.032 0.032 0.062 0.032h0.19s0.062 0 0.062 0.032h0.19l0.032 0.032h0.22c0.032 0.032 0.062 0.032 0.062 0.032h0.188v0.032h0.25c0.032 0.032 0.062 0.032 0.094 0.032h0.094s0.032 0 0.062 0.032h0.22s0.032 0 0.062 0.032h0.22c0.032 0.032 0.062 0.032 0.062 0.032h0.22l0.032 0.032h0.188s0.062 0 0.062 0.032H500.43c0.032 0 0.032 0.032 0.032 0.032h0.22c0.032 0 0.032 0.032 0.032 0.032H500.998l0.062 0.032h0.252l0.032 0.032H501.626s0.032 0.032 0.062 0.032h0.156c0.282 0.032 0.562 0.062 0.812 0.094H503.034c0 0.032 0.032 0.032 0.062 0.032h0.252l0.062 0.032h0.378s0.032 0 0.032 0.032H504.198c0 0.032 0.032 0.032 0.062 0.032H504.666c0.032 0.032 0.062 0.032 0.094 0.032h0.312s0.032 0.032 0.032 0l1.156 0.094h0.5s0.032 0.032 0.062 0.032H507.416v0.032H508.23l0.032 0.032c0-0.032 0.032 0 0.032 0H508.578c0.376 0 0.718 0.032 1.094 0.032H511.328c0 0.032 0 0.032 0 0 0.032 0.032 0.032 0 0.032 0 0.032 0.032 0.062 0 0.062 0.032 0 0 0.032-0.032 0.062 0v-0.032c0.032 0.032 0.062 0.032 0.062 0.032 0.032 0 0.032-0.032 0.032 0h0.406c0.376 0 0.718 0 1.062-0.032H514.708s0-0.032 0.032 0c0-0.032 0.032-0.032 0.032-0.032H515.648c0.312-0.032 0.656-0.032 0.968-0.062H517.116c0.032 0 0.062-0.032 0.094-0.032h0.562l0.094-0.032h0.406c0.032 0 0.062-0.032 0.062-0.032H518.772c0.062 0 0.094-0.032 0.156-0.032l1.312-0.094h0.344v-0.032H520.928c0-0.032 0.032-0.032 0.062-0.032h0.314l0.032-0.032h0.218s0.062 0 0.094-0.032H521.962c0.032-0.032 0.062-0.032 0.094-0.032h0.156c0.438-0.062 0.874-0.094 1.31-0.156h0.25c0.032 0 0.062-0.032 0.094-0.032h0.156c0.032 0 0.062-0.032 0.062-0.032h0.22s0.062 0 0.062-0.032h0.25c0-0.032 0.032-0.032 0.062-0.032h0.156s0.062 0 0.062-0.032h0.19s0.032-0.032 0.062-0.032h0.188s0.032-0.032 0.062-0.032h0.094c0.562-0.062 1.124-0.156 1.718-0.218l0.032-0.032h0.124s0.062 0 0.062-0.032h0.188c0.032 0 0.032-0.032 0.032-0.032h0.126s0.062 0 0.094-0.032h0.156s0.032 0 0.062-0.032h0.156c0-0.032 0 0 0.032-0.032h0.156c0.032 0 0.032-0.032 0.032-0.032h0.126s0.062 0 0.094-0.032h0.062c0.656-0.094 1.312-0.218 1.938-0.312 0.062-0.032 0.124-0.032 0.156-0.032h0.032c0-0.032 0.032-0.032 0.032-0.032h0.126s0.032-0.032 0.062-0.032h0.094c0.032 0 0.062-0.032 0.062-0.032h0.094s0.062 0 0.094-0.032h0.062s0.062 0 0.094-0.032h0.064c0.032 0 0.062 0 0.094-0.032h0.062c0.062 0 0.124-0.032 0.188-0.032h0.062v-0.032h0.094c0.032 0 0.032 0 0.062-0.032h0.094c0.532-0.094 1.062-0.218 1.594-0.312h0.032c0-0.032 0.032-0.032 0.032-0.032H534c0.032 0 0.062 0 0.094-0.032v0.032c0-0.032 0.032-0.032 0.032-0.032h0.032c0.032 0 0.062 0 0.094-0.032 0 0 0 0.032 0 0h0.062l0.094-0.032h0.094s0.032-0.032 0.062-0.032h0.094c0-0.032 0.032-0.032 0.032-0.032h0.126c0.032-0.032 0.032-0.032 0.062-0.032 0 0 0.062 0 0.094-0.032h0.094s0.032 0 0.062-0.032h0.094c0-0.032 0.032-0.032 0.032-0.032h0.126c0-0.032 0.032-0.032 0.062-0.032 0 0 0.062 0 0.094-0.032 0.75-0.156 1.468-0.344 2.218-0.532 1.282-0.312 2.532-0.656 3.812-1a112.114 112.114 0 0 0 13.546-4.906c10.75-4.75 15.688-17.344 10.938-28.124-2.292-4.904-6.042-8.592-10.48-10.716z" fill="#E6E9ED" /><path d="M533.336 682.656c0 11.782-9.562 21.344-21.312 21.344-11.812 0-21.344-9.562-21.344-21.344s9.532-21.344 21.344-21.344c11.75 0 21.312 9.564 21.312 21.344z" fill="#F5F7FA" /></svg>