<?xml version="1.0" standalone="no"?><!DOCTYPE svg PUBLIC "-//W3C//DTD SVG 1.1//EN" "http://www.w3.org/Graphics/SVG/1.1/DTD/svg11.dtd"><svg class="icon" width="128px" height="128.00px" viewBox="0 0 1024 1024" version="1.1" xmlns="http://www.w3.org/2000/svg"><path d="M512 138.68c-210.876 0-397.562 109.376-512 277.312C114.438 583.946 301.124 693.32 512 693.32c210.906 0 397.594-109.376 512-277.328C909.594 248.054 722.906 138.68 512 138.68z" fill="#E6E9ED" /><path d="M746.688 373.336c0 129.594-105.094 234.672-234.688 234.672s-234.656-105.078-234.656-234.672S382.406 138.68 512 138.68s234.688 105.062 234.688 234.656z" fill="#A0D468" /><path d="M618.688 373.336c0 58.906-47.782 106.656-106.688 106.656s-106.656-47.75-106.656-106.656S453.094 266.68 512 266.68s106.688 47.75 106.688 106.656z" fill="#8CC153" /><path d="M853.344 415.992c-70.688 0-128 57.312-128 128v192.016h256v-192.016c0-70.688-57.312-128-128-128z m85.344 277.328H768v-149.328c0-47.032 38.282-85.312 85.344-85.312s85.344 38.282 85.344 85.312v149.328z" fill="#434A54" /><path d="M682.688 586.696H1024V885.32H682.688z" fill="#ED5564" /><path d="M884.562 716.508c0 18.062-14.624 32.688-32.688 32.688-18.032 0-32.656-14.624-32.656-32.688v-6.688c0-18 14.624-32.624 32.656-32.624 18.062 0 32.688 14.624 32.688 32.624v6.688z" fill="#434A54" /><path d="M917.344 714.696c0-35.376-28.656-64-64-64s-64 28.624-64 64c0 27.812 17.812 51.562 42.656 60.312v25c0 11.812 9.562 21.312 21.344 21.312s21.344-9.5 21.344-21.312v-25c24.844-8.75 42.656-32.5 42.656-60.312z m-64 21.312c-11.75 0-21.344-9.562-21.344-21.312 0-11.812 9.594-21.376 21.344-21.376s21.344 9.562 21.344 21.376c0 11.75-9.594 21.312-21.344 21.312z" fill="#656D78" /></svg>