<?xml version="1.0" standalone="no"?><!DOCTYPE svg PUBLIC "-//W3C//DTD SVG 1.1//EN" "http://www.w3.org/Graphics/SVG/1.1/DTD/svg11.dtd"><svg class="icon" width="128px" height="128.00px" viewBox="0 0 1024 1024" version="1.1" xmlns="http://www.w3.org/2000/svg"><path d="M639.996 192.006c-4.25 0-8.498-1.25-12.186-3.844-9.688-6.718-12.062-20.032-5.312-29.688l19.56-28.03-23.81-23.78h-93.232c-7.204 0-13.422 0-19.672-6.25-8.328-8.312-8.328-21.812 0-30.156a21.286 21.286 0 0 1 15.078-6.25h106.67a21.36 21.36 0 0 1 15.092 6.25l42.656 42.656a21.33 21.33 0 0 1 2.406 27.312l-29.75 42.656c-4.124 5.938-10.782 9.124-17.5 9.124z" fill="#48CFAD" /><path d="M639.996 959.992c-102.574 0-198.996-39.938-271.524-112.468-72.53-72.528-112.466-168.964-112.466-271.524 0-102.562 39.936-198.998 112.466-271.526 72.53-72.53 168.95-112.466 271.524-112.466 102.562 0 198.996 39.936 271.528 112.466 72.532 72.53 112.466 168.964 112.466 271.526 0 102.558-39.936 198.996-112.466 271.524-72.532 72.53-168.966 112.468-271.528 112.468z m0-725.33c-91.184 0-176.886 35.53-241.354 99.998S298.676 484.814 298.676 576c0 91.184 35.5 176.872 99.966 241.372 64.468 64.464 150.17 99.964 241.354 99.964 91.188 0 176.874-35.5 241.372-99.964 64.438-64.5 99.938-150.188 99.938-241.372 0-91.186-35.5-176.872-99.938-241.34-64.498-64.468-150.184-99.998-241.372-99.998zM128.006 959.992c-70.576 0-127.998-57.406-127.998-128 0-70.59 57.42-127.996 127.998-127.996s127.998 57.406 127.998 127.996c0 70.594-57.42 128-127.998 128z m0-213.34c-47.046 0-85.326 38.282-85.326 85.34 0 47.062 38.28 85.344 85.326 85.344 47.046 0 85.328-38.282 85.328-85.344 0-47.058-38.28-85.34-85.328-85.34z" fill="#434A54" /><path d="M700.34 657.684a21.354 21.354 0 0 1-15.094-6.25l-30.188-30.188c-8.312-8.308-8.312-21.84 0-30.152 8.376-8.344 21.876-8.344 30.188 0l30.188 30.152c8.312 8.344 8.312 21.844 0 30.188a21.354 21.354 0 0 1-15.094 6.25zM609.81 567.156a21.144 21.144 0 0 1-15.062-6.25l-30.186-30.156c-8.312-8.344-8.312-21.842 0-30.186 8.344-8.312 21.874-8.312 30.186 0l30.188 30.186c8.31 8.312 8.31 21.844 0 30.156a21.238 21.238 0 0 1-15.126 6.25z" fill="#434A54" /><path d="M639.996 597.344c-11.78 0-21.31-9.562-21.31-21.344V170.664a21.298 21.298 0 0 1 21.31-21.312 21.3 21.3 0 0 1 21.312 21.312V576c0 11.782-9.53 21.344-21.312 21.344z" fill="#E6E9ED" /><path d="M405.33 271.724c-11.782 0-21.328-9.562-21.328-21.344V170.664c0-11.782 9.546-21.312 21.328-21.312s21.344 9.532 21.344 21.312v79.716c0 11.782-9.562 21.344-21.344 21.344z" fill="#CCD1D9" /><path d="M670.184 545.844c16.624 16.656 16.624 43.656 0 60.312-16.688 16.684-43.686 16.684-60.374 0-16.624-16.656-16.624-43.656 0-60.312 16.688-16.688 43.686-16.688 60.374 0z" fill="#F5F7FA" /><path d="M128.006 853.336c-11.78 0-21.328-9.562-21.328-21.344 0-137.496 10.376-311.836 91.264-440.676 40.014-63.718 95.138-112.686 163.856-145.56 74.576-35.654 168.184-53.748 278.196-53.748 11.782 0 21.312 9.562 21.312 21.342a21.3 21.3 0 0 1-21.312 21.312c-197.37 0-330.148 58.686-405.928 179.34-75.092 119.624-84.732 286.212-84.732 417.99 0 11.782-9.546 21.344-21.328 21.344z" fill="#E6E9ED" /><path d="M490.672 192.006h-127.998c-11.782 0-21.344-9.562-21.344-21.344s9.562-21.312 21.344-21.312h127.998c11.782 0 21.328 9.532 21.328 21.312s-9.546 21.344-21.328 21.344z" fill="#48CFAD" /></svg>