<?xml version="1.0" standalone="no"?><!DOCTYPE svg PUBLIC "-//W3C//DTD SVG 1.1//EN" "http://www.w3.org/Graphics/SVG/1.1/DTD/svg11.dtd"><svg class="icon" width="128px" height="128.00px" viewBox="0 0 1024 1024" version="1.1" xmlns="http://www.w3.org/2000/svg"><path d="M320.152 490.702c0 11.774-9.542 21.298-21.314 21.298s-21.33-9.526-21.33-21.298 9.556-21.33 21.33-21.33 21.314 9.556 21.314 21.33z" fill="#434A54" /><path d="M285.268 568.152c-22.798 0-47.438-5.53-73.75-16.584l16.49-39.318c36.494 15.334 67.394 17.332 91.832 5.934 33.104-15.396 45.066-51.248 45.19-51.592l40.692 12.68c-0.672 2.186-17.334 54.028-67.894 77.574-16.178 7.528-33.744 11.306-52.56 11.306zM167.624 287.456l0.204 0.282-0.032 0.032c-3.732-6.152-10.478-10.274-18.192-10.274-11.774 0-21.33 9.556-21.33 21.33 0 4.06 1.156 7.838 3.124 11.054h-0.016c2.67 4.404 28.184 43.378 101.982 59.526l9.12-41.662c-55.888-12.244-74.11-39.164-74.86-40.288zM959.71 277.494c-11.776 0-21.332 9.556-21.332 21.33v35.07h42.66v-35.07c0.002-11.774-9.554-21.33-21.328-21.33zM917.082 426.742H554.656v42.628h362.426c11.774 0 21.296-9.556 21.296-21.33s-9.522-21.298-21.296-21.298z" fill="#AAB2BC" /><path d="M298.836 348.574l109.898 112.616c-309.24 35.602-192.58 285.318-192.58 285.318H0.372c0-0.002-10.29-383.724 298.464-397.934z" fill="#A85D5D" /><path d="M408.736 461.188l-109.898-112.616c-13.538 0.624-26.452 1.968-38.788 3.934l106.042 108.68c-309.224 35.606-192.566 285.32-192.566 285.32h42.628c0.002 0-116.658-249.714 192.582-285.318z" fill="#FFFFFF" opacity=".2" /><path d="M426.74 320.154h596.928v127.886H426.74z" fill="#CCD1D9" /><path d="M426.74 302.384h127.916v170.548H426.74z" fill="#E6E9ED" /><path d="M448.07 277.494h-170.562c-58.868 0-106.588 47.718-106.588 106.588 0 58.868 47.72 106.62 106.588 106.62h170.562c11.774 0 21.314-9.556 21.314-21.33v-170.546c0-11.776-9.542-21.332-21.314-21.332z" fill="#CCD1D9" /><path d="M320.152 362.784c-11.774 0-21.314 9.526-21.314 21.298s9.542 21.33 21.314 21.33h149.232v-42.628h-149.232z" fill="#AAB2BC" /></svg>