<?xml version="1.0" standalone="no"?><!DOCTYPE svg PUBLIC "-//W3C//DTD SVG 1.1//EN" "http://www.w3.org/Graphics/SVG/1.1/DTD/svg11.dtd"><svg class="icon" width="128px" height="128.00px" viewBox="0 0 1024 1024" version="1.1" xmlns="http://www.w3.org/2000/svg"><path d="M981.3 746.674H0.012l42.654-127.996h981.322z" fill="#E6E9ED" /><path d="M981.3 575.99H0.012l42.654-127.982h981.322z" fill="#DCDEE2" /><path d="M981.3 405.322H0.012l42.654-127.998h981.322z" fill="#CCD1D9" /><path d="M818.71 469.32C687.278 469.32 512 448.008 512 448.008s-175.278 21.312-306.744 21.312c-131.464 0-131.464-255.994 0-255.994 131.466 0 306.744 21.344 306.744 21.344s175.278-21.344 306.71-21.344c131.468 0 131.468 255.994 0 255.994z" fill="#7F4545" /><path d="M205.256 256.012c131.466 0 306.744 21.312 306.744 21.312s175.278-21.312 306.71-21.312c58.406 0 90.844 50.5 97.374 106.654 8.156-70.248-24.31-149.34-97.374-149.34-131.434 0-306.71 21.344-306.71 21.344s-175.278-21.344-306.744-21.344c-73.06 0-105.498 79.092-97.374 149.34 6.532-56.154 38.97-106.654 97.374-106.654z" fill="#FFFFFF" opacity=".1" /><path d="M818.71 639.988c-131.434 0-306.71-21.31-306.71-21.31s-175.278 21.31-306.744 21.31c-131.464 0-131.464-255.978 0-255.978 131.466 0 306.744 21.312 306.744 21.312s175.278-21.312 306.71-21.312c131.468 0 131.468 255.978 0 255.978z" fill="#965353" /><path d="M205.256 426.666c131.466 0 306.744 21.342 306.744 21.342s175.278-21.342 306.71-21.342c58.406 0 90.844 50.53 97.374 106.654 8.156-70.248-24.31-149.308-97.374-149.308-131.434 0-306.71 21.312-306.71 21.312s-175.278-21.312-306.744-21.312c-73.06 0-105.498 79.06-97.374 149.308 6.532-56.124 38.97-106.654 97.374-106.654z" fill="#FFFFFF" opacity=".1" /><path d="M818.71 810.674c-131.434 0-306.71-21.376-306.71-21.376s-175.278 21.376-306.744 21.376c-131.464 0-131.464-255.996 0-255.996 131.466 0 306.744 21.312 306.744 21.312s175.278-21.312 306.71-21.312c131.468 0 131.468 255.996 0 255.996z" fill="#A85D5D" /><path d="M205.256 597.302c131.466 0 306.744 21.376 306.744 21.376s175.278-21.376 306.71-21.376c58.406 0 90.844 50.56 97.374 106.684 8.156-70.248-24.31-149.308-97.374-149.308-131.434 0-306.71 21.312-306.71 21.312s-175.278-21.312-306.744-21.312c-73.06 0-105.498 79.06-97.374 149.308 6.532-56.122 38.97-106.684 97.374-106.684z" fill="#FFFFFF" opacity=".1" /></svg>