<?xml version="1.0" standalone="no"?><!DOCTYPE svg PUBLIC "-//W3C//DTD SVG 1.1//EN" "http://www.w3.org/Graphics/SVG/1.1/DTD/svg11.dtd"><svg class="icon" width="128px" height="128.00px" viewBox="0 0 1024 1024" version="1.1" xmlns="http://www.w3.org/2000/svg"><path d="M810.708 202.01l-106.652 85.31-106.62-85.31 42.654-63.998h127.964z" fill="#4FC2E9" /><path d="M704.056 244.666c-176.666 0-319.88 143.214-319.88 319.896s143.214 319.896 319.88 319.896c176.682 0 319.926-143.214 319.926-319.896s-143.244-319.896-319.926-319.896z m0 554.48c-129.558 0-234.586-105.028-234.586-234.586s105.028-234.586 234.586-234.586c129.59 0 234.618 105.028 234.618 234.586s-105.028 234.586-234.618 234.586z" fill="#FFCE54" /><path d="M511.468 430.626c27.124 38.25 43.06 84.998 43.06 135.464 0 129.558-105.042 234.586-234.6 234.586-129.574 0-234.602-105.028-234.602-234.586s105.028-234.618 234.602-234.618c47.966 0 92.576 14.438 129.746 39.154a321.814 321.814 0 0 1 61.326-61.124c-53.31-39.78-119.448-63.34-191.072-63.34C143.246 246.162 0.016 389.408 0.016 566.088s143.23 319.896 319.912 319.896S639.84 742.774 639.84 566.092c0-73.842-25.03-141.808-67.03-195.962a235.534 235.534 0 0 0-61.342 60.496z" fill="#F6BB42" /></svg>