<?xml version="1.0" standalone="no"?><!DOCTYPE svg PUBLIC "-//W3C//DTD SVG 1.1//EN" "http://www.w3.org/Graphics/SVG/1.1/DTD/svg11.dtd"><svg class="icon" width="128px" height="128.00px" viewBox="0 0 1024 1024" version="1.1" xmlns="http://www.w3.org/2000/svg"><path d="M938.642 42.672S948.018 0.018 512 0.018C75.984 0.018 85.358 42.672 85.358 42.672v170.666l78.748 298.646-78.748 298.66v170.652S75.952 1023.982 512 1023.982c436.018 0 426.642-42.686 426.642-42.686v-170.652l-78.748-298.66 78.748-298.646V42.672z" fill="#E6E9ED" /><path d="M512 0.018C75.984 0.018 85.358 42.672 85.358 42.672v170.666l78.748 298.646h695.79l78.748-298.646V42.672c-0.002 0 9.374-42.654-426.644-42.654z" fill="#CCD1D9" /><path d="M938.642 810.644l-78.748-298.66 78.748-298.646V42.672S948.018 0.018 512 0.018C75.984 0.018 85.358 42.672 85.358 42.672v170.666l78.748 298.646-78.748 298.66v170.652S75.952 1023.982 512 1023.982c436.018 0 426.642-42.686 426.642-42.686v-170.652z m-42.656 146.528c-11.936 3.25-33.124 7.624-69.246 11.75-72.592 8.218-178.494 12.376-314.74 12.376s-242.148-4.156-314.74-12.376c-36.124-4.124-57.31-8.5-69.248-11.75v-140.996l77.34-293.3 2.876-10.89-2.876-10.876-77.34-293.302v-140.98c11.936-3.25 33.124-7.656 69.248-11.75 72.592-8.234 178.494-12.406 314.74-12.406s242.148 4.172 314.74 12.406c36.124 4.094 57.31 8.5 69.246 11.75v140.978l-77.34 293.302-2.876 10.876 2.876 10.89 77.34 293.3v140.998z" opacity=".1" /><path d="M512 0.018C75.984 0.018 85.358 42.672 85.358 42.672v170.666h853.284V42.672S948.018 0.018 512 0.018z" fill="#ED5564" /><path d="M85.358 84.874c0.532-4.64 17.5-42.202 426.642-42.202s426.112 37.56 426.642 42.202V42.672S948.018 0.018 512 0.018C75.984 0.018 85.358 42.672 85.358 42.672v42.202z" fill="#FFFFFF" opacity=".1" /><path d="M541.03 490.656v13.39l56.312-56.732-21.344-63.31h-127.996l-21.342 63.31 42.998 43.342z" fill="#3BAFDA" /><path d="M725.338 682.62c-0.032-117.81-95.53-213.29-213.338-213.29s-213.336 95.512-213.336 213.32c0 5.468 2.094 10.906 6.25 15.092 8.342 8.312 21.842 8.312 30.186 0a21.346 21.346 0 0 0 6.25-15.092c0-45.592 17.75-88.436 49.968-120.652 32.248-32.248 75.09-50.014 120.682-50.014s88.436 17.766 120.684 50.014c32.216 32.216 49.966 75.06 49.966 120.652 0 5.468 2.094 10.906 6.25 15.092 8.344 8.312 21.844 8.312 30.188 0a21.36 21.36 0 0 0 6.25-15.122z" fill="#F6BB42" /><path d="M85.358 810.644v171.152c0.532 4.624 17.5 42.186 426.642 42.186 436.018 0 426.642-42.686 426.642-42.686v-170.652H85.358z" fill="#ED5564" /></svg>