<?xml version="1.0" standalone="no"?><!DOCTYPE svg PUBLIC "-//W3C//DTD SVG 1.1//EN" "http://www.w3.org/Graphics/SVG/1.1/DTD/svg11.dtd"><svg class="icon" width="128px" height="128.00px" viewBox="0 0 1024 1024" version="1.1" xmlns="http://www.w3.org/2000/svg"><path d="M661.338 85.358l-149.15 170.666-149.526-170.666L405.348 0.018h213.306z" fill="#3BAED9" /><path d="M661.338 85.358H362.662L405.348 0.018h213.306z" fill="#5CDAF7" /><path d="M362.662 85.358l149.526 170.666V85.358z" fill="#4FC0E8" /><path d="M512 213.354c-223.836 0-405.33 181.462-405.33 405.332 0 223.836 181.494 405.296 405.33 405.296 223.87 0 405.33-181.46 405.33-405.296 0-223.868-181.46-405.332-405.33-405.332z m0 746.632c-188.494 0-341.332-152.808-341.332-341.3 0-188.526 152.838-341.334 341.332-341.334s341.334 152.806 341.334 341.334c0 188.492-152.84 341.3-341.334 341.3z" fill="#F6BB42" /><path d="M512 170.684c-223.836 0-405.33 181.462-405.33 405.314 0 223.868 181.494 405.332 405.33 405.332 223.87 0 405.33-181.464 405.33-405.332 0-223.852-181.46-405.314-405.33-405.314z m0 746.646c-188.494 0-341.332-152.836-341.332-341.332 0-188.494 152.838-341.316 341.332-341.316s341.334 152.824 341.334 341.316c0 188.496-152.84 341.332-341.334 341.332z" fill="#FFCE54" /></svg>