<?xml version="1.0" standalone="no"?><!DOCTYPE svg PUBLIC "-//W3C//DTD SVG 1.1//EN" "http://www.w3.org/Graphics/SVG/1.1/DTD/svg11.dtd"><svg class="icon" width="128px" height="128.00px" viewBox="0 0 1024 1024" version="1.1" xmlns="http://www.w3.org/2000/svg"><path d="M1002.676 1023.976H21.354c-11.78 0-21.342-9.562-21.342-21.344 0-11.78 9.562-21.31 21.342-21.31h981.322c11.75 0 21.312 9.532 21.312 21.31 0 11.782-9.562 21.344-21.312 21.344zM1002.676 895.98H21.354c-11.78 0-21.342-9.562-21.342-21.342 0-11.782 9.562-21.312 21.342-21.312h981.322c11.75 0 21.312 9.532 21.312 21.312 0 11.78-9.562 21.342-21.312 21.342zM1002.676 767.986H21.354c-11.78 0-21.342-9.562-21.342-21.344 0-11.78 9.562-21.342 21.342-21.342h981.322c11.75 0 21.312 9.562 21.312 21.342 0 11.782-9.562 21.344-21.312 21.344zM1002.676 639.992H21.354c-11.78 0-21.342-9.562-21.342-21.344s9.562-21.344 21.342-21.344h981.322c11.75 0 21.312 9.562 21.312 21.344s-9.562 21.344-21.312 21.344zM1002.676 511.996H21.354c-11.78 0-21.342-9.562-21.342-21.344s9.562-21.342 21.342-21.342h981.322c11.75 0 21.312 9.56 21.312 21.342s-9.562 21.344-21.312 21.344zM1002.676 383.968H21.354c-11.78 0-21.342-9.53-21.342-21.31 0-11.782 9.562-21.344 21.342-21.344h981.322c11.75 0 21.312 9.562 21.312 21.344 0 11.78-9.562 21.31-21.312 21.31zM1002.676 255.974H21.354c-11.78 0-21.342-9.53-21.342-21.312s9.562-21.344 21.342-21.344h981.322c11.75 0 21.312 9.562 21.312 21.344s-9.562 21.312-21.312 21.312zM1002.676 127.98H21.354A21.332 21.332 0 0 1 0.012 106.636c0-11.78 9.562-21.312 21.342-21.312h981.322c11.75 0 21.312 9.532 21.312 21.312 0 11.812-9.562 21.344-21.312 21.344z" fill="#434A54" /><path d="M920.43 772.706l-3.624-1.062c-52.938-14.218-70.81-27.874-94.374-36.842-83.622-31.844-105.37-54.78-110.932-65.624l-0.562-1.218-0.686-97.09-198.26-2.25-198.242 2.25-0.688 97.09c-0.188 0.406-0.344 0.812-0.532 1.218-5.562 10.844-27.312 33.78-110.902 65.624-23.562 8.968-41.498 22.624-94.434 36.842l-3.624 1.062c-48.186 15.936-80.622 60.622-80.622 111.058v140.212h978.102v-140.212c0-50.438-32.436-95.124-80.62-111.058z" fill="#656D78" /><path d="M711.5 669.178l-0.562-1.218-0.686-97.09-198.26-2.25-198.242 2.25-0.688 97.09c-0.188 0.406-0.344 0.812-0.532 1.218-5.282 10.282-25.186 31.498-98.748 60.904 41.906 27.592 141.558 79.682 296.834 79.682 153.01 0 257.004-50.558 302.692-78.462-76.06-30.032-96.432-51.686-101.808-62.124z" fill="#DBAFA5" /><path d="M787.122 382.062c0 178.744-170.43 343.238-275.098 343.238-104.716 0-275.116-164.494-275.116-343.238S360.06 85.386 512.024 85.386c151.916 0 275.098 117.934 275.098 296.676z" fill="#EAC6BB" /><path d="M837.37 741.27c-5-2.344-9.876-4.5-14.938-6.468-12.686-4.812-23.874-9.406-33.81-13.812-12.062 6.718-26.876 14.218-44.374 21.688-48.808 20.874-128.994 45.778-233.63 45.778-104.34 0-181.774-24.748-228.366-45.528-17.906-7.938-32.718-15.968-44.436-23-10.562 4.718-22.562 9.688-36.186 14.876-3.938 1.5-7.688 3.124-11.468 4.844 13.718 9.966 38 25.716 72.686 41.34 50.686 22.874 134.838 50.124 247.772 50.124 112.824 0 199.448-27.188 252.254-49.966 34.622-14.94 59.682-29.972 74.496-39.876z" fill="#434A54" /><path d="M787.122 382.062c0-21.624-1.812-42.342-5.25-62.06H242.158c-3.438 19.718-5.25 40.436-5.25 62.06 0 22.312 2.656 44.374 7.5 65.934H779.62c4.814-21.56 7.502-43.622 7.502-65.934z" fill="#ED5564" /><path d="M682.69 384c0 23.562-28.688 42.654-63.998 42.654-35.374 0-63.998-19.092-63.998-42.654 0-23.56 28.624-42.654 63.998-42.654 35.31 0 63.998 19.094 63.998 42.654z" fill="#EAC6BB" /><path d="M341.342 384a63.998 42.654 0 1 0 127.996 0 63.998 42.654 0 1 0-127.996 0Z" fill="#EAC6BB" /><path d="M787.122 379.938c-7.812-187.024-10.25-238.928-111.056-319.082-164.072-130.494-417.156-10.438-417.156-10.438l45.686 32.032S137.29 192.914 179.35 469.34c5.156 33.966 235.896-230.678 481.34-216.274l126.432 126.872z" fill="#656D78" /><path d="M789.058 767.986H235.316a21.296 21.296 0 0 0-21.312 21.31v213.336c0 11.782 9.532 21.344 21.312 21.344H789.06c11.75 0 21.312-9.562 21.312-21.344V789.296c0-11.78-9.564-21.31-21.314-21.31z" fill="#FFCE54" /><path d="M383.998 959.416a21.144 21.144 0 0 1-15.062-6.25l-85.34-85.308a21.332 21.332 0 0 1 0-30.188c8.312-8.344 21.842-8.344 30.156 0l85.34 85.34c8.342 8.312 8.342 21.844 0 30.156-4.158 4.188-9.628 6.25-15.094 6.25z" fill="#434A54" /><path d="M299.032 959.416c-5.468 0-10.936-2.062-15.092-6.25-8.344-8.312-8.344-21.844 0-30.156l85.34-85.34c8.342-8.344 21.842-8.344 30.154 0a21.336 21.336 0 0 1 0 30.188l-85.308 85.308a21.274 21.274 0 0 1-15.094 6.25z" fill="#434A54" /><path d="M725.312 959.416a21.186 21.186 0 0 1-15.06-6.25l-85.31-85.308a21.274 21.274 0 0 1 0-30.188c8.31-8.344 21.81-8.344 30.124 0l85.372 85.34c8.312 8.312 8.312 21.844 0 30.156a21.244 21.244 0 0 1-15.126 6.25z" fill="#434A54" /><path d="M640.376 959.416c-5.5 0-10.938-2.062-15.124-6.25-8.312-8.312-8.312-21.844 0-30.156l85.372-85.34c8.312-8.344 21.81-8.344 30.124 0a21.274 21.274 0 0 1 0 30.188l-85.308 85.308a21.2 21.2 0 0 1-15.064 6.25z" fill="#434A54" /><path d="M554.694 959.416c-5.5 0-10.954-2.062-15.11-6.25l-85.34-85.308c-8.312-8.344-8.312-21.844 0-30.188a21.33 21.33 0 0 1 30.186 0l85.326 85.34c8.312 8.312 8.312 21.844 0 30.156a21.2 21.2 0 0 1-15.062 6.25z" fill="#434A54" /><path d="M469.68 959.416a21.144 21.144 0 0 1-15.062-6.25c-8.344-8.312-8.344-21.844 0-30.156l85.308-85.34c8.328-8.344 21.828-8.344 30.204 0 8.312 8.344 8.312 21.844 0 30.188l-85.356 85.308c-4.156 4.188-9.624 6.25-15.094 6.25z" fill="#434A54" /></svg>