<?xml version="1.0" standalone="no"?><!DOCTYPE svg PUBLIC "-//W3C//DTD SVG 1.1//EN" "http://www.w3.org/Graphics/SVG/1.1/DTD/svg11.dtd"><svg class="icon" width="128px" height="128.00px" viewBox="0 0 1024 1024" version="1.1" xmlns="http://www.w3.org/2000/svg"><path d="M798.622 118.704C722.062 42.174 620.254 0.02 512.008 0.02c-108.262 0-210.054 42.156-286.598 118.684-76.558 76.56-118.714 178.368-118.714 286.614v597.32c0 11.782 9.546 21.344 21.328 21.344h767.97c11.782 0 21.312-9.562 21.312-21.344v-597.32c-0.002-108.246-42.126-210.056-118.684-286.614z" fill="#656D78" /><path d="M798.622 118.704C722.062 42.174 620.254 0.02 512.008 0.02c-108.262 0-210.054 42.156-286.598 118.684-76.558 76.56-118.714 178.368-118.714 286.614v21.342c0-108.276 42.156-210.054 118.714-286.614 76.544-76.56 178.336-118.714 286.598-118.714 108.246 0 210.054 42.154 286.614 118.714 76.558 76.558 118.684 178.336 118.684 286.614v-21.342c-0.002-108.246-42.126-210.056-118.684-286.614z" fill="#FFFFFF" opacity=".1" /><path d="M106.696 959.982v42.654c0 11.782 9.546 21.344 21.328 21.344h767.97c11.782 0 21.312-9.562 21.312-21.344v-42.654H106.696z" fill="#ED5564" /><path d="M789.308 959.982h42.686v63.998h-42.686zM704.002 959.982h42.684v63.998h-42.684zM618.692 959.982h42.624v63.998h-42.624zM533.334 959.982h42.672v63.998h-42.672zM448.01 959.982h42.67v63.998h-42.67zM362.686 959.982h42.654v63.998h-42.654zM277.344 959.982h42.67v63.998h-42.67zM192.02 959.982h42.67v63.998H192.02z" fill="#DA4453" /><path d="M512.008 554.654c-71.78 0-127.996 40.216-127.996 91.592v115.462c0 51.372 56.216 91.59 127.996 91.59s127.994-40.218 127.994-91.59v-115.462c0-51.374-56.214-91.592-127.994-91.592zM484.258 420.566a21.326 21.326 0 0 0 2.156-28.03c-2.876-3.842-71.732-93.87-187.728-93.87-25.952 0-52.842 12-73.748 32.904-20.92 20.906-32.92 47.81-32.92 73.748 0 30.81 10.016 56.936 28.936 75.56 21 20.624 51.466 31.092 90.56 31.092 33.75 0 73.326-15.624 117.62-46.466 31.718-22.096 54.188-44.032 55.124-44.938zM799.058 331.57c-20.876-20.906-47.782-32.904-73.746-32.904-115.996 0-184.838 90.028-187.712 93.87a21.324 21.324 0 0 0 2.14 28.03c0.954 0.906 23.422 22.842 55.14 44.936 44.308 30.842 83.872 46.466 117.62 46.466 39.09 0 69.558-10.468 90.558-31.092 18.936-18.624 28.936-44.75 28.936-75.56 0-25.936-11.998-52.84-32.936-73.746z" fill="#434A54" /></svg>