<?xml version="1.0" standalone="no"?><!DOCTYPE svg PUBLIC "-//W3C//DTD SVG 1.1//EN" "http://www.w3.org/Graphics/SVG/1.1/DTD/svg11.dtd"><svg class="icon" width="128px" height="128.00px" viewBox="0 0 1024 1024" version="1.1" xmlns="http://www.w3.org/2000/svg"><path d="M938.794 504.022a20.878 20.878 0 0 0-19.31-12.906H752.3c-8.466 0-16.092 5.078-19.28 12.906a20.82 20.82 0 0 0 4.532 22.764l83.592 83.59c3.904 3.906 9.216 6.124 14.748 6.124s10.876-2.218 14.78-6.124l83.592-83.59a20.93 20.93 0 0 0 4.53-22.764z" fill="#8CC153" /><path d="M879.14 767.372l-3.562-1c-51.842-13.938-69.372-27.31-92.464-36.092-81.87-31.218-103.182-53.716-108.62-64.31-0.218-0.406-0.376-0.782-0.562-1.188l-0.688-95.122-194.18-2.188-194.242 2.188-0.656 95.122c-0.188 0.406-0.344 0.782-0.532 1.188-5.438 10.594-26.75 33.092-108.622 64.31-23.092 8.782-40.624 22.154-92.496 36.092l-3.562 1C31.738 782.962 0.02 826.774 0.02 876.18v137.338h835.874l122.214-137.338c0-49.406-31.748-93.218-78.968-108.808z" fill="#656D78" /><path d="M674.494 665.968c-0.218-0.406-0.376-0.782-0.562-1.188l-0.688-95.122-194.18-2.188-194.242 2.188-0.656 95.122c-0.188 0.406-0.344 0.782-0.532 1.188-5.156 10.062-24.624 30.844-96.716 59.654 41.062 27.06 138.652 78.088 290.802 78.088 149.9 0 251.74-49.558 296.518-76.9-74.556-29.406-94.526-50.622-99.744-60.842z" fill="#DBAFA5" /><path d="M748.552 384.73c0 175.086-166.93 336.236-269.49 336.236-102.59 0-269.49-161.15-269.49-336.236 0-175.104 120.652-290.628 269.49-290.628 148.838 0 269.49 115.524 269.49 290.628z" fill="#EAC6BB" /><path d="M797.77 736.592c-4.876-2.312-9.656-4.406-14.656-6.312a736.14 736.14 0 0 1-33.124-13.532c-11.782 6.562-26.28 13.906-43.402 21.25-47.844 20.436-126.402 44.808-228.868 44.808-102.246 0-178.086-24.248-223.742-44.59-17.53-7.782-32.062-15.624-43.53-22.532-10.342 4.624-22.062 9.5-35.436 14.594-3.844 1.438-7.53 3.032-11.25 4.718 13.436 9.748 37.248 25.216 71.216 40.496 49.686 22.406 132.088 49.092 242.74 49.092 110.466 0 195.336-26.624 247.084-48.936 33.906-14.652 58.436-29.37 72.968-39.056zM0.02 929.958h910.246l37.216-41.812H0.02z" fill="#434A54" /><path d="M748.552 384.73c0-21.17-1.812-41.466-5.156-60.794H214.698c-3.344 19.328-5.124 39.624-5.124 60.794 0 21.842 2.594 43.466 7.344 64.59h524.292c4.748-21.122 7.342-42.746 7.342-64.59z" fill="#ED5564" /><path d="M646.212 386.622c0 23.078-28.06 41.81-62.684 41.81-34.624 0-62.688-18.734-62.688-41.81s28.062-41.794 62.688-41.794c34.624-0.002 62.684 18.716 62.684 41.794zM437.252 386.622c0 23.078-28.03 41.81-62.684 41.81-34.624 0-62.686-18.734-62.686-41.81s28.062-41.794 62.686-41.794c34.654-0.002 62.684 18.716 62.684 41.794z" fill="#EAC6BB" /><path d="M971.542 664.406c-38.092-57.842-86.278-89.714-135.65-89.714s-97.528 31.874-135.648 89.714c-32.312 49.06-52.406 110.776-52.406 161.054 0 103.684 84.372 188.056 188.054 188.056 103.714 0 188.088-84.374 188.088-188.056 0-50.278-20.094-111.994-52.438-161.054z" fill="#A0D468" /><path d="M835.892 929.958c-11.532 0-20.904-9.344-20.904-20.904v-208.96c0-11.56 9.374-20.904 20.904-20.904s20.904 9.344 20.904 20.904v208.96c0 11.56-9.372 20.904-20.904 20.904z" fill="#CCD1D9" /><path d="M748.552 382.668C740.928 199.44 738.49 148.6 639.776 70.086c-160.712-127.856-408.67-10.234-408.67-10.234l44.78 31.374s-163.868 108.23-122.712 379c5.062 33.264 231.084-225.976 471.512-211.852l123.866 124.294z" fill="#656D78" /><path d="M773.208 888.178a20.852 20.852 0 0 1-20.876-20.874c-0.032-11.562 9.312-20.906 20.876-20.906h74.936l-89.716-89.714c-5.968-6-7.75-14.966-4.532-22.78s10.844-12.906 19.312-12.906h125.372c11.532 0 20.906 9.344 20.906 20.876 0 11.56-9.376 20.904-20.906 20.904h-74.936l89.716 89.714c5.968 6 7.75 14.968 4.5 22.782a20.826 20.826 0 0 1-19.282 12.904h-125.37z" fill="#E6E9ED" /></svg>