<?xml version="1.0" standalone="no"?><!DOCTYPE svg PUBLIC "-//W3C//DTD SVG 1.1//EN" "http://www.w3.org/Graphics/SVG/1.1/DTD/svg11.dtd"><svg class="icon" width="128px" height="128.00px" viewBox="0 0 1024 1024" version="1.1" xmlns="http://www.w3.org/2000/svg"><path d="M996.116 1.036l-133.53 43a21.346 21.346 0 0 0-11.686 9.25l-68.78 113.184-77.032 77.03c-4 4-6.25 9.406-6.25 15.062s2.25 11.094 6.25 15.094l45.25 45.25c4 4 9.438 6.25 15.094 6.25s11.094-2.25 15.094-6.25l76.968-76.968 110.872-66.53c1.5-0.906 2.906-2 4.124-3.218a21.56 21.56 0 0 0 5.156-8.344l45.25-135.748c2.532-7.624 0.562-16.032-5.094-21.75S1003.772-1.434 996.116 1.036z" fill="#FC6E51" /><path d="M758.994 340.404l96.938-96.904-75.438-75.436-96.904 96.936z" fill="#E9573F" /><path d="M534.702 640.62a21.226 21.226 0 0 1-15.094 6.25h-60.81c-11.782 0-21.312-9.532-21.312-21.312s9.532-21.344 21.312-21.344h60.81c11.782 0 21.344 9.562 21.344 21.344 0 5.874-2.408 11.218-6.25 15.062z" fill="#434A54" /><path d="M460.328 604.276a21.29 21.29 0 0 0-16.594 6.188l-45.28 45.25c-7.5 7.498-8.344 19.404-1.968 27.874l90.498 120.686c3.718 4.938 9.406 8.032 15.562 8.468s12.218-1.812 16.592-6.188l45.234-45.25a21.286 21.286 0 0 0 2-27.876l-90.514-120.684a21.278 21.278 0 0 0-15.53-8.468z" fill="#656D78" /><path d="M398.454 565.212l-30.156 30.156c-8.344 8.344-21.842 8.344-30.156 0-8.344-8.312-8.344-21.844 0-30.156l30.156-30.188c8.344-8.312 21.844-8.312 30.156 0a21.332 21.332 0 0 1 0 30.188z" fill="#434A54" /><path d="M712.62 229.688a21.286 21.286 0 0 0-15.062 6.25L83.552 849.958 10.368 893.866a21.344 21.344 0 0 0-10.188 15.686 21.3 21.3 0 0 0 6.094 17.688l90.498 90.498a21.3 21.3 0 0 0 17.688 6.094 21.36 21.36 0 0 0 12.5-6.094 21.476 21.476 0 0 0 3.188-4.094l43.906-73.186 614.004-614.02c8.312-8.312 8.312-21.812 0-30.156l-60.344-60.344a21.364 21.364 0 0 0-15.094-6.25z" fill="#8CC153" /><path d="M338.142 776.396l30.156-30.188-90.498-90.496-30.186 30.186zM277.8 836.74l30.156-30.188-90.498-90.498-30.188 30.154zM217.458 897.084l30.156-30.188-90.5-90.5-30.156 30.156z" opacity=".1" /><path d="M81.242 851.366l-70.874 42.5a21.344 21.344 0 0 0-10.188 15.686 21.3 21.3 0 0 0 6.094 17.688l90.498 90.498a21.3 21.3 0 0 0 17.688 6.094 21.36 21.36 0 0 0 12.5-6.094 21.476 21.476 0 0 0 3.188-4.094L172.676 942.8l-91.434-91.434z" fill="#A0D468" /></svg>