<?xml version="1.0" standalone="no"?><!DOCTYPE svg PUBLIC "-//W3C//DTD SVG 1.1//EN" "http://www.w3.org/Graphics/SVG/1.1/DTD/svg11.dtd"><svg class="icon" width="128px" height="128.00px" viewBox="0 0 1024 1024" version="1.1" xmlns="http://www.w3.org/2000/svg"><path d="M661.328 1024H362.672l64-213.312h170.656z" fill="#434A54" /><path d="M722.422 251.188l-118.312-198.312C585.61 21.25 551.296 0 511.984 0c-39.282 0-73.562 21.25-92.094 52.876l-118.344 198.312a21.47 21.47 0 0 0-2.876 10.718v591.406h426.656V261.906a21.146 21.146 0 0 0-2.904-10.718z" fill="#E6E9ED" /><path d="M725.328 298.688v-36.782c0-2.032-0.282-4.032-0.844-5.906H299.516a21.734 21.734 0 0 0-0.844 5.906v36.782h128v128h-128v42.624h426.656v-42.624h-256v-128h256z" fill="#CCD1D9" /><path d="M381.86 960h260.25l-12.782-42.688H394.672z" fill="#656D78" /><path d="M639.984 362.688c0 11.75-9.532 21.312-21.312 21.312s-21.344-9.562-21.344-21.312c0-11.812 9.562-21.376 21.344-21.376s21.312 9.564 21.312 21.376z" fill="#ED5565" /><path d="M490.672 725.312h-106.688c-11.75 0-21.312 9.562-21.312 21.376 0 11.75 9.562 21.312 21.312 21.312h106.688c11.782 0 21.312-9.562 21.312-21.312 0-11.812-9.53-21.376-21.312-21.376zM490.672 640h-106.688c-11.75 0-21.312 9.562-21.312 21.312 0 11.812 9.562 21.376 21.312 21.376h106.688c11.782 0 21.312-9.562 21.312-21.376 0-11.75-9.53-21.312-21.312-21.312zM383.984 597.312h106.688c11.782 0 21.312-9.532 21.312-21.312s-9.532-21.312-21.312-21.312h-106.688c-11.75 0-21.312 9.532-21.312 21.312s9.562 21.312 21.312 21.312z" fill="#434A54" /></svg>