<?xml version="1.0" standalone="no"?><!DOCTYPE svg PUBLIC "-//W3C//DTD SVG 1.1//EN" "http://www.w3.org/Graphics/SVG/1.1/DTD/svg11.dtd"><svg class="icon" width="128px" height="128.00px" viewBox="0 0 1024 1024" version="1.1" xmlns="http://www.w3.org/2000/svg"><path d="M292.556 595.97l-60.326 60.344c-8.328 8.312-21.844 8.312-30.172 0l-0.344 0.312c-8.328-8.312-21.828-8.312-30.17 0-8.328 8.344-8.328 21.874 0 30.154a21.866 21.866 0 0 0 4.36 3.344c25.156 21.218 62.78 20 86.482-3.688l60.342-60.31-30.172-30.156z" fill="#434A54" /><path d="M108.982 692.532l-0.032-0.032c5.484 0 10.938-2.094 15.094-6.282a21.294 21.294 0 0 0 0-30.154 21.304 21.304 0 0 0-15.876-6.218h-41.06a21.374 21.374 0 0 0-15.89 6.218 21.32 21.32 0 0 0 0 30.154 21.21 21.21 0 0 0 15.078 6.282v0.032h42.686zM147.95 731.686c0-11.78-9.562-21.342-21.342-21.342a21.22 21.22 0 0 0-15.656 6.876l-29 28.998c-4.188 3.906-6.844 9.438-6.844 15.624 0 11.782 9.562 21.344 21.342 21.344 5.89 0 11.218-2.406 15.062-6.282l0.046 0.062 30.17-30.188h-0.046a21.28 21.28 0 0 0 6.268-15.092zM81.656 596.876l28.968 28.968a21.164 21.164 0 0 0 15.656 6.906c11.78 0 21.328-9.562 21.342-21.344 0-5.906-2.39-11.218-6.25-15.094l0.016-0.032-30.156-30.154h-0.016c-3.876-3.844-9.204-6.25-15.094-6.25-11.78 0-21.342 9.562-21.342 21.344 0 6.188 2.656 11.75 6.876 15.656z" fill="#FFCE54" /><path d="M657.062 533.128l-60.312-60.342L105.904 963.65l60.326 60.34z" fill="#FFD2A6" /><path d="M413.396 776.842L202.23 565.66 699.498 68.376 910.68 279.542z" fill="#ED5564" /><path d="M722.964 467.24l42.658-42.67V134.5l-42.658-42.658zM637.624 552.566l42.686-42.64V87.594l-42.686 42.64zM552.314 637.908L595 595.22V172.904l-42.686 42.656zM466.988 723.216l42.672-42.654V258.23l-42.672 42.654zM381.664 745.092l31.732 31.75 10.938-10.968V343.556l-42.67 42.654zM296.336 659.784l42.672 42.654V428.882l-42.672 42.67z" fill="#DA4453" /><path d="M978.302 34.922c4.312-23.092-11.06-38.466-34.186-34.202l-337.96 74.482c-23.094 4.25-28.376 21.342-11.782 37.92l271.554 271.54c16.562 16.594 33.624 11.282 37.906-11.78l74.468-337.96z" fill="#E6E9ED" /><path d="M903.836 372.882l74.466-337.96c4-21.5-9.062-36.326-29.56-34.78-0.062 1.5-0.312 3.016-0.624 4.594L873.68 342.712c-4.282 23.078-21.31 28.39-37.936 11.782l30.186 30.17c16.562 16.592 33.624 11.28 37.906-11.782zM594.406 113.156l-0.03-0.048v0.016l0.03 0.032z" fill="#FFFFFF" opacity=".2" /><path d="M383.226 746.654l30.17 30.188 422.348-422.348-30.186-30.172z" fill="#FFFFFF" opacity=".2" /></svg>