<?xml version="1.0" standalone="no"?><!DOCTYPE svg PUBLIC "-//W3C//DTD SVG 1.1//EN" "http://www.w3.org/Graphics/SVG/1.1/DTD/svg11.dtd"><svg class="icon" width="128px" height="128.00px" viewBox="0 0 1024 1024" version="1.1" xmlns="http://www.w3.org/2000/svg"><path d="M999.006 728.994L654.42 384.378l-30.186 30.188H399.8l-30.186-30.188L24.998 728.994c-33.312 33.312-33.312 87.376 0 120.688A85.146 85.146 0 0 0 85.34 874.68H938.664c21.876 0 43.688-8.344 60.344-24.998 33.34-33.312 33.34-87.376-0.002-120.688z" fill="#CCD1D9" /><path d="M512.018 21.324c-51.624 0-149.342 97.342-149.342 213.338v682.674h298.68V234.662c0.002-115.996-97.746-213.338-149.338-213.338z" fill="#E6E9ED" /><path d="M469.364 938.678c-11.814 0-21.344 9.562-21.344 21.312h-42.656c0-11.75-9.562-21.312-21.376-21.312-11.75 0-21.312 9.562-21.312 21.312v21.344c0 11.782 9.562 21.344 21.312 21.344h85.376c11.75 0 21.312-9.562 21.312-21.344v-21.344c0-11.75-9.562-21.312-21.312-21.312zM640.014 938.678c-11.78 0-21.342 9.562-21.342 21.312h-42.656c0-11.75-9.562-21.312-21.344-21.312-11.78 0-21.31 9.562-21.31 21.312v21.344c0 11.782 9.532 21.344 21.31 21.344h85.342c11.782 0 21.344-9.562 21.344-21.344v-21.344c0-11.75-9.564-21.312-21.344-21.312z" fill="#434A54" /><path d="M512.018 639.558c-11.782 0-21.342 9.562-21.342 21.312v256.464h0.062c0.5 11.344 9.812 20.376 21.28 20.376 11.468 0 20.78-9.032 21.28-20.376h0.062V660.872c0.002-11.75-9.562-21.314-21.342-21.314z" fill="#CCD1D9" /><path d="M512.018 149.32c-35.342 0-64 28.688-64 64a21.31 21.31 0 0 0 21.344 21.342c11.75 0 21.312-9.532 21.312-21.342 0-11.75 9.562-21.312 21.342-21.312s21.342 9.562 21.342 21.312c0 11.812 9.532 21.342 21.31 21.342 11.782 0 21.344-9.532 21.344-21.342 0.004-35.312-28.65-64-63.994-64z" fill="#4FC1E9" /></svg>