<?xml version="1.0" standalone="no"?><!DOCTYPE svg PUBLIC "-//W3C//DTD SVG 1.1//EN" "http://www.w3.org/Graphics/SVG/1.1/DTD/svg11.dtd"><svg class="icon" width="128px" height="128.00px" viewBox="0 0 1024 1024" version="1.1" xmlns="http://www.w3.org/2000/svg"><path d="M415.994 603.56h191.994v420.428h-191.994z" fill="#DBADA2" /><path d="M373.324 789.304h277.352v170.684H373.324z" fill="#434A54" /><path d="M490.666 874.618c0 11.81-9.562 21.374-21.344 21.374s-21.328-9.562-21.328-21.374c0-11.75 9.546-21.312 21.328-21.312s21.344 9.562 21.344 21.312zM575.988 874.618c0 11.81-9.558 21.374-21.308 21.374-11.796 0-21.36-9.562-21.36-21.374 0-11.75 9.562-21.312 21.36-21.312 11.75-0.002 21.308 9.562 21.308 21.312zM373.324 895.99h-21.328c-11.782 0-21.328-9.562-21.328-21.374 0-11.75 9.546-21.312 21.328-21.312h21.328c11.78 0 21.342 9.562 21.342 21.312 0 11.812-9.562 21.374-21.342 21.374zM671.988 895.99h-21.312a21.366 21.366 0 0 1-21.376-21.374c0-11.75 9.562-21.312 21.376-21.312h21.312c11.782 0 21.312 9.562 21.312 21.312 0 11.812-9.53 21.374-21.312 21.374z" fill="#FFCE54" /><path d="M671.988 0.012c-23.562 0-42.688 19.094-42.688 42.656v301.462c0 5.876-4.75 10.656-10.624 10.656-5.906 0-10.688-4.782-10.688-10.656v-45.466c0-23.562-19.124-42.656-42.684-42.656-23.546 0-42.64 19.094-42.64 42.656V344.132a10.672 10.672 0 0 1-21.344 0v-45.466c0-23.562-19.092-42.656-42.656-42.656-23.562 0-42.67 19.094-42.67 42.656V344.134c0 5.876-4.78 10.656-10.67 10.656s-10.656-4.782-10.656-10.656V85.322c0-23.56-19.11-42.654-42.67-42.654s-42.67 19.094-42.67 42.654V479.502c0 111.936 90.748 202.684 202.666 202.684 111.934 0 202.684-90.748 202.684-202.684V42.668C714.676 19.106 695.55 0.012 671.988 0.012z" fill="#EAC6BB" /></svg>