<?xml version="1.0" standalone="no"?><!DOCTYPE svg PUBLIC "-//W3C//DTD SVG 1.1//EN" "http://www.w3.org/Graphics/SVG/1.1/DTD/svg11.dtd"><svg class="icon" width="128px" height="128.00px" viewBox="0 0 1024 1024" version="1.1" xmlns="http://www.w3.org/2000/svg"><path d="M385.438 0c-11.75 0-21.312 9.562-21.312 21.312V128h42.624V21.312c0-11.75-9.5-21.312-21.312-21.312z" fill="#CCD1D9" /><path d="M321.438 960v42.688c0 11.75 9.562 21.312 21.312 21.312h85.376c11.75 0 21.312-9.562 21.312-21.312V960h-128z" fill="#434A54" /><path d="M597.876 948l-148.438-222.688v256h130.812c11.75 0 21.312-9.532 21.312-21.312 0-4.438-1.374-8.562-3.686-12zM169.25 960c0 11.782 9.562 21.312 21.376 21.312h130.812v-256L172.938 948a21.43 21.43 0 0 0-3.688 12z" fill="#CCD1D9" /><path d="M848.938 815.968l-30.126-30.156-171.562 171.564 30.188 30.156z" fill="#656D78" /><path d="M818.812 987.532l30.126-30.156-171.562-171.564-30.126 30.156z" fill="#656D78" /><path d="M848.938 628.624l-30.126-30.156-171.562 171.564 30.188 30.156z" fill="#656D78" /><path d="M818.812 800.188l30.126-30.156-171.562-171.564-30.126 30.156z" fill="#656D78" /><path d="M848.938 441.312l-30.126-30.188-171.562 171.564 30.188 30.188z" fill="#656D78" /><path d="M818.812 612.876l30.126-30.188-171.562-171.564-30.126 30.188z" fill="#656D78" /><path d="M848.938 253.968l-30.126-30.156-171.562 171.564 30.188 30.156z" fill="#656D78" /><path d="M818.812 425.532l30.126-30.156-171.562-171.564-30.126 30.156z" fill="#656D78" /><path d="M848.938 66.624l-30.126-30.156-171.562 171.564 30.188 30.156z" fill="#656D78" /><path d="M818.812 238.188l30.126-30.156-171.562-171.564-30.126 30.156z" fill="#656D78" /><path d="M449.438 243.812V170.688c0-35.376-28.624-64-64-64-35.312 0-64 28.624-64 64v73.124l-42.688 154.406v583.094h213.376V398.218l-42.688-154.406z" fill="#E6E9ED" /><path d="M406.75 618.688c0 11.75-9.5 21.312-21.312 21.312-11.75 0-21.312-9.562-21.312-21.312 0-11.812 9.562-21.376 21.312-21.376 11.812 0 21.312 9.564 21.312 21.376zM406.75 704c0 11.782-9.5 21.312-21.312 21.312-11.75 0-21.312-9.532-21.312-21.312s9.562-21.312 21.312-21.312A21.278 21.278 0 0 1 406.75 704zM406.75 533.312c0 11.812-9.5 21.376-21.312 21.376-11.75 0-21.312-9.562-21.312-21.376 0-11.75 9.562-21.312 21.312-21.312 11.812 0 21.312 9.562 21.312 21.312zM833.438 0h-384c-11.812 0-21.312 9.562-21.312 21.312 0 11.812 9.5 21.376 21.312 21.376h192V1024h213.312V21.312C854.75 9.562 845.188 0 833.438 0z m-21.314 981.312h-128V42.688h128v938.624z" fill="#434A54" /><path d="M278.75 398.218v28.47h213.374v-28.47L488.188 384h-205.5zM458.688 277.312l-9.25-33.5v-9.124h-128v9.124l-9.25 33.5z" fill="#F5F7FA" /><path d="M385.438 789.312c-11.75 0-21.312 9.562-21.312 21.376V960c0 11.782 9.562 21.312 21.312 21.312A21.28 21.28 0 0 0 406.75 960v-149.312c0-11.812-9.5-21.376-21.312-21.376z" fill="#CCD1D9" /></svg>