<?xml version="1.0" standalone="no"?><!DOCTYPE svg PUBLIC "-//W3C//DTD SVG 1.1//EN" "http://www.w3.org/Graphics/SVG/1.1/DTD/svg11.dtd"><svg class="icon" width="128px" height="128.00px" viewBox="0 0 1024 1024" version="1.1" xmlns="http://www.w3.org/2000/svg"><path d="M920.058 772.992l-3.624-1.062c-52.874-14.188-70.808-27.876-94.308-36.782-83.562-31.84-105.248-54.778-110.81-65.622-0.188-0.376-0.376-0.812-0.562-1.188l-0.688-97.032-198.072-2.25-198.058 2.25-0.688 97.032c-0.188 0.376-0.312 0.812-0.532 1.188-5.562 10.844-27.28 33.782-110.808 65.622-23.532 8.906-41.438 22.594-94.342 36.782l-3.624 1.062c-48.124 15.906-80.498 60.562-80.498 110.934v140.062H1000.56v-140.062c-0.002-50.372-32.376-95.028-80.502-110.934z" fill="#656D78" /><path d="M764.062 709.778a292.496 292.496 0 0 1-17.312-9.468c-1.688-1-3.25-2-4.812-2.938v-0.062a24.602 24.602 0 0 1-2.124-1.376c-0.062 0-0.124-0.062-0.188-0.062a443.36 443.36 0 0 1-4.062-2.688 0.878 0.878 0 0 0-0.25-0.188c-0.5-0.376-1.062-0.75-1.562-1.124-0.124-0.062-0.25-0.124-0.312-0.188-1.188-0.876-2.312-1.688-3.312-2.438-0.124-0.124-0.25-0.188-0.376-0.312-0.438-0.312-0.812-0.624-1.186-0.876-0.124-0.124-0.25-0.188-0.376-0.312-0.5-0.376-0.938-0.75-1.438-1.124-0.438 0.438-0.688 0.188-0.75-0.624-8.5-7-12.688-12.562-14.688-16.468-0.188-0.376-0.376-0.812-0.562-1.188l-0.688-97.032-198.072-2.25-198.058 2.25-0.688 97.032c-0.188 0.376-0.312 0.812-0.532 1.188-3.656 7.156-14.406 19.532-45.28 36.344 8.876 10.594 27.124 30.09 55.466 49.372 37.344 25.344 100.404 55.624 189.09 55.624 88.386 0 154.512-30.032 194.51-55.25 27.624-17.41 46.876-34.968 57.562-45.842z" fill="#DBAFA5" /><path d="M786.876 383.596c0 178.588-170.246 342.928-274.882 342.928-104.592 0-274.838-164.34-274.838-342.928 0-178.558 123.06-296.4 274.838-296.4 151.822 0 274.882 117.842 274.882 296.4z" fill="#EAC6BB" /><path d="M764.062 709.778c-17.376-8.844-29.25-16.594-37.31-23.156-9.812 9.188-24.75 21.532-44.498 33.906-50.876 31.652-108.124 47.714-170.262 47.714-61.716 0-116.748-15.876-163.496-47.152-22.5-15.094-37.624-30.344-45.594-39.406-6.938 6.562-17.966 14.688-35.466 24.188 8.876 10.594 27.124 30.09 55.466 49.372 37.344 25.344 100.404 55.624 189.09 55.624 88.386 0 154.512-30.032 194.51-55.25 27.622-17.408 46.874-34.966 57.56-45.84z" fill="#434A54" /><path d="M597.254 917.426c0-47.09-38.186-85.246-85.262-85.246-47.062 0-85.248 38.156-85.248 85.246 0 31.562 17.188 59.094 42.686 73.844h-0.062v32.718h85.264v-32.718h-0.062c25.496-14.75 42.684-42.282 42.684-73.844z" fill="#E6E9ED" /><path d="M490.68 917.426a21.3 21.3 0 0 1-21.312 21.312c-11.75 0-21.31-9.532-21.31-21.312s9.56-21.312 21.31-21.312a21.3 21.3 0 0 1 21.312 21.312zM575.942 917.426c0 11.782-9.56 21.312-21.31 21.312-11.766 0-21.328-9.532-21.328-21.312s9.562-21.312 21.328-21.312c11.748 0 21.31 9.53 21.31 21.312z" fill="#434A54" /><path d="M617.566 57.136C616.754 54.824 597.316 0.012 511.992 0.012c-85.374 0-104.592 54.874-105.374 57.218a21.3 21.3 0 0 0-1.062 6.718v149.184a21.28 21.28 0 0 0 21.312 21.312h170.51c11.75 0 21.312-9.532 21.312-21.312V63.948a20.99 20.99 0 0 0-1.124-6.812z" fill="#FC6E51" /><path d="M597.254 618.09c0 11.782-9.562 21.312-21.312 21.312-11.748 0-21.31-9.532-21.31-21.312s9.562-21.312 21.31-21.312c11.75 0 21.312 9.53 21.312 21.312zM469.492 618.09c0 11.782-9.562 21.312-21.31 21.312-11.782 0-21.312-9.532-21.312-21.312s9.532-21.312 21.312-21.312c11.748 0 21.31 9.53 21.31 21.312z" fill="#AAB2BC" /><path d="M490.68 234.444h42.624V1.262c-6.592-0.812-13.686-1.25-21.31-1.25-7.594 0-14.688 0.438-21.312 1.25v233.182z" fill="#E9573F" /></svg>