<?xml version="1.0" standalone="no"?><!DOCTYPE svg PUBLIC "-//W3C//DTD SVG 1.1//EN" "http://www.w3.org/Graphics/SVG/1.1/DTD/svg11.dtd"><svg class="icon" width="128px" height="128.00px" viewBox="0 0 1024 1024" version="1.1" xmlns="http://www.w3.org/2000/svg"><path d="M1002.634 234.668h-106.65c-11.782 0-21.342 9.56-21.342 21.342V512c0 11.78 9.56 21.342 21.342 21.342h106.65c11.782 0 21.344-9.562 21.344-21.342V256.01c0-11.782-9.562-21.342-21.344-21.342z" fill="#CCD1D9" /><path d="M874.642 384.006V512c0 11.78 9.56 21.342 21.342 21.342h106.65c11.782 0 21.344-9.562 21.344-21.342v-127.994h-149.336z" fill="#5D9CEC" /><path d="M853.33 575.996a21.298 21.298 0 0 1-15.092-6.25c-8.344-8.342-8.344-21.842 0-30.154l42.652-42.686c8.344-8.312 21.844-8.312 30.188 0 8.312 8.344 8.312 21.844 0 30.186l-42.686 42.654a21.276 21.276 0 0 1-15.062 6.25z" fill="#434A54" /><path d="M192.012 661.336c-11.78 0-21.342-9.562-21.342-21.342V170.67c0-11.782 9.562-21.31 21.342-21.31 11.782 0 21.344 9.53 21.344 21.31v469.324c0 11.78-9.562 21.342-21.344 21.342zM469.346 661.336c-11.782 0-21.344-9.562-21.344-21.342V170.67c0-11.782 9.562-21.31 21.344-21.31 11.78 0 21.312 9.53 21.312 21.31v469.324c0 11.78-9.532 21.342-21.312 21.342zM746.646 661.336c-11.78 0-21.31-9.562-21.31-21.342V170.67a21.296 21.296 0 0 1 21.31-21.31c11.782 0 21.342 9.53 21.342 21.31v469.324c0 11.78-9.56 21.342-21.342 21.342z" fill="#CCD1D9" /><path d="M912.484 626.464a21.394 21.394 0 0 0-16.5-7.812H42.676a21.4 21.4 0 0 0-16.5 7.812 21.406 21.406 0 0 0-4.406 17.714l42.656 213.338c2 9.966 10.75 17.124 20.936 17.124h767.968c10.156 0 18.906-7.156 20.906-17.124l42.654-213.338a21.194 21.194 0 0 0-4.406-17.714z" fill="#EC5564" /><path d="M895.984 661.336H42.676c-11.782 0-21.312-9.562-21.312-21.342V170.67A21.296 21.296 0 0 1 42.676 149.36h853.308c11.782 0 21.344 9.53 21.344 21.31v469.324c0 11.78-9.562 21.342-21.344 21.342zM64.018 618.652h810.624V192.012H64.018v426.64z" fill="#E6E9ED" /><path d="M469.346 618.652c-94.122 0-170.68-76.56-170.68-170.65s76.558-170.648 170.68-170.648c94.09 0 170.65 76.558 170.65 170.648s-76.56 170.65-170.65 170.65z m0-298.644c-70.59 0-127.996 57.404-127.996 127.994 0 70.592 57.404 127.994 127.996 127.994 70.558 0 127.996-57.402 127.996-127.994 0-70.59-57.438-127.994-127.996-127.994z" fill="#FFCE54" /><path d="M639.996 661.336a21.348 21.348 0 0 1-15.938-7.156l-170.682-191.99c-7.81-8.812-7.03-22.312 1.782-30.124 8.812-7.844 22.28-7.032 30.124 1.75l170.65 191.992c7.842 8.812 7.03 22.308-1.75 30.122a21.222 21.222 0 0 1-14.186 5.406z" fill="#434A54" /><path d="M298.666 661.336c-5.032 0-10.094-1.782-14.156-5.406-8.812-7.812-9.594-21.308-1.782-30.122l170.648-191.992c7.844-8.782 21.312-9.594 30.124-1.75 8.812 7.81 9.594 21.31 1.782 30.124l-170.65 191.99a21.408 21.408 0 0 1-15.966 7.156z" fill="#434A54" /><path d="M895.984 426.66H42.676a21.3 21.3 0 0 1-21.312-21.312c0-11.78 9.532-21.342 21.312-21.342h853.308c11.782 0 21.344 9.562 21.344 21.342s-9.562 21.312-21.344 21.312z" fill="#E6E9ED" /><path d="M883.61 810.642l8.53-42.654H46.518l8.532 42.654zM810.644 831.986c-11.782 0-21.312 9.562-21.312 21.344v21.31h42.656v-21.31c0-11.782-9.562-21.344-21.344-21.344zM725.336 831.986c-11.782 0-21.344 9.562-21.344 21.344v21.31h42.654v-21.31c0-11.782-9.53-21.344-21.31-21.344zM639.996 831.986c-11.782 0-21.342 9.562-21.342 21.344v21.31h42.682v-21.31c0-11.782-9.56-21.344-21.34-21.344zM554.654 831.986c-11.782 0-21.31 9.562-21.31 21.344v21.31h42.654v-21.31c0-11.782-9.562-21.344-21.344-21.344zM469.346 831.986c-11.782 0-21.344 9.562-21.344 21.344v21.31h42.656v-21.31c0-11.782-9.532-21.344-21.312-21.344zM384.006 831.986c-11.782 0-21.344 9.562-21.344 21.344v21.31h42.686v-21.31c0-11.782-9.562-21.344-21.342-21.344zM298.666 831.986c-11.782 0-21.312 9.562-21.312 21.344v21.31h42.654v-21.31c0-11.782-9.562-21.344-21.342-21.344zM213.356 831.986c-11.782 0-21.344 9.562-21.344 21.344v21.31h42.656v-21.31c0-11.782-9.532-21.344-21.312-21.344zM128.016 831.986c-11.782 0-21.344 9.562-21.344 21.344v21.31H149.36v-21.31c0-11.782-9.564-21.344-21.344-21.344z" fill="#DA4453" /><path d="M128.016 490.656h-85.34c-11.782 0-21.312 9.562-21.312 21.344v127.994c0 11.78 9.532 21.342 21.312 21.342h85.34c11.78 0 21.342-9.562 21.342-21.342V512c0.002-11.782-9.562-21.344-21.342-21.344z m-21.344 127.996H64.018v-85.31h42.654v85.31z" fill="#E6E9ED" /><path d="M917.328 661.336H21.364c-11.78 0-21.342-9.562-21.342-21.342s9.562-21.342 21.342-21.342h895.964c11.78 0 21.31 9.562 21.31 21.342s-9.53 21.342-21.31 21.342z" fill="#DA4453" /></svg>