<?xml version="1.0" standalone="no"?><!DOCTYPE svg PUBLIC "-//W3C//DTD SVG 1.1//EN" "http://www.w3.org/Graphics/SVG/1.1/DTD/svg11.dtd"><svg class="icon" width="128px" height="128.00px" viewBox="0 0 1024 1024" version="1.1" xmlns="http://www.w3.org/2000/svg"><path d="M809.642 366.394a21.216 21.216 0 0 1-15.062-6.248l-46.406-46.376c-8.312-8.344-8.312-21.842 0-30.17a21.332 21.332 0 0 1 30.188 0l46.374 46.374c8.344 8.344 8.344 21.844 0 30.172a21.238 21.238 0 0 1-15.094 6.248z" fill="#E6E9ED" /><path d="M598.336 0.018H385c-35.294 0-63.998 28.716-63.998 63.996v405.33c0 35.282 28.704 63.998 63.998 63.998h213.336c35.282 0 64-28.716 64-63.998V64.014c0-35.28-28.718-63.996-64-63.996z m21.344 469.326c0 11.766-9.594 21.328-21.344 21.328H385c-11.764 0-21.326-9.562-21.326-21.328V64.014c0-11.75 9.562-21.326 21.326-21.326h213.336c11.75 0 21.344 9.576 21.344 21.326v405.33z" fill="#434A54" /><path d="M321.002 895.986c-35.294 0-63.998 28.716-63.998 63.996 0 35.312 28.704 64 63.998 64 35.282 0 63.998-28.688 63.998-64 0-35.278-28.716-63.996-63.998-63.996zM662.336 895.986c-35.282 0-64 28.716-64 63.996 0 35.312 28.718 64 64 64 35.28 0 63.994-28.688 63.994-64 0-35.278-28.714-63.996-63.994-63.996z" fill="#434A54" /><path d="M726.33 256.008H257.004c-35.294 0-63.996 28.718-63.996 63.998v575.98c0 35.31 28.702 63.996 63.996 63.996h469.326c35.282 0 64-28.686 64-63.996v-575.98c0-35.28-28.718-63.998-64-63.998z" fill="#A0D468" /><path d="M598.336 0.018H385c-35.294 0-63.998 28.716-63.998 63.996v0.016h341.334v-0.016c0-35.28-28.718-63.996-64-63.996z" fill="#8CC153" /><path d="M683.678 341.35H299.676c-11.782 0-21.344 9.546-21.344 21.326v127.996c0 11.782 9.562 21.328 21.344 21.328h384.002c11.782 0 21.312-9.546 21.312-21.328v-127.996c0-11.78-9.532-21.326-21.312-21.326z" fill="#E6E9ED" /><path d="M683.678 597.34H297.676c-11.782 0-21.344-9.562-21.344-21.344s9.562-21.31 21.344-21.31h386.002c11.782 0 21.312 9.53 21.312 21.31s-9.532 21.344-21.312 21.344z" fill="#8CC153" /><path d="M720.08 688.932c8.344 8.31 8.344 21.81 0 30.152a21.328 21.328 0 0 1-30.184 0c-8.31-8.342-8.31-21.842 0-30.152a21.328 21.328 0 0 1 30.184 0z" fill="#E6E9ED" /><path d="M342.338 448.008m-21.334 0a21.334 21.334 0 1 0 42.668 0 21.334 21.334 0 1 0-42.668 0Z" fill="#CCD1D9" /><path d="M683.678 639.996H299.676c-11.782 0-21.344 9.56-21.344 21.342v277.334c0 11.75 9.562 21.31 21.344 21.31h384.002c11.782 0 21.312-9.56 21.312-21.31V661.338c0-11.782-9.532-21.342-21.312-21.342z" fill="#656D78" /><path d="M400.078 390.254c8.328 8.328 8.328 21.842 0 30.17s-21.826 8.328-30.17 0c-8.328-8.328-8.328-21.842 0-30.17 8.344-8.328 21.842-8.328 30.17 0z" fill="#CCD1D9" /><path d="M620.054 767.99h-256.38c-11.782 0-21.344-9.562-21.344-21.312 0-11.812 9.562-21.344 21.344-21.344h256.38c11.782 0 21.312 9.532 21.312 21.344 0.002 11.75-9.53 21.312-21.312 21.312z" fill="#434A54" /><path d="M427.664 448.008m-21.334 0a21.334 21.334 0 1 0 42.668 0 21.334 21.334 0 1 0-42.668 0Z" fill="#CCD1D9" /><path d="M620.054 853.33h-256.38c-11.782 0-21.344-9.562-21.344-21.344 0-11.78 9.562-21.31 21.344-21.31h256.38a21.298 21.298 0 0 1 21.312 21.31c0.002 11.782-9.53 21.344-21.312 21.344z" fill="#434A54" /><path d="M470.334 405.338m-21.334 0a21.334 21.334 0 1 0 42.668 0 21.334 21.334 0 1 0-42.668 0Z" fill="#CCD1D9" /><path d="M528.09 432.924c8.328 8.328 8.328 21.842 0 30.17-8.344 8.328-21.844 8.328-30.172 0-8.344-8.328-8.344-21.842 0-30.17 8.328-8.328 21.828-8.328 30.172 0zM570.744 390.254c8.344 8.328 8.344 21.842 0 30.17-8.312 8.328-21.842 8.328-30.17 0s-8.328-21.842 0-30.17 21.858-8.328 30.17 0zM613.43 432.924c8.312 8.328 8.312 21.842 0 30.17-8.344 8.328-21.844 8.328-30.188 0-8.31-8.328-8.31-21.842 0-30.17 8.344-8.328 21.844-8.328 30.188 0zM656.086 390.254c8.344 8.328 8.344 21.842 0 30.17s-21.844 8.328-30.156 0c-8.344-8.328-8.344-21.842 0-30.17 8.312-8.328 21.812-8.328 30.156 0z" fill="#CCD1D9" /></svg>