<?xml version="1.0" standalone="no"?><!DOCTYPE svg PUBLIC "-//W3C//DTD SVG 1.1//EN" "http://www.w3.org/Graphics/SVG/1.1/DTD/svg11.dtd"><svg class="icon" width="128px" height="128.00px" viewBox="0 0 1024 1024" version="1.1" xmlns="http://www.w3.org/2000/svg"><path d="M853.308 181.322H170.672l-149.34 597.326 122.154-42.652 123.184 42.652 122.654-42.652 122.682 42.652 122.652-42.652 122.652 42.652 122.686-42.652 122.652 42.652z" fill="#ED5564" /><path d="M1023.336 773.46l-37.312-149.306zM1023.96 778.18c0.156 6.062-2.312 12-6.906 16.218a21.392 21.392 0 0 1-21.406 4.406l-115.652-40.214-115.654 40.214h-0.062c-0.218 0.094-0.438 0.124-0.656 0.218a15.762 15.762 0 0 1-1.282 0.344c-0.218 0.062-0.468 0.094-0.688 0.156-0.438 0.094-0.906 0.156-1.344 0.218-0.124 0.032-0.218 0.062-0.344 0.062a3.38 3.38 0 0 1-0.562 0.062c-0.156 0.032-0.344 0.032-0.5 0.062-0.532 0.032-1.062 0.062-1.624 0.062-0.25 0-0.532-0.032-0.782-0.032-0.344-0.032-0.688-0.032-1-0.062-0.376-0.032-0.75-0.094-1.124-0.124-0.218-0.032-0.468-0.062-0.718-0.124a11.024 11.024 0 0 1-1.094-0.218c-0.25-0.062-0.468-0.094-0.688-0.156-0.374-0.094-0.716-0.218-1.092-0.344-0.156-0.032-0.312-0.062-0.468-0.124l-115.654-40.214-115.652 40.214-0.282 0.094-0.938 0.282c-0.344 0.094-0.656 0.156-1 0.25-0.282 0.062-0.594 0.124-0.876 0.188-0.406 0.062-0.782 0.124-1.188 0.188l-0.75 0.094c-1.312 0.094-2.656 0.094-3.968 0l-0.75-0.094c-0.376-0.062-0.782-0.124-1.188-0.188-0.282-0.062-0.594-0.124-0.876-0.188-0.344-0.094-0.656-0.156-1-0.25l-0.938-0.282c-0.062-0.032-0.188-0.062-0.282-0.094l-115.652-40.214-115.654 40.214c-0.156 0.062-0.312 0.094-0.468 0.156-0.376 0.094-0.718 0.218-1.062 0.312-0.218 0.062-0.468 0.094-0.688 0.156-0.376 0.094-0.75 0.156-1.124 0.218-0.218 0.062-0.468 0.094-0.688 0.124-0.376 0.032-0.75 0.094-1.124 0.124-0.312 0.032-0.656 0.032-0.968 0.062-0.282 0-0.562 0.032-0.844 0.032-0.532 0-1.062-0.032-1.624-0.062-0.156-0.032-0.312-0.032-0.468-0.062-0.188 0-0.376-0.032-0.594-0.062-0.094 0-0.218-0.032-0.344-0.062a18.492 18.492 0 0 1-1.312-0.218c-0.25-0.062-0.468-0.094-0.718-0.156a10.014 10.014 0 0 1-1.312-0.376c-0.188-0.062-0.406-0.094-0.594-0.188h-0.032l-116.184-40.214-115.154 40.214a21.696 21.696 0 0 1-7.032 1.188c-5.218 0-10.374-1.938-14.374-5.594a21.34 21.34 0 0 1-6.938-16.218v64.468c0 6.904 3.344 13.404 8.968 17.404 5.656 4 12.874 5 19.374 2.75l115.154-40.216L259.7 862.8c4.532 1.562 9.436 1.562 13.968 0l115.654-40.216 115.652 40.216c4.562 1.562 9.5 1.562 14.03 0l115.652-40.216 115.654 40.216c4.53 1.562 9.466 1.562 14.03 0l115.654-40.216 115.652 40.216c2.282 0.782 4.656 1.188 7 1.188 4.376 0 8.718-1.344 12.344-3.968 5.656-4 9-10.468 9-17.374v-64c0.002-0.154-0.03-0.31-0.03-0.466zM1023.336 773.46zM0.364 774.836zM1023.96 777.554zM1023.836 776.21c-0.032-0.312-0.094-0.594-0.124-0.906 0.03 0.314 0.092 0.594 0.124 0.906zM0.146 776.21c0.032-0.312 0.094-0.594 0.124-0.906-0.03 0.314-0.094 0.594-0.124 0.906zM0.052 777.554z" fill="#656D78" /><path d="M1023.336 773.46L969.96 560v-0.062L874.028 176.166a21.334 21.334 0 0 0-20.718-16.156H170.672a21.32 21.32 0 0 0-20.686 16.156L54.02 559.938V560L0.646 773.46a21.346 21.346 0 0 0 6.312 20.938c4 3.656 9.156 5.594 14.374 5.594 2.376 0 4.75-0.406 7.032-1.188l115.154-40.214 116.184 40.214h0.032c0.188 0.094 0.406 0.124 0.594 0.188 0.438 0.156 0.876 0.282 1.312 0.376 0.25 0.062 0.468 0.094 0.718 0.156 0.438 0.094 0.876 0.156 1.312 0.218a1.552 1.552 0 0 0 0.344 0.062c0.218 0.032 0.406 0.062 0.594 0.062 0.156 0.032 0.312 0.032 0.468 0.062 0.562 0.032 1.094 0.062 1.624 0.062 0.282 0 0.562-0.032 0.844-0.032 0.312-0.032 0.656-0.032 0.968-0.062 0.376-0.032 0.75-0.094 1.124-0.124 0.218-0.032 0.468-0.062 0.688-0.124 0.376-0.062 0.75-0.124 1.124-0.218 0.218-0.062 0.468-0.094 0.688-0.156 0.344-0.094 0.688-0.218 1.062-0.312 0.156-0.062 0.312-0.094 0.468-0.156l115.654-40.214 115.652 40.214c0.094 0.032 0.218 0.062 0.282 0.094l0.938 0.282c0.344 0.094 0.656 0.156 1 0.25 0.282 0.062 0.594 0.124 0.876 0.188 0.406 0.062 0.812 0.124 1.188 0.188l0.75 0.094c1.312 0.094 2.656 0.094 3.968 0l0.75-0.094c0.406-0.062 0.782-0.124 1.188-0.188 0.282-0.062 0.594-0.124 0.876-0.188 0.344-0.094 0.656-0.156 1-0.25l0.938-0.282 0.282-0.094 115.652-40.214 115.654 40.214c0.156 0.062 0.312 0.094 0.468 0.124 0.376 0.124 0.718 0.25 1.092 0.344 0.218 0.062 0.438 0.094 0.688 0.156 0.344 0.094 0.718 0.156 1.094 0.218 0.25 0.062 0.5 0.094 0.718 0.124 0.376 0.032 0.75 0.094 1.124 0.124 0.312 0.032 0.656 0.032 1 0.062 0.25 0 0.532 0.032 0.782 0.032 0.562 0 1.094-0.032 1.624-0.062 0.156-0.032 0.344-0.032 0.5-0.062 0.188 0 0.376-0.032 0.562-0.062 0.124 0 0.218-0.032 0.344-0.062 0.438-0.062 0.906-0.124 1.344-0.218 0.218-0.062 0.468-0.094 0.688-0.156 0.438-0.094 0.876-0.218 1.282-0.344 0.218-0.094 0.438-0.124 0.656-0.218h0.062l115.654-40.214 115.652 40.214a21.392 21.392 0 0 0 21.406-4.406 21.328 21.328 0 0 0 6.282-20.94zM140.548 389.754l80.372-27.592 73.124 25.624-18.624 148.778-85.716-29.56a21.274 21.274 0 0 0-14.062 0.032L104.986 532l35.562-142.246z m350.116-187.09v140.654l-68.654-23.876a21.404 21.404 0 0 0-13.968-0.032l-65.278 22.562 17.406-139.31h130.494z m173.15 0l17.438 139.31-65.282-22.562a21.486 21.486 0 0 0-14 0.032l-68.652 23.876v-140.654h130.496zM336.856 389.16l78.122-26.998 75.686 26.342v146.808l-81.404-28.31a21.074 21.074 0 0 0-14.062 0.032l-76.434 26.78 18.092-144.654z m196.462-0.656l75.684-26.342 78.124 26.998 18.094 144.59-76.438-26.748a21.274 21.274 0 0 0-14.062 0l-81.402 28.31v-146.808z m196.65-0.718l73.09-25.624 80.376 27.592L918.994 532l-70.654-24.966a21.38 21.38 0 0 0-14.094-0.032l-85.684 29.624-18.594-148.84z m141.122-47.374l-61.188-21a21.39 21.39 0 0 0-13.968 0.032l-71.372 25.032-17.748-141.81h129.838l34.438 137.746zM187.328 202.664h129.84l-17.718 141.81-71.406-25.032a21.404 21.404 0 0 0-13.968-0.032l-61.186 21 34.438-137.746zM143.486 714.652c-2.374 0-4.75 0.406-7.03 1.188l-84.842 29.624 40.968-163.84 90.248-31.876 87.184 30.094-21.25 170.028-98.28-34.032a21.546 21.546 0 0 0-6.998-1.186z m238.838 1.188l-90.216 31.376 20.75-166.122 89.404-31.344 88.404 30.75v168.152l-94.31-32.812a21.184 21.184 0 0 0-14.032 0z m245.334 0l-94.34 32.812V580.5l88.402-30.75 89.406 31.25 20.78 166.214-90.248-31.376a21.104 21.104 0 0 0-14 0.002z m259.338 0a21.186 21.186 0 0 0-14.032 0l-97.748 34-21.25-169.934 87.186-30.156 90.246 31.876 40.968 163.902-85.37-29.688z" fill="#DA4453" /></svg>