<?xml version="1.0" standalone="no"?><!DOCTYPE svg PUBLIC "-//W3C//DTD SVG 1.1//EN" "http://www.w3.org/Graphics/SVG/1.1/DTD/svg11.dtd"><svg class="icon" width="128px" height="128.00px" viewBox="0 0 1024 1024" version="1.1" xmlns="http://www.w3.org/2000/svg"><path d="M810.496 213.504L512 377.21l-298.48-163.706L377.212 512 213.52 810.464 512 646.79l298.496 163.674L646.79 512z" fill="#ED5564" /><path d="M512 512h134.79l163.706-298.496zM512 512v134.79l298.496 163.674zM512 512h-134.788L213.52 810.464zM512 512v-134.79l-298.48-163.706z" fill="#DA4453" /><path d="M627.55 627.52L1023.672 512l-396.122-115.55L512 0.328l-115.536 396.122L0.328 512l396.136 115.52L512 1023.672z" fill="#5D9CEC" /><path d="M512 0.328V512l115.55-115.55zM1023.672 512H512l115.55 115.52zM512 1023.672V512l-115.536 115.52zM0.328 512H512l-115.536-115.55z" fill="#4A89DC" /></svg>