<?xml version="1.0" standalone="no"?><!DOCTYPE svg PUBLIC "-//W3C//DTD SVG 1.1//EN" "http://www.w3.org/Graphics/SVG/1.1/DTD/svg11.dtd"><svg class="icon" width="128px" height="128.00px" viewBox="0 0 1024 1024" version="1.1" xmlns="http://www.w3.org/2000/svg"><path d="M575.984 0.118H234.734c-11.778 0-21.338 9.558-21.338 21.338v575.868H149.41c-11.778 0-21.322 9.532-21.322 21.308s9.544 21.34 21.322 21.34h63.986v362.572c0 11.78 9.56 21.34 21.338 21.34 11.78 0 21.324-9.56 21.324-21.34V639.97h319.924c176.708 0 319.928-143.25 319.928-319.928S752.694 0.118 575.984 0.118z m196.08 515.974c-25.494 25.494-55.176 45.49-88.168 59.456-34.18 14.434-70.484 21.776-107.912 21.776H256.06V42.764h320.364c37.302 0.062 73.452 7.404 107.474 21.776 32.992 13.964 62.674 33.96 88.168 59.456 25.462 25.462 45.458 55.114 59.424 88.136 14.436 34.148 21.744 70.454 21.744 107.912 0 37.46-7.308 73.764-21.744 107.912-13.968 33.024-33.962 62.672-59.426 88.136z" fill="#3BAFDA" /><path d="M618.662 725.292H149.41c-11.778 0-21.322 9.53-21.322 21.308s9.544 21.34 21.322 21.34h469.252c11.746 0 21.308-9.56 21.308-21.34s-9.562-21.308-21.308-21.308z" fill="#4FC2E9" /></svg>