<?xml version="1.0" standalone="no"?><!DOCTYPE svg PUBLIC "-//W3C//DTD SVG 1.1//EN" "http://www.w3.org/Graphics/SVG/1.1/DTD/svg11.dtd"><svg class="icon" width="128px" height="128.00px" viewBox="0 0 1024 1024" version="1.1" xmlns="http://www.w3.org/2000/svg"><path d="M867.94 777.046c-0.718-6.438-3.56-31.308-7.966-58.558-9.532-59.214-17.686-75.902-23.748-83.808-11.468-15.058-35.438-21.778-77.652-21.778-12.688 0-24.344 0.656-32.25 1.218-17.748-18.438-65.214-74.23-38.872-120.666 6.062-10.734 6.188-22.716 0.25-32.874-7.218-12.39-22.032-20.592-46.592-25.81-18.56-3.954-42.654-6.032-69.686-6.032-64.838 0-136.208 11.218-195.8 30.794-76.622 25.156-130.212 63.028-154.992 109.494-13.936 26.124-18.968 54.844-15 85.34 4.124 31.656 18.186 65.558 41.748 100.714a21.454 21.454 0 0 0 16.25 9.406c60.748 4.156 133.93 23.808 204.708 42.808 79.872 21.438 162.428 43.622 228.488 43.622h0.032c17.31 0 32.622-1.438 46.84-4.438 94.778-19.808 114.806-38.184 121.65-51.934 2.842-5.716 3.716-11.872 2.592-17.498z" fill="#DA4453" /><path d="M808.318 351.056c-9.312-22.124-23.374-46.842-40.746-71.48-25.75-36.576-70.028-89.028-134.776-131.244-66.59-43.42-138.554-65.434-213.924-65.434-45.716 0-92.808 8.282-139.93 24.608-126.212 43.732-217.52 132.822-257.05 250.862-24 71.574-28.25 149.774-12.718 232.44 16.062 85.34 52.59 170.96 108.588 254.422l5.812 8.688 10.438 0.75c60.748 4.156 133.9 23.812 204.676 42.812 79.872 21.434 162.46 43.622 228.518 43.622 17.342 0 32.654-1.438 46.874-4.438 94.744-19.84 114.774-38.184 121.648-51.934 2.844-5.718-4.812-8.032-5.968-13.688-0.688-6.406-22.248-31.246-26.654-58.434-9.53-59.246-19.716-80.122-25.78-88.028-10.532-13.812-3.344-21.656-42.31-26.09-15.874-1.812-30.78-2.5-39.56-2.782-16.344-15.094-64.246-65.218-37.654-112.09 19.498-34.34 90.962-70.604 148.398-99.744 66.84-33.92 102.15-52.778 111.088-77.762 2.812-7.824 4.936-22.028-8.97-55.056z" fill="#ED5564" /><path d="M51.828 633.43c-15.53-82.622-11.28-160.818 12.718-232.408C104.076 282.998 195.384 193.908 321.596 150.174c47.154-16.326 94.214-24.608 139.93-24.608 75.372 0 147.336 22 213.926 65.418 20.562 13.406 39.092 27.858 55.59 42.514-24.998-28.124-57.59-58.668-98.244-85.166-66.59-43.42-138.554-65.434-213.924-65.434-45.716 0-92.808 8.282-139.93 24.608C152.73 151.238 61.422 240.328 21.892 358.368c-24 71.574-28.25 149.774-12.718 232.44 16.062 85.34 52.59 170.96 108.588 254.422l5.812 8.688 10.438 0.75 5.468 0.376c-44.248-72.998-73.684-147.4-87.652-221.614z" fill="#FFFFFF" opacity=".2" /><path d="M718.228 828.11l-18.092-64.558c-3.03-10.812-13.936-17.438-24.904-15.156l-116.682 24.402c-11.404 2.376-18.78 13.406-16.592 24.812l12.686 66.996a21.296 21.296 0 0 0 9.188 13.844 21.508 21.508 0 0 0 11.78 3.532c1.5 0 3.032-0.156 4.562-0.5l122.088-26.75a21.374 21.374 0 0 0 13.688-9.876 21.394 21.394 0 0 0 2.278-16.746z" fill="#E6E9ED" /><path d="M604.83 876.074l41.684-9.156-21.718-107.992-41.748 8.75z" fill="#CCD1D9" /><path d="M692.952 764.926c-9.218 0-17.75-6.062-20.468-15.344-3.312-11.312 3.156-23.156 14.468-26.468 1.688-0.5 148.774-44.122 234.332-101.118-19.156 1.876-47.468 5.778-89.152 13.246-56.248 10.062-108.622 21.656-109.122 21.75-11.498 2.562-22.904-4.688-25.464-16.188-2.532-11.5 4.716-22.872 16.216-25.434 0.594-0.124 61.622-13.624 123.244-24.312 36.528-6.312 66.278-10.438 88.37-12.25 34.498-2.812 56.186-1.218 64.936 15.438 2.844 5.406 7.624 19.562-8.812 34.84-81.028 75.278-274.362 132.558-282.548 134.964-2 0.564-4.032 0.876-6 0.876z" fill="#434A54" /><path d="M989.466 594.872c-6.376-9.938-19.562-12.812-29.468-6.438-9.938 6.376-12.812 19.562-6.438 29.468 0.468 0.718 46.624 73.902 18.876 141.774-7.532 18.496-19.938 35.028-37.03 49.652 8.436-37.532 5.624-69.872 0.376-93.402-8.718-39.028-25.904-63.246-26.654-64.278-6.876-9.562-20.188-11.75-29.75-4.876-9.562 6.906-11.75 20.218-4.876 29.782 0.532 0.718 50.374 71.996 3.624 167.3-21.842 9.5-47.09 17.5-75.746 24.062-34.496 7.876-57.872-3.938-66.872-9.812l-106.4-333.136c-13.436 7.906-26.092 15.968-37.06 24.094l104.902 328.48a21.408 21.408 0 0 0 5.966 9.312c0.062 0.062 0.25 0.218 0.532 0.438 0 0.032 0.032 0.062 0.062 0.094 4.532 3.876 32.092 25.812 76.402 25.812 9.844 0 20.53-1.094 31.966-3.718 32.656-7.438 61.59-16.844 86.84-28.156a21.706 21.706 0 0 0 7.218-3.344c52.996-25.25 88.528-59.434 105.994-102.152 36.032-88.21-20.056-177.206-22.464-180.956z" fill="#434A54" /></svg>