<?xml version="1.0" standalone="no"?><!DOCTYPE svg PUBLIC "-//W3C//DTD SVG 1.1//EN" "http://www.w3.org/Graphics/SVG/1.1/DTD/svg11.dtd"><svg class="icon" width="128px" height="128.00px" viewBox="0 0 1024 1024" version="1.1" xmlns="http://www.w3.org/2000/svg"><path d="M934.542 582.158c34.186-68.182 60.092-143.164 74.902-216.848 28.404-141.382 14.436-265.08-35.624-315.14C923.792 0.126 800.078-13.856 658.71 14.548c-73.714 14.812-148.678 40.716-216.864 74.934-77.934 39.108-147.054 88.542-205.426 146.93-58.404 58.372-107.838 127.494-146.93 205.442-34.216 68.168-60.122 143.148-74.934 216.864C-13.846 800.084 0.122 923.794 50.18 973.826c50.06 50.058 173.742 64.028 315.14 35.622 73.684-14.812 148.648-40.714 216.832-74.902 77.934-39.122 147.054-88.558 205.458-146.93 58.374-58.404 107.808-127.524 146.932-205.458z" fill="#FC6E51" /><path d="M329.76 694.246c-8.342-8.312-8.342-21.844 0-30.154l331.826-331.858c8.344-8.328 21.844-8.328 30.188 0 8.31 8.342 8.31 21.842 0 30.17l-331.858 331.84c-8.314 8.344-21.812 8.344-30.156 0.002z" fill="#E9573F" /><path d="M450.442 664.092l-90.526-90.496c-8.312-8.344-8.312-21.844 0-30.186 8.342-8.328 21.842-8.328 30.186 0l90.496 90.494a21.332 21.332 0 0 1 0 30.188c-8.346 8.31-21.846 8.31-30.156 0zM540.938 573.596l-90.496-90.526c-8.344-8.328-8.344-21.828 0-30.17 8.312-8.328 21.812-8.328 30.154 0l90.494 90.51a21.33 21.33 0 0 1 0 30.186c-8.31 8.312-21.842 8.312-30.152 0zM540.938 392.576c-8.344-8.328-8.344-21.842 0-30.17 8.31-8.328 21.842-8.328 30.152 0l90.496 90.494c8.344 8.344 8.344 21.844 0 30.17-8.312 8.328-21.81 8.328-30.154 0l-90.494-90.494zM49.524 534.692c-14.812 40.78-26.654 82.59-34.966 124.026a805.216 805.216 0 0 0-7.656 44.528l313.858 313.86a806.592 806.592 0 0 0 44.56-7.656c41.404-8.312 83.214-20.154 123.994-34.966L49.524 534.692zM974.476 489.32c14.844-40.794 26.654-82.604 34.966-124.008a778.926 778.926 0 0 0 7.654-44.528L703.24 6.908a791.16 791.16 0 0 0-44.53 7.656c-41.402 8.312-83.246 20.14-124.024 34.982L974.476 489.32z" fill="#E6E9ED" /><path d="M934.542 582.158c34.186-68.182 60.092-143.164 74.902-216.848 28.404-141.382 14.436-265.08-35.624-315.14-4.844-4.86-10.406-9.376-16.624-13.546 38.812 57.638 47.748 170.866 22.094 298.516-14.812 73.684-40.716 148.664-74.934 216.83-39.124 77.964-88.558 147.088-146.93 205.458-58.374 58.374-127.494 107.806-205.458 146.93-68.152 34.216-143.148 60.124-216.832 74.934C207.486 1004.946 94.274 996.04 36.62 957.2c4.188 6.218 8.718 11.782 13.562 16.624 50.06 50.058 173.742 64.028 315.14 35.622 73.684-14.812 148.648-40.714 216.832-74.902 77.934-39.122 147.054-88.558 205.458-146.93 58.372-58.402 107.806-127.522 146.93-205.456z" fill="#080808" opacity=".1" /></svg>