<?xml version="1.0" standalone="no"?><!DOCTYPE svg PUBLIC "-//W3C//DTD SVG 1.1//EN" "http://www.w3.org/Graphics/SVG/1.1/DTD/svg11.dtd"><svg class="icon" width="128px" height="128.00px" viewBox="0 0 1024 1024" version="1.1" xmlns="http://www.w3.org/2000/svg"><path d="M842.892 30.266l180.988 180.988L211.26 1023.872l-180.988-180.988z" fill="#F6BB42" /><path d="M812.738 0.116l180.956 180.954-812.62 812.62L0.12 812.73z" fill="#FFCE54" /><path d="M135.336 737.792l-30.15-30.15-30.15 30.182 30.15 30.148a21.326 21.326 0 0 0 30.18 0c8.31-8.342 8.31-21.838 0-30.148 0.002-0.032-0.03-0.032-0.03-0.032zM225.846 647.312l-30.15-30.148-30.18 30.148 30.18 30.18c8.31 8.312 21.838 8.312 30.15 0a21.326 21.326 0 0 0 0-30.18zM316.326 556.834l-30.15-30.15-30.18 30.15 30.18 30.148v0.032c8.342 8.31 21.838 8.31 30.15 0a21.33 21.33 0 0 0 0-30.18zM406.836 466.354l-30.18-30.18-30.15 30.18 30.15 30.15a21.326 21.326 0 0 0 30.18 0c8.31-8.31 8.31-21.838 0-30.15zM497.284 375.844l-30.15-30.15-30.15 30.18 30.15 30.15a21.326 21.326 0 0 0 30.18 0c8.31-8.342 8.31-21.838 0-30.15l-0.03-0.03zM587.794 285.366l-30.15-30.15-30.18 30.15 30.18 30.18c8.312 8.31 21.808 8.31 30.15 0a21.326 21.326 0 0 0 0-30.18zM678.274 194.854l-30.148-30.118-30.182 30.148 30.182 30.182c8.308 8.31 21.838 8.31 30.148 0a21.328 21.328 0 0 0 0-30.182v-0.03zM768.786 104.406h-0.032l-30.15-30.18-30.15 30.18 30.15 30.15a21.328 21.328 0 0 0 30.182 0c8.308-8.31 8.308-21.808 0-30.15z" fill="#656D78" /></svg>