<?xml version="1.0" standalone="no"?><!DOCTYPE svg PUBLIC "-//W3C//DTD SVG 1.1//EN" "http://www.w3.org/Graphics/SVG/1.1/DTD/svg11.dtd"><svg class="icon" width="128px" height="128.00px" viewBox="0 0 1024 1024" version="1.1" xmlns="http://www.w3.org/2000/svg"><path d="M720.402 506.098l40.348-127.106-21.828-5.622c-0.562-0.124-58.432-14.928-134.508-29.512-102.576-19.644-187.896-29.606-253.542-29.606-76.232 0-124.42 13.678-147.406 41.848-9.182 11.304-18.926 30.824-12.96 59.744 10.494 51.062 1.062 119.36-8.9 191.658-7.932 57.402-16.116 116.8-14.834 172.266 1.5 65.366 16.364 115.644 45.408 153.714 35.852 46.968 91.91 74.826 171.36 85.196 25.42 3.31 49.906 4.996 72.766 4.996 102.512 0 179.432-33.292 228.62-98.966 26.514-35.384 44.658-80.106 53.934-132.978 7.278-41.348 9.182-87.818 5.684-138.128-4.966-70.866-19.114-128.672-24.142-147.504z" fill="#A85D5D" /><path d="M426.73 554.504h42.628v155.276h-42.628z" fill="#F6BB42" /><path d="M511.988 682.39h-127.886l-42.628 42.628v170.516h213.128V725.02l-42.614-42.63z m0 170.516h-127.886v-110.242l17.676-17.644h92.566l17.644 17.644v110.242z" fill="#FFCE54" /><path d="M767.746 444.168v323.48l63.93 42.628 63.958-42.628v-323.48h-127.888z m63.93 259.522c-11.744 0-21.3-9.526-21.3-21.298s9.556-21.33 21.3-21.33c11.774 0 21.328 9.556 21.328 21.33s-9.554 21.298-21.328 21.298z m0-63.928c-11.744 0-21.3-9.556-21.3-21.33s9.556-21.298 21.3-21.298c11.774 0 21.328 9.526 21.328 21.298s-9.554 21.33-21.328 21.33z" fill="#434A54" /><path d="M979.142 95.516C968.866 64.504 946.976 11.07 915.902 1.92a39 39 0 0 0-11.086-1.592c-21.176 0-39.54 16.144-64.992 38.444-27.792 24.422-65.894 57.87-123.232 85.132-68.048 32.354-149.248 48.75-241.33 48.75-97.874 0-210.834-18.394-335.66-54.652-10.18-2.936-20.018-4.434-29.23-4.434-22.642 0-42.38 9.088-57.088 26.328C30.61 166.44 19.334 212.91 19.772 277.994c0.282 46.158 6.372 84.946 6.622 86.57l0.53 3.28 1.5 2.966c1.156 2.28 29.076 56.682 102.654 110.586 42.628 31.262 92.098 56.122 147 73.89 68.05 22.046 144.72 33.228 227.854 33.228 88.054 0 184.868-12.586 287.708-37.414 72.296-17.458 127.23-55.434 163.332-112.928 29.574-47.094 45.41-105.37 47.126-173.138 1.402-56.558-7.466-116.77-24.956-169.518z" fill="#A85D5D" /><path d="M20.178 296.45c2.248-52.528 13.334-90.786 33.104-113.926 14.708-17.24 34.446-26.328 57.088-26.328 9.212 0 19.05 1.5 29.23 4.434 124.828 36.258 237.786 54.652 335.66 54.652 92.082 0 173.282-16.396 241.33-48.75 57.338-27.264 95.44-60.71 123.232-85.132 25.454-22.298 43.816-38.444 64.992-38.444a39 39 0 0 1 11.086 1.592c31.074 9.15 52.964 62.584 63.24 93.596 14.116 42.504 22.58 89.88 24.61 136.256 0.124-3.092 0.25-6.214 0.344-9.37 1.404-56.558-7.462-116.77-24.954-169.516-10.276-31.012-32.166-84.446-63.24-93.596a39 39 0 0 0-11.086-1.592c-21.176 0-39.54 16.144-64.992 38.444-27.792 24.422-65.894 57.87-123.232 85.132-68.048 32.354-149.248 48.75-241.33 48.75-97.874 0-210.834-18.394-335.66-54.652-10.18-2.936-20.018-4.434-29.23-4.434-22.642 0-42.38 9.088-57.088 26.328-22.672 26.546-33.948 73.016-33.51 138.1 0.032 6.34 0.188 12.492 0.406 18.456z" fill="#FFFFFF" opacity=".1" /><path d="M970.118 352.758l-173.172 89.256-171.858 43.534h-164.286l-140.628-17.708-127.886-41.504s-120.016-52.28-124.014-54.934c-2.03-1.374-23.11-8.712-43.098-15.552 0.656 5.184 1.156 8.276 1.218 8.712l0.53 3.28 1.5 2.966c1.156 2.28 29.076 56.682 102.654 110.586 42.628 31.262 92.098 56.122 147 73.89 68.05 22.046 144.72 33.228 227.854 33.228 88.054 0 184.868-12.586 287.708-37.414 72.296-17.458 127.23-55.434 163.332-112.928 17.614-28.076 30.356-60.086 38.164-95.75l-25.018 10.338z" fill="#8C4C4C" /><path d="M363.584 526.99c2.436-23.796 9.868-44.066 9.962-44.252l-39.944-14.896c-0.376 1-9.182 24.764-12.336 53.778-1.842 16.988-1.342 32.448 1.374 46.22a673.28 673.28 0 0 0 48.75 9.992c-9.15-14.116-9.462-34.79-7.806-50.842zM501.432 491.638l-39.944-14.928c-0.374 1-9.182 24.796-12.336 53.81-2.28 21.298-0.936 40.256 3.904 56.4 15.552 0.938 31.354 1.468 47.408 1.562-10.306-14.116-10.744-35.854-8.994-52.592 2.436-23.796 9.868-44.064 9.962-44.252zM619.342 535.89c2.436-23.796 9.87-44.066 9.962-44.252l-39.944-14.928c-0.376 1-9.212 24.796-12.336 53.81-2.248 20.736-1.032 39.256 3.498 55.122a1225.36 1225.36 0 0 0 43.754-4.092c-6.338-13.71-6.4-31.48-4.934-45.66zM757.16 467.216l-39.912-14.928c-0.376 1-9.182 24.796-12.336 53.81-2.592 24.078-0.532 45.126 5.964 62.552a1572.4 1572.4 0 0 0 42.878-8.462c-7.9-14.022-8.12-33.448-6.528-48.718 2.438-23.798 9.872-44.066 9.934-44.254zM875.084 462.188c2.466-23.828 9.9-44.064 9.962-44.252l-39.912-14.928c-0.376 0.998-9.212 24.796-12.336 53.808-3.374 31.106 1.06 57.212 12.804 76.92a262.64 262.64 0 0 0 37.6-20.298c-9.428-14.118-9.772-35.01-8.118-51.25zM235.696 485.486c2.436-23.796 9.87-44.066 9.962-44.252l-39.944-14.896c-0.376 1-9.182 24.766-12.336 53.778-1.562 14.492-1.436 27.888 0.312 40.038a533.846 533.846 0 0 0 54.746 24.64l1.156-1.31c-15.05-13.37-15.862-38.918-13.896-57.998z" fill="#434A54" /><path d="M988.606 367.654c6.278-20.956 10.68-43.316 13.18-66.988-15.274 14.74-52.56 47.5-111.836 79.918-46.594 25.484-97.468 45.784-151.214 60.336-67.238 18.208-139.222 27.452-213.942 27.452-75.014 0-148.342-8.276-217.892-24.578-55.622-13.054-109.024-31.26-158.648-54.09-72.672-33.448-116.082-67.27-127.2-76.42 1.874 29.168 5.154 50.092 5.34 51.28l0.53 3.28 1.5 2.966c0.062 0.156 0.312 0.594 0.656 1.282 23.172 15.552 56.402 35.508 99.5 55.496 52.372 24.236 108.618 43.566 167.268 57.402C368.956 502.256 446 511 524.792 511c79.028 0 155.26-9.868 226.558-29.324 57.212-15.616 111.366-37.414 160.99-64.772 31.106-17.144 56.464-34.29 76.266-49.25z" fill="#656D78" /></svg>