<?xml version="1.0" standalone="no"?><!DOCTYPE svg PUBLIC "-//W3C//DTD SVG 1.1//EN" "http://www.w3.org/Graphics/SVG/1.1/DTD/svg11.dtd"><svg class="icon" width="128px" height="128.00px" viewBox="0 0 1024 1024" version="1.1" xmlns="http://www.w3.org/2000/svg"><path d="M1023.984 853.296c0 11.808-9.562 21.372-21.31 21.372H21.342c-11.782 0-21.326-9.562-21.326-21.372V170.674c0-11.782 9.544-21.344 21.326-21.344h981.332c11.748 0 21.31 9.562 21.31 21.344v682.622z" fill="#F5F7FA" /><path d="M1023.984 853.296V502.666H505.688v372.002h496.986c11.748 0 21.31-9.562 21.31-21.372z" fill="#CCD1D9" /><path d="M1023.984 490.666H533.326V149.332h-42.654v341.334H0.016v42.654h490.656v341.348h42.654V533.32h490.658z" fill="#E6E9ED" /><path d="M426.674 192.018c-11.782 0-21.344 9.532-21.344 21.312v42.688c0 11.78 9.562 21.31 21.344 21.31s21.328-9.53 21.328-21.31v-42.688c0-11.782-9.546-21.312-21.328-21.312zM959.986 192.018a21.3 21.3 0 0 0-21.312 21.312v42.688c0 11.78 9.532 21.31 21.312 21.31s21.312-9.53 21.312-21.31v-42.688a21.298 21.298 0 0 0-21.312-21.312zM895.988 192.018a21.296 21.296 0 0 0-21.31 21.312v42.688c0 11.78 9.53 21.31 21.31 21.31s21.31-9.53 21.31-21.31v-42.688a21.296 21.296 0 0 0-21.31-21.312zM426.674 575.992c-11.782 0-21.344 9.562-21.344 21.308v42.688c0 11.812 9.562 21.312 21.344 21.312s21.328-9.5 21.328-21.312V597.3c0-11.746-9.546-21.308-21.328-21.308zM362.676 575.992c-11.782 0-21.344 9.562-21.344 21.308v42.688c0 11.812 9.562 21.312 21.344 21.312s21.328-9.5 21.328-21.312V597.3c0-11.746-9.546-21.308-21.328-21.308zM298.678 575.992c-11.782 0-21.344 9.562-21.344 21.308v42.688c0 11.812 9.562 21.312 21.344 21.312s21.328-9.5 21.328-21.312V597.3c0-11.746-9.548-21.308-21.328-21.308z" fill="#5D9CEC" /><path d="M1001.736 603.426c0.594-1.938 0.938-4 0.938-6.124 0-11.746-9.562-21.308-21.376-21.308-9.624 0-17.782 6.438-20.406 15.188l-63.904 213.054a0.426 0.426 0 0 0-0.062 0.188l-0.032 0.124c-0.594 1.938-0.906 4-0.906 6.124 0 11.75 9.562 21.312 21.31 21.312 9.688 0 17.812-6.438 20.438-15.188l63.938-213.058c0-0.062 0.032-0.124 0.062-0.188v-0.124z" fill="#4A89DC" /><path d="M895.988 810.672c0 11.75-9.562 21.312-21.31 21.312H597.31c-11.75 0-21.312-9.562-21.312-21.312v-127.996c0-11.812 9.562-21.376 21.312-21.376h277.368c11.748 0 21.31 9.562 21.31 21.376v127.996z" fill="#AC92EB" /><path d="M714.682 661.3v42.688a21.276 21.276 0 0 0 21.312 21.308c11.78 0 21.31-9.496 21.31-21.308V661.3h-42.622z" fill="#F5F7FA" /><path d="M639.996 384.012c-23.532 0-42.686-19.156-42.686-42.686s19.154-42.656 42.686-42.656c23.53 0 42.686 19.124 42.686 42.656s-19.156 42.686-42.686 42.686z" fill="#434A54" /><path d="M703.994 341.326c0-35.342-28.656-64-63.998-64s-63.998 28.656-63.998 64c0 27.874 17.812 51.56 42.686 60.342v25c0 11.782 9.532 21.344 21.312 21.344 11.78 0 21.31-9.562 21.31-21.344v-25c24.876-8.782 42.688-32.468 42.688-60.342z m-63.998 21.342c-11.75 0-21.312-9.562-21.312-21.342 0-11.75 9.562-21.312 21.312-21.312 11.748 0 21.31 9.562 21.31 21.312 0 11.78-9.562 21.342-21.31 21.342z" fill="#AAB2BC" /><path d="M128.012 384.012c-23.532 0-42.672-19.156-42.672-42.686s19.14-42.656 42.672-42.656c23.53 0 42.67 19.124 42.67 42.656s-19.14 42.686-42.67 42.686z" fill="#434A54" /><path d="M192.01 341.326c0-35.342-28.656-64-63.998-64-35.344 0-63.998 28.656-63.998 64 0 27.874 17.81 51.56 42.67 60.342v25c0 11.782 9.546 21.344 21.328 21.344 11.78 0 21.326-9.562 21.326-21.344v-25c24.86-8.782 42.672-32.468 42.672-60.342z m-63.998 21.342c-11.766 0-21.328-9.562-21.328-21.342 0-11.75 9.562-21.312 21.328-21.312 11.764 0 21.326 9.562 21.326 21.312 0 11.78-9.562 21.342-21.326 21.342z" fill="#AAB2BC" /><path d="M128.012 725.296c-23.532 0-42.672-19.122-42.672-42.622 0-23.562 19.14-42.688 42.672-42.688 23.53 0 42.67 19.124 42.67 42.688 0 23.502-19.14 42.622-42.67 42.622z" fill="#434A54" /><path d="M192.01 682.676c0-35.376-28.656-64-63.998-64-35.344 0-63.998 28.624-63.998 64 0 27.876 17.81 51.558 42.67 60.308v25c0 11.812 9.546 21.312 21.328 21.312 11.78 0 21.326-9.5 21.326-21.312v-25c24.86-8.75 42.672-32.434 42.672-60.308z m-63.998 21.312c-11.766 0-21.328-9.562-21.328-21.312 0-11.812 9.562-21.376 21.328-21.376 11.764 0 21.326 9.562 21.326 21.376 0 11.75-9.562 21.312-21.326 21.312z" fill="#AAB2BC" /></svg>