<?xml version="1.0" standalone="no"?><!DOCTYPE svg PUBLIC "-//W3C//DTD SVG 1.1//EN" "http://www.w3.org/Graphics/SVG/1.1/DTD/svg11.dtd"><svg class="icon" width="128px" height="128.00px" viewBox="0 0 1024 1024" version="1.1" xmlns="http://www.w3.org/2000/svg"><path d="M85.316 799.934h213.42v149.308H85.316zM725.296 799.934h213.418v149.308H725.296z" fill="#434A54" /><path d="M1023.882 863.918c0 11.782-9.528 21.34-21.306 21.34H21.458c-11.78 0-21.34-9.558-21.34-21.34V96.094c0-11.778 9.56-21.338 21.34-21.338h981.12c11.78 0 21.306 9.56 21.306 21.338v767.824z" fill="#656D78" /><path d="M106.624 181.418h810.752v597.174H106.624z" fill="#656D78" /><path d="M85.316 160.082v639.852h853.398V160.082H85.316z m810.754 597.208H127.962V202.728h768.108v554.562z" fill="#434A54" /><path d="M85.316 394.682c11.78 0 21.308-9.53 21.308-21.306v-85.324c0-11.78-9.53-21.34-21.308-21.34s-21.338 9.56-21.338 21.34v85.324c0 11.778 9.562 21.306 21.338 21.306zM85.442 565.332c-11.778 0-21.338 9.528-21.338 21.308v85.324c0 11.778 9.56 21.336 21.338 21.336 11.78 0 21.34-9.558 21.34-21.336V586.64c0-11.78-9.562-21.308-21.34-21.308z" fill="#CCD1D9" /><path d="M533.34 480.006c0 94.228-76.388 170.618-170.618 170.618-94.26 0-170.648-76.39-170.648-170.618s76.388-170.618 170.648-170.618c94.23 0.002 170.618 76.39 170.618 170.618z" fill="#CCD1D9" /><path d="M853.266 416.022c0 70.67-57.298 127.97-127.968 127.97-70.672 0-127.972-57.298-127.972-127.97s57.3-127.97 127.972-127.97c70.668 0 127.968 57.298 127.968 127.97z" fill="#F6BB42" /><path d="M469.354 501.346c11.78 0 21.34-9.56 21.34-21.34 0-11.778-9.56-21.338-21.34-21.338-0.718 0-1.438 0.062-2.124 0.124a104.958 104.958 0 0 0-3.404-12.654c0.656-0.312 1.282-0.624 1.906-0.968 10.184-5.904 13.684-18.932 7.81-29.148-5.906-10.216-18.934-13.686-29.15-7.81a22.9 22.9 0 0 0-1.812 1.186 103.566 103.566 0 0 0-9.248-9.28 17.78 17.78 0 0 0 1.156-1.812c5.906-10.186 2.406-23.246-7.78-29.12-10.216-5.904-23.244-2.406-29.148 7.81-0.344 0.624-0.688 1.25-0.968 1.906a101.958 101.958 0 0 0-12.654-3.436c0.062-0.688 0.094-1.374 0.094-2.092 0-11.78-9.53-21.34-21.306-21.34-11.78 0-21.34 9.56-21.34 21.34 0 0.718 0.032 1.406 0.094 2.092a102.278 102.278 0 0 0-12.652 3.436 15.8 15.8 0 0 0-0.968-1.906c-5.876-10.216-18.934-13.714-29.12-7.81-10.216 5.874-13.714 18.934-7.81 29.12a18 18 0 0 0 1.156 1.812 107.984 107.984 0 0 0-9.248 9.28 22.352 22.352 0 0 0-1.812-1.186c-10.216-5.876-23.244-2.376-29.148 7.81-5.876 10.216-2.376 23.244 7.81 29.148 0.624 0.344 1.282 0.656 1.904 0.968a104.588 104.588 0 0 0-3.404 12.654 23.72 23.72 0 0 0-2.124-0.124c-11.778 0-21.306 9.56-21.306 21.338 0 11.78 9.53 21.34 21.306 21.34 0.718 0 1.438-0.062 2.124-0.124a105.298 105.298 0 0 0 3.404 12.652c-0.624 0.314-1.28 0.626-1.904 0.97-10.186 5.906-13.686 18.964-7.81 29.148 5.904 10.218 18.932 13.684 29.148 7.812 0.624-0.376 1.218-0.75 1.812-1.188a107.674 107.674 0 0 0 9.248 9.278 18 18 0 0 0-1.156 1.812c-5.904 10.188-2.406 23.246 7.81 29.118 10.186 5.906 23.244 2.406 29.12-7.808a15.24 15.24 0 0 0 0.968-1.906 102.38 102.38 0 0 0 12.652 3.438c-0.062 0.688-0.094 1.376-0.094 2.094 0 11.778 9.56 21.336 21.34 21.336 11.778 0 21.306-9.558 21.306-21.336 0-0.718-0.032-1.406-0.094-2.094a102.314 102.314 0 0 0 12.654-3.438c0.282 0.656 0.624 1.282 0.968 1.906 5.904 10.214 18.932 13.714 29.148 7.808 10.186-5.872 13.686-18.93 7.78-29.118a18 18 0 0 0-1.156-1.812 103.02 103.02 0 0 0 9.248-9.278c0.594 0.438 1.188 0.812 1.812 1.188 10.216 5.872 23.244 2.406 29.15-7.812 5.874-10.214 2.374-23.242-7.81-29.148a36.966 36.966 0 0 0-1.906-0.97 104.19 104.19 0 0 0 3.404-12.652c0.686 0.062 1.404 0.124 2.124 0.124z" fill="#E6E9ED" /><path d="M789.532 416.022c0 35.492-1.782 253.286-64.234 253.286-62.458 0-64.236-217.794-64.236-253.286 0-35.492 28.744-64.236 64.236-64.236 35.458 0 64.234 28.744 64.234 64.236z" fill="#FFCE54" /></svg>