<?xml version="1.0" standalone="no"?><!DOCTYPE svg PUBLIC "-//W3C//DTD SVG 1.1//EN" "http://www.w3.org/Graphics/SVG/1.1/DTD/svg11.dtd"><svg class="icon" width="128px" height="128.00px" viewBox="0 0 1024 1024" version="1.1" xmlns="http://www.w3.org/2000/svg"><path d="M1002.68 0.008H447.992c-11.75 0-21.312 9.562-21.312 21.312 0 11.812 9.562 21.376 21.312 21.376H951.18L6.242 987.57c-8.312 8.344-8.312 21.876 0 30.188 8.376 8.312 21.876 8.312 30.188 0L981.368 72.82v503.188c0 11.782 9.5 21.312 21.312 21.312 11.75 0 21.312-9.532 21.312-21.312V21.32c0-11.75-9.562-21.312-21.312-21.312z" fill="#DA4453" /><path d="M610.492 866.132L157.93 413.57a21.244 21.244 0 0 0-15.124-6.25c-11.75 0-21.312 9.532-21.312 21.312 0 5.876 2.376 11.218 6.25 15.062l452.562 452.562a21.206 21.206 0 0 0 15.062 6.25c11.812 0 21.312-9.562 21.312-21.312a21.26 21.26 0 0 0-6.188-15.062z" fill="#ED5565" /></svg>