<?xml version="1.0" standalone="no"?><!DOCTYPE svg PUBLIC "-//W3C//DTD SVG 1.1//EN" "http://www.w3.org/Graphics/SVG/1.1/DTD/svg11.dtd"><svg class="icon" width="128px" height="128.00px" viewBox="0 0 1024 1024" version="1.1" xmlns="http://www.w3.org/2000/svg"><path d="M792.158 315.75c39.32-20.924 183.382-56.026 196.188-32.042 12.774 24.046-96.782 123.982-136.102 144.906-39.316 20.924-84.664 12.68-101.246-18.488-16.616-31.228 1.81-73.452 41.16-94.376z" fill="#656D78" /><path d="M835.1 339.796c44.66 9.87 180.76 77.514 174.92 104.058-5.872 26.608-157.838 30.668-202.494 20.8-44.66-9.868-74.704-45.846-67.082-80.324 7.618-34.476 49.998-54.402 94.656-44.534z" fill="#434A54" /><path d="M14.5 430.552a771.786 771.786 0 0 0-0.328 21.674c0 308.114 245.952 571.446 405.458 571.446 159.506 0 405.476-263.332 405.476-571.446 0-7.246-0.124-14.492-0.344-21.674H14.5z" fill="#EAC6BB" /><path d="M824.702 447.854C824.702 200.7 643.192 0.328 419.258 0.328S13.798 200.7 13.798 447.854c0 0 166.94 44.784 405.458 44.784 238.52-0.002 405.446-44.784 405.446-44.784z" fill="#656D78" /><path d="M774.952 694.758l-193.376 115.8-98.58-41.972-126.778-0.438-98.592 42.472-191.534-111.68c80.838 189.754 239.346 324.73 353.54 324.73 115.034 0.002 275.058-136.972 355.32-328.912z" fill="#FC6E51" /><path d="M483.576 853.156c0-11.742-9.542-21.298-21.314-21.298-8.448 0-15.724 4.934-19.176 12.054h-0.016s0.094-0.25 0.344-0.688c-0.592 1-6.308 9.932-23.766 9.932-17.474 0-23.172-8.932-23.782-9.932 0.25 0.438 0.344 0.688 0.344 0.688h-0.016c-3.436-7.122-10.728-12.054-19.174-12.054-11.774 0-21.314 9.556-21.314 21.298 0 3.31 0.78 6.434 2.138 9.244h-0.016c5.964 12.43 25.718 33.354 61.82 33.354 36.102 0 55.838-20.924 61.82-33.354h-0.016a21.38 21.38 0 0 0 2.124-9.244zM313.012 618.744c0 11.742-9.542 21.298-21.314 21.298-11.774 0-21.314-9.556-21.314-21.298 0-11.804 9.54-21.298 21.314-21.298 11.774 0 21.314 9.494 21.314 21.298zM526.206 618.744c0 11.742 9.54 21.298 21.328 21.298 11.742 0 21.3-9.556 21.3-21.298 0-11.804-9.558-21.298-21.3-21.298-11.79 0-21.328 9.494-21.328 21.298z" fill="#434A54" /><path d="M337.824 576.396l-127.872-21.298a21.5 21.5 0 0 0-3.498-0.312c-11.774 0-21.314 9.556-21.314 21.298 0 10.62 7.714 19.362 17.816 21.048h-0.016l127.872 21.298h0.016c1.14 0.188 2.296 0.312 3.498 0.312 11.758 0 21.314-9.556 21.314-21.298 0.002-10.618-7.712-19.362-17.816-21.048zM654.092 576.084c0-11.742-9.558-21.298-21.332-21.298-1.186 0-2.34 0.124-3.496 0.312l-127.872 21.298c-10.102 1.686-17.816 10.43-17.816 21.048 0 11.742 9.542 21.298 21.314 21.298 1.202 0 2.358-0.124 3.498-0.312l127.872-21.298c10.116-1.686 17.832-10.428 17.832-21.048z" fill="#656D78" /><path d="M547.534 235.802c0-70.642-57.274-127.856-127.886-127.856-70.626 0-127.872 57.214-127.872 127.856 0 37.85 16.458 71.892 42.614 95.314v53.904h170.5v-53.904c26.154-23.422 42.644-57.464 42.644-95.314z" fill="#E6E9ED" /><path d="M408.982 235.802c0 11.804-9.542 21.298-21.314 21.298a21.274 21.274 0 0 1-21.298-21.298c0-11.744 9.542-21.298 21.298-21.298 11.774-0.002 21.314 9.554 21.314 21.298zM472.926 235.802c0 11.804-9.542 21.298-21.314 21.298s-21.314-9.494-21.314-21.298c0-11.744 9.542-21.298 21.314-21.298s21.314 9.554 21.314 21.298z" fill="#434A54" /><path d="M398.334 363.658c-11.774 0-21.314 9.556-21.314 21.362h42.628c0-11.806-9.542-21.362-21.314-21.362zM440.962 363.658c-11.774 0-21.314 9.556-21.314 21.362h42.614c-0.002-11.806-9.542-21.362-21.3-21.362zM504.89 384.956c0-11.742-9.542-21.298-21.314-21.298s-21.314 9.556-21.314 21.362h42.628v-0.064zM355.642 363.658c-11.306 0-20.518 8.808-21.252 19.924v1.436h42.55c0-11.804-9.54-21.36-21.298-21.36z" fill="#CCD1D9" /></svg>