<?xml version="1.0" standalone="no"?><!DOCTYPE svg PUBLIC "-//W3C//DTD SVG 1.1//EN" "http://www.w3.org/Graphics/SVG/1.1/DTD/svg11.dtd"><svg class="icon" width="128px" height="128.00px" viewBox="0 0 1024 1024" version="1.1" xmlns="http://www.w3.org/2000/svg"><path d="M497.81 277.32l42.654-213.304-170.682-21.344-170.68 21.344 42.654 213.304C-14.296 677.462 153.354 1005.514 153.354 1005.514s38.904 15.282 215.088 18.468h2.686c176.182-3.188 215.088-18.468 215.088-18.468s167.648-328.052-88.406-728.194z" fill="#FB6D51" /><path d="M711.18 810.616v170.682s10.03 21.468 46.81 33.936c3.904 5.314 10.124 8.75 17.186 8.75h85.374c7.032 0 13.282-3.436 17.154-8.75 36.812-12.466 46.842-33.936 46.842-33.936v-170.682H711.18z" fill="#FECD57" /><path d="M903.204 810.616v170.682s-10.03 21.468-46.81 33.936c-3.906 5.314-10.126 8.75-17.188 8.75h21.344c7.032 0 13.282-3.436 17.154-8.75 36.812-12.466 46.842-33.936 46.842-33.936v-170.682h-21.342z" fill="#FFFFFF" opacity=".2" /><path d="M505.624 289.758c-24.406 37.716-73.436 97.528-155.462 134.12-127.714 56.938-201.838 136.182-241.086 191.37-18.468 115.902-7.312 213.588 8.406 282.272 38.31-56.498 134.622-182.932 258.022-232.304 124.808-49.936 188.806-154.244 213.868-205.742-20.188-54.408-47.47-111.25-83.748-169.716zM456.968 857.364c-89.746 54.686-146.34 126.84-171.494 163.838 23.53 1.218 50.966 2.188 82.966 2.782h2.686c176.182-3.188 215.088-18.468 215.088-18.468s63.308-123.902 52.684-312.3c-34.996 43.152-99.744 114.084-181.93 164.148z" fill="#D94452" /><path d="M497.81 277.32l42.654-213.304-170.682-21.344-21.342 2.688 149.37 18.656-42.684 213.304c256.054 400.142 88.402 728.194 88.402 728.194s-35.966 14.126-195.086 18.034c6.468 0.154 13.126 0.31 20 0.436h2.686c176.182-3.188 215.088-18.468 215.088-18.468s167.648-328.054-88.406-728.196z" fill="#FFFFFF" opacity=".2" /><path d="M369.784 106.702c-43.092 0-83.308-6.188-113.214-17.406-29.498-11.062-36.154-22.218-36.154-25.28 0-3.032 6.656-14.218 36.154-25.282 29.906-11.218 70.124-17.376 113.214-17.376 43.094 0 83.31 6.156 113.214 17.376 29.5 11.062 36.156 22.25 36.156 25.282 0 3.06-6.656 14.216-36.156 25.28-29.904 11.218-70.122 17.406-113.214 17.406z" fill="#424953" /><path d="M369.784 0.018c-94.278 0-170.682 28.654-170.682 63.998 0 35.342 76.404 64.03 170.682 64.03 94.28 0 170.682-28.688 170.682-64.03C540.464 28.672 464.062 0.018 369.784 0.018z m91.654 73.904c-25.782 7.374-58.342 11.436-91.654 11.436-33.31 0-65.872-4.062-91.652-11.436-11.656-3.314-20.25-6.812-26.344-9.906 6.094-3.062 14.688-6.562 26.344-9.906 25.782-7.376 58.342-11.438 91.652-11.438 33.312 0 65.874 4.062 91.654 11.438 11.656 3.344 20.25 6.844 26.342 9.906-6.092 3.094-14.686 6.592-26.342 9.906z" fill="#E8563F" /></svg>