<?xml version="1.0" standalone="no"?><!DOCTYPE svg PUBLIC "-//W3C//DTD SVG 1.1//EN" "http://www.w3.org/Graphics/SVG/1.1/DTD/svg11.dtd"><svg class="icon" width="128px" height="128.00px" viewBox="0 0 1024 1024" version="1.1" xmlns="http://www.w3.org/2000/svg"><path d="M634.214 72.21c-29.06-35.624-74.684 56.906-139.34 48.594-64.654-8.344-50.374-105.686-203.558-4.532-115.558 76.342-5.468 133.464-30.374 142.152-24.876 8.656-144.372 1.156-147.558 91.498-3.218 90.342 235.276 247.384 235.276 247.384L573.56 506.2s89.718-398.396 60.654-433.99z" fill="#8CC153" /><path d="M1022.988 272.362c-17.782-79.998-142.214-35.906-169.778-35.906-27.532 0 79.122-85.654-54.594-117.934-177.214-42.844-146.652 39.998-213.336 67.686-66.654 27.686-129.374-41.03-154.278 0-24.876 41.03 132.966 370.254 132.966 370.254l251.024 11.344s225.778-215.414 207.996-295.444z" fill="#A0D468" /><path d="M384.002 447.984c0-70.686 57.312-127.998 127.998-127.998s127.996 57.312 127.996 127.998c0 70.716-57.31 128.01-127.996 128.01s-127.998-57.294-127.998-128.01z" fill="#FFCE54" /><path d="M820.93 304.548c-6.188 10.03-19.344 13.124-29.376 6.906-10-6.186-13.094-19.342-6.906-29.374 6.218-10 19.344-13.094 29.376-6.906 10 6.22 13.124 19.344 6.906 29.374z" fill="#434A54" /><path d="M837.368 440.14c-31 50.092-96.716 65.592-146.84 34.592-50.094-30.998-65.562-96.748-34.562-146.84s96.748-65.56 146.84-34.562c50.092 31 65.562 96.716 34.562 146.81z" fill="#FC6E51" /><path d="M149.632 483.294c102.092 58.778 232.526 23.656 291.306-78.466L71.166 191.99c-58.78 102.122-23.656 232.556 78.466 291.304z" fill="#ED5564" /><path d="M202.85 390.86c51.032 29.406 116.248 11.812 145.654-39.218l-184.902-106.436c-29.376 51.062-11.812 116.28 39.248 145.654z" fill="#DA4453" /><path d="M0.012 405.328v85.342c0 189.698 103.154 355.254 256.432 443.724a21.34 21.34 0 0 0-0.438 4.282c0 11.782 9.562 21.312 21.344 21.312H746.68a21.296 21.296 0 0 0 21.31-21.312c0-1.468-0.156-2.906-0.406-4.282 153.248-88.468 256.402-254.026 256.402-443.724v-85.342H0.012z" fill="#AC92EB" /><path d="M0.012 447.984v42.686h63.998c0 11.782 9.562 21.312 21.344 21.312s21.344-9.532 21.344-21.312h42.654c0 11.782 9.562 21.312 21.344 21.312s21.312-9.532 21.312-21.312h42.686c0 11.782 9.532 21.312 21.312 21.312s21.344-9.532 21.344-21.312h42.654c0 11.782 9.562 21.312 21.344 21.312s21.344-9.532 21.344-21.312h42.654c0 11.782 9.562 21.312 21.344 21.312S448 502.45 448 490.668h42.688c0 11.782 9.532 21.312 21.312 21.312s21.344-9.532 21.344-21.312h42.654c0 11.782 9.562 21.312 21.344 21.312 11.78 0 21.342-9.532 21.342-21.312h42.656c0 11.782 9.562 21.312 21.344 21.312s21.312-9.532 21.312-21.312h42.686a21.298 21.298 0 0 0 21.31 21.312c11.782 0 21.344-9.532 21.344-21.312h42.656c0 11.782 9.562 21.312 21.344 21.312s21.344-9.532 21.344-21.312h42.654c0 11.782 9.562 21.312 21.342 21.312a21.3 21.3 0 0 0 21.312-21.312h64v-42.686H0.012z" fill="#967ADC" /></svg>