<?xml version="1.0" standalone="no"?><!DOCTYPE svg PUBLIC "-//W3C//DTD SVG 1.1//EN" "http://www.w3.org/Graphics/SVG/1.1/DTD/svg11.dtd"><svg class="icon" width="128px" height="128.00px" viewBox="0 0 1024 1024" version="1.1" xmlns="http://www.w3.org/2000/svg"><path d="M383.832 297.756c-11.796 0-21.36-9.562-21.36-21.374V190.946c0-11.812 9.562-21.374 21.36-21.374 11.794 0 21.358 9.562 21.358 21.374v85.436c0 11.812-9.564 21.374-21.358 21.374zM853.772 297.756c-11.782 0-21.344-9.562-21.344-21.374V190.946c0-11.812 9.562-21.374 21.344-21.374s21.344 9.562 21.344 21.374v85.436c0 11.812-9.564 21.374-21.344 21.374z" fill="#434A54" /><path d="M212.946 1023.984H127.512c-11.796 0-21.36-9.562-21.36-21.34V21.388c0-11.78 9.562-21.374 21.36-21.374h85.434c11.796 0 21.376 9.594 21.376 21.374v981.256c-0.002 11.778-9.58 21.34-21.376 21.34z" fill="#F6BB42" /><path d="M981.924 84.138H42.076A21.366 21.366 0 0 0 20.7 105.512v85.434c0 11.78 9.562 21.342 21.376 21.342h939.848c11.812 0 21.376-9.562 21.376-21.342V105.512a21.368 21.368 0 0 0-21.376-21.374z" fill="#FFCE54" /><path d="M185.338 133.104c8.342 8.342 8.342 21.874 0 30.218-8.344 8.344-21.876 8.344-30.204 0-8.344-8.344-8.344-21.876 0-30.218 8.328-8.344 21.86-8.344 30.204 0z" fill="#434A54" /><path d="M277.038 255.008h683.512v598.106H277.038z" fill="#ED5564" /><path d="M437.126 538.876c-5.062-1.344-25.656-4.218-25.656-11.656 0-4.718 4.39-7.438 12.156-7.438 9.454 0 15.188 4.218 15.36 11.5h34.61c-0.344-24.812-18.062-39-48.782-39-29.032 0-48.624 15.032-48.624 37.656 0 20.594 12.5 27.344 29.716 33.25 8.266 2.844 29.032 7.938 33.922 11.968 1.516 1.344 2.36 2.876 2.36 4.906 0 6.062-5.734 9.968-15.016 9.968-10.796 0-18.062-3.906-18.734-15.532h-36.966c0.344 26.812 20.922 43.184 54.514 43.184 32.078 0 52.498-15.84 52.498-40.84 0-24.966-21.264-32.748-41.358-37.966zM556.718 491.594c-37.296 0-61.782 25-61.782 63.156 0 37.968 24.656 63.122 61.438 63.122 36.124 0 60.434-25.308 60.434-62.964 0-37.814-24.122-63.314-60.09-63.314zM556.376 588c-15.188 0-23.954-12.344-23.954-33.782 0-20.594 8.938-33.062 23.796-33.062 14.686 0 23.28 11.968 23.28 32.062 0 22.782-8.094 34.782-23.122 34.782zM677.808 494.814h-36.936v120.182h90.278v-31.402h-53.342zM805.552 494.814h-53.686v120.182h52.998c39.312 0 61.25-20.434 61.25-60.434 0.002-37.468-23.78-59.748-60.562-59.748z m-3.062 89.81h-14.5v-59.594h10.968c18.906 0 30.532 9.782 30.532 30.218 0 18.064-8.938 29.376-27 29.376z" fill="#434A54" /><path d="M747.37 404.534H490.266c-11.796 0-21.374-9.562-21.374-21.344 0-11.812 9.576-21.374 21.374-21.374h257.104c11.78 0 21.342 9.562 21.342 21.374-0.002 11.782-9.564 21.344-21.342 21.344z" fill="#DA4453" /><path d="M747.37 746.308H490.266c-11.796 0-21.374-9.562-21.374-21.344 0-11.812 9.576-21.376 21.374-21.376h257.104c11.78 0 21.342 9.562 21.342 21.376-0.002 11.782-9.564 21.344-21.342 21.344z" fill="#DA4453" /></svg>