<?xml version="1.0" standalone="no"?><!DOCTYPE svg PUBLIC "-//W3C//DTD SVG 1.1//EN" "http://www.w3.org/Graphics/SVG/1.1/DTD/svg11.dtd"><svg class="icon" width="128px" height="128.00px" viewBox="0 0 1024 1024" version="1.1" xmlns="http://www.w3.org/2000/svg"><path d="M786.302 85.98C755.804 28.936 719.306 0.016 677.68 0.016c-47.81 0-97.496 39.124-147.714 116.262a703.698 703.698 0 0 0-17.998 29.28A676.822 676.822 0 0 0 494 116.278C443.814 39.14 394.128 0.016 346.286 0.016c-41.592 0-78.122 28.92-108.59 85.964-22.812 42.672-14.594 73.326-3.688 91.53 19.656 32.78 63.592 54.858 134.34 67.498 54.28 9.704 111.746 11.14 141.184 11.14h4.936c29.406 0 86.906-1.438 141.152-11.14 70.75-12.64 114.686-34.718 134.372-67.498 10.874-18.204 19.124-48.858-3.69-91.53z" fill="#ED5564" /><path d="M42.67 317.458h938.628v706.526H42.67z" fill="#FFCE54" /><path d="M42.67 469.456l938.628 85.354v-128.152H42.67z" fill="#F6BB42" /><path d="M0.016 192.042h1023.968V426.66H0.016z" fill="#FFCE54" /><path d="M405.314 725.336c58.906 0 106.686-47.746 106.686-106.652 0-58.936-47.78-106.668-106.686-106.668-58.904 0-106.652 47.732-106.652 106.668 0 58.906 47.748 106.652 106.652 106.652z m0-170.65c35.282 0 64 28.688 64 63.998 0 35.282-28.718 63.998-64 63.998-35.28 0-63.998-28.716-63.998-63.998 0-35.31 28.72-63.998 63.998-63.998zM618.684 725.336c-58.936 0-106.684 47.75-106.684 106.654 0 58.936 47.748 106.686 106.684 106.686 58.874 0 106.624-47.75 106.624-106.686-0.002-58.904-47.752-106.654-106.624-106.654z m0 170.652c-35.31 0-63.998-28.688-63.998-63.998 0-35.28 28.688-63.998 63.998-63.998 35.248 0 63.998 28.718 63.998 63.998 0 35.31-28.75 63.998-63.998 63.998zM719.056 548.436a21.25 21.25 0 0 0 6.25-15.092c0-11.782-9.562-21.328-21.312-21.328a21.158 21.158 0 0 0-15.062 6.25l-384.02 383.972a21.226 21.226 0 0 0-6.25 15.094c0 11.782 9.562 21.344 21.344 21.344a21.28 21.28 0 0 0 15.062-6.25l383.988-383.99z" fill="#ED5564" /></svg>