<?xml version="1.0" standalone="no"?><!DOCTYPE svg PUBLIC "-//W3C//DTD SVG 1.1//EN" "http://www.w3.org/Graphics/SVG/1.1/DTD/svg11.dtd"><svg class="icon" width="128px" height="128.00px" viewBox="0 0 1024 1024" version="1.1" xmlns="http://www.w3.org/2000/svg"><path d="M783.052 0.008L512 30.13 0.016 542.118l481.86 481.876 511.986-512 30.124-271.024L783.052 0.008z m0.376 283.24c-23.56 0-42.684-19.092-42.684-42.654s19.124-42.654 42.684-42.654c23.562 0 42.656 19.092 42.656 42.654s-19.094 42.654-42.656 42.654z" fill="#FFCE54" /><path d="M583.124 527.054c-47.124 0-85.31 38.202-85.31 85.324 0 47.124 38.186 85.31 85.31 85.31s85.34-38.186 85.34-85.31c-0.002-47.122-38.218-85.324-85.34-85.324z m0 128.012c-23.5 0-42.656-19.188-42.656-42.688 0-11.376 4.438-22.124 12.5-30.186s18.782-12.5 30.156-12.5c23.532 0 42.686 19.124 42.686 42.686-0.002 23.5-19.156 42.688-42.686 42.688zM412.47 527.054c47.124 0 85.342-38.218 85.342-85.342s-38.216-85.342-85.342-85.342c-47.124 0-85.34 38.218-85.34 85.342s38.218 85.342 85.34 85.342z m0-127.996c23.532 0 42.656 19.124 42.656 42.654s-19.124 42.654-42.656 42.654c-23.53 0-42.654-19.124-42.654-42.654s19.126-42.654 42.654-42.654zM662.212 392.808c3.844-3.876 6.25-9.188 6.25-15.094 0-11.782-9.562-21.344-21.344-21.344a21.276 21.276 0 0 0-15.06 6.25L333.38 661.254v0.062a21.228 21.228 0 0 0-6.25 15.062c0 11.748 9.562 21.31 21.342 21.31a21.18 21.18 0 0 0 15.094-6.25l298.646-298.63z" fill="#ED5564" /><path d="M783.178 155.564c-47.028 0-85.308 38.282-85.308 85.342s38.282 85.342 85.308 85.342c47.062 0 85.344-38.282 85.344-85.342s-38.282-85.342-85.344-85.342z m0 127.996c-23.56 0-42.652-19.092-42.652-42.654s19.092-42.654 42.652-42.654c23.562 0 42.688 19.092 42.688 42.654s-19.126 42.654-42.688 42.654z" fill="#F6BB42" /></svg>