<?xml version="1.0" standalone="no"?><!DOCTYPE svg PUBLIC "-//W3C//DTD SVG 1.1//EN" "http://www.w3.org/Graphics/SVG/1.1/DTD/svg11.dtd"><svg class="icon" width="128px" height="128.00px" viewBox="0 0 1024 1024" version="1.1" xmlns="http://www.w3.org/2000/svg"><path d="M639.996 234.686h298.68v170.652h-298.68z" fill="#FFCE54" /><path d="M639.996 320.012v42.672c5.5 0 10.938-2.094 15.124-6.25 8.312-8.344 8.312-21.844 0-30.172a21.296 21.296 0 0 0-15.124-6.25zM923.616 326.262c-8.344 8.328-8.344 21.828 0 30.172a21.22 21.22 0 0 0 15.06 6.25v-42.672a21.152 21.152 0 0 0-15.06 6.25z" fill="#F6BB42" /><path d="M703.996 234.686a21.44 21.44 0 0 0 6.25 15.078c8.376 8.328 21.874 8.328 30.186 0a21.18 21.18 0 0 0 6.25-15.078h-42.686zM768.024 234.686c0 5.454 2.094 10.906 6.218 15.078 8.376 8.328 21.876 8.328 30.188 0a21.18 21.18 0 0 0 6.25-15.078h-42.656zM868.43 249.764a21.18 21.18 0 0 0 6.25-15.078h-42.656c0 5.454 2.094 10.906 6.25 15.078 8.344 8.328 21.844 8.328 30.156 0z" fill="#434A54" /><path d="M85.384 234.686h298.618v170.652H85.384z" fill="#FFCE54" /><path d="M85.384 320.012v42.672c5.438 0 10.906-2.094 15.062-6.25 8.344-8.344 8.344-21.844 0-30.172a21.206 21.206 0 0 0-15.062-6.25zM368.94 326.262c-8.31 8.328-8.31 21.828 0 30.172a21.332 21.332 0 0 0 15.062 6.25v-42.672a21.26 21.26 0 0 0-15.062 6.25z" fill="#F6BB42" /><path d="M149.382 234.686a21.18 21.18 0 0 0 6.25 15.078c8.312 8.328 21.812 8.328 30.156 0a21.28 21.28 0 0 0 6.218-15.078H149.382zM213.38 234.686a21.18 21.18 0 0 0 6.25 15.078c8.312 8.328 21.812 8.328 30.156 0a21.28 21.28 0 0 0 6.218-15.078H213.38zM313.786 249.764a21.314 21.314 0 0 0 6.25-15.078H277.38c0 5.454 2.062 10.906 6.248 15.078 8.314 8.328 21.814 8.328 30.158 0z" fill="#434A54" /><path d="M405.376 362.684H64.01s-21.312 85.326-21.312 277.32c0 191.996 21.312 277.306 21.312 277.306h341.368S426.69 832 426.69 640.004c0-191.994-21.314-277.32-21.314-277.32z" fill="#CCD1D9" /><path d="M42.698 640.004c0 191.996 21.312 277.306 21.312 277.306h341.368S426.69 832 426.69 640.004H42.698z" fill="#656D78" /><path d="M959.988 362.684H618.684s-21.31 85.326-21.31 277.32c0 191.996 21.31 277.306 21.31 277.306h341.304S981.364 832 981.364 640.004c0-191.994-21.376-277.32-21.376-277.32z" fill="#CCD1D9" /><path d="M597.374 640.004c0 191.996 21.31 277.306 21.31 277.306h341.304S981.364 832 981.364 640.004H597.374z" fill="#E6E9ED" /><path d="M469.376 895.998h85.312V149.344c0-23.514-19.124-42.654-42.688-42.654-23.5 0-42.624 19.14-42.624 42.654v746.654z" fill="#ED5564" /><path d="M304.942 889.748c8.312 8.312 21.844 8.312 30.188 0 8.312-8.312 8.312-21.844 0-30.188-8.344-8.312-21.876-8.312-30.188 0-8.314 8.344-8.314 21.876 0 30.188zM219.63 889.748c8.312 8.312 21.812 8.312 30.156 0s8.344-21.844 0-30.188c-8.344-8.312-21.844-8.312-30.156 0-8.342 8.344-8.342 21.876 0 30.188zM134.258 889.748c8.376 8.312 21.876 8.312 30.188 0s8.312-21.844 0-30.188c-8.312-8.312-21.812-8.312-30.188 0-8.312 8.344-8.312 21.876 0 30.188z" fill="#434A54" /><path d="M185.79 496.93c-8.344-8.344-21.844-8.344-30.156 0a21.292 21.292 0 0 0-6.218 16.14l-0.096 254.932c0 5.438 2.062 10.906 6.25 15.062 8.312 8.344 21.812 8.376 30.156 0.032a21.328 21.328 0 0 0 6.282-15.094l0.062-255.978h-0.062c0-5.47-2.062-10.938-6.218-15.094zM320.036 512.008c0-5.454-2.094-10.922-6.25-15.078-8.344-8.344-21.844-8.344-30.156 0a21.16 21.16 0 0 0-6.248 15.078v255.994c0 5.438 2.062 10.938 6.248 15.062 8.312 8.344 21.812 8.344 30.156 0a21.222 21.222 0 0 0 6.25-15.062V512.008z" fill="#AAB2BC" /><path d="M149.382 640.004l-0.062 127.998c0 5.438 2.062 10.906 6.25 15.062 8.312 8.344 21.812 8.376 30.156 0.032a21.328 21.328 0 0 0 6.282-15.094l0.032-127.998H149.382zM277.38 640.004v127.998c0 5.438 2.062 10.938 6.248 15.062 8.312 8.344 21.812 8.344 30.156 0a21.222 21.222 0 0 0 6.25-15.062v-127.998H277.38z" fill="#434A54" /><path d="M859.618 889.748c8.312 8.312 21.812 8.312 30.154 0 8.344-8.312 8.344-21.844 0-30.188-8.342-8.312-21.842-8.312-30.154 0-8.344 8.344-8.344 21.876 0 30.188zM774.242 889.748c8.376 8.312 21.876 8.312 30.188 0s8.312-21.844 0-30.188c-8.312-8.312-21.812-8.312-30.188 0-8.31 8.344-8.31 21.876 0 30.188zM688.934 889.748c8.312 8.312 21.844 8.312 30.188 0 8.31-8.312 8.31-21.844 0-30.188-8.344-8.312-21.876-8.312-30.188 0-8.312 8.344-8.312 21.876 0 30.188z" fill="#CCD1D9" /><path d="M740.432 496.93c-8.312-8.344-21.81-8.344-30.186 0-4.438 4.438-6.468 10.344-6.188 16.14l-0.062 254.9a21.132 21.132 0 0 0 6.218 15.094c8.344 8.344 21.842 8.376 30.154 0.032 4.188-4.156 6.25-9.624 6.25-15.094l0.124-255.978h-0.062c0.002-5.47-2.06-10.938-6.248-15.094zM874.68 512.008c0-5.454-2.062-10.922-6.25-15.078-8.312-8.344-21.812-8.344-30.156 0a21.286 21.286 0 0 0-6.25 15.078v255.994c0 5.438 2.094 10.938 6.25 15.062 8.344 8.344 21.844 8.344 30.156 0 4.188-4.124 6.25-9.624 6.25-15.062V512.008z" fill="#AAB2BC" /><path d="M704.028 640.004l-0.032 127.966a21.132 21.132 0 0 0 6.218 15.094c8.344 8.344 21.842 8.376 30.154 0.032 4.188-4.156 6.25-9.624 6.25-15.094l0.062-127.998h-42.652zM832.024 640.004v127.998c0 5.438 2.094 10.938 6.25 15.062 8.344 8.344 21.844 8.344 30.156 0 4.188-4.124 6.25-9.624 6.25-15.062v-127.998h-42.656z" fill="#CCD1D9" /><path d="M1002.676 917.31H21.386c-11.812 0-21.376-9.532-21.376-21.312s9.562-21.312 21.376-21.312h981.29c11.782 0 21.312 9.532 21.312 21.312s-9.53 21.312-21.312 21.312z" fill="#434A54" /></svg>