<?xml version="1.0" standalone="no"?><!DOCTYPE svg PUBLIC "-//W3C//DTD SVG 1.1//EN" "http://www.w3.org/Graphics/SVG/1.1/DTD/svg11.dtd"><svg class="icon" width="128px" height="128.00px" viewBox="0 0 1024 1024" version="1.1" xmlns="http://www.w3.org/2000/svg"><path d="M848.902 24.216C823.904-0.752 790.156-7.518 773.5 9.154L9.164 773.488c-16.656 16.656-9.906 50.436 15.092 75.436 24.968 25 58.748 31.748 75.404 15.094L863.996 99.652c16.656-16.656 9.906-50.438-15.094-75.436zM999.742 175.086c-24.998-25-58.746-31.75-75.402-15.092L160.002 924.328c-16.656 16.688-9.906 50.436 15.094 75.436 25 24.998 58.748 31.748 75.404 15.092l764.336-764.366c16.656-16.656 9.906-50.436-15.094-75.404z" fill="#965353" /><path d="M752.906 496.92c-8.344 8.312-8.344 21.81 0 30.154 8.312 8.344 21.844 8.344 30.156 0 8.344-8.344 8.344-21.842 0-30.154-8.312-8.344-21.844-8.344-30.156 0zM795.562 368.924c-8.344 8.312-8.344 21.812 0 30.156 8.312 8.344 21.842 8.344 30.154 0 8.344-8.344 8.344-21.844 0-30.156-8.312-8.344-21.84-8.344-30.154 0zM868.402 219.584a21.33 21.33 0 0 0-30.186 0c-8.312 8.312-8.312 21.842 0 30.154a21.33 21.33 0 0 0 30.186 0c8.312-8.31 8.312-21.84 0-30.154zM582.224 475.578c-8.312 8.312-8.312 21.842 0 30.154a21.334 21.334 0 0 0 30.186 0c8.312-8.312 8.312-21.842 0-30.154a21.33 21.33 0 0 0-30.186 0zM496.93 731.584c-8.342 8.312-8.342 21.842 0 30.154 8.312 8.344 21.844 8.344 30.156 0 8.344-8.312 8.344-21.842 0-30.154-8.312-8.344-21.844-8.344-30.156 0zM271.094 847.08a21.336 21.336 0 0 0 0-30.188c-8.312-8.31-21.844-8.31-30.156 0a21.336 21.336 0 0 0 0 30.188c8.312 8.312 21.844 8.312 30.156 0zM262.25 966.232c-8.312 8.344-8.312 21.844 0 30.188 8.344 8.312 21.842 8.312 30.186 0 8.312-8.344 8.312-21.844 0-30.188-8.344-8.312-21.842-8.312-30.186 0zM390.246 774.238c-8.312 8.344-8.312 21.844 0 30.156a21.33 21.33 0 0 0 30.186 0c8.312-8.312 8.312-21.812 0-30.156a21.33 21.33 0 0 0-30.186 0zM582.224 560.9c-8.312 8.344-8.312 21.844 0 30.188 8.344 8.312 21.842 8.312 30.186 0 8.312-8.344 8.312-21.844 0-30.188-8.344-8.312-21.842-8.312-30.186 0zM454.244 603.588c-8.312 8.312-8.312 21.844 0 30.154a21.33 21.33 0 0 0 30.186 0c8.312-8.31 8.312-21.842 0-30.154a21.33 21.33 0 0 0-30.186 0zM48.944 710.24a21.336 21.336 0 0 0 0 30.188c8.312 8.312 21.844 8.312 30.156 0a21.336 21.336 0 0 0 0-30.188c-8.312-8.312-21.844-8.312-30.156 0zM155.596 603.588c-8.344 8.312-8.344 21.844 0 30.154 8.312 8.344 21.842 8.344 30.156 0 8.344-8.31 8.344-21.842 0-30.154-8.312-8.344-21.842-8.344-30.156 0zM761.718 228.428a21.332 21.332 0 0 0 0-30.188c-8.312-8.312-21.844-8.312-30.156 0a21.332 21.332 0 0 0 0 30.188c8.314 8.312 21.844 8.312 30.156 0zM688.908 70.246a21.336 21.336 0 0 0 0 30.188c8.312 8.312 21.844 8.312 30.156 0a21.336 21.336 0 0 0 0-30.188c-8.312-8.314-21.844-8.314-30.156 0zM603.566 262.24a21.332 21.332 0 0 0 0 30.188c8.312 8.312 21.844 8.312 30.156 0a21.332 21.332 0 0 0 0-30.188c-8.312-8.314-21.844-8.314-30.156 0zM326.248 518.23c-8.312 8.344-8.312 21.844 0 30.204 8.344 8.31 21.842 8.31 30.186 0 8.312-8.36 8.312-21.86 0-30.204-8.344-8.312-21.842-8.312-30.186 0zM283.592 646.242a21.332 21.332 0 0 0 0 30.188c8.312 8.31 21.842 8.31 30.156 0a21.332 21.332 0 0 0 0-30.188c-8.312-8.312-21.842-8.312-30.156 0zM155.596 774.238c-8.344 8.344-8.344 21.844 0 30.156 8.312 8.344 21.842 8.344 30.156 0 8.344-8.312 8.344-21.812 0-30.156-8.312-8.344-21.842-8.344-30.156 0zM463.088 356.424a21.336 21.336 0 0 0 0-30.188c-8.312-8.312-21.844-8.312-30.156 0a21.336 21.336 0 0 0 0 30.188c8.312 8.312 21.844 8.312 30.156 0zM454.12 475.702c-8.25 8.406-8.124 21.906 0.25 30.154 8.406 8.28 21.936 8.156 30.186-0.25s8.124-21.904-0.25-30.154c-8.406-8.282-21.936-8.156-30.186 0.25z" fill="#E6E9ED" /></svg>