<?xml version="1.0" standalone="no"?><!DOCTYPE svg PUBLIC "-//W3C//DTD SVG 1.1//EN" "http://www.w3.org/Graphics/SVG/1.1/DTD/svg11.dtd"><svg class="icon" width="128px" height="128.00px" viewBox="0 0 1024 1024" version="1.1" xmlns="http://www.w3.org/2000/svg"><path d="M411.522 0.018h213.354v175.338H411.522z" fill="#646C77" /><path d="M496.864 0.018h42.656v120.558h-42.656z" fill="#424953" /><path d="M347.898 85.358h341.35v175.338H347.898z" fill="#E8A93A" /><path d="M305.244 170.7h426.626v175.306H305.244zM782.37 983.516l-15.688-47.03c-7.374-22.282-24.124-56.466-37.124-75.998L691.56 803.52c-9.69-14.592-28.06-23.342-45.876-23.342-6.062 0-12.062 1.032-17.626 3.19l-91.012 35.06c-10.968 4.216-4.062 6.342-18.5 6.342-14.404 0-7.532-2.126-18.466-6.342l-91.03-35.06c-5.56-2.158-11.56-3.19-17.624-3.19-17.782 0-36.156 8.75-45.876 23.342l-37.998 56.968c-13 19.532-29.718 53.716-37.154 75.998l-15.688 47.03c-7.406 22.28 5.718 40.466 29.188 40.466h42.654c23.466 0 52.28-9.594 63.998-21.312 11.748-11.748 40.53-21.342 63.998-21.342h128.012c23.436 0 52.248 9.594 63.996 21.342 11.75 11.718 40.5 21.312 64 21.312h42.684c23.442 0 36.566-18.188 29.13-40.466z" fill="#F5BA45" /><path d="M782.37 983.516l-15.688-47.03c-7.374-22.282-24.124-56.466-37.124-75.998L691.56 803.52c-9.69-14.592-28.06-23.342-45.876-23.342-6.062 0-12.062 1.032-17.626 3.19l-3.124 1.216c9.686 3.938 18.312 10.438 23.938 18.936l37.996 56.968c13.062 19.532 29.75 53.716 37.188 75.998l15.688 47.03c7.374 22.28-5.75 40.466-29.186 40.466h42.684c23.44 0 36.564-18.188 29.128-40.466z" fill="#FFFFFF" opacity=".2" /><path d="M321.65 789.302c-3.25 0-6.532-0.718-9.626-2.282-57.092-28.844-105.372-68.06-143.462-116.59-30.438-38.716-54.376-83.342-71.216-132.622-28.594-83.684-26.812-151.65-26.718-154.494l0.656-20.654h191.306c11.812 0 21.342 9.56 21.342 21.342s-9.53 21.312-21.342 21.312H113.906c1.562 24.904 6.876 69.716 24.312 120.152 34.998 101.246 99.934 176.462 193.056 223.458 10.498 5.314 14.716 18.158 9.406 28.658a21.284 21.284 0 0 1-19.03 11.72z" fill="#F5BA45" /><path d="M702.372 789.302c-7.81 0-15.31-4.282-19.06-11.716-5.31-10.5-1.126-23.344 9.438-28.658 93.558-47.248 158.684-122.932 193.554-224.93 17.126-50.09 22.312-94.122 23.812-118.682h-148.746c-11.75 0-21.31-9.532-21.31-21.312s9.56-21.342 21.31-21.342h191.37l0.626 20.654c0.126 2.844 1.876 70.81-26.686 154.494-16.876 49.28-40.812 93.904-71.246 132.622-38.062 48.53-86.374 87.746-143.498 116.59a20.912 20.912 0 0 1-9.564 2.28z" fill="#FECD57" /><path d="M837.306 256.008H199.842l39.842 127.996c-21.592 83.124-50.31 194.682 48.53 436.674 0 0 12.626 75.278 230.336 75.278 217.762 0 230.384-75.278 230.384-75.278 98.808-241.992 70.122-353.55 48.496-436.674l39.876-127.996z" fill="#FECD57" /><path d="M837.306 256.008H794.62l-39.81 127.996c21.56 83.124 50.31 194.682-48.56 436.674 0 0-11.814 70.278-209.01 75.03 6.874 0.154 13.968 0.248 21.31 0.248 217.762 0 230.384-75.278 230.384-75.278 98.808-241.992 70.122-353.55 48.496-436.674l39.876-127.996zM689.248 170.7h42.624v85.308h-42.624zM645.938 85.358h42.624V170.7h-42.624z" fill="#FFFFFF" opacity=".2" /><path d="M518.548 767.99a21.296 21.296 0 0 1-21.31-21.31v-64c0-11.78 9.532-21.342 21.31-21.342 11.782 0 21.344 9.562 21.344 21.342v64c0 11.78-9.562 21.31-21.344 21.31z" fill="#424953" /><path d="M561.25 703.994h-85.356c-11.782 0-21.342-9.534-21.342-21.314s9.56-21.342 21.342-21.342h85.356c11.752 0 21.314 9.562 21.314 21.342s-9.562 21.314-21.314 21.314z" fill="#646C77" /></svg>