<?xml version="1.0" standalone="no"?><!DOCTYPE svg PUBLIC "-//W3C//DTD SVG 1.1//EN" "http://www.w3.org/Graphics/SVG/1.1/DTD/svg11.dtd"><svg class="icon" width="128px" height="128.00px" viewBox="0 0 1024 1024" version="1.1" xmlns="http://www.w3.org/2000/svg"><path d="M789.358 192.01H618.676c-11.782 0-21.344-9.562-21.344-21.342V85.326c0-11.782 9.562-21.312 21.344-21.312h170.65c7.406 0 14.282 3.812 18.156 10.094 3.876 6.312 4.25 14.156 0.938 20.75l-16.562 33.154 16.062 32.156a20.982 20.982 0 0 1 2.782 10.5c0 11.78-9.564 21.342-21.344 21.342z" fill="#DA4453" /><path d="M661.332 21.33h-149.356c-11.75 0-21.312 9.56-21.312 21.342v85.34c0 11.782 9.562 21.312 21.312 21.312h149.356c11.782 0 21.342-9.532 21.342-21.312v-85.34c0-11.782-9.56-21.342-21.342-21.342z" fill="#ED5564" /><path d="M511.976 341.318c-11.75 0-21.312-9.532-21.312-21.312V21.33c0-11.782 9.562-21.312 21.312-21.312 11.812 0 21.344 9.532 21.344 21.312v298.676c0 11.782-9.53 21.312-21.344 21.312z" fill="#434A54" /><path d="M639.988 256.008h-63.998c-11.75 0-21.312 9.532-21.312 21.312v21.342h-85.356V277.32c0-11.782-9.532-21.312-21.342-21.312h-64c-11.75 0-21.312 9.532-21.312 21.312v277.334c0 11.78 9.562 21.342 21.312 21.342h256.008a21.332 21.332 0 0 0 21.344-21.342V277.32c0-11.78-9.532-21.312-21.344-21.312z" fill="#F6BB42" /><path d="M639.988 256.008h-63.998c-11.75 0-21.312 9.532-21.312 21.312v21.342h-85.356V277.32c0-11.782-9.532-21.312-21.342-21.312h-64c-11.75 0-21.312 9.532-21.312 21.312v42.686c0-11.812 9.562-21.344 21.312-21.344h63.998a21.312 21.312 0 0 1 21.342 21.344v21.312h85.356v-21.312c0-11.812 9.562-21.344 21.312-21.344h63.998a21.314 21.314 0 0 1 21.344 21.344V277.32c0.002-11.78-9.53-21.312-21.342-21.312z" fill="#FFFFFF" opacity=".2" /><path d="M789.326 384.004h-85.34c-11.75 0-21.312 9.532-21.312 21.312v63.996h-85.342v-63.996c0-11.782-9.532-21.312-21.342-21.312h-128.012c-11.75 0-21.312 9.532-21.312 21.312v63.996h-85.34v-63.996c0-5.656-2.25-11.094-6.25-15.094s-9.406-6.218-15.094-6.218h-85.31c-11.78 0-21.342 9.532-21.342 21.312v511.982c0 11.78 9.562 21.342 21.342 21.342h554.654c11.782 0 21.344-9.562 21.344-21.342V405.316c0-11.78-9.562-21.312-21.344-21.312z" fill="#FFCE54" /><path d="M447.978 426.658h128.012A21.312 21.312 0 0 1 597.332 448v-42.684c0-11.782-9.532-21.312-21.342-21.312h-128.012c-11.75 0-21.312 9.532-21.312 21.312V448c0-11.81 9.562-21.342 21.312-21.342zM597.332 469.312h85.342V512h-85.342zM341.326 469.312h85.34V512h-85.34zM234.672 426.658h85.31c5.688 0 11.094 2.25 15.094 6.25s6.25 9.406 6.25 15.06v-42.652c0-5.656-2.25-11.094-6.25-15.094s-9.406-6.218-15.094-6.218h-85.31c-11.78 0-21.342 9.532-21.342 21.312V448a21.332 21.332 0 0 1 21.342-21.342zM789.326 384.004h-85.34c-11.75 0-21.312 9.532-21.312 21.312V448c0-11.81 9.562-21.342 21.312-21.342h85.34c11.782 0 21.344 9.532 21.344 21.342v-42.684c0-11.78-9.562-21.312-21.344-21.312z" fill="#FFFFFF" opacity=".2" /><path d="M511.976 597.308c-47.124 0-85.31 38.218-85.31 85.342v185.336h170.666v-185.336c0-47.122-38.186-85.342-85.356-85.342z" fill="#434A54" /><path d="M1021.162 992.014c-1.376-2.376-33.968-58.124-113.652-113.558-46.282-32.188-99.152-57.812-157.152-76.154-72.026-22.78-152.244-34.31-238.38-34.31-86.124 0-166.306 11.532-238.336 34.31-57.998 18.342-110.872 43.966-157.15 76.154C36.806 933.892 4.214 989.64 2.84 992.014c-3.782 6.594-3.782 14.718 0.032 21.312s10.876 10.656 18.468 10.656h981.326c7.624 0 14.656-4.062 18.468-10.656s3.81-14.718 0.028-21.312z" fill="#FFCE54" /><path d="M11.494 1021.544c14.406-20.094 47.404-60.344 104.996-100.436 46.28-32.186 99.154-57.81 157.15-76.154 72.03-22.782 152.212-34.31 238.336-34.31 86.136 0 166.356 11.53 238.38 34.31 58 18.344 110.872 43.968 157.152 76.154 57.592 40.092 90.59 80.342 104.964 100.436a21.266 21.266 0 0 0 8.656-8.218 21.366 21.366 0 0 0 0.032-21.312c-1.376-2.376-33.968-58.124-113.652-113.558-46.282-32.188-99.152-57.812-157.152-76.154-72.026-22.78-152.244-34.31-238.38-34.31-86.124 0-166.306 11.532-238.336 34.31-57.998 18.342-110.872 43.966-157.15 76.154-79.686 55.436-112.278 111.184-113.652 113.558a21.356 21.356 0 0 0 0.032 21.312 21.36 21.36 0 0 0 8.624 8.218z" fill="#FFFFFF" opacity=".2" /><path d="M249.766 923.546c8.312 8.344 8.312 21.844 0 30.188-8.342 8.31-21.842 8.31-30.186 0a21.336 21.336 0 0 1 0-30.188c8.344-8.31 21.842-8.31 30.186 0zM335.076 838.206a21.332 21.332 0 0 1 0 30.188c-8.312 8.312-21.842 8.312-30.156 0a21.332 21.332 0 0 1 0-30.188c8.314-8.314 21.844-8.314 30.156 0zM420.416 923.546c8.312 8.344 8.312 21.844 0 30.188-8.342 8.31-21.842 8.31-30.186 0-8.312-8.344-8.312-21.844 0-30.188 8.344-8.31 21.844-8.31 30.186 0zM505.758 838.206c8.312 8.344 8.312 21.844 0 30.188-8.344 8.312-21.844 8.312-30.186 0-8.312-8.344-8.312-21.844 0-30.188 8.342-8.314 21.842-8.314 30.186 0zM591.082 923.546a21.332 21.332 0 0 1 0 30.188c-8.312 8.31-21.842 8.31-30.154 0a21.332 21.332 0 0 1 0-30.188c8.312-8.31 21.842-8.31 30.154 0zM676.426 838.206c8.31 8.344 8.31 21.844 0 30.188-8.344 8.312-21.844 8.312-30.188 0-8.312-8.344-8.312-21.844 0-30.188 8.344-8.314 21.844-8.314 30.188 0zM761.732 923.546a21.332 21.332 0 0 1 0 30.188c-8.312 8.31-21.812 8.31-30.156 0a21.332 21.332 0 0 1 0-30.188c8.344-8.31 21.844-8.31 30.156 0z" fill="#F6BB42" /></svg>