<?xml version="1.0" standalone="no"?><!DOCTYPE svg PUBLIC "-//W3C//DTD SVG 1.1//EN" "http://www.w3.org/Graphics/SVG/1.1/DTD/svg11.dtd"><svg class="icon" width="128px" height="128.00px" viewBox="0 0 1024 1024" version="1.1" xmlns="http://www.w3.org/2000/svg"><path d="M0.01 682.676h1023.98v85.312H0.01zM0.01 426.666h1023.98v85.31H0.01z" fill="#F4BE8E" /><path d="M959.99 554.68H64.008c-11.812 0-21.344-9.562-21.344-21.36 0-11.782 9.532-21.312 21.344-21.312h895.982a21.3 21.3 0 0 1 21.312 21.312c0 11.798-9.53 21.36-21.312 21.36z" fill="#965353" /><path d="M959.99 682.676H64.008c-11.812 0-21.344-9.562-21.344-21.312 0-11.812 9.532-21.376 21.344-21.376h895.982c11.782 0 21.312 9.562 21.312 21.376 0 11.75-9.53 21.312-21.312 21.312z" fill="#FB6D51" /><path d="M63.978 639.988c-8.906 0-17.25-5.624-20.218-14.56-3.718-11.188 2.312-23.25 13.5-27l127.998-42.686a21.562 21.562 0 0 1 13.468 0l121.28 40.436 121.248-40.436a21.562 21.562 0 0 1 13.468 0L576 596.178l121.248-40.436a21.562 21.562 0 0 1 13.468 0l121.28 40.436 121.246-40.436c11.156-3.688 23.25 2.312 26.968 13.498 3.718 11.188-2.312 23.25-13.5 27l-127.996 42.688a21.59 21.59 0 0 1-13.468 0l-121.248-40.438-121.28 40.438a21.59 21.59 0 0 1-13.468 0L448 598.49l-121.278 40.438a21.59 21.59 0 0 1-13.468 0l-121.248-40.438-121.278 40.438c-2.22 0.75-4.5 1.06-6.75 1.06z" fill="#A0D468" /><path d="M512 256.012L0.01 426.666h1023.98z" fill="#EAAD7A" /></svg>