<?xml version="1.0" standalone="no"?><!DOCTYPE svg PUBLIC "-//W3C//DTD SVG 1.1//EN" "http://www.w3.org/Graphics/SVG/1.1/DTD/svg11.dtd"><svg class="icon" width="128px" height="128.00px" viewBox="0 0 1024 1024" version="1.1" xmlns="http://www.w3.org/2000/svg"><path d="M485.064 379.902c-32.188 0-58.406-24.188-58.406-53.938 0-27.25 21.968-49.812 50.406-53.438 4.624-22.624 24.56-40.312 49.436-43.466 4.624-22.624 24.562-40.312 49.438-43.468 4.624-22.624 24.562-40.312 49.438-43.468 5.094-25 28.904-44 57.436-44 28.5 0 52.31 19 57.374 44 24.904 3.156 44.874 20.844 49.436 43.468 24.906 3.156 44.876 20.844 49.438 43.468 24.906 3.156 44.876 20.842 49.438 43.466 28.468 3.624 50.438 26.188 50.438 53.438 0 29.75-26.188 53.938-58.406 53.938H485.064z" fill="#FFCE54" /><path d="M934.932 270.87a80.964 80.964 0 0 0-29.906-16.562c-4.312-10.124-10.968-19.344-19.532-26.906-8.656-7.624-18.876-13.218-29.876-16.562a75.634 75.634 0 0 0-19.562-26.906c-8.656-7.624-18.876-13.218-29.876-16.562a75.25 75.25 0 0 0-19.562-26.906c-8.656-7.624-18.876-13.218-29.876-16.594a75.54 75.54 0 0 0-19.56-26.906c-14.782-13-34.124-20.156-54.374-20.156-20.312 0-39.624 7.156-54.404 20.156-8.594 7.562-15.218 16.782-19.532 26.906-11.062 3.376-21.25 8.968-29.906 16.594a74.826 74.826 0 0 0-19.532 26.906c-11.062 3.344-21.25 8.938-29.906 16.562a74.826 74.826 0 0 0-19.532 26.906c-11.062 3.344-21.248 8.938-29.904 16.562-8.594 7.562-15.218 16.78-19.532 26.906-11.062 3.344-21.25 8.968-29.876 16.562-16.124 14.188-25.376 34.25-25.376 55.094s9.25 40.938 25.376 55.094c14.782 13.03 34.094 20.186 54.376 20.186h395.46c20.282 0 39.594-7.156 54.406-20.186 16.124-14.156 25.342-34.25 25.342-55.094s-9.214-40.906-25.336-55.094z m-54.406 87.718h-395.46c-20.5 0-37.062-14.594-37.062-32.624 0-18 16.562-32.594 37.062-32.594 5.718 0 11.124 1.124 15.966 3.156a29.19 29.19 0 0 1-3.594-14.032c0-18 16.562-32.592 37.062-32.592 5.718 0 11.124 1.124 15.968 3.156a29.19 29.19 0 0 1-3.594-14.032c0-13.812 9.75-25.624 23.532-30.374 3.218 4.124 8.124 9.938 14.218 15.688 18.062 16.936 34.062 21.25 45.624 21.25a48.26 48.26 0 0 0 5.876-0.376c11.686-1.532 19.936-12.218 18.374-23.906-1.5-11.688-12.216-19.938-23.874-18.406-5.468 0.688-19.312-9.532-29-23.78-0.062-0.062-0.124-0.124-0.156-0.188 6.468-9.562 18.344-16 31.906-16 5.688 0 11.124 1.156 15.936 3.188a29.284 29.284 0 0 1-3.594-14.032c0-18.032 16.594-32.624 37.094-32.624 20.468 0 37.062 14.594 37.062 32.624 0 5-1.312 9.782-3.624 14.032a41.376 41.376 0 0 1 15.998-3.188c20.466 0 37.06 14.594 37.06 32.624 0 5.032-1.312 9.782-3.624 14.032a41.274 41.274 0 0 1 16-3.188c16.156 0 29.876 9.124 34.968 21.812-7.032 3.936-11.218 4.436-11.282 4.436 0.688-0.062 1.062-0.032 1.062-0.032h-0.094c-11.782 0-21.344 9.562-21.344 21.344 0 11.75 9.562 21.312 21.312 21.312h0.062c3.562 0 21.718-0.968 45.5-19.406 0.062-0.062 0.156-0.156 0.25-0.218 9.688 5.876 16.062 15.718 16.062 26.842 0 5.032-1.312 9.782-3.624 14.032 4.844-2.032 10.25-3.156 15.968-3.156 20.468 0 37.094 14.594 37.094 32.594 0.004 18.034-16.622 32.626-37.09 32.626z" fill="#F6BB42" /><path d="M149.32 68.688c-35.282 0-64 28.718-64 63.998v417.322c0 11.812 9.562 21.31 21.344 21.31h85.342c11.75 0 21.312-9.498 21.312-21.31V132.686c0-35.28-28.688-63.998-63.998-63.998z" fill="#5D9CEC" /><path d="M234.662 528.68H64.008c-35.31 0-63.998 28.704-63.998 64.014v213.308c0 8.438 0 34.124 47.31 93.31 21.812 27.312 43.344 48.876 44.25 49.75 4 4 9.438 6.25 15.094 6.25h85.342c5.624 0 11.062-2.25 15.062-6.25 0.906-0.876 22.438-22.438 44.25-49.75 47.342-59.186 47.342-84.874 47.342-93.31V592.694c0-35.312-28.718-64.014-63.998-64.014z" fill="#E6E9ED" /><path d="M975.68 407.556a21.432 21.432 0 0 0-15.688-6.874H405.314c-5.968 0-11.654 2.5-15.686 6.874a21.266 21.266 0 0 0-5.562 16.218l42.654 511.976c0.906 11.062 10.156 19.562 21.282 19.562h469.304c11.094 0 20.344-8.5 21.25-19.562l42.686-511.976a21.388 21.388 0 0 0-5.562-16.218z" fill="#DA4453" /><path d="M1002.648 315.338H362.66c-11.782 0-21.344 9.562-21.344 21.344v85.34c0 11.782 9.562 21.312 21.344 21.312h639.988c11.782 0 21.342-9.532 21.342-21.312v-85.34c0-11.78-9.56-21.344-21.342-21.344z" fill="#ED5564" /><path d="M746.496 677.88c0 35.31-28.624 63.996-63.998 63.996-35.344 0-63.998-28.686-63.998-63.996 0-35.376 28.654-64 63.998-64 35.376 0 63.998 28.626 63.998 64z" fill="#FFCE54" /><path d="M682.498 763.19c-47.06 0-85.31-38.248-85.31-85.308 0-47.062 38.25-85.376 85.31-85.376s85.34 38.312 85.34 85.376c0 47.06-38.28 85.308-85.34 85.308z m0-127.996c-23.5 0-42.654 19.124-42.654 42.688 0 23.498 19.154 42.624 42.654 42.624 23.532 0 42.686-19.124 42.686-42.624 0-23.564-19.154-42.688-42.686-42.688zM682.654 571.318c-11.782 0-21.344-9.498-21.344-21.31v-42.672c0-11.782 9.562-21.312 21.344-21.312s21.344 9.532 21.344 21.312v42.672c0 11.812-9.562 21.31-21.344 21.31zM682.654 870.002c-11.782 0-21.344-9.562-21.344-21.312v-42.688c0-11.812 9.562-21.312 21.344-21.312s21.344 9.5 21.344 21.312v42.688c0 11.75-9.562 21.312-21.344 21.312z" fill="#F6BB42" /><path d="M618.688 588.506c-7.376 0-14.562-3.812-18.5-10.688l-21.344-36.952c-5.906-10.188-2.406-23.25 7.812-29.124 10.218-5.906 23.25-2.406 29.156 7.812l21.312 36.954c5.876 10.188 2.376 23.248-7.812 29.124a21.314 21.314 0 0 1-10.624 2.874zM767.994 847.126a21.366 21.366 0 0 1-18.498-10.624l-21.312-37c-5.906-10.188-2.406-23.25 7.812-29.124 10.188-5.876 23.248-2.376 29.124 7.812l21.312 36.938c5.906 10.188 2.438 23.25-7.782 29.124a21.24 21.24 0 0 1-10.656 2.874z" fill="#FFCE54" /><path d="M571.782 635.318c-3.624 0-7.282-0.876-10.656-2.812l-36.938-21.376c-10.188-5.876-13.688-18.938-7.812-29.124s18.938-13.686 29.124-7.812l36.968 21.312a21.388 21.388 0 0 1 7.812 29.188 21.37 21.37 0 0 1-18.498 10.624zM830.432 784.69c-3.624 0-7.312-0.938-10.656-2.876l-36.938-21.312c-10.218-5.938-13.718-18.938-7.812-29.186 5.906-10.188 18.938-13.688 29.156-7.812l36.938 21.374c10.188 5.876 13.688 18.938 7.812 29.124a21.308 21.308 0 0 1-18.5 10.688z" fill="#F6BB42" /><path d="M554.656 699.316H512c-11.812 0-21.342-9.5-21.342-21.31A21.284 21.284 0 0 1 512 656.694h42.656c11.782 0 21.344 9.5 21.344 21.312 0 11.81-9.562 21.31-21.344 21.31zM853.306 699.316h-42.656c-11.782 0-21.344-9.5-21.344-21.31 0-11.812 9.562-21.312 21.344-21.312h42.656c11.782 0 21.344 9.5 21.344 21.312 0 11.81-9.562 21.31-21.344 21.31z" fill="#FFCE54" /><path d="M534.876 784.69c-7.376 0-14.562-3.812-18.5-10.688-5.876-10.188-2.376-23.25 7.812-29.124l36.938-21.374c10.218-5.876 23.25-2.376 29.156 7.812 5.906 10.248 2.406 23.248-7.812 29.186l-36.968 21.312a21.146 21.146 0 0 1-10.626 2.876zM793.526 635.318a21.372 21.372 0 0 1-18.5-10.624 21.362 21.362 0 0 1 7.812-29.188l36.938-21.312c10.218-5.874 23.25-2.376 29.156 7.812 5.876 10.188 2.376 23.25-7.812 29.124l-36.938 21.376a21.338 21.338 0 0 1-10.656 2.812z" fill="#F6BB42" /><path d="M597.312 847.126c-3.624 0-7.312-0.938-10.656-2.876-10.218-5.876-13.718-18.938-7.812-29.124l21.344-36.938c5.876-10.188 18.938-13.688 29.124-7.812s13.688 18.938 7.812 29.124l-21.312 37a21.37 21.37 0 0 1-18.5 10.626zM746.622 588.506c-3.624 0-7.282-0.938-10.624-2.876-10.218-5.876-13.718-18.936-7.812-29.124l21.312-36.954c5.904-10.218 18.936-13.718 29.154-7.812 10.218 5.876 13.688 18.938 7.812 29.124l-21.344 36.952c-3.938 6.878-11.126 10.69-18.498 10.69z" fill="#FFCE54" /><path d="M149.32 763.314c11.782 0 21.344-9.5 21.344-21.312V528.68H128.008v213.322a21.28 21.28 0 0 0 21.312 21.312z" fill="#CCD1D9" /></svg>