<?xml version="1.0" standalone="no"?><!DOCTYPE svg PUBLIC "-//W3C//DTD SVG 1.1//EN" "http://www.w3.org/Graphics/SVG/1.1/DTD/svg11.dtd"><svg class="icon" width="128px" height="128.00px" viewBox="0 0 1024 1024" version="1.1" xmlns="http://www.w3.org/2000/svg"><path d="M1002.674 453.314h-64.032a21.332 21.332 0 0 1-21.342-21.344c0-11.78 9.562-21.31 21.342-21.31h64.032c11.75 0 21.312 9.532 21.312 21.31 0 11.814-9.562 21.344-21.312 21.344z" fill="#434A54" /><path d="M938.642 368.004h-170.65c-11.812 0-21.342 9.562-21.342 21.344v85.342c0 11.782 9.53 21.312 21.342 21.312h170.65c11.782 0 21.344-9.532 21.344-21.312v-85.342c0-11.782-9.562-21.344-21.344-21.344zM213.352 645.342C95.716 645.342 0.014 549.656 0.014 432.002c0-117.622 95.702-213.306 213.338-213.306 117.622 0 213.322 95.686 213.322 213.306 0 117.654-95.7 213.34-213.322 213.34z" fill="#656D78" /><path d="M213.352 197.352H192.008v469.334h21.344c129.388 0 234.666-105.28 234.666-234.684-0.002-129.372-105.278-234.65-234.666-234.65z" fill="#CCD1D9" /><path d="M57.732 416.91c8.342 8.31 8.342 21.842 0 30.154-8.328 8.344-21.828 8.344-30.172 0-8.328-8.312-8.328-21.844 0-30.154 8.344-8.344 21.844-8.344 30.172 0zM143.072 416.91c8.328 8.31 8.328 21.842 0 30.154-8.342 8.344-21.842 8.344-30.17 0-8.328-8.312-8.328-21.844 0-30.154 8.328-8.344 21.828-8.344 30.17 0zM57.732 331.568a21.336 21.336 0 0 1 0 30.188c-8.328 8.31-21.828 8.31-30.172 0-8.328-8.344-8.328-21.844 0-30.188 8.344-8.344 21.844-8.344 30.172 0zM100.402 288.912c8.328 8.312 8.328 21.812 0 30.156-8.328 8.344-21.844 8.344-30.172 0s-8.328-21.844 0-30.156c8.328-8.344 21.844-8.344 30.172 0zM143.072 331.568c8.328 8.344 8.328 21.844 0 30.156-8.328 8.342-21.842 8.342-30.17 0-8.328-8.312-8.328-21.812 0-30.156s21.844-8.344 30.17 0zM143.072 246.226c8.328 8.344 8.328 21.844 0 30.188-8.328 8.31-21.842 8.31-30.17 0-8.328-8.344-8.328-21.844 0-30.188 8.328-8.312 21.844-8.312 30.17 0zM185.744 288.912c8.328 8.312 8.328 21.812 0 30.156-8.344 8.344-21.844 8.344-30.172 0-8.342-8.344-8.342-21.844 0-30.156 8.328-8.344 21.828-8.344 30.172 0zM100.402 459.564c8.328 8.344 8.328 21.844 0 30.188-8.328 8.312-21.844 8.312-30.172 0-8.328-8.344-8.328-21.844 0-30.188 8.328-8.312 21.844-8.312 30.172 0zM100.402 374.222c8.328 8.344 8.328 21.844 0 30.188-8.328 8.312-21.844 8.312-30.172 0-8.328-8.344-8.328-21.844 0-30.188 8.328-8.312 21.844-8.312 30.172 0zM57.732 502.252c8.342 8.31 8.342 21.81 0 30.154-8.328 8.344-21.844 8.344-30.172 0s-8.328-21.844 0-30.154c8.328-8.344 21.844-8.344 30.172 0zM100.402 544.906c8.328 8.312 8.328 21.844 0 30.156-8.328 8.344-21.844 8.344-30.172 0-8.328-8.312-8.328-21.844 0-30.156 8.328-8.344 21.844-8.344 30.172 0zM143.072 587.562c8.328 8.344 8.328 21.844 0 30.186-8.328 8.312-21.842 8.312-30.17 0-8.328-8.342-8.328-21.842 0-30.186 8.328-8.312 21.844-8.312 30.17 0zM185.744 544.906c8.328 8.312 8.328 21.844 0 30.156-8.344 8.344-21.844 8.344-30.172 0-8.342-8.312-8.342-21.844 0-30.156 8.328-8.344 21.828-8.344 30.172 0zM373.316 528h-106.668v245.304c0 29.438 23.936 53.344 53.342 53.344s53.328-23.906 53.328-53.344V528zM143.072 502.252c8.328 8.31 8.328 21.81 0 30.154s-21.842 8.344-30.17 0-8.328-21.844 0-30.154c8.328-8.344 21.844-8.344 30.17 0z" fill="#434A54" /><path d="M447.986 303.974H213.32c-35.296 0-63.998 28.718-63.998 63.998v128.03c0 35.28 28.702 63.998 63.998 63.998h234.666c35.296 0 64-28.718 64-63.998v-128.03c-0.002-35.278-28.704-63.998-64-63.998z" fill="#5D9CEC" /><path d="M847.052 310.224l-6.25-6.25H426.658V560h414.144l6.25-6.25c2-2 48.936-49.748 48.936-121.78 0-71.996-46.936-119.746-48.936-121.746zM362.644 410.692h-127.998c-11.78 0-21.328 9.532-21.328 21.31 0 11.782 9.546 21.344 21.328 21.344h127.998c11.796 0 21.344-9.562 21.344-21.344 0-11.78-9.546-21.31-21.344-21.31z" fill="#4A89DC" /><path d="M767.992 517.312c-11.782 0-21.342 9.562-21.342 21.344V560h42.652v-21.344c0-11.78-9.528-21.344-21.31-21.344zM682.652 517.312c-11.782 0-21.344 9.562-21.344 21.344V560h42.688v-21.344c0-11.78-9.562-21.344-21.344-21.344zM597.31 517.312c-11.75 0-21.312 9.562-21.312 21.344V560h42.654v-21.344c0-11.78-9.53-21.344-21.342-21.344zM511.984 517.312c-11.782 0-21.328 9.562-21.328 21.344V560h42.656v-21.344c0-11.78-9.546-21.344-21.328-21.344zM517.312 346.662c11.782 0 21.344-9.562 21.344-21.344v-21.344h-42.672v21.344c0 11.782 9.548 21.344 21.328 21.344zM602.652 346.662c11.782 0 21.344-9.562 21.344-21.344v-21.344h-42.686v21.344c0 11.782 9.564 21.344 21.342 21.344zM687.996 346.662c11.75 0 21.312-9.562 21.312-21.344v-21.344h-42.656v21.344c0 11.782 9.532 21.344 21.344 21.344zM773.304 346.662c11.81 0 21.342-9.562 21.342-21.344v-21.344h-42.654v21.344c0 11.782 9.562 21.344 21.312 21.344z" fill="#5D9CEC" /></svg>