<?xml version="1.0" standalone="no"?><!DOCTYPE svg PUBLIC "-//W3C//DTD SVG 1.1//EN" "http://www.w3.org/Graphics/SVG/1.1/DTD/svg11.dtd"><svg class="icon" width="128px" height="128.00px" viewBox="0 0 1024 1024" version="1.1" xmlns="http://www.w3.org/2000/svg"><path d="M647.772 858.958c-33.188 33.186-87.5 33.186-120.686 0L165.064 496.936c-33.186-33.188-33.186-87.498 0-120.684l181.012-181.028c33.186-33.188 87.482-33.188 120.668 0l362.022 362.022c33.186 33.188 33.186 87.498 0 120.686l-180.994 181.026z" fill="#CCD1D9" /><path d="M979.232 415.188c55.778-55.78 82.964-161.152-63.156-307.274S664.616-11.02 608.802 44.79c0 0-130.48 164.152-265.164 298.836-134.7 134.714-298.868 265.18-298.868 265.18-55.78 55.812-82.966 161.184 63.14 307.274 146.122 146.124 251.478 118.936 307.29 63.156 0 0 130.48-164.152 265.164-298.868 134.684-134.682 298.868-265.18 298.868-265.18z" fill="#E6E9ED" /><path d="M798.612 406.406c49.966-49.966 49.966-131.028 0-180.994-49.656-49.656-129.964-50-180.028-1l-212.166 212.18h0.016L195.236 647.776c-50 49.968-50 131.028 0 180.996 49.638 49.654 129.95 49.998 180.01 1l212.18-212.184h-0.032l211.218-211.182z" fill="#4FC2E9" /></svg>