<?xml version="1.0" standalone="no"?><!DOCTYPE svg PUBLIC "-//W3C//DTD SVG 1.1//EN" "http://www.w3.org/Graphics/SVG/1.1/DTD/svg11.dtd"><svg class="icon" width="128px" height="128.00px" viewBox="0 0 1024 1024" version="1.1" xmlns="http://www.w3.org/2000/svg"><path d="M693.3 511.406c0 153.152-114.59 277.338-255.978 277.338-141.372 0-255.978-124.186-255.978-277.338S295.952 234.1 437.322 234.1c141.388 0 255.978 124.154 255.978 277.306z" fill="#EAC6BB" /><path d="M650.49 748.556c0 98.936-159.996 275.432-213.324 275.432-53.342 0-213.322-176.496-213.322-275.432 0-98.966 95.498-172.528 213.322-172.528 117.826 0.002 213.324 73.562 213.324 172.528z" fill="#E6E9ED" /><path d="M838.424 304.598c-12.812-98.124-53.06-178.308-116.436-231.932C666.552 25.824 593.742 0.012 516.882 0.012c-109.122 0-210.962 50.374-265.792 131.466-24.31 35.936-38.514 76.28-42.232 119.872-3.984 46.812 4.328 96.31 24.734 147.122l6.186 15.438 418.648-56.716-2.188-20.562c-2.688-25.906 1.468-45.812 12.06-57.592 10-11.062 24.094-13.406 34.188-13.406 20.656 0 42.562 9.594 54.438 23.874 6.75 8.094 9.376 16.624 7.782 25.342a21.496 21.496 0 0 0 4.656 17.718c4.156 4.968 10.344 7.844 17 7.844 3.624 0 9.124-0.062 39.56-13.562l14.532-6.468-2.03-15.784z" fill="#ED5564" /><path d="M799.986 234.694c-35.374 0-63.998 28.656-63.998 64s28.624 64 63.998 64c35.344 0 63.998-28.656 63.998-64s-28.654-64-63.998-64z" fill="#E6E9ED" /><path d="M396.558 511.062c0 12.312-9.968 22.282-22.282 22.282-12.296 0-22.282-9.968-22.282-22.282 0-12.282 9.984-22.282 22.282-22.282 12.314 0.002 22.282 10.002 22.282 22.282zM524.554 511.062c0 12.312-9.968 22.282-22.282 22.282-12.294 0-22.28-9.968-22.28-22.282 0-12.282 9.984-22.282 22.28-22.282 12.314 0.002 22.282 10.002 22.282 22.282zM501.32 703.996c0-11.782-9.544-21.312-21.326-21.312a21.25 21.25 0 0 0-14.89 6.062s0.266-0.344 0.906-0.812c-0.078 0.062-8.124 6-28.718 6-20.546 0-28.53-5.906-28.608-5.968 0.656 0.468 0.92 0.812 0.92 0.812a21.386 21.386 0 0 0-14.936-6.094c-11.782 0-21.344 9.532-21.344 21.312a21.36 21.36 0 0 0 6.406 15.25c2.938 2.876 19.594 17.342 57.56 17.342 37.922 0 54.624-14.404 57.594-17.31a21.286 21.286 0 0 0 6.436-15.282z" fill="#434A54" /><path d="M714.644 405.346c0 23.562-19.094 42.688-42.656 42.688H202.672c-23.562 0-42.656-19.124-42.656-42.688v-42.654c0-23.562 19.094-42.656 42.656-42.656h469.316c23.562 0 42.656 19.094 42.656 42.656v42.654z" fill="#E6E9ED" /></svg>