<?xml version="1.0" standalone="no"?><!DOCTYPE svg PUBLIC "-//W3C//DTD SVG 1.1//EN" "http://www.w3.org/Graphics/SVG/1.1/DTD/svg11.dtd"><svg class="icon" width="128px" height="128.00px" viewBox="0 0 1024 1024" version="1.1" xmlns="http://www.w3.org/2000/svg"><path d="M768 64c0 11.782-9.562 21.328-21.312 21.328-11.812 0-21.376-9.546-21.376-21.328s9.562-21.328 21.376-21.328C758.438 42.672 768 52.218 768 64zM768 149.328c0 11.782-9.562 21.344-21.312 21.344-11.812 0-21.376-9.562-21.376-21.344S734.876 128 746.688 128C758.438 128 768 137.546 768 149.328zM768 234.672c0 11.782-9.562 21.328-21.312 21.328-11.812 0-21.376-9.546-21.376-21.328s9.562-21.344 21.376-21.344c11.75 0 21.312 9.562 21.312 21.344zM768 320c0 11.782-9.562 21.328-21.312 21.328-11.812 0-21.376-9.546-21.376-21.328s9.562-21.328 21.376-21.328c11.75 0 21.312 9.546 21.312 21.328zM768 405.328c0 11.782-9.562 21.344-21.312 21.344-11.812 0-21.376-9.562-21.376-21.344S734.876 384 746.688 384c11.75 0 21.312 9.546 21.312 21.328zM768 490.672c0 11.782-9.562 21.328-21.312 21.328-11.812 0-21.376-9.546-21.376-21.328s9.562-21.344 21.376-21.344c11.75 0 21.312 9.562 21.312 21.344z" fill="#434A54" /><path d="M298.672 64c0 11.782-9.562 21.328-21.344 21.328S256 75.782 256 64s9.546-21.328 21.328-21.328S298.672 52.218 298.672 64zM298.672 149.328c0 11.782-9.562 21.344-21.344 21.344S256 161.11 256 149.328 265.546 128 277.328 128s21.344 9.546 21.344 21.328zM298.672 234.672c0 11.782-9.562 21.328-21.344 21.328S256 246.454 256 234.672s9.546-21.344 21.328-21.344 21.344 9.562 21.344 21.344zM298.672 320c0 11.782-9.562 21.328-21.344 21.328S256 331.782 256 320s9.546-21.328 21.328-21.328 21.344 9.546 21.344 21.328zM298.672 405.328c0 11.782-9.562 21.344-21.344 21.344S256 417.11 256 405.328 265.546 384 277.328 384s21.344 9.546 21.344 21.328zM298.672 490.672c0 11.782-9.562 21.328-21.344 21.328S256 502.454 256 490.672s9.546-21.344 21.328-21.344 21.344 9.562 21.344 21.344z" fill="#434A54" /><path d="M384 484.438h256V1024H384z" fill="#ED5564" /><path d="M341.328 441.782h341.36V640h-341.36z" fill="#434A54" /><path d="M277.328 0h469.36v554.656h-469.36z" fill="#656D78" /><path d="M341.328 0h341.36v170.672h-341.36z" fill="#CCD1D9" /><path d="M384 85.328h256V384H384z" fill="#E6E9ED" /><path d="M469.328 85.328c0 11.782-9.546 21.344-21.328 21.344s-21.328-9.562-21.328-21.344S436.218 64 448 64s21.328 9.546 21.328 21.328zM597.312 85.328c0 11.782-9.532 21.344-21.312 21.344s-21.312-9.562-21.312-21.344S564.218 64 576 64s21.312 9.546 21.312 21.328z" fill="#E6E9ED" /></svg>