<?xml version="1.0" standalone="no"?><!DOCTYPE svg PUBLIC "-//W3C//DTD SVG 1.1//EN" "http://www.w3.org/Graphics/SVG/1.1/DTD/svg11.dtd"><svg class="icon" width="128px" height="128.00px" viewBox="0 0 1024 1024" version="1.1" xmlns="http://www.w3.org/2000/svg"><path d="M360.442 767.996l-128-85.312-128 341.316H445.82z" fill="#AAB2BD" /><path d="M559.384 398.43c-25-25-65.564-25-90.564 0-24.94 25-24.94 65.562 0 90.5 25 25 65.564 25 90.564 0 24.938-24.938 24.938-65.5 0-90.5z" fill="#CCD1D9" /><path d="M537.76 262.366c-8.312 8.376-8.312 21.876 0 30.188a20.928 20.928 0 0 0 11.312 5.876c26.5 6.376 50.876 19.938 70.624 39.688s33.312 44.124 39.624 70.626a21.282 21.282 0 0 0 5.938 11.25 21.198 21.198 0 0 0 30.124 0c5.376-5.312 7.312-12.812 5.75-19.75-7.812-33.814-24.876-65.938-51.25-92.314-26.376-26.376-58.5-43.438-92.312-51.25a21.424 21.424 0 0 0-19.81 5.686z" fill="#F27789" /><path d="M571.01 128.802c-6.938-1.562-14.5 0.312-19.876 5.688-8.312 8.312-8.312 21.812 0 30.188a21.01 21.01 0 0 0 11.188 5.876 278.468 278.468 0 0 1 56.188 16.124c34.376 13.938 65.188 34.438 91.688 60.938 26.502 26.438 47.064 57.314 61.002 91.688a272.966 272.966 0 0 1 16.062 56.188c0.812 4.062 2.75 8 5.938 11.188 8.25 8.312 21.752 8.312 30.126 0 5.376-5.376 7.25-12.938 5.624-19.876h0.062c-11.188-62.062-40.626-121.438-88.564-169.376-48-47.938-107.376-77.502-169.438-88.626z" fill="#ED5565" /><path d="M578.26 0.3v0.062a21.16 21.16 0 0 0-18.876 5.876c-8.376 8.312-8.376 21.812 0 30.188 3.438 3.5 7.876 5.5 12.438 6.062 0.124 0 0.25 0 0.438 0.062a401.89 401.89 0 0 1 94.376 25.5c50.25 20.376 95.44 50.312 134.064 89.064 38.69 38.688 68.69 83.75 89.064 134.064 12.312 30.5 20.876 62.064 25.5 94.376 0 0.124 0 0.312 0.062 0.438 0.5 4.564 2.562 8.938 6.062 12.438a21.198 21.198 0 0 0 30.124 0c5.188-5.124 7.124-12.25 5.938-18.876h0.062c-13.312-92.438-55.5-181.502-126.624-252.626C759.824 55.8 670.698 13.612 578.26 0.3z" fill="#DA4453" /><path d="M815.514 744.934L514.198 443.618 212.88 142.24c-8.376-8.312-21.876-8.312-30.188 0-0.376 0.376-1.124 1.188-1.124 1.25-158.94 175.876-153.626 447.382 15.876 616.882 169.44 169.504 441.004 174.816 616.822 15.876 0.062 0 0.876-0.75 1.25-1.124 8.31-8.316 8.31-21.878-0.002-30.19z" fill="#E6E9ED" /></svg>