<?xml version="1.0" standalone="no"?><!DOCTYPE svg PUBLIC "-//W3C//DTD SVG 1.1//EN" "http://www.w3.org/Graphics/SVG/1.1/DTD/svg11.dtd"><svg class="icon" width="128px" height="128.00px" viewBox="0 0 1024 1024" version="1.1" xmlns="http://www.w3.org/2000/svg"><path d="M860.652638 1011.484049c-16.687935 16.687935-43.687829 16.687935-60.375764 0L12.467951 223.675126c-16.623935-16.687935-16.623935-43.687829 0-60.311764L163.343362 12.487951c16.687935-16.655935 43.687829-16.655935 60.375764 0L1011.528049 800.296874c16.623935 16.655935 16.623935 43.687829 0 60.311764l-150.875411 150.875411z" fill="#5D9CEC" /><path d="M916.59042 946.766302L72.843715 102.987598l30.187883-30.155882 843.746704 843.778703z" fill="#4A89DC" /><path d="M729.403151 276.862919c66.68774 66.68774 174.749317 66.68774 241.375057 0L729.465151 35.519861c-66.68574 66.65574-66.68574 174.717318-0.062 241.343058z" fill="#E6E9ED" /><path d="M819.964797 367.392565l-181.061293-181.031293c-16.623935-16.655935-43.687829-16.655935-60.311764 0L216.531154 548.391858c-66.62374 66.65574-66.62374 174.717318 0 241.375057 66.68774 66.65574 174.687318 66.65574 241.375057 0l362.060586-362.030586c16.623935-16.687935 16.623935-43.687829-0.002-60.343764z" fill="#CCD1D9" /><path d="M925.528385 80.799684c-8.311968-8.375967-21.811915-8.375967-30.187882 0l-60.311765 60.311765 30.123882 30.155882 60.375765-60.343764c8.311968-8.309968 8.311968-21.809915 0-30.123883z" fill="#AAB2BD" /></svg>