<?xml version="1.0" standalone="no"?><!DOCTYPE svg PUBLIC "-//W3C//DTD SVG 1.1//EN" "http://www.w3.org/Graphics/SVG/1.1/DTD/svg11.dtd"><svg class="icon" width="128px" height="128.00px" viewBox="0 0 1024 1024" version="1.1" xmlns="http://www.w3.org/2000/svg"><path d="M716.032 36.422c8.312-8.344 8.312-21.844 0-30.188-8.312-8.312-21.812-8.312-30.188 0L156.656 535.484 186.78 565.64 716.032 36.422zM699.718 294.11c8.312-8.312 8.312-21.812 0-30.188-8.376-8.312-21.876-8.312-30.188 0l-528 528 30.188 30.188 528-528zM941.032 535.484c8.376-8.346 8.376-21.876 0-30.188-8.312-8.312-21.812-8.312-30.124 0L503.594 912.61l30.188 30.154 407.25-407.28z" fill="#434A54" /><path d="M533.782 942.764c-108.312 108.314-283.938 108.314-392.25 0-108.312-108.282-108.312-283.904 0-392.216s283.938-108.312 392.25 0 108.312 283.934 0 392.216z" fill="#CCD1D9" /><path d="M957.468 277.704c8.312-8.344 8.312-21.844 0-30.156-8.376-8.344-21.876-8.344-30.188 0l-529.312 529.28c-8.312 8.342-8.312 21.844 0 30.156 8.376 8.344 21.876 8.344 30.188 0l529.312-529.28z" fill="#434A54" /></svg>