<?xml version="1.0" standalone="no"?><!DOCTYPE svg PUBLIC "-//W3C//DTD SVG 1.1//EN" "http://www.w3.org/Graphics/SVG/1.1/DTD/svg11.dtd"><svg class="icon" width="128px" height="128.00px" viewBox="0 0 1024 1024" version="1.1" xmlns="http://www.w3.org/2000/svg"><path d="M1024 512c0 282.75-229.188 512-512 512C229.25 1024 0 794.75 0 512S229.25 0 512 0c282.812 0 512 229.25 512 512z" fill="#AC92EC" /><path d="M1001.124 22.876c-41.624-41.624-134-24.624-249.688 36.5a495.88 495.88 0 0 1 43.376 25.812c96.562-47 157.624-50.688 176.124-32.124 20.062 20 14.188 89.562-44.124 199.812-29.938 56.656-70.062 117.812-119.25 181.718-51.312 66.718-110.124 133.344-174.876 198.094-64.75 64.75-131.376 123.562-198.062 174.876-63.938 49.188-125.062 89.312-181.75 119.25-110.25 58.282-179.812 64.188-199.812 44.156-18.562-18.532-14.876-79.594 32.124-176.124-9.312-14-17.938-28.468-25.812-43.406C-1.75 867.156-18.75 959.5 22.876 1001.124c83.312 83.312 369.876-68.124 640-338.25C933 392.718 1084.438 106.188 1001.124 22.876z" fill="#434A54" /><path d="M513.876 631.938c-8.376 8.312-8.376 21.812 0 30.156 8.312 8.344 21.812 8.344 30.124 0l89-88.968-30.188-30.188-88.936 89zM634.562 752.624a21.198 21.198 0 0 0 0 30.124 21.198 21.198 0 0 0 30.124 0l89-88.968-30.188-30.156-88.936 89z" fill="#CCD1D9" /><path d="M602.812 693.782c41.688 41.656 109.25 41.656 150.876 0 41.688-41.656 41.688-109.188 0-150.844-41.624-41.656-109.188-41.656-150.876 0-41.624 41.656-41.624 109.186 0 150.844z" fill="#E6E9ED" /></svg>