<?xml version="1.0" standalone="no"?><!DOCTYPE svg PUBLIC "-//W3C//DTD SVG 1.1//EN" "http://www.w3.org/Graphics/SVG/1.1/DTD/svg11.dtd"><svg class="icon" width="128px" height="128.00px" viewBox="0 0 1024 1024" version="1.1" xmlns="http://www.w3.org/2000/svg"><path d="M554.675333 348.940548c-141.403791 0-256.012 114.608209-256.012 255.98h42.655334c0-56.96711 22.203653-110.544273 62.483024-150.825643 40.29537-40.29537 93.874533-62.483024 150.873642-62.483024 56.96711 0 110.530273 22.187653 150.809644 62.483024 40.31137 40.281371 62.499023 93.858533 62.499023 150.825643v0.375994c0.65599 83.2167-44.999297 187.059077-133.185919 304.871237-20.123686 25.437603-32.123498 57.561101-32.123498 92.498554 0 11.749816 9.561851 21.311667 21.311667 21.311667 11.811815 0 21.343667-9.561851 21.343667-21.311667a106.576335 106.576335 0 0 1 18.967703-60.623052c83.092702-109.748285 147.1857-229.558413 146.373713-337.118733 0-141.377791-114.624209-255.984-255.996-255.984zM645.329917 1002.664333c0 0.03 0 0 0 0z" fill="#8CC152" /><path d="M298.663333 21.335667v831.987c0 11.781816 9.545851 21.343667 21.327667 21.343666s21.327667-9.561851 21.327667-21.343666v-831.987H298.663333z" fill="#A0D468" /><path d="M405.317667 0.008H234.664333c-11.781816 0-21.343667 9.545851-21.343666 21.327667s9.561851 21.343667 21.343666 21.343666h170.653334c11.781816 0 21.343667-9.561851 21.343666-21.343666S417.099483 0.008 405.317667 0.008z" fill="#8CC152" /></svg>