<?xml version="1.0" standalone="no"?><!DOCTYPE svg PUBLIC "-//W3C//DTD SVG 1.1//EN" "http://www.w3.org/Graphics/SVG/1.1/DTD/svg11.dtd"><svg class="icon" width="128px" height="128.00px" viewBox="0 0 1024 1024" version="1.1" xmlns="http://www.w3.org/2000/svg"><path d="M128.008 411.66c0 11.782-9.56 21.344-21.342 21.344s-21.328-9.562-21.328-21.344 9.546-21.312 21.328-21.312 21.342 9.53 21.342 21.312z" fill="#434A54" /><path d="M123.274 285.288c-0.046-0.062-4.654-6.188-6.874-13.938-2.61-9.094-1-15.688 5.388-22.094 17.312-17.406 23.046-39.998 16.124-63.624-4.656-15.906-13.624-27.124-14.782-28.532-0.016 0-0.032-0.032-0.046-0.032a21.252 21.252 0 0 0-16.42-7.718c-11.782 0-21.328 9.532-21.328 21.312 0 5.188 1.844 9.938 4.906 13.624 0.046 0.062 4.546 5.876 6.718 13.312 2.562 8.718 0.938 15.156-5.406 21.53-17.296 17.342-23.032 40.092-16.172 64 4.656 16.186 13.656 27.686 14.672 28.936h0.016a21.264 21.264 0 0 0 16.594 7.938c11.782 0 21.342-9.562 21.342-21.342a21.22 21.22 0 0 0-4.732-13.372z" fill="#E6E9ED" /><path d="M213.334 298.662h170.668v139.998h-170.668z" fill="#434A54" /><path d="M959.988 490.658H534.594v128h425.394c35.344 0 64-28.656 64-64s-28.656-64-64-64z" fill="#656D78" /><path d="M421.706 490.658h239.604v170.682H421.706z" fill="#CCD1D9" /><path d="M725.308 512c11.81 0 21.342-9.562 21.342-21.344h-42.654c0 11.782 9.562 21.344 21.312 21.344zM810.648 512c11.782 0 21.344-9.562 21.344-21.344h-42.688c0 11.782 9.564 21.344 21.344 21.344zM895.99 512c11.782 0 21.312-9.562 21.312-21.344h-42.654c0 11.782 9.562 21.344 21.342 21.344z" fill="#434A54" /><path d="M597.31 789.34c0 47.122-38.186 85.308-85.326 85.308H85.338C38.214 874.648 0.012 836.46 0.012 789.34V490.658h597.298V789.34z" fill="#E6E9ED" /><path d="M405.33 469.346c-11.782 0-21.328 9.53-21.328 21.312S393.548 512 405.33 512s21.328-9.562 21.328-21.344-9.546-21.31-21.328-21.31zM469.328 490.658V576c0 11.782 9.546 21.344 21.328 21.344s21.328-9.562 21.328-21.344v-85.342h-42.656z" fill="#FFCE54" /><path d="M384.002 298.662h-170.668c-11.78 0-21.326 9.562-21.326 21.342 0 11.782 9.546 21.344 21.326 21.344h170.668c11.782 0 21.328-9.562 21.328-21.344 0-11.78-9.546-21.342-21.328-21.342z" fill="#656D78" /><path d="M597.31 490.658s-42.654-106.654-298.65-106.654C42.666 384.004 0.012 490.658 0.012 490.658h597.298z" fill="#A0D468" /><path d="M42.666 789.34V490.658s40.282-100.654 277.338-106.404a950.136 950.136 0 0 0-21.344-0.25C42.666 384.004 0.012 490.658 0.012 490.658V789.34c0 47.122 38.204 85.308 85.326 85.308h42.67c-47.138 0-85.342-38.188-85.342-85.308z" fill="#FFFFFF" opacity=".2" /></svg>