<?xml version="1.0" standalone="no"?><!DOCTYPE svg PUBLIC "-//W3C//DTD SVG 1.1//EN" "http://www.w3.org/Graphics/SVG/1.1/DTD/svg11.dtd"><svg class="icon" width="128px" height="128.00px" viewBox="0 0 1024 1024" version="1.1" xmlns="http://www.w3.org/2000/svg"><path d="M581.404 384.018S624.248 747.31 512 747.31c-112.28 0-69.436-363.306-69.436-363.306-51.092 0-92.53 41.438-92.53 92.56v231.372c0 75.56 28.218 151.09 104.124 176.308v139.748h115.684v-139.248c76.624-24.718 104.124-100.748 104.124-176.808V476.564c0-51.124-41.436-92.562-92.562-92.546z" fill="#FECD57" /><path d="M673.966 519.204v-42.64c0-51.124-41.438-92.56-92.562-92.544 0 0 1.968 16.624 3.938 42.766 49.282 2.06 88.594 42.636 88.624 92.418zM438.626 426.784c2-26.14 3.938-42.782 3.938-42.782-51.092 0-92.53 41.438-92.53 92.56v42.64c0-49.78 39.312-90.356 88.592-92.418zM512 789.994c68.28 0 79.186-134.498 77.248-239.806-1.938 95.684-17.938 197.122-77.248 197.122-59.342 0-75.342-101.438-77.248-197.122-1.938 105.34 8.936 239.806 77.248 239.806z" fill="#F5BA45" /><path d="M99.79 187.146L0.01 310.238l146.154 76.436 24-80.888zM924.18 187.146l99.81 123.092-146.152 76.436-24-80.888z" fill="#E8563F" /><path d="M699.246 178.63c-0.656-0.86-16.53-20.922-1.468-36.046 33.5-33.64 15.562-74.92 1.344-92.124v-0.032l-0.032-0.032c-3.938-4.704-9.842-7.718-16.436-7.718-11.782 0-21.344 9.546-21.344 21.328 0 5.188 1.844 9.922 4.938 13.624h-0.032c0.062 0.046 4.562 5.876 6.75 13.312 2.532 8.718 0.906 15.156-5.438 21.532-33.406 33.53-15.562 75.452-1.468 92.92a21.256 21.256 0 0 0 16.594 7.954c11.78 0 21.342-9.546 21.342-21.344 0-5.06-1.782-9.716-4.75-13.374zM548.966 50.696c-6.344-23.89-18.624-40.452-19.998-42.264l-0.032 0.016a21.252 21.252 0 0 0-16.938-8.438c-11.782 0-21.344 9.562-21.344 21.344 0 4.812 1.624 9.234 4.312 12.812l-0.032 0.016c0.094 0.124 9 12.204 13.094 28.624 4.906 19.672 0.968 36.39-12.032 51.078-22.78 25.78-30.03 57.404-20.968 91.452 6.344 23.876 18.592 40.452 19.968 42.264l0.032-0.016c3.906 5.11 10.032 8.422 16.968 8.422 11.782 0 21.312-9.546 21.312-21.328 0-4.812-1.594-9.234-4.282-12.812v-0.016c-0.094-0.124-8.968-12.204-13.062-28.624-4.906-19.672-1-36.39 12-51.078 22.784-25.78 30.066-57.39 21.002-91.452zM357.816 50.462l-0.032-0.032-0.032-0.032a21.312 21.312 0 0 0-16.438-7.718c-11.78 0-21.312 9.546-21.312 21.328 0 5.188 1.844 9.922 4.906 13.624 0.032 0.046 4.532 5.876 6.718 13.312 2.562 8.718 0.938 15.156-5.406 21.532-33.406 33.53-15.594 75.452-1.5 92.92a21.3 21.3 0 0 0 16.592 7.954c11.782 0 21.344-9.546 21.344-21.344 0-5.062-1.782-9.718-4.718-13.376-0.688-0.86-16.562-20.922-1.5-36.046 33.502-33.638 15.564-74.92 1.378-92.122z" fill="#E5E8EC" /><path d="M938.648 384.002c0-70.686-57.31-127.998-127.998-127.998-39.344 0-74.53 17.764-98.03 45.686-0.124 0.172-17.594 18.954-47.874 38.03-46.624 29.39-98 44.28-152.748 44.28-51.936 0-101.03-13.468-145.872-40.062-30.562-18.124-49.53-36.858-54.562-42.108l-2.5-2.796c-23.468-26.39-57.656-43.03-95.748-43.03-70.686 0-127.998 57.312-127.998 127.998 0 31.36 11.282 60.062 30 82.326 0.312 0.36 0.688 0.812 1.124 1.312 0.032 0.062 0.094 0.124 0.156 0.204 9.188 10.688 45.03 49.938 106.124 88.468 86.904 54.748 186.902 83.684 289.276 83.684 102.342 0 202.372-28.936 289.244-83.684 61.156-38.546 96.998-77.828 106.154-88.5 0.032-0.046 0.062-0.094 0.124-0.124 0.438-0.516 0.844-0.984 1.156-1.36h-0.032c18.724-22.264 30.004-50.966 30.004-82.326z" fill="#FB6D51" /><path d="M682.654 448c11.78 0 21.342-9.546 21.342-21.328v-116.608c-8.032 7.296-21.404 18.422-39.248 29.656-1.124 0.718-2.282 1.422-3.438 2.124v84.828c0 11.782 9.564 21.328 21.344 21.328zM533.312 472v-88.764c-7.032 0.516-14.156 0.766-21.312 0.766-7.188 0-14.282-0.266-21.344-0.766V472c0 11.782 9.562 21.344 21.344 21.344s21.312-9.562 21.312-21.344zM341.316 448c11.782 0 21.344-9.546 21.344-21.328v-84.828c-19.5-11.92-33.936-23.858-42.656-31.858v116.686c0 11.782 9.532 21.328 21.312 21.328z" fill="#E8563F" /></svg>