<?xml version="1.0" standalone="no"?><!DOCTYPE svg PUBLIC "-//W3C//DTD SVG 1.1//EN" "http://www.w3.org/Graphics/SVG/1.1/DTD/svg11.dtd"><svg class="icon" width="128px" height="128.00px" viewBox="0 0 1024 1024" version="1.1" xmlns="http://www.w3.org/2000/svg"><path d="M614.866 951.054l144.496-165.498 58.03 36.438-86.498 201.996zM409.136 951.054l-144.498-165.498-58.03 36.438 86.498 201.996z" fill="#E8563F" /><path d="M888.58 828.806c-0.124 0.438 0.094-0.218 0 0z" fill="#FB6D51" /><path d="M973.482 419.876c-7.282-96.404-33.53-178.512-78.058-244.042-38.468-56.654-90.094-100.42-153.374-130.076C677.272 15.4 599.896 0.01 512.008 0.01c-87.874 0-165.278 15.39-230.058 45.75-63.28 29.656-114.904 73.42-153.372 130.076-44.53 65.53-70.78 147.638-78.06 244.042-5.344 70.858-0.5 107.904 14.406 193.434 22.468 129.186 62.562 195.996 70.592 215.746 15.656 39.436 54.124 67.374 99.154 67.374 58.906 0 106.654-47.75 106.654-106.686a106.504 106.504 0 0 0-7.5-39.28c-0.376-0.968-37.812-53.562-58.748-173.716-11.876-68.186-15.844-87.544-11.812-140.826 4.406-58.75 18.468-105.918 41.78-140.2 37.656-55.436 105.342-82.388 206.964-82.388 101.512 0 169.168 26.89 206.854 82.216 23.094 33.922 37.154 80.498 41.748 138.466 4.188 52.732 0.468 71.482-11.062 139.042-20.56 120.686-59.028 176.53-59.372 177.404a106.504 106.504 0 0 0-7.5 39.28c0 58.936 47.748 106.686 106.652 106.686 45.032 0 83.624-28.156 99.25-67.624 7.218-18.688 47.686-84.404 70.496-215.496 14.908-85.528 19.752-122.576 14.408-193.434zM135.454 828.9s0 0.032 0.032 0.062c-0.032-0.03-0.032-0.03-0.032-0.062z" fill="#FB6D51" /><path d="M888.58 828.806c-0.124 0.438 0.094-0.218 0 0z" fill="#FB6D51" /><path d="M973.482 419.876c-7.282-96.404-33.53-178.512-78.058-244.042-38.468-56.654-90.094-100.42-153.374-130.076C677.272 15.4 599.896 0.01 512.008 0.01c-87.874 0-165.278 15.39-230.058 45.75-63.28 29.656-114.904 73.42-153.372 130.076-44.53 65.53-70.78 147.638-78.06 244.042-5.344 70.858-0.5 107.904 14.406 193.434 22.468 129.186 62.562 195.996 70.592 215.746 15.656 39.436 54.124 67.374 99.154 67.374 58.906 0 106.654-47.75 106.654-106.686a106.504 106.504 0 0 0-7.5-39.28c-0.376-0.968-37.812-53.562-58.748-173.716-11.876-68.186-15.844-87.544-11.812-140.826 4.406-58.75 18.468-105.918 41.78-140.2 37.656-55.436 105.342-82.388 206.964-82.388 101.512 0 169.168 26.89 206.854 82.216 23.094 33.922 37.154 80.498 41.748 138.466 4.188 52.732 0.468 71.482-11.062 139.042-20.56 120.686-59.028 176.53-59.372 177.404a106.504 106.504 0 0 0-7.5 39.28c0 58.936 47.748 106.686 106.652 106.686 45.032 0 83.624-28.156 99.25-67.624 7.218-18.688 47.686-84.404 70.496-215.496 14.908-85.528 19.752-122.576 14.408-193.434zM135.454 828.9s0 0.032 0.032 0.062c-0.032-0.03-0.032-0.03-0.032-0.062z" fill="#FB6D51" /><path d="M718.864 295.55c23.094 33.922 37.154 80.498 41.748 138.466 0.376 4.92 0.718 9.546 0.968 13.936 1.188-16.984 0.844-33.546-0.968-56.592-4.594-57.968-18.654-104.56-41.748-138.482-37.686-55.312-105.342-82.202-206.854-82.202-101.624 0-169.31 26.938-206.964 82.374-23.312 34.28-37.374 81.452-41.78 140.216-1.688 22.376-1.968 38.766-0.844 55.312 0.218-4.016 0.5-8.204 0.844-12.656 4.406-58.75 18.468-105.918 41.78-140.2 37.656-55.436 105.342-82.388 206.964-82.388 101.512 0 169.168 26.89 206.854 82.216z" opacity=".1" /><path d="M50.518 462.546c7.282-96.42 33.53-178.512 78.06-244.042 38.468-56.656 90.092-100.42 153.372-130.076 64.78-30.36 142.186-45.75 230.058-45.75 87.888 0 165.262 15.39 230.042 45.75 63.28 29.656 114.904 73.42 153.374 130.076 44.53 65.53 70.778 147.622 78.058 244.042 0.75 10.11 1.312 19.532 1.656 28.516 0.938-21.86 0.376-44.046-1.656-71.186-7.282-96.404-33.53-178.512-78.058-244.042-38.468-56.654-90.094-100.42-153.374-130.076C677.272 15.4 599.896 0.01 512.008 0.01c-87.874 0-165.278 15.39-230.058 45.75-63.28 29.656-114.904 73.42-153.372 130.076-44.53 65.53-70.78 147.638-78.06 244.042-2.032 27.156-2.594 49.326-1.656 71.186 0.344-8.986 0.906-18.392 1.656-28.518z" fill="#FFFFFF" opacity=".2" /><path d="M888.58 871.492c-0.124 0.438 0.094-0.25 0 0z" fill="#FB6D51" /></svg>