<?xml version="1.0" standalone="no"?><!DOCTYPE svg PUBLIC "-//W3C//DTD SVG 1.1//EN" "http://www.w3.org/Graphics/SVG/1.1/DTD/svg11.dtd"><svg class="icon" width="128px" height="128.00px" viewBox="0 0 1024 1024" version="1.1" xmlns="http://www.w3.org/2000/svg"><path d="M543.436 659.434H448v88.562h127.998v-88.562z" fill="#A9B1BC" /><path d="M1002.678 0.01H21.338C9.556 0.01 0.01 9.556 0.01 21.338v639.97c0 11.812 9.546 21.344 21.328 21.344h981.34c11.75 0 21.312-9.532 21.312-21.344V21.338c0-11.782-9.562-21.328-21.312-21.328z m-21.376 42.656v85.342H42.68V42.666h938.622zM42.68 383.986V298.66h938.622v85.326H42.68z m938.622 42.672V512H42.68v-85.342h938.622zM42.68 255.99V170.662h938.622v85.328H42.68z m0 384.006v-85.34h938.622v85.34H42.68z" fill="#CBD0D8" /><path d="M362.3 583.998c0 11.782-9.546 21.344-21.328 21.344-11.78 0-21.328-9.562-21.328-21.344s9.546-21.31 21.328-21.31c11.78 0 21.328 9.528 21.328 21.31zM362.3 98.648c0 11.782-9.546 21.344-21.328 21.344-11.78 0-21.328-9.562-21.328-21.344s9.546-21.328 21.328-21.328c11.78 0 21.328 9.548 21.328 21.328z" fill="#E8563F" /><path d="M286.41 605.342c43.75 0 79.202-35.468 79.202-79.202 0-24.344-10.984-46.124-28.266-60.656-0.11-0.094-11.734-10.89-23.53-29.624-18.188-28.842-27.406-60.656-27.406-94.53 0-32.14 8.344-62.5 24.796-90.264 11.204-18.922 22.812-30.64 26.062-33.75l1.718-1.562c16.328-14.516 26.624-35.672 26.624-59.234 0-43.732-35.452-79.202-79.202-79.202-19.406 0-37.156 6.984-50.936 18.562-0.218 0.188-0.5 0.422-0.812 0.688-0.032 0.032-0.078 0.062-0.124 0.094-6.608 5.704-30.906 27.876-54.734 65.67-33.89 53.766-51.794 115.67-51.794 178.998s17.906 125.216 51.794 178.982c23.844 37.812 48.156 59.998 54.75 65.686 0.032 0.032 0.062 0.062 0.078 0.062 0.328 0.282 0.61 0.532 0.844 0.718a78.824 78.824 0 0 0 50.936 18.564z" fill="#FB6D51" /><path d="M627.498 583.998c0 11.782-9.562 21.344-21.344 21.344s-21.344-9.562-21.344-21.344 9.562-21.31 21.344-21.31 21.344 9.528 21.344 21.31zM627.498 98.648c0 11.782-9.562 21.344-21.344 21.344s-21.344-9.562-21.344-21.344 9.562-21.328 21.344-21.328 21.344 9.548 21.344 21.328z" fill="#E8563F" /><path d="M551.592 605.342c43.75 0 79.218-35.468 79.218-79.202 0-24.344-11-46.124-28.282-60.656-0.094-0.094-11.718-10.89-23.532-29.624-18.188-28.842-27.406-60.656-27.406-94.53 0-32.14 8.344-62.5 24.782-90.264 11.25-18.922 22.812-30.64 26.062-33.75l1.75-1.562c16.312-14.516 26.624-35.672 26.624-59.234 0-43.732-35.468-79.202-79.218-79.202a78.852 78.852 0 0 0-50.92 18.562h-0.016c-0.218 0.188-0.5 0.422-0.796 0.688-0.046 0.032-0.094 0.062-0.124 0.094-6.624 5.704-30.92 27.876-54.734 65.67-33.89 53.766-51.812 115.67-51.812 178.998s17.922 125.216 51.812 178.982c23.844 37.812 48.14 59.998 54.75 65.686 0.016 0.032 0.046 0.062 0.078 0.062 0.312 0.282 0.61 0.532 0.828 0.718h0.016a78.756 78.756 0 0 0 50.92 18.564z" fill="#FB6D51" /><path d="M543.326 586.78a21.61 21.61 0 0 1-0.828-0.718c-0.032 0-0.062-0.032-0.094-0.062-6.592-5.688-30.904-27.874-54.748-65.686-33.89-53.766-51.796-115.654-51.796-178.982s17.906-125.232 51.796-178.998c23.828-37.794 48.124-59.966 54.732-65.67 0.046-0.032 0.094-0.062 0.124-0.094 0.312-0.266 0.594-0.5 0.812-0.688a78.712 78.712 0 0 1 29.578-15.64 79.162 79.162 0 0 0-21.312-2.922 78.852 78.852 0 0 0-50.92 18.562h-0.016c-0.218 0.188-0.5 0.422-0.796 0.688-0.046 0.032-0.094 0.062-0.124 0.094-6.624 5.704-30.92 27.876-54.734 65.67-33.89 53.766-51.812 115.67-51.812 178.998s17.922 125.216 51.812 178.982c23.844 37.812 48.14 59.998 54.75 65.686 0.016 0.032 0.046 0.062 0.078 0.062 0.312 0.282 0.61 0.532 0.828 0.718h0.016a78.766 78.766 0 0 0 50.92 18.562c7.406 0 14.532-1.032 21.312-2.906a79.216 79.216 0 0 1-29.578-15.656z" opacity=".1" /><path d="M892.682 583.998c0 11.782-9.562 21.344-21.312 21.344-11.812 0-21.344-9.562-21.344-21.344s9.532-21.31 21.344-21.31c11.75 0 21.312 9.528 21.312 21.31zM892.682 98.648c0 11.782-9.562 21.344-21.312 21.344-11.812 0-21.344-9.562-21.344-21.344s9.532-21.328 21.344-21.328c11.75 0 21.312 9.548 21.312 21.328z" fill="#E8563F" /><path d="M816.806 605.342c43.75 0 79.186-35.468 79.186-79.202 0-24.344-10.998-46.124-28.248-60.656-0.124-0.094-11.75-10.89-23.562-29.624-18.188-28.842-27.376-60.656-27.376-94.53 0-32.14 8.312-62.5 24.782-90.264 11.218-18.922 22.812-30.64 26.062-33.75l1.718-1.562c16.312-14.516 26.624-35.672 26.624-59.234 0-43.732-35.436-79.202-79.186-79.202a78.832 78.832 0 0 0-50.938 18.562c-0.25 0.188-0.5 0.422-0.812 0.688a0.414 0.414 0 0 0-0.124 0.094c-6.624 5.704-30.936 27.876-54.748 65.67-33.874 53.766-51.81 115.67-51.81 178.998s17.938 125.216 51.81 178.982c23.844 37.812 48.154 59.998 54.748 65.686l0.062 0.062c0.344 0.282 0.624 0.532 0.876 0.718 13.75 11.596 31.53 18.564 50.936 18.564z" fill="#FB6D51" /><path d="M808.526 586.78c-0.218-0.188-0.532-0.438-0.844-0.718-0.032 0-0.062-0.032-0.062-0.062-6.624-5.688-30.938-27.874-54.75-65.686-33.904-53.766-51.81-115.654-51.81-178.982s17.906-125.232 51.81-178.998c23.812-37.794 48.094-59.966 54.718-65.67 0.032-0.032 0.094-0.062 0.124-0.094 0.312-0.266 0.594-0.5 0.812-0.688a78.9 78.9 0 0 1 29.594-15.64 79.506 79.506 0 0 0-21.312-2.922 78.832 78.832 0 0 0-50.938 18.562c-0.25 0.188-0.5 0.422-0.812 0.688a0.414 0.414 0 0 0-0.124 0.094c-6.624 5.704-30.936 27.876-54.748 65.67-33.874 53.766-51.81 115.67-51.81 178.998s17.938 125.216 51.81 178.982c23.844 37.812 48.154 59.998 54.748 65.686l0.062 0.062c0.344 0.282 0.624 0.532 0.876 0.718 13.75 11.594 31.532 18.562 50.938 18.562 7.376 0 14.5-1.032 21.312-2.906a79.376 79.376 0 0 1-29.594-15.656zM278.146 586.78a20.82 20.82 0 0 1-0.844-0.718c-0.032 0-0.062-0.032-0.078-0.062-6.61-5.688-30.906-27.874-54.75-65.686-33.89-53.766-51.796-115.654-51.796-178.982s17.906-125.232 51.796-178.998c23.828-37.794 48.108-59.966 54.734-65.67 0.032-0.032 0.078-0.062 0.124-0.094 0.296-0.266 0.578-0.5 0.812-0.688a78.82 78.82 0 0 1 29.578-15.64 79.25 79.25 0 0 0-21.312-2.922c-19.406 0-37.156 6.984-50.936 18.562-0.218 0.188-0.5 0.422-0.812 0.688-0.032 0.032-0.078 0.062-0.124 0.094-6.608 5.704-30.906 27.876-54.734 65.67-33.89 53.766-51.794 115.67-51.794 178.998s17.906 125.216 51.794 178.982c23.844 37.812 48.156 59.998 54.75 65.686 0.032 0.032 0.062 0.062 0.078 0.062 0.328 0.282 0.61 0.532 0.844 0.718a78.836 78.836 0 0 0 50.936 18.562c7.39 0 14.532-1.032 21.312-2.906a79.308 79.308 0 0 1-29.578-15.656z" opacity=".1" /><path d="M426.674 725.308v213.34c0 47.124 38.202 85.342 85.326 85.342 47.124 0 85.31-38.218 85.31-85.342v-213.34h-170.636zM512 959.992c-11.782 0-21.328-9.562-21.328-21.344s9.546-21.344 21.328-21.344 21.328 9.562 21.328 21.344-9.546 21.344-21.328 21.344z" fill="#EC5564" /></svg>