<?xml version="1.0" standalone="no"?><!DOCTYPE svg PUBLIC "-//W3C//DTD SVG 1.1//EN" "http://www.w3.org/Graphics/SVG/1.1/DTD/svg11.dtd"><svg class="icon" width="128px" height="128.00px" viewBox="0 0 1024 1024" version="1.1" xmlns="http://www.w3.org/2000/svg"><path d="M552.375369 1023.972h-0.031999c-31.793503 0-61.481039-8.93786-83.542695-25.187606-26.499586-19.531695-40.529367-47.687255-40.529367-81.402728 0-127.184013 40.96736-824.98311 42.717333-854.620647a21.327667 21.327667 0 0 1 19.1877-19.967688 21.343667 21.343667 0 0 1 22.749645 15.827753c40.29537 153.947595 46.951266 421.935407 51.389197 599.270636 0.875986 35.155451 1.749973 70.808894 2.875955 100.964423 3.84394-14.531773 7.403884-29.687536 11.123826-45.591288 12.905798-55.03114 27.53157-117.402166 63.781003-189.525038a21.479664 21.479664 0 0 1 14.061781-11.155826 21.313667 21.313667 0 0 1 17.561725 3.499945l58.651084 42.715333a20.749676 20.749676 0 0 1 4.499929 4.405931l32.093499 42.687333a21.323667 21.323667 0 0 1 0.687989 24.653615c-25.843596 38.749395-56.279121 145.805722-85.74466 301.455289-5.499914 28.999547-22.717645 53.155169-49.781222 69.904908-23.03364 14.221778-52.065186 22.065655-81.750723 22.065655z" fill="#F6BB42" /><path d="M743.524382 531.553694c35.155451 35.153451 53.031171 74.278839 39.937376 87.370635-13.093795 13.093795-52.187185-4.779925-87.340635-39.935376-35.18545-35.16945-53.059171-74.276839-39.965375-87.386634 13.091795-13.093795 52.215184 4.797925 87.368634 39.951375z" fill="#434A54" /><path d="M771.20995 644.547929c-12.937798 0-27.999563-4.967922-44.8093-14.74977-15.155763-8.843862-30.875518-21.215669-45.373291-35.715442-18.749707-18.781707-33.811472-39.435384-42.405337-58.18509-15.531757-33.999469-5.12392-51.795191 2.437961-59.373073 4.811925-4.811925 13.46779-10.531835 27.375573-10.531835 12.905798 0 27.997563 4.953923 44.7793 14.763769 15.187763 8.843862 30.873518 21.187669 45.403291 35.717442 18.749707 18.749707 33.811472 39.421384 42.375337 58.169091 15.561757 33.999469 5.155919 51.779191-2.437961 59.373072-4.813925 4.813925-13.43779 10.531835-27.345573 10.531836z m-96.994485-134.897892c2.999953 10.23384 13.123795 30.389525 36.965423 54.247152 21.841659 21.843659 42.623334 33.687474 54.247152 36.999422-2.999953-10.21784-13.123795-30.375525-36.997422-54.247152-21.841659-21.861658-42.621334-33.671474-54.215153-36.999422z" fill="#FFCE54" /><path d="M364.244309 85.586663a22.159654 22.159654 0 0 1-3.061952-0.233997h-124.902049c-11.781816 0-21.341667-9.545851-21.341666-21.341666 0-11.779816 9.561851-21.327667 21.341666-21.327667h119.526133C378.554085 21.605662 417.459477-6.641896 456.020875 1.419978c24.749613 5.185919 43.623318 23.577632 56.061124 54.669146 4.375932 10.935829-0.937985 23.357635-11.875815 27.731566-10.935829 4.375932-23.341635-0.935985-27.717567-11.873814-6.811894-17.013734-15.281761-26.685583-25.217606-28.763551-15.937751-3.327948-41.655349 10.187841-67.15495 35.279449-5.373916 5.281917-10.90383 7.123889-15.871752 7.123889z" fill="#F6BB42" /><path d="M562.719208 596.364682c-0.343995-13.343792-0.749988-27.031578-1.187982-40.96536a20.831675 20.831675 0 0 0-5.249918-0.687989h-15.609756c-11.779816 0-21.341667 9.559851-21.341667 21.341666s9.561851 21.311667 21.341667 21.311667h15.609756a20.859674 20.859674 0 0 0 6.4379-0.999984zM564.875174 680.891361l-0.561991-22.999641c-0.155998-5.375916-0.281996-10.87583-0.437994-16.437743a21.023672 21.023672 0 0 0-7.593881-1.405978h-15.609756c-11.779816 0-21.341667 9.531851-21.341667 21.311667s9.561851 21.343667 21.341667 21.343667h15.609756c3.063952 0 5.969907-0.65599 8.593866-1.811972z" fill="#434A54" /><path d="M567.189138 768.041999zM540.673552 725.388666c-11.779816 0-21.341667 9.531851-21.341667 21.311667s9.561851 21.341667 21.341667 21.341666h26.513586c-0.405994-10.591835-0.749988-30.997516-1.093983-42.653333h-25.419603z" fill="#434A54" /><path d="M560.095249 511.664005c-0.499992-13.905783-1.031984-27.999563-1.623975-42.185341a20.541679 20.541679 0 0 0-2.187966-0.123998h-21.827659c-11.809815 0-21.341667 9.561851-21.341666 21.341667s9.531851 21.327667 21.341666 21.327667h21.827659c1.27998 0 2.56196-0.123998 3.811941-0.359995zM236.280308 85.352666h106.90233v-42.559335h-109.120295c-10.749832 1.109983-19.123701 10.187841-19.123701 21.217669-0.002 11.795816 9.559851 21.341667 21.341666 21.341666z" fill="#434A54" /></svg>