<?xml version="1.0" standalone="no"?><!DOCTYPE svg PUBLIC "-//W3C//DTD SVG 1.1//EN" "http://www.w3.org/Graphics/SVG/1.1/DTD/svg11.dtd"><svg class="icon" width="128px" height="128.00px" viewBox="0 0 1024 1024" version="1.1" xmlns="http://www.w3.org/2000/svg"><path d="M1002.688 789.312H21.376C9.562 789.312 0 798.876 0 810.656S9.562 832 21.376 832h981.312c11.782 0 21.312-9.562 21.312-21.344s-9.532-21.344-21.312-21.344z" fill="#3BAFDA" /><path d="M1002.688 661.344H757.124c33.75-48.406 53.562-107.218 53.562-170.688C810.688 325.718 676.968 192 512 192c-164.938 0-298.624 133.718-298.624 298.656 0 63.468 19.812 122.282 53.562 170.688H21.376C9.562 661.344 0 670.876 0 682.656S9.562 704 21.376 704h290.532c11.782 0 21.344-9.562 21.344-21.344a21.26 21.26 0 0 0-6.376-15.218C281.124 619.624 256 557.062 256 490.656c0-68.376 26.624-132.656 75-181 48.344-48.344 112.624-74.968 181-74.968s132.688 26.624 181.032 74.968S768 422.282 768 490.656c0 66.406-25.094 128.968-70.812 176.782a21.262 21.262 0 0 0-6.376 15.218c0 11.782 9.532 21.344 21.312 21.344h290.562c11.782 0 21.312-9.562 21.312-21.344s-9.53-21.312-21.31-21.312z" fill="#4FC1E9" /></svg>