<?xml version="1.0" standalone="no"?><!DOCTYPE svg PUBLIC "-//W3C//DTD SVG 1.1//EN" "http://www.w3.org/Graphics/SVG/1.1/DTD/svg11.dtd"><svg class="icon" width="128px" height="128.00px" viewBox="0 0 1024 1024" version="1.1" xmlns="http://www.w3.org/2000/svg"><path d="M182.292 176.418c-7.812 9.516-19.686 15.594-32.934 15.594-13.282 0-25.156-6.094-32.968-15.61L0.02 575.998l40.968 11.936 108.34-372.11 108.37 372.142 40.966-11.936L182.292 176.418zM907.61 176.418c-7.844 9.516-19.688 15.594-32.968 15.594-13.25 0-25.124-6.094-32.966-15.61l-116.338 399.594 40.934 11.936 108.372-372.11 108.372 372.142 40.968-11.936-116.374-399.61z" fill="#E6E9ED" /><path d="M149.358 725.304c82.464 0 149.306-66.842 149.306-149.306H0.02c0 82.464 66.842 149.306 149.338 149.306zM874.64 725.304c82.498 0 149.34-66.842 149.34-149.306H725.336c0 82.464 66.84 149.306 149.304 149.306z" fill="#FFCE54" /><path d="M696.776 192.012c-20.906 16.514-348.644 16.514-369.55 0h-63.06C326.35 257.698 414.378 298.68 512 298.68c97.59 0 185.62-40.984 247.832-106.668h-63.056z" fill="#F6BB42" /><path d="M151.578 170.684h723.064v42.654H151.578z" fill="#FFCE54" /><path d="M490.656 21.348h42.686v959.948h-42.686z" fill="#434A54" /><path d="M512 0.02c-35.342 0-63.998 28.656-63.998 63.998v277.316c0 23.578 19.092 42.67 42.654 42.67h42.686c23.562 0 42.656-19.092 42.656-42.67V64.018C575.998 28.674 547.342 0.02 512 0.02z" fill="#ED5564" /><path d="M149.358 85.344C114.016 85.344 85.36 114 85.36 149.342c0 35.358 28.656 63.996 63.998 63.996 35.34 0 63.996-28.638 63.996-63.996 0-35.342-28.654-63.998-63.996-63.998z m0 85.34c-11.782 0-21.344-9.578-21.344-21.342 0-11.75 9.562-21.328 21.344-21.328 11.75 0 21.312 9.578 21.312 21.328 0 11.766-9.562 21.342-21.312 21.342zM874.64 85.344c-35.342 0-63.996 28.656-63.996 63.998 0 35.358 28.654 63.996 63.996 63.996 35.344 0 63.998-28.638 63.998-63.996 0-35.342-28.654-63.998-63.998-63.998z m0 85.34c-11.75 0-21.312-9.578-21.312-21.342 0-11.75 9.562-21.328 21.312-21.328 11.782 0 21.344 9.578 21.344 21.328 0 11.766-9.562 21.342-21.344 21.342z" fill="#FFCE54" /><path d="M597.342 767.99c0-47.124-38.218-85.308-85.342-85.308-47.124 0-85.34 38.186-85.34 85.308v170.68h170.682v-170.68z" fill="#FFCE54" /><path d="M810.644 938.67c0-23.562-19.094-42.686-42.656-42.686H256.01c-23.562 0-42.656 19.124-42.656 42.686v42.624c0 23.592 19.094 42.686 42.656 42.686h511.978c23.562 0 42.656-19.094 42.656-42.686v-42.624z" fill="#656D78" /><path d="M853.328 981.294H170.67c-11.782 0-21.312 9.562-21.312 21.374 0 11.75 9.53 21.312 21.312 21.312h682.658c11.782 0 21.312-9.562 21.312-21.312 0-11.81-9.53-21.374-21.312-21.374z" fill="#434A54" /></svg>