<?xml version="1.0" standalone="no"?><!DOCTYPE svg PUBLIC "-//W3C//DTD SVG 1.1//EN" "http://www.w3.org/Graphics/SVG/1.1/DTD/svg11.dtd"><svg class="icon" width="128px" height="128.00px" viewBox="0 0 1024 1024" version="1.1" xmlns="http://www.w3.org/2000/svg"><path d="M341.344 384.658h341.312v112.654H341.344z" fill="#434A54" /><path d="M778.434 991.996c46.844-58.436 74.906-132.624 74.906-213.34 0-188.5-152.844-341.344-341.34-341.344-188.5 0-341.342 152.844-341.342 341.344 0 80.716 28.062 154.904 74.906 213.34h532.87z" fill="#48CFAD" /><path d="M647.75 642.906c-36.25-36.282-84.468-56.25-135.75-56.25s-99.5 19.968-135.75 56.25c-26 25.968-43.624 58.094-51.53 93.094h374.558c-7.902-35-25.528-67.124-51.528-93.094z" fill="#E6E9ED" /><path d="M490.656 760.094V672c0-11.782 9.562-21.344 21.344-21.344s21.344 9.562 21.344 21.344v88.094c0 11.782-42.688 11.782-42.688 0zM533.344 586.656c0 11.782-9.562 21.344-21.344 21.344s-21.344-9.562-21.344-21.344 9.562-21.344 21.344-21.344 21.344 9.564 21.344 21.344zM434.468 601.718c5.906 10.188 2.406 23.25-7.812 29.124-10.188 5.906-23.25 2.406-29.124-7.782-5.906-10.218-2.406-23.25 7.812-29.156 10.188-5.872 23.25-2.404 29.124 7.814zM356.376 664.188c10.218 5.876 13.718 18.938 7.812 29.124-5.876 10.218-18.936 13.718-29.124 7.812-10.218-5.876-13.718-18.938-7.812-29.124 5.874-10.218 18.936-13.718 29.124-7.812zM667.594 664.188c10.218-5.906 23.282-2.406 29.156 7.812 5.902 10.188 2.402 23.25-7.812 29.124-10.188 5.906-23.25 2.406-29.124-7.812-5.908-10.188-2.408-23.25 7.78-29.124zM589.532 601.718c5.876-10.188 18.938-13.688 29.124-7.812 10.218 5.906 13.718 18.938 7.812 29.156-5.876 10.188-18.938 13.688-29.124 7.782-10.22-5.876-13.72-18.938-7.812-29.126z" fill="#434A54" /><path d="M618.656 842.654H405.344c-11.782 0-21.344 9.562-21.344 21.344s9.562 21.312 21.344 21.312h213.312c11.782 0 21.344-9.532 21.344-21.312s-9.562-21.344-21.344-21.344z" fill="#37BC9B" /><path d="M448 245.314c0 70.718-57.312 128-128 128s-128-57.282-128-128c0-70.688 57.312-128 128-128s128 57.312 128 128zM831.996 202.658c0 70.688-57.312 128-128 128-70.684 0-127.996-57.312-127.996-128s57.312-128 127.996-128c70.688 0 128 57.312 128 128z" fill="#FC6E51" /><path d="M512 160.002m-128 0a128 128 0 1 0 256 0 128 128 0 1 0-256 0Z" fill="#ED5564" /><path d="M554.656 74.658c0 11.782-9.532 21.344-21.312 21.344S512 86.44 512 74.658s9.562-21.344 21.344-21.344 21.312 9.562 21.312 21.344zM767.996 224.002c0 11.782-9.562 21.312-21.344 21.312s-21.312-9.532-21.312-21.312 9.532-21.344 21.312-21.344 21.344 9.562 21.344 21.344zM277.344 181.314c0 11.782-9.562 21.344-21.344 21.344s-21.344-9.562-21.344-21.344S244.22 160.002 256 160.002s21.344 9.532 21.344 21.312z" fill="#434A54" /><path d="M895.996 394.658H128.002c-127.998 0-128-170.656-128-170.656h1023.994s0 170.656-128 170.656z" fill="#656D78" /><path d="M512 544c-129.594 0-234.656 105.062-234.656 234.656h469.308C746.652 649.062 641.594 544 512 544z m-135.75 98.906c36.25-36.282 84.468-56.25 135.75-56.25s99.5 19.968 135.75 56.25c26 25.968 43.624 58.094 51.528 93.094H324.72c7.906-35 25.53-67.124 51.53-93.094z" fill="#37BC9B" /></svg>