<?xml version="1.0" standalone="no"?><!DOCTYPE svg PUBLIC "-//W3C//DTD SVG 1.1//EN" "http://www.w3.org/Graphics/SVG/1.1/DTD/svg11.dtd"><svg class="icon" width="128px" height="128.00px" viewBox="0 0 1024 1024" version="1.1" xmlns="http://www.w3.org/2000/svg"><path d="M1002.656 950.368H85.312v42.656h917.344c11.782 0 21.344-9.562 21.344-21.344s-9.562-21.312-21.344-21.312z" fill="#ED5564" /><path d="M1005.25 49.71a65.536 65.536 0 0 0-2.876-2.688 77.8 77.8 0 0 0-3.812-3.124c-24.094-18.234-58.124-17.172-81.032 3.204a4.514 4.514 0 0 0-0.406 0.328c-0.5 0.454-0.968 0.922-1.438 1.39-0.312 0.296-0.624 0.578-0.938 0.89l-552.718 552.72-89.438 89.438 60.344 120.688 89.438-89.468 582.876-582.86c25-25.002 25-65.518 0-90.518zM344.624 740.492l-20.124-40.218 57.656-57.656 20.094 40.25-57.626 57.624z" fill="#5D9CEC" /><path d="M362.032 602.43L0 964.43c144.968 120.906 422.376-181 422.376-181l-30.188-30.188 30.188-30.156-60.344-120.656z" fill="#CCD1D9" /><path d="M392.188 753.242S158.938 1007.118 8.406 956.054L0 964.43c144.968 120.906 422.376-181 422.376-181l-30.188-30.188z" fill="#E6E9ED" /></svg>