<?xml version="1.0" standalone="no"?><!DOCTYPE svg PUBLIC "-//W3C//DTD SVG 1.1//EN" "http://www.w3.org/Graphics/SVG/1.1/DTD/svg11.dtd"><svg class="icon" width="128px" height="128.00px" viewBox="0 0 1024 1024" version="1.1" xmlns="http://www.w3.org/2000/svg"><path d="M0.02 362.678c0 11.78 9.546 21.328 21.328 21.328h157.276v-42.67H21.346C9.566 341.334 0.02 350.896 0.02 362.678z" fill="#EC5564" /><path d="M42.69 277.336c0 11.796 9.546 21.344 21.328 21.344H157.06v-42.67H64.016c-11.78 0-21.326 9.546-21.326 21.326z" fill="#D94452" /><path d="M21.346 213.338H157.06V170.684H21.346C9.564 170.684 0.018 180.23 0.018 192.012s9.548 21.326 21.328 21.326zM21.346 42.69H157.06V0.02H21.346C9.566 0.02 0.02 9.566 0.02 21.346s9.546 21.344 21.326 21.344z" fill="#EC5564" /><path d="M42.69 106.686c0 11.782 9.546 21.328 21.328 21.328H157.06V85.344H64.016c-11.78 0-21.326 9.562-21.326 21.342z" fill="#D94452" /><path d="M1023.98 661.306c0-11.75-9.562-21.31-21.31-21.31h-157.276v42.686h157.276c11.748 0 21.31-9.562 21.31-21.376z" fill="#EC5564" /><path d="M866.926 725.304v42.686h93.058c11.782 0 21.31-9.562 21.31-21.312 0-11.81-9.53-21.374-21.31-21.374h-93.058z" fill="#D94452" /><path d="M1002.67 810.678h-135.744v42.624h135.744c11.748 0 21.31-9.532 21.31-21.31 0-11.784-9.562-21.314-21.31-21.314zM1002.67 981.294h-135.744v42.686h135.744c11.748 0 21.31-9.562 21.31-21.31 0-11.812-9.562-21.376-21.31-21.376z" fill="#EC5564" /><path d="M981.294 917.296c0-11.75-9.53-21.312-21.31-21.312h-93.058v42.688h93.058c11.782 0 21.31-9.562 21.31-21.376z" fill="#D94452" /><path d="M1023.98 384.004L223.792 952.046 0.02 639.996 800.428 71.672z" fill="#F5BA45" /><path d="M128.014 0.02H1023.98v383.986H128.014z" fill="#FECD57" /><path d="M0.02 639.996h895.964V1023.98H0.02z" fill="#FECD57" /></svg>