<?xml version="1.0" standalone="no"?><!DOCTYPE svg PUBLIC "-//W3C//DTD SVG 1.1//EN" "http://www.w3.org/Graphics/SVG/1.1/DTD/svg11.dtd"><svg class="icon" width="128px" height="128.00px" viewBox="0 0 1024 1024" version="1.1" xmlns="http://www.w3.org/2000/svg"><path d="M692.186 808.434l-19.062-38.188 161.308-80.688 40.624-203.074 41.876 8.36-42.688 213.338a21.324 21.324 0 0 1-11.376 14.876l-170.682 85.376z" fill="#AAB2BC" /><path d="M719.53 112.476C646.998 39.946 550.562 0.008 448 0.008c-102.56 0-198.996 39.938-271.526 112.468S64.006 281.44 64.006 384.002c0 102.576 39.938 198.998 112.468 271.528 72.53 72.528 168.964 112.464 271.526 112.464 102.562 0 198.998-39.938 271.528-112.464 72.528-72.532 112.464-168.952 112.464-271.528 0.002-102.56-39.936-198.996-112.462-271.526z" fill="#ED5564" /><path d="M719.53 112.476C646.998 39.946 550.562 0.008 448 0.008c-7.14 0-14.25 0.218-21.328 0.594 94.546 5.156 182.702 44.406 250.2 111.874 72.498 72.53 112.434 168.964 112.434 271.526 0 102.576-39.936 198.998-112.434 271.528-67.498 67.464-155.654 106.714-250.2 111.872 7.078 0.376 14.188 0.594 21.328 0.594 102.562 0 198.998-39.938 271.528-112.464 72.528-72.532 112.464-168.952 112.464-271.528 0.002-102.562-39.936-198.998-112.462-271.528z" fill="#FFFFFF" opacity=".2" /><path d="M448 533.328c-82.342 0-149.326-66.984-149.326-149.326s66.984-149.326 149.326-149.326 149.312 66.984 149.312 149.326-66.968 149.326-149.312 149.326z" fill="#E6E9ED" /><path d="M448 213.334c-94.108 0-170.668 76.56-170.668 170.668s76.562 170.684 170.668 170.684c94.108 0 170.686-76.578 170.686-170.684 0.002-94.108-76.576-170.668-170.686-170.668zM448 512c-70.576 0-127.998-57.422-127.998-127.998 0-70.578 57.42-127.998 127.998-127.998s128 57.42 128 127.998S518.578 512 448 512z" fill="#CCD1D9" /><path d="M682.686 725.308H213.334c-11.782 0-21.328 9.562-21.328 21.376V1002.68c0 11.75 9.546 21.312 21.328 21.312h469.352c11.75 0 21.312-9.562 21.312-21.312V746.684c0-11.812-9.562-21.376-21.312-21.376z" fill="#656D78" /><path d="M448 384.002m-21.328 0a21.328 21.328 0 1 0 42.656 0 21.328 21.328 0 1 0-42.656 0Z" fill="#434A54" /><path d="M703.998 853.308h-106.686c0-11.75-9.532-21.312-21.312-21.312s-21.312 9.562-21.312 21.312H512c0-11.75-9.546-21.312-21.328-21.312s-21.344 9.562-21.344 21.312h-42.656c0-11.75-9.562-21.312-21.342-21.312s-21.328 9.562-21.328 21.312h-42.67c0-11.75-9.546-21.312-21.328-21.312s-21.328 9.562-21.328 21.312H192.004c-11.78 0-21.326 9.562-21.326 21.376 0 11.75 9.546 21.308 21.326 21.308h106.67c0 11.782 9.546 21.312 21.328 21.312s21.328-9.532 21.328-21.312H384c0 11.782 9.546 21.312 21.328 21.312s21.342-9.532 21.342-21.312h42.656c0 11.782 9.562 21.312 21.344 21.312 11.78 0 21.328-9.532 21.328-21.312h42.688c0 11.782 9.532 21.312 21.312 21.312s21.312-9.532 21.312-21.312h106.686c11.782 0 21.31-9.558 21.31-21.308 0.002-11.812-9.526-21.376-21.308-21.376zM895.994 426.672c-35.312 0-64 28.704-64 64 0 35.28 28.688 64.014 64 64.014 35.282 0 63.998-28.734 63.998-64.014 0-35.296-28.716-64-63.998-64z" fill="#434A54" /></svg>