<?xml version="1.0" standalone="no"?><!DOCTYPE svg PUBLIC "-//W3C//DTD SVG 1.1//EN" "http://www.w3.org/Graphics/SVG/1.1/DTD/svg11.dtd"><svg class="icon" width="128px" height="128.00px" viewBox="0 0 1024 1024" version="1.1" xmlns="http://www.w3.org/2000/svg"><path d="M359.598 842.676h305.212v42.624H359.598z" fill="#EAAD7A" /><path d="M450.236 703.614l-74.28-41.996c-4.938-2.75-10.766-3.5-16.218-1.968s-10.078 5.124-12.86 10.062L194.772 938.828a21.264 21.264 0 0 0 0.14 21.218 21.362 21.362 0 0 0 18.422 10.624h98.03c7.688 0 14.782-4.156 18.562-10.876l128.388-227.122a21.374 21.374 0 0 0 1.984-16.188 21.404 21.404 0 0 0-10.062-12.87zM829.494 938.578l-152.12-269.118a21.456 21.456 0 0 0-12.876-10.032 21.344 21.344 0 0 0-16.188 1.938L574 703.364a21.496 21.496 0 0 0-10.062 12.876 21.36 21.36 0 0 0 2 16.188l128.374 227.152c3.812 6.688 10.876 10.844 18.562 10.844h98.028c7.594 0 14.594-4.062 18.406-10.594a21.332 21.332 0 0 0 0.186-21.252z" fill="#FFD2A6" /><path d="M554.688 53.33h-85.358c-11.782 0-21.328 9.562-21.328 21.344v416.102c0 11.782 9.546 21.328 21.328 21.328h85.358c11.75 0 21.312-9.546 21.312-21.328V74.672c0-11.78-9.562-21.342-21.312-21.342z" fill="#FFD2A6" /><path d="M981.304 117.328H42.68c-11.78 0-21.342 9.562-21.342 21.344v597.318c0 11.782 9.562 21.312 21.342 21.312h938.624c11.812 0 21.376-9.532 21.376-21.312V138.67c0-11.78-9.562-21.342-21.376-21.342z" fill="#48CFAD" /><path d="M1002.68 757.3H21.338c-11.782 0-21.328-9.532-21.328-21.312s9.546-21.312 21.328-21.312H1002.68c11.75 0 21.31 9.532 21.31 21.312s-9.56 21.312-21.31 21.312z" fill="#434A54" /><path d="M895.994 714.676h-85.312a21.366 21.366 0 0 1-21.376-21.376c0-11.746 9.562-21.308 21.376-21.308h85.312c11.782 0 21.312 9.562 21.312 21.308 0 11.814-9.53 21.376-21.312 21.376z" fill="#F5F7FA" /><path d="M128.008 629.304h170.668v85.372H128.008z" fill="#FFCE54" /><path d="M192.006 671.992c11.782 0 21.328-9.562 21.328-21.312v-21.376H170.68v21.376c0 11.75 9.544 21.312 21.326 21.312zM234.678 671.992c-11.782 0-21.344 9.562-21.344 21.308v21.376h42.672V693.3c0-11.746-9.548-21.308-21.328-21.308z" fill="#F6BB42" /><path d="M384.128 543.992h-85.844c-8.984 0-17.016-5.64-20.062-14.11s-0.468-17.92 6.468-23.656c20.328-16.876 78.328-73.484 77.984-111.044-0.078-8.39-3.094-14.156-9.25-17.608-7.312-4.11-17.828-3.984-24.984 0.282-5.704 3.422-8.406 8.842-8.266 16.578 0.218 11.78-9.156 21.514-20.938 21.718-11.734 0.218-21.5-9.156-21.718-20.936-0.422-23.014 10.156-42.702 29.032-53.984 20.406-12.188 47-12.516 67.766-0.86 19.516 10.954 30.81 30.796 31.03 54.436 0.25 28.702-15.858 62.044-47.858 99.092a474.59 474.59 0 0 1-6.594 7.422h33.234c11.782 0 21.326 9.562 21.326 21.342 0.002 11.782-9.544 21.328-21.326 21.328zM725.714 543.992h-85.84c-9 0-17.032-5.64-20.062-14.11a21.322 21.322 0 0 1 6.438-23.656c20.374-16.876 78.342-73.484 77.998-111.044-0.062-8.39-3.094-14.156-9.25-17.608-7.312-4.11-17.812-3.984-24.968 0.282-5.718 3.422-8.406 8.842-8.282 16.578 0.218 11.78-9.156 21.514-20.936 21.718-11.718 0.218-21.5-9.156-21.718-20.936-0.406-23.014 10.156-42.702 29.03-53.984 20.406-12.188 47-12.516 67.75-0.86 19.53 10.954 30.842 30.796 31.06 54.436 0.25 28.702-15.876 62.044-47.874 99.092a317.1 317.1 0 0 1-6.594 7.422h33.248c11.782 0 21.344 9.562 21.344 21.342 0 11.782-9.562 21.328-21.344 21.328zM480.346 489.446a21.26 21.26 0 0 1-15.094-6.25c-8.328-8.328-8.328-21.844 0-30.172l60.342-60.342c8.328-8.328 21.844-8.328 30.156 0 8.344 8.344 8.344 21.842 0 30.17l-60.328 60.344a21.28 21.28 0 0 1-15.076 6.25z" fill="#F5F7FA" /><path d="M540.672 489.446a21.246 21.246 0 0 1-15.078-6.25l-60.342-60.344c-8.328-8.328-8.328-21.826 0-30.17 8.328-8.328 21.844-8.328 30.17 0l60.328 60.342c8.344 8.328 8.344 21.844 0 30.172a21.29 21.29 0 0 1-15.078 6.25z" fill="#F5F7FA" /></svg>