<?xml version="1.0" standalone="no"?><!DOCTYPE svg PUBLIC "-//W3C//DTD SVG 1.1//EN" "http://www.w3.org/Graphics/SVG/1.1/DTD/svg11.dtd"><svg class="icon" width="128px" height="128.00px" viewBox="0 0 1024 1024" version="1.1" xmlns="http://www.w3.org/2000/svg"><path d="M320.002 426.672c-11.782 0-21.344-9.562-21.344-21.342V192.006c0-11.782 9.562-21.328 21.344-21.328s21.342 9.546 21.342 21.328v213.324c0.002 11.782-9.56 21.342-21.342 21.342zM703.996 426.672c-11.782 0-21.344-9.562-21.344-21.342V192.006c0-11.782 9.562-21.328 21.344-21.328s21.344 9.546 21.344 21.328v213.324c0 11.782-9.562 21.342-21.344 21.342zM277.346 917.304c-11.782 0-21.342-9.532-21.342-21.312v-149.308c0-11.812 9.562-21.376 21.342-21.376s21.312 9.562 21.312 21.376v149.308a21.296 21.296 0 0 1-21.312 21.312zM746.652 917.304a21.3 21.3 0 0 1-21.312-21.312v-149.308c0-11.812 9.532-21.376 21.312-21.376 11.778 0 21.34 9.562 21.34 21.376v149.308c0 11.782-9.562 21.312-21.34 21.312z" fill="#AAB2BC" /><path d="M149.35 1023.992c-11.782 0-21.344-9.562-21.344-21.312V490.672c0-11.782 9.562-21.344 21.344-21.344s21.312 9.562 21.312 21.344V1002.68c0 11.75-9.532 21.312-21.312 21.312zM874.648 1023.992c-11.782 0-21.312-9.562-21.312-21.312V490.672c0-11.782 9.532-21.344 21.312-21.344s21.344 9.562 21.344 21.344V1002.68c0 11.75-9.562 21.312-21.344 21.312z" fill="#CCD1D9" /><path d="M192.004 1023.992h-85.34c-11.782 0-21.312-9.562-21.312-21.312 0-11.812 9.532-21.376 21.312-21.376h85.34c11.782 0 21.344 9.562 21.344 21.376 0 11.75-9.562 21.312-21.344 21.312zM917.336 1023.992h-85.344c-11.782 0-21.344-9.562-21.344-21.312 0-11.812 9.562-21.376 21.344-21.376h85.344c11.782 0 21.312 9.562 21.312 21.376 0 11.75-9.53 21.312-21.312 21.312z" fill="#E6E9ED" /><path d="M810.68 341.348c-1.376 0-2.782-0.14-4.218-0.422-11.532-2.312-19.032-13.546-16.718-25.11L832.4 102.492c2.312-11.562 13.562-19.046 25.124-16.734 11.532 2.312 19.032 13.546 16.718 25.094l-42.656 213.34c-2.032 10.14-10.938 17.156-20.906 17.156z" fill="#434A54" /><path d="M703.996 0.008H320.002c-35.282 0-64 28.704-64 64v85.326c0 35.296 28.718 64 64 64h383.994c35.282 0 63.996-28.704 63.996-64V64.008c0-35.296-28.714-64-63.996-64z" fill="#FFD2A6" /><path d="M362.658 106.68c0 11.78-9.532 21.328-21.312 21.328-11.78 0-21.342-9.546-21.342-21.328s9.562-21.344 21.342-21.344 21.312 9.562 21.312 21.344z" fill="#434A54" /><path d="M874.648 767.996H149.35c-11.782 0-21.344-9.562-21.344-21.312V490.672c0-11.782 9.562-21.344 21.344-21.344h725.298c11.782 0 21.344 9.562 21.344 21.344v256.01c0 11.752-9.562 21.314-21.344 21.314z" fill="#965353" /><path d="M703.996 106.68c0 11.78-9.562 21.328-21.344 21.328S661.34 118.46 661.34 106.68c0-11.782 9.532-21.344 21.312-21.344s21.344 9.562 21.344 21.344z" fill="#434A54" /><path d="M192.004 277.332c-23.56 0-42.654 19.11-42.654 42.672s19.094 42.672 42.654 42.672H448v-85.344H192.004z" fill="#E6E9ED" /><path d="M426.656 298.676c-11.78 0-21.312 9.546-21.312 21.328s9.532 21.328 21.312 21.328H448v-42.656h-21.344z" fill="#CCD1D9" /><path d="M853.336 213.334h-85.344c-11.782 0-21.34 9.562-21.34 21.342v128c0 11.782 9.558 21.328 21.34 21.328h85.344c11.782 0 21.312-9.546 21.312-21.328v-128c0-11.78-9.53-21.342-21.312-21.342z" fill="#ED5564" /><path d="M405.344 640H128.006v42.688h277.338c11.782 0 21.312-9.562 21.312-21.376 0-11.75-9.53-21.312-21.312-21.312zM554.656 490.672c0 29.514 13.376 85.328 64 85.328h277.336v-42.672H618.656c-3.594 0-11.062 0-16.844-16.704-4.344-12.514-4.468-25.89-4.468-25.952 0-11.782-9.562-21.344-21.344-21.344s-21.344 9.564-21.344 21.344zM895.992 640h-106.656c-11.782 0-21.344 9.562-21.344 21.312 0 11.812 9.562 21.376 21.344 21.376h106.656V640z" fill="#7F4545" /><path d="M917.336 384.002H106.664c-11.782 0-21.312 9.546-21.312 21.328v85.342c0 11.782 9.532 21.328 21.312 21.328h810.672c11.782 0 21.312-9.546 21.312-21.328v-85.342c0-11.78-9.53-21.328-21.312-21.328z" fill="#A85D5D" /><path d="M469.344 341.332H192.004c-11.75 0-21.342-9.562-21.342-21.328s9.592-21.328 21.342-21.328H469.344c11.782 0 21.312-9.562 21.312-21.344 0-11.78-9.532-21.328-21.312-21.328H192.004c-35.28 0-63.998 28.702-63.998 64s28.718 64 63.998 64H469.344c11.782 0 21.312-9.546 21.312-21.328s-9.532-21.344-21.312-21.344z" fill="#5D9CEC" /></svg>