<?xml version="1.0" standalone="no"?><!DOCTYPE svg PUBLIC "-//W3C//DTD SVG 1.1//EN" "http://www.w3.org/Graphics/SVG/1.1/DTD/svg11.dtd"><svg class="icon" width="128px" height="128.00px" viewBox="0 0 1024 1024" version="1.1" xmlns="http://www.w3.org/2000/svg"><path d="M359.972 1002.68c0 11.718-9.594 21.312-21.342 21.312H77.226c-11.718 0-21.312-9.594-21.312-21.312V21.352c0-11.75 9.594-21.344 21.312-21.344h261.402c11.75 0 21.342 9.594 21.342 21.344V1002.68z" fill="#ED5564" /><path d="M141.226 576a21.3 21.3 0 0 1-21.312-21.312v-85.342c0-11.782 9.532-21.344 21.312-21.344 11.812 0 21.344 9.562 21.344 21.344v85.342c0 11.78-9.532 21.312-21.344 21.312z" fill="#E6E9ED" /><path d="M183.912 682.688c0 23.558-19.092 42.652-42.686 42.652-23.562 0-42.656-19.094-42.656-42.652 0-23.562 19.092-42.688 42.656-42.688 23.594 0 42.686 19.124 42.686 42.688z" fill="#FFCE54" /><path d="M141.226 661.344c-11.782 0-21.312-9.532-21.312-21.344v-21.312c0-11.782 9.532-21.344 21.312-21.344 11.812 0 21.344 9.562 21.344 21.344V640a21.314 21.314 0 0 1-21.344 21.344z" fill="#434A54" /><path d="M141.226 746.684c-35.28 0-64-28.718-64-63.996 0-35.282 28.718-64 64-64 35.312 0 63.998 28.718 63.998 64 0 35.276-28.686 63.996-63.998 63.996z m0-85.34c-11.75 0-21.312 9.562-21.312 21.344 0 11.746 9.562 21.308 21.312 21.308 11.782 0 21.344-9.562 21.344-21.308 0-11.782-9.564-21.344-21.344-21.344z" fill="#656D78" /><path d="M271.942 149.35H143.944c-11.782 0-21.344-9.562-21.344-21.344s9.562-21.312 21.344-21.312h127.998c11.782 0 21.344 9.53 21.344 21.312s-9.564 21.344-21.344 21.344zM271.942 213.35H143.944c-11.782 0-21.344-9.562-21.344-21.344s9.562-21.312 21.344-21.312h127.998c11.782 0 21.344 9.53 21.344 21.312s-9.564 21.344-21.344 21.344zM271.942 277.348H143.944c-11.782 0-21.344-9.562-21.344-21.342s9.562-21.312 21.344-21.312h127.998c11.782 0 21.344 9.532 21.344 21.312s-9.564 21.342-21.344 21.342zM165.85 938.68c0 11.782-9.562 21.312-21.344 21.312s-21.344-9.532-21.344-21.312 9.562-21.344 21.344-21.344 21.344 9.562 21.344 21.344zM229.848 938.68c0 11.782-9.562 21.312-21.344 21.312s-21.342-9.532-21.342-21.312 9.562-21.344 21.342-21.344 21.344 9.562 21.344 21.344zM293.848 938.68c0 11.782-9.562 21.312-21.344 21.312-11.78 0-21.342-9.532-21.342-21.312s9.562-21.344 21.342-21.344c11.782 0 21.344 9.562 21.344 21.344z" fill="#DA4453" /><path d="M664.03 1002.68c0 11.718-9.594 21.312-21.31 21.312H381.316c-11.75 0-21.344-9.594-21.344-21.312V21.352c0-11.75 9.594-21.344 21.344-21.344H642.72c11.716 0 21.31 9.594 21.31 21.344V1002.68z" fill="#5D9CEC" /><path d="M445.314 576c-11.782 0-21.344-9.532-21.344-21.312v-85.342c0-11.782 9.562-21.344 21.344-21.344s21.312 9.562 21.312 21.344v85.342A21.3 21.3 0 0 1 445.314 576z" fill="#E6E9ED" /><path d="M487.97 682.688c0 23.558-19.094 42.652-42.656 42.652s-42.686-19.094-42.686-42.652c0-23.562 19.124-42.688 42.686-42.688s42.656 19.124 42.656 42.688z" fill="#FFCE54" /><path d="M445.314 661.344c-11.782 0-21.344-9.532-21.344-21.344v-21.312c0-11.782 9.562-21.344 21.344-21.344s21.312 9.562 21.312 21.344V640c0 11.812-9.532 21.344-21.312 21.344z" fill="#434A54" /><path d="M445.314 746.684c-35.312 0-63.998-28.718-63.998-63.996 0-35.282 28.686-64 63.998-64 35.282 0 64 28.718 64 64-0.002 35.276-28.72 63.996-64 63.996z m0-85.34c-11.782 0-21.344 9.562-21.344 21.344 0 11.746 9.562 21.308 21.344 21.308 11.75 0 21.312-9.562 21.312-21.308 0-11.782-9.562-21.344-21.312-21.344z" fill="#656D78" /><path d="M576 149.35h-128c-11.782 0-21.344-9.562-21.344-21.344S436.22 106.696 448 106.696h128c11.782 0 21.344 9.53 21.344 21.312S587.782 149.35 576 149.35zM576 213.35h-128c-11.782 0-21.344-9.562-21.344-21.344S436.22 170.694 448 170.694h128c11.782 0 21.344 9.53 21.344 21.312s-9.562 21.344-21.344 21.344zM576 277.348h-128c-11.782 0-21.344-9.562-21.344-21.342s9.562-21.312 21.344-21.312h128c11.782 0 21.344 9.532 21.344 21.312s-9.562 21.342-21.344 21.342zM469.908 938.68c0 11.782-9.562 21.312-21.344 21.312s-21.344-9.532-21.344-21.312 9.562-21.344 21.344-21.344 21.344 9.562 21.344 21.344zM533.906 938.68c0 11.782-9.562 21.312-21.344 21.312s-21.342-9.532-21.342-21.312 9.562-21.344 21.342-21.344 21.344 9.562 21.344 21.344zM597.906 938.68c0 11.782-9.562 21.312-21.344 21.312s-21.344-9.532-21.344-21.312 9.562-21.344 21.344-21.344 21.344 9.562 21.344 21.344z" fill="#4A89DC" /><path d="M968.086 1002.68c0 11.718-9.594 21.312-21.31 21.312H685.374c-11.75 0-21.344-9.594-21.344-21.312V21.352c0-11.75 9.594-21.344 21.344-21.344h261.402c11.716 0 21.31 9.594 21.31 21.344V1002.68z" fill="#ED5564" /><path d="M749.372 576c-11.782 0-21.344-9.532-21.344-21.312v-85.342c0-11.782 9.562-21.344 21.344-21.344 11.78 0 21.342 9.562 21.342 21.344v85.342c-0.002 11.78-9.564 21.312-21.342 21.312z" fill="#E6E9ED" /><path d="M792.026 682.688c0 23.558-19.094 42.652-42.654 42.652-23.562 0-42.654-19.094-42.654-42.652 0-23.562 19.092-42.688 42.654-42.688 23.56 0 42.654 19.124 42.654 42.688z" fill="#FFCE54" /><path d="M749.372 661.344c-11.782 0-21.344-9.532-21.344-21.344v-21.312c0-11.782 9.562-21.344 21.344-21.344 11.78 0 21.342 9.562 21.342 21.344V640a21.334 21.334 0 0 1-21.342 21.344z" fill="#434A54" /><path d="M749.372 746.684c-35.28 0-63.998-28.718-63.998-63.996 0-35.282 28.718-64 63.998-64s63.998 28.718 63.998 64c0 35.276-28.72 63.996-63.998 63.996z m0-85.34c-11.782 0-21.344 9.562-21.344 21.344 0 11.746 9.562 21.308 21.344 21.308 11.748 0 21.342-9.562 21.342-21.308-0.002-11.782-9.594-21.344-21.342-21.344z" fill="#656D78" /><path d="M880.056 149.35h-128c-11.78 0-21.31-9.562-21.31-21.344s9.532-21.312 21.31-21.312h128c11.782 0 21.344 9.53 21.344 21.312s-9.562 21.344-21.344 21.344zM880.056 213.35h-128c-11.78 0-21.31-9.562-21.31-21.344s9.532-21.312 21.31-21.312h128c11.782 0 21.344 9.53 21.344 21.312s-9.562 21.344-21.344 21.344zM880.056 277.348h-128c-11.78 0-21.31-9.562-21.31-21.342s9.532-21.312 21.31-21.312h128c11.782 0 21.344 9.532 21.344 21.312s-9.562 21.342-21.344 21.342zM773.962 938.68c0 11.782-9.562 21.312-21.344 21.312-11.78 0-21.31-9.532-21.31-21.312s9.532-21.344 21.31-21.344c11.782 0 21.344 9.562 21.344 21.344zM837.962 938.68c0 11.782-9.562 21.312-21.344 21.312s-21.312-9.532-21.312-21.312 9.532-21.344 21.312-21.344 21.344 9.562 21.344 21.344zM901.962 938.68c0 11.782-9.562 21.312-21.344 21.312s-21.312-9.532-21.312-21.312 9.532-21.344 21.312-21.344 21.344 9.562 21.344 21.344z" fill="#DA4453" /></svg>