<?xml version="1.0" standalone="no"?><!DOCTYPE svg PUBLIC "-//W3C//DTD SVG 1.1//EN" "http://www.w3.org/Graphics/SVG/1.1/DTD/svg11.dtd"><svg class="icon" width="128px" height="128.00px" viewBox="0 0 1024 1024" version="1.1" xmlns="http://www.w3.org/2000/svg"><path d="M512 0.008c-24.124 27-80.124 611.178-177.122 704.144a147.05 147.05 0 0 1 6.438-0.156c78.312 0 142.748 60.562 148.874 137.31 2.312-11.688 4.562-26.624 6.718-45.876 3.968-35.124 7.28-81.436 9.874-137.654 4.406-95.342 5.218-187.824 5.218-188.746l5.188 188.746c2.624 56.218 5.938 102.532 9.876 137.654 2.188 19.312 4.438 34.25 6.75 45.938 6.094-76.748 70.532-137.374 148.872-137.374 2.124 0 4.282 0.062 6.438 0.124C592.094 611.186 536.124 27.008 512 0.008z" fill="#F6BB42" /><path d="M583.718 383.518h-143.468c-8.53 44.092-17.78 87.638-27.75 127.998h198.966c-9.966-40.36-19.216-83.906-27.748-127.998z" fill="#FFCE54" /><path d="M533.312 447.516c0 11.782-9.532 21.344-21.312 21.344-11.812 0-21.342-9.562-21.342-21.344s9.53-21.328 21.342-21.328c11.782 0 21.312 9.546 21.312 21.328z" fill="#434A54" /><path d="M682.684 682.684c-94.246 0-170.652 76.376-170.684 170.59-0.032-94.214-76.436-170.59-170.684-170.59-94.248 0-170.622 76.376-170.622 170.622 0 94.282 76.374 170.688 170.622 170.688 94.25 0 170.654-76.376 170.684-170.624 0.032 94.25 76.438 170.624 170.684 170.624 94.25 0 170.624-76.406 170.624-170.688-0.002-94.248-76.374-170.622-170.624-170.622z m-341.368 298.62c-70.562 0-127.998-57.406-127.998-128 0-70.558 57.436-127.996 127.998-127.996 70.592 0 127.998 57.438 127.998 127.996 0 70.594-57.406 128-127.998 128z m341.368 0c-70.59 0-127.996-57.406-127.996-128 0-70.558 57.406-127.996 127.996-127.996 70.562 0 128 57.438 128 127.996 0 70.594-57.438 128-128 128z" fill="#FFCE54" /></svg>