<?xml version="1.0" standalone="no"?><!DOCTYPE svg PUBLIC "-//W3C//DTD SVG 1.1//EN" "http://www.w3.org/Graphics/SVG/1.1/DTD/svg11.dtd"><svg class="icon" width="128px" height="128.00px" viewBox="0 0 1024 1024" version="1.1" xmlns="http://www.w3.org/2000/svg"><path d="M696.496 716.026c-1.624 0.594-316.088 8.124-316.088 8.124l-35.5 23.654 42.656 64a21.35 21.35 0 0 0 17.75 9.5c130.374 0 299.056-62.688 306.15-65.344l-14.968-39.934z" fill="#A0D468" /><path d="M192.006 458.67H21.322c-11.782 0-21.312 9.546-21.312 21.328v85.31c0 11.782 9.532 21.344 21.312 21.344h170.684c11.782 0 21.312-9.562 21.312-21.344v-85.31c0-11.782-9.53-21.328-21.312-21.328z" fill="#E6E9ED" /><path d="M744.246 714.588c0.624 0.032 1.062 0.062 1.218 0.062l1.5-42.656c-0.562 0-54.312-1.906-111.938-8.062-105.59-11.218-126.872-26.218-130.058-29.094-14.906-13.5-30.186-45.28-18.218-119.964 7.782-48.532 23.688-90.89 23.844-91.312a21.3 21.3 0 0 0-2.376-19.67 21.352 21.352 0 0 0-17.562-9.218H234.662c-8.342 0-15.906 4.86-19.374 12.422l-44.092 95.998 38.78 17.812 88.686 193.746v42.654h447.554v-42.654h-1.968v-0.064z" fill="#E6E9ED" /><path d="M192.006 607.996c-70.592 0-127.998 57.404-127.998 127.996 0 70.562 57.406 127.998 127.998 127.998 70.562 0 127.998-57.436 127.998-127.998 0-70.592-57.436-127.996-127.998-127.996z" fill="#434A54" /><path d="M207.068 751.086c-8.312 8.312-21.844 8.312-30.156 0a21.33 21.33 0 0 1 0-30.186c8.312-8.344 21.842-8.344 30.156 0a21.33 21.33 0 0 1 0 30.186z" fill="#F5F7FA" /><path d="M895.992 607.996c-70.592 0-127.996 57.404-127.996 127.996 0 70.562 57.404 127.998 127.996 127.998 70.562 0 127.998-57.436 127.998-127.998 0-70.592-57.436-127.996-127.998-127.996z" fill="#434A54" /><path d="M703.996 274.674c0.532 2.11 53.968 213.636 72.968 439.976l78.496-133.092-66.154-314.884-85.31 8z" fill="#E6E9ED" /><path d="M895.96 757.336a21.328 21.328 0 0 1-20.876-17.094l-21.344-104.53c-2.344-11.532 5.094-22.81 16.624-25.154 11.562-2.376 22.812 5.092 25.188 16.624l21.344 104.53c2.344 11.562-5.124 22.812-16.656 25.188-1.436 0.28-2.872 0.436-4.28 0.436z" fill="#F5F7FA" /><path d="M876.46 310.284l-23.468-132.654c-1.906-10.782-11.688-18.36-22.56-17.562-1.438 0.094-35.718 2.734-70.404 16.64-63.938 25.656-77.376 67.436-77.376 97.966 0 26.454 11.438 46.984 33.124 59.374 15.25 8.718 35.562 13.156 60.438 13.156h0.032c41.592 0 83.464-12.218 85.246-12.734 10.406-3.078 16.844-13.484 14.968-24.186z" fill="#A0D468" /><path d="M320.004 629.306c-35.312 0-64 28.718-64 64 0 35.312 28.686 63.998 64 63.998 35.28 0 63.998-28.686 63.998-63.998 0-35.28-28.718-64-63.998-64z" fill="#CCD1D9" /><path d="M533.312 437.328H192.006c-11.782 0-21.342-9.546-21.342-21.328v-21.328c0-11.782 9.562-21.344 21.342-21.344h341.306c11.782 0 21.344 9.562 21.344 21.344V416c0 11.78-9.562 21.328-21.344 21.328z" fill="#434A54" /><path d="M661.34 330.672a21.376 21.376 0 0 1-19.124-11.828c-5.25-10.546-0.938-23.358 9.594-28.608l85.718-42.672c10.562-5.234 23.344-0.954 28.594 9.594s0.968 23.36-9.594 28.61l-85.688 42.67a21.376 21.376 0 0 1-9.5 2.234z" fill="#E6E9ED" /><path d="M21.322 586.652h42.686v-127.982H21.322c-11.782 0-21.312 9.546-21.312 21.328v85.31c0 11.782 9.532 21.344 21.312 21.344z" fill="#ED5564" /><path d="M1021.896 641.432c-1.688-3.5-42.216-85.904-131.81-85.904-17.124 0-34.938 3.124-53.032 9.312-65.152 22.25-92.122 68.404-103.278 103.216-11.844 36.968-8.468 68.936-8.344 70.28a21.378 21.378 0 0 0 21.218 18.968c4.75 0 9.468-1.594 13.312-4.656 0.532-0.438 53.624-42.466 128.464-71.31 25.718-9.938 54.594-12 74.282-12 21.218 0 36.436 2.376 36.56 2.376a21.382 21.382 0 0 0 20.468-8.282 21.408 21.408 0 0 0 2.16-22zM426.502 669.338c-0.25-1.876-6.062-46.812-28.782-92.216-31.75-63.53-80.78-97.108-141.716-97.108-56.78 0-105.56 9.688-144.966 28.796-32.594 15.796-58.812 37.904-77.968 65.78C0.384 622.15 0.008 669.964 0.008 671.994a21.3 21.3 0 0 0 21.312 21.312h383.992c6.124 0 11.968-2.624 16-7.188a21.374 21.374 0 0 0 5.19-16.78z" fill="#A0D468" /></svg>