<?xml version="1.0" standalone="no"?><!DOCTYPE svg PUBLIC "-//W3C//DTD SVG 1.1//EN" "http://www.w3.org/Graphics/SVG/1.1/DTD/svg11.dtd"><svg class="icon" width="128px" height="128.00px" viewBox="0 0 1024 1024" version="1.1" xmlns="http://www.w3.org/2000/svg"><path d="M1017.76 872.07l-60.312-60.312v-0.032c-8.312-8.312-21.876-8.312-30.188 0-8.312 8.344-8.312 21.844 0 30.188l23.938 23.906h-183.188c-11.75 0-21.312-9.562-21.312-21.312V77.164c0-11.782-9.562-22-21.312-22-138.562 0-258.938 77.718-320 191.906V77.164c0-11.782-9.562-22-21.376-22-138.5 0-258.938 77.718-320 191.906V119.164c0-23.688-12.812-44.344-31.938-55.406-3.124-1.812-6.812-2.812-10.688-2.812-11.812 0-21.376 9.562-21.376 21.344 0 8.188 4.688 15.312 11.438 18.876 5.938 3.782 9.938 10.438 9.938 18v703.998c0 11.782 9.562 21.344 21.312 21.344 11.812 0 21.312-9.562 21.312-21.344V417.82c0-43.218 8.5-85.094 25.124-124.532 16.124-38.094 39.25-72.312 68.624-101.718s63.624-52.5 101.75-68.594c32.876-13.938 67.5-22.094 103.188-24.438v724.626c0 11.782 9.562 21.344 21.312 21.344 11.812 0 21.376-9.562 21.376-21.344V417.82c0-43.218 8.438-85.094 25.124-124.532 16.124-38.094 39.188-72.312 68.562-101.718 29.438-29.406 63.624-52.5 101.75-68.594 32.876-13.938 67.562-22.094 103.188-24.438v745.968c0 35.344 28.688 64 64 64h183.188l-23.938 23.906c-8.312 8.344-8.312 21.844 0 30.188 8.376 8.312 21.876 8.312 30.188 0l60.312-60.344a21.268 21.268 0 0 0 0.004-30.186z" fill="#48CFAD" /></svg>