<?xml version="1.0" standalone="no"?><!DOCTYPE svg PUBLIC "-//W3C//DTD SVG 1.1//EN" "http://www.w3.org/Graphics/SVG/1.1/DTD/svg11.dtd"><svg class="icon" width="128px" height="128.00px" viewBox="0 0 1024 1024" version="1.1" xmlns="http://www.w3.org/2000/svg"><path d="M575.998 959.982H21.346c-11.782 0-21.328-9.562-21.328-21.312 0-11.812 9.546-21.374 21.328-21.374h554.652c11.782 0 21.31 9.56 21.31 21.374 0 11.75-9.528 21.312-21.31 21.312z" fill="#4A89DC" /><path d="M892.766 195.23c-84.588-84.622-197.086-131.212-316.768-131.212-119.668 0-232.164 46.592-316.77 131.212C174.606 279.836 128.014 392.332 128.014 512c0 119.682 46.592 232.178 131.214 316.77 84.606 84.622 197.102 131.212 316.77 131.212 119.682 0 232.18-46.592 316.768-131.212C977.388 744.178 1023.98 631.682 1023.98 512c0-119.668-46.592-232.164-131.214-316.77zM575.998 618.684c-58.904 0-106.668-47.78-106.668-106.684s47.764-106.668 106.668-106.668c58.902 0 106.684 47.764 106.684 106.668s-47.782 106.684-106.684 106.684z" fill="#5D9CEC" /><path d="M892.766 195.23c-84.588-84.622-197.086-131.212-316.768-131.212-7.124 0-14.25 0.172-21.31 0.5 111.62 5.204 215.866 51.138 295.426 130.712 84.622 84.606 131.182 197.102 131.182 316.77 0 119.682-46.56 232.178-131.182 316.77-79.56 79.59-183.806 125.526-295.426 130.712 7.06 0.312 14.186 0.5 21.31 0.5 119.682 0 232.18-46.592 316.768-131.212C977.388 744.178 1023.98 631.682 1023.98 512c0-119.668-46.592-232.164-131.214-316.77z" fill="#FFFFFF" opacity=".2" /><path d="M575.998 320.008c-106.028 0-191.994 85.964-191.994 191.992 0 106.058 85.964 191.992 191.994 191.992 106.028 0 191.992-85.934 191.992-191.992 0-106.028-85.964-191.992-191.992-191.992z m0 298.676c-58.904 0-106.668-47.78-106.668-106.684s47.764-106.668 106.668-106.668c58.902 0 106.684 47.764 106.684 106.668s-47.782 106.684-106.684 106.684z" fill="#CCD1D9" /><path d="M575.998 639.994c-70.576 0-127.996-57.434-127.996-127.994 0-70.574 57.418-127.996 127.996-127.996 70.558 0 127.994 57.422 127.994 127.996 0 70.56-57.436 127.994-127.994 127.994z m0-213.318c-47.044 0-85.326 38.28-85.326 85.324 0 47.06 38.28 85.308 85.326 85.308 47.06 0 85.308-38.248 85.308-85.308 0-47.044-38.248-85.324-85.308-85.324z" fill="#E6E9ED" /><path d="M575.998 298.68c-11.782 0-21.31 9.546-21.31 21.328v21.326c0 11.782 9.53 21.344 21.31 21.344s21.31-9.562 21.31-21.344v-21.326c0-11.782-9.528-21.328-21.31-21.328zM575.998 661.304c-11.782 0-21.31 9.562-21.31 21.376v21.312c0 11.782 9.53 21.31 21.31 21.31s21.31-9.53 21.31-21.31V682.68c0-11.812-9.528-21.376-21.31-21.376zM472.188 374.866a21.332 21.332 0 0 0 29.14 7.812c10.204-5.89 13.704-18.938 7.812-29.14l-10.672-18.468c-5.89-10.202-18.936-13.702-29.14-7.81-10.202 5.89-13.686 18.936-7.796 29.138l10.656 18.468zM679.806 649.118c-5.876-10.186-18.938-13.686-29.124-7.81-10.218 5.904-13.718 18.936-7.812 29.154l10.656 18.468a21.318 21.318 0 0 0 18.468 10.688c3.624 0 7.312-0.938 10.688-2.876 10.186-5.876 13.686-18.938 7.782-29.124l-10.658-18.5zM399.066 434.472l18.468 10.672a21.334 21.334 0 0 0 29.14-7.812c5.89-10.204 2.39-23.25-7.812-29.14l-18.468-10.656c-10.204-5.89-23.25-2.406-29.14 7.796-5.89 10.204-2.39 23.25 7.812 29.14zM752.928 589.53l-18.468-10.656c-10.218-5.906-23.248-2.406-29.154 7.812-5.876 10.188-2.376 23.248 7.812 29.124l18.498 10.654c3.344 1.968 7 2.876 10.624 2.876 7.376 0 14.562-3.844 18.5-10.654 5.876-10.222 2.376-23.25-7.812-29.156zM426.676 512c0-11.782-9.562-21.328-21.344-21.328h-21.328c-11.782 0-21.328 9.546-21.328 21.328 0 11.78 9.546 21.326 21.328 21.326h21.328c11.782 0 21.344-9.546 21.344-21.326zM767.99 490.672h-21.312c-11.812 0-21.376 9.546-21.376 21.328 0 11.78 9.562 21.326 21.376 21.326h21.312c11.782 0 21.312-9.546 21.312-21.326 0-11.782-9.53-21.328-21.312-21.328zM417.536 578.874l-18.468 10.656c-10.202 5.906-13.702 18.936-7.812 29.154a21.386 21.386 0 0 0 18.5 10.654c3.61 0 7.282-0.906 10.64-2.876l18.468-10.654c10.218-5.876 13.702-18.936 7.812-29.124-5.892-10.218-18.938-13.718-29.14-7.81zM723.802 448.004c3.624 0 7.312-0.922 10.656-2.86l18.468-10.672c10.188-5.89 13.688-18.938 7.812-29.14s-18.938-13.688-29.124-7.796l-18.498 10.656c-10.188 5.89-13.688 18.938-7.812 29.14a21.354 21.354 0 0 0 18.498 10.672zM501.328 641.306c-10.186-5.876-23.25-2.376-29.14 7.81l-10.656 18.5c-5.89 10.188-2.39 23.25 7.796 29.124a21.334 21.334 0 0 0 10.656 2.876c7.376 0 14.546-3.844 18.5-10.688l10.656-18.468a21.334 21.334 0 0 0-7.812-29.154zM682.682 327.258c-10.218-5.89-23.25-2.39-29.156 7.81l-10.656 18.468c-5.906 10.204-2.406 23.25 7.812 29.14 3.344 1.936 7 2.858 10.624 2.858 7.376 0 14.562-3.826 18.5-10.67l10.688-18.468c5.874-10.202 2.374-23.248-7.812-29.138z" fill="#E6E9ED" /><path d="M575.998 213.34c5.438 0 10.938-2.078 15.062-6.25a21.238 21.238 0 0 0 0-30.154c-5.25-5.266-12.532-7.188-19.312-5.828-89.482 1.094-173.448 36.42-236.834 99.806-63.388 63.404-98.716 147.356-99.81 236.852-1.36 6.766 0.578 14.06 5.828 19.31 8.328 8.344 21.828 8.344 30.17 0a21.268 21.268 0 0 0 6.234-15.076h0.39c0-79.668 31.014-154.572 87.356-210.914 56.342-56.342 131.246-87.356 210.916-87.356v-0.39zM916.922 512c0-5.454-2.062-10.922-6.25-15.078-8.312-8.344-21.812-8.344-30.156 0a21.36 21.36 0 0 0-6.25 15.11c0 79.654-31.028 154.554-87.338 210.896-56.376 56.312-131.246 87.342-210.93 87.342a21.222 21.222 0 0 0-15.062 6.25c-8.374 8.344-8.374 21.844 0 30.154 4.124 4.188 9.624 6.25 15.062 6.25 91.058 0 176.68-35.436 241.086-99.84 64.4-64.404 99.838-150.026 99.838-241.084z" fill="#4A89DC" /><path d="M575.998 725.302c-117.636 0-213.322-95.684-213.322-213.302 0-117.636 95.684-213.32 213.322-213.32 117.62 0 213.304 95.684 213.304 213.32 0 117.62-95.684 213.302-213.304 213.302z m0-383.968c-94.106 0-170.666 76.56-170.666 170.666 0 94.122 76.56 170.68 170.666 170.68 94.122 0 170.68-76.558 170.68-170.68 0-94.106-76.558-170.666-170.68-170.666z" fill="#E6E9ED" /></svg>