<?xml version="1.0" standalone="no"?><!DOCTYPE svg PUBLIC "-//W3C//DTD SVG 1.1//EN" "http://www.w3.org/Graphics/SVG/1.1/DTD/svg11.dtd"><svg class="icon" width="128px" height="128.00px" viewBox="0 0 1024 1024" version="1.1" xmlns="http://www.w3.org/2000/svg"><path d="M600.472 604.528l-45.246 45.25-180.996-180.998 45.248-45.248 105.576 15.078 60.326 60.342z" fill="#D94452" /><path d="M434.602 529.058l15.094-15.078c8.328-8.326 8.328-21.826 0-30.154-8.344-8.344-21.842-8.344-30.17 0l-15.078 15.078-0.046 0.046 30.156 30.154 0.044-0.046zM479.852 574.308l15.078-15.062a21.332 21.332 0 0 0 0-30.188c-8.328-8.328-21.828-8.328-30.156 0l-15.078 15.094c-0.016 0.032-0.032 0.032-0.046 0.032l30.156 30.188c0.014-0.032 0.03-0.064 0.046-0.064zM540.18 574.308c-8.328-8.312-21.828-8.312-30.156 0l-15.094 15.094c-0.016 0.032-0.016 0.032-0.032 0.032l30.156 30.188 0.046-0.062 15.078-15.062c8.33-8.346 8.33-21.846 0.002-30.19z" fill="#EC5564" /><path d="M494.882 589.434L196.094 888.238l-30.172 60.34-105.574 75.406L0.022 963.672l75.404-105.59 60.326-30.156 298.804-298.82z" fill="#E6E9ED" /><path d="M1017.744 157.086c8.312 8.344 8.312 21.842 0 30.17l-372.022 372.02c-8.344 8.344-21.844 8.344-30.156 0l-150.838-150.824c-8.328-8.328-8.328-21.844 0-30.17l372.02-372.02c8.312-8.328 21.812-8.328 30.188 0l150.808 150.824z" fill="#EC5564" /><path d="M600.472 423.532c-8.342-8.328-8.342-21.828 0-30.172L866.936 126.93c8.312-8.328 21.812-8.328 30.124 0a21.236 21.236 0 0 1 0 30.156L630.628 423.532c-8.312 8.328-21.812 8.328-30.156 0zM540.148 333.036L806.56 66.588a21.236 21.236 0 0 0 0-30.156L509.976 333.036c8.328 8.328 21.828 8.328 30.172 0zM957.4 217.428L690.972 483.858c-8.344 8.344-8.344 21.844 0 30.168l296.584-296.6c-8.312-8.342-21.812-8.342-30.156 0.002z" fill="#D94452" /><path d="M75.426 858.082L0.022 963.672l60.326 60.312 105.574-75.406 29.922-59.84-60.592-60.562z" fill="#CCD1D9" /><path d="M95.536 998.86l-70.39-70.372L0.022 963.672l60.326 60.312z" fill="#424953" /></svg>