<?xml version="1.0" standalone="no"?><!DOCTYPE svg PUBLIC "-//W3C//DTD SVG 1.1//EN" "http://www.w3.org/Graphics/SVG/1.1/DTD/svg11.dtd"><svg class="icon" width="128px" height="128.00px" viewBox="0 0 1024 1024" version="1.1" xmlns="http://www.w3.org/2000/svg"><path d="M874.656 1024H149.344V426.672h21.312v-42.61L149.344 384V170.672l128-128h597.312v298.656h-21.312v128h21.312z" fill="#4A89DC" /><path d="M874.656 384c0 11.782-9.532 21.328-21.312 21.328S832 395.782 832 384s9.562-21.328 21.344-21.328 21.312 9.546 21.312 21.328z" fill="#CCD1D9" /><path d="M874.656 981.312H149.344v-554.64h21.312v-42.61L149.344 384V128l128-128h597.312v341.328h-21.312v128h21.312z" fill="#5D9CEC" /><path d="M256 128c-11.782 0-21.344 9.546-21.344 21.328v128c0 11.782 9.562 21.344 21.344 21.344s21.344-9.562 21.344-21.344v-128C277.344 137.546 267.782 128 256 128zM341.344 85.328c-11.782 0-21.344 9.562-21.344 21.344v128c0 11.782 9.562 21.328 21.344 21.328s21.312-9.546 21.312-21.328v-128c0-11.782-9.532-21.344-21.312-21.344zM426.656 85.328c-11.782 0-21.312 9.562-21.312 21.344v128c0 11.782 9.532 21.328 21.312 21.328S448 246.454 448 234.672v-128c0-11.782-9.562-21.344-21.344-21.344zM512 85.328c-11.782 0-21.344 9.562-21.344 21.344v128c0 11.782 9.562 21.328 21.344 21.328s21.344-9.546 21.344-21.328v-128c0-11.782-9.562-21.344-21.344-21.344zM597.344 85.328c-11.782 0-21.344 9.562-21.344 21.344v128c0 11.782 9.562 21.328 21.344 21.328s21.312-9.546 21.312-21.328v-128c0-11.782-9.532-21.344-21.312-21.344zM682.656 85.328c-11.782 0-21.312 9.562-21.312 21.344v128c0 11.782 9.532 21.328 21.312 21.328S704 246.454 704 234.672v-128c0-11.782-9.562-21.344-21.344-21.344zM768 85.328c-11.782 0-21.344 9.562-21.344 21.344v128c0 11.782 9.562 21.328 21.344 21.328s21.344-9.546 21.344-21.328v-128c0-11.782-9.562-21.344-21.344-21.344z" fill="#FFCE54" /><path d="M558.468 795.876c-34.032-9.624-52.25-10.812-52.25-25.656 0-12.218 10.312-19.406 27.562-19.406 19.906 0 30.906 8.876 32.376 25.376h35.468c-0.75-38.094-29.718-54.376-65.688-54.376-39.782 0-65.656 20.124-65.656 51.032 0 34.75 26.594 41.718 54.406 49.594 35.218 10.062 46.718 12.5 46.718 25.906 0 14.156-11.968 22.782-31.624 22.782-22.782 0-37.876-9.124-38.594-32.124h-37.124c0.468 38.562 27.782 60.876 74.032 60.876 34.75 0 70.218-14.876 70.218-55.124 0-28.538-19.406-40.256-49.844-48.88zM706.656 725.376h-69.032v170.656h69.032c52.968 0 82.688-30.438 82.688-85.312 0-55.126-29.72-85.344-82.688-85.344z m-4.562 139.5h-27.312v-108.312h27.312c33.782 0 49.624 19.876 49.624 54.156s-15.342 54.156-49.624 54.156z" fill="#4A89DC" /></svg>