<?xml version="1.0" standalone="no"?><!DOCTYPE svg PUBLIC "-//W3C//DTD SVG 1.1//EN" "http://www.w3.org/Graphics/SVG/1.1/DTD/svg11.dtd"><svg class="icon" width="128px" height="128.00px" viewBox="0 0 1024 1024" version="1.1" xmlns="http://www.w3.org/2000/svg"><path d="M0.016 554.654h1023.968v469.33H0.016z" fill="#4A89DC" /><path d="M192.012 448.002H64.016c-11.782 0-21.312 9.546-21.312 21.328 0 11.78 9.532 21.342 21.312 21.342h127.996c11.78 0 21.31-9.562 21.31-21.342 0-11.782-9.53-21.328-21.31-21.328zM959.986 448.002h-127.994c-11.782 0-21.312 9.546-21.312 21.328 0 11.78 9.532 21.328 21.312 21.328l127.994 0.016c11.782 0 21.312-9.562 21.312-21.342 0-11.784-9.53-21.33-21.312-21.33z" fill="#F6BB42" /><path d="M813.68 137.48l-90.5 90.498c-8.31 8.328-8.31 21.842 0 30.17 8.312 8.328 21.844 8.328 30.188 0l90.498-90.498c8.312-8.344 8.312-21.842 0-30.17-8.342-8.326-21.842-8.342-30.186 0z" fill="#FFCE54" /><path d="M490.688 21.344V149.34c0 11.78 9.532 21.342 21.312 21.342s21.312-9.562 21.312-21.342l0.032-127.996c0-11.782-9.562-21.328-21.344-21.328s-21.312 9.546-21.312 21.328z" fill="#F6BB42" /><path d="M180.136 167.652l90.496 90.498c8.344 8.328 21.876 8.328 30.188 0s8.312-21.828 0-30.17l-90.498-90.5c-8.344-8.328-21.842-8.342-30.186 0-8.312 8.328-8.312 21.828 0 30.172zM292.882 554.654c-10.626-27.124-16-55.78-16-85.326 0-129.636 105.496-235.102 235.118-235.102 129.624 0 235.118 105.464 235.118 235.102 0 29.546-5.376 58.202-16 85.326H292.882z" fill="#FFCE54" /><path d="M512 212.9c-141.622 0-256.43 114.808-256.43 256.428 0 38.062 8.312 74.186 23.188 106.668h466.484c14.876-32.482 23.188-68.608 23.188-106.668 0-141.62-114.808-256.428-256.43-256.428z m204.056 320.428H307.946c-6.438-20.578-9.718-42-9.718-64 0-57.092 22.248-110.778 62.622-151.152 40.376-40.374 94.06-62.608 151.152-62.608s110.78 22.234 151.152 62.608c40.374 40.374 62.622 94.06 62.622 151.152-0.002 22-3.284 43.422-9.72 64z" fill="#F6BB42" /><path d="M1002.672 533.328H21.328c-11.75 0-21.312 9.546-21.312 21.326 0 11.782 9.562 21.344 21.312 21.344h981.344c11.75 0 21.312-9.562 21.312-21.344 0-11.778-9.562-21.326-21.312-21.326zM21.36 703.994h85.342c11.75 0 21.31-9.562 21.31-21.312 0-11.812-9.56-21.376-21.31-21.376H21.36c-11.782 0-21.344 9.562-21.344 21.376 0 11.75 9.562 21.312 21.344 21.312zM1002.672 789.302h-85.374c-11.75 0-21.312 9.562-21.312 21.376 0 11.75 9.562 21.312 21.312 21.312h85.374c11.75 0 21.312-9.562 21.312-21.312 0-11.812-9.562-21.376-21.312-21.376zM192.012 703.994h277.302c11.81 0 21.374-9.562 21.374-21.312a21.366 21.366 0 0 0-21.374-21.376H192.012c-11.782 0-21.312 9.562-21.312 21.376 0 11.75 9.53 21.312 21.312 21.312zM725.336 703.994h277.336c11.75 0 21.312-9.562 21.312-21.312 0-11.812-9.562-21.376-21.312-21.376H725.336c-11.78 0-21.342 9.562-21.342 21.376 0 11.75 9.562 21.312 21.342 21.312zM554.688 703.994h85.31c11.78 0 21.342-9.562 21.342-21.312 0-11.812-9.562-21.376-21.342-21.376h-85.31c-11.812 0-21.344 9.562-21.344 21.376 0 11.75 9.532 21.312 21.344 21.312zM106.702 917.298H21.36c-11.782 0-21.344 9.56-21.344 21.374 0 11.75 9.562 21.312 21.344 21.312h85.342c11.75 0 21.31-9.562 21.31-21.312 0-11.812-9.56-21.374-21.31-21.374zM469.314 917.298H192.012c-11.782 0-21.312 9.56-21.312 21.374 0 11.75 9.532 21.312 21.312 21.312h277.302c11.81 0 21.374-9.562 21.374-21.312a21.364 21.364 0 0 0-21.374-21.374zM1002.672 917.298H725.336c-11.78 0-21.342 9.56-21.342 21.374 0 11.75 9.562 21.312 21.342 21.312h277.336c11.75 0 21.312-9.562 21.312-21.312 0-11.812-9.562-21.374-21.312-21.374zM639.998 917.298h-85.31c-11.812 0-21.344 9.56-21.344 21.374 0 11.75 9.532 21.312 21.344 21.312h85.31c11.78 0 21.342-9.562 21.342-21.312 0-11.812-9.562-21.374-21.342-21.374zM21.328 831.99h277.368c11.75 0 21.31-9.562 21.31-21.312 0-11.812-9.56-21.376-21.31-21.376H21.328c-11.75 0-21.312 9.562-21.312 21.376 0 11.75 9.562 21.312 21.312 21.312zM554.688 831.99h277.304c11.78 0 21.31-9.562 21.31-21.312 0-11.812-9.532-21.376-21.31-21.376H554.688a21.366 21.366 0 0 0-21.376 21.376c0 11.75 9.564 21.312 21.376 21.312zM469.346 789.302h-85.342c-11.782 0-21.312 9.562-21.312 21.376 0 11.75 9.532 21.312 21.312 21.312h85.342c11.78 0 21.342-9.562 21.342-21.312 0-11.812-9.562-21.376-21.342-21.376z" fill="#5D9CEC" /></svg>