<?xml version="1.0" standalone="no"?><!DOCTYPE svg PUBLIC "-//W3C//DTD SVG 1.1//EN" "http://www.w3.org/Graphics/SVG/1.1/DTD/svg11.dtd"><svg class="icon" width="128px" height="128.00px" viewBox="0 0 1024 1024" version="1.1" xmlns="http://www.w3.org/2000/svg"><path d="M512 736.43c-129.652 0-235.118-105.464-235.118-235.102 0-129.636 105.464-235.102 235.118-235.102 129.624 0 235.086 105.466 235.086 235.102 0 129.636-105.462 235.102-235.086 235.102z" fill="#FFCE54" /><path d="M512 244.898c-141.622 0-256.43 114.81-256.43 256.43 0 141.606 114.808 256.414 256.43 256.414s256.43-114.808 256.43-256.414c0-141.62-114.808-256.43-256.43-256.43z m151.152 407.596C622.78 692.87 569.092 715.12 512 715.12s-110.778-22.25-151.152-62.626c-40.404-40.372-62.622-94.058-62.622-151.166 0-57.09 22.216-110.778 62.622-151.152 40.376-40.374 94.06-62.606 151.152-62.606s110.78 22.234 151.152 62.606c40.374 40.374 62.622 94.06 62.622 151.152 0 57.108-22.248 110.796-62.622 151.166zM192.012 480H64.016c-11.782 0-21.344 9.546-21.344 21.328s9.562 21.344 21.344 21.344h127.996c11.78 0 21.31-9.562 21.31-21.344S203.792 480 192.012 480zM959.986 480h-127.994c-11.782 0-21.344 9.546-21.344 21.328s9.562 21.328 21.344 21.328l127.994 0.016c11.782 0 21.312-9.562 21.312-21.344S971.768 480 959.986 480z" fill="#F6BB42" /><path d="M813.68 169.48l-90.5 90.498c-8.342 8.328-8.342 21.844 0 30.172 8.312 8.328 21.844 8.328 30.156 0l90.53-90.498c8.312-8.328 8.312-21.842 0-30.17-8.342-8.33-21.842-8.33-30.186-0.002z" fill="#FFCE54" /><path d="M490.656 53.344V181.34c0 11.78 9.562 21.342 21.344 21.342s21.312-9.546 21.312-21.342V53.344c0-11.782-9.532-21.328-21.312-21.328s-21.344 9.546-21.344 21.328z" fill="#F6BB42" /><path d="M180.136 199.65l90.496 90.498c8.344 8.328 21.844 8.328 30.188 0 8.312-8.328 8.312-21.828 0-30.172L210.322 169.48c-8.344-8.328-21.874-8.328-30.186 0s-8.312 21.826 0 30.17z" fill="#FFCE54" /><path d="M927.174 635.058l-61.34-6.312-105.342-47.998-70.654 54.31-57.34 12.376-97.31-49.342-36-8-65.34 35.998-45.344 8.968-87.996-19.626-52-34.686s-19.686 35.998-35.186 39.998c-15.468 4-76.81 22.688-76.81 22.688l-43.998-8.376L0.016 588.748v403.236h1023.968V588.748l-96.81 46.31z" fill="#4A89DC" /><path d="M0.016 771.24h0.156c6.282 0 10.468 1.688 11.844 2.562l56.998 38c16.376 10.938 37.376 16.938 59.154 16.938 21.782 0 42.782-6 59.156-16.938l56.996-38c1.376-0.876 5.562-2.562 11.844-2.562s10.468 1.688 11.844 2.562l56.998 38c16.376 10.938 37.374 16.938 59.154 16.938s42.812-6 59.186-16.938l56.966-38c1.376-0.876 5.562-2.562 11.844-2.562 6.284 0 10.5 1.688 11.844 2.562l56.998 38c16.376 10.938 37.376 16.938 59.156 16.938s42.778-6 59.152-16.938l56.998-38c1.376-0.876 5.562-2.562 11.844-2.562s10.5 1.688 11.844 2.562l57 38c16.374 10.938 37.374 16.938 59.15 16.938 21.782 0 42.782-6 59.188-16.938l56.966-38c1.344-0.876 5.5-2.562 11.688-2.562v-42.686c-12.812 0.062-25.624 3.312-35.342 9.75l-57 37.998c-9.75 6.532-22.626 9.782-35.5 9.782-12.874 0-25.746-3.25-35.496-9.782l-56.998-37.998c-9.75-6.5-22.626-9.75-35.5-9.75s-25.75 3.25-35.5 9.75l-56.996 37.998c-9.75 6.532-22.626 9.782-35.498 9.782-12.876 0-25.718-3.25-35.5-9.782l-56.998-37.998c-9.75-6.5-22.626-9.75-35.5-9.75s-25.718 3.25-35.498 9.75l-56.998 37.998c-9.75 6.532-22.626 9.782-35.5 9.782s-25.716-3.25-35.498-9.782l-56.998-37.998c-9.75-6.5-22.626-9.75-35.5-9.75-12.844 0-25.716 3.25-35.498 9.75l-56.998 37.998c-9.75 6.532-22.626 9.782-35.5 9.782-12.842 0-25.716-3.25-35.498-9.782l-56.998-37.998c-9.75-6.5-22.626-9.75-35.5-9.75H0.016v42.686z" fill="#5D9CEC" /><path d="M0.016 607.998h0.156c6.282 0 10.468 1.688 11.844 2.594l56.998 37.996c16.376 10.906 37.376 16.938 59.154 16.938 21.782 0 42.782-6.032 59.156-16.938l56.996-37.996c1.376-0.906 5.562-2.594 11.844-2.594s10.468 1.688 11.844 2.594l56.998 37.996c16.376 10.906 37.374 16.938 59.154 16.938s42.812-6.032 59.186-16.938l56.966-37.996c1.376-0.906 5.562-2.594 11.844-2.594 6.284 0 10.5 1.688 11.844 2.594l56.998 37.996c16.376 10.906 37.376 16.938 59.156 16.938s42.778-6.032 59.152-16.938l56.998-37.996c1.376-0.906 5.562-2.594 11.844-2.594s10.5 1.688 11.844 2.594l57 37.996c16.374 10.906 37.374 16.938 59.15 16.938 21.782 0 42.782-6.032 59.188-16.938l56.966-37.996c1.344-0.906 5.5-2.562 11.688-2.594v-42.656c-12.812 0.032-25.624 3.282-35.342 9.75l-57 38c-9.75 6.53-22.626 9.78-35.5 9.78-12.874 0-25.746-3.25-35.496-9.78l-56.998-38c-9.75-6.5-22.626-9.782-35.5-9.782s-25.75 3.282-35.5 9.782l-56.996 38c-9.75 6.53-22.626 9.78-35.498 9.78-12.876 0-25.718-3.25-35.5-9.78l-56.998-38c-9.75-6.5-22.626-9.782-35.5-9.782s-25.718 3.282-35.498 9.782l-56.998 38c-9.75 6.53-22.626 9.78-35.5 9.78s-25.716-3.25-35.498-9.78l-56.998-38c-9.75-6.5-22.626-9.782-35.5-9.782-12.844 0-25.716 3.282-35.498 9.782l-56.998 38c-9.75 6.53-22.626 9.78-35.5 9.78-12.842 0-25.716-3.25-35.498-9.78l-56.998-38c-9.75-6.5-22.626-9.782-35.5-9.782-0.032 0-0.094 0.032-0.156 0.032v42.656zM0.016 934.484c0.062 0 0.094-0.032 0.156-0.032 6.282 0 10.468 1.718 11.844 2.594l56.998 38c16.376 10.938 37.376 16.938 59.154 16.938 21.782 0 42.782-6 59.156-16.938l56.996-38c1.376-0.876 5.562-2.594 11.844-2.594s10.468 1.718 11.844 2.594l56.998 38c16.376 10.938 37.374 16.938 59.154 16.938s42.782-6 59.154-16.938l56.998-38c1.344-0.876 5.562-2.594 11.844-2.594 6.284 0 10.5 1.718 11.844 2.594l56.998 38c16.376 10.938 37.376 16.938 59.156 16.938s42.778-6 59.152-16.938l56.998-38c1.344-0.876 5.562-2.594 11.844-2.594s10.5 1.718 11.844 2.594l57 38c16.374 10.938 37.374 16.938 59.15 16.938 21.782 0 42.782-6 59.156-16.938l56.998-38c1.344-0.876 5.5-2.562 11.688-2.562V891.8c-12.812 0.032-25.624 3.282-35.342 9.75l-57 37.996c-9.75 6.5-22.626 9.75-35.5 9.75-12.874 0-25.746-3.25-35.496-9.75l-56.998-37.996c-9.75-6.5-22.626-9.75-35.5-9.75s-25.75 3.25-35.5 9.75l-56.996 37.996c-9.75 6.5-22.626 9.75-35.498 9.75-12.876 0-25.75-3.25-35.5-9.75l-56.998-37.996c-9.75-6.5-22.626-9.75-35.5-9.75s-25.75 3.25-35.498 9.75l-56.998 37.996c-9.75 6.5-22.626 9.75-35.5 9.75s-25.748-3.25-35.498-9.75l-56.998-37.996c-9.782-6.5-22.626-9.75-35.5-9.75-12.844 0-25.716 3.25-35.498 9.75l-56.998 37.996c-9.782 6.5-22.626 9.75-35.5 9.75-12.842 0-25.716-3.25-35.498-9.75l-56.998-37.996c-9.782-6.5-22.626-9.75-35.5-9.75H0.016v42.684z" fill="#5D9CEC" /></svg>