<?xml version="1.0" standalone="no"?><!DOCTYPE svg PUBLIC "-//W3C//DTD SVG 1.1//EN" "http://www.w3.org/Graphics/SVG/1.1/DTD/svg11.dtd"><svg class="icon" width="128px" height="128.00px" viewBox="0 0 1024 1024" version="1.1" xmlns="http://www.w3.org/2000/svg"><path d="M383.816 715.814c-6.188-6.188-8.156-15.782-4.25-24.124 4.968-10.688 17.686-15.312 28.374-10.344l226.432 105.684c10.688 5 15.312 17.688 10.312 28.376-4.968 10.688-17.688 15.312-28.376 10.312l-226.43-105.652a21.608 21.608 0 0 1-6.062-4.252z" fill="#434A54" /><path d="M474.376 1017.71c-1.062-1.062-2-2.218-2.844-3.498l-159.09-246.778c-6.406-9.902-3.562-23.09 6.344-29.496 9.938-6.376 23.156-3.532 29.532 6.376l32.5-32.282c-6.25-10-3.218-23.188 6.782-29.438a21.31 21.31 0 0 1 29.404 6.812l150.966 241.526a21.316 21.316 0 0 1-3 26.404l-60.374 60.374a21.398 21.398 0 0 1-17.376 6.156 21.362 21.362 0 0 1-12.844-6.156z" fill="#5D9CEC" /><path d="M51.418 836.842c-6.312-6.312-8.218-16.218-4-24.656 5.282-10.532 18.092-14.812 28.656-9.532l46.624 23.312 246.024-246.024c8.312-8.344 21.844-8.344 30.186 0a21.332 21.332 0 0 1 0 30.188L142.01 867.028a21.342 21.342 0 0 1-24.656 4L56.98 840.842a21.24 21.24 0 0 1-5.562-4z" fill="#434A54" /><path d="M429.094 670.504l-120.776-120.748 30.218-30.218 120.746 120.778z"  /><path d="M278.13 579.944l30.188-30.188 120.776 120.748-30.186 30.216z" fill="#656D78" /><path d="M821.584 157.234c-8.312-8.344-8.312-21.842 0-30.186l120.808-120.778a21.332 21.332 0 0 1 30.188 0c8.344 8.312 8.344 21.842 0 30.186l-120.778 120.778c-8.344 8.344-21.874 8.344-30.218 0z" fill="#CCD1D9" /><path d="M263.038 827.716c-5.5 0-10.968-2.094-15.094-6.25l-90.592-90.558a21.366 21.366 0 0 1-1.968-27.906l90.592-120.778c0.594-0.812 1.25-1.562 1.968-2.282L761.21 66.674a21.33 21.33 0 0 1 30.186 0l120.78 120.778c4 4 6.25 9.406 6.25 15.092a21.36 21.36 0 0 1-6.25 15.094L398.908 730.908a19.172 19.172 0 0 1-2.282 1.968l-120.778 90.59a21.366 21.366 0 0 1-12.81 4.25z m-62.374-113.902l64.374 64.372 104.748-78.558 497.112-497.082-90.592-90.59-497.082 497.112-78.56 104.746z" fill="#E6E9ED" /><path d="M444.188 685.596l392.52-392.49-150.962-150.966-392.522 392.522z" fill="#5D9CEC" /><path d="M519.688 459.164c-12.126-12.094-18.782-28.186-18.782-45.28 0-17.124 6.656-33.188 18.782-45.28 24.968-25 65.592-25 90.558 0 24.968 24.968 24.968 65.592 0 90.56-24.966 24.968-65.59 24.968-90.558 0z m60.372-60.374c-8.312-8.344-21.874-8.344-30.186 0a21.176 21.176 0 0 0-6.25 15.094 21.22 21.22 0 0 0 6.25 15.092c8.312 8.312 21.874 8.312 30.186 0 8.314-8.31 8.314-21.874 0-30.186z" fill="#4A89DC" /><path d="M912.176 187.452l-120.78-120.778a21.33 21.33 0 0 0-30.186 0L685.746 142.14l150.962 150.964 75.466-75.466c4-4 6.25-9.438 6.25-15.094a21.294 21.294 0 0 0-6.248-15.092z" fill="#E6E9ED" /></svg>