<?xml version="1.0" standalone="no"?><!DOCTYPE svg PUBLIC "-//W3C//DTD SVG 1.1//EN" "http://www.w3.org/Graphics/SVG/1.1/DTD/svg11.dtd"><svg class="icon" width="128px" height="128.00px" viewBox="0 0 1024 1024" version="1.1" xmlns="http://www.w3.org/2000/svg"><path d="M920.418 772.712l-3.624-1.062c-52.938-14.188-70.872-27.876-94.434-36.812-83.562-31.874-105.312-54.81-110.872-65.652-0.218-0.406-0.376-0.812-0.562-1.218l-0.688-97.092-198.246-2.25-198.26 2.25-0.688 97.092c-0.172 0.406-0.328 0.812-0.532 1.218-5.562 10.842-27.312 33.78-110.904 65.652-23.562 8.938-41.482 22.624-94.418 36.812l-3.624 1.062c-48.186 15.938-80.608 60.624-80.608 111.058v140.214H1001.042v-140.214c0-50.434-32.436-95.12-80.624-111.058z" fill="#656D78" /><path d="M764.266 709.496c-6.5-3.344-12.218-6.5-17.282-9.532h-0.032c-1.688-1-3.282-2-4.812-2.938l-0.032-0.032c-0.718-0.468-1.438-0.906-2.124-1.376l-0.188-0.094a178.568 178.568 0 0 1-4.032-2.688 1.232 1.232 0 0 1-0.218-0.188c-0.562-0.376-1.094-0.75-1.624-1.094a1.12 1.12 0 0 0-0.312-0.218c-1.156-0.844-2.25-1.656-3.312-2.438a61.36 61.36 0 0 0-0.376-0.282c-0.406-0.312-0.812-0.624-1.188-0.906-0.124-0.094-0.25-0.188-0.376-0.312-0.5-0.376-0.938-0.75-1.438-1.124-0.438 0.438-0.688 0.218-0.75-0.594-8.5-7-12.688-12.56-14.684-16.498-0.218-0.406-0.376-0.812-0.562-1.218l-0.688-97.092-198.246-2.25-198.26 2.25-0.688 97.092c-0.172 0.406-0.328 0.812-0.532 1.218-3.67 7.156-14.406 19.56-45.31 36.374 8.858 10.594 27.156 30.092 55.514 49.404 37.358 25.406 100.512 55.688 189.276 55.688 88.434 0 154.684-30.062 194.652-55.282 27.654-17.466 46.968-35.026 57.624-45.87z" fill="#DBAFA5" /><path d="M787.11 382.972c0 178.746-170.434 343.24-275.118 343.24-104.7 0-275.102-164.494-275.102-343.24s123.168-296.68 275.102-296.68 275.118 117.936 275.118 296.68z" fill="#EAC6BB" /><path d="M653.988 101.76s-5.344-47.56 51.624-81.78c24.122-14.5-361.506-83.216-458.286 160.434-36.358 91.56-9.484 226.276-9.484 226.276l83.81-150.278s91.342 21.344 190.338 21.344 193.652-21.344 193.652-21.344l81.464 126.998s31.282-121.904-3.782-202.714-129.336-78.936-129.336-78.936z" fill="#965353" /><path d="M764.266 709.496c-17.344-8.906-29.218-16.656-37.344-23.218-9.812 9.188-24.746 21.594-44.528 33.938-50.906 31.686-108.218 47.78-170.402 47.78-61.794 0-116.856-15.906-163.668-47.216-22.53-15.094-37.638-30.344-45.638-39.406-6.938 6.562-17.968 14.656-35.484 24.188 8.858 10.594 27.156 30.092 55.514 49.404 37.358 25.406 100.512 55.688 189.276 55.688 88.434 0 154.684-30.062 194.652-55.282 27.652-17.472 46.966-35.032 57.622-45.876z" fill="#434A54" /><path d="M240.234 426.66h543.5c2.124-14.094 3.312-28.312 3.344-42.656H236.906c0.048 14.342 1.202 28.562 3.328 42.656z" fill="#656D78" /><path d="M502.992 405.316c0 41.25-5.218 74.686-106.668 74.686s-106.668-33.436-106.668-74.686c0-41.216 15.688-74.654 106.668-74.654 90.998 0 106.668 33.436 106.668 74.654zM738.578 405.316c0 41.25-5.218 74.686-106.652 74.686-101.464 0-106.684-33.436-106.684-74.686 0-41.216 15.672-74.654 106.684-74.654 90.964 0 106.652 33.436 106.652 74.654z" fill="#434A54" /><path d="M787.11 382.442v0.532c0 18.124-1.782 36.092-5.062 53.78 7.906 13.28 10.094 29.842 5.438 46.936-5.876 21.656-22.376 41.25-46.438 55.218-30.714 17.782-73.496 26.468-123.746 25.124l-1.124 42.654c3.876 0.094 7.688 0.156 11.5 0.156 125.434 0 186.09-57.186 200.996-111.934 12.092-44.532-4.564-88.874-41.564-112.466z" fill="#E6E9ED" /><path d="M642.488 583.25c0.938 30.154-28.938 55.53-66.75 56.686-37.808 1.156-69.184-22.344-70.106-52.5-0.922-30.154 28.968-55.53 66.762-56.686 37.782-1.154 69.188 22.374 70.094 52.5z" fill="#ED5564" /></svg>