<?xml version="1.0" standalone="no"?><!DOCTYPE svg PUBLIC "-//W3C//DTD SVG 1.1//EN" "http://www.w3.org/Graphics/SVG/1.1/DTD/svg11.dtd"><svg class="icon" width="128px" height="128.00px" viewBox="0 0 1024 1024" version="1.1" xmlns="http://www.w3.org/2000/svg"><path d="M789.334 469.586H21.342c-5.656 0-11.092 2.25-15.092 6.25S0 485.274 0 490.93v85.324c0 5.062 1.812 9.938 5.062 13.75l72.216 85.376c4.032 4.75 10 7.562 16.282 7.562h623.558c6.282 0 12.25-2.812 16.312-7.562l72.184-85.376a21.206 21.206 0 0 0 5.062-13.75v-85.324c0-11.78-9.56-21.344-21.342-21.344z" fill="#434A54" /><path d="M809.894 485.212L703.242 101.224A21.376 21.376 0 0 0 682.68 85.6H127.996a21.342 21.342 0 0 0-20.532 15.624L0.812 485.212a21.3 21.3 0 0 0 4.25 19.5l72.216 85.292a21.22 21.22 0 0 0 16.282 7.562h623.558c6.282 0 12.25-2.75 16.312-7.562l72.184-85.292a21.396 21.396 0 0 0 4.28-19.5z" fill="#656D78" /><path d="M576.528 190.44c-46.042-12.594-106.854-19.5-171.258-19.5s-125.214 6.906-171.246 19.5c-55.936 15.282-84.31 37.436-84.31 65.81 0 67.374 160.652 85.34 255.554 85.34 64.404 0 125.216-6.906 171.258-19.5 55.938-15.282 84.31-37.436 84.31-65.842 0.002-28.372-28.372-50.526-84.308-65.808z" fill="#434A54" /><path d="M575.996 405.59H234.68c-23.562 0-42.686 19.092-42.686 42.656 0 23.592 19.124 42.686 42.686 42.686h341.316c23.562 0 42.688-19.094 42.688-42.686 0-23.564-19.126-42.656-42.688-42.656z" fill="#5D9CEC" /><path d="M191.994 128.254c11.812 0 21.342-9.532 21.342-21.312V85.6H170.682v21.342c0 11.782 9.562 21.312 21.312 21.312zM618.684 128.254a21.3 21.3 0 0 0 21.312-21.312V85.6H597.34v21.342c0 11.782 9.562 21.312 21.344 21.312z" fill="#434A54" /><path d="M319.99 405.59h170.682v85.34h-170.682z" fill="#AAB2BC" /><path d="M234.68 597.566h127.996v85.376H234.68z" opacity=".2" /><path d="M554.53 64.256H255.868c-23.562 0-42.656 19.124-42.656 42.686v170.652h384.002V106.942c0-23.56-19.124-42.686-42.684-42.686z" fill="#A0D468" /><path d="M554.53 64.256h-21.328c23.578 0 42.67 19.124 42.67 42.686v170.652h21.344V106.942c-0.002-23.56-19.126-42.686-42.686-42.686z" fill="#8CC153" /><path d="M1023.982 837.122c-0.124-23.876-12.466-101.808-67.498-175.43-32.28-43.188-73.84-77.5-123.528-101.872-60.09-29.484-132.184-44.454-214.274-44.484-82.076 0.032-154.23 15.344-214.478 45.546-49.562 24.808-91.09 59.684-123.496 103.496-55.966 75.746-67.404 155.554-67.404 172.804 0 13.812 0 42.438 9.75 68.124 13.312 35.122 41.124 54.434 78.34 54.434h0.032c71.686 0 124.746-19.062 176.026-37.434 45.5-16.312 88.48-31.75 141.356-31.75 52.842 0 95.746 15.438 141.152 31.75 51.214 18.434 104.184 37.434 175.898 37.434 24.75 0 44.906-7.624 59.876-22.624 28.592-28.744 28.374-75.12 28.248-99.994z m-722.586 101.308z" fill="#5D9CEC" /><path d="M469.33 768.25h-85.342c-11.75 0-21.312-9.562-21.312-21.312 0-11.812 9.562-21.376 21.312-21.376h85.342c11.78 0 21.342 9.562 21.342 21.376 0 11.75-9.562 21.312-21.342 21.312zM633.996 789.562H603.34c-11.782 0-21.344-9.562-21.344-21.312 0-11.812 9.562-21.312 21.344-21.312h30.656c11.782 0 21.342 9.5 21.342 21.312 0 11.75-9.56 21.312-21.342 21.312z" fill="#CCD1D9" /><path d="M661.338 661.566h-85.342c-11.782 0-21.342-9.562-21.342-21.312 0-11.812 9.56-21.312 21.342-21.312h85.342c11.782 0 21.312 9.5 21.312 21.312 0 11.75-9.53 21.312-21.312 21.312z" fill="#4A89DC" /><path d="M868.426 719.312a21.274 21.274 0 0 1-30.188 0c-8.312-8.312-8.312-21.812 0-30.122a21.274 21.274 0 0 1 30.188 0c8.312 8.31 8.312 21.81 0 30.122zM825.738 740.688c-8.312 8.312-21.81 8.312-30.154 0-8.344-8.376-8.344-21.876 0-30.188s21.842-8.312 30.154 0c8.344 8.312 8.344 21.812 0 30.188zM783.084 762c-8.312 8.312-21.842 8.312-30.154 0-8.344-8.312-8.344-21.812 0-30.188 8.312-8.312 21.842-8.312 30.154 0 8.344 8.376 8.344 21.876 0 30.188z" fill="#434A54" /><path d="M889.738 783.312c-8.312 8.376-21.812 8.376-30.156 0-8.344-8.312-8.344-21.812 0-30.124 8.344-8.376 21.844-8.376 30.156 0 8.342 8.312 8.342 21.812 0 30.124zM847.082 804.688c-8.312 8.308-21.844 8.308-30.156 0-8.344-8.376-8.344-21.876 0-30.188 8.312-8.312 21.844-8.312 30.156 0 8.344 8.312 8.344 21.812 0 30.188zM804.426 825.996c-8.342 8.312-21.842 8.312-30.186 0-8.31-8.312-8.31-21.808 0-30.184 8.344-8.312 21.844-8.312 30.186 0 8.312 8.376 8.312 21.872 0 30.184zM426.674 810.934c-11.782 0-21.342-9.558-21.342-21.372v-85.312c0-11.808 9.562-21.308 21.342-21.308s21.312 9.5 21.312 21.308v85.312c0 11.814-9.53 21.372-21.312 21.372z" fill="#E6E9ED" /></svg>