<?xml version="1.0" standalone="no"?><!DOCTYPE svg PUBLIC "-//W3C//DTD SVG 1.1//EN" "http://www.w3.org/Graphics/SVG/1.1/DTD/svg11.dtd"><svg class="icon" width="128px" height="128.00px" viewBox="0 0 1024 1024" version="1.1" xmlns="http://www.w3.org/2000/svg"><path d="M810.682 554.68H213.334c-11.782 0-21.328-9.562-21.328-21.36v-85.328c0-11.78 9.546-21.328 21.328-21.328h597.348c11.75 0 21.312 9.546 21.312 21.328v85.328c0 11.798-9.562 21.36-21.312 21.36z" fill="#E6E9ED" /><path d="M21.338 447.994c-11.782 0-21.328 9.546-21.328 21.328v85.358c0 11.75 9.546 21.312 21.328 21.312 11.78 0 21.342-9.562 21.342-21.312v-85.358c0-11.782-9.562-21.328-21.342-21.328zM1002.678 447.994c-11.812 0-21.374 9.546-21.374 21.328v85.358c0 11.75 9.56 21.312 21.374 21.312 11.75 0 21.312-9.562 21.312-21.312v-85.358c0-11.782-9.562-21.328-21.312-21.328z" fill="#E6E9ED" /><path d="M448 426.666H213.334c-11.782 0-21.328 9.546-21.328 21.328v106.686c0 11.75 9.546 21.312 21.328 21.312h149.34c43.702 0 77.248-23.688 94.466-66.75 12.062-30.124 12.188-60 12.188-61.25 0.002-11.78-9.546-21.326-21.328-21.326zM810.682 426.666H576c-11.782 0-21.312 9.546-21.312 21.328 0 1.25 0.124 31.124 12.188 61.25 17.186 43.062 50.748 66.75 94.434 66.75h149.374c11.75 0 21.312-9.562 21.312-21.312v-106.686c-0.002-11.784-9.564-21.33-21.314-21.33z" fill="#48CFAD" /><path d="M938.68 682.676h-85.376c-35.248 0-63.998-28.75-63.998-64V405.324c0-35.282 28.75-64 63.998-64h85.376c35.25 0 63.998 28.718 63.998 64v213.352c0 35.25-28.748 64-63.998 64zM170.678 682.676H85.336c-35.28 0-63.998-28.75-63.998-64V405.324c0-35.282 28.718-64 63.998-64h85.342c35.28 0 63.998 28.718 63.998 64v213.352c0 35.25-28.718 64-63.998 64z" fill="#434A54" /><path d="M106.68 341.324v234.668c0 11.782 9.546 21.312 21.328 21.312s21.328-9.532 21.328-21.312V341.324H106.68zM874.68 341.324v234.668c0 11.782 9.532 21.312 21.312 21.312s21.312-9.532 21.312-21.312V341.324H874.68z" fill="#656D78" /><path d="M448 447.994h-149.326c-11.782 0-21.342-9.546-21.342-21.328s9.562-21.342 21.342-21.342H448c11.782 0 21.328 9.562 21.328 21.342s-9.546 21.328-21.328 21.328zM725.308 447.994H576c-11.782 0-21.312-9.546-21.312-21.328s9.532-21.342 21.312-21.342h149.308c11.812 0 21.376 9.562 21.376 21.342s-9.562 21.328-21.376 21.328z" fill="#434A54" /></svg>