<?xml version="1.0" standalone="no"?><!DOCTYPE svg PUBLIC "-//W3C//DTD SVG 1.1//EN" "http://www.w3.org/Graphics/SVG/1.1/DTD/svg11.dtd"><svg class="icon" width="128px" height="128.00px" viewBox="0 0 1024 1024" version="1.1" xmlns="http://www.w3.org/2000/svg"><path d="M673.214 551.124l-23.688-35.498-5.25-353.494L678.4 136.538l64 85.328a21.278 21.278 0 0 1 4.25 12.812v255.996c0 7.124-3.532 13.782-9.468 17.734l-63.968 42.716zM350.816 551.124l-64-42.716a21.354 21.354 0 0 1-9.468-17.734V234.678c0-4.624 1.5-9.11 4.25-12.812l64-85.328 34.156 25.594-5.25 353.494-23.688 35.498z" fill="#E6E9ED" /><path d="M362.66 853.336H149.35a21.328 21.328 0 0 1-19.094-11.812L87.6 756.214a21.256 21.256 0 0 1 0.938-20.75 21.264 21.264 0 0 1 18.124-10.124H362.66c11.782 0 21.342 9.53 21.342 21.31v85.342c0 11.782-9.562 21.344-21.342 21.344zM874.648 853.336H661.34c-11.782 0-21.344-9.562-21.344-21.344v-85.342c0-11.782 9.562-21.31 21.344-21.31h255.996c7.376 0 14.25 3.812 18.124 10.124a21.256 21.256 0 0 1 0.938 20.75l-42.656 85.31a21.326 21.326 0 0 1-19.094 11.812z" fill="#5D9CEC" /><path d="M533.344 341.332h-42.688c-35.28 0-63.998 28.718-63.998 64v554.66c0 35.282 28.718 64 63.998 64h42.688c35.282 0 63.998-28.718 63.998-64v-554.66c0-35.282-28.718-64-63.998-64z" fill="#434A54" /><path d="M456.938 2.104a21.386 21.386 0 0 0-22.594 2.594L349.316 90.04a21.34 21.34 0 0 0-7.968 16.64v810.656a21.296 21.296 0 0 0 21.312 21.31h63.718c11.78 0 21.312-9.53 21.312-21.31v-83.532l21-82.31c0.438-1.718 0.656-3.5 0.656-5.282l-0.312-724.876a21.368 21.368 0 0 0-12.096-19.232zM674.746 90.04L589.716 4.698c-6.376-5.124-15.154-6.14-22.56-2.594s-12.094 11.03-12.094 19.234l-0.312 724.876c0 1.782 0.218 3.562 0.656 5.282l20.968 82.31v83.532c0 11.782 9.56 21.31 21.342 21.31h63.686c11.782 0 21.344-9.53 21.344-21.31V106.68c0-6.484-2.938-12.594-8-16.64z" fill="#F5F7FA" /><path d="M469.408 106.68h85.342v512.002h-85.342z" fill="#5D9CEC" /><path d="M469.408 21.338h85.342V106.68h-85.342z" fill="#CCD1D9" /><path d="M533.718 895.992h-42.656a21.332 21.332 0 0 1-21.342-21.344c0-11.782 9.562-21.312 21.342-21.312h42.656c11.782 0 21.344 9.532 21.344 21.312 0 11.812-9.562 21.344-21.344 21.344zM533.718 831.992h-42.656c-11.78 0-21.342-9.53-21.342-21.342 0-11.782 9.562-21.312 21.342-21.312h42.656c11.782 0 21.344 9.532 21.344 21.312 0 11.812-9.562 21.342-21.344 21.342zM533.344 767.994h-42.688c-11.78 0-21.312-9.532-21.312-21.344a21.296 21.296 0 0 1 21.312-21.31h42.688a21.296 21.296 0 0 1 21.312 21.31c0 11.812-9.532 21.344-21.312 21.344zM533.344 703.996h-42.688c-11.78 0-21.312-9.532-21.312-21.344a21.3 21.3 0 0 1 21.312-21.312h42.688a21.3 21.3 0 0 1 21.312 21.312c0 11.812-9.532 21.344-21.312 21.344zM533.344 959.99h-42.688c-11.78 0-21.312-9.532-21.312-21.344 0-11.78 9.532-21.31 21.312-21.31h42.688a21.298 21.298 0 0 1 21.312 21.31c0 11.812-9.532 21.344-21.312 21.344z" fill="#656D78" /><path d="M527.156 207.084c-8.312 8.342-21.812 8.342-30.156 0a21.294 21.294 0 0 1 0-30.156c8.344-8.344 21.844-8.344 30.156 0a21.294 21.294 0 0 1 0 30.156zM527.156 292.426c-8.312 8.328-21.812 8.328-30.156 0-8.344-8.344-8.344-21.844 0-30.172s21.844-8.328 30.156 0c8.344 8.33 8.344 21.83 0 30.172zM527.156 377.752c-8.312 8.328-21.812 8.328-30.156 0s-8.344-21.844 0-30.172 21.844-8.328 30.156 0c8.344 8.33 8.344 21.844 0 30.172zM527.156 463.08c-8.312 8.328-21.812 8.328-30.156 0s-8.344-21.844 0-30.17c8.344-8.328 21.844-8.328 30.156 0 8.344 8.326 8.344 21.84 0 30.17zM527.156 548.436c-8.312 8.312-21.812 8.312-30.156 0-8.344-8.36-8.344-21.858 0-30.186s21.844-8.328 30.156 0c8.344 8.328 8.344 21.826 0 30.186z" fill="#F5F7FA" /></svg>