<?xml version="1.0" standalone="no"?><!DOCTYPE svg PUBLIC "-//W3C//DTD SVG 1.1//EN" "http://www.w3.org/Graphics/SVG/1.1/DTD/svg11.dtd"><svg class="icon" width="128px" height="128.00px" viewBox="0 0 1024 1024" version="1.1" xmlns="http://www.w3.org/2000/svg"><path d="M512 725.308c-139.372 0-254.962 20.81-259.806 21.686l7.656 81.062c1.156-0.188 116.592-18 252.15-18 135.34 0 251.028 17.812 252.184 18l7.624-81.062c-4.812-0.874-120.436-21.686-259.808-21.686z" fill="#434A54" /><path d="M767.996 938.678H256.006c-11.75 0-21.312-9.56-21.312-21.374V810.68c0-11.812 9.562-21.376 21.312-21.376h511.99c11.812 0 21.342 9.562 21.342 21.376v106.624c0 11.814-9.53 21.374-21.342 21.374z" fill="#5D9CEC" /><path d="M149.352 874.68c-11.782 0-21.344-9.562-21.344-21.376v-127.996c0-11.75 9.562-21.312 21.344-21.312s21.344 9.562 21.344 21.312v127.996c0 11.814-9.564 21.376-21.344 21.376zM874.68 874.68c-11.812 0-21.344-9.562-21.344-21.376v-127.996c0-11.75 9.532-21.312 21.344-21.312 11.75 0 21.312 9.562 21.312 21.312v127.996c0 11.814-9.562 21.376-21.312 21.376z" fill="#E6E9ED" /><path d="M213.35 1023.99c-35.282 0-63.998-28.688-63.998-64V618.684c0-35.31 28.716-63.998 63.998-63.998s64 28.688 64 63.998v341.306c0 35.312-28.72 64-64 64zM810.682 1023.99c-35.31 0-63.998-28.688-63.998-64V618.684c0-35.31 28.688-63.998 63.998-63.998 35.28 0 63.998 28.688 63.998 63.998v341.306c0 35.312-28.72 64-63.998 64z" fill="#656D78" /><path d="M426.69 895.992c-11.812 0-21.344 9.562-21.344 21.312v21.374h42.656v-21.374c0-11.75-9.562-21.312-21.312-21.312zM341.348 895.992c-11.782 0-21.344 9.562-21.344 21.312v21.374h42.688v-21.374c0-11.75-9.564-21.312-21.344-21.312zM512 895.992c-11.75 0-21.312 9.562-21.312 21.312v21.374h42.656v-21.374c0-11.75-9.532-21.312-21.344-21.312zM597.342 895.992c-11.782 0-21.342 9.562-21.342 21.312v21.374h42.686v-21.374c0-11.75-9.562-21.312-21.344-21.312zM682.684 895.992c-11.812 0-21.344 9.562-21.344 21.312v21.374h42.656v-21.374c0-11.75-9.562-21.312-21.312-21.312z" fill="#4A89DC" /><path d="M540.438 712.684h-56.876c-7.874 0-14.216-8.718-14.216-19.438V62.086c0-10.718 6.344-19.406 14.216-19.406h56.876c7.876 0 14.25 8.688 14.25 19.406v631.16c0 10.718-6.376 19.438-14.25 19.438z" fill="#CCD1D9" /><path d="M469.346 85.336h85.342v319.994h-85.342z" fill="#E6E9ED" /><path d="M810.682 42.68c0 23.468-19.218 42.656-42.686 42.656H256.006c-23.438 0-42.656-19.188-42.656-42.656S232.568 0.01 256.006 0.01h511.99c23.466 0 42.686 19.202 42.686 42.67z" fill="#434A54" /><path d="M426.69 0.01h170.652v85.326h-170.652zM512 639.528c-35.28 0-63.998 28.718-63.998 64 0 35.28 28.718 63.998 63.998 63.998 35.312 0 64-28.718 64-63.998 0-35.282-28.688-64-64-64z" fill="#F5F7FA" /><path d="M527.094 718.622c-8.344 8.312-21.844 8.312-30.156 0-8.344-8.344-8.344-21.876 0-30.188 8.312-8.312 21.812-8.312 30.156 0s8.344 21.844 0 30.188z" fill="#CCD1D9" /><path d="M277.35 42.68c11.78 0 21.342-9.562 21.342-21.342V0.01h-42.686v21.328c0 11.78 9.562 21.342 21.344 21.342zM320.004 42.68c-11.75 0-21.312 9.546-21.312 21.328v21.328h42.656V64.008c0-11.782-9.532-21.328-21.344-21.328zM362.692 42.68c11.75 0 21.31-9.562 21.31-21.342V0.01h-42.654v21.328c0 11.78 9.53 21.342 21.344 21.342zM661.34 42.68c11.782 0 21.344-9.562 21.344-21.342V0.01h-42.688v21.328c0 11.78 9.562 21.342 21.344 21.342zM703.996 42.68c-11.782 0-21.312 9.546-21.312 21.328v21.328h42.656V64.008c0-11.782-9.532-21.328-21.344-21.328zM746.684 42.68c11.75 0 21.312-9.562 21.312-21.342V0.01H725.34v21.328c0 11.78 9.532 21.342 21.344 21.342z" fill="#656D78" /></svg>