<?xml version="1.0" standalone="no"?><!DOCTYPE svg PUBLIC "-//W3C//DTD SVG 1.1//EN" "http://www.w3.org/Graphics/SVG/1.1/DTD/svg11.dtd"><svg class="icon" width="128px" height="128.00px" viewBox="0 0 1024 1024" version="1.1" xmlns="http://www.w3.org/2000/svg"><path d="M489.29 0c-126.5 0-236.938 68.828-295.906 171.094 32.562-21.828 71.75-34.562 113.876-34.562 113.124 0 204.812 91.688 204.812 204.796S420.384 546.124 307.26 546.124c-42.124 0-81.312-12.75-113.876-34.546 58.938 102.172 169.282 170.984 295.688 171.11v320c0 11.75 9.532 21.312 21.312 21.312s21.36-9.562 21.36-21.312V680.062c168.5-20.906 298.876-164.562 298.876-338.734C830.618 152.828 677.804 0 489.29 0z m223.202 539.812c-48.25 54.25-114.312 89-186 97.876l-18.64 2.312h-18.75c-53.406-0.062-105.782-14.312-151.468-41.312a288.924 288.924 0 0 1-16.188-10.282c28.376-1.594 55.968-7.968 82.156-19.094 29.468-12.438 55.938-30.282 78.656-53 22.688-22.704 40.546-49.172 52.984-78.64 12.938-30.532 19.5-62.954 19.5-96.344s-6.562-65.796-19.5-96.328c-12.438-29.484-30.296-55.938-52.984-78.656-22.718-22.704-49.188-40.546-78.656-53.016a245.436 245.436 0 0 0-82.156-19.062 302.714 302.714 0 0 1 16.25-10.328c45.75-27 98.156-41.266 151.594-41.266 40.328 0 79.454 7.89 116.266 23.454 35.562 15.032 67.5 36.578 94.938 64.016s49 59.39 64 94.954c15.562 36.796 23.5 75.906 23.5 116.234-0.002 73.294-26.814 143.78-75.502 198.482z" fill="#E9573F" /><path d="M659.742 853.312H361.07c-11.782 0-21.344 9.562-21.344 21.376 0 11.75 9.562 21.312 21.344 21.312h298.672c11.75 0 21.312-9.562 21.312-21.312 0-11.812-9.562-21.376-21.312-21.376z" fill="#FC6E51" /></svg>