<?xml version="1.0" standalone="no"?><!DOCTYPE svg PUBLIC "-//W3C//DTD SVG 1.1//EN" "http://www.w3.org/Graphics/SVG/1.1/DTD/svg11.dtd"><svg class="icon" width="128px" height="128.00px" viewBox="0 0 1024 1024" version="1.1" xmlns="http://www.w3.org/2000/svg"><path d="M934.792 981.102l-56.864-682.436c-1.934-23.356-22.73-42.466-46.182-42.466H192.248c-23.452 0-44.216 19.112-46.184 42.466l-56.86 682.436c-1.936 23.358 15.644 42.498 39.094 42.498H895.7c23.448 0 41.06-19.142 39.092-42.498z" fill="#48CFAD" /><path d="M341.474 341.446c0 11.774-9.554 21.328-21.328 21.328-11.772 0-21.296-9.554-21.296-21.328a21.28 21.28 0 0 1 21.296-21.294c11.774-0.002 21.328 9.522 21.328 21.294zM725.176 341.446c0 11.774-9.554 21.328-21.328 21.328-11.772 0-21.296-9.554-21.296-21.328a21.282 21.282 0 0 1 21.296-21.294c11.774-0.002 21.328 9.522 21.328 21.294z"  /><path d="M682.55 341.632c-0.032-0.748-1.03-78.5-24.356-154.598-29.29-95.582-78.468-144.012-146.198-144.012-67.916 0-117.16 48.71-146.416 144.762-23.17 76.126-24.106 153.1-24.106 153.848l-42.624-0.376c0.032-3.372 1-83.964 25.948-165.9C359.648 60.884 424.378 0.4 511.998 0.4s152.35 60.484 187.198 174.958c24.95 81.936 25.95 162.53 25.98 165.9l-42.626 0.374z" fill="#48CFAD" /><path d="M212.762 443.616c4.498 2.218 14.676 2.218 19.142-0.032l58.454-29.226c16.582-8.276 40.624-8.276 57.206 0l58.456 29.226c4.464 2.218 14.614 2.218 19.078 0l58.456-29.226c16.548-8.276 40.624-8.276 57.174 0l58.484 29.226c4.434 2.218 14.614 2.218 19.046 0l58.456-29.226c16.58-8.276 40.624-8.276 57.206 0l58.454 29.226c4.466 2.218 14.616 2.218 19.048 0l75.442-37.782-8.932-107.136c-1.934-23.356-22.73-42.466-46.182-42.466H192.248c-23.452 0-44.216 19.112-46.184 42.466l-8.93 107.324 75.628 37.626z" fill="#E6E9ED" /><path d="M334.136 684.366c-37.752-10.648-57.986-11.958-57.986-28.446 0-13.584 11.46-21.546 30.602-21.546 22.076 0 34.316 9.836 35.91 28.198h39.376c-0.812-42.31-33.006-60.39-72.88-60.39-44.154 0-72.912 22.326-72.912 56.642 0 38.564 29.54 46.308 60.39 55.082 39.126 11.148 51.898 13.834 51.898 28.728 0 15.674-13.302 25.262-35.128 25.262-25.262 0-42.03-10.118-42.842-35.66h-41.218c0.53 42.842 30.85 67.572 82.186 67.572 38.594 0 77.94-16.488 77.94-61.172-0.004-31.664-21.55-44.684-55.336-54.27zM473.028 714.154h92.586v-32.724h-92.586v-41.218h100.828v-34.036h-142.046v189.384h143.92v-34.848h-102.702zM701.818 601.648c-56.642 0-93.896 39.346-93.896 99.484 0 59.298 37.504 98.956 93.646 98.956 55.582 0 93.116-39.906 93.116-98.956 0-59.328-37.534-99.484-92.866-99.484z m0 164.122c-32.162-0.28-51.866-24.73-51.866-65.448 0-39.376 19.954-64.636 51.334-64.636 31.662 0 51.366 24.73 51.366 64.636 0 40.436-19.422 65.448-50.834 65.448z" fill="#F5F7FA" /><path d="M89.204 981.102c-1.936 23.358 15.644 42.498 39.094 42.498H895.7c23.45 0 41.06-19.14 39.094-42.498l-3.56-42.78H92.762l-3.558 42.78z" fill="#37BC9B" /></svg>