<?xml version="1.0" standalone="no"?><!DOCTYPE svg PUBLIC "-//W3C//DTD SVG 1.1//EN" "http://www.w3.org/Graphics/SVG/1.1/DTD/svg11.dtd"><svg class="icon" width="128px" height="128.00px" viewBox="0 0 1024 1024" version="1.1" xmlns="http://www.w3.org/2000/svg"><path d="M782.912 0.828l-209.836 27.76L0.4 601.25l421.952 421.922L995.03 450.54 1023.6 241.546 782.912 0.828z m0.344 282.966c-23.512 0-42.59-19.078-42.59-42.624 0-23.542 19.078-42.624 42.59-42.624 23.544 0 42.656 19.08 42.656 42.624 0 23.546-19.112 42.624-42.656 42.624z" fill="#ED5564" /><path d="M783.288 326.418c-22.792 0-44.184-8.868-60.296-24.98-16.112-16.08-24.98-37.502-24.98-60.266 0-46.994 38.252-85.246 85.246-85.246 22.796 0 44.184 8.87 60.296 24.98 16.114 16.082 24.98 37.502 24.98 60.266s-8.868 44.186-24.98 60.266c-16.114 16.112-37.502 24.98-60.266 24.98z m-0.032-127.87c-23.48 0-42.59 19.112-42.59 42.624 0 11.398 4.402 22.076 12.458 30.132a42.356 42.356 0 0 0 30.132 12.49h0.032a42.346 42.346 0 0 0 30.132-12.49c8.056-8.056 12.492-18.734 12.492-30.132 0-11.396-4.436-22.076-12.492-30.132a42.36 42.36 0 0 0-30.164-12.492z" fill="#DA4453" /><path d="M360.088 646.464c-33.318 18.674-48.15 31.662-59.484 20.296-9.338-9.304-6.964-22.67 6.212-35.846 15.208-15.176 30.382-16.864 44.124-5.308l27.072-27.106c-29.632-28.54-64.232-18.86-91.68 8.62-30.412 30.414-34.786 65.512-11.178 89.118 26.542 26.542 52.178 11.554 79.438-3.622 34.598-19.236 45.214-26.168 55.458-15.926 10.804 10.804 8.244 26.542-6.776 41.532-17.392 17.424-35.878 21.982-53.99 4.934l-28.382 28.414c29.852 29.104 67.758 25.23 103.074-10.118 26.542-26.542 42.28-64.95 11.524-95.736-21.768-21.734-45.56-15.924-75.412 0.748zM476.152 571.398l63.702-63.684-22.516-22.544-63.7 63.746-28.35-28.398 69.35-69.386-23.42-23.418-97.734 97.738 130.334 130.32 99.016-98.986-23.98-23.996-70.662 70.646zM556.184 336.536c-39 38.968-37.534 91.708 3.842 133.084 40.812 40.81 93.894 42.28 132.52 3.652 38.254-38.25 36.628-91.522-4.028-132.178-40.812-40.81-94.27-42.654-132.334-4.558z m112.942 112.942c-22.326 21.952-52.74 18.672-80.718-9.336-27.104-27.106-30.758-58.206-9.18-79.812 21.796-21.796 52.366-18.298 79.812 9.148 27.824 27.822 31.666 58.394 10.086 80z" fill="#FFCE54" /></svg>