<?xml version="1.0" standalone="no"?><!DOCTYPE svg PUBLIC "-//W3C//DTD SVG 1.1//EN" "http://www.w3.org/Graphics/SVG/1.1/DTD/svg11.dtd"><svg class="icon" width="128px" height="128.00px" viewBox="0 0 1024 1024" version="1.1" xmlns="http://www.w3.org/2000/svg"><path d="M1023.656 284.292v-81.718c0-11.782-9.532-21.312-21.312-21.312S981 190.792 981 202.572v85.376h0.312c0 11.782 9.562 21.344 21.344 21.344S1024 299.728 1024 287.948c0-1.25-0.124-2.47-0.344-3.656z" fill="#434A54" /><path d="M789.438 31.886c-11.782 0-21.344 9.532-21.344 21.31v64.032h42.688V53.198c0-11.78-9.564-21.312-21.344-21.312zM874.624 53.198h42.688v64.032h-42.688z" fill="#CCD1D9" /><path d="M917.312 31.886h-42.688c-11.782 0-21.344 9.532-21.344 21.31 0 11.812 9.562 21.344 21.344 21.344h42.688c11.782 0 21.344-9.532 21.344-21.344 0-11.778-9.562-21.31-21.344-21.31z" fill="#AC92EB" /><path d="M319.816 543.992h-55.188v42.688h55.188c11.796 0 21.344-9.562 21.344-21.312 0-11.814-9.546-21.376-21.344-21.376z" fill="#AAB2BC" /><path d="M277.144 351.322h-42.672v320.108h0.032c-0.016 0.188-0.032 0.376-0.032 0.624 0 11.75 9.546 21.312 21.328 21.312 11.796 0 21.344-9.562 21.344-21.312 0-0.25-0.032-0.438-0.032-0.624h0.032V351.322z" fill="#CCD1D9" /><path d="M362.502 714.68H149.114c-11.782 0-21.344 9.562-21.344 21.376 0 11.75 9.562 21.312 21.344 21.312h213.388c11.782 0 21.328-9.562 21.328-21.312 0.002-11.814-9.546-21.376-21.328-21.376z" fill="#434A54" /><path d="M618.908 266.604h383.748v512.138H576.22s119.876-305.328 42.688-512.138z" fill="#CCD1D9" /><path d="M917.312 554.68c0 53-43 96-96.032 96s-96.032-43-96.032-96c0-53.046 43-96.046 96.032-96.046s96.032 42.998 96.032 96.046z" fill="#AC92EB" /><path d="M959.656 736.054H30.084c-23.468 0-35.828 17.938-27.468 39.876L69.88 952.24c8.376 21.936 34.422 39.874 57.89 39.874h831.886c23.468 0 42.688-19.188 42.688-42.686v-170.686c0-23.5-19.22-42.688-42.688-42.688zM917.656 95.884H192.128c-85.358 0-85.358 85.376-85.358 85.376v320.062c0 11.782 9.546 21.344 21.344 21.344h256.06c11.782 0 21.328-9.562 21.328-21.344v-106.686h597.154V183.916s0.344-88.032-85-88.032z" fill="#E6E9ED" /><path d="M842.624 501.32c0 11.782-9.562 21.344-21.344 21.344s-21.344-9.562-21.344-21.344 9.562-21.344 21.344-21.344 21.344 9.564 21.344 21.344z" fill="#967ADC" /><path d="M319.816 607.992c-11.782 0-21.328 9.562-21.328 21.376h-85.36c0-11.812-9.546-21.376-21.344-21.376-11.782 0-21.328 9.562-21.328 21.376v21.312c0 11.812 9.546 21.376 21.328 21.376h128.032c11.796 0 21.344-9.562 21.344-21.376v-21.312c0-11.814-9.546-21.376-21.344-21.376z" fill="#656D78" /><path d="M469.19 736.054H30.084c-23.468 0-35.828 17.938-27.468 39.876L69.88 952.24c8.376 21.936 34.422 39.874 57.89 39.874h341.42v-256.06zM895.968 821.428c-11.782 0-21.344 9.5-21.344 21.312v42.688c0 11.75 9.562 21.312 21.344 21.312s21.344-9.562 21.344-21.312V842.74c0-11.812-9.562-21.312-21.344-21.312z" fill="#AC92EB" /><path d="M277.144 112.792V437.32c0 11.782 9.546 21.312 21.344 21.312 11.782 0 21.328-9.532 21.328-21.312V112.792h-42.672z" fill="#CCD1D9" /><path d="M319.816 74.542h-42.672c-11.782 0-21.344 9.562-21.344 21.344s9.562 21.344 21.344 21.344h42.672c11.796 0 21.344-9.562 21.344-21.344s-9.546-21.344-21.344-21.344z" fill="#434A54" /></svg>