<?xml version="1.0" standalone="no"?><!DOCTYPE svg PUBLIC "-//W3C//DTD SVG 1.1//EN" "http://www.w3.org/Graphics/SVG/1.1/DTD/svg11.dtd"><svg class="icon" width="128px" height="128.00px" viewBox="0 0 1024 1024" version="1.1" xmlns="http://www.w3.org/2000/svg"><path d="M512 576.958c-61.132 0-137.35-10.68-226.528-31.76l9.806-41.504c85.976 20.332 158.882 30.604 216.72 30.604 55.902 0 126.014-9.618 208.398-28.636l9.586 41.536c-85.506 19.736-158.862 29.76-217.982 29.76z" fill="#E8A838" /><path d="M191.142 777.58l-37.912-19.488 324.26-630.69-11.898 116.394zM833.17 778.672L510.64 150.918l34.714-25.764 325.76 634.032z" fill="#E8A838" /><path d="M448.042 143.766h127.918v695.68h-127.918z" fill="#F6BB42" /><path d="M512 0.328c-58.87 0-106.604 47.718-106.604 106.62 0 58.836 47.734 106.556 106.604 106.556s106.62-47.72 106.62-106.556c0-58.902-47.75-106.62-106.62-106.62z m0 127.918c-11.774 0-21.314-9.556-21.314-21.298 0-11.806 9.542-21.362 21.314-21.362s21.314 9.556 21.314 21.362c0 11.742-9.54 21.298-21.314 21.298z" fill="#FFCE54" /><path d="M958.778 712.996l-19.05 6.746c-137.1 48.5-281.008 73.046-427.742 73.046-146.718 0-290.626-24.546-427.71-73.046l-19.066-6.746-60.604 146.312 20.144 7.962C179.838 928.608 343.78 959.712 512 959.712c168.206 0 332.164-31.106 487.25-92.472l20.144-7.932-60.616-146.312z" fill="#F6BB42" /><path d="M533.314 554.628c0 11.804-9.542 21.33-21.314 21.33s-21.314-9.526-21.314-21.33c0-11.774 9.542-21.33 21.314-21.33s21.314 9.558 21.314 21.33z" fill="#424953" /><path d="M512 725.208c-70.658 0-127.918 57.276-127.918 127.918v170.546h255.836v-170.546c0-70.644-57.276-127.918-127.918-127.918z" fill="#FFCE54" /><path d="M512 895.754c-23.516 0-42.644-19.144-42.644-42.628 0-23.516 19.128-42.66 42.644-42.66 23.5 0 42.628 19.144 42.628 42.66 0 23.484-19.128 42.628-42.628 42.628z" fill="#424953" /><path d="M512 789.166c-35.322 0-63.958 28.608-63.958 63.958 0 35.32 28.636 63.958 63.958 63.958 35.32 0 63.958-28.638 63.958-63.958 0-35.35-28.638-63.958-63.958-63.958z m0 85.258c-11.758 0-21.33-9.556-21.33-21.298 0-11.774 9.572-21.33 21.33-21.33s21.314 9.556 21.314 21.33c0 11.742-9.556 21.298-21.314 21.298z" fill="#F6BB42" /><path d="M128.34 796.756a21.7 21.7 0 0 0 6.386 0.966c9.072 0 17.472-5.808 20.33-14.928l11.632-37.04a1312.8 1312.8 0 0 1-40.88-12.118l-11.43 36.382c-3.528 11.248 2.734 23.208 13.962 26.738zM229.82 825.206a21.36 21.36 0 0 0 4.404 0.468c9.87 0 18.738-6.902 20.846-16.958l8.4-39.974a1264.534 1264.534 0 0 1-41.692-8.932l-8.432 40.16c-2.418 11.494 4.95 22.8 16.474 25.236zM333.13 844.1c0.952 0.124 1.888 0.188 2.81 0.188 10.54 0 19.706-7.806 21.112-18.52l5.496-41.598a1273.14 1273.14 0 0 1-42.27-5.59l-5.496 41.598c-1.546 11.648 6.668 22.392 18.348 23.922zM868.928 782.794a21.324 21.324 0 0 0 20.33 14.928c2.124 0 4.28-0.312 6.402-0.966 11.21-3.53 17.488-15.49 13.96-26.734l-11.43-36.382a1306.964 1306.964 0 0 1-40.88 12.118l11.618 37.036zM768.93 808.716c2.092 10.054 10.96 16.958 20.83 16.958 1.466 0 2.936-0.156 4.436-0.468 11.492-2.436 18.864-13.74 16.458-25.234l-8.432-40.16a1268.716 1268.716 0 0 1-41.694 8.932l8.402 39.972zM666.964 825.768c1.374 10.712 10.554 18.52 21.11 18.52 0.906 0 1.844-0.062 2.812-0.188 11.68-1.53 19.862-12.274 18.332-23.922l-5.496-41.598a1277.628 1277.628 0 0 1-42.256 5.59l5.498 41.598z" fill="#424953" /><path d="M895.754 320.124h-362.44c-23.546 0-42.628 28.638-42.628 63.958 0 35.32 19.082 63.958 42.628 63.958h362.44c23.546 0 42.628-28.638 42.628-63.958 0-35.322-19.082-63.958-42.628-63.958z" fill="#FFCE54" /><path d="M682.546 981.042H341.438c-11.774 0-21.314 9.526-21.314 21.298s9.542 21.33 21.314 21.33h341.11c11.774 0 21.33-9.556 21.33-21.33s-9.558-21.298-21.332-21.298z" fill="#424953" /></svg>