<?xml version="1.0" standalone="no"?><!DOCTYPE svg PUBLIC "-//W3C//DTD SVG 1.1//EN" "http://www.w3.org/Graphics/SVG/1.1/DTD/svg11.dtd"><svg class="icon" width="128px" height="128.00px" viewBox="0 0 1024 1024" version="1.1" xmlns="http://www.w3.org/2000/svg"><path d="M533.326 0.014h298.664v170.652H533.326z" fill="#AAB2BC" /><path d="M831.99 128.012H533.326l-127.996 127.996 85.342 767.978h384.004l85.312-767.978z" fill="#E6E9ED" /><path d="M466.968 810.65h431.396l37.936-341.336H429.034z" fill="#5D9CEC" /><path d="M831.99 128.012H533.326l-127.996 127.996h554.658z" fill="#CCD1D9" /><path d="M575.996 639.998c0 11.782-9.56 21.312-21.342 21.312s-21.328-9.532-21.328-21.312 9.546-21.344 21.328-21.344 21.342 9.562 21.342 21.344zM661.308 639.998c0 11.782-9.532 21.312-21.312 21.312s-21.312-9.532-21.312-21.312 9.532-21.344 21.312-21.344 21.312 9.562 21.312 21.344zM746.648 639.998c0 11.782-9.532 21.312-21.344 21.312-11.75 0-21.31-9.532-21.31-21.312s9.56-21.344 21.31-21.344c11.814 0 21.344 9.562 21.344 21.344zM831.99 639.998c0 11.782-9.56 21.312-21.342 21.312s-21.344-9.532-21.344-21.312 9.562-21.344 21.344-21.344 21.342 9.562 21.342 21.344zM618.652 576c0 11.78-9.532 21.31-21.344 21.31-11.75 0-21.312-9.532-21.312-21.31 0-11.782 9.562-21.344 21.312-21.344 11.814 0 21.344 9.562 21.344 21.344zM703.994 576c0 11.78-9.562 21.31-21.344 21.31-11.78 0-21.342-9.532-21.342-21.31 0-11.782 9.562-21.344 21.342-21.344 11.782 0 21.344 9.562 21.344 21.344zM789.304 576c0 11.78-9.532 21.31-21.312 21.31S746.648 587.78 746.648 576c0-11.782 9.562-21.344 21.344-21.344s21.312 9.562 21.312 21.344zM618.652 703.996c0 11.782-9.532 21.31-21.344 21.31-11.75 0-21.312-9.53-21.312-21.31s9.562-21.344 21.312-21.344c11.814 0 21.344 9.562 21.344 21.344zM703.994 703.996c0 11.782-9.562 21.31-21.344 21.31-11.78 0-21.342-9.53-21.342-21.31s9.562-21.344 21.342-21.344c11.782 0 21.344 9.562 21.344 21.344zM789.304 703.996c0 11.782-9.532 21.31-21.312 21.31s-21.344-9.53-21.344-21.31 9.562-21.344 21.344-21.344 21.312 9.562 21.312 21.344z" fill="#4A89DC" /><path d="M639.996 21.326A21.3 21.3 0 0 0 661.308 0.014h-42.624a21.3 21.3 0 0 0 21.312 21.312zM725.304 21.326c11.812 0 21.376-9.532 21.376-21.312h-42.686c0 11.78 9.56 21.312 21.31 21.312zM405.33 1023.986H64.012v-127.996l42.67-255.992h255.994l42.654 255.992z" fill="#CCD1D9" /><path d="M362.676 639.998h-42.672l42.672 255.992v127.996h42.654v-127.996zM831.99 128.012h-42.686l127.996 127.996-85.31 767.978h42.686l85.312-767.978z" fill="#FFFFFF" opacity=".2" /></svg>