<?xml version="1.0" standalone="no"?><!DOCTYPE svg PUBLIC "-//W3C//DTD SVG 1.1//EN" "http://www.w3.org/Graphics/SVG/1.1/DTD/svg11.dtd"><svg class="icon" width="128px" height="128.00px" viewBox="0 0 1024 1024" version="1.1" xmlns="http://www.w3.org/2000/svg"><path d="M746.652 556.78c11.782 0 21.344-9.532 21.344-21.342 0-11.75-9.562-21.312-21.344-21.312s-21.344 9.562-21.344 21.312c0 11.81 9.564 21.342 21.344 21.342zM746.652 597.342c-11.782 0-21.344 9.562-21.344 21.344s9.562 21.31 21.344 21.31 21.344-9.53 21.344-21.31-9.562-21.344-21.344-21.344zM746.652 680.558c-11.782 0-21.344 9.562-21.344 21.344s9.562 21.312 21.344 21.312 21.344-9.532 21.344-21.312-9.562-21.344-21.344-21.344zM277.316 514.124c-11.782 0-21.312 9.562-21.312 21.312 0 11.81 9.532 21.342 21.312 21.342s21.344-9.532 21.344-21.342c0-11.748-9.562-21.312-21.344-21.312zM277.316 597.342c-11.782 0-21.312 9.562-21.312 21.344s9.532 21.31 21.312 21.31 21.344-9.53 21.344-21.31-9.562-21.344-21.344-21.344zM277.316 680.558c-11.782 0-21.312 9.562-21.312 21.344s9.532 21.312 21.312 21.312 21.344-9.532 21.344-21.312-9.562-21.344-21.344-21.344z" fill="#37BC9B" /><path d="M512 0.008c-70.688 0-127.998 57.312-127.998 127.998v149.342c0 11.78 9.532 21.342 21.312 21.342h213.34c11.782 0 21.344-9.562 21.344-21.342V128.006C639.998 57.32 582.688 0.008 512 0.008z" fill="#E6E9ED" /><path d="M469.312 106.694A21.3 21.3 0 0 0 448 128.006v105.78h42.656v-105.78c0-11.782-9.562-21.312-21.344-21.312z" fill="#F5F7FA" /><path d="M256.004 320.002l21.312 234.684v170.654l-21.312 277.34a21.3 21.3 0 0 0 21.312 21.312h469.336c11.782 0 21.344-9.532 21.344-21.312l-21.344-277.34v-170.654l21.344-234.684S719.62 213.348 512 213.348s-255.996 106.654-255.996 106.654z" fill="#48CFAD" /><path d="M384.002 469.344h255.996v341.338H384.002z" fill="#F5F7FA" /></svg>