<?xml version="1.0" standalone="no"?><!DOCTYPE svg PUBLIC "-//W3C//DTD SVG 1.1//EN" "http://www.w3.org/Graphics/SVG/1.1/DTD/svg11.dtd"><svg class="icon" width="128px" height="128.00px" viewBox="0 0 1024 1024" version="1.1" xmlns="http://www.w3.org/2000/svg"><path d="M810.684 725.34s-128.438-0.094-128.062 127.246c0.282 88.5 128.438 0.75 128.438 0.75l-0.376-127.996z" fill="#CCD1D9" /><path d="M469.344 192.004c0 11.78-9.562 21.342-21.344 21.342H234.692c-11.782 0-21.344-9.562-21.344-21.342V21.352c0-11.782 9.562-21.344 21.344-21.344H448c11.782 0 21.344 9.562 21.344 21.344v170.652z" fill="#656D78" /><path d="M448 106.694c0-11.782 9.562-21.344 21.344-21.344V42.696c-35.28 0-63.998 28.686-63.998 63.998 0 35.282 28.718 64 63.998 64V128.006c-11.782 0-21.344-9.532-21.344-21.312z" fill="#434A54" /><path d="M467.812 170.692H213.348l-85.342 85.312V1002.68c0 11.782 9.562 21.312 21.344 21.312h383.994c11.782 0 21.344-9.532 21.344-21.312V256.004l-86.876-85.312z" fill="#5D9CEC" /><path d="M789.34 810.682h-85.344c-35.342 0-63.998 28.624-63.998 63.998 0 35.344 28.656 64 63.998 64h85.344c35.344 0 63.998-28.656 63.998-64 0-35.374-28.654-63.998-63.998-63.998z" fill="#E6E9ED" /><path d="M831.996 895.992h-170.654c-35.344 0-63.998 28.656-63.998 64s28.654 64 63.998 64h170.654c35.342 0 63.998-28.656 63.998-64s-28.656-64-63.998-64zM341.346 426.688h213.342v341.308H341.346z" fill="#F5F7FA" /></svg>