<?xml version="1.0" standalone="no"?><!DOCTYPE svg PUBLIC "-//W3C//DTD SVG 1.1//EN" "http://www.w3.org/Graphics/SVG/1.1/DTD/svg11.dtd"><svg class="icon" width="128px" height="128.00px" viewBox="0 0 1024 1024" version="1.1" xmlns="http://www.w3.org/2000/svg"><path d="M1019.034 458.008L805.73 202.02a21.32 21.32 0 0 0-16.376-7.688l-251.366-0.062c-0.25-0.094-0.468-0.188-0.718-0.282-4.404-1.876-9.28-3.624-14.436-5.25-16.124-5.032-33.53-8.188-51.716-9.376a205.04 205.04 0 0 0-12.344-0.376c-63.966 0-102.746 32.876-118.902 50.498a141.008 141.008 0 0 0-11.968-0.532c-60.528 0-95.34 39.282-109.652 60.436a146.036 146.036 0 0 0-6.374-0.124c-70.09 0-104.372 43.686-116.932 65.152-41.436 9.094-58.654 45.782-71.498 73.216-5.812 12.406-11.31 24.092-17.374 30.31a21.5 21.5 0 0 0-5.968 16.782 21.222 21.222 0 0 0 8.876 15.468l597.32 425.468a21.04 21.04 0 0 0 12.376 4c0.688 0 1.406-0.062 2.124-0.124 5.376-0.562 53.496-6.062 75.278-33 5.906-7.312 9.5-15.624 10.688-24.436 11.75-10.75 31.592-32.75 35.28-60.998 1.688-13.062-0.344-26-5.938-38.124 11.75-13.188 26.376-34.874 24.562-59.56-1-13.312-7.188-31.936-30.374-47.936l-22.688-52.996c99.558 2.562 202.868 19.688 203.96 19.876 4.5 0.75 9.094 0.062 13.154-2l87.558-44.312c7.188-3.688 11.688-10.998 11.688-19.06v-85.326c0-5-1.75-9.812-4.936-13.656z" fill="#E6E9ED" /><path d="M21.45 496.07a21.344 21.344 0 0 1 5.968-16.812c6.032-6.188 11.532-17.906 17.342-30.28 12.876-27.438 30.062-64.154 71.498-73.248 12.594-21.438 46.872-65.124 116.932-65.124 2.124 0 4.25 0.032 6.376 0.124 14.374-21.154 49.124-60.434 109.682-60.434 3.938 0 7.938 0.156 11.936 0.5 16.188-17.594 54.936-50.498 118.932-50.498 4.062 0 8.188 0.124 12.312 0.406 18.218 1.188 35.624 4.344 51.748 9.376 5.156 1.624 10 3.376 14.438 5.218 0.25 0.124 0.5 0.218 0.718 0.312l251.334 0.062c2.624 0 5.218 0.5 7.624 1.438l-12.562-15.094a21.32 21.32 0 0 0-16.376-7.688l-251.366-0.062c-0.25-0.094-0.468-0.188-0.718-0.282-4.404-1.876-9.28-3.624-14.436-5.25-16.124-5.032-33.53-8.188-51.716-9.376a205.04 205.04 0 0 0-12.344-0.376c-63.966 0-102.746 32.876-118.902 50.498a141.008 141.008 0 0 0-11.968-0.532c-60.528 0-95.34 39.282-109.652 60.436a146.036 146.036 0 0 0-6.374-0.124c-70.09 0-104.372 43.686-116.932 65.152-41.436 9.094-58.654 45.782-71.498 73.216-5.812 12.406-11.31 24.092-17.374 30.31a21.5 21.5 0 0 0-5.968 16.782 21.222 21.222 0 0 0 8.876 15.468l13.092 9.344a24.886 24.886 0 0 1-0.622-3.462z" fill="#FFFFFF" opacity=".3" /><path d="M981.286 471.664c0 11.782 9.562 21.312 21.31 21.312h21.376v-21.312c0-5-1.75-9.812-4.938-13.656l-6.376-7.686h-10.062c-11.748 0-21.31 9.56-21.31 21.342z" fill="#EC87C0" /><path d="M701.234 118.586c-7.156-9.188-17.218-14.25-28.312-14.25-22.498 0-46.808 20.466-78.838 66.34-20.376 29.218-36.188 57.966-36.844 59.186-3.282 6-3.5 13.188-0.594 19.376a21.348 21.348 0 0 0 15.312 11.844l103.12 19.56a21.58 21.58 0 0 0 3.968 0.376c8.5 0 16.376-5.092 19.688-13.186 4.25-10.19 40.124-100.874 2.5-149.246z" fill="#E6E9ED" /><path d="M767.98 322.326c0 11.782-9.53 21.344-21.31 21.344s-21.342-9.562-21.342-21.344 9.562-21.342 21.342-21.342c11.782 0 21.31 9.56 21.31 21.342z" fill="#656D78" /><path d="M578.708 194.3l-40.718-0.03 19.25 35.592zM707.61 602.488l-138.494-20.438 161.18 73.434zM907.976 549.302l85.09 36.436 0.718-0.376c0.438-0.188 1.062-0.5 1.904-0.938l16.594-8.376c6.282-3.188 9.906-9.436 10.876-16.248l-115.182-10.498z" opacity=".1" /></svg>