<?xml version="1.0" standalone="no"?><!DOCTYPE svg PUBLIC "-//W3C//DTD SVG 1.1//EN" "http://www.w3.org/Graphics/SVG/1.1/DTD/svg11.dtd"><svg class="icon" width="128px" height="128.00px" viewBox="0 0 1024 1024" version="1.1" xmlns="http://www.w3.org/2000/svg"><path d="M703.994 646.738H320.006c-58.81 0-106.652 47.876-106.652 106.684v85.308c0 58.876 47.84 106.684 106.652 106.684h383.988c58.808 0 106.652-47.808 106.652-106.684v-85.308c0-58.808-47.844-106.684-106.652-106.684z" fill="#FC6E51" /><path d="M981.078 296.702c-26.782-46.874-65.404-87.84-114.81-121.808-94.028-64.624-222.802-100.248-362.58-100.248-69.06 0-134.588 8.624-194.806 25.562-60.81 17.156-114.622 42.374-159.87 74.966-47.03 33.874-83.686 74.934-108.966 121.996C13.486 346.638 0.016 401.854 0.016 461.29c0 57.562 27.498 119.324 81.684 183.574 41.842 49.624 99.904 101.184 172.556 153.242 122.748 88.062 243.398 146.622 248.46 149.122 2.938 1.376 6.094 2.124 9.282 2.124s6.344-0.75 9.282-2.124c5.062-2.5 125.714-61.058 248.458-149.122 72.654-52.058 130.714-103.618 172.558-153.242 54.184-64.25 81.684-126.012 81.684-183.574 0.002-59.434-14.436-114.808-42.902-164.588z" fill="#FFCE54" /><path d="M519.124 74.804L512 96.022v639.962l51.936 3 166.898-607.308 3.844-21.186c-65.556-21.968-138.744-34.218-215.554-35.686zM285.944 107.178c-51.466 16.75-97.434 39.562-136.932 67.998-19.688 14.186-37.53 29.624-53.5 46.248l10.124 20.342 301.272 508.78 53.154-11.562-168.024-611.338-6.094-20.468zM0.392 444.352a379.684 379.684 0 0 0-0.376 16.938c0 57.562 27.498 119.324 81.684 183.574 41.842 49.624 99.904 101.184 172.556 153.242a1516.344 1516.344 0 0 0 49.124 33.876c30.03 2.188 53.53 4 53.53 4v-59.184L21.516 449.79 0.392 444.352zM1022.42 427.916c-4.406-46.842-18.282-90.872-41.342-131.214-12.094-21.156-26.594-41.092-43.404-59.716l-21.376 8.282-299.052 504.966 51.094 25.312 334.112-325.756s8.124-8.906 19.968-21.874z" fill="#F6BB42" /><path d="M320.006 881.418c-11.78 0-21.342 9.562-21.342 21.312v40.558a109.06 109.06 0 0 0 21.342 2.124h21.344v-42.684c0-11.748-9.562-21.31-21.344-21.31zM703.994 881.418c-11.782 0-21.342 9.562-21.342 21.312v42.684h21.342c7.31 0 14.434-0.75 21.34-2.124v-40.558c0-11.752-9.56-21.314-21.34-21.314z" fill="#E9573F" /><path d="M512 949.352c3.188 0 6.344-0.75 9.282-2.124 4.468-2.188 98.122-47.684 204.052-118.372-0.032-0.062-41.746-96.746-213.334-96.746-171.62 0-208.618 99.872-208.618 99.872 103.966 68.938 194.962 113.122 199.336 115.246 2.938 1.374 6.094 2.124 9.282 2.124z" fill="#E6E9ED" /></svg>