<?xml version="1.0" standalone="no"?><!DOCTYPE svg PUBLIC "-//W3C//DTD SVG 1.1//EN" "http://www.w3.org/Graphics/SVG/1.1/DTD/svg11.dtd"><svg class="icon" width="128px" height="128.00px" viewBox="0 0 1024 1024" version="1.1" xmlns="http://www.w3.org/2000/svg"><path d="M920.422 815.362l-3.624-1.062c-52.938-14.216-70.874-27.874-94.436-36.81-83.59-31.874-105.306-54.808-110.87-65.652-0.218-0.406-0.376-0.812-0.562-1.218l-0.686-97.09L512 611.278l-198.258 2.25-0.688 97.09c-0.188 0.406-0.344 0.812-0.546 1.218-5.562 10.844-27.296 33.78-110.902 65.652-23.562 8.938-41.466 22.594-94.402 36.81l-3.64 1.062c-48.186 15.938-80.606 60.624-80.606 111.058v97.56h978.084v-97.56c0-50.432-32.436-95.12-80.62-111.056z" fill="#DA4453" /><path d="M512 779.364l-133.042 61.31 134.652 183.306 142.666-200.182z" fill="#CCD1D9" /><path d="M636.556 883.362l74.936-171.526c-0.218-0.406-0.376-0.812-0.562-1.218l-0.686-97.09L512 611.278l-198.258 2.25-0.688 97.09c-0.188 0.406-0.344 0.812-0.546 1.218l78.152 171.526 122.95-91.686 122.946 91.686z" fill="#E6E9ED" /><path d="M787.082 426.378c0 178.744-170.398 343.238-275.082 343.238-104.7 0-275.1-164.494-275.1-343.238 0-178.742 123.168-296.674 275.1-296.674s275.082 117.932 275.082 296.674z" fill="#EAC6BB" /><path d="M513.61 1023.98L313.054 710.618l-55.434 67.558 65.106 49.966-11.64 48zM513.61 1023.98l197.32-313.362 58.246 67.558-65.12 49.966 11.624 48z" fill="#ED5564" /><path d="M534.936 869.706c0 11.782-9.546 21.342-21.326 21.342-11.782 0-21.328-9.56-21.328-21.342s9.546-21.312 21.328-21.312c11.778-0.002 21.326 9.53 21.326 21.312z" fill="#FFCE54" /><path d="M999.98 269.352c-7.906-2.468-18.188-3.624-32.312-3.624-28.06 0-69.746 4.594-122.494 10.406-86.374 9.5-204.618 22.532-333.174 22.532-128.604 0-246.85-13.032-333.19-22.532-52.748-5.812-94.418-10.406-122.496-10.406-14.124 0-24.39 1.156-32.312 3.624C1.738 276.29 0.02 293.54 0.02 298.666c0 17.78 14.952 35.124 48.498 56.28 28.156 17.75 65.888 35.624 109.122 51.622 63.2 23.436 193.29 62.748 354.362 62.748 161.056 0 291.144-39.312 354.36-62.748 43.218-16 80.936-33.874 109.122-51.622 33.532-21.156 48.5-38.5 48.5-56.28-0.004-5.126-1.754-22.376-24.004-29.314z" fill="#7F4545" /><path d="M575.966 405.348c-4.468 0-8.938-1.406-12.782-4.282l-85.326-63.998c-9.422-7.094-11.328-20.468-4.266-29.874 7.078-9.436 20.436-11.342 29.874-4.28l85.342 64.028c9.406 7.062 11.31 20.436 4.25 29.874a21.31 21.31 0 0 1-17.092 8.532z" fill="#FFCE54" /><path d="M447.94 405.316a21.27 21.27 0 0 1-17.078-8.532c-7.062-9.436-5.156-22.81 4.28-29.874l85.386-63.998c9.422-7.062 22.796-5.156 29.844 4.28 7.094 9.438 5.188 22.812-4.25 29.874l-85.404 63.998a21.186 21.186 0 0 1-12.778 4.252z" fill="#FFCE54" /><path d="M789.114 317.164c-0.438-3.312-11.062-60.936-32.5-141.338-12.81-47.998-26.874-86.558-41.808-114.526C693.12 20.614 667.932 0.02 639.994 0.02H384.004c-27.968 0-53.138 20.594-74.826 61.28-14.922 27.968-28.984 66.53-41.796 114.526-21.436 80.404-32.076 138.026-32.53 141.338a21.356 21.356 0 0 0 5.092 16.874 21.376 21.376 0 0 0 16.062 7.282h511.978c6.124 0 12-2.656 16.062-7.282a21.378 21.378 0 0 0 5.068-16.874z" fill="#965353" /><path d="M631.15 152.546a21.42 21.42 0 0 0-17.216-14.53l-57.216-8.312-25.594-51.842A21.35 21.35 0 0 0 512 65.956a21.356 21.356 0 0 0-19.14 11.906l-25.592 51.842-57.202 8.312a21.4 21.4 0 0 0-17.234 14.53 21.384 21.384 0 0 0 5.406 21.874l41.404 40.342-9.78 56.998c-1.376 8 1.922 16.094 8.484 20.844a21.312 21.312 0 0 0 22.468 1.624L512 267.322l51.186 26.906a21.052 21.052 0 0 0 9.906 2.468h0.094c11.75-0.032 21.25-9.562 21.25-21.344 0-1.624-0.156-3.218-0.5-4.718l-9.594-55.874 41.404-40.342a21.38 21.38 0 0 0 5.404-21.872z" fill="#FFCE54" /></svg>