<?xml version="1.0" standalone="no"?><!DOCTYPE svg PUBLIC "-//W3C//DTD SVG 1.1//EN" "http://www.w3.org/Graphics/SVG/1.1/DTD/svg11.dtd"><svg class="icon" width="128px" height="128.00px" viewBox="0 0 1024 1024" version="1.1" xmlns="http://www.w3.org/2000/svg"><path d="M974.887662 200.393256l-0.155997-2.671963c-0.405994-21.013712-17.187765-38.155478-37.811483-38.513473-75.21497-2.983959-263.990386-23.483678-398.73654-148.589965a19.449734 19.449734 0 0 0-2.687964-2.109971c-0.905988-0.859988-1.905974-1.639978-2.999959-2.343968A38.573472 38.573472 0 0 0 512.307996 0.008h-0.71799c-9.49987 0.139998-18.593745 3.859947-25.62365 10.499856C351.064203 135.676142 162.568784 156.207861 87.445813 159.20782c-20.905714 0.359995-37.905481 17.609759-38.185477 38.73347l-0.155998 4.311941a12.459829 12.459829 0 0 0 0 1.545979c13.093821 375.004866 236.274765 665.934882 440.767965 813.114867 0.061999 0.032 0.123998 0.061999 0.187997 0.123998a38.00548 38.00548 0 0 0 21.9377 6.937905c7.937891 0 15.531787-2.437967 21.9057-6.937905l2.717963-1.937973c0.061999-0.061999 0.155998-0.123998 0.249996-0.187998 112.434461-81.560883 215.743046-195.74332 290.930017-321.491598 43.247408-72.371009 77.622937-148.743963 102.088602-227.022892 26.905632-85.980823 42.031425-174.837606 45.031384-264.132383-0.002-0.621991-0.002-1.245983-0.034-1.871975z" fill="#F6BB42" /><path d="M889.296834 220.064987c-50.529308-4.905933-100.246627-14.327804-147.683978-28.013616-83.434858-24.09167-156.211861-60.499172-216.337038-108.230519-7.781893-6.169916-18.781743-6.169916-26.531637-0.015999-60.155176 47.717347-132.93418 84.122848-216.275038 108.214518-47.529349 13.733812-97.246669 23.171683-147.837976 28.061616-11.561842 1.123985-20.123724 11.343845-19.187738 22.937686 5.561924 69.685046 19.155738 139.090096 40.311448 206.275176 23.217682 73.606992 55.749237 145.450009 96.714676 213.571075 64.341119 107.030535 151.871921 206.747169 246.368627 280.742157a21.239709 21.239709 0 0 0 26.31164 0c67.561075-52.901276 165.463735-145.088014 248.148602-283.738116 78.092931-130.904208 123.590308-271.164287 135.214149-416.880292 0.939987-11.595841-7.621896-21.799702-19.215737-22.923686z" fill="#FFCE54" /><path d="M511.996 810.672901c-11.781839 0-21.343708-9.561869-21.343708-21.375708V234.672787c0-11.781839 9.561869-21.341708 21.343708-21.341708s21.343708 9.561869 21.343708 21.341708v554.624406c0 11.813838-9.561869 21.375707-21.343708 21.375708z" fill="#FFFFFF" opacity=".2" /></svg>