<?xml version="1.0" standalone="no"?><!DOCTYPE svg PUBLIC "-//W3C//DTD SVG 1.1//EN" "http://www.w3.org/Graphics/SVG/1.1/DTD/svg11.dtd"><svg class="icon" width="128px" height="128.00px" viewBox="0 0 1024 1024" version="1.1" xmlns="http://www.w3.org/2000/svg"><path d="M205.04 399.192h615.982v601.292H205.04z" fill="#ED5564" /><path d="M755.18 422.408L541.874 262.54l25.562-34.158 213.366 159.904z" fill="#434A54" /><path d="M568.436 127.512a1400.906 1400.906 0 0 0-16.812-16.032l-2.562-2.406 17.124-45.06 0.438-63.998h-109.792l0.062 63.998 18.654 67.374a8.446 8.446 0 0 0 2.532 3.812l41.966 38.03c9.594 9.906 9.5 25.532 0 35.03-9.358 9.376-25.732 9.312-35.044 0.032l-48.624-35.498c-1.406-1.282-3.422-2.094-5.532-2.094a8.346 8.346 0 0 0-8.094 6.282c-2.734 8.938-4.094 17.906-4.094 27 0 50.28 43.094 80.214 93.342 80.214s91.124-40.874 91.124-91.152c0-11.812-0.876-24.344-7.25-35.688-1.438-2.94-5.626-8.69-27.438-29.844z" fill="#FFCE54" /><path d="M256.024 426.69a21.322 21.322 0 0 1-17.094-8.532c-7.062-9.436-5.14-22.81 4.282-29.874l255.992-191.87a21.34 21.34 0 0 1 29.874 4.282c7.062 9.436 5.14 22.81-4.282 29.874l-255.99 191.838a21.092 21.092 0 0 1-12.782 4.282z" fill="#656D78" /><path d="M192.01 384.004v639.98h639.98v-639.98H192.01z m85.324 42.686h511.97v42.656H234.68v-42.656h42.654zM234.68 853.334V512h42.654v383.988H234.68v-42.654zM703.994 512v30.188l-27.562 27.56a21.284 21.284 0 0 0 6.25-15.062c0-11.78-9.562-21.342-21.376-21.342a21.208 21.208 0 0 0-15.062 6.25L673.806 512h30.188z m-90.498 0l-37.498 37.498V512h37.498z m-80.17 80.186l-42.654 42.654V512h42.654v80.186z m-85.324 85.31l-42.672 42.686V512h42.672v165.496z m-85.326 85.34l-42.67 42.656V512h42.67v250.836z m-42.67 133.152v-30.156l326.238-326.208a21.144 21.144 0 0 0-6.248 15.06c0 11.782 9.56 21.312 21.31 21.312 5.906 0 11.25-2.376 15.124-6.218l-298.66 298.648a21.344 21.344 0 0 0 6.234-15.092c0-11.782-9.546-21.344-21.328-21.344s-21.344 9.562-21.344 21.344c0 11.78 9.562 21.342 21.344 21.342a21.22 21.22 0 0 0 15.078-6.25l-27.578 27.562h-30.17z m127.996-37.468v37.468h-37.484l37.484-37.468z m42.67-42.652l42.654-42.688v122.808h-42.654v-80.12z m85.326-85.344l42.686-42.654v208.12h-42.686v-165.466z m85.308-85.34l42.688-42.656v293.46h-42.688V645.184z m85.374 208.212c0 11.748 9.562 21.28 21.312 21.28 11.78 0 21.31-9.562 21.31-21.342 0-11.782-9.532-21.344-21.31-21.344-11.75 0-21.312 9.532-21.312 21.312V554.748c0 11.75 9.562 21.25 21.312 21.25 11.78 0 21.31-9.532 21.31-21.312 0-11.78-9.532-21.342-21.31-21.342-11.75 0-21.312 9.532-21.312 21.28V512h42.624v383.988H746.68v-42.592z m0 127.934h-512v-42.654H789.304v42.654H746.68z" fill="#DA4453" /><path d="M725.306 448.002c0 11.812 9.562 21.344 21.374 21.344 11.75 0 21.312-9.532 21.312-21.344 0-11.75-9.562-21.312-21.312-21.312-11.81 0-21.374 9.562-21.374 21.312zM256.008 448.002c0 11.812 9.546 21.344 21.326 21.344 11.782 0 21.344-9.532 21.344-21.344 0-11.75-9.562-21.312-21.344-21.312-11.78 0-21.326 9.562-21.326 21.312zM256.008 575.998c11.782 0 21.326-9.532 21.326-21.312 0-11.78-9.544-21.342-21.326-21.342s-21.328 9.562-21.328 21.342 9.546 21.312 21.328 21.312zM256.008 874.676c11.782 0 21.326-9.562 21.326-21.342 0-11.782-9.544-21.344-21.326-21.344s-21.328 9.562-21.328 21.344c0 11.78 9.546 21.342 21.328 21.342zM298.678 959.986c0-11.748-9.562-21.31-21.344-21.31-11.78 0-21.326 9.562-21.326 21.31 0 11.812 9.546 21.344 21.326 21.344 11.782 0 21.344-9.532 21.344-21.344zM767.992 959.986c0-11.748-9.562-21.31-21.312-21.31-11.81 0-21.374 9.562-21.374 21.31 0 11.812 9.562 21.344 21.374 21.344 11.75 0 21.312-9.532 21.312-21.344z" fill="#DA4453" /></svg>