<?xml version="1.0" standalone="no"?><!DOCTYPE svg PUBLIC "-//W3C//DTD SVG 1.1//EN" "http://www.w3.org/Graphics/SVG/1.1/DTD/svg11.dtd"><svg class="icon" width="128px" height="128.00px" viewBox="0 0 1024 1024" version="1.1" xmlns="http://www.w3.org/2000/svg"><path d="M961.79414 487.354s-59.812 31.528-43.594 57.762c65.718 106.246 31.406 204.304-386.286 222.868-336.658 14.936-452.092-51-495.792-79.436h-0.046c-3.828-3.626-9-5.938-14.704-5.938-11.782 0-21.326 9.56-21.326 21.376-1.516 58.996 68.654 221.68 127.51 277.302h726.212s149.246-89.436 168.246-273.302c14.964-144.87-60.22-220.632-60.22-220.632z" fill="#965353" /><path d="M92.80614 938.602c11.61 17.19 23.39 31.938 34.748 42.688h726.212s23.528-14.126 53.152-42.688H92.80614z" opacity=".1" /><path d="M941.67014 598.238c7.032-25.998-0.376-54.326-16.312-83.512-8.438 9.532-13.376 20.342-7.156 30.388 11.186 18.064 19.468 35.876 23.468 53.124z"  /><path d="M490.65214 42.71c-11.78 0-21.326 9.532-21.326 21.342v698.492h42.654V64.052a21.32 21.32 0 0 0-21.328-21.342z" fill="#7F4545" /><path d="M277.34814 874.792c-35.294 0-63.998-28.75-63.998-64 0-35.31 28.704-63.996 63.998-63.996 35.28 0 63.998 28.686 63.998 63.996 0 35.25-28.718 64-63.998 64zM490.65214 874.48c-35.28 0-63.998-28.75-63.998-63.998 0-35.312 28.718-64 63.998-64s64.002 28.688 64.002 64c0 35.248-28.722 63.998-64.002 63.998zM703.99014 874.792c-35.312 0-63.996-28.75-63.996-64 0-35.31 28.684-63.996 63.996-63.996 35.25 0 63.964 28.686 63.964 63.996 0.002 35.25-28.714 64-63.964 64z" fill="#F5BA45" /><path d="M277.34814 725.484c-47.124 0-85.326 38.186-85.326 85.308 0 47.126 38.204 85.31 85.326 85.31s85.326-38.186 85.326-85.31c0-47.122-38.204-85.308-85.326-85.308z m0 127.934c-23.532 0-42.67-19.126-42.67-42.626 0-23.56 19.138-42.686 42.67-42.686 23.516 0 42.654 19.126 42.654 42.686 0 23.5-19.138 42.626-42.654 42.626zM490.65214 725.172c-47.124 0-85.324 38.188-85.324 85.31s38.202 85.308 85.324 85.308 85.342-38.186 85.342-85.308-38.218-85.31-85.342-85.31z m0 127.934c-23.514 0-42.654-19.126-42.654-42.624 0-23.562 19.14-42.686 42.654-42.686 23.534 0 42.67 19.124 42.67 42.686 0 23.498-19.136 42.624-42.67 42.624zM703.99014 725.484c-47.126 0-85.34 38.186-85.34 85.308 0 47.126 38.214 85.31 85.34 85.31 47.122 0 85.308-38.186 85.308-85.31 0-47.122-38.186-85.308-85.308-85.308z m0 127.934c-23.562 0-42.688-19.126-42.688-42.626 0-23.56 19.126-42.686 42.688-42.686 23.5 0 42.622 19.126 42.622 42.686 0 23.5-19.122 42.626-42.622 42.626z" fill="#FECD57" /><path d="M981.29414 533.32c0 35.358-28.688 63.98-64 63.98-35.372 0-63.996-28.624-63.996-63.98 0-35.344 28.626-63.998 63.996-63.998 35.314 0 64 28.654 64 63.998z" fill="#A85D5D" /><path d="M725.30214 810.482c0 11.748-9.562 21.31-21.312 21.31-11.812 0-21.376-9.562-21.376-21.31a21.366 21.366 0 0 1 21.376-21.376c11.75 0.002 21.312 9.564 21.312 21.376zM511.98014 810.482c0 11.748-9.546 21.31-21.328 21.31-11.78 0-21.326-9.562-21.326-21.31 0-11.812 9.546-21.376 21.326-21.376 11.782 0.002 21.328 9.564 21.328 21.376zM298.67414 810.792c0 11.752-9.544 21.314-21.326 21.314s-21.328-9.562-21.328-21.314c0-11.81 9.546-21.31 21.328-21.31s21.326 9.5 21.326 21.31z" fill="#FECD57" /><path d="M469.32614 106.708h42.654v21.31h-42.654zM469.32614 653.238h42.654v21.374h-42.654z" opacity=".1" /><path d="M802.67414 274.016c-21.156-56.842-55.372-104.372-101.684-141.338a21.43 21.43 0 0 0-13.312-4.658H170.69614a21.338 21.338 0 0 0-19.126 11.906 21.356 21.356 0 0 0 2.172 22.406c69.404 90.746 97.45 200.336 83.374 325.676-10.64 94.792-42.718 163.478-43.032 164.168a21.32 21.32 0 0 0 2.782 22.686 21.354 21.354 0 0 0 16.484 7.81c1.75 0 3.5-0.248 5.234-0.686 72.764-18.438 157.15-27.81 250.79-27.81 159.996 0 292.864 27.748 294.18 27.996 6.032 1.314 12.308-0.124 17.246-3.81a21.22 21.22 0 0 0 8.254-13.938c0.402-1.562 1.684-5.938 2.872-9.812 9.968-33.56 36.468-122.634 36.594-223.726 0.092-57.844-8.628-110.622-25.846-156.87z" fill="#EC5564" /><path d="M802.67414 274.016c-21.156-56.842-55.372-104.372-101.684-141.338a21.43 21.43 0 0 0-13.312-4.658H645.02214c4.848 0 9.532 1.658 13.282 4.658 46.344 36.966 80.562 84.496 101.714 141.338 17.218 46.248 25.906 99.028 25.844 156.87-0.126 101.092-26.626 190.166-36.622 223.726-1.128 3.876-2.438 8.25-2.848 9.812a21.606 21.606 0 0 1-7.372 13.188c15.468 2.688 24.188 4.5 24.532 4.56 6.032 1.314 12.308-0.124 17.246-3.81a21.22 21.22 0 0 0 8.254-13.938c0.402-1.562 1.684-5.938 2.872-9.812 9.968-33.56 36.468-122.634 36.594-223.726 0.094-57.844-8.626-110.622-25.844-156.87z" fill="#FFFFFF" opacity=".2" /></svg>