<?xml version="1.0" standalone="no"?><!DOCTYPE svg PUBLIC "-//W3C//DTD SVG 1.1//EN" "http://www.w3.org/Graphics/SVG/1.1/DTD/svg11.dtd"><svg class="icon" width="128px" height="128.00px" viewBox="0 0 1024 1024" version="1.1" xmlns="http://www.w3.org/2000/svg"><path d="M851.799336 36.433929a21.331958 21.331958 0 0 0 0-30.187941c-8.311984-8.311984-21.811957-8.311984-30.155941 0v0.032L80.288843 747.62054l30.155941 30.187941L851.799336 36.433929zM1017.733012 172.179664c-8.311984-8.311984-21.811957-8.311984-30.155941 0v0.032L232.690546 927.084189l30.155941 30.187941 754.918525-754.904525h-0.032a21.331958 21.331958 0 0 0 0-30.187941z" fill="#CCD1D9" /><path d="M868.049305 442.581136c-16.655967 16.655967-43.687915 16.655967-60.343883 0l-60.341882-60.341883c-16.655967-16.685967-16.655967-43.685915 0-60.341882l59.185885-59.185884c16.655967-16.687967 43.687915-16.655967 60.343882 0l60.341882 60.341882c16.653967 16.655967 16.653967 43.655915 0 60.341882l-59.185884 59.185885z" fill="#965353" /><path d="M927.235189 323.051369l-60.341882-60.341882c-11.061978-11.061978-26.687948-14.781971-40.84392-11.155978a42.483917 42.483917 0 0 1 19.499962 11.155978l60.341882 60.341882c16.687967 16.655967 16.687967 43.655915 0 60.341882l-59.185885 59.185885a42.419917 42.419917 0 0 1-19.499962 11.123978c14.155972 3.623993 29.781942-0.062 40.843921-11.123978l59.185884-59.185885c16.653967-16.685967 16.653967-43.685915 0-60.341882z" fill="#FFFFFF" opacity=".2" /><path d="M109.288787 748.806537c-12.499976-12.499976-28.875944-18.749963-45.281912-18.749963-16.375968 0-32.747936 6.249988-45.247912 18.749963-24.999951 24.999951-24.999951 65.529872 0 90.497824 12.499976 12.497976 28.873944 18.747963 45.247912 18.747963 16.405968 0 32.781936-6.249988 45.281912-18.747963 24.965951-24.967951 24.965951-65.497872 0-90.497824zM79.100846 809.14842c-5.437989 5.437989-11.781977 6.249988-15.093971 6.249987-3.281994 0-9.623981-0.811998-15.061971-6.249987-5.437989-5.435989-6.249988-11.779977-6.249987-15.091971 0-3.281994 0.811998-9.623981 6.249987-15.06197s11.781977-6.249988 15.061971-6.249988c3.311994 0 9.655981 0.811998 15.093971 6.249988s6.249988 11.781977 6.249987 15.06197c0 3.313994-0.811998 9.655981-6.249987 15.091971z" fill="#CCD1D9" /><path d="M730.833573 247.897516c-33.309935 33.343935-87.341829 33.343935-120.653765 0-33.341935-33.311935-33.341935-87.341829 0-120.683764 33.311935-33.311935 87.343829-33.311935 120.653765 0 33.343935 33.341935 33.343935 87.371829 0 120.683764z" fill="#ED5564" /><path d="M489.496044 489.265044c-16.687967 16.655967-43.687915 16.655967-60.341882 0l-60.343882-60.341882c-16.653967-16.655967-16.653967-43.685915 0-60.341882l59.187884-59.185884c16.653967-16.655967 43.685915-16.655967 60.341882 0l60.343882 60.341882c16.653967 16.655967 16.653967 43.685915 0 60.341882l-59.187884 59.185884zM278.876455 699.900633c-16.655967 16.655967-43.687915 16.655967-60.343882 0l-60.339882-60.341882c-16.655967-16.685967-16.655967-43.685915 0-60.341882l59.185884-59.201885c16.655967-16.657967 43.687915-16.657967 60.343883 0l60.341882 60.357882c16.655967 16.655967 16.655967 43.655915 0 60.341883l-59.187885 59.185884z" fill="#965353" /><path d="M275.220462 914.740213c-12.499976-12.499976-28.875944-18.749963-45.281911-18.749963-16.375968 0-32.747936 6.249988-45.247912 18.749963-24.999951 24.999951-24.999951 65.529872 0 90.529824 12.499976 12.497976 28.873944 18.715963 45.247912 18.715963 16.405968 0 32.781936-6.249988 45.281911-18.715963 24.967951-24.999951 24.967951-65.529872 0-90.529824z m-30.185941 60.341883c-5.437989 5.437989-11.781977 6.249988-15.09397 6.249987-3.281994 0-9.623981-0.811998-15.061971-6.249987s-6.249988-11.779977-6.249987-15.091971c0-3.281994 0.811998-9.623981 6.249987-15.061971s11.781977-6.249988 15.061971-6.249987c3.311994 0 9.655981 0.811998 15.09397 6.249987s6.249988 11.781977 6.249988 15.061971c0 3.311994-0.813998 9.653981-6.249988 15.091971z" fill="#CCD1D9" /><path d="M685.303662 625.342779c-33.311935 33.309935-87.341829 33.309935-120.683765 0-33.311935-33.343935-33.311935-87.389829 0-120.701765 33.341935-33.341935 87.371829-33.341935 120.683765 0 33.313935 33.311935 33.313935 87.357829 0 120.701765z" fill="#ED5564" /><path d="M685.303662 504.641014c-19.375962-19.375962-45.781911-27.467946-70.999862-24.311952a84.979834 84.979834 0 0 1 49.655903 24.311952c33.343935 33.311935 33.343935 87.357829 0 120.701765a84.745834 84.745834 0 0 1-49.655903 24.279952c25.217951 3.187994 51.623899-4.90599 70.999862-24.279952 33.313935-33.343935 33.313935-87.389829 0-120.701765zM730.833573 127.213752c-19.373962-19.375962-45.747911-27.467946-70.997862-24.281953 18.155965 2.249996 35.71793 10.34398 49.687903 24.281953 33.309935 33.341935 33.309935 87.371829 0 120.683764a85.123834 85.123834 0 0 1-49.687903 24.311952c25.249951 3.155994 51.623899-4.93799 70.997862-24.311952 33.343935-33.311935 33.343935-87.341829 0-120.683764z" fill="#FFFFFF" opacity=".2" /><path d="M445.964129 864.678311c-16.653967 16.655967-43.685915 16.655967-60.341882 0l-60.341882-60.339882c-16.655967-16.655967-16.655967-43.687915 0-60.343882l59.185884-59.185885c16.655967-16.655967 43.687915-16.655967 60.341882 0l60.343882 60.341883c16.655967 16.655967 16.655967 43.687915 0 60.341882l-59.187884 59.185884z" fill="#965353" /><path d="M625.241779 323.333368l-90.495823-90.497823a21.335958 21.335958 0 0 0-30.187941 0c-8.311984 8.311984-8.311984 21.811957 0 30.155941h0.031999l90.497824 90.497824c8.311984 8.343984 21.841957 8.343984 30.153941 0 8.343984-8.313984 8.343984-21.813957 0-30.155942zM414.030191 534.514956l-90.465823-90.497823a21.331958 21.331958 0 0 0-30.187941 0c-8.311984 8.311984-8.311984 21.841957 0 30.153941l90.529823 90.545823c8.311984 8.311984 21.811957 8.311984 30.155941 0 8.343984-8.343984 8.343984-21.859957 0-30.203941l-0.032 0.002zM792.331452 488.109047l-90.495823-90.497824a21.335958 21.335958 0 0 0-30.187941 0c-8.311984 8.311984-8.311984 21.843957 0 30.155942 0.032 0 0.032 0 0.032 0.031999l90.497823 90.467824v0.032c8.309984 8.311984 21.841957 8.311984 30.153941-0.032 8.343984-8.313984 8.343984-21.813957 0-30.157941zM581.149865 699.306634l-90.497823-90.495823a21.331958 21.331958 0 0 0-30.187941 0c-8.311984 8.311984-8.311984 21.843957 0 30.153941 0 0.032 0.032 0.032 0.032 0.032l90.437823 90.435823 0.062 0.062c8.311984 8.311984 21.809957 8.311984 30.153941 0a21.331958 21.331958 0 0 0 0-30.187941z" fill="#FFCE54" /><path d="M505.152013 745.150545l-60.343882-60.341883c-11.059978-11.061978-26.715948-14.781971-40.84192-11.155978a42.483917 42.483917 0 0 1 19.499962 11.155978l60.341882 60.341883c16.655967 16.655967 16.655967 43.655915 0 60.341882l-59.185884 59.185884a42.399917 42.399917 0 0 1-19.499962 11.123978c14.123972 3.655993 29.781942-0.062 40.84192-11.123978l59.187884-59.185884c16.655967-16.685967 16.655967-43.685915 0-60.341882zM548.683928 369.739278l-60.343882-60.341882c-11.061978-11.061978-26.717948-14.781971-40.84392-11.123979a42.155918 42.155918 0 0 1 19.499962 11.123979l60.343882 60.341882c16.655967 16.655967 16.655967 43.685915 0 60.341882l-59.187884 59.185884a42.137918 42.137918 0 0 1-19.499962 11.123979 42.631917 42.631917 0 0 0 40.84392-11.123979l59.187884-59.185884c16.653967-16.657967 16.653967-43.687915 0-60.341882zM338.06234 580.374866l-60.341882-60.357882c-11.061978-11.063978-26.687948-14.781971-40.843921-11.157978a42.487917 42.487917 0 0 1 19.499962 11.157978l60.341882 60.357882c16.687967 16.655967 16.655967 43.655915 0 60.341883l-59.185884 59.185884a42.399917 42.399917 0 0 1-19.499962 11.123978c14.123972 3.623993 29.781942-0.062 40.84392-11.123978l59.185885-59.185884c16.655967-16.685967 16.655967-43.685915 0-60.341883z" fill="#FFFFFF" opacity=".2" /></svg>