<?xml version="1.0" standalone="no"?><!DOCTYPE svg PUBLIC "-//W3C//DTD SVG 1.1//EN" "http://www.w3.org/Graphics/SVG/1.1/DTD/svg11.dtd"><svg class="icon" width="128px" height="128.00px" viewBox="0 0 1024 1024" version="1.1" xmlns="http://www.w3.org/2000/svg"><path d="M1002.682 74.678c-397.62 0-731.74 271.934-826.426 639.99h44.094a808.1 808.1 0 0 1 35.342-102.216c20.312-48.032 45.468-94.344 74.75-137.686a816.168 816.168 0 0 1 98.998-119.998 819.968 819.968 0 0 1 119.998-99.03c43.376-29.25 89.688-54.406 137.686-74.718 99.936-42.25 206.092-63.686 315.558-63.686 11.78 0 21.31-9.562 21.31-21.344s-9.532-21.312-21.31-21.312z" fill="#FC6E51" /><path d="M1002.682 245.332c-397.62 0-731.74 271.932-826.426 639.99h44.094a809.658 809.658 0 0 1 35.342-102.218 811.646 811.646 0 0 1 74.75-137.684 817.86 817.86 0 0 1 98.998-120 817.842 817.842 0 0 1 119.998-98.998c43.376-29.282 89.688-54.436 137.686-74.75 99.936-42.25 206.092-63.686 315.558-63.686 11.78 0 21.31-9.532 21.31-21.312 0-11.78-9.532-21.342-21.31-21.342z" fill="#FC6E51" /><path d="M1002.682 415.986c-220.186 0-420.87 83.374-572.21 220.278h12.594v46.532c33-31.468 68.686-60.25 106.374-85.718a812.724 812.724 0 0 1 137.686-74.718c99.936-42.28 206.092-63.686 315.558-63.686 11.78 0 21.31-9.562 21.31-21.342-0.002-11.784-9.534-21.346-21.312-21.346z" fill="#FC6E51" /><path d="M314.066 351.956l97.062 196.62 216.996 31.532-156.998 153.092 37.062 216.122-194.122-102.062-194.058 102.062L157.07 733.2 0.008 580.108l217.03-31.532z" fill="#FFCE54" /></svg>