<?xml version="1.0" standalone="no"?><!DOCTYPE svg PUBLIC "-//W3C//DTD SVG 1.1//EN" "http://www.w3.org/Graphics/SVG/1.1/DTD/svg11.dtd"><svg class="icon" width="128px" height="128.00px" viewBox="0 0 1024 1024" version="1.1" xmlns="http://www.w3.org/2000/svg"><path d="M170.67 0.016c-11.749862 0-21.34175 9.591888-21.34175 21.30975V1002.62825c0 11.717863 4.811944 21.34375 10.687875 21.34375 5.843932 0 19.249774-4.311949 29.717652-9.561888l47.185447-23.593723c10.499877-5.215939 27.655676-5.215939 38.155552 0l47.185448 23.593723c10.467877 5.249938 27.655676 5.249938 38.155552 0l47.153448-23.593723c10.499877-5.215939 27.687676-5.215939 38.155553 0l47.185447 23.593723c10.499877 5.249938 27.653676 5.249938 38.153553 0l47.187447-23.593723c10.499877-5.215939 27.687676-5.215939 38.185552 0l47.123448 23.593723c10.499877 5.249938 27.687676 5.249938 38.187552 0l47.185447-23.593723c10.499877-5.215939 27.623676-5.215939 38.123554 0l47.187447 23.593723c10.499877 5.249938 23.87572 9.561888 29.749651 9.561888s10.687875-9.623887 10.687875-21.34375V21.32575c0-11.717863-9.623887-21.30975-21.37575-21.30975H170.67z" fill="#FFCE54" /><path d="M682.68 597.301h85.309c11.747862 0 21.30975-9.529888 21.30975-21.30975 0-11.811862-9.561888-21.34375-21.30975-21.34375h-85.309c-11.811862 0-21.37575 9.531888-21.37575 21.34375 0 11.781862 9.563888 21.30975 21.37575 21.30975zM767.989 639.9885h-85.309c-11.811862 0-21.37575 9.531888-21.37575 21.31175s9.561888 21.34175 21.37575 21.34175h85.309c11.747862 0 21.30975-9.559888 21.30975-21.34175s-9.561888-21.31175-21.30975-21.31175zM512 554.6475H256.009a21.31175 21.31175 0 0 0-21.34175 21.34375c0 11.781862 9.529888 21.30975 21.34175 21.30975H512c11.749862 0 21.31175-9.529888 21.31175-21.30975-0.002-11.811862-9.563888-21.34375-21.31175-21.34375z" fill="#656D78" /><path d="M767.989 810.6385h-85.309c-11.811862 0-21.37575 9.531888-21.37575 21.34175 0 11.749862 9.561888 21.31175 21.37575 21.31175h85.309c11.747862 0 21.30975-9.561888 21.30975-21.31175 0-11.809862-9.561888-21.34175-21.30975-21.34175zM341.318 810.6385h-85.309a21.31175 21.31175 0 0 0-21.34175 21.34175c0 11.749862 9.529888 21.31175 21.34175 21.31175h85.309c11.781862 0 21.34375-9.561888 21.34375-21.31175 0-11.809862-9.561888-21.34175-21.34375-21.34175z" fill="#434A54" /><path d="M385.067487 640.0205v-0.032h-129.056487c-11.811862 0-21.34175 9.531888-21.34175 21.31175s9.529888 21.34175 21.34175 21.34175h129.056487v-0.061999c11.281868-0.561993 20.249763-9.841885 20.249763-21.279751-0.002-11.405866-8.969895-20.717757-20.249763-21.27975z" fill="#656D78" /><path d="M277.32075 746.63925c0 11.781862-9.561888 21.34375-21.31175 21.34375-11.811862 0-21.34175-9.561888-21.34175-21.34375s9.529888-21.34375 21.34175-21.34375c11.749862 0 21.31175 9.563888 21.31175 21.34375zM362.66175 746.63925c0 11.781862-9.561888 21.34375-21.34375 21.34375-11.779862 0-21.31175-9.561888-21.31175-21.34375s9.531888-21.34375 21.31175-21.34375c11.781862 0 21.34375 9.563888 21.34375 21.34375zM448.00075 746.63925c0 11.781862-9.561888 21.34375-21.34175 21.34375-11.781862 0-21.34375-9.561888-21.34375-21.34375s9.561888-21.34375 21.34375-21.34375c11.779862 0 21.34175 9.563888 21.34175 21.34375zM533.30975 746.63925c0 11.781862-9.561888 21.34375-21.31175 21.34375-11.811862 0-21.34175-9.561888-21.34175-21.34375s9.531888-21.34375 21.34175-21.34375c11.749862 0 21.31175 9.563888 21.31175 21.34375zM618.68275 746.63925c0 11.781862-9.561888 21.34375-21.37375 21.34375-11.749862 0-21.31175-9.561888-21.31175-21.34375s9.561888-21.34375 21.31175-21.34375c11.811862 0 21.37375 9.563888 21.37375 21.34375zM703.99175 746.63925c0 11.781862-9.561888 21.34375-21.31175 21.34375-11.811862 0-21.37575-9.561888-21.37575-21.34375s9.561888-21.34375 21.37575-21.34375c11.749862 0 21.31175 9.563888 21.31175 21.34375zM789.29875 746.63925c0 11.781862-9.561888 21.34375-21.30975 21.34375-11.811862 0-21.31175-9.561888-21.31175-21.34375s9.499889-21.34375 21.31175-21.34375c11.747862 0 21.30975 9.563888 21.30975 21.34375z" fill="#F6BB42" /><path d="M561.247423 136.790397a21.36575 21.36575 0 0 0-17.249798-8.781897c-11.811862 0-21.34375 9.531888-21.34375 21.30975 0 4.687945 1.531982 9.031894 4.093952 12.531853l-0.031999 0.032 76.905098 105.77876 34.497596-25.093706-76.871099-105.77676zM480.000375 128.0105a21.271751 21.271751 0 0 0-17.249798 8.781897h-0.031999l-76.8731 105.77676 34.499596 25.093706 76.903099-105.77876-0.032-0.032a21.179752 21.179752 0 0 0 4.093952-12.531853c0.002-11.779862-9.559888-21.30975-21.30975-21.30975z" fill="#434A54" /><path d="M639.9945 447.99675H384.0035l-42.6855-213.3355h341.362z" fill="#ED5564" /><path d="M682.68 234.66125H341.318c-11.779862 0-21.31175 9.561888-21.31175 21.34375s9.531888 21.30975 21.31175 21.30975h341.362c11.749862 0 21.31175-9.529888 21.31175-21.30975s-9.561888-21.34375-21.31175-21.34375z" fill="#DA4453" /><path d="M469.3145 298.6585c-11.781862 0-21.31175 9.561888-21.31175 21.34375v63.99725a21.29975 21.29975 0 0 0 21.31175 21.31175c11.779862 0 21.34175-9.531888 21.34175-21.31175v-63.99725c0-11.781862-9.561888-21.34375-21.34175-21.34375z" fill="#DA4453" /><path d="M554.6855 298.6585c-11.811862 0-21.37575 9.561888-21.37575 21.34375v63.99725c0 11.781862 9.561888 21.31175 21.37575 21.31175 11.749862 0 21.31175-9.531888 21.31175-21.31175v-63.99725c0-11.781862-9.561888-21.34375-21.31175-21.34375z" fill="#DA4453" /></svg>