<?xml version="1.0" standalone="no"?><!DOCTYPE svg PUBLIC "-//W3C//DTD SVG 1.1//EN" "http://www.w3.org/Graphics/SVG/1.1/DTD/svg11.dtd"><svg class="icon" width="128px" height="128.00px" viewBox="0 0 1024 1024" version="1.1" xmlns="http://www.w3.org/2000/svg"><path d="M426.69 831.99c-108.278 0-210.088-42.154-286.618-118.714-76.56-76.53-118.714-178.338-118.714-286.586 0-108.278 42.156-210.056 118.714-286.618 76.56-76.558 178.338-118.714 286.586-118.714 108.276 0 210.056 42.156 286.616 118.714 76.558 76.56 118.714 178.34 118.714 286.618 0 108.248-42.156 210.056-118.714 286.586-76.56 76.56-178.308 118.714-286.554 118.714h-0.03z" fill="#4FC2E9" /><path d="M1015.016 985.298L742.868 713.15c151.964-167.464 147.122-426.52-14.498-588.138C645.056 41.702 535.874 0.016 426.66 0.016c-109.184 0-218.37 41.686-301.678 124.996-166.62 166.588-166.62 436.736 0 603.356 83.31 83.312 192.526 124.966 301.678 124.966 102.496 0 204.93-36.686 286.022-110.03l274.68 274.68 0.218-0.218a21.276 21.276 0 0 0 15.094 6.218c11.78 0 21.31-9.532 21.31-21.312 0-7.188-3.53-13.498-8.968-17.374zM426.66 810.68c-49.874 0-98.498-9.468-144.496-28.124-47.624-19.312-90.34-47.688-126.996-84.342-36.686-36.686-65.06-79.404-84.374-127.028-18.656-45.998-28.092-94.624-28.092-144.496 0-49.904 9.438-98.528 28.092-144.528 19.312-47.592 47.686-90.34 84.374-126.996 36.656-36.654 79.374-65.06 126.996-84.34 46-18.688 94.622-28.124 144.496-28.124 49.904 0 98.526 9.438 144.526 28.124 47.624 19.28 90.34 47.686 127.028 84.34 36.656 36.656 65.03 79.404 84.34 126.996 18.656 46 28.124 94.624 28.124 144.528 0 49.874-9.468 98.498-28.124 144.496-19.31 47.624-47.684 90.342-84.34 127.028-36.688 36.654-79.436 65.06-127.028 84.342-46 18.654-94.622 28.124-144.526 28.124z" fill="#434A54" /><path d="M384.004 213.352c-6.844 0-12.938 3.25-16.842 8.282l-99.372 128.246 33.718 26.124 99.372-128.246h-0.032a21.254 21.254 0 0 0 4.5-13.062c-0.002-11.782-9.562-21.344-21.344-21.344zM486.408 222.29c-3.906-5.032-10-8.282-16.842-8.282-11.782 0-21.344 9.562-21.344 21.344 0 4.938 1.688 9.438 4.5 13.062h-0.032l99.372 128.246 33.718-26.124-99.372-128.246z" fill="#434A54" /><path d="M597.342 618.684H256.008l-42.656-277.334h426.644z" fill="#F5F7FA" /><path d="M512 448.002c-11.78 0-21.31 9.562-21.31 21.344v63.998c0 11.78 9.532 21.342 21.31 21.342 11.78 0 21.342-9.562 21.342-21.342v-63.998c0-11.782-9.562-21.344-21.342-21.344zM426.69 448.002c-11.782 0-21.344 9.562-21.344 21.344v63.998c0 11.78 9.562 21.342 21.344 21.342 11.78 0 21.312-9.562 21.312-21.342v-63.998c0-11.782-9.532-21.344-21.312-21.344zM341.348 448.002c-11.78 0-21.342 9.562-21.342 21.344v63.998c0 11.78 9.562 21.342 21.342 21.342 11.782 0 21.344-9.562 21.344-21.342v-63.998c0-11.782-9.562-21.344-21.344-21.344z" fill="#CCD1D9" /><path d="M639.996 341.35H213.352c-11.78 0-21.342 9.56-21.342 21.342s9.562 21.312 21.342 21.312h426.644c11.78 0 21.342-9.532 21.342-21.312s-9.562-21.342-21.342-21.342z" fill="#E6E9ED" /></svg>