<?xml version="1.0" standalone="no"?><!DOCTYPE svg PUBLIC "-//W3C//DTD SVG 1.1//EN" "http://www.w3.org/Graphics/SVG/1.1/DTD/svg11.dtd"><svg class="icon" width="128px" height="128.00px" viewBox="0 0 1024 1024" version="1.1" xmlns="http://www.w3.org/2000/svg"><path d="M853.178 938.676c0 47.124-38.188 85.308-85.31 85.308h-512c-47.124 0-85.326-38.186-85.326-85.308V85.34c0-47.124 38.202-85.324 85.326-85.324h512c47.124 0 85.31 38.202 85.31 85.324v853.336z" fill="#E6E9ED" /><path d="M554.53 938.676c0 23.56-19.11 42.624-42.67 42.624-23.562 0-42.654-19.062-42.654-42.624 0-23.594 19.092-42.688 42.654-42.688 23.56 0 42.67 19.094 42.67 42.688z" fill="#CCD1D9" /><path d="M170.542 150.526v702.778h682.636V150.526c0-5.468-0.624-10.812-1.782-15.966H172.338a71.912 71.912 0 0 0-1.796 15.966z" fill="#4FC2E9" /><path d="M789.208 725.304c-5.906 0-11.218 2.406-15.092 6.25l-42.654 42.688c-3.844 3.876-6.25 9.188-6.25 15.062 0 11.812 9.562 21.376 21.342 21.376a21.28 21.28 0 0 0 15.062-6.25l42.686-42.688a21.206 21.206 0 0 0 6.25-15.062c0-11.812-9.562-21.376-21.344-21.376zM804.302 676.434a21.244 21.244 0 0 0 6.25-15.124c0-11.75-9.562-21.312-21.344-21.312a21.226 21.226 0 0 0-15.092 6.25l-127.966 127.996c-3.876 3.876-6.28 9.188-6.28 15.062 0 11.812 9.56 21.376 21.342 21.376 5.906 0 11.218-2.406 15.094-6.282l127.996-127.966z" fill="#3BAFDA" /><path d="M803.552 325.084c50.5 0 91.404-40.89 91.404-91.342 0-4.844-0.406-9.61-1.124-14.266h0.032l-0.562-2.876c-0.062-0.438-0.124-0.89-0.218-1.328L840.116 85.34h-131.558l21.906 203.212 3.094 3.876c16.746 19.952 41.9 32.656 69.994 32.656z" fill="#DA4453" /><path d="M576.936 85.34l7.312 203.212c16.688 22.172 43.216 36.532 73.122 36.532 29.876 0 56.438-14.36 73.094-36.532L708.556 85.34h-131.62z" fill="#E6E9ED" /><path d="M220.43 325.084c-50.466 0-91.386-40.89-91.386-91.342 0-4.844 0.39-9.61 1.124-14.266h-0.016l0.532-2.876c0.078-0.438 0.14-0.89 0.234-1.328L183.87 85.34h131.59l-21.922 203.212-3.094 3.876c-16.75 19.952-41.904 32.656-70.014 32.656z" fill="#DA4453" /><path d="M447.064 85.34l-7.312 203.212c-16.672 22.172-43.216 36.532-73.108 36.532-29.904 0-56.436-14.36-73.108-36.532L315.458 85.34h131.606z" fill="#E6E9ED" /><path d="M445.346 85.34l-7.312 203.212c16.672 22.172 43.216 36.532 73.108 36.532 29.904 0 56.42-14.36 73.108-36.532L576.936 85.34h-131.59z" fill="#DA4453" /><path d="M130.824 215.758l-0.14 0.844-0.532 2.876h0.016a91.576 91.576 0 0 0-1.124 14.266c0 50.452 40.92 91.342 91.386 91.342 28.11 0 53.264-12.704 70.014-32.656l3.094-3.876 7.86-72.794H130.824z" fill="#ED5564" /><path d="M301.396 215.758l-7.86 72.794c16.672 22.172 43.204 36.532 73.108 36.532 29.89 0 56.436-14.36 73.108-36.532l2.61-72.794h-140.966z" fill="#F5F7FA" /><path d="M440.658 215.758l-2.624 72.794c16.672 22.172 43.216 36.532 73.108 36.532 29.904 0 56.42-14.36 73.108-36.532l-2.624-72.794h-140.968z" fill="#ED5564" /><path d="M581.624 215.758l2.624 72.794c16.688 22.172 43.216 36.532 73.122 36.532 29.876 0 56.438-14.36 73.094-36.532l-7.844-72.794h-140.996z" fill="#F5F7FA" /><path d="M893.864 219.476l-0.562-2.876c-0.032-0.282-0.062-0.562-0.124-0.844H722.62l7.844 72.794 3.094 3.876c16.748 19.954 41.902 32.656 69.996 32.656 50.5 0 91.404-40.89 91.404-91.342 0-4.844-0.406-9.61-1.124-14.266h0.03z" fill="#ED5564" /></svg>