<?xml version="1.0" standalone="no"?><!DOCTYPE svg PUBLIC "-//W3C//DTD SVG 1.1//EN" "http://www.w3.org/Graphics/SVG/1.1/DTD/svg11.dtd"><svg class="icon" width="128px" height="128.00px" viewBox="0 0 1024 1024" version="1.1" xmlns="http://www.w3.org/2000/svg"><path d="M106.7 42.67h810.602v981.314H106.7z" fill="#5D9CEC" /><path d="M149.386 85.34h725.292v895.958H149.386z" fill="#F5F7FA" /><path d="M256.008 127.996c-11.75 0-21.31-9.546-21.31-21.328V21.342c0-11.782 9.56-21.326 21.31-21.326 11.812 0 21.376 9.544 21.376 21.326v85.326c-0.002 11.782-9.564 21.328-21.376 21.328zM384.004 127.996c-11.75 0-21.31-9.546-21.31-21.328V21.342c0-11.782 9.56-21.326 21.31-21.326 11.812 0 21.376 9.544 21.376 21.326v85.326c-0.002 11.782-9.564 21.328-21.376 21.328zM512 127.996c-11.748 0-21.31-9.546-21.31-21.328V21.342C490.69 9.56 500.252 0.016 512 0.016c11.812 0 21.344 9.544 21.344 21.326v85.326c0 11.782-9.532 21.328-21.344 21.328zM639.998 127.996c-11.75 0-21.312-9.546-21.312-21.328V21.342c0-11.782 9.562-21.326 21.312-21.326 11.81 0 21.31 9.544 21.31 21.326v85.326c0 11.782-9.5 21.328-21.31 21.328zM767.994 127.996c-11.75 0-21.312-9.546-21.312-21.328V21.342c0-11.782 9.562-21.326 21.312-21.326 11.81 0 21.31 9.544 21.31 21.326v85.326c0 11.782-9.5 21.328-21.31 21.328z" fill="#E6E9ED" /><path d="M376.692 288.396v0.016l-75.402 75.404-30.156-30.138v-0.032c-8.344-8.328-21.876-8.328-30.188 0-8.31 8.326-8.31 21.842 0 30.17l45.25 45.248a21.36 21.36 0 0 0 30.186 0l90.498-90.496c8.312-8.344 8.312-21.844 0-30.172-8.344-8.328-21.844-8.328-30.188 0zM376.692 501.718v0.032l-75.402 75.374-30.156-30.124v-0.032c-8.344-8.326-21.876-8.326-30.188 0-8.31 8.344-8.31 21.844 0 30.156l45.25 45.248a21.33 21.33 0 0 0 30.186 0l90.498-90.48c8.312-8.328 8.312-21.844 0-30.172a21.36 21.36 0 0 0-30.188-0.002zM376.692 715.056l-75.402 75.404-30.156-30.156c-8.344-8.344-21.876-8.344-30.188 0-8.31 8.312-8.31 21.812 0 30.156l45.25 45.248a21.33 21.33 0 0 0 30.186 0l90.498-90.498c8.312-8.344 8.312-21.844 0-30.154a21.332 21.332 0 0 0-30.188 0z" fill="#A0D468" /><path d="M490.69 372.644h298.616c11.812 0 21.376-9.546 21.376-21.328 0-11.78-9.562-21.326-21.376-21.326H490.69c-11.782 0-21.344 9.546-21.344 21.326 0 11.782 9.562 21.328 21.344 21.328zM789.304 543.312H490.69c-11.782 0-21.344 9.56-21.344 21.31 0 11.812 9.562 21.344 21.344 21.344h298.616c11.812 0 21.376-9.532 21.376-21.344-0.002-11.748-9.564-21.31-21.378-21.31zM789.304 756.618H490.69c-11.782 0-21.344 9.562-21.344 21.344s9.562 21.344 21.344 21.344h298.616c11.812 0 21.376-9.562 21.376-21.344s-9.564-21.344-21.378-21.344z" fill="#434A54" /></svg>