<?xml version="1.0" standalone="no"?><!DOCTYPE svg PUBLIC "-//W3C//DTD SVG 1.1//EN" "http://www.w3.org/Graphics/SVG/1.1/DTD/svg11.dtd"><svg class="icon" width="128px" height="128.00px" viewBox="0 0 1024 1024" version="1.1" xmlns="http://www.w3.org/2000/svg"><path d="M1023.984 1002.672c0 11.782-9.562 21.312-21.342 21.312H21.358c-11.782 0-21.342-9.532-21.342-21.312V21.358C0.016 9.576 9.576 0.016 21.358 0.016h981.286c11.78 0 21.342 9.56 21.342 21.342v981.314z" fill="#48CFAD" /><path d="M767.992 213.352H256.008v469.33h170.65L512 767.992l85.342-85.31h170.65z" fill="#FFCE54" /><path d="M736.87 462.19c38.964 0 70.528-31.532 70.528-70.404 0-3.75-0.282-7.438-0.876-11h0.032l-0.406-2.25c-0.062-0.312-0.124-0.656-0.188-1l-40.874-100.186h-101.53l16.906 156.684 2.376 2.968c12.938 15.406 32.344 25.188 54.032 25.188z" fill="#DA4453" /><path d="M561.998 277.35l5.656 156.684c12.844 17.094 33.344 28.156 56.404 28.156s43.56-11.062 56.404-28.156l-16.906-156.684h-101.558z" fill="#E6E9ED" /><path d="M286.912 462.19c-38.936 0-70.53-31.532-70.53-70.404 0-3.75 0.312-7.438 0.876-11l0.406-2.25c0.062-0.312 0.094-0.656 0.156-1l40.876-100.186h101.558l-16.938 156.684-2.376 2.968c-12.934 15.406-32.34 25.188-54.028 25.188z" fill="#DA4453" /><path d="M461.784 277.35l-5.624 156.684c-12.876 17.094-33.344 28.156-56.436 28.156-23.062 0-43.532-11.062-56.406-28.156l16.938-156.684h101.528z" fill="#E6E9ED" /><path d="M460.47 277.35l-5.656 156.684c12.876 17.094 33.342 28.156 56.436 28.156 23.06 0 43.53-11.062 56.404-28.156l-5.656-156.684h-101.528z" fill="#DA4453" /><path d="M217.758 377.878c-0.032 0.25-0.062 0.438-0.094 0.656l-0.406 2.25a70.672 70.672 0 0 0-0.876 11c0 38.874 31.594 70.404 70.53 70.404 21.688 0 41.094-9.782 54.03-25.188l2.376-2.968 6.062-56.154h-131.622z" fill="#ED5564" /><path d="M349.378 377.878l-6.062 56.154c12.876 17.094 33.344 28.156 56.406 28.156 23.092 0 43.56-11.062 56.436-28.156l2-56.154h-108.78z" fill="#F5F7FA" /><path d="M456.846 377.878l-2.032 56.154c12.876 17.094 33.342 28.156 56.436 28.156 23.06 0 43.53-11.062 56.404-28.156l-2.032-56.154h-108.776z" fill="#ED5564" /><path d="M565.624 377.878l2.032 56.154c12.844 17.094 33.344 28.156 56.404 28.156s43.56-11.062 56.404-28.156l-6.062-56.154h-108.778z" fill="#F5F7FA" /><path d="M806.552 380.786l-0.406-2.25a3.978 3.978 0 0 1-0.124-0.656H674.4l6.062 56.154 2.376 2.968c12.938 15.406 32.344 25.188 54.032 25.188 38.964 0 70.528-31.532 70.528-70.404 0-3.75-0.282-7.438-0.876-11h0.03z" fill="#ED5564" /><path d="M216.196 1023.984H741.68l282.304-126.152V661.058z" fill="#434A54" /><path d="M763.148 0.016l46.03 102.964 88.186 197.37 126.62-56.592v-222.4L1002.642 0.016z" fill="#E6E9ED" /><path d="M21.358 0.016C9.576 0.016 0.016 9.576 0.016 21.358v122.496L322.944 0.016H21.358z" fill="#E6E9ED" /></svg>