<?xml version="1.0" standalone="no"?><!DOCTYPE svg PUBLIC "-//W3C//DTD SVG 1.1//EN" "http://www.w3.org/Graphics/SVG/1.1/DTD/svg11.dtd"><svg class="icon" width="128px" height="128.00px" viewBox="0 0 1024 1024" version="1.1" xmlns="http://www.w3.org/2000/svg"><path d="M464.908 31.83c25.906 4.282 68.28 4.282 94.186 0l67.996-11.25c25.906-4.282 62.186 7.5 80.624 26.218l48.436 49.03c18.438 18.718 52.718 43.624 76.186 55.374l61.624 30.906c23.468 11.75 45.906 42.624 49.844 68.56l10.31 68.154c3.938 25.968 17.032 66.28 29.124 89.592l31.688 61.186c12.094 23.312 12.094 61.468 0 84.778l-31.688 61.218c-12.092 23.31-25.186 63.624-29.124 89.59l-10.31 68.124c-3.938 25.968-26.376 56.842-49.844 68.592l-61.624 30.876c-23.466 11.78-57.748 36.686-76.186 55.374l-48.436 49.06c-18.438 18.688-54.716 30.468-80.624 26.188l-67.996-11.218c-25.906-4.282-68.28-4.282-94.186 0l-67.998 11.218c-25.906 4.282-62.186-7.5-80.624-26.188l-48.436-49.06c-18.438-18.688-52.718-43.594-76.186-55.374L130.04 841.902c-23.468-11.75-45.906-42.624-49.842-68.592l-10.312-68.124c-3.938-25.966-17.032-66.28-29.124-89.59l-31.684-61.22c-12.094-23.31-12.094-61.466 0-84.778l31.686-61.186c12.092-23.312 25.186-63.624 29.124-89.592l10.312-68.154c3.938-25.936 26.376-56.81 49.842-68.56L191.666 151.2c23.468-11.75 57.748-36.656 76.186-55.374l48.436-49.03c18.438-18.718 54.716-30.5 80.624-26.218l67.996 11.252z" fill="#F4BE8E" /><path d="M650.528 654.03l-103.34-57.312-13.844 101.31-32.156 118.682-63.842 102.656-17.468 46.654 42.656-1.312 141.338 14.656 70.656-10.656v-191.996zM405.346 597.718l-134.806-7.686H157.198l-107.996-38.656 70.684 246.65 170.652-29.314 114.808-57.34 32-70.656zM373.192 350.038l-30.656-169.308v-113.34l-49.342 47.998-99.996 57.342-73.312 37.312v30.686l66.656 111.998 73.34 66.654 61.312 59.998 62.81-66.654zM806.524 170.042l-74.656-58.654-45.34-50.654-41.344-9.344-105.308 134.652L512 266.04l-14.812 74.686 87.998 10.656 59.998-41.342 170.684-70.656 71.996-26.654zM989.172 496.72l-101.308-27.998-133.34-46.686h-97.34l-36 111.278 64 18.062 58.684 34.656 77.31 62.684 82.686 118.654 12-15.998 39.998-131.996 42.654-80z" fill="#FFD2A6" /><path d="M1014.922 469.596l-31.688-61.186c-12.092-23.312-25.186-63.624-29.124-89.592l-10.31-68.154c-3.938-25.936-26.376-56.81-49.844-68.56L832.334 151.2c-23.466-11.75-57.748-36.656-76.186-55.374l-48.436-49.03c-15.876-16.124-44.998-27.092-69.31-27.092-3.906 0-7.718 0.282-11.312 0.876l-67.996 11.25c-12.938 2.124-30 3.188-47.094 3.188-17.062 0-34.156-1.062-47.092-3.188l-67.998-11.25a69.452 69.452 0 0 0-11.312-0.876c-24.312 0-53.436 10.968-69.31 27.092l-48.436 49.03c-18.438 18.718-52.718 43.624-76.186 55.374L130.042 182.106c-23.468 11.75-45.906 42.624-49.842 68.56l-10.312 68.154c-3.938 25.968-17.032 66.28-29.124 89.592L9.078 469.596c-12.094 23.312-12.094 61.468 0 84.778l31.686 61.218c12.092 23.31 25.186 63.624 29.124 89.59l10.312 68.124c3.938 25.968 26.376 56.842 49.842 68.592l61.624 30.876c23.468 11.78 57.748 36.686 76.186 55.374l48.436 49.06c15.876 16.094 45 27.094 69.31 27.094 3.938 0 7.718-0.312 11.312-0.906l67.998-11.218c12.938-2.156 30.032-3.218 47.092-3.218 17.094 0 34.156 1.062 47.094 3.218l67.996 11.218c3.594 0.594 7.406 0.906 11.312 0.906 24.312 0 53.436-11 69.31-27.094l48.436-49.06c18.438-18.688 52.718-43.594 76.186-55.374l61.624-30.876c23.468-11.75 45.906-42.624 49.844-68.592l10.31-68.124c3.938-25.966 17.032-66.28 29.124-89.59l31.688-61.218c12.092-23.31 12.092-61.466-0.002-84.778z m-69.592-41.56l16.938 32.656c-29.874-14.124-70.092-30.124-116.528-40.998-58.686-13.782-115.216-16.468-167.994-8.032-44.344 7.062-85.966 22.03-124.434 44.624 15.53-34.436 36.748-65.31 63.496-92.248 33.624-33.874 76.124-61.81 126.278-83.06 64-27.094 124.528-36.342 152.278-39.342 3.218 5.376 5.562 10.874 6.25 15.436l10.312 68.154c4.624 30.374 19.282 75.528 33.404 102.81zM725.774 125.794c21.562 21.876 59.968 49.78 87.468 63.56l32.874 16.468c-32.466 6.156-74.404 16.844-118.374 35.342-55.558 23.342-102.872 54.374-140.62 92.248-31.716 31.78-56.592 68.342-74.436 109.184-7.656-36.966-8.656-74.404-2.844-111.902 7.312-47.154 25.25-94.748 53.342-141.434 35.81-59.466 79.342-102.528 100.03-121.278 6.062 2.594 11.188 5.75 14.156 8.782l48.404 49.03zM389.942 62.67l67.998 11.25c14.78 2.438 33.968 3.782 54.06 3.782 20.094 0 39.312-1.344 54.06-3.782l36.31-6c-22.654 24.062-50.278 57.342-74.996 98.154-31.25 51.56-51.28 104.464-59.562 157.276-6.968 44.374-5.592 88.592 4 132.152-27.968-25.406-50.78-55.124-68.124-88.904-21.842-42.436-35.28-91.498-39.966-145.776-6-69.186 3.906-129.622 9.624-156.934 4.124-0.938 8.312-1.532 12.25-1.532 2.064 0.002 3.502 0.19 4.346 0.314z m-240.776 157.56l61.624-30.876c27.468-13.78 65.874-41.686 87.436-63.56l25.842-26.154c-4.188 32.78-6.968 75.934-2.968 123.496 5.032 60.06 19.936 114.652 44.25 162.244 20.436 39.968 47.53 74.936 80.872 104.528-37.5-4.124-73.436-14.75-107.31-31.874-42.624-21.5-82.31-53.28-118.028-94.434-45.53-52.466-73.03-107.216-84.466-132.652 4.124-4.718 8.624-8.656 12.748-10.718zM78.67 428.036c14.124-27.28 28.812-72.466 33.404-102.81l5.5-36.374c15.876 28.966 39 65.53 70.186 101.652 39.374 45.624 83.53 81.03 131.184 105.248 40.03 20.344 82.498 32.718 126.872 37.032-32.78 18.75-68.092 31.248-105.56 37.31-47.124 7.624-97.934 5.25-150.996-7.032-67.686-15.686-122.09-43.81-146.308-57.686 0.562-6.218 1.876-12.03 4-16.156l31.718-61.184z m0 167.932l-16.938-32.656c29.906 14.094 70.092 30.094 116.528 41 36.436 8.532 72.03 12.812 106.434 12.812 21 0 41.562-1.594 61.56-4.782 44.312-7.094 85.904-22 124.308-44.562-15.5 34.312-36.686 65.124-63.374 91.966-33.624 33.874-76.122 61.842-126.278 83.06-64.06 27.154-124.684 36.374-152.37 39.374-3.188-5.312-5.468-10.75-6.156-15.25l-10.312-68.154c-4.59-30.372-19.278-75.526-33.402-102.808z m219.556 302.21c-21.562-21.874-59.998-49.78-87.436-63.53l-33.186-16.624c32.53-6.154 74.56-16.842 118.654-35.374 55.56-23.344 102.904-54.404 140.652-92.248 31.656-31.748 56.53-68.278 74.374-109.09 7.688 36.968 8.656 74.436 2.844 111.964-7.282 47.188-25.25 94.78-53.342 141.434-35.812 59.498-79.31 102.53-99.998 121.278-6.062-2.562-11.156-5.75-14.124-8.75l-48.438-49.06z m335.832 63.122l-67.998-11.218c-14.748-2.438-33.966-3.782-54.06-3.782-20.092 0-39.28 1.344-54.06 3.782l-36.342 6c22.656-24.06 50.31-57.342 75.028-98.152 31.218-51.56 51.25-104.498 59.562-157.308 6.966-44.374 5.592-88.59-4-132.152 27.966 25.406 50.778 55.124 68.152 88.936 21.812 42.436 35.25 91.498 39.968 145.746 6 69.216-3.906 129.622-9.624 156.962-4.156 0.938-8.312 1.5-12.282 1.5-2.062 0-3.5-0.156-4.344-0.314z m240.774-157.524l-61.59 30.874c-27.468 13.75-65.906 41.656-87.468 63.53l-25.842 26.188c4.188-32.782 6.968-75.936 3-123.496-5.062-60.06-19.936-114.654-44.28-162.246-20.438-39.966-47.5-74.904-80.81-104.496 37.498 4.156 73.404 14.782 107.248 31.874 42.622 21.532 82.308 53.312 118.028 94.466 45.528 52.436 73.028 107.122 84.464 132.59-4.124 4.716-8.594 8.622-12.75 10.716z m70.498-207.808c-14.124 27.282-28.78 72.436-33.404 102.808l-5.5 36.406c-15.876-28.968-39-65.53-70.154-101.654-39.404-45.624-83.53-81.03-131.214-105.214-40.06-20.376-82.56-32.75-126.964-37.062 32.81-18.75 68.154-31.28 105.654-37.342 47.122-7.656 97.934-5.282 150.994 7.032 67.686 15.688 122.122 43.78 146.306 57.656-0.532 6.25-1.876 12.062-4 16.156l-31.718 61.214z" fill="#FFD2A6" /><path d="M725.336 512c0 117.812-95.528 213.308-213.336 213.308S298.664 629.812 298.664 512c0-117.808 95.528-213.336 213.336-213.336S725.336 394.192 725.336 512z" fill="#FC6E51" /><path d="M527.094 368.912a21.296 21.296 0 0 0-15.094-6.25c-82.404 0-149.214 66.748-149.338 149.152h0.032a21.306 21.306 0 0 0 6.218 15.282c8.344 8.312 21.844 8.312 30.188 0 4.218-4.218 6.28-9.75 6.25-15.282 0.094-58.716 47.906-106.464 106.654-106.496 5.468 0.032 10.906-2.062 15.094-6.218 8.308-8.346 8.308-21.846-0.004-30.188z" fill="#E9573F" /></svg>