<?xml version="1.0" standalone="no"?><!DOCTYPE svg PUBLIC "-//W3C//DTD SVG 1.1//EN" "http://www.w3.org/Graphics/SVG/1.1/DTD/svg11.dtd"><svg class="icon" width="128px" height="128.00px" viewBox="0 0 1024 1024" version="1.1" xmlns="http://www.w3.org/2000/svg"><path d="M767.996 0.008H256.004c-11.78 0-21.342 9.546-21.342 21.328v810.66c0 7.124 3.562 13.812 9.5 17.75l255.996 170.684a21.466 21.466 0 0 0 23.688 0l255.996-170.684a21.31 21.31 0 0 0 9.5-17.75V21.336C789.34 9.556 779.778 0.008 767.996 0.008z" fill="#ED5564" /><path d="M789.246 234.676L512 405.332l-277.246-170.656v127.998L512 533.328l277.246-170.654z" fill="#FFCE54" /><path d="M789.246 21.336L512 192.006 234.754 21.336v127.998L512 320.004l277.246-170.67zM789.246 448L512 618.688 234.754 448v128L512 746.684 789.246 576zM554.656 874.684c0 23.558-19.094 42.622-42.656 42.622s-42.656-19.062-42.656-42.622c0-23.562 19.092-42.688 42.656-42.688s42.656 19.126 42.656 42.688z" fill="#FFCE54" /><path d="M767.996 0.008H725.34c11.782 0 21.312 9.546 21.312 21.328v810.66c0 7.124-3.562 13.812-9.5 17.75l-246.496 164.308 9.5 6.376a21.466 21.466 0 0 0 23.688 0l255.996-170.684a21.31 21.31 0 0 0 9.5-17.75V21.336c0-11.78-9.562-21.328-21.344-21.328z" fill="#FFFFFF" opacity=".2" /></svg>