<?xml version="1.0" standalone="no"?><!DOCTYPE svg PUBLIC "-//W3C//DTD SVG 1.1//EN" "http://www.w3.org/Graphics/SVG/1.1/DTD/svg11.dtd"><svg class="icon" width="128px" height="128.00px" viewBox="0 0 1024 1024" version="1.1" xmlns="http://www.w3.org/2000/svg"><path d="M874.688 0.008H149.342c-11.782 0-21.328 9.53-21.328 21.312v959.984c0 11.782 9.546 21.344 21.328 21.344h725.346c11.75 0 21.312-9.562 21.312-21.344V21.32C896 9.54 886.438 0.008 874.688 0.008z" fill="#E6E9ED" /><path d="M512.008 1002.648H149.342c-11.782 0-21.328-9.562-21.328-21.344V21.32C128.014 9.538 137.56 0.008 149.342 0.008h362.666c11.782 0 21.328 9.53 21.328 21.312v959.984c0 11.782-9.546 21.344-21.328 21.344z" fill="#5D9CEC" /><path d="M896 959.992H128.014c-11.782 0-21.326 9.532-21.326 21.312v21.344c0 11.782 9.544 21.344 21.326 21.344H896c11.782 0 21.312-9.562 21.312-21.344v-21.344A21.3 21.3 0 0 0 896 959.992z" fill="#434A54" /><path d="M810.69 1002.648c-11.81 0-21.374 9.532-21.374 21.344h42.686c0-11.812-9.562-21.344-21.312-21.344zM725.316 1002.648c-11.75 0-21.312 9.532-21.312 21.344h42.688c0-11.812-9.564-21.344-21.376-21.344zM640.004 1002.648c-11.78 0-21.31 9.532-21.31 21.344h42.624c-0.002-11.812-9.532-21.344-21.314-21.344zM554.696 1002.648c-11.796 0-21.36 9.532-21.36 21.344h42.67c0-11.812-9.56-21.344-21.31-21.344zM469.336 1002.648c-11.78 0-21.326 9.532-21.326 21.344h42.67c0-11.812-9.562-21.344-21.344-21.344zM384.01 1002.648c-11.782 0-21.328 9.532-21.328 21.344h42.656c0-11.812-9.546-21.344-21.328-21.344zM298.684 1002.648c-11.782 0-21.344 9.532-21.344 21.344h42.672c0-11.812-9.548-21.344-21.328-21.344zM213.342 1002.648c-11.782 0-21.328 9.532-21.328 21.344h42.67c0-11.812-9.56-21.344-21.342-21.344z" fill="#656D78" /><path d="M448.01 554.656c-11.782 0-21.328-9.562-21.328-21.344V448c0-11.812 9.546-21.344 21.328-21.344 11.78 0 21.326 9.532 21.326 21.344v85.312c0 11.782-9.546 21.344-21.326 21.344z" fill="#434A54" /><path d="M832.002 85.32c-42.874 0-76.186 19.344-93.748 54.468-12.562 25.092-12.938 49.5-12.938 52.218 0 11.782 9.562 21.376 21.376 21.376 11.75 0 21.312-9.5 21.312-21.282 0-0.156 0.312-17.75 8.968-34.312 10.468-20.062 28.466-29.78 55.03-29.78s44.56 9.718 55.03 29.78c8.656 16.56 8.968 34.154 8.968 34.216V104.35c-17.25-12.436-38.998-19.03-63.998-19.03z" fill="#F6BB42" /><path d="M335.996 959.992h-122.654L298.684 0.166h122.638z" fill="#FFFFFF" opacity=".1" /><path d="M682.692 384c0 11.782-9.562 21.312-21.376 21.312-11.75 0-21.312-9.532-21.312-21.312 0-11.812 9.562-21.342 21.312-21.342 11.812 0 21.376 9.532 21.376 21.342zM768.004 384c0 11.782-9.562 21.312-21.312 21.312-11.812 0-21.376-9.532-21.376-21.312 0-11.812 9.562-21.342 21.376-21.342 11.75 0 21.312 9.532 21.312 21.342zM853.314 384c0 11.782-9.532 21.312-21.312 21.312S810.69 395.78 810.69 384c0-11.812 9.532-21.342 21.312-21.342s21.312 9.532 21.312 21.342zM682.692 469.312c0 11.782-9.562 21.342-21.376 21.342-11.75 0-21.312-9.562-21.312-21.342S649.566 448 661.316 448c11.812 0 21.376 9.532 21.376 21.312zM768.004 469.312c0 11.782-9.562 21.342-21.312 21.342-11.812 0-21.376-9.562-21.376-21.342S734.878 448 746.692 448c11.75 0 21.312 9.532 21.312 21.312zM853.314 469.312c0 11.782-9.532 21.342-21.312 21.342s-21.312-9.562-21.312-21.342S820.222 448 832.002 448s21.312 9.532 21.312 21.312zM682.692 554.656c0 11.782-9.562 21.344-21.376 21.344-11.75 0-21.312-9.562-21.312-21.344s9.562-21.344 21.312-21.344c11.812 0 21.376 9.564 21.376 21.344zM768.004 554.656c0 11.782-9.562 21.344-21.312 21.344-11.812 0-21.376-9.562-21.376-21.344s9.562-21.344 21.376-21.344c11.75 0 21.312 9.564 21.312 21.344zM853.314 554.656c0 11.782-9.532 21.344-21.312 21.344s-21.312-9.562-21.312-21.344 9.532-21.344 21.312-21.344 21.312 9.564 21.312 21.344zM682.692 639.996c0 11.782-9.562 21.312-21.376 21.312-11.75 0-21.312-9.532-21.312-21.312 0-11.812 9.562-21.344 21.312-21.344 11.812 0 21.376 9.532 21.376 21.344zM768.004 639.996c0 11.782-9.562 21.312-21.312 21.312-11.812 0-21.376-9.532-21.376-21.312 0-11.812 9.562-21.344 21.376-21.344 11.75 0 21.312 9.532 21.312 21.344zM853.314 639.996c0 11.782-9.532 21.312-21.312 21.312s-21.312-9.532-21.312-21.312c0-11.812 9.532-21.344 21.312-21.344s21.312 9.532 21.312 21.344z" fill="#5D9CEC" /><path d="M746.692 170.662c-58.844 0-106.688 47.844-106.688 106.654v21.344c0 11.782 9.562 21.344 21.312 21.344h170.686c11.782 0 21.312-9.562 21.312-21.344v-21.344c0-58.812-47.812-106.654-106.622-106.654z" fill="#FFCE54" /></svg>