<?xml version="1.0" standalone="no"?><!DOCTYPE svg PUBLIC "-//W3C//DTD SVG 1.1//EN" "http://www.w3.org/Graphics/SVG/1.1/DTD/svg11.dtd"><svg class="icon" width="128px" height="128.00px" viewBox="0 0 1024 1024" version="1.1" xmlns="http://www.w3.org/2000/svg"><path d="M213.336 298.662h254.462v42.688H213.336zM213.336 682.652h254.462v42.686H213.336z" fill="#CCD1D9" /><path d="M426.674 21.342H810.68v981.302H426.674z" fill="#656D78" /><path d="M405.332 0.014v1023.972h426.662V0.014H405.332z m383.972 981.318H448.002V42.686h341.302v938.646z" fill="#434A54" /><path d="M626.808 134.684c8.688 0 16.562 0.766 23.688 2.282 7.124 1.532 13.25 4.032 18.312 7.516 5.094 3.466 9.062 8.092 11.844 13.858 2.782 5.782 4.218 12.906 4.218 21.376 0 9.172-2.124 16.796-6.25 22.906-4.188 6.11-10.312 11.124-18.438 15.016 11.188 3.232 19.532 8.874 25.062 16.92 5.5 8.062 8.25 17.782 8.25 29.14 0 9.156-1.782 17.094-5.344 23.782-3.562 6.716-8.344 12.186-14.376 16.436-6.032 4.218-12.906 7.376-20.594 9.406a93.512 93.512 0 0 1-23.812 3.062h-88.042v-181.7h85.482z m-5.062 73.544c7.124 0 12.968-1.704 17.562-5.094 4.562-3.39 6.876-8.906 6.876-16.546 0-4.234-0.782-7.718-2.312-10.438-1.5-2.704-3.562-4.828-6.094-6.36s-5.468-2.578-8.782-3.172-6.75-0.89-10.312-0.89h-37.406v42.5h40.468z m2.282 77.092c3.906 0 7.656-0.376 11.218-1.124 3.562-0.782 6.688-2.062 9.376-3.844 2.75-1.782 4.876-4.188 6.5-7.234 1.624-3.062 2.438-6.954 2.438-11.718 0-9.328-2.624-15.984-7.876-19.968-5.282-3.984-12.25-5.984-20.876-5.984h-43.532v49.876h42.752zM638.278 416.91l67.968 181.682h-41.5l-13.75-40.466h-67.938l-14.25 40.466h-40.2l68.7-181.682h40.97z m2.28 111.466l-22.876-66.688h-0.532l-23.656 66.688h47.064zM637.122 706.308c8.156 0 15.5 1.312 22.032 3.938s12.124 6.218 16.782 10.812a46.046 46.046 0 0 1 10.688 15.904c2.468 6.032 3.688 12.5 3.688 19.468 0 10.688-2.25 19.938-6.75 27.75-4.5 7.782-11.812 13.718-22 17.812v0.5c4.938 1.344 9 3.438 12.218 6.218a35.456 35.456 0 0 1 7.906 9.938c2 3.812 3.5 8 4.438 12.594 0.938 4.592 1.562 9.154 1.906 13.748 0.156 2.876 0.344 6.282 0.532 10.188 0.124 3.876 0.438 7.876 0.876 11.938 0.438 4.06 1.094 7.936 2.032 11.592s2.344 6.75 4.218 9.282H655.72c-2.218-5.75-3.562-12.624-4.094-20.624-0.5-7.968-1.25-15.594-2.25-22.876-1.376-9.5-4.25-16.466-8.688-20.874-4.406-4.406-11.624-6.624-21.624-6.624h-39.938v70.996h-39.95v-181.682h97.946z m-14.25 82.186c9.188 0 16.062-2.032 20.624-6.124 4.562-4.062 6.876-10.688 6.876-19.844 0-8.812-2.312-15.218-6.876-19.218-4.562-3.968-11.438-5.968-20.624-5.968h-43.75v51.156h43.75z" fill="#FFCE54" /><path d="M213.336 234.68c-11.782 0-21.328 9.546-21.328 21.328v127.996c0 11.782 9.546 21.344 21.328 21.344s21.344-9.562 21.344-21.344v-127.996c0-11.782-9.562-21.328-21.344-21.328zM213.336 618.654c-11.782 0-21.328 9.562-21.328 21.344v127.996c0 11.782 9.546 21.344 21.328 21.344s21.344-9.562 21.344-21.344v-127.996c0-11.782-9.562-21.344-21.344-21.344z" fill="#E6E9ED" /></svg>