<?xml version="1.0" standalone="no"?><!DOCTYPE svg PUBLIC "-//W3C//DTD SVG 1.1//EN" "http://www.w3.org/Graphics/SVG/1.1/DTD/svg11.dtd"><svg class="icon" width="128px" height="128.00px" viewBox="0 0 1024 1024" version="1.1" xmlns="http://www.w3.org/2000/svg"><path d="M810.688 490.656c0-11.782 9.532-21.328 21.312-21.328v-42.672c-11.782 0-21.312-9.546-21.312-21.328S820.218 384 832 384V85.328c0-23.562-19.094-42.672-42.656-42.672H234.688C211.124 42.656 192 61.766 192 85.328V384c11.782 0 21.344 9.546 21.344 21.328S203.782 426.656 192 426.656v42.672c11.782 0 21.344 9.546 21.344 21.328S203.782 511.984 192 511.984V896l128 128h469.344c23.562 0 42.656-19.124 42.656-42.688V511.984c-11.782 0-21.312-9.546-21.312-21.328z" fill="#3BAFDA" /><path d="M810.688 490.656c0-11.782 9.532-21.328 21.312-21.328v-42.672c-11.782 0-21.312-9.546-21.312-21.328S820.218 384 832 384V42.656C832 19.094 812.906 0 789.344 0H234.688C211.124 0 192 19.094 192 42.656V384c11.782 0 21.344 9.546 21.344 21.328S203.782 426.656 192 426.656v42.672c11.782 0 21.344 9.546 21.344 21.328S203.782 511.984 192 511.984v341.328l128 128h469.344c23.562 0 42.656-19.094 42.656-42.656V511.984c-11.782 0-21.312-9.546-21.312-21.328z" fill="#4FC2E9" /><path d="M320 576c-11.75 0-21.312-9.562-21.312-21.344V128c0-11.766 9.562-21.344 21.312-21.344h384c11.782 0 21.344 9.578 21.344 21.344v426.656c0 11.782-9.562 21.344-21.344 21.344H320z" fill="#FFCE54" /><path d="M704 85.328H320c-23.562 0-42.656 19.094-42.656 42.672v426.656c0 23.562 19.094 42.656 42.656 42.656h384c23.562 0 42.688-19.094 42.688-42.656V128c0-23.578-19.126-42.672-42.688-42.672zM533.344 256V128h64v128h-64z m-106.656 0V128h64v128h-64zM320 128h64v170.656h320V384H320V128z m170.688 298.656v128h-64v-128h64z m42.656 0h64v128h-64v-128z m-213.344 0h64v128h-64v-128z m384 128h-64v-128h64v128zM640 256V128h64v128h-64z" fill="#F6BB42" /><path d="M320 704c0 11.782-9.532 21.312-21.312 21.312S277.344 715.78 277.344 704s9.562-21.344 21.344-21.344S320 692.218 320 704zM405.344 704c0 11.782-9.562 21.312-21.344 21.312S362.688 715.78 362.688 704s9.532-21.344 21.312-21.344 21.344 9.562 21.344 21.344zM490.688 704c0 11.782-9.562 21.312-21.344 21.312S448 715.782 448 704s9.562-21.344 21.344-21.344 21.344 9.562 21.344 21.344zM576 704c0 11.782-9.532 21.312-21.312 21.312S533.344 715.78 533.344 704s9.562-21.344 21.344-21.344S576 692.218 576 704zM661.344 704c0 11.782-9.562 21.312-21.344 21.312S618.688 715.78 618.688 704s9.532-21.344 21.312-21.344 21.344 9.562 21.344 21.344zM746.688 704c0 11.782-9.562 21.312-21.344 21.312S704 715.782 704 704s9.562-21.344 21.344-21.344 21.344 9.562 21.344 21.344z" fill="#3BAFDA" /><path d="M725.344 768H298.688c-11.782 0-21.344 9.562-21.344 21.312 0 11.812 9.562 21.344 21.344 21.344h426.656c11.782 0 21.344-9.532 21.344-21.344 0-11.75-9.564-21.312-21.344-21.312z" fill="#656D78" /></svg>