<?xml version="1.0" standalone="no"?><!DOCTYPE svg PUBLIC "-//W3C//DTD SVG 1.1//EN" "http://www.w3.org/Graphics/SVG/1.1/DTD/svg11.dtd"><svg class="icon" width="128px" height="128.00px" viewBox="0 0 1024 1024" version="1.1" xmlns="http://www.w3.org/2000/svg"><path d="M277.324 1023.992c-11.782 0-21.328-9.532-21.328-21.312v-21.344c0-11.782 9.546-21.344 21.328-21.344s21.344 9.562 21.344 21.344v21.344c0 11.78-9.562 21.312-21.344 21.312zM746.676 1023.992c-11.812 0-21.376-9.532-21.376-21.312v-21.344c0-11.782 9.562-21.344 21.376-21.344 11.75 0 21.312 9.562 21.312 21.344v21.344c0 11.78-9.562 21.312-21.312 21.312z" fill="#434A54" /><path d="M605.428 20.29C591.084 3.54 569.898 0.01 554.68 0.01c-15.266 0-36.438 3.53-50.796 20.28-14.562 17-13.906 38.092-13.218 44.968v169.434c0 11.782 9.546 21.312 21.328 21.312s21.328-9.532 21.328-21.312V64.006c0-1.062-0.078-2.156-0.25-3.25-0.016-0.062-0.704-8.124 3.218-12.718 3.782-4.406 12.078-5.344 18.39-5.344 6.188 0 14.406 0.906 18.248 5.218 3.5 3.938 3.532 11 3.25 13.156l0.062-0.312c-0.124 1.062-0.25 2.124-0.25 3.25 0 11.782 9.562 21.312 21.312 21.312 10.688 0 19.5-7.812 21.062-18.032h0.062c0.408-2.78 3.69-27.56-12.998-46.996z" fill="#CCD1D9" /><path d="M426.666 256.004c-11.782 0-21.344-9.532-21.344-21.312v-21.342c0-11.782 9.562-21.344 21.344-21.344s21.328 9.562 21.328 21.344v21.342c0 11.78-9.546 21.312-21.328 21.312z" fill="#5D9CEC" /><path d="M639.988 256.004a21.298 21.298 0 0 1-21.31-21.312v-21.342c0-11.782 9.532-21.344 21.31-21.344 11.782 0 21.312 9.562 21.312 21.344v21.342a21.3 21.3 0 0 1-21.312 21.312z" fill="#ED5564" /><path d="M746.676 213.348H277.324c-11.782 0-21.328 9.562-21.328 21.342 0 2 0.188 20 6.422 38.75 9.876 29.594 30.86 46.562 57.578 46.562h383.992c26.718 0 47.688-16.968 57.562-46.562 6.25-18.75 6.438-36.75 6.438-38.75 0-11.778-9.562-21.342-21.312-21.342z" fill="#E6E9ED" /><path d="M789.3 277.346H234.668c-11.78 0-21.342 9.562-21.342 21.344v682.646c0 11.782 9.562 21.344 21.342 21.344H789.3c11.812 0 21.374-9.562 21.374-21.344V298.69c0-11.78-9.56-21.344-21.374-21.344z" fill="#FFD2A6" /><path d="M362.666 895.992c0-23.5-19.138-42.656-42.67-42.656V426.688c23.532 0 42.67-19.156 42.67-42.688H661.3c0 23.532 19.156 42.688 42.688 42.688v426.648c-23.532 0-42.688 19.156-42.688 42.656H362.666z" fill="#A85D5D" /><path d="M703.988 405.344c-11.75 0-21.312-9.562-21.312-21.344 0-11.78-9.562-21.312-21.376-21.312H362.666c-11.782 0-21.342 9.532-21.342 21.312 0 11.782-9.562 21.344-21.328 21.344-11.782 0-21.328 9.562-21.328 21.344v426.648c0 11.782 9.546 21.344 21.328 21.344 11.766 0 21.328 9.562 21.328 21.312 0 11.812 9.56 21.344 21.342 21.344H661.3c11.812 0 21.376-9.532 21.376-21.344 0-11.75 9.562-21.312 21.312-21.312 11.782 0 21.312-9.562 21.312-21.344V426.688c0-11.78-9.53-21.344-21.312-21.344z m-21.312 430.308c-18.188 6.438-32.594 20.872-39.032 39.028H380.338c-6.438-18.156-20.86-32.59-39.014-39.028V444.376c18.154-6.468 32.576-20.876 39.014-39.032h263.306c6.438 18.156 20.844 32.562 39.032 39.032v391.276z" fill="#965353" /></svg>