<?xml version="1.0" standalone="no"?><!DOCTYPE svg PUBLIC "-//W3C//DTD SVG 1.1//EN" "http://www.w3.org/Graphics/SVG/1.1/DTD/svg11.dtd"><svg class="icon" width="128px" height="128.00px" viewBox="0 0 1024 1024" version="1.1" xmlns="http://www.w3.org/2000/svg"><path d="M597.31 10.664c-82.326 0-149.31 67-149.31 149.342v298.746c0 11.78 9.546 21.342 21.328 21.342h85.36c11.75 0 21.31-9.562 21.31-21.342V160.006c0-11.75 9.562-21.344 21.312-21.344 11.782 0 21.376 9.594 21.376 21.344v46.312c0 7 2.624 24.218 27.28 33.28 10.032 3.688 23.062 5.75 36.718 5.75 13.624 0 26.624-2.062 36.688-5.75 24.624-9.06 27.312-26.28 27.312-33.28V160.006c0-82.342-67-149.342-149.374-149.342z" fill="#FFCE54" /><path d="M618.686 181.35v24.968c0 7 2.624 24.218 27.28 33.28 10.032 3.688 23.062 5.75 36.718 5.75 13.624 0 26.624-2.062 36.688-5.75 24.624-9.06 27.312-26.28 27.312-33.28V181.35h-127.998z" fill="#F6BB42" /><path d="M341.33 352.002h-42.656c-23.53 0-42.67 19.124-42.67 42.656v42.688c0 23.498 19.14 42.654 42.67 42.654h42.656c23.532 0 42.672-19.156 42.672-42.654v-42.688c0-23.532-19.14-42.656-42.672-42.656z" fill="#ED5564" /><path d="M725.308 352.002h-42.624c-23.562 0-42.688 19.124-42.688 42.656v42.688c0 23.498 19.124 42.654 42.688 42.654h42.624c23.562 0 42.688-19.156 42.688-42.654v-42.688c0-23.532-19.124-42.656-42.688-42.656z" fill="#5D9CEC" /><path d="M975.086 529a21.418 21.418 0 0 0-15.094-6.25H64.006a21.32 21.32 0 0 0-15.076 6.25 21.294 21.294 0 0 0-6.25 15.094c0.016 129.81 48.888 249.246 137.622 336.37 87.296 85.686 205.092 132.874 331.7 132.874 126.622 0 244.402-47.188 331.682-132.874 88.748-87.124 137.624-206.558 137.624-336.37a21.352 21.352 0 0 0-6.222-15.094z" fill="#CCD1D9" /><path d="M975.086 529a21.418 21.418 0 0 0-15.094-6.25h-42.688c5.688 0 11.124 2.25 15.124 6.25s6.25 9.438 6.25 15.094c-0.062 129.81-48.938 249.246-137.652 336.37-82.344 80.842-191.904 127.404-310.356 132.404 7.078 0.282 14.188 0.468 21.328 0.468 126.622 0 244.402-47.188 331.682-132.874 88.748-87.124 137.624-206.558 137.624-336.37 0-5.654-2.218-11.092-6.218-15.092z" fill="#FFFFFF" opacity=".2" /><path d="M959.992 437.44H64.006c-35.294 0-63.998 28.686-63.998 63.998 0 35.282 28.704 64 63.998 64h895.986c35.312 0 64-28.718 64-64 0-35.314-28.688-63.998-64-63.998z" fill="#E6E9ED" /><path d="M895.992 458.752a21.3 21.3 0 0 0 21.312-21.312H874.68a21.3 21.3 0 0 0 21.312 21.312zM810.682 458.752c11.75 0 21.312-9.532 21.312-21.312h-42.686c0 11.78 9.564 21.312 21.374 21.312zM725.308 458.752c11.812 0 21.376-9.532 21.376-21.312h-42.688c0 11.78 9.562 21.312 21.312 21.312zM639.996 458.752a21.3 21.3 0 0 0 21.312-21.312h-42.624a21.3 21.3 0 0 0 21.312 21.312zM554.656 458.752c11.782 0 21.342-9.532 21.342-21.312h-42.67c0 11.78 9.548 21.312 21.328 21.312zM469.328 458.752c11.782 0 21.328-9.532 21.328-21.312H448c0 11.78 9.546 21.312 21.328 21.312zM384.002 458.752c11.782 0 21.326-9.532 21.326-21.312h-42.67c0 11.78 9.562 21.312 21.344 21.312zM298.658 458.752c11.782 0 21.344-9.532 21.344-21.312h-42.67c0 11.78 9.544 21.312 21.326 21.312zM213.332 458.752c11.782 0 21.328-9.532 21.328-21.312H192.004c0 11.78 9.546 21.312 21.328 21.312zM128.006 458.752c11.782 0 21.328-9.532 21.328-21.312H106.662c0 11.78 9.562 21.312 21.344 21.312z" fill="#CCD1D9" /></svg>