<?xml version="1.0" standalone="no"?><!DOCTYPE svg PUBLIC "-//W3C//DTD SVG 1.1//EN" "http://www.w3.org/Graphics/SVG/1.1/DTD/svg11.dtd"><svg class="icon" width="128px" height="128.00px" viewBox="0 0 1024 1024" version="1.1" xmlns="http://www.w3.org/2000/svg"><path d="M586.636 0.4H75.022v895.302h639.516V128.3z" fill="#E6E9ED" /><path d="M397.676 200.322l-130.804 98.5v170.554c0 11.772 9.554 21.296 21.328 21.296h212.802c11.77 0 21.326-9.526 21.326-21.296v-170.554l-124.652-98.5z" fill="#ED5564" /><path d="M543.984 554.624h-127.886v-63.95h0.156v-63.952a21.28 21.28 0 0 0-21.296-21.294c-11.772 0-21.328 9.524-21.328 21.294v49.96h-0.186v77.94H202.92v135.894h42.624v-93.24h127.9v149.196h42.654v-149.196h127.886c11.804 0 21.296-9.554 21.296-21.326 0.002-11.772-9.49-21.326-21.296-21.326z" fill="#434A54" /><path d="M714.538 128.3h-127.902V0.4z" fill="#CCD1D9" /><path d="M559.098 326.394l-149.12-149.21v-0.016c-8.336-8.322-21.826-8.322-30.164 0a1.594 1.594 0 0 1-0.218 0.266v-0.016l-149.102 148.96v0.016c-8.336 8.322-8.336 21.812 0 30.132 8.306 8.338 21.796 8.338 30.132 0l134.27-134.128 134.022 134.128c8.336 8.338 21.812 8.338 30.118 0 8.366-8.304 8.366-21.81 0.062-30.132z" fill="#434A54" /><path d="M224.25 725.178m-63.95 0a63.95 63.95 0 1 0 127.9 0 63.95 63.95 0 1 0-127.9 0Z" fill="#F6BB42" /><path d="M394.772 725.178m-63.95 0a63.95 63.95 0 1 0 127.9 0 63.95 63.95 0 1 0-127.9 0Z" fill="#8CC153" /><path d="M948.978 853.078v-127.9h-53.52c-2.312-6.434-4.872-12.678-7.808-18.768l37.91-37.876-90.43-90.46-37.906 37.91a176.14 176.14 0 0 0-18.738-7.778v-53.582h-127.898v53.582a182.272 182.272 0 0 0-18.796 7.778l-37.848-37.91-90.444 90.46 37.876 37.876a195.4 195.4 0 0 0-7.774 18.768h-53.552v127.9h53.552a194.994 194.994 0 0 0 7.774 18.734l-37.876 37.876 90.444 90.46 37.848-37.876a198.106 198.106 0 0 0 18.796 7.776V1023.6h127.898v-53.55a190.556 190.556 0 0 0 18.738-7.776l37.906 37.876 90.43-90.46-37.91-37.876c2.938-6.058 5.496-12.334 7.808-18.734h53.52z m-234.44 0c-35.348 0-63.95-28.634-63.95-63.952s28.602-63.95 63.95-63.95c35.286 0 63.95 28.632 63.95 63.95s-28.666 63.952-63.95 63.952z" fill="#AC92EB" /><path d="M714.538 682.524c-58.766 0-106.606 47.838-106.606 106.604 0 58.768 47.84 106.574 106.606 106.574s106.542-47.806 106.542-106.574c0-58.766-47.778-106.604-106.542-106.604z m0 170.554c-35.348 0-63.95-28.634-63.95-63.952s28.602-63.95 63.95-63.95c35.286 0 63.95 28.632 63.95 63.95s-28.666 63.952-63.95 63.952z" fill="#967ADC" /></svg>