<?xml version="1.0" standalone="no"?><!DOCTYPE svg PUBLIC "-//W3C//DTD SVG 1.1//EN" "http://www.w3.org/Graphics/SVG/1.1/DTD/svg11.dtd"><svg class="icon" width="128px" height="128.00px" viewBox="0 0 1024 1024" version="1.1" xmlns="http://www.w3.org/2000/svg"><path d="M491.112 149.32h458.6v42.688h-458.6z"  /><path d="M472.456 149.32c1.406 97.216-3.532 249.026-44.954 298.682-77.358 92.686-342.164 26.5-342.164 230.776v153.214H981.304V149.32H472.456z" fill="#ED5564" /><path d="M981.302 106.666V149.32H472.456l-0.296-42.654c0-23.562 19.11-42.656 42.67-42.656H938.68c23.562 0 42.622 19.094 42.622 42.656z" fill="#DA4453" /><path d="M85.338 746.65h895.964v42.656H85.338z" fill="#656D78" /><path d="M298.678 799.994h42.654v149.308h-42.654z" fill="#AAB2BC" /><path d="M192.008 746.65h42.672v53.968H192.008zM320.006 746.65h42.67v53.968h-42.67zM448.002 746.65h42.672v53.968h-42.672zM576 746.65h42.688v53.968H576zM703.996 746.65h42.688v53.968h-42.688zM831.994 746.65h42.686v53.968h-42.686z" fill="#434A54" /><path d="M1002.678 917.302h-21.376V789.306H21.34c-11.782 0-21.328 9.562-21.328 21.344v21.342c0 70.686 57.312 127.998 127.998 127.998h874.668c11.748 0 21.31-9.562 21.31-21.344s-9.562-21.344-21.31-21.344z m-874.668 0c-47.046 0-85.326-38.28-85.326-85.31H938.68v85.31H128.01z" fill="#CCD1D9" /><path d="M576 234.662h-104.31a1270.814 1270.814 0 0 1-2.188 42.656H576a21.3 21.3 0 0 0 21.312-21.312c0-11.812-9.53-21.344-21.312-21.344zM576 320.004h-110.358c-1.704 14.782-3.796 29.124-6.328 42.656H576c11.782 0 21.312-9.562 21.312-21.344s-9.53-21.312-21.312-21.312zM576 405.314h-127.186c-5.718 17.688-12.734 32.376-21.312 42.688H576c11.782 0 21.312-9.562 21.312-21.344s-9.53-21.344-21.312-21.344z" fill="#434A54" /></svg>