<?xml version="1.0" standalone="no"?><!DOCTYPE svg PUBLIC "-//W3C//DTD SVG 1.1//EN" "http://www.w3.org/Graphics/SVG/1.1/DTD/svg11.dtd"><svg class="icon" width="128px" height="128.00px" viewBox="0 0 1024 1024" version="1.1" xmlns="http://www.w3.org/2000/svg"><path d="M167.018 494.968c-4-4-9.42-6.25-15.078-6.25s-11.094 2.25-15.092 6.25l-90.496 90.528c-4 4-6.25 9.406-6.25 15.06a21.36 21.36 0 0 0 6.25 15.094L91.6 660.898a21.32 21.32 0 0 0 30.17 0l90.512-90.528c8.328-8.312 8.328-21.81 0-30.154l-45.264-45.248zM483.782 811.734c-8.328-8.312-21.828-8.312-30.17 0l-90.496 90.494c-4 4-6.25 9.438-6.25 15.094a21.36 21.36 0 0 0 6.25 15.092l45.248 45.248a21.32 21.32 0 0 0 30.17 0l90.512-90.494c4-4 6.234-9.438 6.234-15.094s-2.234-11.094-6.234-15.094l-45.264-45.246zM615.652 46.336c-8.344-8.326-21.844-8.326-30.188 0l-90.48 90.512a21.294 21.294 0 0 0 0 30.154l45.25 45.264c3.984 4 9.42 6.25 15.076 6.25s11.094-2.25 15.092-6.25l90.496-90.512c4-4 6.25-9.42 6.25-15.076s-2.25-11.078-6.25-15.094l-45.246-45.248zM977.664 408.35l-45.248-45.248c-4-4-9.438-6.25-15.092-6.25a21.36 21.36 0 0 0-15.094 6.25l-90.496 90.51c-8.312 8.328-8.312 21.828 0 30.172l45.248 45.246a21.348 21.348 0 0 0 30.186 0l90.496-90.51a21.324 21.324 0 0 0 0-30.17z" fill="#ED5564" /><path d="M498.876 917.322a21.354 21.354 0 0 0-15.092-6.25 21.32 21.32 0 0 0-21.328 21.342c0 5.876 2.39 11.218 6.25 15.062l30.17-30.154zM947.476 468.69a21.212 21.212 0 0 0-15.06-6.25c-11.78 0-21.342 9.546-21.342 21.344 0 5.888 2.376 11.216 6.25 15.076l30.152-30.17zM525.156 106.678a21.254 21.254 0 0 0 15.078 6.248c11.764 0 21.326-9.544 21.326-21.342 0-5.89-2.376-11.218-6.25-15.078l-30.154 30.172zM76.522 555.308a21.184 21.184 0 0 0 15.078 6.25c11.78 0 21.328-9.562 21.342-21.342 0-5.89-2.39-11.218-6.25-15.078l-30.17 30.17z" fill="#DA4453" /><path d="M236.56 1023.972c-52.012 0-104.994-26.624-157.46-79.058-28.296-28.31-48.826-58.058-61.012-88.496-10.702-26.654-15.062-53.872-12.968-80.84 3.624-46.652 26.514-84.9 46.716-105.086l14.046-14.062C154.16 568.184 629.932 92.366 670.492 51.836 694.116 28.198 733.582 0.028 787.454 0.028c51.998 0 104.994 26.608 157.458 79.072 28.282 28.296 48.812 58.06 60.998 88.464 10.716 26.67 15.06 53.874 12.966 80.856-3.624 46.67-26.496 84.886-46.714 105.088-28.124 28.124-496.382 496.41-598.922 598.938l-0.016 0.032c-0.016 0-0.032 0-0.032 0.032l-19.67 19.656c-23.638 23.62-63.106 51.806-116.962 51.806z" fill="#434A54" /><path d="M95.24 687.428l-0.094 0.094-13.14 13.154c-5.124 5.094-30.828 32.938-34.342 78.184-3.546 45.75 17.172 91.434 61.606 135.87 44.17 44.186 87.01 66.558 127.29 66.558 39.248 0 68.856-21.374 86.792-39.28l14.39-14.406c0.296-0.282 0.578-0.562 0.86-0.876l4.594-4.562c102.76-102.742 570.69-570.704 598.812-598.826 5.124-5.11 30.812-32.936 34.344-78.214 3.532-45.716-17.188-91.434-61.622-135.868-44.156-44.17-86.996-66.56-127.276-66.56-39.248 0-68.874 21.376-86.808 39.31L96.052 686.616l-0.812 0.812z" fill="#656D78" /><path d="M736.332 248.686c11.782 0 21.312-9.562 21.312-21.344 0-11.78-9.532-21.326-21.312-21.326-11.812 0-21.342 9.546-21.342 21.326 0 11.782 9.56 21.344 21.342 21.344zM796.64 309.01c11.782 0 21.344-9.546 21.344-21.326 0-11.782-9.562-21.328-21.344-21.328-11.78 0-21.31 9.546-21.31 21.328 0 11.778 9.532 21.326 21.31 21.326zM675.992 266.356c-11.782 0-21.344 9.546-21.344 21.328 0 11.78 9.562 21.326 21.344 21.326s21.312-9.546 21.312-21.326c0-11.782-9.53-21.328-21.312-21.328zM736.332 326.682c-11.782 0-21.342 9.562-21.342 21.342 0 11.782 9.56 21.328 21.31 21.328 11.812 0 21.344-9.546 21.344-21.328 0-11.78-9.53-21.342-21.312-21.342zM287.7 697.302c11.78 0 21.326-9.562 21.326-21.312 0-11.81-9.546-21.342-21.326-21.342-11.782 0-21.342 9.532-21.342 21.342-0.002 11.75 9.56 21.312 21.342 21.312zM348.024 757.642a21.33 21.33 0 0 0 21.342-21.342c0-11.75-9.562-21.312-21.342-21.312s-21.328 9.562-21.328 21.312a21.318 21.318 0 0 0 21.328 21.342zM227.358 714.988c-11.782 0-21.328 9.562-21.328 21.312a21.318 21.318 0 0 0 21.328 21.342 21.32 21.32 0 0 0 21.328-21.342c0-11.75-9.548-21.312-21.328-21.312zM287.7 775.296c-11.782 0-21.342 9.562-21.342 21.376 0 11.75 9.562 21.312 21.342 21.312s21.326-9.562 21.326-21.312c0-11.812-9.546-21.376-21.326-21.376z" fill="#AAB2BC" /></svg>