<?xml version="1.0" standalone="no"?><!DOCTYPE svg PUBLIC "-//W3C//DTD SVG 1.1//EN" "http://www.w3.org/Graphics/SVG/1.1/DTD/svg11.dtd"><svg class="icon" width="128px" height="128.00px" viewBox="0 0 1024 1024" version="1.1" xmlns="http://www.w3.org/2000/svg"><path d="M181.336 128.02a21.26 21.26 0 0 1-13.312-4.672l-53.34-42.67c-9.188-7.358-10.688-20.78-3.344-29.982 7.376-9.204 20.812-10.688 29.998-3.328L194.68 90.038c9.186 7.36 10.686 20.782 3.312 29.982a21.276 21.276 0 0 1-16.656 8zM842.664 128.02a21.276 21.276 0 0 1-16.656-8c-7.376-9.202-5.876-22.624 3.312-29.982l53.34-42.67c9.188-7.36 22.624-5.876 30 3.328 7.344 9.204 5.844 22.624-3.344 29.982l-53.342 42.67a21.252 21.252 0 0 1-13.31 4.672z" fill="#434A54" /><path d="M213.336 1023.972c-11.782 0-21.342-9.562-21.342-21.312V362.68c0-11.782 9.562-21.344 21.342-21.344s21.342 9.562 21.342 21.344v639.98c0 11.75-9.562 21.312-21.342 21.312zM810.664 1023.972c-11.782 0-21.342-9.562-21.342-21.312V362.68c0-11.782 9.56-21.344 21.342-21.344s21.312 9.562 21.312 21.344v639.98c0 11.75-9.53 21.312-21.312 21.312z" fill="#E6E9ED" /><path d="M245.334 85.35H181.336c-11.78 0-21.342 9.562-21.342 21.344V362.68c0 11.78 9.562 21.326 21.342 21.326h63.998c11.78 0 21.342-9.546 21.342-21.326V106.694c0-11.782-9.562-21.344-21.342-21.344zM842.664 85.35h-63.998c-11.78 0-21.342 9.562-21.342 21.344V362.68c0 11.78 9.562 21.326 21.342 21.326h63.998c11.78 0 21.31-9.546 21.31-21.326V106.694c0-11.782-9.53-21.344-21.31-21.344zM469.322 1023.972h-127.994c-11.782 0-21.342-9.562-21.342-21.312V149.348c0-24.532 8.562-59.358 21.75-88.73C359.548 20.98 381.672 0.028 405.7 0.028c24.092 0 46.092 20.982 63.654 60.7 12.936 29.248 21.312 64.042 21.312 88.622V1002.66c0 11.75-9.564 21.312-21.344 21.312z" fill="#5D9CEC" /><path d="M405.7 0.028c-24.03 0-46.154 20.952-63.964 60.59-13.188 29.374-21.75 64.2-21.75 88.73h170.678c0-24.578-8.376-59.374-21.312-88.622C451.792 21.01 429.792 0.028 405.7 0.028z" fill="#4A89DC" /><path d="M682.672 1023.972h-127.994c-11.794 0-21.358-9.562-21.358-21.312V149.348c0-24.532 8.532-59.358 21.764-88.73C572.894 20.98 595.02 0.028 619.05 0.028c24.058 0 46.09 20.982 63.652 60.7 12.938 29.248 21.28 64.042 21.28 88.622V1002.66c0 11.75-9.528 21.312-21.31 21.312z" fill="#5D9CEC" /><path d="M597.332 682.678a21.336 21.336 0 0 1-20.218-14.624l-42.7-127.978c-3.718-11.172 2.312-23.248 13.516-26.982 11.186-3.718 23.246 2.312 26.996 13.498l42.656 127.994c3.718 11.156-2.312 23.248-13.5 26.966-2.25 0.75-4.5 1.126-6.75 1.126z" fill="#CCD1D9" /><path d="M640.018 682.678c-2.25 0-4.532-0.376-6.75-1.124-11.186-3.718-17.216-15.81-13.498-26.966l42.652-127.994c3.718-11.186 15.812-17.216 27-13.498 11.154 3.734 17.216 15.81 13.498 26.982l-42.686 127.978a21.368 21.368 0 0 1-20.216 14.622z" fill="#CCD1D9" /><path d="M703.92 531.874h0.032c-0.156-2.11-1.718-21.124-12.124-40.592-14.906-27.904-40.906-43.278-73.152-43.278-32.282 0-58.248 15.374-73.152 43.278-10.422 19.468-12.016 38.482-12.14 40.592-0.032 0.234 0 0.468-0.032 0.718 0 0.25-0.032 0.484-0.032 0.734 0 0.124 0.032 0.234 0.032 0.36 0 0.39 0.032 0.766 0.062 1.156 0 0.328 0.032 0.656 0.062 0.984l0.188 1.124c0.062 0.328 0.094 0.656 0.188 0.984 0.062 0.36 0.156 0.704 0.25 1.046 0.094 0.328 0.188 0.672 0.282 0.984 0.124 0.328 0.25 0.64 0.376 0.968l0.376 0.984c0.156 0.296 0.282 0.594 0.438 0.876 0.156 0.328 0.312 0.656 0.5 0.984 0.156 0.282 0.312 0.532 0.5 0.812 0.188 0.312 0.376 0.624 0.594 0.906 0.188 0.282 0.376 0.532 0.562 0.782 0.218 0.282 0.438 0.594 0.688 0.844 0.188 0.25 0.438 0.5 0.656 0.75 0.25 0.25 0.468 0.5 0.718 0.75s0.5 0.438 0.782 0.688c0.25 0.218 0.468 0.438 0.75 0.656s0.562 0.406 0.844 0.654c0.282 0.188 0.532 0.376 0.812 0.562s0.594 0.376 0.906 0.532c0.296 0.156 0.578 0.344 0.89 0.5l0.938 0.468c0.312 0.124 0.624 0.282 0.968 0.406 0.282 0.124 0.624 0.218 0.938 0.344 0.344 0.124 0.688 0.25 1.062 0.376 0.282 0.062 0.592 0.124 0.904 0.218 0.376 0.094 0.782 0.188 1.156 0.282 0.312 0.032 0.624 0.062 0.938 0.124 0.406 0.062 0.812 0.124 1.188 0.124 0.124 0 0.218 0.062 0.344 0.062 0.5 0.032 1 0.062 1.5 0.062h127.962c11.782 0 21.31-9.56 21.31-21.358a23.514 23.514 0 0 0-0.064-1.446z" fill="#E6E9ED" /><path d="M383.982 682.678a21.366 21.366 0 0 1-20.218-14.624l-42.654-127.978c-3.75-11.172 2.312-23.248 13.468-26.982 11.186-3.718 23.28 2.312 27 13.498l42.654 127.994c3.718 11.156-2.312 23.248-13.5 26.966-2.218 0.75-4.5 1.126-6.75 1.126z" fill="#CCD1D9" /><path d="M426.668 682.678c-2.25 0-4.5-0.376-6.75-1.124-11.186-3.718-17.218-15.81-13.5-26.966l42.686-127.994c3.718-11.186 15.78-17.216 26.966-13.498 11.188 3.734 17.218 15.81 13.5 26.982l-42.654 127.978a21.404 21.404 0 0 1-20.248 14.622z" fill="#CCD1D9" /><path d="M490.602 531.874c-0.124-2.11-1.718-21.124-12.124-40.592-14.906-27.904-40.874-43.278-73.152-43.278-32.248 0-58.248 15.374-73.152 43.278-10.406 19.468-11.968 38.482-12.124 40.592v0.718c-0.032 0.25-0.062 0.484-0.062 0.734 0 0.124 0.032 0.234 0.032 0.36 0 0.39 0.032 0.766 0.062 1.156 0.032 0.328 0.032 0.656 0.094 0.984 0.032 0.376 0.094 0.75 0.156 1.124l0.188 0.984c0.062 0.36 0.156 0.704 0.282 1.046 0.062 0.328 0.156 0.672 0.282 0.984 0.094 0.328 0.218 0.64 0.344 0.968s0.25 0.656 0.406 0.984c0.124 0.296 0.282 0.594 0.406 0.876 0.156 0.328 0.312 0.656 0.5 0.984 0.156 0.282 0.344 0.532 0.5 0.812 0.188 0.312 0.376 0.624 0.594 0.906 0.188 0.282 0.376 0.532 0.594 0.782 0.218 0.282 0.438 0.594 0.656 0.844l0.656 0.75c0.25 0.25 0.468 0.5 0.718 0.75s0.532 0.438 0.782 0.688l0.75 0.656c0.282 0.218 0.562 0.406 0.876 0.654 0.25 0.188 0.5 0.376 0.782 0.562 0.312 0.188 0.624 0.376 0.906 0.532 0.312 0.156 0.594 0.344 0.876 0.5l0.938 0.468c0.312 0.124 0.624 0.282 0.968 0.406 0.312 0.124 0.624 0.218 0.938 0.344 0.344 0.124 0.688 0.25 1.062 0.376 0.312 0.062 0.624 0.124 0.938 0.218l1.124 0.282c0.312 0.032 0.656 0.062 0.968 0.124 0.376 0.062 0.782 0.124 1.188 0.124 0.094 0 0.218 0.062 0.312 0.062 0.5 0.032 1 0.062 1.5 0.062h127.962c11.78 0 21.342-9.56 21.342-21.358a25.234 25.234 0 0 0-0.068-1.446z" fill="#E6E9ED" /><path d="M255.99 981.288H170.682c-11.782 0-21.342-9.53-21.342-21.31s9.562-21.312 21.342-21.312h85.308c11.812 0 21.342 9.532 21.342 21.312s-9.53 21.31-21.342 21.31z" fill="#434A54" /><path d="M159.994 170.69h106.682v42.654H159.994zM159.994 256.014h106.682v42.67H159.994zM757.324 170.69h106.65v42.654h-106.65zM757.324 256.014h106.65v42.67h-106.65z" fill="#4A89DC" /><path d="M853.318 981.288H767.98c-11.75 0-21.312-9.53-21.312-21.31s9.562-21.312 21.312-21.312h85.338c11.782 0 21.342 9.532 21.342 21.312s-9.56 21.31-21.342 21.31z" fill="#434A54" /><path d="M619.05 0.028c-24.032 0-46.156 20.952-63.966 60.59-13.232 29.374-21.764 64.2-21.764 88.73h170.662c0-24.578-8.342-59.374-21.28-88.622C665.14 21.01 643.11 0.028 619.05 0.028z" fill="#4A89DC" /></svg>