<?xml version="1.0" standalone="no"?><!DOCTYPE svg PUBLIC "-//W3C//DTD SVG 1.1//EN" "http://www.w3.org/Graphics/SVG/1.1/DTD/svg11.dtd"><svg class="icon" width="128px" height="128.00px" viewBox="0 0 1024 1024" version="1.1" xmlns="http://www.w3.org/2000/svg"><path d="M832 192.006c-11.812 0-21.31 9.546-21.31 21.328v682.658c0 47.058-38.312 85.308-85.376 85.308-47.06 0-85.308-38.25-85.308-85.308V512c0-70.578-57.438-127.998-128.014-127.998-70.56 0-127.964 57.42-127.964 127.998v383.992c0 47.058-38.312 85.308-85.342 85.308-47.062 0-85.342-38.25-85.342-85.308V170.68c0-11.782-9.532-21.344-21.312-21.344-11.812 0-21.344 9.562-21.344 21.344v725.312c0 70.558 57.404 127.996 127.998 127.996 70.56 0 127.996-57.438 127.996-127.996V512c0-47.046 38.282-85.326 85.31-85.326 47.076 0 85.326 38.28 85.326 85.326v383.992c0 70.558 57.436 127.996 127.996 127.996 70.624 0 127.998-57.438 127.998-127.996V213.334c0-11.782-9.562-21.328-21.312-21.328z" fill="#434A54" /><path d="M832 0.012c-35.31 0-63.998 28.716-63.998 63.998v255.994c0 11.782 9.562 21.328 21.312 21.328h85.372c11.75 0 21.312-9.546 21.312-21.328V64.01C895.998 28.712 867.31 0.012 832 0.012zM192.032 0.012c-35.312 0-63.998 28.716-63.998 63.998v255.994c0 11.782 9.53 21.328 21.31 21.328h85.342c11.782 0 21.344-9.546 21.344-21.328V64.01c0-35.298-28.72-63.998-63.998-63.998z" fill="#DA4453" /><path d="M895.998 341.332h-127.996c-11.812 0-21.312-9.546-21.312-21.328s9.5-21.328 21.312-21.328h127.996c11.75 0 21.312 9.546 21.312 21.328s-9.562 21.328-21.312 21.328zM838.25 271.098c-8.312-8.342-8.312-21.842 0-30.17 8.312-8.344 21.81-8.344 30.186 0 8.312 8.328 8.312 21.828 0 30.17-8.376 8.328-21.874 8.328-30.186 0zM795.564 207.084c-8.312-8.328-8.312-21.828 0-30.17 8.376-8.328 21.874-8.328 30.186 0 8.312 8.342 8.312 21.842 0 30.17-8.312 8.344-21.81 8.344-30.186 0zM838.25 164.43c-8.312-8.328-8.312-21.844 0-30.172s21.81-8.328 30.186 0c8.312 8.328 8.312 21.844 0 30.172-8.376 8.328-21.874 8.328-30.186 0zM795.564 100.43c-8.312-8.328-8.312-21.842 0-30.17 8.376-8.328 21.874-8.328 30.186 0s8.312 21.844 0 30.17c-8.312 8.328-21.81 8.328-30.186 0zM256.03 341.332H128.034c-11.812 0-21.344-9.546-21.344-21.328s9.532-21.328 21.344-21.328h127.996c11.782 0 21.312 9.546 21.312 21.328s-9.532 21.328-21.312 21.328zM198.282 271.098c-8.344-8.342-8.344-21.842 0-30.17 8.312-8.344 21.81-8.344 30.154 0 8.344 8.328 8.344 21.828 0 30.17-8.344 8.328-21.842 8.328-30.154 0zM155.594 207.084c-8.312-8.328-8.312-21.828 0-30.17 8.344-8.328 21.844-8.328 30.188 0 8.312 8.342 8.312 21.842 0 30.17a21.332 21.332 0 0 1-30.188 0zM198.282 164.43c-8.344-8.328-8.344-21.844 0-30.172 8.312-8.328 21.81-8.328 30.154 0s8.344 21.844 0 30.172-21.842 8.328-30.154 0zM155.594 100.43c-8.312-8.328-8.312-21.842 0-30.17 8.344-8.328 21.844-8.328 30.188 0 8.312 8.328 8.312 21.844 0 30.17-8.344 8.328-21.844 8.328-30.188 0z" fill="#ED5564" /></svg>