<?xml version="1.0" standalone="no"?><!DOCTYPE svg PUBLIC "-//W3C//DTD SVG 1.1//EN" "http://www.w3.org/Graphics/SVG/1.1/DTD/svg11.dtd"><svg class="icon" width="128px" height="128.00px" viewBox="0 0 1024 1024" version="1.1" xmlns="http://www.w3.org/2000/svg"><path d="M490.546 530.85c-196.592-196.594-324.074 5.902-324.074 5.902s-58.916 96.922-115.988 228.494S0.626 970.334 0.626 970.334l25.218 25.202 25.218 25.234s73.5 7.214 205.072-49.876c131.588-57.056 228.526-115.988 228.526-115.988s202.478-127.48 5.886-324.056z" fill="#E6E9ED" /><path d="M474.496 860.936l-14.304-6.902s-117.94-85.07-187.49 109.586c98.562-43.786 175.184-87.164 201.794-102.684zM171.72 565.53l-10.93-19.206c-15.458 26.452-60.196 105.338-104.964 206.71 194.984-69.548 115.894-187.504 115.894-187.504zM63.524 942.79c8.324-8.34 8.324-21.83 0-30.168-8.322-8.308-21.83-8.308-30.152 0v0.032L0.954 945.038c-1.186 16.644-0.328 25.296-0.328 25.296l17.676 17.676 45.222-45.22zM108.746 957.874c-8.324-8.34-21.814-8.34-30.138-0.032l-0.016 0.032-45.22 45.22 17.692 17.676s8.636 0.844 25.266-0.344l32.416-32.416h0.016c8.322-8.338 8.322-21.83-0.016-30.136z" fill="#434A54" /><path d="M229.2 230.166c9.994-86.568 42.644-84.914 94.048-227.228 0 0-253.228 177.106-233.256 313.58 8.838 60.398 108.462 253.228 108.462 253.228s125.608 8.588 166.41-79.058c19.11-41.068-145.644-173.952-135.664-260.522z" fill="#FC6E51" /><path d="M112.398 219.956c-7.026 13.146-12.772 26.388-16.818 39.506 57.496 31.666 123.53 20.924 141.52 17.114-5.7-14.616-8.854-28.7-8.246-41.816-11.866 2.558-70.078 13.146-116.456-14.804zM255.26 312.77c-16.38 8.246-90.458 41.818-162.458 17.052 3.452 13.272 9.26 29.888 16.458 48.188 85.056 15.272 161.74-25.14 169.658-29.482-8.48-11.866-16.568-23.86-23.658-35.758zM315.846 397.528c-22.922 17.176-96.236 65.708-175.84 51.966a2635.244 2635.244 0 0 0 21.096 44.972c84.228 3.124 155.088-43.692 180.322-62.742-7.558-10.71-16.334-22.204-25.578-34.196z" fill="#E9573F" /><path d="M796.476 797.412c86.538-9.992 84.914-42.66 227.198-94.064 0 0-177.074 253.244-313.58 233.258-60.368-8.838-253.244-108.432-253.244-108.432s-8.572-125.636 79.09-166.424c41.052-19.114 173.968 145.656 260.536 135.662z" fill="#FC6E51" /><path d="M806.658 914.212c-13.148 7.028-26.36 12.774-39.508 16.802-31.666-57.464-20.89-123.516-17.114-141.504 14.618 5.684 28.73 8.838 41.848 8.244-2.56 11.87-13.148 70.082 14.774 116.458zM713.842 771.336c-8.214 16.396-41.786 90.472-17.02 162.458-13.274-3.436-29.918-9.244-48.218-16.458-15.242-85.04 25.17-161.74 29.512-169.64 11.836 8.494 23.828 16.55 35.726 23.64zM629.116 710.75c-17.176 22.954-65.708 96.25-51.966 175.856a2734.26 2734.26 0 0 1-45.002-21.112c-3.094-84.196 43.69-155.056 62.772-180.322 10.68 7.59 22.172 16.334 34.196 25.578z" fill="#E9573F" /></svg>