<?xml version="1.0" standalone="no"?><!DOCTYPE svg PUBLIC "-//W3C//DTD SVG 1.1//EN" "http://www.w3.org/Graphics/SVG/1.1/DTD/svg11.dtd"><svg class="icon" width="128px" height="128.00px" viewBox="0 0 1024 1024" version="1.1" xmlns="http://www.w3.org/2000/svg"><path d="M757.304 256.008c-11.75 0-21.312 9.562-21.312 21.342v725.322c0 11.782 9.562 21.312 21.312 21.312h213.372c11.746 0 21.308-9.532 21.308-21.312V405.348c0-51.656-49.058-149.34-234.68-149.34z" fill="#AC92EB" /><path d="M757.304 256.008c-11.75 0-21.312 9.562-21.312 21.342v127.998h255.992c0-51.656-49.058-149.34-234.68-149.34zM544 170.698c-11.782 0-21.328-9.562-21.328-21.344V21.358c0-11.782 9.546-21.342 21.328-21.342s21.312 9.56 21.312 21.342v127.996c0 11.78-9.53 21.344-21.312 21.344z" fill="#434A54" /><path d="M627.808 128.012h-169.134c-11.782 0-21.342 9.562-21.342 21.342v127.996c0 11.782 9.562 21.344 21.342 21.344h169.134c11.75 0 21.312-9.562 21.312-21.344V149.354c0.002-11.78-9.562-21.342-21.312-21.342z" fill="#4A89DC" /><path d="M671.996 1023.984H416.002c-11.78 0-21.328-9.532-21.328-21.312V277.35c0-11.78 9.546-21.342 21.328-21.342h255.994c11.782 0 21.312 9.562 21.312 21.342v725.322a21.298 21.298 0 0 1-21.312 21.312z" fill="#5D9CEC" /><path d="M501.33 341.35c-11.782 0-21.328 9.56-21.328 21.342v661.292h42.67V362.692c0-11.782-9.562-21.342-21.342-21.342zM586.684 341.35c-11.812 0-21.372 9.56-21.372 21.342v661.292h42.684V362.692c0-11.782-9.562-21.342-21.312-21.342z" fill="#4A89DC" /><path d="M437.332 170.698h211.79v42.654H437.332z" fill="#397EC9" /><path d="M906.926 533.344h-85.308c-11.782 0-21.344-9.562-21.344-21.344s9.562-21.312 21.344-21.312h85.308c11.812 0 21.344 9.532 21.344 21.312s-9.532 21.344-21.344 21.344zM906.926 618.684h-85.308c-11.782 0-21.344-9.562-21.344-21.344 0-11.78 9.562-21.342 21.344-21.342h85.308a21.332 21.332 0 0 1 21.344 21.342c0 11.782-9.532 21.344-21.344 21.344zM906.926 703.994h-85.308c-11.782 0-21.344-9.532-21.344-21.312 0-11.78 9.562-21.342 21.344-21.342h85.308a21.332 21.332 0 0 1 21.344 21.342c0 11.78-9.532 21.312-21.344 21.312zM906.926 789.336h-85.308c-11.782 0-21.344-9.532-21.344-21.344 0-11.782 9.562-21.312 21.344-21.312h85.308c11.812 0 21.344 9.532 21.344 21.312a21.314 21.314 0 0 1-21.344 21.344zM906.926 874.676h-85.308c-11.782 0-21.344-9.562-21.344-21.342 0-11.782 9.562-21.344 21.344-21.344h85.308c11.812 0 21.344 9.562 21.344 21.344 0 11.78-9.532 21.342-21.344 21.342zM906.926 959.986h-85.308c-11.782 0-21.344-9.53-21.344-21.31s9.562-21.344 21.344-21.344h85.308c11.812 0 21.344 9.562 21.344 21.344s-9.532 21.31-21.344 21.31z" fill="#967ADC" /><path d="M799.804 351.16c38.188 11.094 63.246 29.312 74.622 54.188h44.282c0-2.282-0.344-4.624-1.156-6.906-33.718-98.624-175.558-99.748-181.558-99.748v42.656c0.31 0 30.404 0.124 63.81 9.81z" fill="#656D78" /><path d="M330.678 448.002H74.684c-11.78 0-21.342 9.562-21.342 21.344v533.326c0 11.782 9.562 21.312 21.342 21.312h255.994c11.78 0 21.328-9.532 21.328-21.312V469.346c-0.002-11.782-9.548-21.344-21.328-21.344z" fill="#ED5564" /><path d="M138.682 639.996c-11.78 0-21.342-9.532-21.342-21.312v-37.342c0-11.782 9.562-21.344 21.342-21.344 11.782 0 21.328 9.562 21.328 21.344v37.342c0 11.78-9.546 21.312-21.328 21.312zM202.68 639.996c-11.78 0-21.342-9.532-21.342-21.312v-37.342c0-11.782 9.562-21.344 21.342-21.344 11.782 0 21.328 9.562 21.328 21.344v37.342c0 11.78-9.546 21.312-21.328 21.312zM266.68 639.996c-11.782 0-21.344-9.532-21.344-21.312v-37.342c0-11.782 9.562-21.344 21.344-21.344 11.78 0 21.328 9.562 21.328 21.344v37.342c-0.002 11.78-9.548 21.312-21.328 21.312zM138.682 746.68c-11.78 0-21.342-9.562-21.342-21.344v-37.342c0-11.748 9.562-21.31 21.342-21.31 11.782 0 21.328 9.562 21.328 21.31v37.342c0 11.782-9.546 21.344-21.328 21.344zM202.68 746.68c-11.78 0-21.342-9.562-21.342-21.344v-37.342c0-11.748 9.562-21.31 21.342-21.31 11.782 0 21.328 9.562 21.328 21.31v37.342c0 11.782-9.546 21.344-21.328 21.344zM266.68 746.68c-11.782 0-21.344-9.562-21.344-21.344v-37.342c0-11.748 9.562-21.31 21.344-21.31 11.78 0 21.328 9.562 21.328 21.31v37.342c-0.002 11.782-9.548 21.344-21.328 21.344zM138.682 853.334a21.332 21.332 0 0 1-21.342-21.344V794.68c0-11.782 9.562-21.344 21.342-21.344 11.782 0 21.328 9.562 21.328 21.344v37.31c0 11.812-9.546 21.344-21.328 21.344zM202.68 853.334a21.332 21.332 0 0 1-21.342-21.344V794.68c0-11.782 9.562-21.344 21.342-21.344 11.782 0 21.328 9.562 21.328 21.344v37.31c0 11.812-9.546 21.344-21.328 21.344zM266.68 853.334c-11.782 0-21.344-9.532-21.344-21.344V794.68c0-11.782 9.562-21.344 21.344-21.344 11.78 0 21.328 9.562 21.328 21.344v37.31c-0.002 11.812-9.548 21.344-21.328 21.344zM138.682 959.986c-11.78 0-21.342-9.53-21.342-21.31v-37.344c0-11.782 9.562-21.344 21.342-21.344 11.782 0 21.328 9.562 21.328 21.344v37.344c0 11.782-9.546 21.31-21.328 21.31zM202.68 959.986c-11.78 0-21.342-9.53-21.342-21.31v-37.344c0-11.782 9.562-21.344 21.342-21.344 11.782 0 21.328 9.562 21.328 21.344v37.344c0 11.782-9.546 21.31-21.328 21.31zM266.68 959.986c-11.782 0-21.344-9.53-21.344-21.31v-37.344c0-11.782 9.562-21.344 21.344-21.344 11.78 0 21.328 9.562 21.328 21.344v37.344c-0.002 11.782-9.548 21.31-21.328 21.31z" fill="#F6BB42" /><path d="M352.004 490.688H53.342c-11.782 0-21.328-9.562-21.328-21.342 0-11.782 9.546-21.344 21.328-21.344h298.664c11.782 0 21.328 9.562 21.328 21.344-0.002 11.778-9.548 21.342-21.33 21.342z" fill="#656D78" /></svg>