<?xml version="1.0" standalone="no"?><!DOCTYPE svg PUBLIC "-//W3C//DTD SVG 1.1//EN" "http://www.w3.org/Graphics/SVG/1.1/DTD/svg11.dtd"><svg class="icon" width="128px" height="128.00px" viewBox="0 0 1024 1024" version="1.1" xmlns="http://www.w3.org/2000/svg"><path d="M679.058 649.488l-35.498 23.688 85.374 127.998 35.5-23.688zM216.93 777.486l35.498 23.688 85.326-127.998-35.498-23.688z" fill="#434A54" /><path d="M1002.678 661.3a21.366 21.366 0 0 0-21.376 21.376c0 46.998-38.248 85.31-85.31 85.31H21.34c-11.782 0-21.328 9.562-21.328 21.312 0 11.812 9.546 21.376 21.328 21.376h874.652c70.688 0 127.996-57.312 127.996-127.998 0-11.812-9.562-21.376-21.31-21.376z" fill="#656D78" /><path d="M962.274 484.414h-38.624v27.562h-112.966c-23.498 0-52.28 9.594-63.998 21.344-11.75 11.734-40.562 21.36-64 21.36H469.33c-23.454 0-49.016-18.14-56.782-40.296 0 0-87.358-274.182-369.818-301.056-2.11-0.218 2.124 42.842 0 42.656l116.762 428.194c6.172 22.624 30.422 41.124 53.89 41.124h554.614c23.468 0 54.654-15 69.31-33.312l117.374-146.684c5.812-7.296 8.188-14.046 7.438-19.546h0.156v-41.346z" fill="#DA4453" /><path d="M938.68 469.322h-127.998c-23.498 0-52.28 9.592-63.998 21.342-11.75 11.718-40.562 21.312-64 21.312H469.33c-23.454 0-49.016-18.124-56.782-40.25 0 0-82.216-234.402-369.818-258.4l116.762 428.162c6.172 22.624 30.422 41.188 53.89 41.188h554.614c23.468 0 54.654-15 69.31-33.376l117.374-146.668c14.656-18.312 7.438-33.31-16-33.31z" fill="#ED5564" /></svg>