<?xml version="1.0" standalone="no"?><!DOCTYPE svg PUBLIC "-//W3C//DTD SVG 1.1//EN" "http://www.w3.org/Graphics/SVG/1.1/DTD/svg11.dtd"><svg class="icon" width="128px" height="128.00px" viewBox="0 0 1024 1024" version="1.1" xmlns="http://www.w3.org/2000/svg"><path d="M831.984 1023.982H234.678c-11.78 0-21.342-9.562-21.342-21.344V21.33c0-11.782 9.562-21.312 21.342-21.312h597.306c11.782 0 21.344 9.532 21.344 21.312v981.308c0 11.782-9.562 21.344-21.344 21.344z" fill="#967ADC" /><path d="M767.988 64.014H298.676c-11.782 0-21.342 9.532-21.342 21.312v213.336c0 11.782 9.562 21.344 21.342 21.344h469.312c11.782 0 21.344-9.562 21.344-21.344V85.326c0-11.782-9.562-21.312-21.344-21.312z" fill="#E6E9ED" /><path d="M767.988 277.32H298.676c-11.782 0-21.342-9.532-21.342-21.312v42.654c0 11.782 9.562 21.344 21.342 21.344h469.312c11.782 0 21.344-9.562 21.344-21.344v-42.654c0 11.782-9.562 21.312-21.344 21.312z" fill="#080808" opacity=".1" /><path d="M831.984 170.668H618.68a21.36 21.36 0 0 0-15.094 6.25l-384 383.986a21.298 21.298 0 0 0-6.25 15.092v426.642c0 11.782 9.562 21.344 21.342 21.344h597.306c11.782 0 21.344-9.562 21.344-21.344V192.01c0-11.812-9.562-21.342-21.344-21.342z" fill="#AC92EB" /><path d="M249.756 560.904c-8.328-8.344-21.842-8.344-30.17 0l-42.654 42.654a21.332 21.332 0 0 0 0 30.188c4.156 4.156 9.624 6.25 15.078 6.25s10.922-2.094 15.078-6.25l42.67-42.688c8.326-8.312 8.326-21.844-0.002-30.154z" fill="#434A54" /><path d="M213.336 810.644h639.992v42.654H213.336zM213.336 639.996h639.992v42.654H213.336zM853.328 469.312H618.68c-11.782 0-21.344 9.562-21.344 21.344S606.898 512 618.68 512h234.648v-42.688zM853.328 298.662H618.68c-11.782 0-21.344 9.532-21.344 21.344 0 11.782 9.562 21.312 21.344 21.312h234.648v-42.656z" fill="#967ADC" /><path d="M626.836 172.292a21.332 21.332 0 0 0-23.25 4.624l-384 383.986a21.358 21.358 0 0 0-4.624 23.248 21.336 21.336 0 0 0 19.716 13.156H618.68a21.3 21.3 0 0 0 21.312-21.312V192.01c0-8.656-5.188-16.436-13.156-19.718z" fill="#656D78" /><path d="M831.984 170.668h-42.652c11.782 0 21.344 9.53 21.344 21.342v810.628c0 11.782-9.562 21.344-21.344 21.344h42.652c11.782 0 21.344-9.562 21.344-21.344V192.01c0-11.812-9.562-21.342-21.344-21.342z" fill="#FFFFFF" opacity=".2" /></svg>