<?xml version="1.0" standalone="no"?><!DOCTYPE svg PUBLIC "-//W3C//DTD SVG 1.1//EN" "http://www.w3.org/Graphics/SVG/1.1/DTD/svg11.dtd"><svg class="icon" width="128px" height="128.00px" viewBox="0 0 1024 1024" version="1.1" xmlns="http://www.w3.org/2000/svg"><path d="M749.672 124.982C669.112 44.406 561.958 0.018 447.994 0.018S226.892 44.406 146.3 124.982c-80.576 80.592-124.964 187.728-124.964 301.694v490.658c0 11.782 9.562 21.34 21.344 21.34h810.614c11.812 0 21.376-9.558 21.376-21.34v-490.66c-0.002-113.964-44.408-221.1-124.998-301.692z" fill="#FFCE54" /><path d="M810.012 912.144L788.67 826.8a21.27 21.27 0 0 0-20.686-16.124H128.004c-9.782 0-18.328 6.624-20.704 16.124l-21.326 85.344c-0.422 1.718-0.64 3.438-0.64 5.188v85.34c0 11.75 9.562 21.312 21.342 21.312h682.62c11.812 0 21.374-9.562 21.374-21.312v-85.34a22.608 22.608 0 0 0-0.658-5.188z" fill="#656D78" /><path d="M106.676 1023.984h682.62c11.812 0 21.374-9.562 21.374-21.312v-85.34H85.334v85.34c0 11.75 9.562 21.312 21.342 21.312zM938.664 533.344c-11.812 0-21.374-9.562-21.374-21.342v-191.994c0-11.782 9.56-21.328 21.374-21.328 11.75 0 21.312 9.546 21.312 21.328V512c0 11.782-9.562 21.344-21.312 21.344z" fill="#434A54" /><path d="M981.29 618.684h-106.622c-11.812 0-21.376-9.562-21.376-21.344V512c0-11.782 9.562-21.328 21.376-21.328h106.622c11.812 0 21.376 9.546 21.376 21.328v85.338c-0.002 11.784-9.564 21.346-21.376 21.346z" fill="#656D78" /><path d="M938.664 213.354c-35.31 0-63.996 28.702-63.996 63.998 0 35.28 28.686 63.998 63.996 63.998 35.25 0 64-28.718 64-63.998 0-35.296-28.75-63.998-64-63.998z" fill="#ED5564" /><path d="M874.668 639.996c-11.812 0-21.376-9.562-21.376-21.312v-128.01c0-11.782 9.562-21.328 21.376-21.328 11.75 0 21.31 9.546 21.31 21.328v128.01c0 11.75-9.56 21.312-21.31 21.312z" fill="#F6BB42" /><path d="M319.998 1002.672H192.002c-11.782 0-21.328-9.562-21.328-21.344s9.546-21.344 21.328-21.344h127.996c11.782 0 21.328 9.562 21.328 21.344s-9.546 21.344-21.328 21.344zM703.984 981.328c-11.782 0-21.312 9.532-21.312 21.344v21.312h42.624v-21.312c0-11.812-9.53-21.344-21.312-21.344zM618.676 981.328c-11.812 0-21.376 9.532-21.376 21.344v21.312h42.688v-21.312c0-11.812-9.562-21.344-21.312-21.344z" opacity=".2" /><path d="M319.81 789.336h-127.62a21.318 21.318 0 0 0-21.328 21.34v64h170.278v-64c-0.002-11.808-9.548-21.34-21.33-21.34zM511.804 789.336h-127.622a21.318 21.318 0 0 0-21.328 21.34v64h170.276v-64c0-11.808-9.544-21.34-21.326-21.34zM703.796 789.336h-127.622c-11.782 0-21.31 9.532-21.31 21.34v64h170.244v-64c0.002-11.808-9.53-21.34-21.312-21.34z" fill="#ED5564" /><path d="M128.004 405.348h170.666v298.644H128.004z" fill="#F5F7FA" /><path d="M298.67 725.336H128.004c-11.782 0-21.328-9.562-21.328-21.344V405.348c0-11.782 9.546-21.342 21.328-21.342h170.666c11.782 0 21.328 9.562 21.328 21.342v298.644c0 11.782-9.546 21.344-21.328 21.344z m-149.338-42.652h127.996V426.674H149.332v256.01z" fill="#F6BB42" /><path d="M597.3 405.348h170.684v298.644H597.3z" fill="#F5F7FA" /><path d="M767.984 725.336H597.3c-11.75 0-21.312-9.562-21.312-21.344V405.348c0-11.782 9.562-21.342 21.312-21.342h170.684c11.78 0 21.31 9.562 21.31 21.342v298.644c0 11.782-9.53 21.344-21.31 21.344z m-149.308-42.652h127.996V426.674h-127.996v256.01z" fill="#F6BB42" /><path d="M362.668 405.348h170.65v298.644h-170.65z" fill="#F5F7FA" /><path d="M533.318 725.336h-170.65c-11.782 0-21.342-9.562-21.342-21.344V405.348c0-11.782 9.56-21.342 21.342-21.342h170.65c11.796 0 21.36 9.562 21.36 21.342v298.644c0 11.782-9.562 21.344-21.36 21.344z m-149.322-42.652h127.996V426.674h-127.996v256.01z" fill="#F6BB42" /><path d="M265.156 519.078c0.124-0.376 0.266-0.766 0.376-1.156 0.094-0.328 0.172-0.656 0.25-0.984s0.156-0.672 0.218-1c0.078-0.406 0.14-0.796 0.188-1.204 0.032-0.282 0.078-0.562 0.094-0.842 0.046-0.454 0.062-0.906 0.078-1.376 0-0.172 0.016-0.344 0.016-0.516v-0.25a35.788 35.788 0 0 0-0.078-1.312c-0.016-0.282-0.032-0.578-0.062-0.86-0.046-0.36-0.11-0.718-0.156-1.062-0.062-0.36-0.124-0.718-0.188-1.062a14.228 14.228 0 0 0-0.218-0.796 18.748 18.748 0 0 0-0.328-1.234c-0.078-0.204-0.172-0.422-0.234-0.624a17.71 17.71 0 0 0-0.5-1.296c-0.094-0.218-0.218-0.438-0.328-0.656a16.216 16.216 0 0 0-0.562-1.156 16.258 16.258 0 0 0-0.532-0.86c-0.172-0.282-0.344-0.578-0.532-0.86-0.234-0.344-0.5-0.688-0.766-1.032-0.156-0.188-0.296-0.39-0.454-0.578-0.282-0.36-0.61-0.688-0.922-1.016-0.156-0.172-0.296-0.344-0.468-0.5-0.296-0.296-0.624-0.578-0.938-0.86-0.218-0.188-0.406-0.376-0.624-0.546-0.282-0.218-0.562-0.422-0.86-0.64-0.296-0.204-0.578-0.422-0.876-0.624-0.25-0.156-0.5-0.296-0.75-0.454-0.376-0.218-0.75-0.438-1.124-0.64-0.078-0.046-0.156-0.094-0.234-0.124-0.156-0.078-0.312-0.14-0.484-0.218-0.406-0.188-0.812-0.376-1.218-0.546a15.208 15.208 0 0 0-0.828-0.296c-0.376-0.124-0.75-0.25-1.14-0.376a18.256 18.256 0 0 0-1-0.25 21.678 21.678 0 0 0-0.984-0.218c-0.406-0.078-0.812-0.124-1.218-0.188l-0.828-0.094a13.96 13.96 0 0 0-1.376-0.062 5.582 5.582 0 0 0-0.516-0.032H181.048c-11.782 0-21.326 9.546-21.326 21.328 0 11.78 9.544 21.342 21.326 21.342h29.36l-27.078 53.714c-5.296 10.532-1.062 23.376 9.454 28.656a21.108 21.108 0 0 0 9.578 2.282c7.812 0 15.328-4.282 19.078-11.75l42.654-84.636c0.078-0.156 0.14-0.328 0.218-0.484 0.188-0.406 0.376-0.812 0.546-1.25 0.11-0.27 0.204-0.536 0.298-0.802zM500.102 519.078c0.124-0.376 0.266-0.766 0.376-1.156 0.094-0.328 0.172-0.656 0.25-0.984s0.156-0.672 0.218-1c0.078-0.406 0.14-0.796 0.188-1.204 0.032-0.282 0.078-0.562 0.094-0.842 0.046-0.454 0.062-0.906 0.078-1.376 0-0.172 0.016-0.344 0.016-0.516v-0.25a35.788 35.788 0 0 0-0.078-1.312c-0.016-0.282-0.032-0.578-0.062-0.86-0.046-0.36-0.11-0.718-0.172-1.062-0.046-0.36-0.11-0.718-0.172-1.062a14.228 14.228 0 0 0-0.218-0.796 18.748 18.748 0 0 0-0.328-1.234c-0.078-0.204-0.156-0.422-0.234-0.624a17.71 17.71 0 0 0-0.5-1.296c-0.094-0.218-0.218-0.438-0.328-0.656a16.216 16.216 0 0 0-0.562-1.156 16.258 16.258 0 0 0-0.532-0.86c-0.172-0.282-0.344-0.578-0.532-0.86-0.234-0.344-0.5-0.688-0.766-1.032-0.156-0.188-0.296-0.39-0.454-0.578-0.282-0.36-0.61-0.688-0.922-1.016-0.156-0.172-0.296-0.344-0.468-0.5-0.296-0.296-0.624-0.578-0.938-0.86-0.218-0.188-0.406-0.376-0.624-0.546-0.282-0.218-0.578-0.422-0.86-0.64-0.296-0.204-0.578-0.422-0.876-0.624-0.25-0.156-0.5-0.296-0.75-0.454-0.376-0.218-0.75-0.438-1.124-0.64-0.078-0.046-0.156-0.094-0.234-0.124-0.156-0.078-0.312-0.14-0.484-0.218-0.406-0.188-0.812-0.376-1.218-0.546a15.208 15.208 0 0 0-0.828-0.296c-0.376-0.124-0.75-0.25-1.14-0.376a18.256 18.256 0 0 0-1-0.25 21.678 21.678 0 0 0-0.984-0.218c-0.406-0.078-0.812-0.124-1.218-0.188l-0.828-0.094a13.96 13.96 0 0 0-1.376-0.062 5.582 5.582 0 0 0-0.516-0.032h-63.998c-11.78 0-21.326 9.546-21.326 21.328 0 11.78 9.546 21.342 21.326 21.342h29.36l-27.078 53.714c-5.296 10.532-1.062 23.376 9.454 28.656a21.108 21.108 0 0 0 9.578 2.282c7.812 0 15.328-4.282 19.078-11.75l42.654-84.636c0.078-0.156 0.14-0.328 0.218-0.484 0.188-0.406 0.376-0.812 0.546-1.25 0.106-0.27 0.2-0.536 0.294-0.802zM734.484 519.876c0.062-0.266 0.188-0.532 0.25-0.796 0.156-0.376 0.282-0.766 0.406-1.156 0.094-0.328 0.156-0.656 0.25-0.984s0.156-0.672 0.218-1c0.062-0.406 0.124-0.812 0.188-1.204l0.094-0.842c0.032-0.454 0.062-0.922 0.062-1.376 0.032-0.172 0.032-0.344 0.032-0.516v-0.234c0-0.454-0.062-0.89-0.062-1.328a7.77 7.77 0 0 1-0.062-0.86l-0.188-1.078c-0.062-0.344-0.124-0.704-0.188-1.032l-0.188-0.828a87.188 87.188 0 0 0-0.376-1.204 5.47 5.47 0 0 0-0.218-0.672l-0.468-1.266c-0.124-0.234-0.25-0.454-0.376-0.688a8.79 8.79 0 0 0-0.532-1.124c-0.156-0.296-0.344-0.594-0.532-0.876s-0.344-0.562-0.532-0.828c-0.218-0.36-0.532-0.704-0.782-1.046-0.124-0.204-0.282-0.39-0.438-0.578-0.312-0.36-0.624-0.688-0.938-1.032a6.386 6.386 0 0 1-0.438-0.484 17.624 17.624 0 0 0-0.968-0.86c-0.218-0.188-0.406-0.376-0.594-0.546a22.166 22.166 0 0 1-0.876-0.64c-0.312-0.204-0.562-0.422-0.876-0.624-0.25-0.156-0.5-0.296-0.75-0.438a21.204 21.204 0 0 0-1.124-0.656c-0.094-0.046-0.156-0.094-0.25-0.124-0.124-0.078-0.312-0.14-0.438-0.204a38.96 38.96 0 0 0-1.25-0.562c-0.282-0.11-0.562-0.204-0.812-0.296-0.376-0.124-0.75-0.25-1.156-0.376-0.344-0.094-0.656-0.172-1-0.25s-0.656-0.156-0.968-0.218a17.96 17.96 0 0 0-1.25-0.188c-0.25-0.032-0.562-0.062-0.812-0.094-0.468-0.046-0.938-0.062-1.406-0.078-0.156 0-0.344-0.016-0.468-0.016h-63.996c-11.812 0-21.376 9.546-21.376 21.328 0 11.78 9.562 21.342 21.376 21.342h29.342l-27.094 53.714c-5.31 10.532-1.06 23.376 9.438 28.656a21.342 21.342 0 0 0 9.624 2.282c7.782 0 15.31-4.282 19.06-11.75l42.656-84.636c0.094-0.156 0.156-0.328 0.218-0.484 0.194-0.408 0.38-0.814 0.568-1.25z" fill="#ED5564" /><path d="M447.994 277.352c-11.782 0-21.328-9.562-21.328-21.342V85.358c0-11.782 9.546-21.344 21.328-21.344s21.328 9.562 21.328 21.344v170.65c0 11.782-9.546 21.344-21.328 21.344zM384.012 294.492a21.308 21.308 0 0 1-18.484-10.67l-85.34-147.792c-5.89-10.204-2.39-23.25 7.812-29.14 10.202-5.89 23.248-2.39 29.138 7.812l85.326 147.792c5.89 10.202 2.406 23.25-7.796 29.138a21.272 21.272 0 0 1-10.656 2.86zM337.124 341.35c-3.61 0-7.282-0.922-10.64-2.86l-147.792-85.34c-10.204-5.89-13.702-18.938-7.812-29.14 5.89-10.204 18.938-13.702 29.14-7.812l147.792 85.34c10.202 5.89 13.702 18.938 7.81 29.14a21.332 21.332 0 0 1-18.498 10.672zM558.866 341.35c-7.376 0-14.562-3.828-18.5-10.67-5.89-10.204-2.39-23.25 7.812-29.14l147.806-85.34c10.188-5.89 23.25-2.39 29.124 7.812 5.876 10.202 2.376 23.25-7.812 29.14l-147.808 85.34a21.13 21.13 0 0 1-10.622 2.858zM511.976 294.492c-3.624 0-7.296-0.922-10.656-2.86-10.204-5.89-13.688-18.936-7.796-29.138l85.34-147.792c5.876-10.202 18.938-13.702 29.124-7.812 10.188 5.89 13.688 18.938 7.812 29.14l-85.34 147.808a21.296 21.296 0 0 1-18.484 10.654zM463.072 356.426c-8.328 8.328-21.828 8.328-30.156 0-8.344-8.328-8.344-21.842 0-30.17 8.328-8.328 21.828-8.328 30.156 0 8.342 8.328 8.342 21.842 0 30.17z" fill="#F6BB42" /><path d="M170.658 853.3h170.48v21.376h-170.48zM362.762 853.3h170.462v21.376h-170.462zM554.866 853.3h170.462v21.376h-170.462z" opacity=".1" /></svg>