<?xml version="1.0" standalone="no"?><!DOCTYPE svg PUBLIC "-//W3C//DTD SVG 1.1//EN" "http://www.w3.org/Graphics/SVG/1.1/DTD/svg11.dtd"><svg class="icon" width="128px" height="128.00px" viewBox="0 0 1024 1024" version="1.1" xmlns="http://www.w3.org/2000/svg"><path d="M821.302 341.284H655.68c-11.75 0-21.312 9.562-21.312 21.344v106.67c0 11.782 9.562 21.328 21.312 21.328h165.624c11.812 0 21.376-9.546 21.376-21.328v-106.67c-0.002-11.782-9.564-21.344-21.378-21.344z" fill="#CCD1D9" /><path d="M693.304 981.308s-48.376 42.656-213.328 42.656c-164.936 0-213.342-42.656-213.342-42.656v-106.686l-21.312-106.56h469.356l-21.374 106.56v106.686zM266.666 42.676S315.072 0.004 480.008 0.004c164.984 0 213.358 42.672 213.358 42.672v106.67l21.31 106.546H245.292l21.376-106.546V42.676z" fill="#434A54" /><path d="M693.368 85.33V42.676S644.992 0.004 480.01 0.004c-164.936 0-213.342 42.672-213.342 42.672v42.654s48.406-42.654 213.342-42.654c164.982 0 213.358 42.654 213.358 42.654zM266.666 938.686v42.624s48.406 42.688 213.342 42.688c164.984 0 213.358-42.688 213.358-42.688v-42.624s-48.376 42.624-213.358 42.624c-164.936-0.002-213.342-42.624-213.342-42.624z" fill="#FFFFFF" opacity=".1" /><path d="M778.678 533.296c-11.812 0-21.376 9.546-21.376 21.328v106.688c0 11.75 9.562 21.312 21.376 21.312 11.75 0 21.312-9.562 21.312-21.312v-106.688c0-11.78-9.562-21.328-21.312-21.328z" fill="#CCD1D9" /><path d="M693.304 213.284H266.634c-47.124 0-85.312 38.204-85.312 85.344v426.686c0 47.124 38.188 85.31 85.312 85.31h426.67c47.124 0 85.374-38.186 85.374-85.31V298.626c0-47.14-38.25-85.342-85.374-85.342z" fill="#656D78" /><path d="M693.304 213.284H650.68c47.124 0 85.31 38.204 85.31 85.344v426.686c0 47.124-38.188 85.31-85.31 85.31h42.624c47.124 0 85.374-38.186 85.374-85.31V298.626c0-47.14-38.25-85.342-85.374-85.342z" fill="#FFFFFF" opacity=".1" /><path d="M565.304 511.094c0 47.156-38.172 85.344-85.328 85.344-47.124 0-85.312-38.188-85.312-85.344 0-47.124 38.188-85.328 85.312-85.328 47.156 0 85.328 38.202 85.328 85.328z" fill="#48CFAD" /><path d="M714.678 511.954c0 35.36-28.686 63.984-63.998 63.984-35.376 0-64-28.624-64-63.984 0-35.344 28.624-64 64-64 35.312 0 63.998 28.656 63.998 64z" fill="#A0D468" /><path d="M373.322 511.954c0 35.36-28.656 63.984-64 63.984s-64-28.624-64-63.984c0-35.344 28.656-64 64-64s64 28.656 64 64z" fill="#AC92EB" /><path d="M597.304 307.19c30.624 17.672 41.124 56.812 23.438 87.422-17.688 30.608-56.812 41.092-87.422 23.42-30.624-17.672-41.092-56.81-23.436-87.42 17.686-30.61 56.858-41.094 87.42-23.422z" fill="#EC87C0" /><path d="M426.666 605.876c30.594 17.688 41.094 56.812 23.406 87.438-17.656 30.594-56.812 41.062-87.406 23.406-30.624-17.656-41.124-56.812-23.436-87.406 17.686-30.626 56.81-41.126 87.436-23.438z" fill="#ED5564" /><path d="M362.666 307.19c30.594-17.672 69.75-7.188 87.406 23.422 17.688 30.61 7.188 69.748-23.406 87.42-30.624 17.672-69.75 7.188-87.436-23.42-17.688-30.61-7.188-69.75 23.436-87.422z" fill="#FFCE54" /><path d="M533.32 605.876c30.61-17.688 69.734-7.188 87.422 23.438 17.688 30.594 7.188 69.75-23.438 87.406-30.562 17.656-69.734 7.188-87.42-23.406-17.656-30.626-7.188-69.752 23.436-87.438z" fill="#5D9CEC" /><path d="M309.322 405.282c0 11.796-9.562 21.344-21.344 21.344s-21.344-9.546-21.344-21.344c0-11.764 9.562-21.326 21.344-21.326s21.344 9.562 21.344 21.326z" fill="#EC87C0" /><path d="M693.304 405.282c0 11.796-9.5 21.344-21.312 21.344-11.75 0-21.312-9.546-21.312-21.344 0-11.764 9.562-21.326 21.312-21.326 11.812 0 21.312 9.562 21.312 21.326z" fill="#AC92EB" /><path d="M309.322 618.624c0 11.782-9.562 21.344-21.344 21.344s-21.344-9.562-21.344-21.344 9.562-21.312 21.344-21.312 21.344 9.532 21.344 21.312z" fill="#A0D468" /><path d="M693.304 618.624c0 11.782-9.5 21.344-21.312 21.344-11.75 0-21.312-9.562-21.312-21.344s9.562-21.312 21.312-21.312a21.28 21.28 0 0 1 21.312 21.312z" fill="#ED5564" /></svg>