<?xml version="1.0" standalone="no"?><!DOCTYPE svg PUBLIC "-//W3C//DTD SVG 1.1//EN" "http://www.w3.org/Graphics/SVG/1.1/DTD/svg11.dtd"><svg class="icon" width="128px" height="128.00px" viewBox="0 0 1024 1024" version="1.1" xmlns="http://www.w3.org/2000/svg"><path d="M512 328.754C354.52 188.382 0.012 351.91 0.012 351.91S74.964 746.87 512 752.148c437.05-5.28 511.988-400.238 511.988-400.238S669.496 188.382 512 328.754z" fill="#ED5564" /><path d="M512 371.442c141.558-126.186 422.738-14.906 482.176 10.562 7.562-23.562 29.812-30.094 29.812-30.094S669.496 188.382 512 328.754C354.52 188.382 0.012 351.91 0.012 351.91s22.264 6.532 29.812 30.094c59.42-25.468 340.632-136.748 482.176-10.562z" fill="#FFFFFF" opacity=".2" /><path d="M496.86 448.188C386.05 446.376 0.014 351.91 0.014 351.91 132.946 487.5 279.708 615.058 512 615.058c232.304 0 379.05-127.558 511.988-263.148 0 0-416.304 98.058-527.128 96.278z" fill="#F5F7FA" /><path d="M106.682 453a925.742 925.742 0 0 0 42.656 34.406v-100.684a7836.084 7836.084 0 0 1-42.656-9.688V453zM874.676 487.406c14.562-11.032 28.75-22.532 42.624-34.406v-76.902c-13.406 2.968-27.688 6.062-42.624 9.312v101.996zM213.334 531.094c13.86 8.376 28.062 16.312 42.67 23.686v-144.996c-14.312-2.968-28.578-6-42.67-9.032v130.342zM341.332 589.56a538.368 538.368 0 0 0 42.67 11.53v-166.712a2644.866 2644.866 0 0 1-42.67-7.656v162.838zM767.992 554.78c14.594-7.374 28.812-15.31 42.688-23.686V398.94a7386.564 7386.564 0 0 1-42.688 8.688v147.152zM639.996 601.09a537.722 537.722 0 0 0 42.688-11.53v-165.528a3330.08 3330.08 0 0 1-42.688 7.532v169.526zM490.672 614.714c7.032 0.218 14.14 0.344 21.328 0.344s14.296-0.124 21.328-0.344v-168.308c-14.234 1.282-26.578 1.938-36.468 1.782-1.968-0.032-4.046-0.094-6.188-0.188v166.714z" fill="#E6E9ED" /></svg>