<?xml version="1.0" standalone="no"?><!DOCTYPE svg PUBLIC "-//W3C//DTD SVG 1.1//EN" "http://www.w3.org/Graphics/SVG/1.1/DTD/svg11.dtd"><svg class="icon" width="128px" height="128.00px" viewBox="0 0 1024 1024" version="1.1" xmlns="http://www.w3.org/2000/svg"><path d="M917.022 622.566c-1.938 0-3.938-0.312-5.906-0.876-11.312-3.25-17.876-15.062-14.624-26.376l85.652-298.628c3.218-11.342 15.06-17.874 26.374-14.624 11.312 3.218 17.876 15.03 14.624 26.374L937.52 607.066a21.366 21.366 0 0 1-20.498 15.5z" fill="#EAAD7A" /><path d="M874.618 622.566c-10.344 0-19.438-7.562-21.062-18.124L810.9 327.124c-1.812-11.624 6.188-22.532 17.844-24.312 11.624-1.812 22.53 6.188 24.31 17.844l42.686 277.286c1.782 11.688-6.218 22.562-17.842 24.376-1.094 0.124-2.218 0.248-3.28 0.248z" fill="#EAAD7A" /><path d="M916.99 579.878H703.998c-2.312 0-4.594 0.376-6.782 1.062l-255.394 85.308c-11.188 3.75-17.218 15.812-13.5 26.998 2.906 8.688 10.844 14.25 19.466 14.562l-240.176 33.938c-8.032-8.624-21.53-9.124-30.156-1.062l-85.34 79.558c-6.406 6-8.5 15.312-5.282 23.438s11.062 13.5 19.842 13.5h554.632c43.312 0 84.03-9 121.058-26.75 32.656-15.688 61.812-37.81 86.624-65.748 42.78-48.124 69.34-110.808 69.34-163.492 0.002-11.748-9.53-21.312-21.34-21.312z" fill="#FFD2A6" /><path d="M916.99 579.878c0 52.688-26.562 115.306-69.308 163.494-24.844 27.936-53.968 50.06-86.654 65.746-36.998 17.75-77.748 26.75-121.026 26.75H85.336c0 2.624 0.5 5.25 1.5 7.812a21.346 21.346 0 0 0 19.842 13.5h554.632c43.312 0 84.03-9 121.058-26.75 32.656-15.688 61.812-37.81 86.624-65.748 42.78-48.124 69.34-110.808 69.34-163.492 0-11.748-9.532-21.312-21.342-21.312z" opacity=".1" /><path d="M677.248 462.556l-67.994-145.838-65.344-60.684-107.994-62.936-85.34-1.062-106.652 10.03-121.34 67.874-78.654 116.84-15.998 172.6 35.998 102.682 121.34 94.622 109.308 9.874 106.682-31.184 36-45.314 50.654-14.684 111.996-37.31 77.338-29.374 21.312-55.998z" fill="#965353" /><path d="M280.766 793.184C125.96 793.184 0.028 667.25 0.028 512.43c0-92.308 35.936-179.118 101.214-244.396S253.33 166.82 345.638 166.82c57.498 0 111.432 11.81 160.306 35.124 46.436 22.188 87.28 54.186 121.402 95.122 65.964 79.248 102.34 187.274 102.34 304.128 0 11.812-9.562 21.376-21.344 21.376s-21.344-9.562-21.344-21.376c0-106.918-32.842-205.226-92.462-276.816-62.592-75.154-148.65-114.902-248.898-114.902-80.934 0-156.994 31.53-214.21 88.746-57.248 57.216-88.746 133.308-88.746 214.21 0 131.32 106.808 238.128 238.084 238.128 49.748 0 96.496-19.374 131.682-54.56 35.184-35.186 54.528-81.932 54.528-131.68 0-79.794-64.904-144.698-144.682-144.698-61.498 0-111.496 50.028-111.496 111.494 0 46.826 38.092 84.952 84.934 84.952 35.092 0 63.654-28.562 63.654-63.686 0-11.796 9.562-21.36 21.342-21.36s21.342 9.562 21.342 21.36c0 58.624-47.716 106.306-106.338 106.306-70.374 0-127.622-57.246-127.622-127.572 0-84.996 69.154-154.148 154.182-154.148 103.308 0 187.368 84.028 187.368 187.352 0 61.124-23.812 118.618-67.058 161.868-43.216 43.184-100.684 66.996-161.836 66.996z" fill="#7F4545" /><path d="M448.57 707.81a21.364 21.364 0 0 1-20.28-14.688c-3.656-11.186 2.438-23.248 13.624-26.874l259.77-85.308c11.188-3.688 23.25 2.438 26.938 13.624 3.656 11.188-2.438 23.25-13.624 26.938l-259.772 85.244a20.66 20.66 0 0 1-6.656 1.064z" fill="#7F4545" /></svg>