<?xml version="1.0" standalone="no"?><!DOCTYPE svg PUBLIC "-//W3C//DTD SVG 1.1//EN" "http://www.w3.org/Graphics/SVG/1.1/DTD/svg11.dtd"><svg class="icon" width="128px" height="128.00px" viewBox="0 0 1024 1024" version="1.1" xmlns="http://www.w3.org/2000/svg"><path d="M106.842 0.538h810.316V1023.96H106.842z" fill="#FFCE54" /><path d="M149.498 981.308V42.692h724.976L917.158 0.04H106.842v1023.92z" fill="#FFFFFF" opacity=".2" /><path d="M519.998 725.482c-47.122 0-85.304 38.186-85.304 85.308 0 47.09 38.184 85.274 85.304 85.274s85.308-38.184 85.308-85.274c0-47.122-38.186-85.308-85.308-85.308z m0 127.93c-23.528 0-42.684-19.124-42.684-42.622 0-23.532 19.156-42.686 42.684-42.686 23.5 0 42.624 19.154 42.624 42.686 0.002 23.498-19.124 42.622-42.624 42.622zM754.544 853.412h-45.434l63.054-94.648c0.062-0.032 0.062-0.032 0.062-0.094l0.062-0.032a21.4 21.4 0 0 0 3.562-11.844c0-11.75-9.558-21.312-21.308-21.312h-85.308c-11.746 0-21.308 9.562-21.308 21.312 0 11.782 9.562 21.31 21.308 21.31h45.438l-63.122 94.682v0.062l-0.062 0.062a21.22 21.22 0 0 0-3.562 11.81c0 11.81 9.562 21.342 21.308 21.342h85.308c11.75 0 21.308-9.532 21.308-21.342 0.004-11.746-9.556-21.308-21.306-21.308zM392.042 725.482h-127.93c-11.778 0-21.34 9.562-21.34 21.312 0 11.782 9.562 21.31 21.34 21.31h43.59v106.618c0 11.81 9.562 21.342 21.312 21.342a21.312 21.312 0 0 0 21.344-21.342v-106.618h41.684c11.782 0 21.34-9.53 21.34-21.31-0.002-11.75-9.56-21.312-21.34-21.312zM656.74 597.556c0.624 0 1.25 0.032 1.876 0.032 35.308 0 63.93-28.654 63.93-63.964 0-35.372-28.622-63.996-63.93-63.996H594.62c-11.75 0-21.312 9.532-21.312 21.312v149.302c0 11.75 9.562 21.31 21.312 21.31s21.312-9.56 21.312-21.31v-42.684h40.808z m23.184-63.932c0 11.688-9.438 21.188-21.122 21.312H657.99l-0.624-0.032h-41.432v-42.654h42.684c11.744 0 21.306 9.56 21.306 21.374zM445.35 576.244c0-11.78-9.532-21.308-21.344-21.308h-42.622v-42.654h85.304c11.75 0 21.312-9.53 21.312-21.342 0-11.75-9.562-21.312-21.312-21.312h-106.618c-11.808 0-21.34 9.562-21.34 21.312V640.21c0 11.782 9.532 21.342 21.34 21.342 11.75 0 21.312-9.56 21.312-21.342v-42.652h42.622c11.814-0.002 21.346-9.532 21.346-21.314zM448.006 405.602h127.926c11.812 0 21.376-9.53 21.376-21.342 0-11.75-9.562-21.312-21.376-21.312h-106.586v-63.962h63.964a21.284 21.284 0 0 0 21.312-21.342c0-11.75-9.5-21.31-21.312-21.31h-63.964V192.368h103.648v-0.218c1 0.124 1.938 0.218 2.938 0.218 11.812 0 21.376-9.532 21.376-21.342 0-11.75-9.562-21.31-21.376-21.31-1 0-1.938 0.094-2.938 0.25v-0.25h-124.988c-11.75 0-21.312 9.562-21.312 21.31V384.26c0 11.812 9.562 21.342 21.312 21.342z" fill="#ED5564" /><path d="M874.474 42.692v938.616H149.498L106.842 1023.96h810.316V0.538z" opacity=".1" /></svg>