<?xml version="1.0" standalone="no"?><!DOCTYPE svg PUBLIC "-//W3C//DTD SVG 1.1//EN" "http://www.w3.org/Graphics/SVG/1.1/DTD/svg11.dtd"><svg class="icon" width="128px" height="128.00px" viewBox="0 0 1024 1024" version="1.1" xmlns="http://www.w3.org/2000/svg"><path d="M703.994 21.36c-92.246 0-175.338 39.03-233.742 101.466-31.28-36.032-77.436-58.812-128.902-58.812-94.264 0-170.666 76.404-170.666 170.65 0 1.438 0.016 2.844 0.062 4.282C73.342 258.696 0.016 344.786 0.016 448.002c0 117.808 95.514 213.336 213.338 213.336h490.64c176.744 0 319.99-143.276 319.99-319.99 0-176.744-143.246-319.988-319.99-319.988z" fill="#CCD1D9" /><path d="M907.924 94.732c45.844 55.374 73.406 126.434 73.406 203.932 0 176.744-143.276 319.99-319.99 319.99H170.684c-48.032 0-92.342-15.874-127.996-42.654 38.92 51.81 100.872 85.34 170.666 85.34h490.64c176.744 0 319.99-143.276 319.99-319.99 0-99.248-45.154-187.9-116.06-246.618z" fill="#AAB2BC" /><path d="M384.02 853.334c0 11.782-9.562 21.312-21.344 21.312-11.78 0-21.326-9.532-21.326-21.312s9.546-21.344 21.326-21.344c11.782 0 21.344 9.562 21.344 21.344z" fill="#E6E9ED" /><path d="M512.016 853.334c0 11.782-9.562 21.312-21.344 21.312-11.78 0-21.326-9.532-21.326-21.312s9.546-21.344 21.326-21.344c11.782 0 21.344 9.562 21.344 21.344z" fill="#CCD1D9" /><path d="M575.998 725.336c0 11.782-9.562 21.312-21.31 21.312-11.796 0-21.344-9.532-21.344-21.312 0-11.78 9.546-21.342 21.344-21.342 11.748 0 21.31 9.562 21.31 21.342z" fill="#E6E9ED" /><path d="M447.798 725.336c0 11.782-9.56 21.312-21.342 21.312s-21.328-9.532-21.328-21.312c0-11.78 9.546-21.342 21.328-21.342s21.342 9.562 21.342 21.342zM320.022 981.328c0 11.782-9.56 21.312-21.342 21.312s-21.328-9.532-21.328-21.312 9.546-21.344 21.328-21.344 21.342 9.562 21.342 21.344zM256.226 853.334c0 11.782-9.546 21.312-21.326 21.312-11.782 0-21.328-9.532-21.328-21.312s9.546-21.344 21.328-21.344c11.78 0 21.326 9.562 21.326 21.344z" fill="#CCD1D9" /><path d="M320.022 725.336c0 11.782-9.56 21.312-21.342 21.312s-21.328-9.532-21.328-21.312c0-11.78 9.546-21.342 21.328-21.342s21.342 9.562 21.342 21.342zM192.23 981.328c0 11.782-9.546 21.312-21.328 21.312s-21.328-9.532-21.328-21.312 9.546-21.344 21.328-21.344 21.328 9.562 21.328 21.344zM448.018 981.328c0 11.782-9.56 21.312-21.342 21.312s-21.328-9.532-21.328-21.312 9.546-21.344 21.328-21.344 21.342 9.562 21.342 21.344zM639.998 853.334c0 11.782-9.562 21.312-21.312 21.312-11.812 0-21.344-9.532-21.344-21.312s9.532-21.344 21.344-21.344c11.75 0 21.312 9.562 21.312 21.344z" fill="#E6E9ED" /><path d="M703.994 725.336c0 11.782-9.562 21.312-21.312 21.312-11.81 0-21.342-9.532-21.342-21.312 0-11.78 9.532-21.342 21.342-21.342 11.75 0 21.312 9.562 21.312 21.342zM575.998 981.328c0 11.782-9.562 21.312-21.31 21.312-11.796 0-21.344-9.532-21.344-21.312s9.546-21.344 21.344-21.344c11.748 0 21.31 9.562 21.31 21.344z" fill="#CCD1D9" /></svg>