<?xml version="1.0" standalone="no"?><!DOCTYPE svg PUBLIC "-//W3C//DTD SVG 1.1//EN" "http://www.w3.org/Graphics/SVG/1.1/DTD/svg11.dtd"><svg class="icon" width="128px" height="128.00px" viewBox="0 0 1024 1024" version="1.1" xmlns="http://www.w3.org/2000/svg"><path d="M1002.667042 490.671042c0 270.977471-219.681571 490.629042-490.693042 490.629041-270.959471 0-490.641042-219.651571-490.641042-490.629041C21.332958 219.677571 241.014529 0.012 511.974 0.012c271.011471 0 490.693042 219.665571 490.693042 490.659042z" fill="#5D9CEC" /><path d="M853.293333 843.490353H170.672667l-42.687917 180.495647h767.9965z" fill="#ED5564" /><path d="M703.985625 895.99025H319.980375c-11.749977 0-21.311958 9.559981-21.311958 21.309958 0 11.811977 9.561981 21.375958 21.311958 21.375959h384.00525c11.811977 0 21.311958-9.561981 21.311958-21.375959 0-11.749977-9.499981-21.309958-21.311958-21.309958z" fill="#FFCE54" /><path d="M255.9825 213.333583c-11.749977 0-21.311958 9.561981-21.311958 21.341959s9.561981 21.327958 21.311958 21.327958c11.811977 0 21.343958-9.545981 21.343958-21.327958s-9.531981-21.341958-21.343958-21.341959zM383.97825 85.337833c-11.749977 0-21.309958 9.561981-21.309958 21.343959 0 11.779977 9.559981 21.327958 21.309958 21.327958 11.811977 0 21.343958-9.545981 21.343958-21.327958s-9.529981-21.343958-21.343958-21.343959zM511.974 213.333583c-11.749977 0-21.309958 9.561981-21.309958 21.341959s9.559981 21.327958 21.309958 21.327958c11.811977 0 21.343958-9.545981 21.343958-21.327958s-9.529981-21.341958-21.343958-21.341959zM639.98775 85.337833c-11.749977 0-21.309958 9.561981-21.309958 21.343959 0 11.779977 9.559981 21.327958 21.309958 21.327958 11.811977 0 21.311958-9.545981 21.311958-21.327958s-9.499981-21.343958-21.311958-21.343959zM767.9855 213.333583c-11.749977 0-21.311958 9.561981-21.311958 21.341959s9.561981 21.327958 21.311958 21.327958c11.811977 0 21.311958-9.545981 21.311958-21.327958s-9.499981-21.341958-21.311958-21.341959zM127.98475 341.331333c-11.749977 0-21.309958 9.561981-21.309958 21.343959 0 11.779977 9.559981 21.327958 21.309958 21.327958 11.811977 0 21.343958-9.545981 21.343958-21.327958s-9.531981-21.343958-21.343958-21.343959zM255.9825 469.329083c-11.749977 0-21.311958 9.561981-21.311958 21.341959S244.232523 511.999 255.9825 511.999c11.811977 0 21.343958-9.545981 21.343958-21.327958s-9.531981-21.341958-21.343958-21.341959zM383.97825 341.331333c-11.749977 0-21.309958 9.561981-21.309958 21.343959 0 11.779977 9.559981 21.327958 21.309958 21.327958 11.811977 0 21.343958-9.545981 21.343958-21.327958s-9.529981-21.343958-21.343958-21.343959zM511.974 469.329083c-11.749977 0-21.309958 9.561981-21.309958 21.341959S500.224023 511.999 511.974 511.999c11.811977 0 21.343958-9.545981 21.343958-21.327958s-9.529981-21.341958-21.343958-21.341959zM639.98775 341.331333c-11.749977 0-21.309958 9.561981-21.309958 21.343959 0 11.779977 9.559981 21.327958 21.309958 21.327958 11.811977 0 21.311958-9.545981 21.311958-21.327958s-9.499981-21.343958-21.311958-21.343959zM767.9855 469.329083c-11.749977 0-21.311958 9.561981-21.311958 21.341959S756.235523 511.999 767.9855 511.999c11.811977 0 21.311958-9.545981 21.311958-21.327958s-9.499981-21.341958-21.311958-21.341959zM895.98125 341.331333c-11.749977 0-21.311958 9.561981-21.311958 21.343959 0 11.779977 9.561981 21.327958 21.311958 21.327958 11.811977 0 21.311958-9.545981 21.311958-21.327958s-9.499981-21.343958-21.311958-21.343959zM127.98475 597.308833c-11.749977 0-21.309958 9.561981-21.309958 21.375959 0 11.747977 9.559981 21.309958 21.309958 21.309958 11.811977 0 21.343958-9.561981 21.343958-21.309958 0-11.811977-9.531981-21.375958-21.343958-21.375959zM255.9825 725.306583c-11.749977 0-21.311958 9.559981-21.311958 21.373959 0 11.749977 9.561981 21.311958 21.311958 21.311958 11.811977 0 21.343958-9.561981 21.343958-21.311958 0-11.811977-9.531981-21.373958-21.343958-21.373959zM511.974 725.306583c-11.749977 0-21.309958 9.559981-21.309958 21.373959 0 11.749977 9.559981 21.311958 21.309958 21.311958 11.811977 0 21.343958-9.561981 21.343958-21.311958 0-11.811977-9.529981-21.373958-21.343958-21.373959zM767.9855 725.306583c-11.749977 0-21.311958 9.559981-21.311958 21.373959 0 11.749977 9.561981 21.311958 21.311958 21.311958 11.811977 0 21.311958-9.561981 21.311958-21.311958 0-11.811977-9.499981-21.373958-21.311958-21.373959zM895.98125 597.308833c-11.749977 0-21.311958 9.561981-21.311958 21.375959 0 11.747977 9.561981 21.309958 21.311958 21.309958 11.811977 0 21.311958-9.561981 21.311958-21.309958 0-11.811977-9.499981-21.375958-21.311958-21.375959z" fill="#E6E9ED" /><path d="M447.978125 725.306583h128.01175v118.18377h-128.01175z" fill="#7F4545" /><path d="M319.950375 767.9925l191.993625-341.319333 191.979625 341.319333z" fill="#8CC153" /><path d="M362.668292 597.308833l149.305708-298.633416 149.325708 298.633416z" fill="#A0D468" /><path d="M895.98125 1023.986H127.98475c-11.749977 0-21.309958-9.561981-21.309958-21.311958 0-11.811977 9.559981-21.373958 21.309958-21.373959h767.9965c11.811977 0 21.311958 9.559981 21.311958 21.373959 0 11.749977-9.499981 21.311958-21.311958 21.311958z" fill="#434A54" /></svg>