<?xml version="1.0" standalone="no"?><!DOCTYPE svg PUBLIC "-//W3C//DTD SVG 1.1//EN" "http://www.w3.org/Graphics/SVG/1.1/DTD/svg11.dtd"><svg class="icon" width="128px" height="128.00px" viewBox="0 0 1024 1024" version="1.1" xmlns="http://www.w3.org/2000/svg"><path d="M236.256539 548.154929l-185.041639 138.777729c-9.421982 7.061986-11.327978 20.43796-4.265992 29.843942a21.299958 21.299958 0 0 0 17.093967 8.531983c4.451991 0 8.935983-1.375997 12.779975-4.249991l185.041639-138.779729c9.421982-7.061986 11.327978-20.43596 4.265991-29.873942a21.305958 21.305958 0 0 0-29.873941-4.249992zM972.7991 686.932658l-183.619641-137.713731c-9.437982-7.093986-22.811955-5.15599-29.875942 4.249992-7.061986 9.437982-5.15599 22.809955 4.281992 29.873942l183.589641 137.715731a21.275958 21.275958 0 0 0 12.781975 4.249991c6.499987 0 12.903975-2.937994 17.091967-8.531983 7.063986-9.405982 5.15799-22.781956-4.249992-29.843942z" fill="#7F4545" /><path d="M831.991375 703.994625c0-176.745655-143.27972-319.993375-319.977375-319.993375-176.729655 0-319.991375 143.24772-319.991375 319.993375 0 176.713655 143.26172 319.991375 319.991375 319.991375 176.697655 0 319.977375-143.27772 319.977375-319.991375z" fill="#CCD1D9" /><path d="M746.649542 362.659292c0-129.591747-105.059795-234.651542-234.635542-234.651542-129.605747 0-234.665542 105.059795-234.665542 234.651542 0 129.589747 105.059795 234.649542 234.665542 234.649541 129.575747 0 234.635542-105.059795 234.635542-234.649541z" fill="#E6E9ED" /><path d="M725.337583 256.0055s-69.623864 42.999916-213.275583 42.999916c-143.667719 0-213.385583-42.999916-213.385583-42.999916L341.346333 0.012h341.303334l42.687916 255.9935z" fill="#FC6E51" /><path d="M469.344083 384.00125c0 11.779977-9.545981 21.311958-21.327958 21.311958s-21.343958-9.531981-21.343958-21.311958c0-11.781977 9.561981-21.341958 21.343958-21.341958 11.779977 0 21.327958 9.561981 21.327958 21.341958zM597.341833 384.00125c0 11.779977-9.561981 21.311958-21.343958 21.311958s-21.343958-9.531981-21.343958-21.311958c0-11.781977 9.561981-21.341958 21.343958-21.341958s21.343958 9.561981 21.343958 21.341958z" fill="#434A54" /><path d="M512.014 426.657167c-23.561954 0-42.669917 19.093963-42.669917 42.655916 0 23.591954 19.109963 42.685917 42.669917 42.685917s42.639917-19.093963 42.639917-42.685917c0-23.561954-19.077963-42.655917-42.639917-42.655916z" fill="#E9573F" /><path d="M512.014 448.001125c-11.781977 0-21.341958 9.529981-21.341958 21.311958 0 11.779977 9.561981 21.341958 21.341958 21.341959s21.327958-9.561981 21.327958-21.341959c0-11.781977-9.547981-21.311958-21.327958-21.311958z" fill="#FC6E51" /><path d="M533.341958 682.650667c0 11.781977-9.545981 21.343958-21.327958 21.343958s-21.341958-9.561981-21.341958-21.343958 9.561981-21.343958 21.341958-21.343959 21.327958 9.563981 21.327958 21.343959zM533.341958 767.9925c0 11.781977-9.545981 21.311958-21.327958 21.311958s-21.341958-9.531981-21.341958-21.311958 9.561981-21.343958 21.341958-21.343958 21.327958 9.561981 21.327958 21.343958zM533.341958 853.302333c0 11.781977-9.545981 21.343958-21.327958 21.343959s-21.341958-9.561981-21.341958-21.343959 9.561981-21.311958 21.341958-21.311958 21.327958 9.531981 21.327958 21.311958z" fill="#434A54" /><path d="M661.339708 870.3663c-70.685862 0-127.99775 68.779866-127.99775 153.6217h255.9955c0-84.843834-57.311888-153.6217-127.99775-153.6217zM362.674292 870.3663c-70.685862 0-127.99775 68.779866-127.99775 153.6217h255.9935c0.002-84.843834-57.293888-153.6217-127.99575-153.6217z" fill="#E6E9ED" /></svg>