<?xml version="1.0" standalone="no"?><!DOCTYPE svg PUBLIC "-//W3C//DTD SVG 1.1//EN" "http://www.w3.org/Graphics/SVG/1.1/DTD/svg11.dtd"><svg class="icon" width="128px" height="128.00px" viewBox="0 0 1024 1024" version="1.1" xmlns="http://www.w3.org/2000/svg"><path d="M341.348 810.682c-11.812 0-21.342-9.562-21.342-21.376v-108.154c0-11.782 9.56-21.344 21.342-21.344 11.782 0 21.312 9.562 21.312 21.344v108.186c0 11.782-9.532 21.344-21.312 21.344z" fill="#4A89DC" /><path d="M341.348 702.496h-106.684c-11.782 0-21.312-9.562-21.312-21.344s9.532-21.344 21.312-21.344h106.684c11.782 0 21.312 9.562 21.312 21.344s-9.532 21.344-21.312 21.344zM790.84 703.996h-108.188c-11.782 0-21.31-9.562-21.31-21.312 0-11.812 9.53-21.376 21.31-21.376h108.188c11.78 0 21.342 9.562 21.342 21.376 0 11.75-9.562 21.312-21.342 21.312z" fill="#4A89DC" /><path d="M682.652 810.682c-11.782 0-21.31-9.562-21.31-21.376v-106.624c0-11.812 9.53-21.376 21.31-21.376s21.344 9.562 21.344 21.376v106.624c0 11.814-9.562 21.376-21.344 21.376zM661.342 384.002c-11.782 0-21.344-9.546-21.344-21.328v-108.186c0-11.782 9.562-21.328 21.344-21.328 11.78 0 21.31 9.546 21.31 21.328v108.186c0 11.782-9.53 21.328-21.31 21.328z" fill="#4A89DC" /><path d="M767.996 384.002h-106.654c-11.782 0-21.344-9.546-21.344-21.328s9.562-21.344 21.344-21.344h106.654c11.782 0 21.344 9.562 21.344 21.344 0 11.782-9.562 21.328-21.344 21.328zM364.192 384.002h-108.186c-11.782 0-21.342-9.546-21.342-21.328s9.56-21.344 21.342-21.344h108.186c11.782 0 21.344 9.562 21.344 21.344 0 11.782-9.564 21.328-21.344 21.328z" fill="#4A89DC" /><path d="M364.192 384.002c-11.782 0-21.344-9.546-21.344-21.328v-106.67c0-11.782 9.562-21.328 21.344-21.328s21.344 9.546 21.344 21.328v106.67c0 11.782-9.564 21.328-21.344 21.328z" fill="#4A89DC" /><path d="M256.006 789.306a21.22 21.22 0 0 1-15.094-6.25c-8.31-8.312-8.31-21.812 0-30.124l511.99-512.004a21.332 21.332 0 0 1 30.188 0c8.312 8.328 8.312 21.828 0 30.172L271.1 783.056a21.22 21.22 0 0 1-15.094 6.25z" fill="#4A89DC" /><path d="M767.996 789.306a21.22 21.22 0 0 1-15.094-6.25L240.912 271.1c-8.31-8.344-8.31-21.844 0-30.172a21.332 21.332 0 0 1 30.188 0l511.99 512.004c8.312 8.312 8.312 21.812 0 30.124a21.22 21.22 0 0 1-15.094 6.25z" fill="#4A89DC" /><path d="M533.344 801.806V222.178l100.404-100.418c8.344-8.328 8.344-21.828 0-30.17-8.344-8.328-21.842-8.328-30.154 0l-70.25 70.248V21.34c0-11.782-9.562-21.328-21.344-21.328s-21.342 9.546-21.342 21.328v140.496l-70.25-70.248c-8.312-8.328-21.81-8.328-30.154 0-8.344 8.344-8.344 21.842 0 30.17l100.404 100.418v579.628l-100.404 100.434c-8.344 8.312-8.344 21.844 0 30.188a21.43 21.43 0 0 0 15.094 6.25c5.436 0 10.904-2.124 15.06-6.25l70.25-70.248v140.496c0 11.75 9.56 21.312 21.342 21.312s21.344-9.562 21.344-21.312V862.18l70.25 70.248a21.412 21.412 0 0 0 15.062 6.25 21.42 21.42 0 0 0 15.092-6.25c8.344-8.344 8.344-21.876 0-30.188l-100.404-100.434z" fill="#5D9CEC" /><path d="M1002.646 490.672h-140.498l70.25-70.248c8.344-8.328 8.344-21.844 0-30.17-8.312-8.328-21.812-8.328-30.156 0l-100.404 100.418H222.164l-100.404-100.42c-8.344-8.328-21.844-8.328-30.156 0-8.344 8.328-8.344 21.842 0 30.17l70.248 70.248H21.356c-11.782 0-21.344 9.546-21.344 21.328s9.562 21.328 21.344 21.328h140.496L91.604 603.56c-8.344 8.376-8.344 21.876 0 30.186a21.144 21.144 0 0 0 15.062 6.25c5.468 0 10.938-2.062 15.094-6.25l100.404-100.418h579.674l100.404 100.418c4.156 4.188 9.624 6.25 15.094 6.25 5.438 0 10.906-2.062 15.062-6.25 8.344-8.31 8.344-21.81 0-30.186l-70.25-70.232h140.498c11.78 0 21.342-9.546 21.342-21.328s-9.562-21.328-21.342-21.328z" fill="#5D9CEC" /></svg>