<?xml version="1.0" standalone="no"?><!DOCTYPE svg PUBLIC "-//W3C//DTD SVG 1.1//EN" "http://www.w3.org/Graphics/SVG/1.1/DTD/svg11.dtd"><svg class="icon" width="128px" height="128.00px" viewBox="0 0 1024 1024" version="1.1" xmlns="http://www.w3.org/2000/svg"><path d="M703.994 21.336c-92.246 0-175.354 39.046-233.758 101.498-31.28-36.046-77.436-58.828-128.902-58.828-94.264 0-170.666 76.404-170.666 170.666 0 1.422 0.016 2.844 0.062 4.25C73.326 258.672 0.016 344.762 0.016 447.994c0 117.808 95.498 213.304 213.322 213.304h490.656c176.712 0 319.99-143.244 319.99-319.974 0-176.728-143.276-319.988-319.99-319.988z" fill="#CCD1D9" /><path d="M907.924 94.74c45.812 55.374 73.376 126.418 73.376 203.932 0 176.712-143.244 320.004-319.99 320.004H170.668c-48.032 0-92.342-15.904-127.996-42.686 38.92 51.81 100.872 85.308 170.666 85.308h490.656c176.712 0 319.99-143.244 319.99-319.974 0-99.214-45.186-187.898-116.06-246.584z" fill="#AAB2BC" /><path d="M384.004 853.294c0 11.812-9.562 21.344-21.344 21.344-11.78 0-21.326-9.532-21.326-21.344 0-11.75 9.546-21.312 21.326-21.312 11.782 0 21.344 9.562 21.344 21.312zM512 853.294c0 11.812-9.562 21.344-21.344 21.344-11.78 0-21.326-9.532-21.326-21.344 0-11.75 9.546-21.312 21.326-21.312 11.782 0 21.344 9.562 21.344 21.312zM574.436 724.64c0 11.782-9.532 21.344-21.31 21.344-11.796 0-21.344-9.562-21.344-21.344 0-11.78 9.546-21.342 21.344-21.342 11.778 0 21.31 9.564 21.31 21.342zM447.784 724.64c0 11.782-9.56 21.344-21.342 21.344s-21.328-9.562-21.328-21.344c0-11.78 9.546-21.342 21.328-21.342s21.342 9.564 21.342 21.342zM320.006 981.29c0 11.812-9.56 21.344-21.342 21.344s-21.328-9.532-21.328-21.344c0-11.75 9.546-21.312 21.328-21.312s21.342 9.562 21.342 21.312zM448.002 981.29c0 11.812-9.56 21.344-21.342 21.344s-21.328-9.532-21.328-21.344c0-11.75 9.546-21.312 21.328-21.312s21.342 9.562 21.342 21.312z" fill="#CCD1D9" /><path d="M170.652 1002.664a21.24 21.24 0 0 1-9.516-2.282c-10.546-5.282-14.812-18.094-9.546-28.594l127.996-255.99c5.266-10.562 18.078-14.812 28.626-9.562 10.532 5.25 14.81 18.06 9.532 28.624L189.746 990.852a21.348 21.348 0 0 1-19.094 11.812zM554.626 1002.664c-3.188 0-6.438-0.75-9.5-2.282-10.546-5.282-14.812-18.094-9.546-28.594l127.98-255.99c5.282-10.562 18.092-14.812 28.624-9.562 10.562 5.25 14.812 18.06 9.562 28.624l-127.996 255.992a21.4 21.4 0 0 1-19.124 11.812z" fill="#5D9CEC" /></svg>