<?xml version="1.0" standalone="no"?><!DOCTYPE svg PUBLIC "-//W3C//DTD SVG 1.1//EN" "http://www.w3.org/Graphics/SVG/1.1/DTD/svg11.dtd"><svg class="icon" width="128px" height="128.00px" viewBox="0 0 1024 1024" version="1.1" xmlns="http://www.w3.org/2000/svg"><path d="M1002.678 490.672H862.18l70.25-70.248c8.312-8.328 8.312-21.844 0-30.17-8.344-8.328-21.876-8.328-30.188 0l-100.436 100.418H563.5l168.528-168.528h142.028c11.75 0 21.312-9.546 21.312-21.328s-9.562-21.328-21.312-21.328h-99.372l99.34-99.358c8.344-8.328 8.344-21.828 0-30.172-8.344-8.328-21.844-8.328-30.156 0l-99.372 99.358V149.96c0-11.782-9.532-21.328-21.312-21.328s-21.312 9.546-21.312 21.328v142.012l-168.542 168.528V222.178l100.42-100.418c8.312-8.328 8.312-21.842 0-30.17s-21.842-8.328-30.186 0l-70.234 70.248V21.34c0-11.782-9.546-21.328-21.328-21.328s-21.326 9.546-21.326 21.328v140.496l-70.25-70.248c-8.328-8.328-21.842-8.328-30.17 0s-8.328 21.842 0 30.17l100.42 100.418V460.5l-168.528-168.528V149.96c0-11.782-9.546-21.328-21.328-21.328s-21.344 9.546-21.344 21.328v99.358L180.132 149.96c-8.328-8.328-21.828-8.328-30.154 0-8.344 8.344-8.344 21.844 0 30.172l99.34 99.358H149.962c-11.782 0-21.328 9.546-21.328 21.328 0 11.78 9.546 21.328 21.328 21.328h142.012l168.528 168.528H222.18l-100.42-100.418c-8.328-8.328-21.844-8.328-30.172 0s-8.328 21.842 0 30.17l70.248 70.248H21.34c-11.782 0-21.328 9.546-21.328 21.328s9.546 21.328 21.328 21.328h140.496L91.588 603.56c-8.328 8.344-8.328 21.876 0 30.186a21.188 21.188 0 0 0 15.094 6.25 21.18 21.18 0 0 0 15.078-6.25l100.42-100.418h238.322l-168.528 168.542H149.962c-11.782 0-21.328 9.532-21.328 21.312 0 11.78 9.546 21.31 21.328 21.31h99.356l-99.34 99.374c-8.344 8.312-8.344 21.812 0 30.188a21.382 21.382 0 0 0 30.154 0l99.358-99.374-0.016 99.374c0 11.75 9.562 21.312 21.344 21.312s21.328-9.562 21.328-21.312v-142.03l168.528-168.526v238.306l-100.42 100.434c-8.328 8.312-8.328 21.844 0 30.188a21.324 21.324 0 0 0 30.17 0l70.25-70.248v140.496c0 11.75 9.544 21.312 21.326 21.312s21.328-9.562 21.328-21.312V862.18l70.234 70.248a21.368 21.368 0 0 0 15.124 6.25 21.4 21.4 0 0 0 15.06-6.25c8.312-8.344 8.312-21.876 0-30.188l-100.42-100.434V563.5l168.542 168.526v142.03c0 11.75 9.532 21.312 21.312 21.312s21.312-9.562 21.312-21.312v-99.374l99.372 99.374a21.38 21.38 0 0 0 15.062 6.218 21.4 21.4 0 0 0 15.094-6.218c8.344-8.376 8.344-21.876 0-30.188l-99.34-99.374h99.372c11.75 0 21.312-9.532 21.312-21.31 0-11.782-9.562-21.312-21.312-21.312h-142.028l-168.528-168.542h238.306l100.436 100.418a21.198 21.198 0 0 0 15.062 6.25c5.5 0 10.938-2.062 15.124-6.25 8.312-8.31 8.312-21.842 0-30.186l-70.25-70.232h140.498c11.748 0 21.31-9.546 21.31-21.328s-9.556-21.33-21.304-21.33z" fill="#4A89DC" /><path d="M462.908 392.892l49.374-41.934 49.218 42.106 64.56 5.266 5.064 64.578 41.934 49.374-42.122 49.218-5.25 64.56-64.592 5.062-49.376 41.936-49.216-42.124-64.56-5.248-5.048-64.592-41.936-49.376 42.108-49.218 5.25-64.56z" fill="#5D9CEC" /><path d="M512 512m-21.328 0a21.328 21.328 0 1 0 42.656 0 21.328 21.328 0 1 0-42.656 0Z" fill="#4A89DC" /></svg>