<?xml version="1.0" standalone="no"?><!DOCTYPE svg PUBLIC "-//W3C//DTD SVG 1.1//EN" "http://www.w3.org/Graphics/SVG/1.1/DTD/svg11.dtd"><svg class="icon" width="128px" height="128.00px" viewBox="0 0 1024 1024" version="1.1" xmlns="http://www.w3.org/2000/svg"><path d="M682.682 634.878h42.626v154.434h-42.626z" fill="#FFD2A6" /><path d="M21.594 734.812h767.96v42.688H21.594zM586.686 862.808H77.794v-42.62h519.514zM585.78 564.196H76.904v42.62h519.53zM21.594 649.504h767.96v42.684H21.594z" fill="#FFD2A6" /><path d="M767.992 659.128h42.686v115.996h-42.686zM85.342 569.82h42.672v289.864H85.342z" fill="#FFD2A6" /><path d="M298.678 500.182l-0.014 418.564h-127.98V500.182z" fill="#D94452" /><path d="M341.334 522.024h42.67V907.56h-42.67z" fill="#FFD2A6" /><path d="M213.338 503.12h42.67v423.19h-42.67z" fill="#EC5564" /><path d="M639.996 601.066v219.122L512 853.996V571.128z" fill="#D94452" /><path d="M426.674 543.804h42.656v346.878h-42.656z" fill="#FFD2A6" /><path d="M554.686 569.82h42.624v284.176h-42.624z" fill="#EC5564" /><path d="M280.382 947.118c125.98 0 510.92-154.618 650.072-212.304h72.216c11.748 0 21.31-9.5 21.31-21.308a21.3 21.3 0 0 0-21.31-21.316h-72.216c-139.152-57.684-524.092-212.318-650.072-212.318-154.84 0-280.366 104.576-280.366 233.634 0.002 129.052 125.526 233.612 280.366 233.612zM109.452 581.066c21.842-18.184 47.404-32.558 75.982-42.606 29.998-10.562 61.95-15.938 94.95-15.938 57.404 0 197.07 40.484 393.298 113.98 73.778 27.688 143.622 55.5 196.398 77-52.778 21.496-122.622 49.308-196.398 76.996-196.228 73.496-335.894 113.996-393.298 113.996-33 0-64.952-5.376-94.95-15.938-28.578-10.062-54.14-24.438-75.982-42.626-43.062-35.872-66.764-82.934-66.764-132.43 0-49.496 23.7-96.558 66.764-132.434z" fill="#F4BE8E" /><path d="M298.678 234.69h42.656v154.434h-42.656z" fill="#FFD2A6" /><path d="M234.448 246.534H1002.42v42.654H234.462zM437.33 161.192h508.876v42.686H426.674zM438.22 459.872h508.89v-42.688H427.564zM234.448 331.876H1002.42v42.654H234.448z" fill="#FFD2A6" /><path d="M213.338 248.908h42.67v115.996h-42.67zM895.986 164.38h42.686v289.866h-42.686z" fill="#FFD2A6" /><path d="M725.306 523.868l0.03-418.58h127.964v418.58z" fill="#D94452" /><path d="M639.996 116.474h42.686v385.55h-42.686z" fill="#FFD2A6" /><path d="M767.992 97.724h42.686v423.174h-42.686z" fill="#EC5564" /><path d="M384.004 422.964V203.878L512 170.036V452.9z" fill="#D94452" /><path d="M554.686 133.38h42.624v346.864h-42.624z" fill="#FFD2A6" /><path d="M426.674 170.036h42.656v284.21h-42.656z" fill="#EC5564" /><path d="M743.616 76.882c-125.994 0-510.934 154.65-650.07 212.304H21.344c-11.78 0-21.326 9.562-21.326 21.344s9.546 21.344 21.326 21.344h72.202c139.136 57.654 524.076 212.32 650.07 212.32 154.84 0 280.368-104.636 280.368-233.664S898.456 76.882 743.616 76.882z m170.93 366.082c-21.842 18.186-47.402 32.53-75.996 42.624-29.998 10.562-61.936 15.906-94.936 15.906-57.402 0-197.054-40.468-393.282-113.996-73.794-27.626-143.652-55.468-196.416-76.966 52.764-21.5 122.622-49.342 196.416-76.966 196.226-73.53 335.878-113.996 393.282-113.996 33 0 64.938 5.344 94.936 15.906 28.594 10.094 54.154 24.436 75.996 42.624 43.062 35.874 66.75 82.904 66.75 132.434s-23.686 96.556-66.75 132.43z" fill="#F4BE8E" /></svg>