<?xml version="1.0" standalone="no"?><!DOCTYPE svg PUBLIC "-//W3C//DTD SVG 1.1//EN" "http://www.w3.org/Graphics/SVG/1.1/DTD/svg11.dtd"><svg class="icon" width="128px" height="128.00px" viewBox="0 0 1024 1024" version="1.1" xmlns="http://www.w3.org/2000/svg"><path d="M862.294 0.192c-42.28-1.656-81.464 13.342-110.338 42.232-0.344 0.344-0.656 0.688-0.968 1.032-1.282 1.468-131.242 149.524-344.638 362.934C193.048 619.706 44.884 749.762 43.416 751.042c-0.36 0.312-0.718 0.656-1.046 0.968C13.496 780.884-1.504 820.07 0.154 862.348c1.64 41.654 19.312 81.34 49.762 111.806 63.294 63.31 162.96 66.686 222.114 7.5 0.344-0.312 0.672-0.688 0.984-1.032 1.282-1.468 131.212-149.742 344.484-363.042 213.3-213.3 361.606-343.23 363.074-344.512 0.344-0.312 0.718-0.64 1.032-0.984 59.184-59.168 55.808-158.82-7.5-222.128C943.664 19.488 903.95 1.832 862.294 0.192z" fill="#4A89DC" /><path d="M50.618 744.668c-4.562 4.062-7.03 6.216-7.202 6.374-0.36 0.312-0.718 0.656-1.046 0.968C13.496 780.884-1.504 820.07 0.154 862.348c1.64 41.654 19.312 81.34 49.762 111.806 63.294 63.31 162.96 66.686 222.114 7.5 0.344-0.312 0.672-0.688 0.984-1.032a842.52 842.52 0 0 1 6.36-7.216L50.618 744.668zM973.382 279.412a848.64 848.64 0 0 1 7.218-6.376c0.344-0.312 0.688-0.64 1-0.968 28.904-28.874 43.902-68.058 42.246-110.338-1.624-41.638-19.31-81.356-49.746-111.792-63.308-63.308-162.992-66.7-222.114-7.532a10.572 10.572 0 0 0-1 1.062c-0.156 0.172-2.312 2.624-6.376 7.204l228.772 228.74z" fill="#5D9CEC" /><path d="M279.34 594.394a70.646 70.646 0 0 0-14.124 20.092c-9.984 21.404-8.5 47.186 4.062 70.652 11.656 21.81 31.748 40.216 56.558 51.78 18.14 8.468 35.25 16.436 52.592 19.248 22.732 3.656 42.262-2.468 58.028-18.248 8.312-8.312 15.546-19.188 22.108-33.25 15.922-34.184 15.468-61.434-1.422-83.37-13.796-17.906-35.826-28.154-59.184-39.06-43.434-20.25-91.102-15.374-118.618 12.156zM685.43 269.662c-23.468-12.562-49.216-14.03-70.622-4.046a70.736 70.736 0 0 0-20.124 14.11c-27.498 27.53-32.374 75.2-12.124 118.634 10.876 23.326 21.156 45.388 39.062 59.168 21.902 16.89 49.184 17.36 83.338 1.422 14.06-6.562 24.936-13.796 33.28-22.108 15.75-15.782 21.906-35.296 18.25-58.014-2.812-17.342-10.812-34.466-19.25-52.606-11.596-24.812-30-44.904-51.81-56.56z" fill="#E6E9ED" /><path d="M385.928 580.614l-0.016-0.156c-6.124 0.876-37.904 7.968-62.684 61.09-24.78 53.124-9.766 82.028-6.5 87.278l0.032-0.032c0.828 1.344 1.812 2.624 2.984 3.812 8.328 8.312 21.842 8.312 30.17 0 6.89-6.906 8.062-17.312 3.578-25.438-2.376-5.344-3.578-21.904 8.406-47.59 11.53-24.75 24.42-34.656 30.388-36.81a21.136 21.136 0 0 0 12.078-6.032c8.344-8.312 8.344-21.81 0-30.154a21.34 21.34 0 0 0-18.436-5.968z m-32.92 125.742c0.046 0.094 0.188 0.312 0.39 0.688-0.124-0.22-0.248-0.47-0.39-0.688zM586.558 404.406c8.312 8.328 21.812 8.328 30.124 0 3.438-3.406 5.406-7.67 6.032-12.092 2.154-5.954 12.092-18.842 36.808-30.374 25.718-11.984 42.248-10.782 47.592-8.422 8.124 4.5 18.56 3.312 25.436-3.562 8.312-8.328 8.312-21.842 0-30.17a21.11 21.11 0 0 0-3.812-3l0.032-0.032c-5.25-3.25-34.152-18.264-87.276 6.516-53.124 24.764-60.186 56.558-61.06 62.684l0.124 0.016c-1 6.514 0.938 13.42 6 18.436z m120.432-50.966a11.316 11.316 0 0 1-0.688-0.39c0.25 0.124 0.438 0.264 0.688 0.39z" fill="#434A54" /></svg>