<?xml version="1.0" standalone="no"?><!DOCTYPE svg PUBLIC "-//W3C//DTD SVG 1.1//EN" "http://www.w3.org/Graphics/SVG/1.1/DTD/svg11.dtd"><svg class="icon" width="128px" height="128.00px" viewBox="0 0 1024 1024" version="1.1" xmlns="http://www.w3.org/2000/svg"><path d="M1002.678 490.672H862.18l70.25-70.248c8.312-8.328 8.312-21.844 0-30.17-8.344-8.328-21.876-8.328-30.188 0l-100.436 100.418H533.328V222.178l100.42-100.418c8.312-8.328 8.312-21.842 0-30.17s-21.842-8.328-30.186 0l-70.234 70.248V21.34c0-11.782-9.546-21.328-21.328-21.328s-21.326 9.546-21.326 21.328v140.496l-70.25-70.248c-8.328-8.328-21.842-8.328-30.17 0s-8.328 21.842 0 30.17l100.42 100.418v268.494H222.18l-100.42-100.418c-8.328-8.328-21.844-8.328-30.172 0s-8.328 21.842 0 30.17l70.248 70.248H21.34c-11.782 0-21.328 9.546-21.328 21.328s9.546 21.328 21.328 21.328h140.496L91.588 603.56c-8.328 8.344-8.328 21.876 0 30.186a21.188 21.188 0 0 0 15.094 6.25c5.454 0 10.922-2.062 15.078-6.25l100.42-100.418h268.494v268.478l-100.42 100.434c-8.328 8.312-8.328 21.812 0 30.188a21.42 21.42 0 0 0 15.078 6.25c5.466 0 10.92-2.124 15.092-6.25l70.25-70.248v140.496c0 11.75 9.544 21.312 21.326 21.312s21.328-9.562 21.328-21.312V862.18l70.234 70.248c4.188 4.124 9.624 6.25 15.124 6.25a21.4 21.4 0 0 0 15.06-6.25c8.312-8.344 8.312-21.876 0-30.188l-100.42-100.434V533.328h268.478l100.436 100.418a21.144 21.144 0 0 0 15.062 6.25c5.5 0 10.938-2.062 15.124-6.25 8.312-8.31 8.312-21.842 0-30.186l-70.25-70.232h140.498c11.748 0 21.31-9.546 21.31-21.328s-9.558-21.328-21.306-21.328z" fill="#4A89DC" /><path d="M746.684 298.676c0 11.78-9.562 21.328-21.376 21.328-11.75 0-21.312-9.546-21.312-21.328s9.562-21.342 21.312-21.342c11.814 0 21.376 9.562 21.376 21.342zM320.006 725.308c0 11.81-9.546 21.374-21.328 21.374s-21.344-9.562-21.344-21.374c0-11.75 9.562-21.312 21.344-21.312s21.328 9.562 21.328 21.312z" fill="#4A89DC" /><path d="M298.678 746.682a21.454 21.454 0 0 1-15.094-6.25c-8.328-8.344-8.328-21.874 0-30.186l426.662-426.662c8.312-8.328 21.844-8.328 30.188 0 8.312 8.328 8.312 21.842 0 30.17L313.756 740.432a21.424 21.424 0 0 1-15.078 6.25zM725.308 746.682c-11.75 0-21.312-9.562-21.312-21.374 0-11.75 9.562-21.312 21.312-21.312 11.812 0 21.376 9.562 21.376 21.312a21.364 21.364 0 0 1-21.376 21.374zM298.678 320.004c-11.782 0-21.344-9.546-21.344-21.328s9.562-21.342 21.344-21.342 21.328 9.562 21.328 21.342c0 11.782-9.548 21.328-21.328 21.328z" fill="#4A89DC" /><path d="M725.308 746.682a21.404 21.404 0 0 1-15.062-6.25L283.584 313.754c-8.328-8.328-8.328-21.842 0-30.17 8.344-8.328 21.844-8.328 30.172 0l426.678 426.662c8.312 8.312 8.312 21.842 0 30.186-4.188 4.124-9.626 6.25-15.126 6.25z" fill="#4A89DC" /><path d="M512.032 341.378L682.684 512l-170.652 170.622L341.128 512z" fill="#5D9CEC" /><path d="M725.434 362.676c35.344 0 64-28.656 64-64 0-35.358-28.656-64-64-64s-63.998 28.64-63.998 64c0 35.344 28.654 64 63.998 64zM725.434 661.308c-35.344 0-63.998 28.688-63.998 64 0 35.374 28.654 63.998 63.998 63.998s64-28.624 64-63.998c0-35.312-28.656-64-64-64zM298.678 661.308c-35.344 0-63.998 28.688-63.998 64 0 35.374 28.654 63.998 63.998 63.998 35.342 0 63.998-28.624 63.998-63.998 0-35.312-28.656-64-63.998-64zM298.678 234.678c-35.344 0-63.998 28.64-63.998 64 0 35.342 28.654 64 63.998 64 35.342 0 63.998-28.656 63.998-64 0-35.36-28.656-64-63.998-64z" fill="#5D9CEC" /></svg>