<?xml version="1.0" standalone="no"?><!DOCTYPE svg PUBLIC "-//W3C//DTD SVG 1.1//EN" "http://www.w3.org/Graphics/SVG/1.1/DTD/svg11.dtd"><svg class="icon" width="128px" height="128.00px" viewBox="0 0 1024 1024" version="1.1" xmlns="http://www.w3.org/2000/svg"><path d="M1002.668 384.012H128.014a21.256 21.256 0 0 0-15.062 6.218L6.27 496.916a21.376 21.376 0 0 0-5.376 21.092l106.652 362.656c2.376 8.062 9.282 14 17.624 15.124l767.97 106.684c0.938 0.124 1.906 0.188 2.844 0.188 5.624 0 11.062-2.25 15.094-6.25l106.652-106.684c4-4 6.25-9.438 6.25-15.062v-469.34a21.3 21.3 0 0 0-21.312-21.312z" fill="#967ADC" /><path d="M770.802 985.91l122.338 16.562c0.938 0.124 1.906 0.188 2.844 0.188 5.624 0 11.062-2.25 15.094-6.25l106.652-106.684c4-4 6.25-9.438 6.25-15.062v-469.34c0-5.874-2.376-11.218-6.25-15.092l-121.746 121.778-125.182 473.9z" fill="#080808" opacity=".1" /><path d="M895.984 490.666H21.362A21.33 21.33 0 0 0 0.02 512.01v469.28c0 11.808 9.562 21.372 21.342 21.372h874.622c11.782 0 21.344-9.562 21.344-21.372v-469.28c0-11.814-9.562-21.344-21.344-21.344z" fill="#AC92EB" /><path d="M262.26 283.58c-8.312 8.344-8.312 21.844 0 30.188 8.342 8.312 21.842 8.312 30.186 0 8.312-8.344 8.312-21.844 0-30.188-8.344-8.314-21.844-8.314-30.186 0zM149.358 44.026c-58.81 0-106.652 47.842-106.652 106.652s47.842 106.652 106.652 106.652 106.652-47.842 106.652-106.652-47.842-106.652-106.652-106.652zM574.466 21.338c-47.06 0-85.34 38.28-85.34 85.342 0 47.06 38.28 85.34 85.34 85.34s85.34-38.28 85.34-85.34-38.278-85.342-85.34-85.342zM469.344 234.674c-35.28 0-63.998 28.718-63.998 63.998s28.718 63.998 63.998 63.998 64-28.718 64-63.998-28.72-63.998-64-63.998z" fill="#E6E9ED" /></svg>