<?xml version="1.0" standalone="no"?><!DOCTYPE svg PUBLIC "-//W3C//DTD SVG 1.1//EN" "http://www.w3.org/Graphics/SVG/1.1/DTD/svg11.dtd"><svg class="icon" width="128px" height="128.00px" viewBox="0 0 1024 1024" version="1.1" xmlns="http://www.w3.org/2000/svg"><path d="M512.138 1023.856c-69.09 0-136.148-13.562-199.27-40.248-60.934-25.78-115.682-62.686-162.648-109.682-47.03-46.998-83.934-101.746-109.712-162.68C13.822 648.124 0.292 581.066 0.292 511.992c0-69.09 13.53-136.12 40.216-199.224 25.78-60.95 62.684-115.698 109.712-162.694 46.966-46.998 101.712-83.918 162.648-109.684C376.022 13.688 443.048 0.144 512.138 0.144h-0.032 0.032c69.106 0 136.132 13.544 199.256 40.246 60.936 25.766 115.682 62.67 162.708 109.668 46.968 46.996 83.872 101.744 109.652 162.694 26.716 63.122 40.214 130.15 40.214 199.24 0 69.074-13.498 136.132-40.214 199.254-25.782 60.934-62.684 115.682-109.652 162.68-47.028 46.996-101.774 83.902-162.708 109.682-63.122 26.684-130.15 40.248-199.256 40.248z" fill="#E6E9ED" /><path d="M659.802 383.826l-205.286-66.684a21.314 21.314 0 0 0-23.812 7.75l-126.836 174.568a21.312 21.312 0 0 0 0 25.076l126.836 174.586a21.308 21.308 0 0 0 17.218 8.81c2.218 0 4.438-0.376 6.594-1.062l205.286-66.684a21.36 21.36 0 0 0 14.718-20.31V404.124a21.328 21.328 0 0 0-14.718-20.298zM69.724 338.124a21.36 21.36 0 0 0-23.874-7.732l-4 1.312a21.148 21.148 0 0 0-13.562 13.31c-1.03 2.922-2 5.86-2.968 8.796-34.686 106.854-33.686 219.286 2.936 325.186a21.366 21.366 0 0 0 13.562 13.312l4.062 1.312c2.156 0.688 4.374 1.062 6.592 1.062 6.688 0 13.156-3.188 17.25-8.812l117.212-161.336a21.312 21.312 0 0 0 0-25.076l-117.21-161.334zM423.582 825.146a21.36 21.36 0 0 0-23.842-7.748l-189.678 61.622a21.324 21.324 0 0 0-14.75 20.282v4.248c0 6.688 3.156 12.968 8.5 16.998a332 332 0 0 0 7.468 5.532c88.026 63.966 191.926 97.778 300.452 97.778 3.218 0 6.468 0 9.718-0.062a21.26 21.26 0 0 0 16.844-8.812l2.5-3.438a21.236 21.236 0 0 0 0-25.06l-117.212-161.34zM998.628 642.562l-2.5-3.438a21.36 21.36 0 0 0-23.874-7.782l-189.646 61.654c-8.812 2.812-14.748 11.03-14.748 20.248v199.428c0 9.248 5.936 17.436 14.748 20.31l4 1.312c2.156 0.688 4.376 1 6.592 1 4.312 0 8.594-1.312 12.218-3.812 2.532-1.782 5.062-3.562 7.594-5.406 90.872-66.028 156.148-157.584 188.74-264.766a21.284 21.284 0 0 0-3.124-18.748zM782.578 330.986l189.678 61.636c2.156 0.704 4.376 1.046 6.594 1.046a21.32 21.32 0 0 0 17.248-8.812l2.5-3.422a21.228 21.228 0 0 0 3.124-18.748 470.794 470.794 0 0 0-2.782-8.86c-34.716-106.838-101.65-197.208-193.522-261.346a21.292 21.292 0 0 0-18.78-2.796l-4.062 1.312a21.354 21.354 0 0 0-14.748 20.296v199.41a21.34 21.34 0 0 0 14.75 20.284zM210.03 144.98l189.678 61.622c2.186 0.704 4.406 1.046 6.592 1.046 6.688 0 13.156-3.172 17.25-8.796l117.214-161.334a21.264 21.264 0 0 0 0-25.078l-2.468-3.422a21.38 21.38 0 0 0-16.876-8.78 463.284 463.284 0 0 0-9.282-0.094h-0.032C399.8 0.144 293.18 35.876 203.778 103.436a21.286 21.286 0 0 0-8.468 16.998v4.25a21.332 21.332 0 0 0 14.72 20.296z" fill="#434A54" /><path d="M983.756 312.752c-25.782-60.95-62.684-115.698-109.652-162.694-47.028-46.998-101.774-83.902-162.708-109.668C648.272 13.69 581.244 0.144 512.138 0.144c-7.156 0-14.25 0.156-21.342 0.438C552.372 3.08 612.12 16.44 668.74 40.39c60.934 25.766 115.682 62.67 162.68 109.668 46.996 46.996 83.902 101.744 109.68 162.694 26.718 63.122 40.25 130.15 40.25 199.24 0 69.074-13.532 136.132-40.25 199.254-25.778 60.934-62.684 115.682-109.68 162.68-46.998 46.996-101.746 83.902-162.68 109.682-56.622 23.936-116.37 37.31-177.944 39.81 7.092 0.282 14.186 0.438 21.342 0.438 69.106 0 136.132-13.562 199.256-40.248 60.936-25.78 115.682-62.686 162.708-109.682 46.968-46.998 83.872-101.746 109.652-162.68 26.716-63.122 40.214-130.18 40.214-199.254 0.002-69.09-13.496-136.118-40.212-199.24z" fill="#FFFFFF" opacity=".2" /></svg>