<?xml version="1.0" standalone="no"?><!DOCTYPE svg PUBLIC "-//W3C//DTD SVG 1.1//EN" "http://www.w3.org/Graphics/SVG/1.1/DTD/svg11.dtd"><svg class="icon" width="128px" height="128.00px" viewBox="0 0 1024 1024" version="1.1" xmlns="http://www.w3.org/2000/svg"><path d="M1021.758 500.968c-2.344-37.874-6.468-68.84-12.28-92.058-5.782-23.062-16.53-54.528-43.248-61.278-12.25-3.124-24.968-4.688-37.842-4.688-23.686 0-40.03 5.312-41.81 5.906a21.094 21.094 0 0 0-9.876 6.938c-0.282 0.344-28.966 34.936-72.34 35.904-41.028 0.906-72.184-21.842-83.496-31.466-5.592-30.78-27.684-78.808-81.526-84.652a32.86 32.86 0 0 0-3.062-0.156c-18.624 0-57.592 21.062-164.242 81.246-44.28 24.966-90.058 50.81-128.93 70.964-56.374 29.216-73.464 33.28-78.184 33.686-55.03 4.624-195.552 32.092-211.616 37.466C27.526 507.342 0.028 529.34 0.028 565.338c0 32.53 11.466 58.498 11.966 59.558a21.076 21.076 0 0 0 6.876 8.532c3.938 2.844 97.152 70.122 203.646 85.84 35.374 5.218 239.456 8.876 400.48 8.876 92.556 0 254.704-1.156 300.702-8.938 82.872-14 98.432-85.246 99.056-88.278 0.218-1.124 0.344-2.282 0.406-3.438 0.098-2.53 2.472-63.182-1.402-126.522z" fill="#ED5564" /><path d="M429.132 678.302l-78.84-239.83 40.53-13.312 78.84 239.832zM510.878 678.302l-78.808-239.83 40.53-13.312 78.808 239.832zM592.718 678.428l-89.402-266.236 40.47-13.592 89.368 266.268zM940.014 739.364H899.14c-11.782 0-21.344-9.532-21.344-21.312s9.562-21.342 21.344-21.342h40.874c11.78 0 21.342 9.56 21.342 21.342s-9.564 21.312-21.342 21.312zM817.364 746.614h-40.874c-11.78 0-21.342-9.562-21.342-21.344s9.562-21.312 21.342-21.312h40.874c11.782 0 21.344 9.532 21.344 21.312s-9.564 21.344-21.344 21.344zM244.956 741.394h-40.874c-11.78 0-21.342-9.532-21.342-21.312 0-11.812 9.562-21.342 21.342-21.342h40.874c11.782 0 21.344 9.53 21.344 21.342-0.002 11.782-9.564 21.312-21.344 21.312zM122.304 698.052H81.402a21.3 21.3 0 0 1-21.312-21.312c0-11.78 9.532-21.342 21.312-21.342h40.902c11.782 0 21.312 9.562 21.312 21.342a21.296 21.296 0 0 1-21.312 21.312zM367.606 748.582h-40.874c-11.782 0-21.342-9.562-21.342-21.344s9.56-21.312 21.342-21.312h40.874c11.782 0 21.342 9.532 21.342 21.312s-9.562 21.344-21.342 21.344z" fill="#434A54" /><path d="M1016.008 650.304s-224.676-0.844-525.72-0.844c-94.872 0-204.616 0.282-253.582-6.062C141.21 631.024 2 564.372 0.062 563.464c0 0.624-0.032 1.25-0.032 1.876 0 32.53 11.466 58.498 11.966 59.558a21.076 21.076 0 0 0 6.876 8.532c3.938 2.844 97.152 70.122 203.646 85.84 35.374 5.218 239.456 8.876 400.48 8.876 92.556 0 254.704-1.156 300.702-8.938 56.656-9.564 81.842-45.906 92.308-68.904z" fill="#E6E9ED" /><path d="M639.342 275.574a32.86 32.86 0 0 0-3.062-0.156c-18.624 0-57.592 21.062-164.242 81.246-44.28 24.966-90.058 50.81-128.93 70.964-56.374 29.216-73.464 33.28-78.184 33.686 247.08 0 455.944-101.088 455.944-101.088-5.592-30.78-27.684-78.808-81.526-84.652z" fill="#DA4453" /></svg>