<?xml version="1.0" standalone="no"?><!DOCTYPE svg PUBLIC "-//W3C//DTD SVG 1.1//EN" "http://www.w3.org/Graphics/SVG/1.1/DTD/svg11.dtd"><svg class="icon" width="128px" height="128.00px" viewBox="0 0 1024 1024" version="1.1" xmlns="http://www.w3.org/2000/svg"><path d="M733.318 869.876L264.374 503.568l26.244-33.598 468.994 366.308z" fill="#434A54" /><path d="M767.604 855.702l-42.278-5.278 85.246-682.138 42.34 5.29z" fill="#434A54" /><path d="M288.058 505.288l-21.108-37.034L821.188 152.406l21.108 37.05z" fill="#434A54" /><path d="M533.302 512c0 141.264-114.52 255.8-255.8 255.8s-255.8-114.538-255.8-255.8c0-141.28 114.52-255.8 255.8-255.8s255.8 114.52 255.8 255.8z" fill="#ED5564" /><path d="M1002.296 170.94c0 94.176-76.376 170.522-170.554 170.522s-170.554-76.346-170.554-170.522c0-94.194 76.376-170.54 170.554-170.54s170.554 76.346 170.554 170.54z" fill="#A0D468" /><path d="M916.988 853.078c0 94.176-76.314 170.522-170.492 170.522-94.238 0-170.552-76.346-170.552-170.522 0-94.208 76.314-170.554 170.552-170.554 94.178 0 170.492 76.346 170.492 170.554z" fill="#EC87C0" /><path d="M466.996 683.834v-12.052c0-19.516-12.552-36.846-31.226-43.03l-1.406-0.406c-20.516-5.494-27.462-10.802-36.596-14.27-32.38-12.334-40.812-21.232-42.966-25.418a5.898 5.898 0 0 1-0.202-0.468l-0.282-37.624-76.816-0.876-76.83 0.876-0.266 37.624a5.268 5.268 0 0 1-0.204 0.468c-2.154 4.186-10.584 13.084-42.982 25.418-9.118 3.466-16.066 8.776-36.582 14.27l-1.406 0.406c-18.672 6.184-31.226 23.514-31.226 43.03v12.052c46.792 51.586 114.364 83.966 189.492 83.966s142.706-32.38 189.498-83.966z" fill="#48CFAD" /><path d="M384.108 477.746c0 69.258-66.042 132.99-106.604 132.99S170.9 547.004 170.9 477.746s47.728-114.958 106.604-114.958 106.604 45.7 106.604 114.958z" fill="#EAC6BB" /><path d="M958.518 284.974v-11.226c0-13.066-8.43-24.652-20.922-28.79l-0.936-0.266c-13.678-3.686-18.362-7.228-24.48-9.554-21.67-8.26-27.292-14.208-28.728-17.018-0.062-0.094-0.062-0.204-0.124-0.312l-0.188-25.168-51.396-0.578-51.396 0.578-0.188 25.168c-0.062 0.11-0.062 0.218-0.124 0.312-1.438 2.81-7.122 8.758-28.792 17.018-6.056 2.326-10.74 5.87-24.418 9.554l-0.998 0.266c-12.492 4.136-20.86 15.722-20.86 28.79v11.226c31.224 34.676 76.44 56.486 126.776 56.486s95.548-21.81 126.774-56.486z" fill="#AC92EB" /><path d="M903.06 162.586c0 46.338-44.152 88.976-71.318 88.976s-71.318-42.638-71.318-88.976c0-46.34 31.91-76.924 71.318-76.924 39.406 0 71.318 30.584 71.318 76.924z" fill="#EAC6BB" /><path d="M873.272 967.114v-11.21c0-13.082-8.43-24.668-20.922-28.82l-0.936-0.25c-13.74-3.684-18.362-7.244-24.48-9.554-21.67-8.276-27.292-14.208-28.728-17.018-0.062-0.094-0.124-0.218-0.188-0.312l-0.124-25.168-51.396-0.594-51.396 0.594-0.188 25.168a0.66 0.66 0 0 0-0.124 0.312c-1.5 2.81-7.122 8.742-28.79 17.018-6.122 2.31-10.742 5.872-24.482 9.554l-0.936 0.25c-12.492 4.152-20.86 15.738-20.86 28.82v11.21c31.164 34.692 76.44 56.486 126.776 56.486s95.548-21.796 126.774-56.486z" fill="#FFCE54" /><path d="M817.814 844.708c0 46.338-44.214 88.992-71.318 88.992-27.166 0-71.318-42.654-71.318-88.992 0-46.34 31.912-76.908 71.318-76.908 39.346 0 71.318 30.57 71.318 76.908z" fill="#EAC6BB" /></svg>