<?xml version="1.0" standalone="no"?><!DOCTYPE svg PUBLIC "-//W3C//DTD SVG 1.1//EN" "http://www.w3.org/Graphics/SVG/1.1/DTD/svg11.dtd"><svg class="icon" width="128px" height="128.00px" viewBox="0 0 1024 1024" version="1.1" xmlns="http://www.w3.org/2000/svg"><path d="M661.378 255.99c0 23.562-19.124 42.67-42.686 42.67H106.736c-23.562 0-42.67-19.108-42.67-42.67V42.682C64.066 19.104 83.174 0.012 106.736 0.012h511.958c23.56 0 42.686 19.094 42.686 42.67v213.308z" fill="#E6E9ED" /><path d="M533.302 0.012v42.67c0 11.78 9.562 21.328 21.328 21.328 11.812 0 21.344-9.546 21.344-21.328V0.012h-42.672zM405.322 0.012v42.67c0 11.78 9.546 21.328 21.328 21.328s21.328-9.546 21.328-21.328V0.012h-42.656zM277.326 0.012v42.67c0 11.78 9.562 21.328 21.342 21.328s21.328-9.546 21.328-21.328V0.012h-42.67zM149.344 0.012v42.67c0 11.78 9.546 21.328 21.328 21.328S192 54.462 192 42.682V0.012H149.344z" fill="#CCD1D9" /><path d="M959.936 810.556c0-117.81-95.5-213.308-213.308-213.308-2.218 0-4.438 0.032-6.656 0.124l-121.278-0.062V298.662H106.892v460.77a256.352 256.352 0 0 0-0.156 8.5c0 141.372 114.606 255.994 255.978 255.994l384.038 0.062v-0.124c117.746-0.064 213.184-95.53 213.184-213.308z" fill="#ED5564" /><path d="M781.626 1020.988c101.152-16.688 178.308-104.56 178.308-210.432 0-106.998-78.812-195.622-181.558-210.934-37.062 58.874-127.498 237.996 3.25 421.366z" fill="#7F4545" /><path d="M400.776 951.99c-8.39-70.874-32.704-133.842-70.342-182.122-51.17-65.624-126.356-105.716-223.542-119.248v43.124c82.826 12.688 146.606 46.998 189.682 102.124 41.358 52.874 56.358 116.122 61.67 159.872 3.484 28.686 3.376 53.03 2.718 68.186h42.718c0.674-16.812 0.612-42.124-2.904-71.936z" fill="#DA4453" /><path d="M397.01 895.93h-42.702c-11.782 0-21.328 9.56-21.328 21.342s9.546 21.344 21.328 21.344h42.702c11.782 0 21.328-9.562 21.328-21.344s-9.546-21.342-21.328-21.342zM354.448 804.244c10.218-5.876 13.734-18.938 7.876-29.124-5.86-10.25-18.906-13.75-29.124-7.876l-37.014 21.25c-10.218 5.844-13.75 18.876-7.89 29.124 5.876 10.188 18.906 13.75 29.124 7.876h0.016l37.012-21.25zM250.232 687.778l-32.374 27.844c-8.938 7.688-9.954 21.124-2.282 30.06 7.688 8.938 21.156 9.938 30.078 2.282h0.016l32.376-27.842c8.92-7.688 9.936-21.124 2.264-30.062-7.688-8.938-21.156-9.938-30.078-2.282z" fill="#DA4453" /></svg>