<?xml version="1.0" standalone="no"?><!DOCTYPE svg PUBLIC "-//W3C//DTD SVG 1.1//EN" "http://www.w3.org/Graphics/SVG/1.1/DTD/svg11.dtd"><svg class="icon" width="128px" height="128.00px" viewBox="0 0 1024 1024" version="1.1" xmlns="http://www.w3.org/2000/svg"><path d="M682.651667 552.686921c0-87.341829-85.905832-233.931543-85.905833-233.931544V170.697667h-169.493668v148.05771s-85.903832 146.589714-85.903833 233.931544c0 87.309829 21.717958 223.211564 21.717958 282.959447 0 59.779883-21.717958 145.683715-21.717958 145.683715s21.935957 42.373917 170.651667 42.653917c148.71371-0.281999 170.651667-42.653917 170.651667-42.653917s-21.749958-85.903832-21.749958-145.683715c0-59.747883 21.749958-195.649618 21.749958-282.959447z" fill="#E6E9ED" /><path d="M344.162328 617.778793c5.873989 79.685844 18.905963 171.589665 18.905963 217.869575 0 59.779883-21.717958 145.683715-21.717958 145.683715s21.935957 42.373917 170.651667 42.653917c148.71371-0.281999 170.651667-42.653917 170.651667-42.653917s-21.749958-85.903832-21.749958-145.683715c0-46.27991 13.061974-138.18373 18.937963-217.869575h-335.679344z" fill="#A85D5D" /><path d="M682.651667 21.357958c0-11.781977-9.531981-21.343958-21.311959-21.343958-2.031996 0-3.999992 0.311999-5.875988 0.843998V0.825998l-149.339709 42.687917h0.032c-8.937983 2.561995-15.49997 10.749979-15.499969 20.49996v533.326958h42.685916V80.105844l133.839739-38.247926c8.939983-2.563995 15.46997-10.749979 15.46997-20.49996z" fill="#434A54" /><path d="M533.311958 1023.640001c-0.188-11.623977-9.655981-20.965959-21.311958-20.965959s-21.123959 9.343982-21.311958 20.965959a659.458712 659.458712 0 0 0 42.623916 0zM426.658167 995.548056c-10.685979 0-19.529962 7.905985-21.061959 18.187964 11.811977 2.779995 25.71795 5.18599 42.029918 6.965986a18.999963 18.999963 0 0 0 0.375999-3.811992c0-11.777977-9.561981-21.341958-21.343958-21.341958zM597.339833 995.548056c-11.781977 0-21.343958 9.561981-21.343958 21.341958 0 1.311997 0.124 2.593995 0.375999 3.811992 16.311968-1.781997 30.217941-4.187992 42.031918-6.965986-1.531997-10.27998-10.37598-18.187964-21.063959-18.187964z" fill="#965353" /><path d="M426.658167 511.999h170.681666v255.9935h-170.681666z" fill="#DA4453" /><path d="M682.651667 552.686921c0-87.341829-85.905832-233.931543-85.905833-233.931544V170.697667h-42.651916v148.05771s85.901832 146.589714 85.901832 233.931544c0 87.309829-21.749958 223.211564-21.749958 282.959447 0 59.779883 21.749958 145.683715 21.749958 145.683715s-19.843961 38.247925-149.337708 42.309918c6.811987 0.218 13.905973 0.343999 21.341958 0.343999 148.71371-0.281999 170.651667-42.653917 170.651667-42.653917s-21.749958-85.903832-21.749958-145.683715c0-59.747883 21.749958-195.649618 21.749958-282.959447z" fill="#FFFFFF" opacity=".2" /></svg>