<?xml version="1.0" standalone="no"?><!DOCTYPE svg PUBLIC "-//W3C//DTD SVG 1.1//EN" "http://www.w3.org/Graphics/SVG/1.1/DTD/svg11.dtd"><svg class="icon" width="128px" height="128.00px" viewBox="0 0 1024 1024" version="1.1" xmlns="http://www.w3.org/2000/svg"><path d="M571.686 8.51c-7.094-9.406-20.466-11.282-29.874-4.188a21.244 21.244 0 0 0-8.282 14.062l-77.498 550.512 42.248 5.938 77.5-550.51a21.27 21.27 0 0 0-4.094-15.814z" fill="#434A54" /><path d="M725.118 1023.978H298.476l-84.968-727.976H810.46z" fill="#ED5564" /><path d="M368.91 1008.884a21.224 21.224 0 0 0-6.25 15.094h42.654a21.22 21.22 0 0 0-6.25-15.094c-8.31-8.31-21.842-8.31-30.154 0zM454.22 1008.884a21.316 21.316 0 0 0-6.218 15.094h42.656c0-5.468-2.094-10.906-6.25-15.094-8.344-8.31-21.844-8.31-30.188 0zM539.562 1008.884a21.35 21.35 0 0 0-6.25 15.094h42.654a21.32 21.32 0 0 0-6.218-15.094c-8.344-8.31-21.842-8.31-30.186 0zM624.902 1008.884a21.216 21.216 0 0 0-6.25 15.094h42.656a21.22 21.22 0 0 0-6.25-15.094c-8.312-8.31-21.844-8.31-30.156 0z" fill="#DA4453" /><path d="M752.618 789.33l30-255.992H241.196l29.874 255.992z" fill="#FFCE54" /><path d="M655.058 603.586a21.276 21.276 0 0 0-15.062-6.25H383.972a21.276 21.276 0 0 0-15.062 6.25c-8.342 8.312-8.342 21.844 0 30.154 4.156 4.188 9.624 6.25 15.094 6.25h255.96c5.468 0 10.938-2.062 15.094-6.25 8.344-8.31 8.344-21.842 0-30.154zM586.624 682.644h-149.278a21.42 21.42 0 0 0-15.124 6.25c-8.312 8.344-8.312 21.844 0 30.188a21.348 21.348 0 0 0 15.092 6.25h149.34c5.466 0 10.904-2.094 15.092-6.25 8.312-8.344 8.312-21.844 0-30.188a21.42 21.42 0 0 0-15.122-6.25z" fill="#434A54" /><path d="M192.01 256.002h639.98v127.996H192.01z" fill="#E6E9ED" /><path d="M240.914 271.096c8.312 8.312 21.844 8.312 30.156 0 4.186-4.156 6.25-9.624 6.25-15.094h-42.654c0 5.47 2.062 10.938 6.248 15.094zM326.224 271.096c8.344 8.312 21.842 8.312 30.186 0a21.296 21.296 0 0 0 6.25-15.094h-42.656c0.002 5.47 2.064 10.938 6.22 15.094zM411.566 271.096c8.344 8.312 21.842 8.312 30.186 0 4.156-4.156 6.218-9.624 6.218-15.094h-42.656a21.306 21.306 0 0 0 6.252 15.094zM496.906 271.096c8.312 8.312 21.844 8.312 30.156 0 4.188-4.156 6.25-9.624 6.25-15.094h-42.656c0.002 5.47 2.064 10.938 6.25 15.094zM582.216 271.096c8.344 8.312 21.842 8.312 30.186 0a21.296 21.296 0 0 0 6.25-15.094h-42.654c0 5.47 2.062 10.938 6.218 15.094zM667.558 271.096c8.344 8.312 21.842 8.312 30.186 0 4.156-4.156 6.218-9.624 6.218-15.094h-42.654c0 5.47 2.094 10.938 6.25 15.094zM746.648 256.002c0 5.468 2.062 10.938 6.25 15.094 8.312 8.312 21.844 8.312 30.156 0 4.188-4.156 6.25-9.624 6.25-15.094h-42.656z" fill="#F5F7FA" /></svg>