<?xml version="1.0" standalone="no"?><!DOCTYPE svg PUBLIC "-//W3C//DTD SVG 1.1//EN" "http://www.w3.org/Graphics/SVG/1.1/DTD/svg11.dtd"><svg class="icon" width="128px" height="128.00px" viewBox="0 0 1024 1024" version="1.1" xmlns="http://www.w3.org/2000/svg"><path d="M831.994 234.684H192.004c-11.782 0-21.31 9.532-21.31 21.344v298.668c0 11.75 9.53 21.312 21.31 21.312h639.99c11.812 0 21.344-9.562 21.344-21.312V256.028a21.312 21.312 0 0 0-21.344-21.344z" fill="#DA4453" /><path d="M490.688 234.684h42.656v320.012h-42.656z" fill="#ED5564" /><path d="M170.694 533.336h682.644v213.356H170.694z" fill="#656D78" /><path d="M192.004 661.318h639.99v85.374H192.004z" fill="#434A54" /><path d="M106.694 362.682c-58.81 0-106.686 47.844-106.686 106.654 0 42.968 25.624 81.11 63.998 97.796v222.184h149.342v-319.98c0-58.81-47.842-106.654-106.654-106.654zM917.336 362.682c-58.81 0-106.654 47.844-106.654 106.654v319.98h149.31V567.132c38.406-16.688 64-54.828 64-97.796 0-58.81-47.844-106.654-106.656-106.654z" fill="#ED5564" /><path d="M128.006 469.336c0 11.782-9.532 21.344-21.312 21.344s-21.344-9.562-21.344-21.344c0-11.78 9.562-21.31 21.344-21.31s21.312 9.53 21.312 21.31zM938.68 469.336c0 11.782-9.562 21.344-21.344 21.344s-21.344-9.562-21.344-21.344c0-11.78 9.562-21.31 21.344-21.31s21.344 9.53 21.344 21.31z" fill="#DA4453" /></svg>