<?xml version="1.0" standalone="no"?><!DOCTYPE svg PUBLIC "-//W3C//DTD SVG 1.1//EN" "http://www.w3.org/Graphics/SVG/1.1/DTD/svg11.dtd"><svg class="icon" width="128px" height="128.00px" viewBox="0 0 1024 1024" version="1.1" xmlns="http://www.w3.org/2000/svg"><path d="M661.312 490.656H563.5l69.188-69.188c8.312-8.312 8.312-21.812 0-30.124-8.376-8.374-21.874-8.374-30.188 0l-69.188 69.156v-97.844c0-11.75-9.562-21.312-21.312-21.312-11.812 0-21.374 9.562-21.374 21.312v97.844l-69.124-69.156c-8.376-8.374-21.876-8.374-30.188 0-8.312 8.312-8.312 21.812 0 30.124l69.188 69.188h-97.876c-11.75 0-21.314 9.562-21.314 21.344s9.562 21.344 21.314 21.344h97.876l-69.188 69.188c-8.312 8.31-8.312 21.812 0 30.156 8.314 8.344 21.812 8.344 30.188 0l69.124-69.188v97.844c0 11.75 9.562 21.312 21.374 21.312 11.75 0 21.312-9.562 21.312-21.312V563.5l69.188 69.156v0.032c8.314 8.344 21.812 8.344 30.188 0 8.312-8.344 8.312-21.846 0-30.156l-69.188-69.188h97.812c11.812 0 21.312-9.562 21.312-21.344s-9.5-21.344-21.312-21.344z" fill="#F6BB42" /><path d="M587.438 587.406c-41.688 41.688-109.25 41.688-150.874 0-41.69-41.624-41.69-109.188 0-150.812 41.624-41.688 109.186-41.688 150.874 0 41.624 41.624 41.624 109.188 0 150.812z" fill="#FFCE54" /><path d="M512 0C229.188 0 0 229.218 0 512s229.188 512 512 512c282.75 0 512-229.218 512-512S794.75 0 512 0z m331.876 843.876c-43.124 43.094-93.31 76.966-149.188 100.594-57.874 24.47-119.312 36.876-182.688 36.876-63.374 0-124.876-12.404-182.688-36.876-55.876-23.626-106.062-57.5-149.186-100.594-43.126-43.124-77-93.312-100.626-149.218C55.064 636.842 42.626 575.376 42.626 512c0-63.376 12.438-124.844 36.876-182.656 23.624-55.906 57.5-106.094 100.626-149.218 43.124-43.094 93.31-76.968 149.186-100.594C387.124 55.062 448.626 42.656 512 42.656c63.376 0 124.814 12.406 182.688 36.876 55.876 23.624 106.062 57.5 149.188 100.594 43.124 43.124 76.94 93.312 100.562 149.218 24.5 57.812 36.876 119.282 36.876 182.656 0 63.376-12.376 124.842-36.876 182.656-23.624 55.906-57.438 106.094-100.562 149.22z" fill="#E6E9ED" /><path d="M512 192c-176.75 0-320 143.282-320 320 0 176.72 143.25 320 320 320 176.688 0 320-143.28 320-320 0-176.718-143.312-320-320-320z m277.312 320c0 37.468-7.312 73.782-21.75 107.938-14 33.032-34 62.686-59.5 88.156-25.438 25.502-55.124 45.502-88.124 59.468-34.19 14.47-70.502 21.782-107.94 21.782-37.5 0-73.812-7.31-107.936-21.782-33.064-13.966-62.69-33.966-88.188-59.468-25.5-25.47-45.5-55.124-59.438-88.156C242 585.782 234.626 549.468 234.626 512s7.374-73.782 21.812-107.938c13.938-33.032 33.938-62.688 59.438-88.156 25.5-25.5 55.124-45.5 88.188-59.468 34.124-14.468 70.438-21.782 107.936-21.782 37.438 0 73.75 7.314 107.94 21.782 32.998 13.968 62.686 33.968 88.124 59.468 25.5 25.468 45.5 55.124 59.5 88.156C782 438.218 789.312 474.532 789.312 512z" fill="#E6E9ED" /><path d="M905.124 814.656c25.002 25 25.002 65.5 0 90.502-24.998 24.998-65.5 24.998-90.5 0-25-25.002-25-65.502 0-90.502s65.502-25 90.5 0z" fill="#FC6E51" /><path d="M300.814 364.812c-35.376 0-64-28.656-64-64s28.624-64 64-64c35.314 0 64 28.656 64 64s-28.688 64-64 64z" fill="#ED5565" /></svg>