<?xml version="1.0" standalone="no"?><!DOCTYPE svg PUBLIC "-//W3C//DTD SVG 1.1//EN" "http://www.w3.org/Graphics/SVG/1.1/DTD/svg11.dtd"><svg class="icon" width="128px" height="128.00px" viewBox="0 0 1024 1024" version="1.1" xmlns="http://www.w3.org/2000/svg"><path d="M920.618 815.278l-3.624-1.032c-52.938-14.218-70.872-27.906-94.434-36.876-83.656-31.876-105.406-54.812-110.968-65.656-0.218-0.406-0.344-0.812-0.532-1.218l-0.688-97.152L512 611.094l-198.34 2.25-0.688 97.152c-0.188 0.406-0.344 0.812-0.532 1.218-5.562 10.844-27.312 33.782-110.966 65.656-23.592 8.968-41.5 22.656-94.466 36.876l-3.624 1.032c-48.218 15.938-80.654 60.656-80.654 111.122v97.594h978.544V926.4c0-50.466-32.406-95.186-80.656-111.122z" fill="#8CC153" /><path d="M711.59 711.714c-0.218-0.406-0.344-0.812-0.532-1.218l-0.688-97.152L512 611.094l-198.34 2.25-0.688 97.152c-0.188 0.406-0.344 0.812-0.532 1.218-5.562 10.844 199.56 312.278 199.56 312.278s205.152-301.434 199.59-312.278z" fill="#DBAFA5" /><path d="M787.246 425.376c0 178.81-170.496 343.4-275.246 343.4-104.748 0-275.246-164.59-275.246-343.4 0-178.84 123.248-296.838 275.246-296.838 151.996 0 275.246 117.998 275.246 296.838z" fill="#EAC6BB" /><path d="M791.464 127.288c-23.718-37.28-56.282-66.936-96.812-88.154C645.122 13.166 583.656 0.008 512 0.008c-71.624 0-133.092 13.156-182.622 39.124-40.562 21.218-73.124 50.874-96.81 88.154-40.25 63.19-40.688 126.188-40.688 128.844v213.434a21.36 21.36 0 0 0 15.062 20.406 21.34 21.34 0 0 0 23.938-8.468l80.31-118.654h401.524l80.406 118.686a21.42 21.42 0 0 0 17.688 9.376 21.46 21.46 0 0 0 6.25-0.938 21.312 21.312 0 0 0 15.094-20.406V256.13c0-2.656-0.468-65.654-40.688-128.842z" fill="#ED5564" /><path d="M791.464 127.288c-23.718-37.28-56.282-66.936-96.812-88.154C645.122 13.166 583.656 0.008 512 0.008c-71.624 0-133.092 13.156-182.622 39.124-40.562 21.218-73.124 50.874-96.81 88.154-40.25 63.19-40.688 126.188-40.688 128.844v21.344c0-2.656 0.438-65.656 40.686-128.842 23.686-37.282 56.25-66.936 96.81-88.154 49.532-25.97 111-39.126 182.624-39.126 71.656 0 133.122 13.156 182.652 39.124 40.532 21.218 73.094 50.874 96.812 88.154 40.218 63.186 40.688 126.186 40.688 128.842v-21.344c0-2.654-0.468-65.652-40.688-128.84z" fill="#FFFFFF" opacity=".2" /><path d="M191.88 256.13v21.344h640.272v-21.344c0-0.906-0.032-8.812-1.718-21.344H193.568c-1.656 12.532-1.688 20.438-1.688 21.344z" fill="#DA4453" /><path d="M265.378 555.156C318.346 676.528 433.594 768.778 512 768.778c78.376 0 193.464-92.062 246.528-213.308-113.532 9-244.778-43.218-244.778-43.218s-134.06 53.342-248.372 42.904z" fill="#8CC153" /><path d="M643.058 768.372s-39.964 42.688-131.184 42.688c-91.186 0-131.248-42.688-131.248-42.688L512 1023.992l141.122-188.464-10.064-67.156z" fill="#656D78" /><path d="M512 1023.992l-198.498-386.554-57.624 140.246 65.156 50.03-11.656 48.032zM512 1023.992l198.528-386.554 57.156 140.246-65.126 50.03 11.626 48.032z" fill="#A0D468" /></svg>