<?xml version="1.0" standalone="no"?><!DOCTYPE svg PUBLIC "-//W3C//DTD SVG 1.1//EN" "http://www.w3.org/Graphics/SVG/1.1/DTD/svg11.dtd"><svg class="icon" width="128px" height="128.00px" viewBox="0 0 1024 1024" version="1.1" xmlns="http://www.w3.org/2000/svg"><path d="M561.96 1023.98c-42.888 0-80.856-7.344-113.324-21.938-76.654-34.466-95.56-97.122-96.31-99.808l41-11.844-0.062-0.156c0.594 1.938 15.186 47.498 74.152 73.436 107.544 47.31 270.098-9.376 387.534-65.28 10.652-5.062 23.372-0.532 28.434 10.094 5.094 10.654 0.562 23.374-10.094 28.436-99.9 47.56-188.928 75.936-264.582 84.374-16.156 1.812-31.748 2.686-46.748 2.686z" fill="#434A54" /><path d="M372.828 234.76c-11.78 0-21.342-9.546-21.342-21.342v-106.7c0-11.782 9.562-21.344 21.342-21.344 11.782 0 21.344 9.562 21.344 21.344v106.698c-0.002 11.798-9.564 21.344-21.344 21.344z" fill="#F6BB42" /><path d="M415.514 192.09h-85.372c-11.78 0-21.342 9.546-21.342 21.328v277.426c0 11.796 9.562 21.344 21.342 21.344h85.372c11.782 0 21.342-9.546 21.342-21.344V213.416c0-11.78-9.562-21.326-21.342-21.326z" fill="#FFCE54" /><path d="M388.42 411.738c8.312 8.328 8.312 21.844 0 30.188-8.344 8.328-21.844 8.328-30.186 0-8.344-8.344-8.344-21.86 0-30.188s21.844-8.328 30.186 0z" fill="#F6BB42" /><path d="M437.294 896.296c0 11.812-9.532 21.376-21.312 21.376h-85.372c-11.78 0-21.342-9.562-21.342-21.376v-149.37c0-11.782 9.562-21.312 21.342-21.312h85.372a21.3 21.3 0 0 1 21.312 21.312v149.37z" fill="#656D78" /><path d="M309.268 853.674v42.624c11.562-0.25 20.874-9.688 20.874-21.312s-9.312-21.062-20.874-21.312zM415.514 874.984c0 11.782 9.562 21.312 21.342 21.312h0.438v-42.624c-0.156 0-0.282-0.032-0.438-0.032-11.78 0.002-21.342 9.532-21.342 21.344z" fill="#434A54" /><path d="M436.856 469.516h-128.058c-11.782 0-21.342 9.546-21.342 21.328v320.114c0 11.782 9.562 21.344 21.342 21.344h128.058c11.782 0 21.342-9.562 21.342-21.344V490.844c0.002-11.782-9.56-21.328-21.342-21.328z" fill="#5D9CEC" /><path d="M479.542 512.188H266.112c-11.78 0-21.342-9.546-21.342-21.344 0-11.782 9.562-21.328 21.342-21.328h213.43c11.782 0 21.312 9.546 21.312 21.328 0 11.796-9.53 21.344-21.312 21.344z" fill="#4A89DC" /><path d="M522.666 234.76c0 11.796-9.562 21.342-21.344 21.342-11.78 0-21.342-9.546-21.342-21.342 0-11.78 9.562-21.342 21.342-21.342 11.782-0.002 21.344 9.562 21.344 21.342z" fill="#AC92EB" /><path d="M266.582 234.76c0 11.796-9.562 21.342-21.342 21.342s-21.342-9.546-21.342-21.342c0-11.78 9.56-21.342 21.342-21.342s21.342 9.562 21.342 21.342z" fill="#A0D468" /><path d="M394.17 21.362c0 11.782-9.562 21.344-21.344 21.344-11.78 0-21.342-9.562-21.342-21.344S361.046 0.02 372.828 0.02c11.78 0 21.342 9.56 21.342 21.342z" fill="#FC6E51" /><path d="M586.242 42.47h-21.344V21.362c0-11.782-9.56-21.342-21.358-21.342-11.782 0-21.344 9.56-21.344 21.342v21.11h-21.344c-11.78 0-21.312 9.562-21.312 21.342 0 11.796 9.532 21.342 21.312 21.342h21.344V106.5c0 11.782 9.562 21.342 21.344 21.342 11.796 0 21.358-9.56 21.358-21.342V85.156h21.344c11.78 0 21.342-9.546 21.342-21.342 0-11.78-9.562-21.344-21.342-21.344z" fill="#ED5564" /><path d="M245.238 85.266h-21.342V64.158c0-11.796-9.562-21.342-21.344-21.342-11.78 0-21.342 9.546-21.342 21.342v21.108H159.868c-11.782 0-21.344 9.562-21.344 21.344s9.562 21.342 21.344 21.342h21.342v21.342c0 11.782 9.562 21.344 21.342 21.344 11.782 0 21.344-9.562 21.344-21.344V127.952h21.342c11.782 0 21.342-9.56 21.342-21.342s-9.56-21.344-21.342-21.344z" fill="#FFCE54" /></svg>