<?xml version="1.0" standalone="no"?><!DOCTYPE svg PUBLIC "-//W3C//DTD SVG 1.1//EN" "http://www.w3.org/Graphics/SVG/1.1/DTD/svg11.dtd"><svg class="icon" width="128px" height="128.00px" viewBox="0 0 1024 1024" version="1.1" xmlns="http://www.w3.org/2000/svg"><path d="M895.994 298.692h-42.686c-35.25 0-64 28.718-64 63.998v341.306c0 35.312 28.75 64 64 64h42.686c35.28 0 63.998-28.688 63.998-64V362.69c0-35.28-28.718-63.998-63.998-63.998z" fill="#656D78" /><path d="M927.992 160.006c-17.686 0-31.998 14.344-31.998 32v170.684h63.998V192.006c0-17.656-14.312-32-32-32z" fill="#ED5564" /><path d="M959.992 483.564v-120.874c0-35.28-28.718-63.998-63.998-63.998h-42.686c-35.25 0-64 28.718-64 63.998v7.094l170.684 113.78z" fill="#434A54" /><path d="M170.678 298.692H128.008c-35.282 0-64 28.718-64 63.998v341.306c0 35.312 28.718 64 64 64h42.67c35.282 0 64-28.688 64-64V362.69c0-35.28-28.72-63.998-64-63.998z" fill="#656D78" /><path d="M234.678 369.784v-7.094c0-35.28-28.718-63.998-64-63.998H128.008c-35.282 0-64 28.718-64 63.998v120.874l170.67-113.78z" fill="#FFCE54" /><path d="M405.362 128.07c-1.688 0-3.406-0.188-5.124-0.624-11.438-2.812-18.422-14.406-15.624-25.842 0.64-2.624 6.796-26.25 24.828-50.342C434.502 17.728 469.97 0.008 512 0.008c42.032 0 77.5 17.718 102.562 51.25 18.032 24.094 24.186 47.718 24.81 50.342 2.812 11.436-4.186 23-15.624 25.812s-23-4.188-25.812-15.624c-0.688-2.75-18.438-69.092-85.938-69.092-67.482 0-85.248 66.342-85.966 69.186-2.39 9.718-11.092 16.188-20.67 16.188z" fill="#434A54" /><path d="M810.684 192.006H213.334c-11.782 0-21.328 9.562-21.328 21.344v668.458c0 11.782 9.546 21.308 21.328 21.308h597.35c11.75 0 21.312-9.528 21.312-21.308V213.35c0-11.782-9.562-21.344-21.312-21.344z" fill="#8CC153" /><path d="M767.996 85.352H256.004c-35.28 0-63.998 28.718-63.998 64v341.338c0 35.28 28.718 64 63.998 64h511.992c35.282 0 64-28.718 64-64V149.35c0-35.28-28.718-63.998-64-63.998z" fill="#A0D468" /><path d="M277.332 85.352v596.55c0 8 4.454 15.282 11.532 18.968l42.672 22.094a21.224 21.224 0 0 0 9.796 2.376c3.376 0 6.734-0.782 9.812-2.376l42.67-22.094a21.358 21.358 0 0 0 11.516-18.968V85.352h-127.998z" fill="#FFCE54" /><path d="M277.332 554.688h127.998v64h-127.998z" fill="#434A54" /><path d="M789.308 767.996H234.678c-35.296 0-64 28.718-64 64v127.996c0 35.312 28.704 64 64 64h554.63c35.312 0 64-28.688 64-64v-127.996c0-35.282-28.686-64-64-64z" fill="#A0D468" /><path d="M725.308 981.336c-11.75 0-21.312 9.562-21.312 21.344v21.312h42.688V1002.68c0-11.782-9.562-21.344-21.376-21.344zM639.998 981.336c-11.78 0-21.31 9.562-21.31 21.344v21.312h42.624V1002.68c-0.002-11.782-9.532-21.344-21.314-21.344zM554.688 981.336c-11.796 0-21.36 9.562-21.36 21.344v21.312H576V1002.68c0-11.782-9.562-21.344-21.312-21.344zM469.33 981.336c-11.782 0-21.328 9.562-21.328 21.344v21.312h42.67V1002.68c0-11.782-9.562-21.344-21.342-21.344zM384.002 981.336c-11.782 0-21.328 9.562-21.328 21.344v21.312h42.656V1002.68c0-11.782-9.546-21.344-21.328-21.344zM298.676 981.336c-11.782 0-21.344 9.562-21.344 21.344v21.312h42.672V1002.68c0-11.782-9.546-21.344-21.328-21.344z" fill="#8CC153" /><path d="M618.688 85.352v596.55c0 8 4.438 15.282 11.5 18.968l42.686 22.094a21.24 21.24 0 0 0 9.812 2.376 21.2 21.2 0 0 0 9.78-2.376l42.656-22.094a21.37 21.37 0 0 0 11.562-18.968V85.352h-127.996z" fill="#FFCE54" /><path d="M618.688 554.688h127.996v64h-127.996zM703.996 831.996c0 11.812 9.562 21.344 21.312 21.344 11.812 0 21.376-9.532 21.376-21.344v-64h-42.688v64z" fill="#434A54" /></svg>