<?xml version="1.0" standalone="no"?><!DOCTYPE svg PUBLIC "-//W3C//DTD SVG 1.1//EN" "http://www.w3.org/Graphics/SVG/1.1/DTD/svg11.dtd"><svg class="icon" width="128px" height="128.00px" viewBox="0 0 1024 1024" version="1.1" xmlns="http://www.w3.org/2000/svg"><path d="M745.718 47.206C485.882-86.572 86.658 73.424 164.358 408.258l-38.952 47.124-68.794 125.968 66.936 53.216-2.782 89.466 26.75 38.342s-31.858 119.686 16.842 136.654c90.826 31.686 197.776 16.092 197.776 16.092l5.328 108.876h451.85s-44.718-225.684 23.186-321.524c67.904-95.874 289.4-456.46-96.78-655.266z" fill="#EAC6BB" /><path d="M319.48 915.122s-16.686 2.438-42.452 3.438c15.75 0.594 30.234 0.468 42.624 0l-0.172-3.438zM745.718 47.206C677.158 11.926 598.94-2.918 522.302 0.488c62.608 2.812 124.888 17.968 180.73 46.718 386.208 198.808 164.714 559.392 96.81 655.268-67.906 95.84-23.188 321.524-23.188 321.524h42.656s-44.718-225.684 23.186-321.524c67.906-95.876 289.402-456.462-96.778-655.268z" fill="#FFFFFF" opacity=".2" /><path d="M589.942 728.002v-2.688H121.672l25.844 37.06s-0.546 2.032-1.376 5.624h401.146v255.996h42.654V728.002z" fill="#DBADA2" /><path d="M678.596 732.94l29.438-12.22-43.062-28.81 22.53-22.562-50.842-10.156 12.218-29.47-50.874 10.064v-31.876l-43.126 28.782-12.2-29.47-28.844 43.094-22.546-22.562-10.172 50.844-29.436-12.188 10.062 50.842h-31.874l28.75 43.124-29.452 12.218 43.076 28.844-22.546 22.53 50.842 10.156-12.204 29.47 50.86-10.062v31.872l43.122-28.748 12.22 29.436 28.842-43.06 22.532 22.53 10.156-50.844 29.468 12.188-10.064-50.844h31.876z" fill="#ED5564" /><path d="M568.6 746.658m-63.998 0a63.998 63.998 0 1 0 127.996 0 63.998 63.998 0 1 0-127.996 0Z" fill="#DA4453" /></svg>