<?xml version="1.0" standalone="no"?><!DOCTYPE svg PUBLIC "-//W3C//DTD SVG 1.1//EN" "http://www.w3.org/Graphics/SVG/1.1/DTD/svg11.dtd"><svg class="icon" width="128px" height="128.00px" viewBox="0 0 1024 1024" version="1.1" xmlns="http://www.w3.org/2000/svg"><path d="M21.356 21.356h981.32v981.32H21.356z" fill="#AC92EB" /><path d="M1002.676 0.012H21.356C9.576 0.012 0.014 9.574 0.014 21.356v981.32c0 11.782 9.562 21.312 21.342 21.312h981.32a21.3 21.3 0 0 0 21.312-21.312V21.356c0-11.782-9.53-21.344-21.312-21.344z m-21.344 981.32H42.7V42.7h938.632v938.632z" fill="#434A54" /><path d="M0.012 661.34v341.336c0 11.782 9.562 21.312 21.342 21.312h981.32a21.3 21.3 0 0 0 21.312-21.312V661.34H0.012z" fill="#434A54" /><path d="M938.676 362.692H85.354c-11.782 0-21.344-9.562-21.344-21.344s9.562-21.344 21.344-21.344h853.322c11.782 0 21.312 9.562 21.312 21.344s-9.53 21.344-21.312 21.344z" fill="#CCD1D9" /><path d="M128.01 405.346c-11.75 0-21.312-9.532-21.312-21.344v-85.308c0-11.782 9.562-21.344 21.312-21.344 11.812 0 21.342 9.562 21.342 21.344v85.308a21.312 21.312 0 0 1-21.342 21.344zM256.006 448.002c-11.75 0-21.312-9.532-21.312-21.312v-170.684c0-11.782 9.562-21.312 21.312-21.312 11.812 0 21.342 9.532 21.342 21.312v170.684c0.002 11.78-9.53 21.312-21.342 21.312zM320.004 405.346c-11.75 0-21.312-9.532-21.312-21.344v-85.308c0-11.782 9.562-21.344 21.312-21.344 11.812 0 21.342 9.562 21.342 21.344v85.308a21.31 21.31 0 0 1-21.342 21.344zM384.002 490.688c-11.75 0-21.312-9.562-21.312-21.344V213.352c0-11.782 9.562-21.344 21.312-21.344 11.812 0 21.344 9.562 21.344 21.344v255.992c0 11.78-9.53 21.344-21.344 21.344zM448.002 448.002c-11.75 0-21.312-9.532-21.312-21.312v-170.684c0-11.782 9.562-21.312 21.312-21.312 11.812 0 21.342 9.532 21.342 21.312v170.684c0 11.78-9.53 21.312-21.342 21.312zM639.996 405.346c-11.75 0-21.312-9.532-21.312-21.344v-85.308c0-11.782 9.562-21.344 21.312-21.344 11.812 0 21.344 9.562 21.344 21.344v85.308a21.314 21.314 0 0 1-21.344 21.344zM703.996 448.002c-11.75 0-21.312-9.532-21.312-21.312v-170.684c0-11.782 9.562-21.312 21.312-21.312 11.812 0 21.344 9.532 21.344 21.312v170.684c0 11.78-9.532 21.312-21.344 21.312zM192.008 575.998c-11.75 0-21.312-9.532-21.312-21.31V128.01c0-11.782 9.562-21.312 21.312-21.312 11.812 0 21.344 9.532 21.344 21.312v426.678c0 11.778-9.532 21.31-21.344 21.31zM512 575.998c-11.75 0-21.312-9.532-21.312-21.31V128.01c0-11.782 9.562-21.312 21.312-21.312 11.812 0 21.344 9.532 21.344 21.312v426.678c0 11.778-9.532 21.31-21.344 21.31zM575.996 533.344c-11.746 0-21.308-9.532-21.308-21.344V170.696c0-11.782 9.562-21.344 21.308-21.344 11.812 0 21.344 9.562 21.344 21.344V512a21.314 21.314 0 0 1-21.344 21.344zM767.992 533.344c-11.75 0-21.312-9.532-21.312-21.344V170.696c0-11.782 9.562-21.344 21.312-21.344 11.812 0 21.344 9.562 21.344 21.344V512a21.314 21.314 0 0 1-21.344 21.344zM831.992 385.346c-11.75 0-21.312-9.53-21.312-21.342v-42.656c0-11.782 9.562-21.342 21.312-21.342 11.812 0 21.344 9.56 21.344 21.342v42.656a21.312 21.312 0 0 1-21.344 21.342zM895.988 405.346c-11.746 0-21.308-9.532-21.308-21.344v-85.308c0-11.782 9.562-21.344 21.308-21.344 11.812 0 21.344 9.562 21.344 21.344v85.308a21.314 21.314 0 0 1-21.344 21.344z" fill="#E6E9ED" /><path d="M384.002 938.676c-11.75 0-21.312-9.562-21.312-21.342v-170.652c0-11.782 9.562-21.344 21.312-21.344 11.812 0 21.344 9.562 21.344 21.344v170.652c0 11.78-9.53 21.342-21.344 21.342z" opacity=".2" /><path d="M405.346 853.336h-42.656c-11.782 0-21.344-9.532-21.344-21.344 0-11.75 9.562-21.312 21.344-21.312h42.656c11.78 0 21.342 9.562 21.342 21.312 0.002 11.812-9.562 21.344-21.342 21.344z" fill="#AAB2BC" /><path d="M512 938.676c-11.75 0-21.312-9.562-21.312-21.342v-170.652c0-11.782 9.562-21.344 21.312-21.344 11.812 0 21.344 9.562 21.344 21.344v170.652c0 11.78-9.532 21.342-21.344 21.342z" opacity=".2" /><path d="M533.344 853.336h-42.656c-11.782 0-21.344-9.532-21.344-21.344 0-11.75 9.562-21.312 21.344-21.312h42.656c11.782 0 21.344 9.562 21.344 21.312 0 11.812-9.564 21.344-21.344 21.344z" fill="#AAB2BC" /><path d="M639.996 938.676c-11.75 0-21.312-9.562-21.312-21.342v-170.652c0-11.782 9.562-21.344 21.312-21.344 11.812 0 21.344 9.562 21.344 21.344v170.652c0 11.78-9.532 21.342-21.344 21.342z" opacity=".2" /><path d="M661.34 853.336h-42.656c-11.782 0-21.344-9.532-21.344-21.344 0-11.75 9.562-21.312 21.344-21.312h42.656c11.782 0 21.344 9.562 21.344 21.312 0 11.812-9.562 21.344-21.344 21.344z" fill="#AAB2BC" /><path d="M237.288 877.274c-25 24.966-65.53 24.966-90.53 0-24.968-25-24.968-65.532 0-90.532 25-24.966 65.53-24.966 90.53 0 24.968 25 24.968 65.532 0 90.532z" fill="#CCD1D9" /><path d="M252.35 771.68c-16.094-16.124-37.53-24.998-60.342-24.998-22.78 0-44.218 8.876-60.31 24.998-16.124 16.094-25 37.532-25 60.312 0 22.812 8.876 44.25 25 60.342 16.092 16.124 37.53 25 60.31 25 22.812 0 44.25-8.876 60.342-25 33.28-33.248 33.28-87.404 0-120.654z m-30.156 90.5a42.404 42.404 0 0 1-30.186 12.5c-11.376 0-22.092-4.438-30.156-12.5s-12.5-18.782-12.5-30.188c0-11.376 4.438-22.094 12.5-30.156s18.78-12.5 30.156-12.5a42.404 42.404 0 0 1 30.186 12.5c16.626 16.624 16.626 43.718 0 60.344z" fill="#AAB2BC" /><path d="M222.194 823.18a21.346 21.346 0 0 1-15.092-6.25c-8.312-8.344-8.312-21.844 0-30.188l15.092-15.062c8.312-8.344 21.844-8.344 30.156 0 8.342 8.312 8.342 21.812 0 30.156l-15.062 15.094a21.35 21.35 0 0 1-15.094 6.25z" fill="#AAB2BC" /><path d="M786.742 786.742c25-24.966 65.532-24.966 90.532 0 24.964 25 24.964 65.532 0 90.532-25 24.966-65.532 24.966-90.532 0-24.968-25-24.968-65.532 0-90.532z" fill="#CCD1D9" /><path d="M892.332 771.68c-16.09-16.124-37.528-24.998-60.34-24.998-22.782 0-44.218 8.876-60.312 24.998-16.124 16.094-25 37.532-25 60.312 0 22.812 8.876 44.25 25 60.342 16.094 16.124 37.532 25 60.312 25 22.812 0 44.25-8.876 60.34-25 33.282-33.248 33.282-87.404 0-120.654z m-30.152 90.5a42.408 42.408 0 0 1-30.188 12.5c-11.376 0-22.094-4.438-30.156-12.5s-12.5-18.782-12.5-30.188c0-11.376 4.438-22.094 12.5-30.156s18.782-12.5 30.156-12.5a42.412 42.412 0 0 1 30.188 12.5c16.624 16.624 16.624 43.718 0 60.344z" fill="#AAB2BC" /><path d="M786.742 898.584a21.144 21.144 0 0 1-15.062-6.25c-8.344-8.312-8.344-21.81 0-30.154l15.062-15.094c8.344-8.312 21.844-8.312 30.188 0 8.312 8.344 8.312 21.844 0 30.188l-15.094 15.06c-4.156 4.188-9.626 6.25-15.094 6.25z" fill="#AAB2BC" /></svg>