<?xml version="1.0" standalone="no"?><!DOCTYPE svg PUBLIC "-//W3C//DTD SVG 1.1//EN" "http://www.w3.org/Graphics/SVG/1.1/DTD/svg11.dtd"><svg class="icon" width="128px" height="128.00px" viewBox="0 0 1024 1024" version="1.1" xmlns="http://www.w3.org/2000/svg"><path d="M1010.888 12.704c-28.562-28.546-120.592 0-120.592 0l-135.622 165.792-120.56 120.544 90.406 90.466 119.622-119.654 166.746-136.576c0 0.002 28.532-92.042 0-120.572z m-89.904 90.95c-8.344-8.312-8.344-21.828 0-30.124 8.342-8.342 21.81-8.342 30.124 0 8.344 8.296 8.344 21.812 0 30.124-8.314 8.328-21.782 8.328-30.124 0z" fill="#5D9CEC" /><path d="M355.232 743.686l-75.372-75.342 376.848-376.82 75.342 75.374z" fill="#CCD1D9" /><path d="M62.334 659.906s-139.59 161.84 0.468 301.9c140.028 140.028 300.586-0.218 300.586-0.218L62.334 659.906z" fill="#434A54" /><path d="M357.358 775.81l44.03-78.282-75.374-75.372-78.28 44.06c-69.686-42.592-143.214-48.624-182.714-9.124-51.468 51.466-25.686 160.652 57.53 243.9 83.248 83.248 192.434 109.028 243.9 57.532 39.5-39.498 33.5-113.03-9.092-182.714z" fill="#656D78" /><path d="M845.08 268.916c-8.312-8.328-21.782-8.328-30.124 0-8.344 8.312-8.344 21.828 0 30.124l29.188-29.186 1.062-0.844c-0.064-0.032-0.064-0.062-0.126-0.094zM754.676 208.622c8.312-8.328 8.312-21.828 0-30.124l-30.154 30.124c8.342 8.342 21.842 8.342 30.154 0z" fill="#4A89DC" /><path d="M152.738 870.9c-65.562-65.56-91.686-145.684-58.406-178.994 33.28-33.282 113.404-7.124 178.964 58.404 65.592 65.56 91.716 145.684 58.404 178.996-33.28 33.282-113.402 7.156-178.962-58.406z" fill="#434A54" /><path d="M754.676 359.336l-90.436-90.42c-8.312-8.328-21.812-8.328-30.124 0-8.344 8.312-8.344 21.828 0 30.124l90.406 90.466c8.342 8.296 21.842 8.296 30.154 0 8.312-8.342 8.312-21.826 0-30.17z" fill="#4A89DC" /></svg>