<?xml version="1.0" standalone="no"?><!DOCTYPE svg PUBLIC "-//W3C//DTD SVG 1.1//EN" "http://www.w3.org/Graphics/SVG/1.1/DTD/svg11.dtd"><svg class="icon" width="128px" height="128.00px" viewBox="0 0 1024 1024" version="1.1" xmlns="http://www.w3.org/2000/svg"><path d="M959.988 425.87h-42.654V811.5c0 5.438 2.062 10.938 6.25 15.062 8.31 8.376 21.842 8.376 30.154 0 4.188-4.124 6.25-9.624 6.25-15.062V425.87z" fill="#CCD1D9" /><path d="M1023.988 344.778c0 70.716-38.218 102.404-85.344 102.404-47.124 0-85.34-31.688-85.34-102.404 0-70.686 38.216-153.59 85.34-153.59 47.126 0 85.344 82.904 85.344 153.59zM810.648 512.024c0 223.854-181.464 405.288-405.302 405.288C181.476 917.312 0.012 735.878 0.012 512.024c0-223.87 181.464-405.334 405.334-405.334 223.838 0 405.302 181.464 405.302 405.334z" fill="#E6E9ED" /><path d="M405.346 917.31c7.124 0 14.25-0.188 21.282-0.5-0.282-11.562-9.688-20.812-21.282-20.812s-21.032 9.25-21.312 20.812c7.062 0.314 14.156 0.5 21.312 0.5zM405.346 106.69c-7.156 0-14.25 0.188-21.312 0.562 0.282 11.532 9.718 20.782 21.312 20.782s21-9.25 21.282-20.782a399.436 399.436 0 0 0-21.282-0.562zM560.438 886.498a389.82 389.82 0 0 0 19.466-8.688c-4.656-10.5-16.904-15.5-27.624-11.062s-15.876 16.624-11.718 27.376c6.656-2.376 13.282-4.876 19.876-7.626zM250.224 137.532a402.552 402.552 0 0 0-19.468 8.688c4.688 10.53 16.938 15.468 27.624 11.03 10.718-4.438 15.876-16.592 11.75-27.342a441.092 441.092 0 0 0-19.906 7.624zM691.934 798.626a425.668 425.668 0 0 0 14.688-15.438c-8.376-7.938-21.562-7.876-29.75 0.376-8.218 8.188-8.312 21.374-0.376 29.748a400.688 400.688 0 0 0 15.438-14.686zM118.728 225.406a399.396 399.396 0 0 0-14.656 15.468c8.344 7.938 21.53 7.812 29.748-0.376 8.188-8.218 8.312-21.406 0.376-29.75a399.454 399.454 0 0 0-15.468 14.658zM779.804 667.128a430.17 430.17 0 0 0 7.656-19.876c-10.782-4.188-22.936 1-27.374 11.688-4.438 10.75 0.532 23 11.06 27.688 3.034-6.436 5.94-12.874 8.658-19.5zM30.856 356.902a405.792 405.792 0 0 0-7.624 19.906c10.75 4.124 22.904-1.032 27.342-11.75 4.438-10.688-0.5-22.938-11.03-27.624a402.552 402.552 0 0 0-8.688 19.468zM810.648 512.024c0-7.156-0.188-14.25-0.532-21.312-11.532 0.312-20.782 9.718-20.782 21.312s9.25 20.998 20.782 21.31c0.344-7.06 0.532-14.186 0.532-21.31zM0.012 512.024c0 7.156 0.188 14.25 0.562 21.31 11.5-0.312 20.782-9.716 20.782-21.31s-9.25-21-20.782-21.312a402.636 402.636 0 0 0-0.562 21.312zM779.804 356.902a402.168 402.168 0 0 0-8.656-19.468c-10.53 4.688-15.498 16.938-11.06 27.624 4.438 10.718 16.592 15.874 27.374 11.75a408.422 408.422 0 0 0-7.658-19.906zM30.856 667.128a419.11 419.11 0 0 0 8.688 19.5c10.53-4.688 15.466-16.938 11.03-27.688-4.438-10.688-16.592-15.812-27.342-11.688a427.212 427.212 0 0 0 7.624 19.876zM691.934 225.406a378.082 378.082 0 0 0-15.438-14.656c-7.938 8.344-7.844 21.562 0.376 29.75 8.188 8.188 21.376 8.312 29.75 0.376a399.012 399.012 0 0 0-14.688-15.47zM118.728 798.626a424.69 424.69 0 0 0 15.466 14.686c7.938-8.376 7.812-21.56-0.376-29.748-8.218-8.25-21.404-8.312-29.748-0.376a400.35 400.35 0 0 0 14.658 15.438zM560.438 137.532a439.06 439.06 0 0 0-19.876-7.624c-4.156 10.75 1 22.906 11.718 27.342s22.966-0.5 27.654-11.03a438.558 438.558 0 0 0-19.496-8.688zM250.224 886.498c6.594 2.75 13.25 5.25 19.906 7.624 4.124-10.75-1.032-22.938-11.75-27.312-10.688-4.5-22.938 0.5-27.624 11a402.552 402.552 0 0 0 19.468 8.688z" fill="#CCD1D9" /><path d="M682.652 512.024c0 153.168-124.152 277.354-277.306 277.354-153.184 0-277.338-124.186-277.338-277.354 0-153.184 124.154-277.338 277.338-277.338 153.154 0 277.306 124.154 277.306 277.338z" fill="#ED5564" /><path d="M405.346 234.686c-7.188 0-14.312 0.282-21.344 0.812 143.186 10.906 255.994 130.53 255.994 276.526 0 145.98-112.808 265.604-255.994 276.542 7.032 0.5 14.156 0.812 21.344 0.812 153.154 0 277.306-124.186 277.306-277.354 0-153.184-124.152-277.338-277.306-277.338z" fill="#FFFFFF" opacity=".2" /><path d="M490.656 618.694c0 35.31-28.656 63.998-63.998 63.998-35.344 0-63.998-28.688-63.998-63.998 0-35.376 28.654-64 63.998-64 35.342 0 63.998 28.624 63.998 64z" fill="#FFCE54" /><path d="M341.348 448.026m-63.998 0a63.998 63.998 0 1 0 127.996 0 63.998 63.998 0 1 0-127.996 0Z" fill="#FFCE54" /><path d="M341.348 384.026c-3.656 0-7.218 0.312-10.688 0.906 30.282 5.062 53.342 31.374 53.342 63.092 0 31.716-23.06 57.998-53.342 63.092 3.468 0.594 7.032 0.906 10.688 0.906 35.342 0 63.998-28.656 63.998-63.998s-28.656-63.998-63.998-63.998zM426.658 554.694c-3.624 0-7.188 0.312-10.656 0.876 30.28 5.124 53.342 31.376 53.342 63.124 0 31.686-23.062 57.998-53.342 63.06a60.16 60.16 0 0 0 10.656 0.938c35.342 0 63.998-28.688 63.998-63.998 0-35.376-28.656-64-63.998-64z" fill="#FFFFFF" opacity=".2" /><path d="M575.998 448.026c0 11.78-9.562 21.312-21.342 21.312a21.3 21.3 0 0 1-21.312-21.312c0-11.782 9.532-21.344 21.312-21.344 11.78 0 21.342 9.562 21.342 21.344z" fill="#A0D468" /><path d="M469.344 362.684c0 11.78-9.562 21.342-21.344 21.342-11.78 0-21.342-9.562-21.342-21.342 0-11.782 9.562-21.344 21.342-21.344 11.782 0 21.344 9.562 21.344 21.344zM575.998 576.006c0 11.812-9.562 21.312-21.342 21.312a21.278 21.278 0 0 1-21.312-21.312c0-11.75 9.532-21.312 21.312-21.312 11.78 0 21.342 9.562 21.342 21.312z" fill="#FC6E51" /><path d="M490.656 490.68c0 11.782-9.532 21.344-21.312 21.344S448 502.46 448 490.68s9.562-21.342 21.344-21.342 21.312 9.56 21.312 21.342zM277.35 554.694c0 11.75-9.562 21.312-21.344 21.312s-21.344-9.562-21.344-21.312c0-11.796 9.562-21.36 21.344-21.36s21.344 9.562 21.344 21.36z" fill="#A0D468" /><path d="M320.004 661.316c0 11.812-9.562 21.376-21.344 21.376s-21.31-9.562-21.31-21.376c0-11.75 9.53-21.312 21.31-21.312s21.344 9.562 21.344 21.312z" fill="#FC6E51" /></svg>