<?xml version="1.0" standalone="no"?><!DOCTYPE svg PUBLIC "-//W3C//DTD SVG 1.1//EN" "http://www.w3.org/Graphics/SVG/1.1/DTD/svg11.dtd"><svg class="icon" width="128px" height="128.00px" viewBox="0 0 1024 1024" version="1.1" xmlns="http://www.w3.org/2000/svg"><path d="M833.254 811.838l-2.624-0.812c-44.656-12.094-77.376-23.624-97.094-31.248-69.842-26.844-88.03-46.218-92.654-55.376-0.188-0.344-0.312-0.688-0.438-1.032l-0.656-85.406-255.606 3.438-0.562 81.968c-0.156 0.344-0.282 0.688-0.454 1.032-4.64 9.156-22.812 28.532-92.654 55.438-19.688 7.562-52.468 19.092-96.702 31.092l-3.032 0.906c-40.25 13.438-67.344 51.186-67.344 93.748v118.406h777.128v-118.406c0.002-42.562-26.998-80.31-67.308-93.748z" fill="#DBADA2" /><path d="M737.816 550.842l-34.062-25.654c45.812-60.844-95.808-300.778-96.496-301.246l99.996-41.656c3.312 2.406 82.876 84.686 97.562 184.278 10.062 68.342-14.062 113.968-67 184.278z" fill="#CCD1D9" /><path d="M744.316 481.968c0 150.934-143.902 296.058-232.308 296.058-88.404 0-232.292-145.124-232.292-296.058 0-150.936 103.998-250.496 232.292-250.496 128.31 0 232.308 99.562 232.308 250.496z" fill="#EAC6BB" /><path d="M743.878 94.88c-34.438-43.686-78.06-75.874-119.78-88.31-14.592-4.344-31.28-6.562-49.53-6.562-66.25 0-149.966 29.376-218.482 76.654-79.998 55.188-130.374 127.03-141.874 202.31-16.248 106.466 7.39 177.496 30.062 218.34 25.406 45.718 51.954 75.81 51.954 75.81s27.014-90.874 74.388-153.59c25.876-34.25 64.282-63.25 114.154-86.124 63.296-29.062 145.17-48.312 243.292-57.216 37.376-3.406 60.812-24.876 64.188-58.906 3.378-33.844-14.684-79.624-48.372-122.406z" fill="#E6E9ED" /><path d="M833.254 811.838l-2.624-0.812a1139.7 1139.7 0 0 1-18.282-5.094l-182.998 169.28-114.888-58.688 2.516-6.594c-54.812-20.812-98.576-58.968-130.092-113.436a312.616 312.616 0 0 1-24.032-52.124c-13.734 9.562-36.078 21.5-72.342 35.468-19.688 7.562-52.468 19.092-96.702 31.092l-3.032 0.906c-40.25 13.438-67.344 51.186-67.344 93.748v118.406h777.128v-118.406c0.002-42.56-26.998-80.308-67.308-93.746z" fill="#D770AD" /><path d="M833.254 811.838l-2.624-0.812c-44.656-12.094-77.376-23.624-97.094-31.248-33.218-12.75-54.718-23.844-68.654-32.938-19.876 27.688-51.998 69.124-94.248 111.996-43.124 43.782-88.016 80.312-133.452 108.532-41.86 26.032-84.25 44.968-126.482 56.624h589.866v-118.406c-0.002-42.562-27.002-80.31-67.312-93.748z" fill="#EC87C0" /></svg>