<?xml version="1.0" standalone="no"?><!DOCTYPE svg PUBLIC "-//W3C//DTD SVG 1.1//EN" "http://www.w3.org/Graphics/SVG/1.1/DTD/svg11.dtd"><svg class="icon" width="128px" height="128.00px" viewBox="0 0 1024 1024" version="1.1" xmlns="http://www.w3.org/2000/svg"><path d="M1002.656 490.688C1002.656 219.688 783.032 0 512.032 0S21.344 219.688 21.344 490.688c0 177.156 93.938 332.376 234.688 418.624V1024h512v-114.688c140.75-86.25 234.624-241.468 234.624-418.624z" fill="#E6E9ED" /><path d="M256.032 909.312h512V1024h-512z" fill="#CCD1D9" /><path d="M843.156 128.594L495.282 476.438l15.062 15.062-15.062 15.062 347 347c98.532-89.75 160.376-219.094 160.376-362.876-0.002-143.404-61.47-272.404-159.502-362.092z" fill="#F6BB42" /><path d="M426.688 960c-11.782 0-21.344 9.562-21.344 21.312V1024h42.688v-42.688c0-11.75-9.564-21.312-21.344-21.312zM597.344 960c-11.782 0-21.312 9.562-21.312 21.312V1024h42.656v-42.688c0-11.75-9.532-21.312-21.344-21.312z" fill="#AAB2BD" /><path d="M482.812 469.344H21.782a535.222 535.222 0 0 0-0.438 21.344c0 7.124 0.188 14.25 0.5 21.312h460.968v-42.656zM213.344 682.688h-153c6.25 14.562 13.124 28.812 20.688 42.624h132.312A21.28 21.28 0 0 0 234.656 704a21.26 21.26 0 0 0-21.312-21.312z" fill="#CCD1D9" /><path d="M917.968 490.5c0-64.312-15-125.124-41.688-179.156-3.312-7.438-10.75-12.688-19.5-12.688-11.782 0-21.312 9.562-21.312 21.344 0 3.532 0.876 6.906 2.406 9.844 0.032 0.062 6.156 12.938 8.906 19.532 18.938 44.656 28.5 92.124 28.5 141.124v0.344c0 48.968-9.562 96.438-28.5 141.124-2.75 6.594-8.876 19.468-8.906 19.5a21.312 21.312 0 0 0-2.406 9.844c0 11.812 9.532 21.376 21.312 21.376 8.75 0 16.188-5.25 19.5-12.75 26.688-53.968 41.688-114.812 41.688-179.094v-0.188-0.156z" fill="#FFCE54" /><path d="M557.282 536.782c-25 25-65.562 25-90.5 0-25-25-25-65.532 0-90.5 24.938-25 65.5-25 90.5 0 25 24.968 25 65.5 0 90.5z" fill="#434A54" /></svg>