<?xml version="1.0" standalone="no"?><!DOCTYPE svg PUBLIC "-//W3C//DTD SVG 1.1//EN" "http://www.w3.org/Graphics/SVG/1.1/DTD/svg11.dtd"><svg class="icon" width="128px" height="128.00px" viewBox="0 0 1024 1024" version="1.1" xmlns="http://www.w3.org/2000/svg"><path d="M320.004 779.064c-79.78 0-154.778-31.062-211.182-87.436-56.406-56.438-87.498-131.436-87.498-211.2 0-79.78 31.092-154.778 87.498-211.182C165.226 212.84 240.224 181.78 320.004 181.78s154.778 31.062 211.184 87.466c56.404 56.404 87.496 131.402 87.496 211.182 0 79.764-31.092 154.762-87.496 211.2-56.406 56.374-131.404 87.436-211.184 87.436z" fill="#FFCE54" /><path d="M320.004 160.438C143.258 160.438 0.012 303.716 0.012 480.43c0 176.7 143.246 320.01 319.992 320.01s319.992-143.31 319.992-320.01c0-176.714-143.246-319.992-319.992-319.992z m196.12 516.066c-25.5 25.498-55.188 45.498-88.186 59.498-34.156 14.438-70.498 21.75-107.936 21.75s-73.78-7.312-107.936-21.75c-32.998-14-62.686-34-88.186-59.498-25.466-25.438-45.466-55.124-59.436-88.124-14.438-34.188-21.75-70.482-21.75-107.952 0-37.466 7.312-73.78 21.75-107.934 13.968-33.03 33.968-62.686 59.436-88.154 25.5-25.5 55.188-45.5 88.186-59.468 34.156-14.438 70.498-21.78 107.936-21.78s73.78 7.342 107.936 21.78c32.998 13.968 62.686 33.968 88.186 59.468 25.468 25.468 45.468 55.124 59.436 88.154 14.438 34.156 21.75 70.468 21.75 107.934 0 37.468-7.312 73.764-21.75 107.952-13.966 33-33.966 62.686-59.436 88.124z" fill="#F6BB42" /><path d="M320.004 245.78c-129.622 0-234.682 105.06-234.682 234.65 0 129.576 105.06 234.634 234.682 234.634s234.684-105.058 234.684-234.634c0-129.59-105.064-234.65-234.684-234.65z m135.746 370.414c-36.248 36.248-84.466 56.248-135.746 56.248s-99.498-20-135.746-56.248c-36.282-36.25-56.25-84.482-56.25-135.764 0-51.28 19.968-99.498 56.25-135.746 36.248-36.28 84.466-56.248 135.746-56.248s99.498 19.968 135.746 56.248C492.032 380.932 512 429.15 512 480.43c0 51.28-19.968 99.514-56.25 135.764z" fill="#F6BB42" /><path d="M320.004 331.09c-82.466 0-149.308 66.874-149.308 149.34 0 82.452 66.842 149.326 149.308 149.326s149.308-66.876 149.308-149.326c0-82.468-66.842-149.34-149.308-149.34z m0 255.978c-58.81 0-106.686-47.828-106.686-106.638s47.876-106.654 106.686-106.654 106.686 47.842 106.686 106.654-47.876 106.638-106.686 106.638z" fill="#F6BB42" /><path d="M703.996 693.316c-79.782 0-154.778-31.062-211.184-87.436-56.404-56.438-87.498-131.42-87.498-211.2s31.094-154.778 87.498-211.182c56.406-56.404 131.402-87.466 211.184-87.466 79.778 0 154.778 31.062 211.182 87.466s87.498 131.402 87.498 211.182-31.094 154.762-87.498 211.2c-56.404 56.374-131.404 87.436-211.182 87.436z" fill="#FFCE54" /><path d="M703.996 74.69c-176.746 0-319.994 143.278-319.994 319.992 0 176.7 143.248 320.008 319.994 320.008s319.992-143.308 319.992-320.008c0-176.714-143.246-319.992-319.992-319.992z m196.12 516.066c-25.498 25.5-55.186 45.498-88.186 59.498-34.156 14.438-70.498 21.75-107.934 21.75-37.438 0-73.782-7.312-107.936-21.75-32.998-14-62.686-33.998-88.186-59.498-25.468-25.438-45.468-55.11-59.438-88.138-14.436-34.156-21.748-70.466-21.748-107.936 0-37.466 7.312-73.78 21.748-107.934 13.968-33.032 33.968-62.686 59.438-88.154 25.5-25.5 55.188-45.5 88.186-59.468 34.154-14.436 70.498-21.78 107.936-21.78 37.436 0 73.778 7.344 107.934 21.78 33 13.968 62.688 33.968 88.186 59.468 25.468 25.468 45.466 55.124 59.436 88.154 14.438 34.154 21.75 70.466 21.75 107.934s-7.312 73.78-21.75 107.936c-13.97 33.028-33.968 62.7-59.436 88.138z" fill="#F6BB42" /><path d="M703.996 160.032c-129.624 0-234.684 105.06-234.684 234.65 0 129.592 105.06 234.636 234.684 234.636 129.622 0 234.68-105.044 234.68-234.636 0-129.59-105.058-234.65-234.68-234.65z m135.746 370.428c-36.25 36.232-84.466 56.232-135.746 56.232-51.282 0-99.498-20-135.748-56.232C531.968 494.18 512 445.962 512 394.682c0-51.28 19.968-99.498 56.248-135.746 36.25-36.28 84.466-56.248 135.748-56.248 51.28 0 99.496 19.968 135.746 56.248 36.282 36.25 56.248 84.466 56.248 135.746 0 51.28-19.966 99.498-56.248 135.778z" fill="#F6BB42" /><path d="M703.996 245.342c-82.468 0-149.308 66.874-149.308 149.34s66.84 149.324 149.308 149.324c82.464 0 149.308-66.858 149.308-149.324s-66.844-149.34-149.308-149.34z m0 255.994c-58.812 0-106.686-47.842-106.686-106.654 0-58.81 47.874-106.652 106.686-106.652 58.81 0 106.684 47.842 106.684 106.652 0 58.812-47.874 106.654-106.684 106.654z" fill="#F6BB42" /><path d="M703.996 330.684c-35.344 0-64 28.656-64 63.998 0 35.344 28.656 64 64 64 35.342 0 63.996-28.656 63.996-64 0-35.342-28.654-63.998-63.996-63.998z m0 85.342c-11.75 0-21.312-9.562-21.312-21.344 0-11.75 9.562-21.342 21.312-21.342s21.312 9.594 21.312 21.342c0 11.78-9.562 21.344-21.312 21.344z" fill="#F6BB42" /><path d="M0.012 373.338v85.342c0 194.386 108.374 363.506 267.962 450.192a21.2 21.2 0 0 0-11.968 19.124c0 11.812 9.562 21.312 21.312 21.312h469.364c11.75 0 21.31-9.5 21.31-21.312 0-8.438-4.874-15.688-11.966-19.124 159.59-86.686 267.962-255.806 267.962-450.192v-85.342H0.012z" fill="#ED5564" /><path d="M0.012 416.026v42.656h63.998c0 11.782 9.562 21.342 21.312 21.342 11.812 0 21.376-9.562 21.376-21.342H149.32c0 11.782 9.562 21.342 21.376 21.342 11.75 0 21.312-9.562 21.312-21.342h42.686c0 11.782 9.532 21.342 21.312 21.342s21.312-9.562 21.312-21.342h42.686c0 11.782 9.562 21.342 21.312 21.342 11.812 0 21.376-9.562 21.376-21.342h42.624c0 11.782 9.562 21.342 21.376 21.342 11.75 0 21.31-9.562 21.31-21.342h42.688c0 11.782 9.532 21.342 21.312 21.342s21.312-9.562 21.312-21.342H576c0 11.782 9.562 21.342 21.312 21.342 11.81 0 21.374-9.562 21.374-21.342h42.624c0 11.782 9.562 21.342 21.376 21.342 11.75 0 21.312-9.562 21.312-21.342h42.686c0 11.782 9.532 21.342 21.31 21.342 11.782 0 21.312-9.562 21.312-21.342h42.688c0 11.782 9.562 21.342 21.312 21.342 11.812 0 21.376-9.562 21.376-21.342h42.624c0 11.782 9.562 21.342 21.374 21.342 11.75 0 21.312-9.562 21.312-21.342h64v-42.656H0.012z" fill="#DA4453" /></svg>