<?xml version="1.0" standalone="no"?><!DOCTYPE svg PUBLIC "-//W3C//DTD SVG 1.1//EN" "http://www.w3.org/Graphics/SVG/1.1/DTD/svg11.dtd"><svg class="icon" width="128px" height="128.00px" viewBox="0 0 1024 1024" version="1.1" xmlns="http://www.w3.org/2000/svg"><path d="M417.372 682.066l-75.42-75.436 376.226-376.224 75.434 75.42z" fill="#434A54" /><path d="M296.53 998.996c-33.328 33.31-87.358 33.31-120.684 0l-150.84-150.842c-33.328-33.342-33.328-87.372 0-120.684l150.84-150.84s177.386-63.966 255.9 14.532c78.53 78.53 15.624 256.992 15.624 256.992l-150.84 150.842z" fill="#656D78" /><path d="M1011.294 12.708c-28.532-28.546-120.654 0-120.654 0l-135.778 165.934-120.686 120.684 90.532 90.498 119.714-119.732 166.872-136.7s28.564-92.122 0-120.684z m-59.78 91.044c-8.344 8.328-21.844 8.328-30.186 0-8.312-8.328-8.312-21.844 0-30.172 8.342-8.328 21.842-8.328 30.186 0 8.312 8.33 8.312 21.844 0 30.172z" fill="#ED5564" /><path d="M1011.294 12.708c-28.532-28.546-120.654 0-120.654 0l-135.778 165.934-120.686 120.684 90.532 90.498 119.714-119.732 166.872-136.7s28.564-92.122 0-120.684z m-59.78 91.044c-8.344 8.328-21.844 8.328-30.186 0-8.312-8.328-8.312-21.844 0-30.172 8.342-8.328 21.842-8.328 30.186 0 8.312 8.33 8.312 21.844 0 30.172z" fill="#ED5564" /><path d="M251.266 682.222c8.328-8.344 8.328-21.844 0-30.188-8.328-8.312-21.828-8.312-30.17 0v0.032L100.426 772.72c-8.328 8.344-8.328 21.844 0 30.188 8.328 8.31 21.828 8.31 30.17 0l120.67-120.686zM371.95 772.72c-8.344-8.344-21.842-8.312-30.17 0l-120.684 120.684c-8.328 8.344-8.328 21.844 0 30.156 8.328 8.344 21.842 8.344 30.17 0l120.684-120.652c8.328-8.344 8.328-21.844 0-30.188zM311.608 742.564c8.328-8.344 8.328-21.844 0-30.188-8.328-8.312-21.844-8.312-30.17 0l-120.668 120.686c-8.328 8.344-8.344 21.842 0 30.154a21.294 21.294 0 0 0 30.156 0h0.016l120.666-120.652z" fill="#434A54" /><path d="M815.206 269.156a21.294 21.294 0 0 0 0 30.156v0.016l29.218-29.234 1.032-0.844-0.094-0.094c-8.314-8.344-21.814-8.328-30.156 0zM754.864 178.642l-30.154 30.172c8.31 8.328 21.81 8.328 30.154 0 8.344-8.328 8.344-21.844 0-30.172zM755.582 390.528a21.334 21.334 0 0 1-30.186 0l-90.5-90.498c-8.344-8.328-8.344-21.842 0-30.17 8.312-8.328 21.844-8.328 30.156 0l90.53 90.514c8.312 8.326 8.312 21.826 0 30.154z" fill="#DA4453" /></svg>