<?xml version="1.0" standalone="no"?><!DOCTYPE svg PUBLIC "-//W3C//DTD SVG 1.1//EN" "http://www.w3.org/Graphics/SVG/1.1/DTD/svg11.dtd"><svg class="icon" width="128px" height="128.00px" viewBox="0 0 1024 1024" version="1.1" xmlns="http://www.w3.org/2000/svg"><path d="M749.118 241.416c8.062-34.422 42.468-55.826 76.872-47.78 34.442 8.03 55.812 42.452 47.782 76.872-8.032 34.422-81.246 221.994-115.652 213.962s-17.034-208.65-9.002-243.054z" fill="#9ED36A" /><path d="M755.18 286.836c-15.156-31.922-1.562-70.108 30.344-85.264 31.938-15.172 70.126-1.578 85.278 30.344 15.156 31.92 74.808 224.258 42.876 239.43-31.94 15.156-143.31-152.59-158.498-184.51z" fill="#EC5564" /><path d="M64.014 1002.67a42.404 42.404 0 0 1-30.186-12.5 42.404 42.404 0 0 1-12.5-30.186 42.452 42.452 0 0 1 12.5-30.186L858.05 105.608l60.344 60.342-824.226 824.22a42.38 42.38 0 0 1-30.154 12.5z" fill="#A85D5D" /><path d="M858.05 75.436L18.766 914.736c-25 25-25 65.498 0 90.496 12.5 12.5 28.874 18.75 45.248 18.75 16.376 0 32.75-6.25 45.25-18.75L948.546 165.95l-90.496-90.514zM79.076 975.046c-5.438 5.438-11.78 6.25-15.062 6.25-3.312 0-9.656-0.812-15.092-6.25-5.438-5.406-6.25-11.748-6.25-15.062 0-3.312 0.812-9.656 6.25-15.062L858.05 135.778l30.156 30.172L79.076 975.046z" fill="#965353" /><path d="M963.64 211.198c-41.652 41.654-109.184 41.654-150.836 0-41.656-41.654-41.656-109.184 0-150.838C854.456 18.704 1023.984 0.018 1023.984 0.018s-18.688 169.524-60.344 211.18z" fill="#CBD0D8" /><path d="M607.058 507.454l-392.58 392.534-90.496-90.498 392.55-392.548z" fill="#E8563F" /><path d="M576.782 477.174L184.228 869.738l-30.186-30.188 392.552-392.532z" fill="#FB6D51" /><path d="M256.008 852.988h-42.686v-127.65l42.686-0.034zM298.664 643.37h42.656v127.684h-42.656zM384.004 561.998h42.654v127.682h-42.654zM512 596.998h-42.686v-127.652l42.686-0.016z" fill="#E8563F" /></svg>