<?xml version="1.0" standalone="no"?><!DOCTYPE svg PUBLIC "-//W3C//DTD SVG 1.1//EN" "http://www.w3.org/Graphics/SVG/1.1/DTD/svg11.dtd"><svg class="icon" width="128px" height="128.00px" viewBox="0 0 1024 1024" version="1.1" xmlns="http://www.w3.org/2000/svg"><path d="M1002.678 128.008H21.354c-11.78 0-21.342 9.562-21.342 21.342v725.266c0 11.812 9.562 21.376 21.342 21.376h421.742c13.532 6.438 47.092 21.31 68.904 21.31 21.844 0 55.404-14.874 68.936-21.31h421.742c11.78 0 21.31-9.562 21.31-21.376V149.352c0-11.78-9.53-21.344-21.31-21.344z" fill="#434A54" /><path d="M938.96 85.354H667.62c-89.31 0-133.84 18.374-155.622 34.062-21.75-15.688-66.28-34.062-155.59-34.062H85.074c-11.782 0-21.344 9.562-21.344 21.342v703.92c0 11.812 9.562 21.376 21.344 21.376h277.618c31.844 0 76.28 4.438 106.966 25.686 16 11.062 21.25 21.812 22.156 23.876l0.376 1.124c2.624 7.5 9.094 12.5 16.688 13.562h0.062c0.094 0.062 0.218 0.062 0.312 0.062 0.406 0.062 0.812 0.062 1.218 0.124h0.812c0.218 0 0.468 0.062 0.688 0.062h0.092c0.218 0 0.468-0.062 0.688-0.062h0.812c0.406-0.062 0.812-0.062 1.218-0.124 0.094 0 0.218 0 0.312-0.062h0.062c7.594-1.062 14.062-6.062 16.688-13.562l0.376-1.124c0.906-2.062 6.156-12.812 22.154-23.876 30.688-21.248 75.124-25.686 106.968-25.686h277.62c11.782 0 21.344-9.564 21.344-21.376V106.696c0-11.78-9.562-21.342-21.344-21.342z" fill="#FFCE54" /><path d="M789.338 42.698h-85.344a21.298 21.298 0 0 0-21.31 21.312v895.98c0 7.376 3.812 14.25 10.124 18.124a21.33 21.33 0 0 0 20.748 0.938l33.124-16.562 33.124 16.562c3 1.5 6.282 2.25 9.532 2.25 3.906 0 7.782-1.062 11.218-3.188a21.328 21.328 0 0 0 10.124-18.124V64.01c0.004-11.782-9.558-21.312-21.34-21.312z" fill="#ED5564" /><path d="M534.094 106.978c-9.156 4.094-16.406 8.344-22.094 12.438-5.342-3.876-12.124-7.906-20.592-11.782v773.108c0.188 0.312 0.312 0.624 0.406 0.812l0.376 1.124c2.624 7.5 9.094 12.5 16.688 13.562h0.062c0.094 0.062 0.218 0.062 0.312 0.062 0.406 0.062 0.812 0.062 1.218 0.124h0.812c0.218 0 0.468 0.062 0.688 0.062h0.092c0.218 0 0.468-0.062 0.688-0.062h0.812c0.406-0.062 0.812-0.062 1.218-0.124 0.094 0 0.218 0 0.312-0.062h0.062c7.594-1.062 14.062-6.062 16.688-13.562l0.376-1.124c0.25-0.562 0.844-1.812 1.876-3.5V106.978zM234.664 149.352c11.782 0 21.342-9.562 21.342-21.342V85.354h-42.656v42.656c0 11.78 9.532 21.342 21.314 21.342zM341.722 831.994v-42.69c0-11.75-9.562-21.312-21.342-21.312-11.782 0-21.312 9.562-21.312 21.312v42.69h42.654zM874.648 767.992c-11.782 0-21.312 9.562-21.312 21.312v42.69h42.656v-42.69c0-11.75-9.562-21.312-21.344-21.312zM554.654 99.29v37.5c0 11.78 9.562 21.342 21.344 21.342s21.344-9.562 21.344-21.342V89.946c-16.688 2.438-30.782 5.656-42.688 9.344z" fill="#F6BB42" /><path d="M129.104 273.724c11.78-0.406 21-10.282 20.592-22.062-0.344-10.124 3.938-15.124 8.062-16.436 4.438-1.406 9.094 1.032 12.782 6.656 1.53 2.312 2.374 3.968 2.812 5-1 1.188-2.468 2.718-3.656 3.968-7.812 8.156-20.876 21.812-22.594 46.812-0.812 11.75 8.094 21.936 19.844 22.75 0.5 0.032 0.968 0.032 1.468 0.032 11.124 0 20.5-8.592 21.25-19.874 0.656-9.592 4.718-13.812 10.844-20.218 9.592-10.032 27.468-28.688 5.718-61.874C191.914 196.666 167.852 187.26 144.884 194.54c-23.936 7.594-38.78 30.592-37.812 58.592 0.406 11.78 10.282 20.998 22.032 20.592zM381.192 444.252c-0.344-10.124 3.938-15.124 8.062-16.438 4.438-1.406 9.092 1 12.78 6.656 1.532 2.312 2.344 3.938 2.812 5-1 1.156-2.468 2.718-3.656 3.968-7.812 8.156-20.874 21.812-22.592 46.842-0.812 11.75 8.062 21.938 19.842 22.718 0.468 0.032 0.968 0.032 1.468 0.032 11.094 0 20.468-8.624 21.25-19.876 0.656-9.562 4.718-13.812 10.844-20.218 9.592-10.03 27.468-28.686 5.718-61.874-14.312-21.812-38.406-31.218-61.342-23.936-23.938 7.592-38.782 30.592-37.812 58.592 0.406 11.75 10.282 20.968 22.03 20.592 11.782-0.402 21.002-10.278 20.596-22.058zM251.818 271.068c2.624 2.656 3.218 4.594 2.344 7.968-0.906 3.532-3.124 6.876-3.906 7.844l0.188-0.218 0.218 0.188a21.11 21.11 0 0 0-5.092 13.812c0 11.782 9.53 21.342 21.312 21.342 8.124 0 15.188-4.532 18.78-11.218 11.938-16.656 19.656-46.436-3.624-69.812-3.094-3.124-2.968-4.812-2.438-6.842 0.782-2.968 2.812-5.782 3.5-6.624l-0.218 0.25-0.156-0.156a21.25 21.25 0 0 0 5.5-14.25c0-11.782-9.562-21.344-21.342-21.344-7.594 0-14.25 4-18.032 9.968-12.438 15.938-20.814 45.186 2.966 69.092zM129.01 510.656a21.316 21.316 0 0 0 11.156 3.124 21.3 21.3 0 0 0 18.188-10.156c6.156-10.032 3.032-23.156-7-29.344-0.032-0.032-2-1.812-2.218-2.656 0-0.032 0.312-2.906 5.906-8.53 17.53-17.53 19.468-33.592 18-43.968-2.312-16.062-13.468-25.968-19.436-30.186a21.19 21.19 0 0 0-13.656-4.938c-11.78 0-21.312 9.562-21.312 21.342 0 7.968 4.376 14.938 10.876 18.594l-0.062 0.094-0.468-0.282c0.532 0.344 1.218 0.968 1.656 1.468-0.406 1.032-1.688 3.624-5.75 7.718-17.188 17.186-19.344 33.218-18.124 43.654 2.526 21.378 20.244 32.816 22.244 34.066zM341.286 320.002h10.656c5.718 0 11.188-2.282 15.188-6.342 4-4.062 6.218-9.562 6.156-15.282-0.032-0.124-0.188-14.874 2.094-31.468 2.406-17.532 6.188-26.624 8.624-30.53 2.406 3.874 6.124 12.842 8.532 30.062 2.312 16.594 2.124 31.812 2.124 31.936a21.452 21.452 0 0 0 6.156 15.282c4 4.062 9.468 6.342 15.188 6.342h10.656c11.78 0 21.342-9.53 21.342-21.312a21.34 21.34 0 0 0-11.282-18.842 272.384 272.384 0 0 0-1.53-16.156c-3.562-28.218-10.876-47.624-22.344-59.28-8-8.094-17.968-12.406-28.842-12.406-10.844 0-20.812 4.312-28.844 12.406-17.406 17.656-22.562 52.842-24.032 75.498a21.32 21.32 0 0 0-11.186 18.78c0 11.782 9.562 21.312 21.344 21.312zM320.036 575.998h-10.656a21.326 21.326 0 0 0-15.188 6.376 21.292 21.292 0 0 0-6.156 15.25c0 0.124 0.188 14.874-2.124 31.498-2.406 17.5-6.156 26.624-8.592 30.5-2.438-3.876-6.124-12.812-8.532-30.062-2.312-16.562-2.156-31.81-2.156-31.936a21.262 21.262 0 0 0-6.124-15.25c-4.032-4.062-9.5-6.376-15.186-6.376h-10.688c-11.782 0-21.312 9.562-21.312 21.312a21.22 21.22 0 0 0 11.282 18.81c0.312 4.938 0.782 10.438 1.532 16.188 3.532 28.25 10.844 47.624 22.342 59.25 8 8.124 17.968 12.436 28.844 12.436 10.842 0 20.812-4.312 28.812-12.374 17.436-17.688 22.592-52.876 24.03-75.5a21.372 21.372 0 0 0 11.218-18.81c-0.004-11.75-9.566-21.312-21.346-21.312zM426.66 618.684v-21.374c0-11.75-9.532-21.312-21.312-21.312-11.78 0-21.342 9.562-21.342 21.312v21.374c-11.782 0-21.344 9.5-21.344 21.312s9.562 21.312 21.344 21.312v21.376c0 11.75 9.562 21.31 21.342 21.31 11.782 0 21.312-9.56 21.312-21.31v-21.376c11.78 0 21.342-9.5 21.342-21.312s-9.562-21.312-21.342-21.312zM177.258 620.058a20.72 20.72 0 0 0-7.53-1.376H149.352v-21.374c0-11.75-9.562-21.312-21.342-21.312-11.782 0-21.344 9.562-21.344 21.312v85.374c0 11.75 9.562 21.31 21.344 21.31 11.78 0 21.342-9.56 21.342-21.31v-21.376h13.968a1.556 1.556 0 0 1 0.25 0.312c2.532 3.312 3 9.312 1.312 16.876-2.532 11.5 4.75 22.874 16.25 25.436 1.532 0.376 3.094 0.5 4.594 0.5 9.812 0 18.624-6.75 20.812-16.748 9.126-41.31-15.156-62.31-29.28-67.624zM199.882 458.094l-0.188 0.75-6.624 25.874c-2.938 11.406 3.938 23.032 15.344 25.968 1.78 0.468 3.562 0.656 5.312 0.656 9.532 0 18.188-6.376 20.656-16.032l2.312-8.968 60.842 4.282a21.554 21.554 0 0 0 16.062-5.656 21.45 21.45 0 0 0 6.782-15.624c0-25.874-7.968-46.716-23.656-61.936-24.624-23.842-58.216-23.5-61.966-23.374-9.468 0.282-17.624 6.812-20 16l-14.876 58.06z m51.468-28.904c5.344 1.656 11.188 4.438 15.876 9.062a30.44 30.44 0 0 1 5.75 7.876l-25.5-1.812 3.874-15.126z" fill="#ED5564" /></svg>