<?xml version="1.0" standalone="no"?><!DOCTYPE svg PUBLIC "-//W3C//DTD SVG 1.1//EN" "http://www.w3.org/Graphics/SVG/1.1/DTD/svg11.dtd"><svg class="icon" width="128px" height="128.00px" viewBox="0 0 1024 1024" version="1.1" xmlns="http://www.w3.org/2000/svg"><path d="M340.638 64.01v789.294c0 94.246 76.42 170.684 170.684 170.684 94.294 0 170.698-76.438 170.698-170.684V64.01H340.638z" fill="#AC92EB" /><path d="M497.758 457.782c14.906-16.094 31.796-34.31 40.718-60.81 9.954-29.624 7.766-63.81-6.718-104.436-2.64-8.782-10.782-15.218-20.436-15.218-11.782 0-21.328 9.562-21.328 21.344 0 2.562 0.468 5 1.296 7.282h-0.032c24.92 69.188 1.876 94.06-24.796 122.842-17.516 18.874-37.358 40.31-40.14 73.248-3.046 36.25 14.092 62.904 30.67 88.654 20.874 32.466 42.468 66.03 33.592 128.278l42.234 6.032c11.124-77.998-17.204-122.03-39.952-157.372-14.454-22.466-25.858-40.216-24.03-61.998 1.548-18.316 13.626-31.346 28.922-47.846z" fill="#E6E9ED" /><path d="M425.996 822.96c0-63.876 38.202-115.652 85.326-115.652 47.138 0 85.356 51.778 85.356 115.652 0 63.904-38.218 115.684-85.356 115.684-47.124 0-85.326-51.778-85.326-115.684z" fill="#F5F7FA" /><path d="M724.674 64.01c0 35.344-28.686 63.998-63.996 63.998H363.324c-35.342 0-63.998-28.654-63.998-63.998 0-35.342 28.656-63.998 63.998-63.998h297.354c35.31 0 63.996 28.656 63.996 63.998z" fill="#967ADC" /></svg>