<?xml version="1.0" standalone="no"?><!DOCTYPE svg PUBLIC "-//W3C//DTD SVG 1.1//EN" "http://www.w3.org/Graphics/SVG/1.1/DTD/svg11.dtd"><svg class="icon" width="128px" height="128.00px" viewBox="0 0 1024 1024" version="1.1" xmlns="http://www.w3.org/2000/svg"><path d="M835.68 673.082c-70.342 52.78-76.092 102.622-80.716 142.652-3.032 26.25-5.032 43.624-23.468 59.186-16.282 13.75-36.436 14.532-61.996 15.5-24.188 0.906-51.562 1.938-79.032 15.594-30.968 15.374-55.952 43.998-76.434 87.56h0.016a21.3 21.3 0 0 0-2.048 9.094c0 11.782 9.546 21.312 21.328 21.312 8.532 0 15.86-5 19.296-12.25 35.53-75.532 73.998-77 118.498-78.688 28.31-1.062 60.372-2.282 87.902-25.53 31.344-26.468 35.062-58.56 38.344-86.904 4.25-36.844 8.25-71.624 63.904-113.402l-25.594-34.124zM251.944 359.652c-27.686 10.344-62.154 23.25-83.78 67.03-12.452 25.248-12.17 47.654-11.952 65.654 0.25 19.812 0.39 31.782-13.016 45.72-18.75 19.498-60.656 39.186-128.106 60.214a21.31 21.31 0 0 0-15.078 20.406c0 11.782 9.546 21.312 21.328 21.312 2.266 0 4.438-0.344 6.484-1 76.544-23.844 121.622-45.874 146.136-71.374 25.53-26.56 25.186-53.874 24.92-75.812-0.204-16.188-0.376-30.156 7.546-46.25 14.124-28.624 34.578-36.248 60.468-45.936 31.796-11.904 71.358-26.686 89.982-87.186l-40.78-12.562c-12.434 40.44-34.138 48.564-64.152 59.784z" fill="#AAB2BC" /><path d="M628.498 371.058c-84.436 78.464-91.342 149.622-97.436 212.402-5.234 53.78-9.75 100.248-64.608 146.59-41.796 35.28-91.202 39.28-148.404 43.874-49.998 4.032-106.654 8.594-161.432 37.718-61.906 32.876-112.466 92.374-154.576 181.934h0.018a21.328 21.328 0 0 0-2.046 9.094c0 11.782 9.546 21.312 21.328 21.312 8.532 0 15.876-5 19.296-12.25h0.016c38.046-80.906 82.53-134.03 135.982-162.434 46.984-24.938 96.732-28.968 144.84-32.844 59.124-4.782 120.262-9.688 172.512-53.812 68.106-57.528 73.918-117.278 79.512-175.026 5.906-60.624 11.5-117.842 84.062-185.31l-29.064-31.248z" fill="#CCD1D9" /><path d="M930.366 342.526c-98.874 98.872-234.744 123.308-303.492 54.592-68.718-68.748-44.25-204.62 54.624-303.492 98.872-98.872 234.742-123.31 303.46-54.592 68.716 68.716 44.278 204.62-54.592 303.492z" fill="#E6E9ED" /><path d="M976.302 686.458c-50.376 50.342-119.56 62.81-154.558 27.78-35-34.998-22.562-104.186 27.81-154.558 50.342-50.374 119.56-62.812 154.558-27.81 35 34.996 22.564 104.212-27.81 154.588zM464.314 302.464c-50.358 50.344-119.56 62.812-154.574 27.782-35-35-22.546-104.184 27.812-154.558 50.358-50.374 119.56-62.81 154.574-27.812 34.998 34.998 22.562 104.214-27.812 154.588z" fill="#CCD1D9" /></svg>