<?xml version="1.0" standalone="no"?><!DOCTYPE svg PUBLIC "-//W3C//DTD SVG 1.1//EN" "http://www.w3.org/Graphics/SVG/1.1/DTD/svg11.dtd"><svg class="icon" width="128px" height="128.00px" viewBox="0 0 1024 1024" version="1.1" xmlns="http://www.w3.org/2000/svg"><path d="M85.338 469.344c0 259.182 210.12 469.3 469.346 469.3 259.184 0 469.304-210.12 469.304-469.3C1023.988 210.132 813.866 0.012 554.684 0.012 295.458 0.012 85.338 210.13 85.338 469.344z" fill="#AC92EB" /><path d="M554.684 917.332c-119.682 0-232.18-46.592-316.802-131.214-84.606-84.622-131.2-197.12-131.2-316.774 0-119.652 46.592-232.18 131.2-316.774 84.624-84.624 197.122-131.214 316.802-131.214 119.624 0 232.122 46.592 316.742 131.214 84.624 84.594 131.25 197.122 131.25 316.774 0 119.654-46.624 232.152-131.25 316.774-84.622 84.622-197.118 131.214-316.742 131.214z" fill="#AC92EB" /><path d="M323.676 673.09c-69.982 52.53-76.388 93.464-81.53 126.372-3.25 20.718-5.39 34.406-24.17 50.282-16.718 14.124-37.374 18.218-61.294 22.998-48.078 9.594-107.936 21.532-154.638 120.842h0.016a21.294 21.294 0 0 0-2.046 9.062c0 11.782 9.546 21.344 21.328 21.344 8.532 0 15.876-5.032 19.296-12.25h0.016c37.546-79.844 79.716-88.25 124.372-97.156 27.218-5.436 55.358-11.03 80.482-32.248 30.954-26.154 35.108-52.78 38.796-76.28 4.36-27.876 8.86-56.716 64.984-98.84l-25.612-34.126z" fill="#E6E9ED" /><path d="M464.33 686.434c-50.374 50.374-119.576 62.81-154.574 27.81-35.014-34.998-22.562-104.216 27.796-154.558 50.358-50.374 119.56-62.81 154.574-27.81 34.998 34.998 22.562 104.214-27.796 154.558z" fill="#F5F7FA" /><path d="M853.304 308.254c0 65.688-53.218 118.936-118.906 118.936-65.652 0-118.902-53.248-118.902-118.936 0-65.654 53.25-118.902 118.902-118.902 65.688 0 118.906 53.248 118.906 118.902z" fill="#967ADC" /><path d="M554.684 0.012c-259.226 0-469.346 210.12-469.346 469.332 0 259.182 210.12 469.3 469.346 469.3 259.184 0 469.304-210.12 469.304-469.3C1023.988 210.13 813.868 0.012 554.684 0.012z m301.684 771.012c-39.188 39.218-84.844 69.968-135.624 91.468-52.59 22.216-108.464 33.498-166.058 33.498-57.636 0-113.51-11.282-166.086-33.498-50.796-21.5-96.42-52.25-135.622-91.468-39.202-39.186-69.966-84.808-91.452-135.622-22.234-52.592-33.514-108.434-33.514-166.058 0-57.624 11.282-113.496 33.514-166.058 21.484-50.81 52.25-96.436 91.452-135.652 39.202-39.188 84.826-69.966 135.622-91.436 52.576-22.25 108.45-33.532 166.086-33.532 57.594 0 113.468 11.282 166.058 33.532 50.782 21.468 96.438 52.248 135.624 91.436 39.184 39.216 69.934 84.842 91.434 135.652 22.25 52.562 33.5 108.436 33.5 166.058 0 57.624-11.25 113.466-33.5 166.058-21.502 50.812-52.252 96.436-91.434 135.622z" fill="#967ADC" /></svg>