<?xml version="1.0" standalone="no"?><!DOCTYPE svg PUBLIC "-//W3C//DTD SVG 1.1//EN" "http://www.w3.org/Graphics/SVG/1.1/DTD/svg11.dtd"><svg class="icon" width="128px" height="128.00px" viewBox="0 0 1024 1024" version="1.1" xmlns="http://www.w3.org/2000/svg"><path d="M897.672 316.99L686.49 105.806c-210.152 210.122-184.31 154.152-359.368 329.182-175.028 175.044 66.874 415.85 241.368 241.354 174.496-174.482 116.876-147.044 329.182-359.352z" fill="#E5E8EC" /><path d="M577.74 455.892l-30.188-30.154 214.34-214.34 30.156 30.186z" fill="#A9B1BC" /><path d="M568.49 676.342c139.124-139.136 130.686-149.886 229.152-256.136l-457.24 1.562a4955.854 4955.854 0 0 0-13.28 13.218c-175.028 175.046 66.874 415.852 241.368 241.356zM235.654 1002.648c0 11.782-9.562 21.344-21.342 21.344s-21.344-9.562-21.344-21.344 9.562-21.342 21.344-21.342 21.342 9.562 21.342 21.342zM406.308 1002.648c0 11.782-9.562 21.344-21.344 21.344-11.78 0-21.312-9.562-21.312-21.344s9.532-21.342 21.312-21.342c11.782 0 21.344 9.562 21.344 21.342zM64.97 1002.648c0 11.782-9.532 21.344-21.312 21.344s-21.342-9.562-21.342-21.344 9.562-21.342 21.342-21.342 21.312 9.562 21.312 21.342zM235.654 831.996c0 11.748-9.562 21.31-21.342 21.31s-21.344-9.562-21.344-21.31c0-11.812 9.562-21.344 21.344-21.344s21.342 9.532 21.342 21.344zM150.312 917.306c0 11.782-9.562 21.344-21.344 21.344-11.78 0-21.312-9.562-21.312-21.344s9.532-21.312 21.312-21.312c11.782 0 21.344 9.532 21.344 21.312zM320.966 917.306c0 11.782-9.532 21.344-21.312 21.344s-21.342-9.562-21.342-21.344 9.562-21.312 21.342-21.312 21.312 9.532 21.312 21.312z" fill="#FB6D51" /><path d="M897.672 316.99l-30.186-30.156c-212.308 212.308-154.686 184.84-329.184 359.322-80.028 80.032-174.212 72.718-235.868 24.438 57.03 72.876 171.434 100.344 266.056 5.75 174.496-174.484 116.876-147.046 329.182-359.354z" fill="#FFFFFF" opacity=".2" /><path d="M867.612 347.27L656.178 135.868l70.53-130.622s64.216-36.344 182.996 82.436c118.81 118.81 88.53 189.09 88.53 189.09l-130.622 70.498z" fill="#A85D5D" /><path d="M897.672 316.99L686.49 105.806h-0.032c-8.312-8.312-21.812-8.312-30.156 0-8.312 8.344-8.312 21.844 0 30.186h0.032l211.152 211.152v0.032c8.344 8.312 21.844 8.312 30.186 0 8.312-8.344 8.312-21.842 0-30.186z" fill="#965353" /><path d="M580.866 663.936L339.528 422.582l-110.31 110.31 241.37 241.356z" fill="#646C77" /><path d="M520.554 754.436c8.312-8.312 8.312-21.844 0-30.156L279.186 482.922c-8.312-8.312-21.844-8.312-30.156 0L158.5 573.438c-8.312 8.312-8.312 21.812 0 30.156l241.37 241.338c8.312 8.344 21.844 8.344 30.156 0l90.528-90.496z" fill="#424953" /><path d="M233.936 648.842c-8.342-8.344-21.842-8.344-30.156 0l30.156 30.156c8.344-8.312 8.344-21.812 0-30.156zM294.278 709.186a21.33 21.33 0 0 0-30.186 0l30.186 30.156c8.312-8.312 8.312-21.812 0-30.156zM354.622 769.53a21.33 21.33 0 0 0-30.186 0l30.186 30.154c8.312-8.312 8.312-21.842 0-30.154z" fill="#646C77" /><path d="M565.802 700.342c-5.468 0-10.938-2.062-15.094-6.25L309.372 452.768a21.33 21.33 0 0 1 0-30.186c8.312-8.312 21.812-8.312 30.156 0l241.338 241.354c8.344 8.312 8.344 21.844 0 30.156a21.284 21.284 0 0 1-15.064 6.25z" fill="#424953" /></svg>