<?xml version="1.0" standalone="no"?><!DOCTYPE svg PUBLIC "-//W3C//DTD SVG 1.1//EN" "http://www.w3.org/Graphics/SVG/1.1/DTD/svg11.dtd"><svg class="icon" width="128px" height="128.00px" viewBox="0 0 1024 1024" version="1.1" xmlns="http://www.w3.org/2000/svg"><path d="M127.996 341.322c0-2.844 0.594-5.716 1.782-8.498 4.718-10.812 157.086 3.81 167.868 8.498l7.248 44.438c10.782 4.718 15.75 17.28 11.032 28.092-4.688 10.812-17.28 15.75-28.06 11.032L140.84 360.886c-8.034-3.47-12.844-11.344-12.844-19.564zM127.996 682.65c0-8.216 4.812-16.06 12.842-19.56l147.026-63.996c10.782-4.688 23.374 0.25 28.06 11.062 4.718 10.782-0.25 23.376-11.032 28.062l-12.998 44.432c-10.812 4.688-157.4 19.312-162.118 8.5a21.486 21.486 0 0 1-1.78-8.5zM645.052 469.316c0-11.78 9.53-21.31 21.308-21.31h37.656a21.298 21.298 0 0 1 21.312 21.31c0 11.782-9.532 21.344-21.312 21.344H666.36c-11.778 0-21.308-9.562-21.308-21.344zM645.052 554.658c0-11.782 9.53-21.344 21.308-21.344h37.656c11.782 0 21.312 9.562 21.312 21.344S715.798 576 704.018 576h-37.656c-11.78 0-21.31-9.56-21.31-21.342z" fill="#434A54" /><path d="M704.018 512.004c0-47.06-38.282-85.34-85.338-85.34-47.062 0-85.358 38.28-85.358 85.34 0 47.03 38.294 85.308 85.358 85.308 47.056 0 85.338-38.278 85.338-85.308z" fill="#DA4453" /><path d="M554.68 428.476c0-5.094 1.812-10.188 5.5-14.282L773.482 177.704c0.782-0.842 1.624-1.624 2.532-2.342L989.318 4.68c9.216-7.342 22.624-5.842 29.998 3.344 7.344 9.188 5.876 22.624-3.344 30l-211.958 169.554-212.178 235.21c-7.876 8.75-21.376 9.438-30.124 1.532a21.242 21.242 0 0 1-7.032-15.844zM554.68 595.5c0-5.812 2.376-11.624 7.032-15.844 8.75-7.876 22.25-7.188 30.124 1.562l212.178 235.178 211.958 169.586c9.218 7.344 10.718 20.782 3.344 29.968-7.376 9.218-20.782 10.718-29.998 3.344l-213.304-170.648a22.772 22.772 0 0 1-2.532-2.376L560.18 609.782a21.192 21.192 0 0 1-5.5-14.282zM469.324 645.464c0-9.872 6.906-18.714 16.936-20.84 11.532-2.438 22.842 4.938 25.28 16.466l20.25 95.964 103.262 123.934c7.562 9.06 6.344 22.498-2.718 30.03a21.322 21.322 0 0 1-30.06-2.718l-106.668-127.996a21.29 21.29 0 0 1-4.468-9.25l-21.342-101.152a21.4 21.4 0 0 1-0.472-4.438zM469.324 378.51c0-1.438 0.156-2.906 0.468-4.344l20.686-99.464a21.582 21.582 0 0 1 4.468-9.282l107.388-129.682c7.532-9.062 20.966-10.344 30.03-2.812 9.094 7.5 10.344 20.938 2.844 30.03l-104.012 125.622-19.656 94.278c-2.406 11.53-13.686 18.936-25.218 16.53-10.062-2.096-16.998-10.97-16.998-20.876zM341.33 789.336c0-2.25 0.344-4.532 1.094-6.75l42.686-127.996c3.718-11.188 15.78-17.214 26.968-13.498 11.186 3.716 17.218 15.81 13.5 26.966l-42.686 127.996c-3.718 11.186-15.782 17.216-26.968 13.498-8.938-2.968-14.594-11.31-14.594-20.216zM341.33 234.672c0-8.938 5.656-17.25 14.594-20.25 11.186-3.718 23.25 2.344 26.968 13.5l42.686 127.994c3.718 11.188-2.312 23.25-13.5 27-11.188 3.718-23.25-2.312-26.968-13.5l-42.686-127.996a21.13 21.13 0 0 1-1.094-6.748zM0 618.656c0-3.218 0.75-6.468 2.282-9.532 5.25-10.532 18.06-14.812 28.624-9.562l123.464 61.746h130.87l15.532-32.464c5.06-10.656 17.81-15.156 28.436-10.062 10.624 5.094 15.124 17.812 10.062 28.434l-21.342 44.624a21.334 21.334 0 0 1-19.248 12.156H149.338c-3.312 0-6.562-0.782-9.532-2.25L11.812 637.75A21.384 21.384 0 0 1 0 618.656zM0 405.352c0-7.812 4.344-15.374 11.812-19.092l127.994-63.998a21.06 21.06 0 0 1 9.532-2.25h149.338a21.36 21.36 0 0 1 19.248 12.124l21.342 44.624c5.062 10.624 0.562 23.374-10.062 28.436-10.624 5.094-23.376 0.594-28.436-10.032l-15.532-32.498H154.37l-123.464 61.748c-10.562 5.282-23.374 1-28.624-9.532A21.254 21.254 0 0 1 0 405.352z" fill="#656D78" /><path d="M558.992 635.468c52.25-33.968 81.03-77.842 81.03-123.464 0-45.656-28.78-89.496-81.03-123.494-45.452-29.532-102.886-47.188-153.666-47.188-50.936 0-94.31 17.438-125.496 50.438-29.124 30.78-45.154 73.496-45.154 120.244s16.03 89.434 45.154 120.246c31.186 32.964 74.56 50.4 125.496 50.4 50.78 0 108.216-17.622 153.666-47.182z" fill="#ED5564" /><path d="M322.486 632.25c-29.124-30.812-45.154-73.498-45.154-120.246s16.032-89.464 45.154-120.244c26.812-28.376 62.654-45.218 104.558-49.376a233.062 233.062 0 0 0-21.718-1.062c-50.936 0-94.31 17.438-125.496 50.438-29.124 30.78-45.154 73.496-45.154 120.244s16.03 89.434 45.154 120.246c31.186 32.964 74.56 50.4 125.496 50.4 7.124 0 14.374-0.342 21.718-1.03-41.904-4.186-77.746-21.03-104.558-49.37z" fill="#FFFFFF" opacity=".1" /></svg>