<?xml version="1.0" standalone="no"?><!DOCTYPE svg PUBLIC "-//W3C//DTD SVG 1.1//EN" "http://www.w3.org/Graphics/SVG/1.1/DTD/svg11.dtd"><svg class="icon" width="128px" height="128.00px" viewBox="0 0 1024 1024" version="1.1" xmlns="http://www.w3.org/2000/svg"><path d="M81.016 94.134h861.936v63.998H81.016z" fill="#FFFFFF" /><path d="M853.3 874.664H170.668L64.018 21.338h895.964z" fill="#4FC2E9" /><path d="M938.64 192.004l5.344-42.67H80.016l5.314 42.67z" fill="#3BAFDA" /><path d="M1002.636 661.296h-511.98c-11.782 0-21.344 9.562-21.344 21.376v64c0 11.75 9.562 21.312 21.344 21.312h511.98c11.782 0 21.344-9.562 21.344-21.312v-64c0-11.812-9.562-21.376-21.344-21.376z" fill="#656D78" /><path d="M917.296 682.672c11.782 0 21.344-9.562 21.344-21.376h-42.656c0 11.814 9.532 21.376 21.312 21.376zM831.988 682.672c11.782 0 21.312-9.562 21.312-21.376h-42.654c0 11.814 9.562 21.376 21.342 21.376zM746.646 682.672c11.782 0 21.344-9.562 21.344-21.376h-42.688c0 11.814 9.564 21.376 21.344 21.376zM661.306 682.672c11.782 0 21.344-9.562 21.344-21.376h-42.656c0 11.814 9.532 21.376 21.312 21.376zM575.998 682.672c11.782 0 21.31-9.562 21.31-21.376h-42.652c0 11.814 9.56 21.376 21.342 21.376z" fill="#434A54" /><path d="M170.668 42.682c11.782 0 21.344-9.562 21.344-21.344H149.326c0 11.782 9.562 21.344 21.342 21.344zM256.01 42.682c11.78 0 21.312-9.562 21.312-21.344h-42.656c0 11.782 9.562 21.344 21.344 21.344zM341.318 42.682c11.782 0 21.342-9.562 21.342-21.344h-42.654c0.002 11.782 9.532 21.344 21.312 21.344zM426.66 42.682c11.78 0 21.342-9.562 21.342-21.344h-42.686c0 11.782 9.562 21.344 21.344 21.344zM512 42.682c11.782 0 21.312-9.562 21.312-21.344h-42.656c0.002 11.782 9.562 21.344 21.344 21.344zM597.34 42.682c11.782 0 21.312-9.562 21.312-21.344h-42.654c0 11.782 9.562 21.344 21.342 21.344zM682.65 42.682c11.78 0 21.342-9.562 21.342-21.344h-42.654c0 11.782 9.532 21.344 21.312 21.344zM767.99 42.682c11.782 0 21.344-9.562 21.344-21.344h-42.688c0 11.782 9.562 21.344 21.344 21.344zM853.332 42.682c11.778 0 21.34-9.562 21.34-21.344h-42.684c0 11.782 9.562 21.344 21.344 21.344z" fill="#3BAFDA" /><path d="M949.296 106.68l-5.312 42.654h35.404c-4.312 48.312-16.032 95.248-34.966 140.01-23.624 55.874-57.468 106.074-100.59 149.182-43.092 43.122-93.31 76.964-149.184 100.606-57.842 24.454-119.276 36.86-182.648 36.86-63.404 0-124.838-12.406-182.68-36.86-55.874-23.64-106.088-57.484-149.182-100.606-43.124-43.108-76.966-93.31-100.622-149.182-18.906-44.764-30.624-91.7-34.936-140.01h35.436L74.672 106.68H0.02C0.02 389.434 229.23 618.676 512 618.676c282.74 0 511.98-229.242 511.98-511.996h-74.684z" fill="#434A54" /><path d="M1002.636 725.296h-511.98c-11.782 0-21.344 9.562-21.344 21.376v234.618c0 11.808 9.562 21.372 21.344 21.372h511.98c11.782 0 21.344-9.562 21.344-21.372V746.672c0-11.812-9.562-21.376-21.344-21.376z" fill="#FFCE54" /><path d="M560.904 880.882c-8.342 8.344-8.342 21.844 0 30.156 8.312 8.376 21.844 8.376 30.156 0 8.342-8.312 8.342-21.812 0-30.156-8.312-8.342-21.844-8.342-30.156 0zM646.212 795.542c-8.312 8.344-8.312 21.876 0 30.188 8.344 8.312 21.844 8.312 30.188 0s8.344-21.844 0-30.188c-8.344-8.312-21.844-8.312-30.188 0zM731.552 880.882c-8.31 8.344-8.31 21.844 0 30.156a21.274 21.274 0 0 0 30.188 0c8.312-8.312 8.312-21.812 0-30.156a21.336 21.336 0 0 0-30.188 0zM816.896 795.542c-8.344 8.344-8.344 21.876 0 30.188 8.31 8.312 21.842 8.312 30.154 0 8.34-8.312 8.34-21.844 0-30.188-8.312-8.312-21.842-8.312-30.154 0zM932.39 880.882a21.332 21.332 0 0 0-30.188 0c-8.312 8.344-8.312 21.844 0 30.156a21.274 21.274 0 0 0 30.188 0c8.344-8.312 8.344-21.812 0-30.156z" fill="#F6BB42" /></svg>