<?xml version="1.0" standalone="no"?><!DOCTYPE svg PUBLIC "-//W3C//DTD SVG 1.1//EN" "http://www.w3.org/Graphics/SVG/1.1/DTD/svg11.dtd"><svg class="icon" width="128px" height="128.00px" viewBox="0 0 1024 1024" version="1.1" xmlns="http://www.w3.org/2000/svg"><path d="M638.932 203.164a19.6 19.6 0 0 1-5-0.656c-6.438-1.704-11.562-5.968-14.094-12.108-1.812-3.532-24.688-44.374-108.514-44.374-86.294 0-108.248 43.78-108.452 44.218a21.29 21.29 0 0 1-14.376 12.014c-6.374 1.578-13.14 0.11-18.296-3.968l-53.984-42.64c-9.234-7.296-10.812-20.704-3.516-29.954 7.296-9.234 20.704-10.812 29.938-3.516l16.92-18.796c4.468-4.812 33.078-32.28 39.984-37.39 29.188-21.64 76.716-8 123.918-8 47.188 0 102.062 18.328 131.248 39.984 6.906 5.11 15.312 23.75 19.782 28.562l5.532-4.36c9.216-7.296 22.624-5.718 29.936 3.516 7.282 9.25 5.718 22.656-3.532 29.954l-53.966 42.64c-3.906 3.092-8.656 4.874-13.528 4.874z" fill="#37BC9B" /><path d="M767.178 394.738c-11.782 0-21.344-9.532-21.344-21.312 0-0.75-0.468-77.748-30.844-152.996-38.966-96.53-107.496-145.464-203.666-145.464-96.514 0-165.168 49.28-204.058 146.48-30.092 75.264-30.452 151.214-30.452 151.98 0 11.782-9.546 21.312-21.312 21.312-11.782 0-21.328-9.532-21.328-21.312 0-3.436 0.39-84.998 33.5-167.808 45.358-113.372 129.606-173.292 243.652-173.292s198.292 59.922 243.666 173.292c33.124 82.81 33.5 164.372 33.5 167.808-0.002 11.78-9.564 21.312-21.314 21.312zM980.33 501.344a21.18 21.18 0 0 1-11.718-3.532l-82.282-54.328c-9.844-6.484-12.532-19.718-6.062-29.546 6.5-9.828 19.718-12.532 29.532-6.046l82.31 54.342c9.812 6.484 12.532 19.704 6.032 29.532a21.294 21.294 0 0 1-17.812 9.578z" fill="#434A54" /><path d="M1022.328 882.68l-76.624-429.052c-4.844-27.25-20.094-52.78-42.938-71.89-22.812-19.108-50.624-29.624-78.31-29.624H199.534c-27.672 0-55.484 10.516-78.31 29.624-22.828 19.11-38.078 44.64-42.952 71.89L1.664 882.68c-5.108 28.624 1.672 55.876 19.11 76.684 17.438 20.844 43.062 32.312 72.17 32.312h838.106c29.124 0 54.75-11.468 72.186-32.312 17.436-20.81 24.218-48.06 19.092-76.684z" fill="#48CFAD" /><path d="M8.85 842.43L1.664 882.68c-5.108 28.624 1.672 55.876 19.11 76.684 17.438 20.844 43.062 32.312 72.17 32.312h42.64c24.358-142.122-126.734-149.246-126.734-149.246zM1015.14 842.43l7.188 40.25c5.124 28.624-1.656 55.876-19.094 76.684-17.436 20.844-43.06 32.312-72.186 32.312h-42.624c-24.376-142.122 126.716-149.246 126.716-149.246zM745.834 565.312c-11.75 0-21.312-9.562-21.312-21.328v-42.64c0-11.782 9.562-21.328 21.312-21.328 11.782 0 21.344 9.546 21.344 21.328v42.64c0 11.766-9.562 21.328-21.344 21.328z" fill="#434A54" /><path d="M788.49 522.656H234.174c-11.766 0-21.312-9.546-21.312-21.312 0-11.782 9.546-21.328 21.312-21.328h554.316c11.782 0 21.312 9.546 21.312 21.328 0 11.766-9.53 21.312-21.312 21.312z" fill="#37BC9B" /><path d="M1022.328 882.68l-76.624-429.052c-4.844-27.25-20.094-52.78-42.938-71.89-22.812-19.108-50.624-29.624-78.31-29.624h-42.624c27.656 0 55.466 10.516 78.308 29.624 22.812 19.11 38.062 44.64 42.938 71.89l76.624 429.052c5.094 28.624-1.688 55.876-19.124 76.684-17.438 20.844-43.062 32.312-72.156 32.312h42.624c29.124 0 54.75-11.468 72.186-32.312 17.44-20.81 24.222-48.06 19.096-76.684z" fill="#FFFFFF" opacity=".2" /></svg>