<?xml version="1.0" standalone="no"?><!DOCTYPE svg PUBLIC "-//W3C//DTD SVG 1.1//EN" "http://www.w3.org/Graphics/SVG/1.1/DTD/svg11.dtd"><svg class="icon" width="128px" height="128.00px" viewBox="0 0 1024 1024" version="1.1" xmlns="http://www.w3.org/2000/svg"><path d="M383.75 0.012H298.44c-11.782 0-21.344 9.546-21.344 21.328 0 11.78 9.562 21.328 21.344 21.328h85.31c11.78 0 21.342-9.546 21.342-21.328 0.002-11.782-9.56-21.328-21.342-21.328z" fill="#434A54" /><path d="M21.102 85.338l50.156 127.996 56.498 495.412h426.678l64-623.408z" fill="#E6E9ED" /><path d="M90.726 384.002l37.03 324.744h426.678l33.344-324.744z" fill="#FC6E51" /><path d="M575.746 85.338l-63.998 623.408h42.686l64-623.408z" fill="#FFFFFF" opacity=".2" /><path d="M889.958 944.894c8.344 8.344 8.344 21.844 0 30.156-8.312 8.344-21.812 8.344-30.156 0-8.342-8.312-8.342-21.812 0-30.156 8.342-8.342 21.842-8.342 30.156 0zM847.302 902.24c8.344 8.312 8.344 21.812 0 30.156-8.344 8.342-21.844 8.342-30.156 0-8.342-8.344-8.342-21.844 0-30.156 8.312-8.342 21.812-8.342 30.156 0zM889.958 859.554a21.332 21.332 0 0 1 0 30.188c-8.312 8.31-21.812 8.31-30.156 0a21.336 21.336 0 0 1 0-30.188c8.342-8.312 21.842-8.312 30.156 0z" fill="#080808" /><path d="M597.09 1002.644c0 11.782-9.562 21.344-21.344 21.344s-21.312-9.562-21.312-21.344 9.532-21.344 21.312-21.344 21.344 9.564 21.344 21.344zM126.444 1002.644c0 11.782-9.562 21.344-21.344 21.344s-21.342-9.562-21.342-21.344S93.32 981.3 105.1 981.3s21.344 9.564 21.344 21.344z" fill="#434A54" /><path d="M639.746 895.992c0-23.468-6.562-60.718-14.562-82.75l-56.188-154.496c-8-22.062-33.782-40.094-57.248-40.094H170.444c-23.468 0-49.25 18.032-57.25 40.094l-56.186 154.496c-8 22.032-14.562 59.282-14.562 82.75v63.996c0 23.438 19.186 42.656 42.656 42.656h511.988c23.468 0 42.656-19.218 42.656-42.656v-63.996z" fill="#656D78" /><path d="M618.434 85.338V42.666c0-11.782-9.562-21.328-21.344-21.328H85.102c-11.782 0-21.344 9.546-21.344 21.328v42.672h554.676z" fill="#CCD1D9" /><path d="M447.75 815.43c0 58.906-47.75 106.654-106.654 106.654-58.906 0-106.654-47.748-106.654-106.654 0-58.904 47.75-106.684 106.654-106.684 58.904 0 106.654 47.78 106.654 106.684z" fill="#FFCE54" /><path d="M362.438 767.994c0 11.78-9.562 21.31-21.342 21.31-11.782 0-21.344-9.532-21.344-21.31 0-11.782 9.562-21.344 21.344-21.344 11.78 0 21.342 9.562 21.342 21.344z" fill="#F6BB42" /><path d="M319.752 256.006H362.44c11.782 0 21.312-9.562 21.312-21.344s-9.532-21.328-21.312-21.328h-42.686c-11.782 0-21.312 9.546-21.312 21.328s9.528 21.344 21.31 21.344zM362.438 298.66h-42.686c-11.782 0-21.312 9.562-21.312 21.344s9.53 21.328 21.312 21.328H362.44c11.782 0 21.312-9.546 21.312-21.328s-9.532-21.344-21.314-21.344zM362.438 384.002h-42.686c-11.782 0-21.312 9.546-21.312 21.328s9.53 21.328 21.312 21.328H362.44c11.782 0 21.312-9.546 21.312-21.328s-9.532-21.328-21.314-21.328zM362.438 469.328h-42.686c-11.782 0-21.312 9.546-21.312 21.328S307.97 512 319.752 512H362.44c11.782 0 21.312-9.562 21.312-21.344s-9.532-21.328-21.314-21.328z" fill="#434A54" /><path d="M917.55 426.658h-213.34c-11.782 0-21.31 9.562-21.31 21.342v554.644c0 11.782 9.53 21.344 21.31 21.344h213.34c11.782 0 21.344-9.562 21.344-21.344V448c0-11.78-9.562-21.342-21.344-21.342z" fill="#E6E9ED" /><path d="M682.9 597.31h255.994v405.334H682.9z" fill="#FC6E51" /><path d="M725.554 1002.644c-2.218 0-4.5-0.344-6.75-1.094-11.188-3.718-17.218-15.812-13.5-27L961.3 206.584c3.75-11.17 15.812-17.218 26.998-13.484 11.188 3.718 17.218 15.796 13.5 26.984L745.804 988.05a21.376 21.376 0 0 1-20.25 14.594z" fill="#434A54" /><path d="M917.55 426.658h-42.656c11.782 0 21.312 9.562 21.312 21.342v554.644c0 11.782-9.532 21.344-21.312 21.344h42.656c11.782 0 21.344-9.562 21.344-21.344V448c0-11.78-9.562-21.342-21.344-21.342z" fill="#FFFFFF" opacity=".2" /></svg>