<?xml version="1.0" standalone="no"?><!DOCTYPE svg PUBLIC "-//W3C//DTD SVG 1.1//EN" "http://www.w3.org/Graphics/SVG/1.1/DTD/svg11.dtd"><svg class="icon" width="128px" height="128.00px" viewBox="0 0 1024 1024" version="1.1" xmlns="http://www.w3.org/2000/svg"><path d="M874.648 521.866c-82.342 0-149.308 66.982-149.308 149.324 0 82.31 66.966 149.31 149.308 149.31 82.344 0 149.342-67 149.342-149.31 0-82.342-66.998-149.324-149.342-149.324z" fill="#434A54" /><path d="M874.648 596.504c-41.154 0-74.654 33.498-74.654 74.686 0 41.156 33.5 74.654 74.654 74.654 41.188 0 74.688-33.498 74.688-74.654 0-41.188-33.5-74.686-74.688-74.686z" fill="#CCD1D9" /><path d="M874.68 692.502c-7.532 0-14.844-4-18.718-11.062l-85.34-155.762c-5.656-10.344-1.876-23.282 8.468-28.97 10.31-5.656 23.28-1.876 28.936 8.468l85.342 155.762c5.656 10.312 1.876 23.282-8.468 28.938a21.182 21.182 0 0 1-10.22 2.626z" fill="#E6E9ED" /><path d="M149.35 521.866c-82.342 0-149.34 66.982-149.34 149.324 0 82.31 67 149.31 149.34 149.31s149.31-67 149.31-149.31c0-82.342-66.968-149.324-149.31-149.324z" fill="#434A54" /><path d="M149.35 596.504c-41.186 0-74.686 33.498-74.686 74.686 0 41.156 33.5 74.654 74.686 74.654 41.156 0 74.656-33.498 74.656-74.654 0-41.188-33.5-74.686-74.656-74.686z" fill="#CCD1D9" /><path d="M938.18 387.584c-10.562-49.906-43.032-121.78-137.53-180.84a21.316 21.316 0 0 0-26.092 2.718l-42.688 41.03a21.316 21.316 0 0 0-4.282 24.906l21.624 43.25c-38.438-8.968-94.75-19.592-145.654-19.592-31.966 0-58.374 4.282-78.53 12.782-38.718 16.342-74.156 74.466-89.092 101.748l-328.24-39.252a21.316 21.316 0 0 0-21.594 11.594c-2.468 4.906-4.718 12.938-1.282 23.188 5.656 16.874 27.156 42.966 143.966 108.686 31.75 17.876 63.25 34.482 86.656 46.576L139.82 652.096a21.278 21.278 0 0 0-11.5 22.688c1.594 9.25 9.032 16.406 18.376 17.562l163.404 20.406 37.5 37.498c4 4 9.406 6.25 15.062 6.25h319.994c5.75 0 11.282-2.312 15.282-6.438 4-4.094 6.188-9.656 6.062-15.406-0.032-1.094-1.906-109.592 64.75-178.152 35.904-36.92 85.934-55.764 148.652-55.984a21.32 21.32 0 0 0 20.406-15.406c0.496-1.718 12.028-42.688 0.372-97.53z" fill="#A0D468" /><path d="M435.938 413.584L107.696 374.334a21.316 21.316 0 0 0-21.594 11.594c-2.468 4.906-4.718 12.938-1.282 23.188 5.656 16.874 27.156 42.966 143.966 108.686 31.75 17.876 63.25 34.482 86.656 46.576 0 0 6.5-117.202 120.496-150.794z" fill="#8CC153" /><path d="M749.214 318.648c-38.438-8.968-94.75-19.592-145.654-19.592-31.966 0-58.374 4.282-78.53 12.782-38.718 16.342-74.156 74.466-89.092 101.748 0 0 53 13.906 159.998-15.28 143.998-39.284 153.278-79.658 153.278-79.658z" fill="#434A54" /><path d="M437.47 756.5l-165.496-170.434 43.468-21.688 183.808 192.122zM490.656 543.208c-35.28 0-63.998 28.672-63.998 63.984 0 35.28 28.718 63.998 63.998 63.998 35.312 0 64-28.718 64-63.998 0-35.314-28.688-63.984-64-63.984z" fill="#E6E9ED" /><path d="M569.75 656.096c8.344 8.312 8.344 21.844 0 30.156-8.344 8.344-21.844 8.344-30.156 0-8.344-8.312-8.344-21.844 0-30.156 8.312-8.344 21.812-8.344 30.156 0z" fill="#F5F7FA" /><path d="M786.62 462.052l-133.624 65.876 79.688 80.638c8.938-18.282 20.656-36.25 36.062-52.062 21.342-21.952 47.686-37.514 78.714-46.578l-60.84-47.874z" fill="#E6E9ED" /></svg>