<?xml version="1.0" standalone="no"?><!DOCTYPE svg PUBLIC "-//W3C//DTD SVG 1.1//EN" "http://www.w3.org/Graphics/SVG/1.1/DTD/svg11.dtd"><svg class="icon" width="128px" height="128.00px" viewBox="0 0 1024 1024" version="1.1" xmlns="http://www.w3.org/2000/svg"><path d="M500.972 533.342H330.48c-11.78 0-21.312-9.562-21.312-21.342a21.3 21.3 0 0 1 21.312-21.312h170.492c11.78 0 21.342 9.532 21.342 21.312 0 11.78-9.562 21.342-21.342 21.342z" fill="#434A54" /><path d="M692.962 128.02v213.332l67.028 42.654h35.372l68.248-42.654V128.02z" fill="#ED5564" /><path d="M778.3 871.668c-11.78 0-21.342-9.532-21.342-21.312V83.146c0-11.78 9.562-21.342 21.342-21.342 11.782 0 21.31 9.562 21.31 21.342v767.208a21.296 21.296 0 0 1-21.31 21.314z" fill="#FFCE54" /><path d="M543.814 432.004s40.996-59.714 38.84-104.962c-8-166.336-194.02-134.338-297.796-263.018h-61.028c-8.312 128.93 256.33 144.21 262.58 250.236 2.906 48.842-27.968 107.712-27.968 107.712v180.084s30.874 58.874 27.968 107.682c-6.25 106.058-270.892 121.306-262.58 250.238h61.028c103.776-128.682 289.796-96.684 297.796-262.986 2.156-45.28-38.84-104.994-38.84-104.994v-159.992z" fill="#656D78" /><path d="M223.83 95.834h42.654v832.362h-42.654z" fill="#E6E9ED" /><path d="M245.172 85.366m-63.996 0a63.996 63.996 0 1 0 127.992 0 63.996 63.996 0 1 0-127.992 0Z" fill="#ED5564" /><path d="M245.172 170.706c-47.06 0-85.34-38.28-85.34-85.34 0-47.058 38.28-85.338 85.34-85.338 47.028 0 85.308 38.28 85.308 85.338 0 47.06-38.278 85.34-85.308 85.34z m0-127.996c-23.53 0-42.686 19.124-42.686 42.654 0 23.532 19.156 42.654 42.686 42.654s42.654-19.124 42.654-42.654c0.002-23.528-19.122-42.654-42.654-42.654z" fill="#DA4453" /><path d="M260.234 100.458c-8.312 8.312-21.812 8.312-30.154 0a21.33 21.33 0 0 1 0-30.186c8.342-8.312 21.842-8.312 30.154 0a21.33 21.33 0 0 1 0 30.186z" fill="#DA4453" /><path d="M245.172 938.664m-63.996 0a63.996 63.996 0 1 0 127.992 0 63.996 63.996 0 1 0-127.992 0Z" fill="#ED5564" /><path d="M245.172 1023.972c-47.06 0-85.34-38.28-85.34-85.308 0-47.058 38.28-85.34 85.34-85.34 47.028 0 85.308 38.282 85.308 85.34 0 47.03-38.278 85.308-85.308 85.308z m0-127.992c-23.53 0-42.686 19.154-42.686 42.684 0 23.5 19.156 42.654 42.686 42.654s42.654-19.154 42.654-42.654c0.002-23.53-19.122-42.684-42.654-42.684z" fill="#DA4453" /><path d="M260.234 953.726c-8.312 8.344-21.812 8.344-30.154 0-8.344-8.312-8.344-21.844 0-30.156 8.342-8.342 21.842-8.342 30.154 0 8.344 8.312 8.344 21.844 0 30.156z" fill="#DA4453" /><path d="M860.39 777.204a21.266 21.266 0 0 0-17.56-9.216h-129.088c-7 0-13.562 3.436-17.56 9.216a21.332 21.332 0 0 0-2.376 19.688l64.528 170.524a21.34 21.34 0 0 0 19.966 13.78c8.844 0 16.81-5.468 19.936-13.78l64.56-170.524a21.42 21.42 0 0 0-2.406-19.688z" fill="#E6E9ED" /></svg>