<?xml version="1.0" standalone="no"?><!DOCTYPE svg PUBLIC "-//W3C//DTD SVG 1.1//EN" "http://www.w3.org/Graphics/SVG/1.1/DTD/svg11.dtd"><svg class="icon" width="128px" height="128.00px" viewBox="0 0 1024 1024" version="1.1" xmlns="http://www.w3.org/2000/svg"><path d="M974.134 785.774c-8.344 8.312-8.344 21.844 0 30.156l-0.188-0.188c1.312 1.376 5.032 6.124 6.624 11.56 1.344 4.75 1.656 10.688-6.438 18.81-8.124 8.094-14.062 7.782-18.812 6.406-5.376-1.532-10.062-5.188-11.5-6.532l-60.214-60.214c-8.344-8.344-21.842-8.344-30.124 0-8.342 8.312-8.342 21.844 0 30.156l60.31 60.308c18.186 18.188 57.308 33.216 90.494 0 33.216-33.154 18.216-72.278 0-90.464-8.308-8.342-21.838-8.342-30.152 0.002z" fill="#434A54" /><path d="M398.494 595.316c-8.376 8.342-21.842 8.342-30.186 0l-30.186-30.156c-8.312-8.344-8.312-21.842 0-30.186a21.33 21.33 0 0 1 30.186 0l30.186 30.186c8.28 8.312 8.28 21.812 0 30.156zM519.142 474.634a21.334 21.334 0 0 1-30.186 0L458.8 444.448c-8.342-8.312-8.342-21.842 0-30.156 8.312-8.342 21.842-8.342 30.156 0l30.186 30.156c8.314 8.342 8.314 21.842 0 30.186zM639.778 353.984c-8.312 8.312-21.81 8.312-30.124 0l-30.188-30.186a21.33 21.33 0 0 1 0-30.186c8.312-8.312 21.844-8.312 30.188 0l30.124 30.186a21.334 21.334 0 0 1 0 30.186zM760.458 233.27c-8.312 8.344-21.844 8.344-30.156 0l-30.186-30.154c-8.31-8.344-8.31-21.842 0-30.186 8.344-8.312 21.842-8.312 30.186 0l30.156 30.186c8.344 8.312 8.344 21.842 0 30.154z" fill="#4A89DC" /><path d="M764.116 199.46c-8.312-8.344-21.844-8.344-30.156 0L6.264 927.14c-8.312 8.344-8.312 21.844 0 30.188l60.34 60.34a21.356 21.356 0 0 0 30.186 0l727.696-727.712c4-4 6.218-9.406 6.218-15.062s-2.218-11.094-6.218-15.092L764.116 199.46z" fill="#5D9CEC" /><path d="M247.626 685.81L6.264 927.14c-8.312 8.344-8.312 21.844 0 30.188l60.34 60.34a21.356 21.356 0 0 0 30.186 0l241.332-241.332-90.496-90.526z" fill="#656D78" /><path d="M247.626 685.81c-20.156 20.154-31.25 46.936-31.25 75.434s11.094 55.28 31.25 75.434c20.156 20.124 46.934 31.186 75.434 31.186 28.466 0.032 55.278-11.062 75.434-31.186 41.56-41.592 41.56-109.276 0-150.868-41.592-41.592-109.278-41.592-150.868 0z" fill="#CCD1D9" /><path d="M338.122 896.988a21.29 21.29 0 0 1-15.062 6.248c-11.782 0-21.342-9.56-21.342-21.342v-120.65c0-11.78 9.562-21.342 21.342-21.342s21.312 9.562 21.312 21.342v120.65c0 5.876-2.376 11.22-6.25 15.094z" fill="#E6E9ED" /><path d="M142.038 972.422l30.154-30.188-90.494-90.496-30.156 30.156zM202.346 912.08l30.188-30.186-90.496-90.496-30.156 30.188z" fill="#434A54" /><path d="M755.178 43.156C727.802 17.846 690.182 3.096 646.37 0.502c-63.714-3.782-132.446 18.156-188.504 60.184-62.996 47.216-103.212 115.556-113.276 192.49-10.28 78.464 4.718 151.274 44.53 216.49 31.404 51.436 78.214 97.932 139.056 138.244 102.166 67.622 208.036 94.276 212.472 95.4a21.322 21.322 0 0 0 20.218-5.654 21.234 21.234 0 0 0 5.624-9.938c2.812-11.438-4.156-22.998-15.562-25.842-1.032-0.25-104.058-26.312-200.084-90.152-55.356-36.78-97.634-78.778-125.602-124.776-34.374-56.528-47.278-119.87-38.342-188.24 10.968-83.87 58.528-135.4 96.558-163.866 47.404-35.53 107.384-54.874 160.412-51.748 33.844 2.032 62.31 12.876 82.34 31.406 21.562 19.936 32.876 48.09 33.562 83.682-0.468 2.624-2.688 12-11.938 25l30.466 30.468c21.842-28 23.936-50.06 24.124-52.842 0.032-0.562 0.062-1.062 0.032-1.624-0.564-47.812-16.906-87.936-47.278-116.028z" fill="#E6E9ED" /><path d="M793.612 656.25c-25.152-8.376-46.746-5.25-60.84 8.812-14.062 14.092-17.186 35.684-8.812 60.84 6.718 20.188 20.594 41.436 39 59.872 18.404 18.406 39.652 32.25 59.84 38.968 25.154 8.404 46.778 5.28 60.808-8.812 14.062-14.062 17.218-35.688 8.812-60.842-6.718-20.186-20.562-41.436-38.936-59.84-18.436-18.406-39.686-32.248-59.872-38.998z" fill="#AC92EB" /></svg>