<?xml version="1.0" standalone="no"?><!DOCTYPE svg PUBLIC "-//W3C//DTD SVG 1.1//EN" "http://www.w3.org/Graphics/SVG/1.1/DTD/svg11.dtd"><svg class="icon" width="128px" height="128.00px" viewBox="0 0 1024 1024" version="1.1" xmlns="http://www.w3.org/2000/svg"><path d="M821.296 341.286h-165.622c-11.75 0-21.31 9.562-21.31 21.342v106.668c0 11.782 9.56 21.328 21.31 21.328h165.622c11.812 0 21.376-9.546 21.376-21.328v-106.668c0-11.782-9.562-21.342-21.376-21.342z" fill="#CCD1D9" /><path d="M693.298 981.3s-48.374 42.656-213.322 42.656c-164.934 0-213.338-42.656-213.338-42.656v-106.684l-21.312-106.56h469.348l-21.376 106.56v106.684zM266.67 42.682S315.074 0.012 480.008 0.012c164.98 0 213.354 42.67 213.354 42.67v106.67l21.312 106.544h-469.38l21.376-106.544V42.682z" fill="#A0D468" /><path d="M693.362 85.338V42.682S644.988 0.012 480.008 0.012c-164.934 0-213.338 42.67-213.338 42.67v42.656s48.404-42.656 213.338-42.656c164.98 0 213.354 42.656 213.354 42.656zM266.67 938.678v42.624s48.404 42.688 213.338 42.688c164.98 0 213.354-42.688 213.354-42.688v-42.624s-48.374 42.624-213.354 42.624c-164.934-0.002-213.338-42.624-213.338-42.624z" fill="#FFFFFF" opacity=".2" /><path d="M778.674 533.296c-11.812 0-21.376 9.546-21.376 21.326v106.686c0 11.75 9.562 21.312 21.376 21.312 11.75 0 21.312-9.562 21.312-21.312v-106.686c0-11.778-9.562-21.326-21.312-21.326z" fill="#CCD1D9" /><path d="M693.298 213.288h-426.66c-47.124 0-85.31 38.204-85.31 85.342v426.68c0 47.122 38.186 85.308 85.31 85.308h426.66c47.124 0 85.376-38.188 85.376-85.308v-426.68c0-47.14-38.25-85.342-85.376-85.342z" fill="#656D78" /><path d="M693.298 213.288h-42.624c47.124 0 85.31 38.204 85.31 85.342v426.68c0 47.122-38.188 85.308-85.31 85.308h42.624c47.124 0 85.376-38.188 85.376-85.308v-426.68c0-47.14-38.25-85.342-85.376-85.342z" fill="#FFFFFF" opacity=".1" /><path d="M374.95 320.05c-12.218 0-23.218 4.688-31.156 12.234-7.906-7.546-18.938-12.234-31.124-12.234-24.06 0-43.592 18.25-43.592 40.75 0 46.546 74.716 87.28 74.716 87.28s74.716-40.734 74.716-87.28c0-22.5-19.5-40.75-43.56-40.75z" fill="#A0D468" /><path d="M674.05 362.722h-170.324c-11.782 0-21.312-9.546-21.312-21.328s9.532-21.344 21.312-21.344h170.324c11.75 0 21.31 9.562 21.31 21.344 0.002 11.78-9.56 21.328-21.31 21.328zM610.428 448.048h-106.702c-11.782 0-21.312-9.546-21.312-21.328s9.532-21.328 21.312-21.328h106.702c11.75 0 21.312 9.546 21.312 21.328 0 11.78-9.562 21.328-21.312 21.328z" fill="#CCD1D9" /><path d="M439.822 725.308a21.22 21.22 0 0 1-15.094-6.25c-8.312-8.312-138.84-21.812-130.528-30.156l-0.376-78.532c8.342-8.342 238.086-15.124 246.398-6.81 8.328 8.342 8.328 21.874 0 30.186l-85.308 85.312a21.208 21.208 0 0 1-15.092 6.25z" fill="#ED5564" /><path d="M296.67 518.25c-8.344 8.328-8.344 21.828 0 30.186 8.31 8.312 21.842 8.312 30.154 0 8.344-8.358 8.344-21.858 0-30.186-8.312-8.328-21.844-8.328-30.154 0zM381.98 518.25c-8.312 8.328-8.312 21.828 0 30.186 8.342 8.312 21.842 8.312 30.186 0 8.312-8.358 8.312-21.858 0-30.186-8.344-8.328-21.844-8.328-30.186 0zM467.322 518.25c-8.344 8.328-8.344 21.828 0 30.186 8.342 8.312 21.842 8.312 30.154 0 8.344-8.358 8.344-21.858 0-30.186-8.312-8.328-21.812-8.328-30.154 0zM552.678 518.25c-8.376 8.328-8.376 21.828 0 30.186 8.312 8.312 21.812 8.312 30.124 0 8.376-8.358 8.376-21.858 0-30.186-8.312-8.328-21.812-8.328-30.124 0zM668.176 518.25c-8.376-8.328-21.876-8.328-30.186 0-8.312 8.328-8.312 21.828 0 30.186 8.31 8.312 21.81 8.312 30.186 0 8.312-8.358 8.312-21.858 0-30.186z" fill="#434A54" /><path d="M674.426 725.308H290.42c-11.782 0-21.344-9.532-21.344-21.312v-85.312c0-11.81 9.562-21.374 21.344-21.374h384.006c11.75 0 21.31 9.562 21.31 21.374v85.312c0 11.782-9.56 21.312-21.31 21.312z m-362.696-42.624h341.32v-42.688h-341.32v42.688z" fill="#434A54" /></svg>