<?xml version="1.0" standalone="no"?><!DOCTYPE svg PUBLIC "-//W3C//DTD SVG 1.1//EN" "http://www.w3.org/Graphics/SVG/1.1/DTD/svg11.dtd"><svg class="icon" width="128px" height="128.00px" viewBox="0 0 1024 1024" version="1.1" xmlns="http://www.w3.org/2000/svg"><path d="M21.642 490.67C9.868 490.67 0.328 500.226 0.328 512c-0.016 11.774 9.54 21.33 21.314 21.33h41.02v-42.66h-41.02z" fill="#434A54" /><path d="M332.49 554.628a21.31 21.31 0 0 1-21.33 21.33H64.288a21.308 21.308 0 0 1-21.33-21.33v-85.258c0-11.774 9.542-21.33 21.33-21.33H311.16c11.79 0 21.33 9.556 21.33 21.33v85.258z" fill="#969FAA" /><path d="M668.712 575.958c0 11.774 33.104 21.33 21.33 21.33H277.478c-11.774 0-21.33-9.556-21.33-21.33V448.04c0-11.774 9.556-21.33 21.33-21.33h412.564c11.774 0-21.33 9.556-21.33 21.33v127.918z" fill="#AAB2BC" /><path d="M938.382 597.29c0 11.774-9.524 21.298-21.328 21.298H575.958c-11.804 0-21.33-9.526-21.33-21.298v-170.578c0-11.742 9.526-21.298 21.33-21.298h341.096c11.804 0 21.328 9.556 21.328 21.298v170.578z" fill="#CCD1D9" /><path d="M895.754 639.95c0 11.742 9.556 21.298 21.3 21.298h85.29c11.774 0 21.328-9.556 21.328-21.298V384.082c0-11.774-9.554-21.33-21.328-21.33h-85.29c-11.744 0-21.3 9.556-21.3 21.33v255.868z" fill="#E6E9ED" /></svg>