<?xml version="1.0" standalone="no"?><!DOCTYPE svg PUBLIC "-//W3C//DTD SVG 1.1//EN" "http://www.w3.org/Graphics/SVG/1.1/DTD/svg11.dtd"><svg class="icon" width="128px" height="128.00px" viewBox="0 0 1024 1024" version="1.1" xmlns="http://www.w3.org/2000/svg"><path d="M895.548 224.058l-29.624-143.244a21.36 21.36 0 0 0-10.562-14.344 21.396 21.396 0 0 0-17.748-1.344c-68.844 25.562-69.624 122.62-69.624 126.746 0 8.562 5.094 16.282 12.938 19.624l85.342 36.498c2.688 1.156 5.532 1.718 8.376 1.718 4.844 0 9.624-1.656 13.498-4.812a21.374 21.374 0 0 0 7.404-20.842zM576 917.546c-0.812 0-1.624-0.032-2.438-0.032l-41.404-363.08c8.966-1.032 16.654-7.718 18.498-17.078 0.5-2.438 11.876-60.654 11.25-133.868-0.906-100.528-23.376-177.336-66.81-228.272-41.234-48.374-99.934-71.496-174.446-68.716-62.606 2.312-118.23 13.188-165.32 32.342-38.42 15.624-71.31 36.748-97.748 62.778C11.584 246.9 0.976 291.836 0.554 293.742a21.34 21.34 0 0 0 6.782 20.812 21.4 21.4 0 0 0 21.544 3.876c0.532-0.218 52.874-19.75 111.636-21.936 73.56-2.782 121.526 22.374 142.604 74.716 15.454 38.404 7.124 104.276-1.688 174.04-14.53 115.056-31 245.458 44.248 330.798C375.616 932.668 457.488 960.2 576 960.2c11.782 0 21.344-9.532 21.344-21.344 0-11.782-9.562-21.31-21.344-21.31z" fill="#E9573F" /><path d="M998.668 369.116c-8.748-29.812-18.216-57.53-18.624-58.716a23.02 23.02 0 0 0-2.468-4.968c-0.75-1.124-18.716-27.748-44.31-54.716-36.904-38.874-70.84-58.592-100.9-58.592-66.438 0-99.996 35.75-101.402 37.28a21.46 21.46 0 0 0-4.656 8.092l-40.25 129.808c-34.874 14.312-146.9 67.436-180.306 169.524-21.342 65.202-31.888 127.478-31.374 185.102 0.422 46.716 8.062 90.496 22.734 130.184 25.438 68.778 63.452 101.65 65.076 103.026a21.26 21.26 0 0 0 13.812 5.062h341.298c3.876 0 7.654-1.032 10.966-3.032 5.406-3.218 52.748-32.716 52.936-73.778 0-6.124-1.718-15.218-10.156-23.686-12.686-12.718-38.404-20.594-80.996-24.718-12.28-1.218-24.124-1.906-33.874-2.312l13.656-107.558h-44.498v-154.494h61.184l7.562-80.166h47.342c20.25 0 56.902-18.156 68.122-37.468 5.344-9.222 7.72-20.626-10.874-83.874z" fill="#FC6E51" /><path d="M746.648 85.126s-24.936 9.344-33.03 77.84c-7.656 64.748 33.248 178.148 33.248 178.148l85.06-42.654-85.278-213.334z" fill="#E9573F" /><path d="M746.868 362.458c-8.75 0-16.936-5.406-20.06-14.092-1.75-4.812-42.532-118.932-34.376-187.898 8.906-75.56 38.032-92.06 46.748-95.31a21.316 21.316 0 0 1 27.28 12.062l85.28 213.336c4.376 10.936-0.966 23.342-11.904 27.716s-23.344-0.968-27.718-11.906l-70.31-175.836c-2.718 8.688-5.25 20.062-6.998 34.936-2.812 23.906 1.748 60.404 13.248 105.59 8.906 35.06 18.78 62.56 18.874 62.84 4 11.062-1.75 23.31-12.81 27.31a21.844 21.844 0 0 1-7.254 1.252zM1022.574 548.936c-3.438-14.234-11.906-25.388-24.468-32.202-9.436-5.124-21.186-7.718-34.872-7.718-31.938 0-69.998 14.28-85.122 20.528l-84.124-17.31a21.268 21.268 0 0 0-17.75 4.312 21.366 21.366 0 0 0-7.876 16.498l-0.376 102.482c-0.032 11.278 8.688 20.622 19.906 21.372l83.06 5.5c0.468 0.032 0.938 0.062 1.406 0.062 1.906 0 3.812-0.25 5.656-0.782 62.122-17.124 103.244-36.278 125.774-58.528 21.286-21.028 21.974-41.09 18.786-54.214z" fill="#FC6E51" /><path d="M895.986 362.458c0 11.782-9.562 21.344-21.342 21.344-11.782 0-21.344-9.562-21.344-21.344s9.562-21.342 21.344-21.342c11.78 0 21.342 9.562 21.342 21.342z" fill="#434A54" /><path d="M760.868 605.808c-61.404-5.688-99.53 12.688-99.53 12.688l184.59 42.246s-5.97-47.59-85.06-54.934z" fill="#E9573F" /><path d="M890.048 834.986c-12.28-1.218-24.124-1.906-33.874-2.312l13.562-106.652-0.624-0.906c12.06-94.212-122.464-106.62-207.776-106.62l43.312 279.3 159.994-18.656 29.186-43.78-3.78-0.374z" fill="#FC6E51" /><path d="M809.958 509.672l-15.968 2.564 84.124 17.308 12.748-4.968 0.656-6.998z" fill="#E9573F" /></svg>