<?xml version="1.0" standalone="no"?><!DOCTYPE svg PUBLIC "-//W3C//DTD SVG 1.1//EN" "http://www.w3.org/Graphics/SVG/1.1/DTD/svg11.dtd"><svg class="icon" width="128px" height="128.00px" viewBox="0 0 1024 1024" version="1.1" xmlns="http://www.w3.org/2000/svg"><path d="M469.314 192.016h-42.656c-11.782 0-21.344-9.562-21.344-21.342s9.562-21.344 21.344-21.344h42.656c11.78 0 21.342 9.562 21.342 21.344s-9.562 21.342-21.342 21.342zM767.96 192.016h-42.656c-11.782 0-21.31-9.562-21.31-21.342s9.53-21.344 21.31-21.344h42.656c11.782 0 21.344 9.562 21.344 21.344s-9.562 21.342-21.344 21.342z" fill="#3880CE" /><path d="M426.658 170.674H362.66c-11.782 0-21.344-9.562-21.344-21.344 0-11.78 9.562-21.312 21.344-21.312h63.998c11.782 0 21.344 9.532 21.344 21.312 0 11.782-9.562 21.344-21.344 21.344zM725.304 170.674h-63.996c-11.782 0-21.312-9.562-21.312-21.344a21.3 21.3 0 0 1 21.312-21.312h63.996c11.782 0 21.344 9.532 21.344 21.312 0 11.782-9.562 21.344-21.344 21.344z" fill="#5D9CEC" /><path d="M512 320.014c-270.992 0-490.674 57.28-490.674 127.996v341.288c0 70.684 219.682 127.996 490.674 127.996 270.96 0 490.64-57.312 490.64-127.996V448.01c0-70.718-219.68-127.996-490.64-127.996z" fill="#E6E9ED" /><path d="M1002.64 448.01c0 70.686-219.68 127.98-490.64 127.98-270.992 0-490.674-57.294-490.674-127.98 0-70.716 219.682-127.996 490.674-127.996 270.96 0 490.64 57.278 490.64 127.996z" fill="#AC92EB" /><path d="M575.964 513.946c-3.28 0-6.592-0.75-9.716-2.344-10.468-5.376-14.624-18.218-9.25-28.718l85.342-166.588c5.344-10.468 18.218-14.624 28.688-9.25 10.498 5.376 14.654 18.218 9.28 28.718l-85.342 166.588c-3.782 7.374-11.252 11.594-19.002 11.594zM448.002 513.946c-7.75 0-15.218-4.218-19-11.594l-85.342-166.588c-5.376-10.5-1.218-23.342 9.282-28.718 10.468-5.376 23.344-1.218 28.688 9.25l85.342 166.588c5.374 10.5 1.218 23.344-9.25 28.718a21.3 21.3 0 0 1-9.72 2.344zM703.994 536.04a21.334 21.334 0 0 1-18.624-10.906c-5.75-10.282-2.094-23.282 8.188-29.032l233.182-130.652c10.282-5.75 23.28-2.094 29.03 8.188s2.094 23.28-8.188 29.062l-233.184 130.62a21.202 21.202 0 0 1-10.404 2.72zM319.974 536.04c-3.532 0-7.124-0.876-10.406-2.718L76.386 402.698c-10.28-5.782-13.936-18.78-8.188-29.062 5.75-10.282 18.75-13.938 29.032-8.188l233.182 130.652c10.28 5.75 13.936 18.75 8.186 29.032a21.326 21.326 0 0 1-18.624 10.908z" fill="#967ADC" /><path d="M667.028 482.226c-41.656-8.312-96.686-12.906-155.028-12.906-58.374 0-113.402 4.594-155.058 12.906-37.06 7.438-79.624 19.938-79.624 51.094 0 31.17 42.562 43.67 79.624 51.108 41.656 8.312 96.686 12.874 155.058 12.874 58.342 0 113.372-4.56 155.028-12.874 37.06-7.438 79.622-19.938 79.622-51.108-0.002-31.156-42.562-43.656-79.622-51.094z" fill="#A0D468" /><path d="M362.66 347.356c-11.782 0-21.344-9.53-21.344-21.312V106.676c0-11.782 9.562-21.344 21.344-21.344s21.344 9.562 21.344 21.344v219.368c0 11.782-9.562 21.312-21.344 21.312zM661.308 347.356a21.298 21.298 0 0 1-21.312-21.312V106.676c0-11.782 9.532-21.344 21.312-21.344s21.342 9.562 21.342 21.344v219.368c0 11.782-9.56 21.312-21.342 21.312z" fill="#434A54" /><path d="M448.002 751.734h127.962v151.058h-127.962z" fill="#3880CE" /><path d="M594.934 926.356c-22.248 0-40.31-8.688-40.31-19.438v-155.308c0-10.75 18.062-19.438 40.31-19.438 22.25 0 40.312 8.688 40.312 19.438v155.308c0 10.75-18.062 19.438-40.312 19.438zM429.002 926.356c-22.25 0-40.31-8.688-40.31-19.438v-155.308c0-10.75 18.06-19.438 40.31-19.438 22.282 0 40.312 8.688 40.312 19.438v155.308c0 10.75-18.03 19.438-40.312 19.438z" fill="#5D9CEC" /><path d="M975.268 380.012c-26.5-16.344-63.842-30.876-110.966-43.156-94.372-24.624-219.492-38.186-352.3-38.186-132.84 0-257.96 13.562-352.334 38.186-47.124 12.28-84.466 26.812-110.964 43.156C16.392 399.948 0.018 422.822 0.018 448.01v341.288c0 25.188 16.374 48.06 48.686 67.996 26.498 16.376 63.842 30.876 110.964 43.188C254.04 925.106 379.16 938.668 512 938.668c132.808 0 257.93-13.562 352.3-38.188 47.124-12.312 84.466-26.812 110.966-43.188 32.31-19.936 48.716-42.808 48.716-67.996V448.01c0.002-25.188-16.404-48.062-48.714-67.998zM831.99 864.48c-50.124 11.562-108.06 20.188-170.682 25.438v-126.434c65.246-4.312 122.214-11.688 170.682-22.062v123.058z m-170.682-143.868v-129.246c62.058-5.062 119.934-13.376 170.682-24.5v130.808c-52.154 11.812-111.56 18.874-170.682 22.938zM192.01 741.422c48.436 10.376 105.402 17.75 170.65 22.062v126.434c-62.624-5.25-120.558-13.876-170.65-25.438v-123.058z m0-43.874v-130.684c50.716 11.124 108.59 19.438 170.65 24.5v129.246c-72.342-4.936-127.964-13.374-170.65-23.062z m-149.34-185.446a156.392 156.392 0 0 0 6.032 3.876c24.53 15.124 58.374 28.702 100.622 40.388v129.934c-18.374-5.624-33.31-11.436-45.374-16.998-54.28-24.938-60.716-48.876-61.28-51.624v-105.576z m362.644 82.2c34.688 1.998 70.374 2.998 106.686 2.998 36.28 0 71.964-1 106.652-2.998v128.682c-37.062 1.688-73.248 2.312-106.652 2.312-38.718 0-74.186-0.812-106.686-2.25v-128.744z m469.33-37.936c42.25-11.688 76.092-25.264 100.624-40.388a153.932 153.932 0 0 0 6.03-3.876v106.574c0 0.188-5.28 21.812-49.872 45.062-16.624 8.688-35.782 16.186-56.782 22.686v-130.058zM170.416 378.136c90.966-23.75 212.276-36.812 341.584-36.812 129.278 0 250.586 13.062 341.55 36.812 100.842 26.312 127.746 56.28 127.746 69.874 0 13.562-26.904 43.53-127.746 69.842-57.278 14.938-126.558 25.656-202.274 31.514-3.282-2-7.124-3.25-11.282-3.25-5.25 0-10.032 1.876-13.75 5a1833.74 1833.74 0 0 1-228.524 0 21.246 21.246 0 0 0-13.718-5c-4.188 0-8.032 1.25-11.312 3.25-75.716-5.858-144.996-16.576-202.276-31.514-100.842-26.312-127.746-56.28-127.746-69.842 0.002-13.594 26.906-43.562 127.748-69.874z m-127.746 411.16V682.86c8.312 6.25 18.25 12.5 30.124 18.688 21.438 11.188 47 20.998 76.53 29.374v122.374c-83.56-24.752-106.654-51.436-106.654-64z m362.644 103.622v-127.122c33.594 1.438 69.154 2.188 106.686 2.188 37.498 0 73.058-0.75 106.652-2.188v127.122A1851.78 1851.78 0 0 1 512 895.98a1852.08 1852.08 0 0 1-106.686-3.062z m469.33-39.624V730.92c29.532-8.376 55.094-18.186 76.53-29.374 11.876-6.188 21.812-12.438 30.124-18.688v106.436c-0.002 12.566-23.092 39.25-106.654 64z" fill="#CCD1D9" /></svg>