<?xml version="1.0" standalone="no"?><!DOCTYPE svg PUBLIC "-//W3C//DTD SVG 1.1//EN" "http://www.w3.org/Graphics/SVG/1.1/DTD/svg11.dtd"><svg class="icon" width="128px" height="128.00px" viewBox="0 0 1024 1024" version="1.1" xmlns="http://www.w3.org/2000/svg"><path d="M895.998 831.992c0 93.842-76.81 170.652-170.684 170.652H298.686c-93.874 0-170.668-76.81-170.668-170.652V192.006c0-93.874 76.794-170.684 170.668-170.684h426.628c93.874 0 170.684 76.81 170.684 170.684v639.986z" fill="#515151" /><path d="M895.998 831.992c0 93.842-76.81 170.652-170.684 170.652H298.686c-93.874 0-170.668-76.81-170.668-170.652V192.006c0-93.874 76.794-170.684 170.668-170.684h426.628c93.874 0 170.684 76.81 170.684 170.684v639.986z" fill="#E9573F" /><path d="M298.686 874.648h426.628c11.376 0 21.75-4.376 30.062-12.656 8.25-8.25 12.624-18.656 12.624-30V192.006c0-11.376-4.376-21.78-12.624-30.03-8.312-8.282-18.688-12.656-30.062-12.656H298.686c-11.376 0-21.75 4.376-30.032 12.656-8.266 8.25-12.64 18.656-12.64 30.03v639.986c0 11.344 4.376 21.75 12.64 30 8.282 8.282 18.656 12.656 30.032 12.656z" fill="#A0D468" /><path d="M725.314 0.012H298.686c-105.874 0-191.996 86.124-191.996 191.996v639.986c0 105.842 86.124 191.996 191.996 191.996h426.628c105.874 0 191.996-86.154 191.996-191.996V192.006c0-105.872-86.122-191.994-191.996-191.994z m143.122 149.308H846c-6.312-17.688-16.562-33.938-30.312-47.686a130.542 130.542 0 0 0-26.374-20.374V57.134c15.188 7.25 29.186 17.124 41.466 29.406 17.844 17.876 30.656 39.374 37.656 62.78z m6.25 85.342h-21.374V192.006h21.374v42.656zM149.344 789.304h21.344v42.688H149.344v-42.688z m661.346 0h-21.376v-42.654h21.376v42.654z m-21.376-554.642h21.376v42.656h-21.376v-42.656z m0 85.342h21.376v42.656h-21.376v-42.656z m0 85.31h21.376V448h-21.376v-42.686z m0 85.342h21.376v42.656h-21.376v-42.656z m0 85.342h21.376v42.654h-21.376v-42.654z m0 85.31h21.376v42.688h-21.376v-42.688z m21.376-469.302h-21.376c0-17.156-6.5-32.78-18.876-45.124-7-7-15-12.124-23.75-15.25V109.384c14.5 3.812 27.844 11.436 38.844 22.406 16.22 16.218 25.158 37.592 25.158 60.216zM320.012 895.992h42.672v21.31h-42.672v-21.31z m213.322 0v21.31H490.68v-21.31h42.654z m-85.324 21.31h-42.672v-21.31h42.672v21.31z m127.996 0v-21.31h42.688v21.31h-42.688z m85.31-21.31h42.686v21.31h-42.686v-21.31z m78.936-49.062c-4.218 4.218-9.25 6.376-14.938 6.376H298.686c-5.672 0-10.704-2.156-14.954-6.376-4.234-4.25-6.39-9.282-6.39-14.938V192.006c0-5.688 2.156-10.718 6.406-14.968 4.234-4.218 9.266-6.376 14.938-6.376h426.628c5.688 0 10.718 2.156 14.938 6.406 4.25 4.218 6.438 9.25 6.438 14.936v639.986c0 5.658-2.188 10.69-6.438 14.94zM704.002 128.008h-42.686V106.666h42.686v21.342z m-213.322 0V106.666h42.654v21.342H490.68z m85.326-21.342h42.688v21.342h-42.688V106.666z m-127.996 0v21.342h-42.672V106.666h42.672z m-85.326 21.342h-42.672V106.666h42.672v21.342z m256.01-63.998V42.666h42.624v21.344h-42.624z m-42.688 0h-42.672V42.666h42.672v21.344z m-85.326 0h-42.67V42.666h42.67v21.344z m-85.342 0h-42.654V42.666h42.654v21.344z m-166.856 67.78c10.984-10.968 24.36-18.592 38.86-22.406v22.25c-8.75 3.124-16.782 8.25-23.766 15.25-12.36 12.344-18.89 27.968-18.89 45.124h-21.342c0-22.626 8.936-44 25.138-60.218z m-3.796 657.514h-21.342v-42.654h21.342v42.654z m0-85.308h-21.342v-42.688h21.342v42.688z m0-85.344h-21.342v-42.654h21.342v42.654z m0-85.34h-21.342v-42.656h21.342v42.656z m0-85.312h-21.342v-42.686h21.342V448z m0-85.34h-21.342v-42.656h21.342v42.656z m0-85.342h-21.342v-42.656h21.342v42.656z m-63.998-42.656H149.344V192.006h21.344v42.656z m0 42.656v42.656H149.344v-42.656h21.344z m0 85.342v42.656H149.344V362.66h21.344z m0 85.31v42.686H149.344v-42.686h21.344z m0 85.342v42.654H149.344v-42.654h21.344z m0 85.34v42.656H149.344v-42.656h21.344z m0 85.312v42.686H149.344v-42.686h21.344z m63.998 128.028c0 17.124 6.532 32.75 18.89 45.094 6.984 7 15.016 12.124 23.766 15.25v22.248c-14.5-3.812-27.876-11.438-38.86-22.404-16.204-16.218-25.138-37.594-25.138-60.188h21.342z m170.652 127.996v21.312h-42.654v-21.312h42.654z m42.672 0h42.67v21.312h-42.67v-21.312z m85.324 0h42.672v21.312h-42.672v-21.312z m85.36 0h42.624v21.312h-42.624v-21.312z m166.84-67.808c-10.968 10.966-24.344 18.592-38.844 22.404v-22.248c8.75-3.124 16.75-8.25 23.75-15.25 12.376-12.344 18.876-27.968 18.876-45.094h21.376c-0.002 22.594-8.94 43.968-25.158 60.188z m67.778-102.876h21.374v42.688h-21.374v-42.688z m0-42.654v-42.686h21.374v42.686h-21.374z m0-85.342v-42.656h21.374v42.656h-21.374z m0-85.342v-42.654h21.374v42.654h-21.374z m0-85.31v-42.686h21.374v42.686h-21.374z m0-85.342V362.66h21.374v42.656h-21.374z m0-85.342v-42.656h21.374v42.656h-21.374zM746.69 44.198v21.594a127.52 127.52 0 0 0-21.376-1.782h-21.312V42.666h21.312c7.22 0 14.344 0.5 21.376 1.532z m-426.678-1.532v21.344h-21.326c-7.218 0-14.344 0.594-21.344 1.782V44.198a146.564 146.564 0 0 1 21.344-1.532h21.326zM193.234 86.542c12.282-12.282 26.28-22.156 41.452-29.406V81.26a130.988 130.988 0 0 0-26.374 20.374c-13.734 13.75-23.984 30-30.282 47.686H155.578c7-23.406 19.798-44.904 37.656-62.778zM155.578 874.648h22.454c6.296 17.688 16.546 33.936 30.282 47.686 8.014 8 16.874 14.812 26.374 20.374v24.124c-15.172-7.25-29.17-17.124-41.452-29.404-17.86-17.876-30.658-39.376-37.658-62.78z m121.764 105.122v-21.594c7 1.188 14.124 1.812 21.344 1.812h21.326v21.312h-21.326c-7.204 0-14.328-0.5-21.344-1.53z m426.66 1.53v-21.312h21.312c7.25 0 14.376-0.624 21.376-1.812v21.594a147.004 147.004 0 0 1-21.376 1.532h-21.312z m126.78-43.872c-12.282 12.28-26.28 22.154-41.466 29.404v-24.124a130.47 130.47 0 0 0 26.374-20.374c13.75-13.75 24-29.998 30.312-47.686h22.436c-7.002 23.404-19.814 44.904-37.656 62.78z" fill="#FC6E51" /><path d="M277.342 490.656h469.348v42.656H277.342z" fill="#E6E9ED" /><path d="M512.008 618.652c-58.81 0-106.67-47.874-106.67-106.684 0-58.812 47.86-106.654 106.67-106.654s106.686 47.842 106.686 106.654-47.876 106.684-106.686 106.684z m0-170.682c-35.296 0-63.998 28.718-63.998 64 0 35.31 28.702 63.998 63.998 63.998 35.31 0 63.998-28.688 63.998-63.998 0-35.282-28.688-64-63.998-64z" fill="#E6E9ED" /><path d="M429.494 807.836h154.668v56.876h-154.668zM429.494 150.07h180.45v72.904h-180.45z" fill="#CCD1D9" /><path d="M597.318 234.662h-170.636c-11.782 0-21.344-9.532-21.344-21.344V149.32c0-11.782 9.562-21.312 21.344-21.312h170.636c11.812 0 21.376 9.532 21.376 21.312v63.998c0 11.812-9.564 21.344-21.376 21.344z m-149.308-42.656h127.996V170.664h-127.996v21.342zM597.318 895.992h-170.636c-11.782 0-21.344-9.562-21.344-21.344v-64c0-11.782 9.562-21.344 21.344-21.344h170.636c11.812 0 21.376 9.562 21.376 21.344v64c0 11.782-9.564 21.344-21.376 21.344z m-149.308-42.688h127.996V831.96h-127.996v21.344z" fill="#E6E9ED" /></svg>