<?xml version="1.0" standalone="no"?><!DOCTYPE svg PUBLIC "-//W3C//DTD SVG 1.1//EN" "http://www.w3.org/Graphics/SVG/1.1/DTD/svg11.dtd"><svg class="icon" width="128px" height="128.00px" viewBox="0 0 1024 1024" version="1.1" xmlns="http://www.w3.org/2000/svg"><path d="M1002.75 1023.998H106.592V810.596h170.716v-85.344h170.684v-85.342h170.7v-85.342h170.686v-85.342h213.372v554.772z" fill="#FFD2A6" /><path d="M896.062 511.88c-11.75 0-21.312-9.562-21.312-21.344V42.452c0-11.78 9.562-21.312 21.312-21.312 11.812 0 21.376 9.532 21.376 21.312v448.086c0 11.78-9.562 21.342-21.376 21.342zM725.378 597.224c-11.75 0-21.312-9.532-21.312-21.312V127.826c0-11.812 9.562-21.342 21.312-21.342 11.812 0 21.376 9.532 21.376 21.342v448.086c0 11.782-9.562 21.312-21.376 21.312zM554.696 682.598c-11.796 0-21.328-9.562-21.328-21.344V213.168c0-11.782 9.532-21.344 21.328-21.344 11.812 0 21.31 9.562 21.31 21.344v448.086c0 11.782-9.498 21.344-21.31 21.344zM383.994 767.94c-11.782 0-21.344-9.562-21.344-21.344V298.51c0-11.782 9.562-21.344 21.344-21.344s21.342 9.562 21.342 21.344v448.086c0 11.78-9.56 21.344-21.342 21.344zM213.278 853.282c-11.782 0-21.312-9.56-21.312-21.342V383.852a21.3 21.3 0 0 1 21.312-21.312c11.812 0 21.342 9.532 21.342 21.312V831.94a21.33 21.33 0 0 1-21.342 21.342z" fill="#434A54" /><path d="M122.56 578.818c-19.312 0-44.062-3.906-64.592-19.812-24.374-18.876-36.718-49.094-36.718-89.78 0-8.094 4.562-15.5 11.812-19.092L928.812 2.264c10.5-5.28 23.312-1 28.624 9.532 5.25 10.532 1 23.374-9.562 28.624L64.5 482.1c1.906 19.968 8.406 34.436 19.468 43.062 22.718 17.75 59.686 8.812 60.062 8.718 11.406-2.968 23 3.906 25.968 15.344 2.936 11.406-3.968 23.062-15.376 26-1.124 0.282-14.312 3.594-32.062 3.594z" fill="#656D78" /><path d="M277.308 853.282H106.592c-11.782 0-21.312-9.56-21.312-21.342s9.532-21.344 21.312-21.344h170.716v42.686zM447.994 767.94h-170.684c-11.782 0-21.344-9.562-21.344-21.344s9.562-21.344 21.344-21.344h170.684v42.688zM618.694 682.598h-170.7c-11.782 0-21.312-9.562-21.312-21.344s9.532-21.344 21.312-21.344h170.7v42.688zM789.378 597.224h-170.686c-11.75 0-21.312-9.532-21.312-21.312 0-11.812 9.562-21.344 21.312-21.344h170.686v42.656zM1002.75 511.88H789.378c-11.75 0-21.312-9.562-21.312-21.344 0-11.78 9.562-21.312 21.312-21.312h213.372v42.656z" fill="#965353" /></svg>