<?xml version="1.0" standalone="no"?><!DOCTYPE svg PUBLIC "-//W3C//DTD SVG 1.1//EN" "http://www.w3.org/Graphics/SVG/1.1/DTD/svg11.dtd"><svg class="icon" width="128px" height="128.00px" viewBox="0 0 1024 1024" version="1.1" xmlns="http://www.w3.org/2000/svg"><path d="M639.996 1023.988H384.002l42.656-512.582h170.684z" fill="#ED5564" /><path d="M939.552 310.66l-295.43-42.936L512 0.012l-132.124 267.712L84.448 310.66l213.774 208.402-50.466 294.242L512 674.372l264.244 138.932-50.468-294.242z" fill="#FFCE54" /><path d="M939.552 310.66L512 469.312l213.776 49.75z" fill="#F6BB42" /><path d="M512 874.648c-11.782 0-21.344 9.562-21.344 21.344v127.996h42.686v-127.996c0-11.782-9.562-21.344-21.342-21.344z" fill="#DA4453" /><path d="M512 469.312v205.06l264.244 138.932zM298.222 519.062l-50.466 294.242L512 469.312zM379.876 267.724L84.448 310.66 512 469.312zM512 0.012v469.3l132.122-201.588z" fill="#F6BB42" /></svg>