<?xml version="1.0" standalone="no"?><!DOCTYPE svg PUBLIC "-//W3C//DTD SVG 1.1//EN" "http://www.w3.org/Graphics/SVG/1.1/DTD/svg11.dtd"><svg class="icon" width="128px" height="128.00px" viewBox="0 0 1024 1024" version="1.1" xmlns="http://www.w3.org/2000/svg"><path d="M1011.08 75.464L784.746 0.016l-156.902 156.914 150.87 150.886z" fill="#CCD1D9" /><path d="M965.832 60.372L748.558 277.644l30.156 30.172L1011.08 75.464z" fill="#E6E9ED" /><path d="M323.014 850.858c14.702-44.06 28.576-85.746 70.278-127.434L814.34 302.41l-18.124-162.964-162.964-18.108L91.522 663.05c-66.544 66.56-79.452 131.996-78.56 175.184 1.062 51.808 22.624 102.462 59.17 138.994l0.016 0.032c24.61 24.592 54.17 40.716 83.232 45.342 33.078 5.25 63.998-4.562 87.028-27.562 48.826-48.842 64.98-97.31 80.606-144.182z" fill="#ED5564" /><path d="M103.474 875.356l-51.778-51.746L789.184 86.122l51.778 51.778z" fill="#CCD1D9" /><path d="M156.098 705.708l-13.5 40.466 90.526 30.188 13.5-40.47zM367.338 615.18l-90.542-30.186-13.484 40.496 90.528 30.186zM397.51 464.294l-13.5 40.484 90.544 30.17 13.5-40.484zM504.724 384.062l90.56 30.172 13.468-40.484-90.528-30.17zM715.966 293.536l13.498-40.5-90.526-30.17-13.498 40.482z" fill="#AAB2BC" /><path d="M769.058 136.432l-54.31-6.048L61.336 783.798l30.186 30.156zM799.246 166.602L121.692 844.138l30.186 30.154 653.4-653.364z" fill="#DA4453" /><path d="M12.962 838.234c1.062 51.808 22.624 102.462 59.17 138.994l0.016 0.032c24.61 24.592 54.17 40.716 83.232 45.342 33.078 5.25 63.998-4.562 87.028-27.562 10.812-10.812 20.032-21.624 27.984-32.374L39.57 731.83C17.634 772.798 12.384 810.204 12.962 838.234z" fill="#434A54" /><path d="M323.014 850.858c14.702-44.06 28.576-85.746 70.278-127.434L814.34 302.41l-18.124-162.964-13.562-1.516 16.594 149.386-421.034 421.016c-41.702 41.716-55.59 83.34-70.294 127.464-15.624 46.872-31.764 95.306-80.59 144.12-23.046 23.06-53.952 32.842-87.044 27.56-26.124-4.124-52.654-17.594-75.622-38.124a208.504 208.504 0 0 0 7.468 7.876l0.016 0.032c24.61 24.592 54.17 40.716 83.232 45.342 33.078 5.25 63.998-4.562 87.028-27.562 48.826-48.842 64.98-97.31 80.606-144.182z" fill="#FFFFFF" opacity=".2" /></svg>