<?xml version="1.0" standalone="no"?><!DOCTYPE svg PUBLIC "-//W3C//DTD SVG 1.1//EN" "http://www.w3.org/Graphics/SVG/1.1/DTD/svg11.dtd"><svg class="icon" width="128px" height="128.00px" viewBox="0 0 1024 1024" version="1.1" xmlns="http://www.w3.org/2000/svg"><path d="M563.162 702.934a22.46 22.46 0 0 1-4.344-0.438l-83.56-17.312c-11.532-2.374-18.938-13.654-16.562-25.186l86.466-417.808c6.124-29.592 32.468-51.03 62.624-51.03 4.376 0 8.75 0.438 13.032 1.312 16.75 3.468 31.124 13.25 40.498 27.532 9.406 14.28 12.656 31.374 9.188 48.124l-86.466 417.806a21.36 21.36 0 0 1-9.188 13.5 21.172 21.172 0 0 1-11.688 3.5z" fill="#FFCE54" /><path d="M661.316 220.004c-9.376-14.282-23.748-24.062-40.498-27.532a65.074 65.074 0 0 0-13.032-1.312c-30.156 0-56.5 21.438-62.624 51.03l-4.312 20.876c-2.376 11.53 5.032 22.842 16.562 25.218l83.562 17.282c1.438 0.312 2.876 0.468 4.31 0.468 4.156 0 8.218-1.218 11.718-3.532a21.206 21.206 0 0 0 9.188-13.5l4.312-20.876c3.47-16.748 0.22-33.842-9.186-48.122z" fill="#EC87C0" /><path d="M540.85 263.066l-12.968 62.686 125.342 25.938 12.968-62.688-125.342-25.936z" fill="#CCD1D9" /><path d="M496.6 685.184c-11.53-2.374-18.968-13.654-16.562-25.186l86.466-417.808c5.376-26.03 26.438-45.78 51.968-50.124a64.614 64.614 0 0 0-10.688-0.906c-30.156 0-56.5 21.438-62.624 51.03l-86.466 417.808c-2.376 11.532 5.032 22.812 16.562 25.186l83.56 17.312a22.46 22.46 0 0 0 4.344 0.438c3.156 0 6.282-0.718 9.124-2.062l-75.684-15.688z" fill="#FFFFFF" opacity=".2" /><path d="M810.656 554.656H682.66c-11.782 0-21.312 9.562-21.312 21.342v298.652c0 11.782 9.532 21.342 21.312 21.342h127.996c35.312 0 64-28.716 64-63.998v-213.34c0-35.28-28.688-63.998-64-63.998z m-21.312 255.994h-85.34v-170.652h85.34v170.652z" fill="#DA4453" /><path d="M333.074 736.184c-3.876 0-7.718-1.062-11.062-3.094a21.28 21.28 0 0 1-9.656-13.156L149.952 56.85c-1.344-5.468-0.438-11.282 2.5-16.124s7.656-8.312 13.156-9.656L289.918 0.632c11.468-2.812 23 4.188 25.812 15.624l162.372 663.084c2.812 11.436-4.188 22.966-15.656 25.78l-124.31 30.438c-1.688 0.406-3.376 0.626-5.062 0.626z" fill="#FFCE54" /><path d="M190.95 156.004c-9.592 0-18.31-6.532-20.686-16.25-2.812-11.438 4.188-23 15.656-25.812l20.718-5.062c11.438-2.812 22.968 4.188 25.782 15.656 2.812 11.438-4.188 22.968-15.656 25.782L196.042 155.38a20.26 20.26 0 0 1-5.092 0.624zM211.262 238.878c-9.594 0-18.312-6.5-20.718-16.25-2.78-11.438 4.218-23 15.656-25.782l20.718-5.094c11.438-2.812 23 4.218 25.812 15.656 2.782 11.438-4.218 23-15.656 25.78l-20.718 5.094c-1.72 0.408-3.406 0.596-5.094 0.596zM231.542 321.784a21.326 21.326 0 0 1-20.688-16.282c-2.812-11.438 4.188-23 15.656-25.782l20.718-5.094c11.438-2.782 22.968 4.218 25.78 15.656s-4.188 23-15.656 25.812l-20.718 5.062c-1.684 0.408-3.404 0.628-5.092 0.628zM251.856 404.656a21.388 21.388 0 0 1-20.718-16.25c-2.782-11.468 4.218-23 15.656-25.812l20.718-5.062c11.438-2.812 23 4.188 25.812 15.624 2.782 11.468-4.218 23-15.656 25.812l-20.718 5.062c-1.72 0.438-3.408 0.626-5.094 0.626zM272.166 487.53c-9.624 0-18.342-6.532-20.718-16.25-2.812-11.438 4.188-23 15.656-25.812l20.718-5.062c11.438-2.812 22.968 4.188 25.782 15.656 2.812 11.438-4.188 22.968-15.624 25.782l-20.75 5.094c-1.688 0.404-3.406 0.592-5.064 0.592z" fill="#434A54" /><path d="M343.322 733.09a21.288 21.288 0 0 1-9.656-13.156L171.294 56.85c-1.344-5.468-0.468-11.282 2.468-16.124s7.686-8.312 13.186-9.656L304.54 2.258a21.26 21.26 0 0 0-14.624-1.624L165.608 31.07c-5.5 1.344-10.218 4.812-13.156 9.656s-3.844 10.656-2.5 16.124l162.404 663.084a21.34 21.34 0 0 0 20.718 16.25c1.688 0 3.376-0.218 5.062-0.624l6.718-1.624c-0.5-0.284-1.032-0.534-1.532-0.846z" fill="#FFFFFF" opacity=".2" /><path d="M682.66 426.656H213.356c-11.782 0-21.344 9.562-21.344 21.344v511.994c0 35.28 28.718 63.998 64 63.998h383.994c35.28 0 63.998-28.718 63.998-63.998V448c0-11.782-9.562-21.344-21.344-21.344z" fill="#ED5564" /><path d="M575.162 698.09a17.45 17.45 0 0 0-14.124-11.906l-67.28-9.78-30.062-60.968c-2.968-5.938-9.032-9.718-15.688-9.718s-12.718 3.782-15.688 9.718l-30.062 60.968-67.28 9.78a17.448 17.448 0 0 0-14.124 11.906 17.56 17.56 0 0 0 4.438 17.906l48.686 47.436-11.5 67a17.506 17.506 0 0 0 6.968 17.124 17.484 17.484 0 0 0 18.406 1.312l60.154-31.624 60.156 31.624c2.562 1.344 5.376 2 8.156 2a17.676 17.676 0 0 0 10.282-3.312 17.548 17.548 0 0 0 6.938-17.124l-11.5-67 48.688-47.436a17.56 17.56 0 0 0 4.436-17.906z" fill="#FFCE54" /></svg>