<?xml version="1.0" standalone="no"?><!DOCTYPE svg PUBLIC "-//W3C//DTD SVG 1.1//EN" "http://www.w3.org/Graphics/SVG/1.1/DTD/svg11.dtd"><svg class="icon" width="128px" height="128.00px" viewBox="0 0 1024 1024" version="1.1" xmlns="http://www.w3.org/2000/svg"><path d="M282.666 234.696c-11.782 0-21.328-9.562-21.328-21.344V149.354c0-11.78 9.546-21.342 21.328-21.342s21.328 9.562 21.328 21.342v63.998c0 11.78-9.546 21.344-21.328 21.344z" fill="#434A54" /><path d="M408.538 359.254l-85.34-176.526a21.318 21.318 0 0 0-15.64-11.75 21.44 21.44 0 0 0-18.64 5.968L246.248 219.6a21.34 21.34 0 0 0-5.438 20.906l108.544 383.988a21.352 21.352 0 0 0 20.516 15.532c0.704 0 1.406-0.062 2.124-0.124 10.282-1.032 18.36-9.25 19.156-19.562l19.452-250.148a21.498 21.498 0 0 0-2.064-10.938zM693.498 722.71c-3.438 0-6.876-0.812-9.968-2.466l-113.122-59.874a21.368 21.368 0 0 1-10.438-12.562 21.452 21.452 0 0 1 1.532-16.25l79.842-150.84c5.5-10.436 18.406-14.404 28.812-8.904l113.152 59.874c10.406 5.5 14.376 18.436 8.876 28.842l-79.812 150.84a21.346 21.346 0 0 1-18.874 11.34z" fill="#4FC2E9" /><path d="M709.152 914.676c-0.406-3.376-42.496-337.428-42.496-423.988 0-27.966-16.718-53.03-49.688-74.466-22.938-14.936-54.374-28.498-93.45-40.374-64.952-19.718-119.498-28.124-122.184-28.468a21.32 21.32 0 0 0-16.188 4.594 21.288 21.288 0 0 0-7.828 14.906L325.4 915.676a21.296 21.296 0 0 0 5.61 16.156 21.378 21.378 0 0 0 15.656 6.844H688a21.34 21.34 0 0 0 16-7.218 21.26 21.26 0 0 0 5.152-16.782z" fill="#3BAFDA" /><path d="M303.994 170.698H261.34c-11.796 0-21.344-9.562-21.344-21.344 0-11.78 9.546-21.342 21.344-21.342h42.654c11.782 0 21.344 9.562 21.344 21.342-0.002 11.78-9.564 21.344-21.344 21.344z" fill="#656D78" /><path d="M298.542 7.108c-4.046-4.498-9.812-7.092-15.876-7.092s-11.828 2.594-15.874 7.092c-11.266 12.562-37.452 44.25-37.452 67.592 0 29.406 23.92 53.312 53.326 53.312s53.328-23.906 53.328-53.312c0-23.342-26.188-55.03-37.452-67.592z" fill="#FFCE54" /><path d="M645.344 298.694H389.334c-11.796 0-21.342-9.562-21.342-21.344 0-11.78 9.546-21.342 21.342-21.342h256.008c11.782 0 21.312 9.562 21.312 21.342 0.002 11.78-9.53 21.344-21.31 21.344z" fill="#3BAFDA" /><path d="M488.176 327.818a21.18 21.18 0 0 1-15.078-6.25c-8.328-8.312-8.328-21.812 0-30.156l119.652-119.652c8.344-8.312 21.844-8.312 30.156 0a21.332 21.332 0 0 1 0 30.188l-119.636 119.622a21.2 21.2 0 0 1-15.094 6.248z" fill="#3BAFDA" /><path d="M517.332 426.69c-11.782 0-21.344-9.562-21.344-21.342V149.354c0-11.78 9.546-21.31 21.344-21.31 11.782 0 21.328 9.532 21.328 21.31v255.994c0 11.778-9.546 21.342-21.328 21.342z" fill="#3BAFDA" /><path d="M550.346 331.694a21.29 21.29 0 0 1-15.092-6.25l-123.53-123.496c-8.328-8.344-8.328-21.844 0-30.188 8.344-8.312 21.844-8.312 30.17 0l123.512 123.528c8.342 8.312 8.342 21.844 0 30.156a21.268 21.268 0 0 1-15.06 6.25z" fill="#3BAFDA" /><path d="M624 306.35c0 68.904-66.06 132.278-106.668 132.278-40.61 0-106.67-63.374-106.67-132.278 0-68.874 47.75-114.34 106.67-114.34 58.918 0 106.668 45.466 106.668 114.34zM326.508 903.894c25.42-4.5 85.122-16.188 152.964-37.376 92.374-28.842 163.214-63.59 211.556-103.652a10781.02 10781.02 0 0 1-5.906-52.686c-86.436 91.592-285.992 136.434-354.426 149.494l-4.188 44.22zM668.5 534.062c-50.688 81.09-140.012 132.714-206.808 161.932-49.592 21.718-94.34 34.56-119.388 40.874l-4.234 44.906c20.782-4.656 75.904-18.406 139.792-46.282 47.032-20.498 89.076-44.436 124.886-71.122 27.282-20.312 51-42.312 71-65.688-2.186-23.778-3.998-45.778-5.248-64.62zM648.782 443.752c-7.968-9.718-18.562-18.938-31.812-27.532a54.934 54.934 0 0 1-0.562-0.376c-35.718 36.906-140.636 138.496-261.93 192.494l-4.562 48.188c68.452-26.906 140.2-71.654 213.556-133.246 39.746-33.374 69.59-63.122 85.31-79.528z" fill="#4FC2E9" /><path d="M730.652 895.988h-426.66c-11.78 0-21.328 9.562-21.328 21.344v85.34c0 11.782 9.546 21.312 21.328 21.312h426.66c11.782 0 21.344-9.532 21.344-21.312v-85.34c0-11.782-9.562-21.344-21.344-21.344z" fill="#424953" /></svg>