<?xml version="1.0" standalone="no"?><!DOCTYPE svg PUBLIC "-//W3C//DTD SVG 1.1//EN" "http://www.w3.org/Graphics/SVG/1.1/DTD/svg11.dtd"><svg class="icon" width="128px" height="128.00px" viewBox="0 0 1024 1024" version="1.1" xmlns="http://www.w3.org/2000/svg"><path d="M319.996 170.678h-85.342c-11.782 0-21.312-9.562-21.312-21.344s9.532-21.328 21.312-21.328h85.342c11.782 0 21.342 9.546 21.342 21.328s-9.56 21.344-21.342 21.344z" fill="#434A54" /><path d="M847.08 923.554L36.438 112.928a21.308 21.308 0 0 0-23.25-4.624A21.294 21.294 0 0 0 0 128.006V938.68c0 11.75 9.562 21.312 21.344 21.312h810.642c8.624 0 16.406-5.188 19.718-13.188a21.406 21.406 0 0 0-4.624-23.25zM170.656 789.306V488.516l300.806 300.792H170.656z" fill="#48CFAD" /><path d="M746.644 588.06a21.276 21.276 0 0 1-15.062-6.25 21.33 21.33 0 0 1 0-30.186l15.094-15.078c8.31-8.328 21.81-8.328 30.154 0s8.344 21.828 0 30.172l-15.094 15.092a21.294 21.294 0 0 1-15.092 6.25z" fill="#4A89DC" /><path d="M912.58 853.306L460.056 400.784l60.342-60.328 452.524 452.538z" fill="#5D9CEC" /><path d="M746.644 374.722c51.31 0 99.53 19.968 135.78 56.232 36.25 36.266 56.218 84.484 56.218 135.766 0 51.28-19.968 99.498-56.218 135.778l60.344 60.31c108.308-108.308 108.308-283.884 0-392.194-108.312-108.296-283.902-108.296-392.212 0l60.344 60.34c36.246-36.264 84.466-56.232 135.744-56.232z" fill="#4A89DC" /><path d="M535.46 446.046l-15.062 15.078 30.156 30.172 15.094-15.094c8.312-8.328 8.312-21.828 0-30.156a21.336 21.336 0 0 0-30.188 0zM595.804 506.376l-15.062 15.094 30.156 30.156 15.094-15.078c8.312-8.328 8.312-21.828 0-30.172a21.358 21.358 0 0 0-30.188 0zM656.146 566.718l-15.092 15.092 30.186 30.156 15.094-15.094c8.312-8.312 8.312-21.812 0-30.154a21.336 21.336 0 0 0-30.188 0zM716.49 627.06l-15.094 15.062 30.186 30.188 15.062-15.062c8.342-8.344 8.342-21.876 0-30.188-8.312-8.312-21.812-8.312-30.154 0zM776.83 687.402l-15.094 15.094 30.188 30.156 15.062-15.094c8.344-8.312 8.344-21.812 0-30.156-8.312-8.342-21.844-8.342-30.156 0zM837.174 747.744l-15.094 15.062 30.156 30.188h0.032l15.062-15.094c8.344-8.344 8.344-21.844 0-30.156-8.312-8.344-21.844-8.344-30.156 0zM21.344 831.994c11.782 0 21.312-9.562 21.312-21.312 0-11.812-9.53-21.376-21.312-21.376H0v42.688h21.344zM21.344 746.682c11.782 0 21.312-9.56 21.312-21.374 0-11.75-9.53-21.312-21.312-21.312H0v42.686h21.344zM21.344 661.31c11.782 0 21.312-9.532 21.312-21.312s-9.53-21.312-21.312-21.312H0v42.624h21.344zM21.344 575.998c11.782 0 21.312-9.56 21.312-21.31 0-11.796-9.53-21.36-21.312-21.36H0v42.67h21.344zM21.344 490.672c11.782 0 21.312-9.562 21.312-21.344S33.126 448 21.344 448H0v42.672h21.344zM21.344 405.33c11.782 0 21.312-9.546 21.312-21.328 0-11.78-9.53-21.328-21.312-21.328H0v42.654h21.344zM21.344 320.002c11.782 0 21.312-9.546 21.312-21.328s-9.53-21.344-21.312-21.344H0v42.672h21.344z" fill="#434A54" /><path d="M874.642 138.678H405.338c-11.78 0-21.342-9.562-21.342-21.344 0-11.78 9.562-21.328 21.342-21.328h469.304c11.782 0 21.344 9.546 21.344 21.328s-9.562 21.344-21.344 21.344z" fill="#CCD1D9" /><path d="M874.642 202.676H405.338c-11.78 0-21.342-9.562-21.342-21.344 0-11.78 9.562-21.328 21.342-21.328h469.304c11.782 0 21.344 9.546 21.344 21.328s-9.562 21.344-21.344 21.344z" fill="#CCD1D9" /><path d="M383.994 149.334m-63.998 0a63.998 63.998 0 1 0 127.996 0 63.998 63.998 0 1 0-127.996 0Z" fill="#DA4453" /><path d="M383.996 234.676c-47.062 0-85.342-38.28-85.342-85.342 0-47.046 38.282-85.326 85.342-85.326s85.342 38.28 85.342 85.326c-0.002 47.062-38.282 85.342-85.342 85.342z m0-127.998c-23.532 0-42.656 19.14-42.656 42.656 0 23.532 19.124 42.67 42.656 42.67 23.53 0 42.654-19.14 42.654-42.67 0-23.516-19.124-42.656-42.654-42.656z" fill="#ED5564" /><path d="M399.088 164.428c-8.342 8.328-21.842 8.328-30.186 0-8.312-8.328-8.312-21.844 0-30.172 8.344-8.328 21.844-8.328 30.186 0 8.312 8.328 8.312 21.844 0 30.172z" fill="#ED5564" /></svg>