<?xml version="1.0" standalone="no"?><!DOCTYPE svg PUBLIC "-//W3C//DTD SVG 1.1//EN" "http://www.w3.org/Graphics/SVG/1.1/DTD/svg11.dtd"><svg class="icon" width="128px" height="128.00px" viewBox="0 0 1024 1024" version="1.1" xmlns="http://www.w3.org/2000/svg"><path d="M1023.988 512c0 282.776-229.246 511.988-511.988 511.988C229.24 1023.988 0.012 794.778 0.012 512 0.012 229.258 229.24 0.012 512 0.012 794.742 0.012 1023.988 229.258 1023.988 512z" fill="#E6E9ED" /><path d="M512 21.356c11.624 0 21.078-9.312 21.312-20.876a483.014 483.014 0 0 0-42.624 0c0.234 11.564 9.688 20.876 21.312 20.876zM512 1002.676c-11.624 0-21.078 9.312-21.312 20.876 7.062 0.312 14.172 0.438 21.312 0.438s14.25-0.124 21.312-0.438c-0.234-11.564-9.688-20.876-21.312-20.876z" fill="#CCD1D9" /><path d="M416.284 30.794c11.406-2.282 18.844-13.25 16.828-24.656-7 1.094-14 2.344-21 3.718-7 1.406-13.938 2.938-20.812 4.594 2.498 11.312 13.576 18.594 24.984 16.344zM607.714 993.238c-11.404 2.282-18.842 13.25-16.81 24.656a558.842 558.842 0 0 0 20.966-3.718c7-1.406 13.938-2.938 20.812-4.594-2.498-11.312-13.56-18.594-24.968-16.344z" fill="#CCD1D9" /><path d="M324.238 58.7c10.734-4.438 15.906-16.656 11.688-27.436-6.64 2.438-13.266 5-19.86 7.75a508.02 508.02 0 0 0-19.516 8.562c4.658 10.592 16.938 15.592 27.688 11.124zM699.746 965.336c-10.718 4.434-15.876 16.652-11.688 27.434a484.42 484.42 0 0 0 19.876-7.75 495.18 495.18 0 0 0 19.498-8.562c-4.624-10.59-16.936-15.59-27.686-11.122z" fill="#CCD1D9" /><path d="M239.412 104.042c9.672-6.438 12.344-19.438 6.11-29.188-6.046 3.688-12.032 7.5-17.968 11.468s-11.75 8.032-17.468 12.188c6.622 9.5 19.654 12 29.326 5.532zM784.586 919.992c-9.656 6.438-12.344 19.438-6.094 29.188 6.032-3.688 12-7.5 17.938-11.468s11.75-8.032 17.5-12.188c-6.626-9.5-19.688-12-29.344-5.532z" fill="#CCD1D9" /><path d="M165.054 165.072c8.218-8.218 8.312-21.5 0.296-29.842a524.76 524.76 0 0 0-15.376 14.75 508.508 508.508 0 0 0-14.766 15.406c8.362 7.998 21.628 7.904 29.846-0.314zM858.93 858.96c-8.188 8.218-8.312 21.5-0.282 29.844a568.412 568.412 0 0 0 15.406-14.75 565.272 565.272 0 0 0 14.748-15.406c-8.372-8-21.622-7.906-29.872 0.312z" fill="#CCD1D9" /><path d="M104.042 239.414c6.454-9.656 3.954-22.686-5.532-29.312a518.58 518.58 0 0 0-12.218 17.468 545.72 545.72 0 0 0-11.468 17.968c9.764 6.218 22.748 3.562 29.218-6.124zM919.958 784.622c-6.468 9.656-3.968 22.684 5.532 29.308 4.186-5.718 8.248-11.528 12.216-17.464s7.782-11.938 11.468-17.968c-9.748-6.22-22.746-3.564-29.216 6.124z" fill="#CCD1D9" /><path d="M58.698 324.254c4.454-10.75-0.546-23.03-11.156-27.686a521.22 521.22 0 0 0-8.56 19.53 554.896 554.896 0 0 0-7.734 19.844c10.778 4.22 22.996-0.938 27.45-11.688zM965.3 699.778c-4.438 10.75 0.562 23.032 11.156 27.688 2.968-6.406 5.844-12.938 8.562-19.532s5.282-13.218 7.75-19.844c-10.78-4.218-23.03 0.938-27.468 11.688z" fill="#CCD1D9" /><path d="M30.778 416.284c2.266-11.406-5.032-22.468-16.328-24.968-1.672 6.876-3.204 13.812-4.594 20.812s-2.624 14-3.734 21c11.406 2 22.39-5.438 24.656-16.844zM993.238 607.75c-2.282 11.406 5 22.468 16.312 24.968 1.688-6.876 3.188-13.812 4.594-20.812s2.624-14 3.718-21c-11.374-2.03-22.374 5.438-24.624 16.844z" fill="#CCD1D9" /><path d="M21.34 512c0-11.624-9.312-21.062-20.89-21.312A536.1 536.1 0 0 0 0.012 512c0 7.156 0.156 14.25 0.438 21.312 11.578-0.218 20.89-9.656 20.89-21.312zM1002.676 512c0 11.656 9.312 21.092 20.876 21.312 0.282-7.062 0.438-14.156 0.438-21.312 0-7.124-0.156-14.218-0.438-21.312-11.564 0.25-20.876 9.688-20.876 21.312z" fill="#CCD1D9" /><path d="M30.778 607.75c-2.266-11.406-13.25-18.876-24.656-16.844 1.094 7 2.328 14 3.734 21 1.39 7 2.922 13.938 4.594 20.812 11.296-2.5 18.592-13.562 16.328-24.968zM993.238 416.284c2.25 11.406 13.25 18.876 24.624 16.844-1.062-7-2.312-14-3.718-21s-2.906-13.938-4.594-20.812c-11.312 2.5-18.592 13.562-16.312 24.968z" fill="#CCD1D9" /><path d="M58.698 699.778c-4.454-10.75-16.672-15.906-27.452-11.688a556.378 556.378 0 0 0 7.734 19.844 521.316 521.316 0 0 0 8.56 19.532c10.61-4.658 15.61-16.938 11.158-27.688zM965.3 324.254c4.438 10.75 16.688 15.906 27.468 11.688a556.788 556.788 0 0 0-7.75-19.844 478.978 478.978 0 0 0-8.562-19.53c-10.592 4.656-15.592 16.936-11.156 27.686z" fill="#CCD1D9" /><path d="M104.042 784.622a21.302 21.302 0 0 0-29.218-6.124 552.43 552.43 0 0 0 11.468 17.968 516.384 516.384 0 0 0 12.218 17.464c9.484-6.626 11.984-19.652 5.532-29.308zM919.958 239.414c6.468 9.688 19.466 12.344 29.216 6.124a526.534 526.534 0 0 0-11.468-17.968 499.754 499.754 0 0 0-12.216-17.468c-9.5 6.624-12 19.656-5.532 29.312z" fill="#CCD1D9" /><path d="M165.054 858.96c-8.218-8.218-21.484-8.312-29.844-0.312a506.06 506.06 0 0 0 14.766 15.406 564.412 564.412 0 0 0 15.376 14.75c8.016-8.344 7.922-21.624-0.298-29.844zM858.93 165.072a21.356 21.356 0 0 0 29.874 0.282 563.594 563.594 0 0 0-14.78-15.376 489.612 489.612 0 0 0-15.376-14.75c-8.03 8.344-7.906 21.624 0.282 29.844z" fill="#CCD1D9" /><path d="M239.412 919.992c-9.672-6.468-22.704-3.968-29.328 5.532 5.718 4.156 11.532 8.218 17.468 12.188s11.922 7.782 17.968 11.468c6.236-9.75 3.564-22.75-6.108-29.188zM784.586 104.042c9.656 6.468 22.718 3.968 29.344-5.532-5.718-4.156-11.562-8.218-17.5-12.188s-11.938-7.782-17.938-11.468c-6.25 9.75-3.562 22.75 6.094 29.188z" fill="#CCD1D9" /><path d="M324.238 965.336c-10.75-4.468-23.032 0.532-27.688 11.122a508.02 508.02 0 0 0 19.516 8.562 491.754 491.754 0 0 0 19.86 7.75c4.218-10.782-0.954-23-11.688-27.434zM699.746 58.7c10.75 4.468 23.062-0.532 27.686-11.124a495.18 495.18 0 0 0-19.498-8.562 483.3 483.3 0 0 0-19.876-7.75c-4.186 10.78 0.97 22.998 11.688 27.436z" fill="#CCD1D9" /><path d="M416.284 993.238c-11.406-2.282-22.5 5.032-24.984 16.344a559.08 559.08 0 0 0 20.812 4.594c7.016 1.376 14 2.624 21 3.718 2.014-11.406-5.422-22.374-16.828-24.656zM607.714 30.794c11.406 2.25 22.5-5.032 24.968-16.344a559.08 559.08 0 0 0-20.812-4.594 545.244 545.244 0 0 0-20.998-3.718c-1.998 11.406 5.438 22.374 16.842 24.656z" fill="#CCD1D9" /><path d="M895.99 512c0 212.088-171.932 383.992-383.99 383.992-212.074 0-383.992-171.902-383.992-383.992 0-212.058 171.918-383.99 383.992-383.99 212.058 0 383.99 171.934 383.99 383.99z" fill="#CCD1D9" /><path d="M512 128.01c-7.156 0-14.266 0.218-21.328 0.624C692.808 139.698 853.304 307.1 853.304 512c0 204.932-160.496 372.334-362.632 383.398 7.062 0.406 14.172 0.594 21.328 0.594 212.058 0 383.99-171.902 383.99-383.992 0-212.056-171.932-383.99-383.99-383.99z" opacity=".1" /><path d="M711.684 357.568c-89.438-8.906-129.716 57.654-205.402 169.808-97.624 144.652-224.198-10.218-272.494 92.438-73.294 155.778 332.868 405.708 551.362 134.278 131.746-163.654 59.53-383.274-73.466-396.524z" fill="#965353" /><path d="M405.362 341.348c0 47.124-38.204 85.342-85.326 85.342s-85.326-38.218-85.326-85.342 38.204-85.342 85.326-85.342 85.326 38.218 85.326 85.342z" fill="#FFCE54" /><path d="M320.036 256.006c-3.61 0-7.172 0.25-10.672 0.688 42.094 5.25 74.67 41.156 74.67 84.654 0 43.53-32.576 79.404-74.67 84.654 3.5 0.438 7.062 0.688 10.672 0.688 47.124 0 85.326-38.218 85.326-85.342s-38.204-85.342-85.326-85.342z" fill="#FFFFFF" opacity=".2" /><path d="M533.328 256.006c0 35.374-28.64 63.998-64 63.998-35.342 0-63.998-28.624-63.998-63.998 0-35.342 28.656-63.998 63.998-63.998 35.36 0 64 28.656 64 63.998z" fill="#FFCE54" /><path d="M575.998 384.004c0 35.374-28.654 64-63.998 64s-64-28.624-64-64c0-35.342 28.656-64 64-64s63.998 28.658 63.998 64z" fill="#FFCE54" /><path d="M405.362 490.688m-63.998 0a63.998 63.998 0 1 0 127.996 0 63.998 63.998 0 1 0-127.996 0Z" fill="#FFCE54" /><path d="M682.684 256.006c0 35.374-28.688 63.998-64 63.998-35.374 0-63.996-28.624-63.996-63.998 0-35.342 28.624-63.998 63.996-63.998 35.312 0 64 28.656 64 63.998z" fill="#FFCE54" /><path d="M618.684 192.008a66.72 66.72 0 0 0-10.688 0.906c30.25 5.094 53.312 31.406 53.312 63.092 0 31.718-23.062 58.03-53.312 63.124 3.468 0.562 7.032 0.876 10.688 0.876 35.312 0 64-28.624 64-63.998 0-35.344-28.688-64-64-64z" fill="#FFFFFF" opacity=".2" /><path d="M512 320.004c-3.64 0-7.204 0.344-10.672 0.906 30.266 5.094 53.36 31.406 53.36 63.092 0 31.718-23.094 58.03-53.36 63.124 3.468 0.562 7.032 0.876 10.672 0.876 35.344 0 63.998-28.624 63.998-64 0-35.34-28.654-63.998-63.998-63.998z" fill="#FFFFFF" opacity=".2" /><path d="M469.328 192.008c-3.624 0-7.188 0.344-10.656 0.906C488.938 198.008 512 224.32 512 256.006c0 31.718-23.062 58.03-53.328 63.124a66.62 66.62 0 0 0 10.656 0.876c35.36 0 64-28.624 64-63.998 0-35.344-28.64-64-64-64z" fill="#FFFFFF" opacity=".2" /><path d="M405.362 426.69c-3.64 0-7.204 0.312-10.672 0.906 30.266 5.062 53.342 31.374 53.342 63.092s-23.076 58.03-53.342 63.092c3.468 0.594 7.032 0.906 10.672 0.906 35.344 0 63.998-28.656 63.998-64s-28.654-63.996-63.998-63.996z" fill="#FFFFFF" opacity=".2" /><path d="M314.754 537.406c-14.046 32.438-51.716 47.376-84.154 33.312-32.436-14.032-47.358-51.718-33.31-84.156 14.044-32.436 51.716-47.342 84.154-33.312 32.434 14.064 47.356 51.72 33.31 84.156z" fill="#FFCE54" /><path d="M724.528 681.434h0.032c-12.282-94.934-102.906-145.528-107.532-148.058a21.326 21.326 0 0 0-10.218-2.624c-11.81 0-21.374 9.562-21.374 21.344 0 8.124 4.562 15.188 11.25 18.782 1.438 0.812 23.03 13.032 44.248 35.312-27.812 48.402-66.874 75.964-116.292 81.934-41.312 5.032-75.156-7.218-75.5-7.344a21.804 21.804 0 0 0-7.452-1.344c-11.782 0-21.328 9.532-21.328 21.312 0 9.156 5.75 16.906 13.812 19.968 1.438 0.562 30.498 11.282 70.17 11.282 7.484 0 15.344-0.376 23.468-1.282 41.748-4.656 97.558-24.156 140.278-87.438 6.844 12.968 12.032 27.532 14.124 43.624h0.032c1.344 10.468 10.282 18.594 21.124 18.594 11.812 0 21.344-9.562 21.344-21.344a26.4 26.4 0 0 0-0.186-2.718z" fill="#7F4242" /><path d="M256.038 448.002c-3.64 0-7.188 0.344-10.672 0.906C275.632 454 298.708 480.312 298.708 512c0 31.718-23.076 58.03-53.342 63.124a66.82 66.82 0 0 0 10.672 0.876c35.342 0 63.998-28.624 63.998-64 0-35.342-28.658-63.998-63.998-63.998z" fill="#FFFFFF" opacity=".2" /></svg>