<?xml version="1.0" standalone="no"?><!DOCTYPE svg PUBLIC "-//W3C//DTD SVG 1.1//EN" "http://www.w3.org/Graphics/SVG/1.1/DTD/svg11.dtd"><svg class="icon" width="128px" height="128.00px" viewBox="0 0 1024 1024" version="1.1" xmlns="http://www.w3.org/2000/svg"><path d="M256.004005 234.662015h511.86399v554.76999H256.004005z" fill="#E5E8EC" /><path d="M234.692005 213.318016v597.457988h554.48999V213.318016H234.692005z m511.83399 554.771989H277.348005V256.004015h469.17599v512.08599z" fill="#CBD0D8" /><path d="M672.653997 133.756017c4.656 16.188 13.656 27.655999 14.688 28.936a21.138 21.138 0 0 0 16.591999 7.938c11.782 0 21.344-9.532 21.344-21.312 0-5.094-1.782-9.718-4.75-13.406-0.032-0.032-4.624-6.156-6.876-13.905999-2.594-9.094-1-15.688 5.406-22.156 17.312-17.344 23.032-39.967999 16.124-63.591999-4.656-15.874-13.624-27.155999-14.782-28.499999-0.032 0-0.032-0.062-0.032-0.062l-0.032-0.032a21.396 21.396 0 0 0-16.406-7.656c-11.782 0-21.342 9.532-21.341999 21.312a21.2 21.2 0 0 0 4.876 13.529999l-0.062-0.062c0.032 0.032 4.966 6.312 7.059999 14.344 2.188 8.312 0.5 14.5-5.653999 20.624-17.278 17.376-23.028 40.095999-16.154 63.999998z m14.812-98.871998l0.032 0.062-0.032-0.062zM288.660004 133.756017c4.656 16.188 13.656 27.655999 14.688 28.936a21.144 21.144 0 0 0 16.594 7.938c11.782 0 21.342-9.532 21.341999-21.312 0-5.094-1.782-9.718-4.75-13.406-0.032-0.032-4.624-6.156-6.873999-13.905999-2.594-9.094-1-15.688 5.405999-22.156 17.312-17.344 23.032-39.967999 16.124-63.591999-4.656-15.874-13.624-27.155999-14.782-28.499999-0.032 0-0.032-0.062-0.032-0.062l-0.032-0.032a21.396 21.396 0 0 0-16.405999-7.656c-11.782 0-21.344 9.532-21.344 21.312a21.2 21.2 0 0 0 4.876 13.529999l-0.062-0.062c0.032 0.032 4.968 6.312 7.062 14.344 2.188 8.312 0.5 14.5-5.656 20.624-17.278 17.376-23.028 40.095999-16.154 63.999998z m14.812-98.871998l0.032 0.062-0.032-0.062z" fill="#E5E8EC" /><path d="M831.993994 1002.646c0 11.782-9.532 21.344-21.312 21.344H213.350006c-11.782 0-21.344-9.562-21.344-21.344V746.652005c0-11.782 9.562-21.344 21.344-21.343999h597.331988c11.782 0 21.312 9.562 21.312 21.343999v255.993995z" fill="#424953" /><path d="M256.004005 1023.99h511.98999C767.305995 883.180003 652.965997 769.246005 512 769.246005S256.692005 883.180003 256.004005 1023.99z" fill="#4B89DA" /><path d="M298.692004 1023.99h426.617992c-0.564-117.341998-95.843998-212.277996-213.309996-212.277996s-212.713996 94.935998-213.307996 212.277996z" fill="#5D9CEC" /><path d="M448.000001 959.992001a21.3 21.3 0 0 1-21.311999 21.312c-11.782 0-21.344-9.532-21.344-21.312 0-11.812 9.562-21.344 21.344-21.343999 11.782 0 21.312 9.532 21.311999 21.343999zM533.344 959.992001c0 11.782-9.562 21.312-21.344 21.312s-21.312-9.532-21.312-21.312c0-11.812 9.532-21.344 21.312-21.343999s21.344 9.532 21.344 21.343999zM618.685998 959.992001c0 11.782-9.562 21.312-21.344 21.312s-21.344-9.532-21.343999-21.312c0-11.812 9.562-21.344 21.343999-21.343999s21.344 9.532 21.344 21.343999z" fill="#E5E8EC" /><path d="M554.685999 895.992003h-85.339998c-11.782 0-21.344-9.562-21.344-21.344s9.562-21.344 21.344-21.344h85.339998c11.782 0 21.312 9.562 21.312 21.344s-9.532 21.344-21.312 21.344z" fill="#4B89DA" /><path d="M810.525994 256.004015H213.350006c-11.782 0-21.344-9.562-21.344-21.344 0-11.78 9.562-21.342 21.344-21.341999h597.175988c11.782 0 21.344 9.562 21.344 21.341999 0 11.782-9.564 21.344-21.344 21.344z" fill="#424953" /><path d="M447.876001 128.006017h128.121998v85.311999h-128.121998z" fill="#4B89DA" /><path d="M597.185998 170.662017h-170.495996c-11.782 0-21.344-9.562-21.344-21.342 0-11.782 9.562-21.312 21.344-21.312h170.495996c11.782 0 21.344 9.532 21.344 21.312 0 11.78-9.564 21.342-21.344 21.342z" fill="#5D9CEC" /><path d="M253.724005 384.002012h521.33399v42.656H253.724005zM253.724005 554.656009h521.33399v42.653999H253.724005z" fill="#CBD0D8" /><path d="M429.064002 341.316013c0 23.562-19.124 42.685999-42.688 42.685999-23.562 0-42.655999-19.124-42.655999-42.685999s19.094-42.655999 42.655999-42.655999c23.564 0 42.687999 19.094 42.688 42.655999z" fill="#FFCE54" /><path d="M386.376002 298.660014c-3.656 0-7.25 0.468-10.655999 1.344 18.406 4.718 31.999999 21.438 31.999999 41.311999s-13.594 36.591999-31.999999 41.342c3.406 0.876 7 1.344 10.655999 1.343999 23.562 0 42.687999-19.124 42.688-42.685999s-19.124-42.655999-42.688-42.655999z" fill="#FFFFFF" opacity=".2" /><path d="M557.059999 341.316013c0 23.562-19.124 42.685999-42.685999 42.685999s-42.655999-19.124-42.655999-42.685999 19.092-42.655999 42.655999-42.655999c23.562 0 42.685999 19.094 42.685999 42.655999zM685.059997 341.316013c0 23.562-19.124 42.685999-42.688 42.685999s-42.655999-19.124-42.655999-42.685999 19.094-42.655999 42.655999-42.655999 42.687999 19.094 42.688 42.655999z" fill="#FFCE54" /><path d="M490.688 533.31201c0 11.782-9.562 21.344-21.341999 21.343999h-127.997998c-11.78 0-21.342-9.562-21.341999-21.343999v-42.656c0-11.782 9.562-21.344 21.341999-21.343999h127.997998c11.782 0 21.342 9.562 21.341999 21.343999v42.656z" fill="#ED5564" /><path d="M469.344001 469.312011H448.000001c11.782 0 21.344 9.562 21.344 21.343999v42.656c0 11.782-9.562 21.344-21.344 21.343999h21.344c11.782 0 21.342-9.562 21.341999-21.343999v-42.656c0.002-11.78-9.56-21.344-21.341999-21.343999z" fill="#FFFFFF" opacity=".2" /><path d="M703.995996 533.31201c0 11.782-9.532 21.344-21.309999 21.343999h-127.999998c-11.782 0-21.342-9.562-21.341999-21.343999v-42.656c0-11.782 9.56-21.344 21.341999-21.343999h127.999998c11.78 0 21.31 9.562 21.309999 21.343999v42.656z" fill="#ED5564" /><path d="M682.685997 469.312011h-21.344c11.782 0 21.344 9.562 21.344 21.343999v42.656c0 11.782-9.562 21.344-21.344 21.343999h21.344c11.78 0 21.31-9.562 21.309999-21.343999v-42.656c0-11.78-9.532-21.344-21.309999-21.343999z" fill="#FFFFFF" opacity=".2" /><path d="M362.690003 640.184007c-4.468 7.562 44.967999 85.123998 149.247997 85.123999s154.779997-79.843998 149.403997-85.217999c-5.376-5.374-69.937999 21.562-149.341997 21.562-79.373998 0-144.871997-28.997999-149.309997-21.468z" fill="#A0D468" /><path d="M661.341997 640.090007c-1.688-1.686-9.188-0.186-21.124 2.656-3.156 14.438-49.967999 77.561998-139.029997 82.281999 3.532 0.188 7.094 0.282 10.75 0.282 104.277998-0.002 154.777997-79.845998 149.403997-85.219999zM514.376 298.660014c-3.656 0-7.25 0.468-10.656 1.344 18.406 4.718 31.999999 21.438 32 41.311999s-13.594 36.591999-32 41.342c3.406 0.876 7 1.344 10.656 1.343999 23.56 0 42.685999-19.124 42.685999-42.685999s-19.126-42.655999-42.685999-42.655999zM642.373997 298.660014c-3.656 0-7.25 0.468-10.655999 1.344 18.406 4.718 31.999999 21.438 31.999999 41.311999s-13.594 36.591999-31.999999 41.342c3.406 0.876 7 1.344 10.655999 1.343999 23.562 0 42.687999-19.124 42.688-42.685999s-19.126-42.655999-42.688-42.655999z" fill="#FFFFFF" opacity=".2" /></svg>