<?xml version="1.0" standalone="no"?><!DOCTYPE svg PUBLIC "-//W3C//DTD SVG 1.1//EN" "http://www.w3.org/Graphics/SVG/1.1/DTD/svg11.dtd"><svg class="icon" width="128px" height="128.00px" viewBox="0 0 1024 1024" version="1.1" xmlns="http://www.w3.org/2000/svg"><path d="M800 384v394.656c0 54.124-21.062 105.032-59.376 143.312-38.25 38.282-89.156 59.344-143.312 59.344-54.124 0-105-21.062-143.282-59.344s-59.344-89.188-59.344-143.312v-165.344H352v165.344C352 914.156 461.844 1024 597.312 1024c135.5 0 245.376-109.844 245.376-245.344V384H800z" fill="#434A54" /><path d="M586.688 0v384c0 56.968-22.218 110.532-62.5 150.844-40.312 40.282-93.876 62.468-150.876 62.468-56.968 0-110.532-22.188-150.812-62.468C182.188 494.532 160 440.968 160 384V0H117.312v384c0 141.376 114.624 256 256 256 141.406 0 256-114.624 256-256V0h-42.624zM821.312 448c-35.25 0-64-28.718-64-64 0-35.312 28.75-64 64-64 35.312 0 64 28.688 64 64 0 35.282-28.688 64-64 64z" fill="#E6E9ED" /><path d="M821.312 298.656C774.188 298.656 736 336.876 736 384s38.188 85.312 85.312 85.312c47.156 0 85.376-38.188 85.376-85.312s-38.22-85.344-85.376-85.344z m0 128c-23.5 0-42.624-19.156-42.624-42.656 0-23.532 19.124-42.688 42.624-42.688 23.562 0 42.688 19.156 42.688 42.688 0 23.5-19.124 42.656-42.688 42.656z" fill="#CCD1D9" /><path d="M202.688 21.312C202.688 9.532 193.124 0 181.312 0H160v85.312h21.312c11.812 0 21.376-9.532 21.376-21.312V21.312zM544 64c0 11.782 9.562 21.312 21.312 21.312h21.376V0h-21.376C553.562 0 544 9.532 544 21.312V64z" fill="#5D9CEC" /></svg>