<?xml version="1.0" standalone="no"?><!DOCTYPE svg PUBLIC "-//W3C//DTD SVG 1.1//EN" "http://www.w3.org/Graphics/SVG/1.1/DTD/svg11.dtd"><svg class="icon" width="128px" height="128.00px" viewBox="0 0 1024 1024" version="1.1" xmlns="http://www.w3.org/2000/svg"><path d="M928.926 375.132L536.844 120.938a21.348 21.348 0 0 0-22.688-0.328L95.606 374.804a21.372 21.372 0 0 0-10.25 18.234v534.61c0 11.782 9.562 21.344 21.344 21.344h810.632c11.782 0 21.344-9.562 21.344-21.344V393.038a21.3 21.3 0 0 0-9.75-17.906z" fill="#48CFAD" /><path d="M1012.546 332.758L521.876 76.766a21.344 21.344 0 0 0-19.718 0L11.482 332.758a21.36 21.36 0 0 0-11.466 18.92v85.326c0 7.454 3.904 14.376 10.28 18.234a21.368 21.368 0 0 0 20.938 0.688L512 205.076l480.796 250.852a21.62 21.62 0 0 0 9.876 2.406 21.3 21.3 0 0 0 21.312-21.328V351.68c0-7.954-4.406-15.25-11.438-18.922z" fill="#F0F2F5" /><path d="M831.99 948.992H192.01c-11.782 0-21.312-9.562-21.312-21.344V459.022c0-11.796 9.532-21.344 21.312-21.344h639.98a21.32 21.32 0 0 1 21.342 21.344v468.626c0 11.782-9.532 21.344-21.342 21.344z" fill="#434A54" /><path d="M703.994 800.308h127.996v127.996h-127.996z" fill="#FFCE54" /><path d="M831.99 949.648h-127.996c-11.782 0-21.312-9.562-21.312-21.344v-127.996a21.3 21.3 0 0 1 21.312-21.312h127.996c11.81 0 21.342 9.532 21.342 21.312v127.996c0 11.782-9.532 21.344-21.342 21.344z m-106.654-42.656h85.342v-85.34h-85.342v85.34z" fill="#F6BB42" /><path d="M575.996 800.308h127.998v127.996h-127.998z" fill="#FFCE54" /><path d="M703.994 949.648h-127.998c-11.78 0-21.31-9.562-21.31-21.344v-127.996a21.298 21.298 0 0 1 21.31-21.312h127.998c11.81 0 21.342 9.532 21.342 21.312v127.996c0 11.782-9.532 21.344-21.342 21.344z m-106.654-42.656h85.342v-85.34H597.34v85.34z" fill="#F6BB42" /><path d="M639.996 672.312h127.996v127.996h-127.996z" fill="#FFCE54" /><path d="M767.992 821.652h-127.996c-11.782 0-21.312-9.562-21.312-21.344v-127.996a21.3 21.3 0 0 1 21.312-21.312h127.996c11.812 0 21.344 9.532 21.344 21.312v127.996c0 11.782-9.532 21.344-21.344 21.344z m-106.652-42.656h85.34v-85.342h-85.34v85.342z" fill="#F6BB42" /><path d="M703.994 544.314h127.996v127.998h-127.996z" fill="#FFCE54" /><path d="M831.99 693.654h-127.996c-11.782 0-21.312-9.562-21.312-21.342v-127.998c0-11.764 9.532-21.294 21.312-21.294h127.996c11.81 0 21.342 9.532 21.342 21.294v127.998c0 11.78-9.532 21.342-21.342 21.342zM725.336 651h85.342v-85.342h-85.342V651z" fill="#F6BB42" /><path d="M767.992 672.312h85.34v127.996h-85.34z" fill="#FFCE54" /><path d="M853.332 778.996h-63.996v-85.342h63.996V651h-85.34a21.3 21.3 0 0 0-21.312 21.312v127.996c0 11.782 9.532 21.344 21.312 21.344h85.34v-42.656z" fill="#F6BB42" /><path d="M192.01 800.308h127.996v127.996H192.01z" fill="#FFCE54" /><path d="M170.698 928.304v-127.996a21.3 21.3 0 0 1 21.312-21.312h127.996c11.812 0 21.342 9.532 21.342 21.312v127.996c0 11.782-9.53 21.344-21.342 21.344H192.01c-11.782 0-21.312-9.562-21.312-21.344z m127.996-106.652h-85.342v85.34h85.342v-85.34z" fill="#F6BB42" /><path d="M320.006 800.308h127.996v127.996h-127.996z" fill="#FFCE54" /><path d="M298.694 928.304v-127.996a21.3 21.3 0 0 1 21.312-21.312h127.996c11.812 0 21.344 9.532 21.344 21.312v127.996c0 11.782-9.532 21.344-21.344 21.344h-127.996c-11.782 0-21.312-9.562-21.312-21.344z m127.996-106.652h-85.342v85.34h85.342v-85.34z" fill="#F6BB42" /><path d="M256.008 672.312h127.996v127.996h-127.996z" fill="#FFCE54" /><path d="M234.696 800.308v-127.996a21.3 21.3 0 0 1 21.312-21.312h127.996c11.812 0 21.342 9.532 21.342 21.312v127.996c0 11.782-9.53 21.344-21.342 21.344h-127.996c-11.782 0-21.312-9.562-21.312-21.344z m127.996-106.654h-85.342v85.342h85.342v-85.342z" fill="#F6BB42" /><path d="M192.01 544.314h127.996v127.998H192.01z" fill="#FFCE54" /><path d="M170.698 672.312v-127.998c0-11.764 9.532-21.294 21.312-21.294h127.996c11.812 0 21.342 9.532 21.342 21.294v127.998c0 11.78-9.53 21.342-21.342 21.342H192.01c-11.782 0-21.312-9.562-21.312-21.342z m127.996-106.654h-85.342V651h85.342v-85.342z" fill="#F6BB42" /><path d="M170.698 672.312h85.31v127.996H170.698z" fill="#FFCE54" /><path d="M170.698 778.996h63.998v-85.342H170.698V651h85.31c11.812 0 21.342 9.532 21.342 21.312v127.996c0 11.782-9.53 21.344-21.342 21.344H170.698v-42.656z" fill="#F6BB42" /><path d="M959.986 948.992H64.014c-11.782 0-21.312-9.562-21.312-21.344s9.532-21.344 21.312-21.344h895.972c11.812 0 21.342 9.562 21.342 21.344s-9.53 21.344-21.342 21.344z" fill="#656D78" /><path d="M831.99 437.678H192.01c-11.782 0-21.312 9.546-21.312 21.344v85.292h682.634v-85.292a21.32 21.32 0 0 0-21.342-21.344z" fill="#E6E9ED" /><path d="M553.904 544.314h-83.778c-11.782 0-21.344-9.514-21.344-21.294 0-11.812 9.562-21.344 21.344-21.344h83.778a21.33 21.33 0 0 1 21.342 21.344c0 11.78-9.56 21.294-21.342 21.294z" fill="#CCD1D9" /></svg>