<?xml version="1.0" standalone="no"?><!DOCTYPE svg PUBLIC "-//W3C//DTD SVG 1.1//EN" "http://www.w3.org/Graphics/SVG/1.1/DTD/svg11.dtd"><svg class="icon" width="128px" height="128.00px" viewBox="0 0 1024 1024" version="1.1" xmlns="http://www.w3.org/2000/svg"><path d="M832.24 209.704c-114.874-23.092-165.712 12.844-236.244 87.84l0.25-212.962c0-11.75-28.562-21.28-63.874-21.28-35.282 0-71.562 7.376-71.562 19.156 0 0-8.656 531.08-130.684 555.548C154.82 673.162-0.74 577.696 0.01 893.782c0 11.782 28.592 21.31 63.874 21.31 35.312 0 63.874-9.53 63.874-21.31 48.624-166.09 61.624 17.374 316.274 61.248 448.394 77.216 820.324-658.548 388.208-745.326z" fill="#F4BE8E" /><path d="M179.818 827.658c0.75-0.782 1.376-1.532 1.876-2.188-30.968-20.312-60.436-0.906-96.56 68.31 0 9.282-17.78 17.154-42.562 20.092 3.25 0.376 6.562 0.656 10.032 0.876 0.188 0.032 0.406 0.032 0.594 0.032a228 228 0 0 0 4.876 0.218c0.25 0 0.5 0 0.75 0.032 1.656 0.032 3.376 0.062 5.062 0.062 35.312 0 63.874-9.53 63.874-21.31 17.622-60.218 30.558-74.498 52.058-66.124zM553.624 84.582l-0.312 254.932c14.874-15.782 28.842-29.844 42.748-41.968l0.188-212.962c0-11.75-28.562-21.28-63.874-21.28-7.75 0-15.5 0.344-22.938 1.032 25.624 2.748 44.188 10.778 44.188 20.246zM832.24 209.704c-32.124-6.468-59.248-8.282-83.186-5.968 12.624 1.094 26.062 3.062 40.5 5.968 403.614 81.06 105.746 728.232-300.62 750.388 427.554 23.438 760.89-666.516 343.306-750.388z" fill="#FFFFFF" opacity=".2" /></svg>