<?xml version="1.0" standalone="no"?><!DOCTYPE svg PUBLIC "-//W3C//DTD SVG 1.1//EN" "http://www.w3.org/Graphics/SVG/1.1/DTD/svg11.dtd"><svg class="icon" width="128px" height="128.00px" viewBox="0 0 1024 1024" version="1.1" xmlns="http://www.w3.org/2000/svg"><path d="M744.566 683.964c6.812-21.094 11.438-57.094 11.438-65.282 0-11.782-9.562-21.34-21.312-21.34H297.496c-11.782 0-21.328 9.558-21.328 21.34 0 8.312 4.766 45.25 11.718 66.218-7.032 3.5-11.876 10.718-11.876 19.094 0 11.812 9.546 21.344 21.328 21.344h439.976c11.812 0 21.376-9.532 21.376-21.344 0.002-9.216-5.874-17.06-14.124-20.03z" fill="#F4BE8E" /><path d="M298.684 298.69H192.014a21.398 21.398 0 0 0-15.312 6.468 21.36 21.36 0 0 0-6.016 15.532l21.344 682.646a21.308 21.308 0 0 0 21.312 20.656h63.998c11.532 0 20.968-9.124 21.328-20.656l21.328-682.646a21.348 21.348 0 0 0-6-15.532 21.398 21.398 0 0 0-15.312-6.468zM847.314 305.16a21.346 21.346 0 0 0-15.312-6.468h-106.686a21.45 21.45 0 0 0-15.312 6.468 21.412 21.412 0 0 0-6 15.532l21.344 682.646c0.344 11.532 9.782 20.656 21.344 20.656h63.998c11.5 0 20.938-9.124 21.312-20.656l21.312-682.646a21.282 21.282 0 0 0-6-15.532z" fill="#FFD2A6" /><path d="M874.688 0.008H149.342c-23.516 0-42.654 19.156-42.654 42.686v255.996c0 23.532 19.138 42.656 42.654 42.656h725.346c23.5 0 42.624-19.124 42.624-42.656V42.694c0-23.53-19.124-42.686-42.624-42.686z" fill="#5D9CEC" /><path d="M874.688 0.008H149.342c-23.516 0-42.654 19.156-42.654 42.686v42.656c0-23.532 19.138-42.656 42.654-42.656h725.346c23.5 0 42.624 19.124 42.624 42.656V42.694c0-23.53-19.124-42.686-42.624-42.686z" fill="#FFFFFF" opacity=".2" /><path d="M106.688 170.692h810.624v42.656H106.688z" fill="#4A89DC" /></svg>