<?xml version="1.0" standalone="no"?><!DOCTYPE svg PUBLIC "-//W3C//DTD SVG 1.1//EN" "http://www.w3.org/Graphics/SVG/1.1/DTD/svg11.dtd"><svg class="icon" width="128px" height="128.00px" viewBox="0 0 1024 1024" version="1.1" xmlns="http://www.w3.org/2000/svg"><path d="M903.154 533.328c-22.468-83.312-70.216-160.452-135.778-218.73-35.594-31.67-75-56.466-117.124-73.716-44.654-18.282-91.154-27.546-138.246-27.546s-93.592 9.266-138.23 27.546c-42.124 17.25-81.544 42.046-117.154 73.716-65.53 58.28-113.294 135.418-135.762 218.73h-14.172v85.356c0 108.248 42.154 210.028 118.714 286.588 76.544 76.56 178.34 118.716 286.604 118.716 108.248 0 210.056-42.156 286.62-118.716 76.558-76.56 118.684-178.34 118.684-286.588v-85.356h-14.156z" fill="#F6BB42" /><path d="M895.998 533.328c0 212.072-171.934 383.974-383.99 383.974-212.072 0-383.99-171.902-383.99-383.974 0-212.074 171.918-383.992 383.99-383.992 212.056 0 383.99 171.918 383.99 383.992z" fill="#E6E9ED" /><path d="M490.68 21.338h42.654v106.668H490.68z" fill="#434A54" /><path d="M576.006 42.682h-127.996c-11.782 0-21.328-9.562-21.328-21.342 0-11.782 9.546-21.328 21.328-21.328h127.996c11.782 0 21.312 9.546 21.312 21.328 0 11.78-9.53 21.342-21.312 21.342z" fill="#656D78" /><path d="M512.008 213.334c-11.782 0-21.328-9.546-21.328-21.328V149.336c0-11.782 9.546-21.328 21.328-21.328 11.78 0 21.326 9.546 21.326 21.328v42.67c0 11.782-9.546 21.328-21.326 21.328zM512.008 938.678c-11.782 0-21.328-9.562-21.328-21.376V874.68c0-11.812 9.546-21.376 21.328-21.376 11.78 0 21.326 9.562 21.326 21.376v42.624c0 11.812-9.546 21.374-21.326 21.374zM341.372 259.068a21.334 21.334 0 0 1-18.5-10.672l-21.328-36.938c-5.888-10.218-2.404-23.25 7.796-29.156 10.204-5.89 23.25-2.39 29.14 7.812l21.344 36.952c5.89 10.204 2.39 23.25-7.812 29.14a21.24 21.24 0 0 1-10.64 2.862zM704.002 887.21c-7.376 0-14.5-3.844-18.466-10.656l-21.344-36.938c-5.876-10.218-2.376-23.25 7.812-29.156s23.248-2.406 29.124 7.782l21.344 36.968c5.906 10.218 2.406 23.25-7.782 29.156a21.412 21.412 0 0 1-10.688 2.844zM216.388 384.002a21.2 21.2 0 0 1-10.638-2.86l-36.954-21.328c-10.204-5.89-13.704-18.936-7.812-29.14s18.938-13.704 29.14-7.812l36.952 21.328c10.204 5.89 13.704 18.936 7.812 29.138a21.33 21.33 0 0 1-18.5 10.674zM844.532 746.682c-3.594 0-7.282-0.938-10.656-2.876l-36.936-21.342c-10.188-5.906-13.688-18.938-7.812-29.156 5.876-10.188 18.938-13.688 29.124-7.782l36.968 21.344c10.216 5.876 13.716 18.936 7.81 29.124a21.368 21.368 0 0 1-18.498 10.688zM170.688 554.686H128.018c-11.782 0-21.328-9.562-21.328-21.358 0-11.782 9.546-21.328 21.328-21.328h42.67c11.782 0 21.328 9.546 21.328 21.328 0 11.796-9.548 21.358-21.328 21.358zM895.998 554.686h-42.686c-11.75 0-21.312-9.562-21.312-21.358 0-11.782 9.562-21.328 21.312-21.328h42.686c11.782 0 21.312 9.546 21.312 21.328 0 11.796-9.53 21.358-21.312 21.358zM179.484 746.682a21.35 21.35 0 0 1-18.5-10.688c-5.89-10.188-2.39-23.248 7.812-29.124l36.954-21.344c10.202-5.906 23.248-2.406 29.138 7.782 5.89 10.218 2.39 23.25-7.812 29.156l-36.952 21.342a21.266 21.266 0 0 1-10.64 2.876zM807.626 384.002c-7.376 0-14.562-3.828-18.5-10.672-5.876-10.202-2.376-23.248 7.812-29.138l36.936-21.328c10.218-5.89 23.25-2.39 29.154 7.812 5.906 10.204 2.406 23.25-7.81 29.14l-36.968 21.328a21.12 21.12 0 0 1-10.624 2.858zM319.996 887.21c-3.624 0-7.296-0.906-10.656-2.844-10.202-5.906-13.702-18.938-7.796-29.156l21.328-36.968c5.89-10.188 18.938-13.688 29.14-7.782s13.704 18.938 7.812 29.156l-21.344 36.938c-3.938 6.844-11.108 10.656-18.484 10.656z" fill="#434A54" /><path d="M702.97 223.88c-3.624 0-7.282-0.922-10.656-2.86-10.186-5.89-13.686-18.938-7.81-29.14l30.686-53.17c5.906-10.204 18.938-13.688 29.156-7.796s13.718 18.938 7.812 29.14l-30.718 53.154a21.268 21.268 0 0 1-18.47 10.672z" fill="#ED5564" /><path d="M682.628 259.068c-3.594 0-7.25-0.922-10.624-2.86-10.188-5.89-13.688-18.938-7.812-29.14l21.376-37c5.874-10.204 18.936-13.702 29.124-7.812 10.218 5.89 13.688 18.936 7.812 29.14l-21.376 37c-3.938 6.844-11.126 10.672-18.5 10.672z" fill="#434A54" /><path d="M553.13 533.328c0 23.544-19.094 42.67-42.67 42.67-23.562 0-42.654-19.124-42.654-42.67 0-23.562 19.092-42.656 42.654-42.656 23.578 0 42.67 19.094 42.67 42.656z" fill="#DA4453" /><path d="M510.46 597.31c-35.282 0-63.998-28.688-63.998-63.982 0-35.282 28.716-64 63.998-64 35.294 0 63.982 28.718 63.982 64 0.002 35.296-28.686 63.982-63.982 63.982z m0-85.31c-11.75 0-21.328 9.562-21.328 21.328 0 11.764 9.578 21.358 21.328 21.358 11.764 0 21.342-9.594 21.342-21.358 0-11.766-9.578-21.328-21.342-21.328z" fill="#ED5564" /><path d="M512.008 512c-11.782 0-21.328-9.546-21.328-21.328V277.334c0-11.782 9.546-21.328 21.328-21.328 11.78 0 21.326 9.546 21.326 21.328v213.338c0 11.782-9.546 21.328-21.326 21.328z" fill="#ED5564" /><path d="M512.008 938.678c-108.264 0-210.058-42.186-286.604-118.748-76.56-76.56-118.714-178.308-118.714-286.602 0-108.264 42.154-210.042 118.714-286.604 76.544-76.56 178.34-118.716 286.604-118.716 108.248 0 210.056 42.156 286.62 118.716 76.558 76.56 118.684 178.34 118.684 286.604 0 108.292-42.124 210.042-118.684 286.602-76.564 76.562-178.372 118.748-286.62 118.748z m0-767.998c-96.874 0-187.934 37.716-256.432 106.216s-106.232 159.574-106.232 256.432c0 96.856 37.734 187.95 106.232 256.446 68.498 68.5 159.558 106.218 256.432 106.218s187.932-37.718 256.432-106.218c68.498-68.496 106.246-159.59 106.246-256.446 0-96.858-37.748-187.934-106.246-256.432-68.5-68.5-159.56-106.216-256.432-106.216z" fill="#FFCE54" /></svg>