<?xml version="1.0" standalone="no"?><!DOCTYPE svg PUBLIC "-//W3C//DTD SVG 1.1//EN" "http://www.w3.org/Graphics/SVG/1.1/DTD/svg11.dtd"><svg class="icon" width="128px" height="128.00px" viewBox="0 0 1024 1024" version="1.1" xmlns="http://www.w3.org/2000/svg"><path d="M703.994 21.336c-92.246 0-175.338 39.046-233.742 101.498-31.28-36.046-77.436-58.828-128.902-58.828-94.28 0-170.65 76.404-170.65 170.666 0 1.422 0 2.844 0.062 4.25C73.326 258.672 0.016 344.762 0.016 447.994c0 117.808 95.498 213.304 213.338 213.304h490.64c176.744 0 319.99-143.244 319.99-319.974 0-176.712-143.246-319.988-319.99-319.988z" fill="#AAB2BC" /><path d="M907.924 94.74c45.844 55.374 73.406 126.434 73.406 203.932 0 176.712-143.276 320.004-319.99 320.004H170.7c-48.062 0-92.374-15.874-127.996-42.686 38.904 51.81 100.872 85.308 170.65 85.308h490.64c176.744 0 319.99-143.244 319.99-319.974 0-99.214-45.154-187.898-116.06-246.584z" fill="#949DA8" /><path d="M512 618.77V362.668l-170.65 384.098h127.996v255.898l170.652-383.894z" fill="#F6BB42" /></svg>