<?xml version="1.0" standalone="no"?><!DOCTYPE svg PUBLIC "-//W3C//DTD SVG 1.1//EN" "http://www.w3.org/Graphics/SVG/1.1/DTD/svg11.dtd"><svg class="icon" width="128px" height="128.00px" viewBox="0 0 1024 1024" version="1.1" xmlns="http://www.w3.org/2000/svg"><path d="M703.994 21.336c-92.246 0-175.354 39.046-233.758 101.498-31.28-36.046-77.436-58.828-128.902-58.828-94.264 0-170.666 76.404-170.666 170.666 0 1.422 0.016 2.844 0.062 4.25C73.326 258.672 0.016 344.762 0.016 447.994c0 117.808 95.498 213.304 213.322 213.304h490.656c176.712 0 319.99-143.244 319.99-319.974 0-176.728-143.276-319.988-319.99-319.988z" fill="#AAB2BC" /><path d="M907.924 94.74c45.812 55.374 73.376 126.418 73.376 203.932 0 176.712-143.244 320.004-319.99 320.004H170.668c-48.032 0-92.342-15.904-127.996-42.686 38.92 51.81 100.872 85.308 170.666 85.308h490.656c176.712 0 319.99-143.244 319.99-319.974 0-99.214-45.186-187.898-116.06-246.584z" fill="#949DA8" /><path d="M426.644 1002.664c-3.188 0-6.438-0.75-9.484-2.25-10.546-5.25-14.844-18.062-9.594-28.626l48.654-97.806h-93.998a21.38 21.38 0 0 1-18.154-10.126 21.396 21.396 0 0 1-0.906-20.782l64.216-127.996c5.282-10.532 18.094-14.782 28.626-9.5 10.53 5.282 14.794 18.094 9.514 28.654l-48.716 97.06h93.856c7.39 0 14.25 3.844 18.14 10.126 3.89 6.25 4.25 14.126 0.968 20.75l-63.998 128.62a21.374 21.374 0 0 1-19.124 11.876z" fill="#F6BB42" /><path d="M170.652 1002.664c-3.204 0-6.454-0.75-9.532-2.282-10.532-5.282-14.796-18.094-9.532-28.594l127.996-255.99c5.266-10.562 18.078-14.812 28.626-9.562 10.532 5.25 14.81 18.06 9.532 28.624L189.746 990.852a21.348 21.348 0 0 1-19.094 11.812zM554.626 1002.664c-3.188 0-6.438-0.75-9.5-2.282-10.546-5.282-14.812-18.094-9.546-28.594l127.98-255.99c5.282-10.562 18.092-14.812 28.624-9.562 10.562 5.25 14.812 18.06 9.562 28.624l-127.996 255.992a21.4 21.4 0 0 1-19.124 11.812z" fill="#5D9CEC" /></svg>