<?xml version="1.0" standalone="no"?><!DOCTYPE svg PUBLIC "-//W3C//DTD SVG 1.1//EN" "http://www.w3.org/Graphics/SVG/1.1/DTD/svg11.dtd"><svg class="icon" width="128px" height="128.00px" viewBox="0 0 1024 1024" version="1.1" xmlns="http://www.w3.org/2000/svg"><path d="M472.68 0.004H216.682c-11.782 0-21.344 9.532-21.344 21.312s9.562 21.344 21.344 21.344H472.68c11.782 0 21.328-9.562 21.328-21.344S484.46 0.004 472.68 0.004zM810.694 0.004H554.696c-11.796 0-21.36 9.532-21.36 21.312s9.562 21.344 21.36 21.344h255.998c11.75 0 21.312-9.562 21.312-21.344S822.444 0.004 810.694 0.004z" fill="#434A54" /><path d="M135.026 42.66h753.98v938.648H135.026z" fill="#F5F7FA" /><path d="M192.01 1002.652c0 11.782-9.546 21.344-21.328 21.344s-21.344-9.562-21.344-21.344 9.562-21.344 21.344-21.344 21.328 9.564 21.328 21.344zM874.694 1002.652c0 11.782-9.562 21.344-21.376 21.344-11.75 0-21.312-9.562-21.312-21.344s9.562-21.344 21.312-21.344c11.812 0 21.376 9.564 21.376 21.344z" fill="#434A54" /><path d="M789.318 170.658c0 11.782-9.532 21.344-21.312 21.344s-21.312-9.562-21.312-21.344 9.532-21.344 21.312-21.344 21.312 9.562 21.312 21.344z" fill="#656D78" /><path d="M135.026 301.814h753.98v530.184H135.026z" fill="#5D9CEC" /><path d="M618.696 170.658c0 11.782-9.562 21.344-21.376 21.344-11.75 0-21.312-9.562-21.312-21.344s9.562-21.344 21.312-21.344c11.812 0 21.376 9.562 21.376 21.344zM448.008 170.658c0 11.782-9.546 21.344-21.328 21.344s-21.344-9.562-21.344-21.344 9.562-21.344 21.344-21.344 21.328 9.562 21.328 21.344zM277.338 170.658c0 11.782-9.546 21.344-21.328 21.344s-21.328-9.562-21.328-21.344 9.546-21.344 21.328-21.344 21.328 9.562 21.328 21.344z" fill="#656D78" /><path d="M896.006 21.316H128.01c-11.782 0-21.328 9.562-21.328 21.344v938.648c0 11.782 9.546 21.344 21.328 21.344h767.996c11.782 0 21.312-9.562 21.312-21.344V42.66c0-11.782-9.53-21.344-21.312-21.344z m-21.312 938.682H149.338V64.002h725.356v895.996z" fill="#E6E9ED" /><path d="M256.01 106.658c-35.344 0-64 28.656-64 64s28.656 64 64 64 64-28.656 64-64-28.656-64-64-64z m0 85.344c-11.766 0-21.328-9.594-21.328-21.344 0-11.782 9.562-21.344 21.328-21.344s21.328 9.562 21.328 21.344c0 11.75-9.562 21.344-21.328 21.344zM426.68 106.658c-35.36 0-64 28.656-64 64s28.64 64 64 64c35.344 0 64-28.656 64-64s-28.656-64-64-64z m0 85.344c-11.766 0-21.344-9.594-21.344-21.344 0-11.782 9.578-21.344 21.344-21.344 11.75 0 21.328 9.562 21.328 21.344 0 11.75-9.578 21.344-21.328 21.344zM597.32 106.658c-35.312 0-63.984 28.656-63.984 64s28.672 64 63.984 64c35.376 0 64-28.656 64-64s-28.624-64-64-64z m0 85.344c-11.75 0-21.312-9.594-21.312-21.344 0-11.782 9.562-21.344 21.312-21.344 11.782 0 21.376 9.562 21.376 21.344 0 11.75-9.594 21.344-21.376 21.344zM768.006 106.658c-35.344 0-64 28.656-64 64s28.656 64 64 64 64-28.656 64-64-28.656-64-64-64z m0 85.344c-11.75 0-21.312-9.594-21.312-21.344 0-11.782 9.562-21.344 21.312-21.344s21.312 9.562 21.312 21.344c0 11.75-9.562 21.344-21.312 21.344z" fill="#434A54" /><path d="M116.384 831.998h772.622v42.656H116.384zM116.384 277.314h772.622v42.688H116.384z" fill="#E6E9ED" /><path d="M597.32 853.31h-170.64c-11.782 0-21.344 9.562-21.344 21.344s9.562 21.344 21.344 21.344h170.64c11.812 0 21.376-9.562 21.376-21.344s-9.564-21.344-21.376-21.344z" fill="#E6E9ED" /><path d="M528.008 831.998H362.68l128-511.996h165.328z" fill="#FFFFFF" opacity=".1" /><path d="M810.694 405.312H213.338c-11.782 0-21.328 9.562-21.328 21.344S201.556 448 213.338 448h597.356c11.75 0 21.312-9.562 21.312-21.344s-9.562-21.344-21.312-21.344z" fill="#434A54" /></svg>