<?xml version="1.0" standalone="no"?><!DOCTYPE svg PUBLIC "-//W3C//DTD SVG 1.1//EN" "http://www.w3.org/Graphics/SVG/1.1/DTD/svg11.dtd"><svg class="icon" width="128px" height="128.00px" viewBox="0 0 1024 1024" version="1.1" xmlns="http://www.w3.org/2000/svg"><path d="M318.744 21.726c0 11.742-9.554 21.296-21.328 21.296-11.772 0-21.296-9.554-21.296-21.296C276.12 9.954 285.644 0.4 297.416 0.4c11.774 0 21.328 9.556 21.328 21.326z" fill="#434A54" /><path d="M404.022 127.52c0 58.89-47.712 106.604-106.604 106.604-58.86 0-106.572-47.712-106.572-106.604 0-58.862 47.712-106.572 106.572-106.572 58.89 0 106.604 47.71 106.604 106.572z" fill="#CCD1D9" /><path d="M476.496 844.772c-42.436-50.868-61.514-119.624-61.514-119.624-47.588-219.454-13.708-424.918-13.708-424.918 7.65-93.522 45.372-171.928 45.372-171.928l-63.95-42.654-42.624 42.652-42.654-42.654-42.624 42.654-42.622-42.654L148.222 128.3s37.72 78.406 45.37 171.928c0 0 35.036 205.464-12.522 424.918 0 0-19.11 68.758-61.544 119.624-38.908 46.682-29.416 164.652 24.824 178.828h307.352c54.242-14.174 63.702-132.144 24.794-178.826z" fill="#F5F7FA" /><path d="M414.982 725.146c-38.782-178.83-23.482-348.384-16.456-404.996H196.464c7.276 56.612 23.356 226.166-15.394 404.996h233.912z" fill="#E6E9ED" /><path d="M489.298 1023.6H105.536c-11.772 0-21.296-9.554-21.296-21.326s9.524-21.328 21.296-21.328h383.762c11.772 0 21.328 9.556 21.328 21.328s-9.556 21.326-21.328 21.326z" fill="#F5F7FA" /><path d="M425.318 746.472h-255.8c-11.772 0-21.296-9.554-21.296-21.326a21.28 21.28 0 0 1 21.296-21.296h255.8c11.804 0 21.328 9.524 21.328 21.296-0.002 11.772-9.524 21.326-21.328 21.326zM404.022 341.446H190.844c-11.772 0-21.328-9.524-21.328-21.294s9.554-21.328 21.328-21.328H404.02c11.772 0 21.296 9.556 21.296 21.328s-9.522 21.294-21.294 21.294z" fill="#CCD1D9" /><path d="M692.296 863.788c-2.498-12.302-3.966-24.73-4.686-36.814L785.6 582.602l-166.152-95.926-162.31 206.556c-10.992 5.528-22.702 10.586-34.848 14.678-59.048 19.796-109.352 126.994-66.636 167.992l224.482 129.62c56.86 16.454 124.526-80.688 112.16-141.734z" fill="#434A54" /><path d="M843.834 567.02l-58.234 15.582-166.152-95.926-15.926-58.39 95.926-166.154 240.312 138.738zM694.608 846.8c-3.622 0-7.306-0.938-10.648-2.874l-240.312-138.734c-10.18-5.902-13.676-18.924-7.804-29.134 5.9-10.178 18.922-13.676 29.132-7.806l240.312 138.768c10.18 5.872 13.676 18.922 7.804 29.102a21.35 21.35 0 0 1-18.484 10.678z" fill="#656D78" /><path d="M792.062 315.592l-36.908-21.296c-0.062 0.124-0.156 0.218-0.218 0.344l-35.722 61.888c-5.902 10.18-2.404 23.232 7.806 29.104a21.236 21.236 0 0 0 10.646 2.874c7.34 0 14.522-3.842 18.456-10.68l35.722-61.858c0.094-0.126 0.124-0.252 0.218-0.376zM848.268 431.406l36.098-62.514-36.91-21.326-36.096 62.544c-5.9 10.18-2.404 23.232 7.776 29.102a21.32 21.32 0 0 0 10.648 2.874c7.368 0 14.55-3.84 18.484-10.68zM617.136 1023.6c-3.624 0-7.276-0.936-10.648-2.872L329.58 860.852c-10.18-5.87-13.676-18.922-7.806-29.102 5.902-10.21 18.922-13.708 29.134-7.806l276.908 159.876c10.18 5.872 13.678 18.924 7.808 29.104a21.36 21.36 0 0 1-18.488 10.676z" fill="#434A54" /></svg>