<?xml version="1.0" standalone="no"?><!DOCTYPE svg PUBLIC "-//W3C//DTD SVG 1.1//EN" "http://www.w3.org/Graphics/SVG/1.1/DTD/svg11.dtd"><svg class="icon" width="128px" height="128.00px" viewBox="0 0 1024 1024" version="1.1" xmlns="http://www.w3.org/2000/svg"><path d="M297.754 353.21c68.374-81.53 220.308-144.606 291.932-84.482 71.654 60.108 35.936 220.668-32.468 302.182-68.404 81.53-143.59 53.154-215.212-6.968-71.656-60.124-112.656-129.216-44.252-210.732z" fill="#DA4453" /><path d="M460.5 522.208c7.562-9.032 21.032-10.234 30.062-2.672 9.032 7.546 10.25 21 2.688 30.032s-21.032 10.25-30.062 2.688c-9.03-7.564-10.218-21.002-2.688-30.048zM395.034 467.444c7.562-9.032 21-10.234 30.032-2.688 9.062 7.562 10.25 21.016 2.688 30.062-7.562 9.032-21 10.234-30.062 2.672-9.034-7.546-10.222-21.016-2.658-30.046zM481.718 430.492c7.532-9.032 21-10.234 30.032-2.672 9.062 7.546 10.25 21.014 2.688 30.046s-21 10.234-30.062 2.672c-9.032-7.548-10.22-21.016-2.658-30.046zM416.22 375.726c7.562-9.032 21-10.234 30.062-2.688 9.032 7.562 10.218 21.016 2.656 30.062-7.562 9.032-21 10.234-30.032 2.672s-10.248-21.014-2.686-30.046zM329.566 412.71c7.562-9.046 21-10.25 30.062-2.688 9.03 7.562 10.216 21.014 2.656 30.046-7.532 9.046-21 10.25-30.032 2.686-9.06-7.56-10.248-21.012-2.686-30.044zM504.5 336.524c7.562-9.032 21.032-10.234 30.062-2.688 9.032 7.562 10.218 21.014 2.688 30.062-7.562 9.032-21.032 10.234-30.062 2.672s-10.25-21.014-2.688-30.046z" opacity=".1" /><path d="M1006.864 148.06c-5.25-4.468-12.032-5.936-18.282-4.624v-0.016c-3.218 0.672-78.872 17.562-117.402 98.888l38.532 18.28c29.248-61.686 85.464-74.92 87.84-75.466v-0.016a21.132 21.132 0 0 0 11.656-6.968c7.656-8.954 6.592-22.422-2.344-30.078z" fill="#8CC153" /><path d="M949.678 442.834c-69.28 80.794-221.838 142.264-292.838 81.404-71.03-60.874-33.594-221.042 35.688-301.836 69.248-80.794 144.122-51.624 215.122 9.25 70.994 60.874 111.276 130.402 42.028 211.182z" fill="#ED5564" /><path d="M788.68 272.12c-7.656 8.968-21.124 10.016-30.06 2.376-8.968-7.656-10.032-21.124-2.376-30.078 7.656-8.968 21.124-10.014 30.092-2.36 8.938 7.64 10 21.108 2.344 30.062zM853.586 327.586a21.316 21.316 0 0 1-30.062 2.36c-8.968-7.656-10.032-21.124-2.376-30.078s21.124-10.016 30.094-2.36c8.938 7.658 10 21.126 2.344 30.078zM766.526 363.618c-7.656 8.954-21.124 10.016-30.062 2.36-8.966-7.656-10.03-21.124-2.376-30.078 7.656-8.954 21.124-10.014 30.094-2.36 8.938 7.656 10 21.124 2.344 30.078zM831.43 419.07c-7.656 8.954-21.124 10.016-30.062 2.36-8.968-7.64-10.032-21.108-2.376-30.078 7.656-8.954 21.124-10.016 30.094-2.36 8.938 7.656 10 21.126 2.344 30.078zM918.49 383.008c-7.654 8.968-21.124 10.016-30.092 2.36-8.968-7.64-10-21.11-2.344-30.062 7.624-8.968 21.094-10.014 30.06-2.376 8.97 7.656 10.002 21.124 2.376 30.078zM742.744 457.334c-7.656 8.968-21.124 10.016-30.092 2.36-8.938-7.64-10-21.108-2.344-30.078 7.656-8.954 21.124-10 30.06-2.36 8.97 7.658 10.032 21.124 2.376 30.078z" fill="#DA4453" /><path d="M1016.364 268.432c-4.532-3.89-10.25-5.516-15.782-5.016v-0.016c-0.5 0.046-51.186 3.938-93.028-31.826-41.844-35.75-45.938-86.436-45.968-86.842h-0.032a21.296 21.296 0 0 0-7.406-14.906c-8.968-7.656-22.438-6.594-30.094 2.36a21.304 21.304 0 0 0-5.032 15.186h-0.032c0.188 2.782 4.876 68.812 60.844 116.654 44.436 37.968 95.152 42.204 115.558 42.204 5.312 0 8.594-0.282 9.156-0.344v-0.016a21.244 21.244 0 0 0 14.188-7.36c7.658-8.954 6.596-22.422-2.372-30.078z" fill="#A0D468" /><path d="M243.35 119.436a21.192 21.192 0 0 0-15.156 3.454l-0.032-0.016c-2.376 1.624-14.876 10.766-25.594 31.186-13.656 26.03-18.406 58.25-14.124 95.732l42.406-4.844c-7.376-64.436 20.468-86.154 21.656-87.044l-0.376 0.282-0.032-0.016c4.75-3.234 8.218-8.328 9.124-14.438a21.3 21.3 0 0 0-17.872-24.296z" fill="#8CC153" /><path d="M361.004 378.618c-16.124 105.186-113.216 237.95-205.652 223.762-92.466-14.188-145.28-169.966-129.124-275.152 16.156-105.168 95.124-119.95 187.558-105.748 92.468 14.186 163.372 51.952 147.218 157.138z" fill="#ED5564" /><path d="M134.164 318.666c1.75-11.64-6.25-22.516-17.906-24.296-11.624-1.766-22.5 6.25-24.282 17.89-1.78 11.656 6.25 22.53 17.906 24.296 11.626 1.766 22.5-6.234 24.282-17.89zM218.568 331.478c1.75-11.64-6.25-22.514-17.906-24.296-11.624-1.766-22.498 6.25-24.28 17.89-1.75 11.656 6.25 22.53 17.874 24.294 11.656 1.766 22.532-6.232 24.312-17.888zM163.664 408.054c1.75-11.64-6.25-22.516-17.906-24.282-11.624-1.766-22.5 6.234-24.282 17.89-1.782 11.64 6.25 22.514 17.876 24.28 11.656 1.784 22.53-6.232 24.312-17.888zM230.162 396.586c-11.624-1.782-22.5 6.234-24.282 17.89-1.782 11.64 6.25 22.514 17.876 24.28 11.656 1.766 22.532-6.234 24.312-17.89 1.75-11.64-6.25-22.514-17.906-24.28zM285.036 319.994c-11.654-1.766-22.53 6.234-24.28 17.89-1.782 11.64 6.25 22.514 17.874 24.296 11.656 1.766 22.532-6.25 24.312-17.89 1.75-11.656-6.25-22.53-17.906-24.296zM175.07 475.912c-11.656-1.766-22.532 6.25-24.312 17.89-1.75 11.656 6.25 22.53 17.906 24.294s22.53-6.234 24.28-17.888c1.78-11.64-6.22-22.514-17.874-24.296z" fill="#DA4453" /><path d="M314.348 195.84c-6.906-1.046-13.532 1.36-18.156 5.906l-0.032-0.016 0.156-0.14c-0.062 0.062-7.656 7.156-21.624 13.094-18.466 7.844-38.998 10.11-60.998 6.782-52.342-7.954-72.686-45.344-73.53-46.922l0.094 0.156-0.032 0.016a21.232 21.232 0 0 0-15.782-11.452c-11.656-1.766-22.532 6.25-24.312 17.89a21.384 21.384 0 0 0 2.094 12.86h-0.032c1.218 2.376 30.406 58.296 105.092 69.624 8.968 1.376 17.468 1.968 25.5 1.968 58.592 0 91.78-31.936 93.342-33.482l-0.032-0.016a21.09 21.09 0 0 0 6.124-11.968c1.784-11.66-6.216-22.534-17.872-24.3z" fill="#A0D468" /><path d="M1023.988 862.154c0 23.56-19.124 42.654-42.688 42.654H42.666c-23.562 0-42.654-19.094-42.654-42.654V392.836h1023.976v469.318z" fill="#FFCE54" /><path d="M0.012 478.162v42.67h63.998c0 11.782 9.532 21.328 21.312 21.328 11.78 0 21.342-9.546 21.342-21.328H149.32c0 11.782 9.562 21.328 21.344 21.328s21.342-9.546 21.342-21.328h42.656c0 11.782 9.562 21.328 21.344 21.328s21.31-9.546 21.31-21.328h42.688c0 11.782 9.532 21.328 21.312 21.328s21.344-9.546 21.344-21.328h42.654c0 11.782 9.562 21.328 21.344 21.328s21.344-9.546 21.344-21.328h42.654c0 11.782 9.562 21.328 21.344 21.328s21.312-9.546 21.312-21.328h42.686c0 11.782 9.532 21.328 21.31 21.328 11.782 0 21.344-9.546 21.344-21.328h42.656c0 11.782 9.562 21.328 21.344 21.328s21.344-9.546 21.344-21.328h42.654c0 11.782 9.562 21.328 21.344 21.328 11.78 0 21.31-9.546 21.31-21.328h42.688c0 11.782 9.532 21.328 21.312 21.328s21.344-9.546 21.344-21.328h42.654c0 11.782 9.562 21.328 21.344 21.328s21.344-9.546 21.344-21.328h63.216v-42.67H0.012z" fill="#F6BB42" /><path d="M981.3 392.836v469.318c0 23.56-19.094 42.654-42.654 42.654h42.654c23.562 0 42.688-19.094 42.688-42.654V392.836H981.3z" fill="#FFFFFF" opacity=".2" /></svg>