<?xml version="1.0" standalone="no"?><!DOCTYPE svg PUBLIC "-//W3C//DTD SVG 1.1//EN" "http://www.w3.org/Graphics/SVG/1.1/DTD/svg11.dtd"><svg class="icon" width="128px" height="128.00px" viewBox="0 0 1024 1024" version="1.1" xmlns="http://www.w3.org/2000/svg"><path d="M108.328 405.446l792.422 295.75 14.938-40-792.438-295.72z" fill="#AAB2BC" /><path d="M915.688 405.446L123.25 701.196l-14.922-40 792.422-295.72z" fill="#CCD1D9" /><path d="M725.312 191.992H384c-23.562 0-42.672 19.11-42.672 42.672v118.766c0 23.578 19.11 42.672 42.672 42.672h341.312c23.562 0 42.688-19.094 42.688-42.672v-118.766c0-23.562-19.124-42.672-42.688-42.672z m0 161.438H384v-118.766h341.312v118.766z" fill="#434A54" /><path d="M981.312 277.32h-682.64c0-23.562-19.11-42.656-42.672-42.656H42.672C19.11 234.664 0 253.758 0 277.32v85.344c0 23.562 19.11 42.656 42.672 42.656h938.64c23.562 0 42.688-19.094 42.688-42.656v-42.672c0-23.562-19.124-42.672-42.688-42.672z" fill="#5E9CEA" /><path d="M981.312 277.32h-682.64c0-23.562-19.11-42.656-42.672-42.656H42.672C19.11 234.664 0 253.758 0 277.32v42.672c0-23.562 19.11-42.672 42.672-42.672H256c23.562 0 42.672 19.11 42.672 42.672h682.64c23.562 0 42.688 19.11 42.688 42.672v-42.672c0-23.562-19.124-42.672-42.688-42.672z" fill="#4A89DC" /><path d="M128 810.664c-23.532 0-42.672-19.156-42.672-42.656 0-23.562 19.14-42.688 42.672-42.688s42.672 19.124 42.672 42.688c0 23.5-19.14 42.656-42.672 42.656z" fill="#646C77" /><path d="M128 704.008c-35.344 0-64 28.624-64 64 0 35.312 28.656 64 64 64s64-28.688 64-64c0-35.376-28.656-64-64-64z m0 85.312c-11.766 0-21.328-9.562-21.328-21.312 0-11.782 9.562-21.344 21.328-21.344s21.328 9.562 21.328 21.344c0 11.75-9.562 21.312-21.328 21.312z" fill="#424953" /><path d="M896 810.664c-23.532 0-42.688-19.156-42.688-42.656 0-23.562 19.156-42.688 42.688-42.688s42.688 19.124 42.688 42.688c0 23.5-19.156 42.656-42.688 42.656z" fill="#646C77" /><path d="M896 704.008c-35.344 0-64 28.624-64 64 0 35.312 28.656 64 64 64s64-28.688 64-64c0-35.376-28.656-64-64-64z m0 85.312c-11.75 0-21.312-9.562-21.312-21.312 0-11.782 9.562-21.344 21.312-21.344s21.312 9.562 21.312 21.344c0 11.75-9.562 21.312-21.312 21.312z" fill="#424953" /><path d="M960 661.32H64c-11.782 0-21.328 9.562-21.328 21.344S52.218 704.008 64 704.008h896c11.782 0 21.312-9.562 21.312-21.344S971.782 661.32 960 661.32z" fill="#E6E9ED" /></svg>