<?xml version="1.0" standalone="no"?><!DOCTYPE svg PUBLIC "-//W3C//DTD SVG 1.1//EN" "http://www.w3.org/Graphics/SVG/1.1/DTD/svg11.dtd"><svg class="icon" width="128px" height="128.00px" viewBox="0 0 1024 1024" version="1.1" xmlns="http://www.w3.org/2000/svg"><path d="M426.73 476.372a63.524 63.524 0 0 1-21.328 3.654c-35.316 0-63.95-28.634-63.95-63.952 0-35.314 28.634-63.95 63.95-63.95 7.478 0 14.644 1.282 21.328 3.654V213.56h-152.88a63.942 63.942 0 0 1 3.654 21.328c0 35.316-28.634 63.95-63.95 63.95s-63.95-28.632-63.95-63.95c0-7.478 1.296-14.644 3.654-21.328H21.704v405.012H163.92a64.012 64.012 0 0 0-3.654 21.328c0 35.316 28.634 63.95 63.95 63.95s63.95-28.632 63.95-63.95c0-7.462-1.296-14.644-3.654-21.328h142.216v-142.2z" fill="#8CC153" /><path d="M810.448 885.052c-35.348 0-63.952-28.634-63.952-63.952s28.604-63.95 63.952-63.95c7.43 0 14.614 1.28 21.294 3.652v-142.232H426.73V1023.6h405.012v-142.202a64.362 64.362 0 0 1-21.294 3.654z" fill="#37BC9B" /><path d="M448.042 757.152c-7.478 0-14.644 1.28-21.312 3.652v-142.232H21.704v142.232a63.522 63.522 0 0 1 21.328-3.652c35.316 0 63.95 28.632 63.95 63.95s-28.634 63.952-63.95 63.952c-7.478 0-14.644-1.312-21.328-3.654v142.2h405.028v-142.202a64.174 64.174 0 0 0 21.312 3.654c35.316 0 63.95-28.634 63.95-63.952s-28.636-63.948-63.952-63.948z" fill="#4A89DC" /><path d="M1002.296 305.834a64.048 64.048 0 0 1-21.358 3.652c-35.286 0-63.952-28.618-63.952-63.95 0-35.316 28.666-63.952 63.952-63.952 7.492 0 14.676 1.296 21.358 3.654V43.04H597.238v142.2a63.534 63.534 0 0 0-21.294-3.654c-35.316 0-63.952 28.634-63.952 63.952 0 35.332 28.634 63.95 63.952 63.95 7.492 0 14.644-1.294 21.294-3.652v142.216h142.232a64.256 64.256 0 0 0-3.652 21.326c0 35.316 28.632 63.95 63.95 63.95s63.95-28.632 63.95-63.95c0-7.494-1.312-14.644-3.652-21.326h142.232v-142.218z" fill="#F6BB42" /><path d="M810.448 842.398c-35.348 0-63.952-28.634-63.952-63.952 0-35.314 28.604-63.95 63.952-63.95 7.43 0 14.614 1.31 21.294 3.654v-142.202H426.73v405.026h405.012v-142.232a63.502 63.502 0 0 1-21.294 3.656z" fill="#48CFAD" /><path d="M448.042 714.498c-7.478 0-14.644 1.31-21.312 3.654v-142.202H21.704v142.202a64.28 64.28 0 0 1 21.328-3.654c35.316 0 63.95 28.634 63.95 63.95S78.348 842.4 43.032 842.4c-7.478 0-14.644-1.282-21.328-3.654v142.232h405.028v-142.232a63.37 63.37 0 0 0 21.312 3.654c35.316 0 63.95-28.634 63.95-63.952-0.002-35.316-28.636-63.95-63.952-63.95z" fill="#5D9CEC" /><path d="M1002.296 263.21a64.048 64.048 0 0 1-21.358 3.652c-35.286 0-63.952-28.632-63.952-63.95s28.666-63.952 63.952-63.952c7.492 0 14.676 1.296 21.358 3.654V0.4H597.238v142.216a63.534 63.534 0 0 0-21.294-3.654c-35.316 0-63.952 28.634-63.952 63.952s28.634 63.95 63.952 63.95c7.492 0 14.644-1.294 21.294-3.652v142.216h142.232a64.068 64.068 0 0 0-3.652 21.294c0 35.316 28.632 63.952 63.95 63.952s63.95-28.634 63.95-63.952a64.12 64.12 0 0 0-3.652-21.294h142.232v-142.218z" fill="#FFCE54" /><path d="M426.73 433.748a64.332 64.332 0 0 1-21.328 3.654c-35.316 0-63.95-28.634-63.95-63.95s28.634-63.966 63.95-63.966c7.478 0 14.644 1.296 21.328 3.654v-142.2h-152.88a63.76 63.76 0 0 1 3.654 21.31c0 35.316-28.634 63.95-63.95 63.95s-63.95-28.632-63.95-63.95c0-7.478 1.296-14.644 3.654-21.31H21.704v405.012H163.92a63.852 63.852 0 0 0-3.654 21.326c0 35.316 28.634 63.95 63.95 63.95s63.95-28.632 63.95-63.95c0-7.494-1.296-14.644-3.654-21.326h142.216v-142.204z" fill="#A0D468" /></svg>