<?xml version="1.0" standalone="no"?><!DOCTYPE svg PUBLIC "-//W3C//DTD SVG 1.1//EN" "http://www.w3.org/Graphics/SVG/1.1/DTD/svg11.dtd"><svg class="icon" width="128px" height="128.00px" viewBox="0 0 1024 1024" version="1.1" xmlns="http://www.w3.org/2000/svg"><path d="M704.002 405.316c0-106.028-85.936-191.994-191.978-191.994-106.06 0-191.994 85.966-191.994 191.994l-85.342 575.982s78.592 42.686 277.336 42.686c198.728 0 277.29-42.686 277.29-42.686l-85.312-575.982z" fill="#E6E9ED" /><path d="M766.062 824.272l-254.04-137.652-254.086 137.652-23.25 157.028s78.592 42.686 277.336 42.686c198.728 0 277.29-42.686 277.29-42.686l-23.25-157.028z" fill="#F5F7FA" /><path d="M448.026 682.65h127.48V0.016l-127.48 85.31z" fill="#FFCE54" /><path d="M320.03 405.316h383.972c0-106.028-85.936-191.994-191.978-191.994-106.062 0-191.994 85.966-191.994 191.994z" fill="#ED5564" /><path d="M496.68 774.898c-8.344 8.312-8.344 21.844 0 30.156 8.312 8.344 21.844 8.344 30.156 0 8.344-8.312 8.344-21.844 0-30.156-8.312-8.344-21.844-8.344-30.156 0zM610.878 805.054c8.312-8.312 8.312-21.844 0-30.156-8.312-8.344-21.81-8.344-30.186 0-8.312 8.312-8.312 21.844 0 30.156 8.376 8.344 21.874 8.344 30.186 0zM411.588 774.898c-8.344 8.312-8.344 21.844 0 30.156a21.332 21.332 0 0 0 30.188 0c8.312-8.312 8.312-21.844 0-30.156a21.332 21.332 0 0 0-30.188 0zM539.336 859.552a21.33 21.33 0 0 0 0 30.186c8.36 8.312 21.858 8.312 30.17 0 8.312-8.344 8.312-21.842 0-30.186-8.312-8.312-21.81-8.312-30.17 0zM624.942 859.552a21.272 21.272 0 0 0 0 30.186c8.312 8.312 21.812 8.312 30.124 0a21.272 21.272 0 0 0 0-30.186c-8.312-8.312-21.812-8.312-30.124 0zM740.688 859.552c-8.376-8.312-21.874-8.312-30.186 0-8.312 8.344-8.312 21.842 0 30.186 8.312 8.312 21.81 8.312 30.186 0 8.312-8.344 8.312-21.842 0-30.186zM484.43 859.552c-8.344-8.312-21.842-8.312-30.186 0-8.312 8.344-8.312 21.842 0 30.186 8.344 8.312 21.842 8.312 30.186 0 8.312-8.344 8.312-21.842 0-30.186zM399.09 859.552c-8.312-8.312-21.844-8.312-30.156 0a21.33 21.33 0 0 0 0 30.186c8.312 8.312 21.844 8.312 30.156 0a21.334 21.334 0 0 0 0-30.186zM313.78 859.552c-8.344-8.312-21.844-8.312-30.188 0-8.312 8.344-8.312 21.842 0 30.186 8.344 8.312 21.844 8.312 30.188 0 8.312-8.344 8.312-21.842 0-30.186zM496.554 944.892c-8.344 8.312-8.344 21.844 0 30.156 8.312 8.344 21.844 8.344 30.156 0 8.344-8.312 8.344-21.844 0-30.156-8.312-8.342-21.842-8.342-30.156 0zM582.13 944.892c-8.312 8.312-8.312 21.844 0 30.156 8.312 8.344 21.81 8.344 30.186 0 8.312-8.312 8.312-21.844 0-30.156-8.374-8.342-21.872-8.342-30.186 0zM667.692 944.892c-8.312 8.312-8.312 21.844 0 30.156 8.376 8.344 21.874 8.344 30.186 0 8.312-8.312 8.312-21.844 0-30.156-8.314-8.342-21.812-8.342-30.186 0zM411.462 944.892c-8.312 8.312-8.312 21.844 0 30.156a21.332 21.332 0 0 0 30.188 0c8.312-8.312 8.312-21.844 0-30.156a21.336 21.336 0 0 0-30.188 0zM326.124 944.892c-8.312 8.312-8.312 21.844 0 30.156a21.33 21.33 0 0 0 30.186 0c8.312-8.312 8.312-21.844 0-30.156a21.334 21.334 0 0 0-30.186 0z" fill="#E6E9ED" /><path d="M527.086 293.57a21.138 21.138 0 0 0-15.344-6.218v-0.032c-67.092 0.124-122.214 52.154-127.34 117.996h42.874c4.968-42.28 40.936-75.186 84.466-75.31v-0.032c5.562 0.062 11.124-2 15.344-6.218a21.33 21.33 0 0 0 0-30.186z" fill="#DA4453" /></svg>