<?xml version="1.0" standalone="no"?><!DOCTYPE svg PUBLIC "-//W3C//DTD SVG 1.1//EN" "http://www.w3.org/Graphics/SVG/1.1/DTD/svg11.dtd"><svg class="icon" width="128px" height="128.00px" viewBox="0 0 1024 1024" version="1.1" xmlns="http://www.w3.org/2000/svg"><path d="M310.52 445.408l-87.576 47.624-180.264-53.25 53.25-180.278 87.56-47.624 180.278 53.248z" fill="#E5E8EC" /><path d="M276.192 312.754l-180.262-53.25 87.56-47.624 180.278 53.248zM856.962 177.944l-166.402 87.434 87.402 166.406 166.436-87.406z" fill="#CBD0D8" /><path d="M739.028 270.91l-29.406 95.248-166.218 87.78-87.778-166.246 29.406-95.248 166.248-87.748z" fill="#A9B1BC" /><path d="M621.842 199.944l-166.216 87.748 87.778 166.246 166.218-87.78z" fill="#E5E8EC" /><path d="M485.032 192.444l-29.406 95.248 166.216-87.748 29.438-95.248z" fill="#CBD0D8" /><path d="M272.036 409.252l-29.766-95.154 87.14-166.56 166.558 87.154 29.75 95.156-87.124 166.528z" fill="#CBD0D8" /><path d="M329.41 147.538l-87.14 166.56 166.544 87.154 87.154-166.56z" fill="#E5E8EC" /><path d="M1023.99 876.648c0 23.562-19.124 42.656-42.688 42.656H42.666c-23.562 0-42.656-19.094-42.656-42.656V321.972h1023.98v554.676z" fill="#AC92EA" /><path d="M0.01 407.314v42.656h64c0 11.78 9.532 21.342 21.312 21.342 11.782 0 21.344-9.562 21.344-21.342H149.32c0 11.78 9.562 21.342 21.344 21.342 11.78 0 21.342-9.562 21.342-21.342h42.656c0 11.78 9.562 21.342 21.344 21.342s21.312-9.562 21.312-21.342h42.686c0 11.78 9.532 21.342 21.312 21.342 11.782 0 21.344-9.562 21.344-21.342h42.656c0 11.78 9.562 21.342 21.344 21.342 11.78 0 21.342-9.562 21.342-21.342h42.656c0 11.78 9.562 21.342 21.344 21.342s21.312-9.562 21.312-21.342H576c0 11.78 9.532 21.342 21.312 21.342s21.344-9.562 21.344-21.342h42.656c0 11.78 9.562 21.342 21.344 21.342 11.78 0 21.342-9.562 21.342-21.342h42.654c0 11.78 9.562 21.342 21.344 21.342s21.312-9.562 21.312-21.342h42.688c0 11.78 9.532 21.342 21.312 21.342s21.344-9.562 21.344-21.342h42.654c0 11.78 9.562 21.342 21.344 21.342 11.78 0 21.342-9.562 21.342-21.342h63.218v-42.656H0.01z" fill="#967ADA" /><path d="M981.302 321.972v554.676c0 23.562-19.094 42.656-42.654 42.656h42.654c23.562 0 42.688-19.094 42.688-42.656V321.972h-42.688z" fill="#FFFFFF" opacity=".2" /></svg>