<?xml version="1.0" standalone="no"?><!DOCTYPE svg PUBLIC "-//W3C//DTD SVG 1.1//EN" "http://www.w3.org/Graphics/SVG/1.1/DTD/svg11.dtd"><svg class="icon" width="128px" height="128.00px" viewBox="0 0 1024 1024" version="1.1" xmlns="http://www.w3.org/2000/svg"><path d="M613.756 0.018l-101.764 38.466L410.246 0.018c-182.838 12.718-203.556 162.838-203.556 162.838V661.306h156.308v-50.654h298.692v50.654h155.622V162.856c-0.002 0-20.688-150.12-203.556-162.838z" fill="#434A54" /><path d="M527.43 347.568c8.312 8.344 8.312 21.842 0 30.186-8.344 8.312-21.844 8.312-30.188 0-8.312-8.344-8.312-21.842 0-30.186 8.344-8.312 21.844-8.312 30.188 0zM527.43 432.908c8.312 8.344 8.312 21.844 0 30.156a21.332 21.332 0 0 1-30.188 0c-8.312-8.312-8.312-21.812 0-30.156a21.332 21.332 0 0 1 30.188 0z" fill="#FFCE54" /><path d="M410.246 0.018l74.714 228.898 45.344 5.344L613.756 0.018z" fill="#E6E9ED" /><path d="M498.242 293.008c7.938 7.532 19.594 7.532 27.532 0l149.916-123.308-55.808-57.06 48.122-61.31-23.438-47.656A308.758 308.758 0 0 0 613.756 0.018l-101.764 232.992L410.246 0.018c-10.844 0.75-21.094 2-30.812 3.656l-23.404 47.654 48.092 61.31-55.78 57.06 149.9 123.31z" fill="#656D78" /><path d="M299 298.664c-11.782 0-21.312 9.56-21.312 21.342v341.3h42.654v-341.3c0-11.782-9.532-21.342-21.342-21.342zM747 320.006c0-11.782-9.56-21.342-21.31-21.342-11.812 0-21.376 9.56-21.376 21.342v341.3H747v-341.3z" fill="#2C323A" /><path d="M320.342 512v511.982h383.972V512z" fill="#656D78" /><path d="M512.336 725.304c-11.782 0-21.344 9.562-21.344 21.344v277.334h42.688V746.648c0-11.78-9.562-21.344-21.344-21.344z" fill="#434A54" /><path d="M527.43 560.904c8.312 8.344 8.312 21.842 0 30.154a21.332 21.332 0 0 1-30.188 0c-8.312-8.312-8.312-21.81 0-30.154a21.332 21.332 0 0 1 30.188 0z" fill="#FFCE54" /><path d="M441.4 560.904a21.35 21.35 0 0 0-15.094-6.25h-106.652v42.654h106.652c5.438 0 10.906-2.062 15.094-6.25 8.312-8.312 8.312-21.81 0-30.154zM704.314 554.654h-106.622c-5.5 0-10.938 2.094-15.124 6.25-8.312 8.344-8.312 21.842 0 30.154a21.234 21.234 0 0 0 15.124 6.25h106.622v-42.654z" fill="#434A54" /></svg>