<?xml version="1.0" standalone="no"?><!DOCTYPE svg PUBLIC "-//W3C//DTD SVG 1.1//EN" "http://www.w3.org/Graphics/SVG/1.1/DTD/svg11.dtd"><svg class="icon" width="128px" height="128.00px" viewBox="0 0 1024 1024" version="1.1" xmlns="http://www.w3.org/2000/svg"><path d="M661.308 106.67H362.676c-23.562 0-42.67 19.124-42.67 42.686v85.308c0 23.562 19.11 42.688 42.67 42.688h298.632c23.56 0 42.686-19.124 42.686-42.688V149.356c0-23.564-19.124-42.686-42.686-42.686z m0 127.994H362.676V149.356h298.632v85.308z" fill="#434A54" /><path d="M661.308 106.67H362.676c-23.562 0-42.67 19.124-42.67 42.686v23.532h383.988V149.356c0-23.564-19.124-42.686-42.686-42.686z" fill="#DA4453" /><path d="M597.308 128.012c11.812 0 21.376-9.562 21.376-21.342h-42.686c0 11.78 9.56 21.342 21.31 21.342zM512 128.012c11.782 0 21.328-9.562 21.328-21.342h-42.656c0 11.78 9.546 21.342 21.328 21.342zM426.674 128.012c11.782 0 21.328-9.562 21.328-21.342h-42.67c0 11.78 9.562 21.342 21.342 21.342z" fill="#080808" opacity=".1" /><path d="M874.674 256.008h-85.372c-11.75 0-21.312-9.562-21.312-21.344 0-11.78 9.562-21.31 21.312-21.31h85.372c11.75 0 21.312 9.532 21.312 21.31 0 11.782-9.562 21.344-21.312 21.344zM234.68 256.008H149.34c-11.782 0-21.328-9.562-21.328-21.344 0-11.78 9.546-21.31 21.328-21.31h85.34c11.782 0 21.328 9.532 21.328 21.31 0 11.782-9.546 21.344-21.328 21.344z" fill="#FFCE54" /><path d="M1002.67 234.664H21.344c-11.78 0-21.328 9.562-21.328 21.344v639.978c0 11.782 9.546 21.344 21.328 21.344h981.326c11.75 0 21.312-9.562 21.312-21.344V256.008c0-11.782-9.562-21.344-21.312-21.344z" fill="#965353" /><path d="M647.746 710.43c-74.966 74.966-196.526 74.966-271.506 0-74.982-74.996-74.982-196.556 0-271.522 74.98-74.998 196.54-74.998 271.506 0 74.994 74.966 74.994 196.526 0 271.522z" fill="#FFCE54" /><path d="M512 787.988c-56.984 0-110.542-22.186-150.838-62.466-40.296-40.308-62.482-93.87-62.482-150.87 0-56.966 22.186-110.528 62.482-150.838 40.296-40.28 93.856-62.464 150.838-62.464 56.998 0 110.558 22.186 150.84 62.464 40.28 40.31 62.462 93.872 62.462 150.838 0 57-22.184 110.56-62.462 150.87-40.282 40.28-93.842 62.466-150.84 62.466z m0-383.984c-45.578 0-88.436 17.748-120.668 49.996-32.234 32.218-49.998 75.092-49.998 120.652 0 45.594 17.764 88.466 49.998 120.686 32.232 32.246 75.09 49.996 120.668 49.996 45.592 0 88.434-17.75 120.684-49.996 32.25-32.218 49.998-75.092 49.998-120.686 0-45.56-17.748-88.434-49.998-120.652-32.25-32.248-75.092-49.996-120.684-49.996z" fill="#F6BB42" /><path d="M0.018 256.008v63.998s85.324 0 85.324-85.342H21.344c-11.78 0-21.326 9.562-21.326 21.344zM1002.67 234.664h-63.996c0 85.342 85.308 85.342 85.308 85.342v-63.998c0-11.782-9.562-21.344-21.312-21.344zM21.344 874.642h64.778l-0.782-1.75c0-85.342-85.324-85.342-85.324-85.342v65.78c0.002 11.782 9.548 21.312 21.328 21.312zM938.674 872.892l-0.25 1.75h64.246c11.75 0 21.312-9.532 21.312-21.312v-65.78s-85.308 0-85.308 85.342z" fill="#FFCE54" /><path d="M149.34 234.664h85.34v682.666H149.34zM789.302 234.664h85.372v682.666h-85.372z" fill="#ED5564" /><path d="M542.204 565.84c-0.796 0-1.594-0.062-2.39-0.156l-135.762-15.06c-11.704-1.312-20.14-11.876-18.844-23.562a21.302 21.302 0 0 1 23.562-18.842l135.762 15.06c11.716 1.312 20.154 11.876 18.842 23.562-1.22 10.906-10.438 18.998-21.17 18.998z" fill="#434A54" /><path d="M557.248 701.586c-10.748 0-19.982-8.06-21.202-18.966l-15.078-135.778c-1.296-11.688 7.14-22.25 18.844-23.562 11.686-1.282 22.248 7.156 23.56 18.876l15.062 135.746c1.312 11.718-7.124 22.248-18.812 23.56a21.26 21.26 0 0 1-2.374 0.124z" fill="#434A54" /><path d="M602.496 484.156c-8.312-8.344-21.81-8.344-30.154 0l-114.434 114.434h-51.498c-11.782 0-21.328 9.532-21.328 21.312s9.546 21.344 21.328 21.344h38.998v38.998c0 11.782 9.562 21.342 21.342 21.342s21.328-9.56 21.328-21.342v-51.498l114.418-114.436c8.344-8.31 8.344-21.81 0-30.154z" fill="#656D78" /><path d="M1002.67 874.642H21.344c-11.78 0-21.328-9.532-21.328-21.312v42.656c0 11.782 9.546 21.344 21.328 21.344h981.326c11.75 0 21.312-9.562 21.312-21.344v-42.656c0 11.782-9.562 21.312-21.312 21.312z" fill="#080808" opacity=".1" /></svg>