<?xml version="1.0" standalone="no"?><!DOCTYPE svg PUBLIC "-//W3C//DTD SVG 1.1//EN" "http://www.w3.org/Graphics/SVG/1.1/DTD/svg11.dtd"><svg class="icon" width="128px" height="128.00px" viewBox="0 0 1024 1024" version="1.1" xmlns="http://www.w3.org/2000/svg"><path d="M661.344 117.344H362.672c-23.562 0-42.656 19.094-42.656 42.656v191.344c0 23.562 19.094 42.656 42.656 42.656h298.672c23.562 0 42.656-19.094 42.656-42.656V160c0-23.562-19.094-42.656-42.656-42.656z m0 234H362.672V160h298.672v191.344z" fill="#434A54" /><path d="M917.344 202.656H832c-11.782 0-21.312 9.562-21.312 21.344s9.532 21.344 21.312 21.344h85.344c11.782 0 21.344-9.562 21.344-21.344s-9.564-21.344-21.344-21.344zM192.016 202.656H106.672c-11.782 0-21.328 9.562-21.328 21.344s9.546 21.344 21.328 21.344h85.344c11.782 0 21.328-9.562 21.328-21.344s-9.548-21.344-21.328-21.344z" fill="#ED5564" /><path d="M1024 309.344c0-23.562-19.094-42.688-42.656-42.688H42.672C19.11 266.656 0 285.782 0 309.344V864c0 23.562 19.11 42.656 42.672 42.656h938.672c23.562 0 42.656-19.094 42.656-42.656V309.344z" fill="#CCD1D9" /><path d="M1024 266.656c0-23.562-19.094-42.656-42.656-42.656H42.672C19.11 224 0 243.094 0 266.656v554.656C0 844.876 19.11 864 42.672 864h938.672c23.562 0 42.656-19.124 42.656-42.688V266.656z" fill="#E6E9ED" /><path d="M277.344 546.468a234.672 234.656 0 1 0 469.344 0 234.672 234.656 0 1 0-469.344 0Z" fill="#ED5564" /><path d="M426.672 610.468c-23.468 0-42.656-19.218-42.656-42.656v-42.688c0-23.438 19.188-42.656 42.656-42.656h170.672c23.468 0 42.656 19.218 42.656 42.656v42.688c0 23.438-19.188 42.656-42.656 42.656h-170.672z" fill="#E6E9ED" /><path d="M575.812 629.312c0 23.5-19.188 42.688-42.656 42.688h-42.672c-23.468 0-42.672-19.188-42.672-42.688v-170.656c0-23.468 19.204-42.656 42.672-42.656h42.672c23.468 0 42.656 19.188 42.656 42.656v170.656z" fill="#F5F7FA" /></svg>