<?xml version="1.0" standalone="no"?><!DOCTYPE svg PUBLIC "-//W3C//DTD SVG 1.1//EN" "http://www.w3.org/Graphics/SVG/1.1/DTD/svg11.dtd"><svg class="icon" width="128px" height="128.00px" viewBox="0 0 1024 1024" version="1.1" xmlns="http://www.w3.org/2000/svg"><path d="M512.024 0c-282.75 0-512 229.234-512 512 0 282.75 229.25 512 512 512 282.766 0 511.954-229.25 511.954-512C1023.976 229.234 794.79 0 512.024 0z m331.828 843.876c-43.124 43.124-93.25 76.938-149.124 100.594-57.812 24.468-119.312 36.844-182.704 36.844-63.376 0-124.812-12.376-182.656-36.844-55.906-23.656-106.094-57.468-149.218-100.594-43.094-43.124-76.938-93.312-100.562-149.188C55.086 636.844 42.71 575.376 42.71 512s12.376-124.844 36.876-182.672c23.624-55.876 57.468-106.078 100.562-149.204 43.124-43.11 93.312-76.954 149.218-100.594 57.844-24.454 119.282-36.86 182.656-36.86 63.39 0 124.89 12.406 182.704 36.86 55.876 23.64 106 57.484 149.124 100.594 43.124 43.124 77 93.328 100.624 149.204 24.438 57.828 36.876 119.296 36.876 182.672s-12.438 124.844-36.876 182.688c-23.622 55.874-57.498 106.062-100.622 149.188z" fill="#F6BB42" /><path d="M661.29 512c0 82.438-66.812 149.25-149.266 149.25-82.376 0-149.188-66.812-149.188-149.25 0-82.422 66.812-149.218 149.188-149.218 82.452 0 149.266 66.796 149.266 149.218z" fill="#FFCE54" /></svg>