<?xml version="1.0" standalone="no"?><!DOCTYPE svg PUBLIC "-//W3C//DTD SVG 1.1//EN" "http://www.w3.org/Graphics/SVG/1.1/DTD/svg11.dtd"><svg class="icon" width="128px" height="128.00px" viewBox="0 0 1024 1024" version="1.1" xmlns="http://www.w3.org/2000/svg"><path d="M383.98 128.006c-94.25 0-170.654 76.406-170.654 170.654 0 94.264 76.404 170.668 170.654 170.668 94.28 0 170.698-76.404 170.698-170.668 0-94.248-76.42-170.654-170.698-170.654z m0 298.652c-70.562 0-127.998-57.422-127.998-127.998s57.436-127.998 127.998-127.998c70.592 0 127.998 57.422 127.998 127.998s-57.406 127.998-127.998 127.998z" fill="#CBD0D8" /><path d="M639.99 1023.99H426.666s-170.684-127.998-170.684-341.338c0-255.994 170.684-447.992 170.684-447.992V85.336h213.324v149.326s170.684 191.998 170.684 447.992c0 213.338-170.684 341.336-170.684 341.336z" fill="#E5E8EC" /><path d="M255.982 682.652c0 213.34 170.684 341.338 170.684 341.338h213.324s170.684-127.998 170.684-341.338c0-44.842-5.25-87.748-13.938-127.996H269.888c-8.626 40.248-13.906 83.154-13.906 127.996z" fill="#FECD57" /><path d="M682.678 831.994c0 11.78-9.562 21.31-21.376 21.31-11.75 0-21.312-9.532-21.312-21.31 0-11.782 9.562-21.344 21.312-21.344 11.814 0 21.376 9.562 21.376 21.344zM638.428 917.304c0 11.812-9.5 21.344-21.312 21.344-11.75 0-21.312-9.532-21.312-21.344 0-11.75 9.562-21.312 21.312-21.312 11.812 0 21.312 9.562 21.312 21.312z" fill="#F5BA45" /><path d="M639.99 234.662V85.336h-42.688v149.326s170.684 191.998 170.684 447.992c0 213.34-170.684 341.338-170.684 341.338h42.688s170.684-127.998 170.684-341.338c0-255.996-170.684-447.992-170.684-447.992z" fill="#FFFFFF" opacity=".2" /><path d="M639.99 21.338c0-11.782-9.562-21.328-21.312-21.328H447.978c-11.75 0-21.312 9.546-21.312 21.328 0 11.78 9.562 21.328 21.312 21.328H618.678c11.75 0 21.312-9.548 21.312-21.328z" fill="#424953" /><path d="M405.322 21.338v85.326c0 11.782 9.562 21.342 21.344 21.342h192.012c45.688 0 64-106.668 64-106.668H405.322z" fill="#646C77" /></svg>