<?xml version="1.0" standalone="no"?><!DOCTYPE svg PUBLIC "-//W3C//DTD SVG 1.1//EN" "http://www.w3.org/Graphics/SVG/1.1/DTD/svg11.dtd"><svg class="icon" width="128px" height="128.00px" viewBox="0 0 1024 1024" version="1.1" xmlns="http://www.w3.org/2000/svg"><path d="M1002.64 714.678H21.362c-11.78 0-21.342-22.464-21.342-10.686v277.302a21.332 21.332 0 0 0 21.342 21.344H1002.64c11.782 0 21.312-9.532 21.312-21.344V703.992c0.002-11.78-9.53 10.686-21.312 10.686z" fill="#5D9CEC" /><path d="M297.102 469.344c-10.532 0-19.686-7.812-21.124-18.532-2.376-17.874-20.218-21.686-27.812-23.31-16.188-3.454-32.186-1.718-32.342-1.704-11.688 1.376-22.282-6.984-23.656-18.686-1.406-11.704 6.968-22.296 18.688-23.688 33.78-3.984 99.714 3.796 107.402 61.764 1.562 11.686-6.656 22.404-18.312 23.952a19.452 19.452 0 0 1-2.844 0.204z" fill="#656D78" /><path d="M297.166 469.344c-0.938 0-1.876-0.062-2.812-0.188a21.32 21.32 0 0 1-18.374-23.92c0.438-3.328 5.032-32.968 32.124-51.452 20.874-14.234 48.154-17.312 81.028-9.156 11.438 2.844 18.406 14.422 15.562 25.86-2.844 11.42-14.406 18.388-25.842 15.56-14.156-3.532-33.75-5.86-46.686 2.984-11.406 7.766-13.876 21.608-13.876 21.732-1.408 10.752-10.594 18.58-21.124 18.58z" fill="#656D78" /><path d="M682.654 746.646c-3.282 0-6.532-0.75-9.532-2.25l-33.124-16.562-33.124 16.562a21.178 21.178 0 0 1-19.094 0l-33.124-16.562-33.124 16.562c-6 3.032-13.062 3-19.094 0l-33.124-16.562-33.124 16.562a21.11 21.11 0 0 1-19.062 0l-33.124-16.562-33.124 16.562a21.174 21.174 0 0 1-19.092 0l-33.124-16.562-33.124 16.562c-6 3.032-13.062 3-19.092 0l-33.124-16.562-33.124 16.562a21.11 21.11 0 0 1-19.062 0l-33.124-16.562-33.124 16.562a21.214 21.214 0 0 1-16.28 1.156L14.614 724.24c-11.188-3.75-17.218-15.81-13.5-26.998 3.718-11.186 15.812-17.216 26.966-13.498l55.624 18.56 34.78-17.374c6-3 13.062-3 19.062 0l33.124 16.56 33.124-16.56c6-3 13.092-3 19.092 0l33.124 16.56 33.124-16.56c6-3 13.062-3 19.062 0l33.124 16.56 33.124-16.56c6.032-3 13.092-3 19.092 0l33.124 16.56 33.124-16.56c6-3 13.062-3 19.094 0l33.124 16.56 33.124-16.56c5.998-3 13.06-3 19.06 0l33.124 16.56 33.124-16.56a21.38 21.38 0 0 1 19.094 0l33.124 16.56 33.122-16.56c5.998-3 13.06-3 19.092 0l33.124 16.56 33.124-16.56c6-3 13.062-3 19.06 0l33.124 16.56 33.124-16.56c6-3 13.094-3 19.094 0l34.75 17.374 55.622-18.56c11.188-3.718 23.25 2.312 27 13.498 3.718 11.188-2.344 23.248-13.5 26.998l-63.996 21.312a21.21 21.21 0 0 1-16.282-1.156l-33.124-16.562-33.156 16.562a21.106 21.106 0 0 1-19.06 0l-33.124-16.562-33.124 16.562a21.178 21.178 0 0 1-19.094 0l-33.124-16.562-33.122 16.562a21.24 21.24 0 0 1-9.528 2.25zM426.66 853.298a20.84 20.84 0 0 1-9.532-2.25l-33.124-16.562-33.124 16.562c-6 3-13.092 3-19.092 0l-33.124-16.562-33.124 16.562c-6 3-13.062 3-19.092 0l-33.124-16.562-33.124 16.562c-6 3-13.062 3-19.062 0l-33.124-16.562-33.124 16.562a21.23 21.23 0 0 1-16.28 1.188L14.614 830.892c-11.188-3.718-17.218-15.81-13.5-26.966 3.718-11.188 15.812-17.248 26.966-13.5l55.624 18.532 34.78-17.406c6-3 13.062-3 19.062 0l33.124 16.562 33.124-16.562c6-3 13.092-3 19.092 0l33.124 16.562 33.124-16.562c6-3 13.062-3 19.062 0l33.124 16.562 33.124-16.562c6.032-3 13.092-3 19.092 0l42.654 21.376c10.562 5.25 14.812 18.06 9.562 28.592a21.35 21.35 0 0 1-19.092 11.778zM576 917.298a21.352 21.352 0 0 1-19.094-11.782c-5.282-10.532-1-23.344 9.532-28.594l42.686-21.376c6-3 13.062-3 19.062 0l33.124 16.562 33.124-16.562c6.032-3 13.092-3 19.092 0l33.124 16.562 33.124-16.562c6-3 13.062-3 19.094 0l33.124 16.562 33.124-16.562c6-3 13.062-3 19.062 0l33.124 16.562 33.124-16.562c6-3 13.094-3 19.094 0l42.654 21.376c10.532 5.25 14.812 18.062 9.532 28.594-5.25 10.532-18.062 14.812-28.594 9.532l-33.124-16.562-33.154 16.562c-6 3-13.062 3-19.062 0l-33.124-16.562-33.124 16.562c-6 3-13.062 3-19.094 0l-33.124-16.562-33.124 16.562c-6 3-13.062 3-19.062 0l-33.122-16.562-33.124 16.562a21.38 21.38 0 0 1-19.094 0l-33.124-16.562-33.124 16.562a20.816 20.816 0 0 1-9.532 2.25z" fill="#4A89DC" /><path d="M746.648 170.684c0 70.684 57.312 127.994 127.996 127.994 70.688 0 127.996-57.31 127.996-127.994 0-70.686-57.308-127.996-127.996-127.996-70.684 0-127.996 57.31-127.996 127.996z" fill="#FFCE54" /><path d="M874.644 320.006c-82.34 0-149.34-66.982-149.34-149.322 0-82.342 67-149.322 149.34-149.322 82.342 0 149.308 66.98 149.308 149.322 0.002 82.34-66.966 149.322-149.308 149.322z m0-255.992c-58.808 0-106.652 47.86-106.652 106.67 0 58.808 47.844 106.652 106.652 106.652 58.812 0 106.654-47.844 106.654-106.652 0-58.81-47.84-106.67-106.654-106.67zM874.644 554.686c-11.782 0-21.344-9.562-21.344-21.36v-170.65c0-11.78 9.562-21.342 21.344-21.342s21.344 9.562 21.344 21.342v170.65c0 11.798-9.562 21.36-21.344 21.36z" fill="#F6BB42" /><path d="M1002.516 413.47a21.348 21.348 0 0 1-18.5-10.67l-31.842-55.186c-5.904-10.204-2.406-23.25 7.812-29.14 10.188-5.89 23.248-2.39 29.124 7.812l31.876 55.186c5.876 10.204 2.376 23.25-7.812 29.14a21.346 21.346 0 0 1-10.658 2.858z" fill="#FFCE54" /><path d="M708.338 96.03c-3.592 0-7.28-0.922-10.624-2.876L642.372 61.2c-10.218-5.89-13.718-18.936-7.812-29.138 5.876-10.202 18.938-13.702 29.124-7.812l55.338 31.966c10.218 5.89 13.718 18.938 7.812 29.14-3.936 6.846-11.122 10.674-18.496 10.674z" fill="#F6BB42" /><path d="M682.654 192.01h-170.652c-11.782 0-21.344-9.546-21.344-21.326 0-11.782 9.562-21.328 21.344-21.328h170.652c11.78 0 21.342 9.546 21.342 21.328 0 11.778-9.562 21.326-21.342 21.326z" fill="#FFCE54" /><path d="M560.594 373.348a21.348 21.348 0 0 1-18.498-10.672c-5.876-10.202-2.376-23.248 7.81-29.138l147.808-85.342c10.186-5.89 23.246-2.39 29.122 7.812 5.906 10.204 2.406 23.25-7.812 29.14l-147.774 85.34a21.31 21.31 0 0 1-10.656 2.86z" fill="#F6BB42" /><path d="M693.308 506.078c-3.624 0-7.282-0.922-10.654-2.86-10.188-5.89-13.688-18.938-7.812-29.14l85.338-147.792c5.876-10.204 18.938-13.704 29.124-7.812 10.218 5.89 13.718 18.938 7.812 29.14l-85.31 147.792a21.348 21.348 0 0 1-18.498 10.672z" fill="#FFCE54" /><path d="M255.448 170.684c-60.278 1.578-97.184 28.388-117.496 50.592a153.808 153.808 0 0 0-8.25 9.794c-13.656-18.67-30.562-28.404-44.624-33.466-23.218-8.36-43.342-5.688-45.56-5.36l0.032 0.094c-10.062 1.734-17.718 10.468-17.718 21.016 0 11.782 9.562 21.326 21.342 21.326 1.218 0 2.438-0.124 3.594-0.328 8.342-0.766 47.124-1.468 60.654 48.562 2.562 9.5 11.186 15.764 20.562 15.764 1.844 0 3.718-0.234 5.594-0.734a21.296 21.296 0 0 0 14.782-14.248h0.032l-0.062 0.14c0.906-2.796 23.312-68.28 108.246-70.498 11.782-0.312 21.062-10.11 20.75-21.876-0.316-11.78-10.098-21.09-21.878-20.778z" fill="#434A54" /></svg>