<?xml version="1.0" standalone="no"?><!DOCTYPE svg PUBLIC "-//W3C//DTD SVG 1.1//EN" "http://www.w3.org/Graphics/SVG/1.1/DTD/svg11.dtd"><svg class="icon" width="128px" height="128.00px" viewBox="0 0 1024 1024" version="1.1" xmlns="http://www.w3.org/2000/svg"><path d="M241.182 1015.314a21.144 21.144 0 0 1-15.062-6.25c-8.344-8.312-8.344-21.842 0-30.154l73.778-73.808c8.312-8.342 21.842-8.342 30.154 0 8.344 8.312 8.344 21.81 0 30.154l-73.778 73.808a21.208 21.208 0 0 1-15.092 6.25zM30.006 804.17a21.28 21.28 0 0 1-15.062-6.25 21.334 21.334 0 0 1 0-30.186l73.808-73.808c8.312-8.344 21.842-8.344 30.156 0 8.342 8.342 8.342 21.842 0 30.154L45.1 797.92a21.3 21.3 0 0 1-15.094 6.25z" fill="#EAAD7A" /><path d="M1017.782 6.368a21.3 21.3 0 0 0-15.81-6.296c-1.75 0.046-43.466 1.53-109.65 16.874-109.4 25.388-202.27 69.012-260.892 101.134-119.01 65.168-228.66 153.148-325.904 261.456C184.436 514.404 82.286 681.364 1.946 875.822c-6.688 16.094 4.344 32.592 28.436 59.246 13.218 14.594 26.812 27.876 28.75 29.812 2.062 2.094 14.28 14.56 28.06 27.124 29.25 26.686 41.03 31.904 51.498 31.936 3.312 0 6.53-0.624 9.5-1.876 194.302-80.308 361.232-182.366 496.082-303.39 108.308-97.182 196.242-206.754 261.458-325.67 111.398-203.162 117.992-363.732 118.242-370.886a21.37 21.37 0 0 0-6.19-15.75z" fill="#F4BE8E" /><path d="M905.726 393.004c111.398-203.162 117.992-363.732 118.242-370.886A21.356 21.356 0 0 0 1001.97 0.072c-0.468 0.016-3.438 0.11-8.686 0.5-2.688 36.624-19.312 182.818-117.714 362.278-65.214 118.9-153.18 228.488-261.484 325.67-134.854 121.026-301.75 223.082-496.052 303.39-3 1.216-6.188 1.842-9.5 1.842h-0.032c-10.436 0-22.25-5.216-51.498-31.902a681.9 681.9 0 0 1-12.874-12.124c7.686 7.968 13.75 13.906 15 15.156 2.062 2.094 14.28 14.56 28.06 27.124 29.25 26.686 41.03 31.904 51.498 31.936 3.312 0 6.53-0.624 9.5-1.876 194.302-80.308 361.232-182.366 496.082-303.39 108.308-97.184 196.242-206.756 261.456-325.672z" fill="#FFFFFF" opacity=".2" /><path d="M255.276 790.076c-5.468 0-10.936-2.062-15.092-6.25-8.342-8.312-8.342-21.842 0-30.154L987.378 6.476c8.344-8.328 21.842-8.328 30.184 0 8.312 8.328 8.312 21.844 0 30.17l-747.256 747.18a21.074 21.074 0 0 1-15.03 6.25z" fill="#ED5564" /><path d="M44.068 1001.252a21.276 21.276 0 0 1-15.062-6.25c-8.342-8.342-8.342-21.84 0-30.152l120.682-120.684c8.312-8.31 21.812-8.31 30.154 0a21.332 21.332 0 0 1 0 30.188l-120.65 120.648a21.42 21.42 0 0 1-15.124 6.25z" fill="#FFD2A6" /></svg>