<?xml version="1.0" standalone="no"?><!DOCTYPE svg PUBLIC "-//W3C//DTD SVG 1.1//EN" "http://www.w3.org/Graphics/SVG/1.1/DTD/svg11.dtd"><svg class="icon" width="128px" height="128.00px" viewBox="0 0 1024 1024" version="1.1" xmlns="http://www.w3.org/2000/svg"><path d="M250.58 728.202l-39.124-39.122-30.184 30.186 39.122 39.124c8.312 8.31 21.844 8.31 30.188 0 8.306-8.346 8.306-21.846-0.002-30.188z" fill="#CCD1D9" /><path d="M295.826 773.48c-8.312-8.344-21.844-8.344-30.188 0-8.312 8.31-8.312 21.81 0 30.154l44.308 44.278 30.156-30.154-44.276-44.278z" fill="#AAB2BC" /><path d="M302.452 832.38c20.184-27.184 51.122-42.872 84.992-43.122l351.442-473.746-30.496-30.498-407.188 548.898 0.124 0.062 1.126-1.594z" fill="#CCD1D9" /><path d="M708.388 285.016L234.706 636.49a110.106 110.106 0 0 1-1.188 14.968c-4.156 28.184-19.062 53.058-41.934 70.056-0.532 0.376-1.062 0.75-1.624 1.124l0.094 0.094 548.832-407.22-30.498-30.496z" fill="#E6E9ED" /><path d="M230.83 559.558c-25.124-33.842-63.778-51.714-102.93-51.714-26.5 0-53.214 8.188-76.152 25.186-56.774 42.122-68.648 122.304-26.528 179.08 25.122 33.842 63.746 51.746 102.898 51.746 26.528 0 53.246-8.216 76.148-25.216 56.81-42.122 68.686-122.304 26.564-179.082z m-18.374 88.776c-3.376 22.56-15.278 42.464-33.59 56.028-14.844 10.998-32.372 16.81-50.746 16.81-27.344 0-52.372-12.56-68.652-34.498-27.996-37.778-20.058-91.336 17.688-119.366 14.844-10.998 32.372-16.81 50.746-16.81 27.372 0 52.372 12.56 68.652 34.496 13.588 18.312 19.214 40.808 15.902 63.34z" fill="#E6E9ED" /><path d="M464.374 793.134c-22.902-16.998-49.622-25.216-76.148-25.216-39.152 0-77.778 17.904-102.898 51.746-42.122 56.778-30.25 136.958 26.528 179.08 22.906 17 49.652 25.216 76.152 25.216 39.152 0 77.804-17.904 102.93-51.746 42.118-56.774 30.244-136.958-26.564-179.08z m-7.716 153.646c-16.282 21.938-41.282 34.498-68.652 34.498-18.376 0-35.902-5.812-50.746-16.81-18.312-13.594-30.188-33.466-33.558-56.028-3.312-22.532 2.308-45.028 15.872-63.34 16.282-21.936 41.308-34.496 68.652-34.496 18.376 0 35.902 5.81 50.746 16.81 37.776 28.03 45.714 81.588 17.686 119.366z" fill="#CCD1D9" /><path d="M1023.99 21.35c0-11.78-9.562-21.31-21.312-21.31a21.238 21.238 0 0 0-15.124 6.25L708.576 285.266l30.184 30.186L1017.74 36.442a21.168 21.168 0 0 0 6.25-15.092z" fill="#E6E9ED" /></svg>