<?xml version="1.0" standalone="no"?><!DOCTYPE svg PUBLIC "-//W3C//DTD SVG 1.1//EN" "http://www.w3.org/Graphics/SVG/1.1/DTD/svg11.dtd"><svg class="icon" width="128px" height="128.00px" viewBox="0 0 1024 1024" version="1.1" xmlns="http://www.w3.org/2000/svg"><path d="M6.25002 804.416A21.354 21.354 0 0 1 0.00002 789.324v-85.34c0-11.78 9.562-21.31 21.342-21.31h211.82l214.928-214.96c4-4 9.422-6.218 15.078-6.25 5.672 0.032 11.094 2.25 15.094 6.25l60.34 60.342a21.36 21.36 0 0 1 0 30.186L292.42602 804.416a21.392 21.392 0 0 1-14.046 6.218c-0.36 0-0.704 0.032-1.046 0.032H21.34202a21.328 21.328 0 0 1-15.092-6.25zM957.41602 700.14l-90.874-90.872c-8.344-8.312-21.842-8.312-30.186 0l-90.496 90.528c-4 4-6.25 9.406-6.25 15.062s2.25 11.094 6.25 15.094l90.872 90.87c8.312 8.344 21.842 8.344 30.154 0l90.53-90.494c8.31-8.344 8.31-21.844 0-30.188z" fill="#5D9CEC" /><path d="M897.07402 639.8L354.01802 96.758c-4-4-9.42-6.25-15.078-6.25s-11.094 2.25-15.094 6.25l-181.008 181.024c-8.328 8.344-8.328 21.844 0 30.156L685.89602 850.98c8.312 8.344 21.812 8.344 30.154 0l181.024-180.992c8.312-8.346 8.312-21.844 0-30.188z" fill="#434A54" /><path d="M1023.72602 658.298a21.32 21.32 0 0 0-6-18.498L384.18802 6.262c-8.328-8.312-21.842-8.312-30.17 0L173.00802 187.286c-8.328 8.312-8.328 21.842 0 30.154l573.228 573.228a21.324 21.324 0 0 0 24.624 3.968l241.336-120.65a21.444 21.444 0 0 0 11.53-15.688z" fill="#656D78" /><path d="M958.22802 700.954L716.86402 459.62a21.08 21.08 0 0 0-8.124-5.094l-92.124-31.78c-11.156-3.844-23.28 2.062-27.124 13.186-2.75 8-0.5 16.468 5.094 22.062 2.218 2.218 4.936 4 8.124 5.062l87.466 30.186L917.98002 721.078l40.248-20.124zM474.96602 338.406L248.42802 111.852l-30.17 30.186L444.79402 368.56c8.328 8.342 21.842 8.342 30.17 0s8.33-21.842 0.002-30.154zM369.11202 81.698l-45.264-45.25-30.17 30.156 45.264 45.248c8.328 8.344 21.828 8.344 30.17 0 8.326-8.312 8.326-21.844 0-30.154z" fill="#434A54" /><path d="M341.33202 746.67c0-22.81-8.89-44.248-25-60.34-16.124-16.124-37.546-25-60.342-25-47.044 0-85.324 38.28-85.324 85.34 0 22.782 8.874 44.216 24.982 60.308 16.124 16.124 37.546 25 60.342 25 47.06 0 85.342-38.278 85.342-85.308z" fill="#E6E9ED" /><path d="M6.25002 1017.722A21.214 21.214 0 0 1 0.00002 1002.66V490.68c0-11.812 9.562-21.342 21.342-21.342a21.318 21.318 0 0 1 21.328 21.342v511.98c0 11.782-9.546 21.312-21.328 21.312a21.22 21.22 0 0 1-15.092-6.25z" fill="#434A54" /><path d="M277.33402 746.67c0 11.75-9.562 21.312-21.342 21.312-11.782 0-21.328-9.562-21.328-21.312a21.32 21.32 0 0 1 21.328-21.342c11.778 0 21.342 9.532 21.342 21.342z" fill="#CCD1D9" /></svg>