<?xml version="1.0" standalone="no"?><!DOCTYPE svg PUBLIC "-//W3C//DTD SVG 1.1//EN" "http://www.w3.org/Graphics/SVG/1.1/DTD/svg11.dtd"><svg class="icon" width="128px" height="128.00px" viewBox="0 0 1024 1024" version="1.1" xmlns="http://www.w3.org/2000/svg"><path d="M85.354 757.19c-35.312 0-63.998-28.75-63.998-63.998V181.406c0-35.28 28.686-63.998 63.998-63.998h853.292c35.312 0 64 28.718 64 63.998v511.786c0 35.248-28.688 63.998-64 63.998H85.354z" fill="#AC92EB" /><path d="M682.652 415.838c-11.75 0-21.312-9.562-21.312-21.312v-127.996c0-11.782 9.562-21.344 21.312-21.344h127.996c11.782 0 21.344 9.562 21.344 21.344v127.996c0 11.75-9.562 21.312-21.344 21.312h-127.996z" fill="#F5F7FA" /><path d="M746.65 373.182c-23.498 0-42.654-19.124-42.654-42.656 0-23.53 19.156-42.686 42.654-42.686 23.53 0 42.686 19.156 42.686 42.686 0 23.532-19.156 42.656-42.686 42.656z" fill="#FC6E51" /><path d="M448 415.838c-11.748 0-21.342-9.562-21.342-21.312v-127.996c0-11.782 9.594-21.344 21.342-21.344h127.998c11.75 0 21.344 9.562 21.344 21.344v127.996c0 11.75-9.594 21.312-21.344 21.312H448z" fill="#F5F7FA" /><path d="M512 373.182c-23.532 0-42.656-19.124-42.656-42.656 0-23.53 19.124-42.686 42.656-42.686s42.656 19.156 42.656 42.686c0 23.532-19.124 42.656-42.656 42.656z" fill="#FC6E51" /><path d="M213.35 415.838c-11.78 0-21.342-9.562-21.342-21.312v-127.996c0-11.782 9.562-21.344 21.342-21.344h127.998c11.75 0 21.312 9.562 21.312 21.344v127.996c0 11.75-9.562 21.312-21.312 21.312h-127.998z" fill="#F5F7FA" /><path d="M810.648 223.842h-127.996c-23.562 0-42.656 19.124-42.656 42.686v127.996c0 23.562 19.094 42.656 42.656 42.656h127.996c23.562 0 42.688-19.094 42.688-42.656v-127.996c0-23.562-19.126-42.686-42.688-42.686z m0 170.684h-127.996v-127.996h127.996v127.996zM575.998 223.842H448c-23.56 0-42.654 19.124-42.654 42.686v127.996c0 23.562 19.094 42.656 42.654 42.656h127.998c23.562 0 42.654-19.094 42.654-42.656v-127.996c0-23.562-19.092-42.686-42.654-42.686z m0 170.684H448v-127.996h127.998v127.996zM341.348 223.842h-127.998c-23.56 0-42.686 19.124-42.686 42.686v127.996c0 23.562 19.124 42.656 42.686 42.656h127.998c23.56 0 42.654-19.094 42.654-42.656v-127.996c0-23.562-19.094-42.686-42.654-42.686z m0 170.684h-127.998v-127.996h127.998v127.996z" fill="#434A54" /><path d="M277.35 373.182c-23.532 0-42.688-19.124-42.688-42.656 0-23.53 19.156-42.686 42.688-42.686 23.53 0 42.654 19.156 42.654 42.686 0 23.532-19.126 42.656-42.654 42.656z" fill="#FC6E51" /><path d="M746.65 266.53c-35.342 0-63.998 28.656-63.998 63.998 0 35.344 28.656 63.998 63.998 63.998s63.998-28.654 63.998-63.998c0-35.344-28.656-63.998-63.998-63.998z m0 85.31c-11.75 0-21.31-9.562-21.31-21.312 0-11.782 9.56-21.342 21.31-21.342 11.782 0 21.342 9.562 21.342 21.342 0 11.75-9.56 21.312-21.342 21.312zM512 266.53c-35.344 0-64 28.656-64 63.998 0 35.344 28.656 63.998 64 63.998s63.998-28.654 63.998-63.998c0-35.344-28.654-63.998-63.998-63.998z m0 85.31c-11.75 0-21.344-9.562-21.344-21.312 0-11.782 9.594-21.342 21.344-21.342s21.344 9.562 21.344 21.342c0 11.75-9.594 21.312-21.344 21.312zM277.35 266.53c-35.344 0-64 28.656-64 63.998 0 35.344 28.656 63.998 64 63.998 35.342 0 63.998-28.654 63.998-63.998 0-35.344-28.656-63.998-63.998-63.998z m0 85.31c-11.782 0-21.344-9.562-21.344-21.312 0-11.782 9.562-21.342 21.344-21.342 11.748 0 21.31 9.562 21.31 21.342 0 11.75-9.562 21.312-21.31 21.312z" fill="#E9573F" /><path d="M938.644 96.064H85.354C38.23 96.064 0.012 134.282 0.012 181.406v511.786c0 47.124 38.218 85.31 85.342 85.31h853.292c47.124 0 85.344-38.188 85.344-85.31V181.406c-0.002-47.124-38.22-85.342-85.346-85.342z m42.688 597.128c0 23.498-19.156 42.624-42.688 42.624H85.354c-23.532 0-42.688-19.124-42.688-42.624V181.406c0-23.532 19.156-42.686 42.688-42.686h853.292c23.532 0 42.688 19.156 42.688 42.686v511.786z" fill="#967ADC" /><path d="M426.658 607.818c0 23.624-19.094 42.686-42.656 42.686h-127.996c-23.562 0-42.656-19.06-42.656-42.686v-85.294c0-23.562 19.094-42.688 42.656-42.688h127.996c23.562 0 42.656 19.124 42.656 42.688v85.294z" fill="#F5F7FA" /><path d="M491.062 607.818s-106.686 42.686-170.872 42.686-149.528-21.31-149.528-21.31V501.18s85.716-21.344 149.528-21.344 170.872 42.688 170.872 42.688v85.294z" fill="#FC6E51" /><path d="M256.194 645.442c14 1.938 28.53 3.5 42.654 4.376v-169.262c-14.094 0.844-28.624 2.438-42.654 4.406v160.48zM341.536 649.192c13.594-1.5 28.154-4.25 42.654-7.624v-152.73c-14.532-3.406-29.092-6.156-42.654-7.656v168.01z" fill="#E9573F" /><path d="M788.96 607.818c0 23.624-19.124 42.686-42.686 42.686h-127.998c-23.56 0-42.654-19.06-42.654-42.686v-85.294c0-23.562 19.094-42.688 42.654-42.688h127.998c23.56 0 42.686 19.124 42.686 42.688v85.294z" fill="#F5F7FA" /><path d="M853.336 607.818s-106.686 42.686-170.872 42.686c-64.188 0-149.496-21.31-149.496-21.31V501.18s85.684-21.344 149.496-21.344c63.81 0 170.872 42.688 170.872 42.688v85.294z" fill="#FC6E51" /><path d="M618.464 645.442c14 1.938 28.562 3.5 42.688 4.376v-169.262c-14.124 0.844-28.656 2.438-42.688 4.406v160.48zM703.808 649.192c13.594-1.5 28.154-4.25 42.654-7.624v-152.73c-14.532-3.406-29.092-6.156-42.654-7.656v168.01z" fill="#E9573F" /><path d="M235.068 863.936h511.77c11.782 0 21.342-9.562 21.342-21.31 0-11.812-9.56-21.376-21.342-21.376H235.068c-11.782 0-21.344 9.562-21.344 21.376 0 11.748 9.564 21.31 21.344 21.31zM746.838 885.248H235.068c-11.782 0-21.344 9.562-21.344 21.376 0 11.75 9.562 21.312 21.344 21.312h511.77c11.782 0 21.342-9.562 21.342-21.312 0-11.814-9.56-21.376-21.342-21.376z" fill="#EAAD7A" /></svg>