<?xml version="1.0" standalone="no"?><!DOCTYPE svg PUBLIC "-//W3C//DTD SVG 1.1//EN" "http://www.w3.org/Graphics/SVG/1.1/DTD/svg11.dtd"><svg class="icon" width="128px" height="128.00px" viewBox="0 0 1024 1024" version="1.1" xmlns="http://www.w3.org/2000/svg"><path d="M998.792 282.948c20-1.782 17.344-19.56 17.344-19.56L903.266 160.86 848.8 244.042c49.904 10.344 129.992 40.686 149.992 38.906z" fill="#FFCE54" /><path d="M809.176 793.522l-38.218-97.31a21.432 21.432 0 0 0-4.968-7.468c-1.594-1.562-39.622-38.498-94.214-81.338-73.994-58.06-139.836-96.966-195.678-115.652-13.812-4.624-28.624-6.968-44.028-6.968-55.904 0-102.872 30.844-104.84 32.156a21.34 21.34 0 0 0-9.532 17.748v127.4c0 7.406 3.844 14.282 10.124 18.156l225.146 139.212a21.16 21.16 0 0 0 11.218 3.188H789.3c7.062 0 13.656-3.5 17.624-9.312a21.4 21.4 0 0 0 2.252-19.812z" fill="#CCD1D9" /><path d="M903.266 160.86c-19.812-44.842-67.902-75.53-119.714-75.53-32.31 0-62.184 12.312-84.152 34.686-24.468 24.906-38.78 61.904-41.436 106.934-8.998 152.306 72.654 463.418 87.278 517.7-32.342-24.75-83.154-62.654-138.368-100.248-129.434-88.182-217.024-131.056-267.834-131.056-116.276 0-197.554 81.592-224.272 108.404l-1.844 1.844c-16.75 16.748-14.312 48.59 8.094 106.556a780.196 780.196 0 0 0 15.906 37.874H42.676c-7.876 0-15.094 4.312-18.812 11.25s-3.312 15.376 1.062 21.906c0.906 1.376 22.874 34.124 55.904 67.246 46.53 46.624 90.934 70.246 131.996 70.246h597.82c54.436 0 85.122-21.652 101.278-39.808 24.78-27.906 26.716-58.216 26.716-66.842 0-57.092-31.56-162.712-64.964-274.55-21.312-71.31-43.374-145.058-56.06-203.588-6.594-30.28-10.282-54.778-10.938-72.778-0.782-21.716 2.938-27.998 3.624-28.966 0.594-0.282 28.844-2.75 38.5-8.094 16.746-9.254 54.464-83.186 54.464-83.186z" fill="#E6E9ED" /><path d="M810.644 170.702c0 11.782-9.562 21.344-21.344 21.344s-21.312-9.562-21.312-21.344c0-11.78 9.532-21.342 21.312-21.342s21.344 9.562 21.344 21.342z" fill="#434A54" /><path d="M269.824 938.67a377.92 377.92 0 0 0-11-6.656c-85.34-49.308-121.902-163.992-121.902-163.992H42.676c-7.876 0-15.094 4.312-18.812 11.25s-3.312 15.376 1.062 21.906c0.906 1.376 22.874 34.124 55.904 67.246 46.53 46.624 90.934 70.246 131.996 70.246h56.998z" fill="#CCD1D9" /><path d="M1002.634 938.638H21.332c-11.78 0-21.31-9.562-21.31-21.34 0-11.782 9.532-21.344 21.31-21.344h981.302c11.782 0 21.344 9.562 21.344 21.344 0 11.778-9.562 21.34-21.344 21.34z" fill="#5D9CEC" /></svg>