<?xml version="1.0" standalone="no"?><!DOCTYPE svg PUBLIC "-//W3C//DTD SVG 1.1//EN" "http://www.w3.org/Graphics/SVG/1.1/DTD/svg11.dtd"><svg class="icon" width="128px" height="128.00px" viewBox="0 0 1024 1024" version="1.1" xmlns="http://www.w3.org/2000/svg"><path d="M106.694 789.328h-85.34c-11.782 0-21.328 9.532-21.328 21.312v127.992c0 11.782 9.546 21.344 21.328 21.344h85.338c11.782 0 21.328-9.562 21.328-21.344V810.64c0-11.78-9.546-21.312-21.326-21.312zM1002.662 789.328h-85.37c-11.75 0-21.312 9.532-21.312 21.312v127.992c0 11.782 9.562 21.344 21.312 21.344h85.37c11.75 0 21.31-9.562 21.31-21.344V810.64c0-11.78-9.56-21.312-21.31-21.312z" fill="#E6E9ED" /><path d="M917.292 746.644H703.99c-11.78 0-21.31 9.562-21.31 21.344V981.32a21.298 21.298 0 0 0 21.31 21.308h213.302c11.81 0 21.374-9.532 21.374-21.308V767.988c0-11.78-9.562-21.344-21.374-21.344zM320.01 746.644H106.694c-11.78 0-21.342 9.562-21.342 21.344V981.32c0 11.778 9.562 21.308 21.342 21.308h213.318c11.78 0 21.328-9.532 21.328-21.308V767.988c-0.002-11.78-9.548-21.344-21.33-21.344z" fill="#434A54" /><path d="M556.56 917.324h-89.104c-23.562 0-42.67-19.124-42.67-42.688s19.108-42.652 42.67-42.652h89.104c23.56 0 42.654 19.09 42.654 42.652s-19.092 42.688-42.654 42.688z" fill="#4A89DC" /><path d="M507.266 661.336c-371.028 0-474.398-86.934-478.616-90.652a21.32 21.32 0 0 1 14.078-37.34l447.946-292.58 490.616 292.58c9.062 0 17.124 5.718 20.124 14.282 3 8.528 0.25 18.058-6.81 23.714-4.596 3.656-116.874 89.996-487.338 89.996z" fill="#967ADC" /><path d="M469.332 874.636c0 58.902-71.622 106.684-159.992 106.684-88.354 0-159.992-47.782-159.992-106.684s71.636-106.648 159.992-106.648c88.37 0 159.992 47.746 159.992 106.648z" fill="#5D9CEC" /><path d="M309.338 1002.628c-46.888 0-91.276-12.34-124.962-34.808-36.342-24.218-56.356-57.308-56.356-93.184 0-35.84 20.014-68.934 56.356-93.152 33.686-22.464 78.074-34.84 124.962-34.84 46.904 0 91.292 12.376 124.962 34.84 36.358 24.218 56.372 57.312 56.372 93.152 0 35.876-20.014 68.964-56.372 93.184-33.67 22.47-78.056 34.808-124.962 34.808z m0-213.3c-75.152 0-138.648 39.062-138.648 85.308 0 46.278 63.496 85.34 138.648 85.34 75.168 0 138.666-39.062 138.666-85.34 0-46.246-63.498-85.308-138.666-85.308z" fill="#4A89DC" /><path d="M874.668 874.636c0 58.902-71.652 106.684-159.99 106.684-88.372 0-159.992-47.782-159.992-106.684s71.622-106.648 159.992-106.648c88.338 0 159.99 47.746 159.99 106.648z" fill="#5D9CEC" /><path d="M714.678 1002.628c-46.936 0-91.306-12.34-124.994-34.808-36.342-24.218-56.356-57.308-56.356-93.184 0-35.84 20.014-68.934 56.356-93.152 33.688-22.464 78.058-34.84 124.994-34.84 46.874 0 91.244 12.376 124.932 34.84 36.372 24.218 56.372 57.312 56.372 93.152 0 35.876-20 68.964-56.372 93.184-33.688 22.47-78.06 34.808-124.932 34.808z m0-213.3c-75.184 0-138.682 39.062-138.682 85.308 0 46.278 63.498 85.34 138.682 85.34 75.122 0 138.618-39.062 138.618-85.34-0.002-46.246-63.498-85.308-138.618-85.308z" fill="#4A89DC" /><path d="M29.416 559.34c4.594-3.688 116.854-89.994 487.334-89.994 371.042 0 474.414 86.9 478.602 90.618a20.694 20.694 0 0 1 4.404 5.376 21.036 21.036 0 0 0 2.876-10.688c0-0.344 0-0.718-0.032-1.094-0.124-71.37-12.998-140.648-38.31-205.894-24.592-63.434-59.84-120.462-104.744-169.428-44.998-49.122-97.494-87.714-155.93-114.68-60.686-28-125.15-42.186-191.616-42.186s-130.93 14.186-191.598 42.186c-58.466 26.966-110.932 65.558-155.96 114.68-44.888 48.966-80.136 105.996-104.728 169.428-25.42 65.59-38.326 135.244-38.326 206.988 0 3.812 1.032 7.468 2.89 10.656a20.978 20.978 0 0 1 5.138-5.968z" fill="#AC92EB" /><path d="M448.004 25.838v444.54c21.858-0.688 44.764-1.032 68.746-1.032 20.562 0 40.31 0.25 59.246 0.75V25.838A458.476 458.476 0 0 0 512 21.37c-21.56 0-42.918 1.5-63.996 4.468z" fill="#E6E9ED" /><path d="M1002.6 553.558c-0.124-71.37-12.998-140.648-38.31-205.894-24.592-63.434-59.84-120.462-104.744-169.428-44.998-49.122-97.494-87.714-155.93-114.68-60.686-28-125.15-42.186-191.616-42.186-7.14 0-14.25 0.156-21.326 0.5 58.918 2.718 116.104 16.686 170.256 41.686 58.464 26.966 110.934 65.558 155.96 114.68 44.904 48.966 80.152 105.996 104.712 169.428 23.53 60.654 36.31 124.776 38.124 190.834 24 11.624 34.376 20.34 35.624 21.464a20.694 20.694 0 0 1 4.404 5.376 21.036 21.036 0 0 0 2.876-10.688c0-0.342 0-0.716-0.03-1.092z" fill="#FFFFFF" opacity=".2" /></svg>