<?xml version="1.0" standalone="no"?><!DOCTYPE svg PUBLIC "-//W3C//DTD SVG 1.1//EN" "http://www.w3.org/Graphics/SVG/1.1/DTD/svg11.dtd"><svg class="icon" width="128px" height="128.00px" viewBox="0 0 1024 1024" version="1.1" xmlns="http://www.w3.org/2000/svg"><path d="M543.982 53.354h-64c-11.78 0-21.312 9.562-21.312 21.344v245.306c0 11.782 9.532 21.344 21.312 21.344h64c11.794 0 21.358-9.562 21.358-21.344V74.698c0-11.782-9.562-21.344-21.358-21.344z" fill="#965353" /><path d="M511.984 0.012c-47.03 0-85.31 38.28-85.31 85.342s38.28 85.342 85.31 85.342c47.076 0 85.356-38.28 85.356-85.342S559.058 0.012 511.984 0.012z" fill="#FFCE54" /><path d="M511.984 64.01c0 11.782-9.532 21.344-21.312 21.344s-21.342-9.562-21.342-21.344 9.562-21.312 21.342-21.312 21.312 9.53 21.312 21.312z" fill="#FFFFFF" opacity=".2" /><path d="M458.672 213.352h106.668v42.654h-106.668z" fill="#7F4545" /><path d="M575.996 362.692h-128.012a21.298 21.298 0 0 0-21.312 21.312V834.12c0 11.78 9.53 21.31 21.312 21.31h128.012c11.782 0 21.344-9.532 21.344-21.31V384.004c0-11.784-9.562-21.312-21.344-21.312z" fill="#FFCE54" /><path d="M722.804 309.942c-3.688-6.938-10.938-11.25-18.812-11.25H319.988a21.272 21.272 0 0 0-18.782 11.25 21.376 21.376 0 0 0 1.032 21.906l42.686 63.998a21.31 21.31 0 0 0 17.75 9.5H661.34c7.124 0 13.78-3.562 17.748-9.5l42.654-63.998a21.302 21.302 0 0 0 1.062-21.906z" fill="#ED5564" /><path d="M511.984 682.684c-11.782 0-21.312-9.562-21.312-21.344v-127.996c0-11.782 9.532-21.344 21.312-21.344 11.78 0 21.342 9.562 21.342 21.344v127.996c0 11.782-9.562 21.344-21.342 21.344z" fill="#F6BB42" /><path d="M894.116 993.894L794.18 772.93a21.268 21.268 0 0 0-10.562-10.594l-262.728-120.372a21.324 21.324 0 0 0-18.78 0.468l-217.59 113.78a21.062 21.062 0 0 0-8.092 7.436l-145.092 227.56a21.376 21.376 0 0 0-0.718 21.718 21.326 21.326 0 0 0 18.718 11.062h725.342c7.25 0 14-3.656 17.906-9.75a21.336 21.336 0 0 0 1.532-20.344z" fill="#CCD1D9" /><path d="M892.584 1014.238a21.336 21.336 0 0 0 1.532-20.344L794.18 772.93a21.268 21.268 0 0 0-10.562-10.594l-262.728-120.372a21.06 21.06 0 0 0-8.876-1.938l149.326 194.092 42.652 189.87h170.686c7.25 0 14-3.656 17.906-9.75z" fill="#AAB2BC" /></svg>