<?xml version="1.0" standalone="no"?><!DOCTYPE svg PUBLIC "-//W3C//DTD SVG 1.1//EN" "http://www.w3.org/Graphics/SVG/1.1/DTD/svg11.dtd"><svg class="icon" width="128px" height="128.00px" viewBox="0 0 1024 1024" version="1.1" xmlns="http://www.w3.org/2000/svg"><path d="M363.112 742.558c0-5.656-2.25-11.092-6.25-15.092l-60.342-60.344c-8.328-8.342-21.844-8.342-30.172 0l-191.918 191.936c-8.328 8.312-8.328 21.812 0 30.156l60.342 60.342c8.328 8.31 21.842 8.31 30.17 0l191.918-191.936a21.278 21.278 0 0 0 6.252-15.062z" fill="#ED5564" /><path d="M981.616 193.242a21.546 21.546 0 0 0 5.688-10.296l36.156-156.81c1.624-7.172-0.532-14.672-5.718-19.876s-12.718-7.36-19.876-5.704L841.058 36.68a21.264 21.264 0 0 0-10.282 5.704L281.442 591.688c-8.328 8.344-8.328 21.844 0 30.188l120.67 120.684a21.324 21.324 0 0 0 30.17 0L981.616 193.242z" fill="#CCD1D9" /><path d="M1017.74 6.26a21.308 21.308 0 0 0-19.876-5.704L841.056 36.68a21.264 21.264 0 0 0-10.282 5.704L281.442 591.688c-8.328 8.344-8.328 21.844 0 30.188l120.67 120.684a21.324 21.324 0 0 0 30.17 0L981.616 193.242a21.546 21.546 0 0 0 5.688-10.296l36.156-156.81a21.436 21.436 0 0 0-5.72-19.876z m-15.094 15.078l-36.124 156.81-549.318 549.318-120.684-120.686L845.838 57.478l156.808-36.14z" fill="#FFFFFF" opacity=".2" /><path d="M341.768 682.216a21.36 21.36 0 0 1 0-30.186l386.476-386.448c8.344-8.328 21.844-8.328 30.156 0 8.344 8.328 8.344 21.844 0 30.172l-386.46 386.46c-8.328 8.316-21.828 8.316-30.172 0.002z" fill="#AAB2BC" /><path d="M154.506 778.964h181.012l21.344-21.344a21.286 21.286 0 0 0 5.312-21.312H197.176l-42.67 42.656zM287.692 826.808H106.664l-32.234 32.25a21.25 21.25 0 0 0-5.718 10.406h176.31l42.67-42.656z" fill="#DA4453" /><path d="M507.704 787.808L236.176 516.284c-8.328-8.328-21.828-8.328-30.156 0l-45.264 45.248c-8.328 8.344-8.328 21.844 0 30.156l271.526 271.528a21.324 21.324 0 0 0 30.172 0l45.25-45.25c8.326-8.314 8.326-21.844 0-30.158zM170.662 938.65c0-22.782-8.876-44.216-24.984-60.342-33.28-33.282-87.404-33.282-120.684 0C8.884 894.432 0.01 915.868 0.01 938.65c0 22.78 8.876 44.216 24.984 60.342 16.124 16.124 37.546 25 60.342 25s44.218-8.876 60.342-25c16.11-16.124 24.984-37.562 24.984-60.342z" fill="#FFCE54" /><path d="M64.008 938.65a21.342 21.328 90 1 0 42.656 0 21.342 21.328 90 1 0-42.656 0Z" fill="#F6BB42" /></svg>