<?xml version="1.0" standalone="no"?><!DOCTYPE svg PUBLIC "-//W3C//DTD SVG 1.1//EN" "http://www.w3.org/Graphics/SVG/1.1/DTD/svg11.dtd"><svg class="icon" width="128px" height="128.00px" viewBox="0 0 1024 1024" version="1.1" xmlns="http://www.w3.org/2000/svg"><path d="M512.082999 511.989v42.687083c47.044989 0 85.326167 38.249178 85.326167 85.310167s-38.281178 85.310167-85.326167 85.310167V767.9835c70.702481 0 128.01325-57.310769 128.01325-127.99725s-57.312769-127.99725-128.01325-127.99725z" fill="#A0D468" /><path d="M586.471401 314.759238c-0.217995-0.109998-0.437991-0.217995-0.623986-0.327993-0.061999-0.031999-0.123997-0.045999-0.187996-0.077999a21.147546 21.147546 0 0 0-9.561795-2.29595c-11.811746 0-21.343541 9.561795-21.343541 21.343541 0 8.327821 4.781897 15.515667 11.717748 19.031591v0.045999c3.781919 1.905959 7.281844 4.031913 10.405776 6.389863 13.811703 10.437776 20.531559 25.203459 20.531559 45.12303 0 25.15546-10.499774 53.232856-28.061397 75.122387C552.53413 500.005258 531.674578 511.989 512.082999 511.989h-0.045999v42.687083h0.045999c70.702481 0 128.01325-79.998281 128.01325-150.684763-0.002-42.953077-21.187545-72.59244-53.624848-89.232082zM512.082999 725.296417V767.9835c35.295242 0 64.014625 28.717383 64.014625 63.998625 0 27.811402-17.843617 51.498894-42.687083 60.310705v44.21705c48.686954-9.905787 85.342166-52.904863 85.342167-104.529755-0.002-58.902735-47.780973-106.683708-106.669709-106.683708zM512.082999 938.667833V895.98075c-47.122988 0-85.326167 38.18718-85.326166 85.310168 0 9.561795 1.593966 18.687599 4.467904 27.249414 2.561945 8.937808 10.765769 15.437668 20.483559 15.437668 11.781747 0 21.343541-9.561795 21.343542-21.311542 0-2.687942-0.515989-5.249887-1.40597-7.561837l0.061999-0.061999a42.179094 42.179094 0 0 1-2.295951-13.749704c0-23.501495 19.139589-42.625084 42.671083-42.625085z" fill="#8CC153" /><path d="M737.34216 63.998625c-54.874821-7.687835-163.872479 85.326167-163.872479 85.326167h-122.873361S341.614662 56.31079 286.739841 63.998625C134.465112 85.326167 224.291182 198.667732 0.000001 191.995875c129.357221 181.606098 220.667259 162.730504 409.631199 85.326167l81.92024 28.453389V319.993125l20.48356-7.109847L532.51856 319.993125v-14.217694l81.92024-28.453389C803.404741 354.726379 894.714779 373.601973 1024.085999 191.995875c-224.307181 6.671857-134.49711-106.669708-286.743839-127.99725z" fill="#E6E9ED" /><path d="M490.753458 63.998625h42.655083v959.979375h-42.655083z" fill="#FFCE54" /><path d="M576.095624 63.998625c0 35.343241-28.687384 63.998625-64.014625 63.998625-35.343241 0-63.998625-28.655384-63.998625-63.998625s28.655384-63.998625 63.998625-63.998625c35.329241 0 64.014625 28.655384 64.014625 63.998625z" fill="#F6BB42" /><path d="M512.082999 42.671083c0 11.781747-9.545795 21.327542-21.327541 21.327542s-21.343541-9.545795-21.343542-21.327542 9.561795-21.343541 21.343542-21.343541 21.327542 9.561795 21.327541 21.343541z" fill="#FFCE54" /><path d="M512.082999 895.98075c-35.295242 0-63.998625-28.717383-63.998625-63.998625 0-27.811402 17.843617-51.498894 42.671084-60.310704v-44.21705c-48.686954 9.905787-85.342166 52.904863-85.342167 104.529754 0 58.904734 47.764974 106.685708 106.669708 106.685708 23.531494 0 42.671083 19.123589 42.671084 42.623085 0 4.6559-0.781983 9.123804-2.155954 13.311714l0.093998 0.031999a21.255543 21.255543 0 0 0-1.561967 8.031827c0 11.749748 9.531795 21.311542 21.343542 21.311542 9.78179 0 17.999613-6.593858 20.49956-15.593665a84.302189 84.302189 0 0 0 4.437904-27.093417C597.409166 934.16793 559.221987 895.98075 512.082999 895.98075z" fill="#A0D468" /><path d="M512.082999 725.296417V767.9835c32.265307 0 59.014732 23.999484 63.358639 55.060817h42.905078c-4.563902-54.748824-50.374918-97.7479-106.263717-97.7479zM426.754833 639.98625c0-39.687147 27.233415-73.122429 63.998625-82.622225v-43.593063c-60.544699 10.155782-106.669708 62.780651-106.669709 126.215288 0 70.686481 57.310769 127.99725 127.99725 127.99725v-42.687083c-47.044989 0-85.326167-38.249178-85.326166-85.310167z" fill="#8CC153" /><path d="M512.082999 511.989c-19.593579 0-40.453131-11.983743-57.24877-32.875293-17.577622-21.88953-28.077397-49.966926-28.077396-75.122387 0-19.921572 6.717856-34.687255 20.531558-45.12303a66.510571 66.510571 0 0 1 9.983786-6.187867l-0.016-0.045999c7.187846-3.437926 12.155739-10.749769 12.155739-19.233587 0-11.781747-9.545795-21.343541-21.327542-21.343541-3.623922 0-7.015849 0.905981-10.015784 2.499946-0.077998 0.045999-0.155997 0.093998-0.233995 0.123997-32.531301 16.639643-53.748845 46.311005-53.748846 89.310081 0 70.686481 57.310769 150.684763 127.99725 150.684763V511.989zM512.082999 511.989v42.687083c43.327069 0 79.202298 32.467302 84.608183 74.374402h42.905078C634.032379 563.487894 579.09556 511.989 512.082999 511.989z" fill="#A0D468" /></svg>