<?xml version="1.0" standalone="no"?><!DOCTYPE svg PUBLIC "-//W3C//DTD SVG 1.1//EN" "http://www.w3.org/Graphics/SVG/1.1/DTD/svg11.dtd"><svg class="icon" width="128px" height="128.00px" viewBox="0 0 1024 1024" version="1.1" xmlns="http://www.w3.org/2000/svg"><path d="M981.344 319.984H42.688C19.124 319.984 0 339.094 0 362.656v298.656C0 684.876 19.124 704 42.688 704h938.656c23.562 0 42.656-19.124 42.656-42.688V362.656c0-23.562-19.094-42.672-42.656-42.672z" fill="#DA4453" /><path d="M704 42.656C704 19.094 684.906 0 661.344 0H362.656C339.094 0 320 19.094 320 42.656v938.656c0 23.562 19.094 42.688 42.656 42.688h298.688c23.562 0 42.656-19.124 42.656-42.688V42.656z" fill="#ED5564" /><path d="M511.594 127.984c-11.782 0-21.344 9.562-21.344 21.344v725.328c0 11.782 9.562 21.344 21.344 21.344s21.312-9.562 21.312-21.344V149.328c0-11.782-9.53-21.344-21.312-21.344z" fill="#F5F7FA" /><path d="M558.062 768.344c-0.218-0.032-24.25-4.594-47.438-18.532-27.938-16.812-42.094-39.562-42.094-67.594 0-15.906 6.624-25.282 21.718-33.718v-47.188c-11.968 4.938-23.5 10.624-33.5 18.218-20.5 15.594-30.876 36.656-30.876 62.688 0 43.906 22.124 80.156 64 104.906 29.718 17.5 59.376 22.968 60.594 23.188a19.886 19.886 0 0 0 3.812 0.344c10.094 0 19.062-7.218 20.938-17.532 2.096-11.562-5.592-22.624-17.154-24.78z" fill="#E6E9ED" /><path d="M532.906 302.218c0.218-0.032 0.438-0.078 0.624-0.11 22.718-4.094 41.062-3.468 41.188-3.468 11.782 0.468 21.718-8.688 22.188-20.468 0.468-11.766-8.688-21.688-20.468-22.156-1.624-0.078-19.688-0.688-43.532 2.954v43.248zM584.094 470.094c-17.844-11.766-40.156-17.828-61.75-23.688-47.594-12.938-74.562-22.218-74.624-62.454-0.062-22.11 6.718-39.406 20.656-52.89 6.406-6.172 13.938-11.14 21.876-15.156v-46.312c-18.25 6.578-36.468 16.296-51.376 30.64-22.5 21.688-33.906 49.876-33.812 83.796 0.062 33.188 12.75 58.876 37.718 76.36 20.094 14.078 44.656 20.734 68.376 27.188 46 12.484 64.718 20.296 64.718 47.734 0 25.876-13.312 37.438-42.968 49.75v45.812c18.624-6.844 37.438-14.312 53.032-26.594 21.624-17.032 32.594-40.218 32.594-68.968-0.002-28.202-11.596-50.156-34.44-65.218z" fill="#E6E9ED" /></svg>