<?xml version="1.0" standalone="no"?><!DOCTYPE svg PUBLIC "-//W3C//DTD SVG 1.1//EN" "http://www.w3.org/Graphics/SVG/1.1/DTD/svg11.dtd"><svg class="icon" width="128px" height="128.00px" viewBox="0 0 1024 1024" version="1.1" xmlns="http://www.w3.org/2000/svg"><path d="M447.992 831.52h106.658v42.656h-106.658z" fill="#8CC153" /><path d="M552.87 874.394c0.624-0.062 1.188-0.124 1.812-0.124 11.75 0 21.344 9.594 21.344 21.376h42.656c0-35.376-28.624-64.032-64-64.032-27.83 0-51.502 17.782-60.314 42.562h58.502v0.218zM341.318 618.766c0-23.25 18.906-42.156 42.14-42.156v-42.672c-46.844 0-84.83 37.984-84.83 84.828s37.986 84.814 84.83 84.814v-42.658c-23.234 0-42.14-18.906-42.14-42.156zM383.458 660.922h129.596v42.658h-129.596z" fill="#8CC153" /><path d="M513.054 660.922h105.126v42.658h-105.126z" fill="#A0D468" /><path d="M447.992 42.132c-11.782 0-21.33 9.562-21.33 21.344s9.548 21.328 21.33 21.328h52.438V42.132h-52.438z" fill="#ED5564" /><path d="M490.664 448.874h42.688v558.776h-42.688z" fill="#DA4453" /><path d="M640.026 895.644H383.99c-23.578 0-42.672 19.062-42.672 42.658v85.346h341.366v-85.346c0-23.594-19.064-42.658-42.658-42.658z" fill="#646C77" /><path d="M512.008 212.838H0c42.594 321.1 299.568 384.052 512.008 384.052 212.426 0 469.43-62.954 511.992-384.052H512.008z" fill="#ED5564" /><path d="M618.182 660.922v42.658c11.75 0 21.312 9.562 21.312 21.344 0 11.784-9.562 21.346-21.312 21.346v42.688c35.344 0 64.002-28.688 64.002-64.034 0-35.344-28.658-64.002-64.002-64.002zM618.182 788.958v-42.688h-170.174v-0.124h-0.016c-35.344 0-64.002 28.688-64.002 64 0 35.376 28.658 64.032 64.002 64.032h42.672V831.52h-42.672c-11.766 0-21.33-9.594-21.33-21.376 0-11.75 9.564-21.312 21.33-21.312v0.124h170.19z" fill="#A0D468" /><path d="M32.892 340.856h958.234c5.532-13.532 10.532-27.75 14.968-42.672H17.922c4.438 14.922 9.438 29.14 14.97 42.672z" fill="#DA4453" /><path d="M810.78 42.132H607.182v42.672H810.78c70.562 0.032 127.97 57.456 127.97 128.034h42.688c0-94.266-76.408-170.674-170.658-170.706z" fill="#8CC153" /><path d="M640.026 64.368c0 35.344-38.218 64.002-85.344 64.002-47.142 0-85.346-28.658-85.346-64.002 0-35.36 38.204-64.016 85.346-64.016 47.124 0 85.344 28.656 85.344 64.016z" fill="#A0D468" /><path d="M554.682 21.68c0 11.796-9.562 21.344-21.33 21.344a21.332 21.332 0 0 1-21.344-21.344c0-11.782 9.546-21.328 21.344-21.328 11.768 0 21.33 9.546 21.33 21.328z" fill="#434A54" /><path d="M490.664 724.83h42.688v21.314h-42.688zM490.664 788.958h42.688v21.312h-42.688zM533.352 660.89h21.33v42.69h-21.33zM533.352 831.52h21.33v42.656h-21.33zM469.336 831.52h21.328v42.656h-21.328zM469.336 660.89h21.328v42.69h-21.328z" opacity=".1" /><path d="M341.302 980.958h340.88v42.69h-340.88z" fill="#424953" /></svg>