<?xml version="1.0" standalone="no"?><!DOCTYPE svg PUBLIC "-//W3C//DTD SVG 1.1//EN" "http://www.w3.org/Graphics/SVG/1.1/DTD/svg11.dtd"><svg class="icon" width="128px" height="128.00px" viewBox="0 0 1024 1024" version="1.1" xmlns="http://www.w3.org/2000/svg"><path d="M191.57818 130.376c-20.358-11.766-46.39-4.796-58.156 15.578L5.70418 367.156c-11.75 20.376-4.766 46.406 15.594 58.156l811.106 468.312c20.376 11.75 46.406 4.782 58.156-15.594l127.718-221.218c11.782-20.344 4.782-46.406-15.594-58.124L191.57818 130.376z" fill="#CCD1D9" /><path d="M21.29818 598.688c-20.36 11.718-27.344 37.782-15.594 58.124l127.718 221.218c11.766 20.376 37.796 27.344 58.156 15.562l811.108-468.282c20.376-11.75 27.376-37.782 15.594-58.156l-127.72-221.2c-11.75-20.376-37.782-27.344-58.156-15.578L21.29818 598.688z" fill="#CCD1D9" /><path d="M682.31218 43.688c0-23.516-19.094-42.562-42.594-42.562H384.28218c-23.516 0-42.562 19.046-42.562 42.562v936.594c0 23.5 19.046 42.594 42.562 42.594H639.72018c23.5 0 42.594-19.094 42.594-42.594V43.688z" fill="#E6E9ED" /><path d="M511.87618 128.844c-11.75 0-21.296 9.532-21.296 21.282v723.75c0 11.75 9.546 21.282 21.296 21.282s21.266-9.532 21.266-21.282V150.124c-0.002-11.748-9.518-21.28-21.266-21.28z" fill="#ED5564" /><path d="M558.25018 767.782c-0.218-0.032-24.204-4.594-47.344-18.5-27.876-16.782-42-39.468-42-67.438 0-15.876 6.61-25.218 21.672-33.656v-47.062c-11.938 4.906-23.454 10.594-33.454 18.188-20.422 15.532-30.782 36.562-30.782 62.532 0 43.812 22.078 79.968 63.86 104.688 29.656 17.438 59.204 22.906 60.454 23.124a19.886 19.886 0 0 0 3.812 0.344c10.062 0 19.032-7.188 20.906-17.468 2.064-11.566-5.592-22.596-17.124-24.752z" fill="#DA4453" /><path d="M533.14018 302.672c0.218-0.032 0.406-0.078 0.624-0.11 22.672-4.078 40.984-3.454 41.11-3.454 11.75 0.468 21.656-8.672 22.124-20.406a21.27 21.27 0 0 0-20.438-22.124c-1.594-0.078-19.624-0.672-43.422 2.968v43.126zM584.21818 470.188c-17.812-11.75-40.062-17.796-61.624-23.64-47.516-12.906-74.39-22.172-74.454-62.312-0.062-22.062 6.704-39.328 20.61-52.782 6.39-6.156 13.906-11.094 21.828-15.11v-46.218c-18.204 6.562-36.39 16.266-51.266 30.578-22.454 21.64-33.828 49.766-33.766 83.61 0.062 33.11 12.75 58.75 37.672 76.188 20.046 14.046 44.546 20.688 68.218 27.124C557.34418 500.094 576.00018 507.89 576.00018 535.25c0 25.844-13.282 37.376-42.86 49.656v45.718c18.578-6.844 37.36-14.282 52.922-26.562 21.562-16.968 32.5-40.124 32.5-68.812 0-28.126-11.562-50.032-34.344-65.062z" fill="#DA4453" /></svg>