<?xml version="1.0" standalone="no"?><!DOCTYPE svg PUBLIC "-//W3C//DTD SVG 1.1//EN" "http://www.w3.org/Graphics/SVG/1.1/DTD/svg11.dtd"><svg class="icon" width="128px" height="128.00px" viewBox="0 0 1024 1024" version="1.1" xmlns="http://www.w3.org/2000/svg"><path d="M1002.676 277.326H21.34c-11.78 0-21.328 9.562-21.328 21.344v426.628c0 11.812 9.546 21.376 21.328 21.376h981.336c11.75 0 21.312-9.562 21.312-21.376V298.67c0-11.782-9.562-21.344-21.312-21.344z" fill="#ED5564" /><path d="M0.012 554.68v170.62c0 11.812 9.546 21.376 21.328 21.376h981.336c11.75 0 21.312-9.562 21.312-21.376v-170.62H0.012z" fill="#E6E9ED" /><path d="M320.004 362.668c0 11.782-9.546 21.328-21.328 21.328-11.78 0-21.342-9.546-21.342-21.328s9.562-21.344 21.342-21.344c11.782 0 21.328 9.562 21.328 21.344zM384.002 362.668c0 11.782-9.546 21.328-21.328 21.328s-21.344-9.546-21.344-21.328 9.562-21.344 21.344-21.344c11.782 0 21.328 9.562 21.328 21.344zM320.004 426.666c0 11.782-9.546 21.328-21.328 21.328-11.78 0-21.342-9.546-21.342-21.328s9.562-21.344 21.342-21.344c11.782 0 21.328 9.562 21.328 21.344zM384.002 426.666c0 11.782-9.546 21.328-21.328 21.328s-21.344-9.546-21.344-21.328 9.562-21.344 21.344-21.344c11.782 0 21.328 9.562 21.328 21.344zM320.004 490.664c0 11.782-9.546 21.328-21.328 21.328-11.78 0-21.342-9.546-21.342-21.328s9.562-21.342 21.342-21.342c11.782 0 21.328 9.56 21.328 21.342zM384.002 490.664c0 11.782-9.546 21.328-21.328 21.328s-21.344-9.546-21.344-21.328 9.562-21.342 21.344-21.342c11.782 0 21.328 9.56 21.328 21.342zM682.684 362.668c0 11.782-9.562 21.328-21.376 21.328-11.75 0-21.312-9.546-21.312-21.328s9.562-21.344 21.312-21.344c11.814 0 21.376 9.562 21.376 21.344zM746.68 362.668c0 11.782-9.562 21.328-21.372 21.328-11.75 0-21.312-9.546-21.312-21.328s9.562-21.344 21.312-21.344c11.81 0 21.372 9.562 21.372 21.344zM682.684 426.666c0 11.782-9.562 21.328-21.376 21.328-11.75 0-21.312-9.546-21.312-21.328s9.562-21.344 21.312-21.344c11.814 0 21.376 9.562 21.376 21.344z" fill="#FFCE54" /><path d="M448.002 368.886h110.716v46.216h-110.716z" fill="#CCD1D9" /><path d="M746.68 426.666c0 11.782-9.562 21.328-21.372 21.328-11.75 0-21.312-9.546-21.312-21.328s9.562-21.344 21.312-21.344c11.81 0 21.372 9.562 21.372 21.344zM682.684 490.664c0 11.782-9.562 21.328-21.376 21.328-11.75 0-21.312-9.546-21.312-21.328s9.562-21.342 21.312-21.342c11.814 0 21.376 9.56 21.376 21.342z" fill="#FFCE54" /><path d="M213.336 426.666c0 35.342-28.656 63.998-64 63.998s-63.998-28.656-63.998-63.998c0-35.358 28.656-63.998 63.998-63.998s64 28.64 64 63.998z" fill="#656D78" /><path d="M149.336 511.992c-47.046 0-85.326-38.28-85.326-85.326 0-47.062 38.28-85.342 85.326-85.342 47.062 0 85.342 38.28 85.342 85.342 0 47.046-38.28 85.326-85.342 85.326z m0-127.996c-23.514 0-42.656 19.14-42.656 42.67 0 23.516 19.14 42.656 42.656 42.656 23.532 0 42.67-19.14 42.67-42.656 0.002-23.532-19.138-42.67-42.67-42.67z" fill="#434A54" /><path d="M170.68 426.666c0 11.782-9.562 21.328-21.344 21.328-11.78 0-21.328-9.546-21.328-21.328s9.546-21.344 21.328-21.344 21.344 9.562 21.344 21.344z" fill="#434A54" /><path d="M746.68 490.664c0 11.782-9.562 21.328-21.372 21.328-11.75 0-21.312-9.546-21.312-21.328s9.562-21.342 21.312-21.342c11.81 0 21.372 9.56 21.372 21.342z" fill="#FFCE54" /><path d="M938.676 426.666c0 35.342-28.688 63.998-63.996 63.998-35.376 0-64-28.656-64-63.998 0-35.358 28.624-63.998 64-63.998 35.308 0 63.996 28.64 63.996 63.998z" fill="#656D78" /><path d="M874.68 511.992c-47.062 0-85.376-38.28-85.376-85.326 0-47.062 38.312-85.342 85.376-85.342 47.028 0 85.308 38.28 85.308 85.342 0 47.046-38.28 85.326-85.308 85.326z m0-127.996c-23.562 0-42.688 19.14-42.688 42.67 0 23.516 19.124 42.656 42.688 42.656 23.496 0 42.622-19.14 42.622-42.656-0.002-23.532-19.126-42.67-42.622-42.67z" fill="#434A54" /><path d="M895.988 426.666c0 11.782-9.562 21.328-21.308 21.328-11.812 0-21.376-9.546-21.376-21.328s9.562-21.344 21.376-21.344c11.746 0 21.308 9.562 21.308 21.344z" fill="#434A54" /><path d="M575.996 447.994h-127.994c-11.782 0-21.328-9.546-21.328-21.328v-63.998c0-11.782 9.546-21.344 21.328-21.344h127.994c11.782 0 21.312 9.562 21.312 21.344v63.998c0 11.782-9.53 21.328-21.312 21.328z m-106.666-42.672h85.358v-21.328h-85.358v21.328z" fill="#E6E9ED" /><path d="M575.996 511.992h-127.994c-11.782 0-21.328-9.546-21.328-21.328s9.546-21.342 21.328-21.342h127.994c11.782 0 21.312 9.562 21.312 21.342s-9.53 21.328-21.312 21.328z" fill="#DA4453" /><path d="M874.68 554.68v85.308a21.298 21.298 0 0 0 21.308 21.312 21.3 21.3 0 0 0 21.312-21.312V554.68h-42.62zM789.304 554.68v85.308c0 11.782 9.562 21.312 21.376 21.312 11.75 0 21.312-9.532 21.312-21.312V554.68h-42.688zM703.996 554.68v85.308c0 11.782 9.562 21.312 21.312 21.312 11.808 0 21.372-9.532 21.372-21.312V554.68h-42.684zM618.684 554.68v85.308c0 11.782 9.532 21.312 21.312 21.312s21.312-9.532 21.312-21.312V554.68h-42.624zM533.328 554.68v85.308c0 11.782 9.562 21.312 21.36 21.312 11.75 0 21.308-9.532 21.308-21.312V554.68h-42.668zM448.002 554.68v85.308c0 11.782 9.546 21.312 21.328 21.312s21.344-9.532 21.344-21.312V554.68h-42.672zM362.676 554.68v85.308c0 11.782 9.546 21.312 21.328 21.312s21.328-9.532 21.328-21.312V554.68h-42.656zM277.334 554.68v85.308c0 11.782 9.562 21.312 21.342 21.312 11.782 0 21.328-9.532 21.328-21.312V554.68h-42.67zM192.008 554.68v85.308c0 11.782 9.546 21.312 21.328 21.312 11.78 0 21.342-9.532 21.342-21.312V554.68H192.008zM106.682 554.68v85.308c0 11.782 9.546 21.312 21.328 21.312 11.78 0 21.328-9.532 21.328-21.312V554.68H106.682z" fill="#434A54" /></svg>