<?xml version="1.0" standalone="no"?><!DOCTYPE svg PUBLIC "-//W3C//DTD SVG 1.1//EN" "http://www.w3.org/Graphics/SVG/1.1/DTD/svg11.dtd"><svg class="icon" width="128px" height="128.00px" viewBox="0 0 1024 1024" version="1.1" xmlns="http://www.w3.org/2000/svg"><path d="M927.146 6.262l90.56 90.56-180.996 180.996-90.56-90.56z" fill="#CCD1D9" /><path d="M346.4 777.5l-99.874-99.872-141.558 41.684-94.592 94.564c-13.78 13.812-13.78 36.156 0 49.968l149.84 149.808c13.782 13.782 36.156 13.782 49.936 0l94.56-94.594L346.4 777.5zM716.032 126.984c-8.342 8.344-8.342 21.844 0 30.156L367.368 505.85l13.938 136.872 136.904 13.968L866.874 307.98c8.31 8.344 21.842 8.344 30.154 0 8.344-8.312 8.344-21.844 0-30.156l-150.84-150.838c-8.312-8.344-21.812-8.344-30.156-0.002z" fill="#E6E9ED" /><path d="M130.562 863.312L419.71 574.16l30.156 30.188L160.716 893.496z" fill="#3BAFDA" /><path d="M685.876 307.98l-60.342-60.342-30.188 30.186 60.344 60.344c8.344 8.312 21.842 8.312 30.186 0 8.314-8.344 8.314-21.844 0-30.188zM565.192 307.98l-30.138 30.188 60.294 60.31a21.332 21.332 0 0 0 30.188 0c8.312-8.31 8.312-21.81 0-30.154l-0.062-0.062-60.282-60.282z" fill="#434A54" /><path d="M336.65 810.656H13.626l-3.25 3.218c-13.78 13.812-13.78 36.156 0 49.968l149.84 149.808c13.782 13.782 36.156 13.782 49.936 0l94.56-94.594 31.938-108.4z" fill="#4FC2E9" /><path d="M366.712 808.188c-13.812 13.782-36.156 13.782-49.968 0l-100.904-100.902c-13.782-13.782-13.782-36.156 0-49.938l40.562-40.562c13.812-13.782 36.156-13.782 49.968 0l100.872 100.902c13.812 13.782 13.812 36.124 0.032 49.938l-40.562 40.562z" fill="#656D78" /><path d="M446.522 426.696l-79.154 79.154 13.938 136.872 136.902 13.97 229.98-229.996z" fill="#4FC2E9" /><path d="M896.996 6.268c-8.344 8.312-8.344 21.844 0 30.156l90.532 90.56a21.33 21.33 0 0 0 30.186 0c8.312-8.342 8.344-21.842 0-30.156l-90.56-90.56c-8.314-8.342-21.846-8.342-30.158 0z" fill="#434A54" /></svg>