<?xml version="1.0" standalone="no"?><!DOCTYPE svg PUBLIC "-//W3C//DTD SVG 1.1//EN" "http://www.w3.org/Graphics/SVG/1.1/DTD/svg11.dtd"><svg class="icon" width="128px" height="128.00px" viewBox="0 0 1024 1024" version="1.1" xmlns="http://www.w3.org/2000/svg"><path d="M0 993.812825l276.590437-276.622436 30.187175 30.187175L30.155175 1024z" fill="#3BAFDA" /><path d="M369.119907 805.691969l-135.748288-15.095587-15.093588-135.748288L700.958833 172.165292l150.841876 150.841876z" fill="#E6E9ED" /><path d="M218.278031 654.848094l15.093588 135.748288 135.748288 15.095587 338.964731-338.982731H406.400887z" fill="#4FC2E9" /><path d="M1002.644584 111.822942l-90.499525-90.499525-211.186226 211.170226 90.499526 90.513525z" fill="#CCD1D9" /><path d="M587.429937 406.380888c8.311773 8.327772 21.845403 8.327772 30.157176 0 8.343772-8.327772 8.343772-21.843403 0-30.171175l-60.34435-60.34235-30.155176 30.171175 60.34235 60.34235zM496.932412 496.880413c8.311773 8.327772 21.811404 8.327772 30.155175 0s8.343772-21.843403 0-30.171175l-60.34235-60.32835-30.157175 30.157175 60.34435 60.34235zM406.432887 587.379939c8.311773 8.311773 21.811404 8.311773 30.155175 0 8.311773-8.311773 8.311773-21.811404 0-30.155176l-60.34235-60.34435-30.157175 30.187175 60.34435 60.312351z" fill="#434A54" /><path d="M1017.738171 126.91653L897.051471 6.245829c-8.311773-8.327772-21.843403-8.327772-30.155175 0a21.289418 21.289418 0 0 0 0 30.155176l120.652701 120.6707a21.333417 21.333417 0 0 0 30.189174 0c8.311773-8.327772 8.311773-21.827403 0-30.155175zM851.800709 323.007168l-150.841876-150.841876c-8.311773-8.327772-21.843403-8.327772-30.155175 0-8.343772 8.329772-8.343772 21.829403 0 30.171175l150.841875 150.827876a21.20942 21.20942 0 0 0 15.061588 6.249829c5.46785 0 10.937701-2.077943 15.093588-6.249829a21.295418 21.295418 0 0 0 0-30.157175z" fill="#E6E9ED" /></svg>