<?xml version="1.0" standalone="no"?><!DOCTYPE svg PUBLIC "-//W3C//DTD SVG 1.1//EN" "http://www.w3.org/Graphics/SVG/1.1/DTD/svg11.dtd"><svg class="icon" width="128px" height="128.00px" viewBox="0 0 1024 1024" version="1.1" xmlns="http://www.w3.org/2000/svg"><path d="M834.824 103.834C767.86 36.9 677.082 0.028 579.18 0.028c-52.496 0-104.26 10.436-153.834 30.998-51.216 21.248-97.432 52.278-137.382 92.212-75.42 75.402-119.074 173.648-122.934 276.642-3.89 103.588 32.888 199.55 103.542 270.206 66.95 66.934 157.726 103.804 255.626 103.804 52.512 0 104.26-10.404 153.852-30.964 51.214-21.25 97.432-52.28 137.368-92.214 75.434-75.434 119.088-173.678 122.932-276.674 3.904-103.588-32.874-199.552-103.526-270.204z" fill="#ED5564" /><path d="M420.408 176.924a21.36 21.36 0 0 1 0 30.186c-8.328 8.312-21.842 8.312-30.17 0a21.36 21.36 0 0 1 0-30.186c8.328-8.312 21.842-8.312 30.17 0zM505.732 91.616c8.328 8.312 8.328 21.81 0 30.154-8.328 8.344-21.828 8.344-30.17 0-8.328-8.344-8.328-21.842 0-30.154 8.342-8.344 21.842-8.344 30.17 0zM591.086 176.924c8.312 8.344 8.312 21.842 0 30.186-8.344 8.312-21.844 8.312-30.186 0-8.312-8.344-8.312-21.842 0-30.186 8.342-8.312 21.842-8.312 30.186 0zM676.394 91.616c8.344 8.312 8.344 21.81 0 30.154-8.312 8.344-21.844 8.344-30.156 0-8.342-8.344-8.342-21.842 0-30.154 8.312-8.344 21.844-8.344 30.156 0zM761.734 176.924c8.312 8.344 8.312 21.842 0 30.186-8.344 8.312-21.844 8.312-30.188 0-8.312-8.344-8.312-21.842 0-30.186 8.344-8.312 21.844-8.312 30.188 0zM249.746 347.602c8.328 8.312 8.328 21.812 0 30.154-8.328 8.344-21.828 8.344-30.17 0-8.328-8.342-8.328-21.842 0-30.154 8.342-8.344 21.84-8.344 30.17 0zM335.084 262.262c8.328 8.344 8.328 21.844 0 30.156-8.344 8.342-21.842 8.342-30.17 0-8.328-8.312-8.328-21.812 0-30.156 8.328-8.342 21.826-8.342 30.17 0zM420.408 347.602c8.328 8.312 8.328 21.812 0 30.154-8.328 8.344-21.842 8.344-30.17 0-8.328-8.342-8.328-21.842 0-30.154 8.328-8.344 21.842-8.344 30.17 0zM505.732 262.262c8.328 8.344 8.328 21.844 0 30.156-8.328 8.342-21.828 8.342-30.17 0-8.328-8.312-8.328-21.812 0-30.156 8.342-8.342 21.842-8.342 30.17 0zM591.086 347.602c8.312 8.312 8.312 21.812 0 30.154a21.33 21.33 0 0 1-30.186 0c-8.344-8.342-8.312-21.842 0-30.154a21.33 21.33 0 0 1 30.186 0zM676.394 262.262c8.344 8.344 8.344 21.844 0 30.156-8.312 8.342-21.844 8.342-30.156 0-8.342-8.312-8.342-21.812 0-30.156 8.312-8.342 21.844-8.342 30.156 0zM761.734 347.602c8.312 8.312 8.312 21.812 0 30.154a21.332 21.332 0 0 1-30.188 0c-8.312-8.342-8.312-21.842 0-30.154a21.332 21.332 0 0 1 30.188 0zM847.074 262.262c8.31 8.344 8.31 21.844 0 30.156a21.336 21.336 0 0 1-30.188 0c-8.312-8.312-8.312-21.812 0-30.156a21.336 21.336 0 0 1 30.188 0zM335.084 432.91a21.36 21.36 0 0 1 0 30.186c-8.344 8.312-21.842 8.312-30.17 0a21.36 21.36 0 0 1 0-30.186c8.328-8.312 21.826-8.312 30.17 0zM420.408 518.25c8.328 8.342 8.328 21.842 0 30.154-8.328 8.342-21.842 8.342-30.17 0-8.328-8.312-8.328-21.812 0-30.154 8.328-8.344 21.842-8.344 30.17 0zM505.732 432.91a21.36 21.36 0 0 1 0 30.186c-8.328 8.312-21.828 8.312-30.17 0a21.36 21.36 0 0 1 0-30.186c8.342-8.312 21.842-8.312 30.17 0zM591.086 518.25c8.312 8.342 8.312 21.842 0 30.154a21.334 21.334 0 0 1-30.186 0c-8.344-8.312-8.344-21.812 0-30.154a21.33 21.33 0 0 1 30.186 0zM676.394 432.91a21.33 21.33 0 0 1 0 30.186c-8.312 8.312-21.844 8.312-30.156 0a21.334 21.334 0 0 1 0-30.186c8.312-8.312 21.844-8.312 30.156 0zM761.734 518.25c8.312 8.342 8.312 21.842 0 30.154a21.336 21.336 0 0 1-30.188 0c-8.312-8.312-8.312-21.812 0-30.154a21.332 21.332 0 0 1 30.188 0zM847.074 432.91c8.31 8.344 8.31 21.842 0 30.186-8.344 8.312-21.844 8.312-30.188 0-8.312-8.344-8.312-21.842 0-30.186 8.344-8.312 21.844-8.312 30.188 0zM505.732 603.588c8.328 8.312 8.328 21.842 0 30.154-8.328 8.344-21.828 8.344-30.17 0-8.328-8.312-8.328-21.842 0-30.154 8.342-8.342 21.842-8.342 30.17 0zM591.086 688.896c8.312 8.344 8.312 21.842 0 30.186-8.344 8.312-21.844 8.312-30.186 0a21.33 21.33 0 0 1 0-30.186c8.342-8.312 21.842-8.312 30.186 0zM676.394 603.588c8.344 8.312 8.344 21.842 0 30.154-8.312 8.344-21.844 8.344-30.156 0-8.342-8.312-8.342-21.842 0-30.154 8.312-8.342 21.844-8.342 30.156 0z" fill="#DA4453" /><path d="M168.092 464.814l22.5 155.93-182.506 150.522a21.384 21.384 0 0 0-7.594 13.75c-0.312 2.438-7.016 59.872 43.138 110.028 39.374 39.34 83.432 43.59 100.542 43.59 5.25 0 8.578-0.344 9.468-0.468a21.35 21.35 0 0 0 13.75-7.594l150.508-182.488 155.96 22.496L168.092 464.814z" fill="#F4BE8E" /><path d="M938.35 374.038c3.904-103.588-32.874-199.55-103.526-270.204a356.21 356.21 0 0 0-15.5-14.562c61.028 68.902 92.464 158.46 88.872 254.612-3.876 102.996-47.53 201.24-122.932 276.642-39.966 39.936-86.184 70.964-137.4 92.212-49.558 20.562-101.304 31-153.834 31-17.03 0-33.842-1.156-50.356-3.344l0.016 0.032-1.124-0.188a188.398 188.398 0 0 1-5.842-0.844l-148.992-21.5-150.512 182.522a21.3 21.3 0 0 1-13.75 7.562c-0.89 0.124-4.218 0.5-9.468 0.5-14.796 0-49.762-3.188-84.418-29.53a160.566 160.566 0 0 0 14.046 16.094c39.374 39.34 83.432 43.59 100.542 43.59 5.25 0 8.578-0.344 9.468-0.468a21.35 21.35 0 0 0 13.75-7.594l150.508-182.488 148.992 21.496 5.844 0.844 1.124 0.156h-0.016a383.282 383.282 0 0 0 50.356 3.312c52.512 0 104.26-10.404 153.852-30.964 51.214-21.25 97.432-52.28 137.368-92.214 75.434-75.434 119.088-173.678 122.932-276.674z" fill="#FFFFFF" opacity=".2" /><path d="M895.976 767.986c-70.59 0-127.992 57.402-127.992 127.994 0 70.59 57.402 127.992 127.992 127.992 70.558 0 127.992-57.402 127.992-127.992 0-70.592-57.432-127.994-127.992-127.994z" fill="#E6E9ED" /><path d="M895.976 767.986c-3.594 0-7.156 0.156-10.688 0.438 65.622 5.436 117.338 60.558 117.338 127.556 0 66.996-51.716 122.118-117.338 127.554 3.532 0.282 7.094 0.438 10.688 0.438 70.558 0 127.992-57.402 127.992-127.992 0-70.592-57.432-127.994-127.992-127.994z" fill="#FFFFFF" opacity=".3" /></svg>