<?xml version="1.0" standalone="no"?><!DOCTYPE svg PUBLIC "-//W3C//DTD SVG 1.1//EN" "http://www.w3.org/Graphics/SVG/1.1/DTD/svg11.dtd"><svg class="icon" width="128px" height="128.00px" viewBox="0 0 1024 1024" version="1.1" xmlns="http://www.w3.org/2000/svg"><path d="M853.3 981.284c0 23.56-19.062 42.686-42.624 42.686H213.354c-23.56 0-42.654-19.124-42.654-42.686V85.338c0-23.56 19.094-42.654 42.654-42.654h597.322c23.562 0 42.624 19.092 42.624 42.654v895.946z" fill="#CCD1D9" /><path d="M853.3 938.628c0 23.562-19.062 42.654-42.624 42.654H213.354c-23.56 0-42.654-19.092-42.654-42.654V42.686C170.7 19.124 189.794 0.032 213.354 0.032h597.322c23.562 0 42.624 19.092 42.624 42.654v895.942z" fill="#E6E9ED" /><path d="M341.346 192.02m-63.996 0a63.996 63.996 0 1 0 127.992 0 63.996 63.996 0 1 0-127.992 0Z" fill="#967ADC" /><path d="M746.68 192.02c0 35.342-28.684 63.996-63.996 63.996-35.372 0-63.996-28.654-63.996-63.996s28.624-63.996 63.996-63.996c35.312 0 63.996 28.654 63.996 63.996z" fill="#967ADC" /><path d="M341.346 405.32m-63.996 0a63.996 63.996 0 1 0 127.992 0 63.996 63.996 0 1 0-127.992 0Z" fill="#967ADC" /><path d="M746.68 405.32c0 35.34-28.684 63.994-63.996 63.994-35.372 0-63.996-28.654-63.996-63.994 0-35.344 28.624-63.996 63.996-63.996 35.312 0 63.996 28.652 63.996 63.996z" fill="#967ADC" /><path d="M341.346 618.648m-63.996 0a63.996 63.996 0 1 0 127.992 0 63.996 63.996 0 1 0-127.992 0Z" fill="#967ADC" /><path d="M746.68 618.648c0 35.344-28.684 63.996-63.996 63.996-35.372 0-63.996-28.652-63.996-63.996 0-35.34 28.624-63.996 63.996-63.996 35.312 0 63.996 28.656 63.996 63.996z" fill="#967ADC" /><path d="M341.346 831.98m-63.996 0a63.996 63.996 0 1 0 127.992 0 63.996 63.996 0 1 0-127.992 0Z" fill="#967ADC" /><path d="M746.68 831.98c0 35.34-28.684 63.996-63.996 63.996-35.372 0-63.996-28.656-63.996-63.996 0-35.344 28.624-63.996 63.996-63.996 35.312 0 63.996 28.652 63.996 63.996z" fill="#967ADC" /><path d="M341.346 170.678m-63.996 0a63.996 63.996 0 1 0 127.992 0 63.996 63.996 0 1 0-127.992 0Z" fill="#AC92EB" /><path d="M746.68 170.678c0 35.34-28.684 63.994-63.996 63.994-35.372 0-63.996-28.654-63.996-63.994 0-35.342 28.624-63.996 63.996-63.996 35.312 0 63.996 28.654 63.996 63.996z" fill="#AC92EB" /><path d="M341.346 384.008m-63.996 0a63.996 63.996 0 1 0 127.992 0 63.996 63.996 0 1 0-127.992 0Z" fill="#AC92EB" /><path d="M746.68 384.008c0 35.342-28.684 63.996-63.996 63.996-35.372 0-63.996-28.654-63.996-63.996s28.624-63.996 63.996-63.996c35.312 0 63.996 28.654 63.996 63.996z" fill="#AC92EB" /><path d="M341.346 597.306m-63.996 0a63.996 63.996 0 1 0 127.992 0 63.996 63.996 0 1 0-127.992 0Z" fill="#AC92EB" /><path d="M746.68 597.306c0 35.342-28.684 63.996-63.996 63.996-35.372 0-63.996-28.654-63.996-63.996s28.624-63.996 63.996-63.996c35.312 0 63.996 28.654 63.996 63.996z" fill="#AC92EB" /><path d="M341.346 810.636m-63.996 0a63.996 63.996 0 1 0 127.992 0 63.996 63.996 0 1 0-127.992 0Z" fill="#AC92EB" /><path d="M746.68 810.636c0 35.342-28.684 63.996-63.996 63.996-35.372 0-63.996-28.654-63.996-63.996 0-35.34 28.624-63.996 63.996-63.996 35.312 0 63.996 28.656 63.996 63.996z" fill="#AC92EB" /><path d="M512.008 106.682c-11.782 0-21.328 9.562-21.328 21.342v725.268c0 11.78 9.546 21.342 21.328 21.342 11.78 0 21.328-9.562 21.328-21.342V128.024c0-11.78-9.546-21.342-21.328-21.342z" fill="#CCD1D9" /></svg>