<?xml version="1.0" standalone="no"?><!DOCTYPE svg PUBLIC "-//W3C//DTD SVG 1.1//EN" "http://www.w3.org/Graphics/SVG/1.1/DTD/svg11.dtd"><svg class="icon" width="128px" height="128.00px" viewBox="0 0 1024 1024" version="1.1" xmlns="http://www.w3.org/2000/svg"><path d="M996.422 626.362c-66.372-137.988-232.106-195.922-370.036-129.488-137.99 66.37-195.986 232.106-129.552 370.036 66.434 137.988 232.106 195.984 370.098 129.55 137.99-66.432 195.924-232.108 129.49-370.098z" fill="#4A89DC" /><path d="M534.52 423.502c-57.122 142.052-218.61 210.86-360.662 153.676C31.808 520.056-37 358.508 20.182 216.518c57.184-142.05 218.672-210.86 360.66-153.708 142.052 57.152 210.862 218.672 153.678 360.692z" fill="#DA4453" /><path d="M534.52 380.88c-57.122 141.988-218.61 210.796-360.662 153.676C31.808 477.374-37 315.884 20.182 173.834c57.184-142.052 218.672-210.86 360.66-153.676 142.052 57.184 210.862 218.67 153.678 360.722z" fill="#ED5564" /><path d="M28.87 154.336c-3.124 6.342-6 12.842-8.688 19.498s-5.124 13.374-7.25 20.092l512.9 206.392a259.39 259.39 0 0 0 8.688-19.438 277.862 277.862 0 0 0 7.25-20.124L28.87 154.336z" fill="#DA4453" /><path d="M996.422 583.678c-66.372-137.926-232.106-195.922-370.036-129.49-137.99 66.432-195.986 232.108-129.552 370.098 66.434 137.928 232.106 195.924 370.098 129.49 137.99-66.434 195.924-232.108 129.49-370.098z" fill="#5D9CEC" /><path d="M996.422 583.678c-3.062-6.438-6.438-12.75-9.938-18.874L488.334 804.662c2.562 6.624 5.438 13.124 8.5 19.624a318.648 318.648 0 0 0 10 18.874l498.15-239.92a281.714 281.714 0 0 0-8.562-19.562z" fill="#4A89DC" /></svg>