<?xml version="1.0" standalone="no"?><!DOCTYPE svg PUBLIC "-//W3C//DTD SVG 1.1//EN" "http://www.w3.org/Graphics/SVG/1.1/DTD/svg11.dtd"><svg class="icon" width="128px" height="128.00px" viewBox="0 0 1024 1024" version="1.1" xmlns="http://www.w3.org/2000/svg"><path d="M213.332 21.38h597.332v1002.58H213.332z" fill="#FB6D51" /><path d="M192.024 981.308v42.652h639.95V42.722L192.024 0.04v981.268zM789.29 42.722v938.586H234.676V42.722h554.614z" fill="#E8563F" /><path d="M874.66 85.376c0 23.466-19.25 42.654-42.688 42.654H192.024c-23.5 0-42.684-19.186-42.684-42.654V42.722C149.34 19.224 168.524 0.038 192.024 0.038h639.95c23.438 0 42.688 19.186 42.688 42.684v42.654z" fill="#656D78" /><path d="M256.016 21.38c11.75 0 21.312-9.53 21.312-21.342h-42.652a21.31 21.31 0 0 0 21.34 21.342zM384.008 21.38c11.75 0 21.312-9.53 21.312-21.342h-42.656a21.312 21.312 0 0 0 21.344 21.342zM512 21.38c11.746 0 21.308-9.53 21.308-21.342h-42.652A21.312 21.312 0 0 0 512 21.38zM639.988 21.38c11.75 0 21.312-9.53 21.312-21.342h-42.624c0 11.812 9.5 21.342 21.312 21.342zM767.98 21.38c11.746 0 21.308-9.53 21.308-21.342h-42.622A21.288 21.288 0 0 0 767.98 21.38z" fill="#434A54" /><path d="M464 700.048c-23.434 0-44.996-12.782-56.21-33.31-16.906-30.966-5.5-69.932 25.464-86.87l187.172-102.304c9.438-5.124 20-7.844 30.624-7.844a64.08 64.08 0 0 1 56.246 33.312c8.188 14.996 10.062 32.278 5.25 48.684-4.812 16.404-15.75 29.964-30.75 38.152l-187.172 102.304A63.8 63.8 0 0 1 464 700.048z" fill="#ED5564" /><path d="M725.98 492.814c-15.496-28.374-44.746-44.434-74.93-44.434a85.218 85.218 0 0 0-40.872 10.466l-187.176 102.304c-41.34 22.592-56.558 74.462-33.934 115.802 15.5 28.376 44.746 44.404 74.93 44.404a84.792 84.792 0 0 0 40.876-10.466l187.172-102.306c41.372-22.59 56.56-74.43 33.934-115.77z m-54.37 78.336l-187.204 102.304c-6.376 3.5-13.218 5.25-20.406 5.25a42.708 42.708 0 0 1-37.496-22.214c-11.282-20.624-3.688-46.624 17-57.902l187.172-102.304c6.376-3.468 13.25-5.25 20.376-5.25 15.688 0 30.058 8.532 37.496 22.216 11.312 20.654 3.686 46.622-16.938 57.9z" fill="#DA4453" /><path d="M508.124 538.966l-74.872 40.902c-30.964 16.938-42.372 55.902-25.464 86.87 11.214 20.53 32.778 33.31 56.21 33.31a63.8 63.8 0 0 0 30.624-7.876l74.868-40.902-61.366-112.304z" fill="#F5F7FA" /><path d="M559.308 632.552l-74.902 40.902c-6.376 3.5-13.218 5.25-20.406 5.25a42.708 42.708 0 0 1-37.496-22.214c-11.282-20.624-3.688-46.624 17-57.902l74.836-40.904-20.464-37.436-74.872 40.904c-41.34 22.592-56.558 74.462-33.934 115.802 15.5 28.376 44.746 44.404 74.93 44.404a84.792 84.792 0 0 0 40.876-10.466l74.868-40.904-20.436-37.436z" fill="#E6E9ED" /><path d="M453.066 959.966c-19.594 0-37.844-8.782-50.058-24.094l-133.054-166.736c-21.996-27.592-17.434-67.932 10.124-89.932 11.468-9.154 25.25-13.966 39.872-13.966 19.624 0 37.872 8.748 50.058 24.06l133.054 166.77c10.652 13.374 15.496 30.09 13.558 47.058-1.906 16.998-10.308 32.214-23.684 42.872-11.438 9.156-25.25 13.968-39.84 13.968h-0.03z" fill="#ED5564" /><path d="M519.746 842.756l-133.05-166.738c-16.844-21.122-41.684-32.122-66.746-32.122-18.652 0-37.434 6.094-53.184 18.624-36.808 29.404-42.872 83.088-13.464 119.896l133.02 166.77c16.876 21.124 41.684 32.124 66.746 32.124a85.034 85.034 0 0 0 53.184-18.624c36.838-29.406 42.87-83.088 13.494-119.93z m-24.308 57.996c-1.282 11.312-6.876 21.466-15.812 28.56-9.624 7.716-19.746 9.342-26.558 9.342a42.53 42.53 0 0 1-33.376-16.06l-133.05-166.768c-14.656-18.376-11.624-45.278 6.75-59.964 9.656-7.688 19.746-9.312 26.558-9.312a42.628 42.628 0 0 1 33.406 16.062l133.02 166.768c7.124 8.906 10.312 20.028 9.062 31.372z" fill="#DA4453" /><path d="M516.622 903.126c1.938-16.968-2.906-33.686-13.558-47.058l-66.496-83.37-100.054 79.838 66.496 83.336c12.214 15.312 30.464 24.094 50.058 24.094h0.032c14.59 0 28.402-4.812 39.84-13.968 13.372-10.656 21.774-25.874 23.682-42.872z" fill="#F5F7FA" /><path d="M519.746 842.756l-66.492-83.336-33.376 26.59 66.496 83.37c7.124 8.906 10.312 20.03 9.062 31.374-1.282 11.312-6.876 21.466-15.812 28.56-9.624 7.716-19.746 9.342-26.558 9.342a42.53 42.53 0 0 1-33.376-16.06L353.2 839.224l-33.376 26.594 66.496 83.368c16.876 21.124 41.684 32.124 66.746 32.124a85.034 85.034 0 0 0 53.184-18.624c36.84-29.406 42.872-83.088 13.496-119.93z" fill="#E6E9ED" /><path d="M623.676 959.966c-8.308 0-16.558-1.624-24.372-4.844-32.624-13.468-48.184-50.934-34.75-83.556l81.308-197.206c9.938-24.09 33.184-39.622 59.184-39.622 8.376 0 16.558 1.624 24.372 4.844 15.812 6.532 28.124 18.782 34.688 34.59 6.562 15.782 6.624 33.156 0.124 48.966l-81.372 197.204c-9.874 24.062-33.12 39.624-59.182 39.624z" fill="#ED5564" /><path d="M737.542 619.868a85.104 85.104 0 0 0-32.496-6.468c-33.5 0-65.308 19.904-78.872 52.808l-81.304 197.236c-18 43.558 2.75 93.43 46.308 111.396 10.688 4.376 21.688 6.468 32.496 6.468 33.562 0 65.372-19.904 78.934-52.84l81.304-197.206c18.002-43.556-2.748-93.428-46.37-111.394z m6.938 95.148l-81.304 197.206a42.586 42.586 0 0 1-39.5 26.434c-5.562 0-10.996-1.094-16.184-3.25-21.75-8.966-32.188-33.964-23.188-55.712l81.308-197.206c6.622-16.06 22.122-26.434 39.434-26.434 5.562 0 11.062 1.094 16.246 3.25 10.562 4.342 18.75 12.53 23.124 23.058 4.376 10.5 4.44 22.124 0.064 32.654z" fill="#DA4453" /><path d="M729.418 639.584a63.626 63.626 0 0 0-24.372-4.844c-26 0-49.246 15.532-59.184 39.622l-40.622 98.588 118.3 48.778 40.688-98.586c6.5-15.81 6.438-33.186-0.124-48.966-6.562-15.81-18.874-28.06-34.686-34.592z" fill="#F5F7FA" /><path d="M737.542 619.868a85.104 85.104 0 0 0-32.496-6.468c-33.5 0-65.308 19.904-78.872 52.808l-40.684 98.618 39.434 16.248 40.688-98.586c6.622-16.06 22.122-26.434 39.434-26.434 5.562 0 11.062 1.094 16.246 3.25 10.562 4.342 18.75 12.53 23.124 23.058 4.376 10.5 4.438 22.124 0.062 32.654l-40.622 98.588 39.434 16.278 40.622-98.618c18.002-43.558-2.748-93.43-46.37-111.396z" fill="#E6E9ED" /></svg>