<?xml version="1.0" standalone="no"?><!DOCTYPE svg PUBLIC "-//W3C//DTD SVG 1.1//EN" "http://www.w3.org/Graphics/SVG/1.1/DTD/svg11.dtd"><svg class="icon" width="128px" height="128.00px" viewBox="0 0 1024 1024" version="1.1" xmlns="http://www.w3.org/2000/svg"><path d="M1002.646 1023.992H533.342a21.4 21.4 0 0 1-16.61-7.938 21.354 21.354 0 0 1-4.25-17.906l133.89-618.644a21.346 21.346 0 0 1 20.844-16.828h213.34c10.188 0 18.938 7.204 20.906 17.204l122.124 618.644a21.392 21.392 0 0 1-4.468 17.688 21.368 21.368 0 0 1-16.472 7.78z" fill="#F6BB42" /><path d="M486.466 780.684c0.204-0.312 0.438-0.562 0.624-0.876 0.204-0.312 0.376-0.624 0.562-0.906 0.172-0.282 0.36-0.594 0.532-0.906 0.156-0.312 0.296-0.624 0.454-0.968 0.14-0.282 0.296-0.594 0.422-0.906 0.14-0.344 0.25-0.688 0.376-1l0.328-0.938c0.094-0.376 0.172-0.718 0.266-1.062 0.078-0.312 0.156-0.624 0.218-0.938 0.078-0.376 0.11-0.718 0.172-1.062 0.046-0.312 0.11-0.656 0.14-1 0.032-0.312 0.032-0.688 0.062-1.032l0.046-1c0-0.344-0.032-0.688-0.046-1.032s-0.016-0.688-0.046-1c-0.032-0.344-0.094-0.688-0.14-1.032s-0.078-0.656-0.14-1-0.156-0.656-0.234-1.032l-0.25-1c-0.094-0.312-0.218-0.624-0.328-0.938-0.11-0.344-0.218-0.688-0.344-1s-0.296-0.624-0.438-0.938-0.282-0.624-0.438-0.938-0.36-0.624-0.546-0.938c-0.172-0.312-0.328-0.624-0.516-0.906-0.204-0.282-0.438-0.594-0.656-0.906-0.204-0.25-0.39-0.562-0.61-0.812-0.218-0.312-0.484-0.562-0.734-0.844-0.218-0.25-0.422-0.5-0.64-0.718L212.112 475.72c-8.25-8.406-21.766-8.516-30.17-0.266-8.406 8.266-8.514 21.766-0.266 30.172l257.62 262.246-49.044 49.062c-8.328 8.312-8.328 21.812 0 30.156a21.288 21.288 0 0 0 15.092 6.218 21.28 21.28 0 0 0 15.078-6.218l64-64c0.234-0.218 0.438-0.5 0.672-0.718 0.234-0.312 0.5-0.562 0.734-0.812 0.216-0.314 0.42-0.596 0.638-0.876z" fill="#AAB2BC" /><path d="M773.868 64.008c-11.782 0-21.312-9.546-21.312-21.328V21.336c0-11.782 9.532-21.328 21.312-21.328s21.344 9.546 21.344 21.328V42.68c-0.002 11.782-9.564 21.328-21.344 21.328z" fill="#434A54" /><path d="M702.34 88.086a21.26 21.26 0 0 0-20.344-4.032L39.302 291.786a21.33 21.33 0 0 0-14.78 20.296v60.704c0 6.844 3.282 13.28 8.828 17.28a21.22 21.22 0 0 0 19.17 2.984L686.246 184.616a21.364 21.364 0 0 0 14.438-17.108l8.968-60a21.33 21.33 0 0 0-7.312-19.422z" fill="#CCD1D9" /><path d="M423.544 820.872L130.754 341.458a21.33 21.33 0 0 0-17.202-10.204l-81.014-3.766a21.33 21.33 0 0 0-19.312 32.25l288.464 483.196a21.332 21.332 0 0 0 18.312 10.376h85.342c7.704 0 14.828-4.124 18.592-10.876a21.344 21.344 0 0 0-0.392-21.562z" fill="#CCD1D9" /><path d="M405.342 810.684H320c-11.782 0-21.328 9.532-21.328 21.312v85.308c0 11.812 9.546 21.376 21.328 21.376h85.342c11.782 0 21.328-9.562 21.328-21.376v-85.308c0-11.782-9.546-21.312-21.328-21.312z" fill="#434A54" /><path d="M85.348 341.364m-64 0a64 64 0 1 0 128 0 64 64 0 1 0-128 0Z" fill="#656D78" /><path d="M85.348 256.036c-47.046 0-85.328 38.28-85.328 85.328 0 47.046 38.28 85.326 85.328 85.326 47.046 0 85.328-38.28 85.328-85.326 0-47.048-38.282-85.328-85.328-85.328z m0 127.998c-23.532 0-42.672-19.14-42.672-42.67s19.14-42.672 42.672-42.672 42.67 19.14 42.67 42.672-19.138 42.67-42.67 42.67z" fill="#434A54" /><path d="M85.348 341.364m-21.328 0a21.328 21.328 0 1 0 42.656 0 21.328 21.328 0 1 0-42.656 0Z" fill="#434A54" /><path d="M709.872 469.344c-11.782 0-21.312-9.546-21.312-21.328v-63.998c0-11.78 9.532-21.342 21.312-21.342 11.78 0 21.342 9.562 21.342 21.342v63.998c-0.002 11.782-9.564 21.328-21.342 21.328zM837.868 469.344c-11.782 0-21.312-9.546-21.312-21.328v-63.998c0-11.78 9.532-21.342 21.312-21.342s21.344 9.562 21.344 21.342v63.998c-0.002 11.782-9.564 21.328-21.344 21.328zM773.868 597.344c-11.782 0-21.312-9.562-21.312-21.344v-191.982c0-11.78 9.532-21.342 21.312-21.342s21.344 9.562 21.344 21.342V576c-0.002 11.782-9.564 21.344-21.344 21.344z" fill="#FFCE54" /><path d="M922.43 384.018h-297.12l63.248-256.012h170.652z" fill="#434A54" /><path d="M688.558 42.68h170.652v85.326h-170.652zM661.308 895.992H64.02c-11.782 0-21.344 9.562-21.344 21.312v85.376c0 11.75 9.562 21.312 21.344 21.312h597.288c11.782 0 21.344-9.562 21.344-21.312v-85.376c0-11.75-9.562-21.312-21.344-21.312z" fill="#656D78" /><path d="M582.654 981.304c-11.782 0-21.344 9.562-21.344 21.376v21.312h42.688V1002.68c0-11.812-9.562-21.376-21.344-21.376zM497.326 981.304c-11.78 0-21.328 9.562-21.328 21.376v21.312h42.672V1002.68c0-11.812-9.548-21.376-21.344-21.376zM412 981.304c-11.782 0-21.328 9.562-21.328 21.376v21.312h42.67V1002.68c0-11.812-9.562-21.376-21.342-21.376zM326.672 981.304c-11.782 0-21.328 9.562-21.328 21.376v21.312H348V1002.68c0-11.812-9.546-21.376-21.328-21.376zM241.346 981.304c-11.782 0-21.344 9.562-21.344 21.376v21.312h42.672V1002.68c0-11.812-9.548-21.376-21.328-21.376zM156.004 981.304c-11.782 0-21.328 9.562-21.328 21.376v21.312h42.672V1002.68c0-11.812-9.562-21.376-21.344-21.376z" fill="#434A54" /></svg>