<?xml version="1.0" standalone="no"?><!DOCTYPE svg PUBLIC "-//W3C//DTD SVG 1.1//EN" "http://www.w3.org/Graphics/SVG/1.1/DTD/svg11.dtd"><svg class="icon" width="128px" height="128.00px" viewBox="0 0 1024 1024" version="1.1" xmlns="http://www.w3.org/2000/svg"><path d="M64.006 469.322h895.986v127.984H64.006z" fill="#965353" /><path d="M64.006 917.296c0 11.812 9.546 21.376 21.328 21.376s21.344-9.562 21.344-21.376V465.994H64.006v451.302zM917.304 465.994v451.304a21.366 21.366 0 0 0 21.376 21.376c11.75 0 21.312-9.562 21.312-21.376V465.994h-42.688z" fill="#A85D5D" /><path d="M533.328 533.32c0 11.796-9.546 21.36-21.328 21.36s-21.328-9.562-21.328-21.36c0-11.782 9.546-21.328 21.328-21.328s21.328 9.548 21.328 21.328z" fill="#434A54" /><path d="M512 128m-21.328 0a21.328 21.328 0 1 0 42.656 0 21.328 21.328 0 1 0-42.656 0Z"  /><path d="M0.008 383.994h1023.984v85.328H0.008z" fill="#FFD2A6" /><path d="M320.002 362.666V128c0-11.764 9.562-21.328 21.328-21.328h341.354c11.75 0 21.312 9.562 21.312 21.328v234.668H320.002z" fill="#5D9CEC" /><path d="M682.684 85.328H341.33c-23.562 0-42.656 19.11-42.656 42.67v255.996h426.634V128c0-23.562-19.062-42.672-42.624-42.672z m0 255.996H341.33V128h341.354v213.324z" fill="#CCD1D9" /><path d="M746.684 341.324H277.332c-11.782 0-21.328 9.562-21.328 21.342s9.546 21.328 21.328 21.328h469.352c11.75 0 21.312-9.546 21.312-21.328s-9.562-21.342-21.312-21.342z" fill="#E6E9ED" /><path d="M506.656 341.324h-79.984L512 128h79.998z" fill="#FFFFFF" opacity=".1" /></svg>