<?xml version="1.0" standalone="no"?><!DOCTYPE svg PUBLIC "-//W3C//DTD SVG 1.1//EN" "http://www.w3.org/Graphics/SVG/1.1/DTD/svg11.dtd"><svg class="icon" width="128px" height="128.00px" viewBox="0 0 1024 1024" version="1.1" xmlns="http://www.w3.org/2000/svg"><path d="M713.566 983.586l-165.122-51.156h-72.86l-165.122 51.156c-8.844 4.438-13.5 14.376-11.218 24s10.876 16.406 20.75 16.406h384.008c9.876 0 18.5-6.782 20.75-16.406 2.314-9.626-2.374-19.562-11.186-24z" fill="#A85D5D" /><path d="M593.318 520.876a21.326 21.326 0 0 0-17.312-8.876h-127.98a21.322 21.322 0 0 0-17.312 8.876 21.214 21.214 0 0 0-2.938 19.218l47.81 106.152h72.86l47.81-106.152c2.188-6.5 1.062-13.656-2.938-19.218z" fill="#7F4545" /><path d="M548.446 646.246a21.4 21.4 0 0 0-15.11-6.25H490.68a21.36 21.36 0 0 0-15.094 6.25c-2 2-48.904 50-48.904 143.094 0 93.09 46.904 141.09 48.904 143.09 4 4 9.438 6.25 15.094 6.25h42.656a21.4 21.4 0 0 0 15.11-6.25c2-2 48.874-50 48.874-143.09-0.002-93.094-46.874-141.094-48.874-143.094z" fill="#965353" /><path d="M508.93 443.814l-41.656-9.188 63.218-285.872 41.64 9.22z" fill="#A0D468" /><path d="M652.316 39.164c-12.75-19.75-36.186-24.718-58.936-29.5-2.75-0.594-5.624-1.188-8.562-1.844a566.564 566.564 0 0 1-8.562-1.938c-12.998-3-25.248-5.874-37.264-5.874-29.312 0-47.968 17.156-55.438 50.966-5.968 26.938-3.094 54.376 8.062 77.186 11.968 24.468 31.876 40.874 56.078 46.25 5.376 1.188 10.938 1.782 16.438 1.782 43.248 0 82.622-36.436 93.746-86.654 4.626-20.938 2.814-37.406-5.562-50.374z" fill="#DA4453" /><path d="M491.618 128.162c11.968 24.468 31.876 40.874 56.078 46.25 5.376 1.188 10.938 1.782 16.438 1.782 43.248 0 82.622-36.436 93.746-86.654 3.5-15.812 3.312-29.062-0.624-40.218-38.998 14.718-116.042 41.688-175.042 49.25 1.778 10.372 4.904 20.372 9.404 29.59z" fill="#ED5564" /><path d="M402.712 218.068l40.158 255.994h136.886l40.124-255.994z" fill="#AC92EB" /><path d="M768.004 426.658H255.996c-35.28 0-63.998 28.718-63.998 63.998 0 35.314 28.718 64.032 63.998 64.032h512.008c35.31 0 63.998-28.718 63.998-64.032 0-35.28-28.688-63.998-63.998-63.998z" fill="#A85D5D" /><path d="M255.996 448h512.008c31.688 0 57.998 23.124 63.124 53.342 0.562-3.468 0.876-7.032 0.876-10.688 0-35.28-28.688-63.998-63.998-63.998H255.996c-35.28 0-63.998 28.718-63.998 63.998 0 3.656 0.344 7.218 0.906 10.688C197.998 471.124 224.342 448 255.996 448z" fill="#FFFFFF" opacity=".2" /><path d="M512.024 853.336a21.33 21.33 0 0 1-21.344-21.34v-85.312c0-11.782 9.532-21.344 21.344-21.344 11.782 0 21.312 9.562 21.312 21.344v85.312c0 11.782-9.532 21.34-21.312 21.34z" fill="#7F4545" /></svg>