<?xml version="1.0" standalone="no"?><!DOCTYPE svg PUBLIC "-//W3C//DTD SVG 1.1//EN" "http://www.w3.org/Graphics/SVG/1.1/DTD/svg11.dtd"><svg class="icon" width="128px" height="128.00px" viewBox="0 0 1024 1024" version="1.1" xmlns="http://www.w3.org/2000/svg"><path d="M426.688 341.324c0 58.904-47.78 106.654-106.684 106.654-58.906 0-106.654-47.75-106.654-106.654s47.75-106.654 106.654-106.654c58.904 0 106.684 47.75 106.684 106.654zM810.678 341.324c0 58.904-47.78 106.654-106.684 106.654-58.906 0-106.654-47.75-106.654-106.654s47.748-106.654 106.654-106.654c58.904 0 106.684 47.75 106.684 106.654z" fill="#A0D468" /><path d="M469.344 511.976c0 117.826-95.53 213.322-213.338 213.322S42.698 629.802 42.698 511.976c0-117.81 95.498-213.306 213.308-213.306s213.338 95.496 213.338 213.306zM981.33 511.976c0 117.826-95.528 213.322-213.34 213.322-117.808 0-213.304-95.496-213.304-213.322 0-117.81 95.496-213.306 213.304-213.306 117.812 0 213.34 95.496 213.34 213.306z" fill="#FC6E51" /><path d="M725.338 426.666c0 117.824-95.532 213.322-213.338 213.322-117.81 0-213.308-95.498-213.308-213.322 0-117.84 95.498-213.338 213.308-213.338 117.806 0 213.338 95.498 213.338 213.338z" fill="#ED5564" /><path d="M1022.018 582.616c7.062 22.5-5.468 46.438-27.938 53.498l-40.718 12.75c-22.5 7-46.436-5.5-53.466-27.998l-12.78-40.688c-7.032-22.5 5.498-46.422 27.966-53.482l40.716-12.75c22.5-7.032 46.438 5.468 53.468 27.966l12.752 40.704zM1.98 582.616c-7.03 22.5 5.468 46.438 27.968 53.498l40.686 12.75c22.5 7 46.436-5.5 53.498-27.998l12.75-40.688c7.032-22.5-5.468-46.422-27.968-53.482l-40.718-12.75c-22.468-7.032-46.406 5.468-53.468 27.966L1.98 582.616z" fill="#FFCE54" /><path d="M512 298.67C229.256 298.67 0.012 527.882 0.012 810.672h1023.974c0-282.79-229.214-512.002-511.986-512.002z" fill="#F4BE8E" /><path d="M1.792 767.986a507.246 507.246 0 0 0-1.78 42.686h1023.974c0-14.374-0.594-28.624-1.75-42.686H1.792z" fill="#EAAD7A" /><path d="M368.94 432.916c-8.342 8.312-8.342 21.812 0 30.156 8.312 8.344 21.812 8.344 30.156 0 8.342-8.344 8.342-21.844 0-30.156-8.344-8.344-21.844-8.344-30.156 0zM496.936 560.928c-8.344 8.312-8.344 21.812 0 30.124 8.312 8.376 21.812 8.376 30.156 0 8.344-8.312 8.344-21.812 0-30.124-8.344-8.376-21.842-8.376-30.156 0zM624.932 432.916c-8.344 8.312-8.344 21.812 0 30.156 8.312 8.344 21.812 8.344 30.156 0s8.344-21.844 0-30.156c-8.344-8.344-21.844-8.344-30.156 0zM240.912 560.928c-8.312 8.312-8.312 21.812 0 30.124a21.272 21.272 0 0 0 30.186 0c8.312-8.312 8.312-21.812 0-30.124a21.272 21.272 0 0 0-30.186 0zM368.908 688.926c-8.312 8.31-8.312 21.81 0 30.124a21.274 21.274 0 0 0 30.188 0c8.312-8.312 8.312-21.812 0-30.124a21.274 21.274 0 0 0-30.188 0zM624.9 688.926c-8.312 8.31-8.312 21.81 0 30.124a21.274 21.274 0 0 0 30.188 0c8.312-8.312 8.312-21.812 0-30.124a21.274 21.274 0 0 0-30.188 0zM752.898 560.928c-8.312 8.312-8.312 21.812 0 30.124a21.272 21.272 0 0 0 30.186 0c8.312-8.312 8.312-21.812 0-30.124a21.272 21.272 0 0 0-30.186 0zM112.916 688.488c-8.312 8.31-8.312 21.81 0 30.186 8.342 8.312 21.842 8.312 30.186 0 8.312-8.376 8.312-21.876 0-30.186-8.344-8.312-21.844-8.312-30.186 0zM911.082 688.926a21.272 21.272 0 0 0-30.186 0c-8.312 8.31-8.312 21.81 0 30.124a21.272 21.272 0 0 0 30.186 0c8.312-8.314 8.312-21.814 0-30.124z" fill="#EAAD7A" /></svg>