<?xml version="1.0" standalone="no"?><!DOCTYPE svg PUBLIC "-//W3C//DTD SVG 1.1//EN" "http://www.w3.org/Graphics/SVG/1.1/DTD/svg11.dtd"><svg class="icon" width="128px" height="128.00px" viewBox="0 0 1024 1024" version="1.1" xmlns="http://www.w3.org/2000/svg"><path d="M783.058 0.012L512 30.136 0.012 542.124l481.866 481.864L993.866 512l30.124-271.042L783.058 0.012zM813.432 270.6c-8.094 8.094-18.81 12.546-30.248 12.546a42.104 42.104 0 0 1-29.938-12.39c-16.532-16.546-16.468-43.546 0.156-60.17 8.094-8.094 18.844-12.546 30.25-12.546 11.312 0 21.936 4.39 29.936 12.39 16.562 16.544 16.468 43.528-0.156 60.17z" fill="#ED5564" /><path d="M828.682 195.336c-12.438-12.422-28.718-18.64-45.03-18.64-16.406 0.016-32.812 6.282-45.344 18.796-24.968 24.998-25.062 65.452-0.156 90.356 12.438 12.422 28.718 18.624 45.032 18.624a63.974 63.974 0 0 0 45.342-18.782c24.966-24.996 25.06-65.45 0.156-90.354z m-30.344 60.186c-5.466 5.468-11.842 6.296-15.154 6.296-3.25 0-9.5-0.796-14.844-6.14-8.25-8.234-8.156-21.704 0.156-30.016 5.468-5.468 11.844-6.296 15.156-6.296 3.25 0 9.5 0.796 14.842 6.14 8.25 8.234 8.156 21.688-0.156 30.016z" fill="#DA4453" /><path d="M346.038 587.618l90.496 90.498-90.496 90.496-90.498-90.496z" fill="#7F4545" /><path d="M225.32 527.234l377.118-105.592-105.594 377.102z" fill="#8CC153" /><path d="M376.192 436.752l316.772-105.592-105.588 316.774z" fill="#A0D468" /></svg>