<?xml version="1.0" standalone="no"?><!DOCTYPE svg PUBLIC "-//W3C//DTD SVG 1.1//EN" "http://www.w3.org/Graphics/SVG/1.1/DTD/svg11.dtd"><svg class="icon" width="128px" height="128.00px" viewBox="0 0 1024 1024" version="1.1" xmlns="http://www.w3.org/2000/svg"><path d="M42.702 639.996c-11.78 0-21.342-9.532-21.342-21.312v-127.996c0-11.782 9.562-21.342 21.342-21.342 11.782 0 21.312 9.56 21.312 21.342v127.996a21.3 21.3 0 0 1-21.312 21.312zM981.328 639.996c-11.808 0-21.34-9.532-21.34-21.312v-127.996c0-11.782 9.532-21.342 21.34-21.342 11.75 0 21.312 9.56 21.312 21.342v127.996c0 11.78-9.562 21.312-21.312 21.312z" fill="#424953" /><path d="M981.328 597.34h-85.34c-11.782 0-21.344 9.562-21.344 21.344v383.988c0 11.782 9.562 21.312 21.344 21.312h85.34c11.75 0 21.312-9.532 21.312-21.312V618.684c0-11.782-9.562-21.344-21.312-21.344zM128.012 597.34H42.702c-11.78 0-21.342 9.562-21.342 21.344v383.988c0 11.782 9.562 21.312 21.342 21.312h85.31c11.78 0 21.342-9.532 21.342-21.312V618.684c0-11.782-9.562-21.344-21.342-21.344z" fill="#F6BB42" /><path d="M256.008 810.68H42.702c-11.78 0-21.342-9.562-21.342-21.344s9.562-21.344 21.342-21.344h213.306c11.782 0 21.342 9.562 21.342 21.344s-9.56 21.344-21.342 21.344zM981.328 810.68H767.992c-11.782 0-21.344-9.562-21.344-21.344s9.562-21.344 21.344-21.344h213.336c11.75 0 21.312 9.562 21.312 21.344s-9.562 21.344-21.312 21.344z" fill="#ED5564" /><path d="M512 85.356c-11.78 0-21.342-9.532-21.342-21.342V21.358C490.658 9.576 500.22 0.016 512 0.016c11.782 0 21.344 9.56 21.344 21.342v42.656c0 11.81-9.562 21.342-21.344 21.342zM831.992 426.69c-11.782 0-21.344-9.562-21.344-21.342v-21.344c0-11.782 9.562-21.312 21.344-21.312 11.778 0 21.34 9.532 21.34 21.312v21.344c0 11.778-9.562 21.342-21.34 21.342zM192.01 426.69c-11.782 0-21.312-9.562-21.312-21.342v-21.344a21.3 21.3 0 0 1 21.312-21.312c11.78 0 21.342 9.532 21.342 21.312v21.344c0 11.778-9.562 21.342-21.342 21.342z" fill="#424953" /><path d="M831.992 384.004c-47.032 0-85.344 38.28-85.344 85.342 0 11.78 9.562 21.342 21.344 21.342h127.996c11.782 0 21.344-9.562 21.344-21.342 0-47.062-38.312-85.342-85.34-85.342zM192.01 384.004c-47.03 0-85.31 38.28-85.31 85.342 0 11.78 9.532 21.342 21.312 21.342h127.996c11.782 0 21.342-9.562 21.342-21.342 0-47.062-38.31-85.342-85.34-85.342z" fill="#F6BB42" /><path d="M727.586 195.948c-20.872-30.312-49.684-58.966-85.714-85.186-60.406-43.904-120.09-65.874-122.59-66.78a21.216 21.216 0 0 0-14.562 0c-2.5 0.906-62.186 22.876-122.59 66.78-36.03 26.218-64.842 54.874-85.716 85.186-26.812 38.998-40.406 80.746-40.406 124.058 0 67.624 27 136.934 74.092 190.15 23.686 26.75 50.936 47.936 81.06 62.936 32.25 16.094 66.186 24.248 100.84 24.248 34.656 0 68.59-8.154 100.84-24.248 30.124-15 57.376-36.186 81.062-62.936 47.09-53.216 74.09-122.528 74.09-190.15 0-43.312-13.594-85.06-40.406-124.058z" fill="#F6BB42" /><path d="M767.992 512H256.008c-11.782 0-21.342 9.562-21.342 21.344v469.328c0 11.782 9.562 21.312 21.342 21.312h511.984c11.782 0 21.344-9.532 21.344-21.312V533.344c0-11.782-9.562-21.344-21.344-21.344z" fill="#ED5564" /><path d="M746.086 426.69H277.914a301.82 301.82 0 0 0 21.876 42.656h424.422a302.126 302.126 0 0 0 21.874-42.656zM512 639.996c-82.34 0-149.338 66.998-149.338 149.34v234.648H661.34V789.336c0-82.342-67-149.34-149.34-149.34z" fill="#FFCE54" /><path d="M554.656 853.334h-85.31a21.33 21.33 0 0 0-21.344 21.342v149.308h127.994v-149.308c0-11.782-9.528-21.342-21.34-21.342z" fill="#424953" /><path d="M746.648 469.346v533.326c0 11.782 9.562 21.312 21.344 21.312h127.996c11.782 0 21.344-9.532 21.344-21.312V469.346h-170.684zM106.7 469.346v533.326a21.3 21.3 0 0 0 21.312 21.312h127.996c11.782 0 21.342-9.532 21.342-21.312V469.346H106.7z" fill="#FFCE54" /><path d="M106.7 597.34h170.652v170.652H106.7zM746.648 597.34h170.684v170.652h-170.684z" fill="#5D9CEC" /></svg>