<?xml version="1.0" standalone="no"?><!DOCTYPE svg PUBLIC "-//W3C//DTD SVG 1.1//EN" "http://www.w3.org/Graphics/SVG/1.1/DTD/svg11.dtd"><svg class="icon" width="128px" height="128.00px" viewBox="0 0 1024 1024" version="1.1" xmlns="http://www.w3.org/2000/svg"><path d="M512 863.984c-128.45 0-202.432-13.718-226.166-42-7.624-9.094-8.718-17.624-8.5-22.688v-56.374c0-11.75 9.546-21.31 21.328-21.31 0 0 16.828 52.464 204.916 52.464 188.106 0 221.73-52.778 221.73-52.778 5.684 0 11.09 2.25 15.09 6.248 4.032 4 6.282 9.406 6.282 15.094v56.654c0.188 5.062-0.876 13.594-8.5 22.688-23.746 28.284-97.746 42.002-226.18 42.002z" fill="#656D78" /><path d="M405.332 859.766v-91.812c-16.624-2.376-30.688-5.342-42.578-8.56a18.6 18.6 0 0 0-0.078 1.624v93.124c12.748 2.248 26.968 4.124 42.656 5.624zM512 863.984c7.124 0 14.078-0.032 20.876-0.124v-89.406c0-0.282-0.032-0.562-0.046-0.844-9.312 0.312-19.046 0.468-29.25 0.468-4.562 0-8.984-0.032-13.342-0.094 0 0.156-0.032 0.312-0.032 0.468v89.406c7.09 0.096 14.34 0.126 21.794 0.126zM618.684 859.766c15.688-1.5 29.876-3.376 42.624-5.624V760.8c0-1.624-0.188-3.188-0.5-4.688-11.876 3.5-25.812 6.75-42.124 9.53v94.124z" fill="#434A54" /><path d="M511.546 789.328c-79.716 0-145.73-6.5-196.182-19.312-38.592-9.81-54.264-19.966-57.014-21.904l24.594-34.874s-0.11-0.094-0.328-0.218c0.14 0.094 13.342 8.5 48.03 16.81 32.03 7.688 89.404 16.844 180.902 16.844 91.512 0 148.886-9.156 180.886-16.844 34.688-8.31 47.872-16.716 48.058-16.81a1.414 1.414 0 0 0-0.344 0.218l24.594 34.874c-6 4.218-63.934 41.216-253.196 41.216z" fill="#DA4453" /><path d="M149.336 607.99c0 35.374-28.656 63.998-63.998 63.998s-64-28.624-64-63.998c0-35.344 28.656-63.998 64-63.998s63.998 28.654 63.998 63.998z" fill="#FFCE54" /><path d="M85.338 693.332c-47.046 0-85.326-38.282-85.326-85.342 0-47.032 38.28-85.31 85.326-85.31 47.062 0 85.342 38.28 85.342 85.31 0 47.06-38.28 85.342-85.342 85.342z m0-127.998c-23.516 0-42.656 19.156-42.656 42.656 0 23.53 19.14 42.686 42.656 42.686 23.53 0 42.67-19.156 42.67-42.686 0.002-23.5-19.138-42.656-42.67-42.656z" fill="#F6BB42" /><path d="M256.006 330.682m-63.998 0a63.998 63.998 0 1 0 127.996 0 63.998 63.998 0 1 0-127.996 0Z" fill="#FFCE54" /><path d="M256.006 415.994c-47.046 0-85.326-38.248-85.326-85.31 0-47.06 38.28-85.342 85.326-85.342 47.044 0 85.326 38.282 85.326 85.342 0 47.062-38.28 85.31-85.326 85.31z m0-127.996c-23.532 0-42.67 19.156-42.67 42.686 0 23.532 19.14 42.656 42.67 42.656s42.67-19.124 42.67-42.656-19.138-42.686-42.67-42.686z" fill="#F6BB42" /><path d="M512 245.34m-63.998 0a63.998 63.998 0 1 0 127.996 0 63.998 63.998 0 1 0-127.996 0Z" fill="#FFCE54" /><path d="M512 330.682c-47.046 0-85.326-38.28-85.326-85.342C426.674 198.28 464.954 160 512 160c47.062 0 85.308 38.28 85.308 85.34 0 47.064-38.246 85.342-85.308 85.342z m0-127.996c-23.53 0-42.67 19.124-42.67 42.654 0 23.532 19.14 42.656 42.67 42.656 23.532 0 42.688-19.124 42.688-42.656 0-23.53-19.156-42.654-42.688-42.654z" fill="#F6BB42" /><path d="M1002.676 629.332c0 35.344-28.688 64-64 64-35.376 0-63.996-28.656-63.996-64 0-35.342 28.622-63.998 63.996-63.998 35.312 0 64 28.656 64 63.998z" fill="#FFCE54" /><path d="M938.676 714.676c-47.062 0-85.372-38.282-85.372-85.344 0-47.06 38.308-85.34 85.372-85.34 47.032 0 85.312 38.28 85.312 85.34 0 47.062-38.28 85.344-85.312 85.344z m0-127.998c-23.562 0-42.688 19.124-42.688 42.654 0 23.532 19.124 42.656 42.688 42.656 23.5 0 42.624-19.124 42.624-42.656 0-23.53-19.124-42.654-42.624-42.654z" fill="#F6BB42" /><path d="M575.558 468.68c0 35.342-28.684 64-64.012 64-35.342 0-63.998-28.658-63.998-64s28.656-64 63.998-64c35.33 0 64.012 28.656 64.012 64z" fill="#FFCE54" /><path d="M511.546 553.992c-47.062 0-85.342-38.25-85.342-85.312s38.28-85.342 85.342-85.342c47.046 0 85.324 38.28 85.324 85.342 0.002 47.062-38.276 85.312-85.324 85.312z m0-127.998c-23.53 0-42.67 19.156-42.67 42.686s19.14 42.656 42.67 42.656c23.516 0 42.64-19.124 42.64-42.656s-19.124-42.686-42.64-42.686z" fill="#F6BB42" /><path d="M703.994 565.334m-63.998 0a63.998 63.998 0 1 0 127.996 0 63.998 63.998 0 1 0-127.996 0Z" fill="#FFCE54" /><path d="M703.996 650.676c-47.062 0-85.312-38.28-85.312-85.342 0-47.06 38.25-85.342 85.312-85.342 47.058 0 85.308 38.282 85.308 85.342 0 47.062-38.25 85.342-85.308 85.342z m0-127.996c-23.532 0-42.688 19.124-42.688 42.654 0 23.532 19.156 42.656 42.688 42.656s42.684-19.124 42.684-42.656c0-23.53-19.152-42.654-42.684-42.654z" fill="#F6BB42" /><path d="M320.004 565.334m-63.998 0a63.998 63.998 0 1 0 127.996 0 63.998 63.998 0 1 0-127.996 0Z" fill="#FFCE54" /><path d="M320.004 650.676c-47.046 0-85.326-38.28-85.326-85.342 0-47.06 38.28-85.342 85.326-85.342s85.326 38.282 85.326 85.342c0.002 47.062-38.28 85.342-85.326 85.342z m0-127.996c-23.532 0-42.67 19.124-42.67 42.654 0 23.532 19.14 42.656 42.67 42.656s42.67-19.124 42.67-42.656c0.002-23.53-19.138-42.654-42.67-42.654z" fill="#F6BB42" /><path d="M874.68 351.996c0 35.374-28.688 63.998-64 63.998-35.376 0-64-28.624-64-63.998 0-35.342 28.624-63.998 64-63.998 35.312 0 64 28.654 64 63.998z" fill="#FFCE54" /><path d="M810.68 437.336c-47.062 0-85.372-38.282-85.372-85.342 0-47.03 38.308-85.31 85.372-85.31 47.032 0 85.308 38.28 85.308 85.31 0 47.062-38.278 85.342-85.308 85.342z m0-127.996c-23.562 0-42.688 19.156-42.688 42.656 0 23.532 19.124 42.686 42.688 42.686 23.5 0 42.624-19.156 42.624-42.686 0-23.5-19.124-42.656-42.624-42.656z" fill="#F6BB42" /><path d="M917.614 863.984c-4.188 0-8.376-1.218-11.938-3.656l-165.214-111.998a21.368 21.368 0 0 1-9.344-18.906c0.062-1.062 5.312-109.998-60.464-179.556-37.156-39.282-90.718-59.188-159.106-59.188-68.42 0-121.95 19.906-159.122 59.188-65.78 69.558-60.544 178.494-60.482 179.588a21.38 21.38 0 0 1-9.812 19.188L106.948 860.64a21.346 21.346 0 0 1-32.64-15.124c-0.422-3.094-10.296-77.718-10.296-219.746 0-41.78 12.078-88.434 34.952-134.872 22.624-45.936 55.28-90.624 94.452-129.184 42.25-41.624 90.014-74.716 141.996-98.342 57.436-26.124 117.42-39.374 178.308-39.374 68.214 0 132.59 13.188 191.246 39.186 52.59 23.282 99.558 56.28 139.59 98.06 35.812 37.374 65.308 81.498 85.278 127.622 19.124 44.094 29.218 89 29.218 129.81 0 150.402-19.968 226.372-20.812 229.528a21.376 21.376 0 0 1-13.188 14.468 21.592 21.592 0 0 1-7.438 1.312z m-143.654-144.496l129.058 87.496c5.718-34.156 13.406-97.152 13.406-188.308 0-74.496-39.372-161.808-102.684-227.9-36.188-37.75-78.562-67.562-126.058-88.592-53.188-23.562-111.718-35.5-173.964-35.5-105.138 0-208.26 44.53-290.368 125.404-71.966 70.874-116.668 160.436-116.668 233.682 0 84.782 3.656 145.558 6.532 180.214l135.918-86.872c0.328-34.376 7.452-129.78 72.06-198.278 45.546-48.344 109.59-72.842 190.354-72.842 80.762 0 144.792 24.5 190.356 72.842 64.84 68.75 71.778 164.624 72.058 198.654z" fill="#ED5564" /></svg>