<?xml version="1.0" standalone="no"?><!DOCTYPE svg PUBLIC "-//W3C//DTD SVG 1.1//EN" "http://www.w3.org/Graphics/SVG/1.1/DTD/svg11.dtd"><svg class="icon" width="128px" height="128.00px" viewBox="0 0 1024 1024" version="1.1" xmlns="http://www.w3.org/2000/svg"><path d="M512 0.018c-47.124 0-85.326 38.202-85.326 85.324 0 47.138 38.204 85.342 85.326 85.342s85.308-38.204 85.308-85.342C597.308 38.218 559.124 0.018 512 0.018zM512 853.3c-47.124 0-85.326 38.248-85.326 85.374 0 47.124 38.204 85.308 85.326 85.308s85.308-38.186 85.308-85.308c0-47.126-38.184-85.374-85.308-85.374zM210.306 295.648c21.844 0 43.688-8.344 60.342-25 33.326-33.31 33.326-87.342 0-120.668-16.654-16.67-38.498-25-60.342-25-21.828 0-43.67 8.33-60.342 25-33.31 33.326-33.31 87.358 0.016 120.668 16.656 16.656 38.498 25 60.326 25zM813.678 728.368c-47.124 0-85.31 38.186-85.31 85.31s38.188 85.372 85.31 85.372 85.34-38.248 85.34-85.372c0-47.126-38.218-85.31-85.34-85.31zM170.684 512.016c0-47.154-38.204-85.34-85.342-85.34-47.124 0-85.324 38.186-85.324 85.308 0 47.138 38.202 85.324 85.324 85.324 47.138 0 85.342-38.184 85.342-85.292zM938.672 426.676c-47.154 0-85.372 38.186-85.372 85.308 0 47.138 38.216 85.324 85.372 85.324 47.126 0 85.31-38.186 85.31-85.324 0-47.122-38.186-85.308-85.31-85.308zM210.306 728.368c-21.828 0-43.67 8.312-60.326 25-33.326 33.31-33.326 87.31-0.016 120.682 16.672 16.626 38.498 25 60.342 25s43.688-8.376 60.342-25c33.326-33.372 33.326-87.372 0-120.682-16.654-16.688-38.498-25-60.342-25zM813.678 295.648c21.842 0 43.686-8.344 60.34-25 33.344-33.31 33.344-87.342 0-120.668-16.654-16.67-38.498-25-60.34-25-21.812 0-43.686 8.33-60.312 25-33.34 33.326-33.34 87.358 0 120.668 16.626 16.656 38.5 25 60.312 25z" fill="#FECD57" /><path d="M533.326 85.342c0 11.782-9.546 21.344-21.326 21.344-11.782 0-21.328-9.562-21.328-21.344S500.218 64.016 512 64.016c11.78 0 21.326 9.544 21.326 21.326zM533.326 938.674c0 11.748-9.546 21.31-21.326 21.31-11.782 0-21.328-9.562-21.328-21.31 0-11.814 9.546-21.376 21.328-21.376 11.78 0 21.326 9.562 21.326 21.376zM225.4 195.212c8.328 8.344 8.328 21.844 0 30.188-8.344 8.312-21.844 8.312-30.172 0-8.326-8.344-8.326-21.844 0-30.188 8.328-8.312 21.828-8.312 30.172 0zM828.77 798.616c8.344 8.312 8.344 21.812 0 30.186-8.342 8.314-21.844 8.314-30.154 0-8.344-8.374-8.344-21.874 0-30.186 8.31-8.314 21.812-8.314 30.154 0zM85.342 490.672c11.782 0 21.344 9.562 21.344 21.312 0 11.812-9.562 21.344-21.344 21.344s-21.328-9.532-21.328-21.344c0-11.78 9.546-21.312 21.328-21.312zM938.672 490.672c11.752 0 21.314 9.532 21.314 21.312 0 11.812-9.562 21.344-21.314 21.344-11.81 0-21.374-9.532-21.374-21.344 0-11.75 9.564-21.312 21.374-21.312zM195.228 798.616c8.328-8.376 21.844-8.312 30.172 0s8.328 21.812 0 30.186c-8.344 8.314-21.844 8.314-30.172 0-8.326-8.374-8.326-21.874 0-30.186zM798.616 195.212c8.31-8.312 21.812-8.312 30.154 0a21.332 21.332 0 0 1 0 30.188c-8.342 8.344-21.844 8.344-30.154 0a21.332 21.332 0 0 1 0-30.188z" fill="#F5BA45" /><path d="M512 917.298c-108.262 0-210.056-42.124-286.6-118.684-76.56-76.558-118.714-178.37-118.714-286.63 0-108.246 42.154-210.024 118.714-286.584 76.542-76.56 178.338-118.714 286.6-118.714 108.246 0 210.054 42.154 286.616 118.714s118.684 178.338 118.684 286.584c0 108.262-42.124 210.072-118.684 286.63-76.562 76.562-178.37 118.684-286.616 118.684z" fill="#FFD2A6" /><path d="M512 85.342c-235.632 0-426.658 191.026-426.658 426.642 0 235.632 191.026 426.69 426.658 426.69 235.616 0 426.672-191.056 426.672-426.69 0-235.616-191.056-426.642-426.672-426.642z m271.522 698.148c-35.28 35.31-76.34 62.998-122.088 82.31-47.312 20.062-97.56 30.188-149.434 30.188-51.858 0-102.136-10.126-149.448-30.188-45.718-19.312-86.794-47-122.074-82.31-35.282-35.248-62.966-76.31-82.31-122.058-20.014-47.31-30.154-97.558-30.154-149.448 0-51.842 10.14-102.122 30.154-149.434 19.344-45.716 47.03-86.778 82.31-122.056 35.28-35.282 76.356-62.998 122.074-82.326C409.864 138.152 460.142 128.012 512 128.012c51.874 0 102.122 10.14 149.434 30.156 45.748 19.328 86.808 47.044 122.088 82.326 35.282 35.28 62.966 76.34 82.31 122.056 20.03 47.312 30.154 97.592 30.154 149.434 0 51.888-10.126 102.136-30.154 149.448-19.344 45.748-47.03 86.81-82.31 122.058z" fill="#F4BE8E" /><path d="M512 661.308c-82.342 0-149.322-67-149.322-149.324 0-82.31 66.98-149.308 149.322-149.308s149.306 66.998 149.306 149.308c0 82.324-66.964 149.324-149.306 149.324z" fill="#EC5564" /><path d="M512 341.334c-94.246 0-170.666 76.402-170.666 170.65 0 94.262 76.42 170.696 170.666 170.696s170.682-76.434 170.682-170.696c0-94.248-76.436-170.65-170.682-170.65z m0 298.662c-70.576 0-127.996-57.438-127.996-128.012 0-70.56 57.42-127.996 127.996-127.996 70.56 0 127.996 57.436 127.996 127.996 0 70.574-57.436 128.012-127.996 128.012z" fill="#D94452" /><path d="M533.326 512.016c0 11.782-9.546 21.312-21.326 21.312-11.782 0-21.328-9.532-21.328-21.312 0-11.812 9.546-21.344 21.328-21.344 11.78 0 21.326 9.532 21.326 21.344z"  /><path d="M533.326 234.682c0 11.78-9.546 21.31-21.326 21.31-11.782 0-21.328-9.532-21.328-21.31 0-11.782 9.546-21.344 21.328-21.344 11.78 0 21.326 9.562 21.326 21.344zM533.326 789.302c0 11.812-9.546 21.376-21.326 21.376-11.782 0-21.328-9.562-21.328-21.376 0-11.75 9.546-21.312 21.328-21.312 11.78 0 21.326 9.562 21.326 21.312z" fill="#EC5564" /><path d="M391.816 261.148c5.89 10.218 2.39 23.282-7.812 29.156-10.204 5.906-23.25 2.406-29.14-7.812-5.888-10.188-2.388-23.25 7.814-29.126 10.2-5.906 23.248-2.406 29.138 7.782zM669.12 741.49c5.906 10.19 2.406 23.252-7.812 29.126-10.188 5.938-23.25 2.438-29.124-7.81-5.876-10.188-2.376-23.25 7.812-29.126 10.186-5.876 23.248-2.376 29.124 7.81z" fill="#5E9CEA" /><path d="M282.492 354.866c10.204 5.876 13.702 18.936 7.812 29.124-5.89 10.218-18.938 13.718-29.14 7.812-10.204-5.876-13.702-18.938-7.812-29.126 5.89-10.218 18.938-13.718 29.14-7.81zM762.836 632.184c10.218 5.876 13.718 18.936 7.81 29.126-5.906 10.248-18.936 13.686-29.154 7.81-10.186-5.874-13.686-18.936-7.812-29.124 5.906-10.188 18.936-13.688 29.156-7.812z" fill="#EC5564" /><path d="M234.682 490.672c11.782 0 21.326 9.532 21.326 21.312 0 11.812-9.544 21.344-21.326 21.344s-21.344-9.562-21.344-21.344 9.562-21.312 21.344-21.312zM789.302 490.672c11.812 0 21.376 9.532 21.376 21.312s-9.562 21.344-21.376 21.344c-11.748 0-21.31-9.562-21.31-21.344s9.562-21.312 21.31-21.312z" fill="#5E9CEA" /><path d="M261.164 632.184c10.204-5.876 23.25-2.376 29.14 7.812 5.888 10.188 2.39 23.25-7.812 29.124-10.204 5.938-23.25 2.438-29.14-7.81-5.89-10.19-2.392-23.252 7.812-29.126zM741.492 354.866c10.218-5.906 23.248-2.406 29.154 7.81 5.908 10.188 2.408 23.25-7.81 29.126-10.22 5.906-23.25 2.406-29.156-7.812-5.874-10.19-2.374-23.25 7.812-29.124z" fill="#EC5564" /><path d="M354.864 741.49c5.89-10.186 18.938-13.686 29.14-7.81s13.704 18.938 7.812 29.126c-5.89 10.248-18.938 13.748-29.138 7.81-10.204-5.874-13.704-18.936-7.814-29.126zM632.184 261.148c5.874-10.188 18.936-13.688 29.124-7.782 10.218 5.876 13.718 18.938 7.812 29.126-5.876 10.218-18.938 13.718-29.124 7.812-10.188-5.906-13.688-18.936-7.812-29.156z" fill="#5E9CEA" /></svg>