<?xml version="1.0" standalone="no"?><!DOCTYPE svg PUBLIC "-//W3C//DTD SVG 1.1//EN" "http://www.w3.org/Graphics/SVG/1.1/DTD/svg11.dtd"><svg class="icon" width="128px" height="128.00px" viewBox="0 0 1024 1024" version="1.1" xmlns="http://www.w3.org/2000/svg"><path d="M341.32 170.672c-11.75 0-21.312-9.53-21.312-21.31v-85.34c0-11.782 9.562-21.344 21.312-21.344 11.812 0 21.374 9.562 21.374 21.344v85.34c0 11.78-9.562 21.31-21.374 21.31zM682.684 170.672c-11.812 0-21.376-9.53-21.376-21.31v-85.34c0-11.782 9.562-21.344 21.376-21.344 11.75 0 21.312 9.562 21.312 21.344v85.34c0 11.78-9.562 21.31-21.312 21.31z" fill="#CCD1D9" /><path d="M554.688 128.02c-5.5 0-10.938-2.094-15.124-6.25l-70.248-70.248-27.562 27.594c-4 4-9.438 6.25-15.062 6.25h-21.376c-11.75 0-21.31-9.562-21.31-21.342s9.562-21.344 21.31-21.344h12.5l36.436-36.404c8.312-8.344 21.842-8.344 30.186 0l70.248 70.248 27.562-27.594c4-4 9.438-6.25 15.062-6.25h21.372c11.75 0 21.312 9.562 21.312 21.344s-9.562 21.342-21.312 21.342h-12.5l-36.434 36.406a21.28 21.28 0 0 1-15.06 6.248z" fill="#FFCE54" /><path d="M703.996 554.658V490.66c0-11.78-9.562-21.31-21.312-21.31H341.32c-11.75 0-21.312 9.53-21.312 21.31v63.998c-11.782 0-21.312 9.562-21.312 21.344v341.328a21.3 21.3 0 0 0 21.312 21.312v21.344c0 35.282 28.716 63.998 63.998 63.998h255.99c35.312 0 64-28.716 64-63.998v-21.344a21.298 21.298 0 0 0 21.308-21.312V576.002c0-11.782-9.53-21.344-21.308-21.344z" fill="#434A54" /><path d="M341.32 810.646h-42.624v42.688h42.624c11.812 0 21.374-9.562 21.374-21.344s-9.562-21.344-21.374-21.344zM341.32 725.34h-42.624v42.654h42.624c11.812 0 21.374-9.562 21.374-21.344 0-11.778-9.562-21.31-21.374-21.31zM341.32 640h-42.624v42.654h42.624c11.812 0 21.374-9.532 21.374-21.312 0-11.81-9.562-21.342-21.374-21.342zM682.684 682.654h42.622V640h-42.622c-11.812 0-21.376 9.532-21.376 21.342 0 11.782 9.564 21.312 21.376 21.312zM682.684 767.994h42.622V725.34h-42.622c-11.812 0-21.376 9.532-21.376 21.31 0 11.782 9.564 21.344 21.376 21.344zM682.684 853.334h42.622v-42.688h-42.622c-11.812 0-21.376 9.562-21.376 21.344s9.564 21.344 21.376 21.344z" fill="#656D78" /><path d="M554.688 746.65c0 23.562-19.124 42.686-42.686 42.686s-42.686-19.124-42.686-42.686c0-23.56 19.124-42.654 42.686-42.654 23.56 0 42.686 19.094 42.686 42.654z" fill="#ED5564" /><path d="M512 810.646c-35.28 0-63.998-28.716-63.998-63.996S476.72 682.654 512 682.654c35.312 0 64 28.716 64 63.996s-28.688 63.996-64 63.996z m0-85.306c-11.75 0-21.312 9.562-21.312 21.31 0 11.782 9.562 21.344 21.312 21.344 11.75 0 21.312-9.562 21.312-21.344 0-11.748-9.562-21.31-21.312-21.31z" fill="#DA4453" /><path d="M746.68 128.02h-63.996a21.352 21.352 0 0 0-21.188 18.624c-0.062 0.376-5.188 38.966-26.938 77.558-27.876 49.404-69.122 74.466-122.558 74.466-53.06 0-94.09-24.688-121.964-73.436-22.03-38.56-27.466-78.246-27.53-78.59a21.352 21.352 0 0 0-21.186-18.624h-63.998c-11.75 0-21.312 9.532-21.312 21.342v255.99c0 4.594 1.5 9.094 4.25 12.782l63.998 85.34a21.4 21.4 0 0 0 17.062 8.532h341.364c6.688 0 13-3.156 17.062-8.532l63.992-85.34a21.432 21.432 0 0 0 4.25-12.782V149.362c0-11.812-9.562-21.342-21.308-21.342z" fill="#656D78" /><path d="M616.372 425.788H404.816c-11.75 0-21.31-9.562-21.31-21.342s9.562-21.342 21.31-21.342h211.554c11.782 0 21.344 9.562 21.344 21.342s-9.562 21.342-21.342 21.342z" fill="#434A54" /></svg>