<?xml version="1.0" standalone="no"?><!DOCTYPE svg PUBLIC "-//W3C//DTD SVG 1.1//EN" "http://www.w3.org/Graphics/SVG/1.1/DTD/svg11.dtd"><svg class="icon" width="128px" height="128.00px" viewBox="0 0 1024 1024" version="1.1" xmlns="http://www.w3.org/2000/svg"><path d="M767.992 0c-11.75 0-21.312 9.546-21.312 21.328 0 62.688-24.376 121.624-68.75 165.938C633.618 231.594 574.68 256 512.008 256c-62.688 0-121.594-24.406-165.938-68.734C301.758 142.954 277.352 84 277.352 21.328 277.352 9.546 267.79 0 256.008 0s-21.312 9.546-21.312 21.328c0 153.172 124.156 277.344 277.312 277.344 153.172 0 277.36-124.172 277.36-277.344C789.368 9.546 779.804 0 767.992 0z" fill="#E9573F" /><path d="M512.008 256c-212.062 0-384 171.922-384 384 0 212.062 171.938 384 384 384 212.11 0 383.984-171.938 383.984-384 0-212.078-171.874-384-383.984-384z m241.36 625.376c-31.376 31.344-67.876 55.938-108.5 73.124-42.062 17.812-86.75 26.812-132.86 26.812-46.094 0-90.782-9-132.844-26.812-40.624-17.188-77.156-41.782-108.5-73.124-31.376-31.376-56-67.876-73.188-108.532-17.78-42.032-26.78-86.75-26.78-132.844 0-46.124 9-90.812 26.782-132.86 17.188-40.624 41.812-77.14 73.188-108.5 31.344-31.36 67.876-55.984 108.5-73.172 42.062-17.782 86.75-26.796 132.844-26.796 46.11 0 90.796 9.016 132.86 26.796 40.624 17.188 77.124 41.812 108.5 73.172s56 67.876 73.188 108.5c17.75 42.046 26.812 86.734 26.812 132.86 0 46.094-9.062 90.812-26.812 132.844-17.19 40.656-41.816 77.156-73.19 108.532z" fill="#FC6E51" /></svg>