<?xml version="1.0" standalone="no"?><!DOCTYPE svg PUBLIC "-//W3C//DTD SVG 1.1//EN" "http://www.w3.org/Graphics/SVG/1.1/DTD/svg11.dtd"><svg class="icon" width="128px" height="128.00px" viewBox="0 0 1024 1024" version="1.1" xmlns="http://www.w3.org/2000/svg"><path d="M964.246 328.528c0.124-0.124 9-12.218 13.094-28.656 4.906-19.656 0.968-36.374-12.032-51.062-22.782-25.78-30.032-57.404-21-91.436 6.376-23.906 18.624-40.466 20-42.28l0.032 0.032c3.906-5.124 10.032-8.438 16.968-8.438A21.3 21.3 0 0 1 1002.62 128c0 4.842-1.594 9.25-4.282 12.842h0.032c-0.124 0.124-9 12.186-13.094 28.624-4.906 19.688-0.968 36.376 12.032 51.092 22.75 25.75 30.032 57.374 20.968 91.434-6.344 23.876-18.594 40.468-20 42.25h-0.032a21.166 21.166 0 0 1-16.938 8.438c-11.782 0-21.312-9.562-21.312-21.344 0-4.812 1.594-9.25 4.282-12.812h-0.03z" fill="#E6E9ED" /><path d="M341.324 810.688c-23.468 0-52.562 16.438-64.624 36.56l-20.094 33.5c-12.094 20.124-2.75 36.562 20.718 36.562h469.3c23.498 0 32.81-16.438 20.748-36.562l-20.124-33.5c-12.062-20.124-41.124-36.56-64.624-36.56h-341.3z" fill="#A0D468" /><path d="M640.004 895.998c11.75 0 21.312 9.562 21.312 21.312h-42.688c0-11.75 9.564-21.312 21.376-21.312zM554.632 895.998c11.81 0 21.374 9.562 21.374 21.312H533.32c0-11.75 9.562-21.312 21.312-21.312zM469.322 895.998c11.78 0 21.312 9.562 21.312 21.312h-42.624c-0.002-11.75 9.53-21.312 21.312-21.312zM384.01 895.998c11.75 0 21.312 9.562 21.312 21.312h-42.686c0-11.75 9.562-21.312 21.374-21.312zM533.32 213.342c0 11.782-9.562 21.342-21.312 21.342-11.812 0-21.376-9.562-21.376-21.342S500.194 192 512.008 192c11.75 0 21.312 9.562 21.312 21.342z" fill="#8CC153" /><path d="M18.27 433.994c90.06-110.78 201.246 0 201.246 0l-3.876 92.904s-94.06-98.53-125.528-36.218c-31.468 62.326 125.528 146.636 125.528 146.636l3.876 88.124c-0.002 0-294.558-176.81-201.246-291.446zM813.218 691.754c4 4.374 9.656 6.874 15.594 6.936h1.282c80.498 0 139.684-48.31 171.152-139.746 22.468-65.294 22.75-129.574 22.75-132.262 0-11.032-8.406-20.218-19.376-21.25-0.624-0.062-16-1.468-29.468-1.468-10.062 0-16.844 0.75-21.968 2.5-8.812 2.938-13.562 9.5-26.31 27.032-10.25 14.156-24.312 33.5-39.498 48.936-19.876 20.156-31.312 23.156-36.376 23.156a11.7 11.7 0 0 1-3.5-0.532c-6.218-2.032-13-1.062-18.438 2.562s-8.876 9.532-9.406 16.032l-12 151.98a21.26 21.26 0 0 0 5.562 16.124z" fill="#CCD1D9" /><path d="M277.326 343.028v-44.342h469.3v44.342C797.562 372.652 832 427.838 832 490.68v192.012c0 93.874-76.81 170.62-170.684 170.62h-298.68c-93.842 0-170.622-76.746-170.622-170.62V490.68c0.002-62.842 34.376-118.028 85.312-147.652z" fill="#E6E9ED" /><path d="M789.312 682.692V490.68c0-62.842-34.436-118.028-85.308-147.652v-44.342h42.624v44.342C797.562 372.652 832 427.838 832 490.68v192.012c0 93.874-76.81 170.62-170.684 170.62h-42.688c93.876-0.002 170.684-76.748 170.684-170.62z" fill="#FFFFFF" opacity=".3" /><path d="M277.326 343.028h469.3s-11.032-129.684-233.682-129.684c-222.682-0.002-235.618 129.684-235.618 129.684z" fill="#A0D468" /><path d="M262.232 304.934a21.296 21.296 0 0 1 15.094-6.25h469.3c5.5 0 10.938 2.094 15.124 6.25 8.31 8.312 8.31 21.842 0 30.156a21.288 21.288 0 0 1-15.124 6.25h-469.3a21.216 21.216 0 0 1-15.094-6.25c-8.344-8.312-8.344-21.844 0-30.156z" fill="#8CC153" /></svg>