<?xml version="1.0" standalone="no"?><!DOCTYPE svg PUBLIC "-//W3C//DTD SVG 1.1//EN" "http://www.w3.org/Graphics/SVG/1.1/DTD/svg11.dtd"><svg class="icon" width="128px" height="128.00px" viewBox="0 0 1024 1024" version="1.1" xmlns="http://www.w3.org/2000/svg"><path d="M181.345292 320.00275h122.277522v85.325667h-79.623689v383.9765c0 23.527908-19.123925 42.683833-42.653833 42.683833-23.531908 0-42.655833-19.155925-42.655834-42.683833V362.660583c0-23.515908 19.123925-42.657833 42.655834-42.657833z" fill="#434A54" /><path d="M799.998875 298.660833l85.311667 42.655834L799.998875 511.984v490.658083c0 11.781954-9.561963 21.343917-21.311917 21.343917H309.340792c-11.781954 0-21.343917-9.561963-21.343917-21.343917v-746.637083L799.998875 298.660833z" fill="#E6E9ED" /><path d="M287.996875 597.309667H799.998875V981.296167H287.996875z" fill="#965353" /><path d="M714.691208 959.98825c0 11.777954 9.499963 21.307917 21.309917 21.307917 11.749954 0 21.311917-9.531963 21.311917-21.307917 0-11.781954-9.561963-21.343917-21.311917-21.343917-11.809954 0-21.309917 9.561963-21.309917 21.343917zM650.691458 959.98825c0 11.777954 9.499963 21.307917 21.311917 21.307917 11.749954 0 21.311917-9.531963 21.311917-21.307917 0-11.781954-9.561963-21.343917-21.311917-21.343917-11.811954 0-21.311917 9.561963-21.311917 21.343917zM586.693708 959.98825c0 11.777954 9.499963 21.307917 21.309917 21.307917 11.749954 0 21.311917-9.531963 21.311917-21.307917 0-11.781954-9.561963-21.343917-21.311917-21.343917-11.809954 0-21.309917 9.561963-21.309917 21.343917zM522.679958 959.98825a21.297917 21.297917 0 0 0 21.311917 21.307917c11.765954 0 21.325917-9.531963 21.325917-21.307917 0-11.781954-9.559963-21.343917-21.325917-21.343917-11.781954 0-21.311917 9.561963-21.311917 21.343917zM458.680208 959.98825c0 11.777954 9.531963 21.307917 21.311917 21.307917s21.343917-9.531963 21.343917-21.307917c0-11.781954-9.561963-21.343917-21.343917-21.343917s-21.311917 9.561963-21.311917 21.343917zM394.682458 959.98825c0 11.777954 9.531963 21.307917 21.311917 21.307917s21.343917-9.531963 21.343917-21.307917c0-11.781954-9.561963-21.343917-21.343917-21.343917s-21.311917 9.561963-21.311917 21.343917zM330.684708 959.98825a21.297917 21.297917 0 0 0 21.311917 21.307917c11.779954 0 21.341917-9.531963 21.341917-21.307917 0-11.781954-9.561963-21.343917-21.341917-21.343917-11.781954 0-21.311917 9.561963-21.311917 21.343917z" fill="#434A54" /><path d="M330.684708 959.98825a21.297917 21.297917 0 0 0 21.311917 21.307917c11.779954 0 21.341917-9.531963 21.341917-21.307917 0-11.781954-9.561963-21.343917-21.341917-21.343917-11.781954 0-21.311917 9.561963-21.311917 21.343917z" fill="#434A54" /><path d="M309.340792 831.98875c0 11.781954 9.561963 21.311917 21.343916 21.311917s21.311917-9.531963 21.311917-21.311917-9.531963-21.343917-21.311917-21.343917-21.343917 9.561963-21.343916 21.343917zM330.684708 746.649083c0 11.781954 9.531963 21.343917 21.311917 21.343917 11.779954 0 21.341917-9.561963 21.341917-21.343917s-9.561963-21.343917-21.341917-21.343916c-11.781954 0-21.311917 9.563963-21.311917 21.343916z" fill="#A85D5D" /><path d="M522.679958 49.339807h42.637834v867.96061H522.679958z" fill="#CCD1D9" /><path d="M309.340792 917.300417c0-11.749954 9.561963-21.311917 21.343916-21.311917h426.628334c11.809954 0 21.373917 9.561963 21.373916 21.311917 0 11.811954-9.561963 21.343917-21.373916 21.343916H330.684708c-11.781954 0-21.343917-9.529963-21.343916-21.343916z" fill="#AAB2BC" /><path d="M501.336042 42.667833c0 23.561908 19.093925 42.669833 42.655833 42.669834 23.575908 0 42.701833-19.107925 42.701833-42.669834S567.569783 0.012 543.991875 0.012c-23.561908 0-42.655833 19.093925-42.655833 42.655833z" fill="#434A54" /><path d="M287.996875 256.005v-0.016c0.311999-0.453998 35.74986-85.325667 256.011-85.325667 220.24314 0 255.679001 84.873668 255.991 85.325667v42.669833H287.996875v-42.653833z" fill="#ED5564" /><path d="M799.998875 298.660833v-42.669833c-0.311999-0.453998-35.74786-85.325667-255.991-85.325667-7.327971 0-14.421944 0.11-21.327917 0.281999 201.199214 5.281979 234.383084 84.60767 234.633084 85.043668v42.669833l85.373666 42.655834-85.373666 170.667333v490.658083c0 11.781954-9.561963 21.343917-21.311917 21.343917h42.685833c11.749954 0 21.311917-9.561963 21.311917-21.343917v-490.658083l85.311667-170.667333L799.998875 298.660833z" fill="#FFFFFF" opacity=".2" /></svg>