<?xml version="1.0" standalone="no"?><!DOCTYPE svg PUBLIC "-//W3C//DTD SVG 1.1//EN" "http://www.w3.org/Graphics/SVG/1.1/DTD/svg11.dtd"><svg class="icon" width="128px" height="128.00px" viewBox="0 0 1024 1024" version="1.1" xmlns="http://www.w3.org/2000/svg"><path d="M320.006 0.018c-70.686 0-127.996 57.31-127.996 127.996 0 70.684 57.31 127.994 127.996 127.994s127.996-57.31 127.996-127.994c0-70.686-57.31-127.996-127.996-127.996zM703.994 0.018c-70.686 0-127.996 57.31-127.996 127.996 0 70.684 57.31 127.994 127.996 127.994 70.684 0 127.996-57.31 127.996-127.994 0-70.686-57.312-127.996-127.996-127.996z" fill="#7F4545" /><path d="M320.006 128.014m-63.998 0a63.998 63.998 0 1 0 127.996 0 63.998 63.998 0 1 0-127.996 0Z" fill="#F4BE8E" /><path d="M703.994 128.014m-63.998 0a63.998 63.998 0 1 0 127.996 0 63.998 63.998 0 1 0-127.996 0Z" fill="#F4BE8E" /><path d="M768.274 298.664c0 141.462-114.684 256.146-256.148 256.146-141.464 0-256.116-114.684-256.116-256.146 0-141.434 114.652-256.118 256.116-256.118s256.148 114.684 256.148 256.118z" fill="#965353" /><path d="M510.75 320.006c-58.81 0-106.652 47.842-106.652 106.652s47.842 106.686 106.652 106.686 106.654-47.876 106.654-106.686-47.844-106.652-106.654-106.652z" fill="#F4BE8E" /><path d="M645.308 394.66c-52.216 0-99.436 21.468-133.308 56.06-33.874-34.592-81.09-56.06-133.338-56.06-103.09 0-186.65 83.592-186.65 186.68C192.01 794.646 512 981.328 512 981.328s319.99-186.682 319.99-399.988c0-103.088-83.592-186.68-186.682-186.68z" fill="#ED5564" /><path d="M320.006 597.372c0 70.748-43 128.058-95.998 128.058-53.03 0-95.996-57.31-95.996-128.058 0-70.714 42.966-128.026 95.996-128.026 53 0 95.998 57.31 95.998 128.026zM895.986 597.372c0 70.748-42.996 128.058-95.996 128.058-53.03 0-95.996-57.31-95.996-128.058 0-70.714 42.966-128.026 95.996-128.026 53 0 95.996 57.31 95.996 128.026z" fill="#A85D5D" /><path d="M682.65 981.328c-21.532 0-42.154-10.25-58.122-28.844-17.532-20.5-27.218-48.124-27.218-77.84 0-29.688 9.688-57.344 27.218-77.81 15.966-18.594 36.59-28.842 58.122-28.842s42.188 10.248 58.124 28.842c17.532 20.466 27.218 48.124 27.218 77.81 0 29.716-9.688 57.34-27.218 77.84-15.936 18.594-36.592 28.844-58.124 28.844z" fill="#F4BE8E" /><path d="M682.65 725.336c-70.684 0-127.996 66.842-127.996 149.308 0 82.464 57.312 149.338 127.996 149.338 70.686 0 127.996-66.874 127.996-149.338 0-82.466-57.31-149.308-127.996-149.308z m25.72 199.368c-5.438 6.376-14.344 13.938-25.718 13.938s-20.282-7.562-25.718-13.938c-10.78-12.56-16.936-30.81-16.936-50.058 0-19.25 6.156-37.468 16.936-50.062 5.438-6.344 14.344-13.938 25.718-13.938s20.282 7.594 25.718 13.938c10.782 12.594 16.938 30.812 16.938 50.062-0.002 19.246-6.158 37.496-16.938 50.058z" fill="#A85D5D" /><path d="M341.318 981.328c-21.53 0-42.154-10.25-58.092-28.844-17.562-20.5-27.218-48.124-27.218-77.84 0-29.688 9.656-57.344 27.218-77.81 15.938-18.594 36.562-28.842 58.092-28.842 21.562 0 42.186 10.248 58.124 28.842 17.562 20.466 27.218 48.124 27.218 77.81 0 29.716-9.656 57.34-27.218 77.84-15.938 18.594-36.562 28.844-58.124 28.844z" fill="#F4BE8E" /><path d="M341.318 725.336c-70.684 0-127.996 66.842-127.996 149.308 0 82.464 57.31 149.338 127.996 149.338 70.716 0 127.996-66.874 127.996-149.338 0-82.466-57.278-149.308-127.996-149.308z m25.718 199.368c-5.436 6.376-14.312 13.938-25.718 13.938-11.374 0-20.25-7.562-25.718-13.938-10.75-12.56-16.936-30.81-16.936-50.058 0-19.25 6.188-37.468 16.936-50.062 5.468-6.344 14.344-13.938 25.718-13.938 11.406 0 20.282 7.594 25.718 13.938 10.782 12.594 16.968 30.812 16.968 50.062 0 19.246-6.186 37.496-16.968 50.058z" fill="#A85D5D" /><path d="M277.32 597.402c11.782 0 21.344 9.532 21.344 21.312s-9.562 21.344-21.344 21.344c-11.78 0-21.312-9.562-21.312-21.344s9.532-21.312 21.312-21.312z" fill="#965353" /><path d="M277.32 554.874c11.782 0 21.344 9.562 21.344 21.312 0 11.81-9.562 21.342-21.344 21.342-11.78 0-21.312-9.562-21.312-21.342 0-11.75 9.532-21.312 21.312-21.312zM746.648 597.34c11.782 0 21.344 9.532 21.344 21.312s-9.562 21.344-21.344 21.344c-11.78 0-21.342-9.562-21.342-21.344s9.564-21.312 21.342-21.312z" fill="#965353" /><path d="M746.648 554.81c11.782 0 21.344 9.532 21.344 21.312 0 11.78-9.562 21.342-21.344 21.342-11.78 0-21.342-9.562-21.342-21.342s9.564-21.312 21.342-21.312z" fill="#965353" /><path d="M575.998 213.354c11.782 0 21.312 9.532 21.312 21.312s-9.532 21.342-21.312 21.342-21.344-9.56-21.344-21.342 9.562-21.312 21.344-21.312zM448.002 213.354c11.78 0 21.312 9.532 21.312 21.312s-9.532 21.342-21.312 21.342c-11.782 0-21.344-9.56-21.344-21.342s9.564-21.312 21.344-21.312zM512 362.662c11.782 0 21.312 9.56 21.312 21.342S523.78 405.348 512 405.348c-11.78 0-21.342-9.562-21.342-21.344s9.562-21.342 21.342-21.342z" fill="#434A54" /></svg>