<?xml version="1.0" standalone="no"?><!DOCTYPE svg PUBLIC "-//W3C//DTD SVG 1.1//EN" "http://www.w3.org/Graphics/SVG/1.1/DTD/svg11.dtd"><svg class="icon" width="128px" height="128.00px" viewBox="0 0 1024 1024" version="1.1" xmlns="http://www.w3.org/2000/svg"><path d="M134.888 504.1L14.202 547.006c-11.094 3.938-16.906 16.124-12.968 27.248s16.124 16.938 27.25 13l120.656-42.936-14.252-40.218z" fill="#434A54" /><path d="M170.544 604.628c-22.218 7.876-46.594-3.75-54.468-25.938l-28.532-80.436c-7.876-22.218 3.75-46.624 25.968-54.5l321.714-114.03c22.218-7.876 46.594 3.75 54.468 25.968l28.532 80.436c7.876 22.188-3.75 46.562-25.968 54.436L170.544 604.628z" fill="#AAB2BD" /><path d="M512.01 534.944v389.306c0 1.844 0.218 3.718 0.75 5.594 3.094 11.376 14.812 18.094 26.156 14.968 9.5-2.562 15.75-11.188 15.75-20.562V534.944h-42.656z" fill="#434A54" /><path d="M765.1 913.594L553.76 547.444l-36.968 21.342 211.402 366.122a21.298 21.298 0 0 0 3.438 4.468c8.344 8.312 21.876 8.25 30.156-0.094 6.936-6.97 8.03-17.532 3.312-25.688z" fill="#656D78" /><path d="M512.916 547.444L301.542 913.594c-4.718 8.156-3.624 18.718 3.312 25.688 8.312 8.344 21.812 8.406 30.154 0.094a22.074 22.074 0 0 0 3.468-4.438l211.376-366.152-36.936-21.342z" fill="#656D78" /><path d="M546.728 516.568c-22.218 7.876-46.594-3.75-54.468-26l-57.032-160.842c-7.876-22.218 3.75-46.592 25.968-54.468l313.934-111.374c22.218-7.876 46.594 3.75 54.468 25.938l57.032 160.874c7.876 22.218-3.75 46.624-25.968 54.468l-313.934 111.404z" fill="#CCD1D9" /><path d="M617.914 534.662c-2.594-9.5-11.188-15.718-20.594-15.718h-127.998c-1.844 0-3.718 0.218-5.594 0.75-11.376 3.062-18.094 14.812-15 26.156 2.594 9.5 11.218 15.748 20.594 15.748l127.998-0.032c1.844 0 3.718-0.218 5.594-0.718 11.376-3.094 18.094-14.81 15-26.186z" fill="#434A54" /><path d="M915.13 431.132c-22.218 7.876-46.594-3.75-54.468-25.968l-85.532-241.28c-7.876-22.218 3.75-46.624 25.968-54.5l80.406-28.5c22.218-7.876 46.594 3.75 54.468 25.968l85.56 241.278c7.874 22.218-3.75 46.624-25.968 54.5l-80.434 28.502z" fill="#E6E9ED" /></svg>