<?xml version="1.0" standalone="no"?><!DOCTYPE svg PUBLIC "-//W3C//DTD SVG 1.1//EN" "http://www.w3.org/Graphics/SVG/1.1/DTD/svg11.dtd"><svg class="icon" width="128px" height="128.00px" viewBox="0 0 1024 1024" version="1.1" xmlns="http://www.w3.org/2000/svg"><path d="M548.156 80.426l30.152-30.17L931.072 403.02l-30.154 30.17zM646.18 57.788l30.188-30.17 277.328 277.36-30.154 30.17zM487.814 140.752l30.154-30.17L870.73 463.36l-30.152 30.17zM784.956 558.59L422.754 196.374l30.156-30.17 362.2 362.216zM367.132 261.434l30.156-30.172 352.794 352.796-30.188 30.154zM616.684 631.648L352.478 367.458l30.186-30.17 264.172 264.206z" fill="#E6E9ED" /><path d="M380.946 449.532l-30.156-30.17 394.542-394.54 30.154 30.17zM401.694 549.466l-30.154-30.17 455.82-455.82 30.154 30.17zM462.034 609.806l-30.154-30.154L887.7 123.816l30.156 30.17zM547.032 645.46l-30.156-30.154 409.478-409.478 30.154 30.17z" fill="#E6E9ED" /><path d="M769.05 980.256c-28.188-28.216-43.718-65.714-43.718-105.588 0-39.904 15.532-77.402 43.718-105.62 58.214-58.216 152.958-58.216 211.176 0 28.216 28.216 43.746 65.714 43.746 105.62 0 39.874-15.53 77.372-43.746 105.556-28.188 28.216-65.684 43.748-105.59 43.748-39.87 0-77.37-15.53-105.586-43.716z" fill="#A0D468" /><path d="M1000.444 794.11l-80.556 80.558c-6.032 6.032-14.062 9.344-22.624 9.344a31.862 31.862 0 0 1-22.624-9.344v-0.032a31.788 31.788 0 0 1-9.374-22.624c0-8.53 3.342-16.56 9.374-22.624l80.528-80.494a147.962 147.962 0 0 0-41.902-18.438l-68.778 68.778c-14.094 14.094-21.876 32.842-21.876 52.778 0 19.968 7.782 38.718 21.876 52.81 14.092 14.092 32.84 21.874 52.778 21.874 19.968 0 38.716-7.782 52.808-21.874l68.872-68.872a148.524 148.524 0 0 0-18.502-41.84z" fill="#E6E9ED" /><path d="M905.542 75.802C788.892-40.832 579.558-20.568 437.94 121.05c-116.212 116.182-147.804 256.612-118.118 395.684 12.03 56.324-37.842 122.446-48.28 132.726C241.17 679.428 0.028 920.976 0.028 920.976l30.154 30.156 30.186 30.186S301.918 740.176 331.884 709.8c10.282-10.438 76.402-60.308 132.712-48.278 139.056 29.654 279.486-1.906 395.698-118.12 141.618-141.616 161.866-350.982 45.248-467.6z m-294.608 523.38c-68.934 6.688-130.37-13.124-172.992-55.778h-0.032c-42.622-42.64-62.434-104.074-55.748-173.008 7.124-73.59 42.998-146.07 101.026-204.098 58.03-58.028 130.494-93.902 204.084-101.026 68.934-6.672 130.368 13.138 173.022 55.778 42.624 42.638 62.434 104.088 55.748 173.022-7.094 73.574-43 146.054-101.028 204.084-57.994 58.028-130.49 93.902-204.08 101.026z" fill="#FFD2A6" /><path d="M271.542 649.452l60.34 60.34L60.368 981.306l-60.34-60.34z" fill="#656D78" /><path d="M30.182 890.824l60.34 60.308 30.186-30.156-60.34-60.34zM90.522 830.482l60.342 60.31 30.184-30.156-60.34-60.34zM150.864 770.14l60.34 60.342 30.154-30.186-60.31-60.338zM241.39 679.616L211.204 709.8l60.34 60.34 30.156-30.182z" fill="#434A54" /><path d="M905.542 75.802a286.7 286.7 0 0 0-7.718-7.374c108.306 117.962 85.934 321.342-52.622 459.898-116.184 116.198-256.614 147.79-395.668 118.104-56.34-12.032-122.432 37.842-132.744 48.28-29.964 30.372-271.514 271.516-271.514 271.516L15.12 936.07l15.062 15.062 30.186 30.186S301.918 740.176 331.884 709.8c10.282-10.438 76.402-60.308 132.712-48.278 139.056 29.654 279.486-1.906 395.698-118.12 141.618-141.616 161.866-350.982 45.248-467.6zM980.226 769.048c-31.812-31.81-74.528-46.248-116.244-43.28 34.624 2.468 68.528 16.906 94.932 43.28 28.188 28.216 43.716 65.714 43.716 105.62 0 39.874-15.53 77.372-43.716 105.556-25.686 25.686-59.058 40.874-94.932 43.374 3.53 0.25 7.092 0.376 10.654 0.376 39.906 0 77.402-15.532 105.59-43.748 28.216-28.186 43.746-65.684 43.746-105.556 0-39.906-15.528-77.404-43.746-105.622z" fill="#FFFFFF" opacity=".2" /></svg>