<?xml version="1.0" standalone="no"?><!DOCTYPE svg PUBLIC "-//W3C//DTD SVG 1.1//EN" "http://www.w3.org/Graphics/SVG/1.1/DTD/svg11.dtd"><svg class="icon" width="128px" height="128.00px" viewBox="0 0 1024 1024" version="1.1" xmlns="http://www.w3.org/2000/svg"><path d="M511.996 480.126c-11.782 0-21.328-9.546-21.328-21.328V96.03c0-11.782 9.546-21.328 21.328-21.328s21.328 9.546 21.328 21.328v362.768c0 11.782-9.546 21.328-21.328 21.328z" fill="#434A54" /><path d="M198.508 331.708c-11.218-3.594-23.218 2.594-26.812 13.812L1.03 878.8c-3.578 11.25 2.594 23.25 13.828 26.812a21.42 21.42 0 0 0 6.5 1.062c9.03 0 17.404-5.812 20.31-14.876l170.668-533.28c3.578-11.216-2.594-23.216-13.828-26.81zM1022.978 878.8l-170.684-533.28c-3.592-11.218-15.592-17.406-26.81-13.812-11.248 3.594-17.404 15.594-13.81 26.812l170.65 533.28a21.374 21.374 0 0 0 20.31 14.876 21.48 21.48 0 0 0 6.5-1.062c11.22-3.564 17.408-15.564 13.844-26.814z" fill="#434A54" /><path d="M843.796 334.272L523.824 120.95a21.298 21.298 0 0 0-23.656 0L180.18 334.272a21.33 21.33 0 0 0-9.5 17.75v533.28c0 11.812 9.546 21.376 21.328 21.376h639.976c11.782 0 21.31-9.562 21.31-21.376v-533.28c0-7.126-3.562-13.798-9.498-17.75z" fill="#AC92EB" /><path d="M341.33 468.922h348.036v437.752H341.33z" fill="#434A54" /><path d="M523.824 120.95a21.298 21.298 0 0 0-23.656 0l-9.5 6.328v331.52c0 11.782 9.546 21.328 21.328 21.328s21.328-9.546 21.328-21.328V127.278l-9.5-6.328z" fill="#967ADC" /><path d="M170.68 437.47h682.616v42.656H170.68zM853.294 650.684h-149.304a21.278 21.278 0 0 0-21.312 21.312c0 11.75 9.532 21.312 21.312 21.312h149.304v-42.624z" fill="#967ADC" /><path d="M511.996 458.798h-191.994v360.752c195.712-202.992 191.994-360.752 191.994-360.752z" fill="#E6E9ED" /><path d="M512.012 458.798s-3.718 157.76 191.978 360.752l10.686 17.624 10.624-378.378H512.012z" fill="#E6E9ED" /><path d="M170.68 693.308h149.322c11.782 0 21.328-9.562 21.328-21.312 0-11.812-9.546-21.312-21.328-21.312H170.68v42.624z" fill="#967ADC" /><path d="M320.002 437.47c-11.78 0-21.326 9.546-21.326 21.328v469.186c0 11.75 9.546 21.312 21.326 21.312 11.782 0 21.328-9.562 21.328-21.312V458.798c0-11.782-9.546-21.328-21.328-21.328zM703.99 437.47c-11.782 0-21.312 9.546-21.312 21.328v469.186c0 11.75 9.532 21.312 21.312 21.312 11.78 0 21.308-9.562 21.308-21.312V458.798c0-11.782-9.528-21.328-21.308-21.328z" fill="#AAB2BC" /><path d="M746.674 480.126H277.332c-11.782 0-21.328-9.546-21.328-21.328s9.546-21.328 21.328-21.328h469.342c11.75 0 21.312 9.546 21.312 21.328s-9.562 21.328-21.312 21.328z" fill="#CCD1D9" /></svg>