<?xml version="1.0" standalone="no"?><!DOCTYPE svg PUBLIC "-//W3C//DTD SVG 1.1//EN" "http://www.w3.org/Graphics/SVG/1.1/DTD/svg11.dtd"><svg class="icon" width="128px" height="128.00px" viewBox="0 0 1024 1024" version="1.1" xmlns="http://www.w3.org/2000/svg"><path d="M781.36 746.65c9.5-36.654 42.938-63.842 82.622-63.842 39.688 0 73.124 27.188 82.624 63.842H781.36z" fill="#A0D468" /><path d="M863.98 661.498c-58.902 0-106.684 47.654-106.684 106.496h213.372c0-58.842-47.782-106.496-106.688-106.496z m-47.558 63.808c11.718-12.966 28.688-21.154 47.558-21.154 18.876 0 35.844 8.188 47.562 21.154h-95.12z" fill="#8CC153" /><path d="M821.296 1023.986h-170.62l-42.688-298.68H863.98z" fill="#E6E9ED" /><path d="M830.454 959.99l24.406-170.684H617.114l24.406 170.684zM479.994 341.318h-21.328l-63.998-42.656V0.014H181.33v298.648l-63.998 42.656H96.002c-23.562 0-42.67 19.124-42.67 42.686V981.3c0 23.562 19.108 42.686 42.67 42.686h383.99c23.562 0 42.67-19.124 42.67-42.686V384.004c0.002-23.56-19.106-42.686-42.668-42.686z" fill="#FFCE54" /><path d="M53.334 512h469.332v383.99H53.334z" fill="#DA4453" /><path d="M181.33 0.014h213.338v170.652H181.33z" fill="#434A54" /><path d="M415.996 703.996c0-11.782-9.546-21.344-21.328-21.344H181.33c-11.782 0-21.328 9.562-21.328 21.344s9.546 21.31 21.328 21.31h213.338c11.78 0 21.328-9.528 21.328-21.31zM330.668 767.994h-85.342c-11.78 0-21.328 9.532-21.328 21.312s9.546 21.344 21.328 21.344h85.342c11.782 0 21.328-9.562 21.328-21.344s-9.546-21.312-21.328-21.312z" fill="#434A54" /><path d="M394.666 533.312c0 58.936-47.764 106.686-106.668 106.686s-106.668-47.75-106.668-106.686c0-58.904 47.764-106.652 106.668-106.652 58.906 0 106.668 47.748 106.668 106.652z" fill="#ED5564" /><path d="M160.002 1002.644c-11.782 0-21.328 9.562-21.328 21.342h42.656c0-11.778-9.548-21.342-21.328-21.342zM245.328 1002.644c-11.78 0-21.328 9.562-21.328 21.342h42.67c0-11.778-9.562-21.342-21.342-21.342zM330.668 1002.644c-11.782 0-21.342 9.562-21.342 21.342h42.67c0-11.778-9.546-21.342-21.328-21.342zM415.996 1002.644c-11.782 0-21.328 9.562-21.328 21.342h42.656c-0.002-11.778-9.548-21.342-21.328-21.342z" fill="#F6BB42" /><path d="M821.296 725.306l-42.624 298.68h42.624l42.684-298.68zM479.994 341.318h-21.328l-63.998-42.656V0.014h-42.67v298.648l64 42.656h21.328c23.562 0 42.67 19.124 42.67 42.686V981.3c0 23.562-19.11 42.686-42.67 42.686h42.67c23.562 0 42.67-19.124 42.67-42.686V384.004c-0.002-23.56-19.11-42.686-42.672-42.686z" fill="#FFFFFF" opacity=".2" /></svg>