<?xml version="1.0" standalone="no"?><!DOCTYPE svg PUBLIC "-//W3C//DTD SVG 1.1//EN" "http://www.w3.org/Graphics/SVG/1.1/DTD/svg11.dtd"><svg class="icon" width="128px" height="128.00px" viewBox="0 0 1024 1024" version="1.1" xmlns="http://www.w3.org/2000/svg"><path d="M701.21 765.608H109.452S-44.76 47.088 405.346 47.088c450.074 0 295.864 718.52 295.864 718.52z" fill="#E2A437" /><path d="M737.458 748.732l-3.312-0.938c-48.058-12.874-64.308-25.31-85.714-33.436-75.902-28.936-95.652-49.748-100.714-59.622-0.188-0.376-0.312-0.75-0.5-1.124l-0.624-88.186-141.246-2-141.306 2-0.624 88.186-0.468 1.124c-5.062 9.874-24.812 30.686-100.714 59.622-21.374 8.124-37.624 20.562-85.716 33.436l-3.282 0.938C29.49 763.232 0.022 803.79 0.022 849.604v127.246h810.626v-127.246c-0.006-45.812-29.442-86.372-73.19-100.872z" fill="#AC92EB" /><path d="M737.458 748.732l-3.312-0.938c-48.058-12.874-64.308-25.31-85.714-33.436-75.902-28.936-95.652-49.748-100.714-59.622-0.188-0.376-0.312-0.75-0.5-1.124l-0.624-88.186-141.246-2-141.306 2-0.624 88.186-0.468 1.124c-5.062 9.874-24.812 30.686-100.714 59.622-21.374 8.124-37.624 20.562-85.716 33.436l-3.282 0.938C29.49 763.232 0.022 803.79 0.022 849.604v127.246h810.626v-127.246c-0.006-45.812-29.442-86.372-73.19-100.872z" fill="#CCD1D9" /><path d="M547.714 654.738c-0.188-0.376-0.312-0.75-0.5-1.124l-0.624-88.186-141.246-2-141.306 2-0.624 88.186-0.468 1.124c-3.562 6.936-14.376 19.31-46.936 36.124 26.5 35.56 98.216 108.244 248.24 121.742l141.214-116.43c-41.03-19.5-53.842-33.812-57.75-41.436z" fill="#DBAFA5" /><path d="M655.148 394.074c0 162.292-154.744 311.66-249.804 311.66-95.058 0-249.802-149.37-249.802-311.66 0-162.306 111.838-269.394 249.802-269.394 137.934 0 249.804 107.088 249.804 269.394z" fill="#EAC6BB" /><path d="M461.906 201.458l256.678 175.18c-22.874-169.15-100.622-329.55-313.24-329.55l56.562 154.37z" fill="#F6BB42" /><path d="M641.368 634.55l-65.372 170.678 116.152 2-10.312-35.058-13.282-45.124z" fill="#FFFFFF" /><path d="M737.458 748.732l-3.312-0.938c-48.058-12.874-64.308-25.31-85.714-33.436-44.936-17.124-70.214-31.436-84.372-42.31-43.282 48.436-206.18 210.18-524.386 304.8h770.97v-127.246c-0.002-45.81-29.438-86.37-73.186-100.87z" fill="#E6E9ED" /><path d="M155.542 394.074c0 16.688 1.656 33.218 4.718 49.498h490.168c3.062-16.28 4.718-32.81 4.718-49.498 0-12.28-0.656-24.216-1.906-35.84H157.45a334.832 334.832 0 0 0-1.908 35.84z" fill="#ED5564" /><path d="M789.33 976.912c-11.782 0-21.344-9.562-21.344-21.376V571.552c0-11.75 9.562-21.312 21.344-21.312s21.312 9.562 21.312 21.312v383.984c0 11.814-9.53 21.376-21.312 21.376z" fill="#DA4453" /><path d="M917.326 976.912H661.336c-11.782 0-21.344-9.562-21.344-21.376 0-11.75 9.562-21.312 21.344-21.312h255.99c11.782 0 21.31 9.562 21.31 21.312 0 11.814-9.528 21.376-21.31 21.376z" fill="#434A54" /><path d="M660.242 607.488a1.448 1.448 0 0 1-0.156-0.438c-0.124-0.312-0.282-0.688-0.438-1.062-0.124-0.312-0.25-0.624-0.406-0.938s-0.312-0.562-0.468-0.876c-0.156-0.376-0.344-0.688-0.532-1-0.156-0.25-0.344-0.5-0.5-0.75l-0.656-0.938-0.562-0.75c-0.25-0.312-0.5-0.562-0.75-0.876-0.218-0.25-0.468-0.438-0.688-0.688l-0.75-0.75c-0.282-0.25-0.562-0.438-0.844-0.688-0.25-0.188-0.468-0.376-0.718-0.562-0.312-0.25-0.624-0.438-0.938-0.688-0.282-0.188-0.532-0.312-0.812-0.5a145.274 145.274 0 0 0-0.938-0.562c-0.312-0.124-0.624-0.312-0.938-0.438-0.282-0.124-0.594-0.25-0.876-0.376-0.376-0.188-0.75-0.312-1.124-0.438-0.124-0.062-0.25-0.124-0.406-0.188s-0.282-0.062-0.438-0.124c-0.406-0.124-0.782-0.25-1.188-0.312-0.312-0.062-0.594-0.124-0.906-0.188a7.366 7.366 0 0 0-1.124-0.25c-0.344 0-0.656-0.062-0.968-0.124-0.376 0-0.718 0-1.062-0.062H638.994c-0.376 0-0.75 0.062-1.124 0.062-0.312 0.062-0.594 0.124-0.906 0.124-0.406 0.062-0.812 0.124-1.218 0.25-0.282 0.062-0.532 0.124-0.812 0.188-0.438 0.062-0.844 0.188-1.25 0.312-0.156 0.062-0.282 0.062-0.438 0.124l-0.376 0.188c-0.376 0.124-0.782 0.25-1.156 0.438l-0.844 0.376a5.544 5.544 0 0 0-0.968 0.5c-0.312 0.124-0.624 0.312-0.938 0.5-0.25 0.188-0.532 0.312-0.812 0.5-0.312 0.25-0.624 0.438-0.906 0.688l-0.748 0.562c-0.282 0.25-0.562 0.438-0.844 0.688l-0.75 0.75c-0.218 0.25-0.438 0.438-0.688 0.688-0.25 0.312-0.5 0.624-0.718 0.876-0.188 0.25-0.376 0.5-0.562 0.688-0.25 0.376-0.468 0.688-0.688 1l-0.468 0.75c-0.188 0.312-0.376 0.688-0.562 1-0.156 0.312-0.312 0.562-0.468 0.876-0.124 0.312-0.282 0.624-0.406 0.938-0.124 0.376-0.282 0.688-0.406 1.062-0.062 0.188-0.124 0.312-0.156 0.438l-63.998 191.992c-3.75 11.186 2.312 23.248 13.468 26.998a21.28 21.28 0 0 0 6.75 1.062c8.938 0 17.282-5.624 20.25-14.562l43.746-131.304 43.782 131.304c2.968 8.938 11.282 14.562 20.218 14.562 2.25 0 4.532-0.312 6.748-1.062 11.188-3.75 17.218-15.812 13.5-26.998l-64.004-191.992zM1022.884 799.48l-63.998-191.992c-0.032-0.124-0.094-0.25-0.156-0.438-0.124-0.312-0.282-0.688-0.438-1.062a12.192 12.192 0 0 0-0.406-0.938c-0.124-0.312-0.282-0.562-0.438-0.876-0.188-0.376-0.376-0.688-0.562-1a10.174 10.174 0 0 0-0.5-0.75l-0.656-0.938-0.562-0.75c-0.25-0.312-0.5-0.562-0.75-0.876-0.218-0.25-0.438-0.438-0.688-0.688s-0.468-0.5-0.75-0.75c-0.25-0.25-0.532-0.438-0.844-0.688a13.01 13.01 0 0 0-0.718-0.562c-0.312-0.25-0.624-0.438-0.938-0.688-0.25-0.188-0.532-0.312-0.782-0.5a23.462 23.462 0 0 0-0.968-0.562c-0.312-0.124-0.594-0.312-0.906-0.438s-0.594-0.25-0.906-0.376c-0.376-0.188-0.75-0.312-1.124-0.438a5.724 5.724 0 0 0-0.406-0.188c-0.124-0.062-0.282-0.062-0.438-0.124a7.452 7.452 0 0 0-1.188-0.312 32.414 32.414 0 0 1-0.876-0.188c-0.376-0.124-0.782-0.188-1.156-0.25-0.312 0-0.656-0.062-0.968-0.124-0.344 0-0.718 0-1.062-0.062H937.638c-0.376 0.062-0.75 0.062-1.124 0.062a4.266 4.266 0 0 1-0.906 0.124c-0.406 0.062-0.812 0.124-1.188 0.25l-0.844 0.188c-0.436 0.062-0.842 0.188-1.248 0.312-0.124 0.062-0.282 0.062-0.406 0.124a4.366 4.366 0 0 0-0.406 0.188 8.046 8.046 0 0 0-1.124 0.438c-0.312 0.124-0.594 0.25-0.876 0.376-0.344 0.124-0.624 0.312-0.938 0.5a5.544 5.544 0 0 0-0.968 0.5c-0.25 0.188-0.532 0.312-0.782 0.5-0.312 0.25-0.624 0.438-0.938 0.688l-0.75 0.562c-0.282 0.25-0.562 0.438-0.812 0.688-0.282 0.25-0.5 0.5-0.75 0.75s-0.468 0.438-0.688 0.688c-0.25 0.312-0.5 0.562-0.75 0.876l-0.562 0.75-0.656 0.938c-0.188 0.25-0.344 0.5-0.5 0.75-0.188 0.312-0.376 0.624-0.562 1-0.156 0.312-0.312 0.562-0.438 0.876a11.55 11.55 0 0 0-0.406 0.938c-0.156 0.376-0.312 0.75-0.438 1.062-0.062 0.188-0.124 0.312-0.156 0.438l-64 191.992c-3.718 11.186 2.312 23.248 13.5 26.998 2.218 0.75 4.5 1.062 6.75 1.062 8.906 0 17.25-5.624 20.218-14.562l43.748-131.304 43.78 131.304c2.968 8.938 11.282 14.562 20.218 14.562 2.25 0 4.532-0.312 6.75-1.062 11.186-3.75 17.218-15.812 13.498-26.998z" fill="#CCD1D9" /><path d="M938.636 635.55H639.992c-11.782 0-21.31-9.562-21.31-21.312a21.278 21.278 0 0 1 21.31-21.312h298.644c11.812 0 21.344 9.5 21.344 21.312 0 11.75-9.53 21.312-21.344 21.312zM639.992 891.54c-47.028 0-85.308-38.248-85.308-85.31h170.65c0 47.062-38.28 85.31-85.342 85.31zM938.636 891.54c-47.03 0-85.31-38.248-85.31-85.31h170.652c0 47.062-38.28 85.31-85.342 85.31z" fill="#ED5564" /><path d="M423.532 276.704c82.934-59.592 154.308-118.246 191.024-149.244-48.154-49.248-115.622-80.374-209.212-80.374-248.334 0-312.706 218.71-320.548 414.796 86.12-23.154 199.742-85.244 338.736-185.178z" fill="#FFCE54" /></svg>