<?xml version="1.0" standalone="no"?><!DOCTYPE svg PUBLIC "-//W3C//DTD SVG 1.1//EN" "http://www.w3.org/Graphics/SVG/1.1/DTD/svg11.dtd"><svg class="icon" width="128px" height="128.00px" viewBox="0 0 1024 1024" version="1.1" xmlns="http://www.w3.org/2000/svg"><path d="M840.448 619.996a21 21 0 0 1-10.654-2.876l-295.586-170.634c-10.218-5.89-13.718-18.936-7.812-29.14 5.876-10.204 18.938-13.704 29.156-7.812l295.584 170.652c10.188 5.906 13.688 18.938 7.812 29.156a21.342 21.342 0 0 1-18.5 10.654z" fill="#4A89DC" /><path d="M600.268 481.344c-9.406 0-18.032-6.282-20.594-15.812l-15.594-58.28c-3.062-11.39 3.688-23.078 15.062-26.14 11.406-3.046 23.094 3.704 26.126 15.092l15.626 58.28c3.062 11.376-3.688 23.078-15.094 26.124-1.844 0.502-3.688 0.736-5.532 0.736z" fill="#4A89DC" /><path d="M541.988 496.954c-9.406 0-18.032-6.282-20.594-15.812-3.03-11.374 3.718-23.078 15.094-26.124l58.28-15.624c11.376-3.046 23.094 3.718 26.126 15.092 3.062 11.376-3.688 23.078-15.094 26.124l-58.28 15.626c-1.844 0.482-3.688 0.718-5.532 0.718zM800.636 646.308a21.386 21.386 0 0 1-20.594-15.844l-15.626-58.28c-3.032-11.376 3.718-23.06 15.094-26.124 11.376-3.046 23.094 3.688 26.126 15.092l15.626 58.28c3.062 11.376-3.718 23.062-15.094 26.126a21.06 21.06 0 0 1-5.532 0.75z" fill="#4A89DC" /><path d="M785.012 587.998c-9.406 0-18.032-6.282-20.594-15.812-3.032-11.376 3.718-23.06 15.094-26.124l58.282-15.61c11.374-3.046 23.092 3.704 26.124 15.078 3.062 11.374-3.688 23.092-15.062 26.124l-58.28 15.626c-1.876 0.5-3.72 0.718-5.564 0.718zM544.894 619.996c-7.376 0-14.562-3.812-18.5-10.654-5.906-10.218-2.406-23.25 7.812-29.156l295.586-170.652c10.216-5.89 23.248-2.39 29.154 7.812 5.876 10.204 2.376 23.25-7.812 29.14L555.55 617.12a21 21 0 0 1-10.656 2.876z" fill="#4A89DC" /><path d="M600.298 587.998c-1.812 0-3.688-0.218-5.532-0.718l-58.28-15.626c-11.376-3.032-18.124-14.718-15.094-26.124 3.062-11.376 14.75-18.14 26.126-15.078l58.28 15.61c11.406 3.062 18.156 14.748 15.094 26.124-2.53 9.53-11.156 15.812-20.594 15.812z" fill="#4A89DC" /><path d="M584.674 646.308c-1.812 0-3.656-0.25-5.532-0.75-11.376-3.062-18.126-14.75-15.062-26.126l15.594-58.28c3.062-11.404 14.75-18.138 26.126-15.092 11.406 3.062 18.156 14.748 15.094 26.124l-15.626 58.28c-2.532 9.532-11.156 15.844-20.594 15.844zM843.322 496.954c-1.812 0-3.688-0.234-5.53-0.718l-58.282-15.626c-11.376-3.046-18.126-14.75-15.094-26.124 3.062-11.374 14.75-18.138 26.156-15.076l58.28 15.608c11.376 3.046 18.126 14.75 15.062 26.124-2.53 9.53-11.154 15.812-20.592 15.812z" fill="#4A89DC" /><path d="M785.042 481.344c-1.812 0-3.688-0.234-5.532-0.734-11.376-3.046-18.126-14.75-15.094-26.124l15.626-58.28c3.062-11.39 14.75-18.14 26.126-15.092 11.376 3.062 18.156 14.75 15.094 26.14l-15.626 58.28c-2.53 9.528-11.156 15.81-20.594 15.81z" fill="#4A89DC" /><path d="M692.67 705.338c-11.782 0-21.342-9.562-21.342-21.344V342.676c0-11.782 9.56-21.328 21.342-21.328s21.312 9.546 21.312 21.328v341.318c0 11.782-9.53 21.344-21.312 21.344z" fill="#5D9CEC" /><path d="M692.67 428.002a21.224 21.224 0 0 1-15.092-6.25 21.294 21.294 0 0 1 0-30.156l42.652-42.67c8.344-8.328 21.844-8.328 30.188 0 8.312 8.328 8.312 21.844 0 30.17l-42.654 42.656a21.286 21.286 0 0 1-15.094 6.25z" fill="#5D9CEC" /><path d="M692.67 428.002a21.224 21.224 0 0 1-15.092-6.25l-42.654-42.656c-8.344-8.328-8.344-21.842 0-30.17 8.312-8.328 21.842-8.328 30.154 0l42.686 42.67c8.312 8.328 8.312 21.828 0 30.156a21.338 21.338 0 0 1-15.094 6.25z" fill="#5D9CEC" /><path d="M649.984 683.994a21.14 21.14 0 0 1-15.06-6.25c-8.344-8.312-8.344-21.812 0-30.154l42.654-42.654a21.33 21.33 0 0 1 30.186 0c8.312 8.312 8.312 21.81 0 30.154l-42.686 42.654c-4.156 4.188-9.624 6.25-15.094 6.25z" fill="#5D9CEC" /><path d="M735.324 683.994a21.22 21.22 0 0 1-15.094-6.25l-42.652-42.654c-8.344-8.344-8.344-21.842 0-30.154a21.33 21.33 0 0 1 30.186 0l42.654 42.654c8.312 8.342 8.312 21.842 0 30.154-4.156 4.188-9.626 6.25-15.094 6.25z" fill="#5D9CEC" /><path d="M308.684 1002.672c-70.592 0-127.996-57.438-127.996-127.994 0-33.688 12.968-65.5 36.56-89.594l6.094-6.218V106.684c0-47.06 38.282-85.34 85.342-85.34 47.03 0 85.31 38.28 85.31 85.34v672.18l6.124 6.218c23.562 24.094 36.562 55.906 36.562 89.594 0 70.558-57.436 127.996-127.996 127.996z" fill="#F5F7FA" /><path d="M264.248 448.002c0 11.78-9.562 21.328-21.344 21.328s-21.344-9.546-21.344-21.328 9.562-21.328 21.344-21.328 21.344 9.548 21.344 21.328zM395.776 448.002c0 11.78-9.532 21.328-21.312 21.328s-21.344-9.546-21.344-21.328 9.562-21.328 21.344-21.328 21.312 9.548 21.312 21.328z" fill="#434A54" /><path d="M308.684 917.298c-23.532 0-42.686-19.124-42.686-42.622 0-23.562 19.154-42.688 42.686-42.688 23.53 0 42.654 19.126 42.654 42.688 0 23.5-19.126 42.622-42.654 42.622z" fill="#ED5564" /><path d="M308.684 810.678c-35.342 0-63.998 28.626-63.998 64 0 35.308 28.656 63.994 63.998 63.994s63.998-28.686 63.998-63.994c0-35.376-28.656-64-63.998-64z m0 85.31c-11.782 0-21.344-9.562-21.344-21.31 0-11.782 9.562-21.376 21.344-21.376 11.748 0 21.31 9.594 21.31 21.376 0 11.748-9.562 21.31-21.31 21.31z" fill="#DA4453" /><path d="M308.684 853.302c-11.782 0-21.344-9.532-21.344-21.312v-127.996c0-11.782 9.562-21.312 21.344-21.312 11.78 0 21.31 9.532 21.31 21.312v127.996a21.298 21.298 0 0 1-21.31 21.312z" fill="#DA4453" /><path d="M415.336 770.178V106.684c0-58.918-47.748-106.668-106.652-106.668s-106.686 47.75-106.686 106.668v663.494c-26.374 26.938-42.652 63.812-42.652 104.5 0 82.432 66.872 149.306 149.338 149.306s149.306-66.876 149.306-149.306c0-40.688-16.248-77.562-42.654-104.5z m-106.652 211.118c-58.81 0-106.686-47.812-106.686-106.62 0-28.094 10.844-54.594 30.5-74.656l12.188-12.438V106.684c0-35.296 28.688-63.998 63.998-63.998 35.28 0 63.998 28.702 63.998 63.998v680.9l12.188 12.438c19.654 20.062 30.466 46.562 30.466 74.656 0 58.806-47.842 106.618-106.652 106.618z" fill="#E6E9ED" /></svg>