<?xml version="1.0" standalone="no"?><!DOCTYPE svg PUBLIC "-//W3C//DTD SVG 1.1//EN" "http://www.w3.org/Graphics/SVG/1.1/DTD/svg11.dtd"><svg class="icon" width="128px" height="128.00px" viewBox="0 0 1024 1024" version="1.1" xmlns="http://www.w3.org/2000/svg"><path d="M897.184238 0c-32.437683 0-64.843367 12.343879-89.561125 37.093638L116.191865 728.524885l-4.375957 153.310503L142.003613 911.991094l153.280503-4.375957L986.715364 216.183889c49.467517-49.467517 49.467517-129.654734 0-179.092251C961.995606 12.375879 929.589922 0 897.184238 0z" fill="#E6E9ED" /><path d="M578.437351 624.493901c-8.343919-8.249919-21.781787-8.21792-30.093706 0.094-8.281919 8.281919-8.311919 21.717788-0.061999 30.061706l30.155705-30.155706zM487.938235 714.993018c-8.343919-8.249919-21.781787-8.21792-30.061706 0.061999-8.311919 8.311919-8.343919 21.749788-0.094 30.093706l30.155706-30.155705zM668.842468 533.900786a21.331792 21.331792 0 0 0-30.187705 0c-8.311919 8.343919-8.311919 21.843787 0 30.155706 0.032 0.032 0.061999 0.061999 0.123999 0.093999l30.123706-30.155706c-0.028-0.032-0.028-0.061999-0.06-0.093999zM819.746995 352.996553c-8.343919 8.343919-8.343919 21.843787 0 30.155705l30.155705-30.155705c-8.311919-8.311919-21.843787-8.311919-30.155705 0zM759.403584 443.495669c-8.311919-8.311919-21.811787-8.311919-30.155706 0-8.311919 8.343919-8.311919 21.843787 0 30.155705l30.155706-30.155705zM308.969983 566.182471c8.343919-8.343919 8.343919-21.843787 0-30.155706-0.032-0.061999-0.093999-0.093999-0.123999-0.155998l-30.155706 30.155705a0.565994 0.565994 0 0 0 0.123999 0.155999c8.311919 8.311919 21.843787 8.311919 30.155706 0zM399.3131 445.371651l-30.155705 30.187705c8.343919 8.281919 21.811787 8.249919 30.123706-0.062s8.313919-21.783787 0.031999-30.125705zM489.968215 385.184238c8.311919-8.343919 8.311919-21.843787 0-30.155705a0.529995 0.529995 0 0 0-0.155998-0.123999l-30.155706 30.123706c0.061999 0.061999 0.093999 0.123999 0.123999 0.155998a21.331792 21.331792 0 0 0 30.187705 0zM580.375332 294.591123c8.311919-8.311919 8.311919-21.811787 0-30.155705-0.032 0-0.032-0.032-0.061999-0.032l-30.155706 30.155705 0.032 0.032a21.329792 21.329792 0 0 0 30.185705 0zM670.810449 173.904302l-30.155705 30.155705c8.343919 8.18792 21.717788 8.15592 29.999707-0.123999 8.311919-8.281919 8.343919-21.687788 0.155998-30.031706z" fill="#434A54" /><path d="M956.557659 186.030183L265.126411 877.459431l-153.310503 4.375957L142.003613 911.991094l153.280503-4.375957L986.715364 216.183889c49.467517-49.467517 49.467517-129.654734 0-179.092251a125.298776 125.298776 0 0 0-16.34384-13.811865c35.091657 49.437517 30.499702 118.436843-13.813865 162.75041z" opacity=".1" /><path d="M579.56134 444.621658c-8.343919-8.311919-21.843787-8.311919-30.155705 0L6.442937 987.584356c-8.343919 8.311919-8.343919 21.843787 0 30.155705 8.311919 8.343919 21.843787 8.343919 30.155706 0l542.962697-542.932698v-0.031999c8.313919-8.311919 8.313919-21.811787 0-30.153706z" fill="#ED5564" /></svg>