<?xml version="1.0" standalone="no"?><!DOCTYPE svg PUBLIC "-//W3C//DTD SVG 1.1//EN" "http://www.w3.org/Graphics/SVG/1.1/DTD/svg11.dtd"><svg class="icon" width="128px" height="128.00px" viewBox="0 0 1024 1024" version="1.1" xmlns="http://www.w3.org/2000/svg"><path d="M277.354 1002.64c-70.578 0-127.996-57.438-127.996-127.994 0-33.688 12.982-65.5 36.56-89.562l6.094-6.218V106.668c0-47.06 38.28-85.34 85.342-85.34 47.042 0 85.324 38.28 85.324 85.34v672.196l6.094 6.218c23.594 24.062 36.576 55.876 36.576 89.562 0 70.56-57.42 127.996-127.994 127.996z" fill="#F5F7FA" /><path d="M232.9 448.002c0 11.78-9.546 21.312-21.328 21.312-11.78 0-21.326-9.532-21.326-21.312s9.546-21.342 21.326-21.342c11.782 0 21.328 9.562 21.328 21.342zM364.458 448.002c0 11.78-9.546 21.312-21.328 21.312s-21.344-9.532-21.344-21.312 9.562-21.342 21.344-21.342 21.328 9.562 21.328 21.342z" fill="#434A54" /><path d="M277.354 917.298c-23.532 0-42.672-19.124-42.672-42.652 0-23.532 19.14-42.656 42.672-42.656 23.53 0 42.652 19.126 42.652 42.656 0 23.53-19.124 42.652-42.652 42.652z" fill="#ED5564" /><path d="M277.354 810.646c-35.344 0-64 28.656-64 64 0 35.34 28.656 63.994 64 63.994 35.342 0 63.996-28.654 63.996-63.994 0-35.344-28.654-64-63.996-64z m0 85.342c-11.766 0-21.344-9.594-21.344-21.342 0-11.782 9.578-21.344 21.344-21.344 11.764 0 21.326 9.562 21.326 21.344 0 11.748-9.562 21.342-21.326 21.342z" fill="#DA4453" /><path d="M277.354 853.302c-11.782 0-21.344-9.532-21.344-21.312V234.664c0-11.78 9.562-21.342 21.344-21.342 11.78 0 21.326 9.562 21.326 21.342v597.326c0 11.782-9.548 21.312-21.326 21.312z" fill="#DA4453" /><path d="M384.006 770.146V106.668c0-58.904-47.75-106.654-106.652-106.654-58.906 0-106.67 47.75-106.67 106.654v663.478c-26.388 26.938-42.67 63.812-42.67 104.5 0 82.462 66.858 149.338 149.34 149.338 82.464 0 149.322-66.876 149.322-149.338 0-40.688-16.282-77.562-42.67-104.5z m-106.652 211.15c-58.812 0-106.67-47.844-106.67-106.65 0-28.062 10.828-54.594 30.482-74.656l12.188-12.438V106.668c0-35.28 28.704-63.998 64-63.998 35.28 0 63.996 28.716 63.996 63.998V787.552l12.188 12.438c19.656 20.062 30.468 46.594 30.468 74.656 0 58.808-47.844 106.65-106.652 106.65z" fill="#E6E9ED" /><path d="M661.34 278.882c-11.782 0-21.342 9.562-21.342 21.342v42.654c0 11.782 9.56 21.344 21.342 21.344s21.342-9.562 21.342-21.344v-42.654c0-11.778-9.56-21.342-21.342-21.342zM661.34 662.87c-11.782 0-21.342 9.562-21.342 21.312v42.686c0 11.782 9.56 21.312 21.342 21.312s21.342-9.532 21.342-21.312v-42.686c0-11.75-9.56-21.312-21.342-21.312z" fill="#F6BB42" /><path d="M495.408 347.63c-8.328 8.312-8.328 21.812 0 30.156l30.17 30.156c8.328 8.344 21.86 8.344 30.172 0 8.31-8.312 8.31-21.812 0-30.156l-30.172-30.156c-8.326-8.344-21.842-8.344-30.17 0zM766.93 619.122c-8.312 8.344-8.312 21.844 0 30.186l30.188 30.156c8.312 8.344 21.812 8.344 30.156 0s8.344-21.844 0-30.156l-30.156-30.186c-8.344-8.312-21.876-8.312-30.188 0z" fill="#FFCE54" /><path d="M426.676 513.562c0 11.782 9.546 21.312 21.342 21.312h42.656c11.782 0 21.328-9.532 21.344-21.312-0.016-11.812-9.562-21.344-21.344-21.344h-42.656a21.32 21.32 0 0 0-21.342 21.344zM810.68 513.562a21.3 21.3 0 0 0 21.312 21.312h42.686c11.748 0 21.308-9.532 21.308-21.312 0-11.812-9.56-21.344-21.308-21.344h-42.686c-11.782 0-21.312 9.532-21.312 21.344z" fill="#F6BB42" /><path d="M495.408 679.462c8.328 8.344 21.844 8.344 30.17 0l30.172-30.156c8.31-8.342 8.31-21.842 0-30.186-8.312-8.31-21.844-8.31-30.172 0l-30.17 30.186c-8.328 8.314-8.328 21.814 0 30.156zM766.93 407.94c8.312 8.344 21.844 8.344 30.188 0l30.156-30.156c8.344-8.342 8.344-21.842 0-30.156-8.344-8.344-21.844-8.344-30.156 0l-30.188 30.156c-8.312 8.344-8.312 21.844 0 30.156zM661.34 620.184c-58.81 0-106.652-47.81-106.652-106.622 0-58.842 47.842-106.684 106.652-106.684 58.808 0 106.652 47.842 106.652 106.684 0 58.812-47.844 106.622-106.652 106.622z" fill="#FFCE54" /><path d="M661.34 385.566c-70.716 0-127.996 57.28-127.996 127.996 0 70.686 57.28 127.996 127.996 127.996 70.684 0 127.996-57.31 127.996-127.996 0-70.716-57.312-127.996-127.996-127.996z m0 213.308c-47.03 0-85.342-38.282-85.342-85.31 0-47.062 38.312-85.34 85.342-85.34s85.34 38.28 85.34 85.34c0 47.028-38.31 85.31-85.34 85.31z" fill="#F6BB42" /></svg>