<?xml version="1.0" standalone="no"?><!DOCTYPE svg PUBLIC "-//W3C//DTD SVG 1.1//EN" "http://www.w3.org/Graphics/SVG/1.1/DTD/svg11.dtd"><svg class="icon" width="128px" height="128.00px" viewBox="0 0 1024 1024" version="1.1" xmlns="http://www.w3.org/2000/svg"><path d="M654.308 673.378V365.372h-321.96V79.412H28.372v887.896h303.976v14H995.612V673.378z" fill="#5D9CEC" /><path d="M682.684 640.004V341.342H362.676V42.692H0.014V981.31h1023.972V640.004H682.684z m-42.688-256.008v256.008h-277.32V383.996h277.32zM42.684 85.348h277.32v255.994H42.684V85.348z m0 298.648h277.32v256.008H42.684V383.996z m277.32 554.688H42.684V682.692h277.32v255.992z m319.992 0h-277.32V682.692h277.32v255.992z m341.302 0H682.684V682.692H981.3v255.992z" fill="#4A89DC" /><path d="M277.334 106.692H85.34c-11.782 0-21.328 9.53-21.328 21.312v170.682c0 11.782 9.546 21.312 21.328 21.312s21.342-9.532 21.342-21.312v-149.34h170.652c11.782 0 21.344-9.532 21.344-21.342 0-11.782-9.562-21.312-21.344-21.312zM277.334 405.338H85.34c-11.782 0-21.328 9.562-21.328 21.342v170.638c0 11.812 9.546 21.372 21.328 21.372s21.342-9.558 21.342-21.372v-149.328h170.652c11.782 0 21.344-9.53 21.344-21.312 0-11.776-9.562-21.34-21.344-21.34zM277.334 704.004H85.34c-11.782 0-21.328 9.562-21.328 21.312v170.68c0 11.812 9.546 21.312 21.328 21.312s21.342-9.5 21.342-21.312v-149.304h170.652c11.782 0 21.344-9.562 21.344-21.376 0-11.75-9.562-21.312-21.344-21.312zM597.31 405.338h-191.98c-11.782 0-21.326 9.562-21.326 21.342v170.638c0 11.812 9.544 21.372 21.326 21.372s21.344-9.558 21.344-21.372v-149.328h170.636c11.81 0 21.374-9.53 21.374-21.312 0-11.776-9.562-21.34-21.374-21.34zM597.31 704.004h-191.98c-11.782 0-21.326 9.562-21.326 21.312v170.68c0 11.812 9.544 21.312 21.326 21.312s21.344-9.5 21.344-21.312v-149.304h170.636a21.366 21.366 0 0 0 21.374-21.376c0-11.75-9.562-21.312-21.374-21.312zM938.674 704.004H725.306c-11.748 0-21.31 9.562-21.31 21.312v170.68c0 11.812 9.562 21.312 21.31 21.312 11.812 0 21.376-9.5 21.376-21.312v-149.304h191.992c11.75 0 21.312-9.562 21.312-21.376 0-11.75-9.562-21.312-21.312-21.312z" fill="#4A89DC" /></svg>