<?xml version="1.0" standalone="no"?><!DOCTYPE svg PUBLIC "-//W3C//DTD SVG 1.1//EN" "http://www.w3.org/Graphics/SVG/1.1/DTD/svg11.dtd"><svg class="icon" width="128px" height="128.00px" viewBox="0 0 1024 1024" version="1.1" xmlns="http://www.w3.org/2000/svg"><path d="M941.072 448.048C886.052 263.146 714.78 128.298 512 128.298S137.948 263.146 82.928 448.048h-18.58v127.902c0 247.212 200.406 447.648 447.65 447.648 247.244 0 447.65-200.436 447.65-447.648v-127.902h-18.576z" fill="#F6BB42" /><path d="M234.592 927.298a445.03 445.03 0 0 0 42.654 29.82v-187.542h-42.654v157.722zM128.3 806.612a451.168 451.168 0 0 0 42.624 59.234V561.616H128.3v244.996zM362.774 998.088a453.844 453.844 0 0 0 42.654 12.708v-162.872h-42.654v150.164zM490.674 1023.068c7.088 0.342 14.176 0.53 21.328 0.53 7.15 0 14.238-0.188 21.326-0.53v-140.61h-42.652v140.61zM661.226 998.088v-150.164h-42.654v162.872a453.844 453.844 0 0 0 42.654-12.708zM789.126 927.518v-157.94h-42.654v187.728a448.622 448.622 0 0 0 42.654-29.788zM895.702 806.612v-156.064h-42.624v215.298a451.724 451.724 0 0 0 42.624-59.234z" fill="#E8AA3D" /><path d="M195.466 764.582c-174.832-174.832-174.832-458.252 0-633.068s458.266-174.816 633.066 0c174.832 174.816 174.832 458.236 0 633.068-174.83 174.8-458.234 174.8-633.066 0z" fill="#FFCE54" /><path d="M512 21.708c-11.772 0-21.328 9.554-21.328 21.328S500.228 64.348 512 64.348c11.77 0 21.326-9.54 21.326-21.312S523.772 21.708 512 21.708zM512 831.748c-11.772 0-21.328 9.524-21.328 21.296s9.554 21.326 21.328 21.326c11.77 0 21.326-9.554 21.326-21.326s-9.554-21.296-21.326-21.296zM320.15 115.76c10.21-5.886 13.676-18.922 7.806-29.118-5.902-10.196-18.922-13.692-29.134-7.806-10.18 5.886-13.676 18.924-7.776 29.118 5.872 10.196 18.924 13.692 29.104 7.806zM703.85 780.352c-10.18 5.87-13.676 18.922-7.804 29.102 5.9 10.21 18.922 13.678 29.132 7.806 10.18-5.902 13.676-18.924 7.804-29.132-5.9-10.18-18.922-13.678-29.132-7.776zM150.596 264.004c10.18 5.886 23.232 2.388 29.102-7.806 5.902-10.196 2.404-23.232-7.806-29.118-10.18-5.886-23.232-2.388-29.102 7.806-5.902 10.196-2.406 23.232 7.806 29.118zM873.404 632.092c-10.18-5.902-23.23-2.404-29.102 7.806-5.902 10.18-2.404 23.23 7.806 29.102 10.18 5.902 23.232 2.404 29.102-7.806 5.904-10.178 2.406-23.234-7.806-29.102zM106.974 426.736c-11.772 0-21.296 9.54-21.296 21.312s9.524 21.312 21.296 21.312 21.328-9.54 21.328-21.312-9.556-21.312-21.328-21.312zM917.028 426.736c-11.772 0-21.326 9.54-21.326 21.312s9.554 21.312 21.326 21.312 21.294-9.54 21.294-21.312-9.524-21.312-21.294-21.312zM150.596 632.092c-10.21 5.87-13.676 18.924-7.806 29.102 5.87 10.21 18.922 13.708 29.102 7.806 10.21-5.872 13.708-18.922 7.806-29.102-5.87-10.21-18.922-13.708-29.102-7.806zM852.11 227.08c-10.21 5.886-13.708 18.922-7.806 29.118 5.872 10.196 18.922 13.694 29.102 7.806 10.21-5.886 13.708-18.922 7.806-29.118-5.87-10.194-18.922-13.692-29.102-7.806zM320.15 780.32c-10.18-5.872-23.232-2.374-29.102 7.806-5.902 10.208-2.404 23.23 7.806 29.132 10.18 5.872 23.202 2.374 29.102-7.806 5.872-10.21 2.406-23.232-7.806-29.132zM725.178 78.836c-10.21-5.886-23.232-2.404-29.132 7.792-5.872 10.196-2.376 23.232 7.804 29.134 10.21 5.886 23.232 2.388 29.132-7.806 5.872-10.196 2.376-23.234-7.804-29.12z" fill="#E8AA3D" /><path d="M738.104 643.988L533.326 439.226V149.61c0-11.772-9.554-21.312-21.326-21.312s-21.328 9.54-21.328 21.312v298.438c0 0.702 0.032 1.406 0.124 2.108 0.032 0.296 0.094 0.592 0.124 0.904 0.062 0.39 0.094 0.766 0.186 1.156 0.062 0.344 0.156 0.686 0.25 1.03 0.062 0.328 0.156 0.67 0.25 1s0.218 0.656 0.344 1c0.124 0.312 0.218 0.64 0.344 0.966 0.156 0.312 0.28 0.61 0.436 0.906 0.156 0.328 0.282 0.656 0.468 0.984 0.156 0.296 0.344 0.578 0.5 0.858 0.188 0.312 0.376 0.624 0.562 0.922 0.218 0.328 0.468 0.624 0.686 0.936 0.188 0.25 0.376 0.5 0.562 0.734 0.438 0.546 0.936 1.078 1.436 1.578L707.94 674.152c4.186 4.152 9.618 6.246 15.082 6.246s10.93-2.094 15.082-6.246c8.306-8.336 8.306-21.826 0-30.164z" fill="#434A54" /></svg>