<?xml version="1.0" standalone="no"?><!DOCTYPE svg PUBLIC "-//W3C//DTD SVG 1.1//EN" "http://www.w3.org/Graphics/SVG/1.1/DTD/svg11.dtd"><svg class="icon" width="128px" height="128.00px" viewBox="0 0 1024 1024" version="1.1" xmlns="http://www.w3.org/2000/svg"><path d="M0.118 512C0.118 794.684 229.284 1023.882 512 1023.882c282.688 0 511.882-229.2 511.882-511.882C1023.882 229.284 794.688 0.118 512 0.118 229.284 0.118 0.118 229.284 0.118 512z" fill="#FC6E51" /><path d="M490.662 42.764c0 11.778 9.544 21.338 21.338 21.338 11.78 0 21.324-9.56 21.324-21.338 0-11.78-9.544-21.34-21.324-21.34-11.792 0-21.338 9.56-21.338 21.34zM490.662 981.206c0 11.778 9.544 21.338 21.338 21.338 11.78 0 21.324-9.56 21.324-21.338 0-11.78-9.544-21.308-21.324-21.308-11.792-0.002-21.338 9.528-21.338 21.308zM258.902 116.278c5.888 10.216 18.934 13.714 29.148 7.81 10.186-5.874 13.686-18.934 7.794-29.12-5.888-10.214-18.932-13.684-29.132-7.81-10.2 5.876-13.7 18.934-7.81 29.12zM728.138 929.03c5.874 10.184 18.934 13.684 29.12 7.81 10.214-5.906 13.714-18.934 7.808-29.15-5.872-10.216-18.932-13.684-29.118-7.81-10.214 5.904-13.682 18.932-7.81 29.15zM94.97 295.862c10.202 5.874 23.244 2.376 29.134-7.81 5.888-10.216 2.388-23.244-7.81-29.15-10.202-5.874-23.246-2.374-29.134 7.81-5.888 10.216-2.39 23.246 7.81 29.15zM907.692 765.066c10.216 5.904 23.246 2.406 29.148-7.81 5.876-10.186 2.376-23.246-7.808-29.12-10.218-5.904-23.246-2.406-29.15 7.81-5.906 10.186-2.408 23.248 7.81 29.12zM42.764 533.306c11.78 0 21.34-9.53 21.34-21.306 0-11.78-9.56-21.34-21.34-21.34-11.778 0-21.322 9.56-21.322 21.34 0 11.778 9.544 21.306 21.322 21.306zM981.208 533.306c11.808 0 21.338-9.53 21.338-21.306 0-11.78-9.53-21.34-21.338-21.34-11.748 0-21.308 9.56-21.308 21.34-0.002 11.778 9.558 21.306 21.308 21.306zM116.294 765.066c10.2-5.874 13.7-18.934 7.81-29.12-5.89-10.216-18.934-13.714-29.134-7.81-10.202 5.874-13.7 18.934-7.81 29.12 5.888 10.216 18.934 13.714 29.134 7.81zM929.032 295.862c10.184-5.904 13.684-18.934 7.808-29.15-5.902-10.184-18.932-13.684-29.148-7.81-10.216 5.906-13.714 18.934-7.81 29.15 5.904 10.184 18.93 13.682 29.15 7.81zM295.846 929.03c5.89-10.216 2.39-23.246-7.794-29.15-10.214-5.874-23.26-2.406-29.148 7.81-5.89 10.216-2.39 23.244 7.81 29.15 10.2 5.872 23.244 2.372 29.132-7.81z" fill="#E9573F" /><path d="M512 128.088c-11.792 0-21.338 9.528-21.338 21.306v353.764L240.532 753.288a21.328 21.328 0 1 0 30.148 30.182L527.074 527.06a21.208 21.208 0 0 0 6.25-15.058V149.394c0-11.778-9.544-21.306-21.324-21.306z" fill="#434A54" /><path d="M765.066 116.308c5.906-10.216 2.406-23.276-7.808-29.15-10.186-5.874-23.246-2.404-29.12 7.81-5.874 10.186-2.404 23.246 7.81 29.12 10.186 5.904 23.248 2.406 29.118-7.78z" fill="#E9573F" /><path d="M1006.106 725.264c-32.898-75.296-108.068-127.972-195.516-127.972-87.45 0-162.622 52.676-195.52 127.972l-17.778 21.338v63.986c0 117.786 95.51 213.294 213.296 213.294 117.816 0 213.292-95.51 213.292-213.294v-63.986l-17.774-21.338z" fill="#F6BB42" /><path d="M1023.882 746.602c0 117.786-95.476 213.294-213.292 213.294-117.788 0-213.296-95.51-213.296-213.294s95.51-213.294 213.296-213.294c117.816-0.002 213.292 95.508 213.292 213.294z" fill="#FFCE54" /><path d="M810.59 661.278c-11.78 0-21.34 9.56-21.34 21.338v127.972c0 11.778 9.56 21.338 21.34 21.338 11.778 0 21.338-9.56 21.338-21.338v-127.972c0-11.778-9.56-21.338-21.338-21.338z" fill="#E8AA3D" /></svg>