<?xml version="1.0" standalone="no"?><!DOCTYPE svg PUBLIC "-//W3C//DTD SVG 1.1//EN" "http://www.w3.org/Graphics/SVG/1.1/DTD/svg11.dtd"><svg class="icon" width="128px" height="128.00px" viewBox="0 0 1024 1024" version="1.1" xmlns="http://www.w3.org/2000/svg"><path d="M1023.988 192.006c0-58.904-47.75-106.654-106.686-106.654-4.374 0-8.716 0.282-12.998 0.812a42.786 42.786 0 0 0-8.312-0.812H128.008c-2.844 0-5.624 0.282-8.328 0.812a104.884 104.884 0 0 0-13-0.812C47.76 85.352 0.012 133.102 0.012 192.006c0 51.592 36.638 94.654 85.326 104.53v684.8c0 23.558 19.108 42.652 42.67 42.652h767.984c23.56 0 42.686-19.094 42.686-42.652v-684.8c48.686-9.874 85.31-52.936 85.31-104.53z" fill="#F4BE8E" /><path d="M981.3 106.696h42.688v85.31H981.3zM0.012 106.696h42.67v85.31H0.012z" fill="#F4BE8E" /><path d="M1023.988 106.696c0-58.936-47.75-106.686-106.686-106.686H106.678C47.758 0.01 0.01 47.76 0.01 106.696c0 51.592 36.638 94.624 85.326 104.498v684.798c0 23.562 19.108 42.688 42.67 42.688h767.984c23.56 0 42.686-19.124 42.686-42.688V211.194c48.688-9.874 85.312-52.904 85.312-104.498z" fill="#FFD2A6" /><path d="M277.332 192.006c0 11.782-9.544 21.344-21.326 21.344s-21.328-9.562-21.328-21.344 9.546-21.312 21.328-21.312 21.326 9.532 21.326 21.312zM277.332 362.69c0 11.782-9.544 21.312-21.326 21.312s-21.328-9.532-21.328-21.312 9.546-21.342 21.328-21.342 21.326 9.562 21.326 21.342zM277.332 533.344c0 11.782-9.544 21.344-21.326 21.344s-21.328-9.562-21.328-21.344S244.224 512 256.006 512s21.326 9.562 21.326 21.344zM277.332 703.996c0 11.782-9.544 21.344-21.326 21.344s-21.328-9.562-21.328-21.344 9.546-21.312 21.328-21.312 21.326 9.53 21.326 21.312zM405.33 277.348c0 11.782-9.546 21.344-21.328 21.344s-21.326-9.562-21.326-21.344 9.544-21.342 21.326-21.342 21.328 9.562 21.328 21.342zM405.33 448c0 11.782-9.546 21.344-21.328 21.344s-21.326-9.562-21.326-21.344c0-11.78 9.544-21.312 21.326-21.312s21.328 9.532 21.328 21.312zM405.33 618.688c0 11.778-9.546 21.308-21.328 21.308s-21.326-9.532-21.326-21.308c0-11.782 9.544-21.344 21.326-21.344s21.328 9.562 21.328 21.344zM405.33 789.34c0 11.782-9.546 21.344-21.328 21.344s-21.326-9.562-21.326-21.344 9.544-21.344 21.326-21.344 21.328 9.562 21.328 21.344z" fill="#EAAD7A" /><path d="M533.328 192.006c0 11.782-9.546 21.344-21.328 21.344s-21.328-9.562-21.328-21.344S500.218 170.694 512 170.694s21.328 9.532 21.328 21.312zM533.328 362.69c0 11.782-9.546 21.312-21.328 21.312s-21.328-9.532-21.328-21.312 9.546-21.342 21.328-21.342 21.328 9.562 21.328 21.342zM533.328 533.344c0 11.782-9.546 21.344-21.328 21.344s-21.328-9.562-21.328-21.344S500.218 512 512 512s21.328 9.562 21.328 21.344zM533.328 703.996c0 11.782-9.546 21.344-21.328 21.344s-21.328-9.562-21.328-21.344 9.546-21.312 21.328-21.312 21.328 9.53 21.328 21.312zM661.308 277.348c0 11.782-9.532 21.344-21.312 21.344s-21.312-9.562-21.312-21.344 9.532-21.342 21.312-21.342 21.312 9.562 21.312 21.342zM661.308 448c0 11.782-9.532 21.344-21.312 21.344s-21.312-9.562-21.312-21.344c0-11.78 9.532-21.312 21.312-21.312s21.312 9.532 21.312 21.312zM661.308 618.688c0 11.778-9.532 21.308-21.312 21.308s-21.312-9.532-21.312-21.308c0-11.782 9.532-21.344 21.312-21.344s21.312 9.562 21.312 21.344zM661.308 789.34c0 11.782-9.532 21.344-21.312 21.344s-21.312-9.562-21.312-21.344 9.532-21.344 21.312-21.344 21.312 9.562 21.312 21.344z" fill="#EAAD7A" /><path d="M789.304 192.006c0 11.782-9.532 21.344-21.31 21.344-11.782 0-21.312-9.562-21.312-21.344s9.532-21.312 21.312-21.312c11.78 0 21.31 9.532 21.31 21.312zM789.304 362.69a21.298 21.298 0 0 1-21.31 21.312c-11.782 0-21.312-9.532-21.312-21.312s9.532-21.342 21.312-21.342c11.78 0 21.31 9.562 21.31 21.342zM789.304 533.344c0 11.782-9.532 21.344-21.31 21.344-11.782 0-21.312-9.562-21.312-21.344S756.212 512 767.994 512c11.78 0 21.31 9.562 21.31 21.344zM789.304 703.996c0 11.782-9.532 21.344-21.31 21.344-11.782 0-21.312-9.562-21.312-21.344s9.532-21.312 21.312-21.312c11.78 0 21.31 9.53 21.31 21.312z" fill="#EAAD7A" /></svg>