<?xml version="1.0" standalone="no"?><!DOCTYPE svg PUBLIC "-//W3C//DTD SVG 1.1//EN" "http://www.w3.org/Graphics/SVG/1.1/DTD/svg11.dtd"><svg class="icon" width="128px" height="128.00px" viewBox="0 0 1024 1024" version="1.1" xmlns="http://www.w3.org/2000/svg"><path d="M981.296 106.684c-17.81-13.406-39.964-21.342-63.996-21.342-4.406 0-8.75 0.296-13 0.812a42.786 42.786 0 0 0-8.312-0.812H128.012c-2.876 0-5.656 0.282-8.344 0.812a107.844 107.844 0 0 0-13-0.812c-24.032 0-46.186 7.938-63.998 21.342H0.016v85.326c0 51.592 36.624 94.638 85.31 104.528v684.76c0 23.562 19.094 42.686 42.686 42.686h767.976c23.562 0 42.656-19.124 42.656-42.686v-684.76c48.684-9.89 85.34-52.92 85.34-104.528V106.684h-42.688z" fill="#E2A67D" /><path d="M1023.984 106.684c0-58.92-47.782-106.668-106.684-106.668-4.406 0-8.75 0.296-13 0.812a42.786 42.786 0 0 0-8.312-0.812H128.012c-2.876 0-5.656 0.282-8.344 0.812a107.844 107.844 0 0 0-13-0.812C47.764 0.016 0.014 47.766 0.014 106.684c0 51.592 36.624 94.638 85.31 104.512v684.792c0 23.562 19.094 42.688 42.686 42.688h767.976c23.562 0 42.656-19.124 42.656-42.688V211.198c48.686-9.876 85.342-52.92 85.342-104.514z" fill="#F4B68C" /><path d="M256.008 213.354c-47.156 0-85.34 38.202-85.34 85.326v469.314c0 47.124 38.186 85.342 85.34 85.342 47.124 0 85.31-38.216 85.31-85.342V298.678c0-47.124-38.186-85.324-85.31-85.324z" fill="#ED5564" /><path d="M384.004 85.358c-47.156 0-85.34 38.202-85.34 85.326v512c0 47.124 38.186 85.31 85.34 85.31 47.124 0 85.31-38.186 85.31-85.31v-512c0-47.126-38.186-85.326-85.31-85.326z" fill="#ED5564" /><path d="M512 128.012c-47.156 0-85.34 38.204-85.34 85.342v511.984c0 47.124 38.186 85.342 85.34 85.342 47.124 0 85.308-38.218 85.308-85.342V213.354c0-47.14-38.184-85.342-85.308-85.342z" fill="#ED5564" /><path d="M639.996 85.358c-47.156 0-85.34 38.202-85.34 85.326V767.9c0 47.124 38.184 85.342 85.34 85.342 47.124 0 85.308-38.216 85.308-85.342V170.682c0-47.124-38.182-85.324-85.308-85.324z" fill="#ED5564" /><path d="M767.992 213.354c-47.156 0-85.34 38.202-85.34 85.326v426.66c0 47.124 38.184 85.342 85.34 85.342 47.124 0 85.308-38.218 85.308-85.342V298.68c0-47.126-38.182-85.326-85.308-85.326z" fill="#ED5564" /><path d="M271.07 377.754c8.342-8.328 8.342-21.842 0-30.17-8.312-8.328-21.844-8.328-30.156 0-8.342 8.328-8.342 21.842 0 30.17 8.312 8.328 21.844 8.328 30.156 0zM240.914 518.25c-8.342 8.328-8.342 21.844 0 30.188 8.312 8.31 21.844 8.31 30.156 0 8.342-8.344 8.342-21.86 0-30.188-8.312-8.328-21.844-8.328-30.156 0zM240.914 688.932c-8.342 8.312-8.342 21.812 0 30.156 8.312 8.344 21.844 8.344 30.156 0 8.342-8.344 8.342-21.844 0-30.156-8.312-8.344-21.844-8.344-30.156 0zM399.066 249.758c8.342-8.328 8.342-21.842 0-30.17-8.312-8.328-21.844-8.328-30.156 0-8.342 8.328-8.342 21.842 0 30.17 8.312 8.328 21.844 8.328 30.156 0zM368.91 390.254c-8.342 8.328-8.342 21.844 0 30.172 8.312 8.328 21.844 8.328 30.156 0 8.342-8.328 8.342-21.844 0-30.172-8.312-8.328-21.844-8.328-30.156 0zM368.91 560.936c-8.342 8.312-8.342 21.812 0 30.156 8.312 8.344 21.844 8.344 30.156 0 8.342-8.344 8.342-21.844 0-30.156-8.312-8.344-21.844-8.344-30.156 0zM527.062 335.084a21.294 21.294 0 0 0 0-30.156c-8.312-8.344-21.844-8.344-30.156 0a21.298 21.298 0 0 0 0 30.156c8.312 8.344 21.844 8.344 30.156 0zM496.906 475.596c-8.342 8.328-8.342 21.828 0 30.154 8.312 8.344 21.844 8.344 30.156 0a21.292 21.292 0 0 0 0-30.154c-8.312-8.344-21.844-8.344-30.156 0zM496.906 646.246c-8.342 8.312-8.342 21.844 0 30.188 8.312 8.31 21.844 8.31 30.156 0 8.344-8.344 8.344-21.876 0-30.188-8.312-8.312-21.844-8.312-30.156 0zM655.058 249.758c8.344-8.328 8.344-21.842 0-30.17-8.312-8.328-21.844-8.328-30.156 0-8.344 8.328-8.344 21.842 0 30.17 8.312 8.328 21.844 8.328 30.156 0zM624.902 390.254c-8.344 8.328-8.344 21.844 0 30.172 8.312 8.328 21.844 8.328 30.156 0 8.344-8.328 8.344-21.844 0-30.172-8.312-8.328-21.844-8.328-30.156 0zM624.902 560.936c-8.344 8.312-8.344 21.812 0 30.156 8.312 8.344 21.844 8.344 30.156 0 8.344-8.344 8.344-21.844 0-30.156-8.312-8.344-21.844-8.344-30.156 0zM624.902 731.556c-8.344 8.376-8.344 21.874 0 30.186 8.312 8.312 21.844 8.312 30.156 0 8.344-8.312 8.344-21.81 0-30.186-8.312-8.312-21.844-8.312-30.156 0zM783.054 377.754c8.344-8.328 8.344-21.842 0-30.17-8.312-8.328-21.844-8.328-30.156 0-8.344 8.328-8.344 21.842 0 30.17 8.312 8.328 21.844 8.328 30.156 0zM752.898 518.25c-8.344 8.328-8.344 21.844 0 30.188 8.312 8.31 21.844 8.31 30.156 0 8.344-8.344 8.344-21.86 0-30.188-8.312-8.328-21.844-8.328-30.156 0zM752.898 688.932c-8.344 8.312-8.344 21.812 0 30.156 8.312 8.344 21.844 8.344 30.156 0 8.344-8.344 8.344-21.844 0-30.156-8.312-8.344-21.844-8.344-30.156 0z" fill="#434A54" /></svg>