<?xml version="1.0" standalone="no"?><!DOCTYPE svg PUBLIC "-//W3C//DTD SVG 1.1//EN" "http://www.w3.org/Graphics/SVG/1.1/DTD/svg11.dtd"><svg class="icon" width="128px" height="128.00px" viewBox="0 0 1024 1024" version="1.1" xmlns="http://www.w3.org/2000/svg"><path d="M799.214 128.026c-14.782-25.5-42.312-42.688-73.906-42.688h-511.98c-31.578 0-59.14 17.188-73.89 42.688H128v42.656c0 31.562 17.156 59.124 42.656 73.876v331.452h597.338V244.556c25.5-14.75 42.656-42.312 42.656-73.876V128.026h-11.436z" fill="#E2A67D" /><path d="M192 938.694H85.33c-11.782 0-21.328 9.5-21.328 21.312 0 11.748 9.546 21.31 21.328 21.31H192c11.782 0 21.328-9.562 21.328-21.31 0.002-11.812-9.546-21.312-21.328-21.312zM853.308 938.694h-106.656c-11.782 0-21.344 9.5-21.344 21.312 0 11.748 9.562 21.31 21.344 21.31h106.656c11.812 0 21.344-9.562 21.344-21.31a21.284 21.284 0 0 0-21.344-21.312z" fill="#434A54" /><path d="M810.652 128.026c0-47.156-38.218-85.342-85.344-85.342h-511.98C166.204 42.684 128 80.87 128 128.026c0 31.562 17.156 59.124 42.656 73.876v331.436h597.338V201.9c25.502-14.75 42.658-42.312 42.658-73.874z" fill="#F4B68C" /><path d="M959.996 469.336h-130.75v127.984h130.75c35.344 0 64-28.624 64-63.984 0-35.344-28.656-64-64-64z" fill="#434A54" /><path d="M917.308 917.318V448.024c0-47.156-38.188-85.342-85.312-85.342H106.658c-47.124 0-85.328 38.186-85.328 85.342v469.294c-11.782 0-21.328 9.562-21.328 21.376 0 11.75 9.546 21.312 21.328 21.312h895.978c11.812 0 21.344-9.562 21.344-21.312 0-11.814-9.53-21.376-21.344-21.376z" fill="#CCD1D9" /><path d="M703.996 704.008H234.658c-11.782 0-21.328 9.562-21.328 21.312 0 11.812 9.546 21.376 21.328 21.376h469.338c11.782 0 21.312-9.562 21.312-21.376 0-11.75-9.53-21.312-21.312-21.312zM234.658 618.696h469.338c11.782 0 21.312-9.562 21.312-21.376 0-11.75-9.532-21.312-21.312-21.312H234.658c-11.782 0-21.328 9.562-21.328 21.312 0 11.812 9.546 21.376 21.328 21.376z" fill="#AAB2BC" /><path d="M618.656 256.026H319.986c-11.782 0-21.328 9.532-21.328 21.312s9.546 21.344 21.328 21.344h298.67c11.782 0 21.344-9.562 21.344-21.344s-9.562-21.312-21.344-21.312z" fill="#E2A67D" /></svg>