<?xml version="1.0" standalone="no"?><!DOCTYPE svg PUBLIC "-//W3C//DTD SVG 1.1//EN" "http://www.w3.org/Graphics/SVG/1.1/DTD/svg11.dtd"><svg class="icon" width="128px" height="128.00px" viewBox="0 0 1024 1024" version="1.1" xmlns="http://www.w3.org/2000/svg"><path d="M885.068 184.194l-45.246-45.25c-8.312-8.342-21.842-8.342-30.154 0L299.28 649.298c-4 4-6.25 9.438-6.25 15.094s2.25 11.094 6.25 15.094l45.248 45.248a21.35 21.35 0 0 0 30.186 0l510.354-510.386a21.304 21.304 0 0 0 0-30.154z" fill="#CCD1D9" /><path d="M397.338 717.174l-90.528-90.498c-8.312-8.31-21.812-8.31-30.156 0L25.008 878.322c-16.094 16.124-25 37.532-25 60.342 0 22.782 8.906 44.218 25 60.342 16.124 16.094 37.562 24.968 60.342 24.968 22.812 0 44.216-8.876 60.34-24.968L397.338 747.36a21.354 21.354 0 0 0 0-30.186zM100.444 953.726a21.33 21.33 0 0 1-30.186 0c-8.312-8.312-8.312-21.812 0-30.156a21.334 21.334 0 0 1 30.186 0c8.312 8.344 8.312 21.844 0 30.156z" fill="#48CFAD" /><path d="M1008.158 235.878l-108.464-29 108.496-29.154c11.376-3.062 18.124-14.75 15.062-26.156-3.062-11.376-14.75-18.124-26.124-15.062l-108.652 29.218 79.56-79.59c8.344-8.344 8.344-21.842 0-30.156-8.312-8.342-21.81-8.342-30.154 0l-79.344 79.34 28.968-108.464c3.032-11.376-3.718-23.06-15.094-26.092-11.406-3.062-23.09 3.718-26.122 15.092L817.26 124.444l-29.154-108.62c-3.062-11.374-14.75-18.124-26.124-15.06s-18.124 14.748-15.062 26.124l29.124 108.622-79.53-79.53c-8.31-8.342-21.81-8.342-30.154 0-8.344 8.312-8.344 21.842 0 30.156l120.684 120.682-15.094 15.094-120.684-120.682c-8.312-8.344-21.844-8.344-30.154 0-8.344 8.312-8.344 21.842 0 30.154l120.682 120.682-15.094 15.094-120.682-120.684c-8.344-8.344-21.842-8.344-30.154 0-8.344 8.344-8.344 21.844 0 30.156l120.65 120.682-15.06 15.094-120.684-120.684a21.334 21.334 0 0 0-30.186 0c-8.312 8.344-8.312 21.842 0 30.186l120.682 120.652-15.094 15.092-120.65-120.682c-8.344-8.312-21.844-8.312-30.186 0-8.312 8.344-8.312 21.842 0 30.186l135.776 135.744 135.744 135.776a21.35 21.35 0 0 0 30.188 0c8.312-8.344 8.312-21.844 0-30.186l-120.684-120.684 15.094-15.062 120.652 120.652a21.216 21.216 0 0 0 15.094 6.25c5.466 0 10.936-2.062 15.092-6.25 8.312-8.312 8.312-21.812 0-30.156l-120.684-120.682 15.092-15.062 120.686 120.652a21.146 21.146 0 0 0 15.058 6.25c5.468 0 10.938-2.062 15.094-6.25 8.344-8.312 8.344-21.844 0-30.156l-120.682-120.682 15.094-15.094 120.682 120.682a21.276 21.276 0 0 0 15.062 6.25 21.3 21.3 0 0 0 15.094-6.25c8.344-8.312 8.344-21.842 0-30.154l-120.682-120.684 15.094-15.092 120.682 120.682a21.296 21.296 0 0 0 15.094 6.25c5.436 0 10.904-2.094 15.06-6.25 8.344-8.344 8.344-21.842 0-30.154l-79.374-79.404 108.464 28.998c1.844 0.5 3.718 0.75 5.532 0.75 9.438 0 18.062-6.312 20.594-15.842 3.062-11.372-3.718-23.058-15.094-26.122z" fill="#E6E9ED" /></svg>