<?xml version="1.0" standalone="no"?><!DOCTYPE svg PUBLIC "-//W3C//DTD SVG 1.1//EN" "http://www.w3.org/Graphics/SVG/1.1/DTD/svg11.dtd"><svg class="icon" width="128px" height="128.00px" viewBox="0 0 1024 1024" version="1.1" xmlns="http://www.w3.org/2000/svg"><path d="M971.732 142.538c-36.032-72.058-102.31-111.776-156.4-111.776H213.356l-21.344 725.3h661.32c54.09 0 82.372-39.688 118.4-111.746 33.686-67.372 52.248-156.48 52.248-250.882 0-94.434-18.562-183.524-52.248-250.896z" fill="#AAB2BC" /><path d="M971.732 142.538c-36.032-72.058-85.654-111.776-139.744-111.776H192.012l42.684 42.686c36.53 0 73.56 32.124 101.59 88.184 30.78 61.56 47.716 143.87 47.716 231.804v569.996l65.654 28.996 41.03-20.496 42.656 21.308 42.654-21.308 42.686 21.308 42.654-21.308 42.654 21.308 42.686-21.308 42.656 21.308 42.654-21.308 42.684 21.308 42.656-21.308 41.03 20.496 65.624-28.996V393.434c0-94.434-18.562-183.524-52.248-250.896z" fill="#E6E9ED" /><path d="M331.756 142.538c-36.028-72.06-85.652-111.778-139.744-111.778S88.298 70.478 52.266 142.536C18.582 209.91 0.02 299 0.02 393.434c0 94.402 18.562 183.512 52.248 250.882 36.03 72.058 85.652 111.746 139.746 111.746 54.09 0 103.714-39.688 139.744-111.746 33.686-67.372 52.248-156.48 52.248-250.882-0.002-94.434-18.564-183.524-52.25-250.896z" fill="#CCD1D9" /><path d="M234.698 393.434c0 47.124-19.124 85.308-42.684 85.308-23.562 0-42.656-38.184-42.656-85.308 0-47.124 19.092-85.34 42.656-85.34 23.56 0 42.684 38.218 42.684 85.34z" fill="#656D78" /><path d="M192.012 500.086c-19.876 0-37.374-13.062-49.25-36.78-9.5-19.03-14.75-43.842-14.75-69.872 0-26.062 5.25-50.874 14.75-69.872 11.876-23.75 29.374-36.812 49.25-36.812 19.906 0 37.406 13.062 49.248 36.812 9.532 19 14.75 43.81 14.75 69.872 0 26.03-5.218 50.842-14.75 69.872-11.842 23.718-29.342 36.78-49.248 36.78z m0-170.648c-0.718 0-5.624 2.282-11.094 13.186-6.5 13.03-10.218 31.53-10.218 50.81 0 19.25 3.718 37.78 10.218 50.78 5.468 10.906 10.376 13.218 11.094 13.218 0.75 0 5.656-2.312 11.092-13.218 6.5-13 10.25-31.532 10.25-50.78 0-19.28-3.75-37.78-10.25-50.81-5.436-10.906-10.342-13.186-11.092-13.186z" fill="#AAB2BC" /><path d="M469.344 414.746h-63.998c-11.78 0-21.342-9.532-21.342-21.312 0-11.78 9.562-21.342 21.342-21.342h63.998c11.782 0 21.344 9.562 21.344 21.342s-9.562 21.312-21.344 21.312zM871.61 414.746h-134.088c-11.782 0-21.342-9.532-21.342-21.312 0-11.78 9.56-21.342 21.342-21.342h134.088c11.784 0 21.344 9.562 21.344 21.342s-9.564 21.312-21.344 21.312z m-201.116 0h-134.12a21.298 21.298 0 0 1-21.312-21.312c0-11.78 9.532-21.342 21.312-21.342h134.12c11.75 0 21.31 9.562 21.31 21.342s-9.56 21.312-21.31 21.312zM1002.668 414.746h-63.996c-11.812 0-21.344-9.532-21.344-21.312 0-11.78 9.532-21.342 21.344-21.342h63.996c11.782 0 21.312 9.562 21.312 21.342a21.3 21.3 0 0 1-21.312 21.312z" fill="#CCD1D9" /></svg>