<?xml version="1.0" standalone="no"?><!DOCTYPE svg PUBLIC "-//W3C//DTD SVG 1.1//EN" "http://www.w3.org/Graphics/SVG/1.1/DTD/svg11.dtd"><svg class="icon" width="128px" height="128.00px" viewBox="0 0 1024 1024" version="1.1" xmlns="http://www.w3.org/2000/svg"><path d="M320.004 593.312h383.992v430.68H320.004z" fill="#CCD1D9" /><path d="M703.746 981.304H319.754c-11.782 0-21.344 9.562-21.344 21.376 0 11.75 9.562 21.312 21.344 21.312h383.992c11.782 0 21.344-9.562 21.344-21.312 0-11.812-9.562-21.376-21.344-21.376z" fill="#434A54" /><path d="M512 959.992c-11.782 0-21.344-9.562-21.344-21.312v-103.558c0-11.812 9.562-21.344 21.344-21.344s21.312 9.532 21.312 21.344v103.558c0 11.75-9.53 21.312-21.312 21.312z" fill="#E6E9ED" /><path d="M575.966 0.008h-127.998c-11.782 0-21.344 9.546-21.344 21.328 0 11.78 9.562 21.342 21.344 21.342h127.998c11.782 0 21.344-9.562 21.344-21.342 0-11.782-9.562-21.328-21.344-21.328z" fill="#5D9CEC" /><path d="M746.652 21.336H277.348c-23.532 0-42.688 19.14-42.688 42.67v426.664c0 23.516 19.156 42.658 42.688 42.658h469.304c23.532 0 42.656-19.14 42.656-42.658V64.006c0-23.53-19.124-42.67-42.656-42.67z" fill="#CCD1D9" /><path d="M746.652 21.336h-42.688c23.532 0 42.688 19.14 42.688 42.67v426.664c0 23.516-19.156 42.658-42.688 42.658h42.688c23.532 0 42.656-19.14 42.656-42.658V64.006c0-23.53-19.124-42.67-42.656-42.67z" fill="#FFFFFF" opacity=".2" /><path d="M192.004 533.328v21.36c0 74.434 34.282 149.934 94.062 207.09 61.78 59.032 141.996 91.528 225.934 91.528 83.904 0 164.152-32.496 225.934-91.528 59.782-57.156 94.06-132.656 94.06-207.09v-21.36H192.004z" fill="#E6E9ED" /><path d="M831.994 533.328c0-35.282-30.31-64-67.56-64H259.566c-37.25 0-67.562 28.718-67.562 64h639.99z" fill="#5D9CEC" /><path d="M764.434 469.328h-42.656c37.25 0 67.532 28.718 67.532 64v21.36c0 74.434-34.282 149.934-94.062 207.09-56.5 54.032-128.496 85.808-204.59 90.84 7.094 0.438 14.188 0.688 21.344 0.688 83.904 0 164.152-32.496 225.934-91.528 59.782-57.156 94.06-132.656 94.06-207.09v-21.36c-0.002-35.282-30.312-64-67.562-64z" fill="#FFFFFF" opacity=".2" /></svg>