<?xml version="1.0" standalone="no"?><!DOCTYPE svg PUBLIC "-//W3C//DTD SVG 1.1//EN" "http://www.w3.org/Graphics/SVG/1.1/DTD/svg11.dtd"><svg class="icon" width="128px" height="128.00px" viewBox="0 0 1024 1024" version="1.1" xmlns="http://www.w3.org/2000/svg"><path d="M533.66 173.674c34.28 8.562 55.122 43.31 46.56 77.59-8.594 34.28-43.312 55.124-77.608 46.562-34.282-8.594-220.65-84.716-212.072-118.996 8.564-34.28 208.838-13.718 243.12-5.156z" fill="#9ED36A" /><path d="M502.566 188.454c34.11-9.28 69.246 10.844 78.56 44.936 9.282 34.092-10.814 69.248-44.922 78.528-34.108 9.312-233.898 34.03-243.18-0.062-9.296-34.092 175.448-114.12 209.542-123.402z" fill="#EC5564" /><path d="M94.656 879.714c-7.92 8.184-18.56 12.812-29.952 13-11.39 0.184-22.172-4.062-30.358-12-16.906-16.344-17.36-43.406-1.016-60.312l653.886-675.82c7.906-8.188 18.562-12.782 29.966-12.968 11.376-0.188 22.156 4.062 30.376 11.968 16.876 16.376 17.31 43.436 1 60.342L94.656 879.714z" fill="#A85D5D" /><path d="M762.37 128.268c-25.404-24.562-65.936-23.906-90.496 1.5L18.004 805.59c-24.562 25.376-23.89 65.906 1.516 90.464 25.388 24.562 65.904 23.876 90.464-1.5H110v-0.028h0.018l653.852-675.792c24.562-25.404 23.874-65.902-1.5-90.466zM733.214 189.08L81.798 862.336l-2.454 2.536-0.016 0.032c-5.344 5.5-11.672 6.434-14.968 6.496-3.296 0.036-9.672-0.652-15.188-5.996-8.452-8.188-8.688-21.718-0.5-30.156L702.56 159.424c8.154-8.468 21.688-8.686 30.124-0.5 8.498 8.188 8.688 21.718 0.53 30.156z" fill="#965353" /><path d="M596.75 146.112c-8.186 8.468-21.686 8.688-30.186 0.5-8.438-8.188-8.688-21.686-0.5-30.156 8.186-8.468 21.686-8.688 30.186-0.5 8.44 8.188 8.688 21.688 0.5 30.156zM507.722 238.14c-8.188 8.468-21.704 8.686-30.156 0.5-8.468-8.188-8.704-21.688-0.516-30.156 8.204-8.468 21.704-8.688 30.156-0.5 8.47 8.188 8.704 21.688 0.516 30.156z" fill="#F5BA45" /><path d="M1023.986 440.634L627.406 175.768l-61.342-59.31-88.952 91.966 61.326 59.31-29.654 30.656 122.652 118.622 155.306 268.928c185.496-69.092 237.244-245.306 237.244-245.306z" fill="#F5BA45" /><path d="M767.12 651.972l19.626 33.964c185.494-69.09 237.242-245.304 237.242-245.304L990.8 418.478c-11.968 33.5-69.372 170.714-223.68 233.494zM600.75 387.386l-91.964-88.998 148.274-153.276 91.998 88.966z" fill="#FECD57" /><path d="M644.25 281.078c-8.19 8.468-21.69 8.686-30.188 0.5-8.438-8.188-8.688-21.718-0.5-30.188 8.188-8.438 21.688-8.688 30.188-0.5 8.436 8.218 8.688 21.718 0.5 30.188z" fill="#424953" /><path d="M360.054 513.288L93.156 789.246l-30.67-29.652L329.4 483.632zM421.38 572.598L154.466 848.558l-30.654-29.656 266.898-275.96z" fill="#E8563F" /><path d="M390.522 543.16L123.812 818.902l-30.656-29.656 266.696-275.74z" fill="#FB6D51" /><path d="M172.826 825.34l-42.638 0.688-2.142-127.59 42.656-0.72zM256.7 737.876l-42.656 0.718-2.124-127.622 42.654-0.686zM340.448 643.156l-42.656 0.72-2.126-127.622 42.656-0.718z" fill="#E8563F" /></svg>