<?xml version="1.0" standalone="no"?><!DOCTYPE svg PUBLIC "-//W3C//DTD SVG 1.1//EN" "http://www.w3.org/Graphics/SVG/1.1/DTD/svg11.dtd"><svg class="icon" width="128px" height="128.00px" viewBox="0 0 1024 1024" version="1.1" xmlns="http://www.w3.org/2000/svg"><path d="M967.022 39.82c10.218-5.874 13.718-18.936 7.812-29.124-5.876-10.218-18.938-13.718-29.124-7.812l-166.278 95.998 21.312 36.936 166.278-95.998zM1013.332 49.164c-10.218-5.876-23.25-2.406-29.154 7.812l-96 166.28 36.938 21.31 95.998-166.246c5.906-10.218 2.406-23.25-7.782-29.156z" fill="#656D78" /><path d="M871.396 253.848l-108.214-33.716c-120.184 258.118-575.64 803.856-575.64 803.856s489.36-254.53 683.854-770.14z" fill="#CCD1D9" /><path d="M770.15 152.6l33.718 108.216C545.782 381.034 0.014 836.49 0.014 836.49S254.554 347.096 770.15 152.6z" fill="#E6E9ED" /><path d="M832.868 276.598c-30.466 0-58.81-16.344-73.998-42.686-11.406-19.75-14.438-42.718-8.532-64.75s20-40.406 39.75-51.81a85.124 85.124 0 0 1 42.56-11.438c30.438 0 58.81 16.342 73.998 42.654 23.532 40.75 9.532 93.06-31.218 116.592-12.968 7.468-27.686 11.438-42.56 11.438z" fill="#656D78" /><path d="M925.116 137.912c-19.75-34.216-55.592-53.342-92.466-53.342a105.88 105.88 0 0 0-53.216 14.312c-51.032 29.436-68.498 94.686-39.062 145.684 19.782 34.248 55.624 53.374 92.498 53.374 18.094 0 36.438-4.624 53.216-14.312 51.03-29.468 68.498-94.684 39.03-145.716z m-60.374 108.748a63.762 63.762 0 0 1-31.876 8.594c-22.842 0-44.124-12.25-55.53-31.998-8.562-14.814-10.812-32.062-6.406-48.562 4.438-16.532 15.032-30.312 29.812-38.876 9.75-5.624 20.782-8.594 31.904-8.594 22.844 0 44.124 12.282 55.53 32.032 17.658 30.562 7.126 69.782-23.434 87.404z" fill="#434A54" /><path d="M847.836 206.316c-8.312 8.346-21.842 8.346-30.154 0-8.344-8.312-8.344-21.81 0-30.154 8.312-8.344 21.842-8.344 30.154 0 8.344 8.344 8.344 21.842 0 30.154z" fill="#434A54" /></svg>