<?xml version="1.0" standalone="no"?><!DOCTYPE svg PUBLIC "-//W3C//DTD SVG 1.1//EN" "http://www.w3.org/Graphics/SVG/1.1/DTD/svg11.dtd"><svg class="icon" width="128px" height="128.00px" viewBox="0 0 1024 1024" version="1.1" xmlns="http://www.w3.org/2000/svg"><path d="M565.328 213.344c-70.656 0-127.968 57.282-127.968 128v153.438h42.656v-153.438c0-47.062 38.282-85.344 85.312-85.344 47.062 0 85.376 38.282 85.376 85.344v456h42.624v-456c0-70.72-57.282-128-128-128z" fill="#E6E9ED" /><path d="M565.328 0c-188.5 0-341.312 152.812-341.312 341.344v153.438h42.656v-153.438c0-40.344 7.906-79.468 23.468-116.25 15.032-35.562 36.594-67.5 64.032-94.938 27.438-27.468 59.376-49 94.938-64.032 36.812-15.562 75.906-23.468 116.218-23.468 40.376 0 79.468 7.906 116.25 23.468 35.562 15.032 67.5 36.562 94.968 64.032 27.438 27.438 48.968 59.376 64.032 94.938 15.562 36.782 23.438 75.906 23.438 116.25V448h42.688v-106.656C906.704 152.812 753.86 0 565.328 0z" fill="#E6E9ED" /><path d="M522.672 981.312c0 23.562-19.094 42.688-42.656 42.688H53.36c-23.562 0-42.688-19.124-42.688-42.688V469.344c0-23.562 19.124-42.688 42.688-42.688h426.656c23.562 0 42.656 19.124 42.656 42.688v511.968z" fill="#48CFAD" /><path d="M480.016 426.656H437.36V1024h43c23.406-0.188 42.312-19.188 42.312-42.688V469.344c0-23.562-19.094-42.688-42.656-42.688z" fill="#37BC9B" /><path d="M672.016 725.344c-71.656 0-89.624 159.594-89.624 209.032 0 49.5 40.124 89.624 89.624 89.624 49.5 0 89.624-40.124 89.624-89.624 0-49.438-17.968-209.032-89.624-209.032z" fill="#434A54" /><path d="M885.328 661.344c-58.812 0-106.624-47.876-106.624-106.688S826.516 448 885.328 448c58.844 0 106.688 47.844 106.688 106.656s-47.844 106.688-106.688 106.688z" fill="#E6E9ED" /><path d="M885.328 426.656c-70.688 0-128 57.312-128 128s57.312 128 128 128c70.718 0 128-57.312 128-128s-57.282-128-128-128z m0 213.376c-47.032 0-85.312-38.312-85.312-85.376 0-47.032 38.282-85.312 85.312-85.312 47.062 0 85.376 38.282 85.376 85.312 0 47.062-38.314 85.376-85.376 85.376z" fill="#CCD1D9" /><path d="M936.86 524.5c-0.032-11.782-9.562-21.344-21.344-21.344a21.28 21.28 0 0 0-15.062 6.25l-30.188 30.188a21.15 21.15 0 0 0-6.25 15.062c0 11.812 9.562 21.376 21.312 21.376 5.906 0 11.25-2.406 15.124-6.25l30.156-30.188a21.406 21.406 0 0 0 6.252-15.094z" fill="#656D78" /><path d="M303.734 670.812c-20.718-10.032-43.032-5.782-58.376 12.156-15.376-17.938-37.688-22.188-58.376-12.156-26.344 14.282-38.876 46.876-26 81 16.376 45.312 75.75 66.532 84.376 69.312 8.624-2.782 67.968-24 84.312-69.312 12.94-34.124 0.376-66.718-25.936-81z" fill="#F5F7FA" /><path d="M224.016 384h42.656v42.656h-42.656zM437.36 384h42.656v42.656H437.36z" fill="#CCD1D9" /></svg>