<?xml version="1.0" standalone="no"?><!DOCTYPE svg PUBLIC "-//W3C//DTD SVG 1.1//EN" "http://www.w3.org/Graphics/SVG/1.1/DTD/svg11.dtd"><svg class="icon" width="128px" height="128.00px" viewBox="0 0 1024 1024" version="1.1" xmlns="http://www.w3.org/2000/svg"><path d="M821.672 193.52c-16.686 16.656-43.684 16.656-60.372 0l-30.12-30.186c-16.688-16.656-16.688-43.654 0-60.308l90.492-90.494c16.624-16.656 43.624-16.656 60.308 0l30.156 30.154c16.654 16.656 16.654 43.684 0 60.34L821.672 193.52z" fill="#CCD1D9" /><path d="M814.11 20.062l-30.184 30.154c8.344 8.344 21.874 8.344 30.184 0 8.312-8.312 8.312-21.81 0-30.154zM768.864 65.308l-30.186 30.154c8.376 8.344 21.874 8.344 30.186 0 8.312-8.31 8.312-21.81 0-30.154z" fill="#A9B1BC" /><path d="M262.6 662.084c-8.312 8.312-21.812 8.312-30.156 0a21.33 21.33 0 0 1 0-30.186c8.344-8.312 21.844-8.312 30.156 0 8.31 8.344 8.342 21.844 0 30.186z" fill="#434A54" /><path d="M233.6 902.258l-90.494-90.496L912.136 42.686l90.492 90.494z" fill="#E6E9ED" /><path d="M610.624 585.528c16.624-16.656 16.624-43.686 0-60.308l-90.478-90.496c-16.686-16.686-43.686-16.686-60.34 0L52.612 841.918c-41.652 41.652-41.652 109.18 0 150.8 41.622 41.654 109.18 41.654 150.802 0l407.21-407.19z" fill="#46CEAD" /><path d="M550.284 645.836l-150.82-150.804 30.186-30.154 150.788 150.802z" fill="#35BB9B" /></svg>