<?xml version="1.0" standalone="no"?><!DOCTYPE svg PUBLIC "-//W3C//DTD SVG 1.1//EN" "http://www.w3.org/Graphics/SVG/1.1/DTD/svg11.dtd"><svg class="icon" width="128px" height="128.00px" viewBox="0 0 1024 1024" version="1.1" xmlns="http://www.w3.org/2000/svg"><path d="M917.343208 277.311458C917.343208 124.155758 793.187451 0 639.99975 0c-46.18791 0-89.687825 11.281978-127.99975 31.249939C473.688075 11.281978 430.18816 0 384.00025 0 230.812549 0 106.656792 124.155758 106.656792 277.311458c0 42.093918 9.405982 81.96784 26.155949 117.687771l83.561836 180.999646c-19.999961 63.999875 12.561975 447.999125 146.281715 447.999125 42.061918 0 108.093789-356.967303 149.311708-357.249302S619.217791 1023.998 661.311708 1023.998c133.687739 0 166.249675-383.99925 146.249715-447.999125l83.623836-180.999646c16.751967-35.71793 26.157949-75.593852 26.157949-117.687771z" fill="#E6E9ED" /><path d="M661.311708 981.310083c-42.093918 0-108.123789-357.531302-149.343708-357.249302-41.217919 0.311999-107.249791 357.249302-149.311708 357.249302-104.061797 0-146.843713-232.561546-151.281705-365.875285C206.500597 733.030568 246.250519 1023.998 362.656292 1023.998c42.061918 0 108.093789-356.967303 149.311708-357.249302S619.217791 1023.998 661.311708 1023.998c116.375773 0 156.123695-290.967432 151.281705-408.561202-4.437991 133.31174-47.217908 365.873285-151.281705 365.873285zM175.876656 94.031816S246.252519 72.625858 384.00025 85.313833c45.96791 4.249992 89.687825 11.311978 127.99975 31.281939V31.249939C473.688075 11.281978 430.18816 0 384.00025 0c-82.905838 0-157.281693 36.375929-208.123594 94.031816zM848.123344 94.031816S777.747481 72.625858 639.99975 85.313833c-45.96791 4.249992-89.687825 11.311978-127.99975 31.281939V31.249939C550.311925 11.281978 593.81184 0 639.99975 0c82.905838 0 157.281693 36.375929 208.123594 94.031816z" fill="#CCD1D9" /><path d="M341.312333 383.99925c-58.811885 0-106.655792-47.843907-106.655791-106.687792 0-58.811885 47.843907-106.655792 106.655791-106.655791S448.000125 218.499573 448.000125 277.311458C448.000125 336.155343 400.124219 383.99925 341.312333 383.99925z" fill="#434A54" /><path d="M341.312333 149.311708c-70.687862 0-127.99975 57.311888-127.99975 127.99975 0 70.717862 57.311888 127.99975 127.99975 127.99975s127.99975-57.281888 127.99975-127.99975c0-70.687862-57.311888-127.99975-127.99975-127.99975z m0 213.343584c-47.031908 0-85.311833-38.281925-85.311833-85.343834C256.0005 230.28155 294.282425 191.999625 341.312333 191.999625c47.061908 0 85.343833 38.281925 85.343834 85.311833 0 47.063908-38.279925 85.343833-85.343834 85.343834z" fill="#CCD1D9" /></svg>