<?xml version="1.0" standalone="no"?><!DOCTYPE svg PUBLIC "-//W3C//DTD SVG 1.1//EN" "http://www.w3.org/Graphics/SVG/1.1/DTD/svg11.dtd"><svg class="icon" width="128px" height="128.00px" viewBox="0 0 1024 1024" version="1.1" xmlns="http://www.w3.org/2000/svg"><path d="M512 170.696c11.782 0 21.328-9.562 21.328-21.344V21.356c0-11.782-9.546-21.344-21.328-21.344s-21.328 9.562-21.328 21.344v127.996c0 11.78 9.546 21.344 21.328 21.344zM628.746 191.258c11.062 4.032 23.312-1.656 27.344-12.75l43.782-120.28c4-11.062-1.688-23.31-12.75-27.342s-23.312 1.688-27.376 12.748l-43.75 120.28a21.332 21.332 0 0 0 12.75 27.344zM367.91 178.508c4.032 11.094 16.282 16.782 27.344 12.75 11.078-4.032 16.78-16.25 12.75-27.344L364.24 43.666v-0.032c-4.032-11.06-16.28-16.78-27.342-12.748-11.078 4.032-16.782 16.28-12.75 27.342l43.762 120.28z" fill="#ED5564" /><path d="M816.618 457.282c0-115.09-93.312-208.4-208.434-208.4-34.688 0-67.402 8.5-96.184 23.5-28.782-15-61.5-23.5-96.186-23.5-115.106 0-208.416 93.31-208.416 208.4 0 31.624 7.046 61.594 19.656 88.438l62.78 136.028c-15.03 48.092 9.454 336.648 109.934 336.648 31.61 0 81.232-268.244 112.216-268.462 30.968-0.218 80.574 268.462 112.2 268.462 100.496 0 124.964-288.556 109.934-336.648l62.844-136.028c12.592-26.844 19.656-56.814 19.656-88.438z" fill="#E6E9ED" /><path d="M512 703.996C274.772 703.996 367.628 496 0.012 512v511.988h1023.976V512C656.372 496 749.242 703.996 512 703.996z" fill="#EC87C0" /><path d="M512 703.996C274.772 703.996 367.628 496 0.012 512v42.686c367.616-15.998 274.758 191.996 511.988 191.996 237.242 0 144.372-207.994 511.988-191.996V512C656.372 496 749.242 703.996 512 703.996z" fill="#FFFFFF" opacity=".2" /></svg>