<?xml version="1.0" standalone="no"?><!DOCTYPE svg PUBLIC "-//W3C//DTD SVG 1.1//EN" "http://www.w3.org/Graphics/SVG/1.1/DTD/svg11.dtd"><svg class="icon" width="128px" height="128.00px" viewBox="0 0 1024 1024" version="1.1" xmlns="http://www.w3.org/2000/svg"><path d="M576.682 307.996c-16.686 16.656-43.684 16.656-60.34 0l-60.372-60.34c-16.654-16.654-16.654-43.684 0-60.34l150.868-150.866c16.686-16.654 43.684-16.654 60.34 0l60.34 60.34c16.686 16.656 16.686 43.686 0 60.34l-150.836 150.866z" fill="#E6E9ED" /><path d="M667.178 6.266c-8.312-8.31-21.844-8.31-30.156 0L38.588 604.698c-8.342 8.342-8.31 21.842 0 30.186 8.344 8.312 21.844 8.312 30.188 0L667.178 36.452a21.334 21.334 0 0 0 0-30.186z" fill="#5D9CEC" /><path d="M712.456 172.224a21.33 21.33 0 0 0-30.186 0c-8.344 8.344-8.312 21.842 0 30.186l30.186-30.186zM637.022 247.656l30.156-30.184c-8.312-8.312-21.844-8.312-30.156 0a21.328 21.328 0 0 0 0 30.184zM591.776 292.904l30.154-30.154a21.33 21.33 0 0 0-30.186 0c-8.312 8.312-8.312 21.842 0 30.154h0.032z" fill="#CCD1D9" /><path d="M855.884 496.704l-105.87-105.868 165.96-135.774 75.682 75.684z" fill="#E6E9ED" /><path d="M895.318 536.014c15.562-17.53 14.75-45.466-1.844-62.09l-120.68-120.68c-16.594-16.592-44.528-17.404-62.09-1.844L236.452 772.5c-17.562 15.56-18.342 41.902-1.75 58.496l181.02 181.02c16.624 16.594 42.936 15.812 58.528-1.75l421.068-474.252z" fill="#AC92EB" /><path d="M236.452 772.5c-17.562 15.56-18.342 41.902-1.75 58.496l181.02 181.02c16.624 16.594 42.936 15.812 58.528-1.75l14.218-16.032-235.984-235.984-16.032 14.25z" fill="#967ADC" /><path d="M279.982 846.056c-8.344-8.31-21.842-8.31-30.186 0v0.032l30.186 30.154c8.31-8.344 8.31-21.842 0-30.186zM340.322 906.428a21.334 21.334 0 0 0-30.186 0l30.186 30.154c8.31-8.344 8.31-21.842 0-30.154z" fill="#AC92EB" /><path d="M938.72 307.996a21.332 21.332 0 0 0 30.188 0l-30.188-30.184c-8.31 8.342-8.31 21.84 0 30.184z" fill="#CCD1D9" /><path d="M400.662 966.77a21.33 21.33 0 0 0-30.186 0l30.186 30.152c8.31-8.312 8.31-21.842 0-30.152z" fill="#AC92EB" /><path d="M667.206 36.484l15.092 15.096L471.06 262.784l-15.092-15.094z" fill="#CCD1D9" /></svg>