<?xml version="1.0" standalone="no"?><!DOCTYPE svg PUBLIC "-//W3C//DTD SVG 1.1//EN" "http://www.w3.org/Graphics/SVG/1.1/DTD/svg11.dtd"><svg class="icon" width="128px" height="128.00px" viewBox="0 0 1024 1024" version="1.1" xmlns="http://www.w3.org/2000/svg"><path d="M917.343208 277.311458C917.343208 124.155758 793.155451 0 639.99975 0c-46.18791 0-89.687825 11.281978-127.99975 31.249939C473.718075 11.281978 430.18816 0 384.00025 0 230.844549 0 106.656792 124.155758 106.656792 277.311458c0 42.093918 9.405982 81.96784 26.155949 117.687771l83.561836 180.999646c-19.999961 63.999875 12.561975 447.999125 146.281715 447.999125 42.061918 0 108.093789-356.967303 149.311708-357.249302C553.18792 666.436698 619.217791 1023.998 661.281708 1023.998c133.717739 0 166.311675-383.99925 146.311715-447.999125l83.593836-180.999646c16.749967-35.71793 26.155949-75.593852 26.155949-117.687771z" fill="#E6E9ED" /><path d="M661.281708 981.310083c-42.061918 0-108.093789-357.531302-149.311708-357.249302-41.217919 0.311999-107.249791 357.249302-149.311708 357.249302-104.061797 0-146.875713-232.561546-151.311705-365.875285C206.500597 733.030568 246.250519 1023.998 362.656292 1023.998c42.061918 0 108.093789-356.967303 149.311708-357.249302C553.18792 666.436698 619.217791 1023.998 661.281708 1023.998c116.405773 0 156.155695-290.967432 151.311705-408.561202-4.437991 133.31174-47.249908 365.873285-151.311705 365.873285zM848.093344 94.031816C797.281443 36.375929 722.905588 0 639.99975 0c-46.15591 0-89.687825 11.281978-127.99975 31.249939C473.718075 11.281978 430.18816 0 384.00025 0c-82.905838 0-157.281693 36.375929-208.093594 94.031816 0 0 70.343863-21.405958 208.093594-8.717983 45.96791 4.249992 89.717825 11.311978 127.99975 31.281939 38.311925-19.967961 82.03184-27.031947 127.99975-31.281939 137.749731-12.689975 208.093594 8.717983 208.093594 8.717983z" fill="#CCD1D9" /><path d="M266.18848 26.187949c47.405907 86.123832 138.999729 144.467718 244.249523 144.467718 105.717794 0 197.655614-58.875885 244.875522-145.593716C720.217593 8.967982 681.15567 0 639.99975 0c-46.18791 0-89.687825 11.281978-127.99975 31.249939C473.718075 11.281978 430.18816 0 384.00025 0c-42.123918 0-82.03184 9.405982-117.81177 26.187949z" fill="#FB6D51" /><path d="M374.062269 0.188a163.499681 163.499681 0 0 0-5.655989 0.249999c-0.781998 0.032-1.531997 0.094-2.311995 0.156-1.811996 0.094-3.623993 0.218-5.405989 0.375999-0.749999 0.062-1.499997 0.124-2.249996 0.218-1.811996 0.156-3.623993 0.311999-5.437989 0.531999-0.687999 0.062-1.375997 0.156-2.061996 0.249999-1.843996 0.218-3.717993 0.437999-5.56199 0.687999l-1.875996 0.281999c-1.905996 0.281999-3.781993 0.561999-5.687989 0.875999-0.531999 0.094-1.093998 0.218-1.655997 0.311999-1.937996 0.343999-3.905992 0.687999-5.843988 1.061998-0.467999 0.094-0.967998 0.218-1.467997 0.311999-1.999996 0.405999-3.967992 0.811998-5.937989 1.249998-0.437999 0.094-0.875998 0.218-1.311997 0.311999a191.303626 191.303626 0 0 0-6.061988 1.467997c-0.375999 0.094-0.781998 0.188-1.187998 0.312-2.031996 0.531999-4.061992 1.061998-6.093988 1.623997-0.343999 0.094-0.687999 0.218-1.061998 0.311999-2.061996 0.593999-4.093992 1.217998-6.123988 1.843996-0.343999 0.094-0.655999 0.218-0.999998 0.312a450.999119 450.999119 0 0 0-6.093988 1.999996c-0.343999 0.124-0.655999 0.25-0.999998 0.375999-1.999996 0.687999-3.999992 1.405997-5.999988 2.155996l-1.031998 0.375999c-1.967996 0.749999-3.937992 1.531997-5.875989 2.311996-0.375999 0.156-0.749999 0.311999-1.093998 0.437999-1.905996 0.781998-3.811993 1.593997-5.717989 2.405995l-1.217997 0.561999c-1.811996 0.811998-3.655993 1.623997-5.46799 2.467995l-0.375999 0.188A281.279451 281.279451 0 0 0 306.000402 81.311841c22.999955 0.188 48.999904 1.343997 77.999848 3.999992 45.96791 4.249992 89.717825 11.311978 127.99975 31.281939 38.311925-19.967961 82.03184-27.031947 127.99975-31.281939 27.687946-2.531995 52.655897-3.717993 74.875854-3.967992a279.645454 279.645454 0 0 0 40.437921-56.28189c-0.437999-0.218-0.905998-0.405999-1.343998-0.623999-1.717997-0.749999-3.405993-1.531997-5.12399-2.249995-0.437999-0.188-0.875998-0.375999-1.281997-0.531999a196.913615 196.913615 0 0 0-5.467989-2.249996 23.323954 23.323954 0 0 0-1.061998-0.405999c-1.937996-0.749999-3.843992-1.499997-5.781989-2.217996-0.281999-0.094-0.593999-0.188-0.875998-0.281999-1.999996-0.749999-3.999992-1.437997-6.031989-2.123996-0.25-0.094-0.531999-0.156-0.781998-0.25-2.061996-0.687999-4.123992-1.375997-6.217988-1.999996-0.218-0.062-0.467999-0.124-0.687999-0.217999-2.123996-0.623999-4.217992-1.249998-6.343987-1.843997a7.503985 7.503985 0 0 1-0.811999-0.217999 387.505243 387.505243 0 0 0-6.311987-1.655997 9.309982 9.309982 0 0 1-0.905998-0.218c-2.093996-0.499999-4.187992-0.999998-6.311988-1.467997-0.343999-0.062-0.687999-0.156-1.061998-0.217999a419.397181 419.397181 0 0 0-6.187988-1.281998c-0.437999-0.094-0.875998-0.156-1.311997-0.249999-1.999996-0.375999-3.999992-0.717999-6.031989-1.061998-0.561999-0.094-1.123998-0.156-1.687996-0.25-1.905996-0.311999-3.811993-0.593999-5.717989-0.875998-0.687999-0.094-1.405997-0.156-2.093996-0.25-1.781997-0.218-3.561993-0.467999-5.37599-0.655998-0.875998-0.094-1.749997-0.156-2.623994-0.25-1.623997-0.156-3.281994-0.343999-4.905991-0.467999-1.093998-0.094-2.187996-0.156-3.281993-0.217999-1.437997-0.124-2.875994-0.218-4.311992-0.312-1.437997-0.062-2.875994-0.124-4.311992-0.155999A118.745768 118.745768 0 0 0 647.719735 0.1C645.15574 0.032 642.593745 0 639.99975 0c-46.15591 0-89.687825 11.281978-127.99975 31.249939C473.718075 11.281978 430.18816 0 384.00025 0c-2.623995 0-5.21799 0.032-7.811985 0.094l-2.125996 0.094z" fill="#E8563F" /></svg>