<?xml version="1.0" standalone="no"?><!DOCTYPE svg PUBLIC "-//W3C//DTD SVG 1.1//EN" "http://www.w3.org/Graphics/SVG/1.1/DTD/svg11.dtd"><svg class="icon" width="128px" height="128.00px" viewBox="0 0 1024 1024" version="1.1" xmlns="http://www.w3.org/2000/svg"><path d="M917.343208 277.311458C917.343208 124.155758 793.155451 0 639.99975 0c-46.18791 0-89.717825 11.281978-127.99975 31.249939C473.718075 11.281978 430.15616 0 384.00025 0 230.844549 0 106.656792 124.155758 106.656792 277.311458c0 42.093918 9.405982 81.96784 26.155949 117.687771l83.561836 180.999646c-19.999961 63.999875 12.561975 447.999125 146.281715 447.999125 42.061918 0 108.093789-356.967303 149.311708-357.249302C553.18792 666.436698 619.217791 1023.998 661.281708 1023.998c133.717739 0 166.311675-383.99925 146.311715-447.999125l83.593836-180.999646c16.749967-35.71793 26.155949-75.593852 26.155949-117.687771z" fill="#FFCE54" /><path d="M661.281708 981.310083c-42.061918 0-108.093789-357.531302-149.311708-357.249302-41.217919 0.311999-107.249791 357.249302-149.311708 357.249302-104.061797 0-146.875713-232.561546-151.311705-365.875285C206.500597 733.030568 246.250519 1023.998 362.656292 1023.998c42.061918 0 108.093789-356.967303 149.311708-357.249302C553.18792 666.436698 619.217791 1023.998 661.281708 1023.998c116.405773 0 156.155695-290.967432 151.311705-408.561202-4.437991 133.31174-47.249908 365.873285-151.311705 365.873285zM848.093344 94.031816C797.281443 36.375929 722.905588 0 639.99975 0c-46.15591 0-89.717825 11.281978-127.99975 31.249939C473.718075 11.281978 430.15616 0 384.00025 0c-82.905838 0-157.281693 36.375929-208.093594 94.031816 0 0 70.343863-21.405958 208.093594-8.717983 45.96791 4.249992 89.717825 11.311978 127.99975 31.281939 38.281925-19.967961 82.03184-27.031947 127.99975-31.281939 137.749731-12.689975 208.093594 8.717983 208.093594 8.717983z" fill="#F6BB42" /><path d="M646.031738 200.937608a21.305958 21.305958 0 0 0-15.967969-7.623986l-60.561881-0.999998-4.093992-38.749924c0-0.062 0-0.094-0.032-0.124L550.719924 14.721971a277.691458 277.691458 0 0 0-38.717924 16.531968c-0.843998-0.437999-1.717997-0.843998-2.593995-1.281998l11.687977 110.311785L419.000182 171.593665a21.315958 21.315958 0 0 0-14.499972 15.53197l-19.937961 85.343833c-2.687995 11.467978 4.437991 22.937955 15.905969 25.62395a21.979957 21.979957 0 0 0 4.87599 0.561999c9.687981 0 18.467964-6.623987 20.74996-16.467968l17.155966-73.405857 82.405839-25.28195 2.843995 26.749947 0.094 0.843999 9.78198 66.65587-45.68791 97.15581c-4.99999 10.687979-0.437999 23.375954 10.24998 28.405944 2.905994 1.375997 5.999988 2.031996 9.061982 2.031996 7.999984-0.032 15.687969-4.561991 19.311962-12.281976l48.405906-102.967799c1.781997-3.811993 2.405995-8.031984 1.781996-12.187976l-6.249988-42.843916 44.405914 0.749998 46.717908 55.593892a21.373958 21.373958 0 0 0 16.343969 7.593985c4.843991 0 9.717981-1.655997 13.717973-5.03199 9.031982-7.561985 10.18798-21.031959 2.593995-30.031941l-52.997897-62.997877z" fill="#656D78" /><path d="M518.249988 113.467778c13.217974-6.311988 27.031947-11.187978 41.311919-15.06197l-8.843983-83.687837c-1.281997 0.437999-2.561995 0.875998-3.843992 1.343998l-2.623995 0.937998c-1.499997 0.561999-2.999994 1.123998-4.467991 1.687997-1.499997 0.593999-2.967994 1.187998-4.467992 1.781996-0.937998 0.375999-1.905996 0.781998-2.875994 1.187998-1.467997 0.623999-2.905994 1.249998-4.375991 1.905996-0.623999 0.25-1.249998 0.531999-1.843997 0.811998-2.061996 0.905998-4.093992 1.875996-6.123988 2.843995-0.593999 0.281999-1.155998 0.561999-1.749996 0.843998A243.999523 243.999523 0 0 0 512 31.251939c-0.843998-0.437999-1.717997-0.843998-2.593995-1.281998l8.843983 83.497837z" fill="#434A54" /></svg>