<?xml version="1.0" standalone="no"?><!DOCTYPE svg PUBLIC "-//W3C//DTD SVG 1.1//EN" "http://www.w3.org/Graphics/SVG/1.1/DTD/svg11.dtd"><svg class="icon" width="128px" height="128.00px" viewBox="0 0 1024 1024" version="1.1" xmlns="http://www.w3.org/2000/svg"><path d="M917.312 277.312C917.312 124.156 793.188 0 640 0c-46.188 0-89.688 11.282-128 31.25C473.688 11.282 430.188 0 384 0 230.812 0 106.688 124.156 106.688 277.312c0 42.094 9.376 81.968 26.124 117.688l83.562 181c-20 64 12.562 448 146.25 448 42.124 0 108.124-356.968 149.376-357.25C553.188 666.438 619.25 1024 661.312 1024c133.688 0 166.25-384 146.25-448l83.624-181c16.752-35.718 26.126-75.594 26.126-117.688z" fill="#E6E9ED" /><path d="M661.312 981.312c-42.062 0-108.124-357.532-149.312-357.25-41.25 0.312-107.25 357.25-149.376 357.25-104.062 0-146.812-232.562-151.25-365.876C206.5 733.032 246.25 1024 362.624 1024c42.124 0 108.124-356.968 149.376-357.25C553.188 666.438 619.25 1024 661.312 1024c116.376 0 156.124-290.968 151.312-408.562-4.5 133.312-47.248 365.874-151.312 365.874z" fill="#CCD1D9" /><path d="M640 0c-46.188 0-89.688 11.282-128 31.25C473.688 11.282 430.188 0 384 0 230.812 0 106.688 124.156 106.688 277.312c0 42.094 9.376 81.968 26.124 117.688L177 490.656H381.936a133.926 133.926 0 0 1-1.75-21.344c0-70.562 57.438-128 128-128s128 57.438 128 128c0 7.25-0.624 14.376-1.75 21.344H847l44.188-95.656c16.75-35.718 26.124-75.594 26.124-117.688C917.312 124.156 793.188 0 640 0z" fill="#CBD0D8" /><path d="M175.876 94.032S246.252 72.626 384 85.314c46 4.25 89.688 11.312 128 31.282V31.25C473.688 11.282 430.188 0 384 0c-82.876 0-157.312 36.376-208.124 94.032zM848.124 94.032S777.748 72.626 640 85.314c-46 4.25-89.688 11.312-128 31.282V31.25C550.312 11.282 593.812 0 640 0c82.876 0 157.312 36.376 208.124 94.032z" fill="#A9B1BC" /></svg>