<?xml version="1.0" standalone="no"?><!DOCTYPE svg PUBLIC "-//W3C//DTD SVG 1.1//EN" "http://www.w3.org/Graphics/SVG/1.1/DTD/svg11.dtd"><svg class="icon" width="128px" height="128.00px" viewBox="0 0 1024 1024" version="1.1" xmlns="http://www.w3.org/2000/svg"><path d="M917.343208 277.311458C917.343208 124.155758 793.155451 0 639.99975 0c-46.18791 0-89.717825 11.281978-127.99975 31.249939C473.688075 11.281978 430.15616 0 384.00025 0 230.844549 0 106.656792 124.155758 106.656792 277.311458c0 42.093918 9.405982 81.96784 26.155949 117.687771l83.561836 180.999646c-19.999961 63.999875 12.561975 447.999125 146.281715 447.999125 42.061918 0 108.093789-356.967303 149.311708-357.249302C553.18792 666.436698 619.217791 1023.998 661.281708 1023.998c133.717739 0 166.281675-383.99925 146.281715-447.999125l83.623836-180.999646c16.749967-35.71793 26.155949-75.593852 26.155949-117.687771z" fill="#E6E9ED" /><path d="M661.281708 981.310083c-42.061918 0-108.093789-357.531302-149.311708-357.249302-41.217919 0.311999-107.249791 357.249302-149.311708 357.249302-104.061797 0-146.875713-232.561546-151.311705-365.875285C206.500597 733.030568 246.250519 1023.998 362.656292 1023.998c42.061918 0 108.093789-356.967303 149.311708-357.249302C553.18792 666.436698 619.217791 1023.998 661.281708 1023.998c116.405773 0 156.155695-290.967432 151.311705-408.561202-4.437991 133.31174-47.249908 365.873285-151.311705 365.873285zM175.906656 94.031816S246.250519 72.625858 384.00025 85.313833c45.96791 4.249992 89.687825 11.311978 127.99975 31.281939V31.249939C473.688075 11.281978 430.15616 0 384.00025 0c-82.905838 0-157.281693 36.375929-208.093594 94.031816zM848.093344 94.031816S777.749481 72.625858 639.99975 85.313833c-45.96791 4.249992-89.717825 11.311978-127.99975 31.281939V31.249939C550.281925 11.281978 593.81184 0 639.99975 0c82.905838 0 157.281693 36.375929 208.093594 94.031816z" fill="#CCD1D9" /></svg>