<?xml version="1.0" standalone="no"?><!DOCTYPE svg PUBLIC "-//W3C//DTD SVG 1.1//EN" "http://www.w3.org/Graphics/SVG/1.1/DTD/svg11.dtd"><svg class="icon" width="128px" height="128.00px" viewBox="0 0 1024 1024" version="1.1" xmlns="http://www.w3.org/2000/svg"><path d="M181.102 1023.984L0.014 842.898 842.896 0.014l181.09 181.088L181.102 1023.984z" fill="#FECD57" /><path d="M651.964 387.878l-42.686-22.656-237.43 224.09V657.34h50.686l238.744-232.12z" fill="#A0D468" /><path d="M753.43 270.538m-37.34 0a37.34 37.34 0 1 0 74.68 0 37.34 37.34 0 1 0-74.68 0Z" fill="#A0D468" /><path d="M307.912 753.464c0 20.622-16.718 37.34-37.344 37.34-20.624 0-37.342-16.718-37.342-37.34 0-20.624 16.718-37.376 37.342-37.376 20.626 0.002 37.344 16.752 37.344 37.376z" fill="#A0D468" /><path d="M662.902 361.098c-12.094-12.094-28.156-18.75-45.282-18.75-17.094 0-33.154 6.656-45.248 18.75l-165.996 165.996h-0.032l-45.248 45.282c-24.968 24.968-24.968 65.558 0 90.528 12.094 12.094 28.156 18.75 45.28 18.75 17.094 0 33.156-6.656 45.25-18.75l211.276-211.276c24.97-24.97 24.97-65.562 0-90.53z m-181.09 211.278l-30.186-30.188L481.812 512A21.35 21.35 0 0 0 512 512a21.33 21.33 0 0 0 0-30.186l30.188-30.188 30.186 30.188-90.562 90.562z m-60.342 60.338a21.228 21.228 0 0 1-15.094 6.25 21.168 21.168 0 0 1-15.092-6.25c-8.344-8.312-8.344-21.84 0-30.184l30.154-30.156 30.186 30.156-30.154 30.184z m211.244-211.242l-30.156 30.154-30.186-30.154 30.186-30.188a21.158 21.158 0 0 1 15.062-6.25c5.718 0 11.062 2.218 15.094 6.25 8.344 8.312 8.344 21.844 0 30.188zM315.818 708.184c-12.092-12.094-28.156-18.75-45.28-18.75-17.092 0-33.156 6.656-45.248 18.75-24.968 24.968-24.968 65.59 0 90.528 12.092 12.094 28.156 18.75 45.248 18.75 17.124 0 33.188-6.656 45.28-18.75 12.094-12.062 18.75-28.156 18.75-45.246 0-17.126-6.656-33.188-18.75-45.282z m-30.188 60.37a21.176 21.176 0 0 1-15.094 6.25 21.222 21.222 0 0 1-15.092-6.25 21.604 21.604 0 0 1-5.5-9.59c1.812 0.468 3.656 0.75 5.5 0.75 5.468 0 10.938-2.094 15.092-6.25 5.594-5.594 7.406-13.5 5.532-20.624a21.17 21.17 0 0 1 9.562 5.532 21.176 21.176 0 0 1 6.25 15.094c0 5.686-2.218 11.058-6.25 15.088zM798.708 225.29c-12.062-12.094-28.154-18.782-45.248-18.782-17.092 0-33.184 6.656-45.278 18.75v0.032c-12.094 12.062-18.75 28.156-18.75 45.25 0 17.124 6.656 33.186 18.75 45.28s28.186 18.75 45.278 18.75c17.094 0 33.186-6.656 45.248-18.75 24.97-24.97 24.97-65.594 0-90.53z m-30.154 60.34a21.228 21.228 0 0 1-15.094 6.25c-5.716 0-11.06-2.218-15.092-6.25a21.218 21.218 0 0 1-5.532-9.562c1.812 0.468 3.656 0.718 5.532 0.718 5.468 0 10.906-2.062 15.092-6.25a21.3 21.3 0 0 0 5.5-20.592 21.228 21.228 0 0 1 9.594 5.5c8.314 8.344 8.314 21.876 0 30.186zM963.614 241.484l-181.086-181.088L842.902 0.024l181.086 181.086zM181.102 1023.996L0.016 842.91l60.372-60.37 181.086 181.086z" fill="#434A54" /></svg>