<?xml version="1.0" standalone="no"?><!DOCTYPE svg PUBLIC "-//W3C//DTD SVG 1.1//EN" "http://www.w3.org/Graphics/SVG/1.1/DTD/svg11.dtd"><svg class="icon" width="128px" height="128.00px" viewBox="0 0 1024 1024" version="1.1" xmlns="http://www.w3.org/2000/svg"><path d="M362.694 891.548h298.582v89.654H362.694z" fill="#424953" /><path d="M367.568 682.62h281.428v234.618H367.568z" fill="#FECD57" /><path d="M511.626 170.762v170.62h0.468s443.048 62.388 511.888-170.62H511.626z" fill="#E8563F" /><path d="M512.344 170.762v170.62h-0.468S68.83 403.77 0.018 170.762h512.326z" fill="#E8563F" /><path d="M661.65 256.07c0 94.232-66.842 255.93-149.306 255.93-82.436 0-149.276-161.698-149.276-255.93 0-94.23 66.84-170.62 149.276-170.62 82.464 0.002 149.306 76.39 149.306 170.62z" fill="#FB6D51" /><path d="M375.724 554.624H658.4v85.308H375.724z" fill="#424953" /><path d="M575.966 938.548c-11.782 0-21.344-9.562-21.344-21.312 0-11.812 9.562-21.344 21.344-21.344 11.78 0 21.342 9.532 21.342 21.344 0 11.75-9.562 21.312-21.342 21.312z" fill="#E5E8EC" /><path d="M533.312 938.548c-11.782 0-21.344-9.562-21.344-21.312 0-11.812 9.562-21.344 21.344-21.344s21.31 9.532 21.31 21.344c0.002 11.75-9.528 21.312-21.31 21.312zM490.656 938.548c-11.78 0-21.342-9.562-21.342-21.312a21.332 21.332 0 0 1 21.342-21.344c11.782 0 21.312 9.532 21.312 21.344 0 11.75-9.53 21.312-21.312 21.312z" fill="#E5E8EC" /><path d="M448.002 938.548c-11.782 0-21.344-9.562-21.344-21.312 0-11.812 9.562-21.344 21.344-21.344s21.312 9.532 21.312 21.344c0 11.75-9.53 21.312-21.312 21.312zM488.344 1002.546c-11.78 0-21.342-9.562-21.342-21.344s9.562-21.344 21.342-21.344c11.782 0 21.312 9.562 21.312 21.344s-9.53 21.344-21.312 21.344zM530.998 1002.546c-11.782 0-21.342-9.562-21.342-21.344s9.56-21.344 21.342-21.344 21.312 9.562 21.312 21.344-9.53 21.344-21.312 21.344zM573.78 1002.546c-11.782 0-21.344-9.562-21.344-21.344s9.562-21.344 21.344-21.344 21.31 9.562 21.31 21.344-9.53 21.344-21.31 21.344zM445.69 1002.546c-11.782 0-21.342-9.562-21.342-21.344s9.56-21.344 21.342-21.344 21.312 9.562 21.312 21.344-9.532 21.344-21.312 21.344z" fill="#E5E8EC" /><path d="M682.62 384.036H340.194v0.062c-11.25 0.61-20.156 9.89-20.156 21.266 0 11.39 8.906 20.654 20.156 21.264v0.064H682.62c11.748 0 21.31-9.546 21.31-21.328s-9.562-21.328-21.31-21.328z" fill="#8AC054" /><path d="M618.996 213.588l-106.59 42.654-106.684-42.654S319.348 0.142 512.344 0.142c192.992 0 106.652 213.446 106.652 213.446z" fill="#F5BA45" /><path d="M575.966 106.78c0 11.782-9.562 21.326-21.344 21.326-11.748 0-21.31-9.544-21.31-21.326s9.562-21.328 21.31-21.328c11.782 0 21.344 9.546 21.344 21.328zM490.656 106.78c0 11.782-9.562 21.326-21.342 21.326-11.75 0-21.312-9.544-21.312-21.326s9.562-21.328 21.312-21.328c11.78 0 21.342 9.546 21.342 21.328z" fill="#424953" /><path d="M405.722 213.588l106.684 42.654 106.59-42.654-106.528-39.748z" fill="#FECD57" /><path d="M490.656 789.24c0 11.812-9.562 21.342-21.342 21.342-11.75 0-21.312-9.53-21.312-21.342 0-11.75 9.562-21.312 21.312-21.312 11.78 0 21.342 9.562 21.342 21.312zM575.966 789.24c0 11.812-9.562 21.342-21.344 21.342-11.748 0-21.31-9.53-21.31-21.342 0-11.75 9.562-21.312 21.31-21.312 11.782 0 21.344 9.562 21.344 21.312z" fill="#424953" /><path d="M426.658 554.654c0 11.782 9.562 21.344 21.344 21.344s21.312-9.562 21.312-21.344v-0.032h-42.626l-0.03 0.032zM426.69 639.932h42.626c0-11.748-9.532-21.31-21.312-21.31s-21.314 9.562-21.314 21.31zM469.314 554.654c0 11.782 9.562 21.344 21.342 21.344 11.782 0 21.312-9.562 21.312-21.344v-0.032h-42.654v0.032z" fill="#E5E8EC" /><path d="M469.314 639.932h42.654c0-11.748-9.532-21.31-21.312-21.31-11.78 0-21.31 9.562-21.342 21.31zM511.968 554.654c0 11.782 9.562 21.344 21.344 21.344s21.31-9.562 21.31-21.344v-0.032H512l-0.032 0.032zM512 639.932h42.624c0-11.748-9.53-21.31-21.31-21.31S512 628.184 512 639.932zM554.624 554.654c0 11.782 9.562 21.344 21.344 21.344 11.78 0 21.342-9.562 21.342-21.344l-0.032-0.032h-42.622l-0.032 0.032zM554.656 639.932h42.622c0-11.748-9.532-21.31-21.31-21.31-11.782 0-21.312 9.562-21.312 21.31z" fill="#E5E8EC" /><path d="M426.658 767.928c0 11.782-9.53 21.312-21.31 21.312s-21.344-9.532-21.344-21.312c0-11.78 9.562-21.31 21.344-21.31s21.31 9.53 21.31 21.31zM426.658 810.582c0 11.782-9.53 21.344-21.31 21.344s-21.344-9.562-21.344-21.344c0-11.78 9.562-21.342 21.344-21.342s21.31 9.562 21.31 21.342zM639.934 767.928c0 11.782-9.532 21.312-21.312 21.312s-21.312-9.532-21.312-21.312c0-11.78 9.532-21.31 21.312-21.31s21.312 9.53 21.312 21.31zM639.934 810.582c0 11.782-9.532 21.344-21.312 21.344s-21.312-9.562-21.312-21.344c0-11.78 9.532-21.342 21.312-21.342s21.312 9.562 21.312 21.342zM490.656 661.432c11.782 0 21.312 9.532 21.312 21.312s-9.532 21.312-21.312 21.312c-11.78 0-21.342-9.532-21.342-21.312s9.562-21.312 21.342-21.312zM533.312 661.432c11.782 0 21.31 9.532 21.31 21.312s-9.53 21.312-21.31 21.312-21.344-9.532-21.344-21.312 9.564-21.312 21.344-21.312z" fill="#424953" /><path d="M512 853.238c11.75 0 21.312 9.562 21.312 21.31 0 11.814-9.562 21.344-21.312 21.344-11.782 0-21.344-9.53-21.344-21.344 0-11.748 9.562-21.31 21.344-21.31z" fill="#D94452" /><path d="M661.276 554.654v-127.962H362.694v255.926h44.716-2.062 255.928v-127.964z m-255.928 85.31v-85.31h213.274v85.31H405.348z" fill="#9ED36A" /><path d="M597.308 490.672c0 11.782-9.562 21.328-21.342 21.328-11.782 0-21.344-9.546-21.344-21.328s9.562-21.326 21.344-21.326c11.78 0 21.342 9.544 21.342 21.326zM469.314 490.672c0 11.782-9.532 21.328-21.312 21.328s-21.344-9.546-21.344-21.328 9.562-21.326 21.344-21.326 21.312 9.544 21.312 21.326z" fill="#424953" /><path d="M618.622 682.62h42.654v191.93h-42.654z" fill="#F5BA45" /><path d="M661.276 891.548v-17H362.694v149.308h298.582v-132.308z m-255.928 89.656v-63.966h213.274v63.966H405.348z" fill="#EC5564" /><path d="M362.694 682.62h42.654v191.93h-42.654z" fill="#F5BA45" /></svg>