<?xml version="1.0" standalone="no"?><!DOCTYPE svg PUBLIC "-//W3C//DTD SVG 1.1//EN" "http://www.w3.org/Graphics/SVG/1.1/DTD/svg11.dtd"><svg class="icon" width="128px" height="128.00px" viewBox="0 0 1024 1024" version="1.1" xmlns="http://www.w3.org/2000/svg"><path d="M590.592 283.112a23.216 23.216 0 0 0-5.032-3.532l-170.68-85.308a21.272 21.272 0 0 0-20.25 0.624 21.352 21.352 0 0 0-10.592 17.25l-8.312 149.336c-0.172 3.188 0.36 6.344 1.578 9.312l123.01 298.628c3.296 8 11.092 13.248 19.734 13.248h13.282c3.904 0 7.732-1.06 11.044-3.124 83.874-50.872 130.056-112.246 137.4-182.54 12.03-115.68-86.964-209.958-91.182-213.894z" fill="#434A54" /><path d="M980.574 207.772a21.324 21.324 0 0 0-18.154-15.624L584.842 148.71c-6.532-0.782-13.094 1.562-17.718 6.282a21.496 21.496 0 0 0-5.876 17.842l14.938 107.434c1.5 10.562 10.5 18.406 21.156 18.406h277.332c4.594 0 9.092-1.5 12.78-4.282l85.34-63.998c6.998-5.218 10.062-14.186 7.78-22.622z" fill="#F6BB42" /><path d="M1002.666 682.672H21.348c-11.78 0-21.326-9.56-21.326-21.374 0-11.75 9.546-21.31 21.326-21.31h981.318c11.75 0 21.312 9.56 21.312 21.31 0 11.814-9.562 21.374-21.312 21.374z" fill="#A85D5D" /><path d="M959.982 234.676H533.328c-11.782 0-21.328-9.562-21.328-21.342V106.682c0-11.782 9.546-21.344 21.328-21.344h319.97c70.622 0 127.994 57.436 127.994 127.996 0 11.78-9.53 21.342-21.31 21.342z" fill="#FFCE54" /><path d="M590.592 283.112a23.216 23.216 0 0 0-5.032-3.532l-108.934-54.436a21.272 21.272 0 0 0-0.344 18.344l37.156 81.778c2.14 6.968 9.954 28.78 29.874 50.654 21.062 23.156 60.062 50.748 126.556 50.748h0.062c2.124 0 4.188-0.344 6.188-0.938-20.656-80.902-82.244-139.524-85.526-142.618z" fill="#CCD1D9" /><path d="M541.06 441.98c-48.2-80.654-136.04-99.464-139.758-100.214a21.4 21.4 0 0 0-17.078 3.844 21.308 21.308 0 0 0-8.468 15.31c-0.078 1.124-9.39 113.714-23.452 237.57-23.312 205.43-41.264 282.614-52.216 311.176a21.37 21.37 0 0 0 2.344 19.746c3.982 5.75 10.544 9.25 17.576 9.25h127.994c9.188 0 17.328-5.876 20.234-14.624l85.324-255.99c0.062-0.188 0.124-0.376 0.188-0.624 27.062-90.184 22.812-166.07-12.688-225.444z" fill="#656D78" /><path d="M421.176 768.608c-11.42-2.812-23.014 4.124-25.874 15.562l-38.624 154.492h43.982l36.046-144.18a21.35 21.35 0 0 0-15.53-25.874z" fill="#434A54" /><path d="M512 85.338c-70.574 0-127.994 57.436-127.994 127.996 0 70.59 57.42 127.994 127.994 127.994 70.56 0 127.996-57.404 127.996-127.994 0-70.56-57.436-127.996-127.996-127.996z" fill="#656D78" /><path d="M533.328 213.334c0 11.78-9.546 21.342-21.328 21.342-11.78 0-21.328-9.562-21.328-21.342 0-11.782 9.546-21.312 21.328-21.312s21.328 9.53 21.328 21.312z" fill="#434A54" /></svg>