<?xml version="1.0" standalone="no"?><!DOCTYPE svg PUBLIC "-//W3C//DTD SVG 1.1//EN" "http://www.w3.org/Graphics/SVG/1.1/DTD/svg11.dtd"><svg class="icon" width="128px" height="128.00px" viewBox="0 0 1024 1024" version="1.1" xmlns="http://www.w3.org/2000/svg"><path d="M874.672 256.034H320.008c-11.75 0-21.312 9.532-21.312 21.31V704c0 11.75 9.562 21.31 21.312 21.31h554.664c11.782 0 21.312-9.56 21.312-21.31V277.344c0-11.78-9.53-21.31-21.312-21.31z" fill="#3BAFDA" /><path d="M810.678 170.694c-47.062 0-85.344 38.28-85.344 85.34v88.496c0 11.782 9.562 21.344 21.344 21.344h127.994c11.782 0 21.312-9.562 21.312-21.344v-88.496c0-47.062-38.25-85.34-85.306-85.34z" fill="#3BAFDA" /><path d="M1002.668 256.034H21.362C9.58 256.034 0.02 246.472 0.02 234.69c0-11.78 9.562-21.342 21.342-21.342h981.306c11.782 0 21.312 9.562 21.312 21.342s-9.53 21.344-21.312 21.344z" fill="#434A54" /><path d="M810.678 170.694h0.718-0.718zM725.334 256.034c0-47.06 38.282-85.34 85.344-85.34H149.358c-11.782 0-21.342 9.532-21.342 21.342v639.96c0 11.748 9.562 21.31 21.342 21.31h554.634c11.812 0 21.342-9.562 21.342-21.31V256.034z" fill="#4FC2E9" /><path d="M682.65 789.308c-3.188 0-6.438-0.688-9.5-2.25l-33.156-16.56-33.124 16.56c-6 3-13.062 3-19.06 0l-33.124-16.56-33.124 16.56c-6 3-13.094 3-19.094 0l-33.124-16.56-33.124 16.56c-6 3-13.062 3-19.062 0l-33.156-16.56-33.124 16.56c-6 3-13.062 3-19.062 0l-33.124-16.56-33.124 16.56c-6 3-13.092 3-19.092 0l-33.124-16.56-33.124 16.56c-10.532 5.312-23.342 1-28.624-9.498-5.25-10.562-1-23.376 9.562-28.624l42.654-21.376c6-3 13.062-3 19.062 0l33.124 16.562 33.156-16.562c6-3 13.062-3 19.062 0l33.124 16.562 33.124-16.562c6-3 13.094-3 19.094 0l33.124 16.562 33.124-16.562c6-3 13.062-3 19.062 0L512 744.124l33.156-16.562c6-3 13.062-3 19.06 0l33.124 16.562 33.124-16.562c6-3 13.094-3 19.094 0l42.654 21.376c10.532 5.25 14.812 18.062 9.532 28.624-3.72 7.436-11.25 11.746-19.094 11.746z" fill="#E6E9ED" /></svg>