<?xml version="1.0" standalone="no"?><!DOCTYPE svg PUBLIC "-//W3C//DTD SVG 1.1//EN" "http://www.w3.org/Graphics/SVG/1.1/DTD/svg11.dtd"><svg class="icon" width="128px" height="128.00px" viewBox="0 0 1024 1024" version="1.1" xmlns="http://www.w3.org/2000/svg"><path d="M42.696 789.306c-11.748 0-21.342-9.562-21.342-21.312V128.006c0-11.782 9.594-21.342 21.342-21.342h938.64c11.782 0 21.344 9.56 21.344 21.342v639.988c0 11.75-9.562 21.312-21.344 21.312H42.696z" fill="#48CFAD" /><path d="M981.336 85.32H42.696C19.136 85.32 0.01 104.444 0.01 128.006v639.988c0 23.562 19.124 42.688 42.686 42.688h938.64c23.562 0 42.654-19.124 42.654-42.688V128.006c0-23.56-19.092-42.686-42.654-42.686z m0 682.674H42.696V128.006h938.64v639.988z" fill="#E6E9ED" /><path d="M682.686 938.68H341.348l42.53-170.498 256.184-0.062z" fill="#CCD1D9" /><path d="M31.916 682.686h960.202v122.058H31.916z" fill="#E6E9ED" /><path d="M533.344 746.682c0 11.75-9.532 21.312-21.344 21.312-11.75 0-21.31-9.562-21.31-21.312 0-11.81 9.56-21.374 21.31-21.374 11.812 0 21.344 9.564 21.344 21.374z" fill="#434A54" /><path d="M682.686 895.992H341.348c-11.782 0-21.344 9.562-21.344 21.312 0 11.812 9.562 21.376 21.344 21.376h341.338c11.782 0 21.312-9.562 21.312-21.376 0-11.75-9.532-21.312-21.312-21.312z" fill="#E6E9ED" /><path d="M704.28 320.004H319.754c-11.782 0-21.344 9.532-21.344 21.312v213.372c0 8.5 5.062 16.188 12.906 19.56 2.188 0.938 55.218 23.062 200.902 23.062 145.748 0 198.404-22.124 200.592-23.062 7.78-3.436 12.81-11.06 12.81-19.56V341.316c0.002-11.78-9.56-21.312-21.34-21.312z" fill="#656D78" /><path d="M859.994 320.972l-341.338-106.686a21.508 21.508 0 0 0-12.718 0L164.602 320.972a21.326 21.326 0 0 0-14.968 20.344c0 9.344 6.062 17.594 14.968 20.376l341.336 106.652a20.98 20.98 0 0 0 6.344 0.968c2.156 0 4.312-0.312 6.376-0.968l341.338-106.652a21.33 21.33 0 1 0-0.002-40.72z" fill="#434A54" /><path d="M853.62 469.312c-11.782 0-21.344-9.562-21.344-21.344v-106.652c0-11.782 9.562-21.312 21.344-21.312s21.344 9.532 21.344 21.312v106.652c-0.002 11.782-9.564 21.344-21.344 21.344z" fill="#FFCE54" /><path d="M853.62 362.66H512c-11.75 0-21.31-9.562-21.31-21.344s9.56-21.312 21.31-21.312h341.62c11.782 0 21.344 9.532 21.344 21.312S865.4 362.66 853.62 362.66z" fill="#FFCE54" /></svg>