<?xml version="1.0" standalone="no"?><!DOCTYPE svg PUBLIC "-//W3C//DTD SVG 1.1//EN" "http://www.w3.org/Graphics/SVG/1.1/DTD/svg11.dtd"><svg class="icon" width="128px" height="128.00px" viewBox="0 0 1024 1024" version="1.1" xmlns="http://www.w3.org/2000/svg"><path d="M909.436 771.586l-3.624-1.062c-52.936-14.216-70.874-27.904-94.496-36.874-83.624-31.874-105.438-54.842-110.938-65.686-0.25-0.376-0.376-0.812-0.562-1.218l-0.688-97.154-198.384-2.25-198.434 2.25-0.688 97.154c-0.188 0.406-0.344 0.844-0.532 1.218-5.56 10.844-27.342 33.812-110.996 65.686-23.594 8.968-41.5 22.656-94.466 36.874l-3.656 1.062c-48.218 15.938-80.654 60.656-80.654 111.124v140.308h978.804v-140.308c0-50.468-32.436-95.186-80.686-111.124z" fill="#5D9CEC" /><path d="M302.152 594.436l-0.53 72.31 101.684 122.59 97.404-63.53zM500.71 725.806l97.42 63.53 101.684-122.59 0.126-69.466z" fill="#E6E9ED" /><path d="M776.002 382.314c0 178.872-170.496 343.492-275.26 343.492-104.81 0-275.338-164.622-275.338-343.492s123.28-296.898 275.338-296.898c152.012 0 275.26 118.028 275.26 296.898z" fill="#EAC6BB" /><path d="M705.94 423.002c-33.186 1-49.124 35.404-49.124 35.404 29.998-9.218 56.874 12.344 22.312 30.968-68.624 37.032-120.56-99.28-178.386-33.342-57.904-65.936-109.842 70.374-178.402 33.342-34.56-18.624-7.75-40.186 22.282-30.968 0 0-15.938-34.404-49.124-35.404-43.438-1.344-140.404 156.058 88.81 177.152 43.748 4 90.184-14.156 116.434-42.938 26.186 28.782 72.638 46.938 116.388 42.938 229.246-21.094 132.246-178.496 88.81-177.152z" fill="#FC6E51" /><path d="M522.052 21.354c0 11.78-9.56 21.342-21.342 21.342s-21.312-9.562-21.312-21.342c0-11.782 9.532-21.342 21.312-21.342s21.342 9.562 21.342 21.342z" fill="#434A54" /><path d="M500.71 21.354c-154.122 0-283.87 127.09-283.87 283.868l-0.032 78.78h567.754l0.062-78.78c0.002-156.776-129.808-283.868-283.914-283.868z" fill="#ED5564" /><path d="M809.126 365.16s-58-109.154-308.416-109.154c-250.37 0-308.43 109.154-308.43 109.154-5.5 10.374-0.406 18.842 11.344 18.842h594.19c11.75 0 16.812-8.468 11.312-18.842z" fill="#FFCE54" /><path d="M806.252 360.66c-2.188 1.282-5 2.032-8.438 2.032H203.624c-3.438 0-6.282-0.75-8.468-2.032-1.968 2.876-2.876 4.5-2.876 4.5-5.5 10.374-0.406 18.842 11.344 18.842h594.19c11.75 0 16.812-8.468 11.312-18.842 0 0-0.874-1.626-2.874-4.5zM564.694 170.696c0 35.342-28.64 63.998-63.982 63.998s-63.998-28.656-63.998-63.998c0-35.376 28.656-64 63.998-64s63.982 28.624 63.982 64z" fill="#F6BB42" /><path d="M515.802 795.586c8.312 8.344 8.312 21.844 0 30.188-8.342 8.312-21.842 8.312-30.186 0-8.312-8.344-8.312-21.844 0-30.188a21.33 21.33 0 0 1 30.186 0zM515.802 859.586c8.312 8.344 8.312 21.844 0 30.188-8.342 8.31-21.842 8.31-30.186 0-8.312-8.344-8.312-21.844 0-30.188a21.33 21.33 0 0 1 30.186 0zM991.372 639.996H607.38c-11.812 0-21.312 9.562-21.312 21.344v362.648h426.616V661.34c0-11.782-9.5-21.344-21.312-21.344zM970.06 981.332H628.694V682.684H970.06v298.648z" fill="#434A54" /><path d="M628.694 682.684h341.368V1023.02H628.694z" fill="#E6E9ED" /><path d="M906.06 725.34H692.69l-42.624-85.344h298.62z" fill="#FFCE54" /><path d="M799.376 938.678h-106.688c-11.748 0-21.31-9.562-21.31-21.344s9.562-21.342 21.31-21.342h106.688c11.812 0 21.31 9.56 21.31 21.342s-9.496 21.344-21.31 21.344zM906.06 853.336H692.69c-11.748 0-21.31-9.562-21.31-21.344s9.562-21.312 21.31-21.312H906.06c11.75 0 21.312 9.532 21.312 21.312s-9.562 21.344-21.312 21.344z" fill="#434A54" /></svg>