<?xml version="1.0" standalone="no"?><!DOCTYPE svg PUBLIC "-//W3C//DTD SVG 1.1//EN" "http://www.w3.org/Graphics/SVG/1.1/DTD/svg11.dtd"><svg class="icon" width="128px" height="128.00px" viewBox="0 0 1024 1024" version="1.1" xmlns="http://www.w3.org/2000/svg"><path d="M725.306 85.354H42.682C19.214 85.354 0.012 104.54 0.012 128.008v575.988c0 23.468 19.202 42.656 42.67 42.656h682.624c23.5 0 42.688-19.188 42.688-42.656V128.008c0-23.466-19.188-42.654-42.688-42.654z" fill="#E6E9ED" /><path d="M1002.676 703.996H234.678c-11.782 0-21.342 9.562-21.342 21.344v85.308c0 11.782 9.562 21.344 21.342 21.344h767.998c11.75 0 21.312-9.562 21.312-21.344V725.34c0-11.782-9.562-21.344-21.312-21.344z" fill="#434A54" /><path d="M725.306 85.354H42.682C19.214 85.354 0.012 104.54 0.012 128.008v106.654h767.982V128.008c0-23.466-19.188-42.654-42.688-42.654z" fill="#ED5564" /><path d="M149.336 170.666c-11.782 0-21.328-9.532-21.328-21.312V64.01c0-11.782 9.546-21.344 21.328-21.344S170.68 52.23 170.68 64.01v85.342c0 11.782-9.562 21.314-21.344 21.314zM320.004 170.666c-11.782 0-21.328-9.532-21.328-21.312V64.01c0-11.782 9.546-21.344 21.328-21.344s21.328 9.562 21.328 21.344v85.342c0 11.782-9.546 21.314-21.328 21.314zM490.672 170.666c-11.782 0-21.342-9.532-21.342-21.312V64.01c0-11.782 9.562-21.344 21.342-21.344S512 52.23 512 64.01v85.342c0 11.782-9.546 21.314-21.328 21.314zM661.308 170.666c-11.75 0-21.31-9.532-21.31-21.312V64.01c0-11.782 9.56-21.344 21.31-21.344 11.812 0 21.376 9.562 21.376 21.344v85.342c0 11.782-9.562 21.314-21.376 21.314z" fill="#434A54" /><path d="M106.68 298.662h127.998v127.998H106.68zM320.004 298.662h127.998v127.998h-127.998zM533.326 298.662h127.982v127.998h-127.982zM106.68 512h127.998v127.996H106.68zM320.004 512h127.998v127.996h-127.998zM533.326 512h127.982v127.996h-127.982z" fill="#CCD1D9" /><path d="M362.674 618.652c-35.296 0-63.998 28.718-63.998 64v170.684c0 35.282 28.702 64 63.998 64 35.28 0 64-28.718 64-64v-170.684c0-35.28-28.718-64-64-64z" fill="#DA4453" /><path d="M469.33 554.656c-35.282 0-64 28.718-64 63.996v298.684c0 35.278 28.718 63.996 64 63.996 35.296 0 63.998-28.718 63.998-63.996V618.652c-0.002-35.276-28.704-63.996-63.998-63.996z" fill="#ED5564" /><path d="M874.678 618.652c-35.31 0-63.996 28.718-63.996 64v170.684c0 35.282 28.686 64 63.996 64 35.25 0 64-28.718 64-64v-170.684c0-35.28-28.75-64-64-64z" fill="#DA4453" /><path d="M767.994 554.656c-35.312 0-64 28.718-64 63.996v298.684c0 35.278 28.688 63.996 64 63.996s63.998-28.718 63.998-63.996V618.652c0-35.276-28.686-63.996-63.998-63.996z" fill="#ED5564" /><path d="M1023.988 746.652a21.222 21.222 0 0 0-15.062 6.25 21.27 21.27 0 0 0 0 30.184 21.222 21.222 0 0 0 15.062 6.25v-42.684zM213.334 746.652v42.684a21.32 21.32 0 0 0 15.092-6.25 21.356 21.356 0 0 0 0-30.184 21.318 21.318 0 0 0-15.092-6.25z" fill="#656D78" /></svg>