<?xml version="1.0" standalone="no"?><!DOCTYPE svg PUBLIC "-//W3C//DTD SVG 1.1//EN" "http://www.w3.org/Graphics/SVG/1.1/DTD/svg11.dtd"><svg class="icon" width="128px" height="128.00px" viewBox="0 0 1024 1024" version="1.1" xmlns="http://www.w3.org/2000/svg"><path d="M1002.678 735.994h-85.342c-11.782 0-21.344-9.56-21.344-21.31 0-11.812 9.562-21.376 21.344-21.376h85.342c11.782 0 21.312 9.562 21.312 21.376 0 11.75-9.532 21.31-21.312 21.31z" fill="#434A54" /><path d="M980.71 666.808c-0.468-1.782-11.156-44.312-27.406-87.624C927.586 510.594 903.336 480 874.68 480h-170.684c-35.282 0-64 28.704-64 63.998v127.998c0 35.312 28.718 63.998 64 63.998h213.34c35.282 0 64-28.686 64-63.998 0-1.75-0.218-3.5-0.626-5.188z" fill="#656D78" /><path d="M873.96 402.376c-21.344-81.374-68.186-178.372-169.964-178.372H64.008c-35.282 0-64 25.764-64 57.436v397.118c0 31.688 28.718 57.436 64 57.436H661.34c51.718 0 96.156-8.248 132.124-24.436 29.906-13.5 54.03-32.5 71.716-56.438 30.468-41.248 30.812-83.124 30.812-84.874 0-3.436-0.25-84.934-22.032-167.87z" fill="#E6E9ED" /><path d="M0.01 522.672h893.702c-2.562-31.828-8.062-75.86-19.75-120.294-4.312-16.468-9.688-33.562-16.344-50.376H0.01v170.67z" fill="#4FC2E9" /><path d="M576 309.332h-170.654c-11.782 0-21.344 9.562-21.344 21.344v384.008c0 11.75 9.562 21.31 21.344 21.31H576c11.81 0 21.342-9.56 21.342-21.31V330.676c0-11.782-9.532-21.344-21.342-21.344z" fill="#A0D468" /><path d="M441.782 507.578c8.312 8.328 8.312 21.844 0 30.172-8.344 8.31-21.842 8.31-30.186 0-8.312-8.328-8.312-21.844 0-30.172a21.36 21.36 0 0 1 30.186 0z" fill="#434A54" /><path d="M191.88 352.002h42.686v170.67H191.88z" fill="#3BAFDA" /><path d="M341.346 629.308c-25.468 0-48.342 11.25-63.998 29-15.656-17.75-38.532-29-64-29-47.062 0-85.342 38.312-85.342 85.376 0 47.03 38.282 85.31 85.342 85.31 25.468 0 48.342-11.25 64-29 15.656 17.75 38.53 29 63.998 29 47.062 0 85.342-38.282 85.342-85.31 0.002-47.062-38.28-85.376-85.342-85.376z" fill="#434A54" /><path d="M228.442 699.558c8.312 8.344 8.312 21.876 0 30.186-8.342 8.312-21.842 8.312-30.186 0-8.312-8.31-8.312-21.842 0-30.186 8.344-8.312 21.844-8.312 30.186 0zM356.44 699.558c8.312 8.344 8.312 21.876 0 30.186-8.344 8.312-21.844 8.312-30.186 0-8.312-8.31-8.312-21.842 0-30.186 8.342-8.312 21.842-8.312 30.186 0z" fill="#F5F7FA" /></svg>