<?xml version="1.0" standalone="no"?><!DOCTYPE svg PUBLIC "-//W3C//DTD SVG 1.1//EN" "http://www.w3.org/Graphics/SVG/1.1/DTD/svg11.dtd"><svg class="icon" width="128px" height="128.00px" viewBox="0 0 1024 1024" version="1.1" xmlns="http://www.w3.org/2000/svg"><path d="M938.648 426.688c0-113.966-44.376-221.12-124.966-301.712C733.122 44.414 625.966 0.01 512 0.01S290.878 44.414 210.318 124.976c-80.592 80.592-124.966 187.746-124.966 301.712 0 5.75 0.094 11.594 0.344 17.436a22.694 22.694 0 0 0-0.344 3.876v554.678a21.3 21.3 0 0 0 21.312 21.312h810.672a21.3 21.3 0 0 0 21.312-21.312V448c0-1.312-0.124-2.624-0.344-3.876 0.22-5.842 0.344-11.686 0.344-17.436z" fill="#656D78" /><path d="M681.058 823.9l-39.468 16.218 22.938 55.874H359.472l22.936-55.874-39.468-16.218-82.092 200.09h46.124l35-85.312h340.056l35 85.312h46.124z" fill="#F5F7FA" /><path d="M682.652 256.004H341.346c-35.312 0-63.998 28.718-63.998 64v469.334c0 35.282 28.686 63.998 63.998 63.998h341.306c35.312 0 64-28.716 64-63.998V320.002c0-35.28-28.688-63.998-64-63.998z" fill="#ED5564" /><path d="M277.348 448h469.304v170.684H277.348z" fill="#4FC2E9" /><path d="M448.658 618.684h84.03L575.344 448h-84.032z" fill="#F5F7FA" opacity=".2" /><path d="M405.346 725.34c0 11.78-9.562 21.342-21.344 21.342-11.78 0-21.342-9.562-21.342-21.342 0-11.782 9.562-21.344 21.342-21.344 11.782 0 21.344 9.562 21.344 21.344zM661.34 725.34c0 11.78-9.562 21.342-21.344 21.342-11.78 0-21.342-9.562-21.342-21.342 0-11.782 9.562-21.344 21.342-21.344 11.782 0 21.344 9.562 21.344 21.344z" fill="#FFCE54" /><path d="M618.654 385.784H405.346c-11.782 0-21.344-9.532-21.344-21.312s9.562-21.344 21.344-21.344h213.308c11.782 0 21.342 9.562 21.342 21.344s-9.56 21.312-21.342 21.312z" fill="#F5F7FA" /></svg>