<?xml version="1.0" standalone="no"?><!DOCTYPE svg PUBLIC "-//W3C//DTD SVG 1.1//EN" "http://www.w3.org/Graphics/SVG/1.1/DTD/svg11.dtd"><svg class="icon" width="128px" height="128.00px" viewBox="0 0 1024 1024" version="1.1" xmlns="http://www.w3.org/2000/svg"><path d="M85.322 21.338h597.33v831.966H85.322z" fill="#E6E9ED" /><path d="M682.652 0.012H85.322c-11.782 0-21.312 9.546-21.312 21.328v831.966c0 11.812 9.532 21.376 21.312 21.376h597.33c11.78 0 21.342-9.562 21.342-21.376V21.338c0-11.78-9.562-21.326-21.342-21.326z m-21.344 831.98H106.666V42.682h554.644v789.31z" fill="#434A54" /><path d="M533.31 106.68H234.662L192.006 0.012h383.992z" fill="#FFCE54" /><path d="M426.658 21.338h-85.342c-11.782 0-21.312 9.562-21.312 21.342s9.532 21.328 21.312 21.328h85.342c11.78 0 21.342-9.546 21.342-21.328s-9.562-21.342-21.342-21.342z" fill="#F6BB42" /><path d="M575.03 512H192.944c-11.782 0-21.312-9.546-21.312-21.328s9.532-21.344 21.312-21.344h382.084c11.782 0 21.344 9.562 21.344 21.344S586.81 512 575.03 512zM575.03 597.31H192.944c-11.782 0-21.312-9.532-21.312-21.312s9.532-21.312 21.312-21.312h382.084c11.782 0 21.344 9.532 21.344 21.312s-9.562 21.312-21.342 21.312zM384.002 682.684H192.944c-11.782 0-21.312-9.562-21.312-21.376 0-11.75 9.532-21.312 21.312-21.312h191.058c11.78 0 21.312 9.562 21.312 21.312 0 11.814-9.53 21.376-21.312 21.376z" fill="#434A54" /><path d="M405.314 384.002a21.21 21.21 0 0 1-15.062-6.25c-8.342-8.328-8.342-21.842 0-30.17l127.996-127.998c8.312-8.328 21.812-8.328 30.156 0s8.344 21.844 0 30.172l-127.996 127.996a21.228 21.228 0 0 1-15.094 6.25z" fill="#DA4453" /><path d="M405.314 384.002c-3.876 0-7.782-1.046-11.312-3.25l-170.652-106.654c-10-6.25-13.03-19.406-6.782-29.406 6.25-9.984 19.406-13.032 29.406-6.782l170.652 106.67c10 6.234 13.03 19.406 6.782 29.388-4.032 6.488-11 10.034-18.094 10.034z" fill="#DA4453" /><path d="M234.662 192.006c-35.28 0-63.998 28.702-63.998 64 0 35.28 28.718 63.998 63.998 63.998s64-28.718 64-63.998c0-35.298-28.72-64-64-64zM405.314 298.676c-35.28 0-63.998 28.704-63.998 64 0 35.28 28.718 64 63.998 64 35.312 0 64-28.718 64-64 0-35.298-28.688-64-64-64zM533.31 170.68c-35.28 0-63.998 28.702-63.998 63.998 0 35.28 28.718 63.998 63.998 63.998 35.312 0 64-28.718 64-63.998 0-35.296-28.686-63.998-64-63.998z" fill="#ED5564" /><path d="M938.646 746.682H170.664c-11.782 0-21.344 9.532-21.344 21.312v85.31c0 11.812 9.562 21.376 21.344 21.376h767.982c11.782 0 21.344-9.562 21.344-21.376v-85.31c0-11.782-9.562-21.312-21.344-21.312z" fill="#656D78" /><path d="M298.662 661.308c-35.282 0-64 28.75-64 64v170.684c0 35.31 28.718 63.996 64 63.996 35.28 0 63.998-28.686 63.998-63.996v-170.684c0-35.25-28.718-64-63.998-64z" fill="#DA4453" /><path d="M405.314 597.31c-35.28 0-63.998 28.748-63.998 63.998v298.68c0 35.312 28.718 64 63.998 64 35.312 0 64-28.688 64-64v-298.68c0-35.25-28.688-63.998-64-63.998z" fill="#ED5564" /><path d="M810.65 661.308c-35.282 0-64 28.75-64 64v170.684c0 35.31 28.718 63.996 64 63.996 35.28 0 63.996-28.686 63.996-63.996v-170.684c0-35.25-28.716-64-63.996-64z" fill="#DA4453" /><path d="M703.994 597.31c-35.31 0-63.996 28.748-63.996 63.998v298.68c0 35.312 28.686 64 63.996 64 35.282 0 64-28.688 64-64v-298.68c0-35.25-28.718-63.998-64-63.998z" fill="#ED5564" /><path d="M959.99 789.304a21.426 21.426 0 0 0-15.094 6.25c-8.344 8.344-8.344 21.876 0 30.188 4.156 4.188 9.624 6.25 15.094 6.25v-42.688zM149.32 789.304v42.688c5.468 0 10.938-2.062 15.094-6.25 8.342-8.312 8.342-21.844 0-30.188a21.43 21.43 0 0 0-15.094-6.25z" fill="#434A54" /></svg>