<?xml version="1.0" standalone="no"?><!DOCTYPE svg PUBLIC "-//W3C//DTD SVG 1.1//EN" "http://www.w3.org/Graphics/SVG/1.1/DTD/svg11.dtd"><svg class="icon" width="128px" height="128.00px" viewBox="0 0 1024 1024" version="1.1" xmlns="http://www.w3.org/2000/svg"><path d="M394.69 0.008c-29.406 0-53.342 23.906-53.342 53.312v351.994c0 11.78 9.562 21.342 21.342 21.342h64c11.782 0 21.312-9.562 21.312-21.342V53.322c0-29.406-23.906-53.314-53.312-53.314z" fill="#ED5564" /><path d="M394.69 0.008c-29.406 0-53.342 23.906-53.342 53.312v53.342h106.654v-53.34c0-29.406-23.906-53.314-53.312-53.314z" fill="#434A54" /><path d="M394.69 0.008c-3.656 0-7.218 0.344-10.688 1.062 24.312 4.938 42.688 26.5 42.688 52.25v351.994c0 11.78-9.562 21.342-21.344 21.342h21.344c11.782 0 21.312-9.562 21.312-21.342V53.322c0-29.406-23.906-53.314-53.312-53.314z" fill="#FFFFFF" opacity=".1" /><path d="M618.688 426.658c-11.812 0-21.376-9.562-21.376-21.342v-64c0-11.78 9.562-21.312 21.376-21.312 11.75 0 21.31 9.532 21.31 21.312v64c0 11.78-9.56 21.342-21.31 21.342z" fill="#AAB2BC" /><path d="M639.998 362.66h-42.686c-11.75 0-21.312-9.562-21.312-21.344 0-11.78 9.562-21.312 21.312-21.312h42.686a21.3 21.3 0 0 1 21.312 21.312c0 11.78-9.53 21.344-21.312 21.344z" fill="#CCD1D9" /><path d="M661.31 384.002h-298.62c-35.31 0-63.998 28.688-63.998 63.998v511.992c0 35.312 28.688 64 63.998 64h298.622c35.31 0 63.998-28.688 63.998-64V448c-0.002-35.31-28.688-63.998-64-63.998z" fill="#656D78" /><path d="M661.31 384.002h-21.312c35.312 0 63.998 28.688 63.998 63.998v511.992c0 35.312-28.686 64-63.998 64h21.312c35.31 0 63.998-28.688 63.998-64V448c0-35.31-28.686-63.998-63.998-63.998z" fill="#FFFFFF" opacity=".1" /><path d="M448.002 938.68c0 11.75-9.532 21.312-21.312 21.312s-21.344-9.562-21.344-21.312c0-11.812 9.562-21.376 21.344-21.376s21.312 9.564 21.312 21.376zM533.344 938.68c0 11.75-9.562 21.312-21.344 21.312s-21.312-9.562-21.312-21.312c0-11.812 9.532-21.376 21.312-21.376s21.344 9.564 21.344 21.376zM618.688 938.68c0 11.75-9.562 21.312-21.376 21.312-11.75 0-21.312-9.562-21.312-21.312 0-11.812 9.562-21.376 21.312-21.376a21.368 21.368 0 0 1 21.376 21.376z" fill="#AAB2BC" /><path d="M639.998 533.312H384.002A21.3 21.3 0 0 1 362.69 512c0-11.812 9.532-21.344 21.312-21.344h255.996c11.782 0 21.312 9.532 21.312 21.344a21.298 21.298 0 0 1-21.312 21.312zM639.998 618.688H384.002c-11.782 0-21.312-9.562-21.312-21.376 0-11.75 9.532-21.312 21.312-21.312h255.996c11.782 0 21.312 9.562 21.312 21.312 0 11.812-9.53 21.376-21.312 21.376zM639.998 703.996H384.002c-11.782 0-21.312-9.562-21.312-21.312 0-11.812 9.532-21.372 21.312-21.372h255.996c11.782 0 21.312 9.558 21.312 21.372 0 11.75-9.53 21.312-21.312 21.312z" fill="#434A54" /><path d="M362.69 749.308h298.622v122.688H362.69z" fill="#A0D468" /></svg>