<?xml version="1.0" standalone="no"?><!DOCTYPE svg PUBLIC "-//W3C//DTD SVG 1.1//EN" "http://www.w3.org/Graphics/SVG/1.1/DTD/svg11.dtd"><svg class="icon" width="128px" height="128.00px" viewBox="0 0 1024 1024" version="1.1" xmlns="http://www.w3.org/2000/svg"><path d="M277.338 533.344h-42.672c-11.782 0-21.328-9.532-21.328-21.344 0-11.782 9.546-21.312 21.328-21.312h42.672c11.78 0 21.326 9.532 21.326 21.312 0 11.812-9.546 21.344-21.326 21.344zM789.304 533.344h-42.656c-11.782 0-21.344-9.532-21.344-21.344 0-11.782 9.562-21.312 21.344-21.312h42.656c11.812 0 21.344 9.532 21.344 21.312a21.312 21.312 0 0 1-21.344 21.344z" fill="#CBD0D8" /><path d="M512.002 448.002c-11.796 0-21.344-9.53-21.344-21.312V21.36c0-11.782 9.546-21.344 21.344-21.344 11.78 0 21.326 9.562 21.326 21.344v405.332c0 11.78-9.546 21.31-21.326 21.31z" fill="#434A54" /><path d="M304.93 278.196c45.076 0 84.17 25.624 103.528 63.09 19.376-37.466 58.452-63.09 103.544-63.09 45.06 0 84.152 25.624 103.528 63.09 19.344-37.466 58.466-63.09 103.528-63.09 37.186 0 70.248 17.406 91.592 44.528v-2.686c0-164.964-133.714-298.678-298.646-298.678-164.95 0-298.664 133.714-298.664 298.678v2.686c21.326-27.124 54.42-44.528 91.59-44.528z" fill="#ED5564" /><path d="M618.654 426.69H405.332c-11.78 0-21.326 9.532-21.326 21.312v127.996c0 11.812 9.546 21.344 21.326 21.344h213.322c11.782 0 21.344-9.532 21.344-21.344v-127.996c0-11.78-9.562-21.312-21.344-21.312z m-21.344 127.996H426.66v-85.34h170.65v85.34z" fill="#656D78" /><path d="M895.986 1002.672c0 11.782-9.56 21.312-21.34 21.312H149.342c-11.782 0-21.328-9.532-21.328-21.312V533.344c0-11.782 9.546-21.344 21.328-21.344h725.304c11.78 0 21.34 9.562 21.34 21.344v469.328z" fill="#9B5C5C" /><path d="M874.646 981.328H149.342c-11.782 0-21.328-9.532-21.328-21.344v42.688c0 11.782 9.546 21.312 21.328 21.312h725.304c11.78 0 21.34-9.532 21.34-21.312v-42.688c0 11.812-9.56 21.344-21.34 21.344z" fill="#7F4545" /><path d="M234.666 512h42.672v511.984h-42.672zM746.648 512h42.656v511.984h-42.656z" fill="#FB6D51" /><path d="M234.666 981.328h42.672v42.656h-42.672zM746.648 981.328h42.656v42.656h-42.656z" fill="#E8563F" /></svg>