<?xml version="1.0" standalone="no"?><!DOCTYPE svg PUBLIC "-//W3C//DTD SVG 1.1//EN" "http://www.w3.org/Graphics/SVG/1.1/DTD/svg11.dtd"><svg class="icon" width="128px" height="128.00px" viewBox="0 0 1024 1024" version="1.1" xmlns="http://www.w3.org/2000/svg"><path d="M554.688 448.002c0 23.562-19.124 42.654-42.688 42.654s-42.672-19.092-42.672-42.654c0-23.562 19.11-42.656 42.672-42.656s42.688 19.094 42.688 42.656z" fill="#434A54" /><path d="M85.87 959.99c-0.36-7.062 852.62-7.062 852.244 0h42.718c0.344-7.062 0.468-14.188 0.468-21.344 0-259.182-210.122-469.302-469.3-469.302-259.198 0-469.318 210.12-469.318 469.302 0 7.156 0.172 14.282 0.484 21.344h42.704z" fill="#E6E9ED" /><path d="M512 469.344c-7.156 0-14.266 0.156-21.328 0.468 249.292 11.156 448.004 216.808 448.004 468.834 0 7.156-0.188 14.282-0.5 21.344h42.656c0.344-7.062 0.468-14.188 0.468-21.344 0-259.182-210.12-469.302-469.3-469.302z" fill="#FFFFFF" opacity=".3" /><path d="M666.058 376.066c-1-1.25-10.032-12.75-14.688-28.936-6.844-23.906-1.124-46.656 16.188-63.998 6.344-6.376 7.938-12.812 5.406-21.532-2.188-7.438-6.688-13.25-6.718-13.312l32.844-27.218c1.032 1.218 10.124 12.53 14.844 28.562 6.876 23.624 1.188 46.218-16.156 63.624-6.406 6.406-8 13-5.406 22.124 2.25 7.718 6.876 13.844 6.906 13.906l-33.22 26.78z" fill="#FFCE54" /><path d="M703.996 234.662c0 11.782-9.562 21.344-21.312 21.344-11.812 0-21.376-9.562-21.376-21.344 0-11.78 9.562-21.312 21.376-21.312 11.75 0 21.312 9.532 21.312 21.312zM703.996 362.66c0 11.812-9.562 21.342-21.312 21.342-11.812 0-21.376-9.532-21.376-21.342 0-11.782 9.562-21.312 21.376-21.312 11.75 0 21.312 9.53 21.312 21.312zM495.016 290.256c-1.376-1.812-13.64-18.376-19.984-42.25-9.062-34.062-1.796-65.686 20.984-91.466 13-14.686 16.922-31.404 12.016-51.06-4.094-16.438-12.984-28.532-13.078-28.624l34.032-25.75c1.376 1.812 13.64 18.374 19.984 42.25 9.062 34.062 1.782 65.686-20.984 91.466-13 14.688-16.922 31.406-12.016 51.06 4.094 16.438 12.984 28.5 13.078 28.624l-34.032 25.75z" fill="#FFCE54" /><path d="M533.328 64.01c0 11.78-9.546 21.342-21.328 21.342s-21.328-9.562-21.328-21.342c0-11.782 9.546-21.342 21.328-21.342s21.328 9.562 21.328 21.342zM533.328 277.35c0 11.782-9.546 21.312-21.328 21.312s-21.328-9.53-21.328-21.312 9.546-21.344 21.328-21.344 21.328 9.562 21.328 21.344z" fill="#FFCE54" /><path d="M324.722 376.066c-1-1.25-10.016-12.75-14.672-28.936-6.86-23.906-1.11-46.656 16.172-63.998 6.344-6.376 7.968-12.812 5.406-21.532-2.172-7.438-6.672-13.25-6.718-13.312l32.86-27.218c1.016 1.218 10.124 12.53 14.81 28.562 6.922 23.624 1.188 46.218-16.124 63.624-6.39 6.406-8 13-5.39 22.124 2.218 7.718 6.828 13.844 6.876 13.906l-33.22 26.78z" fill="#FFCE54" /><path d="M362.676 234.662c0 11.782-9.562 21.344-21.344 21.344s-21.328-9.562-21.328-21.344c0-11.78 9.546-21.312 21.328-21.312s21.344 9.532 21.344 21.312zM362.676 362.66c0 11.812-9.562 21.342-21.344 21.342s-21.328-9.532-21.328-21.342c0-11.782 9.546-21.312 21.328-21.312s21.344 9.53 21.344 21.312z" fill="#FFCE54" /><path d="M1023.988 959.99c0-11.782-9.562-21.312-21.312-21.344H21.34c-11.782 0-21.328 9.562-21.328 21.344 0 11.78 9.546 21.342 21.328 21.342h981.336c11.75 0 21.312-9.562 21.312-21.342z" fill="#CCD1D9" /></svg>