<?xml version="1.0" standalone="no"?><!DOCTYPE svg PUBLIC "-//W3C//DTD SVG 1.1//EN" "http://www.w3.org/Graphics/SVG/1.1/DTD/svg11.dtd"><svg class="icon" width="128px" height="128.00px" viewBox="0 0 1024 1024" version="1.1" xmlns="http://www.w3.org/2000/svg"><path d="M595.808 64.01c0 23.562-19.124 42.656-42.686 42.656s-42.656-19.094-42.656-42.656 19.094-42.656 42.656-42.656c23.562 0.002 42.686 19.096 42.686 42.656z" fill="#FFCE54" /><path d="M895.988 405.346c0 188.496-152.808 341.304-341.302 341.304-188.53 0-341.338-152.808-341.338-341.304 0-188.526 152.808-341.334 341.338-341.334 188.494-0.002 341.302 152.808 341.302 341.334z" fill="#F6BB42" /><path d="M554.686 64.01c-7.188 0-14.296 0.25-21.344 0.688 178.558 11 319.992 159.308 319.992 340.648 0 181.34-141.434 329.618-319.992 340.648 7.046 0.438 14.156 0.656 21.344 0.656 188.494 0 341.302-152.808 341.302-341.304 0-188.526-152.808-341.336-341.302-341.336z" fill="#FFFFFF" opacity=".2" /><path d="M938.674 734.65h42.656v172.902h-42.656z" fill="#CCD1D9" /><path d="M981.33 746.65V490.656c0-23.436-19.218-42.654-42.656-42.654H128.006c-23.452 0-24.702 348.18-2.766 356.524l32.25 12.28c10.968 4.188 25.422 6.282 39.876 6.282 14.452 0 28.904-2.094 39.874-6.282l32.25-12.28c10.968-4.188 25.42-6.282 39.874-6.282s28.906 2.094 39.876 6.282l32.248 12.28c10.968 4.188 25.422 6.282 39.876 6.282s28.904-2.094 39.874-6.282l32.25-12.28c10.968-4.188 25.422-6.282 39.876-6.282s28.89 2.094 39.888 6.282l32.248 12.28c10.938 4.188 25.406 6.282 39.876 6.282 14.438 0 28.876-2.094 39.876-6.282l32.25-12.28c10.936-4.188 25.404-6.282 39.874-6.282 14.436 0 28.874 2.094 39.874 6.282l32.25 12.28c10.938 4.188 25.406 6.282 39.876 6.282 14.438 0 28.874-2.094 39.874-6.282l32.248-12.28a17534.524 17534.524 0 0 0 39.844-15.188c-0.012 0-0.012-19.218-0.012-42.688z" fill="#ED5564" /><path d="M941.486 761.87l-32.248 12.282c-11 4.156-25.436 6.25-39.874 6.25-14.468 0-28.938-2.094-39.876-6.25l-32.25-12.282c-11-4.188-25.438-6.282-39.874-6.282-14.468 0-28.938 2.094-39.874 6.282l-32.25 12.282c-11 4.156-25.438 6.25-39.876 6.25-14.468 0-28.938-2.094-39.876-6.25l-32.248-12.282c-10.998-4.188-25.436-6.282-39.888-6.282s-28.906 2.094-39.876 6.282l-32.25 12.282c-10.968 4.156-25.42 6.25-39.874 6.25s-28.906-2.094-39.876-6.25l-32.248-12.282c-10.968-4.188-25.422-6.282-39.876-6.282s-28.904 2.094-39.874 6.282l-32.25 12.282c-10.968 4.156-25.422 6.25-39.874 6.25-14.454 0-28.906-2.094-39.876-6.25l-32.25-12.282c-21.936-8.376-21.936 34.312 0 42.656l32.25 12.28c10.968 4.188 25.422 6.282 39.876 6.282 14.452 0 28.904-2.094 39.874-6.282l32.25-12.28c10.968-4.188 25.42-6.282 39.874-6.282s28.906 2.094 39.876 6.282l32.248 12.28c10.968 4.188 25.422 6.282 39.876 6.282s28.904-2.094 39.874-6.282l32.25-12.28c10.968-4.188 25.422-6.282 39.876-6.282s28.89 2.094 39.888 6.282l32.248 12.28c10.938 4.188 25.406 6.282 39.876 6.282 14.438 0 28.876-2.094 39.876-6.282l32.25-12.28c10.936-4.188 25.404-6.282 39.874-6.282 14.436 0 28.874 2.094 39.874 6.282l32.25 12.28c10.938 4.188 25.406 6.282 39.876 6.282 14.438 0 28.874-2.094 39.874-6.282l32.248-12.28a17534.524 17534.524 0 0 0 39.844-15.188v-42.656c-0.218 0.062-18.062 6.874-39.844 15.188z" fill="#DA4453" /><path d="M938.674 426.658c0-11.782-9.562-21.312-21.342-21.312H192.006c-11.782 0-21.328 9.532-21.328 21.312s9.546 21.344 21.328 21.344h725.326c11.78 0 21.342-9.562 21.342-21.344z" fill="#FFCE54" /><path d="M959.986 981.332c-23.5 0-42.654-19.154-42.654-42.686 0-23.5 19.154-42.656 42.654-42.656 23.532 0 42.688 19.156 42.688 42.656 0 23.532-19.156 42.686-42.688 42.686z" fill="#E6E9ED" /><path d="M959.986 874.646c-35.342 0-63.998 28.656-63.998 64 0 35.374 28.656 63.998 63.998 63.998 35.376 0 64-28.624 64-63.998 0-35.344-28.624-64-64-64z m0 85.344c-11.75 0-21.312-9.562-21.312-21.344 0-11.75 9.562-21.312 21.312-21.312s21.344 9.562 21.344 21.312c0 11.782-9.594 21.344-21.344 21.344z" fill="#434A54" /><path d="M128.006 85.354A21.318 21.318 0 0 0 106.68 64.01H21.354A21.326 21.326 0 0 0 6.26 70.26c-8.328 8.344-8.328 21.844 0 30.156a21.188 21.188 0 0 0 15.094 6.25h63.998v800.886h42.654V85.354z" fill="#CCD1D9" /><path d="M106.68 981.332c-23.532 0-42.672-19.154-42.672-42.686 0-23.5 19.14-42.656 42.672-42.656 23.53 0 42.67 19.156 42.67 42.656 0 23.532-19.142 42.686-42.67 42.686z" fill="#E6E9ED" /><path d="M106.68 874.646c-35.344 0-64 28.656-64 64 0 35.374 28.656 63.998 64 63.998 35.342 0 63.998-28.624 63.998-63.998 0-35.344-28.656-64-63.998-64z m0 85.344c-11.766 0-21.328-9.562-21.328-21.344 0-11.75 9.562-21.312 21.328-21.312s21.326 9.562 21.326 21.312c0 11.782-9.56 21.344-21.326 21.344z" fill="#434A54" /></svg>