<?xml version="1.0" standalone="no"?><!DOCTYPE svg PUBLIC "-//W3C//DTD SVG 1.1//EN" "http://www.w3.org/Graphics/SVG/1.1/DTD/svg11.dtd"><svg class="icon" width="128px" height="128.00px" viewBox="0 0 1024 1024" version="1.1" xmlns="http://www.w3.org/2000/svg"><path d="M213.35 991.98H128.008c-11.782 0-21.344-9.562-21.344-21.312 0-11.812 9.562-21.376 21.344-21.376h85.342c11.78 0 21.312 9.562 21.312 21.376 0 11.75-9.532 21.312-21.312 21.312zM895.99 991.98h-85.34c-11.782 0-21.344-9.562-21.344-21.312 0-11.812 9.562-21.376 21.344-21.376h85.34c11.782 0 21.312 9.562 21.312 21.376 0 11.75-9.53 21.312-21.312 21.312zM1023.614 838.796l-106.654-576a21.336 21.336 0 0 0-20.968-17.468h-85.34a21.34 21.34 0 0 0-15.844 7.062 21.328 21.328 0 0 0-5.376 16.468l63.998 618.626a21.326 21.326 0 0 0 9.654 15.75 21.368 21.368 0 0 0 11.562 3.438 20.86 20.86 0 0 0 6.75-1.124l127.998-42.688c10.094-3.314 16.156-13.626 14.22-24.064z" fill="#434A54" /><path d="M895.99 714.676h-1.156L101.508 757.426c-0.188 0-0.344 0.062-0.532 0.062-56.686 3-100.966 49.622-100.966 106.496 0 58.812 47.842 106.684 106.654 106.684h789.326c70.562 0 127.998-57.434 127.998-127.996 0-70.626-57.436-127.996-127.998-127.996z" fill="#48CFAD" /><path d="M106.666 885.296c-11.532 0-21-9.188-21.312-20.75-0.312-11.75 8.968-21.562 20.75-21.876l810.668-21.376c11.75-0.312 21.562 9 21.876 20.812 0.312 11.75-9 21.562-20.782 21.876L107.228 885.296h-0.562z" fill="#37BC9B" /><path d="M895.99 288.012H565.342C535.904 287.982 512 264.078 512 234.67s23.936-53.342 53.342-53.342H816.242l37.876-133.81a21.344 21.344 0 0 1 20.53-15.5h85.344c6.75 0 13.094 3.188 17.124 8.594 4 5.406 5.25 12.406 3.312 18.844l-64 213.338a21.368 21.368 0 0 1-20.438 15.218z" fill="#48CFAD" /><path d="M746.65 181.328h-181.308c-29.406 0-53.342 23.936-53.342 53.342s23.904 53.31 53.342 53.342h181.308V181.328z" fill="#656D78" /><path d="M618.654 181.328h42.686v106.684h-42.686z" fill="#434A54" /></svg>