<?xml version="1.0" standalone="no"?><!DOCTYPE svg PUBLIC "-//W3C//DTD SVG 1.1//EN" "http://www.w3.org/Graphics/SVG/1.1/DTD/svg11.dtd"><svg class="icon" width="128px" height="128.00px" viewBox="0 0 1024 1024" version="1.1" xmlns="http://www.w3.org/2000/svg"><path d="M369.066 497.298c-3.094 0-6.188-1.032-8.906-3.124-5.094-3.876-8.156-10.782-8.156-18.188v-88.56c0-8.718 4.188-16.53 10.656-19.78l51.186-25.906c5.282-2.656 11.25-1.876 15.938 2.094 4.718 3.968 7.532 10.594 7.532 17.688v81.748c0 8-3.594 15.344-9.282 18.968l-51.216 32.718c-2.44 1.56-5.096 2.342-7.752 2.342z" fill="#656D78" /><path d="M1002.554 672.56h-140.404l99.28-99.282c8.312-8.342 8.312-21.842 0-30.202-8.344-8.312-21.842-8.312-30.186 0l-99.25 99.294v-140.576c0-11.782-9.562-21.312-21.344-21.312s-21.344 9.532-21.344 21.312v140.576l-99.278-99.294c-8.312-8.312-21.844-8.312-30.156 0-8.344 8.36-8.344 21.86 0 30.202l99.278 99.282h-140.4c-11.782 0-21.344 9.532-21.344 21.31 0 11.782 9.562 21.344 21.344 21.344h140.4l-99.278 99.28c-8.344 8.312-8.344 21.844 0 30.156 4.156 4.188 9.624 6.25 15.094 6.25 5.438 0 10.906-2.062 15.062-6.25l99.278-99.282v140.406c0 11.78 9.562 21.342 21.344 21.342s21.312-9.562 21.312-21.342l0.032-140.406 99.25 99.282a21.216 21.216 0 0 0 15.094 6.25c5.466 0 10.904-2.062 15.092-6.25 8.312-8.312 8.312-21.844 0-30.156l-99.28-99.28h140.404c11.782 0 21.312-9.562 21.312-21.344a21.296 21.296 0 0 0-21.312-21.31z" fill="#434A54" /><path d="M810.65 480.548c-117.622 0-213.338 95.7-213.338 213.324 0 117.654 95.716 213.34 213.338 213.34 117.624 0 213.34-95.686 213.34-213.34 0-117.624-95.714-213.324-213.34-213.324z m0 384.008c-94.122 0-170.65-76.562-170.65-170.686 0-94.092 76.53-170.668 170.65-170.668 94.094 0 170.654 76.576 170.654 170.668 0 94.124-76.56 170.686-170.654 170.686z" fill="#656D78" /><path d="M810.652 693.872m-64 0a64 64 0 1 0 128 0 64 64 0 1 0-128 0Z" fill="#CCD1D9" /><path d="M810.62 715.214c-10.438 0-19.562-7.688-21.094-18.312L719.436 206.24c-1.656-11.688 6.436-22.5 18.092-24.156s22.466 6.438 24.154 18.094l70.094 490.694c1.656 11.656-6.438 22.468-18.124 24.124a19.842 19.842 0 0 1-3.032 0.218z" fill="#E6E9ED" /><path d="M825.338 419.548l-15.218-106.436c-1.656-11.688-12.468-19.782-24.124-18.124l-63.374 9.062c-11.654 1.656-19.748 12.468-18.092 24.124l0.124 0.782c-45.938 8.344-119.592 25.094-200.248 56.562-80.248 31.312-151.152 70.78-210.746 117.31-76.03 59.452-133.684 130.482-171.34 211.166-12.438 26.654-0.876 58.436 25.782 70.874a52.65 52.65 0 0 0 22.532 5c20.654 0 39.624-12.062 48.342-30.782 30.406-65.124 77.466-122.934 139.904-171.808 51.248-40.124 112.904-74.45 183.278-101.982 70.218-27.5 135.654-42.688 177.592-50.562 0.842 5.562 3.81 10.594 8.31 13.938a21.232 21.232 0 0 0 15.812 4.062l63.374-9.032a21.4 21.4 0 0 0 18.092-24.154z" fill="#5D9CEC" /><path d="M149.32 587.216h42.686v298.652H149.32z" fill="#434A54" /><path d="M261.162 857.212L49.976 646.03l30.156-30.156 211.216 211.182z" fill="#434A54" /><path d="M21.322 715.214h298.682v42.654H21.322z" fill="#434A54" /><path d="M80.164 857.212l-30.188-30.156 211.186-211.182 30.186 30.156z" fill="#434A54" /><path d="M213.318 736.558c0 23.56-19.094 42.654-42.654 42.654-23.562 0-42.656-19.094-42.656-42.654 0-23.562 19.094-42.688 42.656-42.688 23.56 0.002 42.654 19.126 42.654 42.688z" fill="#CCD1D9" /><path d="M551.718 324.364c-3.156-3.594-8.5-6.094-14.624-6.844-2.562-0.312-63.904-7.656-125.06-7.656-66.248 0-107.186 8.624-125.154 26.312-8.094 7.938-15.188 21.594-3.188 41.532 8.688 14.468 29.562 17.5 45.532 17.5 12.812 0 27.344-1.656 44.188-3.562 20.782-2.344 44.31-5 69.06-5 43.656 0 71.53-13.656 87.216-25.092 16.5-12.032 23.062-24.032 23.75-25.376 2.03-3.908 1.406-8.252-1.72-11.814z" fill="#434A54" /><path d="M740.558 224.552c-11.782 0-21.342-9.562-21.342-21.344 0-5.876-2.25-10.594-7.282-15.312-8.812-8.186-33.656-22.656-100.966-27.156-40.5-2.718-75.782-0.282-76.156-0.25-11.718 0.844-21.938-8.032-22.782-19.782-0.812-11.75 8.032-21.938 19.782-22.782 1.562-0.124 38.594-2.656 82 0.25 61.374 4.094 104.186 17.062 127.184 38.5 13.654 12.75 20.874 28.812 20.874 46.53 0 11.784-9.532 21.346-21.312 21.346z" fill="#4A89DC" /><path d="M170.664 565.876c-94.124 0-170.654 76.56-170.654 170.684 0 94.092 76.53 170.652 170.654 170.652 94.092 0 170.652-76.56 170.652-170.652 0-94.124-76.56-170.684-170.652-170.684z m0 298.68c-70.594 0-128-57.438-128-127.998 0-70.592 57.406-127.998 128-127.998 70.56 0 127.996 57.406 127.996 127.998 0 70.562-57.436 127.998-127.996 127.998z" fill="#656D78" /><path d="M533.312 224.552c-9.468 0-18.124-6.344-20.624-15.938-3-11.376 3.812-23.032 15.218-26.032 1.718-0.468 42.594-11.124 89.75-16.562 68.874-7.968 113.872-0.844 137.588 21.718 8.532 8.124 8.876 21.624 0.75 30.188-8.092 8.532-21.624 8.876-30.154 0.75-6.216-5.938-28.716-18.812-102.84-10.312-44.218 5.062-83.876 15.376-84.282 15.468-1.812 0.47-3.624 0.72-5.406 0.72z" fill="#5D9CEC" /></svg>