<?xml version="1.0" standalone="no"?><!DOCTYPE svg PUBLIC "-//W3C//DTD SVG 1.1//EN" "http://www.w3.org/Graphics/SVG/1.1/DTD/svg11.dtd"><svg class="icon" width="128px" height="128.00px" viewBox="0 0 1024 1024" version="1.1" xmlns="http://www.w3.org/2000/svg"><path d="M319.972 725.308c-9.624 0-18.376-6.562-20.718-16.344-2.75-11.468 4.312-22.968 15.782-25.718 32.25-7.75 83.124-24.184 96.216-36.684 5.718-8.624 10-48.062 12.562-71.688 2.376-21.876 4.812-44.468 8.718-61.844 2.406-10.812 9.75-43.718 36.782-43.718 11.78 0 21.342 9.562 21.342 21.344 0 8.876-5.406 16.468-13.124 19.688-5.062 11.656-8.936 47.218-11.31 69.124-5.468 50.406-9.594 82.032-24.468 96.934-25.438 25.438-101.748 44.718-116.78 48.312-1.688 0.408-3.346 0.594-5.002 0.594z" fill="#F6BB42" /><path d="M320.004 725.308c-1.624 0-3.312-0.188-4.968-0.594-15.062-3.594-91.342-22.876-116.78-48.312-14.906-14.902-19-46.528-24.5-96.934-2.376-21.906-6.218-57.468-11.312-69.124-7.688-3.218-13.124-10.812-13.124-19.688 0-11.782 9.562-21.344 21.344-21.344 27.032 0 34.406 32.906 36.812 43.718 3.876 17.376 6.344 39.968 8.718 61.844 2.562 23.624 6.844 63.062 12.562 71.688 13 12.406 64.904 29.152 96.216 36.684 11.468 2.75 18.532 14.25 15.782 25.718-2.344 9.782-11.094 16.344-20.75 16.344z" fill="#F6BB42" /><path d="M372.97 742.714L341.316 574V21.32c0-11.782-9.532-21.312-21.312-21.312S298.66 9.54 298.66 21.32V574l-31.624 168.714a21.326 21.326 0 0 0 4.532 17.562 21.428 21.428 0 0 0 16.438 7.718h64c6.344 0 12.342-2.844 16.404-7.718s5.716-11.312 4.56-17.562z" fill="#FFCE54" /><path d="M266.66 746.652v223.996c0 29.406 23.938 53.344 53.344 53.344s53.31-23.938 53.31-53.344V746.652H266.66z" fill="#ED5564" /><path d="M266.66 895.996h106.654v42.652H266.66zM266.66 810.652h106.654v42.656H266.66z" fill="#DA4453" /><path d="M703.996 298.66c9.656 0 18.406 6.562 20.75 16.344 2.75 11.468-4.312 22.966-15.782 25.716-32.28 7.75-83.152 24.188-96.214 36.688-5.718 8.624-10 48.062-12.562 71.686-2.376 21.876-4.812 44.468-8.718 61.844-2.406 10.812-9.782 43.718-36.782 43.718-11.812 0-21.376-9.562-21.376-21.344 0-8.876 5.438-16.468 13.124-19.688 5.094-11.656 8.938-47.218 11.312-69.124 5.5-50.404 9.624-82.03 24.5-96.936 25.438-25.436 101.748-44.716 116.778-48.31a20.998 20.998 0 0 1 4.97-0.594z" fill="#F6BB42" /><path d="M703.996 298.66c1.624 0 3.312 0.188 4.968 0.594 15.032 3.594 91.344 22.876 116.782 48.31 14.876 14.906 19 46.532 24.5 96.936 2.376 21.906 6.218 57.468 11.31 69.124 7.688 3.218 13.124 10.812 13.124 19.688 0 11.782-9.562 21.344-21.374 21.344-27 0-34.376-32.906-36.782-43.718-3.906-17.376-6.344-39.968-8.718-61.844-2.562-23.624-6.844-63.06-12.562-71.686-13-12.376-64.906-29.156-96.218-36.688-11.466-2.75-18.53-14.248-15.78-25.716 2.346-9.782 11.094-16.344 20.75-16.344z" fill="#F6BB42" /><path d="M651.03 281.254l31.656 168.714v552.68c0 11.782 9.53 21.344 21.31 21.344s21.312-9.562 21.312-21.344v-552.68l31.656-168.714a21.436 21.436 0 0 0-4.532-17.562 21.4 21.4 0 0 0-16.438-7.688h-63.998a21.4 21.4 0 0 0-16.438 7.688 21.448 21.448 0 0 0-4.528 17.562z" fill="#FFCE54" /><path d="M757.308 277.316V53.32c0-29.406-23.906-53.312-53.312-53.312-29.404 0-53.31 23.906-53.31 53.312v223.996h106.622z" fill="#ED5564" /><path d="M650.686 85.32h106.624v42.686h-106.624zM650.686 170.662h106.624v42.656h-106.624z" fill="#DA4453" /></svg>