<?xml version="1.0" standalone="no"?><!DOCTYPE svg PUBLIC "-//W3C//DTD SVG 1.1//EN" "http://www.w3.org/Graphics/SVG/1.1/DTD/svg11.dtd"><svg class="icon" width="128px" height="128.00px" viewBox="0 0 1024 1024" version="1.1" xmlns="http://www.w3.org/2000/svg"><path d="M448 330.67a21.292 21.292 0 0 1-16.656-8.016L260.692 109.332c-7.376-9.204-5.876-22.624 3.312-29.984 9.218-7.36 22.624-5.876 30 3.328L464.658 296c7.376 9.204 5.876 22.624-3.344 29.984a21.12 21.12 0 0 1-13.314 4.686zM554.688 330.67a21.356 21.356 0 0 1-16.688-8.016L367.346 109.332c-7.376-9.204-5.876-22.624 3.344-29.984 9.186-7.36 22.624-5.876 29.968 3.328L571.312 296c7.376 9.204 5.876 22.624-3.312 29.984a21.242 21.242 0 0 1-13.312 4.686z" fill="#434A54" /><path d="M362.66 309.328h255.996v63.998H362.66z" fill="#E6E9ED" /><path d="M959.992 842.644H64.008c-35.282 0-64-28.686-64-63.998V415.998c0-35.296 28.718-64 64-64h895.984c35.28 0 63.998 28.704 63.998 64v362.65c0 35.31-28.718 63.996-63.998 63.996z" fill="#FC6E51" /><path d="M0.01 778.646c0 35.312 28.718 63.998 64 63.998h95.842v-85.31H0.01v21.312z" fill="#E6E9ED" /><path d="M1023.99 437.326H106.664c-11.782 0-21.312 9.546-21.312 21.328v170.684a21.3 21.3 0 0 0 21.312 21.312h917.326V437.326z" fill="#4FC2E9" /><path d="M192.006 735.99c-58.812 0-106.654 47.844-106.654 106.654 0 58.844 47.842 106.686 106.654 106.686s106.654-47.842 106.654-106.686c0-58.81-47.842-106.654-106.654-106.654zM789.338 735.99c-58.81 0-106.686 47.844-106.686 106.654 0 58.844 47.876 106.686 106.686 106.686s106.654-47.842 106.654-106.686c0-58.81-47.844-106.654-106.654-106.654z" fill="#434A54" /><path d="M207.1 827.584c8.312 8.31 8.312 21.81 0 30.154a21.33 21.33 0 0 1-30.186 0c-8.312-8.344-8.312-21.844 0-30.154a21.33 21.33 0 0 1 30.186 0z" fill="#F5F7FA" /><path d="M362.66 650.742h255.996v191.902H362.66z" fill="#E6E9ED" /><path d="M804.4 827.584c8.344 8.31 8.344 21.81 0 30.154-8.312 8.344-21.81 8.344-30.154 0s-8.344-21.844 0-30.154c8.344-8.344 21.842-8.344 30.154 0z" fill="#F5F7FA" /><path d="M480 437.326h21.342v405.32H480z" fill="#E6E9ED" /><path d="M190.63 650.742l-0.686-213.416 42.686-0.126 0.656 213.386zM768.34 650.742l-0.688-213.416 42.686-0.126 0.656 213.386z" fill="#3BAFDA" /><path d="M362.66 437.326h255.994v405.318h21.342V415.998H341.346V842.644h21.314zM1023.99 693.336h-63.998c-11.782 0-21.344 9.532-21.344 21.312s9.562 21.342 21.344 21.342h63.998v-42.654z" fill="#E6E9ED" /></svg>