<?xml version="1.0" standalone="no"?><!DOCTYPE svg PUBLIC "-//W3C//DTD SVG 1.1//EN" "http://www.w3.org/Graphics/SVG/1.1/DTD/svg11.dtd"><svg class="icon" width="128px" height="128.00px" viewBox="0 0 1024 1024" version="1.1" xmlns="http://www.w3.org/2000/svg"><path d="M608.054 611.976c-8.312 8.342-21.844 8.342-30.188 0l-60.308-60.31c-8.328-8.328-8.328-21.828 0-30.172 8.328-8.312 21.826-8.312 30.186 0l60.31 60.326c8.314 8.312 8.314 21.844 0 30.156z" fill="#EAAA39" /><path d="M281.392 817.97c-8.328 8.344-21.844 8.344-30.17 0-8.328-8.312-8.328-21.812 0-30.156l662.576-662.56c8.312-8.344 21.844-8.344 30.188 0 8.312 8.344 8.312 21.842 0 30.156l-662.594 662.56z" fill="#F6BB42" /><path d="M281.392 817.97c-1.906 1.906-19.406 18.906-46.014 27.812-37.234 12.438-74.42 2.594-104.716-27.688-30.266-30.282-40.14-67.466-27.812-104.746 8.828-26.688 25.75-44.218 27.64-46.156 8.312-8.344 21.812-8.406 30.17-0.094 8.344 8.282 8.406 21.718 0.188 30.094-0.39 0.406-12.36 13-17.86 30.716-6.734 21.624-0.906 41.28 17.844 60.03 18.718 18.718 38.296 24.532 59.858 17.75 17.844-5.624 30.484-17.844 30.61-17.968 8.342-8.312 21.796-8.282 30.14 0.062 8.328 8.314 8.28 21.876-0.048 30.188zM487.388 611.976c-8.328 8.342-21.844 8.342-30.172 0l-120.668-120.638a21.36 21.36 0 0 1 0-30.186c8.328-8.312 21.844-8.312 30.172 0l120.668 120.668c8.326 8.344 8.326 21.844 0 30.156z" fill="#F6BB42" /><path d="M638.024 310.156c-0.282-0.312-0.532-0.594-0.844-0.876l-4.062-4.062c-23.032-23.03-114.528-114.528-115.668-115.654a21.294 21.294 0 0 0-30.156 0c-8.344 8.312-8.344 21.812-0.016 30.156l6.562 6.562c0.672 1.938 7.062 27.25-68.388 127.59-42.546 56.592-89.076 107.434-89.544 107.966-7.624 8.312-7.452 21.124 0.39 29.218a21.204 21.204 0 0 0 15.344 6.532c4.922 0 9.86-1.688 13.86-5.124 0.468-0.406 47.234-40.342 100.95-79.686 31.218-22.842 58.578-40.998 81.326-53.936 35.466-20.124 50.53-22.312 55.374-22.312 0.406 0 0.718 0.032 0.968 0.032l3.562 3.532c0.032 0.062 0.124 0.124 0.188 0.188s0.094 0.124 0.156 0.188l0.094 0.094c0.812 0.812 1.688 1.562 2.624 2.218 2 1.468 4.25 2.562 6.688 3.25 1.876 0.562 3.844 0.812 5.812 0.812h0.5c11.562-0.25 20.876-9.718 20.876-21.312-0.002-6.064-2.566-11.502-6.596-15.376zM261.126 536.588L24.96 772.72c-33.264 33.282-33.264 87.406 0 120.686 16.124 16.124 37.546 25 60.342 25 22.78 0 44.218-8.876 60.326-25l236.166-236.182c16.124-16.094 25-37.532 25-60.31 0-22.812-8.876-44.216-25-60.326-33.262-33.282-87.402-33.282-120.668 0z m102.998 60.326a42.38 42.38 0 0 1-12.5 30.154L115.474 863.252a42.488 42.488 0 0 1-30.17 12.468 42.466 42.466 0 0 1-30.17-12.468c-16.64-16.656-16.64-43.718 0-60.344L291.3 566.726c16.64-16.624 43.702-16.624 60.342 0a42.46 42.46 0 0 1 12.482 30.188z" fill="#FFCE54" /><path d="M366.718 491.338L276.22 581.82c-8.344 8.344-21.842 8.312-30.17 0-8.328-8.344-8.328-21.844 0-30.154l90.498-90.514c8.328-8.312 21.844-8.312 30.172 0a21.36 21.36 0 0 1-0.002 30.186z" fill="#FFCE54" /><path d="M1004.294 215.752L547.744 672.318c-8.36 8.344-21.858 8.344-30.186 0-8.328-8.312-8.328-21.844 0-30.156L974.14 185.596c8.344-8.344 21.844-8.344 30.154 0 8.344 8.312 8.344 21.844 0 30.156z" fill="#F6BB42" /><path d="M1004.294 215.752L974.14 185.596l-0.188 0.188c1.312-1.376 5.032-6.124 6.594-11.562 1.376-4.75 1.688-10.688-6.406-18.812-8.406-8.376-14.656-7.812-19.656-6.156-5.938 2-10.5 6.124-10.5 6.156-8.344 8.342-21.876 8.342-30.188 0-8.312-8.312-8.312-21.812 0-30.156 18.188-18.188 57.312-33.188 90.498 0 18.188 18.156 24.032 40.654 16.468 63.31-5.092 15.312-14.592 25.344-16.468 27.188z" fill="#F6BB42" /><path d="M562.806 687.412c-8.312 8.312-21.844 8.312-30.172 0l-30.17-30.188c-8.328-8.312-8.328-21.812 0-30.156 8.344-8.344 21.844-8.344 30.17 0l30.172 30.156c8.312 8.344 8.312 21.844 0 30.188z" fill="#FFCE54" /><path d="M343.516 514.526l-52.216 52.202c11.14-11.124 26.952-14.81 41.186-11.03l32.328-32.296a85.164 85.164 0 0 0-21.298-8.876z" fill="#F6BB42" /></svg>