<?xml version="1.0" standalone="no"?><!DOCTYPE svg PUBLIC "-//W3C//DTD SVG 1.1//EN" "http://www.w3.org/Graphics/SVG/1.1/DTD/svg11.dtd"><svg class="icon" width="128px" height="128.00px" viewBox="0 0 1024 1024" version="1.1" xmlns="http://www.w3.org/2000/svg"><path d="M487.724 905.294C383.884 1009.168 53.706 1048.104 14.8 1009.2c-38.906-38.906 0.032-369.052 103.904-472.942 103.84-103.856 270.65-105.434 372.552-3.532 101.904 101.92 100.342 268.728-3.532 372.568z" fill="#E6E9ED" /><path d="M476.194 569.148c-5.468 0-10.936-2.062-15.092-6.25-8.344-8.312-8.344-21.844 0-30.172l92.342-92.34c8.31-8.328 21.842-8.328 30.154 0 8.344 8.342 8.344 21.842 0 30.17l-92.342 92.34a21.14 21.14 0 0 1-15.062 6.252z" fill="#CCD1D9" /><path d="M1005.242 109.256c25-24.984 25-65.514 0-90.498-25-25-65.5-25-90.498 0L553.444 380.06l6.624 66.966 16.968 16.968 66.904 6.562 361.302-361.3z" fill="#48CFAD" /><path d="M643.94 470.558l-90.496-90.498v60.326l30.154 30.172h60.342z" fill="#37BC9B" /><path d="M557.694 647.708c-11.344-42.248-33.468-81.998-66.438-114.982-32.936-32.95-72.686-55.06-114.872-66.418-6.468 17.75-21.718 78.434 40.592 140.716 37.812 37.842 75.03 47.092 102.404 47.092 17.75 0 31.344-3.908 38.314-6.408zM72.456 919.544c-0.562 0-1.124 0-1.688-0.062-11.75-0.906-20.53-11.188-19.592-22.938C58.862 799.36 76.58 719.02 103.798 657.74c22.656-51.03 52.092-89.436 87.498-114.17 64.468-45.028 125.684-28.64 128.248-27.922l-11.5 41.094 0.156 0.032c-1.844-0.468-45.718-11.438-93.466 22.5-83.748 59.498-112.028 207.21-121.028 320.646-0.876 11.156-10.22 19.624-21.25 19.624z" fill="#F5F7FA" /></svg>