<?xml version="1.0" standalone="no"?><!DOCTYPE svg PUBLIC "-//W3C//DTD SVG 1.1//EN" "http://www.w3.org/Graphics/SVG/1.1/DTD/svg11.dtd"><svg class="icon" width="128px" height="128.00px" viewBox="0 0 1024 1024" version="1.1" xmlns="http://www.w3.org/2000/svg"><path d="M191.998 469.328c-11.75 0-21.312-9.546-21.312-21.328V21.336c0-11.782 9.562-21.328 21.312-21.328 11.812 0 21.344 9.546 21.344 21.328V448c0 11.782-9.532 21.328-21.344 21.328zM832.002 469.328c-11.75 0-21.312-9.546-21.312-21.328V21.336c0-11.782 9.562-21.328 21.312-21.328 11.81 0 21.31 9.546 21.31 21.328V448c0 11.782-9.5 21.328-21.31 21.328z" fill="#CCD1D9" /><path d="M255.998 639.996h-64c-11.75 0-21.312-9.562-21.312-21.312V405.33c0-11.782 9.562-21.328 21.312-21.328h64c11.812 0 21.344 9.546 21.344 21.328v213.354c-0.002 11.75-9.532 21.312-21.344 21.312zM832.002 639.996h-63.998c-11.75 0-21.312-9.562-21.312-21.312V405.33c0-11.782 9.562-21.328 21.312-21.328h63.998c11.81 0 21.31 9.546 21.31 21.328v213.354c0 11.75-9.5 21.312-21.31 21.312z" fill="#E6E9ED" /><path d="M234.684 448h554.63v170.684H234.684z" fill="#DA4453" /><path d="M682.692 384.002H341.338c-58.812 0-106.654-47.842-106.654-106.67V150.99c0-58.826 47.842-106.67 106.654-106.67h341.352c58.812 0 106.624 47.844 106.624 106.67v126.342c0 58.828-47.81 106.67-106.622 106.67zM810.69 853.304H213.342c-35.282 0-64-28.686-64-63.998v-127.998c0-35.25 28.718-63.998 64-63.998h597.348c35.248 0 63.998 28.748 63.998 63.998v127.998c0 35.314-28.75 63.998-63.998 63.998z" fill="#ED5564" /><path d="M341.338 533.328h341.352v277.354H341.338z" fill="#FFCE54" /><path d="M277.34 725.308h-42.656c-11.78 0-21.342-9.532-21.342-21.312s9.562-21.312 21.342-21.312h42.656c11.78 0 21.342 9.532 21.342 21.312s-9.56 21.312-21.342 21.312zM789.314 725.308h-42.624c-11.812 0-21.376-9.532-21.376-21.312s9.562-21.312 21.376-21.312h42.624c11.812 0 21.376 9.532 21.376 21.312s-9.564 21.312-21.376 21.312z" fill="#F5F7FA" /><path d="M789.314 274.41H234.684v177.324h0.344a21.264 21.264 0 0 0 5.906 11.344l85.312 85.358c4 4 9.436 6.25 15.092 6.25h341.352c5.624 0 11.062-2.25 15.062-6.25l85.312-85.358a21.1 21.1 0 0 0 5.936-11.344h0.312v-177.324z" fill="#ED5564" /><path d="M383.994 554.686h42.688v255.996h-42.688zM490.68 554.686h42.656v255.996H490.68zM597.318 554.686h42.686v255.996h-42.686z" fill="#F6BB42" /><path d="M725.316 256.004H298.684c-11.782 0-21.342 9.546-21.342 21.328v127.998c0 11.78 9.562 21.342 21.342 21.342h426.632c11.812 0 21.376-9.562 21.376-21.342v-127.998c0-11.782-9.564-21.328-21.376-21.328z" fill="#4FC2E9" /><path d="M298.684 853.304H170.686c-11.782 0-21.344 9.562-21.344 21.376v127.998c0 11.75 9.562 21.312 21.344 21.312h127.998c11.782 0 21.312-9.562 21.312-21.312V874.68c0-11.812-9.532-21.376-21.312-21.376zM853.312 853.304h-127.996c-11.75 0-21.312 9.562-21.312 21.376v127.998c0 11.75 9.562 21.312 21.312 21.312h127.996c11.812 0 21.376-9.562 21.376-21.312V874.68a21.368 21.368 0 0 0-21.376-21.376z" fill="#434A54" /><path d="M640.004 192.006H383.994c-11.75 0-21.312-9.546-21.312-21.328s9.562-21.344 21.312-21.344h256.01c11.812 0 21.312 9.562 21.312 21.344s-9.5 21.328-21.312 21.328z" fill="#DA4453" /><path d="M565.008 256.004l-170.67 170.668h107.342l170.636-170.668z" fill="#F5F7FA" opacity=".2" /><path d="M896 810.682H128c-11.75 0-21.312 9.532-21.312 21.31v42.688c0 11.75 9.562 21.312 21.312 21.312h768c11.812 0 21.312-9.562 21.312-21.312v-42.688c0-11.78-9.5-21.31-21.312-21.31z" fill="#E6E9ED" /></svg>