<?xml version="1.0" standalone="no"?><!DOCTYPE svg PUBLIC "-//W3C//DTD SVG 1.1//EN" "http://www.w3.org/Graphics/SVG/1.1/DTD/svg11.dtd"><svg class="icon" width="128px" height="128.00px" viewBox="0 0 1024 1024" version="1.1" xmlns="http://www.w3.org/2000/svg"><path d="M661.344 683.868l0.218-384.226 221.246-0.188 79.438 158.434 40.404 80.78-0.374 145.2z" fill="#E6E9ED" /><path d="M957.684 448.762l-74.876-149.308-221.246 0.188-0.094 149.12z" fill="#4FC2E9" /><path d="M981.308 448.326l-85.344-170.214-255.714 0.218-0.282 426.882h383.588l0.438-171.574-42.686-85.312z m-0.312 214.228H682.688l0.188-341.602 186.746-0.156 73.532 146.622 38.156 76.248-0.314 118.888z" fill="#E6E9ED" /><path d="M725.032 320.89h42.656v127.872h-42.656z" fill="#3BAFDA" /><path d="M672.938 236.892a21.396 21.396 0 0 0-20.282-1.624l-187.87 83.498H21.342a21.33 21.33 0 0 0-17.11 8.594 21.328 21.328 0 0 0-3.328 18.874L60.168 596.12l-17.204 82.28a21.344 21.344 0 0 0 4.766 17.282c4.062 4.782 10 7.532 16.282 7.532h597.3c11.782 0 21.344-9.562 21.344-21.344v-427.1c0-7.222-3.656-13.94-9.718-17.878z" fill="#FC6E51" /><path d="M60.168 596.12l-17.204 83.936a22 22 0 0 0 4.766 17.594c4.046 4.844 10 7.656 16.282 7.656l618.55-0.094V596.12H60.168z" fill="#CCD1D9" /><path d="M789.31 577.212c-58.904 0-106.654 47.748-106.654 106.654 0 58.904 47.75 106.686 106.654 106.686s106.654-47.782 106.654-106.686c0-58.906-47.75-106.654-106.654-106.654zM362.664 577.212c-34.906 0-65.874 16.75-85.342 42.654-19.454-25.904-50.42-42.654-85.328-42.654-58.906 0-106.654 47.748-106.654 106.654 0 58.904 47.75 106.686 106.654 106.686 34.906 0 65.874-16.782 85.328-42.688 19.468 25.906 50.436 42.688 85.342 42.688 58.906 0 106.654-47.782 106.654-106.686 0-58.906-47.75-106.654-106.654-106.654z" fill="#434A54" /><path d="M767.968 683.868c0 11.782 9.562 21.344 21.342 21.344 11.782 0 21.344-9.562 21.344-21.344s-9.562-21.312-21.344-21.312c-11.778-0.002-21.342 9.53-21.342 21.312zM170.666 683.868c0 11.782 9.546 21.344 21.328 21.344s21.344-9.562 21.344-21.344-9.562-21.312-21.344-21.312-21.328 9.53-21.328 21.312zM341.32 683.868c0 11.782 9.562 21.344 21.344 21.344s21.328-9.562 21.328-21.344-9.546-21.312-21.328-21.312-21.344 9.53-21.344 21.312z" fill="#F5F7FA" /><path d="M554.66 470.106H170.666c-11.782 0-21.328-9.562-21.328-21.344 0-11.78 9.546-21.342 21.328-21.342H554.66c11.782 0 21.344 9.562 21.344 21.342 0 11.782-9.562 21.344-21.344 21.344z" fill="#E9573F" /></svg>