<?xml version="1.0" standalone="no"?><!DOCTYPE svg PUBLIC "-//W3C//DTD SVG 1.1//EN" "http://www.w3.org/Graphics/SVG/1.1/DTD/svg11.dtd"><svg class="icon" width="128px" height="128.00px" viewBox="0 0 1024 1024" version="1.1" xmlns="http://www.w3.org/2000/svg"><path d="M621.124 746.372l38.184-341.12 182.652-0.186 84.282 124.122 76.374 38.344-0.376 178.84z" fill="#E6E9ED" /><path d="M914.992 512.594l-73.032-107.528-182.652 0.186-12 107.342z" fill="#4FC2E9" /><path d="M940.774 512.594l-87.5-128.874-213.058 0.218-42.936 383.746h426.242l0.468-213.308-83.216-41.782z m40.186 212.434H644.996l33.376-298.462 152.31-0.156 74.81 110.154 6.218 9.188 9.906 4.968 59.624 29.938-0.28 144.37z" fill="#E6E9ED" /><path d="M639.964 170.414H42.666C19.104 170.414 0.01 189.508 0.01 213.07v511.958c0 23.562 19.094 42.656 42.656 42.656h597.268c23.562 0 42.688-19.094 42.688-42.656v-511.96c0-23.562-19.094-42.654-42.658-42.654z" fill="#FC6E51" /><path d="M725.308 426.502h42.656v86.092h-42.656z" fill="#3BAFDA" /><path d="M127.506 169.944h42.656V764.12H127.506zM256.004 169.944h42.656V764.12h-42.656zM384.502 169.944h42.656V764.12h-42.656zM513 169.944h42.656V764.12H513z" fill="#E9573F" /><path d="M831.932 747.4m-106.654 0a106.654 106.654 0 1 0 213.308 0 106.654 106.654 0 1 0-213.308 0Z" fill="#434A54" /><path d="M213.318 747.4m-106.654 0a106.654 106.654 0 1 0 213.308 0 106.654 106.654 0 1 0-213.308 0Z" fill="#434A54" /><path d="M810.588 747.402c0 11.782 9.562 21.344 21.344 21.344 11.78 0 21.342-9.562 21.342-21.344s-9.562-21.312-21.342-21.312c-11.782 0-21.344 9.532-21.344 21.312zM191.974 747.402c0 11.782 9.562 21.344 21.344 21.344s21.312-9.562 21.312-21.344-9.53-21.312-21.312-21.312-21.344 9.532-21.344 21.312z" fill="#F5F7FA" /><path d="M1023.896 597.032h-42.624c-11.782 0-21.312 9.562-21.312 21.34a21.3 21.3 0 0 0 21.312 21.312h42.53l0.094-42.652z" fill="#ED5564" /></svg>