<?xml version="1.0" standalone="no"?><!DOCTYPE svg PUBLIC "-//W3C//DTD SVG 1.1//EN" "http://www.w3.org/Graphics/SVG/1.1/DTD/svg11.dtd"><svg class="icon" width="128px" height="128.00px" viewBox="0 0 1024 1024" version="1.1" xmlns="http://www.w3.org/2000/svg"><path d="M620.874 746.184l38.654-383.744 182.34-0.188 80.186 120.218 80.592 80.562-0.374 183.152z" fill="#E6E9ED" /><path d="M912.992 468.876l-71.124-106.624-182.34 0.188-10.72 106.436z" fill="#4FC2E9" /><path d="M938.618 468.876l-85.344-127.966-213.028 0.218-42.936 426.4h426.242l0.438-213.308-85.372-85.344z m42.342 255.996H644.464l34.376-341.118 151.624-0.156 72.686 108.966 2.344 3.5 2.968 3 72.844 72.78-0.346 153.028z" fill="#E6E9ED" /><path d="M639.964 170.256H42.696C19.134 170.256 0.01 189.35 0.01 212.912v511.958c0 23.562 19.094 42.656 42.656 42.656h597.3c23.562 0 42.656-19.094 42.656-42.656V212.912c0-23.562-19.094-42.656-42.658-42.656z" fill="#CCD1D9" /><path d="M831.962 747.088m-106.654 0a106.654 106.654 0 1 0 213.308 0 106.654 106.654 0 1 0-213.308 0Z" fill="#434A54" /><path d="M192.038 747.088m-106.654 0a106.654 106.654 0 1 0 213.308 0 106.654 106.654 0 1 0-213.308 0Z" fill="#434A54" /><path d="M810.65 747.09a21.3 21.3 0 0 0 21.312 21.312c11.78 0 21.342-9.532 21.342-21.312s-9.562-21.344-21.342-21.344-21.312 9.562-21.312 21.344zM170.694 747.09c0 11.782 9.562 21.312 21.342 21.312s21.312-9.532 21.312-21.312-9.532-21.344-21.312-21.344-21.342 9.562-21.342 21.344z" fill="#F5F7FA" /><path d="M85.382 554.218c-11.812 0-21.342 9.532-21.342 21.312v42.684c0 11.782 9.532 21.312 21.342 21.312a21.3 21.3 0 0 0 21.312-21.312v-42.684a21.298 21.298 0 0 0-21.312-21.312zM170.694 554.218c-11.782 0-21.344 9.532-21.344 21.312v42.684c0 11.782 9.562 21.312 21.344 21.312 11.78 0 21.342-9.532 21.342-21.312v-42.684c0.002-11.78-9.562-21.312-21.342-21.312zM256.004 554.218c-11.75 0-21.312 9.532-21.312 21.312v42.684c0 11.782 9.562 21.312 21.312 21.312 11.812 0 21.344-9.532 21.344-21.312v-42.684c0-11.78-9.53-21.312-21.344-21.312zM341.346 554.218c-11.782 0-21.342 9.532-21.342 21.312v42.684c0 11.782 9.562 21.312 21.342 21.312s21.344-9.532 21.344-21.312v-42.684c0-11.78-9.562-21.312-21.344-21.312zM426.69 554.218c-11.812 0-21.344 9.532-21.344 21.312v42.684c0 11.782 9.532 21.312 21.344 21.312a21.3 21.3 0 0 0 21.312-21.312v-42.684a21.3 21.3 0 0 0-21.312-21.312zM512 554.218c-11.782 0-21.344 9.532-21.344 21.312v42.684c0 11.782 9.562 21.312 21.344 21.312s21.344-9.532 21.344-21.312v-42.684c0-11.78-9.562-21.312-21.344-21.312zM597.31 554.218c-11.75 0-21.31 9.532-21.31 21.312v42.684c0 11.782 9.56 21.312 21.31 21.312 11.812 0 21.344-9.532 21.344-21.312v-42.684c0-11.78-9.53-21.312-21.344-21.312z" fill="#656D78" /><path d="M725.028 383.566h42.656v85.31h-42.656z" fill="#3BAFDA" /><path d="M639.964 170.256H42.696C19.134 170.256 0.01 189.35 0.01 212.912v383.962h682.612V212.912c0-23.562-19.094-42.656-42.658-42.656z" fill="#5D9CEC" /></svg>