<?xml version="1.0" standalone="no"?><!DOCTYPE svg PUBLIC "-//W3C//DTD SVG 1.1//EN" "http://www.w3.org/Graphics/SVG/1.1/DTD/svg11.dtd"><svg class="icon" width="128px" height="128.00px" viewBox="0 0 1024 1024" version="1.1" xmlns="http://www.w3.org/2000/svg"><path d="M1002.644 330.684c-11.782 0-21.344 9.546-21.344 21.328 0 10.218-14.75 22.594-40.468 33.938-26.75 11.796-64.558 22.264-112.402 31.108-83.032 15.36-167.464 20.282-168.308 20.328a21.302 21.302 0 0 0-20.124 20.936c-0.188 11.188 8.282 20.61 19.406 21.61 0.844 0.078 85.152 7.75 168.372 24.484 151.778 30.546 153.528 60.624 153.528 60.904 0 11.812 9.562 21.376 21.344 21.376s21.344-9.562 21.344-21.376V352.012c-0.004-11.782-9.566-21.328-21.348-21.328z" fill="#FFCE54" /><path d="M661.308 480.008H21.324c-11.78 0-21.312-9.546-21.312-21.328 0-11.78 9.532-21.342 21.312-21.342h639.984c11.782 0 21.344 9.562 21.344 21.342s-9.562 21.328-21.344 21.328z" fill="#FFCE54" /><path d="M21.324 501.336c-11.78 0-21.312-9.546-21.312-21.328v-42.67c0-11.782 9.532-21.328 21.312-21.328 11.782 0 21.344 9.546 21.344 21.328v42.67c0 11.782-9.562 21.328-21.344 21.328z" fill="#F6BB42" /><path d="M341.316 394.684H298.66c-11.78 0-21.342-9.562-21.342-21.344s9.562-21.328 21.342-21.328h42.656c11.782 0 21.344 9.546 21.344 21.328s-9.562 21.344-21.344 21.344zM426.658 394.684h-42.656c-11.812 0-21.342-9.562-21.342-21.344s9.532-21.328 21.342-21.328h42.656c11.782 0 21.344 9.546 21.344 21.328s-9.562 21.344-21.344 21.344zM512 394.684h-42.686c-11.782 0-21.312-9.562-21.312-21.344s9.53-21.328 21.312-21.328H512c11.782 0 21.312 9.546 21.312 21.328s-9.53 21.344-21.312 21.344z" fill="#434A54" /><path d="M575.996 650.692H234.664c-58.81 0-106.654-47.874-106.654-106.684 0-58.812 47.842-106.67 106.654-106.67h341.334c58.812 0 106.656 47.858 106.656 106.67-0.002 58.81-47.846 106.684-106.658 106.684z m-341.332-170.684c-35.28 0-63.998 28.718-63.998 64 0 35.31 28.718 63.998 63.998 63.998h341.334c35.282 0 64-28.688 64-63.998 0-35.282-28.718-64-64-64H234.664z" fill="#F6BB42" /><path d="M320.004 693.316c-11.812 0-21.344-9.532-21.344-21.312V416.01c0-11.782 9.532-21.326 21.344-21.326 11.782 0 21.312 9.544 21.312 21.326v255.994a21.298 21.298 0 0 1-21.312 21.312zM405.316 693.316a21.3 21.3 0 0 1-21.312-21.312V416.01c0-11.782 9.532-21.326 21.312-21.326 11.78 0 21.342 9.544 21.342 21.326v255.994c0 11.782-9.562 21.312-21.342 21.312zM490.658 693.316c-11.782 0-21.344-9.532-21.344-21.312V416.01c0-11.782 9.562-21.326 21.344-21.326 11.78 0 21.342 9.544 21.342 21.326v255.994c0 11.782-9.562 21.312-21.342 21.312z" fill="#FFCE54" /></svg>