<?xml version="1.0" standalone="no"?><!DOCTYPE svg PUBLIC "-//W3C//DTD SVG 1.1//EN" "http://www.w3.org/Graphics/SVG/1.1/DTD/svg11.dtd"><svg class="icon" width="128px" height="128.00px" viewBox="0 0 1024 1024" version="1.1" xmlns="http://www.w3.org/2000/svg"><path d="M1023.93 917.292S1037.618 106.46 597.32 106.71c-341.506 0.188-341.302 298.616-341.302 298.616s146.62-175.026 297.116-24.562c150.464 150.496-211.79 536.53-211.79 536.53h682.586z" fill="#5E9CEA" /><path d="M597.32 106.708c-142.262 0.062-225.228 51.904-273.602 112.372 50.42-40.28 123.886-69.654 230.946-69.716 379.082-0.218 421.644 600.808 426.144 767.928h43.122S1037.618 106.458 597.32 106.708z" fill="#4B89DA" /><path d="M42.54 703.986v191.994h255.618v-191.994l-127.512-106.684z" fill="#46CEAD" /><path d="M333.75 712.112L184.692 581.24a21.272 21.272 0 0 0-28.718 0.626L7.306 712.112a21.3 21.3 0 0 0-2.016 30.06c4.218 4.876 10.126 7.312 16.078 7.312 4.968 0 9.984-1.75 14.032-5.25l135.246-118.558 134.996 118.558a21.45 21.45 0 0 0 14.046 5.25c5.936 0 11.842-2.438 16.06-7.25 7.752-8.874 6.86-22.372-1.998-30.122z" fill="#646C77" /><path d="M170.692 789.294c-11.78 0-21.328 9.562-21.328 21.312v74.248c0 11.75 9.546 21.31 21.328 21.31s21.344-9.56 21.344-21.31v-74.248c0-11.748-9.562-21.312-21.344-21.312z" fill="#424953" /><path d="M298.158 917.292H42.54c-11.78 0-21.328-9.562-21.328-21.31 0-11.812 9.546-21.374 21.328-21.374h255.618c11.782 0 21.328 9.56 21.328 21.374 0 11.746-9.548 21.31-21.328 21.31z" fill="#35BB9B" /></svg>