<?xml version="1.0" standalone="no"?><!DOCTYPE svg PUBLIC "-//W3C//DTD SVG 1.1//EN" "http://www.w3.org/Graphics/SVG/1.1/DTD/svg11.dtd"><svg class="icon" width="128px" height="128.00px" viewBox="0 0 1024 1024" version="1.1" xmlns="http://www.w3.org/2000/svg"><path d="M699.278 285.286c-0.062-0.032-4.656-6.156-6.876-13.906-2.624-9.094-1-15.718 5.376-22.124 17.312-17.376 23.062-39.966 16.124-63.624-4.656-15.876-13.594-27.094-14.782-28.5v-0.032l-0.032-0.032a21.268 21.268 0 0 0-16.438-7.718c-11.782 0-21.312 9.562-21.312 21.344 0 5.156 1.844 9.906 4.906 13.594 0.032 0.062 4.532 5.876 6.718 13.344 2.562 8.718 0.938 15.156-5.406 21.5-17.312 17.374-23.032 40.092-16.188 64 4.656 16.218 13.656 27.686 14.688 28.936a21.288 21.288 0 0 0 16.594 7.938c11.782 0 21.344-9.53 21.344-21.312 0-5.062-1.782-9.718-4.718-13.374v-0.034zM548.968 114.696c-6.344-23.876-18.624-40.438-20-42.25-3.906-5.124-10.032-8.436-16.968-8.436-11.782 0-21.344 9.562-21.344 21.342 0 4.812 1.624 9.25 4.312 12.812l-0.032 0.032c0.094 0.124 9 12.188 13.094 28.624 4.906 19.656 0.968 36.374-12 51.06-22.812 25.782-30.062 57.404-21 91.466 6.344 23.874 18.624 40.436 20 42.248 3.906 5.094 10.032 8.406 16.968 8.406 11.782 0 21.344-9.53 21.344-21.312a21.22 21.22 0 0 0-4.312-12.812v-0.032c-0.062-0.094-8.968-12.188-13.062-28.624-4.906-19.656-0.968-36.374 12-51.06 22.814-25.778 30.064-57.402 21-91.464zM372.596 185.632c-4.656-15.876-13.624-27.094-14.78-28.5 0 0-0.032 0-0.032-0.032l-0.032-0.032a21.25 21.25 0 0 0-16.406-7.718c-11.782 0-21.344 9.562-21.344 21.344 0 5.156 1.844 9.906 4.906 13.594 0.032 0.062 4.532 5.876 6.718 13.344 2.562 8.718 0.938 15.156-5.406 21.5-17.282 17.374-23.032 40.092-16.156 64 4.624 16.218 13.656 27.686 14.656 28.936 3.938 4.844 9.906 7.938 16.624 7.938a21.298 21.298 0 0 0 21.312-21.312c0-5.062-1.782-9.718-4.718-13.374v-0.032c-0.032-0.032-4.656-6.156-6.876-13.906-2.624-9.094-1-15.718 5.376-22.124 17.346-17.378 23.064-39.97 16.158-63.626z" fill="#E6E9ED" /><path d="M1002.644 917.334H21.356c-11.782 0-21.344 9.562-21.344 21.344s9.562 21.312 21.344 21.312h981.29c11.782 0 21.344-9.532 21.344-21.312s-9.564-21.344-21.346-21.344z" fill="#FFCE54" /><path d="M512 448c-381.554 1.594-453.49 324.776-425.272 442.116 2.376 9.812 5.844 18.876 10.5 27.218h829.542c4.654-8.344 8.124-17.406 10.498-27.218C965.488 772.776 893.552 449.594 512 448z" fill="#965353" /><path d="M533.344 448.47a678.06 678.06 0 0 0-21.344-0.468c-381.554 1.592-453.49 324.774-425.272 442.114 2.376 9.812 5.844 18.876 10.5 27.218h42.686c-4.688-8.344-8.156-17.406-10.532-27.218-27.684-115.122 41.064-428.334 403.962-441.646z" fill="#FFFFFF" opacity=".1" /><path d="M667.714 469.906c-10.782 7.624-95.654 90.778-104.184 99.34-64.282 64.248 5.904 88.654 64.246 146.998 58.344 58.312 80.5 130.714 144.746 66.468 15.594-15.594 107.188-112.75 119.186-134.844-41.778-74.778-112.498-143.994-223.994-177.962z" opacity=".1" /><path d="M748.87 534.778l124.748-124.714c-3.782-14.25-0.124-30.062 11.032-41.216a42.38 42.38 0 0 1 30.154-12.5 42.404 42.404 0 0 1 30.186 12.5 42.49 42.49 0 0 1 11.062 19.124 42.132 42.132 0 0 1 19.094 11.062c8.062 8.032 12.5 18.75 12.5 30.156s-4.438 22.124-12.5 30.186a42.484 42.484 0 0 1-30.156 12.468c-3.782 0-7.5-0.468-11.062-1.438l-124.714 124.716-60.344-60.344z" fill="#E6E9ED" /><path d="M774.774 780.462c64.25-64.25 107.876-202.434 49.532-260.776-58.342-58.312-196.496-14.72-260.774 49.558-64.282 64.248-69.094 163.654-10.75 221.966 58.34 58.342 157.714 53.53 221.992-10.748z" fill="#A85D5D" /></svg>