<?xml version="1.0" standalone="no"?><!DOCTYPE svg PUBLIC "-//W3C//DTD SVG 1.1//EN" "http://www.w3.org/Graphics/SVG/1.1/DTD/svg11.dtd"><svg class="icon" width="128px" height="128.00px" viewBox="0 0 1024 1024" version="1.1" xmlns="http://www.w3.org/2000/svg"><path d="M853.3 21.36H42.688C19.126 21.36 0.018 40.452 0.018 64.014v554.638c0 23.562 19.108 42.686 42.67 42.686H853.3c23.562 0 42.688-19.124 42.688-42.686V64.014c0-23.562-19.124-42.654-42.688-42.654z" fill="#656D78" /><path d="M128.012 554.654c-11.766 0-21.328-9.562-21.328-21.312V149.356c0-11.782 9.562-21.344 21.328-21.344H682.68c11.75 0 21.312 9.562 21.312 21.344v383.986c0 11.75-9.562 21.312-21.312 21.312H128.012z" fill="#5D9CEC" /><path d="M810.644 128.012c0 11.782-9.528 21.344-21.34 21.344-11.75 0-21.312-9.562-21.312-21.344s9.562-21.344 21.312-21.344c11.814 0 21.34 9.562 21.34 21.344zM810.644 213.352c0 11.782-9.528 21.312-21.34 21.312-11.75 0-21.312-9.53-21.312-21.312 0-11.78 9.562-21.342 21.312-21.342 11.814 0 21.34 9.562 21.34 21.342z" fill="#CCD1D9" /><path d="M384.004 490.656v-42.654h-42.67v42.654h-42.656v42.686h127.996v-42.686z" fill="#FC6E51" /><path d="M426.674 277.35h42.656v85.31H512V234.664h-85.326z" fill="#A0D468" /><path d="M256.008 490.656H128.012v42.686h170.666v-42.686z" fill="#FFCE54" /><path d="M682.68 106.668H128.012c-23.562 0-42.67 19.124-42.67 42.688v383.986c0 23.562 19.11 42.654 42.67 42.654H682.68c23.562 0 42.624-19.092 42.624-42.654V149.356c0-23.564-19.062-42.688-42.624-42.688z m0 426.674H128.012V149.356H682.68v383.986z" fill="#4A89DC" /><path d="M554.688 149.356h127.992v383.986h-127.992zM1002.672 767.992H533.328A21.32 21.32 0 0 0 512 789.334v127.964c0 3.812 1.016 7.562 2.954 10.844l37.64 63.998a21.386 21.386 0 0 0 18.402 10.5h393.988c7.562 0 14.562-4 18.406-10.5l37.656-63.998a21.32 21.32 0 0 0 2.938-10.844v-127.964c0-11.81-9.562-21.342-21.312-21.342z" fill="#434A54" /><path d="M533.688 959.984h468.61l18.75-31.842a21.32 21.32 0 0 0 2.938-10.844H512c0 3.812 1.016 7.562 2.954 10.844l18.734 31.842z" fill="#656D78" /><path d="M714.68 448.002h106.622v298.646H714.68z" fill="#CCD1D9" /><path d="M767.992 277.35c-70.562 0-127.996 57.404-127.996 127.996 0 70.56 57.434 127.996 127.996 127.996 70.558 0 127.996-57.436 127.996-127.996 0-70.592-57.438-127.996-127.996-127.996z" fill="#ED5564" /><path d="M767.992 277.35c-7.25 0-14.376 0.594-21.312 1.782 60.434 10.186 106.622 62.904 106.622 126.214s-46.188 115.998-106.622 126.182c6.938 1.188 14.062 1.812 21.312 1.812 70.558 0 127.996-57.436 127.996-127.996 0-70.59-57.438-127.994-127.996-127.994z" fill="#FFFFFF" opacity=".2" /><path d="M853.3 703.992h-170.62l-42.684 64 0.156 63.996c0 11.782 9.532 21.344 21.344 21.344h213.18c11.75 0 21.312-9.562 21.312-21.344v-63.996l-42.688-64z" fill="#656D78" /></svg>