<?xml version="1.0" standalone="no"?><!DOCTYPE svg PUBLIC "-//W3C//DTD SVG 1.1//EN" "http://www.w3.org/Graphics/SVG/1.1/DTD/svg11.dtd"><svg class="icon" width="128px" height="128.00px" viewBox="0 0 1024 1024" version="1.1" xmlns="http://www.w3.org/2000/svg"><path d="M847.05 6.264c-8.312-8.328-21.812-8.328-30.124 0L524.516 298.63 232.15 6.264c-8.328-8.328-21.828-8.328-30.186 0-8.312 8.328-8.312 21.844 0 30.17L494.36 328.802l-129.996 129.996 30.156 30.17 129.996-129.996 129.98 129.996 30.184-30.17-129.992-129.996L847.05 36.436a21.256 21.256 0 0 0 0-30.172z" fill="#434A54" /><path d="M1023.984 981.296c0 23.594-19.124 42.684-42.688 42.684H42.656c-23.562 0-42.64-19.09-42.64-42.684V341.332c0-23.562 19.078-42.656 42.64-42.656h938.64c23.562 0 42.688 19.094 42.688 42.656v639.964z" fill="#656D78" /><path d="M767.992 853.3c0 23.594-19.124 42.688-42.688 42.688H128.012c-23.578 0-42.686-19.094-42.686-42.688V469.328c0-23.56 19.11-42.654 42.686-42.654h597.292c23.562 0 42.688 19.094 42.688 42.654V853.3z" fill="#5D9CEC" /><path d="M725.304 426.672H128.012c-23.578 0-42.686 19.094-42.686 42.654V853.3c0 23.594 19.11 42.688 42.686 42.688h597.292c23.562 0 42.688-19.094 42.688-42.688V469.328c0-23.562-19.124-42.656-42.688-42.656z m0 426.628H128.012V469.328h597.292V853.3z" fill="#4A89DC" /><path d="M917.3 448c0 11.78-9.5 21.326-21.312 21.326-11.75 0-21.312-9.546-21.312-21.326 0-11.782 9.562-21.328 21.312-21.328 11.812 0 21.312 9.548 21.312 21.328zM917.3 533.324c0 11.796-9.5 21.36-21.312 21.36-11.75 0-21.312-9.562-21.312-21.36 0-11.778 9.562-21.326 21.312-21.326a21.294 21.294 0 0 1 21.312 21.326zM917.3 618.684c0 11.75-9.5 21.312-21.312 21.312-11.75 0-21.312-9.562-21.312-21.312 0-11.812 9.562-21.376 21.312-21.376 11.812 0 21.312 9.564 21.312 21.376z" fill="#CCD1D9" /><path d="M896.05 873.988c-23.376 0-42.376-19-42.376-42.312 0-23.376 19-42.376 42.376-42.376 23.312 0 42.308 19 42.308 42.376 0.002 23.312-18.994 42.312-42.308 42.312z" fill="#FFCE54" /><path d="M896.05 767.992c-35.188 0-63.688 28.496-63.688 63.684 0 35.124 28.5 63.624 63.688 63.624 35.122 0 63.622-28.5 63.622-63.624 0-35.188-28.5-63.684-63.622-63.684z m0 84.684c-11.624 0-21-9.438-21-21 0-11.594 9.376-21 21-21 11.562 0 21 9.406 21 21 0 11.562-9.436 21-21 21z" fill="#F6BB42" /><path d="M383.988 810.676v-42.684h-42.67v42.684h-42.67v42.624H426.644v-42.624z" fill="#FC6E51" /><path d="M448.002 556.308h42.67v85.314h42.656V513.64h-85.326z" fill="#A0D468" /><path d="M255.994 810.3H127.998v42.688h170.65V810.3z" fill="#FFCE54" /><path d="M597.308 767.992h127.996v85.308h-127.996zM597.308 470.968h127.996v170.654h-127.996z" fill="#656D78" /><path d="M597.308 641.622h127.996v126.372h-127.996z" fill="#434A54" /></svg>