<?xml version="1.0" standalone="no"?><!DOCTYPE svg PUBLIC "-//W3C//DTD SVG 1.1//EN" "http://www.w3.org/Graphics/SVG/1.1/DTD/svg11.dtd"><svg class="icon" width="128px" height="128.00px" viewBox="0 0 1024 1024" version="1.1" xmlns="http://www.w3.org/2000/svg"><path d="M106.662 981.312c-11.782 0-21.344-9.532-21.344-21.312v-21.312c0-11.812 9.562-21.376 21.344-21.376s21.344 9.562 21.344 21.376V960c0 11.782-9.562 21.312-21.344 21.312zM917.304 981.312A21.3 21.3 0 0 1 895.992 960v-21.312c0-11.812 9.532-21.376 21.312-21.376s21.344 9.562 21.344 21.376V960c0 11.782-9.562 21.312-21.344 21.312z" fill="#434A54" /><path d="M64.006 853.314c-11.81 0-21.342-9.53-21.342-21.31V576.008c0-11.782 9.532-21.312 21.342-21.312 11.75 0 21.312 9.532 21.312 21.312v255.996c0 11.782-9.562 21.31-21.312 21.31zM959.992 853.314c-11.812 0-21.344-9.53-21.344-21.31V576.008c0-11.782 9.532-21.312 21.344-21.312 11.75 0 21.312 9.532 21.312 21.312v255.996c0 11.782-9.562 21.31-21.312 21.31z" fill="#965353" /><path d="M639.996 469.336a21.3 21.3 0 0 0-17.966 9.844c-25.032-5.922-68.78-9.844-118.592-9.844-77.75 0-140.78 9.562-140.78 21.342v85.328c0 11.782 63.03 21.312 140.78 21.312 49.812 0 93.56-3.906 118.592-9.812a21.274 21.274 0 0 0 17.966 9.812c11.75 0 21.312-9.532 21.312-21.312V490.68c0-11.78-9.562-21.344-21.312-21.344z" fill="#434A54" /><path d="M149.318 725.316h277.338v85.376H149.318z" fill="#A0D468" /><path d="M597.31 725.316h277.338v85.376H597.31z" fill="#ED5564" /><path d="M597.31 640.006h277.338v85.31H597.31z" fill="#FFCE54" /><path d="M512 853.314c-11.812 0-21.344-9.53-21.344-21.31V576.008c0-11.782 9.532-21.312 21.344-21.312 11.75 0 21.312 9.532 21.312 21.312v255.996c0 11.782-9.562 21.31-21.312 21.31z" fill="#965353" /><path d="M959.992 810.692H64.006c-11.81 0-21.342 9.532-21.342 21.312v106.684c0 11.75 9.532 21.312 21.342 21.312h895.986c11.75 0 21.312-9.562 21.312-21.312v-106.684c0-11.782-9.562-21.312-21.312-21.312zM1002.648 597.32H21.32c-11.782 0-21.312-9.532-21.312-21.312s9.532-21.312 21.312-21.312h981.328c11.782 0 21.344 9.532 21.344 21.312s-9.562 21.312-21.344 21.312z" fill="#A85D5D" /><path d="M149.318 64.016h725.33V490.68H149.318z" fill="#5D9CEC" /><path d="M874.648 512.008H149.318c-11.782 0-21.312-9.546-21.312-21.328V64.016c0-11.782 9.532-21.328 21.312-21.328h725.33c11.782 0 21.344 9.546 21.344 21.328V490.68c0 11.78-9.562 21.328-21.344 21.328zM170.662 469.336h682.644V85.344H170.662v383.992z" fill="#656D78" /><path d="M509.312 469.336h-122.654l127.998-385.446h122.652z" fill="#FFFFFF" opacity=".1" /></svg>