<?xml version="1.0" standalone="no"?><!DOCTYPE svg PUBLIC "-//W3C//DTD SVG 1.1//EN" "http://www.w3.org/Graphics/SVG/1.1/DTD/svg11.dtd"><svg class="icon" width="128px" height="128.00px" viewBox="0 0 1024 1024" version="1.1" xmlns="http://www.w3.org/2000/svg"><path d="M277.339924 65.360202H320.011913v901.327754h-42.671989zM704.011808 62.124203h42.655988v893.311756H704.011808z" fill="#3BAFDA" /><path d="M1024.01172 21.328214C1024.01172 9.546217 1014.479723 0.00022 1002.667726 0.00022c-1.688 0-3.343999 0.172-4.937999 0.546a1837.745497 1837.745497 0 0 1-21.687994 4.561999c-137.717962 28.187992-279.499924 42.467988-421.375885 42.467988h-85.327976c-141.875961 0-283.639922-14.281996-421.375885-42.467988-7.233998-1.484-14.467996-2.999999-21.687994-4.561999A21.347994 21.347994 0 0 0 21.339994 0.00022C9.557997 0.00022 0.012 9.546217 0.012 21.328214c0 9.859997 6.703998 18.139995 15.781996 20.577995 0.406 0.11 1.36 0.328 1.765999 0.405999 145.62396 31.405991 296.781919 47.937987 451.781877 47.937987h85.327976c155.031958 0 306.187916-16.531995 451.811877-47.937987 0.376-0.078 1.344-0.296 1.749999-0.405999 9.091998-2.437999 15.779996-10.717997 15.779996-20.577995zM0.012 1002.687946C0.012 1014.437943 9.557997 1023.99994 21.339994 1023.99994c1.704 0 3.359999-0.188 4.937999-0.562 7.217998-1.562 14.453996-3.061999 21.671994-4.561999 137.749962-28.187992 279.515924-42.437988 421.389885-42.437988h85.327976c141.875961 0 283.655922 14.249996 421.375885 42.437988 7.249998 1.5 14.499996 2.999999 21.687994 4.561999a21.499994 21.499994 0 0 0 4.937999 0.562c11.811997 0 21.343994-9.561997 21.343994-21.311994 0-9.875997-6.717998-18.155995-15.781996-20.593995-0.406-0.094-1.376-0.344-1.749999-0.405999-145.62396-31.375991-296.781919-47.937987-451.811877-47.937987h-85.327976c-154.999958 0-306.155916 16.561995-451.781877 47.937987-0.406 0.062-1.36 0.312-1.765999 0.405999C6.715998 984.531951 0.012 992.811949 0.012 1002.687946z" fill="#4FC1E9" /></svg>