<?xml version="1.0" standalone="no"?><!DOCTYPE svg PUBLIC "-//W3C//DTD SVG 1.1//EN" "http://www.w3.org/Graphics/SVG/1.1/DTD/svg11.dtd"><svg class="icon" width="128px" height="128.00px" viewBox="0 0 1024 1024" version="1.1" xmlns="http://www.w3.org/2000/svg"><path d="M1023.988 895.992c0 23.558-19.094 42.684-42.688 42.684H42.682c-23.562 0-42.67-19.124-42.67-42.684V170.696c0-23.562 19.108-42.686 42.67-42.686H981.3c23.594 0 42.688 19.124 42.688 42.686v725.296z" fill="#4A89DC" /><path d="M1023.988 853.304c0 23.562-19.094 42.688-42.688 42.688H42.682c-23.562 0-42.67-19.124-42.67-42.688V128.01c0-23.562 19.108-42.686 42.67-42.686H981.3c23.594 0 42.688 19.124 42.688 42.686v725.294z" fill="#5D9CEC" /><path d="M448 170.696H106.682c-11.782 0-21.344 9.5-21.344 21.312 0 11.75 9.562 21.312 21.344 21.312H448c11.782 0 21.328-9.562 21.328-21.312 0.002-11.812-9.546-21.312-21.328-21.312zM256.006 234.696H106.682c-11.782 0-21.344 9.498-21.344 21.31 0 11.75 9.562 21.31 21.344 21.31h149.324c11.782 0 21.328-9.56 21.328-21.31 0-11.812-9.546-21.31-21.328-21.31z" fill="#434A54" /><path d="M639.058 564.688l-60-98.186a32.932 32.932 0 0 0-2.438-3.812l-35.106 23.75-0.124 0.062c-0.624-1.25-0.718-2.062-0.718-2.062 0.532 5.376-6.562 24.438-22.032 41.5-11.734 13-24.36 20.438-34.61 20.438h-0.5l-65.186-25.312-33.296 57.562 43.812 41.996c-4.468 5.25-8.454 11.062-11.922 17.312-5.532 9.938-8.86 19.5-11.14 26.5-5.032-2.25-12.764-5.188-24.936-6.562-1.546-0.124-3.124-0.25-4.704-0.25-34.702 0-63.624 41.562-69.06 49.876l-9.124 13.938 54.062 58.434 27.436-11.938c25.546 25.376 56.874 38.688 91.436 38.688h0.016c61.42 0 128.698-44.062 163.542-107.122 26.53-48.004 28.218-97.128 4.592-134.812z" fill="#DBADA2" /><path d="M581.59 322.504c-77.308 0-140.198 62.876-140.198 140.184 0 77.312 62.89 140.182 140.198 140.182 77.312 0 140.214-62.872 140.214-140.182 0-77.308-62.902-140.184-140.214-140.184z" fill="#EAC6BB" /><path d="M682.59 298.754c-22.406 15.75-122.468 24.5-152.886 24.5-30.39 0-123.28-8.876-145.7-24.624L85.212 653.308c117.606 97.812 273.494 157.372 444.49 157.372 154.386 0 296.446-48.562 409.16-129.934L682.59 298.754z m-152.886 469.238c-78.656 0-155.294-13.312-227.76-39.434-56.062-20.25-108.184-47.688-155.464-81.75L397.048 349.38c12.578 3.312 29.016 6.624 50.89 9.688 33.358 4.688 65.78 6.812 81.764 6.812 16.89 0 51.48-2.25 84.98-6.688 21.656-2.812 38.188-5.876 51-9l213.992 318.992c-44.308 27.75-92.246 50.062-142.902 66.438-66.338 21.496-136.026 32.37-207.068 32.37z" fill="#4A89DC" /></svg>