<?xml version="1.0" standalone="no"?><!DOCTYPE svg PUBLIC "-//W3C//DTD SVG 1.1//EN" "http://www.w3.org/Graphics/SVG/1.1/DTD/svg11.dtd"><svg class="icon" width="128px" height="128.00px" viewBox="0 0 1024 1024" version="1.1" xmlns="http://www.w3.org/2000/svg"><path d="M929.448 124.73c-8.344 8.312-21.844 8.312-30.188 0-8.312-8.342-8.312-21.842 0-30.186a21.332 21.332 0 0 1 30.188 0c8.312 8.344 8.312 21.844 0 30.186z" fill="#424953" /><path d="M869.106 245.384l-90.53-90.498 90.53-90.496 90.496 90.496z" fill="#D94452" /><path d="M21.352 1023.982a21.346 21.346 0 0 1-15.092-6.25c-8.312-8.344-8.312-21.844 0-30.186l557.386-557.356c8.312-8.346 21.842-8.346 30.154 0 8.344 8.31 8.344 21.81 0 30.154L36.446 1017.732a21.354 21.354 0 0 1-15.094 6.25z" fill="#F4BE8E" /><path d="M451.65 593.654c-11.626 0-21.154-9.346-21.312-21.034l-3.782-260.208c-0.156-11.782 9.25-21.466 21.032-21.654 11.782-0.126 21.468 9.248 21.626 21.03l3.782 260.21c0.156 11.78-9.25 21.466-21.032 21.656h-0.314z" fill="#F4BE8E" /><path d="M451.65 593.654c-2.656 0-5.344-0.5-7.938-1.534-10.938-4.404-16.25-16.844-11.844-27.748l96.09-238.992c4.408-10.904 16.812-16.218 27.75-11.812 10.938 4.376 16.25 16.812 11.844 27.75l-96.09 238.958c-3.342 8.314-11.342 13.378-19.812 13.378z" fill="#FFD2A6" /><path d="M711.89 597.436h-0.312l-260.24-3.782c-11.782-0.19-21.188-9.876-21-21.656 0.158-11.656 9.688-21 21.312-21h0.312l260.21 3.75c11.78 0.188 21.216 9.876 21.03 21.654-0.156 11.688-9.684 21.034-21.312 21.034z" fill="#F4BE8E" /><path d="M451.682 593.654c-8.468 0-16.468-5.064-19.812-13.376-4.406-10.938 0.906-23.342 11.844-27.748l238.96-96.09c10.938-4.406 23.344 0.906 27.748 11.812 4.406 10.938-0.904 23.376-11.844 27.748L459.62 592.122a21.566 21.566 0 0 1-7.938 1.532z" fill="#FFD2A6" /><path d="M1023.974 913.142L110.85 0.018l773.318 139.774z" fill="#EC5564" /><path d="M884.168 139.792L938.664 827.8l85.31 85.342z" fill="#FFFFFF" opacity=".2" /><path d="M886.386 139.792L198.376 85.326 113.038 0.018z" opacity=".1" /></svg>