<?xml version="1.0" standalone="no"?><!DOCTYPE svg PUBLIC "-//W3C//DTD SVG 1.1//EN" "http://www.w3.org/Graphics/SVG/1.1/DTD/svg11.dtd"><svg class="icon" width="128px" height="128.00px" viewBox="0 0 1024 1024" version="1.1" xmlns="http://www.w3.org/2000/svg"><path d="M511.992 0.016c-11.75 0-21.312 9.562-21.312 21.344v85.34h42.656V21.36c0-11.782-9.532-21.344-21.344-21.344z" fill="#434A54" /><path d="M511.992 85.356C229.25 85.356 0.008 314.568 0.008 597.372v4.626c36.562-46.5 93.308-76.342 157.026-76.342 77.278 0 101.622 43.904 134.838 108.152 33.186-64.248 142.872-108.152 220.118-108.152 77.324 0 186.946 43.904 220.196 108.152 33.188-64.248 57.5-108.152 134.808-108.152 63.684 0 120.434 29.842 156.996 76.342v-4.626c0.002-282.804-229.24-512.016-511.998-512.016z" fill="#DA4453" /><path d="M682.688 895.988a21.364 21.364 0 0 0-21.372 21.374c0 35.248-28.688 63.998-64 63.998-35.25 0-63.98-28.75-63.98-63.998V504.312H490.68V917.36c0 58.874 47.75 106.624 106.636 106.624 58.938 0 106.684-47.75 106.684-106.624 0-11.812-9.562-21.372-21.312-21.372z" fill="#434A54" /><path d="M511.992 525.656c77.324 0 186.946 43.904 220.196 108.09 0-324.74-134.372-483.578-185.93-547.264-11.328-0.75-22.766-1.126-34.266-1.126s-22.906 0.376-34.218 1.126c-51.592 63.686-185.9 222.526-185.9 547.328 33.186-64.25 142.872-108.154 220.118-108.154z" fill="#ED5564" /></svg>