<?xml version="1.0" standalone="no"?><!DOCTYPE svg PUBLIC "-//W3C//DTD SVG 1.1//EN" "http://www.w3.org/Graphics/SVG/1.1/DTD/svg11.dtd"><svg class="icon" width="128px" height="128.00px" viewBox="0 0 1024 1024" version="1.1" xmlns="http://www.w3.org/2000/svg"><path d="M1002.646 671.99H21.352c-11.78 0-21.312-9.156-21.312-20.468V160.022c0-11.312 9.532 0 21.312 0h981.294c11.782 0 21.312-11.312 21.312 0v491.5c0 11.312-9.53 20.468-21.312 20.468z" fill="#5D9CEC" /><path d="M256.032 693.334l-7.624-42.656-9.782-39.124-67.934-24.874-53.844-64.014-116.806-18.968v198.01z" fill="#CCD1D9" /><path d="M405.34 415.998a21.286 21.286 0 0 1-15.094-6.25l-42.654-42.656c-8.344-8.328-8.344-21.842 0-30.17 8.342-8.328 21.842-8.328 30.156 0l42.684 42.67c8.312 8.328 8.312 21.828 0 30.156a21.236 21.236 0 0 1-15.092 6.25z" fill="#F6BB42" /><path d="M362.684 458.666a21.224 21.224 0 0 1-15.092-6.25c-8.344-8.328-8.344-21.842 0-30.17l42.654-42.656c8.344-8.328 21.844-8.342 30.186 0 8.312 8.328 8.312 21.828 0 30.156l-42.684 42.668a21.212 21.212 0 0 1-15.064 6.252z" fill="#F6BB42" /><path d="M1022.866 153.272c-3.718-11.188-15.812-17.218-26.968-13.5l-55.622 18.546-34.75-17.39a21.38 21.38 0 0 0-19.094 0l-33.124 16.562-33.124-16.562c-5.998-3-13.06-3-19.092 0l-33.124 16.562-33.124-16.562c-6-3-13.062-3-19.06 0l-33.122 16.562-33.124-16.562c-6-3-13.094-3-19.094 0l-33.124 16.562-33.124-16.562c-6-3-13.062-3-19.06 0l-33.14 16.562-33.124-16.562c-6-3-13.062-3-19.062 0l-33.124 16.562-33.124-16.562c-6-3-13.092-3-19.092 0l-33.124 16.562-33.124-16.562c-6-3-13.062-3-19.062 0l-33.124 16.562-33.124-16.562a21.376 21.376 0 0 0-19.092 0l-33.124 16.562-33.124-16.562c-6-3-13.062-3-19.094 0L83.724 158.32 28.1 139.774C16.944 136.056 4.852 142.086 1.134 153.274c-3.75 11.17 2.312 23.25 13.468 26.982L78.6 201.584c5.374 1.796 11.25 1.376 16.312-1.156l33.124-16.562 33.124 16.562c6 3 13.062 3 19.062 0l33.124-16.562 33.124 16.562c6 3 13.092 3 19.092 0l33.124-16.562 33.124 16.562c6 3 13.062 3 19.062 0l33.156-16.562 33.124 16.562c6 3 13.062 3 19.062 0l33.124-16.562 33.124 16.562c6 3 13.094 3 19.094 0l33.108-16.562 33.124 16.562c6 3 13.062 3 19.062 0l33.124-16.562 33.124 16.562a21.354 21.354 0 0 0 19.092 0l33.122-16.562 33.124 16.562c6 3 13.062 3 19.094 0l33.124-16.562 33.124 16.562c5.998 3 13.06 3 19.06 0l33.124-16.562 33.124 16.562a21.348 21.348 0 0 0 16.312 1.156l63.996-21.328c11.158-3.734 17.222-15.812 13.472-26.984z" fill="#4A89DC" /><path d="M580.412 358.25c-18.312-18.296-48.482-27.578-89.732-27.578-50.06 0-95.402 43.906-100.434 48.92-8.312 8.328-8.312 21.828 0 30.156 0.5 0.5 12.376 12.296 29.936 23.998 24.782 16.53 48.5 24.92 70.498 24.92 105.418 0 106.636-61.388 106.636-63.998 0-3.248-0.812-20.31-16.904-36.418z" fill="#FFCE54" /><path d="M829.402 589.274a21.29 21.29 0 0 1-15.092-6.25 21.33 21.33 0 0 1 0-30.186l45.246-45.25c8.344-8.344 21.844-8.344 30.156 0a21.294 21.294 0 0 1 0 30.156l-45.248 45.28a21.276 21.276 0 0 1-15.062 6.25z" fill="#8CC153" /><path d="M548.414 358.25c8.31 8.328 8.31 21.842 0 30.17-8.328 8.328-21.828 8.328-30.172 0-8.312-8.328-8.312-21.842 0-30.17 8.344-8.328 21.844-8.328 30.172 0z" fill="#434A54" /><path d="M844.464 552.838c-16.25-16.25-32.966-19.656-44.124-19.656-25.968 0-44.376 17.656-46.376 19.656l-75.432 75.436a21.304 21.304 0 0 0 0 30.154l60.338 60.34c4 4 9.438 6.25 15.094 6.25s11.094-2.25 15.094-6.25l75.404-75.432c18.188-18.188 33.22-57.282 0.002-90.498z" fill="#A0D468" /><path d="M170.692 586.68l-53.844-64.014-116.806-18.968 101.838 80.294 11.094 45.344 133.526 13.782-7.874-31.564z" fill="#E6E9ED" /><path d="M1002.646 629.336H21.352c-11.78 0-21.312 9.562-21.312 21.342v213.304c0 11.782 9.532 21.344 21.312 21.344h981.294c11.782 0 21.312-9.562 21.312-21.344V650.678c0-11.78-9.53-21.342-21.312-21.342z" fill="#FFCE54" /><path d="M100.444 784.924c8.344 8.31 8.344 21.81 0 30.154-8.344 8.342-21.842 8.342-30.156 0-8.344-8.344-8.344-21.844 0-30.154 8.312-8.344 21.812-8.344 30.156 0zM185.784 699.582c8.312 8.312 8.312 21.842 0 30.154a21.33 21.33 0 0 1-30.186 0c-8.312-8.312-8.312-21.842 0-30.154a21.334 21.334 0 0 1 30.186 0zM271.094 784.924c8.344 8.31 8.344 21.81 0 30.154-8.312 8.342-21.842 8.342-30.156 0-8.344-8.344-8.344-21.844 0-30.154 8.312-8.344 21.844-8.344 30.156 0zM356.434 699.582c8.312 8.312 8.312 21.842 0 30.154a21.33 21.33 0 0 1-30.186 0c-8.312-8.312-8.312-21.842 0-30.154a21.334 21.334 0 0 1 30.186 0zM441.776 784.924c8.312 8.31 8.312 21.81 0 30.154a21.334 21.334 0 0 1-30.186 0c-8.312-8.344-8.312-21.844 0-30.154a21.33 21.33 0 0 1 30.186 0zM527.086 699.582c8.344 8.312 8.344 21.842 0 30.154-8.312 8.344-21.844 8.344-30.156 0-8.344-8.312-8.344-21.842 0-30.154 8.312-8.342 21.844-8.342 30.156 0zM612.41 784.924c8.312 8.31 8.312 21.81 0 30.154a21.334 21.334 0 0 1-30.186 0c-8.312-8.344-8.312-21.844 0-30.154a21.33 21.33 0 0 1 30.186 0zM697.72 699.582c8.342 8.312 8.342 21.842 0 30.154-8.312 8.344-21.81 8.344-30.154 0-8.344-8.312-8.344-21.842 0-30.154 8.344-8.342 21.842-8.342 30.154 0zM783.06 784.924c8.344 8.31 8.344 21.81 0 30.154-8.312 8.342-21.844 8.342-30.156 0-8.344-8.344-8.344-21.844 0-30.154 8.312-8.344 21.844-8.344 30.156 0zM868.4 699.582c8.312 8.312 8.312 21.842 0 30.154a21.33 21.33 0 0 1-30.186 0c-8.312-8.312-8.312-21.842 0-30.154a21.334 21.334 0 0 1 30.186 0zM953.71 784.924c8.344 8.31 8.344 21.81 0 30.154-8.31 8.342-21.81 8.342-30.154 0-8.344-8.344-8.344-21.844 0-30.154 8.344-8.344 21.844-8.344 30.154 0z" fill="#F6BB42" /></svg>