<?xml version="1.0" standalone="no"?><!DOCTYPE svg PUBLIC "-//W3C//DTD SVG 1.1//EN" "http://www.w3.org/Graphics/SVG/1.1/DTD/svg11.dtd"><svg class="icon" width="128px" height="128.00px" viewBox="0 0 1024 1024" version="1.1" xmlns="http://www.w3.org/2000/svg"><path d="M617.609175 96.757244l-90.499293-90.499293c-8.375935-8.343935-21.875829-8.343935-30.187764 0l-90.515293 90.499293c-8.327935 8.343935-8.327935 21.843829 0 30.155764 8.327935 8.343935 21.843829 8.343935 30.171764 0l54.093578-54.061577v268.465902h42.655666V72.819431l54.093578 54.093577c8.311935 8.343935 21.843829 8.343935 30.187764 0 8.311935-8.311935 8.311935-21.81183 0-30.155764z" fill="#E9573F" /><path d="M511.984 298.661667c-200.280435 0-362.653167 162.374731-362.653167 362.653166 0 200.310435 162.374731 362.685167 362.653167 362.685167 200.310435 0 362.685167-162.374731 362.685167-362.685167 0-200.278435-162.374731-362.653167-362.685167-362.653166z m226.310232 588.933399c-29.43777 29.40577-63.655503 52.49959-101.749205 68.593464-39.437692 16.68787-81.311365 25.123804-124.561027 25.123803-43.203662 0-85.109335-8.437934-124.531027-25.123803-38.093702-16.093874-72.327435-39.187694-101.717205-68.593464-29.40577-29.40577-52.48359-63.623503-68.609464-101.717206C200.456434 746.440168 192.0025 704.534496 192.0025 661.314833s8.453934-85.093335 25.123804-124.531027c16.123874-38.093702 39.203694-72.311435 68.609464-101.717205 29.38977-29.40577 63.623503-52.49959 101.717205-68.593464 39.421692-16.68787 81.327365-25.155803 124.531027-25.155804 43.249662 0 85.123335 8.467934 124.561027 25.155804 38.093702 16.093874 72.311435 39.187694 101.749205 68.593464 29.375771 29.40577 52.43759 63.623503 68.561464 101.717205 16.68787 39.437692 25.123804 81.311365 25.123804 124.531027s-8.437934 85.123335-25.123804 124.561027c-16.123874 38.093702-39.185694 72.313435-68.561464 101.719206z" fill="#FC6E51" /><path d="M511.984 576.0035c-47.109632 0-85.311334 38.187702-85.311333 85.311333 0 47.155632 38.203702 85.343333 85.311333 85.343334 47.123632 0 85.343333-38.187702 85.343333-85.343334 0-47.123632-38.217701-85.311334-85.343333-85.311333z" fill="#E9573F" /></svg>