<?xml version="1.0" standalone="no"?><!DOCTYPE svg PUBLIC "-//W3C//DTD SVG 1.1//EN" "http://www.w3.org/Graphics/SVG/1.1/DTD/svg11.dtd"><svg class="icon" width="128px" height="128.00px" viewBox="0 0 1024 1024" version="1.1" xmlns="http://www.w3.org/2000/svg"><path d="M183.024 341.312h648.954V384H183.024z" fill="#DA4453" /><path d="M511.976 0c-11.75 0-21.328 9.562-21.328 21.344v775.062h42.704V21.312c0-11.78-9.562-21.312-21.376-21.312z" fill="#ED5565" /><path d="M511.976 770.656c-69.954 0-126.64 56.718-126.64 126.656 0 69.968 56.688 126.688 126.64 126.688 70 0 126.688-56.718 126.688-126.688 0-69.936-56.688-126.656-126.688-126.656z m0 210.656c-46.296 0-83.984-37.656-83.984-84 0-46.312 37.688-84 83.984-84 46.312 0 84 37.688 84 84 0 46.344-37.686 84-84 84z" fill="#DA4453" /><path d="M959.976 682.656h-106.624v-640h106.624c11.812 0 21.376-9.562 21.376-21.344S971.79 0 959.976 0h-128c-11.75 0-21.312 9.532-21.312 21.312V704c0 11.782 9.562 21.312 21.312 21.312h128c11.812 0 21.376-9.532 21.376-21.312s-9.562-21.344-21.376-21.344z" fill="#ED5565" /><path d="M213.336 21.312C213.336 9.532 203.774 0 191.992 0h-128c-11.782 0-21.344 9.532-21.344 21.312s9.562 21.344 21.344 21.344h106.656v640H63.992c-11.782 0-21.344 9.562-21.344 21.344s9.562 21.312 21.344 21.312h128c11.782 0 21.344-9.532 21.344-21.312V21.344v-0.032z" fill="#DA4453" /></svg>