<?xml version="1.0" standalone="no"?><!DOCTYPE svg PUBLIC "-//W3C//DTD SVG 1.1//EN" "http://www.w3.org/Graphics/SVG/1.1/DTD/svg11.dtd"><svg class="icon" width="128px" height="128.00px" viewBox="0 0 1024 1024" version="1.1" xmlns="http://www.w3.org/2000/svg"><path d="M853.302 512.078c0 188.516-152.794 341.328-341.294 341.328-188.498 0-341.31-152.81-341.31-341.328 0-188.498 152.812-341.31 341.31-341.31 188.5 0 341.294 152.812 341.294 341.31z" fill="#4FC1E9" /><path d="M601.57 1.128a69.982 69.982 0 0 0-9.782-1.062c-60.532-2.406-126.75 69.86-180.686 185.874a339.194 339.194 0 0 1 53.406-11.874 619.58 619.58 0 0 1 9.594-17.656c21.876-38.828 45.188-69.796 67.5-89.592 18.218-16.172 35-24.422 48.5-23.89 1.376 0.046 2.718 0.188 4.062 0.438 16.094 2.844 29.312 19.64 37.532 33.234 15.094 24.876 27.312 61.374 35.376 105.56 8.624 47.172 12.468 101.36 11.376 161.016-1.156 62.5-7.656 128.046-19.376 194.828-22.312 127.25-61.094 244.28-109.156 329.624-21.876 38.812-45.218 69.782-67.5 89.562-18.218 16.188-35 24.438-48.5 23.906a30.264 30.264 0 0 1-4.094-0.438c-16.094-2.844-29.282-19.656-37.532-33.218-15.062-24.876-27.28-61.376-35.374-105.562a597.446 597.446 0 0 1-4.406-27.968 341.244 341.244 0 0 1-46.188-29.438c11.876 134.124 53.094 227.282 116.092 238.406 3.25 0.594 6.5 0.938 9.782 1.062 102.342 4.06 220.968-205.124 268.874-478.498 49.484-282.16 4.938-525.86-99.5-544.314z" fill="#3BAFDA" /></svg>