<?xml version="1.0" standalone="no"?><!DOCTYPE svg PUBLIC "-//W3C//DTD SVG 1.1//EN" "http://www.w3.org/Graphics/SVG/1.1/DTD/svg11.dtd"><svg class="icon" width="128px" height="128.00px" viewBox="0 0 1024 1024" version="1.1" xmlns="http://www.w3.org/2000/svg"><path d="M639.988 170.676h-85.372c-11.766 0-21.296-9.562-21.296-21.344 0-11.78 9.532-21.328 21.296-21.328h85.372c11.75 0 21.312 9.546 21.312 21.328s-9.562 21.344-21.312 21.344z" fill="#434A54" /><path d="M511.976 0.008c-35.282 0-63.998 28.702-63.998 63.998v895.986c0 35.312 28.716 64 63.998 64 35.266 0 64.014-28.688 64.014-64V64.006c0-35.296-28.748-63.998-64.014-63.998z" fill="#FFCE54" /><path d="M813.048 289.05c-3.812-19.454-8.188-35.218-12.936-46.842-2.938-7.14-11.938-28.874-32.124-28.874H255.98c-20.25 0-29.186 21.734-32.124 28.858-4.782 11.624-9.124 27.374-12.938 46.828-8.124 41.454-12.594 93.388-12.594 146.264 0 53.046 4.376 104.108 13.032 151.78 10.218 56.278 26.216 106.152 47.498 148.184 25 49.438 57.438 88.156 96.404 115.09 44.218 30.594 96.968 46.094 156.748 46.094 59.796 0 112.482-15.5 156.73-46.062 38.938-26.934 71.376-65.652 96.376-115.058 21.312-42.062 37.248-91.876 47.498-148.184 8.624-47.64 13.062-98.704 13.062-151.75 0.002-52.892-4.498-104.86-12.624-146.328z" fill="#CCD1D9" /><path d="M813.048 289.05c-3.812-19.454-8.188-35.218-12.936-46.842-2.938-7.14-11.938-28.874-32.124-28.874H725.3c20.25 0 29.188 21.734 32.124 28.874 4.75 11.624 9.124 27.39 12.938 46.842 8.124 41.468 12.624 93.436 12.624 146.326 0 53.046-4.376 104.108-13.062 151.75-10.188 56.308-26.188 106.122-47.438 148.184-25.062 49.406-57.5 88.124-96.436 115.058-38.876 26.876-84.326 42.124-135.388 45.376 7.032 0.468 14.124 0.688 21.344 0.688 59.796 0 112.482-15.5 156.73-46.062 38.938-26.934 71.376-65.652 96.376-115.058 21.312-42.062 37.248-91.876 47.498-148.184 8.624-47.64 13.062-98.704 13.062-151.75 0.002-52.892-4.498-104.86-12.624-146.328z" fill="#FFFFFF" opacity=".2" /><path d="M787.426 683.058l-0.876-0.376s-135.562 85.312-274.542 85.312c-138.686 0-274.872-84.876-275.558-85.312 6.656 18.624 14.124 36.218 22.406 52.562 25 49.438 57.438 88.156 96.404 115.09 44.218 30.594 96.968 46.094 156.748 46.094 59.796 0 112.482-15.5 156.73-46.062 38.938-26.934 71.376-65.652 96.376-115.058 8.25-16.25 15.686-33.686 22.312-52.25z" fill="#E6E9ED" /><path d="M447.978 85.334h128.012v42.67h-128.012z" fill="#F6BB42" /><path d="M511.976 725.308c-5.624 0-11.124-2.25-15.094-6.218s-6.25-9.468-6.25-15.094 2.282-11.124 6.25-15.062c3.968-4 9.468-6.282 15.094-6.282 5.594 0 11.124 2.282 15.094 6.282 3.938 3.938 6.218 9.438 6.218 15.062s-2.282 11.124-6.218 15.094c-3.968 3.968-9.5 6.218-15.094 6.218zM554.618 682.652a21.434 21.434 0 0 1-15.046-6.218c-4-4-6.282-9.5-6.282-15.124 0-5.594 2.282-11.094 6.282-15.062 3.938-3.968 9.422-6.25 15.046-6.25s11.124 2.282 15.124 6.25c3.936 3.968 6.248 9.468 6.248 15.062 0 5.624-2.312 11.124-6.248 15.124-4 3.938-9.5 6.218-15.124 6.218zM469.29 682.652a21.578 21.578 0 0 1-15.06-6.218c-3.968-4-6.25-9.5-6.25-15.124 0-5.594 2.282-11.094 6.25-15.062s9.466-6.25 15.06-6.25c5.624 0 11.124 2.282 15.094 6.25s6.25 9.468 6.25 15.062c0 5.624-2.282 11.124-6.25 15.124a21.6 21.6 0 0 1-15.094 6.218z" fill="#AAB2BC" /><path d="M447.978 917.304h128.012v42.688h-128.012z" fill="#F6BB42" /></svg>