<?xml version="1.0" standalone="no"?><!DOCTYPE svg PUBLIC "-//W3C//DTD SVG 1.1//EN" "http://www.w3.org/Graphics/SVG/1.1/DTD/svg11.dtd"><svg class="icon" width="128px" height="128.00px" viewBox="0 0 1024 1024" version="1.1" xmlns="http://www.w3.org/2000/svg"><path d="M448 661.438V1024h128V661.438z" fill="#434A54" /><path d="M362.656 0h298.688v341.328H362.656z" fill="#E6E9ED" /><path d="M597.344 768c0 23.562-19.124 42.688-42.688 42.688h-85.312c-23.562 0-42.688-19.124-42.688-42.688v-149.312c0-23.562 19.124-42.688 42.688-42.688h85.312c23.562 0 42.688 19.124 42.688 42.688V768z" fill="#37BC9B" /><path d="M725.344 640.124c0 23.562-19.124 42.624-42.688 42.624H341.344c-23.562 0-42.688-19.062-42.688-42.624V213.328h426.688v426.796z" fill="#48CFAD" /><path d="M469.344 85.328h-42.688c-11.782 0-21.312 9.562-21.312 21.344S414.876 128 426.656 128h42.688c11.782 0 21.312-9.546 21.312-21.328s-9.532-21.344-21.312-21.344zM597.344 85.328h-42.688c-11.782 0-21.312 9.562-21.312 21.344S542.876 128 554.656 128h42.688c11.782 0 21.312-9.546 21.312-21.328s-9.532-21.344-21.312-21.344z" fill="#CCD1D9" /><path d="M597.406 512.75l-0.062-75.438C597.312 425.546 587.782 416 576 416s-21.344 9.546-21.344 21.328v0.016l0.062 52.578-37.562 25.016 6.688-10.032-54.562-36.328 0.062-52.562V416c0-11.782-9.562-21.328-21.344-21.328s-21.312 9.532-21.344 21.312l-0.032 75.438 73.562 49 4.718-7.094 18.938 28.422 73.564-49z" fill="#E6E9ED" /><path d="M548.406 336.922l-21.312-21.344c-3.876-3.86-9.188-6.25-15.094-6.25s-11.218 2.39-15.094 6.25l-21.312 21.344a21.188 21.188 0 0 0-6.25 15.078c0 11.782 9.532 21.328 21.312 21.328v213.36c0 11.75 9.562 21.312 21.344 21.312s21.344-9.562 21.344-21.312v-213.36c11.782 0 21.312-9.546 21.312-21.328 0-5.89-2.374-11.218-6.25-15.078z" fill="#F5F7FA" /><path d="M448 725.312c0-11.75-9.562-21.312-21.344-21.312v42.688c11.782 0 21.344-9.564 21.344-21.376zM576 725.312c0 11.812 9.562 21.376 21.344 21.376V704c-11.782 0-21.344 9.562-21.344 21.312z" opacity=".1" /></svg>