<?xml version="1.0" standalone="no"?><!DOCTYPE svg PUBLIC "-//W3C//DTD SVG 1.1//EN" "http://www.w3.org/Graphics/SVG/1.1/DTD/svg11.dtd"><svg class="icon" width="128px" height="128.00px" viewBox="0 0 1024 1024" version="1.1" xmlns="http://www.w3.org/2000/svg"><path d="M405.33 714.682h-127.998a21.32 21.32 0 0 0-21.328 21.342v213.31c0 11.78 9.546 21.342 21.328 21.342h127.998c11.78 0 21.342-9.562 21.342-21.342V736.024c0-11.812-9.562-21.342-21.342-21.342zM512 480.012a21.286 21.286 0 0 1-15.078-6.25l-64-63.998a21.332 21.332 0 0 1 0-30.188c8.328-8.312 21.828-8.312 30.156 0l64 63.998a21.332 21.332 0 0 1 0 30.188 21.286 21.286 0 0 1-15.078 6.25z" fill="#ED5564" /><path d="M576 544.028h-128c-11.782 0-21.328-9.578-21.328-21.358 0-11.782 9.546-21.344 21.328-21.344h119.156l30.156-30.156v-76.498c0-11.782 9.562-21.344 21.376-21.344 11.75 0 21.308 9.562 21.308 21.344v85.342a21.3 21.3 0 0 1-6.246 15.062l-42.688 42.686c-4 4-9.406 6.266-15.062 6.266z" fill="#AAB2BC" /><path d="M448 373.328H234.676c-11.782 0-21.344 9.562-21.344 21.344v341.352c0 11.782 9.562 21.312 21.344 21.312H448c11.782 0 21.328-9.532 21.328-21.312V394.67c0.002-11.78-9.546-21.342-21.328-21.342z" fill="#434A54" /><path d="M341.332 800.024c-11.782 0-21.328 9.532-21.328 21.312v149.34h42.67v-149.34c0-11.782-9.562-21.312-21.342-21.312z" fill="#DA4453" /><path d="M1002.68 202.674h-170.684c-11.782 0-21.312 9.532-21.312 21.342v64a21.3 21.3 0 0 0 21.312 21.312h170.684c11.75 0 21.312-9.53 21.312-21.312v-64c0-11.81-9.562-21.342-21.312-21.342z" fill="#AAB2BC" /><path d="M831.996 160.018h-64a21.3 21.3 0 0 0-21.312 21.312v149.34c0 11.782 9.532 21.344 21.312 21.344h64c11.782 0 21.312-9.562 21.312-21.344v-149.34a21.3 21.3 0 0 0-21.312-21.312zM149.334 53.334H64.008a21.324 21.324 0 0 0-15.078 6.25L6.258 102.238c-4 4-6.25 9.436-6.25 15.092v21.344c0 11.782 9.546 21.344 21.328 21.344h127.998c11.782 0 21.344-9.562 21.344-21.344V74.676c0-11.78-9.562-21.342-21.344-21.342z" fill="#434A54" /><path d="M782.84 59.364a21.39 21.39 0 0 0-15.532-6.032c-1 0.062-25.25 0.906-49.75 10.468-36.25 14.156-56.25 40.75-56.25 74.874 0 11.782 9.562 21.344 21.376 21.344h85.312c11.782 0 21.312-9.562 21.312-21.344V74.676a21.22 21.22 0 0 0-6.468-15.312z" fill="#434A54" /><path d="M639.996 53.334c-11.778 0-21.308 9.562-21.308 21.344v63.998c0 11.782 9.532 21.344 21.308 21.344 11.782 0 21.312-9.562 21.312-21.344v-64c0-11.78-9.53-21.342-21.312-21.342z" fill="#AAB2BC" /><path d="M767.996 117.332H21.336C9.554 117.332 0.008 126.894 0.008 138.676v170.654c0 11.782 9.546 21.342 21.328 21.342h37.64l166.154 83.062a21.156 21.156 0 0 0 9.546 2.282h426.632c5.688 0 11.124-2.25 15.124-6.25l36.406-36.438h55.156a21.3 21.3 0 0 0 21.312-21.312V138.674c0.002-11.78-9.528-21.342-21.31-21.342z" fill="#656D78" /><path d="M618.688 245.33H234.676c-11.782 0-21.344-9.532-21.344-21.312 0-11.812 9.562-21.342 21.344-21.342h384.01c11.75 0 21.308 9.532 21.308 21.342 0.002 11.78-9.556 21.312-21.306 21.312zM618.688 330.67H234.676c-11.782 0-21.344-9.562-21.344-21.342s9.562-21.312 21.344-21.312h384.01c11.75 0 21.308 9.532 21.308 21.312 0.002 11.782-9.556 21.342-21.306 21.342z" fill="#434A54" /><path d="M234.676 480.012c0-11.812-9.562-21.344-21.344-21.344v42.656c11.782 0.002 21.344-9.53 21.344-21.312zM234.676 565.34c0-11.782-9.562-21.312-21.344-21.312v42.656c11.782 0 21.344-9.562 21.344-21.344zM448 565.34c0 11.782 9.546 21.344 21.328 21.344v-42.656c-11.78 0-21.328 9.53-21.328 21.312zM448 480.012c0 11.782 9.546 21.312 21.328 21.312v-42.656c-11.78 0-21.328 9.532-21.328 21.344zM405.33 672.026a21.32 21.32 0 0 0-21.328-21.342h-85.326c-11.782 0-21.344 9.532-21.344 21.342v85.31h127.998v-85.31z" fill="#656D78" /><path d="M106.678 224.016c0 11.75-9.562 21.312-21.344 21.312-11.78 0-21.328-9.562-21.328-21.312a21.318 21.318 0 0 1 21.328-21.342c11.782 0 21.344 9.532 21.344 21.342z" fill="#ED5564" /></svg>