<?xml version="1.0" standalone="no"?><!DOCTYPE svg PUBLIC "-//W3C//DTD SVG 1.1//EN" "http://www.w3.org/Graphics/SVG/1.1/DTD/svg11.dtd"><svg class="icon" width="128px" height="128.00px" viewBox="0 0 1024 1024" version="1.1" xmlns="http://www.w3.org/2000/svg"><path d="M898.59 18.754c-25-25-65.5-25-90.5 0L174.532 652.312c-25 25-25 65.532 0 90.5 24.968 25 65.5 25 90.5 0l633.558-633.56c25-25 25-65.498 0-90.498z" fill="#CCD1D9" /><path d="M128.002 1002.652c0 11.782-9.532 21.344-21.312 21.344H21.346c-11.782 0-21.342-9.562-21.342-21.344V789.344C0.004 777.562 9.566 768 21.346 768h85.344c11.782 0 21.312 9.562 21.312 21.344v213.308zM640 1002.652c0 11.782-9.532 21.344-21.312 21.344h-85.344c-11.782 0-21.342-9.562-21.342-21.344V789.344c0-11.782 9.562-21.344 21.342-21.344h85.344c11.782 0 21.312 9.562 21.312 21.344v213.308z" fill="#434A54" /><path d="M576 1002.652c0 11.782-9.532 21.344-21.312 21.344H85.346c-11.782 0-21.344-9.562-21.344-21.344 0 0-128-703.994 256-703.994C703.996 298.66 576 1002.652 576 1002.652z" fill="#AC92EB" /><path d="M318.158 618.656c-58.812 0-106.656-47.844-106.656-106.656 0-58.812 47.844-106.656 106.656-106.656 58.812 0 106.686 47.844 106.686 106.656 0 58.812-47.876 106.656-106.686 106.656z" fill="#434A54" /><path d="M318.158 384.002c-70.688 0-128 57.312-128 128 0 70.686 57.312 128 128 128 70.718 0 128-57.312 128-128-0.002-70.688-57.282-128-128-128z m0 213.342c-47.032 0-85.312-38.282-85.312-85.342 0-47.062 38.282-85.344 85.312-85.344 47.062 0 85.342 38.282 85.342 85.344 0 47.06-38.282 85.342-85.342 85.342z" fill="#967ADC" /><path d="M533.344 789.344c0 11.78-9.562 21.31-21.342 21.31a21.298 21.298 0 0 1-21.312-21.31c0-11.782 9.532-21.344 21.312-21.344 11.78 0 21.342 9.562 21.342 21.344zM469.344 789.344c0 11.78-9.562 21.31-21.344 21.31s-21.312-9.532-21.312-21.31c0-11.782 9.532-21.344 21.312-21.344s21.344 9.562 21.344 21.344z" fill="#E6E9ED" /><path d="M192 917.342a21.3 21.3 0 0 0-21.312 21.312v84.998h42.656v-84.998c0-11.78-9.562-21.312-21.344-21.312zM277.344 917.342c-11.782 0-21.344 9.532-21.344 21.312v84.998h42.688v-84.998c0-11.78-9.562-21.312-21.344-21.312zM362.688 917.342c-11.782 0-21.342 9.532-21.342 21.312v84.998H384v-84.998a21.3 21.3 0 0 0-21.312-21.312zM448 917.342a21.3 21.3 0 0 0-21.312 21.312v84.998h42.656v-84.998c0-11.78-9.562-21.312-21.344-21.312z" fill="#967ADC" /><path d="M44.534 704h550.936a1043.144 1043.144 0 0 0-2.562-42.656H47.096A1162.42 1162.42 0 0 0 44.534 704z" fill="#967ADC" /><path d="M320 213.346c-35.344 0-64 28.656-64 64V512c0 35.342 28.656 64 64 64 35.342 0 64-28.656 64-64V277.346c0-35.344-28.656-64-64-64z" fill="#E6E9ED" /><path d="M656.692 351.164l-90.5-90.5 30.16-30.156 90.498 90.5zM596.344 411.508l-90.496-90.5L536 290.856l90.498 90.5zM718.996 107.816l-30.152 30.186 90.496 90.5 30.188-30.156zM628.5 198.346l90.496 90.5 30.188-30.156-90.528-90.53z" fill="#AAB2BC" /><path d="M256 448h128v42.656h-128zM256 362.658h128v42.686h-128zM256 277.346h128v42.656h-128z" fill="#CCD1D9" /><path d="M853.34 0.004c-35.344 0-64 28.656-64 64V960c0 35.342 28.656 63.998 64 63.998s64-28.656 64-63.998V64.002c0-35.342-28.656-63.998-64-63.998z" fill="#E6E9ED" /><path d="M789.34 362.658h128v170.686h-128z" fill="#AC92EB" /><path d="M895.996 448c0 11.782 9.562 21.344 21.344 21.344v-42.688c-11.782 0.002-21.344 9.564-21.344 21.344zM810.684 448c0-11.782-9.562-21.344-21.344-21.344v42.688c11.782 0 21.344-9.562 21.344-21.344z" fill="#967ADC" /><path d="M917.34 853.342v-42.688h-128v42.688l-106.652 42.656v127.998h341.308v-127.998z" fill="#656D78" /><path d="M917.34 917.342h-128c-11.782 0-21.344 9.532-21.344 21.312s9.562 21.344 21.344 21.344h128c11.782 0 21.344-9.562 21.344-21.344s-9.562-21.312-21.344-21.312z" fill="#434A54" /></svg>