<?xml version="1.0" standalone="no"?><!DOCTYPE svg PUBLIC "-//W3C//DTD SVG 1.1//EN" "http://www.w3.org/Graphics/SVG/1.1/DTD/svg11.dtd"><svg class="icon" width="128px" height="128.00px" viewBox="0 0 1024 1024" version="1.1" xmlns="http://www.w3.org/2000/svg"><path d="M770.896 525.344l-35.216-24.032c34.498-50.592 59.186-121.746 66.028-190.276 6.44-64.716-4.404-117.996-28.31-139.088-36.59-32.282-103.4 17.062-139.994 49.374l-28.216-31.966C646.12 153.2 683.494 130.668 716.244 122.42c42.122-10.626 69.684 3.656 85.372 17.53 35.062 30.938 50.56 94.842 42.532 175.306-7.502 75.342-34.878 153.87-73.252 210.088zM253.07 525.344c-38.342-56.216-65.716-134.746-73.216-210.088-8.032-80.464 7.468-144.37 42.53-175.306 15.688-13.874 43.25-28.154 85.374-17.53 32.748 8.248 70.124 30.78 111.058 66.936l-28.248 31.966c-36.562-32.31-103.402-81.654-139.964-49.374-23.906 21.092-34.748 74.372-28.312 139.088 6.844 68.53 31.532 139.684 66.03 190.276l-35.252 24.032z" fill="#E8563F" /><path d="M769.24 403.098c-20.654-100.902-129.244-147.09-129.244-147.09V128.012L725.336 0.018H298.662l85.342 127.994v127.996s-108.59 46.188-129.278 147.09c-27.094 132.276-5.218 410.14 129.278 514.202l-85.342 85.34s73.624 21.344 213.336 21.344c139.716 0 213.338-21.344 213.338-21.344l-85.34-85.34c134.462-104.062 156.37-381.926 129.244-514.202z" fill="#FB6D51" /><path d="M384.004 917.298l-85.342 85.34s73.624 21.344 213.336 21.344c139.716 0 213.338-21.344 213.338-21.344l-85.34-85.34s-49.344 21.342-127.998 21.342c-78.652 0-127.994-21.342-127.994-21.342z" fill="#E8563F" /><path d="M661.338 639.996v-42.688h42.654v-127.994h-170.65V639.996h-85.34v-42.688h42.654v-127.994h-170.65V639.996h-66.436a740.22 740.22 0 0 0 7.594 42.654h101.496V512h85.342v42.654h-42.656V682.65h170.652V512h85.34v42.654h-42.686V682.65h144.184a766.988 766.988 0 0 0 7.592-42.654h-109.09z" fill="#FECD57" /><path d="M769.24 403.098c-20.654-100.902-129.244-147.09-129.244-147.09V128.012L725.336 0.018h-22.968l-77.03 118.712v149.59s80.562 33.876 101.248 134.778c27.126 132.276 18.906 345.892-86.59 514.202 134.462-104.062 156.37-381.926 129.244-514.202z" fill="#FFFFFF" opacity=".2" /></svg>