<?xml version="1.0" standalone="no"?><!DOCTYPE svg PUBLIC "-//W3C//DTD SVG 1.1//EN" "http://www.w3.org/Graphics/SVG/1.1/DTD/svg11.dtd"><svg class="icon" width="128px" height="128.00px" viewBox="0 0 1024 1024" version="1.1" xmlns="http://www.w3.org/2000/svg"><path d="M490.648 699.492V1002.68c0 11.782 9.562 21.312 21.344 21.312 11.796 0 21.36-9.532 21.36-21.312V699.492h-42.704z" fill="#D770AD" /><path d="M511.992 0.008C311.71 0.008 149.336 162.384 149.336 362.68c0 200.312 162.376 362.656 362.656 362.656 200.296 0 362.672-162.344 362.672-362.656C874.664 162.382 712.29 0.008 511.992 0.008z m226.298 588.922c-29.438 29.438-63.624 52.5-101.75 68.624-39.438 16.688-81.312 25.124-124.546 25.124-43.218 0-85.124-8.438-124.532-25.124-38.124-16.124-72.344-39.188-101.75-68.624-29.406-29.376-52.468-63.61-68.594-101.704-16.656-39.438-25.124-81.328-25.124-124.546s8.468-85.124 25.124-124.546c16.124-38.11 39.188-72.328 68.594-101.734s63.624-52.484 101.75-68.594c39.406-16.672 81.312-25.124 124.532-25.124 43.234 0 85.11 8.454 124.546 25.124 38.124 16.11 72.312 39.188 101.75 68.594 29.376 29.406 52.438 63.624 68.562 101.734 16.688 39.422 25.124 81.328 25.124 124.546s-8.438 85.11-25.124 124.546c-16.126 38.094-39.188 72.328-68.562 101.704zM661.352 853.336H362.648c-11.782 0-21.312 9.562-21.312 21.344s9.532 21.312 21.312 21.312h298.704c11.75 0 21.312-9.532 21.312-21.312s-9.562-21.344-21.312-21.344z" fill="#EC87C0" /></svg>