<?xml version="1.0" standalone="no"?><!DOCTYPE svg PUBLIC "-//W3C//DTD SVG 1.1//EN" "http://www.w3.org/Graphics/SVG/1.1/DTD/svg11.dtd"><svg class="icon" width="128px" height="128.00px" viewBox="0 0 1024 1024" version="1.1" xmlns="http://www.w3.org/2000/svg"><path d="M662.93 413.36a21.26 21.26 0 0 0-17.688 9.438l-133.25 192.438-133.218-192.438a21.308 21.308 0 0 0-17.704-9.438c-11.782 0-21.344 9.562-21.344 21.344 0 4.344 1.296 8.376 3.532 11.718l151.016 218.124c3.844 5.718 10.344 9.468 17.718 9.468 7.406 0 13.938-3.75 17.75-9.468l151-218.124a20.918 20.918 0 0 0 3.562-11.718c0-11.782-9.562-21.344-21.374-21.344z" fill="#48CFAD" /><path d="M490.68 392.046c0 11.782 9.562 21.312 21.312 21.312 8.438 0 15.688-4.844 19.188-11.938l42.344-84.718a21.15 21.15 0 0 0 2.468-10c0-6.062-2.5-11.5-6.562-15.406l-36.124-36.094 0.032-33.844c0-11.782-9.532-21.312-21.344-21.312-11.75 0-21.312 9.532-21.312 21.312v42.688c0 6.032 2.532 11.5 6.562 15.376l31.624 31.624-36 71.562a21.16 21.16 0 0 0-2.188 9.438zM1002.68 413.39H766.742a21.326 21.326 0 0 0-17.75 9.468l-237 342.25L275.008 422.86a21.268 21.268 0 0 0-17.718-9.468H21.336c-11.782 0-21.328 9.562-21.328 21.344s9.546 21.312 21.328 21.312h224.766l248.89 359.406a21.25 21.25 0 0 0 17 8.5c6.968 0 13.124-3.344 17.032-8.5l248.906-359.406H1002.68c11.782 0 21.312-9.532 21.312-21.312s-9.532-21.346-21.312-21.346z" fill="#37BC9B" /></svg>