<?xml version="1.0" standalone="no"?><!DOCTYPE svg PUBLIC "-//W3C//DTD SVG 1.1//EN" "http://www.w3.org/Graphics/SVG/1.1/DTD/svg11.dtd"><svg class="icon" width="128px" height="128.00px" viewBox="0 0 1024 1024" version="1.1" xmlns="http://www.w3.org/2000/svg"><path d="M838.02 856.548H186.294S16.456 65.266 512.156 65.266c495.698 0.002 325.864 791.282 325.864 791.282z" fill="#E2A437" /><path d="M877.768 836.706l-3.624-1.062c-52.966-14.188-70.842-27.844-94.404-36.81-83.622-31.876-105.372-54.81-110.934-65.654-0.188-0.406-0.344-0.812-0.5-1.218l-0.718-97.088L512 632.622l-155.556 2.25-0.718 97.088c-0.156 0.406-0.344 0.812-0.532 1.218-5.562 10.844-27.31 33.78-110.9 65.654-23.562 8.966-41.468 22.624-94.434 36.81l-3.624 1.062c-48.186 15.938-80.592 81.966-80.592 132.4v54.874H958.358v-54.874c0-50.432-32.406-116.462-80.59-132.398z" fill="#E6E9ED" /><path d="M521.124 731.958l-144.9 114.56 74.652 177.46h124.434l71.998-166.772z" fill="#DA4453" /><path d="M629.278 874.64l28.716-20.998 10.56-121.058c-0.062-0.218-0.188-0.406-0.25-0.624l-0.718-97.088-124.806-1.812-186.586 35.622-0.468 63.28c-0.156 0.406-0.344 0.812-0.532 1.218l42.248 139.244 114.746-81.84 117.09 84.056z" fill="#ED5564" /><path d="M533.344 895.984c0 11.782-9.532 21.344-21.344 21.344-11.782 0-21.312-9.562-21.312-21.344S500.218 874.64 512 874.64c11.812 0 21.344 9.564 21.344 21.344z" fill="#FFCE54" /><path d="M787.27 447.346c0 178.744-170.396 343.236-275.114 343.236-104.684 0-275.082-164.492-275.082-343.236 0-178.742 123.15-296.674 275.082-296.674 151.93 0 275.114 117.932 275.114 296.674z" fill="#EAC6BB" /><path d="M574.466 235.23l282.676 192.96c-25.186-186.338-110.808-362.924-344.986-362.924l62.31 169.964z" fill="#F6BB42" /><path d="M532.218 318.132c91.308-65.654 169.93-130.246 210.366-164.398-53.03-54.216-127.336-88.466-230.428-88.466-273.458 0-344.362 240.834-352.986 456.764 94.84-25.5 219.96-93.872 373.048-203.9z" fill="#FFCE54" /><path d="M788.27 232.542L766.926 19.238c-1.062-10.906-10.248-19.216-21.216-19.216H277.354a21.356 21.356 0 0 0-21.25 19.216l-21.31 213.304c-1.094 10.966 6.312 20.966 17.124 23.06 4.532 0.906 112.778 21.75 260.084 21.75 147.338 0 254.676-20.876 259.176-21.75a21.326 21.326 0 0 0 17.092-23.06z" fill="#E6E9ED" /><path d="M511.532 234.668c-35.282 0-63.998-28.688-63.998-63.998 0-35.28 28.716-63.998 63.998-63.998 35.28 0 63.998 28.718 63.998 63.998 0 35.31-28.72 63.998-63.998 63.998zM532.876 64.018c0 11.782-9.562 21.344-21.344 21.344s-21.344-9.562-21.344-21.344 9.562-21.342 21.344-21.342 21.344 9.56 21.344 21.342zM466.252 73.924a21.332 21.332 0 0 1 0 30.188c-8.312 8.31-21.81 8.31-30.154 0a21.332 21.332 0 0 1 0-30.188c8.344-8.312 21.842-8.312 30.154 0zM556.81 73.924c8.312-8.312 21.812-8.312 30.156 0a21.332 21.332 0 0 1 0 30.188c-8.344 8.31-21.844 8.31-30.156 0a21.332 21.332 0 0 1 0-30.188z" fill="#ED5564" /><path d="M488.906 1023.978l-133.526-292.02-78.182 88.872 65.12 49.998-11.654 48 76.058 105.15zM535.124 1023.978l133.494-292.02 78.184 88.872-65.092 49.998 11.658 48-76.058 105.15z" fill="#F5F7FA" /></svg>