<?xml version="1.0" standalone="no"?><!DOCTYPE svg PUBLIC "-//W3C//DTD SVG 1.1//EN" "http://www.w3.org/Graphics/SVG/1.1/DTD/svg11.dtd"><svg class="icon" width="128px" height="128.00px" viewBox="0 0 1024 1024" version="1.1" xmlns="http://www.w3.org/2000/svg"><path d="M584 320h69.312v128H584z" fill="#434A54" /><path d="M326.844 682.656c0 11.782-9.562 21.344-21.344 21.344H21.314C9.532 704 0.002 694.438 0.002 682.656V341.344C0.002 329.562 9.532 320 21.314 320H305.5c11.782 0 21.344 9.562 21.344 21.344v341.312z" fill="#CCD1D9" /><path d="M21.314 426.656c0-11.782-9.562-21.312-21.312-21.312V448c11.75 0 21.312-9.562 21.312-21.344zM21.314 512c0-11.782-9.562-21.344-21.312-21.344v42.688c11.75 0 21.312-9.562 21.312-21.344zM21.314 597.344C21.314 585.562 11.752 576 0.002 576v42.656c11.75 0 21.312-9.532 21.312-21.312z" fill="#AAB2BC" /><path d="M597.312 895.998c0 23.562-19.094 42.656-42.656 42.656H128.002c-23.594 0-42.688-19.094-42.688-42.656V128.002c0-23.562 19.094-42.656 42.688-42.656h426.654c23.562 0 42.656 19.094 42.656 42.656v767.996z" fill="#656D78" /><path d="M341.314 576c-105.876 0-192-86.124-192-192s86.124-192 192-192c105.874 0 192 86.124 192 192s-86.126 192-192 192z" fill="#5D9CEC" /><path d="M341.314 192.002c-10.906 0-21.594 0.938-32 2.688 90.686 15.282 160 94.344 160 189.312s-69.312 174.03-160 189.312a192.818 192.818 0 0 0 32 2.688c105.874 0 192-86.124 192-192s-86.126-192-192-192z" fill="#FFFFFF" opacity=".1" /><path d="M341.314 170.658C223.5 170.658 128.002 266.19 128.002 384s95.5 213.342 213.312 213.342c117.812 0 213.342-95.532 213.342-213.342S459.124 170.658 341.314 170.658zM462 504.688c-32.25 32.218-75.094 49.968-120.686 49.968-45.594 0-88.438-17.75-120.688-49.968C188.408 472.438 170.658 429.594 170.658 384c0-45.594 17.75-88.436 49.968-120.686 32.25-32.218 75.094-49.968 120.688-49.968 45.592 0 88.436 17.75 120.686 49.968 32.218 32.25 50 75.092 50 120.686 0 45.594-17.782 88.438-50 120.688z" fill="#4A89DC" /><path d="M341.314 853.342c-23.532 0-42.656-19.156-42.656-42.688 0-23.53 19.124-42.654 42.656-42.654 23.53 0 42.686 19.124 42.686 42.654 0 23.532-19.156 42.688-42.686 42.688z" fill="#ED5564" /><path d="M341.314 746.656c-35.344 0-64 28.656-64 63.998 0 35.344 28.656 64 64 64 35.342 0 64-28.656 64-64-0.002-35.342-28.658-63.998-64-63.998z m0 85.342c-11.75 0-21.312-9.562-21.312-21.344 0-11.75 9.562-21.31 21.312-21.31 11.78 0 21.342 9.56 21.342 21.31 0 11.782-9.562 21.344-21.342 21.344z" fill="#DA4453" /><path d="M85.314 661.344h511.998V704H85.314z" fill="#434A54" /><path d="M661.312 234.658h341.34v298.686h-341.34z" fill="#5D9CEC" /><path d="M640 213.346v341.31h383.996V213.346H640zM981.308 512H682.656V256.002h298.652V512z" fill="#656D78" /></svg>