<?xml version="1.0" standalone="no"?><!DOCTYPE svg PUBLIC "-//W3C//DTD SVG 1.1//EN" "http://www.w3.org/Graphics/SVG/1.1/DTD/svg11.dtd"><svg class="icon" width="128px" height="128.00px" viewBox="0 0 1024 1024" version="1.1" xmlns="http://www.w3.org/2000/svg"><path d="M170.688 661.312h469.688V768H170.688z" fill="#A0D468" /><path d="M277.344 746.688C265.562 746.688 256 756.22 256 768h42.688c0-11.782-9.564-21.312-21.344-21.312zM362.688 746.688c-11.782 0-21.344 9.532-21.344 21.312H384a21.3 21.3 0 0 0-21.312-21.312zM448 746.688A21.3 21.3 0 0 0 426.688 768h42.656c0-11.782-9.562-21.312-21.344-21.312zM533.344 746.688C521.562 746.688 512 756.22 512 768h42.688c0-11.782-9.564-21.312-21.344-21.312z" fill="#8CC153" /><path d="M683.062 704c0 11.782-9.562 21.312-21.344 21.312S640.374 715.78 640.374 704s9.562-21.312 21.344-21.312 21.344 9.53 21.344 21.312z" fill="#CCD1D9" /><path d="M896 661.312H0v-426.64h896z" fill="#E6E9ED" /><path d="M42.688 320c-11.782 0-21.344 9.546-21.344 21.328v64c0 11.782 9.562 21.344 21.344 21.344S64 417.11 64 405.328v-64C64 329.546 54.468 320 42.688 320zM42.688 469.328c-11.782 0-21.344 9.562-21.344 21.344v64.016c0 11.75 9.562 21.312 21.344 21.312S64 566.438 64 554.688v-64.016c0-11.782-9.532-21.344-21.312-21.344z" fill="#434A54" /><path d="M21.344 213.328C9.562 213.328 0 222.89 0 234.672v576.016C0 822.438 9.562 832 21.344 832s21.344-9.562 21.344-21.312V234.672c0-11.782-9.564-21.344-21.344-21.344z" fill="#656D78" /><path d="M128 192h896v512H128z" fill="#FC6E51" /><path d="M341.344 298.672c0 11.782-9.562 21.328-21.344 21.328s-21.312-9.546-21.312-21.328 9.532-21.344 21.312-21.344 21.344 9.562 21.344 21.344z" fill="#E6E9ED" /><path d="M149.344 362.672C149.344 374.454 139.782 384 128 384s-21.312-9.546-21.312-21.328S116.218 341.328 128 341.328s21.344 9.562 21.344 21.344zM149.344 448c0 11.782-9.562 21.328-21.344 21.328S106.688 459.782 106.688 448 116.218 426.672 128 426.672 149.344 436.218 149.344 448zM149.344 533.344c0 11.782-9.562 21.344-21.344 21.344s-21.312-9.562-21.312-21.344S116.218 512 128 512s21.344 9.562 21.344 21.344z" fill="#CCD1D9" /><path d="M768 597.312c0 11.812-9.532 21.376-21.312 21.376s-21.344-9.562-21.344-21.376c0-11.75 9.562-21.312 21.344-21.312S768 585.562 768 597.312z" fill="#E6E9ED" /><path d="M704 448c0 94.266-76.406 170.688-170.656 170.688S362.688 542.266 362.688 448c0-94.25 76.406-170.672 170.656-170.672S704 353.75 704 448z" fill="#656D78" /><path d="M576.844 411.36c10.876-12.812 25.406-26.578 43.218-40.75 16.406-13.062 32.624-24.124 44.468-31.766a171.478 171.478 0 0 0-32.218-29.89c-11.25 7.516-24.656 17.016-38.376 27.922-23.594 18.734-42.188 36.938-55.75 54.468-1.376-16.766-0.812-36.782 1.75-59.39 2.376-20.844 6-40.11 9-53.906a177.5 177.5 0 0 0-15.594-0.718c-9.656 0-19.124 0.828-28.344 2.36-2.624 13.266-5.406 29.468-7.376 46.876-3.438 29.954-3.75 55.968-0.938 77.954-12.812-10.89-26.562-25.438-40.75-43.234-13.062-16.422-24.094-32.624-31.75-44.468a172.588 172.588 0 0 0-29.906 32.218c7.532 11.234 17.032 24.656 27.938 38.376 18.75 23.594 36.938 42.204 54.468 55.75-16.782 1.376-36.782 0.812-59.406-1.75-20.844-2.36-40.094-6.016-53.906-8.984a183.272 183.272 0 0 0-0.688 15.578c0 9.656 0.812 19.124 2.344 28.344 13.282 2.624 29.468 5.39 46.876 7.39 16.438 1.89 31.688 2.828 45.718 2.828 11.562 0 22.312-0.656 32.25-1.922-10.906 12.828-25.438 26.578-43.25 40.75-16.438 13.078-32.624 24.11-44.468 31.766a172.092 172.092 0 0 0 32.218 29.906c11.25-7.532 24.656-17.032 38.376-27.938 23.594-18.734 42.188-36.922 55.75-54.468 1.376 16.766 0.812 36.782-1.75 59.406-2.376 20.844-6 40.124-9 53.876 5.156 0.5 10.344 0.75 15.594 0.75 9.656 0 19.124-0.812 28.344-2.376 2.624-13.25 5.376-29.468 7.376-46.876 3.438-29.938 3.75-55.968 0.906-77.954 12.844 10.89 26.594 25.438 40.782 43.234 13.062 16.406 24.094 32.624 31.75 44.468a173.086 173.086 0 0 0 29.906-32.218c-7.532-11.234-17.032-24.64-27.938-38.376-18.75-23.594-36.938-42.204-54.468-55.75 16.782-1.376 36.782-0.812 59.376 1.75 20.876 2.376 40.124 6.016 53.906 8.984a171.354 171.354 0 0 0-1.626-43.922c-13.282-2.624-29.468-5.39-46.876-7.39-29.936-3.424-55.968-3.722-77.936-0.908z" fill="#434A54" /><path d="M533.344 490.672c-23.532 0-42.656-19.14-42.656-42.672s19.124-42.656 42.656-42.656S576 424.468 576 448s-19.124 42.672-42.656 42.672z" fill="#CCD1D9" /><path d="M533.344 384c-35.344 0-64 28.656-64 64s28.656 64 64 64 64-28.656 64-64-28.656-64-64-64z m0 85.328c-11.75 0-21.344-9.562-21.344-21.328s9.594-21.328 21.344-21.328 21.344 9.562 21.344 21.328-9.594 21.328-21.344 21.328z" fill="#E6E9ED" /><path d="M234.688 277.328c-11.782 0-21.344 9.562-21.344 21.344v298.64c0 11.812 9.562 21.376 21.344 21.376S256 609.124 256 597.312v-298.64c0-11.782-9.532-21.344-21.312-21.344z" fill="#E9573F" /><path d="M832 277.328c-11.782 0-21.312 9.562-21.312 21.344v298.64c0 11.812 9.532 21.376 21.312 21.376s21.344-9.562 21.344-21.376v-298.64c0-11.782-9.562-21.344-21.344-21.344zM917.344 277.328c-11.782 0-21.344 9.562-21.344 21.344v298.64c0 11.812 9.562 21.376 21.344 21.376s21.344-9.562 21.344-21.376v-298.64c0-11.782-9.564-21.344-21.344-21.344z" fill="#E9573F" /><path d="M128 192v512c0 11.782 9.562 21.312 21.344 21.312S170.688 715.782 170.688 704V192H128z" fill="#E9573F" /><path d="M533.344 277.328c-94.25 0-170.656 76.422-170.656 170.672 0 94.266 76.406 170.688 170.656 170.688S704 542.266 704 448c0-94.25-76.406-170.672-170.656-170.672z m0 298.672c-70.594 0-128-57.422-128-128s57.406-128 128-128 128 57.422 128 128-57.406 128-128 128z" fill="#434A54" /></svg>