<?xml version="1.0" standalone="no"?><!DOCTYPE svg PUBLIC "-//W3C//DTD SVG 1.1//EN" "http://www.w3.org/Graphics/SVG/1.1/DTD/svg11.dtd"><svg class="icon" width="128px" height="128.00px" viewBox="0 0 1024 1024" version="1.1" xmlns="http://www.w3.org/2000/svg"><path d="M1024 832c0 23.562-19.124 42.656-42.688 42.656H42.656C19.094 874.656 0 855.562 0 832V234.656C0 211.094 19.094 192 42.656 192h938.656C1004.876 192 1024 211.094 1024 234.656V832z" fill="#8CC153" /><path d="M1024 789.344c0 23.562-19.124 42.656-42.688 42.656H42.656C19.094 832 0 812.906 0 789.344V192c0-23.562 19.094-42.656 42.656-42.656h938.656C1004.876 149.344 1024 168.438 1024 192v597.344z" fill="#A0D468" /><path d="M170.656 670.968h97.812V384H170.656l-80.874 146.5z" fill="#656D78" /><path d="M298.656 661.344c-70.562 0-128-57.438-128-128 0-70.594 57.438-128 128-128 70.594 0 128 57.406 128 128 0 70.562-57.406 128-128 128z" fill="#656D78" /><path d="M298.656 384c-82.468 0-149.344 66.844-149.344 149.344 0 82.468 66.876 149.312 149.344 149.312S448 615.812 448 533.344c0-82.5-66.876-149.344-149.344-149.344z m0 256C239.844 640 192 592.156 192 533.344s47.844-106.688 106.656-106.688 106.656 47.876 106.656 106.688S357.468 640 298.656 640z" fill="#434A54" /><path d="M298.656 597.344c-35.282 0-64-28.718-64-64 0-35.312 28.718-64 64-64s64 28.688 64 64c0 35.28-28.718 64-64 64z" fill="#CCD1D9" /><path d="M298.656 448c-47.124 0-85.344 38.218-85.344 85.344s38.218 85.312 85.344 85.312S384 580.468 384 533.344 345.782 448 298.656 448z m0 128C275.124 576 256 556.876 256 533.344s19.124-42.688 42.656-42.688 42.656 19.156 42.656 42.688S322.188 576 298.656 576z" fill="#E6E9ED" /><path d="M844.468 670.968h-97.812V384h97.812l80.908 146.5z" fill="#656D78" /><path d="M725.312 661.344c-70.562 0-128-57.438-128-128 0-70.594 57.438-128 128-128 70.594 0 128 57.406 128 128 0 70.562-57.406 128-128 128z" fill="#656D78" /><path d="M725.312 384C642.844 384 576 450.844 576 533.344c0 82.468 66.844 149.312 149.312 149.312 82.5 0 149.344-66.844 149.344-149.312 0-82.5-66.844-149.344-149.344-149.344z m0 256c-58.812 0-106.656-47.844-106.656-106.656s47.844-106.688 106.656-106.688S832 474.532 832 533.344 784.124 640 725.312 640z" fill="#434A54" /><path d="M725.312 597.344c-35.282 0-64-28.718-64-64 0-35.312 28.718-64 64-64 35.312 0 64 28.688 64 64 0 35.28-28.688 64-64 64z" fill="#CCD1D9" /><path d="M725.312 448C678.188 448 640 486.218 640 533.344s38.188 85.312 85.312 85.312 85.344-38.188 85.344-85.312S772.438 448 725.312 448z m0 128c-23.5 0-42.656-19.124-42.656-42.656s19.156-42.688 42.656-42.688c23.532 0 42.688 19.156 42.688 42.688S748.844 576 725.312 576z" fill="#E6E9ED" /><path d="M853.344 362.656H170.656c-51.812 38.938-85.344 100.876-85.344 170.688 0 69.782 33.532 131.75 85.344 170.656H853.344c51.812-38.906 85.312-100.876 85.312-170.656 0-69.812-33.5-131.75-85.312-170.688z m-15.156 298.688H185.782c-16.062-14.218-29.5-31.468-39.218-50.5C134.25 586.718 128 560.656 128 533.344s6.25-53.406 18.562-77.5c9.718-19.032 23.156-36.282 39.218-50.5h652.408c16.094 14.218 29.532 31.468 39.25 50.5 12.312 24.094 18.562 50.188 18.562 77.5s-6.25 53.376-18.562 77.5c-9.72 19.032-23.156 36.28-39.25 50.5z" fill="#8CC153" /><path d="M298.656 362.656h426.656V704H298.656z" fill="#E6E9ED" /><path d="M960 225.656v73c0 11.782 9.532 21.344 21.312 21.344s21.344-9.562 21.344-21.344v-73H960zM21.312 298.656c0 11.782 9.562 21.344 21.344 21.344S64 310.438 64 298.656v-73H21.312v73z" fill="#434A54" /><path d="M981.312 149.344H42.656C19.094 149.344 0 168.438 0 192v42.656h1024V192c0-23.562-19.124-42.656-42.688-42.656z" fill="#656D78" /><path d="M85.312 170.656c11.782 0 21.344-9.532 21.344-21.312H64a21.3 21.3 0 0 0 21.312 21.312zM170.656 170.656C182.438 170.656 192 161.124 192 149.344H149.312c0 11.78 9.564 21.312 21.344 21.312zM256 170.656a21.3 21.3 0 0 0 21.312-21.312h-42.656c0 11.78 9.562 21.312 21.344 21.312zM341.312 170.656c11.782 0 21.344-9.532 21.344-21.312H320a21.3 21.3 0 0 0 21.312 21.312zM426.656 170.656c11.782 0 21.344-9.532 21.344-21.312h-42.688c0 11.78 9.564 21.312 21.344 21.312zM512 170.656a21.3 21.3 0 0 0 21.312-21.312h-42.656c0 11.78 9.562 21.312 21.344 21.312zM597.312 170.656c11.782 0 21.344-9.532 21.344-21.312H576a21.3 21.3 0 0 0 21.312 21.312zM682.656 170.656c11.782 0 21.344-9.532 21.344-21.312h-42.688c0 11.78 9.564 21.312 21.344 21.312zM768 170.656a21.3 21.3 0 0 0 21.312-21.312h-42.656c0 11.78 9.562 21.312 21.344 21.312zM853.312 170.656c11.782 0 21.344-9.532 21.344-21.312H832a21.3 21.3 0 0 0 21.312 21.312zM938.656 170.656c11.782 0 21.344-9.532 21.344-21.312h-42.688c0 11.78 9.564 21.312 21.344 21.312z" fill="#434A54" /><path d="M405.312 512h213.344c11.782 0 21.344-9.562 21.344-21.344s-9.562-21.312-21.344-21.312H405.312c-11.782 0-21.312 9.532-21.312 21.312S393.532 512 405.312 512zM618.656 554.656H405.312c-11.782 0-21.312 9.562-21.312 21.344s9.532 21.344 21.312 21.344h213.344c11.782 0 21.344-9.562 21.344-21.344s-9.562-21.344-21.344-21.344z" fill="#A0D468" /><path d="M704 810.656H320c-11.782 0-21.344 9.562-21.344 21.344h426.656c0-11.782-9.53-21.344-21.312-21.344z" fill="#8CC153" /></svg>