<?xml version="1.0" standalone="no"?><!DOCTYPE svg PUBLIC "-//W3C//DTD SVG 1.1//EN" "http://www.w3.org/Graphics/SVG/1.1/DTD/svg11.dtd"><svg class="icon" width="128px" height="128.00px" viewBox="0 0 1024 1024" version="1.1" xmlns="http://www.w3.org/2000/svg"><path d="M256.002 1023.984c-11.782 0-21.328-9.562-21.328-21.344v-21.312c0-11.782 9.546-21.344 21.328-21.344 11.78 0 21.326 9.562 21.326 21.344v21.312c0 11.782-9.546 21.344-21.326 21.344zM767.986 1023.984c-11.782 0-21.312-9.562-21.312-21.344v-21.312c0-11.782 9.532-21.344 21.312-21.344 11.78 0 21.31 9.562 21.31 21.344v21.312c0 11.782-9.53 21.344-21.31 21.344z" fill="#434A54" /><path d="M810.67 954.64c0 23.468-19.216 42.688-42.684 42.688H256.002c-23.468 0-42.672-19.218-42.672-42.688V42.688c0-23.468 19.204-42.67 42.672-42.67h511.984c23.466 0 42.684 19.204 42.684 42.67V954.64z" fill="#AC92EB" /><path d="M213.33 554.656h597.34v127.996h-597.34z" fill="#967ADC" /><path d="M213.33 85.342l106.668 85.34h383.988l106.684-85.34zM810.67 554.656l-73.496-110.216-450.346-0.03-73.498 110.246z" fill="#E6E9ED" /><path d="M213.33 85.342v469.314l85.342-127.996 17.282-265.32zM810.67 85.342v469.314l-85.372-127.996-17.25-265.32z" fill="#CCD1D9" /><path d="M319.998 170.682h383.988v255.976H319.998z" fill="#5D9CEC" /><path d="M746.486 423.784L725.236 168.902c-0.906-11.046-10.156-19.56-21.25-19.56H319.998a21.348 21.348 0 0 0-21.264 19.56l-21.328 256.008a21.326 21.326 0 0 0 5.562 16.218 21.366 21.366 0 0 0 15.704 6.876H725.36c11.75 0 21.312-9.562 21.312-21.344 0.002-0.97-0.06-1.938-0.186-2.876z m-424.628-18.436l17.766-213.336h344.738l17.75 213.336H321.858z" fill="#4A89DC" /><path d="M498.776 405.348h-95.404l121.826-213.338h95.418z" fill="#FFFFFF" opacity=".1" /><path d="M740.424 603.59c8.312 8.312 8.312 21.812 0 30.156-8.376 8.344-21.876 8.344-30.188 0s-8.312-21.844 0-30.156c8.312-8.344 21.812-8.344 30.188 0zM292.422 603.59c8.328 8.312 8.328 21.812 0 30.156-8.344 8.344-21.844 8.344-30.172 0-8.326-8.344-8.326-21.844 0-30.156 8.328-8.344 21.828-8.344 30.172 0zM377.748 603.59c8.326 8.312 8.326 21.812 0 30.156-8.328 8.344-21.844 8.344-30.172 0s-8.328-21.844 0-30.156c8.328-8.344 21.844-8.344 30.172 0z" fill="#FFCE54" /><path d="M405.324 512c-11.782 0-21.328-9.562-21.328-21.344v-85.31c0-11.782 9.546-21.342 21.328-21.342s21.344 9.562 21.344 21.342v85.31c0 11.782-9.562 21.344-21.344 21.344z" fill="#656D78" /><path d="M405.324 320.006c-35.28 0-63.998 28.716-63.998 63.998 0 35.28 28.718 63.998 63.998 63.998 35.294 0 63.998-28.718 63.998-63.998s-28.702-63.998-63.998-63.998zM554.68 512h-42.688c-11.78 0-21.326-9.562-21.326-21.344s9.546-21.312 21.326-21.312h42.688c11.748 0 21.31 9.532 21.31 21.312S566.428 512 554.68 512zM661.3 512h-42.624c-11.812 0-21.376-9.562-21.376-21.344s9.562-21.312 21.376-21.312h42.624c11.812 0 21.374 9.532 21.374 21.312S673.114 512 661.3 512z" fill="#ED5564" /><path d="M661.3 639.996h-42.624c-11.812 0-21.376-9.562-21.376-21.344s9.562-21.312 21.376-21.312h42.624c11.812 0 21.374 9.532 21.374 21.312s-9.56 21.344-21.374 21.344z" fill="#434A54" /></svg>