<?xml version="1.0" standalone="no"?><!DOCTYPE svg PUBLIC "-//W3C//DTD SVG 1.1//EN" "http://www.w3.org/Graphics/SVG/1.1/DTD/svg11.dtd"><svg class="icon" width="128px" height="128.00px" viewBox="0 0 1024 1024" version="1.1" xmlns="http://www.w3.org/2000/svg"><path d="M1023.996 874.654c0 23.562-19.124 42.688-42.688 42.688H42.658c-23.562 0-42.656-19.124-42.656-42.688V192.002c0-23.562 19.092-42.656 42.656-42.656h938.65c23.562 0 42.688 19.094 42.688 42.656v682.652z" fill="#DA4453" /><path d="M1023.996 832.03c0 23.562-19.124 42.624-42.688 42.624H42.658c-23.562 0-42.656-19.062-42.656-42.624V149.346c0-23.562 19.092-42.688 42.656-42.688h938.65c23.562 0 42.688 19.124 42.688 42.688v682.684z" fill="#ED5564" /><path d="M127.986 320c-11.782 0-21.328 9.562-21.328 21.344v298.686c0 11.75 9.546 21.312 21.328 21.312s21.344-9.562 21.344-21.312V341.344c0-11.78-9.562-21.344-21.344-21.344z" fill="#DA4453" /><path d="M149.33 213.346c0 11.782-9.562 21.312-21.344 21.312s-21.328-9.532-21.328-21.312 9.546-21.344 21.328-21.344 21.344 9.562 21.344 21.344zM149.33 768.032c0 11.75-9.562 21.312-21.344 21.312s-21.328-9.562-21.328-21.312c0-11.812 9.546-21.376 21.328-21.376s21.344 9.562 21.344 21.376zM895.996 247.47h-42.688v406.374l-80.624 100.812v0.032a21.194 21.194 0 0 0-4.688 13.344c0 11.75 9.562 21.312 21.312 21.312 6.75 0 12.75-3.124 16.656-8h0.032l85.312-106.688a21.038 21.038 0 0 0 4.688-13.312V247.47z" fill="#E6E9ED" /><path d="M874.652 298.658c-23.532 0-42.656-19.124-42.656-42.656s19.124-42.656 42.656-42.656 42.656 19.124 42.656 42.656-19.124 42.656-42.656 42.656z" fill="#E6E9ED" /><path d="M874.652 192.002c-35.344 0-64 28.656-64 64s28.656 64 64 64 64-28.656 64-64-28.656-64-64-64z m0 85.344c-11.782 0-21.344-9.594-21.344-21.344s9.562-21.344 21.344-21.344 21.344 9.594 21.344 21.344-9.562 21.344-21.344 21.344z" fill="#CCD1D9" /><path d="M810.652 490.656c0 164.968-133.714 298.688-298.668 298.688-164.936 0-298.656-133.718-298.656-298.688 0-164.936 133.718-298.654 298.656-298.654 164.954 0 298.668 133.718 298.668 298.654z" fill="#434A54" /><path d="M533.328 298.658c0-11.782-9.546-21.312-21.344-21.312-117.812 0-213.328 95.5-213.328 213.31 0 11.782 9.546 21.344 21.328 21.344s21.344-9.562 21.344-21.344c0-45.562 17.75-88.438 49.984-120.656 32.234-32.25 75.094-50 120.672-50 11.798 0 21.344-9.56 21.344-21.342zM703.996 469.344c-11.808 0-21.34 9.532-21.34 21.312 0 45.594-17.75 88.468-49.968 120.688-32.25 32.25-75.124 50-120.704 50-11.782 0-21.328 9.562-21.328 21.312 0 11.812 9.546 21.376 21.328 21.376 117.828 0 213.324-95.532 213.324-213.376a21.3 21.3 0 0 0-21.312-21.312z" fill="#656D78" /><path d="M511.984 576.032c-47.046 0-85.328-38.312-85.328-85.376 0-47.032 38.282-85.312 85.328-85.312 47.078 0 85.328 38.282 85.328 85.312 0 47.062-38.25 85.376-85.328 85.376z" fill="#FFCE54" /><path d="M511.984 384c-58.906 0-106.656 47.75-106.656 106.656s47.75 106.688 106.656 106.688c58.922 0 106.672-47.782 106.672-106.688S570.906 384 511.984 384z m0 170.688c-35.282 0-64-28.718-64-64.032 0-35.282 28.718-64 64-64 35.296 0 64.016 28.718 64.016 64 0 35.312-28.718 64.032-64.016 64.032z" fill="#F6BB42" /><path d="M533.328 490.656c0 11.782-9.546 21.344-21.344 21.344-11.782 0-21.328-9.562-21.328-21.344s9.546-21.312 21.328-21.312c11.798 0 21.344 9.532 21.344 21.312zM149.33 469.344H106.658c-11.782 0-21.328 9.532-21.328 21.312S94.876 512 106.658 512h42.672c11.782 0 21.328-9.562 21.328-21.344s-9.546-21.312-21.328-21.312z" fill="#434A54" /></svg>