<?xml version="1.0" standalone="no"?><!DOCTYPE svg PUBLIC "-//W3C//DTD SVG 1.1//EN" "http://www.w3.org/Graphics/SVG/1.1/DTD/svg11.dtd"><svg class="icon" width="128px" height="128.00px" viewBox="0 0 1024 1024" version="1.1" xmlns="http://www.w3.org/2000/svg"><path d="M512 0C229.218 0 0 229.234 0 512c0 282.75 229.218 512 512 512 282.75 0 512-229.25 512-512C1024 229.234 794.75 0 512 0z m0 533.328c-11.782 0-21.344-9.546-21.344-21.328s9.562-21.328 21.344-21.328 21.312 9.546 21.312 21.328-9.53 21.328-21.312 21.328z" fill="#434A54" /><path d="M395.75 236.782c36.782-15.562 75.906-23.454 116.25-23.454 11.782 0 21.312-9.546 21.312-21.328S523.782 170.672 512 170.672c-188.532 0-341.344 152.812-341.344 341.328 0 11.782 9.562 21.328 21.344 21.328s21.312-9.546 21.312-21.328c0-40.344 7.906-79.454 23.468-116.234 15.032-35.562 36.594-67.516 64.032-94.954s59.376-48.984 94.938-64.03zM628.218 787.218c-36.782 15.562-75.876 23.468-116.218 23.468-11.782 0-21.344 9.532-21.344 21.312s9.562 21.312 21.344 21.312c188.5 0 341.312-152.812 341.312-341.312 0-11.782-9.532-21.328-21.312-21.328s-21.344 9.546-21.344 21.328c0 40.344-7.876 79.438-23.438 116.25-15.062 35.562-36.594 67.5-64.032 94.938s-59.404 49.002-94.968 64.032z" fill="#656D78" /><path d="M362.532 158.156C409.844 138.14 460.124 128 512 128c11.782 0 21.312-9.546 21.312-21.328S523.782 85.328 512 85.328C276.344 85.328 85.312 276.36 85.312 512c0 11.782 9.562 21.328 21.344 21.328S128 523.782 128 512c0-51.86 10.124-102.14 30.156-149.454 19.344-45.718 47.032-86.796 82.312-122.078s76.344-62.968 122.064-82.312z" fill="#656D78" /><path d="M512 298.672c11.782 0 21.312-9.562 21.312-21.344S523.782 256 512 256c-141.406 0-256 114.61-256 256 0 11.782 9.532 21.328 21.312 21.328s21.344-9.546 21.344-21.328c0-56.984 22.188-110.562 62.468-150.844 40.312-40.296 93.876-62.484 150.844-62.484H512zM490.656 746.688c0 11.75 9.562 21.312 21.344 21.312 141.376 0 256-114.624 256-256 0-11.782-9.562-21.328-21.344-21.328s-21.344 9.546-21.344 21.328c0 57-22.188 110.562-62.468 150.844S568.968 725.312 512 725.312c-11.782 0-21.344 9.564-21.344 21.376z" fill="#656D78" /><path d="M917.312 490.672c-11.782 0-21.312 9.546-21.312 21.328 0 51.876-10.156 102.124-30.156 149.438-19.344 45.75-47.032 86.812-82.312 122.094s-76.376 62.968-122.094 82.312C614.124 885.876 563.844 896 512 896c-11.782 0-21.344 9.562-21.344 21.312 0 11.812 9.562 21.376 21.344 21.376 235.624 0 426.656-191.062 426.656-426.688 0-11.782-9.562-21.328-21.344-21.328z" fill="#656D78" /><path d="M512 362.672c-82.344 0-149.344 66.984-149.344 149.328s67 149.312 149.344 149.312 149.312-66.968 149.312-149.312-66.968-149.328-149.312-149.328z m0 170.656c-11.782 0-21.344-9.546-21.344-21.328s9.562-21.328 21.344-21.328 21.312 9.546 21.312 21.328-9.53 21.328-21.312 21.328z" fill="#ED5564" /><path d="M512 341.328c-94.25 0-170.688 76.422-170.688 170.672s76.438 170.688 170.688 170.688 170.656-76.438 170.656-170.688-76.406-170.672-170.656-170.672zM512 640c-70.594 0-128-57.438-128-128 0-70.578 57.406-128 128-128 70.562 0 128 57.422 128 128 0 70.562-57.438 128-128 128z" fill="#DA4453" /></svg>