<?xml version="1.0" standalone="no"?><!DOCTYPE svg PUBLIC "-//W3C//DTD SVG 1.1//EN" "http://www.w3.org/Graphics/SVG/1.1/DTD/svg11.dtd"><svg class="icon" width="128px" height="128.00px" viewBox="0 0 1024 1024" version="1.1" xmlns="http://www.w3.org/2000/svg"><path d="M501.594 85.338h-21.342c-11.75 0-21.312-9.546-21.312-21.328 0-11.78 9.562-21.326 21.312-21.326h21.342c11.782 0 21.344 9.546 21.344 21.326 0 11.782-9.562 21.328-21.344 21.328zM501.594 170.68h-21.342c-11.75 0-21.312-9.562-21.312-21.344 0-11.78 9.562-21.326 21.312-21.326h21.342c11.782 0 21.344 9.546 21.344 21.326 0 11.782-9.562 21.344-21.344 21.344zM416.252 106.682H394.94c-11.812 0-21.342-9.562-21.342-21.344s9.53-21.328 21.342-21.328h21.312c11.812 0 21.344 9.546 21.344 21.328s-9.532 21.344-21.344 21.344zM416.252 192.008H394.94c-11.812 0-21.342-9.546-21.342-21.328s9.53-21.344 21.342-21.344h21.312c11.812 0 21.344 9.562 21.344 21.344s-9.532 21.328-21.344 21.328z" fill="#434A54" /><path d="M623.934 780.43c-4.624-10-9.624-18.81-14.5-27.31-13.624-23.688-25.376-44.216-25.718-86.966 2.812-7.344 16.844-29.532 31.124-49.156a21.226 21.226 0 0 0 2.844-19.686c-0.124-0.438-14.938-42.466-14.938-72.514 0-43.032-16.124-79.31-46.622-104.92-27.532-23.14-65.812-35.876-107.874-35.876-42 0-80.31 12.734-107.874 35.876-30.468 25.61-46.56 61.888-46.56 104.92 0 30.046-14.812 72.076-15 72.482a21.36 21.36 0 0 0 2.876 19.716c12.688 17.438 28.062 41.124 31.124 49.124-0.562 29.344-13.562 62.936-16.656 70.498-7.156 11.062-40.404 65.81-40.404 126.686 0 53.186 20.374 96.058 58.936 124.058 33.062 23.938 79.248 36.624 133.56 36.624 54.342 0 100.53-12.688 133.556-36.624 38.562-28 58.938-70.874 58.938-124.058 0-32-5.188-57.562-16.812-82.874z" fill="#965353" /><path d="M623.934 780.43c-4.624-10-9.624-18.81-14.5-27.31-13.624-23.688-25.376-44.216-25.718-86.966 2.812-7.344 16.844-29.532 31.124-49.156a21.226 21.226 0 0 0 2.844-19.686c-0.124-0.438-14.938-42.466-14.938-72.514 0-43.032-16.124-79.31-46.622-104.92-27.532-23.14-65.812-35.876-107.874-35.876-3.562 0-7.124 0.124-10.656 0.312 37.812 1.968 72.03 14.406 97.216 35.562 30.468 25.61 46.558 61.888 46.558 104.92 0.032 30.046 14.812 72.076 15 72.514 2.344 6.624 1.282 14-2.876 19.686-14.25 19.624-28.308 41.812-31.122 49.156 0.376 42.75 12.122 63.28 25.684 86.966 4.876 8.5 9.938 17.31 14.532 27.31 11.656 25.312 16.844 50.876 16.844 82.876 0 53.186-20.376 96.058-58.934 124.058-30.876 22.376-73.186 34.876-122.904 36.438 3.532 0.124 7.094 0.188 10.656 0.188 54.342 0 100.53-12.688 133.556-36.624 38.562-28 58.938-70.874 58.938-124.058 0.004-32.002-5.184-57.564-16.808-82.876z" fill="#FFFFFF" opacity=".1" /><path d="M512.188 616.808L490.938 20.59C490.5 9.106 481.062 0.012 469.594 0.012H426.94c-11.5 0-20.936 9.094-21.312 20.578l-21.344 597.312a21.332 21.332 0 0 0 5.968 15.594c4 4.124 9.562 6.5 15.344 6.5h85.342c11.812 0 21.342-9.562 21.342-21.312a18.408 18.408 0 0 0-0.092-1.876z" fill="#656D78" /><path d="M746.93 1023.988c-11.782 0-21.34-9.562-21.34-21.312V21.34c0-11.782 9.558-21.328 21.34-21.328s21.312 9.546 21.312 21.328v981.336c0 11.75-9.532 21.312-21.312 21.312z" fill="#FFD2A6" /><path d="M426.94 0.012v917.292c0 11.81 9.562 21.374 21.312 21.374 11.812 0 21.342-9.562 21.342-21.374V0.012H426.94z" fill="#AAB2BC" /><path d="M490.938 938.676h-85.342c-11.782 0-21.344-9.562-21.344-21.374 0-11.75 9.562-21.312 21.344-21.312h85.342c11.75 0 21.312 9.562 21.312 21.312 0 11.812-9.562 21.374-21.312 21.374zM469.594 810.68H426.94c-11.812 0-21.342-9.562-21.342-21.376 0-11.75 9.53-21.312 21.342-21.312h42.656c11.782 0 21.344 9.562 21.344 21.312-0.002 11.814-9.564 21.376-21.346 21.376z" fill="#434A54" /></svg>