<?xml version="1.0" standalone="no"?><!DOCTYPE svg PUBLIC "-//W3C//DTD SVG 1.1//EN" "http://www.w3.org/Graphics/SVG/1.1/DTD/svg11.dtd"><svg class="icon" width="128px" height="128.00px" viewBox="0 0 1024 1024" version="1.1" xmlns="http://www.w3.org/2000/svg"><path d="M864 204.312c-87.812 0-159.124 70.75-160 158.376h42.688c0.874-63.97 53.188-115.688 117.312-115.688s116.438 51.718 117.312 115.688h0.062c0 63.906-12.562 125.906-37.188 184.25-23.876 56.376-58 107.032-101.5 150.5-43.5 43.5-94.124 77.656-150.5 101.5-44.5 18.812-91.124 30.876-139.124 35.376-10.938 0.876-19.688 9.812-19.688 21 0 11.812 9.562 21.376 21.312 21.376C817.812 853.032 1024 631.938 1024 362.688c-0.938-87.626-72.188-158.376-160-158.376z" fill="#E9573F" /><path d="M768 917.312c-11.75 0-21.312-9.562-21.312-21.312V86l-0.062-0.032c0.062-0.218 0.062-0.406 0.062-0.656 0-11.75-9.562-21.312-21.312-21.312-138.562 0-258.938 77.688-320 191.876V86c0-11.782-9.562-22-21.376-22-138.5 0-258.938 77.688-320 191.876V128c0-23.688-12.876-44.282-32-55.344a20.8 20.8 0 0 0-10.624-2.876C9.562 69.782 0 79.312 0 91.124c0 7.906 4.376 14.812 10.75 18.5 6.312 3.688 10.624 10.532 10.624 18.376v704c0 11.782 9.562 21.312 21.312 21.312A21.28 21.28 0 0 0 64 832V426.688c0-43.25 8.5-85.124 25.124-124.562 16.124-38.124 39.25-72.312 68.624-101.75C187.124 171 221.376 147.906 259.5 131.812c32.876-13.938 67.5-22.124 103.188-24.438V832c0 11.782 9.562 21.312 21.312 21.312 11.812 0 21.376-9.532 21.376-21.312V426.688c0-43.25 8.438-85.124 25.124-124.562 16.124-38.124 39.188-72.312 68.562-101.75 29.438-29.376 63.624-52.468 101.75-68.562 32.876-13.938 67.5-22.124 103.188-24.438V896c0 35.344 28.688 64 64 64 11.812 0 21.376-9.562 21.376-21.312A21.368 21.368 0 0 0 768 917.312zM405.312 85.968V86v-0.032z" fill="#FC6E51" /></svg>