<?xml version="1.0" standalone="no"?><!DOCTYPE svg PUBLIC "-//W3C//DTD SVG 1.1//EN" "http://www.w3.org/Graphics/SVG/1.1/DTD/svg11.dtd"><svg class="icon" width="128px" height="128.00px" viewBox="0 0 1024 1024" version="1.1" xmlns="http://www.w3.org/2000/svg"><path d="M981.298 575.988h-85.31c-11.78 0-21.342-9.56-21.342-21.31 0-11.796 9.562-21.36 21.342-21.36h85.31c11.782 0 21.344 9.562 21.344 21.36 0 11.75-9.562 21.31-21.344 21.31zM938.642 789.294H885.52c-11.782 0-21.344-9.498-21.344-21.31s9.562-21.312 21.344-21.312h53.122c11.782 0 21.344 9.5 21.344 21.312s-9.562 21.31-21.344 21.31zM128.014 575.988h-85.34c-11.782 0-21.312-9.56-21.312-21.31 0-11.796 9.532-21.36 21.312-21.36h85.34c11.78 0 21.342 9.562 21.342 21.36 0 11.75-9.562 21.31-21.342 21.31zM138.482 789.294H85.358c-11.78 0-21.342-9.498-21.342-21.31s9.562-21.312 21.342-21.312h53.124c11.782 0 21.344 9.5 21.344 21.312s-9.564 21.31-21.344 21.31z" fill="#AAB2BC" /><path d="M789.336 703.984v127.996c0 23.562 19.092 42.688 42.654 42.688s42.656-19.124 42.656-42.688v-127.996h-85.31zM149.356 703.984v127.996c0 23.562 19.092 42.688 42.656 42.688 23.562 0 42.654-19.124 42.654-42.688v-127.996H149.356z" fill="#AAB2BC" /><path d="M575.998 128.02h-127.996c-11.78 0-21.342 9.532-21.342 21.312v213.336c0 11.782 9.562 21.344 21.342 21.344h127.996c11.782 0 21.344-9.562 21.344-21.344V149.332c0-11.782-9.562-21.312-21.344-21.312z" fill="#5D9CEC" /><path d="M512 895.98c-124.902 0-202.744-66.376-205.994-69.25-6.718-5.812-9.094-15.188-5.968-23.56a21.334 21.334 0 0 1 19.968-13.876h383.988c8.906 0 16.876 5.562 19.968 13.876 3.124 8.374 0.75 17.748-5.968 23.56-3.25 2.876-81.09 69.25-205.994 69.25zM938.674 831.98c-1.312 0-2.624-0.124-3.968-0.376-11.56-2.188-19.186-13.312-17.03-24.874l63.998-341.348c2.188-11.562 13.312-19.218 24.906-17.03 11.56 2.188 19.216 13.312 17.03 24.904l-63.998 341.348c-1.906 10.252-10.876 17.376-20.938 17.376zM85.328 831.98c-10.062 0-19.03-7.124-20.936-17.376l-64-341.346c-2.188-11.592 5.438-22.716 17.03-24.904 11.594-2.188 22.718 5.468 24.906 17.03l63.998 341.348c2.156 11.56-5.468 22.686-17.062 24.874-1.312 0.25-2.624 0.374-3.936 0.374zM867.458 422.104l-85.342-75.434a21.406 21.406 0 0 0-14.124-5.344H256.01c-5.218 0-10.218 1.906-14.124 5.344l-85.34 75.434c-6.624 5.876-8.968 15.25-5.812 23.532a21.342 21.342 0 0 0 19.936 13.78h682.634c8.876 0 16.812-5.5 19.968-13.78a21.384 21.384 0 0 0-5.814-23.532z" fill="#434A54" /><path d="M527.096 292.42a21.332 21.332 0 0 1-30.188 0c-8.312-8.342-8.312-21.842 0-30.154a21.332 21.332 0 0 1 30.188 0c8.31 8.312 8.31 21.812 0 30.154zM527.096 228.422a21.332 21.332 0 0 1-30.188 0c-8.312-8.342-8.312-21.842 0-30.154a21.332 21.332 0 0 1 30.188 0c8.31 8.312 8.31 21.812 0 30.154z" fill="#4A89DC" /><path d="M810.646 405.324H213.354c-58.81 0-106.684 47.842-106.684 106.654v213.32c0 58.81 47.874 106.684 106.684 106.684h597.292c58.812 0 106.654-47.874 106.654-106.684v-213.32c0-58.812-47.842-106.654-106.654-106.654z" fill="#656D78" /><path d="M596.81 511.976H426.16c-11.782 0-21.342-9.532-21.342-21.312s9.562-21.344 21.342-21.344h170.65c11.782 0 21.344 9.562 21.344 21.344s-9.562 21.312-21.344 21.312z" fill="#434A54" /></svg>