<?xml version="1.0" standalone="no"?><!DOCTYPE svg PUBLIC "-//W3C//DTD SVG 1.1//EN" "http://www.w3.org/Graphics/SVG/1.1/DTD/svg11.dtd"><svg class="icon" width="128px" height="128.00px" viewBox="0 0 1024 1024" version="1.1" xmlns="http://www.w3.org/2000/svg"><path d="M782.375472 722.12259l-60.343882 60.343882-211.187588-211.217588 60.343882-60.343882z" fill="#CCD1D9" /><path d="M706.967619 797.530442l207.717595 207.717595c24.999951 24.999951 65.499872 24.999951 90.499823 0s24.999951-65.499872 0-90.499824L797.467442 707.030619l-90.499823 90.499823z" fill="#434A54" /><path d="M405.344208 789.248458c-102.5618 0-198.967611-39.937922-271.499469-112.46778-72.499858-72.499858-112.43778-168.93767-112.437781-271.49947s39.937922-198.967611 112.437781-271.499469c72.531858-72.499858 168.93767-112.43778 271.499469-112.437781 102.5618 0 198.999611 39.937922 271.49947 112.437781 72.531858 72.531858 112.46778 168.93767 112.46778 271.499469s-39.937922 198.999611-112.46778 271.49947c-72.499858 72.529858-168.93767 112.46778-271.49947 112.46778z" fill="#AC92EB" /><path d="M405.344208 0C181.532645 0 0.063 181.437646 0.063 405.281208s181.467646 405.311208 405.281208 405.311209c223.843563 0 405.311208-181.467646 405.311209-405.311209C810.655417 181.467646 629.187771 0 405.344208 0z m256.437499 661.716708c-33.311935 33.311935-72.123859 59.467884-115.281774 77.717848-44.687913 18.905963-92.15582 28.467944-141.155725 28.467944-48.967904 0-96.437812-9.561981-141.123724-28.467944-43.187916-18.249964-81.96784-44.405913-115.281775-77.717848s-59.467884-72.123859-77.717848-115.281775c-18.905963-44.687913-28.499944-92.18782-28.499944-141.155725s9.593981-96.437812 28.499944-141.123724c18.249964-43.187916 44.405913-81.96784 77.717848-115.281775s72.093859-59.467884 115.281775-77.717848c44.687913-18.905963 92.15582-28.499944 141.123724-28.499944 48.999904 0 96.467812 9.593981 141.155725 28.499944 43.155916 18.249964 81.96784 44.405913 115.281774 77.717848s59.467884 72.093859 77.717849 115.281775c18.905963 44.687913 28.467944 92.15582 28.467944 141.123724 0 48.999904-9.561981 96.467812-28.467944 141.155725-18.249964 43.157916-44.405913 81.96984-77.717849 115.281775z" fill="#E6E9ED" /><path d="M640.03175 426.655167H170.686667c-11.781977 0-21.343958 9.561981-21.343959 21.343958s9.561981 21.343958 21.343959 21.343958h469.343083c11.781977 0 21.311958-9.561981 21.311958-21.343958s-9.529981-21.343958-21.309958-21.343958zM280.376452 160.281687l64.375875 107.56179 36.623928-21.905957L317.000381 138.37573h-0.032c-3.717993-6.187988-10.499979-10.37598-18.281964-10.37598-11.781977 0-21.343958 9.561981-21.343959 21.343958 0 3.999992 1.123998 7.717985 3.061994 10.937979h-0.028zM530.531964 160.281687h-0.032a21.371958 21.371958 0 0 0 3.031994-10.937979C533.531958 137.561731 523.999977 127.99975 512.218 127.99975a21.251958 21.251958 0 0 0-18.281965 10.37598h-0.032l-64.375874 107.56179 36.593929 21.905957 64.409874-107.56179zM170.876666 301.781411c0.375999 2.623995 10.24998 64.717874 74.623855 88.875826l14.96797-39.967922c-40.343921-15.12397-47.155908-53.687895-47.405907-55.311892l0.032 0.188h-0.032c-1.531997-10.31198-10.37598-18.217964-21.093959-18.217965a21.299958 21.299958 0 0 0-21.311958 21.311959c0 1.061998 0.094 2.093996 0.249999 3.123994h-0.03zM639.78175 301.781411c0.124-1.031998 0.25-2.061996 0.25-3.123994 0-11.781977-9.561981-21.311958-21.343958-21.311959-10.717979 0-19.561962 7.905985-21.093959 18.217965-0.062 0.375999-6.311988 39.717922-47.405908 55.123892l14.967971 39.967922c64.375874-24.155953 74.249855-86.249832 74.625854-88.873826zM618.467792 615.560798c-0.405999-2.655995-10.24998-64.717874-74.623854-88.875827l-14.999971 39.937922c40.375921 15.15597 47.155908 53.687895 47.437907 55.343892l-0.031999-0.187999h0.031999c1.499997 10.31198 10.34398 18.217964 21.061959 18.217964 11.781977 0 21.343958-9.561981 21.343959-21.343958 0-1.061998-0.094-2.093996-0.25-3.093994h0.03zM192.250625 615.560798h0.031999c-0.156 0.999998-0.25 2.061996-0.249999 3.093994 0 11.781977 9.531981 21.343958 21.311958 21.343958 10.717979 0 19.593962-7.905985 21.093959-18.217964h0.032c0.062-0.405999 6.311988-39.717922 47.375908-55.123893l-14.967971-39.967922c-64.377874 24.153953-74.253855 86.247832-74.627854 88.871827z" fill="#434A54" /><path d="M575.905875 405.343208c0 129.593747-48.749905 234.655542-170.561667 234.655542s-170.531667-105.061795-170.531667-234.655542 63.405876-191.999625 170.531667-191.999625c107.155791 0 170.561667 62.405878 170.561667 191.999625z" fill="#A0D468" /><path d="M564.093898 319.999375h-317.49938c-4.155992 12.999975-7.249986 27.217947-9.217982 42.655917h146.655714v276.18746c6.843987 0.781998 13.937973 1.155998 21.311958 1.155998s14.499972-0.375999 21.343959-1.155998V362.655292h146.623713c-1.967996-15.43797-5.02999-29.655942-9.217982-42.655917z" fill="#8CC153" /></svg>