<?xml version="1.0" standalone="no"?><!DOCTYPE svg PUBLIC "-//W3C//DTD SVG 1.1//EN" "http://www.w3.org/Graphics/SVG/1.1/DTD/svg11.dtd"><svg class="icon" width="128px" height="128.00px" viewBox="0 0 1024 1024" version="1.1" xmlns="http://www.w3.org/2000/svg"><path d="M873.326 874.792c160.618-159.774 200.616-413.26 81.964-618.718-70.496-122.166-183.768-204.24-310.014-238.284-11.124 2.796-382.824 99.588-133.274 494.24 472.664-19.048 361.762 361.262 361.324 362.762z" fill="#F6BB42" /><path d="M433.444 227.7l-4.532 2.266c-11.03 70.512 7.578 162.648 83.088 282.064 472.666-19.046 361.762 361.262 361.326 362.762 60.716-60.402 104.184-134.21 128.37-213.708 1.374-18.968 24.842-433.384-568.252-433.384z" fill="#4A89DC" /><path d="M17.168 643.552C75.228 862.51 274.748 1023.94 512 1023.94c141.056 0 268.8-57.058 361.388-149.368 3.124-11.062 105.152-381.34-361.388-362.542C292.154 930.88 18.246 644.678 17.168 643.552z" fill="#5D9CEC" /><path d="M873.326 874.792c160.618-159.774 200.616-413.26 81.964-618.718-70.496-122.166-183.768-204.24-310.014-238.284-11.124 2.796-382.824 99.588-133.274 494.24 472.664-19.048 361.762 361.262 361.324 362.762z" fill="#F6BB42" /><path d="M433.444 227.7l-4.532 2.266c-11.03 70.512 7.578 162.648 83.088 282.064 472.666-19.046 361.762 361.262 361.326 362.762 60.716-60.402 104.184-134.21 128.37-213.708 1.374-18.968 24.842-433.384-568.252-433.384z" fill="#4A89DC" /><path d="M17.168 643.552C75.228 862.51 274.748 1023.94 512 1023.94c141.056 0 268.8-57.058 361.388-149.368 3.124-11.062 105.152-381.34-361.388-362.542C292.154 930.88 18.246 644.678 17.168 643.552z" fill="#5D9CEC" /><path d="M797.518 586.182l0.282-5.062c-55.528-44.842-144.648-74.778-285.798-69.09C292.154 930.88 18.246 644.678 17.168 643.552c21.952 82.778 64.122 157.304 120.9 218.02 15.718 10.688 362.888 238.208 659.45-275.39z" fill="#F6BB42" /><path d="M645.526 17.742C426.834-41.49 187.316 50.63 68.696 256.074-1.846 378.238-16.298 517.388 17.34 643.74c7.984 8.218 277.658 281.704 494.662-131.71C259.17 112.206 643.994 18.102 645.526 17.742z" fill="#FFCE54" /><path d="M305.028 722.206l4.234 2.782c66.606-25.716 137.072-87.872 202.74-212.958C259.17 112.206 643.994 18.102 645.526 17.742c-82.65-22.39-168.32-23.14-249.284-4.328-17.108 8.282-387.744 195.162-91.214 708.792z" fill="#5D9CEC" /></svg>