<?xml version="1.0" standalone="no"?><!DOCTYPE svg PUBLIC "-//W3C//DTD SVG 1.1//EN" "http://www.w3.org/Graphics/SVG/1.1/DTD/svg11.dtd"><svg class="icon" width="128px" height="128.00px" viewBox="0 0 1024 1024" version="1.1" xmlns="http://www.w3.org/2000/svg"><path d="M877.674 810.492l-155.28-18.624 5.094-42.374 155.28 18.624z" fill="#E6E9ED" /><path d="M930.548 749.776c-12.218-15.562-30.594-24.468-50.376-24.468-14.25 0-28.28 4.876-39.498 13.688-13.438 10.562-21.968 25.716-24 42.686s2.656 33.718 13.218 47.158c12.218 15.56 30.56 24.466 50.342 24.466a64.22 64.22 0 0 0 39.532-13.688c13.438-10.56 21.938-25.718 24-42.688 2.032-16.97-2.654-33.72-13.218-47.154z" fill="#A0D468" /><path d="M217.032 602.34L128.676 514l30.17-30.156 88.358 88.342z" fill="#E6E9ED" /><path d="M943.392 604.872c-5.906-32.374-48.25-50.216-119.248-50.216-28.876 0-61.188 3.094-93.406 9-49.53 9.032-95.214 23.812-128.684 41.592-19.968 10.624-33.282 21.124-41.906 31.062-8.656-9.938-21.952-20.438-41.92-31.062-33.468-17.78-79.17-32.56-128.684-41.592-32.234-5.906-64.532-9-93.406-9-70.982 0-113.34 17.844-119.248 50.216-3.234 17.688 3.812 44.532 55.67 72.124 33.468 17.78 79.17 32.56 128.684 41.592 23.718 4.344 47.468 7.156 69.874 8.344-16.282 21.468-31.016 45.592-43.03 69.624-22.704 45.468-37.062 92.094-40.438 131.216-2.282 26.562-0.984 73.654 33.344 90.78 7.188 3.594 15.11 5.438 23.546 5.438h0.016c53.53 0 113.732-72.56 149.652-144.464a581.852 581.852 0 0 0 6-12.562c1.968 4.188 3.938 8.376 6.032 12.562 35.906 71.904 96.124 144.464 149.652 144.464 8.438 0 16.376-1.844 23.562-5.438 34.312-17.124 35.624-64.216 33.344-90.78-3.376-39.124-17.75-85.748-40.438-131.216-12.032-24.032-26.75-48.154-43.03-69.624 22.342-1.188 46.03-4 69.686-8.344 49.532-9.032 95.248-23.812 128.716-41.592 51.848-27.594 58.88-54.438 55.66-72.124z" fill="#EAAD7A" /><path d="M717.05 408.626c-41.374-58.374-97.058-90.53-156.84-90.53-59.762 0-115.45 32.156-156.808 90.53-39.764 56.124-61.67 130.374-61.67 209.088 0 78.686 21.906 152.964 61.67 209.092 41.358 58.374 97.044 90.496 156.808 90.496 59.782 0 115.466-32.124 156.84-90.496 39.75-56.126 61.656-130.406 61.656-209.092 0.002-78.714-21.906-152.962-61.656-209.088z" fill="#F4BE8E" /><path d="M538.9 915.928a166.82 166.82 0 0 0 21.31 1.376c7.188 0 14.312-0.468 21.344-1.376v-254.62H538.9v254.62z" fill="#EAAD7A" /><path d="M801.582 99.978C737.114 35.51 651.398 0.012 560.21 0.012c-91.152 0-176.87 35.498-241.336 99.966-64.468 64.466-99.966 150.184-99.966 241.338 0 91.186 35.5 176.902 99.966 241.37s150.184 99.966 241.336 99.966c91.188 0 176.902-35.5 241.372-99.966 64.466-64.466 99.966-150.184 99.966-241.37 0-91.154-35.5-176.87-99.966-241.338z" fill="#FFD2A6" /><path d="M432.232 170.664c-28.484 0-55.28 11.094-75.42 31.25-20.14 20.124-31.25 46.904-31.25 75.404 0 28.498 11.11 55.28 31.25 75.436 20.14 20.124 46.936 31.25 75.42 31.25 28.5 0 55.28-11.126 75.42-31.25 20.156-20.156 31.25-46.938 31.25-75.436 0-28.5-11.094-55.282-31.25-75.404-20.142-20.156-46.922-31.25-75.42-31.25z" fill="#4A89DC" /><path d="M432.232 405.314c-34.186 0-66.328-13.312-90.514-37.498-24.17-24.156-37.484-56.312-37.484-90.498 0-34.188 13.312-66.342 37.5-90.498 24.172-24.188 56.312-37.5 90.5-37.5s66.326 13.312 90.512 37.5c24.156 24.188 37.466 56.31 37.466 90.498 0 34.186-13.31 66.342-37.466 90.498-24.172 24.186-56.328 37.498-90.514 37.498z m0-213.306c-22.796 0-44.218 8.876-60.342 24.968-16.11 16.124-24.984 37.56-24.984 60.342 0 22.81 8.876 44.216 24.984 60.342 16.124 16.124 37.546 25 60.342 25s44.216-8.876 60.342-25c16.11-16.124 24.984-37.532 24.984-60.342 0-22.782-8.874-44.218-24.984-60.342-16.126-16.094-37.546-24.968-60.342-24.968z" fill="#5D9CEC" /><path d="M763.644 201.914c-20.156-20.156-46.938-31.25-75.436-31.25-28.466 0-55.28 11.094-75.404 31.25-20.156 20.124-31.25 46.904-31.25 75.404 0 28.498 11.094 55.28 31.25 75.436 20.124 20.124 46.938 31.25 75.404 31.25 28.498 0 55.28-11.126 75.436-31.25 41.594-41.594 41.594-109.28 0-150.84z" fill="#4A89DC" /><path d="M688.208 405.314c-34.186 0-66.31-13.312-90.498-37.498-24.188-24.156-37.5-56.312-37.5-90.498 0-34.188 13.312-66.31 37.5-90.498s56.312-37.5 90.498-37.5 66.342 13.312 90.53 37.5c49.906 49.904 49.906 131.09 0 180.996-24.188 24.186-56.344 37.498-90.53 37.498z m0-213.306c-22.782 0-44.216 8.876-60.342 24.968-16.094 16.124-24.968 37.56-24.968 60.342 0 22.81 8.876 44.216 24.968 60.342 16.124 16.124 37.56 25 60.342 25 22.81 0 44.216-8.876 60.342-25 33.282-33.282 33.282-87.404 0-120.684-16.124-16.094-37.53-24.968-60.342-24.968z" fill="#5D9CEC" /><path d="M448.058 291.662c-8.328-8.312-8.328-21.844 0-30.156 8.328-8.344 21.844-8.344 30.17 0 8.328 8.312 8.328 21.844 0 30.156-8.326 8.342-21.842 8.342-30.17 0z" fill="#434A54" /><path d="M417.888 321.848c-8.328-8.344-8.328-21.844 0-30.186 8.328-8.312 21.842-8.312 30.17 0 8.328 8.342 8.328 21.842 0 30.186-8.328 8.312-21.842 8.312-30.17 0zM417.888 261.506c-8.328-8.344-8.328-21.844 0-30.188 8.328-8.312 21.842-8.312 30.17 0 8.328 8.344 8.328 21.844 0 30.188-8.328 8.312-21.842 8.312-30.17 0z" fill="#434A54" /><path d="M387.716 291.662c-8.328-8.312-8.328-21.844 0-30.156 8.328-8.344 21.842-8.344 30.17 0 8.328 8.312 8.328 21.844 0 30.156-8.326 8.342-21.842 8.342-30.17 0zM702.55 261.506c-8.31 8.312-21.842 8.312-30.154 0a21.332 21.332 0 0 1 0-30.188c8.312-8.312 21.844-8.312 30.154 0a21.332 21.332 0 0 1 0 30.188z" fill="#434A54" /><path d="M732.738 291.662a21.336 21.336 0 0 1-30.188 0c-8.31-8.312-8.31-21.844 0-30.156a21.332 21.332 0 0 1 30.188 0c8.312 8.312 8.312 21.844 0 30.156zM672.396 291.662a21.334 21.334 0 0 1-30.186 0c-8.312-8.312-8.312-21.844 0-30.156a21.33 21.33 0 0 1 30.186 0c8.312 8.312 8.312 21.844 0 30.156z" fill="#434A54" /><path d="M702.55 321.848c-8.31 8.312-21.842 8.312-30.154 0a21.33 21.33 0 0 1 0-30.186c8.312-8.312 21.844-8.312 30.154 0a21.33 21.33 0 0 1 0 30.186z" fill="#434A54" /><path d="M723.676 475.376c-8.438-8.218-21.938-8.062-30.154 0.406-0.344 0.342-37.904 36.218-132.03 36.218-86.684 0-127.87-30.812-134.292-36.062a21.256 21.256 0 0 0-15.406-6.624c-11.782 0-21.328 9.562-21.328 21.344 0 5.968 2.454 11.376 6.422 15.25l-0.078 0.062c2.046 2 51.576 48.686 164.682 48.686 113.466 0 160.652-47.124 162.59-49.124 8.218-8.438 8.062-21.938-0.406-30.156z" fill="#EAAD7A" /><path d="M581.554 853.304H538.9c-11.782 0-21.344-9.562-21.344-21.31a21.332 21.332 0 0 1 21.344-21.346h42.654a21.332 21.332 0 0 1 21.344 21.346c0 11.748-9.562 21.31-21.344 21.31zM581.554 767.992H538.9c-11.782 0-21.344-9.56-21.344-21.342s9.562-21.344 21.344-21.344h42.654c11.782 0 21.344 9.562 21.344 21.344s-9.562 21.342-21.344 21.342zM676.178 555.092a21.338 21.338 0 0 1-19.374-12.342l-17.344-37.344c-4.938-10.688-0.312-23.376 10.376-28.312 10.688-4.968 23.374-0.344 28.342 10.344l17.312 37.344c4.968 10.688 0.344 23.374-10.344 28.342a21.356 21.356 0 0 1-8.968 1.968zM560.21 575.092c-11.78 0-21.31-9.562-21.31-21.344V512c0-11.812 9.532-21.344 21.31-21.344 11.782 0 21.344 9.532 21.344 21.344v41.748c0 11.782-9.562 21.344-21.344 21.344zM466.824 561.78c-2.734 0-5.516-0.532-8.188-1.656-10.89-4.532-16.032-17.032-11.5-27.904l15.562-37.344c4.532-10.876 17.014-16 27.89-11.468s16.032 17.032 11.5 27.906l-15.562 37.31a21.364 21.364 0 0 1-19.702 13.156z" fill="#434A54" /><path d="M143.768 434.908c-35.296 0-64 28.718-64 63.998 0 35.312 28.704 63.998 64 63.998 35.28 0 64-28.686 64-63.998 0-35.28-28.72-63.998-64-63.998z" fill="#AC92EB" /></svg>