<?xml version="1.0" standalone="no"?><!DOCTYPE svg PUBLIC "-//W3C//DTD SVG 1.1//EN" "http://www.w3.org/Graphics/SVG/1.1/DTD/svg11.dtd"><svg class="icon" width="128px" height="128.00px" viewBox="0 0 1024 1024" version="1.1" xmlns="http://www.w3.org/2000/svg"><path d="M511.986 1002.674c-63.732 0-125.856-12.094-184.634-35.938-60.858-24.654-115.466-60.936-162.308-107.778-46.842-46.842-83.108-101.436-107.778-162.308-23.842-58.78-35.92-120.902-35.92-184.65 0-63.716 12.078-125.84 35.92-184.65 24.67-60.842 60.936-115.434 107.778-162.276 46.842-46.842 101.45-83.124 162.308-107.78 58.78-23.842 120.902-35.936 184.634-35.936 63.764 0 125.886 12.094 184.666 35.936 60.842 24.656 115.436 60.936 162.276 107.78 46.844 46.842 83.124 101.434 107.81 162.276 23.81 58.81 35.904 120.934 35.904 184.65 0 63.748-12.094 125.872-35.904 184.65-24.686 60.874-60.966 115.466-107.81 162.308-46.84 46.842-101.434 83.092-162.276 107.778-58.778 23.844-120.902 35.938-184.666 35.938z" fill="#FFCE54" /><path d="M874.022 149.98C774.056 50.014 643.03 0.016 511.986 0.016c-131.028 0-262.054 50-362.02 149.964-199.946 199.932-199.946 524.11 0 724.072 99.966 99.964 230.994 149.932 362.02 149.932 131.042 0 262.07-49.966 362.036-149.932 199.962-199.962 199.962-524.14 0-724.072zM391.318 753.368l90.498 90.498-90.498 90.498-90.512-90.498 90.512-90.498z m30.172-30.186l90.498-90.498 90.512 90.498-90.512 90.53-90.498-90.53z m211.196 30.186l90.496 90.498-90.496 90.498-90.528-90.498 90.528-90.498z m-120.7-181.026l-300.32 300.336a488.042 488.042 0 0 1-16.092-14.062l316.412-316.428 316.444 316.428a525.738 525.738 0 0 1-16.092 14.062L511.986 572.342zM151.326 812.336L451.644 512 151.326 211.698a471.402 471.402 0 0 1 14.078-16.124L481.832 512 165.404 828.428a445.072 445.072 0 0 1-14.078-16.092z m119.308-420.988l-90.498 90.498-90.512-90.498 90.512-90.528 90.498 90.528z m30.172 211.182L210.292 512l90.514-90.496L391.318 512l-90.512 90.53zM49.578 431.378l9.876-9.874L149.966 512l-90.512 90.53-9.876-9.876A472.824 472.824 0 0 1 42.672 512c0-27.216 2.328-54.154 6.906-80.622z m130.558 110.81l90.498 90.496-90.498 90.498-90.512-90.498 90.512-90.496z m452.55-271.524l-90.528-90.528 90.528-90.498 90.496 90.498-90.496 90.528z m-30.188 30.156l-90.512 90.528-90.498-90.528 90.498-90.498 90.512 90.498z m-211.18-30.156l-90.512-90.528 90.512-90.498 90.512 90.498-90.512 90.528z m120.668 181.026L812.338 151.356a525.738 525.738 0 0 1 16.092 14.062L511.986 481.846 195.574 165.418c5.266-4.812 10.64-9.5 16.092-14.062l300.32 300.334zM542.158 512L858.584 195.572a425.182 425.182 0 0 1 14.062 16.124L572.344 512l300.302 300.336a403.792 403.792 0 0 1-14.062 16.092L542.158 512z m90.528 0l90.496-90.496L813.682 512l-90.5 90.53L632.686 512z m120.652-120.652l90.53-90.528 90.498 90.528-90.498 90.498-90.53-90.498z m0 241.336l90.53-90.496 90.498 90.496-90.498 90.53-90.53-90.53z m221.088-40.03l-9.906 9.876L874.022 512l90.498-90.496 9.906 9.874A474.58 474.58 0 0 1 981.33 512c0 27.25-2.344 54.186-6.904 80.654z m-22.312-243.898l-78.092-78.092 24.718-24.718a465.092 465.092 0 0 1 48.216 89.434 533.754 533.754 0 0 1 5.158 13.376zM778.056 125.292L753.338 149.98 675.28 71.888c4.468 1.656 8.906 3.376 13.342 5.156a465.554 465.554 0 0 1 89.434 48.248z m-185.432-75.684l9.876 9.874-90.514 90.498-90.498-90.498 9.876-9.874a470.974 470.974 0 0 1 80.622-6.906 471.02 471.02 0 0 1 80.638 6.906z m-243.898 22.28L270.634 149.98l-24.688-24.688a464.8 464.8 0 0 1 89.42-48.248c4.438-1.78 8.89-3.5 13.36-5.156zM125.264 245.946l24.702 24.718-78.09 78.06c1.656-4.468 3.36-8.906 5.156-13.344a465.268 465.268 0 0 1 48.232-89.434zM71.876 675.278l78.09 78.09-24.702 24.688a464.02 464.02 0 0 1-48.232-89.404 480.38 480.38 0 0 1-5.156-13.374z m174.056 223.46l24.704-24.686 78.09 78.09a702.014 702.014 0 0 1-13.358-5.156 465.234 465.234 0 0 1-89.436-48.248z m185.432 75.686l-9.876-9.876 90.498-90.496 90.512 90.496-9.876 9.876a471.12 471.12 0 0 1-80.636 6.906 470.974 470.974 0 0 1-80.622-6.906z m243.884-22.282l78.09-78.09 24.718 24.686a465.352 465.352 0 0 1-89.436 48.248c-4.434 1.782-8.904 3.5-13.372 5.156z m223.492-174.088l-24.718-24.688 78.092-78.09a541.426 541.426 0 0 1-5.156 13.374 465.656 465.656 0 0 1-48.218 89.404z" fill="#F6BB42" /></svg>