<?xml version="1.0" standalone="no"?><!DOCTYPE svg PUBLIC "-//W3C//DTD SVG 1.1//EN" "http://www.w3.org/Graphics/SVG/1.1/DTD/svg11.dtd"><svg class="icon" width="128px" height="128.00px" viewBox="0 0 1024 1024" version="1.1" xmlns="http://www.w3.org/2000/svg"><path d="M679.582098 12.555928L12.557928 679.578098c-24.999856 24.997856-11.499934 79.027546 30.185827 120.683307 41.623761 41.653761 95.683451 55.153683 120.651307 30.153827L830.419232 163.395062l-150.837134-150.839134z" fill="#965353" /><path d="M138.991202 842.227164c9.591945-1.499991 17.967897-5.343969 24.40586-11.811932l103.589405-103.557406V425.133559l-127.995265 128.009265v289.08434zM394.981732 598.862561l127.995265-128.011265V169.143029l-127.995265 127.995265zM649.426271 42.709755V344.418022l127.995265-127.995265V110.395366l-97.839438-97.839438z" fill="#FFD2A6" /><path d="M830.419232 163.395062c-24.997856 24.997856-78.997546 11.499934-120.651308-30.155827-41.653761-41.653761-55.185683-95.683451-30.185826-120.683307 24.997856-24.999856 79.027546-11.467934 120.683307 30.155827 41.653761 41.653761 55.151683 95.683451 30.153827 120.683307z" fill="#F4BE8E" /><path d="M739.921751 72.897581c-8.343952 8.311952-8.343952 21.843875 0 30.155827 8.343952 8.341952 21.843875 8.341952 30.155827 0 8.343952-8.311952 8.343952-21.843875 0-30.155827-8.311952-8.343952-21.811875-8.343952-30.155827 0z" fill="#7F4545" /><path d="M860.605058 193.580888L193.550889 860.603058c-24.967857 24.997856-11.467934 79.029546 30.185826 120.651307 41.655761 41.653761 95.683451 55.185683 120.683307 30.185827L1011.444192 344.418022l-150.839134-150.837134z" fill="#FFD2A6" /><path d="M319.984163 1023.252124c9.623945-1.499991 17.999897-5.375969 24.435859-11.811932l103.559406-103.589405V606.174519l-127.995265 127.995265v289.08234zM575.990693 779.855522l127.995265-127.995265V350.167989l-127.995265 127.995265zM830.419232 223.736715v301.674268l127.995265-127.995265v-106.025391l-97.809439-97.809439z" fill="#965353" /><path d="M1011.444192 344.418022c-24.999856 24.999856-79.027546 11.467934-120.683307-30.187826-41.655761-41.653761-55.153683-95.683451-30.155827-120.651308 24.999856-24.999856 78.999546-11.499934 120.651307 30.155827 41.655761 41.655761 55.187683 95.683451 30.187827 120.683307z" fill="#7F4545" /><path d="M920.948712 253.920542c-8.343952 8.311952-8.343952 21.811875 0 30.155827 8.311952 8.343952 21.811875 8.343952 30.153827 0 8.343952-8.343952 8.343952-21.843875 0-30.155827-8.341952-8.341952-21.841875-8.341952-30.153827 0z" fill="#F4BE8E" /></svg>