<?xml version="1.0" standalone="no"?><!DOCTYPE svg PUBLIC "-//W3C//DTD SVG 1.1//EN" "http://www.w3.org/Graphics/SVG/1.1/DTD/svg11.dtd"><svg class="icon" width="128px" height="128.00px" viewBox="0 0 1024 1024" version="1.1" xmlns="http://www.w3.org/2000/svg"><path d="M725.308 286.096c0 11.782-9.532 21.344-21.312 21.344H320c-11.782 0-21.344-9.562-21.344-21.344V21.316c0-11.782 9.562-21.312 21.344-21.312h383.996a21.3 21.3 0 0 1 21.312 21.312v264.78z" fill="#DA4453" /><path d="M340.376 895.998v-82.844l-11.156-6.032c-124.124-67.31-201.218-196.748-201.218-337.81 0-102.56 39.938-198.998 112.468-271.53C313 125.252 409.438 85.314 512 85.314s198.996 39.938 271.528 112.468 112.468 168.968 112.468 271.53c0 141.468-77.468 271.094-202.122 338.28l-11.218 6.032V896h-342.28z" fill="#434A54" /><path d="M512 64.002c-223.874 0-405.342 181.468-405.342 405.31 0 154 85.906 287.938 212.374 356.56v91.438h384.964v-90.938c127-68.436 213.312-202.654 213.312-357.06 0-223.842-181.468-405.31-405.308-405.31z m171.75 724.81l-22.438 12.06v73.782H361.718V800.466l-22.342-12.124a364.564 364.564 0 0 1-137.5-130.906c-34.374-56.5-52.562-121.562-52.562-188.124 0-48.968 9.594-96.466 28.5-141.154 18.25-43.188 44.406-81.968 77.75-115.282 33.312-33.312 72.094-59.468 115.28-77.75C415.532 116.22 463 106.658 512 106.658c48.968 0 96.468 9.562 141.156 28.468 43.188 18.282 81.964 44.438 115.278 77.75s59.468 72.094 77.75 115.282c18.876 44.688 28.468 92.186 28.468 141.154 0 133.626-73.156 256.032-190.902 319.5z" fill="#656D78" /><path d="M881.528 507l30.188-30.156-7.532-7.532 3.718-3.718-30.156-30.188-3.75 3.75-60.312-60.342 58.594-58.594-30.188-30.188-58.594 58.594-60.344-60.312 76.844-76.844-30.188-30.156-76.808 76.812-60.344-60.344 56.532-56.532L659 111.096l-56.532 56.532-60.312-60.344 3.468-3.5-30.156-30.156-3.5 3.5-3.468-3.5-30.188 30.156 3.5 3.5-60.344 60.344-51.094-51.094-30.154 30.156 51.062 51.094-60.312 60.344-70.062-70.062-30.188 30.188 70.062 70.062-60.344 60.312-49.876-49.876-30.154 30.188 49.874 49.876-60.342 60.34-3.718-3.75-30.188 30.188 3.718 3.718-6.938 6.968 30.156 30.188 6.968-6.968 60.342 60.312-58.124 58.156 30.156 30.156L240.438 590l60.344 60.344-75.438 75.438 30.156 30.156 75.468-75.438 60.312 60.344-56.5 56.53 30.156 30.156 56.532-56.498 81.844 81.842 2.25-2.282 8.688 8.656L602.5 771l56.5 56.53 30.188-30.156-56.532-56.53L693 680.5l75.434 75.438 30.156-30.156-75.438-75.438L783.496 590l60.312 60.282 30.156-30.156-60.282-60.312 60.312-60.312 7.534 7.498z m-128.188-128.186l-60.34 60.342-60.344-60.342 60.344-60.344 60.34 60.344z m-271.528 90.498l-60.344 60.344-60.344-60.344 60.344-60.344 60.344 60.344z m-30.188-90.498l60.344-60.344 60.344 60.344-60.344 60.342-60.344-60.342z m60.344 120.686l60.344 60.312-60.344 60.344-60.344-60.344 60.344-60.312z m30.188-30.188l60.344-60.344 60.312 60.344-60.312 60.344-60.344-60.344z m120.656-180.998l-60.312 60.312-60.344-60.312 60.344-60.344 60.312 60.344zM511.968 137.44l60.344 60.344-60.344 60.344-60.344-60.344 60.344-60.344z m-90.5 90.53l60.344 60.344-60.344 60.312-60.344-60.312 60.344-60.344z m-90.498 90.5l60.312 60.344-60.312 60.342-60.344-60.342 60.344-60.344z m-150.876 150.842l60.344-60.344 60.344 60.344-60.344 60.344-60.344-60.344z m90.532 90.5l60.344-60.312 60.312 60.312-60.312 60.344-60.344-60.344z m90.498 90.532L421.468 590l60.344 60.344-60.344 60.344-60.344-60.344z m150.844 150.842l-60.344-60.342 60.344-60.344 60.344 60.344-60.344 60.342z m90.532-90.498l-60.344-60.344L602.5 590l60.312 60.344-60.312 60.344z m90.5-90.532l-60.344-60.344L693 499.5l60.34 60.312-60.34 60.344z m90.496-90.5l-60.344-60.344 60.344-60.344 60.344 60.344-60.344 60.344z" fill="#656D78" /><path d="M149.314 1002.652c0 11.782-9.532 21.344-21.312 21.344s-21.344-9.562-21.344-21.344 9.562-21.344 21.344-21.344 21.312 9.564 21.312 21.344zM917.308 1002.652c0 11.782-9.532 21.344-21.312 21.344s-21.344-9.562-21.344-21.344 9.562-21.344 21.344-21.344 21.312 9.564 21.312 21.344z" fill="#434A54" /><path d="M895.996 1002.652H128.002c-127.998 0-128-170.654-128-170.654h1023.994s0 170.654-128 170.654z" fill="#ED5564" /><path d="M533.312 917.31c0 11.782-9.532 21.344-21.312 21.344s-21.344-9.562-21.344-21.344 9.562-21.312 21.344-21.312 21.312 9.532 21.312 21.312z" fill="#434A54" /></svg>