<?xml version="1.0" standalone="no"?><!DOCTYPE svg PUBLIC "-//W3C//DTD SVG 1.1//EN" "http://www.w3.org/Graphics/SVG/1.1/DTD/svg11.dtd"><svg class="icon" width="128px" height="128.00px" viewBox="0 0 1024 1024" version="1.1" xmlns="http://www.w3.org/2000/svg"><path d="M13.694 523.274h848.27v83.792H13.694z" fill="#CCD1D9" /><path d="M693.01 607.938h330.662l-42.66 170.548H693.01z" fill="#8C4C4C" /><path d="M149.544 585.734c82.448 0 149.28-47.72 149.28-106.588 0 58.868 62.022 106.588 138.536 106.588 76.576 0 138.598-47.72 138.598-106.588 0 58.868 66.834 106.588 149.216 106.588 60.398 0 112.398-25.61 135.914-62.46l13.368-277.792c0-82.416-72.112-149.216-161.024-149.216-58.586 0-109.868 28.982-138.036 72.33-28.172-43.346-79.45-72.33-138.038-72.33-58.556 0-109.804 28.982-137.974 72.33-28.202-43.346-79.45-72.33-138.038-72.33-88.944 0-161.022 66.8-161.022 149.216l13.366 277.792c23.49 36.85 75.518 62.46 135.854 62.46z" fill="#F5F7FA" /><path d="M298.824 574.834c-11.804 0-21.362-9.526-21.362-21.298V168.594c0-11.774 9.556-21.33 21.362-21.33 11.742 0 21.298 9.556 21.298 21.33v384.94c0.002 11.774-9.556 21.3-21.298 21.3zM575.958 574.834a21.284 21.284 0 0 1-21.298-21.298V168.594c0-11.774 9.526-21.33 21.298-21.33 11.776 0 21.298 9.556 21.298 21.33v384.94a21.282 21.282 0 0 1-21.298 21.3z" fill="#CCD1D9" /><path d="M13.694 607.938h848.27v170.548H13.694z" fill="#A85D5D" /><path d="M236.176 649.224h-42.66v91.004l-78.762-45.502-21.36 36.914 78.824 45.502-78.824 45.502 21.36 36.914 78.762-45.47v90.972h42.66v-90.972l78.824 45.502 21.3-36.946-78.824-45.502 78.824-45.502-21.33-36.914-78.794 45.502zM760.03 694.726l-78.826 45.502v-91.004h-42.598v91.004l-78.824-45.502-21.298 36.914 78.762 45.502-78.762 45.502 21.298 36.914 78.824-45.47v90.972h42.598v-90.972l78.826 45.47 21.298-36.914-78.762-45.502 78.762-45.502z" fill="#434A54" /><path d="M214.878 626.582c-41.598 0-79.262 16.834-106.494 44.098s-44.096 64.896-44.096 106.462c0 83.166 67.394 150.592 150.59 150.592 41.568 0 79.2-16.866 106.432-44.128 27.264-27.232 44.096-64.866 44.096-106.462 0-83.136-67.394-150.562-150.528-150.562z m76.294 226.886c-20.394 20.392-47.5 31.606-76.294 31.606-28.856 0-55.964-11.212-76.326-31.606-20.394-20.392-31.604-47.5-31.604-76.326s11.21-55.934 31.604-76.326c20.362-20.362 47.47-31.606 76.326-31.606 59.494 0 107.93 48.438 107.93 107.932 0 28.826-11.242 55.934-31.636 76.326zM659.906 626.582c-41.598 0-79.2 16.834-106.496 44.098-27.23 27.264-44.096 64.896-44.096 106.462 0 83.166 67.426 150.592 150.592 150.592 41.598 0 79.2-16.866 106.462-44.128 27.264-27.232 44.126-64.866 44.126-106.462 0.002-83.136-67.454-150.562-150.588-150.562z m76.324 226.886c-20.39 20.392-47.5 31.606-76.324 31.606-28.826 0-55.934-11.212-76.328-31.606-20.36-20.392-31.604-47.5-31.604-76.326s11.244-55.934 31.604-76.326c20.394-20.362 47.502-31.606 76.328-31.606 59.524 0 107.93 48.438 107.93 107.932 0 28.826-11.242 55.934-31.606 76.326z" fill="#656D78" /></svg>