<?xml version="1.0" standalone="no"?><!DOCTYPE svg PUBLIC "-//W3C//DTD SVG 1.1//EN" "http://www.w3.org/Graphics/SVG/1.1/DTD/svg11.dtd"><svg class="icon" width="128px" height="128.00px" viewBox="0 0 1024 1024" version="1.1" xmlns="http://www.w3.org/2000/svg"><path d="M897.49 772.748l-3.624-1.062c-52.966-14.188-70.874-27.876-94.436-36.812-83.59-31.876-105.372-54.81-110.934-65.686-0.188-0.376-0.312-0.812-0.5-1.188l-0.688-97.124-198.262-2.25-160.122 6.532L290.082 668c-0.172 0.376-0.328 0.812-0.532 1.188-5.562 10.876-27.31 33.81-110.902 65.686-23.562 8.938-41.454 22.624-94.42 36.812l-3.624 1.062C32.418 788.686 0.012 833.372 0.012 883.806v140.184h978.072v-140.184c-0.002-50.434-32.44-95.12-80.594-111.058z" fill="#E6E9ED" /><path d="M280.584 680.594l69.998 184.682 74.67-90.996z" opacity=".1" /><path d="M327.582 561.408l-46.998 119.186 125.122 139.028 83.34-117.374z" fill="#F5F7FA" /><path d="M764.15 383.006c0 178.746-170.402 343.242-275.104 343.242-104.716 0-275.12-164.496-275.12-343.242s123.17-296.68 275.12-296.68 275.104 117.936 275.104 296.68z" fill="#EAC6BB" /><path d="M659.246 56.828c-46.812-42.374-209.324-103.248-360.07 0-118.872 81.434-106.872 286.742-106.872 286.742s155.98 39.436 334.648-62.624c115.48-66 155.73 1.124 176.45 59.56 20.156 56.874 60.748 42.5 60.748 42.5s44.78-190.62-104.904-326.178z" fill="#965353" /><path d="M607.558 253.698c16.376-0.5 30.062 3.062 41.624 9.5 22.188-80.498 65.938-102.186 84.998-107.874-6.25-12.5-13.436-25.062-21.81-37.436-31.186 12.25-80.498 45.624-104.812 135.81z" fill="#7F4242" /><path d="M703.996 639.156c0 23.562-19.124 42.656-42.688 42.656s-42.656-19.094-42.656-42.656c0-23.56 19.094-42.686 42.656-42.686s42.688 19.126 42.688 42.686z" fill="#DA4453" /><path d="M1023.988 1023.146c0-200.306-162.372-362.678-362.68-362.678-200.292 0-362.664 162.372-362.664 362.678h725.344z" fill="#ED5564" /></svg>