<?xml version="1.0" standalone="no"?><!DOCTYPE svg PUBLIC "-//W3C//DTD SVG 1.1//EN" "http://www.w3.org/Graphics/SVG/1.1/DTD/svg11.dtd"><svg class="icon" width="128px" height="128.00px" viewBox="0 0 1024 1024" version="1.1" xmlns="http://www.w3.org/2000/svg"><path d="M772.36 776.68l-6.688-2c-52.936-14.218-6.688-30.874-30.25-39.842-83.558-31.844-105.308-54.812-110.872-65.654-0.25-0.376-0.376-0.812-0.562-1.188l-0.688-97.124-155.572-2.218-155.59 2.218-0.718 97.124c-0.156 0.376-0.312 0.812-0.532 1.188-5.562 10.842-27.31 33.81-110.902 65.654-23.562 8.968-41.466 22.624-94.402 36.842l-3.624 1.032c-48.188 15.938-80.624 60.624-80.624 111.058v140.214H754.36l-9.312-140.214c-0.002-50.436 75.496-91.184 27.312-107.09z" fill="#FFCE54" /><path d="M277.328 697.962h42.654v183.806h-42.654z" fill="#DA4453" /><path d="M404.824 786.68l62.904-83.342-156.12-60.592-32.842 55.216zM467.728 703.338l62.874 83.342 109.324-78.248-71.248-68.436z" fill="#E6E9ED" /><path d="M742.796 382.098c0 178.744-170.37 343.24-275.068 343.24-104.714 0-275.118-164.496-275.118-343.24S315.794 85.42 467.728 85.42c151.948 0 275.068 117.934 275.068 296.678z" fill="#EAC6BB" /><path d="M789.734 234.228c-15.938-57.466-42.688-108.404-77.248-147.276-37.936-42.656-84.56-69.498-134.684-77.624C539.57 3.14 503.726 0.016 471.228 0.016c-132.684 0-173.682 51.092-177.932 56.936l-3.718 5.094-10.812 201.806 26.248-4.438c31.376-5.25 61.188-7.938 88.592-7.938 85.56 0 151.7 25.876 196.572 76.936 89.248 101.56 68.498 271.274 68.31 272.992l-7.188 54.592 42.06-35.56c51.874-43.812 87.624-105.78 103.498-179.246 14.188-65.748 11.626-139.246-7.124-206.962z" fill="#FC6E51" /><path d="M332.452 32.36l-28.032 12.25c-1.81 0.812-44.748 19.812-87.84 60.124-57.936 54.186-88.592 121.248-88.592 193.962 0 177.588 62.78 276.584 65.436 280.71l38.688 59.78 0.562-71.186c0.968-125.34 29.06-204.93 52.436-249.648 24.466-46.748 48.966-65.998 50.436-67.124l9.468-6.592-12.562-212.276z" fill="#E9573F" /><path d="M703.986 895.988s-15.624-42.592-236.258-42.592c-220.682 0-233.054 42.592-233.054 42.592v127.996h469.312v-127.996z" fill="#ED5564" /><path d="M618.676 725.338h42.624v154.214h-42.624z"  /><path d="M981.29 703.994h-195.804c-11.812 0-21.312 9.562-21.312 21.344v213.338c0 11.78 9.5 21.31 21.312 21.31h195.804c11.812 0 21.376-9.532 21.376-21.31V725.338c-0.002-11.782-9.564-21.344-21.376-21.344z m-21.312 213.338h-153.182v-170.65h153.182v170.65z" fill="#8CC153" /><path d="M895.98 1002.674c0 11.78-9.562 21.31-21.312 21.31H575.99c-11.75 0-21.31-9.532-21.31-21.31V639.996h341.3v362.678z" fill="#A0D468" /></svg>