<?xml version="1.0" standalone="no"?><!DOCTYPE svg PUBLIC "-//W3C//DTD SVG 1.1//EN" "http://www.w3.org/Graphics/SVG/1.1/DTD/svg11.dtd"><svg class="icon" width="128px" height="128.00px" viewBox="0 0 1024 1024" version="1.1" xmlns="http://www.w3.org/2000/svg"><path d="M979.466 73.96c-4.376-4.844-8.438-9.406-11.562-13.562a21.396 21.396 0 0 0-4.282-4.282c-4.218-3.156-8.844-7.344-13.782-11.812C929.216 25.618 900.968 0.026 850.72 0.026c-47.81 0-106.62 23.654-179.834 72.278-85.964 57.122-192.162 148.68-320.904 277.422-127.008 127.15-220.222 235.8-277.016 322.952C24.174 747.55 0.502 808.36 0.596 858.574 0.72 917.072 32.766 948.914 54 970.008c21.358 21.53 53.622 53.964 112.072 53.964h0.016c49.998 0 110.542-23.656 185.084-72.34 86.682-56.59 194.85-149.43 321.436-275.892 193.894-193.894 302.672-334.576 338.014-435.602 33.09-94.556-5.594-137.648-31.156-166.178z" fill="#A0D468" /><path d="M1010.622 240.138c33.092-94.556-5.594-137.648-31.154-166.178-4.376-4.844-8.438-9.406-11.562-13.562a21.396 21.396 0 0 0-4.282-4.282c-4.218-3.156-8.844-7.344-13.782-11.812-0.188-0.156-0.344-0.312-0.5-0.468 25.562 28.532 64.186 71.652 31.124 166.148-35.376 100.994-144.118 241.706-338.046 435.602-126.586 126.46-234.72 219.27-321.418 275.89-74.542 48.688-135.086 72.34-185.068 72.34h-0.016c-45.904 0-75.652-20.028-96.666-39.028 5.14 5.688 10.186 10.688 14.75 15.218 21.358 21.53 53.622 53.964 112.072 53.964h0.016c49.998 0 110.542-23.656 185.084-72.34 86.682-56.59 194.85-149.43 321.436-275.892 193.892-193.892 302.67-334.574 338.012-435.6z" fill="#FFFFFF" opacity=".2" /><path d="M523.366 734.77c11.624-20.124 13.344-44.186 4.984-69.558-7.204-21.876-21.904-44.342-42.512-64.966-16.17-16.154-35.326-30.686-56.918-43.154-36.794-21.216-71.542-41.278-104.276-46.152-40.374-6.032-72.95 11.874-96.808 53.214-14.092 24.406-19.546 46.592-16.67 67.778 2.624 19.312 12.03 36.812 28.748 53.53 20.764 20.78 50.7 38.06 82.372 56.342 38.044 21.966 78.48 34.308 113.884 34.746 40.386 0.496 71.354-14.344 87.196-41.78zM517.802 317.76c4.86 32.748 24.922 67.496 46.186 104.276 12.466 21.594 26.998 40.748 43.154 56.936 20.592 20.592 43.09 35.31 64.964 42.498 25.376 8.374 49.434 6.654 69.558-4.968 27.438-15.844 42.248-46.81 41.748-87.184-0.438-35.436-12.748-75.872-34.716-113.9-18.282-31.686-35.592-61.59-56.34-82.372-16.718-16.716-34.25-26.124-53.53-28.748-21.216-2.876-43.404 2.562-67.78 16.656-41.352 23.872-59.256 56.432-53.244 96.806z" fill="#E6E9ED" /><path d="M473.666 607.556c40.808 23.56 54.778 75.746 31.232 116.556-23.562 40.78-75.73 54.778-116.542 31.216s-54.778-75.746-31.232-116.556c23.562-40.778 75.732-54.776 116.542-31.216z" fill="#CCD1D9" /><path d="M355.546 756.83c-34.03-34.06-40.982-86.962-16.89-128.712 14.25-24.654 37.232-42.308 64.762-49.684 27.5-7.376 56.248-3.594 80.918 10.656a107.65 107.65 0 0 1 22.14 16.966c34.03 34.06 41.014 86.964 16.888 128.712-29.404 50.902-94.744 68.434-145.678 39.028a107.564 107.564 0 0 1-22.14-16.966z m120.76-120.62a65.214 65.214 0 0 0-13.296-10.188c-14.812-8.53-32.044-10.81-48.56-6.374-16.5 4.406-30.312 14.998-38.842 29.81-14.468 25.03-10.312 56.778 10.108 77.214a65.322 65.322 0 0 0 13.296 10.188c30.56 17.624 69.778 7.124 87.402-23.438 14.468-25.026 10.312-56.774-10.108-77.212z" fill="#F5F7FA" /><path d="M264.114 703.52c-6.672-6.654-8.312-17.186-3.376-25.716l10.656-18.466c5.89-10.218 18.936-13.718 29.14-7.812 10.186 5.876 13.686 18.938 7.796 29.124l-10.656 18.468c-5.89 10.216-18.936 13.686-29.138 7.81a20.904 20.904 0 0 1-4.422-3.408zM334.642 581.372c-6.656-6.688-8.312-17.218-3.376-25.75l10.656-18.466c5.89-10.218 18.936-13.718 29.138-7.812 10.204 5.876 13.702 18.938 7.812 29.124l-10.672 18.468c-5.874 10.218-18.92 13.718-29.124 7.812a21.33 21.33 0 0 1-4.434-3.376zM614.456 466.784c23.56 40.81 75.714 54.78 116.524 31.248 40.812-23.56 54.81-75.746 31.25-116.556-23.562-40.81-75.746-54.778-116.558-31.216-40.81 23.558-54.78 75.744-31.216 116.524z" fill="#CCD1D9" /><path d="M612.956 499.594c-6.594-6.562-12.282-14.032-16.968-22.124-14.25-24.688-18.032-53.404-10.656-80.934 7.376-27.498 25.032-50.498 49.686-64.746 41.716-24.094 94.65-17.156 128.712 16.904 6.562 6.562 12.28 14 16.936 22.124 29.436 50.934 11.904 116.274-38.998 145.68-41.75 24.094-94.686 17.126-128.712-16.904z m120.586-120.744c-20.404-20.436-52.152-24.592-77.184-10.124-14.81 8.53-25.404 22.342-29.81 38.842-4.436 16.53-2.188 33.748 6.376 48.558a64.25 64.25 0 0 0 10.186 13.312c20.438 20.404 52.188 24.56 77.214 10.124 30.562-17.656 41.062-56.874 23.406-87.434a64.28 64.28 0 0 0-10.188-13.278z" fill="#F5F7FA" /><path d="M661.794 298.074a20.61 20.61 0 0 1-3.376-4.406c-5.906-10.218-2.406-23.25 7.782-29.156l18.468-10.654c10.218-5.876 23.248-2.406 29.124 7.812 5.904 10.186 2.438 23.248-7.782 29.124l-18.466 10.654a21.304 21.304 0 0 1-25.75-3.374zM539.616 368.632a21.718 21.718 0 0 1-3.406-4.438c-5.89-10.218-2.39-23.25 7.844-29.124l18.436-10.688c10.216-5.876 23.248-2.376 29.154 7.812 5.906 10.216 2.406 23.248-7.812 29.154l-18.466 10.656c-8.566 4.94-19.064 3.284-25.75-3.372z" fill="#CCD1D9" /></svg>