<?xml version="1.0" standalone="no"?><!DOCTYPE svg PUBLIC "-//W3C//DTD SVG 1.1//EN" "http://www.w3.org/Graphics/SVG/1.1/DTD/svg11.dtd"><svg class="icon" width="128px" height="128.00px" viewBox="0 0 1024 1024" version="1.1" xmlns="http://www.w3.org/2000/svg"><path d="M245.628162 951.751129l75.560819-905.517851 0.123998-1.843972v-1.717973h426.431337v1.781972l0.187998 1.781973 75.49882 905.517851h42.811331L790.40165 42.671333C790.40165 19.109701 771.307948 0.016 747.746316 0.016H321.314979c-23.561632 0-42.623334 19.093702-42.623334 42.655333l-75.842815 909.079796h42.779332z" fill="#F6BB42" /><path d="M173.849284 1002.688333c0 11.781816-9.531851 21.311667-21.343667 21.311667-11.749816 0-21.311667-9.531851-21.311667-21.311667s9.561851-21.311667 21.311667-21.311667c11.811815 0 21.343667 9.529851 21.343667 21.311667z"  /><path d="M262.127904 469.13267h542.491524v42.623334h-542.491524z" fill="#F6BB42" /><path d="M163.881439 997.968407L236.068311 132.793925l0.123998-1.843971v-1.717973h426.461337v1.781972l0.155998 1.781972 72.154872 865.174482h42.781332L705.30898 129.231981c0-23.531632-19.123701-42.623334-42.655334-42.623334H236.192309c-23.531632 0-42.623334 19.093702-42.623334 42.623334L121.100108 997.968407h42.781331z" fill="#FFCE54" /><path d="M163.411447 980.844674H120.756113c-11.749816 0-21.311667 9.561851-21.311667 21.311667 0 11.781816 9.561851 21.343667 21.311667 21.343667h42.655334c11.781816 0 21.311667-9.561851 21.311667-21.343667 0-11.749816-9.529851-21.311667-21.311667-21.311667z" fill="#656D78" /><path d="M839.276886 810.285339c-47.093264 0-85.280667 38.187403-85.280667 85.280668s38.187403 85.280667 85.280667 85.280667 85.280667-38.187403 85.280668-85.280667-38.187403-85.280667-85.280668-85.280668z" fill="#434A54" /><path d="M860.588553 895.564007c0 11.781816-9.531851 21.311667-21.311667 21.311667s-21.343667-9.531851-21.343666-21.311667 9.561851-21.311667 21.343666-21.311667 21.311667 9.531851 21.311667 21.311667z" fill="#CCD1D9" /><path d="M755.308198 852.908673c-47.093264 0-85.280667 38.187403-85.280667 85.280668 0 47.123264 38.187403 85.310667 85.280667 85.310667 47.123264 0 85.310667-38.187403 85.310667-85.310667 0-47.093264-38.185403-85.280667-85.310667-85.280668z" fill="#656D78" /><path d="M776.619865 938.189341c0 11.781816-9.531851 21.343667-21.311667 21.343666-11.749816 0-21.311667-9.561851-21.311667-21.343666 0-11.749816 9.561851-21.311667 21.311667-21.311667 11.781816 0 21.311667 9.561851 21.311667 21.311667z" fill="#FFFFFF" /><path d="M243.380197 938.189341H200.724864c-11.781816 0-21.343667 9.561851-21.343667 21.343666s9.561851 21.311667 21.343667 21.311667h42.655333c11.749816 0 21.311667-9.531851 21.311667-21.311667s-9.563851-21.343667-21.311667-21.343666z" fill="#434A54" /><path d="M717.964782 405.603662l-11.279824-53.09317 99.966438-115.1862 4.967922 59.53107zM752.558241 0.297995l-81.310729 93.592538 32.217496 27.967563 83.466696-96.092499C780.963797 12.015812 767.996 2.015969 752.558241 0.297995zM178.193216 554.413337h542.491523v42.623334H178.193216z" fill="#FFCE54" /></svg>