<?xml version="1.0" standalone="no"?><!DOCTYPE svg PUBLIC "-//W3C//DTD SVG 1.1//EN" "http://www.w3.org/Graphics/SVG/1.1/DTD/svg11.dtd"><svg class="icon" width="128px" height="128.00px" viewBox="0 0 1024 1024" version="1.1" xmlns="http://www.w3.org/2000/svg"><path d="M448 256.006H21.338c-11.782 0-21.328-9.546-21.328-21.328s9.546-21.344 21.328-21.344H448c11.782 0 21.328 9.562 21.328 21.344s-9.546 21.328-21.328 21.328zM448 384.002H21.338c-11.782 0-21.328-9.546-21.328-21.328s9.546-21.342 21.328-21.342H448c11.782 0 21.328 9.562 21.328 21.342 0.002 11.782-9.546 21.328-21.328 21.328zM448 512H21.338C9.556 512 0.01 502.454 0.01 490.672s9.546-21.344 21.328-21.344H448c11.782 0 21.328 9.562 21.328 21.344S459.782 512 448 512zM448 639.996H21.338c-11.782 0-21.328-9.562-21.328-21.312 0-11.81 9.546-21.374 21.328-21.374H448c11.782 0 21.328 9.562 21.328 21.374 0.002 11.75-9.546 21.312-21.328 21.312zM448 767.994H21.338c-11.782 0-21.328-9.562-21.328-21.312 0-11.812 9.546-21.374 21.328-21.374H448c11.782 0 21.328 9.56 21.328 21.374 0.002 11.75-9.546 21.312-21.328 21.312zM448 895.992H21.338c-11.782 0-21.328-9.562-21.328-21.312 0-11.812 9.546-21.376 21.328-21.376H448c11.782 0 21.328 9.562 21.328 21.376 0.002 11.75-9.546 21.312-21.328 21.312z" fill="#7F4545" /><path d="M618.686 405.33c-11.812 0-21.376-9.546-21.376-21.328V106.68c0-11.782 9.562-21.342 21.376-21.342 11.75 0 21.312 9.562 21.312 21.342v277.322c0 11.782-9.562 21.328-21.312 21.328z" fill="#434A54" /><path d="M618.686 533.328c-47.062 0-85.36-38.282-85.36-85.328s38.296-85.326 85.36-85.326c47.03 0 85.308 38.28 85.308 85.326s-38.28 85.328-85.308 85.328z m0-127.998c-23.562 0-42.688 19.14-42.688 42.67s19.124 42.67 42.688 42.67c23.5 0 42.624-19.14 42.624-42.67s-19.124-42.67-42.624-42.67z" fill="#ED5564" /><path d="M831.992 405.33c-11.782 0-21.31-9.546-21.31-21.328V106.68c0-11.782 9.53-21.342 21.31-21.342s21.312 9.562 21.312 21.342v277.322c0 11.782-9.53 21.328-21.312 21.328z" fill="#434A54" /><path d="M831.992 533.328c-47.06 0-85.31-38.282-85.31-85.328s38.25-85.326 85.31-85.326 85.31 38.28 85.31 85.326-38.25 85.328-85.31 85.328z m0-127.998c-23.53 0-42.686 19.14-42.686 42.67s19.156 42.67 42.686 42.67c23.532 0 42.686-19.14 42.686-42.67s-19.154-42.67-42.686-42.67z" fill="#ED5564" /><path d="M21.338 1023.988c-11.782 0-21.328-9.562-21.328-21.312V21.338C0.01 9.556 9.556 0.01 21.338 0.01s21.344 9.546 21.344 21.328v981.336c0 11.752-9.562 21.314-21.344 21.314zM1002.676 1023.988c-11.812 0-21.374-9.562-21.374-21.312V21.338c0-11.782 9.56-21.328 21.374-21.328 11.75 0 21.312 9.546 21.312 21.328v981.336c0 11.752-9.562 21.314-21.312 21.314zM448 1023.988c-11.782 0-21.328-9.562-21.328-21.312V128.008c0-11.782 9.546-21.328 21.328-21.328s21.328 9.546 21.328 21.328v874.668c0.002 11.75-9.546 21.312-21.328 21.312z" fill="#965353" /><path d="M1023.988 128.008H0.012V0.012h1023.976v127.996z" fill="#FFD2A6" /><path d="M938.678 21.338c11.75 0 21.312-9.546 21.312-21.328h-42.688c0 11.782 9.564 21.328 21.376 21.328zM853.304 21.338c11.81 0 21.374-9.546 21.374-21.328h-42.686c0 11.782 9.562 21.328 21.312 21.328zM767.994 21.338c11.782 0 21.312-9.546 21.312-21.328h-42.624c0 11.782 9.53 21.328 21.312 21.328zM682.684 21.338c11.748 0 21.31-9.546 21.31-21.328h-42.686c0 11.782 9.564 21.328 21.376 21.328zM597.31 21.338c11.812 0 21.376-9.546 21.376-21.328h-42.688c0 11.782 9.562 21.328 21.312 21.328zM512 21.338c11.78 0 21.326-9.546 21.326-21.328h-42.654c0 11.782 9.546 21.328 21.328 21.328zM426.674 21.338c11.78 0 21.328-9.546 21.328-21.328h-42.67c-0.002 11.782 9.56 21.328 21.342 21.328zM341.332 21.338c11.78 0 21.342-9.546 21.342-21.328h-42.67c0 11.782 9.546 21.328 21.328 21.328zM256.006 21.338c11.78 0 21.328-9.546 21.328-21.328h-42.656c0 11.782 9.546 21.328 21.328 21.328zM170.68 21.338c11.78 0 21.328-9.546 21.328-21.328H149.336c0 11.782 9.562 21.328 21.344 21.328zM85.338 21.338c11.78 0 21.342-9.546 21.342-21.328H64.01c0 11.782 9.546 21.328 21.328 21.328z" fill="#EAAD7A" /></svg>