<?xml version="1.0" standalone="no"?><!DOCTYPE svg PUBLIC "-//W3C//DTD SVG 1.1//EN" "http://www.w3.org/Graphics/SVG/1.1/DTD/svg11.dtd"><svg class="icon" width="128px" height="128.00px" viewBox="0 0 1024 1024" version="1.1" xmlns="http://www.w3.org/2000/svg"><path d="M298.67 1023.984H85.334V0.014h213.338v1023.97z" fill="#E5E8EC" /><path d="M511.994 1023.984H298.67V0.014h213.322v1023.97z" fill="#A0D468" /><path d="M725.3 767.992H511.994V0.014H725.3v767.978z" fill="#E5E8EC" /><path d="M923.542 738.184l-198.242-11.344V0.014h213.368v703.982l-0.25 5.188-2.718 9.062-12.158 19.938z" fill="#A0D468" /><path d="M874.672 767.992c34.122 0 62.09-26.872 63.872-60.558v-3.438c0 11.782-9.562 21.344-21.312 21.344-11.782 0-21.344-9.562-21.344-21.344V512H426.558v191.996c0 35.312 28.718 63.996 63.998 63.996h384.116z" fill="#F4F6F9" /></svg>