<?xml version="1.0" standalone="no"?><!DOCTYPE svg PUBLIC "-//W3C//DTD SVG 1.1//EN" "http://www.w3.org/Graphics/SVG/1.1/DTD/svg11.dtd"><svg class="icon" width="128px" height="128.00px" viewBox="0 0 1024 1024" version="1.1" xmlns="http://www.w3.org/2000/svg"><path d="M170.662 0.008h170.684v1023.984H170.662zM426.658 0.008h170.684v1023.984h-170.684zM682.652 0.008h170.686v1023.984h-170.686z" fill="#8CC153" /><path d="M42.664 0.008h170.684v1023.984H42.664zM298.66 0.008h170.684v1023.984H298.66zM554.656 0.008h170.684v1023.984h-170.684zM810.65 0.008h170.686v1023.984h-170.686z" fill="#A0D468" /><path d="M677.934 346.064c-91.654-91.654-240.214-91.654-331.87 0-91.624 91.624-91.624 240.216 0 331.838 91.656 91.656 240.214 91.656 331.87 0 91.656-91.62 91.656-240.214 0-331.838z" fill="#F5F7FA" /><path d="M512 767.996c-68.374 0-132.654-26.656-181.028-75-99.812-99.808-99.812-262.214 0-362.024 48.374-48.344 112.654-74.968 181.028-74.968s132.652 26.624 181.028 74.968c48.344 48.342 74.968 112.624 74.968 181.028 0 68.376-26.624 132.654-74.968 180.998-48.376 48.342-112.654 74.998-181.028 74.998z m0-469.336c-57 0-110.562 22.188-150.842 62.468-83.186 83.186-83.186 218.53 0 301.712 40.28 40.282 93.874 62.468 150.842 62.468 56.968 0 110.56-22.188 150.84-62.468 40.312-40.312 62.5-93.872 62.5-150.84 0-56.998-22.188-110.56-62.5-150.872-40.28-40.282-93.872-62.468-150.84-62.468z" fill="#434A54" /><path d="M617.592 587.406l-84.248-84.25V384c0-11.812-9.562-21.342-21.344-21.342s-21.344 9.532-21.344 21.342v128c0 5.876 2.406 11.22 6.25 15.064l90.53 90.528a21.244 21.244 0 0 0 15.062 6.218c5.468 0 10.938-2.062 15.094-6.218a21.33 21.33 0 0 0 0-30.186z" fill="#434A54" /></svg>