<?xml version="1.0" standalone="no"?><!DOCTYPE svg PUBLIC "-//W3C//DTD SVG 1.1//EN" "http://www.w3.org/Graphics/SVG/1.1/DTD/svg11.dtd"><svg class="icon" width="128px" height="128.00px" viewBox="0 0 1024 1024" version="1.1" xmlns="http://www.w3.org/2000/svg"><path d="M794.936 356.098c-81.936 81.936-153.212 84.186-192.9 44.498-39.656-39.654-37.438-110.932 44.53-192.868l59.342-59.342 89.03-29.686 89.028 89.028-29.686 89.028-59.344 59.342z" fill="#424953" /><path d="M898.774 281.914l-178.026-178.058L794.936 0.016l207.71 207.712z" fill="#646C77" /><path d="M342.074 426.534L106.676 680.838v343.146l469.328-0.124V685.806z" fill="#FECD57" /><path d="M278.076 767.866h127.996v213.37h-127.996z" fill="#434A54" /><path d="M42.678 746.524a21.3 21.3 0 0 1-15.094-6.25 21.36 21.36 0 0 1 0.032-30.186L327.012 411.44c8.344-8.312 21.844-8.312 30.156 0.032 8.342 8.344 8.31 21.844-0.032 30.188L57.74 740.304a21.194 21.194 0 0 1-15.062 6.22z" fill="#646C77" /><path d="M640.004 746.524a21.3 21.3 0 0 1-15.094-6.25L326.98 441.628c-8.31-8.344-8.31-21.876 0.032-30.188 8.344-8.312 21.844-8.312 30.156 0.032L655.096 710.12c8.312 8.344 8.312 21.874-0.032 30.186a21.25 21.25 0 0 1-15.06 6.218z" fill="#646C77" /><path d="M597.348 1023.984H85.364c-11.812 0-21.342-9.562-21.342-21.344s9.53-21.344 21.342-21.344h511.984c11.782 0 21.312 9.562 21.312 21.344s-9.532 21.344-21.312 21.344z" fill="#F5BA45" /></svg>