<?xml version="1.0" standalone="no"?><!DOCTYPE svg PUBLIC "-//W3C//DTD SVG 1.1//EN" "http://www.w3.org/Graphics/SVG/1.1/DTD/svg11.dtd"><svg class="icon" width="128px" height="128.00px" viewBox="0 0 1024 1024" version="1.1" xmlns="http://www.w3.org/2000/svg"><path d="M341.346 64.008h682.646v127.998H341.346zM341.346 661.342h682.646v298.65H341.346z" fill="#FFD2A6" /><path d="M0.008 64.008h383.994v895.984H0.008z" fill="#A85D5D" /><path d="M512 234.692c-11.75 0-21.312-9.562-21.312-21.342V170.694c0-11.782 9.562-21.344 21.312-21.344 11.812 0 21.344 9.562 21.344 21.344v42.656c0 11.78-9.532 21.342-21.344 21.342zM639.996 234.692c-11.748 0-21.31-9.562-21.31-21.342V170.694c0-11.782 9.562-21.344 21.31-21.344 11.812 0 21.344 9.562 21.344 21.344v42.656c0 11.78-9.532 21.342-21.344 21.342zM767.996 234.692c-11.75 0-21.312-9.562-21.312-21.342V170.694c0-11.782 9.562-21.344 21.312-21.344 11.812 0 21.344 9.562 21.344 21.344v42.656c0 11.78-9.532 21.342-21.344 21.342zM895.992 234.692c-11.75 0-21.312-9.562-21.312-21.342V170.694c0-11.782 9.562-21.344 21.312-21.344 11.812 0 21.344 9.562 21.344 21.344v42.656c0 11.78-9.532 21.342-21.344 21.342zM298.69 576c-11.782 0-21.342-9.532-21.342-21.312v-85.342c0-11.78 9.56-21.342 21.342-21.342s21.312 9.562 21.312 21.342v85.342A21.3 21.3 0 0 1 298.69 576zM725.34 767.996h-85.344c-11.748 0-21.31-9.532-21.31-21.312s9.562-21.344 21.31-21.344h85.344c11.782 0 21.344 9.562 21.344 21.344s-9.562 21.312-21.344 21.312z" fill="#434A54" /><path d="M892.68 308.598c-0.718-1.156-17.876-28.062-40.216-55.406-34.094-41.75-60.936-61.186-84.466-61.186-23.5 0-50.344 19.438-84.438 61.186-22.344 27.342-39.5 54.25-40.218 55.406l-3.344 5.218v252.714l10.062 6.25c4.062 2.532 41.688 24.562 117.938 24.562 76.28 0 113.902-22.032 117.934-24.562l10.062-6.25V313.816l-3.314-5.218z" fill="#DA4453" /><path d="M714.59 593.344c53.906-158.186 14.75-334.714 13.438-340.214l-8.812-37.75c-6.062 5.25-12.406 11.468-19 18.592a353.472 353.472 0 0 0-8.032 8.968c-0.156 0.156-0.312 0.344-0.468 0.532-1.094 1.282-2.218 2.594-3.344 3.938-0.312 0.344-0.594 0.688-0.906 1.062-1.282 1.532-2.594 3.094-3.906 4.718-22.344 27.342-39.5 54.25-40.218 55.406l-3.344 5.218v252.714l10.062 6.25c2.968 1.846 23.812 14.066 64.53 20.566zM821.432 593.344c-53.904-158.186-14.75-334.714-13.438-340.214l8.812-37.75c6.062 5.25 12.406 11.468 19 18.592a353.472 353.472 0 0 1 8.032 8.968c0.156 0.156 0.312 0.344 0.468 0.532 1.094 1.282 2.218 2.594 3.344 3.938 0.312 0.344 0.594 0.688 0.906 1.062 1.312 1.532 2.594 3.094 3.906 4.718 22.342 27.342 39.498 54.25 40.216 55.406l3.312 5.218v252.714l-10.062 6.25c-2.936 1.846-23.78 14.066-64.496 20.566z" fill="#ED5564" /></svg>