<?xml version="1.0" standalone="no"?><!DOCTYPE svg PUBLIC "-//W3C//DTD SVG 1.1//EN" "http://www.w3.org/Graphics/SVG/1.1/DTD/svg11.dtd"><svg class="icon" width="128px" height="128.00px" viewBox="0 0 1024 1024" version="1.1" xmlns="http://www.w3.org/2000/svg"><path d="M786.934 113.882C713.496 40.446 615.876 0.008 512 0.008c-103.874 0-201.498 40.438-274.932 113.874-73.438 73.438-113.874 171.092-113.874 274.934 0 63.936 20.062 137.122 59.624 217.498 31.062 63.184 74.31 131.184 128.498 202.09 91.842 120.184 182.216 206.152 186.028 209.746 4.094 3.906 9.376 5.844 14.656 5.844s10.562-1.938 14.656-5.844c3.812-3.594 94.188-89.562 186.028-209.746 54.188-70.906 97.438-138.906 128.532-202.09 39.558-80.376 59.59-153.562 59.59-217.498-0.002-103.842-40.438-201.496-113.872-274.934z" fill="#ED5564" /><path d="M786.934 113.882C713.496 40.446 615.876 0.008 512 0.008c-7.156 0-14.25 0.218-21.344 0.594 95.844 5.156 185.214 44.906 253.622 113.28 73.438 73.438 113.872 171.092 113.872 274.934 0 63.936-20.058 137.122-59.59 217.498-31.124 63.184-74.344 131.184-128.532 202.09-78.746 103.058-156.402 180.934-179.372 203.308 3.812 3.718 6.124 5.938 6.688 6.438 4.094 3.906 9.376 5.844 14.656 5.844s10.562-1.938 14.656-5.844c3.812-3.594 94.188-89.562 186.028-209.746 54.188-70.906 97.438-138.906 128.532-202.09 39.558-80.376 59.59-153.562 59.59-217.498-0.002-103.842-40.438-201.496-113.872-274.934z" fill="#FFFFFF" opacity=".2" /><path d="M617.5 540.906l60.34 60.344c8.344 8.312 21.844 8.312 30.188 0 8.312-8.344 8.312-21.844 0-30.188l-60.344-60.342c-8.344-8.312-21.84-8.312-30.184 0-8.312 8.342-8.312 21.842 0 30.186z" fill="#434A54" /><path d="M330.628 203.006l60.53-0.218a21.184 21.184 0 0 1 15.156 6.25L677.84 480.564c8.344 8.312 8.344 21.844 0 30.156l-60.34 60.342c-8.312 8.344-21.844 8.344-30.156 0L315.816 299.536a21.278 21.278 0 0 1-6.25-15l-0.188-60.156c-0.062-11.78 9.468-21.342 21.25-21.374z" fill="#F6BB42" /><path d="M571.5 586.906c8.344 8.344 21.844 8.344 30.156 0l91.622-91.624c8.344-8.312 8.344-21.812 0-30.156s-21.844-8.344-30.156 0l-91.622 91.624c-8.344 8.312-8.344 21.812 0 30.156z" fill="#E6E9ED" /><path d="M346.752 480.188L617.5 209.444c4-4 9.376-6.218 15.032-6.25l60.122-0.218c5.656 0 11.094 2.218 15.094 6.218 0.032 0 0.062 0.032 0.062 0.032 4 4 6.218 9.406 6.25 15.03l0.188 60.532a21.286 21.286 0 0 1-6.218 15.156L436.5 571.468a21.33 21.33 0 0 1-30.186 0l-60.342-60.342a21.332 21.332 0 0 1 0-30.188c0.25-0.25 0.5-0.5 0.78-0.75z" fill="#FFCE54" /><path d="M315.816 601.624c8.312 8.344 21.844 8.344 30.156 0l60.342-60.312a21.33 21.33 0 0 0 0-30.186c-8.312-8.312-21.844-8.312-30.156 0l-60.342 60.342c-8.344 8.344-8.344 21.844 0 30.156z" fill="#434A54" /><path d="M330.16 495.282l91.592 91.624c8.344 8.344 21.844 8.344 30.156 0 8.344-8.344 8.344-21.844 0-30.156l-91.592-91.624c-8.342-8.344-21.842-8.344-30.156 0-8.344 8.344-8.344 21.844 0 30.156z" fill="#E6E9ED" /></svg>