<?xml version="1.0" standalone="no"?><!DOCTYPE svg PUBLIC "-//W3C//DTD SVG 1.1//EN" "http://www.w3.org/Graphics/SVG/1.1/DTD/svg11.dtd"><svg class="icon" width="128px" height="128.00px" viewBox="0 0 1024 1024" version="1.1" xmlns="http://www.w3.org/2000/svg"><path d="M917.342 1002.652c0 11.782-9.562 21.344-21.344 21.344H128.002c-11.782 0-21.344-9.562-21.344-21.344V21.316C106.658 9.534 116.22 0.004 128.002 0.004h767.996c11.782 0 21.344 9.532 21.344 21.312v981.336z" fill="#E6E9ED" /><path d="M819.998 618.656c0 170.094-137.904 307.998-307.998 307.998-170.092 0-307.998-137.904-307.998-307.998S341.908 310.658 512 310.658c170.094 0 307.998 137.904 307.998 307.998z" fill="#434A54" /><path d="M819.998 618.656v-0.624c-10.968-10.5-159.404-147.594-307.624 0.624-148.25 148.218-297.374 11.124-308.374 0.624 0.344 169.812 138.094 307.374 307.998 307.374 170.096 0 308-137.904 308-307.998z" fill="#5D9CEC" /><path d="M817.624 656.906c-22.156-20.25-163.81-138.624-305.248 2.812-139.718 139.716-280.28 25.938-305.124 3.624C228.876 812.248 357.062 926.654 512 926.654c157.156 0 286.81-117.718 305.624-269.748z" fill="#4A89DC" /><path d="M448 85.314c0 11.782-9.562 21.344-21.344 21.344s-21.312-9.562-21.312-21.344 9.532-21.312 21.312-21.312S448 73.534 448 85.314zM533.344 85.314c0 11.782-9.562 21.344-21.344 21.344s-21.344-9.562-21.344-21.344S500.218 64.002 512 64.002s21.344 9.532 21.344 21.312zM618.656 85.314c0 11.782-9.532 21.344-21.312 21.344S576 97.096 576 85.314s9.562-21.312 21.344-21.312 21.312 9.532 21.312 21.312z" fill="#5D9CEC" /><path d="M703.998 170.658V0.004h-42.654v170.654H362.656V0.004h-42.654v170.654H106.658v42.656h810.684V170.658zM789.342 21.316h42.656c11.782 0 21.344-9.532 21.344-21.312h-85.344c0 11.782 9.562 21.312 21.344 21.312z" fill="#CCD1D9" /><path d="M176.096 51.126h76v68h-76z" fill="#CCD1D9" /><path d="M213.346 21.316c-35.344 0-64 28.656-64 63.998 0 35.376 28.656 64 64 64s64-28.624 64-64c0-35.342-28.656-63.998-64-63.998z m0 85.342c-11.782 0-21.344-9.562-21.344-21.344 0-11.75 9.562-21.312 21.344-21.312 11.75 0 21.312 9.562 21.312 21.312 0 11.782-9.562 21.344-21.312 21.344z" fill="#AAB2BC" /><path d="M512 298.658c-176.716 0-319.998 143.28-319.998 319.998 0 176.716 143.282 319.998 319.998 319.998 176.718 0 319.998-143.282 319.998-319.998 0-176.718-143.28-319.998-319.998-319.998z m196.092 516.09c-25.466 25.5-55.124 45.5-88.154 59.468-34.156 14.438-70.468 21.782-107.938 21.782s-73.782-7.344-107.938-21.782c-33.032-13.968-62.686-33.968-88.154-59.468-25.5-25.466-45.5-55.124-59.468-88.154-14.438-34.156-21.782-70.468-21.782-107.938s7.344-73.782 21.782-107.938c13.968-33.032 33.968-62.688 59.468-88.156 25.468-25.498 55.124-45.498 88.154-59.466 34.156-14.438 70.468-21.782 107.938-21.782s73.782 7.344 107.938 21.782c33.032 13.968 62.688 33.968 88.154 59.466 25.5 25.468 45.5 55.124 59.468 88.156 14.438 34.156 21.782 70.468 21.782 107.938s-7.344 73.782-21.782 107.938c-13.968 33.03-33.968 62.688-59.468 88.154z" fill="#CCD1D9" /><path d="M810.654 680c0 11.718-9.594 21.312-21.312 21.312h-85.344c-11.716 0-21.342-9.594-21.342-21.312v-122.688c0-11.718 9.624-21.312 21.342-21.312h85.344c11.718 0 21.312 9.594 21.312 21.312V680z" fill="#CCD1D9" /></svg>