<?xml version="1.0" standalone="no"?><!DOCTYPE svg PUBLIC "-//W3C//DTD SVG 1.1//EN" "http://www.w3.org/Graphics/SVG/1.1/DTD/svg11.dtd"><svg class="icon" width="128px" height="128.00px" viewBox="0 0 1024 1024" version="1.1" xmlns="http://www.w3.org/2000/svg"><path d="M810.646 1023.98c-1 0-2.032-0.094-3.032-0.218L210.98 937.764a21.36 21.36 0 0 1-18.186-18.876L106.796 110.266a21.34 21.34 0 0 1 6.062-17.282L198.856 6.3a21.408 21.408 0 0 1 15.156-6.28h681.972c11.782 0 21.344 9.53 21.344 21.31V916.64c0 5.624-2.25 11.03-6.188 15.03l-85.34 85.998a21.35 21.35 0 0 1-15.154 6.312z" fill="#F6BB42" /><path d="M895.984 0.02H695.148l-91.558 91.558a21.33 21.33 0 0 0 0 30.186c4.156 4.156 213.932 6.25 219.368 6.25a21.3 21.3 0 0 0 15.094-6.25l79.278-79.278V21.33C917.328 9.548 907.766 0.02 895.984 0.02z" fill="#434A54" /><path d="M743.646 1014.512l63.968 9.25c1 0.124 2.032 0.218 3.032 0.218 5.656 0 11.124-2.25 15.154-6.312l85.34-85.998c3.938-4 6.188-9.406 6.188-15.03V21.33c0-5.876-2.406-11.218-6.25-15.092l-100.432 100.434-67 907.84z" fill="#F6BB42" /><path d="M810.646 85.328H128.014c-11.78 0-21.342 9.562-21.342 21.344v895.964c0 11.782 9.562 21.344 21.342 21.344h682.632c11.782 0 21.342-9.562 21.342-21.344V106.672c0-11.782-9.56-21.344-21.342-21.344z" fill="#FFCE54" /><path d="M469.344 256.008c-129.402 0-234.678 105.246-234.678 234.648 0 129.4 105.278 234.646 234.678 234.646 129.37 0 234.648-105.246 234.648-234.646 0-129.402-105.278-234.648-234.648-234.648z" fill="#E6E9ED" /><path d="M674.744 483.312L632.494 498c-22.186 7.688-58.434 7.688-80.62 0l-42.25-14.688c-22.156-7.688-58.434-7.688-80.59 0L386.786 498c-22.156 7.688-58.434 7.688-80.622 0l-42.218-14.688c-10.5-3.624-20.812-2.718-29.186 1.656a174.026 174.026 0 0 0-0.094 5.688c0 129.4 105.278 234.646 234.678 234.646 129.37 0 234.648-105.246 234.648-234.646 0-3-0.062-5.968-0.188-8.938-9.78-1.936-19.998-1.562-29.06 1.594z" fill="#5D9CEC" /><path d="M569.748 368.912c8.344 8.312 8.344 21.842 0 30.156-8.344 8.342-21.842 8.342-30.154 0-8.344-8.312-8.344-21.842 0-30.156 8.312-8.344 21.81-8.344 30.154 0zM463.094 326.226c8.312 8.342 8.312 21.842 0 30.186-8.342 8.312-21.842 8.312-30.186 0-8.312-8.344-8.312-21.842 0-30.186 8.344-8.312 21.844-8.312 30.186 0zM399.098 411.566c8.312 8.344 8.312 21.844 0 30.188-8.342 8.312-21.842 8.312-30.186 0-8.312-8.344-8.312-21.844 0-30.188 8.342-8.314 21.842-8.314 30.186 0z" fill="#CCD1D9" /><path d="M618.652 851.548H320.008c-11.782 0-21.344-9.56-21.344-21.342s9.562-21.344 21.344-21.344h298.644c11.78 0 21.342 9.562 21.342 21.344s-9.562 21.342-21.342 21.342z" fill="#434A54" /></svg>