<?xml version="1.0" standalone="no"?><!DOCTYPE svg PUBLIC "-//W3C//DTD SVG 1.1//EN" "http://www.w3.org/Graphics/SVG/1.1/DTD/svg11.dtd"><svg class="icon" width="128px" height="128.00px" viewBox="0 0 1024 1024" version="1.1" xmlns="http://www.w3.org/2000/svg"><path d="M767.998 277.344h127.994v63.998h-127.994z" fill="#E9573F" /><path d="M895.992 298.688h-127.994c-11.812 0-21.312-9.562-21.312-21.344 0-11.78 9.5-21.342 21.312-21.342h127.994c11.75 0 21.312 9.562 21.312 21.342 0 11.782-9.562 21.344-21.312 21.344z" fill="#FC6E51" /><path d="M847.058 198.254a21.28 21.28 0 0 1 0 30.186c-8.312 8.312-21.812 8.312-30.124 0a21.272 21.272 0 0 1 0-30.186c8.312-8.312 21.812-8.312 30.124 0zM932.43 112.946c8.312 8.31 8.312 21.81 0 30.154-8.376 8.344-21.876 8.344-30.188 0-8.312-8.342-8.312-21.842 0-30.154 8.312-8.344 21.812-8.344 30.188 0zM761.748 155.6c8.312 8.312 8.312 21.844 0 30.156-8.312 8.342-21.812 8.342-30.188 0-8.31-8.312-8.31-21.844 0-30.156 8.376-8.344 21.876-8.344 30.188 0zM847.058 70.26a21.28 21.28 0 0 1 0 30.186c-8.312 8.312-21.812 8.312-30.124 0a21.272 21.272 0 0 1 0-30.186c8.312-8.312 21.812-8.312 30.124 0zM655.502 261.814c-72.496-72.528-168.916-112.464-271.506-112.464-102.558 0-198.992 39.936-271.488 112.464C39.978 334.342 0.012 430.776 0.012 533.334c0 102.558 39.966 198.992 112.496 271.522 72.496 72.528 168.93 112.464 271.488 112.464 102.59 0 199.01-39.938 271.506-112.464 72.558-72.53 112.496-168.962 112.496-271.522 0-102.556-39.938-198.992-112.496-271.52z" fill="#E6E9ED" /><path d="M383.996 320c-117.622 0-213.304 95.714-213.304 213.334s95.684 213.336 213.304 213.336c117.652 0 213.32-95.716 213.32-213.336S501.648 320 383.996 320z" fill="#CCD1D9" /><path d="M213.348 533.334c0-110.432 84.34-201.522 191.992-212.272a218.692 218.692 0 0 0-21.344-1.062c-117.622 0-213.304 95.714-213.304 213.334s95.684 213.336 213.304 213.336c7.218 0 14.312-0.376 21.344-1.094-107.652-10.718-191.992-101.808-191.992-212.242z" fill="#AAB2BC" /><path d="M982.24 518.678c13.374-21.748 20.436-46.184 20.436-71.12 0-77.466-66.996-127.558-170.68-127.558-103.686 0-170.682 50.092-170.682 127.558 0 24.934 7.062 49.372 20.438 71.12l-41.876 355.956 0.25 2.5c0.25 2.062 2.688 20.75 13.376 39.906 15.5 27.686 40.998 42.936 71.808 42.936H938.68c34.06 0 60.684-15.532 74.872-43.748 10-19.876 10.438-39.312 10.438-41.438v-1.312l-41.75-354.8z" fill="#FC6E51" /><path d="M988.988 575.99H675.002l-25.126 213.334h364.238z" fill="#FFCE54" /><path d="M896.368 703.984h-127.994c-11.812 0-21.312-9.532-21.312-21.312s9.5-21.344 21.312-21.344h127.994c11.75 0 21.312 9.562 21.312 21.344s-9.562 21.312-21.312 21.312z" fill="#434A54" /><path d="M982.24 518.678c13.374-21.748 20.436-46.184 20.436-71.12 0-77.466-66.996-127.558-170.68-127.558-3.624 0-7.188 0.062-10.686 0.188 97.556 3.344 159.992 52.592 159.992 127.372 0 24.934-7 49.372-20.376 71.12l41.748 354.798v1.312c-0.062 2.124-0.438 21.562-10.438 41.438-14.186 28.216-40.808 43.748-74.934 43.748h21.376c34.06 0 60.684-15.532 74.872-43.748 10-19.876 10.438-39.312 10.438-41.438v-1.312l-41.748-354.8z" fill="#FFFFFF" opacity=".2" /></svg>