<?xml version="1.0" standalone="no"?><!DOCTYPE svg PUBLIC "-//W3C//DTD SVG 1.1//EN" "http://www.w3.org/Graphics/SVG/1.1/DTD/svg11.dtd"><svg class="icon" width="128px" height="128.00px" viewBox="0 0 1024 1024" version="1.1" xmlns="http://www.w3.org/2000/svg"><path d="M341.316 810.682c-85.466 0-165.808-33.312-226.246-93.75-60.436-60.436-93.748-140.778-93.748-226.276 0-85.466 33.312-165.808 93.748-226.246 60.438-60.466 140.78-93.748 226.246-93.748 85.498 0 165.84 33.282 226.276 93.748 60.436 60.438 93.716 140.78 93.716 226.246 0 85.498-33.282 165.84-93.716 226.276-60.436 60.438-140.778 93.75-226.276 93.75z" fill="#8CC153" /><path d="M426.658 85.352c0-11.78-9.562-21.342-21.344-21.342-2.312 0-4.532 0.376-6.594 1.062-2.094 0.656-20.75 7.032-39.466 22.466-26.406 21.75-39.968 50.656-39.25 83.592l42.656-0.906c-1.032-47.03 47.342-63.936 49.404-64.654 8.47-2.812 14.594-10.812 14.594-20.218z" fill="#434A54" /><path d="M341.316 149.352C152.82 149.352 0.012 302.16 0.012 490.656c0 188.528 152.808 341.336 341.304 341.336 188.528 0 341.336-152.808 341.336-341.336 0-188.496-152.808-341.304-341.336-341.304z m57.248 634.518l-3.938 0.75c18.938-56.718 53.376-175.84 53.376-293.962 0-118.092-34.438-237.244-53.376-293.932l3.938 0.75c28.782 27.688 134.748 140.154 134.748 293.182 0 91.248-38.218 167.59-70.312 215.526-25.936 38.778-52.186 65.872-64.436 77.686z m-114.498 0c-12.248-11.812-38.498-38.906-64.404-77.688-32.094-47.936-70.342-124.278-70.342-215.526 0-91.216 38.248-167.558 70.342-215.528 25.906-38.748 52.156-65.842 64.404-77.654 1.344-0.25 2.656-0.5 3.968-0.75-18.966 56.688-53.374 175.84-53.374 293.932 0 118.124 34.406 237.244 53.374 293.962-1.312-0.248-2.624-0.498-3.968-0.748zM66.134 606.904c-15.562-36.782-23.468-75.906-23.468-116.248 0-40.344 7.906-79.436 23.468-116.216 15.032-35.56 36.56-67.53 63.998-94.966 21.344-21.344 45.438-39.092 71.81-52.998a507.38 507.38 0 0 0-16.968 23.782c-51.216 76.154-78.31 159.278-78.31 240.4s27.094 164.278 78.31 240.4a511.714 511.714 0 0 0 16.968 23.812c-26.374-13.906-50.466-31.688-71.81-53.032-27.436-27.436-48.966-59.374-63.998-94.934z m268.714 182.34c-14.844-41.782-57.532-172.934-57.532-298.588 0-125.624 42.688-256.806 57.532-298.556a225.002 225.002 0 0 1 12.968 0c14.844 41.718 57.498 172.746 57.498 298.556 0 125.654-42.686 256.838-57.498 298.588a225.548 225.548 0 0 1-12.968 0z m217.65-87.406c-21.342 21.344-45.404 39.124-71.78 53.032a508.74 508.74 0 0 0 16.968-23.812c51.218-76.124 78.31-159.278 78.31-240.4s-27.092-164.246-78.31-240.4a511.41 511.41 0 0 0-16.968-23.782c26.376 13.906 50.438 31.654 71.78 52.998 27.468 27.438 48.998 59.406 64.03 94.966 15.562 36.782 23.468 75.874 23.468 116.216s-7.906 79.466-23.468 116.248c-15.032 35.56-36.562 67.498-64.03 94.934z" fill="#76A336" /><path d="M341.316 618.654c0 188.528 152.84 341.336 341.336 341.336 188.528 0 341.336-152.808 341.336-341.336H341.316z" fill="#A0D468" /><path d="M682.652 917.334c164.934 0 298.648-133.714 298.648-298.68H384.002c0 164.966 133.716 298.68 298.65 298.68z" fill="#E6E9ED" /><path d="M682.652 895.99c153.152 0 277.338-124.152 277.338-277.336H405.314c0 153.184 124.186 277.336 277.338 277.336z" fill="#ED5564" /><path d="M512 682.652c-11.782 0-21.344 9.562-21.344 21.342 0 11.782 9.562 21.344 21.344 21.344s21.312-9.562 21.312-21.344c0-11.78-9.53-21.342-21.312-21.342zM618.652 682.652c-11.782 0-21.344 9.562-21.344 21.342 0 11.782 9.562 21.344 21.344 21.344s21.344-9.562 21.344-21.344c0-11.78-9.562-21.342-21.344-21.342zM725.308 682.652c-11.782 0-21.312 9.562-21.312 21.342 0 11.782 9.532 21.344 21.312 21.344 11.78 0 21.342-9.562 21.342-21.344 0-11.78-9.562-21.342-21.342-21.342zM831.992 682.652c-11.782 0-21.344 9.562-21.344 21.342 0 11.782 9.562 21.344 21.344 21.344s21.312-9.562 21.312-21.344c0-11.78-9.53-21.342-21.312-21.342z" fill="#434A54" /><path d="M565.466 763.994c-11.782 0-21.31 9.562-21.31 21.344s9.53 21.344 21.31 21.344 21.344-9.562 21.344-21.344-9.562-21.344-21.344-21.344zM672.152 763.994c-11.782 0-21.344 9.562-21.344 21.344s9.562 21.344 21.344 21.344 21.312-9.562 21.312-21.344-9.53-21.344-21.312-21.344zM778.804 763.994c-11.78 0-21.342 9.562-21.342 21.344s9.562 21.344 21.342 21.344c11.782 0 21.344-9.562 21.344-21.344s-9.562-21.344-21.344-21.344z" fill="#434A54" /></svg>