<?xml version="1.0" standalone="no"?><!DOCTYPE svg PUBLIC "-//W3C//DTD SVG 1.1//EN" "http://www.w3.org/Graphics/SVG/1.1/DTD/svg11.dtd"><svg class="icon" width="128px" height="128.00px" viewBox="0 0 1024 1024" version="1.1" xmlns="http://www.w3.org/2000/svg"><path d="M639.996 213.38c0-41.874-20.124-79.058-51.216-102.402 0 0-94.714 17.592-76.778 102.402 82.372 26.874 50.248 117.712 50.248 117.712h0.032c45.684-19.53 77.714-64.872 77.714-117.712z" fill="#F6BB42" /><path d="M631.996 257.876c-41.874-98.308-112.65-101.746-112.712-101.746-8.374 14.406-12.406 33.092-7.282 57.248 82.372 26.874 50.248 117.712 50.248 117.712h0.032c32.154-13.748 57.528-40.278 69.714-73.214z" fill="#4A89DC" /><path d="M448.006 102.542c-36.28 20.936-58.404 56.934-63.09 95.526 0 0 62.59 73.246 127.086 15.312-17.936-84.808 76.778-102.402 76.778-102.402s0.032 0 0.032-0.032c-39.778-29.78-95.06-34.842-140.806-8.404z" fill="#FFCE54" /><path d="M490.504 87.198c-64.184 85.434-31.75 148.43-31.75 148.46 16.686 0.062 34.874-5.782 53.248-22.28-17.936-84.808 76.778-102.402 76.778-102.402s0.032 0 0.032-0.032c-28-20.964-63.686-29.652-98.308-23.746z" fill="#5D9BEB" /><path d="M448.006 324.218c36.248 20.936 78.496 22.124 114.244 6.874 0 0 32.124-90.838-50.248-117.712-64.496 57.934-127.086-15.312-127.086-15.312h-0.032c-5.906 49.342 17.374 99.744 63.122 126.15z" fill="#FFCE54" /><path d="M413.446 295.062c106.088 12.874 144.43-46.684 144.46-46.748-8.282-14.438-22.466-27.28-45.904-34.936-64.496 57.934-127.086-15.312-127.086-15.312h-0.032c-4.156 34.718 6.156 69.966 28.562 96.996z" fill="#5D9BEB" /><path d="M938.606 831.988H85.368c-11.78 0-21.342-9.53-21.342-21.342V448.022c0-11.78 9.562-21.31 21.342-21.31h853.238c11.81 0 21.374 9.532 21.374 21.31v362.624c-0.002 11.812-9.564 21.342-21.374 21.342zM106.68 789.334h810.616V469.366H106.68v319.968z" fill="#E6E9ED" /><path d="M256.016 725.338c-11.78 0-21.342-9.562-21.342-21.344V448.022c0-11.78 9.562-21.31 21.342-21.31a21.298 21.298 0 0 1 21.312 21.31v255.972c0 11.782-9.532 21.344-21.312 21.344zM426.664 725.338c-11.78 0-21.342-9.562-21.342-21.344V448.022c0-11.78 9.562-21.31 21.342-21.31s21.342 9.532 21.342 21.31v255.972c0 11.782-9.562 21.344-21.342 21.344zM597.31 725.338c-11.782 0-21.312-9.562-21.312-21.344V448.022c0-11.78 9.532-21.31 21.312-21.31s21.344 9.532 21.344 21.31v255.972c0 11.782-9.562 21.344-21.344 21.344zM767.99 725.338c-11.812 0-21.344-9.562-21.344-21.344V448.022c0-11.78 9.532-21.31 21.344-21.31 11.748 0 21.31 9.532 21.31 21.31v255.972c0 11.782-9.562 21.344-21.31 21.344z" fill="#E6E9ED" /><path d="M938.606 597.344H85.368c-11.78 0-21.342-9.56-21.342-21.342s9.562-21.312 21.342-21.312h853.238c11.81 0 21.374 9.532 21.374 21.312s-9.564 21.342-21.374 21.342z" fill="#E6E9ED" /><path d="M0.03 660.874v256.456c0 11.78 9.562 21.31 21.342 21.31h981.23c11.812 0 21.374-9.532 21.374-21.31V660.874H0.03z" fill="#5D9BEB" /><path d="M682.65 703.994c-3.282 0-6.532-0.75-9.532-2.25l-33.124-16.56-33.124 16.56a21.38 21.38 0 0 1-19.094 0l-33.124-16.56-33.124 16.56a21.376 21.376 0 0 1-19.092 0l-33.124-16.56-33.124 16.56c-6 3-13.062 3-19.062 0l-33.124-16.56-33.124 16.56c-6 3-13.092 3-19.092 0l-33.124-16.56-33.124 16.56c-6 3-13.062 3-19.062 0l-33.124-16.56-33.156 16.56c-6 3-13.062 3-19.062 0l-33.124-16.56-33.124 16.56a21.35 21.35 0 0 1-16.28 1.156L14.622 681.59c-11.186-3.75-17.218-15.81-13.5-26.998s15.812-17.218 26.966-13.5l55.624 18.562 34.78-17.406c6-3 13.062-3 19.062 0l33.124 16.562 33.124-16.562c6-3 13.092-3 19.092 0l33.124 16.562 33.124-16.562c6-3 13.062-3 19.062 0l33.124 16.562 33.124-16.562c6.032-3 13.092-3 19.092 0l33.124 16.562 33.124-16.562c6-3 13.062-3 19.092 0l33.124 16.562 33.124-16.562c5.998-3 13.06-3 19.06 0l33.124 16.562 33.124-16.562c6-3 13.06-3 19.092 0l33.124 16.562 33.124-16.562c5.998-3 13.06-3 19.092 0l33.124 16.562 33.122-16.562c6-3 13.062-3 19.062 0l33.124 16.562 33.124-16.562c6-3 13.062-3 19.062 0l34.778 17.406 55.624-18.562c11.154-3.718 23.246 2.312 26.964 13.5 3.75 11.188-2.312 23.248-13.498 26.998L945.36 702.9a21.27 21.27 0 0 1-16.248-1.156l-33.124-16.56-33.124 16.56a21.376 21.376 0 0 1-19.092 0l-33.124-16.56-33.154 16.56c-5.998 3-13.06 3-19.06 0l-33.124-16.56-33.122 16.56a21.3 21.3 0 0 1-9.538 2.25z" fill="#4A89DC" /></svg>