<?xml version="1.0" standalone="no"?><!DOCTYPE svg PUBLIC "-//W3C//DTD SVG 1.1//EN" "http://www.w3.org/Graphics/SVG/1.1/DTD/svg11.dtd"><svg class="icon" width="128px" height="128.00px" viewBox="0 0 1024 1024" version="1.1" xmlns="http://www.w3.org/2000/svg"><path d="M350.724 497.794c-37.014-39.938-108.686-63.562-118.982-83.14-47.936 4.39-126.84 12.078-127.466 12.156a21.326 21.326 0 0 0-18.188 15.61 21.316 21.316 0 0 0 7.782 22.656l85.326 64 117.358 27.67c-14-11.344 67.248-44.842 54.17-58.952z" fill="#434A54" /><path d="M985.994 589.34c-1.624-2.062-935.826 13.188-936.608 13.782l111.78-93.498 316.198-97.03c3.656-2.906 90.482-71.25 183.978-71.25 42.218 0 87.562 11.968 134.78 35.578 36.844 18.438 75.03 44.014 113.466 76.03 64.906 54.094 107.936 107.452 109.716 109.702l-33.31 26.686z" fill="#5D9CEC" /><path d="M661.342 424.31a21.3 21.3 0 0 1-14.968-6.11l-127.996-125.636c-8.406-8.25-8.53-21.75-0.282-30.156a21.334 21.334 0 0 1 30.188-0.282l127.996 125.638c8.406 8.25 8.532 21.75 0.282 30.154a21.27 21.27 0 0 1-15.22 6.392z" fill="#E6E9ED" /><path d="M639.186 446.794c-6.406-22.328-32.998-29.812-41.748-32.282-16.03-4.498-37.186-7.592-64.686-9.452-44.03-2.954-103.81-2.546-177.7 1.218-42.812 2.188-85.56 5.266-123.31 8.374 11.594 19.672 30.422 48.062 56.264 75.782 59.952 64.28 127.842 96.342 201.684 92.78l0.938 19.344 57.874 13.654c1.062-1.06 26.124-26.53 49.81-58.498 35.248-47.56 48.624-83.84 40.874-110.92z" fill="#656D78" /><path d="M1019.054 562.372a21.23 21.23 0 0 0-17.718-7.656c-7 0.406-702.626 43.032-907.45 43.032-11.468 0-21.28-0.124-29.156-0.406a21.362 21.362 0 0 0-20.968 14.594L1.106 739.93a21.346 21.346 0 0 0 2.922 19.218 21.34 21.34 0 0 0 17.312 8.844h640c70.5 0 133.186-9.376 186.34-27.844 43.344-15.092 80.532-36.248 110.5-62.874 52.31-46.5 64.686-94.092 65.186-96.092a21.412 21.412 0 0 0-4.312-18.81z" fill="#E6E9ED" /><path d="M936.87 694.37a288.036 288.036 0 0 0 21.312-17.094c12.532-11.156 22.75-22.344 31.06-32.968-27.498 4.844-73.56 10.406-150.686 14.938-93.308 5.468-218.026 8.782-370.662 9.812-175.076 1.218-347.494-0.876-442.382-2.406l-14.14 42.438c73.452 1.25 204.496 3 348.494 3 36.78 0 74.452-0.124 112.17-0.376 154.214-1.094 279.962-4.532 373.74-10.156 36.312-2.188 66.28-4.626 91.094-7.188z" fill="#434A54" /></svg>