<?xml version="1.0" standalone="no"?><!DOCTYPE svg PUBLIC "-//W3C//DTD SVG 1.1//EN" "http://www.w3.org/Graphics/SVG/1.1/DTD/svg11.dtd"><svg class="icon" width="128px" height="128.00px" viewBox="0 0 1024 1024" version="1.1" xmlns="http://www.w3.org/2000/svg"><path d="M697.362 769.118a21.7 21.7 0 0 1-9.344-2.124l-352.99-171.808c-10.562-5.154-15-17.936-9.844-28.53s17.936-15 28.53-9.844l352.99 171.806c10.592 5.156 14.998 17.938 9.842 28.5a21.3 21.3 0 0 1-19.184 12z" fill="#CCD1D9" /><path d="M307.81 938.676a21.34 21.34 0 0 1-19.53-12.812c-4.75-10.782 0.188-23.376 10.968-28.062l389.55-170.684c10.812-4.75 23.374 0.188 28.092 11 4.75 10.75-0.188 23.376-10.966 28.062l-389.552 170.684a21.312 21.312 0 0 1-8.562 1.812z" fill="#CCD1D9" /><path d="M511.992 1023.984c-11.78 0-21.342-9.562-21.342-21.312V533.328c0-11.782 9.562-21.328 21.342-21.328 11.782 0 21.344 9.546 21.344 21.328v469.344c0 11.75-9.562 21.312-21.344 21.312z" fill="#434A54" /><path d="M298.686 1023.984c-0.75 0-1.532-0.062-2.282-0.124-11.718-1.25-20.188-11.75-18.938-23.5l63.998-597.292c1.25-11.718 11.75-20.186 23.468-18.936s20.186 11.764 18.936 23.484l-63.998 597.308c-1.154 10.936-10.404 19.06-21.184 19.06zM725.296 1023.984c-10.75 0-19.966-8.094-21.186-19L638.582 407.66c-1.282-11.704 7.188-22.25 18.906-23.53s22.216 7.172 23.53 18.874l65.498 597.324c1.282 11.718-7.156 22.218-18.876 23.532-0.78 0.062-1.562 0.124-2.344 0.124z" fill="#E6E9ED" /><path d="M511.992 554.686c-94.09 0-170.652-76.576-170.652-170.68V128.012c0-11.78 9.532-21.328 21.312-21.328h298.68c11.782 0 21.31 9.546 21.31 21.328v255.994c0 94.104-76.56 170.68-170.65 170.68z" fill="#5D9CEC" /><path d="M734.11 108.56L521.524 2.266c-6-3-13.064-3-19.062 0L289.124 108.934a21.32 21.32 0 0 0-11.218 23.984 21.34 21.34 0 0 0 20.75 16.42H725.362c11.782 0 21.312-9.546 21.312-21.328a21.34 21.34 0 0 0-12.564-19.45zM426.65 426.674c-11.782 0-21.312-9.562-21.312-21.342v-42.656c0-11.782 9.532-21.342 21.312-21.342 11.78 0 21.342 9.562 21.342 21.342v42.656c0.002 11.78-9.562 21.342-21.342 21.342zM341.34 426.674c-11.78 0-21.342-9.562-21.342-21.342v-42.656c0-11.782 9.562-21.342 21.342-21.342 11.782 0 21.312 9.562 21.312 21.342v42.656c0 11.78-9.53 21.342-21.312 21.342zM511.992 426.674c-11.78 0-21.342-9.562-21.342-21.342v-42.656c0-11.782 9.562-21.342 21.342-21.342 11.782 0 21.344 9.562 21.344 21.342v42.656c0 11.78-9.562 21.342-21.344 21.342zM597.332 426.674c-11.782 0-21.344-9.562-21.344-21.342v-42.656c0-11.782 9.562-21.342 21.344-21.342s21.312 9.562 21.312 21.342v42.656c0 11.78-9.53 21.342-21.312 21.342zM682.642 426.674c-11.78 0-21.31-9.562-21.31-21.342v-42.656c0-11.782 9.532-21.342 21.31-21.342 11.782 0 21.344 9.562 21.344 21.342v42.656c0 11.78-9.562 21.342-21.344 21.342z" fill="#434A54" /><path d="M326.122 767.992a21.34 21.34 0 0 1-19.218-12.032c-5.156-10.594-0.718-23.376 9.906-28.5l352.428-170.65c10.592-5.156 23.342-0.718 28.466 9.876 5.156 10.624 0.718 23.376-9.876 28.498l-352.426 170.684a21.516 21.516 0 0 1-9.28 2.124z" fill="#E6E9ED" /><path d="M715.954 938.676c-2.876 0-5.75-0.594-8.56-1.812L317.528 766.18c-10.782-4.688-15.686-17.282-10.968-28.062 4.718-10.812 17.282-15.75 28.094-11l389.862 170.652c10.782 4.718 15.718 17.312 11 28.094a21.416 21.416 0 0 1-19.562 12.812z" fill="#E6E9ED" /><path d="M554.646 256.008c0 23.56-19.092 42.67-42.656 42.67-23.562 0-42.654-19.11-42.654-42.67 0-23.562 19.092-64 42.654-64 23.564 0.002 42.656 40.438 42.656 64z" fill="#F5F7FA" /><path d="M682.642 426.674H341.34c-11.78 0-21.342-9.562-21.342-21.342 0-11.782 9.562-21.328 21.342-21.328h341.302c11.782 0 21.344 9.546 21.344 21.328 0 11.78-9.562 21.342-21.344 21.342z" fill="#656D78" /></svg>