<?xml version="1.0" standalone="no"?><!DOCTYPE svg PUBLIC "-//W3C//DTD SVG 1.1//EN" "http://www.w3.org/Graphics/SVG/1.1/DTD/svg11.dtd"><svg class="icon" width="128px" height="128.00px" viewBox="0 0 1024 1024" version="1.1" xmlns="http://www.w3.org/2000/svg"><path d="M682.656 682.688H341.346S106.658 1023.996 192.002 1023.996 512 981.308 512 981.308s234.654 42.688 319.998 42.688-149.342-341.308-149.342-341.308z" fill="#DA4453" /><path d="M959.998 448c0 247.438-200.562 447.998-447.998 447.998S64.002 695.438 64.002 448C64.002 200.58 264.564 0.004 512 0.004S959.998 200.58 959.998 448z" fill="#ED5564" /><path d="M512 0.004c-7.156 0-14.25 0.188-21.344 0.516C728.186 11.66 917.342 207.736 917.342 448c0 240.25-189.156 436.342-426.686 447.498 7.094 0.312 14.188 0.5 21.344 0.5 247.436 0 447.998-200.56 447.998-447.998C959.998 200.58 759.436 0.004 512 0.004z" fill="#FFFFFF" opacity=".1" /><path d="M767.998 469.328c0 141.39-114.624 255.984-255.998 255.984s-255.998-114.594-255.998-255.984c0-141.374 114.624-255.998 255.998-255.998s255.998 114.626 255.998 255.998z" fill="#DA4453" /><path d="M512 645.312c-97.032 0-175.998-78.938-175.998-175.984 0-97.044 78.966-175.998 175.998-175.998s176 78.954 176 175.998c0 97.048-78.968 175.984-176 175.984z" fill="#5D9CEC" /><path d="M512 293.33c-10.938 0-21.624 1.016-32 2.922 81.812 15.094 144 86.968 144 173.076 0 86.11-62.188 157.984-144 173.078a176.926 176.926 0 0 0 32 2.906c97.032 0 176-78.938 176-175.984 0-97.044-78.968-175.998-176-175.998z" fill="#FFFFFF" opacity=".1" /><path d="M512 272.002c-108.968 0-197.342 88.344-197.342 197.326 0 108.984 88.374 197.36 197.342 197.36s197.342-88.376 197.342-197.36c0-108.982-88.374-197.326-197.342-197.326z m109.376 306.686C592.156 607.906 553.312 624 512 624s-80.156-16.094-109.376-45.312c-29.218-29.188-45.282-68.046-45.282-109.36s16.062-80.138 45.282-109.358 68.062-45.296 109.376-45.296 80.156 16.078 109.376 45.296 45.282 68.044 45.282 109.358-16.064 80.172-45.282 109.36z" fill="#4A89DC" /><path d="M533.344 128.002c0 11.782-9.562 21.328-21.344 21.328s-21.344-9.546-21.344-21.328S500.218 106.674 512 106.674s21.344 9.546 21.344 21.328z" fill="#434A54" /></svg>