<?xml version="1.0" standalone="no"?><!DOCTYPE svg PUBLIC "-//W3C//DTD SVG 1.1//EN" "http://www.w3.org/Graphics/SVG/1.1/DTD/svg11.dtd"><svg class="icon" width="128px" height="128.00px" viewBox="0 0 1024 1024" version="1.1" xmlns="http://www.w3.org/2000/svg"><path d="M883.738 279.266l-362.66-170.682L512 127.896l-9.092-19.312-362.27 170.682 18.188 38.592L512 151.458l353.55 166.4z" fill="#434A54" /><path d="M512 170.55c-23.53 0-42.67-19.124-42.67-42.654 0-23.532 19.14-42.656 42.67-42.656 23.532 0 42.686 19.124 42.686 42.656 0 23.53-19.154 42.654-42.686 42.654z" fill="#FFCE54" /><path d="M512 63.898c-35.342 0-63.998 28.654-63.998 63.998 0 35.342 28.656 63.996 63.998 63.996s63.998-28.654 63.998-63.996c0-35.344-28.656-63.998-63.998-63.998z m0 85.34c-11.764 0-21.328-9.594-21.328-21.342 0-11.782 9.562-21.344 21.328-21.344s21.328 9.562 21.328 21.344c0 11.748-9.562 21.342-21.328 21.342z" fill="#F6BB42" /><path d="M21.344 255.89h981.326v682.836H21.344z" fill="#5D9CEC" /><path d="M738.65 431.822c-226.978 0-193.028 332.788-193.028 332.788s32.468 38.81 193.778 38.81c161.336 0 194.024-39.124 194.024-39.124s32.188-332.474-194.774-332.474z" fill="#CCD1D9" /><path d="M941.612 834.606l-1.562-0.438c-26.376-7.124-45.688-13.938-57.31-18.438-41.186-15.874-51.936-27.31-54.686-32.686a5.206 5.206 0 0 1-0.25-0.624l-0.376-50.374-176.056 2-0.344 48.374c-0.094 0.188-0.156 0.438-0.282 0.624-2.718 5.376-13.438 16.812-54.686 32.686-11.594 4.5-30.938 11.312-57.046 18.376l-1.794 0.5c-23.766 7.938-39.75 30.25-39.75 55.376v69.872H981.36V889.98c0-25.124-15.998-47.438-39.748-55.374z" fill="#E6E9ED" /><path d="M876.488 639.926c0 89.122-84.904 174.742-137.088 174.742-52.156 0-137.09-85.622-137.09-174.742 0-89.06 61.372-147.824 137.09-147.824 75.716 0 137.088 58.764 137.088 147.824z" fill="#EAC6BB" /><path d="M581.124 808.042l-1.876-0.562c-31.938-8.686-55.374-16.936-69.466-22.374-49.966-19.248-62.998-33.06-66.31-39.624-0.11-0.25-0.204-0.5-0.312-0.75l-0.454-61.124-213.446 2.438-0.422 58.686c-0.11 0.25-0.204 0.5-0.312 0.75-3.328 6.562-16.328 20.376-66.31 39.624-14.078 5.438-37.544 13.688-69.184 22.31l-2.172 0.624c-28.812 9.624-48.202 36.624-48.202 67.062v84.746h586.652v-84.746c-0.002-30.434-19.344-57.434-48.186-67.06z" fill="#434A54" /><path d="M365.318 842.542h-58.654l-29.328 117.31h117.34z" fill="#DA4453" /><path d="M751.024 492.57c-12.904 4-25.404 8.094-30.03 9.188-10.624 2.438-42.156 34.218-42.156 34.218l47.344 39.702s58.122 38.186 148.994 41.874c-8.876-72.062-60.28-119.826-124.152-124.982z" fill="#F6BB42" /><path d="M365.318 842.542h-58.654l-39.124-103.932h136.902z" fill="#ED5564" /><path d="M232.276 709.422l-22.218 52.938 58.872 72.682 65.404-51.184z" fill="#656D78" /><path d="M436.394 709.422l22.202 52.938-58.874 72.682-65.388-51.184z" fill="#656D78" /><path d="M502.22 571.99c0 107.996-102.966 211.868-166.23 211.868-63.262 0-166.228-103.872-166.228-211.868 0-108.012 74.42-179.26 166.228-179.26 91.81 0 166.23 71.248 166.23 179.26z" fill="#EAC6BB" /><path d="M443.112 373.168c-28.28-25.624-123.042-57.03-217.572 0-47.858 28.876-82.716 156.464-82.716 156.464s93.372 52.918 214.93-4.282c72.716-34.25 71.09-16.312 91.872 14.874 12.328 18.454 52.592 31.766 52.592 31.766s31.344-116.918-59.106-198.822z" fill="#434A54" /><path d="M603.31 620.488c114.59-18.438 174.118-94.356 189.93-117.636-16.562-7.032-34.748-10.75-53.84-10.75-70.062 0-127.84 50.31-136.09 128.386z" fill="#FFCE54" /><path d="M0.018 234.548V960.1h1023.964V234.548H0.018z m981.278 682.868H42.688V277.234h938.608v640.182z" fill="#656D78" /></svg>