<?xml version="1.0" standalone="no"?><!DOCTYPE svg PUBLIC "-//W3C//DTD SVG 1.1//EN" "http://www.w3.org/Graphics/SVG/1.1/DTD/svg11.dtd"><svg class="icon" width="128px" height="128.00px" viewBox="0 0 1024 1024" version="1.1" xmlns="http://www.w3.org/2000/svg"><path d="M26.83 363.434L821.116 109.632l176.056 550.934-794.286 253.806z" fill="#4A89DC" /><path d="M834.928 82.82L0.018 349.624l189.04 591.556 834.924-266.8-189.054-591.56zM53.64 377.248L807.302 136.442l163.058 510.312-753.646 240.804L53.64 377.248z" fill="#CCD1D9" /><path d="M106.686 234.69H917.3v554.624H106.686z" fill="#5D9CEC" /><path d="M85.342 213.346v597.336h853.332V213.346H85.342zM895.986 768H128.014V256.032h767.972V768z" fill="#E6E9ED" /><path d="M697.432 336.03c-185.698 0-157.918 272.224-157.918 272.224s26.546 31.75 158.542 31.75 158.714-32 158.714-32 26.344-271.974-159.338-271.974z" fill="#CCD1D9" /><path d="M863.488 665.566l-1.282-0.376c-21.56-5.812-37.374-11.438-46.904-15.062-33.688-13-42.5-22.376-44.718-26.75-0.094-0.188-0.156-0.376-0.218-0.5l-0.312-41.25-144.026 1.624-0.282 39.624c-0.062 0.124-0.124 0.312-0.218 0.5-2.216 4.376-11.03 13.75-44.716 26.75-9.532 3.624-25.376 9.25-46.716 15l-1.468 0.438c-19.438 6.5-32.514 24.75-32.514 45.308V768h395.876v-57.124c-0.004-20.56-13.064-38.81-32.502-45.31z" fill="#E6E9ED" /><path d="M810.24 506.306c0 72.89-69.496 142.948-112.184 142.948s-112.184-70.058-112.184-142.948c0-72.904 50.248-120.996 112.184-120.996s112.184 48.092 112.184 120.996z" fill="#EAC6BB" /><path d="M568.56 643.816l-1.532-0.5c-26.14-7.062-45.31-13.812-56.842-18.25-40.888-15.75-51.544-27.062-54.248-32.438-0.11-0.188-0.172-0.438-0.266-0.624l-0.376-49.98-174.62 1.984-0.344 47.996c-0.094 0.188-0.172 0.438-0.266 0.624-2.718 5.376-13.358 16.688-54.248 32.438-11.514 4.438-30.718 11.188-56.608 18.25l-1.782 0.5c-23.562 7.876-39.42 29.938-39.42 54.872V768h479.984v-69.312c0.006-24.934-15.838-46.996-39.432-54.872z" fill="#434A54" /><path d="M392.004 672.004h-48.014L320.022 768h95.998z" fill="#DA4453" /><path d="M707.556 385.716c-10.562 3.282-20.812 6.624-24.562 7.5-8.688 2-34.498 27.998-34.498 27.998l38.748 32.5s47.562 31.216 121.872 34.28c-7.25-58.998-49.312-98.06-101.56-102.278z" fill="#F6BB42" /><path d="M392.004 672.004h-48.014l-31.998-85h112.01z" fill="#ED5564" /><path d="M283.132 563.132l-18.17 43.31 48.186 59.436 53.498-41.874zM450.142 563.132l18.172 43.31-48.17 59.436-53.498-41.874z" fill="#656D78" /><path d="M504.002 450.682c0 88.372-84.248 173.322-135.998 173.322-51.764 0-136.01-84.95-136.01-173.322s60.888-146.652 136.01-146.652c75.108 0.002 135.998 58.28 135.998 146.652z" fill="#EAC6BB" /><path d="M455.642 288.032c-23.14-20.968-100.668-46.686-178.01 0-39.154 23.624-67.668 127.996-67.668 127.996s76.404 43.28 175.838-3.5c59.498-28 58.168-13.342 75.168 12.156 10.078 15.124 43.032 26 43.032 26s25.638-95.654-48.36-162.652z" fill="#434A54" /><path d="M586.716 490.368c93.746-15.092 142.434-77.184 155.338-96.246-13.498-5.718-28.374-8.812-43.998-8.812-57.31 0-104.62 41.186-111.34 105.058z" fill="#FFCE54" /></svg>