<?xml version="1.0" standalone="no"?><!DOCTYPE svg PUBLIC "-//W3C//DTD SVG 1.1//EN" "http://www.w3.org/Graphics/SVG/1.1/DTD/svg11.dtd"><svg class="icon" width="128px" height="128.00px" viewBox="0 0 1024 1024" version="1.1" xmlns="http://www.w3.org/2000/svg"><path d="M767.992 247.968c0-23.466-19.188-42.686-42.686-42.686H298.68c-23.468 0-42.67 19.218-42.67 42.686v257.554c0 23.468 19.204 42.67 42.67 42.67h426.626c23.498 0 42.686-19.202 42.686-42.67V247.968z" fill="#E6E9ED" /><path d="M895.986 503.96c0-23.468-19.186-42.686-42.684-42.686H170.684c-23.468 0-42.67 19.216-42.67 42.686v213.29c0 23.5 19.202 42.688 42.67 42.688h682.62c23.498 0 42.684-19.188 42.684-42.688V503.96z" fill="#E6E9ED" /><path d="M537.42 8.072c-8.982 0.032-17.624 2.062-25.42 5.968-7.796-3.906-16.436-5.938-25.42-5.938-31.39 0-56.936 25.53-56.936 56.904 0 51.466 64.28 90.434 71.608 94.714L512 165.972l10.75-6.25c7.328-4.282 71.624-43.248 71.624-94.714 0-31.376-25.564-56.904-56.954-56.936z" fill="#ED5564" /><path d="M537.42 8.072a60.66 60.66 0 0 0-10.686 1.032c26.326 4.998 46.264 28.154 46.264 55.904 0 51.466-64.248 90.434-71.576 94.714l-0.094 0.032L512 165.972l10.75-6.25c7.328-4.282 71.624-43.248 71.624-94.714 0-31.376-25.564-56.904-56.954-56.936z" fill="#FFFFFF" opacity=".2" /><path d="M1023.982 759.938c0-23.438-19.188-42.688-42.686-42.688H42.688C19.22 717.25 0.018 736.5 0.018 759.938v213.304c0 23.5 19.202 42.686 42.67 42.686h938.608c23.498 0 42.686-19.186 42.686-42.686V759.938z" fill="#E6E9ED" /><path d="M981.296 759.938H42.688c-23.468 0-42.67 19.186-42.67 42.686v53.186c22.578 20 52.28 32.124 84.826 32.124 44.358 0 83.434-22.562 106.402-56.876 22.968 34.312 62.06 56.876 106.418 56.876 44.686 0 84.012-22.938 106.918-57.624 22.89 34.688 62.216 57.624 106.902 57.624 44.702 0 84.014-22.938 106.92-57.624 22.904 34.688 62.214 57.624 106.902 57.624 44.714 0 84.058-22.938 106.934-57.624 22.876 34.688 62.246 57.624 106.934 57.624 32.532 0 62.248-12.124 84.808-32.124v-53.186c0-23.5-19.188-42.686-42.686-42.686z" fill="#D770AD" /><path d="M981.296 717.25H42.688C19.22 717.25 0.018 736.5 0.018 759.938v53.184c22.578 20 52.28 32.124 84.826 32.124 44.358 0 83.434-22.562 106.402-56.81 22.968 34.248 62.06 56.81 106.418 56.81 44.686 0 84.012-22.876 106.918-57.624 22.89 34.748 62.216 57.624 106.902 57.624 44.702 0 84.014-22.876 106.92-57.624 22.904 34.748 62.214 57.624 106.902 57.624 44.714 0 84.058-22.876 106.934-57.624 22.876 34.748 62.246 57.624 106.934 57.624 32.532 0 62.248-12.124 84.808-32.124v-53.184c0-23.438-19.188-42.688-42.686-42.688z" fill="#EC87C0" /><path d="M297.664 375.964c44.686 0 84.012-22.936 106.918-57.624 22.89 34.688 62.216 57.624 106.902 57.624 44.702 0 84.014-22.936 106.92-57.624 22.904 34.688 62.214 57.624 106.902 57.624 15 0 29.342-2.594 42.686-7.312v-120.684H256.008v121.028a127.614 127.614 0 0 0 41.656 6.968z" fill="#D770AD" /><path d="M256.008 247.968v78.374a127.59 127.59 0 0 0 41.656 6.938c44.686 0 84.012-22.906 106.918-57.624 22.89 34.716 62.216 57.624 106.902 57.624 44.702 0 84.014-22.906 106.92-57.624 22.904 34.716 62.214 57.624 106.902 57.624 15 0 29.342-2.562 42.686-7.282v-78.03c0-23.466-19.188-42.686-42.686-42.686H298.68c-23.468 0.002-42.672 19.22-42.672 42.686z" fill="#EC87C0" /><path d="M191.246 575.068c22.968 34.31 62.06 56.874 106.418 56.874 44.686 0 84.012-22.938 106.918-57.624 22.89 34.686 62.216 57.624 106.902 57.624 44.702 0 84.014-22.938 106.92-57.624 22.904 34.686 62.214 57.624 106.902 57.624 44.714 0 84.058-22.938 106.934-57.624 15.124 22.936 37.436 40.748 63.746 50.124v-120.48H128.014v120.542a128.538 128.538 0 0 0 63.232-49.436z" fill="#D770AD" /><path d="M128.014 503.96v77.856c26-9.31 48.108-26.81 63.232-49.386 22.968 34.264 62.06 56.824 106.418 56.824 44.686 0 84.012-22.874 106.918-57.606 22.89 34.732 62.216 57.606 106.902 57.606 44.702 0 84.014-22.874 106.92-57.606 22.904 34.732 62.214 57.606 106.902 57.606 44.714 0 84.058-22.874 106.934-57.606a128.184 128.184 0 0 0 63.746 50.168V503.96c0-23.468-19.186-42.686-42.684-42.686H170.684c-23.468 0.002-42.67 19.218-42.67 42.686z" fill="#EC87C0" /></svg>