<?xml version="1.0" standalone="no"?><!DOCTYPE svg PUBLIC "-//W3C//DTD SVG 1.1//EN" "http://www.w3.org/Graphics/SVG/1.1/DTD/svg11.dtd"><svg class="icon" width="128px" height="128.00px" viewBox="0 0 1024 1024" version="1.1" xmlns="http://www.w3.org/2000/svg"><path d="M776.794 140.512L648.8 12.518l-12.5-12.5H21.338V1023.982H789.294V153.012z" fill="#E6E9ED" /><path d="M170.676 597.372h469.312c11.75 0 21.31-9.562 21.31-21.374 0-11.75-9.56-21.312-21.31-21.312H170.676c-11.81 0-21.342 9.562-21.342 21.312 0 11.81 9.532 21.374 21.342 21.374zM639.988 682.682H170.676c-11.81 0-21.342 9.562-21.342 21.31 0 11.812 9.532 21.376 21.342 21.376h469.312c11.75 0 21.31-9.562 21.31-21.376 0-11.748-9.56-21.31-21.31-21.31zM405.324 810.676H170.676c-11.81 0-21.342 9.562-21.342 21.312 0 11.812 9.532 21.376 21.342 21.376h234.648c11.782 0 21.344-9.562 21.344-21.376 0-11.75-9.562-21.312-21.344-21.312z" fill="#434A54" /><path d="M945.666 682.244h-56.688l-56.996 199.12 85.31 56.87 85.37-56.87z" fill="#E6E9ED" /><path d="M917.292 127.576c-47.124 0-85.308 38.186-85.308 85.308v575.98h170.68v-575.98c-0.002-47.122-38.248-85.308-85.372-85.308z" fill="#656D78" /><path d="M789.294 153.012H636.3V0.018z" fill="#CCD1D9" /><path d="M345.31 164.918c-18.576 0-36.264 5.376-51.374 15.376-15.094-10-32.794-15.376-51.358-15.376-51.404 0-93.23 41.81-93.23 93.246 0 40.282 23.06 81.874 68.542 123.558 32.14 29.468 63.966 48.154 65.31 48.936l10.75 6.282 10.734-6.282c1.344-0.782 33.17-19.466 65.31-48.936 45.482-41.686 68.544-83.278 68.544-123.558 0.004-51.436-41.824-93.246-93.228-93.246z" fill="#ED5564" /><path d="M345.31 164.918a94.02 94.02 0 0 0-21.436 2.468c41.216 9.624 72.012 46.654 72.012 90.778 0 40.282-23.076 81.874-68.558 123.558-21.312 19.562-42.484 34.344-54.716 42.31 6.216 4.062 10.138 6.376 10.592 6.624l10.75 6.282 10.734-6.282c1.344-0.782 33.17-19.466 65.31-48.936 45.482-41.686 68.544-83.278 68.544-123.558 0-51.434-41.828-93.244-93.232-93.244z" fill="#FFFFFF" opacity=".2" /></svg>