<?xml version="1.0" standalone="no"?><!DOCTYPE svg PUBLIC "-//W3C//DTD SVG 1.1//EN" "http://www.w3.org/Graphics/SVG/1.1/DTD/svg11.dtd"><svg class="icon" width="128px" height="128.00px" viewBox="0 0 1024 1024" version="1.1" xmlns="http://www.w3.org/2000/svg"><path d="M725.338 1023.988H298.692c-8.5 0-16.188-5.032-19.562-12.812-5.5-12.624-133.998-310.492-103.498-460.74 17.812-87.702 46.156-138.106 68.906-178.606 15.718-27.966 28.124-50.044 33.186-77.076 10.438-55.624-26.968-212.134-42.28-267.744a21.318 21.318 0 0 1 3.624-18.594 21.316 21.316 0 0 1 16.938-8.406h511.988c6.688 0 12.938 3.11 16.968 8.406a21.31 21.31 0 0 1 3.624 18.594c-15.312 55.608-52.718 212.12-42.282 267.744 5.062 27.032 17.5 49.11 33.188 77.076 22.75 40.5 51.06 90.904 68.874 178.606 30.53 150.248-97.966 448.116-103.466 460.74a21.308 21.308 0 0 1-19.562 12.812z" fill="#EAC6BB" /><path d="M512 746.682c-11.75 0-21.312 9.532-21.312 21.312v255.994h42.654V767.994c0-11.782-9.532-21.312-21.342-21.312z" fill="#DBAFA5" /><path d="M847.868 548.436a21.314 21.314 0 0 0-20.376-15.092H196.57a21.348 21.348 0 0 0-20.406 15.092c-2.75 8.938 0.688 18.656 8.438 23.906l315.46 213.338a21.356 21.356 0 0 0 23.904 0l315.462-213.338c7.752-5.25 11.19-14.968 8.44-23.906z" fill="#EC87C0" /><path d="M1002.676 256.022h-119.154l27.562-27.594c8.344-8.328 8.344-21.828 0-30.17-8.312-8.328-21.844-8.328-30.156 0l-63.998 64c-0.5 0.5-0.968 1.032-1.438 1.578-0.188 0.234-0.344 0.484-0.532 0.734a14.052 14.052 0 0 0-0.686 0.938c-0.218 0.296-0.376 0.61-0.562 0.922-0.188 0.282-0.344 0.562-0.532 0.86-0.156 0.328-0.312 0.64-0.438 0.968-0.156 0.312-0.312 0.61-0.438 0.922-0.124 0.328-0.25 0.64-0.344 0.954-0.124 0.344-0.25 0.672-0.376 1.032-0.094 0.312-0.156 0.64-0.25 0.968a11.22 11.22 0 0 0-0.25 1.046c-0.062 0.376-0.124 0.75-0.156 1.124a10.08 10.08 0 0 0-0.156 0.938 23.96 23.96 0 0 0 0 4.218c0.032 0.312 0.094 0.624 0.156 0.938 0.032 0.376 0.094 0.75 0.156 1.124 0.062 0.36 0.156 0.704 0.25 1.062 0.094 0.312 0.156 0.64 0.25 0.954l0.376 1.032c0.094 0.312 0.218 0.624 0.344 0.938 0.124 0.328 0.282 0.624 0.438 0.936 0.156 0.328 0.282 0.64 0.438 0.954 0.188 0.296 0.344 0.594 0.532 0.876 0.156 0.282 0.312 0.546 0.468 0.812 0.032 0.032 0.062 0.078 0.094 0.11 0.218 0.328 0.468 0.624 0.686 0.938 0.188 0.25 0.344 0.5 0.532 0.734 0.468 0.546 0.938 1.078 1.438 1.578l63.998 63.984a21.21 21.21 0 0 0 15.062 6.25c5.468 0 10.938-2.078 15.094-6.25 8.344-8.328 8.344-21.828 0-30.17l-27.562-27.578h119.154c11.782 0 21.312-9.546 21.312-21.328 0-11.786-9.53-21.332-21.312-21.332zM211.288 286.458c0.156-0.312 0.312-0.624 0.438-0.952 0.124-0.312 0.25-0.624 0.344-0.938l0.376-1.032c0.094-0.312 0.156-0.64 0.25-0.954 0.062-0.36 0.188-0.704 0.25-1.062 0.062-0.376 0.124-0.75 0.156-1.124a10.08 10.08 0 0 0 0.156-0.938 23.96 23.96 0 0 0 0-4.218c-0.032-0.312-0.094-0.61-0.124-0.922-0.062-0.376-0.124-0.766-0.188-1.14-0.062-0.36-0.188-0.704-0.25-1.046-0.094-0.328-0.156-0.656-0.25-0.968-0.124-0.36-0.25-0.688-0.376-1.032-0.094-0.312-0.218-0.624-0.344-0.954-0.124-0.312-0.282-0.61-0.438-0.922-0.156-0.328-0.282-0.64-0.438-0.968-0.188-0.296-0.344-0.578-0.532-0.876s-0.344-0.61-0.562-0.906c-0.218-0.328-0.468-0.64-0.688-0.968-0.188-0.234-0.344-0.468-0.562-0.702a19.38 19.38 0 0 0-1.406-1.578l-64-64c-8.312-8.328-21.842-8.328-30.156 0-8.344 8.342-8.344 21.842 0 30.17l27.562 27.594H21.354c-11.782 0-21.342 9.546-21.342 21.328 0 11.78 9.562 21.328 21.342 21.328h119.154l-27.562 27.578c-8.344 8.344-8.344 21.844 0 30.17a21.21 21.21 0 0 0 15.062 6.25c5.468 0 10.936-2.078 15.092-6.25l64-63.984c0.5-0.5 0.968-1.032 1.438-1.578 0.156-0.234 0.344-0.468 0.5-0.704 0.25-0.328 0.5-0.64 0.718-0.968a0.766 0.766 0 0 1 0.094-0.11c0.156-0.25 0.312-0.532 0.468-0.782 0.156-0.312 0.344-0.594 0.532-0.906 0.156-0.312 0.282-0.624 0.438-0.936z" fill="#967ADC" /><path d="M848.368 550.436c-17.812-87.702-46.124-138.106-68.874-178.606-15.688-27.966-28.124-50.044-33.188-77.076-10.438-55.624 26.968-212.134 42.282-267.744a21.318 21.318 0 0 0-3.624-18.594 21.288 21.288 0 0 0-16.968-8.406H725.34c6.656 0 12.938 3.11 16.968 8.406a21.298 21.298 0 0 1 3.594 18.594c-15.282 55.608-52.688 212.12-42.25 267.744 5.062 27.032 17.468 49.11 33.188 77.076 22.75 40.5 51.062 90.904 68.876 178.606 30.53 150.248-98 448.116-103.468 460.74a21.34 21.34 0 0 1-19.56 12.812h42.654c8.5 0 16.188-5.032 19.562-12.812 5.496-12.626 133.992-310.492 103.464-460.74z" fill="#FFFFFF" opacity=".2" /></svg>