<?xml version="1.0" standalone="no"?><!DOCTYPE svg PUBLIC "-//W3C//DTD SVG 1.1//EN" "http://www.w3.org/Graphics/SVG/1.1/DTD/svg11.dtd"><svg class="icon" width="128px" height="128.00px" viewBox="0 0 1024 1024" version="1.1" xmlns="http://www.w3.org/2000/svg"><path d="M920.414 730.052l-3.624-1.062c-52.938-14.216-70.872-27.874-94.432-36.842-83.562-31.844-105.31-54.81-110.874-65.654-0.188-0.376-0.376-0.812-0.562-1.188l-0.688-97.106-198.226-2.25-198.274 2.25-0.688 97.106c-0.188 0.376-0.344 0.812-0.532 1.188-5.562 10.844-27.31 33.81-110.902 65.654-23.56 8.968-41.466 22.624-94.402 36.842l-3.656 1.062c-48.186 15.906-80.59 60.624-80.59 111.06v182.868H1001.034v-182.868c0.002-50.436-32.434-95.154-80.62-111.06z" fill="#ED5564" /><path d="M366.732 614.902l-4.062 89.528s50.03 42.216 149.026 42.216c98.98 0 149.604-42.216 149.604-42.216l15.188-109.526-309.756 19.998z" fill="#DBAFA5" /><path d="M313.046 625.306c-0.188 0.376-0.344 0.812-0.532 1.188-3.25 6.312-11.968 16.75-35.186 30.624v174.872h85.34V533.56l-49.154 25.094-0.468 66.652zM746.67 657.118c-23.248-13.874-31.936-24.31-35.186-30.624-0.188-0.376-0.376-0.812-0.562-1.188l-0.25-34.902-49.374-15.968v257.552h85.372v-174.87z" fill="#F6BB42" /><path d="M774.982 46.018C747.67 14.206 704.61 0.02 635.362 0.02H388.608c-54.466 0-97.184 15.06-126.902 44.794-32.31 32.294-48.654 81.48-48.686 146.182v208.118c0 71.872 19.248 139.182 54.186 189.542 42.686 61.494 105.996 93.994 183.088 93.994h123.384c75.308 0 138.744-36.716 183.492-106.15 39.624-61.546 53.812-131.98 53.812-177.384V190.996c0-72.184-10.812-115.542-36-144.978z" fill="#656D78" /><path d="M774.982 46.018C747.67 14.206 704.61 0.02 635.362 0.02h-21.31c69.248 0 112.306 14.186 139.556 45.998 25.25 29.436 36 72.794 36 144.978v208.118c0 45.406-14.124 115.838-53.75 177.384-44.81 69.434-108.246 106.15-183.49 106.15h21.31c75.308 0 138.744-36.716 183.492-106.15 39.624-61.546 53.812-131.98 53.812-177.384V190.996c0-72.184-10.812-115.542-36-144.978z" fill="#FFFFFF" opacity=".1" /><path d="M320.016 213.338h383.968v213.32H320.016z" fill="#5D9CEC" /><path d="M683.986 170.668H340.014c-11.81 0-21.342-9.546-21.342-21.328s9.532-21.342 21.342-21.342h343.972c11.748 0 21.31 9.562 21.31 21.342s-9.562 21.328-21.31 21.328z" fill="#434A54" /><path d="M490.666 213.338L448.012 426.66h85.308l42.67-213.322z" fill="#FFFFFF" opacity=".1" /><path d="M213.05 810.644h597.306V1023.98H213.05z" fill="#FFCE54" /></svg>