<?xml version="1.0" standalone="no"?><!DOCTYPE svg PUBLIC "-//W3C//DTD SVG 1.1//EN" "http://www.w3.org/Graphics/SVG/1.1/DTD/svg11.dtd"><svg class="icon" width="128px" height="128.00px" viewBox="0 0 1024 1024" version="1.1" xmlns="http://www.w3.org/2000/svg"><path d="M501.314 554.686c-11.78 0-21.342-9.532-21.342-21.312v-42.686c0-11.782 9.562-21.312 21.342-21.312 11.782 0 21.344 9.532 21.344 21.312v42.686c0 11.78-9.562 21.312-21.344 21.312z" fill="#ED5564" /><path d="M314.666 1023.98c-72.56 0-170.15-29.032-291.864-86.966-10.624-5.062-15.156-17.782-10.094-28.436 5.062-10.624 17.782-15.156 28.436-10.094 96.872 46.124 177.62 73.28 239.992 80.78 46.156 5.53 81.246 0.312 104.278-15.5 33.936-23.312 31.218-63.842 31.092-65.56l0.032 0.156 42.466-3.876c0.25 2.688 5.406 66.216-48.748 103.964-24.406 17.032-56.342 25.532-95.59 25.532zM437.286 469.376c-11.78 0-21.342-9.562-21.342-21.34V170.7c0-9.812 6.656-18.344 16.156-20.718l170.712-42.654a21.352 21.352 0 0 1 25.874 15.53 21.35 21.35 0 0 1-15.53 25.874L458.6 187.356v260.678c-0.002 11.78-9.532 21.342-21.314 21.342z" fill="#434A54" /><path d="M458.66 725.74h-42.216c-11.782 0-21.344 9.562-21.344 21.344v149.338c0 11.782 9.562 21.344 21.344 21.344h42.216c11.78 0 21.312-9.562 21.312-21.344v-149.338c0-11.782-9.532-21.344-21.312-21.344z" fill="#656D78" /><path d="M458.66 875.078c0 11.782 9.53 21.344 21.312 21.344v-42.686c-11.782 0-21.312 9.56-21.312 21.342zM416.444 875.078c0-11.782-9.562-21.342-21.344-21.342v42.686c11.78 0 21.344-9.562 21.344-21.344z" fill="#434A54" /><path d="M480.44 426.69h-85.34c-11.78 0-21.342 9.562-21.342 21.344v363.048c0 11.782 9.562 21.344 21.342 21.344h85.34c11.782 0 21.342-9.562 21.342-21.344V448.034c0.002-11.782-9.56-21.344-21.342-21.344zM732.524 135.608c-34.342 8.374-66.684-3.406-72.278-26.31-5.562-22.876 17.75-48.218 52.092-56.592 34.342-8.376 273.99-47.092 279.55-24.218 5.594 22.904-225.02 98.744-259.364 107.12z" fill="#FFCE54" /><path d="M710.588 159.638c-35.904 0-64.466-18.188-71.06-45.278-8.5-34.876 21.282-71.06 67.748-82.374C732.65 25.798 886.236 0.02 958.172 0.02c18.218 0 48.748 0 54.436 23.436 2.906 11.906-2.562 23.032-16.218 33.062-6.688 4.906-15.998 10.25-28.466 16.342-20.06 9.844-48.06 21.468-83.28 34.624-60.308 22.53-128.432 44.31-147.056 48.84-9.002 2.188-18.062 3.314-27 3.314z m218.524-115.84c-72.968 4.844-188.744 24.03-211.71 29.624-25.312 6.188-38.466 22.376-36.404 30.844 1.5 6.25 12.998 12.718 29.592 12.718 5.532 0 11.218-0.718 16.904-2.094 15.406-3.75 73.062-22.094 128.276-42.218 32.528-11.874 56.186-21.374 73.342-28.874z" fill="#F6BB42" /></svg>