<?xml version="1.0" standalone="no"?><!DOCTYPE svg PUBLIC "-//W3C//DTD SVG 1.1//EN" "http://www.w3.org/Graphics/SVG/1.1/DTD/svg11.dtd"><svg class="icon" width="128px" height="128.00px" viewBox="0 0 1024 1024" version="1.1" xmlns="http://www.w3.org/2000/svg"><path d="M938.664 298.664H85.338c-35.282 0-63.998 28.718-63.998 63.998v85.326C21.34 483.282 50.056 512 85.338 512h853.326c35.248 0 63.996-28.718 63.996-64.012v-85.326c0-35.28-28.748-63.998-63.996-63.998z" fill="#CCD1D9" /><path d="M127.992 405.332H106.68c-11.78 0-21.342-9.546-21.342-21.342 0-11.78 9.562-21.328 21.342-21.328h21.312c11.78 0 21.326 9.546 21.326 21.328 0 11.796-9.546 21.342-21.326 21.342zM127.992 447.988H106.68c-11.78 0-21.342-9.546-21.342-21.328s9.562-21.328 21.342-21.328h21.312c11.78 0 21.326 9.546 21.326 21.328s-9.546 21.328-21.326 21.328zM917.29 405.332h-21.312c-11.75 0-21.312-9.546-21.312-21.342 0-11.78 9.562-21.328 21.312-21.328h21.312c11.812 0 21.376 9.546 21.376 21.328-0.002 11.796-9.564 21.342-21.376 21.342zM917.29 447.988h-21.312c-11.75 0-21.312-9.546-21.312-21.328s9.562-21.328 21.312-21.328h21.312c11.812 0 21.376 9.546 21.376 21.328s-9.564 21.328-21.376 21.328z" fill="#AAB2BC" /><path d="M869.54 60.798C833.48 18.752 775.858 0.02 682.674 0.02H341.326c-73.09 0-130.212 20.03-169.742 59.576-43.076 43.062-64.904 109.152-64.92 196.398v384c0 97.746 26.092 189.182 73.482 257.49 57.434 82.748 142.682 126.496 246.522 126.496h170.632c127.87 0 204.87-77.81 246.93-143.122 53.872-83.622 73.09-179.242 73.09-240.866V256.008c0.032-97.746-14.28-156.118-47.78-195.21z" fill="#656D78" /><path d="M869.54 60.798C833.48 18.752 775.858 0.02 682.674 0.02h-42.688c93.184 0 150.84 18.732 186.87 60.778 33.496 39.092 47.808 97.464 47.808 195.21v383.986c0 61.624-19.188 157.244-73.088 240.866-42.094 65.31-119.058 143.122-246.896 143.122h42.622c127.87 0 204.87-77.81 246.93-143.122 53.872-83.622 73.09-179.242 73.09-240.866V256.008c0.03-97.746-14.282-156.118-47.782-195.21z" fill="#FFFFFF" opacity=".1" /><path d="M426.668 234.666h-127.996c-11.78 0-21.342 9.546-21.342 21.328 0 11.796 9.562 21.342 21.342 21.342h127.996c11.782 0 21.328-9.546 21.328-21.342 0-11.782-9.546-21.328-21.328-21.328zM725.294 234.666H597.3c-11.748 0-21.31 9.546-21.31 21.328 0 11.796 9.562 21.342 21.31 21.342h127.994c11.812 0 21.376-9.546 21.376-21.342 0-11.782-9.562-21.328-21.376-21.328z" fill="#4A89DC" /><path d="M767.982 255.994h-511.98c-11.782 0-21.328 9.562-21.328 21.342v255.99a21.316 21.316 0 0 0 21.328 21.328h511.98c11.782 0 21.312-9.532 21.312-21.328V277.336c0-11.78-9.53-21.342-21.312-21.342z" fill="#5D9CEC" /><path d="M490.666 255.994l-85.342 298.66h127.996l85.356-298.66z" fill="#FFFFFF" opacity=".1" /><path d="M767.982 170.668h-511.98c-11.782 0-21.328-9.546-21.328-21.328s9.546-21.342 21.328-21.342h511.98c11.782 0 21.312 9.562 21.312 21.342s-9.53 21.328-21.312 21.328zM511.992 831.988c-11.782 0-21.326-9.562-21.326-21.344v-170.65c0-11.812 9.544-21.342 21.326-21.342s21.328 9.53 21.328 21.342v170.65c0 11.782-9.546 21.344-21.328 21.344zM441.746 902.234c8.328 8.312 8.328 21.81 0 30.154s-21.844 8.344-30.172 0-8.328-21.842 0-30.154c8.328-8.344 21.844-8.344 30.172 0zM527.07 902.234c8.344 8.312 8.344 21.81 0 30.154a21.294 21.294 0 0 1-30.156 0c-8.342-8.344-8.342-21.842 0-30.154a21.294 21.294 0 0 1 30.156 0zM612.426 902.234c8.312 8.312 8.312 21.81 0 30.154-8.376 8.344-21.874 8.344-30.186 0s-8.312-21.842 0-30.154c8.312-8.344 21.81-8.344 30.186 0z" fill="#434A54" /></svg>