<?xml version="1.0" standalone="no"?><!DOCTYPE svg PUBLIC "-//W3C//DTD SVG 1.1//EN" "http://www.w3.org/Graphics/SVG/1.1/DTD/svg11.dtd"><svg class="icon" width="128px" height="128.00px" viewBox="0 0 1024 1024" version="1.1" xmlns="http://www.w3.org/2000/svg"><path d="M288.704 17.892L181.49 957.544c-1.344 11.718 7.062 22.282 18.78 23.624 0.812 0.094 1.624 0.124 2.438 0.124 10.718 0 19.938-8.032 21.188-18.906L331.42 19.768c0.062-0.624 0.094-1.25 0.124-1.876h-42.84z" fill="#434A54" /><path d="M193.396 853.298h511.98L800.466 19.768c0.094-0.624-468.952-1.25-468.92-1.876h-42.842L193.396 853.298z" fill="#F6BB42" /><path d="M821.342 1023.98c-11.782 0-21.344-9.562-21.344-21.344v-132.434c0-11.782 9.562-21.342 21.344-21.342 11.78 0 21.31 9.56 21.31 21.342v132.434c0 11.782-9.53 21.344-21.31 21.344zM309.36 1023.98c-11.782 0-21.342-9.562-21.342-21.344v-132.434c0-11.782 9.562-21.342 21.342-21.342s21.312 9.56 21.312 21.342v132.434c-0.002 11.782-9.532 21.344-21.312 21.344z" fill="#656D78" /><path d="M821.342 0.02H309.36c-11.782 0-21.342 9.53-21.342 21.31V874.64c0 11.782 9.562 21.344 21.342 21.344h511.982c11.78 0 21.31-9.562 21.31-21.344V21.33A21.294 21.294 0 0 0 821.342 0.02z m-170.684 191.992h-170.65c-23.562 0-42.654-19.124-42.654-42.686s19.092-42.654 42.654-42.654h170.65c23.562 0 42.686 19.092 42.686 42.654 0 23.562-19.124 42.686-42.686 42.686z" fill="#FFCE54" /><path d="M821.342 0.02h-21.344c11.782 0 21.344 9.53 21.344 21.31V874.64c0 11.782-9.562 21.344-21.344 21.344h21.344c11.78 0 21.31-9.562 21.31-21.344V21.33A21.294 21.294 0 0 0 821.342 0.02z" fill="#FFFFFF" opacity=".2" /><path d="M755.03 694.304L584.818 311.32a21.328 21.328 0 0 0-38.966 0l-170.682 383.984a21.454 21.454 0 0 0 1.624 20.312 21.358 21.358 0 0 0 17.876 9.686H736c11.812 0 21.344-9.53 21.344-21.31a21.026 21.026 0 0 0-2.314-9.688z" fill="#ED5564" /><path d="M580.412 624.9c8.344 8.312 8.344 21.842 0 30.154-8.312 8.344-21.81 8.344-30.154 0-8.344-8.312-8.344-21.842 0-30.154 8.344-8.342 21.842-8.342 30.154 0zM565.35 597.308c-11.78 0-21.342-9.53-21.342-21.31v-85.342c0-11.782 9.562-21.344 21.342-21.344 11.782 0 21.312 9.562 21.312 21.344v85.342a21.296 21.296 0 0 1-21.312 21.31z" fill="#434A54" /></svg>