<?xml version="1.0" standalone="no"?><!DOCTYPE svg PUBLIC "-//W3C//DTD SVG 1.1//EN" "http://www.w3.org/Graphics/SVG/1.1/DTD/svg11.dtd"><svg class="icon" width="128px" height="128.00px" viewBox="0 0 1024 1024" version="1.1" xmlns="http://www.w3.org/2000/svg"><path d="M1023.988 831.992c0-11.812-9.562-21.312-21.344-21.312-1.406 0-2.812 0.124-4.188 0.376h-0.032c-0.032 0.062-0.094 0.062-0.124 0.062l-88.032 17.624-57.902-173.746s0-0.062-0.032-0.062l-0.094-0.376h-0.032c-2.812-8.438-10.782-14.562-20.218-14.562H413.44v42.688h403.178l59.122 177.372a21.368 21.368 0 0 0 20.25 14.624c1.376 0 2.782-0.124 4.188-0.438l106.656-21.31a21.336 21.336 0 0 0 17.154-20.94z" fill="#E6E9ED" /><path d="M192.008 42.7H63.698c-11.782 0-21.312 9.5-21.312 21.312s9.532 21.31 21.312 21.31h106.966v469.926h42.686V64.012c0-11.812-9.562-21.312-21.342-21.312z" fill="#CCD1D9" /><path d="M767.992 554.686H221.444v42.624h546.548c11.782 0 21.344-9.498 21.344-21.31s-9.562-21.314-21.344-21.314z" fill="#434A54" /><path d="M384.002 767.992h340.802v42.688H384.002zM725.336 682.684h42.656v127.996h-42.656z" fill="#CCD1D9" /><path d="M682.652 299.004H256.006c-23.562 0-42.656 19.062-42.656 42.624v213.056c0 23.562 19.094 42.624 42.656 42.624h426.646c23.562 0 42.684-19.06 42.684-42.624V341.628c0-23.562-19.122-42.624-42.684-42.624z m0 255.682H256.006V341.628h426.646v213.058z" fill="#E6E9ED" /><path d="M746.648 959.988c-47.028 0-85.308-38.25-85.308-85.31s38.282-85.374 85.308-85.374c47.062 0 85.344 38.312 85.344 85.374s-38.282 85.31-85.344 85.31z" fill="#656D78" /><path d="M746.648 767.992c-58.902 0-106.652 47.75-106.652 106.686 0 58.874 47.75 106.624 106.652 106.624 58.906 0 106.688-47.75 106.688-106.624 0-58.936-47.782-106.686-106.688-106.686z m0 170.684c-35.278 0-63.996-28.748-63.996-63.998 0-35.31 28.718-63.998 63.996-63.998 35.312 0 64 28.688 64 63.998 0 35.25-28.688 63.998-64 63.998z" fill="#434A54" /><path d="M725.336 554.686v-127.996H431.158v170.62h251.494c23.562-0.002 42.684-19.062 42.684-42.624z" fill="#48CFAD" /><path d="M514.718 490.688h210.618v42.624H514.718z" fill="#37BC9B" /><path d="M298.662 959.988c-152.902 0-277.306-124.434-277.306-277.304 0-152.934 124.404-277.37 277.306-277.37 152.934 0 277.334 124.436 277.334 277.37 0 152.87-124.402 277.304-277.334 277.304z" fill="#656D78" /><path d="M298.662 384.004C133.728 384.004 0.014 517.688 0.014 682.684c0 164.934 133.714 298.618 298.648 298.618 164.964 0 298.678-133.684 298.678-298.618 0-164.996-133.714-298.68-298.678-298.68z m181.026 479.676c-48.342 48.372-112.622 74.996-181.026 74.996-68.374 0-132.654-26.624-180.996-74.996-48.374-48.376-75-112.624-75-180.996 0-68.376 26.624-132.684 75-181.058 48.342-48.312 112.622-74.936 180.996-74.936 68.404 0 132.684 26.624 181.026 74.936 48.344 48.376 74.964 112.684 74.964 181.058 0 68.372-26.62 132.62-74.964 180.996z" fill="#434A54" /><path d="M767.992 874.678c0 11.75-9.562 21.312-21.344 21.312s-21.312-9.562-21.312-21.312c0-11.81 9.532-21.374 21.312-21.374s21.344 9.564 21.344 21.374z" fill="#E6E9ED" /><path d="M277.348 413.314h42.656v538.674h-42.656z" fill="#434A54" /><path d="M414.876 926.55L145.54 460.062l36.936-21.312L451.814 905.24z" fill="#434A54" /><path d="M521.25 835.804L54.76 566.498l21.344-36.998 466.49 269.368z" fill="#434A54" /><path d="M29.356 661.308h538.64v42.688H29.356z" fill="#434A54" /><path d="M542.594 566.498L76.104 835.804 54.76 798.868 521.25 529.5z" fill="#434A54" /><path d="M451.814 460.062L182.476 926.55 145.54 905.24l269.336-466.49z" fill="#434A54" /><path d="M298.662 746.682c-35.28 0-63.998-28.75-63.998-63.998 0-35.312 28.718-64 63.998-64 35.312 0 63.998 28.688 63.998 64 0 35.248-28.688 63.998-63.998 63.998z" fill="#E6E9ED" /><path d="M298.662 597.308c-47.124 0-85.31 38.25-85.31 85.376 0 47.124 38.186 85.308 85.31 85.308s85.342-38.186 85.342-85.308c-0.002-47.126-38.218-85.376-85.342-85.376z m0 127.998c-23.53 0-42.656-19.124-42.656-42.624 0-23.562 19.124-42.688 42.656-42.688s42.686 19.124 42.686 42.688c0 23.502-19.156 42.624-42.686 42.624z" fill="#CCD1D9" /><path d="M320.004 682.684c0 11.75-9.562 21.312-21.342 21.312s-21.312-9.562-21.312-21.312c0-11.812 9.532-21.376 21.312-21.376s21.342 9.564 21.342 21.376z" fill="#CCD1D9" /></svg>