<?xml version="1.0" standalone="no"?><!DOCTYPE svg PUBLIC "-//W3C//DTD SVG 1.1//EN" "http://www.w3.org/Graphics/SVG/1.1/DTD/svg11.dtd"><svg class="icon" width="128px" height="128.00px" viewBox="0 0 1024 1024" version="1.1" xmlns="http://www.w3.org/2000/svg"><path d="M149.316 1023.984c-4.36 0-8.766-1.344-12.562-4.124-9.514-6.938-11.592-20.282-4.64-29.812l405.316-554.638c6.938-9.532 20.312-11.594 29.81-4.656 9.5 6.968 11.594 20.312 4.624 29.812L166.566 1015.234a21.324 21.324 0 0 1-17.25 8.75z" fill="#434A54" /><path d="M874.67 1023.984a21.308 21.308 0 0 1-17.25-8.75L452.104 460.564c-6.954-9.5-4.876-22.842 4.64-29.812 9.516-6.938 22.858-4.876 29.812 4.656l405.302 554.638c6.966 9.532 4.874 22.876-4.624 29.812a21.14 21.14 0 0 1-12.564 4.126z" fill="#434A54" /><path d="M192.002 1023.984H106.676c-11.796 0-21.342-9.562-21.342-21.344s9.546-21.344 21.342-21.344h85.326c11.78 0 21.328 9.562 21.328 21.344s-9.546 21.344-21.328 21.344zM917.324 1023.984h-85.342c-11.782 0-21.344-9.562-21.344-21.344s9.562-21.344 21.344-21.344h85.342c11.78 0 21.31 9.562 21.31 21.344s-9.53 21.344-21.31 21.344z" fill="#656D78" /><path d="M895.98 448.002c0 212.056-171.932 383.986-383.988 383.986-212.072 0-383.988-171.93-383.988-383.986 0-212.088 171.916-384.02 383.988-384.02 212.056 0.002 383.988 171.934 383.988 384.02z" fill="#E6E9ED" /><path d="M746.706 447.972c0 129.65-105.09 234.744-234.712 234.744-129.636 0-234.71-105.094-234.71-234.744 0-129.622 105.074-234.712 234.71-234.712 129.622 0 234.712 105.09 234.712 234.712zM944.792 332.038l-61.746 16.53a387.26 387.26 0 0 1 12.936 99.436 387.2 387.2 0 0 1-12.936 99.404l61.746 16.562a450.33 450.33 0 0 0 0-231.932z" fill="#ED5564" /><path d="M396.028 15.204l16.546 61.748a385.916 385.916 0 0 1 99.418-12.968c34.032 0 67.374 4.438 99.436 12.968l16.532-61.748a450.33 450.33 0 0 0-231.932 0zM627.958 880.77l-16.562-61.75a385.82 385.82 0 0 1-99.404 12.968 386.004 386.004 0 0 1-99.418-12.968l-16.546 61.75a450.322 450.322 0 0 0 231.93 0z" fill="#FFCE54" /><path d="M195.174 131.168l45.202 45.186a386.706 386.706 0 0 1 79.622-60.904c29.484-17.03 60.576-29.874 92.576-38.498l-16.53-61.748c-75.858 20.406-145.278 60.466-200.87 115.964zM828.794 764.804l-45.186-45.188c-23.466 23.406-50.154 43.906-79.624 60.906-29.466 17.032-60.558 29.872-92.59 38.496l16.562 61.75c75.842-20.404 145.28-60.468 200.838-115.964z" fill="#ED5564" /><path d="M79.208 332.038l61.748 16.53c8.624-31.998 21.468-63.09 38.5-92.558a385.992 385.992 0 0 1 60.92-79.654L195.174 131.168a450.206 450.206 0 0 0-115.966 200.87zM944.76 563.968l-61.746-16.562c-8.624 31.996-21.468 63.09-38.468 92.59-17.032 29.468-37.532 56.124-60.936 79.622l45.186 45.188c55.498-55.596 95.59-124.998 115.964-200.838z" fill="#FFCE54" /><path d="M79.208 563.968l61.748-16.562c-8.53-32.032-12.952-65.374-12.952-99.404 0-34.062 4.422-67.404 12.952-99.436l-61.748-16.53a450.372 450.372 0 0 0 0 231.932z" fill="#ED5564" /><path d="M195.174 764.804l45.202-45.188a387.044 387.044 0 0 1-60.92-79.622c-17.014-29.5-29.858-60.594-38.5-92.59l-61.748 16.532a450.21 450.21 0 0 0 115.966 200.868zM828.826 131.168l-45.216 45.216c23.404 23.468 43.904 50.124 60.936 79.624a387.714 387.714 0 0 1 38.5 92.558l61.746-16.53a450.482 450.482 0 0 0-115.966-200.868z" fill="#FFCE54" /><path d="M396.042 880.77l16.546-61.75c-32.014-8.624-63.108-21.464-92.576-38.496-29.484-17-56.154-37.5-79.638-60.906l-45.202 45.188c55.594 55.494 125.014 95.558 200.87 115.964zM627.958 15.204l-16.532 61.748c32 8.624 63.092 21.468 92.558 38.498a386.29 386.29 0 0 1 79.624 60.904l45.216-45.186c-55.588-55.498-125.026-95.558-200.866-115.964z" fill="#ED5564" /><path d="M618.646 448.002c0 58.904-47.75 106.654-106.654 106.654s-106.668-47.75-106.668-106.654c0-58.936 47.764-106.684 106.668-106.684s106.654 47.75 106.654 106.684z" fill="#E6E9ED" /><path d="M511.992 469.314c-11.78 0-21.328-9.562-21.328-21.31V42.672c0-11.782 9.546-21.342 21.328-21.342 11.784 0 21.328 9.562 21.328 21.342v405.332c0 11.748-9.544 21.31-21.328 21.31z" fill="#434A54" /></svg>