<?xml version="1.0" standalone="no"?><!DOCTYPE svg PUBLIC "-//W3C//DTD SVG 1.1//EN" "http://www.w3.org/Graphics/SVG/1.1/DTD/svg11.dtd"><svg class="icon" width="128px" height="128.00px" viewBox="0 0 1024 1024" version="1.1" xmlns="http://www.w3.org/2000/svg"><path d="M277.336 959.976h-42.654c-11.782 0-21.344 9.562-21.344 21.312 0 11.812 9.562 21.376 21.344 21.376h42.654c11.782 0 21.344-9.562 21.344-21.376 0-11.748-9.562-21.312-21.344-21.312zM362.676 874.67H192.012c-11.782 0-21.328 9.498-21.328 21.31 0 11.748 9.546 21.31 21.328 21.31h170.664c11.782 0 21.328-9.562 21.328-21.31 0-11.812-9.546-21.31-21.328-21.31zM341.334 810.67c0-11.812-9.546-21.376-21.328-21.376H192.012c-11.782 0-21.328 9.562-21.328 21.376 0 11.75 9.546 21.312 21.328 21.312h127.994c11.782 0 21.328-9.562 21.328-21.312z" fill="#CCD1D9" /><path d="M448.002 703.986H149.34c-11.782 0-21.328 9.562-21.328 21.31 0 11.812 9.546 21.376 21.328 21.376h298.662c11.782 0 21.328-9.562 21.328-21.376 0-11.748-9.546-21.31-21.328-21.31zM533.328 618.676H192.012c-11.782 0-21.328 9.5-21.328 21.312 0 11.748 9.546 21.31 21.328 21.31h341.316c11.796 0 21.36-9.562 21.36-21.31 0-11.812-9.562-21.312-21.36-21.312zM618.686 533.32H277.336c-11.782 0-21.328 9.562-21.328 21.358 0 11.75 9.546 21.312 21.328 21.312h341.35c11.75 0 21.312-9.562 21.312-21.312 0-11.796-9.562-21.358-21.312-21.358z" fill="#AAB2BC" /><path d="M746.68 447.978H149.34c-11.782 0-21.328 9.562-21.328 21.342s9.546 21.342 21.328 21.342h597.34c11.75 0 21.312-9.562 21.312-21.342s-9.562-21.342-21.312-21.342zM64.016 405.324h597.292c11.812 0 21.374-9.562 21.374-21.342s-9.56-21.312-21.374-21.312H64.016c-11.782 0-21.328 9.532-21.328 21.312s9.546 21.342 21.328 21.342zM746.68 277.328H149.34a21.32 21.32 0 0 0-21.328 21.342c0 11.782 9.546 21.312 21.328 21.312h597.34c11.75 0 21.312-9.53 21.312-21.312 0-11.81-9.562-21.342-21.312-21.342z" fill="#656D78" /><path d="M874.678 234.672c11.748 0 21.308-9.562 21.308-21.342 0-11.782-9.56-21.344-21.308-21.344H192.012c-11.782 0-21.328 9.562-21.328 21.344 0 11.78 9.546 21.342 21.328 21.342h682.666zM661.308 106.676H106.686c-11.782 0-21.344 9.532-21.344 21.312 0 11.78 9.562 21.342 21.344 21.342h554.624c11.812 0 21.374-9.562 21.374-21.342-0.002-11.78-9.562-21.312-21.376-21.312zM1002.672 21.336H21.344C9.562 21.336 0.016 30.898 0.016 42.68s9.546 21.31 21.328 21.31h981.328c11.75 0 21.312-9.53 21.312-21.31s-9.562-21.344-21.312-21.344z" fill="#434A54" /></svg>