<?xml version="1.0" standalone="no"?><!DOCTYPE svg PUBLIC "-//W3C//DTD SVG 1.1//EN" "http://www.w3.org/Graphics/SVG/1.1/DTD/svg11.dtd"><svg class="icon" width="128px" height="128.00px" viewBox="0 0 1024 1024" version="1.1" xmlns="http://www.w3.org/2000/svg"><path d="M512.002 376.004c-11.78 0-21.342-9.546-21.342-21.326V21.344c0-11.78 9.562-21.326 21.342-21.326s21.314 9.546 21.314 21.326v333.334c0 11.78-9.532 21.326-21.314 21.326z" fill="#A85D5D" /><path d="M423.318 352.256c-3.626 0-7.282-0.922-10.656-2.86-10.188-5.89-13.686-18.938-7.812-29.14l166.432-288.24c5.876-10.204 18.938-13.704 29.126-7.812 10.216 5.89 13.686 18.938 7.81 29.14l-166.4 288.24a21.35 21.35 0 0 1-18.5 10.672z" fill="#965353" /><path d="M600.69 352.256c-7.376 0-14.562-3.828-18.5-10.672l-166.402-288.24c-5.906-10.204-2.406-23.25 7.782-29.14 10.218-5.89 23.25-2.39 29.156 7.812l166.402 288.24c5.906 10.204 2.406 23.25-7.812 29.14a21.132 21.132 0 0 1-10.626 2.86z" fill="#965353" /><path d="M962.238 985.828L531.064 123.514c-5.248-10.5-12.154-15.75-19.062-15.75-6.936 0-13.842 5.25-19.092 15.75L61.768 985.828c-10.5 20.966 0.094 38.154 23.562 38.154h853.316c23.468 0 34.092-17.188 23.592-38.154z" fill="#FFD2A6" /><path d="M192.232 938.674a21.41 21.41 0 0 1-15.062-6.252c-8.344-8.344-8.344-21.874 0-30.186l42.656-42.688c8.342-8.31 21.842-8.31 30.186 0 8.312 8.346 8.312 21.876 0 30.188l-42.686 42.686a21.424 21.424 0 0 1-15.094 6.252z" fill="#EC5564" /><path d="M277.574 938.674c-5.468 0-10.906-2.126-15.092-6.252l-42.654-42.686c-8.314-8.31-8.314-21.842 0-30.188 8.342-8.31 21.842-8.31 30.186 0l42.656 42.688c8.312 8.312 8.312 21.842 0 30.186a21.44 21.44 0 0 1-15.096 6.252z" fill="#EC5564" /><path d="M277.574 938.674c-5.468 0-10.906-2.126-15.092-6.252-8.312-8.344-8.312-21.874 0-30.186l42.686-42.688c8.312-8.31 21.842-8.31 30.156 0 8.342 8.346 8.342 21.876 0 30.188l-42.656 42.686a21.43 21.43 0 0 1-15.094 6.252z" fill="#EC5564" /><path d="M362.916 938.674a21.428 21.428 0 0 1-15.094-6.252l-42.654-42.686c-8.344-8.31-8.344-21.842 0-30.188 8.312-8.31 21.842-8.31 30.156 0l42.686 42.688c8.312 8.312 8.312 21.842 0 30.186-4.19 4.126-9.628 6.252-15.094 6.252zM682.654 938.674c-5.468 0-10.906-2.126-15.094-6.252-8.312-8.344-8.312-21.874 0-30.186l42.688-42.688c8.31-8.31 21.842-8.31 30.152 0 8.346 8.346 8.346 21.876 0 30.188l-42.652 42.686c-4.188 4.126-9.624 6.252-15.094 6.252z" fill="#EC5564" /><path d="M767.996 938.674a21.432 21.432 0 0 1-15.096-6.252l-42.652-42.686c-8.344-8.31-8.344-21.842 0-30.188 8.31-8.31 21.842-8.31 30.152 0l42.658 42.688c8.342 8.312 8.342 21.842 0 30.186a21.412 21.412 0 0 1-15.062 6.252z" fill="#EC5564" /><path d="M767.996 938.674a21.432 21.432 0 0 1-15.096-6.252c-8.342-8.344-8.342-21.874 0-30.186l42.656-42.688c8.344-8.31 21.844-8.31 30.188 0 8.31 8.346 8.31 21.876 0 30.188l-42.686 42.686a21.412 21.412 0 0 1-15.062 6.252z" fill="#EC5564" /><path d="M853.304 938.674a21.41 21.41 0 0 1-15.062-6.252l-42.686-42.686c-8.312-8.31-8.312-21.842 0-30.188 8.344-8.31 21.844-8.31 30.188 0l42.654 42.688c8.342 8.312 8.342 21.842 0 30.186a21.428 21.428 0 0 1-15.094 6.252z" fill="#EC5564" /><path d="M512.002 469.33l-127.994 554.652H640z" fill="#424953" /><path d="M320.01 661.308c0 11.81-9.562 21.372-21.342 21.372-11.782 0-21.344-9.56-21.344-21.372 0-11.75 9.562-21.312 21.344-21.312 11.78 0 21.342 9.562 21.342 21.312zM405.32 661.308c0 11.81-9.532 21.372-21.312 21.372s-21.342-9.56-21.342-21.372c0-11.75 9.562-21.312 21.342-21.312s21.312 9.562 21.312 21.312zM661.31 661.308c0 11.81-9.532 21.372-21.31 21.372-11.782 0-21.344-9.56-21.344-21.372 0-11.75 9.562-21.312 21.344-21.312 11.78 0 21.31 9.562 21.31 21.312zM746.652 661.308c0 11.81-9.562 21.372-21.342 21.372-11.782 0-21.314-9.56-21.314-21.372 0-11.75 9.534-21.312 21.314-21.312s21.342 9.562 21.342 21.312z" fill="#9ED36A" /><path d="M527.878 384.004c0 11.782-9.562 21.328-21.344 21.328s-21.342-9.546-21.342-21.328 9.562-21.328 21.342-21.328 21.344 9.546 21.344 21.328zM613.19 384.004c0 11.782-9.534 21.328-21.314 21.328s-21.344-9.546-21.344-21.328 9.562-21.328 21.344-21.328 21.314 9.546 21.314 21.328zM442.538 384.004c0 11.782-9.562 21.328-21.344 21.328-11.78 0-21.31-9.546-21.31-21.328s9.53-21.328 21.31-21.328 21.344 9.546 21.344 21.328zM485.192 341.334c0 11.782-9.532 21.342-21.312 21.342s-21.342-9.56-21.342-21.342 9.562-21.328 21.342-21.328 21.312 9.546 21.312 21.328zM570.532 341.334c0 11.782-9.56 21.342-21.342 21.342s-21.31-9.56-21.31-21.342 9.53-21.328 21.31-21.328 21.342 9.546 21.342 21.328z" fill="#E8563F" /><path d="M362.666 384.004h298.644L640 341.334H384.008z" fill="#FB6D51" /></svg>