<?xml version="1.0" standalone="no"?><!DOCTYPE svg PUBLIC "-//W3C//DTD SVG 1.1//EN" "http://www.w3.org/Graphics/SVG/1.1/DTD/svg11.dtd"><svg class="icon" width="128px" height="128.00px" viewBox="0 0 1024 1024" version="1.1" xmlns="http://www.w3.org/2000/svg"><path d="M823.614 509.438c-14-56.28-47.312-113.654-98.938-170.526-52.934-58.278-82.68-126.464-88.492-202.65-4.438-57.436 7.188-98.246 7.312-98.59L654.618 0.016l-37.684 11.156C407.362 73.17 284.616 225.258 289.022 413.096c-14.906-7.468-34.406-17.75-57.342-30.842l-27.282-15.624-4.438 31.124c-10.06 70.966-9.592 133.81 1.468 186.746 10.5 50.374 30.782 93.122 60.28 127.122 58.278 67.152 153.308 101.214 282.348 101.214 56.876 0 112.246-14.282 160.246-41.282 50.184-28.216 87.684-67.964 108.496-114.964 20.19-45.53 23.816-95.03 10.816-147.152z" fill="#FB6D51" /><path d="M246.334 413.096a414.08 414.08 0 0 1 0.126-22.53 1270.19 1270.19 0 0 1-14.78-8.312l-27.282-15.624-3.188 22.5a1206.746 1206.746 0 0 0 45.124 23.966zM823.614 509.438c-14-56.28-47.312-113.654-98.938-170.526-52.934-58.278-82.68-126.464-88.492-202.65-4.438-57.436 7.188-98.246 7.312-98.59L654.618 0.016l-37.684 11.156c-3.062 0.906-6.062 1.844-9.126 2.782l-7 23.718c-0.126 0.344-11.688 41.154-7.312 98.59 5.812 76.186 35.626 144.372 88.496 202.65 51.684 56.874 84.934 114.248 98.996 170.526 12.938 52.124 9.312 101.624-10.812 147.15-20.876 47-58.372 86.748-108.496 114.964-43.058 24.218-92.122 38.188-142.79 40.812 8.246 0.312 16.652 0.468 25.168 0.468 56.876 0 112.246-14.282 160.246-41.282 50.184-28.216 87.684-67.964 108.496-114.964 20.188-45.526 23.814-95.026 10.814-147.148z" fill="#E8563F" /><path d="M389.05 530.876c-8.532-8.126-22.032-7.782-30.156 0.782-8.126 8.532-7.782 22.032 0.78 30.154l134.996 128.34 29.404-30.906-135.024-128.37zM657.554 435.878c-6.812-9.626-20.122-11.906-29.746-5.094l-126.826 89.778 24.654 34.842 126.792-89.81c9.626-6.78 11.94-20.092 5.126-29.716z" fill="#646C77" /><path d="M576.122 981.328h-42.64V362.692c0-11.782-9.562-21.344-21.34-21.344-11.782 0-21.344 9.562-21.344 21.344v618.636H448.14c-11.78 0-21.342 9.562-21.342 21.344s9.562 21.312 21.342 21.312h127.98c11.812 0 21.376-9.532 21.376-21.312s-9.562-21.344-21.374-21.344z" fill="#434A54" /></svg>