<?xml version="1.0" standalone="no"?><!DOCTYPE svg PUBLIC "-//W3C//DTD SVG 1.1//EN" "http://www.w3.org/Graphics/SVG/1.1/DTD/svg11.dtd"><svg class="icon" width="128px" height="128.00px" viewBox="0 0 1024 1024" version="1.1" xmlns="http://www.w3.org/2000/svg"><path d="M330.926 1023.978c-11.78 0-21.328-9.562-21.328-21.344v-42.652c0-11.782 9.546-21.344 21.328-21.344s21.342 9.562 21.342 21.344v42.652c0 11.782-9.56 21.344-21.342 21.344z" fill="#EAAD7A" /><path d="M650.892 273.08C624.644 115.932 579.958 16.656 578.052 12.532a21.332 21.332 0 0 0-25.904-11.5c-1.406 0.468-35.186 11.28-70.262 24.842-20.936 8.062-37.998 15.466-50.7 21.936-22.046 11.25-32.014 20.092-35.358 31.404-2.578 7.188-24.764 54.842-48.232 105.246-39.138 84.088-92.746 199.27-136.086 298.016-23.796 54.248-41.92 97.714-53.84 129.212-21.952 57.998-20.89 69.652-17.204 78.872 4.172 10.466 13.282 21.842 82.808 55.342 36.28 17.466 85.76 39.278 147.07 64.902 104.088 43.464 207.894 83.372 208.926 83.746 2.468 0.968 5.062 1.438 7.656 1.438 3.124 0 6.218-0.688 9.124-2.062a21.284 21.284 0 0 0 11.124-12.532c35.308-106.152 55.808-217.832 60.84-331.952 4.034-91.246-1.716-184.21-17.122-276.362z" fill="#ED5564" /><path d="M650.892 273.08C624.644 115.932 579.958 16.656 578.052 12.532a21.332 21.332 0 0 0-25.904-11.5c-0.656 0.218-8.31 2.686-19.842 6.592a21.938 21.938 0 0 1 3.094 4.906c1.89 4.124 46.59 103.4 72.84 260.548 15.376 92.152 21.154 185.116 17.124 276.362-5.06 114.12-25.53 225.798-60.872 331.952a21.216 21.216 0 0 1-3.282 6.156c11.28 4.406 17.81 6.906 18.06 7 2.468 0.968 5.062 1.438 7.656 1.438 3.124 0 6.218-0.688 9.124-2.062a21.284 21.284 0 0 0 11.124-12.532c35.308-106.152 55.808-217.832 60.84-331.952 4.034-91.244-1.716-184.208-17.122-276.36z" fill="#FFFFFF" opacity=".2" /><path d="M181.622 874.642c0 2.468 0.406 4.938 1.266 7.282 0.954 2.624 9.89 26.124 32.092 49.934 21.014 22.562 58.2 49.436 115.948 49.436h383.996c128.744 0 186.428-91.588 188.834-95.494a21.314 21.314 0 0 0 3.156-11.156H181.622z" fill="#F4BE8E" /><path d="M685.924 584.064c-6.782-2.25-13.532-3.876-19.562-5.062a1292.052 1292.052 0 0 1-3.656 42.81c12.844 3.032 24.876 7.936 29.188 13.686-7.25 3.718-26.344 10.906-73.402 17.844-42.218 6.218-97.95 11-161.196 13.75-122.15 5.342-251.97 2.376-315.686-7.218-11.656-1.782-22.514 6.25-24.28 17.904-1.75 11.656 6.264 22.53 17.92 24.28 44.826 6.75 118.102 10.376 199.598 10.376 39.28 0 80.496-0.844 121.336-2.594 64.154-2.718 121.274-7.5 165.118-13.78 71.778-10.312 92.806-22.438 102.368-30.686 10.406-8.938 12.594-18.75 12.594-25.376 0-14.688-6.562-41.466-50.34-55.934z" fill="#434A54" /></svg>