<?xml version="1.0" standalone="no"?><!DOCTYPE svg PUBLIC "-//W3C//DTD SVG 1.1//EN" "http://www.w3.org/Graphics/SVG/1.1/DTD/svg11.dtd"><svg class="icon" width="128px" height="128.00px" viewBox="0 0 1024 1024" version="1.1" xmlns="http://www.w3.org/2000/svg"><path d="M234.682 512h490.592v-0.032c94.282 0 170.682-76.404 170.682-170.652 0-94.278-76.4-170.682-170.682-170.682-94.244 0-170.648 76.404-170.648 170.682v0.032h0.062c0 11.782 9.53 21.344 21.31 21.344s21.312-9.562 21.312-21.344v-0.876c0.438-70.184 57.686-127.182 127.962-127.182 70.594 0 128.03 57.436 128.03 128.026 0 70.56-57.436 127.996-128.03 127.996v0.032H234.682c-11.782 0-21.344 9.562-21.344 21.344S222.9 512 234.682 512z" fill="#CCD1D9" /><path d="M895.986 554.686H21.344c-11.782 0-21.328 9.532-21.328 21.312s9.546 21.344 21.328 21.344h874.642c47.062 0 85.312 38.28 85.312 85.34s-38.25 85.372-85.312 85.372c-46.934 0-85.12-38.06-85.37-84.902 0-0.156 0.062-0.312 0.062-0.468 0-11.782-9.562-21.344-21.376-21.344-11.75 0-21.312 9.562-21.312 21.344h-0.032c0 70.716 57.312 128.028 128.026 128.028 70.688 0 127.998-57.31 127.998-128.028 0.002-70.686-57.308-127.998-127.996-127.998z" fill="#E6E9ED" /><path d="M618.624 639.964H149.34c-11.782 0-21.328 9.56-21.328 21.342s9.546 21.344 21.328 21.344h469.284v-0.032c35.31 0 64.058 28.75 64.058 64.03 0 35.31-28.748 64.06-64.058 64.06-35 0-63.498-28.25-63.998-63.124 0-0.312 0.062-0.626 0.062-0.938 0-11.782-9.562-21.312-21.36-21.312-11.782 0-21.328 9.532-21.328 21.312h-0.078c0 58.936 47.764 106.716 106.702 106.716 58.936 0 106.682-47.782 106.682-106.716-0.002-58.902-47.748-106.682-106.682-106.682z" fill="#AAB2BC" /></svg>