<?xml version="1.0" standalone="no"?><!DOCTYPE svg PUBLIC "-//W3C//DTD SVG 1.1//EN" "http://www.w3.org/Graphics/SVG/1.1/DTD/svg11.dtd"><svg class="icon" width="128px" height="128.00px" viewBox="0 0 1024 1024" version="1.1" xmlns="http://www.w3.org/2000/svg"><path d="M615.868 304.57a21.404 21.404 0 0 1-15.094-6.25l-87.34-87.372c-8.328-8.344-8.328-21.842 0-30.154a21.256 21.256 0 0 1 30.172 0l87.354 87.338c8.312 8.344 8.312 21.844 0 30.188a21.294 21.294 0 0 1-15.092 6.25z" fill="#434A54" /><path d="M698.864 92.86c-17.154-20.438-50.53-43.124-89.246-60.624C577.12 17.518 526.574 0.02 470.248 0.02c-48.044 0-92.324 16.78-124.714 47.186-33.342 31.342-51.7 75.152-51.7 123.37v21.342h85.34v149.338h170.666v-129.558l154.024-46.624V98.796l-5-5.936z" fill="#E6E9ED" /><path d="M635.178 44.956v140.932l68.686-20.812v-66.28l-5-5.938c-13.248-15.78-36.124-32.872-63.686-47.902z" fill="#AC92EB" /><path d="M379.172 255.916h170.666V362.6h-170.666z" fill="#CCD1D9" /><path d="M572.87 475.624l-1.688-155.93c-0.124-11.686-9.656-21.092-21.342-21.092h-170.666a21.4 21.4 0 0 0-16.532 7.812c-62.638 76.778-75.386 218.208-79.996 420.388-3.376 148.432 11.188 276.99 11.328 278.272a21.328 21.328 0 0 0 21.186 18.906h405.36c11.78 0 21.342-9.562 21.342-21.312V682.618c0-107.652-128.308-185.118-168.992-206.994z" fill="#AC92EB" /><path d="M572.87 475.624l-1.688-155.93c-0.124-11.686-9.656-21.092-21.342-21.092h-42.656c11.688 0 21.204 9.406 21.328 21.092l1.704 155.93c40.686 21.876 168.96 99.342 168.96 206.992v320.05c0 11.75-9.53 21.312-21.342 21.312h42.686c11.78 0 21.342-9.562 21.342-21.312V682.618c0-107.652-128.308-185.118-168.992-206.994z" fill="#FFFFFF" opacity=".2" /><path d="M334.066 703.93c11.78 0 21.328-9.532 21.328-21.312s-9.546-21.344-21.328-21.344h-49.514a4140.88 4140.88 0 0 0-1.344 42.656h50.858zM352.798 767.928c0-11.75-9.546-21.312-21.328-21.312H282.3a2163.16 2163.16 0 0 0-0.094 42.686h49.264c11.782-0.002 21.328-9.562 21.328-21.374zM334.894 618.59c11.764 0 21.312-9.532 21.312-21.312 0-11.78-9.546-21.342-21.312-21.342H289.02c-0.984 13.812-1.86 28.03-2.61 42.654h48.484zM346.002 533.28c11.782 0 21.342-9.562 21.342-21.342a21.332 21.332 0 0 0-21.342-21.344h-48.31a1123.866 1123.866 0 0 0-5.062 42.686h53.372z" fill="#967ADC" /></svg>