<?xml version="1.0" standalone="no"?><!DOCTYPE svg PUBLIC "-//W3C//DTD SVG 1.1//EN" "http://www.w3.org/Graphics/SVG/1.1/DTD/svg11.dtd"><svg class="icon" width="128px" height="128.00px" viewBox="0 0 1024 1024" version="1.1" xmlns="http://www.w3.org/2000/svg"><path d="M743.088 381.926l-55.808-115.182 38.402-18.61 55.812 115.2z" fill="#AAB2BC" /><path d="M86.412 469.344l69.34 554.636h421.624l69.34-554.636z" fill="#5D9CEC" /><path d="M956.048 136.544L456.896 378.334l-55.778-115.184L900.27 21.346z" fill="#656D78" /><path d="M456.928 399.676a21.366 21.366 0 0 1-19.218-12.046l-55.81-115.184a21.51 21.51 0 0 1-0.938-16.296 21.34 21.34 0 0 1 10.876-12.202L890.958 2.16c10.624-5.14 23.376-0.704 28.5 9.888l55.81 115.2a21.236 21.236 0 0 1 0.938 16.296 21.292 21.292 0 0 1-10.844 12.204L466.208 397.536a21.22 21.22 0 0 1-9.28 2.14z m-27.312-126.636l37.216 76.794L927.55 126.638l-37.188-76.792L429.616 273.04z" fill="#434A54" /><path d="M438.334 339.944l-18.624-38.404L918.864 59.75l18.594 38.39z" fill="#434A54" /><path d="M819.87 344.724c-5.094-10.546-17.938-15.014-28.5-9.89l-76.78 37.202c-10.562 5.11-15.032 17.936-9.906 28.498l92.998 191.996c5.124 10.56 17.938 14.998 28.498 9.874l76.808-37.186c10.562-5.124 15-17.938 9.876-28.5l-92.994-191.994z" fill="#48CFAD" /><path d="M99.754 575.998h533.62l5.342-42.656H94.412z" fill="#4A89DC" /><path d="M686.53 533.342h-47.812l-5.344 42.656h9.094c-2.688 26.03-10.594 72.338-33.654 118.462-45.624 91.248-127.104 137.528-242.226 137.528-114.588 0-195.898-45.842-241.646-136.278-23.406-46.312-31.466-93.372-34.248-119.712h9.062l-5.342-42.656H46.6v21.312c0 3.25 0.438 80.59 39.562 158.87 36.748 73.496 115.214 161.118 280.426 161.118 165.182 0 243.664-87.622 280.412-161.118 39.124-78.28 39.562-155.62 39.562-158.87l-0.032-21.312z" fill="#434A54" /></svg>