<?xml version="1.0" standalone="no"?><!DOCTYPE svg PUBLIC "-//W3C//DTD SVG 1.1//EN" "http://www.w3.org/Graphics/SVG/1.1/DTD/svg11.dtd"><svg class="icon" width="128px" height="128.00px" viewBox="0 0 1024 1024" version="1.1" xmlns="http://www.w3.org/2000/svg"><path d="M789.25 35.104c0-23.438-18.876-38.876-41.874-34.282L191.312 120.04c-23 4.594-41.812 27.562-41.812 51.03v810.762c0 23.438 18.562 37.686 41.188 31.624l557.314-148.934c22.686-6.062 41.248-30.216 41.248-53.654V35.104z" fill="#967ADC" /><path d="M874.5 981.364c0 23.438-19.188 42.624-42.624 42.624H192.156c-23.468 0-42.656-19.186-42.656-42.624V171.07c0-23.468 19.188-42.654 42.656-42.654h639.718c23.438 0 42.624 19.186 42.624 42.654v810.294z" fill="#AC92EB" /><path d="M831.876 128.416h-42.688c23.438 0 42.688 19.186 42.688 42.654v810.294c0 23.438-19.25 42.624-42.688 42.624h42.688c23.438 0 42.624-19.186 42.624-42.624V171.07c0-23.468-19.188-42.654-42.624-42.654z" fill="#FFFFFF" opacity=".2" /><path d="M576.006 444.172V255.74h-128.014v188.434c-75.31 32.92-85.308 65.42-85.308 152.888v298.68h298.632V597.06c0-87.468-10-119.968-85.31-152.888z" fill="#ED5564" /><path d="M447.992 255.74h128.014v128.248h-128.014z" fill="#434A54" /><path d="M405.338 618.404h213.354v191.994H405.338z" fill="#FFCE54" /><path d="M576.006 444.172V255.74h-42.67v188.434c75.356 32.92 85.356 65.42 85.356 152.888v298.68h42.624V597.06c0-87.468-10-119.968-85.31-152.888z" fill="#FFFFFF" opacity=".2" /></svg>