<?xml version="1.0" standalone="no"?><!DOCTYPE svg PUBLIC "-//W3C//DTD SVG 1.1//EN" "http://www.w3.org/Graphics/SVG/1.1/DTD/svg11.dtd"><svg class="icon" width="128px" height="128.00px" viewBox="0 0 1024 1024" version="1.1" xmlns="http://www.w3.org/2000/svg"><path d="M441.788137 212.229585a21.341958 21.341958 0 0 1-20.983959-17.639965l-22.217956-126.041754c-2.045996-11.609977 5.703989-22.669956 17.295966-24.717952 11.609977-2.045996 22.669956 5.703989 24.717951 17.311967l22.215957 126.041753c2.045996 11.609977-5.701989 22.669956-17.293966 24.717952-1.249998 0.218-2.499995 0.327999-3.733993 0.327999zM582.219863 212.229585c-1.217998 0-2.467995-0.11-3.717993-0.327999-11.623977-2.045996-19.373962-13.107974-17.311966-24.717952l22.217957-126.041753c2.031996-11.607977 13.091974-19.357962 24.715951-17.311967 11.593977 2.045996 19.341962 13.107974 17.311966 24.717952l-22.249956 126.041754c-1.809996 10.35798-10.809979 17.639966-20.965959 17.639965zM512.002 170.667667c-11.781977 0-21.327958-9.545981-21.327958-21.327959V21.345958c0-11.781977 9.545981-21.325958 21.327958-21.325958s21.329958 9.543981 21.329958 21.325958V149.339708c0 11.781977-9.545981 21.327958-21.329958 21.327959z" fill="#434A54" /><path d="M586.345855 641.960746l-81.499841-462.183097c-2.045996-11.593977-13.109974-19.343962-24.717952-17.295966l-84.027836 14.811971a21.383958 21.383958 0 0 0-13.779973 8.763983 21.335958 21.335958 0 0 0-3.531993 15.953968l81.497841 462.167098c1.827996 10.37598 10.825979 17.623966 20.981959 17.623965 1.233998 0 2.467995-0.094 3.733993-0.311999l84.029836-14.811971a21.305958 21.305958 0 0 0 13.781973-8.781983 21.333958 21.333958 0 0 0 3.531993-15.935969z" fill="#4A89DC" /><path d="M641.685747 186.057637a21.349958 21.349958 0 0 0-13.781973-8.763983l-84.025836-14.811971c-11.609977-2.045996-22.671956 5.703989-24.717952 17.295966l-81.497841 462.183097a21.343958 21.343958 0 0 0 3.545993 15.935969 21.279958 21.279958 0 0 0 13.763973 8.781983l84.029836 14.811971c1.265998 0.218 2.499995 0.311999 3.733993 0.311999 10.13998 0 19.137963-7.249986 20.981959-17.623965l81.495841-462.167098a21.389958 21.389958 0 0 0-3.527993-15.953968z" fill="#DA4453" /><path d="M597.311833 473.561075V171.903664l-53.433895-9.421981c-11.609977-2.045996-22.671956 5.703989-24.717952 17.295966L469.332083 462.359097v156.291695c0 11.779977 9.561981 21.341958 21.341959 21.341958h77.327849l29.309942-166.431675z" opacity=".1" /><path d="M504.846014 179.777649c-2.045996-11.593977-13.109974-19.343962-24.717952-17.295966l-53.449895 9.421981v301.659411l29.341942 166.431675h77.311849c11.795977 0 21.359958-9.561981 21.359959-21.341958V462.359097L504.846014 179.777649z" opacity=".1" /><path d="M554.691917 128.01375h-85.359834c-11.779977 0-21.325958 9.545981-21.325958 21.327958v469.311084c0 11.779977 9.545981 21.341958 21.325958 21.341958h85.359834c11.747977 0 21.309958-9.561981 21.309958-21.341958V149.339708c0-11.779977-9.561981-21.325958-21.309958-21.325958z" fill="#A0D468" /><path d="M618.687792 426.659167c-8.061984 0-15.093971 4.467991-18.749964 11.077978-4.99999 2.623995-25.059951 10.24998-87.933828 10.24998-62.871877 0-82.917838-7.623985-87.949828-10.24998a21.343958 21.343958 0 0 0-18.717964-11.077978c-11.779977 0-21.327958 9.545981-21.327958 21.327958v533.306958c0 0.999998 0.078 2.031996 0.218 3.029994 0.937998 6.593987 5.811989 18.967963 27.857945 27.531947 20.66996 8.061984 54.293894 12.123976 99.917805 12.123976 45.625911 0 79.249845-4.061992 99.933805-12.123976 22.029957-8.561983 26.903947-20.937959 27.841945-27.531947a19.779961 19.779961 0 0 0 0.218-3.029994V447.987125c0.002-11.781977-9.559981-21.327958-21.307958-21.327958z" fill="#434A54" /><path d="M618.687792 426.659167c-8.061984 0-15.093971 4.467991-18.749964 11.077978-0.875998 0.467999-2.311995 1.109998-4.343991 1.827996a21.099959 21.099959 0 0 1 1.717996 8.421984v533.306958c0 0.999998-0.062 2.031996-0.187999 3.029994-0.937998 6.593987-5.809989 18.967963-27.873946 27.531947-17.309966 6.749987-43.685915 10.687979-78.577846 11.811977 6.781987 0.188 13.889973 0.311999 21.327958 0.311999 45.625911 0 79.249845-4.061992 99.933805-12.123976 22.029957-8.561983 26.903947-20.937959 27.841945-27.531947a19.779961 19.779961 0 0 0 0.218-3.029994V447.987125c0.004-11.781977-9.557981-21.327958-21.305958-21.327958z" fill="#FFFFFF" opacity=".1" /></svg>