<?xml version="1.0" standalone="no"?><!DOCTYPE svg PUBLIC "-//W3C//DTD SVG 1.1//EN" "http://www.w3.org/Graphics/SVG/1.1/DTD/svg11.dtd"><svg class="icon" width="128px" height="128.00px" viewBox="0 0 1024 1024" version="1.1" xmlns="http://www.w3.org/2000/svg"><path d="M1022.73848 42.746c-3.062-13.906-11.376-25.796-23.374-33.468-8.624-5.484-18.5-8.39-28.688-8.376-18.31 0-35.124 9.188-44.936 24.592-0.938 1.5-96.186 149.888-154.81 208.48-26.062 26.046-52.25 40.764-69.686 48.514-17 7.546-29 10.032-30.312 10.312-11.124 1.796-21.248 6.952-29.186 14.92l-193.386 193.372c-20.78 20.796-20.78 54.622 0 75.404 10.094 10.094 23.468 15.624 37.718 15.624 14.218 0 27.624-5.532 37.686-15.624l182.666-182.636c31.124-8.624 85.938-30.5 139.938-84.482 67.248-67.25 165.056-219.996 169.244-226.462 7.626-12.016 10.188-26.28 7.126-40.17z" fill="#965353" /><path d="M810.49448 532.546c-11.75 0-21.312 9.546-21.312 21.326 0 11.782 9.562 21.344 21.312 21.344s21.312-9.562 21.312-21.344c0-11.778-9.562-21.326-21.312-21.326z" fill="#FC6E51" /><path d="M938.49248 748.026c-11.812 0-21.376 9.532-21.376 21.31 0 11.782 9.562 21.344 21.312 21.344 11.812 0 21.376-9.562 21.376-21.344 0-11.78-9.562-21.31-21.312-21.31z" fill="#FFCE54" /><path d="M255.99048 233.96c-11.78 0-21.342 9.562-21.342 21.328 0 11.782 9.562 21.328 21.342 21.328 11.782 0 21.312-9.546 21.312-21.328 0-11.766-9.53-21.328-21.312-21.328z" fill="#AC92EB" /><path d="M255.99048 489.892c-11.78 0-21.342 9.546-21.342 21.328 0 11.78 9.562 21.328 21.342 21.328 11.782 0 21.312-9.546 21.312-21.328s-9.53-21.328-21.312-21.328z" fill="#48CFAD" /><path d="M511.92248 127.338V106.01c0-11.782-9.562-21.328-21.344-21.328s-21.312 9.546-21.312 21.328v21.328c-11.782 0-21.344 9.546-21.344 21.328 0 11.766 9.562 21.328 21.344 21.328v21.312c0 11.782 9.53 21.328 21.312 21.328s21.344-9.546 21.344-21.328V169.976c11.78 0 21.312-9.546 21.312-21.328 0-11.764-9.53-21.31-21.312-21.31z" fill="#A0D468" /><path d="M682.55848 767.148v-21.31c0-11.782-9.562-21.344-21.374-21.344-11.75 0-21.312 9.562-21.312 21.344v21.31c-11.75 0-21.312 9.562-21.312 21.344s9.562 21.312 21.312 21.312v21.346c0 11.78 9.562 21.31 21.312 21.31 11.81 0 21.374-9.532 21.374-21.31v-21.346c11.75 0 21.31-9.532 21.31-21.312s-9.56-21.344-21.31-21.344z" fill="#ED5564" /><path d="M530.42248 552.998l-60.31-60.326c-4-4-9.438-6.25-15.094-6.25s-11.062 2.25-15.062 6.25l-90.498 90.482c-4 4-6.25 9.438-6.25 15.094 0 5.654 2.25 11.06 6.25 15.06l60.312 60.344c8.344 8.312 21.844 8.312 30.186 0l90.466-90.498c8.344-8.312 8.344-21.844 0-30.156z" fill="#F6BB42" /><path d="M394.70848 537.906l90.464 90.496 30.188-30.154-90.498-90.498z" opacity=".1" /><path d="M250.64648 1012.988l203.872-293.932c3.844-5.062 9.532-16.218 4.782-34.436-5.188-19.844-21.406-43.188-49.53-71.312-28.124-28.124-51.436-44.31-71.28-49.498-18.218-4.75-29.374 0.906-34.436 4.75L9.18448 773.118a21.306 21.306 0 0 0-2.938 32.594l211.152 211.122v0.032c8.344 8.312 21.844 8.312 30.186 0a22.336 22.336 0 0 0 3.062-3.878z" fill="#FFCE54" /><path d="M126.90048 926.366l138.028-138.03c8.312-8.312 8.312-21.812 0-30.154-8.344-8.312-21.842-8.312-30.186 0L96.74448 896.18l30.156 30.186z" fill="#F6BB42" /></svg>