<?xml version="1.0" standalone="no"?><!DOCTYPE svg PUBLIC "-//W3C//DTD SVG 1.1//EN" "http://www.w3.org/Graphics/SVG/1.1/DTD/svg11.dtd"><svg class="icon" width="128px" height="128.00px" viewBox="0 0 1024 1024" version="1.1" xmlns="http://www.w3.org/2000/svg"><path d="M800.62 397.916L459.284 184.594a21.338 21.338 0 0 0-20.876-0.984 21.432 21.432 0 0 0-11.686 17.328c-5.876 71.452 10.53 128.746 48.78 170.278 25.718 27.92 61.092 48.31 105.154 60.608 33.032 9.234 70.876 13.922 112.466 13.922 55.874 0 98.592-8.454 100.404-8.812a21.356 21.356 0 0 0 16.782-17.094 21.364 21.364 0 0 0-9.688-21.924z" fill="#434A54" /><path d="M831.994 565.318c0 11.812-9.562 21.376-21.344 21.376s-21.344-9.562-21.344-21.376c0-11.75 9.562-21.312 21.344-21.312s21.344 9.562 21.344 21.312z" fill="#AC92EB" /><path d="M149.322 138.69c0 11.78-9.562 21.326-21.312 21.326-11.812 0-21.344-9.546-21.344-21.326 0-11.782 9.532-21.344 21.344-21.344 11.748 0 21.312 9.562 21.312 21.344z" fill="#FC6E51" /><path d="M277.318 352.012c0 11.782-9.562 21.328-21.312 21.328-11.812 0-21.342-9.546-21.342-21.328s9.532-21.328 21.342-21.328c11.75 0 21.312 9.546 21.312 21.328z" fill="#FFCE54" /><path d="M661.31 96.018a21.342 21.328 0 1 0 42.684 0 21.342 21.328 0 1 0-42.684 0Z" fill="#48CFAD" /><path d="M938.648 224.014v-21.326c0-11.782-9.562-21.344-21.344-21.344s-21.312 9.562-21.312 21.344v21.326c-11.812 0-21.344 9.546-21.344 21.328s9.532 21.344 21.344 21.344v21.328c0 11.78 9.532 21.326 21.312 21.326s21.344-9.546 21.344-21.326v-21.328c11.782 0 21.344-9.562 21.344-21.344s-9.562-21.328-21.344-21.328z" fill="#ED5564" /><path d="M128.01 480.008v-21.326c0-11.782-9.562-21.344-21.344-21.344s-21.342 9.562-21.342 21.344v21.326c-11.782 0-21.314 9.546-21.314 21.328s9.532 21.344 21.314 21.344v21.326c0 11.782 9.562 21.312 21.342 21.312s21.344-9.532 21.344-21.312V522.68c11.78 0 21.312-9.562 21.312-21.344s-9.532-21.328-21.312-21.328z" fill="#A0D468" /><path d="M991.146 720.47c-15.562-8.188-37.436-14.282-66.81-18.594-55.906-8.186-135.592-9.31-213.342-9.31-29.31 0-59.808 0.188-92.09 0.376-34.5 0.188-70.216 0.376-106.904 0.376-36.718 0-72.436-0.188-106.934-0.376-32.28-0.188-62.75-0.376-92.092-0.376-77.748 0-157.402 1.124-213.338 9.31-29.376 4.312-51.218 10.406-66.812 18.594C5.7 734.752 0.012 754.19 0.012 768c0 23.376 15.906 46.75 47.342 69.594 26.874 19.532 65.092 38.468 110.466 54.782 102.248 36.748 228.026 56.936 354.178 56.936 126.124 0 251.9-20.188 354.148-56.936 45.376-16.312 83.594-35.25 110.466-54.782 31.436-22.844 47.374-46.218 47.374-69.594 0.002-13.81-5.716-33.28-32.84-47.53z" fill="#434A54" /><path d="M724.62 773.282l-129.528-496.94a21.33 21.33 0 0 0-9.344-12.718l-126.464-79.03a21.31 21.31 0 0 0-19.532-1.594 21.34 21.34 0 0 0-12.592 15.046l-127.998 575.984c-0.344 1.532-0.5 3.094-0.5 4.656 0 7.376 3.562 26.094 36.656 40.812 34.594 15.376 94.03 23.188 176.684 23.188 82.624 0 142.06-7.81 176.652-23.188 33.092-14.718 36.654-33.438 36.654-40.812a21.13 21.13 0 0 0-0.688-5.404z" fill="#656D78" /><path d="M710.87 720.502c-5.282 4.624-12.466 9.312-22.216 13.656-34.592 15.376-94.03 23.156-176.652 23.156-82.654 0-142.09-7.782-176.684-23.156-10.844-4.812-18.5-10.062-23.906-15.218l-12.25 55.092c-0.344 1.532-0.5 3.094-0.5 4.656 0 7.376 3.562 26.094 36.656 40.812 34.594 15.376 94.03 23.188 176.684 23.188 82.624 0 142.06-7.81 176.652-23.188 33.092-14.718 36.654-33.438 36.654-40.812 0-1.844-0.218-3.624-0.688-5.406l-13.75-52.78z" fill="#FFCE54" /><path d="M470.658 757.314h85.34v84.56h-85.34z" fill="#FFCE54" /><path d="M378.004 819.5c-33.124-14.718-36.688-33.438-36.688-40.812 0-1.562 0.188-3.124 0.5-4.656l127.998-575.984c0.438-1.968 1.188-3.812 2.124-5.546l-12.656-7.906a21.31 21.31 0 0 0-19.532-1.594 21.34 21.34 0 0 0-12.592 15.046L299.16 774.032c-0.344 1.532-0.5 3.094-0.5 4.656 0 7.376 3.562 26.094 36.656 40.812 34.594 15.376 94.03 23.188 176.684 23.188 7.282 0 14.376-0.062 21.312-0.188-71.592-1.25-123.778-8.998-155.308-23z" fill="#FFFFFF" opacity=".1" /><path d="M555.998 863.218h-85.34c-11.782 0-21.344-9.532-21.344-21.344v-84.56c0-11.75 9.562-21.312 21.344-21.312h85.34c11.782 0 21.312 9.562 21.312 21.312v84.56c0 5.688-2.25 11.094-6.25 15.094s-9.406 6.25-15.062 6.25zM492 820.562h42.656v-41.876H492v41.876z" fill="#F6BB42" /></svg>