<?xml version="1.0" standalone="no"?><!DOCTYPE svg PUBLIC "-//W3C//DTD SVG 1.1//EN" "http://www.w3.org/Graphics/SVG/1.1/DTD/svg11.dtd"><svg class="icon" width="128px" height="128.00px" viewBox="0 0 1024 1024" version="1.1" xmlns="http://www.w3.org/2000/svg"><path d="M298.910416 1023.986c-4.90599 0-9.811981-1.687997-13.843973-5.12399-8.935983-7.623985-10.02998-21.093959-2.373995-30.061941l42.653917-49.997903c7.655985-8.999982 21.123959-10.06198 30.093941-2.405995s10.03198 21.093959 2.375995 30.093941l-42.655917 49.997903a21.343958 21.343958 0 0 1-16.249968 7.497985zM725.585583 1023.986a21.339958 21.339958 0 0 1-16.249968-7.499985l-42.651917-49.997903a21.367958 21.367958 0 0 1 2.375995-30.093941 21.315958 21.315958 0 0 1 30.093941 2.405995l42.651917 49.997903c7.655985 8.967982 6.593987 22.437956-2.375995 30.061941a21.247959 21.247959 0 0 1-13.843973 5.12599z" fill="#AAB2BC" /><path d="M864.773311 607.588813c-9.99998-81.463841-32.905936-143.16572-33.875934-145.759715a21.359958 21.359958 0 0 0-19.999961-13.827973H213.600583a21.319958 21.319958 0 0 0-19.967961 13.827973c-0.967998 2.593995-23.905953 64.293874-33.905934 145.759715-5.905988 48.217906-6.031988 93.373818-0.343999 134.247738 7.249986 52.153898 23.999953 97.46581 49.809902 134.685737 57.967887 83.715836 159.933688 126.151754 303.055409 126.151754 143.12172 0 245.085521-42.435917 303.085408-126.151754 25.78195-37.217927 42.531917-82.531839 49.811902-134.685737 5.657989-40.87592 5.563989-86.029832-0.371999-134.247738z" fill="#434A54" /><path d="M864.773311 607.588813c-9.99998-81.463841-32.905936-143.16572-33.875934-145.759715a21.359958 21.359958 0 0 0-19.999961-13.827973h-42.655916a21.319958 21.319958 0 0 1 19.967961 13.827973c0.967998 2.593995 23.905953 64.293874 33.905933 145.759715 5.905988 48.217906 6.031988 93.373818 0.344 134.247738-7.249986 52.153898-23.999953 97.46581-49.811903 134.685737-55.031893 79.465845-149.777707 121.713762-281.74145 125.777754 7.031986 0.218 14.123972 0.375999 21.341959 0.376 143.12172 0 245.085521-42.435917 303.085408-126.151754 25.78195-37.217927 42.531917-82.531839 49.811902-134.685737 5.657989-40.87792 5.563989-86.031832-0.371999-134.249738z" fill="#FFFFFF" opacity=".1" /><path d="M810.897416 298.675417c0 11.781977-9.531981 21.327958-21.311958 21.327958s-21.343958-9.545981-21.343958-21.327958c0-11.779977 9.561981-21.341958 21.343958-21.341959s21.311958 9.561981 21.311958 21.341959z" fill="#AC92EB" /><path d="M448.250125 21.337958c0 11.781977-9.561981 21.343958-21.341959 21.343959-11.781977 0-21.311958-9.561981-21.311958-21.343959 0-11.779977 9.531981-21.325958 21.311958-21.325958 11.779977 0 21.341958 9.545981 21.341959 21.325958z" fill="#FFCE54" /><path d="M896.24125 170.679667c0 11.781977-9.561981 21.327958-21.343959 21.327958s-21.311958-9.545981-21.311958-21.327958 9.531981-21.343958 21.311958-21.343959 21.343958 9.561981 21.343959 21.343959z" fill="#48CFAD" /><path d="M170.414667 298.675417c0 11.781977-9.531981 21.327958-21.311958 21.327958s-21.341958-9.545981-21.341959-21.327958c0-11.779977 9.561981-21.341958 21.341959-21.341959s21.311958 9.561981 21.311958 21.341959z" fill="#FC6E51" /><path d="M810.897416 405.329208H213.600583c-35.279931 0-63.997875 28.717944-63.997875 63.997875 0 35.295931 28.717944 63.999875 63.997875 63.999875h597.296833c35.311931 0 63.999875-28.703944 63.999875-63.999875 0-35.279931-28.687944-63.997875-63.999875-63.997875z" fill="#656D78" /><path d="M699.527634 327.941359c-0.032-0.046-4.655991-6.171988-6.875987-13.921972-2.623995-9.093982-0.999998-15.703969 5.37599-22.107957 17.307966-17.389966 23.057955-39.983922 16.121968-63.623876-4.623991-15.873969-13.589973-27.075947-14.745971-28.497944-0.032-0.016-0.032-0.016-0.032-0.032 0 0-0.032-0.016-0.032-0.032a21.267958 21.267958 0 0 0-16.437968-7.717985c-11.781977 0-21.311958 9.545981-21.311958 21.327958 0 5.15599 1.811996 9.873981 4.84399 13.559974l-0.062-0.094c0.062 0.062 4.99999 6.311988 7.093987 14.375972 2.187996 8.281984 0.467999 14.453972-5.655989 20.62396-17.281966 17.343966-23.031955 40.075922-16.155969 63.997875 4.623991 16.187968 13.655973 27.671946 14.655972 28.921943a21.301958 21.301958 0 0 0 16.593967 7.953985 21.343958 21.343958 0 1 0 16.625968-34.719933v-0.014z m-33.063936-101.013802l0.032 0.016v0.016l-0.032-0.032zM549.217927 157.351693c-6.343988-23.873953-18.593964-40.451921-19.999961-42.263918v0.016c-3.905992-5.10999-10.03198-8.421984-16.969966-8.421983-11.779977 0-21.341958 9.545981-21.341959 21.327958 0 4.811991 1.623997 9.249982 4.311992 12.811975v0.016c0.094 0.124 8.967982 12.201976 13.061974 28.623944 4.90599 19.671962 0.999998 36.389929-11.999976 51.0759-22.811955 25.78195-30.061941 57.405888-20.999959 91.451822 6.343988 23.889953 18.623964 40.453921 19.999961 42.265917v-0.016c3.905992 5.12399 10.06198 8.437984 16.967967 8.437984 11.781977 0 21.343958-9.561981 21.343958-21.343959 0-4.811991-1.623997-9.233982-4.311992-12.811975l0.032-0.016c-0.094-0.11-8.999982-12.203976-13.093974-28.623944-4.90599-19.669962-0.967998-36.373929 12.031976-51.0759 22.777956-25.78395 30.027941-57.391888 20.967959-91.453821zM372.846272 228.287554c-4.655991-15.873969-13.593973-27.075947-14.781971-28.497944 0 0-0.032-0.016-0.032-0.032 0 0 0-0.016-0.032-0.032a21.249958 21.249958 0 0 0-16.405968-7.717985c-11.781977 0-21.341958 9.545981-21.341958 21.327958 0 5.15599 1.843996 9.873981 4.87399 13.559974l-0.094-0.094c0.062 0.062 4.99999 6.311988 7.093986 14.375972 2.187996 8.281984 0.499999 14.453972-5.655989 20.62396-17.279966 17.343966-23.029955 40.075922-16.155968 63.997875 4.655991 16.187968 13.655973 27.671946 14.655971 28.921943h0.032a21.255958 21.255958 0 0 0 16.593968 7.953985c11.781977 0 21.311958-9.561981 21.311958-21.343959a21.139959 21.139959 0 0 0-4.717991-13.375974v-0.016c-0.032-0.046-4.655991-6.171988-6.875986-13.921972-2.593995-9.093982-0.999998-15.703969 5.375989-22.107957 17.343966-17.387966 23.061955-39.981922 16.155969-63.621876z m-47.717907-1.359997l0.032 0.016v0.016l-0.032-0.032z" fill="#E6E9ED" /><path d="M234.912541 85.337833V64.009875c0-11.781977-9.531981-21.327958-21.311958-21.327958-11.779977 0-21.341958 9.545981-21.341959 21.327958v21.327958c-11.781977 0-21.343958 9.561981-21.343958 21.343959s9.561981 21.327958 21.343958 21.327958v21.325958c0 11.781977 9.561981 21.343958 21.341959 21.343959 11.781977 0 21.311958-9.561981 21.311958-21.343959V128.00975c11.779977 0 21.341958-9.545981 21.341959-21.327958s-9.561981-21.343958-21.341959-21.343959z" fill="#A0D468" /><path d="M746.897541 42.681917V21.337958c0-11.779977-9.531981-21.325958-21.311958-21.325958s-21.343958 9.545981-21.343958 21.325958v21.343959c-11.777977 0-21.339958 9.545981-21.339959 21.327958s9.561981 21.327958 21.339959 21.327958v21.343959c0 11.781977 9.561981 21.327958 21.343958 21.327958s21.311958-9.545981 21.311958-21.327958V85.337833c11.781977 0 21.343958-9.545981 21.343959-21.327958s-9.561981-21.327958-21.343959-21.327958z" fill="#ED5564" /><path d="M362.910291 405.329208v173.355662c0 11.749977 9.561981 21.309958 21.343959 21.309958s21.341958-9.559981 21.341958-21.309958v-173.355662h-42.685917z" fill="#967ADC" /><path d="M448.250125 405.329208v42.671917c0 11.781977 9.561981 21.325958 21.343958 21.325958 11.779977 0 21.311958-9.543981 21.311958-21.325958v-42.671917h-42.655916z" fill="#AC92EB" /><path d="M533.593958 405.329208v127.99775c0 11.793977 9.531981 21.357958 21.307958 21.357959 11.811977 0 21.343958-9.561981 21.343959-21.357959v-127.99775h-42.651917z" fill="#967ADC" /><path d="M618.901791 405.329208v234.665542c0 11.781977 9.561981 21.311958 21.343959 21.311958s21.343958-9.531981 21.343958-21.311958V405.329208h-42.687917z" fill="#AC92EB" /></svg>