<?xml version="1.0" standalone="no"?><!DOCTYPE svg PUBLIC "-//W3C//DTD SVG 1.1//EN" "http://www.w3.org/Graphics/SVG/1.1/DTD/svg11.dtd"><svg class="icon" width="128px" height="128.00px" viewBox="0 0 1024 1024" version="1.1" xmlns="http://www.w3.org/2000/svg"><path d="M814.556 757.962c-34.75-29.25-41.532-96.936-48.688-168.622-7.062-70.904-14.376-144.214-47.782-203.088-39.28-69.282-106.778-145.748-206.446-146.06-99.56 0.312-167.06 76.78-206.372 146.06-33.342 58.874-40.686 132.184-47.734 203.088-7.172 71.654-13.906 139.372-48.702 168.622l-14.14 11.874 13.546 12.594c1.812 1.656 18.968 16.75 65.154 31.312 60.03 18.876 140.216 28.468 238.308 28.468 98.076 0 178.23-9.592 238.258-28.468 46.188-14.562 63.406-29.656 65.218-31.312l13.562-12.594-14.182-11.874z" fill="#7F4545" /><path d="M791.37 873.68l-2.812-0.782c-40.438-10.876-54.124-21.312-72.188-28.156-63.872-24.344-80.496-41.906-84.746-50.218-0.188-0.282-0.312-0.594-0.438-0.906l-0.5-74.248-118.982-1.718-118.966 1.718-0.532 74.248c-0.14 0.312-0.25 0.624-0.406 0.906-4.25 8.312-20.906 25.876-84.796 50.218-18.016 6.844-31.702 17.282-72.202 28.156l-2.782 0.782c-36.84 12.218-61.62 46.372-61.62 84.936v64.53h682.626v-64.53c0-38.564-24.844-72.718-61.656-84.936z" fill="#AC92EB" /><path d="M669.934 824.304c-26.466-13.812-35.374-24.032-38.31-29.782-0.188-0.282-0.312-0.594-0.438-0.906l-0.5-74.248-118.982-1.718-118.966 1.718-0.532 74.248c-0.14 0.312-0.25 0.624-0.406 0.906-2.954 5.75-11.844 15.938-38.234 29.75 20.938 18.656 70.092 51.218 158.45 51.218 88.294 0.002 137.108-32.498 157.918-51.186z" fill="#DBADA2" /><path d="M722.056 575.03c0 136.684-130.308 262.462-210.352 262.462-80.044 0-210.34-125.78-210.34-262.462 0-136.714 94.186-226.87 210.34-226.87 116.17 0 210.352 90.154 210.352 226.87z" fill="#EAC6BB" /><path d="M551.498 406.22c0.25 0.218 26.218 23.312 66.718 46.532 33.094 18.998 82.436 41.686 136.778 47.56-6.876-40.686-17.5-79.81-36.906-114.058-39.28-69.282-106.778-145.748-206.446-146.06-99.56 0.312 39.856 166.026 39.856 166.026z" fill="#965353" /><path d="M409.096 560.436c48.234-24.404 96.514-58.404 143.526-100.964 57.782-52.344 98.876-104.092 117.874-129.748-39.186-31.25-91.686-89.342-158.854-89.53-99.56 0.312-167.06 76.78-206.372 146.06-33.342 58.874-40.686 132.184-47.734 203.088-0.578 5.5-1.124 10.998-1.672 16.466 50.47-4.186 101.906-19.372 153.232-45.372z" fill="#965353" /><path d="M1023.988 790.148c0 11.782-9.562 21.344-21.31 21.344-11.812 0-21.376-9.562-21.376-21.344s9.562-21.344 21.376-21.344c11.748 0 21.31 9.564 21.31 21.344z" fill="#AC92EB" /><path d="M981.302 235.506a21.298 21.298 0 0 1-21.31 21.312c-11.782 0-21.312-9.532-21.312-21.312s9.532-21.342 21.312-21.342c11.78 0 21.31 9.56 21.31 21.342z" fill="#48CFAD" /><path d="M170.68 619.496c0 11.782-9.562 21.312-21.342 21.312s-21.328-9.532-21.328-21.312 9.546-21.342 21.328-21.342 21.342 9.56 21.342 21.342z" fill="#ED5564" /><path d="M42.682 405.752c0 11.782-9.562 21.344-21.344 21.344-11.78 0-21.328-9.562-21.328-21.344s9.546-21.31 21.328-21.31 21.344 9.528 21.344 21.31z" fill="#FC6E51" /><path d="M85.338 875.492c0 11.782-9.548 21.312-21.33 21.312-11.78 0-21.328-9.532-21.328-21.312s9.546-21.344 21.328-21.344c11.784 0 21.33 9.562 21.33 21.344zM810.682 107.51c0 11.782-9.562 21.312-21.376 21.312-11.75 0-21.312-9.532-21.312-21.312s9.562-21.344 21.312-21.344c11.814 0 21.376 9.562 21.376 21.344z" fill="#FFCE54" /><path d="M959.992 534.156v-21.344c0-11.782-9.562-21.312-21.312-21.312-11.812 0-21.376 9.532-21.376 21.312v21.344c-11.75 0-21.312 9.56-21.312 21.342s9.562 21.312 21.312 21.312v21.344c0 11.78 9.562 21.342 21.376 21.342 11.75 0 21.312-9.562 21.312-21.342v-21.344c11.78 0 21.31-9.532 21.31-21.312s-9.53-21.342-21.31-21.342z" fill="#ED5564" /><path d="M234.678 107.51V86.166c0-11.782-9.562-21.312-21.344-21.312-11.78 0-21.328 9.532-21.328 21.312v21.344c-11.782 0-21.328 9.532-21.328 21.312s9.546 21.342 21.328 21.342v21.344c0 11.782 9.546 21.312 21.328 21.312s21.344-9.532 21.344-21.312V150.164c11.782 0 21.328-9.56 21.328-21.342s-9.546-21.312-21.328-21.312z" fill="#A0D468" /><path d="M845.62 380.16c-11.376-5.094-27.062-8.844-48.062-11.468-39.282-4.938-95.124-5.624-149.622-5.624-20.5 0-41.812 0.094-64.376 0.218-24.124 0.124-49.044 0.25-74.684 0.25s-50.592-0.124-74.702-0.25a11792.292 11792.292 0 0 0-64.358-0.218c-54.484 0-110.326 0.688-149.638 5.624-20.968 2.624-36.67 6.376-48.03 11.468-23.968 10.782-27.546 27.56-27.546 36.592 0 17.532 12.454 34.156 37.03 49.438 19.188 11.936 46.328 23.466 78.482 33.342 71.858 22.094 160.2 34.25 248.76 34.25s176.932-12.156 248.744-34.25c32.188-9.876 59.312-21.406 78.5-33.342 24.56-15.282 37.03-31.906 37.03-49.438 0-9.032-3.594-25.81-27.528-36.592z" fill="#434A54" /><path d="M723.15 397.408L531.11 12.634a21.376 21.376 0 0 0-19.094-11.78 21.336 21.336 0 0 0-19.092 11.78L300.88 397.408a21.482 21.482 0 0 0-2.25 9.532c0 7.344 3.594 26 36.812 40.5 34.562 15.062 93.984 22.716 176.574 22.716 82.608 0 141.982-7.654 176.574-22.716 33.216-14.5 36.78-33.156 36.78-40.5 0-3.314-0.75-6.564-2.22-9.532z" fill="#656D78" /><path d="M716.994 385.066c-5.406 6.53-14.188 13.498-28.404 19.716-34.592 15.062-93.966 22.718-176.574 22.718-82.59 0-142.012-7.656-176.574-22.718-14.218-6.218-23-13.188-28.406-19.716l-6.156 12.342a21.482 21.482 0 0 0-2.25 9.532c0 7.344 3.594 26 36.812 40.5 34.562 15.062 93.984 22.716 176.574 22.716 82.608 0 141.982-7.654 176.574-22.716 33.216-14.5 36.78-33.156 36.78-40.5 0-3.312-0.75-6.562-2.218-9.532l-6.158-12.342z" fill="#FFCE54" /></svg>