<?xml version="1.0" standalone="no"?><!DOCTYPE svg PUBLIC "-//W3C//DTD SVG 1.1//EN" "http://www.w3.org/Graphics/SVG/1.1/DTD/svg11.dtd"><svg class="icon" width="128px" height="128.00px" viewBox="0 0 1024 1024" version="1.1" xmlns="http://www.w3.org/2000/svg"><path d="M980.23 0.02H553.56c-11.782 0-21.344 9.562-21.344 21.312v384.046c0 11.75 9.562 21.312 21.344 21.312h63.998V512l170.68-85.31h191.992c11.782 0 21.312-9.562 21.312-21.312V21.332c0-11.75-9.53-21.312-21.312-21.312z" fill="#ED5564" /><path d="M537.216 868.862H102.796s-113.246-527.48 217.21-527.48c330.426 0 217.21 527.48 217.21 527.48z" fill="#E2A437" /><path d="M563.81 856.486l-2.406-0.688c-35.282-9.5-47.216-18.624-62.936-24.562-55.716-21.25-70.214-36.56-73.934-43.748-0.124-0.312-0.218-0.562-0.344-0.812l-0.468-64.746-103.714-1.5-103.714 1.5-0.468 64.746c-0.124 0.25-0.218 0.5-0.344 0.812-3.718 7.188-18.218 22.498-73.934 43.748-15.718 5.938-27.656 15.062-62.936 24.562l-2.438 0.688c-32.124 10.624-53.716 40.374-53.716 73.996v93.498h595.1v-93.498c0-33.622-21.622-63.37-53.748-73.996z" fill="#A0D468" /><path d="M503.376 596.058c0 119.184-113.59 228.802-183.368 228.802-69.81 0-183.398-109.62-183.398-228.802 0-119.12 82.122-197.742 183.398-197.742s183.368 78.622 183.368 197.742z" fill="#EAC6BB" /><path d="M353.538 475.814l-165.088 109.622-60.496 14.498 14.28-77.622 40.558-107.246 113.778-40.872 133.34 8.874 55.998 95.996 16.03 70.872z" fill="#FFCE54" /><path d="M554.436 628.808c-6.094-96.246-32.094-196.744-105.402-249.616l-83.464 69.622-24.06 35.25 212.616 145.182 0.31-0.438z" fill="#F6BB42" /><path d="M85.142 636.372c82.934-15.124 174.586-60.124 272.458-133.808 58.342-43.998 100.996-84.872 117.184-100.996-35.438-36.874-85.28-60.184-154.776-60.184-178.304-0.002-227.428 153.554-234.866 294.988zM769.176 277.29c-11.782 0-21.342-9.562-21.342-21.342V106.64c0-11.78 9.56-21.342 21.342-21.342S790.52 94.86 790.52 106.64v149.306c0 11.782-9.562 21.344-21.344 21.344zM790.52 319.946c0 11.78-9.562 21.342-21.344 21.342s-21.342-9.562-21.342-21.342c0-11.782 9.56-21.312 21.342-21.312s21.344 9.53 21.344 21.312z" fill="#FFCE54" /></svg>