<?xml version="1.0" standalone="no"?><!DOCTYPE svg PUBLIC "-//W3C//DTD SVG 1.1//EN" "http://www.w3.org/Graphics/SVG/1.1/DTD/svg11.dtd"><svg class="icon" width="128px" height="128.00px" viewBox="0 0 1024 1024" version="1.1" xmlns="http://www.w3.org/2000/svg"><path d="M797.056 816.562l-2.532-0.688c-36.938-9.938-49.438-19.5-65.906-25.75-58.31-22.188-73.496-38.246-77.372-45.808-0.156-0.25-0.25-0.562-0.376-0.812l-0.5-67.812-138.37-1.564-138.372 1.562-0.484 67.812c-0.124 0.25-0.234 0.562-0.376 0.812-3.876 7.562-19.062 23.622-77.406 45.808-16.452 6.25-28.952 15.812-65.888 25.75l-2.546 0.688c-33.624 11.128-56.25 42.312-56.25 77.562v97.872H853.306v-97.872c0-35.246-22.624-66.43-56.25-77.56z" fill="#5D9CEC" /><path d="M703.994 544.57c0 124.746-118.934 239.554-191.994 239.554-73.076 0-192.01-114.808-192.01-239.554 0-124.732 85.966-207.042 192.01-207.042 106.06 0 191.994 82.31 191.994 207.042z" fill="#EAC6BB" /><path d="M981.302 842.624c0 11.812-9.532 21.376-21.31 21.376-11.782 0-21.312-9.562-21.312-21.376 0-11.746 9.532-21.312 21.312-21.312 11.78 0 21.31 9.566 21.31 21.312z" fill="#EC87C0" /><path d="M810.682 202.656c0 11.782-9.562 21.342-21.376 21.342-11.75 0-21.312-9.562-21.312-21.342s9.562-21.344 21.312-21.344c11.814 0 21.376 9.564 21.376 21.344z" fill="#FFCE54" /><path d="M170.68 586.632c0 11.812-9.562 21.372-21.342 21.372s-21.328-9.558-21.328-21.372c0-11.75 9.546-21.312 21.328-21.312s21.342 9.562 21.342 21.312z" fill="#FC6E51" /><path d="M42.682 372.932c0 11.782-9.562 21.312-21.344 21.312-11.78 0-21.328-9.53-21.328-21.312 0-11.78 9.546-21.342 21.328-21.342s21.344 9.562 21.344 21.342z" fill="#48CFAD" /><path d="M85.338 842.624c0 11.812-9.548 21.376-21.33 21.376-11.78 0-21.328-9.562-21.328-21.376 0-11.746 9.546-21.312 21.328-21.312 11.784 0 21.33 9.566 21.33 21.312z" fill="#AC92EB" /><path d="M987.49 74.658c0 11.782-9.562 21.344-21.31 21.344-11.812 0-21.376-9.562-21.376-21.344 0-11.78 9.562-21.342 21.376-21.342 11.748 0 21.31 9.562 21.31 21.342z" fill="#A0D468" /><path d="M234.678 74.658V53.316c0-11.782-9.562-21.312-21.344-21.312-11.78 0-21.328 9.532-21.328 21.312v21.342c-11.782 0-21.328 9.564-21.328 21.344 0 11.782 9.546 21.312 21.328 21.312v21.344c0 11.78 9.546 21.342 21.328 21.342s21.344-9.562 21.344-21.342V117.314c11.782 0 21.328-9.532 21.328-21.312 0-11.78-9.546-21.344-21.328-21.344z" fill="#ED5564" /><path d="M1002.678 373.308v-21.312c0-11.782-9.562-21.344-21.376-21.344-11.75 0-21.31 9.562-21.31 21.344v21.312c-11.782 0-21.312 9.562-21.312 21.342 0 11.782 9.532 21.344 21.312 21.344v21.312c0 11.78 9.56 21.342 21.31 21.342 11.812 0 21.376-9.562 21.376-21.342v-21.312c11.748 0 21.31-9.562 21.31-21.344 0-11.778-9.562-21.342-21.31-21.342z" fill="#48CFAD" /><path d="M835.182 413.964c-18.718-8.312-44.906-15.688-77.876-21.876-65.748-12.374-152.872-19.156-245.306-19.156-92.45 0-179.574 6.782-245.292 19.156-32.984 6.188-59.17 13.562-77.874 21.876-26.202 11.656-39.5 26.624-39.5 44.5 0 17.842 13.296 32.812 39.5 44.468 18.704 8.312 44.89 15.686 77.874 21.874 65.716 12.376 152.84 19.188 245.292 19.188 92.436 0 179.558-6.812 245.306-19.188 32.968-6.188 59.156-13.562 77.876-21.874 26.186-11.656 39.498-26.624 39.498-44.468 0-17.876-13.312-32.844-39.498-44.5z" fill="#967ADC" /><path d="M659.998 433.338c-0.156-0.844-16.5-86.906-37.688-171.84-12.562-50.31-24.376-90.53-35.124-119.59-14.906-40.376-29.812-67.25-53.858-67.25-47.078 0-87.452 59-127.012 185.622-26.734 85.56-42.608 169.56-43.28 173.09l-1.704 9.124 5.5 7.468c8.25 11.218 38.092 30.03 145.168 30.03 46.124 0 126.216-3.968 144.592-30.53l5.094-7.342-1.688-8.782z" fill="#AC92EB" /><path d="M599.436 650.566c-21.282-14.312-49.874-21.25-87.436-21.25-37.546 0-66.154 6.938-87.45 21.25-27.03 18.124-40.734 46.876-40.734 85.438 0 38.184 13.454 99.876 32.718 149.996 27.014 70.376 59.138 105.996 95.466 105.996 36.312 0 68.436-35.622 95.466-105.996 19.282-50.122 32.718-111.812 32.718-149.996 0.002-38.562-13.686-67.312-40.748-85.438z" fill="#E6E9ED" /><path d="M533.328 714.628h-42.656c-11.782 0-21.342-9.562-21.342-21.312 0-11.812 9.562-21.312 21.342-21.312h42.656c11.796 0 21.358 9.5 21.358 21.312 0 11.75-9.562 21.312-21.358 21.312z" fill="#434A54" /><path d="M647.936 373.714c-0.188 0.032-0.376 0.062-0.562 0.124-14.75 4.438-58.906 13.312-85.25 1.062-10.688-4.968-23.374-0.312-28.342 10.344-4.968 10.686-0.328 23.374 10.344 28.342 14.624 6.812 32.248 10.218 52.592 10.218 7.624 0 15.594-0.468 23.968-1.438 16.438-1.876 29.906-5.188 35.844-6.782a3622.7 3622.7 0 0 0-8.594-41.87z" fill="#080808" opacity=".1" /><path d="M682.684 991.996a22.26 22.26 0 0 1-6.624-1.062c-11.188-3.622-17.31-15.684-13.686-26.872 0.282-0.876 28.716-88.438 60.464-179.876 58.406-168.122 76.968-203.618 85.844-215.618 18.376-24.922 54.374-27.766 81.936-22.124 35.624 7.25 61.624 28.124 67.876 54.496 8.188 34.438-18.188 63.812-41.75 82.376-16 12.624-36.438 13.812-53.376 3.124-18.31-11.562-27.936-33.938-23.31-54.376 2.624-11.5 14.03-18.688 25.53-16.062 11.468 2.562 18.688 14 16.094 25.5-0.624 2.75 1.5 7 4.468 8.812 1.344 0.876 2.032 1.188 4.188-0.5 18.968-14.938 28.906-29.5 26.656-39-2.218-9.438-16.906-18.934-34.906-22.558-18.968-3.938-34.78-0.188-39.092 5.624-20.376 27.622-96.688 249.804-140.062 383.368-2.906 9.002-11.25 14.748-20.25 14.748z" fill="#965353" /></svg>