<?xml version="1.0" standalone="no"?><!DOCTYPE svg PUBLIC "-//W3C//DTD SVG 1.1//EN" "http://www.w3.org/Graphics/SVG/1.1/DTD/svg11.dtd"><svg class="icon" width="128px" height="128.00px" viewBox="0 0 1024 1024" version="1.1" xmlns="http://www.w3.org/2000/svg"><path d="M536.25874 259.834a21.332 21.332 0 0 0-19.562-2.516l-21.968 8.078 9.468-26.094a21.3 21.3 0 0 0 0.188-14.032l-19.11-57.342a21.336 21.336 0 0 0-15.202-13.984 21.334 21.334 0 0 0-19.922 5.438l-124.874 121.498-61.732 18.702a21.304 21.304 0 0 0-6.844 3.532c-1.718 1.328-42.858 33.14-94.762 81.234-70.06 64.92-123.388 125.512-158.528 180.088-4.218 6.562-4.516 14.938-0.782 21.782s10.922 11.094 18.718 11.094h44.436c-19.436 32.498-43.328 85.186-44.42 148.996a21.356 21.356 0 0 0 11.782 19.436l31.562 15.782c2.546 28.594 14.438 96.032 69.592 150.904 6.344 6.312 15.954 8 24.062 4.25l40.53-18.876c7.25 10.844 17.64 26.062 28.89 41.438 39.592 54.154 55.968 64.748 70.904 64.748 17.156 0 34-14.5 60.078-51.748a643.334 643.334 0 0 0 15.922-24l39.358 28.938a21.326 21.326 0 0 0 27.062-1.468c41.75-38.312 49.64-91.716 50.342-122.404h20.562c11.532 0 20.984-9.124 21.328-20.686 2.906-97.188-52.89-234.684-63.966-260.934l0.984-158.84 71.124-100.608a21.414 21.414 0 0 0 3.906-12.312v-22.592c0-6.97-3.408-13.502-9.126-17.502z" fill="#CCD1D9" /><path d="M469.37074 571.686s-79.982 56.748-106.842 56.248c-26.876-0.438-161.09-67.248-163.136-55.654s127.95 98.342 163.136 98.342c35.172 0 108.56-94.842 106.842-98.936z" fill="#AAB2BC" /><path d="M810.65874 0.012c-117.624 0-213.34 95.702-213.34 213.324 0 117.636 95.716 213.338 213.34 213.338s213.338-95.702 213.338-213.338C1023.99674 95.712 928.28274 0.012 810.65874 0.012z" fill="#FFCE54" /><path d="M938.65674 192.008c-11.782 0-21.344 9.546-21.344 21.328 0 11.78 9.562 21.342 21.344 21.342s21.344-9.562 21.344-21.342c0-11.782-9.562-21.328-21.344-21.328zM810.65874 277.334c-11.782 0-21.344 9.562-21.344 21.342 0 11.782 9.562 21.328 21.344 21.328s21.344-9.546 21.344-21.328c0-11.78-9.562-21.342-21.344-21.342zM810.65874 149.336c0-35.28-28.718-63.998-64-63.998s-63.998 28.718-63.998 63.998c0 35.296 28.716 64 63.998 64s64-28.704 64-64z" fill="#F6BB42" /><path d="M63.44074 597.31l-14.344 31.654 91.234-96.588zM277.21874 295.052l-21.564 87.764 69.624-101.936zM494.72874 265.396l7.172-19.766-39.078 48.032 53.874-36.344z" fill="#AAB2BC" /></svg>