<?xml version="1.0" standalone="no"?><!DOCTYPE svg PUBLIC "-//W3C//DTD SVG 1.1//EN" "http://www.w3.org/Graphics/SVG/1.1/DTD/svg11.dtd"><svg class="icon" width="128px" height="128.00px" viewBox="0 0 1024 1024" version="1.1" xmlns="http://www.w3.org/2000/svg"><path d="M1015.546 555.034l-148.43-112.964c-11.532-28.966-64.904-150.46-163.806-191.46-41.688-17.31-83.87-26.06-125.4-26.06-30.844 0-52.936 5.032-62.216 7.624a640.214 640.214 0 0 0-53.592-2.25c-62.34 0-125.058 9.28-186.43 27.654-48.998 14.656-97.214 35.062-143.37 60.686-78.748 43.716-123.932 87.214-125.806 89.028a21.374 21.374 0 0 0-1.782 28.688l370.172 460.762a21.256 21.256 0 0 0 16.624 7.968c1.25 0 2.5-0.124 3.75-0.344 100.964-18.062 162.556-69.592 196.462-109.652 29.436-34.782 43.654-67.03 48.498-79.624l50.746-48.404c36.782 8.344 143.372 31.748 178.65 31.748 45.03 0 105.4-44.53 112.12-49.624 2.344-1.75 4.312-4 5.75-6.53l33.748-59.78a21.35 21.35 0 0 0-5.688-27.466z" fill="#CCD1D9" /><path d="M767.994 419.696c0 11.782-9.56 21.31-21.342 21.31-11.78 0-21.342-9.53-21.342-21.31s9.562-21.344 21.342-21.344c11.782 0 21.342 9.562 21.342 21.344zM1015.546 555.034l-32.748-24.906-3.094 31.562 38.092 26.874 3.438-6.062a21.352 21.352 0 0 0-5.688-27.468z" fill="#656D78" /><path d="M524.818 625.624l140.336 65.682 25.812-24.622zM426.822 230.89l45.78 28.124 33.624-27.53a630.876 630.876 0 0 0-44.124-1.562c-11.75 0-23.498 0.312-35.28 0.968z" fill="#AAB2BC" /><path d="M608.692 352.416l77.62-18.374L704 140.644c-0.002 0-82.81 80.622-95.308 211.772z" fill="#EC87C0" /><path d="M657.812 340.792l21.06-170.868c-45.402 14.624-130.838 49.28-170.148 111.778-6.28 9.968-19.436 12.966-29.406 6.718-9.968-6.282-12.968-19.438-6.718-29.406C536.786 156.892 692.748 121.27 699.374 119.8c6.75-1.5 13.844 0.376 18.968 5.062a21.24 21.24 0 0 1 6.812 18.406l-23.344 187.992-43.998 9.532z" fill="#CCD1D9" /><path d="M722.716 130.394a21.358 21.358 0 0 0-23.344-10.594c-6.624 1.468-162.588 37.092-226.772 139.212a21.352 21.352 0 0 0-2.688 16.312 21.39 21.39 0 0 0 9.78 13.312l106.654 63.996a21.224 21.224 0 0 0 10.968 3.062c3.094 0 6.188-0.688 9.032-2.032a21.3 21.3 0 0 0 12.062-16c15.06-95.652 99.776-181.054 100.62-181.896a21.302 21.302 0 0 0 3.688-25.372z" fill="#CCD1D9" /></svg>