<?xml version="1.0" standalone="no"?><!DOCTYPE svg PUBLIC "-//W3C//DTD SVG 1.1//EN" "http://www.w3.org/Graphics/SVG/1.1/DTD/svg11.dtd"><svg class="icon" width="128px" height="128.00px" viewBox="0 0 1024 1024" version="1.1" xmlns="http://www.w3.org/2000/svg"><path d="M395.048 512.296h-53.716c0-11.78-9.546-21.342-21.328-21.342-11.78 0-21.328 9.562-21.328 21.342v42.67c0 11.782 9.546 21.344 21.328 21.344s21.328-9.562 21.328-21.344h53.716c11.782 0 21.328-9.562 21.328-21.36 0-11.78-9.546-21.31-21.328-21.31z" fill="#E6E9ED" /><path d="M959.986 746.962h-85.308c-11.812 0-21.376-9.562-21.376-21.344v-106.686c-26.562-19.998-42.624-51.654-42.624-85.326 0-29.31 11.938-52.684 34.624-67.498 18.062-11.844 42.282-17.812 71.998-17.812 29.748 0 53.998 5.968 72.06 17.812 22.624 14.812 34.624 38.188 34.624 67.498 0 33.672-16.062 65.328-42.688 85.326v106.686c0.002 11.782-9.528 21.344-21.31 21.344z" fill="#434A54" /><path d="M386.52 746.962H21.2V725.62c0-79.28 26.25-131.872 51.656-182.762 11.61-23.218 22.578-45.184 31.092-69.59 15.546-44.53 0.032-66.154-5.062-73.28-12.422-17.344-32.828-28.842-47.718-37.25-15.282-8.624-27.328-15.406-30.282-28.998-1.546-7.124 0.016-14.344 4.406-20.376 7.344-10.062 20.484-14.188 45.342-14.188 30.61 0 81.622 7.25 126.528 23.438 57.202 20.624 90.06 50.374 95.014 86.06 3.562 25.592-4.562 53.56-12.422 80.624-10.532 36.216-20.468 70.45-4.266 95.232 27.218 41.624 54.17 66.498 73.842 84.654 20.78 19.154 37.186 34.28 37.186 56.436v21.342z" fill="#FFCE54" /><path d="M424.268 615.528c-8.14 0-15.922-4.686-19.468-12.592l-50.544-112.576a21.3 21.3 0 0 1-1.876-8.5l-0.718-67.686c-0.124-11.782 9.328-21.438 21.108-21.562h0.234c11.672 0 21.202 9.376 21.326 21.094l137.764 131.574c4.828 10.75 21.406 42.844 10.656 47.688-2.828 1.248-115.56 22.56-118.482 22.56z" fill="#CCD1D9" /><path d="M619.058 557.842c-5.094 0-50.56 21.468-54.624 17.782L297.24 352.176c-10.36 5.624-23.312 1.782-28.936-8.562-5.624-10.342-1.796-23.312 8.546-28.936l66.686-36.25a21.334 21.334 0 0 1 24.468 2.906l265.368 239.336c8.75 7.876 9.438 21.376 1.562 30.14a21.46 21.46 0 0 1-15.876 7.032z" fill="#E6E9ED" /><path d="M618.808 552.78c-4.376 0-8.782-1.344-12.562-4.124-48.808-35.734-86.418-100.106-93.622-160.23-5.422-45.342 6.016-86.278 33.062-118.372 26.186-31.03 58.714-50.25 94.122-55.562 35.124-5.312 71.25 4.062 101.654 26.312 51.964 38.062 63.278 111.34 25.216 163.308-15.404 21.062-38.124 34.874-63.902 38.842-25.782 4-51.594-2.312-72.656-17.718-17.812-13.03-29.438-32.186-32.81-53.936-3.344-21.78 1.968-43.53 14.998-61.31 11.062-15.124 27.376-25.062 45.938-27.906 18.5-2.874 37.062 1.656 52.188 12.718 9.5 6.968 11.562 20.312 4.624 29.812-6.968 9.532-20.312 11.594-29.812 4.624-5.938-4.344-13.218-6.124-20.5-5s-13.688 5-18.032 10.968a39.434 39.434 0 0 0-7.218 29.56 39.598 39.598 0 0 0 15.812 26.03c11.876 8.688 26.406 12.25 40.938 10 14.562-2.25 27.344-10.032 36.03-21.906 24.154-32.968 16.968-79.498-16.03-103.654-44.75-32.75-98.876-24-137.936 22.342-19.5 23.124-27.374 52-23.31 85.778 5.78 48.342 37.216 102.154 76.434 130.87 9.5 6.938 11.562 20.312 4.624 29.828a21.39 21.39 0 0 1-17.25 8.726z" fill="#FFCE54" /><path d="M725.306 746.962c-4.998 0-10.06-1.75-14.124-5.344L156.54 250.93c-8.828-7.812-9.656-21.282-1.844-30.094 7.812-8.844 21.296-9.656 30.11-1.844l554.658 490.658c8.844 7.812 9.656 21.282 1.844 30.124a21.348 21.348 0 0 1-16.002 7.188z" fill="#F5F7FA" /><path d="M1002.674 704.306h-15.124c-18.656-11.844-83.81-52.78-155.746-93.28-50.124-28.154-93.746-50.654-129.712-66.842-47.656-21.484-81.938-31.89-104.78-31.89-22.812 0-57.06 10.406-104.732 31.89-35.968 16.188-79.608 38.688-129.7 66.842-71.966 40.5-137.106 81.436-155.762 93.28H21.34c-11.78 0-21.328 9.532-21.328 21.312v63.996c0 11.782 9.546 21.344 21.328 21.344h981.334c11.75 0 21.312-9.562 21.312-21.344V725.62c0-11.782-9.562-21.314-21.312-21.314z" fill="#FC6E51" /></svg>