<?xml version="1.0" standalone="no"?><!DOCTYPE svg PUBLIC "-//W3C//DTD SVG 1.1//EN" "http://www.w3.org/Graphics/SVG/1.1/DTD/svg11.dtd"><svg class="icon" width="128px" height="128.00px" viewBox="0 0 1024 1024" version="1.1" xmlns="http://www.w3.org/2000/svg"><path d="M815.208 0.01s-185.056 15.968-172.494 188.12c13.968 191.45 112.214 17.344 112.214 17.344l-0.032-84.842L815.208 0.01z" fill="#F6BB42" /><path d="M966.018 133.13l-96.496 144.746-54.312 6.032-195.994-135.7-15.094 165.872S102.278 755.584 52.31 805.548c-49.968 49.966-49.968 130.996 0 180.964 49.968 49.966 130.98 49.966 180.948 0 16.406-16.406 491.488-551.812 491.488-551.812s115.058 38.576 189.838-11.624c176.87-118.746 51.434-289.946 51.434-289.946zM175.352 928.61c-16.656 16.654-43.654 16.654-60.31 0-16.656-16.656-16.656-43.656 0-60.312s43.654-16.656 60.31 0 16.656 43.656 0 60.312z" fill="#F6BB42" /><path d="M966.018 90.476l-96.496 144.762-54.312 6.032-196.026-135.714-15.062 165.87S102.278 712.962 52.31 762.93c-49.968 49.934-49.968 130.962 0 180.93 49.968 49.968 130.98 49.968 180.948 0 16.406-16.404 491.488-551.796 491.488-551.796s115.058 38.562 189.838-11.638c176.87-118.736 51.434-289.95 51.434-289.95zM175.352 885.954c-16.656 16.656-43.654 16.656-60.31 0s-16.656-43.654 0-60.31 43.654-16.656 60.31 0c16.656 16.654 16.656 43.652 0 60.31z" fill="#FFCE54" /><path d="M264.164 758.146a21.314 21.314 0 0 1-15.078-6.25c-8.328-8.312-8.328-21.812 0-30.156l301.602-301.586c8.31-8.328 21.81-8.328 30.154 0 8.312 8.328 8.312 21.828 0 30.154L279.24 751.896a21.284 21.284 0 0 1-15.076 6.25z" fill="#F6BB42" /><path d="M836.396 238.91l-21.188 2.36-121.65-84.232c-0.5 0.718-1 1.454-1.438 2.25L666.246 208.8c-5.25 9.594-2.406 21.624 6.624 27.812l104.402 71.748a21.424 21.424 0 0 0 12.06 3.75 22.54 22.54 0 0 0 4.968-0.594 21.33 21.33 0 0 0 13.75-10.5l25.876-49.514a21.182 21.182 0 0 0 2.47-12.592z" fill="#E6E9ED" /><path d="M708.402 261.034l35.31 24.264 37.156-67.826-35.28-24.422z" fill="#CCD1D9" /></svg>