<?xml version="1.0" standalone="no"?><!DOCTYPE svg PUBLIC "-//W3C//DTD SVG 1.1//EN" "http://www.w3.org/Graphics/SVG/1.1/DTD/svg11.dtd"><svg class="icon" width="128px" height="128.00px" viewBox="0 0 1024 1024" version="1.1" xmlns="http://www.w3.org/2000/svg"><path d="M874.606 0.018H149.364c-47.156 0-85.342 38.202-85.342 85.324v938.642h725.336V170.684L874.606 0.018z" fill="#FECD57" /><path d="M831.98 170.684h0.062-0.062z"  /><path d="M874.606 0.018c-47.126 0-85.31 38.202-85.31 85.324v85.342h85.31c47.124 0 85.374-38.204 85.374-85.342C959.978 38.218 921.728 0.018 874.606 0.018z" fill="#F5BA45" /><path d="M682.674 597.308h-42.686c0-11.75-9.562-21.31-21.312-21.31-11.812 0-21.312 9.56-21.312 21.31 0-11.75-9.562-21.31-21.374-21.31-11.752 0-21.312 9.56-21.312 21.31h-42.672c-11.78 0-21.342 9.562-21.342 21.376 0 11.748 9.562 21.312 21.342 21.312h170.668c11.748 0 21.31-9.564 21.31-21.312 0-11.812-9.562-21.376-21.31-21.376zM198.268 207.088a21.168 21.168 0 0 0 15.092 6.25c5.876 0 11.22-2.376 15.062-6.25l27.594-27.576 27.56 27.576a21.28 21.28 0 0 0 15.094 6.25c5.906 0 11.218-2.376 15.094-6.25l42.654-42.654a21.198 21.198 0 0 0 6.25-15.094c0-11.782-9.532-21.328-21.312-21.328a21.18 21.18 0 0 0-15.092 6.266L298.67 161.84l-27.56-27.562c-3.876-3.876-9.188-6.266-15.094-6.266s-11.25 2.39-15.094 6.266L213.36 161.84 185.768 134.278a21.184 21.184 0 0 0-15.094-6.266c-11.78 0-21.31 9.546-21.31 21.328 0 5.906 2.376 11.234 6.25 15.094l42.654 42.654zM682.674 853.3a21.496 21.496 0 0 0-15.126 6.248l-27.56 27.626-27.562-27.626c-3.876-3.842-9.188-6.248-15.062-6.248a21.392 21.392 0 0 0-15.126 6.248l-27.56 27.626-27.576-27.626a21.42 21.42 0 0 0-15.096-6.248c-11.78 0-21.342 9.562-21.342 21.376 0 5.874 2.406 11.188 6.25 15.06l42.654 42.686c3.876 3.846 9.234 6.252 15.11 6.252s11.188-2.406 15.06-6.252l27.626-27.592 27.562 27.592c3.876 3.846 9.186 6.252 15.062 6.252 5.876 0 11.25-2.406 15.124-6.252l42.626-42.686a21.2 21.2 0 0 0 6.248-15.06c-0.002-11.812-9.564-21.376-21.312-21.376zM256.016 256.008c-58.904 0-106.652 47.748-106.652 106.668 0 58.906 47.748 106.654 106.652 106.654s106.652-47.748 106.652-106.654c0-58.92-47.748-106.668-106.652-106.668z m0 170.668c-35.282 0-63.998-28.718-63.998-64 0-35.294 28.716-63.996 63.998-63.996 35.28 0 63.998 28.702 63.998 63.996 0 35.282-28.72 64-63.998 64z" fill="#424953" /><path d="M256.016 384.004c11.782 0 21.344-9.546 21.344-21.328 0-11.78-9.562-21.342-21.344-21.342s-21.344 9.562-21.344 21.342c0 11.782 9.562 21.328 21.344 21.328zM703.984 128.012h-213.32v213.322h213.32V128.012z m-42.622 170.668h-128.012V170.684h128.012v127.996zM170.674 554.688h42.686c11.782 0 21.312-9.564 21.312-21.36 0-11.782-9.532-21.328-21.312-21.328H170.674c-11.78 0-21.31 9.546-21.31 21.328 0 11.796 9.53 21.36 21.31 21.36zM298.67 512c-11.782 0-21.31 9.546-21.31 21.328 0 11.794 9.53 21.36 21.31 21.36h42.686c11.782 0 21.312-9.564 21.312-21.36 0-11.782-9.532-21.328-21.312-21.328h-42.686zM320.294 597.308H149.364v213.37h42.654v-170.682h128.276v127.994H277.64V682.68h-42.686v127.998h127.996V597.308h-33.592zM341.356 895.988c-122.15 0-146.588-22.158-149.838-25.94-2.126-9.56-10.626-16.748-20.844-16.748-11.718 0-21.248 9.5-21.31 21.218v0.188c0 4.218 1.282 14.812 12.438 26.03 24.998 25.156 85.402 37.938 179.554 37.938 11.782 0 21.312-9.562 21.312-21.376 0-11.75-9.532-21.31-21.312-21.31zM192.018 874.52c0-0.532-0.062-1.094-0.094-1.626 0.062 0.47 0.094 1.032 0.094 1.626z m0 0.28v-0.094 0.094zM490.664 703.994c0 58.934 47.748 106.684 106.7 106.684 58.874 0 106.622-47.75 106.622-106.684V682.68H490.632l0.032 21.314z m167.01 21.31c-8.81 24.876-32.498 42.686-60.31 42.686-27.874 0-51.56-17.81-60.388-42.686h120.698zM597.488 384.004c-58.888 0-106.668 74.67-106.668 74.67s47.78 74.654 106.668 74.654c58.938 0 106.686-74.654 106.686-74.654s-47.748-74.67-106.686-74.67z m44.686 82.388c-16.498 15.654-32.374 24.28-44.686 24.28-12.31 0-28.188-8.626-44.622-24.28a170.174 170.174 0 0 1-7.69-7.718 162.44 162.44 0 0 1 7.69-7.734c16.434-15.656 32.31-24.264 44.622-24.264 12.312 0 28.188 8.608 44.686 24.264a194.132 194.132 0 0 1 7.626 7.734 203.876 203.876 0 0 1-7.626 7.718z" fill="#424953" /><path d="M895.978 874.676c-23.56 0-42.686-19.156-42.686-42.688V328.85l42.686-42.67 42.624 42.67v503.138c0 23.532-19.124 42.688-42.624 42.688z" fill="#646C77" /><path d="M895.978 256.008l-63.998 63.998v511.982c0 35.342 28.626 64 63.998 64 35.312 0 64-28.658 64-64V320.006l-64-63.998z m21.314 575.98c0 11.75-9.562 21.312-21.312 21.312s-21.374-9.562-21.374-21.312V337.678l21.374-21.328 21.312 21.328v494.31z" fill="#424953" /><path d="M425.448 0.018c-13.156 17.294-20.126 38.874-20.126 63.404v960.56h42.656V63.422c0-24.796 9.906-42.282 30.28-53.436 11.5-6.312 23.438-8.938 29.966-9.968h-82.776z" fill="#F5BA45" /></svg>