<?xml version="1.0" standalone="no"?><!DOCTYPE svg PUBLIC "-//W3C//DTD SVG 1.1//EN" "http://www.w3.org/Graphics/SVG/1.1/DTD/svg11.dtd"><svg class="icon" width="128px" height="128.00px" viewBox="0 0 1024 1024" version="1.1" xmlns="http://www.w3.org/2000/svg"><path d="M966.986 661.314h-56.656l-56.996 199.12 85.308 56.872 85.34-56.872z" fill="#FFCE54" /><path d="M938.642 106.694c-47.124 0-85.308 38.202-85.308 85.34V768h170.648V192.034c0-47.14-38.186-85.34-85.34-85.34z" fill="#434A54" /><path d="M543.966 169.364c-62.654 0-119.308 25.764-159.962 67.248-40.656-41.484-97.31-67.248-159.996-67.248C100.296 169.364 0.018 269.64 0.018 393.34c0 255.976 383.988 479.968 383.988 479.968S767.96 649.316 767.96 393.34c0-123.7-100.278-223.976-223.994-223.976z" fill="#ED5564" /><path d="M0.018 393.34c0 97.512 55.716 190.352 124.714 267.974h518.544c68.966-77.624 124.684-170.462 124.684-267.974 0-10.39-0.718-20.624-2.094-30.656H2.112A225.486 225.486 0 0 0 0.018 393.34z" fill="#E6E9ED" /><path d="M469.346 533.336h-170.65a21.292 21.292 0 0 0-15.094 6.248c-8.312 8.328-8.312 21.86 0 30.172a21.35 21.35 0 0 0 15.094 6.25h170.65c5.468 0 10.936-2.094 15.092-6.25 8.344-8.312 8.344-21.844 0-30.172a21.234 21.234 0 0 0-15.092-6.248zM591.092 454.26a21.228 21.228 0 0 0-15.094-6.25H192.042a21.228 21.228 0 0 0-15.092 6.25c-8.312 8.328-8.312 21.842 0 30.17a21.294 21.294 0 0 0 15.092 6.25h383.956a21.3 21.3 0 0 0 15.094-6.25c8.344-8.328 8.344-21.842 0-30.17z" fill="#434A54" /><path d="M543.966 169.364c-7.186 0-14.28 0.36-21.31 1.016 113.684 10.75 202.65 106.464 202.65 222.96 0 219.352-281.992 415.218-362.644 466.782 13.468 8.624 21.342 13.188 21.342 13.188S767.96 649.316 767.96 393.34c0-123.7-100.278-223.976-223.994-223.976z" opacity=".1" /></svg>