<?xml version="1.0" standalone="no"?><!DOCTYPE svg PUBLIC "-//W3C//DTD SVG 1.1//EN" "http://www.w3.org/Graphics/SVG/1.1/DTD/svg11.dtd"><svg class="icon" width="128px" height="128.00px" viewBox="0 0 1024 1024" version="1.1" xmlns="http://www.w3.org/2000/svg"><path d="M1023.988 895.992c0 23.558-19.094 42.684-42.688 42.684H42.682c-23.562 0-42.67-19.124-42.67-42.684V170.696c0-23.562 19.108-42.686 42.67-42.686H981.3c23.594 0 42.688 19.124 42.688 42.686v725.296z" fill="#4A89DC" /><path d="M1023.988 853.304c0 23.562-19.094 42.688-42.688 42.688H42.682c-23.562 0-42.67-19.124-42.67-42.688V128.01c0-23.562 19.108-42.686 42.67-42.686H981.3c23.594 0 42.688 19.124 42.688 42.686v725.294z" fill="#5D9CEC" /><path d="M696.934 427.316c0-69.874-56.624-126.56-126.532-126.56A125.83 125.83 0 0 0 512 315.068a125.828 125.828 0 0 0-58.406-14.312c-69.888 0-126.544 56.688-126.544 126.56a126.004 126.004 0 0 0 11.938 53.686l38.124 82.624c-9.124 29.188 5.734 204.368 66.748 204.368 19.188 0 49.328-162.872 68.124-162.996 18.812-0.124 48.95 162.996 68.136 162.996 61 0 75.876-175.18 66.75-204.368l38.124-82.624c7.69-16.314 11.94-34.502 11.94-53.686z" fill="#E6E9ED" /><path d="M580.122 789.304c-21.156 0-30.184-23.75-36.122-39.434-6.11-16.124-12.5-37.312-18.688-57.812-3.656-12.124-8.578-28.5-13.296-42.5-4.734 14-9.656 30.312-13.312 42.438-6.188 20.562-12.578 41.75-18.704 57.876-5.968 15.684-15 39.434-36.14 39.434-13 0-32.078-4.876-49.154-28.062-11.922-16.246-28-48.622-36.844-110.872-4.046-28.5-6.218-63.308-3.062-84.246L319.644 490c-9.234-19.688-13.92-40.812-13.92-62.686 0-81.56 66.342-147.874 147.872-147.874a148.592 148.592 0 0 1 58.406 12c18.36-7.876 38.344-12 58.402-12 81.532 0 147.872 66.312 147.872 147.874 0 21.936-4.688 42.998-13.964 62.748l-35.124 76.124c3.156 20.876 1 55.684-3.062 84.184-8.844 62.25-24.938 94.624-36.844 110.872-17.098 23.188-36.16 28.062-49.16 28.062z m-126.528-467.174c-58.014 0-105.2 47.188-105.2 105.186 0 15.624 3.328 30.624 9.906 44.624l0.062 0.124 41.562 90.062-2.454 7.812c-1.952 6.312-2.75 36.622 2.64 74.496 5.844 41.124 16.422 74.438 29 91.562 2.516 3.438 4.984 6 7.374 7.812 6.438-14.624 15.516-44.688 21.36-64.124 6.11-20.188 12.422-41.124 18.406-57 5.876-15.438 14.734-38.872 35.594-38.996h0.172c20.968 0 29.86 23.434 35.734 38.996 6 15.876 12.308 36.812 18.434 57.062 5.812 19.438 14.876 49.438 21.312 64.062 2.376-1.812 4.844-4.376 7.376-7.812 12.562-17.124 23.124-50.438 29-91.562 5.376-37.876 4.594-68.184 2.624-74.496l-2.438-7.812 3.438-7.5 38.156-82.562a104.426 104.426 0 0 0 9.968-44.748c0-57.998-47.188-105.186-105.218-105.186-17.122 0-33.464 4-48.542 11.812l-9.86 5.188-9.86-5.188c-15.078-7.812-31.42-11.812-48.546-11.812z" fill="#CCD1D9" /><path d="M448 170.696H106.682c-11.782 0-21.344 9.562-21.344 21.312 0 11.812 9.562 21.312 21.344 21.312H448c11.782 0 21.328-9.5 21.328-21.312 0.002-11.75-9.546-21.312-21.328-21.312zM256.006 234.696H106.682c-11.782 0-21.344 9.56-21.344 21.31 0 11.812 9.562 21.31 21.344 21.31h149.324c11.782 0 21.328-9.498 21.328-21.31 0-11.75-9.546-21.31-21.328-21.31z" fill="#434A54" /></svg>