<?xml version="1.0" standalone="no"?><!DOCTYPE svg PUBLIC "-//W3C//DTD SVG 1.1//EN" "http://www.w3.org/Graphics/SVG/1.1/DTD/svg11.dtd"><svg class="icon" width="128px" height="128.00px" viewBox="0 0 1024 1024" version="1.1" xmlns="http://www.w3.org/2000/svg"><path d="M1023.988 895.992c0 23.558-19.094 42.684-42.688 42.684H42.682c-23.562 0-42.67-19.124-42.67-42.684V170.696c0-23.562 19.108-42.686 42.67-42.686H981.3c23.594 0 42.688 19.124 42.688 42.686v725.296z" fill="#4A89DC" /><path d="M1023.988 853.304c0 23.562-19.094 42.688-42.688 42.688H42.682c-23.562 0-42.67-19.124-42.67-42.688V128.01c0-23.562 19.108-42.686 42.67-42.686H981.3c23.594 0 42.688 19.124 42.688 42.686v725.294z" fill="#5D9CEC" /><path d="M106.682 213.32H448c11.782 0 21.328-9.5 21.328-21.312 0-11.75-9.546-21.312-21.328-21.312H106.682c-11.782 0-21.344 9.562-21.344 21.312 0 11.812 9.562 21.312 21.344 21.312zM256.006 234.696H106.682c-11.782 0-21.344 9.56-21.344 21.31 0 11.812 9.562 21.31 21.344 21.31h149.324c11.782 0 21.328-9.498 21.328-21.31 0-11.75-9.546-21.31-21.328-21.31z" fill="#434A54" /><path d="M533.328 554.688c11.796 0 21.356-9.562 21.356-21.376 0-11.75-9.558-21.312-21.356-21.312-11.782 0-21.328 9.562-21.328 21.312 0 11.812 9.546 21.376 21.328 21.376zM490.672 554.688c11.782 0 21.328-9.562 21.328-21.376 0-11.75-9.546-21.312-21.328-21.312s-21.342 9.562-21.342 21.312c0 11.812 9.56 21.376 21.342 21.376zM535.516 597.308c-11.782 0-21.344 9.562-21.344 21.376 0 11.75 9.562 21.312 21.344 21.312 11.796 0 21.324-9.562 21.324-21.312 0-11.812-9.528-21.376-21.324-21.376z" fill="#CCD1D9" /><path d="M492.844 597.308c-11.782 0-21.328 9.562-21.328 21.376 0 11.75 9.546 21.312 21.328 21.312s21.328-9.562 21.328-21.312c0-11.812-9.548-21.376-21.328-21.376zM352.27 279.068c-0.36 0-0.704-0.062-1.062-0.062-11.782 0-21.344 9.562-21.344 21.376 0 11.376 8.968 20.688 20.25 21.25v0.062c0.656 0 3.704 0.124 8.656 0.124 24.64 0 96.342-3.5 153.388-41.062 57.028 37.562 128.714 41.062 153.402 41.062 4.938 0 7.968-0.124 8.624-0.124v-0.062c11.282-0.562 20.25-9.876 20.25-21.25 0-11.812-9.562-21.376-21.312-21.376-0.376 0-0.75 0.062-1.124 0.062-0.876 0.062-87.688 3.938-144.808-39.998l-15.032 19.562-15.032-19.562c-56.812 43.684-143.982 39.998-144.856 39.998z" fill="#CCD1D9" /><path d="M691.246 425.69v-0.062c-0.312-0.062-33.124-5.688-69.75-20-24.25-9.5-54.124-24.436-74.434-45.56 61.434 31.876 135.996 34.624 139.996 34.75 0.25 0 0.438 0.062 0.688 0.062 11.75 0 21.312-9.562 21.312-21.376 0-11.5-9.188-20.938-20.624-21.312-1.062 0-107.718-4.188-156.558-55.188l-19.718 18.938-19.718-18.938c-48.842 51-155.496 55.188-156.558 55.188v0.062c-11.454 0.312-20.64 9.75-20.64 21.25 0 11.812 9.546 21.376 21.328 21.376 0.234 0 0.454-0.062 0.672-0.062 3.984-0.124 78.592-2.876 140.012-34.75-20.342 21.124-50.186 36.06-74.452 45.56-36.624 14.312-69.436 19.938-69.764 20v0.062c-10.094 1.688-17.796 10.436-17.796 20.998 0 11.75 9.546 21.312 21.328 21.312 1.204 0 2.376-0.124 3.516-0.312v0.062c4.546-0.812 86.81-15.062 145.292-58.498-10.842 24.062-43.186 65.498-139.418 89.936-9.234 2.312-16.094 10.688-16.094 20.624 0 11.812 9.562 21.376 21.344 21.376 1.812 0 3.562-0.25 5.234-0.688 89.608-22.75 133.856-60.374 155.716-92.312 21.86 31.938 66.09 69.562 155.714 92.312 1.688 0.438 3.438 0.688 5.25 0.688 11.75 0 21.312-9.562 21.312-21.376 0-9.936-6.844-18.312-16.094-20.624h0.032c-41.218-10.5-96.688-31-126.808-69.248-6.032-7.688-10.032-14.75-12.718-20.75 58.496 43.498 140.84 57.748 145.372 58.56l0.032-0.062c1.124 0.188 2.312 0.312 3.5 0.312 11.75 0 21.312-9.562 21.312-21.312-0.006-10.562-7.692-19.31-17.818-20.998z m-179.09-40.622a147.24 147.24 0 0 0 5.032 5.376h-10.062a184.474 184.474 0 0 0 5.03-5.376z m0-48.126a158.54 158.54 0 0 0 8.406 6.688l-8.406 4.312-8.406-4.312a165.324 165.324 0 0 0 8.406-6.688z" fill="#CCD1D9" /><path d="M693.528 633.308c-2.218-8.188-11.094-11.438-23.782-11.438-35.594 0-101.438 25.562-136.418 40.312V213.32h-42.656v450.426c-33.796-14.376-103.248-41.876-140.168-41.876-12.718 0-21.562 3.25-23.782 11.438-10.936 40.312 41.828 125.684 82.436 157.934 19.376 15.376 43.264 19.438 62.92 19.438 21.546 0 38.046-4.876 38.046-4.876s16.5 4.876 38.062 4.876c19.652 0 43.528-4.062 62.902-19.438 40.626-32.25 93.376-117.62 82.44-157.934z m-257.84 124.56c-15.234-12.122-34.202-35.934-48.342-60.746-6.61-11.562-11.062-21.312-14.016-29.25 13.204 3 32.53 8.624 60.28 19 27.39 10.25 50.81 20.624 57.06 23.438v56.122c-4.734 0.75-11.266 1.562-18.592 1.562-10.764-0.002-25.828-1.752-36.39-10.126z m197.214-60.746c-14.156 24.812-33.094 48.624-48.344 60.746-10.562 8.376-25.624 10.124-36.372 10.124-5.562 0-10.656-0.438-14.86-1V708.62a952.492 952.492 0 0 1 52.824-21.562c28-10.5 47.5-16.124 60.782-19.188-2.968 7.938-7.436 17.688-14.03 29.252z" fill="#E6E9ED" /></svg>