<?xml version="1.0" standalone="no"?><!DOCTYPE svg PUBLIC "-//W3C//DTD SVG 1.1//EN" "http://www.w3.org/Graphics/SVG/1.1/DTD/svg11.dtd"><svg class="icon" width="128px" height="128.00px" viewBox="0 0 1024 1024" version="1.1" xmlns="http://www.w3.org/2000/svg"><path d="M1002.672 170.198H21.36C9.58 170.198 0.018 179.76 0.018 191.542V447.44c0 11.782 9.562 21.312 21.342 21.312h981.312a21.3 21.3 0 0 0 21.312-21.312V191.542c0-11.782-9.53-21.344-21.312-21.344z" fill="#656D78" /><path d="M490.688 319.474H0.016v42.654h490.672A21.3 21.3 0 0 0 512 340.818c0-11.78-9.532-21.344-21.312-21.344z" fill="#434A54" /><path d="M895.864 319.474c0 23.562-19.094 42.654-42.656 42.654-23.532 0-42.656-19.092-42.656-42.654s19.124-42.654 42.656-42.654c23.562 0 42.656 19.092 42.656 42.654z" fill="#A0D468" /><path d="M1018.984 177.822l-107.434-127.964a21.406 21.406 0 0 0-16.344-7.624H127.482a21.368 21.368 0 0 0-16.406 7.716L4.954 177.916a21.35 21.35 0 0 0-2.906 22.688 21.36 21.36 0 0 0 19.312 12.25h981.312c8.282 0 15.812-4.812 19.312-12.312a21.292 21.292 0 0 0-3-22.72z" fill="#434A54" /><path d="M512 47.794l503.484 125.81-46.75-55.624-302.956-75.746h-196.432v170.62H512v-79.78l319.176 79.78H1002.704l3.436-0.282L512 89.138z" opacity=".2" /><path d="M861.3 865.364c-3.75-85.342-76.528-276.46-79.622-284.554l-2.438-6.374-17.656-11.688v-26.718l-129.652-38.998-40.812 27.282h-158.212l-40.812-27.282-129.652 38.998v26.718l-17.656 11.688-2.438 6.374c-3.094 8.094-75.872 199.212-79.622 284.554-2.282 52.28 21.656 80.934 42.154 95.746 21.5 15.562 43.218 18.938 45.624 19.25l9.968 1.376 7.406-6.782c0.25-0.25 27.25-25.032 57.748-50.186 53.904-44.404 70.216-50.124 72.998-50.81h226.742c2.812 0.688 19.124 6.406 73.028 50.81 30.5 25.154 57.468 49.936 57.75 50.186l7.406 6.812 9.968-1.406c2.406-0.312 24.124-3.688 45.622-19.25 20.502-14.814 44.44-43.468 42.158-95.746z" fill="#656D78" /><path d="M362.724 639.372m-42.656 0a42.656 42.656 0 1 0 85.312 0 42.656 42.656 0 1 0-85.312 0Z" fill="#CCD1D9" /><path d="M362.724 703.336c-35.28 0-63.966-28.686-63.966-63.964 0-35.282 28.686-63.968 63.966-63.968s63.998 28.688 63.998 63.968c0 35.278-28.718 63.964-63.998 63.964z m0-85.308c-11.75 0-21.312 9.594-21.312 21.344 0 11.748 9.562 21.31 21.312 21.31 11.782 0 21.342-9.562 21.342-21.31 0-11.75-9.562-21.344-21.342-21.344z" fill="#AAB2BC" /><path d="M618.652 767.304c0 23.56-19.094 42.654-42.656 42.654-23.558 0-42.652-19.094-42.652-42.654 0-23.532 19.094-42.624 42.652-42.624 23.562 0 42.656 19.094 42.656 42.624z" fill="#CCD1D9" /><path d="M575.996 831.3c-35.278 0-63.996-28.716-63.996-63.996 0-35.25 28.718-63.968 63.996-63.968 35.282 0 63.968 28.718 63.968 63.968 0 35.28-28.686 63.996-63.968 63.996z m0-85.308c-11.782 0-21.34 9.562-21.34 21.312 0 11.782 9.558 21.342 21.34 21.342 11.75 0 21.312-9.56 21.312-21.342 0-11.75-9.562-21.312-21.312-21.312z" fill="#AAB2BC" /><path d="M676.372 697.086c-8.312 8.344-21.844 8.344-30.156 0-8.344-8.31-8.344-21.81 0-30.154 8.312-8.312 21.844-8.312 30.156 0 8.308 8.344 8.308 21.844 0 30.154z" fill="#A0D468" /><path d="M719.024 654.432c-8.344 8.344-21.844 8.344-30.156 0-8.34-8.31-8.34-21.81 0-30.154 8.312-8.312 21.812-8.312 30.156 0 8.312 8.344 8.312 21.844 0 30.154z" fill="#ED5564" /><path d="M676.372 611.778c-8.312 8.344-21.844 8.344-30.156 0-8.344-8.312-8.344-21.812 0-30.156 8.312-8.31 21.844-8.31 30.156 0 8.308 8.342 8.338 21.842 0 30.156z" fill="#FFCE54" /><path d="M633.714 654.432c-8.312 8.344-21.844 8.344-30.156 0-8.312-8.31-8.312-21.81 0-30.154 8.344-8.312 21.844-8.312 30.156 0 8.344 8.344 8.344 21.844 0 30.154z" fill="#5D9CEC" /><path d="M426.722 831.3c-11.782 0-21.342-9.562-21.342-21.342v-85.28c0-11.782 9.562-21.344 21.342-21.344s21.312 9.562 21.312 21.344v85.28c0 11.78-9.532 21.342-21.312 21.342z" fill="#CCD1D9" /><path d="M469.346 788.646h-85.28c-11.78 0-21.342-9.56-21.342-21.342 0-11.75 9.562-21.312 21.342-21.312h85.28c11.78 0 21.342 9.562 21.342 21.312 0 11.782-9.562 21.342-21.342 21.342z" fill="#CCD1D9" /></svg>