<?xml version="1.0" standalone="no"?><!DOCTYPE svg PUBLIC "-//W3C//DTD SVG 1.1//EN" "http://www.w3.org/Graphics/SVG/1.1/DTD/svg11.dtd"><svg class="icon" width="128px" height="128.00px" viewBox="0 0 1024 1024" version="1.1" xmlns="http://www.w3.org/2000/svg"><path d="M266.662 767.992h298.682v85.312H266.662zM224.006 597.308h383.99v85.344H224.006zM181.352 426.658h469.3V512H181.352zM138.666 256.004H693.34v85.31H138.666zM96.01 85.322h639.982v85.342H96.01z" fill="#F6BB42" /><path d="M288.006 853.304H544v85.34H288.006zM245.35 682.652h341.302v85.34H245.35zM202.664 512H629.34v85.31H202.664zM160.008 341.316h511.988v85.342H160.008zM117.354 170.664h597.298v85.342H117.354zM74.666 0.012h682.668v85.31H74.666z" fill="#FFCE54" /><path d="M160.008 42.666c0 11.782-9.562 21.342-21.344 21.342-11.78 0-21.312-9.562-21.312-21.342s9.532-21.344 21.312-21.344c11.782 0.002 21.344 9.564 21.344 21.344zM501.344 895.988c0 11.75-9.562 21.312-21.342 21.312s-21.344-9.562-21.344-21.312c0-11.812 9.562-21.34 21.344-21.34s21.342 9.528 21.342 21.34zM522.656 810.648c0 11.782-9.532 21.344-21.312 21.344-11.78 0-21.342-9.562-21.342-21.344s9.562-21.344 21.342-21.344 21.312 9.564 21.312 21.344zM544 725.304c0 11.782-9.562 21.344-21.344 21.344s-21.312-9.562-21.312-21.344c0-11.778 9.532-21.308 21.312-21.308S544 713.528 544 725.304zM565.344 639.996c0 11.75-9.562 21.312-21.344 21.312s-21.344-9.562-21.344-21.312c0-11.812 9.562-21.344 21.344-21.344s21.344 9.532 21.344 21.344zM586.652 554.656c0 11.778-9.532 21.34-21.308 21.34-11.782 0-21.344-9.562-21.344-21.34 0-11.782 9.562-21.344 21.344-21.344 11.778 0 21.308 9.564 21.308 21.344zM607.996 469.312c0 11.78-9.562 21.342-21.344 21.342s-21.308-9.562-21.308-21.342S574.872 448 586.652 448s21.344 9.532 21.344 21.312zM629.34 384.002c0 11.75-9.562 21.312-21.344 21.312s-21.344-9.562-21.344-21.312c0-11.812 9.562-21.342 21.344-21.342s21.344 9.53 21.344 21.342zM650.652 298.662c0 11.78-9.532 21.342-21.312 21.342s-21.344-9.562-21.344-21.342c0-11.782 9.562-21.344 21.344-21.344s21.312 9.562 21.312 21.344zM671.996 213.32c0 11.78-9.562 21.342-21.344 21.342s-21.312-9.562-21.312-21.342c0-11.782 9.532-21.312 21.312-21.312s21.344 9.53 21.344 21.312zM693.34 128.008c0 11.75-9.562 21.312-21.344 21.312s-21.344-9.562-21.344-21.312c0-11.812 9.562-21.344 21.344-21.344s21.344 9.532 21.344 21.344z" fill="#434A54" /><path d="M330.662 895.988c0 11.75 9.562 21.312 21.342 21.312s21.344-9.562 21.344-21.312c0-11.812-9.562-21.34-21.344-21.34s-21.342 9.528-21.342 21.34zM309.348 810.648c0 11.782 9.532 21.344 21.312 21.344 11.78 0 21.342-9.562 21.342-21.344s-9.562-21.344-21.342-21.344-21.312 9.564-21.312 21.344zM288.006 725.304c0 11.782 9.562 21.344 21.342 21.344s21.312-9.562 21.312-21.344c0-11.778-9.532-21.308-21.312-21.308s-21.342 9.532-21.342 21.308zM266.662 639.996c0 11.75 9.562 21.312 21.344 21.312 11.78 0 21.342-9.562 21.342-21.312a21.332 21.332 0 0 0-21.342-21.344c-11.782 0-21.344 9.532-21.344 21.344zM245.35 554.656c0 11.778 9.532 21.34 21.312 21.34 11.782 0 21.344-9.562 21.344-21.34 0-11.782-9.562-21.344-21.344-21.344-11.78 0-21.312 9.564-21.312 21.344zM224.006 469.312c0 11.78 9.562 21.342 21.344 21.342 11.78 0 21.312-9.562 21.312-21.342S257.13 448 245.35 448c-11.78 0-21.344 9.532-21.344 21.312zM202.664 384.002c0 11.75 9.562 21.312 21.342 21.312 11.782 0 21.344-9.562 21.344-21.312 0-11.812-9.562-21.342-21.344-21.342-11.78 0-21.342 9.53-21.342 21.342zM181.352 298.662c0 11.78 9.532 21.342 21.312 21.342s21.342-9.562 21.342-21.342c0-11.782-9.562-21.344-21.342-21.344s-21.312 9.562-21.312 21.344zM160.008 213.32c0 11.78 9.562 21.342 21.342 21.342 11.782 0 21.312-9.562 21.312-21.342a21.3 21.3 0 0 0-21.312-21.312c-11.778-0.002-21.342 9.53-21.342 21.312zM138.666 128.008c0 11.75 9.562 21.312 21.344 21.312s21.342-9.562 21.342-21.312c0-11.812-9.562-21.344-21.342-21.344s-21.344 9.532-21.344 21.344z" fill="#434A54" /><path d="M735.992 42.666c0 11.782-9.558 21.342-21.34 21.342s-21.312-9.562-21.312-21.342 9.532-21.344 21.312-21.344 21.34 9.564 21.34 21.344zM757.336 1023.988c-11.782 0-21.344-9.562-21.344-21.344V661.308c0-11.782 9.562-21.312 21.344-21.312s21.312 9.532 21.312 21.312v341.336c0 11.782-9.53 21.344-21.312 21.344zM885.336 938.644c-11.782 0-21.344-9.562-21.344-21.344V575.996c0-11.812 9.562-21.34 21.344-21.34 11.778 0 21.308 9.528 21.308 21.34V917.3c0 11.782-9.53 21.344-21.308 21.344z" fill="#434A54" /><path d="M757.336 554.656c-35.308 0-63.996 28.714-63.996 63.996s28.688 64 63.996 64c35.282 0 64-28.718 64-64s-28.718-63.996-64-63.996zM885.336 895.988c-35.312 0-64 28.688-64 64 0 35.282 28.688 64 64 64 35.278 0 63.996-28.718 63.996-64 0-35.312-28.718-64-63.996-64z" fill="#EC5564" /></svg>