<?xml version="1.0" standalone="no"?><!DOCTYPE svg PUBLIC "-//W3C//DTD SVG 1.1//EN" "http://www.w3.org/Graphics/SVG/1.1/DTD/svg11.dtd"><svg class="icon" width="128px" height="128.00px" viewBox="0 0 1024 1024" version="1.1" xmlns="http://www.w3.org/2000/svg"><path d="M362.65482 373.338h-127.998c-11.78 0-21.328-9.532-21.328-21.344v-63.998c0-11.75 9.546-21.312 21.328-21.312H320.00082c7.124 0 13.796 3.562 17.75 9.5l42.656 63.998a21.3 21.3 0 0 1 1.062 21.906 21.304 21.304 0 0 1-18.814 11.25z" fill="#E6E9ED" /><path d="M636.18082 424.712l-41.092-82.25a21.354 21.354 0 0 0-19.092-11.78H192.00082c-11.782 0-21.342 9.562-21.342 21.312A21.332 21.332 0 0 0 192.00082 373.338h59.312l-37.562 187.794 41.828 8.376 476.008 10.938 30.156-30.188-125.562-125.546z" fill="#CCD1D9" /><path d="M959.98882 479.994H192.00082c-11.782 0-21.342 9.562-21.342 21.344v63.984c0 11.812 9.562 21.376 21.342 21.376s21.328-9.562 21.328-21.376v-42.64H256.00082v42.64c0 11.812 9.546 21.376 21.328 21.376 11.78 0 21.328-9.562 21.328-21.376v-42.64h42.67v42.64c0 11.812 9.546 21.376 21.328 21.376s21.342-9.562 21.342-21.376v-42.64h42.656v42.64c0 11.812 9.562 21.376 21.342 21.376s21.328-9.562 21.328-21.376v-42.64h42.67v42.64c0 11.812 9.548 21.376 21.33 21.376 11.796 0 21.328-9.562 21.328-21.376v-42.64h42.686v42.64c0 11.812 9.532 21.376 21.312 21.376s21.342-9.562 21.342-21.376v-42.64h42.656v42.64c0 11.812 9.562 21.376 21.344 21.376s21.344-9.562 21.344-21.376v-42.64h42.656v42.64c0 11.812 9.562 21.376 21.342 21.376 11.782 0 21.312-9.562 21.312-21.376v-42.64h42.686v42.64c0 11.812 9.532 21.376 21.312 21.376s21.344-9.562 21.344-21.376v-42.64h42.656v42.64c0 11.812 9.562 21.376 21.344 21.376s21.344-9.562 21.344-21.376v-63.984c0.002-11.782-9.56-21.344-21.342-21.344z" fill="#434A54" /><path d="M1022.79882 558.258a21.426 21.426 0 0 0-20.156-14.266H106.66082a21.32 21.32 0 0 0-19.078 11.828L2.25482 726.442a21.29 21.29 0 0 0 0.938 20.75 21.266 21.266 0 0 0 18.14 10.124h768c4.844 0 9.532-1.624 13.312-4.624l213.34-170.684c7.064-5.688 9.814-15.188 6.814-23.75z" fill="#E6E9ED" /><path d="M8.14682 714.692l-5.89 11.75a21.29 21.29 0 0 0 0.938 20.75 21.266 21.266 0 0 0 18.14 10.124h768c4.844 0 9.532-1.624 13.312-4.624l47.498-38H8.14682z" fill="#434A54" /><path d="M251.31282 373.338l-10.28 51.374H636.18082l-25.654-51.374z" fill="#4FC2E9" /><path d="M341.32682 373.338h42.67v51.374h-42.67zM426.65482 373.338h42.67v51.374h-42.67z" fill="#3BAFDA" /></svg>