<?xml version="1.0" standalone="no"?><!DOCTYPE svg PUBLIC "-//W3C//DTD SVG 1.1//EN" "http://www.w3.org/Graphics/SVG/1.1/DTD/svg11.dtd"><svg class="icon" width="128px" height="128.00px" viewBox="0 0 1024 1024" version="1.1" xmlns="http://www.w3.org/2000/svg"><path d="M875.245304 831.675427h42.717683v85.467366h-42.717683z" fill="#CCD1D9" /><path d="M959.33868 909.612849c-3.217976-8.499937-11.375916-13.999896-20.531848-13.811898L105.469017 917.174793a21.309842 21.309842 0 0 0-20.17185 16.15388L63.923326 997.454197a21.359841 21.359841 0 0 0 20.731846 26.529803h726.496608c4.999963 0 9.811927-1.749987 13.655898-4.937963l128.215049-85.467366a21.403841 21.403841 0 0 0 6.315953-23.965822z" fill="#E6E9ED" /><path d="M896.621145 853.049269H469.256317a21.339842 21.339842 0 0 1-19.171857-11.937912 21.373841 21.373841 0 0 1 2.281983-22.497833c46.295656-59.843556 75.171442-138.028976 85.811363-232.432275 8.639936-76.74743 5.311961-164.166782-9.889927-259.836071-26.031807-163.808784-78.343419-295.709805-78.859415-297.023796-4.233969-10.545922 0.545996-22.561833 10.87592-27.327797 10.311923-4.765965 22.561833-0.623995 27.857793 9.41993l427.332828 810.289986a21.315842 21.315842 0 0 1-0.593995 20.997845 21.319842 21.319842 0 0 1-18.279865 10.347923z" fill="#ED5564" /><path d="M475.708269 1.027592c-11.265916-3.561974-23.265827 2.67198-26.811801 13.919897L192.482371 825.239475a21.339842 21.339842 0 0 0 3.139977 19.059859 21.339842 21.339842 0 0 0 17.233872 8.749935h256.400097a21.363841 21.363841 0 0 0 21.373842-21.375842l-0.999993-803.836034c3.561974-11.247917-2.67198-23.261827-13.921897-26.809801z" fill="#ED5564" /><path d="M917.962987 853.049269H170.124537c-11.795912 0-21.359841-9.561929-21.359841-21.375842 0-11.779913 9.561929-21.341842 21.359841-21.341841h747.84045c11.811912 0 21.375841 9.561929 21.375841 21.341841a21.367841 21.367841 0 0 1-21.377841 21.375842z" fill="#656D78" /><path d="M490.630159 907.298866V21.385441c0-11.795912-9.561929-21.357841-21.373842-21.357841-11.795912 0-21.359841 9.561929-21.359841 21.357841v887.007417l42.733683-1.093992z" fill="#434A54" /></svg>