<?xml version="1.0" standalone="no"?><!DOCTYPE svg PUBLIC "-//W3C//DTD SVG 1.1//EN" "http://www.w3.org/Graphics/SVG/1.1/DTD/svg11.dtd"><svg class="icon" width="128px" height="128.00px" viewBox="0 0 1024 1024" version="1.1" xmlns="http://www.w3.org/2000/svg"><path d="M804.388 701.586c-4.25 0-8.532-1.282-12.25-3.906-9.624-6.75-11.938-20.06-5.188-29.686 0.594-0.876 27.282-39.652 46.844-102.806 18.03-58.154 33.592-149.698 5.344-255.522-17.124-64.278-11.094-118.76 17.966-161.96 47.53-70.702 138.992-83.03 142.868-83.514 11.688-1.484 22.344 6.796 23.844 18.484 1.468 11.688-6.812 22.36-18.5 23.842-0.718 0.094-76.434 10.624-112.962 65.216-21.748 32.5-25.78 75.216-12 126.932 31.062 116.402 13.688 216.96-6.342 280.832-21.782 69.434-50.936 111.306-52.154 113.056a21.348 21.348 0 0 1-17.47 9.032z" fill="#967ADC" /><path d="M728.362 231.638c-80.59-80.574-187.744-124.948-301.708-124.948-113.964 0-221.084 44.374-301.674 124.948C44.388 312.228 0.016 419.364 0.016 533.328c0 113.978 44.372 221.1 124.964 301.692 80.59 80.592 187.71 124.962 301.674 124.962 113.962 0 221.118-44.372 301.708-124.962s124.962-187.712 124.962-301.692c0-113.964-44.372-221.1-124.962-301.69z" fill="#AC92EB" /><path d="M541.554 122.25c-27.498 27.14-90.434 94.294-155.118 198.398-49.5 79.7-89.684 164.634-119.432 252.412-35.562 104.996-56.186 214.368-61.374 325.364a421.488 421.488 0 0 0 41.124 21.998c0.5-1.686 0.812-3.498 0.876-5.342 3.812-111.652 23.812-221.806 59.466-327.332 28.562-84.558 67.154-166.384 114.746-243.224 64.998-104.934 134.588-179.274 162.338-203.928 1-0.89 1.906-1.876 2.688-2.906a421.418 421.418 0 0 0-45.314-15.44z" fill="#967ADC" /><path d="M426.654 106.69c-2.218 0-4.468 0.046-6.688 0.078-28.75 30.718-85.154 95.964-142.244 190.102-46.874 77.278-84.34 158.04-111.434 240.022-31.248 94.638-48.622 191.164-51.748 287.286a425.274 425.274 0 0 0 10.438 10.844 442.812 442.812 0 0 0 28.092 25.718 21.386 21.386 0 0 0 3.624-11.75c0.718-99.498 17.498-199.712 49.84-297.926 25.936-78.78 61.936-156.462 106.964-230.898 61.53-101.746 128.496-176.868 155.306-202.366a21.482 21.482 0 0 0 5.468-8.468 433.318 433.318 0 0 0-47.618-2.642z" fill="#967ADC" /><path d="M168.852 279.324c-38.466 65.794-68.964 134.916-90.714 205.492-22.906 74.404-36.06 150.558-39.216 226.99a423.012 423.012 0 0 0 33.592 59.654 21.252 21.252 0 0 0 8.344-17.094c-0.656-86.058 12.032-172.242 37.78-256.114 20.656-67.278 49.684-133.26 86.308-196.134 50.06-85.948 105.026-148.664 127.088-169.836a21.254 21.254 0 0 0 6.532-16.514 423.7 423.7 0 0 0-68.184 20.342c-25.72 29.826-63.594 78.294-101.53 143.214zM470.278 641.746c129.652 0 257.084-19.904 380.236-59.374a436.33 436.33 0 0 0 2.78-45.764c-139.212 46.67-284.208 67.326-431.858 61.482a1332.904 1332.904 0 0 1 30.186-73.638c6.75 0.094 13.468 0.156 20.218 0.156 125.246 0 251.958-16.186 377.706-48.186a430.394 430.394 0 0 0-7.718-42.044c-123.34 31.624-247.584 47.576-370.33 47.544a1276.744 1276.744 0 0 1 40.06-75.558c1.312 0 2.624 0.016 3.938 0.016 125.808 0 239.302-27.92 301.176-46.608a416.834 416.834 0 0 0-19.782-38.794c-56.874 16.608-153.242 39.514-259.49 42.42a1182.48 1182.48 0 0 1 49.844-72.934c71.308-2.282 127.744-12.17 163.148-20.28 3.532-0.812 6.938-1.624 10.218-2.422a435.67 435.67 0 0 0-32.248-36.124 4.304 4.304 0 0 1-0.282-0.266c-28 5.842-63.688 11.514-106.058 14.578 23.094-27.966 42.246-47.998 54.028-58.874a420.7 420.7 0 0 0-36.746-23.812c-22.998 22.812-82.498 86.372-146.714 191.414a1280.704 1280.704 0 0 0-11.438 19.094c-0.188 0.312-0.376 0.624-0.532 0.954-22.436 38.216-43.09 77.934-61.872 118.902-0.124 0.296-0.282 0.61-0.406 0.922a1388.448 1388.448 0 0 0-44.092 108.23 512.37 512.37 0 0 0-2.656 7.468 4.074 4.074 0 0 0-0.094 0.312 1422.96 1422.96 0 0 0-34.062 110.87c-0.156 0.5-0.282 1-0.406 1.562a1481.4 1481.4 0 0 0-23.812 106.778 12.47 12.47 0 0 0-0.218 1.156 1528.474 1528.474 0 0 0-16.03 109.056c13.686 4.344 27.624 8 41.716 10.938a1500.32 1500.32 0 0 1 12.906-93.244 1026.282 1026.282 0 0 0 93.716 4.312c36.216 0 72.152-1.938 107.556-5.812 67-7.312 132.556-21.688 195.648-42.75a429.488 429.488 0 0 0 45.124-62.154c-0.938 0.25-1.876 0.532-2.782 0.906-76.996 31.688-158.618 52.406-242.646 61.56-61.684 6.75-125.088 7.344-188.804 1.812a1439.298 1439.298 0 0 1 14.592-64.936 1215.536 1215.536 0 0 0 97.184 3.938c121.84 0 238.708-18.748 349.048-55.936a416.12 416.12 0 0 0 17.844-51.624c-140.402 52.654-292.584 73.374-452.952 61.686a1382.576 1382.576 0 0 1 21.28-68.558c21.346 1.064 42.626 1.626 63.876 1.626z" fill="#967ADC" /><path d="M167.632 835.02c-80.558-80.592-124.962-187.712-124.962-301.692 0-113.964 44.404-221.1 124.962-301.69 75.56-75.528 174.43-119.246 280.364-124.432-7.06-0.344-14.186-0.516-21.342-0.516-113.964 0-221.084 44.374-301.674 124.948C44.388 312.228 0.016 419.364 0.016 533.328c0 113.978 44.372 221.1 124.964 301.692 80.59 80.592 187.71 124.962 301.674 124.962 7.156 0 14.282-0.188 21.342-0.532-105.932-5.156-204.802-48.902-280.364-124.43z" fill="#FFFFFF" opacity=".2" /></svg>