<?xml version="1.0" standalone="no"?><!DOCTYPE svg PUBLIC "-//W3C//DTD SVG 1.1//EN" "http://www.w3.org/Graphics/SVG/1.1/DTD/svg11.dtd"><svg class="icon" width="128px" height="128.00px" viewBox="0 0 1024 1024" version="1.1" xmlns="http://www.w3.org/2000/svg"><path d="M874.016 149.984c199.96 199.932 199.96 524.124 0 724.052-199.96 199.932-524.108 199.932-724.052 0-199.932-199.93-199.932-524.122 0-724.052 199.944-199.96 524.09-199.96 724.052 0z" fill="#424953" /><path d="M149.962 149.984c-199.932 199.932-199.932 524.124 0 724.052 81.918 81.874 184.682 130.246 291.208 144.998-72.436-35.062-174.416-111.186-174.416-261.742 0-233.54 245.24-245.29 245.24-245.29s245.242-11.782 245.242-245.304c0-150.588-101.996-226.68-174.434-261.772-153.49-21.31-314.796 27.032-432.84 145.058z" fill="#E5E8EC" /><path d="M149.962 149.984c-199.932 199.932-199.932 524.124 0 724.052 81.918 81.874 184.682 130.246 291.208 144.998-72.436-35.062-174.416-111.186-174.416-261.742 0-233.54 245.24-245.29 245.24-245.29s245.242-11.782 245.242-245.304c0-150.588-101.996-226.68-174.434-261.772-153.49-21.31-314.796 27.032-432.84 145.058z" fill="#E5E8EC" /><path d="M513.544 725.356c-35.296 0-63.998 28.686-63.998 64 0 35.248 28.702 63.996 63.998 63.996 35.264 0 63.978-28.748 63.978-63.996 0.002-35.314-28.714-64-63.978-64z" fill="#CBD0D8" /><path d="M513.544 213.326c-35.296 0-63.998 28.718-63.998 64.03 0 35.28 28.702 63.998 63.998 63.998 35.264 0 63.978-28.718 63.978-63.998 0.002-35.312-28.714-64.03-63.978-64.03z" fill="#424953" /><path d="M513.544 192.014c-35.296 0-63.998 28.718-63.998 63.998 0 35.282 28.702 63.998 63.998 63.998 35.264 0 63.978-28.716 63.978-63.998 0.002-35.28-28.714-63.998-63.978-63.998z" fill="#646C77" /><path d="M513.544 703.982c-35.296 0-63.998 28.748-63.998 63.996 0 35.31 28.702 63.998 63.998 63.998 35.264 0 63.978-28.688 63.978-63.998 0.002-35.248-28.714-63.996-63.978-63.996z" fill="#E5E8EC" /><path d="M149.962 171.296c199.946-199.932 524.092-199.932 724.052 0 97.278 97.278 147.214 223.93 149.84 351.362 2.782-134.556-47.156-269.988-149.84-372.674-199.96-199.96-524.108-199.96-724.052 0C47.278 252.67-2.642 388.102 0.138 522.658 2.78 395.226 52.714 268.574 149.962 171.296z" fill="#FFFFFF" opacity=".2" /><path d="M873.984 852.664c-199.93 199.992-524.092 199.992-724.04 0C52.7 755.416 2.764 628.796 0.124 501.348c-2.782 134.572 47.138 270.008 149.822 372.69 199.948 199.932 524.11 199.932 724.04 0 102.684-102.682 152.622-238.118 149.872-372.69-2.658 127.448-52.592 254.068-149.874 351.316z" opacity=".1" /></svg>