<?xml version="1.0" standalone="no"?><!DOCTYPE svg PUBLIC "-//W3C//DTD SVG 1.1//EN" "http://www.w3.org/Graphics/SVG/1.1/DTD/svg11.dtd"><svg class="icon" width="128px" height="128.00px" viewBox="0 0 1024 1024" version="1.1" xmlns="http://www.w3.org/2000/svg"><path d="M904.116 725.59l-29.5-449.646c-0.75-11.218-10.062-19.936-21.28-19.936H21.354c-11.782 0-21.342 9.562-21.342 21.342v682.638c0 11.782 9.562 21.344 21.342 21.344h874.636c70.594 0 127.998-57.434 127.998-127.996 0-67.844-53.06-123.528-119.872-127.746z" fill="#967ADC" /><path d="M176.914 347.598c-8.312 8.312-8.312 21.812 0 30.154a21.332 21.332 0 0 0 30.188 0c8.312-8.342 8.312-21.842 0-30.154a21.332 21.332 0 0 0-30.188 0zM347.596 347.598c-8.342 8.312-8.342 21.812 0 30.154 8.312 8.344 21.812 8.344 30.156 0 8.342-8.342 8.342-21.842 0-30.154-8.342-8.344-21.842-8.344-30.156 0zM518.248 347.598c-8.342 8.312-8.342 21.812 0 30.154 8.344 8.344 21.844 8.344 30.156 0 8.344-8.342 8.344-21.842 0-30.154-8.312-8.344-21.812-8.344-30.156 0zM91.602 432.91a21.334 21.334 0 0 0 0 30.186c8.312 8.312 21.812 8.312 30.156 0a21.334 21.334 0 0 0 0-30.186c-8.342-8.314-21.842-8.314-30.156 0zM176.914 518.25c-8.312 8.312-8.312 21.844 0 30.156a21.332 21.332 0 0 0 30.188 0c8.312-8.312 8.312-21.844 0-30.156a21.336 21.336 0 0 0-30.188 0zM262.254 432.91a21.334 21.334 0 0 0 0 30.186c8.344 8.312 21.844 8.312 30.156 0a21.334 21.334 0 0 0 0-30.186c-8.312-8.314-21.812-8.314-30.156 0zM347.596 518.25c-8.342 8.312-8.342 21.844 0 30.156 8.312 8.344 21.812 8.344 30.156 0 8.342-8.312 8.342-21.844 0-30.156-8.342-8.342-21.842-8.342-30.156 0zM432.908 432.91c-8.312 8.342-8.312 21.842 0 30.186 8.344 8.312 21.844 8.312 30.188 0 8.312-8.342 8.312-21.842 0-30.186-8.346-8.314-21.846-8.314-30.188 0zM518.248 518.25c-8.342 8.312-8.342 21.844 0 30.156 8.344 8.344 21.844 8.344 30.156 0 8.344-8.312 8.344-21.844 0-30.156-8.312-8.342-21.812-8.342-30.156 0zM603.592 432.91a21.33 21.33 0 0 0 0 30.186c8.312 8.312 21.812 8.312 30.156 0a21.33 21.33 0 0 0 0-30.186c-8.344-8.314-21.844-8.314-30.156 0zM91.602 603.594c-8.342 8.308-8.342 21.808 0 30.152 8.312 8.344 21.812 8.344 30.156 0 8.342-8.344 8.342-21.844 0-30.152-8.342-8.344-21.842-8.344-30.156 0zM176.914 688.902c-8.312 8.344-8.312 21.844 0 30.188 8.344 8.312 21.844 8.312 30.188 0 8.312-8.344 8.312-21.844 0-30.188-8.346-8.312-21.846-8.312-30.188 0zM262.254 603.594c-8.342 8.308-8.342 21.808 0 30.152 8.344 8.344 21.844 8.344 30.156 0 8.342-8.344 8.342-21.844 0-30.152-8.312-8.344-21.812-8.344-30.156 0zM347.596 688.902a21.336 21.336 0 0 0 0 30.188c8.312 8.312 21.812 8.312 30.156 0a21.336 21.336 0 0 0 0-30.188c-8.342-8.312-21.842-8.312-30.156 0zM432.908 603.594c-8.312 8.308-8.312 21.808 0 30.152a21.332 21.332 0 0 0 30.188 0c8.312-8.344 8.312-21.844 0-30.152a21.332 21.332 0 0 0-30.188 0zM518.248 688.902a21.336 21.336 0 0 0 0 30.188c8.344 8.312 21.844 8.312 30.156 0a21.332 21.332 0 0 0 0-30.188c-8.312-8.312-21.812-8.312-30.156 0zM603.592 603.594c-8.344 8.308-8.344 21.808 0 30.152 8.312 8.344 21.812 8.344 30.156 0s8.344-21.844 0-30.152c-8.344-8.344-21.844-8.344-30.156 0zM91.602 774.242c-8.342 8.344-8.342 21.844 0 30.156 8.312 8.344 21.812 8.344 30.156 0 8.342-8.312 8.342-21.812 0-30.156-8.342-8.34-21.842-8.34-30.156 0zM176.914 859.586c-8.312 8.312-8.312 21.812 0 30.156a21.332 21.332 0 0 0 30.188 0c8.312-8.344 8.312-21.844 0-30.156a21.332 21.332 0 0 0-30.188 0zM688.9 347.598c-8.31 8.312-8.31 21.812 0 30.154a21.332 21.332 0 0 0 30.188 0c8.312-8.342 8.312-21.842 0-30.154a21.332 21.332 0 0 0-30.188 0zM688.9 518.25c-8.31 8.312-8.31 21.844 0 30.156a21.332 21.332 0 0 0 30.188 0c8.312-8.312 8.312-21.844 0-30.156a21.336 21.336 0 0 0-30.188 0zM688.9 688.902c-8.31 8.344-8.31 21.844 0 30.188 8.344 8.312 21.844 8.312 30.188 0 8.312-8.344 8.312-21.844 0-30.188-8.344-8.312-21.844-8.312-30.188 0zM688.9 859.586c-8.31 8.312-8.31 21.812 0 30.156a21.332 21.332 0 0 0 30.188 0c8.312-8.344 8.312-21.844 0-30.156a21.332 21.332 0 0 0-30.188 0zM262.254 774.242c-8.342 8.344-8.342 21.844 0 30.156 8.344 8.344 21.844 8.344 30.156 0 8.342-8.312 8.342-21.812 0-30.156-8.312-8.34-21.812-8.34-30.156 0zM347.596 859.586c-8.342 8.312-8.342 21.812 0 30.156 8.312 8.344 21.812 8.344 30.156 0 8.342-8.344 8.342-21.844 0-30.156-8.342-8.344-21.842-8.344-30.156 0zM432.908 774.242c-8.312 8.344-8.312 21.844 0 30.156a21.332 21.332 0 0 0 30.188 0c8.312-8.312 8.312-21.812 0-30.156a21.34 21.34 0 0 0-30.188 0zM518.248 859.586c-8.342 8.312-8.342 21.812 0 30.156 8.344 8.344 21.844 8.344 30.156 0 8.344-8.344 8.344-21.844 0-30.156-8.312-8.344-21.812-8.344-30.156 0zM603.592 774.242c-8.344 8.344-8.344 21.844 0 30.156 8.312 8.344 21.812 8.344 30.156 0 8.344-8.312 8.344-21.812 0-30.156-8.344-8.34-21.844-8.34-30.156 0zM859.584 859.586c-8.342 8.312-8.342 21.812 0 30.156 8.312 8.344 21.812 8.344 30.156 0s8.344-21.844 0-30.156c-8.344-8.344-21.844-8.344-30.156 0z" fill="#080808" opacity=".1" /><path d="M1023.988 853.336zM767.994 853.336zM895.99 42.666c-70.592 0-127.996 57.436-127.996 127.998v682.67c0-70.688 57.31-127.996 127.996-127.996 70.688 0 127.998 57.308 127.998 127.996V170.666c0-70.562-57.404-128-127.998-128z" fill="#AC92EB" /></svg>