<?xml version="1.0" standalone="no"?><!DOCTYPE svg PUBLIC "-//W3C//DTD SVG 1.1//EN" "http://www.w3.org/Graphics/SVG/1.1/DTD/svg11.dtd"><svg class="icon" width="128px" height="128.00px" viewBox="0 0 1024 1024" version="1.1" xmlns="http://www.w3.org/2000/svg"><path d="M710.374 113.196c-2 1.438-4 2.844-6.124 4.218-38 25.062-78.436 29.156-120.216 12.156-32.594-13.25-68.296-9.968-106.14 9.782-56.406 29.406-117.498 97.124-172.028 190.654-50.828 87.186-92.14 190.684-113.328 283.934-2.61 11.5 4.578 22.906 16.078 25.532 1.594 0.376 3.172 0.532 4.734 0.532 9.75 0 18.546-6.718 20.796-16.594 20.266-89.218 59.844-188.312 108.576-271.902 50.532-86.686 105.53-148.592 154.888-174.34 26.234-13.656 49.89-16.376 70.36-8.062 54.782 22.28 110.03 16.718 159.778-16.062a207.55 207.55 0 0 0 13.376-9.624 64.332 64.332 0 0 1-30.75-30.224z" fill="#434A54" /><path d="M783.526 368.472C710.998 295.94 614.564 256.004 512 256.004c-102.576 0-198.996 39.936-271.528 112.468C167.944 441 128.006 537.438 128.006 640c0 102.558 39.938 198.996 112.466 271.524 72.532 72.532 168.952 112.468 271.528 112.468 102.562 0 198.998-39.938 271.526-112.468 72.532-72.528 112.468-168.964 112.468-271.524 0-102.562-39.938-199-112.468-271.528z" fill="#FFCE54" /><path d="M512 320.004c-11.782 0-21.328-9.562-21.328-21.344v-21.312c0-11.78 9.546-21.342 21.328-21.342s21.328 9.562 21.328 21.342v21.312c0 11.782-9.546 21.344-21.328 21.344zM512 1023.992c-11.782 0-21.328-9.562-21.328-21.344v-21.312c0-11.782 9.546-21.344 21.328-21.344s21.328 9.562 21.328 21.344v21.312c0 11.782-9.546 21.344-21.328 21.344zM341.362 365.722c-7.374 0-14.544-3.812-18.498-10.656l-10.672-18.468c-5.89-10.218-2.39-23.25 7.812-29.156 10.204-5.876 23.248-2.376 29.138 7.812l10.672 18.468c5.89 10.218 2.39 23.25-7.812 29.156a21.238 21.238 0 0 1-10.64 2.844zM693.374 975.398c-7.376 0-14.562-3.812-18.5-10.656l-10.688-18.468c-5.876-10.218-2.376-23.25 7.812-29.156 10.188-5.876 23.25-2.406 29.124 7.812l10.688 18.468c5.876 10.218 2.376 23.25-7.812 29.156a21.26 21.26 0 0 1-10.624 2.844zM216.378 490.658c-3.624 0-7.282-0.906-10.64-2.844l-18.482-10.656c-10.204-5.906-13.704-18.938-7.812-29.156s18.936-13.688 29.154-7.812l18.468 10.656c10.204 5.906 13.704 18.938 7.812 29.156-3.952 6.842-11.124 10.656-18.5 10.656zM826.056 842.652c-3.624 0-7.312-0.906-10.656-2.844l-18.468-10.656c-10.188-5.906-13.688-18.938-7.812-29.156 5.876-10.188 18.938-13.688 29.124-7.812l18.5 10.656c10.188 5.906 13.688 18.938 7.812 29.156-3.936 6.844-11.124 10.656-18.5 10.656zM170.678 661.344H149.334c-11.782 0-21.328-9.562-21.328-21.344s9.546-21.344 21.328-21.344h21.344c11.782 0 21.326 9.562 21.326 21.344s-9.546 21.344-21.326 21.344zM853.338 661.344c-11.782 0-21.344-9.562-21.344-21.344s9.562-21.344 21.312-21.344h21.376c11.75 0 21.312 9.562 21.312 21.344s-9.562 21.344-21.312 21.344h-21.344zM197.942 842.652c-7.376 0-14.53-3.812-18.482-10.656-5.89-10.188-2.406-23.25 7.796-29.124l18.482-10.688c10.204-5.876 23.25-2.406 29.14 7.812 5.89 10.188 2.39 23.25-7.812 29.124l-18.468 10.688a21.252 21.252 0 0 1-10.656 2.844zM807.62 490.658c-7.376 0-14.562-3.812-18.5-10.656-5.876-10.188-2.376-23.25 7.812-29.124l18.468-10.688c10.218-5.876 23.282-2.406 29.156 7.812 5.876 10.188 2.376 23.25-7.812 29.124l-18.5 10.688a21.116 21.116 0 0 1-10.624 2.844zM330.66 975.398c-3.624 0-7.296-0.906-10.656-2.844-10.204-5.906-13.704-18.938-7.812-29.156l10.672-18.468c5.89-10.218 18.936-13.688 29.138-7.812 10.204 5.906 13.704 18.938 7.812 29.156l-10.672 18.468a21.306 21.306 0 0 1-18.482 10.656zM682.654 365.722c-3.624 0-7.282-0.906-10.656-2.844-10.188-5.906-13.688-18.938-7.812-29.156l10.688-18.468c5.876-10.188 18.938-13.688 29.124-7.812 10.188 5.906 13.688 18.938 7.812 29.156l-10.688 18.468c-3.936 6.844-11.124 10.656-18.468 10.656z" fill="#F6BB42" /><path d="M767.994 170.664c-47.06 0-85.308-38.282-85.308-85.312 0-47.062 38.248-85.342 85.308-85.342 47.062 0 85.312 38.282 85.312 85.342 0 47.03-38.25 85.312-85.312 85.312z m0-127.998c-23.53 0-42.686 19.156-42.686 42.686 0 23.532 19.156 42.656 42.686 42.656 23.532 0 42.688-19.124 42.688-42.656 0-23.53-19.156-42.686-42.688-42.686z" fill="#E6E9ED" /><path d="M738.246 414.47c-60.436-60.436-140.778-93.748-226.246-93.748s-165.842 33.312-226.278 93.748c-60.438 60.436-93.718 140.78-93.718 226.248 0 85.496 33.282 165.84 93.718 226.278 60.436 60.434 140.808 93.714 226.278 93.714s165.81-33.282 226.246-93.714c60.466-60.438 93.748-140.782 93.748-226.278 0-85.468-33.282-165.81-93.748-226.248z" fill="#ED5564" /><path d="M738.246 414.47c-60.436-60.436-140.778-93.748-226.246-93.748s-165.842 33.312-226.278 93.748c-60.438 60.436-93.718 140.78-93.718 226.248 0 85.496 33.282 165.84 93.718 226.278 60.436 60.434 140.808 93.714 226.278 93.714s165.81-33.282 226.246-93.714c60.466-60.438 93.748-140.782 93.748-226.278 0-85.468-33.282-165.81-93.748-226.248zM708.124 836.84c-52.406 52.376-122.06 81.214-196.124 81.214-74.078 0-143.716-28.84-196.106-81.214-52.376-52.376-81.218-122.032-81.218-196.122 0-74.062 28.844-143.718 81.218-196.092 52.388-52.374 122.028-81.216 196.106-81.216 74.062 0 143.716 28.842 196.124 81.216 52.372 52.376 81.184 122.03 81.184 196.092-0.002 74.09-28.814 143.746-81.184 196.122z" fill="#DA4453" /><path d="M512 744.028l-114.544 60.25 21.872-127.56-92.652-90.342 128.058-18.594L512 451.75l57.25 116.032 128.06 18.624-92.622 90.312 21.874 127.56z" fill="#FFCE54" /></svg>