<?xml version="1.0" standalone="no"?><!DOCTYPE svg PUBLIC "-//W3C//DTD SVG 1.1//EN" "http://www.w3.org/Graphics/SVG/1.1/DTD/svg11.dtd"><svg class="icon" width="128px" height="128.00px" viewBox="0 0 1024 1024" version="1.1" xmlns="http://www.w3.org/2000/svg"><path d="M850.554 31.796c1.75-3.062 2.688-6.592 2.688-10.358 0-11.78-9.496-21.322-21.306-21.322a21.31 21.31 0 0 0-18.622 10.964l-0.062 0.124c-0.062 0.032-0.062 0.078-0.124 0.124L512.024 553.396 210.874 11.332c-0.032-0.046-0.062-0.094-0.094-0.124l-0.062-0.124A21.302 21.302 0 0 0 192.098 0.12c-11.81 0-21.34 9.542-21.34 21.322 0 3.766 0.968 7.294 2.688 10.358l317.24 571.056v399.72c0 11.748 9.56 21.308 21.338 21.308 11.78 0 21.308-9.56 21.308-21.308v-399.72l317.222-571.06zM512.024 597.292h-0.032 0.032z" fill="#DA4453" /><path d="M277.39 597.292h469.252c11.748 0 21.306-9.528 21.306-21.306s-9.558-21.306-21.306-21.306H277.39c-11.78 0-21.308 9.528-21.308 21.306s9.53 21.306 21.308 21.306zM746.642 725.264H277.39c-11.78 0-21.308 9.558-21.308 21.37 0 11.748 9.53 21.308 21.308 21.308h469.252c11.748 0 21.306-9.56 21.306-21.308 0.002-11.812-9.558-21.37-21.306-21.37z" fill="#ED5564" /></svg>