<?xml version="1.0" standalone="no"?><!DOCTYPE svg PUBLIC "-//W3C//DTD SVG 1.1//EN" "http://www.w3.org/Graphics/SVG/1.1/DTD/svg11.dtd"><svg class="icon" width="128px" height="128.00px" viewBox="0 0 1024 1024" version="1.1" xmlns="http://www.w3.org/2000/svg"><path d="M192.006625 213.335583c-11.781977 0-21.327958-9.545981-21.327958-21.327958V106.681792c0-11.781977 9.545981-21.343958 21.327958-21.343959s21.327958 9.561981 21.327958 21.343959v85.325833c0 11.781977-9.545981 21.327958-21.327958 21.327958zM831.991375 213.335583c-11.781977 0-21.311958-9.545981-21.311958-21.327958V106.681792c0-11.781977 9.531981-21.343958 21.311958-21.343959s21.311958 9.561981 21.311958 21.343959v85.325833c0 11.781977-9.529981 21.327958-21.311958 21.327958z" fill="#4A89DC" /><path d="M831.991375 853.302333H192.006625c-11.781977 0-21.327958-9.531981-21.327958-21.309958V192.007625c0-11.781977 9.545981-21.327958 21.327958-21.327958h50.091902c22.811955-48.091906 57.951887-89.107826 102.2938-119.231767C393.940231 17.791965 451.892117 0.012 512 0.012c60.121883 0 118.059769 17.779965 167.621673 51.4359 44.307913 30.123941 79.463845 71.139861 102.2778 119.231767h50.093902c11.781977 0 21.311958 9.545981 21.311958 21.327958v639.98475a21.299958 21.299958 0 0 1-21.313958 21.309958z" fill="#5D9CEC" /><path d="M213.334583 43.461915c0 11.781977-9.545981 21.327958-21.327958 21.327958s-21.327958-9.545981-21.327958-21.327958c0-11.795977 9.545981-21.343958 21.327958-21.343958s21.327958 9.547981 21.327958 21.343958z" fill="#4A89DC" /><path d="M874.679292 723.804586H149.336708c-11.781977 0-21.327958 9.561981-21.327958 21.311959v86.87583c0 11.779977 9.545981 21.309958 21.327958 21.309958H874.679292c11.749977 0 21.311958-9.531981 21.311958-21.309958V745.118545c0-11.749977-9.561981-21.313958-21.311958-21.313959zM746.679542 1023.986H277.334458c-11.781977 0-21.327958-9.561981-21.327958-21.311958 0-11.811977 9.545981-21.373958 21.327958-21.373959H746.679542c11.749977 0 21.311958 9.559981 21.311958 21.373959 0 11.749977-9.561981 21.311958-21.311958 21.311958z" fill="#434A54" /><path d="M853.303333 43.461915c0 11.781977-9.531981 21.327958-21.311958 21.327958s-21.311958-9.545981-21.311958-21.327958c0-11.795977 9.531981-21.343958 21.311958-21.343958s21.311958 9.547981 21.311958 21.343958z" fill="#4A89DC" /><path d="M441.860137 743.680547h106.951791v128.997749H441.860137z" fill="#8CC153" /><path d="M420.720178 810.678417v191.995625h149.775708V810.678417l-42.651917 21.313958-32.499936-21.313958-31.967938 21.313958z" fill="#AC92EB" /><path d="M388.95624 468.999084h42.669917v106.685792h-42.669917zM463.626094 362.331292a21.331958 21.331958 0 0 0-21.343958 21.343959v192.009625h42.669917v-192.009625c0.002-11.797977-9.545981-21.343958-21.325959-21.343959zM516.95399 404.985209c-11.781977 0-21.327958 9.561981-21.327958 21.343958v149.355709h42.655917v-149.355709c0-11.781977-9.547981-21.343958-21.327959-21.343958z" fill="#A0D468" /><path d="M352.534311 603.244822c-8.327984 8.311984-6.249988 17.749965 0 30.187941l43.421916 91.309821 71.013861-37.247927-84.263835-84.249835c-8.327984-8.309984-21.843957-8.309984-30.171942 0z" fill="#8CC153" /><path d="M548.937928 511.655001h42.683916v106.651791h-42.683916z" fill="#A0D468" /><path d="M591.621844 687.682657c0 55.935891-45.371911 101.307802-101.339802 101.307802-55.965891 0-101.325802-45.373911-101.325802-101.307802 0-55.999891 45.357911-101.373802 101.325802-101.373802 55.967891 0 101.339802 45.373911 101.339802 101.373802z" fill="#A0D468" /><path d="M388.95624 575.684876h202.665604v111.997781H388.95624z" fill="#A0D468" /></svg>